<?xml version="1.0" encoding="UTF-8"?>
<svg xmlns="http://www.w3.org/2000/svg" xmlns:xlink="http://www.w3.org/1999/xlink" version="1.1" baseProfile="full" width="768" height="1024" viewBox="0,0,768,1024" preserveAspectRatio="xMinYMin meet" >
<style type="text/css">
<![CDATA[
path {fill-opacity: 0.5;fill: #00aeef;visibility: hidden;}
]]>
</style>
<path d="M137.11 113.89l55.04 0l0 15.09l-55.04 0Z" id="p132w1" />
<path d="M195.76 113.89l41.24 0l0 15.09l-41.24 0Z" id="p132w2" />
<path d="M240.62 113.89l17.38 0l0 15.09l-17.38 0Z" id="p132w3" />
<path d="M261.6 113.89l11.95 0l0 15.09l-11.95 0Z" id="p132w4" />
<path d="M277.17 113.89l15.94 0l0 15.09l-15.94 0Z" id="p132w5" />
<path d="M296.71 113.89l11 0l0 15.09l-11 0Z" id="p132w6" />
<path d="M314.49 113.89l25.9 0l0 15.09l-25.9 0Z" id="p132w7" />
<path d="M344 113.89l10.54 0l0 15.09l-10.54 0Z" id="p132w8" />
<path d="M358.15 113.89l58.25 0l0 15.09l-58.25 0Z" id="p132w9" />
<path d="M420 113.89l45.53 0l0 15.09l-45.53 0Z" id="p132w10" />
<path d="M469.15 113.89l12.22 0l0 15.09l-12.22 0Z" id="p132w11" />
<path d="M484.98 113.89l17.93 0l0 15.09l-17.93 0Z" id="p132w12" />
<path d="M506.52 113.89l62.23 0l0 15.09l-62.23 0Z" id="p132w13" />
<path d="M572.36 113.89l23.06 0l0 15.09l-23.06 0Z" id="p132w14" />
<path d="M137.11 130.56l15.01 0l0 15.09l-15.01 0Z" id="p132w15" />
<path d="M155.73 130.56l16.72 0l0 15.09l-16.72 0Z" id="p132w16" />
<path d="M176.06 130.56l12.58 0l0 15.09l-12.58 0Z" id="p132w17" />
<path d="M192.25 130.56l14.59 0l0 15.09l-14.59 0Z" id="p132w18" />
<path d="M210.45 130.56l11.26 0l0 15.09l-11.26 0Z" id="p132w19" />
<path d="M225.32 130.56l34.55 0l0 15.09l-34.55 0Z" id="p132w20" />
<path d="M263.48 130.56l19.46 0l0 15.09l-19.46 0Z" id="p132w21" />
<path d="M286.55 130.56l24.79 0l0 15.09l-24.79 0Z" id="p132w22" />
<path d="M314.95 130.56l32.08 0l0 15.09l-32.08 0Z" id="p132w23" />
<path d="M124.06 155.57l8.02 0l0 15.09l-8.02 0Z" id="p132w24" />
<path d="M135.69 155.57l25.59 0l0 15.09l-25.59 0Z" id="p132w25" />
<path d="M164.89 155.57l40.12 0l0 15.09l-40.12 0Z" id="p132w26" />
<path d="M212.73 155.58l27.23 0l0 15.09l-27.23 0Z" id="p132w27" />
<path d="M243.58 155.58l18.52 0l0 15.09l-18.52 0Z" id="p132w28" />
<path d="M265.71 155.58l50.55 0l0 15.09l-50.55 0Z" id="p132w29" />
<path d="M319.87 155.58l11.26 0l0 15.09l-11.26 0Z" id="p132w30" />
<path d="M334.74 155.58l18.07 0l0 15.09l-18.07 0Z" id="p132w31" />
<path d="M356.42 155.58l35.69 0l0 15.09l-35.69 0Z" id="p132w32" />
<path d="M395.72 155.58l10.42 0l0 15.09l-10.42 0Z" id="p132w33" />
<path d="M409.75 155.58l22.52 0l0 15.09l-22.52 0Z" id="p132w34" />
<path d="M435.88 155.58l50.07 0l0 15.09l-50.07 0Z" id="p132w35" />
<path d="M489.56 155.58l36.95 0l0 15.09l-36.95 0Z" id="p132w36" />
<path d="M530.13 155.58l21.39 0l0 15.09l-21.39 0Z" id="p132w37" />
<path d="M555.12 155.58l8.02 0l0 15.09l-8.02 0Z" id="p132w38" />
<path d="M566.75 155.58l28.12 0l0 15.09l-28.12 0Z" id="p132w39" />
<path d="M598.48 155.58l23.27 0l0 15.09l-23.27 0Z" id="p132w40" />
<path d="M124.07 172.24l44.62 0l0 15.09l-44.62 0Z" id="p132w41" />
<path d="M176.4 172.25l11.26 0l0 15.09l-11.26 0Z" id="p132w42" />
<path d="M191.27 172.25l43.92 0l0 15.09l-43.92 0Z" id="p132w43" />
<path d="M137.1 197.26l66.48 0l0 15.09l-66.48 0Z" id="p132w44" />
<path d="M214.15 197.26l14.27 0l0 15.09l-14.27 0Z" id="p132w45" />
<path d="M232.02 197.26l12.85 0l0 15.09l-12.85 0Z" id="p132w46" />
<path d="M248.49 197.26l56.92 0l0 15.09l-56.92 0Z" id="p132w47" />
<path d="M309.02 197.26l10.63 0l0 15.09l-10.63 0Z" id="p132w48" />
<path d="M323.26 197.26l22.4 0l0 15.09l-22.4 0Z" id="p132w49" />
<path d="M349.27 197.26l34.43 0l0 15.09l-34.43 0Z" id="p132w50" />
<path d="M394.58 197.26l28.72 0l0 15.09l-28.72 0Z" id="p132w51" />
<path d="M426.92 197.26l61.66 0l0 15.09l-61.66 0Z" id="p132w52" />
<path d="M492.2 197.26l25.88 0l0 15.09l-25.88 0Z" id="p132w53" />
<path d="M521.69 197.26l29.8 0l0 15.09l-29.8 0Z" id="p132w54" />
<path d="M555.11 197.26l12.22 0l0 15.09l-12.22 0Z" id="p132w55" />
<path d="M570.94 197.26l10.42 0l0 15.09l-10.42 0Z" id="p132w56" />
<path d="M584.97 197.26l29.26 0l0 15.09l-29.26 0Z" id="p132w57" />
<path d="M137.11 213.93l43.61 0l0 15.09l-43.61 0Z" id="p132w58" />
<path d="M137.11 247.26l48.53 0l0 15.09l-48.53 0Z" id="p132w59" />
<path d="M189.25 247.26l45.93 0l0 15.09l-45.93 0Z" id="p132w60" />
<path d="M238.79 247.26l12.41 0l0 15.09l-12.41 0Z" id="p132w61" />
<path d="M254.82 247.26l13.22 0l0 15.09l-13.22 0Z" id="p132w62" />
<path d="M271.66 247.26l56.7 0l0 15.09l-56.7 0Z" id="p132w63" />
<path d="M137.11 263.93l24.15 0l0 15.09l-24.15 0Z" id="p132w64" />
<path d="M164.87 263.93l27.08 0l0 15.09l-27.08 0Z" id="p132w65" />
<path d="M195.56 263.93l21.87 0l0 15.09l-21.87 0Z" id="p132w66" />
<path d="M221.04 263.93l13.91 0l0 15.09l-13.91 0Z" id="p132w67" />
<path d="M238.56 263.93l41.22 0l0 15.09l-41.22 0Z" id="p132w68" />
<path d="M283.39 263.93l12.99 0l0 15.09l-12.99 0Z" id="p132w69" />
<path d="M299.99 263.93l63.59 0l0 15.09l-63.59 0Z" id="p132w70" />
<path d="M367.2 263.93l12.66 0l0 15.09l-12.66 0Z" id="p132w71" />
<path d="M137.11 280.6l28.22 0l0 15.09l-28.22 0Z" id="p132w72" />
<path d="M168.94 280.6l19.46 0l0 15.09l-19.46 0Z" id="p132w73" />
<path d="M192.01 280.6l53.76 0l0 15.09l-53.76 0Z" id="p132w74" />
<path d="M249.38 280.6l27.18 0l0 15.09l-27.18 0Z" id="p132w75" />
<path d="M280.18 280.6l54.65 0l0 15.09l-54.65 0Z" id="p132w76" />
<path d="M137.11 297.27l53.53 0l0 15.09l-53.53 0Z" id="p132w77" />
<path d="M194.25 297.27l21.67 0l0 15.09l-21.67 0Z" id="p132w78" />
<path d="M219.53 297.27l12.41 0l0 15.09l-12.41 0Z" id="p132w79" />
<path d="M235.55 297.27l20.32 0l0 15.09l-20.32 0Z" id="p132w80" />
<path d="M259.48 297.27l27.23 0l0 15.09l-27.23 0Z" id="p132w81" />
<path d="M290.33 297.27l10.42 0l0 15.09l-10.42 0Z" id="p132w82" />
<path d="M304.36 297.27l17.14 0l0 15.09l-17.14 0Z" id="p132w83" />
<path d="M137.11 313.94l21.35 0l0 15.09l-21.35 0Z" id="p132w84" />
<path d="M162.07 313.94l38.27 0l0 15.09l-38.27 0Z" id="p132w85" />
<path d="M203.95 313.94l13.91 0l0 15.09l-13.91 0Z" id="p132w86" />
<path d="M221.47 313.94l72.7 0l0 15.09l-72.7 0Z" id="p132w87" />
<path d="M307.89 313.94l55.56 0l0 15.09l-55.56 0Z" id="p132w88" />
<path d="M137.11 330.61l16.23 0l0 15.09l-16.23 0Z" id="p132w89" />
<path d="M163.91 330.61l12.22 0l0 15.09l-12.22 0Z" id="p132w90" />
<path d="M179.74 330.61l26.3 0l0 15.09l-26.3 0Z" id="p132w91" />
<path d="M209.65 330.61l27.82 0l0 15.09l-27.82 0Z" id="p132w92" />
<path d="M241.08 330.61l12.58 0l0 15.09l-12.58 0Z" id="p132w93" />
<path d="M257.27 330.61l21.67 0l0 15.09l-21.67 0Z" id="p132w94" />
<path d="M282.55 330.61l12.41 0l0 15.09l-12.41 0Z" id="p132w95" />
<path d="M298.58 330.61l18.55 0l0 15.09l-18.55 0Z" id="p132w96" />
<path d="M330.84 330.61l55.51 0l0 15.09l-55.51 0Z" id="p132w97" />
<path d="M124.06 355.62l8.02 0l0 15.09l-8.02 0Z" id="p132w98" />
<path d="M145.8 355.62l34.34 0l0 15.09l-34.34 0Z" id="p132w99" />
<path d="M183.75 355.62l13.91 0l0 15.09l-13.91 0Z" id="p132w100" />
<path d="M201.27 355.62l24.41 0l0 15.09l-24.41 0Z" id="p132w101" />
<path d="M137.11 380.63l22.25 0l0 15.09l-22.25 0Z" id="p132w102" />
<path d="M162.97 380.63l26.33 0l0 15.09l-26.33 0Z" id="p132w103" />
<path d="M192.91 380.63l10.63 0l0 15.09l-10.63 0Z" id="p132w104" />
<path d="M207.15 380.63l22.4 0l0 15.09l-22.4 0Z" id="p132w105" />
<path d="M233.16 380.63l14.59 0l0 15.09l-14.59 0Z" id="p132w106" />
<path d="M251.36 380.63l54.97 0l0 15.09l-54.97 0Z" id="p132w107" />
<path d="M309.94 380.63l46.28 0l0 15.09l-46.28 0Z" id="p132w108" />
<path d="M359.83 380.63l19.29 0l0 15.09l-19.29 0Z" id="p132w109" />
<path d="M382.74 380.63l10.54 0l0 15.09l-10.54 0Z" id="p132w110" />
<path d="M137.11 397.3l47.36 0l0 15.09l-47.36 0Z" id="p132w111" />
<path d="M197.17 397.3l34.66 0l0 15.09l-34.66 0Z" id="p132w112" />
<path d="M235.44 397.3l36.62 0l0 15.09l-36.62 0Z" id="p132w113" />
<path d="M275.67 397.3l27.16 0l0 15.09l-27.16 0Z" id="p132w114" />
<path d="M306.43 397.3l23.98 0l0 15.09l-23.98 0Z" id="p132w115" />
<path d="M334.03 397.3l44.12 0l0 15.09l-44.12 0Z" id="p132w116" />
<path d="M137.11 413.97l31.38 0l0 15.09l-31.38 0Z" id="p132w117" />
<path d="M172.1 413.97l27.08 0l0 15.09l-27.08 0Z" id="p132w118" />
<path d="M202.8 413.97l12.66 0l0 15.09l-12.66 0Z" id="p132w119" />
<path d="M219.07 413.97l38.7 0l0 15.09l-38.7 0Z" id="p132w120" />
<path d="M261.37 413.97l27.18 0l0 15.09l-27.18 0Z" id="p132w121" />
<path d="M292.17 413.97l53.66 0l0 15.09l-53.66 0Z" id="p132w122" />
<path d="M349.44 413.97l13.91 0l0 15.09l-13.91 0Z" id="p132w123" />
<path d="M366.95 413.97l31.29 0l0 15.09l-31.29 0Z" id="p132w124" />
<path d="M137.1 430.67l22.08 0l0 15.09l-22.08 0Z" id="p132w125" />
<path d="M162.79 430.67l38.72 0l0 15.09l-38.72 0Z" id="p132w126" />
<path d="M205.13 430.67l27.82 0l0 15.09l-27.82 0Z" id="p132w127" />
<path d="M236.56 430.67l21.67 0l0 15.09l-21.67 0Z" id="p132w128" />
<path d="M261.84 430.67l10.54 0l0 15.09l-10.54 0Z" id="p132w129" />
<path d="M275.99 430.67l52.2 0l0 15.09l-52.2 0Z" id="p132w130" />
<path d="M331.81 430.67l12.66 0l0 15.09l-12.66 0Z" id="p132w131" />
<path d="M348.08 430.67l21.81 0l0 15.09l-21.81 0Z" id="p132w132" />
<path d="M383.6 430.67l15.74 0l0 15.09l-15.74 0Z" id="p132w133" />
<path d="M137.1 447.34l32.48 0l0 15.09l-32.48 0Z" id="p132w134" />
<path d="M173.19 447.34l44.29 0l0 15.09l-44.29 0Z" id="p132w135" />
<path d="M239.41 447.35l11.88 0l0 15.09l-11.88 0Z" id="p132w136" />
<path d="M254.89 447.35l33.83 0l0 15.09l-33.83 0Z" id="p132w137" />
<path d="M137.11 464.02l14.52 0l0 15.09l-14.52 0Z" id="p132w138" />
<path d="M155.24 464.02l18.55 0l0 15.09l-18.55 0Z" id="p132w139" />
<path d="M177.4 464.02l36.8 0l0 15.09l-36.8 0Z" id="p132w140" />
<path d="M227.91 464.02l10.42 0l0 15.09l-10.42 0Z" id="p132w141" />
<path d="M241.94 464.02l21.76 0l0 15.09l-21.76 0Z" id="p132w142" />
<path d="M137.11 480.69l24.15 0l0 15.09l-24.15 0Z" id="p132w143" />
<path d="M164.87 480.69l19.91 0l0 15.09l-19.91 0Z" id="p132w144" />
<path d="M188.39 480.69l10.42 0l0 15.09l-10.42 0Z" id="p132w145" />
<path d="M202.42 480.69l39.16 0l0 15.09l-39.16 0Z" id="p132w146" />
<path d="M245.19 480.69l50.44 0l0 15.09l-50.44 0Z" id="p132w147" />
<path d="M314.68 480.69l40.28 0l0 15.09l-40.28 0Z" id="p132w148" />
<path d="M358.57 480.69l11.26 0l0 15.09l-11.26 0Z" id="p132w149" />
<path d="M373.44 480.69l33 0l0 15.09l-33 0Z" id="p132w150" />
<path d="M137.11 497.36l14.52 0l0 15.09l-14.52 0Z" id="p132w151" />
<path d="M155.24 497.36l26.65 0l0 15.09l-26.65 0Z" id="p132w152" />
<path d="M185.51 497.36l12.66 0l0 15.09l-12.66 0Z" id="p132w153" />
<path d="M201.78 497.36l28.22 0l0 15.09l-28.22 0Z" id="p132w154" />
<path d="M233.61 497.36l19.46 0l0 15.09l-19.46 0Z" id="p132w155" />
<path d="M256.68 497.36l15.06 0l0 15.09l-15.06 0Z" id="p132w156" />
<path d="M275.36 497.36l35.47 0l0 15.09l-35.47 0Z" id="p132w157" />
<path d="M314.44 497.36l27.19 0l0 15.09l-27.19 0Z" id="p132w158" />
<path d="M345.24 497.36l18.49 0l0 15.09l-18.49 0Z" id="p132w159" />
<path d="M367.35 497.36l22.31 0l0 15.09l-22.31 0Z" id="p132w160" />
<path d="M137.11 514.03l40.69 0l0 15.09l-40.69 0Z" id="p132w161" />
<path d="M181.41 514.03l39.16 0l0 15.09l-39.16 0Z" id="p132w162" />
<path d="M224.18 514.03l55.25 0l0 15.09l-55.25 0Z" id="p132w163" />
<path d="M289.99 514.03l8.02 0l0 15.09l-8.02 0Z" id="p132w164" />
<path d="M301.62 514.03l18.28 0l0 15.09l-18.28 0Z" id="p132w165" />
<path d="M323.51 514.03l26.09 0l0 15.09l-26.09 0Z" id="p132w166" />
<path d="M353.21 514.03l19.46 0l0 15.09l-19.46 0Z" id="p132w167" />
<path d="M137.11 530.69l48.79 0l0 15.09l-48.79 0Z" id="p132w168" />
<path d="M189.11 530.69l12.06 0l0 15.09l-12.06 0Z" id="p132w169" />
<path d="M204.37 530.69l34.83 0l0 15.09l-34.83 0Z" id="p132w170" />
<path d="M242.81 530.69l39.78 0l0 15.09l-39.78 0Z" id="p132w171" />
<path d="M286.2 530.69l15.89 0l0 15.09l-15.89 0Z" id="p132w172" />
<path d="M305.7 530.69l41.1 0l0 15.09l-41.1 0Z" id="p132w173" />
<path d="M350.41 530.69l12.22 0l0 15.09l-12.22 0Z" id="p132w174" />
<path d="M366.24 530.69l9.29 0l0 15.09l-9.29 0Z" id="p132w175" />
<path d="M379.15 530.69l10.54 0l0 15.09l-10.54 0Z" id="p132w176" />
<path d="M137.11 547.36l40.28 0l0 15.09l-40.28 0Z" id="p132w177" />
<path d="M181 547.36l10.42 0l0 15.09l-10.42 0Z" id="p132w178" />
<path d="M195.03 547.36l40.65 0l0 15.09l-40.65 0Z" id="p132w179" />
<path d="M239.29 547.36l12.66 0l0 15.09l-12.66 0Z" id="p132w180" />
<path d="M255.56 547.36l14.59 0l0 15.09l-14.59 0Z" id="p132w181" />
<path d="M273.76 547.36l23.83 0l0 15.09l-23.83 0Z" id="p132w182" />
<path d="M301.2 547.36l19.46 0l0 15.09l-19.46 0Z" id="p132w183" />
<path d="M324.27 547.36l24.62 0l0 15.09l-24.62 0Z" id="p132w184" />
<path d="M352.51 547.36l13.91 0l0 15.09l-13.91 0Z" id="p132w185" />
<path d="M370.02 547.36l28.84 0l0 15.09l-28.84 0Z" id="p132w186" />
<path d="M402.47 547.36l51.48 0l0 15.09l-51.48 0Z" id="p132w187" />
<path d="M137.11 564.03l14.52 0l0 15.09l-14.52 0Z" id="p132w188" />
<path d="M155.24 564.03l31.47 0l0 15.09l-31.47 0Z" id="p132w189" />
<path d="M190.33 564.03l14.21 0l0 15.09l-14.21 0Z" id="p132w190" />
<path d="M208.15 564.03l36.47 0l0 15.09l-36.47 0Z" id="p132w191" />
<path d="M248.24 564.03l22.31 0l0 15.09l-22.31 0Z" id="p132w192" />
<path d="M274.16 564.03l63.45 0l0 15.09l-63.45 0Z" id="p132w193" />
<path d="M124.06 597.38l38.97 0l0 15.09l-38.97 0Z" id="p132w194" />
<path d="M166.24 597.38l10.96 0l0 15.09l-10.96 0Z" id="p132w195" />
<path d="M180.42 597.38l26.73 0l0 15.09l-26.73 0Z" id="p132w196" />
<path d="M210.36 597.38l17.74 0l0 15.09l-17.74 0Z" id="p132w197" />
<path d="M231.31 597.38l9.6 0l0 15.09l-9.6 0Z" id="p132w198" />
<path d="M244.12 597.38l30.66 0l0 15.09l-30.66 0Z" id="p132w199" />
<path d="M278 597.38l60.87 0l0 15.09l-60.87 0Z" id="p132w200" />
<path d="M351.81 597.38l13.47 0l0 15.09l-13.47 0Z" id="p132w201" />
<path d="M368.49 597.38l45.51 0l0 15.09l-45.51 0Z" id="p132w202" />
<path d="M417.22 597.38l38.09 0l0 15.09l-38.09 0Z" id="p132w203" />
<path d="M458.52 597.38l9.45 0l0 15.09l-9.45 0Z" id="p132w204" />
<path d="M471.18 597.38l33.62 0l0 15.09l-33.62 0Z" id="p132w205" />
<path d="M508.01 597.38l38 0l0 15.09l-38 0Z" id="p132w206" />
<path d="M549.23 597.38l9.66 0l0 15.09l-9.66 0Z" id="p132w207" />
<path d="M562.11 597.38l37.41 0l0 15.09l-37.41 0Z" id="p132w208" />
<path d="M124.06 614.05l41.19 0l0 15.09l-41.19 0Z" id="p132w209" />
<path d="M168.47 614.05l11.14 0l0 15.09l-11.14 0Z" id="p132w210" />
<path d="M182.82 614.05l43 0l0 15.09l-43 0Z" id="p132w211" />
<path d="M229.04 614.05l43.61 0l0 15.09l-43.61 0Z" id="p132w212" />
<path d="M275.86 614.05l32.1 0l0 15.09l-32.1 0Z" id="p132w213" />
<path d="M137.11 647.4l81.15 0l0 15.09l-81.15 0Z" id="p132w214" />
<path d="M221.87 647.4l38.08 0l0 15.09l-38.08 0Z" id="p132w215" />
<path d="M263.56 647.4l34.71 0l0 15.09l-34.71 0Z" id="p132w216" />
<path d="M310.97 647.4l10.63 0l0 15.09l-10.63 0Z" id="p132w217" />
<path d="M325.21 647.4l22.4 0l0 15.09l-22.4 0Z" id="p132w218" />
<path d="M351.22 647.4l37 0l0 15.09l-37 0Z" id="p132w219" />
<path d="M391.83 647.4l41.92 0l0 15.09l-41.92 0Z" id="p132w220" />
<path d="M437.37 647.4l10.5 0l0 15.09l-10.5 0Z" id="p132w221" />
<path d="M451.48 647.4l56.24 0l0 15.09l-56.24 0Z" id="p132w222" />
<path d="M511.33 647.4l14.59 0l0 15.09l-14.59 0Z" id="p132w223" />
<path d="M529.53 647.4l25.28 0l0 15.09l-25.28 0Z" id="p132w224" />
<path d="M558.42 647.4l15.06 0l0 15.09l-15.06 0Z" id="p132w225" />
<path d="M577.09 647.4l42.66 0l0 15.09l-42.66 0Z" id="p132w226" />
<path d="M137.11 664.07l19.6 0l0 15.09l-19.6 0Z" id="p132w227" />
<path d="M159.92 664.07l28.6 0l0 15.09l-28.6 0Z" id="p132w228" />
<path d="M195.29 664.07l42.37 0l0 15.09l-42.37 0Z" id="p132w229" />
<path d="M241.27 664.07l43.97 0l0 15.09l-43.97 0Z" id="p132w230" />
<path d="M288.85 664.07l22.08 0l0 15.09l-22.08 0Z" id="p132w231" />
<path d="M314.54 664.07l37.08 0l0 15.09l-37.08 0Z" id="p132w232" />
<path d="M355.23 664.07l19.19 0l0 15.09l-19.19 0Z" id="p132w233" />
<path d="M378.03 664.07l77.93 0l0 15.09l-77.93 0Z" id="p132w234" />
<path d="M147.29 689.08l70.98 0l0 15.09l-70.98 0Z" id="p132w235" />
<path d="M221.88 689.08l27.18 0l0 15.09l-27.18 0Z" id="p132w236" />
<path d="M252.67 689.08l75.87 0l0 15.09l-75.87 0Z" id="p132w237" />
<path d="M332.15 689.08l17.93 0l0 15.09l-17.93 0Z" id="p132w238" />
<path d="M353.69 689.08l49.75 0l0 15.09l-49.75 0Z" id="p132w239" />
<path d="M137.11 714.09l18.02 0l0 15.09l-18.02 0Z" id="p132w240" />
<path d="M158.74 714.09l27.59 0l0 15.09l-27.59 0Z" id="p132w241" />
<path d="M189.94 714.09l30.45 0l0 15.09l-30.45 0Z" id="p132w242" />
<path d="M224 714.09l32.48 0l0 15.09l-32.48 0Z" id="p132w243" />
<path d="M260.09 714.09l23.94 0l0 15.09l-23.94 0Z" id="p132w244" />
<path d="M287.64 714.09l24.73 0l0 15.09l-24.73 0Z" id="p132w245" />
<path d="M315.98 714.09l56.15 0l0 15.09l-56.15 0Z" id="p132w246" />
<path d="M375.74 714.09l41.52 0l0 15.09l-41.52 0Z" id="p132w247" />
<path d="M420.88 714.09l38.43 0l0 15.09l-38.43 0Z" id="p132w248" />
<path d="M462.92 714.09l71.12 0l0 15.09l-71.12 0Z" id="p132w249" />
<path d="M124.06 730.76l26.69 0l0 15.09l-26.69 0Z" id="p132w250" />
<path d="M154.37 730.76l34.62 0l0 15.09l-34.62 0Z" id="p132w251" />
<path d="M202.7 730.76l27.18 0l0 15.09l-27.18 0Z" id="p132w252" />
<path d="M233.5 730.76l75.54 0l0 15.09l-75.54 0Z" id="p132w253" />
<path d="M312.65 730.76l27.18 0l0 15.09l-27.18 0Z" id="p132w254" />
<path d="M343.44 730.76l85.22 0l0 15.09l-85.22 0Z" id="p132w255" />
<path d="M442.38 730.76l43.74 0l0 15.09l-43.74 0Z" id="p132w256" />
<path d="M137.11 747.43l84.71 0l0 15.09l-84.71 0Z" id="p132w257" />
<path d="M225.43 747.43l27.22 0l0 15.09l-27.22 0Z" id="p132w258" />
<path d="M256.26 747.43l28.45 0l0 15.09l-28.45 0Z" id="p132w259" />
<path d="M288.32 747.43l14.21 0l0 15.09l-14.21 0Z" id="p132w260" />
<path d="M306.15 747.43l19.8 0l0 15.09l-19.8 0Z" id="p132w261" />
<path d="M340.94 747.46l30.81 0l0 15.09l-30.81 0Z" id="p132w262" />
<path d="M375.35 747.46l42.33 0l0 15.09l-42.33 0Z" id="p132w263" />
<path d="M421.3 747.46l34.48 0l0 15.09l-34.48 0Z" id="p132w264" />
<path d="M459.39 747.46l31.8 0l0 15.09l-31.8 0Z" id="p132w265" />
<path d="M494.8 747.46l56.66 0l0 15.09l-56.66 0Z" id="p132w266" />
<path d="M563.29 747.46l37.1 0l0 15.09l-37.1 0Z" id="p132w267" />
<path d="M604 747.46l22.31 0l0 15.09l-22.31 0Z" id="p132w268" />
<path d="M137.1 764.13l50.55 0l0 15.09l-50.55 0Z" id="p132w269" />
<path d="M191.26 764.13l41 0l0 15.09l-41 0Z" id="p132w270" />
<path d="M247.25 764.13l17.05 0l0 15.09l-17.05 0Z" id="p132w271" />
<path d="M267.91 764.13l26.64 0l0 15.09l-26.64 0Z" id="p132w272" />
<path d="M298.17 764.13l31.02 0l0 15.09l-31.02 0Z" id="p132w273" />
<path d="M356.03 764.13l26.64 0l0 15.09l-26.64 0Z" id="p132w274" />
<path d="M386.28 764.13l38.58 0l0 15.09l-38.58 0Z" id="p132w275" />
<path d="M428.47 764.13l42.33 0l0 15.09l-42.33 0Z" id="p132w276" />
<path d="M474.42 764.13l20.96 0l0 15.09l-20.96 0Z" id="p132w277" />
<path d="M498.99 764.13l54.85 0l0 15.09l-54.85 0Z" id="p132w278" />
<path d="M557.46 764.13l18.49 0l0 15.09l-18.49 0Z" id="p132w279" />
<path d="M579.56 764.13l15.74 0l0 15.09l-15.74 0Z" id="p132w280" />
<path d="M598.92 764.13l28.34 0l0 15.09l-28.34 0Z" id="p132w281" />
<path d="M137.11 780.8l64.65 0l0 15.09l-64.65 0Z" id="p132w282" />
<path d="M205.36 780.8l56.46 0l0 15.09l-56.46 0Z" id="p132w283" />
<path d="M265.43 780.8l21.67 0l0 15.09l-21.67 0Z" id="p132w284" />
<path d="M290.71 780.8l28.26 0l0 15.09l-28.26 0Z" id="p132w285" />
<path d="M322.59 780.8l37.48 0l0 15.09l-37.48 0Z" id="p132w286" />
<path d="M363.67 780.8l28.4 0l0 15.09l-28.4 0Z" id="p132w287" />
<path d="M395.69 780.8l27.82 0l0 15.09l-27.82 0Z" id="p132w288" />
<path d="M427.12 780.8l10.5 0l0 15.09l-10.5 0Z" id="p132w289" />
<path d="M441.24 780.8l46.86 0l0 15.09l-46.86 0Z" id="p132w290" />
<path d="M491.7 780.8l15.06 0l0 15.09l-15.06 0Z" id="p132w291" />
<path d="M521.07 780.8l34.73 0l0 15.09l-34.73 0Z" id="p132w292" />
<path d="M559.41 780.8l28.26 0l0 15.09l-28.26 0Z" id="p132w293" />
<path d="M601.38 780.8l19.62 0l0 15.09l-19.62 0Z" id="p132w294" />
<path d="M137.11 797.47l25.96 0l0 15.09l-25.96 0Z" id="p132w295" />
<path d="M166.68 797.47l29.88 0l0 15.09l-29.88 0Z" id="p132w296" />
<path d="M211.55 797.48l34.37 0l0 15.09l-34.37 0Z" id="p132w297" />
<path d="M249.52 797.48l10.54 0l0 15.09l-10.54 0Z" id="p132w298" />
<path d="M263.67 797.48l22.4 0l0 15.09l-22.4 0Z" id="p132w299" />
<path d="M299.79 797.48l10.42 0l0 15.09l-10.42 0Z" id="p132w300" />
<path d="M313.82 797.48l58.82 0l0 15.09l-58.82 0Z" id="p132w301" />
<path d="M376.26 797.48l26.64 0l0 15.09l-26.64 0Z" id="p132w302" />
<path d="M406.51 797.48l29.73 0l0 15.09l-29.73 0Z" id="p132w303" />
<path d="M439.85 797.48l13.91 0l0 15.09l-13.91 0Z" id="p132w304" />
<path d="M457.37 797.48l18.46 0l0 15.09l-18.46 0Z" id="p132w305" />
<path d="M479.43 797.48l30.37 0l0 15.09l-30.37 0Z" id="p132w306" />
<path d="M513.41 797.48l36.15 0l0 15.09l-36.15 0Z" id="p132w307" />
<path d="M553.18 797.48l64.58 0l0 15.09l-64.58 0Z" id="p132w308" />
<path d="M621.37 797.48l19.91 0l0 15.09l-19.91 0Z" id="p132w309" />
<path d="M137.11 814.15l10.5 0l0 15.09l-10.5 0Z" id="p132w310" />
<path d="M151.22 814.15l37.94 0l0 15.09l-37.94 0Z" id="p132w311" />
<path d="M192.77 814.15l15.06 0l0 15.09l-15.06 0Z" id="p132w312" />
<path d="M211.44 814.15l87.03 0l0 15.09l-87.03 0Z" id="p132w313" />
<path d="M302.09 814.15l65.88 0l0 15.09l-65.88 0Z" id="p132w314" />
<path d="M371.58 814.15l27.97 0l0 15.09l-27.97 0Z" id="p132w315" />
<path d="M403.16 814.15l50.1 0l0 15.09l-50.1 0Z" id="p132w316" />
<path d="M456.86 814.15l28.26 0l0 15.09l-28.26 0Z" id="p132w317" />
<path d="M488.74 814.15l33.9 0l0 15.09l-33.9 0Z" id="p132w318" />
<path d="M526.25 814.15l15.74 0l0 15.09l-15.74 0Z" id="p132w319" />
<path d="M545.61 814.15l26.64 0l0 15.09l-26.64 0Z" id="p132w320" />
<path d="M575.86 814.15l13.91 0l0 15.09l-13.91 0Z" id="p132w321" />
<path d="M593.38 814.15l12.66 0l0 15.09l-12.66 0Z" id="p132w322" />
<path d="M137.11 830.82l33.43 0l0 15.09l-33.43 0Z" id="p132w323" />
<path d="M132.18 899.81l11.11 0l0 13.06l-11.11 0Z" id="p132w324" />
<path d="M146.17 899.81l38.46 0l0 13.06l-38.46 0Z" id="p132w325" />
<path d="M187.5 899.81l24.02 0l0 13.06l-24.02 0Z" id="p132w326" />
<path d="M214.39 899.81l11.34 0l0 13.06l-11.34 0Z" id="p132w327" />
<path d="M228.6 899.87l19.62 0l0 12.99l-19.62 0Z" id="p132w328" />
<path d="M251.09 899.87l9.33 0l0 12.99l-9.33 0Z" id="p132w329" />
<path d="M263.29 899.87l20.66 0l0 12.99l-20.66 0Z" id="p132w330" />
<path d="M286.81 899.87l44.71 0l0 12.99l-44.71 0Z" id="p132w331" />
<path d="M356.67 899.81l37.46 0l0 13.06l-37.46 0Z" id="p132w332" />
<path d="M401.65 899.81l42.99 0l0 13.06l-42.99 0Z" id="p132w333" />
<path d="M447.51 899.87l21.52 0l0 12.99l-21.52 0Z" id="p132w334" />
<path d="M471.9 899.87l43.73 0l0 12.99l-43.73 0Z" id="p132w335" />
<path d="M540.77 899.81l38.38 0l0 13.06l-38.38 0Z" id="p132w336" />
<path d="M582.02 899.87l59.32 0l0 12.99l-59.32 0Z" id="p132w337" />
<path d="M671.12 899.81l18.78 0l0 13.06l-18.78 0Z" id="p132w338" />
<path d="M124.07 915.1l27.74 0l0 13.06l-27.74 0Z" id="p132w339" />
<path d="M154.68 915.16l21.28 0l0 12.99l-21.28 0Z" id="p132w340" />
<path d="M178.83 915.16l62.66 0l0 12.99l-62.66 0Z" id="p132w341" />
<path d="M270.4 915.1l12.8 0l0 13.06l-12.8 0Z" id="p132w342" />
<path d="M286.07 915.1l29.05 0l0 13.06l-29.05 0Z" id="p132w343" />
<path d="M317.99 915.1l38.59 0l0 13.06l-38.59 0Z" id="p132w344" />
<path d="M359.45 915.16l21.28 0l0 12.99l-21.28 0Z" id="p132w345" />
<path d="M383.6 915.16l78.43 0l0 12.99l-78.43 0Z" id="p132w346" />
<path d="M491.81 915.1l22.08 0l0 13.06l-22.08 0Z" id="p132w347" />
<path d="M516.76 915.1l23.89 0l0 13.06l-23.89 0Z" id="p132w348" />
<path d="M543.52 915.1l12.33 0l0 13.06l-12.33 0Z" id="p132w349" />
<path d="M558.72 915.1l16.99 0l0 13.06l-16.99 0Z" id="p132w350" />
<path d="M578.59 915.16l29.84 0l0 12.99l-29.84 0Z" id="p132w351" />
<path d="M611.3 915.16l15.55 0l0 12.99l-15.55 0Z" id="p132w352" />
<path d="M629.72 915.16l29.9 0l0 12.99l-29.9 0Z" id="p132w353" />
<path d="M124.07 930.44l43.77 0l0 12.99l-43.77 0Z" id="p132w354" />
<path d="M197.61 930.38l12.8 0l0 13.06l-12.8 0Z" id="p132w355" />
<path d="M213.28 930.38l48.03 0l0 13.06l-48.03 0Z" id="p132w356" />
<path d="M264.18 930.44l21.28 0l0 12.99l-21.28 0Z" id="p132w357" />
<path d="M288.02 930.44l65.19 0l0 12.99l-65.19 0Z" id="p132w358" />
<path d="M382.98 930.38l37.79 0l0 13.06l-37.79 0Z" id="p132w359" />
<path d="M423.64 930.44l79.66 0l0 12.99l-79.66 0Z" id="p132w360" />
<path d="M533.07 930.38l22.95 0l0 13.06l-22.95 0Z" id="p132w361" />
<path d="M558.89 930.38l21.85 0l0 13.06l-21.85 0Z" id="p132w362" />
<path d="M583.61 930.38l25.57 0l0 13.06l-25.57 0Z" id="p132w363" />
<path d="M620.9 930.38l12.9 0l0 13.06l-12.9 0Z" id="p132w364" />
<path d="M636.67 930.44l17.95 0l0 12.99l-17.95 0Z" id="p132w365" />
<path d="M657.49 930.44l48.3 0l0 12.99l-48.3 0Z" id="p132w366" />
<path d="M124.06 39.02l42.02 0l0 15.38l-42.02 0Z" id="p132w367" />
<path d="M208.73 39.02l43.21 0l0 15.38l-43.21 0Z" id="p132w368" />
<path d="M307.2 39.02l43.21 0l0 15.38l-43.21 0Z" id="p132w369" />
<path d="M415.3 38.6l29.22 0l0 16.09l-29.22 0Z" id="p132w370" />
<path d="M447.89 38.6l46.27 0l0 16.09l-46.27 0Z" id="p132w371" />
<path d="M553.36 39.02l32.54 0l0 15.38l-32.54 0Z" id="p132w372" />
<path d="M76.9 983l52.36 0l0 12.23l-52.36 0Z" id="p132w373" />
</svg>
