<?xml version="1.0" encoding="UTF-8"?>
<svg xmlns="http://www.w3.org/2000/svg" xmlns:xlink="http://www.w3.org/1999/xlink" version="1.1" baseProfile="full" width="768" height="1024" viewBox="0,0,768,1024" preserveAspectRatio="xMinYMin meet" >
<style type="text/css">
<![CDATA[
path {fill-opacity: 0.5;fill: #00aeef;visibility: hidden;}
]]>
</style>
<path d="M76.9 983.66l96.59 0l0 12.23l-96.59 0Z" id="p238w1" />
<path d="M124.06 38.6l81.82 0l0 16.09l-81.82 0Z" id="p238w2" />
<path d="M124.06 112.51l17.56 0l0 12.23l-17.56 0Z" id="p238w3" />
<path d="M144.32 112.45l23.21 0l0 12.29l-23.21 0Z" id="p238w4" />
<path d="M173.39 111.41l23.66 0l0 13.77l-23.66 0Z" id="p238w5" />
<path d="M202.91 112.51l20.03 0l0 12.23l-20.03 0Z" id="p238w6" />
<path d="M225.64 112.51l70 0l0 12.23l-70 0Z" id="p238w7" />
<path d="M133.91 127.55l15.54 0l0 12.56l-15.54 0Z" id="p238w8" />
<path d="M133.91 143.08l11.7 0l0 12.23l-11.7 0Z" id="p238w9" />
<path d="M148.31 143.08l23.13 0l0 12.23l-23.13 0Z" id="p238w10" />
<path d="M177.3 141.97l18.16 0l0 13.77l-18.16 0Z" id="p238w11" />
<path d="M201.32 143.08l29.04 0l0 12.23l-29.04 0Z" id="p238w12" />
<path d="M233.07 142.83l18.01 0l0 12.56l-18.01 0Z" id="p238w13" />
<path d="M124.06 158.3l20.8 0l0 12.29l-20.8 0Z" id="p238w14" />
<path d="M147.56 158.36l11.04 0l0 12.23l-11.04 0Z" id="p238w15" />
<path d="M164.45 157.26l21.77 0l0 13.77l-21.77 0Z" id="p238w16" />
<path d="M192.09 158.36l19.44 0l0 12.23l-19.44 0Z" id="p238w17" />
<path d="M214.23 158.36l22.29 0l0 12.23l-22.29 0Z" id="p238w18" />
<path d="M239.21 158.11l18.92 0l0 12.56l-18.92 0Z" id="p238w19" />
<path d="M124.06 173.59l15.07 0l0 12.29l-15.07 0Z" id="p238w20" />
<path d="M141.83 173.64l11.04 0l0 12.23l-11.04 0Z" id="p238w21" />
<path d="M158.73 172.54l11.53 0l0 13.77l-11.53 0Z" id="p238w22" />
<path d="M176.11 173.64l19.44 0l0 12.23l-19.44 0Z" id="p238w23" />
<path d="M198.25 173.64l24.75 0l0 12.23l-24.75 0Z" id="p238w24" />
<path d="M225.71 173.4l15.54 0l0 12.56l-15.54 0Z" id="p238w25" />
<path d="M124.06 188.93l17.56 0l0 12.23l-17.56 0Z" id="p238w26" />
<path d="M144.32 188.87l20.03 0l0 12.29l-20.03 0Z" id="p238w27" />
<path d="M170.21 187.83l25.37 0l0 13.77l-25.37 0Z" id="p238w28" />
<path d="M201.44 188.93l20.03 0l0 12.23l-20.03 0Z" id="p238w29" />
<path d="M224.18 188.93l22.05 0l0 12.23l-22.05 0Z" id="p238w30" />
<path d="M248.93 188.68l15.54 0l0 12.56l-15.54 0Z" id="p238w31" />
<path d="M124.06 204.21l11.94 0l0 12.23l-11.94 0Z" id="p238w32" />
<path d="M138.7 204.15l9.57 0l0 12.29l-9.57 0Z" id="p238w33" />
<path d="M154.13 203.11l10.82 0l0 13.77l-10.82 0Z" id="p238w34" />
<path d="M170.8 204.21l14.41 0l0 12.23l-14.41 0Z" id="p238w35" />
<path d="M187.91 204.21l20.03 0l0 12.23l-20.03 0Z" id="p238w36" />
<path d="M210.64 203.96l14.63 0l0 12.56l-14.63 0Z" id="p238w37" />
<path d="M124.06 219.49l11.94 0l0 12.23l-11.94 0Z" id="p238w38" />
<path d="M138.7 219.44l19.02 0l0 12.29l-19.02 0Z" id="p238w39" />
<path d="M160.42 219.49l18.91 0l0 12.23l-18.91 0Z" id="p238w40" />
<path d="M185.18 218.39l19.73 0l0 13.77l-19.73 0Z" id="p238w41" />
<path d="M210.77 219.49l14.41 0l0 12.23l-14.41 0Z" id="p238w42" />
<path d="M227.88 219.49l21.15 0l0 12.23l-21.15 0Z" id="p238w43" />
<path d="M251.73 219.25l15.54 0l0 12.56l-15.54 0Z" id="p238w44" />
<path d="M124.06 234.78l11.94 0l0 12.23l-11.94 0Z" id="p238w45" />
<path d="M138.7 234.72l20.12 0l0 12.29l-20.12 0Z" id="p238w46" />
<path d="M164.68 233.68l21.23 0l0 13.77l-21.23 0Z" id="p238w47" />
<path d="M191.76 234.78l14.41 0l0 12.23l-14.41 0Z" id="p238w48" />
<path d="M208.87 234.78l23.65 0l0 12.23l-23.65 0Z" id="p238w49" />
<path d="M235.22 234.53l19.58 0l0 12.56l-19.58 0Z" id="p238w50" />
<path d="M124.06 250.06l17.56 0l0 12.23l-17.56 0Z" id="p238w51" />
<path d="M144.32 250l37.59 0l0 12.29l-37.59 0Z" id="p238w52" />
<path d="M187.77 248.96l42.33 0l0 13.77l-42.33 0Z" id="p238w53" />
<path d="M235.96 250.06l20.03 0l0 12.23l-20.03 0Z" id="p238w54" />
<path d="M133.91 265.34l78.78 0l0 12.23l-78.78 0Z" id="p238w55" />
<path d="M215.4 265.1l15.54 0l0 12.56l-15.54 0Z" id="p238w56" />
<path d="M124.06 280.57l17.55 0l0 12.29l-17.55 0Z" id="p238w57" />
<path d="M147.47 279.53l15.37 0l0 13.77l-15.37 0Z" id="p238w58" />
<path d="M168.7 280.63l20.47 0l0 12.23l-20.47 0Z" id="p238w59" />
<path d="M191.88 280.63l27.18 0l0 12.23l-27.18 0Z" id="p238w60" />
<path d="M221.75 280.6l25.88 0l0 12.23l-25.88 0Z" id="p238w61" />
<path d="M250.33 280.38l15.54 0l0 12.56l-15.54 0Z" id="p238w62" />
<path d="M124.06 295.91l11.94 0l0 12.23l-11.94 0Z" id="p238w63" />
<path d="M138.7 295.85l23.02 0l0 12.29l-23.02 0Z" id="p238w64" />
<path d="M167.58 294.81l33.86 0l0 13.77l-33.86 0Z" id="p238w65" />
<path d="M207.29 295.91l20.03 0l0 12.23l-20.03 0Z" id="p238w66" />
<path d="M133.91 311.19l104.08 0l0 12.23l-104.08 0Z" id="p238w67" />
<path d="M240.69 311.19l14.41 0l0 12.23l-14.41 0Z" id="p238w68" />
<path d="M257.8 311.19l30.18 0l0 12.23l-30.18 0Z" id="p238w69" />
<path d="M290.68 310.95l14.63 0l0 12.56l-14.63 0Z" id="p238w70" />
<path d="M124.06 326.42l20.62 0l0 12.29l-20.62 0Z" id="p238w71" />
<path d="M148.85 326.42l32.21 0l0 12.29l-32.21 0Z" id="p238w72" />
<path d="M186.92 325.38l24.84 0l0 13.77l-24.84 0Z" id="p238w73" />
<path d="M217.62 326.48l20.43 0l0 12.23l-20.43 0Z" id="p238w74" />
<path d="M240.75 326.23l15.34 0l0 12.56l-15.34 0Z" id="p238w75" />
<path d="M124.06 341.76l11.94 0l0 12.23l-11.94 0Z" id="p238w76" />
<path d="M138.7 341.7l20.62 0l0 12.29l-20.62 0Z" id="p238w77" />
<path d="M162.02 341.7l39.87 0l0 12.29l-39.87 0Z" id="p238w78" />
<path d="M207.75 340.66l46.08 0l0 13.77l-46.08 0Z" id="p238w79" />
<path d="M259.69 341.76l14.41 0l0 12.23l-14.41 0Z" id="p238w80" />
<path d="M133.91 357.04l29.27 0l0 12.23l-29.27 0Z" id="p238w81" />
<path d="M163.18 357.04l11.93 0l0 12.23l-11.93 0Z" id="p238w82" />
<path d="M177.8 356.8l18.92 0l0 12.56l-18.92 0Z" id="p238w83" />
<path d="M124.06 372.27l50.34 0l0 12.29l-50.34 0Z" id="p238w84" />
<path d="M180.26 371.23l17.7 0l0 13.77l-17.7 0Z" id="p238w85" />
<path d="M203.81 372.33l26.05 0l0 12.23l-26.05 0Z" id="p238w86" />
<path d="M232.57 372.3l25.88 0l0 12.23l-25.88 0Z" id="p238w87" />
<path d="M261.15 372.08l19.58 0l0 12.56l-19.58 0Z" id="p238w88" />
<path d="M124.06 387.61l11.94 0l0 12.23l-11.94 0Z" id="p238w89" />
<path d="M138.7 387.55l20.15 0l0 12.29l-20.15 0Z" id="p238w90" />
<path d="M164.71 386.51l19.26 0l0 13.77l-19.26 0Z" id="p238w91" />
<path d="M189.83 387.61l14.41 0l0 12.23l-14.41 0Z" id="p238w92" />
<path d="M206.94 387.61l23.19 0l0 12.23l-23.19 0Z" id="p238w93" />
<path d="M236.65 387.37l15.34 0l0 12.56l-15.34 0Z" id="p238w94" />
<path d="M124.06 402.89l8.33 0l0 12.23l-8.33 0Z" id="p238w95" />
<path d="M135.09 402.84l23.25 0l0 12.29l-23.25 0Z" id="p238w96" />
<path d="M164.2 401.79l31.72 0l0 13.77l-31.72 0Z" id="p238w97" />
<path d="M201.78 402.89l14.41 0l0 12.23l-14.41 0Z" id="p238w98" />
<path d="M218.89 402.89l27 0l0 12.23l-27 0Z" id="p238w99" />
<path d="M248.59 402.65l18.92 0l0 12.56l-18.92 0Z" id="p238w100" />
<path d="M124.06 418.18l8.33 0l0 12.23l-8.33 0Z" id="p238w101" />
<path d="M135.09 418.12l35.92 0l0 12.29l-35.92 0Z" id="p238w102" />
<path d="M176.87 417.08l38.45 0l0 13.77l-38.45 0Z" id="p238w103" />
<path d="M221.18 418.18l16.43 0l0 12.23l-16.43 0Z" id="p238w104" />
<path d="M240.3 418.18l22.74 0l0 12.23l-22.74 0Z" id="p238w105" />
<path d="M265.75 417.93l18.01 0l0 12.56l-18.01 0Z" id="p238w106" />
<path d="M124.06 433.4l23.73 0l0 12.29l-23.73 0Z" id="p238w107" />
<path d="M174.8 432.36l16.74 0l0 13.77l-16.74 0Z" id="p238w108" />
<path d="M197.4 433.46l14.85 0l0 12.23l-14.85 0Z" id="p238w109" />
<path d="M214.95 433.46l39.08 0l0 12.23l-39.08 0Z" id="p238w110" />
<path d="M256.73 433.46l36.64 0l0 12.23l-36.64 0Z" id="p238w111" />
<path d="M133.91 448.5l15.54 0l0 12.56l-15.54 0Z" id="p238w112" />
<path d="M124.06 464.03l18.9 0l0 12.23l-18.9 0Z" id="p238w113" />
<path d="M145.66 464.03l22.51 0l0 12.23l-22.51 0Z" id="p238w114" />
<path d="M170.87 464.03l8.33 0l0 12.23l-8.33 0Z" id="p238w115" />
<path d="M181.89 463.97l20.49 0l0 12.29l-20.49 0Z" id="p238w116" />
<path d="M208.24 462.93l48.07 0l0 13.77l-48.07 0Z" id="p238w117" />
<path d="M262.17 464.03l42.08 0l0 12.23l-42.08 0Z" id="p238w118" />
<path d="M133.91 479.31l19.13 0l0 12.23l-19.13 0Z" id="p238w119" />
<path d="M155.74 479.07l14.79 0l0 12.56l-14.79 0Z" id="p238w120" />
<path d="M124.06 494.59l16.43 0l0 12.23l-16.43 0Z" id="p238w121" />
<path d="M143.19 494.54l38.76 0l0 12.29l-38.76 0Z" id="p238w122" />
<path d="M197.93 494.57l14.18 0l0 12.23l-14.18 0Z" id="p238w123" />
<path d="M217.97 493.49l33.46 0l0 13.77l-33.46 0Z" id="p238w124" />
<path d="M257.29 494.59l20.03 0l0 12.23l-20.03 0Z" id="p238w125" />
<path d="M280.02 494.59l24.31 0l0 12.23l-24.31 0Z" id="p238w126" />
<path d="M133.91 509.63l15.54 0l0 12.56l-15.54 0Z" id="p238w127" />
<path d="M124.06 525.16l11.94 0l0 12.23l-11.94 0Z" id="p238w128" />
<path d="M138.7 525.11l23.74 0l0 12.29l-23.74 0Z" id="p238w129" />
<path d="M168.3 524.06l20.26 0l0 13.77l-20.26 0Z" id="p238w130" />
<path d="M194.42 525.16l14.41 0l0 12.23l-14.41 0Z" id="p238w131" />
<path d="M211.53 525.16l57.82 0l0 12.23l-57.82 0Z" id="p238w132" />
<path d="M272.05 525.16l14.41 0l0 12.23l-14.41 0Z" id="p238w133" />
<path d="M133.91 540.44l25.82 0l0 12.23l-25.82 0Z" id="p238w134" />
<path d="M162.43 540.2l14.63 0l0 12.56l-14.63 0Z" id="p238w135" />
<path d="M124.06 555.73l11.94 0l0 12.23l-11.94 0Z" id="p238w136" />
<path d="M138.7 555.67l29.82 0l0 12.29l-29.82 0Z" id="p238w137" />
<path d="M168.52 555.73l21.73 0l0 12.23l-21.73 0Z" id="p238w138" />
<path d="M192.95 555.67l41.53 0l0 12.29l-41.53 0Z" id="p238w139" />
<path d="M240.34 554.63l27.72 0l0 13.77l-27.72 0Z" id="p238w140" />
<path d="M133.91 569.91l37.91 0l0 13.77l-37.91 0Z" id="p238w141" />
<path d="M177.68 571.01l14.41 0l0 12.23l-14.41 0Z" id="p238w142" />
<path d="M194.79 571.01l78.66 0l0 12.23l-78.66 0Z" id="p238w143" />
<path d="M133.91 586.29l63.25 0l0 12.23l-63.25 0Z" id="p238w144" />
<path d="M199.86 586.05l18.01 0l0 12.56l-18.01 0Z" id="p238w145" />
<path d="M124.06 639.73l41.47 0l0 12.29l-41.47 0Z" id="p238w146" />
<path d="M182.61 638.69l34.96 0l0 13.77l-34.96 0Z" id="p238w147" />
<path d="M223.42 639.79l31.48 0l0 12.23l-31.48 0Z" id="p238w148" />
<path d="M257.6 639.54l14.79 0l0 12.56l-14.79 0Z" id="p238w149" />
<path d="M124.06 655.07l11.94 0l0 12.23l-11.94 0Z" id="p238w150" />
<path d="M138.7 655.01l40.14 0l0 12.29l-40.14 0Z" id="p238w151" />
<path d="M184.7 653.97l39.74 0l0 13.77l-39.74 0Z" id="p238w152" />
<path d="M230.29 655.07l14.41 0l0 12.23l-14.41 0Z" id="p238w153" />
<path d="M247.4 655.07l43.86 0l0 12.23l-43.86 0Z" id="p238w154" />
<path d="M133.91 670.35l14.41 0l0 12.23l-14.41 0Z" id="p238w155" />
<path d="M151.02 670.35l28.59 0l0 12.23l-28.59 0Z" id="p238w156" />
<path d="M182.31 670.11l14.63 0l0 12.56l-14.63 0Z" id="p238w157" />
<path d="M124.06 685.64l11.94 0l0 12.23l-11.94 0Z" id="p238w158" />
<path d="M138.7 685.58l45.72 0l0 12.29l-45.72 0Z" id="p238w159" />
<path d="M190.27 684.54l44.31 0l0 13.77l-44.31 0Z" id="p238w160" />
<path d="M240.44 685.64l20.03 0l0 12.23l-20.03 0Z" id="p238w161" />
<path d="M133.91 700.92l47.48 0l0 12.23l-47.48 0Z" id="p238w162" />
<path d="M184.09 700.68l14.43 0l0 12.56l-14.43 0Z" id="p238w163" />
<path d="M124.06 716.2l8.33 0l0 12.23l-8.33 0Z" id="p238w164" />
<path d="M135.09 716.15l29.21 0l0 12.29l-29.21 0Z" id="p238w165" />
<path d="M170.16 715.1l30.38 0l0 13.77l-30.38 0Z" id="p238w166" />
<path d="M206.39 716.2l14.41 0l0 12.23l-14.41 0Z" id="p238w167" />
<path d="M223.5 716.2l29.2 0l0 12.23l-29.2 0Z" id="p238w168" />
<path d="M255.4 715.96l14.63 0l0 12.56l-14.63 0Z" id="p238w169" />
<path d="M124.06 731.43l36.29 0l0 12.29l-36.29 0Z" id="p238w170" />
<path d="M160.35 731.43l17.65 0l0 12.29l-17.65 0Z" id="p238w171" />
<path d="M183.86 730.39l36.16 0l0 13.77l-36.16 0Z" id="p238w172" />
<path d="M225.88 731.49l38.24 0l0 12.23l-38.24 0Z" id="p238w173" />
<path d="M133.91 746.77l63.49 0l0 12.23l-63.49 0Z" id="p238w174" />
<path d="M200.1 746.53l14.63 0l0 12.56l-14.63 0Z" id="p238w175" />
<path d="M124.06 762l17.71 0l0 12.29l-17.71 0Z" id="p238w176" />
<path d="M168.78 760.95l14.04 0l0 13.77l-14.04 0Z" id="p238w177" />
<path d="M188.67 762.05l17.55 0l0 12.23l-17.55 0Z" id="p238w178" />
<path d="M208.93 761.81l14.79 0l0 12.56l-14.79 0Z" id="p238w179" />
<path d="M124.06 777.28l55.1 0l0 12.29l-55.1 0Z" id="p238w180" />
<path d="M185.02 776.24l29.68 0l0 13.77l-29.68 0Z" id="p238w181" />
<path d="M220.55 777.34l20.71 0l0 12.23l-20.71 0Z" id="p238w182" />
<path d="M243.96 777.09l15.54 0l0 12.56l-15.54 0Z" id="p238w183" />
<path d="M124.06 792.56l22.54 0l0 12.29l-22.54 0Z" id="p238w184" />
<path d="M152.46 791.52l14.04 0l0 13.77l-14.04 0Z" id="p238w185" />
<path d="M172.36 792.62l21.15 0l0 12.23l-21.15 0Z" id="p238w186" />
<path d="M196.21 792.38l14.79 0l0 12.56l-14.79 0Z" id="p238w187" />
<path d="M124.06 807.9l17.56 0l0 12.23l-17.56 0Z" id="p238w188" />
<path d="M144.32 807.85l34.47 0l0 12.29l-34.47 0Z" id="p238w189" />
<path d="M184.65 806.8l35.74 0l0 13.77l-35.74 0Z" id="p238w190" />
<path d="M226.24 807.9l14.41 0l0 12.23l-14.41 0Z" id="p238w191" />
<path d="M243.35 807.9l23.41 0l0 12.23l-23.41 0Z" id="p238w192" />
<path d="M269.46 807.66l14.79 0l0 12.56l-14.79 0Z" id="p238w193" />
<path d="M142.23 823.19l8.33 0l0 12.23l-8.33 0Z" id="p238w194" />
<path d="M153.26 823.19l34.21 0l0 12.23l-34.21 0Z" id="p238w195" />
<path d="M193.33 822.09l37.67 0l0 13.77l-37.67 0Z" id="p238w196" />
<path d="M236.86 823.19l22.74 0l0 12.23l-22.74 0Z" id="p238w197" />
<path d="M262.3 823.19l31.48 0l0 12.23l-31.48 0Z" id="p238w198" />
<path d="M133.91 838.47l10.82 0l0 12.23l-10.82 0Z" id="p238w199" />
<path d="M147.43 838.47l29.03 0l0 12.23l-29.03 0Z" id="p238w200" />
<path d="M179.16 838.23l14.79 0l0 12.56l-14.79 0Z" id="p238w201" />
<path d="M124.06 853.75l8.33 0l0 12.23l-8.33 0Z" id="p238w202" />
<path d="M135.09 853.7l39.84 0l0 12.29l-39.84 0Z" id="p238w203" />
<path d="M177.63 853.75l23.63 0l0 12.23l-23.63 0Z" id="p238w204" />
<path d="M207.11 852.65l49.54 0l0 13.77l-49.54 0Z" id="p238w205" />
<path d="M262.51 853.75l14.41 0l0 12.23l-14.41 0Z" id="p238w206" />
<path d="M133.91 869.04l42.98 0l0 12.23l-42.98 0Z" id="p238w207" />
<path d="M179.59 869.04l24.32 0l0 12.23l-24.32 0Z" id="p238w208" />
<path d="M206.61 868.79l18.01 0l0 12.56l-18.01 0Z" id="p238w209" />
<path d="M124.06 884.32l23.19 0l0 12.23l-23.19 0Z" id="p238w210" />
<path d="M149.87 884.27l17.71 0l0 12.29l-17.71 0Z" id="p238w211" />
<path d="M182.05 884.32l14.64 0l0 12.23l-14.64 0Z" id="p238w212" />
<path d="M202.47 883.22l45.64 0l0 13.77l-45.64 0Z" id="p238w213" />
<path d="M253.89 884.32l52.01 0l0 12.23l-52.01 0Z" id="p238w214" />
<path d="M133.92 899.6l29.49 0l0 12.23l-29.49 0Z" id="p238w215" />
<path d="M166.11 899.36l18.92 0l0 12.56l-18.92 0Z" id="p238w216" />
<path d="M124.07 914.89l8.33 0l0 12.23l-8.33 0Z" id="p238w217" />
<path d="M135.1 914.83l17.71 0l0 12.29l-17.71 0Z" id="p238w218" />
<path d="M155.51 914.89l11.94 0l0 12.23l-11.94 0Z" id="p238w219" />
<path d="M170.15 914.89l21.39 0l0 12.23l-21.39 0Z" id="p238w220" />
<path d="M197.39 913.79l50.41 0l0 13.77l-50.41 0Z" id="p238w221" />
<path d="M253.65 914.89l16.43 0l0 12.23l-16.43 0Z" id="p238w222" />
<path d="M133.92 930.17l44.78 0l0 12.23l-44.78 0Z" id="p238w223" />
<path d="M181.4 929.93l18.92 0l0 12.56l-18.92 0Z" id="p238w224" />
<path d="M325.59 112.45l17.71 0l0 12.29l-17.71 0Z" id="p238w225" />
<path d="M346 112.48l25.24 0l0 12.23l-25.24 0Z" id="p238w226" />
<path d="M377.1 111.4l17.53 0l0 13.77l-17.53 0Z" id="p238w227" />
<path d="M400.48 112.5l38.95 0l0 12.23l-38.95 0Z" id="p238w228" />
<path d="M442.13 112.26l18.92 0l0 12.56l-18.92 0Z" id="p238w229" />
<path d="M325.59 127.73l35.02 0l0 12.29l-35.02 0Z" id="p238w230" />
<path d="M366.47 126.69l28.64 0l0 13.77l-28.64 0Z" id="p238w231" />
<path d="M400.97 127.79l25.67 0l0 12.23l-25.67 0Z" id="p238w232" />
<path d="M429.34 127.54l14.63 0l0 12.56l-14.63 0Z" id="p238w233" />
<path d="M325.59 143.01l33.03 0l0 12.29l-33.03 0Z" id="p238w234" />
<path d="M364.48 141.97l33.68 0l0 13.77l-33.68 0Z" id="p238w235" />
<path d="M404.02 143.07l22.06 0l0 12.23l-22.06 0Z" id="p238w236" />
<path d="M428.79 142.83l18.92 0l0 12.56l-18.92 0Z" id="p238w237" />
<path d="M325.59 158.3l35.87 0l0 12.29l-35.87 0Z" id="p238w238" />
<path d="M382.32 157.25l29.8 0l0 13.77l-29.8 0Z" id="p238w239" />
<path d="M417.98 158.35l32.15 0l0 12.23l-32.15 0Z" id="p238w240" />
<path d="M452.83 158.35l25.43 0l0 12.23l-25.43 0Z" id="p238w241" />
<path d="M480.96 158.11l15.54 0l0 12.56l-15.54 0Z" id="p238w242" />
<path d="M325.59 173.58l32.59 0l0 12.29l-32.59 0Z" id="p238w243" />
<path d="M379.04 172.54l26.93 0l0 13.77l-26.93 0Z" id="p238w244" />
<path d="M411.83 173.64l24.5 0l0 12.23l-24.5 0Z" id="p238w245" />
<path d="M439.03 173.64l19.13 0l0 12.23l-19.13 0Z" id="p238w246" />
<path d="M460.86 173.39l18.17 0l0 12.56l-18.17 0Z" id="p238w247" />
<path d="M325.59 188.92l11.94 0l0 12.23l-11.94 0Z" id="p238w248" />
<path d="M340.23 188.86l32.49 0l0 12.29l-32.49 0Z" id="p238w249" />
<path d="M378.58 187.82l30.79 0l0 13.77l-30.79 0Z" id="p238w250" />
<path d="M415.22 188.92l14.41 0l0 12.23l-14.41 0Z" id="p238w251" />
<path d="M432.33 188.92l32.58 0l0 12.23l-32.58 0Z" id="p238w252" />
<path d="M467.61 188.68l15.54 0l0 12.56l-15.54 0Z" id="p238w253" />
<path d="M325.59 204.15l36.38 0l0 12.29l-36.38 0Z" id="p238w254" />
<path d="M364.67 204.2l11.04 0l0 12.23l-11.04 0Z" id="p238w255" />
<path d="M381.57 203.1l24.98 0l0 13.77l-24.98 0Z" id="p238w256" />
<path d="M412.4 204.2l19.44 0l0 12.23l-19.44 0Z" id="p238w257" />
<path d="M434.54 204.2l26.78 0l0 12.23l-26.78 0Z" id="p238w258" />
<path d="M464.02 203.96l15.54 0l0 12.56l-15.54 0Z" id="p238w259" />
<path d="M325.59 219.43l42.53 0l0 12.29l-42.53 0Z" id="p238w260" />
<path d="M373.98 218.39l25.76 0l0 13.77l-25.76 0Z" id="p238w261" />
<path d="M405.6 219.49l29.71 0l0 12.23l-29.71 0Z" id="p238w262" />
<path d="M438.01 219.24l15.54 0l0 12.56l-15.54 0Z" id="p238w263" />
<path d="M335.44 234.77l5.4 0l0 12.23l-5.4 0Z" id="p238w264" />
<path d="M343.54 234.77l38.49 0l0 12.23l-38.49 0Z" id="p238w265" />
<path d="M384.74 234.77l11.04 0l0 12.23l-11.04 0Z" id="p238w266" />
<path d="M406.8 234.77l12.16 0l0 12.23l-12.16 0Z" id="p238w267" />
<path d="M424.82 233.67l26.97 0l0 13.77l-26.97 0Z" id="p238w268" />
<path d="M457.64 234.77l10.35 0l0 12.23l-10.35 0Z" id="p238w269" />
<path d="M470.69 234.77l21.83 0l0 12.23l-21.83 0Z" id="p238w270" />
<path d="M335.44 250.05l20.04 0l0 12.23l-20.04 0Z" id="p238w271" />
<path d="M358.18 250.05l19.44 0l0 12.23l-19.44 0Z" id="p238w272" />
<path d="M380.32 249.81l15.54 0l0 12.56l-15.54 0Z" id="p238w273" />
<path d="M325.59 265.28l42.53 0l0 12.29l-42.53 0Z" id="p238w274" />
<path d="M370.82 265.34l11.04 0l0 12.23l-11.04 0Z" id="p238w275" />
<path d="M387.71 264.24l25.77 0l0 13.77l-25.77 0Z" id="p238w276" />
<path d="M419.34 265.34l19.44 0l0 12.23l-19.44 0Z" id="p238w277" />
<path d="M441.48 265.34l49.93 0l0 12.23l-49.93 0Z" id="p238w278" />
<path d="M335.44 280.62l19.44 0l0 12.23l-19.44 0Z" id="p238w279" />
<path d="M357.58 280.62l51.76 0l0 12.23l-51.76 0Z" id="p238w280" />
<path d="M412.05 280.38l18.92 0l0 12.56l-18.92 0Z" id="p238w281" />
<path d="M325.59 295.85l35.38 0l0 12.29l-35.38 0Z" id="p238w282" />
<path d="M365.14 295.85l43.82 0l0 12.29l-43.82 0Z" id="p238w283" />
<path d="M414.81 294.8l71.53 0l0 13.77l-71.53 0Z" id="p238w284" />
<path d="M335.44 311.19l65.7 0l0 12.23l-65.7 0Z" id="p238w285" />
<path d="M403.84 311.19l37.81 0l0 12.23l-37.81 0Z" id="p238w286" />
<path d="M444.36 310.94l17.81 0l0 12.56l-17.81 0Z" id="p238w287" />
<path d="M325.59 326.47l11.94 0l0 12.23l-11.94 0Z" id="p238w288" />
<path d="M340.23 326.42l46.38 0l0 12.29l-46.38 0Z" id="p238w289" />
<path d="M392.47 325.37l38.53 0l0 13.77l-38.53 0Z" id="p238w290" />
<path d="M436.85 326.47l14.41 0l0 12.23l-14.41 0Z" id="p238w291" />
<path d="M453.96 326.47l45.92 0l0 12.23l-45.92 0Z" id="p238w292" />
<path d="M335.44 341.51l18.92 0l0 12.56l-18.92 0Z" id="p238w293" />
<path d="M325.59 357.04l17.56 0l0 12.23l-17.56 0Z" id="p238w294" />
<path d="M345.85 356.98l35.04 0l0 12.29l-35.04 0Z" id="p238w295" />
<path d="M386.75 355.94l35.02 0l0 13.77l-35.02 0Z" id="p238w296" />
<path d="M427.63 357.04l20.03 0l0 12.23l-20.03 0Z" id="p238w297" />
<path d="M450.36 357.04l24.76 0l0 12.23l-24.76 0Z" id="p238w298" />
<path d="M477.82 356.79l18.17 0l0 12.56l-18.17 0Z" id="p238w299" />
<path d="M325.59 372.32l11.94 0l0 12.23l-11.94 0Z" id="p238w300" />
<path d="M340.23 372.27l35.04 0l0 12.29l-35.04 0Z" id="p238w301" />
<path d="M381.12 371.22l33.4 0l0 13.77l-33.4 0Z" id="p238w302" />
<path d="M420.38 372.32l14.41 0l0 12.23l-14.41 0Z" id="p238w303" />
<path d="M437.49 372.32l27.68 0l0 12.23l-27.68 0Z" id="p238w304" />
<path d="M467.87 372.08l14.63 0l0 12.56l-14.63 0Z" id="p238w305" />
<path d="M325.59 387.55l38.94 0l0 12.29l-38.94 0Z" id="p238w306" />
<path d="M370.39 386.5l28.69 0l0 13.77l-28.69 0Z" id="p238w307" />
<path d="M404.93 387.6l31.88 0l0 12.23l-31.88 0Z" id="p238w308" />
<path d="M439.51 387.6l29.49 0l0 12.23l-29.49 0Z" id="p238w309" />
<path d="M471.7 387.36l15.54 0l0 12.56l-15.54 0Z" id="p238w310" />
<path d="M325.59 402.89l11.94 0l0 12.23l-11.94 0Z" id="p238w311" />
<path d="M340.23 402.83l21.61 0l0 12.29l-21.61 0Z" id="p238w312" />
<path d="M367.7 401.79l27.74 0l0 13.77l-27.74 0Z" id="p238w313" />
<path d="M401.3 402.89l14.41 0l0 12.23l-14.41 0Z" id="p238w314" />
<path d="M418.4 402.89l44.57 0l0 12.23l-44.57 0Z" id="p238w315" />
<path d="M465.68 402.64l18.92 0l0 12.56l-18.92 0Z" id="p238w316" />
<path d="M325.59 418.17l11.94 0l0 12.23l-11.94 0Z" id="p238w317" />
<path d="M340.23 418.12l27.69 0l0 12.29l-27.69 0Z" id="p238w318" />
<path d="M373.78 417.07l29.37 0l0 13.77l-29.37 0Z" id="p238w319" />
<path d="M409 418.17l14.41 0l0 12.23l-14.41 0Z" id="p238w320" />
<path d="M426.11 418.17l40.93 0l0 12.23l-40.93 0Z" id="p238w321" />
<path d="M469.73 418.17l14.41 0l0 12.23l-14.41 0Z" id="p238w322" />
<path d="M335.44 433.45l44.12 0l0 12.23l-44.12 0Z" id="p238w323" />
<path d="M382.26 433.21l18.92 0l0 12.56l-18.92 0Z" id="p238w324" />
<path d="M325.59 448.68l46.48 0l0 12.29l-46.48 0Z" id="p238w325" />
<path d="M376.24 448.68l52.11 0l0 12.29l-52.11 0Z" id="p238w326" />
<path d="M434.21 447.64l69.19 0l0 13.77l-69.19 0Z" id="p238w327" />
<path d="M335.44 464.02l52.66 0l0 12.23l-52.66 0Z" id="p238w328" />
<path d="M390.8 463.78l18.92 0l0 12.56l-18.92 0Z" id="p238w329" />
<path d="M325.59 479.3l17.56 0l0 12.23l-17.56 0Z" id="p238w330" />
<path d="M345.84 479.25l36.45 0l0 12.29l-36.45 0Z" id="p238w331" />
<path d="M388.15 478.21l36.98 0l0 13.77l-36.98 0Z" id="p238w332" />
<path d="M430.98 479.31l20.03 0l0 12.23l-20.03 0Z" id="p238w333" />
<path d="M453.72 479.31l29.48 0l0 12.23l-29.48 0Z" id="p238w334" />
<path d="M335.43 494.35l15.34 0l0 12.56l-15.34 0Z" id="p238w335" />
<path d="M325.58 509.82l40.35 0l0 12.29l-40.35 0Z" id="p238w336" />
<path d="M368.63 509.88l27.37 0l0 12.23l-27.37 0Z" id="p238w337" />
<path d="M401.85 508.78l30.42 0l0 13.77l-30.42 0Z" id="p238w338" />
<path d="M438.13 509.88l40.5 0l0 12.23l-40.5 0Z" id="p238w339" />
<path d="M335.43 525.16l33.03 0l0 12.23l-33.03 0Z" id="p238w340" />
<path d="M371.16 524.92l18.92 0l0 12.56l-18.92 0Z" id="p238w341" />
<path d="M325.58 540.39l38.36 0l0 12.29l-38.36 0Z" id="p238w342" />
<path d="M368.11 540.39l43.98 0l0 12.29l-43.98 0Z" id="p238w343" />
<path d="M414.79 540.42l27.91 0l0 12.23l-27.91 0Z" id="p238w344" />
<path d="M448.56 539.34l28.64 0l0 13.77l-28.64 0Z" id="p238w345" />
<path d="M335.43 554.63l29.39 0l0 13.77l-29.39 0Z" id="p238w346" />
<path d="M370.67 555.73l28.28 0l0 12.23l-28.28 0Z" id="p238w347" />
<path d="M401.65 555.73l28.53 0l0 12.23l-28.53 0Z" id="p238w348" />
<path d="M432.89 555.48l15.54 0l0 12.56l-15.54 0Z" id="p238w349" />
<path d="M325.58 571.01l11.7 0l0 12.23l-11.7 0Z" id="p238w350" />
<path d="M339.98 571.01l23.19 0l0 12.23l-23.19 0Z" id="p238w351" />
<path d="M365.87 570.96l28.24 0l0 12.29l-28.24 0Z" id="p238w352" />
<path d="M396.82 570.99l27.91 0l0 12.23l-27.91 0Z" id="p238w353" />
<path d="M430.58 569.91l60.2 0l0 13.77l-60.2 0Z" id="p238w354" />
<path d="M335.43 586.29l14.41 0l0 12.23l-14.41 0Z" id="p238w355" />
<path d="M352.53 586.29l23.18 0l0 12.23l-23.18 0Z" id="p238w356" />
<path d="M378.41 586.29l16.44 0l0 12.23l-16.44 0Z" id="p238w357" />
<path d="M397.55 586.29l29.49 0l0 12.23l-29.49 0Z" id="p238w358" />
<path d="M429.74 586.27l25.65 0l0 12.23l-25.65 0Z" id="p238w359" />
<path d="M460.54 586.29l10.35 0l0 12.23l-10.35 0Z" id="p238w360" />
<path d="M335.43 601.58l47.48 0l0 12.23l-47.48 0Z" id="p238w361" />
<path d="M385.61 601.56l25.65 0l0 12.23l-25.65 0Z" id="p238w362" />
<path d="M413.97 601.33l15.54 0l0 12.56l-15.54 0Z" id="p238w363" />
<path d="M325.58 616.81l34.55 0l0 12.29l-34.55 0Z" id="p238w364" />
<path d="M365.98 615.76l25.18 0l0 13.77l-25.18 0Z" id="p238w365" />
<path d="M397.02 616.86l27.24 0l0 12.23l-27.24 0Z" id="p238w366" />
<path d="M426.96 616.62l18.92 0l0 12.56l-18.92 0Z" id="p238w367" />
<path d="M325.58 632.09l23.63 0l0 12.29l-23.63 0Z" id="p238w368" />
<path d="M376.22 631.04l23.99 0l0 13.77l-23.99 0Z" id="p238w369" />
<path d="M406.06 632.14l23.41 0l0 12.23l-23.41 0Z" id="p238w370" />
<path d="M432.17 631.9l14.79 0l0 12.56l-14.79 0Z" id="p238w371" />
<path d="M325.58 647.43l11.94 0l0 12.23l-11.94 0Z" id="p238w372" />
<path d="M340.22 647.37l29.53 0l0 12.29l-29.53 0Z" id="p238w373" />
<path d="M375.61 646.33l26.04 0l0 13.77l-26.04 0Z" id="p238w374" />
<path d="M407.51 647.43l14.41 0l0 12.23l-14.41 0Z" id="p238w375" />
<path d="M424.62 647.43l25.41 0l0 12.23l-25.41 0Z" id="p238w376" />
<path d="M452.73 647.43l14.41 0l0 12.23l-14.41 0Z" id="p238w377" />
<path d="M335.43 662.71l51.99 0l0 12.23l-51.99 0Z" id="p238w378" />
<path d="M390.11 662.47l15.54 0l0 12.56l-15.54 0Z" id="p238w379" />
<path d="M325.58 677.99l8.33 0l0 12.23l-8.33 0Z" id="p238w380" />
<path d="M336.61 677.94l39.61 0l0 12.29l-39.61 0Z" id="p238w381" />
<path d="M378.92 677.99l61 0l0 12.23l-61 0Z" id="p238w382" />
<path d="M338.58 692.18l92.03 0l0 13.77l-92.03 0Z" id="p238w383" />
<path d="M436.47 693.28l14.41 0l0 12.23l-14.41 0Z" id="p238w384" />
<path d="M335.43 708.56l107.44 0l0 12.23l-107.44 0Z" id="p238w385" />
<path d="M445.57 708.32l14.43 0l0 12.56l-14.43 0Z" id="p238w386" />
<path d="M325.58 723.84l13.05 0l0 12.23l-13.05 0Z" id="p238w387" />
<path d="M341.33 723.79l29.76 0l0 12.29l-29.76 0Z" id="p238w388" />
<path d="M387.07 723.82l14.18 0l0 12.23l-14.18 0Z" id="p238w389" />
<path d="M403.95 723.82l27.91 0l0 12.23l-27.91 0Z" id="p238w390" />
<path d="M446.27 723.82l12.6 0l0 12.23l-12.6 0Z" id="p238w391" />
<path d="M335.43 739.11l77.2 0l0 12.23l-77.2 0Z" id="p238w392" />
<path d="M418.48 738.03l65.41 0l0 13.77l-65.41 0Z" id="p238w393" />
<path d="M335.43 754.41l30.38 0l0 12.23l-30.38 0Z" id="p238w394" />
<path d="M368.51 754.39l25.65 0l0 12.23l-25.65 0Z" id="p238w395" />
<path d="M396.86 754.39l69.6 0l0 12.23l-69.6 0Z" id="p238w396" />
<path d="M469.17 754.17l15.54 0l0 12.56l-15.54 0Z" id="p238w397" />
<path d="M325.58 769.7l17.56 0l0 12.23l-17.56 0Z" id="p238w398" />
<path d="M345.84 769.64l36.72 0l0 12.29l-36.72 0Z" id="p238w399" />
<path d="M388.42 768.59l42.06 0l0 13.77l-42.06 0Z" id="p238w400" />
<path d="M436.34 769.7l14.41 0l0 12.23l-14.41 0Z" id="p238w401" />
<path d="M453.45 769.7l32.66 0l0 12.23l-32.66 0Z" id="p238w402" />
<path d="M335.43 784.98l21.84 0l0 12.23l-21.84 0Z" id="p238w403" />
<path d="M359.97 784.73l15.54 0l0 12.56l-15.54 0Z" id="p238w404" />
<path d="M335.43 800.26l8.33 0l0 12.23l-8.33 0Z" id="p238w405" />
<path d="M346.45 800.26l36.45 0l0 12.23l-36.45 0Z" id="p238w406" />
<path d="M385.6 800.26l39.83 0l0 12.23l-39.83 0Z" id="p238w407" />
<path d="M338.58 814.45l74.2 0l0 13.77l-74.2 0Z" id="p238w408" />
<path d="M418.65 815.55l16.43 0l0 12.23l-16.43 0Z" id="p238w409" />
<path d="M437.78 815.55l62.08 0l0 12.23l-62.08 0Z" id="p238w410" />
<path d="M335.43 830.58l15.54 0l0 12.56l-15.54 0Z" id="p238w411" />
<path d="M325.58 846.11l11.94 0l0 12.23l-11.94 0Z" id="p238w412" />
<path d="M340.22 846.06l27.73 0l0 12.29l-27.73 0Z" id="p238w413" />
<path d="M373.81 845.01l27.39 0l0 13.77l-27.39 0Z" id="p238w414" />
<path d="M407.05 846.11l14.41 0l0 12.23l-14.41 0Z" id="p238w415" />
<path d="M424.16 846.11l36.49 0l0 12.23l-36.49 0Z" id="p238w416" />
<path d="M463.35 845.87l15.54 0l0 12.56l-15.54 0Z" id="p238w417" />
<path d="M325.58 861.34l39.19 0l0 12.29l-39.19 0Z" id="p238w418" />
<path d="M368.94 861.34l44.82 0l0 12.29l-44.82 0Z" id="p238w419" />
<path d="M419.61 860.3l57.83 0l0 13.77l-57.83 0Z" id="p238w420" />
<path d="M335.43 876.68l38.95 0l0 12.23l-38.95 0Z" id="p238w421" />
<path d="M377.08 876.43l15.54 0l0 12.56l-15.54 0Z" id="p238w422" />
<path d="M325.58 891.96l11.94 0l0 12.23l-11.94 0Z" id="p238w423" />
<path d="M340.22 891.91l19.5 0l0 12.29l-19.5 0Z" id="p238w424" />
<path d="M362.42 891.94l27.91 0l0 12.23l-27.91 0Z" id="p238w425" />
<path d="M396.18 890.86l24.33 0l0 13.77l-24.33 0Z" id="p238w426" />
<path d="M426.37 891.96l14.41 0l0 12.23l-14.41 0Z" id="p238w427" />
<path d="M443.18 891.96l15.55 0l0 12.23l-15.55 0Z" id="p238w428" />
<path d="M461.43 891.94l25.65 0l0 12.23l-25.65 0Z" id="p238w429" />
<path d="M335.43 907l15.54 0l0 12.56l-15.54 0Z" id="p238w430" />
<path d="M527.1 112.51l11.94 0l0 12.23l-11.94 0Z" id="p238w431" />
<path d="M541.74 112.45l53.15 0l0 12.29l-53.15 0Z" id="p238w432" />
<path d="M594.89 112.51l21.73 0l0 12.23l-21.73 0Z" id="p238w433" />
<path d="M619.32 112.45l64.86 0l0 12.29l-64.86 0Z" id="p238w434" />
<path d="M540.1 126.69l117.3 0l0 13.77l-117.3 0Z" id="p238w435" />
<path d="M663.26 127.79l14.41 0l0 12.23l-14.41 0Z" id="p238w436" />
<path d="M536.95 143.08l79.12 0l0 12.23l-79.12 0Z" id="p238w437" />
<path d="M618.77 143.08l63.7 0l0 12.23l-63.7 0Z" id="p238w438" />
<path d="M685.17 142.83l17.81 0l0 12.56l-17.81 0Z" id="p238w439" />
<path d="M527.1 158.3l41.24 0l0 12.29l-41.24 0Z" id="p238w440" />
<path d="M572.5 158.3l46.86 0l0 12.29l-46.86 0Z" id="p238w441" />
<path d="M625.22 157.26l52.99 0l0 13.77l-52.99 0Z" id="p238w442" />
<path d="M684.07 158.36l24.73 0l0 12.23l-24.73 0Z" id="p238w443" />
<path d="M536.95 173.64l35.28 0l0 12.23l-35.28 0Z" id="p238w444" />
<path d="M574.93 173.4l18.92 0l0 12.56l-18.92 0Z" id="p238w445" />
<path d="M527.1 188.93l17.56 0l0 12.23l-17.56 0Z" id="p238w446" />
<path d="M547.36 188.87l40.64 0l0 12.29l-40.64 0Z" id="p238w447" />
<path d="M590.7 188.93l17.48 0l0 12.23l-17.48 0Z" id="p238w448" />
<path d="M614.04 187.83l56.29 0l0 13.77l-56.29 0Z" id="p238w449" />
<path d="M676.19 188.93l20.03 0l0 12.23l-20.03 0Z" id="p238w450" />
<path d="M536.95 204.21l61.68 0l0 12.23l-61.68 0Z" id="p238w451" />
<path d="M601.33 203.96l18.01 0l0 12.56l-18.01 0Z" id="p238w452" />
<path d="M527.1 219.49l11.94 0l0 12.23l-11.94 0Z" id="p238w453" />
<path d="M541.74 219.44l40.07 0l0 12.29l-40.07 0Z" id="p238w454" />
<path d="M581.81 219.49l21.73 0l0 12.23l-21.73 0Z" id="p238w455" />
<path d="M606.24 219.49l33.3 0l0 12.23l-33.3 0Z" id="p238w456" />
<path d="M642.24 219.44l40.07 0l0 12.29l-40.07 0Z" id="p238w457" />
<path d="M540.1 233.68l95.21 0l0 13.77l-95.21 0Z" id="p238w458" />
<path d="M641.17 234.78l14.41 0l0 12.23l-14.41 0Z" id="p238w459" />
<path d="M658.28 234.78l43.1 0l0 12.23l-43.1 0Z" id="p238w460" />
<path d="M536.95 250.06l27.69 0l0 12.23l-27.69 0Z" id="p238w461" />
<path d="M567.34 249.81l18.92 0l0 12.56l-18.92 0Z" id="p238w462" />
<path d="M527.1 265.34l13.05 0l0 12.23l-13.05 0Z" id="p238w463" />
<path d="M542.85 265.29l34.22 0l0 12.29l-34.22 0Z" id="p238w464" />
<path d="M599.2 265.32l14.18 0l0 12.23l-14.18 0Z" id="p238w465" />
<path d="M619.24 264.24l36.38 0l0 13.77l-36.38 0Z" id="p238w466" />
<path d="M661.48 265.34l14.41 0l0 12.23l-14.41 0Z" id="p238w467" />
<path d="M536.95 280.63l35.34 0l0 12.23l-35.34 0Z" id="p238w468" />
<path d="M574.98 280.38l18.01 0l0 12.56l-18.01 0Z" id="p238w469" />
<path d="M527.1 295.85l36.81 0l0 12.29l-36.81 0Z" id="p238w470" />
<path d="M568.08 295.85l42.44 0l0 12.29l-42.44 0Z" id="p238w471" />
<path d="M616.38 294.81l77.28 0l0 13.77l-77.28 0Z" id="p238w472" />
<path d="M536.95 311.19l55.83 0l0 12.23l-55.83 0Z" id="p238w473" />
<path d="M595.48 310.95l17.81 0l0 12.56l-17.81 0Z" id="p238w474" />
<path d="M527.1 326.48l11.94 0l0 12.23l-11.94 0Z" id="p238w475" />
<path d="M541.74 326.42l58.91 0l0 12.29l-58.91 0Z" id="p238w476" />
<path d="M606.51 325.38l54.25 0l0 13.77l-54.25 0Z" id="p238w477" />
<path d="M666.62 326.48l14.41 0l0 12.23l-14.41 0Z" id="p238w478" />
<path d="M536.95 341.76l59.83 0l0 12.23l-59.83 0Z" id="p238w479" />
<path d="M599.48 341.76l14.41 0l0 12.23l-14.41 0Z" id="p238w480" />
<path d="M616.59 341.76l59.19 0l0 12.23l-59.19 0Z" id="p238w481" />
<path d="M536.95 356.8l18.92 0l0 12.56l-18.92 0Z" id="p238w482" />
<path d="M527.1 372.33l8.33 0l0 12.23l-8.33 0Z" id="p238w483" />
<path d="M538.12 372.27l38.81 0l0 12.29l-38.81 0Z" id="p238w484" />
<path d="M576.94 372.33l23.71 0l0 12.23l-23.71 0Z" id="p238w485" />
<path d="M603.35 372.27l44.36 0l0 12.29l-44.36 0Z" id="p238w486" />
<path d="M664.78 371.23l42.08 0l0 13.77l-42.08 0Z" id="p238w487" />
<path d="M536.95 386.51l39.63 0l0 13.77l-39.63 0Z" id="p238w488" />
<path d="M582.43 387.61l54.7 0l0 12.23l-54.7 0Z" id="p238w489" />
<path d="M639.83 387.61l37.09 0l0 12.23l-37.09 0Z" id="p238w490" />
<path d="M679.62 387.37l18.92 0l0 12.56l-18.92 0Z" id="p238w491" />
<path d="M527.1 402.89l17.56 0l0 12.23l-17.56 0Z" id="p238w492" />
<path d="M547.36 402.84l38.04 0l0 12.29l-38.04 0Z" id="p238w493" />
<path d="M591.25 401.79l43.06 0l0 13.77l-43.06 0Z" id="p238w494" />
<path d="M640.17 402.89l20.03 0l0 12.23l-20.03 0Z" id="p238w495" />
<path d="M662.9 402.89l37.81 0l0 12.23l-37.81 0Z" id="p238w496" />
<path d="M536.95 417.93l15.34 0l0 12.56l-15.34 0Z" id="p238w497" />
<path d="M527.1 433.46l11.94 0l0 12.23l-11.94 0Z" id="p238w498" />
<path d="M541.74 433.4l29.62 0l0 12.29l-29.62 0Z" id="p238w499" />
<path d="M577.22 432.36l27.41 0l0 13.77l-27.41 0Z" id="p238w500" />
<path d="M610.48 433.46l20.03 0l0 12.23l-20.03 0Z" id="p238w501" />
<path d="M633.21 433.46l35.11 0l0 12.23l-35.11 0Z" id="p238w502" />
<path d="M671.03 433.22l14.63 0l0 12.56l-14.63 0Z" id="p238w503" />
<path d="M527.1 448.74l8.33 0l0 12.23l-8.33 0Z" id="p238w504" />
<path d="M538.12 448.69l29.77 0l0 12.29l-29.77 0Z" id="p238w505" />
<path d="M567.89 448.74l12.49 0l0 12.23l-12.49 0Z" id="p238w506" />
<path d="M583.09 448.69l29.77 0l0 12.29l-29.77 0Z" id="p238w507" />
<path d="M618.71 447.64l65.81 0l0 13.77l-65.81 0Z" id="p238w508" />
<path d="M536.95 464.03l54.7 0l0 12.23l-54.7 0Z" id="p238w509" />
<path d="M594.34 464.03l37.11 0l0 12.23l-37.11 0Z" id="p238w510" />
<path d="M634.16 464.03l44.45 0l0 12.23l-44.45 0Z" id="p238w511" />
<path d="M536.95 479.31l84.51 0l0 12.23l-84.51 0Z" id="p238w512" />
<path d="M624.16 479.07l15.34 0l0 12.56l-15.34 0Z" id="p238w513" />
<path d="M536.95 494.59l11.7 0l0 12.23l-11.7 0Z" id="p238w514" />
<path d="M551.35 494.59l29.7 0l0 12.23l-29.7 0Z" id="p238w515" />
<path d="M583.75 494.59l29.48 0l0 12.23l-29.48 0Z" id="p238w516" />
<path d="M619.09 493.49l38.77 0l0 13.77l-38.77 0Z" id="p238w517" />
<path d="M536.95 509.88l53.92 0l0 12.23l-53.92 0Z" id="p238w518" />
<path d="M593.57 509.63l18.92 0l0 12.56l-18.92 0Z" id="p238w519" />
<path d="M536.95 525.16l18.9 0l0 12.23l-18.9 0Z" id="p238w520" />
<path d="M558.54 525.16l11.94 0l0 12.23l-11.94 0Z" id="p238w521" />
<path d="M573.18 525.16l29.7 0l0 12.23l-29.7 0Z" id="p238w522" />
<path d="M605.58 525.16l18.23 0l0 12.23l-18.23 0Z" id="p238w523" />
<path d="M629.67 524.06l61.01 0l0 13.77l-61.01 0Z" id="p238w524" />
<path d="M536.95 540.44l37.54 0l0 12.23l-37.54 0Z" id="p238w525" />
<path d="M577.18 540.44l41.59 0l0 12.23l-41.59 0Z" id="p238w526" />
<path d="M621.48 540.44l19.13 0l0 12.23l-19.13 0Z" id="p238w527" />
<path d="M643.31 540.2l18.17 0l0 12.56l-18.17 0Z" id="p238w528" />
<path d="M527.1 555.67l29.77 0l0 12.29l-29.77 0Z" id="p238w529" />
<path d="M562.72 554.63l23.36 0l0 13.77l-23.36 0Z" id="p238w530" />
<path d="M591.94 555.73l26.05 0l0 12.23l-26.05 0Z" id="p238w531" />
<path d="M620.7 555.48l18.92 0l0 12.56l-18.92 0Z" id="p238w532" />
<path d="M536.95 571.01l29.7 0l0 12.23l-29.7 0Z" id="p238w533" />
<path d="M569.35 571.01l7.42 0l0 12.23l-7.42 0Z" id="p238w534" />
<path d="M582.63 569.91l30.62 0l0 13.77l-30.62 0Z" id="p238w535" />
<path d="M619.11 571.01l22.52 0l0 12.23l-22.52 0Z" id="p238w536" />
<path d="M644.33 571.01l26.11 0l0 12.23l-26.11 0Z" id="p238w537" />
<path d="M673.14 570.77l18.92 0l0 12.56l-18.92 0Z" id="p238w538" />
<path d="M527.1 586.29l11.94 0l0 12.23l-11.94 0Z" id="p238w539" />
<path d="M541.74 586.24l33.76 0l0 12.29l-33.76 0Z" id="p238w540" />
<path d="M581.35 585.19l33.76 0l0 13.77l-33.76 0Z" id="p238w541" />
<path d="M620.96 586.29l14.41 0l0 12.23l-14.41 0Z" id="p238w542" />
<path d="M638.07 586.29l54.89 0l0 12.23l-54.89 0Z" id="p238w543" />
<path d="M536.95 601.58l14.41 0l0 12.23l-14.41 0Z" id="p238w544" />
<path d="M554.05 601.58l33.53 0l0 12.23l-33.53 0Z" id="p238w545" />
<path d="M590.29 601.33l14.63 0l0 12.56l-14.63 0Z" id="p238w546" />
<path d="M527.1 616.86l8.33 0l0 12.23l-8.33 0Z" id="p238w547" />
<path d="M538.12 616.81l36.61 0l0 12.29l-36.61 0Z" id="p238w548" />
<path d="M580.6 615.76l26.98 0l0 13.77l-26.98 0Z" id="p238w549" />
<path d="M613.43 616.86l14.41 0l0 12.23l-14.41 0Z" id="p238w550" />
<path d="M630.54 616.86l28.59 0l0 12.23l-28.59 0Z" id="p238w551" />
<path d="M661.83 616.62l15.54 0l0 12.56l-15.54 0Z" id="p238w552" />
<path d="M527.1 632.09l31.62 0l0 12.29l-31.62 0Z" id="p238w553" />
<path d="M564.58 631.04l27.07 0l0 13.77l-27.07 0Z" id="p238w554" />
<path d="M597.5 632.14l26.29 0l0 12.23l-26.29 0Z" id="p238w555" />
<path d="M626.49 631.9l19.58 0l0 12.56l-19.58 0Z" id="p238w556" />
<path d="M527.1 647.43l11.94 0l0 12.23l-11.94 0Z" id="p238w557" />
<path d="M541.74 647.37l26.93 0l0 12.29l-26.93 0Z" id="p238w558" />
<path d="M574.53 646.33l30.4 0l0 13.77l-30.4 0Z" id="p238w559" />
<path d="M610.78 647.43l14.41 0l0 12.23l-14.41 0Z" id="p238w560" />
<path d="M627.89 647.43l26.79 0l0 12.23l-26.79 0Z" id="p238w561" />
<path d="M657.38 647.18l14.63 0l0 12.56l-14.63 0Z" id="p238w562" />
<path d="M527.1 662.71l17.56 0l0 12.23l-17.56 0Z" id="p238w563" />
<path d="M547.36 662.66l52.54 0l0 12.29l-52.54 0Z" id="p238w564" />
<path d="M605.76 661.61l54.66 0l0 13.77l-54.66 0Z" id="p238w565" />
<path d="M666.28 662.71l20.03 0l0 12.23l-20.03 0Z" id="p238w566" />
<path d="M536.95 677.99l55.34 0l0 12.23l-55.34 0Z" id="p238w567" />
<path d="M594.99 677.99l20.03 0l0 12.23l-20.03 0Z" id="p238w568" />
<path d="M617.42 677.99l44.12 0l0 12.23l-44.12 0Z" id="p238w569" />
<path d="M664.24 677.75l17.81 0l0 12.56l-17.81 0Z" id="p238w570" />
<path d="M527.1 693.28l8.33 0l0 12.23l-8.33 0Z" id="p238w571" />
<path d="M538.12 693.22l18.78 0l0 12.29l-18.78 0Z" id="p238w572" />
<path d="M562.77 692.18l27.67 0l0 13.77l-27.67 0Z" id="p238w573" />
<path d="M596.29 693.28l16.43 0l0 12.23l-16.43 0Z" id="p238w574" />
<path d="M615.42 693.28l24.3 0l0 12.23l-24.3 0Z" id="p238w575" />
<path d="M642.42 693.03l15.54 0l0 12.56l-15.54 0Z" id="p238w576" />
<path d="M527.1 708.51l26.13 0l0 12.29l-26.13 0Z" id="p238w577" />
<path d="M559.09 707.46l26.72 0l0 13.77l-26.72 0Z" id="p238w578" />
<path d="M591.67 708.56l28.59 0l0 12.23l-28.59 0Z" id="p238w579" />
<path d="M622.95 708.32l13.88 0l0 12.56l-13.88 0Z" id="p238w580" />
<path d="M527.1 723.84l8.33 0l0 12.23l-8.33 0Z" id="p238w581" />
<path d="M538.12 723.79l41.64 0l0 12.29l-41.64 0Z" id="p238w582" />
<path d="M585.62 722.74l52.74 0l0 13.77l-52.74 0Z" id="p238w583" />
<path d="M644.22 723.84l49.52 0l0 12.23l-49.52 0Z" id="p238w584" />
<path d="M536.95 738.88l14.79 0l0 12.56l-14.79 0Z" id="p238w585" />
<path d="M527.1 754.41l17.56 0l0 12.23l-17.56 0Z" id="p238w586" />
<path d="M547.36 754.36l24.33 0l0 12.29l-24.33 0Z" id="p238w587" />
<path d="M577.55 753.31l30.92 0l0 13.77l-30.92 0Z" id="p238w588" />
<path d="M614.33 754.41l20.03 0l0 12.23l-20.03 0Z" id="p238w589" />
<path d="M637.06 754.41l32.18 0l0 12.23l-32.18 0Z" id="p238w590" />
<path d="M671.94 754.17l15.54 0l0 12.56l-15.54 0Z" id="p238w591" />
<path d="M527.1 769.7l11.94 0l0 12.23l-11.94 0Z" id="p238w592" />
<path d="M541.74 769.64l41.69 0l0 12.29l-41.69 0Z" id="p238w593" />
<path d="M589.29 768.59l32.78 0l0 13.77l-32.78 0Z" id="p238w594" />
<path d="M627.92 769.7l20.03 0l0 12.23l-20.03 0Z" id="p238w595" />
<path d="M650.65 769.7l45.25 0l0 12.23l-45.25 0Z" id="p238w596" />
<path d="M536.95 784.73l19.58 0l0 12.56l-19.58 0Z" id="p238w597" />
<path d="M527.1 800.26l8.33 0l0 12.23l-8.33 0Z" id="p238w598" />
<path d="M538.12 800.21l30.3 0l0 12.29l-30.3 0Z" id="p238w599" />
<path d="M574.28 799.16l36.98 0l0 13.77l-36.98 0Z" id="p238w600" />
<path d="M617.12 800.26l14.41 0l0 12.23l-14.41 0Z" id="p238w601" />
<path d="M536.95 815.55l84.11 0l0 12.23l-84.11 0Z" id="p238w602" />
<path d="M623.76 815.3l15.54 0l0 12.56l-15.54 0Z" id="p238w603" />
<path d="M527.1 830.83l11.94 0l0 12.23l-11.94 0Z" id="p238w604" />
<path d="M541.74 830.77l31.17 0l0 12.29l-31.17 0Z" id="p238w605" />
<path d="M578.76 829.73l30.5 0l0 13.77l-30.5 0Z" id="p238w606" />
<path d="M615.12 830.83l14.41 0l0 12.23l-14.41 0Z" id="p238w607" />
<path d="M632.23 830.83l25.67 0l0 12.23l-25.67 0Z" id="p238w608" />
<path d="M660.59 830.58l18.92 0l0 12.56l-18.92 0Z" id="p238w609" />
<path d="M527.1 846.11l11.94 0l0 12.23l-11.94 0Z" id="p238w610" />
<path d="M541.74 846.06l28.28 0l0 12.29l-28.28 0Z" id="p238w611" />
<path d="M575.87 845.01l27.67 0l0 13.77l-27.67 0Z" id="p238w612" />
<path d="M609.39 846.11l14.41 0l0 12.23l-14.41 0Z" id="p238w613" />
<path d="M626.5 846.11l28.12 0l0 12.23l-28.12 0Z" id="p238w614" />
<path d="M657.32 845.87l18.17 0l0 12.56l-18.17 0Z" id="p238w615" />
<path d="M527.1 861.4l8.33 0l0 12.23l-8.33 0Z" id="p238w616" />
<path d="M538.12 861.34l28.5 0l0 12.29l-28.5 0Z" id="p238w617" />
<path d="M572.48 860.3l37.44 0l0 13.77l-37.44 0Z" id="p238w618" />
<path d="M615.78 861.4l14.41 0l0 12.23l-14.41 0Z" id="p238w619" />
<path d="M632.88 861.4l30.58 0l0 12.23l-30.58 0Z" id="p238w620" />
<path d="M666.16 861.4l14.41 0l0 12.23l-14.41 0Z" id="p238w621" />
<path d="M536.95 876.68l34.6 0l0 12.23l-34.6 0Z" id="p238w622" />
<path d="M574.25 876.43l15.54 0l0 12.56l-15.54 0Z" id="p238w623" />
<path d="M536.95 891.96l11.7 0l0 12.23l-11.7 0Z" id="p238w624" />
<path d="M551.35 891.96l28.13 0l0 12.23l-28.13 0Z" id="p238w625" />
<path d="M585.34 890.86l35.26 0l0 13.77l-35.26 0Z" id="p238w626" />
<path d="M626.46 891.96l15.75 0l0 12.23l-15.75 0Z" id="p238w627" />
<path d="M644.91 891.96l15.53 0l0 12.23l-15.53 0Z" id="p238w628" />
<path d="M663.14 891.96l34.6 0l0 12.23l-34.6 0Z" id="p238w629" />
<path d="M536.95 907l15.54 0l0 12.56l-15.54 0Z" id="p238w630" />
</svg>
