<?xml version="1.0" encoding="UTF-8"?>
<svg xmlns="http://www.w3.org/2000/svg" xmlns:xlink="http://www.w3.org/1999/xlink" version="1.1" baseProfile="full" width="768" height="1024" viewBox="0,0,768,1024" preserveAspectRatio="xMinYMin meet" >
<style type="text/css">
<![CDATA[
path {fill-opacity: 0.5;fill: #00aeef;visibility: hidden;}
]]>
</style>
<path d="M124.06 107.98l35.11 0l0 18.84l-35.11 0Z" id="p99w1" />
<path d="M162.82 107.98l13.62 0l0 18.84l-13.62 0Z" id="p99w2" />
<path d="M197.57 107.98l21.67 0l0 18.84l-21.67 0Z" id="p99w3" />
<path d="M222.9 107.98l23.83 0l0 18.84l-23.83 0Z" id="p99w4" />
<path d="M250.37 107.98l36.05 0l0 18.84l-36.05 0Z" id="p99w5" />
<path d="M290.07 107.98l73.49 0l0 18.84l-73.49 0Z" id="p99w6" />
<path d="M124.06 139.19l46.18 0l0 14.52l-46.18 0Z" id="p99w7" />
<path d="M173.45 139.19l15.5 0l0 14.52l-15.5 0Z" id="p99w8" />
<path d="M192.16 139.19l43.29 0l0 14.52l-43.29 0Z" id="p99w9" />
<path d="M238.66 139.19l55.16 0l0 14.52l-55.16 0Z" id="p99w10" />
<path d="M297.03 139.19l40.63 0l0 14.52l-40.63 0Z" id="p99w11" />
<path d="M340.86 139.19l9.89 0l0 14.52l-9.89 0Z" id="p99w12" />
<path d="M353.95 139.12l26.76 0l0 14.6l-26.76 0Z" id="p99w13" />
<path d="M383.92 139.12l13.9 0l0 14.6l-13.9 0Z" id="p99w14" />
<path d="M401.02 139.12l28.97 0l0 14.6l-28.97 0Z" id="p99w15" />
<path d="M476.65 139.19l14.44 0l0 14.52l-14.44 0Z" id="p99w16" />
<path d="M494.3 139.19l23.52 0l0 14.52l-23.52 0Z" id="p99w17" />
<path d="M143.75 164.21l25.41 0l0 14.61l-25.41 0Z" id="p99w18" />
<path d="M172.2 164.21l24.76 0l0 14.61l-24.76 0Z" id="p99w19" />
<path d="M200.17 164.21l43.56 0l0 14.61l-43.56 0Z" id="p99w20" />
<path d="M246.93 164.21l53.11 0l0 14.61l-53.11 0Z" id="p99w21" />
<path d="M303.26 164.21l17.37 0l0 14.61l-17.37 0Z" id="p99w22" />
<path d="M323.83 164.21l16.83 0l0 14.61l-16.83 0Z" id="p99w23" />
<path d="M343.87 164.21l42.24 0l0 14.61l-42.24 0Z" id="p99w24" />
<path d="M389.31 164.21l9.82 0l0 14.61l-9.82 0Z" id="p99w25" />
<path d="M402.34 164.21l33.94 0l0 14.61l-33.94 0Z" id="p99w26" />
<path d="M439.49 164.21l33.08 0l0 14.61l-33.08 0Z" id="p99w27" />
<path d="M475.77 164.21l71.22 0l0 14.61l-71.22 0Z" id="p99w28" />
<path d="M143.75 189.21l43.03 0l0 14.52l-43.03 0Z" id="p99w29" />
<path d="M189.99 189.21l57.22 0l0 14.52l-57.22 0Z" id="p99w30" />
<path d="M250.42 189.21l16.83 0l0 14.52l-16.83 0Z" id="p99w31" />
<path d="M270.46 189.21l42.59 0l0 14.52l-42.59 0Z" id="p99w32" />
<path d="M316.26 189.21l9.89 0l0 14.52l-9.89 0Z" id="p99w33" />
<path d="M329.35 189.21l33.68 0l0 14.52l-33.68 0Z" id="p99w34" />
<path d="M366.24 189.21l33.14 0l0 14.52l-33.14 0Z" id="p99w35" />
<path d="M402.59 189.21l71.3 0l0 14.52l-71.3 0Z" id="p99w36" />
<path d="M143.75 205.88l18.44 0l0 14.52l-18.44 0Z" id="p99w37" />
<path d="M165.4 205.88l26.46 0l0 14.52l-26.46 0Z" id="p99w38" />
<path d="M195.07 205.88l43.83 0l0 14.52l-43.83 0Z" id="p99w39" />
<path d="M242.12 205.88l52.37 0l0 14.52l-52.37 0Z" id="p99w40" />
<path d="M297.7 205.88l9.89 0l0 14.52l-9.89 0Z" id="p99w41" />
<path d="M310.79 205.88l26.72 0l0 14.52l-26.72 0Z" id="p99w42" />
<path d="M340.72 205.86l20.84 0l0 14.52l-20.84 0Z" id="p99w43" />
<path d="M364.76 205.86l29.39 0l0 14.52l-29.39 0Z" id="p99w44" />
<path d="M397.37 205.86l36.64 0l0 14.52l-36.64 0Z" id="p99w45" />
<path d="M143.75 222.53l56.96 0l0 14.52l-56.96 0Z" id="p99w46" />
<path d="M203.92 222.53l24.85 0l0 14.52l-24.85 0Z" id="p99w47" />
<path d="M231.98 222.53l14.97 0l0 14.52l-14.97 0Z" id="p99w48" />
<path d="M250.15 222.53l29.75 0l0 14.52l-29.75 0Z" id="p99w49" />
<path d="M293 222.56l13.63 0l0 14.52l-13.63 0Z" id="p99w50" />
<path d="M309.84 222.56l9.89 0l0 14.52l-9.89 0Z" id="p99w51" />
<path d="M322.94 222.56l22.99 0l0 14.52l-22.99 0Z" id="p99w52" />
<path d="M349.14 222.56l13.9 0l0 14.52l-13.9 0Z" id="p99w53" />
<path d="M366.24 222.56l70.83 0l0 14.52l-70.83 0Z" id="p99w54" />
<path d="M440.28 222.56l13.63 0l0 14.52l-13.63 0Z" id="p99w55" />
<path d="M457.12 222.56l43.31 0l0 14.52l-43.31 0Z" id="p99w56" />
<path d="M143.75 239.23l14.18 0l0 14.52l-14.18 0Z" id="p99w57" />
<path d="M161.14 239.23l27.36 0l0 14.52l-27.36 0Z" id="p99w58" />
<path d="M191.71 239.23l26.72 0l0 14.52l-26.72 0Z" id="p99w59" />
<path d="M221.63 239.23l40.1 0l0 14.52l-40.1 0Z" id="p99w60" />
<path d="M274.82 239.23l34.89 0l0 14.52l-34.89 0Z" id="p99w61" />
<path d="M312.92 239.23l36.88 0l0 14.52l-36.88 0Z" id="p99w62" />
<path d="M353 239.23l14.18 0l0 14.52l-14.18 0Z" id="p99w63" />
<path d="M370.39 239.23l45.43 0l0 14.52l-45.43 0Z" id="p99w64" />
<path d="M419.03 239.23l36.64 0l0 14.52l-36.64 0Z" id="p99w65" />
<path d="M143.75 255.9l15.77 0l0 14.52l-15.77 0Z" id="p99w66" />
<path d="M172.62 255.9l30.99 0l0 14.52l-30.99 0Z" id="p99w67" />
<path d="M206.82 255.9l9.89 0l0 14.52l-9.89 0Z" id="p99w68" />
<path d="M219.91 255.9l34.74 0l0 14.52l-34.74 0Z" id="p99w69" />
<path d="M257.86 255.9l20.76 0l0 14.52l-20.76 0Z" id="p99w70" />
<path d="M291.72 255.9l14.18 0l0 14.52l-14.18 0Z" id="p99w71" />
<path d="M309.1 255.9l21.65 0l0 14.52l-21.65 0Z" id="p99w72" />
<path d="M333.96 255.9l39.76 0l0 14.52l-39.76 0Z" id="p99w73" />
<path d="M376.92 255.9l13.9 0l0 14.52l-13.9 0Z" id="p99w74" />
<path d="M394.03 255.9l27.36 0l0 14.52l-27.36 0Z" id="p99w75" />
<path d="M143.75 272.54l12.57 0l0 14.52l-12.57 0Z" id="p99w76" />
<path d="M159.53 272.54l47.56 0l0 14.52l-47.56 0Z" id="p99w77" />
<path d="M210.29 272.54l33.95 0l0 14.52l-33.95 0Z" id="p99w78" />
<path d="M247.45 272.54l46.2 0l0 14.52l-46.2 0Z" id="p99w79" />
<path d="M296.85 272.54l40.65 0l0 14.52l-40.65 0Z" id="p99w80" />
<path d="M340.72 272.57l16.83 0l0 14.52l-16.83 0Z" id="p99w81" />
<path d="M360.75 272.57l9.89 0l0 14.52l-9.89 0Z" id="p99w82" />
<path d="M373.85 272.57l22.99 0l0 14.52l-22.99 0Z" id="p99w83" />
<path d="M400.05 272.57l24 0l0 14.52l-24 0Z" id="p99w84" />
<path d="M427.25 272.57l36.63 0l0 14.52l-36.63 0Z" id="p99w85" />
<path d="M467.08 272.57l46.51 0l0 14.52l-46.51 0Z" id="p99w86" />
<path d="M143.75 289.24l14.18 0l0 14.52l-14.18 0Z" id="p99w87" />
<path d="M161.14 289.24l23.52 0l0 14.52l-23.52 0Z" id="p99w88" />
<path d="M187.87 289.24l15.5 0l0 14.52l-15.5 0Z" id="p99w89" />
<path d="M206.57 289.24l26.98 0l0 14.52l-26.98 0Z" id="p99w90" />
<path d="M236.76 289.24l12.29 0l0 14.52l-12.29 0Z" id="p99w91" />
<path d="M252.25 289.24l55.32 0l0 14.52l-55.32 0Z" id="p99w92" />
<path d="M310.78 289.24l25.67 0l0 14.52l-25.67 0Z" id="p99w93" />
<path d="M339.66 289.24l15.5 0l0 14.52l-15.5 0Z" id="p99w94" />
<path d="M358.36 289.24l39.56 0l0 14.52l-39.56 0Z" id="p99w95" />
<path d="M124.06 339.25l33.95 0l0 14.52l-33.95 0Z" id="p99w96" />
<path d="M161.22 339.25l13.9 0l0 14.52l-13.9 0Z" id="p99w97" />
<path d="M178.32 339.25l18.72 0l0 14.52l-18.72 0Z" id="p99w98" />
<path d="M200.25 339.25l58.01 0l0 14.52l-58.01 0Z" id="p99w99" />
<path d="M261.47 339.25l55.34 0l0 14.52l-55.34 0Z" id="p99w100" />
<path d="M320.02 339.25l19.52 0l0 14.52l-19.52 0Z" id="p99w101" />
<path d="M342.75 339.25l56.68 0l0 14.52l-56.68 0Z" id="p99w102" />
<path d="M402.63 339.25l39.29 0l0 14.52l-39.29 0Z" id="p99w103" />
<path d="M445.13 339.25l9.89 0l0 14.52l-9.89 0Z" id="p99w104" />
<path d="M458.23 339.25l26.45 0l0 14.52l-26.45 0Z" id="p99w105" />
<path d="M487.89 339.25l13.9 0l0 14.52l-13.9 0Z" id="p99w106" />
<path d="M504.99 339.25l30.48 0l0 14.52l-30.48 0Z" id="p99w107" />
<path d="M143.75 364.28l13.9 0l0 14.61l-13.9 0Z" id="p99w108" />
<path d="M160.86 364.28l24.33 0l0 14.61l-24.33 0Z" id="p99w109" />
<path d="M188.4 364.28l15.5 0l0 14.61l-15.5 0Z" id="p99w110" />
<path d="M207.1 364.28l67.33 0l0 14.61l-67.33 0Z" id="p99w111" />
<path d="M143.75 389.28l25.4 0l0 14.52l-25.4 0Z" id="p99w112" />
<path d="M172.36 389.28l32.27 0l0 14.52l-32.27 0Z" id="p99w113" />
<path d="M207.84 389.28l13.9 0l0 14.52l-13.9 0Z" id="p99w114" />
<path d="M224.94 389.28l21.65 0l0 14.52l-21.65 0Z" id="p99w115" />
<path d="M249.8 389.28l25.67 0l0 14.52l-25.67 0Z" id="p99w116" />
<path d="M278.68 389.28l50.76 0l0 14.52l-50.76 0Z" id="p99w117" />
<path d="M340.94 389.28l18.44 0l0 14.52l-18.44 0Z" id="p99w118" />
<path d="M362.59 389.28l41.42 0l0 14.52l-41.42 0Z" id="p99w119" />
<path d="M407.21 389.28l13.91 0l0 14.52l-13.91 0Z" id="p99w120" />
<path d="M424.33 389.28l15.5 0l0 14.52l-15.5 0Z" id="p99w121" />
<path d="M443.04 389.28l53.19 0l0 14.52l-53.19 0Z" id="p99w122" />
<path d="M143.75 405.95l50.43 0l0 14.52l-50.43 0Z" id="p99w123" />
<path d="M197.4 405.95l20.85 0l0 14.52l-20.85 0Z" id="p99w124" />
<path d="M221.46 405.95l25.67 0l0 14.52l-25.67 0Z" id="p99w125" />
<path d="M250.34 405.95l46.5 0l0 14.52l-46.5 0Z" id="p99w126" />
<path d="M308.34 405.95l18.44 0l0 14.52l-18.44 0Z" id="p99w127" />
<path d="M329.98 405.95l34.49 0l0 14.52l-34.49 0Z" id="p99w128" />
<path d="M367.68 405.95l52.57 0l0 14.52l-52.57 0Z" id="p99w129" />
<path d="M423.46 405.95l13.91 0l0 14.52l-13.91 0Z" id="p99w130" />
<path d="M440.58 405.95l15.5 0l0 14.52l-15.5 0Z" id="p99w131" />
<path d="M459.28 405.95l30.15 0l0 14.52l-30.15 0Z" id="p99w132" />
<path d="M492.64 405.95l52.57 0l0 14.52l-52.57 0Z" id="p99w133" />
<path d="M143.75 422.62l25.41 0l0 14.52l-25.41 0Z" id="p99w134" />
<path d="M172.37 422.62l24.06 0l0 14.52l-24.06 0Z" id="p99w135" />
<path d="M199.64 422.62l21.65 0l0 14.52l-21.65 0Z" id="p99w136" />
<path d="M224.5 422.62l33.05 0l0 14.52l-33.05 0Z" id="p99w137" />
<path d="M260.75 422.62l20.85 0l0 14.52l-20.85 0Z" id="p99w138" />
<path d="M284.82 422.62l25.67 0l0 14.52l-25.67 0Z" id="p99w139" />
<path d="M313.7 422.62l25.4 0l0 14.52l-25.4 0Z" id="p99w140" />
<path d="M342.3 422.62l13.63 0l0 14.52l-13.63 0Z" id="p99w141" />
<path d="M359.14 422.62l14.18 0l0 14.52l-14.18 0Z" id="p99w142" />
<path d="M376.52 422.62l27.02 0l0 14.52l-27.02 0Z" id="p99w143" />
<path d="M406.75 422.62l13.9 0l0 14.52l-13.9 0Z" id="p99w144" />
<path d="M423.86 422.62l28.62 0l0 14.52l-28.62 0Z" id="p99w145" />
<path d="M455.68 422.62l28.33 0l0 14.52l-28.33 0Z" id="p99w146" />
<path d="M487.21 422.62l34.48 0l0 14.52l-34.48 0Z" id="p99w147" />
<path d="M143.75 439.29l26.2 0l0 14.52l-26.2 0Z" id="p99w148" />
<path d="M173.16 439.29l17.38 0l0 14.52l-17.38 0Z" id="p99w149" />
<path d="M193.75 439.29l33.05 0l0 14.52l-33.05 0Z" id="p99w150" />
<path d="M230.01 439.29l20.85 0l0 14.52l-20.85 0Z" id="p99w151" />
<path d="M254.07 439.29l25.67 0l0 14.52l-25.67 0Z" id="p99w152" />
<path d="M282.95 439.29l25.66 0l0 14.52l-25.66 0Z" id="p99w153" />
<path d="M311.82 439.29l13.63 0l0 14.52l-13.63 0Z" id="p99w154" />
<path d="M328.66 439.29l40.63 0l0 14.52l-40.63 0Z" id="p99w155" />
<path d="M143.75 455.96l36.63 0l0 14.52l-36.63 0Z" id="p99w156" />
<path d="M183.59 455.96l33.05 0l0 14.52l-33.05 0Z" id="p99w157" />
<path d="M219.85 455.96l20.85 0l0 14.52l-20.85 0Z" id="p99w158" />
<path d="M243.91 455.96l25.67 0l0 14.52l-25.67 0Z" id="p99w159" />
<path d="M272.79 455.96l25.66 0l0 14.52l-25.66 0Z" id="p99w160" />
<path d="M301.66 455.96l13.63 0l0 14.52l-13.63 0Z" id="p99w161" />
<path d="M318.5 455.96l40.63 0l0 14.52l-40.63 0Z" id="p99w162" />
<path d="M370.62 455.96l66.47 0l0 14.52l-66.47 0Z" id="p99w163" />
<path d="M440.3 455.96l13.91 0l0 14.52l-13.91 0Z" id="p99w164" />
<path d="M457.42 455.96l9.89 0l0 14.52l-9.89 0Z" id="p99w165" />
<path d="M470.52 455.96l20.31 0l0 14.52l-20.31 0Z" id="p99w166" />
<path d="M124.06 499.8l17.01 0l0 18.84l-17.01 0Z" id="p99w167" />
<path d="M144.72 499.8l55.72 0l0 18.84l-55.72 0Z" id="p99w168" />
<path d="M204.09 499.8l18.36 0l0 18.84l-18.36 0Z" id="p99w169" />
<path d="M226.1 499.8l53.39 0l0 18.84l-53.39 0Z" id="p99w170" />
<path d="M283.14 499.8l70.98 0l0 18.84l-70.98 0Z" id="p99w171" />
<path d="M143.75 531l43.86 0l0 14.52l-43.86 0Z" id="p99w172" />
<path d="M190.82 531l44.11 0l0 14.52l-44.11 0Z" id="p99w173" />
<path d="M238.14 531l17.38 0l0 14.52l-17.38 0Z" id="p99w174" />
<path d="M268.62 531l49.18 0l0 14.52l-49.18 0Z" id="p99w175" />
<path d="M330.89 531l40.71 0l0 14.52l-40.71 0Z" id="p99w176" />
<path d="M374.81 531l93.48 0l0 14.52l-93.48 0Z" id="p99w177" />
<path d="M143.75 547.67l50.43 0l0 14.52l-50.43 0Z" id="p99w178" />
<path d="M197.4 547.67l22.99 0l0 14.52l-22.99 0Z" id="p99w179" />
<path d="M233.48 547.67l27.52 0l0 14.52l-27.52 0Z" id="p99w180" />
<path d="M272.5 547.67l49.99 0l0 14.52l-49.99 0Z" id="p99w181" />
<path d="M325.69 547.67l36.61 0l0 14.52l-36.61 0Z" id="p99w182" />
<path d="M365.52 547.67l44.9 0l0 14.52l-44.9 0Z" id="p99w183" />
<path d="M143.75 572.68l57.4 0l0 14.52l-57.4 0Z" id="p99w184" />
<path d="M204.37 572.68l20.85 0l0 14.52l-20.85 0Z" id="p99w185" />
<path d="M228.43 572.68l54.26 0l0 14.52l-54.26 0Z" id="p99w186" />
<path d="M285.9 572.68l20.05 0l0 14.52l-20.05 0Z" id="p99w187" />
<path d="M315.57 572.68l20.31 0l0 14.52l-20.31 0Z" id="p99w188" />
<path d="M339.09 572.68l13.91 0l0 14.52l-13.91 0Z" id="p99w189" />
<path d="M356.21 572.68l23.8 0l0 14.52l-23.8 0Z" id="p99w190" />
<path d="M143.75 597.7l31.9 0l0 14.52l-31.9 0Z" id="p99w191" />
<path d="M178.87 597.7l9.89 0l0 14.52l-9.89 0Z" id="p99w192" />
<path d="M191.96 597.7l56.94 0l0 14.52l-56.94 0Z" id="p99w193" />
<path d="M252.11 597.7l44.11 0l0 14.52l-44.11 0Z" id="p99w194" />
<path d="M299.43 597.7l44.46 0l0 14.52l-44.46 0Z" id="p99w195" />
<path d="M347.09 597.7l19.51 0l0 14.52l-19.51 0Z" id="p99w196" />
<path d="M369.81 597.7l43.31 0l0 14.52l-43.31 0Z" id="p99w197" />
<path d="M143.75 614.37l40.63 0l0 14.52l-40.63 0Z" id="p99w198" />
<path d="M187.59 614.37l16.83 0l0 14.52l-16.83 0Z" id="p99w199" />
<path d="M207.63 614.37l20.85 0l0 14.52l-20.85 0Z" id="p99w200" />
<path d="M231.69 614.37l22.45 0l0 14.52l-22.45 0Z" id="p99w201" />
<path d="M257.35 614.37l59.98 0l0 14.52l-59.98 0Z" id="p99w202" />
<path d="M320.53 614.37l40.1 0l0 14.52l-40.1 0Z" id="p99w203" />
<path d="M363.84 614.37l15.5 0l0 14.52l-15.5 0Z" id="p99w204" />
<path d="M382.54 614.37l38.77 0l0 14.52l-38.77 0Z" id="p99w205" />
<path d="M143.75 631.04l44.11 0l0 14.52l-44.11 0Z" id="p99w206" />
<path d="M200.96 631.04l32.88 0l0 14.52l-32.88 0Z" id="p99w207" />
<path d="M237.05 631.04l26.73 0l0 14.52l-26.73 0Z" id="p99w208" />
<path d="M266.98 631.04l14.18 0l0 14.52l-14.18 0Z" id="p99w209" />
<path d="M284.37 631.04l31.28 0l0 14.52l-31.28 0Z" id="p99w210" />
<path d="M143.75 647.71l27.8 0l0 14.52l-27.8 0Z" id="p99w211" />
<path d="M174.76 647.71l9.89 0l0 14.52l-9.89 0Z" id="p99w212" />
<path d="M187.85 647.71l39.24 0l0 14.52l-39.24 0Z" id="p99w213" />
<path d="M230.3 647.71l55.27 0l0 14.52l-55.27 0Z" id="p99w214" />
<path d="M288.78 647.71l6.41 0l0 14.52l-6.41 0Z" id="p99w215" />
<path d="M307.49 647.71l27.08 0l0 14.52l-27.08 0Z" id="p99w216" />
<path d="M337.79 647.71l19.51 0l0 14.52l-19.51 0Z" id="p99w217" />
<path d="M360.5 647.71l61.21 0l0 14.52l-61.21 0Z" id="p99w218" />
<path d="M143.75 664.38l19.51 0l0 14.52l-19.51 0Z" id="p99w219" />
<path d="M166.47 664.38l45.71 0l0 14.52l-45.71 0Z" id="p99w220" />
<path d="M215.39 664.38l11.22 0l0 14.52l-11.22 0Z" id="p99w221" />
<path d="M229.81 664.38l19.51 0l0 14.52l-19.51 0Z" id="p99w222" />
<path d="M252.53 664.38l43.5 0l0 14.52l-43.5 0Z" id="p99w223" />
<path d="M154.71 681.05l43.31 0l0 14.52l-43.31 0Z" id="p99w224" />
<path d="M201.22 681.05l15.5 0l0 14.52l-15.5 0Z" id="p99w225" />
<path d="M219.93 681.05l46.24 0l0 14.52l-46.24 0Z" id="p99w226" />
<path d="M269.37 681.05l43.04 0l0 14.52l-43.04 0Z" id="p99w227" />
<path d="M335.13 681.05l37.68 0l0 14.52l-37.68 0Z" id="p99w228" />
<path d="M376.02 681.05l9.89 0l0 14.52l-9.89 0Z" id="p99w229" />
<path d="M389.12 681.05l35.28 0l0 14.52l-35.28 0Z" id="p99w230" />
<path d="M143.75 697.72l12.83 0l0 14.52l-12.83 0Z" id="p99w231" />
<path d="M159.79 697.72l40.18 0l0 14.52l-40.18 0Z" id="p99w232" />
<path d="M203.18 697.72l13.9 0l0 14.52l-13.9 0Z" id="p99w233" />
<path d="M220.28 697.72l40.63 0l0 14.52l-40.63 0Z" id="p99w234" />
<path d="M264.12 697.72l16.83 0l0 14.52l-16.83 0Z" id="p99w235" />
<path d="M284.16 697.72l14.18 0l0 14.52l-14.18 0Z" id="p99w236" />
<path d="M301.54 697.72l40.18 0l0 14.52l-40.18 0Z" id="p99w237" />
<path d="M344.93 697.72l74.58 0l0 14.52l-74.58 0Z" id="p99w238" />
<path d="M143.75 714.39l12.83 0l0 14.52l-12.83 0Z" id="p99w239" />
<path d="M159.79 714.39l21.67 0l0 14.52l-21.67 0Z" id="p99w240" />
<path d="M184.67 714.39l22.99 0l0 14.52l-22.99 0Z" id="p99w241" />
<path d="M210.87 714.39l9.89 0l0 14.52l-9.89 0Z" id="p99w242" />
<path d="M223.97 714.39l39.03 0l0 14.52l-39.03 0Z" id="p99w243" />
<path d="M266.21 714.39l34.2 0l0 14.52l-34.2 0Z" id="p99w244" />
<path d="M303.61 714.39l9.89 0l0 14.52l-9.89 0Z" id="p99w245" />
<path d="M316.71 714.39l22.17 0l0 14.52l-22.17 0Z" id="p99w246" />
<path d="M342.09 714.39l56.93 0l0 14.52l-56.93 0Z" id="p99w247" />
<path d="M143.75 731.06l13.9 0l0 14.52l-13.9 0Z" id="p99w248" />
<path d="M160.86 731.06l34.74 0l0 14.52l-34.74 0Z" id="p99w249" />
<path d="M198.81 731.06l19.51 0l0 14.52l-19.51 0Z" id="p99w250" />
<path d="M221.53 731.06l29.94 0l0 14.52l-29.94 0Z" id="p99w251" />
<path d="M254.67 731.06l25.67 0l0 14.52l-25.67 0Z" id="p99w252" />
<path d="M283.55 731.06l15.5 0l0 14.52l-15.5 0Z" id="p99w253" />
<path d="M302.25 731.06l36.09 0l0 14.52l-36.09 0Z" id="p99w254" />
<path d="M341.55 731.06l36.89 0l0 14.52l-36.89 0Z" id="p99w255" />
<path d="M381.65 731.06l19.51 0l0 14.52l-19.51 0Z" id="p99w256" />
<path d="M404.36 731.06l58.54 0l0 14.52l-58.54 0Z" id="p99w257" />
<path d="M143.75 747.73l25.67 0l0 14.52l-25.67 0Z" id="p99w258" />
<path d="M172.64 747.73l15.5 0l0 14.52l-15.5 0Z" id="p99w259" />
<path d="M191.34 747.73l27.78 0l0 14.52l-27.78 0Z" id="p99w260" />
<path d="M222.33 747.73l14.18 0l0 14.52l-14.18 0Z" id="p99w261" />
<path d="M239.71 747.73l42.86 0l0 14.52l-42.86 0Z" id="p99w262" />
<path d="M588.74 189.21l43.57 0l0 14.52l-43.57 0Z" id="p99w263" />
<path d="M635.51 189.21l53.72 0l0 14.52l-53.72 0Z" id="p99w264" />
<path d="M588.74 205.88l27.81 0l0 14.52l-27.81 0Z" id="p99w265" />
<path d="M588.74 222.55l36.89 0l0 14.52l-36.89 0Z" id="p99w266" />
<path d="M588.74 239.22l52.14 0l0 14.52l-52.14 0Z" id="p99w267" />
<path d="M644.08 239.22l10.43 0l0 14.52l-10.43 0Z" id="p99w268" />
<path d="M657.72 239.22l35.82 0l0 14.52l-35.82 0Z" id="p99w269" />
<path d="M588.74 255.89l14.18 0l0 14.52l-14.18 0Z" id="p99w270" />
<path d="M606.12 255.89l21.65 0l0 14.52l-21.65 0Z" id="p99w271" />
<path d="M630.97 255.89l43.83 0l0 14.52l-43.83 0Z" id="p99w272" />
<path d="M588.74 272.56l71.92 0l0 14.52l-71.92 0Z" id="p99w273" />
<path d="M588.74 289.23l9.89 0l0 14.52l-9.89 0Z" id="p99w274" />
<path d="M601.83 289.23l40.18 0l0 14.52l-40.18 0Z" id="p99w275" />
<path d="M645.22 289.23l13.9 0l0 14.52l-13.9 0Z" id="p99w276" />
<path d="M662.32 289.23l40.63 0l0 14.52l-40.63 0Z" id="p99w277" />
<path d="M53.28 532.77l35.52 0l0 12.29l-35.52 0Z" id="p99w278" />
<path d="M54.14 549.51l20.34 0l0 12.3l-20.34 0Z" id="p99w279" />
<path d="M53.08 585.64l35.72 0l0 12.3l-35.72 0Z" id="p99w280" />
<path d="M39.67 598.14l49.13 0l0 12.3l-49.13 0Z" id="p99w281" />
<path d="M124.06 805.46l29.23 0l0 18.84l-29.23 0Z" id="p99w282" />
<path d="M156.94 805.46l57.33 0l0 18.84l-57.33 0Z" id="p99w283" />
<path d="M217.92 805.46l18.36 0l0 18.84l-18.36 0Z" id="p99w284" />
<path d="M239.93 805.46l29.53 0l0 18.84l-29.53 0Z" id="p99w285" />
<path d="M123.63 839.45l26.21 0l0 14.52l-26.21 0Z" id="p99w286" />
<path d="M153.05 839.45l55.07 0l0 14.52l-55.07 0Z" id="p99w287" />
<path d="M221.21 839.45l40.71 0l0 14.52l-40.71 0Z" id="p99w288" />
<path d="M265.12 839.45l90.8 0l0 14.52l-90.8 0Z" id="p99w289" />
<path d="M359.13 839.45l13.63 0l0 14.52l-13.63 0Z" id="p99w290" />
<path d="M124.06 856.12l40.18 0l0 14.52l-40.18 0Z" id="p99w291" />
<path d="M167.45 856.12l13.9 0l0 14.52l-13.9 0Z" id="p99w292" />
<path d="M184.55 856.12l43.31 0l0 14.52l-43.31 0Z" id="p99w293" />
<path d="M124.06 872.79l27.8 0l0 14.52l-27.8 0Z" id="p99w294" />
<path d="M155.07 872.79l9.89 0l0 14.52l-9.89 0Z" id="p99w295" />
<path d="M168.16 872.79l31.01 0l0 14.52l-31.01 0Z" id="p99w296" />
<path d="M202.37 872.79l31.27 0l0 14.52l-31.27 0Z" id="p99w297" />
<path d="M236.85 872.79l26.73 0l0 14.52l-26.73 0Z" id="p99w298" />
<path d="M266.79 872.79l28.87 0l0 14.52l-28.87 0Z" id="p99w299" />
<path d="M298.86 872.79l34.21 0l0 14.52l-34.21 0Z" id="p99w300" />
<path d="M336.28 872.79l55.86 0l0 14.52l-55.86 0Z" id="p99w301" />
<path d="M124.06 889.46l40.02 0l0 14.52l-40.02 0Z" id="p99w302" />
<path d="M167.29 889.46l34.75 0l0 14.52l-34.75 0Z" id="p99w303" />
<path d="M205.25 889.46l25.67 0l0 14.52l-25.67 0Z" id="p99w304" />
<path d="M234.13 889.46l39.03 0l0 14.52l-39.03 0Z" id="p99w305" />
<path d="M276.37 889.46l20.85 0l0 14.52l-20.85 0Z" id="p99w306" />
<path d="M300.43 889.46l42.24 0l0 14.52l-42.24 0Z" id="p99w307" />
<path d="M345.88 889.46l13.9 0l0 14.52l-13.9 0Z" id="p99w308" />
<path d="M362.98 889.46l24.33 0l0 14.52l-24.33 0Z" id="p99w309" />
<path d="M149.26 780.76l32.88 0l0 12.56l-32.88 0Z" id="p99w310" />
<path d="M184.84 780.76l36.55 0l0 12.56l-36.55 0Z" id="p99w311" />
<path d="M62.22 841.22l26.4 0l0 12.29l-26.4 0Z" id="p99w312" />
<path d="M602.03 805.63l55.48 0l0 12.56l-55.48 0Z" id="p99w313" />
<path d="M432.41 822.61l58.22 0l0 15.37l-58.22 0Z" id="p99w314" />
<path d="M494 822.61l24.87 0l0 15.37l-24.87 0Z" id="p99w315" />
<path d="M522.24 822.61l25.47 0l0 15.37l-25.47 0Z" id="p99w316" />
<path d="M551.09 822.61l56.33 0l0 15.37l-56.33 0Z" id="p99w317" />
<path d="M610.79 822.61l56.96 0l0 15.37l-56.96 0Z" id="p99w318" />
<path d="M432.41 843.9l24.06 0l0 14.52l-24.06 0Z" id="p99w319" />
<path d="M459.67 843.9l51.32 0l0 14.52l-51.32 0Z" id="p99w320" />
<path d="M514.2 843.9l42.49 0l0 14.52l-42.49 0Z" id="p99w321" />
<path d="M559.9 843.9l19.24 0l0 14.52l-19.24 0Z" id="p99w322" />
<path d="M582.35 843.9l21.65 0l0 14.52l-21.65 0Z" id="p99w323" />
<path d="M606.85 843.9l35.56 0l0 14.52l-35.56 0Z" id="p99w324" />
<path d="M447.12 868.91l12.83 0l0 14.52l-12.83 0Z" id="p99w325" />
<path d="M463.16 868.91l27.27 0l0 14.52l-27.27 0Z" id="p99w326" />
<path d="M493.64 868.91l55.61 0l0 14.52l-55.61 0Z" id="p99w327" />
<path d="M557.5 868.91l12.83 0l0 14.52l-12.83 0Z" id="p99w328" />
<path d="M573.53 868.91l71.09 0l0 14.52l-71.09 0Z" id="p99w329" />
<path d="M647.83 868.91l14.18 0l0 14.52l-14.18 0Z" id="p99w330" />
<path d="M665.21 868.91l21.65 0l0 14.52l-21.65 0Z" id="p99w331" />
<path d="M448.1 885.58l12.83 0l0 14.52l-12.83 0Z" id="p99w332" />
<path d="M464.14 885.58l41.42 0l0 14.52l-41.42 0Z" id="p99w333" />
<path d="M448.1 902.25l49.39 0l0 14.52l-49.39 0Z" id="p99w334" />
<path d="M500.7 902.25l65.22 0l0 14.52l-65.22 0Z" id="p99w335" />
<path d="M432.41 927.27l43.02 0l0 14.52l-43.02 0Z" id="p99w336" />
<path d="M478.63 927.27l80.2 0l0 14.52l-80.2 0Z" id="p99w337" />
<path d="M562.04 927.27l17.91 0l0 14.52l-17.91 0Z" id="p99w338" />
<path d="M583.15 927.27l28.06 0l0 14.52l-28.06 0Z" id="p99w339" />
<path d="M68.27 39.02l42.02 0l0 15.38l-42.02 0Z" id="p99w340" />
<path d="M152.94 39.02l43.21 0l0 15.38l-43.21 0Z" id="p99w341" />
<path d="M251.4 38.6l45.06 0l0 16.09l-45.06 0Z" id="p99w342" />
<path d="M358.93 39.02l28.68 0l0 15.38l-28.68 0Z" id="p99w343" />
<path d="M390.98 39.02l42.85 0l0 15.38l-42.85 0Z" id="p99w344" />
<path d="M468.42 39.02l32.54 0l0 15.38l-32.54 0Z" id="p99w345" />
<path d="M593.23 983l97.87 0l0 12.23l-97.87 0Z" id="p99w346" />
</svg>
