<?xml version="1.0" encoding="UTF-8"?>
<svg xmlns="http://www.w3.org/2000/svg" xmlns:xlink="http://www.w3.org/1999/xlink" version="1.1" baseProfile="full" width="768" height="1024" viewBox="0,0,768,1024" preserveAspectRatio="xMinYMin meet" >
<style type="text/css">
<![CDATA[
path {fill-opacity: 0.5;fill: #00aeef;visibility: hidden;}
]]>
</style>
<path d="M124.06 114.18l27.8 0l0 14.52l-27.8 0Z" id="p87w1" />
<path d="M155.07 114.18l9.89 0l0 14.52l-9.89 0Z" id="p87w2" />
<path d="M168.16 114.18l33.67 0l0 14.52l-33.67 0Z" id="p87w3" />
<path d="M205.04 114.18l13.9 0l0 14.52l-13.9 0Z" id="p87w4" />
<path d="M222.15 114.18l32.89 0l0 14.52l-32.89 0Z" id="p87w5" />
<path d="M258.25 114.18l6.41 0l0 14.52l-6.41 0Z" id="p87w6" />
<path d="M286.85 114.18l28.06 0l0 14.52l-28.06 0Z" id="p87w7" />
<path d="M318.12 114.18l42.5 0l0 14.52l-42.5 0Z" id="p87w8" />
<path d="M363.83 114.18l17.38 0l0 14.52l-17.38 0Z" id="p87w9" />
<path d="M384.42 114.18l25.92 0l0 14.52l-25.92 0Z" id="p87w10" />
<path d="M413.55 114.18l19.51 0l0 14.52l-19.51 0Z" id="p87w11" />
<path d="M436.26 114.18l21.37 0l0 14.52l-21.37 0Z" id="p87w12" />
<path d="M460.84 114.18l21.4 0l0 14.52l-21.4 0Z" id="p87w13" />
<path d="M485.45 114.18l13.9 0l0 14.52l-13.9 0Z" id="p87w14" />
<path d="M502.55 114.18l37.68 0l0 14.52l-37.68 0Z" id="p87w15" />
<path d="M124.06 130.85l32.89 0l0 14.52l-32.89 0Z" id="p87w16" />
<path d="M160.16 130.85l22.45 0l0 14.52l-22.45 0Z" id="p87w17" />
<path d="M185.82 130.85l16.83 0l0 14.52l-16.83 0Z" id="p87w18" />
<path d="M205.86 130.85l31.01 0l0 14.52l-31.01 0Z" id="p87w19" />
<path d="M240.07 130.85l35.29 0l0 14.52l-35.29 0Z" id="p87w20" />
<path d="M278.57 130.85l13.9 0l0 14.52l-13.9 0Z" id="p87w21" />
<path d="M295.68 130.85l35 0l0 14.52l-35 0Z" id="p87w22" />
<path d="M124.06 147.52l59.34 0l0 14.52l-59.34 0Z" id="p87w23" />
<path d="M186.61 147.52l15.5 0l0 14.52l-15.5 0Z" id="p87w24" />
<path d="M205.32 147.52l43.29 0l0 14.52l-43.29 0Z" id="p87w25" />
<path d="M251.82 147.52l13.63 0l0 14.52l-13.63 0Z" id="p87w26" />
<path d="M268.66 147.45l69.6 0l0 14.6l-69.6 0Z" id="p87w27" />
<path d="M341.47 147.45l42.74 0l0 14.6l-42.74 0Z" id="p87w28" />
<path d="M387.41 147.52l11.22 0l0 14.52l-11.22 0Z" id="p87w29" />
<path d="M401.84 147.52l41.18 0l0 14.52l-41.18 0Z" id="p87w30" />
<path d="M446.23 147.52l56.4 0l0 14.52l-56.4 0Z" id="p87w31" />
<path d="M505.84 147.52l14.18 0l0 14.52l-14.18 0Z" id="p87w32" />
<path d="M523.22 147.52l47.08 0l0 14.52l-47.08 0Z" id="p87w33" />
<path d="M129.62 182.64l33.89 0l0 12.29l-33.89 0Z" id="p87w34" />
<path d="M172.34 180.87l17.11 0l0 14.52l-17.11 0Z" id="p87w35" />
<path d="M192.65 180.87l32.89 0l0 14.52l-32.89 0Z" id="p87w36" />
<path d="M228.75 180.87l11.5 0l0 14.52l-11.5 0Z" id="p87w37" />
<path d="M262.42 180.87l50.54 0l0 14.52l-50.54 0Z" id="p87w38" />
<path d="M316.17 180.87l41.25 0l0 14.52l-41.25 0Z" id="p87w39" />
<path d="M360.62 180.87l25.67 0l0 14.52l-25.67 0Z" id="p87w40" />
<path d="M389.5 180.87l15.5 0l0 14.52l-15.5 0Z" id="p87w41" />
<path d="M408.2 180.87l40.36 0l0 14.52l-40.36 0Z" id="p87w42" />
<path d="M149.31 197.54l13.9 0l0 14.52l-13.9 0Z" id="p87w43" />
<path d="M166.42 197.54l35 0l0 14.52l-35 0Z" id="p87w44" />
<path d="M129.62 215.99l25.79 0l0 12.29l-25.79 0Z" id="p87w45" />
<path d="M164.24 214.22l21.4 0l0 14.52l-21.4 0Z" id="p87w46" />
<path d="M188.84 214.22l24.33 0l0 14.52l-24.33 0Z" id="p87w47" />
<path d="M216.37 214.22l18.47 0l0 14.52l-18.47 0Z" id="p87w48" />
<path d="M249 214.22l11.22 0l0 14.52l-11.22 0Z" id="p87w49" />
<path d="M263.43 214.22l32.35 0l0 14.52l-32.35 0Z" id="p87w50" />
<path d="M298.99 214.22l5.35 0l0 14.52l-5.35 0Z" id="p87w51" />
<path d="M326.5 214.22l50.24 0l0 14.52l-50.24 0Z" id="p87w52" />
<path d="M379.95 214.22l41.71 0l0 14.52l-41.71 0Z" id="p87w53" />
<path d="M424.86 214.22l13.9 0l0 14.52l-13.9 0Z" id="p87w54" />
<path d="M441.97 214.22l25.38 0l0 14.52l-25.38 0Z" id="p87w55" />
<path d="M149.31 230.89l15.5 0l0 14.52l-15.5 0Z" id="p87w56" />
<path d="M168.02 230.89l51.05 0l0 14.52l-51.05 0Z" id="p87w57" />
<path d="M222.28 230.89l22.99 0l0 14.52l-22.99 0Z" id="p87w58" />
<path d="M248.48 230.89l22.45 0l0 14.52l-22.45 0Z" id="p87w59" />
<path d="M274.14 230.89l11.22 0l0 14.52l-11.22 0Z" id="p87w60" />
<path d="M288.57 230.89l9.62 0l0 14.52l-9.62 0Z" id="p87w61" />
<path d="M320.35 230.89l33.94 0l0 14.52l-33.94 0Z" id="p87w62" />
<path d="M357.5 230.89l20.85 0l0 14.52l-20.85 0Z" id="p87w63" />
<path d="M381.56 230.89l23.24 0l0 14.52l-23.24 0Z" id="p87w64" />
<path d="M408.01 230.89l25.4 0l0 14.52l-25.4 0Z" id="p87w65" />
<path d="M436.61 230.89l35.28 0l0 14.52l-35.28 0Z" id="p87w66" />
<path d="M149.32 247.56l23.24 0l0 14.52l-23.24 0Z" id="p87w67" />
<path d="M175.77 247.56l56.68 0l0 14.52l-56.68 0Z" id="p87w68" />
<path d="M235.65 247.56l34.48 0l0 14.52l-34.48 0Z" id="p87w69" />
<path d="M273.34 247.56l11.5 0l0 14.52l-11.5 0Z" id="p87w70" />
<path d="M307 247.56l50.54 0l0 14.52l-50.54 0Z" id="p87w71" />
<path d="M360.74 247.56l17.63 0l0 14.52l-17.63 0Z" id="p87w72" />
<path d="M381.58 247.56l21.65 0l0 14.52l-21.65 0Z" id="p87w73" />
<path d="M406.44 247.56l13.91 0l0 14.52l-13.91 0Z" id="p87w74" />
<path d="M423.56 247.56l11.5 0l0 14.52l-11.5 0Z" id="p87w75" />
<path d="M438.26 247.56l12.29 0l0 14.52l-12.29 0Z" id="p87w76" />
<path d="M453.76 247.56l19.51 0l0 14.52l-19.51 0Z" id="p87w77" />
<path d="M149.32 264.23l61.48 0l0 14.52l-61.48 0Z" id="p87w78" />
<path d="M129.62 282.68l33.89 0l0 12.29l-33.89 0Z" id="p87w79" />
<path d="M172.34 280.91l21.4 0l0 14.52l-21.4 0Z" id="p87w80" />
<path d="M196.94 280.91l24.85 0l0 14.52l-24.85 0Z" id="p87w81" />
<path d="M225 280.91l20.85 0l0 14.52l-20.85 0Z" id="p87w82" />
<path d="M249.07 280.91l35.29 0l0 14.52l-35.29 0Z" id="p87w83" />
<path d="M287.57 280.91l26.46 0l0 14.52l-26.46 0Z" id="p87w84" />
<path d="M317.24 280.91l33.33 0l0 14.52l-33.33 0Z" id="p87w85" />
<path d="M353.78 280.91l20.85 0l0 14.52l-20.85 0Z" id="p87w86" />
<path d="M377.84 280.91l11.5 0l0 14.52l-11.5 0Z" id="p87w87" />
<path d="M392.54 280.91l13.36 0l0 14.52l-13.36 0Z" id="p87w88" />
<path d="M428.07 280.91l60.15 0l0 14.52l-60.15 0Z" id="p87w89" />
<path d="M149.31 297.58l28.06 0l0 14.52l-28.06 0Z" id="p87w90" />
<path d="M180.58 297.58l9.89 0l0 14.52l-9.89 0Z" id="p87w91" />
<path d="M193.67 297.58l29.95 0l0 14.52l-29.95 0Z" id="p87w92" />
<path d="M226.83 297.58l71.3 0l0 14.52l-71.3 0Z" id="p87w93" />
<path d="M309.63 297.58l10.43 0l0 14.52l-10.43 0Z" id="p87w94" />
<path d="M323.26 297.58l19.07 0l0 14.52l-19.07 0Z" id="p87w95" />
<path d="M345.54 297.58l21.65 0l0 14.52l-21.65 0Z" id="p87w96" />
<path d="M370.4 297.58l57.69 0l0 14.52l-57.69 0Z" id="p87w97" />
<path d="M129.62 316.03l25.79 0l0 12.29l-25.79 0Z" id="p87w98" />
<path d="M164.24 314.25l25.13 0l0 14.52l-25.13 0Z" id="p87w99" />
<path d="M192.58 314.25l18.47 0l0 14.52l-18.47 0Z" id="p87w100" />
<path d="M214.25 314.25l11.5 0l0 14.52l-11.5 0Z" id="p87w101" />
<path d="M228.95 314.25l26.74 0l0 14.52l-26.74 0Z" id="p87w102" />
<path d="M277.86 314.25l50.54 0l0 14.52l-50.54 0Z" id="p87w103" />
<path d="M331.61 314.25l28.06 0l0 14.52l-28.06 0Z" id="p87w104" />
<path d="M362.88 314.25l25.38 0l0 14.52l-25.38 0Z" id="p87w105" />
<path d="M391.47 314.25l50.53 0l0 14.52l-50.53 0Z" id="p87w106" />
<path d="M445.2 314.25l51.05 0l0 14.52l-51.05 0Z" id="p87w107" />
<path d="M149.31 330.92l13.9 0l0 14.52l-13.9 0Z" id="p87w108" />
<path d="M166.42 330.92l25.67 0l0 14.52l-25.67 0Z" id="p87w109" />
<path d="M195.3 330.92l42.77 0l0 14.52l-42.77 0Z" id="p87w110" />
<path d="M241.27 330.92l15.25 0l0 14.52l-15.25 0Z" id="p87w111" />
<path d="M259.73 330.92l11.5 0l0 14.52l-11.5 0Z" id="p87w112" />
<path d="M293.39 330.93l16.57 0l0 14.52l-16.57 0Z" id="p87w113" />
<path d="M313.16 330.93l52.37 0l0 14.52l-52.37 0Z" id="p87w114" />
<path d="M368.74 330.93l49.71 0l0 14.52l-49.71 0Z" id="p87w115" />
<path d="M421.66 330.93l24.33 0l0 14.52l-24.33 0Z" id="p87w116" />
<path d="M449.19 330.93l25.67 0l0 14.52l-25.67 0Z" id="p87w117" />
<path d="M149.32 347.6l43.03 0l0 14.52l-43.03 0Z" id="p87w118" />
<path d="M195.55 347.6l13.9 0l0 14.52l-13.9 0Z" id="p87w119" />
<path d="M212.66 347.6l9.89 0l0 14.52l-9.89 0Z" id="p87w120" />
<path d="M225.75 347.6l47.03 0l0 14.52l-47.03 0Z" id="p87w121" />
<path d="M275.99 347.6l58.02 0l0 14.52l-58.02 0Z" id="p87w122" />
<path d="M129.62 366.05l33.89 0l0 12.29l-33.89 0Z" id="p87w123" />
<path d="M172.34 364.27l13.9 0l0 14.52l-13.9 0Z" id="p87w124" />
<path d="M208.41 364.27l30.99 0l0 14.52l-30.99 0Z" id="p87w125" />
<path d="M242.61 364.27l49.71 0l0 14.52l-49.71 0Z" id="p87w126" />
<path d="M295.52 364.27l31.01 0l0 14.52l-31.01 0Z" id="p87w127" />
<path d="M336.69 364.27l31.27 0l0 14.52l-31.27 0Z" id="p87w128" />
<path d="M371.17 364.27l30.21 0l0 14.52l-30.21 0Z" id="p87w129" />
<path d="M124.06 397.61l59.34 0l0 14.52l-59.34 0Z" id="p87w130" />
<path d="M186.62 397.61l15.5 0l0 14.52l-15.5 0Z" id="p87w131" />
<path d="M205.32 397.61l45.97 0l0 14.52l-45.97 0Z" id="p87w132" />
<path d="M254.5 397.61l40.63 0l0 14.52l-40.63 0Z" id="p87w133" />
<path d="M298.33 397.61l9.89 0l0 14.52l-9.89 0Z" id="p87w134" />
<path d="M311.43 397.55l69.6 0l0 14.6l-69.6 0Z" id="p87w135" />
<path d="M384.24 397.61l11.22 0l0 14.52l-11.22 0Z" id="p87w136" />
<path d="M398.66 397.55l58.04 0l0 14.6l-58.04 0Z" id="p87w137" />
<path d="M143.76 422.63l10.16 0l0 14.52l-10.16 0Z" id="p87w138" />
<path d="M157.13 422.63l5.35 0l0 14.52l-5.35 0Z" id="p87w139" />
<path d="M184.64 422.63l36.09 0l0 14.52l-36.09 0Z" id="p87w140" />
<path d="M223.93 422.63l30.46 0l0 14.52l-30.46 0Z" id="p87w141" />
<path d="M257.6 422.63l48.68 0l0 14.52l-48.68 0Z" id="p87w142" />
<path d="M309.49 422.63l9.62 0l0 14.52l-9.62 0Z" id="p87w143" />
<path d="M341.28 422.63l33.94 0l0 14.52l-33.94 0Z" id="p87w144" />
<path d="M378.42 422.63l14.18 0l0 14.52l-14.18 0Z" id="p87w145" />
<path d="M395.81 422.63l39.51 0l0 14.52l-39.51 0Z" id="p87w146" />
<path d="M438.52 422.63l13.63 0l0 14.52l-13.63 0Z" id="p87w147" />
<path d="M455.36 422.63l44.65 0l0 14.52l-44.65 0Z" id="p87w148" />
<path d="M143.75 439.3l10.16 0l0 14.52l-10.16 0Z" id="p87w149" />
<path d="M157.12 439.3l9.62 0l0 14.52l-9.62 0Z" id="p87w150" />
<path d="M188.92 439.3l18.18 0l0 14.52l-18.18 0Z" id="p87w151" />
<path d="M210.3 439.3l19.51 0l0 14.52l-19.51 0Z" id="p87w152" />
<path d="M233.01 439.3l72.17 0l0 14.52l-72.17 0Z" id="p87w153" />
<path d="M308.4 439.3l15.5 0l0 14.52l-15.5 0Z" id="p87w154" />
<path d="M327.1 439.3l65.22 0l0 14.52l-65.22 0Z" id="p87w155" />
<path d="M395.52 439.3l71.38 0l0 14.52l-71.38 0Z" id="p87w156" />
<path d="M470.11 439.3l9.62 0l0 14.52l-9.62 0Z" id="p87w157" />
<path d="M482.94 439.3l15.5 0l0 14.52l-15.5 0Z" id="p87w158" />
<path d="M520.6 439.3l57.21 0l0 14.52l-57.21 0Z" id="p87w159" />
<path d="M143.75 455.97l26.73 0l0 14.52l-26.73 0Z" id="p87w160" />
<path d="M173.69 455.97l14.18 0l0 14.52l-14.18 0Z" id="p87w161" />
<path d="M191.07 455.97l66.56 0l0 14.52l-66.56 0Z" id="p87w162" />
<path d="M260.84 455.97l13.9 0l0 14.52l-13.9 0Z" id="p87w163" />
<path d="M277.95 455.97l30.15 0l0 14.52l-30.15 0Z" id="p87w164" />
<path d="M143.75 472.64l10.16 0l0 14.52l-10.16 0Z" id="p87w165" />
<path d="M157.12 472.64l26.74 0l0 14.52l-26.74 0Z" id="p87w166" />
<path d="M206.03 472.64l44.89 0l0 14.52l-44.89 0Z" id="p87w167" />
<path d="M254.13 472.64l19.79 0l0 14.52l-19.79 0Z" id="p87w168" />
<path d="M277.13 472.64l50.62 0l0 14.52l-50.62 0Z" id="p87w169" />
<path d="M330.95 472.64l13.63 0l0 14.52l-13.63 0Z" id="p87w170" />
<path d="M347.8 472.64l44.65 0l0 14.52l-44.65 0Z" id="p87w171" />
<path d="M395.66 472.64l26.74 0l0 14.52l-26.74 0Z" id="p87w172" />
<path d="M444.56 472.64l45.38 0l0 14.52l-45.38 0Z" id="p87w173" />
<path d="M493.15 472.64l19.51 0l0 14.52l-19.51 0Z" id="p87w174" />
<path d="M515.87 472.64l58.53 0l0 14.52l-58.53 0Z" id="p87w175" />
<path d="M143.75 489.32l14.18 0l0 14.52l-14.18 0Z" id="p87w176" />
<path d="M161.13 489.32l28.07 0l0 14.52l-28.07 0Z" id="p87w177" />
<path d="M143.75 505.99l10.16 0l0 14.52l-10.16 0Z" id="p87w178" />
<path d="M157.12 505.99l25.67 0l0 14.52l-25.67 0Z" id="p87w179" />
<path d="M204.97 505.99l41.42 0l0 14.52l-41.42 0Z" id="p87w180" />
<path d="M249.59 505.99l33.68 0l0 14.52l-33.68 0Z" id="p87w181" />
<path d="M286.48 505.99l46.51 0l0 14.52l-46.51 0Z" id="p87w182" />
<path d="M336.21 505.99l25.67 0l0 14.52l-25.67 0Z" id="p87w183" />
<path d="M384.05 505.99l56.32 0l0 14.52l-56.32 0Z" id="p87w184" />
<path d="M443.57 505.99l19.51 0l0 14.52l-19.51 0Z" id="p87w185" />
<path d="M466.29 505.99l7.48 0l0 14.52l-7.48 0Z" id="p87w186" />
<path d="M473.77 505.99l19.77 0l0 14.52l-19.77 0Z" id="p87w187" />
<path d="M496.75 505.99l43.83 0l0 14.52l-43.83 0Z" id="p87w188" />
<path d="M143.75 522.66l13.9 0l0 14.52l-13.9 0Z" id="p87w189" />
<path d="M160.86 522.66l40.36 0l0 14.52l-40.36 0Z" id="p87w190" />
<path d="M204.43 522.66l51.53 0l0 14.52l-51.53 0Z" id="p87w191" />
<path d="M143.75 539.33l10.16 0l0 14.52l-10.16 0Z" id="p87w192" />
<path d="M157.12 539.33l25.13 0l0 14.52l-25.13 0Z" id="p87w193" />
<path d="M185.46 539.33l26.72 0l0 14.52l-26.72 0Z" id="p87w194" />
<path d="M234.35 539.34l71.87 0l0 14.52l-71.87 0Z" id="p87w195" />
<path d="M309.42 539.34l22.99 0l0 14.52l-22.99 0Z" id="p87w196" />
<path d="M345.51 539.34l50.25 0l0 14.52l-50.25 0Z" id="p87w197" />
<path d="M398.97 539.34l9.62 0l0 14.52l-9.62 0Z" id="p87w198" />
<path d="M411.8 539.34l13.37 0l0 14.52l-13.37 0Z" id="p87w199" />
<path d="M447.33 539.34l36.09 0l0 14.52l-36.09 0Z" id="p87w200" />
<path d="M486.63 539.34l14.18 0l0 14.52l-14.18 0Z" id="p87w201" />
<path d="M504.01 539.34l23.79 0l0 14.52l-23.79 0Z" id="p87w202" />
<path d="M143.75 556.01l17.11 0l0 14.52l-17.11 0Z" id="p87w203" />
<path d="M164.06 556.01l15.5 0l0 14.52l-15.5 0Z" id="p87w204" />
<path d="M182.77 556.01l31.28 0l0 14.52l-31.28 0Z" id="p87w205" />
<path d="M217.26 556.01l13.63 0l0 14.52l-13.63 0Z" id="p87w206" />
<path d="M234.1 556.01l44.65 0l0 14.52l-44.65 0Z" id="p87w207" />
<path d="M124.06 599.83l27.54 0l0 18.84l-27.54 0Z" id="p87w208" />
<path d="M155.26 599.83l37.06 0l0 18.84l-37.06 0Z" id="p87w209" />
<path d="M195.97 599.83l21.46 0l0 18.84l-21.46 0Z" id="p87w210" />
<path d="M221.08 599.83l39.7 0l0 18.84l-39.7 0Z" id="p87w211" />
<path d="M124.06 631.04l50.43 0l0 14.52l-50.43 0Z" id="p87w212" />
<path d="M177.7 631.04l20.85 0l0 14.52l-20.85 0Z" id="p87w213" />
<path d="M201.77 631.04l25.67 0l0 14.52l-25.67 0Z" id="p87w214" />
<path d="M230.65 631.04l27.26 0l0 14.52l-27.26 0Z" id="p87w215" />
<path d="M261.11 631.04l13.9 0l0 14.52l-13.9 0Z" id="p87w216" />
<path d="M278.22 631.04l43.83 0l0 14.52l-43.83 0Z" id="p87w217" />
<path d="M143.75 656.05l15.25 0l0 14.52l-15.25 0Z" id="p87w218" />
<path d="M162.21 656.05l44.63 0l0 14.52l-44.63 0Z" id="p87w219" />
<path d="M210.04 656.05l25.12 0l0 14.52l-25.12 0Z" id="p87w220" />
<path d="M238.37 656.05l17.11 0l0 14.52l-17.11 0Z" id="p87w221" />
<path d="M258.68 656.05l57.75 0l0 14.52l-57.75 0Z" id="p87w222" />
<path d="M319.63 656.05l14.16 0l0 14.52l-14.16 0Z" id="p87w223" />
<path d="M337.01 656.05l53.19 0l0 14.52l-53.19 0Z" id="p87w224" />
<path d="M393.41 656.05l64.7 0l0 14.52l-64.7 0Z" id="p87w225" />
<path d="M461.32 656.05l41.17 0l0 14.52l-41.17 0Z" id="p87w226" />
<path d="M505.69 656.05l12.84 0l0 14.52l-12.84 0Z" id="p87w227" />
<path d="M521.74 656.05l55.32 0l0 14.52l-55.32 0Z" id="p87w228" />
<path d="M580.27 656.05l25.94 0l0 14.52l-25.94 0Z" id="p87w229" />
<path d="M143.76 672.72l31.01 0l0 14.52l-31.01 0Z" id="p87w230" />
<path d="M177.97 672.72l24.85 0l0 14.52l-24.85 0Z" id="p87w231" />
<path d="M206.03 672.72l46.46 0l0 14.52l-46.46 0Z" id="p87w232" />
<path d="M255.7 672.72l29.95 0l0 14.52l-29.95 0Z" id="p87w233" />
<path d="M143.75 689.39l15.25 0l0 14.52l-15.25 0Z" id="p87w234" />
<path d="M162.21 689.39l7.48 0l0 14.52l-7.48 0Z" id="p87w235" />
<path d="M169.69 689.39l33.95 0l0 14.52l-33.95 0Z" id="p87w236" />
<path d="M206.85 689.39l25.12 0l0 14.52l-25.12 0Z" id="p87w237" />
<path d="M235.17 689.39l92.76 0l0 14.52l-92.76 0Z" id="p87w238" />
<path d="M331.14 689.39l50.79 0l0 14.52l-50.79 0Z" id="p87w239" />
<path d="M385.14 689.39l25.94 0l0 14.52l-25.94 0Z" id="p87w240" />
<path d="M143.75 706.06l15.25 0l0 14.52l-15.25 0Z" id="p87w241" />
<path d="M162.21 706.06l41.95 0l0 14.52l-41.95 0Z" id="p87w242" />
<path d="M207.36 706.06l35.81 0l0 14.52l-35.81 0Z" id="p87w243" />
<path d="M246.38 706.06l37.17 0l0 14.52l-37.17 0Z" id="p87w244" />
<path d="M286.76 706.06l25.12 0l0 14.52l-25.12 0Z" id="p87w245" />
<path d="M315.08 706.06l47.29 0l0 14.52l-47.29 0Z" id="p87w246" />
<path d="M365.58 706.06l41.45 0l0 14.52l-41.45 0Z" id="p87w247" />
<path d="M410.23 706.06l35.55 0l0 14.52l-35.55 0Z" id="p87w248" />
<path d="M448.99 706.06l35 0l0 14.52l-35 0Z" id="p87w249" />
<path d="M487.2 706.06l17.65 0l0 14.52l-17.65 0Z" id="p87w250" />
<path d="M508.05 706.06l68.97 0l0 14.52l-68.97 0Z" id="p87w251" />
<path d="M580.23 706.06l52.14 0l0 14.52l-52.14 0Z" id="p87w252" />
<path d="M143.75 722.73l15.25 0l0 14.52l-15.25 0Z" id="p87w253" />
<path d="M162.21 722.73l54.51 0l0 14.52l-54.51 0Z" id="p87w254" />
<path d="M219.93 722.73l25.12 0l0 14.52l-25.12 0Z" id="p87w255" />
<path d="M248.25 722.73l49.18 0l0 14.52l-49.18 0Z" id="p87w256" />
<path d="M300.64 722.73l21.92 0l0 14.52l-21.92 0Z" id="p87w257" />
<path d="M325.77 722.73l15.77 0l0 14.52l-15.77 0Z" id="p87w258" />
<path d="M344.75 722.73l17.11 0l0 14.52l-17.11 0Z" id="p87w259" />
<path d="M365.07 722.73l43.56 0l0 14.52l-43.56 0Z" id="p87w260" />
<path d="M411.83 722.73l65.73 0l0 14.52l-65.73 0Z" id="p87w261" />
<path d="M143.75 739.4l14.7 0l0 14.52l-14.7 0Z" id="p87w262" />
<path d="M161.67 739.4l47.04 0l0 14.52l-47.04 0Z" id="p87w263" />
<path d="M211.92 739.4l45.17 0l0 14.52l-45.17 0Z" id="p87w264" />
<path d="M260.29 739.4l14.18 0l0 14.52l-14.18 0Z" id="p87w265" />
<path d="M277.67 739.4l32.27 0l0 14.52l-32.27 0Z" id="p87w266" />
<path d="M313.15 739.4l23.79 0l0 14.52l-23.79 0Z" id="p87w267" />
<path d="M340.15 739.4l30.94 0l0 14.52l-30.94 0Z" id="p87w268" />
<path d="M374.29 739.4l29.49 0l0 14.52l-29.49 0Z" id="p87w269" />
<path d="M406.99 739.4l47.32 0l0 14.52l-47.32 0Z" id="p87w270" />
<path d="M143.75 756.07l15.25 0l0 14.52l-15.25 0Z" id="p87w271" />
<path d="M162.21 756.07l53.44 0l0 14.52l-53.44 0Z" id="p87w272" />
<path d="M218.86 756.07l31.01 0l0 14.52l-31.01 0Z" id="p87w273" />
<path d="M253.07 756.07l59.36 0l0 14.52l-59.36 0Z" id="p87w274" />
<path d="M315.64 756.07l25.12 0l0 14.52l-25.12 0Z" id="p87w275" />
<path d="M343.96 756.07l15.5 0l0 14.52l-15.5 0Z" id="p87w276" />
<path d="M362.66 756.07l21.92 0l0 14.52l-21.92 0Z" id="p87w277" />
<path d="M387.8 756.07l28.07 0l0 14.52l-28.07 0Z" id="p87w278" />
<path d="M419.08 756.07l17.11 0l0 14.52l-17.11 0Z" id="p87w279" />
<path d="M439.39 756.07l33.62 0l0 14.52l-33.62 0Z" id="p87w280" />
<path d="M476.22 756.07l21.11 0l0 14.52l-21.11 0Z" id="p87w281" />
<path d="M500.53 756.07l67.62 0l0 14.52l-67.62 0Z" id="p87w282" />
<path d="M571.36 756.07l21.66 0l0 14.52l-21.66 0Z" id="p87w283" />
<path d="M143.75 772.74l15.25 0l0 14.52l-15.25 0Z" id="p87w284" />
<path d="M162.21 772.74l27.73 0l0 14.52l-27.73 0Z" id="p87w285" />
<path d="M193.15 772.74l35.55 0l0 14.52l-35.55 0Z" id="p87w286" />
<path d="M231.9 772.74l49.19 0l0 14.52l-49.19 0Z" id="p87w287" />
<path d="M284.3 772.74l21.12 0l0 14.52l-21.12 0Z" id="p87w288" />
<path d="M308.63 772.74l21.38 0l0 14.52l-21.38 0Z" id="p87w289" />
<path d="M333.22 772.74l27.28 0l0 14.52l-27.28 0Z" id="p87w290" />
<path d="M363.71 772.74l37.95 0l0 14.52l-37.95 0Z" id="p87w291" />
<path d="M404.86 772.74l18.7 0l0 14.52l-18.7 0Z" id="p87w292" />
<path d="M426.77 772.74l32.6 0l0 14.52l-32.6 0Z" id="p87w293" />
<path d="M462.58 772.74l38.77 0l0 14.52l-38.77 0Z" id="p87w294" />
<path d="M504.56 772.74l12.84 0l0 14.52l-12.84 0Z" id="p87w295" />
<path d="M520.61 772.74l53.73 0l0 14.52l-53.73 0Z" id="p87w296" />
<path d="M143.75 789.42l15.25 0l0 14.52l-15.25 0Z" id="p87w297" />
<path d="M162.21 789.42l40.89 0l0 14.52l-40.89 0Z" id="p87w298" />
<path d="M206.31 789.42l15.77 0l0 14.52l-15.77 0Z" id="p87w299" />
<path d="M225.29 789.42l32.07 0l0 14.52l-32.07 0Z" id="p87w300" />
<path d="M260.57 789.42l64.08 0l0 14.52l-64.08 0Z" id="p87w301" />
<path d="M327.86 789.42l17.11 0l0 14.52l-17.11 0Z" id="p87w302" />
<path d="M348.17 789.42l18.44 0l0 14.52l-18.44 0Z" id="p87w303" />
<path d="M369.82 789.42l108.54 0l0 14.52l-108.54 0Z" id="p87w304" />
<path d="M481.56 789.42l31.01 0l0 14.52l-31.01 0Z" id="p87w305" />
<path d="M515.78 789.42l59.59 0l0 14.52l-59.59 0Z" id="p87w306" />
<path d="M578.58 789.42l21.92 0l0 14.52l-21.92 0Z" id="p87w307" />
<path d="M143.76 806.09l22.98 0l0 14.52l-22.98 0Z" id="p87w308" />
<path d="M169.94 806.09l14.18 0l0 14.52l-14.18 0Z" id="p87w309" />
<path d="M187.33 806.09l95.18 0l0 14.52l-95.18 0Z" id="p87w310" />
<path d="M285.71 806.09l26.73 0l0 14.52l-26.73 0Z" id="p87w311" />
<path d="M60.68 632.81l27.93 0l0 12.29l-27.93 0Z" id="p87w312" />
<path d="M68.27 39.02l42.71 0l0 15.38l-42.71 0Z" id="p87w313" />
<path d="M152.25 39.02l43.21 0l0 15.38l-43.21 0Z" id="p87w314" />
<path d="M250.71 39.02l43.21 0l0 15.38l-43.21 0Z" id="p87w315" />
<path d="M350.66 38.6l34.29 0l0 16.09l-34.29 0Z" id="p87w316" />
<path d="M527.54 26.71l16.09 0l0 13.93l-16.09 0Z" id="p87w317" />
<path d="M547.18 27.74l48.96 0l0 15.66l-48.96 0Z" id="p87w318" />
<path d="M599.68 30.49l10.89 0l0 13.66l-10.89 0Z" id="p87w319" />
<path d="M614.12 31.25l18.54 0l0 14.06l-18.54 0Z" id="p87w320" />
<path d="M526.67 43.36l75.35 0l0 17.04l-75.35 0Z" id="p87w321" />
<path d="M612.34 47.85l22.77 0l0 14.29l-22.77 0Z" id="p87w322" />
<path d="M525.8 60.01l13.22 0l0 13.78l-13.22 0Z" id="p87w323" />
<path d="M542.57 60.89l12.03 0l0 13.72l-12.03 0Z" id="p87w324" />
<path d="M558.15 61.71l25.27 0l0 14.42l-25.27 0Z" id="p87w325" />
<path d="M610.48 983l80.62 0l0 12.23l-80.62 0Z" id="p87w326" />
</svg>
