<?xml version="1.0" encoding="UTF-8"?>
<svg xmlns="http://www.w3.org/2000/svg" xmlns:xlink="http://www.w3.org/1999/xlink" version="1.1" baseProfile="full" width="768" height="1024" viewBox="0,0,768,1024" preserveAspectRatio="xMinYMin meet" >
<style type="text/css">
<![CDATA[
path {fill-opacity: 0.5;fill: #00aeef;visibility: hidden;}
]]>
</style>
<path d="M124.06 38.6l71 0l0 16.09l-71 0Z" id="p178w1" />
<path d="M78.77 982.27l107.46 0l0 12.23l-107.46 0Z" id="p178w2" />
<path d="M124.06 107.26l89.03 0l0 18.84l-89.03 0Z" id="p178w3" />
<path d="M107.74 159.17l13.4 0l0 14.63l-13.4 0Z" id="p178w4" />
<path d="M107.78 173.05l13.33 0l0 14.63l-13.33 0Z" id="p178w5" />
<path d="M108 200.84l12.9 0l0 14.63l-12.9 0Z" id="p178w6" />
<path d="M108.87 228.63l11.17 0l0 14.63l-11.17 0Z" id="p178w7" />
<path d="M107.73 256.42l13.45 0l0 14.63l-13.45 0Z" id="p178w8" />
<path d="M107.35 270.31l14.2 0l0 14.63l-14.2 0Z" id="p178w9" />
<path d="M107.35 298.1l14.2 0l0 14.63l-14.2 0Z" id="p178w10" />
<path d="M105.53 311.99l17.82 0l0 14.63l-17.82 0Z" id="p178w11" />
<path d="M107.78 339.77l13.33 0l0 14.63l-13.33 0Z" id="p178w12" />
<path d="M107.34 367.56l14.22 0l0 14.63l-14.22 0Z" id="p178w13" />
<path d="M107.71 381.45l13.49 0l0 14.63l-13.49 0Z" id="p178w14" />
<path d="M160.42 161.15l18.38 0l0 12.99l-18.38 0Z" id="p178w15" />
<path d="M181.66 161.15l17.69 0l0 12.99l-17.69 0Z" id="p178w16" />
<path d="M202.22 161.15l17.46 0l0 12.99l-17.46 0Z" id="p178w17" />
<path d="M222.55 161.15l45.44 0l0 12.99l-45.44 0Z" id="p178w18" />
<path d="M132.18 175.04l15.07 0l0 12.99l-15.07 0Z" id="p178w19" />
<path d="M158.49 175.04l28.64 0l0 12.99l-28.64 0Z" id="p178w20" />
<path d="M187.13 174.98l10.12 0l0 13.06l-10.12 0Z" id="p178w21" />
<path d="M202.52 175.04l32.7 0l0 12.99l-32.7 0Z" id="p178w22" />
<path d="M235.22 174.98l11.07 0l0 13.06l-11.07 0Z" id="p178w23" />
<path d="M251.75 175.04l71.69 0l0 12.99l-71.69 0Z" id="p178w24" />
<path d="M132.18 188.93l24.78 0l0 12.99l-24.78 0Z" id="p178w25" />
<path d="M159.82 188.93l17.69 0l0 12.99l-17.69 0Z" id="p178w26" />
<path d="M180.39 188.93l9.33 0l0 12.99l-9.33 0Z" id="p178w27" />
<path d="M192.59 188.9l30.62 0l0 12.99l-30.62 0Z" id="p178w28" />
<path d="M132.18 202.81l5.74 0l0 12.99l-5.74 0Z" id="p178w29" />
<path d="M144.61 202.76l13.17 0l0 13.06l-13.17 0Z" id="p178w30" />
<path d="M163.05 202.81l5.74 0l0 12.99l-5.74 0Z" id="p178w31" />
<path d="M181.46 202.76l10.17 0l0 13.06l-10.17 0Z" id="p178w32" />
<path d="M196.9 202.81l5.74 0l0 12.99l-5.74 0Z" id="p178w33" />
<path d="M205.51 202.76l15.31 0l0 13.06l-15.31 0Z" id="p178w34" />
<path d="M241.86 202.81l14.8 0l0 12.99l-14.8 0Z" id="p178w35" />
<path d="M259.52 202.81l37.07 0l0 12.99l-37.07 0Z" id="p178w36" />
<path d="M132.18 216.7l24.78 0l0 12.99l-24.78 0Z" id="p178w37" />
<path d="M159.82 216.7l17.69 0l0 12.99l-17.69 0Z" id="p178w38" />
<path d="M180.39 216.7l9.33 0l0 12.99l-9.33 0Z" id="p178w39" />
<path d="M192.59 216.68l26.9 0l0 12.99l-26.9 0Z" id="p178w40" />
<path d="M132.18 230.53l5.98 0l0 13.06l-5.98 0Z" id="p178w41" />
<path d="M143.42 230.59l12.68 0l0 12.99l-12.68 0Z" id="p178w42" />
<path d="M159.09 230.59l20.3 0l0 12.99l-20.3 0Z" id="p178w43" />
<path d="M182.26 230.59l70.73 0l0 12.99l-70.73 0Z" id="p178w44" />
<path d="M255.86 230.59l13.86 0l0 12.99l-13.86 0Z" id="p178w45" />
<path d="M272.6 230.59l17.46 0l0 12.99l-17.46 0Z" id="p178w46" />
<path d="M292.92 230.59l45.44 0l0 12.99l-45.44 0Z" id="p178w47" />
<path d="M132.18 244.48l33.73 0l0 12.99l-33.73 0Z" id="p178w48" />
<path d="M168.78 244.48l24.62 0l0 12.99l-24.62 0Z" id="p178w49" />
<path d="M196.27 244.48l44.49 0l0 12.99l-44.49 0Z" id="p178w50" />
<path d="M132.18 258.37l15.79 0l0 12.99l-15.79 0Z" id="p178w51" />
<path d="M154.18 258.37l11.24 0l0 12.99l-11.24 0Z" id="p178w52" />
<path d="M168.29 258.37l8.85 0l0 12.99l-8.85 0Z" id="p178w53" />
<path d="M183.35 258.37l11.68 0l0 12.99l-11.68 0Z" id="p178w54" />
<path d="M197.9 258.37l37.07 0l0 12.99l-37.07 0Z" id="p178w55" />
<path d="M249.08 258.37l36.11 0l0 12.99l-36.11 0Z" id="p178w56" />
<path d="M288.07 258.37l13.86 0l0 12.99l-13.86 0Z" id="p178w57" />
<path d="M304.8 258.37l9.33 0l0 12.99l-9.33 0Z" id="p178w58" />
<path d="M317 258.34l22.96 0l0 12.99l-22.96 0Z" id="p178w59" />
<path d="M138.64 272.2l17.9 0l0 13.06l-17.9 0Z" id="p178w60" />
<path d="M161.81 272.26l30.38 0l0 12.99l-30.38 0Z" id="p178w61" />
<path d="M192.18 272.2l16.46 0l0 13.06l-16.46 0Z" id="p178w62" />
<path d="M214.11 272.26l71.69 0l0 12.99l-71.69 0Z" id="p178w63" />
<path d="M299.91 272.26l24.78 0l0 12.99l-24.78 0Z" id="p178w64" />
<path d="M327.56 272.26l17.69 0l0 12.99l-17.69 0Z" id="p178w65" />
<path d="M132.18 286.15l9.33 0l0 12.99l-9.33 0Z" id="p178w66" />
<path d="M144.38 286.12l23.19 0l0 12.99l-23.19 0Z" id="p178w67" />
<path d="M132.18 300.03l23.21 0l0 12.99l-23.21 0Z" id="p178w68" />
<path d="M166.86 300.03l11.72 0l0 12.99l-11.72 0Z" id="p178w69" />
<path d="M190.26 300.03l71.69 0l0 12.99l-71.69 0Z" id="p178w70" />
<path d="M276.06 300.03l17.69 0l0 12.99l-17.69 0Z" id="p178w71" />
<path d="M296.62 300.03l9.33 0l0 12.99l-9.33 0Z" id="p178w72" />
<path d="M308.82 300.01l23.19 0l0 12.99l-23.19 0Z" id="p178w73" />
<path d="M137.2 313.86l15.9 0l0 13.06l-15.9 0Z" id="p178w74" />
<path d="M167.7 313.86l12.32 0l0 13.06l-12.32 0Z" id="p178w75" />
<path d="M194.86 313.86l12.32 0l0 13.06l-12.32 0Z" id="p178w76" />
<path d="M207.18 313.92l12.64 0l0 12.99l-12.64 0Z" id="p178w77" />
<path d="M222.69 313.92l37.07 0l0 12.99l-37.07 0Z" id="p178w78" />
<path d="M132.18 327.81l15.31 0l0 12.99l-15.31 0Z" id="p178w79" />
<path d="M150.35 327.81l36.6 0l0 12.99l-36.6 0Z" id="p178w80" />
<path d="M189.43 327.81l26.56 0l0 12.99l-26.56 0Z" id="p178w81" />
<path d="M218.86 327.81l24.78 0l0 12.99l-24.78 0Z" id="p178w82" />
<path d="M246.51 327.81l17.69 0l0 12.99l-17.69 0Z" id="p178w83" />
<path d="M267.07 327.81l9.33 0l0 12.99l-9.33 0Z" id="p178w84" />
<path d="M279.27 327.79l28.7 0l0 12.99l-28.7 0Z" id="p178w85" />
<path d="M158.73 341.7l27.71 0l0 12.99l-27.71 0Z" id="p178w86" />
<path d="M189.3 341.7l16.5 0l0 12.99l-16.5 0Z" id="p178w87" />
<path d="M208.67 341.7l21.77 0l0 12.99l-21.77 0Z" id="p178w88" />
<path d="M233.31 341.7l22.18 0l0 12.99l-22.18 0Z" id="p178w89" />
<path d="M258.35 341.7l46.16 0l0 12.99l-46.16 0Z" id="p178w90" />
<path d="M307.39 340.53l17.82 0l0 14.63l-17.82 0Z" id="p178w91" />
<path d="M132.18 355.59l19.14 0l0 12.99l-19.14 0Z" id="p178w92" />
<path d="M154.19 354.42l14.2 0l0 14.63l-14.2 0Z" id="p178w93" />
<path d="M173.65 355.59l28.93 0l0 12.99l-28.93 0Z" id="p178w94" />
<path d="M205.46 355.59l15.31 0l0 12.99l-15.31 0Z" id="p178w95" />
<path d="M223.63 354.42l17.82 0l0 14.63l-17.82 0Z" id="p178w96" />
<path d="M132.18 369.42l12.55 0l0 13.06l-12.55 0Z" id="p178w97" />
<path d="M150.2 369.48l71.69 0l0 12.99l-71.69 0Z" id="p178w98" />
<path d="M236.23 369.48l24.78 0l0 12.99l-24.78 0Z" id="p178w99" />
<path d="M263.88 369.48l17.69 0l0 12.99l-17.69 0Z" id="p178w100" />
<path d="M284.44 369.48l9.33 0l0 12.99l-9.33 0Z" id="p178w101" />
<path d="M296.64 369.45l21.05 0l0 12.99l-21.05 0Z" id="p178w102" />
<path d="M151.91 383.31l12.32 0l0 13.06l-12.32 0Z" id="p178w103" />
<path d="M169.7 383.36l36.36 0l0 12.99l-36.36 0Z" id="p178w104" />
<path d="M208.93 383.36l22.24 0l0 12.99l-22.24 0Z" id="p178w105" />
<path d="M234.04 383.36l51.9 0l0 12.99l-51.9 0Z" id="p178w106" />
<path d="M297.89 383.36l9.33 0l0 12.99l-9.33 0Z" id="p178w107" />
<path d="M310.09 383.34l21.05 0l0 12.99l-21.05 0Z" id="p178w108" />
<path d="M108 477.59l12.9 0l0 14.63l-12.9 0Z" id="p178w109" />
<path d="M107.73 491.48l13.45 0l0 14.63l-13.45 0Z" id="p178w110" />
<path d="M107.34 505.36l14.22 0l0 14.63l-14.22 0Z" id="p178w111" />
<path d="M132.17 479.5l12.8 0l0 13.06l-12.8 0Z" id="p178w112" />
<path d="M147.84 479.56l14.6 0l0 12.99l-14.6 0Z" id="p178w113" />
<path d="M162.44 479.5l12.44 0l0 13.06l-12.44 0Z" id="p178w114" />
<path d="M180.14 479.56l17.95 0l0 12.99l-17.95 0Z" id="p178w115" />
<path d="M198.09 479.5l15.44 0l0 13.06l-15.44 0Z" id="p178w116" />
<path d="M219 479.56l37.3 0l0 12.99l-37.3 0Z" id="p178w117" />
<path d="M259.16 478.39l12.9 0l0 14.63l-12.9 0Z" id="p178w118" />
<path d="M132.17 493.39l12.67 0l0 13.06l-12.67 0Z" id="p178w119" />
<path d="M155.13 493.39l17.1 0l0 13.06l-17.1 0Z" id="p178w120" />
<path d="M184.08 493.39l16.05 0l0 13.06l-16.05 0Z" id="p178w121" />
<path d="M205.59 493.45l37.3 0l0 12.99l-37.3 0Z" id="p178w122" />
<path d="M245.76 492.28l14.2 0l0 14.63l-14.2 0Z" id="p178w123" />
<path d="M138.63 507.28l12.45 0l0 13.06l-12.45 0Z" id="p178w124" />
<path d="M161.37 507.34l8.61 0l0 12.99l-8.61 0Z" id="p178w125" />
<path d="M172.85 507.34l10.52 0l0 12.99l-10.52 0Z" id="p178w126" />
<path d="M183.37 507.28l24.01 0l0 13.06l-24.01 0Z" id="p178w127" />
<path d="M212.85 507.34l37.3 0l0 12.99l-37.3 0Z" id="p178w128" />
<path d="M253.01 506.17l14.22 0l0 14.63l-14.22 0Z" id="p178w129" />
<path d="M100.66 529.31l16.26 0l0 12.99l-16.26 0Z" id="p178w130" />
<path d="M119.8 529.31l59.55 0l0 12.99l-59.55 0Z" id="p178w131" />
<path d="M182.21 529.31l31.33 0l0 12.99l-31.33 0Z" id="p178w132" />
<path d="M216.41 529.31l12.67 0l0 12.99l-12.67 0Z" id="p178w133" />
<path d="M231.95 529.31l52.86 0l0 12.99l-52.86 0Z" id="p178w134" />
<path d="M287.68 529.31l26.78 0l0 12.99l-26.78 0Z" id="p178w135" />
<path d="M100.66 543.2l83.91 0l0 12.99l-83.91 0Z" id="p178w136" />
<path d="M100.66 557.03l43.78 0l0 13.06l-43.78 0Z" id="p178w137" />
<path d="M147.31 557.09l15.08 0l0 12.99l-15.08 0Z" id="p178w138" />
<path d="M165.26 557.09l27.75 0l0 12.99l-27.75 0Z" id="p178w139" />
<path d="M195.89 557.09l32.52 0l0 12.99l-32.52 0Z" id="p178w140" />
<path d="M231.28 555.92l12.9 0l0 14.63l-12.9 0Z" id="p178w141" />
<path d="M247.05 557.09l20.81 0l0 12.99l-20.81 0Z" id="p178w142" />
<path d="M270.73 557.09l22.24 0l0 12.99l-22.24 0Z" id="p178w143" />
<path d="M295.83 557.09l9.33 0l0 12.99l-9.33 0Z" id="p178w144" />
<path d="M100.66 570.98l51.9 0l0 12.99l-51.9 0Z" id="p178w145" />
<path d="M155.44 570.98l23.93 0l0 12.99l-23.93 0Z" id="p178w146" />
<path d="M182.23 569.81l17.82 0l0 14.63l-17.82 0Z" id="p178w147" />
<path d="M211.53 570.98l37.3 0l0 12.99l-37.3 0Z" id="p178w148" />
<path d="M251.7 569.81l17.82 0l0 14.63l-17.82 0Z" id="p178w149" />
<path d="M411.16 477.72l10.66 0l0 14.63l-10.66 0Z" id="p178w150" />
<path d="M408.48 491.61l16.01 0l0 14.63l-16.01 0Z" id="p178w151" />
<path d="M409.25 519.4l14.49 0l0 14.63l-14.49 0Z" id="p178w152" />
<path d="M434.21 479.73l26.78 0l0 12.99l-26.78 0Z" id="p178w153" />
<path d="M463.99 479.73l12.25 0l0 12.99l-12.25 0Z" id="p178w154" />
<path d="M479.1 479.73l39.46 0l0 12.99l-39.46 0Z" id="p178w155" />
<path d="M521.43 479.73l13.86 0l0 12.99l-13.86 0Z" id="p178w156" />
<path d="M538.16 479.73l17.46 0l0 12.99l-17.46 0Z" id="p178w157" />
<path d="M558.49 479.73l45.44 0l0 12.99l-45.44 0Z" id="p178w158" />
<path d="M612.31 479.73l9.33 0l0 12.99l-9.33 0Z" id="p178w159" />
<path d="M624.51 479.7l8.86 0l0 12.99l-8.86 0Z" id="p178w160" />
<path d="M434.21 493.56l12.55 0l0 13.06l-12.55 0Z" id="p178w161" />
<path d="M458.97 493.56l9.2 0l0 13.06l-9.2 0Z" id="p178w162" />
<path d="M473.63 493.61l6.7 0l0 12.99l-6.7 0Z" id="p178w163" />
<path d="M480.33 493.61l41.32 0l0 12.99l-41.32 0Z" id="p178w164" />
<path d="M524.52 492.45l14.22 0l0 14.63l-14.22 0Z" id="p178w165" />
<path d="M538.74 493.61l27.43 0l0 12.99l-27.43 0Z" id="p178w166" />
<path d="M569.05 493.61l33.19 0l0 12.99l-33.19 0Z" id="p178w167" />
<path d="M605.1 493.61l21.29 0l0 12.99l-21.29 0Z" id="p178w168" />
<path d="M629.27 493.61l50.65 0l0 12.99l-50.65 0Z" id="p178w169" />
<path d="M434.21 507.5l28.96 0l0 12.99l-28.96 0Z" id="p178w170" />
<path d="M439.48 521.33l9.33 0l0 13.06l-9.33 0Z" id="p178w171" />
<path d="M448.81 521.39l22.72 0l0 12.99l-22.72 0Z" id="p178w172" />
<path d="M474.4 521.39l8.61 0l0 12.99l-8.61 0Z" id="p178w173" />
<path d="M490.9 521.33l9.33 0l0 13.06l-9.33 0Z" id="p178w174" />
<path d="M516.98 521.33l9.33 0l0 13.06l-9.33 0Z" id="p178w175" />
<path d="M535.84 521.39l6.7 0l0 12.99l-6.7 0Z" id="p178w176" />
<path d="M542.53 521.39l41.32 0l0 12.99l-41.32 0Z" id="p178w177" />
<path d="M586.73 520.22l13.49 0l0 14.63l-13.49 0Z" id="p178w178" />
<path d="M600.21 521.39l27.43 0l0 12.99l-27.43 0Z" id="p178w179" />
<path d="M630.52 521.39l33.19 0l0 12.99l-33.19 0Z" id="p178w180" />
<path d="M666.57 521.39l21.29 0l0 12.99l-21.29 0Z" id="p178w181" />
<path d="M434.21 535.28l50.65 0l0 12.99l-50.65 0Z" id="p178w182" />
<path d="M487.35 535.28l28.96 0l0 12.99l-28.96 0Z" id="p178w183" />
<path d="M410.75 159.17l11.48 0l0 14.63l-11.48 0Z" id="p178w184" />
<path d="M409.83 173.05l13.31 0l0 14.63l-13.31 0Z" id="p178w185" />
<path d="M410.39 186.94l12.19 0l0 14.63l-12.19 0Z" id="p178w186" />
<path d="M409.88 214.73l13.2 0l0 14.63l-13.2 0Z" id="p178w187" />
<path d="M410.11 256.41l12.74 0l0 14.63l-12.74 0Z" id="p178w188" />
<path d="M410.75 270.3l11.47 0l0 14.63l-11.47 0Z" id="p178w189" />
<path d="M409.3 284.18l14.37 0l0 14.63l-14.37 0Z" id="p178w190" />
<path d="M409.36 298.07l14.25 0l0 14.63l-14.25 0Z" id="p178w191" />
<path d="M409.67 325.86l13.65 0l0 14.63l-13.65 0Z" id="p178w192" />
<path d="M438.15 161.14l22.68 0l0 12.99l-22.68 0Z" id="p178w193" />
<path d="M463.7 161.14l17.69 0l0 12.99l-17.69 0Z" id="p178w194" />
<path d="M484.26 161.14l17.46 0l0 12.99l-17.46 0Z" id="p178w195" />
<path d="M504.58 161.14l45.44 0l0 12.99l-45.44 0Z" id="p178w196" />
<path d="M561.07 161.14l9.33 0l0 12.99l-9.33 0Z" id="p178w197" />
<path d="M573.27 161.11l31.33 0l0 12.99l-31.33 0Z" id="p178w198" />
<path d="M434.22 175.03l12.44 0l0 12.99l-12.44 0Z" id="p178w199" />
<path d="M452.02 175.03l19.1 0l0 12.99l-19.1 0Z" id="p178w200" />
<path d="M473.98 175.03l17.69 0l0 12.99l-17.69 0Z" id="p178w201" />
<path d="M494.54 175.03l17.46 0l0 12.99l-17.46 0Z" id="p178w202" />
<path d="M514.87 175.03l45.44 0l0 12.99l-45.44 0Z" id="p178w203" />
<path d="M574.44 175.03l9.33 0l0 12.99l-9.33 0Z" id="p178w204" />
<path d="M586.64 175l36.76 0l0 12.99l-36.76 0Z" id="p178w205" />
<path d="M439.36 188.91l21.55 0l0 12.99l-21.55 0Z" id="p178w206" />
<path d="M468.68 188.91l19.13 0l0 12.99l-19.13 0Z" id="p178w207" />
<path d="M506.83 188.91l10.04 0l0 12.99l-10.04 0Z" id="p178w208" />
<path d="M522 188.91l15.32 0l0 12.99l-15.32 0Z" id="p178w209" />
<path d="M540.19 188.91l27.74 0l0 12.99l-27.74 0Z" id="p178w210" />
<path d="M572.12 188.91l18.15 0l0 12.99l-18.15 0Z" id="p178w211" />
<path d="M593.14 188.91l56.66 0l0 12.99l-56.66 0Z" id="p178w212" />
<path d="M434.22 202.8l17.69 0l0 12.99l-17.69 0Z" id="p178w213" />
<path d="M454.78 202.8l9.33 0l0 12.99l-9.33 0Z" id="p178w214" />
<path d="M466.98 202.78l16.5 0l0 12.99l-16.5 0Z" id="p178w215" />
<path d="M488.95 202.8l13.86 0l0 12.99l-13.86 0Z" id="p178w216" />
<path d="M505.68 202.8l32.52 0l0 12.99l-32.52 0Z" id="p178w217" />
<path d="M541.08 202.8l15.79 0l0 12.99l-15.79 0Z" id="p178w218" />
<path d="M559.35 202.8l26.56 0l0 12.99l-26.56 0Z" id="p178w219" />
<path d="M588.78 202.8l11.95 0l0 12.99l-11.95 0Z" id="p178w220" />
<path d="M611.49 202.8l32.51 0l0 12.99l-32.51 0Z" id="p178w221" />
<path d="M646.87 202.8l48.07 0l0 12.99l-48.07 0Z" id="p178w222" />
<path d="M434.22 216.69l22.72 0l0 12.99l-22.72 0Z" id="p178w223" />
<path d="M473.32 216.69l18.65 0l0 12.99l-18.65 0Z" id="p178w224" />
<path d="M497.11 216.69l15.08 0l0 12.99l-15.08 0Z" id="p178w225" />
<path d="M515.06 216.69l5.74 0l0 12.99l-5.74 0Z" id="p178w226" />
<path d="M528.8 216.69l41.37 0l0 12.99l-41.37 0Z" id="p178w227" />
<path d="M578.13 216.69l18.62 0l0 12.99l-18.62 0Z" id="p178w228" />
<path d="M434.22 230.58l62.88 0l0 12.99l-62.88 0Z" id="p178w229" />
<path d="M510.25 230.58l17.69 0l0 12.99l-17.69 0Z" id="p178w230" />
<path d="M530.81 230.58l9.33 0l0 12.99l-9.33 0Z" id="p178w231" />
<path d="M543.01 230.56l19.6 0l0 12.99l-19.6 0Z" id="p178w232" />
<path d="M434.22 244.47l46.16 0l0 12.99l-46.16 0Z" id="p178w233" />
<path d="M483.25 244.47l22.96 0l0 12.99l-22.96 0Z" id="p178w234" />
<path d="M508.69 244.47l39 0l0 12.99l-39 0Z" id="p178w235" />
<path d="M550.56 244.47l11.95 0l0 12.99l-11.95 0Z" id="p178w236" />
<path d="M573.27 244.47l54.28 0l0 12.99l-54.28 0Z" id="p178w237" />
<path d="M448.45 258.36l19.14 0l0 12.99l-19.14 0Z" id="p178w238" />
<path d="M470.58 258.36l17.73 0l0 12.99l-17.73 0Z" id="p178w239" />
<path d="M491.18 258.3l27.65 0l0 13.06l-27.65 0Z" id="p178w240" />
<path d="M524.29 258.36l17.69 0l0 12.99l-17.69 0Z" id="p178w241" />
<path d="M550.36 258.36l9.33 0l0 12.99l-9.33 0Z" id="p178w242" />
<path d="M562.56 258.33l46.47 0l0 12.99l-46.47 0Z" id="p178w243" />
<path d="M434.22 272.25l8.61 0l0 12.99l-8.61 0Z" id="p178w244" />
<path d="M445.7 272.19l11.36 0l0 13.06l-11.36 0Z" id="p178w245" />
<path d="M457.06 272.25l10.04 0l0 12.99l-10.04 0Z" id="p178w246" />
<path d="M467.1 272.19l11.36 0l0 13.06l-11.36 0Z" id="p178w247" />
<path d="M489.9 272.25l56.66 0l0 12.99l-56.66 0Z" id="p178w248" />
<path d="M549.44 272.22l16.5 0l0 12.99l-16.5 0Z" id="p178w249" />
<path d="M571.2 272.25l17.69 0l0 12.99l-17.69 0Z" id="p178w250" />
<path d="M591.76 272.25l9.33 0l0 12.99l-9.33 0Z" id="p178w251" />
<path d="M603.96 272.22l28.93 0l0 12.99l-28.93 0Z" id="p178w252" />
<path d="M434.22 286.13l32.52 0l0 12.99l-32.52 0Z" id="p178w253" />
<path d="M466.74 286.07l12.71 0l0 13.06l-12.71 0Z" id="p178w254" />
<path d="M490.89 286.13l24.78 0l0 12.99l-24.78 0Z" id="p178w255" />
<path d="M518.54 286.13l17.69 0l0 12.99l-17.69 0Z" id="p178w256" />
<path d="M539.1 286.13l9.33 0l0 12.99l-9.33 0Z" id="p178w257" />
<path d="M551.3 286.11l36.61 0l0 12.99l-36.61 0Z" id="p178w258" />
<path d="M434.22 300.02l9.33 0l0 12.99l-9.33 0Z" id="p178w259" />
<path d="M446.18 300.02l40.65 0l0 12.99l-40.65 0Z" id="p178w260" />
<path d="M489.7 300.02l17.22 0l0 12.99l-17.22 0Z" id="p178w261" />
<path d="M509.79 300.02l22.24 0l0 12.99l-22.24 0Z" id="p178w262" />
<path d="M534.9 300.02l56.4 0l0 12.99l-56.4 0Z" id="p178w263" />
<path d="M455.81 313.91l9.33 0l0 12.99l-9.33 0Z" id="p178w264" />
<path d="M465.14 313.85l12.71 0l0 13.06l-12.71 0Z" id="p178w265" />
<path d="M477.84 313.91l28.82 0l0 12.99l-28.82 0Z" id="p178w266" />
<path d="M438.36 327.8l40.89 0l0 12.99l-40.89 0Z" id="p178w267" />
<path d="M482.12 327.8l99.23 0l0 12.99l-99.23 0Z" id="p178w268" />
<path d="M584.22 327.8l22 0l0 12.99l-22 0Z" id="p178w269" />
<path d="M609.09 327.8l23.93 0l0 12.99l-23.93 0Z" id="p178w270" />
<path d="M434.22 341.69l15.78 0l0 12.99l-15.78 0Z" id="p178w271" />
<path d="M452.63 341.69l48.79 0l0 12.99l-48.79 0Z" id="p178w272" />
<path d="M504.29 341.69l19.14 0l0 12.99l-19.14 0Z" id="p178w273" />
<path d="M526.3 341.69l15.79 0l0 12.99l-15.79 0Z" id="p178w274" />
<path d="M544.96 341.69l65.63 0l0 12.99l-65.63 0Z" id="p178w275" />
<path d="M613.46 341.69l40.19 0l0 12.99l-40.19 0Z" id="p178w276" />
<path d="M434.22 355.58l77.69 0l0 12.99l-77.69 0Z" id="p178w277" />
<path d="M402.71 381.72l16.26 0l0 12.99l-16.26 0Z" id="p178w278" />
<path d="M421.84 381.72l25.12 0l0 12.99l-25.12 0Z" id="p178w279" />
<path d="M449.83 381.72l54.2 0l0 12.99l-54.2 0Z" id="p178w280" />
<path d="M506.9 381.72l65.63 0l0 12.99l-65.63 0Z" id="p178w281" />
<path d="M575.4 381.72l20.81 0l0 12.99l-20.81 0Z" id="p178w282" />
<path d="M599.07 381.72l18.9 0l0 12.99l-18.9 0Z" id="p178w283" />
<path d="M620.84 381.72l51.9 0l0 12.99l-51.9 0Z" id="p178w284" />
<path d="M402.71 395.61l21.52 0l0 12.99l-21.52 0Z" id="p178w285" />
<path d="M427.1 395.61l38.76 0l0 12.99l-38.76 0Z" id="p178w286" />
<path d="M468.73 395.61l16.03 0l0 12.99l-16.03 0Z" id="p178w287" />
<path d="M487.62 394.44l17.8 0l0 14.63l-17.8 0Z" id="p178w288" />
<path d="M508.37 394.44l17.53 0l0 14.63l-17.53 0Z" id="p178w289" />
<path d="M528.85 394.44l15.23 0l0 14.63l-15.23 0Z" id="p178w290" />
<path d="M547.04 394.44l17.82 0l0 14.63l-17.82 0Z" id="p178w291" />
<path d="M567.81 394.44l17.46 0l0 14.63l-17.46 0Z" id="p178w292" />
<path d="M588.22 394.44l13.37 0l0 14.63l-13.37 0Z" id="p178w293" />
<path d="M604.54 395.61l11.95 0l0 12.99l-11.95 0Z" id="p178w294" />
<path d="M619.36 395.61l33.02 0l0 12.99l-33.02 0Z" id="p178w295" />
<path d="M655.25 395.61l32.29 0l0 12.99l-32.29 0Z" id="p178w296" />
<path d="M402.71 409.5l11.49 0l0 12.99l-11.49 0Z" id="p178w297" />
<path d="M417.07 409.5l36.6 0l0 12.99l-36.6 0Z" id="p178w298" />
<path d="M456.54 409.5l22.47 0l0 12.99l-22.47 0Z" id="p178w299" />
<path d="M481.88 409.5l13.86 0l0 12.99l-13.86 0Z" id="p178w300" />
<path d="M498.62 409.5l25.12 0l0 12.99l-25.12 0Z" id="p178w301" />
<path d="M526.61 409.5l58.48 0l0 12.99l-58.48 0Z" id="p178w302" />
<path d="M587.49 409.5l58.07 0l0 12.99l-58.07 0Z" id="p178w303" />
<path d="M648.43 409.5l39.94 0l0 12.99l-39.94 0Z" id="p178w304" />
<path d="M101.42 140.25l39.22 0l0 15.37l-39.22 0Z" id="p178w305" />
<path d="M402.96 140.25l78.04 0l0 15.37l-78.04 0Z" id="p178w306" />
<path d="M100.43 458.42l70.97 0l0 15.37l-70.97 0Z" id="p178w307" />
<path d="M403.19 458.42l104.19 0l0 15.37l-104.19 0Z" id="p178w308" />
<path d="M126.26 648.23l13.4 0l0 14.63l-13.4 0Z" id="p178w309" />
<path d="M191.24 648.23l19.7 0l0 14.63l-19.7 0Z" id="p178w310" />
<path d="M252.28 648.23l18.19 0l0 14.63l-18.19 0Z" id="p178w311" />
<path d="M317.26 648.23l16.18 0l0 14.63l-16.18 0Z" id="p178w312" />
<path d="M382.24 648.23l22.8 0l0 14.63l-22.8 0Z" id="p178w313" />
<path d="M447.22 648.23l19.76 0l0 14.63l-19.76 0Z" id="p178w314" />
<path d="M512.19 648.23l17.2 0l0 14.63l-17.2 0Z" id="p178w315" />
<path d="M573.24 648.23l18.64 0l0 14.63l-18.64 0Z" id="p178w316" />
<path d="M661.85 648.23l33.35 0l0 14.63l-33.35 0Z" id="p178w317" />
<path d="M126.21 671.87l19.5 0l0 14.63l-19.5 0Z" id="p178w318" />
<path d="M191.19 671.87l13.33 0l0 14.63l-13.33 0Z" id="p178w319" />
<path d="M252.23 671.87l16.71 0l0 14.63l-16.71 0Z" id="p178w320" />
<path d="M317.21 671.87l19.29 0l0 14.63l-19.29 0Z" id="p178w321" />
<path d="M382.19 671.87l19.47 0l0 14.63l-19.47 0Z" id="p178w322" />
<path d="M447.17 671.87l19.42 0l0 14.63l-19.42 0Z" id="p178w323" />
<path d="M512.15 671.87l16.92 0l0 14.63l-16.92 0Z" id="p178w324" />
<path d="M573.19 671.87l46.02 0l0 14.63l-46.02 0Z" id="p178w325" />
<path d="M661.8 671.87l24.51 0l0 14.63l-24.51 0Z" id="p178w326" />
<path d="M126.16 695.5l17.76 0l0 14.63l-17.76 0Z" id="p178w327" />
<path d="M191.14 695.5l16.49 0l0 14.63l-16.49 0Z" id="p178w328" />
<path d="M252.19 695.5l11.17 0l0 14.63l-11.17 0Z" id="p178w329" />
<path d="M317.17 695.5l16.1 0l0 14.63l-16.1 0Z" id="p178w330" />
<path d="M382.14 695.5l14.2 0l0 14.63l-14.2 0Z" id="p178w331" />
<path d="M447.12 695.5l18.66 0l0 14.63l-18.66 0Z" id="p178w332" />
<path d="M512.1 695.5l13.49 0l0 14.63l-13.49 0Z" id="p178w333" />
<path d="M573.15 695.5l21.4 0l0 14.63l-21.4 0Z" id="p178w334" />
<path d="M104.24 723.24l22.72 0l0 12.99l-22.72 0Z" id="p178w335" />
<path d="M129.84 723.24l33.48 0l0 12.99l-33.48 0Z" id="p178w336" />
<path d="M166.19 723.24l12.68 0l0 12.99l-12.68 0Z" id="p178w337" />
<path d="M181.74 723.24l16.03 0l0 12.99l-16.03 0Z" id="p178w338" />
<path d="M200.64 723.24l57.89 0l0 12.99l-57.89 0Z" id="p178w339" />
<path d="M261.4 723.24l74.63 0l0 12.99l-74.63 0Z" id="p178w340" />
<path d="M338.51 723.24l39 0l0 12.99l-39 0Z" id="p178w341" />
<path d="M380.37 723.24l11 0l0 12.99l-11 0Z" id="p178w342" />
<path d="M394.24 723.24l18.65 0l0 12.99l-18.65 0Z" id="p178w343" />
<path d="M415.75 723.24l16.73 0l0 12.99l-16.73 0Z" id="p178w344" />
<path d="M435.36 723.24l37.54 0l0 12.99l-37.54 0Z" id="p178w345" />
<path d="M475.77 723.24l39.22 0l0 12.99l-39.22 0Z" id="p178w346" />
<path d="M128.33 750.24l8.85 0l0 12.99l-8.85 0Z" id="p178w347" />
<path d="M140.05 750.24l26.08 0l0 12.99l-26.08 0Z" id="p178w348" />
<path d="M128.33 764.13l8.85 0l0 12.99l-8.85 0Z" id="p178w349" />
<path d="M140.05 764.13l26.08 0l0 12.99l-26.08 0Z" id="p178w350" />
<path d="M168.99 764.13l74.24 0l0 12.99l-74.24 0Z" id="p178w351" />
<path d="M128.33 778.02l8.85 0l0 12.99l-8.85 0Z" id="p178w352" />
<path d="M140.05 778.02l26.08 0l0 12.99l-26.08 0Z" id="p178w353" />
<path d="M168.99 778.02l69.04 0l0 12.99l-69.04 0Z" id="p178w354" />
<path d="M278 750.23l16.5 0l0 12.99l-16.5 0Z" id="p178w355" />
<path d="M297.36 750.23l28.47 0l0 12.99l-28.47 0Z" id="p178w356" />
<path d="M278 764.12l17.46 0l0 12.99l-17.46 0Z" id="p178w357" />
<path d="M298.32 764.12l65.96 0l0 12.99l-65.96 0Z" id="p178w358" />
<path d="M278 778.01l17.46 0l0 12.99l-17.46 0Z" id="p178w359" />
<path d="M298.32 778.01l76.54 0l0 12.99l-76.54 0Z" id="p178w360" />
<path d="M434.03 750.21l8.85 0l0 12.99l-8.85 0Z" id="p178w361" />
<path d="M445.74 750.21l33.75 0l0 12.99l-33.75 0Z" id="p178w362" />
<path d="M434.03 764.1l13.86 0l0 12.99l-13.86 0Z" id="p178w363" />
<path d="M450.76 764.1l23.93 0l0 12.99l-23.93 0Z" id="p178w364" />
<path d="M477.56 764.1l31.1 0l0 12.99l-31.1 0Z" id="p178w365" />
<path d="M434.03 777.99l13.86 0l0 12.99l-13.86 0Z" id="p178w366" />
<path d="M450.76 777.99l52.07 0l0 12.99l-52.07 0Z" id="p178w367" />
<path d="M505.7 776.82l42.94 0l0 14.63l-42.94 0Z" id="p178w368" />
<path d="M567.94 750.2l17.46 0l0 12.99l-17.46 0Z" id="p178w369" />
<path d="M588.27 750.2l38.11 0l0 12.99l-38.11 0Z" id="p178w370" />
<path d="M567.94 764.08l16.5 0l0 12.99l-16.5 0Z" id="p178w371" />
<path d="M587.31 764.08l64.12 0l0 12.99l-64.12 0Z" id="p178w372" />
<path d="M567.94 777.97l15.31 0l0 12.99l-15.31 0Z" id="p178w373" />
<path d="M586.12 777.97l96.35 0l0 12.99l-96.35 0Z" id="p178w374" />
<path d="M102.44 812.87l16.46 0l0 13.06l-16.46 0Z" id="p178w375" />
<path d="M121.39 812.87l40.19 0l0 13.06l-40.19 0Z" id="p178w376" />
<path d="M106.59 826.82l12.2 0l0 12.99l-12.2 0Z" id="p178w377" />
<path d="M107.99 840.71l33.97 0l0 12.99l-33.97 0Z" id="p178w378" />
<path d="M102.44 854.6l22.66 0l0 12.99l-22.66 0Z" id="p178w379" />
<path d="M125.11 854.54l19.66 0l0 13.06l-19.66 0Z" id="p178w380" />
<path d="M144.77 854.6l16.01 0l0 12.99l-16.01 0Z" id="p178w381" />
<path d="M102.44 868.43l11.89 0l0 13.06l-11.89 0Z" id="p178w382" />
<path d="M114.33 868.48l31.08 0l0 12.99l-31.08 0Z" id="p178w383" />
<path d="M191.03 812.92l28.93 0l0 12.99l-28.93 0Z" id="p178w384" />
<path d="M191.03 826.81l28.93 0l0 12.99l-28.93 0Z" id="p178w385" />
<path d="M191.03 840.7l28.93 0l0 12.99l-28.93 0Z" id="p178w386" />
<path d="M191.03 854.58l28.93 0l0 12.99l-28.93 0Z" id="p178w387" />
<path d="M191.03 868.47l28.93 0l0 12.99l-28.93 0Z" id="p178w388" />
<path d="M242.22 812.82l12.44 0l0 13.06l-12.44 0Z" id="p178w389" />
<path d="M257.53 812.82l24.34 0l0 13.06l-24.34 0Z" id="p178w390" />
<path d="M284.74 812.82l28.15 0l0 13.06l-28.15 0Z" id="p178w391" />
<path d="M242.22 826.77l22.72 0l0 12.99l-22.72 0Z" id="p178w392" />
<path d="M267.82 826.71l18.78 0l0 13.06l-18.78 0Z" id="p178w393" />
<path d="M289.46 826.71l53.75 0l0 13.06l-53.75 0Z" id="p178w394" />
<path d="M242.22 840.66l22.72 0l0 12.99l-22.72 0Z" id="p178w395" />
<path d="M267.82 840.6l18.78 0l0 13.06l-18.78 0Z" id="p178w396" />
<path d="M289.46 840.6l53.27 0l0 13.06l-53.27 0Z" id="p178w397" />
<path d="M242.22 854.55l22.72 0l0 12.99l-22.72 0Z" id="p178w398" />
<path d="M267.82 854.49l12.8 0l0 13.06l-12.8 0Z" id="p178w399" />
<path d="M283.49 854.49l21.51 0l0 13.06l-21.51 0Z" id="p178w400" />
<path d="M307.86 854.49l40.35 0l0 13.06l-40.35 0Z" id="p178w401" />
<path d="M242.22 868.44l22.72 0l0 12.99l-22.72 0Z" id="p178w402" />
<path d="M267.82 868.38l62.07 0l0 13.06l-62.07 0Z" id="p178w403" />
<path d="M408.5 812.81l8.29 0l0 13.06l-8.29 0Z" id="p178w404" />
<path d="M416.79 812.87l18.41 0l0 12.99l-18.41 0Z" id="p178w405" />
<path d="M402.52 826.76l15.07 0l0 12.99l-15.07 0Z" id="p178w406" />
<path d="M402.52 840.65l8.13 0l0 12.99l-8.13 0Z" id="p178w407" />
<path d="M402.52 854.54l11.72 0l0 12.99l-11.72 0Z" id="p178w408" />
<path d="M461.59 812.85l28.93 0l0 12.99l-28.93 0Z" id="p178w409" />
<path d="M461.59 826.74l28.93 0l0 12.99l-28.93 0Z" id="p178w410" />
<path d="M461.59 840.62l28.93 0l0 12.99l-28.93 0Z" id="p178w411" />
<path d="M461.59 854.51l28.93 0l0 12.99l-28.93 0Z" id="p178w412" />
<path d="M461.59 868.4l28.93 0l0 12.99l-28.93 0Z" id="p178w413" />
<path d="M512.79 812.82l22.72 0l0 12.99l-22.72 0Z" id="p178w414" />
<path d="M538.38 812.77l24.34 0l0 13.06l-24.34 0Z" id="p178w415" />
<path d="M565.59 812.77l9.51 0l0 13.06l-9.51 0Z" id="p178w416" />
<path d="M512.79 826.71l22.72 0l0 12.99l-22.72 0Z" id="p178w417" />
<path d="M538.38 826.65l10.56 0l0 13.06l-10.56 0Z" id="p178w418" />
<path d="M551.81 826.65l32.42 0l0 13.06l-32.42 0Z" id="p178w419" />
<path d="M587.1 826.65l21.56 0l0 13.06l-21.56 0Z" id="p178w420" />
<path d="M512.79 840.6l22.72 0l0 12.99l-22.72 0Z" id="p178w421" />
<path d="M538.38 840.54l10.56 0l0 13.06l-10.56 0Z" id="p178w422" />
<path d="M551.81 840.54l32.42 0l0 13.06l-32.42 0Z" id="p178w423" />
<path d="M587.1 840.54l27.72 0l0 13.06l-27.72 0Z" id="p178w424" />
<path d="M512.79 854.49l22.72 0l0 12.99l-22.72 0Z" id="p178w425" />
<path d="M538.38 854.43l10.79 0l0 13.06l-10.79 0Z" id="p178w426" />
<path d="M552.05 854.43l32.42 0l0 13.06l-32.42 0Z" id="p178w427" />
<path d="M587.33 854.43l53.98 0l0 13.06l-53.98 0Z" id="p178w428" />
<path d="M512.79 868.38l22.72 0l0 12.99l-22.72 0Z" id="p178w429" />
<path d="M538.38 868.32l9.96 0l0 13.06l-9.96 0Z" id="p178w430" />
<path d="M551.21 868.32l32.25 0l0 13.06l-32.25 0Z" id="p178w431" />
<path d="M102.43 890.6l20.34 0l0 12.99l-20.34 0Z" id="p178w432" />
<path d="M125.64 890.6l33.48 0l0 12.99l-33.48 0Z" id="p178w433" />
<path d="M161.99 890.6l12.68 0l0 12.99l-12.68 0Z" id="p178w434" />
<path d="M177.54 890.6l16.03 0l0 12.99l-16.03 0Z" id="p178w435" />
<path d="M196.44 890.6l57.89 0l0 12.99l-57.89 0Z" id="p178w436" />
<path d="M257.2 890.6l32.23 0l0 12.99l-32.23 0Z" id="p178w437" />
<path d="M292.3 890.6l17.69 0l0 12.99l-17.69 0Z" id="p178w438" />
<path d="M312.86 890.6l15.31 0l0 12.99l-15.31 0Z" id="p178w439" />
<path d="M330.8 890.6l23.92 0l0 12.99l-23.92 0Z" id="p178w440" />
<path d="M357.58 890.6l60.93 0l0 12.99l-60.93 0Z" id="p178w441" />
<path d="M421.38 890.6l25.36 0l0 12.99l-25.36 0Z" id="p178w442" />
<path d="M100.43 622.49l21.88 0l0 15.37l-21.88 0Z" id="p178w443" />
<path d="M125.69 622.49l56.9 0l0 15.37l-56.9 0Z" id="p178w444" />
<path d="M185.78 622.49l20.66 0l0 15.37l-20.66 0Z" id="p178w445" />
<path d="M209.82 622.49l84.85 0l0 15.37l-84.85 0Z" id="p178w446" />
<path d="M298.04 622.49l22.63 0l0 15.37l-22.63 0Z" id="p178w447" />
<path d="M324.05 622.49l18.12 0l0 15.37l-18.12 0Z" id="p178w448" />
<path d="M345.55 622.49l91.84 0l0 15.37l-91.84 0Z" id="p178w449" />
</svg>
