<?xml version="1.0" encoding="UTF-8"?>
<svg xmlns="http://www.w3.org/2000/svg" xmlns:xlink="http://www.w3.org/1999/xlink" version="1.1" baseProfile="full" width="768" height="1024" viewBox="0,0,768,1024" preserveAspectRatio="xMinYMin meet" >
<style type="text/css">
<![CDATA[
path {fill-opacity: 0.5;fill: #00aeef;visibility: hidden;}
]]>
</style>
<path d="M124.06 38.6l71 0l0 16.09l-71 0Z" id="p180w1" />
<path d="M78.77 983.66l101.32 0l0 12.23l-101.32 0Z" id="p180w2" />
<path d="M124.06 104.77l54.73 0l0 24.59l-54.73 0Z" id="p180w3" />
<path d="M304.93 142.52l29.93 0l0 20.58l-29.93 0Z" id="p180w4" />
<path d="M135.64 174.6l31.34 0l0 12.99l-31.34 0Z" id="p180w5" />
<path d="M169.85 174.6l15.31 0l0 12.99l-15.31 0Z" id="p180w6" />
<path d="M187.79 174.6l34.19 0l0 12.99l-34.19 0Z" id="p180w7" />
<path d="M224.85 174.6l25.11 0l0 12.99l-25.11 0Z" id="p180w8" />
<path d="M252.83 174.6l34.44 0l0 12.99l-34.44 0Z" id="p180w9" />
<path d="M290.14 174.6l15.79 0l0 12.99l-15.79 0Z" id="p180w10" />
<path d="M308.8 174.6l21.06 0l0 12.99l-21.06 0Z" id="p180w11" />
<path d="M332.72 174.6l18.19 0l0 12.99l-18.19 0Z" id="p180w12" />
<path d="M135.64 188.49l18.65 0l0 12.99l-18.65 0Z" id="p180w13" />
<path d="M157.16 188.49l21.53 0l0 12.99l-21.53 0Z" id="p180w14" />
<path d="M181.56 188.49l18.65 0l0 12.99l-18.65 0Z" id="p180w15" />
<path d="M203.07 188.49l25.11 0l0 12.99l-25.11 0Z" id="p180w16" />
<path d="M231.05 188.49l18.65 0l0 12.99l-18.65 0Z" id="p180w17" />
<path d="M252.57 188.49l44.9 0l0 12.99l-44.9 0Z" id="p180w18" />
<path d="M300.34 188.49l18.65 0l0 12.99l-18.65 0Z" id="p180w19" />
<path d="M321.86 188.49l37.32 0l0 12.99l-37.32 0Z" id="p180w20" />
<path d="M135.64 202.38l13.64 0l0 12.99l-13.64 0Z" id="p180w21" />
<path d="M152.15 202.38l24.86 0l0 12.99l-24.86 0Z" id="p180w22" />
<path d="M179.88 202.38l54.51 0l0 12.99l-54.51 0Z" id="p180w23" />
<path d="M237.26 202.38l22.47 0l0 12.99l-22.47 0Z" id="p180w24" />
<path d="M262.61 202.38l12.68 0l0 12.99l-12.68 0Z" id="p180w25" />
<path d="M278.16 202.38l13.86 0l0 12.99l-13.86 0Z" id="p180w26" />
<path d="M294.9 202.38l16.03 0l0 12.99l-16.03 0Z" id="p180w27" />
<path d="M313.79 202.38l26.3 0l0 12.99l-26.3 0Z" id="p180w28" />
<path d="M135.64 216.27l29.41 0l0 12.99l-29.41 0Z" id="p180w29" />
<path d="M167.92 216.27l32.51 0l0 12.99l-32.51 0Z" id="p180w30" />
<path d="M203.3 216.27l44.24 0l0 12.99l-44.24 0Z" id="p180w31" />
<path d="M250.41 216.27l35.88 0l0 12.99l-35.88 0Z" id="p180w32" />
<path d="M124.06 272.39l46.43 0l0 18.44l-46.43 0Z" id="p180w33" />
<path d="M124.06 299.51l20.99 0l0 14.6l-20.99 0Z" id="p180w34" />
<path d="M148.26 299.51l29.94 0l0 14.6l-29.94 0Z" id="p180w35" />
<path d="M181.49 298.27l40.09 0l0 16.35l-40.09 0Z" id="p180w36" />
<path d="M156.37 325.3l20.58 0l0 14.52l-20.58 0Z" id="p180w37" />
<path d="M179.89 325.3l26.73 0l0 14.52l-26.73 0Z" id="p180w38" />
<path d="M209.83 325.3l14.1 0l0 14.52l-14.1 0Z" id="p180w39" />
<path d="M227.13 325.23l29.94 0l0 14.6l-29.94 0Z" id="p180w40" />
<path d="M263.96 325.3l41.43 0l0 14.52l-41.43 0Z" id="p180w41" />
<path d="M308.6 325.3l21.92 0l0 14.52l-21.92 0Z" id="p180w42" />
<path d="M333.73 325.3l14.16 0l0 14.52l-14.16 0Z" id="p180w43" />
<path d="M351.1 325.3l78.6 0l0 14.52l-78.6 0Z" id="p180w44" />
<path d="M129.97 341.97l17.91 0l0 14.52l-17.91 0Z" id="p180w45" />
<path d="M151.09 341.97l72.44 0l0 14.52l-72.44 0Z" id="p180w46" />
<path d="M226.73 341.97l10.97 0l0 14.52l-10.97 0Z" id="p180w47" />
<path d="M240.91 341.97l81.73 0l0 14.52l-81.73 0Z" id="p180w48" />
<path d="M325.85 341.97l65.75 0l0 14.52l-65.75 0Z" id="p180w49" />
<path d="M394.8 341.97l24.59 0l0 14.52l-24.59 0Z" id="p180w50" />
<path d="M422.6 341.97l20.33 0l0 14.52l-20.33 0Z" id="p180w51" />
<path d="M129.97 358.64l14.1 0l0 14.52l-14.1 0Z" id="p180w52" />
<path d="M147.27 358.57l18.4 0l0 14.6l-18.4 0Z" id="p180w53" />
<path d="M172.56 358.64l67.58 0l0 14.52l-67.58 0Z" id="p180w54" />
<path d="M297.35 299.59l23.79 0l0 14.52l-23.79 0Z" id="p180w55" />
<path d="M324.35 299.59l72.44 0l0 14.52l-72.44 0Z" id="p180w56" />
<path d="M510.01 303.9l25.24 0l0 14.61l-25.24 0Z" id="p180w57" />
<path d="M124.06 385.88l13.9 0l0 14.6l-13.9 0Z" id="p180w58" />
<path d="M141.17 385.88l29.94 0l0 14.6l-29.94 0Z" id="p180w59" />
<path d="M174.31 385.88l43.53 0l0 14.6l-43.53 0Z" id="p180w60" />
<path d="M221.14 384.64l54.08 0l0 16.35l-54.08 0Z" id="p180w61" />
<path d="M297.35 385.96l17.91 0l0 14.52l-17.91 0Z" id="p180w62" />
<path d="M318.47 385.96l24.85 0l0 14.52l-24.85 0Z" id="p180w63" />
<path d="M346.27 385.96l24.52 0l0 14.52l-24.52 0Z" id="p180w64" />
<path d="M374 385.96l42.38 0l0 14.52l-42.38 0Z" id="p180w65" />
<path d="M297.35 402.63l17.91 0l0 14.52l-17.91 0Z" id="p180w66" />
<path d="M318.47 402.63l42.38 0l0 14.52l-42.38 0Z" id="p180w67" />
<path d="M482.46 385.96l12.83 0l0 14.52l-12.83 0Z" id="p180w68" />
<path d="M498.5 385.96l33.67 0l0 14.52l-33.67 0Z" id="p180w69" />
<path d="M535.38 385.96l13.9 0l0 14.52l-13.9 0Z" id="p180w70" />
<path d="M552.48 385.96l31.28 0l0 14.52l-31.28 0Z" id="p180w71" />
<path d="M586.97 385.96l16.83 0l0 14.52l-16.83 0Z" id="p180w72" />
<path d="M607.01 385.96l13.9 0l0 14.52l-13.9 0Z" id="p180w73" />
<path d="M624.12 385.96l29.41 0l0 14.52l-29.41 0Z" id="p180w74" />
<path d="M656.73 385.96l25.67 0l0 14.52l-25.67 0Z" id="p180w75" />
<path d="M482.46 402.63l42.78 0l0 14.52l-42.78 0Z" id="p180w76" />
<path d="M124.06 420.74l6.07 0l0 14.6l-6.07 0Z" id="p180w77" />
<path d="M128.9 420.74l35.85 0l0 14.6l-35.85 0Z" id="p180w78" />
<path d="M185.78 419.5l39.04 0l0 16.35l-39.04 0Z" id="p180w79" />
<path d="M297.35 420.78l19.51 0l0 14.52l-19.51 0Z" id="p180w80" />
<path d="M320.07 420.78l33.67 0l0 14.52l-33.67 0Z" id="p180w81" />
<path d="M124.06 441.41l20.99 0l0 14.6l-20.99 0Z" id="p180w82" />
<path d="M148.25 441.41l59.29 0l0 14.6l-59.29 0Z" id="p180w83" />
<path d="M210.85 440.17l68.37 0l0 16.35l-68.37 0Z" id="p180w84" />
<path d="M297.35 441.49l23.79 0l0 14.52l-23.79 0Z" id="p180w85" />
<path d="M324.35 441.49l60.4 0l0 14.52l-60.4 0Z" id="p180w86" />
<path d="M508.84 445.82l60.8 0l0 14.61l-60.8 0Z" id="p180w87" />
<path d="M593.77 445.82l52.24 0l0 14.61l-52.24 0Z" id="p180w88" />
<path d="M124.06 463.88l14.31 0l0 14.6l-14.31 0Z" id="p180w89" />
<path d="M141.58 463.88l77.66 0l0 14.6l-77.66 0Z" id="p180w90" />
<path d="M124.06 480.55l20.99 0l0 14.6l-20.99 0Z" id="p180w91" />
<path d="M148.26 480.55l79.24 0l0 14.6l-79.24 0Z" id="p180w92" />
<path d="M124.06 495.98l147.75 0l0 16.35l-147.75 0Z" id="p180w93" />
<path d="M297.36 463.95l17.11 0l0 14.52l-17.11 0Z" id="p180w94" />
<path d="M317.23 463.95l78.17 0l0 14.52l-78.17 0Z" id="p180w95" />
<path d="M297.36 480.63l59.86 0l0 14.52l-59.86 0Z" id="p180w96" />
<path d="M500.19 468.27l17.11 0l0 14.61l-17.11 0Z" id="p180w97" />
<path d="M520.5 468.27l103.51 0l0 14.61l-103.51 0Z" id="p180w98" />
<path d="M482.46 484.94l85.29 0l0 14.61l-85.29 0Z" id="p180w99" />
<path d="M124.06 515.35l14.31 0l0 14.6l-14.31 0Z" id="p180w100" />
<path d="M141.58 515.35l25.65 0l0 14.6l-25.65 0Z" id="p180w101" />
<path d="M170.52 514.11l31.08 0l0 16.35l-31.08 0Z" id="p180w102" />
<path d="M297.35 515.43l17.11 0l0 14.52l-17.11 0Z" id="p180w103" />
<path d="M317.67 515.43l27.27 0l0 14.52l-27.27 0Z" id="p180w104" />
<path d="M124.06 536.06l125.05 0l0 14.6l-125.05 0Z" id="p180w105" />
<path d="M124.06 551.49l96.57 0l0 16.35l-96.57 0Z" id="p180w106" />
<path d="M297.35 536.14l60.69 0l0 14.52l-60.69 0Z" id="p180w107" />
<path d="M482.46 536.14l14.7 0l0 14.52l-14.7 0Z" id="p180w108" />
<path d="M500.37 536.14l60.14 0l0 14.52l-60.14 0Z" id="p180w109" />
<path d="M563.72 536.14l14.18 0l0 14.52l-14.18 0Z" id="p180w110" />
<path d="M581.1 536.14l35.56 0l0 14.52l-35.56 0Z" id="p180w111" />
<path d="M619.87 536.14l24.06 0l0 14.52l-24.06 0Z" id="p180w112" />
<path d="M647.14 536.14l15.5 0l0 14.52l-15.5 0Z" id="p180w113" />
<path d="M665.84 536.14l25.4 0l0 14.52l-25.4 0Z" id="p180w114" />
<path d="M482.46 552.81l60.95 0l0 14.52l-60.95 0Z" id="p180w115" />
<path d="M508.84 569.5l52.82 0l0 14.61l-52.82 0Z" id="p180w116" />
<path d="M585.8 569.5l32.25 0l0 14.61l-32.25 0Z" id="p180w117" />
<path d="M618.05 569.42l13.37 0l0 14.6l-13.37 0Z" id="p180w118" />
<path d="M124.06 587.56l12.42 0l0 14.6l-12.42 0Z" id="p180w119" />
<path d="M139.69 587.56l33.5 0l0 14.6l-33.5 0Z" id="p180w120" />
<path d="M176.49 586.32l55.74 0l0 16.35l-55.74 0Z" id="p180w121" />
<path d="M129.97 613.2l12.42 0l0 14.6l-12.42 0Z" id="p180w122" />
<path d="M145.6 613.2l33.5 0l0 14.6l-33.5 0Z" id="p180w123" />
<path d="M182.3 613.26l24.59 0l0 14.52l-24.59 0Z" id="p180w124" />
<path d="M210.1 613.26l56.35 0l0 14.52l-56.35 0Z" id="p180w125" />
<path d="M269.66 613.26l19.77 0l0 14.52l-19.77 0Z" id="p180w126" />
<path d="M292.64 613.2l7.87 0l0 14.6l-7.87 0Z" id="p180w127" />
<path d="M300.5 613.2l15.19 0l0 14.6l-15.19 0Z" id="p180w128" />
<path d="M322.11 613.26l9.62 0l0 14.52l-9.62 0Z" id="p180w129" />
<path d="M334.94 613.26l17.63 0l0 14.52l-17.63 0Z" id="p180w130" />
<path d="M355.78 613.26l36.89 0l0 14.52l-36.89 0Z" id="p180w131" />
<path d="M395.88 613.26l11.5 0l0 14.52l-11.5 0Z" id="p180w132" />
<path d="M410.58 613.26l11.22 0l0 14.52l-11.22 0Z" id="p180w133" />
<path d="M129.97 629.94l36.89 0l0 14.52l-36.89 0Z" id="p180w134" />
<path d="M170.07 629.94l50.26 0l0 14.52l-50.26 0Z" id="p180w135" />
<path d="M223.54 629.94l12.29 0l0 14.52l-12.29 0Z" id="p180w136" />
<path d="M239.04 629.94l35.82 0l0 14.52l-35.82 0Z" id="p180w137" />
<path d="M278.07 629.94l26.74 0l0 14.52l-26.74 0Z" id="p180w138" />
<path d="M308.01 629.94l26.74 0l0 14.52l-26.74 0Z" id="p180w139" />
<path d="M337.96 629.94l28.6 0l0 14.52l-28.6 0Z" id="p180w140" />
<path d="M366.57 629.87l11.48 0l0 14.6l-11.48 0Z" id="p180w141" />
<path d="M378.05 629.94l22.47 0l0 14.52l-22.47 0Z" id="p180w142" />
<path d="M403.72 629.94l25.67 0l0 14.52l-25.67 0Z" id="p180w143" />
<path d="M129.97 646.61l25.67 0l0 14.52l-25.67 0Z" id="p180w144" />
<path d="M158.85 646.61l28.6 0l0 14.52l-28.6 0Z" id="p180w145" />
<path d="M187.45 646.54l11.48 0l0 14.6l-11.48 0Z" id="p180w146" />
<path d="M198.94 646.61l15.25 0l0 14.52l-15.25 0Z" id="p180w147" />
<path d="M217.39 646.61l42.36 0l0 14.52l-42.36 0Z" id="p180w148" />
<path d="M262.95 646.61l12.29 0l0 14.52l-12.29 0Z" id="p180w149" />
<path d="M278.45 646.61l28.6 0l0 14.52l-28.6 0Z" id="p180w150" />
<path d="M307.05 646.54l11.48 0l0 14.6l-11.48 0Z" id="p180w151" />
<path d="M318.53 646.61l18.44 0l0 14.52l-18.44 0Z" id="p180w152" />
<path d="M297.35 587.63l21.92 0l0 14.52l-21.92 0Z" id="p180w153" />
<path d="M322.48 587.63l68.68 0l0 14.52l-68.68 0Z" id="p180w154" />
<path d="M500.69 587.57l20.84 0l0 14.61l-20.84 0Z" id="p180w155" />
<path d="M524.74 587.57l42.77 0l0 14.61l-42.77 0Z" id="p180w156" />
<path d="M124.06 673.86l20.99 0l0 14.6l-20.99 0Z" id="p180w157" />
<path d="M148.25 673.86l36.63 0l0 14.6l-36.63 0Z" id="p180w158" />
<path d="M188.09 673.86l13.87 0l0 14.6l-13.87 0Z" id="p180w159" />
<path d="M205.17 673.86l53.96 0l0 14.6l-53.96 0Z" id="p180w160" />
<path d="M124.06 689.29l96.84 0l0 16.35l-96.84 0Z" id="p180w161" />
<path d="M297.35 673.94l17.11 0l0 14.52l-17.11 0Z" id="p180w162" />
<path d="M317.67 673.94l82.05 0l0 14.52l-82.05 0Z" id="p180w163" />
<path d="M482.46 673.94l12.3 0l0 14.52l-12.3 0Z" id="p180w164" />
<path d="M506.35 673.94l11.22 0l0 14.52l-11.22 0Z" id="p180w165" />
<path d="M520.78 673.94l36.89 0l0 14.52l-36.89 0Z" id="p180w166" />
<path d="M570.5 673.94l24.33 0l0 14.52l-24.33 0Z" id="p180w167" />
<path d="M598.03 673.94l19.51 0l0 14.52l-19.51 0Z" id="p180w168" />
<path d="M620.75 673.94l42.5 0l0 14.52l-42.5 0Z" id="p180w169" />
<path d="M482.46 690.61l13.9 0l0 14.52l-13.9 0Z" id="p180w170" />
<path d="M499.57 690.61l53.46 0l0 14.52l-53.46 0Z" id="p180w171" />
<path d="M556.23 690.61l58.8 0l0 14.52l-58.8 0Z" id="p180w172" />
<path d="M124.06 708.68l14.31 0l0 14.6l-14.31 0Z" id="p180w173" />
<path d="M141.57 708.68l64.03 0l0 14.6l-64.03 0Z" id="p180w174" />
<path d="M208.81 708.68l45.55 0l0 14.6l-45.55 0Z" id="p180w175" />
<path d="M124.06 724.11l83.51 0l0 16.35l-83.51 0Z" id="p180w176" />
<path d="M297.35 708.76l17.11 0l0 14.52l-17.11 0Z" id="p180w177" />
<path d="M317.67 708.76l62.99 0l0 14.52l-62.99 0Z" id="p180w178" />
<path d="M482.46 708.76l25.13 0l0 14.52l-25.13 0Z" id="p180w179" />
<path d="M510.8 708.76l25.12 0l0 14.52l-25.12 0Z" id="p180w180" />
<path d="M539.12 708.76l44.46 0l0 14.52l-44.46 0Z" id="p180w181" />
<path d="M586.79 708.76l26.73 0l0 14.52l-26.73 0Z" id="p180w182" />
<path d="M616.72 708.76l14.18 0l0 14.52l-14.18 0Z" id="p180w183" />
<path d="M634.11 708.76l41.71 0l0 14.52l-41.71 0Z" id="p180w184" />
<path d="M124.06 743.48l14.31 0l0 14.6l-14.31 0Z" id="p180w185" />
<path d="M141.57 743.48l65.65 0l0 14.6l-65.65 0Z" id="p180w186" />
<path d="M210.53 742.24l64.41 0l0 16.35l-64.41 0Z" id="p180w187" />
<path d="M297.35 743.56l17.11 0l0 14.52l-17.11 0Z" id="p180w188" />
<path d="M317.67 743.56l58.21 0l0 14.52l-58.21 0Z" id="p180w189" />
<path d="M482.46 743.56l46.96 0l0 14.52l-46.96 0Z" id="p180w190" />
<path d="M532.63 743.56l36.89 0l0 14.52l-36.89 0Z" id="p180w191" />
<path d="M572.73 743.56l9.89 0l0 14.52l-9.89 0Z" id="p180w192" />
<path d="M601.32 743.56l26.46 0l0 14.52l-26.46 0Z" id="p180w193" />
<path d="M630.99 743.56l14.18 0l0 14.52l-14.18 0Z" id="p180w194" />
<path d="M482.46 760.23l65.15 0l0 14.52l-65.15 0Z" id="p180w195" />
<path d="M550.82 760.23l31.01 0l0 14.52l-31.01 0Z" id="p180w196" />
<path d="M585.03 760.23l19.52 0l0 14.52l-19.52 0Z" id="p180w197" />
<path d="M607.76 760.23l36.09 0l0 14.52l-36.09 0Z" id="p180w198" />
<path d="M482.46 776.91l14.18 0l0 14.52l-14.18 0Z" id="p180w199" />
<path d="M499.84 776.91l45.72 0l0 14.52l-45.72 0Z" id="p180w200" />
<path d="M124.06 794.98l20.99 0l0 14.6l-20.99 0Z" id="p180w201" />
<path d="M148.25 794.98l49.02 0l0 14.6l-49.02 0Z" id="p180w202" />
<path d="M200.57 793.73l58.25 0l0 16.35l-58.25 0Z" id="p180w203" />
<path d="M297.35 795.05l23.79 0l0 14.52l-23.79 0Z" id="p180w204" />
<path d="M324.34 795.05l39.29 0l0 14.52l-39.29 0Z" id="p180w205" />
<path d="M482.46 795.05l25.41 0l0 14.52l-25.41 0Z" id="p180w206" />
<path d="M511.07 795.05l24.31 0l0 14.52l-24.31 0Z" id="p180w207" />
<path d="M538.6 795.05l13.9 0l0 14.52l-13.9 0Z" id="p180w208" />
<path d="M555.7 795.05l36.89 0l0 14.52l-36.89 0Z" id="p180w209" />
<path d="M595.8 795.05l13.9 0l0 14.52l-13.9 0Z" id="p180w210" />
<path d="M612.91 795.05l62.21 0l0 14.52l-62.21 0Z" id="p180w211" />
<path d="M482.46 811.73l6.41 0l0 14.52l-6.41 0Z" id="p180w212" />
<path d="M492.08 811.73l22.45 0l0 14.52l-22.45 0Z" id="p180w213" />
<path d="M517.74 811.73l49.69 0l0 14.52l-49.69 0Z" id="p180w214" />
<path d="M570.64 811.73l20.85 0l0 14.52l-20.85 0Z" id="p180w215" />
<path d="M594.7 811.73l51.05 0l0 14.52l-51.05 0Z" id="p180w216" />
<path d="M500.19 828.41l41.87 0l0 14.61l-41.87 0Z" id="p180w217" />
<path d="M124.06 846.51l6.07 0l0 14.6l-6.07 0Z" id="p180w218" />
<path d="M128.9 846.51l59.85 0l0 14.6l-59.85 0Z" id="p180w219" />
<path d="M209.78 845.26l46.62 0l0 16.35l-46.62 0Z" id="p180w220" />
<path d="M297.35 846.54l69.51 0l0 14.52l-69.51 0Z" id="p180w221" />
<path d="M500.69 846.48l51.71 0l0 14.61l-51.71 0Z" id="p180w222" />
<path d="M124.06 867.18l14.31 0l0 14.6l-14.31 0Z" id="p180w223" />
<path d="M141.57 867.18l21.5 0l0 14.6l-21.5 0Z" id="p180w224" />
<path d="M166.37 865.94l31.48 0l0 16.35l-31.48 0Z" id="p180w225" />
<path d="M297.35 867.25l23.79 0l0 14.52l-23.79 0Z" id="p180w226" />
<path d="M324.34 867.25l27.36 0l0 14.52l-27.36 0Z" id="p180w227" />
<path d="M482.46 867.25l23.24 0l0 14.52l-23.24 0Z" id="p180w228" />
<path d="M508.91 867.25l42.49 0l0 14.52l-42.49 0Z" id="p180w229" />
<path d="M554.61 867.25l35.29 0l0 14.52l-35.29 0Z" id="p180w230" />
<path d="M593.11 867.25l14.18 0l0 14.52l-14.18 0Z" id="p180w231" />
<path d="M610.49 867.25l21.12 0l0 14.52l-21.12 0Z" id="p180w232" />
<path d="M634.82 867.25l55.86 0l0 14.52l-55.86 0Z" id="p180w233" />
<path d="M482.46 883.93l26.73 0l0 14.52l-26.73 0Z" id="p180w234" />
<path d="M512.39 883.93l17.63 0l0 14.52l-17.63 0Z" id="p180w235" />
<path d="M533.24 883.93l18.72 0l0 14.52l-18.72 0Z" id="p180w236" />
<path d="M508.84 900.62l14.16 0l0 14.61l-14.16 0Z" id="p180w237" />
<path d="M526.21 900.62l21.29 0l0 14.61l-21.29 0Z" id="p180w238" />
<path d="M571.64 900.62l23.79 0l0 14.61l-23.79 0Z" id="p180w239" />
<path d="M598.63 900.62l27.44 0l0 14.61l-27.44 0Z" id="p180w240" />
</svg>
