<?xml version="1.0" encoding="UTF-8"?>
<svg xmlns="http://www.w3.org/2000/svg" xmlns:xlink="http://www.w3.org/1999/xlink" version="1.1" baseProfile="full" width="768" height="1024" viewBox="0,0,768,1024" preserveAspectRatio="xMinYMin meet" >
<style type="text/css">
<![CDATA[
path {fill-opacity: 0.5;fill: #00aeef;visibility: hidden;}
]]>
</style>
<path d="M68.27 38.6l76.69 0l0 16.09l-76.69 0Z" id="p281w1" />
<path d="M98.46 107.92l97.31 0l0 12.29l-97.31 0Z" id="p281w2" />
<path d="M98.46 135.71l61 0l0 12.29l-61 0Z" id="p281w3" />
<path d="M162.16 135.71l38.45 0l0 12.29l-38.45 0Z" id="p281w4" />
<path d="M203.17 135.71l27.99 0l0 12.29l-27.99 0Z" id="p281w5" />
<path d="M233.86 135.76l20.23 0l0 12.23l-20.23 0Z" id="p281w6" />
<path d="M256.79 135.71l29.97 0l0 12.29l-29.97 0Z" id="p281w7" />
<path d="M289.45 135.71l25.3 0l0 12.29l-25.3 0Z" id="p281w8" />
<path d="M317.45 135.71l29.49 0l0 12.29l-29.49 0Z" id="p281w9" />
<path d="M349.64 135.71l36.01 0l0 12.29l-36.01 0Z" id="p281w10" />
<path d="M388.36 135.71l36.11 0l0 12.29l-36.11 0Z" id="p281w11" />
<path d="M427.02 135.71l43.77 0l0 12.29l-43.77 0Z" id="p281w12" />
<path d="M473.5 135.76l24.22 0l0 12.23l-24.22 0Z" id="p281w13" />
<path d="M500.42 135.71l29.44 0l0 12.29l-29.44 0Z" id="p281w14" />
<path d="M532.57 135.71l24.89 0l0 12.29l-24.89 0Z" id="p281w15" />
<path d="M560.15 135.71l27.78 0l0 12.29l-27.78 0Z" id="p281w16" />
<path d="M590.63 135.71l30.16 0l0 12.29l-30.16 0Z" id="p281w17" />
<path d="M623.27 135.71l23.89 0l0 12.29l-23.89 0Z" id="p281w18" />
<path d="M98.46 149.6l48.12 0l0 12.29l-48.12 0Z" id="p281w19" />
<path d="M149.14 149.6l24.13 0l0 12.29l-24.13 0Z" id="p281w20" />
<path d="M175.97 149.65l20.91 0l0 12.23l-20.91 0Z" id="p281w21" />
<path d="M199.58 149.6l32.27 0l0 12.29l-32.27 0Z" id="p281w22" />
<path d="M234.55 149.6l27.91 0l0 12.29l-27.91 0Z" id="p281w23" />
<path d="M265.01 149.6l20.15 0l0 12.29l-20.15 0Z" id="p281w24" />
<path d="M287.86 149.65l20.91 0l0 12.23l-20.91 0Z" id="p281w25" />
<path d="M311.47 149.6l29.44 0l0 12.29l-29.44 0Z" id="p281w26" />
<path d="M343.62 149.6l25.89 0l0 12.29l-25.89 0Z" id="p281w27" />
<path d="M372.21 149.6l27.9 0l0 12.29l-27.9 0Z" id="p281w28" />
<path d="M402.81 149.6l42.85 0l0 12.29l-42.85 0Z" id="p281w29" />
<path d="M448.36 149.6l71.96 0l0 12.29l-71.96 0Z" id="p281w30" />
<path d="M522.87 149.6l48.12 0l0 12.29l-48.12 0Z" id="p281w31" />
<path d="M573.55 149.6l24.13 0l0 12.29l-24.13 0Z" id="p281w32" />
<path d="M600.38 149.65l26.57 0l0 12.23l-26.57 0Z" id="p281w33" />
<path d="M632.46 149.6l26.67 0l0 12.29l-26.67 0Z" id="p281w34" />
<path d="M98.46 163.49l51.75 0l0 12.29l-51.75 0Z" id="p281w35" />
<path d="M152.91 163.49l28.39 0l0 12.29l-28.39 0Z" id="p281w36" />
<path d="M184 163.55l19.64 0l0 12.23l-19.64 0Z" id="p281w37" />
<path d="M206.35 163.49l31.39 0l0 12.29l-31.39 0Z" id="p281w38" />
<path d="M240.44 163.49l30.5 0l0 12.29l-30.5 0Z" id="p281w39" />
<path d="M273.64 163.49l34.88 0l0 12.29l-34.88 0Z" id="p281w40" />
<path d="M311.07 163.49l23.22 0l0 12.29l-23.22 0Z" id="p281w41" />
<path d="M336.99 163.55l18.74 0l0 12.23l-18.74 0Z" id="p281w42" />
<path d="M358.44 163.49l35.01 0l0 12.29l-35.01 0Z" id="p281w43" />
<path d="M396.15 163.49l34.51 0l0 12.29l-34.51 0Z" id="p281w44" />
<path d="M433.36 163.49l29.49 0l0 12.29l-29.49 0Z" id="p281w45" />
<path d="M465.55 163.49l28.45 0l0 12.29l-28.45 0Z" id="p281w46" />
<path d="M496.71 163.49l24.5 0l0 12.29l-24.5 0Z" id="p281w47" />
<path d="M523.76 163.49l43.77 0l0 12.29l-43.77 0Z" id="p281w48" />
<path d="M570.24 163.55l20.91 0l0 12.23l-20.91 0Z" id="p281w49" />
<path d="M593.84 163.49l71.85 0l0 12.29l-71.85 0Z" id="p281w50" />
<path d="M98.47 177.39l19.72 0l0 12.29l-19.72 0Z" id="p281w51" />
<path d="M120.89 177.39l21.46 0l0 12.29l-21.46 0Z" id="p281w52" />
<path d="M144.91 177.39l27.98 0l0 12.29l-27.98 0Z" id="p281w53" />
<path d="M175.44 177.39l12.49 0l0 12.29l-12.49 0Z" id="p281w54" />
<path d="M190.64 177.44l25.49 0l0 12.23l-25.49 0Z" id="p281w55" />
<path d="M218.83 177.39l19.32 0l0 12.29l-19.32 0Z" id="p281w56" />
<path d="M240.85 177.39l24.49 0l0 12.29l-24.49 0Z" id="p281w57" />
<path d="M268.04 177.39l21.35 0l0 12.29l-21.35 0Z" id="p281w58" />
<path d="M294.62 177.39l64.13 0l0 12.29l-64.13 0Z" id="p281w59" />
<path d="M361.31 177.39l27.99 0l0 12.29l-27.99 0Z" id="p281w60" />
<path d="M391.99 177.44l24.3 0l0 12.23l-24.3 0Z" id="p281w61" />
<path d="M418.99 177.39l26.53 0l0 12.29l-26.53 0Z" id="p281w62" />
<path d="M448.22 177.39l47.36 0l0 12.29l-47.36 0Z" id="p281w63" />
<path d="M498.29 177.39l43.65 0l0 12.29l-43.65 0Z" id="p281w64" />
<path d="M544.64 177.39l48.72 0l0 12.29l-48.72 0Z" id="p281w65" />
<path d="M595.91 177.39l44.82 0l0 12.29l-44.82 0Z" id="p281w66" />
<path d="M98.47 191.28l51.19 0l0 12.29l-51.19 0Z" id="p281w67" />
<path d="M152.36 191.34l20.01 0l0 12.23l-20.01 0Z" id="p281w68" />
<path d="M175.07 191.28l26.33 0l0 12.29l-26.33 0Z" id="p281w69" />
<path d="M204.1 191.28l33.81 0l0 12.29l-33.81 0Z" id="p281w70" />
<path d="M240.61 191.28l41.74 0l0 12.29l-41.74 0Z" id="p281w71" />
<path d="M284.91 191.28l23.22 0l0 12.29l-23.22 0Z" id="p281w72" />
<path d="M310.83 191.34l19.64 0l0 12.23l-19.64 0Z" id="p281w73" />
<path d="M333.17 191.28l61.66 0l0 12.29l-61.66 0Z" id="p281w74" />
<path d="M397.38 191.28l17.3 0l0 12.29l-17.3 0Z" id="p281w75" />
<path d="M417.38 191.28l14.71 0l0 12.29l-14.71 0Z" id="p281w76" />
<path d="M434.78 191.28l25.98 0l0 12.29l-25.98 0Z" id="p281w77" />
<path d="M463.46 191.34l24.03 0l0 12.23l-24.03 0Z" id="p281w78" />
<path d="M489.97 191.34l25.49 0l0 12.23l-25.49 0Z" id="p281w79" />
<path d="M518.16 191.28l18.17 0l0 12.29l-18.17 0Z" id="p281w80" />
<path d="M539.04 191.28l34.05 0l0 12.29l-34.05 0Z" id="p281w81" />
<path d="M575.78 191.28l32.1 0l0 12.29l-32.1 0Z" id="p281w82" />
<path d="M610.44 191.28l43.77 0l0 12.29l-43.77 0Z" id="p281w83" />
<path d="M98.47 205.23l25.49 0l0 12.23l-25.49 0Z" id="p281w84" />
<path d="M126.66 205.18l39.58 0l0 12.29l-39.58 0Z" id="p281w85" />
<path d="M168.94 205.18l26.01 0l0 12.29l-26.01 0Z" id="p281w86" />
<path d="M197.51 205.18l20.02 0l0 12.29l-20.02 0Z" id="p281w87" />
<path d="M220.08 205.18l20.22 0l0 12.29l-20.22 0Z" id="p281w88" />
<path d="M243 205.18l36.29 0l0 12.29l-36.29 0Z" id="p281w89" />
<path d="M281.99 205.18l41.37 0l0 12.29l-41.37 0Z" id="p281w90" />
<path d="M326.07 205.23l20.91 0l0 12.23l-20.91 0Z" id="p281w91" />
<path d="M349.68 205.18l53.39 0l0 12.29l-53.39 0Z" id="p281w92" />
<path d="M405.62 205.18l23.22 0l0 12.29l-23.22 0Z" id="p281w93" />
<path d="M431.54 205.23l19.64 0l0 12.23l-19.64 0Z" id="p281w94" />
<path d="M453.88 205.18l79.21 0l0 12.29l-79.21 0Z" id="p281w95" />
<path d="M535.79 205.18l59.4 0l0 12.29l-59.4 0Z" id="p281w96" />
<path d="M597.74 205.18l54.81 0l0 12.29l-54.81 0Z" id="p281w97" />
<path d="M98.47 219.07l12.47 0l0 12.29l-12.47 0Z" id="p281w98" />
<path d="M113.64 219.12l19.64 0l0 12.23l-19.64 0Z" id="p281w99" />
<path d="M135.99 219.07l39.25 0l0 12.29l-39.25 0Z" id="p281w100" />
<path d="M177.93 219.07l57.2 0l0 12.29l-57.2 0Z" id="p281w101" />
<path d="M245.94 219.07l79 0l0 12.29l-79 0Z" id="p281w102" />
<path d="M327.63 219.12l24.03 0l0 12.23l-24.03 0Z" id="p281w103" />
<path d="M354.14 219.12l24.03 0l0 12.23l-24.03 0Z" id="p281w104" />
<path d="M380.65 219.12l25.3 0l0 12.23l-25.3 0Z" id="p281w105" />
<path d="M408.43 219.12l25.3 0l0 12.23l-25.3 0Z" id="p281w106" />
<path d="M436.21 219.12l25.3 0l0 12.23l-25.3 0Z" id="p281w107" />
<path d="M463.98 219.12l24.03 0l0 12.23l-24.03 0Z" id="p281w108" />
<path d="M490.49 219.12l25.3 0l0 12.23l-25.3 0Z" id="p281w109" />
<path d="M518.27 219.12l24.03 0l0 12.23l-24.03 0Z" id="p281w110" />
<path d="M544.78 219.12l24.03 0l0 12.23l-24.03 0Z" id="p281w111" />
<path d="M571.51 219.12l20.72 0l0 12.23l-20.72 0Z" id="p281w112" />
<path d="M594.93 219.12l19.45 0l0 12.23l-19.45 0Z" id="p281w113" />
<path d="M616.86 219.12l25.3 0l0 12.23l-25.3 0Z" id="p281w114" />
<path d="M644.86 219.12l19.45 0l0 12.23l-19.45 0Z" id="p281w115" />
<path d="M98.47 233.02l23.21 0l0 12.23l-23.21 0Z" id="p281w116" />
<path d="M124.16 233.02l24.03 0l0 12.23l-24.03 0Z" id="p281w117" />
<path d="M150.67 233.02l23.13 0l0 12.23l-23.13 0Z" id="p281w118" />
<path d="M176.28 233.02l25.3 0l0 12.23l-25.3 0Z" id="p281w119" />
<path d="M204.28 233.02l19.08 0l0 12.23l-19.08 0Z" id="p281w120" />
<path d="M226.06 233.02l20.72 0l0 12.23l-20.72 0Z" id="p281w121" />
<path d="M249.26 233.02l22.31 0l0 12.23l-22.31 0Z" id="p281w122" />
<path d="M274.05 233.02l25.3 0l0 12.23l-25.3 0Z" id="p281w123" />
<path d="M301.82 233.02l24.03 0l0 12.23l-24.03 0Z" id="p281w124" />
<path d="M328.55 233.02l20.72 0l0 12.23l-20.72 0Z" id="p281w125" />
<path d="M351.75 233.02l24.03 0l0 12.23l-24.03 0Z" id="p281w126" />
<path d="M378.48 233.02l20.72 0l0 12.23l-20.72 0Z" id="p281w127" />
<path d="M401.9 233.02l20.72 0l0 12.23l-20.72 0Z" id="p281w128" />
<path d="M425.32 233.02l20.72 0l0 12.23l-20.72 0Z" id="p281w129" />
<path d="M448.74 233.02l19.45 0l0 12.23l-19.45 0Z" id="p281w130" />
<path d="M470.89 233.02l19.08 0l0 12.23l-19.08 0Z" id="p281w131" />
<path d="M492.45 233.02l19.53 0l0 12.23l-19.53 0Z" id="p281w132" />
<path d="M514.68 233.02l20.72 0l0 12.23l-20.72 0Z" id="p281w133" />
<path d="M537.88 233.02l19.9 0l0 12.23l-19.9 0Z" id="p281w134" />
<path d="M560.26 233.02l19.9 0l0 12.23l-19.9 0Z" id="p281w135" />
<path d="M582.63 233.02l18.63 0l0 12.23l-18.63 0Z" id="p281w136" />
<path d="M603.74 233.02l18.82 0l0 12.23l-18.82 0Z" id="p281w137" />
<path d="M625.26 232.96l8.28 0l0 12.29l-8.28 0Z" id="p281w138" />
<path d="M636.24 232.96l29.26 0l0 12.29l-29.26 0Z" id="p281w139" />
<path d="M98.47 246.86l35.58 0l0 12.29l-35.58 0Z" id="p281w140" />
<path d="M136.75 246.86l57.5 0l0 12.29l-57.5 0Z" id="p281w141" />
<path d="M196.81 246.86l44.19 0l0 12.29l-44.19 0Z" id="p281w142" />
<path d="M243.7 246.91l18.74 0l0 12.23l-18.74 0Z" id="p281w143" />
<path d="M265.15 246.86l54.64 0l0 12.29l-54.64 0Z" id="p281w144" />
<path d="M322.49 246.86l44.66 0l0 12.29l-44.66 0Z" id="p281w145" />
<path d="M369.7 246.86l21.09 0l0 12.29l-21.09 0Z" id="p281w146" />
<path d="M393.12 246.86l20.61 0l0 12.29l-20.61 0Z" id="p281w147" />
<path d="M416.43 246.91l28.8 0l0 12.23l-28.8 0Z" id="p281w148" />
<path d="M447.93 246.86l42.68 0l0 12.29l-42.68 0Z" id="p281w149" />
<path d="M493.32 246.91l29.62 0l0 12.23l-29.62 0Z" id="p281w150" />
<path d="M525.64 246.86l40.68 0l0 12.29l-40.68 0Z" id="p281w151" />
<path d="M569.02 246.91l29.62 0l0 12.23l-29.62 0Z" id="p281w152" />
<path d="M601.35 246.86l48.04 0l0 12.29l-48.04 0Z" id="p281w153" />
<path d="M652.09 246.91l19.64 0l0 12.23l-19.64 0Z" id="p281w154" />
<path d="M98.48 260.75l43.55 0l0 12.29l-43.55 0Z" id="p281w155" />
<path d="M144.73 260.81l18.82 0l0 12.23l-18.82 0Z" id="p281w156" />
<path d="M166.25 260.75l44.48 0l0 12.29l-44.48 0Z" id="p281w157" />
<path d="M213.44 260.81l24.22 0l0 12.23l-24.22 0Z" id="p281w158" />
<path d="M240.36 260.75l55 0l0 12.29l-55 0Z" id="p281w159" />
<path d="M298.06 260.81l24.03 0l0 12.23l-24.03 0Z" id="p281w160" />
<path d="M324.57 260.81l23.21 0l0 12.23l-23.21 0Z" id="p281w161" />
<path d="M350.25 260.81l23.4 0l0 12.23l-23.4 0Z" id="p281w162" />
<path d="M376.35 260.75l58.48 0l0 12.29l-58.48 0Z" id="p281w163" />
<path d="M437.53 260.81l24.22 0l0 12.23l-24.22 0Z" id="p281w164" />
<path d="M464.45 260.75l49.64 0l0 12.29l-49.64 0Z" id="p281w165" />
<path d="M516.79 260.81l25.49 0l0 12.23l-25.49 0Z" id="p281w166" />
<path d="M544.98 260.75l56.55 0l0 12.29l-56.55 0Z" id="p281w167" />
<path d="M604.24 260.81l20.01 0l0 12.23l-20.01 0Z" id="p281w168" />
<path d="M626.95 260.75l53.41 0l0 12.29l-53.41 0Z" id="p281w169" />
<path d="M98.49 274.7l19.85 0l0 12.23l-19.85 0Z" id="p281w170" />
<path d="M121.05 274.65l58.1 0l0 12.29l-58.1 0Z" id="p281w171" />
<path d="M181.85 274.7l19.41 0l0 12.23l-19.41 0Z" id="p281w172" />
<path d="M203.96 274.65l59.44 0l0 12.29l-59.44 0Z" id="p281w173" />
<path d="M266.1 274.7l19.64 0l0 12.23l-19.64 0Z" id="p281w174" />
<path d="M288.44 274.65l68.71 0l0 12.29l-68.71 0Z" id="p281w175" />
<path d="M359.86 274.7l19.64 0l0 12.23l-19.64 0Z" id="p281w176" />
<path d="M382.2 274.65l36.15 0l0 12.29l-36.15 0Z" id="p281w177" />
<path d="M421.05 274.65l27.94 0l0 12.29l-27.94 0Z" id="p281w178" />
<path d="M451.69 274.7l25.49 0l0 12.23l-25.49 0Z" id="p281w179" />
<path d="M479.88 274.65l62.22 0l0 12.29l-62.22 0Z" id="p281w180" />
<path d="M544.8 274.7l20.91 0l0 12.23l-20.91 0Z" id="p281w181" />
<path d="M568.41 274.65l84.62 0l0 12.29l-84.62 0Z" id="p281w182" />
<path d="M98.51 288.6l19.77 0l0 12.23l-19.77 0Z" id="p281w183" />
<path d="M120.98 288.54l37.01 0l0 12.29l-37.01 0Z" id="p281w184" />
<path d="M160.7 288.54l45.99 0l0 12.29l-45.99 0Z" id="p281w185" />
<path d="M209.39 288.6l25.49 0l0 12.23l-25.49 0Z" id="p281w186" />
<path d="M237.58 288.54l36.86 0l0 12.29l-36.86 0Z" id="p281w187" />
<path d="M277.14 288.54l37.46 0l0 12.29l-37.46 0Z" id="p281w188" />
<path d="M317.3 288.6l20.91 0l0 12.23l-20.91 0Z" id="p281w189" />
<path d="M340.91 288.54l30.36 0l0 12.29l-30.36 0Z" id="p281w190" />
<path d="M373.96 288.54l41.5 0l0 12.29l-41.5 0Z" id="p281w191" />
<path d="M418.17 288.6l20.91 0l0 12.23l-20.91 0Z" id="p281w192" />
<path d="M441.78 288.54l38.35 0l0 12.29l-38.35 0Z" id="p281w193" />
<path d="M482.83 288.54l41.63 0l0 12.29l-41.63 0Z" id="p281w194" />
<path d="M527.15 288.6l18.96 0l0 12.23l-18.96 0Z" id="p281w195" />
<path d="M548.82 288.54l50.04 0l0 12.29l-50.04 0Z" id="p281w196" />
<path d="M601.56 288.54l38.06 0l0 12.29l-38.06 0Z" id="p281w197" />
<path d="M642.32 288.6l20.09 0l0 12.23l-20.09 0Z" id="p281w198" />
<path d="M98.52 302.43l45.75 0l0 12.29l-45.75 0Z" id="p281w199" />
<path d="M146.97 302.43l39.06 0l0 12.29l-39.06 0Z" id="p281w200" />
<path d="M188.73 302.49l24.22 0l0 12.23l-24.22 0Z" id="p281w201" />
<path d="M215.65 302.43l51.66 0l0 12.29l-51.66 0Z" id="p281w202" />
<path d="M270.01 302.43l25.89 0l0 12.29l-25.89 0Z" id="p281w203" />
<path d="M298.6 302.43l60.52 0l0 12.29l-60.52 0Z" id="p281w204" />
<path d="M361.83 302.43l56.94 0l0 12.29l-56.94 0Z" id="p281w205" />
<path d="M421.1 302.43l51.31 0l0 12.29l-51.31 0Z" id="p281w206" />
<path d="M474.74 302.43l12.77 0l0 12.29l-12.77 0Z" id="p281w207" />
<path d="M490.22 302.49l18.82 0l0 12.23l-18.82 0Z" id="p281w208" />
<path d="M511.74 302.43l25.53 0l0 12.29l-25.53 0Z" id="p281w209" />
<path d="M539.97 302.43l37.12 0l0 12.29l-37.12 0Z" id="p281w210" />
<path d="M579.65 302.43l43.98 0l0 12.29l-43.98 0Z" id="p281w211" />
<path d="M626.33 302.49l24.22 0l0 12.23l-24.22 0Z" id="p281w212" />
<path d="M98.53 316.33l25.4 0l0 12.29l-25.4 0Z" id="p281w213" />
<path d="M126.63 316.38l24.66 0l0 12.23l-24.66 0Z" id="p281w214" />
<path d="M153.99 316.33l19.44 0l0 12.29l-19.44 0Z" id="p281w215" />
<path d="M176.13 316.33l21.66 0l0 12.29l-21.66 0Z" id="p281w216" />
<path d="M200.5 316.38l19.64 0l0 12.23l-19.64 0Z" id="p281w217" />
<path d="M222.84 316.33l46.85 0l0 12.29l-46.85 0Z" id="p281w218" />
<path d="M272.39 316.38l20.01 0l0 12.23l-20.01 0Z" id="p281w219" />
<path d="M295.1 316.33l54.39 0l0 12.29l-54.39 0Z" id="p281w220" />
<path d="M352.19 316.38l20.91 0l0 12.23l-20.91 0Z" id="p281w221" />
<path d="M375.8 316.33l53.35 0l0 12.29l-53.35 0Z" id="p281w222" />
<path d="M431.85 316.38l20.91 0l0 12.23l-20.91 0Z" id="p281w223" />
<path d="M455.46 316.33l35.74 0l0 12.29l-35.74 0Z" id="p281w224" />
<path d="M491.2 316.33l12 0l0 12.29l-12 0Z" id="p281w225" />
<path d="M505.9 316.38l19.64 0l0 12.23l-19.64 0Z" id="p281w226" />
<path d="M528.24 316.33l34.2 0l0 12.29l-34.2 0Z" id="p281w227" />
<path d="M565.14 316.33l33.85 0l0 12.29l-33.85 0Z" id="p281w228" />
<path d="M601.69 316.38l20.09 0l0 12.23l-20.09 0Z" id="p281w229" />
<path d="M624.48 316.33l28.18 0l0 12.29l-28.18 0Z" id="p281w230" />
<path d="M98.54 330.22l65.79 0l0 12.29l-65.79 0Z" id="p281w231" />
<path d="M167.03 330.28l19.64 0l0 12.23l-19.64 0Z" id="p281w232" />
<path d="M189.37 330.22l105.94 0l0 12.29l-105.94 0Z" id="p281w233" />
<path d="M298.01 330.28l24.22 0l0 12.23l-24.22 0Z" id="p281w234" />
<path d="M324.93 330.22l32.87 0l0 12.29l-32.87 0Z" id="p281w235" />
<path d="M360.5 330.22l72.36 0l0 12.29l-72.36 0Z" id="p281w236" />
<path d="M435.56 330.28l18.4 0l0 12.23l-18.4 0Z" id="p281w237" />
<path d="M456.66 330.28l19.64 0l0 12.23l-19.64 0Z" id="p281w238" />
<path d="M479 330.22l48.45 0l0 12.29l-48.45 0Z" id="p281w239" />
<path d="M530.15 330.22l81.47 0l0 12.29l-81.47 0Z" id="p281w240" />
<path d="M614.33 330.28l23.85 0l0 12.23l-23.85 0Z" id="p281w241" />
<path d="M98.55 344.12l32.87 0l0 12.29l-32.87 0Z" id="p281w242" />
<path d="M134.12 344.12l64.11 0l0 12.29l-64.11 0Z" id="p281w243" />
<path d="M200.93 344.12l38.41 0l0 12.29l-38.41 0Z" id="p281w244" />
<path d="M242.05 344.17l24.66 0l0 12.23l-24.66 0Z" id="p281w245" />
<path d="M269.41 344.12l28.3 0l0 12.29l-28.3 0Z" id="p281w246" />
<path d="M300.41 344.12l77.87 0l0 12.29l-77.87 0Z" id="p281w247" />
<path d="M380.99 344.12l33.85 0l0 12.29l-33.85 0Z" id="p281w248" />
<path d="M417.53 344.17l20.67 0l0 12.23l-20.67 0Z" id="p281w249" />
<path d="M440.91 344.12l39.17 0l0 12.29l-39.17 0Z" id="p281w250" />
<path d="M482.78 344.12l39.42 0l0 12.29l-39.42 0Z" id="p281w251" />
<path d="M527.43 344.12l30.63 0l0 12.29l-30.63 0Z" id="p281w252" />
<path d="M560.77 344.12l33.85 0l0 12.29l-33.85 0Z" id="p281w253" />
<path d="M597.31 344.17l20.09 0l0 12.23l-20.09 0Z" id="p281w254" />
<path d="M620.1 344.12l28.7 0l0 12.29l-28.7 0Z" id="p281w255" />
<path d="M98.55 358.01l34.51 0l0 12.29l-34.51 0Z" id="p281w256" />
<path d="M151.17 358.01l40.5 0l0 12.29l-40.5 0Z" id="p281w257" />
<path d="M194.23 358.01l113.25 0l0 12.29l-113.25 0Z" id="p281w258" />
<path d="M310.18 358.07l20.67 0l0 12.23l-20.67 0Z" id="p281w259" />
<path d="M333.56 358.01l45.66 0l0 12.29l-45.66 0Z" id="p281w260" />
<path d="M381.92 358.01l29.97 0l0 12.29l-29.97 0Z" id="p281w261" />
<path d="M414.59 358.01l30.42 0l0 12.29l-30.42 0Z" id="p281w262" />
<path d="M447.71 358.01l43.77 0l0 12.29l-43.77 0Z" id="p281w263" />
<path d="M494.19 358.07l20.91 0l0 12.23l-20.91 0Z" id="p281w264" />
<path d="M517.79 358.01l32.51 0l0 12.29l-32.51 0Z" id="p281w265" />
<path d="M552.86 358.01l27.99 0l0 12.29l-27.99 0Z" id="p281w266" />
<path d="M583.55 358.07l18.82 0l0 12.23l-18.82 0Z" id="p281w267" />
<path d="M605.07 358.01l67.27 0l0 12.29l-67.27 0Z" id="p281w268" />
<path d="M98.56 371.96l25.49 0l0 12.23l-25.49 0Z" id="p281w269" />
<path d="M126.75 371.9l35.08 0l0 12.29l-35.08 0Z" id="p281w270" />
<path d="M164.16 371.9l24.1 0l0 12.29l-24.1 0Z" id="p281w271" />
<path d="M190.96 371.96l18.74 0l0 12.23l-18.74 0Z" id="p281w272" />
<path d="M212.4 371.9l81.22 0l0 12.29l-81.22 0Z" id="p281w273" />
<path d="M296.32 371.96l19.64 0l0 12.23l-19.64 0Z" id="p281w274" />
<path d="M318.67 371.9l44.78 0l0 12.29l-44.78 0Z" id="p281w275" />
<path d="M366.15 371.9l28.53 0l0 12.29l-28.53 0Z" id="p281w276" />
<path d="M397.38 371.96l20.67 0l0 12.23l-20.67 0Z" id="p281w277" />
<path d="M420.76 371.9l42.17 0l0 12.29l-42.17 0Z" id="p281w278" />
<path d="M465.63 371.9l27.81 0l0 12.29l-27.81 0Z" id="p281w279" />
<path d="M495.92 371.9l51.87 0l0 12.29l-51.87 0Z" id="p281w280" />
<path d="M550.35 371.9l43.98 0l0 12.29l-43.98 0Z" id="p281w281" />
<path d="M597.03 371.96l18.82 0l0 12.23l-18.82 0Z" id="p281w282" />
<path d="M618.55 371.9l59.09 0l0 12.29l-59.09 0Z" id="p281w283" />
<path d="M98.57 385.8l36.92 0l0 12.29l-36.92 0Z" id="p281w284" />
<path d="M138.05 385.8l34.67 0l0 12.29l-34.67 0Z" id="p281w285" />
<path d="M175.06 385.8l26.01 0l0 12.29l-26.01 0Z" id="p281w286" />
<path d="M203.62 385.85l25.49 0l0 12.23l-25.49 0Z" id="p281w287" />
<path d="M231.81 385.8l33.83 0l0 12.29l-33.83 0Z" id="p281w288" />
<path d="M268.35 385.85l24.22 0l0 12.23l-24.22 0Z" id="p281w289" />
<path d="M295.27 385.8l36.9 0l0 12.29l-36.9 0Z" id="p281w290" />
<path d="M334.87 385.85l20.67 0l0 12.23l-20.67 0Z" id="p281w291" />
<path d="M358.25 385.8l32.55 0l0 12.29l-32.55 0Z" id="p281w292" />
<path d="M393.49 385.85l20.91 0l0 12.23l-20.91 0Z" id="p281w293" />
<path d="M417.1 385.8l35.7 0l0 12.29l-35.7 0Z" id="p281w294" />
<path d="M455.5 385.85l24.66 0l0 12.23l-24.66 0Z" id="p281w295" />
<path d="M482.87 385.8l42.04 0l0 12.29l-42.04 0Z" id="p281w296" />
<path d="M527.61 385.85l25.49 0l0 12.23l-25.49 0Z" id="p281w297" />
<path d="M555.8 385.8l33.36 0l0 12.29l-33.36 0Z" id="p281w298" />
<path d="M591.85 385.85l25.49 0l0 12.23l-25.49 0Z" id="p281w299" />
<path d="M620.04 385.8l46.53 0l0 12.29l-46.53 0Z" id="p281w300" />
<path d="M98.58 399.75l19.04 0l0 12.23l-19.04 0Z" id="p281w301" />
<path d="M120.33 399.69l43.54 0l0 12.29l-43.54 0Z" id="p281w302" />
<path d="M166.56 399.75l20.67 0l0 12.23l-20.67 0Z" id="p281w303" />
<path d="M189.94 399.69l39.48 0l0 12.29l-39.48 0Z" id="p281w304" />
<path d="M232.12 399.75l19.64 0l0 12.23l-19.64 0Z" id="p281w305" />
<path d="M254.46 399.69l55.46 0l0 12.29l-55.46 0Z" id="p281w306" />
<path d="M312.63 399.75l20.54 0l0 12.23l-20.54 0Z" id="p281w307" />
<path d="M335.87 399.69l68.41 0l0 12.29l-68.41 0Z" id="p281w308" />
<path d="M406.99 399.75l23.4 0l0 12.23l-23.4 0Z" id="p281w309" />
<path d="M433.08 399.69l56.35 0l0 12.29l-56.35 0Z" id="p281w310" />
<path d="M492.14 399.75l20.91 0l0 12.23l-20.91 0Z" id="p281w311" />
<path d="M515.75 399.69l55.59 0l0 12.29l-55.59 0Z" id="p281w312" />
<path d="M574.04 399.75l19.64 0l0 12.23l-19.64 0Z" id="p281w313" />
<path d="M596.38 399.69l60.22 0l0 12.29l-60.22 0Z" id="p281w314" />
<path d="M659.3 399.75l20.23 0l0 12.23l-20.23 0Z" id="p281w315" />
<path d="M98.59 413.59l69.29 0l0 12.29l-69.29 0Z" id="p281w316" />
<path d="M170.59 413.64l24.66 0l0 12.23l-24.66 0Z" id="p281w317" />
<path d="M197.95 413.59l64.9 0l0 12.29l-64.9 0Z" id="p281w318" />
<path d="M265.56 413.64l20.91 0l0 12.23l-20.91 0Z" id="p281w319" />
<path d="M289.17 413.59l39.84 0l0 12.29l-39.84 0Z" id="p281w320" />
<path d="M331.7 413.59l25.3 0l0 12.29l-25.3 0Z" id="p281w321" />
<path d="M359.7 413.64l20.91 0l0 12.23l-20.91 0Z" id="p281w322" />
<path d="M383.31 413.59l72.96 0l0 12.29l-72.96 0Z" id="p281w323" />
<path d="M458.97 413.64l19.64 0l0 12.23l-19.64 0Z" id="p281w324" />
<path d="M481.31 413.59l75.91 0l0 12.29l-75.91 0Z" id="p281w325" />
<path d="M559.92 413.64l25.49 0l0 12.23l-25.49 0Z" id="p281w326" />
<path d="M588.11 413.59l72.87 0l0 12.29l-72.87 0Z" id="p281w327" />
<path d="M98.61 427.54l24.66 0l0 12.23l-24.66 0Z" id="p281w328" />
<path d="M125.97 427.48l31.89 0l0 12.29l-31.89 0Z" id="p281w329" />
<path d="M160.56 427.48l44.98 0l0 12.29l-44.98 0Z" id="p281w330" />
<path d="M208.25 427.54l20.67 0l0 12.23l-20.67 0Z" id="p281w331" />
<path d="M231.62 427.48l27.02 0l0 12.29l-27.02 0Z" id="p281w332" />
<path d="M261.34 427.48l42.17 0l0 12.29l-42.17 0Z" id="p281w333" />
<path d="M306.22 427.54l18.82 0l0 12.23l-18.82 0Z" id="p281w334" />
<path d="M327.74 427.48l82.09 0l0 12.29l-82.09 0Z" id="p281w335" />
<path d="M412.52 427.54l29.62 0l0 12.23l-29.62 0Z" id="p281w336" />
<path d="M444.84 427.48l119.78 0l0 12.29l-119.78 0Z" id="p281w337" />
<path d="M567.32 427.54l24.22 0l0 12.23l-24.22 0Z" id="p281w338" />
<path d="M594.24 427.48l55.48 0l0 12.29l-55.48 0Z" id="p281w339" />
<path d="M98.62 441.37l32.39 0l0 12.29l-32.39 0Z" id="p281w340" />
<path d="M133.71 441.37l34.28 0l0 12.29l-34.28 0Z" id="p281w341" />
<path d="M170.69 441.37l39.25 0l0 12.29l-39.25 0Z" id="p281w342" />
<path d="M212.63 441.37l57.2 0l0 12.29l-57.2 0Z" id="p281w343" />
<path d="M272.53 441.37l66.88 0l0 12.29l-66.88 0Z" id="p281w344" />
<path d="M342.12 441.43l25.49 0l0 12.23l-25.49 0Z" id="p281w345" />
<path d="M370.31 441.37l41.15 0l0 12.29l-41.15 0Z" id="p281w346" />
<path d="M414.16 441.37l61.19 0l0 12.29l-61.19 0Z" id="p281w347" />
<path d="M478.05 441.37l12.03 0l0 12.29l-12.03 0Z" id="p281w348" />
<path d="M492.77 441.37l51.97 0l0 12.29l-51.97 0Z" id="p281w349" />
<path d="M560.27 441.37l45.09 0l0 12.29l-45.09 0Z" id="p281w350" />
<path d="M608.06 441.37l11.68 0l0 12.29l-11.68 0Z" id="p281w351" />
<path d="M622.44 441.37l8.45 0l0 12.29l-8.45 0Z" id="p281w352" />
<path d="M633.59 441.37l33.97 0l0 12.29l-33.97 0Z" id="p281w353" />
<path d="M98.62 455.27l9.57 0l0 12.29l-9.57 0Z" id="p281w354" />
<path d="M110.89 455.27l11.68 0l0 12.29l-11.68 0Z" id="p281w355" />
<path d="M125.27 455.27l8.45 0l0 12.29l-8.45 0Z" id="p281w356" />
<path d="M136.42 455.27l76.59 0l0 12.29l-76.59 0Z" id="p281w357" />
<path d="M215.57 455.27l39.27 0l0 12.29l-39.27 0Z" id="p281w358" />
<path d="M257.54 455.27l17.5 0l0 12.29l-17.5 0Z" id="p281w359" />
<path d="M277.74 455.27l31.07 0l0 12.29l-31.07 0Z" id="p281w360" />
<path d="M314.03 455.27l29.47 0l0 12.29l-29.47 0Z" id="p281w361" />
<path d="M346.2 455.27l32.91 0l0 12.29l-32.91 0Z" id="p281w362" />
<path d="M381.81 455.27l47.63 0l0 12.29l-47.63 0Z" id="p281w363" />
<path d="M432.14 455.32l20.01 0l0 12.23l-20.01 0Z" id="p281w364" />
<path d="M454.85 455.27l41.15 0l0 12.29l-41.15 0Z" id="p281w365" />
<path d="M498.7 455.27l61.19 0l0 12.29l-61.19 0Z" id="p281w366" />
<path d="M562.59 455.27l12.03 0l0 12.29l-12.03 0Z" id="p281w367" />
<path d="M577.31 455.27l54.59 0l0 12.29l-54.59 0Z" id="p281w368" />
<path d="M98.62 469.16l357.64 0l0 12.29l-357.64 0Z" id="p281w369" />
<path d="M458.95 469.22l20.01 0l0 12.23l-20.01 0Z" id="p281w370" />
<path d="M481.66 469.16l54.86 0l0 12.29l-54.86 0Z" id="p281w371" />
<path d="M539.22 469.16l42.34 0l0 12.29l-42.34 0Z" id="p281w372" />
<path d="M584.12 469.16l42.93 0l0 12.29l-42.93 0Z" id="p281w373" />
<path d="M629.75 469.22l29.62 0l0 12.23l-29.62 0Z" id="p281w374" />
<path d="M98.62 483.06l23.93 0l0 12.29l-23.93 0Z" id="p281w375" />
<path d="M125.25 483.06l23.14 0l0 12.29l-23.14 0Z" id="p281w376" />
<path d="M151.09 483.11l25.25 0l0 12.23l-25.25 0Z" id="p281w377" />
<path d="M179.05 483.06l34.86 0l0 12.29l-34.86 0Z" id="p281w378" />
<path d="M216.61 483.06l27.4 0l0 12.29l-27.4 0Z" id="p281w379" />
<path d="M246.71 483.11l24.22 0l0 12.23l-24.22 0Z" id="p281w380" />
<path d="M273.63 483.06l43.63 0l0 12.29l-43.63 0Z" id="p281w381" />
<path d="M319.95 483.06l35.4 0l0 12.29l-35.4 0Z" id="p281w382" />
<path d="M358.06 483.11l25.49 0l0 12.23l-25.49 0Z" id="p281w383" />
<path d="M386.25 483.06l36.16 0l0 12.29l-36.16 0Z" id="p281w384" />
<path d="M425.1 483.06l44.86 0l0 12.29l-44.86 0Z" id="p281w385" />
<path d="M472.67 483.11l25.49 0l0 12.23l-25.49 0Z" id="p281w386" />
<path d="M500.85 483.06l92.13 0l0 12.29l-92.13 0Z" id="p281w387" />
<path d="M595.69 483.11l24.03 0l0 12.23l-24.03 0Z" id="p281w388" />
<path d="M622.2 483.11l25.3 0l0 12.23l-25.3 0Z" id="p281w389" />
<path d="M98.63 497.01l25.3 0l0 12.23l-25.3 0Z" id="p281w390" />
<path d="M126.4 497.01l25.3 0l0 12.23l-25.3 0Z" id="p281w391" />
<path d="M154.18 497.01l25.3 0l0 12.23l-25.3 0Z" id="p281w392" />
<path d="M181.96 497.01l24.4 0l0 12.23l-24.4 0Z" id="p281w393" />
<path d="M208.83 497.01l25.3 0l0 12.23l-25.3 0Z" id="p281w394" />
<path d="M236.61 497.01l25.49 0l0 12.23l-25.49 0Z" id="p281w395" />
<path d="M264.8 496.95l36.72 0l0 12.29l-36.72 0Z" id="p281w396" />
<path d="M304.08 496.95l19.99 0l0 12.29l-19.99 0Z" id="p281w397" />
<path d="M326.62 496.95l45.06 0l0 12.29l-45.06 0Z" id="p281w398" />
<path d="M374.39 497.01l20.09 0l0 12.23l-20.09 0Z" id="p281w399" />
<path d="M397.17 496.95l17.27 0l0 12.29l-17.27 0Z" id="p281w400" />
<path d="M417 496.95l21.12 0l0 12.29l-21.12 0Z" id="p281w401" />
<path d="M440.82 497.01l20.91 0l0 12.23l-20.91 0Z" id="p281w402" />
<path d="M464.43 496.95l84.09 0l0 12.29l-84.09 0Z" id="p281w403" />
<path d="M551.22 497.01l19.27 0l0 12.23l-19.27 0Z" id="p281w404" />
<path d="M573.19 496.95l33.57 0l0 12.29l-33.57 0Z" id="p281w405" />
<path d="M609.46 496.95l37.15 0l0 12.29l-37.15 0Z" id="p281w406" />
<path d="M98.64 510.84l43 0l0 12.29l-43 0Z" id="p281w407" />
<path d="M144.35 510.9l20.91 0l0 12.23l-20.91 0Z" id="p281w408" />
<path d="M167.95 510.84l35.05 0l0 12.29l-35.05 0Z" id="p281w409" />
<path d="M205.7 510.84l74.08 0l0 12.29l-74.08 0Z" id="p281w410" />
<path d="M282.48 510.9l20.01 0l0 12.23l-20.01 0Z" id="p281w411" />
<path d="M305.19 510.84l39.5 0l0 12.29l-39.5 0Z" id="p281w412" />
<path d="M347.4 510.84l65.19 0l0 12.29l-65.19 0Z" id="p281w413" />
<path d="M415.29 510.9l23.03 0l0 12.23l-23.03 0Z" id="p281w414" />
<path d="M441.02 510.84l31.53 0l0 12.29l-31.53 0Z" id="p281w415" />
<path d="M475.26 510.84l82.7 0l0 12.29l-82.7 0Z" id="p281w416" />
<path d="M560.65 510.9l25.49 0l0 12.23l-25.49 0Z" id="p281w417" />
<path d="M588.84 510.84l45.47 0l0 12.29l-45.47 0Z" id="p281w418" />
<path d="M637.02 510.84l35.28 0l0 12.29l-35.28 0Z" id="p281w419" />
<path d="M98.65 524.74l42.39 0l0 12.29l-42.39 0Z" id="p281w420" />
<path d="M143.74 524.79l20.91 0l0 12.23l-20.91 0Z" id="p281w421" />
<path d="M167.35 524.74l45.47 0l0 12.29l-45.47 0Z" id="p281w422" />
<path d="M215.53 524.74l76.84 0l0 12.29l-76.84 0Z" id="p281w423" />
<path d="M295.07 524.79l18.45 0l0 12.23l-18.45 0Z" id="p281w424" />
<path d="M316.22 524.74l42 0l0 12.29l-42 0Z" id="p281w425" />
<path d="M360.93 524.74l83.06 0l0 12.29l-83.06 0Z" id="p281w426" />
<path d="M446.69 524.79l20.67 0l0 12.23l-20.67 0Z" id="p281w427" />
<path d="M470.07 524.74l35.05 0l0 12.29l-35.05 0Z" id="p281w428" />
<path d="M507.81 524.74l124.87 0l0 12.29l-124.87 0Z" id="p281w429" />
<path d="M635.38 524.79l20.91 0l0 12.23l-20.91 0Z" id="p281w430" />
<path d="M98.66 538.63l10.83 0l0 12.29l-10.83 0Z" id="p281w431" />
<path d="M112.19 538.63l18.32 0l0 12.29l-18.32 0Z" id="p281w432" />
<path d="M133.21 538.63l34.62 0l0 12.29l-34.62 0Z" id="p281w433" />
<path d="M170.53 538.63l11.68 0l0 12.29l-11.68 0Z" id="p281w434" />
<path d="M184.92 538.63l40.89 0l0 12.29l-40.89 0Z" id="p281w435" />
<path d="M228.51 538.63l12.03 0l0 12.29l-12.03 0Z" id="p281w436" />
<path d="M243.24 538.63l19.93 0l0 12.29l-19.93 0Z" id="p281w437" />
<path d="M265.87 538.63l11.68 0l0 12.29l-11.68 0Z" id="p281w438" />
<path d="M280.25 538.63l27.22 0l0 12.29l-27.22 0Z" id="p281w439" />
<path d="M310.17 538.63l32.72 0l0 12.29l-32.72 0Z" id="p281w440" />
<path d="M358.41 538.63l38.25 0l0 12.29l-38.25 0Z" id="p281w441" />
<path d="M398.99 538.63l32.61 0l0 12.29l-32.61 0Z" id="p281w442" />
<path d="M434.3 538.63l41.49 0l0 12.29l-41.49 0Z" id="p281w443" />
<path d="M478.35 538.63l23.4 0l0 12.29l-23.4 0Z" id="p281w444" />
<path d="M504.31 538.63l54.5 0l0 12.29l-54.5 0Z" id="p281w445" />
<path d="M561.5 538.63l45.06 0l0 12.29l-45.06 0Z" id="p281w446" />
<path d="M609.27 538.63l43.85 0l0 12.29l-43.85 0Z" id="p281w447" />
<path d="M98.66 552.58l18.74 0l0 12.23l-18.74 0Z" id="p281w448" />
<path d="M120.1 552.53l10.83 0l0 12.29l-10.83 0Z" id="p281w449" />
<path d="M133.26 552.53l20.35 0l0 12.29l-20.35 0Z" id="p281w450" />
<path d="M156.32 552.53l11.68 0l0 12.29l-11.68 0Z" id="p281w451" />
<path d="M170.7 552.53l44.15 0l0 12.29l-44.15 0Z" id="p281w452" />
<path d="M217.4 552.53l15.59 0l0 12.29l-15.59 0Z" id="p281w453" />
<path d="M235.7 552.53l44.61 0l0 12.29l-44.61 0Z" id="p281w454" />
<path d="M283.01 552.53l15.09 0l0 12.29l-15.09 0Z" id="p281w455" />
<path d="M313.62 552.53l28.7 0l0 12.29l-28.7 0Z" id="p281w456" />
<path d="M345.02 552.53l37.89 0l0 12.29l-37.89 0Z" id="p281w457" />
<path d="M385.61 552.53l9.57 0l0 12.29l-9.57 0Z" id="p281w458" />
<path d="M397.88 552.53l44.61 0l0 12.29l-44.61 0Z" id="p281w459" />
<path d="M445.19 552.53l17.71 0l0 12.29l-17.71 0Z" id="p281w460" />
<path d="M465.45 552.53l20.79 0l0 12.29l-20.79 0Z" id="p281w461" />
<path d="M488.93 552.58l20.35 0l0 12.23l-20.35 0Z" id="p281w462" />
<path d="M511.98 552.58l19.27 0l0 12.23l-19.27 0Z" id="p281w463" />
<path d="M533.95 552.53l45.42 0l0 12.29l-45.42 0Z" id="p281w464" />
<path d="M582.07 552.53l34.51 0l0 12.29l-34.51 0Z" id="p281w465" />
<path d="M619.29 552.53l44.86 0l0 12.29l-44.86 0Z" id="p281w466" />
<path d="M98.66 566.42l54.59 0l0 12.29l-54.59 0Z" id="p281w467" />
<path d="M155.95 566.48l25.49 0l0 12.23l-25.49 0Z" id="p281w468" />
<path d="M184.14 566.42l81.51 0l0 12.29l-81.51 0Z" id="p281w469" />
<path d="M268.35 566.48l25.49 0l0 12.23l-25.49 0Z" id="p281w470" />
<path d="M296.53 566.42l76.77 0l0 12.29l-76.77 0Z" id="p281w471" />
<path d="M376.01 566.48l18.82 0l0 12.23l-18.82 0Z" id="p281w472" />
<path d="M397.53 566.42l76.74 0l0 12.29l-76.74 0Z" id="p281w473" />
<path d="M476.97 566.48l24.22 0l0 12.23l-24.22 0Z" id="p281w474" />
<path d="M503.89 566.42l29.5 0l0 12.29l-29.5 0Z" id="p281w475" />
<path d="M536.09 566.42l59.27 0l0 12.29l-59.27 0Z" id="p281w476" />
<path d="M598.06 566.48l20.91 0l0 12.23l-20.91 0Z" id="p281w477" />
<path d="M621.67 566.42l33.39 0l0 12.29l-33.39 0Z" id="p281w478" />
<path d="M98.67 580.31l72.19 0l0 12.29l-72.19 0Z" id="p281w479" />
<path d="M173.57 580.37l20.91 0l0 12.23l-20.91 0Z" id="p281w480" />
<path d="M197.18 580.31l72.4 0l0 12.29l-72.4 0Z" id="p281w481" />
<path d="M272.28 580.31l43.66 0l0 12.29l-43.66 0Z" id="p281w482" />
<path d="M318.64 580.37l25.49 0l0 12.23l-25.49 0Z" id="p281w483" />
<path d="M346.83 580.31l41.12 0l0 12.29l-41.12 0Z" id="p281w484" />
<path d="M390.65 580.31l71.5 0l0 12.29l-71.5 0Z" id="p281w485" />
<path d="M464.85 580.37l20.91 0l0 12.23l-20.91 0Z" id="p281w486" />
<path d="M488.46 580.31l101.57 0l0 12.29l-101.57 0Z" id="p281w487" />
<path d="M592.73 580.31l32.98 0l0 12.29l-32.98 0Z" id="p281w488" />
<path d="M628.41 580.37l24.66 0l0 12.23l-24.66 0Z" id="p281w489" />
<path d="M98.68 594.21l17 0l0 12.29l-17 0Z" id="p281w490" />
<path d="M115.68 594.21l16.32 0l0 12.29l-16.32 0Z" id="p281w491" />
<path d="M140.32 594.21l39.59 0l0 12.29l-39.59 0Z" id="p281w492" />
<path d="M182.61 594.21l43.16 0l0 12.29l-43.16 0Z" id="p281w493" />
<path d="M231 594.21l32.73 0l0 12.29l-32.73 0Z" id="p281w494" />
<path d="M272.06 594.21l55.94 0l0 12.29l-55.94 0Z" id="p281w495" />
<path d="M330.7 594.21l36.29 0l0 12.29l-36.29 0Z" id="p281w496" />
<path d="M385.04 594.21l20.79 0l0 12.29l-20.79 0Z" id="p281w497" />
<path d="M408.52 594.21l34.09 0l0 12.29l-34.09 0Z" id="p281w498" />
<path d="M453.42 594.21l27.41 0l0 12.29l-27.41 0Z" id="p281w499" />
<path d="M486.05 594.21l50.52 0l0 12.29l-50.52 0Z" id="p281w500" />
<path d="M541.8 594.21l30.23 0l0 12.29l-30.23 0Z" id="p281w501" />
<path d="M574.73 594.21l61.97 0l0 12.29l-61.97 0Z" id="p281w502" />
<path d="M98.68 608.1l37.31 0l0 12.29l-37.31 0Z" id="p281w503" />
<path d="M146.8 608.1l38.41 0l0 12.29l-38.41 0Z" id="p281w504" />
<path d="M190.44 608.1l33.47 0l0 12.29l-33.47 0Z" id="p281w505" />
<path d="M226.61 608.1l29.27 0l0 12.29l-29.27 0Z" id="p281w506" />
<path d="M261.1 608.1l31.23 0l0 12.29l-31.23 0Z" id="p281w507" />
<path d="M295.04 608.1l18.2 0l0 12.29l-18.2 0Z" id="p281w508" />
<path d="M315.94 608.1l61.97 0l0 12.29l-61.97 0Z" id="p281w509" />
<path d="M383.13 608.1l18.33 0l0 12.29l-18.33 0Z" id="p281w510" />
<path d="M404.16 608.1l29.27 0l0 12.29l-29.27 0Z" id="p281w511" />
<path d="M436.13 608.16l19.64 0l0 12.23l-19.64 0Z" id="p281w512" />
<path d="M458.47 608.1l75.83 0l0 12.29l-75.83 0Z" id="p281w513" />
<path d="M536.86 608.1l44.19 0l0 12.29l-44.19 0Z" id="p281w514" />
<path d="M583.75 608.16l25.3 0l0 12.23l-25.3 0Z" id="p281w515" />
<path d="M611.75 608.16l20.72 0l0 12.23l-20.72 0Z" id="p281w516" />
<path d="M635.17 608.16l20.72 0l0 12.23l-20.72 0Z" id="p281w517" />
<path d="M98.7 622.05l20.91 0l0 12.23l-20.91 0Z" id="p281w518" />
<path d="M122.3 622l35.84 0l0 12.29l-35.84 0Z" id="p281w519" />
<path d="M160.84 622l22.01 0l0 12.29l-22.01 0Z" id="p281w520" />
<path d="M185.55 622.05l19.41 0l0 12.23l-19.41 0Z" id="p281w521" />
<path d="M207.66 622l44.05 0l0 12.29l-44.05 0Z" id="p281w522" />
<path d="M254.41 622l25.74 0l0 12.29l-25.74 0Z" id="p281w523" />
<path d="M282.85 622.05l20.01 0l0 12.23l-20.01 0Z" id="p281w524" />
<path d="M305.56 622l36.3 0l0 12.29l-36.3 0Z" id="p281w525" />
<path d="M344.56 622l47.14 0l0 12.29l-47.14 0Z" id="p281w526" />
<path d="M394.4 622l28.87 0l0 12.29l-28.87 0Z" id="p281w527" />
<path d="M425.97 622.05l24.66 0l0 12.23l-24.66 0Z" id="p281w528" />
<path d="M453.34 622l22.19 0l0 12.29l-22.19 0Z" id="p281w529" />
<path d="M478.08 622l22.98 0l0 12.29l-22.98 0Z" id="p281w530" />
<path d="M503.61 622l70.51 0l0 12.29l-70.51 0Z" id="p281w531" />
<path d="M576.83 622.05l25.49 0l0 12.23l-25.49 0Z" id="p281w532" />
<path d="M605.02 622l23.93 0l0 12.29l-23.93 0Z" id="p281w533" />
<path d="M631.65 622l23.14 0l0 12.29l-23.14 0Z" id="p281w534" />
<path d="M98.71 635.95l25.3 0l0 12.23l-25.3 0Z" id="p281w535" />
<path d="M126.48 635.95l25.49 0l0 12.23l-25.49 0Z" id="p281w536" />
<path d="M154.67 635.89l36.2 0l0 12.29l-36.2 0Z" id="p281w537" />
<path d="M193.57 635.89l43.31 0l0 12.29l-43.31 0Z" id="p281w538" />
<path d="M239.59 635.89l101.96 0l0 12.29l-101.96 0Z" id="p281w539" />
<path d="M344.1 635.89l44.19 0l0 12.29l-44.19 0Z" id="p281w540" />
<path d="M391 635.95l24.22 0l0 12.23l-24.22 0Z" id="p281w541" />
<path d="M417.92 635.89l26.21 0l0 12.29l-26.21 0Z" id="p281w542" />
<path d="M446.83 635.89l11.68 0l0 12.29l-11.68 0Z" id="p281w543" />
<path d="M461.22 635.89l66.05 0l0 12.29l-66.05 0Z" id="p281w544" />
<path d="M529.82 635.89l43.3 0l0 12.29l-43.3 0Z" id="p281w545" />
<path d="M575.82 635.89l19.83 0l0 12.29l-19.83 0Z" id="p281w546" />
<path d="M598.35 635.89l19.28 0l0 12.29l-19.28 0Z" id="p281w547" />
<path d="M619.97 635.89l16.47 0l0 12.29l-16.47 0Z" id="p281w548" />
<path d="M638.93 635.95l20.91 0l0 12.23l-20.91 0Z" id="p281w549" />
<path d="M98.72 649.78l61.72 0l0 12.29l-61.72 0Z" id="p281w550" />
<path d="M163 649.78l21.09 0l0 12.29l-21.09 0Z" id="p281w551" />
<path d="M186.42 649.78l23.22 0l0 12.29l-23.22 0Z" id="p281w552" />
<path d="M212.19 649.78l12.98 0l0 12.29l-12.98 0Z" id="p281w553" />
<path d="M227.88 649.84l19.64 0l0 12.23l-19.64 0Z" id="p281w554" />
<path d="M250.22 649.78l29.84 0l0 12.29l-29.84 0Z" id="p281w555" />
<path d="M282.76 649.84l23.4 0l0 12.23l-23.4 0Z" id="p281w556" />
<path d="M308.86 649.78l27.89 0l0 12.29l-27.89 0Z" id="p281w557" />
<path d="M339.45 649.84l19.64 0l0 12.23l-19.64 0Z" id="p281w558" />
<path d="M361.79 649.78l36.96 0l0 12.29l-36.96 0Z" id="p281w559" />
<path d="M401.45 649.84l25.49 0l0 12.23l-25.49 0Z" id="p281w560" />
<path d="M429.64 649.78l36.92 0l0 12.29l-36.92 0Z" id="p281w561" />
<path d="M489.79 649.78l45.27 0l0 12.29l-45.27 0Z" id="p281w562" />
<path d="M537.77 649.84l24.22 0l0 12.23l-24.22 0Z" id="p281w563" />
<path d="M564.69 649.78l48.82 0l0 12.29l-48.82 0Z" id="p281w564" />
<path d="M616.21 649.84l25.49 0l0 12.23l-25.49 0Z" id="p281w565" />
<path d="M98.73 663.68l18.56 0l0 12.29l-18.56 0Z" id="p281w566" />
<path d="M119.99 663.68l22.62 0l0 12.29l-22.62 0Z" id="p281w567" />
<path d="M145.31 663.73l20.01 0l0 12.23l-20.01 0Z" id="p281w568" />
<path d="M168.02 663.68l50.01 0l0 12.29l-50.01 0Z" id="p281w569" />
<path d="M220.73 663.73l24.66 0l0 12.23l-24.66 0Z" id="p281w570" />
<path d="M248.09 663.68l44.19 0l0 12.29l-44.19 0Z" id="p281w571" />
<path d="M294.99 663.73l24.66 0l0 12.23l-24.66 0Z" id="p281w572" />
<path d="M322.36 663.68l52.39 0l0 12.29l-52.39 0Z" id="p281w573" />
<path d="M377.44 663.73l19.41 0l0 12.23l-19.41 0Z" id="p281w574" />
<path d="M399.55 663.68l51.87 0l0 12.29l-51.87 0Z" id="p281w575" />
<path d="M454.13 663.73l19.64 0l0 12.23l-19.64 0Z" id="p281w576" />
<path d="M476.47 663.68l50.61 0l0 12.29l-50.61 0Z" id="p281w577" />
<path d="M529.78 663.73l22.57 0l0 12.23l-22.57 0Z" id="p281w578" />
<path d="M555.05 663.68l57.74 0l0 12.29l-57.74 0Z" id="p281w579" />
<path d="M615.5 663.73l20.67 0l0 12.23l-20.67 0Z" id="p281w580" />
<path d="M98.74 677.57l29.01 0l0 12.29l-29.01 0Z" id="p281w581" />
<path d="M130.45 677.57l26.88 0l0 12.29l-26.88 0Z" id="p281w582" />
<path d="M160.03 677.63l25.49 0l0 12.23l-25.49 0Z" id="p281w583" />
<path d="M188.22 677.57l23.99 0l0 12.29l-23.99 0Z" id="p281w584" />
<path d="M214.9 677.57l33.96 0l0 12.29l-33.96 0Z" id="p281w585" />
<path d="M251.56 677.63l19.64 0l0 12.23l-19.64 0Z" id="p281w586" />
<path d="M273.9 677.57l56.39 0l0 12.29l-56.39 0Z" id="p281w587" />
<path d="M332.99 677.63l18.74 0l0 12.23l-18.74 0Z" id="p281w588" />
<path d="M354.43 677.57l29.64 0l0 12.29l-29.64 0Z" id="p281w589" />
<path d="M386.78 677.57l27.57 0l0 12.29l-27.57 0Z" id="p281w590" />
<path d="M417.05 677.63l19.64 0l0 12.23l-19.64 0Z" id="p281w591" />
<path d="M439.39 677.57l38.47 0l0 12.29l-38.47 0Z" id="p281w592" />
<path d="M480.56 677.57l32.75 0l0 12.29l-32.75 0Z" id="p281w593" />
<path d="M516 677.63l20.09 0l0 12.23l-20.09 0Z" id="p281w594" />
<path d="M538.79 677.57l77.41 0l0 12.29l-77.41 0Z" id="p281w595" />
<path d="M618.9 677.63l20.09 0l0 12.23l-20.09 0Z" id="p281w596" />
<path d="M98.75 691.47l40.27 0l0 12.29l-40.27 0Z" id="p281w597" />
<path d="M141.72 691.47l39.51 0l0 12.29l-39.51 0Z" id="p281w598" />
<path d="M183.94 691.52l19.41 0l0 12.23l-19.41 0Z" id="p281w599" />
<path d="M206.05 691.47l35.27 0l0 12.29l-35.27 0Z" id="p281w600" />
<path d="M244.02 691.47l48.45 0l0 12.29l-48.45 0Z" id="p281w601" />
<path d="M295.17 691.52l25.3 0l0 12.23l-25.3 0Z" id="p281w602" />
<path d="M322.94 691.52l24.66 0l0 12.23l-24.66 0Z" id="p281w603" />
<path d="M350.31 691.47l30.76 0l0 12.29l-30.76 0Z" id="p281w604" />
<path d="M383.77 691.47l54.34 0l0 12.29l-54.34 0Z" id="p281w605" />
<path d="M440.81 691.52l23.4 0l0 12.23l-23.4 0Z" id="p281w606" />
<path d="M466.91 691.47l41.64 0l0 12.29l-41.64 0Z" id="p281w607" />
<path d="M511.25 691.47l49.15 0l0 12.29l-49.15 0Z" id="p281w608" />
<path d="M563.1 691.52l20.91 0l0 12.23l-20.91 0Z" id="p281w609" />
<path d="M586.71 691.47l41.13 0l0 12.29l-41.13 0Z" id="p281w610" />
<path d="M98.76 705.36l50.85 0l0 12.29l-50.85 0Z" id="p281w611" />
<path d="M152.31 705.42l25.49 0l0 12.23l-25.49 0Z" id="p281w612" />
<path d="M180.5 705.36l35.59 0l0 12.29l-35.59 0Z" id="p281w613" />
<path d="M218.79 705.36l53.73 0l0 12.29l-53.73 0Z" id="p281w614" />
<path d="M275.23 705.42l23.84 0l0 12.23l-23.84 0Z" id="p281w615" />
<path d="M301.77 705.36l38.9 0l0 12.29l-38.9 0Z" id="p281w616" />
<path d="M343.37 705.36l57.54 0l0 12.29l-57.54 0Z" id="p281w617" />
<path d="M403.62 705.42l20.09 0l0 12.23l-20.09 0Z" id="p281w618" />
<path d="M426.4 705.36l41.44 0l0 12.29l-41.44 0Z" id="p281w619" />
<path d="M470.54 705.36l38.38 0l0 12.29l-38.38 0Z" id="p281w620" />
<path d="M519.73 705.36l38.68 0l0 12.29l-38.68 0Z" id="p281w621" />
<path d="M561.11 705.42l20.09 0l0 12.23l-20.09 0Z" id="p281w622" />
<path d="M583.9 705.36l48.27 0l0 12.29l-48.27 0Z" id="p281w623" />
<path d="M634.87 705.36l14.52 0l0 12.29l-14.52 0Z" id="p281w624" />
<path d="M98.77 719.25l38.45 0l0 12.29l-38.45 0Z" id="p281w625" />
<path d="M139.78 719.25l42.92 0l0 12.29l-42.92 0Z" id="p281w626" />
<path d="M185.39 719.31l20.91 0l0 12.23l-20.91 0Z" id="p281w627" />
<path d="M208.64 719.25l53.34 0l0 12.29l-53.34 0Z" id="p281w628" />
<path d="M264.53 719.25l43.98 0l0 12.29l-43.98 0Z" id="p281w629" />
<path d="M311.22 719.31l25.49 0l0 12.23l-25.49 0Z" id="p281w630" />
<path d="M339.41 719.25l38.8 0l0 12.29l-38.8 0Z" id="p281w631" />
<path d="M380.91 719.31l23.84 0l0 12.23l-23.84 0Z" id="p281w632" />
<path d="M407.45 719.25l44.31 0l0 12.29l-44.31 0Z" id="p281w633" />
<path d="M454.46 719.31l25.49 0l0 12.23l-25.49 0Z" id="p281w634" />
<path d="M482.65 719.25l43.64 0l0 12.29l-43.64 0Z" id="p281w635" />
<path d="M528.99 719.31l20.09 0l0 12.23l-20.09 0Z" id="p281w636" />
<path d="M551.77 719.25l43.85 0l0 12.29l-43.85 0Z" id="p281w637" />
<path d="M598.32 719.31l25.49 0l0 12.23l-25.49 0Z" id="p281w638" />
<path d="M98.78 733.15l54.91 0l0 12.29l-54.91 0Z" id="p281w639" />
<path d="M156.39 733.2l25.49 0l0 12.23l-25.49 0Z" id="p281w640" />
<path d="M184.58 733.15l43.91 0l0 12.29l-43.91 0Z" id="p281w641" />
<path d="M231.19 733.2l19.64 0l0 12.23l-19.64 0Z" id="p281w642" />
<path d="M253.53 733.15l53.35 0l0 12.29l-53.35 0Z" id="p281w643" />
<path d="M309.58 733.2l19.18 0l0 12.23l-19.18 0Z" id="p281w644" />
<path d="M331.47 733.15l23.89 0l0 12.29l-23.89 0Z" id="p281w645" />
<path d="M357.83 733.15l31.52 0l0 12.29l-31.52 0Z" id="p281w646" />
<path d="M392.06 733.2l23.4 0l0 12.23l-23.4 0Z" id="p281w647" />
<path d="M418.16 733.15l62.2 0l0 12.29l-62.2 0Z" id="p281w648" />
<path d="M483.06 733.2l20.91 0l0 12.23l-20.91 0Z" id="p281w649" />
<path d="M506.67 733.15l60.29 0l0 12.29l-60.29 0Z" id="p281w650" />
<path d="M569.66 733.2l18.82 0l0 12.23l-18.82 0Z" id="p281w651" />
<path d="M591.18 733.15l21.34 0l0 12.29l-21.34 0Z" id="p281w652" />
<path d="M615.22 733.15l32.72 0l0 12.29l-32.72 0Z" id="p281w653" />
<path d="M98.79 747.1l20.91 0l0 12.23l-20.91 0Z" id="p281w654" />
<path d="M122.4 747.04l22.03 0l0 12.29l-22.03 0Z" id="p281w655" />
<path d="M147.13 747.04l36.61 0l0 12.29l-36.61 0Z" id="p281w656" />
<path d="M186.45 747.1l24.22 0l0 12.23l-24.22 0Z" id="p281w657" />
<path d="M213.37 747.04l63.61 0l0 12.29l-63.61 0Z" id="p281w658" />
<path d="M279.68 747.1l20.91 0l0 12.23l-20.91 0Z" id="p281w659" />
<path d="M303.29 747.04l69.19 0l0 12.29l-69.19 0Z" id="p281w660" />
<path d="M375.19 747.1l24.22 0l0 12.23l-24.22 0Z" id="p281w661" />
<path d="M402.11 747.04l69.5 0l0 12.29l-69.5 0Z" id="p281w662" />
<path d="M474.31 747.1l20.67 0l0 12.23l-20.67 0Z" id="p281w663" />
<path d="M497.35 747.04l75.29 0l0 12.29l-75.29 0Z" id="p281w664" />
<path d="M575.34 747.1l29.62 0l0 12.23l-29.62 0Z" id="p281w665" />
<path d="M607.66 747.04l55.95 0l0 12.29l-55.95 0Z" id="p281w666" />
<path d="M98.47 760.94l33.23 0l0 12.29l-33.23 0Z" id="p281w667" />
<path d="M134.4 760.99l25.49 0l0 12.23l-25.49 0Z" id="p281w668" />
<path d="M162.59 760.94l33.4 0l0 12.29l-33.4 0Z" id="p281w669" />
<path d="M198.69 760.94l55.61 0l0 12.29l-55.61 0Z" id="p281w670" />
<path d="M257 760.99l18.82 0l0 12.23l-18.82 0Z" id="p281w671" />
<path d="M278.52 760.94l95.27 0l0 12.29l-95.27 0Z" id="p281w672" />
<path d="M376.49 760.99l24.66 0l0 12.23l-24.66 0Z" id="p281w673" />
<path d="M403.86 760.94l35.48 0l0 12.29l-35.48 0Z" id="p281w674" />
<path d="M442.04 760.94l24.44 0l0 12.29l-24.44 0Z" id="p281w675" />
<path d="M469.18 760.94l52.94 0l0 12.29l-52.94 0Z" id="p281w676" />
<path d="M524.82 760.99l20.67 0l0 12.23l-20.67 0Z" id="p281w677" />
<path d="M547.83 760.94l50.73 0l0 12.29l-50.73 0Z" id="p281w678" />
<path d="M609.36 760.94l25.53 0l0 12.29l-25.53 0Z" id="p281w679" />
<path d="M637.6 760.94l34.51 0l0 12.29l-34.51 0Z" id="p281w680" />
<path d="M98.48 774.83l58.69 0l0 12.29l-58.69 0Z" id="p281w681" />
<path d="M159.87 774.83l32.3 0l0 12.29l-32.3 0Z" id="p281w682" />
<path d="M194.87 774.83l39.25 0l0 12.29l-39.25 0Z" id="p281w683" />
<path d="M236.82 774.83l57.2 0l0 12.29l-57.2 0Z" id="p281w684" />
<path d="M296.72 774.83l71.05 0l0 12.29l-71.05 0Z" id="p281w685" />
<path d="M370.02 774.89l23.32 0l0 12.23l-23.32 0Z" id="p281w686" />
<path d="M396.04 774.83l35.9 0l0 12.29l-35.9 0Z" id="p281w687" />
<path d="M434.64 774.83l18.44 0l0 12.29l-18.44 0Z" id="p281w688" />
<path d="M455.79 774.83l29.49 0l0 12.29l-29.49 0Z" id="p281w689" />
<path d="M487.98 774.83l45.95 0l0 12.29l-45.95 0Z" id="p281w690" />
<path d="M536.48 774.83l27.99 0l0 12.29l-27.99 0Z" id="p281w691" />
<path d="M567.17 774.89l20.91 0l0 12.23l-20.91 0Z" id="p281w692" />
<path d="M590.78 774.83l53.58 0l0 12.29l-53.58 0Z" id="p281w693" />
<path d="M647.06 774.89l20.01 0l0 12.23l-20.01 0Z" id="p281w694" />
<path d="M98.49 788.72l100.76 0l0 12.29l-100.76 0Z" id="p281w695" />
<path d="M201.95 788.72l47.05 0l0 12.29l-47.05 0Z" id="p281w696" />
<path d="M251.7 788.78l18.82 0l0 12.23l-18.82 0Z" id="p281w697" />
<path d="M272.78 788.72l20.24 0l0 12.29l-20.24 0Z" id="p281w698" />
<path d="M295.72 788.72l11.68 0l0 12.29l-11.68 0Z" id="p281w699" />
<path d="M310.1 788.72l24.59 0l0 12.29l-24.59 0Z" id="p281w700" />
<path d="M337.24 788.72l21.97 0l0 12.29l-21.97 0Z" id="p281w701" />
<path d="M361.92 788.72l27.18 0l0 12.29l-27.18 0Z" id="p281w702" />
<path d="M404.48 788.78l20.01 0l0 12.23l-20.01 0Z" id="p281w703" />
<path d="M426.74 788.72l31.81 0l0 12.29l-31.81 0Z" id="p281w704" />
<path d="M461.25 788.72l21.05 0l0 12.29l-21.05 0Z" id="p281w705" />
<path d="M485.01 788.72l29.49 0l0 12.29l-29.49 0Z" id="p281w706" />
<path d="M517.2 788.72l39.41 0l0 12.29l-39.41 0Z" id="p281w707" />
<path d="M559.31 788.72l29.67 0l0 12.29l-29.67 0Z" id="p281w708" />
<path d="M591.53 788.72l45.34 0l0 12.29l-45.34 0Z" id="p281w709" />
<path d="M639.58 788.78l20.91 0l0 12.23l-20.91 0Z" id="p281w710" />
<path d="M98.5 802.62l23.16 0l0 12.29l-23.16 0Z" id="p281w711" />
<path d="M124.36 802.62l31.11 0l0 12.29l-31.11 0Z" id="p281w712" />
<path d="M158.18 802.67l19.45 0l0 12.23l-19.45 0Z" id="p281w713" />
<path d="M180.33 802.67l20.72 0l0 12.23l-20.72 0Z" id="p281w714" />
<path d="M203.75 802.67l20.72 0l0 12.23l-20.72 0Z" id="p281w715" />
<path d="M227.17 802.67l20.72 0l0 12.23l-20.72 0Z" id="p281w716" />
<path d="M250.59 802.67l19.45 0l0 12.23l-19.45 0Z" id="p281w717" />
<path d="M272.74 802.67l20.72 0l0 12.23l-20.72 0Z" id="p281w718" />
<path d="M296.16 802.67l20.91 0l0 12.23l-20.91 0Z" id="p281w719" />
<path d="M319.77 802.62l20 0l0 12.29l-20 0Z" id="p281w720" />
<path d="M342.47 802.67l19.64 0l0 12.23l-19.64 0Z" id="p281w721" />
<path d="M364.81 802.62l17.21 0l0 12.29l-17.21 0Z" id="p281w722" />
<path d="M384.72 802.62l34.42 0l0 12.29l-34.42 0Z" id="p281w723" />
<path d="M421.47 802.62l16.03 0l0 12.29l-16.03 0Z" id="p281w724" />
<path d="M440.2 802.62l11.68 0l0 12.29l-11.68 0Z" id="p281w725" />
<path d="M454.22 802.62l31.22 0l0 12.29l-31.22 0Z" id="p281w726" />
<path d="M500.96 802.62l38.25 0l0 12.29l-38.25 0Z" id="p281w727" />
<path d="M541.9 802.62l33.73 0l0 12.29l-33.73 0Z" id="p281w728" />
<path d="M578.19 802.62l21.61 0l0 12.29l-21.61 0Z" id="p281w729" />
<path d="M602.51 802.67l23.4 0l0 12.23l-23.4 0Z" id="p281w730" />
<path d="M111.33 816.51l59.03 0l0 12.29l-59.03 0Z" id="p281w731" />
<path d="M173.06 816.51l19.92 0l0 12.29l-19.92 0Z" id="p281w732" />
<path d="M195.68 816.51l20.61 0l0 12.29l-20.61 0Z" id="p281w733" />
<path d="M218.77 816.57l20.91 0l0 12.23l-20.91 0Z" id="p281w734" />
<path d="M255.19 816.51l83.93 0l0 12.29l-83.93 0Z" id="p281w735" />
<path d="M349.92 816.51l35.47 0l0 12.29l-35.47 0Z" id="p281w736" />
<path d="M388.09 816.51l39.11 0l0 12.29l-39.11 0Z" id="p281w737" />
<path d="M429.91 816.51l23.4 0l0 12.29l-23.4 0Z" id="p281w738" />
<path d="M455.86 816.51l63.88 0l0 12.29l-63.88 0Z" id="p281w739" />
<path d="M522.44 816.51l47.5 0l0 12.29l-47.5 0Z" id="p281w740" />
<path d="M572.64 816.57l19.64 0l0 12.23l-19.64 0Z" id="p281w741" />
<path d="M594.98 816.51l38.25 0l0 12.29l-38.25 0Z" id="p281w742" />
<path d="M635.93 816.51l33.73 0l0 12.29l-33.73 0Z" id="p281w743" />
<path d="M98.52 830.41l95.6 0l0 12.29l-95.6 0Z" id="p281w744" />
<path d="M196.82 830.46l23.32 0l0 12.23l-23.32 0Z" id="p281w745" />
<path d="M222.84 830.41l38.25 0l0 12.29l-38.25 0Z" id="p281w746" />
<path d="M263.79 830.41l28.99 0l0 12.29l-28.99 0Z" id="p281w747" />
<path d="M295.34 830.41l23.22 0l0 12.29l-23.22 0Z" id="p281w748" />
<path d="M321.26 830.46l21.41 0l0 12.23l-21.41 0Z" id="p281w749" />
<path d="M98.52 858.19l26.88 0l0 12.29l-26.88 0Z" id="p281w750" />
<path d="M128.1 858.19l10.46 0l0 12.29l-10.46 0Z" id="p281w751" />
<path d="M141.26 858.19l8.89 0l0 12.29l-8.89 0Z" id="p281w752" />
<path d="M152.85 858.19l29.4 0l0 12.29l-29.4 0Z" id="p281w753" />
<path d="M184.95 858.19l42.94 0l0 12.29l-42.94 0Z" id="p281w754" />
<path d="M230.59 858.19l23.53 0l0 12.29l-23.53 0Z" id="p281w755" />
<path d="M256.82 858.19l43.95 0l0 12.29l-43.95 0Z" id="p281w756" />
<path d="M303.47 858.19l21.96 0l0 12.29l-21.96 0Z" id="p281w757" />
<path d="M327.99 858.19l17.76 0l0 12.29l-17.76 0Z" id="p281w758" />
<path d="M348.45 858.19l46.14 0l0 12.29l-46.14 0Z" id="p281w759" />
<path d="M397.29 858.19l68.4 0l0 12.29l-68.4 0Z" id="p281w760" />
<path d="M468.4 858.19l23.06 0l0 12.29l-23.06 0Z" id="p281w761" />
<path d="M491.46 858.19l20.83 0l0 12.29l-20.83 0Z" id="p281w762" />
<path d="M514.99 858.19l10.76 0l0 12.29l-10.76 0Z" id="p281w763" />
<path d="M528.45 858.19l39.9 0l0 12.29l-39.9 0Z" id="p281w764" />
<path d="M98.52 872.09l10.68 0l0 12.29l-10.68 0Z" id="p281w765" />
<path d="M111.9 872.09l35.42 0l0 12.29l-35.42 0Z" id="p281w766" />
<path d="M150.03 872.09l54.05 0l0 12.29l-54.05 0Z" id="p281w767" />
<path d="M206.78 872.09l49.83 0l0 12.29l-49.83 0Z" id="p281w768" />
<path d="M259.31 872.09l85.58 0l0 12.29l-85.58 0Z" id="p281w769" />
<path d="M347.59 872.09l12.07 0l0 12.29l-12.07 0Z" id="p281w770" />
<path d="M362.36 872.09l38.98 0l0 12.29l-38.98 0Z" id="p281w771" />
<path d="M404.04 872.09l15.58 0l0 12.29l-15.58 0Z" id="p281w772" />
<path d="M422.33 872.09l40.07 0l0 12.29l-40.07 0Z" id="p281w773" />
<path d="M465.1 872.09l55.88 0l0 12.29l-55.88 0Z" id="p281w774" />
<path d="M523.68 872.09l56.02 0l0 12.29l-56.02 0Z" id="p281w775" />
</svg>
