<?xml version="1.0" encoding="UTF-8"?>
<svg xmlns="http://www.w3.org/2000/svg" xmlns:xlink="http://www.w3.org/1999/xlink" version="1.1" baseProfile="full" width="768" height="1024" viewBox="0,0,768,1024" preserveAspectRatio="xMinYMin meet" >
<style type="text/css">
<![CDATA[
path {fill-opacity: 0.5;fill: #00aeef;visibility: hidden;}
]]>
</style>
<path d="M124.06 107.98l18.02 0l0 18.84l-18.02 0Z" id="p55w1" />
<path d="M145.74 107.98l82.49 0l0 18.84l-82.49 0Z" id="p55w2" />
<path d="M231.87 107.98l62.17 0l0 18.84l-62.17 0Z" id="p55w3" />
<path d="M297.7 107.98l69.11 0l0 18.84l-69.11 0Z" id="p55w4" />
<path d="M124.06 439.3l46.51 0l0 14.52l-46.51 0Z" id="p55w5" />
<path d="M173.78 439.3l28.87 0l0 14.52l-28.87 0Z" id="p55w6" />
<path d="M205.86 439.3l50.2 0l0 14.52l-50.2 0Z" id="p55w7" />
<path d="M259.26 439.3l49.1 0l0 14.52l-49.1 0Z" id="p55w8" />
<path d="M311.57 439.3l20.85 0l0 14.52l-20.85 0Z" id="p55w9" />
<path d="M335.63 439.3l25.67 0l0 14.52l-25.67 0Z" id="p55w10" />
<path d="M364.51 439.3l39.85 0l0 14.52l-39.85 0Z" id="p55w11" />
<path d="M407.57 439.3l21.65 0l0 14.52l-21.65 0Z" id="p55w12" />
<path d="M432.42 439.3l26.73 0l0 14.52l-26.73 0Z" id="p55w13" />
<path d="M462.36 439.3l15.5 0l0 14.52l-15.5 0Z" id="p55w14" />
<path d="M481.06 439.3l54.53 0l0 14.52l-54.53 0Z" id="p55w15" />
<path d="M538.8 439.3l52.48 0l0 14.52l-52.48 0Z" id="p55w16" />
<path d="M135.02 455.97l29.42 0l0 14.52l-29.42 0Z" id="p55w17" />
<path d="M167.65 455.97l55.87 0l0 14.52l-55.87 0Z" id="p55w18" />
<path d="M226.73 455.97l26.74 0l0 14.52l-26.74 0Z" id="p55w19" />
<path d="M256.68 455.97l53.67 0l0 14.52l-53.67 0Z" id="p55w20" />
<path d="M313.55 455.97l11.22 0l0 14.52l-11.22 0Z" id="p55w21" />
<path d="M327.98 455.97l51.25 0l0 14.52l-51.25 0Z" id="p55w22" />
<path d="M142 572.4l16.86 0l0 15.09l-16.86 0Z" id="p55w23" />
<path d="M162.47 572.4l24.14 0l0 15.09l-24.14 0Z" id="p55w24" />
<path d="M190.22 572.4l47.9 0l0 15.09l-47.9 0Z" id="p55w25" />
<path d="M241.73 572.4l45.75 0l0 15.09l-45.75 0ZM142 589.06l18.74 0l0 15.09l-18.74 0Z" id="p55w26" />
<path d="M164.35 589.06l37.82 0l0 15.09l-37.82 0Z" id="p55w27" />
<path d="M205.78 589.06l18.91 0l0 15.09l-18.91 0Z" id="p55w28" />
<path d="M228.3 589.06l54.85 0l0 15.09l-54.85 0ZM142 605.73l32.58 0l0 15.09l-32.58 0Z" id="p55w29" />
<path d="M178.19 605.73l22.7 0l0 15.09l-22.7 0Z" id="p55w30" />
<path d="M204.49 605.73l18.91 0l0 15.09l-18.91 0Z" id="p55w31" />
<path d="M227.01 605.73l56.45 0l0 15.09l-56.45 0Z" id="p55w32" />
<path d="M142 622.4l18.91 0l0 15.09l-18.91 0Z" id="p55w33" />
<path d="M164.51 622.4l96.85 0l0 15.09l-96.85 0Z" id="p55w34" />
<path d="M264.98 622.4l21.01 0l0 15.09l-21.01 0Z" id="p55w35" />
<path d="M142 639.07l13.6 0l0 15.09l-13.6 0Z" id="p55w36" />
<path d="M159.2 639.07l17.26 0l0 15.09l-17.26 0Z" id="p55w37" />
<path d="M180.08 639.07l24.91 0l0 15.09l-24.91 0Z" id="p55w38" />
<path d="M208.59 639.07l69.95 0l0 15.09l-69.95 0Z" id="p55w39" />
<path d="M142 655.74l29.43 0l0 15.09l-29.43 0Z" id="p55w40" />
<path d="M175.04 655.74l14.81 0l0 15.09l-14.81 0Z" id="p55w41" />
<path d="M193.45 655.74l42.96 0l0 15.09l-42.96 0Z" id="p55w42" />
<path d="M240.03 655.74l11.67 0l0 15.09l-11.67 0Z" id="p55w43" />
<path d="M255.31 655.74l29.93 0l0 15.09l-29.93 0Z" id="p55w44" />
<path d="M142 672.41l114.65 0l0 15.09l-114.65 0Z" id="p55w45" />
<path d="M142 689.08l31.74 0l0 15.09l-31.74 0Z" id="p55w46" />
<path d="M340.19 572.37l17.12 0l0 15.09l-17.12 0Z" id="p55w47" />
<path d="M360.92 572.37l54.67 0l0 15.09l-54.67 0Z" id="p55w48" />
<path d="M419.2 572.37l33.43 0l0 15.09l-33.43 0Z" id="p55w49" />
<path d="M456.24 572.37l19.21 0l0 15.09l-19.21 0Z" id="p55w50" />
<path d="M340.19 589.04l38.23 0l0 15.09l-38.23 0Z" id="p55w51" />
<path d="M382.03 589.04l41.43 0l0 15.09l-41.43 0Z" id="p55w52" />
<path d="M427.08 589.04l23.08 0l0 15.09l-23.08 0Z" id="p55w53" />
<path d="M340.19 605.71l63.48 0l0 15.09l-63.48 0Z" id="p55w54" />
<path d="M407.27 605.71l25.42 0l0 15.09l-25.42 0Z" id="p55w55" />
<path d="M436.31 605.71l28.69 0l0 15.09l-28.69 0Z" id="p55w56" />
<path d="M340.19 622.38l25.94 0l0 15.09l-25.94 0Z" id="p55w57" />
<path d="M369.73 622.38l78.36 0l0 15.09l-78.36 0Z" id="p55w58" />
<path d="M340.19 639.05l30.05 0l0 15.09l-30.05 0Z" id="p55w59" />
<path d="M373.85 639.05l47.06 0l0 15.09l-47.06 0Z" id="p55w60" />
<path d="M424.52 639.05l18.43 0l0 15.09l-18.43 0Z" id="p55w61" />
<path d="M446.56 639.05l32.84 0l0 15.09l-32.84 0Z" id="p55w62" />
<path d="M340.19 655.71l51.11 0l0 15.09l-51.11 0Z" id="p55w63" />
<path d="M394.86 655.71l32.76 0l0 15.09l-32.76 0Z" id="p55w64" />
<path d="M431.18 655.71l59.29 0l0 15.09l-59.29 0Z" id="p55w65" />
<path d="M340.19 672.38l59.59 0l0 15.09l-59.59 0Z" id="p55w66" />
<path d="M403.39 672.38l24.57 0l0 15.09l-24.57 0Z" id="p55w67" />
<path d="M431.58 672.38l37.46 0l0 15.09l-37.46 0Z" id="p55w68" />
<path d="M340.19 689.05l38.36 0l0 15.09l-38.36 0Z" id="p55w69" />
<path d="M382.16 689.05l16.95 0l0 15.09l-16.95 0Z" id="p55w70" />
<path d="M535.57 572.34l21.35 0l0 15.09l-21.35 0Z" id="p55w71" />
<path d="M560.53 572.34l30.86 0l0 15.09l-30.86 0Z" id="p55w72" />
<path d="M595 572.34l37.78 0l0 15.09l-37.78 0Z" id="p55w73" />
<path d="M636.4 572.34l24.73 0l0 15.09l-24.73 0ZM535.57 589.01l38.47 0l0 15.09l-38.47 0Z" id="p55w74" />
<path d="M581.26 589.01l49.51 0l0 15.09l-49.51 0Z" id="p55w75" />
<path d="M634.38 589.01l19.27 0l0 15.09l-19.27 0Z" id="p55w76" />
<path d="M657.26 589.01l17.65 0l0 15.09l-17.65 0Z" id="p55w77" />
<path d="M535.57 605.68l19.21 0l0 15.09l-19.21 0Z" id="p55w78" />
<path d="M558.4 605.68l69.39 0l0 15.09l-69.39 0Z" id="p55w79" />
<path d="M631.4 605.68l29.95 0l0 15.09l-29.95 0Z" id="p55w80" />
<path d="M535.57 622.35l50.19 0l0 15.09l-50.19 0Z" id="p55w81" />
<path d="M589.37 622.35l36.27 0l0 15.09l-36.27 0Z" id="p55w82" />
<path d="M629.25 622.35l21.37 0l0 15.09l-21.37 0Z" id="p55w83" />
<path d="M654.24 622.35l15.06 0l0 15.09l-15.06 0Z" id="p55w84" />
<path d="M535.57 639.02l34.93 0l0 15.09l-34.93 0Z" id="p55w85" />
<path d="M574.12 639.02l29.95 0l0 15.09l-29.95 0Z" id="p55w86" />
<path d="M607.67 639.02l59.83 0l0 15.09l-59.83 0Z" id="p55w87" />
<path d="M535.57 655.69l17.12 0l0 15.09l-17.12 0Z" id="p55w88" />
<path d="M556.3 655.69l36.94 0l0 15.09l-36.94 0Z" id="p55w89" />
<path d="M596.85 655.69l14.52 0l0 15.09l-14.52 0Z" id="p55w90" />
<path d="M614.99 655.69l15.06 0l0 15.09l-15.06 0Z" id="p55w91" />
<path d="M633.66 655.69l17.81 0l0 15.09l-17.81 0Z" id="p55w92" />
<path d="M655.08 655.69l31.28 0l0 15.09l-31.28 0Z" id="p55w93" />
<path d="M535.57 672.36l25.83 0l0 15.09l-25.83 0Z" id="p55w94" />
<path d="M565.02 672.36l69.89 0l0 15.09l-69.89 0Z" id="p55w95" />
<path d="M638.52 672.36l36.55 0l0 15.09l-36.55 0Z" id="p55w96" />
<path d="M535.57 689.03l43.34 0l0 15.09l-43.34 0Z" id="p55w97" />
<path d="M124.06 772.12l17.01 0l0 18.84l-17.01 0Z" id="p55w98" />
<path d="M144.72 772.12l86.67 0l0 18.84l-86.67 0Z" id="p55w99" />
<path d="M235.04 772.12l18.36 0l0 18.84l-18.36 0Z" id="p55w100" />
<path d="M257.05 772.12l69.11 0l0 18.84l-69.11 0Z" id="p55w101" />
<path d="M123.63 806.1l29.41 0l0 14.52l-29.41 0Z" id="p55w102" />
<path d="M156.24 806.1l34.21 0l0 14.52l-34.21 0Z" id="p55w103" />
<path d="M193.66 806.1l12.66 0l0 14.52l-12.66 0Z" id="p55w104" />
<path d="M209.53 806.1l36.34 0l0 14.52l-36.34 0Z" id="p55w105" />
<path d="M249.07 806.1l20.85 0l0 14.52l-20.85 0Z" id="p55w106" />
<path d="M273.13 806.1l47.03 0l0 14.52l-47.03 0Z" id="p55w107" />
<path d="M323.37 806.1l25.67 0l0 14.52l-25.67 0Z" id="p55w108" />
<path d="M352.25 806.1l28.35 0l0 14.52l-28.35 0Z" id="p55w109" />
<path d="M124.06 831.11l26.21 0l0 14.52l-26.21 0Z" id="p55w110" />
<path d="M153.48 831.11l13.37 0l0 14.52l-13.37 0Z" id="p55w111" />
<path d="M170.06 831.11l45.46 0l0 14.52l-45.46 0Z" id="p55w112" />
<path d="M218.73 831.11l18.44 0l0 14.52l-18.44 0Z" id="p55w113" />
<path d="M240.37 831.11l34.38 0l0 14.52l-34.38 0Z" id="p55w114" />
<path d="M277.97 831.11l14.18 0l0 14.52l-14.18 0Z" id="p55w115" />
<path d="M295.35 831.11l65.15 0l0 14.52l-65.15 0Z" id="p55w116" />
<path d="M363.71 831.11l17.38 0l0 14.52l-17.38 0Z" id="p55w117" />
<path d="M384.3 831.11l13.37 0l0 14.52l-13.37 0Z" id="p55w118" />
<path d="M400.88 831.11l56.11 0l0 14.52l-56.11 0Z" id="p55w119" />
<path d="M124.06 847.78l13.9 0l0 14.52l-13.9 0Z" id="p55w120" />
<path d="M141.17 847.78l52.14 0l0 14.52l-52.14 0Z" id="p55w121" />
<path d="M196.51 847.78l28.87 0l0 14.52l-28.87 0Z" id="p55w122" />
<path d="M228.59 847.78l22.45 0l0 14.52l-22.45 0Z" id="p55w123" />
<path d="M254.25 847.78l11.22 0l0 14.52l-11.22 0Z" id="p55w124" />
<path d="M268.67 847.78l28.87 0l0 14.52l-28.87 0Z" id="p55w125" />
<path d="M300.75 847.78l38.44 0l0 14.52l-38.44 0Z" id="p55w126" />
<path d="M124.06 872.8l26.21 0l0 14.52l-26.21 0Z" id="p55w127" />
<path d="M153.48 872.8l39.85 0l0 14.52l-39.85 0Z" id="p55w128" />
<path d="M196.54 872.8l37.95 0l0 14.52l-37.95 0Z" id="p55w129" />
<path d="M237.69 872.8l15.5 0l0 14.52l-15.5 0Z" id="p55w130" />
<path d="M256.4 872.8l29.39 0l0 14.52l-29.39 0Z" id="p55w131" />
<path d="M289 872.8l13.9 0l0 14.52l-13.9 0Z" id="p55w132" />
<path d="M306.11 872.8l9.89 0l0 14.52l-9.89 0Z" id="p55w133" />
<path d="M319.2 872.8l59.25 0l0 14.52l-59.25 0Z" id="p55w134" />
<path d="M381.66 872.8l27.73 0l0 14.52l-27.73 0Z" id="p55w135" />
<path d="M124.06 897.81l42.77 0l0 14.52l-42.77 0Z" id="p55w136" />
<path d="M170.03 897.81l25.67 0l0 14.52l-25.67 0Z" id="p55w137" />
<path d="M198.92 897.81l13.9 0l0 14.52l-13.9 0Z" id="p55w138" />
<path d="M216.02 897.81l31.01 0l0 14.52l-31.01 0Z" id="p55w139" />
<path d="M250.23 897.81l19.51 0l0 14.52l-19.51 0Z" id="p55w140" />
<path d="M272.95 897.81l22.99 0l0 14.52l-22.99 0Z" id="p55w141" />
<path d="M309.04 897.81l24.34 0l0 14.52l-24.34 0Z" id="p55w142" />
<path d="M336.58 897.81l28.87 0l0 14.52l-28.87 0Z" id="p55w143" />
<path d="M368.66 897.81l34.21 0l0 14.52l-34.21 0Z" id="p55w144" />
<path d="M406.08 897.81l58.78 0l0 14.52l-58.78 0Z" id="p55w145" />
<path d="M124.06 914.48l13.91 0l0 14.52l-13.91 0Z" id="p55w146" />
<path d="M141.18 914.48l24.06 0l0 14.52l-24.06 0Z" id="p55w147" />
<path d="M168.45 914.48l35 0l0 14.52l-35 0Z" id="p55w148" />
<path d="M206.66 914.48l6.41 0l0 14.52l-6.41 0Z" id="p55w149" />
<path d="M216.29 914.48l24.59 0l0 14.52l-24.59 0Z" id="p55w150" />
<path d="M244.08 914.48l25.67 0l0 14.52l-25.67 0Z" id="p55w151" />
<path d="M272.96 914.48l50.8 0l0 14.52l-50.8 0Z" id="p55w152" />
<path d="M326.97 914.48l28.06 0l0 14.52l-28.06 0Z" id="p55w153" />
<path d="M358.24 914.48l19.51 0l0 14.52l-19.51 0Z" id="p55w154" />
<path d="M380.96 914.48l68.41 0l0 14.52l-68.41 0Z" id="p55w155" />
<path d="M60.68 441.07l27.93 0l0 12.29l-27.93 0Z" id="p55w156" />
<path d="M50.66 486.38l37.96 0l0 13.07l-37.96 0Z" id="p55w157" />
<path d="M41.61 497.49l47 0l0 13.07l-47 0Z" id="p55w158" />
<path d="M149.26 747.42l32.88 0l0 12.56l-32.88 0Z" id="p55w159" />
<path d="M184.84 747.42l36.55 0l0 12.56l-36.55 0Z" id="p55w160" />
<path d="M62.22 807.87l26.4 0l0 12.29l-26.4 0Z" id="p55w161" />
<path d="M41.44 819.45l47 0l0 13.07l-47 0Z" id="p55w162" />
<path d="M535.3 824.73l40.01 0l0 18.37l-40.01 0Z" id="p55w163" />
<path d="M534.71 841.39l31.27 0l0 18.06l-31.27 0Z" id="p55w164" />
<path d="M571.21 842.66l20.74 0l0 17.7l-20.74 0Z" id="p55w165" />
<path d="M597.19 843.57l31.85 0l0 18.08l-31.85 0Z" id="p55w166" />
<path d="M634.27 844.86l30.06 0l0 18.02l-30.06 0Z" id="p55w167" />
<path d="M669.57 846.1l19.79 0l0 17.66l-19.79 0Z" id="p55w168" />
<path d="M534.13 858.05l41.48 0l0 18.42l-41.48 0Z" id="p55w169" />
<path d="M580.84 859.68l18.53 0l0 17.62l-18.53 0Z" id="p55w170" />
<path d="M533.55 874.71l39.14 0l0 18.34l-39.14 0Z" id="p55w171" />
<path d="M578.35 876.27l19.21 0l0 17.64l-19.21 0Z" id="p55w172" />
<path d="M602.55 877.12l22.88 0l0 17.77l-22.88 0Z" id="p55w173" />
<path d="M630.66 878.1l35.66 0l0 18.22l-35.66 0Z" id="p55w174" />
<path d="M671.56 879.53l14.5 0l0 17.48l-14.5 0Z" id="p55w175" />
<path d="M532.97 891.37l26.38 0l0 17.89l-26.38 0Z" id="p55w176" />
<path d="M565.01 892.49l22.78 0l0 17.77l-22.78 0Z" id="p55w177" />
<path d="M593.45 893.48l68.52 0l0 19.36l-68.52 0Z" id="p55w178" />
<path d="M667.62 896.07l29.71 0l0 18.01l-29.71 0Z" id="p55w179" />
<path d="M532.39 908.03l17.68 0l0 17.59l-17.68 0Z" id="p55w180" />
<path d="M555.7 908.84l53.24 0l0 18.83l-53.24 0Z" id="p55w181" />
<path d="M614.17 910.89l11.2 0l0 17.36l-11.2 0Z" id="p55w182" />
<path d="M630.61 911.46l11.89 0l0 17.39l-11.89 0Z" id="p55w183" />
<path d="M647.73 912.06l49.24 0l0 18.69l-49.24 0Z" id="p55w184" />
<path d="M531.81 924.69l21.24 0l0 17.71l-21.24 0Z" id="p55w185" />
<path d="M558.7 925.63l17.26 0l0 17.57l-17.26 0Z" id="p55w186" />
<path d="M581.62 926.43l87.16 0l0 20.01l-87.16 0Z" id="p55w187" />
<path d="M597.21 129.36l15.07 0l0 12.56l-15.07 0Z" id="p55w188" />
<path d="M614.99 129.36l16.87 0l0 12.56l-16.87 0Z" id="p55w189" />
<path d="M121.92 153.71l24.18 0l0 15.37l-24.18 0Z" id="p55w190" />
<path d="M149.47 153.71l15.09 0l0 15.37l-15.09 0Z" id="p55w191" />
<path d="M167.93 153.71l54.65 0l0 15.37l-54.65 0Z" id="p55w192" />
<path d="M225.95 153.71l51.84 0l0 15.37l-51.84 0Z" id="p55w193" />
<path d="M277.79 153.71l29.8 0l0 15.37l-29.8 0Z" id="p55w194" />
<path d="M121.92 177.36l36.35 0l0 14.6l-36.35 0Z" id="p55w195" />
<path d="M371.22 177.36l11.77 0l0 14.6l-11.77 0Z" id="p55w196" />
<path d="M386.21 177.36l27.2 0l0 14.6l-27.2 0Z" id="p55w197" />
<path d="M416.62 177.36l21.75 0l0 14.6l-21.75 0Z" id="p55w198" />
<path d="M142.8 195.96l11.77 0l0 14.6l-11.77 0Z" id="p55w199" />
<path d="M157.78 195.96l21.86 0l0 14.6l-21.86 0Z" id="p55w200" />
<path d="M182.84 195.96l19.63 0l0 14.6l-19.63 0Z" id="p55w201" />
<path d="M205.68 195.96l44.32 0l0 14.6l-44.32 0Z" id="p55w202" />
<path d="M350.34 196.04l10.43 0l0 14.52l-10.43 0Z" id="p55w203" />
<path d="M363.98 196.04l21.38 0l0 14.52l-21.38 0Z" id="p55w204" />
<path d="M388.57 196.04l54.26 0l0 14.52l-54.26 0Z" id="p55w205" />
<path d="M446.04 196.04l26.45 0l0 14.52l-26.45 0Z" id="p55w206" />
<path d="M475.7 196.04l25.67 0l0 14.52l-25.67 0Z" id="p55w207" />
<path d="M504.58 196.04l34.21 0l0 14.52l-34.21 0Z" id="p55w208" />
<path d="M542 196.04l22.99 0l0 14.52l-22.99 0Z" id="p55w209" />
<path d="M568.2 196.04l20.58 0l0 14.52l-20.58 0Z" id="p55w210" />
<path d="M350.34 212.71l33.33 0l0 14.52l-33.33 0Z" id="p55w211" />
<path d="M386.88 212.71l20.85 0l0 14.52l-20.85 0Z" id="p55w212" />
<path d="M410.94 212.71l25.67 0l0 14.52l-25.67 0Z" id="p55w213" />
<path d="M439.82 212.71l39.85 0l0 14.52l-39.85 0Z" id="p55w214" />
<path d="M482.88 212.71l42.24 0l0 14.52l-42.24 0Z" id="p55w215" />
<path d="M528.32 212.71l14.43 0l0 14.52l-14.43 0Z" id="p55w216" />
<path d="M545.96 212.71l25.67 0l0 14.52l-25.67 0Z" id="p55w217" />
<path d="M574.84 212.71l24.85 0l0 14.52l-24.85 0Z" id="p55w218" />
<path d="M350.34 229.38l50.43 0l0 14.52l-50.43 0Z" id="p55w219" />
<path d="M403.98 229.38l20.85 0l0 14.52l-20.85 0Z" id="p55w220" />
<path d="M428.05 229.38l12.57 0l0 14.52l-12.57 0Z" id="p55w221" />
<path d="M443.82 229.38l24.33 0l0 14.52l-24.33 0Z" id="p55w222" />
<path d="M471.35 229.38l24.33 0l0 14.52l-24.33 0Z" id="p55w223" />
<path d="M507.53 229.38l28.87 0l0 14.52l-28.87 0Z" id="p55w224" />
<path d="M142.8 255.33l11.77 0l0 14.6l-11.77 0Z" id="p55w225" />
<path d="M157.78 255.33l13.9 0l0 14.6l-13.9 0Z" id="p55w226" />
<path d="M174.88 255.33l41.67 0l0 14.6l-41.67 0Z" id="p55w227" />
<path d="M219.76 255.33l19.63 0l0 14.6l-19.63 0Z" id="p55w228" />
<path d="M242.6 255.33l14.31 0l0 14.6l-14.31 0Z" id="p55w229" />
<path d="M260.11 255.33l22.62 0l0 14.6l-22.62 0Z" id="p55w230" />
<path d="M350.34 255.41l26.19 0l0 14.52l-26.19 0Z" id="p55w231" />
<path d="M379.74 255.41l9.89 0l0 14.52l-9.89 0Z" id="p55w232" />
<path d="M392.83 255.41l49.99 0l0 14.52l-49.99 0Z" id="p55w233" />
<path d="M446.02 255.41l13.9 0l0 14.52l-13.9 0Z" id="p55w234" />
<path d="M350.34 272.08l26.19 0l0 14.52l-26.19 0Z" id="p55w235" />
<path d="M379.74 272.08l44.92 0l0 14.52l-44.92 0Z" id="p55w236" />
<path d="M427.86 272.08l32.35 0l0 14.52l-32.35 0Z" id="p55w237" />
<path d="M463.42 272.08l41.43 0l0 14.52l-41.43 0Z" id="p55w238" />
<path d="M350.34 288.75l26.19 0l0 14.52l-26.19 0Z" id="p55w239" />
<path d="M379.74 288.75l44.92 0l0 14.52l-44.92 0Z" id="p55w240" />
<path d="M427.86 288.75l32.35 0l0 14.52l-32.35 0Z" id="p55w241" />
<path d="M463.42 288.75l30.23 0l0 14.52l-30.23 0Z" id="p55w242" />
<path d="M496.86 288.75l33.41 0l0 14.52l-33.41 0Z" id="p55w243" />
<path d="M533.47 288.75l25.67 0l0 14.52l-25.67 0Z" id="p55w244" />
<path d="M142.8 314.7l11.77 0l0 14.6l-11.77 0Z" id="p55w245" />
<path d="M157.78 314.7l26 0l0 14.6l-26 0Z" id="p55w246" />
<path d="M186.99 314.7l25.65 0l0 14.6l-25.65 0Z" id="p55w247" />
<path d="M215.84 314.7l45.26 0l0 14.6l-45.26 0Z" id="p55w248" />
<path d="M264.31 314.7l32.06 0l0 14.6l-32.06 0Z" id="p55w249" />
<path d="M350.34 314.78l10.43 0l0 14.52l-10.43 0Z" id="p55w250" />
<path d="M363.98 314.78l47.06 0l0 14.52l-47.06 0Z" id="p55w251" />
<path d="M414.24 314.78l24.33 0l0 14.52l-24.33 0Z" id="p55w252" />
<path d="M350.34 331.45l33.33 0l0 14.52l-33.33 0Z" id="p55w253" />
<path d="M386.88 331.45l20.85 0l0 14.52l-20.85 0Z" id="p55w254" />
<path d="M410.94 331.45l9.62 0l0 14.52l-9.62 0Z" id="p55w255" />
<path d="M423.77 331.45l26.74 0l0 14.52l-26.74 0Z" id="p55w256" />
<path d="M483.58 331.45l26.19 0l0 14.52l-26.19 0Z" id="p55w257" />
<path d="M512.97 331.45l45.71 0l0 14.52l-45.71 0Z" id="p55w258" />
<path d="M561.89 331.45l13.9 0l0 14.52l-13.9 0Z" id="p55w259" />
<path d="M142.8 357.4l11.77 0l0 14.6l-11.77 0Z" id="p55w260" />
<path d="M157.78 357.4l42.87 0l0 14.6l-42.87 0Z" id="p55w261" />
<path d="M203.86 357.4l19.63 0l0 14.6l-19.63 0Z" id="p55w262" />
<path d="M226.69 357.4l45.26 0l0 14.6l-45.26 0Z" id="p55w263" />
<path d="M275.16 357.4l35.16 0l0 14.6l-35.16 0Z" id="p55w264" />
<path d="M121.92 374.07l26.77 0l0 14.6l-26.77 0Z" id="p55w265" />
<path d="M151.89 374.07l20.96 0l0 14.6l-20.96 0Z" id="p55w266" />
<path d="M176.06 374.07l11.77 0l0 14.6l-11.77 0Z" id="p55w267" />
<path d="M191.04 374.07l26 0l0 14.6l-26 0Z" id="p55w268" />
<path d="M220.25 374.07l22.58 0l0 14.6l-22.58 0Z" id="p55w269" />
<path d="M246.04 374.07l35.97 0l0 14.6l-35.97 0Z" id="p55w270" />
<path d="M350.34 357.48l10.43 0l0 14.52l-10.43 0Z" id="p55w271" />
<path d="M363.98 357.48l21.38 0l0 14.52l-21.38 0Z" id="p55w272" />
<path d="M388.57 357.48l54.26 0l0 14.52l-54.26 0Z" id="p55w273" />
<path d="M446.04 357.48l26.45 0l0 14.52l-26.45 0Z" id="p55w274" />
<path d="M475.7 357.48l9.62 0l0 14.52l-9.62 0Z" id="p55w275" />
<path d="M488.53 357.48l19.07 0l0 14.52l-19.07 0Z" id="p55w276" />
<path d="M510.81 357.48l19.51 0l0 14.52l-19.51 0Z" id="p55w277" />
<path d="M533.52 357.48l55.33 0l0 14.52l-55.33 0Z" id="p55w278" />
<path d="M592.06 357.48l13.9 0l0 14.52l-13.9 0Z" id="p55w279" />
<path d="M350.34 374.15l33.95 0l0 14.52l-33.95 0Z" id="p55w280" />
<path d="M387.5 374.15l26.45 0l0 14.52l-26.45 0Z" id="p55w281" />
<path d="M417.16 374.15l9.62 0l0 14.52l-9.62 0Z" id="p55w282" />
<path d="M429.99 374.15l40.61 0l0 14.52l-40.61 0Z" id="p55w283" />
<path d="M350.34 390.82l33.95 0l0 14.52l-33.95 0Z" id="p55w284" />
<path d="M387.5 390.82l33.67 0l0 14.52l-33.67 0Z" id="p55w285" />
<path d="M424.38 390.82l21.37 0l0 14.52l-21.37 0Z" id="p55w286" />
<path d="M448.95 390.82l24.08 0l0 14.52l-24.08 0Z" id="p55w287" />
<path d="M476.24 390.82l26.45 0l0 14.52l-26.45 0Z" id="p55w288" />
<path d="M505.9 390.82l9.62 0l0 14.52l-9.62 0Z" id="p55w289" />
<path d="M518.73 390.82l19.07 0l0 14.52l-19.07 0Z" id="p55w290" />
<path d="M541.01 390.82l49.71 0l0 14.52l-49.71 0Z" id="p55w291" />
<path d="M593.92 390.82l22.99 0l0 14.52l-22.99 0Z" id="p55w292" />
<path d="M620.12 390.82l27.8 0l0 14.52l-27.8 0Z" id="p55w293" />
<path d="M68.27 39.02l42.71 0l0 15.38l-42.71 0Z" id="p55w294" />
<path d="M152.25 39.02l43.21 0l0 15.38l-43.21 0Z" id="p55w295" />
<path d="M251.4 38.6l45.06 0l0 16.09l-45.06 0Z" id="p55w296" />
<path d="M349.96 39.02l32.54 0l0 15.38l-32.54 0Z" id="p55w297" />
<path d="M620.49 983l70.61 0l0 12.23l-70.61 0Z" id="p55w298" />
</svg>
