<?xml version="1.0" encoding="UTF-8"?>
<svg xmlns="http://www.w3.org/2000/svg" xmlns:xlink="http://www.w3.org/1999/xlink" version="1.1" baseProfile="full" width="768" height="1024" viewBox="0,0,768,1024" preserveAspectRatio="xMinYMin meet" >
<style type="text/css">
<![CDATA[
path {fill-opacity: 0.5;fill: #00aeef;visibility: hidden;}
]]>
</style>
<path d="M124.06 104.82l113.48 0l0 23.34l-113.48 0Z" id="p76w1" />
<path d="M242.62 104.82l24.41 0l0 23.34l-24.41 0Z" id="p76w2" />
<path d="M272.11 104.82l73.41 0l0 23.34l-73.41 0Z" id="p76w3" />
<path d="M350.59 104.82l90.27 0l0 23.34l-90.27 0Z" id="p76w4" />
<path d="M138.66 138.9l17.05 0l0 15.09l-17.05 0Z" id="p76w5" />
<path d="M159.33 138.9l58.53 0l0 15.09l-58.53 0Z" id="p76w6" />
<path d="M221.47 138.9l30.74 0l0 15.09l-30.74 0Z" id="p76w7" />
<path d="M255.82 138.9l50.95 0l0 15.09l-50.95 0Z" id="p76w8" />
<path d="M310.38 138.9l38.09 0l0 15.09l-38.09 0Z" id="p76w9" />
<path d="M352.08 138.9l54.35 0l0 15.09l-54.35 0Z" id="p76w10" />
<path d="M420.15 138.9l20.54 0l0 15.09l-20.54 0Z" id="p76w11" />
<path d="M444.29 138.9l27.81 0l0 15.09l-27.81 0Z" id="p76w12" />
<path d="M475.72 138.9l11.26 0l0 15.09l-11.26 0Z" id="p76w13" />
<path d="M500.69 138.9l17.34 0l0 15.09l-17.34 0Z" id="p76w14" />
<path d="M521.64 138.9l43.71 0l0 15.09l-43.71 0Z" id="p76w15" />
<path d="M124.06 155.57l22.17 0l0 15.09l-22.17 0Z" id="p76w16" />
<path d="M149.84 155.57l64.05 0l0 15.09l-64.05 0Z" id="p76w17" />
<path d="M217.51 155.57l42.51 0l0 15.09l-42.51 0Z" id="p76w18" />
<path d="M263.63 155.57l14.21 0l0 15.09l-14.21 0Z" id="p76w19" />
<path d="M281.46 155.57l47.23 0l0 15.09l-47.23 0Z" id="p76w20" />
<path d="M332.3 155.57l32.91 0l0 15.09l-32.91 0Z" id="p76w21" />
<path d="M368.83 155.57l10.42 0l0 15.09l-10.42 0Z" id="p76w22" />
<path d="M382.86 155.57l41.4 0l0 15.09l-41.4 0Z" id="p76w23" />
<path d="M427.87 155.57l16.64 0l0 15.09l-16.64 0Z" id="p76w24" />
<path d="M448.12 155.57l30.79 0l0 15.09l-30.79 0Z" id="p76w25" />
<path d="M492.63 155.57l52.4 0l0 15.09l-52.4 0Z" id="p76w26" />
<path d="M124.06 172.24l68.14 0l0 15.09l-68.14 0Z" id="p76w27" />
<path d="M202.77 172.24l34.21 0l0 15.09l-34.21 0Z" id="p76w28" />
<path d="M240.59 172.24l41.01 0l0 15.09l-41.01 0Z" id="p76w29" />
<path d="M285.21 172.24l24.64 0l0 15.09l-24.64 0Z" id="p76w30" />
<path d="M313.46 172.24l13.91 0l0 15.09l-13.91 0Z" id="p76w31" />
<path d="M330.98 172.24l40.24 0l0 15.09l-40.24 0Z" id="p76w32" />
<path d="M384.93 172.24l15.74 0l0 15.09l-15.74 0Z" id="p76w33" />
<path d="M404.29 172.24l48.84 0l0 15.09l-48.84 0Z" id="p76w34" />
<path d="M456.73 172.24l58.14 0l0 15.09l-58.14 0Z" id="p76w35" />
<path d="M518.49 172.24l27.23 0l0 15.09l-27.23 0Z" id="p76w36" />
<path d="M549.33 172.24l20.54 0l0 15.09l-20.54 0Z" id="p76w37" />
<path d="M573.48 172.24l33.02 0l0 15.09l-33.02 0Z" id="p76w38" />
<path d="M138.32 199.32l29.87 0l0 12.29l-29.87 0Z" id="p76w39" />
<path d="M177.42 197.26l27.61 0l0 15.09l-27.61 0Z" id="p76w40" />
<path d="M208.64 197.26l20.54 0l0 15.09l-20.54 0Z" id="p76w41" />
<path d="M232.79 197.26l27.86 0l0 15.09l-27.86 0Z" id="p76w42" />
<path d="M264.26 197.26l10.54 0l0 15.09l-10.54 0Z" id="p76w43" />
<path d="M278.41 197.26l41.74 0l0 15.09l-41.74 0Z" id="p76w44" />
<path d="M323.77 197.26l43.56 0l0 15.09l-43.56 0Z" id="p76w45" />
<path d="M370.94 197.26l15.74 0l0 15.09l-15.74 0Z" id="p76w46" />
<path d="M390.29 197.26l41.15 0l0 15.09l-41.15 0Z" id="p76w47" />
<path d="M435.05 197.26l36.06 0l0 15.09l-36.06 0Z" id="p76w48" />
<path d="M474.73 197.26l12.22 0l0 15.09l-12.22 0Z" id="p76w49" />
<path d="M490.56 197.26l30.47 0l0 15.09l-30.47 0Z" id="p76w50" />
<path d="M524.65 197.26l15.89 0l0 15.09l-15.89 0Z" id="p76w51" />
<path d="M544.14 197.26l47.27 0l0 15.09l-47.27 0Z" id="p76w52" />
<path d="M135.87 213.93l26.91 0l0 15.09l-26.91 0Z" id="p76w53" />
<path d="M166.4 213.93l74.43 0l0 15.09l-74.43 0Z" id="p76w54" />
<path d="M244.43 213.93l15.89 0l0 15.09l-15.89 0Z" id="p76w55" />
<path d="M263.93 213.93l31.72 0l0 15.09l-31.72 0Z" id="p76w56" />
<path d="M299.26 213.93l14.59 0l0 15.09l-14.59 0Z" id="p76w57" />
<path d="M317.46 213.93l46.31 0l0 15.09l-46.31 0Z" id="p76w58" />
<path d="M367.38 213.93l11.26 0l0 15.09l-11.26 0Z" id="p76w59" />
<path d="M382.25 213.93l28.26 0l0 15.09l-28.26 0Z" id="p76w60" />
<path d="M414.12 213.93l80.65 0l0 15.09l-80.65 0Z" id="p76w61" />
<path d="M498.38 213.93l24.93 0l0 15.09l-24.93 0Z" id="p76w62" />
<path d="M526.92 213.93l64.68 0l0 15.09l-64.68 0Z" id="p76w63" />
<path d="M124.06 238.94l49.21 0l0 15.09l-49.21 0Z" id="p76w64" />
<path d="M194.66 238.94l23.45 0l0 15.09l-23.45 0Z" id="p76w65" />
<path d="M221.72 238.94l11.26 0l0 15.09l-11.26 0Z" id="p76w66" />
<path d="M236.59 238.94l11.88 0l0 15.09l-11.88 0Z" id="p76w67" />
<path d="M252.08 238.94l34.01 0l0 15.09l-34.01 0Z" id="p76w68" />
<path d="M289.7 238.94l30.03 0l0 15.09l-30.03 0Z" id="p76w69" />
<path d="M323.35 238.94l35.59 0l0 15.09l-35.59 0Z" id="p76w70" />
<path d="M380.32 238.94l23.45 0l0 15.09l-23.45 0Z" id="p76w71" />
<path d="M407.38 238.94l25.23 0l0 15.09l-25.23 0Z" id="p76w72" />
<path d="M436.22 238.94l36.95 0l0 15.09l-36.95 0Z" id="p76w73" />
<path d="M476.78 238.94l37.19 0l0 15.09l-37.19 0Z" id="p76w74" />
<path d="M517.59 238.94l15.74 0l0 15.09l-15.74 0Z" id="p76w75" />
<path d="M536.94 238.94l21.87 0l0 15.09l-21.87 0Z" id="p76w76" />
<path d="M562.43 238.94l36.01 0l0 15.09l-36.01 0Z" id="p76w77" />
<path d="M124.06 255.61l13.91 0l0 15.09l-13.91 0Z" id="p76w78" />
<path d="M141.58 255.61l40.34 0l0 15.09l-40.34 0Z" id="p76w79" />
<path d="M185.53 255.61l28.99 0l0 15.09l-28.99 0Z" id="p76w80" />
<path d="M218.14 255.61l47.77 0l0 15.09l-47.77 0Z" id="p76w81" />
<path d="M138.66 514.04l28.61 0l0 15.09l-28.61 0Z" id="p76w82" />
<path d="M170.88 514.04l28.45 0l0 15.09l-28.45 0Z" id="p76w83" />
<path d="M202.95 514.04l24.62 0l0 15.09l-24.62 0Z" id="p76w84" />
<path d="M231.18 514.04l27.46 0l0 15.09l-27.46 0Z" id="p76w85" />
<path d="M262.26 514.04l52.45 0l0 15.09l-52.45 0Z" id="p76w86" />
<path d="M318.32 514.04l15.74 0l0 15.09l-15.74 0Z" id="p76w87" />
<path d="M337.67 514.04l48.84 0l0 15.09l-48.84 0Z" id="p76w88" />
<path d="M390.12 514.04l13.91 0l0 15.09l-13.91 0Z" id="p76w89" />
<path d="M407.64 514.04l50.95 0l0 15.09l-50.95 0Z" id="p76w90" />
<path d="M462.2 514.04l41.01 0l0 15.09l-41.01 0Z" id="p76w91" />
<path d="M506.82 514.04l29.86 0l0 15.09l-29.86 0Z" id="p76w92" />
<path d="M540.29 514.04l52.26 0l0 15.09l-52.26 0Z" id="p76w93" />
<path d="M124.06 530.71l30.81 0l0 15.09l-30.81 0Z" id="p76w94" />
<path d="M158.48 530.71l10.42 0l0 15.09l-10.42 0Z" id="p76w95" />
<path d="M172.51 530.71l41.4 0l0 15.09l-41.4 0Z" id="p76w96" />
<path d="M227.62 530.71l57.86 0l0 15.09l-57.86 0Z" id="p76w97" />
<path d="M289.09 530.71l13.91 0l0 15.09l-13.91 0Z" id="p76w98" />
<path d="M306.61 530.71l53.52 0l0 15.09l-53.52 0Z" id="p76w99" />
<path d="M363.74 530.71l25.69 0l0 15.09l-25.69 0Z" id="p76w100" />
<path d="M393.04 530.71l15.74 0l0 15.09l-15.74 0Z" id="p76w101" />
<path d="M420.84 530.71l32.01 0l0 15.09l-32.01 0Z" id="p76w102" />
<path d="M456.07 530.71l43.35 0l0 15.09l-43.35 0Z" id="p76w103" />
<path d="M124.06 547.38l8.02 0l0 15.09l-8.02 0Z" id="p76w104" />
<path d="M135.69 547.38l23.61 0l0 15.09l-23.61 0Z" id="p76w105" />
<path d="M162.91 547.38l54.35 0l0 15.09l-54.35 0Z" id="p76w106" />
<path d="M220.88 547.38l22.17 0l0 15.09l-22.17 0Z" id="p76w107" />
<path d="M246.66 547.38l14.59 0l0 15.09l-14.59 0Z" id="p76w108" />
<path d="M264.85 547.38l25.23 0l0 15.09l-25.23 0Z" id="p76w109" />
<path d="M293.69 547.38l19.46 0l0 15.09l-19.46 0Z" id="p76w110" />
<path d="M316.76 547.38l24.79 0l0 15.09l-24.79 0Z" id="p76w111" />
<path d="M345.17 547.38l33.92 0l0 15.09l-33.92 0Z" id="p76w112" />
<path d="M124.06 564.05l8.02 0l0 15.09l-8.02 0Z" id="p76w113" />
<path d="M135.69 564.05l36.58 0l0 15.09l-36.58 0Z" id="p76w114" />
<path d="M175.88 564.05l24.24 0l0 15.09l-24.24 0Z" id="p76w115" />
<path d="M203.73 564.05l13.91 0l0 15.09l-13.91 0Z" id="p76w116" />
<path d="M221.25 564.05l28.27 0l0 15.09l-28.27 0Z" id="p76w117" />
<path d="M268.31 564.05l35.72 0l0 15.09l-35.72 0Z" id="p76w118" />
<path d="M311.2 564.05l10.54 0l0 15.09l-10.54 0Z" id="p76w119" />
<path d="M325.35 564.05l28.17 0l0 15.09l-28.17 0Z" id="p76w120" />
<path d="M357.13 564.05l23.2 0l0 15.09l-23.2 0Z" id="p76w121" />
<path d="M383.94 564.05l49.75 0l0 15.09l-49.75 0Z" id="p76w122" />
<path d="M437.3 564.05l26.14 0l0 15.09l-26.14 0Z" id="p76w123" />
<path d="M486.08 564.05l24.07 0l0 15.09l-24.07 0Z" id="p76w124" />
<path d="M513.76 564.05l7.84 0l0 15.09l-7.84 0Z" id="p76w125" />
<path d="M525.21 564.05l23.61 0l0 15.09l-23.61 0Z" id="p76w126" />
<path d="M552.43 564.05l46.77 0l0 15.09l-46.77 0Z" id="p76w127" />
<path d="M132.51 580.72l23.01 0l0 15.09l-23.01 0Z" id="p76w128" />
<path d="M158.72 580.72l12.18 0l0 15.09l-12.18 0Z" id="p76w129" />
<path d="M174.52 580.72l27.23 0l0 15.09l-27.23 0Z" id="p76w130" />
<path d="M205.36 580.72l27.18 0l0 15.09l-27.18 0Z" id="p76w131" />
<path d="M235.76 580.72l22.9 0l0 15.09l-22.9 0Z" id="p76w132" />
<path d="M280.44 580.72l55.42 0l0 15.09l-55.42 0Z" id="p76w133" />
<path d="M339.47 580.72l38.09 0l0 15.09l-38.09 0Z" id="p76w134" />
<path d="M381.18 580.72l16.64 0l0 15.09l-16.64 0Z" id="p76w135" />
<path d="M401.43 580.72l22.03 0l0 15.09l-22.03 0Z" id="p76w136" />
<path d="M427.07 580.72l44.16 0l0 15.09l-44.16 0Z" id="p76w137" />
<path d="M474.84 580.72l48.89 0l0 15.09l-48.89 0Z" id="p76w138" />
<path d="M527.34 580.72l36.98 0l0 15.09l-36.98 0Z" id="p76w139" />
<path d="M124.06 607.8l39.14 0l0 12.29l-39.14 0Z" id="p76w140" />
<path d="M172.43 605.74l14.09 0l0 15.09l-14.09 0Z" id="p76w141" />
<path d="M190.13 605.74l14.21 0l0 15.09l-14.21 0Z" id="p76w142" />
<path d="M207.96 605.74l47.63 0l0 15.09l-47.63 0Z" id="p76w143" />
<path d="M259.2 605.74l15.74 0l0 15.09l-15.74 0Z" id="p76w144" />
<path d="M278.55 605.74l22.9 0l0 15.09l-22.9 0Z" id="p76w145" />
<path d="M308.63 605.74l26.3 0l0 15.09l-26.3 0Z" id="p76w146" />
<path d="M338.53 605.74l22.31 0l0 15.09l-22.31 0Z" id="p76w147" />
<path d="M364.45 605.74l42.08 0l0 15.09l-42.08 0Z" id="p76w148" />
<path d="M138.66 639.09l39.3 0l0 15.09l-39.3 0Z" id="p76w149" />
<path d="M181.57 639.09l15.89 0l0 15.09l-15.89 0Z" id="p76w150" />
<path d="M201.07 639.09l38.09 0l0 15.09l-38.09 0Z" id="p76w151" />
<path d="M242.77 639.09l47.12 0l0 15.09l-47.12 0Z" id="p76w152" />
<path d="M293.5 639.09l27.23 0l0 15.09l-27.23 0Z" id="p76w153" />
<path d="M324.34 639.09l23.61 0l0 15.09l-23.61 0Z" id="p76w154" />
<path d="M351.56 639.09l50.55 0l0 15.09l-50.55 0Z" id="p76w155" />
<path d="M405.72 639.09l46.52 0l0 15.09l-46.52 0Z" id="p76w156" />
<path d="M455.86 639.09l10.5 0l0 15.09l-10.5 0Z" id="p76w157" />
<path d="M469.97 639.09l70.58 0l0 15.09l-70.58 0Z" id="p76w158" />
<path d="M544.16 639.09l23.61 0l0 15.09l-23.61 0Z" id="p76w159" />
<path d="M571.38 639.09l15.94 0l0 15.09l-15.94 0Z" id="p76w160" />
<path d="M599.38 639.09l12.41 0l0 15.09l-12.41 0Z" id="p76w161" />
<path d="M124.06 655.76l28.33 0l0 15.09l-28.33 0Z" id="p76w162" />
<path d="M156 655.76l26.5 0l0 15.09l-26.5 0Z" id="p76w163" />
<path d="M186.11 655.76l15.89 0l0 15.09l-15.89 0Z" id="p76w164" />
<path d="M205.6 655.76l57.86 0l0 15.09l-57.86 0Z" id="p76w165" />
<path d="M267.08 655.76l27.82 0l0 15.09l-27.82 0Z" id="p76w166" />
<path d="M298.51 655.76l10.42 0l0 15.09l-10.42 0Z" id="p76w167" />
<path d="M312.55 655.76l53.99 0l0 15.09l-53.99 0Z" id="p76w168" />
<path d="M370.15 655.76l24.12 0l0 15.09l-24.12 0Z" id="p76w169" />
<path d="M397.88 655.76l45.65 0l0 15.09l-45.65 0Z" id="p76w170" />
<path d="M457.25 655.76l72.79 0l0 15.09l-72.79 0Z" id="p76w171" />
<path d="M533.65 655.76l21.67 0l0 15.09l-21.67 0Z" id="p76w172" />
<path d="M558.93 655.76l24.24 0l0 15.09l-24.24 0Z" id="p76w173" />
<path d="M586.78 655.76l10.5 0l0 15.09l-10.5 0Z" id="p76w174" />
<path d="M600.89 655.76l41.09 0l0 15.09l-41.09 0Z" id="p76w175" />
<path d="M124.06 672.43l11.95 0l0 15.09l-11.95 0Z" id="p76w176" />
<path d="M139.62 672.43l15.94 0l0 15.09l-15.94 0Z" id="p76w177" />
<path d="M167.61 672.43l12.41 0l0 15.09l-12.41 0Z" id="p76w178" />
<path d="M192.1 672.43l14.21 0l0 15.09l-14.21 0Z" id="p76w179" />
<path d="M209.92 672.43l44.07 0l0 15.09l-44.07 0Z" id="p76w180" />
<path d="M264.56 672.43l32.77 0l0 15.09l-32.77 0Z" id="p76w181" />
<path d="M300.94 672.43l47.32 0l0 15.09l-47.32 0Z" id="p76w182" />
<path d="M351.87 672.43l27.82 0l0 15.09l-27.82 0Z" id="p76w183" />
<path d="M383.31 672.43l15.56 0l0 15.09l-15.56 0Z" id="p76w184" />
<path d="M409.62 672.43l7.84 0l0 15.09l-7.84 0Z" id="p76w185" />
<path d="M421.07 672.43l14.59 0l0 15.09l-14.59 0Z" id="p76w186" />
<path d="M439.27 672.43l60.15 0l0 15.09l-60.15 0Z" id="p76w187" />
<path d="M503.02 672.43l19.46 0l0 15.09l-19.46 0Z" id="p76w188" />
<path d="M526.09 672.43l49.15 0l0 15.09l-49.15 0Z" id="p76w189" />
<path d="M578.85 672.43l10.5 0l0 15.09l-10.5 0Z" id="p76w190" />
<path d="M592.96 672.43l46.31 0l0 15.09l-46.31 0Z" id="p76w191" />
<path d="M124.06 689.1l21.67 0l0 15.09l-21.67 0Z" id="p76w192" />
<path d="M149.34 689.1l42.67 0l0 15.09l-42.67 0Z" id="p76w193" />
<path d="M195.62 689.1l15.89 0l0 15.09l-15.89 0Z" id="p76w194" />
<path d="M215.11 689.1l60.49 0l0 15.09l-60.49 0Z" id="p76w195" />
<path d="M279.22 689.1l25.69 0l0 15.09l-25.69 0Z" id="p76w196" />
<path d="M308.52 689.1l23.61 0l0 15.09l-23.61 0Z" id="p76w197" />
<path d="M335.74 689.1l41.11 0l0 15.09l-41.11 0Z" id="p76w198" />
<path d="M380.47 689.1l15.55 0l0 15.09l-15.55 0Z" id="p76w199" />
<path d="M399.63 689.1l28.18 0l0 15.09l-28.18 0Z" id="p76w200" />
<path d="M431.43 689.1l15.89 0l0 15.09l-15.89 0Z" id="p76w201" />
<path d="M450.92 689.1l26.86 0l0 15.09l-26.86 0Z" id="p76w202" />
<path d="M481.39 689.1l19.84 0l0 15.09l-19.84 0Z" id="p76w203" />
<path d="M504.85 689.1l19.29 0l0 15.09l-19.29 0Z" id="p76w204" />
<path d="M527.75 689.1l68.53 0l0 15.09l-68.53 0Z" id="p76w205" />
<path d="M124.06 705.77l26.5 0l0 15.09l-26.5 0Z" id="p76w206" />
<path d="M154.17 705.77l14.59 0l0 15.09l-14.59 0Z" id="p76w207" />
<path d="M172.37 705.77l44.35 0l0 15.09l-44.35 0Z" id="p76w208" />
<path d="M220.33 705.77l19.46 0l0 15.09l-19.46 0Z" id="p76w209" />
<path d="M243.4 705.77l11.26 0l0 15.09l-11.26 0Z" id="p76w210" />
<path d="M258.27 705.77l48.82 0l0 15.09l-48.82 0Z" id="p76w211" />
<path d="M310.71 705.77l56.7 0l0 15.09l-56.7 0Z" id="p76w212" />
<path d="M371.02 705.77l13.91 0l0 15.09l-13.91 0Z" id="p76w213" />
<path d="M388.54 705.77l29.24 0l0 15.09l-29.24 0Z" id="p76w214" />
<path d="M421.39 705.77l44.28 0l0 15.09l-44.28 0Z" id="p76w215" />
<path d="M138.66 739.12l18.46 0l0 15.09l-18.46 0Z" id="p76w216" />
<path d="M160.73 739.12l38.09 0l0 15.09l-38.09 0Z" id="p76w217" />
<path d="M202.43 739.12l63.93 0l0 15.09l-63.93 0Z" id="p76w218" />
<path d="M269.97 739.12l68.93 0l0 15.09l-68.93 0Z" id="p76w219" />
<path d="M342.5 739.12l43.88 0l0 15.09l-43.88 0Z" id="p76w220" />
<path d="M124.06 755.79l19.29 0l0 15.09l-19.29 0Z" id="p76w221" />
<path d="M146.96 755.79l49.6 0l0 15.09l-49.6 0Z" id="p76w222" />
<path d="M200.17 755.79l22.54 0l0 15.09l-22.54 0Z" id="p76w223" />
<path d="M226.32 755.79l44.65 0l0 15.09l-44.65 0Z" id="p76w224" />
<path d="M274.58 755.79l27.82 0l0 15.09l-27.82 0Z" id="p76w225" />
<path d="M306.02 755.79l23.61 0l0 15.09l-23.61 0Z" id="p76w226" />
<path d="M333.24 755.79l46.13 0l0 15.09l-46.13 0Z" id="p76w227" />
<path d="M124.06 782.87l39.14 0l0 12.29l-39.14 0Z" id="p76w228" />
<path d="M172.43 780.81l43 0l0 15.09l-43 0Z" id="p76w229" />
<path d="M219.05 780.81l25.88 0l0 15.09l-25.88 0Z" id="p76w230" />
<path d="M248.54 780.81l22.31 0l0 15.09l-22.31 0Z" id="p76w231" />
<path d="M274.46 780.81l51.48 0l0 15.09l-51.48 0Z" id="p76w232" />
<path d="M329.56 780.81l27.81 0l0 15.09l-27.81 0Z" id="p76w233" />
<path d="M360.98 780.81l10.54 0l0 15.09l-10.54 0Z" id="p76w234" />
<path d="M375.13 780.81l14.59 0l0 15.09l-14.59 0Z" id="p76w235" />
<path d="M135.88 797.47l21.17 0l0 15.09l-21.17 0Z" id="p76w236" />
<path d="M160.66 797.47l19.46 0l0 15.09l-19.46 0Z" id="p76w237" />
<path d="M183.73 797.47l9.29 0l0 15.09l-9.29 0Z" id="p76w238" />
<path d="M196.63 797.47l12.41 0l0 15.09l-12.41 0Z" id="p76w239" />
<path d="M212.66 797.47l18.55 0l0 15.09l-18.55 0Z" id="p76w240" />
<path d="M234.82 797.47l36.9 0l0 15.09l-36.9 0Z" id="p76w241" />
<path d="M275.33 797.47l29.83 0l0 15.09l-29.83 0Z" id="p76w242" />
<path d="M308.77 797.47l14.21 0l0 15.09l-14.21 0Z" id="p76w243" />
<path d="M326.59 797.47l47.63 0l0 15.09l-47.63 0Z" id="p76w244" />
<path d="M135.88 814.14l28.26 0l0 15.09l-28.26 0Z" id="p76w245" />
<path d="M167.76 814.14l14.59 0l0 15.09l-14.59 0Z" id="p76w246" />
<path d="M185.95 814.14l57.32 0l0 15.09l-57.32 0Z" id="p76w247" />
<path d="M246.88 814.14l19.46 0l0 15.09l-19.46 0Z" id="p76w248" />
<path d="M269.95 814.14l13.91 0l0 15.09l-13.91 0Z" id="p76w249" />
<path d="M287.47 814.14l26.89 0l0 15.09l-26.89 0Z" id="p76w250" />
<path d="M317.97 814.14l19.29 0l0 15.09l-19.29 0Z" id="p76w251" />
<path d="M340.87 814.14l31.51 0l0 15.09l-31.51 0Z" id="p76w252" />
<path d="M375.6 814.14l12.06 0l0 15.09l-12.06 0Z" id="p76w253" />
<path d="M135.88 830.81l35.95 0l0 15.09l-35.95 0Z" id="p76w254" />
<path d="M182 830.81l50.16 0l0 15.09l-50.16 0Z" id="p76w255" />
<path d="M235.77 830.81l28.15 0l0 15.09l-28.15 0Z" id="p76w256" />
<path d="M267.52 830.81l54.78 0l0 15.09l-54.78 0Z" id="p76w257" />
<path d="M325.91 830.81l19.29 0l0 15.09l-19.29 0Z" id="p76w258" />
<path d="M135.88 847.48l49.6 0l0 15.09l-49.6 0Z" id="p76w259" />
<path d="M189.09 847.48l61.15 0l0 15.09l-61.15 0Z" id="p76w260" />
<path d="M124.06 866.23l24.42 0l0 12.29l-24.42 0Z" id="p76w261" />
<path d="M150.74 866.23l29.87 0l0 12.29l-29.87 0Z" id="p76w262" />
<path d="M189.84 864.17l30.11 0l0 15.09l-30.11 0Z" id="p76w263" />
<path d="M124.06 882.9l39.14 0l0 12.29l-39.14 0Z" id="p76w264" />
<path d="M172.43 880.84l24.17 0l0 15.09l-24.17 0Z" id="p76w265" />
<path d="M200.22 880.84l28.15 0l0 15.09l-28.15 0Z" id="p76w266" />
<path d="M235.54 880.84l26.3 0l0 15.09l-26.3 0Z" id="p76w267" />
<path d="M265.44 880.84l23.21 0l0 15.09l-23.21 0Z" id="p76w268" />
<path d="M292.26 880.84l49.43 0l0 15.09l-49.43 0Z" id="p76w269" />
<path d="M62.26 98.89l25.7 0l0 12.3l-25.7 0Z" id="p76w270" />
<path d="M124.06 39.02l46.09 0l0 15.38l-46.09 0Z" id="p76w271" />
<path d="M208.73 38.6l45.75 0l0 16.09l-45.75 0Z" id="p76w272" />
<path d="M307.2 39.02l46.59 0l0 15.38l-46.59 0Z" id="p76w273" />
<path d="M406.45 39.02l32.54 0l0 15.38l-32.54 0Z" id="p76w274" />
<path d="M76.9 983l83.9 0l0 12.23l-83.9 0Z" id="p76w275" />
<path d="M284.8 487.06l13.05 0l0 12.23l-13.05 0Z" id="p76w276" />
<path d="M300.55 487.06l52.31 0l0 12.23l-52.31 0Z" id="p76w277" />
<path d="M363.88 487.06l42.76 0l0 12.23l-42.76 0Z" id="p76w278" />
<path d="M628.11 487.06l8.33 0l0 12.23l-8.33 0Z" id="p76w279" />
<path d="M639.14 487.06l24.32 0l0 12.23l-24.32 0Z" id="p76w280" />
<path d="M666.16 487.06l42.76 0l0 12.23l-42.76 0Z" id="p76w281" />
<path d="M612.7 953.9l17.56 0l0 12.23l-17.56 0Z" id="p76w282" />
<path d="M632.96 953.9l26.33 0l0 12.23l-26.33 0Z" id="p76w283" />
<path d="M661.99 953.9l11.7 0l0 12.23l-11.7 0Z" id="p76w284" />
<path d="M676.4 953.9l32.52 0l0 12.23l-32.52 0Z" id="p76w285" />
</svg>
