<?xml version="1.0" encoding="UTF-8"?>
<svg xmlns="http://www.w3.org/2000/svg" xmlns:xlink="http://www.w3.org/1999/xlink" version="1.1" baseProfile="full" width="768" height="1024" viewBox="0,0,768,1024" preserveAspectRatio="xMinYMin meet" >
<style type="text/css">
<![CDATA[
path {fill-opacity: 0.5;fill: #00aeef;visibility: hidden;}
]]>
</style>
<path d="M143.75 114.18l29.41 0l0 14.52l-29.41 0Z" id="p52w1" />
<path d="M176.37 114.18l34.21 0l0 14.52l-34.21 0Z" id="p52w2" />
<path d="M213.79 114.18l33.41 0l0 14.52l-33.41 0Z" id="p52w3" />
<path d="M250.41 114.18l44.11 0l0 14.52l-44.11 0Z" id="p52w4" />
<path d="M297.72 114.18l9.89 0l0 14.52l-9.89 0Z" id="p52w5" />
<path d="M310.82 114.18l43.83 0l0 14.52l-43.83 0Z" id="p52w6" />
<path d="M357.86 114.18l44.11 0l0 14.52l-44.11 0Z" id="p52w7" />
<path d="M143.75 130.85l50.43 0l0 14.52l-50.43 0Z" id="p52w8" />
<path d="M197.4 130.85l20.85 0l0 14.52l-20.85 0Z" id="p52w9" />
<path d="M221.46 130.85l25.67 0l0 14.52l-25.67 0Z" id="p52w10" />
<path d="M250.34 130.85l27.26 0l0 14.52l-27.26 0Z" id="p52w11" />
<path d="M280.8 130.85l13.9 0l0 14.52l-13.9 0Z" id="p52w12" />
<path d="M297.91 130.85l43.83 0l0 14.52l-43.83 0Z" id="p52w13" />
<path d="M344.95 130.85l49.44 0l0 14.52l-49.44 0Z" id="p52w14" />
<path d="M143.75 155.86l10.43 0l0 14.52l-10.43 0Z" id="p52w15" />
<path d="M157.39 155.86l24.33 0l0 14.52l-24.33 0Z" id="p52w16" />
<path d="M184.92 155.86l22.99 0l0 14.52l-22.99 0Z" id="p52w17" />
<path d="M211.12 155.86l12.57 0l0 14.52l-12.57 0Z" id="p52w18" />
<path d="M226.9 155.86l39.24 0l0 14.52l-39.24 0Z" id="p52w19" />
<path d="M143.75 172.53l26.99 0l0 14.52l-26.99 0Z" id="p52w20" />
<path d="M173.95 172.53l13.9 0l0 14.52l-13.9 0Z" id="p52w21" />
<path d="M191.06 172.53l18.97 0l0 14.52l-18.97 0Z" id="p52w22" />
<path d="M143.75 189.2l10.43 0l0 14.52l-10.43 0Z" id="p52w23" />
<path d="M157.39 189.2l21.38 0l0 14.52l-21.38 0Z" id="p52w24" />
<path d="M181.98 189.2l32.62 0l0 14.52l-32.62 0Z" id="p52w25" />
<path d="M143.75 205.87l15.6 0l0 14.52l-15.6 0Z" id="p52w26" />
<path d="M162.56 205.87l9.89 0l0 14.52l-9.89 0Z" id="p52w27" />
<path d="M175.66 205.87l26.99 0l0 14.52l-26.99 0Z" id="p52w28" />
<path d="M143.75 222.55l26.19 0l0 14.52l-26.19 0Z" id="p52w29" />
<path d="M173.15 222.55l19.51 0l0 14.52l-19.51 0Z" id="p52w30" />
<path d="M195.87 222.55l25.13 0l0 14.52l-25.13 0Z" id="p52w31" />
<path d="M224.2 222.55l21.92 0l0 14.52l-21.92 0Z" id="p52w32" />
<path d="M143.75 247.56l26.21 0l0 14.52l-26.21 0Z" id="p52w33" />
<path d="M173.18 247.56l60.95 0l0 14.52l-60.95 0Z" id="p52w34" />
<path d="M237.34 247.56l44.36 0l0 14.52l-44.36 0Z" id="p52w35" />
<path d="M284.91 247.56l65.22 0l0 14.52l-65.22 0Z" id="p52w36" />
<path d="M353.33 247.56l13.9 0l0 14.52l-13.9 0Z" id="p52w37" />
<path d="M370.44 247.56l43.84 0l0 14.52l-43.84 0Z" id="p52w38" />
<path d="M143.75 264.23l44.11 0l0 14.52l-44.11 0Z" id="p52w39" />
<path d="M190.72 264.23l42.53 0l0 14.52l-42.53 0Z" id="p52w40" />
<path d="M236.45 264.23l21.38 0l0 14.52l-21.38 0Z" id="p52w41" />
<path d="M261.04 264.23l58.37 0l0 14.52l-58.37 0Z" id="p52w42" />
<path d="M322.62 264.23l13.9 0l0 14.52l-13.9 0Z" id="p52w43" />
<path d="M339.73 264.23l43.83 0l0 14.52l-43.83 0Z" id="p52w44" />
<path d="M386.77 264.23l52.12 0l0 14.52l-52.12 0Z" id="p52w45" />
<path d="M634.33 264.23l14.44 0l0 14.52l-14.44 0Z" id="p52w46" />
<path d="M651.98 264.23l23.52 0l0 14.52l-23.52 0Z" id="p52w47" />
<path d="M124.06 308.06l13.97 0l0 18.84l-13.97 0Z" id="p52w48" />
<path d="M141.68 308.06l15.94 0l0 18.84l-15.94 0Z" id="p52w49" />
<path d="M161.28 308.06l103.55 0l0 18.84l-103.55 0Z" id="p52w50" />
<path d="M124.06 339.26l27.53 0l0 14.52l-27.53 0Z" id="p52w51" />
<path d="M154.8 339.26l18.18 0l0 14.52l-18.18 0Z" id="p52w52" />
<path d="M176.19 339.26l43.29 0l0 14.52l-43.29 0Z" id="p52w53" />
<path d="M222.69 339.26l14.18 0l0 14.52l-14.18 0Z" id="p52w54" />
<path d="M240.07 339.26l31.01 0l0 14.52l-31.01 0Z" id="p52w55" />
<path d="M143.75 364.28l10.16 0l0 14.52l-10.16 0Z" id="p52w56" />
<path d="M157.13 364.28l11.5 0l0 14.52l-11.5 0Z" id="p52w57" />
<path d="M171.83 364.28l64.27 0l0 14.52l-64.27 0Z" id="p52w58" />
<path d="M239.3 364.28l11.5 0l0 14.52l-11.5 0Z" id="p52w59" />
<path d="M254.01 364.28l27.52 0l0 14.52l-27.52 0Z" id="p52w60" />
<path d="M284.74 364.28l21.37 0l0 14.52l-21.37 0Z" id="p52w61" />
<path d="M309.31 364.28l20.58 0l0 14.52l-20.58 0Z" id="p52w62" />
<path d="M333.1 364.28l19.51 0l0 14.52l-19.51 0Z" id="p52w63" />
<path d="M355.82 364.28l42.44 0l0 14.52l-42.44 0Z" id="p52w64" />
<path d="M143.75 380.95l10.16 0l0 14.52l-10.16 0Z" id="p52w65" />
<path d="M157.13 380.95l11.5 0l0 14.52l-11.5 0Z" id="p52w66" />
<path d="M171.83 380.95l28.35 0l0 14.52l-28.35 0Z" id="p52w67" />
<path d="M203.39 380.95l14.18 0l0 14.52l-14.18 0Z" id="p52w68" />
<path d="M220.77 380.95l49.92 0l0 14.52l-49.92 0Z" id="p52w69" />
<path d="M273.9 380.95l16.83 0l0 14.52l-16.83 0Z" id="p52w70" />
<path d="M293.94 380.95l34.74 0l0 14.52l-34.74 0Z" id="p52w71" />
<path d="M143.75 397.62l10.16 0l0 14.52l-10.16 0Z" id="p52w72" />
<path d="M157.13 397.62l9.62 0l0 14.52l-9.62 0Z" id="p52w73" />
<path d="M169.96 397.62l29.42 0l0 14.52l-29.42 0Z" id="p52w74" />
<path d="M202.58 397.62l9.62 0l0 14.52l-9.62 0Z" id="p52w75" />
<path d="M215.41 397.62l29.67 0l0 14.52l-29.67 0Z" id="p52w76" />
<path d="M248.29 397.62l22.99 0l0 14.52l-22.99 0Z" id="p52w77" />
<path d="M274.49 397.62l22.72 0l0 14.52l-22.72 0Z" id="p52w78" />
<path d="M300.42 397.62l24.05 0l0 14.52l-24.05 0Z" id="p52w79" />
<path d="M327.67 397.62l13.9 0l0 14.52l-13.9 0Z" id="p52w80" />
<path d="M344.78 397.62l9.89 0l0 14.52l-9.89 0Z" id="p52w81" />
<path d="M357.87 397.62l22.17 0l0 14.52l-22.17 0Z" id="p52w82" />
<path d="M143.75 422.63l35.28 0l0 14.52l-35.28 0Z" id="p52w83" />
<path d="M182.24 422.63l32.87 0l0 14.52l-32.87 0Z" id="p52w84" />
<path d="M218.32 422.63l19.51 0l0 14.52l-19.51 0Z" id="p52w85" />
<path d="M241.03 422.63l43.29 0l0 14.52l-43.29 0Z" id="p52w86" />
<path d="M287.54 422.63l45.17 0l0 14.52l-45.17 0Z" id="p52w87" />
<path d="M335.91 422.63l20.85 0l0 14.52l-20.85 0Z" id="p52w88" />
<path d="M359.97 422.63l52.41 0l0 14.52l-52.41 0Z" id="p52w89" />
<path d="M423.88 422.63l35.28 0l0 14.52l-35.28 0Z" id="p52w90" />
<path d="M462.37 422.63l32.87 0l0 14.52l-32.87 0Z" id="p52w91" />
<path d="M498.45 422.63l45.17 0l0 14.52l-45.17 0Z" id="p52w92" />
<path d="M546.82 422.63l20.85 0l0 14.52l-20.85 0Z" id="p52w93" />
<path d="M570.88 422.63l72.99 0l0 14.52l-72.99 0Z" id="p52w94" />
<path d="M143.75 447.64l31.01 0l0 14.52l-31.01 0Z" id="p52w95" />
<path d="M177.97 447.64l35 0l0 14.52l-35 0Z" id="p52w96" />
<path d="M216.18 447.64l33.05 0l0 14.52l-33.05 0Z" id="p52w97" />
<path d="M252.44 447.64l30.23 0l0 14.52l-30.23 0Z" id="p52w98" />
<path d="M285.87 447.64l33.41 0l0 14.52l-33.41 0Z" id="p52w99" />
<path d="M143.75 472.65l52.14 0l0 14.52l-52.14 0Z" id="p52w100" />
<path d="M199.1 472.65l15.5 0l0 14.52l-15.5 0Z" id="p52w101" />
<path d="M217.8 472.65l43.29 0l0 14.52l-43.29 0Z" id="p52w102" />
<path d="M292.19 472.65l11.22 0l0 14.52l-11.22 0Z" id="p52w103" />
<path d="M306.62 472.65l9.89 0l0 14.52l-9.89 0Z" id="p52w104" />
<path d="M319.71 472.65l37.68 0l0 14.52l-37.68 0Z" id="p52w105" />
<path d="M360.61 472.65l60.07 0l0 14.52l-60.07 0Z" id="p52w106" />
<path d="M423.88 472.65l22.73 0l0 14.52l-22.73 0Z" id="p52w107" />
<path d="M449.82 472.65l54.8 0l0 14.52l-54.8 0Z" id="p52w108" />
<path d="M507.83 472.65l9.89 0l0 14.52l-9.89 0Z" id="p52w109" />
<path d="M520.93 472.65l25.12 0l0 14.52l-25.12 0Z" id="p52w110" />
<path d="M143.75 489.33l11.22 0l0 14.52l-11.22 0Z" id="p52w111" />
<path d="M158.18 489.33l15.5 0l0 14.52l-15.5 0Z" id="p52w112" />
<path d="M176.89 489.33l35 0l0 14.52l-35 0Z" id="p52w113" />
<path d="M215.1 489.33l19.51 0l0 14.52l-19.51 0Z" id="p52w114" />
<path d="M237.81 489.33l39.56 0l0 14.52l-39.56 0Z" id="p52w115" />
<path d="M280.58 489.33l35.28 0l0 14.52l-35.28 0Z" id="p52w116" />
<path d="M319.07 489.33l16.83 0l0 14.52l-16.83 0Z" id="p52w117" />
<path d="M339.1 489.33l9.89 0l0 14.52l-9.89 0Z" id="p52w118" />
<path d="M352.2 489.33l56.4 0l0 14.52l-56.4 0Z" id="p52w119" />
<path d="M411.81 489.33l29.66 0l0 14.52l-29.66 0Z" id="p52w120" />
<path d="M444.67 489.33l8.82 0l0 14.52l-8.82 0Z" id="p52w121" />
<path d="M456.7 489.33l11.22 0l0 14.52l-11.22 0Z" id="p52w122" />
<path d="M471.13 489.33l35.29 0l0 14.52l-35.29 0Z" id="p52w123" />
<path d="M124.06 514.34l36.63 0l0 14.52l-36.63 0Z" id="p52w124" />
<path d="M163.9 514.34l9.62 0l0 14.52l-9.62 0Z" id="p52w125" />
<path d="M176.73 514.34l31.01 0l0 14.52l-31.01 0Z" id="p52w126" />
<path d="M210.94 514.34l9.62 0l0 14.52l-9.62 0Z" id="p52w127" />
<path d="M223.77 514.34l19.77 0l0 14.52l-19.77 0Z" id="p52w128" />
<path d="M246.75 514.34l27.53 0l0 14.52l-27.53 0Z" id="p52w129" />
<path d="M277.49 514.34l13.9 0l0 14.52l-13.9 0Z" id="p52w130" />
<path d="M294.6 514.34l34.74 0l0 14.52l-34.74 0Z" id="p52w131" />
<path d="M123.71 547.68l51.42 0l0 14.52l-51.42 0Z" id="p52w132" />
<path d="M188.22 547.68l24.59 0l0 14.52l-24.59 0Z" id="p52w133" />
<path d="M216.02 547.68l13.91 0l0 14.52l-13.91 0Z" id="p52w134" />
<path d="M233.14 547.68l39.29 0l0 14.52l-39.29 0Z" id="p52w135" />
<path d="M286.6 547.68l36.63 0l0 14.52l-36.63 0Z" id="p52w136" />
<path d="M326.43 547.68l14.18 0l0 14.52l-14.18 0Z" id="p52w137" />
<path d="M343.82 547.68l32.62 0l0 14.52l-32.62 0Z" id="p52w138" />
<path d="M379.64 547.68l13.9 0l0 14.52l-13.9 0Z" id="p52w139" />
<path d="M396.75 547.68l37.68 0l0 14.52l-37.68 0Z" id="p52w140" />
<path d="M437.64 547.68l57.39 0l0 14.52l-57.39 0Z" id="p52w141" />
<path d="M498.24 547.68l11.22 0l0 14.52l-11.22 0Z" id="p52w142" />
<path d="M512.66 547.68l43.82 0l0 14.52l-43.82 0Z" id="p52w143" />
<path d="M559.69 547.68l9.89 0l0 14.52l-9.89 0Z" id="p52w144" />
<path d="M572.79 547.68l40.36 0l0 14.52l-40.36 0Z" id="p52w145" />
<path d="M124.06 564.35l22.73 0l0 14.52l-22.73 0Z" id="p52w146" />
<path d="M150 564.35l54.55 0l0 14.52l-54.55 0Z" id="p52w147" />
<path d="M207.76 564.35l41.43 0l0 14.52l-41.43 0Z" id="p52w148" />
<path d="M252.4 564.35l26.73 0l0 14.52l-26.73 0Z" id="p52w149" />
<path d="M282.33 564.35l55.07 0l0 14.52l-55.07 0Z" id="p52w150" />
<path d="M124.06 581.02l36.63 0l0 14.52l-36.63 0Z" id="p52w151" />
<path d="M163.9 581.02l25.67 0l0 14.52l-25.67 0Z" id="p52w152" />
<path d="M192.78 581.02l34.58 0l0 14.52l-34.58 0Z" id="p52w153" />
<path d="M230.57 581.02l22.99 0l0 14.52l-22.99 0Z" id="p52w154" />
<path d="M256.77 581.02l41.87 0l0 14.52l-41.87 0Z" id="p52w155" />
<path d="M301.84 581.02l55.87 0l0 14.52l-55.87 0Z" id="p52w156" />
<path d="M360.92 581.02l13.91 0l0 14.52l-13.91 0Z" id="p52w157" />
<path d="M378.04 581.02l50.99 0l0 14.52l-50.99 0Z" id="p52w158" />
<path d="M432.24 581.02l14.18 0l0 14.52l-14.18 0Z" id="p52w159" />
<path d="M449.62 581.02l29.39 0l0 14.52l-29.39 0Z" id="p52w160" />
<path d="M482.22 581.02l32.62 0l0 14.52l-32.62 0Z" id="p52w161" />
<path d="M518.05 581.02l13.9 0l0 14.52l-13.9 0Z" id="p52w162" />
<path d="M535.15 581.02l40.36 0l0 14.52l-40.36 0Z" id="p52w163" />
<path d="M139.56 606.04l10.16 0l0 14.61l-10.16 0Z" id="p52w164" />
<path d="M152.93 606.04l11.48 0l0 14.61l-11.48 0Z" id="p52w165" />
<path d="M167.62 606.04l12.22 0l0 14.61l-12.22 0Z" id="p52w166" />
<path d="M183.05 606.04l27.73 0l0 14.61l-27.73 0Z" id="p52w167" />
<path d="M213.82 606.04l14.18 0l0 14.61l-14.18 0Z" id="p52w168" />
<path d="M231.2 606.04l14.36 0l0 14.61l-14.36 0Z" id="p52w169" />
<path d="M248.77 606.04l13.56 0l0 14.61l-13.56 0Z" id="p52w170" />
<path d="M265.54 606.04l60.52 0l0 14.61l-60.52 0Z" id="p52w171" />
<path d="M359.76 606.04l10.16 0l0 14.61l-10.16 0Z" id="p52w172" />
<path d="M373.13 606.04l14.18 0l0 14.61l-14.18 0Z" id="p52w173" />
<path d="M390.52 606.04l12.41 0l0 14.61l-12.41 0Z" id="p52w174" />
<path d="M406.13 606.04l13.56 0l0 14.61l-13.56 0Z" id="p52w175" />
<path d="M422.9 606.04l60.52 0l0 14.61l-60.52 0Z" id="p52w176" />
<path d="M486.45 606.04l9.89 0l0 14.61l-9.89 0Z" id="p52w177" />
<path d="M499.54 606.04l53.02 0l0 14.61l-53.02 0Z" id="p52w178" />
<path d="M555.77 606.04l24.76 0l0 14.61l-24.76 0Z" id="p52w179" />
<path d="M583.74 606.04l36.55 0l0 14.61l-36.55 0Z" id="p52w180" />
<path d="M153.8 622.71l10.16 0l0 14.61l-10.16 0Z" id="p52w181" />
<path d="M167.17 622.71l11.48 0l0 14.61l-11.48 0Z" id="p52w182" />
<path d="M181.87 622.71l44.27 0l0 14.61l-44.27 0Z" id="p52w183" />
<path d="M229.34 622.71l24.76 0l0 14.61l-24.76 0Z" id="p52w184" />
<path d="M257.31 622.71l36.55 0l0 14.61l-36.55 0Z" id="p52w185" />
<path d="M296.9 622.71l11.48 0l0 14.61l-11.48 0Z" id="p52w186" />
<path d="M311.59 622.71l29.05 0l0 14.61l-29.05 0Z" id="p52w187" />
<path d="M343.85 622.71l43.97 0l0 14.61l-43.97 0Z" id="p52w188" />
<path d="M421.43 622.71l10.16 0l0 14.61l-10.16 0Z" id="p52w189" />
<path d="M434.8 622.71l11.48 0l0 14.61l-11.48 0Z" id="p52w190" />
<path d="M449.5 622.71l12.29 0l0 14.61l-12.29 0Z" id="p52w191" />
<path d="M464.99 622.71l43.97 0l0 14.61l-43.97 0Z" id="p52w192" />
<path d="M511.99 622.71l11.48 0l0 14.61l-11.48 0Z" id="p52w193" />
<path d="M526.68 622.71l13.9 0l0 14.61l-13.9 0Z" id="p52w194" />
<path d="M543.79 622.71l42.42 0l0 14.61l-42.42 0Z" id="p52w195" />
<path d="M589.42 622.71l19.44 0l0 14.61l-19.44 0Z" id="p52w196" />
<path d="M612.07 622.71l24.25 0l0 14.61l-24.25 0Z" id="p52w197" />
<path d="M649.35 622.71l37.08 0l0 14.61l-37.08 0Z" id="p52w198" />
<path d="M143.76 647.71l10.16 0l0 14.52l-10.16 0Z" id="p52w199" />
<path d="M157.13 647.71l11.5 0l0 14.52l-11.5 0Z" id="p52w200" />
<path d="M171.83 647.71l12.29 0l0 14.52l-12.29 0Z" id="p52w201" />
<path d="M187.33 647.71l27.8 0l0 14.52l-27.8 0Z" id="p52w202" />
<path d="M143.76 664.38l15.77 0l0 14.52l-15.77 0Z" id="p52w203" />
<path d="M162.74 664.38l31.28 0l0 14.52l-31.28 0Z" id="p52w204" />
<path d="M143.76 681.05l10.16 0l0 14.52l-10.16 0Z" id="p52w205" />
<path d="M157.13 681.05l26.74 0l0 14.52l-26.74 0Z" id="p52w206" />
<path d="M187.08 681.05l42.77 0l0 14.52l-42.77 0Z" id="p52w207" />
<path d="M233.05 681.05l13.9 0l0 14.52l-13.9 0Z" id="p52w208" />
<path d="M250.16 681.05l50.62 0l0 14.52l-50.62 0Z" id="p52w209" />
<path d="M303.99 681.05l56.93 0l0 14.52l-56.93 0Z" id="p52w210" />
<path d="M446.04 647.71l10.16 0l0 14.52l-10.16 0Z" id="p52w211" />
<path d="M459.41 647.71l9.89 0l0 14.52l-9.89 0Z" id="p52w212" />
<path d="M472.5 647.71l41.71 0l0 14.52l-41.71 0Z" id="p52w213" />
<path d="M517.42 647.71l13.9 0l0 14.52l-13.9 0Z" id="p52w214" />
<path d="M534.53 647.71l57.71 0l0 14.52l-57.71 0Z" id="p52w215" />
<path d="M595.44 647.71l22.19 0l0 14.52l-22.19 0Z" id="p52w216" />
<path d="M446.04 664.38l10.16 0l0 14.52l-10.16 0Z" id="p52w217" />
<path d="M459.41 664.38l11.5 0l0 14.52l-11.5 0Z" id="p52w218" />
<path d="M474.11 664.38l19.77 0l0 14.52l-19.77 0Z" id="p52w219" />
<path d="M497.09 664.38l20.85 0l0 14.52l-20.85 0Z" id="p52w220" />
<path d="M521.15 664.38l22.17 0l0 14.52l-22.17 0Z" id="p52w221" />
<path d="M546.54 664.38l25.67 0l0 14.52l-25.67 0Z" id="p52w222" />
<path d="M575.42 664.38l18.72 0l0 14.52l-18.72 0Z" id="p52w223" />
<path d="M597.34 664.38l71.09 0l0 14.52l-71.09 0Z" id="p52w224" />
<path d="M446.04 681.05l10.16 0l0 14.52l-10.16 0Z" id="p52w225" />
<path d="M459.41 681.05l9.89 0l0 14.52l-9.89 0Z" id="p52w226" />
<path d="M472.5 681.05l22.73 0l0 14.52l-22.73 0Z" id="p52w227" />
<path d="M498.44 681.05l25.92 0l0 14.52l-25.92 0Z" id="p52w228" />
<path d="M527.57 681.05l19.51 0l0 14.52l-19.51 0Z" id="p52w229" />
<path d="M550.29 681.05l9.89 0l0 14.52l-9.89 0Z" id="p52w230" />
<path d="M563.38 681.05l64.62 0l0 14.52l-64.62 0Z" id="p52w231" />
<path d="M124.07 714.4l39.82 0l0 14.52l-39.82 0Z" id="p52w232" />
<path d="M167.1 714.4l22.98 0l0 14.52l-22.98 0Z" id="p52w233" />
<path d="M193.28 714.4l41.96 0l0 14.52l-41.96 0Z" id="p52w234" />
<path d="M238.45 714.4l25.67 0l0 14.52l-25.67 0Z" id="p52w235" />
<path d="M267.33 714.4l36.09 0l0 14.52l-36.09 0Z" id="p52w236" />
<path d="M306.63 714.4l31.9 0l0 14.52l-31.9 0Z" id="p52w237" />
<path d="M341.74 714.4l19.79 0l0 14.52l-19.79 0Z" id="p52w238" />
<path d="M364.73 714.4l39.56 0l0 14.52l-39.56 0Z" id="p52w239" />
<path d="M407.5 714.4l6.41 0l0 14.52l-6.41 0Z" id="p52w240" />
<path d="M417.12 714.4l40.1 0l0 14.52l-40.1 0Z" id="p52w241" />
<path d="M460.42 714.4l25.4 0l0 14.52l-25.4 0Z" id="p52w242" />
<path d="M488.59 714.4l44.93 0l0 14.52l-44.93 0Z" id="p52w243" />
<path d="M536.73 714.4l11.22 0l0 14.52l-11.22 0Z" id="p52w244" />
<path d="M551.16 714.4l52.13 0l0 14.52l-52.13 0Z" id="p52w245" />
<path d="M124.07 731.07l59.34 0l0 14.52l-59.34 0Z" id="p52w246" />
<path d="M186.62 731.07l15.5 0l0 14.52l-15.5 0Z" id="p52w247" />
<path d="M205.32 731.07l43.29 0l0 14.52l-43.29 0Z" id="p52w248" />
<path d="M251.82 731.07l25.4 0l0 14.52l-25.4 0Z" id="p52w249" />
<path d="M280.43 731.07l8.82 0l0 14.52l-8.82 0Z" id="p52w250" />
<path d="M292.45 731.07l13.91 0l0 14.52l-13.91 0Z" id="p52w251" />
<path d="M309.57 731.07l35.29 0l0 14.52l-35.29 0Z" id="p52w252" />
<path d="M381.99 731.07l11.22 0l0 14.52l-11.22 0Z" id="p52w253" />
<path d="M396.42 731.07l9.89 0l0 14.52l-9.89 0Z" id="p52w254" />
<path d="M409.51 731.07l21.4 0l0 14.52l-21.4 0Z" id="p52w255" />
<path d="M434.12 731.07l35 0l0 14.52l-35 0Z" id="p52w256" />
<path d="M124.06 757.86l42.5 0l0 12.29l-42.5 0Z" id="p52w257" />
<path d="M194.36 756.08l9.62 0l0 14.52l-9.62 0Z" id="p52w258" />
<path d="M207.19 756.08l33.41 0l0 14.52l-33.41 0Z" id="p52w259" />
<path d="M253.69 756.08l18.72 0l0 14.52l-18.72 0Z" id="p52w260" />
<path d="M275.61 756.08l50.2 0l0 14.52l-50.2 0Z" id="p52w261" />
<path d="M329.02 756.08l9.62 0l0 14.52l-9.62 0Z" id="p52w262" />
<path d="M360.81 756.08l30.99 0l0 14.52l-30.99 0Z" id="p52w263" />
<path d="M395.01 756.08l14.18 0l0 14.52l-14.18 0Z" id="p52w264" />
<path d="M412.39 756.08l20.85 0l0 14.52l-20.85 0Z" id="p52w265" />
<path d="M436.45 756.08l31.8 0l0 14.52l-31.8 0Z" id="p52w266" />
<path d="M124.06 774.53l38.51 0l0 12.29l-38.51 0Z" id="p52w267" />
<path d="M190.37 772.76l11.5 0l0 14.52l-11.5 0Z" id="p52w268" />
<path d="M205.07 772.76l51.32 0l0 14.52l-51.32 0Z" id="p52w269" />
<path d="M259.6 772.76l15.5 0l0 14.52l-15.5 0Z" id="p52w270" />
<path d="M278.3 772.76l29.95 0l0 14.52l-29.95 0Z" id="p52w271" />
<path d="M311.46 772.76l46.78 0l0 14.52l-46.78 0Z" id="p52w272" />
<path d="M361.44 772.76l24.59 0l0 14.52l-24.59 0Z" id="p52w273" />
<path d="M389.24 772.76l29.41 0l0 14.52l-29.41 0Z" id="p52w274" />
<path d="M421.86 772.76l11.5 0l0 14.52l-11.5 0Z" id="p52w275" />
<path d="M455.52 772.76l36.09 0l0 14.52l-36.09 0Z" id="p52w276" />
<path d="M494.81 772.76l19.51 0l0 14.52l-19.51 0Z" id="p52w277" />
<path d="M517.53 772.76l58.8 0l0 14.52l-58.8 0Z" id="p52w278" />
<path d="M589.43 772.76l34.49 0l0 14.52l-34.49 0Z" id="p52w279" />
<path d="M153.64 789.43l18.72 0l0 14.52l-18.72 0Z" id="p52w280" />
<path d="M175.56 789.43l35.57 0l0 14.52l-35.57 0Z" id="p52w281" />
<path d="M124.06 807.88l33.69 0l0 12.29l-33.69 0Z" id="p52w282" />
<path d="M166.58 806.1l26.45 0l0 14.52l-26.45 0Z" id="p52w283" />
<path d="M196.24 806.1l21.4 0l0 14.52l-21.4 0Z" id="p52w284" />
<path d="M246.76 806.1l9.62 0l0 14.52l-9.62 0Z" id="p52w285" />
<path d="M259.59 806.1l44.46 0l0 14.52l-44.46 0Z" id="p52w286" />
<path d="M307.25 806.1l81.72 0l0 14.52l-81.72 0Z" id="p52w287" />
<path d="M392.18 806.1l22.99 0l0 14.52l-22.99 0Z" id="p52w288" />
<path d="M437.34 806.1l32.87 0l0 14.52l-32.87 0Z" id="p52w289" />
<path d="M473.41 806.1l27.01 0l0 14.52l-27.01 0Z" id="p52w290" />
<path d="M503.63 806.1l11.5 0l0 14.52l-11.5 0Z" id="p52w291" />
<path d="M518.33 806.1l25.67 0l0 14.52l-25.67 0Z" id="p52w292" />
<path d="M566.17 806.1l9.62 0l0 14.52l-9.62 0Z" id="p52w293" />
<path d="M579 806.1l28.33 0l0 14.52l-28.33 0Z" id="p52w294" />
<path d="M143.75 822.77l51.85 0l0 14.52l-51.85 0Z" id="p52w295" />
<path d="M198.81 822.77l22.99 0l0 14.52l-22.99 0Z" id="p52w296" />
<path d="M225.01 822.77l9.89 0l0 14.52l-9.89 0Z" id="p52w297" />
<path d="M238.1 822.77l37.68 0l0 14.52l-37.68 0Z" id="p52w298" />
<path d="M278.99 822.77l9.62 0l0 14.52l-9.62 0Z" id="p52w299" />
<path d="M310.78 822.77l33.94 0l0 14.52l-33.94 0Z" id="p52w300" />
<path d="M347.93 822.77l19.51 0l0 14.52l-19.51 0Z" id="p52w301" />
<path d="M370.64 822.77l42.44 0l0 14.52l-42.44 0Z" id="p52w302" />
<path d="M416.28 822.77l51.32 0l0 14.52l-51.32 0Z" id="p52w303" />
<path d="M124.06 841.22l42.5 0l0 12.29l-42.5 0Z" id="p52w304" />
<path d="M194.36 839.45l6.41 0l0 14.52l-6.41 0Z" id="p52w305" />
<path d="M203.98 839.45l47.84 0l0 14.52l-47.84 0Z" id="p52w306" />
<path d="M255.02 839.45l6.41 0l0 14.52l-6.41 0Z" id="p52w307" />
<path d="M283.6 839.45l30.99 0l0 14.52l-30.99 0Z" id="p52w308" />
<path d="M317.8 839.45l9.89 0l0 14.52l-9.89 0Z" id="p52w309" />
<path d="M330.9 839.45l43.82 0l0 14.52l-43.82 0Z" id="p52w310" />
<path d="M377.93 839.45l13.9 0l0 14.52l-13.9 0Z" id="p52w311" />
<path d="M395.03 839.45l9.89 0l0 14.52l-9.89 0Z" id="p52w312" />
<path d="M408.13 839.45l33.67 0l0 14.52l-33.67 0Z" id="p52w313" />
<path d="M445.01 839.45l13.9 0l0 14.52l-13.9 0Z" id="p52w314" />
<path d="M462.11 839.45l54.53 0l0 14.52l-54.53 0Z" id="p52w315" />
<path d="M124.06 857.89l38.51 0l0 12.29l-38.51 0Z" id="p52w316" />
<path d="M171.41 856.12l53.68 0l0 14.52l-53.68 0Z" id="p52w317" />
<path d="M228.3 856.12l24.88 0l0 14.52l-24.88 0Z" id="p52w318" />
<path d="M256.38 856.12l42.5 0l0 14.52l-42.5 0Z" id="p52w319" />
<path d="M321.05 856.12l11.5 0l0 14.52l-11.5 0Z" id="p52w320" />
<path d="M335.76 856.12l37.41 0l0 14.52l-37.41 0Z" id="p52w321" />
<path d="M376.37 856.12l44.64 0l0 14.52l-44.64 0Z" id="p52w322" />
<path d="M424.22 856.12l11.5 0l0 14.52l-11.5 0Z" id="p52w323" />
<path d="M438.92 856.12l26.74 0l0 14.52l-26.74 0Z" id="p52w324" />
<path d="M487.83 856.12l40.09 0l0 14.52l-40.09 0Z" id="p52w325" />
<path d="M143.75 872.79l53.19 0l0 14.52l-53.19 0Z" id="p52w326" />
<path d="M200.15 872.79l24.85 0l0 14.52l-24.85 0Z" id="p52w327" />
<path d="M238.1 872.79l36.64 0l0 14.52l-36.64 0Z" id="p52w328" />
<path d="M124.06 891.24l42.5 0l0 12.29l-42.5 0Z" id="p52w329" />
<path d="M175.4 889.47l11.5 0l0 14.52l-11.5 0Z" id="p52w330" />
<path d="M209.06 889.47l11.5 0l0 14.52l-11.5 0Z" id="p52w331" />
<path d="M223.77 889.47l13.9 0l0 14.52l-13.9 0Z" id="p52w332" />
<path d="M240.87 889.47l11.22 0l0 14.52l-11.22 0Z" id="p52w333" />
<path d="M255.3 889.47l25.12 0l0 14.52l-25.12 0Z" id="p52w334" />
<path d="M283.62 889.47l19.51 0l0 14.52l-19.51 0Z" id="p52w335" />
<path d="M306.34 889.47l24.33 0l0 14.52l-24.33 0Z" id="p52w336" />
<path d="M343.76 889.47l36.64 0l0 14.52l-36.64 0Z" id="p52w337" />
<path d="M383.61 889.47l11.5 0l0 14.52l-11.5 0Z" id="p52w338" />
<path d="M417.27 889.47l33.94 0l0 14.52l-33.94 0Z" id="p52w339" />
<path d="M454.42 889.47l24.34 0l0 14.52l-24.34 0Z" id="p52w340" />
<path d="M124.06 907.91l33.69 0l0 12.29l-33.69 0Z" id="p52w341" />
<path d="M166.23 906.14l23.81 0l0 14.52l-23.81 0Z" id="p52w342" />
<path d="M193.25 906.14l14.16 0l0 14.52l-14.16 0Z" id="p52w343" />
<path d="M210.62 906.14l27.01 0l0 14.52l-27.01 0Z" id="p52w344" />
<path d="M240.83 906.14l9.62 0l0 14.52l-9.62 0Z" id="p52w345" />
<path d="M253.66 906.14l58 0l0 14.52l-58 0Z" id="p52w346" />
<path d="M314.86 906.14l24.33 0l0 14.52l-24.33 0Z" id="p52w347" />
<path d="M342.4 906.14l25.4 0l0 14.52l-25.4 0Z" id="p52w348" />
<path d="M371 906.14l36.09 0l0 14.52l-36.09 0Z" id="p52w349" />
<path d="M410.3 906.14l19.24 0l0 14.52l-19.24 0Z" id="p52w350" />
<path d="M432.75 906.14l42.49 0l0 14.52l-42.49 0Z" id="p52w351" />
<path d="M478.44 906.14l11.22 0l0 14.52l-11.22 0Z" id="p52w352" />
<path d="M492.87 906.14l13.37 0l0 14.52l-13.37 0Z" id="p52w353" />
<path d="M509.45 906.14l13.36 0l0 14.52l-13.36 0Z" id="p52w354" />
<path d="M544.97 906.14l36.88 0l0 14.52l-36.88 0Z" id="p52w355" />
<path d="M604.02 906.14l14.8 0l0 14.52l-14.8 0Z" id="p52w356" />
<path d="M143.76 922.81l19.51 0l0 14.52l-19.51 0Z" id="p52w357" />
<path d="M166.47 922.81l61.48 0l0 14.52l-61.48 0Z" id="p52w358" />
<path d="M231.16 922.81l11.5 0l0 14.52l-11.5 0Z" id="p52w359" />
<path d="M264.82 922.81l25.67 0l0 14.52l-25.67 0Z" id="p52w360" />
<path d="M293.7 922.81l17.63 0l0 14.52l-17.63 0Z" id="p52w361" />
<path d="M314.55 922.81l54.28 0l0 14.52l-54.28 0Z" id="p52w362" />
<path d="M372.03 922.81l26.74 0l0 14.52l-26.74 0Z" id="p52w363" />
<path d="M420.94 922.81l16.57 0l0 14.52l-16.57 0Z" id="p52w364" />
<path d="M440.71 922.81l37.14 0l0 14.52l-37.14 0Z" id="p52w365" />
<path d="M481.06 922.81l17.11 0l0 14.52l-17.11 0Z" id="p52w366" />
<path d="M501.37 922.81l35.57 0l0 14.52l-35.57 0Z" id="p52w367" />
<path d="M613 98.74l20.81 0l0 12.56l-20.81 0Z" id="p52w368" />
<path d="M636.51 98.74l31.57 0l0 12.56l-31.57 0Z" id="p52w369" />
<path d="M453.39 127.15l48.66 0l0 15.37l-48.66 0Z" id="p52w370" />
<path d="M505.43 127.15l52.59 0l0 15.37l-52.59 0Z" id="p52w371" />
<path d="M568.51 127.15l45.7 0l0 15.37l-45.7 0Z" id="p52w372" />
<path d="M453.39 148.44l6.96 0l0 14.52l-6.96 0Z" id="p52w373" />
<path d="M482.54 148.44l44.11 0l0 14.52l-44.11 0Z" id="p52w374" />
<path d="M529.86 148.44l49.99 0l0 14.52l-49.99 0Z" id="p52w375" />
<path d="M583.05 148.44l28.06 0l0 14.52l-28.06 0Z" id="p52w376" />
<path d="M614.32 148.44l25.67 0l0 14.52l-25.67 0Z" id="p52w377" />
<path d="M643.2 148.44l32.87 0l0 14.52l-32.87 0Z" id="p52w378" />
<path d="M453.39 165.11l13.9 0l0 14.52l-13.9 0Z" id="p52w379" />
<path d="M470.5 165.11l9.89 0l0 14.52l-9.89 0Z" id="p52w380" />
<path d="M483.59 165.11l35.27 0l0 14.52l-35.27 0Z" id="p52w381" />
<path d="M522.07 165.11l35.03 0l0 14.52l-35.03 0Z" id="p52w382" />
<path d="M560.31 165.11l54.53 0l0 14.52l-54.53 0Z" id="p52w383" />
<path d="M618.04 165.11l36.63 0l0 14.52l-36.63 0Z" id="p52w384" />
<path d="M657.88 165.11l9.89 0l0 14.52l-9.89 0Z" id="p52w385" />
<path d="M670.97 165.11l21.4 0l0 14.52l-21.4 0Z" id="p52w386" />
<path d="M453.39 181.79l22.45 0l0 14.52l-22.45 0Z" id="p52w387" />
<path d="M479.05 181.79l13.63 0l0 14.52l-13.63 0Z" id="p52w388" />
<path d="M495.9 181.79l21.4 0l0 14.52l-21.4 0Z" id="p52w389" />
<path d="M520.5 181.79l47.31 0l0 14.52l-47.31 0Z" id="p52w390" />
<path d="M579.3 181.79l40.63 0l0 14.52l-40.63 0Z" id="p52w391" />
<path d="M623.14 181.79l9.89 0l0 14.52l-9.89 0Z" id="p52w392" />
<path d="M636.23 181.79l43.83 0l0 14.52l-43.83 0Z" id="p52w393" />
<path d="M453.39 198.46l49.44 0l0 14.52l-49.44 0Z" id="p52w394" />
<path d="M506.05 198.46l11.22 0l0 14.52l-11.22 0Z" id="p52w395" />
<path d="M520.47 198.46l25.67 0l0 14.52l-25.67 0Z" id="p52w396" />
<path d="M549.35 198.46l23.51 0l0 14.52l-23.51 0Z" id="p52w397" />
<path d="M576.07 198.46l22.72 0l0 14.52l-22.72 0Z" id="p52w398" />
<path d="M601.99 198.46l32.23 0l0 14.52l-32.23 0Z" id="p52w399" />
<path d="M637.43 198.46l26.2 0l0 14.52l-26.2 0Z" id="p52w400" />
<path d="M453.39 223.47l25.41 0l0 14.52l-25.41 0Z" id="p52w401" />
<path d="M482.01 223.47l22.99 0l0 14.52l-22.99 0Z" id="p52w402" />
<path d="M508.21 223.47l83.84 0l0 14.52l-83.84 0Z" id="p52w403" />
<path d="M595.26 223.47l20.85 0l0 14.52l-20.85 0Z" id="p52w404" />
<path d="M619.32 223.47l27.73 0l0 14.52l-27.73 0Z" id="p52w405" />
<path d="M124.06 39.02l46.09 0l0 15.38l-46.09 0Z" id="p52w406" />
<path d="M208.74 39.02l46.59 0l0 15.38l-46.59 0Z" id="p52w407" />
<path d="M307.2 38.6l45.06 0l0 16.09l-45.06 0Z" id="p52w408" />
<path d="M406.45 39.02l32.54 0l0 15.38l-32.54 0Z" id="p52w409" />
<path d="M76.9 983l46.83 0l0 12.23l-46.83 0Z" id="p52w410" />
</svg>
