<?xml version="1.0" encoding="UTF-8"?>
<svg xmlns="http://www.w3.org/2000/svg" xmlns:xlink="http://www.w3.org/1999/xlink" version="1.1" baseProfile="full" width="768" height="1024" viewBox="0,0,768,1024" preserveAspectRatio="xMinYMin meet" >
<style type="text/css">
<![CDATA[
path {fill-opacity: 0.5;fill: #00aeef;visibility: hidden;}
]]>
</style>
<path d="M168.83 113.89l43.27 0l0 15.09l-43.27 0Z" id="p123w1" />
<path d="M215.71 113.89l26.3 0l0 15.09l-26.3 0Z" id="p123w2" />
<path d="M245.62 113.89l11.88 0l0 15.09l-11.88 0Z" id="p123w3" />
<path d="M261.1 113.89l30.55 0l0 15.09l-30.55 0Z" id="p123w4" />
<path d="M295.26 113.89l19.01 0l0 15.09l-19.01 0Z" id="p123w5" />
<path d="M317.88 113.89l16.64 0l0 15.09l-16.64 0Z" id="p123w6" />
<path d="M338.14 113.89l37.8 0l0 15.09l-37.8 0Z" id="p123w7" />
<path d="M379.55 113.89l27.23 0l0 15.09l-27.23 0Z" id="p123w8" />
<path d="M410.39 113.89l11.88 0l0 15.09l-11.88 0Z" id="p123w9" />
<path d="M425.88 113.89l55.2 0l0 15.09l-55.2 0Z" id="p123w10" />
<path d="M124.06 140.96l10.84 0l0 12.29l-10.84 0Z" id="p123w11" />
<path d="M137.6 140.96l24.33 0l0 12.29l-24.33 0Z" id="p123w12" />
<path d="M164.63 140.96l11.68 0l0 12.29l-11.68 0Z" id="p123w13" />
<path d="M179.02 140.96l42.5 0l0 12.29l-42.5 0Z" id="p123w14" />
<path d="M230.75 138.9l55.87 0l0 15.09l-55.87 0Z" id="p123w15" />
<path d="M290.23 138.9l12.41 0l0 15.09l-12.41 0Z" id="p123w16" />
<path d="M306.26 138.9l18.55 0l0 15.09l-18.55 0Z" id="p123w17" />
<path d="M328.42 138.9l31.89 0l0 15.09l-31.89 0Z" id="p123w18" />
<path d="M363.91 138.9l28.36 0l0 15.09l-28.36 0Z" id="p123w19" />
<path d="M395.89 138.9l18.76 0l0 15.09l-18.76 0Z" id="p123w20" />
<path d="M418.26 138.9l14.86 0l0 15.09l-14.86 0Z" id="p123w21" />
<path d="M436.73 138.9l23.17 0l0 15.09l-23.17 0Z" id="p123w22" />
<path d="M472.6 138.9l15.01 0l0 15.09l-15.01 0Z" id="p123w23" />
<path d="M491.22 138.9l19.62 0l0 15.09l-19.62 0Z" id="p123w24" />
<path d="M514.46 138.9l24.37 0l0 15.09l-24.37 0Z" id="p123w25" />
<path d="M542.44 138.9l22.31 0l0 15.09l-22.31 0Z" id="p123w26" />
<path d="M568.36 138.9l34.33 0l0 15.09l-34.33 0Z" id="p123w27" />
<path d="M606.3 138.9l21.67 0l0 15.09l-21.67 0Z" id="p123w28" />
<path d="M631.58 138.9l41.02 0l0 15.09l-41.02 0Z" id="p123w29" />
<path d="M676.22 138.9l16.64 0l0 15.09l-16.64 0Z" id="p123w30" />
<path d="M135.88 155.57l10.42 0l0 15.09l-10.42 0Z" id="p123w31" />
<path d="M156.87 155.57l10.71 0l0 15.09l-10.71 0Z" id="p123w32" />
<path d="M171.19 155.57l36.35 0l0 15.09l-36.35 0Z" id="p123w33" />
<path d="M211.14 155.57l16.67 0l0 15.09l-16.67 0Z" id="p123w34" />
<path d="M231.42 155.57l42.91 0l0 15.09l-42.91 0Z" id="p123w35" />
<path d="M277.95 155.57l15.94 0l0 15.09l-15.94 0Z" id="p123w36" />
<path d="M307.6 155.57l19.84 0l0 15.09l-19.84 0Z" id="p123w37" />
<path d="M331.05 155.57l26.1 0l0 15.09l-26.1 0Z" id="p123w38" />
<path d="M360.76 155.57l13.91 0l0 15.09l-13.91 0Z" id="p123w39" />
<path d="M378.28 155.57l46.85 0l0 15.09l-46.85 0Z" id="p123w40" />
<path d="M428.74 155.57l28.89 0l0 15.09l-28.89 0Z" id="p123w41" />
<path d="M461.24 155.57l19.84 0l0 15.09l-19.84 0Z" id="p123w42" />
<path d="M484.7 155.57l71.37 0l0 15.09l-71.37 0Z" id="p123w43" />
<path d="M566.63 155.57l16.13 0l0 15.09l-16.13 0Z" id="p123w44" />
<path d="M586.37 155.57l23.18 0l0 15.09l-23.18 0Z" id="p123w45" />
<path d="M613.16 155.57l41.02 0l0 15.09l-41.02 0Z" id="p123w46" />
<path d="M657.8 155.57l28.6 0l0 15.09l-28.6 0Z" id="p123w47" />
<path d="M135.88 172.24l45.38 0l0 15.09l-45.38 0Z" id="p123w48" />
<path d="M184.87 172.24l72.6 0l0 15.09l-72.6 0Z" id="p123w49" />
<path d="M261.08 172.24l28.33 0l0 15.09l-28.33 0Z" id="p123w50" />
<path d="M293.02 172.24l32.23 0l0 15.09l-32.23 0Z" id="p123w51" />
<path d="M328.87 172.24l10.5 0l0 15.09l-10.5 0Z" id="p123w52" />
<path d="M342.98 172.24l34.97 0l0 15.09l-34.97 0Z" id="p123w53" />
<path d="M381.56 172.24l15.15 0l0 15.09l-15.15 0Z" id="p123w54" />
<path d="M410.42 172.24l10.5 0l0 15.09l-10.5 0Z" id="p123w55" />
<path d="M424.54 172.24l36.26 0l0 15.09l-36.26 0Z" id="p123w56" />
<path d="M464.4 172.24l13.91 0l0 15.09l-13.91 0Z" id="p123w57" />
<path d="M481.92 172.24l26.89 0l0 15.09l-26.89 0Z" id="p123w58" />
<path d="M512.42 172.24l15.74 0l0 15.09l-15.74 0Z" id="p123w59" />
<path d="M531.77 172.24l27.44 0l0 15.09l-27.44 0Z" id="p123w60" />
<path d="M562.82 172.24l18.26 0l0 15.09l-18.26 0Z" id="p123w61" />
<path d="M584.7 172.24l13.91 0l0 15.09l-13.91 0Z" id="p123w62" />
<path d="M602.21 172.24l40.34 0l0 15.09l-40.34 0Z" id="p123w63" />
<path d="M653.12 172.24l17.05 0l0 15.09l-17.05 0Z" id="p123w64" />
<path d="M673.79 172.24l13.91 0l0 15.09l-13.91 0Z" id="p123w65" />
<path d="M135.88 188.91l18.04 0l0 15.09l-18.04 0Z" id="p123w66" />
<path d="M157.54 188.91l32.82 0l0 15.09l-32.82 0Z" id="p123w67" />
<path d="M193.97 188.91l55.85 0l0 15.09l-55.85 0Z" id="p123w68" />
<path d="M253.44 188.91l14.59 0l0 15.09l-14.59 0Z" id="p123w69" />
<path d="M271.64 188.91l41.4 0l0 15.09l-41.4 0Z" id="p123w70" />
<path d="M316.64 188.91l21.67 0l0 15.09l-21.67 0Z" id="p123w71" />
<path d="M341.92 188.91l12.41 0l0 15.09l-12.41 0Z" id="p123w72" />
<path d="M357.95 188.91l41.86 0l0 15.09l-41.86 0Z" id="p123w73" />
<path d="M403.42 188.91l44.1 0l0 15.09l-44.1 0Z" id="p123w74" />
<path d="M451.13 188.91l19.46 0l0 15.09l-19.46 0Z" id="p123w75" />
<path d="M474.2 188.91l18.52 0l0 15.09l-18.52 0Z" id="p123w76" />
<path d="M496.33 188.91l36.6 0l0 15.09l-36.6 0Z" id="p123w77" />
<path d="M124.07 213.92l55.04 0l0 15.09l-55.04 0Z" id="p123w78" />
<path d="M196.36 213.92l15.55 0l0 15.09l-15.55 0Z" id="p123w79" />
<path d="M215.52 213.92l28.18 0l0 15.09l-28.18 0Z" id="p123w80" />
<path d="M247.32 213.92l21 0l0 15.09l-21 0Z" id="p123w81" />
<path d="M282.03 213.92l15.94 0l0 15.09l-15.94 0Z" id="p123w82" />
<path d="M301.58 213.92l12.58 0l0 15.09l-12.58 0Z" id="p123w83" />
<path d="M317.77 213.92l25.69 0l0 15.09l-25.69 0Z" id="p123w84" />
<path d="M347.08 213.92l12.66 0l0 15.09l-12.66 0Z" id="p123w85" />
<path d="M363.35 213.92l27.44 0l0 15.09l-27.44 0Z" id="p123w86" />
<path d="M124.07 230.59l41.49 0l0 15.09l-41.49 0Z" id="p123w87" />
<path d="M169.17 230.59l27.18 0l0 15.09l-27.18 0Z" id="p123w88" />
<path d="M199.96 230.59l52.31 0l0 15.09l-52.31 0Z" id="p123w89" />
<path d="M265.98 230.59l48.18 0l0 15.09l-48.18 0Z" id="p123w90" />
<path d="M124.07 247.26l70.26 0l0 15.09l-70.26 0Z" id="p123w91" />
<path d="M197.94 247.26l52.31 0l0 15.09l-52.31 0Z" id="p123w92" />
<path d="M253.86 247.26l37.39 0l0 15.09l-37.39 0Z" id="p123w93" />
<path d="M294.86 247.26l13.29 0l0 15.09l-13.29 0Z" id="p123w94" />
<path d="M311.76 247.26l59.26 0l0 15.09l-59.26 0Z" id="p123w95" />
<path d="M374.63 247.26l31.62 0l0 15.09l-31.62 0Z" id="p123w96" />
<path d="M124.07 263.93l41.83 0l0 15.09l-41.83 0Z" id="p123w97" />
<path d="M169.51 263.93l33.21 0l0 15.09l-33.21 0Z" id="p123w98" />
<path d="M206.34 263.93l34.62 0l0 15.09l-34.62 0Z" id="p123w99" />
<path d="M244.57 263.93l13.91 0l0 15.09l-13.91 0Z" id="p123w100" />
<path d="M262.09 263.93l50.05 0l0 15.09l-50.05 0Z" id="p123w101" />
<path d="M315.74 263.93l14.59 0l0 15.09l-14.59 0Z" id="p123w102" />
<path d="M333.94 263.93l54.43 0l0 15.09l-54.43 0Z" id="p123w103" />
<path d="M138.67 297.28l48.18 0l0 15.09l-48.18 0Z" id="p123w104" />
<path d="M190.46 297.28l21.67 0l0 15.09l-21.67 0Z" id="p123w105" />
<path d="M215.74 297.28l52.31 0l0 15.09l-52.31 0Z" id="p123w106" />
<path d="M271.66 297.28l34.3 0l0 15.09l-34.3 0Z" id="p123w107" />
<path d="M309.58 297.28l13.91 0l0 15.09l-13.91 0Z" id="p123w108" />
<path d="M327.09 297.28l43.56 0l0 15.09l-43.56 0Z" id="p123w109" />
<path d="M374.26 297.28l15.74 0l0 15.09l-15.74 0Z" id="p123w110" />
<path d="M124.07 313.95l23.85 0l0 15.09l-23.85 0Z" id="p123w111" />
<path d="M151.53 313.95l25.69 0l0 15.09l-25.69 0Z" id="p123w112" />
<path d="M180.84 313.95l15.89 0l0 15.09l-15.89 0Z" id="p123w113" />
<path d="M200.33 313.95l37.22 0l0 15.09l-37.22 0Z" id="p123w114" />
<path d="M124.07 330.62l11.26 0l0 15.09l-11.26 0Z" id="p123w115" />
<path d="M138.94 330.62l46.87 0l0 15.09l-46.87 0Z" id="p123w116" />
<path d="M189.42 330.62l14.59 0l0 15.09l-14.59 0Z" id="p123w117" />
<path d="M207.62 330.62l37.19 0l0 15.09l-37.19 0Z" id="p123w118" />
<path d="M248.43 330.62l36.26 0l0 15.09l-36.26 0Z" id="p123w119" />
<path d="M288.29 330.62l19.29 0l0 15.09l-19.29 0Z" id="p123w120" />
<path d="M311.19 330.62l29.77 0l0 15.09l-29.77 0Z" id="p123w121" />
<path d="M344.57 330.62l27.82 0l0 15.09l-27.82 0Z" id="p123w122" />
<path d="M376.01 330.62l11.88 0l0 15.09l-11.88 0Z" id="p123w123" />
<path d="M124.07 347.28l59.26 0l0 15.09l-59.26 0Z" id="p123w124" />
<path d="M186.94 347.28l35.18 0l0 15.09l-35.18 0Z" id="p123w125" />
<path d="M225.73 347.28l15.15 0l0 15.09l-15.15 0Z" id="p123w126" />
<path d="M254.59 347.28l24.37 0l0 15.09l-24.37 0Z" id="p123w127" />
<path d="M282.57 347.28l21.98 0l0 15.09l-21.98 0Z" id="p123w128" />
<path d="M308.16 347.28l10.42 0l0 15.09l-10.42 0Z" id="p123w129" />
<path d="M322.2 347.28l53.99 0l0 15.09l-53.99 0Z" id="p123w130" />
<path d="M124.07 363.95l30.18 0l0 15.09l-30.18 0Z" id="p123w131" />
<path d="M157.86 363.95l24.52 0l0 15.09l-24.52 0Z" id="p123w132" />
<path d="M185.99 363.95l11.26 0l0 15.09l-11.26 0Z" id="p123w133" />
<path d="M200.86 363.95l10.5 0l0 15.09l-10.5 0Z" id="p123w134" />
<path d="M214.97 363.95l46.52 0l0 15.09l-46.52 0Z" id="p123w135" />
<path d="M265.11 363.95l13.91 0l0 15.09l-13.91 0Z" id="p123w136" />
<path d="M282.62 363.95l26.35 0l0 15.09l-26.35 0Z" id="p123w137" />
<path d="M312.58 363.95l46.67 0l0 15.09l-46.67 0Z" id="p123w138" />
<path d="M362.86 363.95l19.46 0l0 15.09l-19.46 0Z" id="p123w139" />
<path d="M124.07 380.62l88.29 0l0 15.09l-88.29 0Z" id="p123w140" />
<path d="M124.06 424.77l34.63 0l0 18.84l-34.63 0Z" id="p123w141" />
<path d="M162.34 424.77l89.43 0l0 18.84l-89.43 0Z" id="p123w142" />
<path d="M255.42 424.77l13.62 0l0 18.84l-13.62 0Z" id="p123w143" />
<path d="M272.69 424.77l38.39 0l0 18.84l-38.39 0Z" id="p123w144" />
<path d="M143.75 455.97l193.65 0l0 14.52l-193.65 0Z" id="p123w145" />
<path d="M143.75 480.98l274.48 0l0 14.52l-274.48 0Z" id="p123w146" />
<path d="M143.75 497.66l361.82 0l0 14.52l-361.82 0Z" id="p123w147" />
<path d="M143.75 514.33l235.78 0l0 14.52l-235.78 0Z" id="p123w148" />
<path d="M143.75 539.34l99.22 0l0 14.52l-99.22 0Z" id="p123w149" />
<path d="M325.57 539.34l189.25 0l0 14.52l-189.25 0Z" id="p123w150" />
<path d="M143.75 564.35l314.58 0l0 14.52l-314.58 0Z" id="p123w151" />
<path d="M124.06 597.69l316.99 0l0 14.52l-316.99 0Z" id="p123w152" />
<path d="M124.06 614.36l65.77 0l0 14.52l-65.77 0Z" id="p123w153" />
<path d="M124.06 631.03l296.48 0l0 14.52l-296.48 0Z" id="p123w154" />
<path d="M124.06 647.71l85.19 0l0 14.52l-85.19 0Z" id="p123w155" />
<path d="M124.06 691.53l23.83 0l0 18.84l-23.83 0Z" id="p123w156" />
<path d="M151.54 691.53l18.36 0l0 18.84l-18.36 0Z" id="p123w157" />
<path d="M173.54 691.53l37.28 0l0 18.84l-37.28 0Z" id="p123w158" />
<path d="M143.75 722.74l241.47 0l0 14.52l-241.47 0Z" id="p123w159" />
<path d="M143.75 747.75l67.57 0l0 14.52l-67.57 0Z" id="p123w160" />
<path d="M143.75 764.42l73.24 0l0 14.52l-73.24 0Z" id="p123w161" />
<path d="M143.75 781.09l39.84 0l0 14.52l-39.84 0Z" id="p123w162" />
<path d="M143.75 797.76l66.29 0l0 14.52l-66.29 0Z" id="p123w163" />
<path d="M143.75 814.43l56.93 0l0 14.52l-56.93 0Z" id="p123w164" />
<path d="M143.75 831.1l47.06 0l0 14.52l-47.06 0Z" id="p123w165" />
<path d="M426.34 747.74l61.75 0l0 14.52l-61.75 0Z" id="p123w166" />
<path d="M426.34 764.41l37.17 0l0 14.52l-37.17 0Z" id="p123w167" />
<path d="M426.34 781.08l93.83 0l0 14.52l-93.83 0Z" id="p123w168" />
<path d="M426.34 797.75l54 0l0 14.52l-54 0Z" id="p123w169" />
<path d="M426.34 814.42l75.66 0l0 14.52l-75.66 0Z" id="p123w170" />
<path d="M426.34 831.09l54.28 0l0 14.52l-54.28 0Z" id="p123w171" />
<path d="M143.75 856.1l284.13 0l0 14.52l-284.13 0Z" id="p123w172" />
<path d="M124.06 881.13l10.41 0l0 14.61l-10.41 0Z" id="p123w173" />
<path d="M137.68 881.13l13.9 0l0 14.61l-13.9 0Z" id="p123w174" />
<path d="M154.79 881.13l26.99 0l0 14.61l-26.99 0Z" id="p123w175" />
<path d="M184.99 881.13l19.44 0l0 14.61l-19.44 0Z" id="p123w176" />
<path d="M207.64 881.13l37.93 0l0 14.61l-37.93 0Z" id="p123w177" />
<path d="M248.78 881.13l25.13 0l0 14.61l-25.13 0Z" id="p123w178" />
<path d="M277.12 881.13l58.37 0l0 14.61l-58.37 0Z" id="p123w179" />
<path d="M338.7 881.13l30.66 0l0 14.61l-30.66 0Z" id="p123w180" />
<path d="M372.57 881.13l20.84 0l0 14.61l-20.84 0Z" id="p123w181" />
<path d="M396.61 881.13l25.13 0l0 14.61l-25.13 0Z" id="p123w182" />
<path d="M424.95 881.13l26.72 0l0 14.61l-26.72 0Z" id="p123w183" />
<path d="M464.7 881.13l20.58 0l0 14.61l-20.58 0Z" id="p123w184" />
<path d="M488.48 881.13l9.89 0l0 14.61l-9.89 0Z" id="p123w185" />
<path d="M501.58 881.13l32.01 0l0 14.61l-32.01 0Z" id="p123w186" />
<path d="M73.54 429.96l15.07 0l0 12.29l-15.07 0Z" id="p123w187" />
<path d="M52.89 449.48l35.72 0l0 12.3l-35.72 0Z" id="p123w188" />
<path d="M44.38 461.98l44.24 0l0 12.3l-44.24 0Z" id="p123w189" />
<path d="M62.22 599.47l26.4 0l0 12.29l-26.4 0Z" id="p123w190" />
<path d="M495.89 621.03l54.97 0l0 19.38l-54.97 0Z" id="p123w191" />
<path d="M556.24 623.66l7.15 0l0 17.29l-7.15 0Z" id="p123w192" />
<path d="M568.53 624.2l26.29 0l0 18.13l-26.29 0Z" id="p123w193" />
<path d="M600.21 625.58l48.92 0l0 19.11l-48.92 0Z" id="p123w194" />
<path d="M495.16 637.68l23.05 0l0 17.98l-23.05 0Z" id="p123w195" />
<path d="M523.59 638.93l28.93 0l0 18.24l-28.93 0Z" id="p123w196" />
<path d="M557.9 640.42l25.55 0l0 18.09l-25.55 0Z" id="p123w197" />
<path d="M588.84 641.77l14.77 0l0 17.62l-14.77 0Z" id="p123w198" />
<path d="M68.27 39.02l42.71 0l0 15.38l-42.71 0Z" id="p123w199" />
<path d="M152.94 38.6l45.75 0l0 16.09l-45.75 0Z" id="p123w200" />
<path d="M250.71 39.02l43.21 0l0 15.38l-43.21 0Z" id="p123w201" />
<path d="M358.23 39.02l28.68 0l0 15.38l-28.68 0Z" id="p123w202" />
<path d="M390.29 39.02l45.07 0l0 15.38l-45.07 0Z" id="p123w203" />
<path d="M467.02 39.02l32.54 0l0 15.38l-32.54 0Z" id="p123w204" />
<path d="M616.19 983l74.92 0l0 12.23l-74.92 0Z" id="p123w205" />
</svg>
