<?xml version="1.0" encoding="UTF-8"?>
<svg xmlns="http://www.w3.org/2000/svg" xmlns:xlink="http://www.w3.org/1999/xlink" version="1.1" baseProfile="full" width="768" height="1024" viewBox="0,0,768,1024" preserveAspectRatio="xMinYMin meet" >
<style type="text/css">
<![CDATA[
path {fill-opacity: 0.5;fill: #00aeef;visibility: hidden;}
]]>
</style>
<path d="M124.06 114.18l36.63 0l0 14.52l-36.63 0Z" id="p79w1" />
<path d="M163.9 114.18l33.05 0l0 14.52l-33.05 0Z" id="p79w2" />
<path d="M200.16 114.18l30.23 0l0 14.52l-30.23 0Z" id="p79w3" />
<path d="M233.59 114.18l44.9 0l0 14.52l-44.9 0Z" id="p79w4" />
<path d="M281.7 114.18l9.89 0l0 14.52l-9.89 0Z" id="p79w5" />
<path d="M294.79 114.18l69.52 0l0 14.52l-69.52 0Z" id="p79w6" />
<path d="M367.52 114.18l42.49 0l0 14.52l-42.49 0Z" id="p79w7" />
<path d="M421.51 114.18l59.34 0l0 14.52l-59.34 0Z" id="p79w8" />
<path d="M484.06 114.18l9.89 0l0 14.52l-9.89 0Z" id="p79w9" />
<path d="M497.15 114.18l48.06 0l0 14.52l-48.06 0Z" id="p79w10" />
<path d="M124.06 130.85l11.22 0l0 14.52l-11.22 0Z" id="p79w11" />
<path d="M138.49 130.85l41.18 0l0 14.52l-41.18 0Z" id="p79w12" />
<path d="M182.88 130.85l25.67 0l0 14.52l-25.67 0Z" id="p79w13" />
<path d="M211.76 130.85l40.64 0l0 14.52l-40.64 0Z" id="p79w14" />
<path d="M255.61 130.85l37.68 0l0 14.52l-37.68 0Z" id="p79w15" />
<path d="M296.5 130.85l56.4 0l0 14.52l-56.4 0Z" id="p79w16" />
<path d="M356.11 130.85l14.18 0l0 14.52l-14.18 0Z" id="p79w17" />
<path d="M373.49 130.85l45.72 0l0 14.52l-45.72 0Z" id="p79w18" />
<path d="M422.42 130.82l86.47 0l0 14.52l-86.47 0Z" id="p79w19" />
<path d="M124.06 157.64l24.42 0l0 12.29l-24.42 0Z" id="p79w20" />
<path d="M150.74 157.64l29.87 0l0 12.29l-29.87 0Z" id="p79w21" />
<path d="M189.44 155.86l27.53 0l0 14.52l-27.53 0Z" id="p79w22" />
<path d="M220.18 155.86l11.22 0l0 14.52l-11.22 0Z" id="p79w23" />
<path d="M234.6 155.86l23.8 0l0 14.52l-23.8 0Z" id="p79w24" />
<path d="M261.61 155.86l26.74 0l0 14.52l-26.74 0Z" id="p79w25" />
<path d="M291.56 155.86l32.62 0l0 14.52l-32.62 0Z" id="p79w26" />
<path d="M327.38 155.86l13.11 0l0 14.52l-13.11 0Z" id="p79w27" />
<path d="M343.7 155.86l16.83 0l0 14.52l-16.83 0Z" id="p79w28" />
<path d="M363.73 155.86l31.01 0l0 14.52l-31.01 0Z" id="p79w29" />
<path d="M397.95 155.86l11.22 0l0 14.52l-11.22 0Z" id="p79w30" />
<path d="M412.37 155.86l26.74 0l0 14.52l-26.74 0Z" id="p79w31" />
<path d="M143.76 172.53l40.61 0l0 14.52l-40.61 0Z" id="p79w32" />
<path d="M187.58 172.53l32.87 0l0 14.52l-32.87 0Z" id="p79w33" />
<path d="M233.54 172.53l16.83 0l0 14.52l-16.83 0Z" id="p79w34" />
<path d="M253.57 172.53l31.02 0l0 14.52l-31.02 0Z" id="p79w35" />
<path d="M298.76 172.53l11.22 0l0 14.52l-11.22 0Z" id="p79w36" />
<path d="M313.18 172.53l32.35 0l0 14.52l-32.35 0Z" id="p79w37" />
<path d="M348.74 172.53l32.89 0l0 14.52l-32.89 0Z" id="p79w38" />
<path d="M384.84 172.53l9.62 0l0 14.52l-9.62 0Z" id="p79w39" />
<path d="M416.63 172.53l57.55 0l0 14.52l-57.55 0Z" id="p79w40" />
<path d="M143.76 189.2l14.18 0l0 14.52l-14.18 0Z" id="p79w41" />
<path d="M161.14 189.2l20.85 0l0 14.52l-20.85 0Z" id="p79w42" />
<path d="M185.2 189.2l22.99 0l0 14.52l-22.99 0Z" id="p79w43" />
<path d="M221.29 189.2l37.17 0l0 14.52l-37.17 0Z" id="p79w44" />
<path d="M261.31 189.2l12.41 0l0 14.52l-12.41 0Z" id="p79w45" />
<path d="M295.88 189.21l50.54 0l0 14.52l-50.54 0Z" id="p79w46" />
<path d="M349.63 189.21l28.06 0l0 14.52l-28.06 0Z" id="p79w47" />
<path d="M380.9 189.21l36.34 0l0 14.52l-36.34 0Z" id="p79w48" />
<path d="M420.44 189.21l22.99 0l0 14.52l-22.99 0Z" id="p79w49" />
<path d="M143.76 205.88l13.9 0l0 14.52l-13.9 0Z" id="p79w50" />
<path d="M160.87 205.88l35 0l0 14.52l-35 0Z" id="p79w51" />
<path d="M199.08 205.88l25.4 0l0 14.52l-25.4 0Z" id="p79w52" />
<path d="M227.68 205.88l26.48 0l0 14.52l-26.48 0Z" id="p79w53" />
<path d="M257.37 205.88l9.89 0l0 14.52l-9.89 0Z" id="p79w54" />
<path d="M270.46 205.88l16.3 0l0 14.52l-16.3 0Z" id="p79w55" />
<path d="M289.97 205.88l19.51 0l0 14.52l-19.51 0Z" id="p79w56" />
<path d="M312.68 205.88l40.64 0l0 14.52l-40.64 0Z" id="p79w57" />
<path d="M356.53 205.88l42.77 0l0 14.52l-42.77 0Z" id="p79w58" />
<path d="M402.51 205.88l15.25 0l0 14.52l-15.25 0Z" id="p79w59" />
<path d="M143.76 222.55l11.5 0l0 14.52l-11.5 0Z" id="p79w60" />
<path d="M177.42 222.55l66.55 0l0 14.52l-66.55 0Z" id="p79w61" />
<path d="M247.18 222.55l20.58 0l0 14.52l-20.58 0Z" id="p79w62" />
<path d="M270.96 222.55l9.89 0l0 14.52l-9.89 0Z" id="p79w63" />
<path d="M284.06 222.55l59.09 0l0 14.52l-59.09 0Z" id="p79w64" />
<path d="M124.06 241l25.79 0l0 12.29l-25.79 0Z" id="p79w65" />
<path d="M158.68 239.23l45.17 0l0 14.52l-45.17 0Z" id="p79w66" />
<path d="M207.06 239.23l33.05 0l0 14.52l-33.05 0Z" id="p79w67" />
<path d="M243.31 239.23l30.23 0l0 14.52l-30.23 0Z" id="p79w68" />
<path d="M295.71 239.23l50.54 0l0 14.52l-50.54 0Z" id="p79w69" />
<path d="M349.45 239.23l32.87 0l0 14.52l-32.87 0Z" id="p79w70" />
<path d="M385.53 239.23l13.9 0l0 14.52l-13.9 0Z" id="p79w71" />
<path d="M402.63 239.23l22.99 0l0 14.52l-22.99 0Z" id="p79w72" />
<path d="M428.84 239.23l12.57 0l0 14.52l-12.57 0Z" id="p79w73" />
<path d="M444.61 239.23l12.57 0l0 14.52l-12.57 0Z" id="p79w74" />
<path d="M460.38 239.23l21.67 0l0 14.52l-21.67 0Z" id="p79w75" />
<path d="M143.76 255.9l14.43 0l0 14.52l-14.43 0Z" id="p79w76" />
<path d="M161.39 255.9l11.22 0l0 14.52l-11.22 0Z" id="p79w77" />
<path d="M175.82 255.9l24.85 0l0 14.52l-24.85 0Z" id="p79w78" />
<path d="M212.17 255.9l15.51 0l0 14.52l-15.51 0Z" id="p79w79" />
<path d="M230.89 255.9l9.62 0l0 14.52l-9.62 0Z" id="p79w80" />
<path d="M243.72 255.9l19.77 0l0 14.52l-19.77 0Z" id="p79w81" />
<path d="M266.7 255.9l23.24 0l0 14.52l-23.24 0Z" id="p79w82" />
<path d="M293.15 255.9l43.04 0l0 14.52l-43.04 0Z" id="p79w83" />
<path d="M123.63 289.24l26.21 0l0 14.52l-26.21 0Z" id="p79w84" />
<path d="M153.05 289.24l25.4 0l0 14.52l-25.4 0Z" id="p79w85" />
<path d="M181.65 289.24l14.7 0l0 14.52l-14.7 0Z" id="p79w86" />
<path d="M199.56 289.24l26.73 0l0 14.52l-26.73 0Z" id="p79w87" />
<path d="M229.5 289.24l13.9 0l0 14.52l-13.9 0Z" id="p79w88" />
<path d="M246.61 289.24l50.62 0l0 14.52l-50.62 0Z" id="p79w89" />
<path d="M306.85 289.24l49.1 0l0 14.52l-49.1 0Z" id="p79w90" />
<path d="M359.16 289.24l20.85 0l0 14.52l-20.85 0Z" id="p79w91" />
<path d="M383.22 289.24l25.67 0l0 14.52l-25.67 0Z" id="p79w92" />
<path d="M412.1 289.24l31.27 0l0 14.52l-31.27 0Z" id="p79w93" />
<path d="M454.86 289.24l11.5 0l0 14.52l-11.5 0Z" id="p79w94" />
<path d="M469.57 289.24l28.87 0l0 14.52l-28.87 0Z" id="p79w95" />
<path d="M501.64 289.24l26.72 0l0 14.52l-26.72 0Z" id="p79w96" />
<path d="M536.61 289.24l28.34 0l0 14.52l-28.34 0Z" id="p79w97" />
<path d="M124.06 305.91l11.5 0l0 14.52l-11.5 0Z" id="p79w98" />
<path d="M138.77 305.91l18.72 0l0 14.52l-18.72 0Z" id="p79w99" />
<path d="M160.69 305.91l42.78 0l0 14.52l-42.78 0Z" id="p79w100" />
<path d="M214.97 305.91l54.01 0l0 14.52l-54.01 0Z" id="p79w101" />
<path d="M272.19 305.91l39.29 0l0 14.52l-39.29 0Z" id="p79w102" />
<path d="M314.69 305.91l15.5 0l0 14.52l-15.5 0Z" id="p79w103" />
<path d="M333.39 305.91l36.88 0l0 14.52l-36.88 0Z" id="p79w104" />
<path d="M373.48 305.91l48.48 0l0 14.52l-48.48 0Z" id="p79w105" />
<path d="M124.06 372.6l53.18 0l0 14.52l-53.18 0Z" id="p79w106" />
<path d="M180.45 372.6l11.22 0l0 14.52l-11.22 0Z" id="p79w107" />
<path d="M194.88 372.6l42.33 0l0 14.52l-42.33 0Z" id="p79w108" />
<path d="M240.42 372.6l51.86 0l0 14.52l-51.86 0Z" id="p79w109" />
<path d="M305.37 372.6l9.89 0l0 14.52l-9.89 0Z" id="p79w110" />
<path d="M318.46 372.6l14.7 0l0 14.52l-14.7 0Z" id="p79w111" />
<path d="M336.37 372.6l19.51 0l0 14.52l-19.51 0Z" id="p79w112" />
<path d="M359.09 372.6l32.63 0l0 14.52l-32.63 0Z" id="p79w113" />
<path d="M394.93 372.6l32.87 0l0 14.52l-32.87 0Z" id="p79w114" />
<path d="M431 372.6l9.89 0l0 14.52l-9.89 0Z" id="p79w115" />
<path d="M444.09 372.6l50.74 0l0 14.52l-50.74 0Z" id="p79w116" />
<path d="M498.04 372.6l37.96 0l0 14.52l-37.96 0Z" id="p79w117" />
<path d="M539.21 372.6l9.89 0l0 14.52l-9.89 0Z" id="p79w118" />
<path d="M552.3 372.6l21.12 0l0 14.52l-21.12 0Z" id="p79w119" />
<path d="M124.06 389.28l13.9 0l0 14.52l-13.9 0Z" id="p79w120" />
<path d="M141.17 389.28l53.18 0l0 14.52l-53.18 0Z" id="p79w121" />
<path d="M217.07 389.28l13.91 0l0 14.52l-13.91 0Z" id="p79w122" />
<path d="M234.19 389.28l13.9 0l0 14.52l-13.9 0Z" id="p79w123" />
<path d="M251.29 389.28l42.33 0l0 14.52l-42.33 0Z" id="p79w124" />
<path d="M319.29 389.28l12.83 0l0 14.52l-12.83 0Z" id="p79w125" />
<path d="M335.33 389.28l21.12 0l0 14.52l-21.12 0Z" id="p79w126" />
<path d="M370.89 389.28l16.83 0l0 14.52l-16.83 0Z" id="p79w127" />
<path d="M400.81 389.28l9.89 0l0 14.52l-9.89 0Z" id="p79w128" />
<path d="M413.91 389.28l27.73 0l0 14.52l-27.73 0Z" id="p79w129" />
<path d="M468.74 389.28l39.28 0l0 14.52l-39.28 0Z" id="p79w130" />
<path d="M511.23 389.28l15.5 0l0 14.52l-15.5 0Z" id="p79w131" />
<path d="M529.93 389.28l40.9 0l0 14.52l-40.9 0Z" id="p79w132" />
<path d="M574.04 389.28l39.02 0l0 14.52l-39.02 0Z" id="p79w133" />
<path d="M124.06 405.95l14.18 0l0 14.52l-14.18 0Z" id="p79w134" />
<path d="M141.45 405.95l69.52 0l0 14.52l-69.52 0Z" id="p79w135" />
<path d="M214.18 405.95l42.49 0l0 14.52l-42.49 0Z" id="p79w136" />
<path d="M259.87 405.95l11.22 0l0 14.52l-11.22 0Z" id="p79w137" />
<path d="M274.3 405.95l40.63 0l0 14.52l-40.63 0Z" id="p79w138" />
<path d="M318.13 405.95l15.5 0l0 14.52l-15.5 0Z" id="p79w139" />
<path d="M336.84 405.95l36.88 0l0 14.52l-36.88 0Z" id="p79w140" />
<path d="M376.92 405.95l13.9 0l0 14.52l-13.9 0Z" id="p79w141" />
<path d="M394.03 405.95l28.87 0l0 14.52l-28.87 0Z" id="p79w142" />
<path d="M426.1 405.95l60.66 0l0 14.52l-60.66 0Z" id="p79w143" />
<path d="M124.06 430.89l24.45 0l0 14.6l-24.45 0Z" id="p79w144" />
<path d="M124.06 449.41l45.31 0l0 12.29l-45.31 0Z" id="p79w145" />
<path d="M178.2 447.64l28.06 0l0 14.52l-28.06 0Z" id="p79w146" />
<path d="M209.47 447.64l45.01 0l0 14.52l-45.01 0Z" id="p79w147" />
<path d="M257.68 447.64l53.19 0l0 14.52l-53.19 0Z" id="p79w148" />
<path d="M323.97 447.64l17.9 0l0 14.52l-17.9 0Z" id="p79w149" />
<path d="M345.08 447.64l18.72 0l0 14.52l-18.72 0Z" id="p79w150" />
<path d="M367 447.64l43.82 0l0 14.52l-43.82 0Z" id="p79w151" />
<path d="M414.03 447.64l21.4 0l0 14.52l-21.4 0Z" id="p79w152" />
<path d="M438.63 447.64l38.67 0l0 14.52l-38.67 0Z" id="p79w153" />
<path d="M124.06 466.08l35.94 0l0 12.29l-35.94 0Z" id="p79w154" />
<path d="M168.83 464.31l13.9 0l0 14.52l-13.9 0Z" id="p79w155" />
<path d="M185.93 464.31l24.31 0l0 14.52l-24.31 0Z" id="p79w156" />
<path d="M213.45 464.31l31.01 0l0 14.52l-31.01 0Z" id="p79w157" />
<path d="M247.67 464.31l24.33 0l0 14.52l-24.33 0Z" id="p79w158" />
<path d="M275.2 464.31l34.48 0l0 14.52l-34.48 0Z" id="p79w159" />
<path d="M312.89 464.31l10.43 0l0 14.52l-10.43 0Z" id="p79w160" />
<path d="M326.52 464.31l13.9 0l0 14.52l-13.9 0Z" id="p79w161" />
<path d="M343.63 464.31l45.45 0l0 14.52l-45.45 0Z" id="p79w162" />
<path d="M392.28 464.31l19.51 0l0 14.52l-19.51 0Z" id="p79w163" />
<path d="M414.99 464.31l17.63 0l0 14.52l-17.63 0Z" id="p79w164" />
<path d="M435.84 464.31l31.8 0l0 14.52l-31.8 0Z" id="p79w165" />
<path d="M470.84 464.31l36.36 0l0 14.52l-36.36 0Z" id="p79w166" />
<path d="M510.41 464.31l26.45 0l0 14.52l-26.45 0Z" id="p79w167" />
<path d="M540.07 464.31l11.5 0l0 14.52l-11.5 0Z" id="p79w168" />
<path d="M554.78 464.31l21.11 0l0 14.52l-21.11 0Z" id="p79w169" />
<path d="M579.09 464.31l24.34 0l0 14.52l-24.34 0Z" id="p79w170" />
<path d="M143.75 480.98l10.43 0l0 14.52l-10.43 0Z" id="p79w171" />
<path d="M157.38 480.98l21.38 0l0 14.52l-21.38 0Z" id="p79w172" />
<path d="M181.97 480.98l49.71 0l0 14.52l-49.71 0Z" id="p79w173" />
<path d="M234.89 480.98l17.38 0l0 14.52l-17.38 0Z" id="p79w174" />
<path d="M255.48 480.98l13.9 0l0 14.52l-13.9 0Z" id="p79w175" />
<path d="M272.59 480.98l42.44 0l0 14.52l-42.44 0Z" id="p79w176" />
<path d="M124.06 499.43l45.31 0l0 12.29l-45.31 0Z" id="p79w177" />
<path d="M189.15 497.65l11.22 0l0 14.52l-11.22 0Z" id="p79w178" />
<path d="M203.58 497.65l32.35 0l0 14.52l-32.35 0Z" id="p79w179" />
<path d="M239.14 497.65l9.62 0l0 14.52l-9.62 0Z" id="p79w180" />
<path d="M251.97 497.65l13.9 0l0 14.52l-13.9 0Z" id="p79w181" />
<path d="M269.08 497.65l17.63 0l0 14.52l-17.63 0Z" id="p79w182" />
<path d="M308.88 497.65l33.94 0l0 14.52l-33.94 0Z" id="p79w183" />
<path d="M346.02 497.65l19.51 0l0 14.52l-19.51 0Z" id="p79w184" />
<path d="M368.74 497.65l13.9 0l0 14.52l-13.9 0Z" id="p79w185" />
<path d="M385.84 497.65l28.62 0l0 14.52l-28.62 0Z" id="p79w186" />
<path d="M417.67 497.65l25.67 0l0 14.52l-25.67 0Z" id="p79w187" />
<path d="M446.55 497.65l47.61 0l0 14.52l-47.61 0Z" id="p79w188" />
<path d="M497.36 497.65l15.6 0l0 14.52l-15.6 0Z" id="p79w189" />
<path d="M516.17 497.65l20.85 0l0 14.52l-20.85 0Z" id="p79w190" />
<path d="M540.23 497.65l23.79 0l0 14.52l-23.79 0Z" id="p79w191" />
<path d="M143.75 514.32l26.74 0l0 14.52l-26.74 0Z" id="p79w192" />
<path d="M192.66 514.33l50.54 0l0 14.52l-50.54 0Z" id="p79w193" />
<path d="M246.41 514.33l32.87 0l0 14.52l-32.87 0Z" id="p79w194" />
<path d="M282.49 514.33l39.76 0l0 14.52l-39.76 0Z" id="p79w195" />
<path d="M325.45 514.33l54.25 0l0 14.52l-54.25 0Z" id="p79w196" />
<path d="M382.91 514.33l24.06 0l0 14.52l-24.06 0Z" id="p79w197" />
<path d="M410.18 514.33l15.5 0l0 14.52l-15.5 0Z" id="p79w198" />
<path d="M428.88 514.33l29.69 0l0 14.52l-29.69 0Z" id="p79w199" />
<path d="M461.77 514.33l11.5 0l0 14.52l-11.5 0Z" id="p79w200" />
<path d="M495.43 514.33l33.94 0l0 14.52l-33.94 0Z" id="p79w201" />
<path d="M532.57 514.33l20.58 0l0 14.52l-20.58 0Z" id="p79w202" />
<path d="M556.36 514.33l19.51 0l0 14.52l-19.51 0Z" id="p79w203" />
<path d="M579.08 514.33l45.12 0l0 14.52l-45.12 0Z" id="p79w204" />
<path d="M143.75 531l11.5 0l0 14.52l-11.5 0Z" id="p79w205" />
<path d="M158.45 531l53.19 0l0 14.52l-53.19 0Z" id="p79w206" />
<path d="M214.85 531l33.05 0l0 14.52l-33.05 0Z" id="p79w207" />
<path d="M251.11 531l20.85 0l0 14.52l-20.85 0Z" id="p79w208" />
<path d="M275.18 531l11.5 0l0 14.52l-11.5 0Z" id="p79w209" />
<path d="M289.88 531l41.17 0l0 14.52l-41.17 0Z" id="p79w210" />
<path d="M334.25 531l16.83 0l0 14.52l-16.83 0Z" id="p79w211" />
<path d="M354.29 531l28.34 0l0 14.52l-28.34 0Z" id="p79w212" />
<path d="M124.06 549.45l35.94 0l0 12.29l-35.94 0Z" id="p79w213" />
<path d="M168.83 547.67l12.57 0l0 14.52l-12.57 0Z" id="p79w214" />
<path d="M184.6 547.67l24.33 0l0 14.52l-24.33 0Z" id="p79w215" />
<path d="M212.13 547.67l44.64 0l0 14.52l-44.64 0Z" id="p79w216" />
<path d="M259.98 547.67l26.45 0l0 14.52l-26.45 0Z" id="p79w217" />
<path d="M289.64 547.67l12.02 0l0 14.52l-12.02 0Z" id="p79w218" />
<path d="M304.87 547.67l58.27 0l0 14.52l-58.27 0Z" id="p79w219" />
<path d="M366.36 547.67l32.87 0l0 14.52l-32.87 0Z" id="p79w220" />
<path d="M402.43 547.67l61.47 0l0 14.52l-61.47 0Z" id="p79w221" />
<path d="M467.11 547.67l41.43 0l0 14.52l-41.43 0Z" id="p79w222" />
<path d="M511.75 547.67l15.25 0l0 14.52l-15.25 0Z" id="p79w223" />
<path d="M530.2 547.67l9.62 0l0 14.52l-9.62 0Z" id="p79w224" />
<path d="M543.03 547.67l15.5 0l0 14.52l-15.5 0Z" id="p79w225" />
<path d="M561.73 547.67l76.45 0l0 14.52l-76.45 0Z" id="p79w226" />
<path d="M641.39 547.67l36.36 0l0 14.52l-36.36 0Z" id="p79w227" />
<path d="M124.06 566.12l45.31 0l0 12.29l-45.31 0Z" id="p79w228" />
<path d="M177.84 564.35l12.41 0l0 14.52l-12.41 0Z" id="p79w229" />
<path d="M193.46 564.35l36.61 0l0 14.52l-36.61 0Z" id="p79w230" />
<path d="M233.28 564.35l43.04 0l0 14.52l-43.04 0Z" id="p79w231" />
<path d="M279.53 564.35l11.5 0l0 14.52l-11.5 0Z" id="p79w232" />
<path d="M294.23 564.35l44.89 0l0 14.52l-44.89 0Z" id="p79w233" />
<path d="M342.33 564.35l41.43 0l0 14.52l-41.43 0Z" id="p79w234" />
<path d="M386.97 564.35l29.42 0l0 14.52l-29.42 0Z" id="p79w235" />
<path d="M419.6 564.35l40.65 0l0 14.52l-40.65 0Z" id="p79w236" />
<path d="M463.46 564.35l25.67 0l0 14.52l-25.67 0Z" id="p79w237" />
<path d="M492.34 564.35l9.89 0l0 14.52l-9.89 0Z" id="p79w238" />
<path d="M505.44 564.35l14.7 0l0 14.52l-14.7 0Z" id="p79w239" />
<path d="M523.35 564.35l13.9 0l0 14.52l-13.9 0Z" id="p79w240" />
<path d="M540.45 564.35l49.71 0l0 14.52l-49.71 0Z" id="p79w241" />
<path d="M593.37 564.35l23.24 0l0 14.52l-23.24 0Z" id="p79w242" />
<path d="M619.82 564.35l26.45 0l0 14.52l-26.45 0Z" id="p79w243" />
<path d="M649.48 564.35l11.22 0l0 14.52l-11.22 0Z" id="p79w244" />
<path d="M663.91 564.35l23.8 0l0 14.52l-23.8 0Z" id="p79w245" />
<path d="M143.75 581.02l26.74 0l0 14.52l-26.74 0Z" id="p79w246" />
<path d="M192.66 581.02l46.53 0l0 14.52l-46.53 0Z" id="p79w247" />
<path d="M242.4 581.02l24.31 0l0 14.52l-24.31 0Z" id="p79w248" />
<path d="M269.92 581.02l13.63 0l0 14.52l-13.63 0Z" id="p79w249" />
<path d="M286.76 581.02l40.18 0l0 14.52l-40.18 0Z" id="p79w250" />
<path d="M330.15 581.02l14.18 0l0 14.52l-14.18 0Z" id="p79w251" />
<path d="M347.53 581.02l21.65 0l0 14.52l-21.65 0Z" id="p79w252" />
<path d="M372.39 581.02l13.9 0l0 14.52l-13.9 0Z" id="p79w253" />
<path d="M389.49 581.02l53.46 0l0 14.52l-53.46 0Z" id="p79w254" />
<path d="M446.16 581.02l30.21 0l0 14.52l-30.21 0Z" id="p79w255" />
<path d="M479.58 581.02l11.22 0l0 14.52l-11.22 0Z" id="p79w256" />
<path d="M494 581.02l17.38 0l0 14.52l-17.38 0Z" id="p79w257" />
<path d="M514.6 581.02l25.67 0l0 14.52l-25.67 0Z" id="p79w258" />
<path d="M562.43 581.02l40.61 0l0 14.52l-40.61 0Z" id="p79w259" />
<path d="M606.25 581.02l27.8 0l0 14.52l-27.8 0Z" id="p79w260" />
<path d="M637.26 581.02l25.4 0l0 14.52l-25.4 0Z" id="p79w261" />
<path d="M665.86 581.02l26.74 0l0 14.52l-26.74 0Z" id="p79w262" />
<path d="M124.06 599.47l35.94 0l0 12.29l-35.94 0Z" id="p79w263" />
<path d="M168.83 597.69l15.77 0l0 14.52l-15.77 0Z" id="p79w264" />
<path d="M187.81 597.69l19.8 0l0 14.52l-19.8 0Z" id="p79w265" />
<path d="M210.81 597.69l12.57 0l0 14.52l-12.57 0Z" id="p79w266" />
<path d="M226.59 597.69l30.99 0l0 14.52l-30.99 0Z" id="p79w267" />
<path d="M260.79 597.69l34.15 0l0 14.52l-34.15 0Z" id="p79w268" />
<path d="M305.1 597.69l42.77 0l0 14.52l-42.77 0Z" id="p79w269" />
<path d="M351.07 597.69l15.25 0l0 14.52l-15.25 0Z" id="p79w270" />
<path d="M369.52 597.69l14.18 0l0 14.52l-14.18 0Z" id="p79w271" />
<path d="M386.91 597.69l66.3 0l0 14.52l-66.3 0Z" id="p79w272" />
<path d="M456.41 597.69l19.51 0l0 14.52l-19.51 0Z" id="p79w273" />
<path d="M479.13 597.69l53.48 0l0 14.52l-53.48 0Z" id="p79w274" />
<path d="M535.82 597.69l27.26 0l0 14.52l-27.26 0Z" id="p79w275" />
<path d="M566.29 597.69l11.22 0l0 14.52l-11.22 0Z" id="p79w276" />
<path d="M580.71 597.69l14.18 0l0 14.52l-14.18 0Z" id="p79w277" />
<path d="M598.1 597.69l72.97 0l0 14.52l-72.97 0Z" id="p79w278" />
<path d="M143.75 614.36l19.51 0l0 14.52l-19.51 0Z" id="p79w279" />
<path d="M166.47 614.36l52.67 0l0 14.52l-52.67 0Z" id="p79w280" />
<path d="M222.34 614.36l60.41 0l0 14.52l-60.41 0Z" id="p79w281" />
<path d="M124.06 658.19l20.04 0l0 18.84l-20.04 0Z" id="p79w282" />
<path d="M147.75 658.19l15.14 0l0 18.84l-15.14 0Z" id="p79w283" />
<path d="M166.55 658.19l45.28 0l0 18.84l-45.28 0Z" id="p79w284" />
<path d="M215.48 658.19l25.79 0l0 18.84l-25.79 0Z" id="p79w285" />
<path d="M124.06 689.39l59.34 0l0 14.52l-59.34 0Z" id="p79w286" />
<path d="M186.61 689.39l15.5 0l0 14.52l-15.5 0Z" id="p79w287" />
<path d="M205.32 689.39l43.29 0l0 14.52l-43.29 0Z" id="p79w288" />
<path d="M251.82 689.39l18.44 0l0 14.52l-18.44 0Z" id="p79w289" />
<path d="M273.46 689.39l9.89 0l0 14.52l-9.89 0Z" id="p79w290" />
<path d="M286.56 689.39l35.29 0l0 14.52l-35.29 0Z" id="p79w291" />
<path d="M325.06 689.39l33.41 0l0 14.52l-33.41 0Z" id="p79w292" />
<path d="M361.68 689.39l19.51 0l0 14.52l-19.51 0Z" id="p79w293" />
<path d="M384.39 689.39l36.88 0l0 14.52l-36.88 0Z" id="p79w294" />
<path d="M424.48 689.33l45.78 0l0 14.6l-45.78 0Z" id="p79w295" />
<path d="M473.46 689.39l11.22 0l0 14.52l-11.22 0Z" id="p79w296" />
<path d="M487.89 689.33l12.42 0l0 14.6l-12.42 0Z" id="p79w297" />
<path d="M503.52 689.33l46.2 0l0 14.6l-46.2 0Z" id="p79w298" />
<path d="M611 147.55l65.22 0l0 12.56l-65.22 0Z" id="p79w299" />
<path d="M528.92 174.53l18.7 0l0 14.52l-18.7 0Z" id="p79w300" />
<path d="M550.83 174.53l24.85 0l0 14.52l-24.85 0Z" id="p79w301" />
<path d="M578.9 174.5l67.63 0l0 14.52l-67.63 0Z" id="p79w302" />
<path d="M528.92 191.2l27.27 0l0 14.52l-27.27 0Z" id="p79w303" />
<path d="M559.4 191.2l24.85 0l0 14.52l-24.85 0Z" id="p79w304" />
<path d="M587.2 191.2l53.21 0l0 14.52l-53.21 0Z" id="p79w305" />
<path d="M528.92 207.87l81.74 0l0 14.52l-81.74 0Z" id="p79w306" />
<path d="M613.87 207.87l63.82 0l0 14.52l-63.82 0Z" id="p79w307" />
<path d="M528.92 224.54l75.59 0l0 14.52l-75.59 0Z" id="p79w308" />
<path d="M607.72 224.54l21.4 0l0 14.52l-21.4 0Z" id="p79w309" />
<path d="M632.33 224.54l44.65 0l0 14.52l-44.65 0Z" id="p79w310" />
<path d="M528.92 241.21l34.21 0l0 14.52l-34.21 0Z" id="p79w311" />
<path d="M566.34 241.21l66.58 0l0 14.52l-66.58 0Z" id="p79w312" />
<path d="M60.68 291.02l27.93 0l0 12.29l-27.93 0Z" id="p79w313" />
<path d="M128.98 335.28l30.73 0l0 14.52l-30.73 0Z" id="p79w314" />
<path d="M181.37 335.28l36.88 0l0 14.52l-36.88 0Z" id="p79w315" />
<path d="M221.46 335.28l29.39 0l0 14.52l-29.39 0Z" id="p79w316" />
<path d="M272.52 335.28l37.42 0l0 14.52l-37.42 0Z" id="p79w317" />
<path d="M331.6 335.28l17.63 0l0 14.52l-17.63 0Z" id="p79w318" />
<path d="M370.89 335.28l24.31 0l0 14.52l-24.31 0Z" id="p79w319" />
<path d="M416.87 335.28l25.38 0l0 14.52l-25.38 0Z" id="p79w320" />
<path d="M463.91 335.28l31.53 0l0 14.52l-31.53 0Z" id="p79w321" />
<path d="M517.1 335.28l49 0l0 14.52l-49 0Z" id="p79w322" />
<path d="M587.76 335.28l28.33 0l0 14.52l-28.33 0Z" id="p79w323" />
<path d="M130.66 914.47l10.43 0l0 14.52l-10.43 0Z" id="p79w324" />
<path d="M163.26 914.47l34.77 0l0 14.52l-34.77 0Z" id="p79w325" />
<path d="M281.8 906.14l23.24 0l0 14.52l-23.24 0Z" id="p79w326" />
<path d="M308.25 906.14l42.22 0l0 14.52l-42.22 0Z" id="p79w327" />
<path d="M281.81 922.81l22.99 0l0 14.52l-22.99 0Z" id="p79w328" />
<path d="M308.01 922.81l9.89 0l0 14.52l-9.89 0Z" id="p79w329" />
<path d="M321.1 922.81l37.68 0l0 14.52l-37.68 0Z" id="p79w330" />
<path d="M432.94 914.47l31.28 0l0 14.52l-31.28 0Z" id="p79w331" />
<path d="M467.43 914.47l13.9 0l0 14.52l-13.9 0Z" id="p79w332" />
<path d="M503.49 914.47l24.33 0l0 14.52l-24.33 0Z" id="p79w333" />
<path d="M584.08 906.14l55.36 0l0 14.52l-55.36 0Z" id="p79w334" />
<path d="M642.64 906.14l13.9 0l0 14.52l-13.9 0Z" id="p79w335" />
<path d="M659.75 906.14l26.66 0l0 14.52l-26.66 0Z" id="p79w336" />
<path d="M68.27 39.02l46.09 0l0 15.38l-46.09 0Z" id="p79w337" />
<path d="M152.94 38.6l45.75 0l0 16.09l-45.75 0Z" id="p79w338" />
<path d="M251.41 39.02l46.59 0l0 15.38l-46.59 0Z" id="p79w339" />
<path d="M350.65 39.02l32.54 0l0 15.38l-32.54 0Z" id="p79w340" />
<path d="M611.56 983l79.54 0l0 12.23l-79.54 0Z" id="p79w341" />
</svg>
