<?xml version="1.0" encoding="UTF-8"?>
<svg xmlns="http://www.w3.org/2000/svg" xmlns:xlink="http://www.w3.org/1999/xlink" version="1.1" baseProfile="full" width="768" height="1024" viewBox="0,0,768,1024" preserveAspectRatio="xMinYMin meet" >
<style type="text/css">
<![CDATA[
path {fill-opacity: 0.5;fill: #00aeef;visibility: hidden;}
]]>
</style>
<path d="M232.72 96.22l6.33 0l0 9.22l-6.33 0Z" id="p279w1" />
<path d="M241.08 96.22l27.55 0l0 9.22l-27.55 0Z" id="p279w2" />
<path d="M285.39 96.63l6.33 0l0 9.22l-6.33 0Z" id="p279w3" />
<path d="M293.75 96.63l22.57 0l0 9.22l-22.57 0Z" id="p279w4" />
<path d="M260.52 134.04l6.33 0l0 9.22l-6.33 0Z" id="p279w5" />
<path d="M268.88 134.04l24.92 0l0 9.22l-24.92 0Z" id="p279w6" />
<path d="M260.52 144.05l36.58 0l0 9.22l-36.58 0Z" id="p279w7" />
<path d="M296.81 234.73l43 0l0 9.22l-43 0Z" id="p279w8" />
<path d="M296.81 244.74l8.76 0l0 9.22l-8.76 0Z" id="p279w9" />
<path d="M307.6 244.74l6.34 0l0 9.22l-6.34 0Z" id="p279w10" />
<path d="M315.96 244.74l21.19 0l0 9.22l-21.19 0Z" id="p279w11" />
<path d="M49.16 284.96l6.33 0l0 9.22l-6.33 0Z" id="p279w12" />
<path d="M57.51 284.96l28.14 0l0 9.22l-28.14 0Z" id="p279w13" />
<path d="M87.67 284.96l11.67 0l0 9.22l-11.67 0Z" id="p279w14" />
<path d="M532.6 459.99l6.33 0l0 9.22l-6.33 0Z" id="p279w15" />
<path d="M540.96 459.99l19.58 0l0 9.22l-19.58 0Z" id="p279w16" />
<path d="M562.23 459.99l38.04 0l0 9.22l-38.04 0Z" id="p279w17" />
<path d="M286.72 164.71l8.13 0l0 7.69l-8.13 0Z" id="p279w18" />
<path d="M294.56 163.03l37.7 0l0 1.33l-37.7 0Z" id="p279w19" />
<path d="M144.4 202.1l9.78 0l0 9.41l-9.78 0Z" id="p279w20" />
<path d="M156.39 202.33l22.96 0l0 9.65l-22.96 0Z" id="p279w21" />
<path d="M330.1 463.07l9.78 0l0 9.41l-9.78 0Z" id="p279w22" />
<path d="M342.08 463.3l22.96 0l0 9.65l-22.96 0Z" id="p279w23" />
<path d="M359 154.05l6.41 0l0 9.27l-6.41 0Z" id="p279w24" />
<path d="M367.44 154.05l34.05 0l0 9.27l-34.05 0Z" id="p279w25" />
<path d="M85.3 394.69l8.91 0l0 9.27l-8.91 0Z" id="p279w26" />
<path d="M97.49 394.69l17.02 0l0 9.27l-17.02 0Z" id="p279w27" />
<path d="M117.79 394.69l60.01 0l0 9.27l-60.01 0Z" id="p279w28" />
<path d="M70.29 55.87l89.95 0l0 18.44l-89.95 0Z" id="p279w29" />
<path d="M631.91 952.52l12.62 0l0 10.25l-12.62 0Z" id="p279w30" />
<path d="M649.53 952.52l22.96 0l0 10.25l-22.96 0Z" id="p279w31" />
<path d="M646.93 968.31l81.54 0l0 10.25l-81.54 0Z" id="p279w32" />
<path d="M141.92 926.4l8.01 0l0 10.25l-8.01 0Z" id="p279w33" />
<path d="M152.62 926.4l41.95 0l0 10.25l-41.95 0Z" id="p279w34" />
<path d="M268.08 959.31l7.47 0l0 10.25l-7.47 0Z" id="p279w35" />
<path d="M278.25 959.31l33.57 0l0 10.25l-33.57 0Z" id="p279w36" />
<path d="M314.53 959.31l13.59 0l0 10.25l-13.59 0Z" id="p279w37" />
<path d="M301.22 823.26l7.47 0l0 10.25l-7.47 0Z" id="p279w38" />
<path d="M311.38 823.26l33.28 0l0 10.25l-33.28 0Z" id="p279w39" />
<path d="M519 949.96l8.01 0l0 10.25l-8.01 0Z" id="p279w40" />
<path d="M529.71 949.96l18.59 0l0 10.25l-18.59 0Z" id="p279w41" />
<path d="M551 949.96l24.89 0l0 10.25l-24.89 0Z" id="p279w42" />
<path d="M405.66 815.8l8.01 0l0 10.25l-8.01 0Z" id="p279w43" />
<path d="M416.37 815.8l36.93 0l0 10.25l-36.93 0Z" id="p279w44" />
<path d="M415.53 640.04l87.77 0l0 10.25l-87.77 0Z" id="p279w45" />
<path d="M433.52 735.06l61.83 0l0 10.25l-61.83 0ZM572.21 765.35l110.38 0l0 10.25l-110.38 0Z" id="p279w46" />
<path d="M462.27 884.28l12.65 0l0 10.25l-12.65 0Z" id="p279w47" />
<path d="M230.33 864.31l123.12 0l0 10.25l-123.12 0Z" id="p279w48" />
<path d="M281.89 796.73l12.65 0l0 10.25l-12.65 0Z" id="p279w49" />
<path d="M305.86 796.73l35.51 0l0 10.25l-35.51 0Z" id="p279w50" />
<path d="M206.51 729.13l11 0l0 -5.75l-11 0Z" id="p279w51" />
<path d="M207.71 719.04l13.17 0l0 -24.08l-13.17 0Z" id="p279w52" />
<path d="M277.05 813.91l-1.06 0l0 12.68l1.06 0Z" id="p279w53" />
<path d="M285.11 820.96l18.88 0l0 30.12l-18.88 0Z" id="p279w54" />
<path d="M406.2 706.21l12.67 0l0 1.19l-12.67 0Z" id="p279w55" />
<path d="M413.33 698.22l30.31 0l0 -18.57l-30.31 0Z" id="p279w56" />
<path d="M522.28 782.01l11.5 0l0 -4.69l-11.5 0Z" id="p279w57" />
<path d="M524.36 772.37l16.02 0l0 -25.64l-16.02 0Z" id="p279w58" />
<path d="M315.59 754.65l7.47 0l0 10.25l-7.47 0Z" id="p279w59" />
<path d="M325.75 754.65l21.56 0l0 10.25l-21.56 0Z" id="p279w60" />
<path d="M349.71 754.65l32.75 0l0 10.25l-32.75 0Z" id="p279w61" />
<path d="M372.32 770.51l66.71 0l0 10.25l-66.71 0Z" id="p279w62" />
<path d="M441.67 770.51l36.43 0l0 10.25l-36.43 0Z" id="p279w63" />
<path d="M136.3 661.28l51.63 0l0 13.11l-51.63 0Z" id="p279w64" />
<path d="M637.26 654.04l11.43 0l0 13.11l-11.43 0Z" id="p279w65" />
<path d="M650.75 654.04l29.5 0l0 13.11l-29.5 0Z" id="p279w66" />
<path d="M433.4 976.21l28.16 0l0 10.19l-28.16 0Z" id="p279w67" />
<path d="M354.24 889.81l69.25 0l0 10.19l-69.25 0Z" id="p279w68" />
<path d="M248.47 803.57l34.62 0l0 10.19l-34.62 0Z" id="p279w69" />
<path d="M248.75 757.56l30.55 0l0 10.19l-30.55 0Z" id="p279w70" />
<path d="M605.05 875.05l30.56 0l0 10.19l-30.56 0Z" id="p279w71" />
<path d="M638.51 842.24l18.21 0l0 10.19l-18.21 0Z" id="p279w72" />
<path d="M677.9 835.21l39.52 0l0 13.11l-39.52 0Z" id="p279w73" />
<path d="M719.64 835.21l15.98 0l0 13.11l-15.98 0Z" id="p279w74" />
<path d="M469.85 974.08l28.98 0l0 10.19l-28.98 0Z" id="p279w75" />
<path d="M371.37 957.65l26.16 0l0 10.19l-26.16 0Z" id="p279w76" />
<path d="M192.58 911.95l95.89 0l0 10.19l-95.89 0Z" id="p279w77" />
<path d="M285.62 776.45l46.8 0l0 10.19l-46.8 0Z" id="p279w78" />
<path d="M550.14 937.63l53.51 0l0 10.19l-53.51 0Z" id="p279w79" />
<path d="M568.74 903.85l59.96 0l0 10.19l-59.96 0Z" id="p279w80" />
<path d="M517.73 879.34l49.68 0l0 10.19l-49.68 0Z" id="p279w81" />
<path d="M454.53 912.69l40.62 0l0 10.19l-40.62 0Z" id="p279w82" />
<path d="M520.62 809.97l44.63 0l0 10.19l-44.63 0Z" id="p279w83" />
<path d="M475.92 757.4l24.59 0l0 10.19l-24.59 0Z" id="p279w84" />
<path d="M399.95 796.09l48.21 0l0 10.19l-48.21 0Z" id="p279w85" />
<path d="M343.33 812.77l14.75 0l0 10.19l-14.75 0Z" id="p279w86" />
<path d="M445.07 654.99l16.44 0l0 10.19l-16.44 0Z" id="p279w87" />
<path d="M535.59 689.78l60.66 0l0 10.19l-60.66 0Z" id="p279w88" />
<path d="M528.51 578.28l37.82 0l0 10.19l-37.82 0Z" id="p279w89" />
<path d="M677.36 818.47l33.08 0l0 10.19l-33.08 0Z" id="p279w90" />
<path d="M601.39 730.92l20.42 0l0 10.19l-20.42 0Z" id="p279w91" />
<path d="M588.36 850.16l28.72 0l0 10.19l-28.72 0Z" id="p279w92" />
<path d="M549.83 929.03l64.61 0l0 10.19l-64.61 0Z" id="p279w93" />
<path d="M349.72 941.44l45.52 0l0 11.65l-45.52 0Z" id="p279w94" />
<path d="M69.67 542.72l61.99 0l0 18.44l-61.99 0Z" id="p279w95" />
<path d="M135.71 542.72l84.71 0l0 18.44l-84.71 0Z" id="p279w96" />
<path d="M69.67 562.18l50.45 0l0 18.44l-50.45 0Z" id="p279w97" />
<path d="M134.18 562.18l20.32 0l0 18.44l-20.32 0Z" id="p279w98" />
<path d="M157.79 562.18l28.88 0l0 18.44l-28.88 0Z" id="p279w99" />
<path d="M190.71 562.18l56.82 0l0 18.44l-56.82 0Z" id="p279w100" />
</svg>
