<?xml version="1.0" encoding="UTF-8"?>
<svg xmlns="http://www.w3.org/2000/svg" xmlns:xlink="http://www.w3.org/1999/xlink" version="1.1" baseProfile="full" width="768" height="1024" viewBox="0,0,768,1024" preserveAspectRatio="xMinYMin meet" >
<style type="text/css">
<![CDATA[
path {fill-opacity: 0.5;fill: #00aeef;visibility: hidden;}
]]>
</style>
<path d="M124.06 38.6l71 0l0 16.09l-71 0Z" id="p208w1" />
<path d="M78.77 983.66l61.54 0l0 12.23l-61.54 0Z" id="p208w2" />
<path d="M124.06 110.01l27.6 0l0 14.6l-27.6 0Z" id="p208w3" />
<path d="M154.87 110.01l25.86 0l0 14.6l-25.86 0Z" id="p208w4" />
<path d="M183.93 110.01l43.32 0l0 14.6l-43.32 0Z" id="p208w5" />
<path d="M230.46 110.01l13.87 0l0 14.6l-13.87 0Z" id="p208w6" />
<path d="M247.54 110.01l25.65 0l0 14.6l-25.65 0Z" id="p208w7" />
<path d="M124.06 126.68l12.67 0l0 14.6l-12.67 0Z" id="p208w8" />
<path d="M140.03 125.44l91.77 0l0 16.35l-91.77 0Z" id="p208w9" />
<path d="M297.36 110.09l21.12 0l0 14.52l-21.12 0Z" id="p208w10" />
<path d="M321.68 110.09l41.63 0l0 14.52l-41.63 0Z" id="p208w11" />
<path d="M366.52 110.09l37.7 0l0 14.52l-37.7 0Z" id="p208w12" />
<path d="M407.42 110.09l23.09 0l0 14.52l-23.09 0Z" id="p208w13" />
<path d="M433.72 110.09l12.84 0l0 14.52l-12.84 0Z" id="p208w14" />
<path d="M297.36 126.76l18.72 0l0 14.52l-18.72 0Z" id="p208w15" />
<path d="M482.46 110.09l15.6 0l0 14.52l-15.6 0Z" id="p208w16" />
<path d="M501.27 110.09l25.67 0l0 14.52l-25.67 0Z" id="p208w17" />
<path d="M530.15 110.09l42.77 0l0 14.52l-42.77 0Z" id="p208w18" />
<path d="M576.12 110.09l13.9 0l0 14.52l-13.9 0Z" id="p208w19" />
<path d="M593.23 110.09l48.1 0l0 14.52l-48.1 0Z" id="p208w20" />
<path d="M482.46 126.76l20.85 0l0 14.52l-20.85 0Z" id="p208w21" />
<path d="M506.52 126.76l64.7 0l0 14.52l-64.7 0Z" id="p208w22" />
<path d="M124.06 144.83l20.99 0l0 14.6l-20.99 0Z" id="p208w23" />
<path d="M148.26 144.83l30.73 0l0 14.6l-30.73 0Z" id="p208w24" />
<path d="M182.28 143.59l43.62 0l0 16.35l-43.62 0Z" id="p208w25" />
<path d="M297.36 144.91l23.79 0l0 14.52l-23.79 0Z" id="p208w26" />
<path d="M324.35 144.91l19.73 0l0 14.52l-19.73 0Z" id="p208w27" />
<path d="M347.29 144.91l23.79 0l0 14.52l-23.79 0Z" id="p208w28" />
<path d="M374.02 144.91l32.87 0l0 14.52l-32.87 0Z" id="p208w29" />
<path d="M482.46 144.91l47.85 0l0 14.52l-47.85 0Z" id="p208w30" />
<path d="M533.52 144.91l24.85 0l0 14.52l-24.85 0Z" id="p208w31" />
<path d="M561.58 144.91l20.85 0l0 14.52l-20.85 0Z" id="p208w32" />
<path d="M585.64 144.91l29.39 0l0 14.52l-29.39 0Z" id="p208w33" />
<path d="M618.24 144.91l31.02 0l0 14.52l-31.02 0Z" id="p208w34" />
<path d="M482.46 161.58l13.9 0l0 14.52l-13.9 0Z" id="p208w35" />
<path d="M499.57 161.58l58.8 0l0 14.52l-58.8 0Z" id="p208w36" />
<path d="M561.58 161.58l19.51 0l0 14.52l-19.51 0Z" id="p208w37" />
<path d="M584.3 161.58l29.34 0l0 14.52l-29.34 0Z" id="p208w38" />
<path d="M124.06 179.65l50.51 0l0 14.6l-50.51 0Z" id="p208w39" />
<path d="M177.88 178.41l42.66 0l0 16.35l-42.66 0Z" id="p208w40" />
<path d="M297.36 179.73l48.59 0l0 14.52l-48.59 0Z" id="p208w41" />
<path d="M482.46 179.65l50.06 0l0 14.6l-50.06 0Z" id="p208w42" />
<path d="M535.73 179.73l40.01 0l0 14.61l-40.01 0Z" id="p208w43" />
<path d="M588.57 179.73l54.46 0l0 14.61l-54.46 0Z" id="p208w44" />
<path d="M124.06 200.36l21.65 0l0 14.6l-21.65 0Z" id="p208w45" />
<path d="M149.01 199.12l30.52 0l0 16.35l-30.52 0Z" id="p208w46" />
<path d="M129.97 226.01l21.65 0l0 14.6l-21.65 0Z" id="p208w47" />
<path d="M154.82 226.07l24.59 0l0 14.52l-24.59 0Z" id="p208w48" />
<path d="M182.62 226.07l56.35 0l0 14.52l-56.35 0Z" id="p208w49" />
<path d="M242.18 226.07l19.77 0l0 14.52l-19.77 0Z" id="p208w50" />
<path d="M265.16 226.01l7.87 0l0 14.6l-7.87 0Z" id="p208w51" />
<path d="M273.02 226.01l15.19 0l0 14.6l-15.19 0Z" id="p208w52" />
<path d="M294.1 226.01l44.88 0l0 14.6l-44.88 0Z" id="p208w53" />
<path d="M342.19 226.07l21.4 0l0 14.52l-21.4 0Z" id="p208w54" />
<path d="M366.79 226.01l19.13 0l0 14.6l-19.13 0Z" id="p208w55" />
<path d="M385.92 226.01l27.35 0l0 14.6l-27.35 0Z" id="p208w56" />
<path d="M129.97 242.74l30.24 0l0 14.52l-30.24 0Z" id="p208w57" />
<path d="M163.42 242.74l11.5 0l0 14.52l-11.5 0Z" id="p208w58" />
<path d="M178.12 242.74l25.33 0l0 14.52l-25.33 0Z" id="p208w59" />
<path d="M206.66 242.74l50.26 0l0 14.52l-50.26 0Z" id="p208w60" />
<path d="M260.13 242.74l24.26 0l0 14.52l-24.26 0Z" id="p208w61" />
<path d="M287.6 242.74l26.74 0l0 14.52l-26.74 0Z" id="p208w62" />
<path d="M317.54 242.74l17.04 0l0 14.52l-17.04 0Z" id="p208w63" />
<path d="M334.58 242.68l11.48 0l0 14.6l-11.48 0Z" id="p208w64" />
<path d="M346.07 242.74l22.47 0l0 14.52l-22.47 0Z" id="p208w65" />
<path d="M371.74 242.74l25.67 0l0 14.52l-25.67 0Z" id="p208w66" />
<path d="M400.62 242.74l17.04 0l0 14.52l-17.04 0Z" id="p208w67" />
<path d="M417.66 242.68l11.48 0l0 14.6l-11.48 0Z" id="p208w68" />
<path d="M429.14 242.74l15.25 0l0 14.52l-15.25 0Z" id="p208w69" />
<path d="M129.97 259.41l42.36 0l0 14.52l-42.36 0Z" id="p208w70" />
<path d="M175.53 259.41l17.04 0l0 14.52l-17.04 0Z" id="p208w71" />
<path d="M192.57 259.35l11.48 0l0 14.6l-11.48 0Z" id="p208w72" />
<path d="M204.06 259.41l21.34 0l0 14.52l-21.34 0Z" id="p208w73" />
<path d="M228.61 259.35l30.74 0l0 14.68l-30.74 0Z" id="p208w74" />
<path d="M262.56 259.35l47.06 0l0 14.68l-47.06 0Z" id="p208w75" />
<path d="M319.46 259.41l14.8 0l0 14.52l-14.8 0Z" id="p208w76" />
<path d="M337.46 259.41l17.04 0l0 14.52l-17.04 0Z" id="p208w77" />
<path d="M297.35 200.44l45.45 0l0 14.52l-45.45 0Z" id="p208w78" />
<path d="M482.46 200.44l6.96 0l0 14.52l-6.96 0Z" id="p208w79" />
<path d="M492.62 200.44l22.45 0l0 14.52l-22.45 0Z" id="p208w80" />
<path d="M518.28 200.44l21.58 0l0 14.52l-21.58 0Z" id="p208w81" />
<path d="M543.07 200.44l35.82 0l0 14.52l-35.82 0Z" id="p208w82" />
<path d="M582.1 200.44l9.89 0l0 14.52l-9.89 0Z" id="p208w83" />
<path d="M595.19 200.44l70.23 0l0 14.52l-70.23 0Z" id="p208w84" />
<path d="M482.46 217.11l61.22 0l0 14.52l-61.22 0Z" id="p208w85" />
<path d="M500.69 233.8l61.64 0l0 14.61l-61.64 0Z" id="p208w86" />
<path d="M500.19 250.48l31.7 0l0 14.61l-31.7 0Z" id="p208w87" />
<path d="M124.06 289.37l48.34 0l0 14.6l-48.34 0Z" id="p208w88" />
<path d="M175.6 289.37l32.19 0l0 14.6l-32.19 0Z" id="p208w89" />
<path d="M211.1 288.13l50.09 0l0 16.35l-50.09 0Z" id="p208w90" />
<path d="M129.97 315.02l48.34 0l0 14.6l-48.34 0Z" id="p208w91" />
<path d="M188.19 315.09l9.62 0l0 14.52l-9.62 0Z" id="p208w92" />
<path d="M201.02 315.09l22.99 0l0 14.52l-22.99 0Z" id="p208w93" />
<path d="M230.69 315.09l28.01 0l0 14.52l-28.01 0Z" id="p208w94" />
<path d="M261.91 315.09l22.99 0l0 14.52l-22.99 0Z" id="p208w95" />
<path d="M291.58 315.09l22.12 0l0 14.52l-22.12 0Z" id="p208w96" />
<path d="M316.91 315.09l50.26 0l0 14.52l-50.26 0Z" id="p208w97" />
<path d="M370.38 315.09l22.99 0l0 14.52l-22.99 0Z" id="p208w98" />
<path d="M400.05 315.09l16.51 0l0 14.52l-16.51 0Z" id="p208w99" />
<path d="M129.97 331.76l26.74 0l0 14.52l-26.74 0Z" id="p208w100" />
<path d="M159.92 331.76l29.67 0l0 14.52l-29.67 0Z" id="p208w101" />
<path d="M189.59 331.69l20.6 0l0 14.6l-20.6 0Z" id="p208w102" />
<path d="M210.19 331.76l15.51 0l0 14.52l-15.51 0Z" id="p208w103" />
<path d="M228.91 331.76l25.67 0l0 14.52l-25.67 0Z" id="p208w104" />
<path d="M257.79 331.76l52.07 0l0 14.52l-52.07 0Z" id="p208w105" />
<path d="M313.07 331.76l42.36 0l0 14.52l-42.36 0Z" id="p208w106" />
<path d="M358.63 331.76l22.99 0l0 14.52l-22.99 0Z" id="p208w107" />
<path d="M388.31 331.76l28.5 0l0 14.52l-28.5 0Z" id="p208w108" />
<path d="M129.97 348.36l30.74 0l0 14.68l-30.74 0Z" id="p208w109" />
<path d="M163.92 348.36l47.06 0l0 14.68l-47.06 0Z" id="p208w110" />
<path d="M220.82 348.43l14.8 0l0 14.52l-14.8 0Z" id="p208w111" />
<path d="M238.82 348.43l43.5 0l0 14.52l-43.5 0Z" id="p208w112" />
<path d="M297.35 289.45l48.1 0l0 14.52l-48.1 0Z" id="p208w113" />
<path d="M348.66 289.45l50 0l0 14.52l-50 0Z" id="p208w114" />
<path d="M500.19 293.77l11.5 0l0 14.61l-11.5 0Z" id="p208w115" />
<path d="M514.89 293.77l39.99 0l0 14.61l-39.99 0Z" id="p208w116" />
<path d="M124.06 375.72l6.07 0l0 14.6l-6.07 0Z" id="p208w117" />
<path d="M129.6 375.72l85.41 0l0 14.6l-85.41 0Z" id="p208w118" />
<path d="M124.06 391.15l67.22 0l0 16.35l-67.22 0Z" id="p208w119" />
<path d="M297.35 375.76l17.11 0l0 14.52l-17.11 0Z" id="p208w120" />
<path d="M317.67 375.76l46.46 0l0 14.52l-46.46 0Z" id="p208w121" />
<path d="M367.34 375.76l17.11 0l0 14.52l-17.11 0Z" id="p208w122" />
<path d="M387.65 375.76l61.63 0l0 14.52l-61.63 0Z" id="p208w123" />
<path d="M500.19 380.07l71.01 0l0 14.61l-71.01 0Z" id="p208w124" />
<path d="M124.06 410.52l90.14 0l0 14.6l-90.14 0Z" id="p208w125" />
<path d="M217.35 409.28l64.25 0l0 16.35l-64.25 0Z" id="p208w126" />
<path d="M297.35 410.6l90.61 0l0 14.52l-90.61 0Z" id="p208w127" />
<path d="M482.46 410.6l41.18 0l0 14.52l-41.18 0Z" id="p208w128" />
<path d="M526.85 410.6l13.9 0l0 14.52l-13.9 0Z" id="p208w129" />
<path d="M543.96 410.6l25.67 0l0 14.52l-25.67 0Z" id="p208w130" />
<path d="M572.84 410.6l25.4 0l0 14.52l-25.4 0Z" id="p208w131" />
<path d="M601.44 410.6l22.94 0l0 14.52l-22.94 0Z" id="p208w132" />
<path d="M500.69 427.29l40.28 0l0 14.61l-40.28 0Z" id="p208w133" />
<path d="M110.28 473.33l54.7 0l0 15.37l-54.7 0Z" id="p208w134" />
<path d="M168.35 473.33l69.54 0l0 15.37l-69.54 0Z" id="p208w135" />
<path d="M241.27 473.33l72.4 0l0 15.37l-72.4 0Z" id="p208w136" />
<path d="M110.28 505.68l20.21 0l0 13.06l-20.21 0Z" id="p208w137" />
<path d="M133.35 505.68l39.62 0l0 13.06l-39.62 0Z" id="p208w138" />
<path d="M225.67 505.75l20.08 0l0 12.99l-20.08 0Z" id="p208w139" />
<path d="M248.62 505.75l45.74 0l0 12.99l-45.74 0Z" id="p208w140" />
<path d="M459.22 505.68l12.8 0l0 13.06l-12.8 0Z" id="p208w141" />
<path d="M474.9 505.68l71.15 0l0 13.06l-71.15 0Z" id="p208w142" />
<path d="M562.41 505.75l12.68 0l0 12.99l-12.68 0Z" id="p208w143" />
<path d="M577.96 505.75l60.44 0l0 12.99l-60.44 0Z" id="p208w144" />
<path d="M110.28 526.67l12.8 0l0 13.06l-12.8 0Z" id="p208w145" />
<path d="M125.95 526.67l21.49 0l0 13.06l-21.49 0Z" id="p208w146" />
<path d="M225.67 526.74l18.66 0l0 12.99l-18.66 0Z" id="p208w147" />
<path d="M247.2 526.74l34.92 0l0 12.99l-34.92 0Z" id="p208w148" />
<path d="M459.22 526.67l20.21 0l0 13.06l-20.21 0Z" id="p208w149" />
<path d="M482.3 526.67l42.6 0l0 13.06l-42.6 0Z" id="p208w150" />
<path d="M562.41 526.74l22.71 0l0 12.99l-22.71 0Z" id="p208w151" />
<path d="M587.99 526.74l22.72 0l0 12.99l-22.72 0Z" id="p208w152" />
<path d="M110.28 547.67l18.78 0l0 13.06l-18.78 0Z" id="p208w153" />
<path d="M131.92 547.67l27.97 0l0 13.06l-27.97 0Z" id="p208w154" />
<path d="M162.76 547.67l12.41 0l0 13.06l-12.41 0Z" id="p208w155" />
<path d="M178.04 547.67l34.59 0l0 13.06l-34.59 0Z" id="p208w156" />
<path d="M225.67 547.74l12.68 0l0 12.99l-12.68 0Z" id="p208w157" />
<path d="M241.23 547.74l37.54 0l0 12.99l-37.54 0Z" id="p208w158" />
<path d="M281.64 547.74l17.47 0l0 12.99l-17.47 0Z" id="p208w159" />
<path d="M301.98 547.74l28.95 0l0 12.99l-28.95 0Z" id="p208w160" />
<path d="M333.79 547.74l58.12 0l0 12.99l-58.12 0Z" id="p208w161" />
<path d="M459.22 547.67l30.15 0l0 13.06l-30.15 0Z" id="p208w162" />
<path d="M562.41 547.74l105.86 0l0 12.99l-105.86 0Z" id="p208w163" />
<path d="M110.28 568.67l20.21 0l0 13.06l-20.21 0Z" id="p208w164" />
<path d="M133.35 568.67l28.05 0l0 13.06l-28.05 0Z" id="p208w165" />
<path d="M225.67 568.74l20.08 0l0 12.99l-20.08 0Z" id="p208w166" />
<path d="M248.62 568.74l30.97 0l0 12.99l-30.97 0Z" id="p208w167" />
<path d="M459.22 568.67l12.8 0l0 13.06l-12.8 0Z" id="p208w168" />
<path d="M474.9 568.67l27.75 0l0 13.06l-27.75 0Z" id="p208w169" />
<path d="M562.41 568.74l12.68 0l0 12.99l-12.68 0Z" id="p208w170" />
<path d="M577.96 568.74l29.9 0l0 12.99l-29.9 0Z" id="p208w171" />
<path d="M610.73 568.74l19.13 0l0 12.99l-19.13 0Z" id="p208w172" />
<path d="M632.74 568.74l28.95 0l0 12.99l-28.95 0Z" id="p208w173" />
<path d="M110.28 611.43l10.17 0l0 13.06l-10.17 0Z" id="p208w174" />
<path d="M123.32 611.43l45.63 0l0 13.06l-45.63 0Z" id="p208w175" />
<path d="M171.82 611.43l52.71 0l0 13.06l-52.71 0Z" id="p208w176" />
<path d="M110.28 632.43l8.96 0l0 13.06l-8.96 0Z" id="p208w177" />
<path d="M122.11 632.43l24.84 0l0 13.06l-24.84 0Z" id="p208w178" />
<path d="M149.82 632.43l40.65 0l0 13.06l-40.65 0Z" id="p208w179" />
<path d="M225.67 632.5l54.77 0l0 12.99l-54.77 0Z" id="p208w180" />
<path d="M110.28 654.2l8.98 0l0 13.06l-8.98 0Z" id="p208w181" />
<path d="M122.12 654.2l46.35 0l0 13.06l-46.35 0Z" id="p208w182" />
<path d="M225.67 654.27l31.34 0l0 12.99l-31.34 0Z" id="p208w183" />
<path d="M259.88 654.27l16.03 0l0 12.99l-16.03 0Z" id="p208w184" />
<path d="M278.78 654.27l49.01 0l0 12.99l-49.01 0Z" id="p208w185" />
<path d="M110.28 675.94l8.98 0l0 13.06l-8.98 0Z" id="p208w186" />
<path d="M122.12 675.94l38.61 0l0 13.06l-38.61 0Z" id="p208w187" />
<path d="M225.67 676.01l36.11 0l0 12.99l-36.11 0Z" id="p208w188" />
<path d="M264.66 676.01l17.22 0l0 12.99l-17.22 0Z" id="p208w189" />
<path d="M284.74 676.01l43.05 0l0 12.99l-43.05 0Z" id="p208w190" />
<path d="M330.66 676.01l28.21 0l0 12.99l-28.21 0Z" id="p208w191" />
<path d="M361.75 676.01l23.43 0l0 12.99l-23.43 0Z" id="p208w192" />
<path d="M388.05 676.01l19.14 0l0 12.99l-19.14 0Z" id="p208w193" />
<path d="M410.06 676.01l57.4 0l0 12.99l-57.4 0Z" id="p208w194" />
</svg>
