<?xml version="1.0" encoding="UTF-8"?>
<svg xmlns="http://www.w3.org/2000/svg" xmlns:xlink="http://www.w3.org/1999/xlink" version="1.1" baseProfile="full" width="768" height="1024" viewBox="0,0,768,1024" preserveAspectRatio="xMinYMin meet" >
<style type="text/css">
<![CDATA[
path {fill-opacity: 0.5;fill: #00aeef;visibility: hidden;}
]]>
</style>
<path d="M346.46 616.05l54.25 0l0 14.6l-54.25 0Z" id="p7w1" />
<path d="M403.92 616.05l18.51 0l0 14.6l-18.51 0Z" id="p7w2" />
<path d="M425.63 616.05l48.12 0l0 14.6l-48.12 0Z" id="p7w3" />
<path d="M387.82 650.11l32.96 0l0 12.99l-32.96 0Z" id="p7w4" />
<path d="M423.65 650.11l16.73 0l0 12.99l-16.73 0Z" id="p7w5" />
<path d="M443.25 650.11l112.04 0l0 12.99l-112.04 0Z" id="p7w6" />
<path d="M387.82 677.2l45.72 0l0 12.99l-45.72 0Z" id="p7w7" />
<path d="M436.4 677.2l16.73 0l0 12.99l-16.73 0Z" id="p7w8" />
<path d="M456.01 677.2l41.37 0l0 12.99l-41.37 0Z" id="p7w9" />
<path d="M500.25 677.2l46.65 0l0 12.99l-46.65 0Z" id="p7w10" />
<path d="M387.82 704.29l58.6 0l0 12.99l-58.6 0Z" id="p7w11" />
<path d="M449.29 704.29l45.92 0l0 12.99l-45.92 0Z" id="p7w12" />
<path d="M387.82 731.39l65.99 0l0 12.99l-65.99 0Z" id="p7w13" />
<path d="M387.82 758.48l72.47 0l0 12.99l-72.47 0Z" id="p7w14" />
<path d="M387.82 785.57l38.74 0l0 12.99l-38.74 0Z" id="p7w15" />
<path d="M429.42 785.57l16.03 0l0 12.99l-16.03 0Z" id="p7w16" />
<path d="M448.32 785.57l52.85 0l0 12.99l-52.85 0Z" id="p7w17" />
<path d="M504.04 785.57l32.96 0l0 12.99l-32.96 0Z" id="p7w18" />
<path d="M387.82 812.66l38.74 0l0 12.99l-38.74 0Z" id="p7w19" />
<path d="M429.42 812.66l16.03 0l0 12.99l-16.03 0Z" id="p7w20" />
<path d="M448.32 812.66l74.12 0l0 12.99l-74.12 0Z" id="p7w21" />
<path d="M387.82 839.75l38.74 0l0 12.99l-38.74 0Z" id="p7w22" />
<path d="M429.42 839.75l16.03 0l0 12.99l-16.03 0Z" id="p7w23" />
<path d="M448.32 839.75l78.44 0l0 12.99l-78.44 0Z" id="p7w24" />
<path d="M387.82 866.85l38.74 0l0 12.99l-38.74 0Z" id="p7w25" />
<path d="M429.42 866.85l16.03 0l0 12.99l-16.03 0Z" id="p7w26" />
<path d="M448.32 866.85l13.88 0l0 12.99l-13.88 0Z" id="p7w27" />
<path d="M465.06 866.85l16.73 0l0 12.99l-16.73 0Z" id="p7w28" />
<path d="M484.67 866.85l49.74 0l0 12.99l-49.74 0Z" id="p7w29" />
<path d="M387.82 893.94l38.74 0l0 12.99l-38.74 0Z" id="p7w30" />
<path d="M429.42 893.94l16.03 0l0 12.99l-16.03 0Z" id="p7w31" />
<path d="M448.32 893.94l76.46 0l0 12.99l-76.46 0Z" id="p7w32" />
<path d="M527.64 893.94l36.35 0l0 12.99l-36.35 0Z" id="p7w33" />
<path d="M387.82 921.03l38.74 0l0 12.99l-38.74 0Z" id="p7w34" />
<path d="M429.42 921.03l16.03 0l0 12.99l-16.03 0Z" id="p7w35" />
<path d="M448.32 921.03l31.8 0l0 12.99l-31.8 0Z" id="p7w36" />
<path d="M482.99 921.03l49.98 0l0 12.99l-49.98 0Z" id="p7w37" />
<path d="M80.76 195.62l32.09 0l0 14.6l-32.09 0Z" id="p7w38" />
<path d="M116.05 195.62l63.08 0l0 14.6l-63.08 0Z" id="p7w39" />
<path d="M182.34 195.62l21.5 0l0 14.6l-21.5 0Z" id="p7w40" />
<path d="M207.05 195.62l64.03 0l0 14.6l-64.03 0Z" id="p7w41" />
<path d="M80.76 506.25l20.56 0l0 12.99l-20.56 0Z" id="p7w42" />
<path d="M104.19 506.25l33.48 0l0 12.99l-33.48 0Z" id="p7w43" />
<path d="M140.54 506.25l12.68 0l0 12.99l-12.68 0Z" id="p7w44" />
<path d="M156.09 506.25l15.31 0l0 12.99l-15.31 0Z" id="p7w45" />
<path d="M174.27 506.25l55.23 0l0 12.99l-55.23 0Z" id="p7w46" />
<path d="M232.37 506.25l16.5 0l0 12.99l-16.5 0Z" id="p7w47" />
<path d="M80.76 520.14l36.6 0l0 12.99l-36.6 0Z" id="p7w48" />
<path d="M120.23 520.14l16.03 0l0 12.99l-16.03 0Z" id="p7w49" />
<path d="M139.12 520.14l27.74 0l0 12.99l-27.74 0Z" id="p7w50" />
<path d="M169.73 520.14l23.69 0l0 12.99l-23.69 0Z" id="p7w51" />
<path d="M196.29 520.14l64.1 0l0 12.99l-64.1 0Z" id="p7w52" />
<path d="M80.76 534.03l19.14 0l0 12.99l-19.14 0Z" id="p7w53" />
<path d="M102.77 534.03l21.06 0l0 12.99l-21.06 0Z" id="p7w54" />
<path d="M126.7 534.03l29.41 0l0 12.99l-29.41 0Z" id="p7w55" />
<path d="M158.98 534.03l58.13 0l0 12.99l-58.13 0Z" id="p7w56" />
<path d="M346.46 506.24l9.81 0l0 12.99l-9.81 0Z" id="p7w57" />
<path d="M359.14 506.24l18.9 0l0 12.99l-18.9 0Z" id="p7w58" />
<path d="M380.91 506.24l49.03 0l0 12.99l-49.03 0Z" id="p7w59" />
<path d="M465.83 506.24l19.14 0l0 12.99l-19.14 0Z" id="p7w60" />
<path d="M496.46 506.24l34.67 0l0 12.99l-34.67 0Z" id="p7w61" />
<path d="M534 506.24l12.68 0l0 12.99l-12.68 0Z" id="p7w62" />
<path d="M346.46 520.13l25.75 0l0 12.99l-25.75 0ZM375.07 520.13l22.72 0l0 12.99l-22.72 0Z" id="p7w63" />
<path d="M400.66 520.13l43.28 0l0 12.99l-43.28 0Z" id="p7w64" />
<path d="M446.82 520.13l22.34 0l0 12.99l-22.34 0Z" id="p7w65" />
<path d="M472.03 520.13l27.74 0l0 12.99l-27.74 0Z" id="p7w66" />
<path d="M502.64 520.13l41.54 0l0 12.99l-41.54 0ZM346.46 534.02l36.6 0l0 12.99l-36.6 0Z" id="p7w67" />
<path d="M385.93 534.02l27.26 0l0 12.99l-27.26 0Z" id="p7w68" />
<path d="M416.05 534.02l20.81 0l0 12.99l-20.81 0Z" id="p7w69" />
<path d="M439.73 534.02l48.48 0l0 12.99l-48.48 0Z" id="p7w70" />
<path d="M346.46 195.46l24.42 0l0 14.6l-24.42 0Z" id="p7w71" />
<path d="M374.09 195.46l38.49 0l0 14.6l-38.49 0Z" id="p7w72" />
<path d="M415.78 195.46l21.5 0l0 14.6l-21.5 0Z" id="p7w73" />
<path d="M438.94 195.46l24.42 0l0 14.6l-24.42 0Z" id="p7w74" />
<path d="M466.56 195.46l37.55 0l0 14.6l-37.55 0Z" id="p7w75" />
<path d="M80.76 616.05l34.33 0l0 14.6l-34.33 0Z" id="p7w76" />
<path d="M118.03 616.05l39.99 0l0 14.6l-39.99 0Z" id="p7w77" />
<path d="M161.23 616.05l25.62 0l0 14.6l-25.62 0Z" id="p7w78" />
<path d="M190.06 616.05l58.93 0l0 14.6l-58.93 0Z" id="p7w79" />
<path d="M80.76 882.62l9.81 0l0 12.99l-9.81 0Z" id="p7w80" />
<path d="M93.44 882.62l16.5 0l0 12.99l-16.5 0Z" id="p7w81" />
<path d="M112.81 882.62l59.31 0l0 12.99l-59.31 0Z" id="p7w82" />
<path d="M174.99 882.6l27.02 0l0 12.99l-27.02 0Z" id="p7w83" />
<path d="M204.88 882.62l24.16 0l0 12.99l-24.16 0Z" id="p7w84" />
<path d="M231.91 882.62l18.9 0l0 12.99l-18.9 0Z" id="p7w85" />
<path d="M80.76 896.51l49.03 0l0 12.99l-49.03 0Z" id="p7w86" />
<path d="M154.68 896.51l19.14 0l0 12.99l-19.14 0Z" id="p7w87" />
<path d="M185.3 896.51l33.48 0l0 12.99l-33.48 0Z" id="p7w88" />
<path d="M221.65 896.51l12.68 0l0 12.99l-12.68 0Z" id="p7w89" />
<path d="M80.76 910.4l21.28 0l0 12.99l-21.28 0Z" id="p7w90" />
<path d="M104.52 910.4l84.91 0l0 12.99l-84.91 0Z" id="p7w91" />
<path d="M192.3 910.4l42.99 0l0 12.99l-42.99 0Z" id="p7w92" />
<path d="M238.16 910.4l19.14 0l0 12.99l-19.14 0Z" id="p7w93" />
<path d="M80.76 924.29l26.3 0l0 12.99l-26.3 0Z" id="p7w94" />
<path d="M109.93 924.29l22.72 0l0 12.99l-22.72 0Z" id="p7w95" />
<path d="M135.52 924.29l51.9 0l0 12.99l-51.9 0Z" id="p7w96" />
<path d="M190.29 924.29l45.2 0l0 12.99l-45.2 0Z" id="p7w97" />
<path d="M671.28 973.94l19.82 0l0 12.23l-19.82 0Z" id="p7w98" />
</svg>
