<?xml version="1.0" encoding="UTF-8"?>
<svg xmlns="http://www.w3.org/2000/svg" xmlns:xlink="http://www.w3.org/1999/xlink" version="1.1" baseProfile="full" width="768" height="1024" viewBox="0,0,768,1024" preserveAspectRatio="xMinYMin meet" >
<style type="text/css">
<![CDATA[
path {fill-opacity: 0.5;fill: #00aeef;visibility: hidden;}
]]>
</style>
<path d="M124.06 104.82l21.9 0l0 23.34l-21.9 0Z" id="p113w1" />
<path d="M151.04 104.82l51.43 0l0 23.34l-51.43 0Z" id="p113w2" />
<path d="M223.83 104.82l65.24 0l0 23.34l-65.24 0Z" id="p113w3" />
<path d="M294.14 104.82l23.67 0l0 23.34l-23.67 0Z" id="p113w4" />
<path d="M322.89 104.82l43.24 0l0 23.34l-43.24 0Z" id="p113w5" />
<path d="M124.06 138.9l27.04 0l0 15.09l-27.04 0Z" id="p113w6" />
<path d="M154.71 138.9l15.89 0l0 15.09l-15.89 0Z" id="p113w7" />
<path d="M174.21 138.9l33.16 0l0 15.09l-33.16 0Z" id="p113w8" />
<path d="M210.98 138.9l36.95 0l0 15.09l-36.95 0Z" id="p113w9" />
<path d="M251.54 138.9l21 0l0 15.09l-21 0Z" id="p113w10" />
<path d="M276.15 138.9l40.18 0l0 15.09l-40.18 0Z" id="p113w11" />
<path d="M319.94 138.9l19.56 0l0 15.09l-19.56 0Z" id="p113w12" />
<path d="M343.11 138.9l44.38 0l0 15.09l-44.38 0Z" id="p113w13" />
<path d="M391.1 138.9l11.88 0l0 15.09l-11.88 0Z" id="p113w14" />
<path d="M406.59 138.9l45.37 0l0 15.09l-45.37 0Z" id="p113w15" />
<path d="M455.57 138.9l18.49 0l0 15.09l-18.49 0Z" id="p113w16" />
<path d="M477.67 138.9l20.54 0l0 15.09l-20.54 0Z" id="p113w17" />
<path d="M501.82 138.9l25.34 0l0 15.09l-25.34 0Z" id="p113w18" />
<path d="M530.77 138.9l21.67 0l0 15.09l-21.67 0Z" id="p113w19" />
<path d="M556.05 138.9l42.96 0l0 15.09l-42.96 0Z" id="p113w20" />
<path d="M124.06 155.57l17.34 0l0 15.09l-17.34 0Z" id="p113w21" />
<path d="M145.01 155.57l44.69 0l0 15.09l-44.69 0Z" id="p113w22" />
<path d="M193.31 155.57l13.91 0l0 15.09l-13.91 0Z" id="p113w23" />
<path d="M210.83 155.57l37.01 0l0 15.09l-37.01 0Z" id="p113w24" />
<path d="M47.93 113.24l26.31 0l0 12.3l-26.31 0Z" id="p113w25" />
<path d="M147.69 206.41l61.95 0l0 23.86l-61.95 0Z" id="p113w26" />
<path d="M147.69 236.69l66.86 0l0 14.72l-66.86 0Z" id="p113w27" />
<path d="M219.16 236.69l14.44 0l0 14.72l-14.44 0Z" id="p113w28" />
<path d="M238.21 236.69l62.98 0l0 14.72l-62.98 0Z" id="p113w29" />
<path d="M305.79 236.69l25.01 0l0 14.72l-25.01 0Z" id="p113w30" />
<path d="M335.4 236.69l31.56 0l0 14.72l-31.56 0Z" id="p113w31" />
<path d="M383.07 236.69l32.76 0l0 14.72l-32.76 0Z" id="p113w32" />
<path d="M420.43 236.69l13.77 0l0 14.72l-13.77 0Z" id="p113w33" />
<path d="M438.8 236.69l30.92 0l0 14.72l-30.92 0Z" id="p113w34" />
<path d="M474.33 236.69l13.9 0l0 14.72l-13.9 0Z" id="p113w35" />
<path d="M492.84 236.69l27.74 0l0 14.72l-27.74 0Z" id="p113w36" />
<path d="M538.13 236.69l36.65 0l0 14.72l-36.65 0Z" id="p113w37" />
<path d="M579.38 236.69l27.33 0l0 14.72l-27.33 0Z" id="p113w38" />
<path d="M611.32 236.69l9.42 0l0 14.72l-9.42 0Z" id="p113w39" />
<path d="M625.34 236.69l37.04 0l0 14.72l-37.04 0Z" id="p113w40" />
<path d="M666.98 236.69l13.77 0l0 14.72l-13.77 0Z" id="p113w41" />
<path d="M147.69 251.97l57.83 0l0 14.72l-57.83 0Z" id="p113w42" />
<path d="M209.18 251.97l13.66 0l0 14.72l-13.66 0Z" id="p113w43" />
<path d="M226.5 251.97l14.43 0l0 14.72l-14.43 0Z" id="p113w44" />
<path d="M244.6 251.97l39.5 0l0 14.72l-39.5 0Z" id="p113w45" />
<path d="M287.77 251.97l34.68 0l0 14.72l-34.68 0Z" id="p113w46" />
<path d="M326.11 251.97l9.36 0l0 14.72l-9.36 0Z" id="p113w47" />
<path d="M339.13 251.97l46.26 0l0 14.72l-46.26 0Z" id="p113w48" />
<path d="M399.6 251.97l9.48 0l0 14.72l-9.48 0Z" id="p113w49" />
<path d="M412.74 251.97l22.51 0l0 14.72l-22.51 0Z" id="p113w50" />
<path d="M438.91 251.97l13.77 0l0 14.72l-13.77 0Z" id="p113w51" />
<path d="M456.34 251.97l27.63 0l0 14.72l-27.63 0Z" id="p113w52" />
<path d="M487.64 251.97l11.25 0l0 14.72l-11.25 0Z" id="p113w53" />
<path d="M502.55 251.97l43.01 0l0 14.72l-43.01 0Z" id="p113w54" />
<path d="M549.22 251.97l34.68 0l0 14.72l-34.68 0Z" id="p113w55" />
<path d="M587.57 251.97l9.36 0l0 14.72l-9.36 0Z" id="p113w56" />
<path d="M600.59 251.97l21.65 0l0 14.72l-21.65 0Z" id="p113w57" />
<path d="M625.9 251.97l9.49 0l0 14.72l-9.49 0Z" id="p113w58" />
<path d="M639.05 251.97l41.61 0l0 14.72l-41.61 0Z" id="p113w59" />
<path d="M147.69 267.25l9.48 0l0 14.72l-9.48 0Z" id="p113w60" />
<path d="M161.34 267.25l30.44 0l0 14.72l-30.44 0Z" id="p113w61" />
<path d="M195.95 267.25l25.8 0l0 14.72l-25.8 0Z" id="p113w62" />
<path d="M225.91 267.25l9.48 0l0 14.72l-9.48 0Z" id="p113w63" />
<path d="M239.56 267.25l46.32 0l0 14.72l-46.32 0Z" id="p113w64" />
<path d="M290.05 267.25l42.23 0l0 14.72l-42.23 0Z" id="p113w65" />
<path d="M336.46 267.25l13.77 0l0 14.72l-13.77 0Z" id="p113w66" />
<path d="M354.39 267.25l44.85 0l0 14.72l-44.85 0Z" id="p113w67" />
<path d="M147.69 290.18l25.57 0l0 14.72l-25.57 0Z" id="p113w68" />
<path d="M177.38 290.18l33.72 0l0 14.72l-33.72 0Z" id="p113w69" />
<path d="M215.23 290.18l68.01 0l0 14.72l-68.01 0Z" id="p113w70" />
<path d="M287.35 290.18l26.04 0l0 14.72l-26.04 0Z" id="p113w71" />
<path d="M317.51 290.18l53.65 0l0 14.72l-53.65 0Z" id="p113w72" />
<path d="M375.28 290.18l37.35 0l0 14.72l-37.35 0Z" id="p113w73" />
<path d="M416.75 290.18l25.19 0l0 14.72l-25.19 0Z" id="p113w74" />
<path d="M446.07 290.18l37.58 0l0 14.72l-37.58 0Z" id="p113w75" />
<path d="M159.34 305.46l42.71 0l0 14.72l-42.71 0Z" id="p113w76" />
<path d="M205.49 305.46l26.58 0l0 14.72l-26.58 0Z" id="p113w77" />
<path d="M235.52 305.46l15.57 0l0 14.72l-15.57 0Z" id="p113w78" />
<path d="M254.53 305.46l50.48 0l0 14.72l-50.48 0Z" id="p113w79" />
<path d="M308.46 305.46l51.94 0l0 14.72l-51.94 0Z" id="p113w80" />
<path d="M363.84 305.46l39.3 0l0 14.72l-39.3 0Z" id="p113w81" />
<path d="M406.58 305.46l22.71 0l0 14.72l-22.71 0Z" id="p113w82" />
<path d="M432.74 305.46l61.93 0l0 14.72l-61.93 0Z" id="p113w83" />
<path d="M158.43 320.75l49.57 0l0 14.72l-49.57 0Z" id="p113w84" />
<path d="M265.95 320.75l27.35 0l0 14.72l-27.35 0Z" id="p113w85" />
<path d="M297.09 320.75l25.01 0l0 14.72l-25.01 0Z" id="p113w86" />
<path d="M325.88 320.75l13.55 0l0 14.72l-13.55 0Z" id="p113w87" />
<path d="M343.21 320.75l32.94 0l0 14.72l-32.94 0Z" id="p113w88" />
<path d="M379.94 320.75l49.21 0l0 14.72l-49.21 0Z" id="p113w89" />
<path d="M432.93 320.75l9.21 0l0 14.72l-9.21 0Z" id="p113w90" />
<path d="M445.92 320.75l9.48 0l0 14.72l-9.48 0Z" id="p113w91" />
<path d="M459.18 320.75l35.53 0l0 14.72l-35.53 0Z" id="p113w92" />
<path d="M147.69 336.03l18.06 0l0 14.72l-18.06 0Z" id="p113w93" />
<path d="M168.85 336.03l27.37 0l0 14.72l-27.37 0Z" id="p113w94" />
<path d="M199.31 336.03l29.66 0l0 14.72l-29.66 0Z" id="p113w95" />
<path d="M232.07 336.03l28.07 0l0 14.72l-28.07 0Z" id="p113w96" />
<path d="M263.23 336.03l18.99 0l0 14.72l-18.99 0Z" id="p113w97" />
<path d="M285.31 336.03l33.93 0l0 14.72l-33.93 0Z" id="p113w98" />
<path d="M322.34 336.03l25.19 0l0 14.72l-25.19 0Z" id="p113w99" />
<path d="M350.62 336.03l45.4 0l0 14.72l-45.4 0Z" id="p113w100" />
<path d="M399.12 336.03l21.89 0l0 14.72l-21.89 0Z" id="p113w101" />
<path d="M424.1 336.03l26.04 0l0 14.72l-26.04 0Z" id="p113w102" />
<path d="M453.24 336.03l41.44 0l0 14.72l-41.44 0Z" id="p113w103" />
<path d="M147.69 351.31l31.09 0l0 14.72l-31.09 0Z" id="p113w104" />
<path d="M192.09 351.31l9.6 0l0 14.72l-9.6 0Z" id="p113w105" />
<path d="M204.87 351.31l54 0l0 14.72l-54 0Z" id="p113w106" />
<path d="M262.04 351.31l11.37 0l0 14.72l-11.37 0Z" id="p113w107" />
<path d="M276.6 351.31l13.61 0l0 14.72l-13.61 0Z" id="p113w108" />
<path d="M293.39 351.31l20.61 0l0 14.72l-20.61 0Z" id="p113w109" />
<path d="M317.18 351.31l55.34 0l0 14.72l-55.34 0Z" id="p113w110" />
<path d="M375.69 351.31l16.58 0l0 14.72l-16.58 0Z" id="p113w111" />
<path d="M402.87 351.31l5.31 0l0 14.72l-5.31 0Z" id="p113w112" />
<path d="M411.35 351.31l30.05 0l0 14.72l-30.05 0Z" id="p113w113" />
<path d="M444.58 351.31l50.07 0l0 14.72l-50.07 0Z" id="p113w114" />
<path d="M147.69 366.58l16.09 0l0 14.72l-16.09 0Z" id="p113w115" />
<path d="M170.15 366.58l36.96 0l0 14.72l-36.96 0Z" id="p113w116" />
<path d="M213.49 366.58l16.62 0l0 14.72l-16.62 0Z" id="p113w117" />
<path d="M236.48 366.58l58.24 0l0 14.72l-58.24 0Z" id="p113w118" />
<path d="M301.09 366.58l50.91 0l0 14.72l-50.91 0Z" id="p113w119" />
<path d="M358.37 366.58l16.09 0l0 14.72l-16.09 0Z" id="p113w120" />
<path d="M380.83 366.58l47.6 0l0 14.72l-47.6 0Z" id="p113w121" />
<path d="M434.8 366.58l11.37 0l0 14.72l-11.37 0Z" id="p113w122" />
<path d="M452.55 366.58l42.15 0l0 14.72l-42.15 0Z" id="p113w123" />
<path d="M147.69 381.86l52.59 0l0 14.72l-52.59 0Z" id="p113w124" />
<path d="M215.67 381.86l20.44 0l0 14.72l-20.44 0Z" id="p113w125" />
<path d="M240.33 381.86l45.33 0l0 14.72l-45.33 0Z" id="p113w126" />
<path d="M289.88 381.86l13.89 0l0 14.72l-13.89 0Z" id="p113w127" />
<path d="M307.98 381.86l55.12 0l0 14.72l-55.12 0Z" id="p113w128" />
<path d="M386.13 381.86l55.83 0l0 14.72l-55.83 0Z" id="p113w129" />
<path d="M446.18 381.86l37.42 0l0 14.72l-37.42 0Z" id="p113w130" />
<path d="M147.69 397.14l9.6 0l0 14.72l-9.6 0Z" id="p113w131" />
<path d="M162.25 397.14l22.13 0l0 14.72l-22.13 0Z" id="p113w132" />
<path d="M189.35 397.14l13.95 0l0 14.72l-13.95 0Z" id="p113w133" />
<path d="M208.27 397.14l15.27 0l0 14.72l-15.27 0Z" id="p113w134" />
<path d="M262.8 397.14l27.56 0l0 14.72l-27.56 0Z" id="p113w135" />
<path d="M295.33 397.14l62.9 0l0 14.72l-62.9 0Z" id="p113w136" />
<path d="M363.21 397.14l14.02 0l0 14.72l-14.02 0Z" id="p113w137" />
<path d="M382.2 397.14l21.02 0l0 14.72l-21.02 0Z" id="p113w138" />
<path d="M408.18 397.14l61.14 0l0 14.72l-61.14 0Z" id="p113w139" />
<path d="M474.29 397.14l20.43 0l0 14.72l-20.43 0Z" id="p113w140" />
<path d="M147.69 412.42l23.83 0l0 14.72l-23.83 0Z" id="p113w141" />
<path d="M176.97 412.42l19.33 0l0 14.72l-19.33 0Z" id="p113w142" />
<path d="M225.91 412.42l22.21 0l0 14.72l-22.21 0Z" id="p113w143" />
<path d="M253.57 412.42l41.5 0l0 14.72l-41.5 0Z" id="p113w144" />
<path d="M300.52 412.42l25.47 0l0 14.72l-25.47 0Z" id="p113w145" />
<path d="M331.44 412.42l61.8 0l0 14.72l-61.8 0Z" id="p113w146" />
<path d="M398.7 412.42l19.07 0l0 14.72l-19.07 0Z" id="p113w147" />
<path d="M423.22 412.42l26.58 0l0 14.72l-26.58 0Z" id="p113w148" />
<path d="M455.25 412.42l20.15 0l0 14.72l-20.15 0Z" id="p113w149" />
<path d="M480.86 412.42l13.83 0l0 14.72l-13.83 0Z" id="p113w150" />
<path d="M147.69 427.7l22.87 0l0 14.72l-22.87 0Z" id="p113w151" />
<path d="M174.79 427.7l34.05 0l0 14.72l-34.05 0Z" id="p113w152" />
<path d="M147.69 466.46l69.03 0l0 23.86l-69.03 0Z" id="p113w153" />
<path d="M338.32 496.74l26.19 0l0 14.72l-26.19 0Z" id="p113w154" />
<path d="M383.43 496.74l67.58 0l0 14.72l-67.58 0Z" id="p113w155" />
<path d="M454.16 496.74l14.69 0l0 14.72l-14.69 0Z" id="p113w156" />
<path d="M471.99 496.74l24.36 0l0 14.72l-24.36 0Z" id="p113w157" />
<path d="M499.49 496.74l38.73 0l0 14.72l-38.73 0Z" id="p113w158" />
<path d="M541.36 496.74l20.91 0l0 14.72l-20.91 0Z" id="p113w159" />
<path d="M565.41 496.74l39.83 0l0 14.72l-39.83 0Z" id="p113w160" />
<path d="M608.38 496.74l13.89 0l0 14.72l-13.89 0Z" id="p113w161" />
<path d="M625.42 496.74l55.31 0l0 14.72l-55.31 0Z" id="p113w162" />
<path d="M338.32 512.02l34.5 0l0 14.72l-34.5 0Z" id="p113w163" />
<path d="M380.83 512.02l26.58 0l0 14.72l-26.58 0Z" id="p113w164" />
<path d="M415.43 512.02l44.17 0l0 14.72l-44.17 0Z" id="p113w165" />
<path d="M467.61 512.02l46.45 0l0 14.72l-46.45 0Z" id="p113w166" />
<path d="M522.08 512.02l51.59 0l0 14.72l-51.59 0Z" id="p113w167" />
<path d="M581.68 512.02l41.42 0l0 14.72l-41.42 0Z" id="p113w168" />
<path d="M631.12 512.02l27.57 0l0 14.72l-27.57 0Z" id="p113w169" />
<path d="M666.71 512.02l13.96 0l0 14.72l-13.96 0Z" id="p113w170" />
<path d="M338.32 527.3l33.41 0l0 14.72l-33.41 0Z" id="p113w171" />
<path d="M376.86 527.3l28.04 0l0 14.72l-28.04 0Z" id="p113w172" />
<path d="M422.1 527.3l32.49 0l0 14.72l-32.49 0Z" id="p113w173" />
<path d="M459.72 527.3l11.37 0l0 14.72l-11.37 0Z" id="p113w174" />
<path d="M476.22 527.3l25.47 0l0 14.72l-25.47 0Z" id="p113w175" />
<path d="M506.81 527.3l45.63 0l0 14.72l-45.63 0Z" id="p113w176" />
<path d="M557.57 527.3l13.96 0l0 14.72l-13.96 0Z" id="p113w177" />
<path d="M576.65 527.3l39.67 0l0 14.72l-39.67 0Z" id="p113w178" />
<path d="M621.45 527.3l5.31 0l0 14.72l-5.31 0Z" id="p113w179" />
<path d="M654.43 527.3l26.33 0l0 14.72l-26.33 0Z" id="p113w180" />
<path d="M338.32 542.58l20.57 0l0 14.72l-20.57 0Z" id="p113w181" />
<path d="M370.75 542.58l9.54 0l0 14.72l-9.54 0Z" id="p113w182" />
<path d="M384.1 542.58l20.77 0l0 14.72l-20.77 0Z" id="p113w183" />
<path d="M408.68 542.58l13.95 0l0 14.72l-13.95 0Z" id="p113w184" />
<path d="M426.44 542.58l37.98 0l0 14.72l-37.98 0Z" id="p113w185" />
<path d="M468.23 542.58l13.78 0l0 14.72l-13.78 0Z" id="p113w186" />
<path d="M485.83 542.58l25.99 0l0 14.72l-25.99 0Z" id="p113w187" />
<path d="M515.63 542.58l9.54 0l0 14.72l-9.54 0Z" id="p113w188" />
<path d="M528.98 542.58l16.21 0l0 14.72l-16.21 0Z" id="p113w189" />
<path d="M549 542.58l22.87 0l0 14.72l-22.87 0Z" id="p113w190" />
<path d="M575.69 542.58l13.89 0l0 14.72l-13.89 0Z" id="p113w191" />
<path d="M593.39 542.58l27.54 0l0 14.72l-27.54 0Z" id="p113w192" />
<path d="M632.78 542.58l9.54 0l0 14.72l-9.54 0Z" id="p113w193" />
<path d="M646.13 542.58l34.57 0l0 14.72l-34.57 0Z" id="p113w194" />
<path d="M338.32 557.86l13.89 0l0 14.72l-13.89 0Z" id="p113w195" />
<path d="M355.94 557.86l39.83 0l0 14.72l-39.83 0Z" id="p113w196" />
<path d="M399.51 557.86l13.89 0l0 14.72l-13.89 0Z" id="p113w197" />
<path d="M417.13 557.86l55.37 0l0 14.72l-55.37 0Z" id="p113w198" />
<path d="M476.24 557.86l27.08 0l0 14.72l-27.08 0Z" id="p113w199" />
<path d="M507.05 557.86l20.49 0l0 14.72l-20.49 0Z" id="p113w200" />
<path d="M531.28 557.86l26.29 0l0 14.72l-26.29 0Z" id="p113w201" />
<path d="M561.3 557.86l20.78 0l0 14.72l-20.78 0Z" id="p113w202" />
<path d="M592.88 557.86l13.78 0l0 14.72l-13.78 0Z" id="p113w203" />
<path d="M610.39 557.86l43.19 0l0 14.72l-43.19 0Z" id="p113w204" />
<path d="M657.32 557.86l23.37 0l0 14.72l-23.37 0Z" id="p113w205" />
<path d="M338.32 573.14l38.71 0l0 14.72l-38.71 0Z" id="p113w206" />
<path d="M386.26 573.14l18.12 0l0 14.72l-18.12 0Z" id="p113w207" />
<path d="M413.61 573.14l55.37 0l0 14.72l-55.37 0Z" id="p113w208" />
<path d="M478.22 573.14l28.5 0l0 14.72l-28.5 0Z" id="p113w209" />
<path d="M515.96 573.14l25.61 0l0 14.72l-25.61 0Z" id="p113w210" />
<path d="M550.81 573.14l9.54 0l0 14.72l-9.54 0Z" id="p113w211" />
<path d="M569.58 573.14l45.96 0l0 14.72l-45.96 0Z" id="p113w212" />
<path d="M624.78 573.14l26.29 0l0 14.72l-26.29 0Z" id="p113w213" />
<path d="M660.3 573.14l20.38 0l0 14.72l-20.38 0Z" id="p113w214" />
<path d="M338.32 588.42l63.13 0l0 14.72l-63.13 0Z" id="p113w215" />
<path d="M405.09 588.42l38.73 0l0 14.72l-38.73 0Z" id="p113w216" />
<path d="M447.46 588.42l23.31 0l0 14.72l-23.31 0Z" id="p113w217" />
<path d="M474.4 588.42l31.92 0l0 14.72l-31.92 0Z" id="p113w218" />
<path d="M509.97 588.42l13.61 0l0 14.72l-13.61 0Z" id="p113w219" />
<path d="M527.22 588.42l60.29 0l0 14.72l-60.29 0Z" id="p113w220" />
<path d="M599.02 588.42l19.07 0l0 14.72l-19.07 0Z" id="p113w221" />
<path d="M621.73 588.42l34.87 0l0 14.72l-34.87 0Z" id="p113w222" />
<path d="M660.24 588.42l20.49 0l0 14.72l-20.49 0Z" id="p113w223" />
<path d="M338.32 603.69l9.6 0l0 14.72l-9.6 0Z" id="p113w224" />
<path d="M353.8 603.69l57.05 0l0 14.72l-57.05 0Z" id="p113w225" />
<path d="M416.74 603.69l30.74 0l0 14.72l-30.74 0Z" id="p113w226" />
<path d="M453.37 603.69l30.99 0l0 14.72l-30.99 0Z" id="p113w227" />
<path d="M490.25 603.69l11.37 0l0 14.72l-11.37 0Z" id="p113w228" />
<path d="M507.51 603.69l32.78 0l0 14.72l-32.78 0Z" id="p113w229" />
<path d="M546.18 603.69l20.57 0l0 14.72l-20.57 0Z" id="p113w230" />
<path d="M572.64 603.69l47.87 0l0 14.72l-47.87 0Z" id="p113w231" />
<path d="M626.4 603.69l27.57 0l0 14.72l-27.57 0Z" id="p113w232" />
<path d="M659.85 603.69l20.85 0l0 14.72l-20.85 0Z" id="p113w233" />
<path d="M338.32 618.97l55.31 0l0 14.72l-55.31 0Z" id="p113w234" />
<path d="M147.69 657.74l108.1 0l0 23.86l-108.1 0Z" id="p113w235" />
<path d="M147.69 688.02l67.58 0l0 14.72l-67.58 0Z" id="p113w236" />
<path d="M221.72 688.02l14.69 0l0 14.72l-14.69 0Z" id="p113w237" />
<path d="M242.85 688.02l73.28 0l0 14.72l-73.28 0Z" id="p113w238" />
<path d="M322.57 688.02l46.85 0l0 14.72l-46.85 0Z" id="p113w239" />
<path d="M375.86 688.02l13.9 0l0 14.72l-13.9 0Z" id="p113w240" />
<path d="M396.21 688.02l45.24 0l0 14.72l-45.24 0Z" id="p113w241" />
<path d="M447.89 688.02l46.79 0l0 14.72l-46.79 0Z" id="p113w242" />
<path d="M147.69 703.3l26.58 0l0 14.72l-26.58 0Z" id="p113w243" />
<path d="M180.22 703.3l24.36 0l0 14.72l-24.36 0Z" id="p113w244" />
<path d="M210.52 703.3l20.91 0l0 14.72l-20.91 0Z" id="p113w245" />
<path d="M237.38 703.3l55.35 0l0 14.72l-55.35 0Z" id="p113w246" />
<path d="M298.68 703.3l13.89 0l0 14.72l-13.89 0Z" id="p113w247" />
<path d="M318.52 703.3l46.46 0l0 14.72l-46.46 0Z" id="p113w248" />
<path d="M370.93 703.3l11.37 0l0 14.72l-11.37 0Z" id="p113w249" />
<path d="M388.25 703.3l37.04 0l0 14.72l-37.04 0Z" id="p113w250" />
<path d="M431.23 703.3l14.76 0l0 14.72l-14.76 0Z" id="p113w251" />
<path d="M451.94 703.3l31.56 0l0 14.72l-31.56 0Z" id="p113w252" />
<path d="M489.45 703.3l5.25 0l0 14.72l-5.25 0Z" id="p113w253" />
<path d="M147.69 718.58l51.37 0l0 14.72l-51.37 0Z" id="p113w254" />
<path d="M215.58 718.58l33.18 0l0 14.72l-33.18 0Z" id="p113w255" />
<path d="M253.54 718.58l13.89 0l0 14.72l-13.89 0Z" id="p113w256" />
<path d="M272.21 718.58l31.22 0l0 14.72l-31.22 0Z" id="p113w257" />
<path d="M308.22 718.58l36.94 0l0 14.72l-36.94 0Z" id="p113w258" />
<path d="M349.94 718.58l9.48 0l0 14.72l-9.48 0Z" id="p113w259" />
<path d="M364.2 718.58l22.71 0l0 14.72l-22.71 0Z" id="p113w260" />
<path d="M391.69 718.58l43.96 0l0 14.72l-43.96 0Z" id="p113w261" />
<path d="M440.43 718.58l5.31 0l0 14.72l-5.31 0Z" id="p113w262" />
<path d="M450.52 718.58l25.47 0l0 14.72l-25.47 0Z" id="p113w263" />
<path d="M480.78 718.58l13.9 0l0 14.72l-13.9 0Z" id="p113w264" />
<path d="M147.69 733.86l26.57 0l0 14.72l-26.57 0Z" id="p113w265" />
<path d="M178 733.86l13.89 0l0 14.72l-13.89 0Z" id="p113w266" />
<path d="M195.62 733.86l50.91 0l0 14.72l-50.91 0Z" id="p113w267" />
<path d="M250.26 733.86l16.09 0l0 14.72l-16.09 0Z" id="p113w268" />
<path d="M270.09 733.86l34.52 0l0 14.72l-34.52 0Z" id="p113w269" />
<path d="M308.35 733.86l26.29 0l0 14.72l-26.29 0Z" id="p113w270" />
<path d="M338.37 733.86l27.72 0l0 14.72l-27.72 0Z" id="p113w271" />
<path d="M369.82 733.86l36.06 0l0 14.72l-36.06 0Z" id="p113w272" />
<path d="M409.62 733.86l14.02 0l0 14.72l-14.02 0Z" id="p113w273" />
<path d="M427.37 733.86l20.83 0l0 14.72l-20.83 0Z" id="p113w274" />
<path d="M451.94 733.86l42.78 0l0 14.72l-42.78 0Z" id="p113w275" />
<path d="M147.69 749.14l39.32 0l0 14.72l-39.32 0Z" id="p113w276" />
<path d="M191.72 749.14l9.6 0l0 14.72l-9.6 0Z" id="p113w277" />
<path d="M206.02 749.14l27.97 0l0 14.72l-27.97 0Z" id="p113w278" />
<path d="M250.34 749.14l9.6 0l0 14.72l-9.6 0Z" id="p113w279" />
<path d="M264.64 749.14l45.58 0l0 14.72l-45.58 0Z" id="p113w280" />
<path d="M314.93 749.14l24.16 0l0 14.72l-24.16 0Z" id="p113w281" />
<path d="M343.79 749.14l21.76 0l0 14.72l-21.76 0Z" id="p113w282" />
<path d="M380.3 749.14l26.58 0l0 14.72l-26.58 0Z" id="p113w283" />
<path d="M411.58 749.14l55.34 0l0 14.72l-55.34 0Z" id="p113w284" />
<path d="M471.62 749.14l23.08 0l0 14.72l-23.08 0Z" id="p113w285" />
<path d="M147.69 764.41l13.65 0l0 14.72l-13.65 0Z" id="p113w286" />
<path d="M165.9 764.41l48.9 0l0 14.72l-48.9 0Z" id="p113w287" />
<path d="M227.12 764.41l46.67 0l0 14.72l-46.67 0Z" id="p113w288" />
<path d="M278.36 764.41l9.3 0l0 14.72l-9.3 0Z" id="p113w289" />
<path d="M292.22 764.41l32.18 0l0 14.72l-32.18 0Z" id="p113w290" />
<path d="M328.96 764.41l13.65 0l0 14.72l-13.65 0Z" id="p113w291" />
<path d="M347.17 764.41l27.11 0l0 14.72l-27.11 0Z" id="p113w292" />
<path d="M378.84 764.41l14.2 0l0 14.72l-14.2 0Z" id="p113w293" />
<path d="M397.61 764.41l44.8 0l0 14.72l-44.8 0Z" id="p113w294" />
<path d="M446.97 764.41l9.3 0l0 14.72l-9.3 0Z" id="p113w295" />
<path d="M460.83 764.41l33.85 0l0 14.72l-33.85 0Z" id="p113w296" />
<path d="M147.69 779.69l60.57 0l0 14.72l-60.57 0Z" id="p113w297" />
<path d="M226.21 779.69l9.6 0l0 14.72l-9.6 0Z" id="p113w298" />
<path d="M262.94 779.69l5.31 0l0 14.72l-5.31 0Z" id="p113w299" />
<path d="M273.05 779.69l20.61 0l0 14.72l-20.61 0Z" id="p113w300" />
<path d="M298.46 779.69l52.97 0l0 14.72l-52.97 0Z" id="p113w301" />
<path d="M356.24 779.69l59.98 0l0 14.72l-59.98 0Z" id="p113w302" />
<path d="M421.02 779.69l26.39 0l0 14.72l-26.39 0Z" id="p113w303" />
<path d="M452.21 779.69l30.76 0l0 14.72l-30.76 0Z" id="p113w304" />
<path d="M147.69 794.97l20.55 0l0 14.72l-20.55 0Z" id="p113w305" />
<path d="M172.88 794.97l31.48 0l0 14.72l-31.48 0Z" id="p113w306" />
<path d="M209 794.97l36.07 0l0 14.72l-36.07 0Z" id="p113w307" />
<path d="M249.71 794.97l52.09 0l0 14.72l-52.09 0Z" id="p113w308" />
<path d="M306.44 794.97l63.76 0l0 14.72l-63.76 0Z" id="p113w309" />
<path d="M374.83 794.97l18.54 0l0 14.72l-18.54 0Z" id="p113w310" />
<path d="M398.02 794.97l15.73 0l0 14.72l-15.73 0Z" id="p113w311" />
<path d="M418.38 794.97l37.25 0l0 14.72l-37.25 0Z" id="p113w312" />
<path d="M460.27 794.97l20.49 0l0 14.72l-20.49 0Z" id="p113w313" />
<path d="M485.4 794.97l9.3 0l0 14.72l-9.3 0Z" id="p113w314" />
<path d="M147.69 810.25l18.93 0l0 14.72l-18.93 0Z" id="p113w315" />
<path d="M170.64 810.25l20.31 0l0 14.72l-20.31 0Z" id="p113w316" />
<path d="M194.96 810.25l12.37 0l0 14.72l-12.37 0Z" id="p113w317" />
<path d="M211.33 810.25l13.9 0l0 14.72l-13.9 0Z" id="p113w318" />
<path d="M229.25 810.25l30.05 0l0 14.72l-30.05 0Z" id="p113w319" />
<path d="M263.31 810.25l16.44 0l0 14.72l-16.44 0Z" id="p113w320" />
<path d="M283.76 810.25l13.32 0l0 14.72l-13.32 0Z" id="p113w321" />
<path d="M301.1 810.25l40.89 0l0 14.72l-40.89 0Z" id="p113w322" />
<path d="M346 810.25l88.71 0l0 14.72l-88.71 0Z" id="p113w323" />
<path d="M438.73 810.25l12.08 0l0 14.72l-12.08 0Z" id="p113w324" />
<path d="M454.82 810.25l39.82 0l0 14.72l-39.82 0Z" id="p113w325" />
<path d="M147.69 825.53l23.61 0l0 14.72l-23.61 0Z" id="p113w326" />
<path d="M178.56 825.53l29.76 0l0 14.72l-29.76 0Z" id="p113w327" />
<path d="M215.59 825.53l46.85 0l0 14.72l-46.85 0Z" id="p113w328" />
<path d="M269.71 825.53l20.61 0l0 14.72l-20.61 0Z" id="p113w329" />
<path d="M297.58 825.53l51.59 0l0 14.72l-51.59 0Z" id="p113w330" />
<path d="M367.93 825.53l46.45 0l0 14.72l-46.45 0Z" id="p113w331" />
<path d="M421.65 825.53l13.5 0l0 14.72l-13.5 0Z" id="p113w332" />
<path d="M442.42 825.53l52.23 0l0 14.72l-52.23 0Z" id="p113w333" />
<path d="M147.69 840.81l48.18 0l0 14.72l-48.18 0Z" id="p113w334" />
<path d="M200.91 840.81l13.89 0l0 14.72l-13.89 0Z" id="p113w335" />
<path d="M219.84 840.81l45.24 0l0 14.72l-45.24 0Z" id="p113w336" />
<path d="M270.13 840.81l5.31 0l0 14.72l-5.31 0Z" id="p113w337" />
<path d="M280.48 840.81l26.58 0l0 14.72l-26.58 0Z" id="p113w338" />
<path d="M312.1 840.81l50.64 0l0 14.72l-50.64 0Z" id="p113w339" />
<path d="M367.77 840.81l14.02 0l0 14.72l-14.02 0Z" id="p113w340" />
<path d="M386.84 840.81l30.12 0l0 14.72l-30.12 0Z" id="p113w341" />
<path d="M422 840.81l13.89 0l0 14.72l-13.89 0Z" id="p113w342" />
<path d="M440.93 840.81l15.27 0l0 14.72l-15.27 0Z" id="p113w343" />
<path d="M461.24 840.81l18.91 0l0 14.72l-18.91 0Z" id="p113w344" />
<path d="M485.18 840.81l9.54 0l0 14.72l-9.54 0Z" id="p113w345" />
<path d="M147.69 856.09l26.24 0l0 14.72l-26.24 0Z" id="p113w346" />
<path d="M178.17 856.09l30.4 0l0 14.72l-30.4 0Z" id="p113w347" />
<path d="M212.8 856.09l49.45 0l0 14.72l-49.45 0Z" id="p113w348" />
<path d="M266.48 856.09l36.06 0l0 14.72l-36.06 0Z" id="p113w349" />
<path d="M306.77 856.09l34.09 0l0 14.72l-34.09 0Z" id="p113w350" />
<path d="M68.27 39.02l42.71 0l0 15.38l-42.71 0Z" id="p113w351" />
<path d="M152.25 39.02l43.21 0l0 15.38l-43.21 0Z" id="p113w352" />
<path d="M251.4 38.6l45.06 0l0 16.09l-45.06 0Z" id="p113w353" />
<path d="M349.96 39.02l32.54 0l0 15.38l-32.54 0Z" id="p113w354" />
<path d="M645.02 983l46.08 0l0 12.23l-46.08 0Z" id="p113w355" />
</svg>
