<?xml version="1.0" encoding="UTF-8"?>
<svg xmlns="http://www.w3.org/2000/svg" xmlns:xlink="http://www.w3.org/1999/xlink" version="1.1" baseProfile="full" width="768" height="1024" viewBox="0,0,768,1024" preserveAspectRatio="xMinYMin meet" >
<style type="text/css">
<![CDATA[
path {fill-opacity: 0.5;fill: #00aeef;visibility: hidden;}
]]>
</style>
<path d="M124.06 114.18l51.89 0l0 14.52l-51.89 0Z" id="p19w1" />
<path d="M179.16 114.18l15.5 0l0 14.52l-15.5 0Z" id="p19w2" />
<path d="M197.86 114.18l41.16 0l0 14.52l-41.16 0Z" id="p19w3" />
<path d="M242.22 114.18l11.22 0l0 14.52l-11.22 0Z" id="p19w4" />
<path d="M256.65 114.18l48.12 0l0 14.52l-48.12 0Z" id="p19w5" />
<path d="M307.98 114.18l12.57 0l0 14.52l-12.57 0Z" id="p19w6" />
<path d="M323.75 114.18l17.38 0l0 14.52l-17.38 0Z" id="p19w7" />
<path d="M344.34 114.18l24.31 0l0 14.52l-24.31 0Z" id="p19w8" />
<path d="M371.87 114.18l34.48 0l0 14.52l-34.48 0Z" id="p19w9" />
<path d="M634.33 114.18l14.44 0l0 14.52l-14.44 0Z" id="p19w10" />
<path d="M651.98 114.18l23.52 0l0 14.52l-23.52 0Z" id="p19w11" />
<path d="M143.75 139.21l18.44 0l0 14.61l-18.44 0Z" id="p19w12" />
<path d="M165.4 139.21l34.74 0l0 14.61l-34.74 0Z" id="p19w13" />
<path d="M203.35 139.21l12.29 0l0 14.61l-12.29 0Z" id="p19w14" />
<path d="M218.84 139.21l71.74 0l0 14.61l-71.74 0Z" id="p19w15" />
<path d="M293.79 139.21l26.66 0l0 14.61l-26.66 0Z" id="p19w16" />
<path d="M323.66 139.21l9.89 0l0 14.61l-9.89 0Z" id="p19w17" />
<path d="M336.75 139.21l37.95 0l0 14.61l-37.95 0Z" id="p19w18" />
<path d="M377.74 138.9l24.46 0l0 14.92l-24.46 0Z" id="p19w19" />
<path d="M415.29 138.9l26.73 0l0 14.92l-26.73 0Z" id="p19w20" />
<path d="M447.73 139.21l14.16 0l0 14.61l-14.16 0Z" id="p19w21" />
<path d="M465.1 139.21l34.21 0l0 14.61l-34.21 0Z" id="p19w22" />
<path d="M502.52 139.21l16.83 0l0 14.61l-16.83 0Z" id="p19w23" />
<path d="M522.56 139.21l34.15 0l0 14.61l-34.15 0Z" id="p19w24" />
<path d="M143.75 155.88l6.96 0l0 14.61l-6.96 0Z" id="p19w25" />
<path d="M163.74 155.88l22.73 0l0 14.61l-22.73 0Z" id="p19w26" />
<path d="M189.68 155.88l9.89 0l0 14.61l-9.89 0Z" id="p19w27" />
<path d="M202.77 155.88l82.44 0l0 14.61l-82.44 0Z" id="p19w28" />
<path d="M288.42 155.88l13.9 0l0 14.61l-13.9 0Z" id="p19w29" />
<path d="M305.53 155.88l33.61 0l0 14.61l-33.61 0Z" id="p19w30" />
<path d="M154.71 639.38l9.89 0l0 14.52l-9.89 0Z" id="p19w31" />
<path d="M167.8 639.38l7.48 0l0 14.52l-7.48 0Z" id="p19w32" />
<path d="M185.71 639.38l13.9 0l0 14.52l-13.9 0Z" id="p19w33" />
<path d="M202.82 639.38l9.89 0l0 14.52l-9.89 0Z" id="p19w34" />
<path d="M215.91 639.38l50.5 0l0 14.52l-50.5 0Z" id="p19w35" />
<path d="M269.62 639.38l44.65 0l0 14.52l-44.65 0Z" id="p19w36" />
<path d="M317.48 639.38l28.06 0l0 14.52l-28.06 0Z" id="p19w37" />
<path d="M348.75 639.38l24.85 0l0 14.52l-24.85 0Z" id="p19w38" />
<path d="M376.81 639.38l19.79 0l0 14.52l-19.79 0Z" id="p19w39" />
<path d="M399.81 639.38l35.55 0l0 14.52l-35.55 0Z" id="p19w40" />
<path d="M438.56 639.38l13.9 0l0 14.52l-13.9 0Z" id="p19w41" />
<path d="M455.67 639.38l28.35 0l0 14.52l-28.35 0Z" id="p19w42" />
<path d="M143.75 656.05l57.21 0l0 14.52l-57.21 0Z" id="p19w43" />
<path d="M204.17 656.05l9.89 0l0 14.52l-9.89 0Z" id="p19w44" />
<path d="M217.26 656.05l21.4 0l0 14.52l-21.4 0Z" id="p19w45" />
<path d="M241.87 656.05l35 0l0 14.52l-35 0Z" id="p19w46" />
<path d="M280.08 656.05l11.22 0l0 14.52l-11.22 0Z" id="p19w47" />
<path d="M294.5 656.05l30.74 0l0 14.52l-30.74 0Z" id="p19w48" />
<path d="M325.25 656.05l12.57 0l0 14.52l-12.57 0Z" id="p19w49" />
<path d="M341.02 656.05l28.87 0l0 14.52l-28.87 0Z" id="p19w50" />
<path d="M373.09 656.05l31.84 0l0 14.52l-31.84 0Z" id="p19w51" />
<path d="M154.66 684.99l15.09 0l0 15.09l-15.09 0Z" id="p19w52" />
<path d="M173.36 684.99l38.7 0l0 15.09l-38.7 0Z" id="p19w53" />
<path d="M215.67 684.99l28.26 0l0 15.09l-28.26 0Z" id="p19w54" />
<path d="M247.55 684.99l48.59 0l0 15.09l-48.59 0Z" id="p19w55" />
<path d="M302.71 684.99l48.53 0l0 15.09l-48.53 0Z" id="p19w56" />
<path d="M354.85 684.99l33.44 0l0 15.09l-33.44 0Z" id="p19w57" />
<path d="M391.9 684.99l13.91 0l0 15.09l-13.91 0Z" id="p19w58" />
<path d="M409.42 684.99l28.22 0l0 15.09l-28.22 0Z" id="p19w59" />
<path d="M441.25 684.99l22.03 0l0 15.09l-22.03 0Z" id="p19w60" />
<path d="M466.89 684.99l19.68 0l0 15.09l-19.68 0Z" id="p19w61" />
<path d="M490.18 684.99l29.29 0l0 15.09l-29.29 0Z" id="p19w62" />
<path d="M523.08 684.99l10.5 0l0 15.09l-10.5 0Z" id="p19w63" />
<path d="M537.19 684.99l32.05 0l0 15.09l-32.05 0Z" id="p19w64" />
<path d="M572.85 684.99l64.48 0l0 15.09l-64.48 0Z" id="p19w65" />
<path d="M154.66 701.66l26.35 0l0 15.09l-26.35 0Z" id="p19w66" />
<path d="M197.68 701.66l17.83 0l0 15.09l-17.83 0Z" id="p19w67" />
<path d="M219.12 701.66l22.03 0l0 15.09l-22.03 0Z" id="p19w68" />
<path d="M244.76 701.66l40.29 0l0 15.09l-40.29 0Z" id="p19w69" />
<path d="M288.66 701.66l21.35 0l0 15.09l-21.35 0Z" id="p19w70" />
<path d="M313.62 701.66l35.69 0l0 15.09l-35.69 0Z" id="p19w71" />
<path d="M352.92 701.66l64.81 0l0 15.09l-64.81 0Z" id="p19w72" />
<path d="M424.3 701.66l19.84 0l0 15.09l-19.84 0Z" id="p19w73" />
<path d="M447.75 701.66l45.26 0l0 15.09l-45.26 0Z" id="p19w74" />
<path d="M496.63 701.66l47.14 0l0 15.09l-47.14 0Z" id="p19w75" />
<path d="M547.38 701.66l48.5 0l0 15.09l-48.5 0Z" id="p19w76" />
<path d="M602.45 701.66l19.84 0l0 15.09l-19.84 0Z" id="p19w77" />
<path d="M625.91 701.66l25.4 0l0 15.09l-25.4 0Z" id="p19w78" />
<path d="M154.66 718.33l18.49 0l0 15.09l-18.49 0Z" id="p19w79" />
<path d="M176.77 718.33l28.99 0l0 15.09l-28.99 0Z" id="p19w80" />
<path d="M209.37 718.33l57.72 0l0 15.09l-57.72 0Z" id="p19w81" />
<path d="M270.7 718.33l18.46 0l0 15.09l-18.46 0Z" id="p19w82" />
<path d="M292.77 718.33l30.02 0l0 15.09l-30.02 0Z" id="p19w83" />
<path d="M326.4 718.33l40.93 0l0 15.09l-40.93 0Z" id="p19w84" />
<path d="M373.9 718.33l19.84 0l0 15.09l-19.84 0Z" id="p19w85" />
<path d="M397.36 718.33l17.83 0l0 15.09l-17.83 0Z" id="p19w86" />
<path d="M418.8 718.33l13.91 0l0 15.09l-13.91 0Z" id="p19w87" />
<path d="M436.31 718.33l37.13 0l0 15.09l-37.13 0Z" id="p19w88" />
<path d="M477.05 718.33l50.03 0l0 15.09l-50.03 0Z" id="p19w89" />
<path d="M166.94 735l66.83 0l0 15.09l-66.83 0Z" id="p19w90" />
<path d="M237.38 735l28.26 0l0 15.09l-28.26 0Z" id="p19w91" />
<path d="M269.25 735l38.8 0l0 15.09l-38.8 0Z" id="p19w92" />
<path d="M311.66 735l44.63 0l0 15.09l-44.63 0Z" id="p19w93" />
<path d="M362.87 735l48.53 0l0 15.09l-48.53 0Z" id="p19w94" />
<path d="M415.01 735l44.63 0l0 15.09l-44.63 0Z" id="p19w95" />
<path d="M463.25 735l26.31 0l0 15.09l-26.31 0Z" id="p19w96" />
<path d="M503.27 735l54.51 0l0 15.09l-54.51 0Z" id="p19w97" />
<path d="M561.39 735l13.91 0l0 15.09l-13.91 0Z" id="p19w98" />
<path d="M578.91 735l53.35 0l0 15.09l-53.35 0Z" id="p19w99" />
<path d="M154.66 751.67l24.07 0l0 15.09l-24.07 0Z" id="p19w100" />
<path d="M182.35 751.67l28.26 0l0 15.09l-28.26 0Z" id="p19w101" />
<path d="M214.22 751.67l48.59 0l0 15.09l-48.59 0Z" id="p19w102" />
<path d="M269.38 751.67l48.53 0l0 15.09l-48.53 0Z" id="p19w103" />
<path d="M321.52 751.67l33.44 0l0 15.09l-33.44 0Z" id="p19w104" />
<path d="M358.57 751.67l27.82 0l0 15.09l-27.82 0Z" id="p19w105" />
<path d="M390.01 751.67l10.42 0l0 15.09l-10.42 0Z" id="p19w106" />
<path d="M404.04 751.67l64.8 0l0 15.09l-64.8 0Z" id="p19w107" />
<path d="M143.75 789.43l50.53 0l0 14.52l-50.53 0Z" id="p19w108" />
<path d="M197.49 789.43l9.89 0l0 14.52l-9.89 0Z" id="p19w109" />
<path d="M210.58 789.43l28.33 0l0 14.52l-28.33 0Z" id="p19w110" />
<path d="M242.11 789.43l13.9 0l0 14.52l-13.9 0Z" id="p19w111" />
<path d="M259.22 789.43l30.74 0l0 14.52l-30.74 0Z" id="p19w112" />
<path d="M143.75 806.1l39.28 0l0 14.52l-39.28 0Z" id="p19w113" />
<path d="M186.24 806.1l15.5 0l0 14.52l-15.5 0Z" id="p19w114" />
<path d="M204.95 806.1l36.88 0l0 14.52l-36.88 0Z" id="p19w115" />
<path d="M245.03 806.1l29.66 0l0 14.52l-29.66 0Z" id="p19w116" />
<path d="M277.9 806.1l68.68 0l0 14.52l-68.68 0Z" id="p19w117" />
<path d="M359.67 806.1l56.92 0l0 14.52l-56.92 0Z" id="p19w118" />
<path d="M419.79 806.1l13.91 0l0 14.52l-13.91 0Z" id="p19w119" />
<path d="M436.91 806.1l13.63 0l0 14.52l-13.63 0Z" id="p19w120" />
<path d="M453.75 806.1l31.8 0l0 14.52l-31.8 0Z" id="p19w121" />
<path d="M488.76 806.1l50.26 0l0 14.52l-50.26 0Z" id="p19w122" />
<path d="M542.23 806.1l11.22 0l0 14.52l-11.22 0Z" id="p19w123" />
<path d="M556.66 806.1l30.74 0l0 14.52l-30.74 0Z" id="p19w124" />
<path d="M587.4 806.1l12.57 0l0 14.52l-12.57 0Z" id="p19w125" />
<path d="M603.17 806.1l28.87 0l0 14.52l-28.87 0Z" id="p19w126" />
<path d="M635.24 806.1l31.84 0l0 14.52l-31.84 0Z" id="p19w127" />
<path d="M166.94 835.49l45.29 0l0 15.09l-45.29 0Z" id="p19w128" />
<path d="M215.84 835.49l13.91 0l0 15.09l-13.91 0Z" id="p19w129" />
<path d="M233.36 835.49l10.42 0l0 15.09l-10.42 0Z" id="p19w130" />
<path d="M247.39 835.49l65.2 0l0 15.09l-65.2 0Z" id="p19w131" />
<path d="M316.2 835.49l22.31 0l0 15.09l-22.31 0Z" id="p19w132" />
<path d="M342.12 835.49l32.43 0l0 15.09l-32.43 0Z" id="p19w133" />
<path d="M378.16 835.49l28.26 0l0 15.09l-28.26 0Z" id="p19w134" />
<path d="M429.39 835.49l59.9 0l0 15.09l-59.9 0Z" id="p19w135" />
<path d="M492.91 835.49l50.25 0l0 15.09l-50.25 0Z" id="p19w136" />
<path d="M546.77 835.49l28.26 0l0 15.09l-28.26 0Z" id="p19w137" />
<path d="M598 835.49l36.45 0l0 15.09l-36.45 0Z" id="p19w138" />
<path d="M638.06 835.49l22.31 0l0 15.09l-22.31 0Z" id="p19w139" />
<path d="M154.66 852.16l31.13 0l0 15.09l-31.13 0Z" id="p19w140" />
<path d="M189.4 852.16l38.99 0l0 15.09l-38.99 0Z" id="p19w141" />
<path d="M232.01 852.16l13.91 0l0 15.09l-13.91 0Z" id="p19w142" />
<path d="M249.52 852.16l10.42 0l0 15.09l-10.42 0Z" id="p19w143" />
<path d="M263.56 852.16l65.2 0l0 15.09l-65.2 0Z" id="p19w144" />
<path d="M332.37 852.16l24.6 0l0 15.09l-24.6 0Z" id="p19w145" />
<path d="M360.58 852.16l28.26 0l0 15.09l-28.26 0Z" id="p19w146" />
<path d="M392.45 852.16l50.82 0l0 15.09l-50.82 0Z" id="p19w147" />
<path d="M446.88 852.16l14.59 0l0 15.09l-14.59 0Z" id="p19w148" />
<path d="M465.08 852.16l26.99 0l0 15.09l-26.99 0Z" id="p19w149" />
<path d="M495.68 852.16l13.91 0l0 15.09l-13.91 0Z" id="p19w150" />
<path d="M513.19 852.16l10.42 0l0 15.09l-10.42 0Z" id="p19w151" />
<path d="M527.23 852.16l27.45 0l0 15.09l-27.45 0Z" id="p19w152" />
<path d="M558.29 852.16l46.41 0l0 15.09l-46.41 0Z" id="p19w153" />
<path d="M154.67 868.84l18.08 0l0 15.09l-18.08 0Z" id="p19w154" />
<path d="M176.36 868.84l19.46 0l0 15.09l-19.46 0Z" id="p19w155" />
<path d="M199.43 868.84l23.21 0l0 15.09l-23.21 0Z" id="p19w156" />
<path d="M226.25 868.84l48.71 0l0 15.09l-48.71 0Z" id="p19w157" />
<path d="M278.57 868.84l32.12 0l0 15.09l-32.12 0Z" id="p19w158" />
<path d="M314.3 868.84l33.81 0l0 15.09l-33.81 0Z" id="p19w159" />
<path d="M371.08 868.84l43.99 0l0 15.09l-43.99 0Z" id="p19w160" />
<path d="M418.69 868.84l43.83 0l0 15.09l-43.83 0Z" id="p19w161" />
<path d="M476.23 868.84l28.56 0l0 15.09l-28.56 0Z" id="p19w162" />
<path d="M508.39 868.84l47.39 0l0 15.09l-47.39 0Z" id="p19w163" />
<path d="M559.39 868.84l28.26 0l0 15.09l-28.26 0Z" id="p19w164" />
<path d="M610.62 868.84l63.19 0l0 15.09l-63.19 0Z" id="p19w165" />
<path d="M154.66 885.51l10.42 0l0 15.09l-10.42 0Z" id="p19w166" />
<path d="M168.7 885.51l33.48 0l0 15.09l-33.48 0Z" id="p19w167" />
<path d="M205.79 885.51l42.19 0l0 15.09l-42.19 0Z" id="p19w168" />
<path d="M251.59 885.51l23.76 0l0 15.09l-23.76 0Z" id="p19w169" />
<path d="M286.99 885.51l26.63 0l0 15.09l-26.63 0Z" id="p19w170" />
<path d="M317.23 885.51l25.69 0l0 15.09l-25.69 0Z" id="p19w171" />
<path d="M346.53 885.51l15.89 0l0 15.09l-15.89 0Z" id="p19w172" />
<path d="M366.03 885.51l51.81 0l0 15.09l-51.81 0Z" id="p19w173" />
<path d="M421.44 885.51l24.93 0l0 15.09l-24.93 0Z" id="p19w174" />
<path d="M449.99 885.51l15.89 0l0 15.09l-15.89 0Z" id="p19w175" />
<path d="M469.48 885.51l23.21 0l0 15.09l-23.21 0Z" id="p19w176" />
<path d="M496.31 885.51l27.16 0l0 15.09l-27.16 0Z" id="p19w177" />
<path d="M527.07 885.51l44.58 0l0 15.09l-44.58 0Z" id="p19w178" />
<path d="M575.27 885.51l10.54 0l0 15.09l-10.54 0Z" id="p19w179" />
<path d="M608.78 885.51l63.3 0l0 15.09l-63.3 0Z" id="p19w180" />
<path d="M154.67 902.18l24.37 0l0 15.09l-24.37 0Z" id="p19w181" />
<path d="M182.64 902.18l10.5 0l0 15.09l-10.5 0Z" id="p19w182" />
<path d="M196.76 902.18l60.56 0l0 15.09l-60.56 0Z" id="p19w183" />
<path d="M260.93 902.18l74.79 0l0 15.09l-74.79 0Z" id="p19w184" />
<path d="M339.32 902.18l15.15 0l0 15.09l-15.15 0Z" id="p19w185" />
<path d="M377.45 902.18l33.88 0l0 15.09l-33.88 0Z" id="p19w186" />
<path d="M414.94 902.18l15.74 0l0 15.09l-15.74 0Z" id="p19w187" />
<path d="M434.29 902.18l18.26 0l0 15.09l-18.26 0Z" id="p19w188" />
<path d="M456.16 902.18l13.91 0l0 15.09l-13.91 0Z" id="p19w189" />
<path d="M473.68 902.18l28.13 0l0 15.09l-28.13 0Z" id="p19w190" />
<path d="M505.43 902.18l27.23 0l0 15.09l-27.23 0Z" id="p19w191" />
<path d="M536.27 902.18l10.5 0l0 15.09l-10.5 0Z" id="p19w192" />
<path d="M550.38 902.18l47.53 0l0 15.09l-47.53 0Z" id="p19w193" />
<path d="M601.52 902.18l58.71 0l0 15.09l-58.71 0Z" id="p19w194" />
<path d="M154.67 918.85l29.29 0l0 15.09l-29.29 0Z" id="p19w195" />
<path d="M187.57 918.85l27.18 0l0 15.09l-27.18 0Z" id="p19w196" />
<path d="M218.36 918.85l44.84 0l0 15.09l-44.84 0Z" id="p19w197" />
<path d="M266.82 918.85l7.84 0l0 15.09l-7.84 0Z" id="p19w198" />
<path d="M307.93 918.86l36.45 0l0 15.09l-36.45 0Z" id="p19w199" />
<path d="M347.99 918.86l39.96 0l0 15.09l-39.96 0Z" id="p19w200" />
<path d="M391.56 918.86l27.81 0l0 15.09l-27.81 0Z" id="p19w201" />
<path d="M422.98 918.86l27.82 0l0 15.09l-27.82 0Z" id="p19w202" />
<path d="M454.42 918.86l22.31 0l0 15.09l-22.31 0Z" id="p19w203" />
<path d="M480.34 918.86l24.52 0l0 15.09l-24.52 0Z" id="p19w204" />
<path d="M508.47 918.86l7.84 0l0 15.09l-7.84 0Z" id="p19w205" />
<path d="M539.29 918.86l18.08 0l0 15.09l-18.08 0Z" id="p19w206" />
<path d="M560.98 918.86l19.46 0l0 15.09l-19.46 0Z" id="p19w207" />
<path d="M584.05 918.86l26.89 0l0 15.09l-26.89 0Z" id="p19w208" />
<path d="M614.55 918.86l10.5 0l0 15.09l-10.5 0Z" id="p19w209" />
<path d="M628.66 918.86l22.89 0l0 15.09l-22.89 0Z" id="p19w210" />
<path d="M154.66 935.53l29.83 0l0 15.09l-29.83 0Z" id="p19w211" />
<path d="M207.47 935.53l43.79 0l0 15.09l-43.79 0Z" id="p19w212" />
<path d="M254.87 935.53l22.31 0l0 15.09l-22.31 0Z" id="p19w213" />
<path d="M280.79 935.53l45.37 0l0 15.09l-45.37 0Z" id="p19w214" />
<path d="M329.77 935.53l32.64 0l0 15.09l-32.64 0Z" id="p19w215" />
<path d="M52.74 116.02l21.54 0l0 12.3l-21.54 0Z" id="p19w216" />
<path d="M142.88 337.78l12.03 0l0 14.52l-12.03 0Z" id="p19w217" />
<path d="M158.09 337.78l53.46 0l0 14.52l-53.46 0Z" id="p19w218" />
<path d="M214.72 337.78l26.2 0l0 14.52l-26.2 0Z" id="p19w219" />
<path d="M244.09 337.78l9.66 0l0 14.52l-9.66 0Z" id="p19w220" />
<path d="M256.93 337.78l34.8 0l0 14.52l-34.8 0Z" id="p19w221" />
<path d="M128.98 354.45l33.75 0l0 14.52l-33.75 0Z" id="p19w222" />
<path d="M170.84 354.45l35.52 0l0 14.52l-35.52 0Z" id="p19w223" />
<path d="M214.46 354.45l26.93 0l0 14.52l-26.93 0Z" id="p19w224" />
<path d="M244.57 354.45l9.66 0l0 14.52l-9.66 0Z" id="p19w225" />
<path d="M257.46 354.45l32.93 0l0 14.52l-32.93 0ZM128.98 371.12l47.97 0l0 14.52l-47.97 0Z" id="p19w226" />
<path d="M180.13 371.12l13.63 0l0 14.52l-13.63 0Z" id="p19w227" />
<path d="M196.93 371.12l30.71 0l0 14.52l-30.71 0Z" id="p19w228" />
<path d="M143.69 562.86l28.06 0l0 14.52l-28.06 0Z" id="p19w229" />
<path d="M180 562.86l22.44 0l0 14.52l-22.44 0Z" id="p19w230" />
<path d="M210.69 562.86l47.5 0l0 14.52l-47.5 0Z" id="p19w231" />
<path d="M128.98 579.54l48.65 0l0 14.52l-48.65 0Z" id="p19w232" />
<path d="M185.89 579.54l14.18 0l0 14.52l-14.18 0Z" id="p19w233" />
<path d="M203.27 579.54l40.1 0l0 14.52l-40.1 0Z" id="p19w234" />
<path d="M128.98 596.21l20.85 0l0 14.52l-20.85 0Z" id="p19w235" />
<path d="M158.09 596.21l12.29 0l0 14.52l-12.29 0Z" id="p19w236" />
<path d="M173.59 596.21l65.06 0l0 14.52l-65.06 0Z" id="p19w237" />
<path d="M345.21 337.78l22.44 0l0 14.52l-22.44 0Z" id="p19w238" />
<path d="M375.89 337.78l59.07 0l0 14.52l-59.07 0Z" id="p19w239" />
<path d="M443.21 337.78l42.24 0l0 14.52l-42.24 0Z" id="p19w240" />
<path d="M330.5 354.45l9.89 0l0 14.52l-9.89 0Z" id="p19w241" />
<path d="M343.6 354.45l31.22 0l0 14.52l-31.22 0Z" id="p19w242" />
<path d="M387.64 354.45l47.04 0l0 14.52l-47.04 0Z" id="p19w243" />
<path d="M437.89 354.45l13.9 0l0 14.52l-13.9 0Z" id="p19w244" />
<path d="M455 354.45l23.79 0l0 14.52l-23.79 0Z" id="p19w245" />
<path d="M330.5 371.12l38.23 0l0 14.52l-38.23 0Z" id="p19w246" />
<path d="M344.67 562.86l43.23 0l0 14.52l-43.23 0Z" id="p19w247" />
<path d="M396.14 562.86l26.98 0l0 14.52l-26.98 0Z" id="p19w248" />
<path d="M426.33 562.86l7.48 0l0 14.52l-7.48 0Z" id="p19w249" />
<path d="M433.81 562.86l38.21 0l0 14.52l-38.21 0Z" id="p19w250" />
<path d="M330.5 579.54l35.29 0l0 14.52l-35.29 0Z" id="p19w251" />
<path d="M369.01 579.54l54.53 0l0 14.52l-54.53 0Z" id="p19w252" />
<path d="M436.36 579.54l9.89 0l0 14.52l-9.89 0Z" id="p19w253" />
<path d="M449.46 579.54l27.27 0l0 14.52l-27.27 0Z" id="p19w254" />
<path d="M330.5 596.21l40.89 0l0 14.52l-40.89 0Z" id="p19w255" />
<path d="M545.39 337.78l25.38 0l0 14.52l-25.38 0Z" id="p19w256" />
<path d="M579.02 337.78l66.22 0l0 14.52l-66.22 0Z" id="p19w257" />
<path d="M532.02 354.45l45.43 0l0 14.52l-45.43 0Z" id="p19w258" />
<path d="M580.66 354.45l32.89 0l0 14.52l-32.89 0Z" id="p19w259" />
<path d="M621.8 354.45l40.89 0l0 14.52l-40.89 0Z" id="p19w260" />
<path d="M532.02 371.12l26.73 0l0 14.52l-26.73 0Z" id="p19w261" />
<path d="M561.96 371.12l25.4 0l0 14.52l-25.4 0Z" id="p19w262" />
<path d="M543.78 562.86l22.44 0l0 14.52l-22.44 0Z" id="p19w263" />
<path d="M574.47 562.86l49.18 0l0 14.52l-49.18 0Z" id="p19w264" />
<path d="M631.9 562.86l42.24 0l0 14.52l-42.24 0Z" id="p19w265" />
<path d="M532.02 579.54l47.58 0l0 14.52l-47.58 0Z" id="p19w266" />
<path d="M592.43 579.54l58.8 0l0 14.52l-58.8 0Z" id="p19w267" />
<path d="M654.01 579.54l37.7 0l0 14.52l-37.7 0Z" id="p19w268" />
<path d="M532.02 596.21l34.2 0l0 14.52l-34.2 0Z" id="p19w269" />
<path d="M574.47 596.21l24.85 0l0 14.52l-24.85 0Z" id="p19w270" />
<path d="M68.27 39.02l42.71 0l0 15.38l-42.71 0Z" id="p19w271" />
<path d="M152.94 38.6l45.75 0l0 16.09l-45.75 0Z" id="p19w272" />
<path d="M250.71 39.02l43.21 0l0 15.38l-43.21 0Z" id="p19w273" />
<path d="M349.96 39.02l32.54 0l0 15.38l-32.54 0Z" id="p19w274" />
<path d="M654.03 983l37.07 0l0 12.23l-37.07 0Z" id="p19w275" />
</svg>
