<?xml version="1.0" encoding="UTF-8"?>
<svg xmlns="http://www.w3.org/2000/svg" xmlns:xlink="http://www.w3.org/1999/xlink" version="1.1" baseProfile="full" width="768" height="1024" viewBox="0,0,768,1024" preserveAspectRatio="xMinYMin meet" >
<style type="text/css">
<![CDATA[
path {fill-opacity: 0.5;fill: #00aeef;visibility: hidden;}
]]>
</style>
<path d="M76.9 983.66l91.39 0l0 12.23l-91.39 0Z" id="p262w1" />
<path d="M124.06 38.6l77.83 0l0 16.09l-77.83 0Z" id="p262w2" />
<path d="M124.06 112.51l14.41 0l0 12.23l-14.41 0Z" id="p262w3" />
<path d="M141.17 112.45l33.88 0l0 12.29l-33.88 0Z" id="p262w4" />
<path d="M177.75 112.51l11.94 0l0 12.23l-11.94 0Z" id="p262w5" />
<path d="M192.39 112.51l27.46 0l0 12.23l-27.46 0Z" id="p262w6" />
<path d="M222.55 112.26l18.92 0l0 12.56l-18.92 0Z" id="p262w7" />
<path d="M124.06 127.79l20.03 0l0 12.23l-20.03 0Z" id="p262w8" />
<path d="M146.79 127.74l34.58 0l0 12.29l-34.58 0Z" id="p262w9" />
<path d="M184.07 127.79l17.56 0l0 12.23l-17.56 0Z" id="p262w10" />
<path d="M204.34 127.79l40.08 0l0 12.23l-40.08 0Z" id="p262w11" />
<path d="M247.12 127.55l18.01 0l0 12.56l-18.01 0Z" id="p262w12" />
<path d="M124.06 143.08l14.41 0l0 12.23l-14.41 0Z" id="p262w13" />
<path d="M141.17 143.02l36.29 0l0 12.29l-36.29 0Z" id="p262w14" />
<path d="M180.16 143.08l11.94 0l0 12.23l-11.94 0Z" id="p262w15" />
<path d="M194.8 143.08l21.62 0l0 12.23l-21.62 0Z" id="p262w16" />
<path d="M219.12 143.08l20.49 0l0 12.23l-20.49 0Z" id="p262w17" />
<path d="M242.31 143.05l21.86 0l0 12.23l-21.86 0Z" id="p262w18" />
<path d="M266.87 142.83l14.43 0l0 12.56l-14.43 0Z" id="p262w19" />
<path d="M124.06 158.36l16.43 0l0 12.23l-16.43 0Z" id="p262w20" />
<path d="M143.19 158.3l44.73 0l0 12.29l-44.73 0Z" id="p262w21" />
<path d="M190.62 158.36l8.33 0l0 12.23l-8.33 0Z" id="p262w22" />
<path d="M201.65 158.36l28.38 0l0 12.23l-28.38 0Z" id="p262w23" />
<path d="M232.72 158.11l19.58 0l0 12.56l-19.58 0Z" id="p262w24" />
<path d="M124.06 173.64l14.41 0l0 12.23l-14.41 0Z" id="p262w25" />
<path d="M141.17 173.59l20.59 0l0 12.29l-20.59 0Z" id="p262w26" />
<path d="M164.45 173.62l25.65 0l0 12.23l-25.65 0Z" id="p262w27" />
<path d="M192.81 173.64l11.94 0l0 12.23l-11.94 0Z" id="p262w28" />
<path d="M207.45 173.64l17.34 0l0 12.23l-17.34 0Z" id="p262w29" />
<path d="M227.49 173.62l27.91 0l0 12.23l-27.91 0Z" id="p262w30" />
<path d="M258.1 173.4l14.79 0l0 12.56l-14.79 0Z" id="p262w31" />
<path d="M124.06 188.93l20.03 0l0 12.23l-20.03 0Z" id="p262w32" />
<path d="M146.79 188.87l44.54 0l0 12.29l-44.54 0Z" id="p262w33" />
<path d="M194.03 188.93l17.56 0l0 12.23l-17.56 0Z" id="p262w34" />
<path d="M214.29 188.93l43.89 0l0 12.23l-43.89 0Z" id="p262w35" />
<path d="M260.89 188.68l14.63 0l0 12.56l-14.63 0Z" id="p262w36" />
<path d="M124.06 242.42l14.41 0l0 12.23l-14.41 0Z" id="p262w37" />
<path d="M141.17 242.36l37.62 0l0 12.29l-37.62 0Z" id="p262w38" />
<path d="M181.49 242.42l8.33 0l0 12.23l-8.33 0Z" id="p262w39" />
<path d="M192.52 242.42l32.41 0l0 12.23l-32.41 0Z" id="p262w40" />
<path d="M227.63 242.17l18.92 0l0 12.56l-18.92 0Z" id="p262w41" />
<path d="M124.06 257.7l14.41 0l0 12.23l-14.41 0Z" id="p262w42" />
<path d="M141.17 257.65l44.31 0l0 12.29l-44.31 0Z" id="p262w43" />
<path d="M185.47 257.7l24.2 0l0 12.23l-24.2 0Z" id="p262w44" />
<path d="M212.37 257.65l53.2 0l0 12.29l-53.2 0Z" id="p262w45" />
<path d="M268.27 257.7l11.94 0l0 12.23l-11.94 0Z" id="p262w46" />
<path d="M133.91 272.98l70.36 0l0 12.23l-70.36 0Z" id="p262w47" />
<path d="M206.97 272.98l54.25 0l0 12.23l-54.25 0Z" id="p262w48" />
<path d="M263.92 272.74l18.92 0l0 12.56l-18.92 0Z" id="p262w49" />
<path d="M124.06 288.27l20.03 0l0 12.23l-20.03 0Z" id="p262w50" />
<path d="M146.79 288.21l29.71 0l0 12.29l-29.71 0Z" id="p262w51" />
<path d="M179.2 288.27l17.56 0l0 12.23l-17.56 0Z" id="p262w52" />
<path d="M199.47 288.27l30.84 0l0 12.23l-30.84 0Z" id="p262w53" />
<path d="M233.01 288.02l18.92 0l0 12.56l-18.92 0Z" id="p262w54" />
<path d="M124.06 341.76l14.85 0l0 12.23l-14.85 0Z" id="p262w55" />
<path d="M141.61 341.7l29.7 0l0 12.29l-29.7 0Z" id="p262w56" />
<path d="M174.01 341.76l11.48 0l0 12.23l-11.48 0Z" id="p262w57" />
<path d="M188.2 341.76l21.62 0l0 12.23l-21.62 0Z" id="p262w58" />
<path d="M212.52 341.76l11.7 0l0 12.23l-11.7 0Z" id="p262w59" />
<path d="M226.92 341.76l11.04 0l0 12.23l-11.04 0Z" id="p262w60" />
<path d="M240.66 341.51l17.26 0l0 12.56l-17.26 0Z" id="p262w61" />
<path d="M124.06 357.04l14.41 0l0 12.23l-14.41 0Z" id="p262w62" />
<path d="M141.17 356.99l15.88 0l0 12.29l-15.88 0Z" id="p262w63" />
<path d="M159.75 357.04l11.94 0l0 12.23l-11.94 0Z" id="p262w64" />
<path d="M174.39 357.04l32.65 0l0 12.23l-32.65 0Z" id="p262w65" />
<path d="M209.74 356.8l18.92 0l0 12.56l-18.92 0Z" id="p262w66" />
<path d="M124.06 372.33l14.41 0l0 12.23l-14.41 0Z" id="p262w67" />
<path d="M141.17 372.27l45.74 0l0 12.29l-45.74 0Z" id="p262w68" />
<path d="M189.61 372.33l11.94 0l0 12.23l-11.94 0Z" id="p262w69" />
<path d="M204.25 372.33l32.65 0l0 12.23l-32.65 0Z" id="p262w70" />
<path d="M239.59 372.08l18.92 0l0 12.56l-18.92 0Z" id="p262w71" />
<path d="M124.06 387.61l14.41 0l0 12.23l-14.41 0Z" id="p262w72" />
<path d="M141.17 387.55l23.99 0l0 12.29l-23.99 0Z" id="p262w73" />
<path d="M167.86 387.61l11.94 0l0 12.23l-11.94 0Z" id="p262w74" />
<path d="M182.49 387.61l13.74 0l0 12.23l-13.74 0Z" id="p262w75" />
<path d="M198.93 387.37l19.58 0l0 12.56l-19.58 0Z" id="p262w76" />
<path d="M124.06 402.89l14.41 0l0 12.23l-14.41 0Z" id="p262w77" />
<path d="M141.17 402.84l36.71 0l0 12.29l-36.71 0Z" id="p262w78" />
<path d="M180.58 402.89l8.33 0l0 12.23l-8.33 0Z" id="p262w79" />
<path d="M191.61 402.89l29.92 0l0 12.23l-29.92 0Z" id="p262w80" />
<path d="M224.23 402.65l18.17 0l0 12.56l-18.17 0Z" id="p262w81" />
<path d="M124.06 418.18l20.03 0l0 12.23l-20.03 0Z" id="p262w82" />
<path d="M146.79 418.12l46.63 0l0 12.29l-46.63 0Z" id="p262w83" />
<path d="M196.12 418.18l17.56 0l0 12.23l-17.56 0Z" id="p262w84" />
<path d="M216.38 418.18l33.31 0l0 12.23l-33.31 0Z" id="p262w85" />
<path d="M252.4 417.93l18.72 0l0 12.56l-18.72 0Z" id="p262w86" />
<path d="M124.06 433.4l26.57 0l0 12.29l-26.57 0Z" id="p262w87" />
<path d="M153.33 433.46l29.49 0l0 12.23l-29.49 0Z" id="p262w88" />
<path d="M185.52 433.46l23.19 0l0 12.23l-23.19 0Z" id="p262w89" />
<path d="M211.4 433.46l28.59 0l0 12.23l-28.59 0Z" id="p262w90" />
<path d="M242.69 433.22l15.54 0l0 12.56l-15.54 0Z" id="p262w91" />
<path d="M124.06 448.74l16.43 0l0 12.23l-16.43 0Z" id="p262w92" />
<path d="M143.19 448.69l26.57 0l0 12.29l-26.57 0Z" id="p262w93" />
<path d="M172.46 448.74l31.75 0l0 12.23l-31.75 0Z" id="p262w94" />
<path d="M206.9 448.74l19.44 0l0 12.23l-19.44 0Z" id="p262w95" />
<path d="M229.04 448.74l10.82 0l0 12.23l-10.82 0Z" id="p262w96" />
<path d="M242.56 448.74l15.76 0l0 12.23l-15.76 0Z" id="p262w97" />
<path d="M261.02 448.74l23.19 0l0 12.23l-23.19 0Z" id="p262w98" />
<path d="M286.91 448.74l8.33 0l0 12.23l-8.33 0Z" id="p262w99" />
<path d="M133.91 464.03l22.06 0l0 12.23l-22.06 0Z" id="p262w100" />
<path d="M158.67 464.03l11.7 0l0 12.23l-11.7 0Z" id="p262w101" />
<path d="M173.08 464.03l21.37 0l0 12.23l-21.37 0Z" id="p262w102" />
<path d="M197.16 464.03l11.04 0l0 12.23l-11.04 0Z" id="p262w103" />
<path d="M210.89 463.78l18.92 0l0 12.56l-18.92 0Z" id="p262w104" />
<path d="M124.06 479.31l29.94 0l0 12.23l-29.94 0Z" id="p262w105" />
<path d="M156.71 479.25l28.92 0l0 12.29l-28.92 0Z" id="p262w106" />
<path d="M196.66 479.31l27.69 0l0 12.23l-27.69 0Z" id="p262w107" />
<path d="M227.05 479.07l15.54 0l0 12.56l-15.54 0Z" id="p262w108" />
<path d="M124.06 494.59l16.43 0l0 12.23l-16.43 0Z" id="p262w109" />
<path d="M143.19 494.54l43.81 0l0 12.29l-43.81 0Z" id="p262w110" />
<path d="M189.7 494.59l8.33 0l0 12.23l-8.33 0Z" id="p262w111" />
<path d="M200.72 494.59l44.29 0l0 12.23l-44.29 0Z" id="p262w112" />
<path d="M247.72 494.35l18.92 0l0 12.56l-18.92 0Z" id="p262w113" />
<path d="M124.06 509.88l14.41 0l0 12.23l-14.41 0Z" id="p262w114" />
<path d="M141.17 509.82l48.71 0l0 12.29l-48.71 0Z" id="p262w115" />
<path d="M189.87 509.88l24.2 0l0 12.23l-24.2 0Z" id="p262w116" />
<path d="M216.77 509.82l57.6 0l0 12.29l-57.6 0Z" id="p262w117" />
<path d="M277.07 509.88l11.94 0l0 12.23l-11.94 0Z" id="p262w118" />
<path d="M133.91 525.16l66.97 0l0 12.23l-66.97 0Z" id="p262w119" />
<path d="M203.58 525.16l47.04 0l0 12.23l-47.04 0Z" id="p262w120" />
<path d="M253.32 524.92l17.26 0l0 12.56l-17.26 0Z" id="p262w121" />
<path d="M124.06 540.44l14.41 0l0 12.23l-14.41 0Z" id="p262w122" />
<path d="M141.17 540.39l47.95 0l0 12.29l-47.95 0Z" id="p262w123" />
<path d="M191.82 540.44l8.33 0l0 12.23l-8.33 0Z" id="p262w124" />
<path d="M202.85 540.44l44.57 0l0 12.23l-44.57 0Z" id="p262w125" />
<path d="M250.12 540.2l18.92 0l0 12.56l-18.92 0Z" id="p262w126" />
<path d="M124.06 555.67l37.47 0l0 12.29l-37.47 0Z" id="p262w127" />
<path d="M164.23 555.73l73.88 0l0 12.23l-73.88 0Z" id="p262w128" />
<path d="M240.82 555.48l18.92 0l0 12.56l-18.92 0Z" id="p262w129" />
<path d="M124.06 571.01l14.41 0l0 12.23l-14.41 0Z" id="p262w130" />
<path d="M141.17 570.96l18.58 0l0 12.29l-18.58 0Z" id="p262w131" />
<path d="M159.75 570.96l10.88 0l0 12.29l-10.88 0Z" id="p262w132" />
<path d="M173.34 571.01l11.94 0l0 12.23l-11.94 0Z" id="p262w133" />
<path d="M187.97 571.01l15.75 0l0 12.23l-15.75 0Z" id="p262w134" />
<path d="M203.72 571.01l16.21 0l0 12.23l-16.21 0Z" id="p262w135" />
<path d="M222.63 570.77l18.92 0l0 12.56l-18.92 0Z" id="p262w136" />
<path d="M124.06 586.24l53.71 0l0 12.29l-53.71 0Z" id="p262w137" />
<path d="M180.47 586.29l82.15 0l0 12.23l-82.15 0Z" id="p262w138" />
<path d="M265.32 586.05l18.01 0l0 12.56l-18.01 0Z" id="p262w139" />
<path d="M124.06 601.58l19.44 0l0 12.23l-19.44 0Z" id="p262w140" />
<path d="M146.2 601.52l29.84 0l0 12.29l-29.84 0Z" id="p262w141" />
<path d="M178.75 601.58l27.62 0l0 12.23l-27.62 0Z" id="p262w142" />
<path d="M209.07 601.58l11.04 0l0 12.23l-11.04 0Z" id="p262w143" />
<path d="M222.81 601.33l18.92 0l0 12.56l-18.92 0Z" id="p262w144" />
<path d="M124.06 616.86l15.53 0l0 12.23l-15.53 0Z" id="p262w145" />
<path d="M142.29 616.81l29.51 0l0 12.29l-29.51 0Z" id="p262w146" />
<path d="M174.5 616.86l8.33 0l0 12.23l-8.33 0Z" id="p262w147" />
<path d="M185.53 616.86l22.96 0l0 12.23l-22.96 0Z" id="p262w148" />
<path d="M211.19 616.62l15.54 0l0 12.56l-15.54 0Z" id="p262w149" />
<path d="M124.06 632.14l14.41 0l0 12.23l-14.41 0Z" id="p262w150" />
<path d="M141.17 632.09l63.6 0l0 12.29l-63.6 0Z" id="p262w151" />
<path d="M204.77 632.14l24.2 0l0 12.23l-24.2 0Z" id="p262w152" />
<path d="M231.67 632.09l72.49 0l0 12.29l-72.49 0Z" id="p262w153" />
<path d="M133.91 647.43l11.94 0l0 12.23l-11.94 0Z" id="p262w154" />
<path d="M148.55 647.43l71.68 0l0 12.23l-71.68 0Z" id="p262w155" />
<path d="M222.93 647.43l51.75 0l0 12.23l-51.75 0Z" id="p262w156" />
<path d="M277.38 647.18l14.41 0l0 12.56l-14.41 0Z" id="p262w157" />
<path d="M124.06 662.71l10.58 0l0 12.23l-10.58 0Z" id="p262w158" />
<path d="M137.34 662.66l30.98 0l0 12.29l-30.98 0Z" id="p262w159" />
<path d="M173.28 662.71l5.86 0l0 12.23l-5.86 0Z" id="p262w160" />
<path d="M181.84 662.71l26.34 0l0 12.23l-26.34 0Z" id="p262w161" />
<path d="M210.88 662.69l18.68 0l0 12.23l-18.68 0Z" id="p262w162" />
<path d="M229.57 662.69l22.5 0l0 12.23l-22.5 0Z" id="p262w163" />
<path d="M254.77 662.69l40.08 0l0 12.23l-40.08 0Z" id="p262w164" />
<path d="M133.91 677.75l15.54 0l0 12.56l-15.54 0Z" id="p262w165" />
<path d="M124.06 693.28l20.04 0l0 12.23l-20.04 0Z" id="p262w166" />
<path d="M146.8 693.28l19.44 0l0 12.23l-19.44 0Z" id="p262w167" />
<path d="M168.94 693.22l34.66 0l0 12.29l-34.66 0Z" id="p262w168" />
<path d="M206.3 693.28l30.6 0l0 12.23l-30.6 0Z" id="p262w169" />
<path d="M239.6 693.28l11.04 0l0 12.23l-11.04 0Z" id="p262w170" />
<path d="M261.67 693.28l12.16 0l0 12.23l-12.16 0Z" id="p262w171" />
<path d="M276.53 693.03l18.17 0l0 12.56l-18.17 0Z" id="p262w172" />
<path d="M124.06 708.56l20.03 0l0 12.23l-20.03 0Z" id="p262w173" />
<path d="M146.79 708.51l25.2 0l0 12.29l-25.2 0Z" id="p262w174" />
<path d="M174.69 708.56l11.94 0l0 12.23l-11.94 0Z" id="p262w175" />
<path d="M189.33 708.56l33.27 0l0 12.23l-33.27 0Z" id="p262w176" />
<path d="M225.3 708.32l15.54 0l0 12.56l-15.54 0Z" id="p262w177" />
<path d="M124.06 723.84l14.41 0l0 12.23l-14.41 0Z" id="p262w178" />
<path d="M141.17 723.79l42.08 0l0 12.29l-42.08 0Z" id="p262w179" />
<path d="M185.95 723.84l11.94 0l0 12.23l-11.94 0Z" id="p262w180" />
<path d="M200.59 723.84l42.77 0l0 12.23l-42.77 0Z" id="p262w181" />
<path d="M246.06 723.6l15.54 0l0 12.56l-15.54 0Z" id="p262w182" />
<path d="M124.06 739.13l14.41 0l0 12.23l-14.41 0Z" id="p262w183" />
<path d="M141.17 739.07l54.3 0l0 12.29l-54.3 0Z" id="p262w184" />
<path d="M198.17 739.11l30.38 0l0 12.23l-30.38 0Z" id="p262w185" />
<path d="M231.24 739.13l11.94 0l0 12.23l-11.94 0Z" id="p262w186" />
<path d="M245.88 739.13l26.29 0l0 12.23l-26.29 0Z" id="p262w187" />
<path d="M133.91 754.41l50.87 0l0 12.23l-50.87 0Z" id="p262w188" />
<path d="M187.48 754.17l18.01 0l0 12.56l-18.01 0Z" id="p262w189" />
<path d="M124.06 769.7l14.41 0l0 12.23l-14.41 0Z" id="p262w190" />
<path d="M141.17 769.64l58.25 0l0 12.29l-58.25 0Z" id="p262w191" />
<path d="M202.12 769.7l11.94 0l0 12.23l-11.94 0Z" id="p262w192" />
<path d="M216.76 769.7l29.93 0l0 12.23l-29.93 0Z" id="p262w193" />
<path d="M249.4 769.7l11.7 0l0 12.23l-11.7 0Z" id="p262w194" />
<path d="M263.8 769.7l21.62 0l0 12.23l-21.62 0Z" id="p262w195" />
<path d="M133.91 784.73l15.54 0l0 12.56l-15.54 0Z" id="p262w196" />
<path d="M124.06 800.26l14.41 0l0 12.23l-14.41 0Z" id="p262w197" />
<path d="M141.17 800.21l49.92 0l0 12.29l-49.92 0Z" id="p262w198" />
<path d="M191.09 800.26l24.2 0l0 12.23l-24.2 0Z" id="p262w199" />
<path d="M217.99 800.21l58.81 0l0 12.29l-58.81 0Z" id="p262w200" />
<path d="M279.5 800.26l11.94 0l0 12.23l-11.94 0Z" id="p262w201" />
<path d="M133.91 815.55l48.02 0l0 12.23l-48.02 0Z" id="p262w202" />
<path d="M184.63 815.55l26.29 0l0 12.23l-26.29 0Z" id="p262w203" />
<path d="M213.62 815.3l14.63 0l0 12.56l-14.63 0Z" id="p262w204" />
<path d="M124.06 830.83l14.41 0l0 12.23l-14.41 0Z" id="p262w205" />
<path d="M140.95 830.83l42.49 0l0 12.23l-42.49 0Z" id="p262w206" />
<path d="M186.14 830.83l8.33 0l0 12.23l-8.33 0Z" id="p262w207" />
<path d="M197.17 830.83l40.53 0l0 12.23l-40.53 0Z" id="p262w208" />
<path d="M240.39 830.83l11.93 0l0 12.23l-11.93 0Z" id="p262w209" />
<path d="M255.02 830.83l18.02 0l0 12.23l-18.02 0Z" id="p262w210" />
<path d="M133.91 846.09l27.91 0l0 12.23l-27.91 0Z" id="p262w211" />
<path d="M168.12 845.87l17.81 0l0 12.56l-17.81 0Z" id="p262w212" />
<path d="M124.06 861.34l33.31 0l0 12.29l-33.31 0Z" id="p262w213" />
<path d="M160.07 861.4l27.02 0l0 12.23l-27.02 0Z" id="p262w214" />
<path d="M189.8 861.15l18.92 0l0 12.56l-18.92 0Z" id="p262w215" />
<path d="M124.06 876.68l14.41 0l0 12.23l-14.41 0Z" id="p262w216" />
<path d="M141.17 876.62l41.2 0l0 12.29l-41.2 0Z" id="p262w217" />
<path d="M182.37 876.68l24.2 0l0 12.23l-24.2 0Z" id="p262w218" />
<path d="M209.27 876.62l50.1 0l0 12.29l-50.1 0Z" id="p262w219" />
<path d="M262.07 876.68l11.94 0l0 12.23l-11.94 0Z" id="p262w220" />
<path d="M133.91 891.96l60.21 0l0 12.23l-60.21 0Z" id="p262w221" />
<path d="M196.82 891.96l38.48 0l0 12.23l-38.48 0Z" id="p262w222" />
<path d="M238 891.72l18.92 0l0 12.56l-18.92 0Z" id="p262w223" />
<path d="M124.06 907.25l14.41 0l0 12.23l-14.41 0Z" id="p262w224" />
<path d="M141.17 907.19l51.87 0l0 12.29l-51.87 0Z" id="p262w225" />
<path d="M195.74 907.25l11.94 0l0 12.23l-11.94 0Z" id="p262w226" />
<path d="M210.38 907.25l48.61 0l0 12.23l-48.61 0Z" id="p262w227" />
<path d="M261.69 907l14.63 0l0 12.56l-14.63 0Z" id="p262w228" />
<path d="M124.06 922.53l14.41 0l0 12.23l-14.41 0Z" id="p262w229" />
<path d="M141.17 922.47l32.35 0l0 12.29l-32.35 0Z" id="p262w230" />
<path d="M176.21 922.53l17.56 0l0 12.23l-17.56 0Z" id="p262w231" />
<path d="M196.48 922.53l33.3 0l0 12.23l-33.3 0Z" id="p262w232" />
<path d="M232.48 922.28l15.54 0l0 12.56l-15.54 0Z" id="p262w233" />
<path d="M335.43 112.51l20.04 0l0 12.23l-20.04 0Z" id="p262w234" />
<path d="M358.17 112.51l14.41 0l0 12.23l-14.41 0Z" id="p262w235" />
<path d="M375.28 112.51l32.27 0l0 12.23l-32.27 0Z" id="p262w236" />
<path d="M410.24 112.51l47.48 0l0 12.23l-47.48 0Z" id="p262w237" />
<path d="M460.43 112.51l21.37 0l0 12.23l-21.37 0Z" id="p262w238" />
<path d="M484.51 112.51l17.56 0l0 12.23l-17.56 0Z" id="p262w239" />
<path d="M335.43 127.79l55.84 0l0 12.23l-55.84 0Z" id="p262w240" />
<path d="M402.3 127.79l12.16 0l0 12.23l-12.16 0Z" id="p262w241" />
<path d="M417.16 127.55l18.92 0l0 12.56l-18.92 0Z" id="p262w242" />
<path d="M325.58 143.08l14.41 0l0 12.23l-14.41 0Z" id="p262w243" />
<path d="M342.69 143.02l32.35 0l0 12.29l-32.35 0Z" id="p262w244" />
<path d="M377.73 143.05l23.2 0l0 12.23l-23.2 0Z" id="p262w245" />
<path d="M403.63 143.05l22.46 0l0 12.23l-22.46 0Z" id="p262w246" />
<path d="M428.8 143.08l17.56 0l0 12.23l-17.56 0Z" id="p262w247" />
<path d="M449.06 143.08l55.84 0l0 12.23l-55.84 0Z" id="p262w248" />
<path d="M335.43 158.11l18.92 0l0 12.56l-18.92 0Z" id="p262w249" />
<path d="M325.58 173.64l20.03 0l0 12.23l-20.03 0Z" id="p262w250" />
<path d="M348.31 173.59l47.08 0l0 12.29l-47.08 0Z" id="p262w251" />
<path d="M398.1 173.64l17.56 0l0 12.23l-17.56 0Z" id="p262w252" />
<path d="M418.36 173.64l44.57 0l0 12.23l-44.57 0Z" id="p262w253" />
<path d="M465.63 173.4l18.72 0l0 12.56l-18.72 0Z" id="p262w254" />
<path d="M325.58 188.93l15.53 0l0 12.23l-15.53 0Z" id="p262w255" />
<path d="M343.81 188.87l47.54 0l0 12.29l-47.54 0Z" id="p262w256" />
<path d="M394.05 188.93l8.33 0l0 12.23l-8.33 0Z" id="p262w257" />
<path d="M405.08 188.93l33.53 0l0 12.23l-33.53 0Z" id="p262w258" />
<path d="M441.31 188.68l15.34 0l0 12.56l-15.34 0Z" id="p262w259" />
<path d="M325.58 204.15l30.04 0l0 12.29l-30.04 0Z" id="p262w260" />
<path d="M358.33 204.21l44.01 0l0 12.23l-44.01 0Z" id="p262w261" />
<path d="M405.03 203.96l15.34 0l0 12.56l-15.34 0Z" id="p262w262" />
<path d="M325.58 219.49l14.41 0l0 12.23l-14.41 0Z" id="p262w263" />
<path d="M342.69 219.44l41.68 0l0 12.29l-41.68 0Z" id="p262w264" />
<path d="M387.07 219.49l8.33 0l0 12.23l-8.33 0Z" id="p262w265" />
<path d="M398.1 219.49l41.65 0l0 12.23l-41.65 0Z" id="p262w266" />
<path d="M442.45 219.25l15.54 0l0 12.56l-15.54 0Z" id="p262w267" />
<path d="M335.43 234.78l8.78 0l0 12.23l-8.78 0Z" id="p262w268" />
<path d="M346.91 234.78l41.83 0l0 12.23l-41.83 0Z" id="p262w269" />
<path d="M391.44 234.78l11.7 0l0 12.23l-11.7 0Z" id="p262w270" />
<path d="M405.84 234.78l41.65 0l0 12.23l-41.65 0Z" id="p262w271" />
<path d="M450.19 234.78l11.7 0l0 12.23l-11.7 0Z" id="p262w272" />
<path d="M464.6 234.53l15.54 0l0 12.56l-15.54 0Z" id="p262w273" />
<path d="M325.58 250l34.47 0l0 12.29l-34.47 0ZM362.75 250.06l36.24 0l0 12.23l-36.24 0Z" id="p262w274" />
<path d="M401.69 249.81l18.92 0l0 12.56l-18.92 0Z" id="p262w275" />
<path d="M325.58 265.34l20.03 0l0 12.23l-20.03 0Z" id="p262w276" />
<path d="M348.31 265.29l57.65 0l0 12.29l-57.65 0Z" id="p262w277" />
<path d="M408.67 265.34l29.49 0l0 12.23l-29.49 0Z" id="p262w278" />
<path d="M440.86 265.32l25.65 0l0 12.23l-25.65 0Z" id="p262w279" />
<path d="M469.21 265.34l6.3 0l0 12.23l-6.3 0Z" id="p262w280" />
<path d="M475.51 265.34l24.31 0l0 12.23l-24.31 0Z" id="p262w281" />
<path d="M335.43 280.6l27.91 0l0 12.23l-27.91 0Z" id="p262w282" />
<path d="M366.04 280.38l15.54 0l0 12.56l-15.54 0Z" id="p262w283" />
<path d="M325.58 295.85l25.87 0l0 12.29l-25.87 0Z" id="p262w284" />
<path d="M354.15 295.91l43.2 0l0 12.23l-43.2 0Z" id="p262w285" />
<path d="M400.05 295.66l14.63 0l0 12.56l-14.63 0Z" id="p262w286" />
<path d="M419.83 295.91l36.24 0l0 12.23l-36.24 0Z" id="p262w287" />
<path d="M458.76 295.66l18.92 0l0 12.56l-18.92 0Z" id="p262w288" />
<path d="M325.58 311.19l14.41 0l0 12.23l-14.41 0Z" id="p262w289" />
<path d="M342.69 311.14l22.41 0l0 12.29l-22.41 0Z" id="p262w290" />
<path d="M367.8 311.19l17.56 0l0 12.23l-17.56 0Z" id="p262w291" />
<path d="M388.06 311.19l20.04 0l0 12.23l-20.04 0Z" id="p262w292" />
<path d="M410.8 310.95l15.34 0l0 12.56l-15.34 0Z" id="p262w293" />
<path d="M325.58 326.48l14.41 0l0 12.23l-14.41 0Z" id="p262w294" />
<path d="M342.69 326.42l50.93 0l0 12.29l-50.93 0Z" id="p262w295" />
<path d="M396.32 326.48l8.33 0l0 12.23l-8.33 0Z" id="p262w296" />
<path d="M407.34 326.48l19.6 0l0 12.23l-19.6 0Z" id="p262w297" />
<path d="M429.64 326.23l14.79 0l0 12.56l-14.79 0Z" id="p262w298" />
<path d="M325.58 341.76l20.03 0l0 12.23l-20.03 0Z" id="p262w299" />
<path d="M348.31 341.7l23.4 0l0 12.29l-23.4 0Z" id="p262w300" />
<path d="M374.41 341.76l11.94 0l0 12.23l-11.94 0Z" id="p262w301" />
<path d="M389.05 341.76l17.78 0l0 12.23l-17.78 0Z" id="p262w302" />
<path d="M409.53 341.51l17.26 0l0 12.56l-17.26 0Z" id="p262w303" />
<path d="M325.58 357.04l14.41 0l0 12.23l-14.41 0Z" id="p262w304" />
<path d="M342.69 356.99l33.12 0l0 12.29l-33.12 0Z" id="p262w305" />
<path d="M378.51 357.04l11.94 0l0 12.23l-11.94 0Z" id="p262w306" />
<path d="M393.15 357.04l30.39 0l0 12.23l-30.39 0Z" id="p262w307" />
<path d="M426.24 356.8l15.54 0l0 12.56l-15.54 0Z" id="p262w308" />
<path d="M325.58 372.27l52.93 0l0 12.29l-52.93 0Z" id="p262w309" />
<path d="M381.21 372.33l54.47 0l0 12.23l-54.47 0Z" id="p262w310" />
<path d="M438.39 372.08l14.63 0l0 12.56l-14.63 0Z" id="p262w311" />
<path d="M325.58 387.55l13.62 0l0 12.29l-13.62 0Z" id="p262w312" />
<path d="M341.9 387.61l26.97 0l0 12.23l-26.97 0Z" id="p262w313" />
<path d="M371.56 387.37l15.34 0l0 12.56l-15.34 0Z" id="p262w314" />
<path d="M325.58 402.84l43.56 0l0 12.29l-43.56 0Z" id="p262w315" />
<path d="M371.84 402.89l54.83 0l0 12.23l-54.83 0Z" id="p262w316" />
<path d="M429.37 402.65l15.34 0l0 12.56l-15.34 0Z" id="p262w317" />
<path d="M325.58 418.18l16.9 0l0 12.23l-16.9 0Z" id="p262w318" />
<path d="M345.18 418.12l25.28 0l0 12.29l-25.28 0Z" id="p262w319" />
<path d="M373.15 418.18l35.56 0l0 12.23l-35.56 0Z" id="p262w320" />
<path d="M411.41 418.18l12.16 0l0 12.23l-12.16 0Z" id="p262w321" />
<path d="M426.27 417.93l15.54 0l0 12.56l-15.54 0Z" id="p262w322" />
<path d="M325.58 433.46l14.41 0l0 12.23l-14.41 0Z" id="p262w323" />
<path d="M342.69 433.4l23.98 0l0 12.29l-23.98 0Z" id="p262w324" />
<path d="M369.36 433.46l8.33 0l0 12.23l-8.33 0Z" id="p262w325" />
<path d="M380.39 433.46l32.41 0l0 12.23l-32.41 0Z" id="p262w326" />
<path d="M415.5 433.22l19.58 0l0 12.56l-19.58 0Z" id="p262w327" />
<path d="M325.58 448.69l22.01 0l0 12.29l-22.01 0Z" id="p262w328" />
<path d="M350.29 448.74l53.03 0l0 12.23l-53.03 0Z" id="p262w329" />
<path d="M406.02 448.5l18.92 0l0 12.56l-18.92 0Z" id="p262w330" />
<path d="M325.58 463.97l41.05 0l0 12.29l-41.05 0Z" id="p262w331" />
<path d="M369.33 464.03l30.32 0l0 12.23l-30.32 0Z" id="p262w332" />
<path d="M402.35 463.78l15.54 0l0 12.56l-15.54 0Z" id="p262w333" />
<path d="M325.58 517.52l20.03 0l0 12.23l-20.03 0Z" id="p262w334" />
<path d="M348.31 517.46l27.79 0l0 12.29l-27.79 0Z" id="p262w335" />
<path d="M378.8 517.52l17.56 0l0 12.23l-17.56 0Z" id="p262w336" />
<path d="M399.06 517.52l27.24 0l0 12.23l-27.24 0Z" id="p262w337" />
<path d="M429.01 517.27l15.54 0l0 12.56l-15.54 0Z" id="p262w338" />
<path d="M460.05 517.52l11.94 0l0 12.23l-11.94 0Z" id="p262w339" />
<path d="M474.69 517.52l18.46 0l0 12.23l-18.46 0Z" id="p262w340" />
<path d="M335.43 532.78l27.91 0l0 12.23l-27.91 0Z" id="p262w341" />
<path d="M366.04 532.56l15.54 0l0 12.56l-15.54 0Z" id="p262w342" />
<path d="M325.58 548.09l14.41 0l0 12.23l-14.41 0Z" id="p262w343" />
<path d="M342.69 548.03l33.87 0l0 12.29l-33.87 0Z" id="p262w344" />
<path d="M379.25 548.09l13.05 0l0 12.23l-13.05 0Z" id="p262w345" />
<path d="M395 548.09l35.1 0l0 12.23l-35.1 0Z" id="p262w346" />
<path d="M446.09 548.06l14.18 0l0 12.23l-14.18 0Z" id="p262w347" />
<path d="M462.97 547.84l14.79 0l0 12.56l-14.79 0Z" id="p262w348" />
<path d="M325.58 563.37l14.41 0l0 12.23l-14.41 0Z" id="p262w349" />
<path d="M342.69 563.31l19.12 0l0 12.29l-19.12 0Z" id="p262w350" />
<path d="M364.5 563.37l11.94 0l0 12.23l-11.94 0Z" id="p262w351" />
<path d="M379.14 563.37l13.06 0l0 12.23l-13.06 0Z" id="p262w352" />
<path d="M394.9 563.12l15.54 0l0 12.56l-15.54 0Z" id="p262w353" />
<path d="M325.58 578.65l27.24 0l0 12.23l-27.24 0Z" id="p262w354" />
<path d="M355.52 578.65l19.44 0l0 12.23l-19.44 0Z" id="p262w355" />
<path d="M377.66 578.6l28.05 0l0 12.29l-28.05 0Z" id="p262w356" />
<path d="M408.42 578.65l18.23 0l0 12.23l-18.23 0Z" id="p262w357" />
<path d="M429.35 578.65l11.04 0l0 12.23l-11.04 0Z" id="p262w358" />
<path d="M455.01 578.65l15.76 0l0 12.23l-15.76 0Z" id="p262w359" />
<path d="M473.48 578.41l15.54 0l0 12.56l-15.54 0Z" id="p262w360" />
<path d="M325.58 593.94l14.41 0l0 12.23l-14.41 0Z" id="p262w361" />
<path d="M342.69 593.88l23.86 0l0 12.29l-23.86 0Z" id="p262w362" />
<path d="M369.25 593.94l17.56 0l0 12.23l-17.56 0Z" id="p262w363" />
<path d="M389.51 593.94l30.38 0l0 12.23l-30.38 0Z" id="p262w364" />
<path d="M422.59 593.69l14.79 0l0 12.56l-14.79 0Z" id="p262w365" />
<path d="M325.58 609.16l44.86 0l0 12.29l-44.86 0Z" id="p262w366" />
<path d="M373.14 609.22l8.33 0l0 12.23l-8.33 0Z" id="p262w367" />
<path d="M384.17 609.22l33.98 0l0 12.23l-33.98 0Z" id="p262w368" />
<path d="M420.85 608.97l14.79 0l0 12.56l-14.79 0Z" id="p262w369" />
<path d="M325.58 624.5l14.41 0l0 12.23l-14.41 0Z" id="p262w370" />
<path d="M342.6 624.45l32.96 0l0 12.29l-32.96 0Z" id="p262w371" />
<path d="M375.55 624.5l24.2 0l0 12.23l-24.2 0Z" id="p262w372" />
<path d="M402.36 624.45l41.85 0l0 12.29l-41.85 0Z" id="p262w373" />
<path d="M446.82 624.5l11.94 0l0 12.23l-11.94 0Z" id="p262w374" />
<path d="M461.37 624.5l46.04 0l0 12.23l-46.04 0Z" id="p262w375" />
<path d="M335.43 639.79l17.56 0l0 12.23l-17.56 0Z" id="p262w376" />
<path d="M355.69 639.79l48.4 0l0 12.23l-48.4 0Z" id="p262w377" />
<path d="M406.79 639.54l14.43 0l0 12.56l-14.43 0Z" id="p262w378" />
<path d="M325.58 655.07l10.35 0l0 12.23l-10.35 0Z" id="p262w379" />
<path d="M338.63 655.01l47.78 0l0 12.29l-47.78 0Z" id="p262w380" />
<path d="M389.11 655.05l25.65 0l0 12.23l-25.65 0Z" id="p262w381" />
<path d="M417.47 655.07l11.7 0l0 12.23l-11.7 0Z" id="p262w382" />
<path d="M431.87 655.07l23.19 0l0 12.23l-23.19 0Z" id="p262w383" />
<path d="M457.76 655.07l28.12 0l0 12.23l-28.12 0Z" id="p262w384" />
<path d="M335.43 670.33l27.91 0l0 12.23l-27.91 0Z" id="p262w385" />
<path d="M366.04 670.11l15.54 0l0 12.56l-15.54 0Z" id="p262w386" />
<path d="M325.58 685.64l14.41 0l0 12.23l-14.41 0Z" id="p262w387" />
<path d="M342.69 685.58l20.21 0l0 12.29l-20.21 0Z" id="p262w388" />
<path d="M365.59 685.64l17.56 0l0 12.23l-17.56 0Z" id="p262w389" />
<path d="M385.86 685.64l31.73 0l0 12.23l-31.73 0Z" id="p262w390" />
<path d="M420.29 685.39l18.92 0l0 12.56l-18.92 0Z" id="p262w391" />
<path d="M325.58 700.86l25.97 0l0 12.29l-25.97 0Z" id="p262w392" />
<path d="M354.25 700.92l19.13 0l0 12.23l-19.13 0Z" id="p262w393" />
<path d="M376.08 700.9l25.65 0l0 12.23l-25.65 0Z" id="p262w394" />
<path d="M404.43 700.92l21.37 0l0 12.23l-21.37 0Z" id="p262w395" />
<path d="M428.51 700.92l8.33 0l0 12.23l-8.33 0Z" id="p262w396" />
<path d="M439.53 700.92l18.9 0l0 12.23l-18.9 0Z" id="p262w397" />
<path d="M461.13 700.9l27.91 0l0 12.23l-27.91 0Z" id="p262w398" />
<path d="M335.43 715.96l15.54 0l0 12.56l-15.54 0Z" id="p262w399" />
<path d="M325.58 731.49l16.43 0l0 12.23l-16.43 0Z" id="p262w400" />
<path d="M344.71 731.43l52.06 0l0 12.29l-52.06 0Z" id="p262w401" />
<path d="M399.47 731.49l8.33 0l0 12.23l-8.33 0Z" id="p262w402" />
<path d="M410.5 731.49l52.47 0l0 12.23l-52.47 0Z" id="p262w403" />
<path d="M465.68 731.24l17.26 0l0 12.56l-17.26 0Z" id="p262w404" />
<path d="M325.58 746.77l14.41 0l0 12.23l-14.41 0Z" id="p262w405" />
<path d="M342.69 746.71l40.9 0l0 12.29l-40.9 0Z" id="p262w406" />
<path d="M386.29 746.77l11.94 0l0 12.23l-11.94 0Z" id="p262w407" />
<path d="M400.93 746.77l23.41 0l0 12.23l-23.41 0Z" id="p262w408" />
<path d="M427.04 746.53l15.54 0l0 12.56l-15.54 0Z" id="p262w409" />
<path d="M325.58 762.05l14.41 0l0 12.23l-14.41 0Z" id="p262w410" />
<path d="M342.69 762l25.87 0l0 12.29l-25.87 0Z" id="p262w411" />
<path d="M371.25 762.05l11.94 0l0 12.23l-11.94 0Z" id="p262w412" />
<path d="M385.89 762.05l36.7 0l0 12.23l-36.7 0Z" id="p262w413" />
<path d="M425.29 761.81l15.54 0l0 12.56l-15.54 0Z" id="p262w414" />
<path d="M335.43 777.34l48.86 0l0 12.23l-48.86 0Z" id="p262w415" />
<path d="M386.99 777.34l31.07 0l0 12.23l-31.07 0Z" id="p262w416" />
<path d="M420.76 777.34l39.39 0l0 12.23l-39.39 0Z" id="p262w417" />
<path d="M462.85 777.34l13.05 0l0 12.23l-13.05 0Z" id="p262w418" />
<path d="M335.43 792.62l41.43 0l0 12.23l-41.43 0Z" id="p262w419" />
<path d="M379.55 792.38l15.54 0l0 12.56l-15.54 0Z" id="p262w420" />
<path d="M325.58 807.9l19.44 0l0 12.23l-19.44 0Z" id="p262w421" />
<path d="M347.72 807.85l40.27 0l0 12.29l-40.27 0Z" id="p262w422" />
<path d="M390.69 807.9l23.85 0l0 12.23l-23.85 0Z" id="p262w423" />
<path d="M417.25 807.9l11.04 0l0 12.23l-11.04 0Z" id="p262w424" />
<path d="M430.98 807.66l18.92 0l0 12.56l-18.92 0Z" id="p262w425" />
<path d="M335.43 823.19l19.44 0l0 12.23l-19.44 0Z" id="p262w426" />
<path d="M357.57 823.19l23.64 0l0 12.23l-23.64 0Z" id="p262w427" />
<path d="M383.91 823.19l40.07 0l0 12.23l-40.07 0Z" id="p262w428" />
<path d="M426.68 823.19l22.5 0l0 12.23l-22.5 0Z" id="p262w429" />
<path d="M451.88 823.19l11.04 0l0 12.23l-11.04 0Z" id="p262w430" />
<path d="M465.62 823.16l27.91 0l0 12.23l-27.91 0Z" id="p262w431" />
<path d="M335.43 838.23l15.54 0l0 12.56l-15.54 0Z" id="p262w432" />
<path d="M325.58 853.75l19.44 0l0 12.23l-19.44 0Z" id="p262w433" />
<path d="M347.72 853.7l35.68 0l0 12.29l-35.68 0Z" id="p262w434" />
<path d="M386.1 853.75l40.75 0l0 12.23l-40.75 0Z" id="p262w435" />
<path d="M429.55 853.75l11.04 0l0 12.23l-11.04 0Z" id="p262w436" />
<path d="M443.29 853.51l15.54 0l0 12.56l-15.54 0Z" id="p262w437" />
<path d="M325.58 868.98l30.9 0l0 12.29l-30.9 0Z" id="p262w438" />
<path d="M359.18 869.04l56.17 0l0 12.23l-56.17 0Z" id="p262w439" />
<path d="M418.05 868.79l18.92 0l0 12.56l-18.92 0Z" id="p262w440" />
<path d="M325.58 884.27l28.13 0l0 12.29l-28.13 0Z" id="p262w441" />
<path d="M356.41 884.32l20.71 0l0 12.23l-20.71 0Z" id="p262w442" />
<path d="M379.52 884.32l24.31 0l0 12.23l-24.31 0Z" id="p262w443" />
<path d="M412.39 884.08l14.79 0l0 12.56l-14.79 0Z" id="p262w444" />
<path d="M325.58 899.6l14.41 0l0 12.23l-14.41 0Z" id="p262w445" />
<path d="M342.69 899.55l59.8 0l0 12.29l-59.8 0Z" id="p262w446" />
<path d="M402.49 899.6l24.2 0l0 12.23l-24.2 0Z" id="p262w447" />
<path d="M429.38 899.55l68.69 0l0 12.29l-68.69 0Z" id="p262w448" />
<path d="M335.43 914.89l11.94 0l0 12.23l-11.94 0Z" id="p262w449" />
<path d="M350.07 914.89l51.44 0l0 12.23l-51.44 0Z" id="p262w450" />
<path d="M404.21 914.89l31.51 0l0 12.23l-31.51 0Z" id="p262w451" />
<path d="M438.42 914.64l14.41 0l0 12.56l-14.41 0Z" id="p262w452" />
<path d="M325.58 930.17l20.04 0l0 12.23l-20.04 0Z" id="p262w453" />
<path d="M348.32 930.17l19.44 0l0 12.23l-19.44 0Z" id="p262w454" />
<path d="M370.46 930.12l44.58 0l0 12.29l-44.58 0Z" id="p262w455" />
<path d="M417.75 930.17l23.19 0l0 12.23l-23.19 0Z" id="p262w456" />
<path d="M443.63 930.17l11.04 0l0 12.23l-11.04 0Z" id="p262w457" />
<path d="M465.7 930.17l12.16 0l0 12.23l-12.16 0Z" id="p262w458" />
<path d="M480.56 929.93l15.34 0l0 12.56l-15.34 0Z" id="p262w459" />
<path d="M527.1 112.5l14.41 0l0 12.23l-14.41 0Z" id="p262w460" />
<path d="M544.2 112.45l30.84 0l0 12.29l-30.84 0Z" id="p262w461" />
<path d="M577.75 112.5l17.56 0l0 12.23l-17.56 0Z" id="p262w462" />
<path d="M598.01 112.5l31.91 0l0 12.23l-31.91 0Z" id="p262w463" />
<path d="M632.63 112.26l15.54 0l0 12.56l-15.54 0Z" id="p262w464" />
<path d="M527.1 127.79l40.5 0l0 12.23l-40.5 0Z" id="p262w465" />
<path d="M570.3 127.73l40.3 0l0 12.29l-40.3 0Z" id="p262w466" />
<path d="M613.31 127.79l50.67 0l0 12.23l-50.67 0Z" id="p262w467" />
<path d="M666.68 127.79l37.15 0l0 12.23l-37.15 0Z" id="p262w468" />
<path d="M536.95 143.07l27.37 0l0 12.23l-27.37 0Z" id="p262w469" />
<path d="M575.34 142.83l18.17 0l0 12.56l-18.17 0Z" id="p262w470" />
<path d="M527.1 158.35l14.41 0l0 12.23l-14.41 0Z" id="p262w471" />
<path d="M544.2 158.3l26.74 0l0 12.29l-26.74 0Z" id="p262w472" />
<path d="M575.12 158.3l32.37 0l0 12.29l-32.37 0Z" id="p262w473" />
<path d="M610.18 158.35l11.94 0l0 12.23l-11.94 0Z" id="p262w474" />
<path d="M624.82 158.35l53.23 0l0 12.23l-53.23 0Z" id="p262w475" />
<path d="M536.95 173.64l37.59 0l0 12.23l-37.59 0Z" id="p262w476" />
<path d="M577.24 173.39l15.54 0l0 12.56l-15.54 0Z" id="p262w477" />
<path d="M527.1 188.92l14.41 0l0 12.23l-14.41 0Z" id="p262w478" />
<path d="M544.2 188.86l28.21 0l0 12.29l-28.21 0Z" id="p262w479" />
<path d="M576.58 188.86l37.74 0l0 12.29l-37.74 0Z" id="p262w480" />
<path d="M617.02 188.92l11.94 0l0 12.23l-11.94 0Z" id="p262w481" />
<path d="M631.66 188.92l61.57 0l0 12.23l-61.57 0Z" id="p262w482" />
<path d="M536.95 204.2l45.93 0l0 12.23l-45.93 0Z" id="p262w483" />
<path d="M585.58 203.96l14.63 0l0 12.56l-14.63 0Z" id="p262w484" />
<path d="M527.1 219.49l20.03 0l0 12.23l-20.03 0Z" id="p262w485" />
<path d="M549.83 219.43l62.09 0l0 12.29l-62.09 0Z" id="p262w486" />
<path d="M614.62 219.49l17.56 0l0 12.23l-17.56 0Z" id="p262w487" />
<path d="M634.88 219.49l46.14 0l0 12.23l-46.14 0Z" id="p262w488" />
<path d="M536.95 234.53l15.34 0l0 12.56l-15.34 0Z" id="p262w489" />
<path d="M527.1 250l39.38 0l0 12.29l-39.38 0Z" id="p262w490" />
<path d="M569.18 250.05l31.51 0l0 12.23l-31.51 0Z" id="p262w491" />
<path d="M603.39 249.81l15.54 0l0 12.56l-15.54 0Z" id="p262w492" />
<path d="M536.95 265.34l39.39 0l0 12.23l-39.39 0Z" id="p262w493" />
<path d="M579.04 265.34l29.43 0l0 12.23l-29.43 0Z" id="p262w494" />
<path d="M611.17 265.34l10.35 0l0 12.23l-10.35 0Z" id="p262w495" />
<path d="M624.22 265.34l37.16 0l0 12.23l-37.16 0Z" id="p262w496" />
<path d="M664.08 265.09l15.54 0l0 12.56l-15.54 0Z" id="p262w497" />
<path d="M527.1 280.62l14.41 0l0 12.23l-14.41 0Z" id="p262w498" />
<path d="M544.2 280.56l30.86 0l0 12.29l-30.86 0Z" id="p262w499" />
<path d="M577.76 280.62l11.94 0l0 12.23l-11.94 0Z" id="p262w500" />
<path d="M592.4 280.62l22.75 0l0 12.23l-22.75 0Z" id="p262w501" />
<path d="M617.85 280.38l15.54 0l0 12.56l-15.54 0Z" id="p262w502" />
<path d="M527.1 295.85l42.56 0l0 12.29l-42.56 0Z" id="p262w503" />
<path d="M572.36 295.9l31.96 0l0 12.23l-31.96 0Z" id="p262w504" />
<path d="M607.02 295.9l21.37 0l0 12.23l-21.37 0Z" id="p262w505" />
<path d="M631.09 295.9l8.33 0l0 12.23l-8.33 0Z" id="p262w506" />
<path d="M642.12 295.9l29.04 0l0 12.23l-29.04 0Z" id="p262w507" />
<path d="M673.86 295.66l14.63 0l0 12.56l-14.63 0Z" id="p262w508" />
<path d="M527.1 311.13l38.6 0l0 12.29l-38.6 0Z" id="p262w509" />
<path d="M568.4 311.19l87.38 0l0 12.23l-87.38 0Z" id="p262w510" />
<path d="M658.48 310.94l15.54 0l0 12.56l-15.54 0Z" id="p262w511" />
<path d="M536.95 326.47l44.57 0l0 12.23l-44.57 0Z" id="p262w512" />
<path d="M584.22 326.47l28.37 0l0 12.23l-28.37 0Z" id="p262w513" />
<path d="M615.29 326.47l29.49 0l0 12.23l-29.49 0Z" id="p262w514" />
<path d="M647.48 326.47l18.9 0l0 12.23l-18.9 0Z" id="p262w515" />
<path d="M669.07 326.47l11.7 0l0 12.23l-11.7 0Z" id="p262w516" />
<path d="M536.95 341.75l44.42 0l0 12.23l-44.42 0Z" id="p262w517" />
<path d="M584.06 341.75l36.47 0l0 12.23l-36.47 0Z" id="p262w518" />
<path d="M638.24 341.51l15.54 0l0 12.56l-15.54 0Z" id="p262w519" />
<path d="M527.1 356.98l49.45 0l0 12.29l-49.45 0Z" id="p262w520" />
<path d="M579.25 357.04l6.3 0l0 12.23l-6.3 0Z" id="p262w521" />
<path d="M585.55 357.04l44.78 0l0 12.23l-44.78 0Z" id="p262w522" />
<path d="M633.04 356.79l18.92 0l0 12.56l-18.92 0Z" id="p262w523" />
<path d="M527.1 372.27l39.67 0l0 12.29l-39.67 0Z" id="p262w524" />
<path d="M569.47 372.32l26.05 0l0 12.23l-26.05 0Z" id="p262w525" />
<path d="M598.22 372.08l15.54 0l0 12.56l-15.54 0Z" id="p262w526" />
<path d="M536.95 387.6l17.33 0l0 12.23l-17.33 0Z" id="p262w527" />
<path d="M556.98 387.6l11.25 0l0 12.23l-11.25 0Z" id="p262w528" />
<path d="M570.93 387.6l42.77 0l0 12.23l-42.77 0Z" id="p262w529" />
<path d="M616.4 387.6l22.05 0l0 12.23l-22.05 0Z" id="p262w530" />
<path d="M641.15 387.6l26.05 0l0 12.23l-26.05 0Z" id="p262w531" />
<path d="M675.76 387.36l15.54 0l0 12.56l-15.54 0Z" id="p262w532" />
<path d="M527.1 402.89l54.7 0l0 12.23l-54.7 0Z" id="p262w533" />
<path d="M584.5 402.83l54.08 0l0 12.29l-54.08 0Z" id="p262w534" />
<path d="M649.38 402.87l33.53 0l0 12.23l-33.53 0Z" id="p262w535" />
<path d="M685.61 402.89l20.82 0l0 12.23l-20.82 0Z" id="p262w536" />
<path d="M536.95 418.17l18.23 0l0 12.23l-18.23 0Z" id="p262w537" />
<path d="M565.98 418.15l48.18 0l0 12.23l-48.18 0Z" id="p262w538" />
<path d="M616.86 417.93l22.96 0l0 12.56l-22.96 0Z" id="p262w539" />
<path d="M527.1 433.45l14.41 0l0 12.23l-14.41 0Z" id="p262w540" />
<path d="M544.2 433.4l34.86 0l0 12.29l-34.86 0Z" id="p262w541" />
<path d="M583.23 433.4l44.38 0l0 12.29l-44.38 0Z" id="p262w542" />
<path d="M630.31 433.45l11.94 0l0 12.23l-11.94 0Z" id="p262w543" />
<path d="M644.95 433.45l58.19 0l0 12.23l-58.19 0Z" id="p262w544" />
<path d="M536.95 448.74l42.55 0l0 12.23l-42.55 0Z" id="p262w545" />
<path d="M582.2 448.49l15.54 0l0 12.56l-15.54 0Z" id="p262w546" />
<path d="M527.1 464.02l15.53 0l0 12.23l-15.53 0Z" id="p262w547" />
<path d="M545.33 463.97l34.98 0l0 12.29l-34.98 0Z" id="p262w548" />
<path d="M583.01 464.02l8.33 0l0 12.23l-8.33 0Z" id="p262w549" />
<path d="M594.03 464.02l6.3 0l0 12.23l-6.3 0Z" id="p262w550" />
<path d="M609.12 463.78l15.54 0l0 12.56l-15.54 0Z" id="p262w551" />
<path d="M536.95 479.3l20.04 0l0 12.23l-20.04 0Z" id="p262w552" />
<path d="M559.69 479.3l34.9 0l0 12.23l-34.9 0Z" id="p262w553" />
<path d="M597.29 479.3l6.3 0l0 12.23l-6.3 0Z" id="p262w554" />
<path d="M603.59 479.3l44.78 0l0 12.23l-44.78 0Z" id="p262w555" />
<path d="M651.08 479.06l18.92 0l0 12.56l-18.92 0Z" id="p262w556" />
<path d="M527.1 494.59l14.41 0l0 12.23l-14.41 0Z" id="p262w557" />
<path d="M544.2 494.53l43.42 0l0 12.29l-43.42 0Z" id="p262w558" />
<path d="M590.32 494.59l17.56 0l0 12.23l-17.56 0Z" id="p262w559" />
<path d="M610.58 494.59l13.28 0l0 12.23l-13.28 0Z" id="p262w560" />
<path d="M626.57 494.34l15.54 0l0 12.56l-15.54 0Z" id="p262w561" />
<path d="M527.1 509.87l15.53 0l0 12.23l-15.53 0Z" id="p262w562" />
<path d="M545.33 509.82l70.5 0l0 12.29l-70.5 0Z" id="p262w563" />
<path d="M618.53 509.87l13.05 0l0 12.23l-13.05 0Z" id="p262w564" />
<path d="M634.28 509.87l29.49 0l0 12.23l-29.49 0Z" id="p262w565" />
<path d="M680.22 509.87l14.64 0l0 12.23l-14.64 0Z" id="p262w566" />
<path d="M536.95 524.91l15.34 0l0 12.56l-15.34 0Z" id="p262w567" />
<path d="M527.1 540.38l51.81 0l0 12.29l-51.81 0Z" id="p262w568" />
<path d="M581.61 540.44l29.49 0l0 12.23l-29.49 0Z" id="p262w569" />
<path d="M613.8 540.44l23.19 0l0 12.23l-23.19 0Z" id="p262w570" />
<path d="M639.68 540.44l17.55 0l0 12.23l-17.55 0Z" id="p262w571" />
<path d="M671.86 540.44l14.64 0l0 12.23l-14.64 0Z" id="p262w572" />
<path d="M536.95 555.48l18.92 0l0 12.56l-18.92 0Z" id="p262w573" />
<path d="M527.1 570.95l47.96 0l0 12.29l-47.96 0Z" id="p262w574" />
<path d="M577.76 571.01l21.37 0l0 12.23l-21.37 0Z" id="p262w575" />
<path d="M601.84 571.01l8.33 0l0 12.23l-8.33 0Z" id="p262w576" />
<path d="M612.86 571.01l18.9 0l0 12.23l-18.9 0Z" id="p262w577" />
<path d="M634.46 570.98l27.91 0l0 12.23l-27.91 0Z" id="p262w578" />
<path d="M665.07 570.76l15.54 0l0 12.56l-15.54 0Z" id="p262w579" />
<path d="M536.95 586.29l33.32 0l0 12.23l-33.32 0Z" id="p262w580" />
<path d="M572.97 586.04l15.34 0l0 12.56l-15.34 0Z" id="p262w581" />
<path d="M527.1 601.57l10.58 0l0 12.23l-10.58 0Z" id="p262w582" />
<path d="M540.38 601.52l33.99 0l0 12.29l-33.99 0Z" id="p262w583" />
<path d="M579.33 601.57l5.86 0l0 12.23l-5.86 0Z" id="p262w584" />
<path d="M587.89 601.57l28.31 0l0 12.23l-28.31 0Z" id="p262w585" />
<path d="M618.9 601.55l18.68 0l0 12.23l-18.68 0Z" id="p262w586" />
<path d="M637.58 601.55l22.5 0l0 12.23l-22.5 0Z" id="p262w587" />
<path d="M662.78 601.55l32.65 0l0 12.23l-32.65 0Z" id="p262w588" />
<path d="M536.95 616.61l15.54 0l0 12.56l-15.54 0Z" id="p262w589" />
<path d="M527.1 632.08l32.86 0l0 12.29l-32.86 0Z" id="p262w590" />
<path d="M562.66 632.12l25.88 0l0 12.23l-25.88 0Z" id="p262w591" />
<path d="M591.23 632.14l17.33 0l0 12.23l-17.33 0Z" id="p262w592" />
<path d="M611.26 632.12l25.24 0l0 12.23l-25.24 0Z" id="p262w593" />
<path d="M639.2 631.89l15.54 0l0 12.56l-15.54 0Z" id="p262w594" />
<path d="M527.1 647.37l36.69 0l0 12.29l-36.69 0Z" id="p262w595" />
<path d="M566.49 647.4l57.87 0l0 12.23l-57.87 0Z" id="p262w596" />
<path d="M627.06 647.4l13.96 0l0 12.23l-13.96 0Z" id="p262w597" />
<path d="M643.72 647.4l58.27 0l0 12.23l-58.27 0Z" id="p262w598" />
<path d="M536.95 662.71l34.46 0l0 12.23l-34.46 0Z" id="p262w599" />
<path d="M579.96 662.46l14.41 0l0 12.56l-14.41 0Z" id="p262w600" />
<path d="M527.1 677.99l14.41 0l0 12.23l-14.41 0Z" id="p262w601" />
<path d="M544.2 677.93l33.23 0l0 12.29l-33.23 0Z" id="p262w602" />
<path d="M580.14 677.97l26.79 0l0 12.23l-26.79 0Z" id="p262w603" />
<path d="M609.63 677.99l11.94 0l0 12.23l-11.94 0Z" id="p262w604" />
<path d="M624.27 677.99l42.26 0l0 12.23l-42.26 0Z" id="p262w605" />
<path d="M669.23 677.74l18.92 0l0 12.56l-18.92 0Z" id="p262w606" />
<path d="M527.1 693.27l20.03 0l0 12.23l-20.03 0Z" id="p262w607" />
<path d="M549.83 693.22l62.98 0l0 12.29l-62.98 0Z" id="p262w608" />
<path d="M615.51 693.27l17.56 0l0 12.23l-17.56 0Z" id="p262w609" />
<path d="M635.77 693.27l31.73 0l0 12.23l-31.73 0Z" id="p262w610" />
<path d="M670.21 693.27l11.48 0l0 12.23l-11.48 0Z" id="p262w611" />
<path d="M536.95 708.56l27.68 0l0 12.23l-27.68 0Z" id="p262w612" />
<path d="M567.32 708.31l15.54 0l0 12.56l-15.54 0Z" id="p262w613" />
<path d="M597.32 708.56l11.94 0l0 12.23l-11.94 0Z" id="p262w614" />
<path d="M611.96 708.56l13.96 0l0 12.23l-13.96 0Z" id="p262w615" />
<path d="M628.62 708.56l11.7 0l0 12.23l-11.7 0Z" id="p262w616" />
<path d="M643.03 708.56l22.95 0l0 12.23l-22.95 0Z" id="p262w617" />
<path d="M668.68 708.31l17.26 0l0 12.56l-17.26 0Z" id="p262w618" />
<path d="M527.1 723.84l14.41 0l0 12.23l-14.41 0Z" id="p262w619" />
<path d="M544.2 723.78l50.04 0l0 12.29l-50.04 0Z" id="p262w620" />
<path d="M596.95 723.84l11.94 0l0 12.23l-11.94 0Z" id="p262w621" />
<path d="M611.58 723.84l30.61 0l0 12.23l-30.61 0Z" id="p262w622" />
<path d="M644.9 723.59l19.58 0l0 12.56l-19.58 0Z" id="p262w623" />
<path d="M527.1 739.12l14.41 0l0 12.23l-14.41 0Z" id="p262w624" />
<path d="M544.2 739.07l54 0l0 12.29l-54 0Z" id="p262w625" />
<path d="M600.9 739.12l8.33 0l0 12.23l-8.33 0Z" id="p262w626" />
<path d="M611.93 739.12l39.86 0l0 12.23l-39.86 0Z" id="p262w627" />
<path d="M654.49 738.88l14.79 0l0 12.56l-14.79 0Z" id="p262w628" />
<path d="M527.1 754.41l14.41 0l0 12.23l-14.41 0Z" id="p262w629" />
<path d="M544.2 754.35l94.09 0l0 12.29l-94.09 0Z" id="p262w630" />
<path d="M641 754.41l17.56 0l0 12.23l-17.56 0Z" id="p262w631" />
<path d="M661.26 754.41l22.72 0l0 12.23l-22.72 0Z" id="p262w632" />
<path d="M686.68 754.41l11.48 0l0 12.23l-11.48 0Z" id="p262w633" />
<path d="M536.95 769.69l39.86 0l0 12.23l-39.86 0Z" id="p262w634" />
<path d="M579.51 769.45l14.79 0l0 12.56l-14.79 0Z" id="p262w635" />
<path d="M527.1 784.92l27.45 0l0 12.29l-27.45 0Z" id="p262w636" />
<path d="M557.25 784.97l68.66 0l0 12.23l-68.66 0Z" id="p262w637" />
<path d="M628.61 784.73l15.34 0l0 12.56l-15.34 0Z" id="p262w638" />
<path d="M536.95 800.26l17.33 0l0 12.23l-17.33 0Z" id="p262w639" />
<path d="M556.75 800.26l31.72 0l0 12.23l-31.72 0Z" id="p262w640" />
<path d="M591.18 800.26l11.25 0l0 12.23l-11.25 0Z" id="p262w641" />
<path d="M605.13 800.26l29.96 0l0 12.23l-29.96 0Z" id="p262w642" />
<path d="M637.78 800.26l5.86 0l0 12.23l-5.86 0Z" id="p262w643" />
<path d="M646.34 800.26l15.75 0l0 12.23l-15.75 0Z" id="p262w644" />
<path d="M664.79 800.26l25.44 0l0 12.23l-25.44 0Z" id="p262w645" />
<path d="M536.95 815.3l15.54 0l0 12.56l-15.54 0Z" id="p262w646" />
<path d="M536.95 830.82l10.58 0l0 12.23l-10.58 0Z" id="p262w647" />
<path d="M550.23 830.82l11.25 0l0 12.23l-11.25 0Z" id="p262w648" />
<path d="M564.18 830.82l38.05 0l0 12.23l-38.05 0Z" id="p262w649" />
<path d="M604.7 830.82l32.87 0l0 12.23l-32.87 0Z" id="p262w650" />
<path d="M640.27 830.82l5.86 0l0 12.23l-5.86 0Z" id="p262w651" />
<path d="M648.83 830.82l15.75 0l0 12.23l-15.75 0Z" id="p262w652" />
<path d="M667.28 830.82l25.44 0l0 12.23l-25.44 0Z" id="p262w653" />
<path d="M536.95 845.86l15.54 0l0 12.56l-15.54 0Z" id="p262w654" />
<path d="M527.1 861.33l27.45 0l0 12.29l-27.45 0Z" id="p262w655" />
<path d="M557.25 861.39l19.81 0l0 12.23l-19.81 0Z" id="p262w656" />
<path d="M579.76 861.15l15.54 0l0 12.56l-15.54 0Z" id="p262w657" />
<path d="M527.1 876.62l41.66 0l0 12.29l-41.66 0Z" id="p262w658" />
<path d="M571.46 876.67l11.94 0l0 12.23l-11.94 0Z" id="p262w659" />
<path d="M586.1 876.67l60.89 0l0 12.23l-60.89 0Z" id="p262w660" />
<path d="M649.69 876.67l40.96 0l0 12.23l-40.96 0Z" id="p262w661" />
<path d="M536.95 891.71l18.01 0l0 12.56l-18.01 0Z" id="p262w662" />
<path d="M527.1 907.24l14.41 0l0 12.23l-14.41 0Z" id="p262w663" />
<path d="M544.2 907.18l37.79 0l0 12.29l-37.79 0Z" id="p262w664" />
<path d="M584.7 907.24l17.56 0l0 12.23l-17.56 0Z" id="p262w665" />
<path d="M604.96 907.24l36.68 0l0 12.23l-36.68 0Z" id="p262w666" />
<path d="M644.34 907l14.63 0l0 12.56l-14.63 0Z" id="p262w667" />
<path d="M527.1 922.47l51.55 0l0 12.29l-51.55 0Z" id="p262w668" />
<path d="M581.35 922.52l36.69 0l0 12.23l-36.69 0Z" id="p262w669" />
<path d="M620.74 922.28l18.17 0l0 12.56l-18.17 0Z" id="p262w670" />
</svg>
