<?xml version="1.0" encoding="UTF-8"?>
<svg xmlns="http://www.w3.org/2000/svg" xmlns:xlink="http://www.w3.org/1999/xlink" version="1.1" baseProfile="full" width="768" height="1024" viewBox="0,0,768,1024" preserveAspectRatio="xMinYMin meet" >
<style type="text/css">
<![CDATA[
path {fill-opacity: 0.5;fill: #00aeef;visibility: hidden;}
]]>
</style>
<path d="M124.06 104.82l46.02 0l0 23.34l-46.02 0Z" id="p131w1" />
<path d="M175.16 104.82l26.71 0l0 23.34l-26.71 0Z" id="p131w2" />
<path d="M206.94 104.82l36.98 0l0 23.34l-36.98 0Z" id="p131w3" />
<path d="M249 104.82l84.67 0l0 23.34l-84.67 0Z" id="p131w4" />
<path d="M338.75 104.82l19.2 0l0 23.34l-19.2 0Z" id="p131w5" />
<path d="M363.02 104.82l96.38 0l0 23.34l-96.38 0Z" id="p131w6" />
<path d="M464.48 104.82l23.67 0l0 23.34l-23.67 0Z" id="p131w7" />
<path d="M493.23 104.82l84.3 0l0 23.34l-84.3 0Z" id="p131w8" />
<path d="M124.06 149.67l43.22 0l0 18.84l-43.22 0Z" id="p131w9" />
<path d="M170.93 149.67l13.62 0l0 18.84l-13.62 0Z" id="p131w10" />
<path d="M188.21 149.67l51.46 0l0 18.84l-51.46 0Z" id="p131w11" />
<path d="M124.06 180.87l51.89 0l0 14.52l-51.89 0Z" id="p131w12" />
<path d="M179.16 180.87l9.89 0l0 14.52l-9.89 0Z" id="p131w13" />
<path d="M192.25 180.87l59.89 0l0 14.52l-59.89 0Z" id="p131w14" />
<path d="M255.34 180.87l14.18 0l0 14.52l-14.18 0Z" id="p131w15" />
<path d="M272.73 180.87l23.79 0l0 14.52l-23.79 0Z" id="p131w16" />
<path d="M299.72 180.87l11.22 0l0 14.52l-11.22 0Z" id="p131w17" />
<path d="M314.14 180.87l24.59 0l0 14.52l-24.59 0Z" id="p131w18" />
<path d="M341.94 180.87l9.89 0l0 14.52l-9.89 0Z" id="p131w19" />
<path d="M355.04 180.87l26.19 0l0 14.52l-26.19 0Z" id="p131w20" />
<path d="M384.43 180.87l51.53 0l0 14.52l-51.53 0Z" id="p131w21" />
<path d="M439.17 180.87l50.01 0l0 14.52l-50.01 0Z" id="p131w22" />
<path d="M492.39 180.87l35.55 0l0 14.52l-35.55 0Z" id="p131w23" />
<path d="M531.14 180.87l22.17 0l0 14.52l-22.17 0Z" id="p131w24" />
<path d="M556.52 180.87l9.89 0l0 14.52l-9.89 0Z" id="p131w25" />
<path d="M569.26 180.87l21.3 0l0 14.52l-21.3 0Z" id="p131w26" />
<path d="M124.06 197.54l13.9 0l0 14.52l-13.9 0Z" id="p131w27" />
<path d="M141.17 197.54l13.63 0l0 14.52l-13.63 0Z" id="p131w28" />
<path d="M172.49 197.54l11.22 0l0 14.52l-11.22 0Z" id="p131w29" />
<path d="M186.92 197.54l39.56 0l0 14.52l-39.56 0Z" id="p131w30" />
<path d="M229.68 197.54l78.6 0l0 14.52l-78.6 0Z" id="p131w31" />
<path d="M311.49 197.54l22.45 0l0 14.52l-22.45 0Z" id="p131w32" />
<path d="M135.02 230.88l28.96 0l0 14.52l-28.96 0Z" id="p131w33" />
<path d="M167.18 230.88l13.9 0l0 14.52l-13.9 0Z" id="p131w34" />
<path d="M184.29 230.88l29.67 0l0 14.52l-29.67 0Z" id="p131w35" />
<path d="M217.17 230.88l28.06 0l0 14.52l-28.06 0Z" id="p131w36" />
<path d="M248.44 230.88l30.65 0l0 14.52l-30.65 0Z" id="p131w37" />
<path d="M282.29 230.88l29.39 0l0 14.52l-29.39 0Z" id="p131w38" />
<path d="M314.9 230.88l37.9 0l0 14.52l-37.9 0Z" id="p131w39" />
<path d="M356 230.88l13.91 0l0 14.52l-13.91 0Z" id="p131w40" />
<path d="M373.12 230.88l13.9 0l0 14.52l-13.9 0Z" id="p131w41" />
<path d="M390.22 230.88l28.06 0l0 14.52l-28.06 0Z" id="p131w42" />
<path d="M421.49 230.88l13.9 0l0 14.52l-13.9 0Z" id="p131w43" />
<path d="M438.6 230.88l9.89 0l0 14.52l-9.89 0Z" id="p131w44" />
<path d="M451.69 230.88l35.27 0l0 14.52l-35.27 0Z" id="p131w45" />
<path d="M490.17 230.88l38.21 0l0 14.52l-38.21 0Z" id="p131w46" />
<path d="M531.59 230.88l65.68 0l0 14.52l-65.68 0ZM124.06 247.55l25.67 0l0 14.52l-25.67 0Z" id="p131w47" />
<path d="M152.94 247.55l15.5 0l0 14.52l-15.5 0Z" id="p131w48" />
<path d="M171.65 247.55l65.22 0l0 14.52l-65.22 0Z" id="p131w49" />
<path d="M240.07 247.55l52.48 0l0 14.52l-52.48 0Z" id="p131w50" />
<path d="M124.06 388.99l26.24 0l0 15.09l-26.24 0Z" id="p131w51" />
<path d="M153.52 388.99l9.6 0l0 15.09l-9.6 0Z" id="p131w52" />
<path d="M166.33 388.99l14.24 0l0 15.09l-14.24 0Z" id="p131w53" />
<path d="M183.78 388.99l46.74 0l0 15.09l-46.74 0Z" id="p131w54" />
<path d="M249.86 388.99l20.87 0l0 15.09l-20.87 0Z" id="p131w55" />
<path d="M273.94 388.99l6.48 0l0 15.09l-6.48 0Z" id="p131w56" />
<path d="M283.63 388.99l9.66 0l0 15.09l-9.66 0Z" id="p131w57" />
<path d="M296.51 388.99l27.4 0l0 15.09l-27.4 0Z" id="p131w58" />
<path d="M327.12 388.99l25.13 0l0 15.09l-25.13 0Z" id="p131w59" />
<path d="M355.46 388.99l12.06 0l0 15.09l-12.06 0Z" id="p131w60" />
<path d="M370.73 388.99l83.67 0l0 15.09l-83.67 0Z" id="p131w61" />
<path d="M457.61 388.99l23.76 0l0 15.09l-23.76 0Z" id="p131w62" />
<path d="M124.06 405.66l29.7 0l0 15.09l-29.7 0Z" id="p131w63" />
<path d="M156.98 405.66l12.06 0l0 15.09l-12.06 0Z" id="p131w64" />
<path d="M172.24 405.66l31.19 0l0 15.09l-31.19 0Z" id="p131w65" />
<path d="M206.65 405.66l11.91 0l0 15.09l-11.91 0Z" id="p131w66" />
<path d="M221.78 405.66l44.71 0l0 15.09l-44.71 0Z" id="p131w67" />
<path d="M269.7 405.66l21.81 0l0 15.09l-21.81 0Z" id="p131w68" />
<path d="M294.72 405.66l14.15 0l0 15.09l-14.15 0Z" id="p131w69" />
<path d="M312.09 405.66l78.67 0l0 15.09l-78.67 0Z" id="p131w70" />
<path d="M403.69 405.66l48.36 0l0 15.09l-48.36 0Z" id="p131w71" />
<path d="M455.27 405.66l16.53 0l0 15.09l-16.53 0Z" id="p131w72" />
<path d="M475.01 405.66l32.39 0l0 15.09l-32.39 0Z" id="p131w73" />
<path d="M124.06 422.33l13.47 0l0 15.09l-13.47 0Z" id="p131w74" />
<path d="M140.74 422.33l50.17 0l0 15.09l-50.17 0Z" id="p131w75" />
<path d="M194.13 422.33l9.45 0l0 15.09l-9.45 0Z" id="p131w76" />
<path d="M206.79 422.33l45.47 0l0 15.09l-45.47 0Z" id="p131w77" />
<path d="M255.47 422.33l32.75 0l0 15.09l-32.75 0Z" id="p131w78" />
<path d="M301.16 422.33l31.02 0l0 15.09l-31.02 0Z" id="p131w79" />
<path d="M335.4 422.33l8.26 0l0 15.09l-8.26 0Z" id="p131w80" />
<path d="M346.88 422.33l48.94 0l0 15.09l-48.94 0Z" id="p131w81" />
<path d="M399.03 422.33l21.51 0l0 15.09l-21.51 0Z" id="p131w82" />
<path d="M423.76 422.33l23.45 0l0 15.09l-23.45 0Z" id="p131w83" />
<path d="M450.42 422.33l44.48 0l0 15.09l-44.48 0Z" id="p131w84" />
<path d="M124.06 439l45.56 0l0 15.09l-45.56 0Z" id="p131w85" />
<path d="M180.03 439.01l11.07 0l0 15.09l-11.07 0Z" id="p131w86" />
<path d="M194.3 439.01l24.61 0l0 15.09l-24.61 0Z" id="p131w87" />
<path d="M222.13 439.01l8.26 0l0 15.09l-8.26 0Z" id="p131w88" />
<path d="M233.61 439.01l23.17 0l0 15.09l-23.17 0Z" id="p131w89" />
<path d="M259.99 439.01l24.5 0l0 15.09l-24.5 0Z" id="p131w90" />
<path d="M287.7 439.01l48.36 0l0 15.09l-48.36 0Z" id="p131w91" />
<path d="M339.27 439.01l16.53 0l0 15.09l-16.53 0Z" id="p131w92" />
<path d="M359.01 439.01l17.67 0l0 15.09l-17.67 0Z" id="p131w93" />
<path d="M379.9 439.01l9.6 0l0 15.09l-9.6 0Z" id="p131w94" />
<path d="M392.71 439.01l66.28 0l0 15.09l-66.28 0Z" id="p131w95" />
<path d="M462.2 439.01l12.06 0l0 15.09l-12.06 0Z" id="p131w96" />
<path d="M124.07 455.68l41.23 0l0 15.09l-41.23 0Z" id="p131w97" />
<path d="M168.51 455.68l13.47 0l0 15.09l-13.47 0Z" id="p131w98" />
<path d="M185.19 455.68l26.92 0l0 15.09l-26.92 0Z" id="p131w99" />
<path d="M215.33 455.68l39.83 0l0 15.09l-39.83 0Z" id="p131w100" />
<path d="M255.16 455.68l18.29 0l0 15.09l-18.29 0Z" id="p131w101" />
<path d="M276.66 455.68l51.55 0l0 15.09l-51.55 0Z" id="p131w102" />
<path d="M137.11 480.69l27.97 0l0 15.09l-27.97 0Z" id="p131w103" />
<path d="M168.69 480.69l38.44 0l0 15.09l-38.44 0Z" id="p131w104" />
<path d="M210.74 480.69l22.31 0l0 15.09l-22.31 0Z" id="p131w105" />
<path d="M236.66 480.69l30.86 0l0 15.09l-30.86 0Z" id="p131w106" />
<path d="M271.13 480.69l32.91 0l0 15.09l-32.91 0Z" id="p131w107" />
<path d="M316.74 480.69l22.08 0l0 15.09l-22.08 0Z" id="p131w108" />
<path d="M342.44 480.69l46.77 0l0 15.09l-46.77 0Z" id="p131w109" />
<path d="M392.82 480.69l27.18 0l0 15.09l-27.18 0Z" id="p131w110" />
<path d="M423.61 480.69l35.02 0l0 15.09l-35.02 0Z" id="p131w111" />
<path d="M462.24 480.69l14.59 0l0 15.09l-14.59 0Z" id="p131w112" />
<path d="M480.44 480.69l18.6 0l0 15.09l-18.6 0Z" id="p131w113" />
<path d="M137.11 497.36l45.82 0l0 15.09l-45.82 0Z" id="p131w114" />
<path d="M186.54 497.36l36.09 0l0 15.09l-36.09 0Z" id="p131w115" />
<path d="M237.74 497.36l33.3 0l0 15.09l-33.3 0Z" id="p131w116" />
<path d="M137.11 514.03l28.3 0l0 15.09l-28.3 0Z" id="p131w117" />
<path d="M169.02 514.03l37.14 0l0 15.09l-37.14 0Z" id="p131w118" />
<path d="M134.3 530.7l44.53 0l0 15.09l-44.53 0Z" id="p131w119" />
<path d="M182.44 530.7l13.91 0l0 15.09l-13.91 0Z" id="p131w120" />
<path d="M199.96 530.7l19.19 0l0 15.09l-19.19 0Z" id="p131w121" />
<path d="M222.76 530.7l46.34 0l0 15.09l-46.34 0Z" id="p131w122" />
<path d="M272.71 530.7l14.59 0l0 15.09l-14.59 0Z" id="p131w123" />
<path d="M290.91 530.7l41.87 0l0 15.09l-41.87 0Z" id="p131w124" />
<path d="M336.4 530.7l26.91 0l0 15.09l-26.91 0Z" id="p131w125" />
<path d="M366.92 530.7l37.03 0l0 15.09l-37.03 0Z" id="p131w126" />
<path d="M134.3 547.37l15.09 0l0 15.09l-15.09 0Z" id="p131w127" />
<path d="M153 547.37l39.06 0l0 15.09l-39.06 0Z" id="p131w128" />
<path d="M195.67 547.37l34.55 0l0 15.09l-34.55 0Z" id="p131w129" />
<path d="M233.82 547.37l65.51 0l0 15.09l-65.51 0Z" id="p131w130" />
<path d="M302.94 547.37l12.22 0l0 15.09l-12.22 0Z" id="p131w131" />
<path d="M318.78 547.37l28.61 0l0 15.09l-28.61 0Z" id="p131w132" />
<path d="M350.99 547.37l58.09 0l0 15.09l-58.09 0Z" id="p131w133" />
<path d="M137.11 580.71l15.62 0l0 15.09l-15.62 0Z" id="p131w134" />
<path d="M156.34 580.71l29.44 0l0 15.09l-29.44 0Z" id="p131w135" />
<path d="M189.39 580.71l28.61 0l0 15.09l-28.61 0Z" id="p131w136" />
<path d="M221.61 580.71l45.06 0l0 15.09l-45.06 0Z" id="p131w137" />
<path d="M279.37 580.71l25.45 0l0 15.09l-25.45 0Z" id="p131w138" />
<path d="M308.43 580.71l37.36 0l0 15.09l-37.36 0Z" id="p131w139" />
<path d="M349.4 580.71l14.59 0l0 15.09l-14.59 0Z" id="p131w140" />
<path d="M367.6 580.71l18.6 0l0 15.09l-18.6 0Z" id="p131w141" />
<path d="M389.81 580.71l57.31 0l0 15.09l-57.31 0Z" id="p131w142" />
<path d="M450.73 580.71l27.18 0l0 15.09l-27.18 0Z" id="p131w143" />
<path d="M137.11 597.37l29.8 0l0 15.09l-29.8 0Z" id="p131w144" />
<path d="M137.11 614.04l10.63 0l0 15.09l-10.63 0Z" id="p131w145" />
<path d="M151.35 614.04l10.42 0l0 15.09l-10.42 0Z" id="p131w146" />
<path d="M165.39 614.04l45.05 0l0 15.09l-45.05 0Z" id="p131w147" />
<path d="M214.04 614.04l27.53 0l0 15.09l-27.53 0Z" id="p131w148" />
<path d="M245.18 614.04l28.72 0l0 15.09l-28.72 0Z" id="p131w149" />
<path d="M277.52 614.04l23.07 0l0 15.09l-23.07 0Z" id="p131w150" />
<path d="M304.2 614.04l19.01 0l0 15.09l-19.01 0Z" id="p131w151" />
<path d="M326.82 614.04l17.89 0l0 15.09l-17.89 0Z" id="p131w152" />
<path d="M348.32 614.04l36.37 0l0 15.09l-36.37 0Z" id="p131w153" />
<path d="M137.11 630.71l55.07 0l0 15.09l-55.07 0Z" id="p131w154" />
<path d="M124.07 655.72l36.44 0l0 15.09l-36.44 0Z" id="p131w155" />
<path d="M164.11 655.72l34.35 0l0 15.09l-34.35 0Z" id="p131w156" />
<path d="M202.08 655.72l27.18 0l0 15.09l-27.18 0Z" id="p131w157" />
<path d="M232.87 655.72l27.44 0l0 15.09l-27.44 0Z" id="p131w158" />
<path d="M263.92 655.72l29.8 0l0 15.09l-29.8 0Z" id="p131w159" />
<path d="M297.34 655.72l8.02 0l0 15.09l-8.02 0Z" id="p131w160" />
<path d="M308.97 655.72l26.35 0l0 15.09l-26.35 0Z" id="p131w161" />
<path d="M338.93 655.72l50.25 0l0 15.09l-50.25 0Z" id="p131w162" />
<path d="M392.79 655.72l10.63 0l0 15.09l-10.63 0Z" id="p131w163" />
<path d="M407.03 655.72l15.56 0l0 15.09l-15.56 0Z" id="p131w164" />
<path d="M426.2 655.72l10.4 0l0 15.09l-10.4 0Z" id="p131w165" />
<path d="M440.21 655.72l50.87 0l0 15.09l-50.87 0Z" id="p131w166" />
<path d="M124.07 672.39l56.56 0l0 15.09l-56.56 0Z" id="p131w167" />
<path d="M184.24 672.39l36.35 0l0 15.09l-36.35 0Z" id="p131w168" />
<path d="M224.2 672.39l52.2 0l0 15.09l-52.2 0Z" id="p131w169" />
<path d="M280.01 672.39l14.21 0l0 15.09l-14.21 0Z" id="p131w170" />
<path d="M297.84 672.39l52.96 0l0 15.09l-52.96 0Z" id="p131w171" />
<path d="M354.41 672.39l11.26 0l0 15.09l-11.26 0Z" id="p131w172" />
<path d="M369.28 672.39l36.58 0l0 15.09l-36.58 0Z" id="p131w173" />
<path d="M137.11 697.4l15.55 0l0 15.09l-15.55 0Z" id="p131w174" />
<path d="M156.27 697.4l51.13 0l0 15.09l-51.13 0Z" id="p131w175" />
<path d="M211.01 697.4l10.5 0l0 15.09l-10.5 0Z" id="p131w176" />
<path d="M225.12 697.4l60.37 0l0 15.09l-60.37 0Z" id="p131w177" />
<path d="M289.1 697.4l17.93 0l0 15.09l-17.93 0Z" id="p131w178" />
<path d="M310.64 697.4l37.19 0l0 15.09l-37.19 0Z" id="p131w179" />
<path d="M351.44 697.4l23.13 0l0 15.09l-23.13 0Z" id="p131w180" />
<path d="M378.19 697.4l27.18 0l0 15.09l-27.18 0Z" id="p131w181" />
<path d="M408.98 697.4l25.03 0l0 15.09l-25.03 0Z" id="p131w182" />
<path d="M437.63 697.4l13.91 0l0 15.09l-13.91 0Z" id="p131w183" />
<path d="M455.15 697.4l15.17 0l0 15.09l-15.17 0Z" id="p131w184" />
<path d="M137.11 714.07l23.51 0l0 15.09l-23.51 0Z" id="p131w185" />
<path d="M163.83 714.07l13.47 0l0 15.09l-13.47 0Z" id="p131w186" />
<path d="M180.51 714.07l18.65 0l0 15.09l-18.65 0Z" id="p131w187" />
<path d="M202.37 714.07l44.42 0l0 15.09l-44.42 0Z" id="p131w188" />
<path d="M250 714.07l9.45 0l0 15.09l-9.45 0Z" id="p131w189" />
<path d="M262.66 714.07l48.79 0l0 15.09l-48.79 0Z" id="p131w190" />
<path d="M314.66 714.07l12.06 0l0 15.09l-12.06 0Z" id="p131w191" />
<path d="M329.93 714.07l54.72 0l0 15.09l-54.72 0Z" id="p131w192" />
<path d="M388.27 714.07l10.63 0l0 15.09l-10.63 0Z" id="p131w193" />
<path d="M402.51 714.07l29.08 0l0 15.09l-29.08 0Z" id="p131w194" />
<path d="M435.2 714.07l10.42 0l0 15.09l-10.42 0Z" id="p131w195" />
<path d="M449.24 714.07l19.79 0l0 15.09l-19.79 0Z" id="p131w196" />
<path d="M137.11 730.74l26.35 0l0 15.09l-26.35 0Z" id="p131w197" />
<path d="M177.17 730.74l45.38 0l0 15.09l-45.38 0Z" id="p131w198" />
<path d="M226.16 730.74l36.95 0l0 15.09l-36.95 0Z" id="p131w199" />
<path d="M266.72 730.74l26.91 0l0 15.09l-26.91 0Z" id="p131w200" />
<path d="M297.25 730.74l41.6 0l0 15.09l-41.6 0Z" id="p131w201" />
<path d="M342.46 730.74l46.77 0l0 15.09l-46.77 0Z" id="p131w202" />
<path d="M392.84 730.74l13.91 0l0 15.09l-13.91 0Z" id="p131w203" />
<path d="M410.36 730.74l43.83 0l0 15.09l-43.83 0Z" id="p131w204" />
<path d="M461.89 730.79l18.52 0l0 15.09l-18.52 0Z" id="p131w205" />
<path d="M484.02 730.79l36.51 0l0 15.09l-36.51 0Z" id="p131w206" />
<path d="M524.14 730.79l26.91 0l0 15.09l-26.91 0Z" id="p131w207" />
<path d="M554.67 730.79l41.6 0l0 15.09l-41.6 0Z" id="p131w208" />
<path d="M137.11 747.46l44.07 0l0 15.09l-44.07 0Z" id="p131w209" />
<path d="M192.45 747.46l26.91 0l0 15.09l-26.91 0Z" id="p131w210" />
<path d="M222.98 747.46l37.08 0l0 15.09l-37.08 0Z" id="p131w211" />
<path d="M267.77 747.46l24.62 0l0 15.09l-24.62 0Z" id="p131w212" />
<path d="M137.11 764.13l42.54 0l0 15.09l-42.54 0Z" id="p131w213" />
<path d="M183.26 764.13l12.58 0l0 15.09l-12.58 0Z" id="p131w214" />
<path d="M199.45 764.13l22.08 0l0 15.09l-22.08 0Z" id="p131w215" />
<path d="M225.14 764.13l48.97 0l0 15.09l-48.97 0Z" id="p131w216" />
<path d="M284.99 764.13l10.63 0l0 15.09l-10.63 0Z" id="p131w217" />
<path d="M299.23 764.13l26.91 0l0 15.09l-26.91 0Z" id="p131w218" />
<path d="M329.75 764.13l41.09 0l0 15.09l-41.09 0Z" id="p131w219" />
<path d="M374.45 764.13l24.62 0l0 15.09l-24.62 0Z" id="p131w220" />
<path d="M402.68 764.13l36.01 0l0 15.09l-36.01 0Z" id="p131w221" />
<path d="M137.11 780.8l18.02 0l0 15.09l-18.02 0Z" id="p131w222" />
<path d="M158.74 780.8l45.89 0l0 15.09l-45.89 0Z" id="p131w223" />
<path d="M208.25 780.8l23.06 0l0 15.09l-23.06 0Z" id="p131w224" />
<path d="M234.91 780.8l27.97 0l0 15.09l-27.97 0Z" id="p131w225" />
<path d="M266.49 780.8l42.09 0l0 15.09l-42.09 0Z" id="p131w226" />
<path d="M312.19 780.8l18.6 0l0 15.09l-18.6 0Z" id="p131w227" />
<path d="M334.4 780.8l23.2 0l0 15.09l-23.2 0Z" id="p131w228" />
<path d="M361.21 780.8l11 0l0 15.09l-11 0Z" id="p131w229" />
<path d="M379.38 780.8l26.91 0l0 15.09l-26.91 0Z" id="p131w230" />
<path d="M409.91 780.8l31.4 0l0 15.09l-31.4 0Z" id="p131w231" />
<path d="M137.11 797.47l44.99 0l0 15.09l-44.99 0Z" id="p131w232" />
<path d="M185.72 797.47l15.74 0l0 15.09l-15.74 0Z" id="p131w233" />
<path d="M205.07 797.47l47.04 0l0 15.09l-47.04 0Z" id="p131w234" />
<path d="M268.91 797.48l18.93 0l0 15.09l-18.93 0Z" id="p131w235" />
<path d="M291.45 797.48l50.8 0l0 15.09l-50.8 0Z" id="p131w236" />
<path d="M137.11 814.15l47.23 0l0 15.09l-47.23 0Z" id="p131w237" />
<path d="M187.95 814.15l26.91 0l0 15.09l-26.91 0Z" id="p131w238" />
<path d="M218.48 814.15l26.91 0l0 15.09l-26.91 0Z" id="p131w239" />
<path d="M249 814.15l47.24 0l0 15.09l-47.24 0Z" id="p131w240" />
<path d="M299.86 814.15l13.91 0l0 15.09l-13.91 0Z" id="p131w241" />
<path d="M317.37 814.15l26.23 0l0 15.09l-26.23 0Z" id="p131w242" />
<path d="M46.96 113.24l26.31 0l0 12.3l-26.31 0Z" id="p131w243" />
<path d="M52.89 232.73l35.72 0l0 12.3l-35.72 0Z" id="p131w244" />
<path d="M44.38 245.23l44.24 0l0 12.3l-44.24 0Z" id="p131w245" />
<path d="M135.88 290.21l14.18 0l0 14.52l-14.18 0Z" id="p131w246" />
<path d="M153.26 290.21l43.83 0l0 14.52l-43.83 0Z" id="p131w247" />
<path d="M197.09 290.21l20.85 0l0 14.52l-20.85 0Z" id="p131w248" />
<path d="M230.78 290.21l20.85 0l0 14.52l-20.85 0Z" id="p131w249" />
<path d="M254.84 290.21l31.01 0l0 14.52l-31.01 0Z" id="p131w250" />
<path d="M298.68 290.21l58.29 0l0 14.52l-58.29 0Z" id="p131w251" />
<path d="M369.79 290.21l22.44 0l0 14.52l-22.44 0Z" id="p131w252" />
<path d="M395.44 290.21l37.68 0l0 14.52l-37.68 0Z" id="p131w253" />
<path d="M445.95 290.21l9.89 0l0 14.52l-9.89 0Z" id="p131w254" />
<path d="M459.05 290.21l7.48 0l0 14.52l-7.48 0Z" id="p131w255" />
<path d="M466.53 290.21l27.81 0l0 14.52l-27.81 0Z" id="p131w256" />
<path d="M507.17 290.21l9.89 0l0 14.52l-9.89 0Z" id="p131w257" />
<path d="M520.26 290.21l68.64 0l0 14.52l-68.64 0Z" id="p131w258" />
<path d="M135.88 309.67l50.79 0l0 14.52l-50.79 0Z" id="p131w259" />
<path d="M189.88 309.67l13.11 0l0 14.52l-13.11 0Z" id="p131w260" />
<path d="M215.81 309.67l14.18 0l0 14.52l-14.18 0Z" id="p131w261" />
<path d="M233.2 309.67l59.33 0l0 14.52l-59.33 0Z" id="p131w262" />
<path d="M295.73 309.67l25.8 0l0 14.52l-25.8 0Z" id="p131w263" />
<path d="M324.75 309.67l61.47 0l0 14.52l-61.47 0Z" id="p131w264" />
<path d="M399.04 309.67l14.18 0l0 14.52l-14.18 0Z" id="p131w265" />
<path d="M416.43 309.67l53.72 0l0 14.52l-53.72 0Z" id="p131w266" />
<path d="M473.36 309.67l13.9 0l0 14.52l-13.9 0Z" id="p131w267" />
<path d="M490.46 309.67l24.06 0l0 14.52l-24.06 0Z" id="p131w268" />
<path d="M527.36 309.67l15.5 0l0 14.52l-15.5 0Z" id="p131w269" />
<path d="M546.06 309.67l71.66 0l0 14.52l-71.66 0Z" id="p131w270" />
<path d="M634.29 309.64l16.84 0l0 14.52l-16.84 0Z" id="p131w271" />
<path d="M135.88 329.12l14.18 0l0 14.52l-14.18 0Z" id="p131w272" />
<path d="M153.26 329.12l66.83 0l0 14.52l-66.83 0Z" id="p131w273" />
<path d="M232.92 329.12l39.03 0l0 14.52l-39.03 0Z" id="p131w274" />
<path d="M275.16 329.12l13.11 0l0 14.52l-13.11 0Z" id="p131w275" />
<path d="M301.09 329.12l22.44 0l0 14.52l-22.44 0Z" id="p131w276" />
<path d="M336.63 329.12l9.89 0l0 14.52l-9.89 0Z" id="p131w277" />
<path d="M349.72 329.12l55.33 0l0 14.52l-55.33 0Z" id="p131w278" />
<path d="M417.88 329.12l50.55 0l0 14.52l-50.55 0Z" id="p131w279" />
<path d="M499.08 329.12l35.82 0l0 14.52l-35.82 0Z" id="p131w280" />
<path d="M534.91 329.12l11.22 0l0 14.52l-11.22 0Z" id="p131w281" />
<path d="M549.33 329.12l13.11 0l0 14.52l-13.11 0Z" id="p131w282" />
<path d="M575.27 329.12l20.85 0l0 14.52l-20.85 0Z" id="p131w283" />
<path d="M599.33 329.12l54.79 0l0 14.52l-54.79 0Z" id="p131w284" />
<path d="M135.88 348.58l20.85 0l0 14.52l-20.85 0Z" id="p131w285" />
<path d="M159.94 348.58l56.23 0l0 14.52l-56.23 0Z" id="p131w286" />
<path d="M229 348.58l20.85 0l0 14.52l-20.85 0Z" id="p131w287" />
<path d="M253.06 348.58l67.09 0l0 14.52l-67.09 0Z" id="p131w288" />
<path d="M332.98 348.58l14.18 0l0 14.52l-14.18 0Z" id="p131w289" />
<path d="M350.37 348.58l13.63 0l0 14.52l-13.63 0Z" id="p131w290" />
<path d="M367.21 348.58l84.73 0l0 14.52l-84.73 0Z" id="p131w291" />
<path d="M455.14 348.58l13.11 0l0 14.52l-13.11 0Z" id="p131w292" />
<path d="M508.5 537.49l12.17 0l0 -41.26l-12.17 0Z" id="p131w293" />
<path d="M555.42 395.78l58.31 0l0 20.28l-58.31 0Z" id="p131w294" />
<path d="M617.75 395.78l49.19 0l0 20.28l-49.19 0Z" id="p131w295" />
<path d="M511.05 612.9l8.03 0l0 -23.09l-8.03 0Z" id="p131w296" />
<path d="M511.05 588.23l8.03 0l0 -19.48l-8.03 0Z" id="p131w297" />
<path d="M568.61 576.22l86.52 0l0 22.09l-86.52 0Z" id="p131w298" />
<path d="M585.94 421.83l51.17 0l0 21.53l-51.17 0Z" id="p131w299" />
<path d="M573.05 439l30.37 0l0 21.53l-30.37 0Z" id="p131w300" />
<path d="M610.07 439l39.93 0l0 21.53l-39.93 0Z" id="p131w301" />
<path d="M563.77 456.18l95.51 0l0 21.53l-95.51 0Z" id="p131w302" />
<path d="M599.29 473.35l24.48 0l0 21.53l-24.48 0Z" id="p131w303" />
<path d="M556.28 490.52l110.49 0l0 21.53l-110.49 0Z" id="p131w304" />
<path d="M598.78 507.69l25.5 0l0 21.53l-25.5 0Z" id="p131w305" />
<path d="M557.36 524.87l108.33 0l0 21.53l-108.33 0Z" id="p131w306" />
<path d="M553.68 563.96l22.92 0l0 10.97l-22.92 0Z" id="p131w307" />
<path d="M577.62 562.7l20.5 0l0 11.09l-20.5 0Z" id="p131w308" />
<path d="M599.15 561.57l18.31 0l0 11.21l-18.31 0Z" id="p131w309" />
<path d="M618.49 560.56l8.19 0l0 11.74l-8.19 0Z" id="p131w310" />
<path d="M627.7 560.08l13.18 0l0 11.48l-13.18 0Z" id="p131w311" />
<path d="M641.91 559.33l9.09 0l0 11.69l-9.09 0Z" id="p131w312" />
<path d="M652.03 558.8l23.05 0l0 10.96l-23.05 0Z" id="p131w313" />
<path d="M131.8 916.51l12.8 0l0 13.06l-12.8 0Z" id="p131w314" />
<path d="M147.47 916.51l44.31 0l0 13.06l-44.31 0Z" id="p131w315" />
<path d="M194.65 916.51l43.41 0l0 13.06l-43.41 0Z" id="p131w316" />
<path d="M240.93 916.57l15.31 0l0 12.99l-15.31 0Z" id="p131w317" />
<path d="M259.11 916.57l103.29 0l0 12.99l-103.29 0Z" id="p131w318" />
<path d="M387.54 916.51l36.82 0l0 13.06l-36.82 0Z" id="p131w319" />
<path d="M427.23 916.51l11.34 0l0 13.06l-11.34 0Z" id="p131w320" />
<path d="M441.44 916.55l26.55 0l0 12.99l-26.55 0Z" id="p131w321" />
<path d="M470.86 916.57l20.66 0l0 12.99l-20.66 0Z" id="p131w322" />
<path d="M494.38 916.57l57.66 0l0 12.99l-57.66 0Z" id="p131w323" />
<path d="M577.18 916.51l36.45 0l0 13.06l-36.45 0Z" id="p131w324" />
<path d="M616.5 916.51l12.9 0l0 13.06l-12.9 0Z" id="p131w325" />
<path d="M632.27 916.57l19.37 0l0 12.99l-19.37 0Z" id="p131w326" />
<path d="M662.24 916.57l10.29 0l0 12.99l-10.29 0Z" id="p131w327" />
<path d="M124.06 931.85l12.92 0l0 12.99l-12.92 0Z" id="p131w328" />
<path d="M162.12 931.79l21.47 0l0 13.06l-21.47 0Z" id="p131w329" />
<path d="M186.47 931.79l11.34 0l0 13.06l-11.34 0Z" id="p131w330" />
<path d="M200.67 931.85l19.62 0l0 12.99l-19.62 0Z" id="p131w331" />
<path d="M223.16 931.85l29.8 0l0 12.99l-29.8 0Z" id="p131w332" />
<path d="M255.82 931.85l32.52 0l0 12.99l-32.52 0Z" id="p131w333" />
<path d="M313.49 931.79l11.34 0l0 13.06l-11.34 0Z" id="p131w334" />
<path d="M327.7 931.79l42.17 0l0 13.06l-42.17 0Z" id="p131w335" />
<path d="M381.6 931.79l12.9 0l0 13.06l-12.9 0Z" id="p131w336" />
<path d="M397.37 931.85l20.66 0l0 12.99l-20.66 0Z" id="p131w337" />
<path d="M420.89 931.85l39.4 0l0 12.99l-39.4 0Z" id="p131w338" />
<path d="M463.16 931.85l21.29 0l0 12.99l-21.29 0Z" id="p131w339" />
<path d="M509.6 931.79l12.8 0l0 13.06l-12.8 0Z" id="p131w340" />
<path d="M525.27 931.79l38.81 0l0 13.06l-38.81 0Z" id="p131w341" />
<path d="M566.95 931.85l15.31 0l0 12.99l-15.31 0Z" id="p131w342" />
<path d="M585.12 931.85l63.61 0l0 12.99l-63.61 0Z" id="p131w343" />
<path d="M68.27 39.02l42.71 0l0 15.38l-42.71 0Z" id="p131w344" />
<path d="M152.25 39.02l43.21 0l0 15.38l-43.21 0Z" id="p131w345" />
<path d="M250.71 39.02l43.21 0l0 15.38l-43.21 0Z" id="p131w346" />
<path d="M358.81 38.6l29.22 0l0 16.09l-29.22 0Z" id="p131w347" />
<path d="M391.4 38.6l46.96 0l0 16.09l-46.96 0Z" id="p131w348" />
<path d="M497.56 39.02l32.54 0l0 15.38l-32.54 0Z" id="p131w349" />
<path d="M619.49 983l71.62 0l0 12.23l-71.62 0Z" id="p131w350" />
</svg>
