<?xml version="1.0" encoding="UTF-8"?>
<svg xmlns="http://www.w3.org/2000/svg" xmlns:xlink="http://www.w3.org/1999/xlink" version="1.1" baseProfile="full" width="768" height="1024" viewBox="0,0,768,1024" preserveAspectRatio="xMinYMin meet" >
<style type="text/css">
<![CDATA[
path {fill-opacity: 0.5;fill: #00aeef;visibility: hidden;}
]]>
</style>
<path d="M123.63 114.18l31 0l0 14.52l-31 0Z" id="p37w1" />
<path d="M157.51 114.18l40.43 0l0 14.52l-40.43 0Z" id="p37w2" />
<path d="M200.83 114.18l11.85 0l0 14.52l-11.85 0Z" id="p37w3" />
<path d="M215.58 114.18l26.94 0l0 14.52l-26.94 0Z" id="p37w4" />
<path d="M245.41 114.18l37.74 0l0 14.52l-37.74 0Z" id="p37w5" />
<path d="M286.04 114.18l25.9 0l0 14.52l-25.9 0Z" id="p37w6" />
<path d="M314.82 114.18l20.47 0l0 14.52l-20.47 0Z" id="p37w7" />
<path d="M338.19 114.18l50.92 0l0 14.52l-50.92 0Z" id="p37w8" />
<path d="M392 114.18l14.81 0l0 14.52l-14.81 0Z" id="p37w9" />
<path d="M409.7 114.18l67.05 0l0 14.52l-67.05 0Z" id="p37w10" />
<path d="M124.06 130.85l43.08 0l0 14.52l-43.08 0Z" id="p37w11" />
<path d="M179.92 130.85l20.46 0l0 14.52l-20.46 0Z" id="p37w12" />
<path d="M203.27 130.85l49.31 0l0 14.52l-49.31 0Z" id="p37w13" />
<path d="M256.81 130.82l61.06 0l0 14.52l-61.06 0Z" id="p37w14" />
<path d="M321.07 130.85l59.84 0l0 14.52l-59.84 0Z" id="p37w15" />
<path d="M124.06 147.52l44.75 0l0 14.52l-44.75 0Z" id="p37w16" />
<path d="M171.7 147.52l10.52 0l0 14.52l-10.52 0Z" id="p37w17" />
<path d="M185.12 147.52l31.3 0l0 14.52l-31.3 0Z" id="p37w18" />
<path d="M219.3 147.52l21.81 0l0 14.52l-21.81 0Z" id="p37w19" />
<path d="M244 147.52l26.94 0l0 14.52l-26.94 0Z" id="p37w20" />
<path d="M273.83 147.52l41.75 0l0 14.52l-41.75 0Z" id="p37w21" />
<path d="M318.47 147.52l26.97 0l0 14.52l-26.97 0Z" id="p37w22" />
<path d="M348.32 147.52l25.33 0l0 14.52l-25.33 0Z" id="p37w23" />
<path d="M376.54 147.52l59.46 0l0 14.52l-59.46 0Z" id="p37w24" />
<path d="M143.75 172.53l51.33 0l0 14.52l-51.33 0Z" id="p37w25" />
<path d="M198.29 172.53l26.73 0l0 14.52l-26.73 0Z" id="p37w26" />
<path d="M228.23 172.53l15.5 0l0 14.52l-15.5 0Z" id="p37w27" />
<path d="M246.93 172.53l33.94 0l0 14.52l-33.94 0Z" id="p37w28" />
<path d="M284.08 172.53l15.5 0l0 14.52l-15.5 0Z" id="p37w29" />
<path d="M302.78 172.53l71.37 0l0 14.52l-71.37 0Z" id="p37w30" />
<path d="M377.36 172.53l17.38 0l0 14.52l-17.38 0Z" id="p37w31" />
<path d="M397.95 172.53l81.27 0l0 14.52l-81.27 0Z" id="p37w32" />
<path d="M492.31 172.53l28.87 0l0 14.52l-28.87 0Z" id="p37w33" />
<path d="M524.38 172.53l23.8 0l0 14.52l-23.8 0Z" id="p37w34" />
<path d="M143.75 197.55l26.21 0l0 14.52l-26.21 0Z" id="p37w35" />
<path d="M173.18 197.55l25.4 0l0 14.52l-25.4 0Z" id="p37w36" />
<path d="M201.78 197.55l31.01 0l0 14.52l-31.01 0Z" id="p37w37" />
<path d="M235.99 197.55l28.87 0l0 14.52l-28.87 0Z" id="p37w38" />
<path d="M268.06 197.55l61.32 0l0 14.52l-61.32 0Z" id="p37w39" />
<path d="M332.6 197.55l17.38 0l0 14.52l-17.38 0Z" id="p37w40" />
<path d="M353.19 197.55l16.83 0l0 14.52l-16.83 0Z" id="p37w41" />
<path d="M373.22 197.55l13.9 0l0 14.52l-13.9 0Z" id="p37w42" />
<path d="M390.33 197.55l42.5 0l0 14.52l-42.5 0Z" id="p37w43" />
<path d="M436.04 197.55l39.84 0l0 14.52l-39.84 0Z" id="p37w44" />
<path d="M479.08 197.52l18.18 0l0 14.52l-18.18 0Z" id="p37w45" />
<path d="M500.47 197.52l51.41 0l0 14.52l-51.41 0Z" id="p37w46" />
<path d="M143.75 214.22l29.41 0l0 14.52l-29.41 0Z" id="p37w47" />
<path d="M176.37 214.22l26.19 0l0 14.52l-26.19 0Z" id="p37w48" />
<path d="M205.76 214.22l26.72 0l0 14.52l-26.72 0Z" id="p37w49" />
<path d="M235.69 214.22l35.56 0l0 14.52l-35.56 0Z" id="p37w50" />
<path d="M274.45 214.22l20.58 0l0 14.52l-20.58 0Z" id="p37w51" />
<path d="M298.24 214.22l15.5 0l0 14.52l-15.5 0Z" id="p37w52" />
<path d="M316.94 214.22l35 0l0 14.52l-35 0Z" id="p37w53" />
<path d="M355.15 214.22l68.17 0l0 14.52l-68.17 0Z" id="p37w54" />
<path d="M143.75 230.89l29.41 0l0 14.52l-29.41 0Z" id="p37w55" />
<path d="M176.37 230.89l25.12 0l0 14.52l-25.12 0Z" id="p37w56" />
<path d="M204.7 230.89l15.87 0l0 14.52l-15.87 0Z" id="p37w57" />
<path d="M223.77 230.89l19.51 0l0 14.52l-19.51 0Z" id="p37w58" />
<path d="M246.48 230.89l29.94 0l0 14.52l-29.94 0Z" id="p37w59" />
<path d="M279.63 230.89l13.9 0l0 14.52l-13.9 0Z" id="p37w60" />
<path d="M296.73 230.89l48.1 0l0 14.52l-48.1 0Z" id="p37w61" />
<path d="M348.04 230.89l9.89 0l0 14.52l-9.89 0Z" id="p37w62" />
<path d="M361.13 230.89l30.73 0l0 14.52l-30.73 0Z" id="p37w63" />
<path d="M395.07 230.89l30.73 0l0 14.52l-30.73 0Z" id="p37w64" />
<path d="M429 230.89l9.89 0l0 14.52l-9.89 0Z" id="p37w65" />
<path d="M442.1 230.89l32.07 0l0 14.52l-32.07 0Z" id="p37w66" />
<path d="M143.75 247.56l29.41 0l0 14.52l-29.41 0Z" id="p37w67" />
<path d="M176.37 247.56l28.85 0l0 14.52l-28.85 0Z" id="p37w68" />
<path d="M208.43 247.56l41.95 0l0 14.52l-41.95 0Z" id="p37w69" />
<path d="M253.59 247.56l34.75 0l0 14.52l-34.75 0Z" id="p37w70" />
<path d="M291.55 247.56l42.24 0l0 14.52l-42.24 0Z" id="p37w71" />
<path d="M336.99 247.56l14.18 0l0 14.52l-14.18 0Z" id="p37w72" />
<path d="M354.38 247.56l33.9 0l0 14.52l-33.9 0Z" id="p37w73" />
<path d="M154.71 272.57l39.29 0l0 14.52l-39.29 0Z" id="p37w74" />
<path d="M197.21 272.57l29.42 0l0 14.52l-29.42 0Z" id="p37w75" />
<path d="M229.84 272.57l40.89 0l0 14.52l-40.89 0Z" id="p37w76" />
<path d="M273.94 272.57l9.89 0l0 14.52l-9.89 0Z" id="p37w77" />
<path d="M287.03 272.57l60.16 0l0 14.52l-60.16 0Z" id="p37w78" />
<path d="M124.06 316.39l23.83 0l0 18.84l-23.83 0Z" id="p37w79" />
<path d="M151.54 316.39l18.36 0l0 18.84l-18.36 0Z" id="p37w80" />
<path d="M173.54 316.39l37.28 0l0 18.84l-37.28 0Z" id="p37w81" />
<path d="M123.71 347.6l42.53 0l0 14.52l-42.53 0Z" id="p37w82" />
<path d="M169.44 347.6l37.68 0l0 14.52l-37.68 0Z" id="p37w83" />
<path d="M210.33 347.6l11.22 0l0 14.52l-11.22 0Z" id="p37w84" />
<path d="M224.76 347.6l30.74 0l0 14.52l-30.74 0Z" id="p37w85" />
<path d="M255.5 347.6l12.57 0l0 14.52l-12.57 0Z" id="p37w86" />
<path d="M271.27 347.6l28.87 0l0 14.52l-28.87 0Z" id="p37w87" />
<path d="M303.35 347.6l47.58 0l0 14.52l-47.58 0Z" id="p37w88" />
<path d="M143.75 372.62l42.69 0l0 14.61l-42.69 0Z" id="p37w89" />
<path d="M189.48 372.62l24.76 0l0 14.61l-24.76 0Z" id="p37w90" />
<path d="M217.44 372.62l14.16 0l0 14.61l-14.16 0Z" id="p37w91" />
<path d="M234.81 372.62l58.37 0l0 14.61l-58.37 0Z" id="p37w92" />
<path d="M302.9 372.62l12.29 0l0 14.61l-12.29 0Z" id="p37w93" />
<path d="M318.39 372.62l24.33 0l0 14.61l-24.33 0Z" id="p37w94" />
<path d="M345.93 372.62l19.51 0l0 14.61l-19.51 0Z" id="p37w95" />
<path d="M368.64 372.62l60.41 0l0 14.61l-60.41 0Z" id="p37w96" />
<path d="M432.09 372.62l23.44 0l0 14.61l-23.44 0Z" id="p37w97" />
<path d="M458.74 372.62l14.16 0l0 14.61l-14.16 0Z" id="p37w98" />
<path d="M476.11 372.62l60.08 0l0 14.61l-60.08 0Z" id="p37w99" />
<path d="M143.75 397.62l14.18 0l0 14.52l-14.18 0Z" id="p37w100" />
<path d="M161.14 397.62l70.59 0l0 14.52l-70.59 0Z" id="p37w101" />
<path d="M244.56 397.62l14.18 0l0 14.52l-14.18 0Z" id="p37w102" />
<path d="M261.94 397.62l40.89 0l0 14.52l-40.89 0Z" id="p37w103" />
<path d="M315.66 397.62l14.18 0l0 14.52l-14.18 0Z" id="p37w104" />
<path d="M333.05 397.62l57.46 0l0 14.52l-57.46 0Z" id="p37w105" />
<path d="M403.33 397.62l14.18 0l0 14.52l-14.18 0Z" id="p37w106" />
<path d="M420.71 397.62l58.27 0l0 14.52l-58.27 0Z" id="p37w107" />
<path d="M143.75 414.29l14.18 0l0 14.52l-14.18 0Z" id="p37w108" />
<path d="M161.14 414.29l36.88 0l0 14.52l-36.88 0Z" id="p37w109" />
<path d="M210.85 414.29l20.85 0l0 14.52l-20.85 0Z" id="p37w110" />
<path d="M234.91 414.29l25.38 0l0 14.52l-25.38 0Z" id="p37w111" />
<path d="M273.12 414.29l20.85 0l0 14.52l-20.85 0Z" id="p37w112" />
<path d="M297.18 414.29l59.07 0l0 14.52l-59.07 0Z" id="p37w113" />
<path d="M369.08 414.29l20.85 0l0 14.52l-20.85 0Z" id="p37w114" />
<path d="M393.14 414.29l29.41 0l0 14.52l-29.41 0Z" id="p37w115" />
<path d="M143.75 430.97l20.85 0l0 14.52l-20.85 0Z" id="p37w116" />
<path d="M167.82 430.97l28.33 0l0 14.52l-28.33 0Z" id="p37w117" />
<path d="M208.97 430.97l14.18 0l0 14.52l-14.18 0Z" id="p37w118" />
<path d="M226.35 430.97l10.96 0l0 14.52l-10.96 0Z" id="p37w119" />
<path d="M250.14 430.97l14.18 0l0 14.52l-14.18 0Z" id="p37w120" />
<path d="M267.52 430.97l41.96 0l0 14.52l-41.96 0Z" id="p37w121" />
<path d="M322.31 430.97l20.85 0l0 14.52l-20.85 0Z" id="p37w122" />
<path d="M346.38 430.97l43.56 0l0 14.52l-43.56 0Z" id="p37w123" />
<path d="M143.75 447.64l14.18 0l0 14.52l-14.18 0Z" id="p37w124" />
<path d="M161.14 447.64l35.53 0l0 14.52l-35.53 0Z" id="p37w125" />
<path d="M209.5 447.64l14.18 0l0 14.52l-14.18 0Z" id="p37w126" />
<path d="M226.88 447.64l34.49 0l0 14.52l-34.49 0Z" id="p37w127" />
<path d="M274.2 447.64l14.18 0l0 14.52l-14.18 0Z" id="p37w128" />
<path d="M291.59 447.64l39.03 0l0 14.52l-39.03 0Z" id="p37w129" />
<path d="M343.45 447.64l14.18 0l0 14.52l-14.18 0Z" id="p37w130" />
<path d="M360.83 447.64l22.45 0l0 14.52l-22.45 0Z" id="p37w131" />
<path d="M143.75 464.31l19.51 0l0 14.52l-19.51 0Z" id="p37w132" />
<path d="M166.47 464.31l45.43 0l0 14.52l-45.43 0Z" id="p37w133" />
<path d="M224.73 464.31l20.85 0l0 14.52l-20.85 0Z" id="p37w134" />
<path d="M248.79 464.31l25.13 0l0 14.52l-25.13 0Z" id="p37w135" />
<path d="M286.76 464.31l20.85 0l0 14.52l-20.85 0Z" id="p37w136" />
<path d="M310.82 464.31l23.8 0l0 14.52l-23.8 0Z" id="p37w137" />
<path d="M347.45 464.31l14.18 0l0 14.52l-14.18 0Z" id="p37w138" />
<path d="M364.83 464.31l49.72 0l0 14.52l-49.72 0Z" id="p37w139" />
<path d="M124.06 508.13l17.67 0l0 18.84l-17.67 0Z" id="p37w140" />
<path d="M145.39 508.13l82.46 0l0 18.84l-82.46 0Z" id="p37w141" />
<path d="M231.49 508.13l69.55 0l0 18.84l-69.55 0Z" id="p37w142" />
<path d="M124.06 539.34l46.18 0l0 14.52l-46.18 0Z" id="p37w143" />
<path d="M173.45 539.34l15.5 0l0 14.52l-15.5 0Z" id="p37w144" />
<path d="M192.16 539.34l71.37 0l0 14.52l-71.37 0Z" id="p37w145" />
<path d="M266.73 539.34l44.1 0l0 14.52l-44.1 0Z" id="p37w146" />
<path d="M124.06 556.01l40.63 0l0 14.52l-40.63 0Z" id="p37w147" />
<path d="M167.9 555.94l13.9 0l0 14.6l-13.9 0Z" id="p37w148" />
<path d="M205.88 555.94l21.87 0l0 14.6l-21.87 0Z" id="p37w149" />
<path d="M233.64 555.94l21.87 0l0 14.6l-21.87 0Z" id="p37w150" />
<path d="M279.6 555.94l13.9 0l0 14.6l-13.9 0Z" id="p37w151" />
<path d="M299.39 555.94l13.9 0l0 14.6l-13.9 0Z" id="p37w152" />
<path d="M337.38 555.94l52.31 0l0 14.6l-52.31 0Z" id="p37w153" />
<path d="M395.57 555.94l52.31 0l0 14.6l-52.31 0Z" id="p37w154" />
<path d="M471.97 555.94l13.9 0l0 14.6l-13.9 0Z" id="p37w155" />
<path d="M491.75 555.94l13.9 0l0 14.6l-13.9 0Z" id="p37w156" />
<path d="M529.74 555.94l36.8 0l0 14.6l-36.8 0Z" id="p37w157" />
<path d="M634.33 556.01l14.44 0l0 14.52l-14.44 0Z" id="p37w158" />
<path d="M651.98 556.01l23.52 0l0 14.52l-23.52 0Z" id="p37w159" />
<path d="M143.75 581.03l52.12 0l0 14.61l-52.12 0Z" id="p37w160" />
<path d="M199.09 581.03l36.91 0l0 14.61l-36.91 0Z" id="p37w161" />
<path d="M239.2 581.03l25.32 0l0 14.61l-25.32 0Z" id="p37w162" />
<path d="M267.72 581.03l9.82 0l0 14.61l-9.82 0Z" id="p37w163" />
<path d="M280.75 581.03l34.46 0l0 14.61l-34.46 0Z" id="p37w164" />
<path d="M318.42 581.03l46.71 0l0 14.61l-46.71 0Z" id="p37w165" />
<path d="M368.34 581.03l19.51 0l0 14.61l-19.51 0Z" id="p37w166" />
<path d="M391.06 581.03l40.35 0l0 14.61l-40.35 0Z" id="p37w167" />
<path d="M143.75 606.03l23.81 0l0 14.52l-23.81 0Z" id="p37w168" />
<path d="M170.77 606.03l9.89 0l0 14.52l-9.89 0Z" id="p37w169" />
<path d="M183.87 606.03l39.03 0l0 14.52l-39.03 0Z" id="p37w170" />
<path d="M226.1 606.03l27.52 0l0 14.52l-27.52 0Z" id="p37w171" />
<path d="M256.83 606.03l25.38 0l0 14.52l-25.38 0Z" id="p37w172" />
<path d="M285.42 606.03l9.89 0l0 14.52l-9.89 0Z" id="p37w173" />
<path d="M298.52 606.03l34.49 0l0 14.52l-34.49 0Z" id="p37w174" />
<path d="M336.21 606.03l46.78 0l0 14.52l-46.78 0Z" id="p37w175" />
<path d="M386.2 606.03l19.51 0l0 14.52l-19.51 0Z" id="p37w176" />
<path d="M408.91 606.03l40.36 0l0 14.52l-40.36 0Z" id="p37w177" />
<path d="M143.75 622.7l28.06 0l0 14.52l-28.06 0Z" id="p37w178" />
<path d="M184.91 622.7l35.56 0l0 14.52l-35.56 0Z" id="p37w179" />
<path d="M223.68 622.7l54.82 0l0 14.52l-54.82 0Z" id="p37w180" />
<path d="M281.7 622.7l25.67 0l0 14.52l-25.67 0Z" id="p37w181" />
<path d="M310.58 622.7l81.03 0l0 14.52l-81.03 0Z" id="p37w182" />
<path d="M394.82 622.7l19.52 0l0 14.52l-19.52 0Z" id="p37w183" />
<path d="M417.55 622.7l48.39 0l0 14.52l-48.39 0Z" id="p37w184" />
<path d="M469.14 622.7l14.18 0l0 14.52l-14.18 0Z" id="p37w185" />
<path d="M486.53 622.7l63.88 0l0 14.52l-63.88 0Z" id="p37w186" />
<path d="M143.75 639.37l15.77 0l0 14.52l-15.77 0Z" id="p37w187" />
<path d="M162.73 639.37l25.4 0l0 14.52l-25.4 0Z" id="p37w188" />
<path d="M191.34 639.37l45.46 0l0 14.52l-45.46 0Z" id="p37w189" />
<path d="M240 639.37l33.94 0l0 14.52l-33.94 0Z" id="p37w190" />
<path d="M277.15 639.37l9.89 0l0 14.52l-9.89 0Z" id="p37w191" />
<path d="M290.24 639.37l32.34 0l0 14.52l-32.34 0Z" id="p37w192" />
<path d="M325.79 639.37l13.9 0l0 14.52l-13.9 0Z" id="p37w193" />
<path d="M342.89 639.37l40.63 0l0 14.52l-40.63 0Z" id="p37w194" />
<path d="M386.73 639.37l46.78 0l0 14.52l-46.78 0Z" id="p37w195" />
<path d="M436.71 639.37l42.33 0l0 14.52l-42.33 0Z" id="p37w196" />
<path d="M143.75 656.04l46.51 0l0 14.52l-46.51 0Z" id="p37w197" />
<path d="M193.48 656.04l15.5 0l0 14.52l-15.5 0Z" id="p37w198" />
<path d="M212.18 656.04l48.39 0l0 14.52l-48.39 0Z" id="p37w199" />
<path d="M263.78 656.04l14.18 0l0 14.52l-14.18 0Z" id="p37w200" />
<path d="M281.16 656.04l63.88 0l0 14.52l-63.88 0Z" id="p37w201" />
<path d="M348.25 656.04l14.18 0l0 14.52l-14.18 0Z" id="p37w202" />
<path d="M365.63 656.04l25.4 0l0 14.52l-25.4 0Z" id="p37w203" />
<path d="M394.24 656.04l43.23 0l0 14.52l-43.23 0Z" id="p37w204" />
<path d="M440.67 656.04l44.92 0l0 14.52l-44.92 0Z" id="p37w205" />
<path d="M488.8 656.04l32.35 0l0 14.52l-32.35 0Z" id="p37w206" />
<path d="M534.24 656.04l43.31 0l0 14.52l-43.31 0Z" id="p37w207" />
<path d="M143.75 672.72l36.63 0l0 14.52l-36.63 0Z" id="p37w208" />
<path d="M183.59 672.72l6.41 0l0 14.52l-6.41 0Z" id="p37w209" />
<path d="M212.19 672.72l19.51 0l0 14.52l-19.51 0Z" id="p37w210" />
<path d="M234.91 672.72l43.57 0l0 14.52l-43.57 0Z" id="p37w211" />
<path d="M281.69 672.72l22.99 0l0 14.52l-22.99 0Z" id="p37w212" />
<path d="M307.89 672.72l9.89 0l0 14.52l-9.89 0Z" id="p37w213" />
<path d="M320.98 672.72l39.03 0l0 14.52l-39.03 0Z" id="p37w214" />
<path d="M363.22 672.72l25.4 0l0 14.52l-25.4 0Z" id="p37w215" />
<path d="M391.82 672.72l24.31 0l0 14.52l-24.31 0Z" id="p37w216" />
<path d="M419.34 672.72l17.11 0l0 14.52l-17.11 0Z" id="p37w217" />
<path d="M439.66 672.72l15.5 0l0 14.52l-15.5 0Z" id="p37w218" />
<path d="M458.36 672.72l34.49 0l0 14.52l-34.49 0Z" id="p37w219" />
<path d="M496.06 672.72l13.9 0l0 14.52l-13.9 0Z" id="p37w220" />
<path d="M513.16 672.72l37.16 0l0 14.52l-37.16 0Z" id="p37w221" />
<path d="M143.75 689.39l27.8 0l0 14.52l-27.8 0Z" id="p37w222" />
<path d="M174.76 689.39l9.89 0l0 14.52l-9.89 0Z" id="p37w223" />
<path d="M187.85 689.39l39.03 0l0 14.52l-39.03 0Z" id="p37w224" />
<path d="M230.09 689.39l34.38 0l0 14.52l-34.38 0Z" id="p37w225" />
<path d="M267.68 689.39l28.6 0l0 14.52l-28.6 0Z" id="p37w226" />
<path d="M299.49 689.39l45.45 0l0 14.52l-45.45 0Z" id="p37w227" />
<path d="M348.15 689.39l64.62 0l0 14.52l-64.62 0Z" id="p37w228" />
<path d="M415.97 689.39l22.99 0l0 14.52l-22.99 0Z" id="p37w229" />
<path d="M442.18 689.39l16.83 0l0 14.52l-16.83 0Z" id="p37w230" />
<path d="M462.21 689.39l51.05 0l0 14.52l-51.05 0Z" id="p37w231" />
<path d="M124.06 722.73l84.94 0l0 14.52l-84.94 0Z" id="p37w232" />
<path d="M212.21 722.73l26.73 0l0 14.52l-26.73 0Z" id="p37w233" />
<path d="M242.14 722.73l9.89 0l0 14.52l-9.89 0Z" id="p37w234" />
<path d="M255.24 722.73l33.67 0l0 14.52l-33.67 0Z" id="p37w235" />
<path d="M124.06 739.4l11.22 0l0 14.52l-11.22 0Z" id="p37w236" />
<path d="M138.49 739.4l32.35 0l0 14.52l-32.35 0Z" id="p37w237" />
<path d="M174.05 739.4l15.5 0l0 14.52l-15.5 0Z" id="p37w238" />
<path d="M192.75 739.4l54 0l0 14.52l-54 0Z" id="p37w239" />
<path d="M249.96 739.4l52.48 0l0 14.52l-52.48 0Z" id="p37w240" />
<path d="M133.95 756.07l18.72 0l0 14.52l-18.72 0Z" id="p37w241" />
<path d="M155.87 756.07l63.34 0l0 14.52l-63.34 0Z" id="p37w242" />
<path d="M222.42 756.07l12.57 0l0 14.52l-12.57 0Z" id="p37w243" />
<path d="M238.2 756.07l58.27 0l0 14.52l-58.27 0Z" id="p37w244" />
<path d="M124.06 772.74l13.9 0l0 14.52l-13.9 0Z" id="p37w245" />
<path d="M141.17 772.74l45.17 0l0 14.52l-45.17 0Z" id="p37w246" />
<path d="M189.54 772.74l9.89 0l0 14.52l-9.89 0Z" id="p37w247" />
<path d="M202.64 772.74l52.34 0l0 14.52l-52.34 0Z" id="p37w248" />
<path d="M124.06 849.92l17.01 0l0 18.84l-17.01 0Z" id="p37w249" />
<path d="M144.72 849.92l40.67 0l0 18.84l-40.67 0Z" id="p37w250" />
<path d="M189.04 849.92l40.57 0l0 18.84l-40.57 0Z" id="p37w251" />
<path d="M245.75 849.92l39.25 0l0 18.84l-39.25 0Z" id="p37w252" />
<path d="M124.06 881.13l27.8 0l0 14.52l-27.8 0Z" id="p37w253" />
<path d="M155.07 881.13l15.5 0l0 14.52l-15.5 0Z" id="p37w254" />
<path d="M173.77 881.13l43.29 0l0 14.52l-43.29 0Z" id="p37w255" />
<path d="M220.27 881.13l55.16 0l0 14.52l-55.16 0Z" id="p37w256" />
<path d="M278.64 881.13l14.18 0l0 14.52l-14.18 0Z" id="p37w257" />
<path d="M296.02 881.13l43.58 0l0 14.52l-43.58 0Z" id="p37w258" />
<path d="M342.81 881.13l9.89 0l0 14.52l-9.89 0Z" id="p37w259" />
<path d="M355.91 881.13l49.18 0l0 14.52l-49.18 0Z" id="p37w260" />
<path d="M408.3 881.13l31.8 0l0 14.52l-31.8 0Z" id="p37w261" />
<path d="M443.3 881.13l25.4 0l0 14.52l-25.4 0Z" id="p37w262" />
<path d="M471.9 881.13l28.89 0l0 14.52l-28.89 0Z" id="p37w263" />
<path d="M504.01 881.13l49.75 0l0 14.52l-49.75 0Z" id="p37w264" />
<path d="M564.89 881.13l42.53 0l0 14.52l-42.53 0Z" id="p37w265" />
<path d="M610.63 881.13l9.89 0l0 14.52l-9.89 0Z" id="p37w266" />
<path d="M623.72 881.13l30.94 0l0 14.52l-30.94 0Z" id="p37w267" />
<path d="M143.75 906.14l28.06 0l0 14.52l-28.06 0Z" id="p37w268" />
<path d="M175.02 906.14l24.33 0l0 14.52l-24.33 0Z" id="p37w269" />
<path d="M202.56 906.14l53.71 0l0 14.52l-53.71 0Z" id="p37w270" />
<path d="M259.47 906.14l14.18 0l0 14.52l-14.18 0Z" id="p37w271" />
<path d="M276.86 906.14l19.51 0l0 14.52l-19.51 0Z" id="p37w272" />
<path d="M299.57 906.08l26.69 0l0 14.6l-26.69 0Z" id="p37w273" />
<path d="M329.47 906.14l35.82 0l0 14.52l-35.82 0Z" id="p37w274" />
<path d="M378.38 906.14l29.39 0l0 14.52l-29.39 0Z" id="p37w275" />
<path d="M143.75 922.81l30.74 0l0 14.52l-30.74 0Z" id="p37w276" />
<path d="M177.7 922.81l33.95 0l0 14.52l-33.95 0Z" id="p37w277" />
<path d="M214.86 922.75l23.89 0l0 14.6l-23.89 0Z" id="p37w278" />
<path d="M241.96 922.81l33.05 0l0 14.52l-33.05 0Z" id="p37w279" />
<path d="M278.22 922.81l20.85 0l0 14.52l-20.85 0Z" id="p37w280" />
<path d="M302.28 922.81l11.5 0l0 14.52l-11.5 0Z" id="p37w281" />
<path d="M316.98 922.81l12.29 0l0 14.52l-12.29 0Z" id="p37w282" />
<path d="M332.48 922.81l13.63 0l0 14.52l-13.63 0Z" id="p37w283" />
<path d="M356 922.81l9.89 0l0 14.52l-9.89 0Z" id="p37w284" />
<path d="M143.75 939.48l19.24 0l0 14.52l-19.24 0Z" id="p37w285" />
<path d="M166.21 939.42l42.73 0l0 14.6l-42.73 0Z" id="p37w286" />
<path d="M212.14 939.48l24.33 0l0 14.52l-24.33 0Z" id="p37w287" />
<path d="M239.67 939.48l37.96 0l0 14.52l-37.96 0Z" id="p37w288" />
<path d="M290.73 939.48l45.18 0l0 14.52l-45.18 0Z" id="p37w289" />
<path d="M339.12 939.48l13.91 0l0 14.52l-13.91 0Z" id="p37w290" />
<path d="M355.8 939.48l19.61 0l0 14.52l-19.61 0Z" id="p37w291" />
<path d="M378.62 939.42l15.76 0l0 14.6l-15.76 0Z" id="p37w292" />
<path d="M407.48 939.48l30.99 0l0 14.52l-30.99 0Z" id="p37w293" />
<path d="M60.69 115.95l27.93 0l0 12.29l-27.93 0Z" id="p37w294" />
<path d="M52.89 268.33l35.72 0l0 12.3l-35.72 0Z" id="p37w295" />
<path d="M44.38 280.84l44.24 0l0 12.3l-44.24 0Z" id="p37w296" />
<path d="M60.68 724.51l27.93 0l0 12.29l-27.93 0Z" id="p37w297" />
<path d="M347.52 731.25l39.48 0l0 16.96l-39.48 0Z" id="p37w298" />
<path d="M391.65 731.25l23.6 0l0 16.96l-23.6 0Z" id="p37w299" />
<path d="M419.89 731.25l64.2 0l0 16.96l-64.2 0Z" id="p37w300" />
<path d="M488.74 731.25l51.9 0l0 16.96l-51.9 0Z" id="p37w301" />
<path d="M545.29 731.25l86.84 0l0 16.96l-86.84 0Z" id="p37w302" />
<path d="M347.52 747.92l39.48 0l0 16.96l-39.48 0Z" id="p37w303" />
<path d="M391.65 747.92l23.6 0l0 16.96l-23.6 0Z" id="p37w304" />
<path d="M419.89 747.92l12.49 0l0 16.96l-12.49 0Z" id="p37w305" />
<path d="M437.03 747.92l14.43 0l0 16.96l-14.43 0Z" id="p37w306" />
<path d="M455.86 747.92l23.48 0l0 16.96l-23.48 0Z" id="p37w307" />
<path d="M483.99 747.92l51.79 0l0 16.96l-51.79 0Z" id="p37w308" />
<path d="M540.82 747.92l37.68 0l0 16.96l-37.68 0Z" id="p37w309" />
<path d="M583.15 747.92l44.2 0l0 16.96l-44.2 0Z" id="p37w310" />
<path d="M632 747.92l36.92 0l0 16.96l-36.92 0Z" id="p37w311" />
<path d="M347.52 764.59l39.48 0l0 16.96l-39.48 0Z" id="p37w312" />
<path d="M391.65 764.59l23.6 0l0 16.96l-23.6 0Z" id="p37w313" />
<path d="M419.89 764.59l51.79 0l0 16.96l-51.79 0Z" id="p37w314" />
<path d="M476.73 764.59l37.68 0l0 16.96l-37.68 0Z" id="p37w315" />
<path d="M519.06 764.59l69.98 0l0 16.96l-69.98 0Z" id="p37w316" />
<path d="M593.69 764.59l15.85 0l0 16.96l-15.85 0Z" id="p37w317" />
<path d="M614.58 764.59l58.05 0l0 16.96l-58.05 0Z" id="p37w318" />
<path d="M347.52 781.26l39.48 0l0 16.96l-39.48 0Z" id="p37w319" />
<path d="M391.65 781.26l23.6 0l0 16.96l-23.6 0Z" id="p37w320" />
<path d="M419.89 781.26l12.49 0l0 16.96l-12.49 0Z" id="p37w321" />
<path d="M437.03 781.26l25.07 0l0 16.96l-25.07 0Z" id="p37w322" />
<path d="M466.74 781.26l64.2 0l0 16.96l-64.2 0Z" id="p37w323" />
<path d="M535.58 781.26l35.64 0l0 16.96l-35.64 0Z" id="p37w324" />
<path d="M575.87 781.26l18.28 0l0 16.96l-18.28 0Z" id="p37w325" />
<path d="M599.19 781.26l47.65 0l0 16.96l-47.65 0Z" id="p37w326" />
<path d="M347.52 797.93l39.48 0l0 16.96l-39.48 0Z" id="p37w327" />
<path d="M391.65 797.93l23.6 0l0 16.96l-23.6 0Z" id="p37w328" />
<path d="M419.89 797.93l64.2 0l0 16.96l-64.2 0Z" id="p37w329" />
<path d="M488.74 797.93l17.03 0l0 16.96l-17.03 0Z" id="p37w330" />
<path d="M510.41 797.93l27.08 0l0 16.96l-27.08 0Z" id="p37w331" />
<path d="M560.54 797.93l30.68 0l0 16.96l-30.68 0Z" id="p37w332" />
<path d="M595.86 797.93l18.28 0l0 16.96l-18.28 0Z" id="p37w333" />
<path d="M618.79 797.93l50.91 0l0 16.96l-50.91 0Z" id="p37w334" />
<path d="M347.52 814.6l39.48 0l0 16.96l-39.48 0Z" id="p37w335" />
<path d="M391.65 814.6l23.6 0l0 16.96l-23.6 0Z" id="p37w336" />
<path d="M419.89 814.6l12.49 0l0 16.96l-12.49 0Z" id="p37w337" />
<path d="M437.03 814.6l50.06 0l0 16.96l-50.06 0Z" id="p37w338" />
<path d="M491.74 814.6l55.53 0l0 16.96l-55.53 0Z" id="p37w339" />
<path d="M564.21 814.6l11.59 0l0 16.96l-11.59 0Z" id="p37w340" />
<path d="M580.84 814.6l60.69 0l0 16.96l-60.69 0Z" id="p37w341" />
<path d="M68.27 39.02l42.71 0l0 15.38l-42.71 0Z" id="p37w342" />
<path d="M152.25 39.02l43.21 0l0 15.38l-43.21 0Z" id="p37w343" />
<path d="M251.4 38.6l45.06 0l0 16.09l-45.06 0Z" id="p37w344" />
<path d="M358.23 39.02l28.68 0l0 15.38l-28.68 0Z" id="p37w345" />
<path d="M390.29 39.02l45.07 0l0 15.38l-45.07 0Z" id="p37w346" />
<path d="M467.02 39.02l32.54 0l0 15.38l-32.54 0Z" id="p37w347" />
<path d="M639.4 983l51.7 0l0 12.23l-51.7 0Z" id="p37w348" />
</svg>
