<?xml version="1.0" encoding="UTF-8"?>
<svg xmlns="http://www.w3.org/2000/svg" xmlns:xlink="http://www.w3.org/1999/xlink" version="1.1" baseProfile="full" width="768" height="1024" viewBox="0,0,768,1024" preserveAspectRatio="xMinYMin meet" >
<style type="text/css">
<![CDATA[
path {fill-opacity: 0.5;fill: #00aeef;visibility: hidden;}
]]>
</style>
<path d="M124.06 772.76l43.86 0l0 14.52l-43.86 0Z" id="p15w1" />
<path d="M171.13 772.76l15.5 0l0 14.52l-15.5 0Z" id="p15w2" />
<path d="M189.83 772.76l36.61 0l0 14.52l-36.61 0Z" id="p15w3" />
<path d="M229.66 772.76l37.68 0l0 14.52l-37.68 0Z" id="p15w4" />
<path d="M270.55 772.76l11.22 0l0 14.52l-11.22 0Z" id="p15w5" />
<path d="M284.97 772.76l27.26 0l0 14.52l-27.26 0Z" id="p15w6" />
<path d="M315.44 772.76l46.78 0l0 14.52l-46.78 0Z" id="p15w7" />
<path d="M365.42 772.76l39.56 0l0 14.52l-39.56 0Z" id="p15w8" />
<path d="M408.19 772.76l37.41 0l0 14.52l-37.41 0Z" id="p15w9" />
<path d="M448.8 772.76l14.18 0l0 14.52l-14.18 0Z" id="p15w10" />
<path d="M124.06 789.43l39.51 0l0 14.52l-39.51 0Z" id="p15w11" />
<path d="M166.77 789.43l25.38 0l0 14.52l-25.38 0Z" id="p15w12" />
<path d="M195.36 789.43l18.72 0l0 14.52l-18.72 0Z" id="p15w13" />
<path d="M217.29 789.43l22.73 0l0 14.52l-22.73 0Z" id="p15w14" />
<path d="M124.06 822.77l40.89 0l0 14.52l-40.89 0Z" id="p15w15" />
<path d="M168.16 822.77l46.5 0l0 14.52l-46.5 0Z" id="p15w16" />
<path d="M217.87 822.77l14.18 0l0 14.52l-14.18 0Z" id="p15w17" />
<path d="M235.25 822.77l65.15 0l0 14.52l-65.15 0Z" id="p15w18" />
<path d="M303.61 822.77l33.05 0l0 14.52l-33.05 0Z" id="p15w19" />
<path d="M339.87 822.77l20.85 0l0 14.52l-20.85 0Z" id="p15w20" />
<path d="M363.93 822.77l25.67 0l0 14.52l-25.67 0Z" id="p15w21" />
<path d="M392.81 822.77l47.83 0l0 14.52l-47.83 0Z" id="p15w22" />
<path d="M443.85 822.77l25.38 0l0 14.52l-25.38 0Z" id="p15w23" />
<path d="M124.06 839.44l49.75 0l0 14.52l-49.75 0Z" id="p15w24" />
<path d="M177.02 839.44l28.06 0l0 14.52l-28.06 0Z" id="p15w25" />
<path d="M124.06 856.11l53.22 0l0 14.52l-53.22 0Z" id="p15w26" />
<path d="M180.49 856.11l13.9 0l0 14.52l-13.9 0Z" id="p15w27" />
<path d="M197.59 856.11l50.53 0l0 14.52l-50.53 0Z" id="p15w28" />
<path d="M251.33 856.11l30.74 0l0 14.52l-30.74 0Z" id="p15w29" />
<path d="M53.09 774.53l35.52 0l0 12.29l-35.52 0Z" id="p15w30" />
<path d="M45.69 791.27l28.55 0l0 12.3l-28.55 0Z" id="p15w31" />
<path d="M60.68 824.55l27.93 0l0 12.29l-27.93 0Z" id="p15w32" />
<path d="M462.85 57.02l10.39 0l0 13.84l-10.39 0Z" id="p15w33" />
<path d="M476.28 57.02l17.47 0l0 13.84l-17.47 0Z" id="p15w34" />
<path d="M496.79 56.95l28.99 0l0 13.84l-28.99 0Z" id="p15w35" />
<path d="M528.81 56.95l7.39 0l0 13.84l-7.39 0Z" id="p15w36" />
<path d="M536.2 56.95l22.58 0l0 13.84l-22.58 0Z" id="p15w37" />
<path d="M561.82 57.02l16.89 0l0 13.84l-16.89 0Z" id="p15w38" />
<path d="M581.75 57.02l26.58 0l0 13.84l-26.58 0Z" id="p15w39" />
<path d="M626.57 57.02l34.69 0l0 13.84l-34.69 0Z" id="p15w40" />
<path d="M664.3 57.02l14.18 0l0 13.84l-14.18 0Z" id="p15w41" />
<path d="M462.85 72.3l13.1 0l0 13.84l-13.1 0Z" id="p15w42" />
<path d="M478.99 72.3l32.91 0l0 13.84l-32.91 0Z" id="p15w43" />
<path d="M514.94 72.3l102.8 0l0 13.84l-102.8 0Z" id="p15w44" />
<path d="M620.78 72.3l19.24 0l0 13.84l-19.24 0Z" id="p15w45" />
<path d="M462.85 88.57l26.01 0l0 13.84l-26.01 0Z" id="p15w46" />
<path d="M491.9 88.57l24.81 0l0 13.84l-24.81 0Z" id="p15w47" />
<path d="M519.74 88.57l14.18 0l0 13.84l-14.18 0Z" id="p15w48" />
<path d="M476.63 104.84l22.53 0l0 13.84l-22.53 0Z" id="p15w49" />
<path d="M502.2 104.84l39.74 0l0 13.84l-39.74 0Z" id="p15w50" />
<path d="M544.98 104.84l19.74 0l0 13.84l-19.74 0Z" id="p15w51" />
<path d="M567.76 104.84l17.47 0l0 13.84l-17.47 0Z" id="p15w52" />
<path d="M587.86 104.84l79.92 0l0 13.84l-79.92 0Z" id="p15w53" />
<path d="M476.63 120.12l18.42 0l0 13.84l-18.42 0Z" id="p15w54" />
<path d="M498.09 120.05l48.13 0l0 13.91l-48.13 0Z" id="p15w55" />
<path d="M476.63 136.39l20.01 0l0 13.84l-20.01 0Z" id="p15w56" />
<path d="M499.67 136.39l50.32 0l0 13.84l-50.32 0Z" id="p15w57" />
<path d="M553.03 136.39l17.47 0l0 13.84l-17.47 0Z" id="p15w58" />
<path d="M573.54 136.39l32.91 0l0 13.84l-32.91 0Z" id="p15w59" />
<path d="M609.49 136.39l17.47 0l0 13.84l-17.47 0Z" id="p15w60" />
<path d="M629.58 136.39l60.17 0l0 13.84l-60.17 0ZM476.63 151.67l20.51 0l0 13.84l-20.51 0Z" id="p15w61" />
<path d="M503.98 151.6l48.13 0l0 13.91l-48.13 0Z" id="p15w62" />
<path d="M562.78 151.6l29.12 0l0 13.91l-29.12 0Z" id="p15w63" />
<path d="M594.95 151.6l44.58 0l0 13.91l-44.58 0Z" id="p15w64" />
<path d="M454.06 236.77l29.67 0l0 14.32l-29.67 0Z" id="p15w65" />
<path d="M486.86 235.91l16.27 0l0 14.67l-16.27 0Z" id="p15w66" />
<path d="M506.26 235.4l25.45 0l0 14.43l-25.45 0Z" id="p15w67" />
<path d="M534.84 234.65l14.3 0l0 14.72l-14.3 0Z" id="p15w68" />
<path d="M552.26 234.2l67.2 0l0 13.33l-67.2 0Z" id="p15w69" />
<path d="M454.49 253.43l16.27 0l0 14.67l-16.27 0Z" id="p15w70" />
<path d="M473.98 252.92l58.48 0l0 13.56l-58.48 0Z" id="p15w71" />
<path d="M535.67 251.3l25.61 0l0 14.42l-25.61 0Z" id="p15w72" />
<path d="M564.5 250.55l14.98 0l0 14.7l-14.98 0Z" id="p15w73" />
<path d="M454.93 270.09l46.68 0l0 13.87l-46.68 0Z" id="p15w74" />
<path d="M504.83 268.79l11.65 0l0 14.79l-11.65 0Z" id="p15w75" />
<path d="M519.69 268.4l14.98 0l0 14.7l-14.98 0Z" id="p15w76" />
<path d="M537.88 267.92l50.42 0l0 13.77l-50.42 0Z" id="p15w77" />
<path d="M111.26 324l32.19 0l0 15.09l-32.19 0Z" id="p15w78" />
<path d="M147.07 324l16.64 0l0 15.09l-16.64 0Z" id="p15w79" />
<path d="M167.32 324l30.3 0l0 15.09l-30.3 0Z" id="p15w80" />
<path d="M201.24 324l14.59 0l0 15.09l-14.59 0Z" id="p15w81" />
<path d="M219.44 324l47.1 0l0 15.09l-47.1 0Z" id="p15w82" />
<path d="M270.15 324l14.21 0l0 15.09l-14.21 0Z" id="p15w83" />
<path d="M287.98 324l74.18 0l0 15.09l-74.18 0Z" id="p15w84" />
<path d="M365.77 324l43.88 0l0 15.09l-43.88 0Z" id="p15w85" />
<path d="M413.26 324l13.91 0l0 15.09l-13.91 0Z" id="p15w86" />
<path d="M430.77 324l37.08 0l0 15.09l-37.08 0Z" id="p15w87" />
<path d="M481.57 324l31.38 0l0 15.09l-31.38 0Z" id="p15w88" />
<path d="M516.56 324l16.13 0l0 15.09l-16.13 0Z" id="p15w89" />
<path d="M536.3 324l33.71 0l0 15.09l-33.71 0Z" id="p15w90" />
<path d="M573.62 324l13.91 0l0 15.09l-13.91 0Z" id="p15w91" />
<path d="M591.14 324l43.16 0l0 15.09l-43.16 0Z" id="p15w92" />
<path d="M111.26 340.66l48.45 0l0 15.09l-48.45 0Z" id="p15w93" />
<path d="M163.32 340.66l11.88 0l0 15.09l-11.88 0Z" id="p15w94" />
<path d="M178.81 340.66l33.85 0l0 15.09l-33.85 0Z" id="p15w95" />
<path d="M216.28 340.66l19.62 0l0 15.09l-19.62 0Z" id="p15w96" />
<path d="M239.51 340.66l15.74 0l0 15.09l-15.74 0Z" id="p15w97" />
<path d="M258.87 340.66l40.45 0l0 15.09l-40.45 0Z" id="p15w98" />
<path d="M302.92 340.66l14.59 0l0 15.09l-14.59 0Z" id="p15w99" />
<path d="M321.12 340.66l39.78 0l0 15.09l-39.78 0Z" id="p15w100" />
<path d="M364.51 340.66l27.61 0l0 15.09l-27.61 0Z" id="p15w101" />
<path d="M395.73 340.66l25.06 0l0 15.09l-25.06 0Z" id="p15w102" />
<path d="M424.4 340.66l7.84 0l0 15.09l-7.84 0Z" id="p15w103" />
<path d="M456.26 340.66l50.95 0l0 15.09l-50.95 0Z" id="p15w104" />
<path d="M510.82 340.66l54.29 0l0 15.09l-54.29 0Z" id="p15w105" />
<path d="M568.71 340.66l10.42 0l0 15.09l-10.42 0Z" id="p15w106" />
<path d="M582.75 340.66l24.64 0l0 15.09l-24.64 0Z" id="p15w107" />
<path d="M111.26 357.33l79.76 0l0 15.09l-79.76 0Z" id="p15w108" />
<path d="M194.63 357.33l11.26 0l0 15.09l-11.26 0Z" id="p15w109" />
<path d="M209.5 357.33l56.15 0l0 15.09l-56.15 0Z" id="p15w110" />
<path d="M269.26 357.33l43.88 0l0 15.09l-43.88 0Z" id="p15w111" />
<path d="M316.75 357.33l10.5 0l0 15.09l-10.5 0Z" id="p15w112" />
<path d="M330.86 357.33l24.64 0l0 15.09l-24.64 0Z" id="p15w113" />
<path d="M359.11 357.33l68.86 0l0 15.09l-68.86 0Z" id="p15w114" />
<path d="M431.58 357.33l29.19 0l0 15.09l-29.19 0Z" id="p15w115" />
<path d="M464.38 357.33l23.61 0l0 15.09l-23.61 0Z" id="p15w116" />
<path d="M491.6 357.33l69.49 0l0 15.09l-69.49 0Z" id="p15w117" />
<path d="M608.92 751.93l20.81 0l0 12.56l-20.81 0Z" id="p15w118" />
<path d="M632.43 751.93l31.57 0l0 12.56l-31.57 0Z" id="p15w119" />
<path d="M541.86 780.34l44.99 0l0 15.37l-44.99 0Z" id="p15w120" />
<path d="M541.86 801.63l49.89 0l0 14.52l-49.89 0Z" id="p15w121" />
<path d="M594.96 801.63l13.9 0l0 14.52l-13.9 0Z" id="p15w122" />
<path d="M612.07 801.63l40.1 0l0 14.52l-40.1 0Z" id="p15w123" />
<path d="M655.37 801.63l25.92 0l0 14.52l-25.92 0Z" id="p15w124" />
<path d="M541.86 818.3l19.51 0l0 14.52l-19.51 0Z" id="p15w125" />
<path d="M564.57 818.3l29.94 0l0 14.52l-29.94 0Z" id="p15w126" />
<path d="M604.13 818.3l28.33 0l0 14.52l-28.33 0Z" id="p15w127" />
<path d="M635.67 818.3l35.76 0l0 14.52l-35.76 0Z" id="p15w128" />
<path d="M551.75 834.97l17.9 0l0 14.52l-17.9 0Z" id="p15w129" />
<path d="M572.85 834.97l22.99 0l0 14.52l-22.99 0Z" id="p15w130" />
<path d="M608.94 834.97l22.99 0l0 14.52l-22.99 0Z" id="p15w131" />
<path d="M541.86 851.64l58.53 0l0 14.52l-58.53 0Z" id="p15w132" />
<path d="M603.59 851.64l13.91 0l0 14.52l-13.91 0Z" id="p15w133" />
<path d="M620.71 851.64l53.19 0l0 14.52l-53.19 0Z" id="p15w134" />
<path d="M541.86 876.65l25.41 0l0 14.52l-25.41 0Z" id="p15w135" />
<path d="M570.47 876.65l22.99 0l0 14.52l-22.99 0Z" id="p15w136" />
<path d="M596.68 876.65l83.84 0l0 14.52l-83.84 0Z" id="p15w137" />
<path d="M541.86 893.32l20.85 0l0 14.52l-20.85 0Z" id="p15w138" />
<path d="M565.92 893.32l27.73 0l0 14.52l-27.73 0Z" id="p15w139" />
<path d="M178.1 396.67l58.24 0l0 18.47l-58.24 0Z" id="p15w140" />
<path d="M390.71 391.1l58.24 0l0 18.47l-58.24 0Z" id="p15w141" />
<path d="M591.5 385.84l58.24 0l0 18.47l-58.24 0Z" id="p15w142" />
<path d="M78.73 503.82l13.73 0l0 -33.3l-13.73 0Z" id="p15w143" />
<path d="M131.94 427.68l38.31 0l0 13.52l-38.31 0Z" id="p15w144" />
<path d="M173.08 426.61l14.27 0l0 14.15l-14.27 0Z" id="p15w145" />
<path d="M190.18 426.16l10.26 0l0 14.26l-10.26 0Z" id="p15w146" />
<path d="M203.27 425.81l25.42 0l0 13.86l-25.42 0Z" id="p15w147" />
<path d="M231.52 425.07l14.27 0l0 14.15l-14.27 0Z" id="p15w148" />
<path d="M248.62 424.63l23.09 0l0 13.92l-23.09 0Z" id="p15w149" />
<path d="M132.86 452.68l39.91 0l0 13.48l-39.91 0Z" id="p15w150" />
<path d="M185.48 451.3l61.08 0l0 12.92l-61.08 0Z" id="p15w151" />
<path d="M137.75 477.57l30.83 0l0 13.72l-30.83 0Z" id="p15w152" />
<path d="M171.41 476.69l38.26 0l0 13.52l-38.26 0Z" id="p15w153" />
<path d="M212.49 475.62l14.27 0l0 14.15l-14.27 0Z" id="p15w154" />
<path d="M229.59 475.17l10.26 0l0 14.26l-10.26 0Z" id="p15w155" />
<path d="M242.68 474.82l59.43 0l0 12.97l-59.43 0Z" id="p15w156" />
<path d="M101.2 495.21l11.6 0l0 14.22l-11.6 0Z" id="p15w157" />
<path d="M115.62 494.83l62.65 0l0 12.88l-62.65 0Z" id="p15w158" />
<path d="M181.09 493.11l14.27 0l0 14.15l-14.27 0Z" id="p15w159" />
<path d="M198.19 492.67l10.26 0l0 14.26l-10.26 0Z" id="p15w160" />
<path d="M211.28 492.32l32.97 0l0 13.66l-32.97 0Z" id="p15w161" />
<path d="M247.08 491.39l37.26 0l0 13.55l-37.26 0Z" id="p15w162" />
<path d="M101.85 520.21l66.31 0l0 12.79l-66.31 0Z" id="p15w163" />
<path d="M170.99 518.4l14.01 0l0 14.16l-14.01 0Z" id="p15w164" />
<path d="M187.83 517.96l26.04 0l0 13.84l-26.04 0Z" id="p15w165" />
<path d="M216.7 517.2l14.27 0l0 14.15l-14.27 0Z" id="p15w166" />
<path d="M233.8 516.75l16.15 0l0 14.1l-16.15 0Z" id="p15w167" />
<path d="M312.49 439.64l38.31 0l0 13.52l-38.31 0Z" id="p15w168" />
<path d="M353.64 438.57l14.27 0l0 14.15l-14.27 0Z" id="p15w169" />
<path d="M370.74 438.12l42.6 0l0 13.41l-42.6 0Z" id="p15w170" />
<path d="M416.17 436.93l14.01 0l0 14.16l-14.01 0Z" id="p15w171" />
<path d="M433 436.49l20.69 0l0 13.98l-20.69 0Z" id="p15w172" />
<path d="M456.52 435.87l14.27 0l0 14.15l-14.27 0Z" id="p15w173" />
<path d="M312.93 456.31l87.82 0l0 12.22l-87.82 0Z" id="p15w174" />
<path d="M314.02 497.98l30.83 0l0 13.72l-30.83 0Z" id="p15w175" />
<path d="M347.68 497.1l38.26 0l0 13.52l-38.26 0Z" id="p15w176" />
<path d="M388.77 496.02l14.55 0l0 14.14l-14.55 0Z" id="p15w177" />
<path d="M406.15 495.57l20.69 0l0 13.98l-20.69 0Z" id="p15w178" />
<path d="M314.68 522.98l66.31 0l0 12.79l-66.31 0Z" id="p15w179" />
<path d="M525.1 434.08l30.83 0l0 13.72l-30.83 0Z" id="p15w180" />
<path d="M558.76 433.19l38.26 0l0 13.52l-38.26 0Z" id="p15w181" />
<path d="M599.85 432.12l14.55 0l0 14.14l-14.55 0Z" id="p15w182" />
<path d="M617.23 431.66l57.82 0l0 13.01l-57.82 0Z" id="p15w183" />
<path d="M525.54 450.74l53.03 0l0 13.14l-53.03 0Z" id="p15w184" />
<path d="M526.19 475.75l36.19 0l0 13.58l-36.19 0Z" id="p15w185" />
<path d="M565.21 474.72l25.23 0l0 13.86l-25.23 0Z" id="p15w186" />
<path d="M82.04 630.19l13.04 0l0 -59.86l-13.04 0Z" id="p15w187" />
<path d="M103.19 571.19l63.71 0l0 12.86l-63.71 0Z" id="p15w188" />
<path d="M169.73 569.44l14.55 0l0 14.14l-14.55 0Z" id="p15w189" />
<path d="M187.11 568.99l44.73 0l0 13.35l-44.73 0Z" id="p15w190" />
<path d="M234.66 567.74l53.03 0l0 13.14l-53.03 0Z" id="p15w191" />
<path d="M103.62 587.85l21.23 0l0 13.97l-21.23 0Z" id="p15w192" />
<path d="M127.68 587.22l14.27 0l0 14.15l-14.27 0Z" id="p15w193" />
<path d="M144.78 586.77l31.9 0l0 13.69l-31.9 0Z" id="p15w194" />
<path d="M104.28 612.85l36.19 0l0 13.58l-36.19 0Z" id="p15w195" />
<path d="M143.3 611.83l25.23 0l0 13.86l-25.23 0Z" id="p15w196" />
<path d="M315.79 565.62l57.39 0l0 13.02l-57.39 0Z" id="p15w197" />
<path d="M376.01 564.04l25.77 0l0 13.85l-25.77 0Z" id="p15w198" />
<path d="M404.61 563.29l49.53 0l0 13.23l-49.53 0Z" id="p15w199" />
<path d="M456.96 561.92l35.4 0l0 13.6l-35.4 0Z" id="p15w200" />
<path d="M316.23 582.28l56.22 0l0 13.05l-56.22 0Z" id="p15w201" />
<path d="M375.28 580.74l26.04 0l0 13.84l-26.04 0Z" id="p15w202" />
<path d="M404.15 579.98l28.71 0l0 13.77l-28.71 0Z" id="p15w203" />
<path d="M317.32 623.95l61.08 0l0 12.92l-61.08 0Z" id="p15w204" />
<path d="M381.22 622.28l14.27 0l0 14.15l-14.27 0Z" id="p15w205" />
<path d="M398.32 621.83l39.12 0l0 13.5l-39.12 0Z" id="p15w206" />
<path d="M528.4 560.05l38.31 0l0 13.52l-38.31 0Z" id="p15w207" />
<path d="M569.54 558.97l14.27 0l0 14.15l-14.27 0Z" id="p15w208" />
<path d="M586.64 558.53l10.26 0l0 14.26l-10.26 0Z" id="p15w209" />
<path d="M599.73 558.18l25.42 0l0 13.86l-25.42 0Z" id="p15w210" />
<path d="M627.98 557.44l14.27 0l0 14.15l-14.27 0Z" id="p15w211" />
<path d="M645.08 556.99l61.08 0l0 12.92l-61.08 0Z" id="p15w212" />
<path d="M529.49 601.72l39.91 0l0 13.48l-39.91 0Z" id="p15w213" />
<path d="M582.11 600.34l10.26 0l0 14.26l-10.26 0Z" id="p15w214" />
<path d="M595.2 600l25.42 0l0 13.86l-25.42 0Z" id="p15w215" />
<path d="M623.45 599.26l14.27 0l0 14.15l-14.27 0Z" id="p15w216" />
<path d="M640.55 598.81l23.09 0l0 13.92l-23.09 0Z" id="p15w217" />
<path d="M83.38 681.53l14.05 0l0 -21.03l-14.05 0Z" id="p15w218" />
<path d="M105.36 654.35l33.87 0l0 13.64l-33.87 0Z" id="p15w219" />
<path d="M151.94 653.13l51.27 0l0 13.18l-51.27 0Z" id="p15w220" />
<path d="M206.04 651.72l14.27 0l0 14.15l-14.27 0Z" id="p15w221" />
<path d="M223.14 651.27l48.74 0l0 13.25l-48.74 0Z" id="p15w222" />
<path d="M317.97 648.79l35.39 0l0 13.6l-35.39 0Z" id="p15w223" />
<path d="M356.18 647.78l32.96 0l0 13.66l-32.96 0Z" id="p15w224" />
<path d="M391.97 646.85l7.86 0l0 14.32l-7.86 0Z" id="p15w225" />
<path d="M399.45 646.65l44.19 0l0 13.37l-44.19 0Z" id="p15w226" />
<path d="M446.46 645.42l14.01 0l0 14.16l-14.01 0Z" id="p15w227" />
<path d="M463.3 644.98l58.08 0l0 13l-58.08 0Z" id="p15w228" />
<path d="M318.41 665.42l25.23 0l0 13.86l-25.23 0Z" id="p15w229" />
<path d="M346.46 664.69l39.78 0l0 13.48l-39.78 0Z" id="p15w230" />
<path d="M186.51 697.53l77.08 0l0 12.51l-77.08 0Z" id="p15w231" />
<path d="M272.83 695.27l47.17 0l0 13.29l-47.17 0Z" id="p15w232" />
<path d="M322.83 693.96l14.27 0l0 14.15l-14.27 0Z" id="p15w233" />
<path d="M339.93 693.51l48.74 0l0 13.25l-48.74 0Z" id="p15w234" />
<path d="M391.49 692.16l37.26 0l0 13.55l-37.26 0Z" id="p15w235" />
<path d="M440.39 690.88l18.55 0l0 14.04l-18.55 0Z" id="p15w236" />
<path d="M461.77 690.32l52.49 0l0 13.15l-52.49 0Z" id="p15w237" />
<path d="M517.08 688.87l32.17 0l0 13.68l-32.17 0Z" id="p15w238" />
<path d="M552.07 687.96l61.08 0l0 12.92l-61.08 0Z" id="p15w239" />
<path d="M228.69 51.41l64.09 0l0 16.21l-64.09 0Z" id="p15w240" />
<path d="M296.65 52.59l14.89 0l0 15.35l-14.89 0Z" id="p15w241" />
<path d="M315.41 52.92l26.3 0l0 15.55l-26.3 0Z" id="p15w242" />
<path d="M345.58 53.45l55.93 0l0 16.07l-55.93 0Z" id="p15w243" />
<path d="M216.12 67.86l15.62 0l0 15.36l-15.62 0Z" id="p15w244" />
<path d="M235.62 68.2l60.23 0l0 16.14l-60.23 0Z" id="p15w245" />
<path d="M299.72 69.32l66.58 0l0 16.25l-66.58 0Z" id="p15w246" />
<path d="M370.18 70.55l43.58 0l0 15.85l-43.58 0Z" id="p15w247" />
<path d="M215.83 84.53l10.24 0l0 15.27l-10.24 0Z" id="p15w248" />
<path d="M229.85 84.77l7.74 0l0 15.23l-7.74 0Z" id="p15w249" />
<path d="M237.86 84.91l72.88 0l0 16.36l-72.88 0Z" id="p15w250" />
<path d="M314.52 86.25l14.59 0l0 15.35l-14.59 0Z" id="p15w251" />
<path d="M332.9 86.57l10.16 0l0 15.27l-10.16 0Z" id="p15w252" />
<path d="M346.84 86.81l69.51 0l0 16.3l-69.51 0Z" id="p15w253" />
<path d="M664.55 983l26.55 0l0 12.23l-26.55 0Z" id="p15w254" />
</svg>
