<?xml version="1.0" encoding="UTF-8"?>
<svg xmlns="http://www.w3.org/2000/svg" xmlns:xlink="http://www.w3.org/1999/xlink" version="1.1" baseProfile="full" width="768" height="1024" viewBox="0,0,768,1024" preserveAspectRatio="xMinYMin meet" >
<style type="text/css">
<![CDATA[
path {fill-opacity: 0.5;fill: #00aeef;visibility: hidden;}
]]>
</style>
<path d="M143.75 831.11l14.18 0l0 14.52l-14.18 0Z" id="p61w1" />
<path d="M161.14 831.11l47.53 0l0 14.52l-47.53 0Z" id="p61w2" />
<path d="M211.88 831.11l30.99 0l0 14.52l-30.99 0Z" id="p61w3" />
<path d="M246.08 831.11l20.85 0l0 14.52l-20.85 0Z" id="p61w4" />
<path d="M270.14 831.11l27.27 0l0 14.52l-27.27 0Z" id="p61w5" />
<path d="M300.62 831.08l63.38 0l0 14.52l-63.38 0Z" id="p61w6" />
<path d="M367.21 831.11l17.11 0l0 14.52l-17.11 0Z" id="p61w7" />
<path d="M143.75 847.78l9.89 0l0 14.52l-9.89 0Z" id="p61w8" />
<path d="M156.85 847.78l49.13 0l0 14.52l-49.13 0Z" id="p61w9" />
<path d="M219.07 847.78l28.96 0l0 14.52l-28.96 0Z" id="p61w10" />
<path d="M251.24 847.78l19.51 0l0 14.52l-19.51 0Z" id="p61w11" />
<path d="M273.95 847.78l71.37 0l0 14.52l-71.37 0Z" id="p61w12" />
<path d="M348.53 847.78l47.58 0l0 14.52l-47.58 0Z" id="p61w13" />
<path d="M143.75 864.45l26.73 0l0 14.52l-26.73 0Z" id="p61w14" />
<path d="M173.69 864.45l9.89 0l0 14.52l-9.89 0Z" id="p61w15" />
<path d="M186.78 864.45l18.99 0l0 14.52l-18.99 0Z" id="p61w16" />
<path d="M143.75 889.46l22.73 0l0 14.52l-22.73 0Z" id="p61w17" />
<path d="M169.69 889.46l55.05 0l0 14.52l-55.05 0Z" id="p61w18" />
<path d="M227.95 889.46l28.87 0l0 14.52l-28.87 0Z" id="p61w19" />
<path d="M260.03 889.46l27.27 0l0 14.52l-27.27 0Z" id="p61w20" />
<path d="M300.39 889.46l9.89 0l0 14.52l-9.89 0Z" id="p61w21" />
<path d="M313.48 889.46l36.35 0l0 14.52l-36.35 0Z" id="p61w22" />
<path d="M124.06 922.81l57.21 0l0 14.52l-57.21 0Z" id="p61w23" />
<path d="M184.47 922.81l20.85 0l0 14.52l-20.85 0Z" id="p61w24" />
<path d="M208.54 922.81l46.17 0l0 14.52l-46.17 0Z" id="p61w25" />
<path d="M257.92 922.81l11.22 0l0 14.52l-11.22 0Z" id="p61w26" />
<path d="M272.34 922.81l62.47 0l0 14.52l-62.47 0Z" id="p61w27" />
<path d="M60.68 891.24l27.93 0l0 12.29l-27.93 0Z" id="p61w28" />
<path d="M60.68 924.59l27.93 0l0 12.29l-27.93 0Z" id="p61w29" />
<path d="M52.89 941.32l35.72 0l0 12.3l-35.72 0Z" id="p61w30" />
<path d="M44.38 952.44l44.24 0l0 12.3l-44.24 0Z" id="p61w31" />
<path d="M462.85 811.82l10.39 0l0 13.84l-10.39 0Z" id="p61w32" />
<path d="M476.28 811.82l17.47 0l0 13.84l-17.47 0Z" id="p61w33" />
<path d="M496.79 811.74l28.99 0l0 13.84l-28.99 0Z" id="p61w34" />
<path d="M528.81 811.74l29.97 0l0 13.84l-29.97 0Z" id="p61w35" />
<path d="M561.82 811.82l13.42 0l0 13.84l-13.42 0Z" id="p61w36" />
<path d="M578.28 811.74l32.1 0l0 13.84l-32.1 0Z" id="p61w37" />
<path d="M613.42 811.74l52.83 0l0 13.84l-52.83 0Z" id="p61w38" />
<path d="M669.29 811.82l16.89 0l0 13.84l-16.89 0Z" id="p61w39" />
<path d="M462.85 827.1l33.42 0l0 13.84l-33.42 0Z" id="p61w40" />
<path d="M499.31 827.1l29.42 0l0 13.84l-29.42 0Z" id="p61w41" />
<path d="M531.77 827.1l36.95 0l0 13.84l-36.95 0Z" id="p61w42" />
<path d="M571.76 827.1l14.18 0l0 13.84l-14.18 0Z" id="p61w43" />
<path d="M588.98 827.1l14.93 0l0 13.84l-14.93 0Z" id="p61w44" />
<path d="M606.95 827.1l22.53 0l0 13.84l-22.53 0Z" id="p61w45" />
<path d="M632.52 827.1l61.49 0l0 13.84l-61.49 0Z" id="p61w46" />
<path d="M462.85 842.38l16.64 0l0 13.84l-16.64 0Z" id="p61w47" />
<path d="M482.53 842.38l117.17 0l0 13.84l-117.17 0Z" id="p61w48" />
<path d="M602.4 842.38l18.07 0l0 13.84l-18.07 0Z" id="p61w49" />
<path d="M623.5 842.38l16.21 0l0 13.84l-16.21 0Z" id="p61w50" />
<path d="M642.75 842.38l32.77 0l0 13.84l-32.77 0Z" id="p61w51" />
<path d="M678.56 842.38l11.89 0l0 13.84l-11.89 0Z" id="p61w52" />
<path d="M462.85 857.66l26.83 0l0 13.84l-26.83 0Z" id="p61w53" />
<path d="M492.72 857.66l63.9 0l0 13.84l-63.9 0Z" id="p61w54" />
<path d="M462.85 873.93l26.01 0l0 13.84l-26.01 0Z" id="p61w55" />
<path d="M491.9 873.93l24.81 0l0 13.84l-24.81 0Z" id="p61w56" />
<path d="M519.74 873.93l14.18 0l0 13.84l-14.18 0Z" id="p61w57" />
<path d="M476.63 890.19l49.38 0l0 13.84l-49.38 0Z" id="p61w58" />
<path d="M529.05 890.19l11.89 0l0 13.84l-11.89 0Z" id="p61w59" />
<path d="M543.98 890.19l66.85 0l0 13.84l-66.85 0Z" id="p61w60" />
<path d="M476.63 906.46l73.05 0l0 13.84l-73.05 0Z" id="p61w61" />
<path d="M552.72 906.46l37.95 0l0 13.84l-37.95 0Z" id="p61w62" />
<path d="M593.71 906.46l11.89 0l0 13.84l-11.89 0Z" id="p61w63" />
<path d="M608.64 906.46l61.2 0l0 13.84l-61.2 0Z" id="p61w64" />
<path d="M620.03 983l71.07 0l0 12.23l-71.07 0Z" id="p61w65" />
</svg>
