<?xml version="1.0" encoding="UTF-8"?>
<svg xmlns="http://www.w3.org/2000/svg" xmlns:xlink="http://www.w3.org/1999/xlink" version="1.1" baseProfile="full" width="768" height="1024" viewBox="0,0,768,1024" preserveAspectRatio="xMinYMin meet" >
<style type="text/css">
<![CDATA[
path {fill-opacity: 0.5;fill: #00aeef;visibility: hidden;}
]]>
</style>
<path d="M124.06 107.98l24.84 0l0 18.84l-24.84 0Z" id="p85w1" />
<path d="M152.56 107.98l60.04 0l0 18.84l-60.04 0Z" id="p85w2" />
<path d="M216.25 107.98l41.34 0l0 18.84l-41.34 0Z" id="p85w3" />
<path d="M261.24 107.98l18.36 0l0 18.84l-18.36 0Z" id="p85w4" />
<path d="M283.25 107.98l66.28 0l0 18.84l-66.28 0Z" id="p85w5" />
<path d="M353.18 107.98l19.04 0l0 18.84l-19.04 0Z" id="p85w6" />
<path d="M375.87 107.98l54 0l0 18.84l-54 0Z" id="p85w7" />
<path d="M124.06 139.19l46.51 0l0 14.52l-46.51 0Z" id="p85w8" />
<path d="M173.78 139.19l9.89 0l0 14.52l-9.89 0Z" id="p85w9" />
<path d="M186.88 139.19l62.02 0l0 14.52l-62.02 0Z" id="p85w10" />
<path d="M261.99 139.19l34.49 0l0 14.52l-34.49 0Z" id="p85w11" />
<path d="M299.69 139.19l13.9 0l0 14.52l-13.9 0Z" id="p85w12" />
<path d="M316.8 139.19l45.01 0l0 14.52l-45.01 0Z" id="p85w13" />
<path d="M365.01 139.19l33.95 0l0 14.52l-33.95 0Z" id="p85w14" />
<path d="M402.17 139.19l28.33 0l0 14.52l-28.33 0Z" id="p85w15" />
<path d="M433.7 139.19l28.06 0l0 14.52l-28.06 0Z" id="p85w16" />
<path d="M464.97 139.19l13.9 0l0 14.52l-13.9 0Z" id="p85w17" />
<path d="M482.08 139.19l47.57 0l0 14.52l-47.57 0Z" id="p85w18" />
<path d="M532.86 139.19l14.18 0l0 14.52l-14.18 0Z" id="p85w19" />
<path d="M550.24 139.19l44.65 0l0 14.52l-44.65 0Z" id="p85w20" />
<path d="M281.88 177.71l39.38 0l0 21.42l-39.38 0Z" id="p85w21" />
<path d="M397.43 177.71l37.51 0l0 21.42l-37.51 0Z" id="p85w22" />
<path d="M513.93 177.71l35.35 0l0 21.42l-35.35 0Z" id="p85w23" />
<path d="M628.44 177.71l36.35 0l0 21.42l-36.35 0Z" id="p85w24" />
<path d="M166.68 177.71l39.76 0l0 21.42l-39.76 0Z" id="p85w25" />
<path d="M143.75 222.55l43.86 0l0 14.52l-43.86 0Z" id="p85w26" />
<path d="M190.82 222.55l9.89 0l0 14.52l-9.89 0Z" id="p85w27" />
<path d="M203.92 222.55l28.33 0l0 14.52l-28.33 0Z" id="p85w28" />
<path d="M235.45 222.55l20.85 0l0 14.52l-20.85 0Z" id="p85w29" />
<path d="M259.51 222.55l50.5 0l0 14.52l-50.5 0Z" id="p85w30" />
<path d="M313.22 222.55l22.73 0l0 14.52l-22.73 0Z" id="p85w31" />
<path d="M143.75 239.22l35.28 0l0 14.52l-35.28 0Z" id="p85w32" />
<path d="M182.24 239.22l34.67 0l0 14.52l-34.67 0Z" id="p85w33" />
<path d="M220.13 239.22l62.83 0l0 14.52l-62.83 0Z" id="p85w34" />
<path d="M296.05 239.22l33.95 0l0 14.52l-33.95 0Z" id="p85w35" />
<path d="M333.2 239.22l25.12 0l0 14.52l-25.12 0Z" id="p85w36" />
<path d="M361.53 239.22l13.9 0l0 14.52l-13.9 0Z" id="p85w37" />
<path d="M378.64 239.22l9.89 0l0 14.52l-9.89 0Z" id="p85w38" />
<path d="M391.73 239.22l24.31 0l0 14.52l-24.31 0Z" id="p85w39" />
<path d="M419.25 239.22l79.9 0l0 14.52l-79.9 0Z" id="p85w40" />
<path d="M502.35 239.2l61.22 0l0 14.52l-61.22 0Z" id="p85w41" />
<path d="M129.07 377.37l9.89 0l0 14.52l-9.89 0Z" id="p85w42" />
<path d="M141.42 377.37l88.47 0l0 14.52l-88.47 0Z" id="p85w43" />
<path d="M247.62 377.37l9.89 0l0 14.52l-9.89 0Z" id="p85w44" />
<path d="M260.71 377.37l36.89 0l0 14.52l-36.89 0Z" id="p85w45" />
<path d="M247.62 392.66l63.28 0l0 14.52l-63.28 0Z" id="p85w46" />
<path d="M366.16 377.37l42.78 0l0 14.52l-42.78 0Z" id="p85w47" />
<path d="M412.15 377.37l37.41 0l0 14.52l-37.41 0Z" id="p85w48" />
<path d="M484.71 377.37l15.5 0l0 14.52l-15.5 0Z" id="p85w49" />
<path d="M503.41 377.37l52.92 0l0 14.52l-52.92 0Z" id="p85w50" />
<path d="M484.71 392.66l14.18 0l0 14.52l-14.18 0Z" id="p85w51" />
<path d="M502.09 392.66l41.97 0l0 14.52l-41.97 0Z" id="p85w52" />
<path d="M603.26 377.37l41.43 0l0 14.52l-41.43 0Z" id="p85w53" />
<path d="M647.9 377.37l13.9 0l0 14.52l-13.9 0Z" id="p85w54" />
<path d="M603.26 392.66l59.61 0l0 14.52l-59.61 0Z" id="p85w55" />
<path d="M143.76 422.63l43.86 0l0 14.52l-43.86 0Z" id="p85w56" />
<path d="M190.83 422.63l9.89 0l0 14.52l-9.89 0Z" id="p85w57" />
<path d="M203.92 422.63l56.41 0l0 14.52l-56.41 0Z" id="p85w58" />
<path d="M263.54 422.63l20.85 0l0 14.52l-20.85 0Z" id="p85w59" />
<path d="M287.6 422.63l54.26 0l0 14.52l-54.26 0Z" id="p85w60" />
<path d="M345.07 422.63l20.05 0l0 14.52l-20.05 0Z" id="p85w61" />
<path d="M368.33 422.63l11.22 0l0 14.52l-11.22 0Z" id="p85w62" />
<path d="M382.76 422.63l30.2 0l0 14.52l-30.2 0Z" id="p85w63" />
<path d="M416.16 422.63l15.5 0l0 14.52l-15.5 0Z" id="p85w64" />
<path d="M434.87 422.63l40.1 0l0 14.52l-40.1 0Z" id="p85w65" />
<path d="M478.17 422.63l19.52 0l0 14.52l-19.52 0Z" id="p85w66" />
<path d="M500.9 422.63l30.73 0l0 14.52l-30.73 0Z" id="p85w67" />
<path d="M534.84 422.63l11.22 0l0 14.52l-11.22 0Z" id="p85w68" />
<path d="M549.27 422.63l19.52 0l0 14.52l-19.52 0Z" id="p85w69" />
<path d="M572 422.63l40.28 0l0 14.52l-40.28 0Z" id="p85w70" />
<path d="M143.76 439.3l34.21 0l0 14.52l-34.21 0Z" id="p85w71" />
<path d="M177.97 439.3l62.02 0l0 14.52l-62.02 0Z" id="p85w72" />
<path d="M128.98 497.07l25.38 0l0 14.52l-25.38 0Z" id="p85w73" />
<path d="M157.57 497.07l14.18 0l0 14.52l-14.18 0Z" id="p85w74" />
<path d="M174.96 497.07l58.54 0l0 14.52l-58.54 0Z" id="p85w75" />
<path d="M128.98 512.35l25.4 0l0 14.52l-25.4 0Z" id="p85w76" />
<path d="M157.59 512.35l15.5 0l0 14.52l-15.5 0Z" id="p85w77" />
<path d="M176.29 512.35l69.24 0l0 14.52l-69.24 0Z" id="p85w78" />
<path d="M267.82 497.46l27.53 0l0 14.52l-27.53 0Z" id="p85w79" />
<path d="M298.56 497.46l9.89 0l0 14.52l-9.89 0Z" id="p85w80" />
<path d="M311.65 497.46l43.83 0l0 14.52l-43.83 0Z" id="p85w81" />
<path d="M358.69 497.46l41.43 0l0 14.52l-41.43 0Z" id="p85w82" />
<path d="M267.82 512.75l37.9 0l0 14.52l-37.9 0Z" id="p85w83" />
<path d="M308.92 512.75l18.72 0l0 14.52l-18.72 0Z" id="p85w84" />
<path d="M327.63 512.75l28.87 0l0 14.52l-28.87 0Z" id="p85w85" />
<path d="M128.98 466.78l41.7 0l0 14.52l-41.7 0Z" id="p85w86" />
<path d="M173.89 466.78l71.1 0l0 14.52l-71.1 0Z" id="p85w87" />
<path d="M262.72 466.78l34.41 0l0 14.52l-34.41 0Z" id="p85w88" />
<path d="M300.33 466.78l14.18 0l0 14.52l-14.18 0Z" id="p85w89" />
<path d="M317.72 466.78l29.92 0l0 14.52l-29.92 0Z" id="p85w90" />
<path d="M365.36 466.78l36.89 0l0 14.52l-36.89 0Z" id="p85w91" />
<path d="M405.46 466.78l9.89 0l0 14.52l-9.89 0Z" id="p85w92" />
<path d="M418.56 466.78l22.45 0l0 14.52l-22.45 0Z" id="p85w93" />
<path d="M444.21 466.78l13.9 0l0 14.52l-13.9 0Z" id="p85w94" />
<path d="M461.32 466.78l41.97 0l0 14.52l-41.97 0Z" id="p85w95" />
<path d="M143.76 547.68l22.73 0l0 14.52l-22.73 0Z" id="p85w96" />
<path d="M179.58 547.68l28.96 0l0 14.52l-28.96 0Z" id="p85w97" />
<path d="M211.75 547.68l13.9 0l0 14.52l-13.9 0Z" id="p85w98" />
<path d="M228.85 547.68l9.89 0l0 14.52l-9.89 0Z" id="p85w99" />
<path d="M241.95 547.68l24.31 0l0 14.52l-24.31 0Z" id="p85w100" />
<path d="M269.47 547.68l11.22 0l0 14.52l-11.22 0Z" id="p85w101" />
<path d="M283.89 547.68l13.9 0l0 14.52l-13.9 0Z" id="p85w102" />
<path d="M315.16 547.68l11.22 0l0 14.52l-11.22 0Z" id="p85w103" />
<path d="M346.97 547.68l47.31 0l0 14.52l-47.31 0Z" id="p85w104" />
<path d="M397.49 547.68l13.9 0l0 14.52l-13.9 0Z" id="p85w105" />
<path d="M414.59 547.68l50.53 0l0 14.52l-50.53 0Z" id="p85w106" />
<path d="M468.33 547.68l43.29 0l0 14.52l-43.29 0Z" id="p85w107" />
<path d="M514.83 547.68l12.57 0l0 14.52l-12.57 0Z" id="p85w108" />
<path d="M530.6 547.68l20.85 0l0 14.52l-20.85 0Z" id="p85w109" />
<path d="M554.67 547.68l42.24 0l0 14.52l-42.24 0Z" id="p85w110" />
<path d="M600.11 547.68l36.63 0l0 14.52l-36.63 0Z" id="p85w111" />
<path d="M124.06 613.73l15.59 0l0 18.84l-15.59 0Z" id="p85w112" />
<path d="M143.3 613.73l12.62 0l0 18.84l-12.62 0Z" id="p85w113" />
<path d="M159.57 613.73l38.85 0l0 18.84l-38.85 0Z" id="p85w114" />
<path d="M202.08 613.73l46.52 0l0 18.84l-46.52 0Z" id="p85w115" />
<path d="M252.24 613.73l35.3 0l0 18.84l-35.3 0Z" id="p85w116" />
<path d="M291.19 613.73l18.36 0l0 18.84l-18.36 0Z" id="p85w117" />
<path d="M313.2 613.73l54.4 0l0 18.84l-54.4 0Z" id="p85w118" />
<path d="M124.06 647.71l12.83 0l0 14.52l-12.83 0Z" id="p85w119" />
<path d="M140.1 647.71l31.02 0l0 14.52l-31.02 0Z" id="p85w120" />
<path d="M174.32 647.71l13.9 0l0 14.52l-13.9 0Z" id="p85w121" />
<path d="M191.43 647.71l73.97 0l0 14.52l-73.97 0Z" id="p85w122" />
<path d="M268.61 647.71l11.22 0l0 14.52l-11.22 0Z" id="p85w123" />
<path d="M283.03 647.71l13.9 0l0 14.52l-13.9 0Z" id="p85w124" />
<path d="M300.14 647.71l67.29 0l0 14.52l-67.29 0Z" id="p85w125" />
<path d="M370.64 647.71l13.63 0l0 14.52l-13.63 0Z" id="p85w126" />
<path d="M387.48 647.71l41.97 0l0 14.52l-41.97 0Z" id="p85w127" />
<path d="M124.06 664.38l47.87 0l0 14.52l-47.87 0Z" id="p85w128" />
<path d="M175.14 664.38l14.18 0l0 14.52l-14.18 0Z" id="p85w129" />
<path d="M192.53 664.38l50.01 0l0 14.52l-50.01 0Z" id="p85w130" />
<path d="M245.75 664.38l36.63 0l0 14.52l-36.63 0Z" id="p85w131" />
<path d="M285.58 664.38l13.9 0l0 14.52l-13.9 0Z" id="p85w132" />
<path d="M302.69 664.38l9.89 0l0 14.52l-9.89 0Z" id="p85w133" />
<path d="M315.78 664.38l48.39 0l0 14.52l-48.39 0Z" id="p85w134" />
<path d="M376.02 664.38l11.5 0l0 14.52l-11.5 0Z" id="p85w135" />
<path d="M390.73 664.38l8.82 0l0 14.52l-8.82 0Z" id="p85w136" />
<path d="M402.75 664.38l28.87 0l0 14.52l-28.87 0Z" id="p85w137" />
<path d="M124.06 681.05l34.48 0l0 14.52l-34.48 0Z" id="p85w138" />
<path d="M161.75 681.05l25.65 0l0 14.52l-25.65 0Z" id="p85w139" />
<path d="M190.6 681.05l13.63 0l0 14.52l-13.63 0Z" id="p85w140" />
<path d="M207.44 681.05l41.97 0l0 14.52l-41.97 0Z" id="p85w141" />
<path d="M272.24 681.05l20.58 0l0 14.52l-20.58 0Z" id="p85w142" />
<path d="M296.02 681.05l36.09 0l0 14.52l-36.09 0Z" id="p85w143" />
<path d="M335.32 681.05l14.18 0l0 14.52l-14.18 0Z" id="p85w144" />
<path d="M352.7 681.05l39.03 0l0 14.52l-39.03 0Z" id="p85w145" />
<path d="M394.94 681.05l32.87 0l0 14.52l-32.87 0Z" id="p85w146" />
<path d="M124.06 697.72l45.45 0l0 14.52l-45.45 0Z" id="p85w147" />
<path d="M181.81 697.72l53.72 0l0 14.52l-53.72 0Z" id="p85w148" />
<path d="M238.74 697.72l11.22 0l0 14.52l-11.22 0Z" id="p85w149" />
<path d="M253.16 697.72l41.97 0l0 14.52l-41.97 0Z" id="p85w150" />
<path d="M298.35 697.72l49.46 0l0 14.52l-49.46 0Z" id="p85w151" />
<path d="M351.01 697.72l14.18 0l0 14.52l-14.18 0Z" id="p85w152" />
<path d="M368.39 697.72l45.97 0l0 14.52l-45.97 0Z" id="p85w153" />
<path d="M124.06 714.37l34.23 0l0 14.52l-34.23 0Z" id="p85w154" />
<path d="M161.49 714.39l17.11 0l0 14.52l-17.11 0Z" id="p85w155" />
<path d="M181.81 714.39l12.57 0l0 14.52l-12.57 0Z" id="p85w156" />
<path d="M197.58 714.39l29.41 0l0 14.52l-29.41 0Z" id="p85w157" />
<path d="M143.75 739.41l51.42 0l0 14.52l-51.42 0Z" id="p85w158" />
<path d="M198.39 739.41l13.9 0l0 14.52l-13.9 0Z" id="p85w159" />
<path d="M215.49 739.41l44.85 0l0 14.52l-44.85 0Z" id="p85w160" />
<path d="M269.97 739.41l30.99 0l0 14.52l-30.99 0Z" id="p85w161" />
<path d="M304.16 739.41l14.18 0l0 14.52l-14.18 0Z" id="p85w162" />
<path d="M321.55 739.41l45.97 0l0 14.52l-45.97 0Z" id="p85w163" />
<path d="M370.73 739.41l26.73 0l0 14.52l-26.73 0Z" id="p85w164" />
<path d="M400.67 739.41l33.95 0l0 14.52l-33.95 0Z" id="p85w165" />
<path d="M143.75 756.08l25.67 0l0 14.52l-25.67 0Z" id="p85w166" />
<path d="M172.64 756.08l55.05 0l0 14.52l-55.05 0Z" id="p85w167" />
<path d="M230.9 756.08l15.5 0l0 14.52l-15.5 0Z" id="p85w168" />
<path d="M249.6 756.08l57.22 0l0 14.52l-57.22 0Z" id="p85w169" />
<path d="M310.03 756.08l13.9 0l0 14.52l-13.9 0Z" id="p85w170" />
<path d="M327.13 756.08l9.89 0l0 14.52l-9.89 0Z" id="p85w171" />
<path d="M340.23 756.08l16.04 0l0 14.52l-16.04 0Z" id="p85w172" />
<path d="M359.47 756.08l13.63 0l0 14.52l-13.63 0Z" id="p85w173" />
<path d="M376.31 756.08l44.65 0l0 14.52l-44.65 0Z" id="p85w174" />
<path d="M143.75 772.75l41.71 0l0 14.52l-41.71 0Z" id="p85w175" />
<path d="M188.67 772.75l19.51 0l0 14.52l-19.51 0Z" id="p85w176" />
<path d="M211.39 772.75l38.5 0l0 14.52l-38.5 0Z" id="p85w177" />
<path d="M253.1 772.75l13.91 0l0 14.52l-13.91 0Z" id="p85w178" />
<path d="M270.22 772.75l19.51 0l0 14.52l-19.51 0Z" id="p85w179" />
<path d="M292.93 772.75l43.83 0l0 14.52l-43.83 0Z" id="p85w180" />
<path d="M339.98 772.75l28.87 0l0 14.52l-28.87 0Z" id="p85w181" />
<path d="M372.05 772.75l7.48 0l0 14.52l-7.48 0Z" id="p85w182" />
<path d="M379.53 772.75l14.43 0l0 14.52l-14.43 0Z" id="p85w183" />
<path d="M407.05 772.75l28.06 0l0 14.52l-28.06 0Z" id="p85w184" />
<path d="M143.75 789.42l25.4 0l0 14.52l-25.4 0Z" id="p85w185" />
<path d="M172.36 789.42l28.06 0l0 14.52l-28.06 0Z" id="p85w186" />
<path d="M203.63 789.42l25.67 0l0 14.52l-25.67 0Z" id="p85w187" />
<path d="M232.51 789.42l29.69 0l0 14.52l-29.69 0Z" id="p85w188" />
<path d="M143.75 814.43l45.19 0l0 14.52l-45.19 0Z" id="p85w189" />
<path d="M192.16 814.43l40.89 0l0 14.52l-40.89 0Z" id="p85w190" />
<path d="M236.25 814.43l18.72 0l0 14.52l-18.72 0Z" id="p85w191" />
<path d="M258.18 814.43l51.58 0l0 14.52l-51.58 0Z" id="p85w192" />
<path d="M312.97 814.43l26.73 0l0 14.52l-26.73 0Z" id="p85w193" />
<path d="M342.9 814.43l9.89 0l0 14.52l-9.89 0Z" id="p85w194" />
<path d="M356 814.43l36.35 0l0 14.52l-36.35 0Z" id="p85w195" />
<path d="M395.56 814.43l41.97 0l0 14.52l-41.97 0Z" id="p85w196" />
<path d="M143.75 831.1l39.24 0l0 14.52l-39.24 0Z" id="p85w197" />
<path d="M186.2 831.1l49.17 0l0 14.52l-49.17 0Z" id="p85w198" />
<path d="M238.58 831.1l19.79 0l0 14.52l-19.79 0Z" id="p85w199" />
<path d="M261.57 831.1l48.65 0l0 14.52l-48.65 0Z" id="p85w200" />
<path d="M143.75 856.11l28.33 0l0 14.52l-28.33 0Z" id="p85w201" />
<path d="M185.17 856.11l9.89 0l0 14.52l-9.89 0Z" id="p85w202" />
<path d="M198.27 856.11l7.48 0l0 14.52l-7.48 0Z" id="p85w203" />
<path d="M216.18 856.11l24.06 0l0 14.52l-24.06 0Z" id="p85w204" />
<path d="M243.45 856.11l45.97 0l0 14.52l-45.97 0Z" id="p85w205" />
<path d="M292.63 856.11l16.83 0l0 14.52l-16.83 0Z" id="p85w206" />
<path d="M312.66 856.11l9.89 0l0 14.52l-9.89 0Z" id="p85w207" />
<path d="M325.76 856.11l22.99 0l0 14.52l-22.99 0Z" id="p85w208" />
<path d="M351.96 856.11l67.47 0l0 14.52l-67.47 0Z" id="p85w209" />
<path d="M143.75 872.76l22.45 0l0 14.52l-22.45 0Z" id="p85w210" />
<path d="M169.41 872.76l92.65 0l0 14.52l-92.65 0Z" id="p85w211" />
<path d="M267.95 872.78l31.55 0l0 14.52l-31.55 0Z" id="p85w212" />
<path d="M299.49 872.78l12.57 0l0 14.52l-12.57 0Z" id="p85w213" />
<path d="M315.27 872.78l28.87 0l0 14.52l-28.87 0Z" id="p85w214" />
<path d="M347.34 872.78l31.84 0l0 14.52l-31.84 0Z" id="p85w215" />
<path d="M124.06 897.81l10.16 0l0 14.61l-10.16 0Z" id="p85w216" />
<path d="M137.43 897.81l25.4 0l0 14.61l-25.4 0Z" id="p85w217" />
<path d="M166.04 897.81l35.28 0l0 14.61l-35.28 0Z" id="p85w218" />
<path d="M204.52 897.81l13.56 0l0 14.61l-13.56 0Z" id="p85w219" />
<path d="M221.29 897.81l44.1 0l0 14.61l-44.1 0Z" id="p85w220" />
<path d="M268.42 897.81l25.4 0l0 14.61l-25.4 0Z" id="p85w221" />
<path d="M297.03 897.81l67.08 0l0 14.61l-67.08 0Z" id="p85w222" />
<path d="M367.31 897.81l20.84 0l0 14.61l-20.84 0Z" id="p85w223" />
<path d="M391.36 897.81l36.54 0l0 14.61l-36.54 0Z" id="p85w224" />
<path d="M124.06 914.48l42.77 0l0 14.61l-42.77 0Z" id="p85w225" />
<path d="M166.83 914.48l35.26 0l0 14.61l-35.26 0Z" id="p85w226" />
<path d="M53.09 140.96l35.52 0l0 12.29l-35.52 0Z" id="p85w227" />
<path d="M33.69 157.7l40.55 0l0 12.3l-40.55 0Z" id="p85w228" />
<path d="M52.89 174.38l35.72 0l0 12.3l-35.72 0Z" id="p85w229" />
<path d="M39.49 186.88l49.13 0l0 12.3l-49.13 0Z" id="p85w230" />
<path d="M60.68 549.45l27.93 0l0 12.29l-27.93 0Z" id="p85w231" />
<path d="M149.26 589.03l32.88 0l0 12.56l-32.88 0Z" id="p85w232" />
<path d="M184.84 589.03l36.55 0l0 12.56l-36.55 0Z" id="p85w233" />
<path d="M184.84 589.03l36.55 0l0 12.56l-36.55 0Z" id="p85w234" />
<path d="M62.33 649.48l26.4 0l0 12.29l-26.4 0Z" id="p85w235" />
<path d="M60.8 666.16l27.93 0l0 12.29l-27.93 0Z" id="p85w236" />
<path d="M53.01 816.28l35.72 0l0 12.3l-35.72 0Z" id="p85w237" />
<path d="M44.5 828.78l44.24 0l0 12.3l-44.24 0Z" id="p85w238" />
<path d="M482.08 743.52l23.71 0l0 16.34l-23.71 0Z" id="p85w239" />
<path d="M522.79 743.52l23.63 0l0 16.34l-23.63 0Z" id="p85w240" />
<path d="M534.22 627.78l21.87 0l0 8.54l-21.87 0Z" id="p85w241" />
<path d="M509.35 697.93l20.73 0l0 10.39l-20.73 0Z" id="p85w242" />
<path d="M537.35 697.93l33.22 0l0 10.39l-33.22 0Z" id="p85w243" />
<path d="M577.85 697.93l20.07 0l0 10.39l-20.07 0Z" id="p85w244" />
<path d="M605.2 697.93l30.54 0l0 10.39l-30.54 0Z" id="p85w245" />
<path d="M522.13 708.08l23.31 0l0 10.39l-23.31 0Z" id="p85w246" />
<path d="M552.71 708.08l46.19 0l0 10.39l-46.19 0Z" id="p85w247" />
<path d="M606.18 708.08l18.31 0l0 10.39l-18.31 0Z" id="p85w248" />
<path d="M469.14 762.95l20.19 0l0 11.56l-20.19 0Z" id="p85w249" />
<path d="M491.02 762.95l11.7 0l0 11.56l-11.7 0Z" id="p85w250" />
<path d="M504.42 762.95l27.01 0l0 11.56l-27.01 0Z" id="p85w251" />
<path d="M533.12 762.95l8.27 0l0 11.56l-8.27 0Z" id="p85w252" />
<path d="M543.09 762.95l31.41 0l0 11.56l-31.41 0Z" id="p85w253" />
<path d="M469.75 650.26l47.94 0l0 17.19l-47.94 0Z" id="p85w254" />
<path d="M521.13 650.26l18.84 0l0 17.19l-18.84 0Z" id="p85w255" />
<path d="M543.41 650.26l111.66 0l0 17.19l-111.66 0Z" id="p85w256" />
<path d="M468.92 666.08l13.2 0l0 13.37l-13.2 0Z" id="p85w257" />
<path d="M484.49 666.08l15.06 0l0 13.37l-15.06 0Z" id="p85w258" />
<path d="M501.92 666.08l85.64 0l0 13.37l-85.64 0Z" id="p85w259" />
<path d="M589.94 666.08l16.36 0l0 13.37l-16.36 0Z" id="p85w260" />
<path d="M608.67 666.08l45.58 0l0 13.37l-45.58 0Z" id="p85w261" />
<path d="M563.26 897.68l42.09 0l0 18.82l-42.09 0Z" id="p85w262" />
<path d="M608.06 897.68l52.51 0l0 18.82l-52.51 0Z" id="p85w263" />
<path d="M566.13 917.74l95.31 0l0 10.27l-95.31 0Z" id="p85w264" />
<path d="M68.27 39.02l42.71 0l0 15.38l-42.71 0Z" id="p85w265" />
<path d="M152.25 39.02l43.21 0l0 15.38l-43.21 0Z" id="p85w266" />
<path d="M251.4 38.6l45.06 0l0 16.09l-45.06 0Z" id="p85w267" />
<path d="M349.96 39.02l32.54 0l0 15.38l-32.54 0Z" id="p85w268" />
<path d="M609.59 983l81.51 0l0 12.23l-81.51 0Z" id="p85w269" />
</svg>
