<?xml version="1.0" encoding="UTF-8"?>
<svg xmlns="http://www.w3.org/2000/svg" xmlns:xlink="http://www.w3.org/1999/xlink" version="1.1" baseProfile="full" width="768" height="1024" viewBox="0,0,768,1024" preserveAspectRatio="xMinYMin meet" >
<style type="text/css">
<![CDATA[
path {fill-opacity: 0.5;fill: #00aeef;visibility: hidden;}
]]>
</style>
<path d="M575.98 983.66l115.12 0l0 12.23l-115.12 0Z" id="p267w1" />
<path d="M566.11 38.6l77.83 0l0 16.09l-77.83 0Z" id="p267w2" />
<path d="M59.08 112.51l20.03 0l0 12.23l-20.03 0Z" id="p267w3" />
<path d="M81.81 112.45l67.54 0l0 12.29l-67.54 0Z" id="p267w4" />
<path d="M152.04 112.51l17.56 0l0 12.23l-17.56 0Z" id="p267w5" />
<path d="M172.31 112.51l33.93 0l0 12.23l-33.93 0Z" id="p267w6" />
<path d="M208.94 112.51l11.7 0l0 12.23l-11.7 0Z" id="p267w7" />
<path d="M68.92 127.79l40.53 0l0 12.23l-40.53 0Z" id="p267w8" />
<path d="M112.15 127.55l17.81 0l0 12.56l-17.81 0Z" id="p267w9" />
<path d="M59.08 143.08l14.41 0l0 12.23l-14.41 0Z" id="p267w10" />
<path d="M76.18 143.02l42.8 0l0 12.29l-42.8 0Z" id="p267w11" />
<path d="M121.69 143.08l8.33 0l0 12.23l-8.33 0Z" id="p267w12" />
<path d="M132.72 143.08l40.53 0l0 12.23l-40.53 0Z" id="p267w13" />
<path d="M175.94 143.08l11.93 0l0 12.23l-11.93 0Z" id="p267w14" />
<path d="M190.57 143.08l18.02 0l0 12.23l-18.02 0Z" id="p267w15" />
<path d="M68.92 158.34l27.91 0l0 12.23l-27.91 0Z" id="p267w16" />
<path d="M103.14 158.11l17.81 0l0 12.56l-17.81 0Z" id="p267w17" />
<path d="M59.08 173.64l15.53 0l0 12.23l-15.53 0Z" id="p267w18" />
<path d="M77.31 173.59l53.88 0l0 12.29l-53.88 0Z" id="p267w19" />
<path d="M133.88 173.64l8.33 0l0 12.23l-8.33 0Z" id="p267w20" />
<path d="M144.91 173.64l40.75 0l0 12.23l-40.75 0Z" id="p267w21" />
<path d="M188.36 173.4l18.01 0l0 12.56l-18.01 0Z" id="p267w22" />
<path d="M59.08 188.93l34.42 0l0 12.23l-34.42 0Z" id="p267w23" />
<path d="M96.2 188.87l35.42 0l0 12.29l-35.42 0Z" id="p267w24" />
<path d="M134.33 188.93l35.11 0l0 12.23l-35.11 0Z" id="p267w25" />
<path d="M172.14 188.93l27.37 0l0 12.23l-27.37 0Z" id="p267w26" />
<path d="M202.21 188.68l15.34 0l0 12.56l-15.34 0Z" id="p267w27" />
<path d="M59.08 204.21l15.53 0l0 12.23l-15.53 0Z" id="p267w28" />
<path d="M77.31 204.15l35.38 0l0 12.29l-35.38 0Z" id="p267w29" />
<path d="M115.39 204.21l30.17 0l0 12.23l-30.17 0Z" id="p267w30" />
<path d="M169.41 203.96l17.26 0l0 12.56l-17.26 0Z" id="p267w31" />
<path d="M59.08 219.49l19.44 0l0 12.23l-19.44 0Z" id="p267w32" />
<path d="M81.22 219.49l16.65 0l0 12.23l-16.65 0Z" id="p267w33" />
<path d="M100.57 219.49l24.75 0l0 12.23l-24.75 0Z" id="p267w34" />
<path d="M128.02 219.44l66.11 0l0 12.29l-66.11 0Z" id="p267w35" />
<path d="M196.84 219.49l34.67 0l0 12.23l-34.67 0Z" id="p267w36" />
<path d="M68.92 234.78l44.57 0l0 12.23l-44.57 0Z" id="p267w37" />
<path d="M116.2 234.78l11.04 0l0 12.23l-11.04 0Z" id="p267w38" />
<path d="M129.94 234.78l34.89 0l0 12.23l-34.89 0Z" id="p267w39" />
<path d="M167.53 234.78l10.35 0l0 12.23l-10.35 0Z" id="p267w40" />
<path d="M180.58 234.78l28.6 0l0 12.23l-28.6 0Z" id="p267w41" />
<path d="M211.88 234.53l18.17 0l0 12.56l-18.17 0Z" id="p267w42" />
<path d="M59.08 250l38.94 0l0 12.29l-38.94 0Z" id="p267w43" />
<path d="M100.71 250.06l17.12 0l0 12.23l-17.12 0Z" id="p267w44" />
<path d="M128.86 250.06l30.17 0l0 12.23l-30.17 0Z" id="p267w45" />
<path d="M161.73 250.06l11.7 0l0 12.23l-11.7 0Z" id="p267w46" />
<path d="M176.13 249.81l17.26 0l0 12.56l-17.26 0Z" id="p267w47" />
<path d="M59.08 265.34l16.43 0l0 12.23l-16.43 0Z" id="p267w48" />
<path d="M78.21 265.29l32.23 0l0 12.29l-32.23 0Z" id="p267w49" />
<path d="M113.14 265.34l8.33 0l0 12.23l-8.33 0Z" id="p267w50" />
<path d="M124.17 265.34l29.48 0l0 12.23l-29.48 0Z" id="p267w51" />
<path d="M156.35 265.1l15.54 0l0 12.56l-15.54 0Z" id="p267w52" />
<path d="M68.92 280.63l17.55 0l0 12.23l-17.55 0Z" id="p267w53" />
<path d="M89.18 280.63l11.25 0l0 12.23l-11.25 0Z" id="p267w54" />
<path d="M103.13 280.63l16.43 0l0 12.23l-16.43 0Z" id="p267w55" />
<path d="M122.03 280.63l36 0l0 12.23l-36 0Z" id="p267w56" />
<path d="M160.74 280.63l5.86 0l0 12.23l-5.86 0Z" id="p267w57" />
<path d="M169.3 280.63l15.75 0l0 12.23l-15.75 0Z" id="p267w58" />
<path d="M187.75 280.63l20.26 0l0 12.23l-20.26 0Z" id="p267w59" />
<path d="M68.92 295.91l29.48 0l0 12.23l-29.48 0Z" id="p267w60" />
<path d="M108.08 295.66l15.54 0l0 12.56l-15.54 0Z" id="p267w61" />
<path d="M68.92 311.19l17.33 0l0 12.23l-17.33 0Z" id="p267w62" />
<path d="M88.73 311.19l31.72 0l0 12.23l-31.72 0Z" id="p267w63" />
<path d="M123.16 311.19l11.25 0l0 12.23l-11.25 0Z" id="p267w64" />
<path d="M137.11 311.19l29.96 0l0 12.23l-29.96 0Z" id="p267w65" />
<path d="M169.76 311.19l5.86 0l0 12.23l-5.86 0Z" id="p267w66" />
<path d="M178.32 311.19l15.75 0l0 12.23l-15.75 0Z" id="p267w67" />
<path d="M196.77 311.19l25.44 0l0 12.23l-25.44 0Z" id="p267w68" />
<path d="M68.92 326.23l15.54 0l0 12.56l-15.54 0Z" id="p267w69" />
<path d="M68.92 341.76l10.58 0l0 12.23l-10.58 0Z" id="p267w70" />
<path d="M82.21 341.76l11.25 0l0 12.23l-11.25 0Z" id="p267w71" />
<path d="M96.16 341.76l38.05 0l0 12.23l-38.05 0Z" id="p267w72" />
<path d="M136.68 341.76l32.87 0l0 12.23l-32.87 0Z" id="p267w73" />
<path d="M172.25 341.76l5.86 0l0 12.23l-5.86 0Z" id="p267w74" />
<path d="M180.81 341.76l15.75 0l0 12.23l-15.75 0Z" id="p267w75" />
<path d="M199.26 341.76l25.44 0l0 12.23l-25.44 0Z" id="p267w76" />
<path d="M68.92 356.8l15.54 0l0 12.56l-15.54 0Z" id="p267w77" />
<path d="M59.08 372.33l14.41 0l0 12.23l-14.41 0Z" id="p267w78" />
<path d="M76.18 372.27l84.61 0l0 12.29l-84.61 0Z" id="p267w79" />
<path d="M163.49 372.33l8.33 0l0 12.23l-8.33 0Z" id="p267w80" />
<path d="M174.52 372.33l30.16 0l0 12.23l-30.16 0Z" id="p267w81" />
<path d="M207.38 372.08l15.54 0l0 12.56l-15.54 0Z" id="p267w82" />
<path d="M59.08 387.61l14.41 0l0 12.23l-14.41 0Z" id="p267w83" />
<path d="M76.18 387.55l53.01 0l0 12.29l-53.01 0Z" id="p267w84" />
<path d="M131.89 387.61l11.94 0l0 12.23l-11.94 0Z" id="p267w85" />
<path d="M146.53 387.61l29.71 0l0 12.23l-29.71 0Z" id="p267w86" />
<path d="M178.94 387.37l15.54 0l0 12.56l-15.54 0Z" id="p267w87" />
<path d="M208.94 387.61l17.56 0l0 12.23l-17.56 0Z" id="p267w88" />
<path d="M68.92 402.89l56.73 0l0 12.23l-56.73 0Z" id="p267w89" />
<path d="M128.36 402.65l18.01 0l0 12.56l-18.01 0Z" id="p267w90" />
<path d="M59.08 418.12l34.36 0l0 12.29l-34.36 0Z" id="p267w91" />
<path d="M96.14 418.18l103.87 0l0 12.23l-103.87 0Z" id="p267w92" />
<path d="M202.71 417.93l15.54 0l0 12.56l-15.54 0Z" id="p267w93" />
<path d="M59.08 433.4l22.43 0l0 12.29l-22.43 0Z" id="p267w94" />
<path d="M84.21 433.44l54.71 0l0 12.23l-54.71 0Z" id="p267w95" />
<path d="M141.62 433.46l45.92 0l0 12.23l-45.92 0Z" id="p267w96" />
<path d="M197.22 433.22l14.79 0l0 12.56l-14.79 0Z" id="p267w97" />
<path d="M68.92 448.74l17.55 0l0 12.23l-17.55 0Z" id="p267w98" />
<path d="M107.37 448.74l45.92 0l0 12.23l-45.92 0Z" id="p267w99" />
<path d="M155.99 448.74l27.83 0l0 12.23l-27.83 0Z" id="p267w100" />
<path d="M186.52 448.74l28.78 0l0 12.23l-28.78 0Z" id="p267w101" />
<path d="M68.92 463.78l15.54 0l0 12.56l-15.54 0Z" id="p267w102" />
<path d="M68.92 479.31l17.55 0l0 12.23l-17.55 0Z" id="p267w103" />
<path d="M89.18 479.31l24.53 0l0 12.23l-24.53 0Z" id="p267w104" />
<path d="M116.41 479.31l16.22 0l0 12.23l-16.22 0Z" id="p267w105" />
<path d="M135.03 479.31l10.45 0l0 12.23l-10.45 0Z" id="p267w106" />
<path d="M148.18 479.31l44.64 0l0 12.23l-44.64 0Z" id="p267w107" />
<path d="M68.92 494.59l44.79 0l0 12.23l-44.79 0Z" id="p267w108" />
<path d="M123.4 494.35l14.79 0l0 12.56l-14.79 0Z" id="p267w109" />
<path d="M59.08 509.82l16.65 0l0 12.29l-16.65 0Z" id="p267w110" />
<path d="M78.43 509.88l34.89 0l0 12.23l-34.89 0Z" id="p267w111" />
<path d="M116.02 509.63l15.54 0l0 12.56l-15.54 0Z" id="p267w112" />
<path d="M59.08 525.11l32.23 0l0 12.29l-32.23 0Z" id="p267w113" />
<path d="M94.01 525.16l11.7 0l0 12.23l-11.7 0Z" id="p267w114" />
<path d="M108.42 525.16l40.08 0l0 12.23l-40.08 0Z" id="p267w115" />
<path d="M151.2 524.92l18.72 0l0 12.56l-18.72 0Z" id="p267w116" />
<path d="M68.92 540.44l34.9 0l0 12.23l-34.9 0Z" id="p267w117" />
<path d="M106.53 540.44l32.18 0l0 12.23l-32.18 0Z" id="p267w118" />
<path d="M141.41 540.44l31.97 0l0 12.23l-31.97 0Z" id="p267w119" />
<path d="M176.08 540.2l15.54 0l0 12.56l-15.54 0Z" id="p267w120" />
<path d="M68.92 555.73l32.18 0l0 12.23l-32.18 0Z" id="p267w121" />
<path d="M103.8 555.73l44.74 0l0 12.23l-44.74 0Z" id="p267w122" />
<path d="M151.24 555.73l64.82 0l0 12.23l-64.82 0Z" id="p267w123" />
<path d="M68.92 570.77l18.92 0l0 12.56l-18.92 0Z" id="p267w124" />
<path d="M68.92 586.29l32.18 0l0 12.23l-32.18 0Z" id="p267w125" />
<path d="M103.8 586.29l44.29 0l0 12.23l-44.29 0Z" id="p267w126" />
<path d="M150.8 586.29l64.82 0l0 12.23l-64.82 0Z" id="p267w127" />
<path d="M68.92 601.33l18.92 0l0 12.56l-18.92 0Z" id="p267w128" />
<path d="M59.08 616.86l40.5 0l0 12.23l-40.5 0Z" id="p267w129" />
<path d="M102.28 616.81l76.82 0l0 12.29l-76.82 0Z" id="p267w130" />
<path d="M181.8 616.86l54.02 0l0 12.23l-54.02 0Z" id="p267w131" />
<path d="M68.92 632.14l27.37 0l0 12.23l-27.37 0Z" id="p267w132" />
<path d="M98.99 631.9l18.92 0l0 12.56l-18.92 0Z" id="p267w133" />
<path d="M59.08 647.43l19.44 0l0 12.23l-19.44 0Z" id="p267w134" />
<path d="M81.22 647.37l38.86 0l0 12.29l-38.86 0Z" id="p267w135" />
<path d="M120.08 647.37l23.84 0l0 12.29l-23.84 0Z" id="p267w136" />
<path d="M146.62 647.43l43.22 0l0 12.23l-43.22 0Z" id="p267w137" />
<path d="M192.54 647.43l27.37 0l0 12.23l-27.37 0Z" id="p267w138" />
<path d="M68.92 662.47l15.54 0l0 12.56l-15.54 0Z" id="p267w139" />
<path d="M59.08 677.99l19.44 0l0 12.23l-19.44 0Z" id="p267w140" />
<path d="M81.22 677.94l58.68 0l0 12.29l-58.68 0Z" id="p267w141" />
<path d="M142.6 677.99l34.42 0l0 12.23l-34.42 0Z" id="p267w142" />
<path d="M179.72 677.99l11.04 0l0 12.23l-11.04 0Z" id="p267w143" />
<path d="M193.46 677.75l18.92 0l0 12.56l-18.92 0Z" id="p267w144" />
<path d="M59.08 693.28l20.03 0l0 12.23l-20.03 0Z" id="p267w145" />
<path d="M81.81 693.22l66.18 0l0 12.29l-66.18 0Z" id="p267w146" />
<path d="M150.69 693.28l17.56 0l0 12.23l-17.56 0Z" id="p267w147" />
<path d="M170.95 693.28l46.14 0l0 12.23l-46.14 0Z" id="p267w148" />
<path d="M68.92 708.32l18.92 0l0 12.56l-18.92 0Z" id="p267w149" />
<path d="M59.08 723.84l15.98 0l0 12.23l-15.98 0Z" id="p267w150" />
<path d="M77.76 723.79l61.76 0l0 12.29l-61.76 0Z" id="p267w151" />
<path d="M145.38 723.84l12.38 0l0 12.23l-12.38 0Z" id="p267w152" />
<path d="M160.46 723.84l27.01 0l0 12.23l-27.01 0Z" id="p267w153" />
<path d="M196.03 723.6l13.88 0l0 12.56l-13.88 0Z" id="p267w154" />
<path d="M59.08 739.13l40.5 0l0 12.23l-40.5 0Z" id="p267w155" />
<path d="M102.28 739.07l60.48 0l0 12.29l-60.48 0Z" id="p267w156" />
<path d="M165.46 739.13l27.01 0l0 12.23l-27.01 0Z" id="p267w157" />
<path d="M195.17 739.13l27.37 0l0 12.23l-27.37 0Z" id="p267w158" />
<path d="M68.92 754.17l18.92 0l0 12.56l-18.92 0Z" id="p267w159" />
<path d="M68.92 769.7l18.46 0l0 12.23l-18.46 0Z" id="p267w160" />
<path d="M90.09 769.7l60.31 0l0 12.23l-60.31 0Z" id="p267w161" />
<path d="M153.1 769.7l10.35 0l0 12.23l-10.35 0Z" id="p267w162" />
<path d="M166.15 769.7l27.01 0l0 12.23l-27.01 0Z" id="p267w163" />
<path d="M195.86 769.45l18.17 0l0 12.56l-18.17 0Z" id="p267w164" />
<path d="M59.08 784.98l14.41 0l0 12.23l-14.41 0Z" id="p267w165" />
<path d="M76.18 784.92l87.7 0l0 12.29l-87.7 0Z" id="p267w166" />
<path d="M166.58 784.98l8.33 0l0 12.23l-8.33 0Z" id="p267w167" />
<path d="M177.61 784.98l44.29 0l0 12.23l-44.29 0Z" id="p267w168" />
<path d="M68.92 800.02l18.92 0l0 12.56l-18.92 0Z" id="p267w169" />
<path d="M59.08 815.49l16.65 0l0 12.29l-16.65 0Z" id="p267w170" />
<path d="M78.43 815.49l16.29 0l0 12.29l-16.29 0Z" id="p267w171" />
<path d="M97.42 815.55l40.53 0l0 12.23l-40.53 0Z" id="p267w172" />
<path d="M140.65 815.55l18.91 0l0 12.23l-18.91 0Z" id="p267w173" />
<path d="M162.26 815.3l15.54 0l0 12.56l-15.54 0Z" id="p267w174" />
<path d="M59.08 830.77l17.93 0l0 12.29l-17.93 0Z" id="p267w175" />
<path d="M79.71 830.77l16.29 0l0 12.29l-16.29 0Z" id="p267w176" />
<path d="M98.7 830.83l29.03 0l0 12.23l-29.03 0Z" id="p267w177" />
<path d="M130.44 830.83l20.71 0l0 12.23l-20.71 0Z" id="p267w178" />
<path d="M153.85 830.83l11.7 0l0 12.23l-11.7 0Z" id="p267w179" />
<path d="M168.25 830.83l15.75 0l0 12.23l-15.75 0Z" id="p267w180" />
<path d="M186.7 830.83l40.53 0l0 12.23l-40.53 0Z" id="p267w181" />
<path d="M68.92 845.87l15.54 0l0 12.56l-15.54 0Z" id="p267w182" />
<path d="M59.08 861.34l59.64 0l0 12.29l-59.64 0Z" id="p267w183" />
<path d="M124.58 861.4l49.53 0l0 12.23l-49.53 0Z" id="p267w184" />
<path d="M182.67 861.15l14.79 0l0 12.56l-14.79 0Z" id="p267w185" />
<path d="M59.08 876.68l15.53 0l0 12.23l-15.53 0Z" id="p267w186" />
<path d="M77.31 876.62l24.44 0l0 12.29l-24.44 0Z" id="p267w187" />
<path d="M104.45 876.68l8.33 0l0 12.23l-8.33 0Z" id="p267w188" />
<path d="M115.48 876.68l20.71 0l0 12.23l-20.71 0Z" id="p267w189" />
<path d="M138.88 876.43l15.54 0l0 12.56l-15.54 0Z" id="p267w190" />
<path d="M59.08 891.96l15.53 0l0 12.23l-15.53 0Z" id="p267w191" />
<path d="M77.31 891.91l31.86 0l0 12.29l-31.86 0Z" id="p267w192" />
<path d="M111.86 891.96l28.13 0l0 12.23l-28.13 0Z" id="p267w193" />
<path d="M163.85 891.72l18.01 0l0 12.56l-18.01 0Z" id="p267w194" />
<path d="M59.08 907.19l36.89 0l0 12.29l-36.89 0Z" id="p267w195" />
<path d="M98.67 907.25l41.86 0l0 12.23l-41.86 0Z" id="p267w196" />
<path d="M143.23 907l18.92 0l0 12.56l-18.92 0Z" id="p267w197" />
<path d="M59.08 922.53l14.41 0l0 12.23l-14.41 0Z" id="p267w198" />
<path d="M76.18 922.47l56.2 0l0 12.29l-56.2 0Z" id="p267w199" />
<path d="M135.08 922.53l8.33 0l0 12.23l-8.33 0Z" id="p267w200" />
<path d="M146.11 922.53l29.92 0l0 12.23l-29.92 0Z" id="p267w201" />
<path d="M178.73 922.28l18.17 0l0 12.56l-18.17 0Z" id="p267w202" />
<path d="M270.44 112.51l8.78 0l0 12.23l-8.78 0Z" id="p267w203" />
<path d="M281.7 112.51l54.7 0l0 12.23l-54.7 0Z" id="p267w204" />
<path d="M339.1 112.51l11.7 0l0 12.23l-11.7 0Z" id="p267w205" />
<path d="M353.51 112.51l29.92 0l0 12.23l-29.92 0Z" id="p267w206" />
<path d="M386.13 112.26l18.72 0l0 12.56l-18.72 0Z" id="p267w207" />
<path d="M260.6 127.79l14.41 0l0 12.23l-14.41 0Z" id="p267w208" />
<path d="M277.7 127.74l48.96 0l0 12.29l-48.96 0Z" id="p267w209" />
<path d="M329.37 127.79l50.21 0l0 12.23l-50.21 0Z" id="p267w210" />
<path d="M397.28 127.55l18.01 0l0 12.56l-18.01 0Z" id="p267w211" />
<path d="M260.6 143.02l32.4 0l0 12.29l-32.4 0Z" id="p267w212" />
<path d="M295.7 143.08l27.91 0l0 12.23l-27.91 0Z" id="p267w213" />
<path d="M326.31 142.83l15.54 0l0 12.56l-15.54 0Z" id="p267w214" />
<path d="M270.44 158.36l14.19 0l0 12.23l-14.19 0Z" id="p267w215" />
<path d="M287.34 158.36l22.95 0l0 12.23l-22.95 0Z" id="p267w216" />
<path d="M312.99 158.36l17.55 0l0 12.23l-17.55 0Z" id="p267w217" />
<path d="M333.24 158.36l25.9 0l0 12.23l-25.9 0Z" id="p267w218" />
<path d="M361.84 158.36l8.78 0l0 12.23l-8.78 0Z" id="p267w219" />
<path d="M373.33 158.36l11.7 0l0 12.23l-11.7 0Z" id="p267w220" />
<path d="M387.73 158.36l17.77 0l0 12.23l-17.77 0Z" id="p267w221" />
<path d="M408.21 158.36l18.68 0l0 12.23l-18.68 0Z" id="p267w222" />
<path d="M270.44 173.4l15.54 0l0 12.56l-15.54 0Z" id="p267w223" />
<path d="M270.44 188.93l21.39 0l0 12.23l-21.39 0Z" id="p267w224" />
<path d="M294.53 188.93l19.44 0l0 12.23l-19.44 0Z" id="p267w225" />
<path d="M316.67 188.93l42.55 0l0 12.23l-42.55 0Z" id="p267w226" />
<path d="M361.92 188.93l32.18 0l0 12.23l-32.18 0Z" id="p267w227" />
<path d="M396.8 188.93l18.9 0l0 12.23l-18.9 0Z" id="p267w228" />
<path d="M418.4 188.93l11.48 0l0 12.23l-11.48 0Z" id="p267w229" />
<path d="M270.44 204.21l35.8 0l0 12.23l-35.8 0Z" id="p267w230" />
<path d="M308.95 204.21l11.7 0l0 12.23l-11.7 0Z" id="p267w231" />
<path d="M323.35 204.21l11.04 0l0 12.23l-11.04 0Z" id="p267w232" />
<path d="M337.09 203.96l18.92 0l0 12.56l-18.92 0Z" id="p267w233" />
<path d="M260.6 219.49l14.41 0l0 12.23l-14.41 0Z" id="p267w234" />
<path d="M277.7 219.44l21.04 0l0 12.29l-21.04 0Z" id="p267w235" />
<path d="M301.44 219.49l17.56 0l0 12.23l-17.56 0Z" id="p267w236" />
<path d="M321.71 219.49l31.91 0l0 12.23l-31.91 0Z" id="p267w237" />
<path d="M356.32 219.25l15.54 0l0 12.56l-15.54 0Z" id="p267w238" />
<path d="M260.6 234.72l28.45 0l0 12.29l-28.45 0Z" id="p267w239" />
<path d="M291.75 234.78l85.4 0l0 12.23l-85.4 0Z" id="p267w240" />
<path d="M379.85 234.75l27.91 0l0 12.23l-27.91 0Z" id="p267w241" />
<path d="M410.46 234.53l15.54 0l0 12.56l-15.54 0Z" id="p267w242" />
<path d="M270.44 250.06l62.36 0l0 12.23l-62.36 0Z" id="p267w243" />
<path d="M335.5 249.81l18.01 0l0 12.56l-18.01 0Z" id="p267w244" />
<path d="M260.6 265.29l14.06 0l0 12.29l-14.06 0Z" id="p267w245" />
<path d="M277.36 265.34l11.72 0l0 12.23l-11.72 0Z" id="p267w246" />
<path d="M291.77 265.1l14.79 0l0 12.56l-14.79 0Z" id="p267w247" />
<path d="M260.6 280.57l46.19 0l0 12.29l-46.19 0Z" id="p267w248" />
<path d="M309.49 280.63l33.76 0l0 12.23l-33.76 0Z" id="p267w249" />
<path d="M345.95 280.38l14.41 0l0 12.56l-14.41 0Z" id="p267w250" />
<path d="M260.6 295.91l20.03 0l0 12.23l-20.03 0Z" id="p267w251" />
<path d="M283.33 295.85l31.43 0l0 12.29l-31.43 0Z" id="p267w252" />
<path d="M317.46 295.91l17.56 0l0 12.23l-17.56 0Z" id="p267w253" />
<path d="M337.72 295.91l39.6 0l0 12.23l-39.6 0Z" id="p267w254" />
<path d="M380.03 295.66l15.54 0l0 12.56l-15.54 0Z" id="p267w255" />
<path d="M270.44 311.19l15.54 0l0 12.23l-15.54 0Z" id="p267w256" />
<path d="M288.46 311.19l31.52 0l0 12.23l-31.52 0Z" id="p267w257" />
<path d="M322.69 311.19l15.53 0l0 12.23l-15.53 0Z" id="p267w258" />
<path d="M340.91 311.19l39.6 0l0 12.23l-39.6 0Z" id="p267w259" />
<path d="M383.22 310.95l15.54 0l0 12.56l-15.54 0Z" id="p267w260" />
<path d="M260.6 326.48l14.85 0l0 12.23l-14.85 0Z" id="p267w261" />
<path d="M277.92 326.42l60.9 0l0 12.29l-60.9 0Z" id="p267w262" />
<path d="M341.53 326.48l8.33 0l0 12.23l-8.33 0Z" id="p267w263" />
<path d="M352.55 326.48l45.62 0l0 12.23l-45.62 0Z" id="p267w264" />
<path d="M400.87 326.23l15.54 0l0 12.56l-15.54 0Z" id="p267w265" />
<path d="M260.6 341.7l56.72 0l0 12.29l-56.72 0Z" id="p267w266" />
<path d="M320.02 341.76l15.53 0l0 12.23l-15.53 0Z" id="p267w267" />
<path d="M338.25 341.76l39.6 0l0 12.23l-39.6 0Z" id="p267w268" />
<path d="M380.55 341.52l15.54 0l0 12.56l-15.54 0Z" id="p267w269" />
<path d="M260.6 356.99l37.93 0l0 12.29l-37.93 0Z" id="p267w270" />
<path d="M301.22 357.04l33.76 0l0 12.23l-33.76 0Z" id="p267w271" />
<path d="M337.68 356.8l14.63 0l0 12.56l-14.63 0Z" id="p267w272" />
<path d="M270.44 372.33l12.6 0l0 12.23l-12.6 0Z" id="p267w273" />
<path d="M285.75 372.33l31.97 0l0 12.23l-31.97 0Z" id="p267w274" />
<path d="M320.42 372.33l15.99 0l0 12.23l-15.99 0Z" id="p267w275" />
<path d="M339.11 372.33l22.05 0l0 12.23l-22.05 0Z" id="p267w276" />
<path d="M363.87 372.33l21.62 0l0 12.23l-21.62 0Z" id="p267w277" />
<path d="M388.19 372.33l20.04 0l0 12.23l-20.04 0Z" id="p267w278" />
<path d="M410.93 372.08l14.63 0l0 12.56l-14.63 0Z" id="p267w279" />
<path d="M260.6 387.61l14.41 0l0 12.23l-14.41 0Z" id="p267w280" />
<path d="M277.7 387.55l49.8 0l0 12.29l-49.8 0Z" id="p267w281" />
<path d="M330.2 387.61l11.94 0l0 12.23l-11.94 0Z" id="p267w282" />
<path d="M344.84 387.61l47.04 0l0 12.23l-47.04 0Z" id="p267w283" />
<path d="M394.58 387.37l15.54 0l0 12.56l-15.54 0Z" id="p267w284" />
<path d="M260.6 402.89l14.41 0l0 12.23l-14.41 0Z" id="p267w285" />
<path d="M277.7 402.84l43.66 0l0 12.29l-43.66 0Z" id="p267w286" />
<path d="M324.06 402.89l17.56 0l0 12.23l-17.56 0Z" id="p267w287" />
<path d="M344.33 402.89l45.24 0l0 12.23l-45.24 0Z" id="p267w288" />
<path d="M392.27 402.65l18.92 0l0 12.56l-18.92 0Z" id="p267w289" />
<path d="M260.6 418.18l20.03 0l0 12.23l-20.03 0Z" id="p267w290" />
<path d="M283.33 418.12l45.21 0l0 12.29l-45.21 0Z" id="p267w291" />
<path d="M331.23 418.18l11.94 0l0 12.23l-11.94 0Z" id="p267w292" />
<path d="M345.87 418.18l61.43 0l0 12.23l-61.43 0Z" id="p267w293" />
<path d="M410.01 417.93l14.63 0l0 12.56l-14.63 0Z" id="p267w294" />
<path d="M260.6 433.46l14.41 0l0 12.23l-14.41 0Z" id="p267w295" />
<path d="M277.7 433.4l62.92 0l0 12.29l-62.92 0Z" id="p267w296" />
<path d="M343.33 433.46l11.94 0l0 12.23l-11.94 0Z" id="p267w297" />
<path d="M357.96 433.46l24.99 0l0 12.23l-24.99 0Z" id="p267w298" />
<path d="M385.65 433.22l14.63 0l0 12.56l-14.63 0Z" id="p267w299" />
<path d="M260.6 448.74l20.03 0l0 12.23l-20.03 0Z" id="p267w300" />
<path d="M283.33 448.69l29.2 0l0 12.29l-29.2 0Z" id="p267w301" />
<path d="M315.23 448.74l11.94 0l0 12.23l-11.94 0Z" id="p267w302" />
<path d="M329.87 448.74l29.21 0l0 12.23l-29.21 0Z" id="p267w303" />
<path d="M361.78 448.5l15.54 0l0 12.56l-15.54 0Z" id="p267w304" />
<path d="M260.6 464.03l14.41 0l0 12.23l-14.41 0Z" id="p267w305" />
<path d="M277.7 463.97l68.73 0l0 12.29l-68.73 0Z" id="p267w306" />
<path d="M349.13 464.03l11.94 0l0 12.23l-11.94 0Z" id="p267w307" />
<path d="M363.77 464.03l47.58 0l0 12.23l-47.58 0Z" id="p267w308" />
<path d="M414.05 463.78l18.01 0l0 12.56l-18.01 0Z" id="p267w309" />
<path d="M260.6 479.25l31.39 0l0 12.29l-31.39 0Z" id="p267w310" />
<path d="M294.69 479.31l31.98 0l0 12.23l-31.98 0Z" id="p267w311" />
<path d="M329.37 479.07l15.54 0l0 12.56l-15.54 0Z" id="p267w312" />
<path d="M260.6 494.59l14.41 0l0 12.23l-14.41 0Z" id="p267w313" />
<path d="M277.7 494.54l22.96 0l0 12.29l-22.96 0Z" id="p267w314" />
<path d="M303.37 494.59l11.94 0l0 12.23l-11.94 0Z" id="p267w315" />
<path d="M318.01 494.59l18.91 0l0 12.23l-18.91 0Z" id="p267w316" />
<path d="M339.61 494.35l15.54 0l0 12.56l-15.54 0Z" id="p267w317" />
<path d="M260.6 509.82l63.3 0l0 12.29l-63.3 0Z" id="p267w318" />
<path d="M326.6 509.88l35.96 0l0 12.23l-35.96 0Z" id="p267w319" />
<path d="M362.55 509.88l17.56 0l0 12.23l-17.56 0Z" id="p267w320" />
<path d="M382.82 509.63l14.63 0l0 12.56l-14.63 0Z" id="p267w321" />
<path d="M260.6 525.16l19.44 0l0 12.23l-19.44 0Z" id="p267w322" />
<path d="M282.74 525.11l47.5 0l0 12.29l-47.5 0Z" id="p267w323" />
<path d="M332.93 525.16l32.4 0l0 12.23l-32.4 0Z" id="p267w324" />
<path d="M368.04 525.16l11.04 0l0 12.23l-11.04 0Z" id="p267w325" />
<path d="M381.77 524.92l15.54 0l0 12.56l-15.54 0Z" id="p267w326" />
<path d="M260.6 540.39l35.89 0l0 12.29l-35.89 0Z" id="p267w327" />
<path d="M299.19 540.44l19.13 0l0 12.23l-19.13 0Z" id="p267w328" />
<path d="M321.02 540.44l18.9 0l0 12.23l-18.9 0Z" id="p267w329" />
<path d="M342.61 540.44l11.7 0l0 12.23l-11.7 0Z" id="p267w330" />
<path d="M357.02 540.44l28.59 0l0 12.23l-28.59 0Z" id="p267w331" />
<path d="M388.31 540.2l15.54 0l0 12.56l-15.54 0Z" id="p267w332" />
<path d="M260.59 593.94l14.41 0l0 12.23l-14.41 0Z" id="p267w333" />
<path d="M277.7 593.88l42.55 0l0 12.29l-42.55 0Z" id="p267w334" />
<path d="M320.25 593.94l24.2 0l0 12.23l-24.2 0Z" id="p267w335" />
<path d="M347.15 593.88l51.44 0l0 12.29l-51.44 0Z" id="p267w336" />
<path d="M401.29 593.94l11.94 0l0 12.23l-11.94 0Z" id="p267w337" />
<path d="M270.44 609.22l69.47 0l0 12.23l-69.47 0Z" id="p267w338" />
<path d="M342.61 609.22l54.26 0l0 12.23l-54.26 0Z" id="p267w339" />
<path d="M399.58 608.97l18.01 0l0 12.56l-18.01 0Z" id="p267w340" />
<path d="M260.59 662.71l20.03 0l0 12.23l-20.03 0Z" id="p267w341" />
<path d="M283.33 662.66l20.04 0l0 12.29l-20.04 0Z" id="p267w342" />
<path d="M306.07 662.71l11.94 0l0 12.23l-11.94 0Z" id="p267w343" />
<path d="M320.71 662.71l30.17 0l0 12.23l-30.17 0Z" id="p267w344" />
<path d="M353.57 662.47l17.81 0l0 12.56l-17.81 0Z" id="p267w345" />
<path d="M260.59 677.99l19.44 0l0 12.23l-19.44 0Z" id="p267w346" />
<path d="M282.74 677.94l31.02 0l0 12.29l-31.02 0Z" id="p267w347" />
<path d="M316.46 677.99l39.39 0l0 12.23l-39.39 0Z" id="p267w348" />
<path d="M358.55 677.99l11.04 0l0 12.23l-11.04 0Z" id="p267w349" />
<path d="M372.29 677.75l15.54 0l0 12.56l-15.54 0Z" id="p267w350" />
<path d="M270.44 693.28l48.86 0l0 12.23l-48.86 0Z" id="p267w351" />
<path d="M322.01 693.28l31.07 0l0 12.23l-31.07 0Z" id="p267w352" />
<path d="M355.77 693.28l39.39 0l0 12.23l-39.39 0Z" id="p267w353" />
<path d="M397.87 693.28l13.05 0l0 12.23l-13.05 0Z" id="p267w354" />
<path d="M270.44 708.56l41.43 0l0 12.23l-41.43 0Z" id="p267w355" />
<path d="M314.57 708.32l15.54 0l0 12.56l-15.54 0Z" id="p267w356" />
<path d="M260.59 723.79l42.27 0l0 12.29l-42.27 0Z" id="p267w357" />
<path d="M305.56 723.84l104.57 0l0 12.23l-104.57 0Z" id="p267w358" />
<path d="M412.84 723.6l18.92 0l0 12.56l-18.92 0Z" id="p267w359" />
<path d="M260.59 739.13l23.32 0l0 12.23l-23.32 0Z" id="p267w360" />
<path d="M286.61 739.07l22.57 0l0 12.29l-22.57 0Z" id="p267w361" />
<path d="M311.89 739.13l17.56 0l0 12.23l-17.56 0Z" id="p267w362" />
<path d="M332.15 739.13l33.77 0l0 12.23l-33.77 0Z" id="p267w363" />
<path d="M368.62 739.13l11.7 0l0 12.23l-11.7 0Z" id="p267w364" />
<path d="M383.03 738.88l18.72 0l0 12.56l-18.72 0Z" id="p267w365" />
<path d="M260.59 754.41l15.08 0l0 12.23l-15.08 0Z" id="p267w366" />
<path d="M278.38 754.41l14.41 0l0 12.23l-14.41 0Z" id="p267w367" />
<path d="M295.48 754.36l22.57 0l0 12.29l-22.57 0Z" id="p267w368" />
<path d="M320.76 754.41l17.56 0l0 12.23l-17.56 0Z" id="p267w369" />
<path d="M341.02 754.41l33.77 0l0 12.23l-33.77 0Z" id="p267w370" />
<path d="M377.49 754.41l11.7 0l0 12.23l-11.7 0Z" id="p267w371" />
<path d="M391.9 754.17l18.72 0l0 12.56l-18.72 0Z" id="p267w372" />
<path d="M260.59 769.64l22.57 0l0 12.29l-22.57 0Z" id="p267w373" />
<path d="M285.87 769.7l13.74 0l0 12.23l-13.74 0Z" id="p267w374" />
<path d="M302.31 769.45l14.79 0l0 12.56l-14.79 0Z" id="p267w375" />
<path d="M260.59 784.98l14.41 0l0 12.23l-14.41 0Z" id="p267w376" />
<path d="M277.7 784.92l32.15 0l0 12.29l-32.15 0Z" id="p267w377" />
<path d="M312.54 784.92l30.12 0l0 12.29l-30.12 0Z" id="p267w378" />
<path d="M345.37 784.96l17.56 0l0 12.23l-17.56 0Z" id="p267w379" />
<path d="M365.63 784.96l23.1 0l0 12.23l-23.1 0Z" id="p267w380" />
<path d="M391.43 784.96l29.04 0l0 12.23l-29.04 0Z" id="p267w381" />
<path d="M423.17 784.96l15.31 0l0 12.23l-15.31 0Z" id="p267w382" />
<path d="M270.44 800.24l20.71 0l0 12.23l-20.71 0Z" id="p267w383" />
<path d="M293.85 800.24l28.38 0l0 12.23l-28.38 0Z" id="p267w384" />
<path d="M324.93 800.26l8.33 0l0 12.23l-8.33 0Z" id="p267w385" />
<path d="M335.95 800.26l38.95 0l0 12.23l-38.95 0Z" id="p267w386" />
<path d="M377.6 800.02l17.26 0l0 12.56l-17.26 0Z" id="p267w387" />
<path d="M260.59 815.55l14.41 0l0 12.23l-14.41 0Z" id="p267w388" />
<path d="M277.7 815.49l36.35 0l0 12.29l-36.35 0Z" id="p267w389" />
<path d="M316.75 815.55l11.94 0l0 12.23l-11.94 0Z" id="p267w390" />
<path d="M331.38 815.55l25.15 0l0 12.23l-25.15 0Z" id="p267w391" />
<path d="M359.24 815.3l19.58 0l0 12.56l-19.58 0Z" id="p267w392" />
<path d="M260.59 830.83l19.44 0l0 12.23l-19.44 0Z" id="p267w393" />
<path d="M282.73 830.77l41.7 0l0 12.29l-41.7 0Z" id="p267w394" />
<path d="M327.14 830.83l39.38 0l0 12.23l-39.38 0Z" id="p267w395" />
<path d="M369.22 830.83l11.04 0l0 12.23l-11.04 0Z" id="p267w396" />
<path d="M382.96 830.58l18.92 0l0 12.56l-18.92 0Z" id="p267w397" />
<path d="M260.59 846.11l14.41 0l0 12.23l-14.41 0Z" id="p267w398" />
<path d="M277.7 846.06l40.25 0l0 12.29l-40.25 0Z" id="p267w399" />
<path d="M317.95 846.11l24.2 0l0 12.23l-24.2 0Z" id="p267w400" />
<path d="M344.85 846.06l49.14 0l0 12.29l-49.14 0Z" id="p267w401" />
<path d="M396.69 846.11l11.94 0l0 12.23l-11.94 0Z" id="p267w402" />
<path d="M270.44 861.4l76.42 0l0 12.23l-76.42 0Z" id="p267w403" />
<path d="M349.56 861.4l56.49 0l0 12.23l-56.49 0Z" id="p267w404" />
<path d="M408.75 861.15l18.01 0l0 12.56l-18.01 0Z" id="p267w405" />
<path d="M260.59 876.68l20.04 0l0 12.23l-20.04 0Z" id="p267w406" />
<path d="M283.33 876.68l19.44 0l0 12.23l-19.44 0Z" id="p267w407" />
<path d="M305.48 876.62l30.81 0l0 12.29l-30.81 0Z" id="p267w408" />
<path d="M338.99 876.68l38.26 0l0 12.23l-38.26 0Z" id="p267w409" />
<path d="M379.95 876.68l11.04 0l0 12.23l-11.04 0Z" id="p267w410" />
<path d="M402.01 876.68l12.16 0l0 12.23l-12.16 0Z" id="p267w411" />
<path d="M416.87 876.43l15.54 0l0 12.56l-15.54 0Z" id="p267w412" />
<path d="M260.59 891.96l14.41 0l0 12.23l-14.41 0Z" id="p267w413" />
<path d="M277.7 891.91l17.9 0l0 12.29l-17.9 0Z" id="p267w414" />
<path d="M298.29 891.96l8.33 0l0 12.23l-8.33 0Z" id="p267w415" />
<path d="M309.32 891.96l29.48 0l0 12.23l-29.48 0Z" id="p267w416" />
<path d="M341.5 891.72l15.54 0l0 12.56l-15.54 0Z" id="p267w417" />
<path d="M270.44 907.25l29.38 0l0 12.23l-29.38 0Z" id="p267w418" />
<path d="M302.52 907.25l14.41 0l0 12.23l-14.41 0Z" id="p267w419" />
<path d="M319.63 907.25l17.77 0l0 12.23l-17.77 0Z" id="p267w420" />
<path d="M340.1 907.25l45.02 0l0 12.23l-45.02 0Z" id="p267w421" />
<path d="M387.82 907.25l27.02 0l0 12.23l-27.02 0Z" id="p267w422" />
<path d="M270.44 922.53l30.17 0l0 12.23l-30.17 0Z" id="p267w423" />
<path d="M303.31 922.53l8.33 0l0 12.23l-8.33 0Z" id="p267w424" />
<path d="M314.33 922.53l34.43 0l0 12.23l-34.43 0Z" id="p267w425" />
<path d="M351.47 922.28l18.92 0l0 12.56l-18.92 0Z" id="p267w426" />
<path d="M471.96 112.51l17.77 0l0 12.23l-17.77 0Z" id="p267w427" />
<path d="M492.43 112.51l29.49 0l0 12.23l-29.49 0Z" id="p267w428" />
<path d="M524.62 112.51l23.19 0l0 12.23l-23.19 0Z" id="p267w429" />
<path d="M550.51 112.51l8.33 0l0 12.23l-8.33 0Z" id="p267w430" />
<path d="M561.54 112.51l29.48 0l0 12.23l-29.48 0Z" id="p267w431" />
<path d="M593.72 112.26l15.54 0l0 12.56l-15.54 0Z" id="p267w432" />
<path d="M462.11 127.79l20.03 0l0 12.23l-20.03 0Z" id="p267w433" />
<path d="M484.84 127.74l47.78 0l0 12.29l-47.78 0Z" id="p267w434" />
<path d="M535.33 127.79l11.94 0l0 12.23l-11.94 0Z" id="p267w435" />
<path d="M549.97 127.79l45.86 0l0 12.23l-45.86 0Z" id="p267w436" />
<path d="M598.53 127.55l14.43 0l0 12.56l-14.43 0Z" id="p267w437" />
<path d="M462.11 143.08l20.03 0l0 12.23l-20.03 0Z" id="p267w438" />
<path d="M484.84 143.02l35.82 0l0 12.29l-35.82 0Z" id="p267w439" />
<path d="M524.83 143.02l47.53 0l0 12.29l-47.53 0Z" id="p267w440" />
<path d="M575.06 143.08l11.94 0l0 12.23l-11.94 0Z" id="p267w441" />
<path d="M589.7 143.08l53.02 0l0 12.23l-53.02 0Z" id="p267w442" />
<path d="M471.96 158.36l40.54 0l0 12.23l-40.54 0Z" id="p267w443" />
<path d="M515.2 158.11l19.58 0l0 12.56l-19.58 0Z" id="p267w444" />
<path d="M462.11 173.59l28.88 0l0 12.29l-28.88 0Z" id="p267w445" />
<path d="M493.69 173.64l21.37 0l0 12.23l-21.37 0Z" id="p267w446" />
<path d="M517.76 173.64l11.94 0l0 12.23l-11.94 0Z" id="p267w447" />
<path d="M532.4 173.64l40.69 0l0 12.23l-40.69 0Z" id="p267w448" />
<path d="M575.8 173.4l18.72 0l0 12.56l-18.72 0Z" id="p267w449" />
<path d="M462.11 188.87l42.46 0l0 12.29l-42.46 0Z" id="p267w450" />
<path d="M507.27 188.93l19.13 0l0 12.23l-19.13 0Z" id="p267w451" />
<path d="M529.1 188.93l18.9 0l0 12.23l-18.9 0Z" id="p267w452" />
<path d="M550.7 188.93l22.51 0l0 12.23l-22.51 0Z" id="p267w453" />
<path d="M575.91 188.93l8.33 0l0 12.23l-8.33 0Z" id="p267w454" />
<path d="M586.93 188.93l20.26 0l0 12.23l-20.26 0Z" id="p267w455" />
<path d="M609.9 188.68l14.79 0l0 12.56l-14.79 0Z" id="p267w456" />
<path d="M462.11 204.21l14.41 0l0 12.23l-14.41 0Z" id="p267w457" />
<path d="M479.22 204.15l28.61 0l0 12.29l-28.61 0Z" id="p267w458" />
<path d="M507.83 204.21l24.2 0l0 12.23l-24.2 0Z" id="p267w459" />
<path d="M534.73 204.15l31.88 0l0 12.29l-31.88 0Z" id="p267w460" />
<path d="M569.31 204.21l11.94 0l0 12.23l-11.94 0Z" id="p267w461" />
<path d="M583.94 204.21l33.31 0l0 12.23l-33.31 0Z" id="p267w462" />
<path d="M619.96 203.96l19.58 0l0 12.56l-19.58 0Z" id="p267w463" />
<path d="M462.11 219.49l14.41 0l0 12.23l-14.41 0Z" id="p267w464" />
<path d="M479.22 219.44l16.76 0l0 12.29l-16.76 0Z" id="p267w465" />
<path d="M498.68 219.49l17.56 0l0 12.23l-17.56 0Z" id="p267w466" />
<path d="M518.94 219.49l53.12 0l0 12.23l-53.12 0Z" id="p267w467" />
<path d="M574.76 219.25l18.01 0l0 12.56l-18.01 0Z" id="p267w468" />
<path d="M462.11 234.72l38.8 0l0 12.29l-38.8 0Z" id="p267w469" />
<path d="M503.62 234.78l25.65 0l0 12.23l-25.65 0Z" id="p267w470" />
<path d="M543.67 234.75l20.04 0l0 12.23l-20.04 0Z" id="p267w471" />
<path d="M566.42 234.53l18.17 0l0 12.56l-18.17 0Z" id="p267w472" />
<path d="M462.11 250.06l20.03 0l0 12.23l-20.03 0Z" id="p267w473" />
<path d="M484.84 250l25.25 0l0 12.29l-25.25 0Z" id="p267w474" />
<path d="M512.8 250.06l11.94 0l0 12.23l-11.94 0Z" id="p267w475" />
<path d="M527.44 250.06l30.17 0l0 12.23l-30.17 0Z" id="p267w476" />
<path d="M560.3 249.81l17.81 0l0 12.56l-17.81 0Z" id="p267w477" />
<path d="M462.11 265.34l14.41 0l0 12.23l-14.41 0Z" id="p267w478" />
<path d="M479.22 265.29l64.32 0l0 12.29l-64.32 0Z" id="p267w479" />
<path d="M546.24 265.34l17.56 0l0 12.23l-17.56 0Z" id="p267w480" />
<path d="M566.51 265.34l41.42 0l0 12.23l-41.42 0Z" id="p267w481" />
<path d="M610.62 265.1l14.63 0l0 12.56l-14.63 0Z" id="p267w482" />
<path d="M462.11 280.63l14.41 0l0 12.23l-14.41 0Z" id="p267w483" />
<path d="M479.22 280.57l36.37 0l0 12.29l-36.37 0Z" id="p267w484" />
<path d="M518.29 280.63l17.56 0l0 12.23l-17.56 0Z" id="p267w485" />
<path d="M538.55 280.63l24.99 0l0 12.23l-24.99 0Z" id="p267w486" />
<path d="M566.24 280.38l14.63 0l0 12.56l-14.63 0Z" id="p267w487" />
<path d="M462.11 295.91l14.41 0l0 12.23l-14.41 0Z" id="p267w488" />
<path d="M479.22 295.85l79.72 0l0 12.29l-79.72 0Z" id="p267w489" />
<path d="M561.64 295.91l17.56 0l0 12.23l-17.56 0Z" id="p267w490" />
<path d="M581.9 295.91l33.3 0l0 12.23l-33.3 0Z" id="p267w491" />
<path d="M617.9 295.91l11.7 0l0 12.23l-11.7 0Z" id="p267w492" />
<path d="M471.96 311.19l41.42 0l0 12.23l-41.42 0Z" id="p267w493" />
<path d="M516.08 310.95l18.72 0l0 12.56l-18.72 0Z" id="p267w494" />
<path d="M462.11 326.42l32.12 0l0 12.29l-32.12 0Z" id="p267w495" />
<path d="M496.93 326.48l32.4 0l0 12.23l-32.4 0Z" id="p267w496" />
<path d="M532.04 326.23l15.54 0l0 12.56l-15.54 0Z" id="p267w497" />
<path d="M462.11 341.7l10.76 0l0 12.29l-10.76 0Z" id="p267w498" />
<path d="M475.57 341.76l19.36 0l0 12.23l-19.36 0Z" id="p267w499" />
<path d="M497.64 341.52l15.54 0l0 12.56l-15.54 0Z" id="p267w500" />
<path d="M471.96 357.04l10.82 0l0 12.23l-10.82 0Z" id="p267w501" />
<path d="M485.48 357.04l19.36 0l0 12.23l-19.36 0Z" id="p267w502" />
<path d="M507.54 357.04l52.9 0l0 12.23l-52.9 0Z" id="p267w503" />
<path d="M563.14 357.04l30.6 0l0 12.23l-30.6 0Z" id="p267w504" />
<path d="M596.44 357.04l11.7 0l0 12.23l-11.7 0Z" id="p267w505" />
<path d="M610.84 357.04l32.94 0l0 12.23l-32.94 0Z" id="p267w506" />
<path d="M471.96 372.08l18.92 0l0 12.56l-18.92 0Z" id="p267w507" />
<path d="M462.11 387.55l10.76 0l0 12.29l-10.76 0Z" id="p267w508" />
<path d="M475.57 387.61l43.65 0l0 12.23l-43.65 0Z" id="p267w509" />
<path d="M521.92 387.61l14.86 0l0 12.23l-14.86 0Z" id="p267w510" />
<path d="M539.48 387.61l19.35 0l0 12.23l-19.35 0Z" id="p267w511" />
<path d="M561.54 387.61l27.37 0l0 12.23l-27.37 0Z" id="p267w512" />
<path d="M591.6 387.37l15.54 0l0 12.56l-15.54 0Z" id="p267w513" />
<path d="M462.11 402.89l27.01 0l0 12.23l-27.01 0Z" id="p267w514" />
<path d="M491.82 402.84l50.37 0l0 12.29l-50.37 0Z" id="p267w515" />
<path d="M544.9 402.89l21.37 0l0 12.23l-21.37 0Z" id="p267w516" />
<path d="M568.97 402.89l8.33 0l0 12.23l-8.33 0Z" id="p267w517" />
<path d="M580 402.89l32.65 0l0 12.23l-32.65 0Z" id="p267w518" />
<path d="M615.35 402.65l15.54 0l0 12.56l-15.54 0Z" id="p267w519" />
<path d="M462.11 418.18l15.53 0l0 12.23l-15.53 0Z" id="p267w520" />
<path d="M480.34 418.12l31.27 0l0 12.29l-31.27 0Z" id="p267w521" />
<path d="M514.31 418.18l8.33 0l0 12.23l-8.33 0Z" id="p267w522" />
<path d="M525.33 418.18l24.99 0l0 12.23l-24.99 0Z" id="p267w523" />
<path d="M553.02 417.93l15.54 0l0 12.56l-15.54 0Z" id="p267w524" />
<path d="M462.11 433.4l29.07 0l0 12.29l-29.07 0Z" id="p267w525" />
<path d="M493.88 433.46l35.12 0l0 12.23l-35.12 0Z" id="p267w526" />
<path d="M531.7 433.22l18.17 0l0 12.56l-18.17 0Z" id="p267w527" />
<path d="M462.11 448.69l44.56 0l0 12.29l-44.56 0Z" id="p267w528" />
<path d="M509.37 448.74l82.29 0l0 12.23l-82.29 0Z" id="p267w529" />
<path d="M594.36 448.5l15.54 0l0 12.56l-15.54 0Z" id="p267w530" />
<path d="M462.11 464.03l14.41 0l0 12.23l-14.41 0Z" id="p267w531" />
<path d="M479.22 463.97l17.36 0l0 12.29l-17.36 0Z" id="p267w532" />
<path d="M499.28 464.03l11.94 0l0 12.23l-11.94 0Z" id="p267w533" />
<path d="M513.92 464.03l21.83 0l0 12.23l-21.83 0Z" id="p267w534" />
<path d="M538.45 463.78l15.54 0l0 12.56l-15.54 0Z" id="p267w535" />
<path d="M462.11 479.31l17.33 0l0 12.23l-17.33 0Z" id="p267w536" />
<path d="M482.14 479.31l11.25 0l0 12.23l-11.25 0Z" id="p267w537" />
<path d="M496.09 479.31l23.63 0l0 12.23l-23.63 0Z" id="p267w538" />
<path d="M522.42 479.25l42.24 0l0 12.29l-42.24 0Z" id="p267w539" />
<path d="M567.36 479.31l22.05 0l0 12.23l-22.05 0Z" id="p267w540" />
<path d="M592.11 479.31l21.62 0l0 12.23l-21.62 0Z" id="p267w541" />
<path d="M616.43 479.31l20.04 0l0 12.23l-20.04 0Z" id="p267w542" />
<path d="M471.96 494.35l14.63 0l0 12.56l-14.63 0Z" id="p267w543" />
<path d="M462.11 509.88l20.04 0l0 12.23l-20.04 0Z" id="p267w544" />
<path d="M484.85 509.82l38.21 0l0 12.29l-38.21 0Z" id="p267w545" />
<path d="M525.77 509.88l35.57 0l0 12.23l-35.57 0Z" id="p267w546" />
<path d="M564.04 509.88l27.37 0l0 12.23l-27.37 0Z" id="p267w547" />
<path d="M594.1 509.63l15.54 0l0 12.56l-15.54 0Z" id="p267w548" />
<path d="M462.11 525.16l14.41 0l0 12.23l-14.41 0Z" id="p267w549" />
<path d="M479.22 525.11l36.82 0l0 12.29l-36.82 0Z" id="p267w550" />
<path d="M518.74 525.16l33.39 0l0 12.23l-33.39 0Z" id="p267w551" />
<path d="M575.99 524.92l15.54 0l0 12.56l-15.54 0Z" id="p267w552" />
<path d="M607.03 525.16l8.33 0l0 12.23l-8.33 0Z" id="p267w553" />
<path d="M618.06 525.16l22.96 0l0 12.23l-22.96 0Z" id="p267w554" />
<path d="M471.96 540.2l17.81 0l0 12.56l-17.81 0Z" id="p267w555" />
<path d="M462.11 555.67l76.56 0l0 12.29l-76.56 0Z" id="p267w556" />
<path d="M541.37 555.73l10.35 0l0 12.23l-10.35 0Z" id="p267w557" />
<path d="M554.42 555.73l50.65 0l0 12.23l-50.65 0Z" id="p267w558" />
<path d="M607.78 555.48l15.54 0l0 12.56l-15.54 0Z" id="p267w559" />
<path d="M462.11 570.96l30.89 0l0 12.29l-30.89 0Z" id="p267w560" />
<path d="M495.7 571.01l19.13 0l0 12.23l-19.13 0Z" id="p267w561" />
<path d="M517.53 571.01l18.9 0l0 12.23l-18.9 0Z" id="p267w562" />
<path d="M539.13 571.01l11.7 0l0 12.23l-11.7 0Z" id="p267w563" />
<path d="M553.53 571.01l28.81 0l0 12.23l-28.81 0Z" id="p267w564" />
<path d="M585.05 570.77l15.54 0l0 12.56l-15.54 0Z" id="p267w565" />
<path d="M462.11 586.29l11.7 0l0 12.23l-11.7 0Z" id="p267w566" />
<path d="M476.52 586.29l40.5 0l0 12.23l-40.5 0Z" id="p267w567" />
<path d="M519.72 586.24l66 0l0 12.29l-66 0Z" id="p267w568" />
<path d="M588.42 586.29l41.4 0l0 12.23l-41.4 0Z" id="p267w569" />
<path d="M471.96 601.58l27.37 0l0 12.23l-27.37 0Z" id="p267w570" />
<path d="M502.03 601.33l18.72 0l0 12.56l-18.72 0Z" id="p267w571" />
<path d="M462.11 616.81l63.77 0l0 12.29l-63.77 0Z" id="p267w572" />
<path d="M528.58 616.86l44.34 0l0 12.23l-44.34 0Z" id="p267w573" />
<path d="M575.62 616.62l14.63 0l0 12.56l-14.63 0Z" id="p267w574" />
<path d="M462.11 632.09l72.6 0l0 12.29l-72.6 0Z" id="p267w575" />
<path d="M537.42 632.14l32.62 0l0 12.23l-32.62 0Z" id="p267w576" />
<path d="M572.74 631.9l15.54 0l0 12.56l-15.54 0Z" id="p267w577" />
<path d="M602.74 632.14l32.86 0l0 12.23l-32.86 0Z" id="p267w578" />
<path d="M471.96 647.18l15.34 0l0 12.56l-15.34 0Z" id="p267w579" />
<path d="M462.11 662.71l40.5 0l0 12.23l-40.5 0Z" id="p267w580" />
<path d="M505.32 662.66l60.71 0l0 12.29l-60.71 0Z" id="p267w581" />
<path d="M568.73 662.71l29.92 0l0 12.23l-29.92 0Z" id="p267w582" />
<path d="M601.35 662.71l27.37 0l0 12.23l-27.37 0Z" id="p267w583" />
<path d="M471.96 677.75l18.92 0l0 12.56l-18.92 0Z" id="p267w584" />
<path d="M462.11 693.22l31.83 0l0 12.29l-31.83 0Z" id="p267w585" />
<path d="M496.65 693.28l11.7 0l0 12.23l-11.7 0Z" id="p267w586" />
<path d="M511.05 693.28l10.58 0l0 12.23l-10.58 0Z" id="p267w587" />
<path d="M524.33 693.28l39.84 0l0 12.23l-39.84 0Z" id="p267w588" />
<path d="M566.87 693.03l15.54 0l0 12.56l-15.54 0Z" id="p267w589" />
<path d="M471.96 708.56l61.67 0l0 12.23l-61.67 0Z" id="p267w590" />
<path d="M536.33 708.32l18.92 0l0 12.56l-18.92 0Z" id="p267w591" />
<path d="M462.11 723.84l20.03 0l0 12.23l-20.03 0Z" id="p267w592" />
<path d="M484.84 723.79l33.46 0l0 12.29l-33.46 0Z" id="p267w593" />
<path d="M521 723.84l17.56 0l0 12.23l-17.56 0Z" id="p267w594" />
<path d="M541.26 723.84l37.81 0l0 12.23l-37.81 0Z" id="p267w595" />
<path d="M581.78 723.84l36.69 0l0 12.23l-36.69 0Z" id="p267w596" />
<path d="M471.96 738.88l18.72 0l0 12.56l-18.72 0Z" id="p267w597" />
<path d="M462.11 754.36l51.45 0l0 12.29l-51.45 0Z" id="p267w598" />
<path d="M516.26 754.41l45.68 0l0 12.23l-45.68 0Z" id="p267w599" />
<path d="M564.65 754.17l14.79 0l0 12.56l-14.79 0Z" id="p267w600" />
<path d="M462.11 769.64l89.38 0l0 12.29l-89.38 0Z" id="p267w601" />
<path d="M554.19 769.7l35.57 0l0 12.23l-35.57 0Z" id="p267w602" />
<path d="M592.46 769.45l15.54 0l0 12.56l-15.54 0Z" id="p267w603" />
<path d="M462.11 784.98l19.44 0l0 12.23l-19.44 0Z" id="p267w604" />
<path d="M484.25 784.92l82.16 0l0 12.29l-82.16 0Z" id="p267w605" />
<path d="M569.12 784.98l38.7 0l0 12.23l-38.7 0Z" id="p267w606" />
<path d="M610.52 784.98l11.04 0l0 12.23l-11.04 0Z" id="p267w607" />
<path d="M471.96 800.02l18.92 0l0 12.56l-18.92 0Z" id="p267w608" />
<path d="M462.11 815.55l14.41 0l0 12.23l-14.41 0Z" id="p267w609" />
<path d="M479.22 815.49l48.14 0l0 12.29l-48.14 0Z" id="p267w610" />
<path d="M530.06 815.55l8.33 0l0 12.23l-8.33 0Z" id="p267w611" />
<path d="M541.08 815.55l28.38 0l0 12.23l-28.38 0Z" id="p267w612" />
<path d="M572.16 815.3l19.58 0l0 12.56l-19.58 0Z" id="p267w613" />
<path d="M462.11 830.83l14.41 0l0 12.23l-14.41 0Z" id="p267w614" />
<path d="M479.22 830.77l64.76 0l0 12.29l-64.76 0Z" id="p267w615" />
<path d="M546.68 830.83l8.33 0l0 12.23l-8.33 0Z" id="p267w616" />
<path d="M557.7 830.83l66.17 0l0 12.23l-66.17 0Z" id="p267w617" />
<path d="M471.96 845.87l17.81 0l0 12.56l-17.81 0Z" id="p267w618" />
<path d="M462.11 861.34l10.76 0l0 12.29l-10.76 0Z" id="p267w619" />
<path d="M475.57 861.34l16.29 0l0 12.29l-16.29 0Z" id="p267w620" />
<path d="M494.57 861.37l17.56 0l0 12.23l-17.56 0Z" id="p267w621" />
<path d="M514.83 861.37l41.69 0l0 12.23l-41.69 0Z" id="p267w622" />
<path d="M559.22 861.4l19.36 0l0 12.23l-19.36 0Z" id="p267w623" />
<path d="M581.29 861.4l11.7 0l0 12.23l-11.7 0Z" id="p267w624" />
<path d="M595.69 861.15l15.54 0l0 12.56l-15.54 0Z" id="p267w625" />
<path d="M462.11 876.68l14.41 0l0 12.23l-14.41 0Z" id="p267w626" />
<path d="M479.22 876.62l34.3 0l0 12.29l-34.3 0Z" id="p267w627" />
<path d="M516.22 876.68l11.94 0l0 12.23l-11.94 0Z" id="p267w628" />
<path d="M530.86 876.68l27.24 0l0 12.23l-27.24 0Z" id="p267w629" />
<path d="M560.8 876.43l18.92 0l0 12.56l-18.92 0Z" id="p267w630" />
<path d="M462.11 891.91l61.26 0l0 12.29l-61.26 0Z" id="p267w631" />
<path d="M526.07 891.96l37.77 0l0 12.23l-37.77 0Z" id="p267w632" />
<path d="M566.54 891.72l18.01 0l0 12.56l-18.01 0Z" id="p267w633" />
<path d="M462.11 907.25l20.03 0l0 12.23l-20.03 0Z" id="p267w634" />
<path d="M484.84 907.19l36.68 0l0 12.29l-36.68 0Z" id="p267w635" />
<path d="M524.22 907.25l11.94 0l0 12.23l-11.94 0Z" id="p267w636" />
<path d="M538.86 907.25l32.6 0l0 12.23l-32.6 0Z" id="p267w637" />
<path d="M574.16 907l15.54 0l0 12.56l-15.54 0Z" id="p267w638" />
<path d="M462.11 922.47l43.05 0l0 12.29l-43.05 0Z" id="p267w639" />
<path d="M507.86 922.53l24.98 0l0 12.23l-24.98 0Z" id="p267w640" />
<path d="M535.54 922.28l18.92 0l0 12.56l-18.92 0Z" id="p267w641" />
</svg>
