<?xml version="1.0" encoding="UTF-8"?>
<svg xmlns="http://www.w3.org/2000/svg" xmlns:xlink="http://www.w3.org/1999/xlink" version="1.1" baseProfile="full" width="768" height="1024" viewBox="0,0,768,1024" preserveAspectRatio="xMinYMin meet" >
<style type="text/css">
<![CDATA[
path {fill-opacity: 0.5;fill: #00aeef;visibility: hidden;}
]]>
</style>
<path d="M124.06 114.18l33.41 0l0 14.52l-33.41 0Z" id="p49w1" />
<path d="M160.68 114.18l40.1 0l0 14.52l-40.1 0Z" id="p49w2" />
<path d="M203.98 114.18l25.4 0l0 14.52l-25.4 0Z" id="p49w3" />
<path d="M232.59 114.18l17.9 0l0 14.52l-17.9 0Z" id="p49w4" />
<path d="M253.69 114.18l42.49 0l0 14.52l-42.49 0Z" id="p49w5" />
<path d="M299.39 114.18l14.18 0l0 14.52l-14.18 0Z" id="p49w6" />
<path d="M316.77 114.18l65.15 0l0 14.52l-65.15 0Z" id="p49w7" />
<path d="M385.13 114.18l41.02 0l0 14.52l-41.02 0Z" id="p49w8" />
<path d="M124.06 130.85l38.58 0l0 14.52l-38.58 0Z" id="p49w9" />
<path d="M165.85 130.85l15.5 0l0 14.52l-15.5 0Z" id="p49w10" />
<path d="M184.55 130.85l69.69 0l0 14.52l-69.69 0Z" id="p49w11" />
<path d="M265.84 130.85l11.22 0l0 14.52l-11.22 0Z" id="p49w12" />
<path d="M299.77 130.85l9.89 0l0 14.52l-9.89 0Z" id="p49w13" />
<path d="M312.86 130.85l27.73 0l0 14.52l-27.73 0Z" id="p49w14" />
<path d="M359.84 130.85l11.22 0l0 14.52l-11.22 0Z" id="p49w15" />
<path d="M384.15 130.85l27.27 0l0 14.52l-27.27 0Z" id="p49w16" />
<path d="M414.63 130.85l29.42 0l0 14.52l-29.42 0Z" id="p49w17" />
<path d="M447.26 130.85l9.89 0l0 14.52l-9.89 0Z" id="p49w18" />
<path d="M460.35 130.85l60.16 0l0 14.52l-60.16 0Z" id="p49w19" />
<path d="M124.06 147.52l40.63 0l0 14.52l-40.63 0Z" id="p49w20" />
<path d="M167.9 147.52l9.89 0l0 14.52l-9.89 0Z" id="p49w21" />
<path d="M180.99 147.52l27.27 0l0 14.52l-27.27 0Z" id="p49w22" />
<path d="M211.47 147.52l39.56 0l0 14.52l-39.56 0Z" id="p49w23" />
<path d="M253.8 147.52l19.26 0l0 14.52l-19.26 0Z" id="p49w24" />
<path d="M276.26 147.52l50.51 0l0 14.52l-50.51 0Z" id="p49w25" />
<path d="M329.98 147.52l13.9 0l0 14.52l-13.9 0Z" id="p49w26" />
<path d="M347.09 147.52l50.53 0l0 14.52l-50.53 0Z" id="p49w27" />
<path d="M410.45 147.52l45.45 0l0 14.52l-45.45 0Z" id="p49w28" />
<path d="M459.1 147.52l25.67 0l0 14.52l-25.67 0Z" id="p49w29" />
<path d="M487.98 147.52l29.69 0l0 14.52l-29.69 0Z" id="p49w30" />
<path d="M124.06 180.86l49.18 0l0 14.52l-49.18 0Z" id="p49w31" />
<path d="M176.45 180.86l14.18 0l0 14.52l-14.18 0Z" id="p49w32" />
<path d="M193.83 180.86l63.04 0l0 14.52l-63.04 0Z" id="p49w33" />
<path d="M260.08 180.86l39.56 0l0 14.52l-39.56 0Z" id="p49w34" />
<path d="M124.06 197.53l50.99 0l0 14.52l-50.99 0Z" id="p49w35" />
<path d="M178.26 197.53l53.19 0l0 14.52l-53.19 0Z" id="p49w36" />
<path d="M234.66 197.53l23.24 0l0 14.52l-23.24 0Z" id="p49w37" />
<path d="M261.11 197.53l28.87 0l0 14.52l-28.87 0Z" id="p49w38" />
<path d="M293.18 197.53l16.04 0l0 14.52l-16.04 0Z" id="p49w39" />
<path d="M312.43 197.53l26.73 0l0 14.52l-26.73 0Z" id="p49w40" />
<path d="M342.36 197.53l16.31 0l0 14.52l-16.31 0Z" id="p49w41" />
<path d="M361.89 197.53l22.19 0l0 14.52l-22.19 0Z" id="p49w42" />
<path d="M124.06 214.2l11.5 0l0 14.52l-11.5 0Z" id="p49w43" />
<path d="M138.77 214.2l9.89 0l0 14.52l-9.89 0Z" id="p49w44" />
<path d="M151.86 214.2l16.04 0l0 14.52l-16.04 0Z" id="p49w45" />
<path d="M171.1 214.2l13.9 0l0 14.52l-13.9 0Z" id="p49w46" />
<path d="M188.21 214.2l28.87 0l0 14.52l-28.87 0Z" id="p49w47" />
<path d="M220.28 214.2l38.21 0l0 14.52l-38.21 0Z" id="p49w48" />
<path d="M269.99 214.2l11.5 0l0 14.52l-11.5 0Z" id="p49w49" />
<path d="M284.7 214.2l13.9 0l0 14.52l-13.9 0Z" id="p49w50" />
<path d="M301.8 214.2l18.72 0l0 14.52l-18.72 0Z" id="p49w51" />
<path d="M323.73 214.2l42.78 0l0 14.52l-42.78 0Z" id="p49w52" />
<path d="M124.06 230.87l18.44 0l0 14.52l-18.44 0Z" id="p49w53" />
<path d="M145.71 230.87l28.06 0l0 14.52l-28.06 0Z" id="p49w54" />
<path d="M176.98 230.87l57.39 0l0 14.52l-57.39 0Z" id="p49w55" />
<path d="M237.58 230.87l45.45 0l0 14.52l-45.45 0Z" id="p49w56" />
<path d="M286.23 230.87l25.67 0l0 14.52l-25.67 0Z" id="p49w57" />
<path d="M315.11 230.87l29.69 0l0 14.52l-29.69 0Z" id="p49w58" />
<path d="M124.06 433.1l24.84 0l0 18.84l-24.84 0Z" id="p49w59" />
<path d="M152.56 433.1l45.9 0l0 18.84l-45.9 0Z" id="p49w60" />
<path d="M202.11 433.1l16.67 0l0 18.84l-16.67 0Z" id="p49w61" />
<path d="M222.43 433.1l31.21 0l0 18.84l-31.21 0Z" id="p49w62" />
<path d="M257.29 433.1l19.04 0l0 18.84l-19.04 0Z" id="p49w63" />
<path d="M279.98 433.1l42.85 0l0 18.84l-42.85 0Z" id="p49w64" />
<path d="M143.75 464.31l27.53 0l0 14.52l-27.53 0Z" id="p49w65" />
<path d="M174.5 464.31l9.89 0l0 14.52l-9.89 0Z" id="p49w66" />
<path d="M187.59 464.31l26.19 0l0 14.52l-26.19 0Z" id="p49w67" />
<path d="M227.94 464.31l28.87 0l0 14.52l-28.87 0Z" id="p49w68" />
<path d="M260.01 464.31l24.33 0l0 14.52l-24.33 0Z" id="p49w69" />
<path d="M287.55 464.31l50.01 0l0 14.52l-50.01 0Z" id="p49w70" />
<path d="M340.77 464.31l33.05 0l0 14.52l-33.05 0Z" id="p49w71" />
<path d="M377.03 464.31l20.85 0l0 14.52l-20.85 0Z" id="p49w72" />
<path d="M401.09 464.31l15.5 0l0 14.52l-15.5 0Z" id="p49w73" />
<path d="M419.79 464.31l42.49 0l0 14.52l-42.49 0Z" id="p49w74" />
<path d="M465.49 464.31l48.3 0l0 14.52l-48.3 0Z" id="p49w75" />
<path d="M516.99 464.31l12.29 0l0 14.52l-12.29 0Z" id="p49w76" />
<path d="M532.49 464.31l22.99 0l0 14.52l-22.99 0Z" id="p49w77" />
<path d="M558.69 464.31l14.18 0l0 14.52l-14.18 0Z" id="p49w78" />
<path d="M576.07 464.31l28.62 0l0 14.52l-28.62 0Z" id="p49w79" />
<path d="M143.75 480.98l32.87 0l0 14.52l-32.87 0Z" id="p49w80" />
<path d="M179.83 480.98l19.51 0l0 14.52l-19.51 0Z" id="p49w81" />
<path d="M202.54 480.98l66.3 0l0 14.52l-66.3 0Z" id="p49w82" />
<path d="M143.75 505.99l43.86 0l0 14.52l-43.86 0Z" id="p49w83" />
<path d="M190.82 505.99l9.89 0l0 14.52l-9.89 0Z" id="p49w84" />
<path d="M203.92 505.99l28.33 0l0 14.52l-28.33 0Z" id="p49w85" />
<path d="M235.45 505.99l20.85 0l0 14.52l-20.85 0Z" id="p49w86" />
<path d="M259.51 505.99l50.5 0l0 14.52l-50.5 0Z" id="p49w87" />
<path d="M313.22 505.99l20.05 0l0 14.52l-20.05 0Z" id="p49w88" />
<path d="M342.89 505.99l33.05 0l0 14.52l-33.05 0Z" id="p49w89" />
<path d="M379.15 505.99l20.85 0l0 14.52l-20.85 0Z" id="p49w90" />
<path d="M403.21 505.99l18.72 0l0 14.52l-18.72 0Z" id="p49w91" />
<path d="M425.14 505.99l63.62 0l0 14.52l-63.62 0Z" id="p49w92" />
<path d="M491.96 505.99l39.55 0l0 14.52l-39.55 0Z" id="p49w93" />
<path d="M534.72 505.99l32.34 0l0 14.52l-32.34 0Z" id="p49w94" />
<path d="M143.75 531l27.53 0l0 14.52l-27.53 0Z" id="p49w95" />
<path d="M174.49 531l15.5 0l0 14.52l-15.5 0Z" id="p49w96" />
<path d="M193.2 531l43.29 0l0 14.52l-43.29 0Z" id="p49w97" />
<path d="M239.7 531l60.07 0l0 14.52l-60.07 0Z" id="p49w98" />
<path d="M302.98 531l22.99 0l0 14.52l-22.99 0Z" id="p49w99" />
<path d="M329.18 531l43.58 0l0 14.52l-43.58 0Z" id="p49w100" />
<path d="M375.97 531l20.85 0l0 14.52l-20.85 0Z" id="p49w101" />
<path d="M400.03 531l54.26 0l0 14.52l-54.26 0Z" id="p49w102" />
<path d="M457.5 531l20.05 0l0 14.52l-20.05 0Z" id="p49w103" />
<path d="M480.76 531l9.89 0l0 14.52l-9.89 0Z" id="p49w104" />
<path d="M493.85 531l57.48 0l0 14.52l-57.48 0Z" id="p49w105" />
<path d="M143.75 547.68l29.66 0l0 14.52l-29.66 0Z" id="p49w106" />
<path d="M176.62 547.68l15.5 0l0 14.52l-15.5 0Z" id="p49w107" />
<path d="M195.32 547.68l42.49 0l0 14.52l-42.49 0Z" id="p49w108" />
<path d="M241.02 547.68l50.98 0l0 14.52l-50.98 0Z" id="p49w109" />
<path d="M295.2 547.68l28.33 0l0 14.52l-28.33 0Z" id="p49w110" />
<path d="M326.74 547.68l40.89 0l0 14.52l-40.89 0Z" id="p49w111" />
<path d="M370.84 547.68l8.82 0l0 14.52l-8.82 0Z" id="p49w112" />
<path d="M382.86 547.68l15.5 0l0 14.52l-15.5 0Z" id="p49w113" />
<path d="M401.56 547.68l43.29 0l0 14.52l-43.29 0Z" id="p49w114" />
<path d="M448.07 547.68l24.33 0l0 14.52l-24.33 0Z" id="p49w115" />
<path d="M475.6 547.68l32.6 0l0 14.52l-32.6 0Z" id="p49w116" />
<path d="M511.41 547.68l13.91 0l0 14.52l-13.91 0Z" id="p49w117" />
<path d="M528.53 547.68l44.1 0l0 14.52l-44.1 0Z" id="p49w118" />
<path d="M143.75 572.69l33.41 0l0 14.52l-33.41 0Z" id="p49w119" />
<path d="M180.37 572.69l16.83 0l0 14.52l-16.83 0Z" id="p49w120" />
<path d="M200.41 572.69l31.8 0l0 14.52l-31.8 0Z" id="p49w121" />
<path d="M245.3 572.69l50.76 0l0 14.52l-50.76 0Z" id="p49w122" />
<path d="M299.27 572.69l6.41 0l0 14.52l-6.41 0Z" id="p49w123" />
<path d="M327.87 572.69l26.74 0l0 14.52l-26.74 0Z" id="p49w124" />
<path d="M357.82 572.69l55.32 0l0 14.52l-55.32 0Z" id="p49w125" />
<path d="M143.75 589.36l52.12 0l0 14.52l-52.12 0Z" id="p49w126" />
<path d="M199.09 589.36l33.95 0l0 14.52l-33.95 0Z" id="p49w127" />
<path d="M236.24 589.36l33.41 0l0 14.52l-33.41 0Z" id="p49w128" />
<path d="M272.86 589.36l20.85 0l0 14.52l-20.85 0Z" id="p49w129" />
<path d="M296.92 589.36l21.38 0l0 14.52l-21.38 0Z" id="p49w130" />
<path d="M321.51 589.36l72.95 0l0 14.52l-72.95 0Z" id="p49w131" />
<path d="M397.67 589.36l16.83 0l0 14.52l-16.83 0Z" id="p49w132" />
<path d="M417.71 589.36l22.99 0l0 14.52l-22.99 0Z" id="p49w133" />
<path d="M443.91 589.36l28.87 0l0 14.52l-28.87 0Z" id="p49w134" />
<path d="M143.75 606.03l27.8 0l0 14.52l-27.8 0Z" id="p49w135" />
<path d="M174.76 606.03l9.89 0l0 14.52l-9.89 0Z" id="p49w136" />
<path d="M187.85 606.03l44.36 0l0 14.52l-44.36 0Z" id="p49w137" />
<path d="M235.42 606.03l13.91 0l0 14.52l-13.91 0Z" id="p49w138" />
<path d="M252.54 606.03l47.31 0l0 14.52l-47.31 0Z" id="p49w139" />
<path d="M303.06 606.03l15.5 0l0 14.52l-15.5 0Z" id="p49w140" />
<path d="M321.76 606.03l36.8 0l0 14.52l-36.8 0Z" id="p49w141" />
<path d="M361.77 606.03l15.5 0l0 14.52l-15.5 0Z" id="p49w142" />
<path d="M380.47 606.03l42.22 0l0 14.52l-42.22 0Z" id="p49w143" />
<path d="M425.9 606.03l13.9 0l0 14.52l-13.9 0Z" id="p49w144" />
<path d="M443.01 606.03l24.33 0l0 14.52l-24.33 0Z" id="p49w145" />
<path d="M470.54 606.03l19.51 0l0 14.52l-19.51 0Z" id="p49w146" />
<path d="M493.26 606.03l44.11 0l0 14.52l-44.11 0Z" id="p49w147" />
<path d="M143.75 622.7l26.73 0l0 14.52l-26.73 0Z" id="p49w148" />
<path d="M173.69 622.7l15.5 0l0 14.52l-15.5 0Z" id="p49w149" />
<path d="M192.39 622.7l81.24 0l0 14.52l-81.24 0Z" id="p49w150" />
<path d="M143.75 639.37l33.41 0l0 14.52l-33.41 0Z" id="p49w151" />
<path d="M180.37 639.37l37.41 0l0 14.52l-37.41 0Z" id="p49w152" />
<path d="M220.98 639.37l20.85 0l0 14.52l-20.85 0Z" id="p49w153" />
<path d="M245.05 639.37l12.29 0l0 14.52l-12.29 0Z" id="p49w154" />
<path d="M260.54 639.37l16.04 0l0 14.52l-16.04 0Z" id="p49w155" />
<path d="M289.67 639.37l50.76 0l0 14.52l-50.76 0Z" id="p49w156" />
<path d="M343.64 639.37l23.24 0l0 14.52l-23.24 0Z" id="p49w157" />
<path d="M370.1 639.37l41.43 0l0 14.52l-41.43 0Z" id="p49w158" />
<path d="M414.74 639.37l12.29 0l0 14.52l-12.29 0Z" id="p49w159" />
<path d="M430.23 639.37l16.04 0l0 14.52l-16.04 0Z" id="p49w160" />
<path d="M459.36 639.37l36.64 0l0 14.52l-36.64 0Z" id="p49w161" />
<path d="M143.75 656.04l18.44 0l0 14.52l-18.44 0Z" id="p49w162" />
<path d="M165.4 656.04l84.3 0l0 14.52l-84.3 0Z" id="p49w163" />
<path d="M252.91 656.04l19.51 0l0 14.52l-19.51 0Z" id="p49w164" />
<path d="M275.63 656.04l33.95 0l0 14.52l-33.95 0Z" id="p49w165" />
<path d="M312.78 656.04l18.72 0l0 14.52l-18.72 0Z" id="p49w166" />
<path d="M334.71 656.04l33.14 0l0 14.52l-33.14 0Z" id="p49w167" />
<path d="M371.06 656.04l21.38 0l0 14.52l-21.38 0Z" id="p49w168" />
<path d="M395.65 656.04l25.4 0l0 14.52l-25.4 0Z" id="p49w169" />
<path d="M424.25 656.04l25.67 0l0 14.52l-25.67 0Z" id="p49w170" />
<path d="M453.13 656.04l40.1 0l0 14.52l-40.1 0Z" id="p49w171" />
<path d="M496.44 656.04l14.18 0l0 14.52l-14.18 0Z" id="p49w172" />
<path d="M513.82 656.04l34.57 0l0 14.52l-34.57 0Z" id="p49w173" />
<path d="M551.6 656.04l13.9 0l0 14.52l-13.9 0Z" id="p49w174" />
<path d="M568.71 656.04l39.57 0l0 14.52l-39.57 0Z" id="p49w175" />
<path d="M143.75 672.71l10.16 0l0 14.52l-10.16 0Z" id="p49w176" />
<path d="M157.12 672.71l33.41 0l0 14.52l-33.41 0Z" id="p49w177" />
<path d="M203.63 672.71l9.89 0l0 14.52l-9.89 0Z" id="p49w178" />
<path d="M216.72 672.71l20.84 0l0 14.52l-20.84 0Z" id="p49w179" />
<path d="M240.77 672.71l14.18 0l0 14.52l-14.18 0Z" id="p49w180" />
<path d="M258.15 672.71l28.07 0l0 14.52l-28.07 0Z" id="p49w181" />
<path d="M289.43 672.71l49.17 0l0 14.52l-49.17 0Z" id="p49w182" />
<path d="M341.81 672.71l33.95 0l0 14.52l-33.95 0Z" id="p49w183" />
<path d="M378.97 672.71l13.37 0l0 14.52l-13.37 0Z" id="p49w184" />
<path d="M395.54 672.71l54.51 0l0 14.52l-54.51 0Z" id="p49w185" />
<path d="M453.26 672.71l19.79 0l0 14.52l-19.79 0Z" id="p49w186" />
<path d="M476.26 672.71l53.5 0l0 14.52l-53.5 0Z" id="p49w187" />
<path d="M143.75 689.38l52.12 0l0 14.52l-52.12 0Z" id="p49w188" />
<path d="M199.09 689.38l33.95 0l0 14.52l-33.95 0Z" id="p49w189" />
<path d="M236.24 689.38l33.41 0l0 14.52l-33.41 0Z" id="p49w190" />
<path d="M272.86 689.38l20.85 0l0 14.52l-20.85 0Z" id="p49w191" />
<path d="M296.92 689.38l33.41 0l0 14.52l-33.41 0Z" id="p49w192" />
<path d="M333.53 689.38l23.24 0l0 14.52l-23.24 0Z" id="p49w193" />
<path d="M359.98 689.38l29.12 0l0 14.52l-29.12 0Z" id="p49w194" />
<path d="M392.31 689.38l35.29 0l0 14.52l-35.29 0Z" id="p49w195" />
<path d="M430.81 689.38l6.41 0l0 14.52l-6.41 0Z" id="p49w196" />
<path d="M440.43 689.38l51.04 0l0 14.52l-51.04 0Z" id="p49w197" />
<path d="M143.75 706.05l49.17 0l0 14.52l-49.17 0Z" id="p49w198" />
<path d="M196.13 706.05l33.95 0l0 14.52l-33.95 0Z" id="p49w199" />
<path d="M233.28 706.05l12.29 0l0 14.52l-12.29 0Z" id="p49w200" />
<path d="M248.78 706.05l18.7 0l0 14.52l-18.7 0Z" id="p49w201" />
<path d="M270.69 706.05l14.18 0l0 14.52l-14.18 0Z" id="p49w202" />
<path d="M288.07 706.05l28.62 0l0 14.52l-28.62 0Z" id="p49w203" />
<path d="M319.9 706.05l25.67 0l0 14.52l-25.67 0Z" id="p49w204" />
<path d="M348.78 706.05l9.89 0l0 14.52l-9.89 0Z" id="p49w205" />
<path d="M361.87 706.05l33.68 0l0 14.52l-33.68 0Z" id="p49w206" />
<path d="M398.76 706.05l48.3 0l0 14.52l-48.3 0Z" id="p49w207" />
<path d="M450.27 706.05l13.9 0l0 14.52l-13.9 0Z" id="p49w208" />
<path d="M467.37 706.05l62.21 0l0 14.52l-62.21 0Z" id="p49w209" />
<path d="M124.06 749.89l18.69 0l0 18.84l-18.69 0Z" id="p49w210" />
<path d="M146.4 749.89l59.5 0l0 18.84l-59.5 0Z" id="p49w211" />
<path d="M209.55 749.89l15.26 0l0 18.84l-15.26 0Z" id="p49w212" />
<path d="M228.46 749.89l18.36 0l0 18.84l-18.36 0Z" id="p49w213" />
<path d="M250.47 749.89l68.98 0l0 18.84l-68.98 0Z" id="p49w214" />
<path d="M124.06 781.09l33.41 0l0 14.52l-33.41 0Z" id="p49w215" />
<path d="M160.68 781.09l16.83 0l0 14.52l-16.83 0Z" id="p49w216" />
<path d="M190.6 781.09l23.8 0l0 14.52l-23.8 0Z" id="p49w217" />
<path d="M214.4 781.09l12.57 0l0 14.52l-12.57 0Z" id="p49w218" />
<path d="M230.17 781.09l13.9 0l0 14.52l-13.9 0Z" id="p49w219" />
<path d="M247.28 781.09l49.44 0l0 14.52l-49.44 0Z" id="p49w220" />
<path d="M299.93 781.09l13.9 0l0 14.52l-13.9 0Z" id="p49w221" />
<path d="M317.04 781.09l50.76 0l0 14.52l-50.76 0Z" id="p49w222" />
<path d="M371.01 781.09l25.4 0l0 14.52l-25.4 0Z" id="p49w223" />
<path d="M399.61 781.09l17.9 0l0 14.52l-17.9 0Z" id="p49w224" />
<path d="M420.72 781.09l45.17 0l0 14.52l-45.17 0Z" id="p49w225" />
<path d="M469.09 781.09l12.02 0l0 14.52l-12.02 0Z" id="p49w226" />
<path d="M484.32 781.09l55.87 0l0 14.52l-55.87 0Z" id="p49w227" />
<path d="M543.4 781.09l19.51 0l0 14.52l-19.51 0Z" id="p49w228" />
<path d="M566.12 781.09l29.39 0l0 14.52l-29.39 0Z" id="p49w229" />
<path d="M598.72 781.09l13.9 0l0 14.52l-13.9 0Z" id="p49w230" />
<path d="M615.83 781.09l29.39 0l0 14.52l-29.39 0Z" id="p49w231" />
<path d="M124.06 797.76l26.73 0l0 14.52l-26.73 0Z" id="p49w232" />
<path d="M154 797.76l53.44 0l0 14.52l-53.44 0Z" id="p49w233" />
<path d="M210.65 797.76l51.89 0l0 14.52l-51.89 0Z" id="p49w234" />
<path d="M265.74 797.76l9.89 0l0 14.52l-9.89 0Z" id="p49w235" />
<path d="M278.84 797.76l30.21 0l0 14.52l-30.21 0Z" id="p49w236" />
<path d="M336.39 800.15l33.87 0l0 11.53l-33.87 0Z" id="p49w237" />
<path d="M377.84 797.76l11.22 0l0 14.52l-11.22 0Z" id="p49w238" />
<path d="M392.27 797.76l29.42 0l0 14.52l-29.42 0Z" id="p49w239" />
<path d="M424.9 797.76l15.5 0l0 14.52l-15.5 0Z" id="p49w240" />
<path d="M443.6 797.76l64.14 0l0 14.52l-64.14 0Z" id="p49w241" />
<path d="M124.06 863.82l23.08 0l0 18.84l-23.08 0Z" id="p49w242" />
<path d="M150.79 863.82l31.31 0l0 18.84l-31.31 0Z" id="p49w243" />
<path d="M185.75 863.82l15.26 0l0 18.84l-15.26 0Z" id="p49w244" />
<path d="M204.66 863.82l23.09 0l0 18.84l-23.09 0Z" id="p49w245" />
<path d="M231.4 863.82l47.41 0l0 18.84l-47.41 0Z" id="p49w246" />
<path d="M124.06 897.8l50.43 0l0 14.52l-50.43 0Z" id="p49w247" />
<path d="M177.7 897.8l17.38 0l0 14.52l-17.38 0Z" id="p49w248" />
<path d="M198.29 897.8l16.83 0l0 14.52l-16.83 0Z" id="p49w249" />
<path d="M218.33 897.8l62.53 0l0 14.52l-62.53 0Z" id="p49w250" />
<path d="M284.06 897.8l25.67 0l0 14.52l-25.67 0Z" id="p49w251" />
<path d="M312.94 897.8l28.87 0l0 14.52l-28.87 0Z" id="p49w252" />
<path d="M345.02 897.8l34.21 0l0 14.52l-34.21 0Z" id="p49w253" />
<path d="M382.44 897.8l26.73 0l0 14.52l-26.73 0Z" id="p49w254" />
<path d="M412.37 897.8l28.87 0l0 14.52l-28.87 0Z" id="p49w255" />
<path d="M444.45 897.8l22.45 0l0 14.52l-22.45 0Z" id="p49w256" />
<path d="M470.11 897.8l13.91 0l0 14.52l-13.91 0Z" id="p49w257" />
<path d="M487.23 897.8l28.87 0l0 14.52l-28.87 0Z" id="p49w258" />
<path d="M519.3 897.8l35.76 0l0 14.52l-35.76 0Z" id="p49w259" />
<path d="M124.06 914.47l57.21 0l0 14.52l-57.21 0Z" id="p49w260" />
<path d="M184.47 914.47l36.61 0l0 14.52l-36.61 0Z" id="p49w261" />
<path d="M224.3 914.47l48.39 0l0 14.52l-48.39 0Z" id="p49w262" />
<path d="M275.89 914.47l51.33 0l0 14.52l-51.33 0Z" id="p49w263" />
<path d="M330.43 914.47l13.91 0l0 14.52l-13.91 0Z" id="p49w264" />
<path d="M347.55 914.47l38.23 0l0 14.52l-38.23 0Z" id="p49w265" />
<path d="M388.98 914.47l19.51 0l0 14.52l-19.51 0Z" id="p49w266" />
<path d="M411.7 914.47l38.5 0l0 14.52l-38.5 0Z" id="p49w267" />
<path d="M453.41 914.47l13.9 0l0 14.52l-13.9 0Z" id="p49w268" />
<path d="M470.52 914.47l18.18 0l0 14.52l-18.18 0Z" id="p49w269" />
<path d="M491.9 914.47l45.71 0l0 14.52l-45.71 0Z" id="p49w270" />
<path d="M540.82 914.47l11.22 0l0 14.52l-11.22 0Z" id="p49w271" />
<path d="M555.24 914.47l39.03 0l0 14.52l-39.03 0Z" id="p49w272" />
<path d="M124.06 931.14l13.63 0l0 14.52l-13.63 0Z" id="p49w273" />
<path d="M140.9 931.14l33.95 0l0 14.52l-33.95 0Z" id="p49w274" />
<path d="M178.06 931.14l24.59 0l0 14.52l-24.59 0Z" id="p49w275" />
<path d="M205.86 931.14l43.29 0l0 14.52l-43.29 0Z" id="p49w276" />
<path d="M252.36 931.14l25.67 0l0 14.52l-25.67 0Z" id="p49w277" />
<path d="M281.24 931.14l40.64 0l0 14.52l-40.64 0Z" id="p49w278" />
<path d="M325.09 931.14l35.31 0l0 14.52l-35.31 0Z" id="p49w279" />
<path d="M363.6 931.14l18.44 0l0 14.52l-18.44 0Z" id="p49w280" />
<path d="M385.25 931.14l33.34 0l0 14.52l-33.34 0Z" id="p49w281" />
<path d="M460.38 931.14l45.45 0l0 14.52l-45.45 0Z" id="p49w282" />
<path d="M509.03 931.14l25.67 0l0 14.52l-25.67 0Z" id="p49w283" />
<path d="M537.91 931.14l29.69 0l0 14.52l-29.69 0Z" id="p49w284" />
<path d="M60.68 115.95l27.93 0l0 12.29l-27.93 0Z" id="p49w285" />
<path d="M50.66 157.09l37.96 0l0 13.07l-37.96 0Z" id="p49w286" />
<path d="M41.61 168.21l47 0l0 13.07l-47 0Z" id="p49w287" />
<path d="M60.68 182.64l27.93 0l0 12.29l-27.93 0Z" id="p49w288" />
<path d="M135.74 263.21l46.99 0l0 16.96l-46.99 0Z" id="p49w289" />
<path d="M194.27 263.21l39.87 0l0 16.96l-39.87 0Z" id="p49w290" />
<path d="M277.56 263.21l27.07 0l0 16.96l-27.07 0Z" id="p49w291" />
<path d="M309.28 263.21l53.07 0l0 16.96l-53.07 0Z" id="p49w292" />
<path d="M374.28 263.21l47.58 0l0 16.96l-47.58 0Z" id="p49w293" />
<path d="M135.74 279.88l63.03 0l0 16.96l-63.03 0Z" id="p49w294" />
<path d="M204.23 279.88l45.75 0l0 16.96l-45.75 0Z" id="p49w295" />
<path d="M281.52 279.88l34.74 0l0 16.96l-34.74 0Z" id="p49w296" />
<path d="M320.9 279.88l21.34 0l0 16.96l-21.34 0Z" id="p49w297" />
<path d="M346.89 279.88l49.5 0l0 16.96l-49.5 0Z" id="p49w298" />
<path d="M407.93 279.88l14.39 0l0 16.96l-14.39 0Z" id="p49w299" />
<path d="M135.76 296.55l42.26 0l0 16.96l-42.26 0Z" id="p49w300" />
<path d="M189.56 296.55l15.84 0l0 16.96l-15.84 0Z" id="p49w301" />
<path d="M210.47 296.55l45.52 0l0 16.96l-45.52 0Z" id="p49w302" />
<path d="M296.33 296.55l32.46 0l0 16.96l-32.46 0Z" id="p49w303" />
<path d="M333.43 296.55l11.75 0l0 16.96l-11.75 0Z" id="p49w304" />
<path d="M349.82 296.55l28.13 0l0 16.96l-28.13 0Z" id="p49w305" />
<path d="M382.6 296.55l14.39 0l0 16.96l-14.39 0Z" id="p49w306" />
<path d="M135.76 313.22l42.37 0l0 16.96l-42.37 0Z" id="p49w307" />
<path d="M189.43 313.22l32.46 0l0 16.96l-32.46 0Z" id="p49w308" />
<path d="M226.53 313.22l14.81 0l0 16.96l-14.81 0Z" id="p49w309" />
<path d="M245.98 313.22l11.59 0l0 16.96l-11.59 0Z" id="p49w310" />
<path d="M262.22 313.22l53.52 0l0 16.96l-53.52 0Z" id="p49w311" />
<path d="M356.32 313.22l67.92 0l0 16.96l-67.92 0Z" id="p49w312" />
<path d="M135.76 329.89l21.34 0l0 16.96l-21.34 0Z" id="p49w313" />
<path d="M161.75 329.89l50.13 0l0 16.96l-50.13 0Z" id="p49w314" />
<path d="M229.2 329.89l64.61 0l0 16.96l-64.61 0Z" id="p49w315" />
<path d="M298.45 329.89l62.87 0l0 16.96l-62.87 0Z" id="p49w316" />
<path d="M365.96 329.89l14.39 0l0 16.96l-14.39 0Z" id="p49w317" />
<path d="M135.76 346.56l29.55 0l0 16.96l-29.55 0Z" id="p49w318" />
<path d="M176.85 346.56l21.34 0l0 16.96l-21.34 0Z" id="p49w319" />
<path d="M202.84 346.56l29.39 0l0 16.96l-29.39 0Z" id="p49w320" />
<path d="M236.88 346.56l80.84 0l0 16.96l-80.84 0Z" id="p49w321" />
<path d="M349.26 346.56l61.81 0l0 16.96l-61.81 0Z" id="p49w322" />
<path d="M135.76 363.23l60.99 0l0 16.96l-60.99 0Z" id="p49w323" />
<path d="M213.67 363.23l45.1 0l0 16.96l-45.1 0Z" id="p49w324" />
<path d="M263.42 363.23l62.87 0l0 16.96l-62.87 0Z" id="p49w325" />
<path d="M330.93 363.23l54.82 0l0 16.96l-54.82 0Z" id="p49w326" />
<path d="M135.76 379.9l21.34 0l0 16.96l-21.34 0Z" id="p49w327" />
<path d="M161.75 379.9l26.69 0l0 16.96l-26.69 0Z" id="p49w328" />
<path d="M53.09 466.08l35.52 0l0 12.29l-35.52 0Z" id="p49w329" />
<path d="M45.92 482.82l25.45 0l0 12.3l-25.45 0Z" id="p49w330" />
<path d="M50.66 498.89l37.96 0l0 13.07l-37.96 0Z" id="p49w331" />
<path d="M41.61 510l47 0l0 13.07l-47 0Z" id="p49w332" />
<path d="M40.54 782.87l48.07 0l0 12.29l-48.07 0Z" id="p49w333" />
<path d="M50.66 833.73l37.96 0l0 13.07l-37.96 0Z" id="p49w334" />
<path d="M41.61 844.84l47 0l0 13.07l-47 0Z" id="p49w335" />
<path d="M151.66 839.54l60.81 0l0 12.56l-60.81 0Z" id="p49w336" />
<path d="M62.22 899.58l26.4 0l0 12.29l-26.4 0Z" id="p49w337" />
<path d="M68.27 39.02l42.71 0l0 15.38l-42.71 0Z" id="p49w338" />
<path d="M152.94 38.6l45.75 0l0 16.09l-45.75 0Z" id="p49w339" />
<path d="M250.71 39.02l43.21 0l0 15.38l-43.21 0Z" id="p49w340" />
<path d="M349.96 39.02l32.54 0l0 15.38l-32.54 0Z" id="p49w341" />
<path d="M625.46 983l65.65 0l0 12.23l-65.65 0Z" id="p49w342" />
</svg>
