<?xml version="1.0" encoding="UTF-8"?>
<svg xmlns="http://www.w3.org/2000/svg" xmlns:xlink="http://www.w3.org/1999/xlink" version="1.1" baseProfile="full" width="768" height="1024" viewBox="0,0,768,1024" preserveAspectRatio="xMinYMin meet" >
<style type="text/css">
<![CDATA[
path {fill-opacity: 0.5;fill: #00aeef;visibility: hidden;}
]]>
</style>
<path d="M76.9 983.66l121.37 0l0 12.23l-121.37 0Z" id="p260w1" />
<path d="M124.06 38.6l77.83 0l0 16.09l-77.83 0Z" id="p260w2" />
<path d="M124.06 112.51l14.41 0l0 12.23l-14.41 0Z" id="p260w3" />
<path d="M141.17 112.45l60.22 0l0 12.29l-60.22 0Z" id="p260w4" />
<path d="M204.09 112.51l11.94 0l0 12.23l-11.94 0Z" id="p260w5" />
<path d="M218.73 112.51l58.97 0l0 12.23l-58.97 0Z" id="p260w6" />
<path d="M133.91 127.55l18.92 0l0 12.56l-18.92 0Z" id="p260w7" />
<path d="M124.06 143.02l55.78 0l0 12.29l-55.78 0Z" id="p260w8" />
<path d="M182.54 143.08l83.62 0l0 12.23l-83.62 0Z" id="p260w9" />
<path d="M268.86 142.83l17.81 0l0 12.56l-17.81 0Z" id="p260w10" />
<path d="M124.06 158.36l16.43 0l0 12.23l-16.43 0Z" id="p260w11" />
<path d="M143.19 158.3l24.69 0l0 12.29l-24.69 0Z" id="p260w12" />
<path d="M170.58 158.36l8.33 0l0 12.23l-8.33 0Z" id="p260w13" />
<path d="M181.61 158.36l18.67 0l0 12.23l-18.67 0Z" id="p260w14" />
<path d="M202.98 158.11l15.54 0l0 12.56l-15.54 0Z" id="p260w15" />
<path d="M124.06 173.64l16.43 0l0 12.23l-16.43 0Z" id="p260w16" />
<path d="M143.19 173.59l24.05 0l0 12.29l-24.05 0Z" id="p260w17" />
<path d="M169.95 173.64l8.33 0l0 12.23l-8.33 0Z" id="p260w18" />
<path d="M180.97 173.64l27.45 0l0 12.23l-27.45 0Z" id="p260w19" />
<path d="M211.13 173.4l15.54 0l0 12.56l-15.54 0Z" id="p260w20" />
<path d="M124.06 188.87l24.86 0l0 12.29l-24.86 0Z" id="p260w21" />
<path d="M151.63 188.93l13.05 0l0 12.23l-13.05 0Z" id="p260w22" />
<path d="M167.38 188.93l19.36 0l0 12.23l-19.36 0Z" id="p260w23" />
<path d="M189.44 188.93l11.7 0l0 12.23l-11.7 0Z" id="p260w24" />
<path d="M203.85 188.68l18.92 0l0 12.56l-18.92 0Z" id="p260w25" />
<path d="M124.06 204.15l39.86 0l0 12.29l-39.86 0Z" id="p260w26" />
<path d="M166.62 204.21l42.09 0l0 12.23l-42.09 0Z" id="p260w27" />
<path d="M211.42 204.19l21.86 0l0 12.23l-21.86 0Z" id="p260w28" />
<path d="M235.98 203.96l14.63 0l0 12.56l-14.63 0Z" id="p260w29" />
<path d="M124.06 219.49l14.41 0l0 12.23l-14.41 0Z" id="p260w30" />
<path d="M141.17 219.44l43.6 0l0 12.29l-43.6 0Z" id="p260w31" />
<path d="M187.47 219.49l24.32 0l0 12.23l-24.32 0Z" id="p260w32" />
<path d="M214.49 219.49l8.33 0l0 12.23l-8.33 0Z" id="p260w33" />
<path d="M225.52 219.49l39.16 0l0 12.23l-39.16 0Z" id="p260w34" />
<path d="M267.38 219.49l23.63 0l0 12.23l-23.63 0Z" id="p260w35" />
<path d="M133.91 234.53l18.01 0l0 12.56l-18.01 0Z" id="p260w36" />
<path d="M124.06 250l23.78 0l0 12.29l-23.78 0Z" id="p260w37" />
<path d="M152.01 250l29.4 0l0 12.29l-29.4 0Z" id="p260w38" />
<path d="M184.11 250.06l63.92 0l0 12.23l-63.92 0Z" id="p260w39" />
<path d="M250.73 249.81l14.79 0l0 12.56l-14.79 0Z" id="p260w40" />
<path d="M124.06 265.34l37.54 0l0 12.23l-37.54 0Z" id="p260w41" />
<path d="M164.3 265.29l41.98 0l0 12.29l-41.98 0Z" id="p260w42" />
<path d="M208.98 265.34l19.13 0l0 12.23l-19.13 0Z" id="p260w43" />
<path d="M230.81 265.34l18.9 0l0 12.23l-18.9 0Z" id="p260w44" />
<path d="M252.41 265.34l11.94 0l0 12.23l-11.94 0Z" id="p260w45" />
<path d="M267.05 265.34l29.7 0l0 12.23l-29.7 0Z" id="p260w46" />
<path d="M133.91 280.63l18.23 0l0 12.23l-18.23 0Z" id="p260w47" />
<path d="M154.84 280.38l18.17 0l0 12.56l-18.17 0Z" id="p260w48" />
<path d="M124.06 295.91l14.19 0l0 12.23l-14.19 0Z" id="p260w49" />
<path d="M140.96 295.91l14.86 0l0 12.23l-14.86 0Z" id="p260w50" />
<path d="M158.52 295.91l29.93 0l0 12.23l-29.93 0Z" id="p260w51" />
<path d="M191.15 295.85l44.59 0l0 12.29l-44.59 0Z" id="p260w52" />
<path d="M238.45 295.91l8.78 0l0 12.23l-8.78 0Z" id="p260w53" />
<path d="M249.93 295.91l18.01 0l0 12.23l-18.01 0Z" id="p260w54" />
<path d="M270.64 295.91l11.7 0l0 12.23l-11.7 0Z" id="p260w55" />
<path d="M285.04 295.91l15.76 0l0 12.23l-15.76 0Z" id="p260w56" />
<path d="M133.91 311.19l20.49 0l0 12.23l-20.49 0Z" id="p260w57" />
<path d="M157.1 310.95l18.72 0l0 12.56l-18.72 0Z" id="p260w58" />
<path d="M124.06 326.48l33.08 0l0 12.23l-33.08 0Z" id="p260w59" />
<path d="M159.84 326.42l41.98 0l0 12.29l-41.98 0Z" id="p260w60" />
<path d="M204.52 326.48l22.74 0l0 12.23l-22.74 0Z" id="p260w61" />
<path d="M238.29 326.48l21.16 0l0 12.23l-21.16 0Z" id="p260w62" />
<path d="M262.16 326.48l18.23 0l0 12.23l-18.23 0Z" id="p260w63" />
<path d="M283.09 326.23l19.58 0l0 12.56l-19.58 0Z" id="p260w64" />
<path d="M124.06 341.76l14.41 0l0 12.23l-14.41 0Z" id="p260w65" />
<path d="M141.17 341.7l38.18 0l0 12.29l-38.18 0Z" id="p260w66" />
<path d="M182.05 341.76l8.33 0l0 12.23l-8.33 0Z" id="p260w67" />
<path d="M193.08 341.76l33.99 0l0 12.23l-33.99 0Z" id="p260w68" />
<path d="M229.77 341.76l16.43 0l0 12.23l-16.43 0Z" id="p260w69" />
<path d="M248.9 341.52l18.01 0l0 12.56l-18.01 0Z" id="p260w70" />
<path d="M124.06 357.04l14.41 0l0 12.23l-14.41 0Z" id="p260w71" />
<path d="M141.17 356.99l59.67 0l0 12.29l-59.67 0Z" id="p260w72" />
<path d="M205 356.99l65.29 0l0 12.29l-65.29 0Z" id="p260w73" />
<path d="M272.99 357.04l11.94 0l0 12.23l-11.94 0Z" id="p260w74" />
<path d="M133.91 372.33l81.91 0l0 12.23l-81.91 0Z" id="p260w75" />
<path d="M218.52 372.33l66.26 0l0 12.23l-66.26 0Z" id="p260w76" />
<path d="M133.91 387.37l18.92 0l0 12.56l-18.92 0Z" id="p260w77" />
<path d="M124.06 402.89l20.03 0l0 12.23l-20.03 0Z" id="p260w78" />
<path d="M146.79 402.84l38.31 0l0 12.29l-38.31 0Z" id="p260w79" />
<path d="M187.81 402.89l11.94 0l0 12.23l-11.94 0Z" id="p260w80" />
<path d="M202.45 402.89l14.23 0l0 12.23l-14.23 0Z" id="p260w81" />
<path d="M219.37 402.89l17.56 0l0 12.23l-17.56 0Z" id="p260w82" />
<path d="M239.64 402.89l37.81 0l0 12.23l-37.81 0Z" id="p260w83" />
<path d="M280.15 402.65l15.34 0l0 12.56l-15.34 0Z" id="p260w84" />
<path d="M124.06 418.18l20.03 0l0 12.23l-20.03 0Z" id="p260w85" />
<path d="M146.79 418.12l35.52 0l0 12.29l-35.52 0Z" id="p260w86" />
<path d="M185.02 418.18l11.94 0l0 12.23l-11.94 0Z" id="p260w87" />
<path d="M199.66 418.18l29.49 0l0 12.23l-29.49 0Z" id="p260w88" />
<path d="M231.85 417.93l14.63 0l0 12.56l-14.63 0Z" id="p260w89" />
<path d="M124.06 433.46l19.81 0l0 12.23l-19.81 0Z" id="p260w90" />
<path d="M146.57 433.4l32.75 0l0 12.29l-32.75 0Z" id="p260w91" />
<path d="M182.02 433.46l23.19 0l0 12.23l-23.19 0Z" id="p260w92" />
<path d="M207.9 433.46l11.7 0l0 12.23l-11.7 0Z" id="p260w93" />
<path d="M222.31 433.22l15.54 0l0 12.56l-15.54 0Z" id="p260w94" />
<path d="M124.06 448.74l14.41 0l0 12.23l-14.41 0Z" id="p260w95" />
<path d="M141.17 448.69l34.03 0l0 12.29l-34.03 0Z" id="p260w96" />
<path d="M177.9 448.74l11.94 0l0 12.23l-11.94 0Z" id="p260w97" />
<path d="M192.54 448.74l33.53 0l0 12.23l-33.53 0Z" id="p260w98" />
<path d="M228.78 448.5l14.63 0l0 12.56l-14.63 0Z" id="p260w99" />
<path d="M124.06 464.03l20.03 0l0 12.23l-20.03 0Z" id="p260w100" />
<path d="M146.79 463.97l31.71 0l0 12.29l-31.71 0Z" id="p260w101" />
<path d="M181.2 464.03l17.56 0l0 12.23l-17.56 0Z" id="p260w102" />
<path d="M201.47 464.03l34.89 0l0 12.23l-34.89 0Z" id="p260w103" />
<path d="M239.06 463.78l14.63 0l0 12.56l-14.63 0Z" id="p260w104" />
<path d="M124.06 479.31l27.22 0l0 12.23l-27.22 0Z" id="p260w105" />
<path d="M153.98 479.25l48.47 0l0 12.29l-48.47 0Z" id="p260w106" />
<path d="M205.16 479.31l16.43 0l0 12.23l-16.43 0Z" id="p260w107" />
<path d="M224.29 479.31l48.62 0l0 12.23l-48.62 0Z" id="p260w108" />
<path d="M133.91 494.59l27.62 0l0 12.23l-27.62 0Z" id="p260w109" />
<path d="M164.23 494.35l18.72 0l0 12.56l-18.72 0Z" id="p260w110" />
<path d="M124.06 509.88l14.41 0l0 12.23l-14.41 0Z" id="p260w111" />
<path d="M141.17 509.82l27.21 0l0 12.29l-27.21 0Z" id="p260w112" />
<path d="M171.08 509.88l11.94 0l0 12.23l-11.94 0Z" id="p260w113" />
<path d="M185.72 509.88l26.79 0l0 12.23l-26.79 0Z" id="p260w114" />
<path d="M215.21 509.63l14.63 0l0 12.56l-14.63 0Z" id="p260w115" />
<path d="M124.06 525.11l57.19 0l0 12.29l-57.19 0Z" id="p260w116" />
<path d="M183.95 525.16l32.63 0l0 12.23l-32.63 0Z" id="p260w117" />
<path d="M219.29 524.92l14.63 0l0 12.56l-14.63 0Z" id="p260w118" />
<path d="M239.06 525.16l37.95 0l0 12.23l-37.95 0Z" id="p260w119" />
<path d="M133.91 540.44l39.17 0l0 12.23l-39.17 0Z" id="p260w120" />
<path d="M175.78 540.2l15.54 0l0 12.56l-15.54 0Z" id="p260w121" />
<path d="M124.06 555.73l14.41 0l0 12.23l-14.41 0Z" id="p260w122" />
<path d="M141.17 555.67l28.63 0l0 12.29l-28.63 0Z" id="p260w123" />
<path d="M172.5 555.73l11.94 0l0 12.23l-11.94 0Z" id="p260w124" />
<path d="M187.14 555.73l28.12 0l0 12.23l-28.12 0Z" id="p260w125" />
<path d="M217.96 555.48l18.17 0l0 12.56l-18.17 0Z" id="p260w126" />
<path d="M124.06 571.01l14.41 0l0 12.23l-14.41 0Z" id="p260w127" />
<path d="M141.17 570.96l39.3 0l0 12.29l-39.3 0Z" id="p260w128" />
<path d="M180.47 571.01l24.2 0l0 12.23l-24.2 0Z" id="p260w129" />
<path d="M207.37 570.96l48.2 0l0 12.29l-48.2 0Z" id="p260w130" />
<path d="M258.27 571.01l11.94 0l0 12.23l-11.94 0Z" id="p260w131" />
<path d="M133.91 586.29l60.01 0l0 12.23l-60.01 0Z" id="p260w132" />
<path d="M196.62 586.29l43.91 0l0 12.23l-43.91 0Z" id="p260w133" />
<path d="M243.23 586.05l14.63 0l0 12.56l-14.63 0Z" id="p260w134" />
<path d="M124.06 601.58l20.03 0l0 12.23l-20.03 0Z" id="p260w135" />
<path d="M146.79 601.52l62 0l0 12.29l-62 0Z" id="p260w136" />
<path d="M211.49 601.58l17.56 0l0 12.23l-17.56 0Z" id="p260w137" />
<path d="M231.76 601.58l29.27 0l0 12.23l-29.27 0Z" id="p260w138" />
<path d="M263.72 601.33l18.92 0l0 12.56l-18.92 0Z" id="p260w139" />
<path d="M124.06 616.86l14.41 0l0 12.23l-14.41 0Z" id="p260w140" />
<path d="M141.17 616.81l27.54 0l0 12.29l-27.54 0Z" id="p260w141" />
<path d="M171.41 616.86l8.33 0l0 12.23l-8.33 0Z" id="p260w142" />
<path d="M182.44 616.86l22.96 0l0 12.23l-22.96 0Z" id="p260w143" />
<path d="M208.1 616.62l18.92 0l0 12.56l-18.92 0Z" id="p260w144" />
<path d="M124.06 632.14l14.41 0l0 12.23l-14.41 0Z" id="p260w145" />
<path d="M141.17 632.09l50.43 0l0 12.29l-50.43 0Z" id="p260w146" />
<path d="M194.3 632.14l11.94 0l0 12.23l-11.94 0Z" id="p260w147" />
<path d="M208.94 632.14l26.34 0l0 12.23l-26.34 0Z" id="p260w148" />
<path d="M133.91 647.41l58.67 0l0 12.23l-58.67 0Z" id="p260w149" />
<path d="M195.28 647.18l18.92 0l0 12.56l-18.92 0Z" id="p260w150" />
<path d="M124.06 662.71l20.03 0l0 12.23l-20.03 0Z" id="p260w151" />
<path d="M146.79 662.66l41.93 0l0 12.29l-41.93 0Z" id="p260w152" />
<path d="M191.42 662.71l11.94 0l0 12.23l-11.94 0Z" id="p260w153" />
<path d="M206.06 662.71l35.34 0l0 12.23l-35.34 0Z" id="p260w154" />
<path d="M244.09 662.47l18.01 0l0 12.56l-18.01 0Z" id="p260w155" />
<path d="M124.06 677.99l20.03 0l0 12.23l-20.03 0Z" id="p260w156" />
<path d="M146.79 677.94l32.71 0l0 12.29l-32.71 0Z" id="p260w157" />
<path d="M182.21 677.99l11.94 0l0 12.23l-11.94 0Z" id="p260w158" />
<path d="M196.84 677.99l31.97 0l0 12.23l-31.97 0Z" id="p260w159" />
<path d="M231.51 677.75l18.01 0l0 12.56l-18.01 0Z" id="p260w160" />
<path d="M124.06 693.22l55.15 0l0 12.29l-55.15 0Z" id="p260w161" />
<path d="M181.92 693.28l11.48 0l0 12.23l-11.48 0Z" id="p260w162" />
<path d="M196.1 693.28l28.59 0l0 12.23l-28.59 0Z" id="p260w163" />
<path d="M227.39 693.03l18.01 0l0 12.56l-18.01 0Z" id="p260w164" />
<path d="M124.06 708.51l28.96 0l0 12.29l-28.96 0Z" id="p260w165" />
<path d="M155.72 708.56l19.14 0l0 12.23l-19.14 0Z" id="p260w166" />
<path d="M177.56 708.56l29.49 0l0 12.23l-29.49 0Z" id="p260w167" />
<path d="M209.75 708.56l28.59 0l0 12.23l-28.59 0Z" id="p260w168" />
<path d="M241.04 708.56l19.82 0l0 12.23l-19.82 0Z" id="p260w169" />
<path d="M263.56 708.56l39.1 0l0 12.23l-39.1 0Z" id="p260w170" />
<path d="M133.91 723.6l15.54 0l0 12.56l-15.54 0Z" id="p260w171" />
<path d="M124.06 739.13l20.03 0l0 12.23l-20.03 0Z" id="p260w172" />
<path d="M146.79 739.07l33.97 0l0 12.29l-33.97 0Z" id="p260w173" />
<path d="M183.46 739.13l17.56 0l0 12.23l-17.56 0Z" id="p260w174" />
<path d="M203.72 739.13l33.31 0l0 12.23l-33.31 0Z" id="p260w175" />
<path d="M239.74 738.88l14.79 0l0 12.56l-14.79 0Z" id="p260w176" />
<path d="M133.91 754.41l8.78 0l0 12.23l-8.78 0Z" id="p260w177" />
<path d="M145.39 754.41l30.38 0l0 12.23l-30.38 0Z" id="p260w178" />
<path d="M178.47 754.41l33.31 0l0 12.23l-33.31 0Z" id="p260w179" />
<path d="M222.81 754.41l8.33 0l0 12.23l-8.33 0Z" id="p260w180" />
<path d="M233.84 754.41l39.38 0l0 12.23l-39.38 0Z" id="p260w181" />
<path d="M133.91 769.7l33.31 0l0 12.23l-33.31 0Z" id="p260w182" />
<path d="M169.92 769.45l18.72 0l0 12.56l-18.72 0Z" id="p260w183" />
<path d="M124.06 784.98l14.41 0l0 12.23l-14.41 0Z" id="p260w184" />
<path d="M141.17 784.92l28.84 0l0 12.29l-28.84 0Z" id="p260w185" />
<path d="M172.71 784.98l8.33 0l0 12.23l-8.33 0Z" id="p260w186" />
<path d="M183.74 784.98l36.46 0l0 12.23l-36.46 0Z" id="p260w187" />
<path d="M222.9 784.73l15.54 0l0 12.56l-15.54 0Z" id="p260w188" />
<path d="M124.06 800.26l15.53 0l0 12.23l-15.53 0Z" id="p260w189" />
<path d="M142.29 800.21l38.41 0l0 12.29l-38.41 0Z" id="p260w190" />
<path d="M183.41 800.26l8.33 0l0 12.23l-8.33 0Z" id="p260w191" />
<path d="M194.43 800.26l15.53 0l0 12.23l-15.53 0Z" id="p260w192" />
<path d="M220.99 800.26l8.33 0l0 12.23l-8.33 0Z" id="p260w193" />
<path d="M232.01 800.26l36.46 0l0 12.23l-36.46 0Z" id="p260w194" />
<path d="M271.17 800.02l15.54 0l0 12.56l-15.54 0Z" id="p260w195" />
<path d="M124.06 815.55l20.03 0l0 12.23l-20.03 0Z" id="p260w196" />
<path d="M146.79 815.49l36.76 0l0 12.29l-36.76 0Z" id="p260w197" />
<path d="M186.25 815.55l17.56 0l0 12.23l-17.56 0Z" id="p260w198" />
<path d="M206.51 815.55l36.01 0l0 12.23l-36.01 0Z" id="p260w199" />
<path d="M245.23 815.3l18.92 0l0 12.56l-18.92 0Z" id="p260w200" />
<path d="M124.06 830.77l21.13 0l0 12.29l-21.13 0Z" id="p260w201" />
<path d="M151.05 830.81l25.65 0l0 12.23l-25.65 0Z" id="p260w202" />
<path d="M179.4 830.83l15.31 0l0 12.23l-15.31 0Z" id="p260w203" />
<path d="M203.27 830.81l27.91 0l0 12.23l-27.91 0Z" id="p260w204" />
<path d="M233.88 830.58l15.54 0l0 12.56l-15.54 0Z" id="p260w205" />
<path d="M124.06 846.06l16.02 0l0 12.29l-16.02 0Z" id="p260w206" />
<path d="M142.78 846.11l21.39 0l0 12.23l-21.39 0Z" id="p260w207" />
<path d="M166.87 845.87l14.79 0l0 12.56l-14.79 0Z" id="p260w208" />
<path d="M124.06 861.34l16.02 0l0 12.29l-16.02 0Z" id="p260w209" />
<path d="M142.78 861.4l20.93 0l0 12.23l-20.93 0Z" id="p260w210" />
<path d="M166.11 861.4l17.94 0l0 12.23l-17.94 0Z" id="p260w211" />
<path d="M186.75 861.4l11.7 0l0 12.23l-11.7 0Z" id="p260w212" />
<path d="M200.86 861.4l17.94 0l0 12.23l-17.94 0Z" id="p260w213" />
<path d="M221.5 861.15l14.63 0l0 12.56l-14.63 0Z" id="p260w214" />
<path d="M124.06 876.62l16.02 0l0 12.29l-16.02 0Z" id="p260w215" />
<path d="M142.78 876.68l15.53 0l0 12.23l-15.53 0Z" id="p260w216" />
<path d="M161.01 876.68l34.6 0l0 12.23l-34.6 0Z" id="p260w217" />
<path d="M198.31 876.68l11.7 0l0 12.23l-11.7 0Z" id="p260w218" />
<path d="M212.72 876.68l28.13 0l0 12.23l-28.13 0Z" id="p260w219" />
<path d="M243.55 876.43l15.54 0l0 12.56l-15.54 0Z" id="p260w220" />
<path d="M124.06 891.96l19.44 0l0 12.23l-19.44 0Z" id="p260w221" />
<path d="M146.2 891.91l59.61 0l0 12.29l-59.61 0Z" id="p260w222" />
<path d="M208.51 891.96l40.74 0l0 12.23l-40.74 0Z" id="p260w223" />
<path d="M251.95 891.96l11.04 0l0 12.23l-11.04 0Z" id="p260w224" />
<path d="M265.69 891.72l15.54 0l0 12.56l-15.54 0Z" id="p260w225" />
<path d="M124.06 907.25l19.44 0l0 12.23l-19.44 0Z" id="p260w226" />
<path d="M146.2 907.19l51.76 0l0 12.29l-51.76 0Z" id="p260w227" />
<path d="M200.67 907.25l35.77 0l0 12.23l-35.77 0Z" id="p260w228" />
<path d="M247.46 907.25l11.04 0l0 12.23l-11.04 0Z" id="p260w229" />
<path d="M261.2 907l18.92 0l0 12.56l-18.92 0Z" id="p260w230" />
<path d="M124.06 922.47l31.68 0l0 12.29l-31.68 0Z" id="p260w231" />
<path d="M158.44 922.53l20.71 0l0 12.23l-20.71 0Z" id="p260w232" />
<path d="M203 922.28l14.63 0l0 12.56l-14.63 0Z" id="p260w233" />
<path d="M325.58 112.51l15.08 0l0 12.23l-15.08 0Z" id="p260w234" />
<path d="M355.82 112.51l16.88 0l0 12.23l-16.88 0Z" id="p260w235" />
<path d="M375.41 112.45l36.24 0l0 12.29l-36.24 0Z" id="p260w236" />
<path d="M422.67 112.51l20.71 0l0 12.23l-20.71 0Z" id="p260w237" />
<path d="M446.08 112.26l14.63 0l0 12.56l-14.63 0Z" id="p260w238" />
<path d="M325.58 127.79l8.78 0l0 12.23l-8.78 0Z" id="p260w239" />
<path d="M337.06 127.79l15.53 0l0 12.23l-15.53 0Z" id="p260w240" />
<path d="M355.29 127.74l25.79 0l0 12.29l-25.79 0Z" id="p260w241" />
<path d="M383.78 127.79l24.32 0l0 12.23l-24.32 0Z" id="p260w242" />
<path d="M410.8 127.79l11.48 0l0 12.23l-11.48 0Z" id="p260w243" />
<path d="M424.98 127.79l28.81 0l0 12.23l-28.81 0Z" id="p260w244" />
<path d="M456.5 127.79l18.91 0l0 12.23l-18.91 0Z" id="p260w245" />
<path d="M478.1 127.55l14.63 0l0 12.56l-14.63 0Z" id="p260w246" />
<path d="M325.58 143.02l28.32 0l0 12.29l-28.32 0Z" id="p260w247" />
<path d="M356.6 143.08l79.36 0l0 12.23l-79.36 0Z" id="p260w248" />
<path d="M438.67 142.83l22.96 0l0 12.56l-22.96 0Z" id="p260w249" />
<path d="M325.58 158.3l56.04 0l0 12.29l-56.04 0Z" id="p260w250" />
<path d="M384.32 158.36l30.39 0l0 12.23l-30.39 0Z" id="p260w251" />
<path d="M438.57 158.11l15.54 0l0 12.56l-15.54 0Z" id="p260w252" />
<path d="M325.58 173.59l49.47 0l0 12.29l-49.47 0Z" id="p260w253" />
<path d="M377.76 173.64l8.33 0l0 12.23l-8.33 0Z" id="p260w254" />
<path d="M388.78 173.64l41.86 0l0 12.23l-41.86 0Z" id="p260w255" />
<path d="M433.34 173.4l14.79 0l0 12.56l-14.79 0Z" id="p260w256" />
<path d="M325.58 188.93l16.43 0l0 12.23l-16.43 0Z" id="p260w257" />
<path d="M344.71 188.87l42.32 0l0 12.29l-42.32 0Z" id="p260w258" />
<path d="M389.73 188.93l8.33 0l0 12.23l-8.33 0Z" id="p260w259" />
<path d="M400.75 188.93l59.19 0l0 12.23l-59.19 0Z" id="p260w260" />
<path d="M462.64 188.68l15.54 0l0 12.56l-15.54 0Z" id="p260w261" />
<path d="M325.58 204.21l14.41 0l0 12.23l-14.41 0Z" id="p260w262" />
<path d="M342.69 204.15l54.91 0l0 12.29l-54.91 0Z" id="p260w263" />
<path d="M400.3 204.21l11.94 0l0 12.23l-11.94 0Z" id="p260w264" />
<path d="M414.94 204.21l35.11 0l0 12.23l-35.11 0Z" id="p260w265" />
<path d="M452.75 203.96l18.92 0l0 12.56l-18.92 0Z" id="p260w266" />
<path d="M325.58 219.49l14.41 0l0 12.23l-14.41 0Z" id="p260w267" />
<path d="M342.69 219.44l60.72 0l0 12.29l-60.72 0Z" id="p260w268" />
<path d="M406.11 219.49l11.94 0l0 12.23l-11.94 0Z" id="p260w269" />
<path d="M420.75 219.49l39.61 0l0 12.23l-39.61 0Z" id="p260w270" />
<path d="M463.06 219.25l14.79 0l0 12.56l-14.79 0Z" id="p260w271" />
<path d="M325.58 234.78l27.23 0l0 12.23l-27.23 0Z" id="p260w272" />
<path d="M355.51 234.78l81.23 0l0 12.23l-81.23 0ZM436.74 234.72l50.3 0l0 12.29l-50.3 0Z" id="p260w273" />
<path d="M487.04 234.78l15.98 0l0 12.23l-15.98 0Z" id="p260w274" />
<path d="M335.43 250.06l11.94 0l0 12.23l-11.94 0Z" id="p260w275" />
<path d="M350.07 250.06l70.11 0l0 12.23l-70.11 0Z" id="p260w276" />
<path d="M422.88 250.06l50.19 0l0 12.23l-50.19 0Z" id="p260w277" />
<path d="M475.77 249.81l18.01 0l0 12.56l-18.01 0Z" id="p260w278" />
<path d="M325.58 265.29l36.77 0l0 12.29l-36.77 0Z" id="p260w279" />
<path d="M365.05 265.34l42.32 0l0 12.23l-42.32 0Z" id="p260w280" />
<path d="M410.07 265.1l14.63 0l0 12.56l-14.63 0Z" id="p260w281" />
<path d="M325.58 280.63l18.46 0l0 12.23l-18.46 0Z" id="p260w282" />
<path d="M346.74 280.57l39.5 0l0 12.29l-39.5 0Z" id="p260w283" />
<path d="M388.95 280.63l33.99 0l0 12.23l-33.99 0Z" id="p260w284" />
<path d="M425.64 280.63l18.9 0l0 12.23l-18.9 0Z" id="p260w285" />
<path d="M455.56 280.63l8.33 0l0 12.23l-8.33 0Z" id="p260w286" />
<path d="M466.59 280.63l26.79 0l0 12.23l-26.79 0Z" id="p260w287" />
<path d="M335.43 295.66l15.34 0l0 12.56l-15.34 0Z" id="p260w288" />
<path d="M325.58 311.19l40.5 0l0 12.23l-40.5 0Z" id="p260w289" />
<path d="M368.79 311.14l32.69 0l0 12.29l-32.69 0Z" id="p260w290" />
<path d="M404.18 311.19l27 0l0 12.23l-27 0Z" id="p260w291" />
<path d="M433.88 311.19l27.37 0l0 12.23l-27.37 0Z" id="p260w292" />
<path d="M463.94 310.95l15.54 0l0 12.56l-15.54 0Z" id="p260w293" />
<path d="M335.43 326.48l19.44 0l0 12.23l-19.44 0Z" id="p260w294" />
<path d="M357.57 326.48l56.05 0l0 12.23l-56.05 0Z" id="p260w295" />
<path d="M416.32 326.48l23.64 0l0 12.23l-23.64 0Z" id="p260w296" />
<path d="M442.67 326.48l32.81 0l0 12.23l-32.81 0Z" id="p260w297" />
<path d="M335.43 341.76l39.15 0l0 12.23l-39.15 0Z" id="p260w298" />
<path d="M377.28 341.76l11.04 0l0 12.23l-11.04 0Z" id="p260w299" />
<path d="M391.02 341.52l15.54 0l0 12.56l-15.54 0Z" id="p260w300" />
<path d="M335.43 357.04l40.5 0l0 12.23l-40.5 0Z" id="p260w301" />
<path d="M378.63 357.04l20.25 0l0 12.23l-20.25 0Z" id="p260w302" />
<path d="M401.59 357.04l27.18 0l0 12.23l-27.18 0Z" id="p260w303" />
<path d="M431.46 357.04l32.81 0l0 12.23l-32.81 0Z" id="p260w304" />
<path d="M466.98 357.04l30.83 0l0 12.23l-30.83 0Z" id="p260w305" />
<path d="M335.43 372.33l27.37 0l0 12.23l-27.37 0Z" id="p260w306" />
<path d="M365.5 372.08l15.54 0l0 12.56l-15.54 0Z" id="p260w307" />
<path d="M335.43 387.61l13.74 0l0 12.23l-13.74 0Z" id="p260w308" />
<path d="M351.87 387.61l35.57 0l0 12.23l-35.57 0Z" id="p260w309" />
<path d="M415.76 387.59l15.08 0l0 12.23l-15.08 0Z" id="p260w310" />
<path d="M430.84 387.59l23.21 0l0 12.23l-23.21 0Z" id="p260w311" />
<path d="M456.75 387.61l8.1 0l0 12.23l-8.1 0Z" id="p260w312" />
<path d="M335.43 402.89l50.84 0l0 12.23l-50.84 0Z" id="p260w313" />
<path d="M400.67 402.87l14.64 0l0 12.23l-14.64 0Z" id="p260w314" />
<path d="M415.31 402.87l22.06 0l0 12.23l-22.06 0Z" id="p260w315" />
<path d="M440.08 402.65l14.63 0l0 12.56l-14.63 0Z" id="p260w316" />
<path d="M325.58 418.12l37.3 0l0 12.29l-37.3 0Z" id="p260w317" />
<path d="M365.58 418.18l38.49 0l0 12.23l-38.49 0Z" id="p260w318" />
<path d="M406.78 417.93l18.01 0l0 12.56l-18.01 0Z" id="p260w319" />
<path d="M325.58 433.46l14.41 0l0 12.23l-14.41 0Z" id="p260w320" />
<path d="M342.69 433.4l40.29 0l0 12.29l-40.29 0Z" id="p260w321" />
<path d="M385.68 433.46l11.94 0l0 12.23l-11.94 0Z" id="p260w322" />
<path d="M400.32 433.46l39.84 0l0 12.23l-39.84 0Z" id="p260w323" />
<path d="M442.86 433.22l15.54 0l0 12.56l-15.54 0Z" id="p260w324" />
<path d="M335.43 448.74l11.93 0l0 12.23l-11.93 0Z" id="p260w325" />
<path d="M350.06 448.74l39.84 0l0 12.23l-39.84 0Z" id="p260w326" />
<path d="M392.59 448.74l61.67 0l0 12.23l-61.67 0Z" id="p260w327" />
<path d="M456.96 448.5l18.92 0l0 12.56l-18.92 0Z" id="p260w328" />
<path d="M325.58 464.03l14.41 0l0 12.23l-14.41 0Z" id="p260w329" />
<path d="M342.69 463.97l31.04 0l0 12.29l-31.04 0Z" id="p260w330" />
<path d="M376.43 464.03l11.94 0l0 12.23l-11.94 0Z" id="p260w331" />
<path d="M391.07 464.03l22.51 0l0 12.23l-22.51 0Z" id="p260w332" />
<path d="M416.28 463.78l14.43 0l0 12.56l-14.43 0Z" id="p260w333" />
<path d="M325.58 479.31l14.85 0l0 12.23l-14.85 0Z" id="p260w334" />
<path d="M343.13 479.25l36.92 0l0 12.29l-36.92 0Z" id="p260w335" />
<path d="M382.76 479.31l23.42 0l0 12.23l-23.42 0Z" id="p260w336" />
<path d="M430.03 479.07l15.54 0l0 12.56l-15.54 0Z" id="p260w337" />
<path d="M325.58 494.59l20.03 0l0 12.23l-20.03 0Z" id="p260w338" />
<path d="M348.31 494.54l42.55 0l0 12.29l-42.55 0Z" id="p260w339" />
<path d="M393.56 494.59l11.94 0l0 12.23l-11.94 0Z" id="p260w340" />
<path d="M408.2 494.59l42.26 0l0 12.23l-42.26 0Z" id="p260w341" />
<path d="M453.16 494.35l18.92 0l0 12.56l-18.92 0Z" id="p260w342" />
<path d="M325.58 509.88l14.41 0l0 12.23l-14.41 0Z" id="p260w343" />
<path d="M342.68 509.82l52.34 0l0 12.29l-52.34 0Z" id="p260w344" />
<path d="M397.73 509.88l11.94 0l0 12.23l-11.94 0Z" id="p260w345" />
<path d="M412.37 509.88l51.77 0l0 12.23l-51.77 0Z" id="p260w346" />
<path d="M466.84 509.63l18.01 0l0 12.56l-18.01 0Z" id="p260w347" />
<path d="M325.58 525.16l14.41 0l0 12.23l-14.41 0Z" id="p260w348" />
<path d="M342.68 525.11l36.79 0l0 12.29l-36.79 0Z" id="p260w349" />
<path d="M382.18 525.16l11.94 0l0 12.23l-11.94 0Z" id="p260w350" />
<path d="M396.82 525.16l27.45 0l0 12.23l-27.45 0Z" id="p260w351" />
<path d="M426.97 524.92l15.54 0l0 12.56l-15.54 0Z" id="p260w352" />
<path d="M325.58 540.39l36.51 0l0 12.29l-36.51 0Z" id="p260w353" />
<path d="M364.79 540.44l35.34 0l0 12.23l-35.34 0Z" id="p260w354" />
<path d="M402.83 540.2l15.54 0l0 12.56l-15.54 0Z" id="p260w355" />
<path d="M335.43 555.73l14.18 0l0 12.23l-14.18 0Z" id="p260w356" />
<path d="M352.31 555.73l39.65 0l0 12.23l-39.65 0Z" id="p260w357" />
<path d="M403.88 555.73l35.34 0l0 12.23l-35.34 0Z" id="p260w358" />
<path d="M447.78 555.48l15.54 0l0 12.56l-15.54 0Z" id="p260w359" />
<path d="M325.58 571.01l16.9 0l0 12.23l-16.9 0Z" id="p260w360" />
<path d="M345.17 571.01l32.18 0l0 12.23l-32.18 0Z" id="p260w361" />
<path d="M380.05 570.96l50.87 0l0 12.29l-50.87 0Z" id="p260w362" />
<path d="M433.63 571.01l45.68 0l0 12.23l-45.68 0Z" id="p260w363" />
<path d="M335.43 586.05l18.92 0l0 12.56l-18.92 0Z" id="p260w364" />
<path d="M325.58 601.52l43.19 0l0 12.29l-43.19 0Z" id="p260w365" />
<path d="M371.47 601.58l19.13 0l0 12.23l-19.13 0Z" id="p260w366" />
<path d="M393.3 601.58l23.04 0l0 12.23l-23.04 0Z" id="p260w367" />
<path d="M419.05 601.58l10.82 0l0 12.23l-10.82 0Z" id="p260w368" />
<path d="M432.56 601.58l19.36 0l0 12.23l-19.36 0Z" id="p260w369" />
<path d="M454.63 601.58l18.9 0l0 12.23l-18.9 0Z" id="p260w370" />
<path d="M335.43 616.86l74.62 0l0 12.23l-74.62 0Z" id="p260w371" />
<path d="M412.74 616.86l25.22 0l0 12.23l-25.22 0Z" id="p260w372" />
<path d="M440.66 616.86l21.37 0l0 12.23l-21.37 0Z" id="p260w373" />
<path d="M464.74 616.86l14.64 0l0 12.23l-14.64 0Z" id="p260w374" />
<path d="M335.43 631.9l18.92 0l0 12.56l-18.92 0Z" id="p260w375" />
<path d="M325.58 647.43l20.03 0l0 12.23l-20.03 0Z" id="p260w376" />
<path d="M348.31 647.37l31.39 0l0 12.29l-31.39 0Z" id="p260w377" />
<path d="M382.4 647.43l11.94 0l0 12.23l-11.94 0Z" id="p260w378" />
<path d="M397.04 647.43l49.75 0l0 12.23l-49.75 0Z" id="p260w379" />
<path d="M449.49 647.18l18.92 0l0 12.56l-18.92 0Z" id="p260w380" />
<path d="M325.58 662.66l26.91 0l0 12.29l-26.91 0Z" id="p260w381" />
<path d="M355.19 662.71l76.31 0l0 12.23l-76.31 0Z" id="p260w382" />
<path d="M434.2 662.47l19.58 0l0 12.56l-19.58 0Z" id="p260w383" />
<path d="M325.58 677.99l18.46 0l0 12.23l-18.46 0Z" id="p260w384" />
<path d="M346.74 677.94l27.21 0l0 12.29l-27.21 0Z" id="p260w385" />
<path d="M376.65 677.99l29.43 0l0 12.23l-29.43 0Z" id="p260w386" />
<path d="M408.79 677.99l21.37 0l0 12.23l-21.37 0Z" id="p260w387" />
<path d="M432.86 677.99l16.43 0l0 12.23l-16.43 0Z" id="p260w388" />
<path d="M451.99 677.99l30.83 0l0 12.23l-30.83 0Z" id="p260w389" />
<path d="M354.86 693.26l14.18 0l0 12.23l-14.18 0Z" id="p260w390" />
<path d="M371.74 693.03l18.92 0l0 12.56l-18.92 0Z" id="p260w391" />
<path d="M325.58 708.56l15.53 0l0 12.23l-15.53 0Z" id="p260w392" />
<path d="M343.81 708.51l48.35 0l0 12.29l-48.35 0Z" id="p260w393" />
<path d="M394.86 708.56l8.33 0l0 12.23l-8.33 0Z" id="p260w394" />
<path d="M405.89 708.56l40.53 0l0 12.23l-40.53 0Z" id="p260w395" />
<path d="M449.11 708.32l18.72 0l0 12.56l-18.72 0Z" id="p260w396" />
<path d="M325.58 723.79l57.55 0l0 12.29l-57.55 0Z" id="p260w397" />
<path d="M385.83 723.84l15.75 0l0 12.23l-15.75 0Z" id="p260w398" />
<path d="M404.28 723.84l41.42 0l0 12.23l-41.42 0Z" id="p260w399" />
<path d="M448.4 723.84l15.53 0l0 12.23l-15.53 0Z" id="p260w400" />
<path d="M466.63 723.6l18.72 0l0 12.56l-18.72 0Z" id="p260w401" />
<path d="M325.58 739.13l14.41 0l0 12.23l-14.41 0Z" id="p260w402" />
<path d="M342.68 739.07l41.19 0l0 12.29l-41.19 0Z" id="p260w403" />
<path d="M386.58 739.13l11.94 0l0 12.23l-11.94 0Z" id="p260w404" />
<path d="M401.22 739.13l31.06 0l0 12.23l-31.06 0Z" id="p260w405" />
<path d="M434.97 738.88l14.63 0l0 12.56l-14.63 0Z" id="p260w406" />
<path d="M325.58 754.41l14.41 0l0 12.23l-14.41 0Z" id="p260w407" />
<path d="M342.68 754.36l28.8 0l0 12.29l-28.8 0Z" id="p260w408" />
<path d="M374.18 754.41l8.33 0l0 12.23l-8.33 0Z" id="p260w409" />
<path d="M385.21 754.41l40.07 0l0 12.23l-40.07 0Z" id="p260w410" />
<path d="M427.98 754.17l14.79 0l0 12.56l-14.79 0Z" id="p260w411" />
<path d="M325.58 769.7l14.41 0l0 12.23l-14.41 0Z" id="p260w412" />
<path d="M342.68 769.64l58.55 0l0 12.29l-58.55 0Z" id="p260w413" />
<path d="M403.94 769.7l11.94 0l0 12.23l-11.94 0Z" id="p260w414" />
<path d="M418.58 769.7l29.49 0l0 12.23l-29.49 0Z" id="p260w415" />
<path d="M450.77 769.45l15.34 0l0 12.56l-15.34 0Z" id="p260w416" />
<path d="M325.58 784.98l14.41 0l0 12.23l-14.41 0Z" id="p260w417" />
<path d="M342.68 784.92l38.33 0l0 12.29l-38.33 0Z" id="p260w418" />
<path d="M381.01 784.98l24.2 0l0 12.23l-24.2 0Z" id="p260w419" />
<path d="M407.91 784.92l47.22 0l0 12.29l-47.22 0Z" id="p260w420" />
<path d="M457.83 784.98l11.94 0l0 12.23l-11.94 0Z" id="p260w421" />
<path d="M335.43 800.26l63.6 0l0 12.23l-63.6 0Z" id="p260w422" />
<path d="M401.73 800.26l53.58 0l0 12.23l-53.58 0Z" id="p260w423" />
<path d="M458 800.02l18.92 0l0 12.56l-18.92 0Z" id="p260w424" />
<path d="M325.58 815.55l19.44 0l0 12.23l-19.44 0Z" id="p260w425" />
<path d="M347.72 815.55l15.76 0l0 12.23l-15.76 0Z" id="p260w426" />
<path d="M366.18 815.49l36.6 0l0 12.29l-36.6 0Z" id="p260w427" />
<path d="M405.49 815.55l29.27 0l0 12.23l-29.27 0Z" id="p260w428" />
<path d="M437.45 815.55l21.37 0l0 12.23l-21.37 0Z" id="p260w429" />
<path d="M461.53 815.55l11.04 0l0 12.23l-11.04 0Z" id="p260w430" />
<path d="M475.27 815.3l15.54 0l0 12.56l-15.54 0Z" id="p260w431" />
<path d="M335.43 830.83l20.93 0l0 12.23l-20.93 0Z" id="p260w432" />
<path d="M359.06 830.83l24.53 0l0 12.23l-24.53 0Z" id="p260w433" />
<path d="M386.29 830.83l19.44 0l0 12.23l-19.44 0Z" id="p260w434" />
<path d="M408.43 830.83l15.76 0l0 12.23l-15.76 0Z" id="p260w435" />
<path d="M426.89 830.83l5.4 0l0 12.23l-5.4 0Z" id="p260w436" />
<path d="M435 830.83l18.91 0l0 12.23l-18.91 0Z" id="p260w437" />
<path d="M456.6 830.83l21.37 0l0 12.23l-21.37 0Z" id="p260w438" />
<path d="M480.68 830.83l11.04 0l0 12.23l-11.04 0Z" id="p260w439" />
<path d="M335.43 845.87l19.58 0l0 12.56l-19.58 0Z" id="p260w440" />
<path d="M325.58 861.4l17.78 0l0 12.23l-17.78 0Z" id="p260w441" />
<path d="M346.06 861.34l19.45 0l0 12.29l-19.45 0Z" id="p260w442" />
<path d="M368.22 861.4l41.18 0l0 12.23l-41.18 0Z" id="p260w443" />
<path d="M412.1 861.4l10.35 0l0 12.23l-10.35 0Z" id="p260w444" />
<path d="M425.15 861.4l53.08 0l0 12.23l-53.08 0Z" id="p260w445" />
<path d="M335.43 876.43l18.92 0l0 12.56l-18.92 0Z" id="p260w446" />
<path d="M325.58 891.91l27.87 0l0 12.29l-27.87 0Z" id="p260w447" />
<path d="M356.14 891.96l106.28 0l0 12.23l-106.28 0Z" id="p260w448" />
<path d="M465.13 891.72l14.41 0l0 12.56l-14.41 0Z" id="p260w449" />
<path d="M325.58 907.25l20.03 0l0 12.23l-20.03 0Z" id="p260w450" />
<path d="M348.31 907.19l32.85 0l0 12.29l-32.85 0Z" id="p260w451" />
<path d="M383.86 907.25l17.56 0l0 12.23l-17.56 0Z" id="p260w452" />
<path d="M404.12 907.25l24.3 0l0 12.23l-24.3 0Z" id="p260w453" />
<path d="M431.12 907l15.54 0l0 12.56l-15.54 0Z" id="p260w454" />
<path d="M527.1 127.74l12.88 0l0 12.29l-12.88 0Z" id="p260w455" />
<path d="M542.68 127.79l10.36 0l0 12.23l-10.36 0Z" id="p260w456" />
<path d="M555.74 127.79l16.22 0l0 12.23l-16.22 0Z" id="p260w457" />
<path d="M580.52 127.77l27.91 0l0 12.23l-27.91 0Z" id="p260w458" />
<path d="M611.13 127.55l15.54 0l0 12.56l-15.54 0Z" id="p260w459" />
<path d="M527.1 143.02l12.88 0l0 12.29l-12.88 0Z" id="p260w460" />
<path d="M544.94 143.08l32.33 0l0 12.23l-32.33 0Z" id="p260w461" />
<path d="M579.67 143.08l24.31 0l0 12.23l-24.31 0Z" id="p260w462" />
<path d="M612.54 142.83l14.79 0l0 12.56l-14.79 0Z" id="p260w463" />
<path d="M527.1 158.3l22.41 0l0 12.29l-22.41 0Z" id="p260w464" />
<path d="M552.21 158.36l25.88 0l0 12.23l-25.88 0Z" id="p260w465" />
<path d="M580.78 158.11l14.63 0l0 12.56l-14.63 0Z" id="p260w466" />
<path d="M536.95 173.64l22.74 0l0 12.23l-22.74 0Z" id="p260w467" />
<path d="M562.39 173.64l22.74 0l0 12.23l-22.74 0Z" id="p260w468" />
<path d="M587.83 173.64l22.74 0l0 12.23l-22.74 0Z" id="p260w469" />
<path d="M613.27 173.64l13.74 0l0 12.23l-13.74 0Z" id="p260w470" />
<path d="M629.71 173.64l31.73 0l0 12.23l-31.73 0Z" id="p260w471" />
<path d="M664.15 173.64l13.74 0l0 12.23l-13.74 0Z" id="p260w472" />
<path d="M680.59 173.4l15.54 0l0 12.56l-15.54 0Z" id="p260w473" />
<path d="M527.1 188.93l14.41 0l0 12.23l-14.41 0Z" id="p260w474" />
<path d="M544.2 188.87l39.19 0l0 12.29l-39.19 0Z" id="p260w475" />
<path d="M583.4 188.93l24.2 0l0 12.23l-24.2 0Z" id="p260w476" />
<path d="M610.29 188.87l48.08 0l0 12.29l-48.08 0Z" id="p260w477" />
<path d="M661.08 188.93l11.94 0l0 12.23l-11.94 0Z" id="p260w478" />
<path d="M675.72 188.93l31.41 0l0 12.23l-31.41 0Z" id="p260w479" />
<path d="M536.95 204.21l17.56 0l0 12.23l-17.56 0Z" id="p260w480" />
<path d="M557.21 204.21l32.87 0l0 12.23l-32.87 0Z" id="p260w481" />
<path d="M592.78 203.96l14.63 0l0 12.56l-14.63 0Z" id="p260w482" />
<path d="M527.1 219.49l16.43 0l0 12.23l-16.43 0Z" id="p260w483" />
<path d="M546.23 219.44l90.94 0l0 12.29l-90.94 0Z" id="p260w484" />
<path d="M639.87 219.49l8.33 0l0 12.23l-8.33 0Z" id="p260w485" />
<path d="M650.9 219.49l18.67 0l0 12.23l-18.67 0Z" id="p260w486" />
<path d="M672.27 219.49l16.43 0l0 12.23l-16.43 0Z" id="p260w487" />
<path d="M536.95 234.78l31.97 0l0 12.23l-31.97 0Z" id="p260w488" />
<path d="M571.61 234.53l14.63 0l0 12.56l-14.63 0Z" id="p260w489" />
<path d="M527.1 250l57.52 0l0 12.29l-57.52 0Z" id="p260w490" />
<path d="M587.32 250.06l15.75 0l0 12.23l-15.75 0Z" id="p260w491" />
<path d="M603.07 250.06l23.19 0l0 12.23l-23.19 0Z" id="p260w492" />
<path d="M628.96 249.81l18.92 0l0 12.56l-18.92 0Z" id="p260w493" />
<path d="M527.1 265.34l14.41 0l0 12.23l-14.41 0Z" id="p260w494" />
<path d="M544.2 265.29l54.98 0l0 12.29l-54.98 0Z" id="p260w495" />
<path d="M601.88 265.34l11.94 0l0 12.23l-11.94 0Z" id="p260w496" />
<path d="M616.52 265.34l49.66 0l0 12.23l-49.66 0Z" id="p260w497" />
<path d="M668.88 265.1l15.54 0l0 12.56l-15.54 0Z" id="p260w498" />
<path d="M527.1 280.63l20.03 0l0 12.23l-20.03 0Z" id="p260w499" />
<path d="M549.83 280.57l44.93 0l0 12.29l-44.93 0Z" id="p260w500" />
<path d="M597.46 280.63l11.94 0l0 12.23l-11.94 0Z" id="p260w501" />
<path d="M612.1 280.63l41.57 0l0 12.23l-41.57 0Z" id="p260w502" />
<path d="M656.37 280.38l19.58 0l0 12.56l-19.58 0Z" id="p260w503" />
<path d="M681.1 280.63l17.56 0l0 12.23l-17.56 0Z" id="p260w504" />
<path d="M536.95 295.91l39.63 0l0 12.23l-39.63 0Z" id="p260w505" />
<path d="M579.27 295.66l18.17 0l0 12.56l-18.17 0Z" id="p260w506" />
<path d="M536.95 311.19l56.95 0l0 12.23l-56.95 0Z" id="p260w507" />
<path d="M596.6 311.19l58.98 0l0 12.23l-58.98 0Z" id="p260w508" />
<path d="M536.95 326.48l65.29 0l0 12.23l-65.29 0Z" id="p260w509" />
<path d="M604.94 326.48l24.99 0l0 12.23l-24.99 0Z" id="p260w510" />
<path d="M632.63 326.48l15.76 0l0 12.23l-15.76 0Z" id="p260w511" />
<path d="M651.09 326.23l18.01 0l0 12.56l-18.01 0Z" id="p260w512" />
<path d="M527.1 341.76l20.03 0l0 12.23l-20.03 0Z" id="p260w513" />
<path d="M549.83 341.76l33.32 0l0 12.23l-33.32 0Z" id="p260w514" />
<path d="M585.85 341.7l51.66 0l0 12.29l-51.66 0Z" id="p260w515" />
<path d="M640.22 341.76l17.56 0l0 12.23l-17.56 0Z" id="p260w516" />
<path d="M660.48 341.76l27.01 0l0 12.23l-27.01 0Z" id="p260w517" />
<path d="M690.19 341.76l11.7 0l0 12.23l-11.7 0Z" id="p260w518" />
<path d="M536.95 357.04l21.84 0l0 12.23l-21.84 0Z" id="p260w519" />
<path d="M561.49 356.8l15.54 0l0 12.56l-15.54 0Z" id="p260w520" />
<path d="M527.1 372.27l40.72 0l0 12.29l-40.72 0Z" id="p260w521" />
<path d="M571.98 372.27l36.81 0l0 12.29l-36.81 0Z" id="p260w522" />
<path d="M612.96 372.27l41.65 0l0 12.29l-41.65 0Z" id="p260w523" />
<path d="M657.31 372.33l45.15 0l0 12.23l-45.15 0Z" id="p260w524" />
<path d="M536.95 387.61l46.61 0l0 12.23l-46.61 0Z" id="p260w525" />
<path d="M586.25 387.37l18.92 0l0 12.56l-18.92 0Z" id="p260w526" />
<path d="M527.1 402.89l14.41 0l0 12.23l-14.41 0Z" id="p260w527" />
<path d="M544.2 402.84l27.52 0l0 12.29l-27.52 0Z" id="p260w528" />
<path d="M574.43 402.89l8.33 0l0 12.23l-8.33 0Z" id="p260w529" />
<path d="M585.45 402.89l18.46 0l0 12.23l-18.46 0Z" id="p260w530" />
<path d="M606.62 402.65l18.17 0l0 12.56l-18.17 0Z" id="p260w531" />
<path d="M527.1 418.18l14.41 0l0 12.23l-14.41 0Z" id="p260w532" />
<path d="M544.2 418.12l45.86 0l0 12.29l-45.86 0Z" id="p260w533" />
<path d="M592.77 418.18l11.94 0l0 12.23l-11.94 0Z" id="p260w534" />
<path d="M607.4 418.18l34.42 0l0 12.23l-34.42 0Z" id="p260w535" />
<path d="M644.53 417.93l14.63 0l0 12.56l-14.63 0Z" id="p260w536" />
<path d="M539.78 433.46l16.88 0l0 12.23l-16.88 0Z" id="p260w537" />
<path d="M559.36 433.4l31.19 0l0 12.29l-31.19 0Z" id="p260w538" />
<path d="M593.26 433.46l30.39 0l0 12.23l-30.39 0Z" id="p260w539" />
<path d="M647.5 433.22l15.54 0l0 12.56l-15.54 0Z" id="p260w540" />
<path d="M527.1 448.74l8.78 0l0 12.23l-8.78 0Z" id="p260w541" />
<path d="M538.58 448.74l15.53 0l0 12.23l-15.53 0Z" id="p260w542" />
<path d="M556.81 448.69l24.59 0l0 12.29l-24.59 0Z" id="p260w543" />
<path d="M584.1 448.74l17.12 0l0 12.23l-17.12 0Z" id="p260w544" />
<path d="M603.91 448.74l20.25 0l0 12.23l-20.25 0Z" id="p260w545" />
<path d="M626.87 448.74l11.7 0l0 12.23l-11.7 0Z" id="p260w546" />
<path d="M641.27 448.5l18.17 0l0 12.56l-18.17 0Z" id="p260w547" />
<path d="M527.1 464.03l14.41 0l0 12.23l-14.41 0Z" id="p260w548" />
<path d="M544.2 463.97l40.79 0l0 12.29l-40.79 0Z" id="p260w549" />
<path d="M587.7 464.03l8.33 0l0 12.23l-8.33 0Z" id="p260w550" />
<path d="M598.72 464.03l47.27 0l0 12.23l-47.27 0Z" id="p260w551" />
<path d="M648.7 463.78l14.43 0l0 12.56l-14.43 0Z" id="p260w552" />
<path d="M527.1 479.31l14.41 0l0 12.23l-14.41 0Z" id="p260w553" />
<path d="M544.2 479.25l27.77 0l0 12.29l-27.77 0Z" id="p260w554" />
<path d="M574.67 479.31l11.94 0l0 12.23l-11.94 0Z" id="p260w555" />
<path d="M589.31 479.31l21.16 0l0 12.23l-21.16 0Z" id="p260w556" />
<path d="M613.17 479.07l14.79 0l0 12.56l-14.79 0Z" id="p260w557" />
<path d="M527.1 494.59l14.41 0l0 12.23l-14.41 0Z" id="p260w558" />
<path d="M544.2 494.54l23.34 0l0 12.29l-23.34 0Z" id="p260w559" />
<path d="M570.25 494.59l16.44 0l0 12.23l-16.44 0Z" id="p260w560" />
<path d="M589.39 494.59l29.49 0l0 12.23l-29.49 0Z" id="p260w561" />
<path d="M621.58 494.57l25.65 0l0 12.23l-25.65 0Z" id="p260w562" />
<path d="M649.93 494.59l11.7 0l0 12.23l-11.7 0Z" id="p260w563" />
<path d="M664.34 494.59l23.19 0l0 12.23l-23.19 0Z" id="p260w564" />
<path d="M536.95 509.88l28.12 0l0 12.23l-28.12 0Z" id="p260w565" />
<path d="M567.77 509.85l27.91 0l0 12.23l-27.91 0Z" id="p260w566" />
<path d="M598.38 509.63l15.54 0l0 12.56l-15.54 0Z" id="p260w567" />
<path d="M527.1 525.16l20.03 0l0 12.23l-20.03 0Z" id="p260w568" />
<path d="M549.83 525.11l56.35 0l0 12.29l-56.35 0Z" id="p260w569" />
<path d="M608.88 525.16l17.56 0l0 12.23l-17.56 0Z" id="p260w570" />
<path d="M629.15 525.16l50.64 0l0 12.23l-50.64 0Z" id="p260w571" />
<path d="M536.95 540.2l18.92 0l0 12.56l-18.92 0Z" id="p260w572" />
<path d="M527.1 555.73l14.41 0l0 12.23l-14.41 0Z" id="p260w573" />
<path d="M544.2 555.67l26.7 0l0 12.29l-26.7 0Z" id="p260w574" />
<path d="M573.6 555.73l8.33 0l0 12.23l-8.33 0Z" id="p260w575" />
<path d="M584.63 555.73l30.83 0l0 12.23l-30.83 0Z" id="p260w576" />
<path d="M618.16 555.48l18.92 0l0 12.56l-18.92 0Z" id="p260w577" />
<path d="M527.1 570.96l56.08 0l0 12.29l-56.08 0Z" id="p260w578" />
<path d="M585.87 571.01l13.05 0l0 12.23l-13.05 0Z" id="p260w579" />
<path d="M601.62 571.01l17.12 0l0 12.23l-17.12 0Z" id="p260w580" />
<path d="M634.73 570.99l14.18 0l0 12.23l-14.18 0Z" id="p260w581" />
<path d="M663.31 570.99l38.26 0l0 12.23l-38.26 0Z" id="p260w582" />
<path d="M536.95 586.27l11.48 0l0 12.23l-11.48 0Z" id="p260w583" />
<path d="M551.13 586.27l8.34 0l0 12.23l-8.34 0Z" id="p260w584" />
<path d="M562.17 586.27l12.63 0l0 12.23l-12.63 0Z" id="p260w585" />
<path d="M577.49 586.27l9.23 0l0 12.23l-9.23 0Z" id="p260w586" />
<path d="M589.42 586.27l11.48 0l0 12.23l-11.48 0Z" id="p260w587" />
<path d="M603.6 586.27l8.34 0l0 12.23l-8.34 0Z" id="p260w588" />
<path d="M614.64 586.27l25.8 0l0 12.23l-25.8 0Z" id="p260w589" />
<path d="M643.14 586.05l15.54 0l0 12.56l-15.54 0Z" id="p260w590" />
<path d="M527.1 601.52l41.85 0l0 12.29l-41.85 0Z" id="p260w591" />
<path d="M571.65 601.58l59.19 0l0 12.23l-59.19 0Z" id="p260w592" />
<path d="M633.54 601.33l18.92 0l0 12.56l-18.92 0Z" id="p260w593" />
<path d="M527.1 616.86l16.43 0l0 12.23l-16.43 0Z" id="p260w594" />
<path d="M546.23 616.81l20.74 0l0 12.29l-20.74 0Z" id="p260w595" />
<path d="M569.67 616.86l8.33 0l0 12.23l-8.33 0Z" id="p260w596" />
<path d="M580.69 616.86l18.7 0l0 12.23l-18.7 0Z" id="p260w597" />
<path d="M602.09 616.62l15.54 0l0 12.56l-15.54 0Z" id="p260w598" />
<path d="M527.1 632.09l29.49 0l0 12.29l-29.49 0Z" id="p260w599" />
<path d="M567.61 632.14l20.26 0l0 12.23l-20.26 0Z" id="p260w600" />
<path d="M590.58 632.14l11.7 0l0 12.23l-11.7 0Z" id="p260w601" />
<path d="M604.98 631.9l15.54 0l0 12.56l-15.54 0Z" id="p260w602" />
<path d="M527.1 647.43l19.44 0l0 12.23l-19.44 0Z" id="p260w603" />
<path d="M549.24 647.37l38.75 0l0 12.29l-38.75 0Z" id="p260w604" />
<path d="M590.69 647.43l37.14 0l0 12.23l-37.14 0Z" id="p260w605" />
<path d="M630.52 647.43l11.04 0l0 12.23l-11.04 0Z" id="p260w606" />
<path d="M644.26 647.18l15.54 0l0 12.56l-15.54 0Z" id="p260w607" />
<path d="M527.1 662.66l20.6 0l0 12.29l-20.6 0Z" id="p260w608" />
<path d="M550.39 662.71l18.02 0l0 12.23l-18.02 0Z" id="p260w609" />
<path d="M571.11 662.47l14.79 0l0 12.56l-14.79 0Z" id="p260w610" />
<path d="M527.1 677.99l14.41 0l0 12.23l-14.41 0Z" id="p260w611" />
<path d="M544.2 677.94l33.52 0l0 12.29l-33.52 0Z" id="p260w612" />
<path d="M580.43 677.99l41.18 0l0 12.23l-41.18 0Z" id="p260w613" />
<path d="M624.31 677.99l35.57 0l0 12.23l-35.57 0Z" id="p260w614" />
<path d="M662.58 677.75l15.54 0l0 12.56l-15.54 0Z" id="p260w615" />
<path d="M527.1 693.28l16.9 0l0 12.23l-16.9 0Z" id="p260w616" />
<path d="M546.69 693.22l32.36 0l0 12.29l-32.36 0Z" id="p260w617" />
<path d="M581.75 693.26l25.65 0l0 12.23l-25.65 0Z" id="p260w618" />
<path d="M610.11 693.28l39.83 0l0 12.23l-39.83 0Z" id="p260w619" />
<path d="M652.63 693.28l12.16 0l0 12.23l-12.16 0Z" id="p260w620" />
<path d="M667.49 693.26l27.91 0l0 12.23l-27.91 0Z" id="p260w621" />
<path d="M536.95 708.32l15.54 0l0 12.56l-15.54 0Z" id="p260w622" />
<path d="M527.1 723.79l32.36 0l0 12.29l-32.36 0Z" id="p260w623" />
<path d="M562.15 723.82l25.65 0l0 12.23l-25.65 0Z" id="p260w624" />
<path d="M590.51 723.84l34.21 0l0 12.23l-34.21 0Z" id="p260w625" />
<path d="M627.42 723.82l27.91 0l0 12.23l-27.91 0Z" id="p260w626" />
<path d="M658.03 723.6l15.54 0l0 12.56l-15.54 0Z" id="p260w627" />
<path d="M527.1 739.07l31.33 0l0 12.29l-31.33 0Z" id="p260w628" />
<path d="M561.13 739.13l83.85 0l0 12.23l-83.85 0Z" id="p260w629" />
<path d="M647.69 738.88l18.92 0l0 12.56l-18.92 0Z" id="p260w630" />
<path d="M527.1 754.36l19.52 0l0 12.29l-19.52 0Z" id="p260w631" />
<path d="M549.32 754.41l30.61 0l0 12.23l-30.61 0Z" id="p260w632" />
<path d="M582.63 754.39l27.91 0l0 12.23l-27.91 0Z" id="p260w633" />
<path d="M613.24 754.17l14.79 0l0 12.56l-14.79 0Z" id="p260w634" />
<path d="M642.5 754.41l37.27 0l0 12.23l-37.27 0Z" id="p260w635" />
<path d="M536.95 769.45l15.54 0l0 12.56l-15.54 0Z" id="p260w636" />
<path d="M567.99 769.7l66.4 0l0 12.23l-66.4 0Z" id="p260w637" />
<path d="M637.09 769.45l18.17 0l0 12.56l-18.17 0Z" id="p260w638" />
<path d="M527.1 784.92l19.52 0l0 12.29l-19.52 0Z" id="p260w639" />
<path d="M549.32 784.98l49.01 0l0 12.23l-49.01 0Z" id="p260w640" />
<path d="M601.02 784.73l18.92 0l0 12.56l-18.92 0Z" id="p260w641" />
<path d="M527.1 800.26l16.43 0l0 12.23l-16.43 0Z" id="p260w642" />
<path d="M546.23 800.21l21.61 0l0 12.29l-21.61 0Z" id="p260w643" />
<path d="M570.54 800.26l8.33 0l0 12.23l-8.33 0Z" id="p260w644" />
<path d="M581.56 800.26l20.03 0l0 12.23l-20.03 0Z" id="p260w645" />
<path d="M604.29 800.02l18.01 0l0 12.56l-18.01 0Z" id="p260w646" />
<path d="M527.1 815.55l14.41 0l0 12.23l-14.41 0Z" id="p260w647" />
<path d="M544.2 815.49l21.61 0l0 12.29l-21.61 0Z" id="p260w648" />
<path d="M569.98 815.49l27.23 0l0 12.29l-27.23 0Z" id="p260w649" />
<path d="M599.91 815.55l11.94 0l0 12.23l-11.94 0Z" id="p260w650" />
<path d="M614.55 815.55l51.87 0l0 12.23l-51.87 0Z" id="p260w651" />
<path d="M669.13 815.55l36.24 0l0 12.23l-36.24 0Z" id="p260w652" />
<path d="M536.95 830.58l15.54 0l0 12.56l-15.54 0Z" id="p260w653" />
<path d="M527.1 846.11l14.41 0l0 12.23l-14.41 0Z" id="p260w654" />
<path d="M544.2 846.11l36.91 0l0 12.23l-36.91 0Z" id="p260w655" />
<path d="M583.82 846.06l44.99 0l0 12.29l-44.99 0Z" id="p260w656" />
<path d="M631.51 846.11l11.94 0l0 12.23l-11.94 0Z" id="p260w657" />
<path d="M646.15 846.11l31.28 0l0 12.23l-31.28 0Z" id="p260w658" />
<path d="M680.13 846.11l26.57 0l0 12.23l-26.57 0Z" id="p260w659" />
<path d="M536.95 861.15l15.54 0l0 12.56l-15.54 0Z" id="p260w660" />
<path d="M527.1 876.62l17.67 0l0 12.29l-17.67 0Z" id="p260w661" />
<path d="M547.47 876.68l119.34 0l0 12.23l-119.34 0Z" id="p260w662" />
<path d="M669.52 876.43l15.34 0l0 12.56l-15.34 0Z" id="p260w663" />
<path d="M536.95 891.96l17.56 0l0 12.23l-17.56 0Z" id="p260w664" />
<path d="M557.21 891.96l19.13 0l0 12.23l-19.13 0Z" id="p260w665" />
<path d="M579.04 891.96l18.9 0l0 12.23l-18.9 0Z" id="p260w666" />
<path d="M600.64 891.96l69.66 0l0 12.23l-69.66 0Z" id="p260w667" />
<path d="M673 891.72l18.92 0l0 12.56l-18.92 0Z" id="p260w668" />
<path d="M527.1 907.25l20.03 0l0 12.23l-20.03 0Z" id="p260w669" />
<path d="M549.83 907.19l46.29 0l0 12.29l-46.29 0Z" id="p260w670" />
<path d="M598.82 907.25l17.56 0l0 12.23l-17.56 0Z" id="p260w671" />
<path d="M619.09 907.25l49.84 0l0 12.23l-49.84 0Z" id="p260w672" />
<path d="M671.63 907l17.81 0l0 12.56l-17.81 0Z" id="p260w673" />
<path d="M527.1 922.53l16.43 0l0 12.23l-16.43 0Z" id="p260w674" />
<path d="M546.23 922.47l38.87 0l0 12.29l-38.87 0Z" id="p260w675" />
<path d="M587.8 922.53l45.09 0l0 12.23l-45.09 0Z" id="p260w676" />
<path d="M650.6 922.28l18.01 0l0 12.56l-18.01 0Z" id="p260w677" />
</svg>
