<?xml version="1.0" encoding="UTF-8"?>
<svg xmlns="http://www.w3.org/2000/svg" xmlns:xlink="http://www.w3.org/1999/xlink" version="1.1" baseProfile="full" width="768" height="1024" viewBox="0,0,768,1024" preserveAspectRatio="xMinYMin meet" >
<style type="text/css">
<![CDATA[
path {fill-opacity: 0.5;fill: #00aeef;visibility: hidden;}
]]>
</style>
<path d="M124.06 107.98l20.06 0l0 18.84l-20.06 0Z" id="p53w1" />
<path d="M147.77 107.98l19.32 0l0 18.84l-19.32 0Z" id="p53w2" />
<path d="M170.75 107.98l32.66 0l0 18.84l-32.66 0Z" id="p53w3" />
<path d="M207.06 107.98l16.32 0l0 18.84l-16.32 0Z" id="p53w4" />
<path d="M124.06 139.19l32.87 0l0 14.52l-32.87 0Z" id="p53w5" />
<path d="M160.14 139.19l9.89 0l0 14.52l-9.89 0Z" id="p53w6" />
<path d="M173.23 139.19l50.74 0l0 14.52l-50.74 0Z" id="p53w7" />
<path d="M227.17 139.19l37.96 0l0 14.52l-37.96 0Z" id="p53w8" />
<path d="M268.34 139.19l9.89 0l0 14.52l-9.89 0Z" id="p53w9" />
<path d="M281.44 139.19l21.12 0l0 14.52l-21.12 0Z" id="p53w10" />
<path d="M305.76 139.19l13.9 0l0 14.52l-13.9 0Z" id="p53w11" />
<path d="M322.87 139.19l33.41 0l0 14.52l-33.41 0Z" id="p53w12" />
<path d="M378.99 139.19l13.91 0l0 14.52l-13.91 0Z" id="p53w13" />
<path d="M396.11 139.19l13.9 0l0 14.52l-13.9 0Z" id="p53w14" />
<path d="M413.22 139.19l42.5 0l0 14.52l-42.5 0Z" id="p53w15" />
<path d="M124.06 155.86l32.07 0l0 14.52l-32.07 0Z" id="p53w16" />
<path d="M181.81 155.86l12.83 0l0 14.52l-12.83 0Z" id="p53w17" />
<path d="M197.85 155.86l21.12 0l0 14.52l-21.12 0Z" id="p53w18" />
<path d="M233.4 155.86l16.83 0l0 14.52l-16.83 0Z" id="p53w19" />
<path d="M263.33 155.86l9.89 0l0 14.52l-9.89 0Z" id="p53w20" />
<path d="M276.42 155.86l27.73 0l0 14.52l-27.73 0Z" id="p53w21" />
<path d="M331.25 155.86l39.28 0l0 14.52l-39.28 0Z" id="p53w22" />
<path d="M373.74 155.86l15.5 0l0 14.52l-15.5 0Z" id="p53w23" />
<path d="M392.44 155.86l40.9 0l0 14.52l-40.9 0Z" id="p53w24" />
<path d="M436.56 155.86l39.02 0l0 14.52l-39.02 0Z" id="p53w25" />
<path d="M124.06 172.53l13.9 0l0 14.52l-13.9 0Z" id="p53w26" />
<path d="M141.17 172.46l26.54 0l0 14.6l-26.54 0Z" id="p53w27" />
<path d="M173.6 172.53l28.06 0l0 14.52l-28.06 0Z" id="p53w28" />
<path d="M201.66 172.53l12.57 0l0 14.52l-12.57 0Z" id="p53w29" />
<path d="M217.43 172.53l15.5 0l0 14.52l-15.5 0Z" id="p53w30" />
<path d="M236.14 172.53l36.88 0l0 14.52l-36.88 0Z" id="p53w31" />
<path d="M276.22 172.53l13.9 0l0 14.52l-13.9 0Z" id="p53w32" />
<path d="M293.33 172.53l28.87 0l0 14.52l-28.87 0Z" id="p53w33" />
<path d="M325.4 172.53l60.66 0l0 14.52l-60.66 0Z" id="p53w34" />
<path d="M124.06 197.48l24.45 0l0 14.6l-24.45 0Z" id="p53w35" />
<path d="M124.06 215.99l28.99 0l0 12.29l-28.99 0Z" id="p53w36" />
<path d="M161.88 214.22l26.19 0l0 14.52l-26.19 0Z" id="p53w37" />
<path d="M191.28 214.22l20.31 0l0 14.52l-20.31 0Z" id="p53w38" />
<path d="M214.8 214.22l20.85 0l0 14.52l-20.85 0Z" id="p53w39" />
<path d="M238.86 214.22l25.67 0l0 14.52l-25.67 0Z" id="p53w40" />
<path d="M286.7 214.22l26.73 0l0 14.52l-26.73 0Z" id="p53w41" />
<path d="M316.64 214.22l12.57 0l0 14.52l-12.57 0Z" id="p53w42" />
<path d="M332.41 214.22l44.36 0l0 14.52l-44.36 0Z" id="p53w43" />
<path d="M379.98 214.22l36.89 0l0 14.52l-36.89 0Z" id="p53w44" />
<path d="M436.12 214.22l19.51 0l0 14.52l-19.51 0Z" id="p53w45" />
<path d="M124.06 232.66l27.24 0l0 12.29l-27.24 0Z" id="p53w46" />
<path d="M160.14 230.89l21.4 0l0 14.52l-21.4 0Z" id="p53w47" />
<path d="M184.74 230.89l19.8 0l0 14.52l-19.8 0Z" id="p53w48" />
<path d="M207.75 230.89l15.6 0l0 14.52l-15.6 0Z" id="p53w49" />
<path d="M226.56 230.89l45.46 0l0 14.52l-45.46 0Z" id="p53w50" />
<path d="M275.22 230.89l25.67 0l0 14.52l-25.67 0Z" id="p53w51" />
<path d="M304.1 230.89l14.98 0l0 14.52l-14.98 0Z" id="p53w52" />
<path d="M124.06 249.34l28.99 0l0 12.29l-28.99 0Z" id="p53w53" />
<path d="M161.88 247.56l11.5 0l0 14.52l-11.5 0Z" id="p53w54" />
<path d="M176.59 247.56l25.67 0l0 14.52l-25.67 0Z" id="p53w55" />
<path d="M205.47 247.56l34.58 0l0 14.52l-34.58 0Z" id="p53w56" />
<path d="M243.25 247.56l36.07 0l0 14.52l-36.07 0Z" id="p53w57" />
<path d="M282.54 247.56l13.63 0l0 14.52l-13.63 0Z" id="p53w58" />
<path d="M299.38 247.56l29.94 0l0 14.52l-29.94 0Z" id="p53w59" />
<path d="M332.52 247.56l13.9 0l0 14.52l-13.9 0Z" id="p53w60" />
<path d="M368.59 247.56l26.73 0l0 14.52l-26.73 0Z" id="p53w61" />
<path d="M398.52 247.56l14.18 0l0 14.52l-14.18 0Z" id="p53w62" />
<path d="M415.91 247.56l29.39 0l0 14.52l-29.39 0Z" id="p53w63" />
<path d="M448.51 247.56l44.36 0l0 14.52l-44.36 0Z" id="p53w64" />
<path d="M124.06 266.01l27.24 0l0 12.29l-27.24 0Z" id="p53w65" />
<path d="M160.14 264.23l25.41 0l0 14.52l-25.41 0Z" id="p53w66" />
<path d="M188.75 264.23l50.01 0l0 14.52l-50.01 0Z" id="p53w67" />
<path d="M250.26 264.23l17.63 0l0 14.52l-17.63 0Z" id="p53w68" />
<path d="M271.1 264.23l38.21 0l0 14.52l-38.21 0Z" id="p53w69" />
<path d="M312.52 264.23l11.22 0l0 14.52l-11.22 0Z" id="p53w70" />
<path d="M326.95 264.23l23.8 0l0 14.52l-23.8 0Z" id="p53w71" />
<path d="M353.95 264.23l26.74 0l0 14.52l-26.74 0Z" id="p53w72" />
<path d="M383.9 264.23l35.29 0l0 14.52l-35.29 0Z" id="p53w73" />
<path d="M422.41 264.23l21.37 0l0 14.52l-21.37 0Z" id="p53w74" />
<path d="M446.98 264.23l24.33 0l0 14.52l-24.33 0Z" id="p53w75" />
<path d="M474.52 264.23l14.98 0l0 14.52l-14.98 0Z" id="p53w76" />
<path d="M124.06 282.68l28.99 0l0 12.29l-28.99 0Z" id="p53w77" />
<path d="M161.88 280.91l30.74 0l0 14.52l-30.74 0Z" id="p53w78" />
<path d="M195.83 280.91l18.72 0l0 14.52l-18.72 0Z" id="p53w79" />
<path d="M217.75 280.91l42.22 0l0 14.52l-42.22 0Z" id="p53w80" />
<path d="M282.15 280.91l28.06 0l0 14.52l-28.06 0Z" id="p53w81" />
<path d="M313.41 280.91l26.73 0l0 14.52l-26.73 0Z" id="p53w82" />
<path d="M343.35 280.91l9.89 0l0 14.52l-9.89 0Z" id="p53w83" />
<path d="M356.44 280.91l44.36 0l0 14.52l-44.36 0Z" id="p53w84" />
<path d="M124.06 299.35l27.24 0l0 12.29l-27.24 0Z" id="p53w85" />
<path d="M160.14 297.58l59.87 0l0 14.52l-59.87 0Z" id="p53w86" />
<path d="M223.22 297.58l25.13 0l0 14.52l-25.13 0Z" id="p53w87" />
<path d="M251.55 297.58l7.48 0l0 14.52l-7.48 0Z" id="p53w88" />
<path d="M259.04 297.58l11.5 0l0 14.52l-11.5 0Z" id="p53w89" />
<path d="M273.74 297.58l17.63 0l0 14.52l-17.63 0Z" id="p53w90" />
<path d="M294.58 297.58l7.48 0l0 14.52l-7.48 0Z" id="p53w91" />
<path d="M302.07 297.58l13.09 0l0 14.52l-13.09 0Z" id="p53w92" />
<path d="M318.37 297.58l13.9 0l0 14.52l-13.9 0Z" id="p53w93" />
<path d="M345.36 297.58l26.99 0l0 14.52l-26.99 0Z" id="p53w94" />
<path d="M375.56 297.58l67.62 0l0 14.52l-67.62 0Z" id="p53w95" />
<path d="M143.76 314.25l17.63 0l0 14.52l-17.63 0Z" id="p53w96" />
<path d="M164.6 314.25l39.55 0l0 14.52l-39.55 0Z" id="p53w97" />
<path d="M207.35 314.25l29.76 0l0 14.52l-29.76 0Z" id="p53w98" />
<path d="M240.32 314.25l9.89 0l0 14.52l-9.89 0Z" id="p53w99" />
<path d="M253.42 314.25l35.29 0l0 14.52l-35.29 0Z" id="p53w100" />
<path d="M291.92 314.25l9.62 0l0 14.52l-9.62 0Z" id="p53w101" />
<path d="M304.75 314.25l15.06 0l0 14.52l-15.06 0Z" id="p53w102" />
<path d="M323.02 314.25l43.6 0l0 14.52l-43.6 0Z" id="p53w103" />
<path d="M369.82 314.25l11.5 0l0 14.52l-11.5 0Z" id="p53w104" />
<path d="M384.52 314.25l17.38 0l0 14.52l-17.38 0Z" id="p53w105" />
<path d="M405.12 314.25l11.5 0l0 14.52l-11.5 0Z" id="p53w106" />
<path d="M419.82 314.25l14.97 0l0 14.52l-14.97 0Z" id="p53w107" />
<path d="M437.99 314.25l13.91 0l0 14.52l-13.91 0Z" id="p53w108" />
<path d="M124.06 332.7l28.99 0l0 12.29l-28.99 0Z" id="p53w109" />
<path d="M161.88 330.93l10.43 0l0 14.52l-10.43 0Z" id="p53w110" />
<path d="M204.36 330.93l36.64 0l0 14.52l-36.64 0Z" id="p53w111" />
<path d="M244.21 330.93l26.45 0l0 14.52l-26.45 0Z" id="p53w112" />
<path d="M273.87 330.93l8.82 0l0 14.52l-8.82 0Z" id="p53w113" />
<path d="M285.9 330.93l9.62 0l0 14.52l-9.62 0Z" id="p53w114" />
<path d="M298.73 330.93l29.42 0l0 14.52l-29.42 0Z" id="p53w115" />
<path d="M331.36 330.93l9.62 0l0 14.52l-9.62 0Z" id="p53w116" />
<path d="M363.14 330.93l22.99 0l0 14.52l-22.99 0Z" id="p53w117" />
<path d="M389.34 330.93l22.72 0l0 14.52l-22.72 0Z" id="p53w118" />
<path d="M415.27 330.93l13.9 0l0 14.52l-13.9 0Z" id="p53w119" />
<path d="M432.37 330.93l39.57 0l0 14.52l-39.57 0Z" id="p53w120" />
<path d="M124.06 374.75l37.06 0l0 18.84l-37.06 0Z" id="p53w121" />
<path d="M164.78 374.75l13.62 0l0 18.84l-13.62 0Z" id="p53w122" />
<path d="M182.05 374.75l60.76 0l0 18.84l-60.76 0Z" id="p53w123" />
<path d="M246.46 374.75l19.04 0l0 18.84l-19.04 0Z" id="p53w124" />
<path d="M269.15 374.75l47.52 0l0 18.84l-47.52 0Z" id="p53w125" />
<path d="M124.06 405.95l33.41 0l0 14.52l-33.41 0Z" id="p53w126" />
<path d="M160.68 405.95l54.26 0l0 14.52l-54.26 0Z" id="p53w127" />
<path d="M218.15 405.95l54.55 0l0 14.52l-54.55 0Z" id="p53w128" />
<path d="M275.91 405.95l13.9 0l0 14.52l-13.9 0Z" id="p53w129" />
<path d="M293.01 405.95l39.03 0l0 14.52l-39.03 0Z" id="p53w130" />
<path d="M335.25 405.95l26.73 0l0 14.52l-26.73 0Z" id="p53w131" />
<path d="M124.06 422.62l9.89 0l0 14.52l-9.89 0Z" id="p53w132" />
<path d="M137.16 422.62l45.72 0l0 14.52l-45.72 0Z" id="p53w133" />
<path d="M143.75 447.64l43.86 0l0 14.52l-43.86 0Z" id="p53w134" />
<path d="M190.82 447.64l15.5 0l0 14.52l-15.5 0Z" id="p53w135" />
<path d="M209.53 447.64l53.67 0l0 14.52l-53.67 0Z" id="p53w136" />
<path d="M266.4 447.64l11.22 0l0 14.52l-11.22 0Z" id="p53w137" />
<path d="M280.83 447.64l31.28 0l0 14.52l-31.28 0Z" id="p53w138" />
<path d="M143.75 464.31l15.5 0l0 14.52l-15.5 0Z" id="p53w139" />
<path d="M162.46 464.31l71.37 0l0 14.52l-71.37 0Z" id="p53w140" />
<path d="M237.03 464.31l17.11 0l0 14.52l-17.11 0Z" id="p53w141" />
<path d="M257.35 464.31l15.5 0l0 14.52l-15.5 0Z" id="p53w142" />
<path d="M276.05 464.31l60.41 0l0 14.52l-60.41 0Z" id="p53w143" />
<path d="M602.98 97.87l65.22 0l0 12.56l-65.22 0Z" id="p53w144" />
<path d="M512.25 123.98l9.62 0l0 14.52l-9.62 0Z" id="p53w145" />
<path d="M525.08 123.98l14.97 0l0 14.52l-14.97 0Z" id="p53w146" />
<path d="M606.77 123.98l26.74 0l0 14.52l-26.74 0Z" id="p53w147" />
<path d="M636.72 123.98l35.29 0l0 14.52l-35.29 0Z" id="p53w148" />
<path d="M512.25 140.65l11.5 0l0 14.52l-11.5 0Z" id="p53w149" />
<path d="M526.95 140.65l14.97 0l0 14.52l-14.97 0Z" id="p53w150" />
<path d="M606.77 140.65l25.67 0l0 14.52l-25.67 0Z" id="p53w151" />
<path d="M635.65 140.65l28.07 0l0 14.52l-28.07 0Z" id="p53w152" />
<path d="M512.25 157.33l6.41 0l0 14.52l-6.41 0Z" id="p53w153" />
<path d="M526.91 157.33l19.77 0l0 14.52l-19.77 0Z" id="p53w154" />
<path d="M558.05 157.33l14.18 0l0 14.52l-14.18 0Z" id="p53w155" />
<path d="M575.43 157.33l13.9 0l0 14.52l-13.9 0Z" id="p53w156" />
<path d="M609.89 157.33l12.02 0l0 14.52l-12.02 0Z" id="p53w157" />
<path d="M627.04 157.33l25.38 0l0 14.52l-25.38 0Z" id="p53w158" />
<path d="M655.63 157.33l33.95 0l0 14.52l-33.95 0Z" id="p53w159" />
<path d="M512.25 182.34l18.47 0l0 14.52l-18.47 0Z" id="p53w160" />
<path d="M540.34 182.34l14.8 0l0 14.52l-14.8 0Z" id="p53w161" />
<path d="M558.34 182.34l25.67 0l0 14.52l-25.67 0Z" id="p53w162" />
<path d="M53.35 407.73l35.52 0l0 12.29l-35.52 0Z" id="p53w163" />
<path d="M34.81 422.62l39.69 0l0 12.3l-39.69 0Z" id="p53w164" />
<path d="M50.92 436.44l37.96 0l0 13.07l-37.96 0Z" id="p53w165" />
<path d="M41.88 447.55l47 0l0 13.07l-47 0Z" id="p53w166" />
<path d="M613.26 396.75l20.81 0l0 12.56l-20.81 0Z" id="p53w167" />
<path d="M636.77 396.75l31.57 0l0 12.56l-31.57 0Z" id="p53w168" />
<path d="M441.91 425.15l13.55 0l0 15.37l-13.55 0Z" id="p53w169" />
<path d="M458.84 425.15l63.83 0l0 15.37l-63.83 0Z" id="p53w170" />
<path d="M536.46 425.15l54.49 0l0 15.37l-54.49 0Z" id="p53w171" />
<path d="M441.91 446.45l50.76 0l0 14.52l-50.76 0Z" id="p53w172" />
<path d="M495.89 446.45l16.83 0l0 14.52l-16.83 0Z" id="p53w173" />
<path d="M515.92 446.45l20.85 0l0 14.52l-20.85 0Z" id="p53w174" />
<path d="M539.99 446.45l22.45 0l0 14.52l-22.45 0Z" id="p53w175" />
<path d="M565.64 446.45l21.37 0l0 14.52l-21.37 0Z" id="p53w176" />
<path d="M590.22 446.45l68.17 0l0 14.52l-68.17 0Z" id="p53w177" />
<path d="M661.6 446.45l13.91 0l0 14.52l-13.91 0Z" id="p53w178" />
<path d="M441.91 463.12l14.18 0l0 14.52l-14.18 0Z" id="p53w179" />
<path d="M459.3 463.12l35.56 0l0 14.52l-35.56 0Z" id="p53w180" />
<path d="M498.06 463.12l19.51 0l0 14.52l-19.51 0Z" id="p53w181" />
<path d="M520.78 463.12l52.92 0l0 14.52l-52.92 0Z" id="p53w182" />
<path d="M576.9 463.12l17.38 0l0 14.52l-17.38 0Z" id="p53w183" />
<path d="M597.49 463.12l48.92 0l0 14.52l-48.92 0Z" id="p53w184" />
<path d="M649.62 463.12l13.9 0l0 14.52l-13.9 0Z" id="p53w185" />
<path d="M441.91 479.79l54.55 0l0 14.52l-54.55 0Z" id="p53w186" />
<path d="M499.67 479.79l13.9 0l0 14.52l-13.9 0Z" id="p53w187" />
<path d="M516.78 479.79l25.4 0l0 14.52l-25.4 0Z" id="p53w188" />
<path d="M545.38 479.79l56.66 0l0 14.52l-56.66 0Z" id="p53w189" />
<path d="M441.91 505.99l25.41 0l0 14.52l-25.41 0Z" id="p53w190" />
<path d="M470.53 505.99l22.99 0l0 14.52l-22.99 0Z" id="p53w191" />
<path d="M496.73 505.99l83.84 0l0 14.52l-83.84 0Z" id="p53w192" />
<path d="M583.78 505.99l20.85 0l0 14.52l-20.85 0Z" id="p53w193" />
<path d="M607.84 505.99l27.73 0l0 14.52l-27.73 0Z" id="p53w194" />
<path d="M143.75 889.47l22.73 0l0 14.52l-22.73 0Z" id="p53w195" />
<path d="M169.69 889.47l55.87 0l0 14.52l-55.87 0Z" id="p53w196" />
<path d="M228.77 889.47l20.85 0l0 14.52l-20.85 0Z" id="p53w197" />
<path d="M252.83 889.47l19.51 0l0 14.52l-19.51 0Z" id="p53w198" />
<path d="M275.55 889.47l57.73 0l0 14.52l-57.73 0Z" id="p53w199" />
<path d="M336.49 889.47l11.22 0l0 14.52l-11.22 0Z" id="p53w200" />
<path d="M360.8 889.47l28.96 0l0 14.52l-28.96 0Z" id="p53w201" />
<path d="M392.97 889.47l19.51 0l0 14.52l-19.51 0Z" id="p53w202" />
<path d="M415.69 889.47l71.37 0l0 14.52l-71.37 0Z" id="p53w203" />
<path d="M490.26 889.47l13.9 0l0 14.52l-13.9 0Z" id="p53w204" />
<path d="M143.76 906.14l28.87 0l0 14.52l-28.87 0Z" id="p53w205" />
<path d="M175.83 906.14l30.68 0l0 14.52l-30.68 0Z" id="p53w206" />
<path d="M209.71 906.14l30.99 0l0 14.52l-30.99 0Z" id="p53w207" />
<path d="M243.91 906.14l19.79 0l0 14.52l-19.79 0Z" id="p53w208" />
<path d="M266.9 906.14l44.64 0l0 14.52l-44.64 0Z" id="p53w209" />
<path d="M143.76 931.16l37.57 0l0 14.61l-37.57 0Z" id="p53w210" />
<path d="M184.53 931.16l37.35 0l0 14.61l-37.35 0Z" id="p53w211" />
<path d="M225.09 931.16l27.53 0l0 14.61l-27.53 0Z" id="p53w212" />
<path d="M255.83 931.16l50.59 0l0 14.61l-50.59 0Z" id="p53w213" />
<path d="M309.46 931.16l34.46 0l0 14.61l-34.46 0Z" id="p53w214" />
<path d="M60.68 891.24l27.93 0l0 12.29l-27.93 0Z" id="p53w215" />
<path d="M164.92 536.66l42.02 0l0 16.31l-42.02 0Z" id="p53w216" />
<path d="M210.84 536.66l42.92 0l0 16.31l-42.92 0Z" id="p53w217" />
<path d="M164.92 558.52l28.87 0l0 14.52l-28.87 0Z" id="p53w218" />
<path d="M197 558.52l50.37 0l0 14.52l-50.37 0Z" id="p53w219" />
<path d="M164.92 575.19l39.55 0l0 14.52l-39.55 0Z" id="p53w220" />
<path d="M207.68 575.19l13.9 0l0 14.52l-13.9 0Z" id="p53w221" />
<path d="M164.92 591.86l36.6 0l0 14.52l-36.6 0Z" id="p53w222" />
<path d="M164.92 608.54l40.09 0l0 14.52l-40.09 0Z" id="p53w223" />
<path d="M447.51 586.67l51.31 0l0 16.31l-51.31 0Z" id="p53w224" />
<path d="M502.72 586.67l24.05 0l0 16.31l-24.05 0Z" id="p53w225" />
<path d="M447.51 601.96l50.74 0l0 16.31l-50.74 0Z" id="p53w226" />
<path d="M447.51 623.82l28.87 0l0 14.52l-28.87 0Z" id="p53w227" />
<path d="M479.58 623.82l13.9 0l0 14.52l-13.9 0Z" id="p53w228" />
<path d="M496.33 623.82l41.01 0l0 14.52l-41.01 0Z" id="p53w229" />
<path d="M447.51 640.49l32.87 0l0 14.52l-32.87 0Z" id="p53w230" />
<path d="M483.58 640.49l13.9 0l0 14.52l-13.9 0Z" id="p53w231" />
<path d="M447.51 657.16l36.6 0l0 14.52l-36.6 0Z" id="p53w232" />
<path d="M447.51 673.83l40.09 0l0 14.52l-40.09 0Z" id="p53w233" />
<path d="M164.92 718.39l38.83 0l0 16.31l-38.83 0Z" id="p53w234" />
<path d="M207.66 718.39l54.42 0l0 16.31l-54.42 0Z" id="p53w235" />
<path d="M164.92 740.25l28.87 0l0 14.52l-28.87 0Z" id="p53w236" />
<path d="M197 740.25l58.18 0l0 14.52l-58.18 0Z" id="p53w237" />
<path d="M164.92 756.92l32.87 0l0 14.52l-32.87 0Z" id="p53w238" />
<path d="M201 756.92l13.9 0l0 14.52l-13.9 0Z" id="p53w239" />
<path d="M164.92 773.59l36.6 0l0 14.52l-36.6 0Z" id="p53w240" />
<path d="M164.92 790.26l40.09 0l0 14.52l-40.09 0Z" id="p53w241" />
<path d="M447.51 760.91l17.28 0l0 16.31l-17.28 0Z" id="p53w242" />
<path d="M468.7 760.91l67.8 0l0 16.31l-67.8 0Z" id="p53w243" />
<path d="M447.51 782.77l28.87 0l0 14.52l-28.87 0Z" id="p53w244" />
<path d="M479.58 782.77l19.51 0l0 14.52l-19.51 0Z" id="p53w245" />
<path d="M502.3 782.77l51.6 0l0 14.52l-51.6 0Z" id="p53w246" />
<path d="M447.51 799.44l32.87 0l0 14.52l-32.87 0Z" id="p53w247" />
<path d="M483.58 799.44l13.9 0l0 14.52l-13.9 0Z" id="p53w248" />
<path d="M447.51 816.11l36.6 0l0 14.52l-36.6 0Z" id="p53w249" />
<path d="M447.51 832.78l40.09 0l0 14.52l-40.09 0Z" id="p53w250" />
<path d="M68.27 39.02l42.71 0l0 15.38l-42.71 0Z" id="p53w251" />
<path d="M152.25 39.02l43.21 0l0 15.38l-43.21 0Z" id="p53w252" />
<path d="M251.4 38.6l45.06 0l0 16.09l-45.06 0Z" id="p53w253" />
<path d="M349.96 39.02l32.54 0l0 15.38l-32.54 0Z" id="p53w254" />
<path d="M616.73 983l74.37 0l0 12.23l-74.37 0Z" id="p53w255" />
</svg>
