<?xml version="1.0" encoding="UTF-8"?>
<svg xmlns="http://www.w3.org/2000/svg" xmlns:xlink="http://www.w3.org/1999/xlink" version="1.1" baseProfile="full" width="768" height="1024" viewBox="0,0,768,1024" preserveAspectRatio="xMinYMin meet" >
<style type="text/css">
<![CDATA[
path {fill-opacity: 0.5;fill: #00aeef;visibility: hidden;}
]]>
</style>
<path d="M124.06 107.98l13.96 0l0 18.84l-13.96 0Z" id="p167w1" />
<path d="M141.67 107.98l63.44 0l0 18.84l-63.44 0Z" id="p167w2" />
<path d="M217.53 107.98l68.85 0l0 18.84l-68.85 0Z" id="p167w3" />
<path d="M138.08 147.11l46.04 0l0 15.42l-46.04 0Z" id="p167w4" />
<path d="M138.08 163.91l10.71 0l0 15.09l-10.71 0Z" id="p167w5" />
<path d="M152.39 163.91l12.41 0l0 15.09l-12.41 0Z" id="p167w6" />
<path d="M168.42 163.91l28.17 0l0 15.09l-28.17 0Z" id="p167w7" />
<path d="M200.2 163.91l26.89 0l0 15.09l-26.89 0Z" id="p167w8" />
<path d="M230.7 163.91l11.18 0l0 15.09l-11.18 0Z" id="p167w9" />
<path d="M245.49 163.91l17.14 0l0 15.09l-17.14 0Z" id="p167w10" />
<path d="M276.35 163.91l53.46 0l0 15.09l-53.46 0Z" id="p167w11" />
<path d="M138.08 180.58l32.37 0l0 15.09l-32.37 0Z" id="p167w12" />
<path d="M174.06 180.58l26.89 0l0 15.09l-26.89 0Z" id="p167w13" />
<path d="M204.56 180.58l15.74 0l0 15.09l-15.74 0Z" id="p167w14" />
<path d="M223.91 180.58l24.93 0l0 15.09l-24.93 0Z" id="p167w15" />
<path d="M252.46 180.58l33.48 0l0 15.09l-33.48 0Z" id="p167w16" />
<path d="M289.55 180.58l26.3 0l0 15.09l-26.3 0Z" id="p167w17" />
<path d="M319.46 180.58l39.74 0l0 15.09l-39.74 0Z" id="p167w18" />
<path d="M138.08 197.25l17.68 0l0 15.09l-17.68 0Z" id="p167w19" />
<path d="M159.37 197.25l10.42 0l0 15.09l-10.42 0Z" id="p167w20" />
<path d="M173.41 197.25l23.98 0l0 15.09l-23.98 0Z" id="p167w21" />
<path d="M201 197.25l10.5 0l0 15.09l-10.5 0Z" id="p167w22" />
<path d="M215.11 197.25l34.42 0l0 15.09l-34.42 0Z" id="p167w23" />
<path d="M253.14 197.25l28.15 0l0 15.09l-28.15 0Z" id="p167w24" />
<path d="M284.9 197.25l11.26 0l0 15.09l-11.26 0Z" id="p167w25" />
<path d="M299.77 197.25l15.89 0l0 15.09l-15.89 0Z" id="p167w26" />
<path d="M319.26 197.25l54.22 0l0 15.09l-54.22 0Z" id="p167w27" />
<path d="M138.08 213.91l13.07 0l0 15.09l-13.07 0Z" id="p167w28" />
<path d="M154.76 213.91l28.17 0l0 15.09l-28.17 0Z" id="p167w29" />
<path d="M186.54 213.91l36.26 0l0 15.09l-36.26 0Z" id="p167w30" />
<path d="M226.41 213.91l41.22 0l0 15.09l-41.22 0Z" id="p167w31" />
<path d="M271.24 213.91l16.64 0l0 15.09l-16.64 0Z" id="p167w32" />
<path d="M291.49 213.91l61.97 0l0 15.09l-61.97 0Z" id="p167w33" />
<path d="M138.08 247.14l56.78 0l0 15.42l-56.78 0Z" id="p167w34" />
<path d="M198.58 247.14l47.89 0l0 15.42l-47.89 0Z" id="p167w35" />
<path d="M150.35 263.93l53.46 0l0 15.09l-53.46 0Z" id="p167w36" />
<path d="M207.43 263.93l16.75 0l0 15.09l-16.75 0Z" id="p167w37" />
<path d="M227.78 263.93l19.29 0l0 15.09l-19.29 0Z" id="p167w38" />
<path d="M250.69 263.93l35.38 0l0 15.09l-35.38 0Z" id="p167w39" />
<path d="M289.68 263.93l52.91 0l0 15.09l-52.91 0Z" id="p167w40" />
<path d="M346.2 263.93l11.26 0l0 15.09l-11.26 0Z" id="p167w41" />
<path d="M361.07 263.93l19.29 0l0 15.09l-19.29 0Z" id="p167w42" />
<path d="M383.97 263.93l59.17 0l0 15.09l-59.17 0Z" id="p167w43" />
<path d="M446.75 263.93l42.5 0l0 15.09l-42.5 0Z" id="p167w44" />
<path d="M138.08 280.6l17.68 0l0 15.09l-17.68 0Z" id="p167w45" />
<path d="M159.37 280.6l28.89 0l0 15.09l-28.89 0Z" id="p167w46" />
<path d="M191.87 280.6l24.62 0l0 15.09l-24.62 0Z" id="p167w47" />
<path d="M220.11 280.6l13.91 0l0 15.09l-13.91 0Z" id="p167w48" />
<path d="M237.63 280.6l65.83 0l0 15.09l-65.83 0Z" id="p167w49" />
<path d="M307.07 280.6l21.67 0l0 15.09l-21.67 0Z" id="p167w50" />
<path d="M332.35 280.6l13.91 0l0 15.09l-13.91 0Z" id="p167w51" />
<path d="M349.86 280.6l50.87 0l0 15.09l-50.87 0Z" id="p167w52" />
<path d="M138.08 297.27l29.59 0l0 15.09l-29.59 0Z" id="p167w53" />
<path d="M171.27 297.27l28.26 0l0 15.09l-28.26 0Z" id="p167w54" />
<path d="M203.15 297.27l26.3 0l0 15.09l-26.3 0Z" id="p167w55" />
<path d="M233.05 297.27l61.59 0l0 15.09l-61.59 0Z" id="p167w56" />
<path d="M298.25 297.27l12.58 0l0 15.09l-12.58 0Z" id="p167w57" />
<path d="M314.44 297.27l22.03 0l0 15.09l-22.03 0Z" id="p167w58" />
<path d="M350.19 297.27l23.88 0l0 15.09l-23.88 0Z" id="p167w59" />
<path d="M377.68 297.27l46.52 0l0 15.09l-46.52 0Z" id="p167w60" />
<path d="M138.08 313.94l25.55 0l0 15.09l-25.55 0Z" id="p167w61" />
<path d="M167.24 313.94l36.95 0l0 15.09l-36.95 0Z" id="p167w62" />
<path d="M207.8 313.94l55.76 0l0 15.09l-55.76 0Z" id="p167w63" />
<path d="M277.28 313.94l10.42 0l0 15.09l-10.42 0Z" id="p167w64" />
<path d="M291.31 313.94l48.79 0l0 15.09l-48.79 0Z" id="p167w65" />
<path d="M343.71 313.94l15.94 0l0 15.09l-15.94 0Z" id="p167w66" />
<path d="M371.7 313.94l34.04 0l0 15.09l-34.04 0Z" id="p167w67" />
<path d="M417.81 313.94l16.75 0l0 15.09l-16.75 0Z" id="p167w68" />
<path d="M438.17 313.94l10.42 0l0 15.09l-10.42 0Z" id="p167w69" />
<path d="M452.2 313.94l35.21 0l0 15.09l-35.21 0Z" id="p167w70" />
<path d="M138.08 330.61l18.46 0l0 15.09l-18.46 0Z" id="p167w71" />
<path d="M160.14 330.61l26.86 0l0 15.09l-26.86 0Z" id="p167w72" />
<path d="M190.62 330.61l25.23 0l0 15.09l-25.23 0Z" id="p167w73" />
<path d="M219.46 330.61l43.56 0l0 15.09l-43.56 0Z" id="p167w74" />
<path d="M266.62 330.61l24.24 0l0 15.09l-24.24 0Z" id="p167w75" />
<path d="M294.47 330.61l10.5 0l0 15.09l-10.5 0Z" id="p167w76" />
<path d="M308.58 330.61l41.09 0l0 15.09l-41.09 0Z" id="p167w77" />
<path d="M353.28 330.61l11.95 0l0 15.09l-11.95 0Z" id="p167w78" />
<path d="M368.85 330.61l19.63 0l0 15.09l-19.63 0Z" id="p167w79" />
<path d="M392.08 330.61l10.42 0l0 15.09l-10.42 0Z" id="p167w80" />
<path d="M406.12 330.61l23.25 0l0 15.09l-23.25 0Z" id="p167w81" />
<path d="M138.08 347.28l15.01 0l0 15.09l-15.01 0Z" id="p167w82" />
<path d="M156.7 347.28l42.93 0l0 15.09l-42.93 0Z" id="p167w83" />
<path d="M203.24 347.28l10.5 0l0 15.09l-10.5 0Z" id="p167w84" />
<path d="M217.35 347.28l27.39 0l0 15.09l-27.39 0Z" id="p167w85" />
<path d="M248.35 347.28l24.24 0l0 15.09l-24.24 0Z" id="p167w86" />
<path d="M276.2 347.28l14.59 0l0 15.09l-14.59 0Z" id="p167w87" />
<path d="M294.39 347.28l50.69 0l0 15.09l-50.69 0Z" id="p167w88" />
<path d="M348.69 347.28l19.88 0l0 15.09l-19.88 0Z" id="p167w89" />
<path d="M368.58 347.28l11.95 0l0 15.09l-11.95 0Z" id="p167w90" />
<path d="M384.14 347.28l10.42 0l0 15.09l-10.42 0Z" id="p167w91" />
<path d="M398.17 347.28l27.89 0l0 15.09l-27.89 0Z" id="p167w92" />
<path d="M138.08 363.95l13.07 0l0 15.09l-13.07 0Z" id="p167w93" />
<path d="M154.76 363.95l20.5 0l0 15.09l-20.5 0Z" id="p167w94" />
<path d="M178.87 363.95l25.61 0l0 15.09l-25.61 0Z" id="p167w95" />
<path d="M208.09 363.95l17.41 0l0 15.09l-17.41 0Z" id="p167w96" />
<path d="M229.12 363.95l12.58 0l0 15.09l-12.58 0Z" id="p167w97" />
<path d="M245.31 363.95l19.63 0l0 15.09l-19.63 0Z" id="p167w98" />
<path d="M268.55 363.95l36.59 0l0 15.09l-36.59 0Z" id="p167w99" />
<path d="M138.08 380.62l17.38 0l0 15.09l-17.38 0Z" id="p167w100" />
<path d="M159.06 380.62l16.64 0l0 15.09l-16.64 0Z" id="p167w101" />
<path d="M179.32 380.62l22.99 0l0 15.09l-22.99 0Z" id="p167w102" />
<path d="M205.92 380.62l15.06 0l0 15.09l-15.06 0Z" id="p167w103" />
<path d="M224.6 380.62l32.8 0l0 15.09l-32.8 0Z" id="p167w104" />
<path d="M261.01 380.62l15.06 0l0 15.09l-15.06 0Z" id="p167w105" />
<path d="M279.68 380.62l35.81 0l0 15.09l-35.81 0Z" id="p167w106" />
<path d="M319.1 380.62l50.8 0l0 15.09l-50.8 0Z" id="p167w107" />
<path d="M373.51 380.62l13.91 0l0 15.09l-13.91 0Z" id="p167w108" />
<path d="M391.03 380.62l55.01 0l0 15.09l-55.01 0Z" id="p167w109" />
<path d="M449.65 380.62l61.36 0l0 15.09l-61.36 0Z" id="p167w110" />
<path d="M138.08 397.29l23.62 0l0 15.09l-23.62 0Z" id="p167w111" />
<path d="M165.31 397.29l44.27 0l0 15.09l-44.27 0Z" id="p167w112" />
<path d="M213.2 397.29l60.7 0l0 15.09l-60.7 0Z" id="p167w113" />
<path d="M277.51 397.29l24.93 0l0 15.09l-24.93 0Z" id="p167w114" />
<path d="M306.05 397.29l15.89 0l0 15.09l-15.89 0Z" id="p167w115" />
<path d="M325.55 397.29l29.6 0l0 15.09l-29.6 0Z" id="p167w116" />
<path d="M138.08 413.96l17.68 0l0 15.09l-17.68 0Z" id="p167w117" />
<path d="M159.37 413.96l19.29 0l0 15.09l-19.29 0Z" id="p167w118" />
<path d="M182.27 413.96l50.75 0l0 15.09l-50.75 0Z" id="p167w119" />
<path d="M236.64 413.96l62.28 0l0 15.09l-62.28 0Z" id="p167w120" />
<path d="M302.53 413.96l43.85 0l0 15.09l-43.85 0Z" id="p167w121" />
<path d="M349.99 413.96l36.95 0l0 15.09l-36.95 0Z" id="p167w122" />
<path d="M390.55 413.96l22.31 0l0 15.09l-22.31 0Z" id="p167w123" />
<path d="M416.48 413.96l49.4 0l0 15.09l-49.4 0Z" id="p167w124" />
<path d="M469.49 413.96l11.26 0l0 15.09l-11.26 0Z" id="p167w125" />
<path d="M484.36 413.96l24.65 0l0 15.09l-24.65 0Z" id="p167w126" />
<path d="M512.62 413.96l18.49 0l0 15.09l-18.49 0Z" id="p167w127" />
<path d="M534.73 413.96l16.64 0l0 15.09l-16.64 0Z" id="p167w128" />
<path d="M554.98 413.96l32.55 0l0 15.09l-32.55 0Z" id="p167w129" />
<path d="M138.08 430.62l28.72 0l0 15.09l-28.72 0Z" id="p167w130" />
<path d="M170.41 430.62l24.62 0l0 15.09l-24.62 0Z" id="p167w131" />
<path d="M198.65 430.62l50.44 0l0 15.09l-50.44 0Z" id="p167w132" />
<path d="M252.7 430.62l13.91 0l0 15.09l-13.91 0Z" id="p167w133" />
<path d="M270.22 430.62l39.76 0l0 15.09l-39.76 0Z" id="p167w134" />
<path d="M313.6 430.62l39.52 0l0 15.09l-39.52 0Z" id="p167w135" />
<path d="M138.08 447.29l28.72 0l0 15.09l-28.72 0Z" id="p167w136" />
<path d="M170.41 447.29l51.42 0l0 15.09l-51.42 0Z" id="p167w137" />
<path d="M225.45 447.29l10.42 0l0 15.09l-10.42 0Z" id="p167w138" />
<path d="M239.48 447.29l45.87 0l0 15.09l-45.87 0Z" id="p167w139" />
<path d="M288.96 447.29l15.89 0l0 15.09l-15.89 0Z" id="p167w140" />
<path d="M308.46 447.29l55.71 0l0 15.09l-55.71 0Z" id="p167w141" />
<path d="M367.78 447.29l10.5 0l0 15.09l-10.5 0Z" id="p167w142" />
<path d="M381.89 447.29l45.26 0l0 15.09l-45.26 0Z" id="p167w143" />
<path d="M430.77 447.29l11.26 0l0 15.09l-11.26 0Z" id="p167w144" />
<path d="M445.64 447.29l10.5 0l0 15.09l-10.5 0Z" id="p167w145" />
<path d="M459.75 447.29l36.4 0l0 15.09l-36.4 0Z" id="p167w146" />
<path d="M138.08 463.96l28.72 0l0 15.09l-28.72 0Z" id="p167w147" />
<path d="M170.41 463.96l22.03 0l0 15.09l-22.03 0Z" id="p167w148" />
<path d="M196.05 463.96l71.59 0l0 15.09l-71.59 0Z" id="p167w149" />
<path d="M138.08 480.63l14.52 0l0 15.09l-14.52 0Z" id="p167w150" />
<path d="M156.21 480.63l29.08 0l0 15.09l-29.08 0Z" id="p167w151" />
<path d="M188.91 480.63l34.67 0l0 15.09l-34.67 0Z" id="p167w152" />
<path d="M227.19 480.63l19.29 0l0 15.09l-19.29 0Z" id="p167w153" />
<path d="M250.09 480.63l51.86 0l0 15.09l-51.86 0Z" id="p167w154" />
<path d="M305.56 480.63l25.69 0l0 15.09l-25.69 0Z" id="p167w155" />
<path d="M334.87 480.63l13.91 0l0 15.09l-13.91 0Z" id="p167w156" />
<path d="M352.38 480.63l10.42 0l0 15.09l-10.42 0Z" id="p167w157" />
<path d="M366.42 480.63l50.79 0l0 15.09l-50.79 0Z" id="p167w158" />
<path d="M420.82 480.63l14.86 0l0 15.09l-14.86 0Z" id="p167w159" />
<path d="M439.29 480.63l25.88 0l0 15.09l-25.88 0Z" id="p167w160" />
<path d="M468.78 480.63l25.69 0l0 15.09l-25.69 0Z" id="p167w161" />
<path d="M498.09 480.63l15.74 0l0 15.09l-15.74 0Z" id="p167w162" />
<path d="M517.44 480.63l24.79 0l0 15.09l-24.79 0Z" id="p167w163" />
<path d="M545.84 480.63l36.27 0l0 15.09l-36.27 0Z" id="p167w164" />
<path d="M138.08 497.3l17.38 0l0 15.09l-17.38 0Z" id="p167w165" />
<path d="M159.06 497.3l16.64 0l0 15.09l-16.64 0Z" id="p167w166" />
<path d="M179.32 497.3l24.93 0l0 15.09l-24.93 0Z" id="p167w167" />
<path d="M207.86 497.3l8.21 0l0 15.09l-8.21 0Z" id="p167w168" />
<path d="M216.08 497.3l17.34 0l0 15.09l-17.34 0Z" id="p167w169" />
<path d="M237.02 497.3l13.91 0l0 15.09l-13.91 0Z" id="p167w170" />
<path d="M254.54 497.3l51.7 0l0 15.09l-51.7 0Z" id="p167w171" />
<path d="M309.86 497.3l11.26 0l0 15.09l-11.26 0Z" id="p167w172" />
<path d="M324.73 497.3l13.91 0l0 15.09l-13.91 0Z" id="p167w173" />
<path d="M342.24 497.3l27.37 0l0 15.09l-27.37 0Z" id="p167w174" />
<path d="M373.23 497.3l22.63 0l0 15.09l-22.63 0Z" id="p167w175" />
<path d="M138.08 513.97l39.3 0l0 15.09l-39.3 0Z" id="p167w176" />
<path d="M180.99 513.97l12.41 0l0 15.09l-12.41 0Z" id="p167w177" />
<path d="M197.02 513.97l29.12 0l0 15.09l-29.12 0Z" id="p167w178" />
<path d="M229.75 513.97l15.89 0l0 15.09l-15.89 0Z" id="p167w179" />
<path d="M249.25 513.97l28.2 0l0 15.09l-28.2 0Z" id="p167w180" />
<path d="M281.05 513.97l14.21 0l0 15.09l-14.21 0Z" id="p167w181" />
<path d="M298.88 513.97l20.5 0l0 15.09l-20.5 0Z" id="p167w182" />
<path d="M322.99 513.97l26.3 0l0 15.09l-26.3 0Z" id="p167w183" />
<path d="M352.9 513.97l33.36 0l0 15.09l-33.36 0Z" id="p167w184" />
<path d="M389.87 513.97l34.48 0l0 15.09l-34.48 0Z" id="p167w185" />
<path d="M427.97 513.97l19.01 0l0 15.09l-19.01 0Z" id="p167w186" />
<path d="M450.58 513.97l44.99 0l0 15.09l-44.99 0Z" id="p167w187" />
<path d="M138.08 547.19l46.04 0l0 15.42l-46.04 0Z" id="p167w188" />
<path d="M138.08 563.99l10.71 0l0 15.09l-10.71 0Z" id="p167w189" />
<path d="M152.39 563.99l12.41 0l0 15.09l-12.41 0Z" id="p167w190" />
<path d="M168.42 563.99l28.17 0l0 15.09l-28.17 0Z" id="p167w191" />
<path d="M200.2 563.99l26.89 0l0 15.09l-26.89 0Z" id="p167w192" />
<path d="M230.7 563.99l11.18 0l0 15.09l-11.18 0Z" id="p167w193" />
<path d="M245.49 563.99l17.14 0l0 15.09l-17.14 0Z" id="p167w194" />
<path d="M276.35 563.99l53.46 0l0 15.09l-53.46 0Z" id="p167w195" />
<path d="M138.08 580.66l32.37 0l0 15.09l-32.37 0Z" id="p167w196" />
<path d="M174.06 580.66l26.89 0l0 15.09l-26.89 0Z" id="p167w197" />
<path d="M204.56 580.66l15.74 0l0 15.09l-15.74 0Z" id="p167w198" />
<path d="M223.91 580.66l24.93 0l0 15.09l-24.93 0Z" id="p167w199" />
<path d="M252.46 580.66l29.92 0l0 15.09l-29.92 0Z" id="p167w200" />
<path d="M285.99 580.66l26.3 0l0 15.09l-26.3 0Z" id="p167w201" />
<path d="M315.9 580.66l39.74 0l0 15.09l-39.74 0Z" id="p167w202" />
<path d="M138.08 597.33l17.68 0l0 15.09l-17.68 0Z" id="p167w203" />
<path d="M159.37 597.33l10.42 0l0 15.09l-10.42 0Z" id="p167w204" />
<path d="M173.41 597.33l23.98 0l0 15.09l-23.98 0Z" id="p167w205" />
<path d="M201 597.33l10.5 0l0 15.09l-10.5 0Z" id="p167w206" />
<path d="M215.11 597.33l34.42 0l0 15.09l-34.42 0Z" id="p167w207" />
<path d="M253.14 597.33l28.15 0l0 15.09l-28.15 0Z" id="p167w208" />
<path d="M284.9 597.33l11.26 0l0 15.09l-11.26 0Z" id="p167w209" />
<path d="M299.77 597.33l15.89 0l0 15.09l-15.89 0Z" id="p167w210" />
<path d="M319.26 597.33l54.22 0l0 15.09l-54.22 0Z" id="p167w211" />
<path d="M138.08 614l13.07 0l0 15.09l-13.07 0Z" id="p167w212" />
<path d="M154.76 614l28.17 0l0 15.09l-28.17 0Z" id="p167w213" />
<path d="M186.54 614l36.26 0l0 15.09l-36.26 0Z" id="p167w214" />
<path d="M226.41 614l41.22 0l0 15.09l-41.22 0Z" id="p167w215" />
<path d="M271.24 614l16.64 0l0 15.09l-16.64 0Z" id="p167w216" />
<path d="M291.49 614l61.97 0l0 15.09l-61.97 0Z" id="p167w217" />
<path d="M81.06 38.6l30.93 0l0 16.09l-30.93 0Z" id="p167w218" />
<path d="M605.25 983l85.85 0l0 12.23l-85.85 0Z" id="p167w219" />
<path d="M454.9 649.29l21.73 0l0 11.4l-21.73 0Z" id="p167w220" />
<path d="M479.3 649.29l39.68 0l0 11.4l-39.68 0Z" id="p167w221" />
<path d="M521.66 649.29l45.11 0l0 11.4l-45.11 0Z" id="p167w222" />
<path d="M444.26 663.19l30.76 0l0 11.4l-30.76 0Z" id="p167w223" />
<path d="M477.7 663.19l22.93 0l0 11.4l-22.93 0Z" id="p167w224" />
<path d="M503.3 663.19l20.96 0l0 11.4l-20.96 0Z" id="p167w225" />
<path d="M526.94 663.19l54.55 0l0 11.4l-54.55 0Z" id="p167w226" />
<path d="M584.16 663.19l31.61 0l0 11.4l-31.61 0Z" id="p167w227" />
<path d="M618.45 663.19l42.08 0l0 11.4l-42.08 0Z" id="p167w228" />
</svg>
