<?xml version="1.0" encoding="UTF-8"?>
<svg xmlns="http://www.w3.org/2000/svg" xmlns:xlink="http://www.w3.org/1999/xlink" version="1.1" baseProfile="full" width="768" height="1024" viewBox="0,0,768,1024" preserveAspectRatio="xMinYMin meet" >
<style type="text/css">
<![CDATA[
path {fill-opacity: 0.5;fill: #00aeef;visibility: hidden;}
]]>
</style>
<path d="M124.06 114.18l43.86 0l0 14.52l-43.86 0Z" id="p143w1" />
<path d="M171.13 114.18l15.5 0l0 14.52l-15.5 0Z" id="p143w2" />
<path d="M189.83 114.18l36.61 0l0 14.52l-36.61 0Z" id="p143w3" />
<path d="M229.66 114.18l37.68 0l0 14.52l-37.68 0Z" id="p143w4" />
<path d="M270.55 114.18l11.22 0l0 14.52l-11.22 0Z" id="p143w5" />
<path d="M284.97 114.18l50.5 0l0 14.52l-50.5 0Z" id="p143w6" />
<path d="M338.68 114.18l15.5 0l0 14.52l-15.5 0Z" id="p143w7" />
<path d="M357.39 114.18l38.5 0l0 14.52l-38.5 0Z" id="p143w8" />
<path d="M399.1 114.18l26.73 0l0 14.52l-26.73 0Z" id="p143w9" />
<path d="M429.03 114.18l34.75 0l0 14.52l-34.75 0Z" id="p143w10" />
<path d="M466.99 114.18l19.51 0l0 14.52l-19.51 0Z" id="p143w11" />
<path d="M489.71 114.18l40.36 0l0 14.52l-40.36 0Z" id="p143w12" />
<path d="M124.06 130.85l31.55 0l0 14.52l-31.55 0Z" id="p143w13" />
<path d="M155.61 130.85l12.57 0l0 14.52l-12.57 0Z" id="p143w14" />
<path d="M171.38 130.85l28.87 0l0 14.52l-28.87 0Z" id="p143w15" />
<path d="M203.45 130.85l47.58 0l0 14.52l-47.58 0Z" id="p143w16" />
<path d="M615.76 130.85l13.11 0l0 14.52l-13.11 0Z" id="p143w17" />
<path d="M632.08 130.85l25.13 0l0 14.52l-25.13 0Z" id="p143w18" />
<path d="M660.42 130.85l38.49 0l0 14.52l-38.49 0Z" id="p143w19" />
<path d="M124.06 283.05l18.36 0l0 18.84l-18.36 0Z" id="p143w20" />
<path d="M146.07 283.05l56.09 0l0 18.84l-56.09 0Z" id="p143w21" />
<path d="M124.06 314.25l50.43 0l0 14.52l-50.43 0Z" id="p143w22" />
<path d="M177.7 314.25l20.85 0l0 14.52l-20.85 0Z" id="p143w23" />
<path d="M201.77 314.25l25.67 0l0 14.52l-25.67 0Z" id="p143w24" />
<path d="M230.65 314.25l30.99 0l0 14.52l-30.99 0Z" id="p143w25" />
<path d="M264.85 314.25l25.67 0l0 14.52l-25.67 0Z" id="p143w26" />
<path d="M293.73 314.25l25.67 0l0 14.52l-25.67 0Z" id="p143w27" />
<path d="M322.61 314.25l13.63 0l0 14.52l-13.63 0Z" id="p143w28" />
<path d="M339.45 314.25l59.87 0l0 14.52l-59.87 0Z" id="p143w29" />
<path d="M402.53 314.25l13.9 0l0 14.52l-13.9 0Z" id="p143w30" />
<path d="M419.63 314.25l20.58 0l0 14.52l-20.58 0Z" id="p143w31" />
<path d="M443.42 314.25l13.9 0l0 14.52l-13.9 0Z" id="p143w32" />
<path d="M460.53 314.25l49.99 0l0 14.52l-49.99 0Z" id="p143w33" />
<path d="M513.72 314.25l11.22 0l0 14.52l-11.22 0Z" id="p143w34" />
<path d="M528.15 314.25l13.9 0l0 14.52l-13.9 0Z" id="p143w35" />
<path d="M545.25 314.25l27.8 0l0 14.52l-27.8 0Z" id="p143w36" />
<path d="M124.06 330.92l40.89 0l0 14.52l-40.89 0Z" id="p143w37" />
<path d="M168.16 330.92l15.5 0l0 14.52l-15.5 0Z" id="p143w38" />
<path d="M186.86 330.92l46.5 0l0 14.52l-46.5 0Z" id="p143w39" />
<path d="M236.57 330.92l57.39 0l0 14.52l-57.39 0Z" id="p143w40" />
<path d="M297.17 330.92l29.67 0l0 14.52l-29.67 0Z" id="p143w41" />
<path d="M330.05 330.92l15.5 0l0 14.52l-15.5 0Z" id="p143w42" />
<path d="M348.75 330.92l43.57 0l0 14.52l-43.57 0Z" id="p143w43" />
<path d="M395.53 330.92l22.99 0l0 14.52l-22.99 0Z" id="p143w44" />
<path d="M421.73 330.92l50.8 0l0 14.52l-50.8 0Z" id="p143w45" />
<path d="M645.32 330.92l13.11 0l0 14.52l-13.11 0Z" id="p143w46" />
<path d="M661.63 330.92l37.41 0l0 14.52l-37.41 0Z" id="p143w47" />
<path d="M124.06 472.64l35.55 0l0 14.52l-35.55 0Z" id="p143w48" />
<path d="M162.38 472.64l35.02 0l0 14.52l-35.02 0Z" id="p143w49" />
<path d="M200.6 472.64l18.7 0l0 14.52l-18.7 0Z" id="p143w50" />
<path d="M222.52 472.64l20.85 0l0 14.52l-20.85 0Z" id="p143w51" />
<path d="M246.58 472.64l23.24 0l0 14.52l-23.24 0Z" id="p143w52" />
<path d="M273.03 472.64l19.51 0l0 14.52l-19.51 0Z" id="p143w53" />
<path d="M295.75 472.64l37.96 0l0 14.52l-37.96 0Z" id="p143w54" />
<path d="M346.8 472.64l25.38 0l0 14.52l-25.38 0Z" id="p143w55" />
<path d="M375.39 472.64l31.1 0l0 14.52l-31.1 0Z" id="p143w56" />
<path d="M409.69 472.64l9.89 0l0 14.52l-9.89 0Z" id="p143w57" />
<path d="M422.79 472.64l39.56 0l0 14.52l-39.56 0Z" id="p143w58" />
<path d="M465.55 472.64l11.22 0l0 14.52l-11.22 0Z" id="p143w59" />
<path d="M479.98 472.64l30.21 0l0 14.52l-30.21 0Z" id="p143w60" />
<path d="M513.4 472.64l11.22 0l0 14.52l-11.22 0Z" id="p143w61" />
<path d="M527.83 472.64l42.33 0l0 14.52l-42.33 0Z" id="p143w62" />
<path d="M124.06 489.32l20.85 0l0 14.52l-20.85 0Z" id="p143w63" />
<path d="M148.12 489.32l23.24 0l0 14.52l-23.24 0Z" id="p143w64" />
<path d="M174.58 489.32l19.51 0l0 14.52l-19.51 0Z" id="p143w65" />
<path d="M197.29 489.32l37.96 0l0 14.52l-37.96 0Z" id="p143w66" />
<path d="M248.35 489.32l25.38 0l0 14.52l-25.38 0Z" id="p143w67" />
<path d="M276.94 489.32l30.73 0l0 14.52l-30.73 0Z" id="p143w68" />
<path d="M310.87 489.32l9.89 0l0 14.52l-9.89 0Z" id="p143w69" />
<path d="M323.97 489.32l91.34 0l0 14.52l-91.34 0Z" id="p143w70" />
<path d="M418.51 489.32l59.34 0l0 14.52l-59.34 0Z" id="p143w71" />
<path d="M481.06 489.32l15.5 0l0 14.52l-15.5 0Z" id="p143w72" />
<path d="M499.77 489.32l26.74 0l0 14.52l-26.74 0Z" id="p143w73" />
<path d="M529.72 489.32l28.85 0l0 14.52l-28.85 0Z" id="p143w74" />
<path d="M561.78 489.32l25.4 0l0 14.52l-25.4 0Z" id="p143w75" />
<path d="M124.06 505.99l15.5 0l0 14.52l-15.5 0Z" id="p143w76" />
<path d="M142.77 505.99l28.06 0l0 14.52l-28.06 0Z" id="p143w77" />
<path d="M174.03 505.99l48.48 0l0 14.52l-48.48 0Z" id="p143w78" />
<path d="M666.96 505.99l13.11 0l0 14.52l-13.11 0Z" id="p143w79" />
<path d="M683.28 505.99l25.51 0l0 14.52l-25.51 0Z" id="p143w80" />
<path d="M124.06 806.1l51.89 0l0 14.52l-51.89 0Z" id="p143w81" />
<path d="M179.16 806.1l15.5 0l0 14.52l-15.5 0Z" id="p143w82" />
<path d="M197.86 806.1l38.5 0l0 14.52l-38.5 0Z" id="p143w83" />
<path d="M239.57 806.1l33.34 0l0 14.52l-33.34 0Z" id="p143w84" />
<path d="M313.72 806.1l11.22 0l0 14.52l-11.22 0Z" id="p143w85" />
<path d="M328.15 806.1l52.94 0l0 14.52l-52.94 0Z" id="p143w86" />
<path d="M384.3 806.1l21.38 0l0 14.52l-21.38 0Z" id="p143w87" />
<path d="M408.89 806.1l20.31 0l0 14.52l-20.31 0Z" id="p143w88" />
<path d="M432.41 806.1l25.4 0l0 14.52l-25.4 0Z" id="p143w89" />
<path d="M461.01 806.1l47.57 0l0 14.52l-47.57 0Z" id="p143w90" />
<path d="M511.79 806.1l14.18 0l0 14.52l-14.18 0Z" id="p143w91" />
<path d="M529.17 806.1l31.01 0l0 14.52l-31.01 0Z" id="p143w92" />
<path d="M124.06 822.77l32.87 0l0 14.52l-32.87 0Z" id="p143w93" />
<path d="M160.14 822.77l13.63 0l0 14.52l-13.63 0Z" id="p143w94" />
<path d="M176.98 822.77l33.95 0l0 14.52l-33.95 0Z" id="p143w95" />
<path d="M214.13 822.77l24.59 0l0 14.52l-24.59 0Z" id="p143w96" />
<path d="M241.93 822.77l43.29 0l0 14.52l-43.29 0Z" id="p143w97" />
<path d="M288.43 822.77l25.67 0l0 14.52l-25.67 0Z" id="p143w98" />
<path d="M317.31 822.77l40.64 0l0 14.52l-40.64 0Z" id="p143w99" />
<path d="M361.16 822.77l35.31 0l0 14.52l-35.31 0Z" id="p143w100" />
<path d="M399.68 822.77l18.44 0l0 14.52l-18.44 0Z" id="p143w101" />
<path d="M421.32 822.77l28.06 0l0 14.52l-28.06 0Z" id="p143w102" />
<path d="M452.59 822.77l45.8 0l0 14.52l-45.8 0Z" id="p143w103" />
<path d="M501.6 822.77l45.45 0l0 14.52l-45.45 0Z" id="p143w104" />
<path d="M550.26 822.77l25.67 0l0 14.52l-25.67 0Z" id="p143w105" />
<path d="M579.14 822.77l29.69 0l0 14.52l-29.69 0Z" id="p143w106" />
<path d="M677.9 822.77l13.11 0l0 14.52l-13.11 0Z" id="p143w107" />
<path d="M694.22 822.77l14.57 0l0 14.52l-14.57 0Z" id="p143w108" />
<path d="M124.06 847.78l32.63 0l0 14.52l-32.63 0Z" id="p143w109" />
<path d="M124.06 906.14l32.63 0l0 14.52l-32.63 0Z" id="p143w110" />
<path d="M124.06 939.48l32.63 0l0 14.52l-32.63 0Z" id="p143w111" />
<path d="M52.44 132.63l35.52 0l0 12.29l-35.52 0Z" id="p143w112" />
<path d="M37 149.37l36.59 0l0 12.3l-36.59 0Z" id="p143w113" />
<path d="M60.03 332.7l27.93 0l0 12.29l-27.93 0Z" id="p143w114" />
<path d="M129.38 359.34l25.38 0l0 14.52l-25.38 0Z" id="p143w115" />
<path d="M157.97 359.34l14.18 0l0 14.52l-14.18 0Z" id="p143w116" />
<path d="M175.35 359.34l38.78 0l0 14.52l-38.78 0Z" id="p143w117" />
<path d="M347.18 359.34l12.29 0l0 14.52l-12.29 0Z" id="p143w118" />
<path d="M362.67 359.34l54.53 0l0 14.52l-54.53 0Z" id="p143w119" />
<path d="M420.41 359.34l26.73 0l0 14.52l-26.73 0Z" id="p143w120" />
<path d="M450.34 359.34l9.89 0l0 14.52l-9.89 0Z" id="p143w121" />
<path d="M463.44 359.34l26.99 0l0 14.52l-26.99 0Z" id="p143w122" />
<path d="M562.71 359.34l12.29 0l0 14.52l-12.29 0Z" id="p143w123" />
<path d="M578.2 359.34l42.7 0l0 14.52l-42.7 0Z" id="p143w124" />
<path d="M129.38 384.35l25.38 0l0 14.52l-25.38 0Z" id="p143w125" />
<path d="M157.97 384.35l14.18 0l0 14.52l-14.18 0Z" id="p143w126" />
<path d="M175.35 384.35l31.28 0l0 14.52l-31.28 0Z" id="p143w127" />
<path d="M347.18 384.35l24.31 0l0 14.52l-24.31 0Z" id="p143w128" />
<path d="M374.7 384.35l13.63 0l0 14.52l-13.63 0Z" id="p143w129" />
<path d="M391.54 384.35l40.63 0l0 14.52l-40.63 0Z" id="p143w130" />
<path d="M562.71 384.15l43.23 0l0 14.52l-43.23 0Z" id="p143w131" />
<path d="M609.14 384.15l20.85 0l0 14.52l-20.85 0Z" id="p143w132" />
<path d="M633.21 384.15l29.61 0l0 14.52l-29.61 0Z" id="p143w133" />
<path d="M129.38 409.36l12.29 0l0 14.52l-12.29 0Z" id="p143w134" />
<path d="M144.87 409.36l54.53 0l0 14.52l-54.53 0Z" id="p143w135" />
<path d="M202.61 409.36l26.73 0l0 14.52l-26.73 0Z" id="p143w136" />
<path d="M232.54 409.36l9.89 0l0 14.52l-9.89 0Z" id="p143w137" />
<path d="M245.64 409.36l30.94 0l0 14.52l-30.94 0Z" id="p143w138" />
<path d="M347.18 409.36l25.94 0l0 14.52l-25.94 0Z" id="p143w139" />
<path d="M373.11 409.36l15.76 0l0 14.52l-15.76 0Z" id="p143w140" />
<path d="M392.08 409.36l14.18 0l0 14.52l-14.18 0Z" id="p143w141" />
<path d="M409.47 409.36l28.87 0l0 14.52l-28.87 0Z" id="p143w142" />
<path d="M562.71 409.36l28.6 0l0 14.52l-28.6 0Z" id="p143w143" />
<path d="M594.52 409.36l14.18 0l0 14.52l-14.18 0Z" id="p143w144" />
<path d="M611.9 409.36l47.33 0l0 14.52l-47.33 0Z" id="p143w145" />
<path d="M662.44 409.36l33.96 0l0 14.52l-33.96 0Z" id="p143w146" />
<path d="M129.38 434.37l36.34 0l0 14.52l-36.34 0Z" id="p143w147" />
<path d="M168.92 434.37l9.89 0l0 14.52l-9.89 0Z" id="p143w148" />
<path d="M182.02 434.37l41.97 0l0 14.52l-41.97 0Z" id="p143w149" />
<path d="M227.2 434.37l38.23 0l0 14.52l-38.23 0Z" id="p143w150" />
<path d="M347.18 434.37l25.38 0l0 14.52l-25.38 0Z" id="p143w151" />
<path d="M375.77 434.37l19.51 0l0 14.52l-19.51 0Z" id="p143w152" />
<path d="M398.48 434.37l65.76 0l0 14.52l-65.76 0Z" id="p143w153" />
<path d="M562.71 434.37l24.31 0l0 14.52l-24.31 0Z" id="p143w154" />
<path d="M600.11 434.37l9.89 0l0 14.52l-9.89 0Z" id="p143w155" />
<path d="M613.21 434.37l39.03 0l0 14.52l-39.03 0Z" id="p143w156" />
<path d="M128.98 529.04l27.8 0l0 14.52l-27.8 0Z" id="p143w157" />
<path d="M128.98 554.05l46.73 0l0 14.52l-46.73 0Z" id="p143w158" />
<path d="M234.97 529.04l31.28 0l0 14.52l-31.28 0Z" id="p143w159" />
<path d="M234.97 554.05l38.23 0l0 14.52l-38.23 0Z" id="p143w160" />
<path d="M332.46 529.04l31.22 0l0 14.52l-31.22 0Z" id="p143w161" />
<path d="M332.46 554.05l46.5 0l0 14.52l-46.5 0Z" id="p143w162" />
<path d="M438.23 529.04l46.87 0l0 14.52l-46.87 0Z" id="p143w163" />
<path d="M438.23 554.05l65.22 0l0 14.52l-65.22 0Z" id="p143w164" />
<path d="M562.71 529.04l38.78 0l0 14.52l-38.78 0Z" id="p143w165" />
<path d="M562.71 554.05l65.75 0l0 14.52l-65.75 0Z" id="p143w166" />
<path d="M499.87 643.12l22.48 0l0 15.56l-22.48 0Z" id="p143w167" />
<path d="M525.51 643.12l12.71 0l0 15.56l-12.71 0Z" id="p143w168" />
<path d="M499.87 667.67l42.75 0l0 15.56l-42.75 0Z" id="p143w169" />
<path d="M545.79 667.67l13.67 0l0 15.56l-13.67 0Z" id="p143w170" />
<path d="M499.87 692.22l21.74 0l0 15.56l-21.74 0Z" id="p143w171" />
<path d="M524.78 692.22l12.47 0l0 15.56l-12.47 0Z" id="p143w172" />
<path d="M518.79 716.77l22.49 0l0 15.56l-22.49 0Z" id="p143w173" />
<path d="M544.45 716.77l9.04 0l0 15.56l-9.04 0Z" id="p143w174" />
<path d="M556.66 716.77l26.39 0l0 15.56l-26.39 0Z" id="p143w175" />
<path d="M499.87 741.32l22.48 0l0 15.56l-22.48 0Z" id="p143w176" />
<path d="M525.51 741.32l12.71 0l0 15.56l-12.71 0Z" id="p143w177" />
<path d="M560.31 741.32l23.71 0l0 15.56l-23.71 0Z" id="p143w178" />
<path d="M587.19 741.32l12.72 0l0 15.56l-12.72 0Z" id="p143w179" />
<path d="M603.08 741.32l20.78 0l0 15.56l-20.78 0Z" id="p143w180" />
<path d="M465.02 613.64l25.54 0l0 15.71l-25.54 0Z" id="p143w181" />
<path d="M493.99 613.64l13.45 0l0 15.71l-13.45 0Z" id="p143w182" />
<path d="M510.87 613.64l41.31 0l0 15.71l-41.31 0Z" id="p143w183" />
<path d="M189.32 643.33l37.14 0l0 15.56l-37.14 0Z" id="p143w184" />
<path d="M229.63 643.33l12.72 0l0 15.56l-12.72 0Z" id="p143w185" />
<path d="M264.44 643.33l12.21 0l0 15.56l-12.21 0Z" id="p143w186" />
<path d="M279.82 643.33l45.71 0l0 15.56l-45.71 0Z" id="p143w187" />
<path d="M189.32 667.88l29.06 0l0 15.56l-29.06 0Z" id="p143w188" />
<path d="M230.83 667.88l15.64 0l0 15.56l-15.64 0Z" id="p143w189" />
<path d="M268.56 667.88l22.98 0l0 15.56l-22.98 0Z" id="p143w190" />
<path d="M294.7 667.88l8.79 0l0 15.56l-8.79 0Z" id="p143w191" />
<path d="M306.66 667.88l31.28 0l0 15.56l-31.28 0Z" id="p143w192" />
<path d="M189.32 692.43l53.76 0l0 15.56l-53.76 0Z" id="p143w193" />
<path d="M246.24 692.43l12.47 0l0 15.56l-12.47 0Z" id="p143w194" />
<path d="M280.81 692.43l12.21 0l0 15.56l-12.21 0Z" id="p143w195" />
<path d="M296.18 692.43l9.04 0l0 15.56l-9.04 0Z" id="p143w196" />
<path d="M308.39 692.43l42.29 0l0 15.56l-42.29 0Z" id="p143w197" />
<path d="M353.85 692.43l36.18 0l0 15.56l-36.18 0Z" id="p143w198" />
<path d="M189.32 716.98l38.59 0l0 15.56l-38.59 0Z" id="p143w199" />
<path d="M231.08 716.98l17.09 0l0 15.56l-17.09 0Z" id="p143w200" />
<path d="M251.34 716.98l51.79 0l0 15.56l-51.79 0Z" id="p143w201" />
<path d="M306.3 716.98l35.2 0l0 15.56l-35.2 0Z" id="p143w202" />
<path d="M344.67 716.98l22.98 0l0 15.56l-22.98 0Z" id="p143w203" />
<path d="M370.82 716.98l6.1 0l0 15.56l-6.1 0Z" id="p143w204" />
<path d="M189.32 741.53l37.14 0l0 15.56l-37.14 0Z" id="p143w205" />
<path d="M229.63 741.53l12.72 0l0 15.56l-12.72 0Z" id="p143w206" />
<path d="M245.52 741.53l59.15 0l0 15.56l-59.15 0Z" id="p143w207" />
<path d="M307.83 741.53l17.09 0l0 15.56l-17.09 0Z" id="p143w208" />
<path d="M347.01 741.53l60.84 0l0 15.56l-60.84 0Z" id="p143w209" />
<path d="M154.07 613.64l25.54 0l0 15.71l-25.54 0Z" id="p143w210" />
<path d="M183.05 613.64l31.04 0l0 15.71l-31.04 0Z" id="p143w211" />
<path d="M217.52 613.64l10.03 0l0 15.71l-10.03 0Z" id="p143w212" />
<path d="M230.99 613.64l36.67 0l0 15.71l-36.67 0Z" id="p143w213" />
<path d="M61.56 824.55l26.4 0l0 12.29l-26.4 0Z" id="p143w214" />
<path d="M329.94 847.69l9.89 0l0 14.52l-9.89 0Z" id="p143w215" />
<path d="M343.03 847.69l29.61 0l0 14.52l-29.61 0Z" id="p143w216" />
<path d="M393.57 847.69l9.89 0l0 14.52l-9.89 0Z" id="p143w217" />
<path d="M406.66 847.69l33.68 0l0 14.52l-33.68 0Z" id="p143w218" />
<path d="M443.55 847.69l27.01 0l0 14.52l-27.01 0Z" id="p143w219" />
<path d="M488.28 847.69l9.89 0l0 14.52l-9.89 0Z" id="p143w220" />
<path d="M501.38 847.69l36.61 0l0 14.52l-36.61 0Z" id="p143w221" />
<path d="M555.71 847.69l20.85 0l0 14.52l-20.85 0Z" id="p143w222" />
<path d="M579.78 847.69l62.02 0l0 14.52l-62.02 0Z" id="p143w223" />
<path d="M190.03 872.7l9.89 0l0 14.52l-9.89 0Z" id="p143w224" />
<path d="M203.12 872.7l33.94 0l0 14.52l-33.94 0Z" id="p143w225" />
<path d="M240.27 872.7l13.9 0l0 14.52l-13.9 0Z" id="p143w226" />
<path d="M257.37 872.7l53.18 0l0 14.52l-53.18 0Z" id="p143w227" />
<path d="M190.03 847.69l14.18 0l0 14.52l-14.18 0Z" id="p143w228" />
<path d="M207.41 847.69l37.96 0l0 14.52l-37.96 0Z" id="p143w229" />
<path d="M248.58 847.69l63.63 0l0 14.52l-63.63 0Z" id="p143w230" />
<path d="M190.03 906.05l14.18 0l0 14.52l-14.18 0Z" id="p143w231" />
<path d="M207.41 906.05l18.18 0l0 14.52l-18.18 0Z" id="p143w232" />
<path d="M243.31 906.05l51.32 0l0 14.52l-51.32 0Z" id="p143w233" />
<path d="M312.35 906.05l15.5 0l0 14.52l-15.5 0Z" id="p143w234" />
<path d="M331.06 906.05l50.62 0l0 14.52l-50.62 0Z" id="p143w235" />
<path d="M399.4 906.05l20.85 0l0 14.52l-20.85 0Z" id="p143w236" />
<path d="M423.46 906.05l26.46 0l0 14.52l-26.46 0Z" id="p143w237" />
<path d="M190.03 939.4l19.51 0l0 14.52l-19.51 0Z" id="p143w238" />
<path d="M212.75 939.4l58.53 0l0 14.52l-58.53 0Z" id="p143w239" />
<path d="M274.48 939.4l68.7 0l0 14.52l-68.7 0Z" id="p143w240" />
<path d="M360.9 939.4l9.89 0l0 14.52l-9.89 0Z" id="p143w241" />
<path d="M374 939.4l27.27 0l0 14.52l-27.27 0Z" id="p143w242" />
<path d="M404.47 939.4l44.01 0l0 14.52l-44.01 0Z" id="p143w243" />
<path d="M466.2 939.4l36.83 0l0 14.52l-36.83 0Z" id="p143w244" />
<path d="M520.75 939.4l52.14 0l0 14.52l-52.14 0Z" id="p143w245" />
<path d="M68.27 38.6l16.59 0l0 16.09l-16.59 0Z" id="p143w246" />
<path d="M88.23 38.6l28.66 0l0 16.09l-28.66 0Z" id="p143w247" />
<path d="M131.1 38.6l99.65 0l0 16.09l-99.65 0Z" id="p143w248" />
<path d="M597.68 983l93.42 0l0 12.23l-93.42 0Z" id="p143w249" />
</svg>
