<?xml version="1.0" encoding="UTF-8"?>
<svg xmlns="http://www.w3.org/2000/svg" xmlns:xlink="http://www.w3.org/1999/xlink" version="1.1" baseProfile="full" width="768" height="1024" viewBox="0,0,768,1024" preserveAspectRatio="xMinYMin meet" >
<style type="text/css">
<![CDATA[
path {fill-opacity: 0.5;fill: #00aeef;visibility: hidden;}
]]>
</style>
<path d="M124.06 107.98l18.69 0l0 18.84l-18.69 0Z" id="p94w1" />
<path d="M146.4 107.98l59.1 0l0 18.84l-59.1 0Z" id="p94w2" />
<path d="M124.06 139.19l34.23 0l0 14.52l-34.23 0Z" id="p94w3" />
<path d="M161.49 139.19l9.89 0l0 14.52l-9.89 0Z" id="p94w4" />
<path d="M174.59 139.19l34.21 0l0 14.52l-34.21 0Z" id="p94w5" />
<path d="M212.01 139.19l51.85 0l0 14.52l-51.85 0Z" id="p94w6" />
<path d="M267.06 139.19l13.9 0l0 14.52l-13.9 0Z" id="p94w7" />
<path d="M284.17 139.19l41.45 0l0 14.52l-41.45 0Z" id="p94w8" />
<path d="M338.71 139.19l35.56 0l0 14.52l-35.56 0Z" id="p94w9" />
<path d="M377.48 139.19l17.11 0l0 14.52l-17.11 0Z" id="p94w10" />
<path d="M124.06 155.86l34.74 0l0 14.52l-34.74 0Z" id="p94w11" />
<path d="M162.01 155.86l17.11 0l0 14.52l-17.11 0Z" id="p94w12" />
<path d="M182.32 155.86l14.18 0l0 14.52l-14.18 0Z" id="p94w13" />
<path d="M199.71 155.86l54.54 0l0 14.52l-54.54 0Z" id="p94w14" />
<path d="M257.45 155.86l75.92 0l0 14.52l-75.92 0Z" id="p94w15" />
<path d="M336.58 155.86l11.22 0l0 14.52l-11.22 0Z" id="p94w16" />
<path d="M351.01 155.86l6.41 0l0 14.52l-6.41 0Z" id="p94w17" />
<path d="M360.63 155.86l33.41 0l0 14.52l-33.41 0Z" id="p94w18" />
<path d="M124.06 172.53l22.99 0l0 14.52l-22.99 0Z" id="p94w19" />
<path d="M150.26 172.53l44.37 0l0 14.52l-44.37 0Z" id="p94w20" />
<path d="M197.84 172.53l55.31 0l0 14.52l-55.31 0Z" id="p94w21" />
<path d="M256.36 172.53l41.45 0l0 14.52l-41.45 0Z" id="p94w22" />
<path d="M301.01 172.53l6.96 0l0 14.52l-6.96 0Z" id="p94w23" />
<path d="M311.17 172.53l9.89 0l0 14.52l-9.89 0Z" id="p94w24" />
<path d="M324.27 172.53l41.42 0l0 14.52l-41.42 0Z" id="p94w25" />
<path d="M368.89 172.53l25.67 0l0 14.52l-25.67 0Z" id="p94w26" />
<path d="M124.06 189.2l13.37 0l0 14.52l-13.37 0Z" id="p94w27" />
<path d="M140.64 189.2l26.73 0l0 14.52l-26.73 0Z" id="p94w28" />
<path d="M170.58 189.2l14.18 0l0 14.52l-14.18 0Z" id="p94w29" />
<path d="M187.96 189.2l37.06 0l0 14.52l-37.06 0Z" id="p94w30" />
<path d="M124.06 214.21l39.31 0l0 14.52l-39.31 0Z" id="p94w31" />
<path d="M166.58 214.21l39.47 0l0 14.52l-39.47 0Z" id="p94w32" />
<path d="M209.25 214.21l13.9 0l0 14.52l-13.9 0Z" id="p94w33" />
<path d="M226.36 214.21l31.55 0l0 14.52l-31.55 0Z" id="p94w34" />
<path d="M261.11 214.21l25.4 0l0 14.52l-25.4 0Z" id="p94w35" />
<path d="M289.71 214.21l15.5 0l0 14.52l-15.5 0Z" id="p94w36" />
<path d="M308.42 214.21l71.37 0l0 14.52l-71.37 0Z" id="p94w37" />
<path d="M124.06 230.88l52.48 0l0 14.52l-52.48 0Z" id="p94w38" />
<path d="M186.16 230.88l18.72 0l0 14.52l-18.72 0Z" id="p94w39" />
<path d="M208.09 230.88l49.18 0l0 14.52l-49.18 0Z" id="p94w40" />
<path d="M268.77 230.88l22.19 0l0 14.52l-22.19 0Z" id="p94w41" />
<path d="M294.16 230.88l22.99 0l0 14.52l-22.99 0Z" id="p94w42" />
<path d="M320.36 230.88l15.5 0l0 14.52l-15.5 0Z" id="p94w43" />
<path d="M339.07 230.88l38.94 0l0 14.52l-38.94 0ZM124.06 247.55l31.27 0l0 14.52l-31.27 0Z" id="p94w44" />
<path d="M166.83 247.55l50.43 0l0 14.52l-50.43 0Z" id="p94w45" />
<path d="M220.47 247.55l30.23 0l0 14.52l-30.23 0Z" id="p94w46" />
<path d="M253.9 247.55l24.33 0l0 14.52l-24.33 0Z" id="p94w47" />
<path d="M281.44 247.55l21.38 0l0 14.52l-21.38 0Z" id="p94w48" />
<path d="M306.03 247.55l58 0l0 14.52l-58 0Z" id="p94w49" />
<path d="M124.06 264.23l31.01 0l0 14.52l-31.01 0Z" id="p94w50" />
<path d="M158.27 264.23l58.8 0l0 14.52l-58.8 0Z" id="p94w51" />
<path d="M220.28 264.23l18.72 0l0 14.52l-18.72 0Z" id="p94w52" />
<path d="M242.21 264.23l15.5 0l0 14.52l-15.5 0Z" id="p94w53" />
<path d="M260.91 264.23l66.55 0l0 14.52l-66.55 0Z" id="p94w54" />
<path d="M634.33 280.9l14.44 0l0 14.52l-14.44 0Z" id="p94w55" />
<path d="M651.98 280.9l23.52 0l0 14.52l-23.52 0Z" id="p94w56" />
<path d="M40.54 140.96l48.07 0l0 12.29l-48.07 0Z" id="p94w57" />
<path d="M62.22 157.64l26.4 0l0 12.29l-26.4 0Z" id="p94w58" />
<path d="M124.06 755.44l20.39 0l0 18.84l-20.39 0Z" id="p94w59" />
<path d="M148.11 755.44l47.23 0l0 18.84l-47.23 0Z" id="p94w60" />
<path d="M198.99 755.44l34.63 0l0 18.84l-34.63 0Z" id="p94w61" />
<path d="M237.27 755.44l13.62 0l0 18.84l-13.62 0Z" id="p94w62" />
<path d="M254.55 755.44l62.91 0l0 18.84l-62.91 0Z" id="p94w63" />
<path d="M321.1 755.44l18.36 0l0 18.84l-18.36 0Z" id="p94w64" />
<path d="M343.11 755.44l13.62 0l0 18.84l-13.62 0Z" id="p94w65" />
<path d="M360.39 755.44l48.77 0l0 18.84l-48.77 0Z" id="p94w66" />
<path d="M124.06 789.43l12.83 0l0 14.52l-12.83 0Z" id="p94w67" />
<path d="M140.1 789.43l47.03 0l0 14.52l-47.03 0Z" id="p94w68" />
<path d="M190.34 789.43l13.9 0l0 14.52l-13.9 0Z" id="p94w69" />
<path d="M207.44 789.43l9.89 0l0 14.52l-9.89 0Z" id="p94w70" />
<path d="M220.54 789.43l36.34 0l0 14.52l-36.34 0Z" id="p94w71" />
<path d="M260.08 789.43l11.22 0l0 14.52l-11.22 0Z" id="p94w72" />
<path d="M274.51 789.43l19.51 0l0 14.52l-19.51 0Z" id="p94w73" />
<path d="M297.23 789.43l40.35 0l0 14.52l-40.35 0Z" id="p94w74" />
<path d="M350.67 789.43l20.05 0l0 14.52l-20.05 0Z" id="p94w75" />
<path d="M373.93 789.43l46.78 0l0 14.52l-46.78 0Z" id="p94w76" />
<path d="M423.91 789.43l28.87 0l0 14.52l-28.87 0Z" id="p94w77" />
<path d="M455.99 789.43l47.52 0l0 14.52l-47.52 0Z" id="p94w78" />
<path d="M506.71 789.43l42.77 0l0 14.52l-42.77 0Z" id="p94w79" />
<path d="M552.69 789.43l26.73 0l0 14.52l-26.73 0Z" id="p94w80" />
<path d="M124.06 806.1l14.18 0l0 14.52l-14.18 0Z" id="p94w81" />
<path d="M141.45 806.1l39.77 0l0 14.52l-39.77 0Z" id="p94w82" />
<path d="M184.43 806.1l46.51 0l0 14.52l-46.51 0Z" id="p94w83" />
<path d="M234.15 806.1l12.83 0l0 14.52l-12.83 0Z" id="p94w84" />
<path d="M250.18 806.1l33.67 0l0 14.52l-33.67 0Z" id="p94w85" />
<path d="M287.06 806.1l13.9 0l0 14.52l-13.9 0Z" id="p94w86" />
<path d="M304.17 806.1l28.87 0l0 14.52l-28.87 0Z" id="p94w87" />
<path d="M336.24 806.1l34.21 0l0 14.52l-34.21 0Z" id="p94w88" />
<path d="M373.66 806.1l18.7 0l0 14.52l-18.7 0Z" id="p94w89" />
<path d="M395.57 806.1l14.18 0l0 14.52l-14.18 0Z" id="p94w90" />
<path d="M412.96 806.1l38.5 0l0 14.52l-38.5 0Z" id="p94w91" />
<path d="M454.67 806.1l11.22 0l0 14.52l-11.22 0Z" id="p94w92" />
<path d="M469.09 806.1l14.18 0l0 14.52l-14.18 0Z" id="p94w93" />
<path d="M486.48 806.1l25.67 0l0 14.52l-25.67 0Z" id="p94w94" />
<path d="M515.36 806.1l52.65 0l0 14.52l-52.65 0Z" id="p94w95" />
<path d="M571.22 806.1l40.8 0l0 14.52l-40.8 0Z" id="p94w96" />
<path d="M124.06 822.77l14.18 0l0 14.52l-14.18 0Z" id="p94w97" />
<path d="M141.45 822.77l34.74 0l0 14.52l-34.74 0Z" id="p94w98" />
<path d="M179.4 822.77l17.11 0l0 14.52l-17.11 0Z" id="p94w99" />
<path d="M199.71 822.77l14.18 0l0 14.52l-14.18 0Z" id="p94w100" />
<path d="M217.09 822.77l62.8 0l0 14.52l-62.8 0Z" id="p94w101" />
<path d="M283.1 822.77l13.91 0l0 14.52l-13.91 0Z" id="p94w102" />
<path d="M300.22 822.77l14.18 0l0 14.52l-14.18 0Z" id="p94w103" />
<path d="M317.61 822.77l20.05 0l0 14.52l-20.05 0Z" id="p94w104" />
<path d="M340.86 822.77l13.9 0l0 14.52l-13.9 0Z" id="p94w105" />
<path d="M357.97 822.77l28.87 0l0 14.52l-28.87 0Z" id="p94w106" />
<path d="M390.04 822.77l38.44 0l0 14.52l-38.44 0Z" id="p94w107" />
<path d="M124.06 847.78l51.42 0l0 14.52l-51.42 0Z" id="p94w108" />
<path d="M178.7 847.78l13.9 0l0 14.52l-13.9 0Z" id="p94w109" />
<path d="M195.8 847.78l44.85 0l0 14.52l-44.85 0Z" id="p94w110" />
<path d="M243.86 847.78l13.9 0l0 14.52l-13.9 0Z" id="p94w111" />
<path d="M260.97 847.78l36.61 0l0 14.52l-36.61 0Z" id="p94w112" />
<path d="M307.21 847.78l39.85 0l0 14.52l-39.85 0Z" id="p94w113" />
<path d="M350.26 847.78l44.11 0l0 14.52l-44.11 0Z" id="p94w114" />
<path d="M397.58 847.78l14.18 0l0 14.52l-14.18 0Z" id="p94w115" />
<path d="M414.96 847.78l20.05 0l0 14.52l-20.05 0Z" id="p94w116" />
<path d="M438.22 847.78l13.91 0l0 14.52l-13.91 0Z" id="p94w117" />
<path d="M455.34 847.78l14.18 0l0 14.52l-14.18 0Z" id="p94w118" />
<path d="M472.72 847.78l62.8 0l0 14.52l-62.8 0Z" id="p94w119" />
<path d="M538.73 847.78l17.38 0l0 14.52l-17.38 0Z" id="p94w120" />
<path d="M559.33 847.78l13.37 0l0 14.52l-13.37 0Z" id="p94w121" />
<path d="M124.06 864.45l32.6 0l0 14.52l-32.6 0Z" id="p94w122" />
<path d="M159.87 864.45l65.2 0l0 14.52l-65.2 0Z" id="p94w123" />
<path d="M227.85 864.45l19.26 0l0 14.52l-19.26 0Z" id="p94w124" />
<path d="M250.32 864.45l29.39 0l0 14.52l-29.39 0Z" id="p94w125" />
<path d="M282.92 864.45l13.9 0l0 14.52l-13.9 0Z" id="p94w126" />
<path d="M300.02 864.45l50.53 0l0 14.52l-50.53 0Z" id="p94w127" />
<path d="M387.17 864.45l9.89 0l0 14.52l-9.89 0Z" id="p94w128" />
<path d="M400.26 864.45l27.73 0l0 14.52l-27.73 0Z" id="p94w129" />
<path d="M447.24 864.45l45.45 0l0 14.52l-45.45 0Z" id="p94w130" />
<path d="M495.89 864.45l25.67 0l0 14.52l-25.67 0Z" id="p94w131" />
<path d="M524.77 864.45l29.69 0l0 14.52l-29.69 0Z" id="p94w132" />
<path d="M124.06 881.12l56.14 0l0 14.52l-56.14 0Z" id="p94w133" />
<path d="M183.41 881.12l40.89 0l0 14.52l-40.89 0Z" id="p94w134" />
<path d="M227.51 881.12l18.72 0l0 14.52l-18.72 0Z" id="p94w135" />
<path d="M249.43 881.12l68.98 0l0 14.52l-68.98 0Z" id="p94w136" />
<path d="M331.51 881.12l31.27 0l0 14.52l-31.27 0Z" id="p94w137" />
<path d="M365.98 881.12l13.9 0l0 14.52l-13.9 0Z" id="p94w138" />
<path d="M383.09 881.12l18.72 0l0 14.52l-18.72 0Z" id="p94w139" />
<path d="M405.01 881.12l63.59 0l0 14.52l-63.59 0Z" id="p94w140" />
<path d="M471.81 881.12l11.22 0l0 14.52l-11.22 0Z" id="p94w141" />
<path d="M486.24 881.12l68.61 0l0 14.52l-68.61 0Z" id="p94w142" />
<path d="M558.06 881.12l46.26 0l0 14.52l-46.26 0Z" id="p94w143" />
<path d="M124.06 897.79l17.11 0l0 14.52l-17.11 0Z" id="p94w144" />
<path d="M144.38 897.79l9.89 0l0 14.52l-9.89 0Z" id="p94w145" />
<path d="M157.47 897.79l26.73 0l0 14.52l-26.73 0Z" id="p94w146" />
<path d="M187.41 897.79l13.9 0l0 14.52l-13.9 0Z" id="p94w147" />
<path d="M204.51 897.79l28.87 0l0 14.52l-28.87 0Z" id="p94w148" />
<path d="M236.59 897.79l37.42 0l0 14.52l-37.42 0Z" id="p94w149" />
<path d="M135.02 922.82l25.13 0l0 14.61l-25.13 0Z" id="p94w150" />
<path d="M163.36 922.82l24 0l0 14.61l-24 0Z" id="p94w151" />
<path d="M190.39 922.82l14.18 0l0 14.61l-14.18 0Z" id="p94w152" />
<path d="M207.77 922.82l38.69 0l0 14.61l-38.69 0Z" id="p94w153" />
<path d="M249.67 922.82l32.8 0l0 14.61l-32.8 0Z" id="p94w154" />
<path d="M285.68 922.82l28.31 0l0 14.61l-28.31 0Z" id="p94w155" />
<path d="M317.2 922.82l30.66 0l0 14.61l-30.66 0Z" id="p94w156" />
<path d="M351.07 922.82l20.84 0l0 14.61l-20.84 0Z" id="p94w157" />
<path d="M375.12 922.82l24.76 0l0 14.61l-24.76 0Z" id="p94w158" />
<path d="M403.09 922.82l14.16 0l0 14.61l-14.16 0Z" id="p94w159" />
<path d="M420.46 922.82l19.51 0l0 14.61l-19.51 0Z" id="p94w160" />
<path d="M443.17 922.82l22.98 0l0 14.61l-22.98 0Z" id="p94w161" />
<path d="M469.36 922.82l33.61 0l0 14.61l-33.61 0Z" id="p94w162" />
<path d="M506.17 922.82l41.6 0l0 14.61l-41.6 0Z" id="p94w163" />
<path d="M550.98 922.82l13.9 0l0 14.61l-13.9 0Z" id="p94w164" />
<path d="M568.09 922.82l9.82 0l0 14.61l-9.82 0Z" id="p94w165" />
<path d="M581.12 922.82l38.48 0l0 14.61l-38.48 0Z" id="p94w166" />
<path d="M151.67 731.16l60.81 0l0 12.56l-60.81 0Z" id="p94w167" />
<path d="M58.71 791.21l27.93 0l0 12.29l-27.93 0Z" id="p94w168" />
<path d="M609.21 113.4l55.48 0l0 12.56l-55.48 0Z" id="p94w169" />
<path d="M442.09 130.56l60.44 0l0 15.37l-60.44 0Z" id="p94w170" />
<path d="M505.91 130.56l17.12 0l0 15.37l-17.12 0Z" id="p94w171" />
<path d="M442.09 151.85l18.18 0l0 14.52l-18.18 0Z" id="p94w172" />
<path d="M463.48 151.85l12.84 0l0 14.52l-12.84 0Z" id="p94w173" />
<path d="M479.53 151.85l83.06 0l0 14.52l-83.06 0Z" id="p94w174" />
<path d="M565.8 151.85l80.2 0l0 14.52l-80.2 0Z" id="p94w175" />
<path d="M649.2 151.85l23.26 0l0 14.52l-23.26 0Z" id="p94w176" />
<path d="M442.09 168.52l10.43 0l0 14.52l-10.43 0Z" id="p94w177" />
<path d="M455.73 168.52l34.74 0l0 14.52l-34.74 0Z" id="p94w178" />
<path d="M493.68 168.52l49.38 0l0 14.52l-49.38 0Z" id="p94w179" />
<path d="M545.9 168.52l22.47 0l0 14.52l-22.47 0Z" id="p94w180" />
<path d="M571.58 168.52l28.34 0l0 14.52l-28.34 0Z" id="p94w181" />
<path d="M610.28 168.52l25.4 0l0 14.52l-25.4 0Z" id="p94w182" />
<path d="M638.88 168.52l19.51 0l0 14.52l-19.51 0Z" id="p94w183" />
<path d="M442.09 185.19l33.62 0l0 14.52l-33.62 0Z" id="p94w184" />
<path d="M478.92 185.19l57.75 0l0 14.52l-57.75 0Z" id="p94w185" />
<path d="M539.87 185.19l42.22 0l0 14.52l-42.22 0Z" id="p94w186" />
<path d="M585.3 185.19l12.57 0l0 14.52l-12.57 0Z" id="p94w187" />
<path d="M601.08 185.19l32.34 0l0 14.52l-32.34 0Z" id="p94w188" />
<path d="M633.42 185.19l21.65 0l0 14.52l-21.65 0Z" id="p94w189" />
<path d="M442.09 201.86l21.92 0l0 14.52l-21.92 0Z" id="p94w190" />
<path d="M467.22 201.86l46.51 0l0 14.52l-46.51 0Z" id="p94w191" />
<path d="M516.95 201.86l14.16 0l0 14.52l-14.16 0Z" id="p94w192" />
<path d="M533.88 201.86l39.31 0l0 14.52l-39.31 0Z" id="p94w193" />
<path d="M576.4 201.86l12.84 0l0 14.52l-12.84 0Z" id="p94w194" />
<path d="M592.45 201.86l34.48 0l0 14.52l-34.48 0Z" id="p94w195" />
<path d="M630.13 201.86l37.95 0l0 14.52l-37.95 0Z" id="p94w196" />
<path d="M442.09 218.53l66.58 0l0 14.52l-66.58 0Z" id="p94w197" />
<path d="M511.88 218.53l12.84 0l0 14.52l-12.84 0Z" id="p94w198" />
<path d="M527.93 218.53l49.72 0l0 14.52l-49.72 0Z" id="p94w199" />
<path d="M442.09 247.56l43.02 0l0 14.52l-43.02 0Z" id="p94w200" />
<path d="M488.32 247.56l80.2 0l0 14.52l-80.2 0Z" id="p94w201" />
<path d="M571.72 247.56l17.91 0l0 14.52l-17.91 0Z" id="p94w202" />
<path d="M131.94 357.78l21 0l0 15.09l-21 0Z" id="p94w203" />
<path d="M156.78 357.78l42.6 0l0 15.09l-42.6 0Z" id="p94w204" />
<path d="M203.22 357.78l15.45 0l0 15.09l-15.45 0Z" id="p94w205" />
<path d="M222.51 357.78l27.32 0l0 15.09l-27.32 0Z" id="p94w206" />
<path d="M253.67 357.78l18.29 0l0 15.09l-18.29 0Z" id="p94w207" />
<path d="M275.8 357.78l17.2 0l0 15.09l-17.2 0Z" id="p94w208" />
<path d="M296.84 357.78l45.91 0l0 15.09l-45.91 0Z" id="p94w209" />
<path d="M346.59 357.78l19.51 0l0 15.09l-19.51 0Z" id="p94w210" />
<path d="M369.94 357.78l38.68 0l0 15.09l-38.68 0Z" id="p94w211" />
<path d="M131.94 373.06l135.82 0l0 15.09l-135.82 0Z" id="p94w212" />
<path d="M275.88 373.06l16.75 0l0 15.09l-16.75 0Z" id="p94w213" />
<path d="M300.76 373.06l17.2 0l0 15.09l-17.2 0Z" id="p94w214" />
<path d="M326.08 373.06l64.29 0l0 15.09l-64.29 0Z" id="p94w215" />
<path d="M398.49 373.06l10.13 0l0 15.09l-10.13 0Z" id="p94w216" />
<path d="M131.94 388.35l49.87 0l0 15.09l-49.87 0Z" id="p94w217" />
<path d="M185.02 388.35l70.4 0l0 15.09l-70.4 0Z" id="p94w218" />
<path d="M157.27 418.07l33.94 0l0 17.34l-33.94 0Z" id="p94w219" />
<path d="M195.21 418.07l20.29 0l0 17.34l-20.29 0Z" id="p94w220" />
<path d="M219.5 418.07l40.81 0l0 17.34l-40.81 0Z" id="p94w221" />
<path d="M264.3 418.07l29.82 0l0 17.34l-29.82 0Z" id="p94w222" />
<path d="M298.11 418.07l21.54 0l0 17.34l-21.54 0Z" id="p94w223" />
<path d="M323.65 418.07l40.74 0l0 17.34l-40.74 0Z" id="p94w224" />
<path d="M393.72 418.07l14.92 0l0 17.34l-14.92 0Z" id="p94w225" />
<path d="M131.94 433.35l49.63 0l0 17.34l-49.63 0Z" id="p94w226" />
<path d="M187.29 433.35l20.43 0l0 17.34l-20.43 0Z" id="p94w227" />
<path d="M213.44 433.35l36.15 0l0 17.34l-36.15 0Z" id="p94w228" />
<path d="M255.31 433.35l15.47 0l0 17.34l-15.47 0Z" id="p94w229" />
<path d="M276.51 433.35l15.69 0l0 17.34l-15.69 0Z" id="p94w230" />
<path d="M297.92 433.35l38.71 0l0 17.34l-38.71 0Z" id="p94w231" />
<path d="M342.35 433.35l43.52 0l0 17.34l-43.52 0Z" id="p94w232" />
<path d="M391.58 433.35l17.02 0l0 17.34l-17.02 0Z" id="p94w233" />
<path d="M131.94 449.47l60.19 0l0 15.09l-60.19 0Z" id="p94w234" />
<path d="M195.34 449.47l39.65 0l0 15.09l-39.65 0Z" id="p94w235" />
<path d="M240.83 448.63l16.01 0l0 17.34l-16.01 0Z" id="p94w236" />
<path d="M273.48 448.63l24.52 0l0 17.34l-24.52 0Z" id="p94w237" />
<path d="M300.92 448.63l17.14 0l0 17.34l-17.14 0Z" id="p94w238" />
<path d="M320.98 448.63l44 0l0 17.34l-44 0Z" id="p94w239" />
<path d="M131.94 463.92l44.39 0l0 17.34l-44.39 0Z" id="p94w240" />
<path d="M202.55 463.92l20.59 0l0 17.34l-20.59 0Z" id="p94w241" />
<path d="M225.63 463.92l30.18 0l0 17.34l-30.18 0Z" id="p94w242" />
<path d="M282.02 463.92l28.15 0l0 17.34l-28.15 0Z" id="p94w243" />
<path d="M312.66 463.92l17.02 0l0 17.34l-17.02 0Z" id="p94w244" />
<path d="M332.17 463.92l76.47 0l0 17.34l-76.47 0ZM131.94 479.2l54.88 0l0 17.34l-54.88 0Z" id="p94w245" />
<path d="M191.27 479.2l50.46 0l0 17.34l-50.46 0Z" id="p94w246" />
<path d="M246.19 479.2l30.3 0l0 17.34l-30.3 0Z" id="p94w247" />
<path d="M280.96 479.2l20.38 0l0 17.34l-20.38 0Z" id="p94w248" />
<path d="M305.8 479.2l16.03 0l0 17.34l-16.03 0Z" id="p94w249" />
<path d="M326.28 479.2l17.02 0l0 17.34l-17.02 0Z" id="p94w250" />
<path d="M347.76 479.2l31.51 0l0 17.34l-31.51 0Z" id="p94w251" />
<path d="M383.73 479.2l24.86 0l0 17.34l-24.86 0Z" id="p94w252" />
<path d="M131.94 494.48l35.37 0l0 17.34l-35.37 0Z" id="p94w253" />
<path d="M172.23 494.48l20.28 0l0 17.34l-20.28 0Z" id="p94w254" />
<path d="M197.43 494.48l31.36 0l0 17.34l-31.36 0Z" id="p94w255" />
<path d="M259.87 494.48l20.59 0l0 17.34l-20.59 0Z" id="p94w256" />
<path d="M285.38 494.48l30.23 0l0 17.34l-30.23 0Z" id="p94w257" />
<path d="M346.68 494.48l61.93 0l0 17.34l-61.93 0Z" id="p94w258" />
<path d="M131.94 509.76l20.38 0l0 17.34l-20.38 0Z" id="p94w259" />
<path d="M155.24 509.76l23.65 0l0 17.34l-23.65 0Z" id="p94w260" />
<path d="M181.8 509.76l89.85 0l0 17.34l-89.85 0Z" id="p94w261" />
<path d="M131.94 540.32l28.87 0l0 17.34l-28.87 0Z" id="p94w262" />
<path d="M163.9 540.32l16.03 0l0 17.34l-16.03 0Z" id="p94w263" />
<path d="M183.02 540.32l17.02 0l0 17.34l-17.02 0Z" id="p94w264" />
<path d="M203.14 540.32l31.51 0l0 17.34l-31.51 0Z" id="p94w265" />
<path d="M237.75 540.32l19.78 0l0 17.34l-19.78 0Z" id="p94w266" />
<path d="M260.62 540.32l10.18 0l0 17.34l-10.18 0Z" id="p94w267" />
<path d="M273.9 540.32l11.37 0l0 17.34l-11.37 0Z" id="p94w268" />
<path d="M288.37 540.32l23.56 0l0 17.34l-23.56 0Z" id="p94w269" />
<path d="M328.74 540.32l33.8 0l0 17.34l-33.8 0Z" id="p94w270" />
<path d="M365.64 540.32l20.3 0l0 17.34l-20.3 0Z" id="p94w271" />
<path d="M389.04 540.32l19.62 0l0 17.34l-19.62 0Z" id="p94w272" />
<path d="M131.94 555.6l51.37 0l0 17.34l-51.37 0Z" id="p94w273" />
<path d="M186.57 555.6l18.35 0l0 17.34l-18.35 0Z" id="p94w274" />
<path d="M208.18 556.44l15.49 0l0 15.09l-15.49 0Z" id="p94w275" />
<path d="M223.66 555.6l68.31 0l0 17.34l-68.31 0Z" id="p94w276" />
<path d="M295.23 555.6l36.74 0l0 17.34l-36.74 0Z" id="p94w277" />
<path d="M335.24 555.6l15.69 0l0 17.34l-15.69 0Z" id="p94w278" />
<path d="M354.19 555.6l38.62 0l0 17.34l-38.62 0Z" id="p94w279" />
<path d="M396.08 555.6l12.56 0l0 17.34l-12.56 0Z" id="p94w280" />
<path d="M131.94 570.88l36.5 0l0 17.34l-36.5 0Z" id="p94w281" />
<path d="M171.07 570.88l18.34 0l0 17.34l-18.34 0Z" id="p94w282" />
<path d="M218.95 570.88l19.84 0l0 17.34l-19.84 0Z" id="p94w283" />
<path d="M241.42 570.88l68.64 0l0 17.34l-68.64 0Z" id="p94w284" />
<path d="M312.7 570.88l16.14 0l0 17.34l-16.14 0Z" id="p94w285" />
<path d="M331.48 570.88l34.09 0l0 17.34l-34.09 0Z" id="p94w286" />
<path d="M368.21 570.88l17.49 0l0 17.34l-17.49 0Z" id="p94w287" />
<path d="M388.33 570.88l20.29 0l0 17.34l-20.29 0Z" id="p94w288" />
<path d="M131.94 586.16l33.53 0l0 17.34l-33.53 0Z" id="p94w289" />
<path d="M169.29 586.16l28.38 0l0 17.34l-28.38 0Z" id="p94w290" />
<path d="M201.48 586.16l29.2 0l0 17.34l-29.2 0Z" id="p94w291" />
<path d="M234.5 586.16l16.03 0l0 17.34l-16.03 0Z" id="p94w292" />
<path d="M254.34 586.16l17.02 0l0 17.34l-17.02 0Z" id="p94w293" />
<path d="M275.17 586.16l34.36 0l0 17.34l-34.36 0Z" id="p94w294" />
<path d="M313.36 586.16l22.41 0l0 17.34l-22.41 0Z" id="p94w295" />
<path d="M339.59 586.16l15.69 0l0 17.34l-15.69 0Z" id="p94w296" />
<path d="M359.1 586.16l49.54 0l0 17.34l-49.54 0ZM131.94 601.44l55.53 0l0 17.34l-55.53 0Z" id="p94w297" />
<path d="M190.39 601.44l21.93 0l0 17.34l-21.93 0Z" id="p94w298" />
<path d="M215.23 601.44l30.69 0l0 17.34l-30.69 0Z" id="p94w299" />
<path d="M248.84 601.44l21.21 0l0 17.34l-21.21 0Z" id="p94w300" />
<path d="M272.96 601.44l22.12 0l0 17.34l-22.12 0Z" id="p94w301" />
<path d="M131.94 616.73l14.46 0l0 17.34l-14.46 0Z" id="p94w302" />
<path d="M151.19 616.73l36.86 0l0 17.34l-36.86 0Z" id="p94w303" />
<path d="M192.84 616.73l11.98 0l0 17.34l-11.98 0Z" id="p94w304" />
<path d="M209.62 616.73l17.02 0l0 17.34l-17.02 0Z" id="p94w305" />
<path d="M231.43 616.73l53.35 0l0 17.34l-53.35 0Z" id="p94w306" />
<path d="M289.57 616.73l60.16 0l0 17.34l-60.16 0Z" id="p94w307" />
<path d="M354.52 616.73l12.47 0l0 17.34l-12.47 0Z" id="p94w308" />
<path d="M371.78 616.73l21.86 0l0 17.34l-21.86 0Z" id="p94w309" />
<path d="M398.44 616.73l10.18 0l0 17.34l-10.18 0Z" id="p94w310" />
<path d="M131.94 632.01l23.87 0l0 17.34l-23.87 0Z" id="p94w311" />
<path d="M158.31 632.01l37.53 0l0 17.34l-37.53 0Z" id="p94w312" />
<path d="M198.34 632.01l17.75 0l0 17.34l-17.75 0Z" id="p94w313" />
<path d="M218.6 632.01l58.48 0l0 17.34l-58.48 0Z" id="p94w314" />
<path d="M279.58 632.01l42.03 0l0 17.34l-42.03 0Z" id="p94w315" />
<path d="M324.11 632.01l20.59 0l0 17.34l-20.59 0Z" id="p94w316" />
<path d="M347.21 632.01l35.9 0l0 17.34l-35.9 0Z" id="p94w317" />
<path d="M385.61 632.01l23.04 0l0 17.34l-23.04 0Z" id="p94w318" />
<path d="M131.94 647.29l15.55 0l0 17.34l-15.55 0Z" id="p94w319" />
<path d="M152.35 647.29l17.02 0l0 17.34l-17.02 0Z" id="p94w320" />
<path d="M174.22 647.29l53.41 0l0 17.34l-53.41 0Z" id="p94w321" />
<path d="M232.49 647.29l33.95 0l0 17.34l-33.95 0Z" id="p94w322" />
<path d="M271.31 647.29l29.86 0l0 17.34l-29.86 0Z" id="p94w323" />
<path d="M306.02 647.29l23.9 0l0 17.34l-23.9 0Z" id="p94w324" />
<path d="M334.78 647.29l38.62 0l0 17.34l-38.62 0Z" id="p94w325" />
<path d="M378.26 647.29l30.34 0l0 17.34l-30.34 0Z" id="p94w326" />
<path d="M131.94 662.57l35.96 0l0 17.34l-35.96 0Z" id="p94w327" />
<path d="M173.84 662.57l30.28 0l0 17.34l-30.28 0Z" id="p94w328" />
<path d="M210.05 662.57l15.69 0l0 17.34l-15.69 0Z" id="p94w329" />
<path d="M231.68 662.57l84.58 0l0 17.34l-84.58 0Z" id="p94w330" />
<path d="M322.2 662.57l12.22 0l0 17.34l-12.22 0Z" id="p94w331" />
<path d="M340.36 662.57l41.72 0l0 17.34l-41.72 0Z" id="p94w332" />
<path d="M388.01 662.57l20.59 0l0 17.34l-20.59 0Z" id="p94w333" />
<path d="M424.37 356.6l26.41 0l0 17.34l-26.41 0Z" id="p94w334" />
<path d="M454.74 356.6l37.6 0l0 17.34l-37.6 0Z" id="p94w335" />
<path d="M496.3 356.6l44.52 0l0 17.34l-44.52 0Z" id="p94w336" />
<path d="M544.78 356.6l33.16 0l0 17.34l-33.16 0Z" id="p94w337" />
<path d="M581.9 356.6l17.14 0l0 17.34l-17.14 0Z" id="p94w338" />
<path d="M603 356.6l69.84 0l0 17.34l-69.84 0Z" id="p94w339" />
<path d="M676.79 356.6l24.26 0l0 17.34l-24.26 0Z" id="p94w340" />
<path d="M424.37 371.88l23.04 0l0 17.34l-23.04 0Z" id="p94w341" />
<path d="M449.7 371.88l16.05 0l0 17.34l-16.05 0Z" id="p94w342" />
<path d="M468.04 371.88l45.7 0l0 17.34l-45.7 0Z" id="p94w343" />
<path d="M516.03 371.88l20.31 0l0 17.34l-20.31 0Z" id="p94w344" />
<path d="M538.63 371.88l15.69 0l0 17.34l-15.69 0Z" id="p94w345" />
<path d="M556.61 372.72l15.49 0l0 15.09l-15.49 0Z" id="p94w346" />
<path d="M572.09 371.88l71.24 0l0 17.34l-71.24 0Z" id="p94w347" />
<path d="M645.62 371.88l18.35 0l0 17.34l-18.35 0Z" id="p94w348" />
<path d="M666.26 371.88l34.83 0l0 17.34l-34.83 0Z" id="p94w349" />
<path d="M424.37 387.16l28.3 0l0 17.34l-28.3 0Z" id="p94w350" />
<path d="M455.32 387.16l21.93 0l0 17.34l-21.93 0Z" id="p94w351" />
<path d="M479.89 387.16l49.25 0l0 17.34l-49.25 0Z" id="p94w352" />
<path d="M531.79 387.16l17.74 0l0 17.34l-17.74 0Z" id="p94w353" />
<path d="M552.17 387.16l30.96 0l0 17.34l-30.96 0Z" id="p94w354" />
<path d="M599.49 387.16l21.59 0l0 17.34l-21.59 0Z" id="p94w355" />
<path d="M623.73 387.16l77.32 0l0 17.34l-77.32 0ZM424.37 402.44l15.05 0l0 17.34l-15.05 0Z" id="p94w356" />
<path d="M442.66 402.44l20.59 0l0 17.34l-20.59 0Z" id="p94w357" />
<path d="M466.49 402.44l31.5 0l0 17.34l-31.5 0Z" id="p94w358" />
<path d="M501.23 402.44l34.09 0l0 17.34l-34.09 0Z" id="p94w359" />
<path d="M538.56 402.44l15.94 0l0 17.34l-15.94 0Z" id="p94w360" />
<path d="M557.74 402.44l49.21 0l0 17.34l-49.21 0Z" id="p94w361" />
<path d="M610.18 402.44l17.74 0l0 17.34l-17.74 0Z" id="p94w362" />
<path d="M631.16 402.44l31.87 0l0 17.34l-31.87 0Z" id="p94w363" />
<path d="M666.27 402.44l34.78 0l0 17.34l-34.78 0ZM424.37 417.73l16.33 0l0 17.34l-16.33 0Z" id="p94w364" />
<path d="M443.62 417.73l40.75 0l0 17.34l-40.75 0Z" id="p94w365" />
<path d="M424.37 433.01l25.37 0l0 17.34l-25.37 0Z" id="p94w366" />
<path d="M452.24 433.01l28.53 0l0 17.34l-28.53 0Z" id="p94w367" />
<path d="M483.26 433.01l28.22 0l0 17.34l-28.22 0Z" id="p94w368" />
<path d="M513.98 433.01l29.84 0l0 17.34l-29.84 0Z" id="p94w369" />
<path d="M546.31 433.01l17.14 0l0 17.34l-17.14 0Z" id="p94w370" />
<path d="M579.66 433.01l21.59 0l0 17.34l-21.59 0Z" id="p94w371" />
<path d="M603.75 433.01l26.37 0l0 17.34l-26.37 0Z" id="p94w372" />
<path d="M632.61 433.01l30.56 0l0 17.34l-30.56 0Z" id="p94w373" />
<path d="M665.67 433.01l35.41 0l0 17.34l-35.41 0Z" id="p94w374" />
<path d="M424.37 448.29l19.84 0l0 17.34l-19.84 0Z" id="p94w375" />
<path d="M446.4 448.29l11.98 0l0 17.34l-11.98 0Z" id="p94w376" />
<path d="M460.56 448.29l54.66 0l0 17.34l-54.66 0Z" id="p94w377" />
<path d="M517.41 448.29l13.93 0l0 17.34l-13.93 0Z" id="p94w378" />
<path d="M533.52 448.29l16.85 0l0 17.34l-16.85 0Z" id="p94w379" />
<path d="M552.56 448.29l53.18 0l0 17.34l-53.18 0Z" id="p94w380" />
<path d="M607.92 448.29l25.96 0l0 17.34l-25.96 0Z" id="p94w381" />
<path d="M636.07 448.29l23.04 0l0 17.34l-23.04 0Z" id="p94w382" />
<path d="M661.3 448.29l20.38 0l0 17.34l-20.38 0Z" id="p94w383" />
<path d="M683.86 448.29l17.14 0l0 17.34l-17.14 0Z" id="p94w384" />
<path d="M442.48 463.57l26.37 0l0 17.34l-26.37 0Z" id="p94w385" />
<path d="M473.08 463.57l55.91 0l0 17.34l-55.91 0Z" id="p94w386" />
<path d="M533.22 463.57l19.84 0l0 17.34l-19.84 0Z" id="p94w387" />
<path d="M557.29 463.57l30.34 0l0 17.34l-30.34 0Z" id="p94w388" />
<path d="M591.86 463.57l15.69 0l0 17.34l-15.69 0Z" id="p94w389" />
<path d="M611.78 463.57l38.62 0l0 17.34l-38.62 0Z" id="p94w390" />
<path d="M654.63 463.57l24.44 0l0 17.34l-24.44 0Z" id="p94w391" />
<path d="M683.3 463.57l17.75 0l0 17.34l-17.75 0ZM424.37 478.85l22.4 0l0 17.34l-22.4 0Z" id="p94w392" />
<path d="M478.29 478.85l27.4 0l0 17.34l-27.4 0Z" id="p94w393" />
<path d="M510.78 478.85l19.28 0l0 17.34l-19.28 0Z" id="p94w394" />
<path d="M535.14 478.85l53.71 0l0 17.34l-53.71 0Z" id="p94w395" />
<path d="M593.94 478.85l22.77 0l0 17.34l-22.77 0Z" id="p94w396" />
<path d="M621.8 478.85l15.69 0l0 17.34l-15.69 0Z" id="p94w397" />
<path d="M642.58 478.85l58.48 0l0 17.34l-58.48 0Z" id="p94w398" />
<path d="M424.37 494.13l34.6 0l0 17.34l-34.6 0Z" id="p94w399" />
<path d="M461.56 494.13l51.79 0l0 17.34l-51.79 0Z" id="p94w400" />
<path d="M515.94 494.13l24.78 0l0 17.34l-24.78 0Z" id="p94w401" />
<path d="M543.31 494.13l58.21 0l0 17.34l-58.21 0Z" id="p94w402" />
<path d="M604.1 494.13l15.69 0l0 17.34l-15.69 0Z" id="p94w403" />
<path d="M622.38 494.13l38.62 0l0 17.34l-38.62 0Z" id="p94w404" />
<path d="M663.59 494.13l12.22 0l0 17.34l-12.22 0Z" id="p94w405" />
<path d="M678.41 494.13l22.65 0l0 17.34l-22.65 0ZM424.37 509.41l20.02 0l0 17.34l-20.02 0Z" id="p94w406" />
<path d="M446.77 509.41l29.05 0l0 17.34l-29.05 0Z" id="p94w407" />
<path d="M478.2 509.41l15.69 0l0 17.34l-15.69 0Z" id="p94w408" />
<path d="M496.27 509.41l36.15 0l0 17.34l-36.15 0Z" id="p94w409" />
<path d="M534.79 509.41l34.03 0l0 17.34l-34.03 0Z" id="p94w410" />
<path d="M571.2 509.41l25.87 0l0 17.34l-25.87 0Z" id="p94w411" />
<path d="M599.45 509.41l16.05 0l0 17.34l-16.05 0Z" id="p94w412" />
<path d="M617.88 509.41l32.57 0l0 17.34l-32.57 0Z" id="p94w413" />
<path d="M652.83 509.41l18.34 0l0 17.34l-18.34 0Z" id="p94w414" />
<path d="M673.54 509.41l27.49 0l0 17.34l-27.49 0Z" id="p94w415" />
<path d="M424.37 524.69l40.97 0l0 17.34l-40.97 0Z" id="p94w416" />
<path d="M448.74 555.25l30.23 0l0 17.34l-30.23 0Z" id="p94w417" />
<path d="M482 555.25l24.58 0l0 17.34l-24.58 0Z" id="p94w418" />
<path d="M509.62 555.25l23.31 0l0 17.34l-23.31 0Z" id="p94w419" />
<path d="M535.96 555.25l21.8 0l0 17.34l-21.8 0Z" id="p94w420" />
<path d="M560.79 555.25l20.76 0l0 17.34l-20.76 0Z" id="p94w421" />
<path d="M584.58 555.25l22.12 0l0 17.34l-22.12 0Z" id="p94w422" />
<path d="M609.73 555.25l10.47 0l0 17.34l-10.47 0Z" id="p94w423" />
<path d="M623.24 555.25l17.02 0l0 17.34l-17.02 0Z" id="p94w424" />
<path d="M643.29 555.25l40.25 0l0 17.34l-40.25 0Z" id="p94w425" />
<path d="M686.58 555.25l14.5 0l0 17.34l-14.5 0ZM424.37 570.54l39.53 0l0 17.34l-39.53 0Z" id="p94w426" />
<path d="M467.85 570.54l31.31 0l0 17.34l-31.31 0Z" id="p94w427" />
<path d="M503.1 570.54l12.56 0l0 17.34l-12.56 0Z" id="p94w428" />
<path d="M519.61 570.54l36.59 0l0 17.34l-36.59 0Z" id="p94w429" />
<path d="M560.14 570.54l59.66 0l0 17.34l-59.66 0Z" id="p94w430" />
<path d="M623.74 570.54l33.35 0l0 17.34l-33.35 0Z" id="p94w431" />
<path d="M661.04 570.54l10.18 0l0 17.34l-10.18 0Z" id="p94w432" />
<path d="M675.16 570.54l25.87 0l0 17.34l-25.87 0Z" id="p94w433" />
<path d="M424.37 585.82l34.71 0l0 17.34l-34.71 0Z" id="p94w434" />
<path d="M463.35 585.82l19.78 0l0 17.34l-19.78 0Z" id="p94w435" />
<path d="M487.4 585.82l10.23 0l0 17.34l-10.23 0Z" id="p94w436" />
<path d="M501.9 585.82l15.08 0l0 17.34l-15.08 0Z" id="p94w437" />
<path d="M521.24 585.82l31.36 0l0 17.34l-31.36 0Z" id="p94w438" />
<path d="M563.74 585.82l23.15 0l0 17.34l-23.15 0Z" id="p94w439" />
<path d="M591.15 585.82l10.18 0l0 17.34l-10.18 0Z" id="p94w440" />
<path d="M605.6 585.82l25.87 0l0 17.34l-25.87 0Z" id="p94w441" />
<path d="M635.73 585.82l48.8 0l0 17.34l-48.8 0Z" id="p94w442" />
<path d="M688.8 585.82l12.22 0l0 17.34l-12.22 0Z" id="p94w443" />
<path d="M424.37 601.1l55.31 0l0 17.34l-55.31 0Z" id="p94w444" />
<path d="M482.36 601.1l19.12 0l0 17.34l-19.12 0Z" id="p94w445" />
<path d="M504.16 601.1l15.47 0l0 17.34l-15.47 0Z" id="p94w446" />
<path d="M522.3 601.1l19.28 0l0 17.34l-19.28 0Z" id="p94w447" />
<path d="M544.25 601.1l36.15 0l0 17.34l-36.15 0Z" id="p94w448" />
<path d="M583.08 601.1l37.71 0l0 17.34l-37.71 0Z" id="p94w449" />
<path d="M623.46 601.1l23.68 0l0 17.34l-23.68 0Z" id="p94w450" />
<path d="M649.82 601.1l51.27 0l0 17.34l-51.27 0Z" id="p94w451" />
<path d="M424.37 616.38l14.91 0l0 17.34l-14.91 0Z" id="p94w452" />
<path d="M442.71 616.38l19.84 0l0 17.34l-19.84 0Z" id="p94w453" />
<path d="M465.99 616.38l30.78 0l0 17.34l-30.78 0Z" id="p94w454" />
<path d="M500.2 616.38l24.44 0l0 17.34l-24.44 0Z" id="p94w455" />
<path d="M528.07 616.38l15.69 0l0 17.34l-15.69 0Z" id="p94w456" />
<path d="M547.2 616.38l45.33 0l0 17.34l-45.33 0Z" id="p94w457" />
<path d="M595.96 616.38l19.63 0l0 17.34l-19.63 0Z" id="p94w458" />
<path d="M619.01 616.38l51.37 0l0 17.34l-51.37 0Z" id="p94w459" />
<path d="M673.81 616.38l27.22 0l0 17.34l-27.22 0Z" id="p94w460" />
<path d="M424.37 631.66l15.69 0l0 17.34l-15.69 0Z" id="p94w461" />
<path d="M443.34 631.66l65.83 0l0 17.34l-65.83 0Z" id="p94w462" />
<path d="M512.45 631.66l13.97 0l0 17.34l-13.97 0Z" id="p94w463" />
<path d="M529.69 631.66l43.81 0l0 17.34l-43.81 0Z" id="p94w464" />
<path d="M576.78 631.66l17.74 0l0 17.34l-17.74 0Z" id="p94w465" />
<path d="M597.8 631.66l37.46 0l0 17.34l-37.46 0Z" id="p94w466" />
<path d="M638.54 631.66l20.2 0l0 17.34l-20.2 0Z" id="p94w467" />
<path d="M662.02 631.66l39.03 0l0 17.34l-39.03 0Z" id="p94w468" />
<path d="M424.37 646.94l12.56 0l0 17.34l-12.56 0Z" id="p94w469" />
<path d="M439.46 646.94l31.65 0l0 17.34l-31.65 0Z" id="p94w470" />
<path d="M473.65 646.94l20.81 0l0 17.34l-20.81 0Z" id="p94w471" />
<path d="M496.99 646.94l31.33 0l0 17.34l-31.33 0Z" id="p94w472" />
<path d="M530.85 646.94l22.41 0l0 17.34l-22.41 0Z" id="p94w473" />
<path d="M555.8 646.94l17.14 0l0 17.34l-17.14 0Z" id="p94w474" />
<path d="M575.47 646.94l33.35 0l0 17.34l-33.35 0Z" id="p94w475" />
<path d="M611.35 646.94l24.44 0l0 17.34l-24.44 0Z" id="p94w476" />
<path d="M638.33 646.94l15.55 0l0 17.34l-15.55 0Z" id="p94w477" />
<path d="M656.41 646.94l19.28 0l0 17.34l-19.28 0Z" id="p94w478" />
<path d="M678.22 646.94l22.85 0l0 17.34l-22.85 0ZM438.84 662.22l27.54 0l0 17.34l-27.54 0Z" id="p94w479" />
<path d="M469.3 662.22l12.47 0l0 17.34l-12.47 0Z" id="p94w480" />
<path d="M484.68 662.22l21 0l0 17.34l-21 0Z" id="p94w481" />
<path d="M508.6 662.22l23.04 0l0 17.34l-23.04 0Z" id="p94w482" />
<path d="M534.56 662.22l26.37 0l0 17.34l-26.37 0Z" id="p94w483" />
<path d="M563.85 662.22l11.37 0l0 17.34l-11.37 0Z" id="p94w484" />
<path d="M578.14 662.22l21.26 0l0 17.34l-21.26 0Z" id="p94w485" />
<path d="M602.32 662.22l26.13 0l0 17.34l-26.13 0Z" id="p94w486" />
<path d="M631.36 662.22l20.31 0l0 17.34l-20.31 0Z" id="p94w487" />
<path d="M654.59 662.22l16.48 0l0 17.34l-16.48 0Z" id="p94w488" />
<path d="M131.94 314.26l52.31 0l0 26.92l-52.31 0Z" id="p94w489" />
<path d="M188.46 314.26l24.99 0l0 26.92l-24.99 0Z" id="p94w490" />
<path d="M217.68 314.26l135.79 0l0 26.92l-135.79 0Z" id="p94w491" />
<path d="M357.69 314.26l65.63 0l0 26.92l-65.63 0Z" id="p94w492" />
<path d="M609.64 699.53l47.09 0l0 10.7l-47.09 0Z" id="p94w493" />
<path d="M659.09 699.53l49.84 0l0 10.7l-49.84 0Z" id="p94w494" />
<path d="M124.06 39.02l42.71 0l0 15.38l-42.71 0Z" id="p94w495" />
<path d="M208.73 38.6l45.75 0l0 16.09l-45.75 0Z" id="p94w496" />
<path d="M306.51 39.02l43.21 0l0 15.38l-43.21 0Z" id="p94w497" />
<path d="M414.03 39.02l28.68 0l0 15.38l-28.68 0Z" id="p94w498" />
<path d="M446.08 39.02l43.54 0l0 15.38l-43.54 0Z" id="p94w499" />
<path d="M522.82 39.02l32.54 0l0 15.38l-32.54 0Z" id="p94w500" />
<path d="M76.9 983l89.18 0l0 12.23l-89.18 0Z" id="p94w501" />
</svg>
