<?xml version="1.0" encoding="UTF-8"?>
<svg xmlns="http://www.w3.org/2000/svg" xmlns:xlink="http://www.w3.org/1999/xlink" version="1.1" baseProfile="full" width="768" height="1024" viewBox="0,0,768,1024" preserveAspectRatio="xMinYMin meet" >
<style type="text/css">
<![CDATA[
path {fill-opacity: 0.5;fill: #00aeef;visibility: hidden;}
]]>
</style>
<path d="M124.06 107.98l62.17 0l0 18.84l-62.17 0Z" id="p101w1" />
<path d="M189.89 107.98l13.62 0l0 18.84l-13.62 0Z" id="p101w2" />
<path d="M207.16 107.98l80.2 0l0 18.84l-80.2 0Z" id="p101w3" />
<path d="M124.06 139.19l51.89 0l0 14.52l-51.89 0Z" id="p101w4" />
<path d="M179.16 139.19l9.89 0l0 14.52l-9.89 0Z" id="p101w5" />
<path d="M192.25 139.19l7.48 0l0 14.52l-7.48 0Z" id="p101w6" />
<path d="M199.73 139.19l14.16 0l0 14.52l-14.16 0Z" id="p101w7" />
<path d="M217.1 139.19l38.77 0l0 14.52l-38.77 0Z" id="p101w8" />
<path d="M259.08 139.19l9.89 0l0 14.52l-9.89 0Z" id="p101w9" />
<path d="M272.17 139.19l39.56 0l0 14.52l-39.56 0Z" id="p101w10" />
<path d="M314.94 139.19l8.45 0l0 14.52l-8.45 0Z" id="p101w11" />
<path d="M325.03 139.19l15.92 0l0 14.52l-15.92 0Z" id="p101w12" />
<path d="M344.16 139.19l11.22 0l0 14.52l-11.22 0Z" id="p101w13" />
<path d="M358.59 139.19l48.13 0l0 14.52l-48.13 0Z" id="p101w14" />
<path d="M409.92 139.19l47.57 0l0 14.52l-47.57 0Z" id="p101w15" />
<path d="M460.7 139.19l17.38 0l0 14.52l-17.38 0Z" id="p101w16" />
<path d="M481.29 139.19l12.29 0l0 14.52l-12.29 0Z" id="p101w17" />
<path d="M496.78 139.19l31.8 0l0 14.52l-31.8 0Z" id="p101w18" />
<path d="M124.06 155.86l26.73 0l0 14.52l-26.73 0Z" id="p101w19" />
<path d="M154 155.86l9.89 0l0 14.52l-9.89 0Z" id="p101w20" />
<path d="M167.09 155.86l21.37 0l0 14.52l-21.37 0Z" id="p101w21" />
<path d="M191.67 155.86l28.88 0l0 14.52l-28.88 0Z" id="p101w22" />
<path d="M223.76 155.86l49.64 0l0 14.52l-49.64 0Z" id="p101w23" />
<path d="M143.75 189.2l40.89 0l0 14.52l-40.89 0Z" id="p101w24" />
<path d="M187.85 189.2l54 0l0 14.52l-54 0Z" id="p101w25" />
<path d="M245.06 189.2l33.05 0l0 14.52l-33.05 0Z" id="p101w26" />
<path d="M281.32 189.2l20.85 0l0 14.52l-20.85 0Z" id="p101w27" />
<path d="M305.38 189.2l25.67 0l0 14.52l-25.67 0Z" id="p101w28" />
<path d="M334.26 189.2l46.78 0l0 14.52l-46.78 0Z" id="p101w29" />
<path d="M143.75 205.87l20.31 0l0 14.52l-20.31 0Z" id="p101w30" />
<path d="M167.28 205.87l23.97 0l0 14.52l-23.97 0Z" id="p101w31" />
<path d="M194.45 205.87l43.82 0l0 14.52l-43.82 0Z" id="p101w32" />
<path d="M241.48 205.87l67.55 0l0 14.52l-67.55 0Z" id="p101w33" />
<path d="M320.53 205.87l54.45 0l0 14.52l-54.45 0Z" id="p101w34" />
<path d="M143.75 230.88l55.36 0l0 14.52l-55.36 0Z" id="p101w35" />
<path d="M202.32 230.88l14.18 0l0 14.52l-14.18 0Z" id="p101w36" />
<path d="M219.7 230.88l73.08 0l0 14.52l-73.08 0Z" id="p101w37" />
<path d="M295.99 230.88l26.73 0l0 14.52l-26.73 0Z" id="p101w38" />
<path d="M143.75 247.55l28.87 0l0 14.52l-28.87 0Z" id="p101w39" />
<path d="M175.83 247.55l36.35 0l0 14.52l-36.35 0Z" id="p101w40" />
<path d="M154.71 264.23l29.42 0l0 14.52l-29.42 0Z" id="p101w41" />
<path d="M187.34 264.23l19.79 0l0 14.52l-19.79 0Z" id="p101w42" />
<path d="M210.33 264.23l13.9 0l0 14.52l-13.9 0Z" id="p101w43" />
<path d="M227.44 264.23l23.52 0l0 14.52l-23.52 0Z" id="p101w44" />
<path d="M254.17 264.23l13.9 0l0 14.52l-13.9 0Z" id="p101w45" />
<path d="M271.27 264.23l34.57 0l0 14.52l-34.57 0Z" id="p101w46" />
<path d="M143.75 280.87l53.21 0l0 14.52l-53.21 0Z" id="p101w47" />
<path d="M200.17 280.87l63.36 0l0 14.52l-63.36 0Z" id="p101w48" />
<path d="M269.41 280.9l29.42 0l0 14.52l-29.42 0Z" id="p101w49" />
<path d="M310.69 280.9l28.87 0l0 14.52l-28.87 0Z" id="p101w50" />
<path d="M143.75 297.57l56.94 0l0 14.52l-56.94 0Z" id="p101w51" />
<path d="M203.47 297.57l19.26 0l0 14.52l-19.26 0Z" id="p101w52" />
<path d="M225.94 297.57l54 0l0 14.52l-54 0Z" id="p101w53" />
<path d="M283.14 297.57l13.9 0l0 14.52l-13.9 0Z" id="p101w54" />
<path d="M157.92 314.24l45.45 0l0 14.52l-45.45 0Z" id="p101w55" />
<path d="M206.57 314.24l25.67 0l0 14.52l-25.67 0Z" id="p101w56" />
<path d="M235.45 314.24l29.69 0l0 14.52l-29.69 0Z" id="p101w57" />
<path d="M143.75 330.91l14.7 0l0 14.52l-14.7 0Z" id="p101w58" />
<path d="M161.67 330.91l25.67 0l0 14.52l-25.67 0Z" id="p101w59" />
<path d="M190.55 330.91l13.9 0l0 14.52l-13.9 0Z" id="p101w60" />
<path d="M207.65 330.91l24.59 0l0 14.52l-24.59 0Z" id="p101w61" />
<path d="M235.45 330.91l47.85 0l0 14.52l-47.85 0Z" id="p101w62" />
<path d="M286.51 330.91l46.73 0l0 14.52l-46.73 0Z" id="p101w63" />
<path d="M143.75 347.58l13.9 0l0 14.52l-13.9 0Z" id="p101w64" />
<path d="M160.86 347.58l60.66 0l0 14.52l-60.66 0Z" id="p101w65" />
<path d="M124.06 380.92l51.53 0l0 14.52l-51.53 0Z" id="p101w66" />
<path d="M178.8 380.92l53.19 0l0 14.52l-53.19 0Z" id="p101w67" />
<path d="M235.2 380.92l44.38 0l0 14.52l-44.38 0Z" id="p101w68" />
<path d="M282.78 380.92l12.29 0l0 14.52l-12.29 0Z" id="p101w69" />
<path d="M298.28 380.92l48.36 0l0 14.52l-48.36 0Z" id="p101w70" />
<path d="M349.85 380.92l9.89 0l0 14.52l-9.89 0Z" id="p101w71" />
<path d="M362.94 380.92l7.48 0l0 14.52l-7.48 0Z" id="p101w72" />
<path d="M370.43 380.92l16.84 0l0 14.52l-16.84 0Z" id="p101w73" />
<path d="M390.48 380.92l22.99 0l0 14.52l-22.99 0Z" id="p101w74" />
<path d="M416.68 380.92l49.11 0l0 14.52l-49.11 0Z" id="p101w75" />
<path d="M469 380.92l9.89 0l0 14.52l-9.89 0Z" id="p101w76" />
<path d="M482.09 380.92l7.48 0l0 14.52l-7.48 0Z" id="p101w77" />
<path d="M124.06 433.1l43.04 0l0 18.84l-43.04 0Z" id="p101w78" />
<path d="M170.75 433.1l13.62 0l0 18.84l-13.62 0Z" id="p101w79" />
<path d="M188.02 433.1l80.2 0l0 18.84l-80.2 0Z" id="p101w80" />
<path d="M143.75 464.31l54.53 0l0 14.52l-54.53 0Z" id="p101w81" />
<path d="M201.49 464.31l33.05 0l0 14.52l-33.05 0Z" id="p101w82" />
<path d="M237.75 464.31l20.85 0l0 14.52l-20.85 0Z" id="p101w83" />
<path d="M261.81 464.31l25.67 0l0 14.52l-25.67 0Z" id="p101w84" />
<path d="M290.69 464.31l41.45 0l0 14.52l-41.45 0Z" id="p101w85" />
<path d="M335.34 464.31l9.89 0l0 14.52l-9.89 0Z" id="p101w86" />
<path d="M348.44 464.31l7.48 0l0 14.52l-7.48 0Z" id="p101w87" />
<path d="M143.75 480.98l31.55 0l0 14.52l-31.55 0Z" id="p101w88" />
<path d="M175.3 480.98l12.57 0l0 14.52l-12.57 0Z" id="p101w89" />
<path d="M191.07 480.98l28.87 0l0 14.52l-28.87 0Z" id="p101w90" />
<path d="M223.15 480.98l47.58 0l0 14.52l-47.58 0Z" id="p101w91" />
<path d="M143.75 505.99l45.45 0l0 14.52l-45.45 0Z" id="p101w92" />
<path d="M192.41 505.99l34.2 0l0 14.52l-34.2 0Z" id="p101w93" />
<path d="M239.7 505.99l9.89 0l0 14.52l-9.89 0Z" id="p101w94" />
<path d="M252.79 505.99l40.63 0l0 14.52l-40.63 0Z" id="p101w95" />
<path d="M296.63 505.99l11.22 0l0 14.52l-11.22 0Z" id="p101w96" />
<path d="M311.05 505.99l12.29 0l0 14.52l-12.29 0Z" id="p101w97" />
<path d="M326.55 505.99l22.17 0l0 14.52l-22.17 0Z" id="p101w98" />
<path d="M351.93 505.99l22.99 0l0 14.52l-22.99 0Z" id="p101w99" />
<path d="M378.13 505.99l13.9 0l0 14.52l-13.9 0Z" id="p101w100" />
<path d="M143.75 522.66l26.99 0l0 14.52l-26.99 0Z" id="p101w101" />
<path d="M183.84 522.66l31.53 0l0 14.52l-31.53 0Z" id="p101w102" />
<path d="M218.58 522.66l26.73 0l0 14.52l-26.73 0Z" id="p101w103" />
<path d="M248.52 522.66l19.79 0l0 14.52l-19.79 0Z" id="p101w104" />
<path d="M271.51 522.66l38.5 0l0 14.52l-38.5 0Z" id="p101w105" />
<path d="M313.22 522.66l35.81 0l0 14.52l-35.81 0Z" id="p101w106" />
<path d="M352.24 522.64l61.23 0l0 14.52l-61.23 0Z" id="p101w107" />
<path d="M143.75 539.33l44.31 0l0 14.52l-44.31 0Z" id="p101w108" />
<path d="M191.27 539.33l19.79 0l0 14.52l-19.79 0Z" id="p101w109" />
<path d="M214.27 539.33l31.01 0l0 14.52l-31.01 0Z" id="p101w110" />
<path d="M124.06 583.16l64.94 0l0 18.84l-64.94 0Z" id="p101w111" />
<path d="M192.65 583.16l13.62 0l0 18.84l-13.62 0Z" id="p101w112" />
<path d="M209.93 583.16l29.53 0l0 18.84l-29.53 0Z" id="p101w113" />
<path d="M124.06 614.36l32.87 0l0 14.52l-32.87 0Z" id="p101w114" />
<path d="M160.14 614.36l24.59 0l0 14.52l-24.59 0Z" id="p101w115" />
<path d="M187.93 614.36l47.53 0l0 14.52l-47.53 0Z" id="p101w116" />
<path d="M238.67 614.36l25.67 0l0 14.52l-25.67 0Z" id="p101w117" />
<path d="M267.55 614.36l39.85 0l0 14.52l-39.85 0Z" id="p101w118" />
<path d="M310.61 614.36l49 0l0 14.52l-49 0Z" id="p101w119" />
<path d="M362.81 614.36l13.9 0l0 14.52l-13.9 0Z" id="p101w120" />
<path d="M379.92 614.36l54.53 0l0 14.52l-54.53 0Z" id="p101w121" />
<path d="M143.75 639.38l46.51 0l0 14.52l-46.51 0Z" id="p101w122" />
<path d="M193.48 639.38l9.89 0l0 14.52l-9.89 0Z" id="p101w123" />
<path d="M206.57 639.38l60.08 0l0 14.52l-60.08 0Z" id="p101w124" />
<path d="M269.86 639.38l14.18 0l0 14.52l-14.18 0Z" id="p101w125" />
<path d="M287.24 639.38l7.48 0l0 14.52l-7.48 0Z" id="p101w126" />
<path d="M294.73 639.38l16.84 0l0 14.52l-16.84 0Z" id="p101w127" />
<path d="M314.78 639.38l40.64 0l0 14.52l-40.64 0Z" id="p101w128" />
<path d="M358.63 639.38l39.24 0l0 14.52l-39.24 0Z" id="p101w129" />
<path d="M401.07 639.38l47.07 0l0 14.52l-47.07 0Z" id="p101w130" />
<path d="M143.75 656.05l23.97 0l0 14.52l-23.97 0Z" id="p101w131" />
<path d="M170.93 656.05l36.61 0l0 14.52l-36.61 0Z" id="p101w132" />
<path d="M210.75 656.05l14.18 0l0 14.52l-14.18 0Z" id="p101w133" />
<path d="M228.14 656.05l7.48 0l0 14.52l-7.48 0Z" id="p101w134" />
<path d="M235.62 656.05l16.84 0l0 14.52l-16.84 0Z" id="p101w135" />
<path d="M143.75 681.06l40.38 0l0 14.52l-40.38 0Z" id="p101w136" />
<path d="M204.71 681.06l9.89 0l0 14.52l-9.89 0Z" id="p101w137" />
<path d="M217.8 681.06l47.58 0l0 14.52l-47.58 0Z" id="p101w138" />
<path d="M143.75 697.73l40.38 0l0 14.52l-40.38 0Z" id="p101w139" />
<path d="M204.99 697.73l15.5 0l0 14.52l-15.5 0Z" id="p101w140" />
<path d="M223.69 697.73l54.79 0l0 14.52l-54.79 0Z" id="p101w141" />
<path d="M281.69 697.73l11.22 0l0 14.52l-11.22 0Z" id="p101w142" />
<path d="M296.11 697.73l15.5 0l0 14.52l-15.5 0Z" id="p101w143" />
<path d="M314.82 697.73l36.27 0l0 14.52l-36.27 0Z" id="p101w144" />
<path d="M354.3 697.73l19.51 0l0 14.52l-19.51 0Z" id="p101w145" />
<path d="M377.01 697.73l40.89 0l0 14.52l-40.89 0Z" id="p101w146" />
<path d="M143.75 714.4l40.38 0l0 14.52l-40.38 0Z" id="p101w147" />
<path d="M204.18 714.4l9.89 0l0 14.52l-9.89 0Z" id="p101w148" />
<path d="M217.28 714.4l31.28 0l0 14.52l-31.28 0Z" id="p101w149" />
<path d="M251.76 714.4l11.22 0l0 14.52l-11.22 0Z" id="p101w150" />
<path d="M266.19 714.4l15.5 0l0 14.52l-15.5 0Z" id="p101w151" />
<path d="M284.9 714.4l30.74 0l0 14.52l-30.74 0Z" id="p101w152" />
<path d="M318.84 714.4l19.51 0l0 14.52l-19.51 0Z" id="p101w153" />
<path d="M341.56 714.4l29.13 0l0 14.52l-29.13 0Z" id="p101w154" />
<path d="M143.75 739.41l41.97 0l0 14.52l-41.97 0Z" id="p101w155" />
<path d="M188.93 739.41l39.24 0l0 14.52l-39.24 0Z" id="p101w156" />
<path d="M231.38 739.41l47.06 0l0 14.52l-47.06 0Z" id="p101w157" />
<path d="M281.65 739.41l24.06 0l0 14.52l-24.06 0Z" id="p101w158" />
<path d="M308.92 739.41l21.12 0l0 14.52l-21.12 0Z" id="p101w159" />
<path d="M333.24 739.41l35.29 0l0 14.52l-35.29 0Z" id="p101w160" />
<path d="M371.75 739.41l9.89 0l0 14.52l-9.89 0Z" id="p101w161" />
<path d="M384.84 739.41l50.26 0l0 14.52l-50.26 0Z" id="p101w162" />
<path d="M143.75 756.08l15.5 0l0 14.52l-15.5 0Z" id="p101w163" />
<path d="M162.46 756.08l36.27 0l0 14.52l-36.27 0Z" id="p101w164" />
<path d="M201.94 756.08l11.22 0l0 14.52l-11.22 0Z" id="p101w165" />
<path d="M216.36 756.08l54.79 0l0 14.52l-54.79 0Z" id="p101w166" />
<path d="M274.36 756.08l11.22 0l0 14.52l-11.22 0Z" id="p101w167" />
<path d="M288.79 756.08l15.5 0l0 14.52l-15.5 0Z" id="p101w168" />
<path d="M307.49 756.08l36.89 0l0 14.52l-36.89 0Z" id="p101w169" />
<path d="M347.59 756.08l26.73 0l0 14.52l-26.73 0Z" id="p101w170" />
<path d="M377.53 756.08l9.89 0l0 14.52l-9.89 0Z" id="p101w171" />
<path d="M390.62 756.08l7.48 0l0 14.52l-7.48 0Z" id="p101w172" />
<path d="M398.11 756.08l16.84 0l0 14.52l-16.84 0Z" id="p101w173" />
<path d="M143.75 781.1l54.79 0l0 14.52l-54.79 0Z" id="p101w174" />
<path d="M201.75 781.1l18.72 0l0 14.52l-18.72 0Z" id="p101w175" />
<path d="M223.68 781.1l48.36 0l0 14.52l-48.36 0Z" id="p101w176" />
<path d="M285.13 781.1l9.89 0l0 14.52l-9.89 0Z" id="p101w177" />
<path d="M298.23 781.1l36.35 0l0 14.52l-36.35 0Z" id="p101w178" />
<path d="M42.32 140.96l40.37 0l0 12.29l-40.37 0Z" id="p101w179" />
<path d="M52.86 156.25l35.52 0l0 12.29l-35.52 0Z" id="p101w180" />
<path d="M60.68 232.66l27.93 0l0 12.29l-27.93 0Z" id="p101w181" />
<path d="M60.68 382.72l27.93 0l0 12.29l-27.93 0Z" id="p101w182" />
<path d="M60.68 466.08l27.93 0l0 12.29l-27.93 0Z" id="p101w183" />
<path d="M62.22 507.76l26.4 0l0 12.29l-26.4 0Z" id="p101w184" />
<path d="M506.69 504.01l31.35 0l0 16.96l-31.35 0Z" id="p101w185" />
<path d="M542.69 504.01l52.25 0l0 16.96l-52.25 0Z" id="p101w186" />
<path d="M506.69 520.68l15.18 0l0 16.96l-15.18 0Z" id="p101w187" />
<path d="M526.52 520.68l70.25 0l0 16.96l-70.25 0Z" id="p101w188" />
<path d="M601.41 520.68l22.27 0l0 16.96l-22.27 0Z" id="p101w189" />
<path d="M628.32 520.68l56.72 0l0 16.96l-56.72 0Z" id="p101w190" />
<path d="M506.69 537.35l72 0l0 16.96l-72 0Z" id="p101w191" />
<path d="M583.34 537.35l20.29 0l0 16.96l-20.29 0Z" id="p101w192" />
<path d="M608.27 537.35l34.5 0l0 16.96l-34.5 0Z" id="p101w193" />
<path d="M647.42 537.35l47.32 0l0 16.96l-47.32 0Z" id="p101w194" />
<path d="M506.69 554.03l87.23 0l0 16.96l-87.23 0Z" id="p101w195" />
<path d="M42.55 616.14l40.37 0l0 12.29l-40.37 0Z" id="p101w196" />
<path d="M53.09 631.42l35.52 0l0 12.29l-35.52 0Z" id="p101w197" />
<path d="M614.1 621.15l55.48 0l0 12.56l-55.48 0Z" id="p101w198" />
<path d="M542.36 646.28l110.4 0l0 15.37l-110.4 0Z" id="p101w199" />
<path d="M656.14 646.28l17.12 0l0 15.37l-17.12 0Z" id="p101w200" />
<path d="M542.36 667.57l28.87 0l0 14.52l-28.87 0Z" id="p101w201" />
<path d="M574.44 667.57l103.28 0l0 14.52l-103.28 0Z" id="p101w202" />
<path d="M542.36 684.24l41.96 0l0 14.52l-41.96 0Z" id="p101w203" />
<path d="M587.53 684.24l39.29 0l0 14.52l-39.29 0Z" id="p101w204" />
<path d="M630.03 684.24l28.07 0l0 14.52l-28.07 0Z" id="p101w205" />
<path d="M661.32 684.24l18.72 0l0 14.52l-18.72 0Z" id="p101w206" />
<path d="M542.36 700.91l31.82 0l0 14.52l-31.82 0Z" id="p101w207" />
<path d="M577.39 700.91l44.92 0l0 14.52l-44.92 0Z" id="p101w208" />
<path d="M625.52 700.91l45.45 0l0 14.52l-45.45 0Z" id="p101w209" />
<path d="M542.36 717.58l26.74 0l0 14.52l-26.74 0Z" id="p101w210" />
<path d="M572.31 717.58l31.82 0l0 14.52l-31.82 0Z" id="p101w211" />
<path d="M607.34 717.58l21.4 0l0 14.52l-21.4 0Z" id="p101w212" />
<path d="M631.95 717.58l21.4 0l0 14.52l-21.4 0Z" id="p101w213" />
<path d="M656.19 717.58l19.53 0l0 14.52l-19.53 0Z" id="p101w214" />
<path d="M542.36 734.26l57.72 0l0 14.52l-57.72 0Z" id="p101w215" />
<path d="M542.36 759.27l43.02 0l0 14.52l-43.02 0Z" id="p101w216" />
<path d="M588.59 759.27l80.2 0l0 14.52l-80.2 0Z" id="p101w217" />
<path d="M671.99 759.27l17.91 0l0 14.52l-17.91 0Z" id="p101w218" />
<path d="M542.36 775.94l28.06 0l0 14.52l-28.06 0Z" id="p101w219" />
<path d="M68.27 39.02l42.71 0l0 15.38l-42.71 0Z" id="p101w220" />
<path d="M152.25 39.02l43.21 0l0 15.38l-43.21 0Z" id="p101w221" />
<path d="M250.71 39.02l43.21 0l0 15.38l-43.21 0Z" id="p101w222" />
<path d="M358.81 38.6l29.22 0l0 16.09l-29.22 0Z" id="p101w223" />
<path d="M391.4 38.6l44.68 0l0 16.09l-44.68 0Z" id="p101w224" />
<path d="M467.72 39.02l32.54 0l0 15.38l-32.54 0Z" id="p101w225" />
<path d="M592.32 983l98.78 0l0 12.23l-98.78 0Z" id="p101w226" />
</svg>
