<?xml version="1.0" encoding="UTF-8"?>
<svg xmlns="http://www.w3.org/2000/svg" xmlns:xlink="http://www.w3.org/1999/xlink" version="1.1" baseProfile="full" width="768" height="1024" viewBox="0,0,768,1024" preserveAspectRatio="xMinYMin meet" >
<style type="text/css">
<![CDATA[
path {fill-opacity: 0.5;fill: #00aeef;visibility: hidden;}
]]>
</style>
<path d="M124.06 107.98l18.36 0l0 18.84l-18.36 0Z" id="p150w1" />
<path d="M146.07 107.98l56.09 0l0 18.84l-56.09 0Z" id="p150w2" />
<path d="M124.06 138.9l17.38 0l0 15.09l-17.38 0Z" id="p150w3" />
<path d="M145.05 138.9l44.35 0l0 15.09l-44.35 0Z" id="p150w4" />
<path d="M193.01 138.9l10.42 0l0 15.09l-10.42 0Z" id="p150w5" />
<path d="M207.05 138.9l50.62 0l0 15.09l-50.62 0Z" id="p150w6" />
<path d="M261.28 138.9l27.82 0l0 15.09l-27.82 0Z" id="p150w7" />
<path d="M292.72 138.9l20.54 0l0 15.09l-20.54 0Z" id="p150w8" />
<path d="M316.87 138.9l53.21 0l0 15.09l-53.21 0Z" id="p150w9" />
<path d="M373.69 138.9l27.81 0l0 15.09l-27.81 0Z" id="p150w10" />
<path d="M405.11 138.9l7.84 0l0 15.09l-7.84 0Z" id="p150w11" />
<path d="M416.56 138.9l14.59 0l0 15.09l-14.59 0Z" id="p150w12" />
<path d="M434.76 138.9l23.44 0l0 15.09l-23.44 0Z" id="p150w13" />
<path d="M461.81 138.9l19.46 0l0 15.09l-19.46 0Z" id="p150w14" />
<path d="M484.88 138.9l23.17 0l0 15.09l-23.17 0Z" id="p150w15" />
<path d="M511.66 138.9l24.62 0l0 15.09l-24.62 0Z" id="p150w16" />
<path d="M539.9 138.9l42.04 0l0 15.09l-42.04 0Z" id="p150w17" />
<path d="M124.06 155.57l15.89 0l0 15.09l-15.89 0Z" id="p150w18" />
<path d="M143.56 155.57l30.47 0l0 15.09l-30.47 0Z" id="p150w19" />
<path d="M177.64 155.57l11.26 0l0 15.09l-11.26 0Z" id="p150w20" />
<path d="M192.51 155.57l15.89 0l0 15.09l-15.89 0Z" id="p150w21" />
<path d="M212.01 155.57l46.54 0l0 15.09l-46.54 0Z" id="p150w22" />
<path d="M262.16 155.57l28.84 0l0 15.09l-28.84 0Z" id="p150w23" />
<path d="M294.61 155.57l36.24 0l0 15.09l-36.24 0Z" id="p150w24" />
<path d="M334.46 155.57l8.21 0l0 15.09l-8.21 0Z" id="p150w25" />
<path d="M342.67 155.57l28.6 0l0 15.09l-28.6 0Z" id="p150w26" />
<path d="M374.88 155.57l60.64 0l0 15.09l-60.64 0Z" id="p150w27" />
<path d="M438.15 355.32l12.99 0l0 15.09l-12.99 0Z" id="p150w28" />
<path d="M454.76 355.32l37.59 0l0 15.09l-37.59 0Z" id="p150w29" />
<path d="M495.96 355.32l13.91 0l0 15.09l-13.91 0Z" id="p150w30" />
<path d="M513.48 355.32l30.43 0l0 15.09l-30.43 0Z" id="p150w31" />
<path d="M547.52 355.32l28.22 0l0 15.09l-28.22 0Z" id="p150w32" />
<path d="M579.36 355.32l19.46 0l0 15.09l-19.46 0Z" id="p150w33" />
<path d="M602.43 355.32l43.85 0l0 15.09l-43.85 0Z" id="p150w34" />
<path d="M438.15 371.99l15.89 0l0 15.09l-15.89 0Z" id="p150w35" />
<path d="M457.65 371.99l42.98 0l0 15.09l-42.98 0Z" id="p150w36" />
<path d="M504.24 371.99l33.81 0l0 15.09l-33.81 0Z" id="p150w37" />
<path d="M541.66 371.99l19.63 0l0 15.09l-19.63 0Z" id="p150w38" />
<path d="M564.9 371.99l14.59 0l0 15.09l-14.59 0Z" id="p150w39" />
<path d="M583.1 371.99l39.03 0l0 15.09l-39.03 0Z" id="p150w40" />
<path d="M438.15 388.66l14.86 0l0 15.09l-14.86 0Z" id="p150w41" />
<path d="M456.62 388.66l14.59 0l0 15.09l-14.59 0Z" id="p150w42" />
<path d="M474.82 388.66l65.74 0l0 15.09l-65.74 0Z" id="p150w43" />
<path d="M544.17 388.66l17.38 0l0 15.09l-17.38 0Z" id="p150w44" />
<path d="M575.47 388.66l38.17 0l0 15.09l-38.17 0Z" id="p150w45" />
<path d="M617.25 388.66l19.29 0l0 15.09l-19.29 0Z" id="p150w46" />
<path d="M640.15 388.66l24.79 0l0 15.09l-24.79 0Z" id="p150w47" />
<path d="M438.15 405.33l58.63 0l0 15.09l-58.63 0Z" id="p150w48" />
<path d="M500.4 405.33l13.91 0l0 15.09l-13.91 0Z" id="p150w49" />
<path d="M517.91 405.33l34.31 0l0 15.09l-34.31 0Z" id="p150w50" />
<path d="M481.08 480.12l11.58 0l0 17.14l-11.58 0Z" id="p150w51" />
<path d="M497.34 480.76l45.73 0l0 18.48l-45.73 0Z" id="p150w52" />
<path d="M547.75 482.74l21.71 0l0 17.54l-21.71 0Z" id="p150w53" />
<path d="M584.03 484.16l34.29 0l0 18.03l-34.29 0Z" id="p150w54" />
<path d="M623 485.69l15.98 0l0 17.31l-15.98 0Z" id="p150w55" />
<path d="M643.66 486.51l21.56 0l0 17.53l-21.56 0Z" id="p150w56" />
<path d="M508.49 504.9l13.3 0l0 15.62l-13.3 0Z" id="p150w57" />
<path d="M526 505.58l34.29 0l0 16.45l-34.29 0Z" id="p150w58" />
<path d="M597.54 508.39l15.36 0l0 15.7l-15.36 0Z" id="p150w59" />
<path d="M617.1 509.16l13.3 0l0 15.62l-13.3 0Z" id="p150w60" />
<path d="M634.6 509.85l18.41 0l0 15.82l-18.41 0Z" id="p150w61" />
<path d="M474.51 520.24l28.46 0l0 16.22l-28.46 0Z" id="p150w62" />
<path d="M533.15 522.55l11.67 0l0 15.56l-11.67 0Z" id="p150w63" />
<path d="M549.02 523.17l13.3 0l0 15.62l-13.3 0Z" id="p150w64" />
<path d="M566.53 523.86l36.23 0l0 16.52l-36.23 0Z" id="p150w65" />
<path d="M606.95 525.45l40.44 0l0 16.69l-40.44 0Z" id="p150w66" />
<path d="M484.54 537.32l28.57 0l0 16.22l-28.57 0Z" id="p150w67" />
<path d="M517.32 538.61l10.66 0l0 15.52l-10.66 0Z" id="p150w68" />
<path d="M542.86 539.61l37.54 0l0 16.57l-37.54 0Z" id="p150w69" />
<path d="M584.6 541.25l39.46 0l0 16.65l-39.46 0Z" id="p150w70" />
<path d="M499.45 554.59l13.3 0l0 15.62l-13.3 0Z" id="p150w71" />
<path d="M516.96 555.27l15.28 0l0 15.7l-15.28 0Z" id="p150w72" />
<path d="M546.66 556.44l16.91 0l0 15.76l-16.91 0Z" id="p150w73" />
<path d="M567.77 557.27l36.69 0l0 16.54l-36.69 0Z" id="p150w74" />
<path d="M608.66 558.88l13.3 0l0 15.62l-13.3 0Z" id="p150w75" />
<path d="M626.17 559.56l30.54 0l0 16.3l-30.54 0Z" id="p150w76" />
<path d="M472.55 570.21l38.9 0l0 16.63l-38.9 0Z" id="p150w77" />
<path d="M559.2 573.62l13.3 0l0 15.62l-13.3 0Z" id="p150w78" />
<path d="M576.7 574.3l38.4 0l0 16.61l-38.4 0Z" id="p150w79" />
<path d="M494.73 587.76l11.67 0l0 15.56l-11.67 0Z" id="p150w80" />
<path d="M510.6 588.39l13.3 0l0 15.62l-13.3 0Z" id="p150w81" />
<path d="M528.11 589.08l30.54 0l0 16.3l-30.54 0Z" id="p150w82" />
<path d="M562.84 590.44l13.98 0l0 15.65l-13.98 0Z" id="p150w83" />
<path d="M581.03 591.16l35.46 0l0 16.49l-35.46 0Z" id="p150w84" />
<path d="M471.24 603.52l69.01 0l0 17.81l-69.01 0Z" id="p150w85" />
<path d="M470.26 628.51l28.21 0l0 16.21l-28.21 0Z" id="p150w86" />
<path d="M502.67 629.79l21.7 0l0 15.95l-21.7 0Z" id="p150w87" />
<path d="M528.57 630.81l24.72 0l0 16.07l-24.72 0Z" id="p150w88" />
<path d="M557.5 631.94l25.08 0l0 16.09l-25.08 0Z" id="p150w89" />
<path d="M586.77 633.09l24.32 0l0 16.06l-24.32 0Z" id="p150w90" />
<path d="M615.3 634.21l15.28 0l0 15.7l-15.28 0Z" id="p150w91" />
<path d="M469.6 645.17l66.03 0l0 17.69l-66.03 0Z" id="p150w92" />
<path d="M539.84 647.93l23.53 0l0 16.02l-23.53 0Z" id="p150w93" />
<path d="M567.56 649.02l9.9 0l0 15.49l-9.9 0Z" id="p150w94" />
<path d="M581.66 649.57l38.4 0l0 16.61l-38.4 0Z" id="p150w95" />
<path d="M624.26 651.25l10.66 0l0 15.52l-10.66 0Z" id="p150w96" />
<path d="M468.95 661.83l9.9 0l0 15.49l-9.9 0Z" id="p150w97" />
<path d="M483.05 662.38l30.54 0l0 16.3l-30.54 0Z" id="p150w98" />
<path d="M517.79 663.75l13.98 0l0 15.65l-13.98 0Z" id="p150w99" />
<path d="M535.97 664.46l38.61 0l0 16.62l-38.61 0Z" id="p150w100" />
<path d="M468.3 678.48l56.3 0l0 17.31l-56.3 0Z" id="p150w101" />
<path d="M528.79 680.86l9.82 0l0 15.49l-9.82 0Z" id="p150w102" />
<path d="M542.82 681.41l24.72 0l0 16.07l-24.72 0Z" id="p150w103" />
<path d="M571.74 682.55l10.66 0l0 15.52l-10.66 0Z" id="p150w104" />
<path d="M586.6 683.13l36.43 0l0 16.53l-36.43 0Z" id="p150w105" />
<path d="M467.64 695.14l43.38 0l0 16.8l-43.38 0Z" id="p150w106" />
<path d="M532.98 697.71l50.85 0l0 17.1l-50.85 0Z" id="p150w107" />
<path d="M466.99 711.79l44.53 0l0 16.85l-44.53 0Z" id="p150w108" />
<path d="M515.72 713.71l9.9 0l0 15.49l-9.9 0Z" id="p150w109" />
<path d="M529.82 714.26l38.4 0l0 16.61l-38.4 0Z" id="p150w110" />
<path d="M572.42 715.94l42.18 0l0 16.76l-42.18 0Z" id="p150w111" />
<path d="M618.81 717.76l10.66 0l0 15.52l-10.66 0Z" id="p150w112" />
<path d="M466.33 728.45l51.92 0l0 17.14l-51.92 0Z" id="p150w113" />
<path d="M522.45 730.66l18.85 0l0 15.84l-18.85 0Z" id="p150w114" />
<path d="M545.5 731.56l9.9 0l0 15.49l-9.9 0Z" id="p150w115" />
<path d="M559.6 732.12l33.7 0l0 16.42l-33.7 0Z" id="p150w116" />
<path d="M597.5 733.61l40.59 0l0 16.69l-40.59 0Z" id="p150w117" />
<path d="M465.68 745.11l9.82 0l0 15.49l-9.82 0Z" id="p150w118" />
<path d="M479.7 745.66l24.72 0l0 16.07l-24.72 0Z" id="p150w119" />
<path d="M508.62 746.79l13.98 0l0 15.65l-13.98 0Z" id="p150w120" />
<path d="M526.81 747.51l57.99 0l0 17.38l-57.99 0Z" id="p150w121" />
<path d="M589 749.95l13.3 0l0 15.62l-13.3 0Z" id="p150w122" />
<path d="M465.02 761.76l23.99 0l0 16.04l-23.99 0Z" id="p150w123" />
<path d="M493.21 762.87l29.06 0l0 16.24l-29.06 0Z" id="p150w124" />
<path d="M526.47 764.18l15.28 0l0 15.7l-15.28 0Z" id="p150w125" />
<path d="M545.95 764.94l42.35 0l0 16.76l-42.35 0Z" id="p150w126" />
<path d="M592.51 766.77l25.89 0l0 16.12l-25.89 0Z" id="p150w127" />
<path d="M464.37 778.42l47.69 0l0 16.97l-47.69 0Z" id="p150w128" />
<path d="M516.26 780.46l48.1 0l0 16.99l-48.1 0Z" id="p150w129" />
<path d="M571.81 807.67l22.2 0l0 15.97l-22.2 0Z" id="p150w130" />
<path d="M598.22 808.71l40.89 0l0 16.71l-40.89 0Z" id="p150w131" />
<path d="M135.88 356.95l17.38 0l0 15.09l-17.38 0Z" id="p150w132" />
<path d="M156.86 356.95l14.59 0l0 15.09l-14.59 0Z" id="p150w133" />
<path d="M175.06 356.95l26.56 0l0 15.09l-26.56 0Z" id="p150w134" />
<path d="M205.24 356.95l19.46 0l0 15.09l-19.46 0Z" id="p150w135" />
<path d="M228.31 356.95l53.19 0l0 15.09l-53.19 0Z" id="p150w136" />
<path d="M285.11 356.95l10.42 0l0 15.09l-10.42 0Z" id="p150w137" />
<path d="M299.15 356.95l52.69 0l0 15.09l-52.69 0Z" id="p150w138" />
<path d="M355.45 356.95l25.28 0l0 15.09l-25.28 0Z" id="p150w139" />
<path d="M135.88 373.62l17.34 0l0 15.09l-17.34 0Z" id="p150w140" />
<path d="M156.83 373.62l52.81 0l0 15.09l-52.81 0Z" id="p150w141" />
<path d="M223.35 373.62l30.47 0l0 15.09l-30.47 0Z" id="p150w142" />
<path d="M135.88 390.29l18.46 0l0 15.09l-18.46 0Z" id="p150w143" />
<path d="M157.94 390.29l37 0l0 15.09l-37 0Z" id="p150w144" />
<path d="M198.56 390.29l52.71 0l0 15.09l-52.71 0Z" id="p150w145" />
<path d="M254.87 390.29l19.29 0l0 15.09l-19.29 0Z" id="p150w146" />
<path d="M277.78 390.29l30.47 0l0 15.09l-30.47 0Z" id="p150w147" />
<path d="M311.86 390.29l31.23 0l0 15.09l-31.23 0Z" id="p150w148" />
<path d="M346.7 390.29l31.37 0l0 15.09l-31.37 0Z" id="p150w149" />
<path d="M135.88 406.96l14.59 0l0 15.09l-14.59 0Z" id="p150w150" />
<path d="M154.08 406.96l44.96 0l0 15.09l-44.96 0Z" id="p150w151" />
<path d="M202.64 406.96l14.59 0l0 15.09l-14.59 0Z" id="p150w152" />
<path d="M220.84 406.96l73.29 0l0 15.09l-73.29 0Z" id="p150w153" />
<path d="M297.75 406.96l14.59 0l0 15.09l-14.59 0Z" id="p150w154" />
<path d="M315.95 406.96l37.89 0l0 15.09l-37.89 0Z" id="p150w155" />
<path d="M135.88 423.63l14.86 0l0 15.09l-14.86 0Z" id="p150w156" />
<path d="M154.35 423.63l14.59 0l0 15.09l-14.59 0Z" id="p150w157" />
<path d="M172.54 423.63l60.44 0l0 15.09l-60.44 0Z" id="p150w158" />
<path d="M236.6 423.63l25.69 0l0 15.09l-25.69 0Z" id="p150w159" />
<path d="M265.9 423.63l22.31 0l0 15.09l-22.31 0Z" id="p150w160" />
<path d="M291.82 423.63l37.13 0l0 15.09l-37.13 0Z" id="p150w161" />
<path d="M332.56 423.63l35.82 0l0 15.09l-35.82 0Z" id="p150w162" />
<path d="M135.88 440.3l11.26 0l0 15.09l-11.26 0Z" id="p150w163" />
<path d="M160.85 440.3l30.81 0l0 15.09l-30.81 0Z" id="p150w164" />
<path d="M195.27 440.3l34.33 0l0 15.09l-34.33 0Z" id="p150w165" />
<path d="M233.2 440.3l15.06 0l0 15.09l-15.06 0Z" id="p150w166" />
<path d="M251.88 440.3l24.21 0l0 15.09l-24.21 0Z" id="p150w167" />
<path d="M279.7 440.3l11.26 0l0 15.09l-11.26 0Z" id="p150w168" />
<path d="M294.57 440.3l13.91 0l0 15.09l-13.91 0Z" id="p150w169" />
<path d="M312.09 440.3l10.42 0l0 15.09l-10.42 0Z" id="p150w170" />
<path d="M326.12 440.3l27.5 0l0 15.09l-27.5 0Z" id="p150w171" />
<path d="M135.88 647.1l44.36 0l0 15.09l-44.36 0Z" id="p150w172" />
<path d="M183.85 647.1l22.31 0l0 15.09l-22.31 0Z" id="p150w173" />
<path d="M209.78 647.1l49.44 0l0 15.09l-49.44 0Z" id="p150w174" />
<path d="M262.83 647.1l15.89 0l0 15.09l-15.89 0Z" id="p150w175" />
<path d="M282.33 647.1l30.47 0l0 15.09l-30.47 0Z" id="p150w176" />
<path d="M316.41 647.1l25.23 0l0 15.09l-25.23 0Z" id="p150w177" />
<path d="M345.25 647.1l26.54 0l0 15.09l-26.54 0Z" id="p150w178" />
<path d="M135.88 663.77l14.21 0l0 15.09l-14.21 0Z" id="p150w179" />
<path d="M175.29 663.77l32.45 0l0 15.09l-32.45 0Z" id="p150w180" />
<path d="M211.35 663.77l48.71 0l0 15.09l-48.71 0Z" id="p150w181" />
<path d="M263.67 663.77l15.74 0l0 15.09l-15.74 0Z" id="p150w182" />
<path d="M283.02 663.77l30.61 0l0 15.09l-30.61 0Z" id="p150w183" />
<path d="M317.25 663.77l22.03 0l0 15.09l-22.03 0Z" id="p150w184" />
<path d="M342.89 663.77l31.46 0l0 15.09l-31.46 0Z" id="p150w185" />
<path d="M135.88 680.44l46.28 0l0 15.09l-46.28 0Z" id="p150w186" />
<path d="M185.77 680.44l15.89 0l0 15.09l-15.89 0Z" id="p150w187" />
<path d="M205.27 680.44l8.01 0l0 15.09l-8.01 0Z" id="p150w188" />
<path d="M213.28 680.44l32.91 0l0 15.09l-32.91 0Z" id="p150w189" />
<path d="M249.8 680.44l40.93 0l0 15.09l-40.93 0Z" id="p150w190" />
<path d="M294.35 680.44l32.9 0l0 15.09l-32.9 0Z" id="p150w191" />
<path d="M330.86 680.44l15.89 0l0 15.09l-15.89 0Z" id="p150w192" />
<path d="M135.88 697.11l55.15 0l0 15.09l-55.15 0Z" id="p150w193" />
<path d="M194.64 697.11l14.59 0l0 15.09l-14.59 0Z" id="p150w194" />
<path d="M212.84 697.11l58.78 0l0 15.09l-58.78 0Z" id="p150w195" />
<path d="M275.24 697.11l24.62 0l0 15.09l-24.62 0Z" id="p150w196" />
<path d="M303.47 697.11l40.28 0l0 15.09l-40.28 0Z" id="p150w197" />
<path d="M347.36 697.11l13.91 0l0 15.09l-13.91 0Z" id="p150w198" />
<path d="M135.88 713.78l49.93 0l0 15.09l-49.93 0Z" id="p150w199" />
<path d="M189.42 713.78l11.26 0l0 15.09l-11.26 0Z" id="p150w200" />
<path d="M204.29 713.78l19.84 0l0 15.09l-19.84 0Z" id="p150w201" />
<path d="M227.75 713.78l64.53 0l0 15.09l-64.53 0Z" id="p150w202" />
<path d="M305.99 713.78l54.39 0l0 15.09l-54.39 0Z" id="p150w203" />
<path d="M135.88 730.45l19.29 0l0 15.09l-19.29 0Z" id="p150w204" />
<path d="M158.78 730.45l50.73 0l0 15.09l-50.73 0Z" id="p150w205" />
<path d="M213.12 730.45l13.91 0l0 15.09l-13.91 0Z" id="p150w206" />
<path d="M230.64 730.45l28.6 0l0 15.09l-28.6 0Z" id="p150w207" />
<path d="M262.85 730.45l14.59 0l0 15.09l-14.59 0Z" id="p150w208" />
<path d="M281.04 730.45l35.65 0l0 15.09l-35.65 0Z" id="p150w209" />
<path d="M320.31 730.45l13.91 0l0 15.09l-13.91 0Z" id="p150w210" />
<path d="M337.82 730.45l44.54 0l0 15.09l-44.54 0Z" id="p150w211" />
<path d="M135.88 747.12l11.26 0l0 15.09l-11.26 0Z" id="p150w212" />
<path d="M160.85 747.12l15.89 0l0 15.09l-15.89 0Z" id="p150w213" />
<path d="M180.35 747.12l28.94 0l0 15.09l-28.94 0Z" id="p150w214" />
<path d="M135.88 763.78l27.3 0l0 15.09l-27.3 0Z" id="p150w215" />
<path d="M166.79 763.78l10.42 0l0 15.09l-10.42 0Z" id="p150w216" />
<path d="M180.82 763.78l34.01 0l0 15.09l-34.01 0Z" id="p150w217" />
<path d="M218.44 763.78l48.62 0l0 15.09l-48.62 0Z" id="p150w218" />
<path d="M270.67 763.78l32.52 0l0 15.09l-32.52 0Z" id="p150w219" />
<path d="M306.8 763.78l21.67 0l0 15.09l-21.67 0Z" id="p150w220" />
<path d="M332.08 763.78l26.91 0l0 15.09l-26.91 0Z" id="p150w221" />
<path d="M362.6 763.78l31.4 0l0 15.09l-31.4 0Z" id="p150w222" />
<path d="M135.88 780.45l33.25 0l0 15.09l-33.25 0Z" id="p150w223" />
<path d="M172.74 780.45l49.87 0l0 15.09l-49.87 0Z" id="p150w224" />
<path d="M226.22 780.45l36.95 0l0 15.09l-36.95 0Z" id="p150w225" />
<path d="M266.78 780.45l15.15 0l0 15.09l-15.15 0Z" id="p150w226" />
<path d="M285.54 780.45l16.64 0l0 15.09l-16.64 0Z" id="p150w227" />
<path d="M305.8 780.45l22.03 0l0 15.09l-22.03 0Z" id="p150w228" />
<path d="M331.44 780.45l14.59 0l0 15.09l-14.59 0Z" id="p150w229" />
<path d="M349.64 780.45l39.21 0l0 15.09l-39.21 0Z" id="p150w230" />
<path d="M135.88 797.12l15.15 0l0 15.09l-15.15 0Z" id="p150w231" />
<path d="M154.65 797.12l15.94 0l0 15.09l-15.94 0Z" id="p150w232" />
<path d="M174.19 797.12l33.81 0l0 15.09l-33.81 0Z" id="p150w233" />
<path d="M221.72 797.12l10.42 0l0 15.09l-10.42 0Z" id="p150w234" />
<path d="M235.75 797.12l25.09 0l0 15.09l-25.09 0Z" id="p150w235" />
<path d="M155.88 600.01l39.83 0l0 11.47l-39.83 0Z" id="p150w236" />
<path d="M198.04 600.01l14.4 0l0 11.47l-14.4 0Z" id="p150w237" />
<path d="M214.78 600.01l24.68 0l0 11.47l-24.68 0Z" id="p150w238" />
<path d="M176.51 611.12l10.98 0l0 11.47l-10.98 0Z" id="p150w239" />
<path d="M189.83 611.12l49.63 0l0 11.47l-49.63 0Z" id="p150w240" />
<path d="M135.79 511.26l39.83 0l0 11.47l-39.83 0Z" id="p150w241" />
<path d="M177.95 511.26l14.4 0l0 11.47l-14.4 0Z" id="p150w242" />
<path d="M194.69 511.26l24.68 0l0 11.47l-24.68 0Z" id="p150w243" />
<path d="M166.12 522.38l10.46 0l0 11.47l-10.46 0Z" id="p150w244" />
<path d="M178.38 522.38l40.99 0l0 11.47l-40.99 0Z" id="p150w245" />
<path d="M239.09 493.3l39.83 0l0 11.47l-39.83 0Z" id="p150w246" />
<path d="M281.25 493.3l14.4 0l0 11.47l-14.4 0Z" id="p150w247" />
<path d="M297.99 493.3l24.68 0l0 11.47l-24.68 0Z" id="p150w248" />
<path d="M239.09 504.42l20.09 0l0 11.47l-20.09 0Z" id="p150w249" />
<path d="M261.51 504.42l14.4 0l0 11.47l-14.4 0Z" id="p150w250" />
<path d="M277.72 504.42l19.82 0l0 11.47l-19.82 0Z" id="p150w251" />
<path d="M315.57 519.59l39.83 0l0 11.47l-39.83 0Z" id="p150w252" />
<path d="M357.74 519.59l14.4 0l0 11.47l-14.4 0Z" id="p150w253" />
<path d="M374.47 519.59l24.68 0l0 11.47l-24.68 0Z" id="p150w254" />
<path d="M315.57 530.71l10.46 0l0 11.47l-10.46 0Z" id="p150w255" />
<path d="M327.83 530.71l45.39 0l0 11.47l-45.39 0Z" id="p150w256" />
<path d="M275.2 604.17l39.83 0l0 11.47l-39.83 0Z" id="p150w257" />
<path d="M317.36 604.17l14.4 0l0 11.47l-14.4 0Z" id="p150w258" />
<path d="M334.1 604.17l24.68 0l0 11.47l-24.68 0Z" id="p150w259" />
<path d="M275.2 615.29l10.46 0l0 11.47l-10.46 0Z" id="p150w260" />
<path d="M287.99 615.29l31.53 0l0 11.47l-31.53 0Z" id="p150w261" />
<path d="M124.06 881.13l27.53 0l0 14.52l-27.53 0Z" id="p150w262" />
<path d="M154.8 881.13l9.89 0l0 14.52l-9.89 0Z" id="p150w263" />
<path d="M167.9 881.13l28.33 0l0 14.52l-28.33 0Z" id="p150w264" />
<path d="M199.43 881.13l17.11 0l0 14.52l-17.11 0Z" id="p150w265" />
<path d="M219.74 881.13l15.5 0l0 14.52l-15.5 0Z" id="p150w266" />
<path d="M238.45 881.13l28.85 0l0 14.52l-28.85 0Z" id="p150w267" />
<path d="M270.51 881.13l11.22 0l0 14.52l-11.22 0Z" id="p150w268" />
<path d="M284.93 881.13l50 0l0 14.52l-50 0Z" id="p150w269" />
<path d="M338.14 881.13l15.5 0l0 14.52l-15.5 0Z" id="p150w270" />
<path d="M356.84 881.13l28.06 0l0 14.52l-28.06 0Z" id="p150w271" />
<path d="M388.11 881.13l20.85 0l0 14.52l-20.85 0Z" id="p150w272" />
<path d="M124.06 897.8l25.67 0l0 14.52l-25.67 0Z" id="p150w273" />
<path d="M152.94 897.8l13.9 0l0 14.52l-13.9 0Z" id="p150w274" />
<path d="M170.05 897.8l62.02 0l0 14.52l-62.02 0Z" id="p150w275" />
<path d="M235.28 897.8l19.51 0l0 14.52l-19.51 0Z" id="p150w276" />
<path d="M257.99 897.8l26.73 0l0 14.52l-26.73 0Z" id="p150w277" />
<path d="M287.93 897.8l9.89 0l0 14.52l-9.89 0Z" id="p150w278" />
<path d="M301.02 897.8l69.24 0l0 14.52l-69.24 0Z" id="p150w279" />
<path d="M124.06 914.47l11.5 0l0 14.52l-11.5 0Z" id="p150w280" />
<path d="M138.77 914.47l28.35 0l0 14.52l-28.35 0Z" id="p150w281" />
<path d="M170.33 914.47l53.19 0l0 14.52l-53.19 0Z" id="p150w282" />
<path d="M226.73 914.47l33.05 0l0 14.52l-33.05 0Z" id="p150w283" />
<path d="M262.98 914.47l20.85 0l0 14.52l-20.85 0Z" id="p150w284" />
<path d="M287.05 914.47l25.67 0l0 14.52l-25.67 0Z" id="p150w285" />
<path d="M315.93 914.47l44.57 0l0 14.52l-44.57 0Z" id="p150w286" />
<path d="M363.71 914.47l18.72 0l0 14.52l-18.72 0Z" id="p150w287" />
<path d="M385.63 914.47l28.85 0l0 14.52l-28.85 0Z" id="p150w288" />
<path d="M124.06 931.14l32.87 0l0 14.52l-32.87 0Z" id="p150w289" />
<path d="M160.14 931.14l14.18 0l0 14.52l-14.18 0Z" id="p150w290" />
<path d="M177.52 931.14l26.19 0l0 14.52l-26.19 0Z" id="p150w291" />
<path d="M206.91 931.14l47.52 0l0 14.52l-47.52 0Z" id="p150w292" />
<path d="M257.64 931.14l29.66 0l0 14.52l-29.66 0Z" id="p150w293" />
<path d="M290.5 931.14l26.45 0l0 14.52l-26.45 0Z" id="p150w294" />
<path d="M320.16 931.14l11.22 0l0 14.52l-11.22 0Z" id="p150w295" />
<path d="M334.59 931.14l50.8 0l0 14.52l-50.8 0Z" id="p150w296" />
<path d="M60.03 882.9l27.93 0l0 12.29l-27.93 0Z" id="p150w297" />
<path d="M124.06 38.6l16.59 0l0 16.09l-16.59 0Z" id="p150w298" />
<path d="M144.03 38.6l28.66 0l0 16.09l-28.66 0Z" id="p150w299" />
<path d="M186.89 38.6l99.65 0l0 16.09l-99.65 0Z" id="p150w300" />
<path d="M76.9 983l87.42 0l0 12.23l-87.42 0Z" id="p150w301" />
</svg>
