<?xml version="1.0" encoding="UTF-8"?>
<svg xmlns="http://www.w3.org/2000/svg" xmlns:xlink="http://www.w3.org/1999/xlink" version="1.1" baseProfile="full" width="768" height="1024" viewBox="0,0,768,1024" preserveAspectRatio="xMinYMin meet" >
<style type="text/css">
<![CDATA[
path {fill-opacity: 0.5;fill: #00aeef;visibility: hidden;}
]]>
</style>
<path d="M567.03 983.66l124.07 0l0 12.23l-124.07 0Z" id="p261w1" />
<path d="M566.11 38.6l77.83 0l0 16.09l-77.83 0Z" id="p261w2" />
<path d="M59.08 112.45l44.58 0l0 12.29l-44.58 0Z" id="p261w3" />
<path d="M106.36 112.51l77.12 0l0 12.23l-77.12 0Z" id="p261w4" />
<path d="M186.18 112.26l15.54 0l0 12.56l-15.54 0Z" id="p261w5" />
<path d="M59.08 127.79l20.03 0l0 12.23l-20.03 0Z" id="p261w6" />
<path d="M81.81 127.74l45.56 0l0 12.29l-45.56 0Z" id="p261w7" />
<path d="M130.07 127.79l17.56 0l0 12.23l-17.56 0Z" id="p261w8" />
<path d="M150.33 127.79l39.63 0l0 12.23l-39.63 0Z" id="p261w9" />
<path d="M192.66 127.55l18.17 0l0 12.56l-18.17 0Z" id="p261w10" />
<path d="M59.08 143.02l33.99 0l0 12.29l-33.99 0Z" id="p261w11" />
<path d="M95.77 143.08l54.01 0l0 12.23l-54.01 0Z" id="p261w12" />
<path d="M152.48 142.83l18.92 0l0 12.56l-18.92 0Z" id="p261w13" />
<path d="M59.08 158.3l23.53 0l0 12.29l-23.53 0Z" id="p261w14" />
<path d="M85.31 158.36l22.92 0l0 12.23l-22.92 0Z" id="p261w15" />
<path d="M110.93 158.36l16.43 0l0 12.23l-16.43 0Z" id="p261w16" />
<path d="M130.06 158.11l15.54 0l0 12.56l-15.54 0Z" id="p261w17" />
<path d="M68.92 173.64l23.64 0l0 12.23l-23.64 0Z" id="p261w18" />
<path d="M95.27 173.64l24.75 0l0 12.23l-24.75 0Z" id="p261w19" />
<path d="M122.72 173.64l22.92 0l0 12.23l-22.92 0Z" id="p261w20" />
<path d="M148.34 173.64l19.36 0l0 12.23l-19.36 0Z" id="p261w21" />
<path d="M170.41 173.4l15.54 0l0 12.56l-15.54 0Z" id="p261w22" />
<path d="M68.92 188.93l24.76 0l0 12.23l-24.76 0Z" id="p261w23" />
<path d="M96.39 188.93l42.1 0l0 12.23l-42.1 0Z" id="p261w24" />
<path d="M141.2 188.93l16.21 0l0 12.23l-16.21 0Z" id="p261w25" />
<path d="M160.1 188.93l17.55 0l0 12.23l-17.55 0Z" id="p261w26" />
<path d="M186.21 188.68l15.54 0l0 12.56l-15.54 0Z" id="p261w27" />
<path d="M68.92 204.21l23.64 0l0 12.23l-23.64 0Z" id="p261w28" />
<path d="M95.27 204.21l36.47 0l0 12.23l-36.47 0Z" id="p261w29" />
<path d="M134.44 204.21l30.12 0l0 12.23l-30.12 0Z" id="p261w30" />
<path d="M167.26 204.21l16.43 0l0 12.23l-16.43 0Z" id="p261w31" />
<path d="M186.39 204.21l19.36 0l0 12.23l-19.36 0Z" id="p261w32" />
<path d="M208.45 203.96l15.54 0l0 12.56l-15.54 0Z" id="p261w33" />
<path d="M59.08 219.44l28.37 0l0 12.29l-28.37 0Z" id="p261w34" />
<path d="M90.14 219.49l22.92 0l0 12.23l-22.92 0Z" id="p261w35" />
<path d="M115.76 219.49l18.23 0l0 12.23l-18.23 0Z" id="p261w36" />
<path d="M136.69 219.25l15.34 0l0 12.56l-15.34 0Z" id="p261w37" />
<path d="M59.08 234.72l28.37 0l0 12.29l-28.37 0Z" id="p261w38" />
<path d="M90.14 234.75l41.75 0l0 12.23l-41.75 0Z" id="p261w39" />
<path d="M134.59 234.78l18.23 0l0 12.23l-18.23 0Z" id="p261w40" />
<path d="M155.52 234.78l11.7 0l0 12.23l-11.7 0Z" id="p261w41" />
<path d="M183.85 234.53l18.92 0l0 12.56l-18.92 0Z" id="p261w42" />
<path d="M59.08 250l28.37 0l0 12.29l-28.37 0Z" id="p261w43" />
<path d="M90.14 250.06l18.23 0l0 12.23l-18.23 0Z" id="p261w44" />
<path d="M111.07 249.81l19.58 0l0 12.56l-19.58 0Z" id="p261w45" />
<path d="M75.25 265.29l23.53 0l0 12.29l-23.53 0Z" id="p261w46" />
<path d="M101.48 265.29l28.33 0l0 12.29l-28.33 0Z" id="p261w47" />
<path d="M148.69 265.34l18.02 0l0 12.23l-18.02 0Z" id="p261w48" />
<path d="M176.39 265.1l14.79 0l0 12.56l-14.79 0Z" id="p261w49" />
<path d="M59.08 280.57l14.52 0l0 12.29l-14.52 0Z" id="p261w50" />
<path d="M76.29 280.63l22.92 0l0 12.23l-22.92 0Z" id="p261w51" />
<path d="M101.91 280.63l30.38 0l0 12.23l-30.38 0Z" id="p261w52" />
<path d="M134.99 280.38l15.34 0l0 12.56l-15.34 0Z" id="p261w53" />
<path d="M59.08 295.85l70.19 0l0 12.29l-70.19 0Z" id="p261w54" />
<path d="M131.97 295.91l8.33 0l0 12.23l-8.33 0Z" id="p261w55" />
<path d="M143 295.91l54.69 0l0 12.23l-54.69 0Z" id="p261w56" />
<path d="M200.38 295.66l18.01 0l0 12.56l-18.01 0Z" id="p261w57" />
<path d="M59.08 311.14l37.06 0l0 12.29l-37.06 0Z" id="p261w58" />
<path d="M98.84 311.19l22.92 0l0 12.23l-22.92 0Z" id="p261w59" />
<path d="M124.46 311.19l30.38 0l0 12.23l-30.38 0Z" id="p261w60" />
<path d="M157.54 310.95l15.34 0l0 12.56l-15.34 0Z" id="p261w61" />
<path d="M59.08 326.42l41.55 0l0 12.29l-41.55 0Z" id="p261w62" />
<path d="M103.33 326.48l22.92 0l0 12.23l-22.92 0Z" id="p261w63" />
<path d="M128.95 326.48l43.89 0l0 12.23l-43.89 0Z" id="p261w64" />
<path d="M175.54 326.23l18.92 0l0 12.56l-18.92 0Z" id="p261w65" />
<path d="M68.92 341.76l41.42 0l0 12.23l-41.42 0Z" id="p261w66" />
<path d="M113.04 341.74l41.75 0l0 12.23l-41.75 0Z" id="p261w67" />
<path d="M157.49 341.76l43.89 0l0 12.23l-43.89 0Z" id="p261w68" />
<path d="M204.09 341.76l11.7 0l0 12.23l-11.7 0Z" id="p261w69" />
<path d="M68.92 356.8l18.92 0l0 12.56l-18.92 0Z" id="p261w70" />
<path d="M59.08 372.33l15.53 0l0 12.23l-15.53 0Z" id="p261w71" />
<path d="M77.31 372.27l34.68 0l0 12.29l-34.68 0Z" id="p261w72" />
<path d="M114.69 372.33l8.33 0l0 12.23l-8.33 0Z" id="p261w73" />
<path d="M125.71 372.33l21.62 0l0 12.23l-21.62 0Z" id="p261w74" />
<path d="M150.03 372.08l17.26 0l0 12.56l-17.26 0Z" id="p261w75" />
<path d="M59.08 387.55l38.13 0l0 12.29l-38.13 0Z" id="p261w76" />
<path d="M99.9 387.61l17.12 0l0 12.23l-17.12 0Z" id="p261w77" />
<path d="M119.72 387.61l11.48 0l0 12.23l-11.48 0Z" id="p261w78" />
<path d="M133.9 387.61l21.62 0l0 12.23l-21.62 0Z" id="p261w79" />
<path d="M158.22 387.61l11.7 0l0 12.23l-11.7 0Z" id="p261w80" />
<path d="M172.63 387.37l17.26 0l0 12.56l-17.26 0Z" id="p261w81" />
<path d="M59.08 402.84l33.53 0l0 12.29l-33.53 0Z" id="p261w82" />
<path d="M95.31 402.89l76.42 0l0 12.23l-76.42 0Z" id="p261w83" />
<path d="M174.43 402.65l18.92 0l0 12.56l-18.92 0Z" id="p261w84" />
<path d="M59.08 418.12l70.17 0l0 12.29l-70.17 0Z" id="p261w85" />
<path d="M131.95 418.18l50.12 0l0 12.23l-50.12 0Z" id="p261w86" />
<path d="M184.77 417.93l18.17 0l0 12.56l-18.17 0Z" id="p261w87" />
<path d="M68.92 433.46l63.69 0l0 12.23l-63.69 0Z" id="p261w88" />
<path d="M135.32 433.22l18.92 0l0 12.56l-18.92 0Z" id="p261w89" />
<path d="M59.08 448.74l20.03 0l0 12.23l-20.03 0Z" id="p261w90" />
<path d="M81.81 448.69l22.66 0l0 12.29l-22.66 0Z" id="p261w91" />
<path d="M107.17 448.74l17.56 0l0 12.23l-17.56 0Z" id="p261w92" />
<path d="M127.44 448.74l21.39 0l0 12.23l-21.39 0Z" id="p261w93" />
<path d="M151.52 448.5l15.54 0l0 12.56l-15.54 0Z" id="p261w94" />
<path d="M59.08 464.03l14.41 0l0 12.23l-14.41 0Z" id="p261w95" />
<path d="M76.18 463.97l46.08 0l0 12.29l-46.08 0Z" id="p261w96" />
<path d="M124.97 464.03l11.94 0l0 12.23l-11.94 0Z" id="p261w97" />
<path d="M139.61 464.03l49.07 0l0 12.23l-49.07 0Z" id="p261w98" />
<path d="M191.38 464.03l39.61 0l0 12.23l-39.61 0Z" id="p261w99" />
<path d="M68.92 479.07l18.92 0l0 12.56l-18.92 0Z" id="p261w100" />
<path d="M59.08 494.59l14.41 0l0 12.23l-14.41 0Z" id="p261w101" />
<path d="M76.18 494.54l32 0l0 12.29l-32 0Z" id="p261w102" />
<path d="M110.88 494.59l17.56 0l0 12.23l-17.56 0Z" id="p261w103" />
<path d="M131.15 494.59l37.85 0l0 12.23l-37.85 0Z" id="p261w104" />
<path d="M171.7 494.35l18.92 0l0 12.56l-18.92 0Z" id="p261w105" />
<path d="M59.08 509.88l14.41 0l0 12.23l-14.41 0Z" id="p261w106" />
<path d="M76.18 509.82l47.38 0l0 12.29l-47.38 0Z" id="p261w107" />
<path d="M126.27 509.88l11.94 0l0 12.23l-11.94 0Z" id="p261w108" />
<path d="M140.91 509.88l29.93 0l0 12.23l-29.93 0Z" id="p261w109" />
<path d="M173.54 509.63l15.54 0l0 12.56l-15.54 0Z" id="p261w110" />
<path d="M59.08 525.11l33.79 0l0 12.29l-33.79 0Z" id="p261w111" />
<path d="M95.57 525.16l16.43 0l0 12.23l-16.43 0Z" id="p261w112" />
<path d="M114.7 525.16l25.88 0l0 12.23l-25.88 0Z" id="p261w113" />
<path d="M156.56 525.14l14.18 0l0 12.23l-14.18 0Z" id="p261w114" />
<path d="M173.44 524.92l15.54 0l0 12.56l-15.54 0Z" id="p261w115" />
<path d="M59.08 540.44l19.27 0l0 12.23l-19.27 0Z" id="p261w116" />
<path d="M81.05 540.44l13.28 0l0 12.23l-13.28 0Z" id="p261w117" />
<path d="M97.04 540.44l20.03 0l0 12.23l-20.03 0Z" id="p261w118" />
<path d="M119.77 540.39l18.84 0l0 12.29l-18.84 0Z" id="p261w119" />
<path d="M144.46 540.42l25.65 0l0 12.23l-25.65 0Z" id="p261w120" />
<path d="M172.82 540.44l21.39 0l0 12.23l-21.39 0Z" id="p261w121" />
<path d="M196.91 540.44l38.04 0l0 12.23l-38.04 0Z" id="p261w122" />
<path d="M68.92 555.71l27.91 0l0 12.23l-27.91 0Z" id="p261w123" />
<path d="M99.54 555.48l15.54 0l0 12.56l-15.54 0Z" id="p261w124" />
<path d="M59.08 571.01l20.03 0l0 12.23l-20.03 0Z" id="p261w125" />
<path d="M81.81 570.96l41.26 0l0 12.29l-41.26 0Z" id="p261w126" />
<path d="M125.77 571.01l11.94 0l0 12.23l-11.94 0Z" id="p261w127" />
<path d="M140.41 571.01l36.25 0l0 12.23l-36.25 0Z" id="p261w128" />
<path d="M179.35 570.77l14.79 0l0 12.56l-14.79 0Z" id="p261w129" />
<path d="M59.08 586.24l15.95 0l0 12.29l-15.95 0Z" id="p261w130" />
<path d="M77.73 586.29l22.51 0l0 12.23l-22.51 0Z" id="p261w131" />
<path d="M102.94 586.05l15.54 0l0 12.56l-15.54 0Z" id="p261w132" />
<path d="M133.98 586.29l49.28 0l0 12.23l-49.28 0Z" id="p261w133" />
<path d="M185.97 586.05l18.92 0l0 12.56l-18.92 0Z" id="p261w134" />
<path d="M68.92 601.58l11.7 0l0 12.23l-11.7 0Z" id="p261w135" />
<path d="M97.25 601.58l17.56 0l0 12.23l-17.56 0Z" id="p261w136" />
<path d="M117.51 601.33l18.92 0l0 12.56l-18.92 0Z" id="p261w137" />
<path d="M59.08 616.86l40.5 0l0 12.23l-40.5 0Z" id="p261w138" />
<path d="M102.28 616.81l32.49 0l0 12.29l-32.49 0Z" id="p261w139" />
<path d="M137.47 616.86l21.84 0l0 12.23l-21.84 0Z" id="p261w140" />
<path d="M159.31 616.86l13.27 0l0 12.23l-13.27 0Z" id="p261w141" />
<path d="M175.29 616.86l11.7 0l0 12.23l-11.7 0Z" id="p261w142" />
<path d="M189.69 616.86l27.37 0l0 12.23l-27.37 0Z" id="p261w143" />
<path d="M68.92 631.9l18.92 0l0 12.56l-18.92 0Z" id="p261w144" />
<path d="M59.08 647.43l10.82 0l0 12.23l-10.82 0Z" id="p261w145" />
<path d="M72.59 647.43l19.44 0l0 12.23l-19.44 0Z" id="p261w146" />
<path d="M94.73 647.37l32.49 0l0 12.29l-32.49 0Z" id="p261w147" />
<path d="M129.93 647.43l25.88 0l0 12.23l-25.88 0Z" id="p261w148" />
<path d="M166.83 647.43l11.04 0l0 12.23l-11.04 0Z" id="p261w149" />
<path d="M180.57 647.18l18.01 0l0 12.56l-18.01 0Z" id="p261w150" />
<path d="M59.08 662.71l14.41 0l0 12.23l-14.41 0Z" id="p261w151" />
<path d="M76.18 662.66l31.48 0l0 12.29l-31.48 0Z" id="p261w152" />
<path d="M107.66 662.71l24.2 0l0 12.23l-24.2 0Z" id="p261w153" />
<path d="M134.56 662.66l40.37 0l0 12.29l-40.37 0Z" id="p261w154" />
<path d="M177.63 662.71l11.94 0l0 12.23l-11.94 0Z" id="p261w155" />
<path d="M68.92 677.99l68.99 0l0 12.23l-68.99 0Z" id="p261w156" />
<path d="M140.62 677.99l49.06 0l0 12.23l-49.06 0Z" id="p261w157" />
<path d="M192.38 677.75l18.92 0l0 12.56l-18.92 0Z" id="p261w158" />
<path d="M59.08 693.22l37.1 0l0 12.29l-37.1 0Z" id="p261w159" />
<path d="M98.88 693.28l20.71 0l0 12.23l-20.71 0Z" id="p261w160" />
<path d="M122.29 693.03l17.81 0l0 12.56l-17.81 0Z" id="p261w161" />
<path d="M59.08 746.71l16.72 0l0 12.29l-16.72 0Z" id="p261w162" />
<path d="M78.5 746.77l38.96 0l0 12.23l-38.96 0Z" id="p261w163" />
<path d="M120.16 746.53l14.79 0l0 12.56l-14.79 0Z" id="p261w164" />
<path d="M68.92 762.05l17.33 0l0 12.23l-17.33 0Z" id="p261w165" />
<path d="M88.95 762.05l11.25 0l0 12.23l-11.25 0Z" id="p261w166" />
<path d="M102.9 762.05l15.47 0l0 12.23l-15.47 0Z" id="p261w167" />
<path d="M121.08 762.05l22.05 0l0 12.23l-22.05 0Z" id="p261w168" />
<path d="M145.83 762.05l20.27 0l0 12.23l-20.27 0Z" id="p261w169" />
<path d="M168.81 761.81l14.79 0l0 12.56l-14.79 0Z" id="p261w170" />
<path d="M59.08 777.28l11.93 0l0 12.29l-11.93 0Z" id="p261w171" />
<path d="M73.7 777.34l7.42 0l0 12.23l-7.42 0Z" id="p261w172" />
<path d="M83.83 777.09l15.54 0l0 12.56l-15.54 0Z" id="p261w173" />
<path d="M59.08 792.62l14.41 0l0 12.23l-14.41 0Z" id="p261w174" />
<path d="M76.18 792.56l58.43 0l0 12.29l-58.43 0Z" id="p261w175" />
<path d="M134.62 792.62l24.2 0l0 12.23l-24.2 0Z" id="p261w176" />
<path d="M161.51 792.56l54.53 0l0 12.29l-54.53 0Z" id="p261w177" />
<path d="M218.75 792.62l16.11 0l0 12.23l-16.11 0Z" id="p261w178" />
<path d="M68.92 807.9l17.56 0l0 12.23l-17.56 0Z" id="p261w179" />
<path d="M89.19 807.9l18.02 0l0 12.23l-18.02 0Z" id="p261w180" />
<path d="M109.91 807.88l24.99 0l0 12.23l-24.99 0Z" id="p261w181" />
<path d="M137.59 807.88l38.49 0l0 12.23l-38.49 0Z" id="p261w182" />
<path d="M178.79 807.88l6.08 0l0 12.23l-6.08 0Z" id="p261w183" />
<path d="M184.87 807.88l10.34 0l0 12.23l-10.34 0Z" id="p261w184" />
<path d="M206.01 807.88l23.19 0l0 12.23l-23.19 0Z" id="p261w185" />
<path d="M68.92 823.16l22.88 0l0 12.23l-22.88 0Z" id="p261w186" />
<path d="M94.5 823.16l54.02 0l0 12.23l-54.02 0Z" id="p261w187" />
<path d="M151.22 822.94l18.01 0l0 12.56l-18.01 0Z" id="p261w188" />
<path d="M59.08 838.41l23.63 0l0 12.29l-23.63 0Z" id="p261w189" />
<path d="M85.41 838.47l11.7 0l0 12.23l-11.7 0Z" id="p261w190" />
<path d="M99.81 838.47l21.39 0l0 12.23l-21.39 0Z" id="p261w191" />
<path d="M123.9 838.23l18.17 0l0 12.56l-18.17 0Z" id="p261w192" />
<path d="M68.92 853.75l22.74 0l0 12.23l-22.74 0Z" id="p261w193" />
<path d="M94.37 853.75l23.64 0l0 12.23l-23.64 0Z" id="p261w194" />
<path d="M120.71 853.75l11.7 0l0 12.23l-11.7 0Z" id="p261w195" />
<path d="M135.12 853.75l21.39 0l0 12.23l-21.39 0Z" id="p261w196" />
<path d="M159.2 853.51l18.17 0l0 12.56l-18.17 0Z" id="p261w197" />
<path d="M59.08 869.04l14.41 0l0 12.23l-14.41 0Z" id="p261w198" />
<path d="M76.18 868.98l31.06 0l0 12.29l-31.06 0Z" id="p261w199" />
<path d="M109.94 869.04l11.94 0l0 12.23l-11.94 0Z" id="p261w200" />
<path d="M124.58 869.04l23.86 0l0 12.23l-23.86 0Z" id="p261w201" />
<path d="M151.14 868.79l18.01 0l0 12.56l-18.01 0Z" id="p261w202" />
<path d="M59.08 884.27l21.81 0l0 12.29l-21.81 0Z" id="p261w203" />
<path d="M83.59 884.32l18.02 0l0 12.23l-18.02 0Z" id="p261w204" />
<path d="M104.3 884.32l38.04 0l0 12.23l-38.04 0Z" id="p261w205" />
<path d="M145.04 884.32l16.43 0l0 12.23l-16.43 0Z" id="p261w206" />
<path d="M164.17 884.32l24.53 0l0 12.23l-24.53 0Z" id="p261w207" />
<path d="M191.4 884.32l9.45 0l0 12.23l-9.45 0Z" id="p261w208" />
<path d="M68.92 899.6l39.78 0l0 12.23l-39.78 0Z" id="p261w209" />
<path d="M130.84 899.58l14.18 0l0 12.23l-14.18 0Z" id="p261w210" />
<path d="M147.72 899.36l14.63 0l0 12.56l-14.63 0Z" id="p261w211" />
<path d="M59.08 914.83l21.43 0l0 12.29l-21.43 0Z" id="p261w212" />
<path d="M83.21 914.89l11.72 0l0 12.23l-11.72 0Z" id="p261w213" />
<path d="M97.62 914.64l14.63 0l0 12.56l-14.63 0Z" id="p261w214" />
<path d="M68.92 930.17l21.39 0l0 12.23l-21.39 0Z" id="p261w215" />
<path d="M93.01 930.17l22.52 0l0 12.23l-22.52 0Z" id="p261w216" />
<path d="M118.23 930.17l11.72 0l0 12.23l-11.72 0Z" id="p261w217" />
<path d="M132.65 930.17l20.49 0l0 12.23l-20.49 0Z" id="p261w218" />
<path d="M155.83 929.93l14.63 0l0 12.56l-14.63 0Z" id="p261w219" />
<path d="M274.51 112.45l21.43 0l0 12.29l-21.43 0Z" id="p261w220" />
<path d="M319.1 112.5l18.02 0l0 12.23l-18.02 0Z" id="p261w221" />
<path d="M346.79 112.26l14.79 0l0 12.56l-14.79 0Z" id="p261w222" />
<path d="M260.6 127.73l24.95 0l0 12.29l-24.95 0Z" id="p261w223" />
<path d="M288.25 127.79l20.49 0l0 12.23l-20.49 0Z" id="p261w224" />
<path d="M311.44 127.79l70.13 0l0 12.23l-70.13 0Z" id="p261w225" />
<path d="M399.79 127.54l18.01 0l0 12.56l-18.01 0Z" id="p261w226" />
<path d="M260.6 143.01l63.56 0l0 12.29l-63.56 0Z" id="p261w227" />
<path d="M326.85 143.07l80.02 0l0 12.23l-80.02 0Z" id="p261w228" />
<path d="M409.57 142.83l18.92 0l0 12.56l-18.92 0Z" id="p261w229" />
<path d="M260.6 158.35l18.46 0l0 12.23l-18.46 0Z" id="p261w230" />
<path d="M281.76 158.3l31.03 0l0 12.29l-31.03 0Z" id="p261w231" />
<path d="M315.49 158.35l33.55 0l0 12.23l-33.55 0Z" id="p261w232" />
<path d="M351.74 158.11l18.92 0l0 12.56l-18.92 0Z" id="p261w233" />
<path d="M260.6 173.64l19.44 0l0 12.23l-19.44 0Z" id="p261w234" />
<path d="M282.74 173.58l31.03 0l0 12.29l-31.03 0Z" id="p261w235" />
<path d="M316.47 173.64l27.24 0l0 12.23l-27.24 0Z" id="p261w236" />
<path d="M346.42 173.64l11.04 0l0 12.23l-11.04 0Z" id="p261w237" />
<path d="M360.15 173.39l15.34 0l0 12.56l-15.34 0Z" id="p261w238" />
<path d="M260.6 188.86l13.49 0l0 12.29l-13.49 0Z" id="p261w239" />
<path d="M276.79 188.92l37.15 0l0 12.23l-37.15 0Z" id="p261w240" />
<path d="M316.64 188.68l14.63 0l0 12.56l-14.63 0Z" id="p261w241" />
<path d="M336.41 188.92l59.88 0l0 12.23l-59.88 0Z" id="p261w242" />
<path d="M398.99 188.68l18.92 0l0 12.56l-18.92 0Z" id="p261w243" />
<path d="M260.6 204.15l23.63 0l0 12.29l-23.63 0Z" id="p261w244" />
<path d="M286.93 204.2l21.15 0l0 12.23l-21.15 0Z" id="p261w245" />
<path d="M310.78 203.96l15.54 0l0 12.56l-15.54 0Z" id="p261w246" />
<path d="M270.44 219.49l23.64 0l0 12.23l-23.64 0Z" id="p261w247" />
<path d="M296.79 219.49l19.44 0l0 12.23l-19.44 0Z" id="p261w248" />
<path d="M318.93 219.49l10.82 0l0 12.23l-10.82 0Z" id="p261w249" />
<path d="M332.44 219.49l15.76 0l0 12.23l-15.76 0Z" id="p261w250" />
<path d="M350.91 219.49l21.15 0l0 12.23l-21.15 0Z" id="p261w251" />
<path d="M374.76 219.49l21.37 0l0 12.23l-21.37 0Z" id="p261w252" />
<path d="M398.84 219.49l11.04 0l0 12.23l-11.04 0Z" id="p261w253" />
<path d="M412.57 219.24l18.92 0l0 12.56l-18.92 0Z" id="p261w254" />
<path d="M260.6 234.77l16.43 0l0 12.23l-16.43 0Z" id="p261w255" />
<path d="M279.72 234.71l9.76 0l0 12.29l-9.76 0Z" id="p261w256" />
<path d="M292.19 234.77l27.69 0l0 12.23l-27.69 0Z" id="p261w257" />
<path d="M337.58 234.53l15.54 0l0 12.56l-15.54 0Z" id="p261w258" />
<path d="M260.6 250.05l20.03 0l0 12.23l-20.03 0Z" id="p261w259" />
<path d="M283.33 250l23.24 0l0 12.29l-23.24 0Z" id="p261w260" />
<path d="M309.27 250.05l17.56 0l0 12.23l-17.56 0Z" id="p261w261" />
<path d="M329.53 250.05l22.06 0l0 12.23l-22.06 0Z" id="p261w262" />
<path d="M354.3 249.81l15.54 0l0 12.56l-15.54 0Z" id="p261w263" />
<path d="M260.6 265.28l21.84 0l0 12.29l-21.84 0Z" id="p261w264" />
<path d="M285.14 265.34l32.4 0l0 12.23l-32.4 0Z" id="p261w265" />
<path d="M335.25 265.09l18.17 0l0 12.56l-18.17 0Z" id="p261w266" />
<path d="M260.6 280.62l14.41 0l0 12.23l-14.41 0Z" id="p261w267" />
<path d="M277.7 280.56l38.08 0l0 12.29l-38.08 0Z" id="p261w268" />
<path d="M318.48 280.62l17.56 0l0 12.23l-17.56 0Z" id="p261w269" />
<path d="M338.75 280.62l42.3 0l0 12.23l-42.3 0Z" id="p261w270" />
<path d="M383.75 280.38l18.92 0l0 12.56l-18.92 0Z" id="p261w271" />
<path d="M260.6 295.85l19.02 0l0 12.29l-19.02 0Z" id="p261w272" />
<path d="M282.31 295.9l32.4 0l0 12.23l-32.4 0Z" id="p261w273" />
<path d="M332.42 295.66l18.17 0l0 12.56l-18.17 0Z" id="p261w274" />
<path d="M260.6 311.13l29.26 0l0 12.29l-29.26 0Z" id="p261w275" />
<path d="M292.55 311.19l11.7 0l0 12.23l-11.7 0Z" id="p261w276" />
<path d="M306.96 311.19l23.13 0l0 12.23l-23.13 0Z" id="p261w277" />
<path d="M332.79 310.94l18.01 0l0 12.56l-18.01 0Z" id="p261w278" />
<path d="M260.6 326.47l14.41 0l0 12.23l-14.41 0Z" id="p261w279" />
<path d="M277.7 326.42l81.04 0l0 12.29l-81.04 0Z" id="p261w280" />
<path d="M361.44 326.47l11.94 0l0 12.23l-11.94 0Z" id="p261w281" />
<path d="M376.08 326.47l35.12 0l0 12.23l-35.12 0Z" id="p261w282" />
<path d="M413.91 326.47l11.7 0l0 12.23l-11.7 0Z" id="p261w283" />
<path d="M270.44 341.75l23.19 0l0 12.23l-23.19 0Z" id="p261w284" />
<path d="M296.33 341.75l12.15 0l0 12.23l-12.15 0Z" id="p261w285" />
<path d="M311.18 341.51l18.92 0l0 12.56l-18.92 0Z" id="p261w286" />
<path d="M260.6 357.04l20.03 0l0 12.23l-20.03 0Z" id="p261w287" />
<path d="M283.33 356.98l22.53 0l0 12.29l-22.53 0Z" id="p261w288" />
<path d="M308.56 357.04l11.94 0l0 12.23l-11.94 0Z" id="p261w289" />
<path d="M323.2 357.04l26.79 0l0 12.23l-26.79 0Z" id="p261w290" />
<path d="M352.68 356.79l14.63 0l0 12.56l-14.63 0Z" id="p261w291" />
<path d="M260.6 372.32l14.41 0l0 12.23l-14.41 0Z" id="p261w292" />
<path d="M277.7 372.27l51.13 0l0 12.29l-51.13 0Z" id="p261w293" />
<path d="M331.53 372.32l11.94 0l0 12.23l-11.94 0Z" id="p261w294" />
<path d="M346.17 372.32l26.79 0l0 12.23l-26.79 0Z" id="p261w295" />
<path d="M375.66 372.08l14.63 0l0 12.56l-14.63 0Z" id="p261w296" />
<path d="M260.6 387.6l14.41 0l0 12.23l-14.41 0Z" id="p261w297" />
<path d="M277.7 387.55l26.23 0l0 12.29l-26.23 0Z" id="p261w298" />
<path d="M306.63 387.6l17.56 0l0 12.23l-17.56 0Z" id="p261w299" />
<path d="M326.9 387.6l34.21 0l0 12.23l-34.21 0Z" id="p261w300" />
<path d="M363.81 387.36l18.01 0l0 12.56l-18.01 0Z" id="p261w301" />
<path d="M260.6 402.89l20.03 0l0 12.23l-20.03 0Z" id="p261w302" />
<path d="M283.33 402.83l34.07 0l0 12.29l-34.07 0Z" id="p261w303" />
<path d="M320.1 402.89l17.56 0l0 12.23l-17.56 0Z" id="p261w304" />
<path d="M340.36 402.89l32.81 0l0 12.23l-32.81 0Z" id="p261w305" />
<path d="M375.87 402.64l14.79 0l0 12.56l-14.79 0Z" id="p261w306" />
<path d="M260.6 418.17l14.41 0l0 12.23l-14.41 0Z" id="p261w307" />
<path d="M277.7 418.12l32.43 0l0 12.29l-32.43 0Z" id="p261w308" />
<path d="M312.84 418.17l11.94 0l0 12.23l-11.94 0Z" id="p261w309" />
<path d="M327.48 418.17l33.53 0l0 12.23l-33.53 0Z" id="p261w310" />
<path d="M363.71 417.93l18.92 0l0 12.56l-18.92 0Z" id="p261w311" />
<path d="M260.59 433.46l22.27 0l0 12.23l-22.27 0Z" id="p261w312" />
<path d="M285.57 433.46l8.78 0l0 12.23l-8.78 0Z" id="p261w313" />
<path d="M297.05 433.4l40.84 0l0 12.29l-40.84 0Z" id="p261w314" />
<path d="M343.45 433.46l20.05 0l0 12.23l-20.05 0Z" id="p261w315" />
<path d="M366.2 433.46l10.66 0l0 12.23l-10.66 0Z" id="p261w316" />
<path d="M379.56 433.46l20.49 0l0 12.23l-20.49 0Z" id="p261w317" />
<path d="M408.6 433.22l15.54 0l0 12.56l-15.54 0Z" id="p261w318" />
<path d="M260.59 448.74l20.03 0l0 12.23l-20.03 0Z" id="p261w319" />
<path d="M283.32 448.69l60.33 0l0 12.29l-60.33 0Z" id="p261w320" />
<path d="M346.36 448.74l17.56 0l0 12.23l-17.56 0Z" id="p261w321" />
<path d="M366.62 448.74l52.67 0l0 12.23l-52.67 0Z" id="p261w322" />
<path d="M422 448.5l17.81 0l0 12.56l-17.81 0Z" id="p261w323" />
<path d="M260.59 464.03l14.41 0l0 12.23l-14.41 0Z" id="p261w324" />
<path d="M277.7 463.97l55.34 0l0 12.29l-55.34 0Z" id="p261w325" />
<path d="M333.04 464.03l24.2 0l0 12.23l-24.2 0Z" id="p261w326" />
<path d="M359.94 463.97l64.23 0l0 12.29l-64.23 0Z" id="p261w327" />
<path d="M270.44 479.31l11.94 0l0 12.23l-11.94 0Z" id="p261w328" />
<path d="M285.08 479.31l81.17 0l0 12.23l-81.17 0Z" id="p261w329" />
<path d="M368.96 479.31l61.24 0l0 12.23l-61.24 0Z" id="p261w330" />
<path d="M270.44 494.35l18.92 0l0 12.56l-18.92 0Z" id="p261w331" />
<path d="M260.59 509.88l19.44 0l0 12.23l-19.44 0Z" id="p261w332" />
<path d="M282.74 509.82l58.88 0l0 12.29l-58.88 0Z" id="p261w333" />
<path d="M344.31 509.88l44.14 0l0 12.23l-44.14 0Z" id="p261w334" />
<path d="M391.15 509.88l11.04 0l0 12.23l-11.04 0Z" id="p261w335" />
<path d="M404.89 509.63l15.54 0l0 12.56l-15.54 0Z" id="p261w336" />
<path d="M260.59 525.11l51.2 0l0 12.29l-51.2 0Z" id="p261w337" />
<path d="M314.49 525.16l90.42 0l0 12.23l-90.42 0Z" id="p261w338" />
<path d="M407.61 524.92l17.81 0l0 12.56l-17.81 0Z" id="p261w339" />
<path d="M260.59 540.44l14.41 0l0 12.23l-14.41 0Z" id="p261w340" />
<path d="M277.7 540.39l59.58 0l0 12.29l-59.58 0Z" id="p261w341" />
<path d="M339.98 540.44l56.28 0l0 12.23l-56.28 0Z" id="p261w342" />
<path d="M413.96 540.2l17.81 0l0 12.56l-17.81 0Z" id="p261w343" />
<path d="M260.59 555.67l38.58 0l0 12.29l-38.58 0Z" id="p261w344" />
<path d="M301.88 555.73l132.78 0l0 12.23l-132.78 0Z" id="p261w345" />
<path d="M270.44 571.01l45.86 0l0 12.23l-45.86 0Z" id="p261w346" />
<path d="M319 570.77l18.92 0l0 12.56l-18.92 0Z" id="p261w347" />
<path d="M260.59 586.29l14.41 0l0 12.23l-14.41 0Z" id="p261w348" />
<path d="M277.7 586.24l14.79 0l0 12.29l-14.79 0Z" id="p261w349" />
<path d="M295.2 586.29l11.94 0l0 12.23l-11.94 0Z" id="p261w350" />
<path d="M309.83 586.29l33.77 0l0 12.23l-33.77 0Z" id="p261w351" />
<path d="M346.3 586.05l18.92 0l0 12.56l-18.92 0Z" id="p261w352" />
<path d="M260.59 601.58l14.41 0l0 12.23l-14.41 0Z" id="p261w353" />
<path d="M277.7 601.52l14.79 0l0 12.29l-14.79 0Z" id="p261w354" />
<path d="M296.66 601.52l20.42 0l0 12.29l-20.42 0Z" id="p261w355" />
<path d="M319.78 601.58l11.94 0l0 12.23l-11.94 0Z" id="p261w356" />
<path d="M334.42 601.58l37.48 0l0 12.23l-37.48 0Z" id="p261w357" />
<path d="M374.6 601.58l21.84 0l0 12.23l-21.84 0Z" id="p261w358" />
<path d="M399.14 601.33l14.63 0l0 12.56l-14.63 0Z" id="p261w359" />
<path d="M260.59 616.86l15.53 0l0 12.23l-15.53 0Z" id="p261w360" />
<path d="M278.82 616.81l27.43 0l0 12.29l-27.43 0Z" id="p261w361" />
<path d="M308.96 616.86l18.45 0l0 12.23l-18.45 0Z" id="p261w362" />
<path d="M351.26 616.62l17.26 0l0 12.56l-17.26 0Z" id="p261w363" />
<path d="M260.59 632.09l31.33 0l0 12.29l-31.33 0Z" id="p261w364" />
<path d="M294.63 632.14l33.77 0l0 12.23l-33.77 0Z" id="p261w365" />
<path d="M344.38 632.12l14.18 0l0 12.23l-14.18 0Z" id="p261w366" />
<path d="M361.26 631.9l18.92 0l0 12.56l-18.92 0Z" id="p261w367" />
<path d="M260.59 647.37l30.94 0l0 12.29l-30.94 0Z" id="p261w368" />
<path d="M294.24 647.43l17.12 0l0 12.23l-17.12 0Z" id="p261w369" />
<path d="M322.38 647.43l18.45 0l0 12.23l-18.45 0Z" id="p261w370" />
<path d="M343.54 647.43l11.7 0l0 12.23l-11.7 0Z" id="p261w371" />
<path d="M357.94 647.18l17.26 0l0 12.56l-17.26 0Z" id="p261w372" />
<path d="M260.59 662.71l14.41 0l0 12.23l-14.41 0Z" id="p261w373" />
<path d="M277.7 662.66l23.49 0l0 12.29l-23.49 0Z" id="p261w374" />
<path d="M307.83 662.71l11.94 0l0 12.23l-11.94 0Z" id="p261w375" />
<path d="M322.47 662.71l19.6 0l0 12.23l-19.6 0Z" id="p261w376" />
<path d="M344.77 662.47l15.34 0l0 12.56l-15.34 0Z" id="p261w377" />
<path d="M379.74 662.71l17.56 0l0 12.23l-17.56 0Z" id="p261w378" />
<path d="M400 662.71l27.01 0l0 12.23l-27.01 0Z" id="p261w379" />
<path d="M270.44 677.75l18.92 0l0 12.56l-18.92 0Z" id="p261w380" />
<path d="M260.59 731.49l15.75 0l0 12.23l-15.75 0Z" id="p261w381" />
<path d="M279.05 731.43l45.25 0l0 12.29l-45.25 0Z" id="p261w382" />
<path d="M335.32 731.49l43.43 0l0 12.23l-43.43 0Z" id="p261w383" />
<path d="M381.45 731.24l15.54 0l0 12.56l-15.54 0Z" id="p261w384" />
<path d="M260.59 746.77l14.41 0l0 12.23l-14.41 0Z" id="p261w385" />
<path d="M277.7 746.71l26.89 0l0 12.29l-26.89 0Z" id="p261w386" />
<path d="M307.29 746.77l11.94 0l0 12.23l-11.94 0Z" id="p261w387" />
<path d="M321.93 746.77l33.09 0l0 12.23l-33.09 0Z" id="p261w388" />
<path d="M357.72 746.77l18.91 0l0 12.23l-18.91 0Z" id="p261w389" />
<path d="M379.33 746.53l15.54 0l0 12.56l-15.54 0Z" id="p261w390" />
<path d="M260.59 762.05l16.43 0l0 12.23l-16.43 0Z" id="p261w391" />
<path d="M279.72 762l32.4 0l0 12.29l-32.4 0Z" id="p261w392" />
<path d="M314.83 762.05l27.69 0l0 12.23l-27.69 0Z" id="p261w393" />
<path d="M345.21 762.05l11.7 0l0 12.23l-11.7 0Z" id="p261w394" />
<path d="M359.62 762.05l29.26 0l0 12.23l-29.26 0Z" id="p261w395" />
<path d="M406.58 761.81l18.92 0l0 12.56l-18.92 0Z" id="p261w396" />
<path d="M260.59 777.34l25.97 0l0 12.23l-25.97 0Z" id="p261w397" />
<path d="M289.26 777.28l26.21 0l0 12.29l-26.21 0Z" id="p261w398" />
<path d="M321.33 777.34l16.21 0l0 12.23l-16.21 0Z" id="p261w399" />
<path d="M340.24 777.34l11.7 0l0 12.23l-11.7 0Z" id="p261w400" />
<path d="M354.64 777.34l38.05 0l0 12.23l-38.05 0Z" id="p261w401" />
<path d="M401.25 777.09l15.54 0l0 12.56l-15.54 0Z" id="p261w402" />
<path d="M260.59 792.62l14.41 0l0 12.23l-14.41 0Z" id="p261w403" />
<path d="M277.7 792.62l32.88 0l0 12.23l-32.88 0Z" id="p261w404" />
<path d="M313.28 792.56l30.07 0l0 12.29l-30.07 0Z" id="p261w405" />
<path d="M346.05 792.62l11.94 0l0 12.23l-11.94 0Z" id="p261w406" />
<path d="M360.69 792.62l29.93 0l0 12.23l-29.93 0Z" id="p261w407" />
<path d="M393.32 792.38l19.58 0l0 12.56l-19.58 0Z" id="p261w408" />
<path d="M260.59 807.9l14.41 0l0 12.23l-14.41 0Z" id="p261w409" />
<path d="M277.7 807.85l40.54 0l0 12.29l-40.54 0Z" id="p261w410" />
<path d="M320.94 807.9l11.94 0l0 12.23l-11.94 0Z" id="p261w411" />
<path d="M335.58 807.9l34.43 0l0 12.23l-34.43 0Z" id="p261w412" />
<path d="M372.71 807.66l18.92 0l0 12.56l-18.92 0Z" id="p261w413" />
<path d="M260.59 823.19l14.41 0l0 12.23l-14.41 0Z" id="p261w414" />
<path d="M277.7 823.13l21.22 0l0 12.29l-21.22 0Z" id="p261w415" />
<path d="M301.62 823.19l11.94 0l0 12.23l-11.94 0Z" id="p261w416" />
<path d="M316.26 823.19l20.49 0l0 12.23l-20.49 0Z" id="p261w417" />
<path d="M339.45 822.94l14.79 0l0 12.56l-14.79 0Z" id="p261w418" />
<path d="M260.59 838.47l14.41 0l0 12.23l-14.41 0Z" id="p261w419" />
<path d="M277.7 838.41l44.46 0l0 12.29l-44.46 0Z" id="p261w420" />
<path d="M324.86 838.47l11.94 0l0 12.23l-11.94 0Z" id="p261w421" />
<path d="M339.5 838.47l35.51 0l0 12.23l-35.51 0Z" id="p261w422" />
<path d="M377.72 838.23l15.54 0l0 12.56l-15.54 0Z" id="p261w423" />
<path d="M260.59 853.75l20.03 0l0 12.23l-20.03 0Z" id="p261w424" />
<path d="M283.33 853.7l27.95 0l0 12.29l-27.95 0Z" id="p261w425" />
<path d="M313.98 853.75l17.56 0l0 12.23l-17.56 0Z" id="p261w426" />
<path d="M334.24 853.75l27.68 0l0 12.23l-27.68 0Z" id="p261w427" />
<path d="M364.62 853.51l15.54 0l0 12.56l-15.54 0Z" id="p261w428" />
<path d="M260.59 869.04l20.03 0l0 12.23l-20.03 0Z" id="p261w429" />
<path d="M283.33 868.98l24.59 0l0 12.29l-24.59 0Z" id="p261w430" />
<path d="M310.61 869.04l17.56 0l0 12.23l-17.56 0Z" id="p261w431" />
<path d="M330.88 869.04l18.67 0l0 12.23l-18.67 0Z" id="p261w432" />
<path d="M352.25 868.79l19.58 0l0 12.56l-19.58 0Z" id="p261w433" />
<path d="M260.59 884.32l14.41 0l0 12.23l-14.41 0Z" id="p261w434" />
<path d="M277.7 884.27l21.34 0l0 12.29l-21.34 0Z" id="p261w435" />
<path d="M301.74 884.3l26.79 0l0 12.23l-26.79 0Z" id="p261w436" />
<path d="M331.23 884.3l28.69 0l0 12.23l-28.69 0Z" id="p261w437" />
<path d="M362.62 884.32l17.56 0l0 12.23l-17.56 0Z" id="p261w438" />
<path d="M382.88 884.32l26.78 0l0 12.23l-26.78 0Z" id="p261w439" />
<path d="M412.36 884.08l15.54 0l0 12.56l-15.54 0Z" id="p261w440" />
<path d="M260.59 899.6l14.41 0l0 12.23l-14.41 0Z" id="p261w441" />
<path d="M277.7 899.55l34.08 0l0 12.29l-34.08 0Z" id="p261w442" />
<path d="M311.78 899.6l24.2 0l0 12.23l-24.2 0Z" id="p261w443" />
<path d="M338.68 899.55l42.97 0l0 12.29l-42.97 0Z" id="p261w444" />
<path d="M384.35 899.6l11.94 0l0 12.23l-11.94 0Z" id="p261w445" />
<path d="M398.99 899.6l37.93 0l0 12.23l-37.93 0Z" id="p261w446" />
<path d="M270.44 914.89l17.56 0l0 12.23l-17.56 0Z" id="p261w447" />
<path d="M290.71 914.89l39.38 0l0 12.23l-39.38 0Z" id="p261w448" />
<path d="M332.79 914.64l18.92 0l0 12.56l-18.92 0Z" id="p261w449" />
<path d="M462.11 112.5l20.03 0l0 12.23l-20.03 0Z" id="p261w450" />
<path d="M484.84 112.45l28.1 0l0 12.29l-28.1 0Z" id="p261w451" />
<path d="M515.64 112.48l12.16 0l0 12.23l-12.16 0Z" id="p261w452" />
<path d="M530.51 112.48l15.31 0l0 12.23l-15.31 0Z" id="p261w453" />
<path d="M548.51 112.48l33.87 0l0 12.23l-33.87 0Z" id="p261w454" />
<path d="M585.08 112.5l17.56 0l0 12.23l-17.56 0Z" id="p261w455" />
<path d="M605.34 112.5l23.85 0l0 12.23l-23.85 0Z" id="p261w456" />
<path d="M471.96 127.76l27.91 0l0 12.23l-27.91 0Z" id="p261w457" />
<path d="M514.28 127.79l17.56 0l0 12.23l-17.56 0Z" id="p261w458" />
<path d="M534.54 127.79l51.54 0l0 12.23l-51.54 0Z" id="p261w459" />
<path d="M588.78 127.54l14.63 0l0 12.56l-14.63 0Z" id="p261w460" />
<path d="M471.96 143.07l8.78 0l0 12.23l-8.78 0Z" id="p261w461" />
<path d="M483.44 143.07l15.53 0l0 12.23l-15.53 0Z" id="p261w462" />
<path d="M501.67 143.07l27.69 0l0 12.23l-27.69 0Z" id="p261w463" />
<path d="M540.39 143.07l8.33 0l0 12.23l-8.33 0Z" id="p261w464" />
<path d="M551.41 143.07l23.85 0l0 12.23l-23.85 0Z" id="p261w465" />
<path d="M577.97 142.83l14.63 0l0 12.56l-14.63 0Z" id="p261w466" />
<path d="M462.11 158.35l20.93 0l0 12.23l-20.93 0Z" id="p261w467" />
<path d="M485.74 158.35l14.85 0l0 12.23l-14.85 0Z" id="p261w468" />
<path d="M503.3 158.3l36.89 0l0 12.29l-36.89 0Z" id="p261w469" />
<path d="M546.04 158.35l22.05 0l0 12.23l-22.05 0Z" id="p261w470" />
<path d="M570.8 158.35l8.33 0l0 12.23l-8.33 0Z" id="p261w471" />
<path d="M581.82 158.35l27.47 0l0 12.23l-27.47 0Z" id="p261w472" />
<path d="M471.96 173.61l27.91 0l0 12.23l-27.91 0Z" id="p261w473" />
<path d="M502.57 173.39l15.54 0l0 12.56l-15.54 0Z" id="p261w474" />
<path d="M462.11 188.86l34.5 0l0 12.29l-34.5 0Z" id="p261w475" />
<path d="M499.32 188.92l72.35 0l0 12.23l-72.35 0Z" id="p261w476" />
<path d="M574.37 188.68l18.92 0l0 12.56l-18.92 0Z" id="p261w477" />
<path d="M462.11 204.2l20.03 0l0 12.23l-20.03 0Z" id="p261w478" />
<path d="M484.84 204.15l32.32 0l0 12.29l-32.32 0Z" id="p261w479" />
<path d="M519.87 204.2l17.56 0l0 12.23l-17.56 0Z" id="p261w480" />
<path d="M540.13 204.2l43.89 0l0 12.23l-43.89 0Z" id="p261w481" />
<path d="M586.73 203.96l15.54 0l0 12.56l-15.54 0Z" id="p261w482" />
<path d="M462.11 219.49l20.03 0l0 12.23l-20.03 0Z" id="p261w483" />
<path d="M484.84 219.43l32.32 0l0 12.29l-32.32 0Z" id="p261w484" />
<path d="M519.87 219.46l44.72 0l0 12.23l-44.72 0Z" id="p261w485" />
<path d="M567.14 219.46l21.61 0l0 12.23l-21.61 0Z" id="p261w486" />
<path d="M591 219.46l39.09 0l0 12.23l-39.09 0Z" id="p261w487" />
<path d="M471.96 234.77l11.94 0l0 12.23l-11.94 0Z" id="p261w488" />
<path d="M486.6 234.77l55.54 0l0 12.23l-55.54 0Z" id="p261w489" />
<path d="M544.84 234.53l18.92 0l0 12.56l-18.92 0Z" id="p261w490" />
<path d="M462.11 250.05l20.03 0l0 12.23l-20.03 0Z" id="p261w491" />
<path d="M484.84 250l37.1 0l0 12.29l-37.1 0Z" id="p261w492" />
<path d="M524.65 250.05l17.56 0l0 12.23l-17.56 0Z" id="p261w493" />
<path d="M544.91 250.05l36.69 0l0 12.23l-36.69 0Z" id="p261w494" />
<path d="M584.3 249.81l18.01 0l0 12.56l-18.01 0Z" id="p261w495" />
<path d="M462.11 265.28l33.6 0l0 12.29l-33.6 0Z" id="p261w496" />
<path d="M498.42 265.34l17.33 0l0 12.23l-17.33 0Z" id="p261w497" />
<path d="M515.74 265.34l9.45 0l0 12.23l-9.45 0Z" id="p261w498" />
<path d="M527.89 265.09l18.92 0l0 12.56l-18.92 0Z" id="p261w499" />
<path d="M462.11 280.62l14.41 0l0 12.23l-14.41 0Z" id="p261w500" />
<path d="M479.22 280.56l38.4 0l0 12.29l-38.4 0Z" id="p261w501" />
<path d="M520.32 280.62l11.94 0l0 12.23l-11.94 0Z" id="p261w502" />
<path d="M534.96 280.62l55.77 0l0 12.23l-55.77 0Z" id="p261w503" />
<path d="M593.43 280.38l15.54 0l0 12.56l-15.54 0Z" id="p261w504" />
<path d="M462.11 295.9l14.41 0l0 12.23l-14.41 0Z" id="p261w505" />
<path d="M479.22 295.85l21.6 0l0 12.29l-21.6 0Z" id="p261w506" />
<path d="M500.82 295.9l24.2 0l0 12.23l-24.2 0Z" id="p261w507" />
<path d="M527.72 295.85l30.49 0l0 12.29l-30.49 0Z" id="p261w508" />
<path d="M560.91 295.9l11.94 0l0 12.23l-11.94 0Z" id="p261w509" />
<path d="M575.54 295.9l48.52 0l0 12.23l-48.52 0Z" id="p261w510" />
<path d="M471.96 311.19l26.79 0l0 12.23l-26.79 0Z" id="p261w511" />
<path d="M501.45 310.94l17.81 0l0 12.56l-17.81 0Z" id="p261w512" />
<path d="M462.11 326.47l14.41 0l0 12.23l-14.41 0Z" id="p261w513" />
<path d="M479.22 326.42l22.47 0l0 12.29l-22.47 0Z" id="p261w514" />
<path d="M504.4 326.47l11.94 0l0 12.23l-11.94 0Z" id="p261w515" />
<path d="M519.03 326.47l27.45 0l0 12.23l-27.45 0Z" id="p261w516" />
<path d="M549.19 326.23l18.92 0l0 12.56l-18.92 0Z" id="p261w517" />
<path d="M462.11 341.75l20.03 0l0 12.23l-20.03 0Z" id="p261w518" />
<path d="M484.84 341.7l23.4 0l0 12.29l-23.4 0Z" id="p261w519" />
<path d="M510.94 341.75l17.56 0l0 12.23l-17.56 0Z" id="p261w520" />
<path d="M531.21 341.75l22.95 0l0 12.23l-22.95 0Z" id="p261w521" />
<path d="M556.86 341.51l18.01 0l0 12.56l-18.01 0Z" id="p261w522" />
<path d="M462.11 357.04l14.41 0l0 12.23l-14.41 0Z" id="p261w523" />
<path d="M479.22 356.98l20.71 0l0 12.29l-20.71 0Z" id="p261w524" />
<path d="M502.63 357.04l11.94 0l0 12.23l-11.94 0Z" id="p261w525" />
<path d="M517.27 357.04l20.49 0l0 12.23l-20.49 0Z" id="p261w526" />
<path d="M540.45 356.79l19.58 0l0 12.56l-19.58 0Z" id="p261w527" />
<path d="M462.11 372.32l14.41 0l0 12.23l-14.41 0Z" id="p261w528" />
<path d="M479.22 372.27l30.28 0l0 12.29l-30.28 0Z" id="p261w529" />
<path d="M512.2 372.32l17.56 0l0 12.23l-17.56 0Z" id="p261w530" />
<path d="M532.46 372.32l35.56 0l0 12.23l-35.56 0Z" id="p261w531" />
<path d="M570.72 372.08l14.43 0l0 12.56l-14.43 0Z" id="p261w532" />
<path d="M462.11 387.6l14.41 0l0 12.23l-14.41 0Z" id="p261w533" />
<path d="M479.22 387.55l23.36 0l0 12.29l-23.36 0Z" id="p261w534" />
<path d="M505.29 387.6l17.56 0l0 12.23l-17.56 0Z" id="p261w535" />
<path d="M525.55 387.6l24.99 0l0 12.23l-24.99 0Z" id="p261w536" />
<path d="M553.24 387.36l14.79 0l0 12.56l-14.79 0Z" id="p261w537" />
<path d="M462.11 402.83l39.77 0l0 12.29l-39.77 0Z" id="p261w538" />
<path d="M504.58 402.89l19.36 0l0 12.23l-19.36 0Z" id="p261w539" />
<path d="M534.97 402.89l22.75 0l0 12.23l-22.75 0Z" id="p261w540" />
<path d="M560.43 402.64l15.54 0l0 12.56l-15.54 0Z" id="p261w541" />
<path d="M462.11 418.12l19.67 0l0 12.29l-19.67 0Z" id="p261w542" />
<path d="M484.49 418.17l19.36 0l0 12.23l-19.36 0Z" id="p261w543" />
<path d="M506.55 417.93l15.54 0l0 12.56l-15.54 0Z" id="p261w544" />
<path d="M462.11 433.45l14.41 0l0 12.23l-14.41 0Z" id="p261w545" />
<path d="M479.22 433.4l36.97 0l0 12.29l-36.97 0Z" id="p261w546" />
<path d="M518.89 433.45l11.94 0l0 12.23l-11.94 0Z" id="p261w547" />
<path d="M533.53 433.45l37.15 0l0 12.23l-37.15 0Z" id="p261w548" />
<path d="M573.38 433.21l18.92 0l0 12.56l-18.92 0Z" id="p261w549" />
<path d="M462.11 448.68l40.86 0l0 12.29l-40.86 0Z" id="p261w550" />
<path d="M505.67 448.68l24.82 0l0 12.29l-24.82 0Z" id="p261w551" />
<path d="M533.2 448.74l16.43 0l0 12.23l-16.43 0Z" id="p261w552" />
<path d="M552.32 448.74l24.3 0l0 12.23l-24.3 0Z" id="p261w553" />
<path d="M592.61 448.72l14.18 0l0 12.23l-14.18 0Z" id="p261w554" />
<path d="M609.49 448.49l18.01 0l0 12.56l-18.01 0Z" id="p261w555" />
<path d="M462.11 464.02l14.41 0l0 12.23l-14.41 0Z" id="p261w556" />
<path d="M479.22 463.97l20.54 0l0 12.29l-20.54 0Z" id="p261w557" />
<path d="M502.46 464.02l17.56 0l0 12.23l-17.56 0Z" id="p261w558" />
<path d="M522.72 464.02l32.87 0l0 12.23l-32.87 0Z" id="p261w559" />
<path d="M558.29 463.78l14.63 0l0 12.56l-14.63 0Z" id="p261w560" />
<path d="M462.11 479.3l14.41 0l0 12.23l-14.41 0Z" id="p261w561" />
<path d="M479.22 479.25l33.21 0l0 12.29l-33.21 0Z" id="p261w562" />
<path d="M515.13 479.3l11.94 0l0 12.23l-11.94 0Z" id="p261w563" />
<path d="M529.77 479.3l35.33 0l0 12.23l-35.33 0Z" id="p261w564" />
<path d="M567.81 479.06l18.92 0l0 12.56l-18.92 0Z" id="p261w565" />
<path d="M462.11 494.53l31.36 0l0 12.29l-31.36 0Z" id="p261w566" />
<path d="M496.17 494.59l70.35 0l0 12.23l-70.35 0Z" id="p261w567" />
<path d="M569.22 494.34l18.72 0l0 12.56l-18.72 0Z" id="p261w568" />
<path d="M462.11 509.87l14.41 0l0 12.23l-14.41 0Z" id="p261w569" />
<path d="M479.22 509.82l32.37 0l0 12.29l-32.37 0Z" id="p261w570" />
<path d="M514.29 509.87l11.94 0l0 12.23l-11.94 0Z" id="p261w571" />
<path d="M528.93 509.87l26.11 0l0 12.23l-26.11 0Z" id="p261w572" />
<path d="M557.74 509.63l18.01 0l0 12.56l-18.01 0Z" id="p261w573" />
<path d="M462.11 525.16l19.44 0l0 12.23l-19.44 0Z" id="p261w574" />
<path d="M484.26 525.1l32.39 0l0 12.29l-32.39 0Z" id="p261w575" />
<path d="M519.35 525.16l29.93 0l0 12.23l-29.93 0Z" id="p261w576" />
<path d="M551.98 525.16l11.04 0l0 12.23l-11.04 0Z" id="p261w577" />
<path d="M565.72 524.91l18.01 0l0 12.56l-18.01 0Z" id="p261w578" />
<path d="M462.11 540.44l14.41 0l0 12.23l-14.41 0Z" id="p261w579" />
<path d="M479.22 540.38l40.69 0l0 12.29l-40.69 0Z" id="p261w580" />
<path d="M522.61 540.44l17.56 0l0 12.23l-17.56 0Z" id="p261w581" />
<path d="M542.88 540.44l24.09 0l0 12.23l-24.09 0Z" id="p261w582" />
<path d="M569.66 540.44l16.44 0l0 12.23l-16.44 0Z" id="p261w583" />
<path d="M588.8 540.44l30.14 0l0 12.23l-30.14 0Z" id="p261w584" />
<path d="M471.96 555.48l18.92 0l0 12.56l-18.92 0Z" id="p261w585" />
<path d="M462.11 571.01l20.03 0l0 12.23l-20.03 0Z" id="p261w586" />
<path d="M484.84 570.95l45.42 0l0 12.29l-45.42 0Z" id="p261w587" />
<path d="M532.96 571.01l17.56 0l0 12.23l-17.56 0Z" id="p261w588" />
<path d="M553.22 571.01l23.85 0l0 12.23l-23.85 0Z" id="p261w589" />
<path d="M579.78 571.01l34.43 0l0 12.23l-34.43 0Z" id="p261w590" />
<path d="M616.92 570.76l18.01 0l0 12.56l-18.01 0Z" id="p261w591" />
<path d="M462.11 586.29l40.5 0l0 12.23l-40.5 0Z" id="p261w592" />
<path d="M505.32 586.23l33.18 0l0 12.29l-33.18 0Z" id="p261w593" />
<path d="M541.2 586.29l40.06 0l0 12.23l-40.06 0Z" id="p261w594" />
<path d="M583.96 586.29l27.37 0l0 12.23l-27.37 0Z" id="p261w595" />
<path d="M614.03 586.04l18.92 0l0 12.56l-18.92 0Z" id="p261w596" />
<path d="M462.11 601.57l14.41 0l0 12.23l-14.41 0Z" id="p261w597" />
<path d="M479.22 601.52l49 0l0 12.29l-49 0Z" id="p261w598" />
<path d="M530.92 601.57l11.94 0l0 12.23l-11.94 0Z" id="p261w599" />
<path d="M545.56 601.57l25.82 0l0 12.23l-25.82 0Z" id="p261w600" />
<path d="M574.08 601.33l15.54 0l0 12.56l-15.54 0Z" id="p261w601" />
<path d="M462.11 616.8l43.53 0l0 12.29l-43.53 0Z" id="p261w602" />
<path d="M508.34 616.86l39.39 0l0 12.23l-39.39 0Z" id="p261w603" />
<path d="M550.44 616.61l15.34 0l0 12.56l-15.34 0Z" id="p261w604" />
<path d="M462.11 632.14l15.53 0l0 12.23l-15.53 0Z" id="p261w605" />
<path d="M480.34 632.08l45.07 0l0 12.29l-45.07 0Z" id="p261w606" />
<path d="M528.12 632.14l8.33 0l0 12.23l-8.33 0Z" id="p261w607" />
<path d="M539.14 632.14l44.34 0l0 12.23l-44.34 0Z" id="p261w608" />
<path d="M586.18 632.14l11.7 0l0 12.23l-11.7 0Z" id="p261w609" />
<path d="M600.59 632.14l8.33 0l0 12.23l-8.33 0Z" id="p261w610" />
<path d="M471.96 647.42l52.91 0l0 12.23l-52.91 0Z" id="p261w611" />
<path d="M527.57 647.18l18.92 0l0 12.56l-18.92 0Z" id="p261w612" />
<path d="M462.11 662.71l14.41 0l0 12.23l-14.41 0Z" id="p261w613" />
<path d="M479.22 662.65l23.28 0l0 12.29l-23.28 0Z" id="p261w614" />
<path d="M505.2 662.71l11.94 0l0 12.23l-11.94 0Z" id="p261w615" />
<path d="M519.83 662.71l17.56 0l0 12.23l-17.56 0Z" id="p261w616" />
<path d="M540.1 662.46l15.34 0l0 12.56l-15.34 0Z" id="p261w617" />
<path d="M462.11 677.99l14.41 0l0 12.23l-14.41 0Z" id="p261w618" />
<path d="M479.22 677.93l30.92 0l0 12.29l-30.92 0Z" id="p261w619" />
<path d="M512.84 677.99l8.33 0l0 12.23l-8.33 0Z" id="p261w620" />
<path d="M523.87 677.99l30.6 0l0 12.23l-30.6 0Z" id="p261w621" />
<path d="M557.17 677.74l18.01 0l0 12.56l-18.01 0Z" id="p261w622" />
<path d="M462.11 693.22l15.73 0l0 12.29l-15.73 0Z" id="p261w623" />
<path d="M480.32 693.27l31.52 0l0 12.23l-31.52 0Z" id="p261w624" />
<path d="M514.54 693.27l15.53 0l0 12.23l-15.53 0Z" id="p261w625" />
<path d="M532.77 693.27l39.6 0l0 12.23l-39.6 0Z" id="p261w626" />
<path d="M575.08 693.03l15.54 0l0 12.56l-15.54 0Z" id="p261w627" />
<path d="M462.11 708.5l15.73 0l0 12.29l-15.73 0Z" id="p261w628" />
<path d="M480.54 708.56l15.53 0l0 12.23l-15.53 0Z" id="p261w629" />
<path d="M498.77 708.31l18.01 0l0 12.56l-18.01 0Z" id="p261w630" />
<path d="M462.11 723.84l20.03 0l0 12.23l-20.03 0Z" id="p261w631" />
<path d="M484.84 723.78l27.55 0l0 12.29l-27.55 0Z" id="p261w632" />
<path d="M515.1 723.84l17.56 0l0 12.23l-17.56 0Z" id="p261w633" />
<path d="M535.36 723.84l46.14 0l0 12.23l-46.14 0Z" id="p261w634" />
<path d="M584.2 723.59l18.92 0l0 12.56l-18.92 0Z" id="p261w635" />
<path d="M462.11 739.12l19.44 0l0 12.23l-19.44 0Z" id="p261w636" />
<path d="M484.26 739.07l45.77 0l0 12.29l-45.77 0Z" id="p261w637" />
<path d="M532.73 739.12l31.01 0l0 12.23l-31.01 0Z" id="p261w638" />
<path d="M566.44 739.12l11.04 0l0 12.23l-11.04 0Z" id="p261w639" />
<path d="M580.18 738.88l18.92 0l0 12.56l-18.92 0Z" id="p261w640" />
<path d="M462.11 754.41l14.41 0l0 12.23l-14.41 0Z" id="p261w641" />
<path d="M479.22 754.35l39.63 0l0 12.29l-39.63 0Z" id="p261w642" />
<path d="M521.55 754.41l11.94 0l0 12.23l-11.94 0Z" id="p261w643" />
<path d="M536.19 754.41l44.79 0l0 12.23l-44.79 0Z" id="p261w644" />
<path d="M583.68 754.16l14.79 0l0 12.56l-14.79 0Z" id="p261w645" />
<path d="M471.96 769.69l10.58 0l0 12.23l-10.58 0Z" id="p261w646" />
<path d="M485.24 769.69l18.63 0l0 12.23l-18.63 0Z" id="p261w647" />
<path d="M506.57 769.69l14.41 0l0 12.23l-14.41 0Z" id="p261w648" />
<path d="M523.68 769.69l41.2 0l0 12.23l-41.2 0Z" id="p261w649" />
<path d="M567.59 769.69l5.86 0l0 12.23l-5.86 0Z" id="p261w650" />
<path d="M592.13 769.69l11.94 0l0 12.23l-11.94 0Z" id="p261w651" />
<path d="M606.77 769.69l26.35 0l0 12.23l-26.35 0Z" id="p261w652" />
<path d="M471.96 784.73l15.34 0l0 12.56l-15.34 0Z" id="p261w653" />
<path d="M462.11 800.26l20.03 0l0 12.23l-20.03 0Z" id="p261w654" />
<path d="M484.84 800.21l52.21 0l0 12.29l-52.21 0Z" id="p261w655" />
<path d="M539.75 800.26l17.56 0l0 12.23l-17.56 0Z" id="p261w656" />
<path d="M560.01 800.26l50.9 0l0 12.23l-50.9 0Z" id="p261w657" />
<path d="M613.61 800.02l18.92 0l0 12.56l-18.92 0Z" id="p261w658" />
<path d="M462.11 815.49l60.71 0l0 12.29l-60.71 0Z" id="p261w659" />
<path d="M525.52 815.55l67.42 0l0 12.23l-67.42 0Z" id="p261w660" />
<path d="M471.96 830.83l71.58 0l0 12.23l-71.58 0Z" id="p261w661" />
<path d="M546.24 830.58l18.92 0l0 12.56l-18.92 0Z" id="p261w662" />
<path d="M462.11 846.11l14.41 0l0 12.23l-14.41 0Z" id="p261w663" />
<path d="M479.22 846.06l22.47 0l0 12.29l-22.47 0Z" id="p261w664" />
<path d="M504.39 846.11l11.94 0l0 12.23l-11.94 0Z" id="p261w665" />
<path d="M519.03 846.11l84.99 0l0 12.23l-84.99 0Z" id="p261w666" />
<path d="M471.96 861.4l71.58 0l0 12.23l-71.58 0Z" id="p261w667" />
<path d="M546.24 861.15l15.34 0l0 12.56l-15.34 0Z" id="p261w668" />
<path d="M462.11 876.68l17.12 0l0 12.23l-17.12 0Z" id="p261w669" />
<path d="M481.93 876.68l43.65 0l0 12.23l-43.65 0Z" id="p261w670" />
<path d="M528.28 876.62l22.35 0l0 12.29l-22.35 0Z" id="p261w671" />
<path d="M550.63 876.62l27.91 0l0 12.29l-27.91 0Z" id="p261w672" />
<path d="M581.24 876.68l21.84 0l0 12.23l-21.84 0Z" id="p261w673" />
<path d="M603.08 876.68l13.27 0l0 12.23l-13.27 0Z" id="p261w674" />
<path d="M619.05 876.68l11.7 0l0 12.23l-11.7 0Z" id="p261w675" />
<path d="M471.96 891.96l27.37 0l0 12.23l-27.37 0Z" id="p261w676" />
<path d="M502.02 891.72l18.92 0l0 12.56l-18.92 0Z" id="p261w677" />
<path d="M462.11 907.25l14.41 0l0 12.23l-14.41 0Z" id="p261w678" />
<path d="M479.22 907.19l49.79 0l0 12.29l-49.79 0Z" id="p261w679" />
<path d="M531.7 907.25l11.94 0l0 12.23l-11.94 0Z" id="p261w680" />
<path d="M546.34 907.25l54.86 0l0 12.23l-54.86 0Z" id="p261w681" />
<path d="M603.9 907l17.26 0l0 12.56l-17.26 0Z" id="p261w682" />
<path d="M462.11 922.53l14.41 0l0 12.23l-14.41 0Z" id="p261w683" />
<path d="M479.22 922.47l80.05 0l0 12.29l-80.05 0Z" id="p261w684" />
<path d="M561.97 922.53l8.33 0l0 12.23l-8.33 0Z" id="p261w685" />
<path d="M471.96 937.81l73.33 0l0 12.23l-73.33 0Z" id="p261w686" />
<path d="M547.98 937.57l18.92 0l0 12.56l-18.92 0Z" id="p261w687" />
</svg>
