<?xml version="1.0" encoding="UTF-8"?>
<svg xmlns="http://www.w3.org/2000/svg" xmlns:xlink="http://www.w3.org/1999/xlink" version="1.1" baseProfile="full" width="768" height="1024" viewBox="0,0,768,1024" preserveAspectRatio="xMinYMin meet" >
<style type="text/css">
<![CDATA[
path {fill-opacity: 0.5;fill: #00aeef;visibility: hidden;}
]]>
</style>
<path d="M124.06 114.18l39.28 0l0 14.52l-39.28 0Z" id="p144w1" />
<path d="M166.55 114.18l15.5 0l0 14.52l-15.5 0Z" id="p144w2" />
<path d="M185.25 114.18l36.88 0l0 14.52l-36.88 0Z" id="p144w3" />
<path d="M225.34 114.18l29.66 0l0 14.52l-29.66 0Z" id="p144w4" />
<path d="M258.21 114.18l68.68 0l0 14.52l-68.68 0Z" id="p144w5" />
<path d="M339.98 114.18l5.61 0l0 14.52l-5.61 0Z" id="p144w6" />
<path d="M345.59 114.11l51.97 0l0 14.6l-51.97 0Z" id="p144w7" />
<path d="M400.76 114.18l13.91 0l0 14.52l-13.91 0Z" id="p144w8" />
<path d="M417.88 114.18l13.63 0l0 14.52l-13.63 0Z" id="p144w9" />
<path d="M434.72 114.11l69.6 0l0 14.6l-69.6 0Z" id="p144w10" />
<path d="M677.9 114.18l13.11 0l0 14.52l-13.11 0Z" id="p144w11" />
<path d="M694.22 114.18l14.57 0l0 14.52l-14.57 0Z" id="p144w12" />
<path d="M143.75 139.19l10.16 0l0 14.52l-10.16 0Z" id="p144w13" />
<path d="M157.12 139.19l22.99 0l0 14.52l-22.99 0Z" id="p144w14" />
<path d="M183.33 139.19l9.89 0l0 14.52l-9.89 0Z" id="p144w15" />
<path d="M196.42 139.19l39.03 0l0 14.52l-39.03 0Z" id="p144w16" />
<path d="M257.62 139.19l32.81 0l0 14.52l-32.81 0Z" id="p144w17" />
<path d="M293.64 139.19l14.18 0l0 14.52l-14.18 0Z" id="p144w18" />
<path d="M329.98 139.19l50.54 0l0 14.52l-50.54 0Z" id="p144w19" />
<path d="M383.73 139.19l25.38 0l0 14.52l-25.38 0Z" id="p144w20" />
<path d="M412.32 139.19l44.92 0l0 14.52l-44.92 0Z" id="p144w21" />
<path d="M460.44 139.19l32.35 0l0 14.52l-32.35 0Z" id="p144w22" />
<path d="M496 139.19l25.67 0l0 14.52l-25.67 0Z" id="p144w23" />
<path d="M524.88 139.19l92.76 0l0 14.52l-92.76 0Z" id="p144w24" />
<path d="M143.75 155.86l15.77 0l0 14.52l-15.77 0Z" id="p144w25" />
<path d="M162.73 155.86l13.9 0l0 14.52l-13.9 0Z" id="p144w26" />
<path d="M198.8 155.86l44.03 0l0 14.52l-44.03 0Z" id="p144w27" />
<path d="M246.04 155.86l22.99 0l0 14.52l-22.99 0Z" id="p144w28" />
<path d="M272.24 155.86l33.14 0l0 14.52l-33.14 0Z" id="p144w29" />
<path d="M308.59 155.86l50.53 0l0 14.52l-50.53 0Z" id="p144w30" />
<path d="M362.33 155.86l47.58 0l0 14.52l-47.58 0Z" id="p144w31" />
<path d="M413.12 155.86l13.9 0l0 14.52l-13.9 0Z" id="p144w32" />
<path d="M449.18 155.86l48.65 0l0 14.52l-48.65 0Z" id="p144w33" />
<path d="M501.04 155.86l19.51 0l0 14.52l-19.51 0Z" id="p144w34" />
<path d="M523.76 155.86l54.98 0l0 14.52l-54.98 0Z" id="p144w35" />
<path d="M581.94 155.86l25.67 0l0 14.52l-25.67 0Z" id="p144w36" />
<path d="M610.82 155.86l46.51 0l0 14.52l-46.51 0Z" id="p144w37" />
<path d="M143.75 172.53l10.16 0l0 14.52l-10.16 0Z" id="p144w38" />
<path d="M157.12 172.53l14.18 0l0 14.52l-14.18 0Z" id="p144w39" />
<path d="M193.47 172.53l50.54 0l0 14.52l-50.54 0Z" id="p144w40" />
<path d="M247.22 172.53l38.2 0l0 14.52l-38.2 0Z" id="p144w41" />
<path d="M288.62 172.53l9.89 0l0 14.52l-9.89 0Z" id="p144w42" />
<path d="M301.72 172.53l70.23 0l0 14.52l-70.23 0Z" id="p144w43" />
<path d="M375.16 172.53l61.22 0l0 14.52l-61.22 0Z" id="p144w44" />
<path d="M439.58 172.53l15.5 0l0 14.52l-15.5 0Z" id="p144w45" />
<path d="M458.29 172.53l43.57 0l0 14.52l-43.57 0Z" id="p144w46" />
<path d="M505.07 172.53l69.24 0l0 14.52l-69.24 0Z" id="p144w47" />
<path d="M596.47 172.53l36.09 0l0 14.52l-36.09 0Z" id="p144w48" />
<path d="M635.77 172.53l20.85 0l0 14.52l-20.85 0Z" id="p144w49" />
<path d="M143.75 189.2l16.04 0l0 14.52l-16.04 0Z" id="p144w50" />
<path d="M162.99 189.2l22.99 0l0 14.52l-22.99 0Z" id="p144w51" />
<path d="M189.19 189.2l32.62 0l0 14.52l-32.62 0Z" id="p144w52" />
<path d="M143.75 205.88l10.16 0l0 14.52l-10.16 0Z" id="p144w53" />
<path d="M157.12 205.88l15.5 0l0 14.52l-15.5 0Z" id="p144w54" />
<path d="M175.82 205.88l26.66 0l0 14.52l-26.66 0Z" id="p144w55" />
<path d="M224.66 205.88l71.87 0l0 14.52l-71.87 0Z" id="p144w56" />
<path d="M299.74 205.88l19.52 0l0 14.52l-19.52 0Z" id="p144w57" />
<path d="M322.47 205.88l71.92 0l0 14.52l-71.92 0Z" id="p144w58" />
<path d="M397.6 205.88l12.02 0l0 14.52l-12.02 0Z" id="p144w59" />
<path d="M431.79 205.88l66.55 0l0 14.52l-66.55 0Z" id="p144w60" />
<path d="M501.54 205.88l54.55 0l0 14.52l-54.55 0Z" id="p144w61" />
<path d="M559.3 205.88l17.11 0l0 14.52l-17.11 0Z" id="p144w62" />
<path d="M579.62 205.88l21.38 0l0 14.52l-21.38 0Z" id="p144w63" />
<path d="M604.21 205.88l16.04 0l0 14.52l-16.04 0Z" id="p144w64" />
<path d="M623.45 205.88l11.22 0l0 14.52l-11.22 0Z" id="p144w65" />
<path d="M143.75 222.55l26.99 0l0 14.52l-26.99 0Z" id="p144w66" />
<path d="M173.95 222.55l56.14 0l0 14.52l-56.14 0Z" id="p144w67" />
<path d="M124.06 266.38l18.36 0l0 18.84l-18.36 0Z" id="p144w68" />
<path d="M146.07 266.38l56.09 0l0 18.84l-56.09 0Z" id="p144w69" />
<path d="M124.06 297.58l27.53 0l0 14.52l-27.53 0Z" id="p144w70" />
<path d="M154.8 297.58l39.91 0l0 14.52l-39.91 0Z" id="p144w71" />
<path d="M207.81 297.58l9.89 0l0 14.52l-9.89 0Z" id="p144w72" />
<path d="M220.9 297.58l27.73 0l0 14.52l-27.73 0Z" id="p144w73" />
<path d="M270.56 297.58l22.99 0l0 14.52l-22.99 0Z" id="p144w74" />
<path d="M296.76 297.58l39.03 0l0 14.52l-39.03 0Z" id="p144w75" />
<path d="M339 297.58l39.47 0l0 14.52l-39.47 0Z" id="p144w76" />
<path d="M381.67 297.58l13.9 0l0 14.52l-13.9 0Z" id="p144w77" />
<path d="M398.78 297.58l34.23 0l0 14.52l-34.23 0Z" id="p144w78" />
<path d="M436.21 297.58l18.44 0l0 14.52l-18.44 0Z" id="p144w79" />
<path d="M457.86 297.58l53.1 0l0 14.52l-53.1 0Z" id="p144w80" />
<path d="M124.06 314.25l25.67 0l0 14.52l-25.67 0Z" id="p144w81" />
<path d="M152.94 314.25l40.64 0l0 14.52l-40.64 0Z" id="p144w82" />
<path d="M196.79 314.25l48.39 0l0 14.52l-48.39 0Z" id="p144w83" />
<path d="M248.39 314.25l45.45 0l0 14.52l-45.45 0Z" id="p144w84" />
<path d="M297.04 314.25l25.67 0l0 14.52l-25.67 0Z" id="p144w85" />
<path d="M325.92 314.25l29.69 0l0 14.52l-29.69 0Z" id="p144w86" />
<path d="M672.61 314.25l13.11 0l0 14.52l-13.11 0Z" id="p144w87" />
<path d="M688.93 314.25l19.86 0l0 14.52l-19.86 0Z" id="p144w88" />
<path d="M130.32 347.53l18.58 0l0 14.6l-18.58 0Z" id="p144w89" />
<path d="M152.11 347.53l49.23 0l0 14.6l-49.23 0Z" id="p144w90" />
<path d="M276.54 347.53l21.92 0l0 14.6l-21.92 0Z" id="p144w91" />
<path d="M301.67 347.53l23.24 0l0 14.6l-23.24 0Z" id="p144w92" />
<path d="M276.54 364.2l15.76 0l0 14.6l-15.76 0Z" id="p144w93" />
<path d="M295.51 364.2l66.89 0l0 14.6l-66.89 0Z" id="p144w94" />
<path d="M422.76 347.53l50.5 0l0 14.6l-50.5 0Z" id="p144w95" />
<path d="M476.47 347.53l30.65 0l0 14.6l-30.65 0Z" id="p144w96" />
<path d="M510.32 347.53l24.45 0l0 14.6l-24.45 0Z" id="p144w97" />
<path d="M422.76 364.2l21.74 0l0 14.6l-21.74 0Z" id="p144w98" />
<path d="M447.71 364.2l57.93 0l0 14.6l-57.93 0Z" id="p144w99" />
<path d="M568.97 347.53l31.01 0l0 14.6l-31.01 0Z" id="p144w100" />
<path d="M603.18 347.53l59.33 0l0 14.6l-59.33 0Z" id="p144w101" />
<path d="M665.72 347.53l18.85 0l0 14.6l-18.85 0Z" id="p144w102" />
<path d="M568.97 364.2l15.76 0l0 14.6l-15.76 0Z" id="p144w103" />
<path d="M587.94 364.2l66.89 0l0 14.6l-66.89 0Z" id="p144w104" />
<path d="M130.33 389.28l22.73 0l0 14.52l-22.73 0Z" id="p144w105" />
<path d="M156.27 389.28l92.09 0l0 14.52l-92.09 0ZM130.33 405.95l63.57 0l0 14.52l-63.57 0Z" id="p144w106" />
<path d="M130.33 422.62l23.79 0l0 14.52l-23.79 0Z" id="p144w107" />
<path d="M157.32 422.62l67.18 0l0 14.52l-67.18 0Z" id="p144w108" />
<path d="M276.55 389.28l54.26 0l0 14.52l-54.26 0Z" id="p144w109" />
<path d="M334.02 389.28l38.98 0l0 14.52l-38.98 0Z" id="p144w110" />
<path d="M276.55 405.95l65.48 0l0 14.52l-65.48 0Z" id="p144w111" />
<path d="M345.24 405.95l24.83 0l0 14.52l-24.83 0Z" id="p144w112" />
<path d="M276.55 422.62l36.89 0l0 14.52l-36.89 0Z" id="p144w113" />
<path d="M316.65 422.62l17.11 0l0 14.52l-17.11 0Z" id="p144w114" />
<path d="M336.97 422.62l52.65 0l0 14.52l-52.65 0Z" id="p144w115" />
<path d="M422.77 389.28l17.11 0l0 14.52l-17.11 0Z" id="p144w116" />
<path d="M443.09 389.28l33.94 0l0 14.52l-33.94 0Z" id="p144w117" />
<path d="M480.23 389.28l29.39 0l0 14.52l-29.39 0Z" id="p144w118" />
<path d="M422.77 405.95l65.27 0l0 14.52l-65.27 0Z" id="p144w119" />
<path d="M422.77 422.62l21.12 0l0 14.52l-21.12 0Z" id="p144w120" />
<path d="M447.1 422.62l47.45 0l0 14.52l-47.45 0Z" id="p144w121" />
<path d="M497.76 422.62l18.7 0l0 14.52l-18.7 0Z" id="p144w122" />
<path d="M519.31 422.62l36.36 0l0 14.52l-36.36 0Z" id="p144w123" />
<path d="M568.98 389.28l37.68 0l0 14.52l-37.68 0Z" id="p144w124" />
<path d="M609.87 389.28l24.79 0l0 14.52l-24.79 0Z" id="p144w125" />
<path d="M568.98 405.95l34.74 0l0 14.52l-34.74 0Z" id="p144w126" />
<path d="M606.93 405.95l30.98 0l0 14.52l-30.98 0Z" id="p144w127" />
<path d="M568.98 422.62l54.76 0l0 14.52l-54.76 0Z" id="p144w128" />
<path d="M568.98 439.29l117.83 0l0 14.52l-117.83 0Z" id="p144w129" />
<path d="M568.98 455.97l62.75 0l0 14.52l-62.75 0Z" id="p144w130" />
<path d="M634.94 455.97l20.33 0l0 14.52l-20.33 0Z" id="p144w131" />
<path d="M568.98 472.64l80.2 0l0 14.52l-80.2 0Z" id="p144w132" />
<path d="M568.98 489.31l39.82 0l0 14.52l-39.82 0Z" id="p144w133" />
<path d="M608.8 489.31l20.01 0l0 14.52l-20.01 0Z" id="p144w134" />
<path d="M568.98 505.98l70.3 0l0 14.52l-70.3 0Z" id="p144w135" />
<path d="M642.49 505.98l14.16 0l0 14.52l-14.16 0Z" id="p144w136" />
<path d="M568.98 522.65l47.45 0l0 14.52l-47.45 0Z" id="p144w137" />
<path d="M619.64 522.65l18.7 0l0 14.52l-18.7 0Z" id="p144w138" />
<path d="M641.2 522.65l36.36 0l0 14.52l-36.36 0Z" id="p144w139" />
<path d="M124.09 572.66l59.34 0l0 14.52l-59.34 0Z" id="p144w140" />
<path d="M186.64 572.66l15.5 0l0 14.52l-15.5 0Z" id="p144w141" />
<path d="M205.34 572.66l43.29 0l0 14.52l-43.29 0Z" id="p144w142" />
<path d="M251.84 572.66l55.16 0l0 14.52l-55.16 0Z" id="p144w143" />
<path d="M310.21 572.66l40.63 0l0 14.52l-40.63 0Z" id="p144w144" />
<path d="M354.04 572.66l9.89 0l0 14.52l-9.89 0Z" id="p144w145" />
<path d="M367.14 572.59l26.76 0l0 14.6l-26.76 0Z" id="p144w146" />
<path d="M397.1 572.59l13.9 0l0 14.6l-13.9 0Z" id="p144w147" />
<path d="M414.21 572.59l28.97 0l0 14.6l-28.97 0Z" id="p144w148" />
<path d="M677.93 572.66l13.11 0l0 14.52l-13.11 0Z" id="p144w149" />
<path d="M694.24 572.66l14.57 0l0 14.52l-14.57 0Z" id="p144w150" />
<path d="M143.78 597.67l43.03 0l0 14.52l-43.03 0Z" id="p144w151" />
<path d="M190.02 597.67l57.22 0l0 14.52l-57.22 0Z" id="p144w152" />
<path d="M250.44 597.67l16.83 0l0 14.52l-16.83 0Z" id="p144w153" />
<path d="M270.48 597.67l42.59 0l0 14.52l-42.59 0Z" id="p144w154" />
<path d="M316.28 597.67l9.89 0l0 14.52l-9.89 0Z" id="p144w155" />
<path d="M329.37 597.67l33.68 0l0 14.52l-33.68 0Z" id="p144w156" />
<path d="M366.27 597.67l33.14 0l0 14.52l-33.14 0Z" id="p144w157" />
<path d="M402.62 597.67l71.3 0l0 14.52l-71.3 0Z" id="p144w158" />
<path d="M143.78 614.34l25.41 0l0 14.52l-25.41 0Z" id="p144w159" />
<path d="M191.33 614.36l43.57 0l0 14.52l-43.57 0Z" id="p144w160" />
<path d="M238.11 614.36l53.72 0l0 14.52l-53.72 0Z" id="p144w161" />
<path d="M314 614.36l16.83 0l0 14.52l-16.83 0Z" id="p144w162" />
<path d="M334.03 614.36l42.59 0l0 14.52l-42.59 0Z" id="p144w163" />
<path d="M379.84 614.36l9.89 0l0 14.52l-9.89 0Z" id="p144w164" />
<path d="M392.93 614.36l33.68 0l0 14.52l-33.68 0Z" id="p144w165" />
<path d="M429.82 614.36l33.14 0l0 14.52l-33.14 0Z" id="p144w166" />
<path d="M466.17 614.36l71.3 0l0 14.52l-71.3 0Z" id="p144w167" />
<path d="M143.75 639.38l18.44 0l0 14.52l-18.44 0Z" id="p144w168" />
<path d="M165.4 639.38l26.46 0l0 14.52l-26.46 0Z" id="p144w169" />
<path d="M195.07 639.38l43.84 0l0 14.52l-43.84 0Z" id="p144w170" />
<path d="M242.11 639.38l52.37 0l0 14.52l-52.37 0Z" id="p144w171" />
<path d="M297.7 639.38l9.89 0l0 14.52l-9.89 0Z" id="p144w172" />
<path d="M310.79 639.38l26.72 0l0 14.52l-26.72 0Z" id="p144w173" />
<path d="M340.71 639.35l20.84 0l0 14.52l-20.84 0Z" id="p144w174" />
<path d="M364.76 639.35l29.39 0l0 14.52l-29.39 0Z" id="p144w175" />
<path d="M397.36 639.35l36.64 0l0 14.52l-36.64 0Z" id="p144w176" />
<path d="M143.75 656.05l25.41 0l0 14.52l-25.41 0Z" id="p144w177" />
<path d="M191.33 656.02l27.67 0l0 14.52l-27.67 0Z" id="p144w178" />
<path d="M241.16 656.05l15.5 0l0 14.52l-15.5 0Z" id="p144w179" />
<path d="M259.87 656.05l26.46 0l0 14.52l-26.46 0Z" id="p144w180" />
<path d="M289.54 656.05l43.83 0l0 14.52l-43.83 0Z" id="p144w181" />
<path d="M336.58 656.05l55.05 0l0 14.52l-55.05 0Z" id="p144w182" />
<path d="M143.75 681.03l56.96 0l0 14.52l-56.96 0Z" id="p144w183" />
<path d="M203.92 681.03l24.85 0l0 14.52l-24.85 0Z" id="p144w184" />
<path d="M231.98 681.03l14.97 0l0 14.52l-14.97 0Z" id="p144w185" />
<path d="M250.15 681.03l29.75 0l0 14.52l-29.75 0Z" id="p144w186" />
<path d="M293 681.06l13.63 0l0 14.52l-13.63 0Z" id="p144w187" />
<path d="M309.84 681.06l9.89 0l0 14.52l-9.89 0Z" id="p144w188" />
<path d="M322.93 681.06l22.99 0l0 14.52l-22.99 0Z" id="p144w189" />
<path d="M349.14 681.06l13.9 0l0 14.52l-13.9 0Z" id="p144w190" />
<path d="M366.24 681.06l70.83 0l0 14.52l-70.83 0Z" id="p144w191" />
<path d="M440.28 681.06l13.63 0l0 14.52l-13.63 0Z" id="p144w192" />
<path d="M457.12 681.06l40.63 0l0 14.52l-40.63 0Z" id="p144w193" />
<path d="M500.95 681.06l13.9 0l0 14.52l-13.9 0Z" id="p144w194" />
<path d="M518.06 681.06l39.57 0l0 14.52l-39.57 0Z" id="p144w195" />
<path d="M143.75 697.73l25.41 0l0 14.52l-25.41 0Z" id="p144w196" />
<path d="M191.33 697.7l36.36 0l0 14.52l-36.36 0Z" id="p144w197" />
<path d="M259.75 697.73l13.63 0l0 14.52l-13.63 0Z" id="p144w198" />
<path d="M276.59 697.73l9.89 0l0 14.52l-9.89 0Z" id="p144w199" />
<path d="M289.69 697.73l22.99 0l0 14.52l-22.99 0Z" id="p144w200" />
<path d="M315.89 697.73l13.9 0l0 14.52l-13.9 0Z" id="p144w201" />
<path d="M332.99 697.73l70.83 0l0 14.52l-70.83 0Z" id="p144w202" />
<path d="M407.03 697.73l13.63 0l0 14.52l-13.63 0Z" id="p144w203" />
<path d="M423.87 697.73l40.63 0l0 14.52l-40.63 0Z" id="p144w204" />
<path d="M467.7 697.73l13.9 0l0 14.52l-13.9 0Z" id="p144w205" />
<path d="M484.81 697.73l39.57 0l0 14.52l-39.57 0Z" id="p144w206" />
<path d="M143.75 722.74l14.18 0l0 14.52l-14.18 0Z" id="p144w207" />
<path d="M161.14 722.74l27.36 0l0 14.52l-27.36 0Z" id="p144w208" />
<path d="M191.71 722.74l26.72 0l0 14.52l-26.72 0Z" id="p144w209" />
<path d="M221.63 722.74l40.1 0l0 14.52l-40.1 0Z" id="p144w210" />
<path d="M274.82 722.74l34.89 0l0 14.52l-34.89 0Z" id="p144w211" />
<path d="M312.91 722.74l34.75 0l0 14.52l-34.75 0Z" id="p144w212" />
<path d="M350.88 722.74l14.18 0l0 14.52l-14.18 0Z" id="p144w213" />
<path d="M368.26 722.74l45.43 0l0 14.52l-45.43 0Z" id="p144w214" />
<path d="M416.9 722.74l36.64 0l0 14.52l-36.64 0Z" id="p144w215" />
<path d="M143.75 739.41l25.41 0l0 14.52l-25.41 0Z" id="p144w216" />
<path d="M191.33 739.41l52.14 0l0 14.52l-52.14 0Z" id="p144w217" />
<path d="M246.68 739.41l10.43 0l0 14.52l-10.43 0Z" id="p144w218" />
<path d="M260.31 739.41l35.82 0l0 14.52l-35.82 0Z" id="p144w219" />
<path d="M328.19 739.41l34.89 0l0 14.52l-34.89 0Z" id="p144w220" />
<path d="M366.28 739.41l34.75 0l0 14.52l-34.75 0Z" id="p144w221" />
<path d="M404.24 739.41l14.18 0l0 14.52l-14.18 0Z" id="p144w222" />
<path d="M421.63 739.41l45.43 0l0 14.52l-45.43 0Z" id="p144w223" />
<path d="M470.26 739.41l36.64 0l0 14.52l-36.64 0Z" id="p144w224" />
<path d="M143.75 764.42l15.77 0l0 14.52l-15.77 0Z" id="p144w225" />
<path d="M172.62 764.42l30.99 0l0 14.52l-30.99 0Z" id="p144w226" />
<path d="M206.82 764.42l9.89 0l0 14.52l-9.89 0Z" id="p144w227" />
<path d="M219.91 764.42l34.74 0l0 14.52l-34.74 0Z" id="p144w228" />
<path d="M257.86 764.42l20.76 0l0 14.52l-20.76 0Z" id="p144w229" />
<path d="M291.72 764.42l14.18 0l0 14.52l-14.18 0Z" id="p144w230" />
<path d="M309.1 764.42l7.48 0l0 14.52l-7.48 0Z" id="p144w231" />
<path d="M316.58 764.42l14.16 0l0 14.52l-14.16 0Z" id="p144w232" />
<path d="M333.95 764.42l39.76 0l0 14.52l-39.76 0Z" id="p144w233" />
<path d="M376.92 764.42l13.9 0l0 14.52l-13.9 0Z" id="p144w234" />
<path d="M394.02 764.42l27.36 0l0 14.52l-27.36 0Z" id="p144w235" />
<path d="M143.75 781.09l25.41 0l0 14.52l-25.41 0Z" id="p144w236" />
<path d="M201.22 781.09l14.18 0l0 14.52l-14.18 0Z" id="p144w237" />
<path d="M218.6 781.09l7.48 0l0 14.52l-7.48 0Z" id="p144w238" />
<path d="M226.08 781.09l14.16 0l0 14.52l-14.16 0Z" id="p144w239" />
<path d="M243.45 781.09l43.83 0l0 14.52l-43.83 0Z" id="p144w240" />
<path d="M309.46 781.09l14.18 0l0 14.52l-14.18 0Z" id="p144w241" />
<path d="M336.73 781.09l30.99 0l0 14.52l-30.99 0Z" id="p144w242" />
<path d="M370.93 781.09l9.89 0l0 14.52l-9.89 0Z" id="p144w243" />
<path d="M384.02 781.09l34.74 0l0 14.52l-34.74 0Z" id="p144w244" />
<path d="M421.97 781.09l20.76 0l0 14.52l-20.76 0Z" id="p144w245" />
<path d="M445.94 781.09l13.9 0l0 14.52l-13.9 0Z" id="p144w246" />
<path d="M463.04 781.09l27.36 0l0 14.52l-27.36 0Z" id="p144w247" />
<path d="M143.75 806.08l12.57 0l0 14.52l-12.57 0Z" id="p144w248" />
<path d="M159.53 806.08l47.56 0l0 14.52l-47.56 0Z" id="p144w249" />
<path d="M210.29 806.08l33.95 0l0 14.52l-33.95 0Z" id="p144w250" />
<path d="M247.45 806.08l46.2 0l0 14.52l-46.2 0Z" id="p144w251" />
<path d="M296.85 806.08l40.65 0l0 14.52l-40.65 0Z" id="p144w252" />
<path d="M340.71 806.1l16.83 0l0 14.52l-16.83 0Z" id="p144w253" />
<path d="M360.75 806.1l9.89 0l0 14.52l-9.89 0Z" id="p144w254" />
<path d="M373.84 806.1l22.99 0l0 14.52l-22.99 0Z" id="p144w255" />
<path d="M400.04 806.1l23.99 0l0 14.52l-23.99 0Z" id="p144w256" />
<path d="M427.25 806.1l36.63 0l0 14.52l-36.63 0Z" id="p144w257" />
<path d="M467.08 806.1l46.51 0l0 14.52l-46.51 0Z" id="p144w258" />
<path d="M143.75 822.78l25.41 0l0 14.52l-25.41 0Z" id="p144w259" />
<path d="M191.33 822.75l70.83 0l0 14.52l-70.83 0Z" id="p144w260" />
<path d="M284.33 822.77l16.83 0l0 14.52l-16.83 0Z" id="p144w261" />
<path d="M304.36 822.77l9.89 0l0 14.52l-9.89 0Z" id="p144w262" />
<path d="M317.46 822.77l22.99 0l0 14.52l-22.99 0Z" id="p144w263" />
<path d="M343.66 822.77l24 0l0 14.52l-24 0Z" id="p144w264" />
<path d="M370.86 822.77l36.63 0l0 14.52l-36.63 0Z" id="p144w265" />
<path d="M410.7 822.77l46.52 0l0 14.52l-46.52 0Z" id="p144w266" />
<path d="M143.75 847.79l14.18 0l0 14.52l-14.18 0Z" id="p144w267" />
<path d="M161.14 847.79l23.52 0l0 14.52l-23.52 0Z" id="p144w268" />
<path d="M187.86 847.79l15.5 0l0 14.52l-15.5 0Z" id="p144w269" />
<path d="M206.57 847.79l26.98 0l0 14.52l-26.98 0Z" id="p144w270" />
<path d="M236.75 847.79l12.29 0l0 14.52l-12.29 0Z" id="p144w271" />
<path d="M252.25 847.79l55.32 0l0 14.52l-55.32 0Z" id="p144w272" />
<path d="M310.78 847.79l25.67 0l0 14.52l-25.67 0Z" id="p144w273" />
<path d="M339.66 847.79l15.5 0l0 14.52l-15.5 0Z" id="p144w274" />
<path d="M358.36 847.79l39.56 0l0 14.52l-39.56 0Z" id="p144w275" />
<path d="M143.75 864.46l25.41 0l0 14.52l-25.41 0Z" id="p144w276" />
<path d="M172.37 864.46l13.9 0l0 14.52l-13.9 0Z" id="p144w277" />
<path d="M189.47 864.46l23.52 0l0 14.52l-23.52 0Z" id="p144w278" />
<path d="M235.17 864.46l25.67 0l0 14.52l-25.67 0Z" id="p144w279" />
<path d="M264.05 864.46l9.89 0l0 14.52l-9.89 0Z" id="p144w280" />
<path d="M277.14 864.46l40.18 0l0 14.52l-40.18 0Z" id="p144w281" />
<path d="M320.52 864.46l13.9 0l0 14.52l-13.9 0Z" id="p144w282" />
<path d="M337.63 864.46l40.63 0l0 14.52l-40.63 0Z" id="p144w283" />
<path d="M400.43 864.46l15.5 0l0 14.52l-15.5 0Z" id="p144w284" />
<path d="M419.13 864.46l26.98 0l0 14.52l-26.98 0Z" id="p144w285" />
<path d="M449.32 864.46l12.29 0l0 14.52l-12.29 0Z" id="p144w286" />
<path d="M464.81 864.46l58 0l0 14.52l-58 0Z" id="p144w287" />
<path d="M39.89 316.03l48.07 0l0 12.29l-48.07 0Z" id="p144w288" />
<path d="M61.56 332.7l26.4 0l0 12.29l-26.4 0Z" id="p144w289" />
<path d="M124.06 38.6l16.59 0l0 16.09l-16.59 0Z" id="p144w290" />
<path d="M144.03 38.6l28.66 0l0 16.09l-28.66 0Z" id="p144w291" />
<path d="M186.89 38.6l99.65 0l0 16.09l-99.65 0Z" id="p144w292" />
<path d="M76.9 983l91.48 0l0 12.23l-91.48 0Z" id="p144w293" />
</svg>
