<?xml version="1.0" encoding="UTF-8"?>
<svg xmlns="http://www.w3.org/2000/svg" xmlns:xlink="http://www.w3.org/1999/xlink" version="1.1" baseProfile="full" width="768" height="1024" viewBox="0,0,768,1024" preserveAspectRatio="xMinYMin meet" >
<style type="text/css">
<![CDATA[
path {fill-opacity: 0.5;fill: #00aeef;visibility: hidden;}
]]>
</style>
<path d="M131.8 873.42l8.98 0l0 13.06l-8.98 0Z" id="p176w1" />
<path d="M143.64 873.42l54.25 0l0 13.06l-54.25 0Z" id="p176w2" />
<path d="M200.77 873.48l15.31 0l0 12.99l-15.31 0Z" id="p176w3" />
<path d="M218.94 873.48l62.38 0l0 12.99l-62.38 0Z" id="p176w4" />
<path d="M306.47 873.42l18.78 0l0 13.06l-18.78 0Z" id="p176w5" />
<path d="M328.11 873.42l66.09 0l0 13.06l-66.09 0Z" id="p176w6" />
<path d="M397.07 873.48l21.28 0l0 12.99l-21.28 0Z" id="p176w7" />
<path d="M421.22 873.48l50.94 0l0 12.99l-50.94 0Z" id="p176w8" />
<path d="M497.3 873.42l54.48 0l0 13.06l-54.48 0Z" id="p176w9" />
<path d="M559.3 873.42l60.45 0l0 13.06l-60.45 0Z" id="p176w10" />
<path d="M622.63 873.48l17.22 0l0 12.99l-17.22 0Z" id="p176w11" />
<path d="M642.72 873.48l22.24 0l0 12.99l-22.24 0Z" id="p176w12" />
<path d="M124.06 888.76l45.14 0l0 12.99l-45.14 0Z" id="p176w13" />
<path d="M172.07 888.76l49.05 0l0 12.99l-49.05 0Z" id="p176w14" />
<path d="M223.99 888.76l43.94 0l0 12.99l-43.94 0Z" id="p176w15" />
<path d="M270.48 888.76l47.69 0l0 12.99l-47.69 0Z" id="p176w16" />
<path d="M343.31 888.7l8.98 0l0 13.06l-8.98 0Z" id="p176w17" />
<path d="M355.16 888.7l40.72 0l0 13.06l-40.72 0Z" id="p176w18" />
<path d="M398.75 888.76l16.5 0l0 12.99l-16.5 0Z" id="p176w19" />
<path d="M418.12 888.76l49.8 0l0 12.99l-49.8 0Z" id="p176w20" />
<path d="M470.79 888.76l15.31 0l0 12.99l-15.31 0Z" id="p176w21" />
<path d="M488.57 888.76l34.91 0l0 12.99l-34.91 0Z" id="p176w22" />
<path d="M548.63 888.7l18.78 0l0 13.06l-18.78 0Z" id="p176w23" />
<path d="M570.27 888.7l37.43 0l0 13.06l-37.43 0Z" id="p176w24" />
<path d="M610.57 888.76l21.28 0l0 12.99l-21.28 0Z" id="p176w25" />
<path d="M634.72 888.76l50.66 0l0 12.99l-50.66 0Z" id="p176w26" />
<path d="M132.67 903.98l45.02 0l0 13.06l-45.02 0Z" id="p176w27" />
<path d="M180.56 903.98l11.34 0l0 13.06l-11.34 0Z" id="p176w28" />
<path d="M194.77 904.04l20.66 0l0 12.99l-20.66 0Z" id="p176w29" />
<path d="M218.29 904.04l60.51 0l0 12.99l-60.51 0Z" id="p176w30" />
<path d="M303.23 903.98l12.8 0l0 13.06l-12.8 0Z" id="p176w31" />
<path d="M318.9 903.98l44.88 0l0 13.06l-44.88 0Z" id="p176w32" />
<path d="M366.65 904.04l15.31 0l0 12.99l-15.31 0Z" id="p176w33" />
<path d="M384.51 904.04l55.01 0l0 12.99l-55.01 0Z" id="p176w34" />
<path d="M464.66 903.98l12.8 0l0 13.06l-12.8 0Z" id="p176w35" />
<path d="M480.33 903.98l65.62 0l0 13.06l-65.62 0Z" id="p176w36" />
<path d="M548.82 903.98l58.78 0l0 13.06l-58.78 0Z" id="p176w37" />
<path d="M610.46 904.04l15.31 0l0 12.99l-15.31 0Z" id="p176w38" />
<path d="M628.64 904.04l44.16 0l0 12.99l-44.16 0ZM124.06 919.32l66.23 0l0 12.99l-66.23 0Z" id="p176w39" />
<path d="M215.43 919.26l63.81 0l0 13.06l-63.81 0Z" id="p176w40" />
<path d="M286.77 919.26l69.78 0l0 13.06l-69.78 0Z" id="p176w41" />
<path d="M372.92 919.32l38.44 0l0 12.99l-38.44 0Z" id="p176w42" />
<path d="M414.23 919.32l63.62 0l0 12.99l-63.62 0Z" id="p176w43" />
<path d="M507.62 919.26l8.96 0l0 13.06l-8.96 0Z" id="p176w44" />
<path d="M519.46 919.26l22.95 0l0 13.06l-22.95 0Z" id="p176w45" />
<path d="M545.27 919.26l8.96 0l0 13.06l-8.96 0Z" id="p176w46" />
<path d="M557.11 919.26l20.9 0l0 13.06l-20.9 0Z" id="p176w47" />
<path d="M580.88 919.26l34.15 0l0 13.06l-34.15 0Z" id="p176w48" />
<path d="M617.9 919.32l17.46 0l0 12.99l-17.46 0Z" id="p176w49" />
<path d="M124.06 934.6l106.37 0l0 12.99l-106.37 0Z" id="p176w50" />
<path d="M233.3 934.6l24.4 0l0 12.99l-24.4 0Z" id="p176w51" />
<path d="M286.6 934.54l18.78 0l0 13.06l-18.78 0Z" id="p176w52" />
<path d="M308.25 934.54l18.27 0l0 13.06l-18.27 0Z" id="p176w53" />
<path d="M329.39 934.6l15.31 0l0 12.99l-15.31 0Z" id="p176w54" />
<path d="M347.56 934.6l18.65 0l0 12.99l-18.65 0Z" id="p176w55" />
<path d="M395.97 934.55l29.77 0l0 13.06l-29.77 0Z" id="p176w56" />
<path d="M428.52 934.61l43.76 0l0 12.99l-43.76 0Z" id="p176w57" />
<path d="M475.12 934.61l22.02 0l0 12.99l-22.02 0Z" id="p176w58" />
<path d="M526.44 934.55l8.77 0l0 13.06l-8.77 0Z" id="p176w59" />
<path d="M538.05 934.55l41.6 0l0 13.06l-41.6 0Z" id="p176w60" />
<path d="M582.43 934.61l14.98 0l0 12.99l-14.98 0Z" id="p176w61" />
<path d="M600.25 934.61l36.81 0l0 12.99l-36.81 0Z" id="p176w62" />
<path d="M76.9 983l107.46 0l0 12.23l-107.46 0Z" id="p176w63" />
<path d="M124.06 38.6l22.34 0l0 16.09l-22.34 0Z" id="p176w64" />
<path d="M149.78 38.6l34.85 0l0 16.09l-34.85 0Z" id="p176w65" />
<path d="M613.17 439.49l20.81 0l0 12.56l-20.81 0Z" id="p176w66" />
<path d="M636.68 439.49l31.57 0l0 12.56l-31.57 0Z" id="p176w67" />
<path d="M124.44 456.65l13.53 0l0 15.37l-13.53 0Z" id="p176w68" />
<path d="M141.35 456.65l36.85 0l0 15.37l-36.85 0Z" id="p176w69" />
<path d="M181.58 456.65l19.23 0l0 15.37l-19.23 0Z" id="p176w70" />
<path d="M204.18 456.65l10.56 0l0 15.37l-10.56 0Z" id="p176w71" />
<path d="M218.12 456.65l63.54 0l0 15.37l-63.54 0Z" id="p176w72" />
<path d="M285.03 456.65l81.68 0l0 15.37l-81.68 0Z" id="p176w73" />
<path d="M370.09 456.65l15.03 0l0 15.37l-15.03 0Z" id="p176w74" />
<path d="M388.5 456.65l41.31 0l0 15.37l-41.31 0Z" id="p176w75" />
<path d="M124.44 477.94l42.77 0l0 14.52l-42.77 0Z" id="p176w76" />
<path d="M170.42 477.94l44.9 0l0 14.52l-44.9 0Z" id="p176w77" />
<path d="M218.53 477.94l24.06 0l0 14.52l-24.06 0Z" id="p176w78" />
<path d="M245.8 477.94l15.5 0l0 14.52l-15.5 0Z" id="p176w79" />
<path d="M264.5 477.94l25.4 0l0 14.52l-25.4 0Z" id="p176w80" />
<path d="M293.1 477.94l60.95 0l0 14.52l-60.95 0Z" id="p176w81" />
<path d="M357.27 477.94l9.89 0l0 14.52l-9.89 0Z" id="p176w82" />
<path d="M370.36 477.94l49.13 0l0 14.52l-49.13 0Z" id="p176w83" />
<path d="M432.58 477.94l13.63 0l0 14.52l-13.63 0Z" id="p176w84" />
<path d="M449.42 477.94l19.51 0l0 14.52l-19.51 0Z" id="p176w85" />
<path d="M472.14 477.94l45.72 0l0 14.52l-45.72 0Z" id="p176w86" />
<path d="M521.07 477.94l13.9 0l0 14.52l-13.9 0Z" id="p176w87" />
<path d="M538.18 477.94l43.31 0l0 14.52l-43.31 0Z" id="p176w88" />
<path d="M584.69 477.94l12.83 0l0 14.52l-12.83 0Z" id="p176w89" />
<path d="M600.73 477.94l37.92 0l0 14.52l-37.92 0Z" id="p176w90" />
<path d="M124.44 494.61l17.38 0l0 14.52l-17.38 0Z" id="p176w91" />
<path d="M145.03 494.61l53.01 0l0 14.52l-53.01 0Z" id="p176w92" />
<path d="M201.25 494.61l9.89 0l0 14.52l-9.89 0Z" id="p176w93" />
<path d="M214.34 494.61l35.51 0l0 14.52l-35.51 0Z" id="p176w94" />
<path d="M253.06 494.61l33.62 0l0 14.52l-33.62 0Z" id="p176w95" />
<path d="M299.77 494.61l17.9 0l0 14.52l-17.9 0Z" id="p176w96" />
<path d="M320.88 494.61l20.85 0l0 14.52l-20.85 0Z" id="p176w97" />
<path d="M344.94 494.61l40.11 0l0 14.52l-40.11 0Z" id="p176w98" />
<path d="M388.26 494.61l30.94 0l0 14.52l-30.94 0Z" id="p176w99" />
<path d="M422.4 494.61l13.9 0l0 14.52l-13.9 0Z" id="p176w100" />
<path d="M439.25 494.61l24.68 0l0 14.52l-24.68 0Z" id="p176w101" />
<path d="M476.76 494.61l24.68 0l0 14.52l-24.68 0Z" id="p176w102" />
<path d="M504.65 494.61l11.22 0l0 14.52l-11.22 0Z" id="p176w103" />
<path d="M519.08 494.61l16.83 0l0 14.52l-16.83 0Z" id="p176w104" />
<path d="M539.11 494.61l40.9 0l0 14.52l-40.9 0Z" id="p176w105" />
<path d="M583.23 494.61l71.1 0l0 14.52l-71.1 0Z" id="p176w106" />
<path d="M124.45 511.28l13.9 0l0 14.52l-13.9 0Z" id="p176w107" />
<path d="M141.29 511.28l27.36 0l0 14.52l-27.36 0Z" id="p176w108" />
<path d="M171.86 511.28l12.83 0l0 14.52l-12.83 0Z" id="p176w109" />
<path d="M187.9 511.28l35.51 0l0 14.52l-35.51 0Z" id="p176w110" />
<path d="M226.61 511.28l16.83 0l0 14.52l-16.83 0Z" id="p176w111" />
<path d="M246.65 511.28l9.89 0l0 14.52l-9.89 0Z" id="p176w112" />
<path d="M259.74 511.28l54.26 0l0 14.52l-54.26 0Z" id="p176w113" />
<path d="M317.21 511.28l22.99 0l0 14.52l-22.99 0Z" id="p176w114" />
<path d="M343.41 511.28l32.55 0l0 14.52l-32.55 0Z" id="p176w115" />
<path d="M379.17 511.28l25.4 0l0 14.52l-25.4 0Z" id="p176w116" />
<path d="M407.77 511.28l49.1 0l0 14.52l-49.1 0Z" id="p176w117" />
<path d="M460.08 511.28l30.73 0l0 14.52l-30.73 0Z" id="p176w118" />
<path d="M494.02 511.28l46.18 0l0 14.52l-46.18 0Z" id="p176w119" />
<path d="M543.41 511.28l6.41 0l0 14.52l-6.41 0Z" id="p176w120" />
<path d="M553.03 511.28l42.24 0l0 14.52l-42.24 0Z" id="p176w121" />
<path d="M614.51 511.28l43.57 0l0 14.52l-43.57 0Z" id="p176w122" />
<path d="M124.45 527.95l62.71 0l0 14.52l-62.71 0Z" id="p176w123" />
<path d="M190.37 527.95l11.22 0l0 14.52l-11.22 0Z" id="p176w124" />
<path d="M204.79 527.95l12.29 0l0 14.52l-12.29 0Z" id="p176w125" />
<path d="M220.29 527.95l44.1 0l0 14.52l-44.1 0Z" id="p176w126" />
<path d="M267.6 527.95l16.83 0l0 14.52l-16.83 0Z" id="p176w127" />
<path d="M287.63 527.95l52.12 0l0 14.52l-52.12 0Z" id="p176w128" />
<path d="M124.45 544.62l12.83 0l0 14.52l-12.83 0Z" id="p176w129" />
<path d="M140.49 544.62l43.83 0l0 14.52l-43.83 0Z" id="p176w130" />
<path d="M187.53 544.62l16.83 0l0 14.52l-16.83 0Z" id="p176w131" />
<path d="M207.57 544.62l9.89 0l0 14.52l-9.89 0Z" id="p176w132" />
<path d="M220.66 544.62l37.9 0l0 14.52l-37.9 0Z" id="p176w133" />
<path d="M261.76 544.62l18.72 0l0 14.52l-18.72 0Z" id="p176w134" />
<path d="M280.48 544.62l28.87 0l0 14.52l-28.87 0Z" id="p176w135" />
<path d="M312.55 544.62l13.63 0l0 14.52l-13.63 0Z" id="p176w136" />
<path d="M329.39 544.62l37.92 0l0 14.52l-37.92 0Z" id="p176w137" />
<path d="M370.52 544.62l24.85 0l0 14.52l-24.85 0Z" id="p176w138" />
<path d="M398.59 544.62l35.27 0l0 14.52l-35.27 0Z" id="p176w139" />
<path d="M437.06 544.62l9.89 0l0 14.52l-9.89 0Z" id="p176w140" />
<path d="M450.16 544.62l25.4 0l0 14.52l-25.4 0Z" id="p176w141" />
<path d="M478.76 544.62l70.59 0l0 14.52l-70.59 0Z" id="p176w142" />
<path d="M552.56 544.62l9.89 0l0 14.52l-9.89 0Z" id="p176w143" />
<path d="M565.65 544.62l22.99 0l0 14.52l-22.99 0Z" id="p176w144" />
<path d="M591.85 544.62l37.96 0l0 14.52l-37.96 0Z" id="p176w145" />
<path d="M124.45 561.3l42.59 0l0 14.52l-42.59 0Z" id="p176w146" />
<path d="M170.25 561.3l9.89 0l0 14.52l-9.89 0Z" id="p176w147" />
<path d="M183.34 561.3l43.85 0l0 14.52l-43.85 0Z" id="p176w148" />
<path d="M230.4 561.3l15.77 0l0 14.52l-15.77 0Z" id="p176w149" />
<path d="M258.47 561.3l42.24 0l0 14.52l-42.24 0Z" id="p176w150" />
<path d="M303.92 561.3l59.79 0l0 14.52l-59.79 0Z" id="p176w151" />
<path d="M366.92 561.3l36.61 0l0 14.52l-36.61 0Z" id="p176w152" />
<path d="M406.74 561.3l43.5 0l0 14.52l-43.5 0Z" id="p176w153" />
<path d="M453.45 561.3l58 0l0 14.52l-58 0Z" id="p176w154" />
<path d="M514.66 561.3l11.22 0l0 14.52l-11.22 0Z" id="p176w155" />
<path d="M529.09 561.3l22.99 0l0 14.52l-22.99 0Z" id="p176w156" />
<path d="M555.29 561.3l13.9 0l0 14.52l-13.9 0Z" id="p176w157" />
<path d="M594.85 561.3l43.5 0l0 14.52l-43.5 0Z" id="p176w158" />
<path d="M641.56 561.3l40.9 0l0 14.52l-40.9 0Z" id="p176w159" />
<path d="M613.17 612.89l20.81 0l0 12.56l-20.81 0Z" id="p176w160" />
<path d="M636.68 612.89l31.57 0l0 12.56l-31.57 0Z" id="p176w161" />
<path d="M124.44 630.04l13.53 0l0 15.37l-13.53 0Z" id="p176w162" />
<path d="M155.56 630.04l16.85 0l0 15.37l-16.85 0Z" id="p176w163" />
<path d="M124.44 651.33l38.49 0l0 14.52l-38.49 0Z" id="p176w164" />
<path d="M166.14 651.33l9.89 0l0 14.52l-9.89 0Z" id="p176w165" />
<path d="M179.23 651.33l64.94 0l0 14.52l-64.94 0Z" id="p176w166" />
<path d="M247.38 651.33l13.9 0l0 14.52l-13.9 0Z" id="p176w167" />
<path d="M264.49 651.33l31.03 0l0 14.52l-31.03 0Z" id="p176w168" />
<path d="M298.73 651.33l28.62 0l0 14.52l-28.62 0Z" id="p176w169" />
<path d="M330.55 651.33l33.41 0l0 14.52l-33.41 0Z" id="p176w170" />
<path d="M367.17 651.33l25.67 0l0 14.52l-25.67 0Z" id="p176w171" />
<path d="M396.05 651.33l9.89 0l0 14.52l-9.89 0Z" id="p176w172" />
<path d="M409.14 651.33l50.5 0l0 14.52l-50.5 0Z" id="p176w173" />
<path d="M462.85 651.33l20.05 0l0 14.52l-20.05 0Z" id="p176w174" />
<path d="M492.41 651.33l28.33 0l0 14.52l-28.33 0Z" id="p176w175" />
<path d="M523.94 651.33l59.61 0l0 14.52l-59.61 0Z" id="p176w176" />
<path d="M586.76 651.33l25.67 0l0 14.52l-25.67 0Z" id="p176w177" />
<path d="M124.45 668l32.87 0l0 14.52l-32.87 0Z" id="p176w178" />
<path d="M160.52 668l13.9 0l0 14.52l-13.9 0Z" id="p176w179" />
<path d="M177.63 668l9.89 0l0 14.52l-9.89 0Z" id="p176w180" />
<path d="M190.72 668l18.99 0l0 14.52l-18.99 0Z" id="p176w181" />
<path d="M212.92 668l26.45 0l0 14.52l-26.45 0Z" id="p176w182" />
<path d="M242.58 668l33.42 0l0 14.52l-33.42 0Z" id="p176w183" />
<path d="M286.08 668.01l25.13 0l0 14.52l-25.13 0Z" id="p176w184" />
<path d="M314.42 668.01l33.41 0l0 14.52l-33.41 0Z" id="p176w185" />
<path d="M351.03 668.01l13.9 0l0 14.52l-13.9 0Z" id="p176w186" />
<path d="M368.14 668.01l40.57 0l0 14.52l-40.57 0Z" id="p176w187" />
<path d="M411.92 668.01l26.45 0l0 14.52l-26.45 0Z" id="p176w188" />
<path d="M441.58 668.01l38.32 0l0 14.52l-38.32 0Z" id="p176w189" />
<path d="M483.1 668.01l69.49 0l0 14.52l-69.49 0Z" id="p176w190" />
<path d="M555.81 668.01l20.85 0l0 14.52l-20.85 0Z" id="p176w191" />
<path d="M579.87 668.01l32.88 0l0 14.52l-32.88 0Z" id="p176w192" />
<path d="M615.96 668.01l9.89 0l0 14.52l-9.89 0Z" id="p176w193" />
<path d="M629.05 668.01l35.02 0l0 14.52l-35.02 0Z" id="p176w194" />
<path d="M124.44 684.68l51.58 0l0 14.52l-51.58 0Z" id="p176w195" />
<path d="M179.23 684.68l64.69 0l0 14.52l-64.69 0Z" id="p176w196" />
<path d="M247.13 684.68l30.73 0l0 14.52l-30.73 0Z" id="p176w197" />
<path d="M124.44 701.35l26.74 0l0 14.52l-26.74 0Z" id="p176w198" />
<path d="M154.39 701.35l9.89 0l0 14.52l-9.89 0Z" id="p176w199" />
<path d="M167.48 701.35l37.68 0l0 14.52l-37.68 0Z" id="p176w200" />
<path d="M205.17 701.35l34.49 0l0 14.52l-34.49 0Z" id="p176w201" />
<path d="M242.86 701.35l43.83 0l0 14.52l-43.83 0Z" id="p176w202" />
<path d="M289.91 701.35l19.51 0l0 14.52l-19.51 0Z" id="p176w203" />
<path d="M312.62 701.35l21.37 0l0 14.52l-21.37 0Z" id="p176w204" />
<path d="M129.88 718.54l6.51 0l0 8.42l-6.51 0Z" id="p176w205" />
<path d="M139.6 718.02l15.76 0l0 14.52l-15.76 0Z" id="p176w206" />
<path d="M164.98 718.02l72.53 0l0 14.52l-72.53 0Z" id="p176w207" />
<path d="M260.32 718.02l15.76 0l0 14.52l-15.76 0Z" id="p176w208" />
<path d="M285.7 718.02l9.89 0l0 14.52l-9.89 0Z" id="p176w209" />
<path d="M298.8 718.02l54.28 0l0 14.52l-54.28 0Z" id="p176w210" />
<path d="M369.78 718.02l15.76 0l0 14.52l-15.76 0Z" id="p176w211" />
<path d="M395.16 718.02l9.89 0l0 14.52l-9.89 0Z" id="p176w212" />
<path d="M408.25 718.02l47.04 0l0 14.52l-47.04 0Z" id="p176w213" />
<path d="M465.37 718.02l11.22 0l0 14.52l-11.22 0Z" id="p176w214" />
<path d="M479.8 718.02l9.89 0l0 14.52l-9.89 0Z" id="p176w215" />
<path d="M492.89 718.02l35.55 0l0 14.52l-35.55 0Z" id="p176w216" />
<path d="M551.25 718.02l15.76 0l0 14.52l-15.76 0Z" id="p176w217" />
<path d="M576.64 718.02l15.5 0l0 14.52l-15.5 0Z" id="p176w218" />
<path d="M595.34 718.02l21.37 0l0 14.52l-21.37 0Z" id="p176w219" />
<path d="M124.44 734.7l13.9 0l0 14.52l-13.9 0Z" id="p176w220" />
<path d="M141.55 734.7l9.89 0l0 14.52l-9.89 0Z" id="p176w221" />
<path d="M154.64 734.7l32.07 0l0 14.52l-32.07 0Z" id="p176w222" />
<path d="M189.92 734.7l47.83 0l0 14.52l-47.83 0Z" id="p176w223" />
<path d="M240.96 734.7l38.77 0l0 14.52l-38.77 0Z" id="p176w224" />
<path d="M302.55 734.7l15.76 0l0 14.52l-15.76 0Z" id="p176w225" />
<path d="M327.93 734.7l9.89 0l0 14.52l-9.89 0Z" id="p176w226" />
<path d="M341.02 734.7l36.09 0l0 14.52l-36.09 0Z" id="p176w227" />
<path d="M393.81 734.7l15.76 0l0 14.52l-15.76 0Z" id="p176w228" />
<path d="M419.19 734.7l9.89 0l0 14.52l-9.89 0Z" id="p176w229" />
<path d="M432.29 734.7l47.58 0l0 14.52l-47.58 0Z" id="p176w230" />
<path d="M502.14 734.7l15.76 0l0 14.52l-15.76 0Z" id="p176w231" />
<path d="M527.52 734.7l9.89 0l0 14.52l-9.89 0Z" id="p176w232" />
<path d="M540.62 734.7l40.63 0l0 14.52l-40.63 0Z" id="p176w233" />
<path d="M604.06 734.7l15.76 0l0 14.52l-15.76 0Z" id="p176w234" />
<path d="M629.44 734.7l15.5 0l0 14.52l-15.5 0Z" id="p176w235" />
<path d="M648.14 734.7l21.37 0l0 14.52l-21.37 0Z" id="p176w236" />
<path d="M124.45 751.37l68.95 0l0 14.52l-68.95 0Z" id="p176w237" />
<path d="M196.61 751.37l35.03 0l0 14.52l-35.03 0Z" id="p176w238" />
<path d="M234.85 751.37l56.14 0l0 14.52l-56.14 0Z" id="p176w239" />
<path d="M294.19 751.37l79.61 0l0 14.52l-79.61 0Z" id="p176w240" />
<path d="M377 751.37l11.22 0l0 14.52l-11.22 0Z" id="p176w241" />
<path d="M391.43 751.37l21.38 0l0 14.52l-21.38 0Z" id="p176w242" />
<path d="M423.24 751.37l9.89 0l0 14.52l-9.89 0Z" id="p176w243" />
<path d="M449.82 751.37l15.76 0l0 14.52l-15.76 0Z" id="p176w244" />
<path d="M475.2 751.37l9.89 0l0 14.52l-9.89 0Z" id="p176w245" />
<path d="M488.3 751.37l35.02 0l0 14.52l-35.02 0Z" id="p176w246" />
<path d="M526.52 751.37l51.58 0l0 14.52l-51.58 0Z" id="p176w247" />
<path d="M613.17 114.34l20.81 0l0 12.56l-20.81 0Z" id="p176w248" />
<path d="M636.68 114.34l31.57 0l0 12.56l-31.57 0Z" id="p176w249" />
<path d="M124.44 131.5l13.55 0l0 15.37l-13.55 0Z" id="p176w250" />
<path d="M141.37 131.5l63.83 0l0 15.37l-63.83 0Z" id="p176w251" />
<path d="M222.31 131.5l54.49 0l0 15.37l-54.49 0Z" id="p176w252" />
<path d="M124.44 152.79l50.76 0l0 14.52l-50.76 0Z" id="p176w253" />
<path d="M178.42 152.79l16.83 0l0 14.52l-16.83 0Z" id="p176w254" />
<path d="M198.45 152.79l20.85 0l0 14.52l-20.85 0Z" id="p176w255" />
<path d="M222.51 152.79l22.45 0l0 14.52l-22.45 0Z" id="p176w256" />
<path d="M248.17 152.79l21.37 0l0 14.52l-21.37 0Z" id="p176w257" />
<path d="M272.75 152.79l68.17 0l0 14.52l-68.17 0Z" id="p176w258" />
<path d="M344.13 152.79l13.91 0l0 14.52l-13.91 0Z" id="p176w259" />
<path d="M361.25 152.79l14.18 0l0 14.52l-14.18 0Z" id="p176w260" />
<path d="M378.64 152.79l35.56 0l0 14.52l-35.56 0Z" id="p176w261" />
<path d="M417.4 152.79l19.51 0l0 14.52l-19.51 0Z" id="p176w262" />
<path d="M440.12 152.79l52.92 0l0 14.52l-52.92 0Z" id="p176w263" />
<path d="M496.24 152.79l17.38 0l0 14.52l-17.38 0Z" id="p176w264" />
<path d="M516.83 152.79l48.92 0l0 14.52l-48.92 0Z" id="p176w265" />
<path d="M568.96 152.79l13.9 0l0 14.52l-13.9 0Z" id="p176w266" />
<path d="M586.06 152.79l54.55 0l0 14.52l-54.55 0Z" id="p176w267" />
<path d="M124.44 169.46l13.9 0l0 14.52l-13.9 0Z" id="p176w268" />
<path d="M141.55 169.46l25.4 0l0 14.52l-25.4 0Z" id="p176w269" />
<path d="M170.15 169.46l56.66 0l0 14.52l-56.66 0Z" id="p176w270" />
<path d="M230.02 169.46l15.77 0l0 14.52l-15.77 0Z" id="p176w271" />
<path d="M249.01 169.46l35.56 0l0 14.52l-35.56 0Z" id="p176w272" />
<path d="M287.77 169.46l26.73 0l0 14.52l-26.73 0Z" id="p176w273" />
<path d="M317.71 169.46l9.89 0l0 14.52l-9.89 0Z" id="p176w274" />
<path d="M330.8 169.46l22.45 0l0 14.52l-22.45 0Z" id="p176w275" />
<path d="M356.46 169.46l77.94 0l0 14.52l-77.94 0Z" id="p176w276" />
<path d="M437.61 169.46l79.39 0l0 14.52l-79.39 0Z" id="p176w277" />
<path d="M523.93 169.46l51.32 0l0 14.52l-51.32 0Z" id="p176w278" />
<path d="M578.45 169.46l69.76 0l0 14.52l-69.76 0Z" id="p176w279" />
<path d="M124.45 186.13l67.55 0l0 14.52l-67.55 0Z" id="p176w280" />
<path d="M198.93 186.13l11.22 0l0 14.52l-11.22 0Z" id="p176w281" />
<path d="M213.35 186.13l79.94 0l0 14.52l-79.94 0Z" id="p176w282" />
<path d="M296.49 186.13l29.66 0l0 14.52l-29.66 0Z" id="p176w283" />
<path d="M329.36 186.13l85 0l0 14.52l-85 0Z" id="p176w284" />
<path d="M417.57 186.13l16.83 0l0 14.52l-16.83 0Z" id="p176w285" />
<path d="M437.61 186.13l56.41 0l0 14.52l-56.41 0Z" id="p176w286" />
<path d="M497.23 186.13l13.9 0l0 14.52l-13.9 0Z" id="p176w287" />
<path d="M514.34 186.13l45.43 0l0 14.52l-45.43 0Z" id="p176w288" />
<path d="M566.69 186.13l26.45 0l0 14.52l-26.45 0Z" id="p176w289" />
<path d="M596.35 186.13l59.79 0l0 14.52l-59.79 0Z" id="p176w290" />
<path d="M124.45 202.81l13.9 0l0 14.52l-13.9 0Z" id="p176w291" />
<path d="M141.55 202.81l47.04 0l0 14.52l-47.04 0Z" id="p176w292" />
<path d="M613.17 256.06l20.81 0l0 12.56l-20.81 0Z" id="p176w293" />
<path d="M636.68 256.06l31.57 0l0 12.56l-31.57 0Z" id="p176w294" />
<path d="M124.44 273.22l13.55 0l0 15.37l-13.55 0Z" id="p176w295" />
<path d="M141.37 273.22l39.08 0l0 15.37l-39.08 0Z" id="p176w296" />
<path d="M183.83 273.22l69.15 0l0 15.37l-69.15 0Z" id="p176w297" />
<path d="M124.44 294.51l12.83 0l0 14.52l-12.83 0Z" id="p176w298" />
<path d="M140.48 294.51l39.57 0l0 14.52l-39.57 0Z" id="p176w299" />
<path d="M183.26 294.51l24.85 0l0 14.52l-24.85 0Z" id="p176w300" />
<path d="M211.32 294.51l28.06 0l0 14.52l-28.06 0Z" id="p176w301" />
<path d="M242.59 294.51l14.7 0l0 14.52l-14.7 0Z" id="p176w302" />
<path d="M260.5 294.51l41.37 0l0 14.52l-41.37 0Z" id="p176w303" />
<path d="M305.08 294.51l17.38 0l0 14.52l-17.38 0Z" id="p176w304" />
<path d="M325.67 294.51l12.29 0l0 14.52l-12.29 0Z" id="p176w305" />
<path d="M341.16 294.51l47.32 0l0 14.52l-47.32 0Z" id="p176w306" />
<path d="M401.58 294.51l19.51 0l0 14.52l-19.51 0Z" id="p176w307" />
<path d="M424.29 294.51l40.61 0l0 14.52l-40.61 0Z" id="p176w308" />
<path d="M468.11 294.51l13.9 0l0 14.52l-13.9 0Z" id="p176w309" />
<path d="M485.22 294.51l58.53 0l0 14.52l-58.53 0Z" id="p176w310" />
<path d="M546.95 294.51l13.9 0l0 14.52l-13.9 0Z" id="p176w311" />
<path d="M564.06 294.51l29.67 0l0 14.52l-29.67 0Z" id="p176w312" />
<path d="M596.94 294.51l15.77 0l0 14.52l-15.77 0Z" id="p176w313" />
<path d="M625.01 294.51l28.33 0l0 14.52l-28.33 0Z" id="p176w314" />
<path d="M124.44 311.18l43.83 0l0 14.52l-43.83 0Z" id="p176w315" />
<path d="M171.49 311.18l11.22 0l0 14.52l-11.22 0Z" id="p176w316" />
<path d="M185.91 311.18l14.18 0l0 14.52l-14.18 0Z" id="p176w317" />
<path d="M212.39 311.18l23.79 0l0 14.52l-23.79 0Z" id="p176w318" />
<path d="M239.38 311.18l13.9 0l0 14.52l-13.9 0Z" id="p176w319" />
<path d="M256.49 311.18l33.16 0l0 14.52l-33.16 0Z" id="p176w320" />
<path d="M292.85 311.18l18.44 0l0 14.52l-18.44 0Z" id="p176w321" />
<path d="M314.5 311.18l52.92 0l0 14.52l-52.92 0Z" id="p176w322" />
<path d="M370.62 311.18l24.33 0l0 14.52l-24.33 0Z" id="p176w323" />
<path d="M398.16 311.18l43.83 0l0 14.52l-43.83 0Z" id="p176w324" />
<path d="M445.2 311.18l11.22 0l0 14.52l-11.22 0Z" id="p176w325" />
<path d="M459.63 311.18l22.99 0l0 14.52l-22.99 0Z" id="p176w326" />
<path d="M485.83 311.18l32.87 0l0 14.52l-32.87 0Z" id="p176w327" />
<path d="M521.9 311.18l13.9 0l0 14.52l-13.9 0Z" id="p176w328" />
<path d="M539.01 311.18l38.5 0l0 14.52l-38.5 0Z" id="p176w329" />
<path d="M580.72 311.18l69.24 0l0 14.52l-69.24 0Z" id="p176w330" />
<path d="M124.44 327.85l18.44 0l0 14.52l-18.44 0Z" id="p176w331" />
<path d="M146.09 327.85l35 0l0 14.52l-35 0Z" id="p176w332" />
<path d="M184.3 327.85l18.72 0l0 14.52l-18.72 0Z" id="p176w333" />
<path d="M206.23 327.85l9.89 0l0 14.52l-9.89 0Z" id="p176w334" />
<path d="M219.32 327.85l35.27 0l0 14.52l-35.27 0Z" id="p176w335" />
<path d="M257.8 327.85l45.96 0l0 14.52l-45.96 0Z" id="p176w336" />
<path d="M306.96 327.85l42.77 0l0 14.52l-42.77 0Z" id="p176w337" />
<path d="M352.94 327.85l20.85 0l0 14.52l-20.85 0Z" id="p176w338" />
<path d="M377 327.85l15.5 0l0 14.52l-15.5 0Z" id="p176w339" />
<path d="M395.7 327.85l36.09 0l0 14.52l-36.09 0Z" id="p176w340" />
<path d="M435 327.85l13.9 0l0 14.52l-13.9 0Z" id="p176w341" />
<path d="M452.1 327.85l36.89 0l0 14.52l-36.89 0Z" id="p176w342" />
<path d="M492.2 327.85l85 0l0 14.52l-85 0Z" id="p176w343" />
<path d="M124.44 344.52l23.81 0l0 14.52l-23.81 0Z" id="p176w344" />
<path d="M161.35 344.52l61.22 0l0 14.52l-61.22 0Z" id="p176w345" />
<path d="M225.77 344.52l13.63 0l0 14.52l-13.63 0Z" id="p176w346" />
<path d="M242.62 344.52l21.66 0l0 14.52l-21.66 0Z" id="p176w347" />
<path d="M271.36 344.53l31.27 0l0 14.52l-31.27 0Z" id="p176w348" />
<path d="M312.25 344.53l9.89 0l0 14.52l-9.89 0Z" id="p176w349" />
<path d="M325.34 344.53l39.57 0l0 14.52l-39.57 0Z" id="p176w350" />
<path d="M368.12 344.53l41.43 0l0 14.52l-41.43 0Z" id="p176w351" />
<path d="M412.76 344.53l44.36 0l0 14.52l-44.36 0Z" id="p176w352" />
<path d="M460.33 344.53l41.43 0l0 14.52l-41.43 0Z" id="p176w353" />
<path d="M504.97 344.53l74.85 0l0 14.52l-74.85 0Z" id="p176w354" />
<path d="M592.92 344.53l45.72 0l0 14.52l-45.72 0Z" id="p176w355" />
<path d="M124.44 361.2l19.51 0l0 14.52l-19.51 0Z" id="p176w356" />
<path d="M147.16 361.2l55.04 0l0 14.52l-55.04 0Z" id="p176w357" />
<path d="M208.81 361.2l26.73 0l0 14.52l-26.73 0Z" id="p176w358" />
<path d="M238.75 361.2l9.89 0l0 14.52l-9.89 0Z" id="p176w359" />
<path d="M251.84 361.2l39.03 0l0 14.52l-39.03 0Z" id="p176w360" />
<path d="M294.08 361.2l34.23 0l0 14.52l-34.23 0Z" id="p176w361" />
<path d="M331.51 361.2l14.18 0l0 14.52l-14.18 0Z" id="p176w362" />
<path d="M348.63 361.2l27.36 0l0 14.52l-27.36 0Z" id="p176w363" />
<path d="M379.2 361.2l51.04 0l0 14.52l-51.04 0Z" id="p176w364" />
<path d="M433.45 361.2l13.9 0l0 14.52l-13.9 0Z" id="p176w365" />
<path d="M450.56 361.2l18.18 0l0 14.52l-18.18 0Z" id="p176w366" />
<path d="M471.94 361.2l45.72 0l0 14.52l-45.72 0Z" id="p176w367" />
<path d="M520.87 361.2l24.33 0l0 14.52l-24.33 0Z" id="p176w368" />
<path d="M548.41 361.2l53.19 0l0 14.52l-53.19 0Z" id="p176w369" />
<path d="M604.81 361.2l19.51 0l0 14.52l-19.51 0Z" id="p176w370" />
<path d="M124.44 377.87l78.56 0l0 14.52l-78.56 0Z" id="p176w371" />
<path d="M206.21 377.87l64.77 0l0 14.52l-64.77 0Z" id="p176w372" />
<path d="M284.32 377.87l24.85 0l0 14.52l-24.85 0Z" id="p176w373" />
<path d="M312.38 377.87l9.89 0l0 14.52l-9.89 0Z" id="p176w374" />
<path d="M325.48 377.87l18.18 0l0 14.52l-18.18 0Z" id="p176w375" />
<path d="M346.86 377.87l13.9 0l0 14.52l-13.9 0Z" id="p176w376" />
<path d="M363.97 377.87l9.89 0l0 14.52l-9.89 0Z" id="p176w377" />
<path d="M377.06 377.87l69.52 0l0 14.52l-69.52 0Z" id="p176w378" />
<path d="M449.79 377.87l13.9 0l0 14.52l-13.9 0Z" id="p176w379" />
<path d="M466.9 377.87l9.89 0l0 14.52l-9.89 0Z" id="p176w380" />
<path d="M479.99 377.87l63.88 0l0 14.52l-63.88 0Z" id="p176w381" />
<path d="M547.08 377.87l13.9 0l0 14.52l-13.9 0Z" id="p176w382" />
<path d="M564.19 377.87l9.89 0l0 14.52l-9.89 0Z" id="p176w383" />
<path d="M577.28 377.87l44.39 0l0 14.52l-44.39 0Z" id="p176w384" />
<path d="M624.88 377.87l13.9 0l0 14.52l-13.9 0Z" id="p176w385" />
<path d="M641.98 377.87l46.24 0l0 14.52l-46.24 0Z" id="p176w386" />
<path d="M124.44 394.54l11.22 0l0 14.52l-11.22 0Z" id="p176w387" />
<path d="M138.87 394.54l13.9 0l0 14.52l-13.9 0Z" id="p176w388" />
<path d="M155.97 394.54l12.83 0l0 14.52l-12.83 0Z" id="p176w389" />
<path d="M172.01 394.54l48.4 0l0 14.52l-48.4 0Z" id="p176w390" />
</svg>
