<?xml version="1.0" encoding="UTF-8"?>
<svg xmlns="http://www.w3.org/2000/svg" xmlns:xlink="http://www.w3.org/1999/xlink" version="1.1" baseProfile="full" width="768" height="1024" viewBox="0,0,768,1024" preserveAspectRatio="xMinYMin meet" >
<style type="text/css">
<![CDATA[
path {fill-opacity: 0.5;fill: #00aeef;visibility: hidden;}
]]>
</style>
<path d="M124.06 107.98l18.69 0l0 18.84l-18.69 0Z" id="p34w1" />
<path d="M146.4 107.98l59.1 0l0 18.84l-59.1 0Z" id="p34w2" />
<path d="M123.63 139.19l29.41 0l0 14.52l-29.41 0Z" id="p34w3" />
<path d="M156.24 139.19l81.27 0l0 14.52l-81.27 0Z" id="p34w4" />
<path d="M240.72 139.19l43.83 0l0 14.52l-43.83 0Z" id="p34w5" />
<path d="M297.65 139.19l35.56 0l0 14.52l-35.56 0Z" id="p34w6" />
<path d="M336.41 139.19l17.11 0l0 14.52l-17.11 0Z" id="p34w7" />
<path d="M356.73 139.19l34.74 0l0 14.52l-34.74 0Z" id="p34w8" />
<path d="M394.67 139.19l17.38 0l0 14.52l-17.38 0Z" id="p34w9" />
<path d="M415.26 139.19l47.86 0l0 14.52l-47.86 0Z" id="p34w10" />
<path d="M466.33 139.19l9.89 0l0 14.52l-9.89 0Z" id="p34w11" />
<path d="M479.43 139.19l22.17 0l0 14.52l-22.17 0Z" id="p34w12" />
<path d="M504.81 139.19l13.9 0l0 14.52l-13.9 0Z" id="p34w13" />
<path d="M521.92 139.19l9.89 0l0 14.52l-9.89 0Z" id="p34w14" />
<path d="M535.01 139.19l47.58 0l0 14.52l-47.58 0Z" id="p34w15" />
<path d="M595.69 139.19l49.46 0l0 14.52l-49.46 0Z" id="p34w16" />
<path d="M124.06 155.86l26.45 0l0 14.52l-26.45 0Z" id="p34w17" />
<path d="M153.72 155.86l6.41 0l0 14.52l-6.41 0Z" id="p34w18" />
<path d="M163.34 155.86l13.9 0l0 14.52l-13.9 0Z" id="p34w19" />
<path d="M180.45 155.86l56.68 0l0 14.52l-56.68 0Z" id="p34w20" />
<path d="M240.33 155.86l19.51 0l0 14.52l-19.51 0Z" id="p34w21" />
<path d="M263.05 155.86l25.67 0l0 14.52l-25.67 0Z" id="p34w22" />
<path d="M291.49 155.86l26.21 0l0 14.52l-26.21 0Z" id="p34w23" />
<path d="M320.92 155.86l13.37 0l0 14.52l-13.37 0Z" id="p34w24" />
<path d="M337.49 155.86l52.94 0l0 14.52l-52.94 0Z" id="p34w25" />
<path d="M143.75 180.87l36.89 0l0 14.52l-36.89 0Z" id="p34w26" />
<path d="M183.85 180.87l35.29 0l0 14.52l-35.29 0Z" id="p34w27" />
<path d="M222.36 180.87l9.89 0l0 14.52l-9.89 0Z" id="p34w28" />
<path d="M235.45 180.87l22.17 0l0 14.52l-22.17 0Z" id="p34w29" />
<path d="M260.83 180.87l13.9 0l0 14.52l-13.9 0Z" id="p34w30" />
<path d="M277.94 180.87l9.89 0l0 14.52l-9.89 0Z" id="p34w31" />
<path d="M291.03 180.87l47.58 0l0 14.52l-47.58 0Z" id="p34w32" />
<path d="M351.71 180.87l20.05 0l0 14.52l-20.05 0Z" id="p34w33" />
<path d="M384.85 180.87l49.46 0l0 14.52l-49.46 0Z" id="p34w34" />
<path d="M143.75 197.54l17.38 0l0 14.52l-17.38 0Z" id="p34w35" />
<path d="M164.34 197.54l49.18 0l0 14.52l-49.18 0Z" id="p34w36" />
<path d="M226.62 197.54l9.89 0l0 14.52l-9.89 0Z" id="p34w37" />
<path d="M239.71 197.54l22.17 0l0 14.52l-22.17 0Z" id="p34w38" />
<path d="M265.1 197.54l13.9 0l0 14.52l-13.9 0Z" id="p34w39" />
<path d="M282.2 197.54l9.89 0l0 14.52l-9.89 0Z" id="p34w40" />
<path d="M295.3 197.54l50.26 0l0 14.52l-50.26 0Z" id="p34w41" />
<path d="M143.75 214.21l12.57 0l0 14.52l-12.57 0Z" id="p34w42" />
<path d="M159.53 214.21l30.23 0l0 14.52l-30.23 0Z" id="p34w43" />
<path d="M192.96 214.21l25.4 0l0 14.52l-25.4 0Z" id="p34w44" />
<path d="M221.56 214.21l53.46 0l0 14.52l-53.46 0Z" id="p34w45" />
<path d="M143.75 230.88l12.57 0l0 14.52l-12.57 0Z" id="p34w46" />
<path d="M159.53 230.88l17.38 0l0 14.52l-17.38 0Z" id="p34w47" />
<path d="M180.12 230.88l16.83 0l0 14.52l-16.83 0Z" id="p34w48" />
<path d="M200.15 230.88l47.6 0l0 14.52l-47.6 0Z" id="p34w49" />
<path d="M250.96 230.88l28.33 0l0 14.52l-28.33 0Z" id="p34w50" />
<path d="M282.49 230.88l37.16 0l0 14.52l-37.16 0Z" id="p34w51" />
<path d="M143.75 247.55l53.19 0l0 14.52l-53.19 0Z" id="p34w52" />
<path d="M200.15 247.55l28.33 0l0 14.52l-28.33 0Z" id="p34w53" />
<path d="M231.69 247.55l58.82 0l0 14.52l-58.82 0Z" id="p34w54" />
<path d="M293.71 247.53l51.58 0l0 14.52l-51.58 0Z" id="p34w55" />
<path d="M348.5 247.55l62.84 0l0 14.52l-62.84 0Z" id="p34w56" />
<path d="M135.88 311.42l28.16 0l0 17.34l-28.16 0Z" id="p34w57" />
<path d="M166.5 311.42l13.64 0l0 17.34l-13.64 0Z" id="p34w58" />
<path d="M203.58 311.42l31.49 0l0 17.34l-31.49 0Z" id="p34w59" />
<path d="M237.54 311.42l25.49 0l0 17.34l-25.49 0Z" id="p34w60" />
<path d="M265.49 311.42l17.35 0l0 17.34l-17.35 0Z" id="p34w61" />
<path d="M285.31 311.42l19.28 0l0 17.34l-19.28 0Z" id="p34w62" />
<path d="M135.88 326.71l36.78 0l0 17.34l-36.78 0Z" id="p34w63" />
<path d="M179.14 326.71l29.93 0l0 17.34l-29.93 0Z" id="p34w64" />
<path d="M215.55 326.71l16.05 0l0 17.34l-16.05 0Z" id="p34w65" />
<path d="M259.82 326.71l21.12 0l0 17.34l-21.12 0Z" id="p34w66" />
<path d="M287.41 326.71l17.14 0l0 17.34l-17.14 0Z" id="p34w67" />
<path d="M135.88 341.99l33.39 0l0 17.34l-33.39 0Z" id="p34w68" />
<path d="M173.68 341.99l50.19 0l0 17.34l-50.19 0Z" id="p34w69" />
<path d="M228.28 341.99l17.02 0l0 17.34l-17.02 0Z" id="p34w70" />
<path d="M249.71 341.99l23.66 0l0 17.34l-23.66 0Z" id="p34w71" />
<path d="M288.88 341.99l15.69 0l0 17.34l-15.69 0Z" id="p34w72" />
<path d="M135.88 357.27l26.87 0l0 17.34l-26.87 0Z" id="p34w73" />
<path d="M167.29 357.27l12.25 0l0 17.34l-12.25 0Z" id="p34w74" />
<path d="M184.07 357.27l8.93 0l0 17.34l-8.93 0Z" id="p34w75" />
<path d="M197.54 357.27l51.01 0l0 17.34l-51.01 0Z" id="p34w76" />
<path d="M253.09 357.27l51.5 0l0 17.34l-51.5 0Z" id="p34w77" />
<path d="M135.88 372.55l11.98 0l0 17.34l-11.98 0Z" id="p34w78" />
<path d="M150.27 372.55l24.44 0l0 17.34l-24.44 0Z" id="p34w79" />
<path d="M177.13 372.55l10.47 0l0 17.34l-10.47 0Z" id="p34w80" />
<path d="M190.02 372.55l36.5 0l0 17.34l-36.5 0Z" id="p34w81" />
<path d="M228.94 372.55l21.21 0l0 17.34l-21.21 0Z" id="p34w82" />
<path d="M252.55 372.55l18.89 0l0 17.34l-18.89 0Z" id="p34w83" />
<path d="M273.86 372.55l30.74 0l0 17.34l-30.74 0Z" id="p34w84" />
<path d="M135.88 387.83l53.32 0l0 17.34l-53.32 0Z" id="p34w85" />
<path d="M199.17 387.83l20.59 0l0 17.34l-20.59 0Z" id="p34w86" />
<path d="M229.72 387.83l33.35 0l0 17.34l-33.35 0Z" id="p34w87" />
<path d="M273.04 387.83l31.54 0l0 17.34l-31.54 0Z" id="p34w88" />
<path d="M135.88 403.11l31.72 0l0 17.34l-31.72 0Z" id="p34w89" />
<path d="M171.4 403.11l20.59 0l0 17.34l-20.59 0Z" id="p34w90" />
<path d="M195.79 403.11l25.45 0l0 17.34l-25.45 0Z" id="p34w91" />
<path d="M225.04 403.11l12.22 0l0 17.34l-12.22 0Z" id="p34w92" />
<path d="M241.07 403.11l19.28 0l0 17.34l-19.28 0Z" id="p34w93" />
<path d="M264.15 403.11l40.42 0l0 17.34l-40.42 0Z" id="p34w94" />
<path d="M135.88 418.39l83.87 0l0 17.34l-83.87 0Z" id="p34w95" />
<path d="M222.67 418.39l25.2 0l0 17.34l-25.2 0Z" id="p34w96" />
<path d="M250.79 418.39l20.59 0l0 17.34l-20.59 0Z" id="p34w97" />
<path d="M135.88 433.67l35.27 0l0 17.34l-35.27 0Z" id="p34w98" />
<path d="M176.45 433.67l22.75 0l0 17.34l-22.75 0Z" id="p34w99" />
<path d="M204.51 433.67l42.39 0l0 17.34l-42.39 0Z" id="p34w100" />
<path d="M252.2 433.67l20.19 0l0 17.34l-20.19 0Z" id="p34w101" />
<path d="M277.7 433.67l26.87 0l0 17.34l-26.87 0Z" id="p34w102" />
<path d="M135.88 448.95l15.69 0l0 17.34l-15.69 0Z" id="p34w103" />
<path d="M155.09 448.95l90.77 0l0 17.34l-90.77 0Z" id="p34w104" />
<path d="M249.38 448.95l19.28 0l0 17.34l-19.28 0Z" id="p34w105" />
<path d="M272.18 448.95l32.4 0l0 17.34l-32.4 0ZM135.88 464.23l50.08 0l0 17.34l-50.08 0Z" id="p34w106" />
<path d="M195.61 464.23l78.73 0l0 17.34l-78.73 0Z" id="p34w107" />
<path d="M284 464.23l20.59 0l0 17.34l-20.59 0Z" id="p34w108" />
<path d="M135.88 479.52l42.75 0l0 17.34l-42.75 0Z" id="p34w109" />
<path d="M182.41 479.52l18.34 0l0 17.34l-18.34 0Z" id="p34w110" />
<path d="M204.53 479.52l16.96 0l0 17.34l-16.96 0Z" id="p34w111" />
<path d="M225.28 479.52l31.22 0l0 17.34l-31.22 0Z" id="p34w112" />
<path d="M260.28 479.52l17.74 0l0 17.34l-17.74 0Z" id="p34w113" />
<path d="M281.8 479.52l22.77 0l0 17.34l-22.77 0Z" id="p34w114" />
<path d="M135.88 494.8l54.95 0l0 17.34l-54.95 0Z" id="p34w115" />
<path d="M193.58 494.8l50.19 0l0 17.34l-50.19 0Z" id="p34w116" />
<path d="M246.52 494.8l16.99 0l0 17.34l-16.99 0Z" id="p34w117" />
<path d="M266.26 494.8l38.32 0l0 17.34l-38.32 0ZM135.88 510.08l73.17 0l0 17.34l-73.17 0Z" id="p34w118" />
<path d="M211.86 510.08l20.59 0l0 17.34l-20.59 0Z" id="p34w119" />
<path d="M235.27 510.08l47.5 0l0 17.34l-47.5 0Z" id="p34w120" />
<path d="M285.59 510.08l18.98 0l0 17.34l-18.98 0Z" id="p34w121" />
<path d="M152.7 525.36l74.46 0l0 17.34l-74.46 0Z" id="p34w122" />
<path d="M227.16 525.36l27.63 0l0 17.34l-27.63 0Z" id="p34w123" />
<path d="M259.28 525.36l20.23 0l0 17.34l-20.23 0ZM284 525.36l20.59 0l0 17.34l-20.59 0Z" id="p34w124" />
<path d="M332.14 311.39l49.25 0l0 17.34l-49.25 0Z" id="p34w125" />
<path d="M388.93 311.39l12.56 0l0 17.34l-12.56 0Z" id="p34w126" />
<path d="M409.03 311.39l19.28 0l0 17.34l-19.28 0Z" id="p34w127" />
<path d="M435.85 311.39l64.98 0l0 17.34l-64.98 0ZM332.14 326.71l38.39 0l0 17.34l-38.39 0Z" id="p34w128" />
<path d="M373.88 326.71l36.4 0l0 17.34l-36.4 0Z" id="p34w129" />
<path d="M413.64 326.71l16.46 0l0 17.34l-16.46 0Z" id="p34w130" />
<path d="M433.45 326.71l25.2 0l0 17.34l-25.2 0Z" id="p34w131" />
<path d="M462.01 326.71l38.83 0l0 17.34l-38.83 0Z" id="p34w132" />
<path d="M332.14 341.99l24.82 0l0 17.34l-24.82 0Z" id="p34w133" />
<path d="M360.21 341.99l26.82 0l0 17.34l-26.82 0Z" id="p34w134" />
<path d="M390.28 341.99l71.25 0l0 17.34l-71.25 0Z" id="p34w135" />
<path d="M474.53 341.99l26.31 0l0 17.34l-26.31 0ZM332.15 357.27l15.6 0l0 17.34l-15.6 0Z" id="p34w136" />
<path d="M356.36 357.27l54.29 0l0 17.34l-54.29 0Z" id="p34w137" />
<path d="M419.26 357.27l52.4 0l0 17.34l-52.4 0Z" id="p34w138" />
<path d="M480.26 357.27l20.59 0l0 17.34l-20.59 0Z" id="p34w139" />
<path d="M332.15 372.55l76.78 0l0 17.34l-76.78 0Z" id="p34w140" />
<path d="M412.7 372.55l47.24 0l0 17.34l-47.24 0Z" id="p34w141" />
<path d="M474.18 372.55l26.67 0l0 17.34l-26.67 0ZM332.15 387.83l29.41 0l0 17.34l-29.41 0Z" id="p34w142" />
<path d="M366.05 387.83l19.28 0l0 17.34l-19.28 0Z" id="p34w143" />
<path d="M406.66 387.83l14.5 0l0 17.34l-14.5 0Z" id="p34w144" />
<path d="M442.49 387.83l21.01 0l0 17.34l-21.01 0Z" id="p34w145" />
<path d="M468 387.83l10.47 0l0 17.34l-10.47 0Z" id="p34w146" />
<path d="M482.98 387.83l17.85 0l0 17.34l-17.85 0ZM332.15 403.12l42.91 0l0 17.34l-42.91 0Z" id="p34w147" />
<path d="M382.55 403.12l26 0l0 17.34l-26 0Z" id="p34w148" />
<path d="M416.04 403.12l84.8 0l0 17.34l-84.8 0Z" id="p34w149" />
<path d="M332.15 418.4l88.68 0l0 17.34l-88.68 0Z" id="p34w150" />
<path d="M427.25 418.4l21.93 0l0 17.34l-21.93 0Z" id="p34w151" />
<path d="M455.61 418.4l16.03 0l0 17.34l-16.03 0Z" id="p34w152" />
<path d="M478.07 418.4l22.77 0l0 17.34l-22.77 0Z" id="p34w153" />
<path d="M332.14 433.69l103.52 0l0 17.34l-103.52 0Z" id="p34w154" />
<path d="M439.62 433.69l37.51 0l0 17.34l-37.51 0Z" id="p34w155" />
<path d="M481.08 433.69l19.76 0l0 17.34l-19.76 0ZM332.14 448.98l33.31 0l0 17.34l-33.31 0Z" id="p34w156" />
<path d="M332.14 464.26l11.21 0l0 17.34l-11.21 0Z" id="p34w157" />
<path d="M350.32 464.26l36.5 0l0 17.34l-36.5 0Z" id="p34w158" />
<path d="M393.78 464.26l21.21 0l0 17.34l-21.21 0Z" id="p34w159" />
<path d="M421.95 464.26l19.78 0l0 17.34l-19.78 0Z" id="p34w160" />
<path d="M448.7 464.26l10.18 0l0 17.34l-10.18 0Z" id="p34w161" />
<path d="M465.84 464.26l35 0l0 17.34l-35 0Z" id="p34w162" />
<path d="M332.14 479.54l42.91 0l0 17.34l-42.91 0Z" id="p34w163" />
<path d="M379.04 479.54l21.35 0l0 17.34l-21.35 0Z" id="p34w164" />
<path d="M404.37 479.54l21.68 0l0 17.34l-21.68 0Z" id="p34w165" />
<path d="M430.04 479.54l16.99 0l0 17.34l-16.99 0Z" id="p34w166" />
<path d="M451.01 479.54l21.32 0l0 17.34l-21.32 0Z" id="p34w167" />
<path d="M476.38 479.54l24.46 0l0 17.34l-24.46 0Z" id="p34w168" />
<path d="M332.14 494.82l22.49 0l0 17.34l-22.49 0Z" id="p34w169" />
<path d="M357.18 494.82l53.66 0l0 17.34l-53.66 0Z" id="p34w170" />
<path d="M413.38 494.82l25.49 0l0 17.34l-25.49 0Z" id="p34w171" />
<path d="M441.41 494.82l17.35 0l0 17.34l-17.35 0Z" id="p34w172" />
<path d="M461.3 494.82l15.69 0l0 17.34l-15.69 0Z" id="p34w173" />
<path d="M479.54 494.82l21.32 0l0 17.34l-21.32 0Z" id="p34w174" />
<path d="M332.14 510.1l12.25 0l0 17.34l-12.25 0Z" id="p34w175" />
<path d="M351.04 510.1l8.93 0l0 17.34l-8.93 0Z" id="p34w176" />
<path d="M366.63 510.1l44.7 0l0 17.34l-44.7 0Z" id="p34w177" />
<path d="M417.99 510.1l16.05 0l0 17.34l-16.05 0Z" id="p34w178" />
<path d="M462.62 510.1l21.12 0l0 17.34l-21.12 0Z" id="p34w179" />
<path d="M490.38 510.1l10.47 0l0 17.34l-10.47 0Z" id="p34w180" />
<path d="M332.14 525.38l51.5 0l0 17.34l-51.5 0Z" id="p34w181" />
<path d="M388 525.38l17.74 0l0 17.34l-17.74 0Z" id="p34w182" />
<path d="M410.09 525.38l26.12 0l0 17.34l-26.12 0Z" id="p34w183" />
<path d="M440.56 525.38l60.28 0l0 17.34l-60.28 0ZM528.41 311.42l48.29 0l0 17.34l-48.29 0Z" id="p34w184" />
<path d="M579.47 311.42l24.96 0l0 17.34l-24.96 0Z" id="p34w185" />
<path d="M607.2 311.42l57.87 0l0 17.34l-57.87 0Z" id="p34w186" />
<path d="M667.85 311.42l29.26 0l0 17.34l-29.26 0Z" id="p34w187" />
<path d="M528.41 326.71l24.6 0l0 17.34l-24.6 0Z" id="p34w188" />
<path d="M558.3 326.71l43.43 0l0 17.34l-43.43 0Z" id="p34w189" />
<path d="M601.72 326.71l30.36 0l0 17.34l-30.36 0Z" id="p34w190" />
<path d="M637.37 326.71l28.6 0l0 17.34l-28.6 0Z" id="p34w191" />
<path d="M671.25 326.71l25.86 0l0 17.34l-25.86 0Z" id="p34w192" />
<path d="M528.41 341.99l59.15 0l0 17.34l-59.15 0Z" id="p34w193" />
<path d="M589.91 341.99l27.03 0l0 17.34l-27.03 0Z" id="p34w194" />
<path d="M619.29 341.99l17 0l0 17.34l-17 0Z" id="p34w195" />
<path d="M638.65 341.99l23.64 0l0 17.34l-23.64 0Z" id="p34w196" />
<path d="M664.65 341.99l32.47 0l0 17.34l-32.47 0ZM528.41 357.28l31.26 0l0 17.34l-31.26 0Z" id="p34w197" />
<path d="M563.49 357.28l18.73 0l0 17.34l-18.73 0Z" id="p34w198" />
<path d="M586.04 357.28l67.37 0l0 17.34l-67.37 0Z" id="p34w199" />
<path d="M657.23 357.28l39.88 0l0 17.34l-39.88 0Z" id="p34w200" />
<path d="M528.41 372.56l48.09 0l0 17.34l-48.09 0Z" id="p34w201" />
<path d="M584.57 372.56l17.53 0l0 17.34l-17.53 0Z" id="p34w202" />
<path d="M602.11 372.56l29.66 0l0 17.34l-29.66 0Z" id="p34w203" />
<path d="M639.84 372.56l20.13 0l0 17.34l-20.13 0Z" id="p34w204" />
<path d="M668.03 372.56l29.08 0l0 17.34l-29.08 0Z" id="p34w205" />
<path d="M528.41 387.84l43.9 0l0 17.34l-43.9 0Z" id="p34w206" />
<path d="M577.04 387.84l29.98 0l0 17.34l-29.98 0Z" id="p34w207" />
<path d="M611.76 387.84l15.83 0l0 17.34l-15.83 0Z" id="p34w208" />
<path d="M632.32 387.84l16.82 0l0 17.34l-16.82 0Z" id="p34w209" />
<path d="M653.87 387.84l21.49 0l0 17.34l-21.49 0Z" id="p34w210" />
<path d="M680.09 387.84l17 0l0 17.34l-17 0ZM528.41 403.12l32.32 0l0 17.34l-32.32 0Z" id="p34w211" />
<path d="M566.12 403.12l20.4 0l0 17.34l-20.4 0Z" id="p34w212" />
<path d="M591.9 403.12l20.13 0l0 17.34l-20.13 0Z" id="p34w213" />
<path d="M617.41 403.12l40.45 0l0 17.34l-40.45 0Z" id="p34w214" />
<path d="M663.24 403.12l33.88 0l0 17.34l-33.88 0Z" id="p34w215" />
<path d="M528.41 418.4l24.19 0l0 17.34l-24.19 0Z" id="p34w216" />
<path d="M558.89 418.4l38.97 0l0 17.34l-38.97 0Z" id="p34w217" />
<path d="M604.15 418.4l53.27 0l0 17.34l-53.27 0Z" id="p34w218" />
<path d="M663.71 418.4l33.4 0l0 17.34l-33.4 0Z" id="p34w219" />
<path d="M528.41 433.68l18.16 0l0 17.34l-18.16 0Z" id="p34w220" />
<path d="M557.34 433.68l108.08 0l0 17.34l-108.08 0Z" id="p34w221" />
<path d="M676.19 433.68l20.91 0l0 17.34l-20.91 0Z" id="p34w222" />
<path d="M528.41 448.96l12.4 0l0 17.34l-12.4 0Z" id="p34w223" />
<path d="M540.65 448.96l18.15 0l0 17.34l-18.15 0Z" id="p34w224" />
<path d="M566.61 448.96l34.25 0l0 17.34l-34.25 0Z" id="p34w225" />
<path d="M608.67 448.96l16.82 0l0 17.34l-16.82 0Z" id="p34w226" />
<path d="M633.31 448.96l63.8 0l0 17.34l-63.8 0Z" id="p34w227" />
<path d="M528.41 464.24l22.53 0l0 17.34l-22.53 0Z" id="p34w228" />
<path d="M550.94 464.24l20.91 0l0 17.34l-20.91 0Z" id="p34w229" />
<path d="M576.08 464.24l12.09 0l0 17.34l-12.09 0Z" id="p34w230" />
<path d="M592.4 464.24l52.86 0l0 17.34l-52.86 0Z" id="p34w231" />
<path d="M649.49 464.24l19.56 0l0 17.34l-19.56 0Z" id="p34w232" />
<path d="M673.28 464.24l23.85 0l0 17.34l-23.85 0ZM528.41 479.53l33.58 0l0 17.34l-33.58 0Z" id="p34w233" />
<path d="M569.41 479.53l64.84 0l0 17.34l-64.84 0Z" id="p34w234" />
<path d="M641.66 479.53l55.45 0l0 17.34l-55.45 0Z" id="p34w235" />
<path d="M528.41 494.81l12.92 0l0 17.34l-12.92 0Z" id="p34w236" />
<path d="M548.5 494.81l76.47 0l0 17.34l-76.47 0Z" id="p34w237" />
<path d="M632.14 494.81l27.76 0l0 17.34l-27.76 0Z" id="p34w238" />
<path d="M667.07 494.81l30.05 0l0 17.34l-30.05 0Z" id="p34w239" />
<path d="M528.41 510.09l15.83 0l0 17.34l-15.83 0Z" id="p34w240" />
<path d="M549.46 510.09l16.82 0l0 17.34l-16.82 0Z" id="p34w241" />
<path d="M571.5 510.09l77.2 0l0 17.34l-77.2 0Z" id="p34w242" />
<path d="M653.92 510.09l16.82 0l0 17.34l-16.82 0Z" id="p34w243" />
<path d="M675.96 510.09l21.13 0l0 17.34l-21.13 0Z" id="p34w244" />
<path d="M528.41 525.37l12.09 0l0 17.34l-12.09 0Z" id="p34w245" />
<path d="M543.36 525.37l36.94 0l0 17.34l-36.94 0Z" id="p34w246" />
<path d="M627.59 528.48l69.52 0l0 13.12l-69.52 0Z" id="p34w247" />
<path d="M135.88 275.67l114.08 0l0 26.92l-114.08 0Z" id="p34w248" />
<path d="M254.18 275.67l125.15 0l0 26.92l-125.15 0Z" id="p34w249" />
<path d="M383.55 275.67l16.75 0l0 26.92l-16.75 0Z" id="p34w250" />
<path d="M404.52 275.67l27.02 0l0 26.92l-27.02 0Z" id="p34w251" />
<path d="M435.76 275.67l34.49 0l0 26.92l-34.49 0Z" id="p34w252" />
<path d="M40.54 140.96l48.07 0l0 12.29l-48.07 0Z" id="p34w253" />
<path d="M44.21 157.7l44.24 0l0 12.3l-44.24 0Z" id="p34w254" />
<path d="M124.06 605.39l29.23 0l0 18.84l-29.23 0Z" id="p34w255" />
<path d="M156.94 605.39l70.5 0l0 18.84l-70.5 0Z" id="p34w256" />
<path d="M231.09 605.39l23.78 0l0 18.84l-23.78 0Z" id="p34w257" />
<path d="M258.51 605.39l19.04 0l0 18.84l-19.04 0Z" id="p34w258" />
<path d="M281.2 605.39l55.72 0l0 18.84l-55.72 0Z" id="p34w259" />
<path d="M348.04 605.39l27.88 0l0 18.84l-27.88 0Z" id="p34w260" />
<path d="M379.57 605.39l29.68 0l0 18.84l-29.68 0Z" id="p34w261" />
<path d="M123.7 847.78l51.42 0l0 14.52l-51.42 0Z" id="p34w262" />
<path d="M188.22 847.78l36.61 0l0 14.52l-36.61 0Z" id="p34w263" />
<path d="M234.46 847.78l14.18 0l0 14.52l-14.18 0Z" id="p34w264" />
<path d="M251.84 847.78l29.39 0l0 14.52l-29.39 0Z" id="p34w265" />
<path d="M284.44 847.78l16.83 0l0 14.52l-16.83 0Z" id="p34w266" />
<path d="M304.48 847.78l9.89 0l0 14.52l-9.89 0Z" id="p34w267" />
<path d="M317.57 847.78l61.22 0l0 14.52l-61.22 0Z" id="p34w268" />
<path d="M382 847.78l15.5 0l0 14.52l-15.5 0Z" id="p34w269" />
<path d="M400.7 847.78l24.59 0l0 14.52l-24.59 0Z" id="p34w270" />
<path d="M428.5 847.78l35 0l0 14.52l-35 0Z" id="p34w271" />
<path d="M466.71 847.78l24.33 0l0 14.52l-24.33 0Z" id="p34w272" />
<path d="M494.25 847.78l19.51 0l0 14.52l-19.51 0Z" id="p34w273" />
<path d="M516.96 847.78l26.46 0l0 14.52l-26.46 0Z" id="p34w274" />
<path d="M546.63 847.78l27.8 0l0 14.52l-27.8 0Z" id="p34w275" />
<path d="M577.64 847.78l40.64 0l0 14.52l-40.64 0Z" id="p34w276" />
<path d="M124.06 864.45l41.92 0l0 14.52l-41.92 0Z" id="p34w277" />
<path d="M169.19 864.45l9.89 0l0 14.52l-9.89 0Z" id="p34w278" />
<path d="M182.28 864.45l58.54 0l0 14.52l-58.54 0Z" id="p34w279" />
<path d="M244.03 864.45l58.79 0l0 14.52l-58.79 0Z" id="p34w280" />
<path d="M306.02 864.45l15.5 0l0 14.52l-15.5 0Z" id="p34w281" />
<path d="M324.73 864.45l23.79 0l0 14.52l-23.79 0Z" id="p34w282" />
<path d="M351.72 864.45l17.38 0l0 14.52l-17.38 0Z" id="p34w283" />
<path d="M372.31 864.45l40.09 0l0 14.52l-40.09 0Z" id="p34w284" />
<path d="M415.6 864.45l23.97 0l0 14.52l-23.97 0Z" id="p34w285" />
<path d="M442.78 864.45l40.18 0l0 14.52l-40.18 0Z" id="p34w286" />
<path d="M486.17 864.45l13.91 0l0 14.52l-13.91 0Z" id="p34w287" />
<path d="M503.29 864.45l30.65 0l0 14.52l-30.65 0Z" id="p34w288" />
<path d="M537.14 864.45l22.17 0l0 14.52l-22.17 0Z" id="p34w289" />
<path d="M562.53 864.45l17.38 0l0 14.52l-17.38 0Z" id="p34w290" />
<path d="M583.12 864.45l21.38 0l0 14.52l-21.38 0Z" id="p34w291" />
<path d="M617.59 864.45l20.06 0l0 14.52l-20.06 0Z" id="p34w292" />
<path d="M138.22 889.47l68.61 0l0 14.52l-68.61 0Z" id="p34w293" />
<path d="M210.04 889.47l41.71 0l0 14.52l-41.71 0Z" id="p34w294" />
<path d="M254.96 889.47l46.26 0l0 14.52l-46.26 0Z" id="p34w295" />
<path d="M304.43 889.47l17.11 0l0 14.52l-17.11 0Z" id="p34w296" />
<path d="M324.74 889.47l14.18 0l0 14.52l-14.18 0Z" id="p34w297" />
<path d="M342.12 889.47l42.86 0l0 14.52l-42.86 0Z" id="p34w298" />
<path d="M388.19 889.47l22.99 0l0 14.52l-22.99 0Z" id="p34w299" />
<path d="M414.39 889.47l49.44 0l0 14.52l-49.44 0Z" id="p34w300" />
<path d="M467.04 889.47l18.72 0l0 14.52l-18.72 0Z" id="p34w301" />
<path d="M488.97 889.47l54 0l0 14.52l-54 0Z" id="p34w302" />
<path d="M138.22 906.14l11.22 0l0 14.52l-11.22 0Z" id="p34w303" />
<path d="M152.65 906.14l18.72 0l0 14.52l-18.72 0Z" id="p34w304" />
<path d="M174.57 906.14l53.19 0l0 14.52l-53.19 0Z" id="p34w305" />
<path d="M230.54 906.14l29.41 0l0 14.52l-29.41 0Z" id="p34w306" />
<path d="M263.15 906.14l7.48 0l0 14.52l-7.48 0Z" id="p34w307" />
<path d="M270.64 906.14l14.43 0l0 14.52l-14.43 0Z" id="p34w308" />
<path d="M298.16 906.14l28.06 0l0 14.52l-28.06 0Z" id="p34w309" />
<path d="M329.43 906.14l13.9 0l0 14.52l-13.9 0Z" id="p34w310" />
<path d="M346.53 906.14l9.89 0l0 14.52l-9.89 0Z" id="p34w311" />
<path d="M359.63 906.14l27.73 0l0 14.52l-27.73 0Z" id="p34w312" />
<path d="M406.6 906.14l25.4 0l0 14.52l-25.4 0Z" id="p34w313" />
<path d="M435.2 906.14l25.67 0l0 14.52l-25.67 0Z" id="p34w314" />
<path d="M464.08 906.14l29.69 0l0 14.52l-29.69 0Z" id="p34w315" />
<path d="M138.76 931.15l32.87 0l0 14.52l-32.87 0Z" id="p34w316" />
<path d="M174.84 931.15l40.89 0l0 14.52l-40.89 0Z" id="p34w317" />
<path d="M218.94 931.15l59.7 0l0 14.52l-59.7 0Z" id="p34w318" />
<path d="M281.84 931.15l25.67 0l0 14.52l-25.67 0Z" id="p34w319" />
<path d="M310.72 931.15l39.85 0l0 14.52l-39.85 0Z" id="p34w320" />
<path d="M353.78 931.15l9.89 0l0 14.52l-9.89 0Z" id="p34w321" />
<path d="M366.87 931.15l7.48 0l0 14.52l-7.48 0Z" id="p34w322" />
<path d="M374.36 931.15l25.38 0l0 14.52l-25.38 0Z" id="p34w323" />
<path d="M402.95 931.15l13.91 0l0 14.52l-13.91 0Z" id="p34w324" />
<path d="M420.07 931.15l67.83 0l0 14.52l-67.83 0Z" id="p34w325" />
<path d="M151.66 581.11l60.81 0l0 12.56l-60.81 0Z" id="p34w326" />
<path d="M60.68 849.56l27.93 0l0 12.29l-27.93 0Z" id="p34w327" />
<path d="M522.56 627.56l15.07 0l0 12.56l-15.07 0Z" id="p34w328" />
<path d="M540.34 627.56l16.87 0l0 12.56l-16.87 0Z" id="p34w329" />
<path d="M139.89 646.69l34.89 0l0 15.37l-34.89 0Z" id="p34w330" />
<path d="M178.16 646.69l32.82 0l0 15.37l-32.82 0Z" id="p34w331" />
<path d="M214.35 646.69l23.62 0l0 15.37l-23.62 0Z" id="p34w332" />
<path d="M241.35 646.69l14.77 0l0 15.37l-14.77 0Z" id="p34w333" />
<path d="M259.49 646.69l25.79 0l0 15.37l-25.79 0Z" id="p34w334" />
<path d="M288.65 646.69l43.02 0l0 15.37l-43.02 0Z" id="p34w335" />
<path d="M139.89 667.98l41.97 0l0 14.52l-41.97 0Z" id="p34w336" />
<path d="M185.07 667.98l37.16 0l0 14.52l-37.16 0Z" id="p34w337" />
<path d="M225.44 667.98l9.89 0l0 14.52l-9.89 0Z" id="p34w338" />
<path d="M257.74 667.98l6.41 0l0 14.52l-6.41 0Z" id="p34w339" />
<path d="M286.34 667.98l9.89 0l0 14.52l-9.89 0Z" id="p34w340" />
<path d="M299.43 667.98l22.17 0l0 14.52l-22.17 0Z" id="p34w341" />
<path d="M329.86 667.98l9.89 0l0 14.52l-9.89 0Z" id="p34w342" />
<path d="M342.95 667.98l40.18 0l0 14.52l-40.18 0Z" id="p34w343" />
<path d="M386.34 667.98l13.9 0l0 14.52l-13.9 0Z" id="p34w344" />
<path d="M139.89 692.99l29.66 0l0 14.52l-29.66 0Z" id="p34w345" />
<path d="M172.76 692.99l22.17 0l0 14.52l-22.17 0Z" id="p34w346" />
<path d="M203.18 692.99l13.9 0l0 14.52l-13.9 0Z" id="p34w347" />
<path d="M220.29 692.99l40.18 0l0 14.52l-40.18 0Z" id="p34w348" />
<path d="M263.68 692.99l32.6 0l0 14.52l-32.6 0Z" id="p34w349" />
<path d="M299.48 692.99l36.89 0l0 14.52l-36.89 0Z" id="p34w350" />
<path d="M356.11 692.99l20.05 0l0 14.52l-20.05 0Z" id="p34w351" />
<path d="M384.41 692.99l6.96 0l0 14.52l-6.96 0Z" id="p34w352" />
<path d="M394.57 692.99l25.4 0l0 14.52l-25.4 0Z" id="p34w353" />
<path d="M439.7 692.99l27.01 0l0 14.52l-27.01 0Z" id="p34w354" />
<path d="M474.96 692.99l20.85 0l0 14.52l-20.85 0Z" id="p34w355" />
<path d="M499.02 692.99l49.71 0l0 14.52l-49.71 0Z" id="p34w356" />
<path d="M139.89 709.66l29.66 0l0 14.52l-29.66 0Z" id="p34w357" />
<path d="M172.76 709.66l22.17 0l0 14.52l-22.17 0Z" id="p34w358" />
<path d="M203.18 709.66l13.9 0l0 14.52l-13.9 0Z" id="p34w359" />
<path d="M220.29 709.66l40.18 0l0 14.52l-40.18 0Z" id="p34w360" />
<path d="M273.56 709.66l20.05 0l0 14.52l-20.05 0Z" id="p34w361" />
<path d="M296.82 709.66l26.73 0l0 14.52l-26.73 0Z" id="p34w362" />
<path d="M326.75 709.66l9.89 0l0 14.52l-9.89 0Z" id="p34w363" />
<path d="M339.85 709.66l18.18 0l0 14.52l-18.18 0Z" id="p34w364" />
<path d="M366.27 709.66l26.73 0l0 14.52l-26.73 0Z" id="p34w365" />
<path d="M396.21 709.66l14.18 0l0 14.52l-14.18 0Z" id="p34w366" />
<path d="M413.59 709.66l24.33 0l0 14.52l-24.33 0Z" id="p34w367" />
<path d="M139.89 726.33l26.73 0l0 14.52l-26.73 0Z" id="p34w368" />
<path d="M169.83 726.33l20.85 0l0 14.52l-20.85 0Z" id="p34w369" />
<path d="M193.89 726.33l25.38 0l0 14.52l-25.38 0Z" id="p34w370" />
<path d="M222.48 726.33l13.9 0l0 14.52l-13.9 0Z" id="p34w371" />
<path d="M239.59 726.33l44.39 0l0 14.52l-44.39 0Z" id="p34w372" />
<path d="M292.23 726.33l26.19 0l0 14.52l-26.19 0Z" id="p34w373" />
<path d="M321.62 726.33l14.18 0l0 14.52l-14.18 0Z" id="p34w374" />
<path d="M339 726.33l41.71 0l0 14.52l-41.71 0Z" id="p34w375" />
<path d="M383.92 726.33l13.9 0l0 14.52l-13.9 0Z" id="p34w376" />
<path d="M401.03 726.33l27.53 0l0 14.52l-27.53 0Z" id="p34w377" />
<path d="M431.77 726.33l15.79 0l0 14.52l-15.79 0Z" id="p34w378" />
<path d="M139.89 743l43.74 0l0 14.52l-43.74 0Z" id="p34w379" />
<path d="M186.84 743l16.83 0l0 14.52l-16.83 0Z" id="p34w380" />
<path d="M206.88 743l44.03 0l0 14.52l-44.03 0Z" id="p34w381" />
<path d="M259.16 743l47.58 0l0 14.52l-47.58 0Z" id="p34w382" />
<path d="M139.89 759.67l20.58 0l0 14.52l-20.58 0Z" id="p34w383" />
<path d="M163.68 759.67l41.41 0l0 14.52l-41.41 0Z" id="p34w384" />
<path d="M213.33 759.67l41.96 0l0 14.52l-41.96 0Z" id="p34w385" />
<path d="M258.5 759.67l14.18 0l0 14.52l-14.18 0Z" id="p34w386" />
<path d="M275.88 759.67l39.03 0l0 14.52l-39.03 0Z" id="p34w387" />
<path d="M318.12 759.67l32.87 0l0 14.52l-32.87 0Z" id="p34w388" />
<path d="M354.2 759.67l12.29 0l0 14.52l-12.29 0Z" id="p34w389" />
<path d="M369.69 759.67l58.54 0l0 14.52l-58.54 0Z" id="p34w390" />
<path d="M441.32 759.67l12.57 0l0 14.52l-12.57 0Z" id="p34w391" />
<path d="M457.1 759.67l42.86 0l0 14.52l-42.86 0Z" id="p34w392" />
<path d="M139.89 776.34l12.83 0l0 14.52l-12.83 0Z" id="p34w393" />
<path d="M155.93 776.34l33.7 0l0 14.52l-33.7 0Z" id="p34w394" />
<path d="M192.83 776.34l55.61 0l0 14.52l-55.61 0Z" id="p34w395" />
<path d="M256.69 776.34l20.58 0l0 14.52l-20.58 0Z" id="p34w396" />
<path d="M139.89 801.36l62.02 0l0 14.52l-62.02 0Z" id="p34w397" />
<path d="M205.12 801.36l16.83 0l0 14.52l-16.83 0Z" id="p34w398" />
<path d="M225.16 801.36l31.01 0l0 14.52l-31.01 0Z" id="p34w399" />
<path d="M264.41 801.36l43.5 0l0 14.52l-43.5 0Z" id="p34w400" />
<path d="M311.13 801.36l26.19 0l0 14.52l-26.19 0Z" id="p34w401" />
<path d="M340.52 801.36l14.18 0l0 14.52l-14.18 0Z" id="p34w402" />
<path d="M357.9 801.36l36.63 0l0 14.52l-36.63 0Z" id="p34w403" />
<path d="M397.74 801.36l45.71 0l0 14.52l-45.71 0Z" id="p34w404" />
<path d="M124.06 39.02l42.71 0l0 15.38l-42.71 0Z" id="p34w405" />
<path d="M208.73 38.6l45.75 0l0 16.09l-45.75 0Z" id="p34w406" />
<path d="M306.51 39.02l43.21 0l0 15.38l-43.21 0Z" id="p34w407" />
<path d="M414.03 39.02l28.68 0l0 15.38l-28.68 0Z" id="p34w408" />
<path d="M446.08 39.02l45.07 0l0 15.38l-45.07 0Z" id="p34w409" />
<path d="M522.82 39.02l32.54 0l0 15.38l-32.54 0Z" id="p34w410" />
<path d="M76.9 983l54.4 0l0 12.23l-54.4 0Z" id="p34w411" />
</svg>
