<?xml version="1.0" encoding="UTF-8"?>
<svg xmlns="http://www.w3.org/2000/svg" xmlns:xlink="http://www.w3.org/1999/xlink" version="1.1" baseProfile="full" width="768" height="1024" viewBox="0,0,768,1024" preserveAspectRatio="xMinYMin meet" >
<style type="text/css">
<![CDATA[
path {fill-opacity: 0.5;fill: #00aeef;visibility: hidden;}
]]>
</style>
<path d="M124.06 38.6l71 0l0 16.09l-71 0Z" id="p186w1" />
<path d="M78.77 983.66l115.2 0l0 12.23l-115.2 0Z" id="p186w2" />
<path d="M124.06 110.01l12.42 0l0 14.6l-12.42 0Z" id="p186w3" />
<path d="M139.69 110.01l36.83 0l0 14.6l-36.83 0Z" id="p186w4" />
<path d="M179.72 110.01l13.87 0l0 14.6l-13.87 0Z" id="p186w5" />
<path d="M196.8 110.01l19.76 0l0 14.6l-19.76 0Z" id="p186w6" />
<path d="M124.06 125.44l77.66 0l0 16.35l-77.66 0Z" id="p186w7" />
<path d="M297.36 110.09l21.92 0l0 14.52l-21.92 0Z" id="p186w8" />
<path d="M322.49 110.09l19.24 0l0 14.52l-19.24 0Z" id="p186w9" />
<path d="M344.94 110.09l21.12 0l0 14.52l-21.12 0Z" id="p186w10" />
<path d="M369.27 110.09l35.76 0l0 14.52l-35.76 0Z" id="p186w11" />
<path d="M297.36 126.76l48.9 0l0 14.52l-48.9 0Z" id="p186w12" />
<path d="M482.46 110.09l31.8 0l0 14.52l-31.8 0Z" id="p186w13" />
<path d="M517.47 110.09l9.89 0l0 14.52l-9.89 0Z" id="p186w14" />
<path d="M530.56 110.09l31.02 0l0 14.52l-31.02 0Z" id="p186w15" />
<path d="M564.79 110.09l24.59 0l0 14.52l-24.59 0Z" id="p186w16" />
<path d="M592.58 110.09l11.22 0l0 14.52l-11.22 0Z" id="p186w17" />
<path d="M607.01 110.09l23.8 0l0 14.52l-23.8 0Z" id="p186w18" />
<path d="M634.02 110.09l12.29 0l0 14.52l-12.29 0Z" id="p186w19" />
<path d="M649.51 110.09l24.33 0l0 14.52l-24.33 0Z" id="p186w20" />
<path d="M482.46 126.76l37.96 0l0 14.52l-37.96 0Z" id="p186w21" />
<path d="M523.63 126.76l13.9 0l0 14.52l-13.9 0Z" id="p186w22" />
<path d="M540.74 126.76l22.47 0l0 14.52l-22.47 0Z" id="p186w23" />
<path d="M124.06 144.83l12.42 0l0 14.6l-12.42 0Z" id="p186w24" />
<path d="M139.69 144.83l47.64 0l0 14.6l-47.64 0Z" id="p186w25" />
<path d="M190.53 144.83l13.87 0l0 14.6l-13.87 0Z" id="p186w26" />
<path d="M207.61 144.83l32.19 0l0 14.6l-32.19 0Z" id="p186w27" />
<path d="M124.06 160.26l55.11 0l0 16.35l-55.11 0Z" id="p186w28" />
<path d="M129.97 187.15l12.42 0l0 14.6l-12.42 0Z" id="p186w29" />
<path d="M145.6 187.15l47.64 0l0 14.6l-47.64 0Z" id="p186w30" />
<path d="M196.44 187.21l24.59 0l0 14.52l-24.59 0Z" id="p186w31" />
<path d="M224.24 187.21l56.35 0l0 14.52l-56.35 0Z" id="p186w32" />
<path d="M283.79 187.21l19.77 0l0 14.52l-19.77 0Z" id="p186w33" />
<path d="M306.77 187.15l27.86 0l0 14.6l-27.86 0Z" id="p186w34" />
<path d="M341.05 187.21l9.62 0l0 14.52l-9.62 0Z" id="p186w35" />
<path d="M353.88 187.21l17.63 0l0 14.52l-17.63 0Z" id="p186w36" />
<path d="M374.72 187.21l51.07 0l0 14.52l-51.07 0Z" id="p186w37" />
<path d="M129.97 203.88l26.74 0l0 14.52l-26.74 0Z" id="p186w38" />
<path d="M159.92 203.88l26.74 0l0 14.52l-26.74 0Z" id="p186w39" />
<path d="M189.87 203.88l62.04 0l0 14.52l-62.04 0Z" id="p186w40" />
<path d="M255.11 203.88l12.02 0l0 14.52l-12.02 0Z" id="p186w41" />
<path d="M270.34 203.88l12.29 0l0 14.52l-12.29 0Z" id="p186w42" />
<path d="M285.84 203.88l71.34 0l0 14.52l-71.34 0Z" id="p186w43" />
<path d="M129.97 220.49l31.41 0l0 14.61l-31.41 0Z" id="p186w44" />
<path d="M164.59 220.49l48.4 0l0 14.61l-48.4 0Z" id="p186w45" />
<path d="M222.62 220.55l9.62 0l0 14.52l-9.62 0Z" id="p186w46" />
<path d="M235.45 220.55l17.63 0l0 14.52l-17.63 0Z" id="p186w47" />
<path d="M256.29 220.55l21.38 0l0 14.52l-21.38 0Z" id="p186w48" />
<path d="M280.88 220.55l39.57 0l0 14.52l-39.57 0Z" id="p186w49" />
<path d="M297.35 144.91l21.92 0l0 14.52l-21.92 0Z" id="p186w50" />
<path d="M322.48 144.91l13.9 0l0 14.52l-13.9 0Z" id="p186w51" />
<path d="M339.59 144.91l48.1 0l0 14.52l-48.1 0Z" id="p186w52" />
<path d="M390.89 144.91l47.31 0l0 14.52l-47.31 0Z" id="p186w53" />
<path d="M482.46 144.91l12.41 0l0 14.52l-12.41 0Z" id="p186w54" />
<path d="M498.07 144.91l11.22 0l0 14.52l-11.22 0Z" id="p186w55" />
<path d="M512.5 144.91l48.39 0l0 14.52l-48.39 0Z" id="p186w56" />
<path d="M564.09 144.91l13.9 0l0 14.52l-13.9 0Z" id="p186w57" />
<path d="M581.2 144.91l29.94 0l0 14.52l-29.94 0Z" id="p186w58" />
<path d="M614.34 144.91l40.09 0l0 14.52l-40.09 0Z" id="p186w59" />
<path d="M657.64 144.91l33.68 0l0 14.52l-33.68 0Z" id="p186w60" />
<path d="M482.46 161.58l13.9 0l0 14.52l-13.9 0Z" id="p186w61" />
<path d="M499.56 161.58l35.81 0l0 14.52l-35.81 0Z" id="p186w62" />
<path d="M124.06 247.8l20.99 0l0 14.6l-20.99 0Z" id="p186w63" />
<path d="M148.25 247.8l47.28 0l0 14.6l-47.28 0Z" id="p186w64" />
<path d="M198.83 246.56l52.08 0l0 16.35l-52.08 0Z" id="p186w65" />
<path d="M297.35 247.88l23.79 0l0 14.52l-23.79 0Z" id="p186w66" />
<path d="M324.34 247.88l56.03 0l0 14.52l-56.03 0Z" id="p186w67" />
<path d="M297.35 264.55l23.79 0l0 14.52l-23.79 0Z" id="p186w68" />
<path d="M324.34 264.55l53.73 0l0 14.52l-53.73 0Z" id="p186w69" />
<path d="M482.46 247.88l12.41 0l0 14.52l-12.41 0Z" id="p186w70" />
<path d="M498.07 247.88l12.29 0l0 14.52l-12.29 0Z" id="p186w71" />
<path d="M513.57 247.88l19.51 0l0 14.52l-19.51 0Z" id="p186w72" />
<path d="M536.28 247.88l52.67 0l0 14.52l-52.67 0Z" id="p186w73" />
<path d="M592.16 247.88l13.9 0l0 14.52l-13.9 0Z" id="p186w74" />
<path d="M609.26 247.88l32.06 0l0 14.52l-32.06 0Z" id="p186w75" />
<path d="M500.69 264.57l47.24 0l0 14.61l-47.24 0Z" id="p186w76" />
<path d="M124.06 282.62l39.89 0l0 14.6l-39.89 0Z" id="p186w77" />
<path d="M167.15 282.62l67.55 0l0 14.6l-67.55 0Z" id="p186w78" />
<path d="M247.81 282.62l14.41 0l0 14.6l-14.41 0Z" id="p186w79" />
<path d="M124.06 298.05l82.84 0l0 16.35l-82.84 0Z" id="p186w80" />
<path d="M297.35 282.7l21.92 0l0 14.52l-21.92 0Z" id="p186w81" />
<path d="M322.48 282.7l18.7 0l0 14.52l-18.7 0Z" id="p186w82" />
<path d="M344.39 282.7l23.8 0l0 14.52l-23.8 0Z" id="p186w83" />
<path d="M371.4 282.7l63.34 0l0 14.52l-63.34 0Z" id="p186w84" />
<path d="M482.46 282.7l35.02 0l0 14.52l-35.02 0Z" id="p186w85" />
<path d="M530.57 282.7l35.29 0l0 14.52l-35.29 0Z" id="p186w86" />
<path d="M569.07 282.7l67.55 0l0 14.52l-67.55 0Z" id="p186w87" />
<path d="M649.72 282.7l29.67 0l0 14.52l-29.67 0Z" id="p186w88" />
<path d="M482.46 299.37l13.63 0l0 14.52l-13.63 0Z" id="p186w89" />
<path d="M499.3 299.37l20.31 0l0 14.52l-20.31 0Z" id="p186w90" />
<path d="M522.82 299.37l13.9 0l0 14.52l-13.9 0Z" id="p186w91" />
<path d="M539.93 299.37l90.15 0l0 14.52l-90.15 0Z" id="p186w92" />
<path d="M124.06 317.44l79.62 0l0 14.6l-79.62 0Z" id="p186w93" />
<path d="M206.98 316.2l55.28 0l0 16.35l-55.28 0Z" id="p186w94" />
<path d="M297.35 317.52l22.98 0l0 14.52l-22.98 0Z" id="p186w95" />
<path d="M482.46 317.52l10.43 0l0 14.52l-10.43 0Z" id="p186w96" />
<path d="M496.09 317.52l35.56 0l0 14.52l-35.56 0Z" id="p186w97" />
<path d="M534.86 317.52l11.22 0l0 14.52l-11.22 0Z" id="p186w98" />
<path d="M549.29 317.52l28.34 0l0 14.52l-28.34 0Z" id="p186w99" />
<path d="M580.83 317.52l21.37 0l0 14.52l-21.37 0Z" id="p186w100" />
<path d="M605.41 317.52l44.57 0l0 14.52l-44.57 0Z" id="p186w101" />
<path d="M494.71 334.2l36.28 0l0 14.61l-36.28 0Z" id="p186w102" />
<path d="M124.06 352.26l97.27 0l0 14.6l-97.27 0Z" id="p186w103" />
<path d="M124.06 367.69l70.66 0l0 16.35l-70.66 0Z" id="p186w104" />
<path d="M297.35 352.34l67.54 0l0 14.52l-67.54 0Z" id="p186w105" />
<path d="M368.1 352.34l38.16 0l0 14.52l-38.16 0Z" id="p186w106" />
<path d="M482.46 352.34l22.19 0l0 14.52l-22.19 0Z" id="p186w107" />
<path d="M507.85 352.34l41.96 0l0 14.52l-41.96 0Z" id="p186w108" />
<path d="M553.02 352.34l41.43 0l0 14.52l-41.43 0Z" id="p186w109" />
<path d="M597.66 352.34l15.25 0l0 14.52l-15.25 0Z" id="p186w110" />
<path d="M616.12 352.34l12.57 0l0 14.52l-12.57 0Z" id="p186w111" />
<path d="M631.89 352.34l25.92 0l0 14.52l-25.92 0Z" id="p186w112" />
<path d="M661.02 352.34l19.51 0l0 14.52l-19.51 0Z" id="p186w113" />
<path d="M683.74 352.34l21.37 0l0 14.52l-21.37 0Z" id="p186w114" />
<path d="M482.46 369.01l45.19 0l0 14.52l-45.19 0Z" id="p186w115" />
<path d="M500.19 385.7l40.07 0l0 14.61l-40.07 0Z" id="p186w116" />
<path d="M124.06 403.75l39.24 0l0 14.6l-39.24 0Z" id="p186w117" />
<path d="M166.51 403.75l32.19 0l0 14.6l-32.19 0Z" id="p186w118" />
<path d="M202 402.51l39.43 0l0 16.35l-39.43 0Z" id="p186w119" />
<path d="M297.35 403.83l48.1 0l0 14.52l-48.1 0Z" id="p186w120" />
<path d="M348.66 403.83l56.15 0l0 14.52l-56.15 0Z" id="p186w121" />
<path d="M482.46 403.83l12.41 0l0 14.52l-12.41 0Z" id="p186w122" />
<path d="M498.08 403.83l25.21 0l0 14.52l-25.21 0Z" id="p186w123" />
<path d="M526.49 403.83l34.23 0l0 14.52l-34.23 0Z" id="p186w124" />
<path d="M124.06 424.46l53.87 0l0 14.6l-53.87 0Z" id="p186w125" />
<path d="M191.03 424.46l12.67 0l0 14.6l-12.67 0Z" id="p186w126" />
<path d="M207.01 423.22l58.18 0l0 16.35l-58.18 0Z" id="p186w127" />
<path d="M297.36 424.54l13.9 0l0 14.52l-13.9 0Z" id="p186w128" />
<path d="M314.46 424.54l23.09 0l0 14.52l-23.09 0Z" id="p186w129" />
<path d="M340.75 424.54l63.61 0l0 14.52l-63.61 0Z" id="p186w130" />
<path d="M482.46 424.54l53.01 0l0 14.52l-53.01 0Z" id="p186w131" />
<path d="M538.68 424.54l53.72 0l0 14.52l-53.72 0Z" id="p186w132" />
<path d="M595.61 424.54l13.63 0l0 14.52l-13.63 0Z" id="p186w133" />
<path d="M612.45 424.54l16.58 0l0 14.52l-16.58 0Z" id="p186w134" />
<path d="M632.24 424.54l13.9 0l0 14.52l-13.9 0Z" id="p186w135" />
<path d="M649.34 424.54l29.94 0l0 14.52l-29.94 0Z" id="p186w136" />
<path d="M500.69 441.23l25.7 0l0 14.61l-25.7 0Z" id="p186w137" />
<path d="M529.59 441.23l72.24 0l0 14.61l-72.24 0Z" id="p186w138" />
<path d="M500.19 457.9l11.5 0l0 14.61l-11.5 0Z" id="p186w139" />
<path d="M514.89 457.9l60.16 0l0 14.61l-60.16 0Z" id="p186w140" />
<path d="M124.06 475.96l14.31 0l0 14.6l-14.31 0Z" id="p186w141" />
<path d="M141.58 475.96l57.25 0l0 14.6l-57.25 0Z" id="p186w142" />
<path d="M202.12 474.72l51.99 0l0 16.35l-51.99 0Z" id="p186w143" />
<path d="M297.35 476.04l17.11 0l0 14.52l-17.11 0Z" id="p186w144" />
<path d="M317.67 476.04l36.63 0l0 14.52l-36.63 0Z" id="p186w145" />
<path d="M500.19 480.35l66.47 0l0 14.61l-66.47 0Z" id="p186w146" />
<path d="M111.26 542.15l21.87 0l0 15.37l-21.87 0Z" id="p186w147" />
<path d="M136.51 542.15l29.86 0l0 15.37l-29.86 0Z" id="p186w148" />
<path d="M169.74 542.15l27.22 0l0 15.37l-27.22 0Z" id="p186w149" />
<path d="M200.34 542.15l16.59 0l0 15.37l-16.59 0Z" id="p186w150" />
<path d="M229.83 542.15l52.07 0l0 15.37l-52.07 0Z" id="p186w151" />
<path d="M285.28 542.15l36.28 0l0 15.37l-36.28 0Z" id="p186w152" />
<path d="M111.26 566.62l12.8 0l0 13.06l-12.8 0Z" id="p186w153" />
<path d="M126.93 566.62l35.67 0l0 13.06l-35.67 0Z" id="p186w154" />
<path d="M258.07 566.69l15.31 0l0 12.99l-15.31 0Z" id="p186w155" />
<path d="M276.25 566.69l30.55 0l0 12.99l-30.55 0Z" id="p186w156" />
<path d="M404.88 566.62l22.16 0l0 13.06l-22.16 0Z" id="p186w157" />
<path d="M551.69 566.69l42.09 0l0 12.99l-42.09 0Z" id="p186w158" />
<path d="M111.27 587.62l33.6 0l0 13.06l-33.6 0Z" id="p186w159" />
<path d="M258.08 587.69l27.93 0l0 12.99l-27.93 0Z" id="p186w160" />
<path d="M404.89 587.62l27.9 0l0 13.06l-27.9 0Z" id="p186w161" />
<path d="M444.51 587.62l8.98 0l0 13.06l-8.98 0Z" id="p186w162" />
<path d="M456.36 587.62l47.77 0l0 13.06l-47.77 0Z" id="p186w163" />
<path d="M507 587.62l12.41 0l0 13.06l-12.41 0Z" id="p186w164" />
<path d="M522.28 587.62l12.9 0l0 13.06l-12.9 0Z" id="p186w165" />
<path d="M551.7 587.69l16.51 0l0 12.99l-16.51 0Z" id="p186w166" />
<path d="M570.69 587.69l54.43 0l0 12.99l-54.43 0Z" id="p186w167" />
<path d="M627.99 587.69l57.16 0l0 12.99l-57.16 0Z" id="p186w168" />
<path d="M111.29 608.61l51.42 0l0 13.06l-51.42 0Z" id="p186w169" />
<path d="M258.09 608.69l58.08 0l0 12.99l-58.08 0Z" id="p186w170" />
<path d="M404.87 607.31l55.87 0l0 16.6l-55.87 0Z" id="p186w171" />
<path d="M464.05 607.31l12.96 0l0 16.6l-12.96 0Z" id="p186w172" />
<path d="M490.43 607.31l13.66 0l0 16.6l-13.66 0Z" id="p186w173" />
<path d="M551.68 607.42l22.04 0l0 16.47l-22.04 0Z" id="p186w174" />
<path d="M577.02 607.42l21.25 0l0 16.47l-21.25 0Z" id="p186w175" />
<path d="M601.57 607.42l48.22 0l0 16.47l-48.22 0Z" id="p186w176" />
<path d="M111.26 630.39l12.8 0l0 13.06l-12.8 0Z" id="p186w177" />
<path d="M126.93 630.39l14.56 0l0 13.06l-14.56 0Z" id="p186w178" />
<path d="M258.07 630.46l15.31 0l0 12.99l-15.31 0Z" id="p186w179" />
<path d="M276.25 630.46l47.11 0l0 12.99l-47.11 0Z" id="p186w180" />
<path d="M404.87 629.07l60.81 0l0 16.6l-60.81 0Z" id="p186w181" />
<path d="M551.68 629.18l69.65 0l0 16.47l-69.65 0Z" id="p186w182" />
<path d="M111.26 652.15l24.68 0l0 13.06l-24.68 0Z" id="p186w183" />
<path d="M258.07 652.22l36.82 0l0 12.99l-36.82 0Z" id="p186w184" />
<path d="M404.87 650.83l22.15 0l0 16.6l-22.15 0Z" id="p186w185" />
<path d="M430.32 650.83l74.91 0l0 16.6l-74.91 0Z" id="p186w186" />
<path d="M551.68 650.94l63.16 0l0 16.47l-63.16 0Z" id="p186w187" />
<path d="M618.14 650.94l21.3 0l0 16.47l-21.3 0Z" id="p186w188" />
<path d="M111.26 673.91l18.78 0l0 13.06l-18.78 0Z" id="p186w189" />
<path d="M132.91 673.91l41.36 0l0 13.06l-41.36 0Z" id="p186w190" />
<path d="M258.07 673.98l21.28 0l0 12.99l-21.28 0Z" id="p186w191" />
<path d="M282.22 673.98l53.04 0l0 12.99l-53.04 0Z" id="p186w192" />
<path d="M404.87 672.6l13.45 0l0 16.6l-13.45 0Z" id="p186w193" />
<path d="M421.62 672.6l31.7 0l0 16.6l-31.7 0Z" id="p186w194" />
<path d="M551.68 672.7l14.82 0l0 16.47l-14.82 0Z" id="p186w195" />
<path d="M569.8 672.7l24.33 0l0 16.47l-24.33 0Z" id="p186w196" />
<path d="M111.26 695.67l23.35 0l0 13.06l-23.35 0Z" id="p186w197" />
<path d="M137.48 695.67l48.67 0l0 13.06l-48.67 0Z" id="p186w198" />
<path d="M258.07 695.74l25.71 0l0 12.99l-25.71 0Z" id="p186w199" />
<path d="M286.26 695.74l67.75 0l0 12.99l-67.75 0Z" id="p186w200" />
<path d="M404.87 694.36l9.73 0l0 16.6l-9.73 0Z" id="p186w201" />
<path d="M417.9 694.36l31.37 0l0 16.6l-31.37 0Z" id="p186w202" />
<path d="M551.68 694.46l15.27 0l0 16.47l-15.27 0Z" id="p186w203" />
<path d="M570.25 694.46l31.07 0l0 16.47l-31.07 0Z" id="p186w204" />
<path d="M111.26 717.44l50.4 0l0 13.06l-50.4 0Z" id="p186w205" />
<path d="M164.54 717.44l12.9 0l0 13.06l-12.9 0Z" id="p186w206" />
<path d="M258.07 717.51l17.95 0l0 12.99l-17.95 0Z" id="p186w207" />
<path d="M278.89 717.51l44.9 0l0 12.99l-44.9 0Z" id="p186w208" />
<path d="M404.87 716.12l13.45 0l0 16.6l-13.45 0Z" id="p186w209" />
<path d="M421.62 716.12l59.99 0l0 16.6l-59.99 0Z" id="p186w210" />
<path d="M484.91 716.12l48.75 0l0 16.6l-48.75 0Z" id="p186w211" />
<path d="M551.68 716.23l14.82 0l0 16.47l-14.82 0Z" id="p186w212" />
<path d="M569.8 716.23l54.8 0l0 16.47l-54.8 0Z" id="p186w213" />
<path d="M627.9 716.23l38.83 0l0 16.47l-38.83 0Z" id="p186w214" />
<path d="M111.26 739.2l18.78 0l0 13.06l-18.78 0Z" id="p186w215" />
<path d="M132.91 739.2l48.6 0l0 13.06l-48.6 0Z" id="p186w216" />
<path d="M258.07 739.27l21.28 0l0 12.99l-21.28 0Z" id="p186w217" />
<path d="M282.22 739.27l51.85 0l0 12.99l-51.85 0Z" id="p186w218" />
<path d="M404.87 737.88l5.81 0l0 16.6l-5.81 0Z" id="p186w219" />
<path d="M413.98 737.88l18.64 0l0 16.6l-18.64 0Z" id="p186w220" />
<path d="M435.92 737.88l50.3 0l0 16.6l-50.3 0Z" id="p186w221" />
<path d="M489.52 737.88l18.64 0l0 16.6l-18.64 0Z" id="p186w222" />
<path d="M511.46 737.88l33.99 0l0 16.6l-33.99 0Z" id="p186w223" />
<path d="M551.68 737.99l29.87 0l0 16.47l-29.87 0Z" id="p186w224" />
<path d="M584.85 737.99l14.9 0l0 16.47l-14.9 0Z" id="p186w225" />
<path d="M603.05 737.99l17.85 0l0 16.47l-17.85 0Z" id="p186w226" />
<path d="M111.26 760.96l113.58 0l0 13.06l-113.58 0Z" id="p186w227" />
<path d="M258.07 761.03l29.36 0l0 12.99l-29.36 0Z" id="p186w228" />
<path d="M404.87 759.64l13.45 0l0 16.6l-13.45 0Z" id="p186w229" />
<path d="M421.62 759.64l50.72 0l0 16.6l-50.72 0Z" id="p186w230" />
<path d="M551.68 759.75l14.82 0l0 16.47l-14.82 0Z" id="p186w231" />
<path d="M569.8 759.75l37.78 0l0 16.47l-37.78 0Z" id="p186w232" />
<path d="M111.26 782.72l12.8 0l0 13.06l-12.8 0Z" id="p186w233" />
<path d="M126.93 782.72l51.2 0l0 13.06l-51.2 0Z" id="p186w234" />
<path d="M181 782.72l38.13 0l0 13.06l-38.13 0Z" id="p186w235" />
<path d="M258.07 782.79l15.31 0l0 12.99l-15.31 0Z" id="p186w236" />
<path d="M276.25 782.79l48.43 0l0 12.99l-48.43 0Z" id="p186w237" />
<path d="M327.55 782.79l32.05 0l0 12.99l-32.05 0Z" id="p186w238" />
<path d="M404.87 781.41l20.45 0l0 16.6l-20.45 0Z" id="p186w239" />
<path d="M428.62 781.41l9.73 0l0 16.6l-9.73 0Z" id="p186w240" />
<path d="M441.65 781.41l30.6 0l0 16.6l-30.6 0Z" id="p186w241" />
<path d="M485.67 781.41l13.66 0l0 16.6l-13.66 0Z" id="p186w242" />
<path d="M551.68 781.51l22.04 0l0 16.47l-22.04 0Z" id="p186w243" />
<path d="M577.02 781.51l15.27 0l0 16.47l-15.27 0Z" id="p186w244" />
<path d="M595.59 781.51l47.27 0l0 16.47l-47.27 0Z" id="p186w245" />
<path d="M646.16 781.51l31.7 0l0 16.47l-31.7 0Z" id="p186w246" />
<path d="M128.74 517.2l28.62 0l0 15.7l-28.62 0Z" id="p186w247" />
<path d="M160.74 517.2l30.34 0l0 15.7l-30.34 0Z" id="p186w248" />
<path d="M194.46 517.2l70.23 0l0 15.7l-70.23 0Z" id="p186w249" />
</svg>
