<?xml version="1.0" encoding="UTF-8"?>
<svg xmlns="http://www.w3.org/2000/svg" xmlns:xlink="http://www.w3.org/1999/xlink" version="1.1" baseProfile="full" width="768" height="1024" viewBox="0,0,768,1024" preserveAspectRatio="xMinYMin meet" >
<style type="text/css">
<![CDATA[
path {fill-opacity: 0.5;fill: #00aeef;visibility: hidden;}
]]>
</style>
<path d="M130.36 122.69l14.91 0l0 15.7l-14.91 0Z" id="p13w1" />
<path d="M148.65 122.69l25.05 0l0 15.7l-25.05 0Z" id="p13w2" />
<path d="M219.07 123.24l78.25 0l0 13.76l-78.25 0Z" id="p13w3" />
<path d="M309.83 123.24l48.07 0l0 13.76l-48.07 0Z" id="p13w4" />
<path d="M360.94 123.24l16.47 0l0 13.76l-16.47 0Z" id="p13w5" />
<path d="M380.45 123.24l81.99 0l0 13.76l-81.99 0Z" id="p13w6" />
<path d="M130.36 144.41l55.95 0l0 15.7l-55.95 0Z" id="p13w7" />
<path d="M219.07 144.96l126.01 0l0 13.76l-126.01 0Z" id="p13w8" />
<path d="M348.12 144.96l12.17 0l0 13.76l-12.17 0Z" id="p13w9" />
<path d="M363.33 144.96l27.61 0l0 13.76l-27.61 0Z" id="p13w10" />
<path d="M401.91 144.96l20.27 0l0 13.76l-20.27 0Z" id="p13w11" />
<path d="M425.22 144.96l20.01 0l0 13.76l-20.01 0Z" id="p13w12" />
<path d="M448.27 144.96l51.92 0l0 13.76l-51.92 0Z" id="p13w13" />
<path d="M511.17 144.96l15.19 0l0 13.76l-15.19 0Z" id="p13w14" />
<path d="M142.19 166.13l27.54 0l0 15.7l-27.54 0Z" id="p13w15" />
<path d="M219.07 166.69l43.83 0l0 13.76l-43.83 0Z" id="p13w16" />
<path d="M265.94 166.69l17.47 0l0 13.76l-17.47 0Z" id="p13w17" />
<path d="M286.45 166.69l85.79 0l0 13.76l-85.79 0Z" id="p13w18" />
<path d="M375.28 166.69l20.27 0l0 13.76l-20.27 0Z" id="p13w19" />
<path d="M398.59 166.69l78.48 0l0 13.76l-78.48 0Z" id="p13w20" />
<path d="M130.36 187.85l60.44 0l0 15.7l-60.44 0Z" id="p13w21" />
<path d="M219.07 188.41l18.73 0l0 13.76l-18.73 0Z" id="p13w22" />
<path d="M240.84 188.41l54.88 0l0 13.76l-54.88 0Z" id="p13w23" />
<path d="M298.77 188.41l18.23 0l0 13.76l-18.23 0Z" id="p13w24" />
<path d="M320.04 188.41l20.01 0l0 13.76l-20.01 0Z" id="p13w25" />
<path d="M343.08 188.41l51.92 0l0 13.76l-51.92 0Z" id="p13w26" />
<path d="M405.98 188.41l15.19 0l0 13.76l-15.19 0Z" id="p13w27" />
<path d="M130.36 209.57l19.94 0l0 15.7l-19.94 0Z" id="p13w28" />
<path d="M153.68 209.57l30.94 0l0 15.7l-30.94 0Z" id="p13w29" />
<path d="M219.07 210.13l85.61 0l0 13.76l-85.61 0Z" id="p13w30" />
<path d="M307.72 210.13l75.98 0l0 13.76l-75.98 0Z" id="p13w31" />
<path d="M130.36 231.29l68.87 0l0 15.7l-68.87 0Z" id="p13w32" />
<path d="M219.07 231.85l109.58 0l0 13.76l-109.58 0Z" id="p13w33" />
<path d="M331.28 231.85l52.18 0l0 13.76l-52.18 0Z" id="p13w34" />
<path d="M130.36 253.02l71.82 0l0 15.7l-71.82 0Z" id="p13w35" />
<path d="M219.07 253.57l104.78 0l0 13.76l-104.78 0Z" id="p13w36" />
<path d="M130.36 274.74l69.3 0l0 15.7l-69.3 0Z" id="p13w37" />
<path d="M219.07 275.29l104.77 0l0 13.76l-104.77 0Z" id="p13w38" />
<path d="M130.36 296.46l14.91 0l0 15.7l-14.91 0Z" id="p13w39" />
<path d="M148.65 296.46l35.74 0l0 15.7l-35.74 0Z" id="p13w40" />
<path d="M219.07 297.01l116.98 0l0 13.76l-116.98 0Z" id="p13w41" />
<path d="M130.36 318.18l55.66 0l0 15.7l-55.66 0Z" id="p13w42" />
<path d="M219.07 318.73l51.11 0l0 13.76l-51.11 0Z" id="p13w43" />
<path d="M273.22 318.73l12.17 0l0 13.76l-12.17 0Z" id="p13w44" />
<path d="M288.42 318.73l20.01 0l0 13.76l-20.01 0Z" id="p13w45" />
<path d="M311.47 318.73l30.31 0l0 13.76l-30.31 0ZM344.82 318.73l20.27 0l0 13.76l-20.27 0Z" id="p13w46" />
<path d="M368.13 318.73l86.27 0l0 13.76l-86.27 0Z" id="p13w47" />
<path d="M219.07 340.46l28.1 0l0 13.76l-28.1 0Z" id="p13w48" />
<path d="M250.21 340.46l17.47 0l0 13.76l-17.47 0Z" id="p13w49" />
<path d="M270.72 340.46l71.94 0l0 13.76l-71.94 0Z" id="p13w50" />
<path d="M219.07 362.18l28.1 0l0 13.76l-28.1 0Z" id="p13w51" />
<path d="M250.21 362.18l18.48 0l0 13.76l-18.48 0Z" id="p13w52" />
<path d="M271.73 362.18l31.9 0l0 13.76l-31.9 0Z" id="p13w53" />
<path d="M219.07 383.9l22.8 0l0 13.76l-22.8 0Z" id="p13w54" />
<path d="M244.91 383.9l18.48 0l0 13.76l-18.48 0Z" id="p13w55" />
<path d="M266.43 383.9l70.66 0l0 13.76l-70.66 0Z" id="p13w56" />
<path d="M339.72 383.9l39.49 0l0 13.76l-39.49 0Z" id="p13w57" />
<path d="M382.24 383.9l9.88 0l0 13.76l-9.88 0Z" id="p13w58" />
<path d="M395.16 383.9l52.71 0l0 13.76l-52.71 0Z" id="p13w59" />
<path d="M219.07 405.62l51.41 0l0 13.76l-51.41 0Z" id="p13w60" />
<path d="M273.52 405.62l19.26 0l0 13.76l-19.26 0Z" id="p13w61" />
<path d="M295.81 405.62l48.09 0l0 13.76l-48.09 0Z" id="p13w62" />
<path d="M219.07 427.34l28.1 0l0 13.76l-28.1 0Z" id="p13w63" />
<path d="M250.21 427.34l17.47 0l0 13.76l-17.47 0Z" id="p13w64" />
<path d="M270.72 427.34l36.5 0l0 13.76l-36.5 0Z" id="p13w65" />
<path d="M310.26 427.34l107.98 0l0 13.76l-107.98 0Z" id="p13w66" />
<path d="M421.27 427.34l31.84 0l0 13.76l-31.84 0Z" id="p13w67" />
<path d="M219.07 449.06l71.51 0l0 13.76l-71.51 0Z" id="p13w68" />
<path d="M219.07 470.78l71.33 0l0 13.76l-71.33 0Z" id="p13w69" />
<path d="M230.4 34.12l85.02 0l0 13.83l-85.02 0Z" id="p13w70" />
<path d="M380.46 34.97l60.82 0l0 13.83l-60.82 0Z" id="p13w71" />
<path d="M444.32 34.97l35.46 0l0 13.83l-35.46 0Z" id="p13w72" />
<path d="M387.67 51.55l52.31 0l0 12.3l-52.31 0Z" id="p13w73" />
<path d="M449.68 51.55l52.53 0l0 12.3l-52.53 0Z" id="p13w74" />
<path d="M512.13 51.55l41.64 0l0 12.3l-41.64 0Z" id="p13w75" />
<path d="M565.56 34.97l68.69 0l0 13.83l-68.69 0Z" id="p13w76" />
<path d="M642.22 34.97l29.27 0l0 13.83l-29.27 0ZM565.56 50.25l50.67 0l0 13.83l-50.67 0Z" id="p13w77" />
<path d="M619.27 50.25l60.31 0l0 13.83l-60.31 0Z" id="p13w78" />
<path d="M668.58 973.94l22.52 0l0 12.23l-22.52 0Z" id="p13w79" />
</svg>
