<?xml version="1.0" encoding="UTF-8"?>
<svg xmlns="http://www.w3.org/2000/svg" xmlns:xlink="http://www.w3.org/1999/xlink" version="1.1" baseProfile="full" width="768" height="1024" viewBox="0,0,768,1024" preserveAspectRatio="xMinYMin meet" >
<style type="text/css">
<![CDATA[
path {fill-opacity: 0.5;fill: #00aeef;visibility: hidden;}
]]>
</style>
<path d="M124.06 107.98l17.01 0l0 18.84l-17.01 0Z" id="p86w1" />
<path d="M144.72 107.98l81.21 0l0 18.84l-81.21 0Z" id="p86w2" />
<path d="M124.06 155.88l15.44 0l0 14.6l-15.44 0Z" id="p86w3" />
<path d="M142.71 155.88l38.26 0l0 14.6l-38.26 0Z" id="p86w4" />
<path d="M183.92 155.88l53.8 0l0 14.6l-53.8 0Z" id="p86w5" />
<path d="M240.76 155.88l83.04 0l0 14.6l-83.04 0Z" id="p86w6" />
<path d="M124.06 172.55l79.28 0l0 14.6l-79.28 0Z" id="p86w7" />
<path d="M206.37 172.55l44.79 0l0 14.6l-44.79 0Z" id="p86w8" />
<path d="M254.37 172.55l34.54 0l0 14.6l-34.54 0Z" id="p86w9" />
<path d="M292.12 172.55l21.5 0l0 14.6l-21.5 0Z" id="p86w10" />
<path d="M124.06 189.22l60.99 0l0 14.6l-60.99 0Z" id="p86w11" />
<path d="M188.26 189.22l67.62 0l0 14.6l-67.62 0Z" id="p86w12" />
<path d="M356.37 155.88l20.79 0l0 14.6l-20.79 0Z" id="p86w13" />
<path d="M380.37 155.88l48.76 0l0 14.6l-48.76 0Z" id="p86w14" />
<path d="M432.33 155.88l14.28 0l0 14.6l-14.28 0Z" id="p86w15" />
<path d="M449.82 155.88l33.47 0l0 14.6l-33.47 0Z" id="p86w16" />
<path d="M129.96 238.35l6.15 0l0 14.52l-6.15 0Z" id="p86w17" />
<path d="M136.11 238.28l48.11 0l0 14.6l-48.11 0Z" id="p86w18" />
<path d="M187.43 238.35l36.34 0l0 14.52l-36.34 0Z" id="p86w19" />
<path d="M226.98 238.35l23.24 0l0 14.52l-23.24 0Z" id="p86w20" />
<path d="M253.43 238.35l50.62 0l0 14.52l-50.62 0Z" id="p86w21" />
<path d="M129.96 255.02l13.63 0l0 14.52l-13.63 0Z" id="p86w22" />
<path d="M146.8 255.02l44.65 0l0 14.52l-44.65 0Z" id="p86w23" />
<path d="M129.96 280.9l33.33 0l0 14.52l-33.33 0Z" id="p86w24" />
<path d="M166.5 280.9l25.67 0l0 14.52l-25.67 0Z" id="p86w25" />
<path d="M195.38 280.83l46.2 0l0 14.6l-46.2 0Z" id="p86w26" />
<path d="M244.78 280.9l41.25 0l0 14.52l-41.25 0Z" id="p86w27" />
<path d="M299.12 280.9l48.65 0l0 14.52l-48.65 0Z" id="p86w28" />
<path d="M129.96 297.57l19.51 0l0 14.52l-19.51 0Z" id="p86w29" />
<path d="M152.68 297.57l71.37 0l0 14.52l-71.37 0Z" id="p86w30" />
<path d="M362.27 213.33l19.51 0l0 14.52l-19.51 0Z" id="p86w31" />
<path d="M384.99 213.27l68.17 0l0 14.61l-68.17 0Z" id="p86w32" />
<path d="M456.37 213.27l41.47 0l0 14.61l-41.47 0Z" id="p86w33" />
<path d="M362.27 235.44l45.93 0l0 14.52l-45.93 0Z" id="p86w34" />
<path d="M424.7 235.44l40.09 0l0 14.52l-40.09 0Z" id="p86w35" />
<path d="M468 235.44l19.51 0l0 14.52l-19.51 0Z" id="p86w36" />
<path d="M490.71 235.42l27.24 0l0 14.52l-27.24 0Z" id="p86w37" />
<path d="M521.16 235.42l36.09 0l0 14.52l-36.09 0Z" id="p86w38" />
<path d="M424.43 252.11l56.63 0l0 14.52l-56.63 0Z" id="p86w39" />
<path d="M484.26 252.11l19.51 0l0 14.52l-19.51 0Z" id="p86w40" />
<path d="M506.97 252.09l51.33 0l0 14.52l-51.33 0Z" id="p86w41" />
<path d="M424.43 277.13l9.62 0l0 14.52l-9.62 0Z" id="p86w42" />
<path d="M437.25 277.13l40.1 0l0 14.52l-40.1 0Z" id="p86w43" />
<path d="M490.18 277.13l15.5 0l0 14.52l-15.5 0Z" id="p86w44" />
<path d="M124.05 329.42l15.44 0l0 14.6l-15.44 0Z" id="p86w45" />
<path d="M142.7 329.42l38.26 0l0 14.6l-38.26 0Z" id="p86w46" />
<path d="M184.17 329.42l23.92 0l0 14.6l-23.92 0Z" id="p86w47" />
<path d="M211.3 329.42l104.34 0l0 14.6l-104.34 0Z" id="p86w48" />
<path d="M124.05 346.09l60.73 0l0 14.6l-60.73 0Z" id="p86w49" />
<path d="M187.99 346.09l21.5 0l0 14.6l-21.5 0Z" id="p86w50" />
<path d="M212.69 346.09l21.78 0l0 14.6l-21.78 0Z" id="p86w51" />
<path d="M237.68 346.09l30.37 0l0 14.6l-30.37 0Z" id="p86w52" />
<path d="M271.26 346.09l68.95 0l0 14.6l-68.95 0Z" id="p86w53" />
<path d="M356.36 329.42l20.79 0l0 14.6l-20.79 0Z" id="p86w54" />
<path d="M380.35 329.42l48.76 0l0 14.6l-48.76 0Z" id="p86w55" />
<path d="M432.32 329.42l14.28 0l0 14.6l-14.28 0Z" id="p86w56" />
<path d="M449.81 329.42l33.47 0l0 14.6l-33.47 0Z" id="p86w57" />
<path d="M129.95 405.11l10.27 0l0 14.6l-10.27 0Z" id="p86w58" />
<path d="M143.42 405.17l11.5 0l0 14.52l-11.5 0Z" id="p86w59" />
<path d="M158.13 405.11l35.66 0l0 14.6l-35.66 0Z" id="p86w60" />
<path d="M197 405.17l13.63 0l0 14.52l-13.63 0Z" id="p86w61" />
<path d="M213.84 405.17l44.65 0l0 14.52l-44.65 0Z" id="p86w62" />
<path d="M261.7 405.17l14.18 0l0 14.52l-14.18 0Z" id="p86w63" />
<path d="M279.09 405.11l45.21 0l0 14.6l-45.21 0Z" id="p86w64" />
<path d="M129.95 421.84l25.38 0l0 14.52l-25.38 0Z" id="p86w65" />
<path d="M158.54 421.84l54.55 0l0 14.52l-54.55 0Z" id="p86w66" />
<path d="M216.3 421.84l13.9 0l0 14.52l-13.9 0Z" id="p86w67" />
<path d="M233.4 421.84l37.96 0l0 14.52l-37.96 0Z" id="p86w68" />
<path d="M274.57 421.84l56.93 0l0 14.52l-56.93 0Z" id="p86w69" />
<path d="M362.26 370.14l21.09 0l0 14.6l-21.09 0Z" id="p86w70" />
<path d="M386.56 370.14l87.3 0l0 14.6l-87.3 0Z" id="p86w71" />
<path d="M477.06 370.14l7.79 0l0 14.6l-7.79 0Z" id="p86w72" />
<path d="M362.26 392.3l59.07 0l0 14.52l-59.07 0Z" id="p86w73" />
<path d="M362.26 408.97l53.95 0l0 14.52l-53.95 0Z" id="p86w74" />
<path d="M419.41 408.97l25.12 0l0 14.52l-25.12 0Z" id="p86w75" />
<path d="M447.74 408.97l45.8 0l0 14.52l-45.8 0ZM362.26 425.64l62.02 0l0 14.52l-62.02 0Z" id="p86w76" />
<path d="M427.49 425.64l60.84 0l0 14.52l-60.84 0Z" id="p86w77" />
<path d="M362.26 450.63l51.33 0l0 14.52l-51.33 0Z" id="p86w78" />
<path d="M528.12 392.3l56.66 0l0 14.52l-56.66 0Z" id="p86w79" />
<path d="M528.12 408.97l30.15 0l0 14.52l-30.15 0Z" id="p86w80" />
<path d="M528.12 450.63l67.63 0l0 14.52l-67.63 0Z" id="p86w81" />
<path d="M598.96 450.63l41.96 0l0 14.52l-41.96 0Z" id="p86w82" />
<path d="M124.04 488.64l15.44 0l0 14.6l-15.44 0Z" id="p86w83" />
<path d="M142.69 488.64l38.26 0l0 14.6l-38.26 0Z" id="p86w84" />
<path d="M184.16 488.64l83.3 0l0 14.6l-83.3 0Z" id="p86w85" />
<path d="M270.67 488.64l39.86 0l0 14.6l-39.86 0Z" id="p86w86" />
<path d="M124.04 505.32l21.5 0l0 14.6l-21.5 0Z" id="p86w87" />
<path d="M148.74 505.32l23.23 0l0 14.6l-23.23 0Z" id="p86w88" />
<path d="M175.18 505.32l54.62 0l0 14.6l-54.62 0Z" id="p86w89" />
<path d="M356.34 488.64l20.79 0l0 14.6l-20.79 0Z" id="p86w90" />
<path d="M380.34 488.64l48.76 0l0 14.6l-48.76 0Z" id="p86w91" />
<path d="M432.31 488.64l14.28 0l0 14.6l-14.28 0Z" id="p86w92" />
<path d="M449.79 488.64l33.47 0l0 14.6l-33.47 0Z" id="p86w93" />
<path d="M129.94 554.44l10.43 0l0 14.52l-10.43 0Z" id="p86w94" />
<path d="M143.57 554.38l33.1 0l0 14.6l-33.1 0Z" id="p86w95" />
<path d="M179.88 554.44l9.89 0l0 14.52l-9.89 0Z" id="p86w96" />
<path d="M192.98 554.44l28.62 0l0 14.52l-28.62 0Z" id="p86w97" />
<path d="M129.94 581.01l20.05 0l0 14.52l-20.05 0Z" id="p86w98" />
<path d="M153.19 580.95l12.42 0l0 14.6l-12.42 0Z" id="p86w99" />
<path d="M168.82 580.95l32.47 0l0 14.6l-32.47 0Z" id="p86w100" />
<path d="M204.5 581.01l31.01 0l0 14.52l-31.01 0Z" id="p86w101" />
<path d="M238.71 581.01l35.82 0l0 14.52l-35.82 0Z" id="p86w102" />
<path d="M287.63 581.01l20.84 0l0 14.52l-20.84 0Z" id="p86w103" />
<path d="M129.94 597.68l13.63 0l0 14.52l-13.63 0Z" id="p86w104" />
<path d="M146.78 597.68l38.49 0l0 14.52l-38.49 0Z" id="p86w105" />
<path d="M362.24 529.44l17.11 0l0 14.52l-17.11 0Z" id="p86w106" />
<path d="M382.12 529.44l39.03 0l0 14.52l-39.03 0Z" id="p86w107" />
<path d="M424.36 529.38l45.56 0l0 14.61l-45.56 0Z" id="p86w108" />
<path d="M473.13 529.44l21.4 0l0 14.52l-21.4 0Z" id="p86w109" />
<path d="M497.73 529.38l11.77 0l0 14.61l-11.77 0Z" id="p86w110" />
<path d="M512.72 529.38l45.93 0l0 14.61l-45.93 0Z" id="p86w111" />
<path d="M362.24 551.53l9.62 0l0 14.52l-9.62 0Z" id="p86w112" />
<path d="M375.07 551.53l27.27 0l0 14.52l-27.27 0Z" id="p86w113" />
<path d="M362.24 568.2l11.5 0l0 14.52l-11.5 0Z" id="p86w114" />
<path d="M376.95 568.2l27.27 0l0 14.52l-27.27 0Z" id="p86w115" />
<path d="M362.24 584.87l6.41 0l0 14.52l-6.41 0Z" id="p86w116" />
<path d="M376.91 584.87l19.77 0l0 14.52l-19.77 0Z" id="p86w117" />
<path d="M404.93 584.87l14.18 0l0 14.52l-14.18 0Z" id="p86w118" />
<path d="M422.31 584.87l27.27 0l0 14.52l-27.27 0Z" id="p86w119" />
<path d="M474.54 551.53l26.74 0l0 14.52l-26.74 0Z" id="p86w120" />
<path d="M504.49 551.53l20.05 0l0 14.52l-20.05 0Z" id="p86w121" />
<path d="M524.54 551.46l14.2 0l0 14.6l-14.2 0Z" id="p86w122" />
<path d="M538.74 551.53l19.79 0l0 14.52l-19.79 0Z" id="p86w123" />
<path d="M474.54 568.2l25.67 0l0 14.52l-25.67 0Z" id="p86w124" />
<path d="M503.42 568.2l20.05 0l0 14.52l-20.05 0Z" id="p86w125" />
<path d="M523.47 568.13l14.2 0l0 14.6l-14.2 0Z" id="p86w126" />
<path d="M537.68 568.2l12.57 0l0 14.52l-12.57 0Z" id="p86w127" />
<path d="M474.54 584.87l12.02 0l0 14.52l-12.02 0Z" id="p86w128" />
<path d="M494.82 584.87l25.38 0l0 14.52l-25.38 0Z" id="p86w129" />
<path d="M523.41 584.87l20.05 0l0 14.52l-20.05 0Z" id="p86w130" />
<path d="M543.46 584.8l14.2 0l0 14.6l-14.2 0Z" id="p86w131" />
<path d="M557.66 584.87l18.44 0l0 14.52l-18.44 0Z" id="p86w132" />
<path d="M362.24 606.95l18.47 0l0 14.52l-18.47 0Z" id="p86w133" />
<path d="M390.33 606.95l14.8 0l0 14.52l-14.8 0Z" id="p86w134" />
<path d="M408.34 606.95l31.81 0l0 14.52l-31.81 0Z" id="p86w135" />
<path d="M124.06 39.02l46.09 0l0 15.38l-46.09 0Z" id="p86w136" />
<path d="M208.74 39.02l46.59 0l0 15.38l-46.59 0Z" id="p86w137" />
<path d="M307.2 39.02l46.59 0l0 15.38l-46.59 0Z" id="p86w138" />
<path d="M406.45 38.6l34.29 0l0 16.09l-34.29 0Z" id="p86w139" />
<path d="M76.9 983l91.63 0l0 12.23l-91.63 0Z" id="p86w140" />
</svg>
