<?xml version="1.0" encoding="UTF-8"?>
<svg xmlns="http://www.w3.org/2000/svg" xmlns:xlink="http://www.w3.org/1999/xlink" version="1.1" baseProfile="full" width="768" height="1024" viewBox="0,0,768,1024" preserveAspectRatio="xMinYMin meet" >
<style type="text/css">
<![CDATA[
path {fill-opacity: 0.5;fill: #00aeef;visibility: hidden;}
]]>
</style>
<path d="M138.66 113.89l29.29 0l0 15.09l-29.29 0Z" id="p22w1" />
<path d="M171.56 113.89l54.42 0l0 15.09l-54.42 0Z" id="p22w2" />
<path d="M229.59 113.89l36.4 0l0 15.09l-36.4 0Z" id="p22w3" />
<path d="M279.7 113.89l26.5 0l0 15.09l-26.5 0Z" id="p22w4" />
<path d="M309.81 113.89l22.31 0l0 15.09l-22.31 0Z" id="p22w5" />
<path d="M335.73 113.89l35.48 0l0 15.09l-35.48 0Z" id="p22w6" />
<path d="M374.83 113.89l34.62 0l0 15.09l-34.62 0Z" id="p22w7" />
<path d="M413.06 113.89l13.91 0l0 15.09l-13.91 0Z" id="p22w8" />
<path d="M124.06 130.56l20.54 0l0 15.09l-20.54 0Z" id="p22w9" />
<path d="M148.21 130.56l21.13 0l0 15.09l-21.13 0Z" id="p22w10" />
<path d="M172.95 130.56l43.4 0l0 15.09l-43.4 0Z" id="p22w11" />
<path d="M219.96 130.56l15.15 0l0 15.09l-15.15 0Z" id="p22w12" />
<path d="M238.73 130.56l35.59 0l0 15.09l-35.59 0Z" id="p22w13" />
<path d="M277.93 130.56l28.84 0l0 15.09l-28.84 0Z" id="p22w14" />
<path d="M310.38 130.56l38.23 0l0 15.09l-38.23 0Z" id="p22w15" />
<path d="M352.22 130.56l13.91 0l0 15.09l-13.91 0Z" id="p22w16" />
<path d="M387.51 130.56l19.89 0l0 15.09l-19.89 0Z" id="p22w17" />
<path d="M124.06 147.23l48.73 0l0 15.09l-48.73 0Z" id="p22w18" />
<path d="M176.41 147.23l48.18 0l0 15.09l-48.18 0Z" id="p22w19" />
<path d="M228.2 147.23l21.67 0l0 15.09l-21.67 0Z" id="p22w20" />
<path d="M253.48 147.23l15.89 0l0 15.09l-15.89 0Z" id="p22w21" />
<path d="M272.98 147.23l35.69 0l0 15.09l-35.69 0Z" id="p22w22" />
<path d="M312.28 147.23l11.95 0l0 15.09l-11.95 0Z" id="p22w23" />
<path d="M327.84 147.23l54.52 0l0 15.09l-54.52 0Z" id="p22w24" />
<path d="M385.97 147.23l10.42 0l0 15.09l-10.42 0Z" id="p22w25" />
<path d="M400.01 147.23l38.18 0l0 15.09l-38.18 0Z" id="p22w26" />
<path d="M124.06 163.9l36.4 0l0 15.09l-36.4 0Z" id="p22w27" />
<path d="M174.17 163.9l64.53 0l0 15.09l-64.53 0Z" id="p22w28" />
<path d="M252.41 163.9l49.76 0l0 15.09l-49.76 0Z" id="p22w29" />
<path d="M305.79 163.9l20.54 0l0 15.09l-20.54 0Z" id="p22w30" />
<path d="M329.94 163.9l48.22 0l0 15.09l-48.22 0Z" id="p22w31" />
<path d="M124.06 190.98l29.46 0l0 12.29l-29.46 0Z" id="p22w32" />
<path d="M162.75 188.92l12.99 0l0 15.09l-12.99 0Z" id="p22w33" />
<path d="M179.36 188.92l8.21 0l0 15.09l-8.21 0Z" id="p22w34" />
<path d="M187.57 188.92l17.99 0l0 15.09l-17.99 0Z" id="p22w35" />
<path d="M209.17 188.92l26.3 0l0 15.09l-26.3 0Z" id="p22w36" />
<path d="M239.08 188.92l18.52 0l0 15.09l-18.52 0Z" id="p22w37" />
<path d="M261.21 188.92l71.44 0l0 15.09l-71.44 0Z" id="p22w38" />
<path d="M336.27 188.92l55.47 0l0 15.09l-55.47 0Z" id="p22w39" />
<path d="M395.35 188.92l12.22 0l0 15.09l-12.22 0Z" id="p22w40" />
<path d="M411.18 188.92l10.5 0l0 15.09l-10.5 0Z" id="p22w41" />
<path d="M135.88 205.59l43.57 0l0 15.09l-43.57 0Z" id="p22w42" />
<path d="M183.06 205.59l26.3 0l0 15.09l-26.3 0Z" id="p22w43" />
<path d="M212.96 205.59l35.15 0l0 15.09l-35.15 0Z" id="p22w44" />
<path d="M251.73 205.59l20.54 0l0 15.09l-20.54 0Z" id="p22w45" />
<path d="M275.87 205.59l39.22 0l0 15.09l-39.22 0Z" id="p22w46" />
<path d="M318.71 205.59l36.95 0l0 15.09l-36.95 0Z" id="p22w47" />
<path d="M359.27 205.59l21 0l0 15.09l-21 0Z" id="p22w48" />
<path d="M383.88 205.59l28.12 0l0 15.09l-28.12 0Z" id="p22w49" />
<path d="M153.65 222.26l23.06 0l0 15.09l-23.06 0Z" id="p22w50" />
<path d="M180.32 222.26l18.02 0l0 15.09l-18.02 0Z" id="p22w51" />
<path d="M201.95 222.26l38.17 0l0 15.09l-38.17 0Z" id="p22w52" />
<path d="M243.73 222.26l10.42 0l0 15.09l-10.42 0Z" id="p22w53" />
<path d="M257.77 222.26l34.62 0l0 15.09l-34.62 0Z" id="p22w54" />
<path d="M296 222.26l27.23 0l0 15.09l-27.23 0Z" id="p22w55" />
<path d="M326.85 222.26l15.74 0l0 15.09l-15.74 0Z" id="p22w56" />
<path d="M346.2 222.26l24.98 0l0 15.09l-24.98 0Z" id="p22w57" />
<path d="M374.8 222.26l40.73 0l0 15.09l-40.73 0Z" id="p22w58" />
<path d="M124.06 241l23.81 0l0 12.29l-23.81 0Z" id="p22w59" />
<path d="M157.11 238.94l21.96 0l0 15.09l-21.96 0Z" id="p22w60" />
<path d="M182.68 238.94l26.35 0l0 15.09l-26.35 0Z" id="p22w61" />
<path d="M212.64 238.94l22.03 0l0 15.09l-22.03 0Z" id="p22w62" />
<path d="M238.28 238.94l29.07 0l0 15.09l-29.07 0Z" id="p22w63" />
<path d="M270.96 238.94l11.18 0l0 15.09l-11.18 0Z" id="p22w64" />
<path d="M285.75 238.94l71.05 0l0 15.09l-71.05 0Z" id="p22w65" />
<path d="M124.06 257.67l26.25 0l0 12.29l-26.25 0Z" id="p22w66" />
<path d="M159.55 255.61l48.53 0l0 15.09l-48.53 0Z" id="p22w67" />
<path d="M211.69 255.61l53.34 0l0 15.09l-53.34 0Z" id="p22w68" />
<path d="M268.64 255.61l18.49 0l0 15.09l-18.49 0Z" id="p22w69" />
<path d="M290.74 255.61l10.5 0l0 15.09l-10.5 0Z" id="p22w70" />
<path d="M304.86 255.61l49.4 0l0 15.09l-49.4 0Z" id="p22w71" />
<path d="M357.87 255.61l36 0l0 15.09l-36 0Z" id="p22w72" />
<path d="M397.48 255.61l31.59 0l0 15.09l-31.59 0Z" id="p22w73" />
<path d="M124.06 274.35l29.46 0l0 12.29l-29.46 0Z" id="p22w74" />
<path d="M162.75 272.28l20.99 0l0 15.09l-20.99 0Z" id="p22w75" />
<path d="M194.3 272.28l8.02 0l0 15.09l-8.02 0Z" id="p22w76" />
<path d="M205.93 272.28l16.64 0l0 15.09l-16.64 0Z" id="p22w77" />
<path d="M226.19 272.28l58.36 0l0 15.09l-58.36 0Z" id="p22w78" />
<path d="M288.16 272.28l18.52 0l0 15.09l-18.52 0Z" id="p22w79" />
<path d="M310.29 272.28l67.88 0l0 15.09l-67.88 0Z" id="p22w80" />
<path d="M381.79 272.28l11.26 0l0 15.09l-11.26 0Z" id="p22w81" />
<path d="M396.66 272.28l15.56 0l0 15.09l-15.56 0Z" id="p22w82" />
<path d="M135.88 288.95l11.95 0l0 15.09l-11.95 0Z" id="p22w83" />
<path d="M151.44 288.95l25.23 0l0 15.09l-25.23 0Z" id="p22w84" />
<path d="M180.28 288.95l63.24 0l0 15.09l-63.24 0Z" id="p22w85" />
<path d="M247.14 288.95l48.71 0l0 15.09l-48.71 0Z" id="p22w86" />
<path d="M299.46 288.95l15.74 0l0 15.09l-15.74 0Z" id="p22w87" />
<path d="M318.81 288.95l54.17 0l0 15.09l-54.17 0Z" id="p22w88" />
<path d="M376.6 288.95l31.23 0l0 15.09l-31.23 0Z" id="p22w89" />
<path d="M411.44 288.95l28.99 0l0 15.09l-28.99 0Z" id="p22w90" />
<path d="M444.04 288.95l33.56 0l0 15.09l-33.56 0Z" id="p22w91" />
<path d="M135.88 305.62l13.4 0l0 15.09l-13.4 0Z" id="p22w92" />
<path d="M152.89 305.62l11.95 0l0 15.09l-11.95 0Z" id="p22w93" />
<path d="M168.46 305.62l25.23 0l0 15.09l-25.23 0Z" id="p22w94" />
<path d="M197.3 305.62l31.73 0l0 15.09l-31.73 0Z" id="p22w95" />
<path d="M232.64 305.62l53.59 0l0 15.09l-53.59 0Z" id="p22w96" />
<path d="M289.85 305.62l24.52 0l0 15.09l-24.52 0Z" id="p22w97" />
<path d="M317.98 305.62l24.6 0l0 15.09l-24.6 0Z" id="p22w98" />
<path d="M346.19 305.62l13.22 0l0 15.09l-13.22 0Z" id="p22w99" />
<path d="M363.02 305.62l11.95 0l0 15.09l-11.95 0Z" id="p22w100" />
<path d="M378.59 305.62l25.23 0l0 15.09l-25.23 0Z" id="p22w101" />
<path d="M407.43 305.62l39.98 0l0 15.09l-39.98 0Z" id="p22w102" />
<path d="M451.02 305.62l13.91 0l0 15.09l-13.91 0Z" id="p22w103" />
<path d="M468.54 305.62l24.12 0l0 15.09l-24.12 0Z" id="p22w104" />
<path d="M496.27 305.62l27.08 0l0 15.09l-27.08 0Z" id="p22w105" />
<path d="M526.96 305.62l41.02 0l0 15.09l-41.02 0Z" id="p22w106" />
<path d="M135.88 322.29l11.95 0l0 15.09l-11.95 0Z" id="p22w107" />
<path d="M151.44 322.29l50.1 0l0 15.09l-50.1 0Z" id="p22w108" />
<path d="M205.15 322.29l39.76 0l0 15.09l-39.76 0Z" id="p22w109" />
<path d="M248.53 322.29l13.91 0l0 15.09l-13.91 0Z" id="p22w110" />
<path d="M266.04 322.29l15.56 0l0 15.09l-15.56 0Z" id="p22w111" />
<path d="M285.22 322.29l11.26 0l0 15.09l-11.26 0Z" id="p22w112" />
<path d="M300.09 322.29l21 0l0 15.09l-21 0Z" id="p22w113" />
<path d="M334.8 322.29l15.94 0l0 15.09l-15.94 0Z" id="p22w114" />
<path d="M369.93 322.29l57.78 0l0 15.09l-57.78 0Z" id="p22w115" />
<path d="M431.32 322.29l25.88 0l0 15.09l-25.88 0Z" id="p22w116" />
<path d="M460.81 322.29l29.46 0l0 15.09l-29.46 0Z" id="p22w117" />
<path d="M493.88 322.29l19.29 0l0 15.09l-19.29 0Z" id="p22w118" />
<path d="M516.79 322.29l55.93 0l0 15.09l-55.93 0Z" id="p22w119" />
<path d="M135.88 338.96l13.91 0l0 15.09l-13.91 0Z" id="p22w120" />
<path d="M153.4 338.96l34.75 0l0 15.09l-34.75 0Z" id="p22w121" />
<path d="M203.38 338.96l17.79 0l0 15.09l-17.79 0Z" id="p22w122" />
<path d="M224.78 338.96l30.04 0l0 15.09l-30.04 0Z" id="p22w123" />
<path d="M258.42 338.96l11.26 0l0 15.09l-11.26 0Z" id="p22w124" />
<path d="M273.29 338.96l26.63 0l0 15.09l-26.63 0Z" id="p22w125" />
<path d="M303.53 338.96l15.15 0l0 15.09l-15.15 0Z" id="p22w126" />
<path d="M332.4 338.96l46.87 0l0 15.09l-46.87 0Z" id="p22w127" />
<path d="M382.88 338.96l31.59 0l0 15.09l-31.59 0Z" id="p22w128" />
<path d="M418.08 338.96l18.49 0l0 15.09l-18.49 0Z" id="p22w129" />
<path d="M440.19 338.96l51.59 0l0 15.09l-51.59 0Z" id="p22w130" />
<path d="M495.39 338.96l11.26 0l0 15.09l-11.26 0Z" id="p22w131" />
<path d="M510.26 338.96l65.17 0l0 15.09l-65.17 0Z" id="p22w132" />
<path d="M135.88 355.63l7.84 0l0 15.09l-7.84 0Z" id="p22w133" />
<path d="M147.33 355.63l37.13 0l0 15.09l-37.13 0Z" id="p22w134" />
<path d="M198.17 355.63l10.42 0l0 15.09l-10.42 0Z" id="p22w135" />
<path d="M212.21 355.63l55.75 0l0 15.09l-55.75 0Z" id="p22w136" />
<path d="M271.57 355.63l24.24 0l0 15.09l-24.24 0Z" id="p22w137" />
<path d="M299.42 355.63l24.92 0l0 15.09l-24.92 0Z" id="p22w138" />
<path d="M327.95 355.63l27.97 0l0 15.09l-27.97 0Z" id="p22w139" />
<path d="M359.53 355.63l10.63 0l0 15.09l-10.63 0Z" id="p22w140" />
<path d="M373.77 355.63l15.56 0l0 15.09l-15.56 0Z" id="p22w141" />
<path d="M392.94 355.63l10.4 0l0 15.09l-10.4 0Z" id="p22w142" />
<path d="M406.95 355.63l41.52 0l0 15.09l-41.52 0Z" id="p22w143" />
<path d="M452.09 355.63l15.74 0l0 15.09l-15.74 0Z" id="p22w144" />
<path d="M471.44 355.63l36.14 0l0 15.09l-36.14 0Z" id="p22w145" />
<path d="M511.19 355.63l11.26 0l0 15.09l-11.26 0Z" id="p22w146" />
<path d="M526.06 355.63l37.08 0l0 15.09l-37.08 0Z" id="p22w147" />
<path d="M135.88 372.3l70.42 0l0 15.09l-70.42 0Z" id="p22w148" />
<path d="M209.91 372.3l17.07 0l0 15.09l-17.07 0Z" id="p22w149" />
<path d="M230.58 372.3l10.63 0l0 15.09l-10.63 0Z" id="p22w150" />
<path d="M244.82 372.3l22.45 0l0 15.09l-22.45 0Z" id="p22w151" />
<path d="M270.89 372.3l46.91 0l0 15.09l-46.91 0Z" id="p22w152" />
<path d="M321.41 372.3l12.66 0l0 15.09l-12.66 0Z" id="p22w153" />
<path d="M337.68 372.3l21.81 0l0 15.09l-21.81 0Z" id="p22w154" />
<path d="M363.1 372.3l10.5 0l0 15.09l-10.5 0Z" id="p22w155" />
<path d="M377.21 372.3l24.1 0l0 15.09l-24.1 0Z" id="p22w156" />
<path d="M421.59 372.3l44.19 0l0 15.09l-44.19 0Z" id="p22w157" />
<path d="M124.06 391.06l26.25 0l0 12.29l-26.25 0Z" id="p22w158" />
<path d="M159.55 388.99l45.7 0l0 15.09l-45.7 0Z" id="p22w159" />
<path d="M208.86 388.99l10.42 0l0 15.09l-10.42 0Z" id="p22w160" />
<path d="M222.9 388.99l47.32 0l0 15.09l-47.32 0Z" id="p22w161" />
<path d="M273.83 388.99l27.82 0l0 15.09l-27.82 0Z" id="p22w162" />
<path d="M305.27 388.99l11.18 0l0 15.09l-11.18 0Z" id="p22w163" />
<path d="M320.06 388.99l67.88 0l0 15.09l-67.88 0Z" id="p22w164" />
<path d="M124.06 407.73l24.42 0l0 12.29l-24.42 0Z" id="p22w165" />
<path d="M151.18 407.73l40.45 0l0 12.29l-40.45 0Z" id="p22w166" />
<path d="M200.87 405.67l28.72 0l0 15.09l-28.72 0Z" id="p22w167" />
<path d="M233.2 405.67l22.03 0l0 15.09l-22.03 0Z" id="p22w168" />
<path d="M258.84 405.67l37.57 0l0 15.09l-37.57 0Z" id="p22w169" />
<path d="M300.02 405.67l36.4 0l0 15.09l-36.4 0Z" id="p22w170" />
<path d="M346.98 405.67l23.62 0l0 15.09l-23.62 0Z" id="p22w171" />
<path d="M374.21 405.67l45.06 0l0 15.09l-45.06 0Z" id="p22w172" />
<path d="M422.88 405.67l43.85 0l0 15.09l-43.85 0Z" id="p22w173" />
<path d="M470.35 405.67l16.14 0l0 15.09l-16.14 0Z" id="p22w174" />
<path d="M490.1 405.67l12.66 0l0 15.09l-12.66 0Z" id="p22w175" />
<path d="M506.37 405.67l28.22 0l0 15.09l-28.22 0Z" id="p22w176" />
<path d="M538.2 405.67l19.46 0l0 15.09l-19.46 0Z" id="p22w177" />
<path d="M135.87 422.34l49.09 0l0 15.09l-49.09 0Z" id="p22w178" />
<path d="M188.58 422.34l11.26 0l0 15.09l-11.26 0Z" id="p22w179" />
<path d="M203.45 422.34l26.63 0l0 15.09l-26.63 0Z" id="p22w180" />
<path d="M233.69 422.34l40.45 0l0 15.09l-40.45 0Z" id="p22w181" />
<path d="M124.06 466.45l34.63 0l0 18.84l-34.63 0Z" id="p22w182" />
<path d="M162.34 466.45l89.43 0l0 18.84l-89.43 0Z" id="p22w183" />
<path d="M255.42 466.45l13.62 0l0 18.84l-13.62 0Z" id="p22w184" />
<path d="M272.69 466.45l38.39 0l0 18.84l-38.39 0Z" id="p22w185" />
<path d="M123.63 497.65l21.21 0l0 14.52l-21.21 0Z" id="p22w186" />
<path d="M148.04 497.65l13.91 0l0 14.52l-13.91 0Z" id="p22w187" />
<path d="M165.16 497.65l23.8 0l0 14.52l-23.8 0Z" id="p22w188" />
<path d="M200.46 497.65l31.55 0l0 14.52l-31.55 0Z" id="p22w189" />
<path d="M232.01 497.65l12.57 0l0 14.52l-12.57 0Z" id="p22w190" />
<path d="M247.78 497.65l18.72 0l0 14.52l-18.72 0Z" id="p22w191" />
<path d="M269.7 497.65l50.51 0l0 14.52l-50.51 0Z" id="p22w192" />
<path d="M323.42 497.65l18.44 0l0 14.52l-18.44 0Z" id="p22w193" />
<path d="M345.07 497.65l20.85 0l0 14.52l-20.85 0Z" id="p22w194" />
<path d="M369.13 497.65l42.24 0l0 14.52l-42.24 0Z" id="p22w195" />
<path d="M414.58 497.65l14.18 0l0 14.52l-14.18 0Z" id="p22w196" />
<path d="M431.96 497.65l31.01 0l0 14.52l-31.01 0Z" id="p22w197" />
<path d="M143.75 522.67l52.12 0l0 14.52l-52.12 0Z" id="p22w198" />
<path d="M198.65 522.67l37.7 0l0 14.52l-37.7 0Z" id="p22w199" />
<path d="M239.55 522.67l45.43 0l0 14.52l-45.43 0Z" id="p22w200" />
<path d="M288.19 522.67l46.79 0l0 14.52l-46.79 0Z" id="p22w201" />
<path d="M143.75 539.34l18.44 0l0 14.52l-18.44 0Z" id="p22w202" />
<path d="M165.4 539.34l35 0l0 14.52l-35 0Z" id="p22w203" />
<path d="M203.61 539.34l18.72 0l0 14.52l-18.72 0Z" id="p22w204" />
<path d="M225.54 539.34l23.52 0l0 14.52l-23.52 0Z" id="p22w205" />
<path d="M252.27 539.34l28.33 0l0 14.52l-28.33 0Z" id="p22w206" />
<path d="M283.8 539.34l13.9 0l0 14.52l-13.9 0Z" id="p22w207" />
<path d="M300.9 539.34l9.89 0l0 14.52l-9.89 0Z" id="p22w208" />
<path d="M314 539.34l27.47 0l0 14.52l-27.47 0Z" id="p22w209" />
<path d="M344.67 539.34l46.71 0l0 14.52l-46.71 0Z" id="p22w210" />
<path d="M394.59 539.34l13.9 0l0 14.52l-13.9 0Z" id="p22w211" />
<path d="M411.7 539.34l29.95 0l0 14.52l-29.95 0Z" id="p22w212" />
<path d="M444.86 539.34l54.43 0l0 14.52l-54.43 0Z" id="p22w213" />
<path d="M143.75 556.01l35.02 0l0 14.52l-35.02 0Z" id="p22w214" />
<path d="M191.87 556.01l18.7 0l0 14.52l-18.7 0Z" id="p22w215" />
<path d="M213.78 556.01l29.67 0l0 14.52l-29.67 0Z" id="p22w216" />
<path d="M246.66 556.01l9.89 0l0 14.52l-9.89 0Z" id="p22w217" />
<path d="M259.75 556.01l29.39 0l0 14.52l-29.39 0Z" id="p22w218" />
<path d="M292.35 556.01l14.18 0l0 14.52l-14.18 0Z" id="p22w219" />
<path d="M309.74 556.01l22.99 0l0 14.52l-22.99 0Z" id="p22w220" />
<path d="M143.75 572.68l35.02 0l0 14.52l-35.02 0Z" id="p22w221" />
<path d="M191.87 572.68l18.7 0l0 14.52l-18.7 0Z" id="p22w222" />
<path d="M213.78 572.68l20.85 0l0 14.52l-20.85 0Z" id="p22w223" />
<path d="M237.84 572.68l32.89 0l0 14.52l-32.89 0Z" id="p22w224" />
<path d="M273.94 572.68l17.11 0l0 14.52l-17.11 0Z" id="p22w225" />
<path d="M294.25 572.68l9.89 0l0 14.52l-9.89 0Z" id="p22w226" />
<path d="M307.35 572.68l44.85 0l0 14.52l-44.85 0Z" id="p22w227" />
<path d="M143.75 589.35l29.67 0l0 14.52l-29.67 0Z" id="p22w228" />
<path d="M176.63 589.35l11.22 0l0 14.52l-11.22 0Z" id="p22w229" />
<path d="M191.06 589.35l49.44 0l0 14.52l-49.44 0Z" id="p22w230" />
<path d="M243.71 589.35l12.29 0l0 14.52l-12.29 0Z" id="p22w231" />
<path d="M259.21 589.35l24.33 0l0 14.52l-24.33 0Z" id="p22w232" />
<path d="M286.74 589.35l59.87 0l0 14.52l-59.87 0Z" id="p22w233" />
<path d="M349.82 589.35l35.29 0l0 14.52l-35.29 0Z" id="p22w234" />
<path d="M388.32 589.35l12.02 0l0 14.52l-12.02 0Z" id="p22w235" />
<path d="M403.56 589.35l39.55 0l0 14.52l-39.55 0Z" id="p22w236" />
<path d="M446.31 589.35l38.77 0l0 14.52l-38.77 0Z" id="p22w237" />
<path d="M143.75 606.02l12.57 0l0 14.52l-12.57 0Z" id="p22w238" />
<path d="M159.53 606.02l13.9 0l0 14.52l-13.9 0Z" id="p22w239" />
<path d="M176.63 606.02l12.29 0l0 14.52l-12.29 0Z" id="p22w240" />
<path d="M192.13 606.02l24.33 0l0 14.52l-24.33 0Z" id="p22w241" />
<path d="M219.66 606.02l36.07 0l0 14.52l-36.07 0Z" id="p22w242" />
<path d="M258.94 606.02l32.62 0l0 14.52l-32.62 0Z" id="p22w243" />
<path d="M143.75 622.69l49.44 0l0 14.52l-49.44 0Z" id="p22w244" />
<path d="M206.29 622.69l34.23 0l0 14.52l-34.23 0Z" id="p22w245" />
<path d="M243.73 622.69l32.35 0l0 14.52l-32.35 0Z" id="p22w246" />
<path d="M143.75 639.36l49.44 0l0 14.52l-49.44 0Z" id="p22w247" />
<path d="M196.41 639.36l11.22 0l0 14.52l-11.22 0Z" id="p22w248" />
<path d="M210.83 639.36l29.67 0l0 14.52l-29.67 0Z" id="p22w249" />
<path d="M243.71 639.36l18.72 0l0 14.52l-18.72 0Z" id="p22w250" />
<path d="M265.64 639.36l67.55 0l0 14.52l-67.55 0Z" id="p22w251" />
<path d="M346.28 639.36l9.89 0l0 14.52l-9.89 0Z" id="p22w252" />
<path d="M359.38 639.36l51.05 0l0 14.52l-51.05 0Z" id="p22w253" />
<path d="M124.06 672.7l50.25 0l0 14.52l-50.25 0Z" id="p22w254" />
<path d="M177.52 672.7l40.64 0l0 14.52l-40.64 0Z" id="p22w255" />
<path d="M221.37 672.7l64.08 0l0 14.52l-64.08 0Z" id="p22w256" />
<path d="M288.66 672.7l14.18 0l0 14.52l-14.18 0Z" id="p22w257" />
<path d="M306.04 672.7l28.33 0l0 14.52l-28.33 0Z" id="p22w258" />
<path d="M337.57 672.7l13.9 0l0 14.52l-13.9 0Z" id="p22w259" />
<path d="M382.57 672.7l45.97 0l0 14.52l-45.97 0Z" id="p22w260" />
<path d="M352.36 689.37l14.44 0l0 14.52l-14.44 0Z" id="p22w261" />
<path d="M370 689.37l23.52 0l0 14.52l-23.52 0Z" id="p22w262" />
<path d="M124.06 722.72l39.31 0l0 14.52l-39.31 0Z" id="p22w263" />
<path d="M166.58 722.72l9.89 0l0 14.52l-9.89 0Z" id="p22w264" />
<path d="M179.67 722.72l49.37 0l0 14.52l-49.37 0Z" id="p22w265" />
<path d="M232.24 722.72l20.85 0l0 14.52l-20.85 0Z" id="p22w266" />
<path d="M256.31 722.72l35.02 0l0 14.52l-35.02 0Z" id="p22w267" />
<path d="M294.53 722.72l36.89 0l0 14.52l-36.89 0Z" id="p22w268" />
<path d="M344.52 722.72l12.29 0l0 14.52l-12.29 0Z" id="p22w269" />
<path d="M360.01 722.72l67.74 0l0 14.52l-67.74 0Z" id="p22w270" />
<path d="M124.06 766.56l23.83 0l0 18.84l-23.83 0Z" id="p22w271" />
<path d="M151.54 766.56l18.36 0l0 18.84l-18.36 0Z" id="p22w272" />
<path d="M173.54 766.56l37.28 0l0 18.84l-37.28 0Z" id="p22w273" />
<path d="M143.75 797.76l42.53 0l0 14.52l-42.53 0Z" id="p22w274" />
<path d="M189.49 797.76l26.73 0l0 14.52l-26.73 0Z" id="p22w275" />
<path d="M219.43 797.76l9.89 0l0 14.52l-9.89 0Z" id="p22w276" />
<path d="M232.52 797.76l28.33 0l0 14.52l-28.33 0Z" id="p22w277" />
<path d="M264.05 797.76l15.5 0l0 14.52l-15.5 0Z" id="p22w278" />
<path d="M282.76 797.76l62.02 0l0 14.52l-62.02 0Z" id="p22w279" />
<path d="M347.99 797.76l19.51 0l0 14.52l-19.51 0Z" id="p22w280" />
<path d="M370.7 797.76l28.06 0l0 14.52l-28.06 0Z" id="p22w281" />
<path d="M401.97 797.76l11.22 0l0 14.52l-11.22 0Z" id="p22w282" />
<path d="M416.4 797.76l65.22 0l0 14.52l-65.22 0Z" id="p22w283" />
<path d="M484.82 797.76l48.48 0l0 14.52l-48.48 0Z" id="p22w284" />
<path d="M148.68 826.19l24.31 0l0 14.52l-24.31 0Z" id="p22w285" />
<path d="M176.2 826.19l20.58 0l0 14.52l-20.58 0Z" id="p22w286" />
<path d="M403.89 826.19l13.9 0l0 14.52l-13.9 0Z" id="p22w287" />
<path d="M421 826.19l22.99 0l0 14.52l-22.99 0Z" id="p22w288" />
<path d="M447.2 826.19l12.29 0l0 14.52l-12.29 0Z" id="p22w289" />
<path d="M462.69 826.19l20.85 0l0 14.52l-20.85 0Z" id="p22w290" />
<path d="M224.8 826.19l26.19 0l0 14.52l-26.19 0Z" id="p22w291" />
<path d="M254.2 826.19l47.04 0l0 14.52l-47.04 0Z" id="p22w292" />
<path d="M336.55 826.19l38.48 0l0 14.52l-38.48 0Z" id="p22w293" />
<path d="M143.75 856.12l59.34 0l0 14.52l-59.34 0Z" id="p22w294" />
<path d="M206.3 856.12l15.5 0l0 14.52l-15.5 0Z" id="p22w295" />
<path d="M225 856.12l68.98 0l0 14.52l-68.98 0Z" id="p22w296" />
<path d="M138.78 881.14l36.63 0l0 14.52l-36.63 0Z" id="p22w297" />
<path d="M178.61 881.14l14.18 0l0 14.52l-14.18 0Z" id="p22w298" />
<path d="M195.99 881.14l12.66 0l0 14.52l-12.66 0Z" id="p22w299" />
<path d="M211.86 881.14l23.97 0l0 14.52l-23.97 0Z" id="p22w300" />
<path d="M239.04 881.14l25.4 0l0 14.52l-25.4 0Z" id="p22w301" />
<path d="M277.53 881.14l37.25 0l0 14.52l-37.25 0Z" id="p22w302" />
<path d="M317.98 881.14l14.18 0l0 14.52l-14.18 0Z" id="p22w303" />
<path d="M335.37 881.14l58.47 0l0 14.52l-58.47 0Z" id="p22w304" />
<path d="M139.75 897.81l12.83 0l0 14.52l-12.83 0Z" id="p22w305" />
<path d="M155.79 897.81l27.47 0l0 14.52l-27.47 0Z" id="p22w306" />
<path d="M186.46 897.81l46.71 0l0 14.52l-46.71 0Z" id="p22w307" />
<path d="M236.38 897.81l25.65 0l0 14.52l-25.65 0Z" id="p22w308" />
<path d="M265.24 897.81l25.67 0l0 14.52l-25.67 0Z" id="p22w309" />
<path d="M294.12 897.81l9.89 0l0 14.52l-9.89 0Z" id="p22w310" />
<path d="M307.21 897.81l50.21 0l0 14.52l-50.21 0Z" id="p22w311" />
<path d="M139.75 914.48l36.63 0l0 14.52l-36.63 0Z" id="p22w312" />
<path d="M179.59 914.48l12.57 0l0 14.52l-12.57 0Z" id="p22w313" />
<path d="M195.36 914.48l25.92 0l0 14.52l-25.92 0Z" id="p22w314" />
<path d="M224.49 914.48l19.51 0l0 14.52l-19.51 0Z" id="p22w315" />
<path d="M247.21 914.48l9.89 0l0 14.52l-9.89 0Z" id="p22w316" />
<path d="M260.3 914.48l35.27 0l0 14.52l-35.27 0Z" id="p22w317" />
<path d="M298.78 914.48l35.03 0l0 14.52l-35.03 0Z" id="p22w318" />
<path d="M337.02 914.48l38.17 0l0 14.52l-38.17 0Z" id="p22w319" />
<path d="M139.75 931.15l22.19 0l0 14.52l-22.19 0Z" id="p22w320" />
<path d="M165.15 931.15l52.12 0l0 14.52l-52.12 0Z" id="p22w321" />
<path d="M220.48 931.15l17.38 0l0 14.52l-17.38 0Z" id="p22w322" />
<path d="M241.07 931.15l15.87 0l0 14.52l-15.87 0Z" id="p22w323" />
<path d="M260.14 931.15l19.51 0l0 14.52l-19.51 0Z" id="p22w324" />
<path d="M282.86 931.15l13.9 0l0 14.52l-13.9 0Z" id="p22w325" />
<path d="M299.97 931.15l38.21 0l0 14.52l-38.21 0Z" id="p22w326" />
<path d="M341.38 931.15l11.22 0l0 14.52l-11.22 0Z" id="p22w327" />
<path d="M355.81 931.15l19.51 0l0 14.52l-19.51 0Z" id="p22w328" />
<path d="M378.53 931.15l35.81 0l0 14.52l-35.81 0Z" id="p22w329" />
<path d="M417.54 931.15l30.15 0l0 14.52l-30.15 0Z" id="p22w330" />
<path d="M73.54 471.92l15.07 0l0 12.29l-15.07 0Z" id="p22w331" />
<path d="M52.89 492.85l35.72 0l0 12.3l-35.72 0Z" id="p22w332" />
<path d="M39.49 503.96l49.13 0l0 12.3l-49.13 0Z" id="p22w333" />
<path d="M60.68 674.49l27.93 0l0 12.29l-27.93 0Z" id="p22w334" />
<path d="M62.22 724.51l26.4 0l0 12.29l-26.4 0Z" id="p22w335" />
<path d="M548.63 703.73l27.54 0l0 15.98l-27.54 0Z" id="p22w336" />
<path d="M580.13 705.38l50.96 0l0 17.21l-50.96 0Z" id="p22w337" />
<path d="M124.06 39.02l42.71 0l0 15.38l-42.71 0Z" id="p22w338" />
<path d="M208.04 39.02l43.21 0l0 15.38l-43.21 0Z" id="p22w339" />
<path d="M307.2 38.6l45.06 0l0 16.09l-45.06 0Z" id="p22w340" />
<path d="M405.76 39.02l32.54 0l0 15.38l-32.54 0Z" id="p22w341" />
<path d="M76.9 983l23.81 0l0 12.23l-23.81 0Z" id="p22w342" />
</svg>
