<?xml version="1.0" encoding="UTF-8"?>
<svg xmlns="http://www.w3.org/2000/svg" xmlns:xlink="http://www.w3.org/1999/xlink" version="1.1" baseProfile="full" width="768" height="1024" viewBox="0,0,768,1024" preserveAspectRatio="xMinYMin meet" >
<style type="text/css">
<![CDATA[
path {fill-opacity: 0.5;fill: #00aeef;visibility: hidden;}
]]>
</style>
<path d="M124.06 104.82l83.64 0l0 23.34l-83.64 0Z" id="p59w1" />
<path d="M212.78 104.82l24.41 0l0 23.34l-24.41 0Z" id="p59w2" />
<path d="M242.27 104.82l66.6 0l0 23.34l-66.6 0Z" id="p59w3" />
<path d="M319.36 104.82l24.41 0l0 23.34l-24.41 0Z" id="p59w4" />
<path d="M348.84 104.82l125.72 0l0 23.34l-125.72 0Z" id="p59w5" />
<path d="M124.06 147.24l44.76 0l0 15.09l-44.76 0Z" id="p59w6" />
<path d="M172.44 147.24l26.03 0l0 15.09l-26.03 0Z" id="p59w7" />
<path d="M212.18 147.24l17.34 0l0 15.09l-17.34 0Z" id="p59w8" />
<path d="M233.13 147.24l91.26 0l0 15.09l-91.26 0Z" id="p59w9" />
<path d="M124.06 831.11l51.89 0l0 14.52l-51.89 0Z" id="p59w10" />
<path d="M179.16 831.11l15.5 0l0 14.52l-15.5 0Z" id="p59w11" />
<path d="M197.86 831.11l38.5 0l0 14.52l-38.5 0Z" id="p59w12" />
<path d="M239.57 831.11l11.22 0l0 14.52l-11.22 0Z" id="p59w13" />
<path d="M254 831.11l27.26 0l0 14.52l-27.26 0Z" id="p59w14" />
<path d="M284.46 831.11l25.67 0l0 14.52l-25.67 0Z" id="p59w15" />
<path d="M313.34 831.11l40.64 0l0 14.52l-40.64 0Z" id="p59w16" />
<path d="M357.19 831.11l32.07 0l0 14.52l-32.07 0Z" id="p59w17" />
<path d="M392.47 831.11l8.82 0l0 14.52l-8.82 0Z" id="p59w18" />
<path d="M404.5 831.11l19.77 0l0 14.52l-19.77 0Z" id="p59w19" />
<path d="M427.48 831.11l12.29 0l0 14.52l-12.29 0Z" id="p59w20" />
<path d="M442.97 831.11l31.8 0l0 14.52l-31.8 0Z" id="p59w21" />
<path d="M477.98 831.11l13.9 0l0 14.52l-13.9 0Z" id="p59w22" />
<path d="M495.08 831.11l36.89 0l0 14.52l-36.89 0Z" id="p59w23" />
<path d="M124.06 847.78l13.91 0l0 14.52l-13.91 0Z" id="p59w24" />
<path d="M141.18 847.78l13.9 0l0 14.52l-13.9 0Z" id="p59w25" />
<path d="M158.29 847.78l62.21 0l0 14.52l-62.21 0Z" id="p59w26" />
<path d="M223.71 847.78l31.55 0l0 14.52l-31.55 0Z" id="p59w27" />
<path d="M255.25 847.78l12.57 0l0 14.52l-12.57 0Z" id="p59w28" />
<path d="M271.02 847.78l28.87 0l0 14.52l-28.87 0Z" id="p59w29" />
<path d="M303.1 847.78l47.58 0l0 14.52l-47.58 0Z" id="p59w30" />
<path d="M124.06 872.81l12.76 0l0 14.61l-12.76 0Z" id="p59w31" />
<path d="M140.04 872.81l31.8 0l0 14.61l-31.8 0Z" id="p59w32" />
<path d="M185.89 872.81l24.76 0l0 14.61l-24.76 0Z" id="p59w33" />
<path d="M213.86 872.81l28.31 0l0 14.61l-28.31 0Z" id="p59w34" />
<path d="M245.38 872.81l30.66 0l0 14.61l-30.66 0Z" id="p59w35" />
<path d="M279.25 872.81l35.26 0l0 14.61l-35.26 0Z" id="p59w36" />
<path d="M135.02 906.14l25.67 0l0 14.52l-25.67 0Z" id="p59w37" />
<path d="M170.86 906.14l51.33 0l0 14.52l-51.33 0Z" id="p59w38" />
<path d="M225.4 906.14l37.96 0l0 14.52l-37.96 0Z" id="p59w39" />
<path d="M266.56 906.14l26.74 0l0 14.52l-26.74 0Z" id="p59w40" />
<path d="M296.51 906.14l38.5 0l0 14.52l-38.5 0Z" id="p59w41" />
<path d="M338.22 906.14l13.9 0l0 14.52l-13.9 0Z" id="p59w42" />
<path d="M355.33 906.14l37.96 0l0 14.52l-37.96 0Z" id="p59w43" />
<path d="M396.5 906.14l30.23 0l0 14.52l-30.23 0Z" id="p59w44" />
<path d="M429.93 906.14l35.56 0l0 14.52l-35.56 0Z" id="p59w45" />
<path d="M468.7 906.14l58.53 0l0 14.52l-58.53 0Z" id="p59w46" />
<path d="M530.43 906.14l13.9 0l0 14.52l-13.9 0Z" id="p59w47" />
<path d="M124.06 922.81l36.89 0l0 14.52l-36.89 0Z" id="p59w48" />
<path d="M164.16 922.81l13.91 0l0 14.52l-13.91 0Z" id="p59w49" />
<path d="M181.28 922.81l13.9 0l0 14.52l-13.9 0Z" id="p59w50" />
<path d="M198.39 922.81l62.21 0l0 14.52l-62.21 0Z" id="p59w51" />
<path d="M60.69 832.88l27.93 0l0 12.29l-27.93 0Z" id="p59w52" />
<path d="M75.85 38.6l36.57 0l0 16.09l-36.57 0Z" id="p59w53" />
<path d="M620.94 983l70.16 0l0 12.23l-70.16 0Z" id="p59w54" />
</svg>
