<?xml version="1.0" encoding="UTF-8"?>
<svg xmlns="http://www.w3.org/2000/svg" xmlns:xlink="http://www.w3.org/1999/xlink" version="1.1" baseProfile="full" width="768" height="1024" viewBox="0,0,768,1024" preserveAspectRatio="xMinYMin meet" >
<style type="text/css">
<![CDATA[
path {fill-opacity: 0.5;fill: #00aeef;visibility: hidden;}
]]>
</style>
<path d="M76.9 983.66l120.74 0l0 12.23l-120.74 0Z" id="p244w1" />
<path d="M124.06 38.6l81.82 0l0 16.09l-81.82 0Z" id="p244w2" />
<path d="M124.06 112.45l36.45 0l0 12.29l-36.45 0Z" id="p244w3" />
<path d="M164.68 112.45l41.99 0l0 12.29l-41.99 0Z" id="p244w4" />
<path d="M212.53 111.41l71.87 0l0 13.77l-71.87 0Z" id="p244w5" />
<path d="M133.91 127.79l53.68 0l0 12.23l-53.68 0Z" id="p244w6" />
<path d="M190.29 127.55l18.01 0l0 12.56l-18.01 0Z" id="p244w7" />
<path d="M124.06 143.02l42.5 0l0 12.29l-42.5 0Z" id="p244w8" />
<path d="M169.27 143.08l27.37 0l0 12.23l-27.37 0Z" id="p244w9" />
<path d="M202.49 141.97l38.83 0l0 13.77l-38.83 0Z" id="p244w10" />
<path d="M247.17 143.08l18.46 0l0 12.23l-18.46 0Z" id="p244w11" />
<path d="M268.34 143.08l24.21 0l0 12.23l-24.21 0Z" id="p244w12" />
<path d="M133.91 158.36l19.44 0l0 12.23l-19.44 0Z" id="p244w13" />
<path d="M156.05 158.36l56.5 0l0 12.23l-56.5 0Z" id="p244w14" />
<path d="M215.25 158.11l18.72 0l0 12.56l-18.72 0Z" id="p244w15" />
<path d="M124.06 173.64l17.56 0l0 12.23l-17.56 0Z" id="p244w16" />
<path d="M144.32 173.59l36.58 0l0 12.29l-36.58 0Z" id="p244w17" />
<path d="M186.76 172.54l42.1 0l0 13.77l-42.1 0Z" id="p244w18" />
<path d="M234.72 173.64l20.03 0l0 12.23l-20.03 0Z" id="p244w19" />
<path d="M133.91 188.93l49.71 0l0 12.23l-49.71 0Z" id="p244w20" />
<path d="M186.32 188.68l18.92 0l0 12.56l-18.92 0Z" id="p244w21" />
<path d="M124.06 204.15l49.8 0l0 12.29l-49.8 0Z" id="p244w22" />
<path d="M176.56 204.21l27.37 0l0 12.23l-27.37 0Z" id="p244w23" />
<path d="M209.78 203.11l40.97 0l0 13.77l-40.97 0Z" id="p244w24" />
<path d="M256.61 204.21l40.5 0l0 12.23l-40.5 0Z" id="p244w25" />
<path d="M133.91 219.49l47.26 0l0 12.23l-47.26 0Z" id="p244w26" />
<path d="M183.87 219.25l14.41 0l0 12.56l-14.41 0Z" id="p244w27" />
<path d="M124.06 234.72l45.11 0l0 12.29l-45.11 0Z" id="p244w28" />
<path d="M171.87 234.78l12.16 0l0 12.23l-12.16 0Z" id="p244w29" />
<path d="M186.73 234.78l37.49 0l0 12.23l-37.49 0Z" id="p244w30" />
<path d="M226.92 234.78l11.04 0l0 12.23l-11.04 0Z" id="p244w31" />
<path d="M243.82 233.68l42.02 0l0 13.77l-42.02 0Z" id="p244w32" />
<path d="M133.91 250.06l20.04 0l0 12.23l-20.04 0Z" id="p244w33" />
<path d="M156.65 250.06l13.28 0l0 12.23l-13.28 0Z" id="p244w34" />
<path d="M172.64 250.06l19.44 0l0 12.23l-19.44 0Z" id="p244w35" />
<path d="M194.78 250.06l37.11 0l0 12.23l-37.11 0Z" id="p244w36" />
<path d="M234.59 250.06l18.46 0l0 12.23l-18.46 0Z" id="p244w37" />
<path d="M255.75 250.06l14.41 0l0 12.23l-14.41 0Z" id="p244w38" />
<path d="M272.86 250.06l20.04 0l0 12.23l-20.04 0Z" id="p244w39" />
<path d="M133.91 265.34l13.28 0l0 12.23l-13.28 0Z" id="p244w40" />
<path d="M149.89 265.34l19.44 0l0 12.23l-19.44 0Z" id="p244w41" />
<path d="M172.03 265.34l46.37 0l0 12.23l-46.37 0Z" id="p244w42" />
<path d="M221.11 265.1l18.92 0l0 12.56l-18.92 0Z" id="p244w43" />
<path d="M124.06 280.57l41.59 0l0 12.29l-41.59 0Z" id="p244w44" />
<path d="M168.36 280.6l15.53 0l0 12.23l-15.53 0Z" id="p244w45" />
<path d="M186.58 280.6l20.92 0l0 12.23l-20.92 0Z" id="p244w46" />
<path d="M213.36 279.53l60.86 0l0 13.77l-60.86 0Z" id="p244w47" />
<path d="M133.91 295.89l29.04 0l0 12.23l-29.04 0Z" id="p244w48" />
<path d="M165.65 295.89l25.9 0l0 12.23l-25.9 0Z" id="p244w49" />
<path d="M194.25 295.91l58.72 0l0 12.23l-58.72 0Z" id="p244w50" />
<path d="M255.68 295.89l29.04 0l0 12.23l-29.04 0Z" id="p244w51" />
<path d="M133.91 311.17l25.9 0l0 12.23l-25.9 0Z" id="p244w52" />
<path d="M162.51 311.19l43.44 0l0 12.23l-43.44 0Z" id="p244w53" />
<path d="M208.65 310.95l15.34 0l0 12.56l-15.34 0Z" id="p244w54" />
<path d="M124.06 326.42l44.11 0l0 12.29l-44.11 0Z" id="p244w55" />
<path d="M170.87 326.48l8.33 0l0 12.23l-8.33 0Z" id="p244w56" />
<path d="M181.89 326.48l27.01 0l0 12.23l-27.01 0Z" id="p244w57" />
<path d="M219.93 326.48l12.16 0l0 12.23l-12.16 0Z" id="p244w58" />
<path d="M137.07 340.66l69.71 0l0 13.77l-69.71 0Z" id="p244w59" />
<path d="M212.64 341.76l16.9 0l0 12.23l-16.9 0Z" id="p244w60" />
<path d="M232.23 341.76l48.84 0l0 12.23l-48.84 0Z" id="p244w61" />
<path d="M133.91 356.8l15.54 0l0 12.56l-15.54 0Z" id="p244w62" />
<path d="M124.06 372.27l45.88 0l0 12.29l-45.88 0Z" id="p244w63" />
<path d="M175.8 371.23l41.47 0l0 13.77l-41.47 0Z" id="p244w64" />
<path d="M223.13 372.33l16.9 0l0 12.23l-16.9 0Z" id="p244w65" />
<path d="M242.73 372.33l32.18 0l0 12.23l-32.18 0Z" id="p244w66" />
<path d="M133.91 387.61l50.64 0l0 12.23l-50.64 0Z" id="p244w67" />
<path d="M187.25 387.37l18.92 0l0 12.56l-18.92 0Z" id="p244w68" />
<path d="M124.06 402.89l17.56 0l0 12.23l-17.56 0Z" id="p244w69" />
<path d="M144.32 402.84l45.46 0l0 12.29l-45.46 0Z" id="p244w70" />
<path d="M195.64 401.79l42.57 0l0 13.77l-42.57 0Z" id="p244w71" />
<path d="M244.07 402.89l20.03 0l0 12.23l-20.03 0Z" id="p244w72" />
<path d="M133.91 418.18l56.54 0l0 12.23l-56.54 0Z" id="p244w73" />
<path d="M193.15 418.18l14.41 0l0 12.23l-14.41 0Z" id="p244w74" />
<path d="M209.96 418.18l32.87 0l0 12.23l-32.87 0Z" id="p244w75" />
<path d="M245.53 417.93l17.26 0l0 12.56l-17.26 0Z" id="p244w76" />
<path d="M124.06 433.4l49.36 0l0 12.29l-49.36 0Z" id="p244w77" />
<path d="M176.13 433.46l12.16 0l0 12.23l-12.16 0Z" id="p244w78" />
<path d="M194.14 432.36l36.24 0l0 13.77l-36.24 0Z" id="p244w79" />
<path d="M236.24 433.46l20.04 0l0 12.23l-20.04 0Z" id="p244w80" />
<path d="M133.91 448.74l49.61 0l0 12.23l-49.61 0Z" id="p244w81" />
<path d="M186.22 448.74l16.9 0l0 12.23l-16.9 0Z" id="p244w82" />
<path d="M205.81 448.74l31.96 0l0 12.23l-31.96 0Z" id="p244w83" />
<path d="M240.47 448.5l19.58 0l0 12.56l-19.58 0Z" id="p244w84" />
<path d="M133.91 464.03l10.35 0l0 12.23l-10.35 0Z" id="p244w85" />
<path d="M146.96 464.03l49.52 0l0 12.23l-49.52 0Z" id="p244w86" />
<path d="M202.33 462.93l45.41 0l0 13.77l-45.41 0Z" id="p244w87" />
<path d="M253.6 464.03l18.46 0l0 12.23l-18.46 0Z" id="p244w88" />
<path d="M133.91 479.31l49.61 0l0 12.23l-49.61 0Z" id="p244w89" />
<path d="M186.22 479.31l18.46 0l0 12.23l-18.46 0Z" id="p244w90" />
<path d="M207.38 479.31l64.6 0l0 12.23l-64.6 0Z" id="p244w91" />
<path d="M274.68 479.07l18.17 0l0 12.56l-18.17 0Z" id="p244w92" />
<path d="M124.06 494.59l11.94 0l0 12.23l-11.94 0Z" id="p244w93" />
<path d="M138.7 494.54l56.89 0l0 12.29l-56.89 0Z" id="p244w94" />
<path d="M201.45 493.49l38.16 0l0 13.77l-38.16 0Z" id="p244w95" />
<path d="M245.46 494.59l20.03 0l0 12.23l-20.03 0Z" id="p244w96" />
<path d="M133.91 509.88l62.5 0l0 12.23l-62.5 0Z" id="p244w97" />
<path d="M199.11 509.88l14.41 0l0 12.23l-14.41 0Z" id="p244w98" />
<path d="M215.92 509.88l32.87 0l0 12.23l-32.87 0Z" id="p244w99" />
<path d="M251.49 509.63l14.79 0l0 12.56l-14.79 0Z" id="p244w100" />
<path d="M280.74 509.88l14.41 0l0 12.23l-14.41 0Z" id="p244w101" />
<path d="M133.91 525.16l31.97 0l0 12.23l-31.97 0Z" id="p244w102" />
<path d="M168.58 524.92l18.92 0l0 12.56l-18.92 0Z" id="p244w103" />
<path d="M133.91 540.44l23.19 0l0 12.23l-23.19 0Z" id="p244w104" />
<path d="M159.8 540.44l56.89 0l0 12.23l-56.89 0Z" id="p244w105" />
<path d="M219.39 540.44l21.39 0l0 12.23l-21.39 0Z" id="p244w106" />
<path d="M243.47 540.44l12.16 0l0 12.23l-12.16 0Z" id="p244w107" />
<path d="M137.07 554.63l61.56 0l0 13.77l-61.56 0Z" id="p244w108" />
<path d="M204.48 555.73l20.03 0l0 12.23l-20.03 0Z" id="p244w109" />
<path d="M226.84 555.73l60.06 0l0 12.23l-60.06 0Z" id="p244w110" />
<path d="M133.91 571.01l15.75 0l0 12.23l-15.75 0Z" id="p244w111" />
<path d="M152.36 571.01l20.04 0l0 12.23l-20.04 0Z" id="p244w112" />
<path d="M175.1 571.01l31.93 0l0 12.23l-31.93 0Z" id="p244w113" />
<path d="M209.74 571.01l18.46 0l0 12.23l-18.46 0Z" id="p244w114" />
<path d="M230.9 571.01l15.75 0l0 12.23l-15.75 0Z" id="p244w115" />
<path d="M249.35 571.01l20.04 0l0 12.23l-20.04 0Z" id="p244w116" />
<path d="M272.09 571.01l31.96 0l0 12.23l-31.96 0Z" id="p244w117" />
<path d="M133.91 586.05l14.79 0l0 12.56l-14.79 0Z" id="p244w118" />
<path d="M133.91 601.58l33.55 0l0 12.23l-33.55 0Z" id="p244w119" />
<path d="M170.16 601.58l56.89 0l0 12.23l-56.89 0Z" id="p244w120" />
<path d="M238.07 601.58l12.16 0l0 12.23l-12.16 0Z" id="p244w121" />
<path d="M137.07 615.76l62.33 0l0 13.77l-62.33 0Z" id="p244w122" />
<path d="M205.26 616.86l18.46 0l0 12.23l-18.46 0Z" id="p244w123" />
<path d="M226.42 616.86l15.75 0l0 12.23l-15.75 0Z" id="p244w124" />
<path d="M244.87 616.86l20.04 0l0 12.23l-20.04 0Z" id="p244w125" />
<path d="M133.91 632.14l53.34 0l0 12.23l-53.34 0Z" id="p244w126" />
<path d="M189.95 631.9l18.17 0l0 12.56l-18.17 0Z" id="p244w127" />
<path d="M133.91 647.43l37.14 0l0 12.23l-37.14 0Z" id="p244w128" />
<path d="M173.75 647.43l56.89 0l0 12.23l-56.89 0Z" id="p244w129" />
<path d="M233.34 647.43l50.77 0l0 12.23l-50.77 0Z" id="p244w130" />
<path d="M133.91 662.71l15.76 0l0 12.23l-15.76 0Z" id="p244w131" />
<path d="M155.53 661.61l75.43 0l0 13.77l-75.43 0Z" id="p244w132" />
<path d="M236.81 662.71l26.11 0l0 12.23l-26.11 0Z" id="p244w133" />
<path d="M265.32 662.71l31.97 0l0 12.23l-31.97 0Z" id="p244w134" />
<path d="M133.91 677.99l53.8 0l0 12.23l-53.8 0Z" id="p244w135" />
<path d="M190.41 677.99l37.93 0l0 12.23l-37.93 0Z" id="p244w136" />
<path d="M231.03 677.99l23.64 0l0 12.23l-23.64 0Z" id="p244w137" />
<path d="M257.38 677.75l18.92 0l0 12.56l-18.92 0Z" id="p244w138" />
<path d="M124.06 693.22l31.03 0l0 12.29l-31.03 0Z" id="p244w139" />
<path d="M157.8 693.28l24.75 0l0 12.23l-24.75 0Z" id="p244w140" />
<path d="M193.58 693.28l12.16 0l0 12.23l-12.16 0Z" id="p244w141" />
<path d="M211.59 692.18l47.52 0l0 13.77l-47.52 0Z" id="p244w142" />
<path d="M264.97 693.28l16.9 0l0 12.23l-16.9 0Z" id="p244w143" />
<path d="M133.91 708.56l45.03 0l0 12.23l-45.03 0Z" id="p244w144" />
<path d="M181.64 708.32l14.63 0l0 12.56l-14.63 0Z" id="p244w145" />
<path d="M124.06 723.79l32.82 0l0 12.29l-32.82 0Z" id="p244w146" />
<path d="M162.74 722.74l25.42 0l0 13.77l-25.42 0Z" id="p244w147" />
<path d="M194.02 723.84l22.74 0l0 12.23l-22.74 0Z" id="p244w148" />
<path d="M219.46 723.84l29.03 0l0 12.23l-29.03 0Z" id="p244w149" />
<path d="M251.2 723.84l31.88 0l0 12.23l-31.88 0Z" id="p244w150" />
<path d="M133.91 739.13l71.83 0l0 12.23l-71.83 0Z" id="p244w151" />
<path d="M208.44 738.88l15.54 0l0 12.56l-15.54 0Z" id="p244w152" />
<path d="M124.06 754.36l44.46 0l0 12.29l-44.46 0Z" id="p244w153" />
<path d="M171.22 754.41l11.04 0l0 12.23l-11.04 0Z" id="p244w154" />
<path d="M188.12 753.31l35.91 0l0 13.77l-35.91 0Z" id="p244w155" />
<path d="M229.89 754.41l19.44 0l0 12.23l-19.44 0Z" id="p244w156" />
<path d="M252.03 754.41l49.94 0l0 12.23l-49.94 0Z" id="p244w157" />
<path d="M133.91 769.7l19.44 0l0 12.23l-19.44 0Z" id="p244w158" />
<path d="M156.05 769.7l55.6 0l0 12.23l-55.6 0Z" id="p244w159" />
<path d="M214.35 769.45l18.72 0l0 12.56l-18.72 0Z" id="p244w160" />
<path d="M124.06 784.92l35.7 0l0 12.29l-35.7 0Z" id="p244w161" />
<path d="M165.62 783.88l38.96 0l0 13.77l-38.96 0Z" id="p244w162" />
<path d="M210.44 784.98l39.38 0l0 12.23l-39.38 0Z" id="p244w163" />
<path d="M252.52 784.98l51.85 0l0 12.23l-51.85 0Z" id="p244w164" />
<path d="M133.91 800.26l50.81 0l0 12.23l-50.81 0Z" id="p244w165" />
<path d="M187.42 800.02l18.92 0l0 12.56l-18.92 0Z" id="p244w166" />
<path d="M124.06 815.55l11.94 0l0 12.23l-11.94 0Z" id="p244w167" />
<path d="M138.7 815.49l25.98 0l0 12.29l-25.98 0Z" id="p244w168" />
<path d="M170.53 814.45l26.46 0l0 13.77l-26.46 0Z" id="p244w169" />
<path d="M202.86 815.55l20.03 0l0 12.23l-20.03 0Z" id="p244w170" />
<path d="M225.59 815.55l43.18 0l0 12.23l-43.18 0Z" id="p244w171" />
<path d="M271.47 815.55l14.41 0l0 12.23l-14.41 0Z" id="p244w172" />
<path d="M133.91 830.83l27.01 0l0 12.23l-27.01 0Z" id="p244w173" />
<path d="M163.62 830.58l15.54 0l0 12.56l-15.54 0Z" id="p244w174" />
<path d="M124.06 846.06l41.57 0l0 12.29l-41.57 0Z" id="p244w175" />
<path d="M176.66 846.11l27.37 0l0 12.23l-27.37 0Z" id="p244w176" />
<path d="M209.88 845.01l31.7 0l0 13.77l-31.7 0Z" id="p244w177" />
<path d="M247.44 846.11l11.7 0l0 12.23l-11.7 0Z" id="p244w178" />
<path d="M261.84 846.11l23.61 0l0 12.23l-23.61 0Z" id="p244w179" />
<path d="M133.91 861.4l16.9 0l0 12.23l-16.9 0Z" id="p244w180" />
<path d="M153.51 861.4l67.75 0l0 12.23l-67.75 0Z" id="p244w181" />
<path d="M223.95 861.4l19.44 0l0 12.23l-19.44 0Z" id="p244w182" />
<path d="M246.09 861.4l55.83 0l0 12.23l-55.83 0Z" id="p244w183" />
<path d="M133.91 876.43l18.72 0l0 12.56l-18.72 0Z" id="p244w184" />
<path d="M124.06 891.91l34.6 0l0 12.29l-34.6 0Z" id="p244w185" />
<path d="M161.36 891.96l11.04 0l0 12.23l-11.04 0Z" id="p244w186" />
<path d="M178.26 890.86l29.89 0l0 13.77l-29.89 0Z" id="p244w187" />
<path d="M214.01 891.96l19.44 0l0 12.23l-19.44 0Z" id="p244w188" />
<path d="M236.15 891.96l58.52 0l0 12.23l-58.52 0Z" id="p244w189" />
<path d="M133.91 907l18.92 0l0 12.56l-18.92 0Z" id="p244w190" />
<path d="M325.58 112.51l17.56 0l0 12.23l-17.56 0Z" id="p244w191" />
<path d="M345.8 112.45l46.57 0l0 12.29l-46.57 0Z" id="p244w192" />
<path d="M398.18 111.41l51.25 0l0 13.77l-51.25 0Z" id="p244w193" />
<path d="M455.25 112.51l20.03 0l0 12.23l-20.03 0Z" id="p244w194" />
<path d="M477.94 112.51l29.47 0l0 12.23l-29.47 0Z" id="p244w195" />
<path d="M335.43 127.79l20.03 0l0 12.23l-20.03 0Z" id="p244w196" />
<path d="M357.94 127.79l65.68 0l0 12.23l-65.68 0Z" id="p244w197" />
<path d="M426.32 127.55l18.92 0l0 12.56l-18.92 0Z" id="p244w198" />
<path d="M325.58 143.02l42.94 0l0 12.29l-42.94 0Z" id="p244w199" />
<path d="M383.15 143.08l15.76 0l0 12.23l-15.76 0Z" id="p244w200" />
<path d="M404.77 141.97l46.23 0l0 13.77l-46.23 0Z" id="p244w201" />
<path d="M456.85 143.08l27.24 0l0 12.23l-27.24 0Z" id="p244w202" />
<path d="M335.43 158.36l49.06 0l0 12.23l-49.06 0Z" id="p244w203" />
<path d="M387.19 158.11l14.41 0l0 12.56l-14.41 0Z" id="p244w204" />
<path d="M325.58 173.64l17.56 0l0 12.23l-17.56 0Z" id="p244w205" />
<path d="M345.84 173.59l37.89 0l0 12.29l-37.89 0Z" id="p244w206" />
<path d="M389.59 172.54l36.97 0l0 13.77l-36.97 0Z" id="p244w207" />
<path d="M432.42 173.64l20.03 0l0 12.23l-20.03 0Z" id="p244w208" />
<path d="M455.15 173.64l38.26 0l0 12.23l-38.26 0Z" id="p244w209" />
<path d="M335.43 188.68l15.54 0l0 12.56l-15.54 0Z" id="p244w210" />
<path d="M335.43 204.21l17.56 0l0 12.23l-17.56 0Z" id="p244w211" />
<path d="M355.69 204.21l37.81 0l0 12.23l-37.81 0Z" id="p244w212" />
<path d="M396.21 204.21l36.69 0l0 12.23l-36.69 0Z" id="p244w213" />
<path d="M338.59 218.39l67.55 0l0 13.77l-67.55 0Z" id="p244w214" />
<path d="M411.99 219.49l20.03 0l0 12.23l-20.03 0Z" id="p244w215" />
<path d="M434.72 219.49l33.48 0l0 12.23l-33.48 0Z" id="p244w216" />
<path d="M470.9 219.25l18.72 0l0 12.56l-18.72 0Z" id="p244w217" />
<path d="M325.58 234.78l11.94 0l0 12.23l-11.94 0Z" id="p244w218" />
<path d="M340.22 234.72l38.73 0l0 12.29l-38.73 0Z" id="p244w219" />
<path d="M378.94 234.78l21.73 0l0 12.23l-21.73 0Z" id="p244w220" />
<path d="M403.38 234.72l38.73 0l0 12.29l-38.73 0Z" id="p244w221" />
<path d="M447.96 233.68l48.2 0l0 13.77l-48.2 0Z" id="p244w222" />
<path d="M335.43 248.96l52.2 0l0 13.77l-52.2 0Z" id="p244w223" />
<path d="M393.48 250.06l14.41 0l0 12.23l-14.41 0Z" id="p244w224" />
<path d="M410.59 250.06l65.01 0l0 12.23l-65.01 0Z" id="p244w225" />
<path d="M335.43 265.34l49.6 0l0 12.23l-49.6 0Z" id="p244w226" />
<path d="M387.73 265.1l18.92 0l0 12.56l-18.92 0Z" id="p244w227" />
<path d="M325.58 280.57l41.85 0l0 12.29l-41.85 0Z" id="p244w228" />
<path d="M371.6 280.57l47.47 0l0 12.29l-47.47 0Z" id="p244w229" />
<path d="M424.93 279.53l73.08 0l0 13.77l-73.08 0Z" id="p244w230" />
<path d="M335.43 295.91l43.66 0l0 12.23l-43.66 0Z" id="p244w231" />
<path d="M381.79 295.66l18.72 0l0 12.56l-18.72 0Z" id="p244w232" />
<path d="M325.58 311.14l46.54 0l0 12.29l-46.54 0Z" id="p244w233" />
<path d="M374.82 311.19l11.04 0l0 12.23l-11.04 0Z" id="p244w234" />
<path d="M391.72 310.09l47.41 0l0 13.77l-47.41 0Z" id="p244w235" />
<path d="M444.98 311.19l19.44 0l0 12.23l-19.44 0Z" id="p244w236" />
<path d="M335.43 326.48l60.1 0l0 12.23l-60.1 0Z" id="p244w237" />
<path d="M398.23 326.23l15.34 0l0 12.56l-15.34 0Z" id="p244w238" />
<path d="M325.58 341.76l11.94 0l0 12.23l-11.94 0Z" id="p244w239" />
<path d="M340.22 341.7l61.1 0l0 12.29l-61.1 0Z" id="p244w240" />
<path d="M401.32 341.76l21.73 0l0 12.23l-21.73 0Z" id="p244w241" />
<path d="M425.75 341.7l66.72 0l0 12.29l-66.72 0Z" id="p244w242" />
<path d="M338.59 355.94l117 0l0 13.77l-117 0Z" id="p244w243" />
<path d="M461.44 357.04l14.41 0l0 12.23l-14.41 0Z" id="p244w244" />
<path d="M335.43 372.33l65.82 0l0 12.23l-65.82 0Z" id="p244w245" />
<path d="M403.59 372.33l50.41 0l0 12.23l-50.41 0Z" id="p244w246" />
<path d="M456.7 372.08l17.26 0l0 12.56l-17.26 0Z" id="p244w247" />
<path d="M325.58 387.61l11.94 0l0 12.23l-11.94 0Z" id="p244w248" />
<path d="M340.22 387.55l31.51 0l0 12.29l-31.51 0Z" id="p244w249" />
<path d="M371.73 387.61l20.6 0l0 12.23l-20.6 0Z" id="p244w250" />
<path d="M395.03 387.55l36.77 0l0 12.29l-36.77 0Z" id="p244w251" />
<path d="M437.65 386.51l61.1 0l0 13.77l-61.1 0Z" id="p244w252" />
<path d="M335.43 402.89l14.41 0l0 12.23l-14.41 0Z" id="p244w253" />
<path d="M352.53 402.89l53.01 0l0 12.23l-53.01 0Z" id="p244w254" />
<path d="M408.24 402.65l15.54 0l0 12.56l-15.54 0Z" id="p244w255" />
<path d="M335.43 418.18l11.94 0l0 12.23l-11.94 0Z" id="p244w256" />
<path d="M350.07 418.18l31.28 0l0 12.23l-31.28 0Z" id="p244w257" />
<path d="M384.05 418.18l26.57 0l0 12.23l-26.57 0Z" id="p244w258" />
<path d="M416.47 417.08l50.46 0l0 13.77l-50.46 0Z" id="p244w259" />
<path d="M472.79 418.18l14.41 0l0 12.23l-14.41 0Z" id="p244w260" />
<path d="M335.43 433.46l36.91 0l0 12.23l-36.91 0Z" id="p244w261" />
<path d="M375.04 433.46l44.56 0l0 12.23l-44.56 0Z" id="p244w262" />
<path d="M422.3 433.22l15.54 0l0 12.56l-15.54 0Z" id="p244w263" />
<path d="M325.58 448.74l17.56 0l0 12.23l-17.56 0Z" id="p244w264" />
<path d="M345.84 448.69l45.09 0l0 12.29l-45.09 0Z" id="p244w265" />
<path d="M396.8 447.64l34.46 0l0 13.77l-34.46 0Z" id="p244w266" />
<path d="M437.11 448.74l14.41 0l0 12.23l-14.41 0Z" id="p244w267" />
<path d="M454.22 448.74l42.95 0l0 12.23l-42.95 0Z" id="p244w268" />
<path d="M335.43 464.03l14.41 0l0 12.23l-14.41 0Z" id="p244w269" />
<path d="M352.31 464.03l43.23 0l0 12.23l-43.23 0Z" id="p244w270" />
<path d="M398.24 463.78l18.92 0l0 12.56l-18.92 0Z" id="p244w271" />
<path d="M325.58 479.31l8.33 0l0 12.23l-8.33 0Z" id="p244w272" />
<path d="M336.61 479.25l66.82 0l0 12.29l-66.82 0Z" id="p244w273" />
<path d="M409.29 478.21l66.32 0l0 13.77l-66.32 0Z" id="p244w274" />
<path d="M481.47 479.31l14.41 0l0 12.23l-14.41 0Z" id="p244w275" />
<path d="M335.43 494.59l72.63 0l0 12.23l-72.63 0Z" id="p244w276" />
<path d="M410.76 494.59l14.41 0l0 12.23l-14.41 0Z" id="p244w277" />
<path d="M427.86 494.59l63.87 0l0 12.23l-63.87 0Z" id="p244w278" />
<path d="M335.43 509.63l17.81 0l0 12.56l-17.81 0Z" id="p244w279" />
<path d="M325.58 525.11l57.25 0l0 12.29l-57.25 0Z" id="p244w280" />
<path d="M388.08 524.06l43.44 0l0 13.77l-43.44 0Z" id="p244w281" />
<path d="M436.77 525.16l70.65 0l0 12.23l-70.65 0Z" id="p244w282" />
<path d="M335.43 540.44l113.61 0l0 12.23l-113.61 0Z" id="p244w283" />
<path d="M451.74 540.2l17.81 0l0 12.56l-17.81 0Z" id="p244w284" />
<path d="M325.58 555.73l11.94 0l0 12.23l-11.94 0Z" id="p244w285" />
<path d="M340.22 555.67l49.4 0l0 12.29l-49.4 0Z" id="p244w286" />
<path d="M395.47 554.63l39.13 0l0 13.77l-39.13 0Z" id="p244w287" />
<path d="M440.46 555.73l14.41 0l0 12.23l-14.41 0Z" id="p244w288" />
<path d="M335.43 571.01l50.94 0l0 12.23l-50.94 0Z" id="p244w289" />
<path d="M389.07 570.77l14.63 0l0 12.56l-14.63 0Z" id="p244w290" />
<path d="M325.58 586.24l27.75 0l0 12.29l-27.75 0Z" id="p244w291" />
<path d="M359.19 585.19l22.81 0l0 13.77l-22.81 0Z" id="p244w292" />
<path d="M387.86 586.29l34.89 0l0 12.23l-34.89 0Z" id="p244w293" />
<path d="M425.45 586.05l15.54 0l0 12.56l-15.54 0Z" id="p244w294" />
<path d="M325.58 601.52l39.04 0l0 12.29l-39.04 0Z" id="p244w295" />
<path d="M367.32 601.58l11.04 0l0 12.23l-11.04 0Z" id="p244w296" />
<path d="M384.21 600.48l35.27 0l0 13.77l-35.27 0Z" id="p244w297" />
<path d="M425.34 601.58l19.44 0l0 12.23l-19.44 0Z" id="p244w298" />
<path d="M335.43 616.86l81.7 0l0 12.23l-81.7 0Z" id="p244w299" />
<path d="M419.83 616.62l18.92 0l0 12.56l-18.92 0Z" id="p244w300" />
<path d="M325.58 632.14l23.19 0l0 12.23l-23.19 0Z" id="p244w301" />
<path d="M351.47 632.14l19.82 0l0 12.23l-19.82 0Z" id="p244w302" />
<path d="M373.99 632.14l38.04 0l0 12.23l-38.04 0Z" id="p244w303" />
<path d="M414.72 632.14l11.7 0l0 12.23l-11.7 0Z" id="p244w304" />
<path d="M429.13 632.09l28.91 0l0 12.29l-28.91 0Z" id="p244w305" />
<path d="M338.59 646.33l99.46 0l0 13.77l-99.46 0Z" id="p244w306" />
<path d="M443.9 647.43l19.14 0l0 12.23l-19.14 0Z" id="p244w307" />
<path d="M465.74 647.43l39.39 0l0 12.23l-39.39 0Z" id="p244w308" />
<path d="M335.43 662.71l29.7 0l0 12.23l-29.7 0Z" id="p244w309" />
<path d="M367.83 662.71l43.64 0l0 12.23l-43.64 0Z" id="p244w310" />
<path d="M414.17 662.71l19.14 0l0 12.23l-19.14 0Z" id="p244w311" />
<path d="M436.01 662.71l39.39 0l0 12.23l-39.39 0Z" id="p244w312" />
<path d="M335.43 677.99l53.3 0l0 12.23l-53.3 0Z" id="p244w313" />
<path d="M391.43 677.99l29.49 0l0 12.23l-29.49 0Z" id="p244w314" />
<path d="M423.62 677.75l18.92 0l0 12.56l-18.92 0Z" id="p244w315" />
<path d="M325.58 693.28l18.9 0l0 12.23l-18.9 0Z" id="p244w316" />
<path d="M347.18 693.28l11.7 0l0 12.23l-11.7 0Z" id="p244w317" />
<path d="M361.58 693.22l28.91 0l0 12.29l-28.91 0Z" id="p244w318" />
<path d="M396.35 692.18l44.13 0l0 13.77l-44.13 0Z" id="p244w319" />
<path d="M446.33 693.28l20.25 0l0 12.23l-20.25 0Z" id="p244w320" />
<path d="M469.29 693.28l21.39 0l0 12.23l-21.39 0Z" id="p244w321" />
<path d="M335.43 708.56l21.57 0l0 12.23l-21.57 0Z" id="p244w322" />
<path d="M359.7 708.56l10.82 0l0 12.23l-10.82 0Z" id="p244w323" />
<path d="M373.22 708.56l20.25 0l0 12.23l-20.25 0Z" id="p244w324" />
<path d="M396.17 708.56l41.19 0l0 12.23l-41.19 0Z" id="p244w325" />
<path d="M440.07 708.32l15.54 0l0 12.56l-15.54 0Z" id="p244w326" />
<path d="M325.58 723.79l29.56 0l0 12.29l-29.56 0Z" id="p244w327" />
<path d="M357.84 723.84l11.04 0l0 12.23l-11.04 0Z" id="p244w328" />
<path d="M374.73 722.74l27.45 0l0 13.77l-27.45 0Z" id="p244w329" />
<path d="M408.04 723.84l19.44 0l0 12.23l-19.44 0Z" id="p244w330" />
<path d="M430.18 723.84l47.27 0l0 12.23l-47.27 0Z" id="p244w331" />
<path d="M480.16 723.6l19.58 0l0 12.56l-19.58 0Z" id="p244w332" />
<path d="M325.58 739.13l18.9 0l0 12.23l-18.9 0Z" id="p244w333" />
<path d="M347.18 739.13l11.7 0l0 12.23l-11.7 0Z" id="p244w334" />
<path d="M361.58 739.07l29.11 0l0 12.29l-29.11 0Z" id="p244w335" />
<path d="M396.55 738.03l50.1 0l0 13.77l-50.1 0Z" id="p244w336" />
<path d="M452.5 739.13l30.63 0l0 12.23l-30.63 0Z" id="p244w337" />
<path d="M485.84 739.13l19.13 0l0 12.23l-19.13 0Z" id="p244w338" />
<path d="M335.43 754.17l15.54 0l0 12.56l-15.54 0Z" id="p244w339" />
<path d="M325.58 769.64l44.72 0l0 12.29l-44.72 0Z" id="p244w340" />
<path d="M376.15 768.59l36.85 0l0 13.77l-36.85 0Z" id="p244w341" />
<path d="M418.86 769.7l63.05 0l0 12.23l-63.05 0Z" id="p244w342" />
<path d="M484.6 769.45l14.63 0l0 12.56l-14.63 0Z" id="p244w343" />
<path d="M325.58 784.92l43.6 0l0 12.29l-43.6 0Z" id="p244w344" />
<path d="M371.89 784.98l27.37 0l0 12.23l-27.37 0Z" id="p244w345" />
<path d="M405.11 783.88l35.53 0l0 13.77l-35.53 0Z" id="p244w346" />
<path d="M446.5 784.98l19.44 0l0 12.23l-19.44 0Z" id="p244w347" />
<path d="M335.43 800.26l38.48 0l0 12.23l-38.48 0Z" id="p244w348" />
<path d="M373.91 800.26l26.31 0l0 12.23l-26.31 0Z" id="p244w349" />
<path d="M402.92 800.26l16.9 0l0 12.23l-16.9 0Z" id="p244w350" />
<path d="M422.52 800.26l31.96 0l0 12.23l-31.96 0Z" id="p244w351" />
<path d="M457.17 800.02l15.54 0l0 12.56l-15.54 0Z" id="p244w352" />
<path d="M335.42 815.55l10.35 0l0 12.23l-10.35 0Z" id="p244w353" />
<path d="M348.47 815.55l43.22 0l0 12.23l-43.22 0Z" id="p244w354" />
<path d="M397.55 814.45l44.71 0l0 13.77l-44.71 0Z" id="p244w355" />
<path d="M448.11 815.55l18.46 0l0 12.23l-18.46 0Z" id="p244w356" />
<path d="M469.27 815.55l31.96 0l0 12.23l-31.96 0Z" id="p244w357" />
<path d="M335.42 830.58l15.54 0l0 12.56l-15.54 0Z" id="p244w358" />
<path d="M325.58 846.11l17.56 0l0 12.23l-17.56 0Z" id="p244w359" />
<path d="M345.84 846.06l36.24 0l0 12.29l-36.24 0Z" id="p244w360" />
<path d="M387.93 845.01l41.14 0l0 13.77l-41.14 0Z" id="p244w361" />
<path d="M434.93 846.11l20.03 0l0 12.23l-20.03 0Z" id="p244w362" />
<path d="M335.42 861.4l64.08 0l0 12.23l-64.08 0Z" id="p244w363" />
<path d="M402.2 861.4l20.03 0l0 12.23l-20.03 0Z" id="p244w364" />
<path d="M424.57 861.4l64.55 0l0 12.23l-64.55 0Z" id="p244w365" />
<path d="M335.42 876.43l15.54 0l0 12.56l-15.54 0Z" id="p244w366" />
<path d="M325.58 891.96l10.35 0l0 12.23l-10.35 0Z" id="p244w367" />
<path d="M338.63 891.91l28.21 0l0 12.29l-28.21 0Z" id="p244w368" />
<path d="M372.69 890.86l39.51 0l0 13.77l-39.51 0Z" id="p244w369" />
<path d="M418.07 891.96l18.46 0l0 12.23l-18.46 0Z" id="p244w370" />
<path d="M439.23 891.96l57.83 0l0 12.23l-57.83 0Z" id="p244w371" />
<path d="M335.42 907l17.26 0l0 12.56l-17.26 0Z" id="p244w372" />
<path d="M527.09 112.45l31.8 0l0 12.29l-31.8 0Z" id="p244w373" />
<path d="M569.92 112.51l21.37 0l0 12.23l-21.37 0Z" id="p244w374" />
<path d="M594 112.51l11.04 0l0 12.23l-11.04 0Z" id="p244w375" />
<path d="M610.89 111.41l28.32 0l0 13.77l-28.32 0Z" id="p244w376" />
<path d="M645.07 112.51l19.44 0l0 12.23l-19.44 0Z" id="p244w377" />
<path d="M536.94 127.79l64.46 0l0 12.23l-64.46 0Z" id="p244w378" />
<path d="M604.1 127.79l40.86 0l0 12.23l-40.86 0Z" id="p244w379" />
<path d="M647.66 127.79l19.44 0l0 12.23l-19.44 0Z" id="p244w380" />
<path d="M669.8 127.79l10.82 0l0 12.23l-10.82 0Z" id="p244w381" />
<path d="M683.32 127.79l15.76 0l0 12.23l-15.76 0Z" id="p244w382" />
<path d="M536.94 142.83l15.54 0l0 12.56l-15.54 0Z" id="p244w383" />
<path d="M527.09 158.36l11.94 0l0 12.23l-11.94 0Z" id="p244w384" />
<path d="M541.73 158.3l20.12 0l0 12.29l-20.12 0Z" id="p244w385" />
<path d="M567.71 157.26l19.95 0l0 13.77l-19.95 0Z" id="p244w386" />
<path d="M593.52 158.36l14.41 0l0 12.23l-14.41 0Z" id="p244w387" />
<path d="M610.32 158.36l29.05 0l0 12.23l-29.05 0Z" id="p244w388" />
<path d="M642.07 158.11l18.92 0l0 12.56l-18.92 0Z" id="p244w389" />
<path d="M527.09 173.64l10.35 0l0 12.23l-10.35 0Z" id="p244w390" />
<path d="M540.14 173.59l38.08 0l0 12.29l-38.08 0Z" id="p244w391" />
<path d="M584.08 172.54l37.68 0l0 13.77l-37.68 0Z" id="p244w392" />
<path d="M627.62 173.64l51.7 0l0 12.23l-51.7 0Z" id="p244w393" />
<path d="M682.02 173.4l19.58 0l0 12.56l-19.58 0Z" id="p244w394" />
<path d="M527.09 188.87l32.91 0l0 12.29l-32.91 0Z" id="p244w395" />
<path d="M565.86 187.83l35.48 0l0 13.77l-35.48 0Z" id="p244w396" />
<path d="M607.2 188.93l71.83 0l0 12.23l-71.83 0Z" id="p244w397" />
<path d="M681.73 188.68l15.34 0l0 12.56l-15.34 0Z" id="p244w398" />
<path d="M527.09 204.15l24.02 0l0 12.29l-24.02 0Z" id="p244w399" />
<path d="M553.82 204.21l15.31 0l0 12.23l-15.31 0Z" id="p244w400" />
<path d="M571.82 204.21l14.64 0l0 12.23l-14.64 0Z" id="p244w401" />
<path d="M592.32 203.11l20.55 0l0 13.77l-20.55 0Z" id="p244w402" />
<path d="M618.73 204.21l20.72 0l0 12.23l-20.72 0Z" id="p244w403" />
<path d="M642.15 204.21l23.04 0l0 12.23l-23.04 0Z" id="p244w404" />
<path d="M667.89 204.21l39.84 0l0 12.23l-39.84 0Z" id="p244w405" />
<path d="M536.94 219.25l15.54 0l0 12.56l-15.54 0Z" id="p244w406" />
<path d="M536.94 234.78l8.78 0l0 12.23l-8.78 0Z" id="p244w407" />
<path d="M548.42 234.78l20.25 0l0 12.23l-20.25 0Z" id="p244w408" />
<path d="M580.39 233.68l24.93 0l0 13.77l-24.93 0Z" id="p244w409" />
<path d="M611.18 234.78l14.19 0l0 12.23l-14.19 0Z" id="p244w410" />
<path d="M628.08 234.78l34.45 0l0 12.23l-34.45 0Z" id="p244w411" />
<path d="M665.22 234.53l15.54 0l0 12.56l-15.54 0Z" id="p244w412" />
<path d="M527.09 250.06l12.38 0l0 12.23l-12.38 0Z" id="p244w413" />
<path d="M542.18 250l27.05 0l0 12.29l-27.05 0Z" id="p244w414" />
<path d="M580.95 248.96l33.8 0l0 13.77l-33.8 0Z" id="p244w415" />
<path d="M620.61 250.06l15.98 0l0 12.23l-15.98 0Z" id="p244w416" />
<path d="M639.07 250.06l64.37 0l0 12.23l-64.37 0Z" id="p244w417" />
<path d="M536.94 265.1l13.88 0l0 12.56l-13.88 0Z" id="p244w418" />
<path d="M527.09 280.57l27.05 0l0 12.29l-27.05 0Z" id="p244w419" />
<path d="M556.85 280.63l27.37 0l0 12.23l-27.37 0Z" id="p244w420" />
<path d="M590.07 279.53l33.69 0l0 13.77l-33.69 0Z" id="p244w421" />
<path d="M629.62 280.63l40.5 0l0 12.23l-40.5 0Z" id="p244w422" />
<path d="M536.94 295.91l60.31 0l0 12.23l-60.31 0Z" id="p244w423" />
<path d="M599.95 295.66l18.92 0l0 12.56l-18.92 0Z" id="p244w424" />
<path d="M536.94 311.19l10.35 0l0 12.23l-10.35 0Z" id="p244w425" />
<path d="M549.99 311.19l27.01 0l0 12.23l-27.01 0Z" id="p244w426" />
<path d="M582.86 310.09l42.86 0l0 13.77l-42.86 0Z" id="p244w427" />
<path d="M631.58 311.19l18.46 0l0 12.23l-18.46 0Z" id="p244w428" />
<path d="M536.94 326.48l60.31 0l0 12.23l-60.31 0Z" id="p244w429" />
<path d="M599.95 326.23l18.17 0l0 12.56l-18.17 0Z" id="p244w430" />
<path d="M527.09 341.76l11.94 0l0 12.23l-11.94 0Z" id="p244w431" />
<path d="M541.73 341.7l30.83 0l0 12.29l-30.83 0Z" id="p244w432" />
<path d="M578.42 340.66l24.73 0l0 13.77l-24.73 0Z" id="p244w433" />
<path d="M609.01 341.76l20.03 0l0 12.23l-20.03 0Z" id="p244w434" />
<path d="M631.74 341.76l47.42 0l0 12.23l-47.42 0Z" id="p244w435" />
<path d="M681.86 341.76l14.41 0l0 12.23l-14.41 0Z" id="p244w436" />
<path d="M536.94 357.04l50.22 0l0 12.23l-50.22 0Z" id="p244w437" />
<path d="M589.86 356.8l19.58 0l0 12.56l-19.58 0Z" id="p244w438" />
<path d="M527.09 372.27l18.42 0l0 12.29l-18.42 0Z" id="p244w439" />
<path d="M551.37 371.23l11.28 0l0 13.77l-11.28 0Z" id="p244w440" />
<path d="M568.51 372.33l28.37 0l0 12.23l-28.37 0Z" id="p244w441" />
<path d="M599.58 372.08l19.58 0l0 12.56l-19.58 0Z" id="p244w442" />
<path d="M536.94 387.61l18.23 0l0 12.23l-18.23 0Z" id="p244w443" />
<path d="M557.87 387.61l11.7 0l0 12.23l-11.7 0Z" id="p244w444" />
<path d="M589.35 386.51l24.06 0l0 13.77l-24.06 0Z" id="p244w445" />
<path d="M619.27 387.61l28.37 0l0 12.23l-28.37 0Z" id="p244w446" />
<path d="M650.34 387.59l41.75 0l0 12.23l-41.75 0Z" id="p244w447" />
<path d="M536.94 402.65l18.92 0l0 12.56l-18.92 0Z" id="p244w448" />
<path d="M527.09 418.12l30.78 0l0 12.29l-30.78 0Z" id="p244w449" />
<path d="M560.57 418.15l27.91 0l0 12.23l-27.91 0Z" id="p244w450" />
<path d="M594.34 417.08l27.49 0l0 13.77l-27.49 0Z" id="p244w451" />
<path d="M627.69 418.18l31.07 0l0 12.23l-31.07 0Z" id="p244w452" />
<path d="M661.46 417.93l15.54 0l0 12.56l-15.54 0Z" id="p244w453" />
<path d="M527.09 433.46l11.94 0l0 12.23l-11.94 0Z" id="p244w454" />
<path d="M541.73 433.4l16.16 0l0 12.29l-16.16 0Z" id="p244w455" />
<path d="M563.75 432.36l18.65 0l0 13.77l-18.65 0Z" id="p244w456" />
<path d="M588.26 433.46l14.41 0l0 12.23l-14.41 0Z" id="p244w457" />
<path d="M605.37 433.46l33.55 0l0 12.23l-33.55 0Z" id="p244w458" />
<path d="M641.61 433.22l15.54 0l0 12.56l-15.54 0Z" id="p244w459" />
<path d="M536.94 448.74l11.94 0l0 12.23l-11.94 0Z" id="p244w460" />
<path d="M551.58 448.74l15.32 0l0 12.23l-15.32 0Z" id="p244w461" />
<path d="M569.6 448.74l15.97 0l0 12.23l-15.97 0Z" id="p244w462" />
<path d="M591.43 447.64l27.99 0l0 13.77l-27.99 0Z" id="p244w463" />
<path d="M625.28 448.74l14.41 0l0 12.23l-14.41 0Z" id="p244w464" />
<path d="M642.38 448.74l48.17 0l0 12.23l-48.17 0Z" id="p244w465" />
<path d="M536.94 463.78l18.92 0l0 12.56l-18.92 0Z" id="p244w466" />
<path d="M536.94 479.31l22.73 0l0 12.23l-22.73 0Z" id="p244w467" />
<path d="M562.37 479.31l11.7 0l0 12.23l-11.7 0Z" id="p244w468" />
<path d="M576.78 479.31l15.97 0l0 12.23l-15.97 0Z" id="p244w469" />
<path d="M595.45 479.29l27.91 0l0 12.23l-27.91 0Z" id="p244w470" />
<path d="M629.22 478.21l44.97 0l0 13.77l-44.97 0Z" id="p244w471" />
<path d="M680.05 479.31l13.74 0l0 12.23l-13.74 0Z" id="p244w472" />
<path d="M536.94 494.59l19.36 0l0 12.23l-19.36 0Z" id="p244w473" />
<path d="M559.01 494.59l22.96 0l0 12.23l-22.96 0Z" id="p244w474" />
<path d="M584.67 494.59l13.5 0l0 12.23l-13.5 0Z" id="p244w475" />
<path d="M600.88 494.57l25.65 0l0 12.23l-25.65 0Z" id="p244w476" />
<path d="M629.23 494.35l18.92 0l0 12.56l-18.92 0Z" id="p244w477" />
<path d="M527.09 509.82l16.16 0l0 12.29l-16.16 0Z" id="p244w478" />
<path d="M549.11 508.78l13.94 0l0 13.77l-13.94 0Z" id="p244w479" />
<path d="M568.91 509.88l31.07 0l0 12.23l-31.07 0Z" id="p244w480" />
<path d="M602.68 509.63l18.92 0l0 12.56l-18.92 0Z" id="p244w481" />
<path d="M527.09 525.16l17.56 0l0 12.23l-17.56 0Z" id="p244w482" />
<path d="M547.36 525.11l21.37 0l0 12.29l-21.37 0Z" id="p244w483" />
<path d="M574.59 524.06l27.77 0l0 13.77l-27.77 0Z" id="p244w484" />
<path d="M608.21 525.16l14.41 0l0 12.23l-14.41 0Z" id="p244w485" />
<path d="M625.32 525.16l23.19 0l0 12.23l-23.19 0Z" id="p244w486" />
<path d="M651.21 524.92l18.92 0l0 12.56l-18.92 0Z" id="p244w487" />
<path d="M527.09 540.44l11.94 0l0 12.23l-11.94 0Z" id="p244w488" />
<path d="M541.73 540.39l29.89 0l0 12.29l-29.89 0Z" id="p244w489" />
<path d="M577.48 539.34l23.35 0l0 13.77l-23.35 0Z" id="p244w490" />
<path d="M606.69 540.44l14.41 0l0 12.23l-14.41 0Z" id="p244w491" />
<path d="M623.8 540.44l18.23 0l0 12.23l-18.23 0Z" id="p244w492" />
<path d="M644.73 540.2l14.63 0l0 12.56l-14.63 0Z" id="p244w493" />
<path d="M527.09 555.73l8.33 0l0 12.23l-8.33 0Z" id="p244w494" />
<path d="M538.12 555.67l19.93 0l0 12.29l-19.93 0Z" id="p244w495" />
<path d="M563.91 554.63l24.38 0l0 13.77l-24.38 0Z" id="p244w496" />
<path d="M594.14 555.73l14.41 0l0 12.23l-14.41 0Z" id="p244w497" />
<path d="M611.25 555.73l49.84 0l0 12.23l-49.84 0Z" id="p244w498" />
<path d="M663.79 555.48l14.79 0l0 12.56l-14.79 0Z" id="p244w499" />
<path d="M527.09 571.01l11.94 0l0 12.23l-11.94 0Z" id="p244w500" />
<path d="M541.73 570.96l12.48 0l0 12.29l-12.48 0Z" id="p244w501" />
<path d="M554.22 571.01l21.73 0l0 12.23l-21.73 0Z" id="p244w502" />
<path d="M578.65 570.96l23.96 0l0 12.29l-23.96 0Z" id="p244w503" />
<path d="M608.47 569.91l53.29 0l0 13.77l-53.29 0Z" id="p244w504" />
<path d="M667.61 571.01l14.41 0l0 12.23l-14.41 0Z" id="p244w505" />
<path d="M536.94 586.29l50.8 0l0 12.23l-50.8 0Z" id="p244w506" />
<path d="M590.44 586.29l35.38 0l0 12.23l-35.38 0Z" id="p244w507" />
<path d="M628.52 586.05l18.01 0l0 12.56l-18.01 0Z" id="p244w508" />
<path d="M527.09 601.58l11.94 0l0 12.23l-11.94 0Z" id="p244w509" />
<path d="M541.73 601.52l18.11 0l0 12.29l-18.11 0Z" id="p244w510" />
<path d="M565.7 600.48l19.08 0l0 13.77l-19.08 0Z" id="p244w511" />
<path d="M590.64 601.58l20.03 0l0 12.23l-20.03 0Z" id="p244w512" />
<path d="M613.37 601.58l23.04 0l0 12.23l-23.04 0Z" id="p244w513" />
<path d="M639.11 601.33l17.26 0l0 12.56l-17.26 0Z" id="p244w514" />
<path d="M527.09 616.86l11.94 0l0 12.23l-11.94 0Z" id="p244w515" />
<path d="M541.73 616.81l30.64 0l0 12.29l-30.64 0Z" id="p244w516" />
<path d="M578.24 615.76l30.66 0l0 13.77l-30.66 0Z" id="p244w517" />
<path d="M614.75 616.86l14.41 0l0 12.23l-14.41 0Z" id="p244w518" />
<path d="M631.86 616.86l32.95 0l0 12.23l-32.95 0Z" id="p244w519" />
<path d="M667.5 616.62l15.54 0l0 12.56l-15.54 0Z" id="p244w520" />
<path d="M527.09 632.09l55.05 0l0 12.29l-55.05 0Z" id="p244w521" />
<path d="M588.01 631.04l37.88 0l0 13.77l-37.88 0Z" id="p244w522" />
<path d="M631.74 632.14l52.67 0l0 12.23l-52.67 0Z" id="p244w523" />
<path d="M687.12 631.9l14.63 0l0 12.56l-14.63 0Z" id="p244w524" />
<path d="M527.09 647.37l21.81 0l0 12.29l-21.81 0Z" id="p244w525" />
<path d="M553.07 647.37l27.43 0l0 12.29l-27.43 0Z" id="p244w526" />
<path d="M586.36 646.33l29.99 0l0 13.77l-29.99 0Z" id="p244w527" />
<path d="M622.21 647.43l21.84 0l0 12.23l-21.84 0Z" id="p244w528" />
<path d="M646.75 647.18l18.92 0l0 12.56l-18.92 0Z" id="p244w529" />
<path d="M527.09 662.66l27.14 0l0 12.29l-27.14 0Z" id="p244w530" />
<path d="M560.1 661.61l15.95 0l0 13.77l-15.95 0Z" id="p244w531" />
<path d="M581.9 662.71l13.28 0l0 12.23l-13.28 0Z" id="p244w532" />
<path d="M597.89 662.47l15.34 0l0 12.56l-15.34 0Z" id="p244w533" />
<path d="M527.09 677.94l27.98 0l0 12.29l-27.98 0Z" id="p244w534" />
<path d="M560.93 676.89l19.52 0l0 13.77l-19.52 0Z" id="p244w535" />
<path d="M586.31 677.99l30.83 0l0 12.23l-30.83 0Z" id="p244w536" />
<path d="M619.84 677.75l18.92 0l0 12.56l-18.92 0Z" id="p244w537" />
<path d="M527.09 693.28l17.56 0l0 12.23l-17.56 0Z" id="p244w538" />
<path d="M547.36 693.22l25.21 0l0 12.29l-25.21 0Z" id="p244w539" />
<path d="M578.42 692.18l26.33 0l0 13.77l-26.33 0Z" id="p244w540" />
<path d="M610.61 693.28l20.03 0l0 12.23l-20.03 0Z" id="p244w541" />
<path d="M633.35 693.28l52.66 0l0 12.23l-52.66 0Z" id="p244w542" />
<path d="M688.71 693.03l17.26 0l0 12.56l-17.26 0Z" id="p244w543" />
<path d="M536.94 708.56l11.7 0l0 12.23l-11.7 0Z" id="p244w544" />
<path d="M551.35 708.56l24.76 0l0 12.23l-24.76 0Z" id="p244w545" />
<path d="M578.81 708.56l32.83 0l0 12.23l-32.83 0Z" id="p244w546" />
<path d="M617.51 707.46l38.11 0l0 13.77l-38.11 0Z" id="p244w547" />
<path d="M661.48 708.56l15.08 0l0 12.23l-15.08 0Z" id="p244w548" />
<path d="M679.26 708.56l20.93 0l0 12.23l-20.93 0Z" id="p244w549" />
<path d="M536.94 723.84l20.65 0l0 12.23l-20.65 0Z" id="p244w550" />
<path d="M560.3 723.84l35.69 0l0 12.23l-35.69 0Z" id="p244w551" />
<path d="M615.05 723.84l15.08 0l0 12.23l-15.08 0Z" id="p244w552" />
<path d="M632.83 723.84l35.69 0l0 12.23l-35.69 0Z" id="p244w553" />
<path d="M685.14 723.6l17.26 0l0 12.56l-17.26 0Z" id="p244w554" />
<path d="M527.09 739.07l20.9 0l0 12.29l-20.9 0Z" id="p244w555" />
<path d="M552.16 739.07l30.93 0l0 12.29l-30.93 0Z" id="p244w556" />
<path d="M588.95 738.03l29.66 0l0 13.77l-29.66 0Z" id="p244w557" />
<path d="M624.46 739.13l43.16 0l0 12.23l-43.16 0Z" id="p244w558" />
<path d="M670.33 738.88l15.34 0l0 12.56l-15.34 0Z" id="p244w559" />
<path d="M527.09 754.41l17.56 0l0 12.23l-17.56 0Z" id="p244w560" />
<path d="M547.36 754.36l15.49 0l0 12.29l-15.49 0Z" id="p244w561" />
<path d="M568.71 753.31l22.15 0l0 13.77l-22.15 0Z" id="p244w562" />
<path d="M596.72 754.41l20.03 0l0 12.23l-20.03 0Z" id="p244w563" />
<path d="M619.45 754.41l30.83 0l0 12.23l-30.83 0Z" id="p244w564" />
<path d="M652.99 754.17l14.79 0l0 12.56l-14.79 0Z" id="p244w565" />
<path d="M527.09 769.7l8.33 0l0 12.23l-8.33 0Z" id="p244w566" />
<path d="M538.12 769.64l33.88 0l0 12.29l-33.88 0Z" id="p244w567" />
<path d="M577.86 768.59l29.47 0l0 13.77l-29.47 0Z" id="p244w568" />
<path d="M613.18 769.7l15.53 0l0 12.23l-15.53 0Z" id="p244w569" />
<path d="M631.41 769.7l47.05 0l0 12.23l-47.05 0Z" id="p244w570" />
<path d="M681.16 769.45l15.34 0l0 12.56l-15.34 0Z" id="p244w571" />
<path d="M527.1 823.13l50.3 0l0 12.29l-50.3 0Z" id="p244w572" />
<path d="M583.25 822.09l35.06 0l0 13.77l-35.06 0Z" id="p244w573" />
<path d="M624.17 823.19l45.68 0l0 12.23l-45.68 0Z" id="p244w574" />
<path d="M672.55 822.94l15.54 0l0 12.56l-15.54 0Z" id="p244w575" />
<path d="M527.1 838.47l11.94 0l0 12.23l-11.94 0Z" id="p244w576" />
<path d="M541.74 838.41l15.08 0l0 12.29l-15.08 0Z" id="p244w577" />
<path d="M562.68 837.37l19.75 0l0 13.77l-19.75 0Z" id="p244w578" />
<path d="M588.29 838.47l20.03 0l0 12.23l-20.03 0Z" id="p244w579" />
<path d="M610.72 838.47l31.3 0l0 12.23l-31.3 0Z" id="p244w580" />
<path d="M644.72 838.23l14.79 0l0 12.56l-14.79 0Z" id="p244w581" />
<path d="M527.1 853.75l17.56 0l0 12.23l-17.56 0Z" id="p244w582" />
<path d="M547.36 853.7l30.04 0l0 12.29l-30.04 0Z" id="p244w583" />
<path d="M583.26 852.65l30.46 0l0 13.77l-30.46 0Z" id="p244w584" />
<path d="M619.58 853.75l20.03 0l0 12.23l-20.03 0Z" id="p244w585" />
<path d="M642.31 853.75l46.14 0l0 12.23l-46.14 0Z" id="p244w586" />
<path d="M536.95 868.79l18.92 0l0 12.56l-18.92 0Z" id="p244w587" />
<path d="M527.1 884.32l17.56 0l0 12.23l-17.56 0Z" id="p244w588" />
<path d="M547.36 884.27l30.6 0l0 12.29l-30.6 0Z" id="p244w589" />
<path d="M583.82 883.22l35.05 0l0 13.77l-35.05 0Z" id="p244w590" />
<path d="M624.72 884.32l14.41 0l0 12.23l-14.41 0Z" id="p244w591" />
<path d="M641.83 884.32l23.63 0l0 12.23l-23.63 0Z" id="p244w592" />
<path d="M668.16 884.08l14.79 0l0 12.56l-14.79 0Z" id="p244w593" />
<path d="M527.1 899.6l17.56 0l0 12.23l-17.56 0Z" id="p244w594" />
<path d="M547.36 899.55l21.72 0l0 12.29l-21.72 0Z" id="p244w595" />
<path d="M571.78 899.6l11.7 0l0 12.23l-11.7 0Z" id="p244w596" />
<path d="M586.19 899.6l25.21 0l0 12.23l-25.21 0Z" id="p244w597" />
<path d="M617.25 898.5l45.34 0l0 13.77l-45.34 0Z" id="p244w598" />
<path d="M668.45 899.6l14.41 0l0 12.23l-14.41 0Z" id="p244w599" />
<path d="M536.95 914.89l59.64 0l0 12.23l-59.64 0Z" id="p244w600" />
<path d="M599.29 914.64l14.63 0l0 12.56l-14.63 0Z" id="p244w601" />
</svg>
