<?xml version="1.0" encoding="UTF-8"?>
<svg xmlns="http://www.w3.org/2000/svg" xmlns:xlink="http://www.w3.org/1999/xlink" version="1.1" baseProfile="full" width="768" height="1024" viewBox="0,0,768,1024" preserveAspectRatio="xMinYMin meet" >
<style type="text/css">
<![CDATA[
path {fill-opacity: 0.5;fill: #00aeef;visibility: hidden;}
]]>
</style>
<path d="M124.06 107.98l22.63 0l0 18.84l-22.63 0Z" id="p68w1" />
<path d="M150.74 107.98l17.56 0l0 18.84l-17.56 0Z" id="p68w2" />
<path d="M172.35 107.98l36.08 0l0 18.84l-36.08 0Z" id="p68w3" />
<path d="M143.75 139.19l32.87 0l0 14.52l-32.87 0Z" id="p68w4" />
<path d="M179.83 139.19l14.18 0l0 14.52l-14.18 0Z" id="p68w5" />
<path d="M204.69 139.19l14.43 0l0 14.52l-14.43 0Z" id="p68w6" />
<path d="M232.21 139.19l28.06 0l0 14.52l-28.06 0Z" id="p68w7" />
<path d="M263.48 139.19l36.63 0l0 14.52l-36.63 0Z" id="p68w8" />
<path d="M303.32 139.19l14.18 0l0 14.52l-14.18 0Z" id="p68w9" />
<path d="M320.7 139.19l64.94 0l0 14.52l-64.94 0Z" id="p68w10" />
<path d="M388.85 139.19l13.9 0l0 14.52l-13.9 0Z" id="p68w11" />
<path d="M405.96 139.19l18.99 0l0 14.52l-18.99 0Z" id="p68w12" />
<path d="M143.75 164.2l22.73 0l0 14.52l-22.73 0Z" id="p68w13" />
<path d="M169.69 164.2l46.25 0l0 14.52l-46.25 0Z" id="p68w14" />
<path d="M219.15 164.2l9.89 0l0 14.52l-9.89 0Z" id="p68w15" />
<path d="M232.24 164.2l34.57 0l0 14.52l-34.57 0Z" id="p68w16" />
<path d="M270.02 164.2l23.97 0l0 14.52l-23.97 0Z" id="p68w17" />
<path d="M297.2 164.2l64.94 0l0 14.52l-64.94 0Z" id="p68w18" />
<path d="M375.23 164.2l28.96 0l0 14.52l-28.96 0Z" id="p68w19" />
<path d="M407.4 164.2l13.9 0l0 14.52l-13.9 0Z" id="p68w20" />
<path d="M424.5 164.2l28.87 0l0 14.52l-28.87 0Z" id="p68w21" />
<path d="M464.06 164.2l14.43 0l0 14.52l-14.43 0Z" id="p68w22" />
<path d="M491.58 164.2l30.74 0l0 14.52l-30.74 0Z" id="p68w23" />
<path d="M124.06 197.54l51.33 0l0 14.52l-51.33 0Z" id="p68w24" />
<path d="M178.6 197.54l25.67 0l0 14.52l-25.67 0Z" id="p68w25" />
<path d="M207.48 197.54l40.64 0l0 14.52l-40.64 0Z" id="p68w26" />
<path d="M251.33 197.54l22.45 0l0 14.52l-22.45 0Z" id="p68w27" />
<path d="M276.99 197.54l14.18 0l0 14.52l-14.18 0Z" id="p68w28" />
<path d="M294.37 197.54l22.45 0l0 14.52l-22.45 0Z" id="p68w29" />
<path d="M320.03 197.54l13.9 0l0 14.52l-13.9 0Z" id="p68w30" />
<path d="M337.14 197.54l9.89 0l0 14.52l-9.89 0Z" id="p68w31" />
<path d="M350.23 197.54l35.27 0l0 14.52l-35.27 0Z" id="p68w32" />
<path d="M388.71 197.54l40.89 0l0 14.52l-40.89 0Z" id="p68w33" />
<path d="M124.06 266.38l17.01 0l0 18.84l-17.01 0Z" id="p68w34" />
<path d="M144.72 266.38l88.25 0l0 18.84l-88.25 0Z" id="p68w35" />
<path d="M236.62 266.38l37.68 0l0 18.84l-37.68 0Z" id="p68w36" />
<path d="M277.96 266.38l18.36 0l0 18.84l-18.36 0Z" id="p68w37" />
<path d="M299.96 266.38l36.05 0l0 18.84l-36.05 0Z" id="p68w38" />
<path d="M339.66 266.38l62.55 0l0 18.84l-62.55 0Z" id="p68w39" />
<path d="M405.86 266.38l16.67 0l0 18.84l-16.67 0Z" id="p68w40" />
<path d="M426.19 266.38l61.47 0l0 18.84l-61.47 0Z" id="p68w41" />
<path d="M124.06 297.58l51.89 0l0 14.52l-51.89 0Z" id="p68w42" />
<path d="M179.16 297.58l15.5 0l0 14.52l-15.5 0Z" id="p68w43" />
<path d="M197.86 297.58l38.5 0l0 14.52l-38.5 0Z" id="p68w44" />
<path d="M239.57 297.58l11.22 0l0 14.52l-11.22 0Z" id="p68w45" />
<path d="M254 297.58l27.26 0l0 14.52l-27.26 0Z" id="p68w46" />
<path d="M284.46 297.58l12.57 0l0 14.52l-12.57 0Z" id="p68w47" />
<path d="M300.23 297.58l20.85 0l0 14.52l-20.85 0Z" id="p68w48" />
<path d="M324.3 297.58l9.89 0l0 14.52l-9.89 0Z" id="p68w49" />
<path d="M337.39 297.58l64.94 0l0 14.52l-64.94 0Z" id="p68w50" />
<path d="M405.54 297.51l27.92 0l0 14.6l-27.92 0Z" id="p68w51" />
<path d="M436.66 297.51l13.87 0l0 14.6l-13.87 0Z" id="p68w52" />
<path d="M453.74 297.51l25.65 0l0 14.6l-25.65 0Z" id="p68w53" />
<path d="M485.27 297.51l17.11 0l0 14.6l-17.11 0Z" id="p68w54" />
<path d="M505.59 297.51l13.9 0l0 14.6l-13.9 0Z" id="p68w55" />
<path d="M522.69 297.51l26.57 0l0 14.6l-26.57 0Z" id="p68w56" />
<path d="M552.47 297.51l13.87 0l0 14.6l-13.87 0Z" id="p68w57" />
<path d="M569.55 297.51l25.65 0l0 14.6l-25.65 0Z" id="p68w58" />
<path d="M598.41 297.58l11.22 0l0 14.52l-11.22 0Z" id="p68w59" />
<path d="M612.83 297.51l12.68 0l0 14.6l-12.68 0Z" id="p68w60" />
<path d="M628.73 297.51l25.65 0l0 14.6l-25.65 0Z" id="p68w61" />
<path d="M544.17 131.21l15.84 0l0 16.96l-15.84 0Z" id="p68w62" />
<path d="M565.08 131.21l77.87 0l0 16.96l-77.87 0Z" id="p68w63" />
<path d="M648.02 131.21l14.39 0l0 16.96l-14.39 0Z" id="p68w64" />
<path d="M667.48 131.21l17.69 0l0 16.96l-17.69 0Z" id="p68w65" />
<path d="M60.68 165.97l27.93 0l0 12.29l-27.93 0Z" id="p68w66" />
<path d="M330.43 747.75l34.71 0l0 14.52l-34.71 0Z" id="p68w67" />
<path d="M368.28 747.75l13.1 0l0 14.52l-13.1 0Z" id="p68w68" />
<path d="M384.52 747.75l35.49 0l0 14.52l-35.49 0Z" id="p68w69" />
<path d="M423.16 747.75l13.36 0l0 14.52l-13.36 0Z" id="p68w70" />
<path d="M439.67 747.75l9.43 0l0 14.52l-9.43 0Z" id="p68w71" />
<path d="M452.24 747.75l15.73 0l0 14.52l-15.73 0Z" id="p68w72" />
<path d="M330.43 764.42l49.41 0l0 14.52l-49.41 0Z" id="p68w73" />
<path d="M382.98 764.42l22.97 0l0 14.52l-22.97 0Z" id="p68w74" />
<path d="M409.1 764.42l33.92 0l0 14.52l-33.92 0Z" id="p68w75" />
<path d="M446.16 764.42l15.73 0l0 14.52l-15.73 0Z" id="p68w76" />
<path d="M330.43 781.09l44.29 0l0 14.52l-44.29 0Z" id="p68w77" />
<path d="M377.86 781.09l18.54 0l0 14.52l-18.54 0Z" id="p68w78" />
<path d="M399.54 781.09l44.87 0l0 14.52l-44.87 0Z" id="p68w79" />
<path d="M447.56 781.09l13.23 0l0 14.52l-13.23 0Z" id="p68w80" />
<path d="M463.93 781.09l41.08 0l0 14.52l-41.08 0Z" id="p68w81" />
<path d="M532.02 747.75l37.9 0l0 14.52l-37.9 0Z" id="p68w82" />
<path d="M582.81 747.75l9.66 0l0 14.52l-9.66 0Z" id="p68w83" />
<path d="M595.65 747.75l39.83 0l0 14.52l-39.83 0Z" id="p68w84" />
<path d="M532.02 764.42l27.47 0l0 14.52l-27.47 0Z" id="p68w85" />
<path d="M562.66 764.42l24.88 0l0 14.52l-24.88 0Z" id="p68w86" />
<path d="M590.72 764.42l17.52 0l0 14.52l-17.52 0Z" id="p68w87" />
<path d="M611.42 764.42l41.34 0l0 14.52l-41.34 0Z" id="p68w88" />
<path d="M532.02 781.09l47.09 0l0 14.52l-47.09 0Z" id="p68w89" />
<path d="M582.29 781.09l9.66 0l0 14.52l-9.66 0Z" id="p68w90" />
<path d="M595.12 781.09l30.16 0l0 14.52l-30.16 0Z" id="p68w91" />
<path d="M128.98 505.99l12.29 0l0 14.52l-12.29 0Z" id="p68w92" />
<path d="M144.48 505.99l27.26 0l0 14.52l-27.26 0Z" id="p68w93" />
<path d="M184.57 505.99l44.1 0l0 14.52l-44.1 0Z" id="p68w94" />
<path d="M231.87 505.99l19.79 0l0 14.52l-19.79 0Z" id="p68w95" />
<path d="M128.98 522.66l78.76 0l0 14.52l-78.76 0Z" id="p68w96" />
<path d="M220.57 522.66l65.76 0l0 14.52l-65.76 0Z" id="p68w97" />
<path d="M138.87 539.33l46.77 0l0 14.52l-46.77 0Z" id="p68w98" />
<path d="M330.51 505.99l46.77 0l0 14.52l-46.77 0Z" id="p68w99" />
<path d="M380.48 505.99l50.53 0l0 14.52l-50.53 0Z" id="p68w100" />
<path d="M434.22 505.99l32.88 0l0 14.52l-32.88 0Z" id="p68w101" />
<path d="M330.51 522.66l18.7 0l0 14.52l-18.7 0Z" id="p68w102" />
<path d="M349.21 522.66l27.53 0l0 14.52l-27.53 0Z" id="p68w103" />
<path d="M389.84 522.66l9.89 0l0 14.52l-9.89 0Z" id="p68w104" />
<path d="M402.93 522.66l26.99 0l0 14.52l-26.99 0Z" id="p68w105" />
<path d="M330.51 539.33l48.36 0l0 14.52l-48.36 0Z" id="p68w106" />
<path d="M382.08 539.33l9.89 0l0 14.52l-9.89 0Z" id="p68w107" />
<path d="M395.17 539.33l44.11 0l0 14.52l-44.11 0Z" id="p68w108" />
<path d="M531.98 505.99l51.32 0l0 14.52l-51.32 0Z" id="p68w109" />
<path d="M586.51 505.99l14.18 0l0 14.52l-14.18 0Z" id="p68w110" />
<path d="M603.89 505.99l20.84 0l0 14.52l-20.84 0Z" id="p68w111" />
<path d="M627.94 505.99l64.94 0l0 14.52l-64.94 0Z" id="p68w112" />
<path d="M531.98 522.66l45.43 0l0 14.52l-45.43 0Z" id="p68w113" />
<path d="M580.62 522.66l17.9 0l0 14.52l-17.9 0Z" id="p68w114" />
<path d="M601.73 522.66l49.72 0l0 14.52l-49.72 0Z" id="p68w115" />
<path d="M531.98 539.33l13.9 0l0 14.52l-13.9 0Z" id="p68w116" />
<path d="M549.09 539.33l32.87 0l0 14.52l-32.87 0Z" id="p68w117" />
<path d="M128.98 747.75l57.56 0l0 14.52l-57.56 0Z" id="p68w118" />
<path d="M189.72 747.75l13.9 0l0 14.52l-13.9 0Z" id="p68w119" />
<path d="M206.8 747.75l44.72 0l0 14.52l-44.72 0Z" id="p68w120" />
<path d="M128.98 764.42l39.05 0l0 14.52l-39.05 0Z" id="p68w121" />
<path d="M171.21 764.42l20.45 0l0 14.52l-20.45 0Z" id="p68w122" />
<path d="M194.83 764.42l51 0l0 14.52l-51 0Z" id="p68w123" />
<path d="M128.98 781.09l24.8 0l0 14.52l-24.8 0Z" id="p68w124" />
<path d="M156.96 781.09l13.9 0l0 14.52l-13.9 0Z" id="p68w125" />
<path d="M174.04 781.09l34.8 0l0 14.52l-34.8 0Z" id="p68w126" />
<path d="M212.01 781.09l25.15 0l0 14.52l-25.15 0Z" id="p68w127" />
<path d="M240.34 781.09l9.66 0l0 14.52l-9.66 0Z" id="p68w128" />
<path d="M253.18 781.09l37.73 0l0 14.52l-37.73 0Z" id="p68w129" />
<path d="M124.07 822.78l50.43 0l0 14.52l-50.43 0Z" id="p68w130" />
<path d="M177.71 822.78l20.85 0l0 14.52l-20.85 0Z" id="p68w131" />
<path d="M201.77 822.78l25.67 0l0 14.52l-25.67 0Z" id="p68w132" />
<path d="M230.65 822.78l32.62 0l0 14.52l-32.62 0Z" id="p68w133" />
<path d="M266.47 822.78l13.9 0l0 14.52l-13.9 0Z" id="p68w134" />
<path d="M283.58 822.78l28.06 0l0 14.52l-28.06 0Z" id="p68w135" />
<path d="M314.85 822.78l23.51 0l0 14.52l-23.51 0Z" id="p68w136" />
<path d="M341.57 822.78l13.9 0l0 14.52l-13.9 0Z" id="p68w137" />
<path d="M358.67 822.78l25.92 0l0 14.52l-25.92 0Z" id="p68w138" />
<path d="M387.8 822.78l13.9 0l0 14.52l-13.9 0Z" id="p68w139" />
<path d="M404.91 822.78l25.38 0l0 14.52l-25.38 0Z" id="p68w140" />
<path d="M433.5 822.78l11.22 0l0 14.52l-11.22 0Z" id="p68w141" />
<path d="M447.93 822.78l25.66 0l0 14.52l-25.66 0Z" id="p68w142" />
<path d="M476.79 822.78l25.38 0l0 14.52l-25.38 0Z" id="p68w143" />
<path d="M505.38 822.78l19.52 0l0 14.52l-19.52 0Z" id="p68w144" />
<path d="M528.11 822.78l37.68 0l0 14.52l-37.68 0Z" id="p68w145" />
<path d="M569 822.78l52.48 0l0 14.52l-52.48 0Z" id="p68w146" />
<path d="M124.07 839.45l54.01 0l0 14.52l-54.01 0Z" id="p68w147" />
<path d="M181.29 839.45l18.44 0l0 14.52l-18.44 0Z" id="p68w148" />
<path d="M202.93 839.45l65.22 0l0 14.52l-65.22 0Z" id="p68w149" />
<path d="M271.36 839.45l52.48 0l0 14.52l-52.48 0Z" id="p68w150" />
<path d="M327.05 839.45l45.45 0l0 14.52l-45.45 0Z" id="p68w151" />
<path d="M375.7 839.45l25.67 0l0 14.52l-25.67 0Z" id="p68w152" />
<path d="M404.58 839.45l29.69 0l0 14.52l-29.69 0Z" id="p68w153" />
<path d="M137.94 875.35l25.4 0l0 18.11l-25.4 0Z" id="p68w154" />
<path d="M198.55 875.35l30.23 0l0 18.11l-30.23 0Z" id="p68w155" />
<path d="M262.31 875.35l28.73 0l0 18.11l-28.73 0Z" id="p68w156" />
<path d="M135.56 917.03l30.17 0l0 18.11l-30.17 0Z" id="p68w157" />
<path d="M198.95 917.03l29.42 0l0 18.11l-29.42 0Z" id="p68w158" />
<path d="M261.56 917.03l30.23 0l0 18.11l-30.23 0Z" id="p68w159" />
<path d="M344.77 877.22l13.93 0l0 16.96l-13.93 0Z" id="p68w160" />
<path d="M363.34 877.22l33.91 0l0 16.96l-33.91 0Z" id="p68w161" />
<path d="M414.17 877.22l52.19 0l0 16.96l-52.19 0Z" id="p68w162" />
<path d="M471 877.22l22.29 0l0 16.96l-22.29 0Z" id="p68w163" />
<path d="M497.94 877.22l94.18 0l0 16.96l-94.18 0Z" id="p68w164" />
<path d="M344.77 893.89l50.67 0l0 16.96l-50.67 0Z" id="p68w165" />
<path d="M412.38 893.89l11.59 0l0 16.96l-11.59 0Z" id="p68w166" />
<path d="M429.02 893.89l49.39 0l0 16.96l-49.39 0Z" id="p68w167" />
<path d="M495.33 893.89l59.15 0l0 16.96l-59.15 0Z" id="p68w168" />
<path d="M559.12 893.89l18.28 0l0 16.96l-18.28 0Z" id="p68w169" />
<path d="M582.44 893.89l36.35 0l0 16.96l-36.35 0Z" id="p68w170" />
<path d="M344.77 910.56l35.64 0l0 16.96l-35.64 0Z" id="p68w171" />
<path d="M385.05 910.56l15.85 0l0 16.96l-15.85 0Z" id="p68w172" />
<path d="M405.31 910.56l26.86 0l0 16.96l-26.86 0Z" id="p68w173" />
<path d="M448.86 910.56l32.46 0l0 16.96l-32.46 0Z" id="p68w174" />
<path d="M485.96 910.56l20.46 0l0 16.96l-20.46 0Z" id="p68w175" />
<path d="M511.06 910.56l48 0l0 16.96l-48 0Z" id="p68w176" />
<path d="M60.68 824.55l27.93 0l0 12.29l-27.93 0Z" id="p68w177" />
<path d="M487.63 223.37l65.14 0l0 14.52l-65.14 0Z" id="p68w178" />
<path d="M401.39 223.37l33.78 0l0 14.52l-33.78 0Z" id="p68w179" />
<path d="M226.89 223.37l20.93 0l0 14.52l-20.93 0Z" id="p68w180" />
<path d="M128.98 223.37l45.45 0l0 14.52l-45.45 0Z" id="p68w181" />
<path d="M300.29 223.37l48.64 0l0 14.52l-48.64 0Z" id="p68w182" />
<path d="M124.06 39.02l42.71 0l0 15.38l-42.71 0Z" id="p68w183" />
<path d="M208.04 39.02l43.21 0l0 15.38l-43.21 0Z" id="p68w184" />
<path d="M307.2 38.6l45.06 0l0 16.09l-45.06 0Z" id="p68w185" />
<path d="M414.03 39.02l28.68 0l0 15.38l-28.68 0Z" id="p68w186" />
<path d="M446.08 39.02l43.54 0l0 15.38l-43.54 0Z" id="p68w187" />
<path d="M522.82 39.02l32.54 0l0 15.38l-32.54 0Z" id="p68w188" />
<path d="M76.9 983l54.85 0l0 12.23l-54.85 0Z" id="p68w189" />
</svg>
