<?xml version="1.0" encoding="UTF-8"?>
<svg xmlns="http://www.w3.org/2000/svg" xmlns:xlink="http://www.w3.org/1999/xlink" version="1.1" baseProfile="full" width="768" height="1024" viewBox="0,0,768,1024" preserveAspectRatio="xMinYMin meet" >
<style type="text/css">
<![CDATA[
path {fill-opacity: 0.5;fill: #00aeef;visibility: hidden;}
]]>
</style>
<path d="M124.06 107.98l17.01 0l0 18.84l-17.01 0Z" id="p117w1" />
<path d="M144.72 107.98l29.89 0l0 18.84l-29.89 0Z" id="p117w2" />
<path d="M178.26 107.98l19.04 0l0 18.84l-19.04 0Z" id="p117w3" />
<path d="M200.96 107.98l56.19 0l0 18.84l-56.19 0Z" id="p117w4" />
<path d="M260.8 107.98l18.36 0l0 18.84l-18.36 0Z" id="p117w5" />
<path d="M282.81 107.98l40.72 0l0 18.84l-40.72 0Z" id="p117w6" />
<path d="M73.54 140.96l15.07 0l0 12.29l-15.07 0Z" id="p117w7" />
<path d="M124.06 738.77l32.93 0l0 18.84l-32.93 0Z" id="p117w8" />
<path d="M160.64 738.77l41.12 0l0 18.84l-41.12 0Z" id="p117w9" />
<path d="M205.41 738.77l18.36 0l0 18.84l-18.36 0Z" id="p117w10" />
<path d="M227.41 738.77l53.34 0l0 18.84l-53.34 0Z" id="p117w11" />
<path d="M124.06 772.76l33.87 0l0 14.52l-33.87 0Z" id="p117w12" />
<path d="M161.14 772.76l47.87 0l0 14.52l-47.87 0Z" id="p117w13" />
<path d="M212.22 772.76l14.18 0l0 14.52l-14.18 0Z" id="p117w14" />
<path d="M229.6 772.76l50.01 0l0 14.52l-50.01 0Z" id="p117w15" />
<path d="M282.82 772.76l17.11 0l0 14.52l-17.11 0Z" id="p117w16" />
<path d="M303.14 772.76l9.89 0l0 14.52l-9.89 0Z" id="p117w17" />
<path d="M316.23 772.76l26.73 0l0 14.52l-26.73 0Z" id="p117w18" />
<path d="M358.02 772.76l25.13 0l0 14.52l-25.13 0Z" id="p117w19" />
<path d="M386.36 772.76l30.66 0l0 14.52l-30.66 0Z" id="p117w20" />
<path d="M420.23 772.76l13.9 0l0 14.52l-13.9 0Z" id="p117w21" />
<path d="M437.33 772.76l40.28 0l0 14.52l-40.28 0Z" id="p117w22" />
<path d="M491.72 772.76l29.41 0l0 14.52l-29.41 0Z" id="p117w23" />
<path d="M524.33 772.76l33.67 0l0 14.52l-33.67 0Z" id="p117w24" />
<path d="M561.21 772.76l24.33 0l0 14.52l-24.33 0Z" id="p117w25" />
<path d="M597.84 772.76l53.72 0l0 14.52l-53.72 0Z" id="p117w26" />
<path d="M654.77 772.76l11.22 0l0 14.52l-11.22 0Z" id="p117w27" />
<path d="M124.06 789.43l25.67 0l0 14.52l-25.67 0Z" id="p117w28" />
<path d="M152.94 789.43l49.44 0l0 14.52l-49.44 0Z" id="p117w29" />
<path d="M205.59 789.43l20.85 0l0 14.52l-20.85 0Z" id="p117w30" />
<path d="M229.66 789.43l71.09 0l0 14.52l-71.09 0Z" id="p117w31" />
<path d="M303.95 789.43l13.9 0l0 14.52l-13.9 0Z" id="p117w32" />
<path d="M321.06 789.43l18.72 0l0 14.52l-18.72 0Z" id="p117w33" />
<path d="M342.99 789.43l66.29 0l0 14.52l-66.29 0Z" id="p117w34" />
<path d="M412.48 789.43l13.9 0l0 14.52l-13.9 0Z" id="p117w35" />
<path d="M429.59 789.43l30.66 0l0 14.52l-30.66 0Z" id="p117w36" />
<path d="M463.46 789.43l25.13 0l0 14.52l-25.13 0Z" id="p117w37" />
<path d="M491.79 789.43l33.41 0l0 14.52l-33.41 0Z" id="p117w38" />
<path d="M528.41 789.43l13.9 0l0 14.52l-13.9 0Z" id="p117w39" />
<path d="M545.52 789.43l16.31 0l0 14.52l-16.31 0Z" id="p117w40" />
<path d="M565.04 789.43l13.91 0l0 14.52l-13.91 0Z" id="p117w41" />
<path d="M582.16 789.43l13.9 0l0 14.52l-13.9 0Z" id="p117w42" />
<path d="M599.26 789.43l36.09 0l0 14.52l-36.09 0Z" id="p117w43" />
<path d="M638.56 789.43l35.31 0l0 14.52l-35.31 0Z" id="p117w44" />
<path d="M143.75 814.44l51.42 0l0 14.52l-51.42 0Z" id="p117w45" />
<path d="M208.27 814.44l39.29 0l0 14.52l-39.29 0Z" id="p117w46" />
<path d="M250.77 814.44l68.61 0l0 14.52l-68.61 0Z" id="p117w47" />
<path d="M322.59 814.44l46.26 0l0 14.52l-46.26 0Z" id="p117w48" />
<path d="M372.06 814.44l17.11 0l0 14.52l-17.11 0Z" id="p117w49" />
<path d="M392.38 814.44l9.89 0l0 14.52l-9.89 0Z" id="p117w50" />
<path d="M405.47 814.44l30.66 0l0 14.52l-30.66 0Z" id="p117w51" />
<path d="M439.34 814.44l20.85 0l0 14.52l-20.85 0Z" id="p117w52" />
<path d="M463.4 814.44l25.67 0l0 14.52l-25.67 0Z" id="p117w53" />
<path d="M492.28 814.44l25.66 0l0 14.52l-25.66 0Z" id="p117w54" />
<path d="M521.15 814.44l55.07 0l0 14.52l-55.07 0Z" id="p117w55" />
<path d="M143.75 839.45l29.41 0l0 14.52l-29.41 0Z" id="p117w56" />
<path d="M176.37 839.45l30.66 0l0 14.52l-30.66 0Z" id="p117w57" />
<path d="M210.24 839.45l25.4 0l0 14.52l-25.4 0Z" id="p117w58" />
<path d="M238.84 839.45l24.59 0l0 14.52l-24.59 0Z" id="p117w59" />
<path d="M266.64 839.45l27.01 0l0 14.52l-27.01 0Z" id="p117w60" />
<path d="M303.27 839.45l25.67 0l0 14.52l-25.67 0Z" id="p117w61" />
<path d="M332.15 839.45l40.64 0l0 14.52l-40.64 0Z" id="p117w62" />
<path d="M376 839.45l22.76 0l0 14.52l-22.76 0Z" id="p117w63" />
<path d="M401.96 839.45l55.87 0l0 14.52l-55.87 0Z" id="p117w64" />
<path d="M461.04 839.45l20.85 0l0 14.52l-20.85 0Z" id="p117w65" />
<path d="M485.1 839.45l48.92 0l0 14.52l-48.92 0Z" id="p117w66" />
<path d="M537.23 839.45l17.38 0l0 14.52l-17.38 0Z" id="p117w67" />
<path d="M557.82 839.45l25.65 0l0 14.52l-25.65 0Z" id="p117w68" />
<path d="M586.67 839.45l69.2 0l0 14.52l-69.2 0Z" id="p117w69" />
<path d="M143.75 856.12l55.32 0l0 14.52l-55.32 0Z" id="p117w70" />
<path d="M207.32 856.12l41.17 0l0 14.52l-41.17 0Z" id="p117w71" />
<path d="M251.7 856.12l19.79 0l0 14.52l-19.79 0Z" id="p117w72" />
<path d="M274.69 856.12l11.22 0l0 14.52l-11.22 0Z" id="p117w73" />
<path d="M289.12 856.12l41.45 0l0 14.52l-41.45 0Z" id="p117w74" />
<path d="M333.77 856.12l13.91 0l0 14.52l-13.91 0Z" id="p117w75" />
<path d="M350.89 856.12l48.11 0l0 14.52l-48.11 0Z" id="p117w76" />
<path d="M402.21 856.12l19.51 0l0 14.52l-19.51 0Z" id="p117w77" />
<path d="M424.93 856.12l40.28 0l0 14.52l-40.28 0Z" id="p117w78" />
<path d="M468.42 856.12l17.38 0l0 14.52l-17.38 0Z" id="p117w79" />
<path d="M489.01 856.12l9.89 0l0 14.52l-9.89 0Z" id="p117w80" />
<path d="M502.1 856.12l54.8 0l0 14.52l-54.8 0Z" id="p117w81" />
<path d="M560.11 856.12l48.12 0l0 14.52l-48.12 0Z" id="p117w82" />
<path d="M611.45 856.12l19.51 0l0 14.52l-19.51 0Z" id="p117w83" />
<path d="M634.16 856.12l32.88 0l0 14.52l-32.88 0Z" id="p117w84" />
<path d="M143.75 872.79l25.67 0l0 14.52l-25.67 0Z" id="p117w85" />
<path d="M172.64 872.79l40.64 0l0 14.52l-40.64 0Z" id="p117w86" />
<path d="M216.48 872.79l37.35 0l0 14.52l-37.35 0Z" id="p117w87" />
<path d="M143.75 897.81l45.19 0l0 14.52l-45.19 0Z" id="p117w88" />
<path d="M192.16 897.81l40.89 0l0 14.52l-40.89 0Z" id="p117w89" />
<path d="M236.26 897.81l18.72 0l0 14.52l-18.72 0Z" id="p117w90" />
<path d="M258.18 897.81l16.31 0l0 14.52l-16.31 0Z" id="p117w91" />
<path d="M282.74 897.81l41.7 0l0 14.52l-41.7 0Z" id="p117w92" />
<path d="M327.65 897.81l38.5 0l0 14.52l-38.5 0Z" id="p117w93" />
<path d="M369.36 897.81l26.73 0l0 14.52l-26.73 0Z" id="p117w94" />
<path d="M399.29 897.81l9.89 0l0 14.52l-9.89 0Z" id="p117w95" />
<path d="M412.39 897.81l33.67 0l0 14.52l-33.67 0Z" id="p117w96" />
<path d="M449.27 897.81l11.22 0l0 14.52l-11.22 0Z" id="p117w97" />
<path d="M463.69 897.81l55.87 0l0 14.52l-55.87 0Z" id="p117w98" />
<path d="M522.77 897.81l9.89 0l0 14.52l-9.89 0Z" id="p117w99" />
<path d="M535.87 897.81l16.31 0l0 14.52l-16.31 0Z" id="p117w100" />
<path d="M560.43 897.81l9.89 0l0 14.52l-9.89 0Z" id="p117w101" />
<path d="M573.52 897.81l36.09 0l0 14.52l-36.09 0Z" id="p117w102" />
<path d="M612.82 897.81l32.89 0l0 14.52l-32.89 0Z" id="p117w103" />
<path d="M648.92 897.81l17.38 0l0 14.52l-17.38 0Z" id="p117w104" />
<path d="M143.75 914.48l60.14 0l0 14.52l-60.14 0Z" id="p117w105" />
<path d="M207.1 914.48l13.63 0l0 14.52l-13.63 0Z" id="p117w106" />
<path d="M223.94 914.48l52.69 0l0 14.52l-52.69 0Z" id="p117w107" />
<path d="M149.26 714.07l32.88 0l0 12.56l-32.88 0Z" id="p117w108" />
<path d="M184.84 714.07l36.55 0l0 12.56l-36.55 0Z" id="p117w109" />
<path d="M62.22 774.53l26.4 0l0 12.29l-26.4 0Z" id="p117w110" />
<path d="M44.38 845.46l44.24 0l0 12.3l-44.24 0Z" id="p117w111" />
<path d="M124.77 90.37l14.97 0l0 19.12l-14.97 0Z" id="p117w112" />
<path d="M145.15 90.37l40.61 0l0 19.12l-40.61 0Z" id="p117w113" />
<path d="M191.16 90.37l21.92 0l0 19.12l-21.92 0Z" id="p117w114" />
<path d="M218.48 90.37l69.97 0l0 19.12l-69.97 0Z" id="p117w115" />
<path d="M293.86 90.37l18.66 0l0 19.12l-18.66 0Z" id="p117w116" />
<path d="M317.92 90.37l46.74 0l0 19.12l-46.74 0Z" id="p117w117" />
<path d="M137.87 647.71l51.42 0l0 14.52l-51.42 0Z" id="p117w118" />
<path d="M202.39 647.71l36.61 0l0 14.52l-36.61 0Z" id="p117w119" />
<path d="M242.21 647.71l11.22 0l0 14.52l-11.22 0Z" id="p117w120" />
<path d="M256.64 647.71l48.12 0l0 14.52l-48.12 0Z" id="p117w121" />
<path d="M307.97 647.71l39.56 0l0 14.52l-39.56 0Z" id="p117w122" />
<path d="M350.73 647.71l66.29 0l0 14.52l-66.29 0Z" id="p117w123" />
<path d="M420.23 647.71l40.11 0l0 14.52l-40.11 0Z" id="p117w124" />
<path d="M463.55 647.71l11.22 0l0 14.52l-11.22 0Z" id="p117w125" />
<path d="M477.97 647.71l17.9 0l0 14.52l-17.9 0Z" id="p117w126" />
<path d="M499.08 647.71l42.78 0l0 14.52l-42.78 0Z" id="p117w127" />
<path d="M545.07 647.71l22.99 0l0 14.52l-22.99 0Z" id="p117w128" />
<path d="M571.27 647.71l46.78 0l0 14.52l-46.78 0Z" id="p117w129" />
<path d="M621.25 647.71l26.99 0l0 14.52l-26.99 0Z" id="p117w130" />
<path d="M651.45 647.71l38.95 0l0 14.52l-38.95 0Z" id="p117w131" />
<path d="M143.75 672.72l15.51 0l0 14.52l-15.51 0Z" id="p117w132" />
<path d="M162.47 672.72l19.51 0l0 14.52l-19.51 0Z" id="p117w133" />
<path d="M185.19 672.72l44.05 0l0 14.52l-44.05 0Z" id="p117w134" />
<path d="M242.33 672.72l18.7 0l0 14.52l-18.7 0Z" id="p117w135" />
<path d="M264.24 672.72l19.79 0l0 14.52l-19.79 0Z" id="p117w136" />
<path d="M287.23 672.72l30.66 0l0 14.52l-30.66 0Z" id="p117w137" />
<path d="M321.1 672.72l25.67 0l0 14.52l-25.67 0Z" id="p117w138" />
<path d="M349.98 672.72l19.79 0l0 14.52l-19.79 0Z" id="p117w139" />
<path d="M372.97 672.72l29.95 0l0 14.52l-29.95 0Z" id="p117w140" />
<path d="M406.13 672.72l47.83 0l0 14.52l-47.83 0Z" id="p117w141" />
<path d="M457.17 672.7l49.99 0l0 14.52l-49.99 0Z" id="p117w142" />
<path d="M513.05 672.72l35 0l0 14.52l-35 0Z" id="p117w143" />
<path d="M551.26 672.72l36.83 0l0 14.52l-36.83 0Z" id="p117w144" />
<path d="M591.29 672.72l51.53 0l0 14.52l-51.53 0Z" id="p117w145" />
<path d="M646.03 672.72l52.69 0l0 14.52l-52.69 0Z" id="p117w146" />
<path d="M68.27 39.02l46.09 0l0 15.38l-46.09 0Z" id="p117w147" />
<path d="M152.94 39.02l46.59 0l0 15.38l-46.59 0Z" id="p117w148" />
<path d="M251.4 38.6l45.06 0l0 16.09l-45.06 0Z" id="p117w149" />
<path d="M350.65 39.02l32.54 0l0 15.38l-32.54 0Z" id="p117w150" />
<path d="M636.24 983l54.86 0l0 12.23l-54.86 0Z" id="p117w151" />
</svg>
