<?xml version="1.0" encoding="UTF-8"?>
<svg xmlns="http://www.w3.org/2000/svg" xmlns:xlink="http://www.w3.org/1999/xlink" version="1.1" baseProfile="full" width="768" height="1024" viewBox="0,0,768,1024" preserveAspectRatio="xMinYMin meet" >
<style type="text/css">
<![CDATA[
path {fill-opacity: 0.5;fill: #00aeef;visibility: hidden;}
]]>
</style>
<path d="M125.05 107.98l23.83 0l0 18.84l-23.83 0Z" id="p115w1" />
<path d="M152.52 107.98l18.36 0l0 18.84l-18.36 0Z" id="p115w2" />
<path d="M174.53 107.98l33.96 0l0 18.84l-33.96 0Z" id="p115w3" />
<path d="M125.05 139.19l27.53 0l0 14.52l-27.53 0Z" id="p115w4" />
<path d="M155.79 139.19l15.5 0l0 14.52l-15.5 0Z" id="p115w5" />
<path d="M174.49 139.19l28.06 0l0 14.52l-28.06 0Z" id="p115w6" />
<path d="M205.76 139.19l48.48 0l0 14.52l-48.48 0Z" id="p115w7" />
<path d="M257.45 139.19l22.73 0l0 14.52l-22.73 0Z" id="p115w8" />
<path d="M283.39 139.19l43.58 0l0 14.52l-43.58 0Z" id="p115w9" />
<path d="M330.18 139.19l9.89 0l0 14.52l-9.89 0Z" id="p115w10" />
<path d="M343.27 139.19l15.51 0l0 14.52l-15.51 0Z" id="p115w11" />
<path d="M361.99 139.19l11.22 0l0 14.52l-11.22 0Z" id="p115w12" />
<path d="M376.41 139.19l39.56 0l0 14.52l-39.56 0Z" id="p115w13" />
<path d="M125.05 155.86l15.5 0l0 14.52l-15.5 0Z" id="p115w14" />
<path d="M143.75 155.86l28.06 0l0 14.52l-28.06 0Z" id="p115w15" />
<path d="M175.02 155.86l26.73 0l0 14.52l-26.73 0Z" id="p115w16" />
<path d="M204.95 155.86l9.89 0l0 14.52l-9.89 0Z" id="p115w17" />
<path d="M218.05 155.86l44.64 0l0 14.52l-44.64 0Z" id="p115w18" />
<path d="M125.05 180.87l48.64 0l0 14.52l-48.64 0Z" id="p115w19" />
<path d="M173.69 180.81l10.02 0l0 14.6l-10.02 0Z" id="p115w20" />
<path d="M196.53 180.87l14.18 0l0 14.52l-14.18 0Z" id="p115w21" />
<path d="M213.92 180.87l22.17 0l0 14.52l-22.17 0Z" id="p115w22" />
<path d="M236.09 180.81l10.02 0l0 14.6l-10.02 0Z" id="p115w23" />
<path d="M263.48 180.87l20.85 0l0 14.52l-20.85 0Z" id="p115w24" />
<path d="M287.54 180.87l51.85 0l0 14.52l-51.85 0Z" id="p115w25" />
<path d="M339.39 180.81l10.02 0l0 14.6l-10.02 0Z" id="p115w26" />
<path d="M362.24 180.87l15.5 0l0 14.52l-15.5 0Z" id="p115w27" />
<path d="M380.94 180.87l29.39 0l0 14.52l-29.39 0Z" id="p115w28" />
<path d="M410.34 180.81l10.02 0l0 14.6l-10.02 0Z" id="p115w29" />
<path d="M420.35 180.87l10.15 0l0 14.52l-10.15 0Z" id="p115w30" />
<path d="M443.33 180.87l9.89 0l0 14.52l-9.89 0Z" id="p115w31" />
<path d="M456.43 180.87l25.66 0l0 14.52l-25.66 0Z" id="p115w32" />
<path d="M482.09 180.81l10.02 0l0 14.6l-10.02 0Z" id="p115w33" />
<path d="M492.11 180.87l11.22 0l0 14.52l-11.22 0Z" id="p115w34" />
<path d="M516.15 180.87l20.85 0l0 14.52l-20.85 0Z" id="p115w35" />
<path d="M540.22 180.87l32.34 0l0 14.52l-32.34 0Z" id="p115w36" />
<path d="M572.56 180.81l10.02 0l0 14.6l-10.02 0Z" id="p115w37" />
<path d="M125.05 197.54l20.85 0l0 14.52l-20.85 0Z" id="p115w38" />
<path d="M149.11 197.54l22.17 0l0 14.52l-22.17 0Z" id="p115w39" />
<path d="M171.28 197.48l10.02 0l0 14.6l-10.02 0Z" id="p115w40" />
<path d="M181.3 197.54l11.22 0l0 14.52l-11.22 0Z" id="p115w41" />
<path d="M205.35 197.54l12.02 0l0 14.52l-12.02 0Z" id="p115w42" />
<path d="M220.58 197.54l24.06 0l0 14.52l-24.06 0Z" id="p115w43" />
<path d="M244.65 197.48l10.02 0l0 14.6l-10.02 0Z" id="p115w44" />
<path d="M254.66 197.54l11.76 0l0 14.52l-11.76 0Z" id="p115w45" />
<path d="M279.25 197.54l39.29 0l0 14.52l-39.29 0Z" id="p115w46" />
<path d="M318.55 197.48l10.02 0l0 14.6l-10.02 0Z" id="p115w47" />
<path d="M341.4 197.54l9.89 0l0 14.52l-9.89 0Z" id="p115w48" />
<path d="M354.49 197.54l29.39 0l0 14.52l-29.39 0Z" id="p115w49" />
<path d="M383.88 197.48l10.02 0l0 14.6l-10.02 0Z" id="p115w50" />
<path d="M393.9 197.54l11.22 0l0 14.52l-11.22 0Z" id="p115w51" />
<path d="M144.74 230.88l12.83 0l0 14.52l-12.83 0Z" id="p115w52" />
<path d="M160.78 230.88l39.55 0l0 14.52l-39.55 0Z" id="p115w53" />
<path d="M203.53 230.88l13.9 0l0 14.52l-13.9 0Z" id="p115w54" />
<path d="M220.63 230.88l49.18 0l0 14.52l-49.18 0Z" id="p115w55" />
<path d="M273.02 230.88l48.47 0l0 14.52l-48.47 0Z" id="p115w56" />
<path d="M324.7 230.88l14.97 0l0 14.52l-14.97 0Z" id="p115w57" />
<path d="M346.34 230.88l15.77 0l0 14.52l-15.77 0Z" id="p115w58" />
<path d="M365.32 230.88l35.28 0l0 14.52l-35.28 0Z" id="p115w59" />
<path d="M403.81 230.88l16.83 0l0 14.52l-16.83 0Z" id="p115w60" />
<path d="M423.85 230.88l9.89 0l0 14.52l-9.89 0Z" id="p115w61" />
<path d="M436.94 230.88l46.26 0l0 14.52l-46.26 0Z" id="p115w62" />
<path d="M486.42 230.88l14.18 0l0 14.52l-14.18 0Z" id="p115w63" />
<path d="M503.8 230.88l33.39 0l0 14.52l-33.39 0Z" id="p115w64" />
<path d="M144.74 255.9l27.53 0l0 14.52l-27.53 0Z" id="p115w65" />
<path d="M185.37 255.9l22.2 0l0 14.52l-22.2 0Z" id="p115w66" />
<path d="M210.77 255.9l32.07 0l0 14.52l-32.07 0Z" id="p115w67" />
<path d="M246.06 255.9l15.5 0l0 14.52l-15.5 0Z" id="p115w68" />
<path d="M264.76 255.9l28.06 0l0 14.52l-28.06 0Z" id="p115w69" />
<path d="M296.03 255.9l48.48 0l0 14.52l-48.48 0Z" id="p115w70" />
<path d="M347.72 255.9l22.99 0l0 14.52l-22.99 0Z" id="p115w71" />
<path d="M373.92 255.9l43.58 0l0 14.52l-43.58 0Z" id="p115w72" />
<path d="M420.71 255.9l9.89 0l0 14.52l-9.89 0Z" id="p115w73" />
<path d="M433.8 255.9l15.51 0l0 14.52l-15.51 0Z" id="p115w74" />
<path d="M452.52 255.9l11.22 0l0 14.52l-11.22 0Z" id="p115w75" />
<path d="M466.95 255.9l28.06 0l0 14.52l-28.06 0Z" id="p115w76" />
<path d="M495.01 255.9l12.57 0l0 14.52l-12.57 0Z" id="p115w77" />
<path d="M510.78 255.9l28.87 0l0 14.52l-28.87 0Z" id="p115w78" />
<path d="M542.86 255.9l80.23 0l0 14.52l-80.23 0Z" id="p115w79" />
<path d="M289.94 284.32l20.85 0l0 14.52l-20.85 0Z" id="p115w80" />
<path d="M314.01 284.32l42.24 0l0 14.52l-42.24 0Z" id="p115w81" />
<path d="M381.84 284.32l25.4 0l0 14.52l-25.4 0Z" id="p115w82" />
<path d="M129.97 284.32l9.89 0l0 14.52l-9.89 0Z" id="p115w83" />
<path d="M143.06 284.32l26.45 0l0 14.52l-26.45 0Z" id="p115w84" />
<path d="M432.84 284.32l21.38 0l0 14.52l-21.38 0Z" id="p115w85" />
<path d="M195.11 284.32l14.18 0l0 14.52l-14.18 0Z" id="p115w86" />
<path d="M212.5 284.32l51.85 0l0 14.52l-51.85 0Z" id="p115w87" />
<path d="M125.05 333.07l46.72 0l0 18.84l-46.72 0Z" id="p115w88" />
<path d="M175.42 333.07l55.71 0l0 18.84l-55.71 0Z" id="p115w89" />
<path d="M234.79 333.07l84.04 0l0 18.84l-84.04 0Z" id="p115w90" />
<path d="M144.74 364.27l27.8 0l0 14.52l-27.8 0Z" id="p115w91" />
<path d="M175.74 364.27l40.64 0l0 14.52l-40.64 0Z" id="p115w92" />
<path d="M219.59 364.27l40.36 0l0 14.52l-40.36 0Z" id="p115w93" />
<path d="M263.16 364.27l14.18 0l0 14.52l-14.18 0Z" id="p115w94" />
<path d="M280.55 364.27l28.33 0l0 14.52l-28.33 0Z" id="p115w95" />
<path d="M312.08 364.27l13.9 0l0 14.52l-13.9 0Z" id="p115w96" />
<path d="M329.19 364.27l26.74 0l0 14.52l-26.74 0Z" id="p115w97" />
<path d="M359.13 364.27l24.31 0l0 14.52l-24.31 0Z" id="p115w98" />
<path d="M386.66 364.27l13.63 0l0 14.52l-13.63 0Z" id="p115w99" />
<path d="M403.5 364.27l34.48 0l0 14.52l-34.48 0Z" id="p115w100" />
<path d="M144.74 380.94l55.44 0l0 14.52l-55.44 0Z" id="p115w101" />
<path d="M203.38 380.94l34.75 0l0 14.52l-34.75 0Z" id="p115w102" />
<path d="M241.35 380.94l79.9 0l0 14.52l-79.9 0Z" id="p115w103" />
<path d="M330.86 380.94l49.1 0l0 14.52l-49.1 0Z" id="p115w104" />
<path d="M383.17 380.94l17.38 0l0 14.52l-17.38 0Z" id="p115w105" />
<path d="M403.76 380.94l24.31 0l0 14.52l-24.31 0Z" id="p115w106" />
<path d="M431.28 380.94l31.8 0l0 14.52l-31.8 0Z" id="p115w107" />
<path d="M466.29 380.94l13.9 0l0 14.52l-13.9 0Z" id="p115w108" />
<path d="M483.39 380.94l43.82 0l0 14.52l-43.82 0Z" id="p115w109" />
<path d="M144.74 405.95l6.15 0l0 14.52l-6.15 0Z" id="p115w110" />
<path d="M150.89 405.89l28.46 0l0 14.6l-28.46 0Z" id="p115w111" />
<path d="M182.55 405.89l67.55 0l0 14.6l-67.55 0Z" id="p115w112" />
<path d="M253.32 405.95l25.4 0l0 14.52l-25.4 0Z" id="p115w113" />
<path d="M281.92 405.95l52.12 0l0 14.52l-52.12 0Z" id="p115w114" />
<path d="M337.25 405.95l34.77 0l0 14.52l-34.77 0Z" id="p115w115" />
<path d="M375.22 405.95l25.13 0l0 14.52l-25.13 0Z" id="p115w116" />
<path d="M403.56 405.95l35.57 0l0 14.52l-35.57 0Z" id="p115w117" />
<path d="M461.85 405.95l40.36 0l0 14.52l-40.36 0Z" id="p115w118" />
<path d="M505.42 405.95l26.45 0l0 14.52l-26.45 0Z" id="p115w119" />
<path d="M535.08 405.95l15.5 0l0 14.52l-15.5 0Z" id="p115w120" />
<path d="M553.78 405.95l49.43 0l0 14.52l-49.43 0Z" id="p115w121" />
<path d="M144.74 422.63l53.19 0l0 14.52l-53.19 0Z" id="p115w122" />
<path d="M201.14 422.56l41.3 0l0 14.6l-41.3 0Z" id="p115w123" />
<path d="M245.65 422.63l23.52 0l0 14.52l-23.52 0Z" id="p115w124" />
<path d="M272.38 422.56l60.47 0l0 14.6l-60.47 0Z" id="p115w125" />
<path d="M345.94 422.63l49 0l0 14.52l-49 0Z" id="p115w126" />
<path d="M408.03 422.63l29.14 0l0 14.52l-29.14 0Z" id="p115w127" />
<path d="M453.48 422.63l23.51 0l0 14.52l-23.51 0Z" id="p115w128" />
<path d="M144.74 439.3l6.15 0l0 14.52l-6.15 0Z" id="p115w129" />
<path d="M150.89 439.23l28.46 0l0 14.6l-28.46 0Z" id="p115w130" />
<path d="M182.55 439.3l41.71 0l0 14.52l-41.71 0Z" id="p115w131" />
<path d="M227.47 439.23l33.51 0l0 14.6l-33.51 0Z" id="p115w132" />
<path d="M274.08 439.3l52.65 0l0 14.52l-52.65 0Z" id="p115w133" />
<path d="M329.94 439.3l13.9 0l0 14.52l-13.9 0Z" id="p115w134" />
<path d="M347.04 439.3l41.45 0l0 14.52l-41.45 0Z" id="p115w135" />
<path d="M391.7 439.3l26.45 0l0 14.52l-26.45 0Z" id="p115w136" />
<path d="M421.36 439.3l30.73 0l0 14.52l-30.73 0Z" id="p115w137" />
<path d="M455.29 439.3l9.89 0l0 14.52l-9.89 0Z" id="p115w138" />
<path d="M468.39 439.3l41.97 0l0 14.52l-41.97 0Z" id="p115w139" />
<path d="M513.57 439.3l32.8 0l0 14.52l-32.8 0Z" id="p115w140" />
<path d="M549.57 439.3l9.62 0l0 14.52l-9.62 0Z" id="p115w141" />
<path d="M562.4 439.3l9.62 0l0 14.52l-9.62 0Z" id="p115w142" />
<path d="M572.03 439.23l28.46 0l0 14.6l-28.46 0Z" id="p115w143" />
<path d="M144.74 455.97l22.99 0l0 14.52l-22.99 0Z" id="p115w144" />
<path d="M170.94 455.97l22.99 0l0 14.52l-22.99 0Z" id="p115w145" />
<path d="M197.14 455.97l32.62 0l0 14.52l-32.62 0Z" id="p115w146" />
<path d="M246.33 455.97l35.37 0l0 14.52l-35.37 0Z" id="p115w147" />
<path d="M144.74 480.98l62.55 0l0 14.52l-62.55 0Z" id="p115w148" />
<path d="M210.5 480.98l9.89 0l0 14.52l-9.89 0Z" id="p115w149" />
<path d="M223.59 480.91l89.53 0l0 14.6l-89.53 0Z" id="p115w150" />
<path d="M324.88 480.98l53.22 0l0 14.52l-53.22 0Z" id="p115w151" />
<path d="M381.31 480.98l53.19 0l0 14.52l-53.19 0Z" id="p115w152" />
<path d="M437.71 480.98l14.18 0l0 14.52l-14.18 0Z" id="p115w153" />
<path d="M455.09 480.98l9.89 0l0 14.52l-9.89 0Z" id="p115w154" />
<path d="M468.19 480.98l36.09 0l0 14.52l-36.09 0Z" id="p115w155" />
<path d="M125.05 514.32l51.33 0l0 14.52l-51.33 0Z" id="p115w156" />
<path d="M179.59 514.32l9.89 0l0 14.52l-9.89 0Z" id="p115w157" />
<path d="M192.68 514.32l41.97 0l0 14.52l-41.97 0Z" id="p115w158" />
<path d="M237.86 514.32l57.39 0l0 14.52l-57.39 0Z" id="p115w159" />
<path d="M298.46 514.32l39.28 0l0 14.52l-39.28 0Z" id="p115w160" />
<path d="M340.95 514.32l15.5 0l0 14.52l-15.5 0Z" id="p115w161" />
<path d="M359.65 514.32l36.88 0l0 14.52l-36.88 0Z" id="p115w162" />
<path d="M399.74 514.32l13.63 0l0 14.52l-13.63 0Z" id="p115w163" />
<path d="M416.58 514.32l31.8 0l0 14.52l-31.8 0Z" id="p115w164" />
<path d="M451.58 514.32l50.26 0l0 14.52l-50.26 0Z" id="p115w165" />
<path d="M505.05 514.32l13.91 0l0 14.52l-13.91 0Z" id="p115w166" />
<path d="M522.17 514.32l13.63 0l0 14.52l-13.63 0Z" id="p115w167" />
<path d="M539.02 514.32l90.98 0l0 14.52l-90.98 0Z" id="p115w168" />
<path d="M46.05 141.03l26.31 0l0 12.3l-26.31 0Z" id="p115w169" />
<path d="M48.91 257.74l26.31 0l0 12.3l-26.31 0Z" id="p115w170" />
<path d="M128.01 706.06l12.29 0l0 14.52l-12.29 0Z" id="p115w171" />
<path d="M143.5 706.06l44.89 0l0 14.52l-44.89 0Z" id="p115w172" />
<path d="M191.6 706.06l22.72 0l0 14.52l-22.72 0Z" id="p115w173" />
<path d="M227.15 706.06l25.38 0l0 14.52l-25.38 0Z" id="p115w174" />
<path d="M255.74 706.06l9.89 0l0 14.52l-9.89 0Z" id="p115w175" />
<path d="M268.83 706.06l22.17 0l0 14.52l-22.17 0Z" id="p115w176" />
<path d="M531.03 914.47l37.44 0l0 14.52l-37.44 0Z" id="p115w177" />
<path d="M571.64 914.47l13.5 0l0 14.52l-13.5 0Z" id="p115w178" />
<path d="M588.32 914.47l34.29 0l0 14.52l-34.29 0Z" id="p115w179" />
<path d="M625.78 914.47l42.09 0l0 14.52l-42.09 0Z" id="p115w180" />
<path d="M531.03 931.15l36.34 0l0 14.52l-36.34 0Z" id="p115w181" />
<path d="M570.57 931.15l20.85 0l0 14.52l-20.85 0Z" id="p115w182" />
<path d="M594.64 931.15l41.97 0l0 14.52l-41.97 0Z" id="p115w183" />
<path d="M639.82 931.15l36.35 0l0 14.52l-36.35 0Z" id="p115w184" />
<path d="M329.51 914.47l44.64 0l0 14.52l-44.64 0Z" id="p115w185" />
<path d="M377.36 914.47l14.18 0l0 14.52l-14.18 0Z" id="p115w186" />
<path d="M394.74 914.47l54.28 0l0 14.52l-54.28 0Z" id="p115w187" />
<path d="M329.51 931.15l24.33 0l0 14.52l-24.33 0Z" id="p115w188" />
<path d="M357.04 931.15l49 0l0 14.52l-49 0Z" id="p115w189" />
<path d="M128.03 914.47l37.97 0l0 14.52l-37.97 0Z" id="p115w190" />
<path d="M169.21 914.47l37.93 0l0 14.52l-37.93 0Z" id="p115w191" />
<path d="M210.35 914.47l9.89 0l0 14.52l-9.89 0Z" id="p115w192" />
<path d="M223.45 914.47l28.33 0l0 14.52l-28.33 0Z" id="p115w193" />
<path d="M128.03 931.15l52.34 0l0 14.52l-52.34 0Z" id="p115w194" />
<path d="M193.19 931.15l23.52 0l0 14.52l-23.52 0Z" id="p115w195" />
<path d="M219.92 931.15l22.99 0l0 14.52l-22.99 0Z" id="p115w196" />
<path d="M246.12 931.15l25.38 0l0 14.52l-25.38 0Z" id="p115w197" />
<path d="M531.03 706.06l35.06 0l0 14.52l-35.06 0Z" id="p115w198" />
<path d="M578.92 706.06l32.96 0l0 14.52l-32.96 0Z" id="p115w199" />
<path d="M624.45 706.06l27.66 0l0 14.52l-27.66 0Z" id="p115w200" />
<path d="M655.29 706.06l13.77 0l0 14.52l-13.77 0Z" id="p115w201" />
<path d="M672.23 706.06l22.76 0l0 14.52l-22.76 0Z" id="p115w202" />
<path d="M531.03 722.74l13.36 0l0 14.52l-13.36 0Z" id="p115w203" />
<path d="M547.53 722.74l18.73 0l0 14.52l-18.73 0Z" id="p115w204" />
<path d="M569.41 722.74l26.34 0l0 14.52l-26.34 0Z" id="p115w205" />
<path d="M598.89 722.74l9.43 0l0 14.52l-9.43 0Z" id="p115w206" />
<path d="M611.46 722.74l33.66 0l0 14.52l-33.66 0Z" id="p115w207" />
<path d="M648.26 722.74l13.36 0l0 14.52l-13.36 0Z" id="p115w208" />
<path d="M664.77 722.74l42.44 0l0 14.52l-42.44 0Z" id="p115w209" />
<path d="M329.51 706.06l30.73 0l0 14.52l-30.73 0Z" id="p115w210" />
<path d="M363.45 706.06l25.12 0l0 14.52l-25.12 0Z" id="p115w211" />
<path d="M391.77 706.06l78.76 0l0 14.52l-78.76 0Z" id="p115w212" />
<path d="M329.51 722.73l12.29 0l0 14.52l-12.29 0Z" id="p115w213" />
<path d="M345.01 722.73l37.17 0l0 14.52l-37.17 0Z" id="p115w214" />
<path d="M395.01 722.73l48.1 0l0 14.52l-48.1 0Z" id="p115w215" />
<path d="M68.27 39.02l42.71 0l0 15.38l-42.71 0Z" id="p115w216" />
<path d="M152.25 39.02l43.21 0l0 15.38l-43.21 0Z" id="p115w217" />
<path d="M251.4 38.6l45.06 0l0 16.09l-45.06 0Z" id="p115w218" />
<path d="M349.96 39.02l32.54 0l0 15.38l-32.54 0Z" id="p115w219" />
<path d="M640.98 983l50.12 0l0 12.23l-50.12 0Z" id="p115w220" />
<path d="M537.9 109.24l12.89 0l0 17.72l-12.89 0Z" id="p115w221" />
<path d="M597.09 114.42l19.03 0l0 18.25l-19.03 0Z" id="p115w222" />
<path d="M659.54 119.89l18.63 0l0 18.22l-18.63 0Z" id="p115w223" />
</svg>
