<?xml version="1.0" encoding="UTF-8"?>
<svg xmlns="http://www.w3.org/2000/svg" xmlns:xlink="http://www.w3.org/1999/xlink" version="1.1" baseProfile="full" width="768" height="1024" viewBox="0,0,768,1024" preserveAspectRatio="xMinYMin meet" >
<style type="text/css">
<![CDATA[
path {fill-opacity: 0.5;fill: #00aeef;visibility: hidden;}
]]>
</style>
<path d="M585.56 983.66l105.54 0l0 12.23l-105.54 0Z" id="p241w1" />
<path d="M562.12 38.6l81.82 0l0 16.09l-81.82 0Z" id="p241w2" />
<path d="M59.08 112.51l11.94 0l0 12.23l-11.94 0Z" id="p241w3" />
<path d="M73.72 112.45l51.5 0l0 12.29l-51.5 0Z" id="p241w4" />
<path d="M125.21 112.51l21.73 0l0 12.23l-21.73 0Z" id="p241w5" />
<path d="M149.64 112.45l57.12 0l0 12.29l-57.12 0Z" id="p241w6" />
<path d="M72.08 126.69l106.93 0l0 13.77l-106.93 0Z" id="p241w7" />
<path d="M184.87 127.79l14.41 0l0 12.23l-14.41 0Z" id="p241w8" />
<path d="M68.92 143.08l76.19 0l0 12.23l-76.19 0Z" id="p241w9" />
<path d="M147.52 143.08l60.78 0l0 12.23l-60.78 0Z" id="p241w10" />
<path d="M211 142.83l15.54 0l0 12.56l-15.54 0Z" id="p241w11" />
<path d="M59.08 158.36l8.33 0l0 12.23l-8.33 0Z" id="p241w12" />
<path d="M70.1 158.3l60.16 0l0 12.29l-60.16 0Z" id="p241w13" />
<path d="M136.12 157.26l61.7 0l0 13.77l-61.7 0Z" id="p241w14" />
<path d="M203.67 158.36l14.41 0l0 12.23l-14.41 0Z" id="p241w15" />
<path d="M68.92 173.64l48.17 0l0 12.23l-48.17 0Z" id="p241w16" />
<path d="M119.8 173.4l19.58 0l0 12.56l-19.58 0Z" id="p241w17" />
<path d="M59.08 188.87l45.36 0l0 12.29l-45.36 0Z" id="p241w18" />
<path d="M115.46 188.93l11.04 0l0 12.23l-11.04 0Z" id="p241w19" />
<path d="M132.36 187.83l41.57 0l0 13.77l-41.57 0Z" id="p241w20" />
<path d="M179.79 188.93l11.7 0l0 12.23l-11.7 0Z" id="p241w21" />
<path d="M194.19 188.93l19.44 0l0 12.23l-19.44 0Z" id="p241w22" />
<path d="M68.92 204.21l53.56 0l0 12.23l-53.56 0Z" id="p241w23" />
<path d="M125.19 203.96l18.17 0l0 12.56l-18.17 0Z" id="p241w24" />
<path d="M59.08 219.49l17.56 0l0 12.23l-17.56 0Z" id="p241w25" />
<path d="M79.34 219.44l27.98 0l0 12.29l-27.98 0Z" id="p241w26" />
<path d="M113.17 218.39l34.45 0l0 13.77l-34.45 0Z" id="p241w27" />
<path d="M153.48 219.49l20.03 0l0 12.23l-20.03 0Z" id="p241w28" />
<path d="M176.21 219.49l29.9 0l0 12.23l-29.9 0Z" id="p241w29" />
<path d="M208.81 219.49l14.41 0l0 12.23l-14.41 0Z" id="p241w30" />
<path d="M68.92 234.78l25.41 0l0 12.23l-25.41 0Z" id="p241w31" />
<path d="M97.04 234.78l14.41 0l0 12.23l-14.41 0Z" id="p241w32" />
<path d="M113.84 234.78l15.54 0l0 12.23l-15.54 0Z" id="p241w33" />
<path d="M132.08 234.53l15.54 0l0 12.56l-15.54 0Z" id="p241w34" />
<path d="M68.92 250.06l21.37 0l0 12.23l-21.37 0Z" id="p241w35" />
<path d="M93 250.06l27.68 0l0 12.23l-27.68 0Z" id="p241w36" />
<path d="M123.38 250.06l11.7 0l0 12.23l-11.7 0Z" id="p241w37" />
<path d="M137.78 250.06l11.04 0l0 12.23l-11.04 0Z" id="p241w38" />
<path d="M154.68 248.96l36.5 0l0 13.77l-36.5 0Z" id="p241w39" />
<path d="M197.04 250.06l14.41 0l0 12.23l-14.41 0Z" id="p241w40" />
<path d="M213.85 250.06l15.54 0l0 12.23l-15.54 0Z" id="p241w41" />
<path d="M68.92 265.34l19.13 0l0 12.23l-19.13 0Z" id="p241w42" />
<path d="M90.76 265.34l19.56 0l0 12.23l-19.56 0Z" id="p241w43" />
<path d="M113.02 265.34l39.11 0l0 12.23l-39.11 0Z" id="p241w44" />
<path d="M154.83 265.34l10.82 0l0 12.23l-10.82 0Z" id="p241w45" />
<path d="M168.35 265.1l18.17 0l0 12.56l-18.17 0Z" id="p241w46" />
<path d="M59.08 280.57l26.25 0l0 12.29l-26.25 0Z" id="p241w47" />
<path d="M91.19 279.53l28.41 0l0 13.77l-28.41 0Z" id="p241w48" />
<path d="M125.46 280.63l55.8 0l0 12.23l-55.8 0Z" id="p241w49" />
<path d="M183.96 280.63l49.41 0l0 12.23l-49.41 0Z" id="p241w50" />
<path d="M68.92 295.66l15.54 0l0 12.56l-15.54 0Z" id="p241w51" />
<path d="M68.92 311.19l25.88 0l0 12.23l-25.88 0Z" id="p241w52" />
<path d="M105.83 311.19l8.33 0l0 12.23l-8.33 0Z" id="p241w53" />
<path d="M116.85 311.19l44.35 0l0 12.23l-44.35 0Z" id="p241w54" />
<path d="M163.9 311.19l11.7 0l0 12.23l-11.7 0Z" id="p241w55" />
<path d="M178.31 311.19l12.16 0l0 12.23l-12.16 0Z" id="p241w56" />
<path d="M72.08 325.38l75.67 0l0 13.77l-75.67 0Z" id="p241w57" />
<path d="M153.61 326.48l15.54 0l0 12.23l-15.54 0Z" id="p241w58" />
<path d="M171.49 326.48l51.23 0l0 12.23l-51.23 0Z" id="p241w59" />
<path d="M68.92 341.76l53.8 0l0 12.23l-53.8 0Z" id="p241w60" />
<path d="M125.42 341.52l15.54 0l0 12.56l-15.54 0Z" id="p241w61" />
<path d="M59.08 356.99l35.3 0l0 12.29l-35.3 0Z" id="p241w62" />
<path d="M100.24 355.94l26.08 0l0 13.77l-26.08 0Z" id="p241w63" />
<path d="M132.17 357.04l32.19 0l0 12.23l-32.19 0Z" id="p241w64" />
<path d="M167.06 356.8l19.58 0l0 12.56l-19.58 0Z" id="p241w65" />
<path d="M59.08 372.33l11.94 0l0 12.23l-11.94 0Z" id="p241w66" />
<path d="M73.72 372.27l16.53 0l0 12.29l-16.53 0Z" id="p241w67" />
<path d="M96.1 371.23l15.92 0l0 13.77l-15.92 0Z" id="p241w68" />
<path d="M117.88 372.33l14.41 0l0 12.23l-14.41 0Z" id="p241w69" />
<path d="M134.98 372.33l31.07 0l0 12.23l-31.07 0Z" id="p241w70" />
<path d="M168.75 372.08l18.92 0l0 12.56l-18.92 0Z" id="p241w71" />
<path d="M68.92 387.61l14.41 0l0 12.23l-14.41 0Z" id="p241w72" />
<path d="M86.03 387.61l13.05 0l0 12.23l-13.05 0Z" id="p241w73" />
<path d="M101.78 387.61l16.43 0l0 12.23l-16.43 0Z" id="p241w74" />
<path d="M120.91 387.61l11.7 0l0 12.23l-11.7 0Z" id="p241w75" />
<path d="M138.47 386.51l44.91 0l0 13.77l-44.91 0Z" id="p241w76" />
<path d="M189.24 387.61l15.08 0l0 12.23l-15.08 0Z" id="p241w77" />
<path d="M207.02 387.61l17.78 0l0 12.23l-17.78 0Z" id="p241w78" />
<path d="M68.92 402.89l33.32 0l0 12.23l-33.32 0Z" id="p241w79" />
<path d="M104.95 402.89l17.12 0l0 12.23l-17.12 0Z" id="p241w80" />
<path d="M124.77 402.65l18.92 0l0 12.56l-18.92 0Z" id="p241w81" />
<path d="M59.08 418.12l16.51 0l0 12.29l-16.51 0Z" id="p241w82" />
<path d="M78.28 418.18l17.55 0l0 12.23l-17.55 0Z" id="p241w83" />
<path d="M107.55 417.08l28.73 0l0 13.77l-28.73 0Z" id="p241w84" />
<path d="M142.14 418.18l24.76 0l0 12.23l-24.76 0Z" id="p241w85" />
<path d="M169.61 418.18l42.1 0l0 12.23l-42.1 0Z" id="p241w86" />
<path d="M214.41 417.93l15.54 0l0 12.56l-15.54 0Z" id="p241w87" />
<path d="M59.08 433.46l11.94 0l0 12.23l-11.94 0Z" id="p241w88" />
<path d="M73.72 433.4l38.5 0l0 12.29l-38.5 0Z" id="p241w89" />
<path d="M118.08 432.36l29.94 0l0 13.77l-29.94 0Z" id="p241w90" />
<path d="M153.88 433.46l14.41 0l0 12.23l-14.41 0Z" id="p241w91" />
<path d="M170.98 433.46l51.45 0l0 12.23l-51.45 0Z" id="p241w92" />
<path d="M68.92 448.5l18.72 0l0 12.56l-18.72 0Z" id="p241w93" />
<path d="M59.08 464.03l17.56 0l0 12.23l-17.56 0Z" id="p241w94" />
<path d="M79.34 463.97l26.99 0l0 12.29l-26.99 0Z" id="p241w95" />
<path d="M112.19 462.93l26.71 0l0 13.77l-26.71 0Z" id="p241w96" />
<path d="M144.75 464.03l14.41 0l0 12.23l-14.41 0Z" id="p241w97" />
<path d="M161.86 464.03l20.93 0l0 12.23l-20.93 0Z" id="p241w98" />
<path d="M185.49 464l26.79 0l0 12.23l-26.79 0Z" id="p241w99" />
<path d="M68.92 479.29l28.69 0l0 12.23l-28.69 0Z" id="p241w100" />
<path d="M100.31 479.07l15.54 0l0 12.56l-15.54 0Z" id="p241w101" />
<path d="M59.08 494.54l30.89 0l0 12.29l-30.89 0Z" id="p241w102" />
<path d="M92.67 494.59l11.04 0l0 12.23l-11.04 0Z" id="p241w103" />
<path d="M109.56 493.49l20.5 0l0 13.77l-20.5 0Z" id="p241w104" />
<path d="M135.92 494.59l19.44 0l0 12.23l-19.44 0Z" id="p241w105" />
<path d="M158.06 494.59l51.04 0l0 12.23l-51.04 0Z" id="p241w106" />
<path d="M211.8 494.35l15.54 0l0 12.56l-15.54 0Z" id="p241w107" />
<path d="M68.92 509.88l10.35 0l0 12.23l-10.35 0Z" id="p241w108" />
<path d="M81.97 509.88l30.6 0l0 12.23l-30.6 0Z" id="p241w109" />
<path d="M118.43 508.78l29.67 0l0 13.77l-29.67 0Z" id="p241w110" />
<path d="M153.96 509.88l53.26 0l0 12.23l-53.26 0Z" id="p241w111" />
<path d="M209.92 509.88l18.46 0l0 12.23l-18.46 0Z" id="p241w112" />
<path d="M68.92 525.16l47.68 0l0 12.23l-47.68 0Z" id="p241w113" />
<path d="M119.31 525.16l18.46 0l0 12.23l-18.46 0Z" id="p241w114" />
<path d="M140.47 525.16l41.58 0l0 12.23l-41.58 0Z" id="p241w115" />
<path d="M184.76 524.92l15.54 0l0 12.56l-15.54 0Z" id="p241w116" />
<path d="M68.92 540.44l10.35 0l0 12.23l-10.35 0Z" id="p241w117" />
<path d="M81.97 540.44l30.6 0l0 12.23l-30.6 0Z" id="p241w118" />
<path d="M115.28 540.44l11.7 0l0 12.23l-11.7 0Z" id="p241w119" />
<path d="M129.68 540.44l11.04 0l0 12.23l-11.04 0Z" id="p241w120" />
<path d="M146.58 539.34l29.67 0l0 13.77l-29.67 0Z" id="p241w121" />
<path d="M182.1 540.44l15.08 0l0 12.23l-15.08 0Z" id="p241w122" />
<path d="M199.88 540.44l19.44 0l0 12.23l-19.44 0Z" id="p241w123" />
<path d="M68.92 555.73l48.63 0l0 12.23l-48.63 0Z" id="p241w124" />
<path d="M120.26 555.48l18.01 0l0 12.56l-18.01 0Z" id="p241w125" />
<path d="M68.92 571.01l20.49 0l0 12.23l-20.49 0Z" id="p241w126" />
<path d="M92.11 571.01l10.35 0l0 12.23l-10.35 0Z" id="p241w127" />
<path d="M105.16 571.01l30.6 0l0 12.23l-30.6 0Z" id="p241w128" />
<path d="M141.62 569.91l42.64 0l0 13.77l-42.64 0Z" id="p241w129" />
<path d="M190.11 571.01l15.71 0l0 12.23l-15.71 0Z" id="p241w130" />
<path d="M208.52 571.01l29.43 0l0 12.23l-29.43 0Z" id="p241w131" />
<path d="M68.92 586.05l18.92 0l0 12.56l-18.92 0Z" id="p241w132" />
<path d="M68.92 601.58l30.6 0l0 12.23l-30.6 0Z" id="p241w133" />
<path d="M102.23 601.58l8.33 0l0 12.23l-8.33 0Z" id="p241w134" />
<path d="M113.25 601.58l21.84 0l0 12.23l-21.84 0Z" id="p241w135" />
<path d="M140.95 600.48l39.55 0l0 13.77l-39.55 0Z" id="p241w136" />
<path d="M186.36 601.58l17.78 0l0 12.23l-17.78 0Z" id="p241w137" />
<path d="M68.92 616.86l53.75 0l0 12.23l-53.75 0Z" id="p241w138" />
<path d="M125.38 616.86l51.04 0l0 12.23l-51.04 0Z" id="p241w139" />
<path d="M179.12 616.62l15.54 0l0 12.56l-15.54 0Z" id="p241w140" />
<path d="M59.08 632.09l30.89 0l0 12.29l-30.89 0Z" id="p241w141" />
<path d="M92.67 632.14l11.04 0l0 12.23l-11.04 0Z" id="p241w142" />
<path d="M114.73 632.14l12.16 0l0 12.23l-12.16 0Z" id="p241w143" />
<path d="M132.75 631.04l20.5 0l0 13.77l-20.5 0Z" id="p241w144" />
<path d="M159.1 632.14l20.04 0l0 12.23l-20.04 0Z" id="p241w145" />
<path d="M181.84 632.14l19.44 0l0 12.23l-19.44 0Z" id="p241w146" />
<path d="M203.98 632.14l31.88 0l0 12.23l-31.88 0Z" id="p241w147" />
<path d="M68.92 647.43l20.04 0l0 12.23l-20.04 0Z" id="p241w148" />
<path d="M91.67 647.43l19.44 0l0 12.23l-19.44 0Z" id="p241w149" />
<path d="M113.81 647.43l34.89 0l0 12.23l-34.89 0Z" id="p241w150" />
<path d="M151.4 647.18l18.17 0l0 12.56l-18.17 0Z" id="p241w151" />
<path d="M59.08 662.71l17.56 0l0 12.23l-17.56 0Z" id="p241w152" />
<path d="M79.34 662.66l36.1 0l0 12.29l-36.1 0Z" id="p241w153" />
<path d="M121.3 661.61l34.56 0l0 13.77l-34.56 0Z" id="p241w154" />
<path d="M161.71 662.71l20.03 0l0 12.23l-20.03 0Z" id="p241w155" />
<path d="M68.92 677.99l60.1 0l0 12.23l-60.1 0Z" id="p241w156" />
<path d="M131.73 677.75l18.92 0l0 12.56l-18.92 0Z" id="p241w157" />
<path d="M59.08 693.22l57.84 0l0 12.29l-57.84 0Z" id="p241w158" />
<path d="M121.09 693.22l63.47 0l0 12.29l-63.47 0Z" id="p241w159" />
<path d="M190.41 692.18l37.99 0l0 13.77l-37.99 0Z" id="p241w160" />
<path d="M68.92 707.46l38.74 0l0 13.77l-38.74 0Z" id="p241w161" />
<path d="M113.52 708.56l41.6 0l0 12.23l-41.6 0Z" id="p241w162" />
<path d="M157.82 708.56l46.37 0l0 12.23l-46.37 0Z" id="p241w163" />
<path d="M206.9 708.32l18.17 0l0 12.56l-18.17 0Z" id="p241w164" />
<path d="M59.08 723.79l47.81 0l0 12.29l-47.81 0Z" id="p241w165" />
<path d="M111.05 723.79l53.43 0l0 12.29l-53.43 0Z" id="p241w166" />
<path d="M167.18 723.84l11.7 0l0 12.23l-11.7 0Z" id="p241w167" />
<path d="M184.75 722.74l37.27 0l0 13.77l-37.27 0Z" id="p241w168" />
<path d="M68.92 738.03l34.52 0l0 13.77l-34.52 0Z" id="p241w169" />
<path d="M109.31 739.13l47.87 0l0 12.23l-47.87 0Z" id="p241w170" />
<path d="M159.88 739.13l17.12 0l0 12.23l-17.12 0Z" id="p241w171" />
<path d="M179.7 738.88l18.92 0l0 12.56l-18.92 0Z" id="p241w172" />
<path d="M59.08 754.41l10.35 0l0 12.23l-10.35 0Z" id="p241w173" />
<path d="M72.13 754.36l51.71 0l0 12.29l-51.71 0Z" id="p241w174" />
<path d="M126.54 754.41l21.62 0l0 12.23l-21.62 0Z" id="p241w175" />
<path d="M150.86 754.41l11.04 0l0 12.23l-11.04 0Z" id="p241w176" />
<path d="M167.75 753.31l43.69 0l0 13.77l-43.69 0Z" id="p241w177" />
<path d="M217.3 754.41l18.46 0l0 12.23l-18.46 0Z" id="p241w178" />
<path d="M68.92 769.7l13.28 0l0 12.23l-13.28 0Z" id="p241w179" />
<path d="M84.91 769.7l19.44 0l0 12.23l-19.44 0Z" id="p241w180" />
<path d="M107.05 769.7l50.13 0l0 12.23l-50.13 0Z" id="p241w181" />
<path d="M159.88 769.45l18.01 0l0 12.56l-18.01 0Z" id="p241w182" />
<path d="M59.08 784.98l16.43 0l0 12.23l-16.43 0Z" id="p241w183" />
<path d="M78.21 784.92l26.1 0l0 12.29l-26.1 0Z" id="p241w184" />
<path d="M120.29 784.96l14.18 0l0 12.23l-14.18 0Z" id="p241w185" />
<path d="M140.33 783.88l25.54 0l0 13.77l-25.54 0Z" id="p241w186" />
<path d="M171.73 784.98l33.55 0l0 12.23l-33.55 0Z" id="p241w187" />
<path d="M207.98 784.73l15.54 0l0 12.56l-15.54 0Z" id="p241w188" />
<path d="M59.08 800.26l11.94 0l0 12.23l-11.94 0Z" id="p241w189" />
<path d="M73.72 800.21l34.1 0l0 12.29l-34.1 0Z" id="p241w190" />
<path d="M107.82 800.26l21.73 0l0 12.23l-21.73 0Z" id="p241w191" />
<path d="M132.25 800.21l39.73 0l0 12.29l-39.73 0Z" id="p241w192" />
<path d="M177.83 799.16l31.28 0l0 13.77l-31.28 0Z" id="p241w193" />
<path d="M68.92 814.45l38.77 0l0 13.77l-38.77 0Z" id="p241w194" />
<path d="M113.55 815.55l14.41 0l0 12.23l-14.41 0Z" id="p241w195" />
<path d="M130.66 815.55l57.73 0l0 12.23l-57.73 0Z" id="p241w196" />
<path d="M191.09 815.55l42.32 0l0 12.23l-42.32 0Z" id="p241w197" />
<path d="M68.92 830.58l18.92 0l0 12.56l-18.92 0Z" id="p241w198" />
<path d="M59.08 846.06l34.1 0l0 12.29l-34.1 0Z" id="p241w199" />
<path d="M97.35 846.06l39.73 0l0 12.29l-39.73 0Z" id="p241w200" />
<path d="M142.93 845.01l53.87 0l0 13.77l-53.87 0Z" id="p241w201" />
<path d="M68.92 861.4l40.87 0l0 12.23l-40.87 0Z" id="p241w202" />
<path d="M112.5 861.15l18.92 0l0 12.56l-18.92 0Z" id="p241w203" />
<path d="M59.08 876.68l36.84 0l0 12.23l-36.84 0Z" id="p241w204" />
<path d="M98.61 876.68l14.17 0l0 12.23l-14.17 0Z" id="p241w205" />
<path d="M115.49 876.62l38.05 0l0 12.29l-38.05 0Z" id="p241w206" />
<path d="M161.65 875.58l50.4 0l0 13.77l-50.4 0Z" id="p241w207" />
<path d="M217.9 876.68l10.58 0l0 12.23l-10.58 0Z" id="p241w208" />
<path d="M68.92 891.96l29.03 0l0 12.23l-29.03 0Z" id="p241w209" />
<path d="M100.66 891.96l34.89 0l0 12.23l-34.89 0Z" id="p241w210" />
<path d="M138.25 891.72l18.92 0l0 12.56l-18.92 0Z" id="p241w211" />
<path d="M59.08 907.19l26.29 0l0 12.29l-26.29 0Z" id="p241w212" />
<path d="M88.07 907.25l11.04 0l0 12.23l-11.04 0Z" id="p241w213" />
<path d="M104.96 906.15l19.13 0l0 13.77l-19.13 0Z" id="p241w214" />
<path d="M129.95 907.25l19.44 0l0 12.23l-19.44 0Z" id="p241w215" />
<path d="M152.09 907.25l42.77 0l0 12.23l-42.77 0Z" id="p241w216" />
<path d="M197.56 907l15.34 0l0 12.56l-15.34 0Z" id="p241w217" />
<path d="M59.08 922.53l11.94 0l0 12.23l-11.94 0Z" id="p241w218" />
<path d="M73.72 922.47l21.6 0l0 12.29l-21.6 0Z" id="p241w219" />
<path d="M101.17 921.43l18.75 0l0 13.77l-18.75 0Z" id="p241w220" />
<path d="M125.78 922.53l14.41 0l0 12.23l-14.41 0Z" id="p241w221" />
<path d="M142.89 922.53l22.96 0l0 12.23l-22.96 0Z" id="p241w222" />
<path d="M168.55 922.28l17.26 0l0 12.56l-17.26 0Z" id="p241w223" />
<path d="M260.6 112.51l11.94 0l0 12.23l-11.94 0Z" id="p241w224" />
<path d="M275.23 112.45l38.74 0l0 12.29l-38.74 0Z" id="p241w225" />
<path d="M319.83 111.41l33.51 0l0 13.77l-33.51 0Z" id="p241w226" />
<path d="M359.2 112.51l20.03 0l0 12.23l-20.03 0Z" id="p241w227" />
<path d="M381.93 112.51l51.77 0l0 12.23l-51.77 0Z" id="p241w228" />
<path d="M270.44 127.55l18.01 0l0 12.56l-18.01 0Z" id="p241w229" />
<path d="M260.6 143.08l10.35 0l0 12.23l-10.35 0Z" id="p241w230" />
<path d="M273.64 143.08l31.95 0l0 12.23l-31.95 0Z" id="p241w231" />
<path d="M308.29 143.08l22.51 0l0 12.23l-22.51 0Z" id="p241w232" />
<path d="M333.5 143.08l8.33 0l0 12.23l-8.33 0Z" id="p241w233" />
<path d="M344.53 143.02l23.29 0l0 12.29l-23.29 0Z" id="p241w234" />
<path d="M370.51 143.08l11.7 0l0 12.23l-11.7 0Z" id="p241w235" />
<path d="M384.92 143.08l12.16 0l0 12.23l-12.16 0Z" id="p241w236" />
<path d="M273.6 157.26l64.2 0l0 13.77l-64.2 0Z" id="p241w237" />
<path d="M343.66 158.36l8.78 0l0 12.23l-8.78 0Z" id="p241w238" />
<path d="M355.14 158.36l15.54 0l0 12.23l-15.54 0Z" id="p241w239" />
<path d="M373.38 158.36l22.51 0l0 12.23l-22.51 0Z" id="p241w240" />
<path d="M270.44 173.64l45.71 0l0 12.23l-45.71 0Z" id="p241w241" />
<path d="M318.85 173.4l18.92 0l0 12.56l-18.92 0Z" id="p241w242" />
<path d="M260.6 188.93l8.33 0l0 12.23l-8.33 0Z" id="p241w243" />
<path d="M271.62 188.87l28 0l0 12.29l-28 0Z" id="p241w244" />
<path d="M305.48 187.83l21.93 0l0 13.77l-21.93 0Z" id="p241w245" />
<path d="M333.27 188.93l16.43 0l0 12.23l-16.43 0Z" id="p241w246" />
<path d="M352.4 188.93l35.48 0l0 12.23l-35.48 0Z" id="p241w247" />
<path d="M390.58 188.93l14.41 0l0 12.23l-14.41 0Z" id="p241w248" />
<path d="M270.44 204.21l41.42 0l0 12.23l-41.42 0Z" id="p241w249" />
<path d="M314.56 203.96l14.63 0l0 12.56l-14.63 0Z" id="p241w250" />
<path d="M260.6 219.44l31.9 0l0 12.29l-31.9 0Z" id="p241w251" />
<path d="M295.2 219.49l11.04 0l0 12.23l-11.04 0Z" id="p241w252" />
<path d="M312.09 218.39l19.15 0l0 13.77l-19.15 0Z" id="p241w253" />
<path d="M337.1 219.49l19.44 0l0 12.23l-19.44 0Z" id="p241w254" />
<path d="M359.24 219.49l32.13 0l0 12.23l-32.13 0Z" id="p241w255" />
<path d="M394.08 219.25l18.01 0l0 12.56l-18.01 0Z" id="p241w256" />
<path d="M260.6 234.72l39.48 0l0 12.29l-39.48 0Z" id="p241w257" />
<path d="M305.93 233.68l23.74 0l0 13.77l-23.74 0Z" id="p241w258" />
<path d="M335.53 234.78l41.56 0l0 12.23l-41.56 0Z" id="p241w259" />
<path d="M379.8 234.75l30.86 0l0 12.23l-30.86 0Z" id="p241w260" />
<path d="M413.35 234.53l15.54 0l0 12.56l-15.54 0Z" id="p241w261" />
<path d="M270.44 250.06l39.39 0l0 12.23l-39.39 0Z" id="p241w262" />
<path d="M312.54 250.06l17.56 0l0 12.23l-17.56 0Z" id="p241w263" />
<path d="M335.96 248.96l34.45 0l0 13.77l-34.45 0Z" id="p241w264" />
<path d="M376.26 250.06l41.56 0l0 12.23l-41.56 0Z" id="p241w265" />
<path d="M270.44 265.32l29.27 0l0 12.23l-29.27 0Z" id="p241w266" />
<path d="M302.41 265.1l15.34 0l0 12.56l-15.34 0Z" id="p241w267" />
<path d="M260.6 280.57l32.12 0l0 12.29l-32.12 0Z" id="p241w268" />
<path d="M303.74 280.63l27.37 0l0 12.23l-27.37 0Z" id="p241w269" />
<path d="M336.97 279.53l21.15 0l0 13.77l-21.15 0Z" id="p241w270" />
<path d="M363.98 280.63l11.7 0l0 12.23l-11.7 0Z" id="p241w271" />
<path d="M378.38 280.63l40.5 0l0 12.23l-40.5 0Z" id="p241w272" />
<path d="M270.44 295.91l34.67 0l0 12.23l-34.67 0Z" id="p241w273" />
<path d="M307.81 295.66l15.54 0l0 12.56l-15.54 0Z" id="p241w274" />
<path d="M260.6 311.19l10.35 0l0 12.23l-10.35 0Z" id="p241w275" />
<path d="M273.64 311.14l31.01 0l0 12.29l-31.01 0Z" id="p241w276" />
<path d="M307.36 311.19l11.7 0l0 12.23l-11.7 0Z" id="p241w277" />
<path d="M321.76 311.19l16.66 0l0 12.23l-16.66 0Z" id="p241w278" />
<path d="M344.28 310.09l57.98 0l0 13.77l-57.98 0Z" id="p241w279" />
<path d="M408.12 311.19l18.46 0l0 12.23l-18.46 0Z" id="p241w280" />
<path d="M270.44 326.48l16.21 0l0 12.23l-16.21 0Z" id="p241w281" />
<path d="M289.35 326.48l17.78 0l0 12.23l-17.78 0Z" id="p241w282" />
<path d="M309.84 326.48l30.11 0l0 12.23l-30.11 0Z" id="p241w283" />
<path d="M342.65 326.48l41.18 0l0 12.23l-41.18 0Z" id="p241w284" />
<path d="M386.53 326.23l18.17 0l0 12.56l-18.17 0Z" id="p241w285" />
<path d="M260.6 341.7l27.53 0l0 12.29l-27.53 0Z" id="p241w286" />
<path d="M292.3 341.7l33.16 0l0 12.29l-33.16 0Z" id="p241w287" />
<path d="M331.31 340.66l27.01 0l0 13.77l-27.01 0Z" id="p241w288" />
<path d="M364.18 341.76l38.71 0l0 12.23l-38.71 0Z" id="p241w289" />
<path d="M405.59 341.52l15.54 0l0 12.56l-15.54 0Z" id="p241w290" />
<path d="M260.6 357.04l11.94 0l0 12.23l-11.94 0Z" id="p241w291" />
<path d="M275.23 356.99l21.13 0l0 12.29l-21.13 0Z" id="p241w292" />
<path d="M302.22 355.94l20.75 0l0 13.77l-20.75 0Z" id="p241w293" />
<path d="M328.83 357.04l14.41 0l0 12.23l-14.41 0Z" id="p241w294" />
<path d="M345.57 357.04l24.53 0l0 12.23l-24.53 0Z" id="p241w295" />
<path d="M372.8 356.8l14.79 0l0 12.56l-14.79 0Z" id="p241w296" />
<path d="M260.6 372.33l8.33 0l0 12.23l-8.33 0Z" id="p241w297" />
<path d="M271.62 372.27l58.5 0l0 12.29l-58.5 0Z" id="p241w298" />
<path d="M335.98 371.23l54.95 0l0 13.77l-54.95 0Z" id="p241w299" />
<path d="M396.79 372.3l19.36 0l0 12.23l-19.36 0Z" id="p241w300" />
<path d="M270.44 387.59l51.09 0l0 12.23l-51.09 0Z" id="p241w301" />
<path d="M324.09 387.59l8.56 0l0 12.23l-8.56 0Z" id="p241w302" />
<path d="M335.35 387.59l15.31 0l0 12.23l-15.31 0Z" id="p241w303" />
<path d="M353.35 387.59l13.96 0l0 12.23l-13.96 0Z" id="p241w304" />
<path d="M370.01 387.59l34.09 0l0 12.23l-34.09 0Z" id="p241w305" />
<path d="M270.44 402.87l60.78 0l0 12.23l-60.78 0Z" id="p241w306" />
<path d="M333.92 402.87l34.6 0l0 12.23l-34.6 0Z" id="p241w307" />
<path d="M371.22 402.65l14.63 0l0 12.56l-14.63 0Z" id="p241w308" />
<path d="M270.44 418.18l18.9 0l0 12.23l-18.9 0Z" id="p241w309" />
<path d="M292.04 418.18l11.7 0l0 12.23l-11.7 0Z" id="p241w310" />
<path d="M306.45 418.18l58.74 0l0 12.23l-58.74 0Z" id="p241w311" />
<path d="M371.05 417.08l66.34 0l0 13.77l-66.34 0Z" id="p241w312" />
<path d="M270.44 433.46l20.03 0l0 12.23l-20.03 0Z" id="p241w313" />
<path d="M293.17 433.46l49.52 0l0 12.23l-49.52 0Z" id="p241w314" />
<path d="M345.39 433.46l29.49 0l0 12.23l-29.49 0Z" id="p241w315" />
<path d="M377.58 433.22l14.63 0l0 12.56l-14.63 0Z" id="p241w316" />
<path d="M260.6 448.69l47.73 0l0 12.29l-47.73 0Z" id="p241w317" />
<path d="M319.35 448.74l12.16 0l0 12.23l-12.16 0Z" id="p241w318" />
<path d="M334.21 448.74l11.7 0l0 12.23l-11.7 0Z" id="p241w319" />
<path d="M348.62 448.74l21.37 0l0 12.23l-21.37 0Z" id="p241w320" />
<path d="M372.69 448.74l11.04 0l0 12.23l-11.04 0Z" id="p241w321" />
<path d="M389.59 447.64l38.99 0l0 13.77l-38.99 0Z" id="p241w322" />
<path d="M270.44 464.03l20.04 0l0 12.23l-20.04 0Z" id="p241w323" />
<path d="M293.19 464.03l43.67 0l0 12.23l-43.67 0Z" id="p241w324" />
<path d="M339.56 464.03l19.44 0l0 12.23l-19.44 0Z" id="p241w325" />
<path d="M361.7 464.03l10.82 0l0 12.23l-10.82 0Z" id="p241w326" />
<path d="M375.21 464.03l18.21 0l0 12.23l-18.21 0Z" id="p241w327" />
<path d="M396.12 464.03l20.04 0l0 12.23l-20.04 0Z" id="p241w328" />
<path d="M418.86 464.03l19.44 0l0 12.23l-19.44 0Z" id="p241w329" />
<path d="M270.44 479.31l58.7 0l0 12.23l-58.7 0Z" id="p241w330" />
<path d="M331.84 479.07l18.92 0l0 12.56l-18.92 0Z" id="p241w331" />
<path d="M260.6 494.59l11.94 0l0 12.23l-11.94 0Z" id="p241w332" />
<path d="M275.23 494.54l55.56 0l0 12.29l-55.56 0Z" id="p241w333" />
<path d="M336.66 493.49l45.98 0l0 13.77l-45.98 0Z" id="p241w334" />
<path d="M388.5 494.59l20.03 0l0 12.23l-20.03 0Z" id="p241w335" />
<path d="M411.23 494.59l25.66 0l0 12.23l-25.66 0Z" id="p241w336" />
<path d="M270.44 509.88l20.03 0l0 12.23l-20.03 0Z" id="p241w337" />
<path d="M293.17 509.88l31.97 0l0 12.23l-31.97 0Z" id="p241w338" />
<path d="M327.84 509.85l44.72 0l0 12.23l-44.72 0Z" id="p241w339" />
<path d="M375.12 509.85l21.61 0l0 12.23l-21.61 0Z" id="p241w340" />
<path d="M398.98 509.85l39.09 0l0 12.23l-39.09 0Z" id="p241w341" />
<path d="M270.44 524.92l18.92 0l0 12.56l-18.92 0Z" id="p241w342" />
<path d="M260.6 540.44l17.56 0l0 12.23l-17.56 0Z" id="p241w343" />
<path d="M280.86 540.39l44.05 0l0 12.29l-44.05 0Z" id="p241w344" />
<path d="M330.77 539.34l42.97 0l0 13.77l-42.97 0Z" id="p241w345" />
<path d="M379.6 540.44l20.03 0l0 12.23l-20.03 0Z" id="p241w346" />
<path d="M402.33 540.44l31.97 0l0 12.23l-31.97 0Z" id="p241w347" />
<path d="M270.44 555.48l15.54 0l0 12.56l-15.54 0Z" id="p241w348" />
<path d="M270.44 571.01l16.43 0l0 12.23l-16.43 0Z" id="p241w349" />
<path d="M289.57 571.01l48.62 0l0 12.23l-48.62 0Z" id="p241w350" />
<path d="M355.9 571.01l27.62 0l0 12.23l-27.62 0Z" id="p241w351" />
<path d="M273.6 585.19l51.4 0l0 13.77l-51.4 0Z" id="p241w352" />
<path d="M330.85 586.29l27.22 0l0 12.23l-27.22 0Z" id="p241w353" />
<path d="M360.77 586.29l50.84 0l0 12.23l-50.84 0Z" id="p241w354" />
<path d="M270.44 601.58l41.65 0l0 12.23l-41.65 0Z" id="p241w355" />
<path d="M314.79 601.33l18.72 0l0 12.56l-18.72 0Z" id="p241w356" />
<path d="M260.59 616.81l44.05 0l0 12.29l-44.05 0Z" id="p241w357" />
<path d="M307.34 616.86l11.7 0l0 12.23l-11.7 0Z" id="p241w358" />
<path d="M324.9 615.76l42.83 0l0 13.77l-42.83 0Z" id="p241w359" />
<path d="M373.59 616.86l41.42 0l0 12.23l-41.42 0Z" id="p241w360" />
<path d="M270.44 632.12l41.75 0l0 12.23l-41.75 0Z" id="p241w361" />
<path d="M314.89 631.9l18.92 0l0 12.56l-18.92 0Z" id="p241w362" />
<path d="M260.59 647.37l22.39 0l0 12.29l-22.39 0Z" id="p241w363" />
<path d="M287.15 647.37l28.01 0l0 12.29l-28.01 0Z" id="p241w364" />
<path d="M321.01 646.33l57.45 0l0 13.77l-57.45 0Z" id="p241w365" />
<path d="M384.33 647.43l22.29 0l0 12.23l-22.29 0Z" id="p241w366" />
<path d="M409.31 647.18l15.54 0l0 12.56l-15.54 0Z" id="p241w367" />
<path d="M260.59 662.71l8.33 0l0 12.23l-8.33 0Z" id="p241w368" />
<path d="M271.62 662.66l67.27 0l0 12.29l-67.27 0Z" id="p241w369" />
<path d="M344.75 661.61l70.2 0l0 13.77l-70.2 0Z" id="p241w370" />
<path d="M420.81 662.71l16.43 0l0 12.23l-16.43 0Z" id="p241w371" />
<path d="M270.44 677.99l45.48 0l0 12.23l-45.48 0Z" id="p241w372" />
<path d="M318.62 677.75l15.54 0l0 12.56l-15.54 0Z" id="p241w373" />
<path d="M270.44 693.28l37.14 0l0 12.23l-37.14 0Z" id="p241w374" />
<path d="M310.28 693.28l8.33 0l0 12.23l-8.33 0Z" id="p241w375" />
<path d="M321.3 693.28l66.32 0l0 12.23l-66.32 0Z" id="p241w376" />
<path d="M273.6 707.46l98.84 0l0 13.77l-98.84 0Z" id="p241w377" />
<path d="M378.29 708.56l55.61 0l0 12.23l-55.61 0Z" id="p241w378" />
<path d="M270.44 723.6l15.54 0l0 12.56l-15.54 0Z" id="p241w379" />
<path d="M260.59 739.13l17.56 0l0 12.23l-17.56 0Z" id="p241w380" />
<path d="M280.86 739.07l37.12 0l0 12.29l-37.12 0Z" id="p241w381" />
<path d="M323.84 738.03l40.93 0l0 13.77l-40.93 0Z" id="p241w382" />
<path d="M370.62 739.13l20.03 0l0 12.23l-20.03 0Z" id="p241w383" />
<path d="M393.35 739.13l36.47 0l0 12.23l-36.47 0Z" id="p241w384" />
<path d="M270.44 754.17l18.01 0l0 12.56l-18.01 0Z" id="p241w385" />
<path d="M260.59 769.7l11.94 0l0 12.23l-11.94 0Z" id="p241w386" />
<path d="M275.23 769.64l17.65 0l0 12.29l-17.65 0Z" id="p241w387" />
<path d="M295.58 769.7l11.7 0l0 12.23l-11.7 0Z" id="p241w388" />
<path d="M313.14 768.59l27.88 0l0 13.77l-27.88 0Z" id="p241w389" />
<path d="M346.88 769.7l14.41 0l0 12.23l-14.41 0Z" id="p241w390" />
<path d="M363.98 769.7l43.42 0l0 12.23l-43.42 0Z" id="p241w391" />
<path d="M410.1 769.7l14.41 0l0 12.23l-14.41 0Z" id="p241w392" />
<path d="M270.44 784.98l28.76 0l0 12.23l-28.76 0Z" id="p241w393" />
<path d="M301.9 784.73l15.54 0l0 12.56l-15.54 0Z" id="p241w394" />
<path d="M260.59 800.26l11.94 0l0 12.23l-11.94 0Z" id="p241w395" />
<path d="M275.23 800.21l32.15 0l0 12.29l-32.15 0Z" id="p241w396" />
<path d="M313.23 799.16l28.88 0l0 13.77l-28.88 0Z" id="p241w397" />
<path d="M347.97 800.26l14.41 0l0 12.23l-14.41 0Z" id="p241w398" />
<path d="M364.71 800.26l19.37 0l0 12.23l-19.37 0Z" id="p241w399" />
<path d="M386.78 800.02l18.92 0l0 12.56l-18.92 0Z" id="p241w400" />
<path d="M270.44 815.55l11.94 0l0 12.23l-11.94 0Z" id="p241w401" />
<path d="M285.08 815.55l31.97 0l0 12.23l-31.97 0Z" id="p241w402" />
<path d="M319.75 815.55l53.59 0l0 12.23l-53.59 0Z" id="p241w403" />
<path d="M273.6 829.73l64.99 0l0 13.77l-64.99 0Z" id="p241w404" />
<path d="M344.45 830.83l61 0l0 12.23l-61 0Z" id="p241w405" />
<path d="M408.15 830.58l18.92 0l0 12.56l-18.92 0Z" id="p241w406" />
<path d="M260.59 846.11l23.19 0l0 12.23l-23.19 0Z" id="p241w407" />
<path d="M286.48 846.06l21.55 0l0 12.29l-21.55 0Z" id="p241w408" />
<path d="M313.89 845.01l48.78 0l0 13.77l-48.78 0Z" id="p241w409" />
<path d="M368.53 846.11l27.18 0l0 12.23l-27.18 0Z" id="p241w410" />
<path d="M398.41 846.11l29.49 0l0 12.23l-29.49 0Z" id="p241w411" />
<path d="M270.44 861.15l15.54 0l0 12.56l-15.54 0Z" id="p241w412" />
<path d="M260.59 876.68l23.19 0l0 12.23l-23.19 0Z" id="p241w413" />
<path d="M286.48 876.62l21.55 0l0 12.29l-21.55 0Z" id="p241w414" />
<path d="M310.73 876.68l11.7 0l0 12.23l-11.7 0Z" id="p241w415" />
<path d="M325.14 876.68l21.37 0l0 12.23l-21.37 0Z" id="p241w416" />
<path d="M349.21 876.68l11.04 0l0 12.23l-11.04 0Z" id="p241w417" />
<path d="M366.11 875.58l48.78 0l0 13.77l-48.78 0Z" id="p241w418" />
<path d="M270.44 891.96l27.18 0l0 12.23l-27.18 0Z" id="p241w419" />
<path d="M300.32 891.96l29.49 0l0 12.23l-29.49 0Z" id="p241w420" />
<path d="M332.51 891.96l19.44 0l0 12.23l-19.44 0Z" id="p241w421" />
<path d="M354.65 891.96l10.82 0l0 12.23l-10.82 0Z" id="p241w422" />
<path d="M368.16 891.96l15.76 0l0 12.23l-15.76 0Z" id="p241w423" />
<path d="M386.63 891.72l18.92 0l0 12.56l-18.92 0Z" id="p241w424" />
<path d="M260.59 907.19l43.81 0l0 12.29l-43.81 0Z" id="p241w425" />
<path d="M310.25 906.15l29.11 0l0 13.77l-29.11 0Z" id="p241w426" />
<path d="M345.22 907.25l42.09 0l0 12.23l-42.09 0Z" id="p241w427" />
<path d="M390.02 907l15.54 0l0 12.56l-15.54 0Z" id="p241w428" />
<path d="M260.59 922.53l11.94 0l0 12.23l-11.94 0Z" id="p241w429" />
<path d="M275.23 922.47l27.22 0l0 12.29l-27.22 0Z" id="p241w430" />
<path d="M308.31 921.43l18.71 0l0 13.77l-18.71 0Z" id="p241w431" />
<path d="M332.87 922.53l14.41 0l0 12.23l-14.41 0Z" id="p241w432" />
<path d="M349.98 922.53l54.25 0l0 12.23l-54.25 0Z" id="p241w433" />
<path d="M406.94 922.28l14.63 0l0 12.56l-14.63 0Z" id="p241w434" />
<path d="M462.11 112.51l17.56 0l0 12.23l-17.56 0Z" id="p241w435" />
<path d="M482.37 112.45l27.78 0l0 12.29l-27.78 0Z" id="p241w436" />
<path d="M516.01 111.41l29.28 0l0 13.77l-29.28 0Z" id="p241w437" />
<path d="M551.14 112.51l14.41 0l0 12.23l-14.41 0Z" id="p241w438" />
<path d="M568.25 112.51l20.72 0l0 12.23l-20.72 0Z" id="p241w439" />
<path d="M591.67 112.26l15.54 0l0 12.56l-15.54 0Z" id="p241w440" />
<path d="M462.11 127.79l8.33 0l0 12.23l-8.33 0Z" id="p241w441" />
<path d="M473.14 127.74l27.78 0l0 12.29l-27.78 0Z" id="p241w442" />
<path d="M506.77 126.69l26.02 0l0 13.77l-26.02 0Z" id="p241w443" />
<path d="M538.65 127.79l14.41 0l0 12.23l-14.41 0Z" id="p241w444" />
<path d="M555.76 127.79l42.27 0l0 12.23l-42.27 0Z" id="p241w445" />
<path d="M606.35 127.77l16.66 0l0 12.23l-16.66 0Z" id="p241w446" />
<path d="M471.96 143.05l33.1 0l0 12.23l-33.1 0Z" id="p241w447" />
<path d="M507.76 142.83l14.63 0l0 12.56l-14.63 0Z" id="p241w448" />
<path d="M462.11 158.36l11.94 0l0 12.23l-11.94 0Z" id="p241w449" />
<path d="M476.75 158.3l60.96 0l0 12.29l-60.96 0Z" id="p241w450" />
<path d="M537.71 158.36l21.73 0l0 12.23l-21.73 0Z" id="p241w451" />
<path d="M562.14 158.3l60.96 0l0 12.29l-60.96 0Z" id="p241w452" />
<path d="M475.12 172.54l92.79 0l0 13.77l-92.79 0Z" id="p241w453" />
<path d="M573.76 173.64l14.41 0l0 12.23l-14.41 0Z" id="p241w454" />
<path d="M590.87 173.64l43.74 0l0 12.23l-43.74 0Z" id="p241w455" />
<path d="M471.96 188.93l20.03 0l0 12.23l-20.03 0Z" id="p241w456" />
<path d="M494.69 188.93l42.27 0l0 12.23l-42.27 0Z" id="p241w457" />
<path d="M545.74 188.68l18.92 0l0 12.56l-18.92 0Z" id="p241w458" />
<path d="M462.11 204.21l17.56 0l0 12.23l-17.56 0Z" id="p241w459" />
<path d="M482.37 204.15l32.13 0l0 12.29l-32.13 0Z" id="p241w460" />
<path d="M520.37 203.11l30.46 0l0 13.77l-30.46 0Z" id="p241w461" />
<path d="M556.68 204.21l14.41 0l0 12.23l-14.41 0Z" id="p241w462" />
<path d="M573.79 204.21l20.26 0l0 12.23l-20.26 0Z" id="p241w463" />
<path d="M596.75 203.96l18.92 0l0 12.56l-18.92 0Z" id="p241w464" />
<path d="M462.11 219.49l17.56 0l0 12.23l-17.56 0Z" id="p241w465" />
<path d="M482.37 219.44l24.73 0l0 12.29l-24.73 0Z" id="p241w466" />
<path d="M512.96 218.39l28.73 0l0 13.77l-28.73 0Z" id="p241w467" />
<path d="M547.55 219.49l14.41 0l0 12.23l-14.41 0Z" id="p241w468" />
<path d="M564.66 219.49l36.22 0l0 12.23l-36.22 0Z" id="p241w469" />
<path d="M603.59 219.25l14.63 0l0 12.56l-14.63 0Z" id="p241w470" />
<path d="M470.44 234.72l20.55 0l0 12.29l-20.55 0Z" id="p241w471" />
<path d="M496.85 233.68l19.05 0l0 13.77l-19.05 0Z" id="p241w472" />
<path d="M521.75 234.78l10.82 0l0 12.23l-10.82 0Z" id="p241w473" />
<path d="M535.27 234.78l17.34 0l0 12.23l-17.34 0Z" id="p241w474" />
<path d="M555.31 234.53l15.54 0l0 12.56l-15.54 0Z" id="p241w475" />
<path d="M462.11 250.06l11.94 0l0 12.23l-11.94 0Z" id="p241w476" />
<path d="M476.75 250l27.1 0l0 12.29l-27.1 0Z" id="p241w477" />
<path d="M503.85 250.06l21.73 0l0 12.23l-21.73 0Z" id="p241w478" />
<path d="M528.28 250l27.1 0l0 12.29l-27.1 0Z" id="p241w479" />
<path d="M561.24 248.96l60.38 0l0 13.77l-60.38 0Z" id="p241w480" />
<path d="M627.47 250.06l14.41 0l0 12.23l-14.41 0Z" id="p241w481" />
<path d="M471.96 265.34l45.14 0l0 12.23l-45.14 0Z" id="p241w482" />
<path d="M519.8 265.34l29.72 0l0 12.23l-29.72 0Z" id="p241w483" />
<path d="M552.22 265.1l17.81 0l0 12.56l-17.81 0Z" id="p241w484" />
<path d="M462.11 280.63l8.33 0l0 12.23l-8.33 0Z" id="p241w485" />
<path d="M473.14 280.57l47.88 0l0 12.29l-47.88 0Z" id="p241w486" />
<path d="M526.88 279.53l39.86 0l0 13.77l-39.86 0Z" id="p241w487" />
<path d="M572.6 280.63l23.63 0l0 12.23l-23.63 0Z" id="p241w488" />
<path d="M471.96 295.91l52.67 0l0 12.23l-52.67 0Z" id="p241w489" />
<path d="M527.34 295.66l15.54 0l0 12.56l-15.54 0Z" id="p241w490" />
<path d="M462.11 311.19l11.94 0l0 12.23l-11.94 0Z" id="p241w491" />
<path d="M476.75 311.14l56.25 0l0 12.29l-56.25 0Z" id="p241w492" />
<path d="M538.86 310.09l34.15 0l0 13.77l-34.15 0Z" id="p241w493" />
<path d="M578.87 311.19l14.41 0l0 12.23l-14.41 0Z" id="p241w494" />
<path d="M595.97 311.19l37.61 0l0 12.23l-37.61 0Z" id="p241w495" />
<path d="M471.96 326.23l15.54 0l0 12.56l-15.54 0Z" id="p241w496" />
<path d="M462.11 341.76l11.94 0l0 12.23l-11.94 0Z" id="p241w497" />
<path d="M476.75 341.7l27.98 0l0 12.29l-27.98 0Z" id="p241w498" />
<path d="M510.58 340.66l27.76 0l0 13.77l-27.76 0Z" id="p241w499" />
<path d="M544.21 341.76l14.41 0l0 12.23l-14.41 0Z" id="p241w500" />
<path d="M561.31 341.76l21.61 0l0 12.23l-21.61 0Z" id="p241w501" />
<path d="M585.62 341.52l18.92 0l0 12.56l-18.92 0Z" id="p241w502" />
<path d="M462.11 357.04l20.82 0l0 12.23l-20.82 0Z" id="p241w503" />
<path d="M485.63 356.99l18.32 0l0 12.29l-18.32 0Z" id="p241w504" />
<path d="M514.75 357.02l48.18 0l0 12.23l-48.18 0Z" id="p241w505" />
<path d="M568.79 355.94l33.5 0l0 13.77l-33.5 0Z" id="p241w506" />
<path d="M608.15 357.04l19.7 0l0 12.23l-19.7 0Z" id="p241w507" />
<path d="M471.96 372.33l35 0l0 12.23l-35 0Z" id="p241w508" />
<path d="M509.66 372.33l53.79 0l0 12.23l-53.79 0Z" id="p241w509" />
<path d="M574.25 372.3l33.53 0l0 12.23l-33.53 0Z" id="p241w510" />
<path d="M610.49 372.08l22.96 0l0 12.56l-22.96 0Z" id="p241w511" />
<path d="M462.11 387.61l17.56 0l0 12.23l-17.56 0Z" id="p241w512" />
<path d="M482.37 387.55l32.83 0l0 12.29l-32.83 0Z" id="p241w513" />
<path d="M521.07 386.51l34.06 0l0 13.77l-34.06 0Z" id="p241w514" />
<path d="M560.98 387.61l14.41 0l0 12.23l-14.41 0Z" id="p241w515" />
<path d="M578.09 387.61l22.72 0l0 12.23l-22.72 0Z" id="p241w516" />
<path d="M603.51 387.61l14.41 0l0 12.23l-14.41 0Z" id="p241w517" />
<path d="M471.96 402.89l64.16 0l0 12.23l-64.16 0Z" id="p241w518" />
<path d="M538.82 402.65l14.63 0l0 12.56l-14.63 0Z" id="p241w519" />
<path d="M462.11 418.18l17.56 0l0 12.23l-17.56 0Z" id="p241w520" />
<path d="M482.37 418.12l23.28 0l0 12.29l-23.28 0Z" id="p241w521" />
<path d="M511.51 417.08l28.26 0l0 13.77l-28.26 0Z" id="p241w522" />
<path d="M545.63 418.18l20.03 0l0 12.23l-20.03 0Z" id="p241w523" />
<path d="M568.36 418.18l22.73 0l0 12.23l-22.73 0Z" id="p241w524" />
<path d="M593.79 417.93l18.01 0l0 12.56l-18.01 0Z" id="p241w525" />
<path d="M471.96 433.46l11.94 0l0 12.23l-11.94 0Z" id="p241w526" />
<path d="M486.6 433.46l13.96 0l0 12.23l-13.96 0Z" id="p241w527" />
<path d="M503.26 433.46l11.7 0l0 12.23l-11.7 0Z" id="p241w528" />
<path d="M517.66 433.46l22.95 0l0 12.23l-22.95 0Z" id="p241w529" />
<path d="M546.48 432.36l51.42 0l0 13.77l-51.42 0Z" id="p241w530" />
<path d="M603.75 433.46l20.03 0l0 12.23l-20.03 0Z" id="p241w531" />
<path d="M471.96 448.74l62.99 0l0 12.23l-62.99 0Z" id="p241w532" />
<path d="M537.65 448.5l17.26 0l0 12.56l-17.26 0Z" id="p241w533" />
<path d="M462.11 464.03l11.7 0l0 12.23l-11.7 0Z" id="p241w534" />
<path d="M476.52 464.03l16.43 0l0 12.23l-16.43 0Z" id="p241w535" />
<path d="M495.65 464.03l23.19 0l0 12.23l-23.19 0Z" id="p241w536" />
<path d="M521.53 464.03l31.07 0l0 12.23l-31.07 0Z" id="p241w537" />
<path d="M555.3 464.03l11.7 0l0 12.23l-11.7 0Z" id="p241w538" />
<path d="M569.71 463.97l29.58 0l0 12.29l-29.58 0Z" id="p241w539" />
<path d="M475.12 478.21l116.85 0l0 13.77l-116.85 0Z" id="p241w540" />
<path d="M597.83 479.31l25.21 0l0 12.23l-25.21 0Z" id="p241w541" />
<path d="M471.96 494.59l61.41 0l0 12.23l-61.41 0Z" id="p241w542" />
<path d="M536.07 494.59l43.91 0l0 12.23l-43.91 0Z" id="p241w543" />
<path d="M582.68 494.35l18.72 0l0 12.56l-18.72 0Z" id="p241w544" />
<path d="M462.11 509.88l17.56 0l0 12.23l-17.56 0Z" id="p241w545" />
<path d="M482.37 509.82l24.74 0l0 12.29l-24.74 0Z" id="p241w546" />
<path d="M512.97 508.78l29.61 0l0 13.77l-29.61 0Z" id="p241w547" />
<path d="M548.44 509.88l14.41 0l0 12.23l-14.41 0Z" id="p241w548" />
<path d="M565.55 509.88l22.96 0l0 12.23l-22.96 0Z" id="p241w549" />
<path d="M591.21 509.63l14.79 0l0 12.56l-14.79 0Z" id="p241w550" />
<path d="M480.28 525.16l8.33 0l0 12.23l-8.33 0Z" id="p241w551" />
<path d="M491.31 525.16l24.99 0l0 12.23l-24.99 0Z" id="p241w552" />
<path d="M519 525.16l11.7 0l0 12.23l-11.7 0Z" id="p241w553" />
<path d="M533.4 525.16l12.16 0l0 12.23l-12.16 0Z" id="p241w554" />
<path d="M551.42 524.06l42.7 0l0 13.77l-42.7 0Z" id="p241w555" />
<path d="M599.98 525.16l11.7 0l0 12.23l-11.7 0Z" id="p241w556" />
<path d="M614.39 525.16l15.54 0l0 12.23l-15.54 0Z" id="p241w557" />
<path d="M471.96 540.44l26.33 0l0 12.23l-26.33 0Z" id="p241w558" />
<path d="M500.99 540.2l18.92 0l0 12.56l-18.92 0Z" id="p241w559" />
<path d="M462.11 555.73l17.56 0l0 12.23l-17.56 0Z" id="p241w560" />
<path d="M482.37 555.67l26.01 0l0 12.29l-26.01 0Z" id="p241w561" />
<path d="M514.24 554.63l30.13 0l0 13.77l-30.13 0Z" id="p241w562" />
<path d="M550.23 555.73l14.41 0l0 12.23l-14.41 0Z" id="p241w563" />
<path d="M567.34 555.73l31.07 0l0 12.23l-31.07 0Z" id="p241w564" />
<path d="M601.11 555.48l14.63 0l0 12.56l-14.63 0Z" id="p241w565" />
<path d="M462.11 571.01l10.35 0l0 12.23l-10.35 0Z" id="p241w566" />
<path d="M475.16 570.96l38.9 0l0 12.29l-38.9 0Z" id="p241w567" />
<path d="M516.76 571.01l11.7 0l0 12.23l-11.7 0Z" id="p241w568" />
<path d="M531.17 571.01l27.37 0l0 12.23l-27.37 0Z" id="p241w569" />
<path d="M564.39 569.91l34.15 0l0 13.77l-34.15 0Z" id="p241w570" />
<path d="M604.4 571.01l18.46 0l0 12.23l-18.46 0Z" id="p241w571" />
<path d="M471.96 586.29l21.39 0l0 12.23l-21.39 0Z" id="p241w572" />
<path d="M496.05 586.29l40.5 0l0 12.23l-40.5 0Z" id="p241w573" />
<path d="M539.25 586.29l56.94 0l0 12.23l-56.94 0Z" id="p241w574" />
<path d="M598.89 586.05l18.92 0l0 12.56l-18.92 0Z" id="p241w575" />
<path d="M462.11 601.52l26.77 0l0 12.29l-26.77 0Z" id="p241w576" />
<path d="M499.9 601.58l12.16 0l0 12.23l-12.16 0Z" id="p241w577" />
<path d="M517.92 600.48l19.05 0l0 13.77l-19.05 0Z" id="p241w578" />
<path d="M542.83 601.58l20.04 0l0 12.23l-20.04 0Z" id="p241w579" />
<path d="M565.57 601.58l37.98 0l0 12.23l-37.98 0Z" id="p241w580" />
<path d="M606.25 601.33l18.92 0l0 12.56l-18.92 0Z" id="p241w581" />
<path d="M471.96 616.86l11.7 0l0 12.23l-11.7 0Z" id="p241w582" />
<path d="M486.36 616.86l14.85 0l0 12.23l-14.85 0Z" id="p241w583" />
<path d="M503.92 616.86l23.19 0l0 12.23l-23.19 0Z" id="p241w584" />
<path d="M532.96 615.76l37.54 0l0 13.77l-37.54 0Z" id="p241w585" />
<path d="M576.35 616.86l17.33 0l0 12.23l-17.33 0Z" id="p241w586" />
<path d="M596.38 616.86l30.1 0l0 12.23l-30.1 0Z" id="p241w587" />
<path d="M471.96 632.14l16.9 0l0 12.23l-16.9 0Z" id="p241w588" />
<path d="M491.56 631.9l14.63 0l0 12.56l-14.63 0Z" id="p241w589" />
<path d="M471.96 647.43l11.7 0l0 12.23l-11.7 0Z" id="p241w590" />
<path d="M486.36 647.43l11.7 0l0 12.23l-11.7 0Z" id="p241w591" />
<path d="M500.77 647.43l14.85 0l0 12.23l-14.85 0Z" id="p241w592" />
<path d="M518.32 647.43l20.93 0l0 12.23l-20.93 0Z" id="p241w593" />
<path d="M541.95 647.43l18.68 0l0 12.23l-18.68 0Z" id="p241w594" />
<path d="M566.49 646.33l60.05 0l0 13.77l-60.05 0Z" id="p241w595" />
<path d="M471.96 662.71l17.33 0l0 12.23l-17.33 0Z" id="p241w596" />
<path d="M491.99 662.71l30.1 0l0 12.23l-30.1 0Z" id="p241w597" />
<path d="M524.79 662.71l15.75 0l0 12.23l-15.75 0Z" id="p241w598" />
<path d="M543.24 662.71l25.9 0l0 12.23l-25.9 0Z" id="p241w599" />
<path d="M571.84 662.47l14.63 0l0 12.56l-14.63 0Z" id="p241w600" />
<path d="M462.11 677.99l11.94 0l0 12.23l-11.94 0Z" id="p241w601" />
<path d="M476.75 677.94l20.59 0l0 12.29l-20.59 0Z" id="p241w602" />
<path d="M503.19 676.89l19.58 0l0 13.77l-19.58 0Z" id="p241w603" />
<path d="M528.64 677.99l14.41 0l0 12.23l-14.41 0Z" id="p241w604" />
<path d="M545.74 677.99l20.26 0l0 12.23l-20.26 0Z" id="p241w605" />
<path d="M568.71 677.75l19.58 0l0 12.56l-19.58 0Z" id="p241w606" />
<path d="M471.96 693.28l11.48 0l0 12.23l-11.48 0Z" id="p241w607" />
<path d="M486.14 693.28l36.9 0l0 12.23l-36.9 0Z" id="p241w608" />
<path d="M525.75 693.28l20.49 0l0 12.23l-20.49 0Z" id="p241w609" />
<path d="M552.09 692.18l54.32 0l0 13.77l-54.32 0Z" id="p241w610" />
<path d="M612.27 693.28l11.93 0l0 12.23l-11.93 0Z" id="p241w611" />
<path d="M471.96 708.56l58.34 0l0 12.23l-58.34 0Z" id="p241w612" />
<path d="M533 708.32l14.63 0l0 12.56l-14.63 0Z" id="p241w613" />
<path d="M462.11 723.84l17.56 0l0 12.23l-17.56 0Z" id="p241w614" />
<path d="M482.37 723.79l35.78 0l0 12.29l-35.78 0Z" id="p241w615" />
<path d="M524.01 722.74l39.96 0l0 13.77l-39.96 0Z" id="p241w616" />
<path d="M569.83 723.84l14.41 0l0 12.23l-14.41 0Z" id="p241w617" />
<path d="M586.93 723.84l29.71 0l0 12.23l-29.71 0Z" id="p241w618" />
<path d="M619.35 723.6l14.43 0l0 12.56l-14.43 0Z" id="p241w619" />
<path d="M462.11 739.13l11.94 0l0 12.23l-11.94 0Z" id="p241w620" />
<path d="M476.75 739.07l18.45 0l0 12.29l-18.45 0Z" id="p241w621" />
<path d="M501.06 738.03l18.82 0l0 13.77l-18.82 0Z" id="p241w622" />
<path d="M525.73 739.13l14.41 0l0 12.23l-14.41 0Z" id="p241w623" />
<path d="M542.84 739.13l24.71 0l0 12.23l-24.71 0Z" id="p241w624" />
<path d="M570.25 739.11l26.79 0l0 12.23l-26.79 0Z" id="p241w625" />
<path d="M599.74 739.11l30.38 0l0 12.23l-30.38 0Z" id="p241w626" />
<path d="M471.96 754.41l14.41 0l0 12.23l-14.41 0Z" id="p241w627" />
<path d="M489.07 754.41l33.99 0l0 12.23l-33.99 0Z" id="p241w628" />
<path d="M525.76 754.17l14.63 0l0 12.56l-14.63 0Z" id="p241w629" />
<path d="M462.11 769.7l11.94 0l0 12.23l-11.94 0Z" id="p241w630" />
<path d="M476.75 769.7l35.12 0l0 12.23l-35.12 0Z" id="p241w631" />
<path d="M514.57 769.7l11.7 0l0 12.23l-11.7 0Z" id="p241w632" />
<path d="M528.98 769.64l23.39 0l0 12.29l-23.39 0Z" id="p241w633" />
<path d="M555.07 769.7l12.15 0l0 12.23l-12.15 0Z" id="p241w634" />
<path d="M573.07 768.59l65.62 0l0 13.77l-65.62 0Z" id="p241w635" />
<path d="M471.96 784.98l14.41 0l0 12.23l-14.41 0Z" id="p241w636" />
<path d="M489.07 784.98l79.85 0l0 12.23l-79.85 0Z" id="p241w637" />
<path d="M571.62 784.73l18.92 0l0 12.56l-18.92 0Z" id="p241w638" />
<path d="M462.11 800.21l23.39 0l0 12.29l-23.39 0Z" id="p241w639" />
<path d="M488.2 800.26l11.7 0l0 12.23l-11.7 0Z" id="p241w640" />
<path d="M505.76 799.16l24.68 0l0 13.77l-24.68 0Z" id="p241w641" />
<path d="M536.29 800.26l19.81 0l0 12.23l-19.81 0Z" id="p241w642" />
<path d="M558.8 800.26l35.02 0l0 12.23l-35.02 0Z" id="p241w643" />
<path d="M596.53 800.26l42.2 0l0 12.23l-42.2 0Z" id="p241w644" />
<path d="M471.96 815.3l15.54 0l0 12.56l-15.54 0Z" id="p241w645" />
<path d="M462.11 830.77l33.81 0l0 12.29l-33.81 0Z" id="p241w646" />
<path d="M501.78 829.73l28.81 0l0 13.77l-28.81 0Z" id="p241w647" />
<path d="M536.45 830.83l34.43 0l0 12.23l-34.43 0Z" id="p241w648" />
<path d="M573.59 830.58l15.54 0l0 12.56l-15.54 0Z" id="p241w649" />
<path d="M462.11 846.11l5.86 0l0 12.23l-5.86 0Z" id="p241w650" />
<path d="M470.67 846.06l24.41 0l0 12.29l-24.41 0Z" id="p241w651" />
<path d="M500.04 846.09l18.68 0l0 12.23l-18.68 0Z" id="p241w652" />
<path d="M518.72 846.09l22.5 0l0 12.23l-22.5 0Z" id="p241w653" />
<path d="M543.92 846.09l40.08 0l0 12.23l-40.08 0Z" id="p241w654" />
<path d="M589.86 845.01l20.95 0l0 13.77l-20.95 0Z" id="p241w655" />
<path d="M616.67 846.11l10.58 0l0 12.23l-10.58 0Z" id="p241w656" />
<path d="M471.96 861.4l33.26 0l0 12.23l-33.26 0Z" id="p241w657" />
<path d="M507.92 861.15l15.54 0l0 12.56l-15.54 0Z" id="p241w658" />
<path d="M462.11 876.68l8.33 0l0 12.23l-8.33 0Z" id="p241w659" />
<path d="M473.14 876.62l23.28 0l0 12.29l-23.28 0Z" id="p241w660" />
<path d="M502.27 875.58l26.17 0l0 13.77l-26.17 0Z" id="p241w661" />
<path d="M534.29 876.68l15.53 0l0 12.23l-15.53 0Z" id="p241w662" />
<path d="M552.52 876.68l29.51 0l0 12.23l-29.51 0Z" id="p241w663" />
<path d="M584.73 876.43l15.54 0l0 12.56l-15.54 0Z" id="p241w664" />
<path d="M462.11 891.96l8.33 0l0 12.23l-8.33 0Z" id="p241w665" />
<path d="M473.14 891.91l34.38 0l0 12.29l-34.38 0Z" id="p241w666" />
<path d="M510.22 891.96l16.43 0l0 12.23l-16.43 0Z" id="p241w667" />
<path d="M532.5 890.86l38.97 0l0 13.77l-38.97 0Z" id="p241w668" />
<path d="M577.33 891.96l14.41 0l0 12.23l-14.41 0Z" id="p241w669" />
<path d="M594.44 891.96l37.8 0l0 12.23l-37.8 0Z" id="p241w670" />
<path d="M471.96 907l18.01 0l0 12.56l-18.01 0Z" id="p241w671" />
<path d="M462.11 922.47l19.67 0l0 12.29l-19.67 0Z" id="p241w672" />
<path d="M487.64 921.43l18.12 0l0 13.77l-18.12 0Z" id="p241w673" />
<path d="M511.62 922.53l19.36 0l0 12.23l-19.36 0Z" id="p241w674" />
<path d="M533.68 922.28l15.54 0l0 12.56l-15.54 0Z" id="p241w675" />
</svg>
