<?xml version="1.0" encoding="UTF-8"?>
<svg xmlns="http://www.w3.org/2000/svg" xmlns:xlink="http://www.w3.org/1999/xlink" version="1.1" baseProfile="full" width="768" height="1024" viewBox="0,0,768,1024" preserveAspectRatio="xMinYMin meet" >
<style type="text/css">
<![CDATA[
path {fill-opacity: 0.5;fill: #00aeef;visibility: hidden;}
]]>
</style>
<path d="M124.06 38.6l71 0l0 16.09l-71 0Z" id="p188w1" />
<path d="M78.77 983.66l96.75 0l0 12.23l-96.75 0Z" id="p188w2" />
<path d="M124.06 110.01l47.46 0l0 14.6l-47.46 0Z" id="p188w3" />
<path d="M174.83 108.77l53.85 0l0 16.35l-53.85 0Z" id="p188w4" />
<path d="M297.36 110.09l54.39 0l0 14.52l-54.39 0ZM354.96 110.09l39.49 0l0 14.52l-39.49 0ZM482.46 110l12.57 0l0 14.61l-12.57 0Z" id="p188w5" />
<path d="M498.24 110l45.33 0l0 14.61l-45.33 0Z" id="p188w6" />
<path d="M546.77 110l30.19 0l0 14.61l-30.19 0Z" id="p188w7" />
<path d="M580.16 110l52.65 0l0 14.61l-52.65 0Z" id="p188w8" />
<path d="M636.02 110l28.87 0l0 14.61l-28.87 0Z" id="p188w9" />
<path d="M668.1 110l19.51 0l0 14.61l-19.51 0Z" id="p188w10" />
<path d="M482.46 126.67l53.8 0l0 14.61l-53.8 0Z" id="p188w11" />
<path d="M539.47 126.67l20.84 0l0 14.61l-20.84 0Z" id="p188w12" />
<path d="M563.52 126.67l57.11 0l0 14.61l-57.11 0Z" id="p188w13" />
<path d="M623.84 126.67l46.88 0l0 14.61l-46.88 0Z" id="p188w14" />
<path d="M124.06 144.73l33.22 0l0 14.6l-33.22 0Z" id="p188w15" />
<path d="M160.58 143.49l32 0l0 16.35l-32 0Z" id="p188w16" />
<path d="M297.36 144.81l36.61 0l0 14.52l-36.61 0Z" id="p188w17" />
<path d="M482.46 144.81l14.18 0l0 14.52l-14.18 0Z" id="p188w18" />
<path d="M499.85 144.81l25.13 0l0 14.52l-25.13 0Z" id="p188w19" />
<path d="M528.18 144.81l14.18 0l0 14.52l-14.18 0Z" id="p188w20" />
<path d="M545.57 144.81l25.4 0l0 14.52l-25.4 0Z" id="p188w21" />
<path d="M574.17 144.81l32.62 0l0 14.52l-32.62 0Z" id="p188w22" />
<path d="M635.92 144.81l31.96 0l0 14.52l-31.96 0Z" id="p188w23" />
<path d="M124.06 165.44l157.49 0l0 14.6l-157.49 0Z" id="p188w24" />
<path d="M124.06 180.87l132.9 0l0 16.35l-132.9 0Z" id="p188w25" />
<path d="M297.36 165.52l96.8 0l0 14.52l-96.8 0Z" id="p188w26" />
<path d="M482.46 165.52l10.43 0l0 14.52l-10.43 0Z" id="p188w27" />
<path d="M496.1 165.52l35.56 0l0 14.52l-35.56 0Z" id="p188w28" />
<path d="M534.86 165.52l20.85 0l0 14.52l-20.85 0Z" id="p188w29" />
<path d="M558.93 165.52l47.04 0l0 14.52l-47.04 0Z" id="p188w30" />
<path d="M609.18 165.52l16.83 0l0 14.52l-16.83 0Z" id="p188w31" />
<path d="M629.21 165.52l14.18 0l0 14.52l-14.18 0Z" id="p188w32" />
<path d="M646.6 165.52l49.72 0l0 14.52l-49.72 0Z" id="p188w33" />
<path d="M482.46 182.19l74.06 0l0 14.52l-74.06 0Z" id="p188w34" />
<path d="M124.06 200.26l111.3 0l0 14.6l-111.3 0Z" id="p188w35" />
<path d="M124.06 215.69l87.38 0l0 16.35l-87.38 0Z" id="p188w36" />
<path d="M297.36 200.34l88.99 0l0 14.52l-88.99 0Z" id="p188w37" />
<path d="M482.46 200.34l46.51 0l0 14.52l-46.51 0Z" id="p188w38" />
<path d="M532.18 200.34l15.5 0l0 14.52l-15.5 0Z" id="p188w39" />
<path d="M550.89 200.34l48.39 0l0 14.52l-48.39 0Z" id="p188w40" />
<path d="M602.48 200.34l14.18 0l0 14.52l-14.18 0Z" id="p188w41" />
<path d="M619.87 200.34l63.88 0l0 14.52l-63.88 0Z" id="p188w42" />
<path d="M482.46 217.01l113.34 0l0 14.52l-113.34 0Z" id="p188w43" />
<path d="M599.01 217.01l15.5 0l0 14.52l-15.5 0Z" id="p188w44" />
<path d="M617.72 217.01l42.49 0l0 14.52l-42.49 0Z" id="p188w45" />
<path d="M663.41 217.01l24.33 0l0 14.52l-24.33 0Z" id="p188w46" />
<path d="M482.46 233.68l45.64 0l0 14.52l-45.64 0Z" id="p188w47" />
<path d="M124.06 251.75l22.58 0l0 14.6l-22.58 0Z" id="p188w48" />
<path d="M149.85 251.75l82.35 0l0 14.6l-82.35 0Z" id="p188w49" />
<path d="M124.06 267.18l81.22 0l0 16.35l-81.22 0Z" id="p188w50" />
<path d="M297.36 251.83l20.85 0l0 14.52l-20.85 0Z" id="p188w51" />
<path d="M321.42 251.83l22.72 0l0 14.52l-22.72 0Z" id="p188w52" />
<path d="M482.46 251.83l12.83 0l0 14.52l-12.83 0Z" id="p188w53" />
<path d="M498.5 251.83l36.88 0l0 14.52l-36.88 0Z" id="p188w54" />
<path d="M538.59 251.83l14.18 0l0 14.52l-14.18 0Z" id="p188w55" />
<path d="M555.97 251.83l16.58 0l0 14.52l-16.58 0Z" id="p188w56" />
<path d="M575.76 251.83l30.21 0l0 14.52l-30.21 0Z" id="p188w57" />
<path d="M609.18 251.83l32.6 0l0 14.52l-32.6 0Z" id="p188w58" />
<path d="M644.99 251.83l36.89 0l0 14.52l-36.89 0Z" id="p188w59" />
<path d="M482.46 268.5l59.54 0l0 14.52l-59.54 0Z" id="p188w60" />
<path d="M563.12 268.5l25.41 0l0 14.52l-25.41 0Z" id="p188w61" />
<path d="M591.74 268.5l6.41 0l0 14.52l-6.41 0Z" id="p188w62" />
<path d="M601.36 268.5l16.83 0l0 14.52l-16.83 0Z" id="p188w63" />
<path d="M621.4 268.5l21.37 0l0 14.52l-21.37 0Z" id="p188w64" />
<path d="M645.98 268.5l38.23 0l0 14.52l-38.23 0Z" id="p188w65" />
<path d="M500.19 285.19l35.27 0l0 14.61l-35.27 0Z" id="p188w66" />
<path d="M124.06 303.25l59.11 0l0 14.6l-59.11 0Z" id="p188w67" />
<path d="M186.47 302.01l46.45 0l0 16.35l-46.45 0Z" id="p188w68" />
<path d="M297.35 303.33l21.18 0l0 14.52l-21.18 0Z" id="p188w69" />
<path d="M321.75 303.33l21.37 0l0 14.52l-21.37 0Z" id="p188w70" />
<path d="M482.46 303.33l13.9 0l0 14.52l-13.9 0Z" id="p188w71" />
<path d="M499.57 303.33l39.24 0l0 14.52l-39.24 0Z" id="p188w72" />
<path d="M542.02 303.33l32.6 0l0 14.52l-32.6 0Z" id="p188w73" />
<path d="M577.83 303.33l36.89 0l0 14.52l-36.89 0Z" id="p188w74" />
<path d="M617.93 303.33l24.59 0l0 14.52l-24.59 0Z" id="p188w75" />
<path d="M645.72 303.33l26.73 0l0 14.52l-26.73 0Z" id="p188w76" />
<path d="M482.46 320l61.21 0l0 14.52l-61.21 0Z" id="p188w77" />
<path d="M500.69 336.68l22.44 0l0 14.61l-22.44 0Z" id="p188w78" />
<path d="M124.06 354.78l21.03 0l0 14.6l-21.03 0Z" id="p188w79" />
<path d="M148.29 354.82l29.97 0l0 14.52l-29.97 0Z" id="p188w80" />
<path d="M181.57 353.54l29.63 0l0 16.35l-29.63 0Z" id="p188w81" />
<path d="M297.35 354.82l46.25 0l0 14.52l-46.25 0Z" id="p188w82" />
<path d="M482.46 354.82l12.41 0l0 14.52l-12.41 0Z" id="p188w83" />
<path d="M498.07 354.82l18.27 0l0 14.52l-18.27 0Z" id="p188w84" />
<path d="M519.55 354.82l20.84 0l0 14.52l-20.84 0Z" id="p188w85" />
<path d="M561.51 354.82l25.41 0l0 14.52l-25.41 0Z" id="p188w86" />
<path d="M590.13 354.82l12.57 0l0 14.52l-12.57 0Z" id="p188w87" />
<path d="M605.9 354.82l12.66 0l0 14.52l-12.66 0Z" id="p188w88" />
<path d="M621.76 354.82l23.52 0l0 14.52l-23.52 0Z" id="p188w89" />
<path d="M648.49 354.82l36.36 0l0 14.52l-36.36 0Z" id="p188w90" />
<path d="M500.19 371.5l33.33 0l0 14.61l-33.33 0Z" id="p188w91" />
<path d="M124.06 389.56l102.36 0l0 14.6l-102.36 0Z" id="p188w92" />
<path d="M124.06 404.99l59 0l0 16.35l-59 0Z" id="p188w93" />
<path d="M297.35 389.64l48.88 0l0 14.52l-48.88 0Z" id="p188w94" />
<path d="M482.46 389.64l39.29 0l0 14.52l-39.29 0Z" id="p188w95" />
<path d="M524.96 389.64l15.87 0l0 14.52l-15.87 0Z" id="p188w96" />
<path d="M544.04 389.64l19.51 0l0 14.52l-19.51 0Z" id="p188w97" />
<path d="M566.75 389.64l19.6 0l0 14.52l-19.6 0Z" id="p188w98" />
<path d="M589.56 389.64l21.37 0l0 14.52l-21.37 0Z" id="p188w99" />
<path d="M614.14 389.64l47.6 0l0 14.52l-47.6 0Z" id="p188w100" />
<path d="M124.06 424.36l81.29 0l0 14.6l-81.29 0Z" id="p188w101" />
<path d="M208.65 423.12l53.35 0l0 16.35l-53.35 0Z" id="p188w102" />
<path d="M297.35 424.44l92.16 0l0 14.52l-92.16 0Z" id="p188w103" />
<path d="M482.46 424.44l84.73 0l0 14.52l-84.73 0Z" id="p188w104" />
<path d="M570.4 424.44l22.99 0l0 14.52l-22.99 0Z" id="p188w105" />
<path d="M596.6 424.44l24.31 0l0 14.52l-24.31 0Z" id="p188w106" />
<path d="M624.12 424.44l24.33 0l0 14.52l-24.33 0Z" id="p188w107" />
<path d="M651.65 424.44l34.48 0l0 14.52l-34.48 0Z" id="p188w108" />
<path d="M124.06 445.07l12.42 0l0 14.6l-12.42 0Z" id="p188w109" />
<path d="M139.69 445.07l48.86 0l0 14.6l-48.86 0Z" id="p188w110" />
<path d="M191.85 443.83l64.2 0l0 16.35l-64.2 0Z" id="p188w111" />
<path d="M297.35 445.15l12.84 0l0 14.52l-12.84 0Z" id="p188w112" />
<path d="M313.4 445.15l28.07 0l0 14.52l-28.07 0Z" id="p188w113" />
<path d="M344.69 445.15l37.86 0l0 14.52l-37.86 0Z" id="p188w114" />
<path d="M385.75 445.15l35.02 0l0 14.52l-35.02 0Z" id="p188w115" />
<path d="M482.46 445.15l54.53 0l0 14.52l-54.53 0Z" id="p188w116" />
<path d="M540.2 445.15l33.05 0l0 14.52l-33.05 0Z" id="p188w117" />
<path d="M576.45 445.15l20.85 0l0 14.52l-20.85 0Z" id="p188w118" />
<path d="M600.52 445.15l47.57 0l0 14.52l-47.57 0Z" id="p188w119" />
<path d="M651.29 445.15l24.31 0l0 14.52l-24.31 0Z" id="p188w120" />
<path d="M482.46 461.82l50.5 0l0 14.52l-50.5 0Z" id="p188w121" />
<path d="M502.28 478.51l14.97 0l0 14.61l-14.97 0Z" id="p188w122" />
<path d="M497.84 495.19l65.2 0l0 14.61l-65.2 0Z" id="p188w123" />
<path d="M124.06 513.24l12.42 0l0 14.6l-12.42 0Z" id="p188w124" />
<path d="M139.69 513.24l48.86 0l0 14.6l-48.86 0Z" id="p188w125" />
<path d="M191.76 513.24l50.59 0l0 14.6l-50.59 0Z" id="p188w126" />
<path d="M124.06 528.67l103.68 0l0 16.35l-103.68 0Z" id="p188w127" />
<path d="M297.36 513.32l69.85 0l0 14.52l-69.85 0Z" id="p188w128" />
<path d="M370.42 513.32l54.2 0l0 14.52l-54.2 0Z" id="p188w129" />
<path d="M124.06 548.05l20.99 0l0 14.6l-20.99 0Z" id="p188w130" />
<path d="M148.26 548.05l55.31 0l0 14.6l-55.31 0Z" id="p188w131" />
<path d="M206.86 546.81l69.68 0l0 16.35l-69.68 0Z" id="p188w132" />
<path d="M297.36 548.13l23.79 0l0 14.52l-23.79 0Z" id="p188w133" />
<path d="M324.35 548.13l34.99 0l0 14.52l-34.99 0Z" id="p188w134" />
<path d="M362.55 548.13l23.79 0l0 14.52l-23.79 0Z" id="p188w135" />
<path d="M297.36 564.8l77.99 0l0 14.52l-77.99 0Z" id="p188w136" />
<path d="M482.46 548.13l31.9 0l0 14.52l-31.9 0Z" id="p188w137" />
<path d="M517.57 548.13l14.18 0l0 14.52l-14.18 0Z" id="p188w138" />
<path d="M534.96 548.13l44.39 0l0 14.52l-44.39 0Z" id="p188w139" />
<path d="M582.55 548.13l15.5 0l0 14.52l-15.5 0Z" id="p188w140" />
<path d="M601.26 548.13l55.33 0l0 14.52l-55.33 0Z" id="p188w141" />
<path d="M659.8 548.13l22.99 0l0 14.52l-22.99 0Z" id="p188w142" />
<path d="M482.46 564.8l49.99 0l0 14.52l-49.99 0Z" id="p188w143" />
<path d="M535.66 564.8l63.08 0l0 14.52l-63.08 0Z" id="p188w144" />
<path d="M124.06 582.87l31.57 0l0 14.6l-31.57 0Z" id="p188w145" />
<path d="M158.84 582.87l46.46 0l0 14.6l-46.46 0Z" id="p188w146" />
<path d="M208.51 582.87l19.63 0l0 14.6l-19.63 0Z" id="p188w147" />
<path d="M124.06 598.3l65.72 0l0 16.35l-65.72 0Z" id="p188w148" />
<path d="M297.36 582.95l36.34 0l0 14.52l-36.34 0Z" id="p188w149" />
<path d="M336.9 582.95l27.28 0l0 14.52l-27.28 0Z" id="p188w150" />
<path d="M367.39 582.95l28.07 0l0 14.52l-28.07 0Z" id="p188w151" />
<path d="M482.46 582.95l25.67 0l0 14.52l-25.67 0Z" id="p188w152" />
<path d="M519.63 582.95l6.96 0l0 14.52l-6.96 0Z" id="p188w153" />
<path d="M529.8 582.95l25.92 0l0 14.52l-25.92 0Z" id="p188w154" />
<path d="M558.93 582.95l45.46 0l0 14.52l-45.46 0Z" id="p188w155" />
<path d="M607.59 582.95l19.51 0l0 14.52l-19.51 0Z" id="p188w156" />
<path d="M630.31 582.95l31.8 0l0 14.52l-31.8 0Z" id="p188w157" />
<path d="M124.06 617.67l91.43 0l0 14.6l-91.43 0Z" id="p188w158" />
<path d="M218.79 616.43l49.64 0l0 16.35l-49.64 0Z" id="p188w159" />
<path d="M297.36 617.75l39.56 0l0 14.52l-39.56 0Z" id="p188w160" />
<path d="M482.46 617.75l13.9 0l0 14.52l-13.9 0Z" id="p188w161" />
<path d="M499.57 617.75l25.92 0l0 14.52l-25.92 0Z" id="p188w162" />
<path d="M528.7 617.75l19.51 0l0 14.52l-19.51 0Z" id="p188w163" />
<path d="M551.42 617.75l39.56 0l0 14.52l-39.56 0Z" id="p188w164" />
<path d="M497.84 634.43l71.37 0l0 14.61l-71.37 0Z" id="p188w165" />
<path d="M124.06 652.49l76.08 0l0 14.6l-76.08 0Z" id="p188w166" />
<path d="M203.44 651.25l67.79 0l0 16.35l-67.79 0Z" id="p188w167" />
<path d="M297.36 652.57l82.84 0l0 14.52l-82.84 0Z" id="p188w168" />
<path d="M482.46 652.57l79.64 0l0 14.52l-79.64 0Z" id="p188w169" />
<path d="M565.32 652.57l9.62 0l0 14.52l-9.62 0Z" id="p188w170" />
<path d="M578.15 652.57l13.9 0l0 14.52l-13.9 0Z" id="p188w171" />
<path d="M595.25 652.57l21.38 0l0 14.52l-21.38 0Z" id="p188w172" />
<path d="M619.84 652.57l19.51 0l0 14.52l-19.51 0Z" id="p188w173" />
<path d="M642.56 652.57l13.9 0l0 14.52l-13.9 0Z" id="p188w174" />
<path d="M659.66 652.57l36.61 0l0 14.52l-36.61 0Z" id="p188w175" />
<path d="M124.06 673.2l27.6 0l0 14.6l-27.6 0Z" id="p188w176" />
<path d="M154.85 673.2l23.23 0l0 14.6l-23.23 0Z" id="p188w177" />
<path d="M181.27 673.2l45.75 0l0 14.6l-45.75 0Z" id="p188w178" />
<path d="M230.21 673.2l13.87 0l0 14.6l-13.87 0Z" id="p188w179" />
<path d="M247.27 673.2l34.33 0l0 14.6l-34.33 0Z" id="p188w180" />
<path d="M124.06 688.63l126.92 0l0 16.35l-126.92 0Z" id="p188w181" />
<path d="M297.36 673.28l22.73 0l0 14.52l-22.73 0Z" id="p188w182" />
<path d="M323.29 673.28l46.78 0l0 14.52l-46.78 0Z" id="p188w183" />
<path d="M372.84 673.28l63.29 0l0 14.52l-63.29 0Z" id="p188w184" />
<path d="M297.36 689.95l37.92 0l0 14.52l-37.92 0Z" id="p188w185" />
<path d="M338.49 689.95l22.73 0l0 14.52l-22.73 0Z" id="p188w186" />
<path d="M364.42 689.95l46.78 0l0 14.52l-46.78 0Z" id="p188w187" />
<path d="M414.41 689.95l35.27 0l0 14.52l-35.27 0Z" id="p188w188" />
<path d="M297.36 706.62l48.92 0l0 14.52l-48.92 0Z" id="p188w189" />
<path d="M482.46 673.28l37.41 0l0 14.52l-37.41 0Z" id="p188w190" />
<path d="M523.08 673.28l14.8 0l0 14.52l-14.8 0Z" id="p188w191" />
<path d="M541.08 673.28l58.53 0l0 14.52l-58.53 0Z" id="p188w192" />
<path d="M602.82 673.28l23.53 0l0 14.52l-23.53 0Z" id="p188w193" />
<path d="M629.56 673.28l45.17 0l0 14.52l-45.17 0Z" id="p188w194" />
<path d="M482.46 689.95l13.9 0l0 14.52l-13.9 0Z" id="p188w195" />
<path d="M499.57 689.95l36.61 0l0 14.52l-36.61 0Z" id="p188w196" />
<path d="M124.06 724.69l102.41 0l0 14.6l-102.41 0Z" id="p188w197" />
<path d="M124.06 740.12l74.27 0l0 16.35l-74.27 0Z" id="p188w198" />
<path d="M297.36 724.77l53.15 0l0 14.52l-53.15 0Z" id="p188w199" />
<path d="M353.72 724.77l61.15 0l0 14.52l-61.15 0Z" id="p188w200" />
<path d="M482.46 724.77l12.83 0l0 14.52l-12.83 0Z" id="p188w201" />
<path d="M498.5 724.77l41.71 0l0 14.52l-41.71 0Z" id="p188w202" />
<path d="M543.42 724.77l16.83 0l0 14.52l-16.83 0Z" id="p188w203" />
<path d="M563.46 724.77l14.18 0l0 14.52l-14.18 0Z" id="p188w204" />
<path d="M580.84 724.77l36.63 0l0 14.52l-36.63 0Z" id="p188w205" />
<path d="M620.67 724.77l48.12 0l0 14.52l-48.12 0Z" id="p188w206" />
<path d="M500.19 741.46l50.24 0l0 14.61l-50.24 0Z" id="p188w207" />
<path d="M124.06 759.52l81.57 0l0 14.6l-81.57 0Z" id="p188w208" />
<path d="M208.93 758.28l60.14 0l0 16.35l-60.14 0Z" id="p188w209" />
<path d="M297.35 759.6l29.88 0l0 14.52l-29.88 0Z" id="p188w210" />
<path d="M500.19 763.91l60.94 0l0 14.61l-60.94 0Z" id="p188w211" />
<path d="M124.06 781.97l31.52 0l0 14.6l-31.52 0Z" id="p188w212" />
<path d="M158.79 781.97l32.19 0l0 14.6l-32.19 0Z" id="p188w213" />
<path d="M194.28 780.72l43.31 0l0 16.35l-43.31 0Z" id="p188w214" />
<path d="M129.97 807.6l31.52 0l0 14.6l-31.52 0Z" id="p188w215" />
<path d="M171.11 807.67l9.62 0l0 14.52l-9.62 0Z" id="p188w216" />
<path d="M183.94 807.67l28.62 0l0 14.52l-28.62 0Z" id="p188w217" />
<path d="M215.77 807.67l11.5 0l0 14.52l-11.5 0Z" id="p188w218" />
<path d="M230.47 807.67l28.62 0l0 14.52l-28.62 0Z" id="p188w219" />
<path d="M262.29 807.67l50.26 0l0 14.52l-50.26 0Z" id="p188w220" />
<path d="M315.76 807.67l27.55 0l0 14.52l-27.55 0Z" id="p188w221" />
<path d="M346.52 807.67l26.74 0l0 14.52l-26.74 0Z" id="p188w222" />
<path d="M376.47 807.67l17.12 0l0 14.52l-17.12 0Z" id="p188w223" />
<path d="M399.61 807.67l22.47 0l0 14.52l-22.47 0Z" id="p188w224" />
<path d="M129.97 824.34l25.67 0l0 14.52l-25.67 0Z" id="p188w225" />
<path d="M158.85 824.34l17.12 0l0 14.52l-17.12 0Z" id="p188w226" />
<path d="M181.99 824.34l15.25 0l0 14.52l-15.25 0Z" id="p188w227" />
<path d="M200.44 824.34l42.36 0l0 14.52l-42.36 0Z" id="p188w228" />
<path d="M246 824.34l17.12 0l0 14.52l-17.12 0Z" id="p188w229" />
<path d="M263.12 824.27l10.02 0l0 14.6l-10.02 0Z" id="p188w230" />
<path d="M273.14 824.34l11.76 0l0 14.52l-11.76 0Z" id="p188w231" />
<path d="M294.22 824.27l31.41 0l0 14.61l-31.41 0Z" id="p188w232" />
<path d="M328.84 824.27l48.4 0l0 14.61l-48.4 0Z" id="p188w233" />
<path d="M387.32 824.34l14.8 0l0 14.52l-14.8 0Z" id="p188w234" />
<path d="M405.32 824.27l17.2 0l0 14.6l-17.2 0Z" id="p188w235" />
<path d="M297.35 782.04l51.83 0l0 14.52l-51.83 0Z" id="p188w236" />
<path d="M352.39 782.04l45.12 0l0 14.52l-45.12 0Z" id="p188w237" />
<path d="M482.46 782.04l10.43 0l0 14.52l-10.43 0Z" id="p188w238" />
<path d="M496.09 782.04l13.9 0l0 14.52l-13.9 0Z" id="p188w239" />
<path d="M513.2 782.04l11.22 0l0 14.52l-11.22 0Z" id="p188w240" />
<path d="M527.62 782.04l25.94 0l0 14.52l-25.94 0Z" id="p188w241" />
<path d="M556.77 782.04l22.19 0l0 14.52l-22.19 0Z" id="p188w242" />
<path d="M500.19 798.73l31.44 0l0 14.61l-31.44 0Z" id="p188w243" />
<path d="M534.84 798.65l14.41 0l0 14.6l-14.41 0Z" id="p188w244" />
<path d="M552.46 798.73l61.38 0l0 14.61l-61.38 0Z" id="p188w245" />
<path d="M637.97 798.65l24.63 0l0 14.6l-24.63 0Z" id="p188w246" />
<path d="M665.81 798.73l36.56 0l0 14.61l-36.56 0Z" id="p188w247" />
<path d="M482.46 815.4l45.08 0l0 14.61l-45.08 0Z" id="p188w248" />
<path d="M124.06 853.89l50.24 0l0 14.6l-50.24 0Z" id="p188w249" />
<path d="M177.59 852.65l45.06 0l0 16.35l-45.06 0Z" id="p188w250" />
<path d="M297.35 853.97l43.31 0l0 14.52l-43.31 0Z" id="p188w251" />
<path d="M482.46 853.97l20.05 0l0 14.52l-20.05 0Z" id="p188w252" />
<path d="M505.72 853.97l16.83 0l0 14.52l-16.83 0Z" id="p188w253" />
<path d="M525.75 853.97l49.71 0l0 14.52l-49.71 0Z" id="p188w254" />
<path d="M578.67 853.97l25.69 0l0 14.52l-25.69 0Z" id="p188w255" />
<path d="M500.69 870.66l20.25 0l0 14.61l-20.25 0Z" id="p188w256" />
<path d="M124.06 888.71l25.65 0l0 14.6l-25.65 0Z" id="p188w257" />
<path d="M152.91 888.71l12.43 0l0 14.6l-12.43 0Z" id="p188w258" />
<path d="M168.55 888.71l23.22 0l0 14.6l-23.22 0Z" id="p188w259" />
<path d="M195.07 887.47l57.59 0l0 16.35l-57.59 0Z" id="p188w260" />
<path d="M297.35 888.79l17.11 0l0 14.52l-17.11 0Z" id="p188w261" />
<path d="M317.67 888.79l24.15 0l0 14.52l-24.15 0Z" id="p188w262" />
<path d="M345.03 888.79l39.82 0l0 14.52l-39.82 0Z" id="p188w263" />
<path d="M482.46 888.79l34.73 0l0 14.52l-34.73 0Z" id="p188w264" />
<path d="M520.39 888.79l13.9 0l0 14.52l-13.9 0Z" id="p188w265" />
<path d="M537.5 888.79l25.38 0l0 14.52l-25.38 0Z" id="p188w266" />
<path d="M566.09 888.79l11.22 0l0 14.52l-11.22 0Z" id="p188w267" />
<path d="M580.52 888.79l23.09 0l0 14.52l-23.09 0Z" id="p188w268" />
<path d="M124.06 909.46l57.98 0l0 14.6l-57.98 0Z" id="p188w269" />
<path d="M185.25 909.5l33.14 0l0 14.52l-33.14 0Z" id="p188w270" />
<path d="M221.6 908.22l48.13 0l0 16.35l-48.13 0Z" id="p188w271" />
<path d="M297.35 909.53l63.09 0l0 14.52l-63.09 0Z" id="p188w272" />
<path d="M363.65 909.5l30.46 0l0 14.52l-30.46 0Z" id="p188w273" />
<path d="M482.46 909.5l55.87 0l0 14.52l-55.87 0Z" id="p188w274" />
<path d="M541.54 909.5l89.52 0l0 14.52l-89.52 0Z" id="p188w275" />
<path d="M494.71 926.19l36.01 0l0 14.61l-36.01 0Z" id="p188w276" />
</svg>
