<?xml version="1.0" encoding="UTF-8"?>
<svg xmlns="http://www.w3.org/2000/svg" xmlns:xlink="http://www.w3.org/1999/xlink" version="1.1" baseProfile="full" width="768" height="1024" viewBox="0,0,768,1024" preserveAspectRatio="xMinYMin meet" >
<style type="text/css">
<![CDATA[
path {fill-opacity: 0.5;fill: #00aeef;visibility: hidden;}
]]>
</style>
<path d="M539.82 414.1l19.97 0l0 9.67l-19.97 0Z" id="p30w1" />
<path d="M565.13 428.87l18.81 0l0 9.61l-18.81 0Z" id="p30w2" />
<path d="M588.5 416.61l16.51 0l0 9.19l-16.51 0Z" id="p30w3" />
<path d="M536.15 461.47l11.73 0l0 12.86l-11.73 0Z" id="p30w4" />
<path d="M551.21 462.26l33.76 0l0 14.01l-33.76 0Z" id="p30w5" />
<path d="M601.73 464.91l11.06 0l0 12.82l-11.06 0Z" id="p30w6" />
<path d="M535.42 475.35l12.62 0l0 12.91l-12.62 0Z" id="p30w7" />
<path d="M551.38 476.19l35.9 0l0 14.13l-35.9 0Z" id="p30w8" />
<path d="M642.4 491.73l13.41 0l0 9.32l-13.41 0Z" id="p30w9" />
<path d="M534.18 499.12l14.42 0l0 13l-14.42 0Z" id="p30w10" />
<path d="M551.94 500.05l15.22 0l0 13.04l-15.22 0Z" id="p30w11" />
<path d="M570.49 501.03l28.14 0l0 13.72l-28.14 0Z" id="p30w12" />
<path d="M601.97 502.68l7.67 0l0 12.65l-7.67 0Z" id="p30w13" />
<path d="M612.98 503.25l24.3 0l0 13.52l-24.3 0Z" id="p30w14" />
<path d="M641 518.38l13.41 0l0 9.32l-13.41 0Z" id="p30w15" />
<path d="M529.55 587.29l26.41 0l0 13.63l-26.41 0Z" id="p30w16" />
<path d="M559.3 588.85l9.03 0l0 12.72l-9.03 0Z" id="p30w17" />
<path d="M571.67 589.5l15.99 0l0 13.08l-15.99 0Z" id="p30w18" />
<path d="M636.38 606.55l13.41 0l0 9.32l-13.41 0Z" id="p30w19" />
<path d="M532.79 525.59l28.56 0l0 13.74l-28.56 0Z" id="p30w20" />
<path d="M564.69 527.27l33.76 0l0 14.01l-33.76 0Z" id="p30w21" />
<path d="M532.06 539.47l9.79 0l0 12.76l-9.79 0Z" id="p30w22" />
<path d="M545.19 540.16l21.17 0l0 13.35l-21.17 0Z" id="p30w23" />
<path d="M569.7 541.44l41.16 0l0 14.4l-41.16 0Z" id="p30w24" />
<path d="M614.2 543.77l16.9 0l0 13.13l-16.9 0Z" id="p30w25" />
<path d="M531.33 553.34l20.17 0l0 13.3l-20.17 0Z" id="p30w26" />
<path d="M554.84 554.58l7.67 0l0 12.65l-7.67 0Z" id="p30w27" />
<path d="M565.85 555.15l39.14 0l0 14.29l-39.14 0Z" id="p30w28" />
<path d="M608.33 557.38l11.05 0l0 12.82l-11.05 0Z" id="p30w29" />
<path d="M622.72 558.13l20.71 0l0 13.33l-20.71 0Z" id="p30w30" />
<path d="M530.61 567.22l8.8 0l0 12.7l-8.8 0Z" id="p30w31" />
<path d="M542.74 567.85l18.77 0l0 13.23l-18.77 0Z" id="p30w32" />
<path d="M637.76 580.19l13.41 0l0 9.32l-13.41 0Z" id="p30w33" />
<path d="M528.16 613.86l46.35 0l0 14.67l-46.35 0Z" id="p30w34" />
<path d="M527.43 627.74l74.64 0l0 16.16l-74.64 0Z" id="p30w35" />
<path d="M634.41 644.12l13.41 0l0 9.32l-13.41 0Z" id="p30w36" />
<path d="M123.5 104.82l58.26 0l0 23.34l-58.26 0Z" id="p30w37" />
<path d="M186.83 104.82l23.67 0l0 23.34l-23.67 0Z" id="p30w38" />
<path d="M215.58 104.82l18.27 0l0 23.34l-18.27 0Z" id="p30w39" />
<path d="M238.92 104.82l86 0l0 23.34l-86 0Z" id="p30w40" />
<path d="M330 104.82l36.24 0l0 23.34l-36.24 0Z" id="p30w41" />
<path d="M371.31 104.82l111.4 0l0 23.34l-111.4 0Z" id="p30w42" />
<path d="M138.66 138.9l12.99 0l0 15.09l-12.99 0Z" id="p30w43" />
<path d="M155.27 138.9l22.36 0l0 15.09l-22.36 0Z" id="p30w44" />
<path d="M181.24 138.9l13.91 0l0 15.09l-13.91 0Z" id="p30w45" />
<path d="M198.76 138.9l10.42 0l0 15.09l-10.42 0Z" id="p30w46" />
<path d="M212.79 138.9l50.71 0l0 15.09l-50.71 0Z" id="p30w47" />
<path d="M277.22 138.9l22.13 0l0 15.09l-22.13 0Z" id="p30w48" />
<path d="M302.96 138.9l24.93 0l0 15.09l-24.93 0Z" id="p30w49" />
<path d="M331.51 138.9l15.89 0l0 15.09l-15.89 0Z" id="p30w50" />
<path d="M351 138.9l19.89 0l0 15.09l-19.89 0Z" id="p30w51" />
<path d="M374.51 138.9l10.5 0l0 15.09l-10.5 0Z" id="p30w52" />
<path d="M406.08 138.9l23.13 0l0 15.09l-23.13 0Z" id="p30w53" />
<path d="M432.79 138.9l25.24 0l0 15.09l-25.24 0Z" id="p30w54" />
<path d="M124.07 155.57l18.91 0l0 15.09l-18.91 0Z" id="p30w55" />
<path d="M146.55 155.57l48.36 0l0 15.09l-48.36 0Z" id="p30w56" />
<path d="M198.49 155.57l44.2 0l0 15.09l-44.2 0Z" id="p30w57" />
<path d="M246.26 155.57l42.81 0l0 15.09l-42.81 0Z" id="p30w58" />
<path d="M292.65 155.57l14.31 0l0 15.09l-14.31 0Z" id="p30w59" />
<path d="M310.54 155.57l41.33 0l0 15.09l-41.33 0Z" id="p30w60" />
<path d="M355.05 155.58l18.46 0l0 15.09l-18.46 0Z" id="p30w61" />
<path d="M377.12 155.58l59.02 0l0 15.09l-59.02 0Z" id="p30w62" />
<path d="M124.06 172.24l54.76 0l0 15.09l-54.76 0Z" id="p30w63" />
<path d="M182.44 172.24l47.82 0l0 15.09l-47.82 0Z" id="p30w64" />
<path d="M233.87 172.24l30.78 0l0 15.09l-30.78 0Z" id="p30w65" />
<path d="M268.26 172.24l11.26 0l0 15.09l-11.26 0Z" id="p30w66" />
<path d="M283.13 172.24l45.33 0l0 15.09l-45.33 0Z" id="p30w67" />
<path d="M332.07 172.24l27.23 0l0 15.09l-27.23 0Z" id="p30w68" />
<path d="M362.92 172.24l10.42 0l0 15.09l-10.42 0Z" id="p30w69" />
<path d="M376.95 172.24l19.68 0l0 15.09l-19.68 0Z" id="p30w70" />
<path d="M400.24 172.24l14.86 0l0 15.09l-14.86 0Z" id="p30w71" />
<path d="M418.71 172.24l27.23 0l0 15.09l-27.23 0Z" id="p30w72" />
<path d="M124.06 188.91l19.29 0l0 15.09l-19.29 0Z" id="p30w73" />
<path d="M146.96 188.91l32.23 0l0 15.09l-32.23 0Z" id="p30w74" />
<path d="M182.81 188.91l66.41 0l0 15.09l-66.41 0Z" id="p30w75" />
<path d="M252.83 188.91l16.64 0l0 15.09l-16.64 0Z" id="p30w76" />
<path d="M273.08 188.91l42.37 0l0 15.09l-42.37 0Z" id="p30w77" />
<path d="M326.2 188.91l15.89 0l0 15.09l-15.89 0Z" id="p30w78" />
<path d="M345.69 188.91l26.86 0l0 15.09l-26.86 0Z" id="p30w79" />
<path d="M376.17 188.91l41.87 0l0 15.09l-41.87 0Z" id="p30w80" />
<path d="M124.06 205.58l14.59 0l0 15.09l-14.59 0Z" id="p30w81" />
<path d="M142.26 205.58l41.4 0l0 15.09l-41.4 0Z" id="p30w82" />
<path d="M187.27 205.58l14.86 0l0 15.09l-14.86 0Z" id="p30w83" />
<path d="M205.74 205.58l25.69 0l0 15.09l-25.69 0Z" id="p30w84" />
<path d="M235.04 205.58l19.29 0l0 15.09l-19.29 0Z" id="p30w85" />
<path d="M257.94 205.58l27.81 0l0 15.09l-27.81 0Z" id="p30w86" />
<path d="M289.36 205.58l11.26 0l0 15.09l-11.26 0Z" id="p30w87" />
<path d="M304.23 205.58l24.38 0l0 15.09l-24.38 0Z" id="p30w88" />
<path d="M332.23 205.58l10.42 0l0 15.09l-10.42 0Z" id="p30w89" />
<path d="M346.26 205.58l22.36 0l0 15.09l-22.36 0Z" id="p30w90" />
<path d="M372.23 205.58l27.23 0l0 15.09l-27.23 0Z" id="p30w91" />
<path d="M403.08 205.58l10.42 0l0 15.09l-10.42 0Z" id="p30w92" />
<path d="M417.11 205.58l22.84 0l0 15.09l-22.84 0Z" id="p30w93" />
<path d="M136.34 222.25l31.78 0l0 15.09l-31.78 0Z" id="p30w94" />
<path d="M171.73 222.25l10.5 0l0 15.09l-10.5 0Z" id="p30w95" />
<path d="M185.84 222.25l35.81 0l0 15.09l-35.81 0Z" id="p30w96" />
<path d="M225.26 222.25l30.74 0l0 15.09l-30.74 0Z" id="p30w97" />
<path d="M259.61 222.25l118.1 0l0 15.09l-118.1 0Z" id="p30w98" />
<path d="M381.32 222.25l30.81 0l0 15.09l-30.81 0Z" id="p30w99" />
<path d="M124.06 238.92l10.42 0l0 15.09l-10.42 0Z" id="p30w100" />
<path d="M138.1 238.92l27.9 0l0 15.09l-27.9 0Z" id="p30w101" />
<path d="M169.61 238.92l43.85 0l0 15.09l-43.85 0Z" id="p30w102" />
<path d="M217.07 238.92l16.14 0l0 15.09l-16.14 0Z" id="p30w103" />
<path d="M236.83 238.92l24.24 0l0 15.09l-24.24 0Z" id="p30w104" />
<path d="M264.68 238.92l10.5 0l0 15.09l-10.5 0Z" id="p30w105" />
<path d="M278.79 238.92l41.09 0l0 15.09l-41.09 0Z" id="p30w106" />
<path d="M323.49 238.92l26.56 0l0 15.09l-26.56 0Z" id="p30w107" />
<path d="M353.66 238.92l42 0l0 15.09l-42 0Z" id="p30w108" />
<path d="M399.27 238.92l27.07 0l0 15.09l-27.07 0Z" id="p30w109" />
<path d="M138.66 272.27l28.41 0l0 15.09l-28.41 0Z" id="p30w110" />
<path d="M170.69 272.27l10.5 0l0 15.09l-10.5 0Z" id="p30w111" />
<path d="M184.8 272.27l41.28 0l0 15.09l-41.28 0Z" id="p30w112" />
<path d="M229.69 272.27l18.46 0l0 15.09l-18.46 0Z" id="p30w113" />
<path d="M251.76 272.27l64.34 0l0 15.09l-64.34 0Z" id="p30w114" />
<path d="M329.81 272.27l28.89 0l0 15.09l-28.89 0Z" id="p30w115" />
<path d="M362.31 272.27l52.2 0l0 15.09l-52.2 0Z" id="p30w116" />
<path d="M428.23 272.27l10.42 0l0 15.09l-10.42 0Z" id="p30w117" />
<path d="M124.06 288.94l22.36 0l0 15.09l-22.36 0Z" id="p30w118" />
<path d="M150.04 288.94l13.91 0l0 15.09l-13.91 0Z" id="p30w119" />
<path d="M167.55 288.94l10.42 0l0 15.09l-10.42 0Z" id="p30w120" />
<path d="M181.59 288.94l50.71 0l0 15.09l-50.71 0Z" id="p30w121" />
<path d="M235.91 288.94l21.42 0l0 15.09l-21.42 0Z" id="p30w122" />
<path d="M260.95 288.94l67.77 0l0 15.09l-67.77 0Z" id="p30w123" />
<path d="M332.33 288.94l18.46 0l0 15.09l-18.46 0Z" id="p30w124" />
<path d="M354.4 288.94l67.9 0l0 15.09l-67.9 0Z" id="p30w125" />
<path d="M124.06 305.61l26.3 0l0 15.09l-26.3 0Z" id="p30w126" />
<path d="M153.97 305.61l10.5 0l0 15.09l-10.5 0Z" id="p30w127" />
<path d="M168.08 305.61l41.28 0l0 15.09l-41.28 0Z" id="p30w128" />
<path d="M212.97 305.61l13.91 0l0 15.09l-13.91 0Z" id="p30w129" />
<path d="M230.49 305.61l45.77 0l0 15.09l-45.77 0Z" id="p30w130" />
<path d="M279.87 305.61l35.75 0l0 15.09l-35.75 0Z" id="p30w131" />
<path d="M319.23 305.61l35.57 0l0 15.09l-35.57 0Z" id="p30w132" />
<path d="M358.42 305.61l24.29 0l0 15.09l-24.29 0Z" id="p30w133" />
<path d="M386.32 305.61l46.86 0l0 15.09l-46.86 0Z" id="p30w134" />
<path d="M124.06 322.28l13.07 0l0 15.09l-13.07 0Z" id="p30w135" />
<path d="M140.74 322.28l41.28 0l0 15.09l-41.28 0Z" id="p30w136" />
<path d="M185.64 322.28l16.64 0l0 15.09l-16.64 0Z" id="p30w137" />
<path d="M205.89 322.28l37.32 0l0 15.09l-37.32 0Z" id="p30w138" />
<path d="M253.96 322.28l7.84 0l0 15.09l-7.84 0Z" id="p30w139" />
<path d="M265.41 322.28l34.33 0l0 15.09l-34.33 0Z" id="p30w140" />
<path d="M303.35 322.28l38.5 0l0 15.09l-38.5 0Z" id="p30w141" />
<path d="M345.46 322.28l61.48 0l0 15.09l-61.48 0Z" id="p30w142" />
<path d="M410.56 322.28l16.5 0l0 15.09l-16.5 0Z" id="p30w143" />
<path d="M430.67 322.28l32.01 0l0 15.09l-32.01 0Z" id="p30w144" />
<path d="M124.06 338.95l27.81 0l0 15.09l-27.81 0Z" id="p30w145" />
<path d="M155.49 338.95l15.89 0l0 15.09l-15.89 0Z" id="p30w146" />
<path d="M174.98 338.95l44.61 0l0 15.09l-44.61 0Z" id="p30w147" />
<path d="M223.2 338.95l19.84 0l0 15.09l-19.84 0Z" id="p30w148" />
<path d="M246.66 338.95l24.37 0l0 15.09l-24.37 0Z" id="p30w149" />
<path d="M274.64 338.95l16.5 0l0 15.09l-16.5 0Z" id="p30w150" />
<path d="M294.75 338.95l57.77 0l0 15.09l-57.77 0Z" id="p30w151" />
<path d="M356.13 338.95l12.22 0l0 15.09l-12.22 0Z" id="p30w152" />
<path d="M371.96 338.95l23.94 0l0 15.09l-23.94 0Z" id="p30w153" />
<path d="M399.52 338.95l24.73 0l0 15.09l-24.73 0Z" id="p30w154" />
<path d="M124.06 355.62l36 0l0 15.09l-36 0Z" id="p30w155" />
<path d="M163.67 355.62l10.5 0l0 15.09l-10.5 0Z" id="p30w156" />
<path d="M177.78 355.62l34.12 0l0 15.09l-34.12 0Z" id="p30w157" />
<path d="M215.52 355.62l21.81 0l0 15.09l-21.81 0Z" id="p30w158" />
<path d="M248.07 355.62l23.61 0l0 15.09l-23.61 0Z" id="p30w159" />
<path d="M275.29 355.62l47.42 0l0 15.09l-47.42 0Z" id="p30w160" />
<path d="M326.33 355.62l43.98 0l0 15.09l-43.98 0Z" id="p30w161" />
<path d="M373.92 355.62l14.59 0l0 15.09l-14.59 0Z" id="p30w162" />
<path d="M392.12 355.62l36.63 0l0 15.09l-36.63 0Z" id="p30w163" />
<path d="M432.36 355.62l18.49 0l0 15.09l-18.49 0Z" id="p30w164" />
<path d="M124.06 372.29l10.42 0l0 15.09l-10.42 0Z" id="p30w165" />
<path d="M138.1 372.29l30.66 0l0 15.09l-30.66 0Z" id="p30w166" />
<path d="M172.37 372.29l61.91 0l0 15.09l-61.91 0Z" id="p30w167" />
<path d="M237.89 372.29l12.99 0l0 15.09l-12.99 0Z" id="p30w168" />
<path d="M254.5 372.29l34.94 0l0 15.09l-34.94 0Z" id="p30w169" />
<path d="M303.15 372.29l22.03 0l0 15.09l-22.03 0Z" id="p30w170" />
<path d="M328.79 372.29l22.45 0l0 15.09l-22.45 0Z" id="p30w171" />
<path d="M354.86 372.29l68.09 0l0 15.09l-68.09 0Z" id="p30w172" />
<path d="M426.56 372.29l27.81 0l0 15.09l-27.81 0Z" id="p30w173" />
<path d="M124.06 388.95l88.87 0l0 15.09l-88.87 0Z" id="p30w174" />
<path d="M216.55 388.95l24.24 0l0 15.09l-24.24 0Z" id="p30w175" />
<path d="M244.4 388.95l25.59 0l0 15.09l-25.59 0Z" id="p30w176" />
<path d="M273.6 388.95l25.88 0l0 15.09l-25.88 0Z" id="p30w177" />
<path d="M303.09 388.95l47.17 0l0 15.09l-47.17 0Z" id="p30w178" />
<path d="M138.66 422.3l45.77 0l0 15.09l-45.77 0Z" id="p30w179" />
<path d="M188.04 422.3l32.19 0l0 15.09l-32.19 0Z" id="p30w180" />
<path d="M223.85 422.3l11.26 0l0 15.09l-11.26 0Z" id="p30w181" />
<path d="M238.71 422.3l15.89 0l0 15.09l-15.89 0Z" id="p30w182" />
<path d="M258.21 422.3l8.21 0l0 15.09l-8.21 0Z" id="p30w183" />
<path d="M266.42 422.3l19.82 0l0 15.09l-19.82 0Z" id="p30w184" />
<path d="M289.85 422.3l42.71 0l0 15.09l-42.71 0Z" id="p30w185" />
<path d="M336.17 422.3l70.42 0l0 15.09l-70.42 0Z" id="p30w186" />
<path d="M141.84 438.97l39.71 0l0 15.09l-39.71 0Z" id="p30w187" />
<path d="M185.16 438.97l18.49 0l0 15.09l-18.49 0Z" id="p30w188" />
<path d="M207.27 438.97l10.42 0l0 15.09l-10.42 0Z" id="p30w189" />
<path d="M221.3 438.97l30.66 0l0 15.09l-30.66 0Z" id="p30w190" />
<path d="M255.58 438.97l58.75 0l0 15.09l-58.75 0Z" id="p30w191" />
<path d="M317.93 438.97l27.82 0l0 15.09l-27.82 0Z" id="p30w192" />
<path d="M349.37 438.97l22.31 0l0 15.09l-22.31 0Z" id="p30w193" />
<path d="M375.29 438.97l49.29 0l0 15.09l-49.29 0Z" id="p30w194" />
<path d="M124.06 455.64l57.81 0l0 15.09l-57.81 0Z" id="p30w195" />
<path d="M185.48 455.64l31.91 0l0 15.09l-31.91 0Z" id="p30w196" />
<path d="M221 455.64l23.35 0l0 15.09l-23.35 0Z" id="p30w197" />
<path d="M247.97 455.64l43.53 0l0 15.09l-43.53 0Z" id="p30w198" />
<path d="M322.79 455.64l42.82 0l0 15.09l-42.82 0Z" id="p30w199" />
<path d="M369.23 455.64l27.81 0l0 15.09l-27.81 0Z" id="p30w200" />
<path d="M124.06 472.31l39.97 0l0 15.09l-39.97 0Z" id="p30w201" />
<path d="M167.64 472.31l47.26 0l0 15.09l-47.26 0Z" id="p30w202" />
<path d="M218.51 472.31l10.42 0l0 15.09l-10.42 0Z" id="p30w203" />
<path d="M232.55 472.31l63.18 0l0 15.09l-63.18 0Z" id="p30w204" />
<path d="M299.34 472.31l37.93 0l0 15.09l-37.93 0Z" id="p30w205" />
<path d="M340.88 472.31l49.15 0l0 15.09l-49.15 0Z" id="p30w206" />
<path d="M393.63 472.31l19.46 0l0 15.09l-19.46 0Z" id="p30w207" />
<path d="M416.7 472.31l10.42 0l0 15.09l-10.42 0Z" id="p30w208" />
<path d="M124.06 488.98l85.99 0l0 15.09l-85.99 0Z" id="p30w209" />
<path d="M213.67 488.98l21 0l0 15.09l-21 0Z" id="p30w210" />
<path d="M238.28 488.98l28.12 0l0 15.09l-28.12 0Z" id="p30w211" />
<path d="M270.01 488.98l25.4 0l0 15.09l-25.4 0Z" id="p30w212" />
<path d="M299.02 488.98l48.32 0l0 15.09l-48.32 0Z" id="p30w213" />
<path d="M350.95 488.98l13.91 0l0 15.09l-13.91 0Z" id="p30w214" />
<path d="M368.47 488.98l39.42 0l0 15.09l-39.42 0Z" id="p30w215" />
<path d="M411.5 488.98l27.81 0l0 15.09l-27.81 0Z" id="p30w216" />
<path d="M124.06 505.65l23.45 0l0 15.09l-23.45 0Z" id="p30w217" />
<path d="M151.13 505.65l42.21 0l0 15.09l-42.21 0Z" id="p30w218" />
<path d="M196.95 505.65l26.35 0l0 15.09l-26.35 0Z" id="p30w219" />
<path d="M226.9 505.65l85.9 0l0 15.09l-85.9 0Z" id="p30w220" />
<path d="M316.42 505.65l39.37 0l0 15.09l-39.37 0Z" id="p30w221" />
<path d="M359.39 505.65l11.26 0l0 15.09l-11.26 0Z" id="p30w222" />
<path d="M374.26 505.65l53.14 0l0 15.09l-53.14 0Z" id="p30w223" />
<path d="M124.06 522.32l25.28 0l0 15.09l-25.28 0Z" id="p30w224" />
<path d="M152.95 522.32l28.52 0l0 15.09l-28.52 0Z" id="p30w225" />
<path d="M185.08 522.32l20.54 0l0 15.09l-20.54 0Z" id="p30w226" />
<path d="M209.23 522.32l52.33 0l0 15.09l-52.33 0Z" id="p30w227" />
<path d="M138.66 555.67l42.21 0l0 15.09l-42.21 0Z" id="p30w228" />
<path d="M184.48 555.67l14.59 0l0 15.09l-14.59 0Z" id="p30w229" />
<path d="M202.68 555.67l33.5 0l0 15.09l-33.5 0Z" id="p30w230" />
<path d="M239.79 555.67l24.62 0l0 15.09l-24.62 0Z" id="p30w231" />
<path d="M268.03 555.67l26.14 0l0 15.09l-26.14 0Z" id="p30w232" />
<path d="M297.78 555.67l30.05 0l0 15.09l-30.05 0Z" id="p30w233" />
<path d="M331.44 555.67l29.29 0l0 15.09l-29.29 0Z" id="p30w234" />
<path d="M364.34 555.67l18.46 0l0 15.09l-18.46 0Z" id="p30w235" />
<path d="M386.41 555.67l51.88 0l0 15.09l-51.88 0Z" id="p30w236" />
<path d="M441.9 555.67l13.22 0l0 15.09l-13.22 0Z" id="p30w237" />
<path d="M124.06 572.34l50.25 0l0 15.09l-50.25 0Z" id="p30w238" />
<path d="M177.93 572.34l23.21 0l0 15.09l-23.21 0Z" id="p30w239" />
<path d="M204.75 572.34l18.49 0l0 15.09l-18.49 0Z" id="p30w240" />
<path d="M226.85 572.34l32.63 0l0 15.09l-32.63 0Z" id="p30w241" />
<path d="M263.1 572.34l11.26 0l0 15.09l-11.26 0Z" id="p30w242" />
<path d="M277.96 572.34l25.28 0l0 15.09l-25.28 0Z" id="p30w243" />
<path d="M306.86 572.34l23.61 0l0 15.09l-23.61 0Z" id="p30w244" />
<path d="M334.08 572.34l63.18 0l0 15.09l-63.18 0Z" id="p30w245" />
<path d="M400.87 572.34l12.58 0l0 15.09l-12.58 0Z" id="p30w246" />
<path d="M417.06 572.34l29.44 0l0 15.09l-29.44 0Z" id="p30w247" />
<path d="M124.06 589.01l56.37 0l0 15.09l-56.37 0Z" id="p30w248" />
<path d="M184.04 589.01l23.21 0l0 15.09l-23.21 0Z" id="p30w249" />
<path d="M210.86 589.01l22.31 0l0 15.09l-22.31 0Z" id="p30w250" />
<path d="M236.79 589.01l68.59 0l0 15.09l-68.59 0Z" id="p30w251" />
<path d="M315.94 589.01l8.02 0l0 15.09l-8.02 0Z" id="p30w252" />
<path d="M327.57 589.01l33.98 0l0 15.09l-33.98 0Z" id="p30w253" />
<path d="M365.17 589.01l43.56 0l0 15.09l-43.56 0Z" id="p30w254" />
<path d="M412.33 589.01l22.31 0l0 15.09l-22.31 0Z" id="p30w255" />
<path d="M124.06 605.68l51.09 0l0 15.09l-51.09 0Z" id="p30w256" />
<path d="M124.06 632.81l33.55 0l0 12.29l-33.55 0Z" id="p30w257" />
<path d="M166.84 630.75l39.74 0l0 15.09l-39.74 0Z" id="p30w258" />
<path d="M210.19 630.75l38.49 0l0 15.09l-38.49 0Z" id="p30w259" />
<path d="M252.3 630.75l12.41 0l0 15.09l-12.41 0Z" id="p30w260" />
<path d="M268.32 630.75l23.76 0l0 15.09l-23.76 0Z" id="p30w261" />
<path d="M295.7 630.75l45.33 0l0 15.09l-45.33 0Z" id="p30w262" />
<path d="M354.74 630.75l10.42 0l0 15.09l-10.42 0Z" id="p30w263" />
<path d="M368.77 630.75l30.66 0l0 15.09l-30.66 0Z" id="p30w264" />
<path d="M403.05 630.75l13.91 0l0 15.09l-13.91 0Z" id="p30w265" />
<path d="M420.57 630.75l43.7 0l0 15.09l-43.7 0Z" id="p30w266" />
<path d="M124.06 649.48l28.28 0l0 12.29l-28.28 0Z" id="p30w267" />
<path d="M161.57 647.42l22.34 0l0 15.09l-22.34 0Z" id="p30w268" />
<path d="M207.56 647.42l15.01 0l0 15.09l-15.01 0Z" id="p30w269" />
<path d="M226.18 647.42l13.16 0l0 15.09l-13.16 0Z" id="p30w270" />
<path d="M242.95 647.42l23.02 0l0 15.09l-23.02 0Z" id="p30w271" />
<path d="M269.58 647.42l23.17 0l0 15.09l-23.17 0Z" id="p30w272" />
<path d="M308.79 647.42l10.63 0l0 15.09l-10.63 0Z" id="p30w273" />
<path d="M323.03 647.42l39.94 0l0 15.09l-39.94 0Z" id="p30w274" />
<path d="M366.59 647.42l43.85 0l0 15.09l-43.85 0Z" id="p30w275" />
<path d="M414.05 647.42l22.31 0l0 15.09l-22.31 0Z" id="p30w276" />
<path d="M135.88 664.09l56.1 0l0 15.09l-56.1 0Z" id="p30w277" />
<path d="M124.06 682.83l33.55 0l0 12.29l-33.55 0Z" id="p30w278" />
<path d="M166.84 680.77l29.98 0l0 15.09l-29.98 0Z" id="p30w279" />
<path d="M200.44 680.77l13.98 0l0 15.09l-13.98 0Z" id="p30w280" />
<path d="M218.03 680.77l10.54 0l0 15.09l-10.54 0Z" id="p30w281" />
<path d="M232.18 680.77l14.59 0l0 15.09l-14.59 0Z" id="p30w282" />
<path d="M250.38 680.77l11.26 0l0 15.09l-11.26 0Z" id="p30w283" />
<path d="M265.25 680.77l27.9 0l0 15.09l-27.9 0Z" id="p30w284" />
<path d="M296.76 680.77l23.02 0l0 15.09l-23.02 0Z" id="p30w285" />
<path d="M323.39 680.77l10.54 0l0 15.09l-10.54 0Z" id="p30w286" />
<path d="M337.54 680.77l22.4 0l0 15.09l-22.4 0Z" id="p30w287" />
<path d="M363.55 680.77l18.49 0l0 15.09l-18.49 0Z" id="p30w288" />
<path d="M385.66 680.77l21.67 0l0 15.09l-21.67 0Z" id="p30w289" />
<path d="M410.94 680.77l12.41 0l0 15.09l-12.41 0Z" id="p30w290" />
<path d="M135.88 697.44l45.33 0l0 15.09l-45.33 0Z" id="p30w291" />
<path d="M184.82 697.44l29.05 0l0 15.09l-29.05 0Z" id="p30w292" />
<path d="M124.06 716.18l26.25 0l0 12.29l-26.25 0Z" id="p30w293" />
<path d="M159.55 714.11l38.49 0l0 15.09l-38.49 0Z" id="p30w294" />
<path d="M201.65 714.11l15.15 0l0 15.09l-15.15 0Z" id="p30w295" />
<path d="M220.42 714.11l20.47 0l0 15.09l-20.47 0Z" id="p30w296" />
<path d="M244.5 714.11l21.67 0l0 15.09l-21.67 0Z" id="p30w297" />
<path d="M269.78 714.11l26.3 0l0 15.09l-26.3 0Z" id="p30w298" />
<path d="M299.69 714.11l19.46 0l0 15.09l-19.46 0Z" id="p30w299" />
<path d="M322.76 714.11l47.32 0l0 15.09l-47.32 0Z" id="p30w300" />
<path d="M373.69 714.11l27.81 0l0 15.09l-27.81 0Z" id="p30w301" />
<path d="M405.11 714.11l15.15 0l0 15.09l-15.15 0Z" id="p30w302" />
<path d="M135.88 730.78l27.21 0l0 15.09l-27.21 0Z" id="p30w303" />
<path d="M166.7 730.78l14.59 0l0 15.09l-14.59 0Z" id="p30w304" />
<path d="M184.89 730.78l15.73 0l0 15.09l-15.73 0Z" id="p30w305" />
<path d="M211.19 730.78l17.38 0l0 15.09l-17.38 0Z" id="p30w306" />
<path d="M232.18 730.78l13.16 0l0 15.09l-13.16 0Z" id="p30w307" />
<path d="M248.95 730.78l43.83 0l0 15.09l-43.83 0Z" id="p30w308" />
<path d="M296.39 730.78l56.46 0l0 15.09l-56.46 0Z" id="p30w309" />
<path d="M356.46 730.78l18.49 0l0 15.09l-18.49 0Z" id="p30w310" />
<path d="M378.56 730.78l36.19 0l0 15.09l-36.19 0Z" id="p30w311" />
<path d="M135.88 747.45l12.58 0l0 15.09l-12.58 0Z" id="p30w312" />
<path d="M152.07 747.45l13.16 0l0 15.09l-13.16 0Z" id="p30w313" />
<path d="M168.84 747.45l26.31 0l0 15.09l-26.31 0Z" id="p30w314" />
<path d="M138.67 780.8l18.46 0l0 15.09l-18.46 0Z" id="p30w315" />
<path d="M160.73 780.8l26.5 0l0 15.09l-26.5 0Z" id="p30w316" />
<path d="M190.85 780.8l44.61 0l0 15.09l-44.61 0Z" id="p30w317" />
<path d="M239.07 780.8l25.23 0l0 15.09l-25.23 0Z" id="p30w318" />
<path d="M267.91 780.8l97.26 0l0 15.09l-97.26 0Z" id="p30w319" />
<path d="M368.78 780.8l43.83 0l0 15.09l-43.83 0Z" id="p30w320" />
<path d="M416.22 780.8l18.49 0l0 15.09l-18.49 0Z" id="p30w321" />
<path d="M124.07 797.47l35.79 0l0 15.09l-35.79 0Z" id="p30w322" />
<path d="M163.47 797.47l29.29 0l0 15.09l-29.29 0Z" id="p30w323" />
<path d="M196.37 797.47l10.5 0l0 15.09l-10.5 0Z" id="p30w324" />
<path d="M210.48 797.47l40.19 0l0 15.09l-40.19 0Z" id="p30w325" />
<path d="M254.28 797.47l13.22 0l0 15.09l-13.22 0Z" id="p30w326" />
<path d="M271.12 797.47l19.84 0l0 15.09l-19.84 0Z" id="p30w327" />
<path d="M294.57 797.47l21.84 0l0 15.09l-21.84 0Z" id="p30w328" />
<path d="M320.02 797.47l48.94 0l0 15.09l-48.94 0Z" id="p30w329" />
<path d="M372.57 797.47l30.01 0l0 15.09l-30.01 0Z" id="p30w330" />
<path d="M406.19 797.47l46.59 0l0 15.09l-46.59 0Z" id="p30w331" />
<path d="M124.07 814.14l13.91 0l0 15.09l-13.91 0Z" id="p30w332" />
<path d="M141.58 814.14l23.61 0l0 15.09l-23.61 0Z" id="p30w333" />
<path d="M168.8 814.14l33.02 0l0 15.09l-33.02 0Z" id="p30w334" />
<path d="M205.43 814.14l32.19 0l0 15.09l-32.19 0Z" id="p30w335" />
<path d="M251.34 814.14l34.12 0l0 15.09l-34.12 0Z" id="p30w336" />
<path d="M304.65 814.14l10.71 0l0 15.09l-10.71 0Z" id="p30w337" />
<path d="M318.97 814.14l15.15 0l0 15.09l-15.15 0Z" id="p30w338" />
<path d="M337.73 814.14l23.13 0l0 15.09l-23.13 0Z" id="p30w339" />
<path d="M364.48 814.14l12.66 0l0 15.09l-12.66 0Z" id="p30w340" />
<path d="M380.75 814.14l47.54 0l0 15.09l-47.54 0Z" id="p30w341" />
<path d="M124.07 830.81l12.58 0l0 15.09l-12.58 0Z" id="p30w342" />
<path d="M140.26 830.81l13.16 0l0 15.09l-13.16 0Z" id="p30w343" />
<path d="M157.03 830.81l23.21 0l0 15.09l-23.21 0Z" id="p30w344" />
<path d="M183.85 830.81l24.79 0l0 15.09l-24.79 0Z" id="p30w345" />
<path d="M212.26 830.81l10.42 0l0 15.09l-10.42 0Z" id="p30w346" />
<path d="M226.29 830.81l47.53 0l0 15.09l-47.53 0Z" id="p30w347" />
<path d="M285.89 830.81l35.57 0l0 15.09l-35.57 0Z" id="p30w348" />
<path d="M335.17 830.81l64.53 0l0 15.09l-64.53 0Z" id="p30w349" />
<path d="M413.42 830.81l45.33 0l0 15.09l-45.33 0Z" id="p30w350" />
<path d="M124.07 847.48l23.61 0l0 15.09l-23.61 0Z" id="p30w351" />
<path d="M151.29 847.48l53.99 0l0 15.09l-53.99 0Z" id="p30w352" />
<path d="M208.89 847.48l62.25 0l0 15.09l-62.25 0Z" id="p30w353" />
<path d="M274.76 847.48l11.26 0l0 15.09l-11.26 0Z" id="p30w354" />
<path d="M289.63 847.48l13.98 0l0 15.09l-13.98 0Z" id="p30w355" />
<path d="M307.22 847.48l10.42 0l0 15.09l-10.42 0Z" id="p30w356" />
<path d="M321.25 847.48l36.8 0l0 15.09l-36.8 0Z" id="p30w357" />
<path d="M361.66 847.48l35.57 0l0 15.09l-35.57 0Z" id="p30w358" />
<path d="M400.85 847.48l26.35 0l0 15.09l-26.35 0Z" id="p30w359" />
<path d="M124.07 864.15l32.64 0l0 15.09l-32.64 0Z" id="p30w360" />
<path d="M160.32 864.15l14.21 0l0 15.09l-14.21 0Z" id="p30w361" />
<path d="M178.15 864.15l41.83 0l0 15.09l-41.83 0Z" id="p30w362" />
<path d="M223.59 864.15l27.81 0l0 15.09l-27.81 0Z" id="p30w363" />
<path d="M255.02 864.15l21 0l0 15.09l-21 0Z" id="p30w364" />
<path d="M279.63 864.15l48.46 0l0 15.09l-48.46 0Z" id="p30w365" />
<path d="M331.7 864.15l53.76 0l0 15.09l-53.76 0Z" id="p30w366" />
<path d="M389.07 864.15l43.85 0l0 15.09l-43.85 0Z" id="p30w367" />
<path d="M124.07 880.82l22.31 0l0 15.09l-22.31 0Z" id="p30w368" />
<path d="M149.99 880.82l65.97 0l0 15.09l-65.97 0Z" id="p30w369" />
<path d="M219.57 880.82l21.35 0l0 15.09l-21.35 0Z" id="p30w370" />
<path d="M244.53 880.82l60.04 0l0 15.09l-60.04 0Z" id="p30w371" />
<path d="M308.18 880.82l19.84 0l0 15.09l-19.84 0Z" id="p30w372" />
<path d="M331.64 880.82l21.84 0l0 15.09l-21.84 0Z" id="p30w373" />
<path d="M367.21 880.82l35.57 0l0 15.09l-35.57 0Z" id="p30w374" />
<path d="M406.4 880.82l16.64 0l0 15.09l-16.64 0Z" id="p30w375" />
<path d="M124.07 897.49l49.45 0l0 15.09l-49.45 0Z" id="p30w376" />
<path d="M177.13 897.49l30.81 0l0 15.09l-30.81 0Z" id="p30w377" />
<path d="M211.55 897.49l33.7 0l0 15.09l-33.7 0Z" id="p30w378" />
<path d="M248.86 897.49l11.26 0l0 15.09l-11.26 0Z" id="p30w379" />
<path d="M273.83 897.49l35.09 0l0 15.09l-35.09 0Z" id="p30w380" />
<path d="M312.53 897.49l13.91 0l0 15.09l-13.91 0Z" id="p30w381" />
<path d="M330.04 897.49l47.85 0l0 15.09l-47.85 0Z" id="p30w382" />
<path d="M381.5 897.49l42.21 0l0 15.09l-42.21 0Z" id="p30w383" />
<path d="M124.07 914.16l40.55 0l0 15.09l-40.55 0Z" id="p30w384" />
<path d="M168.23 914.16l24.37 0l0 15.09l-24.37 0Z" id="p30w385" />
<path d="M196.2 914.16l40.34 0l0 15.09l-40.34 0Z" id="p30w386" />
<path d="M240.16 914.16l10.42 0l0 15.09l-10.42 0Z" id="p30w387" />
<path d="M254.19 914.16l32.63 0l0 15.09l-32.63 0Z" id="p30w388" />
<path d="M290.44 914.16l36.95 0l0 15.09l-36.95 0Z" id="p30w389" />
<path d="M331 914.16l32.19 0l0 15.09l-32.19 0Z" id="p30w390" />
<path d="M376.9 914.16l22.26 0l0 15.09l-22.26 0Z" id="p30w391" />
<path d="M402.77 914.16l10.5 0l0 15.09l-10.5 0Z" id="p30w392" />
<path d="M416.89 914.16l47.58 0l0 15.09l-47.58 0Z" id="p30w393" />
<path d="M64.18 100.04l24.43 0l0 12.3l-24.43 0Z" id="p30w394" />
<path d="M124.06 39.02l42.71 0l0 15.38l-42.71 0Z" id="p30w395" />
<path d="M208.73 38.6l45.75 0l0 16.09l-45.75 0Z" id="p30w396" />
<path d="M306.51 39.02l43.21 0l0 15.38l-43.21 0Z" id="p30w397" />
<path d="M414.03 39.02l28.68 0l0 15.38l-28.68 0Z" id="p30w398" />
<path d="M446.08 39.02l45.07 0l0 15.38l-45.07 0Z" id="p30w399" />
<path d="M522.82 39.02l32.54 0l0 15.38l-32.54 0Z" id="p30w400" />
<path d="M76.9 983l45.35 0l0 12.23l-45.35 0Z" id="p30w401" />
</svg>
