<?xml version="1.0" encoding="UTF-8"?>
<svg xmlns="http://www.w3.org/2000/svg" xmlns:xlink="http://www.w3.org/1999/xlink" version="1.1" baseProfile="full" width="768" height="1024" viewBox="0,0,768,1024" preserveAspectRatio="xMinYMin meet" >
<style type="text/css">
<![CDATA[
path {fill-opacity: 0.5;fill: #00aeef;visibility: hidden;}
]]>
</style>
<path d="M124.06 38.6l71 0l0 16.09l-71 0Z" id="p194w1" />
<path d="M78.77 983.66l112.74 0l0 12.23l-112.74 0Z" id="p194w2" />
<path d="M124.06 110.01l98.26 0l0 14.6l-98.26 0Z" id="p194w3" />
<path d="M124.06 125.44l94.16 0l0 16.35l-94.16 0Z" id="p194w4" />
<path d="M297.36 110.09l63.74 0l0 14.52l-63.74 0Z" id="p194w5" />
<path d="M500.19 114.41l39.72 0l0 14.61l-39.72 0Z" id="p194w6" />
<path d="M124.06 144.82l14.31 0l0 14.6l-14.31 0Z" id="p194w7" />
<path d="M141.58 144.82l46.95 0l0 14.6l-46.95 0Z" id="p194w8" />
<path d="M191.83 143.58l43.87 0l0 16.35l-43.87 0Z" id="p194w9" />
<path d="M297.35 144.9l17.11 0l0 14.52l-17.11 0Z" id="p194w10" />
<path d="M317.67 144.9l57.21 0l0 14.52l-57.21 0Z" id="p194w11" />
<path d="M500.69 144.84l51.75 0l0 14.61l-51.75 0Z" id="p194w12" />
<path d="M124.06 165.53l20.99 0l0 14.6l-20.99 0Z" id="p194w13" />
<path d="M148.25 165.53l28.17 0l0 14.6l-28.17 0Z" id="p194w14" />
<path d="M179.63 165.53l41.27 0l0 14.6l-41.27 0Z" id="p194w15" />
<path d="M124.06 180.96l77.68 0l0 16.35l-77.68 0Z" id="p194w16" />
<path d="M297.35 165.61l23.79 0l0 14.52l-23.79 0Z" id="p194w17" />
<path d="M324.34 165.61l52.65 0l0 14.52l-52.65 0Z" id="p194w18" />
<path d="M482.46 165.61l31.55 0l0 14.52l-31.55 0Z" id="p194w19" />
<path d="M517.21 165.61l20.85 0l0 14.52l-20.85 0Z" id="p194w20" />
<path d="M541.27 165.61l28.33 0l0 14.52l-28.33 0Z" id="p194w21" />
<path d="M572.81 165.61l40.89 0l0 14.52l-40.89 0Z" id="p194w22" />
<path d="M626.79 165.61l23.24 0l0 14.52l-23.24 0Z" id="p194w23" />
<path d="M653.24 165.61l41.82 0l0 14.52l-41.82 0ZM482.46 182.28l45.17 0l0 14.52l-45.17 0Z" id="p194w24" />
<path d="M124.06 200.39l6.07 0l0 14.6l-6.07 0Z" id="p194w25" />
<path d="M130.13 200.39l18.04 0l0 14.6l-18.04 0Z" id="p194w26" />
<path d="M176.59 199.15l28.44 0l0 16.35l-28.44 0Z" id="p194w27" />
<path d="M297.35 200.43l18.44 0l0 14.52l-18.44 0Z" id="p194w28" />
<path d="M319 200.43l47.04 0l0 14.52l-47.04 0Z" id="p194w29" />
<path d="M124.06 221.06l38.41 0l0 14.6l-38.41 0Z" id="p194w30" />
<path d="M165.77 219.82l34.6 0l0 16.35l-34.6 0Z" id="p194w31" />
<path d="M297.35 221.14l49.42 0l0 14.52l-49.42 0Z" id="p194w32" />
<path d="M349.98 221.14l14.16 0l0 14.52l-14.16 0Z" id="p194w33" />
<path d="M367.35 221.14l34.48 0l0 14.52l-34.48 0Z" id="p194w34" />
<path d="M482.46 221.14l14.18 0l0 14.52l-14.18 0Z" id="p194w35" />
<path d="M499.84 221.14l20.58 0l0 14.52l-20.58 0Z" id="p194w36" />
<path d="M523.63 221.14l36.98 0l0 14.52l-36.98 0Z" id="p194w37" />
<path d="M563.82 221.14l36.34 0l0 14.52l-36.34 0Z" id="p194w38" />
<path d="M603.36 221.14l9.89 0l0 14.52l-9.89 0Z" id="p194w39" />
<path d="M616.46 221.14l41.97 0l0 14.52l-41.97 0Z" id="p194w40" />
<path d="M661.64 221.14l40.9 0l0 14.52l-40.9 0Z" id="p194w41" />
<path d="M124.06 241.77l20.99 0l0 14.6l-20.99 0Z" id="p194w42" />
<path d="M148.25 241.77l50.38 0l0 14.6l-50.38 0Z" id="p194w43" />
<path d="M201.93 240.53l52.44 0l0 16.35l-52.44 0Z" id="p194w44" />
<path d="M297.35 241.85l23.79 0l0 14.52l-23.79 0Z" id="p194w45" />
<path d="M324.34 241.85l53.47 0l0 14.52l-53.47 0Z" id="p194w46" />
<path d="M124.06 262.48l10.02 0l0 14.6l-10.02 0Z" id="p194w47" />
<path d="M137.28 262.48l32.81 0l0 14.6l-32.81 0Z" id="p194w48" />
<path d="M173.4 261.24l47.37 0l0 16.35l-47.37 0Z" id="p194w49" />
<path d="M297.35 262.56l18.44 0l0 14.52l-18.44 0Z" id="p194w50" />
<path d="M319 262.56l32.58 0l0 14.52l-32.58 0Z" id="p194w51" />
<path d="M354.78 262.56l19.51 0l0 14.52l-19.51 0Z" id="p194w52" />
<path d="M377.5 262.56l66.29 0l0 14.52l-66.29 0Z" id="p194w53" />
<path d="M493.41 262.56l53.44 0l0 14.52l-53.44 0Z" id="p194w54" />
<path d="M550.07 262.56l14.18 0l0 14.52l-14.18 0Z" id="p194w55" />
<path d="M567.45 262.56l25.4 0l0 14.52l-25.4 0Z" id="p194w56" />
<path d="M596.05 262.56l25.38 0l0 14.52l-25.38 0Z" id="p194w57" />
<path d="M624.64 262.56l14.18 0l0 14.52l-14.18 0Z" id="p194w58" />
<path d="M642.03 262.56l31.55 0l0 14.52l-31.55 0Z" id="p194w59" />
<path d="M676.78 262.56l26.73 0l0 14.52l-26.73 0Z" id="p194w60" />
<path d="M482.46 279.23l15.5 0l0 14.52l-15.5 0Z" id="p194w61" />
<path d="M501.16 279.23l58.82 0l0 14.52l-58.82 0Z" id="p194w62" />
<path d="M491.11 295.94l13.01 0l0 14.61l-13.01 0Z" id="p194w63" />
<path d="M510.14 295.94l13.01 0l0 14.61l-13.01 0Z" id="p194w64" />
<path d="M124.06 313.99l22.58 0l0 14.6l-22.58 0Z" id="p194w65" />
<path d="M149.85 313.99l18.31 0l0 14.6l-18.31 0Z" id="p194w66" />
<path d="M171.37 313.99l13.87 0l0 14.6l-13.87 0Z" id="p194w67" />
<path d="M188.45 313.99l32.19 0l0 14.6l-32.19 0Z" id="p194w68" />
<path d="M124.06 329.42l58.38 0l0 16.35l-58.38 0Z" id="p194w69" />
<path d="M297.36 314.07l20.33 0l0 14.52l-20.33 0Z" id="p194w70" />
<path d="M320.89 314.07l51.83 0l0 14.52l-51.83 0Z" id="p194w71" />
<path d="M375.93 314.07l20.05 0l0 14.52l-20.05 0Z" id="p194w72" />
<path d="M399.19 314.07l22.72 0l0 14.52l-22.72 0Z" id="p194w73" />
<path d="M482.46 314.07l12.41 0l0 14.52l-12.41 0Z" id="p194w74" />
<path d="M498.08 314.07l12.29 0l0 14.52l-12.29 0Z" id="p194w75" />
<path d="M513.57 314.07l18.18 0l0 14.52l-18.18 0Z" id="p194w76" />
<path d="M534.96 314.07l13.9 0l0 14.52l-13.9 0Z" id="p194w77" />
<path d="M552.06 314.07l33.95 0l0 14.52l-33.95 0Z" id="p194w78" />
<path d="M589.22 314.07l37.96 0l0 14.52l-37.96 0Z" id="p194w79" />
<path d="M124.06 348.8l14.31 0l0 14.6l-14.31 0Z" id="p194w80" />
<path d="M141.58 348.8l71.55 0l0 14.6l-71.55 0Z" id="p194w81" />
<path d="M124.06 364.23l66.35 0l0 16.35l-66.35 0Z" id="p194w82" />
<path d="M297.36 348.88l17.11 0l0 14.52l-17.11 0Z" id="p194w83" />
<path d="M317.67 348.88l75.34 0l0 14.52l-75.34 0Z" id="p194w84" />
<path d="M297.36 365.55l23.79 0l0 14.52l-23.79 0Z" id="p194w85" />
<path d="M324.35 365.55l61.73 0l0 14.52l-61.73 0Z" id="p194w86" />
<path d="M482.46 348.88l25.13 0l0 14.52l-25.13 0Z" id="p194w87" />
<path d="M510.8 348.88l26.72 0l0 14.52l-26.72 0Z" id="p194w88" />
<path d="M540.73 348.88l11.22 0l0 14.52l-11.22 0Z" id="p194w89" />
<path d="M555.15 348.88l23.8 0l0 14.52l-23.8 0Z" id="p194w90" />
<path d="M582.16 348.88l26.74 0l0 14.52l-26.74 0Z" id="p194w91" />
<path d="M612.11 348.88l32.62 0l0 14.52l-32.62 0Z" id="p194w92" />
<path d="M647.93 348.88l14.18 0l0 14.52l-14.18 0Z" id="p194w93" />
<path d="M482.46 365.55l71.37 0l0 14.52l-71.37 0Z" id="p194w94" />
<path d="M557.04 365.55l13.63 0l0 14.52l-13.63 0Z" id="p194w95" />
<path d="M573.88 365.55l30.73 0l0 14.52l-30.73 0Z" id="p194w96" />
<path d="M607.82 365.55l13.9 0l0 14.52l-13.9 0Z" id="p194w97" />
<path d="M624.92 365.55l39.57 0l0 14.52l-39.57 0Z" id="p194w98" />
<path d="M124.06 383.62l26.49 0l0 14.6l-26.49 0Z" id="p194w99" />
<path d="M153.76 383.62l10.03 0l0 14.6l-10.03 0Z" id="p194w100" />
<path d="M167 383.62l27.8 0l0 14.6l-27.8 0Z" id="p194w101" />
<path d="M198.1 382.38l46.44 0l0 16.35l-46.44 0Z" id="p194w102" />
<path d="M297.36 383.7l20.58 0l0 14.52l-20.58 0Z" id="p194w103" />
<path d="M321.14 383.7l13.36 0l0 14.52l-13.36 0Z" id="p194w104" />
<path d="M337.71 383.7l18.44 0l0 14.52l-18.44 0Z" id="p194w105" />
<path d="M359.09 383.7l57.65 0l0 14.52l-57.65 0Z" id="p194w106" />
<path d="M482.46 383.7l36.63 0l0 14.52l-36.63 0Z" id="p194w107" />
<path d="M522.3 383.7l25.12 0l0 14.52l-25.12 0Z" id="p194w108" />
<path d="M550.62 383.7l37.57 0l0 14.52l-37.57 0Z" id="p194w109" />
<path d="M591.4 383.7l24.85 0l0 14.52l-24.85 0Z" id="p194w110" />
<path d="M619.46 383.7l9.89 0l0 14.52l-9.89 0Z" id="p194w111" />
<path d="M632.55 383.7l24.33 0l0 14.52l-24.33 0Z" id="p194w112" />
<path d="M660.09 383.7l13.9 0l0 14.52l-13.9 0Z" id="p194w113" />
<path d="M677.19 383.7l25.13 0l0 14.52l-25.13 0Z" id="p194w114" />
<path d="M500.69 400.38l47.36 0l0 14.61l-47.36 0Z" id="p194w115" />
<path d="M124.06 418.44l14.31 0l0 14.6l-14.31 0Z" id="p194w116" />
<path d="M141.57 418.44l48.11 0l0 14.6l-48.11 0Z" id="p194w117" />
<path d="M192.98 417.19l38.41 0l0 16.35l-38.41 0Z" id="p194w118" />
<path d="M297.35 418.51l17.11 0l0 14.52l-17.11 0Z" id="p194w119" />
<path d="M317.67 418.51l41.5 0l0 14.52l-41.5 0Z" id="p194w120" />
<path d="M297.35 435.16l24.55 0l0 14.52l-24.55 0Z" id="p194w121" />
<path d="M325.11 435.19l17.11 0l0 14.52l-17.11 0Z" id="p194w122" />
<path d="M344.99 435.19l71.9 0l0 14.52l-71.9 0Z" id="p194w123" />
<path d="M482.46 418.51l14.7 0l0 14.52l-14.7 0Z" id="p194w124" />
<path d="M500.37 418.51l32.62 0l0 14.52l-32.62 0Z" id="p194w125" />
<path d="M536.19 418.51l19.51 0l0 14.52l-19.51 0Z" id="p194w126" />
<path d="M558.91 418.51l53.3 0l0 14.52l-53.3 0Z" id="p194w127" />
<path d="M615.42 418.51l6.41 0l0 14.52l-6.41 0Z" id="p194w128" />
<path d="M644.02 418.51l45.46 0l0 14.52l-45.46 0Z" id="p194w129" />
<path d="M482.46 435.19l54.55 0l0 14.52l-54.55 0Z" id="p194w130" />
<path d="M540.22 435.19l13.9 0l0 14.52l-13.9 0Z" id="p194w131" />
<path d="M557.33 435.19l54.02 0l0 14.52l-54.02 0Z" id="p194w132" />
<path d="M614.56 435.19l17.11 0l0 14.52l-17.11 0Z" id="p194w133" />
<path d="M634.87 435.19l15.5 0l0 14.52l-15.5 0Z" id="p194w134" />
<path d="M653.57 435.19l37.7 0l0 14.52l-37.7 0Z" id="p194w135" />
<path d="M124.06 453.26l20.99 0l0 14.6l-20.99 0Z" id="p194w136" />
<path d="M148.25 453.26l35.07 0l0 14.6l-35.07 0Z" id="p194w137" />
<path d="M186.62 452.01l51.7 0l0 16.35l-51.7 0Z" id="p194w138" />
<path d="M297.35 453.33l17.11 0l0 14.52l-17.11 0Z" id="p194w139" />
<path d="M317.67 453.33l56.33 0l0 14.52l-56.33 0Z" id="p194w140" />
<path d="M482.46 453.33l18.44 0l0 14.52l-18.44 0Z" id="p194w141" />
<path d="M504.11 453.33l40.1 0l0 14.52l-40.1 0Z" id="p194w142" />
<path d="M547.41 453.33l24.87 0l0 14.52l-24.87 0Z" id="p194w143" />
<path d="M575.49 453.33l13.9 0l0 14.52l-13.9 0Z" id="p194w144" />
<path d="M592.59 453.33l37.43 0l0 14.52l-37.43 0Z" id="p194w145" />
<path d="M500.19 470.02l34.75 0l0 14.61l-34.75 0Z" id="p194w146" />
<path d="M124.06 488.11l14.31 0l0 14.6l-14.31 0Z" id="p194w147" />
<path d="M141.58 488.11l30.61 0l0 14.6l-30.61 0Z" id="p194w148" />
<path d="M172.19 488.11l20.99 0l0 14.6l-20.99 0Z" id="p194w149" />
<path d="M196.38 488.11l25.5 0l0 14.6l-25.5 0Z" id="p194w150" />
<path d="M225.09 488.15l33.14 0l0 14.52l-33.14 0Z" id="p194w151" />
<path d="M124.06 503.54l66.02 0l0 16.35l-66.02 0Z" id="p194w152" />
<path d="M297.35 488.15l17.11 0l0 14.52l-17.11 0Z" id="p194w153" />
<path d="M317.67 488.15l67.5 0l0 14.52l-67.5 0Z" id="p194w154" />
<path d="M388.38 488.15l52.1 0l0 14.52l-52.1 0Z" id="p194w155" />
<path d="M297.35 504.82l17.11 0l0 14.52l-17.11 0Z" id="p194w156" />
<path d="M317.67 504.82l42.24 0l0 14.52l-42.24 0Z" id="p194w157" />
<path d="M363.11 504.8l30.46 0l0 14.52l-30.46 0Z" id="p194w158" />
<path d="M494.71 488.06l14.16 0l0 14.61l-14.16 0Z" id="p194w159" />
<path d="M512.08 488.06l36.83 0l0 14.61l-36.83 0Z" id="p194w160" />
<path d="M124.06 546.3l47.08 0l0 18.44l-47.08 0Z" id="p194w161" />
<path d="M124.06 573.42l14.31 0l0 14.6l-14.31 0Z" id="p194w162" />
<path d="M141.58 573.42l31.81 0l0 14.6l-31.81 0Z" id="p194w163" />
<path d="M176.59 573.42l48.15 0l0 14.6l-48.15 0Z" id="p194w164" />
<path d="M124.06 588.85l78.42 0l0 16.35l-78.42 0Z" id="p194w165" />
<path d="M297.36 573.5l23.79 0l0 14.52l-23.79 0Z" id="p194w166" />
<path d="M324.35 573.5l119.43 0l0 14.52l-119.43 0Z" id="p194w167" />
<path d="M482.46 573.5l15.51 0l0 14.52l-15.51 0Z" id="p194w168" />
<path d="M501.18 573.5l16.83 0l0 14.52l-16.83 0Z" id="p194w169" />
<path d="M521.22 573.5l9.89 0l0 14.52l-9.89 0Z" id="p194w170" />
<path d="M534.31 573.5l31.81 0l0 14.52l-31.81 0Z" id="p194w171" />
<path d="M569.33 573.5l47.49 0l0 14.52l-47.49 0Z" id="p194w172" />
<path d="M620.03 573.5l13.9 0l0 14.52l-13.9 0Z" id="p194w173" />
<path d="M637.13 573.5l9.89 0l0 14.52l-9.89 0Z" id="p194w174" />
<path d="M650.23 573.5l21.11 0l0 14.52l-21.11 0Z" id="p194w175" />
<path d="M124.06 608.23l14.31 0l0 14.6l-14.31 0Z" id="p194w176" />
<path d="M141.58 608.23l55.08 0l0 14.6l-55.08 0Z" id="p194w177" />
<path d="M199.96 606.99l54.57 0l0 16.35l-54.57 0Z" id="p194w178" />
<path d="M297.36 608.31l17.11 0l0 14.52l-17.11 0Z" id="p194w179" />
<path d="M317.67 608.31l54.53 0l0 14.52l-54.53 0Z" id="p194w180" />
<path d="M482.46 608.31l15.51 0l0 14.52l-15.51 0Z" id="p194w181" />
<path d="M501.18 608.31l57.21 0l0 14.52l-57.21 0Z" id="p194w182" />
<path d="M561.59 608.31l12.57 0l0 14.52l-12.57 0Z" id="p194w183" />
<path d="M577.37 608.31l24.33 0l0 14.52l-24.33 0Z" id="p194w184" />
<path d="M620.94 608.31l61.21 0l0 14.52l-61.21 0Z" id="p194w185" />
<path d="M124.06 628.94l20.99 0l0 14.6l-20.99 0Z" id="p194w186" />
<path d="M148.26 628.94l49.71 0l0 14.6l-49.71 0Z" id="p194w187" />
<path d="M201.26 627.7l57.88 0l0 16.35l-57.88 0Z" id="p194w188" />
<path d="M297.36 629.02l23.79 0l0 14.52l-23.79 0Z" id="p194w189" />
<path d="M324.35 629.02l56.15 0l0 14.52l-56.15 0Z" id="p194w190" />
<path d="M508.84 633.34l18.62 0l0 14.61l-18.62 0Z" id="p194w191" />
<path d="M527.46 633.26l19.79 0l0 14.6l-19.79 0Z" id="p194w192" />
<path d="M547.25 633.34l11.22 0l0 14.61l-11.22 0Z" id="p194w193" />
<path d="M582.61 633.34l19.43 0l0 14.61l-19.43 0Z" id="p194w194" />
<path d="M602.04 633.26l25.53 0l0 14.6l-25.53 0Z" id="p194w195" />
<path d="M627.56 633.34l11.22 0l0 14.61l-11.22 0Z" id="p194w196" />
<path d="M124.06 651.4l50.5 0l0 14.6l-50.5 0Z" id="p194w197" />
<path d="M177.77 651.4l12.67 0l0 14.6l-12.67 0Z" id="p194w198" />
<path d="M193.74 650.16l39.41 0l0 16.35l-39.41 0Z" id="p194w199" />
<path d="M297.36 651.48l23.09 0l0 14.52l-23.09 0Z" id="p194w200" />
<path d="M323.65 651.48l59.29 0l0 14.52l-59.29 0Z" id="p194w201" />
<path d="M297.36 668.15l23.09 0l0 14.52l-23.09 0Z" id="p194w202" />
<path d="M323.65 668.15l61.47 0l0 14.52l-61.47 0Z" id="p194w203" />
<path d="M482.46 651.48l42.77 0l0 14.52l-42.77 0Z" id="p194w204" />
<path d="M528.44 651.48l31.53 0l0 14.52l-31.53 0Z" id="p194w205" />
<path d="M563.18 651.48l44.1 0l0 14.52l-44.1 0Z" id="p194w206" />
<path d="M610.48 651.48l14.8 0l0 14.52l-14.8 0Z" id="p194w207" />
<path d="M628.49 651.48l45.71 0l0 14.52l-45.71 0Z" id="p194w208" />
<path d="M482.46 668.15l19.51 0l0 14.52l-19.51 0Z" id="p194w209" />
<path d="M505.18 668.15l32.63 0l0 14.52l-32.63 0Z" id="p194w210" />
<path d="M124.06 686.22l19.13 0l0 14.6l-19.13 0Z" id="p194w211" />
<path d="M143.19 686.22l27.35 0l0 14.6l-27.35 0Z" id="p194w212" />
<path d="M192.21 684.98l48.62 0l0 16.35l-48.62 0Z" id="p194w213" />
<path d="M129.97 728.53l19.13 0l0 14.6l-19.13 0Z" id="p194w214" />
<path d="M149.1 728.53l27.35 0l0 14.6l-27.35 0Z" id="p194w215" />
<path d="M179.65 728.59l24.59 0l0 14.52l-24.59 0Z" id="p194w216" />
<path d="M207.45 728.59l56.35 0l0 14.52l-56.35 0Z" id="p194w217" />
<path d="M267 728.59l19.77 0l0 14.52l-19.77 0Z" id="p194w218" />
<path d="M289.98 728.53l7.87 0l0 14.6l-7.87 0Z" id="p194w219" />
<path d="M297.85 728.53l15.19 0l0 14.6l-15.19 0Z" id="p194w220" />
<path d="M319.46 728.59l9.62 0l0 14.52l-9.62 0Z" id="p194w221" />
<path d="M332.29 728.59l18.7 0l0 14.52l-18.7 0Z" id="p194w222" />
<path d="M350.99 728.59l31.28 0l0 14.52l-31.28 0Z" id="p194w223" />
<path d="M129.97 745.26l11.5 0l0 14.52l-11.5 0Z" id="p194w224" />
<path d="M144.67 745.26l18.7 0l0 14.52l-18.7 0Z" id="p194w225" />
<path d="M163.38 745.26l31.28 0l0 14.52l-31.28 0Z" id="p194w226" />
<path d="M197.87 745.26l50.26 0l0 14.52l-50.26 0Z" id="p194w227" />
<path d="M251.34 745.26l18.7 0l0 14.52l-18.7 0Z" id="p194w228" />
<path d="M270.04 745.26l30.21 0l0 14.52l-30.21 0Z" id="p194w229" />
<path d="M303.46 745.26l26.74 0l0 14.52l-26.74 0Z" id="p194w230" />
<path d="M333.41 745.26l18.7 0l0 14.52l-18.7 0Z" id="p194w231" />
<path d="M352.11 745.26l22.99 0l0 14.52l-22.99 0Z" id="p194w232" />
<path d="M375.1 745.2l11.48 0l0 14.6l-11.48 0Z" id="p194w233" />
<path d="M386.59 745.26l22.47 0l0 14.52l-22.47 0Z" id="p194w234" />
<path d="M129.97 761.93l25.67 0l0 14.52l-25.67 0Z" id="p194w235" />
<path d="M158.85 761.93l18.7 0l0 14.52l-18.7 0Z" id="p194w236" />
<path d="M177.55 761.93l22.99 0l0 14.52l-22.99 0Z" id="p194w237" />
<path d="M200.55 761.87l11.48 0l0 14.6l-11.48 0Z" id="p194w238" />
<path d="M212.03 761.93l15.25 0l0 14.52l-15.25 0Z" id="p194w239" />
<path d="M230.48 761.93l42.36 0l0 14.52l-42.36 0Z" id="p194w240" />
<path d="M276.05 761.93l18.7 0l0 14.52l-18.7 0Z" id="p194w241" />
<path d="M294.75 761.93l22.99 0l0 14.52l-22.99 0Z" id="p194w242" />
<path d="M317.74 761.87l11.48 0l0 14.6l-11.48 0Z" id="p194w243" />
<path d="M329.23 761.93l21.34 0l0 14.52l-21.34 0Z" id="p194w244" />
<path d="M129.97 778.54l31.41 0l0 14.61l-31.41 0Z" id="p194w245" />
<path d="M164.59 778.54l48.4 0l0 14.61l-48.4 0Z" id="p194w246" />
<path d="M223.06 778.6l14.8 0l0 14.52l-14.8 0Z" id="p194w247" />
<path d="M241.07 778.6l18.7 0l0 14.52l-18.7 0Z" id="p194w248" />
<path d="M259.77 778.6l22.99 0l0 14.52l-22.99 0Z" id="p194w249" />
<path d="M297.35 686.29l68.17 0l0 14.52l-68.17 0Z" id="p194w250" />
<path d="M368.73 686.29l36.85 0l0 14.52l-36.85 0Z" id="p194w251" />
<path d="M297.35 702.96l56.33 0l0 14.52l-56.33 0Z" id="p194w252" />
<path d="M482.46 686.29l21.65 0l0 14.52l-21.65 0Z" id="p194w253" />
<path d="M504.1 686.29l28.6 0l0 14.52l-28.6 0Z" id="p194w254" />
<path d="M535.91 686.29l31.1 0l0 14.52l-31.1 0Z" id="p194w255" />
<path d="M570.22 686.29l13.9 0l0 14.52l-13.9 0Z" id="p194w256" />
<path d="M587.33 686.29l34.23 0l0 14.52l-34.23 0Z" id="p194w257" />
<path d="M124.06 806.23l27.6 0l0 14.6l-27.6 0Z" id="p194w258" />
<path d="M154.86 806.23l25.59 0l0 14.6l-25.59 0Z" id="p194w259" />
<path d="M183.66 806.23l13.87 0l0 14.6l-13.87 0Z" id="p194w260" />
<path d="M200.74 806.23l25.65 0l0 14.6l-25.65 0Z" id="p194w261" />
<path d="M229.6 806.23l12.67 0l0 14.6l-12.67 0Z" id="p194w262" />
<path d="M124.06 821.66l66.75 0l0 16.35l-66.75 0Z" id="p194w263" />
<path d="M297.35 806.31l32.27 0l0 14.52l-32.27 0Z" id="p194w264" />
<path d="M332.83 806.31l35.02 0l0 14.52l-35.02 0Z" id="p194w265" />
<path d="M371.05 806.31l23.09 0l0 14.52l-23.09 0Z" id="p194w266" />
<path d="M397.35 806.31l12.84 0l0 14.52l-12.84 0Z" id="p194w267" />
<path d="M413.4 806.31l18.72 0l0 14.52l-18.72 0Z" id="p194w268" />
<path d="M124.06 841.04l10.02 0l0 14.6l-10.02 0Z" id="p194w269" />
<path d="M137.28 841.04l21.03 0l0 14.6l-21.03 0Z" id="p194w270" />
<path d="M161.52 841.04l14.28 0l0 14.6l-14.28 0Z" id="p194w271" />
<path d="M179 841.04l25.65 0l0 14.6l-25.65 0Z" id="p194w272" />
<path d="M207.95 839.8l68.68 0l0 16.35l-68.68 0Z" id="p194w273" />
<path d="M297.35 841.12l19.51 0l0 14.52l-19.51 0Z" id="p194w274" />
<path d="M320.07 841.12l53.18 0l0 14.52l-53.18 0Z" id="p194w275" />
<path d="M482.46 841.12l15.6 0l0 14.52l-15.6 0Z" id="p194w276" />
<path d="M501.27 841.12l31.8 0l0 14.52l-31.8 0Z" id="p194w277" />
<path d="M536.27 841.12l20.85 0l0 14.52l-20.85 0Z" id="p194w278" />
<path d="M560.33 841.12l34.48 0l0 14.52l-34.48 0Z" id="p194w279" />
<path d="M598.02 841.12l13.9 0l0 14.52l-13.9 0Z" id="p194w280" />
<path d="M615.12 841.12l36.89 0l0 14.52l-36.89 0Z" id="p194w281" />
<path d="M655.22 841.12l11.22 0l0 14.52l-11.22 0Z" id="p194w282" />
<path d="M482.46 857.79l13.63 0l0 14.52l-13.63 0Z" id="p194w283" />
<path d="M499.3 857.79l35.29 0l0 14.52l-35.29 0Z" id="p194w284" />
<path d="M537.8 857.79l14.8 0l0 14.52l-14.8 0Z" id="p194w285" />
<path d="M555.81 857.79l13.63 0l0 14.52l-13.63 0Z" id="p194w286" />
<path d="M572.65 857.79l9.89 0l0 14.52l-9.89 0Z" id="p194w287" />
<path d="M585.74 857.79l20.84 0l0 14.52l-20.84 0Z" id="p194w288" />
<path d="M609.79 857.79l14.18 0l0 14.52l-14.18 0Z" id="p194w289" />
<path d="M627.17 857.79l28.07 0l0 14.52l-28.07 0Z" id="p194w290" />
<path d="M124.06 875.86l14.31 0l0 14.6l-14.31 0Z" id="p194w291" />
<path d="M141.57 875.86l32.59 0l0 14.6l-32.59 0Z" id="p194w292" />
<path d="M177.46 874.62l32.67 0l0 16.35l-32.67 0Z" id="p194w293" />
<path d="M297.35 875.94l17.11 0l0 14.52l-17.11 0Z" id="p194w294" />
<path d="M317.66 875.94l40.44 0l0 14.52l-40.44 0Z" id="p194w295" />
<path d="M482.46 875.94l23.8 0l0 14.52l-23.8 0Z" id="p194w296" />
<path d="M509.46 875.94l14.8 0l0 14.52l-14.8 0Z" id="p194w297" />
<path d="M527.47 875.94l19.51 0l0 14.52l-19.51 0Z" id="p194w298" />
<path d="M550.18 875.94l40.64 0l0 14.52l-40.64 0Z" id="p194w299" />
<path d="M500.19 892.63l32.88 0l0 14.61l-32.88 0Z" id="p194w300" />
<path d="M124.06 910.68l23.4 0l0 14.6l-23.4 0Z" id="p194w301" />
<path d="M150.67 910.68l13.87 0l0 14.6l-13.87 0Z" id="p194w302" />
<path d="M167.75 910.68l27.53 0l0 14.6l-27.53 0Z" id="p194w303" />
<path d="M198.58 909.44l46.9 0l0 16.35l-46.9 0Z" id="p194w304" />
<path d="M297.35 910.76l32.88 0l0 14.52l-32.88 0Z" id="p194w305" />
<path d="M482.46 910.76l37.51 0l0 14.52l-37.51 0Z" id="p194w306" />
<path d="M523.18 910.76l22.99 0l0 14.52l-22.99 0Z" id="p194w307" />
<path d="M549.38 910.76l13.9 0l0 14.52l-13.9 0Z" id="p194w308" />
<path d="M566.49 910.76l26.99 0l0 14.52l-26.99 0Z" id="p194w309" />
</svg>
