<?xml version="1.0" encoding="UTF-8"?>
<svg xmlns="http://www.w3.org/2000/svg" xmlns:xlink="http://www.w3.org/1999/xlink" version="1.1" baseProfile="full" width="768" height="1024" viewBox="0,0,768,1024" preserveAspectRatio="xMinYMin meet" >
<style type="text/css">
<![CDATA[
path {fill-opacity: 0.5;fill: #00aeef;visibility: hidden;}
]]>
</style>
<path d="M590.72 983.66l100.38 0l0 12.23l-100.38 0Z" id="p231w1" />
<path d="M562.12 38.6l81.82 0l0 16.09l-81.82 0Z" id="p231w2" />
<path d="M68.92 112.51l55.38 0l0 12.23l-55.38 0Z" id="p231w3" />
<path d="M127 112.51l15.53 0l0 12.23l-15.53 0Z" id="p231w4" />
<path d="M145.23 112.51l11.04 0l0 12.23l-11.04 0Z" id="p231w5" />
<path d="M162.12 111.41l51.8 0l0 13.77l-51.8 0Z" id="p231w6" />
<path d="M219.78 112.51l15.75 0l0 12.23l-15.75 0Z" id="p231w7" />
<path d="M68.92 127.79l19.44 0l0 12.23l-19.44 0Z" id="p231w8" />
<path d="M91.06 127.79l47.18 0l0 12.23l-47.18 0Z" id="p231w9" />
<path d="M140.95 127.79l15.75 0l0 12.23l-15.75 0Z" id="p231w10" />
<path d="M159.4 127.79l19.44 0l0 12.23l-19.44 0Z" id="p231w11" />
<path d="M181.54 127.79l44.29 0l0 12.23l-44.29 0Z" id="p231w12" />
<path d="M68.92 142.83l18.92 0l0 12.56l-18.92 0Z" id="p231w13" />
<path d="M59.07 158.3l45.84 0l0 12.29l-45.84 0Z" id="p231w14" />
<path d="M117.75 157.26l26.1 0l0 13.77l-26.1 0Z" id="p231w15" />
<path d="M149.49 158.36l21.83 0l0 12.23l-21.83 0Z" id="p231w16" />
<path d="M174.02 158.34l54.71 0l0 12.23l-54.71 0Z" id="p231w17" />
<path d="M68.92 173.4l14.79 0l0 12.56l-14.79 0Z" id="p231w18" />
<path d="M68.92 188.93l45.92 0l0 12.23l-45.92 0Z" id="p231w19" />
<path d="M117.54 188.93l27.83 0l0 12.23l-27.83 0Z" id="p231w20" />
<path d="M148.07 188.93l28.78 0l0 12.23l-28.78 0Z" id="p231w21" />
<path d="M189.69 187.83l45.82 0l0 13.77l-45.82 0Z" id="p231w22" />
<path d="M68.92 204.21l17.55 0l0 12.23l-17.55 0Z" id="p231w23" />
<path d="M107.37 203.96l15.54 0l0 12.56l-15.54 0Z" id="p231w24" />
<path d="M68.92 219.49l10.45 0l0 12.23l-10.45 0Z" id="p231w25" />
<path d="M82.07 219.49l44.64 0l0 12.23l-44.64 0Z" id="p231w26" />
<path d="M129.41 219.49l44.79 0l0 12.23l-44.79 0Z" id="p231w27" />
<path d="M72.08 233.68l57.13 0l0 13.77l-57.13 0Z" id="p231w28" />
<path d="M134.85 234.78l17.55 0l0 12.23l-17.55 0Z" id="p231w29" />
<path d="M155.1 234.78l24.53 0l0 12.23l-24.53 0Z" id="p231w30" />
<path d="M182.33 234.78l16.22 0l0 12.23l-16.22 0Z" id="p231w31" />
<path d="M201.25 234.53l14.79 0l0 12.56l-14.79 0Z" id="p231w32" />
<path d="M59.07 250.06l11.94 0l0 12.23l-11.94 0Z" id="p231w33" />
<path d="M73.71 250l62.52 0l0 12.29l-62.52 0Z" id="p231w34" />
<path d="M142.09 248.96l44.44 0l0 13.77l-44.44 0Z" id="p231w35" />
<path d="M192.39 250.06l14.41 0l0 12.23l-14.41 0Z" id="p231w36" />
<path d="M68.92 265.34l55.22 0l0 12.23l-55.22 0Z" id="p231w37" />
<path d="M126.84 265.1l19.58 0l0 12.56l-19.58 0Z" id="p231w38" />
<path d="M59.07 280.57l65.39 0l0 12.29l-65.39 0Z" id="p231w39" />
<path d="M127.17 280.63l24.99 0l0 12.23l-24.99 0Z" id="p231w40" />
<path d="M154.85 280.63l15.76 0l0 12.23l-15.76 0Z" id="p231w41" />
<path d="M176.47 279.53l44.95 0l0 13.77l-44.95 0Z" id="p231w42" />
<path d="M68.92 295.91l19.35 0l0 12.23l-19.35 0Z" id="p231w43" />
<path d="M90.98 295.91l23.64 0l0 12.23l-23.64 0Z" id="p231w44" />
<path d="M117.32 295.91l75.38 0l0 12.23l-75.38 0Z" id="p231w45" />
<path d="M68.92 311.19l56.95 0l0 12.23l-56.95 0Z" id="p231w46" />
<path d="M128.58 311.19l58.98 0l0 12.23l-58.98 0Z" id="p231w47" />
<path d="M190.26 310.95l18.01 0l0 12.56l-18.01 0Z" id="p231w48" />
<path d="M59.07 326.48l11.94 0l0 12.23l-11.94 0Z" id="p231w49" />
<path d="M73.71 326.42l55.3 0l0 12.29l-55.3 0Z" id="p231w50" />
<path d="M129.01 326.48l21.73 0l0 12.23l-21.73 0Z" id="p231w51" />
<path d="M153.44 326.42l49 0l0 12.29l-49 0Z" id="p231w52" />
<path d="M72.08 340.66l80.4 0l0 13.77l-80.4 0Z" id="p231w53" />
<path d="M158.33 341.76l14.41 0l0 12.23l-14.41 0Z" id="p231w54" />
<path d="M68.92 357.04l97.74 0l0 12.23l-97.74 0Z" id="p231w55" />
<path d="M68.92 372.33l76.69 0l0 12.23l-76.69 0Z" id="p231w56" />
<path d="M148.32 372.08l14.63 0l0 12.56l-14.63 0Z" id="p231w57" />
<path d="M59.07 387.61l17.56 0l0 12.23l-17.56 0Z" id="p231w58" />
<path d="M79.34 387.55l56.84 0l0 12.29l-56.84 0Z" id="p231w59" />
<path d="M142.04 386.51l51.74 0l0 13.77l-51.74 0Z" id="p231w60" />
<path d="M199.64 387.61l14.41 0l0 12.23l-14.41 0Z" id="p231w61" />
<path d="M68.92 402.89l51.99 0l0 12.23l-51.99 0Z" id="p231w62" />
<path d="M123.61 402.65l18.01 0l0 12.56l-18.01 0Z" id="p231w63" />
<path d="M59.07 418.12l38.16 0l0 12.29l-38.16 0Z" id="p231w64" />
<path d="M101.4 418.12l43.78 0l0 12.29l-43.78 0Z" id="p231w65" />
<path d="M151.04 417.08l55.12 0l0 13.77l-55.12 0Z" id="p231w66" />
<path d="M68.92 433.46l44.76 0l0 12.23l-44.76 0Z" id="p231w67" />
<path d="M116.38 433.46l51.5 0l0 12.23l-51.5 0Z" id="p231w68" />
<path d="M170.58 433.22l18.92 0l0 12.56l-18.92 0Z" id="p231w69" />
<path d="M59.07 448.69l68.69 0l0 12.29l-68.69 0Z" id="p231w70" />
<path d="M133.62 447.64l43.22 0l0 13.77l-43.22 0Z" id="p231w71" />
<path d="M182.7 448.74l25.16 0l0 12.23l-25.16 0Z" id="p231w72" />
<path d="M210.56 448.5l18.92 0l0 12.56l-18.92 0Z" id="p231w73" />
<path d="M59.07 463.97l56.81 0l0 12.29l-56.81 0Z" id="p231w74" />
<path d="M118.59 464.03l11.04 0l0 12.23l-11.04 0Z" id="p231w75" />
<path d="M135.48 462.93l39.45 0l0 13.77l-39.45 0Z" id="p231w76" />
<path d="M180.79 464.03l19.44 0l0 12.23l-19.44 0Z" id="p231w77" />
<path d="M68.92 479.31l46.58 0l0 12.23l-46.58 0Z" id="p231w78" />
<path d="M118.21 479.07l15.54 0l0 12.56l-15.54 0Z" id="p231w79" />
<path d="M59.07 494.54l39.25 0l0 12.29l-39.25 0Z" id="p231w80" />
<path d="M101.02 494.59l11.04 0l0 12.23l-11.04 0Z" id="p231w81" />
<path d="M117.92 493.49l19.32 0l0 13.77l-19.32 0Z" id="p231w82" />
<path d="M143.09 494.59l19.44 0l0 12.23l-19.44 0Z" id="p231w83" />
<path d="M165.24 494.59l31.07 0l0 12.23l-31.07 0Z" id="p231w84" />
<path d="M199 494.35l15.54 0l0 12.56l-15.54 0Z" id="p231w85" />
<path d="M68.92 509.88l39.39 0l0 12.23l-39.39 0Z" id="p231w86" />
<path d="M111.02 509.88l13.05 0l0 12.23l-13.05 0Z" id="p231w87" />
<path d="M126.77 509.88l41.43 0l0 12.23l-41.43 0Z" id="p231w88" />
<path d="M174.05 508.78l51.02 0l0 13.77l-51.02 0Z" id="p231w89" />
<path d="M68.92 525.16l48.86 0l0 12.23l-48.86 0Z" id="p231w90" />
<path d="M120.49 525.16l31.07 0l0 12.23l-31.07 0Z" id="p231w91" />
<path d="M154.25 524.92l15.54 0l0 12.56l-15.54 0Z" id="p231w92" />
<path d="M59.07 540.44l18.9 0l0 12.23l-18.9 0Z" id="p231w93" />
<path d="M80.67 540.39l46.25 0l0 12.29l-46.25 0Z" id="p231w94" />
<path d="M131.09 540.39l51.87 0l0 12.29l-51.87 0Z" id="p231w95" />
<path d="M185.66 540.44l14.41 0l0 12.23l-14.41 0Z" id="p231w96" />
<path d="M72.08 554.63l100.83 0l0 13.77l-100.83 0Z" id="p231w97" />
<path d="M178.76 555.73l15.08 0l0 12.23l-15.08 0Z" id="p231w98" />
<path d="M196.55 555.73l19.44 0l0 12.23l-19.44 0Z" id="p231w99" />
<path d="M68.92 571.01l57.4 0l0 12.23l-57.4 0Z" id="p231w100" />
<path d="M129.02 571.01l19.13 0l0 12.23l-19.13 0Z" id="p231w101" />
<path d="M150.85 570.77l18.72 0l0 12.56l-18.72 0Z" id="p231w102" />
<path d="M59.07 586.29l11.94 0l0 12.23l-11.94 0Z" id="p231w103" />
<path d="M73.71 586.24l34.62 0l0 12.29l-34.62 0Z" id="p231w104" />
<path d="M114.2 585.19l29.71 0l0 13.77l-29.71 0Z" id="p231w105" />
<path d="M149.76 586.29l14.41 0l0 12.23l-14.41 0Z" id="p231w106" />
<path d="M166.87 586.29l36.1 0l0 12.23l-36.1 0Z" id="p231w107" />
<path d="M205.67 586.05l14.43 0l0 12.56l-14.43 0Z" id="p231w108" />
<path d="M68.92 601.58l11.94 0l0 12.23l-11.94 0Z" id="p231w109" />
<path d="M83.56 601.58l35.12 0l0 12.23l-35.12 0Z" id="p231w110" />
<path d="M121.39 601.58l11.7 0l0 12.23l-11.7 0Z" id="p231w111" />
<path d="M135.79 601.58l23.19 0l0 12.23l-23.19 0Z" id="p231w112" />
<path d="M161.68 601.58l12.15 0l0 12.23l-12.15 0Z" id="p231w113" />
<path d="M72.08 615.76l65.62 0l0 13.77l-65.62 0Z" id="p231w114" />
<path d="M143.56 616.86l14.41 0l0 12.23l-14.41 0Z" id="p231w115" />
<path d="M160.67 616.86l79.85 0l0 12.23l-79.85 0Z" id="p231w116" />
<path d="M68.92 631.9l18.92 0l0 12.56l-18.92 0Z" id="p231w117" />
<path d="M59.07 647.43l10.35 0l0 12.23l-10.35 0Z" id="p231w118" />
<path d="M72.12 647.43l31.95 0l0 12.23l-31.95 0Z" id="p231w119" />
<path d="M106.77 647.43l11.7 0l0 12.23l-11.7 0Z" id="p231w120" />
<path d="M121.18 647.37l44.09 0l0 12.29l-44.09 0Z" id="p231w121" />
<path d="M72.08 661.61l69.96 0l0 13.77l-69.96 0Z" id="p231w122" />
<path d="M147.9 662.71l18.46 0l0 12.23l-18.46 0Z" id="p231w123" />
<path d="M169.06 662.71l15.08 0l0 12.23l-15.08 0Z" id="p231w124" />
<path d="M186.84 662.71l19.44 0l0 12.23l-19.44 0Z" id="p231w125" />
<path d="M68.92 677.99l55.81 0l0 12.23l-55.81 0Z" id="p231w126" />
<path d="M127.43 677.75l18.92 0l0 12.56l-18.92 0Z" id="p231w127" />
<path d="M59.07 693.28l17.56 0l0 12.23l-17.56 0Z" id="p231w128" />
<path d="M79.34 693.22l51.63 0l0 12.29l-51.63 0Z" id="p231w129" />
<path d="M136.83 692.18l46.28 0l0 13.77l-46.28 0Z" id="p231w130" />
<path d="M188.97 693.28l20.03 0l0 12.23l-20.03 0Z" id="p231w131" />
<path d="M68.92 708.56l50.03 0l0 12.23l-50.03 0Z" id="p231w132" />
<path d="M121.65 708.56l14.41 0l0 12.23l-14.41 0Z" id="p231w133" />
<path d="M138.39 708.56l34.39 0l0 12.23l-34.39 0Z" id="p231w134" />
<path d="M175.48 708.32l18.92 0l0 12.56l-18.92 0Z" id="p231w135" />
<path d="M59.07 723.84l21.37 0l0 12.23l-21.37 0Z" id="p231w136" />
<path d="M83.15 723.79l23.16 0l0 12.29l-23.16 0Z" id="p231w137" />
<path d="M106.31 723.79l21.95 0l0 12.29l-21.95 0Z" id="p231w138" />
<path d="M139.29 723.84l12.16 0l0 12.23l-12.16 0Z" id="p231w139" />
<path d="M157.31 722.74l40.99 0l0 13.77l-40.99 0Z" id="p231w140" />
<path d="M204.16 723.84l20.04 0l0 12.23l-20.04 0Z" id="p231w141" />
<path d="M68.92 739.13l45.24 0l0 12.23l-45.24 0Z" id="p231w142" />
<path d="M116.86 738.88l18.72 0l0 12.56l-18.72 0Z" id="p231w143" />
<path d="M59.07 754.36l44.46 0l0 12.29l-44.46 0Z" id="p231w144" />
<path d="M106.24 754.41l27.37 0l0 12.23l-27.37 0Z" id="p231w145" />
<path d="M139.46 753.31l30.63 0l0 13.77l-30.63 0Z" id="p231w146" />
<path d="M175.95 754.41l40.5 0l0 12.23l-40.5 0Z" id="p231w147" />
<path d="M68.92 769.7l34.67 0l0 12.23l-34.67 0Z" id="p231w148" />
<path d="M106.29 769.45l15.54 0l0 12.56l-15.54 0Z" id="p231w149" />
<path d="M68.92 784.98l10.35 0l0 12.23l-10.35 0Z" id="p231w150" />
<path d="M81.97 784.98l44.57 0l0 12.23l-44.57 0Z" id="p231w151" />
<path d="M132.4 783.88l39.8 0l0 13.77l-39.8 0Z" id="p231w152" />
<path d="M178.06 784.98l18.46 0l0 12.23l-18.46 0Z" id="p231w153" />
<path d="M199.23 784.98l34.67 0l0 12.23l-34.67 0Z" id="p231w154" />
<path d="M68.92 800.02l15.54 0l0 12.56l-15.54 0Z" id="p231w155" />
<path d="M68.92 815.55l44.57 0l0 12.23l-44.57 0Z" id="p231w156" />
<path d="M116.2 815.55l11.04 0l0 12.23l-11.04 0Z" id="p231w157" />
<path d="M129.93 815.55l34.89 0l0 12.23l-34.89 0Z" id="p231w158" />
<path d="M167.53 815.55l10.35 0l0 12.23l-10.35 0Z" id="p231w159" />
<path d="M180.58 815.55l28.6 0l0 12.23l-28.6 0Z" id="p231w160" />
<path d="M72.08 829.73l74.23 0l0 13.77l-74.23 0Z" id="p231w161" />
<path d="M152.16 830.83l19.44 0l0 12.23l-19.44 0Z" id="p231w162" />
<path d="M174.31 830.83l16.65 0l0 12.23l-16.65 0Z" id="p231w163" />
<path d="M193.66 830.83l24.75 0l0 12.23l-24.75 0Z" id="p231w164" />
<path d="M68.92 846.11l65.71 0l0 12.23l-65.71 0Z" id="p231w165" />
<path d="M137.34 846.11l34.67 0l0 12.23l-34.67 0Z" id="p231w166" />
<path d="M174.71 845.87l18.17 0l0 12.56l-18.17 0Z" id="p231w167" />
<path d="M59.07 861.34l28.59 0l0 12.29l-28.59 0Z" id="p231w168" />
<path d="M91.83 861.34l34.21 0l0 12.29l-34.21 0Z" id="p231w169" />
<path d="M131.9 860.3l22.05 0l0 13.77l-22.05 0Z" id="p231w170" />
<path d="M159.81 861.4l38.49 0l0 12.23l-38.49 0Z" id="p231w171" />
<path d="M201.01 861.15l18.92 0l0 12.56l-18.92 0Z" id="p231w172" />
<path d="M59.07 876.68l11.94 0l0 12.23l-11.94 0Z" id="p231w173" />
<path d="M73.71 876.62l32.62 0l0 12.29l-32.62 0Z" id="p231w174" />
<path d="M112.19 875.58l26.9 0l0 13.77l-26.9 0Z" id="p231w175" />
<path d="M144.95 876.68l14.41 0l0 12.23l-14.41 0Z" id="p231w176" />
<path d="M162.06 876.68l18.2 0l0 12.23l-18.2 0Z" id="p231w177" />
<path d="M182.95 876.68l14.41 0l0 12.23l-14.41 0Z" id="p231w178" />
<path d="M68.92 891.96l45.86 0l0 12.23l-45.86 0Z" id="p231w179" />
<path d="M117.49 891.72l18.92 0l0 12.56l-18.92 0Z" id="p231w180" />
<path d="M59.07 907.25l17.56 0l0 12.23l-17.56 0Z" id="p231w181" />
<path d="M79.34 907.19l60.97 0l0 12.29l-60.97 0Z" id="p231w182" />
<path d="M146.16 906.15l47.15 0l0 13.77l-47.15 0Z" id="p231w183" />
<path d="M199.17 907.25l20.03 0l0 12.23l-20.03 0Z" id="p231w184" />
<path d="M68.92 922.53l27.83 0l0 12.23l-27.83 0Z" id="p231w185" />
<path d="M99.46 922.53l20.03 0l0 12.23l-20.03 0Z" id="p231w186" />
<path d="M122.19 922.53l56.82 0l0 12.23l-56.82 0Z" id="p231w187" />
<path d="M181.71 922.28l18.92 0l0 12.56l-18.92 0Z" id="p231w188" />
<path d="M260.59 112.51l17.56 0l0 12.23l-17.56 0Z" id="p231w189" />
<path d="M280.86 112.45l35.66 0l0 12.29l-35.66 0Z" id="p231w190" />
<path d="M322.37 111.41l34.57 0l0 13.77l-34.57 0Z" id="p231w191" />
<path d="M362.8 112.51l20.03 0l0 12.23l-20.03 0Z" id="p231w192" />
<path d="M385.53 112.51l39.23 0l0 12.23l-39.23 0Z" id="p231w193" />
<path d="M270.44 127.79l20.03 0l0 12.23l-20.03 0Z" id="p231w194" />
<path d="M293.17 127.79l58.99 0l0 12.23l-58.99 0Z" id="p231w195" />
<path d="M354.86 127.55l14.63 0l0 12.56l-14.63 0Z" id="p231w196" />
<path d="M260.59 143.08l17.56 0l0 12.23l-17.56 0Z" id="p231w197" />
<path d="M280.86 143.02l58.42 0l0 12.29l-58.42 0Z" id="p231w198" />
<path d="M345.14 141.97l54.84 0l0 13.77l-54.84 0Z" id="p231w199" />
<path d="M405.84 143.08l14.41 0l0 12.23l-14.41 0Z" id="p231w200" />
<path d="M270.44 158.36l54.68 0l0 12.23l-54.68 0Z" id="p231w201" />
<path d="M327.82 158.36l20.03 0l0 12.23l-20.03 0Z" id="p231w202" />
<path d="M350.55 158.36l64.61 0l0 12.23l-64.61 0Z" id="p231w203" />
<path d="M270.44 173.4l18.92 0l0 12.56l-18.92 0Z" id="p231w204" />
<path d="M260.59 188.93l18.9 0l0 12.23l-18.9 0Z" id="p231w205" />
<path d="M282.19 188.93l11.7 0l0 12.23l-11.7 0Z" id="p231w206" />
<path d="M296.6 188.87l34.68 0l0 12.29l-34.68 0Z" id="p231w207" />
<path d="M333.98 188.93l21.39 0l0 12.23l-21.39 0Z" id="p231w208" />
<path d="M358.06 188.93l12.16 0l0 12.23l-12.16 0Z" id="p231w209" />
<path d="M273.6 203.11l68.29 0l0 13.77l-68.29 0Z" id="p231w210" />
<path d="M347.75 204.21l36.32 0l0 12.23l-36.32 0Z" id="p231w211" />
<path d="M386.77 204.21l10.82 0l0 12.23l-10.82 0Z" id="p231w212" />
<path d="M400.29 204.21l20.04 0l0 12.23l-20.04 0Z" id="p231w213" />
<path d="M270.44 219.49l31.93 0l0 12.23l-31.93 0Z" id="p231w214" />
<path d="M305.08 219.49l15.75 0l0 12.23l-15.75 0Z" id="p231w215" />
<path d="M323.53 219.49l20.04 0l0 12.23l-20.04 0Z" id="p231w216" />
<path d="M346.27 219.49l8.78 0l0 12.23l-8.78 0Z" id="p231w217" />
<path d="M357.75 219.49l36.32 0l0 12.23l-36.32 0Z" id="p231w218" />
<path d="M396.78 219.49l19.13 0l0 12.23l-19.13 0Z" id="p231w219" />
<path d="M418.61 219.25l17.81 0l0 12.56l-17.81 0Z" id="p231w220" />
<path d="M260.59 234.78l11.94 0l0 12.23l-11.94 0Z" id="p231w221" />
<path d="M275.23 234.72l26.11 0l0 12.29l-26.11 0Z" id="p231w222" />
<path d="M307.2 233.68l19.02 0l0 13.77l-19.02 0Z" id="p231w223" />
<path d="M332.08 234.78l14.41 0l0 12.23l-14.41 0Z" id="p231w224" />
<path d="M349.18 234.78l41.42 0l0 12.23l-41.42 0Z" id="p231w225" />
<path d="M393.3 234.53l18.92 0l0 12.56l-18.92 0Z" id="p231w226" />
<path d="M260.59 250l36.14 0l0 12.29l-36.14 0Z" id="p231w227" />
<path d="M300.9 250l41.76 0l0 12.29l-41.76 0Z" id="p231w228" />
<path d="M348.52 248.96l46.76 0l0 13.77l-46.76 0Z" id="p231w229" />
<path d="M401.13 250.06l21.59 0l0 12.23l-21.59 0Z" id="p231w230" />
<path d="M270.44 265.34l44.35 0l0 12.23l-44.35 0Z" id="p231w231" />
<path d="M317.49 265.1l15.54 0l0 12.56l-15.54 0Z" id="p231w232" />
<path d="M260.59 280.57l44.87 0l0 12.29l-44.87 0Z" id="p231w233" />
<path d="M308.17 280.63l11.04 0l0 12.23l-11.04 0Z" id="p231w234" />
<path d="M325.06 279.53l34.45 0l0 13.77l-34.45 0Z" id="p231w235" />
<path d="M365.37 280.63l15.75 0l0 12.23l-15.75 0Z" id="p231w236" />
<path d="M383.82 280.63l19.44 0l0 12.23l-19.44 0Z" id="p231w237" />
<path d="M270.44 295.91l50.39 0l0 12.23l-50.39 0Z" id="p231w238" />
<path d="M323.53 295.91l15.75 0l0 12.23l-15.75 0Z" id="p231w239" />
<path d="M341.98 295.91l19.44 0l0 12.23l-19.44 0Z" id="p231w240" />
<path d="M364.12 295.91l67.51 0l0 12.23l-67.51 0Z" id="p231w241" />
<path d="M270.44 310.95l18.92 0l0 12.56l-18.92 0Z" id="p231w242" />
<path d="M270.44 326.48l44.81 0l0 12.23l-44.81 0Z" id="p231w243" />
<path d="M326.27 326.48l21.37 0l0 12.23l-21.37 0Z" id="p231w244" />
<path d="M350.35 326.48l11.04 0l0 12.23l-11.04 0Z" id="p231w245" />
<path d="M367.24 325.38l53.05 0l0 13.77l-53.05 0Z" id="p231w246" />
<path d="M270.44 341.76l50.2 0l0 12.23l-50.2 0Z" id="p231w247" />
<path d="M323.34 341.76l19.44 0l0 12.23l-19.44 0Z" id="p231w248" />
<path d="M345.48 341.76l10.82 0l0 12.23l-10.82 0Z" id="p231w249" />
<path d="M359 341.76l18.21 0l0 12.23l-18.21 0Z" id="p231w250" />
<path d="M270.44 357.04l69.77 0l0 12.23l-69.77 0Z" id="p231w251" />
<path d="M342.91 357.04l19.44 0l0 12.23l-19.44 0Z" id="p231w252" />
<path d="M365.05 357.04l10.82 0l0 12.23l-10.82 0Z" id="p231w253" />
<path d="M378.57 357.04l15.76 0l0 12.23l-15.76 0Z" id="p231w254" />
<path d="M397.03 356.8l18.92 0l0 12.56l-18.92 0Z" id="p231w255" />
<path d="M260.59 372.33l8.33 0l0 12.23l-8.33 0Z" id="p231w256" />
<path d="M271.62 372.27l42.28 0l0 12.29l-42.28 0Z" id="p231w257" />
<path d="M316.6 372.33l18.91 0l0 12.23l-18.91 0Z" id="p231w258" />
<path d="M341.37 371.23l38 0l0 13.77l-38 0Z" id="p231w259" />
<path d="M385.23 372.33l16.43 0l0 12.23l-16.43 0Z" id="p231w260" />
<path d="M270.44 387.61l45.18 0l0 12.23l-45.18 0Z" id="p231w261" />
<path d="M318.33 387.61l24.32 0l0 12.23l-24.32 0Z" id="p231w262" />
<path d="M345.35 387.37l18.92 0l0 12.56l-18.92 0Z" id="p231w263" />
<path d="M260.59 402.84l29.93 0l0 12.29l-29.93 0Z" id="p231w264" />
<path d="M296.38 401.79l19.73 0l0 13.77l-19.73 0Z" id="p231w265" />
<path d="M321.97 402.89l29.38 0l0 12.23l-29.38 0Z" id="p231w266" />
<path d="M354.05 402.65l15.54 0l0 12.56l-15.54 0Z" id="p231w267" />
<path d="M260.59 418.12l19.12 0l0 12.29l-19.12 0Z" id="p231w268" />
<path d="M282.41 418.15l27.91 0l0 12.23l-27.91 0Z" id="p231w269" />
<path d="M316.18 417.08l14.55 0l0 13.77l-14.55 0Z" id="p231w270" />
<path d="M336.59 418.18l19.37 0l0 12.23l-19.37 0Z" id="p231w271" />
<path d="M358.66 418.15l25.65 0l0 12.23l-25.65 0Z" id="p231w272" />
<path d="M387.02 417.93l14.79 0l0 12.56l-14.79 0Z" id="p231w273" />
<path d="M260.59 433.46l11.94 0l0 12.23l-11.94 0Z" id="p231w274" />
<path d="M275.23 433.4l31.04 0l0 12.29l-31.04 0Z" id="p231w275" />
<path d="M306.28 433.46l21.73 0l0 12.23l-21.73 0Z" id="p231w276" />
<path d="M330.71 433.4l31.03 0l0 12.29l-31.03 0Z" id="p231w277" />
<path d="M364.44 433.44l27.91 0l0 12.23l-27.91 0Z" id="p231w278" />
<path d="M398.21 432.36l28.89 0l0 13.77l-28.89 0Z" id="p231w279" />
<path d="M270.44 447.64l37.46 0l0 13.77l-37.46 0Z" id="p231w280" />
<path d="M313.76 448.74l14.41 0l0 12.23l-14.41 0Z" id="p231w281" />
<path d="M330.86 448.74l56.84 0l0 12.23l-56.84 0Z" id="p231w282" />
<path d="M390.41 448.74l41.43 0l0 12.23l-41.43 0Z" id="p231w283" />
<path d="M270.44 463.78l14.79 0l0 12.56l-14.79 0Z" id="p231w284" />
<path d="M260.59 479.31l11.94 0l0 12.23l-11.94 0Z" id="p231w285" />
<path d="M275.23 479.25l28.64 0l0 12.29l-28.64 0Z" id="p231w286" />
<path d="M303.88 479.31l21.73 0l0 12.23l-21.73 0Z" id="p231w287" />
<path d="M328.31 479.25l28.64 0l0 12.29l-28.64 0Z" id="p231w288" />
<path d="M359.65 479.29l27.91 0l0 12.23l-27.91 0Z" id="p231w289" />
<path d="M393.42 478.21l32.46 0l0 13.77l-32.46 0Z" id="p231w290" />
<path d="M270.44 493.49l36.46 0l0 13.77l-36.46 0Z" id="p231w291" />
<path d="M312.76 494.59l14.41 0l0 12.23l-14.41 0Z" id="p231w292" />
<path d="M329.86 494.59l107.25 0l0 12.23l-107.25 0Z" id="p231w293" />
<path d="M270.44 509.88l94.28 0l0 12.23l-94.28 0Z" id="p231w294" />
<path d="M367.42 509.88l14.41 0l0 12.23l-14.41 0Z" id="p231w295" />
<path d="M384.53 509.88l57.52 0l0 12.23l-57.52 0Z" id="p231w296" />
<path d="M270.44 525.16l20.03 0l0 12.23l-20.03 0Z" id="p231w297" />
<path d="M293.17 525.16l62.13 0l0 12.23l-62.13 0Z" id="p231w298" />
<path d="M358.01 524.92l15.54 0l0 12.56l-15.54 0Z" id="p231w299" />
<path d="M260.59 540.44l23.19 0l0 12.23l-23.19 0Z" id="p231w300" />
<path d="M286.48 540.44l17.56 0l0 12.23l-17.56 0Z" id="p231w301" />
<path d="M306.74 540.39l74.64 0l0 12.29l-74.64 0Z" id="p231w302" />
<path d="M273.6 554.63l91.63 0l0 13.77l-91.63 0Z" id="p231w303" />
<path d="M371.09 555.73l49.68 0l0 12.23l-49.68 0Z" id="p231w304" />
<path d="M270.44 570.77l15.54 0l0 12.56l-15.54 0Z" id="p231w305" />
<path d="M260.59 586.24l36.48 0l0 12.29l-36.48 0Z" id="p231w306" />
<path d="M299.77 586.29l27.37 0l0 12.23l-27.37 0Z" id="p231w307" />
<path d="M333 585.19l29.02 0l0 13.77l-29.02 0Z" id="p231w308" />
<path d="M367.88 586.29l40.5 0l0 12.23l-40.5 0Z" id="p231w309" />
<path d="M270.44 601.58l53.71 0l0 12.23l-53.71 0Z" id="p231w310" />
<path d="M326.85 601.58l40.5 0l0 12.23l-40.5 0Z" id="p231w311" />
<path d="M370.06 601.58l51.31 0l0 12.23l-51.31 0Z" id="p231w312" />
<path d="M270.44 616.62l18.92 0l0 12.56l-18.92 0Z" id="p231w313" />
<path d="M260.59 632.09l57.5 0l0 12.29l-57.5 0Z" id="p231w314" />
<path d="M323.95 631.04l50.15 0l0 13.77l-50.15 0Z" id="p231w315" />
<path d="M270.44 647.43l70.47 0l0 12.23l-70.47 0Z" id="p231w316" />
<path d="M343.61 647.18l18.01 0l0 12.56l-18.01 0Z" id="p231w317" />
<path d="M268.92 662.66l20.03 0l0 12.29l-20.03 0Z" id="p231w318" />
<path d="M291.65 662.71l11.7 0l0 12.23l-11.7 0Z" id="p231w319" />
<path d="M309.21 661.61l35.99 0l0 13.77l-35.99 0Z" id="p231w320" />
<path d="M351.06 662.71l29.49 0l0 12.23l-29.49 0Z" id="p231w321" />
<path d="M383.25 662.47l15.54 0l0 12.56l-15.54 0Z" id="p231w322" />
<path d="M260.59 677.99l20.19 0l0 12.23l-20.19 0Z" id="p231w323" />
<path d="M283.48 677.94l20.03 0l0 12.29l-20.03 0Z" id="p231w324" />
<path d="M324.64 677.99l11.7 0l0 12.23l-11.7 0Z" id="p231w325" />
<path d="M339.04 677.99l31.37 0l0 12.23l-31.37 0Z" id="p231w326" />
<path d="M273.6 692.18l59.14 0l0 13.77l-59.14 0Z" id="p231w327" />
<path d="M338.6 693.28l45.45 0l0 12.23l-45.45 0Z" id="p231w328" />
<path d="M270.44 708.56l58.28 0l0 12.23l-58.28 0Z" id="p231w329" />
<path d="M331.42 708.32l18.72 0l0 12.56l-18.72 0Z" id="p231w330" />
<path d="M260.59 723.84l18.9 0l0 12.23l-18.9 0Z" id="p231w331" />
<path d="M290.51 723.79l20.03 0l0 12.29l-20.03 0Z" id="p231w332" />
<path d="M313.24 723.84l11.7 0l0 12.23l-11.7 0Z" id="p231w333" />
<path d="M327.65 723.84l15.07 0l0 12.23l-15.07 0Z" id="p231w334" />
<path d="M345.42 723.84l37.59 0l0 12.23l-37.59 0Z" id="p231w335" />
<path d="M385.72 723.82l27.91 0l0 12.23l-27.91 0Z" id="p231w336" />
<path d="M273.6 738.03l75.73 0l0 13.77l-75.73 0Z" id="p231w337" />
<path d="M355.18 739.13l68.44 0l0 12.23l-68.44 0Z" id="p231w338" />
<path d="M270.44 754.41l21.57 0l0 12.23l-21.57 0Z" id="p231w339" />
<path d="M294.72 754.41l29.49 0l0 12.23l-29.49 0Z" id="p231w340" />
<path d="M326.91 754.41l15.53 0l0 12.23l-15.53 0Z" id="p231w341" />
<path d="M345.13 754.41l21.62 0l0 12.23l-21.62 0Z" id="p231w342" />
<path d="M369.45 754.41l19.13 0l0 12.23l-19.13 0Z" id="p231w343" />
<path d="M391.28 754.39l25.65 0l0 12.23l-25.65 0Z" id="p231w344" />
<path d="M419.64 754.17l19.58 0l0 12.56l-19.58 0Z" id="p231w345" />
<path d="M260.59 769.7l10.35 0l0 12.23l-10.35 0Z" id="p231w346" />
<path d="M273.64 769.64l36.65 0l0 12.29l-36.65 0Z" id="p231w347" />
<path d="M316.15 768.59l29.2 0l0 13.77l-29.2 0Z" id="p231w348" />
<path d="M351.2 769.7l13.5 0l0 12.23l-13.5 0Z" id="p231w349" />
<path d="M367.41 769.7l20.03 0l0 12.23l-20.03 0Z" id="p231w350" />
<path d="M390.14 769.7l31.88 0l0 12.23l-31.88 0Z" id="p231w351" />
<path d="M270.44 784.98l39.39 0l0 12.23l-39.39 0Z" id="p231w352" />
<path d="M312.53 784.98l31.88 0l0 12.23l-31.88 0Z" id="p231w353" />
<path d="M347.11 784.98l18.46 0l0 12.23l-18.46 0Z" id="p231w354" />
<path d="M368.28 784.98l40.92 0l0 12.23l-40.92 0Z" id="p231w355" />
<path d="M411.89 784.73l15.54 0l0 12.56l-15.54 0Z" id="p231w356" />
<path d="M260.59 800.26l17.56 0l0 12.23l-17.56 0Z" id="p231w357" />
<path d="M280.86 800.21l34.74 0l0 12.29l-34.74 0Z" id="p231w358" />
<path d="M321.45 799.16l40.78 0l0 13.77l-40.78 0Z" id="p231w359" />
<path d="M368.09 800.26l20.03 0l0 12.23l-20.03 0Z" id="p231w360" />
<path d="M390.82 800.26l26.33 0l0 12.23l-26.33 0Z" id="p231w361" />
<path d="M270.44 815.3l15.34 0l0 12.56l-15.34 0Z" id="p231w362" />
<path d="M260.59 830.83l11.94 0l0 12.23l-11.94 0Z" id="p231w363" />
<path d="M275.23 830.77l22.49 0l0 12.29l-22.49 0Z" id="p231w364" />
<path d="M303.57 829.73l16.25 0l0 13.77l-16.25 0Z" id="p231w365" />
<path d="M325.68 830.83l14.41 0l0 12.23l-14.41 0Z" id="p231w366" />
<path d="M342.79 830.83l31.24 0l0 12.23l-31.24 0Z" id="p231w367" />
<path d="M376.73 830.58l15.54 0l0 12.56l-15.54 0Z" id="p231w368" />
<path d="M270.44 846.11l23.19 0l0 12.23l-23.19 0Z" id="p231w369" />
<path d="M296.33 846.11l11.94 0l0 12.23l-11.94 0Z" id="p231w370" />
<path d="M310.97 846.11l22.75 0l0 12.23l-22.75 0Z" id="p231w371" />
<path d="M336.42 846.11l11.7 0l0 12.23l-11.7 0Z" id="p231w372" />
<path d="M350.83 846.11l24.1 0l0 12.23l-24.1 0Z" id="p231w373" />
<path d="M377.62 846.11l21.62 0l0 12.23l-21.62 0Z" id="p231w374" />
<path d="M401.94 846.11l27.37 0l0 12.23l-27.37 0Z" id="p231w375" />
<path d="M273.6 860.3l75.87 0l0 13.77l-75.87 0Z" id="p231w376" />
<path d="M355.33 861.4l18.46 0l0 12.23l-18.46 0Z" id="p231w377" />
<path d="M376.49 861.4l8.78 0l0 12.23l-8.78 0Z" id="p231w378" />
<path d="M387.97 861.4l40.5 0l0 12.23l-40.5 0Z" id="p231w379" />
<path d="M270.44 876.68l43.44 0l0 12.23l-43.44 0Z" id="p231w380" />
<path d="M316.58 876.43l18.92 0l0 12.56l-18.92 0Z" id="p231w381" />
<path d="M260.59 891.91l32.01 0l0 12.29l-32.01 0Z" id="p231w382" />
<path d="M295.3 891.96l11.04 0l0 12.23l-11.04 0Z" id="p231w383" />
<path d="M312.2 890.86l22.71 0l0 13.77l-22.71 0Z" id="p231w384" />
<path d="M340.76 891.96l19.44 0l0 12.23l-19.44 0Z" id="p231w385" />
<path d="M362.91 891.96l59.66 0l0 12.23l-59.66 0Z" id="p231w386" />
<path d="M270.44 907l14.41 0l0 12.56l-14.41 0Z" id="p231w387" />
<path d="M462.11 112.45l34.11 0l0 12.29l-34.11 0Z" id="p231w388" />
<path d="M507.94 111.41l22.71 0l0 13.77l-22.71 0Z" id="p231w389" />
<path d="M536.5 112.51l36.48 0l0 12.23l-36.48 0Z" id="p231w390" />
<path d="M575.69 112.49l57.87 0l0 12.23l-57.87 0Z" id="p231w391" />
<path d="M471.96 127.77l13.96 0l0 12.23l-13.96 0Z" id="p231w392" />
<path d="M488.62 127.77l58.27 0l0 12.23l-58.27 0Z" id="p231w393" />
<path d="M549.59 127.55l14.41 0l0 12.56l-14.41 0Z" id="p231w394" />
<path d="M462.11 143.08l8.33 0l0 12.23l-8.33 0Z" id="p231w395" />
<path d="M473.14 143.02l23.48 0l0 12.29l-23.48 0Z" id="p231w396" />
<path d="M502.47 141.97l28.49 0l0 13.77l-28.49 0Z" id="p231w397" />
<path d="M536.82 143.08l16.43 0l0 12.23l-16.43 0Z" id="p231w398" />
<path d="M555.95 143.08l21.39 0l0 12.23l-21.39 0Z" id="p231w399" />
<path d="M580.03 142.83l18.01 0l0 12.56l-18.01 0Z" id="p231w400" />
<path d="M471.96 158.36l11.48 0l0 12.23l-11.48 0Z" id="p231w401" />
<path d="M486.14 158.36l24.1 0l0 12.23l-24.1 0Z" id="p231w402" />
<path d="M512.94 158.36l11.7 0l0 12.23l-11.7 0Z" id="p231w403" />
<path d="M530.5 157.26l37.34 0l0 13.77l-37.34 0Z" id="p231w404" />
<path d="M573.7 158.36l11.93 0l0 12.23l-11.93 0Z" id="p231w405" />
<path d="M588.32 158.36l33.09 0l0 12.23l-33.09 0Z" id="p231w406" />
<path d="M471.96 173.64l17.12 0l0 12.23l-17.12 0Z" id="p231w407" />
<path d="M491.78 173.4l18.01 0l0 12.56l-18.01 0Z" id="p231w408" />
<path d="M462.11 188.93l17.56 0l0 12.23l-17.56 0Z" id="p231w409" />
<path d="M482.37 188.87l20.33 0l0 12.29l-20.33 0Z" id="p231w410" />
<path d="M508.56 187.83l28.42 0l0 13.77l-28.42 0Z" id="p231w411" />
<path d="M542.84 188.93l14.41 0l0 12.23l-14.41 0Z" id="p231w412" />
<path d="M559.95 188.93l16.66 0l0 12.23l-16.66 0Z" id="p231w413" />
<path d="M579.31 188.68l14.63 0l0 12.56l-14.63 0Z" id="p231w414" />
<path d="M462.11 204.15l48.7 0l0 12.29l-48.7 0Z" id="p231w415" />
<path d="M514.97 204.15l53.9 0l0 12.29l-53.9 0Z" id="p231w416" />
<path d="M574.73 203.11l35.4 0l0 13.77l-35.4 0Z" id="p231w417" />
<path d="M471.96 218.39l37.58 0l0 13.77l-37.58 0Z" id="p231w418" />
<path d="M515.4 219.49l27.63 0l0 12.23l-27.63 0Z" id="p231w419" />
<path d="M545.73 219.25l14.41 0l0 12.56l-14.41 0Z" id="p231w420" />
<path d="M462.11 234.72l60.13 0l0 12.29l-60.13 0Z" id="p231w421" />
<path d="M528.1 233.68l37.44 0l0 13.77l-37.44 0Z" id="p231w422" />
<path d="M571.4 234.78l23.86 0l0 12.23l-23.86 0Z" id="p231w423" />
<path d="M606.43 234.78l13.28 0l0 12.23l-13.28 0Z" id="p231w424" />
<path d="M471.96 249.81l18.92 0l0 12.56l-18.92 0Z" id="p231w425" />
<path d="M462.11 265.29l35.99 0l0 12.29l-35.99 0Z" id="p231w426" />
<path d="M502.27 265.29l41.62 0l0 12.29l-41.62 0Z" id="p231w427" />
<path d="M549.74 264.24l52.07 0l0 13.77l-52.07 0Z" id="p231w428" />
<path d="M471.96 280.63l32.13 0l0 12.23l-32.13 0Z" id="p231w429" />
<path d="M515.26 280.63l54.43 0l0 12.23l-54.43 0Z" id="p231w430" />
<path d="M572.4 280.38l18.17 0l0 12.56l-18.17 0Z" id="p231w431" />
<path d="M462.11 295.91l18.9 0l0 12.23l-18.9 0Z" id="p231w432" />
<path d="M483.71 295.91l11.48 0l0 12.23l-11.48 0Z" id="p231w433" />
<path d="M497.89 295.85l35.99 0l0 12.29l-35.99 0Z" id="p231w434" />
<path d="M536.58 295.91l11.7 0l0 12.23l-11.7 0Z" id="p231w435" />
<path d="M550.99 295.91l11.04 0l0 12.23l-11.04 0Z" id="p231w436" />
<path d="M567.88 294.81l42.48 0l0 13.77l-42.48 0Z" id="p231w437" />
<path d="M616.22 295.91l21.39 0l0 12.23l-21.39 0Z" id="p231w438" />
<path d="M471.96 311.19l19.44 0l0 12.23l-19.44 0Z" id="p231w439" />
<path d="M494.1 311.19l42.55 0l0 12.23l-42.55 0Z" id="p231w440" />
<path d="M539.35 311.19l32.18 0l0 12.23l-32.18 0Z" id="p231w441" />
<path d="M574.23 310.95l18.92 0l0 12.56l-18.92 0Z" id="p231w442" />
<path d="M462.11 326.42l27.04 0l0 12.29l-27.04 0Z" id="p231w443" />
<path d="M495.01 325.38l25.48 0l0 13.77l-25.48 0Z" id="p231w444" />
<path d="M526.35 326.48l31.93 0l0 12.23l-31.93 0Z" id="p231w445" />
<path d="M560.98 326.48l33.31 0l0 12.23l-33.31 0Z" id="p231w446" />
<path d="M596.99 326.23l18.92 0l0 12.56l-18.92 0Z" id="p231w447" />
<path d="M471.96 341.76l27.02 0l0 12.23l-27.02 0Z" id="p231w448" />
<path d="M501.68 341.76l30.17 0l0 12.23l-30.17 0Z" id="p231w449" />
<path d="M534.55 341.76l8.33 0l0 12.23l-8.33 0Z" id="p231w450" />
<path d="M545.57 341.76l34.43 0l0 12.23l-34.43 0Z" id="p231w451" />
<path d="M475.12 355.94l76.88 0l0 13.77l-76.88 0Z" id="p231w452" />
<path d="M557.86 357.04l29.38 0l0 12.23l-29.38 0Z" id="p231w453" />
<path d="M589.94 357.04l14.41 0l0 12.23l-14.41 0Z" id="p231w454" />
<path d="M607.04 357.04l17.77 0l0 12.23l-17.77 0Z" id="p231w455" />
<path d="M471.96 372.33l45.02 0l0 12.23l-45.02 0Z" id="p231w456" />
<path d="M519.68 372.08l18.92 0l0 12.56l-18.92 0Z" id="p231w457" />
<path d="M462.11 387.61l11.94 0l0 12.23l-11.94 0Z" id="p231w458" />
<path d="M476.75 387.55l25.16 0l0 12.29l-25.16 0Z" id="p231w459" />
<path d="M507.77 386.51l21.67 0l0 13.77l-21.67 0Z" id="p231w460" />
<path d="M535.3 387.61l20.03 0l0 12.23l-20.03 0Z" id="p231w461" />
<path d="M471.96 402.89l87.08 0l0 12.23l-87.08 0Z" id="p231w462" />
<path d="M561.74 402.89l14.41 0l0 12.23l-14.41 0Z" id="p231w463" />
<path d="M578.84 402.89l20.49 0l0 12.23l-20.49 0Z" id="p231w464" />
<path d="M602.03 402.65l14.79 0l0 12.56l-14.79 0Z" id="p231w465" />
<path d="M471.96 418.18l11.94 0l0 12.23l-11.94 0Z" id="p231w466" />
<path d="M486.6 418.18l25.22 0l0 12.23l-25.22 0Z" id="p231w467" />
<path d="M514.52 418.18l11.7 0l0 12.23l-11.7 0Z" id="p231w468" />
<path d="M528.92 418.18l33.48 0l0 12.23l-33.48 0Z" id="p231w469" />
<path d="M568.26 417.08l55.41 0l0 13.77l-55.41 0Z" id="p231w470" />
<path d="M629.53 418.18l14.41 0l0 12.23l-14.41 0Z" id="p231w471" />
<path d="M471.96 433.46l58.07 0l0 12.23l-58.07 0Z" id="p231w472" />
<path d="M532.73 433.22l14.79 0l0 12.56l-14.79 0Z" id="p231w473" />
<path d="M462.11 448.74l21.37 0l0 12.23l-21.37 0Z" id="p231w474" />
<path d="M486.19 448.74l13.05 0l0 12.23l-13.05 0Z" id="p231w475" />
<path d="M501.94 448.69l35.62 0l0 12.29l-35.62 0Z" id="p231w476" />
<path d="M543.42 447.64l42.66 0l0 13.77l-42.66 0Z" id="p231w477" />
<path d="M591.94 448.74l46.37 0l0 12.23l-46.37 0Z" id="p231w478" />
<path d="M471.96 463.78l14.63 0l0 12.56l-14.63 0Z" id="p231w479" />
<path d="M462.11 479.31l11.94 0l0 12.23l-11.94 0Z" id="p231w480" />
<path d="M476.75 479.25l24.28 0l0 12.29l-24.28 0Z" id="p231w481" />
<path d="M506.88 478.21l21.67 0l0 13.77l-21.67 0Z" id="p231w482" />
<path d="M534.42 479.31l14.41 0l0 12.23l-14.41 0Z" id="p231w483" />
<path d="M551.22 479.31l52.91 0l0 12.23l-52.91 0Z" id="p231w484" />
<path d="M606.83 479.07l18.92 0l0 12.56l-18.92 0Z" id="p231w485" />
<path d="M462.11 494.54l24.28 0l0 12.29l-24.28 0Z" id="p231w486" />
<path d="M490.55 494.54l29.9 0l0 12.29l-29.9 0Z" id="p231w487" />
<path d="M526.31 493.49l40.16 0l0 13.77l-40.16 0Z" id="p231w488" />
<path d="M572.33 494.59l19.6 0l0 12.23l-19.6 0Z" id="p231w489" />
<path d="M594.63 494.35l15.34 0l0 12.56l-15.34 0Z" id="p231w490" />
<path d="M462.11 509.88l11.94 0l0 12.23l-11.94 0Z" id="p231w491" />
<path d="M476.75 509.82l24.28 0l0 12.29l-24.28 0Z" id="p231w492" />
<path d="M503.73 509.82l39.87 0l0 12.29l-39.87 0Z" id="p231w493" />
<path d="M549.45 508.78l54.8 0l0 13.77l-54.8 0Z" id="p231w494" />
<path d="M610.11 509.88l14.41 0l0 12.23l-14.41 0Z" id="p231w495" />
<path d="M471.96 525.16l26.8 0l0 12.23l-26.8 0Z" id="p231w496" />
<path d="M498.76 525.16l11.93 0l0 12.23l-11.93 0Z" id="p231w497" />
<path d="M513.39 524.92l18.92 0l0 12.56l-18.92 0Z" id="p231w498" />
<path d="M462.11 540.44l11.94 0l0 12.23l-11.94 0Z" id="p231w499" />
<path d="M476.75 540.39l42.53 0l0 12.29l-42.53 0Z" id="p231w500" />
<path d="M525.13 539.34l36.08 0l0 13.77l-36.08 0Z" id="p231w501" />
<path d="M567.07 540.44l14.41 0l0 12.23l-14.41 0Z" id="p231w502" />
<path d="M584.18 540.44l43.92 0l0 12.23l-43.92 0Z" id="p231w503" />
<path d="M471.96 555.48l18.92 0l0 12.56l-18.92 0Z" id="p231w504" />
<path d="M462.11 571.01l11.94 0l0 12.23l-11.94 0Z" id="p231w505" />
<path d="M476.75 570.96l30.16 0l0 12.29l-30.16 0Z" id="p231w506" />
<path d="M506.91 571.01l21.73 0l0 12.23l-21.73 0Z" id="p231w507" />
<path d="M531.34 570.96l35.78 0l0 12.29l-35.78 0Z" id="p231w508" />
<path d="M572.97 569.91l65.99 0l0 13.77l-65.99 0Z" id="p231w509" />
<path d="M471.96 586.29l14.41 0l0 12.23l-14.41 0Z" id="p231w510" />
<path d="M489.07 586.29l55.5 0l0 12.23l-55.5 0Z" id="p231w511" />
<path d="M547.26 586.29l36.92 0l0 12.23l-36.92 0Z" id="p231w512" />
<path d="M586.89 586.05l14.63 0l0 12.56l-14.63 0Z" id="p231w513" />
<path d="M462.11 601.52l29.9 0l0 12.29l-29.9 0Z" id="p231w514" />
<path d="M497.87 600.48l20.04 0l0 13.77l-20.04 0Z" id="p231w515" />
<path d="M523.77 601.58l31.29 0l0 12.23l-31.29 0Z" id="p231w516" />
<path d="M557.76 601.33l15.54 0l0 12.56l-15.54 0Z" id="p231w517" />
<path d="M462.11 616.86l11.94 0l0 12.23l-11.94 0Z" id="p231w518" />
<path d="M476.75 616.81l34.95 0l0 12.29l-34.95 0Z" id="p231w519" />
<path d="M517.55 615.76l31.49 0l0 13.77l-31.49 0Z" id="p231w520" />
<path d="M554.9 616.86l14.41 0l0 12.23l-14.41 0Z" id="p231w521" />
<path d="M572.01 616.86l34.45 0l0 12.23l-34.45 0Z" id="p231w522" />
<path d="M609.15 616.62l18.72 0l0 12.56l-18.72 0Z" id="p231w523" />
<path d="M462.11 632.14l11.94 0l0 12.23l-11.94 0Z" id="p231w524" />
<path d="M476.75 632.09l25.85 0l0 12.29l-25.85 0Z" id="p231w525" />
<path d="M508.46 631.04l26.55 0l0 13.77l-26.55 0Z" id="p231w526" />
<path d="M540.87 632.14l20.03 0l0 12.23l-20.03 0Z" id="p231w527" />
<path d="M563.6 632.14l33.09 0l0 12.23l-33.09 0Z" id="p231w528" />
<path d="M599.39 631.9l14.63 0l0 12.56l-14.63 0Z" id="p231w529" />
<path d="M462.11 647.37l38.55 0l0 12.29l-38.55 0Z" id="p231w530" />
<path d="M503.36 647.43l27.37 0l0 12.23l-27.37 0Z" id="p231w531" />
<path d="M536.58 646.33l27.07 0l0 13.77l-27.07 0Z" id="p231w532" />
<path d="M569.51 647.43l40.5 0l0 12.23l-40.5 0Z" id="p231w533" />
<path d="M471.96 662.71l39.85 0l0 12.23l-39.85 0Z" id="p231w534" />
<path d="M514.51 662.47l18.92 0l0 12.56l-18.92 0Z" id="p231w535" />
<path d="M462.11 677.94l35.7 0l0 12.29l-35.7 0Z" id="p231w536" />
<path d="M503.67 676.89l26.68 0l0 13.77l-26.68 0Z" id="p231w537" />
<path d="M536.2 677.99l14.41 0l0 12.23l-14.41 0Z" id="p231w538" />
<path d="M553.31 677.99l33.53 0l0 12.23l-33.53 0Z" id="p231w539" />
<path d="M589.55 677.99l43.63 0l0 12.23l-43.63 0Z" id="p231w540" />
<path d="M471.96 693.28l89.59 0l0 12.23l-89.59 0Z" id="p231w541" />
<path d="M564.25 693.03l15.54 0l0 12.56l-15.54 0Z" id="p231w542" />
<path d="M462.11 708.56l11.94 0l0 12.23l-11.94 0Z" id="p231w543" />
<path d="M476.75 708.51l31.14 0l0 12.29l-31.14 0Z" id="p231w544" />
<path d="M513.75 707.46l28.28 0l0 13.77l-28.28 0Z" id="p231w545" />
<path d="M547.89 708.56l14.41 0l0 12.23l-14.41 0Z" id="p231w546" />
<path d="M564.99 708.56l36.46 0l0 12.23l-36.46 0Z" id="p231w547" />
<path d="M604.15 708.32l18.92 0l0 12.56l-18.92 0Z" id="p231w548" />
<path d="M462.11 723.84l11.94 0l0 12.23l-11.94 0Z" id="p231w549" />
<path d="M476.75 723.79l39.14 0l0 12.29l-39.14 0Z" id="p231w550" />
<path d="M515.89 723.84l21.73 0l0 12.23l-21.73 0Z" id="p231w551" />
<path d="M540.32 723.79l40.59 0l0 12.29l-40.59 0Z" id="p231w552" />
<path d="M586.77 722.74l46.9 0l0 13.77l-46.9 0Z" id="p231w553" />
<path d="M471.96 738.03l48.84 0l0 13.77l-48.84 0Z" id="p231w554" />
<path d="M526.66 739.13l41.88 0l0 12.23l-41.88 0Z" id="p231w555" />
<path d="M571.24 738.88l18.01 0l0 12.56l-18.01 0Z" id="p231w556" />
<path d="M462.11 754.36l30.16 0l0 12.29l-30.16 0Z" id="p231w557" />
<path d="M496.43 754.36l37.12 0l0 12.29l-37.12 0Z" id="p231w558" />
<path d="M539.42 753.31l66.18 0l0 13.77l-66.18 0Z" id="p231w559" />
<path d="M611.45 754.41l31.96 0l0 12.23l-31.96 0Z" id="p231w560" />
<path d="M471.96 769.45l17.81 0l0 12.56l-17.81 0Z" id="p231w561" />
<path d="M462.11 784.98l17.56 0l0 12.23l-17.56 0Z" id="p231w562" />
<path d="M482.37 784.92l30.38 0l0 12.29l-30.38 0Z" id="p231w563" />
<path d="M518.61 783.88l30.29 0l0 13.77l-30.29 0Z" id="p231w564" />
<path d="M554.75 784.98l20.03 0l0 12.23l-20.03 0Z" id="p231w565" />
<path d="M577.49 784.98l59.88 0l0 12.23l-59.88 0Z" id="p231w566" />
<path d="M471.96 800.02l18.72 0l0 12.56l-18.72 0Z" id="p231w567" />
<path d="M462.11 815.49l23.59 0l0 12.29l-23.59 0Z" id="p231w568" />
<path d="M488.4 815.55l11.04 0l0 12.23l-11.04 0Z" id="p231w569" />
<path d="M505.29 814.45l21.14 0l0 13.77l-21.14 0Z" id="p231w570" />
<path d="M532.29 815.55l19.44 0l0 12.23l-19.44 0Z" id="p231w571" />
<path d="M554.43 815.55l42.02 0l0 12.23l-42.02 0Z" id="p231w572" />
<path d="M599.15 815.55l19.44 0l0 12.23l-19.44 0Z" id="p231w573" />
<path d="M471.96 830.83l40.07 0l0 12.23l-40.07 0Z" id="p231w574" />
<path d="M514.73 830.58l18.92 0l0 12.56l-18.92 0Z" id="p231w575" />
<path d="M462.11 846.11l17.56 0l0 12.23l-17.56 0Z" id="p231w576" />
<path d="M482.37 846.06l25.74 0l0 12.29l-25.74 0Z" id="p231w577" />
<path d="M513.97 845.01l33.08 0l0 13.77l-33.08 0Z" id="p231w578" />
<path d="M552.91 846.11l20.03 0l0 12.23l-20.03 0Z" id="p231w579" />
<path d="M575.64 846.11l27.23 0l0 12.23l-27.23 0Z" id="p231w580" />
<path d="M605.57 845.87l15.54 0l0 12.56l-15.54 0Z" id="p231w581" />
<path d="M462.11 861.4l17.56 0l0 12.23l-17.56 0Z" id="p231w582" />
<path d="M482.37 861.34l38.08 0l0 12.29l-38.08 0Z" id="p231w583" />
<path d="M526.31 860.3l41.59 0l0 13.77l-41.59 0Z" id="p231w584" />
<path d="M573.76 861.4l14.41 0l0 12.23l-14.41 0Z" id="p231w585" />
<path d="M590.87 861.4l30.31 0l0 12.23l-30.31 0ZM471.96 876.68l50.94 0l0 12.23l-50.94 0Z" id="p231w586" />
<path d="M525.6 876.43l15.54 0l0 12.56l-15.54 0Z" id="p231w587" />
<path d="M462.11 891.91l24.73 0l0 12.29l-24.73 0Z" id="p231w588" />
<path d="M491.01 891.91l30.36 0l0 12.29l-30.36 0Z" id="p231w589" />
<path d="M524.07 891.94l27.91 0l0 12.23l-27.91 0Z" id="p231w590" />
<path d="M557.84 890.86l26.24 0l0 13.77l-26.24 0Z" id="p231w591" />
<path d="M589.94 891.96l25.6 0l0 12.23l-25.6 0Z" id="p231w592" />
<path d="M471.96 907.22l25.65 0l0 12.23l-25.65 0Z" id="p231w593" />
<path d="M502.76 907.25l30.39 0l0 12.23l-30.39 0Z" id="p231w594" />
<path d="M535.85 907.22l25.65 0l0 12.23l-25.65 0Z" id="p231w595" />
<path d="M564.2 907l18.17 0l0 12.56l-18.17 0Z" id="p231w596" />
<path d="M462.11 922.47l20.85 0l0 12.29l-20.85 0Z" id="p231w597" />
<path d="M488.82 921.43l22.05 0l0 13.77l-22.05 0Z" id="p231w598" />
<path d="M516.73 922.53l39.61 0l0 12.23l-39.61 0Z" id="p231w599" />
<path d="M559.05 922.28l19.58 0l0 12.56l-19.58 0Z" id="p231w600" />
</svg>
