<?xml version="1.0" encoding="UTF-8"?>
<svg xmlns="http://www.w3.org/2000/svg" xmlns:xlink="http://www.w3.org/1999/xlink" version="1.1" baseProfile="full" width="768" height="1024" viewBox="0,0,768,1024" preserveAspectRatio="xMinYMin meet" >
<style type="text/css">
<![CDATA[
path {fill-opacity: 0.5;fill: #00aeef;visibility: hidden;}
]]>
</style>
<path d="M124.06 104.82l35.79 0l0 23.34l-35.79 0Z" id="p50w1" />
<path d="M164.93 104.82l55.53 0l0 23.34l-55.53 0Z" id="p50w2" />
<path d="M225.54 104.82l19.2 0l0 23.34l-19.2 0Z" id="p50w3" />
<path d="M249.81 104.82l33.03 0l0 23.34l-33.03 0Z" id="p50w4" />
<path d="M287.92 104.82l52.79 0l0 23.34l-52.79 0Z" id="p50w5" />
<path d="M138.66 138.9l27.3 0l0 15.09l-27.3 0Z" id="p50w6" />
<path d="M169.57 138.9l11.88 0l0 15.09l-11.88 0Z" id="p50w7" />
<path d="M185.06 138.9l53.99 0l0 15.09l-53.99 0Z" id="p50w8" />
<path d="M242.66 138.9l45.37 0l0 15.09l-45.37 0Z" id="p50w9" />
<path d="M291.64 138.9l14.21 0l0 15.09l-14.21 0Z" id="p50w10" />
<path d="M309.46 138.9l44.67 0l0 15.09l-44.67 0Z" id="p50w11" />
<path d="M357.75 138.9l36.87 0l0 15.09l-36.87 0Z" id="p50w12" />
<path d="M124.06 155.57l16.64 0l0 15.09l-16.64 0Z" id="p50w13" />
<path d="M144.32 155.57l15.74 0l0 15.09l-15.74 0Z" id="p50w14" />
<path d="M163.67 155.57l21.87 0l0 15.09l-21.87 0Z" id="p50w15" />
<path d="M189.16 155.57l51.31 0l0 15.09l-51.31 0Z" id="p50w16" />
<path d="M244.07 155.57l93.41 0l0 15.09l-93.41 0Z" id="p50w17" />
<path d="M341.09 155.57l15.89 0l0 15.09l-15.89 0Z" id="p50w18" />
<path d="M124.06 172.24l56.19 0l0 15.09l-56.19 0Z" id="p50w19" />
<path d="M183.86 172.24l19.29 0l0 15.09l-19.29 0Z" id="p50w20" />
<path d="M206.76 172.24l30.02 0l0 15.09l-30.02 0Z" id="p50w21" />
<path d="M249.48 172.24l15.55 0l0 15.09l-15.55 0Z" id="p50w22" />
<path d="M268.65 172.24l53.99 0l0 15.09l-53.99 0Z" id="p50w23" />
<path d="M326.25 172.24l37.89 0l0 15.09l-37.89 0Z" id="p50w24" />
<path d="M367.75 172.24l36.87 0l0 15.09l-36.87 0Z" id="p50w25" />
<path d="M124.06 188.91l11.26 0l0 15.09l-11.26 0Z" id="p50w26" />
<path d="M138.93 188.91l42.17 0l0 15.09l-42.17 0Z" id="p50w27" />
<path d="M184.71 188.91l19.84 0l0 15.09l-19.84 0Z" id="p50w28" />
<path d="M208.16 188.91l72.02 0l0 15.09l-72.02 0Z" id="p50w29" />
<path d="M283.8 188.91l13.07 0l0 15.09l-13.07 0Z" id="p50w30" />
<path d="M300.48 188.91l24.64 0l0 15.09l-24.64 0Z" id="p50w31" />
<path d="M328.73 188.91l19.62 0l0 15.09l-19.62 0Z" id="p50w32" />
<path d="M351.97 188.91l19.29 0l0 15.09l-19.29 0Z" id="p50w33" />
<path d="M124.06 205.58l37.98 0l0 15.09l-37.98 0Z" id="p50w34" />
<path d="M165.65 205.58l27.82 0l0 15.09l-27.82 0Z" id="p50w35" />
<path d="M197.09 205.58l35.34 0l0 15.09l-35.34 0Z" id="p50w36" />
<path d="M236.04 205.58l64.65 0l0 15.09l-64.65 0Z" id="p50w37" />
<path d="M304.3 205.58l27.81 0l0 15.09l-27.81 0Z" id="p50w38" />
<path d="M335.72 205.58l31.23 0l0 15.09l-31.23 0Z" id="p50w39" />
<path d="M370.56 205.58l15.89 0l0 15.09l-15.89 0Z" id="p50w40" />
<path d="M124.06 222.25l29.24 0l0 15.09l-29.24 0Z" id="p50w41" />
<path d="M156.91 222.25l21.67 0l0 15.09l-21.67 0Z" id="p50w42" />
<path d="M182.19 222.25l36.87 0l0 15.09l-36.87 0Z" id="p50w43" />
<path d="M222.67 222.25l14.59 0l0 15.09l-14.59 0Z" id="p50w44" />
<path d="M240.87 222.25l44.35 0l0 15.09l-44.35 0Z" id="p50w45" />
<path d="M288.84 222.25l19.46 0l0 15.09l-19.46 0Z" id="p50w46" />
<path d="M311.91 222.25l11.26 0l0 15.09l-11.26 0Z" id="p50w47" />
<path d="M326.78 222.25l45.44 0l0 15.09l-45.44 0Z" id="p50w48" />
<path d="M375.83 222.25l15.06 0l0 15.09l-15.06 0Z" id="p50w49" />
<path d="M124.06 238.92l30.01 0l0 15.09l-30.01 0Z" id="p50w50" />
<path d="M157.68 238.92l7.84 0l0 15.09l-7.84 0Z" id="p50w51" />
<path d="M169.13 238.92l16.64 0l0 15.09l-16.64 0Z" id="p50w52" />
<path d="M189.39 238.92l85.9 0l0 15.09l-85.9 0Z" id="p50w53" />
<path d="M278.9 238.92l47.63 0l0 15.09l-47.63 0Z" id="p50w54" />
<path d="M330.14 238.92l12.22 0l0 15.09l-12.22 0Z" id="p50w55" />
<path d="M345.98 238.92l26.3 0l0 15.09l-26.3 0Z" id="p50w56" />
<path d="M124.06 255.59l42.86 0l0 15.09l-42.86 0Z" id="p50w57" />
<path d="M170.53 255.59l10.42 0l0 15.09l-10.42 0Z" id="p50w58" />
<path d="M184.57 255.59l37.19 0l0 15.09l-37.19 0Z" id="p50w59" />
<path d="M225.37 255.59l33.26 0l0 15.09l-33.26 0Z" id="p50w60" />
<path d="M262.25 255.59l14.59 0l0 15.09l-14.59 0Z" id="p50w61" />
<path d="M280.44 255.59l40.24 0l0 15.09l-40.24 0Z" id="p50w62" />
<path d="M324.3 255.59l14.59 0l0 15.09l-14.59 0Z" id="p50w63" />
<path d="M342.49 255.59l49.87 0l0 15.09l-49.87 0Z" id="p50w64" />
<path d="M152.98 272.25l10.42 0l0 15.09l-10.42 0Z" id="p50w65" />
<path d="M167.01 272.25l16.23 0l0 15.09l-16.23 0Z" id="p50w66" />
<path d="M186.86 272.25l19.29 0l0 15.09l-19.29 0Z" id="p50w67" />
<path d="M209.76 272.25l35.28 0l0 15.09l-35.28 0Z" id="p50w68" />
<path d="M248.65 272.25l36.87 0l0 15.09l-36.87 0Z" id="p50w69" />
<path d="M289.13 272.25l16.64 0l0 15.09l-16.64 0Z" id="p50w70" />
<path d="M309.39 272.25l44.31 0l0 15.09l-44.31 0Z" id="p50w71" />
<path d="M357.31 272.25l12.22 0l0 15.09l-12.22 0Z" id="p50w72" />
<path d="M373.15 272.25l10.42 0l0 15.09l-10.42 0Z" id="p50w73" />
<path d="M124.06 288.92l45.37 0l0 15.09l-45.37 0Z" id="p50w74" />
<path d="M173.04 288.92l28.22 0l0 15.09l-28.22 0Z" id="p50w75" />
<path d="M204.87 288.92l49.15 0l0 15.09l-49.15 0Z" id="p50w76" />
<path d="M257.63 288.92l19.46 0l0 15.09l-19.46 0Z" id="p50w77" />
<path d="M280.7 288.92l26.71 0l0 15.09l-26.71 0Z" id="p50w78" />
<path d="M318.15 288.92l7.84 0l0 15.09l-7.84 0Z" id="p50w79" />
<path d="M350.01 288.92l39.76 0l0 15.09l-39.76 0Z" id="p50w80" />
<path d="M124.06 305.59l15.89 0l0 15.09l-15.89 0Z" id="p50w81" />
<path d="M143.56 305.59l42.39 0l0 15.09l-42.39 0Z" id="p50w82" />
<path d="M189.56 305.59l27.82 0l0 15.09l-27.82 0Z" id="p50w83" />
<path d="M220.99 305.59l10.5 0l0 15.09l-10.5 0Z" id="p50w84" />
<path d="M235.1 305.59l62.87 0l0 15.09l-62.87 0Z" id="p50w85" />
<path d="M338.59 305.59l43.27 0l0 15.09l-43.27 0Z" id="p50w86" />
<path d="M124.06 322.26l36.87 0l0 15.09l-36.87 0Z" id="p50w87" />
<path d="M164.55 322.26l11.26 0l0 15.09l-11.26 0Z" id="p50w88" />
<path d="M179.42 322.26l42.17 0l0 15.09l-42.17 0Z" id="p50w89" />
<path d="M225.19 322.26l19.84 0l0 15.09l-19.84 0Z" id="p50w90" />
<path d="M248.65 322.26l30.82 0l0 15.09l-30.82 0Z" id="p50w91" />
<path d="M283.08 322.26l47.17 0l0 15.09l-47.17 0Z" id="p50w92" />
<path d="M333.86 322.26l15.89 0l0 15.09l-15.89 0Z" id="p50w93" />
<path d="M353.35 322.26l45.95 0l0 15.09l-45.95 0Z" id="p50w94" />
<path d="M124.06 338.93l11.26 0l0 15.09l-11.26 0Z" id="p50w95" />
<path d="M138.93 338.93l36.87 0l0 15.09l-36.87 0Z" id="p50w96" />
<path d="M179.42 338.93l16.64 0l0 15.09l-16.64 0Z" id="p50w97" />
<path d="M199.67 338.93l46.59 0l0 15.09l-46.59 0Z" id="p50w98" />
<path d="M249.87 338.93l29.24 0l0 15.09l-29.24 0Z" id="p50w99" />
<path d="M282.72 338.93l13.91 0l0 15.09l-13.91 0Z" id="p50w100" />
<path d="M300.24 338.93l26.96 0l0 15.09l-26.96 0Z" id="p50w101" />
<path d="M337.94 338.93l7.84 0l0 15.09l-7.84 0Z" id="p50w102" />
<path d="M349.4 338.93l23.07 0l0 15.09l-23.07 0Z" id="p50w103" />
<path d="M124.06 355.6l39.76 0l0 15.09l-39.76 0Z" id="p50w104" />
<path d="M167.44 355.6l59.18 0l0 15.09l-59.18 0Z" id="p50w105" />
<path d="M240.33 355.6l45.38 0l0 15.09l-45.38 0Z" id="p50w106" />
<path d="M289.33 355.6l23.9 0l0 15.09l-23.9 0Z" id="p50w107" />
<path d="M150.94 388.95l32.63 0l0 15.09l-32.63 0Z" id="p50w108" />
<path d="M187.18 388.95l50.95 0l0 15.09l-50.95 0Z" id="p50w109" />
<path d="M241.73 388.95l36.83 0l0 15.09l-36.83 0Z" id="p50w110" />
<path d="M282.18 388.95l22.4 0l0 15.09l-22.4 0Z" id="p50w111" />
<path d="M308.19 388.95l21.67 0l0 15.09l-21.67 0Z" id="p50w112" />
<path d="M333.47 388.95l36.87 0l0 15.09l-36.87 0Z" id="p50w113" />
<path d="M373.96 388.95l11.95 0l0 15.09l-11.95 0Z" id="p50w114" />
<path d="M389.52 388.95l19.62 0l0 15.09l-19.62 0Z" id="p50w115" />
<path d="M412.76 388.95l15.06 0l0 15.09l-15.06 0Z" id="p50w116" />
<path d="M431.43 388.95l33.4 0l0 15.09l-33.4 0Z" id="p50w117" />
<path d="M124.06 416.06l24.42 0l0 12.29l-24.42 0Z" id="p50w118" />
<path d="M151.18 416.06l29.1 0l0 12.29l-29.1 0Z" id="p50w119" />
<path d="M189.52 414l53.53 0l0 15.09l-53.53 0Z" id="p50w120" />
<path d="M246.66 414l26.5 0l0 15.09l-26.5 0Z" id="p50w121" />
<path d="M300.74 414l36.87 0l0 15.09l-36.87 0Z" id="p50w122" />
<path d="M350.31 414l15.01 0l0 15.09l-15.01 0Z" id="p50w123" />
<path d="M368.93 414l14.59 0l0 15.09l-14.59 0Z" id="p50w124" />
<path d="M387.13 414l25.59 0l0 15.09l-25.59 0Z" id="p50w125" />
<path d="M416.33 414l19.46 0l0 15.09l-19.46 0Z" id="p50w126" />
<path d="M439.4 414l25.88 0l0 15.09l-25.88 0Z" id="p50w127" />
<path d="M468.89 414l31.41 0l0 15.09l-31.41 0Z" id="p50w128" />
<path d="M135.87 430.67l14.21 0l0 15.09l-14.21 0Z" id="p50w129" />
<path d="M153.7 430.67l41.11 0l0 15.09l-41.11 0Z" id="p50w130" />
<path d="M124.06 449.41l28.99 0l0 12.29l-28.99 0Z" id="p50w131" />
<path d="M162.29 447.35l10.63 0l0 15.09l-10.63 0Z" id="p50w132" />
<path d="M176.53 447.35l21.98 0l0 15.09l-21.98 0Z" id="p50w133" />
<path d="M202.11 447.35l23.88 0l0 15.09l-23.88 0Z" id="p50w134" />
<path d="M229.6 447.35l60.55 0l0 15.09l-60.55 0Z" id="p50w135" />
<path d="M293.76 447.35l12.22 0l0 15.09l-12.22 0Z" id="p50w136" />
<path d="M309.59 447.35l36.95 0l0 15.09l-36.95 0Z" id="p50w137" />
<path d="M350.16 447.35l10.54 0l0 15.09l-10.54 0Z" id="p50w138" />
<path d="M364.31 447.35l33.52 0l0 15.09l-33.52 0Z" id="p50w139" />
<path d="M401.43 447.35l10.54 0l0 15.09l-10.54 0Z" id="p50w140" />
<path d="M415.58 447.35l20.32 0l0 15.09l-20.32 0Z" id="p50w141" />
<path d="M439.51 447.35l30.01 0l0 15.09l-30.01 0Z" id="p50w142" />
<path d="M473.14 447.35l13.91 0l0 15.09l-13.91 0Z" id="p50w143" />
<path d="M490.65 447.35l35.39 0l0 15.09l-35.39 0Z" id="p50w144" />
<path d="M135.87 464.02l26.35 0l0 15.09l-26.35 0Z" id="p50w145" />
<path d="M165.83 464.02l10.5 0l0 15.09l-10.5 0Z" id="p50w146" />
<path d="M179.94 464.02l41.09 0l0 15.09l-41.09 0Z" id="p50w147" />
<path d="M224.64 464.02l13.16 0l0 15.09l-13.16 0Z" id="p50w148" />
<path d="M241.41 464.02l11.95 0l0 15.09l-11.95 0Z" id="p50w149" />
<path d="M256.98 464.02l46.22 0l0 15.09l-46.22 0Z" id="p50w150" />
<path d="M306.81 464.02l13.91 0l0 15.09l-13.91 0Z" id="p50w151" />
<path d="M324.32 464.02l36.1 0l0 15.09l-36.1 0Z" id="p50w152" />
<path d="M138.77 482.76l29.1 0l0 12.29l-29.1 0Z" id="p50w153" />
<path d="M177.1 480.7l16.15 0l0 15.09l-16.15 0Z" id="p50w154" />
<path d="M196.87 480.7l57.01 0l0 15.09l-57.01 0Z" id="p50w155" />
<path d="M257.49 480.7l23.02 0l0 15.09l-23.02 0Z" id="p50w156" />
<path d="M284.12 480.7l36.87 0l0 15.09l-36.87 0Z" id="p50w157" />
<path d="M331.56 480.7l28.72 0l0 15.09l-28.72 0Z" id="p50w158" />
<path d="M363.89 480.7l42.99 0l0 15.09l-42.99 0Z" id="p50w159" />
<path d="M410.49 480.7l14.21 0l0 15.09l-14.21 0Z" id="p50w160" />
<path d="M428.32 480.7l36.87 0l0 15.09l-36.87 0Z" id="p50w161" />
<path d="M135.87 497.36l10.71 0l0 15.09l-10.71 0Z" id="p50w162" />
<path d="M150.19 497.36l12.41 0l0 15.09l-12.41 0Z" id="p50w163" />
<path d="M166.22 497.36l69.13 0l0 15.09l-69.13 0Z" id="p50w164" />
<path d="M238.96 497.36l12.41 0l0 15.09l-12.41 0Z" id="p50w165" />
<path d="M254.98 497.36l28.36 0l0 15.09l-28.36 0Z" id="p50w166" />
<path d="M286.96 497.36l22.03 0l0 15.09l-22.03 0Z" id="p50w167" />
<path d="M312.6 497.36l21.84 0l0 15.09l-21.84 0Z" id="p50w168" />
<path d="M338.05 497.36l19.29 0l0 15.09l-19.29 0Z" id="p50w169" />
<path d="M360.95 497.36l47.49 0l0 15.09l-47.49 0Z" id="p50w170" />
<path d="M412.05 497.36l23.22 0l0 15.09l-23.22 0Z" id="p50w171" />
<path d="M438.88 497.36l41.95 0l0 15.09l-41.95 0Z" id="p50w172" />
<path d="M124.06 516.1l24.42 0l0 12.29l-24.42 0Z" id="p50w173" />
<path d="M151.18 516.1l29.1 0l0 12.29l-29.1 0Z" id="p50w174" />
<path d="M189.52 514.04l12.22 0l0 15.09l-12.22 0Z" id="p50w175" />
<path d="M205.35 514.04l15.89 0l0 15.09l-15.89 0Z" id="p50w176" />
<path d="M224.85 514.04l38.95 0l0 15.09l-38.95 0Z" id="p50w177" />
<path d="M267.41 514.04l12.66 0l0 15.09l-12.66 0Z" id="p50w178" />
<path d="M283.68 514.04l28.22 0l0 15.09l-28.22 0Z" id="p50w179" />
<path d="M315.52 514.04l19.46 0l0 15.09l-19.46 0Z" id="p50w180" />
<path d="M338.59 514.04l31.87 0l0 15.09l-31.87 0Z" id="p50w181" />
<path d="M135.87 530.71l10.71 0l0 15.09l-10.71 0Z" id="p50w182" />
<path d="M150.19 530.71l12.41 0l0 15.09l-12.41 0Z" id="p50w183" />
<path d="M166.22 530.71l31.73 0l0 15.09l-31.73 0Z" id="p50w184" />
<path d="M201.56 530.71l15.15 0l0 15.09l-15.15 0Z" id="p50w185" />
<path d="M220.32 530.71l15.89 0l0 15.09l-15.89 0Z" id="p50w186" />
<path d="M239.82 530.71l56.39 0l0 15.09l-56.39 0Z" id="p50w187" />
<path d="M138.66 564.06l18.46 0l0 15.09l-18.46 0Z" id="p50w188" />
<path d="M160.73 564.06l36.83 0l0 15.09l-36.83 0Z" id="p50w189" />
<path d="M201.17 564.06l19.84 0l0 15.09l-19.84 0Z" id="p50w190" />
<path d="M224.63 564.06l36.32 0l0 15.09l-36.32 0Z" id="p50w191" />
<path d="M271.69 564.06l14.21 0l0 15.09l-14.21 0Z" id="p50w192" />
<path d="M289.52 564.06l26.94 0l0 15.09l-26.94 0Z" id="p50w193" />
<path d="M320.07 564.06l13.91 0l0 15.09l-13.91 0Z" id="p50w194" />
<path d="M337.58 564.06l26.5 0l0 15.09l-26.5 0Z" id="p50w195" />
<path d="M124.06 580.73l57.91 0l0 15.09l-57.91 0Z" id="p50w196" />
<path d="M185.58 580.73l36.87 0l0 15.09l-36.87 0Z" id="p50w197" />
<path d="M226.07 580.73l11.95 0l0 15.09l-11.95 0Z" id="p50w198" />
<path d="M241.63 580.73l59.88 0l0 15.09l-59.88 0Z" id="p50w199" />
<path d="M305.12 580.73l24.37 0l0 15.09l-24.37 0Z" id="p50w200" />
<path d="M333.1 580.73l37.44 0l0 15.09l-37.44 0Z" id="p50w201" />
<path d="M124.06 597.4l7.84 0l0 15.09l-7.84 0Z" id="p50w202" />
<path d="M135.51 597.4l60.15 0l0 15.09l-60.15 0Z" id="p50w203" />
<path d="M199.27 597.4l56.7 0l0 15.09l-56.7 0Z" id="p50w204" />
<path d="M259.59 597.4l13.91 0l0 15.09l-13.91 0Z" id="p50w205" />
<path d="M277.1 597.4l38.65 0l0 15.09l-38.65 0Z" id="p50w206" />
<path d="M319.36 597.4l11.26 0l0 15.09l-11.26 0Z" id="p50w207" />
<path d="M334.23 597.4l46.29 0l0 15.09l-46.29 0Z" id="p50w208" />
<path d="M124.06 614.07l7.84 0l0 15.09l-7.84 0Z" id="p50w209" />
<path d="M135.51 614.07l18.07 0l0 15.09l-18.07 0Z" id="p50w210" />
<path d="M157.19 614.07l24.62 0l0 15.09l-24.62 0Z" id="p50w211" />
<path d="M185.43 614.07l27.26 0l0 15.09l-27.26 0Z" id="p50w212" />
<path d="M216.3 614.07l13.91 0l0 15.09l-13.91 0Z" id="p50w213" />
<path d="M233.82 614.07l37.86 0l0 15.09l-37.86 0Z" id="p50w214" />
<path d="M275.29 614.07l27.61 0l0 15.09l-27.61 0Z" id="p50w215" />
<path d="M306.51 614.07l42.17 0l0 15.09l-42.17 0Z" id="p50w216" />
<path d="M352.29 614.07l11.26 0l0 15.09l-11.26 0Z" id="p50w217" />
<path d="M124.06 630.74l50.91 0l0 15.09l-50.91 0Z" id="p50w218" />
<path d="M178.58 630.74l7.84 0l0 15.09l-7.84 0Z" id="p50w219" />
<path d="M190.03 630.74l48.97 0l0 15.09l-48.97 0Z" id="p50w220" />
<path d="M242.61 630.74l28.89 0l0 15.09l-28.89 0Z" id="p50w221" />
<path d="M275.11 630.74l10.5 0l0 15.09l-10.5 0Z" id="p50w222" />
<path d="M289.22 630.74l46.31 0l0 15.09l-46.31 0Z" id="p50w223" />
<path d="M339.14 630.74l46.76 0l0 15.09l-46.76 0Z" id="p50w224" />
<path d="M124.06 647.41l24.78 0l0 15.09l-24.78 0Z" id="p50w225" />
<path d="M152.45 647.41l26.63 0l0 15.09l-26.63 0Z" id="p50w226" />
<path d="M182.69 647.41l47.26 0l0 15.09l-47.26 0Z" id="p50w227" />
<path d="M124.06 674.49l38.51 0l0 12.29l-38.51 0Z" id="p50w228" />
<path d="M171.81 672.43l27.97 0l0 15.09l-27.97 0Z" id="p50w229" />
<path d="M203.39 672.43l26.01 0l0 15.09l-26.01 0Z" id="p50w230" />
<path d="M233.01 672.43l24.37 0l0 15.09l-24.37 0Z" id="p50w231" />
<path d="M260.99 672.43l38.77 0l0 15.09l-38.77 0Z" id="p50w232" />
<path d="M303.38 672.43l10.5 0l0 15.09l-10.5 0Z" id="p50w233" />
<path d="M317.49 672.43l43.17 0l0 15.09l-43.17 0Z" id="p50w234" />
<path d="M364.27 672.43l37.57 0l0 15.09l-37.57 0Z" id="p50w235" />
<path d="M135.88 689.1l13.91 0l0 15.09l-13.91 0Z" id="p50w236" />
<path d="M153.39 689.1l48.54 0l0 15.09l-48.54 0Z" id="p50w237" />
<path d="M214.63 689.1l27.97 0l0 15.09l-27.97 0Z" id="p50w238" />
<path d="M246.21 689.1l33.27 0l0 15.09l-33.27 0Z" id="p50w239" />
<path d="M283.1 689.1l28.89 0l0 15.09l-28.89 0Z" id="p50w240" />
<path d="M124.06 707.84l28.99 0l0 12.29l-28.99 0Z" id="p50w241" />
<path d="M162.29 705.78l21.36 0l0 15.09l-21.36 0Z" id="p50w242" />
<path d="M187.26 705.78l19.63 0l0 15.09l-19.63 0Z" id="p50w243" />
<path d="M210.49 705.78l28.89 0l0 15.09l-28.89 0Z" id="p50w244" />
<path d="M243 705.78l26.14 0l0 15.09l-26.14 0Z" id="p50w245" />
<path d="M124.06 724.51l38.51 0l0 12.29l-38.51 0Z" id="p50w246" />
<path d="M171.81 722.45l16.23 0l0 15.09l-16.23 0Z" id="p50w247" />
<path d="M191.65 722.45l14.57 0l0 15.09l-14.57 0Z" id="p50w248" />
<path d="M209.84 722.45l18.13 0l0 15.09l-18.13 0Z" id="p50w249" />
<path d="M231.58 722.45l29.24 0l0 15.09l-29.24 0Z" id="p50w250" />
<path d="M264.43 722.45l13.91 0l0 15.09l-13.91 0Z" id="p50w251" />
<path d="M281.95 722.45l34.28 0l0 15.09l-34.28 0Z" id="p50w252" />
<path d="M319.84 722.45l18.93 0l0 15.09l-18.93 0Z" id="p50w253" />
<path d="M350.83 722.45l19.01 0l0 15.09l-19.01 0Z" id="p50w254" />
<path d="M373.44 722.45l19.63 0l0 15.09l-19.63 0Z" id="p50w255" />
<path d="M135.88 739.12l40.43 0l0 15.09l-40.43 0Z" id="p50w256" />
<path d="M179.92 739.12l40.7 0l0 15.09l-40.7 0Z" id="p50w257" />
<path d="M124.06 757.86l33.69 0l0 12.29l-33.69 0Z" id="p50w258" />
<path d="M166.99 755.8l35.65 0l0 15.09l-35.65 0Z" id="p50w259" />
<path d="M206.25 755.8l12.58 0l0 15.09l-12.58 0Z" id="p50w260" />
<path d="M222.44 755.8l25.65 0l0 15.09l-25.65 0Z" id="p50w261" />
<path d="M251.71 755.8l23.2 0l0 15.09l-23.2 0Z" id="p50w262" />
<path d="M278.52 755.8l21.67 0l0 15.09l-21.67 0Z" id="p50w263" />
<path d="M303.8 755.8l12.41 0l0 15.09l-12.41 0Z" id="p50w264" />
<path d="M319.82 755.8l43.56 0l0 15.09l-43.56 0Z" id="p50w265" />
<path d="M366.99 755.8l12.58 0l0 15.09l-12.58 0Z" id="p50w266" />
<path d="M135.87 772.47l24.79 0l0 15.09l-24.79 0Z" id="p50w267" />
<path d="M164.28 772.47l29.05 0l0 15.09l-29.05 0Z" id="p50w268" />
<path d="M124.06 797.48l36.87 0l0 15.09l-36.87 0Z" id="p50w269" />
<path d="M164.54 797.48l11.95 0l0 15.09l-11.95 0Z" id="p50w270" />
<path d="M180.11 797.48l24.66 0l0 15.09l-24.66 0Z" id="p50w271" />
<path d="M208.38 797.48l53.76 0l0 15.09l-53.76 0Z" id="p50w272" />
<path d="M265.75 797.48l25.88 0l0 15.09l-25.88 0Z" id="p50w273" />
<path d="M295.25 797.48l27.16 0l0 15.09l-27.16 0Z" id="p50w274" />
<path d="M326.02 797.48l15.89 0l0 15.09l-15.89 0Z" id="p50w275" />
<path d="M345.51 797.48l36.83 0l0 15.09l-36.83 0Z" id="p50w276" />
<path d="M393.09 797.48l25.69 0l0 15.09l-25.69 0Z" id="p50w277" />
<path d="M422.4 797.48l26.5 0l0 15.09l-26.5 0Z" id="p50w278" />
<path d="M452.51 797.48l47.27 0l0 15.09l-47.27 0Z" id="p50w279" />
<path d="M503.39 797.48l7.84 0l0 15.09l-7.84 0Z" id="p50w280" />
<path d="M535.25 797.48l49.15 0l0 15.09l-49.15 0Z" id="p50w281" />
<path d="M124.06 814.14l13.91 0l0 15.09l-13.91 0Z" id="p50w282" />
<path d="M141.58 814.14l68.18 0l0 15.09l-68.18 0Z" id="p50w283" />
<path d="M220.32 814.14l36.87 0l0 15.09l-36.87 0Z" id="p50w284" />
<path d="M260.81 814.14l28.99 0l0 15.09l-28.99 0Z" id="p50w285" />
<path d="M293.41 814.14l28.89 0l0 15.09l-28.89 0Z" id="p50w286" />
<path d="M325.91 814.14l56.7 0l0 15.09l-56.7 0Z" id="p50w287" />
<path d="M386.23 814.14l47.09 0l0 15.09l-47.09 0Z" id="p50w288" />
<path d="M436.93 814.14l25.69 0l0 15.09l-25.69 0Z" id="p50w289" />
<path d="M466.23 814.14l15.89 0l0 15.09l-15.89 0Z" id="p50w290" />
<path d="M485.73 814.14l26.86 0l0 15.09l-26.86 0Z" id="p50w291" />
<path d="M516.2 814.14l19.01 0l0 15.09l-19.01 0Z" id="p50w292" />
<path d="M538.82 814.14l36.53 0l0 15.09l-36.53 0Z" id="p50w293" />
<path d="M124.06 830.81l27.23 0l0 15.09l-27.23 0Z" id="p50w294" />
<path d="M154.91 830.81l10.5 0l0 15.09l-10.5 0Z" id="p50w295" />
<path d="M169.02 830.81l50.05 0l0 15.09l-50.05 0Z" id="p50w296" />
<path d="M222.67 830.81l46.28 0l0 15.09l-46.28 0Z" id="p50w297" />
<path d="M272.57 830.81l25.69 0l0 15.09l-25.69 0Z" id="p50w298" />
<path d="M301.87 830.81l36.94 0l0 15.09l-36.94 0Z" id="p50w299" />
<path d="M342.42 830.81l47.5 0l0 15.09l-47.5 0Z" id="p50w300" />
<path d="M393.53 830.81l27.16 0l0 15.09l-27.16 0Z" id="p50w301" />
<path d="M424.3 830.81l19.01 0l0 15.09l-19.01 0Z" id="p50w302" />
<path d="M446.92 830.81l15.89 0l0 15.09l-15.89 0Z" id="p50w303" />
<path d="M466.41 830.81l36.83 0l0 15.09l-36.83 0Z" id="p50w304" />
<path d="M506.86 830.81l51.2 0l0 15.09l-51.2 0Z" id="p50w305" />
<path d="M561.67 830.81l15.89 0l0 15.09l-15.89 0Z" id="p50w306" />
<path d="M124.06 847.48l31.63 0l0 15.09l-31.63 0Z" id="p50w307" />
<path d="M159.3 847.48l11.26 0l0 15.09l-11.26 0Z" id="p50w308" />
<path d="M174.17 847.48l52.26 0l0 15.09l-52.26 0Z" id="p50w309" />
<path d="M230.04 847.48l33.38 0l0 15.09l-33.38 0Z" id="p50w310" />
<path d="M267.03 847.48l15.27 0l0 15.09l-15.27 0Z" id="p50w311" />
<path d="M285.91 847.48l14.21 0l0 15.09l-14.21 0Z" id="p50w312" />
<path d="M303.73 847.48l37.42 0l0 15.09l-37.42 0Z" id="p50w313" />
<path d="M344.77 847.48l38.5 0l0 15.09l-38.5 0Z" id="p50w314" />
<path d="M404.66 847.48l19.89 0l0 15.09l-19.89 0Z" id="p50w315" />
<path d="M428.16 847.48l11.26 0l0 15.09l-11.26 0Z" id="p50w316" />
<path d="M443.03 847.48l7.84 0l0 15.09l-7.84 0Z" id="p50w317" />
<path d="M454.49 847.48l16.64 0l0 15.09l-16.64 0Z" id="p50w318" />
<path d="M474.74 847.48l49.15 0l0 15.09l-49.15 0Z" id="p50w319" />
<path d="M527.5 847.48l14.21 0l0 15.09l-14.21 0Z" id="p50w320" />
<path d="M545.32 847.48l45.53 0l0 15.09l-45.53 0Z" id="p50w321" />
<path d="M124.06 864.15l13.91 0l0 15.09l-13.91 0Z" id="p50w322" />
<path d="M141.58 864.15l27.4 0l0 15.09l-27.4 0Z" id="p50w323" />
<path d="M172.59 864.15l17.08 0l0 15.09l-17.08 0Z" id="p50w324" />
<path d="M193.28 864.15l25.88 0l0 15.09l-25.88 0Z" id="p50w325" />
<path d="M222.78 864.15l25.69 0l0 15.09l-25.69 0Z" id="p50w326" />
<path d="M252.08 864.15l50.95 0l0 15.09l-50.95 0Z" id="p50w327" />
<path d="M306.64 864.15l31.58 0l0 15.09l-31.58 0Z" id="p50w328" />
<path d="M341.82 864.15l10.42 0l0 15.09l-10.42 0Z" id="p50w329" />
<path d="M355.86 864.15l30.55 0l0 15.09l-30.55 0Z" id="p50w330" />
<path d="M390.02 864.15l13.91 0l0 15.09l-13.91 0Z" id="p50w331" />
<path d="M407.54 864.15l50.91 0l0 15.09l-50.91 0Z" id="p50w332" />
<path d="M462.05 864.15l19.01 0l0 15.09l-19.01 0Z" id="p50w333" />
<path d="M484.67 864.15l16.64 0l0 15.09l-16.64 0Z" id="p50w334" />
<path d="M504.93 864.15l50.52 0l0 15.09l-50.52 0Z" id="p50w335" />
<path d="M559.06 864.15l11.26 0l0 15.09l-11.26 0Z" id="p50w336" />
<path d="M124.06 880.82l44.38 0l0 15.09l-44.38 0Z" id="p50w337" />
<path d="M172.05 880.82l46.19 0l0 15.09l-46.19 0Z" id="p50w338" />
<path d="M221.85 880.82l19.29 0l0 15.09l-19.29 0Z" id="p50w339" />
<path d="M244.75 880.82l50.44 0l0 15.09l-50.44 0Z" id="p50w340" />
<path d="M298.81 880.82l35.74 0l0 15.09l-35.74 0Z" id="p50w341" />
<path d="M338.16 880.82l19.01 0l0 15.09l-19.01 0Z" id="p50w342" />
<path d="M360.78 880.82l11.95 0l0 15.09l-11.95 0Z" id="p50w343" />
<path d="M376.35 880.82l44.12 0l0 15.09l-44.12 0Z" id="p50w344" />
<path d="M434.18 880.82l52.47 0l0 15.09l-52.47 0Z" id="p50w345" />
<path d="M63.57 100.28l24.61 0l0 12.3l-24.61 0Z" id="p50w346" />
<path d="M124.06 39.02l46.09 0l0 15.38l-46.09 0Z" id="p50w347" />
<path d="M208.74 39.02l46.59 0l0 15.38l-46.59 0Z" id="p50w348" />
<path d="M307.2 38.6l45.06 0l0 16.09l-45.06 0Z" id="p50w349" />
<path d="M406.45 39.02l32.54 0l0 15.38l-32.54 0Z" id="p50w350" />
<path d="M76.9 983l63.86 0l0 12.23l-63.86 0Z" id="p50w351" />
</svg>
