<?xml version="1.0" encoding="UTF-8"?>
<svg xmlns="http://www.w3.org/2000/svg" xmlns:xlink="http://www.w3.org/1999/xlink" version="1.1" baseProfile="full" width="768" height="1024" viewBox="0,0,768,1024" preserveAspectRatio="xMinYMin meet" >
<style type="text/css">
<![CDATA[
path {fill-opacity: 0.5;fill: #00aeef;visibility: hidden;}
]]>
</style>
<path d="M124.06 114.18l59.34 0l0 14.52l-59.34 0Z" id="p142w1" />
<path d="M186.61 114.18l15.5 0l0 14.52l-15.5 0Z" id="p142w2" />
<path d="M205.32 114.18l53.67 0l0 14.52l-53.67 0Z" id="p142w3" />
<path d="M262.19 114.18l48.48 0l0 14.52l-48.48 0Z" id="p142w4" />
<path d="M678.18 114.18l13.11 0l0 14.52l-13.11 0Z" id="p142w5" />
<path d="M694.5 114.18l14.29 0l0 14.52l-14.29 0Z" id="p142w6" />
<path d="M159.25 272.57l10.43 0l0 14.52l-10.43 0Z" id="p142w7" />
<path d="M172.89 272.57l28.87 0l0 14.52l-28.87 0Z" id="p142w8" />
<path d="M223.92 272.57l35.55 0l0 14.52l-35.55 0Z" id="p142w9" />
<path d="M262.68 272.57l11.22 0l0 14.52l-11.22 0Z" id="p142w10" />
<path d="M277.1 272.57l40.89 0l0 14.52l-40.89 0Z" id="p142w11" />
<path d="M340.16 272.57l51.81 0l0 14.52l-51.81 0Z" id="p142w12" />
<path d="M159.25 297.58l10.43 0l0 14.52l-10.43 0Z" id="p142w13" />
<path d="M172.89 297.58l28.87 0l0 14.52l-28.87 0Z" id="p142w14" />
<path d="M223.92 297.58l95.54 0l0 14.52l-95.54 0Z" id="p142w15" />
<path d="M322.67 297.58l11.22 0l0 14.52l-11.22 0Z" id="p142w16" />
<path d="M337.1 297.58l40.89 0l0 14.52l-40.89 0Z" id="p142w17" />
<path d="M400.15 297.58l58.99 0l0 14.52l-58.99 0Z" id="p142w18" />
<path d="M462.35 297.58l11.5 0l0 14.52l-11.5 0Z" id="p142w19" />
<path d="M477.05 297.58l14.7 0l0 14.52l-14.7 0Z" id="p142w20" />
<path d="M159.34 314.25l10.43 0l0 14.52l-10.43 0Z" id="p142w21" />
<path d="M172.98 314.25l28.87 0l0 14.52l-28.87 0Z" id="p142w22" />
<path d="M223.66 314.25l41.01 0l0 14.52l-41.01 0Z" id="p142w23" />
<path d="M267.87 314.25l11.22 0l0 14.52l-11.22 0Z" id="p142w24" />
<path d="M282.3 314.25l40.89 0l0 14.52l-40.89 0Z" id="p142w25" />
<path d="M345.36 314.25l49.46 0l0 14.52l-49.46 0Z" id="p142w26" />
<path d="M159.25 339.26l10.43 0l0 14.52l-10.43 0Z" id="p142w27" />
<path d="M172.89 339.26l28.87 0l0 14.52l-28.87 0Z" id="p142w28" />
<path d="M223.92 339.26l46.99 0l0 14.52l-46.99 0Z" id="p142w29" />
<path d="M274.12 339.26l11.22 0l0 14.52l-11.22 0Z" id="p142w30" />
<path d="M288.55 339.26l40.89 0l0 14.52l-40.89 0Z" id="p142w31" />
<path d="M351.61 339.26l39.57 0l0 14.52l-39.57 0Z" id="p142w32" />
<path d="M394.39 339.26l11.5 0l0 14.52l-11.5 0Z" id="p142w33" />
<path d="M409.09 339.26l14.7 0l0 14.52l-14.7 0Z" id="p142w34" />
<path d="M159.34 355.94l10.43 0l0 14.52l-10.43 0Z" id="p142w35" />
<path d="M172.98 355.94l28.87 0l0 14.52l-28.87 0Z" id="p142w36" />
<path d="M224.01 355.94l35.02 0l0 14.52l-35.02 0Z" id="p142w37" />
<path d="M262.24 355.94l11.22 0l0 14.52l-11.22 0Z" id="p142w38" />
<path d="M276.67 355.94l40.89 0l0 14.52l-40.89 0Z" id="p142w39" />
<path d="M339.72 355.94l98.22 0l0 14.52l-98.22 0Z" id="p142w40" />
<path d="M159.25 380.94l10.43 0l0 14.52l-10.43 0Z" id="p142w41" />
<path d="M172.89 380.94l28.87 0l0 14.52l-28.87 0Z" id="p142w42" />
<path d="M223.92 380.94l49.13 0l0 14.52l-49.13 0Z" id="p142w43" />
<path d="M276.26 380.94l11.22 0l0 14.52l-11.22 0Z" id="p142w44" />
<path d="M290.69 380.94l40.89 0l0 14.52l-40.89 0Z" id="p142w45" />
<path d="M353.74 380.94l30.74 0l0 14.52l-30.74 0Z" id="p142w46" />
<path d="M387.69 380.94l11.5 0l0 14.52l-11.5 0Z" id="p142w47" />
<path d="M402.4 380.94l14.7 0l0 14.52l-14.7 0Z" id="p142w48" />
<path d="M159.34 397.62l10.43 0l0 14.52l-10.43 0Z" id="p142w49" />
<path d="M172.98 397.62l28.87 0l0 14.52l-28.87 0Z" id="p142w50" />
<path d="M224.01 397.62l59.53 0l0 14.52l-59.53 0Z" id="p142w51" />
<path d="M286.75 397.62l11.22 0l0 14.52l-11.22 0Z" id="p142w52" />
<path d="M301.18 397.62l40.89 0l0 14.52l-40.89 0Z" id="p142w53" />
<path d="M364.23 397.62l39.57 0l0 14.52l-39.57 0Z" id="p142w54" />
<path d="M124.06 430.96l14.7 0l0 14.52l-14.7 0Z" id="p142w55" />
<path d="M141.97 430.96l59.08 0l0 14.52l-59.08 0Z" id="p142w56" />
<path d="M204.26 430.96l9.89 0l0 14.52l-9.89 0Z" id="p142w57" />
<path d="M217.35 430.96l39.55 0l0 14.52l-39.55 0Z" id="p142w58" />
<path d="M260.11 430.96l13.9 0l0 14.52l-13.9 0Z" id="p142w59" />
<path d="M277.21 430.96l40.35 0l0 14.52l-40.35 0Z" id="p142w60" />
<path d="M320.77 430.96l26.46 0l0 14.52l-26.46 0Z" id="p142w61" />
<path d="M350.44 430.96l54.55 0l0 14.52l-54.55 0Z" id="p142w62" />
<path d="M408.2 430.96l13.9 0l0 14.52l-13.9 0Z" id="p142w63" />
<path d="M425.31 430.96l56.68 0l0 14.52l-56.68 0Z" id="p142w64" />
<path d="M124.06 447.63l59.34 0l0 14.52l-59.34 0Z" id="p142w65" />
<path d="M186.61 447.63l15.5 0l0 14.52l-15.5 0Z" id="p142w66" />
<path d="M205.32 447.63l50.51 0l0 14.52l-50.51 0Z" id="p142w67" />
<path d="M259.04 447.63l13.9 0l0 14.52l-13.9 0Z" id="p142w68" />
<path d="M276.14 447.63l40.35 0l0 14.52l-40.35 0Z" id="p142w69" />
<path d="M319.7 447.63l18.44 0l0 14.52l-18.44 0Z" id="p142w70" />
<path d="M350.57 447.63l13.91 0l0 14.52l-13.91 0Z" id="p142w71" />
<path d="M367.69 447.56l13.9 0l0 14.6l-13.9 0Z" id="p142w72" />
<path d="M660.85 447.63l13.11 0l0 14.52l-13.11 0Z" id="p142w73" />
<path d="M677.16 447.63l31.63 0l0 14.52l-31.63 0Z" id="p142w74" />
<path d="M153.02 472.64l12.41 0l0 14.52l-12.41 0Z" id="p142w75" />
<path d="M168.63 472.64l12.29 0l0 14.52l-12.29 0Z" id="p142w76" />
<path d="M184.13 472.64l13.63 0l0 14.52l-13.63 0Z" id="p142w77" />
<path d="M200.97 472.64l39.03 0l0 14.52l-39.03 0Z" id="p142w78" />
<path d="M153.37 489.31l21.4 0l0 14.52l-21.4 0Z" id="p142w79" />
<path d="M177.98 489.31l5.35 0l0 14.52l-5.35 0Z" id="p142w80" />
<path d="M203.94 489.32l24.06 0l0 14.52l-24.06 0Z" id="p142w81" />
<path d="M153.02 505.99l12.41 0l0 14.52l-12.41 0Z" id="p142w82" />
<path d="M168.64 505.99l12.29 0l0 14.52l-12.29 0Z" id="p142w83" />
<path d="M184.14 505.99l28.33 0l0 14.52l-28.33 0Z" id="p142w84" />
<path d="M215.67 505.99l13.9 0l0 14.52l-13.9 0Z" id="p142w85" />
<path d="M232.78 505.99l19.79 0l0 14.52l-19.79 0Z" id="p142w86" />
<path d="M255.77 505.99l50.62 0l0 14.52l-50.62 0Z" id="p142w87" />
<path d="M319.48 505.99l18.72 0l0 14.52l-18.72 0Z" id="p142w88" />
<path d="M341.41 505.99l24.06 0l0 14.52l-24.06 0Z" id="p142w89" />
<path d="M153.38 522.66l21.4 0l0 14.52l-21.4 0Z" id="p142w90" />
<path d="M177.98 522.66l5.35 0l0 14.52l-5.35 0Z" id="p142w91" />
<path d="M203.94 522.66l9.89 0l0 14.52l-9.89 0Z" id="p142w92" />
<path d="M217.03 522.66l28.33 0l0 14.52l-28.33 0Z" id="p142w93" />
<path d="M258.45 522.66l25.13 0l0 14.52l-25.13 0Z" id="p142w94" />
<path d="M286.79 522.66l25.95 0l0 14.52l-25.95 0Z" id="p142w95" />
<path d="M153.02 539.33l12.41 0l0 14.52l-12.41 0Z" id="p142w96" />
<path d="M168.64 539.33l18.27 0l0 14.52l-18.27 0Z" id="p142w97" />
<path d="M190.11 539.33l37.96 0l0 14.52l-37.96 0Z" id="p142w98" />
<path d="M231.28 539.33l25.94 0l0 14.52l-25.94 0Z" id="p142w99" />
<path d="M257.22 539.33l15.76 0l0 14.52l-15.76 0Z" id="p142w100" />
<path d="M276.19 539.33l14.18 0l0 14.52l-14.18 0Z" id="p142w101" />
<path d="M293.57 539.33l28.87 0l0 14.52l-28.87 0Z" id="p142w102" />
<path d="M153.38 556l25.41 0l0 14.52l-25.41 0Z" id="p142w103" />
<path d="M182 556l9.62 0l0 14.52l-9.62 0Z" id="p142w104" />
<path d="M194.83 556l13.9 0l0 14.52l-13.9 0Z" id="p142w105" />
<path d="M211.93 556l21.48 0l0 14.52l-21.48 0Z" id="p142w106" />
<path d="M236.62 556l19.51 0l0 14.52l-19.51 0Z" id="p142w107" />
<path d="M278.29 556.01l25.94 0l0 14.52l-25.94 0Z" id="p142w108" />
<path d="M304.22 556.01l17.12 0l0 14.52l-17.12 0Z" id="p142w109" />
<path d="M451.95 480.98l12.28 0l0 14.52l-12.28 0Z" id="p142w110" />
<path d="M467.43 480.98l12.16 0l0 14.52l-12.16 0Z" id="p142w111" />
<path d="M482.8 480.98l33.08 0l0 14.52l-33.08 0Z" id="p142w112" />
<path d="M528.9 480.98l72.66 0l0 14.52l-72.66 0Z" id="p142w113" />
<path d="M604.77 480.98l13.77 0l0 14.52l-13.77 0Z" id="p142w114" />
<path d="M621.74 480.98l11.09 0l0 14.52l-11.09 0Z" id="p142w115" />
<path d="M636.04 480.98l28.59 0l0 14.52l-28.59 0Z" id="p142w116" />
<path d="M452.31 497.65l25.41 0l0 14.52l-25.41 0Z" id="p142w117" />
<path d="M480.92 497.65l9.62 0l0 14.52l-9.62 0Z" id="p142w118" />
<path d="M493.75 497.65l9.62 0l0 14.52l-9.62 0Z" id="p142w119" />
<path d="M523.98 497.65l9.89 0l0 14.52l-9.89 0Z" id="p142w120" />
<path d="M537.08 497.65l19.51 0l0 14.52l-19.51 0Z" id="p142w121" />
<path d="M559.79 497.65l36.09 0l0 14.52l-36.09 0Z" id="p142w122" />
<path d="M451.95 514.32l12.41 0l0 14.52l-12.41 0Z" id="p142w123" />
<path d="M467.57 514.32l22.72 0l0 14.52l-22.72 0Z" id="p142w124" />
<path d="M493.49 514.32l14.18 0l0 14.52l-14.18 0Z" id="p142w125" />
<path d="M510.88 514.32l39.03 0l0 14.52l-39.03 0Z" id="p142w126" />
<path d="M577.25 514.32l37.68 0l0 14.52l-37.68 0Z" id="p142w127" />
<path d="M452.31 531l21.4 0l0 14.52l-21.4 0Z" id="p142w128" />
<path d="M476.91 531l5.35 0l0 14.52l-5.35 0Z" id="p142w129" />
<path d="M502.86 531l22.72 0l0 14.52l-22.72 0Z" id="p142w130" />
<path d="M552.93 531l40.36 0l0 14.52l-40.36 0Z" id="p142w131" />
<path d="M452.31 547.67l15.77 0l0 14.52l-15.77 0Z" id="p142w132" />
<path d="M471.29 547.67l12.66 0l0 14.52l-12.66 0Z" id="p142w133" />
<path d="M487.16 547.67l25.67 0l0 14.52l-25.67 0Z" id="p142w134" />
<path d="M516.04 547.67l23.8 0l0 14.52l-23.8 0Z" id="p142w135" />
<path d="M543.04 547.67l11.22 0l0 14.52l-11.22 0Z" id="p142w136" />
<path d="M557.47 547.67l38.24 0l0 14.52l-38.24 0Z" id="p142w137" />
<path d="M598.92 547.67l12.57 0l0 14.52l-12.57 0Z" id="p142w138" />
<path d="M614.69 547.67l20.31 0l0 14.52l-20.31 0Z" id="p142w139" />
<path d="M452.31 564.34l25.41 0l0 14.52l-25.41 0Z" id="p142w140" />
<path d="M480.93 564.34l14.18 0l0 14.52l-14.18 0Z" id="p142w141" />
<path d="M498.31 564.34l9.62 0l0 14.52l-9.62 0Z" id="p142w142" />
<path d="M528.54 564.35l12.66 0l0 14.52l-12.66 0Z" id="p142w143" />
<path d="M544.4 564.35l19.51 0l0 14.52l-19.51 0Z" id="p142w144" />
<path d="M567.12 564.35l12.57 0l0 14.52l-12.57 0Z" id="p142w145" />
<path d="M582.89 564.35l21.67 0l0 14.52l-21.67 0Z" id="p142w146" />
<path d="M124.06 597.69l31.56 0l0 14.52l-31.56 0Z" id="p142w147" />
<path d="M158.82 597.69l14.18 0l0 14.52l-14.18 0Z" id="p142w148" />
<path d="M176.21 597.69l30.48 0l0 14.52l-30.48 0Z" id="p142w149" />
<path d="M209.89 597.69l48.39 0l0 14.52l-48.39 0Z" id="p142w150" />
<path d="M261.49 597.69l31.8 0l0 14.52l-31.8 0Z" id="p142w151" />
<path d="M296.49 597.69l20.85 0l0 14.52l-20.85 0Z" id="p142w152" />
<path d="M320.56 597.69l41.97 0l0 14.52l-41.97 0Z" id="p142w153" />
<path d="M375.62 597.69l50.79 0l0 14.52l-50.79 0Z" id="p142w154" />
<path d="M429.62 597.69l11.22 0l0 14.52l-11.22 0Z" id="p142w155" />
<path d="M444.05 597.69l18.7 0l0 14.52l-18.7 0Z" id="p142w156" />
<path d="M465.96 597.69l9.89 0l0 14.52l-9.89 0Z" id="p142w157" />
<path d="M479.05 597.69l48.39 0l0 14.52l-48.39 0Z" id="p142w158" />
<path d="M530.65 597.69l18.99 0l0 14.52l-18.99 0Z" id="p142w159" />
<path d="M124.06 614.36l59.34 0l0 14.52l-59.34 0Z" id="p142w160" />
<path d="M186.61 614.36l15.5 0l0 14.52l-15.5 0Z" id="p142w161" />
<path d="M205.31 614.36l43.29 0l0 14.52l-43.29 0Z" id="p142w162" />
<path d="M251.81 614.36l25.4 0l0 14.52l-25.4 0Z" id="p142w163" />
<path d="M280.42 614.29l31.28 0l0 14.6l-31.28 0Z" id="p142w164" />
<path d="M314.91 614.29l13.87 0l0 14.6l-13.87 0Z" id="p142w165" />
<path d="M334.67 614.29l25.4 0l0 14.6l-25.4 0Z" id="p142w166" />
<path d="M363.27 614.36l11.22 0l0 14.52l-11.22 0Z" id="p142w167" />
<path d="M377.7 614.29l25.86 0l0 14.6l-25.86 0Z" id="p142w168" />
<path d="M662.09 614.36l13.11 0l0 14.52l-13.11 0Z" id="p142w169" />
<path d="M678.4 614.36l30.38 0l0 14.52l-30.38 0Z" id="p142w170" />
<path d="M143.75 639.38l28.87 0l0 14.61l-28.87 0Z" id="p142w171" />
<path d="M175.82 639.38l43.56 0l0 14.61l-43.56 0Z" id="p142w172" />
<path d="M222.23 639.38l31.28 0l0 14.61l-31.28 0Z" id="p142w173" />
<path d="M256.72 639.38l17.09 0l0 14.61l-17.09 0Z" id="p142w174" />
<path d="M277.02 639.38l9.89 0l0 14.61l-9.89 0Z" id="p142w175" />
<path d="M290.12 639.38l48.03 0l0 14.61l-48.03 0Z" id="p142w176" />
<path d="M341.36 639.38l16.31 0l0 14.61l-16.31 0Z" id="p142w177" />
<path d="M360.88 639.38l25.66 0l0 14.61l-25.66 0Z" id="p142w178" />
<path d="M389.75 639.38l13.36 0l0 14.61l-13.36 0Z" id="p142w179" />
<path d="M406.31 639.38l21.65 0l0 14.61l-21.65 0Z" id="p142w180" />
<path d="M431.16 639.38l44.76 0l0 14.61l-44.76 0Z" id="p142w181" />
<path d="M143.75 664.38l28.88 0l0 14.52l-28.88 0Z" id="p142w182" />
<path d="M175.84 664.38l44.11 0l0 14.52l-44.11 0Z" id="p142w183" />
<path d="M222.8 664.38l31.55 0l0 14.52l-31.55 0Z" id="p142w184" />
<path d="M257.55 664.38l17.11 0l0 14.52l-17.11 0Z" id="p142w185" />
<path d="M277.87 664.38l9.89 0l0 14.52l-9.89 0Z" id="p142w186" />
<path d="M290.96 664.38l48.39 0l0 14.52l-48.39 0Z" id="p142w187" />
<path d="M342.56 664.38l18.99 0l0 14.52l-18.99 0Z" id="p142w188" />
<path d="M364.76 664.38l6.96 0l0 14.52l-6.96 0Z" id="p142w189" />
<path d="M374.92 664.38l24.33 0l0 14.52l-24.33 0Z" id="p142w190" />
<path d="M402.46 664.38l13.37 0l0 14.52l-13.37 0Z" id="p142w191" />
<path d="M419.03 664.38l21.65 0l0 14.52l-21.65 0Z" id="p142w192" />
<path d="M443.89 664.38l44.15 0l0 14.52l-44.15 0Z" id="p142w193" />
<path d="M143.75 689.4l6.96 0l0 14.52l-6.96 0Z" id="p142w194" />
<path d="M153.91 689.4l12.66 0l0 14.52l-12.66 0Z" id="p142w195" />
<path d="M169.78 689.4l18.18 0l0 14.52l-18.18 0Z" id="p142w196" />
<path d="M191.16 689.4l14.18 0l0 14.52l-14.18 0Z" id="p142w197" />
<path d="M208.55 689.4l33.68 0l0 14.52l-33.68 0Z" id="p142w198" />
<path d="M245.44 689.4l22.73 0l0 14.52l-22.73 0Z" id="p142w199" />
<path d="M271.37 689.4l6.41 0l0 14.52l-6.41 0Z" id="p142w200" />
<path d="M281 689.4l24.33 0l0 14.52l-24.33 0Z" id="p142w201" />
<path d="M308.53 689.4l20.85 0l0 14.52l-20.85 0Z" id="p142w202" />
<path d="M332.59 689.4l40.89 0l0 14.52l-40.89 0Z" id="p142w203" />
<path d="M162.72 706.06l20.85 0l0 14.52l-20.85 0Z" id="p142w204" />
<path d="M186.78 706.06l40.89 0l0 14.52l-40.89 0Z" id="p142w205" />
<path d="M230.88 706.06l6.41 0l0 14.52l-6.41 0Z" id="p142w206" />
<path d="M240.5 706.06l12.66 0l0 14.52l-12.66 0Z" id="p142w207" />
<path d="M256.36 706.06l18.18 0l0 14.52l-18.18 0Z" id="p142w208" />
<path d="M277.75 706.06l14.18 0l0 14.52l-14.18 0Z" id="p142w209" />
<path d="M295.13 706.06l33.68 0l0 14.52l-33.68 0Z" id="p142w210" />
<path d="M143.76 731.08l6.96 0l0 14.52l-6.96 0Z" id="p142w211" />
<path d="M153.92 731.08l29.66 0l0 14.52l-29.66 0Z" id="p142w212" />
<path d="M186.79 731.08l26.73 0l0 14.52l-26.73 0Z" id="p142w213" />
<path d="M216.73 731.08l14.18 0l0 14.52l-14.18 0Z" id="p142w214" />
<path d="M234.11 731.08l50.18 0l0 14.52l-50.18 0Z" id="p142w215" />
<path d="M287.5 731.08l6.96 0l0 14.52l-6.96 0Z" id="p142w216" />
<path d="M297.66 731.08l24.33 0l0 14.52l-24.33 0Z" id="p142w217" />
<path d="M325.2 731.08l42.22 0l0 14.52l-42.22 0Z" id="p142w218" />
<path d="M370.63 731.08l14.18 0l0 14.52l-14.18 0Z" id="p142w219" />
<path d="M388.01 731.08l33.32 0l0 14.52l-33.32 0Z" id="p142w220" />
<path d="M424.54 731.08l13.9 0l0 14.52l-13.9 0Z" id="p142w221" />
<path d="M441.29 731.08l34.23 0l0 14.52l-34.23 0Z" id="p142w222" />
<path d="M143.76 747.75l6.96 0l0 14.52l-6.96 0Z" id="p142w223" />
<path d="M153.92 747.75l29.66 0l0 14.52l-29.66 0Z" id="p142w224" />
<path d="M186.79 747.75l26.73 0l0 14.52l-26.73 0Z" id="p142w225" />
<path d="M216.73 747.75l14.18 0l0 14.52l-14.18 0Z" id="p142w226" />
<path d="M234.11 747.75l47.5 0l0 14.52l-47.5 0Z" id="p142w227" />
<path d="M303.77 747.75l42.22 0l0 14.52l-42.22 0Z" id="p142w228" />
<path d="M349.21 747.75l14.18 0l0 14.52l-14.18 0Z" id="p142w229" />
<path d="M366.59 747.75l33.32 0l0 14.52l-33.32 0Z" id="p142w230" />
<path d="M403.11 747.75l13.9 0l0 14.52l-13.9 0Z" id="p142w231" />
<path d="M419.86 747.75l34.23 0l0 14.52l-34.23 0Z" id="p142w232" />
<path d="M143.76 772.76l6.96 0l0 14.52l-6.96 0Z" id="p142w233" />
<path d="M153.92 772.76l48.11 0l0 14.52l-48.11 0Z" id="p142w234" />
<path d="M205.24 772.76l17.11 0l0 14.52l-17.11 0Z" id="p142w235" />
<path d="M225.55 772.76l9.89 0l0 14.52l-9.89 0Z" id="p142w236" />
<path d="M238.65 772.76l51.07 0l0 14.52l-51.07 0Z" id="p142w237" />
<path d="M292.92 772.76l34.58 0l0 14.52l-34.58 0Z" id="p142w238" />
<path d="M330.71 772.76l6.41 0l0 14.52l-6.41 0Z" id="p142w239" />
<path d="M340.34 772.76l37.68 0l0 14.52l-37.68 0Z" id="p142w240" />
<path d="M381.23 772.76l28.06 0l0 14.52l-28.06 0Z" id="p142w241" />
<path d="M412.5 772.76l14.18 0l0 14.52l-14.18 0Z" id="p142w242" />
<path d="M429.88 772.76l26.46 0l0 14.52l-26.46 0Z" id="p142w243" />
<path d="M162.72 789.43l52.65 0l0 14.52l-52.65 0Z" id="p142w244" />
<path d="M218.57 789.43l17.11 0l0 14.52l-17.11 0Z" id="p142w245" />
<path d="M238.89 789.43l9.89 0l0 14.52l-9.89 0Z" id="p142w246" />
<path d="M251.98 789.43l51.07 0l0 14.52l-51.07 0Z" id="p142w247" />
<path d="M306.26 789.43l6.41 0l0 14.52l-6.41 0Z" id="p142w248" />
<path d="M315.88 789.43l37.68 0l0 14.52l-37.68 0Z" id="p142w249" />
<path d="M356.77 789.43l28.06 0l0 14.52l-28.06 0Z" id="p142w250" />
<path d="M388.04 789.43l14.18 0l0 14.52l-14.18 0Z" id="p142w251" />
<path d="M405.42 789.43l26.46 0l0 14.52l-26.46 0Z" id="p142w252" />
<path d="M143.76 814.44l6.96 0l0 14.52l-6.96 0Z" id="p142w253" />
<path d="M153.92 814.44l12.66 0l0 14.52l-12.66 0Z" id="p142w254" />
<path d="M169.79 814.44l22.99 0l0 14.52l-22.99 0Z" id="p142w255" />
<path d="M195.99 814.44l13.9 0l0 14.52l-13.9 0Z" id="p142w256" />
<path d="M213.1 814.44l26.99 0l0 14.52l-26.99 0Z" id="p142w257" />
<path d="M243.3 814.44l20.85 0l0 14.52l-20.85 0Z" id="p142w258" />
<path d="M267.36 814.44l38.25 0l0 14.52l-38.25 0Z" id="p142w259" />
<path d="M308.82 814.44l6.96 0l0 14.52l-6.96 0Z" id="p142w260" />
<path d="M318.98 814.44l13.9 0l0 14.52l-13.9 0Z" id="p142w261" />
<path d="M336.09 814.44l41.23 0l0 14.52l-41.23 0Z" id="p142w262" />
<path d="M380.53 814.44l19.51 0l0 14.52l-19.51 0Z" id="p142w263" />
<path d="M403.25 814.44l38.32 0l0 14.52l-38.32 0Z" id="p142w264" />
<path d="M444.77 814.44l9.89 0l0 14.52l-9.89 0Z" id="p142w265" />
<path d="M457.86 814.44l22.45 0l0 14.52l-22.45 0Z" id="p142w266" />
<path d="M483.52 814.44l25.4 0l0 14.52l-25.4 0Z" id="p142w267" />
<path d="M512.13 814.44l31.82 0l0 14.52l-31.82 0Z" id="p142w268" />
<path d="M547.16 814.44l11.22 0l0 14.52l-11.22 0Z" id="p142w269" />
<path d="M561.58 814.44l20.33 0l0 14.52l-20.33 0Z" id="p142w270" />
<path d="M143.76 831.11l6.96 0l0 14.52l-6.96 0Z" id="p142w271" />
<path d="M153.92 831.11l12.66 0l0 14.52l-12.66 0Z" id="p142w272" />
<path d="M169.79 831.11l22.99 0l0 14.52l-22.99 0Z" id="p142w273" />
<path d="M195.99 831.11l13.9 0l0 14.52l-13.9 0Z" id="p142w274" />
<path d="M213.1 831.11l26.99 0l0 14.52l-26.99 0Z" id="p142w275" />
<path d="M243.3 831.11l20.85 0l0 14.52l-20.85 0Z" id="p142w276" />
<path d="M267.36 831.11l35.57 0l0 14.52l-35.57 0Z" id="p142w277" />
<path d="M325.09 831.11l45.78 0l0 14.52l-45.78 0Z" id="p142w278" />
<path d="M374.07 831.11l38.32 0l0 14.52l-38.32 0Z" id="p142w279" />
<path d="M415.6 831.11l9.89 0l0 14.52l-9.89 0Z" id="p142w280" />
<path d="M428.69 831.11l22.45 0l0 14.52l-22.45 0Z" id="p142w281" />
<path d="M454.35 831.11l25.4 0l0 14.52l-25.4 0Z" id="p142w282" />
<path d="M482.95 831.11l31.82 0l0 14.52l-31.82 0Z" id="p142w283" />
<path d="M517.99 831.11l11.22 0l0 14.52l-11.22 0Z" id="p142w284" />
<path d="M532.41 831.11l20.33 0l0 14.52l-20.33 0Z" id="p142w285" />
<path d="M143.76 856.12l6.96 0l0 14.52l-6.96 0Z" id="p142w286" />
<path d="M153.92 856.12l41.96 0l0 14.52l-41.96 0Z" id="p142w287" />
<path d="M199.09 856.12l62.22 0l0 14.52l-62.22 0Z" id="p142w288" />
<path d="M264.52 856.12l6.96 0l0 14.52l-6.96 0Z" id="p142w289" />
<path d="M274.68 856.12l24.33 0l0 14.52l-24.33 0Z" id="p142w290" />
<path d="M302.22 856.12l20.85 0l0 14.52l-20.85 0Z" id="p142w291" />
<path d="M326.28 856.12l24.06 0l0 14.52l-24.06 0Z" id="p142w292" />
<path d="M353.55 856.12l17.9 0l0 14.52l-17.9 0Z" id="p142w293" />
<path d="M374.65 856.12l30.74 0l0 14.52l-30.74 0Z" id="p142w294" />
<path d="M408.6 856.12l48.9 0l0 14.52l-48.9 0Z" id="p142w295" />
<path d="M143.76 872.79l6.96 0l0 14.52l-6.96 0Z" id="p142w296" />
<path d="M153.92 872.79l41.96 0l0 14.52l-41.96 0Z" id="p142w297" />
<path d="M199.09 872.79l59.54 0l0 14.52l-59.54 0Z" id="p142w298" />
<path d="M280.79 872.79l20.85 0l0 14.52l-20.85 0Z" id="p142w299" />
<path d="M304.86 872.79l24.06 0l0 14.52l-24.06 0Z" id="p142w300" />
<path d="M332.13 872.79l17.9 0l0 14.52l-17.9 0Z" id="p142w301" />
<path d="M353.23 872.79l30.74 0l0 14.52l-30.74 0Z" id="p142w302" />
<path d="M387.18 872.79l48.9 0l0 14.52l-48.9 0Z" id="p142w303" />
<path d="M143.76 897.81l26.45 0l0 14.52l-26.45 0Z" id="p142w304" />
<path d="M183.3 897.81l9.89 0l0 14.52l-9.89 0Z" id="p142w305" />
<path d="M196.4 897.81l7.48 0l0 14.52l-7.48 0Z" id="p142w306" />
<path d="M216.99 897.81l6.41 0l0 14.52l-6.41 0Z" id="p142w307" />
<path d="M226.61 897.81l21.92 0l0 14.52l-21.92 0Z" id="p142w308" />
<path d="M251.74 897.81l32.09 0l0 14.52l-32.09 0Z" id="p142w309" />
<path d="M287.04 897.81l6.96 0l0 14.52l-6.96 0Z" id="p142w310" />
<path d="M297.2 897.81l13.9 0l0 14.52l-13.9 0Z" id="p142w311" />
<path d="M314.31 897.81l32.88 0l0 14.52l-32.88 0Z" id="p142w312" />
<path d="M350.39 897.81l19.51 0l0 14.52l-19.51 0Z" id="p142w313" />
<path d="M373.11 897.81l31.03 0l0 14.52l-31.03 0Z" id="p142w314" />
<path d="M407.35 897.81l25.94 0l0 14.52l-25.94 0Z" id="p142w315" />
<path d="M436.49 897.81l13.9 0l0 14.52l-13.9 0Z" id="p142w316" />
<path d="M453.6 897.81l35.31 0l0 14.52l-35.31 0Z" id="p142w317" />
<path d="M143.76 914.48l26.45 0l0 14.52l-26.45 0Z" id="p142w318" />
<path d="M183.3 914.48l9.89 0l0 14.52l-9.89 0Z" id="p142w319" />
<path d="M196.4 914.48l7.48 0l0 14.52l-7.48 0Z" id="p142w320" />
<path d="M216.99 914.48l6.41 0l0 14.52l-6.41 0Z" id="p142w321" />
<path d="M226.61 914.48l21.92 0l0 14.52l-21.92 0Z" id="p142w322" />
<path d="M251.74 914.48l30.73 0l0 14.52l-30.73 0Z" id="p142w323" />
<path d="M304.63 914.47l44.1 0l0 14.52l-44.1 0Z" id="p142w324" />
<path d="M351.94 914.47l31.03 0l0 14.52l-31.03 0Z" id="p142w325" />
<path d="M386.18 914.47l25.94 0l0 14.52l-25.94 0Z" id="p142w326" />
<path d="M415.32 914.47l13.9 0l0 14.52l-13.9 0Z" id="p142w327" />
<path d="M432.43 914.47l35.31 0l0 14.52l-35.31 0Z" id="p142w328" />
<path d="M124.06 38.6l16.59 0l0 16.09l-16.59 0Z" id="p142w329" />
<path d="M144.03 38.6l28.66 0l0 16.09l-28.66 0Z" id="p142w330" />
<path d="M186.89 38.6l99.65 0l0 16.09l-99.65 0Z" id="p142w331" />
<path d="M76.9 983l65.88 0l0 12.23l-65.88 0Z" id="p142w332" />
<path d="M471.94 130.56l28.34 0l0 12.56l-28.34 0Z" id="p142w333" />
<path d="M502.61 130.56l27.98 0l0 12.56l-27.98 0Z" id="p142w334" />
<path d="M533.29 130.56l31.49 0l0 12.56l-31.49 0Z" id="p142w335" />
<path d="M140.57 164.13l34.89 0l0 14.6l-34.89 0Z" id="p142w336" />
<path d="M178.4 164.13l17.95 0l0 14.6l-17.95 0Z" id="p142w337" />
<path d="M204.49 164.13l41.08 0l0 14.6l-41.08 0Z" id="p142w338" />
<path d="M376.87 164.13l34.89 0l0 14.6l-34.89 0Z" id="p142w339" />
<path d="M414.7 164.13l41.83 0l0 14.6l-41.83 0Z" id="p142w340" />
<path d="M140.57 180.8l77.4 0l0 14.6l-77.4 0Z" id="p142w341" />
<path d="M261.38 180.8l13.78 0l0 14.6l-13.78 0Z" id="p142w342" />
<path d="M376.87 180.8l77.4 0l0 14.6l-77.4 0Z" id="p142w343" />
<path d="M497.69 180.8l14.28 0l0 14.6l-14.28 0Z" id="p142w344" />
<path d="M140.57 197.47l77.4 0l0 14.6l-77.4 0Z" id="p142w345" />
<path d="M254.61 197.47l13.9 0l0 14.6l-13.9 0Z" id="p142w346" />
<path d="M376.87 197.47l77.4 0l0 14.6l-77.4 0Z" id="p142w347" />
<path d="M490.92 197.47l13.87 0l0 14.6l-13.87 0Z" id="p142w348" />
<path d="M140.57 214.21l77.24 0l0 14.52l-77.24 0Z" id="p142w349" />
<path d="M260.36 214.21l17.65 0l0 14.52l-17.65 0Z" id="p142w350" />
<path d="M280.78 214.21l29.69 0l0 14.52l-29.69 0Z" id="p142w351" />
<path d="M328.76 214.21l13.9 0l0 14.52l-13.9 0Z" id="p142w352" />
<path d="M376.87 214.21l77.24 0l0 14.52l-77.24 0Z" id="p142w353" />
<path d="M496.67 214.21l17.65 0l0 14.52l-17.65 0Z" id="p142w354" />
<path d="M517.09 214.21l29.69 0l0 14.52l-29.69 0Z" id="p142w355" />
<path d="M565.07 214.21l9.79 0l0 14.52l-9.79 0Z" id="p142w356" />
<path d="M140.57 230.88l77.24 0l0 14.52l-77.24 0Z" id="p142w357" />
<path d="M221.02 230.88l39.84 0l0 14.52l-39.84 0Z" id="p142w358" />
<path d="M279.15 230.88l19.52 0l0 14.52l-19.52 0Z" id="p142w359" />
<path d="M376.87 230.88l77.24 0l0 14.52l-77.24 0Z" id="p142w360" />
<path d="M457.32 230.88l39.84 0l0 14.52l-39.84 0Z" id="p142w361" />
<path d="M515.45 230.88l19.51 0l0 14.52l-19.51 0Z" id="p142w362" />
</svg>
