<?xml version="1.0" encoding="UTF-8"?>
<svg xmlns="http://www.w3.org/2000/svg" xmlns:xlink="http://www.w3.org/1999/xlink" version="1.1" baseProfile="full" width="768" height="1024" viewBox="0,0,768,1024" preserveAspectRatio="xMinYMin meet" >
<style type="text/css">
<![CDATA[
path {fill-opacity: 0.5;fill: #00aeef;visibility: hidden;}
]]>
</style>
<path d="M124.06 107.98l66.94 0l0 18.84l-66.94 0Z" id="p125w1" />
<path d="M194.65 107.98l33.35 0l0 18.84l-33.35 0Z" id="p125w2" />
<path d="M231.65 107.98l49.57 0l0 18.84l-49.57 0Z" id="p125w3" />
<path d="M143.75 139.19l285.84 0l0 14.52l-285.84 0Z" id="p125w4" />
<path d="M143.75 155.86l251.29 0l0 14.52l-251.29 0Z" id="p125w5" />
<path d="M143.75 172.53l92.51 0l0 14.52l-92.51 0Z" id="p125w6" />
<path d="M143.75 197.54l239.13 0l0 14.52l-239.13 0Z" id="p125w7" />
<path d="M143.75 214.21l283.24 0l0 14.52l-283.24 0Z" id="p125w8" />
<path d="M143.75 239.23l149.4 0l0 14.52l-149.4 0Z" id="p125w9" />
<path d="M143.75 255.9l266.72 0l0 14.52l-266.72 0Z" id="p125w10" />
<path d="M143.75 272.57l142.83 0l0 14.52l-142.83 0Z" id="p125w11" />
<path d="M143.75 289.24l277.58 0l0 14.52l-277.58 0Z" id="p125w12" />
<path d="M143.75 305.91l252.57 0l0 14.52l-252.57 0Z" id="p125w13" />
<path d="M143.75 322.58l111.72 0l0 14.52l-111.72 0Z" id="p125w14" />
<path d="M143.75 339.25l267.02 0l0 14.52l-267.02 0Z" id="p125w15" />
<path d="M124.06 372.59l309.56 0l0 14.52l-309.56 0Z" id="p125w16" />
<path d="M630.67 372.59l74.59 0l0 14.52l-74.59 0Z" id="p125w17" />
<path d="M124.06 389.26l308.19 0l0 14.52l-308.19 0Z" id="p125w18" />
<path d="M143.75 414.28l101.82 0l0 14.52l-101.82 0Z" id="p125w19" />
<path d="M261.33 414.29l166.51 0l0 14.52l-166.51 0Z" id="p125w20" />
<path d="M143.76 430.96l62.54 0l0 14.52l-62.54 0Z" id="p125w21" />
<path d="M222.05 430.96l53.47 0l0 14.52l-53.47 0Z" id="p125w22" />
<path d="M143.76 447.63l212.23 0l0 14.52l-212.23 0Z" id="p125w23" />
<path d="M371.74 447.64l25.94 0l0 14.52l-25.94 0Z" id="p125w24" />
<path d="M143.76 464.31l55.05 0l0 14.52l-55.05 0Z" id="p125w25" />
<path d="M214.56 464.31l41.71 0l0 14.52l-41.71 0Z" id="p125w26" />
<path d="M124.06 508.13l13.97 0l0 18.84l-13.97 0Z" id="p125w27" />
<path d="M141.68 508.13l66.94 0l0 18.84l-66.94 0Z" id="p125w28" />
<path d="M212.28 508.13l37 0l0 18.84l-37 0Z" id="p125w29" />
<path d="M252.93 508.13l42.69 0l0 18.84l-42.69 0Z" id="p125w30" />
<path d="M299.26 508.13l16.67 0l0 18.84l-16.67 0Z" id="p125w31" />
<path d="M319.59 508.13l86.76 0l0 18.84l-86.76 0Z" id="p125w32" />
<path d="M143.75 539.34l482.12 0l0 14.52l-482.12 0Z" id="p125w33" />
<path d="M124.06 556.01l103.15 0l0 14.52l-103.15 0Z" id="p125w34" />
<path d="M143.75 581.02l448.67 0l0 14.52l-448.67 0Z" id="p125w35" />
<path d="M143.75 597.69l421.68 0l0 14.52l-421.68 0Z" id="p125w36" />
<path d="M143.75 614.36l473.24 0l0 14.52l-473.24 0Z" id="p125w37" />
<path d="M143.75 639.37l183.81 0l0 14.52l-183.81 0Z" id="p125w38" />
<path d="M143.75 664.39l210.21 0l0 14.52l-210.21 0Z" id="p125w39" />
<path d="M124.06 739.41l302.83 0l0 14.52l-302.83 0Z" id="p125w40" />
<path d="M426.89 739.35l9.08 0l0 14.6l-9.08 0Z" id="p125w41" />
<path d="M633.03 739.41l74.59 0l0 14.52l-74.59 0Z" id="p125w42" />
<path d="M143.75 772.77l10.16 0l0 14.61l-10.16 0Z" id="p125w43" />
<path d="M157.12 772.77l33.28 0l0 14.61l-33.28 0Z" id="p125w44" />
<path d="M193.61 772.77l32.25 0l0 14.61l-32.25 0Z" id="p125w45" />
<path d="M229.06 772.77l17.57 0l0 14.61l-17.57 0Z" id="p125w46" />
<path d="M249.84 772.77l51.52 0l0 14.61l-51.52 0Z" id="p125w47" />
<path d="M304.39 772.69l25.16 0l0 14.6l-25.16 0Z" id="p125w48" />
<path d="M332.75 772.69l25.09 0l0 14.6l-25.09 0Z" id="p125w49" />
<path d="M361.05 772.69l42.55 0l0 14.6l-42.55 0Z" id="p125w50" />
<path d="M406.82 772.69l19.63 0l0 14.6l-19.63 0Z" id="p125w51" />
<path d="M429.65 772.69l20.91 0l0 14.6l-20.91 0Z" id="p125w52" />
<path d="M453.77 772.69l25.16 0l0 14.6l-25.16 0Z" id="p125w53" />
<path d="M482.13 772.69l59.01 0l0 14.6l-59.01 0Z" id="p125w54" />
<path d="M143.75 789.36l10.27 0l0 14.6l-10.27 0Z" id="p125w55" />
<path d="M157.23 789.36l25.16 0l0 14.6l-25.16 0Z" id="p125w56" />
<path d="M185.6 789.36l25.09 0l0 14.6l-25.09 0Z" id="p125w57" />
<path d="M213.9 789.36l36.83 0l0 14.6l-36.83 0Z" id="p125w58" />
<path d="M253.93 789.36l19.63 0l0 14.6l-19.63 0Z" id="p125w59" />
<path d="M276.76 789.36l20.91 0l0 14.6l-20.91 0Z" id="p125w60" />
<path d="M300.88 789.36l25.16 0l0 14.6l-25.16 0Z" id="p125w61" />
<path d="M329.24 789.36l59.01 0l0 14.6l-59.01 0Z" id="p125w62" />
<path d="M393.97 789.44l9.89 0l0 14.61l-9.89 0Z" id="p125w63" />
<path d="M424.69 789.44l13.9 0l0 14.61l-13.9 0Z" id="p125w64" />
<path d="M441.8 789.44l38.24 0l0 14.61l-38.24 0Z" id="p125w65" />
<path d="M143.75 814.44l127.65 0l0 14.52l-127.65 0Z" id="p125w66" />
<path d="M143.75 831.11l235.45 0l0 14.52l-235.45 0Z" id="p125w67" />
<path d="M143.75 847.78l186.18 0l0 14.52l-186.18 0Z" id="p125w68" />
<path d="M143.75 864.45l176.11 0l0 14.52l-176.11 0Z" id="p125w69" />
<path d="M143.75 881.12l206.6 0l0 14.52l-206.6 0Z" id="p125w70" />
<path d="M143.75 897.79l311.34 0l0 14.52l-311.34 0Z" id="p125w71" />
<path d="M143.75 914.46l179.88 0l0 14.52l-179.88 0Z" id="p125w72" />
<path d="M143.75 931.13l256.32 0l0 14.52l-256.32 0Z" id="p125w73" />
<path d="M53.09 140.96l35.52 0l0 12.29l-35.52 0Z" id="p125w74" />
<path d="M47.93 157.7l26.31 0l0 12.3l-26.31 0Z" id="p125w75" />
<path d="M52.89 174.38l35.72 0l0 12.3l-35.72 0Z" id="p125w76" />
<path d="M44.38 186.88l44.24 0l0 12.3l-44.24 0Z" id="p125w77" />
<path d="M51.21 374.45l26.31 0l0 12.3l-26.31 0Z" id="p125w78" />
<path d="M56.17 391.12l35.72 0l0 12.3l-35.72 0Z" id="p125w79" />
<path d="M47.66 403.63l44.24 0l0 12.3l-44.24 0Z" id="p125w80" />
<path d="M440.82 644.17l9.18 0l0 14.13l-9.18 0Z" id="p125w81" />
<path d="M449.36 643.82l28.33 0l0 13.3l-28.33 0Z" id="p125w82" />
<path d="M503.24 641.46l57.24 0l0 12.03l-57.24 0Z" id="p125w83" />
<path d="M381.07 663.52l26.03 0l0 13.4l-26.03 0Z" id="p125w84" />
<path d="M381.78 679.68l29.78 0l0 13.23l-29.78 0Z" id="p125w85" />
<path d="M382.48 695.85l33.52 0l0 13.07l-33.52 0Z" id="p125w86" />
<path d="M68.27 39.02l42.71 0l0 15.38l-42.71 0Z" id="p125w87" />
<path d="M152.94 38.6l45.75 0l0 16.09l-45.75 0Z" id="p125w88" />
<path d="M250.71 39.02l43.21 0l0 15.38l-43.21 0Z" id="p125w89" />
<path d="M358.23 39.02l28.68 0l0 15.38l-28.68 0Z" id="p125w90" />
<path d="M390.29 39.02l45.07 0l0 15.38l-45.07 0Z" id="p125w91" />
<path d="M467.02 39.02l32.54 0l0 15.38l-32.54 0Z" id="p125w92" />
<path d="M619.94 983l71.16 0l0 12.23l-71.16 0Z" id="p125w93" />
</svg>
