<?xml version="1.0" encoding="UTF-8"?>
<svg xmlns="http://www.w3.org/2000/svg" xmlns:xlink="http://www.w3.org/1999/xlink" version="1.1" baseProfile="full" width="768" height="1024" viewBox="0,0,768,1024" preserveAspectRatio="xMinYMin meet" >
<style type="text/css">
<![CDATA[
path {fill-opacity: 0.5;fill: #00aeef;visibility: hidden;}
]]>
</style>
<path d="M124.06 107.98l17.01 0l0 18.84l-17.01 0Z" id="p102w1" />
<path d="M144.72 107.98l81.21 0l0 18.84l-81.21 0Z" id="p102w2" />
<path d="M124.06 155.88l15.44 0l0 14.6l-15.44 0Z" id="p102w3" />
<path d="M142.71 155.88l38.26 0l0 14.6l-38.26 0Z" id="p102w4" />
<path d="M184.18 155.88l33.55 0l0 14.6l-33.55 0Z" id="p102w5" />
<path d="M220.94 155.88l67.25 0l0 14.6l-67.25 0Z" id="p102w6" />
<path d="M334.78 155.88l20.79 0l0 14.6l-20.79 0Z" id="p102w7" />
<path d="M358.77 155.88l48.76 0l0 14.6l-48.76 0Z" id="p102w8" />
<path d="M410.74 155.88l14.28 0l0 14.6l-14.28 0Z" id="p102w9" />
<path d="M428.23 155.88l33.47 0l0 14.6l-33.47 0Z" id="p102w10" />
<path d="M129.97 213.35l10.43 0l0 14.52l-10.43 0Z" id="p102w11" />
<path d="M143.61 213.35l35.56 0l0 14.52l-35.56 0Z" id="p102w12" />
<path d="M182.38 213.35l15.5 0l0 14.52l-15.5 0Z" id="p102w13" />
<path d="M201.08 213.35l27.26 0l0 14.52l-27.26 0Z" id="p102w14" />
<path d="M231.54 213.35l66.02 0l0 14.52l-66.02 0Z" id="p102w15" />
<path d="M129.97 229.95l28.6 0l0 14.6l-28.6 0Z" id="p102w16" />
<path d="M161.79 229.95l74.43 0l0 14.6l-74.43 0Z" id="p102w17" />
<path d="M239.42 229.95l20.96 0l0 14.6l-20.96 0Z" id="p102w18" />
<path d="M129.97 246.69l15.5 0l0 14.52l-15.5 0Z" id="p102w19" />
<path d="M148.68 246.69l27.26 0l0 14.52l-27.26 0Z" id="p102w20" />
<path d="M179.14 246.69l13.9 0l0 14.52l-13.9 0Z" id="p102w21" />
<path d="M196.25 246.69l82.8 0l0 14.52l-82.8 0Z" id="p102w22" />
<path d="M129.97 288.37l40.63 0l0 14.52l-40.63 0Z" id="p102w23" />
<path d="M173.81 288.37l16.83 0l0 14.52l-16.83 0Z" id="p102w24" />
<path d="M193.85 288.31l10.02 0l0 14.6l-10.02 0Z" id="p102w25" />
<path d="M207.07 288.31l23.36 0l0 14.6l-23.36 0Z" id="p102w26" />
<path d="M233.64 288.31l32.72 0l0 14.6l-32.72 0Z" id="p102w27" />
<path d="M129.97 305.04l40.18 0l0 14.52l-40.18 0Z" id="p102w28" />
<path d="M173.36 305.04l13.9 0l0 14.52l-13.9 0Z" id="p102w29" />
<path d="M190.47 305.04l43.31 0l0 14.52l-43.31 0Z" id="p102w30" />
<path d="M340.69 179.99l21.12 0l0 14.52l-21.12 0Z" id="p102w31" />
<path d="M365.02 179.93l64.74 0l0 14.6l-64.74 0Z" id="p102w32" />
<path d="M432.97 179.99l21.4 0l0 14.52l-21.4 0Z" id="p102w33" />
<path d="M457.57 179.99l21.12 0l0 14.52l-21.12 0Z" id="p102w34" />
<path d="M481.89 179.93l56.57 0l0 14.6l-56.57 0Z" id="p102w35" />
<path d="M541.67 179.93l19.61 0l0 14.6l-19.61 0Z" id="p102w36" />
<path d="M564.5 179.93l51.6 0l0 14.6l-51.6 0Z" id="p102w37" />
<path d="M378.44 208.34l22.99 0l0 14.52l-22.99 0Z" id="p102w38" />
<path d="M437.52 230.42l44.64 0l0 14.52l-44.64 0Z" id="p102w39" />
<path d="M541.89 230.42l20.85 0l0 14.52l-20.85 0Z" id="p102w40" />
<path d="M570.99 230.42l16.58 0l0 14.52l-16.58 0Z" id="p102w41" />
<path d="M378.44 230.42l28.06 0l0 14.52l-28.06 0Z" id="p102w42" />
<path d="M378.44 252.5l33.95 0l0 14.52l-33.95 0Z" id="p102w43" />
<path d="M378.44 285.55l9.89 0l0 14.52l-9.89 0Z" id="p102w44" />
<path d="M391.53 285.55l22.99 0l0 14.52l-22.99 0Z" id="p102w45" />
<path d="M469.03 296.6l44.64 0l0 14.52l-44.64 0Z" id="p102w46" />
<path d="M573.39 296.6l18.18 0l0 14.52l-18.18 0Z" id="p102w47" />
<path d="M599.82 296.6l14.07 0l0 14.52l-14.07 0Z" id="p102w48" />
<path d="M378.44 307.65l9.89 0l0 14.52l-9.89 0Z" id="p102w49" />
<path d="M391.53 307.65l33.95 0l0 14.52l-33.95 0Z" id="p102w50" />
<path d="M129.97 369.33l18.44 0l0 14.52l-18.44 0Z" id="p102w51" />
<path d="M151.62 369.33l36.09 0l0 14.52l-36.09 0Z" id="p102w52" />
<path d="M190.92 369.33l45.17 0l0 14.52l-45.17 0Z" id="p102w53" />
<path d="M239.29 369.26l23.36 0l0 14.6l-23.36 0Z" id="p102w54" />
<path d="M129.97 385.93l59.5 0l0 14.6l-59.5 0Z" id="p102w55" />
<path d="M192.68 386l9.89 0l0 14.52l-9.89 0Z" id="p102w56" />
<path d="M205.78 386l67.62 0l0 14.52l-67.62 0Z" id="p102w57" />
<path d="M129.97 402.6l20.96 0l0 14.6l-20.96 0Z" id="p102w58" />
<path d="M154.14 402.67l15.5 0l0 14.52l-15.5 0Z" id="p102w59" />
<path d="M172.85 402.67l43.57 0l0 14.52l-43.57 0Z" id="p102w60" />
<path d="M129.97 436.01l18.45 0l0 14.52l-18.45 0Z" id="p102w61" />
<path d="M151.63 436.01l15.5 0l0 14.52l-15.5 0Z" id="p102w62" />
<path d="M170.34 436.01l43.03 0l0 14.52l-43.03 0Z" id="p102w63" />
<path d="M216.57 436.01l43.86 0l0 14.52l-43.86 0Z" id="p102w64" />
<path d="M129.97 452.68l15.5 0l0 14.52l-15.5 0Z" id="p102w65" />
<path d="M148.68 452.68l26.46 0l0 14.52l-26.46 0Z" id="p102w66" />
<path d="M178.35 452.68l55.25 0l0 14.52l-55.25 0Z" id="p102w67" />
<path d="M236.81 452.62l10.02 0l0 14.6l-10.02 0Z" id="p102w68" />
<path d="M250.04 452.62l23.36 0l0 14.6l-23.36 0Z" id="p102w69" />
<path d="M276.61 452.62l44.35 0l0 14.6l-44.35 0Z" id="p102w70" />
<path d="M129.97 469.35l19.51 0l0 14.52l-19.51 0Z" id="p102w71" />
<path d="M152.69 469.35l41.18 0l0 14.52l-41.18 0Z" id="p102w72" />
<path d="M340.69 335.97l21.12 0l0 14.52l-21.12 0Z" id="p102w73" />
<path d="M365.01 335.91l64.74 0l0 14.6l-64.74 0Z" id="p102w74" />
<path d="M432.96 335.97l21.4 0l0 14.52l-21.4 0Z" id="p102w75" />
<path d="M457.57 335.97l21.12 0l0 14.52l-21.12 0Z" id="p102w76" />
<path d="M481.89 335.91l56.57 0l0 14.6l-56.57 0Z" id="p102w77" />
<path d="M541.67 335.91l19.61 0l0 14.6l-19.61 0Z" id="p102w78" />
<path d="M564.5 335.91l45.38 0l0 14.6l-45.38 0Z" id="p102w79" />
<path d="M378.44 364.32l22.99 0l0 14.52l-22.99 0Z" id="p102w80" />
<path d="M469.03 386.4l39.56 0l0 14.52l-39.56 0Z" id="p102w81" />
<path d="M573.39 386.4l20.85 0l0 14.52l-20.85 0Z" id="p102w82" />
<path d="M602.5 386.4l16.58 0l0 14.52l-16.58 0Z" id="p102w83" />
<path d="M378.44 386.4l28.06 0l0 14.52l-28.06 0Z" id="p102w84" />
<path d="M378.44 408.48l33.95 0l0 14.52l-33.95 0Z" id="p102w85" />
<path d="M350.36 441.53l12.83 0l0 14.52l-12.83 0Z" id="p102w86" />
<path d="M378.44 441.53l9.89 0l0 14.52l-9.89 0Z" id="p102w87" />
<path d="M391.53 441.53l22.99 0l0 14.52l-22.99 0Z" id="p102w88" />
<path d="M469.03 452.58l39.56 0l0 14.52l-39.56 0Z" id="p102w89" />
<path d="M573.39 452.58l18.18 0l0 14.52l-18.18 0Z" id="p102w90" />
<path d="M599.82 452.58l14.07 0l0 14.52l-14.07 0Z" id="p102w91" />
<path d="M350.36 463.63l12.83 0l0 14.52l-12.83 0Z" id="p102w92" />
<path d="M378.44 463.63l9.89 0l0 14.52l-9.89 0Z" id="p102w93" />
<path d="M391.53 463.63l33.95 0l0 14.52l-33.95 0Z" id="p102w94" />
<path d="M124.06 501.73l15.44 0l0 14.6l-15.44 0Z" id="p102w95" />
<path d="M142.71 501.73l64.54 0l0 14.6l-64.54 0Z" id="p102w96" />
<path d="M210.46 501.73l42.36 0l0 14.6l-42.36 0Z" id="p102w97" />
<path d="M255.59 501.73l66.05 0l0 14.6l-66.05 0Z" id="p102w98" />
<path d="M334.77 501.73l20.79 0l0 14.6l-20.79 0Z" id="p102w99" />
<path d="M358.77 501.73l48.76 0l0 14.6l-48.76 0Z" id="p102w100" />
<path d="M410.74 501.73l14.28 0l0 14.6l-14.28 0Z" id="p102w101" />
<path d="M428.23 501.73l33.47 0l0 14.6l-33.47 0Z" id="p102w102" />
<path d="M129.97 543.77l6.15 0l0 14.52l-6.15 0Z" id="p102w103" />
<path d="M136.13 543.71l10.03 0l0 14.6l-10.03 0Z" id="p102w104" />
<path d="M149.36 543.71l31.23 0l0 14.6l-31.23 0Z" id="p102w105" />
<path d="M183.8 543.77l25.67 0l0 14.52l-25.67 0Z" id="p102w106" />
<path d="M212.68 543.77l20.85 0l0 14.52l-20.85 0Z" id="p102w107" />
<path d="M236.74 543.77l17.63 0l0 14.52l-17.63 0Z" id="p102w108" />
<path d="M129.97 560.44l21.37 0l0 14.52l-21.37 0Z" id="p102w109" />
<path d="M154.55 560.44l49.97 0l0 14.52l-49.97 0Z" id="p102w110" />
<path d="M129.97 618.8l29.66 0l0 14.52l-29.66 0Z" id="p102w111" />
<path d="M162.84 618.8l47.58 0l0 14.52l-47.58 0Z" id="p102w112" />
<path d="M213.63 618.8l16.83 0l0 14.52l-16.83 0Z" id="p102w113" />
<path d="M233.67 618.8l43.5 0l0 14.52l-43.5 0Z" id="p102w114" />
<path d="M129.97 635.47l26.74 0l0 14.52l-26.74 0Z" id="p102w115" />
<path d="M159.92 635.4l32.59 0l0 14.6l-32.59 0Z" id="p102w116" />
<path d="M195.72 635.4l7.97 0l0 14.6l-7.97 0Z" id="p102w117" />
<path d="M206.9 635.47l46.78 0l0 14.52l-46.78 0Z" id="p102w118" />
<path d="M256.89 635.47l22.99 0l0 14.52l-22.99 0Z" id="p102w119" />
<path d="M129.97 652.14l9.89 0l0 14.52l-9.89 0Z" id="p102w120" />
<path d="M143.07 652.14l24.33 0l0 14.52l-24.33 0Z" id="p102w121" />
<path d="M340.69 525.85l17.11 0l0 14.52l-17.11 0Z" id="p102w122" />
<path d="M360.57 525.85l39.03 0l0 14.52l-39.03 0Z" id="p102w123" />
<path d="M402.8 525.78l31.64 0l0 14.61l-31.64 0Z" id="p102w124" />
<path d="M437.65 525.85l21.4 0l0 14.52l-21.4 0Z" id="p102w125" />
<path d="M462.25 525.78l18.82 0l0 14.61l-18.82 0Z" id="p102w126" />
<path d="M689.12 525.85l13.91 0l0 14.52l-13.91 0Z" id="p102w127" />
<path d="M340.7 547.93l9.62 0l0 14.52l-9.62 0Z" id="p102w128" />
<path d="M353.53 547.93l29.95 0l0 14.52l-29.95 0Z" id="p102w129" />
<path d="M340.7 564.6l11.5 0l0 14.52l-11.5 0Z" id="p102w130" />
<path d="M355.41 564.6l29.95 0l0 14.52l-29.95 0Z" id="p102w131" />
<path d="M340.7 581.27l6.41 0l0 14.52l-6.41 0Z" id="p102w132" />
<path d="M355.37 581.27l19.77 0l0 14.52l-19.77 0Z" id="p102w133" />
<path d="M383.39 581.27l14.18 0l0 14.52l-14.18 0Z" id="p102w134" />
<path d="M400.77 581.27l28.88 0l0 14.52l-28.88 0Z" id="p102w135" />
<path d="M340.7 597.94l18.47 0l0 14.52l-18.47 0Z" id="p102w136" />
<path d="M368.79 597.94l5.35 0l0 14.52l-5.35 0Z" id="p102w137" />
<path d="M374.14 597.88l10.03 0l0 14.6l-10.03 0Z" id="p102w138" />
<path d="M387.37 597.94l24.34 0l0 14.52l-24.34 0Z" id="p102w139" />
<path d="M496.6 547.93l26.74 0l0 14.52l-26.74 0Z" id="p102w140" />
<path d="M526.55 547.93l43.86 0l0 14.52l-43.86 0Z" id="p102w141" />
<path d="M496.6 564.6l25.67 0l0 14.52l-25.67 0Z" id="p102w142" />
<path d="M525.48 564.6l36.91 0l0 14.52l-36.91 0Z" id="p102w143" />
<path d="M496.6 581.27l12.02 0l0 14.52l-12.02 0Z" id="p102w144" />
<path d="M516.87 581.27l25.38 0l0 14.52l-25.38 0Z" id="p102w145" />
<path d="M545.46 581.27l42.78 0l0 14.52l-42.78 0Z" id="p102w146" />
<path d="M340.7 620.03l9.62 0l0 14.52l-9.62 0Z" id="p102w147" />
<path d="M353.53 620.03l13.36 0l0 14.52l-13.36 0Z" id="p102w148" />
<path d="M340.7 636.7l11.5 0l0 14.52l-11.5 0Z" id="p102w149" />
<path d="M355.41 636.7l13.36 0l0 14.52l-13.36 0Z" id="p102w150" />
<path d="M340.7 653.37l6.41 0l0 14.52l-6.41 0Z" id="p102w151" />
<path d="M355.37 653.37l19.77 0l0 14.52l-19.77 0Z" id="p102w152" />
<path d="M383.39 653.37l14.18 0l0 14.52l-14.18 0Z" id="p102w153" />
<path d="M400.77 653.37l12.29 0l0 14.52l-12.29 0Z" id="p102w154" />
<path d="M340.7 670.04l18.47 0l0 14.52l-18.47 0Z" id="p102w155" />
<path d="M368.79 670.04l14.8 0l0 14.52l-14.8 0Z" id="p102w156" />
<path d="M496.6 620.03l26.74 0l0 14.52l-26.74 0Z" id="p102w157" />
<path d="M526.55 620.03l27.53 0l0 14.52l-27.53 0Z" id="p102w158" />
<path d="M496.6 636.7l25.67 0l0 14.52l-25.67 0Z" id="p102w159" />
<path d="M525.48 636.7l20.31 0l0 14.52l-20.31 0Z" id="p102w160" />
<path d="M496.6 653.37l12.02 0l0 14.52l-12.02 0Z" id="p102w161" />
<path d="M516.87 653.37l25.38 0l0 14.52l-25.38 0Z" id="p102w162" />
<path d="M545.46 653.37l26.19 0l0 14.52l-26.19 0Z" id="p102w163" />
<path d="M124.09 701.89l15.44 0l0 14.6l-15.44 0Z" id="p102w164" />
<path d="M142.74 701.89l38.26 0l0 14.6l-38.26 0Z" id="p102w165" />
<path d="M184.21 701.89l33.55 0l0 14.6l-33.55 0Z" id="p102w166" />
<path d="M220.97 701.89l74.22 0l0 14.6l-74.22 0Z" id="p102w167" />
<path d="M334.8 701.89l20.79 0l0 14.6l-20.79 0Z" id="p102w168" />
<path d="M358.8 701.89l48.76 0l0 14.6l-48.76 0Z" id="p102w169" />
<path d="M410.76 701.89l14.28 0l0 14.6l-14.28 0Z" id="p102w170" />
<path d="M428.25 701.89l33.47 0l0 14.6l-33.47 0Z" id="p102w171" />
<path d="M130 748.97l13.6 0l0 14.6l-13.6 0Z" id="p102w172" />
<path d="M146.8 748.97l24.59 0l0 14.6l-24.59 0Z" id="p102w173" />
<path d="M174.6 749.04l15.5 0l0 14.52l-15.5 0Z" id="p102w174" />
<path d="M193.3 749.04l27.26 0l0 14.52l-27.26 0Z" id="p102w175" />
<path d="M223.77 748.97l17.62 0l0 14.6l-17.62 0Z" id="p102w176" />
<path d="M244.6 749.04l18.72 0l0 14.52l-18.72 0Z" id="p102w177" />
<path d="M266.52 749.04l13.63 0l0 14.52l-13.63 0Z" id="p102w178" />
<path d="M283.36 749.04l9.89 0l0 14.52l-9.89 0Z" id="p102w179" />
<path d="M296.46 749.04l22.99 0l0 14.52l-22.99 0Z" id="p102w180" />
<path d="M130 765.71l13.9 0l0 14.52l-13.9 0Z" id="p102w181" />
<path d="M147.11 765.71l39.31 0l0 14.52l-39.31 0Z" id="p102w182" />
<path d="M130 790.65l26.49 0l0 14.6l-26.49 0Z" id="p102w183" />
<path d="M169.59 790.72l40.63 0l0 14.52l-40.63 0Z" id="p102w184" />
<path d="M213.42 790.65l20.96 0l0 14.6l-20.96 0Z" id="p102w185" />
<path d="M237.59 790.72l9.89 0l0 14.52l-9.89 0Z" id="p102w186" />
<path d="M250.68 790.72l40.18 0l0 14.52l-40.18 0Z" id="p102w187" />
<path d="M294.07 790.72l14.18 0l0 14.52l-14.18 0Z" id="p102w188" />
<path d="M130 807.39l40.63 0l0 14.52l-40.63 0Z" id="p102w189" />
<path d="M183.72 807.39l22.73 0l0 14.52l-22.73 0Z" id="p102w190" />
<path d="M340.71 726l17.11 0l0 14.52l-17.11 0Z" id="p102w191" />
<path d="M361.03 725.94l25.83 0l0 14.61l-25.83 0Z" id="p102w192" />
<path d="M390.07 725.94l13.38 0l0 14.61l-13.38 0Z" id="p102w193" />
<path d="M406.66 725.94l28.27 0l0 14.61l-28.27 0Z" id="p102w194" />
<path d="M340.73 748.02l26.49 0l0 14.6l-26.49 0Z" id="p102w195" />
<path d="M375.63 748.02l12.16 0l0 14.6l-12.16 0Z" id="p102w196" />
<path d="M390.99 748.02l24.59 0l0 14.6l-24.59 0Z" id="p102w197" />
<path d="M340.73 764.76l106.4 0l0 14.52l-106.4 0Z" id="p102w198" />
<path d="M340.73 781.43l45.97 0l0 14.52l-45.97 0Z" id="p102w199" />
<path d="M496.62 748.02l17.62 0l0 14.6l-17.62 0Z" id="p102w200" />
<path d="M522.65 748.02l20.96 0l0 14.6l-20.96 0Z" id="p102w201" />
<path d="M496.62 764.76l69.05 0l0 14.52l-69.05 0Z" id="p102w202" />
<path d="M124.06 39.02l42.02 0l0 15.38l-42.02 0Z" id="p102w203" />
<path d="M208.73 39.02l43.21 0l0 15.38l-43.21 0Z" id="p102w204" />
<path d="M307.2 39.02l43.21 0l0 15.38l-43.21 0Z" id="p102w205" />
<path d="M414.72 39.02l28.68 0l0 15.38l-28.68 0Z" id="p102w206" />
<path d="M446.78 39.02l42.85 0l0 15.38l-42.85 0Z" id="p102w207" />
<path d="M524.22 38.6l34.29 0l0 16.09l-34.29 0Z" id="p102w208" />
<path d="M76.9 983l20.49 0l0 12.23l-20.49 0Z" id="p102w209" />
</svg>
