<?xml version="1.0" encoding="UTF-8"?>
<svg xmlns="http://www.w3.org/2000/svg" xmlns:xlink="http://www.w3.org/1999/xlink" version="1.1" baseProfile="full" width="768" height="1024" viewBox="0,0,768,1024" preserveAspectRatio="xMinYMin meet" >
<style type="text/css">
<![CDATA[
path {fill-opacity: 0.5;fill: #00aeef;visibility: hidden;}
]]>
</style>
<path d="M573.06 983.66l118.04 0l0 12.23l-118.04 0Z" id="p247w1" />
<path d="M562.12 38.6l81.82 0l0 16.09l-81.82 0Z" id="p247w2" />
<path d="M59.08 112.51l11.94 0l0 12.23l-11.94 0Z" id="p247w3" />
<path d="M73.72 112.45l36.88 0l0 12.29l-36.88 0Z" id="p247w4" />
<path d="M110.6 112.51l21.73 0l0 12.23l-21.73 0Z" id="p247w5" />
<path d="M135.03 112.45l36.88 0l0 12.29l-36.88 0Z" id="p247w6" />
<path d="M177.77 111.41l33.23 0l0 13.77l-33.23 0Z" id="p247w7" />
<path d="M68.92 126.69l37.24 0l0 13.77l-37.24 0Z" id="p247w8" />
<path d="M112.02 127.79l14.41 0l0 12.23l-14.41 0Z" id="p247w9" />
<path d="M128.82 127.79l55.5 0l0 12.23l-55.5 0Z" id="p247w10" />
<path d="M186.72 127.79l40.08 0l0 12.23l-40.08 0Z" id="p247w11" />
<path d="M68.92 142.83l14.63 0l0 12.56l-14.63 0Z" id="p247w12" />
<path d="M59.08 158.3l51.72 0l0 12.29l-51.72 0Z" id="p247w13" />
<path d="M116.65 157.26l34.22 0l0 13.77l-34.22 0Z" id="p247w14" />
<path d="M156.74 158.36l49.07 0l0 12.23l-49.07 0Z" id="p247w15" />
<path d="M208.51 158.11l14.63 0l0 12.56l-14.63 0Z" id="p247w16" />
<path d="M59.08 173.64l17.56 0l0 12.23l-17.56 0Z" id="p247w17" />
<path d="M79.34 173.59l36.99 0l0 12.29l-36.99 0Z" id="p247w18" />
<path d="M122.19 172.54l37.76 0l0 13.77l-37.76 0Z" id="p247w19" />
<path d="M165.81 173.64l20.03 0l0 12.23l-20.03 0Z" id="p247w20" />
<path d="M188.24 173.64l37.38 0l0 12.23l-37.38 0Z" id="p247w21" />
<path d="M68.92 188.68l15.34 0l0 12.56l-15.34 0Z" id="p247w22" />
<path d="M59.08 204.15l35.27 0l0 12.29l-35.27 0Z" id="p247w23" />
<path d="M100.2 203.11l26.3 0l0 13.77l-26.3 0Z" id="p247w24" />
<path d="M132.36 204.21l43.84 0l0 12.23l-43.84 0Z" id="p247w25" />
<path d="M178.9 203.96l15.54 0l0 12.56l-15.54 0Z" id="p247w26" />
<path d="M59.08 219.44l20.6 0l0 12.29l-20.6 0Z" id="p247w27" />
<path d="M85.53 218.39l13.59 0l0 13.77l-13.59 0Z" id="p247w28" />
<path d="M104.98 219.49l16.65 0l0 12.23l-16.65 0Z" id="p247w29" />
<path d="M124.33 219.25l19.58 0l0 12.56l-19.58 0Z" id="p247w30" />
<path d="M59.08 234.72l19.71 0l0 12.29l-19.71 0Z" id="p247w31" />
<path d="M89.81 234.78l22.75 0l0 12.23l-22.75 0Z" id="p247w32" />
<path d="M118.42 233.68l29.56 0l0 13.77l-29.56 0Z" id="p247w33" />
<path d="M153.83 234.78l39.86 0l0 12.23l-39.86 0Z" id="p247w34" />
<path d="M196.39 234.53l15.54 0l0 12.56l-15.54 0Z" id="p247w35" />
<path d="M59.08 250l19.71 0l0 12.29l-19.71 0Z" id="p247w36" />
<path d="M81.49 250.06l22.06 0l0 12.23l-22.06 0Z" id="p247w37" />
<path d="M109.41 248.96l33.52 0l0 13.77l-33.52 0Z" id="p247w38" />
<path d="M148.79 250.06l48.78 0l0 12.23l-48.78 0Z" id="p247w39" />
<path d="M200.27 249.81l15.54 0l0 12.56l-15.54 0Z" id="p247w40" />
<path d="M59.08 265.29l20.6 0l0 12.29l-20.6 0Z" id="p247w41" />
<path d="M83.84 265.29l30.17 0l0 12.29l-30.17 0Z" id="p247w42" />
<path d="M119.87 264.24l29.28 0l0 13.77l-29.28 0Z" id="p247w43" />
<path d="M155 265.34l16.65 0l0 12.23l-16.65 0Z" id="p247w44" />
<path d="M186.06 265.34l40.04 0l0 12.23l-40.04 0Z" id="p247w45" />
<path d="M68.92 280.63l14.41 0l0 12.23l-14.41 0Z" id="p247w46" />
<path d="M86.03 280.63l34.39 0l0 12.23l-34.39 0Z" id="p247w47" />
<path d="M123.12 280.38l18.17 0l0 12.56l-18.17 0Z" id="p247w48" />
<path d="M59.08 295.85l19.71 0l0 12.29l-19.71 0Z" id="p247w49" />
<path d="M82.95 295.85l25.33 0l0 12.29l-25.33 0Z" id="p247w50" />
<path d="M114.14 294.81l25.13 0l0 13.77l-25.13 0Z" id="p247w51" />
<path d="M145.13 295.91l22.69 0l0 12.23l-22.69 0Z" id="p247w52" />
<path d="M182.22 295.89l37.14 0l0 12.23l-37.14 0Z" id="p247w53" />
<path d="M68.92 310.95l18.17 0l0 12.56l-18.17 0Z" id="p247w54" />
<path d="M68.92 326.48l19.36 0l0 12.23l-19.36 0Z" id="p247w55" />
<path d="M90.99 326.48l8.33 0l0 12.23l-8.33 0Z" id="p247w56" />
<path d="M102.01 326.48l29.48 0l0 12.23l-29.48 0Z" id="p247w57" />
<path d="M137.35 325.38l35.26 0l0 13.77l-35.26 0Z" id="p247w58" />
<path d="M178.47 326.48l14.41 0l0 12.23l-14.41 0Z" id="p247w59" />
<path d="M195.57 326.48l28.31 0l0 12.23l-28.31 0Z" id="p247w60" />
<path d="M68.92 341.76l17.77 0l0 12.23l-17.77 0Z" id="p247w61" />
<path d="M89.4 341.52l18.17 0l0 12.56l-18.17 0Z" id="p247w62" />
<path d="M68.92 357.04l19.36 0l0 12.23l-19.36 0Z" id="p247w63" />
<path d="M90.99 357.04l8.33 0l0 12.23l-8.33 0Z" id="p247w64" />
<path d="M102.01 357.04l32.87 0l0 12.23l-32.87 0Z" id="p247w65" />
<path d="M140.74 355.94l32.95 0l0 13.77l-32.95 0Z" id="p247w66" />
<path d="M179.54 357.04l19.1 0l0 12.23l-19.1 0Z" id="p247w67" />
<path d="M201.34 357.04l23.63 0l0 12.23l-23.63 0Z" id="p247w68" />
<path d="M68.92 372.08l19.58 0l0 12.56l-19.58 0Z" id="p247w69" />
<path d="M59.08 387.55l19.71 0l0 12.29l-19.71 0Z" id="p247w70" />
<path d="M84.64 386.51l9.45 0l0 13.77l-9.45 0Z" id="p247w71" />
<path d="M99.95 387.61l21.37 0l0 12.23l-21.37 0Z" id="p247w72" />
<path d="M124.02 387.37l15.54 0l0 12.56l-15.54 0Z" id="p247w73" />
<path d="M68.92 402.89l20.05 0l0 12.23l-20.05 0Z" id="p247w74" />
<path d="M91.68 402.89l10.66 0l0 12.23l-10.66 0Z" id="p247w75" />
<path d="M105.04 402.89l20.49 0l0 12.23l-20.49 0Z" id="p247w76" />
<path d="M137.24 401.79l32.5 0l0 13.77l-32.5 0Z" id="p247w77" />
<path d="M175.6 402.89l22.27 0l0 12.23l-22.27 0Z" id="p247w78" />
<path d="M200.57 402.89l8.78 0l0 12.23l-8.78 0Z" id="p247w79" />
<path d="M68.92 418.18l44.08 0l0 12.23l-44.08 0Z" id="p247w80" />
<path d="M115.71 417.93l15.54 0l0 12.56l-15.54 0Z" id="p247w81" />
<path d="M59.08 433.4l19.71 0l0 12.29l-19.71 0Z" id="p247w82" />
<path d="M81.49 433.4l11.68 0l0 12.29l-11.68 0Z" id="p247w83" />
<path d="M95.87 433.4l23.19 0l0 12.29l-23.19 0Z" id="p247w84" />
<path d="M124.91 432.36l32.07 0l0 13.77l-32.07 0Z" id="p247w85" />
<path d="M162.84 433.46l27.69 0l0 12.23l-27.69 0Z" id="p247w86" />
<path d="M193.23 433.22l18.92 0l0 12.56l-18.92 0Z" id="p247w87" />
<path d="M59.08 448.74l11.94 0l0 12.23l-11.94 0Z" id="p247w88" />
<path d="M73.72 448.69l49.56 0l0 12.29l-49.56 0Z" id="p247w89" />
<path d="M123.28 448.74l21.73 0l0 12.23l-21.73 0Z" id="p247w90" />
<path d="M147.71 448.69l51.02 0l0 12.29l-51.02 0Z" id="p247w91" />
<path d="M72.08 462.93l114.25 0l0 13.77l-114.25 0Z" id="p247w92" />
<path d="M192.19 464.03l14.41 0l0 12.23l-14.41 0Z" id="p247w93" />
<path d="M68.92 479.31l75.28 0l0 12.23l-75.28 0Z" id="p247w94" />
<path d="M146.91 479.31l59.87 0l0 12.23l-59.87 0Z" id="p247w95" />
<path d="M209.48 479.07l18.92 0l0 12.56l-18.92 0Z" id="p247w96" />
<path d="M59.08 494.59l11.94 0l0 12.23l-11.94 0Z" id="p247w97" />
<path d="M73.72 494.54l22.37 0l0 12.29l-22.37 0Z" id="p247w98" />
<path d="M101.95 493.49l18.34 0l0 13.77l-18.34 0Z" id="p247w99" />
<path d="M126.15 494.59l14.41 0l0 12.23l-14.41 0Z" id="p247w100" />
<path d="M143.25 494.59l17.51 0l0 12.23l-17.51 0Z" id="p247w101" />
<path d="M163.46 494.35l15.54 0l0 12.56l-15.54 0Z" id="p247w102" />
<path d="M68.92 509.88l18.9 0l0 12.23l-18.9 0Z" id="p247w103" />
<path d="M90.52 509.88l11.7 0l0 12.23l-11.7 0Z" id="p247w104" />
<path d="M104.93 509.88l21.83 0l0 12.23l-21.83 0Z" id="p247w105" />
<path d="M129.46 509.88l11.7 0l0 12.23l-11.7 0Z" id="p247w106" />
<path d="M143.86 509.88l21.37 0l0 12.23l-21.37 0Z" id="p247w107" />
<path d="M68.92 525.16l11.04 0l0 12.23l-11.04 0Z" id="p247w108" />
<path d="M85.82 524.06l57.78 0l0 13.77l-57.78 0Z" id="p247w109" />
<path d="M149.45 525.16l32.58 0l0 12.23l-32.58 0Z" id="p247w110" />
<path d="M184.73 525.16l19.44 0l0 12.23l-19.44 0Z" id="p247w111" />
<path d="M206.88 525.16l15.76 0l0 12.23l-15.76 0Z" id="p247w112" />
<path d="M68.92 540.2l18.92 0l0 12.56l-18.92 0Z" id="p247w113" />
<path d="M59.08 555.67l31.9 0l0 12.29l-31.9 0Z" id="p247w114" />
<path d="M93.68 555.71l27.91 0l0 12.23l-27.91 0Z" id="p247w115" />
<path d="M127.45 554.63l25.24 0l0 13.77l-25.24 0Z" id="p247w116" />
<path d="M158.55 555.73l47.22 0l0 12.23l-47.22 0Z" id="p247w117" />
<path d="M208.47 555.71l25.65 0l0 12.23l-25.65 0Z" id="p247w118" />
<path d="M68.92 570.77l14.63 0l0 12.56l-14.63 0Z" id="p247w119" />
<path d="M59.08 586.29l11.94 0l0 12.23l-11.94 0Z" id="p247w120" />
<path d="M73.72 586.24l25.87 0l0 12.29l-25.87 0Z" id="p247w121" />
<path d="M105.44 585.19l28.1 0l0 13.77l-28.1 0Z" id="p247w122" />
<path d="M139.4 586.29l20.03 0l0 12.23l-20.03 0Z" id="p247w123" />
<path d="M162.13 586.29l34.89 0l0 12.23l-34.89 0Z" id="p247w124" />
<path d="M199.72 586.05l15.54 0l0 12.56l-15.54 0Z" id="p247w125" />
<path d="M59.08 601.58l11.94 0l0 12.23l-11.94 0Z" id="p247w126" />
<path d="M73.67 601.52l29.79 0l0 12.29l-29.79 0Z" id="p247w127" />
<path d="M103.46 601.58l20.6 0l0 12.23l-20.6 0Z" id="p247w128" />
<path d="M126.71 601.52l35.39 0l0 12.29l-35.39 0Z" id="p247w129" />
<path d="M167.92 600.48l69.81 0l0 13.77l-69.81 0Z" id="p247w130" />
<path d="M68.91 616.86l20.03 0l0 12.23l-20.03 0Z" id="p247w131" />
<path d="M91.64 616.86l98.47 0l0 12.23l-98.47 0Z" id="p247w132" />
<path d="M192.82 616.62l18.92 0l0 12.56l-18.92 0Z" id="p247w133" />
<path d="M59.07 632.09l42.13 0l0 12.29l-42.13 0Z" id="p247w134" />
<path d="M107.05 631.04l31.92 0l0 13.77l-31.92 0Z" id="p247w135" />
<path d="M144.83 632.14l39.38 0l0 12.23l-39.38 0Z" id="p247w136" />
<path d="M186.91 631.9l15.54 0l0 12.56l-15.54 0Z" id="p247w137" />
<path d="M59.07 647.37l42.42 0l0 12.29l-42.42 0Z" id="p247w138" />
<path d="M104.18 647.43l11.04 0l0 12.23l-11.04 0Z" id="p247w139" />
<path d="M121.08 646.33l38.41 0l0 13.77l-38.41 0Z" id="p247w140" />
<path d="M165.35 647.43l19.44 0l0 12.23l-19.44 0Z" id="p247w141" />
<path d="M68.91 662.71l62.33 0l0 12.23l-62.33 0Z" id="p247w142" />
<path d="M133.95 662.71l19.44 0l0 12.23l-19.44 0Z" id="p247w143" />
<path d="M156.09 662.71l54.48 0l0 12.23l-54.48 0Z" id="p247w144" />
<path d="M213.27 662.47l14.63 0l0 12.56l-14.63 0Z" id="p247w145" />
<path d="M59.07 677.94l18.23 0l0 12.29l-18.23 0Z" id="p247w146" />
<path d="M83.15 676.89l13.63 0l0 13.77l-13.63 0Z" id="p247w147" />
<path d="M102.64 677.99l20.25 0l0 12.23l-20.25 0Z" id="p247w148" />
<path d="M125.59 677.75l15.54 0l0 12.56l-15.54 0Z" id="p247w149" />
<path d="M59.07 693.28l21.37 0l0 12.23l-21.37 0Z" id="p247w150" />
<path d="M83.14 693.28l8.33 0l0 12.23l-8.33 0Z" id="p247w151" />
<path d="M94.17 693.22l10.66 0l0 12.29l-10.66 0Z" id="p247w152" />
<path d="M107.53 693.28l24.98 0l0 12.23l-24.98 0Z" id="p247w153" />
<path d="M135.2 693.28l11.04 0l0 12.23l-11.04 0Z" id="p247w154" />
<path d="M152.1 692.18l49.02 0l0 13.77l-49.02 0Z" id="p247w155" />
<path d="M206.98 693.28l20.03 0l0 12.23l-20.03 0Z" id="p247w156" />
<path d="M68.91 708.56l39.76 0l0 12.23l-39.76 0Z" id="p247w157" />
<path d="M111.37 708.56l31.96 0l0 12.23l-31.96 0Z" id="p247w158" />
<path d="M146.03 708.56l43.45 0l0 12.23l-43.45 0Z" id="p247w159" />
<path d="M192.18 708.56l19.44 0l0 12.23l-19.44 0Z" id="p247w160" />
<path d="M68.91 723.6l18.92 0l0 12.56l-18.92 0Z" id="p247w161" />
<path d="M59.07 739.13l17.56 0l0 12.23l-17.56 0Z" id="p247w162" />
<path d="M79.33 739.07l22.71 0l0 12.29l-22.71 0Z" id="p247w163" />
<path d="M107.89 738.03l34.27 0l0 13.77l-34.27 0Z" id="p247w164" />
<path d="M148.02 739.13l14.41 0l0 12.23l-14.41 0Z" id="p247w165" />
<path d="M165.13 739.13l65.06 0l0 12.23l-65.06 0Z" id="p247w166" />
<path d="M68.91 754.17l18.92 0l0 12.56l-18.92 0Z" id="p247w167" />
<path d="M59.07 769.64l25.06 0l0 12.29l-25.06 0Z" id="p247w168" />
<path d="M89.99 768.59l19.82 0l0 13.77l-19.82 0Z" id="p247w169" />
<path d="M115.66 769.7l31.46 0l0 12.23l-31.46 0Z" id="p247w170" />
<path d="M149.82 769.45l15.54 0l0 12.56l-15.54 0Z" id="p247w171" />
<path d="M59.07 784.92l19.67 0l0 12.29l-19.67 0Z" id="p247w172" />
<path d="M84.6 783.88l14.85 0l0 13.77l-14.85 0Z" id="p247w173" />
<path d="M105.31 784.98l10.82 0l0 12.23l-10.82 0Z" id="p247w174" />
<path d="M118.82 784.73l15.54 0l0 12.56l-15.54 0Z" id="p247w175" />
<path d="M68.91 800.26l19.36 0l0 12.23l-19.36 0Z" id="p247w176" />
<path d="M90.98 800.26l11.7 0l0 12.23l-11.7 0Z" id="p247w177" />
<path d="M108.54 799.16l26.02 0l0 13.77l-26.02 0Z" id="p247w178" />
<path d="M140.42 800.26l10.82 0l0 12.23l-10.82 0Z" id="p247w179" />
<path d="M153.93 800.26l16.21 0l0 12.23l-16.21 0Z" id="p247w180" />
<path d="M172.84 800.24l17.56 0l0 12.23l-17.56 0Z" id="p247w181" />
<path d="M193.1 800.24l41.69 0l0 12.23l-41.69 0Z" id="p247w182" />
<path d="M68.91 815.3l15.54 0l0 12.56l-15.54 0Z" id="p247w183" />
<path d="M59.07 830.77l19.67 0l0 12.29l-19.67 0Z" id="p247w184" />
<path d="M81.44 830.81l27.91 0l0 12.23l-27.91 0Z" id="p247w185" />
<path d="M115.21 829.73l14.85 0l0 13.77l-14.85 0Z" id="p247w186" />
<path d="M135.92 830.83l16.44 0l0 12.23l-16.44 0Z" id="p247w187" />
<path d="M155.06 830.81l25.65 0l0 12.23l-25.65 0Z" id="p247w188" />
<path d="M183.41 830.58l15.54 0l0 12.56l-15.54 0Z" id="p247w189" />
<path d="M59.07 846.11l10.35 0l0 12.23l-10.35 0Z" id="p247w190" />
<path d="M72.12 846.06l34.16 0l0 12.29l-34.16 0Z" id="p247w191" />
<path d="M112.13 845.01l34.16 0l0 13.77l-34.16 0Z" id="p247w192" />
<path d="M152.14 846.11l18.46 0l0 12.23l-18.46 0Z" id="p247w193" />
<path d="M173.31 846.11l18.01 0l0 12.23l-18.01 0Z" id="p247w194" />
<path d="M191.31 846.11l23.86 0l0 12.23l-23.86 0Z" id="p247w195" />
<path d="M217.88 845.87l17.26 0l0 12.56l-17.26 0Z" id="p247w196" />
<path d="M59.07 861.34l34.16 0l0 12.29l-34.16 0Z" id="p247w197" />
<path d="M95.92 861.4l11.04 0l0 12.23l-11.04 0Z" id="p247w198" />
<path d="M112.82 860.3l24.99 0l0 13.77l-24.99 0Z" id="p247w199" />
<path d="M143.66 861.4l19.44 0l0 12.23l-19.44 0Z" id="p247w200" />
<path d="M165.8 861.4l6.3 0l0 12.23l-6.3 0Z" id="p247w201" />
<path d="M172.11 861.4l23.86 0l0 12.23l-23.86 0Z" id="p247w202" />
<path d="M198.67 861.15l15.54 0l0 12.56l-15.54 0Z" id="p247w203" />
<path d="M59.07 876.68l11.94 0l0 12.23l-11.94 0Z" id="p247w204" />
<path d="M73.7 876.62l18.43 0l0 12.29l-18.43 0Z" id="p247w205" />
<path d="M94.83 876.66l27.91 0l0 12.23l-27.91 0Z" id="p247w206" />
<path d="M128.6 875.58l24.25 0l0 13.77l-24.25 0Z" id="p247w207" />
<path d="M158.71 876.68l14.41 0l0 12.23l-14.41 0Z" id="p247w208" />
<path d="M175.82 876.68l24.23 0l0 12.23l-24.23 0Z" id="p247w209" />
<path d="M202.75 876.68l20.03 0l0 12.23l-20.03 0Z" id="p247w210" />
<path d="M68.91 891.96l28.14 0l0 12.23l-28.14 0Z" id="p247w211" />
<path d="M99.76 891.72l15.54 0l0 12.56l-15.54 0Z" id="p247w212" />
<path d="M68.91 907.25l22.05 0l0 12.23l-22.05 0Z" id="p247w213" />
<path d="M93.59 907.25l16.43 0l0 12.23l-16.43 0Z" id="p247w214" />
<path d="M112.64 907.25l16.66 0l0 12.23l-16.66 0Z" id="p247w215" />
<path d="M131.93 907.25l20.72 0l0 12.23l-20.72 0Z" id="p247w216" />
<path d="M155.27 907.22l27.91 0l0 12.23l-27.91 0Z" id="p247w217" />
<path d="M188.96 906.15l48.78 0l0 13.77l-48.78 0Z" id="p247w218" />
<path d="M68.92 922.53l17.33 0l0 12.23l-17.33 0Z" id="p247w219" />
<path d="M88.95 922.53l11.25 0l0 12.23l-11.25 0Z" id="p247w220" />
<path d="M102.9 922.53l23.64 0l0 12.23l-23.64 0Z" id="p247w221" />
<path d="M129.25 922.53l35.9 0l0 12.23l-35.9 0Z" id="p247w222" />
<path d="M167.85 922.53l24.04 0l0 12.23l-24.04 0Z" id="p247w223" />
<path d="M194.59 922.28l14.63 0l0 12.56l-14.63 0Z" id="p247w224" />
<path d="M260.6 112.51l11.94 0l0 12.23l-11.94 0Z" id="p247w225" />
<path d="M275.23 112.45l28.71 0l0 12.29l-28.71 0Z" id="p247w226" />
<path d="M309.8 111.41l32.19 0l0 13.77l-32.19 0Z" id="p247w227" />
<path d="M347.85 112.51l14.41 0l0 12.23l-14.41 0Z" id="p247w228" />
<path d="M364.66 112.51l29.88 0l0 12.23l-29.88 0Z" id="p247w229" />
<path d="M397.23 112.26l19.58 0l0 12.56l-19.58 0Z" id="p247w230" />
<path d="M260.6 127.79l11.94 0l0 12.23l-11.94 0Z" id="p247w231" />
<path d="M275.23 127.74l21.62 0l0 12.29l-21.62 0Z" id="p247w232" />
<path d="M302.71 126.69l19.12 0l0 13.77l-19.12 0Z" id="p247w233" />
<path d="M327.69 127.79l14.41 0l0 12.23l-14.41 0Z" id="p247w234" />
<path d="M344.79 127.79l13.73 0l0 12.23l-13.73 0Z" id="p247w235" />
<path d="M361.22 127.55l15.34 0l0 12.56l-15.34 0Z" id="p247w236" />
<path d="M260.6 143.02l19.44 0l0 12.29l-19.44 0Z" id="p247w237" />
<path d="M282.74 143.08l12.16 0l0 12.23l-12.16 0Z" id="p247w238" />
<path d="M300.75 141.97l14.57 0l0 13.77l-14.57 0Z" id="p247w239" />
<path d="M321.18 143.08l16.9 0l0 12.23l-16.9 0Z" id="p247w240" />
<path d="M340.78 143.08l25.21 0l0 12.23l-25.21 0Z" id="p247w241" />
<path d="M368.69 142.83l18.92 0l0 12.56l-18.92 0Z" id="p247w242" />
<path d="M260.6 158.36l11.94 0l0 12.23l-11.94 0Z" id="p247w243" />
<path d="M275.23 158.3l30.51 0l0 12.29l-30.51 0Z" id="p247w244" />
<path d="M311.6 157.26l27.39 0l0 13.77l-27.39 0Z" id="p247w245" />
<path d="M344.85 158.36l14.41 0l0 12.23l-14.41 0Z" id="p247w246" />
<path d="M361.66 158.36l30.93 0l0 12.23l-30.93 0Z" id="p247w247" />
<path d="M395.29 158.11l18.17 0l0 12.56l-18.17 0Z" id="p247w248" />
<path d="M260.6 173.64l11.94 0l0 12.23l-11.94 0Z" id="p247w249" />
<path d="M275.23 173.59l29.36 0l0 12.29l-29.36 0Z" id="p247w250" />
<path d="M304.59 173.64l21.73 0l0 12.23l-21.73 0Z" id="p247w251" />
<path d="M329.02 173.59l30.81 0l0 12.29l-30.81 0Z" id="p247w252" />
<path d="M365.69 172.54l71.06 0l0 13.77l-71.06 0Z" id="p247w253" />
<path d="M270.44 188.93l14.41 0l0 12.23l-14.41 0Z" id="p247w254" />
<path d="M287.55 188.93l65.16 0l0 12.23l-65.16 0Z" id="p247w255" />
<path d="M355.41 188.93l49.74 0l0 12.23l-49.74 0Z" id="p247w256" />
<path d="M407.85 188.68l18.72 0l0 12.56l-18.72 0Z" id="p247w257" />
<path d="M260.6 204.21l11.94 0l0 12.23l-11.94 0Z" id="p247w258" />
<path d="M275.23 204.15l19.71 0l0 12.29l-19.71 0Z" id="p247w259" />
<path d="M309.35 204.19l11.93 0l0 12.23l-11.93 0Z" id="p247w260" />
<path d="M323.97 204.19l36.9 0l0 12.23l-36.9 0Z" id="p247w261" />
<path d="M366.73 203.11l22.75 0l0 13.77l-22.75 0Z" id="p247w262" />
<path d="M392.27 203.11l46.67 0l0 13.77l-46.67 0Z" id="p247w263" />
<path d="M270.44 219.49l14.41 0l0 12.23l-14.41 0Z" id="p247w264" />
<path d="M287.25 219.49l34.98 0l0 12.23l-34.98 0Z" id="p247w265" />
<path d="M324.93 219.25l18.72 0l0 12.56l-18.72 0Z" id="p247w266" />
<path d="M260.6 234.72l35.54 0l0 12.29l-35.54 0Z" id="p247w267" />
<path d="M298.83 234.78l11.7 0l0 12.23l-11.7 0Z" id="p247w268" />
<path d="M313.24 234.78l27.37 0l0 12.23l-27.37 0Z" id="p247w269" />
<path d="M346.46 233.68l20.93 0l0 13.77l-20.93 0Z" id="p247w270" />
<path d="M373.25 234.78l33.32 0l0 12.23l-33.32 0Z" id="p247w271" />
<path d="M409.27 234.78l13.28 0l0 12.23l-13.28 0Z" id="p247w272" />
<path d="M270.44 250.06l40.5 0l0 12.23l-40.5 0Z" id="p247w273" />
<path d="M313.65 249.81l18.01 0l0 12.56l-18.01 0Z" id="p247w274" />
<path d="M260.59 303.55l8.33 0l0 12.23l-8.33 0Z" id="p247w275" />
<path d="M271.62 303.5l17.67 0l0 12.29l-17.67 0Z" id="p247w276" />
<path d="M295.15 302.45l19.55 0l0 13.77l-19.55 0Z" id="p247w277" />
<path d="M320.56 303.55l14.41 0l0 12.23l-14.41 0Z" id="p247w278" />
<path d="M337.37 303.55l42.53 0l0 12.23l-42.53 0Z" id="p247w279" />
<path d="M382.6 303.31l18.92 0l0 12.56l-18.92 0Z" id="p247w280" />
<path d="M260.59 318.83l11.94 0l0 12.23l-11.94 0Z" id="p247w281" />
<path d="M275.23 318.78l43.19 0l0 12.29l-43.19 0Z" id="p247w282" />
<path d="M324.28 317.73l48.6 0l0 13.77l-48.6 0Z" id="p247w283" />
<path d="M378.74 318.83l20.03 0l0 12.23l-20.03 0Z" id="p247w284" />
<path d="M401.47 318.83l38.27 0l0 12.23l-38.27 0Z" id="p247w285" />
<path d="M270.44 333.87l18.92 0l0 12.56l-18.92 0Z" id="p247w286" />
<path d="M260.59 349.35l32.51 0l0 12.29l-32.51 0Z" id="p247w287" />
<path d="M298.96 348.3l20.13 0l0 13.77l-20.13 0Z" id="p247w288" />
<path d="M324.95 349.4l57.29 0l0 12.23l-57.29 0Z" id="p247w289" />
<path d="M384.94 349.16l18.92 0l0 12.56l-18.92 0Z" id="p247w290" />
<path d="M260.59 364.68l17.56 0l0 12.23l-17.56 0Z" id="p247w291" />
<path d="M280.86 364.63l46.65 0l0 12.29l-46.65 0Z" id="p247w292" />
<path d="M333.37 363.58l55.49 0l0 13.77l-55.49 0Z" id="p247w293" />
<path d="M394.71 364.68l20.03 0l0 12.23l-20.03 0Z" id="p247w294" />
<path d="M270.44 379.97l51.09 0l0 12.23l-51.09 0Z" id="p247w295" />
<path d="M324.23 379.72l18.92 0l0 12.56l-18.92 0Z" id="p247w296" />
<path d="M260.59 395.25l17.56 0l0 12.23l-17.56 0Z" id="p247w297" />
<path d="M280.86 395.2l37.61 0l0 12.29l-37.61 0Z" id="p247w298" />
<path d="M324.33 394.15l36.5 0l0 13.77l-36.5 0Z" id="p247w299" />
<path d="M366.69 395.25l14.41 0l0 12.23l-14.41 0Z" id="p247w300" />
<path d="M383.8 395.25l31.51 0l0 12.23l-31.51 0Z" id="p247w301" />
<path d="M270.44 410.29l18.92 0l0 12.56l-18.92 0Z" id="p247w302" />
<path d="M260.59 425.76l21.16 0l0 12.29l-21.16 0Z" id="p247w303" />
<path d="M287.62 424.72l14.72 0l0 13.77l-14.72 0Z" id="p247w304" />
<path d="M308.19 425.82l37.16 0l0 12.23l-37.16 0Z" id="p247w305" />
<path d="M348.05 425.57l17.81 0l0 12.56l-17.81 0Z" id="p247w306" />
<path d="M260.59 441.1l11.94 0l0 12.23l-11.94 0Z" id="p247w307" />
<path d="M275.23 441.05l48.26 0l0 12.29l-48.26 0Z" id="p247w308" />
<path d="M323.5 441.1l21.73 0l0 12.23l-21.73 0Z" id="p247w309" />
<path d="M347.93 441.05l49.72 0l0 12.29l-49.72 0Z" id="p247w310" />
<path d="M273.6 455.28l115.04 0l0 13.77l-115.04 0Z" id="p247w311" />
<path d="M394.5 456.39l14.41 0l0 12.23l-14.41 0Z" id="p247w312" />
<path d="M270.44 471.67l72.36 0l0 12.23l-72.36 0Z" id="p247w313" />
<path d="M345.5 471.67l59.39 0l0 12.23l-59.39 0Z" id="p247w314" />
<path d="M407.59 471.67l14.41 0l0 12.23l-14.41 0Z" id="p247w315" />
<path d="M270.44 486.95l66.75 0l0 12.23l-66.75 0Z" id="p247w316" />
<path d="M339.89 486.95l53.78 0l0 12.23l-53.78 0Z" id="p247w317" />
<path d="M396.37 486.95l14.41 0l0 12.23l-14.41 0Z" id="p247w318" />
<path d="M270.44 502.24l55.49 0l0 12.23l-55.49 0Z" id="p247w319" />
<path d="M328.63 502.24l40.07 0l0 12.23l-40.07 0Z" id="p247w320" />
<path d="M371.4 501.99l18.92 0l0 12.56l-18.92 0Z" id="p247w321" />
<path d="M260.59 517.46l32.71 0l0 12.29l-32.71 0Z" id="p247w322" />
<path d="M296.01 517.52l11.04 0l0 12.23l-11.04 0Z" id="p247w323" />
<path d="M312.9 516.42l27.81 0l0 13.77l-27.81 0Z" id="p247w324" />
<path d="M346.57 517.52l19.44 0l0 12.23l-19.44 0Z" id="p247w325" />
<path d="M368.71 517.52l46.57 0l0 12.23l-46.57 0Z" id="p247w326" />
<path d="M417.99 517.52l19.44 0l0 12.23l-19.44 0Z" id="p247w327" />
<path d="M270.44 532.8l52.44 0l0 12.23l-52.44 0Z" id="p247w328" />
<path d="M325.58 532.56l14.43 0l0 12.56l-14.43 0Z" id="p247w329" />
<path d="M260.59 586.29l13.05 0l0 12.23l-13.05 0Z" id="p247w330" />
<path d="M276.35 586.24l42.08 0l0 12.29l-42.08 0Z" id="p247w331" />
<path d="M334.41 586.27l14.18 0l0 12.23l-14.18 0Z" id="p247w332" />
<path d="M354.45 585.19l33.69 0l0 13.77l-33.69 0Z" id="p247w333" />
<path d="M394 586.29l15.53 0l0 12.23l-15.53 0Z" id="p247w334" />
<path d="M270.44 601.58l33.51 0l0 12.23l-33.51 0Z" id="p247w335" />
<path d="M306.66 601.58l14.41 0l0 12.23l-14.41 0Z" id="p247w336" />
<path d="M323.76 601.58l29.03 0l0 12.23l-29.03 0Z" id="p247w337" />
<path d="M355.5 601.33l14.63 0l0 12.56l-14.63 0Z" id="p247w338" />
<path d="M260.59 616.81l23.02 0l0 12.29l-23.02 0Z" id="p247w339" />
<path d="M287.78 616.81l28.64 0l0 12.29l-28.64 0Z" id="p247w340" />
<path d="M322.28 615.76l49.67 0l0 13.77l-49.67 0Z" id="p247w341" />
<path d="M270.44 632.14l92.43 0l0 12.23l-92.43 0Z" id="p247w342" />
<path d="M365.58 632.14l71.82 0l0 12.23l-71.82 0Z" id="p247w343" />
<path d="M270.44 647.18l18.72 0l0 12.56l-18.72 0Z" id="p247w344" />
<path d="M260.59 662.71l8.33 0l0 12.23l-8.33 0Z" id="p247w345" />
<path d="M271.62 662.66l19.33 0l0 12.29l-19.33 0Z" id="p247w346" />
<path d="M296.81 661.61l26.98 0l0 13.77l-26.98 0Z" id="p247w347" />
<path d="M329.64 662.71l16.43 0l0 12.23l-16.43 0Z" id="p247w348" />
<path d="M348.77 662.71l38.46 0l0 12.23l-38.46 0Z" id="p247w349" />
<path d="M389.93 662.71l16.43 0l0 12.23l-16.43 0Z" id="p247w350" />
<path d="M270.44 677.99l66.85 0l0 12.23l-66.85 0Z" id="p247w351" />
<path d="M339.99 677.75l14.63 0l0 12.56l-14.63 0Z" id="p247w352" />
<path d="M260.59 693.28l11.94 0l0 12.23l-11.94 0Z" id="p247w353" />
<path d="M275.23 693.22l38.3 0l0 12.29l-38.3 0Z" id="p247w354" />
<path d="M313.54 693.28l21.73 0l0 12.23l-21.73 0Z" id="p247w355" />
<path d="M337.97 693.22l44.86 0l0 12.29l-44.86 0Z" id="p247w356" />
<path d="M388.69 692.18l39.21 0l0 13.77l-39.21 0Z" id="p247w357" />
<path d="M270.44 707.46l39.19 0l0 13.77l-39.19 0Z" id="p247w358" />
<path d="M315.49 708.56l14.41 0l0 12.23l-14.41 0Z" id="p247w359" />
<path d="M332.23 708.56l68.99 0l0 12.23l-68.99 0Z" id="p247w360" />
<path d="M270.44 723.84l53.58 0l0 12.23l-53.58 0Z" id="p247w361" />
<path d="M326.72 723.6l15.54 0l0 12.56l-15.54 0Z" id="p247w362" />
<path d="M260.59 739.07l23.46 0l0 12.29l-23.46 0Z" id="p247w363" />
<path d="M289.92 738.03l24.93 0l0 13.77l-24.93 0Z" id="p247w364" />
<path d="M320.71 739.13l41.19 0l0 12.23l-41.19 0Z" id="p247w365" />
<path d="M364.6 738.88l15.34 0l0 12.56l-15.34 0Z" id="p247w366" />
<path d="M270.44 754.41l23.41 0l0 12.23l-23.41 0Z" id="p247w367" />
<path d="M296.55 754.41l40.97 0l0 12.23l-40.97 0Z" id="p247w368" />
<path d="M340.22 754.41l12.16 0l0 12.23l-12.16 0Z" id="p247w369" />
<path d="M358.24 753.31l47.44 0l0 13.77l-47.44 0Z" id="p247w370" />
<path d="M411.54 754.41l16.9 0l0 12.23l-16.9 0Z" id="p247w371" />
<path d="M270.44 769.7l38.05 0l0 12.23l-38.05 0Z" id="p247w372" />
<path d="M311.19 769.7l48.4 0l0 12.23l-48.4 0Z" id="p247w373" />
<path d="M362.29 769.45l18.92 0l0 12.56l-18.92 0Z" id="p247w374" />
<path d="M270.44 784.98l23.41 0l0 12.23l-23.41 0Z" id="p247w375" />
<path d="M296.55 784.98l11.7 0l0 12.23l-11.7 0Z" id="p247w376" />
<path d="M310.96 784.98l21.37 0l0 12.23l-21.37 0Z" id="p247w377" />
<path d="M335.03 784.98l11.04 0l0 12.23l-11.04 0Z" id="p247w378" />
<path d="M351.93 783.88l49.5 0l0 13.77l-49.5 0Z" id="p247w379" />
<path d="M407.28 784.98l32.58 0l0 12.23l-32.58 0Z" id="p247w380" />
<path d="M270.44 800.26l19.44 0l0 12.23l-19.44 0Z" id="p247w381" />
<path d="M292.58 800.26l27.18 0l0 12.23l-27.18 0Z" id="p247w382" />
<path d="M322.46 800.26l29.49 0l0 12.23l-29.49 0Z" id="p247w383" />
<path d="M354.65 800.02l18.92 0l0 12.56l-18.92 0Z" id="p247w384" />
<path d="M260.59 815.55l8.33 0l0 12.23l-8.33 0Z" id="p247w385" />
<path d="M271.62 815.49l20.7 0l0 12.29l-20.7 0Z" id="p247w386" />
<path d="M298.18 814.44l19.2 0l0 13.77l-19.2 0Z" id="p247w387" />
<path d="M323.23 815.55l15.53 0l0 12.23l-15.53 0Z" id="p247w388" />
<path d="M341.23 815.55l24.09 0l0 12.23l-24.09 0Z" id="p247w389" />
<path d="M368.02 815.3l15.54 0l0 12.56l-15.54 0Z" id="p247w390" />
<path d="M260.59 830.83l8.33 0l0 12.23l-8.33 0Z" id="p247w391" />
<path d="M271.62 830.77l30.14 0l0 12.29l-30.14 0Z" id="p247w392" />
<path d="M307.62 829.73l28.11 0l0 13.77l-28.11 0Z" id="p247w393" />
<path d="M341.59 830.83l15.53 0l0 12.23l-15.53 0Z" id="p247w394" />
<path d="M359.82 830.83l29.28 0l0 12.23l-29.28 0Z" id="p247w395" />
<path d="M391.8 830.58l18.92 0l0 12.56l-18.92 0Z" id="p247w396" />
<path d="M260.59 846.06l24.01 0l0 12.29l-24.01 0Z" id="p247w397" />
<path d="M284.6 846.06l9.53 0l0 12.29l-9.53 0Z" id="p247w398" />
<path d="M296.83 846.11l11.04 0l0 12.23l-11.04 0Z" id="p247w399" />
<path d="M313.73 845.01l30.63 0l0 13.77l-30.63 0Z" id="p247w400" />
<path d="M350.22 846.11l19.44 0l0 12.23l-19.44 0Z" id="p247w401" />
<path d="M372.36 846.11l62.1 0l0 12.23l-62.1 0Z" id="p247w402" />
<path d="M270.44 861.4l19.44 0l0 12.23l-19.44 0Z" id="p247w403" />
<path d="M292.58 861.4l52.45 0l0 12.23l-52.45 0Z" id="p247w404" />
<path d="M347.74 861.15l18.92 0l0 12.56l-18.92 0Z" id="p247w405" />
<path d="M260.59 876.62l19.41 0l0 12.29l-19.41 0Z" id="p247w406" />
<path d="M282.7 876.68l27.37 0l0 12.23l-27.37 0Z" id="p247w407" />
<path d="M315.93 875.58l15.24 0l0 13.77l-15.24 0Z" id="p247w408" />
<path d="M337.02 876.68l15.08 0l0 12.23l-15.08 0Z" id="p247w409" />
<path d="M354.81 876.68l40.5 0l0 12.23l-40.5 0Z" id="p247w410" />
<path d="M398.01 876.68l13.26 0l0 12.23l-13.26 0Z" id="p247w411" />
<path d="M413.97 876.68l10.82 0l0 12.23l-10.82 0Z" id="p247w412" />
<path d="M270.44 891.96l43.65 0l0 12.23l-43.65 0Z" id="p247w413" />
<path d="M316.79 891.96l14.86 0l0 12.23l-14.86 0Z" id="p247w414" />
<path d="M334.35 891.72l15.54 0l0 12.56l-15.54 0Z" id="p247w415" />
<path d="M260.59 907.25l17.56 0l0 12.23l-17.56 0Z" id="p247w416" />
<path d="M280.86 907.19l34.15 0l0 12.29l-34.15 0Z" id="p247w417" />
<path d="M320.86 906.15l38.37 0l0 13.77l-38.37 0Z" id="p247w418" />
<path d="M365.09 907.25l20.03 0l0 12.23l-20.03 0Z" id="p247w419" />
<path d="M387.82 907.25l38.21 0l0 12.23l-38.21 0Z" id="p247w420" />
<path d="M270.44 922.28l18.92 0l0 12.56l-18.92 0Z" id="p247w421" />
<path d="M462.11 112.45l18.52 0l0 12.29l-18.52 0Z" id="p247w422" />
<path d="M484.8 112.45l24.14 0l0 12.29l-24.14 0Z" id="p247w423" />
<path d="M514.8 111.41l36.71 0l0 13.77l-36.71 0Z" id="p247w424" />
<path d="M557.37 112.51l21.79 0l0 12.23l-21.79 0Z" id="p247w425" />
<path d="M581.86 112.26l15.34 0l0 12.56l-15.34 0Z" id="p247w426" />
<path d="M462.11 127.79l11.94 0l0 12.23l-11.94 0Z" id="p247w427" />
<path d="M476.75 127.74l40.16 0l0 12.29l-40.16 0Z" id="p247w428" />
<path d="M522.77 126.69l34.82 0l0 13.77l-34.82 0Z" id="p247w429" />
<path d="M471.96 143.08l20.03 0l0 12.23l-20.03 0Z" id="p247w430" />
<path d="M494.69 143.08l75.41 0l0 12.23l-75.41 0Z" id="p247w431" />
<path d="M572.8 142.83l15.54 0l0 12.56l-15.54 0Z" id="p247w432" />
<path d="M462.11 158.36l11.94 0l0 12.23l-11.94 0Z" id="p247w433" />
<path d="M476.75 158.3l45.15 0l0 12.29l-45.15 0Z" id="p247w434" />
<path d="M527.76 157.26l33.3 0l0 13.77l-33.3 0Z" id="p247w435" />
<path d="M566.92 158.36l14.41 0l0 12.23l-14.41 0Z" id="p247w436" />
<path d="M471.96 173.64l70.41 0l0 12.23l-70.41 0Z" id="p247w437" />
<path d="M545.08 173.4l14.43 0l0 12.56l-14.43 0Z" id="p247w438" />
<path d="M462.11 188.93l8.33 0l0 12.23l-8.33 0Z" id="p247w439" />
<path d="M473.14 188.87l31.26 0l0 12.29l-31.26 0Z" id="p247w440" />
<path d="M510.25 187.82l27.58 0l0 13.77l-27.58 0Z" id="p247w441" />
<path d="M543.69 188.93l16.43 0l0 12.23l-16.43 0Z" id="p247w442" />
<path d="M562.82 188.93l31.97 0l0 12.23l-31.97 0Z" id="p247w443" />
<path d="M597.49 188.68l14.63 0l0 12.56l-14.63 0Z" id="p247w444" />
<path d="M462.11 204.21l17.56 0l0 12.23l-17.56 0Z" id="p247w445" />
<path d="M482.38 204.15l34.11 0l0 12.29l-34.11 0Z" id="p247w446" />
<path d="M522.35 203.11l40.58 0l0 13.77l-40.58 0Z" id="p247w447" />
<path d="M568.79 204.21l14.41 0l0 12.23l-14.41 0Z" id="p247w448" />
<path d="M585.89 204.21l26.33 0l0 12.23l-26.33 0Z" id="p247w449" />
<path d="M614.93 203.96l18.01 0l0 12.56l-18.01 0Z" id="p247w450" />
<path d="M462.11 219.49l17.56 0l0 12.23l-17.56 0Z" id="p247w451" />
<path d="M482.38 219.44l25.39 0l0 12.29l-25.39 0Z" id="p247w452" />
<path d="M513.62 218.39l36.26 0l0 13.77l-36.26 0Z" id="p247w453" />
<path d="M555.74 219.49l14.41 0l0 12.23l-14.41 0Z" id="p247w454" />
<path d="M572.48 219.49l26.34 0l0 12.23l-26.34 0Z" id="p247w455" />
<path d="M601.52 219.25l14.63 0l0 12.56l-14.63 0Z" id="p247w456" />
<path d="M462.11 234.78l11.94 0l0 12.23l-11.94 0Z" id="p247w457" />
<path d="M476.75 234.72l52.64 0l0 12.29l-52.64 0Z" id="p247w458" />
<path d="M529.39 234.78l21.73 0l0 12.23l-21.73 0Z" id="p247w459" />
<path d="M553.83 234.72l52.64 0l0 12.29l-52.64 0Z" id="p247w460" />
<path d="M612.32 233.68l7.46 0l0 13.77l-7.46 0Z" id="p247w461" />
<path d="M471.96 248.96l51.99 0l0 13.77l-51.99 0Z" id="p247w462" />
<path d="M529.81 250.06l14.41 0l0 12.23l-14.41 0Z" id="p247w463" />
<path d="M546.54 250.06l81.82 0l0 12.23l-81.82 0Z" id="p247w464" />
<path d="M471.96 265.34l66.4 0l0 12.23l-66.4 0Z" id="p247w465" />
<path d="M541.06 265.1l18.01 0l0 12.56l-18.01 0Z" id="p247w466" />
<path d="M462.11 280.57l23.44 0l0 12.29l-23.44 0Z" id="p247w467" />
<path d="M488.26 280.63l11.04 0l0 12.23l-11.04 0Z" id="p247w468" />
<path d="M505.15 279.53l19.19 0l0 13.77l-19.19 0Z" id="p247w469" />
<path d="M530.21 280.63l19.44 0l0 12.23l-19.44 0Z" id="p247w470" />
<path d="M552.35 280.63l54.66 0l0 12.23l-54.66 0Z" id="p247w471" />
<path d="M609.71 280.63l19.44 0l0 12.23l-19.44 0Z" id="p247w472" />
<path d="M471.96 295.91l29.48 0l0 12.23l-29.48 0Z" id="p247w473" />
<path d="M504.14 295.66l18.72 0l0 12.56l-18.72 0Z" id="p247w474" />
<path d="M462.11 311.19l8.33 0l0 12.23l-8.33 0Z" id="p247w475" />
<path d="M473.14 311.14l13.48 0l0 12.29l-13.48 0Z" id="p247w476" />
<path d="M492.48 310.09l16.06 0l0 13.77l-16.06 0Z" id="p247w477" />
<path d="M514.4 311.19l16.43 0l0 12.23l-16.43 0Z" id="p247w478" />
<path d="M533.53 311.19l28.59 0l0 12.23l-28.59 0Z" id="p247w479" />
<path d="M564.82 310.95l15.34 0l0 12.56l-15.34 0Z" id="p247w480" />
<path d="M471.96 326.48l8.33 0l0 12.23l-8.33 0Z" id="p247w481" />
<path d="M482.99 326.48l13.5 0l0 12.23l-13.5 0Z" id="p247w482" />
<path d="M499.19 326.48l11.7 0l0 12.23l-11.7 0Z" id="p247w483" />
<path d="M513.6 326.48l20.26 0l0 12.23l-20.26 0Z" id="p247w484" />
<path d="M536.56 326.48l13.05 0l0 12.23l-13.05 0Z" id="p247w485" />
<path d="M552.31 326.48l22.74 0l0 12.23l-22.74 0Z" id="p247w486" />
<path d="M475.12 340.66l60.64 0l0 13.77l-60.64 0Z" id="p247w487" />
<path d="M541.62 341.76l15.53 0l0 12.23l-15.53 0Z" id="p247w488" />
<path d="M559.85 341.76l27.4 0l0 12.23l-27.4 0Z" id="p247w489" />
<path d="M589.95 341.51l18.92 0l0 12.56l-18.92 0Z" id="p247w490" />
<path d="M462.11 356.99l24.71 0l0 12.29l-24.71 0Z" id="p247w491" />
<path d="M490.99 356.99l19.11 0l0 12.29l-19.11 0Z" id="p247w492" />
<path d="M514.27 356.99l27.54 0l0 12.29l-27.54 0Z" id="p247w493" />
<path d="M547.67 355.94l49.44 0l0 13.77l-49.44 0Z" id="p247w494" />
<path d="M602.96 357.04l12.15 0l0 12.23l-12.15 0Z" id="p247w495" />
<path d="M617.81 356.8l15.34 0l0 12.56l-15.34 0Z" id="p247w496" />
<path d="M462.11 372.33l11.94 0l0 12.23l-11.94 0Z" id="p247w497" />
<path d="M476.75 372.27l30.62 0l0 12.29l-30.62 0Z" id="p247w498" />
<path d="M513.23 371.23l25.56 0l0 13.77l-25.56 0Z" id="p247w499" />
<path d="M544.66 372.33l14.41 0l0 12.23l-14.41 0Z" id="p247w500" />
<path d="M561.76 372.33l20.26 0l0 12.23l-20.26 0Z" id="p247w501" />
<path d="M584.73 372.08l19.58 0l0 12.56l-19.58 0Z" id="p247w502" />
<path d="M462.11 387.61l17.56 0l0 12.23l-17.56 0Z" id="p247w503" />
<path d="M482.38 387.55l19.11 0l0 12.29l-19.11 0Z" id="p247w504" />
<path d="M507.34 386.51l22.33 0l0 13.77l-22.33 0Z" id="p247w505" />
<path d="M535.53 387.61l20.03 0l0 12.23l-20.03 0Z" id="p247w506" />
<path d="M558.26 387.61l25.21 0l0 12.23l-25.21 0Z" id="p247w507" />
<path d="M586.17 387.37l17.26 0l0 12.56l-17.26 0Z" id="p247w508" />
<path d="M462.11 402.89l8.33 0l0 12.23l-8.33 0Z" id="p247w509" />
<path d="M473.14 402.84l28.44 0l0 12.29l-28.44 0Z" id="p247w510" />
<path d="M507.44 401.79l29.33 0l0 13.77l-29.33 0Z" id="p247w511" />
<path d="M542.63 402.89l14.41 0l0 12.23l-14.41 0Z" id="p247w512" />
<path d="M559.74 402.89l29.4 0l0 12.23l-29.4 0Z" id="p247w513" />
<path d="M591.84 402.89l14.41 0l0 12.23l-14.41 0Z" id="p247w514" />
<path d="M608.58 402.89l31.75 0l0 12.23l-31.75 0Z" id="p247w515" />
<path d="M471.96 417.93l14.63 0l0 12.56l-14.63 0Z" id="p247w516" />
<path d="M462.11 433.46l17.56 0l0 12.23l-17.56 0Z" id="p247w517" />
<path d="M482.38 433.4l25.08 0l0 12.29l-25.08 0Z" id="p247w518" />
<path d="M513.31 432.36l30.9 0l0 13.77l-30.9 0Z" id="p247w519" />
<path d="M550.07 433.46l14.41 0l0 12.23l-14.41 0Z" id="p247w520" />
<path d="M567.18 433.46l36.45 0l0 12.23l-36.45 0Z" id="p247w521" />
<path d="M606.32 433.46l20.03 0l0 12.23l-20.03 0Z" id="p247w522" />
<path d="M471.96 448.74l61.36 0l0 12.23l-61.36 0Z" id="p247w523" />
<path d="M536.02 448.5l17.26 0l0 12.56l-17.26 0Z" id="p247w524" />
<path d="M471.96 464.03l17.56 0l0 12.23l-17.56 0Z" id="p247w525" />
<path d="M492.22 464.03l24.75 0l0 12.23l-24.75 0Z" id="p247w526" />
<path d="M519.68 464.03l31.91 0l0 12.23l-31.91 0Z" id="p247w527" />
<path d="M557.45 462.93l50.71 0l0 13.77l-50.71 0Z" id="p247w528" />
<path d="M614.01 464.03l20.03 0l0 12.23l-20.03 0Z" id="p247w529" />
<path d="M471.96 479.31l38.9 0l0 12.23l-38.9 0Z" id="p247w530" />
<path d="M513.57 479.07l17.26 0l0 12.56l-17.26 0Z" id="p247w531" />
<path d="M471.96 494.59l31.06 0l0 12.23l-31.06 0Z" id="p247w532" />
<path d="M505.72 494.59l24.75 0l0 12.23l-24.75 0Z" id="p247w533" />
<path d="M541.5 494.59l12.16 0l0 12.23l-12.16 0Z" id="p247w534" />
<path d="M559.52 493.49l47.52 0l0 13.77l-47.52 0Z" id="p247w535" />
<path d="M612.89 494.59l16.9 0l0 12.23l-16.9 0Z" id="p247w536" />
<path d="M471.96 509.88l45.03 0l0 12.23l-45.03 0Z" id="p247w537" />
<path d="M519.69 509.63l14.63 0l0 12.56l-14.63 0Z" id="p247w538" />
<path d="M462.11 525.1l28.98 0l0 12.29l-28.98 0Z" id="p247w539" />
<path d="M493.79 525.16l11.04 0l0 12.23l-11.04 0Z" id="p247w540" />
<path d="M510.69 524.06l24.67 0l0 13.77l-24.67 0Z" id="p247w541" />
<path d="M541.22 525.16l19.44 0l0 12.23l-19.44 0Z" id="p247w542" />
<path d="M563.36 525.16l54.42 0l0 12.23l-54.42 0Z" id="p247w543" />
<path d="M471.96 540.2l15.54 0l0 12.56l-15.54 0Z" id="p247w544" />
<path d="M462.11 555.73l11.94 0l0 12.23l-11.94 0Z" id="p247w545" />
<path d="M476.75 555.67l34.95 0l0 12.29l-34.95 0Z" id="p247w546" />
<path d="M511.7 555.73l21.73 0l0 12.23l-21.73 0Z" id="p247w547" />
<path d="M536.13 555.67l41.5 0l0 12.29l-41.5 0Z" id="p247w548" />
<path d="M583.49 554.63l41.89 0l0 13.77l-41.89 0Z" id="p247w549" />
<path d="M471.96 569.91l41.54 0l0 13.77l-41.54 0Z" id="p247w550" />
<path d="M519.36 571.01l14.41 0l0 12.23l-14.41 0Z" id="p247w551" />
<path d="M536.46 571.01l67.65 0l0 12.23l-67.65 0Z" id="p247w552" />
<path d="M471.96 586.29l52.23 0l0 12.23l-52.23 0Z" id="p247w553" />
<path d="M526.89 586.05l18.92 0l0 12.56l-18.92 0Z" id="p247w554" />
<path d="M462.11 601.52l17.43 0l0 12.29l-17.43 0Z" id="p247w555" />
<path d="M482.24 601.56l25.24 0l0 12.23l-25.24 0Z" id="p247w556" />
<path d="M513.34 600.48l11.57 0l0 13.77l-11.57 0Z" id="p247w557" />
<path d="M530.77 601.58l32.87 0l0 12.23l-32.87 0Z" id="p247w558" />
<path d="M566.34 601.56l25.88 0l0 12.23l-25.88 0Z" id="p247w559" />
<path d="M594.92 601.33l15.54 0l0 12.56l-15.54 0Z" id="p247w560" />
<path d="M462.11 616.81l28.57 0l0 12.29l-28.57 0Z" id="p247w561" />
<path d="M494.85 616.81l34.19 0l0 12.29l-34.19 0Z" id="p247w562" />
<path d="M534.9 615.76l44.29 0l0 13.77l-44.29 0Z" id="p247w563" />
<path d="M585.05 616.86l40.92 0l0 12.23l-40.92 0Z" id="p247w564" />
<path d="M471.96 631.9l18.92 0l0 12.56l-18.92 0Z" id="p247w565" />
<path d="M462.11 647.37l22.35 0l0 12.29l-22.35 0Z" id="p247w566" />
<path d="M490.32 646.33l18.5 0l0 13.77l-18.5 0Z" id="p247w567" />
<path d="M514.68 647.43l26.11 0l0 12.23l-26.11 0Z" id="p247w568" />
<path d="M543.49 647.18l18.92 0l0 12.56l-18.92 0Z" id="p247w569" />
<path d="M462.11 662.66l22.15 0l0 12.29l-22.15 0Z" id="p247w570" />
<path d="M490.12 661.61l25.92 0l0 13.77l-25.92 0Z" id="p247w571" />
<path d="M521.9 662.71l11.7 0l0 12.23l-11.7 0Z" id="p247w572" />
<path d="M536.31 662.71l13.69 0l0 12.23l-13.69 0Z" id="p247w573" />
<path d="M552.7 662.71l11.7 0l0 12.23l-11.7 0Z" id="p247w574" />
<path d="M567.11 662.71l19.58 0l0 12.23l-19.58 0Z" id="p247w575" />
<path d="M589.39 662.47l14.79 0l0 12.56l-14.79 0Z" id="p247w576" />
<path d="M462.11 677.94l17.61 0l0 12.29l-17.61 0Z" id="p247w577" />
<path d="M482.42 677.99l27.37 0l0 12.23l-27.37 0Z" id="p247w578" />
<path d="M515.64 676.89l23.14 0l0 13.77l-23.14 0Z" id="p247w579" />
<path d="M544.64 677.99l40.5 0l0 12.23l-40.5 0Z" id="p247w580" />
<path d="M587.85 677.99l28.13 0l0 12.23l-28.13 0Z" id="p247w581" />
<path d="M471.96 693.03l15.54 0l0 12.56l-15.54 0Z" id="p247w582" />
<path d="M462.11 708.56l11.94 0l0 12.23l-11.94 0Z" id="p247w583" />
<path d="M476.75 708.51l27.43 0l0 12.29l-27.43 0Z" id="p247w584" />
<path d="M504.18 708.56l21.73 0l0 12.23l-21.73 0Z" id="p247w585" />
<path d="M528.62 708.51l33.06 0l0 12.29l-33.06 0Z" id="p247w586" />
<path d="M567.53 707.46l34.89 0l0 13.77l-34.89 0Z" id="p247w587" />
<path d="M471.96 722.74l43.24 0l0 13.77l-43.24 0Z" id="p247w588" />
<path d="M521.06 723.84l14.41 0l0 12.23l-14.41 0Z" id="p247w589" />
<path d="M538.16 723.84l63.59 0l0 12.23l-63.59 0Z" id="p247w590" />
<path d="M471.96 739.13l48.17 0l0 12.23l-48.17 0Z" id="p247w591" />
<path d="M522.84 738.88l14.63 0l0 12.56l-14.63 0Z" id="p247w592" />
<path d="M462.11 754.41l17.56 0l0 12.23l-17.56 0Z" id="p247w593" />
<path d="M482.38 754.36l33.07 0l0 12.29l-33.07 0Z" id="p247w594" />
<path d="M521.3 753.31l43.09 0l0 13.77l-43.09 0Z" id="p247w595" />
<path d="M570.25 754.41l14.41 0l0 12.23l-14.41 0Z" id="p247w596" />
<path d="M587.36 754.41l22.06 0l0 12.23l-22.06 0Z" id="p247w597" />
<path d="M612.12 754.17l15.54 0l0 12.56l-15.54 0Z" id="p247w598" />
<path d="M471.96 769.7l11.7 0l0 12.23l-11.7 0Z" id="p247w599" />
<path d="M486.37 769.7l32.87 0l0 12.23l-32.87 0Z" id="p247w600" />
<path d="M525.09 768.59l37.81 0l0 13.77l-37.81 0Z" id="p247w601" />
<path d="M568.76 769.7l15.75 0l0 12.23l-15.75 0Z" id="p247w602" />
<path d="M587.22 769.7l20.93 0l0 12.23l-20.93 0Z" id="p247w603" />
<path d="M610.85 769.7l22.06 0l0 12.23l-22.06 0Z" id="p247w604" />
<path d="M471.96 784.73l15.54 0l0 12.56l-15.54 0Z" id="p247w605" />
<path d="M462.11 800.26l8.33 0l0 12.23l-8.33 0Z" id="p247w606" />
<path d="M473.14 800.21l18.96 0l0 12.29l-18.96 0Z" id="p247w607" />
<path d="M497.96 799.16l25.7 0l0 13.77l-25.7 0Z" id="p247w608" />
<path d="M529.52 800.26l14.41 0l0 12.23l-14.41 0Z" id="p247w609" />
<path d="M546.62 800.26l36.46 0l0 12.23l-36.46 0Z" id="p247w610" />
<path d="M585.78 800.02l15.34 0l0 12.56l-15.34 0Z" id="p247w611" />
<path d="M462.11 815.55l11.94 0l0 12.23l-11.94 0Z" id="p247w612" />
<path d="M476.75 815.49l13.71 0l0 12.29l-13.71 0Z" id="p247w613" />
<path d="M496.32 814.44l18.06 0l0 13.77l-18.06 0Z" id="p247w614" />
<path d="M520.24 815.55l14.41 0l0 12.23l-14.41 0Z" id="p247w615" />
<path d="M537.34 815.55l46.78 0l0 12.23l-46.78 0Z" id="p247w616" />
<path d="M586.83 815.55l14.41 0l0 12.23l-14.41 0Z" id="p247w617" />
<path d="M603.93 815.55l23.86 0l0 12.23l-23.86 0Z" id="p247w618" />
<path d="M471.96 830.58l19.58 0l0 12.56l-19.58 0Z" id="p247w619" />
<path d="M462.11 846.11l11.94 0l0 12.23l-11.94 0Z" id="p247w620" />
<path d="M476.75 846.06l30.03 0l0 12.29l-30.03 0Z" id="p247w621" />
<path d="M512.64 845.01l29.6 0l0 13.77l-29.6 0Z" id="p247w622" />
<path d="M548.1 846.11l14.41 0l0 12.23l-14.41 0Z" id="p247w623" />
<path d="M564.84 846.11l31.38 0l0 12.23l-31.38 0Z" id="p247w624" />
<path d="M598.92 845.87l15.54 0l0 12.56l-15.54 0Z" id="p247w625" />
<path d="M462.11 861.34l23.23 0l0 12.29l-23.23 0Z" id="p247w626" />
<path d="M488.05 861.4l11.04 0l0 12.23l-11.04 0Z" id="p247w627" />
<path d="M510.11 861.4l12.16 0l0 12.23l-12.16 0Z" id="p247w628" />
<path d="M528.13 860.3l18.47 0l0 13.77l-18.47 0Z" id="p247w629" />
<path d="M552.46 861.4l20.04 0l0 12.23l-20.04 0Z" id="p247w630" />
<path d="M575.2 861.4l19.44 0l0 12.23l-19.44 0Z" id="p247w631" />
<path d="M597.34 861.4l34.66 0l0 12.23l-34.66 0Z" id="p247w632" />
<path d="M471.96 876.43l15.54 0l0 12.56l-15.54 0Z" id="p247w633" />
<path d="M462.11 891.96l11.94 0l0 12.23l-11.94 0Z" id="p247w634" />
<path d="M476.75 891.91l29.2 0l0 12.29l-29.2 0Z" id="p247w635" />
<path d="M505.95 891.96l21.73 0l0 12.23l-21.73 0Z" id="p247w636" />
<path d="M530.38 891.91l35.76 0l0 12.29l-35.76 0Z" id="p247w637" />
<path d="M572 890.86l35.58 0l0 13.77l-35.58 0Z" id="p247w638" />
<path d="M471.96 906.15l35.45 0l0 13.77l-35.45 0Z" id="p247w639" />
<path d="M513.27 907.25l14.41 0l0 12.23l-14.41 0Z" id="p247w640" />
<path d="M530.37 907.25l45.58 0l0 12.23l-45.58 0Z" id="p247w641" />
<path d="M578.66 907.25l30.17 0l0 12.23l-30.17 0Z" id="p247w642" />
<path d="M611.52 907l15.54 0l0 12.56l-15.54 0Z" id="p247w643" />
</svg>
