<?xml version="1.0" encoding="UTF-8"?>
<svg xmlns="http://www.w3.org/2000/svg" xmlns:xlink="http://www.w3.org/1999/xlink" version="1.1" baseProfile="full" width="768" height="1024" viewBox="0,0,768,1024" preserveAspectRatio="xMinYMin meet" >
<style type="text/css">
<![CDATA[
path {fill-opacity: 0.5;fill: #00aeef;visibility: hidden;}
]]>
</style>
<path d="M124.06 114.18l28.06 0l0 14.52l-28.06 0Z" id="p38w1" />
<path d="M155.33 114.18l42.24 0l0 14.52l-42.24 0Z" id="p38w2" />
<path d="M210.66 114.18l33.16 0l0 14.52l-33.16 0Z" id="p38w3" />
<path d="M247.03 114.18l17.9 0l0 14.52l-17.9 0Z" id="p38w4" />
<path d="M268.13 114.18l35 0l0 14.52l-35 0Z" id="p38w5" />
<path d="M306.34 114.18l19.52 0l0 14.52l-19.52 0Z" id="p38w6" />
<path d="M329.07 114.18l48.39 0l0 14.52l-48.39 0Z" id="p38w7" />
<path d="M380.67 114.18l14.18 0l0 14.52l-14.18 0Z" id="p38w8" />
<path d="M398.05 114.18l63.88 0l0 14.52l-63.88 0Z" id="p38w9" />
<path d="M634.33 114.18l14.44 0l0 14.52l-14.44 0Z" id="p38w10" />
<path d="M651.98 114.18l23.52 0l0 14.52l-23.52 0Z" id="p38w11" />
<path d="M124.06 130.85l57.21 0l0 14.52l-57.21 0Z" id="p38w12" />
<path d="M184.47 130.85l9.89 0l0 14.52l-9.89 0Z" id="p38w13" />
<path d="M197.57 130.85l35.29 0l0 14.52l-35.29 0Z" id="p38w14" />
<path d="M236.07 130.85l69.49 0l0 14.52l-69.49 0Z" id="p38w15" />
<path d="M124.06 157.64l28.28 0l0 12.29l-28.28 0Z" id="p38w16" />
<path d="M161.17 155.86l28.06 0l0 14.52l-28.06 0Z" id="p38w17" />
<path d="M192.44 155.86l30.74 0l0 14.52l-30.74 0Z" id="p38w18" />
<path d="M226.39 155.86l53.19 0l0 14.52l-53.19 0Z" id="p38w19" />
<path d="M282.79 155.86l39.55 0l0 14.52l-39.55 0Z" id="p38w20" />
<path d="M325.54 155.86l15.5 0l0 14.52l-15.5 0Z" id="p38w21" />
<path d="M344.24 155.86l35 0l0 14.52l-35 0Z" id="p38w22" />
<path d="M382.46 155.86l20.85 0l0 14.52l-20.85 0Z" id="p38w23" />
<path d="M406.52 155.86l11.5 0l0 14.52l-11.5 0Z" id="p38w24" />
<path d="M421.22 155.86l12.29 0l0 14.52l-12.29 0Z" id="p38w25" />
<path d="M436.72 155.86l18.7 0l0 14.52l-18.7 0Z" id="p38w26" />
<path d="M124.06 174.31l23.81 0l0 12.29l-23.81 0Z" id="p38w27" />
<path d="M156.7 172.53l15.6 0l0 14.52l-15.6 0Z" id="p38w28" />
<path d="M175.51 172.53l32.07 0l0 14.52l-32.07 0Z" id="p38w29" />
<path d="M210.79 172.53l24.06 0l0 14.52l-24.06 0Z" id="p38w30" />
<path d="M238.06 172.53l15.5 0l0 14.52l-15.5 0Z" id="p38w31" />
<path d="M256.77 172.53l45.71 0l0 14.52l-45.71 0Z" id="p38w32" />
<path d="M305.68 172.53l20.85 0l0 14.52l-20.85 0Z" id="p38w33" />
<path d="M329.74 172.53l14.8 0l0 14.52l-14.8 0Z" id="p38w34" />
<path d="M347.75 172.53l13.11 0l0 14.52l-13.11 0Z" id="p38w35" />
<path d="M124.06 190.98l28.28 0l0 12.29l-28.28 0Z" id="p38w36" />
<path d="M160.81 189.21l12.41 0l0 14.52l-12.41 0Z" id="p38w37" />
<path d="M176.43 189.21l38.77 0l0 14.52l-38.77 0Z" id="p38w38" />
<path d="M218.4 189.21l20.85 0l0 14.52l-20.85 0Z" id="p38w39" />
<path d="M242.46 189.21l9.89 0l0 14.52l-9.89 0Z" id="p38w40" />
<path d="M255.56 189.21l40.63 0l0 14.52l-40.63 0Z" id="p38w41" />
<path d="M299.39 189.21l13.9 0l0 14.52l-13.9 0Z" id="p38w42" />
<path d="M316.5 189.21l31.55 0l0 14.52l-31.55 0Z" id="p38w43" />
<path d="M351.25 189.21l39.57 0l0 14.52l-39.57 0Z" id="p38w44" />
<path d="M394.03 189.21l24.85 0l0 14.52l-24.85 0Z" id="p38w45" />
<path d="M422.09 189.21l12.57 0l0 14.52l-12.57 0Z" id="p38w46" />
<path d="M445.8 189.21l12.41 0l0 14.52l-12.41 0Z" id="p38w47" />
<path d="M461.41 189.21l17.46 0l0 14.52l-17.46 0Z" id="p38w48" />
<path d="M482.09 189.21l29.39 0l0 14.52l-29.39 0Z" id="p38w49" />
<path d="M143.75 205.88l25.67 0l0 14.52l-25.67 0Z" id="p38w50" />
<path d="M172.63 205.88l9.89 0l0 14.52l-9.89 0Z" id="p38w51" />
<path d="M185.72 205.88l50.5 0l0 14.52l-50.5 0Z" id="p38w52" />
<path d="M239.43 205.88l20.05 0l0 14.52l-20.05 0Z" id="p38w53" />
<path d="M124.06 224.33l23.81 0l0 12.29l-23.81 0Z" id="p38w54" />
<path d="M156.7 222.55l21.4 0l0 14.52l-21.4 0Z" id="p38w55" />
<path d="M181.3 222.55l24.85 0l0 14.52l-24.85 0Z" id="p38w56" />
<path d="M209.37 222.55l15.25 0l0 14.52l-15.25 0Z" id="p38w57" />
<path d="M227.82 222.55l26.19 0l0 14.52l-26.19 0Z" id="p38w58" />
<path d="M257.21 222.55l20.85 0l0 14.52l-20.85 0Z" id="p38w59" />
<path d="M281.28 222.55l23.79 0l0 14.52l-23.79 0Z" id="p38w60" />
<path d="M308.27 222.55l20.85 0l0 14.52l-20.85 0Z" id="p38w61" />
<path d="M332.33 222.55l14.8 0l0 14.52l-14.8 0Z" id="p38w62" />
<path d="M350.33 222.55l13.63 0l0 14.52l-13.63 0Z" id="p38w63" />
<path d="M384.58 222.55l35.29 0l0 14.52l-35.29 0Z" id="p38w64" />
<path d="M423.08 222.55l14.8 0l0 14.52l-14.8 0Z" id="p38w65" />
<path d="M441.08 222.55l10.16 0l0 14.52l-10.16 0Z" id="p38w66" />
<path d="M454.46 222.55l9.89 0l0 14.52l-9.89 0Z" id="p38w67" />
<path d="M467.55 222.55l67.83 0l0 14.52l-67.83 0Z" id="p38w68" />
<path d="M143.76 239.22l11.5 0l0 14.52l-11.5 0Z" id="p38w69" />
<path d="M158.46 239.22l33.67 0l0 14.52l-33.67 0Z" id="p38w70" />
<path d="M195.34 239.22l49.71 0l0 14.52l-49.71 0Z" id="p38w71" />
<path d="M248.26 239.22l34.15 0l0 14.52l-34.15 0Z" id="p38w72" />
<path d="M124.06 257.67l28.28 0l0 12.29l-28.28 0Z" id="p38w73" />
<path d="M161.17 255.9l40.89 0l0 14.52l-40.89 0Z" id="p38w74" />
<path d="M205.27 255.9l35.28 0l0 14.52l-35.28 0Z" id="p38w75" />
<path d="M243.76 255.9l33.05 0l0 14.52l-33.05 0Z" id="p38w76" />
<path d="M280.02 255.9l20.85 0l0 14.52l-20.85 0Z" id="p38w77" />
<path d="M304.08 255.9l11.5 0l0 14.52l-11.5 0Z" id="p38w78" />
<path d="M318.78 255.9l12.29 0l0 14.52l-12.29 0Z" id="p38w79" />
<path d="M334.28 255.9l92.74 0l0 14.52l-92.74 0Z" id="p38w80" />
<path d="M430.22 255.9l27.52 0l0 14.52l-27.52 0Z" id="p38w81" />
<path d="M124.06 274.35l23.81 0l0 12.29l-23.81 0Z" id="p38w82" />
<path d="M156.7 272.57l18.44 0l0 14.52l-18.44 0Z" id="p38w83" />
<path d="M178.35 272.57l40.1 0l0 14.52l-40.1 0Z" id="p38w84" />
<path d="M228.25 272.57l12.41 0l0 14.52l-12.41 0Z" id="p38w85" />
<path d="M243.87 272.57l25.67 0l0 14.52l-25.67 0Z" id="p38w86" />
<path d="M272.75 272.57l20.85 0l0 14.52l-20.85 0Z" id="p38w87" />
<path d="M296.81 272.57l15.5 0l0 14.52l-15.5 0Z" id="p38w88" />
<path d="M315.52 272.57l38.5 0l0 14.52l-38.5 0Z" id="p38w89" />
<path d="M357.23 272.57l20.85 0l0 14.52l-20.85 0Z" id="p38w90" />
<path d="M381.29 272.57l14.8 0l0 14.52l-14.8 0Z" id="p38w91" />
<path d="M399.29 272.57l20.58 0l0 14.52l-20.58 0Z" id="p38w92" />
<path d="M124.06 291.02l28.28 0l0 12.29l-28.28 0Z" id="p38w93" />
<path d="M161.17 289.24l21.4 0l0 14.52l-21.4 0Z" id="p38w94" />
<path d="M185.77 289.24l40.89 0l0 14.52l-40.89 0Z" id="p38w95" />
<path d="M124.06 333.07l17.01 0l0 18.84l-17.01 0Z" id="p38w96" />
<path d="M144.72 333.07l58.57 0l0 18.84l-58.57 0Z" id="p38w97" />
<path d="M206.95 333.07l18.36 0l0 18.84l-18.36 0Z" id="p38w98" />
<path d="M228.95 333.07l37.2 0l0 18.84l-37.2 0Z" id="p38w99" />
<path d="M143.75 364.27l31.9 0l0 14.52l-31.9 0Z" id="p38w100" />
<path d="M178.87 364.27l42.78 0l0 14.52l-42.78 0Z" id="p38w101" />
<path d="M231.27 364.27l24.06 0l0 14.52l-24.06 0Z" id="p38w102" />
<path d="M258.54 364.27l25.65 0l0 14.52l-25.65 0Z" id="p38w103" />
<path d="M287.39 364.27l9.89 0l0 14.52l-9.89 0Z" id="p38w104" />
<path d="M300.48 364.27l32.62 0l0 14.52l-32.62 0Z" id="p38w105" />
<path d="M336.31 364.27l13.9 0l0 14.52l-13.9 0Z" id="p38w106" />
<path d="M353.41 364.27l28.06 0l0 14.52l-28.06 0Z" id="p38w107" />
<path d="M384.68 364.27l25.67 0l0 14.52l-25.67 0Z" id="p38w108" />
<path d="M413.56 364.27l15.5 0l0 14.52l-15.5 0Z" id="p38w109" />
<path d="M432.27 364.27l48.39 0l0 14.52l-48.39 0Z" id="p38w110" />
<path d="M483.86 364.27l14.18 0l0 14.52l-14.18 0Z" id="p38w111" />
<path d="M501.25 364.27l61.21 0l0 14.52l-61.21 0Z" id="p38w112" />
<path d="M143.75 389.28l46.51 0l0 14.52l-46.51 0Z" id="p38w113" />
<path d="M193.48 389.28l42.78 0l0 14.52l-42.78 0Z" id="p38w114" />
<path d="M245.88 389.28l55.87 0l0 14.52l-55.87 0Z" id="p38w115" />
<path d="M304.96 389.28l9.89 0l0 14.52l-9.89 0Z" id="p38w116" />
<path d="M318.05 389.28l35.29 0l0 14.52l-35.29 0Z" id="p38w117" />
<path d="M356.55 389.28l47.58 0l0 14.52l-47.58 0Z" id="p38w118" />
<path d="M143.75 414.3l28.06 0l0 14.52l-28.06 0Z" id="p38w119" />
<path d="M184.91 414.3l18.7 0l0 14.52l-18.7 0Z" id="p38w120" />
<path d="M163.45 430.97l26.74 0l0 14.52l-26.74 0Z" id="p38w121" />
<path d="M193.4 430.97l37.68 0l0 14.52l-37.68 0Z" id="p38w122" />
<path d="M163.45 447.64l24.59 0l0 14.52l-24.59 0Z" id="p38w123" />
<path d="M191.25 447.64l37.68 0l0 14.52l-37.68 0Z" id="p38w124" />
<path d="M163.45 464.31l36.61 0l0 14.52l-36.61 0Z" id="p38w125" />
<path d="M203.27 464.31l37.68 0l0 14.52l-37.68 0Z" id="p38w126" />
<path d="M426.34 414.3l24.59 0l0 14.52l-24.59 0Z" id="p38w127" />
<path d="M454.14 414.3l28.6 0l0 14.52l-28.6 0Z" id="p38w128" />
<path d="M485.95 414.3l42.77 0l0 14.52l-42.77 0Z" id="p38w129" />
<path d="M455.92 430.97l34.23 0l0 14.52l-34.23 0Z" id="p38w130" />
<path d="M493.35 430.97l35.28 0l0 14.52l-35.28 0Z" id="p38w131" />
<path d="M531.84 430.97l17.9 0l0 14.52l-17.9 0Z" id="p38w132" />
<path d="M552.95 430.97l33.42 0l0 14.52l-33.42 0Z" id="p38w133" />
<path d="M455.92 447.64l32.01 0l0 14.52l-32.01 0Z" id="p38w134" />
<path d="M491.13 447.64l50.53 0l0 14.52l-50.53 0Z" id="p38w135" />
<path d="M544.87 447.64l33.42 0l0 14.52l-33.42 0Z" id="p38w136" />
<path d="M455.92 464.31l34.23 0l0 14.52l-34.23 0Z" id="p38w137" />
<path d="M493.35 464.31l20.85 0l0 14.52l-20.85 0Z" id="p38w138" />
<path d="M517.41 464.31l29.13 0l0 14.52l-29.13 0Z" id="p38w139" />
<path d="M549.75 464.31l27.81 0l0 14.52l-27.81 0Z" id="p38w140" />
<path d="M143.75 489.32l18.44 0l0 14.52l-18.44 0Z" id="p38w141" />
<path d="M165.4 489.32l41.14 0l0 14.52l-41.14 0Z" id="p38w142" />
<path d="M209.75 489.32l24.33 0l0 14.52l-24.33 0Z" id="p38w143" />
<path d="M163.45 505.99l17.11 0l0 14.52l-17.11 0Z" id="p38w144" />
<path d="M183.76 505.99l15.5 0l0 14.52l-15.5 0Z" id="p38w145" />
<path d="M202.47 505.99l91.87 0l0 14.52l-91.87 0Z" id="p38w146" />
<path d="M163.45 522.66l20.59 0l0 14.52l-20.59 0Z" id="p38w147" />
<path d="M187.25 522.66l19.51 0l0 14.52l-19.51 0Z" id="p38w148" />
<path d="M209.96 522.66l91.87 0l0 14.52l-91.87 0Z" id="p38w149" />
<path d="M163.45 539.33l24.05 0l0 14.52l-24.05 0Z" id="p38w150" />
<path d="M190.7 539.33l19.51 0l0 14.52l-19.51 0Z" id="p38w151" />
<path d="M213.42 539.33l91.87 0l0 14.52l-91.87 0Z" id="p38w152" />
<path d="M426.34 489.32l28.06 0l0 14.52l-28.06 0Z" id="p38w153" />
<path d="M446.03 505.99l15.87 0l0 14.52l-15.87 0Z" id="p38w154" />
<path d="M465.11 505.99l19.51 0l0 14.52l-19.51 0Z" id="p38w155" />
<path d="M487.82 505.99l13.63 0l0 14.52l-13.63 0Z" id="p38w156" />
<path d="M504.66 505.99l9.89 0l0 14.52l-9.89 0Z" id="p38w157" />
<path d="M517.76 505.99l26.2 0l0 14.52l-26.2 0Z" id="p38w158" />
<path d="M547.17 505.99l13.9 0l0 14.52l-13.9 0Z" id="p38w159" />
<path d="M564.27 505.99l44.1 0l0 14.52l-44.1 0Z" id="p38w160" />
<path d="M611.58 505.99l19.51 0l0 14.52l-19.51 0Z" id="p38w161" />
<path d="M634.29 505.99l41.18 0l0 14.52l-41.18 0Z" id="p38w162" />
<path d="M455.92 522.66l13.63 0l0 14.52l-13.63 0Z" id="p38w163" />
<path d="M472.76 522.66l9.89 0l0 14.52l-9.89 0Z" id="p38w164" />
<path d="M485.85 522.66l26.2 0l0 14.52l-26.2 0Z" id="p38w165" />
<path d="M515.26 522.66l13.9 0l0 14.52l-13.9 0Z" id="p38w166" />
<path d="M532.37 522.66l37.93 0l0 14.52l-37.93 0Z" id="p38w167" />
<path d="M573.51 522.66l20.85 0l0 14.52l-20.85 0Z" id="p38w168" />
<path d="M597.57 522.66l27.81 0l0 14.52l-27.81 0Z" id="p38w169" />
<path d="M455.92 539.33l54.26 0l0 14.52l-54.26 0Z" id="p38w170" />
<path d="M513.39 539.33l14.18 0l0 14.52l-14.18 0Z" id="p38w171" />
<path d="M530.77 539.33l66.04 0l0 14.52l-66.04 0Z" id="p38w172" />
<path d="M143.75 564.35l34.58 0l0 14.52l-34.58 0Z" id="p38w173" />
<path d="M181.54 564.35l9.89 0l0 14.52l-9.89 0Z" id="p38w174" />
<path d="M204.26 564.35l18.18 0l0 14.52l-18.18 0Z" id="p38w175" />
<path d="M225.64 564.35l51.05 0l0 14.52l-51.05 0Z" id="p38w176" />
<path d="M279.91 564.35l33.67 0l0 14.52l-33.67 0Z" id="p38w177" />
<path d="M163.45 581.02l41.42 0l0 14.52l-41.42 0Z" id="p38w178" />
<path d="M208.08 581.02l34.38 0l0 14.52l-34.38 0Z" id="p38w179" />
<path d="M245.67 581.02l28.6 0l0 14.52l-28.6 0Z" id="p38w180" />
<path d="M277.48 581.02l45.45 0l0 14.52l-45.45 0Z" id="p38w181" />
<path d="M163.45 597.69l41.42 0l0 14.52l-41.42 0Z" id="p38w182" />
<path d="M208.08 597.69l19.51 0l0 14.52l-19.51 0Z" id="p38w183" />
<path d="M230.79 597.69l55.87 0l0 14.52l-55.87 0Z" id="p38w184" />
<path d="M163.45 614.36l41.42 0l0 14.52l-41.42 0Z" id="p38w185" />
<path d="M208.08 614.36l19.51 0l0 14.52l-19.51 0Z" id="p38w186" />
<path d="M230.79 614.36l49.18 0l0 14.52l-49.18 0Z" id="p38w187" />
<path d="M426.34 564.35l18.44 0l0 14.52l-18.44 0Z" id="p38w188" />
<path d="M447.99 564.35l41.14 0l0 14.52l-41.14 0Z" id="p38w189" />
<path d="M491.9 564.35l19.61 0l0 14.52l-19.61 0Z" id="p38w190" />
<path d="M514.72 564.35l24.87 0l0 14.52l-24.87 0Z" id="p38w191" />
<path d="M446.03 581.02l41.7 0l0 14.52l-41.7 0Z" id="p38w192" />
<path d="M490.94 581.02l14.18 0l0 14.52l-14.18 0Z" id="p38w193" />
<path d="M508.32 581.02l39.56 0l0 14.52l-39.56 0Z" id="p38w194" />
<path d="M446.03 597.69l41.7 0l0 14.52l-41.7 0Z" id="p38w195" />
<path d="M490.94 597.69l20.85 0l0 14.52l-20.85 0Z" id="p38w196" />
<path d="M515 597.69l29.41 0l0 14.52l-29.41 0Z" id="p38w197" />
<path d="M547.61 597.69l13.9 0l0 14.52l-13.9 0Z" id="p38w198" />
<path d="M564.72 597.69l34.49 0l0 14.52l-34.49 0Z" id="p38w199" />
<path d="M446.03 614.36l30.73 0l0 14.52l-30.73 0Z" id="p38w200" />
<path d="M479.97 614.36l13.63 0l0 14.52l-13.63 0Z" id="p38w201" />
<path d="M496.81 614.36l37.43 0l0 14.52l-37.43 0Z" id="p38w202" />
<path d="M124.06 697.09l20.39 0l0 18.84l-20.39 0Z" id="p38w203" />
<path d="M148.1 697.09l58.57 0l0 18.84l-58.57 0Z" id="p38w204" />
<path d="M210.33 697.09l34.63 0l0 18.84l-34.63 0Z" id="p38w205" />
<path d="M248.61 697.09l13.62 0l0 18.84l-13.62 0Z" id="p38w206" />
<path d="M265.88 697.09l38.62 0l0 18.84l-38.62 0Z" id="p38w207" />
<path d="M308.15 697.09l19.04 0l0 18.84l-19.04 0Z" id="p38w208" />
<path d="M330.85 697.09l37.38 0l0 18.84l-37.38 0Z" id="p38w209" />
<path d="M124.06 731.07l46.51 0l0 14.52l-46.51 0Z" id="p38w210" />
<path d="M173.78 731.07l28.87 0l0 14.52l-28.87 0Z" id="p38w211" />
<path d="M205.86 731.07l47.52 0l0 14.52l-47.52 0Z" id="p38w212" />
<path d="M256.58 731.07l13.9 0l0 14.52l-13.9 0Z" id="p38w213" />
<path d="M273.69 731.07l39.57 0l0 14.52l-39.57 0Z" id="p38w214" />
<path d="M316.47 731.07l25.67 0l0 14.52l-25.67 0Z" id="p38w215" />
<path d="M345.35 731.07l30.99 0l0 14.52l-30.99 0Z" id="p38w216" />
<path d="M124.06 747.74l14.18 0l0 14.52l-14.18 0Z" id="p38w217" />
<path d="M141.45 747.74l44.11 0l0 14.52l-44.11 0Z" id="p38w218" />
<path d="M188.76 747.74l25.67 0l0 14.52l-25.67 0Z" id="p38w219" />
<path d="M217.64 747.74l9.89 0l0 14.52l-9.89 0Z" id="p38w220" />
<path d="M230.74 747.74l28.34 0l0 14.52l-28.34 0Z" id="p38w221" />
<path d="M262.28 747.74l14.18 0l0 14.52l-14.18 0Z" id="p38w222" />
<path d="M279.67 747.74l28.34 0l0 14.52l-28.34 0Z" id="p38w223" />
<path d="M311.21 747.74l46.51 0l0 14.52l-46.51 0Z" id="p38w224" />
<path d="M124.06 772.76l27.8 0l0 14.52l-27.8 0Z" id="p38w225" />
<path d="M155.07 772.76l9.89 0l0 14.52l-9.89 0Z" id="p38w226" />
<path d="M168.16 772.76l31.01 0l0 14.52l-31.01 0Z" id="p38w227" />
<path d="M202.37 772.76l31.27 0l0 14.52l-31.27 0Z" id="p38w228" />
<path d="M236.85 772.76l26.73 0l0 14.52l-26.73 0Z" id="p38w229" />
<path d="M266.79 772.76l28.87 0l0 14.52l-28.87 0Z" id="p38w230" />
<path d="M298.86 772.76l34.21 0l0 14.52l-34.21 0Z" id="p38w231" />
<path d="M336.28 772.76l55.86 0l0 14.52l-55.86 0Z" id="p38w232" />
<path d="M133.95 789.43l9.89 0l0 14.52l-9.89 0Z" id="p38w233" />
<path d="M147.04 789.43l27.73 0l0 14.52l-27.73 0Z" id="p38w234" />
<path d="M196.7 789.43l25.67 0l0 14.52l-25.67 0Z" id="p38w235" />
<path d="M225.58 789.43l55.05 0l0 14.52l-55.05 0Z" id="p38w236" />
<path d="M283.84 789.43l25.13 0l0 14.52l-25.13 0Z" id="p38w237" />
<path d="M312.18 789.43l33.41 0l0 14.52l-33.41 0Z" id="p38w238" />
<path d="M348.79 789.43l13.9 0l0 14.52l-13.9 0Z" id="p38w239" />
<path d="M124.06 806.1l44.11 0l0 14.52l-44.11 0Z" id="p38w240" />
<path d="M171.38 806.1l14.18 0l0 14.52l-14.18 0Z" id="p38w241" />
<path d="M188.76 806.1l40.1 0l0 14.52l-40.1 0Z" id="p38w242" />
<path d="M232.07 806.1l62.53 0l0 14.52l-62.53 0Z" id="p38w243" />
<path d="M297.8 806.1l13.9 0l0 14.52l-13.9 0Z" id="p38w244" />
<path d="M314.91 806.1l28.87 0l0 14.52l-28.87 0Z" id="p38w245" />
<path d="M346.98 806.1l36.28 0l0 14.52l-36.28 0Z" id="p38w246" />
<path d="M124.06 822.77l22.45 0l0 14.52l-22.45 0Z" id="p38w247" />
<path d="M154.76 822.77l38.44 0l0 14.52l-38.44 0Z" id="p38w248" />
<path d="M124.06 847.78l12.83 0l0 14.52l-12.83 0Z" id="p38w249" />
<path d="M140.1 847.78l44.11 0l0 14.52l-44.11 0Z" id="p38w250" />
<path d="M187.42 847.78l13.9 0l0 14.52l-13.9 0Z" id="p38w251" />
<path d="M204.52 847.78l28.06 0l0 14.52l-28.06 0Z" id="p38w252" />
<path d="M235.79 847.78l11.22 0l0 14.52l-11.22 0Z" id="p38w253" />
<path d="M250.22 847.78l9.89 0l0 14.52l-9.89 0Z" id="p38w254" />
<path d="M263.31 847.78l23.27 0l0 14.52l-23.27 0Z" id="p38w255" />
<path d="M289.79 847.78l55.33 0l0 14.52l-55.33 0Z" id="p38w256" />
<path d="M358.22 847.78l9.89 0l0 14.52l-9.89 0Z" id="p38w257" />
<path d="M124.06 864.45l27.73 0l0 14.52l-27.73 0Z" id="p38w258" />
<path d="M175.24 864.45l45.45 0l0 14.52l-45.45 0Z" id="p38w259" />
<path d="M223.89 864.45l25.67 0l0 14.52l-25.67 0Z" id="p38w260" />
<path d="M252.77 864.45l29.69 0l0 14.52l-29.69 0Z" id="p38w261" />
<path d="M608.33 284.32l12.29 0l0 14.52l-12.29 0Z" id="p38w262" />
<path d="M53.09 366.05l35.52 0l0 12.29l-35.52 0Z" id="p38w263" />
<path d="M45.92 382.79l25.45 0l0 12.3l-25.45 0Z" id="p38w264" />
<path d="M52.89 399.46l35.72 0l0 12.3l-35.72 0Z" id="p38w265" />
<path d="M44.38 410.57l44.24 0l0 12.3l-44.24 0Z" id="p38w266" />
<path d="M149.26 672.66l32.88 0l0 12.56l-32.88 0Z" id="p38w267" />
<path d="M184.84 672.66l36.55 0l0 12.56l-36.55 0Z" id="p38w268" />
<path d="M60.69 732.84l27.93 0l0 12.29l-27.93 0Z" id="p38w269" />
<path d="M600.8 709.1l55.48 0l0 12.56l-55.48 0Z" id="p38w270" />
<path d="M427.08 733.01l58.22 0l0 15.37l-58.22 0Z" id="p38w271" />
<path d="M427.08 749.68l33.07 0l0 15.37l-33.07 0Z" id="p38w272" />
<path d="M463.06 749.68l24.33 0l0 15.37l-24.33 0Z" id="p38w273" />
<path d="M490.77 749.68l56.6 0l0 15.37l-56.6 0Z" id="p38w274" />
<path d="M550.75 749.68l22.63 0l0 15.37l-22.63 0Z" id="p38w275" />
<path d="M576.76 749.68l67.57 0l0 15.37l-67.57 0Z" id="p38w276" />
<path d="M427.08 770.97l19.24 0l0 14.52l-19.24 0Z" id="p38w277" />
<path d="M449.53 770.97l31.01 0l0 14.52l-31.01 0Z" id="p38w278" />
<path d="M483.38 770.97l22.46 0l0 14.52l-22.46 0Z" id="p38w279" />
<path d="M509.05 770.97l62.53 0l0 14.52l-62.53 0Z" id="p38w280" />
<path d="M574.79 770.97l21.4 0l0 14.52l-21.4 0Z" id="p38w281" />
<path d="M427.08 787.64l106.86 0l0 14.52l-106.86 0Z" id="p38w282" />
<path d="M537.14 787.64l12.84 0l0 14.52l-12.84 0Z" id="p38w283" />
<path d="M553.19 787.64l47.32 0l0 14.52l-47.32 0Z" id="p38w284" />
<path d="M603.72 787.64l22.12 0l0 14.52l-22.12 0Z" id="p38w285" />
<path d="M629.05 787.64l12.29 0l0 14.52l-12.29 0Z" id="p38w286" />
<path d="M427.08 804.31l54.99 0l0 14.52l-54.99 0Z" id="p38w287" />
<path d="M485.27 804.31l58.53 0l0 14.52l-58.53 0Z" id="p38w288" />
<path d="M547 804.31l21.4 0l0 14.52l-21.4 0Z" id="p38w289" />
<path d="M571.61 804.31l58.27 0l0 14.52l-58.27 0Z" id="p38w290" />
<path d="M427.08 820.98l148.23 0l0 14.52l-148.23 0Z" id="p38w291" />
<path d="M427.08 847.78l42.55 0l0 14.52l-42.55 0Z" id="p38w292" />
<path d="M472.84 847.78l79.34 0l0 14.52l-79.34 0Z" id="p38w293" />
<path d="M555.39 847.78l17.71 0l0 14.52l-17.71 0Z" id="p38w294" />
<path d="M576.31 847.78l27.73 0l0 14.52l-27.73 0Z" id="p38w295" />
<path d="M124.06 39.02l42.02 0l0 15.38l-42.02 0Z" id="p38w296" />
<path d="M208.73 39.02l43.21 0l0 15.38l-43.21 0Z" id="p38w297" />
<path d="M307.2 38.6l45.06 0l0 16.09l-45.06 0Z" id="p38w298" />
<path d="M414.72 39.02l28.68 0l0 15.38l-28.68 0Z" id="p38w299" />
<path d="M446.78 39.02l44.38 0l0 15.38l-44.38 0Z" id="p38w300" />
<path d="M524.22 39.02l32.54 0l0 15.38l-32.54 0Z" id="p38w301" />
<path d="M76.9 983l44.26 0l0 12.23l-44.26 0Z" id="p38w302" />
</svg>
