<?xml version="1.0" encoding="UTF-8"?>
<svg xmlns="http://www.w3.org/2000/svg" xmlns:xlink="http://www.w3.org/1999/xlink" version="1.1" baseProfile="full" width="768" height="1024" viewBox="0,0,768,1024" preserveAspectRatio="xMinYMin meet" >
<style type="text/css">
<![CDATA[
path {fill-opacity: 0.5;fill: #00aeef;visibility: hidden;}
]]>
</style>
<path d="M585.85 983.66l105.25 0l0 12.23l-105.25 0Z" id="p235w1" />
<path d="M562.12 38.6l81.82 0l0 16.09l-81.82 0Z" id="p235w2" />
<path d="M59.08 112.51l11.7 0l0 12.23l-11.7 0Z" id="p235w3" />
<path d="M73.48 112.45l16.09 0l0 12.29l-16.09 0Z" id="p235w4" />
<path d="M95.43 111.41l17.54 0l0 13.77l-17.54 0Z" id="p235w5" />
<path d="M118.83 112.51l48.76 0l0 12.23l-48.76 0Z" id="p235w6" />
<path d="M170.3 112.51l11.93 0l0 12.23l-11.93 0Z" id="p235w7" />
<path d="M184.92 112.51l34.45 0l0 12.23l-34.45 0Z" id="p235w8" />
<path d="M68.92 127.79l53.74 0l0 12.23l-53.74 0Z" id="p235w9" />
<path d="M125.37 127.55l18.92 0l0 12.56l-18.92 0Z" id="p235w10" />
<path d="M59.08 143.02l27.52 0l0 12.29l-27.52 0Z" id="p235w11" />
<path d="M92.46 141.97l29.62 0l0 13.77l-29.62 0Z" id="p235w12" />
<path d="M127.94 143.08l46.35 0l0 12.23l-46.35 0Z" id="p235w13" />
<path d="M176.99 143.08l36.24 0l0 12.23l-36.24 0Z" id="p235w14" />
<path d="M215.92 142.83l15.54 0l0 12.56l-15.54 0Z" id="p235w15" />
<path d="M68.92 158.36l5.4 0l0 12.23l-5.4 0Z" id="p235w16" />
<path d="M77.03 158.36l18.91 0l0 12.23l-18.91 0Z" id="p235w17" />
<path d="M98.64 158.36l11.04 0l0 12.23l-11.04 0Z" id="p235w18" />
<path d="M120.7 158.36l12.16 0l0 12.23l-12.16 0Z" id="p235w19" />
<path d="M135.56 158.34l18.68 0l0 12.23l-18.68 0Z" id="p235w20" />
<path d="M154.25 158.34l22.5 0l0 12.23l-22.5 0Z" id="p235w21" />
<path d="M179.44 158.34l30.02 0l0 12.23l-30.02 0Z" id="p235w22" />
<path d="M215.32 157.26l15.36 0l0 13.77l-15.36 0Z" id="p235w23" />
<path d="M68.92 173.64l10.82 0l0 12.23l-10.82 0Z" id="p235w24" />
<path d="M82.44 173.64l36.02 0l0 12.23l-36.02 0Z" id="p235w25" />
<path d="M121.17 173.64l19.44 0l0 12.23l-19.44 0Z" id="p235w26" />
<path d="M143.31 173.4l15.54 0l0 12.56l-15.54 0Z" id="p235w27" />
<path d="M68.92 188.93l5.4 0l0 12.23l-5.4 0Z" id="p235w28" />
<path d="M77.03 188.93l18.91 0l0 12.23l-18.91 0Z" id="p235w29" />
<path d="M98.64 188.93l21.37 0l0 12.23l-21.37 0Z" id="p235w30" />
<path d="M122.71 188.93l11.04 0l0 12.23l-11.04 0Z" id="p235w31" />
<path d="M139.61 187.83l28.88 0l0 13.77l-28.88 0Z" id="p235w32" />
<path d="M174.34 188.93l20.93 0l0 12.23l-20.93 0Z" id="p235w33" />
<path d="M197.97 188.93l24.53 0l0 12.23l-24.53 0Z" id="p235w34" />
<path d="M68.92 204.21l19.44 0l0 12.23l-19.44 0Z" id="p235w35" />
<path d="M91.07 204.21l15.76 0l0 12.23l-15.76 0Z" id="p235w36" />
<path d="M109.53 203.96l19.58 0l0 12.56l-19.58 0Z" id="p235w37" />
<path d="M59.08 219.49l17.56 0l0 12.23l-17.56 0Z" id="p235w38" />
<path d="M79.34 219.44l32.66 0l0 12.29l-32.66 0Z" id="p235w39" />
<path d="M117.85 218.39l35.06 0l0 13.77l-35.06 0Z" id="p235w40" />
<path d="M158.77 219.49l20.03 0l0 12.23l-20.03 0Z" id="p235w41" />
<path d="M181.5 219.49l33.76 0l0 12.23l-33.76 0Z" id="p235w42" />
<path d="M68.92 234.53l14.79 0l0 12.56l-14.79 0Z" id="p235w43" />
<path d="M68.92 250.06l11.7 0l0 12.23l-11.7 0Z" id="p235w44" />
<path d="M83.33 250.06l32.18 0l0 12.23l-32.18 0Z" id="p235w45" />
<path d="M121.37 248.96l29.56 0l0 13.77l-29.56 0Z" id="p235w46" />
<path d="M156.78 250.06l15.75 0l0 12.23l-15.75 0Z" id="p235w47" />
<path d="M175.23 250.06l15.53 0l0 12.23l-15.53 0Z" id="p235w48" />
<path d="M193.46 250.06l33.76 0l0 12.23l-33.76 0Z" id="p235w49" />
<path d="M68.92 265.1l15.54 0l0 12.56l-15.54 0Z" id="p235w50" />
<path d="M59.08 280.63l11.94 0l0 12.23l-11.94 0Z" id="p235w51" />
<path d="M73.72 280.57l15.42 0l0 12.29l-15.42 0Z" id="p235w52" />
<path d="M89.13 280.63l21.73 0l0 12.23l-21.73 0Z" id="p235w53" />
<path d="M113.56 280.57l15.42 0l0 12.29l-15.42 0Z" id="p235w54" />
<path d="M134.84 279.53l48.44 0l0 13.77l-48.44 0Z" id="p235w55" />
<path d="M189.14 280.63l14.41 0l0 12.23l-14.41 0Z" id="p235w56" />
<path d="M206.24 280.63l16.88 0l0 12.23l-16.88 0Z" id="p235w57" />
<path d="M68.92 295.66l19.58 0l0 12.56l-19.58 0Z" id="p235w58" />
<path d="M68.92 311.19l18.9 0l0 12.23l-18.9 0Z" id="p235w59" />
<path d="M90.52 311.19l15.31 0l0 12.23l-15.31 0Z" id="p235w60" />
<path d="M108.53 311.19l11.7 0l0 12.23l-11.7 0Z" id="p235w61" />
<path d="M122.93 311.19l27.37 0l0 12.23l-27.37 0Z" id="p235w62" />
<path d="M156.16 310.09l41.74 0l0 13.77l-41.74 0Z" id="p235w63" />
<path d="M203.75 311.19l17.12 0l0 12.23l-17.12 0Z" id="p235w64" />
<path d="M68.92 326.48l43.65 0l0 12.23l-43.65 0Z" id="p235w65" />
<path d="M115.27 326.48l16.88 0l0 12.23l-16.88 0Z" id="p235w66" />
<path d="M134.86 326.48l19.13 0l0 12.23l-19.13 0Z" id="p235w67" />
<path d="M156.69 326.23l18.01 0l0 12.56l-18.01 0Z" id="p235w68" />
<path d="M59.08 341.7l54.24 0l0 12.29l-54.24 0Z" id="p235w69" />
<path d="M119.18 340.66l34.01 0l0 13.77l-34.01 0Z" id="p235w70" />
<path d="M159.05 341.76l54.21 0l0 12.23l-54.21 0Z" id="p235w71" />
<path d="M215.96 341.76l15.08 0l0 12.23l-15.08 0Z" id="p235w72" />
<path d="M68.92 356.8l14.63 0l0 12.56l-14.63 0Z" id="p235w73" />
<path d="M59.08 372.33l8.33 0l0 12.23l-8.33 0Z" id="p235w74" />
<path d="M70.1 372.27l27.75 0l0 12.29l-27.75 0Z" id="p235w75" />
<path d="M103.72 371.23l31.48 0l0 13.77l-31.48 0Z" id="p235w76" />
<path d="M141.05 372.33l16.43 0l0 12.23l-16.43 0Z" id="p235w77" />
<path d="M160.18 372.33l23.63 0l0 12.23l-23.63 0Z" id="p235w78" />
<path d="M186.51 372.08l15.54 0l0 12.56l-15.54 0Z" id="p235w79" />
<path d="M59.08 387.61l18.9 0l0 12.23l-18.9 0Z" id="p235w80" />
<path d="M80.67 387.55l33.3 0l0 12.29l-33.3 0Z" id="p235w81" />
<path d="M118.14 387.55l38.93 0l0 12.29l-38.93 0Z" id="p235w82" />
<path d="M159.77 387.61l22.73 0l0 12.23l-22.73 0Z" id="p235w83" />
<path d="M188.36 386.51l43.63 0l0 13.77l-43.63 0Z" id="p235w84" />
<path d="M68.92 401.79l43.66 0l0 13.77l-43.66 0Z" id="p235w85" />
<path d="M118.44 402.89l43.66 0l0 12.23l-43.66 0Z" id="p235w86" />
<path d="M164.8 402.89l19.13 0l0 12.23l-19.13 0Z" id="p235w87" />
<path d="M186.63 402.89l24.32 0l0 12.23l-24.32 0Z" id="p235w88" />
<path d="M68.92 417.93l18.92 0l0 12.56l-18.92 0Z" id="p235w89" />
<path d="M59.08 433.4l37.64 0l0 12.29l-37.64 0Z" id="p235w90" />
<path d="M100.88 433.4l43.26 0l0 12.29l-43.26 0Z" id="p235w91" />
<path d="M150 432.36l59.12 0l0 13.77l-59.12 0Z" id="p235w92" />
<path d="M68.92 448.74l59.59 0l0 12.23l-59.59 0Z" id="p235w93" />
<path d="M131.21 448.5l18.17 0l0 12.56l-18.17 0Z" id="p235w94" />
<path d="M59.08 463.97l33.57 0l0 12.29l-33.57 0Z" id="p235w95" />
<path d="M96.81 463.97l39.19 0l0 12.29l-39.19 0Z" id="p235w96" />
<path d="M141.86 462.93l25.61 0l0 13.77l-25.61 0Z" id="p235w97" />
<path d="M173.33 464.03l26.79 0l0 12.23l-26.79 0Z" id="p235w98" />
<path d="M202.82 463.78l19.58 0l0 12.56l-19.58 0Z" id="p235w99" />
<path d="M59.08 479.31l17.56 0l0 12.23l-17.56 0Z" id="p235w100" />
<path d="M79.34 479.25l24.88 0l0 12.29l-24.88 0Z" id="p235w101" />
<path d="M110.07 478.21l24.21 0l0 13.77l-24.21 0Z" id="p235w102" />
<path d="M140.14 479.31l14.41 0l0 12.23l-14.41 0Z" id="p235w103" />
<path d="M157.25 479.31l31.11 0l0 12.23l-31.11 0Z" id="p235w104" />
<path d="M191.06 479.31l14.41 0l0 12.23l-14.41 0Z" id="p235w105" />
<path d="M208.17 479.31l19.6 0l0 12.23l-19.6 0Z" id="p235w106" />
<path d="M68.92 494.35l15.54 0l0 12.56l-15.54 0Z" id="p235w107" />
<path d="M59.08 509.82l20.56 0l0 12.29l-20.56 0Z" id="p235w108" />
<path d="M83.81 509.82l30.6 0l0 12.29l-30.6 0Z" id="p235w109" />
<path d="M120.27 508.78l25.43 0l0 13.77l-25.43 0Z" id="p235w110" />
<path d="M151.56 509.88l27.69 0l0 12.23l-27.69 0Z" id="p235w111" />
<path d="M181.94 509.63l19.58 0l0 12.56l-19.58 0Z" id="p235w112" />
<path d="M59.08 525.16l17.56 0l0 12.23l-17.56 0Z" id="p235w113" />
<path d="M79.34 525.11l33.47 0l0 12.29l-33.47 0Z" id="p235w114" />
<path d="M118.67 524.06l29.36 0l0 13.77l-29.36 0Z" id="p235w115" />
<path d="M153.88 525.16l20.03 0l0 12.23l-20.03 0Z" id="p235w116" />
<path d="M176.61 525.16l20.26 0l0 12.23l-20.26 0Z" id="p235w117" />
<path d="M199.57 524.92l15.54 0l0 12.56l-15.54 0Z" id="p235w118" />
<path d="M68.92 540.44l17.56 0l0 12.23l-17.56 0Z" id="p235w119" />
<path d="M89.19 540.44l33.3 0l0 12.23l-33.3 0Z" id="p235w120" />
<path d="M125.19 540.44l11.7 0l0 12.23l-11.7 0Z" id="p235w121" />
<path d="M139.6 540.44l41.42 0l0 12.23l-41.42 0Z" id="p235w122" />
<path d="M72.08 554.63l65.41 0l0 13.77l-65.41 0Z" id="p235w123" />
<path d="M143.35 555.73l14.41 0l0 12.23l-14.41 0Z" id="p235w124" />
<path d="M160.46 555.73l79.9 0l0 12.23l-79.9 0Z" id="p235w125" />
<path d="M68.92 570.77l18.72 0l0 12.56l-18.72 0Z" id="p235w126" />
<path d="M59.08 586.29l11.94 0l0 12.23l-11.94 0Z" id="p235w127" />
<path d="M73.72 586.24l22.2 0l0 12.29l-22.2 0Z" id="p235w128" />
<path d="M101.77 585.19l21.81 0l0 13.77l-21.81 0Z" id="p235w129" />
<path d="M129.44 586.29l20.03 0l0 12.23l-20.03 0Z" id="p235w130" />
<path d="M152.17 586.29l26.33 0l0 12.23l-26.33 0Z" id="p235w131" />
<path d="M181.2 586.05l15.54 0l0 12.56l-15.54 0Z" id="p235w132" />
<path d="M59.08 601.58l11.94 0l0 12.23l-11.94 0Z" id="p235w133" />
<path d="M73.72 601.52l34.41 0l0 12.29l-34.41 0Z" id="p235w134" />
<path d="M113.99 600.48l36.31 0l0 13.77l-36.31 0Z" id="p235w135" />
<path d="M156.16 601.58l14.41 0l0 12.23l-14.41 0Z" id="p235w136" />
<path d="M173.26 601.58l35.41 0l0 12.23l-35.41 0Z" id="p235w137" />
<path d="M211.38 601.33l14.63 0l0 12.56l-14.63 0Z" id="p235w138" />
<path d="M59.08 616.86l17.56 0l0 12.23l-17.56 0Z" id="p235w139" />
<path d="M79.34 616.81l18.9 0l0 12.29l-18.9 0Z" id="p235w140" />
<path d="M104.09 615.76l23.04 0l0 13.77l-23.04 0Z" id="p235w141" />
<path d="M132.99 616.86l20.03 0l0 12.23l-20.03 0Z" id="p235w142" />
<path d="M155.72 616.86l26.53 0l0 12.23l-26.53 0Z" id="p235w143" />
<path d="M184.96 616.86l14.41 0l0 12.23l-14.41 0Z" id="p235w144" />
<path d="M202.06 616.86l19.35 0l0 12.23l-19.35 0Z" id="p235w145" />
<path d="M68.92 631.9l19.58 0l0 12.56l-19.58 0Z" id="p235w146" />
<path d="M68.92 647.43l21.37 0l0 12.23l-21.37 0Z" id="p235w147" />
<path d="M93 647.43l8.33 0l0 12.23l-8.33 0Z" id="p235w148" />
<path d="M104.03 647.43l18.67 0l0 12.23l-18.67 0Z" id="p235w149" />
<path d="M128.56 646.33l33.3 0l0 13.77l-33.3 0Z" id="p235w150" />
<path d="M167.72 647.43l27.45 0l0 12.23l-27.45 0Z" id="p235w151" />
<path d="M197.87 647.18l19.58 0l0 12.56l-19.58 0Z" id="p235w152" />
<path d="M68.92 662.71l8.33 0l0 12.23l-8.33 0Z" id="p235w153" />
<path d="M79.95 662.71l18.67 0l0 12.23l-18.67 0Z" id="p235w154" />
<path d="M101.33 662.71l16.43 0l0 12.23l-16.43 0Z" id="p235w155" />
<path d="M120.46 662.71l31.97 0l0 12.23l-31.97 0Z" id="p235w156" />
<path d="M158.28 661.61l58 0l0 13.77l-58 0Z" id="p235w157" />
<path d="M222.14 662.71l16.43 0l0 12.23l-16.43 0Z" id="p235w158" />
<path d="M68.92 677.99l90.7 0l0 12.23l-90.7 0Z" id="p235w159" />
<path d="M162.33 677.75l14.63 0l0 12.56l-14.63 0Z" id="p235w160" />
<path d="M59.08 693.28l17.56 0l0 12.23l-17.56 0Z" id="p235w161" />
<path d="M79.34 693.22l6.62 0l0 12.29l-6.62 0Z" id="p235w162" />
<path d="M85.96 693.22l16.32 0l0 12.29l-16.32 0Z" id="p235w163" />
<path d="M104.98 693.28l46.83 0l0 12.23l-46.83 0Z" id="p235w164" />
<path d="M157.67 692.18l49.83 0l0 13.77l-49.83 0Z" id="p235w165" />
<path d="M68.92 708.56l50.65 0l0 12.23l-50.65 0Z" id="p235w166" />
<path d="M122.28 708.56l28.13 0l0 12.23l-28.13 0Z" id="p235w167" />
<path d="M153.11 708.32l18.92 0l0 12.56l-18.92 0Z" id="p235w168" />
<path d="M59.08 723.84l8.33 0l0 12.23l-8.33 0Z" id="p235w169" />
<path d="M76.73 723.79l20.12 0l0 12.29l-20.12 0Z" id="p235w170" />
<path d="M102.7 722.74l30.1 0l0 13.77l-30.1 0Z" id="p235w171" />
<path d="M138.66 723.84l16.43 0l0 12.23l-16.43 0Z" id="p235w172" />
<path d="M157.79 723.84l29.03 0l0 12.23l-29.03 0Z" id="p235w173" />
<path d="M189.53 723.6l18.92 0l0 12.56l-18.92 0Z" id="p235w174" />
<path d="M59.08 739.13l17.56 0l0 12.23l-17.56 0Z" id="p235w175" />
<path d="M85.96 739.07l11.25 0l0 12.29l-11.25 0Z" id="p235w176" />
<path d="M103.07 738.03l20.94 0l0 13.77l-20.94 0Z" id="p235w177" />
<path d="M129.87 739.13l14.41 0l0 12.23l-14.41 0Z" id="p235w178" />
<path d="M146.98 739.13l43.67 0l0 12.23l-43.67 0Z" id="p235w179" />
<path d="M193.35 738.88l14.79 0l0 12.56l-14.79 0Z" id="p235w180" />
<path d="M68.92 754.41l20.03 0l0 12.23l-20.03 0Z" id="p235w181" />
<path d="M91.36 754.41l34.68 0l0 12.23l-34.68 0Z" id="p235w182" />
<path d="M128.74 754.17l15.54 0l0 12.56l-15.54 0Z" id="p235w183" />
<path d="M59.08 769.7l11.94 0l0 12.23l-11.94 0Z" id="p235w184" />
<path d="M83.65 769.64l12.07 0l0 12.29l-12.07 0Z" id="p235w185" />
<path d="M98.27 768.59l23.92 0l0 13.77l-23.92 0Z" id="p235w186" />
<path d="M128.05 769.7l14.41 0l0 12.23l-14.41 0Z" id="p235w187" />
<path d="M145.15 769.7l19.81 0l0 12.23l-19.81 0Z" id="p235w188" />
<path d="M167.66 769.45l14.79 0l0 12.56l-14.79 0Z" id="p235w189" />
<path d="M68.92 784.98l11.94 0l0 12.23l-11.94 0Z" id="p235w190" />
<path d="M83.56 784.98l6.3 0l0 12.23l-6.3 0Z" id="p235w191" />
<path d="M89.87 784.98l11.93 0l0 12.23l-11.93 0Z" id="p235w192" />
<path d="M104.49 784.98l55.6 0l0 12.23l-55.6 0Z" id="p235w193" />
<path d="M165.95 783.88l70.73 0l0 13.77l-70.73 0Z" id="p235w194" />
<path d="M68.92 800.26l14.41 0l0 12.23l-14.41 0Z" id="p235w195" />
<path d="M86.03 800.26l59.64 0l0 12.23l-59.64 0Z" id="p235w196" />
<path d="M145.67 800.26l11.93 0l0 12.23l-11.93 0Z" id="p235w197" />
<path d="M160.3 800.02l18.92 0l0 12.56l-18.92 0Z" id="p235w198" />
<path d="M68.92 815.55l11.94 0l0 12.23l-11.94 0Z" id="p235w199" />
<path d="M83.56 815.55l6.3 0l0 12.23l-6.3 0Z" id="p235w200" />
<path d="M89.87 815.55l11.93 0l0 12.23l-11.93 0Z" id="p235w201" />
<path d="M104.49 815.55l53.56 0l0 12.23l-53.56 0Z" id="p235w202" />
<path d="M163.92 814.45l57.93 0l0 13.77l-57.93 0Z" id="p235w203" />
<path d="M68.92 830.83l14.41 0l0 12.23l-14.41 0Z" id="p235w204" />
<path d="M86.03 830.83l42.32 0l0 12.23l-42.32 0Z" id="p235w205" />
<path d="M128.35 830.83l11.93 0l0 12.23l-11.93 0Z" id="p235w206" />
<path d="M142.97 830.58l18.92 0l0 12.56l-18.92 0Z" id="p235w207" />
<path d="M68.92 846.11l11.94 0l0 12.23l-11.94 0Z" id="p235w208" />
<path d="M83.56 846.11l6.3 0l0 12.23l-6.3 0Z" id="p235w209" />
<path d="M89.87 846.11l11.93 0l0 12.23l-11.93 0Z" id="p235w210" />
<path d="M104.49 846.11l34.45 0l0 12.23l-34.45 0Z" id="p235w211" />
<path d="M144.8 845.01l53.32 0l0 13.77l-53.32 0Z" id="p235w212" />
<path d="M203.97 846.11l14.41 0l0 12.23l-14.41 0Z" id="p235w213" />
<path d="M68.92 861.4l26.98 0l0 12.23l-26.98 0Z" id="p235w214" />
<path d="M98.6 861.4l14.41 0l0 12.23l-14.41 0Z" id="p235w215" />
<path d="M115.71 861.4l45.24 0l0 12.23l-45.24 0Z" id="p235w216" />
<path d="M160.95 861.4l11.93 0l0 12.23l-11.93 0Z" id="p235w217" />
<path d="M175.57 861.15l18.92 0l0 12.56l-18.92 0Z" id="p235w218" />
<path d="M59.08 876.68l11.94 0l0 12.23l-11.94 0Z" id="p235w219" />
<path d="M83.65 876.62l7.65 0l0 12.29l-7.65 0Z" id="p235w220" />
<path d="M93.85 875.58l15.78 0l0 13.77l-15.78 0Z" id="p235w221" />
<path d="M115.49 876.68l14.41 0l0 12.23l-14.41 0Z" id="p235w222" />
<path d="M132.59 876.68l23.88 0l0 12.23l-23.88 0Z" id="p235w223" />
<path d="M159.17 876.43l14.79 0l0 12.56l-14.79 0Z" id="p235w224" />
<path d="M59.08 891.96l8.33 0l0 12.23l-8.33 0Z" id="p235w225" />
<path d="M88.67 890.86l16.29 0l0 13.77l-16.29 0Z" id="p235w226" />
<path d="M110.82 891.96l16.43 0l0 12.23l-16.43 0Z" id="p235w227" />
<path d="M129.95 891.96l26.09 0l0 12.23l-26.09 0Z" id="p235w228" />
<path d="M158.74 891.96l15.53 0l0 12.23l-15.53 0Z" id="p235w229" />
<path d="M176.96 891.96l34.9 0l0 12.23l-34.9 0Z" id="p235w230" />
<path d="M214.57 891.72l15.54 0l0 12.56l-15.54 0Z" id="p235w231" />
<path d="M65.7 907.19l45.06 0l0 12.29l-45.06 0Z" id="p235w232" />
<path d="M116.62 906.15l36.55 0l0 13.77l-36.55 0Z" id="p235w233" />
<path d="M159.02 907.25l51.97 0l0 12.23l-51.97 0Z" id="p235w234" />
<path d="M213.7 907.25l20.04 0l0 12.23l-20.04 0Z" id="p235w235" />
<path d="M68.92 922.53l34.9 0l0 12.23l-34.9 0Z" id="p235w236" />
<path d="M106.53 922.28l18.92 0l0 12.56l-18.92 0Z" id="p235w237" />
<path d="M260.6 112.45l6.62 0l0 12.29l-6.62 0Z" id="p235w238" />
<path d="M267.22 112.45l12.79 0l0 12.29l-12.79 0Z" id="p235w239" />
<path d="M282.71 112.51l11.04 0l0 12.23l-11.04 0Z" id="p235w240" />
<path d="M299.61 111.41l21.57 0l0 13.77l-21.57 0Z" id="p235w241" />
<path d="M327.04 112.51l19.44 0l0 12.23l-19.44 0Z" id="p235w242" />
<path d="M349.18 112.51l43.64 0l0 12.23l-43.64 0Z" id="p235w243" />
<path d="M395.52 112.51l15.75 0l0 12.23l-15.75 0Z" id="p235w244" />
<path d="M413.97 112.51l19.44 0l0 12.23l-19.44 0Z" id="p235w245" />
<path d="M270.44 127.79l42.55 0l0 12.23l-42.55 0Z" id="p235w246" />
<path d="M315.69 127.55l15.54 0l0 12.56l-15.54 0Z" id="p235w247" />
<path d="M270.44 143.08l22.05 0l0 12.23l-22.05 0Z" id="p235w248" />
<path d="M295.2 143.08l6.3 0l0 12.23l-6.3 0Z" id="p235w249" />
<path d="M304.65 143.08l7.89 0l0 12.23l-7.89 0Z" id="p235w250" />
<path d="M318.39 141.97l24.91 0l0 13.77l-24.91 0Z" id="p235w251" />
<path d="M349.16 143.08l10.58 0l0 12.23l-10.58 0Z" id="p235w252" />
<path d="M362.44 143.08l11.25 0l0 12.23l-11.25 0Z" id="p235w253" />
<path d="M376.39 143.08l31.52 0l0 12.23l-31.52 0Z" id="p235w254" />
<path d="M410.62 142.83l19.58 0l0 12.56l-19.58 0Z" id="p235w255" />
<path d="M270.53 158.3l10.88 0l0 12.29l-10.88 0Z" id="p235w256" />
<path d="M283.96 157.26l16.49 0l0 13.77l-16.49 0Z" id="p235w257" />
<path d="M306.31 158.36l17.77 0l0 12.23l-17.77 0Z" id="p235w258" />
<path d="M326.79 158.11l17.81 0l0 12.56l-17.81 0Z" id="p235w259" />
<path d="M260.6 173.64l8.33 0l0 12.23l-8.33 0Z" id="p235w260" />
<path d="M271.62 173.59l6.66 0l0 12.29l-6.66 0Z" id="p235w261" />
<path d="M278.28 173.59l32.67 0l0 12.29l-32.67 0Z" id="p235w262" />
<path d="M316.81 172.54l35.27 0l0 13.77l-35.27 0Z" id="p235w263" />
<path d="M357.93 173.64l41.19 0l0 12.23l-41.19 0Z" id="p235w264" />
<path d="M270.44 188.9l12.16 0l0 12.23l-12.16 0Z" id="p235w265" />
<path d="M285.3 188.9l34.22 0l0 12.23l-34.22 0Z" id="p235w266" />
<path d="M322.23 188.9l63.84 0l0 12.23l-63.84 0Z" id="p235w267" />
<path d="M270.44 204.19l72.49 0l0 12.23l-72.49 0Z" id="p235w268" />
<path d="M345.64 203.96l18.01 0l0 12.56l-18.01 0Z" id="p235w269" />
<path d="M260.6 219.49l11.94 0l0 12.23l-11.94 0Z" id="p235w270" />
<path d="M281.89 219.44l22.26 0l0 12.29l-22.26 0Z" id="p235w271" />
<path d="M310.01 218.39l25.82 0l0 13.77l-25.82 0Z" id="p235w272" />
<path d="M341.69 219.49l14.41 0l0 12.23l-14.41 0Z" id="p235w273" />
<path d="M358.8 219.49l25.63 0l0 12.23l-25.63 0Z" id="p235w274" />
<path d="M387.13 219.49l14.41 0l0 12.23l-14.41 0Z" id="p235w275" />
<path d="M404.24 219.49l28.36 0l0 12.23l-28.36 0Z" id="p235w276" />
<path d="M270.44 234.53l18.01 0l0 12.56l-18.01 0Z" id="p235w277" />
<path d="M267.25 250l28.21 0l0 12.29l-28.21 0Z" id="p235w278" />
<path d="M301.32 248.96l32.87 0l0 13.77l-32.87 0Z" id="p235w279" />
<path d="M340.05 250.06l6.3 0l0 12.23l-6.3 0Z" id="p235w280" />
<path d="M346.35 250.06l27.69 0l0 12.23l-27.69 0Z" id="p235w281" />
<path d="M376.74 249.81l17.81 0l0 12.56l-17.81 0Z" id="p235w282" />
<path d="M267.25 265.29l24.45 0l0 12.29l-24.45 0Z" id="p235w283" />
<path d="M294.41 265.32l27.91 0l0 12.23l-27.91 0Z" id="p235w284" />
<path d="M328.18 264.24l20.92 0l0 13.77l-20.92 0Z" id="p235w285" />
<path d="M354.95 265.34l22.51 0l0 12.23l-22.51 0Z" id="p235w286" />
<path d="M377.46 265.34l26.57 0l0 12.23l-26.57 0Z" id="p235w287" />
<path d="M406.73 265.32l25.65 0l0 12.23l-25.65 0Z" id="p235w288" />
<path d="M270.44 280.63l20.03 0l0 12.23l-20.03 0Z" id="p235w289" />
<path d="M293.17 280.63l57.33 0l0 12.23l-57.33 0Z" id="p235w290" />
<path d="M353.21 280.63l29.49 0l0 12.23l-29.49 0Z" id="p235w291" />
<path d="M385.4 280.6l25.65 0l0 12.23l-25.65 0Z" id="p235w292" />
<path d="M413.75 280.38l15.54 0l0 12.56l-15.54 0Z" id="p235w293" />
<path d="M260.6 295.91l17.56 0l0 12.23l-17.56 0Z" id="p235w294" />
<path d="M280.86 295.85l17.2 0l0 12.29l-17.2 0Z" id="p235w295" />
<path d="M303.91 294.81l27.45 0l0 13.77l-27.45 0Z" id="p235w296" />
<path d="M337.22 295.91l14.41 0l0 12.23l-14.41 0Z" id="p235w297" />
<path d="M354.33 295.91l20 0l0 12.23l-20 0Z" id="p235w298" />
<path d="M377.03 295.91l31.96 0l0 12.23l-31.96 0Z" id="p235w299" />
<path d="M411.68 295.66l18.01 0l0 12.56l-18.01 0Z" id="p235w300" />
<path d="M260.6 311.19l22.05 0l0 12.23l-22.05 0Z" id="p235w301" />
<path d="M285.35 311.19l8.33 0l0 12.23l-8.33 0Z" id="p235w302" />
<path d="M296.38 311.14l20.8 0l0 12.29l-20.8 0Z" id="p235w303" />
<path d="M325.29 310.09l31.68 0l0 13.77l-31.68 0Z" id="p235w304" />
<path d="M362.82 311.19l17.33 0l0 12.23l-17.33 0Z" id="p235w305" />
<path d="M382.85 311.19l11.25 0l0 12.23l-11.25 0Z" id="p235w306" />
<path d="M396.8 311.19l15.53 0l0 12.23l-15.53 0Z" id="p235w307" />
<path d="M270.44 326.48l48.55 0l0 12.23l-48.55 0Z" id="p235w308" />
<path d="M321.7 326.23l18.01 0l0 12.56l-18.01 0Z" id="p235w309" />
<path d="M260.6 341.76l8.33 0l0 12.23l-8.33 0Z" id="p235w310" />
<path d="M271.62 341.7l19.34 0l0 12.29l-19.34 0Z" id="p235w311" />
<path d="M296.82 340.66l20.96 0l0 13.77l-20.96 0Z" id="p235w312" />
<path d="M323.64 341.76l15.53 0l0 12.23l-15.53 0Z" id="p235w313" />
<path d="M341.87 341.76l34.45 0l0 12.23l-34.45 0Z" id="p235w314" />
<path d="M379.02 341.74l16.66 0l0 12.23l-16.66 0Z" id="p235w315" />
<path d="M398.38 341.74l42.19 0l0 12.23l-42.19 0Z" id="p235w316" />
<path d="M270.44 356.8l14.63 0l0 12.56l-14.63 0Z" id="p235w317" />
<path d="M260.6 372.33l17.56 0l0 12.23l-17.56 0Z" id="p235w318" />
<path d="M280.86 372.27l22.94 0l0 12.29l-22.94 0Z" id="p235w319" />
<path d="M309.66 371.23l30.21 0l0 13.77l-30.21 0Z" id="p235w320" />
<path d="M345.73 372.33l14.41 0l0 12.23l-14.41 0Z" id="p235w321" />
<path d="M362.61 372.33l23.11 0l0 12.23l-23.11 0Z" id="p235w322" />
<path d="M388.42 372.08l18.01 0l0 12.56l-18.01 0Z" id="p235w323" />
<path d="M260.6 387.61l11.94 0l0 12.23l-11.94 0Z" id="p235w324" />
<path d="M275.23 387.55l29.54 0l0 12.29l-29.54 0Z" id="p235w325" />
<path d="M310.64 386.51l26.84 0l0 13.77l-26.84 0Z" id="p235w326" />
<path d="M343.34 387.61l20.03 0l0 12.23l-20.03 0Z" id="p235w327" />
<path d="M366.07 387.61l36 0l0 12.23l-36 0Z" id="p235w328" />
<path d="M404.77 387.37l14.43 0l0 12.56l-14.43 0Z" id="p235w329" />
<path d="M260.6 402.89l17.56 0l0 12.23l-17.56 0Z" id="p235w330" />
<path d="M280.86 402.84l47.03 0l0 12.29l-47.03 0Z" id="p235w331" />
<path d="M333.74 401.79l51.91 0l0 13.77l-51.91 0Z" id="p235w332" />
<path d="M391.51 402.89l20.03 0l0 12.23l-20.03 0Z" id="p235w333" />
<path d="M270.44 418.18l52.41 0l0 12.23l-52.41 0Z" id="p235w334" />
<path d="M325.55 417.93l18.72 0l0 12.56l-18.72 0Z" id="p235w335" />
<path d="M260.6 433.4l17.4 0l0 12.29l-17.4 0Z" id="p235w336" />
<path d="M282.16 433.4l23.02 0l0 12.29l-23.02 0Z" id="p235w337" />
<path d="M311.04 432.36l34.31 0l0 13.77l-34.31 0Z" id="p235w338" />
<path d="M351.21 433.46l23.18 0l0 12.23l-23.18 0Z" id="p235w339" />
<path d="M377.08 433.22l18.92 0l0 12.56l-18.92 0Z" id="p235w340" />
<path d="M260.6 448.74l11.94 0l0 12.23l-11.94 0Z" id="p235w341" />
<path d="M275.23 448.69l15.52 0l0 12.29l-15.52 0Z" id="p235w342" />
<path d="M290.75 448.74l21.73 0l0 12.23l-21.73 0Z" id="p235w343" />
<path d="M315.18 448.69l20.8 0l0 12.29l-20.8 0Z" id="p235w344" />
<path d="M341.84 447.64l39.88 0l0 13.77l-39.88 0Z" id="p235w345" />
<path d="M387.58 448.74l14.41 0l0 12.23l-14.41 0Z" id="p235w346" />
<path d="M270.44 464.03l72.37 0l0 12.23l-72.37 0Z" id="p235w347" />
<path d="M345.15 464.03l44.35 0l0 12.23l-44.35 0Z" id="p235w348" />
<path d="M392.2 463.78l18.17 0l0 12.56l-18.17 0Z" id="p235w349" />
<path d="M270.44 479.31l21.37 0l0 12.23l-21.37 0Z" id="p235w350" />
<path d="M294.52 479.31l8.33 0l0 12.23l-8.33 0Z" id="p235w351" />
<path d="M305.55 479.31l15.32 0l0 12.23l-15.32 0Z" id="p235w352" />
<path d="M326.72 478.21l30.99 0l0 13.77l-30.99 0Z" id="p235w353" />
<path d="M363.57 479.31l32.65 0l0 12.23l-32.65 0Z" id="p235w354" />
<path d="M398.91 479.31l37.59 0l0 12.23l-37.59 0Z" id="p235w355" />
<path d="M270.44 494.35l18.17 0l0 12.56l-18.17 0Z" id="p235w356" />
<path d="M260.59 509.82l15.52 0l0 12.29l-15.52 0Z" id="p235w357" />
<path d="M280.28 509.82l12.36 0l0 12.29l-12.36 0Z" id="p235w358" />
<path d="M296.81 509.82l20.8 0l0 12.29l-20.8 0Z" id="p235w359" />
<path d="M323.46 508.78l38.08 0l0 13.77l-38.08 0Z" id="p235w360" />
<path d="M367.4 509.88l38.27 0l0 12.23l-38.27 0Z" id="p235w361" />
<path d="M408.37 509.63l18.72 0l0 12.56l-18.72 0Z" id="p235w362" />
<path d="M260.59 525.16l17.56 0l0 12.23l-17.56 0Z" id="p235w363" />
<path d="M280.86 525.11l26.51 0l0 12.29l-26.51 0Z" id="p235w364" />
<path d="M313.23 524.06l29.98 0l0 13.77l-29.98 0Z" id="p235w365" />
<path d="M349.06 525.16l20.03 0l0 12.23l-20.03 0Z" id="p235w366" />
<path d="M371.79 525.16l42.32 0l0 12.23l-42.32 0Z" id="p235w367" />
<path d="M416.81 524.92l14.63 0l0 12.56l-14.63 0Z" id="p235w368" />
<path d="M260.59 540.44l8.33 0l0 12.23l-8.33 0Z" id="p235w369" />
<path d="M271.62 540.39l37.21 0l0 12.29l-37.21 0Z" id="p235w370" />
<path d="M314.69 539.34l31.66 0l0 13.77l-31.66 0Z" id="p235w371" />
<path d="M352.21 540.44l54.49 0l0 12.23l-54.49 0Z" id="p235w372" />
<path d="M409.39 540.2l15.54 0l0 12.56l-15.54 0Z" id="p235w373" />
<path d="M270.44 555.73l11.7 0l0 12.23l-11.7 0Z" id="p235w374" />
<path d="M284.85 555.73l36.91 0l0 12.23l-36.91 0Z" id="p235w375" />
<path d="M327.62 554.63l29.48 0l0 13.77l-29.48 0Z" id="p235w376" />
<path d="M362.95 555.73l15.08 0l0 12.23l-15.08 0Z" id="p235w377" />
<path d="M380.74 555.73l54.49 0l0 12.23l-54.49 0Z" id="p235w378" />
<path d="M270.44 570.77l15.54 0l0 12.56l-15.54 0Z" id="p235w379" />
<path d="M270.44 586.29l8.33 0l0 12.23l-8.33 0Z" id="p235w380" />
<path d="M281.47 586.29l36.91 0l0 12.23l-36.91 0Z" id="p235w381" />
<path d="M321.08 586.29l36 0l0 12.23l-36 0Z" id="p235w382" />
<path d="M362.94 585.19l63.61 0l0 13.77l-63.61 0Z" id="p235w383" />
<path d="M270.44 601.58l14.41 0l0 12.23l-14.41 0Z" id="p235w384" />
<path d="M287.55 601.58l58.53 0l0 12.23l-58.53 0Z" id="p235w385" />
<path d="M348.78 601.58l81.37 0l0 12.23l-81.37 0Z" id="p235w386" />
<path d="M270.44 616.62l18.92 0l0 12.56l-18.92 0Z" id="p235w387" />
<path d="M260.59 632.09l76.88 0l0 12.29l-76.88 0Z" id="p235w388" />
<path d="M341.65 632.09l82.51 0l0 12.29l-82.51 0Z" id="p235w389" />
<path d="M273.6 646.33l107.75 0l0 13.77l-107.75 0Z" id="p235w390" />
<path d="M387.21 647.43l40.23 0l0 12.23l-40.23 0ZM270.44 662.71l52.91 0l0 12.23l-52.91 0Z" id="p235w391" />
<path d="M326.05 662.47l15.54 0l0 12.56l-15.54 0Z" id="p235w392" />
<path d="M260.59 677.94l59.47 0l0 12.29l-59.47 0Z" id="p235w393" />
<path d="M325.92 676.89l40.38 0l0 13.77l-40.38 0Z" id="p235w394" />
<path d="M270.44 693.28l92.7 0l0 12.23l-92.7 0Z" id="p235w395" />
<path d="M365.84 693.03l18.92 0l0 12.56l-18.92 0Z" id="p235w396" />
<path d="M260.59 708.51l40.83 0l0 12.29l-40.83 0Z" id="p235w397" />
<path d="M305.59 708.51l46.45 0l0 12.29l-46.45 0Z" id="p235w398" />
<path d="M357.9 707.46l57.17 0l0 13.77l-57.17 0Z" id="p235w399" />
<path d="M270.44 723.84l23.86 0l0 12.23l-23.86 0Z" id="p235w400" />
<path d="M303.03 723.6l18.92 0l0 12.56l-18.92 0Z" id="p235w401" />
<path d="M260.59 739.13l11.94 0l0 12.23l-11.94 0Z" id="p235w402" />
<path d="M275.23 739.07l22.6 0l0 12.29l-22.6 0Z" id="p235w403" />
<path d="M303.69 738.03l23.65 0l0 13.77l-23.65 0Z" id="p235w404" />
<path d="M333.2 739.13l14.41 0l0 12.23l-14.41 0Z" id="p235w405" />
<path d="M350.31 739.13l31.97 0l0 12.23l-31.97 0Z" id="p235w406" />
<path d="M384.97 738.88l15.54 0l0 12.56l-15.54 0Z" id="p235w407" />
<path d="M260.59 754.41l11.94 0l0 12.23l-11.94 0Z" id="p235w408" />
<path d="M275.23 754.36l22.14 0l0 12.29l-22.14 0Z" id="p235w409" />
<path d="M303.23 753.31l28.14 0l0 13.77l-28.14 0Z" id="p235w410" />
<path d="M337.23 754.41l14.41 0l0 12.23l-14.41 0Z" id="p235w411" />
<path d="M354.34 754.41l56.97 0l0 12.23l-56.97 0Z" id="p235w412" />
<path d="M414.01 754.17l15.54 0l0 12.56l-15.54 0Z" id="p235w413" />
<path d="M260.59 769.7l13.05 0l0 12.23l-13.05 0Z" id="p235w414" />
<path d="M276.35 769.64l38.8 0l0 12.29l-38.8 0Z" id="p235w415" />
<path d="M331.13 769.67l14.18 0l0 12.23l-14.18 0Z" id="p235w416" />
<path d="M348.02 769.67l27.91 0l0 12.23l-27.91 0Z" id="p235w417" />
<path d="M381.78 768.59l27.08 0l0 13.77l-27.08 0Z" id="p235w418" />
<path d="M414.72 769.7l14.41 0l0 12.23l-14.41 0Z" id="p235w419" />
<path d="M270.44 784.98l48.84 0l0 12.23l-48.84 0Z" id="p235w420" />
<path d="M321.98 784.96l25.65 0l0 12.23l-25.65 0Z" id="p235w421" />
<path d="M350.34 784.73l15.34 0l0 12.56l-15.34 0Z" id="p235w422" />
<path d="M260.59 800.26l16.43 0l0 12.23l-16.43 0Z" id="p235w423" />
<path d="M279.72 800.21l24.82 0l0 12.29l-24.82 0Z" id="p235w424" />
<path d="M320.53 800.24l14.18 0l0 12.23l-14.18 0Z" id="p235w425" />
<path d="M340.57 799.16l26.32 0l0 13.77l-26.32 0Z" id="p235w426" />
<path d="M372.75 800.26l40.51 0l0 12.23l-40.51 0Z" id="p235w427" />
<path d="M415.96 800.26l24.3 0l0 12.23l-24.3 0Z" id="p235w428" />
<path d="M270.44 815.3l18.01 0l0 12.56l-18.01 0Z" id="p235w429" />
<path d="M260.59 830.77l22.24 0l0 12.29l-22.24 0Z" id="p235w430" />
<path d="M287 830.77l27.87 0l0 12.29l-27.87 0Z" id="p235w431" />
<path d="M320.73 829.73l51.51 0l0 13.77l-51.51 0Z" id="p235w432" />
<path d="M378.09 830.83l17.33 0l0 12.23l-17.33 0Z" id="p235w433" />
<path d="M398.12 830.58l15.54 0l0 12.56l-15.54 0Z" id="p235w434" />
<path d="M270.44 846.11l5.86 0l0 12.23l-5.86 0Z" id="p235w435" />
<path d="M279 846.11l15.75 0l0 12.23l-15.75 0Z" id="p235w436" />
<path d="M297.45 846.11l24.1 0l0 12.23l-24.1 0Z" id="p235w437" />
<path d="M327.41 845.01l35.61 0l0 13.77l-35.61 0Z" id="p235w438" />
<path d="M368.88 846.11l10.58 0l0 12.23l-10.58 0Z" id="p235w439" />
<path d="M382.16 846.11l11.25 0l0 12.23l-11.25 0Z" id="p235w440" />
<path d="M396.11 846.11l19.58 0l0 12.23l-19.58 0Z" id="p235w441" />
<path d="M270.44 861.15l15.54 0l0 12.56l-15.54 0Z" id="p235w442" />
<path d="M260.59 876.68l8.33 0l0 12.23l-8.33 0Z" id="p235w443" />
<path d="M271.62 876.62l39.77 0l0 12.29l-39.77 0Z" id="p235w444" />
<path d="M317.25 875.58l41.26 0l0 13.77l-41.26 0Z" id="p235w445" />
<path d="M364.37 876.68l15.53 0l0 12.23l-15.53 0Z" id="p235w446" />
<path d="M382.6 876.68l22.05 0l0 12.23l-22.05 0Z" id="p235w447" />
<path d="M407.35 876.43l14.63 0l0 12.56l-14.63 0Z" id="p235w448" />
<path d="M260.59 891.96l17.56 0l0 12.23l-17.56 0Z" id="p235w449" />
<path d="M280.86 891.91l41.28 0l0 12.29l-41.28 0Z" id="p235w450" />
<path d="M328 890.86l41.63 0l0 13.77l-41.63 0Z" id="p235w451" />
<path d="M375.48 891.96l20.03 0l0 12.23l-20.03 0Z" id="p235w452" />
<path d="M398.21 891.96l33.09 0l0 12.23l-33.09 0Z" id="p235w453" />
<path d="M270.44 907l17.26 0l0 12.56l-17.26 0Z" id="p235w454" />
<path d="M471.96 112.51l18.9 0l0 12.23l-18.9 0Z" id="p235w455" />
<path d="M501.88 112.51l8.33 0l0 12.23l-8.33 0Z" id="p235w456" />
<path d="M512.91 112.51l40.74 0l0 12.23l-40.74 0Z" id="p235w457" />
<path d="M556.35 112.51l21.39 0l0 12.23l-21.39 0Z" id="p235w458" />
<path d="M475.12 126.69l77.55 0l0 13.77l-77.55 0Z" id="p235w459" />
<path d="M558.53 127.79l11.7 0l0 12.23l-11.7 0Z" id="p235w460" />
<path d="M572.93 127.79l15.53 0l0 12.23l-15.53 0Z" id="p235w461" />
<path d="M591.16 127.79l33.09 0l0 12.23l-33.09 0Z" id="p235w462" />
<path d="M471.96 143.08l28.76 0l0 12.23l-28.76 0Z" id="p235w463" />
<path d="M503.42 143.08l10.82 0l0 12.23l-10.82 0Z" id="p235w464" />
<path d="M516.93 142.83l17.26 0l0 12.56l-17.26 0Z" id="p235w465" />
<path d="M462.11 158.36l16.43 0l0 12.23l-16.43 0Z" id="p235w466" />
<path d="M481.24 158.3l25.16 0l0 12.29l-25.16 0Z" id="p235w467" />
<path d="M509.11 158.36l9.45 0l0 12.23l-9.45 0Z" id="p235w468" />
<path d="M521.26 158.36l39.78 0l0 12.23l-39.78 0Z" id="p235w469" />
<path d="M583.17 158.34l14.18 0l0 12.23l-14.18 0Z" id="p235w470" />
<path d="M475.12 172.54l62.02 0l0 13.77l-62.02 0Z" id="p235w471" />
<path d="M543 173.64l21.83 0l0 12.23l-21.83 0Z" id="p235w472" />
<path d="M567.53 173.64l18.02 0l0 12.23l-18.02 0Z" id="p235w473" />
<path d="M588.25 173.64l38.04 0l0 12.23l-38.04 0Z" id="p235w474" />
<path d="M628.99 173.4l14.63 0l0 12.56l-14.63 0Z" id="p235w475" />
<path d="M462.11 188.87l16.38 0l0 12.29l-16.38 0Z" id="p235w476" />
<path d="M484.36 187.83l17.85 0l0 13.77l-17.85 0Z" id="p235w477" />
<path d="M508.06 188.93l6.3 0l0 12.23l-6.3 0Z" id="p235w478" />
<path d="M514.37 188.93l28.55 0l0 12.23l-28.55 0Z" id="p235w479" />
<path d="M545.62 188.93l6.3 0l0 12.23l-6.3 0Z" id="p235w480" />
<path d="M551.92 188.93l32.42 0l0 12.23l-32.42 0Z" id="p235w481" />
<path d="M587.05 188.68l18.92 0l0 12.56l-18.92 0Z" id="p235w482" />
<path d="M462.11 204.21l8.33 0l0 12.23l-8.33 0Z" id="p235w483" />
<path d="M473.14 204.15l23.49 0l0 12.29l-23.49 0Z" id="p235w484" />
<path d="M502.48 203.11l31.04 0l0 13.77l-31.04 0Z" id="p235w485" />
<path d="M539.39 204.21l14.41 0l0 12.23l-14.41 0Z" id="p235w486" />
<path d="M556.49 204.21l36.02 0l0 12.23l-36.02 0Z" id="p235w487" />
<path d="M595.22 203.96l17.81 0l0 12.56l-17.81 0Z" id="p235w488" />
<path d="M462.11 257.65l33 0l0 12.29l-33 0Z" id="p235w489" />
<path d="M497.81 257.7l18.24 0l0 12.23l-18.24 0Z" id="p235w490" />
<path d="M521.91 256.6l22.02 0l0 13.77l-22.02 0Z" id="p235w491" />
<path d="M549.79 257.7l26.64 0l0 12.23l-26.64 0Z" id="p235w492" />
<path d="M579.13 257.7l46.54 0l0 12.23l-46.54 0Z" id="p235w493" />
<path d="M471.96 272.74l19.58 0l0 12.56l-19.58 0Z" id="p235w494" />
<path d="M462.11 288.21l37.79 0l0 12.29l-37.79 0Z" id="p235w495" />
<path d="M502.61 288.27l11.04 0l0 12.23l-11.04 0Z" id="p235w496" />
<path d="M519.5 287.17l33.96 0l0 13.77l-33.96 0Z" id="p235w497" />
<path d="M559.32 288.27l19.44 0l0 12.23l-19.44 0Z" id="p235w498" />
<path d="M581.46 288.27l54.63 0l0 12.23l-54.63 0Z" id="p235w499" />
<path d="M471.96 303.31l18.92 0l0 12.56l-18.92 0Z" id="p235w500" />
<path d="M462.11 318.83l11.94 0l0 12.23l-11.94 0Z" id="p235w501" />
<path d="M476.75 318.78l31.96 0l0 12.29l-31.96 0Z" id="p235w502" />
<path d="M514.57 317.73l30.21 0l0 13.77l-30.21 0Z" id="p235w503" />
<path d="M550.63 318.83l14.41 0l0 12.23l-14.41 0Z" id="p235w504" />
<path d="M567.74 318.83l26.74 0l0 12.23l-26.74 0Z" id="p235w505" />
<path d="M597.18 318.59l15.54 0l0 12.56l-15.54 0Z" id="p235w506" />
<path d="M462.11 334.06l30.92 0l0 12.29l-30.92 0Z" id="p235w507" />
<path d="M495.74 334.12l11.04 0l0 12.23l-11.04 0Z" id="p235w508" />
<path d="M512.63 333.02l27.33 0l0 13.77l-27.33 0Z" id="p235w509" />
<path d="M545.82 334.12l19.44 0l0 12.23l-19.44 0Z" id="p235w510" />
<path d="M567.96 334.12l41.64 0l0 12.23l-41.64 0Z" id="p235w511" />
<path d="M612.3 333.87l18.92 0l0 12.56l-18.92 0Z" id="p235w512" />
<path d="M462.11 349.4l17.56 0l0 12.23l-17.56 0Z" id="p235w513" />
<path d="M482.38 349.35l20.96 0l0 12.29l-20.96 0Z" id="p235w514" />
<path d="M509.2 348.3l27.68 0l0 13.77l-27.68 0Z" id="p235w515" />
<path d="M542.73 349.4l14.41 0l0 12.23l-14.41 0Z" id="p235w516" />
<path d="M559.84 349.4l40.08 0l0 12.23l-40.08 0Z" id="p235w517" />
<path d="M602.62 349.16l19.58 0l0 12.56l-19.58 0Z" id="p235w518" />
<path d="M462.11 364.68l11.94 0l0 12.23l-11.94 0Z" id="p235w519" />
<path d="M476.75 364.63l32.69 0l0 12.29l-32.69 0Z" id="p235w520" />
<path d="M509.44 364.68l20.6 0l0 12.23l-20.6 0Z" id="p235w521" />
<path d="M532.74 364.63l37.95 0l0 12.29l-37.95 0Z" id="p235w522" />
<path d="M576.54 363.58l58.48 0l0 13.77l-58.48 0Z" id="p235w523" />
<path d="M471.96 379.97l14.41 0l0 12.23l-14.41 0Z" id="p235w524" />
<path d="M489.07 379.97l73.53 0l0 12.23l-73.53 0Z" id="p235w525" />
<path d="M565.3 379.72l15.54 0l0 12.56l-15.54 0Z" id="p235w526" />
<path d="M470.44 395.2l33.8 0l0 12.29l-33.8 0Z" id="p235w527" />
<path d="M510.1 394.15l19.58 0l0 13.77l-19.58 0Z" id="p235w528" />
<path d="M535.54 395.25l29.94 0l0 12.23l-29.94 0Z" id="p235w529" />
<path d="M568.19 395.25l21.39 0l0 12.23l-21.39 0Z" id="p235w530" />
<path d="M592.27 395.01l15.54 0l0 12.56l-15.54 0Z" id="p235w531" />
<path d="M462.11 410.53l17.56 0l0 12.23l-17.56 0Z" id="p235w532" />
<path d="M482.38 410.48l30.63 0l0 12.29l-30.63 0Z" id="p235w533" />
<path d="M518.87 409.43l31.8 0l0 13.77l-31.8 0Z" id="p235w534" />
<path d="M556.52 410.53l20.03 0l0 12.23l-20.03 0Z" id="p235w535" />
<path d="M579.03 410.53l29.86 0l0 12.23l-29.86 0Z" id="p235w536" />
<path d="M611.59 410.29l18.01 0l0 12.56l-18.01 0Z" id="p235w537" />
<path d="M462.11 425.82l11.94 0l0 12.23l-11.94 0Z" id="p235w538" />
<path d="M476.75 425.76l22.78 0l0 12.29l-22.78 0Z" id="p235w539" />
<path d="M505.38 424.72l18.98 0l0 13.77l-18.98 0Z" id="p235w540" />
<path d="M530.23 425.82l14.41 0l0 12.23l-14.41 0Z" id="p235w541" />
<path d="M547.33 425.82l70.23 0l0 12.23l-70.23 0Z" id="p235w542" />
<path d="M471.96 440.86l18.92 0l0 12.56l-18.92 0Z" id="p235w543" />
<path d="M462.11 456.33l23.21 0l0 12.29l-23.21 0Z" id="p235w544" />
<path d="M489.49 456.33l28.83 0l0 12.29l-28.83 0Z" id="p235w545" />
<path d="M524.18 455.28l44.54 0l0 13.77l-44.54 0Z" id="p235w546" />
<path d="M574.58 456.39l40.68 0l0 12.23l-40.68 0Z" id="p235w547" />
<path d="M471.96 471.42l18.72 0l0 12.56l-18.72 0Z" id="p235w548" />
<path d="M462.11 486.9l28.84 0l0 12.29l-28.84 0Z" id="p235w549" />
<path d="M495.12 486.9l34.47 0l0 12.29l-34.47 0Z" id="p235w550" />
<path d="M535.45 485.85l56.14 0l0 13.77l-56.14 0Z" id="p235w551" />
<path d="M597.45 486.95l31.2 0l0 12.23l-31.2 0Z" id="p235w552" />
<path d="M471.96 502.24l46.23 0l0 12.23l-46.23 0Z" id="p235w553" />
<path d="M520.89 502.24l26.11 0l0 12.23l-26.11 0Z" id="p235w554" />
<path d="M549.7 501.99l18.17 0l0 12.56l-18.17 0Z" id="p235w555" />
<path d="M462.11 517.52l11.94 0l0 12.23l-11.94 0Z" id="p235w556" />
<path d="M476.75 517.46l26.02 0l0 12.29l-26.02 0Z" id="p235w557" />
<path d="M508.63 516.42l23.46 0l0 13.77l-23.46 0Z" id="p235w558" />
<path d="M537.95 517.52l14.41 0l0 12.23l-14.41 0Z" id="p235w559" />
<path d="M555.06 517.52l27.01 0l0 12.23l-27.01 0Z" id="p235w560" />
<path d="M584.77 517.27l18.01 0l0 12.56l-18.01 0Z" id="p235w561" />
<path d="M462.11 532.8l11.94 0l0 12.23l-11.94 0Z" id="p235w562" />
<path d="M476.75 532.75l27.03 0l0 12.29l-27.03 0Z" id="p235w563" />
<path d="M509.64 531.7l20.66 0l0 13.77l-20.66 0Z" id="p235w564" />
<path d="M536.16 532.8l20.03 0l0 12.23l-20.03 0Z" id="p235w565" />
<path d="M558.89 532.8l16.62 0l0 12.23l-16.62 0Z" id="p235w566" />
<path d="M578.21 532.8l20.03 0l0 12.23l-20.03 0Z" id="p235w567" />
<path d="M600.94 532.8l38.21 0l0 12.23l-38.21 0Z" id="p235w568" />
<path d="M471.96 547.84l18.92 0l0 12.56l-18.92 0Z" id="p235w569" />
<path d="M462.11 563.37l13.05 0l0 12.23l-13.05 0Z" id="p235w570" />
<path d="M477.86 563.31l22.42 0l0 12.29l-22.42 0Z" id="p235w571" />
<path d="M522.41 563.35l14.18 0l0 12.23l-14.18 0Z" id="p235w572" />
<path d="M542.45 562.27l18.66 0l0 13.77l-18.66 0Z" id="p235w573" />
<path d="M566.97 563.37l14.41 0l0 12.23l-14.41 0Z" id="p235w574" />
<path d="M584.08 563.37l26.11 0l0 12.23l-26.11 0Z" id="p235w575" />
<path d="M612.89 563.12l15.54 0l0 12.56l-15.54 0Z" id="p235w576" />
<path d="M462.11 578.6l27.15 0l0 12.29l-27.15 0Z" id="p235w577" />
<path d="M493.44 578.6l35.59 0l0 12.29l-35.59 0Z" id="p235w578" />
<path d="M534.88 577.55l39.13 0l0 13.77l-39.13 0Z" id="p235w579" />
<path d="M579.87 578.65l19.35 0l0 12.23l-19.35 0Z" id="p235w580" />
<path d="M601.92 578.41l18.17 0l0 12.56l-18.17 0Z" id="p235w581" />
<path d="M462.11 593.88l49.25 0l0 12.29l-49.25 0Z" id="p235w582" />
<path d="M517.22 592.84l32.17 0l0 13.77l-32.17 0Z" id="p235w583" />
<path d="M555.25 593.94l19.35 0l0 12.23l-19.35 0Z" id="p235w584" />
<path d="M577.3 593.69l18.92 0l0 12.56l-18.92 0Z" id="p235w585" />
<path d="M462.11 609.22l11.94 0l0 12.23l-11.94 0Z" id="p235w586" />
<path d="M476.75 609.16l25.91 0l0 12.29l-25.91 0Z" id="p235w587" />
<path d="M508.52 608.12l21.65 0l0 13.77l-21.65 0Z" id="p235w588" />
<path d="M536.03 609.22l20.03 0l0 12.23l-20.03 0Z" id="p235w589" />
<path d="M558.76 609.22l26.78 0l0 12.23l-26.78 0Z" id="p235w590" />
<path d="M588.24 608.97l18.92 0l0 12.56l-18.92 0Z" id="p235w591" />
<path d="M462.11 624.5l17.56 0l0 12.23l-17.56 0Z" id="p235w592" />
<path d="M482.38 624.45l24.56 0l0 12.29l-24.56 0Z" id="p235w593" />
<path d="M512.8 623.4l29.31 0l0 13.77l-29.31 0Z" id="p235w594" />
<path d="M547.97 624.5l14.41 0l0 12.23l-14.41 0Z" id="p235w595" />
<path d="M565.07 624.5l13.28 0l0 12.23l-13.28 0Z" id="p235w596" />
<path d="M581.06 624.26l15.34 0l0 12.56l-15.34 0Z" id="p235w597" />
<path d="M462.11 639.73l30.7 0l0 12.29l-30.7 0Z" id="p235w598" />
<path d="M498.67 638.69l21.15 0l0 13.77l-21.15 0Z" id="p235w599" />
<path d="M525.68 639.79l35.02 0l0 12.23l-35.02 0Z" id="p235w600" />
<path d="M563.4 639.79l40.97 0l0 12.23l-40.97 0Z" id="p235w601" />
<path d="M607.08 639.54l15.54 0l0 12.56l-15.54 0Z" id="p235w602" />
<path d="M462.11 655.07l8.33 0l0 12.23l-8.33 0Z" id="p235w603" />
<path d="M473.14 655.01l27.05 0l0 12.29l-27.05 0Z" id="p235w604" />
<path d="M506.05 653.97l29.03 0l0 13.77l-29.03 0Z" id="p235w605" />
<path d="M540.94 655.07l15.53 0l0 12.23l-15.53 0Z" id="p235w606" />
<path d="M559.17 655.07l20.25 0l0 12.23l-20.25 0Z" id="p235w607" />
<path d="M582.12 654.83l18.92 0l0 12.56l-18.92 0Z" id="p235w608" />
<path d="M462.11 670.3l31.17 0l0 12.29l-31.17 0Z" id="p235w609" />
<path d="M495.98 670.35l11.04 0l0 12.23l-11.04 0Z" id="p235w610" />
<path d="M512.88 669.25l20.06 0l0 13.77l-20.06 0Z" id="p235w611" />
<path d="M538.8 670.35l19.44 0l0 12.23l-19.44 0Z" id="p235w612" />
<path d="M560.94 670.35l45.47 0l0 12.23l-45.47 0Z" id="p235w613" />
<path d="M609.11 670.11l18.92 0l0 12.56l-18.92 0Z" id="p235w614" />
<path d="M462.11 685.64l8.33 0l0 12.23l-8.33 0Z" id="p235w615" />
<path d="M473.14 685.58l19.04 0l0 12.29l-19.04 0Z" id="p235w616" />
<path d="M498.04 684.54l37.53 0l0 13.77l-37.53 0Z" id="p235w617" />
<path d="M541.43 685.64l16.43 0l0 12.23l-16.43 0Z" id="p235w618" />
<path d="M560.56 685.64l21.14 0l0 12.23l-21.14 0Z" id="p235w619" />
<path d="M584.4 685.64l16.43 0l0 12.23l-16.43 0Z" id="p235w620" />
<path d="M603.53 685.64l20.71 0l0 12.23l-20.71 0Z" id="p235w621" />
<path d="M471.96 700.68l15.54 0l0 12.56l-15.54 0Z" id="p235w622" />
<path d="M462.11 716.2l11.94 0l0 12.23l-11.94 0Z" id="p235w623" />
<path d="M476.75 716.15l39.56 0l0 12.29l-39.56 0Z" id="p235w624" />
<path d="M519.01 716.2l18.91 0l0 12.23l-18.91 0Z" id="p235w625" />
<path d="M543.78 715.1l30.26 0l0 13.77l-30.26 0Z" id="p235w626" />
<path d="M579.89 716.2l14.41 0l0 12.23l-14.41 0Z" id="p235w627" />
<path d="M597 716.2l34.66 0l0 12.23l-34.66 0Z" id="p235w628" />
<path d="M471.96 731.24l15.54 0l0 12.56l-15.54 0Z" id="p235w629" />
<path d="M462.11 746.71l27.55 0l0 12.29l-27.55 0Z" id="p235w630" />
<path d="M493.84 746.71l33.18 0l0 12.29l-33.18 0Z" id="p235w631" />
<path d="M532.87 745.67l42.64 0l0 13.77l-42.64 0Z" id="p235w632" />
<path d="M581.37 746.77l21.79 0l0 12.23l-21.79 0Z" id="p235w633" />
<path d="M605.85 746.53l15.54 0l0 12.56l-15.54 0Z" id="p235w634" />
<path d="M462.11 762.05l17.56 0l0 12.23l-17.56 0Z" id="p235w635" />
<path d="M482.38 762l55.07 0l0 12.29l-55.07 0Z" id="p235w636" />
<path d="M543.31 760.95l47.91 0l0 13.77l-47.91 0Z" id="p235w637" />
<path d="M597.07 762.05l20.03 0l0 12.23l-20.03 0Z" id="p235w638" />
<path d="M471.96 777.34l54.92 0l0 12.23l-54.92 0Z" id="p235w639" />
<path d="M529.58 777.09l18.17 0l0 12.56l-18.17 0Z" id="p235w640" />
<path d="M462.11 792.62l13.05 0l0 12.23l-13.05 0Z" id="p235w641" />
<path d="M477.86 792.56l71.58 0l0 12.29l-71.58 0Z" id="p235w642" />
<path d="M571.57 792.6l14.18 0l0 12.23l-14.18 0Z" id="p235w643" />
<path d="M591.61 791.52l47.71 0l0 13.77l-47.71 0Z" id="p235w644" />
<path d="M471.96 807.9l14.41 0l0 12.23l-14.41 0Z" id="p235w645" />
<path d="M489.07 807.9l50.42 0l0 12.23l-50.42 0Z" id="p235w646" />
<path d="M542.19 807.66l18.17 0l0 12.56l-18.17 0Z" id="p235w647" />
<path d="M462.11 823.19l11.94 0l0 12.23l-11.94 0Z" id="p235w648" />
<path d="M476.75 823.13l47.91 0l0 12.29l-47.91 0Z" id="p235w649" />
<path d="M530.52 822.09l38.76 0l0 13.77l-38.76 0Z" id="p235w650" />
<path d="M575.13 823.19l14.41 0l0 12.23l-14.41 0Z" id="p235w651" />
<path d="M471.96 838.47l67.08 0l0 12.23l-67.08 0Z" id="p235w652" />
<path d="M541.74 838.23l18.01 0l0 12.56l-18.01 0Z" id="p235w653" />
<path d="M462.11 853.7l32.09 0l0 12.29l-32.09 0Z" id="p235w654" />
<path d="M498.37 853.7l37.71 0l0 12.29l-37.71 0Z" id="p235w655" />
<path d="M541.94 852.65l63.66 0l0 13.77l-63.66 0Z" id="p235w656" />
<path d="M611.46 853.75l28.94 0l0 12.23l-28.94 0Z" id="p235w657" />
<path d="M471.96 869.04l44.57 0l0 12.23l-44.57 0Z" id="p235w658" />
<path d="M519.23 868.79l18.92 0l0 12.56l-18.92 0Z" id="p235w659" />
<path d="M462.11 884.27l26.09 0l0 12.29l-26.09 0Z" id="p235w660" />
<path d="M494.06 883.22l21.1 0l0 13.77l-21.1 0Z" id="p235w661" />
<path d="M521.01 884.32l41.19 0l0 12.23l-41.19 0Z" id="p235w662" />
<path d="M564.91 884.3l25.65 0l0 12.23l-25.65 0Z" id="p235w663" />
<path d="M595.71 884.32l39.61 0l0 12.23l-39.61 0Z" id="p235w664" />
<path d="M471.96 899.36l15.54 0l0 12.56l-15.54 0Z" id="p235w665" />
<path d="M471.96 914.89l22.05 0l0 12.23l-22.05 0Z" id="p235w666" />
<path d="M496.71 914.89l26.05 0l0 12.23l-26.05 0Z" id="p235w667" />
<path d="M534.48 913.79l29.86 0l0 13.77l-29.86 0Z" id="p235w668" />
<path d="M570.2 914.89l17.33 0l0 12.23l-17.33 0Z" id="p235w669" />
<path d="M590.23 914.89l11.25 0l0 12.23l-11.25 0Z" id="p235w670" />
<path d="M471.96 930.17l42.77 0l0 12.23l-42.77 0Z" id="p235w671" />
<path d="M517.43 929.93l15.54 0l0 12.56l-15.54 0Z" id="p235w672" />
</svg>
