<?xml version="1.0" encoding="UTF-8"?>
<svg xmlns="http://www.w3.org/2000/svg" xmlns:xlink="http://www.w3.org/1999/xlink" version="1.1" baseProfile="full" width="768" height="1024" viewBox="0,0,768,1024" preserveAspectRatio="xMinYMin meet" >
<style type="text/css">
<![CDATA[
path {fill-opacity: 0.5;fill: #00aeef;visibility: hidden;}
]]>
</style>
<path d="M124.06 38.6l71 0l0 16.09l-71 0Z" id="p224w1" />
<path d="M78.77 983.66l98.57 0l0 12.23l-98.57 0Z" id="p224w2" />
<path d="M124.06 110.01l40.57 0l0 14.6l-40.57 0Z" id="p224w3" />
<path d="M167.94 108.77l43.31 0l0 16.35l-43.31 0Z" id="p224w4" />
<path d="M297.36 110.09l21.92 0l0 14.52l-21.92 0Z" id="p224w5" />
<path d="M322.49 110.09l36.36 0l0 14.52l-36.36 0Z" id="p224w6" />
<path d="M124.06 130.72l23.09 0l0 14.6l-23.09 0Z" id="p224w7" />
<path d="M150.35 130.72l14.41 0l0 14.6l-14.41 0Z" id="p224w8" />
<path d="M168.07 129.48l26.12 0l0 16.35l-26.12 0Z" id="p224w9" />
<path d="M297.36 130.8l20.06 0l0 14.52l-20.06 0Z" id="p224w10" />
<path d="M320.63 130.8l29.94 0l0 14.52l-29.94 0Z" id="p224w11" />
<path d="M124.06 151.43l24.1 0l0 14.6l-24.1 0Z" id="p224w12" />
<path d="M151.37 151.43l16.27 0l0 14.6l-16.27 0Z" id="p224w13" />
<path d="M178.26 150.19l30.71 0l0 16.35l-30.71 0Z" id="p224w14" />
<path d="M297.36 151.51l29.41 0l0 14.52l-29.41 0Z" id="p224w15" />
<path d="M329.97 151.51l27.8 0l0 14.52l-27.8 0Z" id="p224w16" />
<path d="M360.98 151.51l31.82 0l0 14.52l-31.82 0Z" id="p224w17" />
<path d="M124.06 172.14l14.31 0l0 14.6l-14.31 0Z" id="p224w18" />
<path d="M141.58 172.14l59.01 0l0 14.6l-59.01 0Z" id="p224w19" />
<path d="M203.8 172.14l47.39 0l0 14.6l-47.39 0Z" id="p224w20" />
<path d="M124.06 187.57l120.4 0l0 16.35l-120.4 0Z" id="p224w21" />
<path d="M297.36 172.22l17.11 0l0 14.52l-17.11 0Z" id="p224w22" />
<path d="M317.67 172.22l56.92 0l0 14.52l-56.92 0Z" id="p224w23" />
<path d="M377.79 172.22l17.11 0l0 14.52l-17.11 0Z" id="p224w24" />
<path d="M398.11 172.22l38.77 0l0 14.52l-38.77 0Z" id="p224w25" />
<path d="M482.46 172.22l15.6 0l0 14.52l-15.6 0Z" id="p224w26" />
<path d="M501.27 172.22l36.89 0l0 14.52l-36.89 0Z" id="p224w27" />
<path d="M541.37 172.22l23.97 0l0 14.52l-23.97 0Z" id="p224w28" />
<path d="M568.55 172.22l37.17 0l0 14.52l-37.17 0Z" id="p224w29" />
<path d="M608.92 172.22l58.28 0l0 14.52l-58.28 0Z" id="p224w30" />
<path d="M482.46 188.89l49.72 0l0 14.52l-49.72 0Z" id="p224w31" />
<path d="M124.06 206.96l14.31 0l0 14.6l-14.31 0Z" id="p224w32" />
<path d="M141.58 206.96l29.41 0l0 14.6l-29.41 0Z" id="p224w33" />
<path d="M174.28 205.72l37.43 0l0 16.35l-37.43 0Z" id="p224w34" />
<path d="M297.36 207.04l17.11 0l0 14.52l-17.11 0Z" id="p224w35" />
<path d="M317.67 207.04l31.01 0l0 14.52l-31.01 0Z" id="p224w36" />
<path d="M482.46 207.04l12.83 0l0 14.52l-12.83 0Z" id="p224w37" />
<path d="M498.5 207.04l22.73 0l0 14.52l-22.73 0Z" id="p224w38" />
<path d="M534.32 207.04l34.23 0l0 14.52l-34.23 0Z" id="p224w39" />
<path d="M571.76 207.04l9.89 0l0 14.52l-9.89 0Z" id="p224w40" />
<path d="M584.85 207.04l29.67 0l0 14.52l-29.67 0Z" id="p224w41" />
<path d="M617.73 207.04l25.67 0l0 14.52l-25.67 0Z" id="p224w42" />
<path d="M482.46 223.71l64.72 0l0 14.52l-64.72 0Z" id="p224w43" />
<path d="M500.19 240.41l29.33 0l0 14.61l-29.33 0Z" id="p224w44" />
<path d="M124.06 258.47l61.72 0l0 14.6l-61.72 0Z" id="p224w45" />
<path d="M188.99 258.47l12.67 0l0 14.6l-12.67 0Z" id="p224w46" />
<path d="M204.96 257.23l59.32 0l0 16.35l-59.32 0Z" id="p224w47" />
<path d="M297.35 258.55l23.09 0l0 14.52l-23.09 0Z" id="p224w48" />
<path d="M323.65 258.55l66.79 0l0 14.52l-66.79 0Z" id="p224w49" />
<path d="M297.35 275.22l23.09 0l0 14.52l-23.09 0Z" id="p224w50" />
<path d="M323.65 275.22l67.91 0l0 14.52l-67.91 0Z" id="p224w51" />
<path d="M482.46 258.55l49.44 0l0 14.52l-49.44 0Z" id="p224w52" />
<path d="M545 258.55l56.85 0l0 14.52l-56.85 0Z" id="p224w53" />
<path d="M605.06 258.55l12.29 0l0 14.52l-12.29 0Z" id="p224w54" />
<path d="M620.55 258.55l50.5 0l0 14.52l-50.5 0Z" id="p224w55" />
<path d="M674.26 258.55l30.21 0l0 14.52l-30.21 0Z" id="p224w56" />
<path d="M482.46 275.22l26.73 0l0 14.52l-26.73 0Z" id="p224w57" />
<path d="M512.4 275.22l12.29 0l0 14.52l-12.29 0Z" id="p224w58" />
<path d="M527.89 275.22l51.86 0l0 14.52l-51.86 0Z" id="p224w59" />
<path d="M124.06 293.29l25.65 0l0 14.6l-25.65 0Z" id="p224w60" />
<path d="M152.91 293.29l52.06 0l0 14.6l-52.06 0Z" id="p224w61" />
<path d="M218.08 293.29l12.67 0l0 14.6l-12.67 0Z" id="p224w62" />
<path d="M124.06 308.72l56.32 0l0 16.35l-56.32 0Z" id="p224w63" />
<path d="M297.35 293.37l17.91 0l0 14.52l-17.91 0Z" id="p224w64" />
<path d="M318.47 293.37l23.09 0l0 14.52l-23.09 0Z" id="p224w65" />
<path d="M344.77 293.37l59.83 0l0 14.52l-59.83 0Z" id="p224w66" />
<path d="M297.35 310.04l23.09 0l0 14.52l-23.09 0Z" id="p224w67" />
<path d="M323.65 310.04l52.12 0l0 14.52l-52.12 0Z" id="p224w68" />
<path d="M482.46 293.37l21.65 0l0 14.52l-21.65 0Z" id="p224w69" />
<path d="M507.32 293.37l51.58 0l0 14.52l-51.58 0Z" id="p224w70" />
<path d="M571.99 293.37l18.72 0l0 14.52l-18.72 0Z" id="p224w71" />
<path d="M593.92 293.37l18.18 0l0 14.52l-18.18 0Z" id="p224w72" />
<path d="M500.69 310.05l52.22 0l0 14.61l-52.22 0Z" id="p224w73" />
<path d="M124.06 328.11l10.02 0l0 14.6l-10.02 0Z" id="p224w74" />
<path d="M137.28 328.11l19.9 0l0 14.6l-19.9 0Z" id="p224w75" />
<path d="M160.49 326.87l29.5 0l0 16.35l-29.5 0Z" id="p224w76" />
<path d="M297.35 328.19l18.44 0l0 14.52l-18.44 0Z" id="p224w77" />
<path d="M319 328.19l34.38 0l0 14.52l-34.38 0Z" id="p224w78" />
<path d="M356.59 328.19l18.44 0l0 14.52l-18.44 0Z" id="p224w79" />
<path d="M377.88 328.19l19.53 0l0 14.52l-19.53 0Z" id="p224w80" />
<path d="M482.46 328.19l12.41 0l0 14.52l-12.41 0Z" id="p224w81" />
<path d="M498.07 328.19l26.74 0l0 14.52l-26.74 0Z" id="p224w82" />
<path d="M528.02 328.19l38.24 0l0 14.52l-38.24 0Z" id="p224w83" />
<path d="M569.47 328.19l9.89 0l0 14.52l-9.89 0Z" id="p224w84" />
<path d="M582.56 328.19l19.79 0l0 14.52l-19.79 0Z" id="p224w85" />
<path d="M124.06 348.82l14.31 0l0 14.6l-14.31 0Z" id="p224w86" />
<path d="M141.57 348.82l50.2 0l0 14.6l-50.2 0Z" id="p224w87" />
<path d="M195.07 347.58l47.31 0l0 16.35l-47.31 0Z" id="p224w88" />
<path d="M297.35 348.92l17.11 0l0 14.52l-17.11 0Z" id="p224w89" />
<path d="M317.67 348.92l39.57 0l0 14.52l-39.57 0Z" id="p224w90" />
<path d="M360.44 348.9l31.81 0l0 14.52l-31.81 0Z" id="p224w91" />
<path d="M297.35 365.6l23.79 0l0 14.52l-23.79 0Z" id="p224w92" />
<path d="M324.34 365.6l50.18 0l0 14.52l-50.18 0Z" id="p224w93" />
<path d="M482.46 348.9l6.96 0l0 14.52l-6.96 0Z" id="p224w94" />
<path d="M502.51 348.9l24.33 0l0 14.52l-24.33 0Z" id="p224w95" />
<path d="M530.04 348.9l19.51 0l0 14.52l-19.51 0Z" id="p224w96" />
<path d="M552.76 348.9l37.68 0l0 14.52l-37.68 0Z" id="p224w97" />
<path d="M603.54 348.9l49.45 0l0 14.52l-49.45 0Z" id="p224w98" />
<path d="M656.19 348.9l25.67 0l0 14.52l-25.67 0Z" id="p224w99" />
<path d="M482.46 365.57l9.89 0l0 14.52l-9.89 0Z" id="p224w100" />
<path d="M495.55 365.57l52.86 0l0 14.52l-52.86 0Z" id="p224w101" />
<path d="M500.19 382.18l14.31 0l0 14.6l-14.31 0Z" id="p224w102" />
<path d="M517.7 382.26l50.16 0l0 14.61l-50.16 0Z" id="p224w103" />
<path d="M592 382.18l23.92 0l0 14.6l-23.92 0Z" id="p224w104" />
<path d="M619.13 382.26l50.7 0l0 14.61l-50.7 0Z" id="p224w105" />
<path d="M124.06 400.32l20.99 0l0 14.6l-20.99 0Z" id="p224w106" />
<path d="M148.25 400.32l36.63 0l0 14.6l-36.63 0Z" id="p224w107" />
<path d="M188.18 399.08l39.37 0l0 16.35l-39.37 0Z" id="p224w108" />
<path d="M297.35 400.4l17.11 0l0 14.52l-17.11 0Z" id="p224w109" />
<path d="M317.67 400.4l31.01 0l0 14.52l-31.01 0Z" id="p224w110" />
<path d="M482.46 400.4l35.28 0l0 14.52l-35.28 0Z" id="p224w111" />
<path d="M520.95 400.4l16.83 0l0 14.52l-16.83 0Z" id="p224w112" />
<path d="M540.99 400.4l11.22 0l0 14.52l-11.22 0Z" id="p224w113" />
<path d="M555.41 400.4l36.89 0l0 14.52l-36.89 0Z" id="p224w114" />
<path d="M595.51 400.4l47.29 0l0 14.52l-47.29 0Z" id="p224w115" />
<path d="M124.06 421.03l14.31 0l0 14.6l-14.31 0Z" id="p224w116" />
<path d="M141.57 421.03l17.11 0l0 14.6l-17.11 0Z" id="p224w117" />
<path d="M161.89 421.03l13.87 0l0 14.6l-13.87 0Z" id="p224w118" />
<path d="M178.97 421.03l39.55 0l0 14.6l-39.55 0Z" id="p224w119" />
<path d="M124.06 436.46l75.39 0l0 16.35l-75.39 0Z" id="p224w120" />
<path d="M297.35 421.1l17.11 0l0 14.52l-17.11 0Z" id="p224w121" />
<path d="M317.67 421.1l99.42 0l0 14.52l-99.42 0Z" id="p224w122" />
<path d="M124.06 455.83l66.48 0l0 14.6l-66.48 0Z" id="p224w123" />
<path d="M193.84 454.59l51.86 0l0 16.35l-51.86 0Z" id="p224w124" />
<path d="M297.35 455.91l46.95 0l0 14.52l-46.95 0Z" id="p224w125" />
<path d="M347.51 455.91l37.17 0l0 14.52l-37.17 0Z" id="p224w126" />
<path d="M482.46 455.91l31.55 0l0 14.52l-31.55 0Z" id="p224w127" />
<path d="M517.21 455.91l11.5 0l0 14.52l-11.5 0Z" id="p224w128" />
<path d="M531.92 455.91l28.87 0l0 14.52l-28.87 0Z" id="p224w129" />
<path d="M124.06 476.54l10.02 0l0 14.6l-10.02 0Z" id="p224w130" />
<path d="M137.28 476.54l38.96 0l0 14.6l-38.96 0Z" id="p224w131" />
<path d="M179.55 475.3l46.91 0l0 16.35l-46.91 0Z" id="p224w132" />
<path d="M297.35 476.62l19.51 0l0 14.52l-19.51 0Z" id="p224w133" />
<path d="M320.07 476.62l43.04 0l0 14.52l-43.04 0Z" id="p224w134" />
<path d="M500.69 476.57l41.16 0l0 14.61l-41.16 0Z" id="p224w135" />
<path d="M544.88 476.57l18.97 0l0 14.61l-18.97 0Z" id="p224w136" />
<path d="M124.06 497.26l27.6 0l0 14.6l-27.6 0Z" id="p224w137" />
<path d="M154.87 497.26l41.74 0l0 14.6l-41.74 0Z" id="p224w138" />
<path d="M199.81 497.26l13.87 0l0 14.6l-13.87 0Z" id="p224w139" />
<path d="M216.89 497.26l32.19 0l0 14.6l-32.19 0Z" id="p224w140" />
<path d="M124.06 512.69l72.4 0l0 16.35l-72.4 0Z" id="p224w141" />
<path d="M297.35 497.34l48.1 0l0 14.52l-48.1 0Z" id="p224w142" />
<path d="M348.66 497.34l80.16 0l0 14.52l-80.16 0Z" id="p224w143" />
<path d="M297.35 514.01l48.1 0l0 14.52l-48.1 0Z" id="p224w144" />
<path d="M348.66 514.01l39.02 0l0 14.52l-39.02 0Z" id="p224w145" />
<path d="M482.46 497.34l15.6 0l0 14.52l-15.6 0Z" id="p224w146" />
<path d="M501.27 497.34l41.43 0l0 14.52l-41.43 0Z" id="p224w147" />
<path d="M545.91 497.34l19.51 0l0 14.52l-19.51 0Z" id="p224w148" />
<path d="M568.62 497.34l22.47 0l0 14.52l-22.47 0Z" id="p224w149" />
<path d="M594.3 497.34l13.9 0l0 14.52l-13.9 0Z" id="p224w150" />
<path d="M611.4 497.34l39.56 0l0 14.52l-39.56 0Z" id="p224w151" />
<path d="M124.06 532.08l20.99 0l0 14.6l-20.99 0Z" id="p224w152" />
<path d="M148.25 532.08l30.52 0l0 14.6l-30.52 0Z" id="p224w153" />
<path d="M297.35 532.16l17.11 0l0 14.52l-17.11 0Z" id="p224w154" />
<path d="M317.67 532.16l61.72 0l0 14.52l-61.72 0Z" id="p224w155" />
<path d="M382.59 532.16l17.11 0l0 14.52l-17.11 0Z" id="p224w156" />
<path d="M402.91 532.16l26.73 0l0 14.52l-26.73 0Z" id="p224w157" />
<path d="M482.46 532.16l27.8 0l0 14.52l-27.8 0Z" id="p224w158" />
<path d="M513.46 532.16l14.18 0l0 14.52l-14.18 0Z" id="p224w159" />
<path d="M530.85 532.16l25.13 0l0 14.52l-25.13 0Z" id="p224w160" />
<path d="M559.19 532.16l6.41 0l0 14.52l-6.41 0Z" id="p224w161" />
<path d="M587.79 532.16l49.99 0l0 14.52l-49.99 0Z" id="p224w162" />
<path d="M640.98 532.16l38.48 0l0 14.52l-38.48 0Z" id="p224w163" />
<path d="M500.19 548.85l29.92 0l0 14.61l-29.92 0Z" id="p224w164" />
<path d="M124.06 566.9l13.9 0l0 14.6l-13.9 0Z" id="p224w165" />
<path d="M141.17 566.9l35.35 0l0 14.6l-35.35 0Z" id="p224w166" />
<path d="M179.72 566.9l35.29 0l0 14.6l-35.29 0Z" id="p224w167" />
<path d="M218.32 565.66l54.86 0l0 16.35l-54.86 0Z" id="p224w168" />
<path d="M297.35 566.98l64.03 0l0 14.52l-64.03 0Z" id="p224w169" />
<path d="M482.46 566.98l28.07 0l0 14.52l-28.07 0Z" id="p224w170" />
<path d="M513.74 566.98l46.77 0l0 14.52l-46.77 0Z" id="p224w171" />
<path d="M563.72 566.98l37.41 0l0 14.52l-37.41 0Z" id="p224w172" />
<path d="M604.33 566.98l13.9 0l0 14.52l-13.9 0Z" id="p224w173" />
<path d="M621.44 566.98l35.27 0l0 14.52l-35.27 0Z" id="p224w174" />
<path d="M659.91 566.98l37.68 0l0 14.52l-37.68 0Z" id="p224w175" />
<path d="M124.06 587.61l24.7 0l0 14.6l-24.7 0Z" id="p224w176" />
<path d="M151.96 587.61l12.67 0l0 14.6l-12.67 0Z" id="p224w177" />
<path d="M167.93 586.37l34.67 0l0 16.35l-34.67 0Z" id="p224w178" />
<path d="M297.35 587.69l23.09 0l0 14.52l-23.09 0Z" id="p224w179" />
<path d="M323.65 587.69l26.46 0l0 14.52l-26.46 0Z" id="p224w180" />
<path d="M482.46 587.69l15.6 0l0 14.52l-15.6 0Z" id="p224w181" />
<path d="M501.27 587.69l19.24 0l0 14.52l-19.24 0Z" id="p224w182" />
<path d="M523.72 587.69l9.89 0l0 14.52l-9.89 0Z" id="p224w183" />
<path d="M536.82 587.69l30.21 0l0 14.52l-30.21 0Z" id="p224w184" />
<path d="M570.24 587.69l13.9 0l0 14.52l-13.9 0Z" id="p224w185" />
<path d="M587.34 587.69l49.44 0l0 14.52l-49.44 0Z" id="p224w186" />
<path d="M640 587.69l31.01 0l0 14.52l-31.01 0Z" id="p224w187" />
<path d="M482.46 604.36l35.82 0l0 14.52l-35.82 0Z" id="p224w188" />
<path d="M521.49 604.36l19.6 0l0 14.52l-19.6 0Z" id="p224w189" />
<path d="M544.3 604.36l20.06 0l0 14.52l-20.06 0Z" id="p224w190" />
<path d="M124.06 622.43l20.99 0l0 14.6l-20.99 0Z" id="p224w191" />
<path d="M148.25 622.43l19.76 0l0 14.6l-19.76 0Z" id="p224w192" />
<path d="M171.31 621.19l34.48 0l0 16.35l-34.48 0Z" id="p224w193" />
<path d="M297.35 622.54l17.11 0l0 14.52l-17.11 0Z" id="p224w194" />
<path d="M317.67 622.54l34.75 0l0 14.52l-34.75 0Z" id="p224w195" />
<path d="M355.63 622.51l23.81 0l0 14.52l-23.81 0Z" id="p224w196" />
<path d="M382.65 622.51l34.25 0l0 14.52l-34.25 0Z" id="p224w197" />
<path d="M420.11 622.51l13.9 0l0 14.52l-13.9 0Z" id="p224w198" />
<path d="M297.35 639.18l48.55 0l0 14.52l-48.55 0Z" id="p224w199" />
<path d="M124.06 657.28l38.54 0l0 14.6l-38.54 0Z" id="p224w200" />
<path d="M165.81 657.28l13.87 0l0 14.6l-13.87 0Z" id="p224w201" />
<path d="M182.89 657.28l25.65 0l0 14.6l-25.65 0Z" id="p224w202" />
<path d="M211.74 657.28l12.67 0l0 14.6l-12.67 0Z" id="p224w203" />
<path d="M227.71 656.04l37.47 0l0 16.35l-37.47 0Z" id="p224w204" />
<path d="M297.35 657.36l50.53 0l0 14.52l-50.53 0Z" id="p224w205" />
<path d="M351.09 657.36l23.08 0l0 14.52l-23.08 0Z" id="p224w206" />
<path d="M377.38 657.36l12.84 0l0 14.52l-12.84 0Z" id="p224w207" />
<path d="M393.43 657.36l18.72 0l0 14.52l-18.72 0Z" id="p224w208" />
<path d="M482.46 657.36l34.73 0l0 14.52l-34.73 0Z" id="p224w209" />
<path d="M520.4 657.36l56.56 0l0 14.52l-56.56 0Z" id="p224w210" />
<path d="M580.16 657.36l18.72 0l0 14.52l-18.72 0Z" id="p224w211" />
<path d="M602.09 657.36l26.72 0l0 14.52l-26.72 0Z" id="p224w212" />
<path d="M124.06 677.99l61.65 0l0 14.6l-61.65 0Z" id="p224w213" />
<path d="M189.01 676.75l49.93 0l0 16.35l-49.93 0Z" id="p224w214" />
<path d="M297.35 678.07l43.99 0l0 14.52l-43.99 0Z" id="p224w215" />
<path d="M344.55 678.07l49.09 0l0 14.52l-49.09 0Z" id="p224w216" />
<path d="M482.46 678.07l18.44 0l0 14.52l-18.44 0Z" id="p224w217" />
<path d="M504.11 678.07l20.85 0l0 14.52l-20.85 0Z" id="p224w218" />
<path d="M528.17 678.07l18.72 0l0 14.52l-18.72 0Z" id="p224w219" />
<path d="M550.09 678.07l37.96 0l0 14.52l-37.96 0Z" id="p224w220" />
<path d="M591.26 678.07l59.54 0l0 14.52l-59.54 0Z" id="p224w221" />
<path d="M124.06 722.1l47.08 0l0 18.44l-47.08 0Z" id="p224w222" />
<path d="M124.06 749.22l14.31 0l0 14.6l-14.31 0Z" id="p224w223" />
<path d="M141.58 749.22l21.74 0l0 14.6l-21.74 0Z" id="p224w224" />
<path d="M166.62 747.98l35.56 0l0 16.35l-35.56 0Z" id="p224w225" />
<path d="M297.36 749.3l23.79 0l0 14.52l-23.79 0Z" id="p224w226" />
<path d="M324.35 749.3l94.03 0l0 14.52l-94.03 0Z" id="p224w227" />
<path d="M482.46 749.3l13.9 0l0 14.52l-13.9 0Z" id="p224w228" />
<path d="M499.57 749.3l21.38 0l0 14.52l-21.38 0Z" id="p224w229" />
<path d="M524.16 749.3l25.92 0l0 14.52l-25.92 0Z" id="p224w230" />
<path d="M553.29 749.3l19.51 0l0 14.52l-19.51 0Z" id="p224w231" />
<path d="M576.01 749.3l25.67 0l0 14.52l-25.67 0Z" id="p224w232" />
<path d="M604.89 749.3l34.44 0l0 14.52l-34.44 0Z" id="p224w233" />
<path d="M124.06 769.93l14.31 0l0 14.6l-14.31 0Z" id="p224w234" />
<path d="M141.58 769.93l27.05 0l0 14.6l-27.05 0Z" id="p224w235" />
<path d="M171.92 768.69l31.36 0l0 16.35l-31.36 0Z" id="p224w236" />
<path d="M297.36 770.01l17.11 0l0 14.52l-17.11 0Z" id="p224w237" />
<path d="M317.67 770.01l83.39 0l0 14.52l-83.39 0Z" id="p224w238" />
<path d="M482.46 770.01l25.13 0l0 14.52l-25.13 0Z" id="p224w239" />
<path d="M510.8 770.01l26.72 0l0 14.52l-26.72 0Z" id="p224w240" />
<path d="M540.72 770.01l16.83 0l0 14.52l-16.83 0Z" id="p224w241" />
<path d="M560.76 770.01l14.18 0l0 14.52l-14.18 0Z" id="p224w242" />
<path d="M578.14 770.01l20.31 0l0 14.52l-20.31 0Z" id="p224w243" />
<path d="M601.67 770.01l29.51 0l0 14.52l-29.51 0Z" id="p224w244" />
<path d="M124.06 790.64l21.74 0l0 14.6l-21.74 0Z" id="p224w245" />
<path d="M145.8 790.64l15.19 0l0 14.6l-15.19 0Z" id="p224w246" />
<path d="M164.2 790.64l12.67 0l0 14.6l-12.67 0Z" id="p224w247" />
<path d="M180.17 789.4l47.43 0l0 16.35l-47.43 0Z" id="p224w248" />
<path d="M297.36 790.72l23.09 0l0 14.52l-23.09 0Z" id="p224w249" />
<path d="M323.65 790.72l65.97 0l0 14.52l-65.97 0Z" id="p224w250" />
<path d="M297.36 807.39l23.09 0l0 14.52l-23.09 0Z" id="p224w251" />
<path d="M323.65 807.39l21.38 0l0 14.52l-21.38 0Z" id="p224w252" />
<path d="M345.03 807.39l35.55 0l0 14.52l-35.55 0Z" id="p224w253" />
<path d="M482.46 790.72l26.21 0l0 14.52l-26.21 0Z" id="p224w254" />
<path d="M511.88 790.72l39.85 0l0 14.52l-39.85 0Z" id="p224w255" />
<path d="M554.94 790.72l21.38 0l0 14.52l-21.38 0Z" id="p224w256" />
<path d="M576.32 790.72l14.97 0l0 14.52l-14.97 0Z" id="p224w257" />
<path d="M594.5 790.72l12.57 0l0 14.52l-12.57 0Z" id="p224w258" />
<path d="M610.27 790.72l22.45 0l0 14.52l-22.45 0Z" id="p224w259" />
<path d="M124.06 825.46l65.28 0l0 14.6l-65.28 0Z" id="p224w260" />
<path d="M192.65 824.22l65.68 0l0 16.35l-65.68 0Z" id="p224w261" />
<path d="M297.36 825.54l88.73 0l0 14.52l-88.73 0Z" id="p224w262" />
<path d="M482.46 825.54l22.72 0l0 14.52l-22.72 0Z" id="p224w263" />
<path d="M508.39 825.54l22.99 0l0 14.52l-22.99 0Z" id="p224w264" />
<path d="M534.59 825.54l32.1 0l0 14.52l-32.1 0Z" id="p224w265" />
<path d="M569.89 825.54l12.57 0l0 14.52l-12.57 0Z" id="p224w266" />
<path d="M585.67 825.54l25.92 0l0 14.52l-25.92 0Z" id="p224w267" />
<path d="M614.8 825.54l19.51 0l0 14.52l-19.51 0Z" id="p224w268" />
<path d="M637.51 825.54l22.19 0l0 14.52l-22.19 0Z" id="p224w269" />
<path d="M659.7 825.54l21.66 0l0 14.52l-21.66 0Z" id="p224w270" />
<path d="M500.69 842.23l54.43 0l0 14.61l-54.43 0Z" id="p224w271" />
<path d="M558.16 842.23l60.65 0l0 14.61l-60.65 0Z" id="p224w272" />
<path d="M124.06 860.29l14.31 0l0 14.6l-14.31 0Z" id="p224w273" />
<path d="M141.57 860.29l30.77 0l0 14.6l-30.77 0Z" id="p224w274" />
<path d="M175.64 859.05l34.53 0l0 16.35l-34.53 0Z" id="p224w275" />
<path d="M297.35 860.37l23.79 0l0 14.52l-23.79 0Z" id="p224w276" />
<path d="M324.34 860.37l31.8 0l0 14.52l-31.8 0Z" id="p224w277" />
<path d="M482.46 860.37l26.19 0l0 14.52l-26.19 0Z" id="p224w278" />
<path d="M511.85 860.37l14.18 0l0 14.52l-14.18 0Z" id="p224w279" />
<path d="M529.24 860.37l30.66 0l0 14.52l-30.66 0Z" id="p224w280" />
<path d="M563.11 860.37l34.69 0l0 14.52l-34.69 0Z" id="p224w281" />
<path d="M500.19 876.97l14.31 0l0 14.6l-14.31 0Z" id="p224w282" />
<path d="M517.7 877.05l30.7 0l0 14.61l-30.7 0Z" id="p224w283" />
<path d="M572.55 876.97l23.92 0l0 14.6l-23.92 0Z" id="p224w284" />
<path d="M599.67 877.05l31.8 0l0 14.61l-31.8 0Z" id="p224w285" />
<path d="M124.06 895.11l37.29 0l0 14.6l-37.29 0Z" id="p224w286" />
<path d="M164.65 893.87l29.8 0l0 16.35l-29.8 0Z" id="p224w287" />
<path d="M297.35 895.19l41.17 0l0 14.52l-41.17 0Z" id="p224w288" />
<path d="M482.46 895.19l13.9 0l0 14.52l-13.9 0Z" id="p224w289" />
<path d="M499.57 895.19l25.92 0l0 14.52l-25.92 0Z" id="p224w290" />
<path d="M528.7 895.19l19.51 0l0 14.52l-19.51 0Z" id="p224w291" />
<path d="M551.41 895.19l36.88 0l0 14.52l-36.88 0Z" id="p224w292" />
<path d="M494.71 911.87l29.59 0l0 14.61l-29.59 0Z" id="p224w293" />
</svg>
