<?xml version="1.0" encoding="UTF-8"?>
<svg xmlns="http://www.w3.org/2000/svg" xmlns:xlink="http://www.w3.org/1999/xlink" version="1.1" baseProfile="full" width="768" height="1024" viewBox="0,0,768,1024" preserveAspectRatio="xMinYMin meet" >
<style type="text/css">
<![CDATA[
path {fill-opacity: 0.5;fill: #00aeef;visibility: hidden;}
]]>
</style>
<path d="M124.06 104.82l102.47 0l0 23.34l-102.47 0Z" id="p100w1" />
<path d="M247.89 104.82l88.52 0l0 23.34l-88.52 0Z" id="p100w2" />
<path d="M124.06 144.11l43.22 0l0 18.84l-43.22 0Z" id="p100w3" />
<path d="M170.93 144.11l13.62 0l0 18.84l-13.62 0Z" id="p100w4" />
<path d="M188.21 144.11l80.2 0l0 18.84l-80.2 0Z" id="p100w5" />
<path d="M124.06 172.53l12.83 0l0 14.52l-12.83 0Z" id="p100w6" />
<path d="M140.1 172.53l21.37 0l0 14.52l-21.37 0Z" id="p100w7" />
<path d="M164.68 172.53l28.88 0l0 14.52l-28.88 0Z" id="p100w8" />
<path d="M196.76 172.53l46.96 0l0 14.52l-46.96 0Z" id="p100w9" />
<path d="M246.93 172.53l14.18 0l0 14.52l-14.18 0Z" id="p100w10" />
<path d="M264.32 172.53l59.32 0l0 14.52l-59.32 0Z" id="p100w11" />
<path d="M326.41 172.53l27.1 0l0 14.52l-27.1 0Z" id="p100w12" />
<path d="M356.71 172.53l36.89 0l0 14.52l-36.89 0Z" id="p100w13" />
<path d="M396.81 172.53l48.47 0l0 14.52l-48.47 0Z" id="p100w14" />
<path d="M457.13 172.53l57.03 0l0 14.52l-57.03 0Z" id="p100w15" />
<path d="M527.26 172.53l48.68 0l0 14.52l-48.68 0Z" id="p100w16" />
<path d="M124.06 189.2l14.7 0l0 14.52l-14.7 0Z" id="p100w17" />
<path d="M141.97 189.2l21.4 0l0 14.52l-21.4 0Z" id="p100w18" />
<path d="M166.57 189.2l40.1 0l0 14.52l-40.1 0Z" id="p100w19" />
<path d="M135.01 205.88l28.87 0l0 14.52l-28.87 0Z" id="p100w20" />
<path d="M167.09 205.88l24.33 0l0 14.52l-24.33 0Z" id="p100w21" />
<path d="M194.62 205.88l13.9 0l0 14.52l-13.9 0Z" id="p100w22" />
<path d="M211.73 205.88l24.34 0l0 14.52l-24.34 0Z" id="p100w23" />
<path d="M239.27 205.88l12.66 0l0 14.52l-12.66 0Z" id="p100w24" />
<path d="M255.14 205.88l32.87 0l0 14.52l-32.87 0Z" id="p100w25" />
<path d="M291.21 205.88l9.89 0l0 14.52l-9.89 0Z" id="p100w26" />
<path d="M304.31 205.88l26.73 0l0 14.52l-26.73 0Z" id="p100w27" />
<path d="M334.24 205.88l32.87 0l0 14.52l-32.87 0Z" id="p100w28" />
<path d="M370.32 205.88l19.51 0l0 14.52l-19.51 0Z" id="p100w29" />
<path d="M393.03 205.88l66.3 0l0 14.52l-66.3 0Z" id="p100w30" />
<path d="M143.75 239.22l51.42 0l0 14.52l-51.42 0Z" id="p100w31" />
<path d="M208.27 239.22l29.42 0l0 14.52l-29.42 0Z" id="p100w32" />
<path d="M240.9 239.22l47.32 0l0 14.52l-47.32 0Z" id="p100w33" />
<path d="M291.42 239.22l15.5 0l0 14.52l-15.5 0Z" id="p100w34" />
<path d="M310.13 239.22l14.7 0l0 14.52l-14.7 0Z" id="p100w35" />
<path d="M328.04 239.22l48.11 0l0 14.52l-48.11 0Z" id="p100w36" />
<path d="M379.36 239.22l40.01 0l0 14.52l-40.01 0Z" id="p100w37" />
<path d="M422.57 239.19l75.22 0l0 14.52l-75.22 0Z" id="p100w38" />
<path d="M143.75 255.89l32.87 0l0 14.52l-32.87 0Z" id="p100w39" />
<path d="M179.82 255.89l51.58 0l0 14.52l-51.58 0Z" id="p100w40" />
<path d="M234.61 255.89l13.63 0l0 14.52l-13.63 0Z" id="p100w41" />
<path d="M251.46 255.89l32.64 0l0 14.52l-32.64 0Z" id="p100w42" />
<path d="M287.31 255.89l19.52 0l0 14.52l-19.52 0Z" id="p100w43" />
<path d="M310.03 255.89l36.27 0l0 14.52l-36.27 0Z" id="p100w44" />
<path d="M349.51 255.89l11.22 0l0 14.52l-11.22 0Z" id="p100w45" />
<path d="M363.94 255.89l19.52 0l0 14.52l-19.52 0Z" id="p100w46" />
<path d="M386.67 255.89l65.22 0l0 14.52l-65.22 0Z" id="p100w47" />
<path d="M455.1 255.89l19.51 0l0 14.52l-19.51 0Z" id="p100w48" />
<path d="M477.81 255.89l43.57 0l0 14.52l-43.57 0Z" id="p100w49" />
<path d="M154.71 280.9l28.96 0l0 14.52l-28.96 0Z" id="p100w50" />
<path d="M186.87 280.9l19.51 0l0 14.52l-19.51 0Z" id="p100w51" />
<path d="M209.59 280.9l48.11 0l0 14.52l-48.11 0Z" id="p100w52" />
<path d="M260.91 280.9l42.69 0l0 14.52l-42.69 0Z" id="p100w53" />
<path d="M306.8 280.9l50.99 0l0 14.52l-50.99 0Z" id="p100w54" />
<path d="M361 280.9l47.57 0l0 14.52l-47.57 0Z" id="p100w55" />
<path d="M411.78 280.9l17.38 0l0 14.52l-17.38 0Z" id="p100w56" />
<path d="M432.37 280.9l44.38 0l0 14.52l-44.38 0Z" id="p100w57" />
<path d="M479.95 280.9l12.29 0l0 14.52l-12.29 0Z" id="p100w58" />
<path d="M495.45 280.9l37.7 0l0 14.52l-37.7 0Z" id="p100w59" />
<path d="M143.75 297.57l25.41 0l0 14.52l-25.41 0Z" id="p100w60" />
<path d="M172.37 297.57l25.13 0l0 14.52l-25.13 0Z" id="p100w61" />
<path d="M200.7 297.57l67.11 0l0 14.52l-67.11 0Z" id="p100w62" />
<path d="M271.02 297.57l18.44 0l0 14.52l-18.44 0Z" id="p100w63" />
<path d="M292.66 297.57l37.93 0l0 14.52l-37.93 0Z" id="p100w64" />
<path d="M333.81 297.57l15.5 0l0 14.52l-15.5 0Z" id="p100w65" />
<path d="M352.51 297.57l38.5 0l0 14.52l-38.5 0Z" id="p100w66" />
<path d="M394.22 297.57l26.73 0l0 14.52l-26.73 0Z" id="p100w67" />
<path d="M424.16 297.57l14.18 0l0 14.52l-14.18 0Z" id="p100w68" />
<path d="M441.54 297.57l29.67 0l0 14.52l-29.67 0Z" id="p100w69" />
<path d="M474.42 297.57l17.38 0l0 14.52l-17.38 0Z" id="p100w70" />
<path d="M495.01 297.57l25.67 0l0 14.52l-25.67 0Z" id="p100w71" />
<path d="M523.89 297.57l40.35 0l0 14.52l-40.35 0Z" id="p100w72" />
<path d="M567.45 297.57l44.06 0l0 14.52l-44.06 0Z" id="p100w73" />
<path d="M143.75 314.24l22.73 0l0 14.52l-22.73 0Z" id="p100w74" />
<path d="M169.69 314.24l55.05 0l0 14.52l-55.05 0Z" id="p100w75" />
<path d="M227.95 314.24l28.87 0l0 14.52l-28.87 0Z" id="p100w76" />
<path d="M260.02 314.24l41.96 0l0 14.52l-41.96 0Z" id="p100w77" />
<path d="M315.08 314.24l9.89 0l0 14.52l-9.89 0Z" id="p100w78" />
<path d="M328.17 314.24l36.35 0l0 14.52l-36.35 0Z" id="p100w79" />
<path d="M64.37 135.13l24.24 0l0 9.23l-24.24 0Z" id="p100w80" />
<path d="M60.68 149.3l27.93 0l0 12.29l-27.93 0Z" id="p100w81" />
<path d="M60.68 241l27.93 0l0 12.29l-27.93 0Z" id="p100w82" />
<path d="M129.75 934.8l18.78 0l0 13.06l-18.78 0Z" id="p100w83" />
<path d="M151.4 934.8l48.3 0l0 13.06l-48.3 0Z" id="p100w84" />
<path d="M211.43 934.8l43.84 0l0 13.06l-43.84 0Z" id="p100w85" />
<path d="M258.14 934.86l15.31 0l0 12.99l-15.31 0Z" id="p100w86" />
<path d="M276.32 934.86l48.31 0l0 12.99l-48.31 0Z" id="p100w87" />
<path d="M124.06 39.02l46.09 0l0 15.38l-46.09 0Z" id="p100w88" />
<path d="M208.74 39.02l46.59 0l0 15.38l-46.59 0Z" id="p100w89" />
<path d="M307.2 39.02l46.59 0l0 15.38l-46.59 0Z" id="p100w90" />
<path d="M412.86 38.6l83.78 0l0 16.09l-83.78 0Z" id="p100w91" />
<path d="M524.21 39.02l32.54 0l0 15.38l-32.54 0Z" id="p100w92" />
<path d="M76.9 983l96.08 0l0 12.23l-96.08 0Z" id="p100w93" />
</svg>
