<?xml version="1.0" encoding="UTF-8"?>
<svg xmlns="http://www.w3.org/2000/svg" xmlns:xlink="http://www.w3.org/1999/xlink" version="1.1" baseProfile="full" width="768" height="1024" viewBox="0,0,768,1024" preserveAspectRatio="xMinYMin meet" >
<style type="text/css">
<![CDATA[
path {fill-opacity: 0.5;fill: #00aeef;visibility: hidden;}
]]>
</style>
<path d="M124.06 114.18l10.97 0l0 14.52l-10.97 0Z" id="p155w1" />
<path d="M138.24 114.18l18.44 0l0 14.52l-18.44 0Z" id="p155w2" />
<path d="M159.88 114.11l46.74 0l0 14.6l-46.74 0Z" id="p155w3" />
<path d="M218.04 114.18l32.09 0l0 14.52l-32.09 0Z" id="p155w4" />
<path d="M253.34 114.18l14.97 0l0 14.52l-14.97 0Z" id="p155w5" />
<path d="M271.51 114.18l36.88 0l0 14.52l-36.88 0Z" id="p155w6" />
<path d="M311.6 114.18l25.4 0l0 14.52l-25.4 0Z" id="p155w7" />
<path d="M340.2 114.18l18.7 0l0 14.52l-18.7 0Z" id="p155w8" />
<path d="M362.11 114.18l34.74 0l0 14.52l-34.74 0Z" id="p155w9" />
<path d="M400.06 114.18l41.16 0l0 14.52l-41.16 0Z" id="p155w10" />
<path d="M444.42 114.18l72.17 0l0 14.52l-72.17 0Z" id="p155w11" />
<path d="M519.8 114.18l22.08 0l0 14.52l-22.08 0Z" id="p155w12" />
<path d="M545.09 114.18l14.97 0l0 14.52l-14.97 0Z" id="p155w13" />
<path d="M563.27 114.18l10.43 0l0 14.52l-10.43 0Z" id="p155w14" />
<path d="M576.9 114.18l21.12 0l0 14.52l-21.12 0Z" id="p155w15" />
<path d="M124.06 130.85l54.8 0l0 14.52l-54.8 0Z" id="p155w16" />
<path d="M190.45 130.85l21.4 0l0 14.52l-21.4 0Z" id="p155w17" />
<path d="M224.68 130.85l40.02 0l0 14.52l-40.02 0Z" id="p155w18" />
<path d="M267.91 130.85l28.34 0l0 14.52l-28.34 0Z" id="p155w19" />
<path d="M299.45 130.85l58.8 0l0 14.52l-58.8 0Z" id="p155w20" />
<path d="M361.46 130.85l42.78 0l0 14.52l-42.78 0Z" id="p155w21" />
<path d="M407.45 130.85l14.97 0l0 14.52l-14.97 0Z" id="p155w22" />
<path d="M425.63 130.85l26.74 0l0 14.52l-26.74 0Z" id="p155w23" />
<path d="M455.58 130.85l26.74 0l0 14.52l-26.74 0Z" id="p155w24" />
<path d="M485.52 130.85l61.03 0l0 14.52l-61.03 0Z" id="p155w25" />
<path d="M549.77 130.85l19.24 0l0 14.52l-19.24 0Z" id="p155w26" />
<path d="M572.22 130.85l29.14 0l0 14.52l-29.14 0Z" id="p155w27" />
<path d="M124.06 147.52l18.18 0l0 14.52l-18.18 0Z" id="p155w28" />
<path d="M145.44 147.52l32.09 0l0 14.52l-32.09 0Z" id="p155w29" />
<path d="M180.74 147.52l14.97 0l0 14.52l-14.97 0Z" id="p155w30" />
<path d="M198.91 147.52l10.43 0l0 14.52l-10.43 0Z" id="p155w31" />
<path d="M212.55 147.52l18.44 0l0 14.52l-18.44 0Z" id="p155w32" />
<path d="M234.2 147.52l65.42 0l0 14.52l-65.42 0Z" id="p155w33" />
<path d="M302.82 147.52l35.56 0l0 14.52l-35.56 0Z" id="p155w34" />
<path d="M341.59 147.52l72.17 0l0 14.52l-72.17 0Z" id="p155w35" />
<path d="M416.97 147.52l18.18 0l0 14.52l-18.18 0Z" id="p155w36" />
<path d="M438.35 147.52l53.95 0l0 14.52l-53.95 0Z" id="p155w37" />
<path d="M495.5 147.52l7.48 0l0 14.52l-7.48 0Z" id="p155w38" />
<path d="M502.99 147.52l25.66 0l0 14.52l-25.66 0Z" id="p155w39" />
<path d="M531.85 147.52l14.97 0l0 14.52l-14.97 0Z" id="p155w40" />
<path d="M550.03 147.52l13.9 0l0 14.52l-13.9 0Z" id="p155w41" />
<path d="M567.14 147.52l28.06 0l0 14.52l-28.06 0Z" id="p155w42" />
<path d="M124.06 189.2l31.28 0l0 14.52l-31.28 0Z" id="p155w43" />
<path d="M158.55 189.2l42.24 0l0 14.52l-42.24 0Z" id="p155w44" />
<path d="M204 189.2l19.79 0l0 14.52l-19.79 0Z" id="p155w45" />
<path d="M226.99 189.2l39.51 0l0 14.52l-39.51 0Z" id="p155w46" />
<path d="M269.7 189.2l13.9 0l0 14.52l-13.9 0Z" id="p155w47" />
<path d="M286.81 189.2l33.67 0l0 14.52l-33.67 0Z" id="p155w48" />
<path d="M333.57 189.2l19.79 0l0 14.52l-19.79 0Z" id="p155w49" />
<path d="M356.57 189.2l27.8 0l0 14.52l-27.8 0Z" id="p155w50" />
<path d="M387.57 189.2l39.28 0l0 14.52l-39.28 0Z" id="p155w51" />
<path d="M430.06 189.2l15.5 0l0 14.52l-15.5 0Z" id="p155w52" />
<path d="M448.76 189.2l36.88 0l0 14.52l-36.88 0Z" id="p155w53" />
<path d="M488.85 189.2l13.63 0l0 14.52l-13.63 0Z" id="p155w54" />
<path d="M505.69 189.14l32.05 0l0 14.6l-32.05 0Z" id="p155w55" />
<path d="M540.95 189.14l49.97 0l0 14.6l-49.97 0Z" id="p155w56" />
<path d="M124.06 215.99l10.83 0l0 12.29l-10.83 0Z" id="p155w57" />
<path d="M137.59 215.99l21.13 0l0 12.29l-21.13 0Z" id="p155w58" />
<path d="M167.55 214.22l30.74 0l0 14.52l-30.74 0Z" id="p155w59" />
<path d="M201.5 214.22l33.96 0l0 14.52l-33.96 0Z" id="p155w60" />
<path d="M238.67 214.22l42.24 0l0 14.52l-42.24 0Z" id="p155w61" />
<path d="M290.53 214.22l49.1 0l0 14.52l-49.1 0Z" id="p155w62" />
<path d="M342.84 214.22l20.85 0l0 14.52l-20.85 0Z" id="p155w63" />
<path d="M366.9 214.22l25.67 0l0 14.52l-25.67 0Z" id="p155w64" />
<path d="M414.74 214.22l33.94 0l0 14.52l-33.94 0Z" id="p155w65" />
<path d="M461.77 214.22l60.72 0l0 14.52l-60.72 0Z" id="p155w66" />
<path d="M124.06 232.66l26.25 0l0 12.29l-26.25 0Z" id="p155w67" />
<path d="M159.15 230.89l30.75 0l0 14.52l-30.75 0Z" id="p155w68" />
<path d="M193.11 230.89l35.28 0l0 14.52l-35.28 0Z" id="p155w69" />
<path d="M231.6 230.89l26.74 0l0 14.52l-26.74 0Z" id="p155w70" />
<path d="M280.51 230.89l42.49 0l0 14.52l-42.49 0Z" id="p155w71" />
<path d="M326.2 230.89l9.89 0l0 14.52l-9.89 0Z" id="p155w72" />
<path d="M339.3 230.89l61.75 0l0 14.52l-61.75 0Z" id="p155w73" />
<path d="M124.06 249.34l10.83 0l0 12.29l-10.83 0Z" id="p155w74" />
<path d="M137.59 249.34l21.13 0l0 12.29l-21.13 0Z" id="p155w75" />
<path d="M167.11 247.56l26.21 0l0 14.52l-26.21 0Z" id="p155w76" />
<path d="M215.5 247.56l49.44 0l0 14.52l-49.44 0Z" id="p155w77" />
<path d="M268.15 247.56l13.9 0l0 14.52l-13.9 0Z" id="p155w78" />
<path d="M285.26 247.56l25.4 0l0 14.52l-25.4 0Z" id="p155w79" />
<path d="M313.86 247.56l13.9 0l0 14.52l-13.9 0Z" id="p155w80" />
<path d="M330.96 247.56l9.89 0l0 14.52l-9.89 0Z" id="p155w81" />
<path d="M344.06 247.56l22.99 0l0 14.52l-22.99 0Z" id="p155w82" />
<path d="M124.06 266.01l26.25 0l0 12.29l-26.25 0Z" id="p155w83" />
<path d="M159.15 264.23l25.13 0l0 14.52l-25.13 0Z" id="p155w84" />
<path d="M187.49 264.23l18.47 0l0 14.52l-18.47 0Z" id="p155w85" />
<path d="M209.16 264.23l26.74 0l0 14.52l-26.74 0Z" id="p155w86" />
<path d="M258.07 264.23l30.99 0l0 14.52l-30.99 0Z" id="p155w87" />
<path d="M292.27 264.23l57.43 0l0 14.52l-57.43 0Z" id="p155w88" />
<path d="M359.86 264.23l34.48 0l0 14.52l-34.48 0Z" id="p155w89" />
<path d="M397.55 264.23l26.74 0l0 14.52l-26.74 0Z" id="p155w90" />
<path d="M446.45 264.23l60.69 0l0 14.52l-60.69 0Z" id="p155w91" />
<path d="M510.35 264.23l9.89 0l0 14.52l-9.89 0Z" id="p155w92" />
<path d="M523.44 264.23l32.6 0l0 14.52l-32.6 0Z" id="p155w93" />
<path d="M559.25 264.23l39.57 0l0 14.52l-39.57 0Z" id="p155w94" />
<path d="M143.75 280.91l26.2 0l0 14.52l-26.2 0Z" id="p155w95" />
<path d="M173.16 280.91l23.24 0l0 14.52l-23.24 0Z" id="p155w96" />
<path d="M199.61 280.91l45.46 0l0 14.52l-45.46 0Z" id="p155w97" />
<path d="M248.28 280.91l9.62 0l0 14.52l-9.62 0Z" id="p155w98" />
<path d="M266.15 280.91l5.35 0l0 14.52l-5.35 0Z" id="p155w99" />
<path d="M292.11 280.91l57.21 0l0 14.52l-57.21 0Z" id="p155w100" />
<path d="M352.52 280.91l20.85 0l0 14.52l-20.85 0Z" id="p155w101" />
<path d="M376.58 280.91l26.99 0l0 14.52l-26.99 0Z" id="p155w102" />
<path d="M406.78 280.91l29.67 0l0 14.52l-29.67 0Z" id="p155w103" />
<path d="M439.66 280.91l13.63 0l0 14.52l-13.63 0Z" id="p155w104" />
<path d="M456.5 280.91l25.67 0l0 14.52l-25.67 0Z" id="p155w105" />
<path d="M485.38 280.91l13.9 0l0 14.52l-13.9 0Z" id="p155w106" />
<path d="M502.49 280.91l15.77 0l0 14.52l-15.77 0Z" id="p155w107" />
<path d="M521.47 280.91l25.67 0l0 14.52l-25.67 0Z" id="p155w108" />
<path d="M550.35 280.91l25.38 0l0 14.52l-25.38 0Z" id="p155w109" />
<path d="M143.76 297.58l14.18 0l0 14.52l-14.18 0Z" id="p155w110" />
<path d="M161.14 297.58l68.9 0l0 14.52l-68.9 0Z" id="p155w111" />
<path d="M124.06 316.03l10.83 0l0 12.29l-10.83 0Z" id="p155w112" />
<path d="M137.59 316.03l21.13 0l0 12.29l-21.13 0Z" id="p155w113" />
<path d="M167.55 314.25l11.5 0l0 14.52l-11.5 0Z" id="p155w114" />
<path d="M182.25 314.25l66.83 0l0 14.52l-66.83 0Z" id="p155w115" />
<path d="M252.29 314.25l11.5 0l0 14.52l-11.5 0Z" id="p155w116" />
<path d="M285.95 314.25l32.87 0l0 14.52l-32.87 0Z" id="p155w117" />
<path d="M322.03 314.25l25.67 0l0 14.52l-25.67 0Z" id="p155w118" />
<path d="M350.91 314.25l28.34 0l0 14.52l-28.34 0Z" id="p155w119" />
<path d="M124.06 332.7l26.25 0l0 12.29l-26.25 0Z" id="p155w120" />
<path d="M159.15 330.93l25.41 0l0 14.52l-25.41 0Z" id="p155w121" />
<path d="M187.76 330.93l26.74 0l0 14.52l-26.74 0Z" id="p155w122" />
<path d="M236.67 330.93l32.87 0l0 14.52l-32.87 0Z" id="p155w123" />
<path d="M272.75 330.93l26.73 0l0 14.52l-26.73 0Z" id="p155w124" />
<path d="M302.68 330.93l9.89 0l0 14.52l-9.89 0Z" id="p155w125" />
<path d="M315.78 330.93l44.36 0l0 14.52l-44.36 0Z" id="p155w126" />
<path d="M363.35 330.93l55.34 0l0 14.52l-55.34 0Z" id="p155w127" />
<path d="M421.9 330.93l15.77 0l0 14.52l-15.77 0Z" id="p155w128" />
<path d="M459.84 330.93l42.49 0l0 14.52l-42.49 0Z" id="p155w129" />
<path d="M505.53 330.93l28.34 0l0 14.52l-28.34 0Z" id="p155w130" />
<path d="M537.08 330.93l32.34 0l0 14.52l-32.34 0Z" id="p155w131" />
<path d="M572.63 330.93l61.65 0l0 14.52l-61.65 0Z" id="p155w132" />
<path d="M143.75 347.6l15.51 0l0 14.52l-15.51 0Z" id="p155w133" />
<path d="M162.47 347.6l26.74 0l0 14.52l-26.74 0Z" id="p155w134" />
<path d="M211.38 347.6l67.36 0l0 14.52l-67.36 0Z" id="p155w135" />
<path d="M281.94 347.6l20.85 0l0 14.52l-20.85 0Z" id="p155w136" />
<path d="M306.01 347.6l55.86 0l0 14.52l-55.86 0Z" id="p155w137" />
<path d="M365.07 347.6l17.38 0l0 14.52l-17.38 0Z" id="p155w138" />
<path d="M385.66 347.6l26.74 0l0 14.52l-26.74 0Z" id="p155w139" />
<path d="M434.57 347.6l60.15 0l0 14.52l-60.15 0Z" id="p155w140" />
<path d="M497.93 347.6l19.79 0l0 14.52l-19.79 0Z" id="p155w141" />
<path d="M520.92 347.6l37.25 0l0 14.52l-37.25 0Z" id="p155w142" />
<path d="M124.06 366.05l10.83 0l0 12.29l-10.83 0Z" id="p155w143" />
<path d="M137.59 366.05l21.13 0l0 12.29l-21.13 0Z" id="p155w144" />
<path d="M167.55 364.27l11.5 0l0 14.52l-11.5 0Z" id="p155w145" />
<path d="M182.25 364.27l53.19 0l0 14.52l-53.19 0Z" id="p155w146" />
<path d="M238.65 364.27l33.05 0l0 14.52l-33.05 0Z" id="p155w147" />
<path d="M274.91 364.27l20.85 0l0 14.52l-20.85 0Z" id="p155w148" />
<path d="M298.98 364.27l11.5 0l0 14.52l-11.5 0Z" id="p155w149" />
<path d="M332.64 364.27l48.65 0l0 14.52l-48.65 0Z" id="p155w150" />
<path d="M384.5 364.27l9.89 0l0 14.52l-9.89 0Z" id="p155w151" />
<path d="M397.59 364.27l29.39 0l0 14.52l-29.39 0Z" id="p155w152" />
<path d="M430.2 364.27l14.18 0l0 14.52l-14.18 0Z" id="p155w153" />
<path d="M447.58 364.27l57.46 0l0 14.52l-57.46 0Z" id="p155w154" />
<path d="M508.24 364.27l52.67 0l0 14.52l-52.67 0Z" id="p155w155" />
<path d="M124.06 382.72l26.25 0l0 12.29l-26.25 0Z" id="p155w156" />
<path d="M159.15 380.94l32.35 0l0 14.52l-32.35 0Z" id="p155w157" />
<path d="M194.71 380.94l71.88 0l0 14.52l-71.88 0Z" id="p155w158" />
<path d="M269.8 380.94l31.27 0l0 14.52l-31.27 0Z" id="p155w159" />
<path d="M304.27 380.94l31.22 0l0 14.52l-31.22 0Z" id="p155w160" />
<path d="M338.7 380.94l26.74 0l0 14.52l-26.74 0Z" id="p155w161" />
<path d="M387.6 380.94l53.99 0l0 14.52l-53.99 0Z" id="p155w162" />
<path d="M444.8 380.94l60.66 0l0 14.52l-60.66 0Z" id="p155w163" />
<path d="M508.67 380.94l30.99 0l0 14.52l-30.99 0Z" id="p155w164" />
<path d="M542.87 380.94l11.22 0l0 14.52l-11.22 0Z" id="p155w165" />
<path d="M557.29 380.94l26.74 0l0 14.52l-26.74 0Z" id="p155w166" />
<path d="M143.75 397.62l62.27 0l0 14.52l-62.27 0Z" id="p155w167" />
<path d="M219.12 397.62l20.85 0l0 14.52l-20.85 0Z" id="p155w168" />
<path d="M243.18 397.62l32.87 0l0 14.52l-32.87 0Z" id="p155w169" />
<path d="M279.26 397.62l45.46 0l0 14.52l-45.46 0Z" id="p155w170" />
<path d="M124.06 430.96l59.34 0l0 14.52l-59.34 0Z" id="p155w171" />
<path d="M186.61 430.96l9.89 0l0 14.52l-9.89 0Z" id="p155w172" />
<path d="M199.7 430.96l28.33 0l0 14.52l-28.33 0Z" id="p155w173" />
<path d="M231.24 430.96l18.44 0l0 14.52l-18.44 0Z" id="p155w174" />
<path d="M252.88 430.96l15.5 0l0 14.52l-15.5 0Z" id="p155w175" />
<path d="M271.59 430.89l36.94 0l0 14.6l-36.94 0Z" id="p155w176" />
<path d="M311.74 430.89l74.42 0l0 14.6l-74.42 0Z" id="p155w177" />
<path d="M389.36 430.89l13.78 0l0 14.6l-13.78 0Z" id="p155w178" />
<path d="M406.35 430.89l42.74 0l0 14.6l-42.74 0Z" id="p155w179" />
<path d="M143.75 455.97l12.83 0l0 14.52l-12.83 0Z" id="p155w180" />
<path d="M159.79 455.97l18.18 0l0 14.52l-18.18 0Z" id="p155w181" />
<path d="M181.17 455.97l13.91 0l0 14.52l-13.91 0Z" id="p155w182" />
<path d="M217.25 455.97l16.57 0l0 14.52l-16.57 0Z" id="p155w183" />
<path d="M237.03 455.97l44.38 0l0 14.52l-44.38 0Z" id="p155w184" />
<path d="M284.61 455.97l50.91 0l0 14.52l-50.91 0Z" id="p155w185" />
<path d="M338.73 455.97l13.9 0l0 14.52l-13.9 0Z" id="p155w186" />
<path d="M355.83 455.97l48.38 0l0 14.52l-48.38 0Z" id="p155w187" />
<path d="M426.38 455.97l58.35 0l0 14.52l-58.35 0Z" id="p155w188" />
<path d="M143.75 472.64l9.89 0l0 14.52l-9.89 0Z" id="p155w189" />
<path d="M156.85 472.64l18.18 0l0 14.52l-18.18 0Z" id="p155w190" />
<path d="M178.23 472.64l49.44 0l0 14.52l-49.44 0Z" id="p155w191" />
<path d="M240.5 472.64l24.06 0l0 14.52l-24.06 0Z" id="p155w192" />
<path d="M267.77 472.64l25.13 0l0 14.52l-25.13 0Z" id="p155w193" />
<path d="M296.11 472.64l38.75 0l0 14.52l-38.75 0Z" id="p155w194" />
<path d="M143.75 489.31l12.83 0l0 14.52l-12.83 0Z" id="p155w195" />
<path d="M159.79 489.31l35.28 0l0 14.52l-35.28 0Z" id="p155w196" />
<path d="M198.28 489.31l15.5 0l0 14.52l-15.5 0Z" id="p155w197" />
<path d="M216.98 489.31l35 0l0 14.52l-35 0Z" id="p155w198" />
<path d="M274.16 489.32l16.57 0l0 14.52l-16.57 0Z" id="p155w199" />
<path d="M293.93 489.32l31.53 0l0 14.52l-31.53 0Z" id="p155w200" />
<path d="M338.55 489.32l24.05 0l0 14.52l-24.05 0Z" id="p155w201" />
<path d="M365.81 489.32l37.68 0l0 14.52l-37.68 0Z" id="p155w202" />
<path d="M406.7 489.32l11.22 0l0 14.52l-11.22 0Z" id="p155w203" />
<path d="M421.13 489.32l37.42 0l0 14.52l-37.42 0Z" id="p155w204" />
<path d="M143.76 505.99l49.17 0l0 14.52l-49.17 0Z" id="p155w205" />
<path d="M196.13 505.99l47.85 0l0 14.52l-47.85 0Z" id="p155w206" />
<path d="M247.19 505.99l31.8 0l0 14.52l-31.8 0Z" id="p155w207" />
<path d="M282.19 505.99l26.73 0l0 14.52l-26.73 0Z" id="p155w208" />
<path d="M312.13 505.99l15.5 0l0 14.52l-15.5 0Z" id="p155w209" />
<path d="M330.83 505.99l54.79 0l0 14.52l-54.79 0Z" id="p155w210" />
<path d="M398.72 505.99l21.92 0l0 14.52l-21.92 0Z" id="p155w211" />
<path d="M423.85 505.99l37.68 0l0 14.52l-37.68 0Z" id="p155w212" />
<path d="M143.76 522.66l33.95 0l0 14.52l-33.95 0Z" id="p155w213" />
<path d="M180.92 522.66l9.89 0l0 14.52l-9.89 0Z" id="p155w214" />
<path d="M194.01 522.66l32.62 0l0 14.52l-32.62 0Z" id="p155w215" />
<path d="M143.75 541.11l18.8 0l0 12.29l-18.8 0Z" id="p155w216" />
<path d="M170.88 541.11l40.45 0l0 12.29l-40.45 0Z" id="p155w217" />
<path d="M219.65 539.34l28.07 0l0 14.52l-28.07 0Z" id="p155w218" />
<path d="M269.89 539.34l16.57 0l0 14.52l-16.57 0Z" id="p155w219" />
<path d="M289.66 539.34l55.6 0l0 14.52l-55.6 0Z" id="p155w220" />
<path d="M358.35 539.34l21.92 0l0 14.52l-21.92 0Z" id="p155w221" />
<path d="M383.48 539.34l37.68 0l0 14.52l-37.68 0Z" id="p155w222" />
<path d="M424.38 539.34l25.67 0l0 14.52l-25.67 0Z" id="p155w223" />
<path d="M162.55 556.01l9.89 0l0 14.52l-9.89 0Z" id="p155w224" />
<path d="M175.65 556.01l80.12 0l0 14.52l-80.12 0Z" id="p155w225" />
<path d="M143.76 572.68l45.71 0l0 14.52l-45.71 0Z" id="p155w226" />
<path d="M192.67 572.68l11.5 0l0 14.52l-11.5 0Z" id="p155w227" />
<path d="M226.33 572.68l16.57 0l0 14.52l-16.57 0Z" id="p155w228" />
<path d="M246.11 572.68l56.4 0l0 14.52l-56.4 0Z" id="p155w229" />
<path d="M305.72 572.68l14.18 0l0 14.52l-14.18 0Z" id="p155w230" />
<path d="M323.1 572.68l20.85 0l0 14.52l-20.85 0Z" id="p155w231" />
<path d="M355.45 572.68l10.43 0l0 14.52l-10.43 0Z" id="p155w232" />
<path d="M388.04 572.68l58.53 0l0 14.52l-58.53 0Z" id="p155w233" />
<path d="M449.78 572.68l22.99 0l0 14.52l-22.99 0Z" id="p155w234" />
<path d="M143.75 589.35l9.89 0l0 14.52l-9.89 0Z" id="p155w235" />
<path d="M156.85 589.35l35 0l0 14.52l-35 0Z" id="p155w236" />
<path d="M204.94 589.35l31.81 0l0 14.52l-31.81 0Z" id="p155w237" />
<path d="M239.96 589.35l13.9 0l0 14.52l-13.9 0Z" id="p155w238" />
<path d="M257.07 589.35l14.7 0l0 14.52l-14.7 0Z" id="p155w239" />
<path d="M143.75 607.8l36.45 0l0 12.29l-36.45 0Z" id="p155w240" />
<path d="M189.03 606.03l26.19 0l0 14.52l-26.19 0Z" id="p155w241" />
<path d="M218.43 606.03l24.08 0l0 14.52l-24.08 0Z" id="p155w242" />
<path d="M245.71 606.03l9.62 0l0 14.52l-9.62 0Z" id="p155w243" />
<path d="M277.5 606.03l16.57 0l0 14.52l-16.57 0Z" id="p155w244" />
<path d="M297.27 606.03l28.62 0l0 14.52l-28.62 0Z" id="p155w245" />
<path d="M329.1 606.03l27.27 0l0 14.52l-27.27 0Z" id="p155w246" />
<path d="M359.57 606.03l54.54 0l0 14.52l-54.54 0Z" id="p155w247" />
<path d="M417.32 606.03l22.99 0l0 14.52l-22.99 0Z" id="p155w248" />
<path d="M443.52 606.03l13.9 0l0 14.52l-13.9 0Z" id="p155w249" />
<path d="M460.63 606.03l29.67 0l0 14.52l-29.67 0Z" id="p155w250" />
<path d="M124.06 656.04l60.37 0l0 14.52l-60.37 0Z" id="p155w251" />
<path d="M187.32 656.04l10.52 0l0 14.52l-10.52 0Z" id="p155w252" />
<path d="M200.73 656.04l22.35 0l0 14.52l-22.35 0Z" id="p155w253" />
<path d="M226.97 655.97l44.02 0l0 14.6l-44.02 0Z" id="p155w254" />
<path d="M277.2 656.04l32.89 0l0 14.52l-32.89 0Z" id="p155w255" />
<path d="M312.98 656.04l54.43 0l0 14.52l-54.43 0Z" id="p155w256" />
<path d="M380.19 656.04l10.52 0l0 14.52l-10.52 0Z" id="p155w257" />
<path d="M393.6 656.04l31.26 0l0 14.52l-31.26 0Z" id="p155w258" />
<path d="M427.75 656.04l11.85 0l0 14.52l-11.85 0Z" id="p155w259" />
<path d="M452.38 656.04l47.3 0l0 14.52l-47.3 0Z" id="p155w260" />
<path d="M143.75 681.05l20.58 0l0 14.52l-20.58 0Z" id="p155w261" />
<path d="M167.53 681.05l7.48 0l0 14.52l-7.48 0Z" id="p155w262" />
<path d="M175.02 681.05l18.7 0l0 14.52l-18.7 0Z" id="p155w263" />
<path d="M196.93 681.05l17.38 0l0 14.52l-17.38 0Z" id="p155w264" />
<path d="M217.52 681.05l13.9 0l0 14.52l-13.9 0Z" id="p155w265" />
<path d="M234.63 681.05l24.33 0l0 14.52l-24.33 0Z" id="p155w266" />
<path d="M262.16 681.05l19.51 0l0 14.52l-19.51 0Z" id="p155w267" />
<path d="M284.88 681.05l38.48 0l0 14.52l-38.48 0Z" id="p155w268" />
<path d="M326.56 681.05l24.33 0l0 14.52l-24.33 0Z" id="p155w269" />
<path d="M354.09 681.05l19.51 0l0 14.52l-19.51 0Z" id="p155w270" />
<path d="M395.77 681.06l7.48 0l0 14.52l-7.48 0Z" id="p155w271" />
<path d="M403.26 681.06l18.7 0l0 14.52l-18.7 0Z" id="p155w272" />
<path d="M143.75 706.07l15.51 0l0 14.52l-15.51 0Z" id="p155w273" />
<path d="M162.47 706.07l21.65 0l0 14.52l-21.65 0Z" id="p155w274" />
<path d="M187.32 706.07l17.38 0l0 14.52l-17.38 0Z" id="p155w275" />
<path d="M207.91 706.07l25.92 0l0 14.52l-25.92 0Z" id="p155w276" />
<path d="M237.04 706.07l19.51 0l0 14.52l-19.51 0Z" id="p155w277" />
<path d="M259.76 706.07l46.07 0l0 14.52l-46.07 0Z" id="p155w278" />
<path d="M309.03 706.07l16.83 0l0 14.52l-16.83 0Z" id="p155w279" />
<path d="M329.07 706.07l14.18 0l0 14.52l-14.18 0Z" id="p155w280" />
<path d="M365.41 706.06l21.65 0l0 14.52l-21.65 0Z" id="p155w281" />
<path d="M143.75 731.08l22.19 0l0 14.52l-22.19 0Z" id="p155w282" />
<path d="M169.15 731.08l52.12 0l0 14.52l-52.12 0Z" id="p155w283" />
<path d="M224.48 731.08l17.38 0l0 14.52l-17.38 0Z" id="p155w284" />
<path d="M245.07 731.08l25.92 0l0 14.52l-25.92 0Z" id="p155w285" />
<path d="M274.2 731.08l19.51 0l0 14.52l-19.51 0Z" id="p155w286" />
<path d="M296.92 731.08l29.12 0l0 14.52l-29.12 0Z" id="p155w287" />
<path d="M329.24 731.08l16.83 0l0 14.52l-16.83 0Z" id="p155w288" />
<path d="M349.28 731.08l20.85 0l0 14.52l-20.85 0Z" id="p155w289" />
<path d="M392.3 731.07l52.12 0l0 14.52l-52.12 0Z" id="p155w290" />
<path d="M143.75 756.09l22.19 0l0 14.52l-22.19 0Z" id="p155w291" />
<path d="M169.15 756.09l52.12 0l0 14.52l-52.12 0Z" id="p155w292" />
<path d="M224.48 756.09l17.38 0l0 14.52l-17.38 0Z" id="p155w293" />
<path d="M245.07 756.09l15.87 0l0 14.52l-15.87 0Z" id="p155w294" />
<path d="M264.14 756.09l19.51 0l0 14.52l-19.51 0Z" id="p155w295" />
<path d="M286.86 756.09l25.4 0l0 14.52l-25.4 0Z" id="p155w296" />
<path d="M315.46 756.09l16.83 0l0 14.52l-16.83 0Z" id="p155w297" />
<path d="M335.5 756.09l20.85 0l0 14.52l-20.85 0Z" id="p155w298" />
<path d="M378.52 756.08l52.12 0l0 14.52l-52.12 0Z" id="p155w299" />
<path d="M143.75 781.1l22.19 0l0 14.52l-22.19 0Z" id="p155w300" />
<path d="M169.15 781.1l52.12 0l0 14.52l-52.12 0Z" id="p155w301" />
<path d="M224.48 781.1l17.38 0l0 14.52l-17.38 0Z" id="p155w302" />
<path d="M245.07 781.1l13.9 0l0 14.52l-13.9 0Z" id="p155w303" />
<path d="M262.17 781.1l18.7 0l0 14.52l-18.7 0Z" id="p155w304" />
<path d="M284.09 781.1l36.07 0l0 14.52l-36.07 0Z" id="p155w305" />
<path d="M323.37 781.1l9.89 0l0 14.52l-9.89 0Z" id="p155w306" />
<path d="M336.46 781.1l18.19 0l0 14.52l-18.19 0Z" id="p155w307" />
<path d="M357.86 781.1l16.83 0l0 14.52l-16.83 0Z" id="p155w308" />
<path d="M377.89 781.1l20.85 0l0 14.52l-20.85 0Z" id="p155w309" />
<path d="M420.92 781.09l52.12 0l0 14.52l-52.12 0Z" id="p155w310" />
<path d="M143.75 806.1l20.58 0l0 14.52l-20.58 0Z" id="p155w311" />
<path d="M167.53 806.1l29.95 0l0 14.52l-29.95 0Z" id="p155w312" />
<path d="M200.69 806.1l17.38 0l0 14.52l-17.38 0Z" id="p155w313" />
<path d="M221.28 806.1l13.9 0l0 14.52l-13.9 0Z" id="p155w314" />
<path d="M238.39 806.1l24.33 0l0 14.52l-24.33 0Z" id="p155w315" />
<path d="M265.92 806.1l19.51 0l0 14.52l-19.51 0Z" id="p155w316" />
<path d="M288.64 806.1l42.49 0l0 14.52l-42.49 0Z" id="p155w317" />
<path d="M334.33 806.1l24.33 0l0 14.52l-24.33 0Z" id="p155w318" />
<path d="M361.87 806.1l19.51 0l0 14.52l-19.51 0Z" id="p155w319" />
<path d="M403.55 806.1l29.95 0l0 14.52l-29.95 0Z" id="p155w320" />
<path d="M143.75 831.11l20.58 0l0 14.52l-20.58 0Z" id="p155w321" />
<path d="M167.53 831.11l52.65 0l0 14.52l-52.65 0Z" id="p155w322" />
<path d="M223.39 831.11l17.38 0l0 14.52l-17.38 0Z" id="p155w323" />
<path d="M243.98 831.11l42.78 0l0 14.52l-42.78 0Z" id="p155w324" />
<path d="M289.97 831.11l54.55 0l0 14.52l-54.55 0Z" id="p155w325" />
<path d="M347.73 831.11l46 0l0 14.52l-46 0Z" id="p155w326" />
<path d="M396.94 831.11l24.33 0l0 14.52l-24.33 0Z" id="p155w327" />
<path d="M424.47 831.11l19.51 0l0 14.52l-19.51 0Z" id="p155w328" />
<path d="M466.15 831.11l52.65 0l0 14.52l-52.65 0Z" id="p155w329" />
<path d="M143.75 856.12l22.19 0l0 14.52l-22.19 0Z" id="p155w330" />
<path d="M169.14 856.12l41.96 0l0 14.52l-41.96 0Z" id="p155w331" />
<path d="M214.31 856.12l30.23 0l0 14.52l-30.23 0Z" id="p155w332" />
<path d="M247.75 856.12l13.9 0l0 14.52l-13.9 0Z" id="p155w333" />
<path d="M264.85 856.12l25.4 0l0 14.52l-25.4 0Z" id="p155w334" />
<path d="M293.46 856.12l19.51 0l0 14.52l-19.51 0Z" id="p155w335" />
<path d="M316.17 856.12l31.55 0l0 14.52l-31.55 0Z" id="p155w336" />
<path d="M350.93 856.12l16.83 0l0 14.52l-16.83 0Z" id="p155w337" />
<path d="M370.96 856.12l20.85 0l0 14.52l-20.85 0Z" id="p155w338" />
<path d="M413.99 856.12l41.96 0l0 14.52l-41.96 0Z" id="p155w339" />
<path d="M582.61 676.13l24.33 0l0 14.52l-24.33 0Z" id="p155w340" />
<path d="M582.61 801.18l62.53 0l0 14.52l-62.53 0Z" id="p155w341" />
<path d="M582.61 826.19l21.4 0l0 14.52l-21.4 0Z" id="p155w342" />
<path d="M582.61 851.2l44.92 0l0 14.52l-44.92 0Z" id="p155w343" />
<path d="M582.61 701.14l57.22 0l0 14.52l-57.22 0Z" id="p155w344" />
<path d="M582.4 726.15l57.43 0l0 14.52l-57.43 0Z" id="p155w345" />
<path d="M582.61 751.16l32.55 0l0 14.52l-32.55 0Z" id="p155w346" />
<path d="M582.61 776.17l39.56 0l0 14.52l-39.56 0Z" id="p155w347" />
<path d="M68.27 38.6l62.95 0l0 16.09l-62.95 0Z" id="p155w348" />
<path d="M596.92 983l94.18 0l0 12.23l-94.18 0Z" id="p155w349" />
</svg>
