<?xml version="1.0" encoding="UTF-8"?>
<svg xmlns="http://www.w3.org/2000/svg" xmlns:xlink="http://www.w3.org/1999/xlink" version="1.1" baseProfile="full" width="768" height="1024" viewBox="0,0,768,1024" preserveAspectRatio="xMinYMin meet" >
<style type="text/css">
<![CDATA[
path {fill-opacity: 0.5;fill: #00aeef;visibility: hidden;}
]]>
</style>
<path d="M124.06 107.98l17.01 0l0 18.84l-17.01 0Z" id="p42w1" />
<path d="M144.72 107.98l81.21 0l0 18.84l-81.21 0Z" id="p42w2" />
<path d="M124.06 155.88l15.44 0l0 14.6l-15.44 0Z" id="p42w3" />
<path d="M142.71 155.88l41.75 0l0 14.6l-41.75 0Z" id="p42w4" />
<path d="M187.67 155.88l33.55 0l0 14.6l-33.55 0Z" id="p42w5" />
<path d="M224.43 155.88l25.45 0l0 14.6l-25.45 0Z" id="p42w6" />
<path d="M253.08 155.88l62.89 0l0 14.6l-62.89 0Z" id="p42w7" />
<path d="M378.1 155.88l20.79 0l0 14.6l-20.79 0Z" id="p42w8" />
<path d="M402.09 155.88l48.76 0l0 14.6l-48.76 0Z" id="p42w9" />
<path d="M454.06 155.88l14.28 0l0 14.6l-14.28 0Z" id="p42w10" />
<path d="M471.55 155.88l33.47 0l0 14.6l-33.47 0Z" id="p42w11" />
<path d="M384.01 179.91l19.63 0l0 14.6l-19.63 0Z" id="p42w12" />
<path d="M406.32 179.91l25.44 0l0 14.6l-25.44 0Z" id="p42w13" />
<path d="M434.96 179.91l30.98 0l0 14.61l-30.98 0Z" id="p42w14" />
<path d="M129.99 202.07l10.43 0l0 14.52l-10.43 0Z" id="p42w15" />
<path d="M143.62 202.07l13.9 0l0 14.52l-13.9 0Z" id="p42w16" />
<path d="M160.73 202.01l26.04 0l0 14.6l-26.04 0Z" id="p42w17" />
<path d="M189.98 202.07l19.51 0l0 14.52l-19.51 0Z" id="p42w18" />
<path d="M212.69 202.07l18.72 0l0 14.52l-18.72 0Z" id="p42w19" />
<path d="M234.62 202.07l44.64 0l0 14.52l-44.64 0Z" id="p42w20" />
<path d="M384.02 202.07l9.62 0l0 14.52l-9.62 0Z" id="p42w21" />
<path d="M396.85 202.07l25.94 0l0 14.52l-25.94 0Z" id="p42w22" />
<path d="M527.13 202.07l26.74 0l0 14.52l-26.74 0Z" id="p42w23" />
<path d="M557.08 202.07l17.12 0l0 14.52l-17.12 0Z" id="p42w24" />
<path d="M580.22 202.07l19.79 0l0 14.52l-19.79 0Z" id="p42w25" />
<path d="M384.02 218.74l11.5 0l0 14.52l-11.5 0Z" id="p42w26" />
<path d="M398.73 218.74l25.94 0l0 14.52l-25.94 0Z" id="p42w27" />
<path d="M527.13 218.74l25.67 0l0 14.52l-25.67 0Z" id="p42w28" />
<path d="M556.01 218.74l17.12 0l0 14.52l-17.12 0Z" id="p42w29" />
<path d="M579.15 218.74l12.57 0l0 14.52l-12.57 0Z" id="p42w30" />
<path d="M384.02 235.42l6.41 0l0 14.52l-6.41 0Z" id="p42w31" />
<path d="M398.69 235.42l19.77 0l0 14.52l-19.77 0Z" id="p42w32" />
<path d="M426.71 235.42l14.18 0l0 14.52l-14.18 0Z" id="p42w33" />
<path d="M444.09 235.42l24.87 0l0 14.52l-24.87 0Z" id="p42w34" />
<path d="M527.13 235.42l12.02 0l0 14.52l-12.02 0Z" id="p42w35" />
<path d="M547.4 235.42l25.38 0l0 14.52l-25.38 0Z" id="p42w36" />
<path d="M575.99 235.42l38.77 0l0 14.52l-38.77 0Z" id="p42w37" />
<path d="M413.76 252.09l14.8 0l0 14.52l-14.8 0Z" id="p42w38" />
<path d="M431.76 252.09l17.38 0l0 14.52l-17.38 0Z" id="p42w39" />
<path d="M124.09 283.94l15.44 0l0 14.6l-15.44 0Z" id="p42w40" />
<path d="M142.74 283.94l60.08 0l0 14.6l-60.08 0Z" id="p42w41" />
<path d="M206.03 283.94l48.72 0l0 14.6l-48.72 0Z" id="p42w42" />
<path d="M257.96 283.94l25.45 0l0 14.6l-25.45 0Z" id="p42w43" />
<path d="M286.61 283.94l33.26 0l0 14.6l-33.26 0Z" id="p42w44" />
<path d="M124.09 300.61l30.68 0l0 14.6l-30.68 0Z" id="p42w45" />
<path d="M157.97 300.61l34.85 0l0 14.6l-34.85 0Z" id="p42w46" />
<path d="M378.12 283.94l20.79 0l0 14.6l-20.79 0Z" id="p42w47" />
<path d="M402.12 283.94l48.76 0l0 14.6l-48.76 0Z" id="p42w48" />
<path d="M454.08 283.94l14.28 0l0 14.6l-14.28 0Z" id="p42w49" />
<path d="M471.57 283.94l33.47 0l0 14.6l-33.47 0Z" id="p42w50" />
<path d="M384.04 324.64l17.21 0l0 14.6l-17.21 0Z" id="p42w51" />
<path d="M404.45 324.64l56.88 0l0 14.6l-56.88 0Z" id="p42w52" />
<path d="M130.01 372.58l15.6 0l0 14.52l-15.6 0Z" id="p42w53" />
<path d="M148.82 372.52l81.57 0l0 14.6l-81.57 0Z" id="p42w54" />
<path d="M233.6 372.58l34.23 0l0 14.52l-34.23 0Z" id="p42w55" />
<path d="M271.04 372.58l13.9 0l0 14.52l-13.9 0Z" id="p42w56" />
<path d="M288.14 372.58l11.22 0l0 14.52l-11.22 0Z" id="p42w57" />
<path d="M302.57 372.58l53.73 0l0 14.52l-53.73 0Z" id="p42w58" />
<path d="M130.01 389.19l82.54 0l0 14.6l-82.54 0Z" id="p42w59" />
<path d="M218.44 389.25l11.5 0l0 14.52l-11.5 0Z" id="p42w60" />
<path d="M233.14 389.25l25.21 0l0 14.52l-25.21 0Z" id="p42w61" />
<path d="M261.56 389.25l30.99 0l0 14.52l-30.99 0Z" id="p42w62" />
<path d="M295.76 389.25l14.18 0l0 14.52l-14.18 0Z" id="p42w63" />
<path d="M313.14 389.25l29.39 0l0 14.52l-29.39 0Z" id="p42w64" />
<path d="M130.01 405.92l52.04 0l0 14.52l-52.04 0Z" id="p42w65" />
<path d="M130.01 439.27l10.43 0l0 14.52l-10.43 0Z" id="p42w66" />
<path d="M143.65 439.27l21.38 0l0 14.52l-21.38 0Z" id="p42w67" />
<path d="M168.24 439.2l50.24 0l0 14.6l-50.24 0Z" id="p42w68" />
<path d="M221.68 439.27l45.71 0l0 14.52l-45.71 0Z" id="p42w69" />
<path d="M384.05 346.79l45.93 0l0 14.52l-45.93 0Z" id="p42w70" />
<path d="M395.8 372.57l57.14 0l0 14.52l-57.14 0Z" id="p42w71" />
<path d="M456.14 372.57l18.44 0l0 14.52l-18.44 0Z" id="p42w72" />
<path d="M477.79 372.57l42.73 0l0 14.52l-42.73 0Z" id="p42w73" />
<path d="M523.72 372.5l33.37 0l0 14.6l-33.37 0Z" id="p42w74" />
<path d="M560.3 372.57l13.9 0l0 14.52l-13.9 0Z" id="p42w75" />
<path d="M577.41 372.57l17.11 0l0 14.52l-17.11 0Z" id="p42w76" />
<path d="M597.72 372.5l49.87 0l0 14.6l-49.87 0Z" id="p42w77" />
<path d="M384.05 389.24l28.6 0l0 14.52l-28.6 0Z" id="p42w78" />
<path d="M415.86 389.24l19.51 0l0 14.52l-19.51 0Z" id="p42w79" />
<path d="M438.57 389.24l53.46 0l0 14.52l-53.46 0Z" id="p42w80" />
<path d="M495.24 389.21l50.5 0l0 14.52l-50.5 0Z" id="p42w81" />
<path d="M564.03 389.21l79.63 0l0 14.52l-79.63 0Z" id="p42w82" />
<path d="M396.77 414.25l17.91 0l0 14.52l-17.91 0Z" id="p42w83" />
<path d="M417.89 414.25l61.22 0l0 14.52l-61.22 0Z" id="p42w84" />
<path d="M482.32 414.25l17.11 0l0 14.52l-17.11 0Z" id="p42w85" />
<path d="M502.63 414.25l14.16 0l0 14.52l-14.16 0Z" id="p42w86" />
<path d="M520 414.25l67.9 0l0 14.52l-67.9 0Z" id="p42w87" />
<path d="M591.11 414.25l17.91 0l0 14.52l-17.91 0Z" id="p42w88" />
<path d="M611.79 414.25l29.69 0l0 14.52l-29.69 0Z" id="p42w89" />
<path d="M384.05 430.92l37.7 0l0 14.52l-37.7 0Z" id="p42w90" />
<path d="M424.95 430.92l24.59 0l0 14.52l-24.59 0Z" id="p42w91" />
<path d="M452.75 430.92l17.11 0l0 14.52l-17.11 0Z" id="p42w92" />
<path d="M473.06 430.92l42.73 0l0 14.52l-42.73 0Z" id="p42w93" />
<path d="M519 430.86l33.37 0l0 14.6l-33.37 0Z" id="p42w94" />
<path d="M555.57 430.92l13.9 0l0 14.52l-13.9 0Z" id="p42w95" />
<path d="M572.68 430.92l17.11 0l0 14.52l-17.11 0Z" id="p42w96" />
<path d="M592.99 430.86l57.8 0l0 14.6l-57.8 0Z" id="p42w97" />
<path d="M384.05 447.59l28.6 0l0 14.52l-28.6 0Z" id="p42w98" />
<path d="M415.86 447.59l60.55 0l0 14.52l-60.55 0Z" id="p42w99" />
<path d="M486.03 447.57l20.08 0l0 14.52l-20.08 0Z" id="p42w100" />
<path d="M524.4 447.57l49.21 0l0 14.52l-49.21 0Z" id="p42w101" />
<path d="M396.77 472.61l85.93 0l0 14.52l-85.93 0Z" id="p42w102" />
<path d="M485.91 472.61l42.5 0l0 14.52l-42.5 0Z" id="p42w103" />
<path d="M535.05 472.58l73.76 0l0 14.52l-73.76 0Z" id="p42w104" />
<path d="M384.05 489.25l71.12 0l0 14.52l-71.12 0Z" id="p42w105" />
<path d="M458.2 489.25l73.22 0l0 14.52l-73.22 0Z" id="p42w106" />
<path d="M534.45 489.25l65.47 0l0 14.52l-65.47 0Z" id="p42w107" />
<path d="M602.96 489.25l57.21 0l0 14.52l-57.21 0Z" id="p42w108" />
<path d="M124.11 521.13l15.44 0l0 14.6l-15.44 0Z" id="p42w109" />
<path d="M142.77 521.13l52.19 0l0 14.6l-52.19 0Z" id="p42w110" />
<path d="M198.16 521.13l57.17 0l0 14.6l-57.17 0Z" id="p42w111" />
<path d="M378.15 521.13l20.79 0l0 14.6l-20.79 0Z" id="p42w112" />
<path d="M402.14 521.13l48.76 0l0 14.6l-48.76 0Z" id="p42w113" />
<path d="M454.11 521.13l14.28 0l0 14.6l-14.28 0Z" id="p42w114" />
<path d="M471.6 521.13l33.47 0l0 14.6l-33.47 0Z" id="p42w115" />
<path d="M384.06 545.16l17.21 0l0 14.6l-17.21 0Z" id="p42w116" />
<path d="M403.95 545.16l63.96 0l0 14.6l-63.96 0Z" id="p42w117" />
<path d="M130.04 567.26l52.28 0l0 14.6l-52.28 0Z" id="p42w118" />
<path d="M185.53 567.26l13.9 0l0 14.6l-13.9 0Z" id="p42w119" />
<path d="M202.64 567.33l25.4 0l0 14.52l-25.4 0Z" id="p42w120" />
<path d="M231.24 567.33l33.94 0l0 14.52l-33.94 0Z" id="p42w121" />
<path d="M268.38 567.33l15.5 0l0 14.52l-15.5 0Z" id="p42w122" />
<path d="M287.09 567.33l30.99 0l0 14.52l-30.99 0Z" id="p42w123" />
<path d="M321.29 567.33l42.77 0l0 14.52l-42.77 0Z" id="p42w124" />
<path d="M130.04 583.93l24.72 0l0 14.6l-24.72 0Z" id="p42w125" />
<path d="M165.19 584l8.65 0l0 14.52l-8.65 0Z" id="p42w126" />
<path d="M177.04 584l40.84 0l0 14.52l-40.84 0Z" id="p42w127" />
<path d="M221.09 584l36.89 0l0 14.52l-36.89 0Z" id="p42w128" />
<path d="M261.19 584l9.89 0l0 14.52l-9.89 0Z" id="p42w129" />
<path d="M274.28 584l36.88 0l0 14.52l-36.88 0Z" id="p42w130" />
<path d="M314.37 584l32.09 0l0 14.52l-32.09 0Z" id="p42w131" />
<path d="M130.04 617.34l35 0l0 14.52l-35 0Z" id="p42w132" />
<path d="M168.25 617.34l56.16 0l0 14.52l-56.16 0Z" id="p42w133" />
<path d="M227.62 617.34l12.57 0l0 14.52l-12.57 0Z" id="p42w134" />
<path d="M250.62 617.34l8.65 0l0 14.52l-8.65 0Z" id="p42w135" />
<path d="M262.47 617.34l50.76 0l0 14.52l-50.76 0Z" id="p42w136" />
<path d="M316.44 617.27l52.31 0l0 14.6l-52.31 0Z" id="p42w137" />
<path d="M130.04 634.01l20.05 0l0 14.52l-20.05 0Z" id="p42w138" />
<path d="M160.52 634.01l8.65 0l0 14.52l-8.65 0Z" id="p42w139" />
<path d="M172.37 633.94l21.87 0l0 14.6l-21.87 0Z" id="p42w140" />
<path d="M197.45 634.01l50.55 0l0 14.52l-50.55 0Z" id="p42w141" />
<path d="M384.07 567.31l15.5 0l0 14.52l-15.5 0Z" id="p42w142" />
<path d="M402.78 567.31l41.45 0l0 14.52l-41.45 0Z" id="p42w143" />
<path d="M453.85 567.25l52.31 0l0 14.6l-52.31 0Z" id="p42w144" />
<path d="M509.36 567.25l13.9 0l0 14.6l-13.9 0Z" id="p42w145" />
<path d="M553.9 567.25l21.87 0l0 14.6l-21.87 0Z" id="p42w146" />
<path d="M578.98 567.25l13.9 0l0 14.6l-13.9 0Z" id="p42w147" />
<path d="M384.07 617.32l15.5 0l0 14.52l-15.5 0Z" id="p42w148" />
<path d="M402.78 617.32l36.09 0l0 14.52l-36.09 0Z" id="p42w149" />
<path d="M448.49 617.26l31.57 0l0 14.6l-31.57 0Z" id="p42w150" />
<path d="M483.27 617.26l52.31 0l0 14.6l-52.31 0Z" id="p42w151" />
<path d="M545.33 617.26l31.57 0l0 14.6l-31.57 0Z" id="p42w152" />
<path d="M580.11 617.26l21.87 0l0 14.6l-21.87 0Z" id="p42w153" />
<path d="M124.14 665.85l15.44 0l0 14.6l-15.44 0Z" id="p42w154" />
<path d="M142.79 665.85l38.26 0l0 14.6l-38.26 0Z" id="p42w155" />
<path d="M184.26 665.85l23.23 0l0 14.6l-23.23 0Z" id="p42w156" />
<path d="M210.7 665.85l10.56 0l0 14.6l-10.56 0Z" id="p42w157" />
<path d="M224.47 665.85l18.51 0l0 14.6l-18.51 0Z" id="p42w158" />
<path d="M245.65 665.85l81.82 0l0 14.6l-81.82 0Z" id="p42w159" />
<path d="M124.14 682.52l67.62 0l0 14.6l-67.62 0Z" id="p42w160" />
<path d="M378.17 665.85l20.79 0l0 14.6l-20.79 0Z" id="p42w161" />
<path d="M402.17 665.85l48.76 0l0 14.6l-48.76 0Z" id="p42w162" />
<path d="M454.14 665.85l14.28 0l0 14.6l-14.28 0Z" id="p42w163" />
<path d="M471.63 665.85l30 0l0 14.6l-30 0Z" id="p42w164" />
<path d="M384.09 706.55l21.09 0l0 14.6l-21.09 0Z" id="p42w165" />
<path d="M408.39 706.55l36.4 0l0 14.61l-36.4 0Z" id="p42w166" />
<path d="M448 706.55l19.61 0l0 14.6l-19.61 0Z" id="p42w167" />
<path d="M470.82 706.55l48.93 0l0 14.61l-48.93 0Z" id="p42w168" />
<path d="M522.96 706.55l31.41 0l0 14.61l-31.41 0Z" id="p42w169" />
<path d="M557.58 706.55l10.56 0l0 14.6l-10.56 0Z" id="p42w170" />
<path d="M570.82 706.55l64.48 0l0 14.6l-64.48 0Z" id="p42w171" />
<path d="M384.09 723.22l19.02 0l0 14.6l-19.02 0Z" id="p42w172" />
<path d="M406.32 723.22l27.72 0l0 14.61l-27.72 0Z" id="p42w173" />
<path d="M130.07 745.37l12.41 0l0 14.52l-12.41 0Z" id="p42w174" />
<path d="M145.68 745.37l12.29 0l0 14.52l-12.29 0Z" id="p42w175" />
<path d="M161.18 745.37l13.11 0l0 14.52l-13.11 0Z" id="p42w176" />
<path d="M177.49 745.37l15.5 0l0 14.52l-15.5 0Z" id="p42w177" />
<path d="M196.2 745.37l52.9 0l0 14.52l-52.9 0Z" id="p42w178" />
<path d="M252.31 745.37l19.51 0l0 14.52l-19.51 0Z" id="p42w179" />
<path d="M275.02 745.37l26.98 0l0 14.52l-26.98 0Z" id="p42w180" />
<path d="M130.07 762.04l21.4 0l0 14.52l-21.4 0Z" id="p42w181" />
<path d="M154.67 762.04l9.62 0l0 14.52l-9.62 0Z" id="p42w182" />
<path d="M167.5 761.98l15.76 0l0 14.6l-15.76 0Z" id="p42w183" />
<path d="M186.47 762.04l9.89 0l0 14.52l-9.89 0Z" id="p42w184" />
<path d="M199.56 761.98l37.72 0l0 14.6l-37.72 0Z" id="p42w185" />
<path d="M130.07 789.35l12.41 0l0 14.52l-12.41 0Z" id="p42w186" />
<path d="M145.68 789.35l12.29 0l0 14.52l-12.29 0Z" id="p42w187" />
<path d="M161.18 789.35l35.56 0l0 14.52l-35.56 0Z" id="p42w188" />
<path d="M199.94 789.29l10.03 0l0 14.6l-10.03 0Z" id="p42w189" />
<path d="M213.18 789.29l45.17 0l0 14.6l-45.17 0Z" id="p42w190" />
<path d="M261.56 789.29l20.96 0l0 14.6l-20.96 0Z" id="p42w191" />
<path d="M285.73 789.35l15.5 0l0 14.52l-15.5 0Z" id="p42w192" />
<path d="M130.07 806.02l76.2 0l0 14.52l-76.2 0Z" id="p42w193" />
<path d="M209.47 806.02l18.72 0l0 14.52l-18.72 0Z" id="p42w194" />
<path d="M231.4 805.96l38.23 0l0 14.6l-38.23 0Z" id="p42w195" />
<path d="M130.07 830.97l41.02 0l0 14.6l-41.02 0Z" id="p42w196" />
<path d="M174.3 830.97l38.73 0l0 14.6l-38.73 0Z" id="p42w197" />
<path d="M216.23 831.03l33.05 0l0 14.52l-33.05 0Z" id="p42w198" />
<path d="M252.49 831.03l20.85 0l0 14.52l-20.85 0Z" id="p42w199" />
<path d="M276.55 831.03l11.5 0l0 14.52l-11.5 0Z" id="p42w200" />
<path d="M291.26 831.03l12.29 0l0 14.52l-12.29 0Z" id="p42w201" />
<path d="M306.75 830.97l33.33 0l0 14.6l-33.33 0Z" id="p42w202" />
<path d="M384.1 745.4l28.87 0l0 14.52l-28.87 0Z" id="p42w203" />
<path d="M416.18 745.37l31.81 0l0 14.52l-31.81 0Z" id="p42w204" />
<path d="M451.19 745.37l49.17 0l0 14.52l-49.17 0Z" id="p42w205" />
<path d="M503.57 745.4l18.7 0l0 14.52l-18.7 0Z" id="p42w206" />
<path d="M525.48 745.37l26.76 0l0 14.52l-26.76 0Z" id="p42w207" />
<path d="M555.44 745.4l53.99 0l0 14.52l-53.99 0Z" id="p42w208" />
<path d="M612.63 745.4l21.92 0l0 14.52l-21.92 0Z" id="p42w209" />
<path d="M637.77 745.4l19.51 0l0 14.52l-19.51 0Z" id="p42w210" />
<path d="M384.1 762.07l42.24 0l0 14.52l-42.24 0Z" id="p42w211" />
<path d="M429.55 762.07l18.72 0l0 14.52l-18.72 0Z" id="p42w212" />
<path d="M451.47 762.07l31.02 0l0 14.52l-31.02 0Z" id="p42w213" />
<path d="M485.7 762.07l31.01 0l0 14.52l-31.01 0Z" id="p42w214" />
<path d="M519.91 762.07l21.38 0l0 14.52l-21.38 0Z" id="p42w215" />
<path d="M544.5 762.07l17.11 0l0 14.52l-17.11 0Z" id="p42w216" />
<path d="M564.81 762l45.56 0l0 14.6l-45.56 0Z" id="p42w217" />
<path d="M613.58 762l36.88 0l0 14.6l-36.88 0Z" id="p42w218" />
<path d="M384.1 778.67l62.66 0l0 14.6l-62.66 0Z" id="p42w219" />
<path d="M449.97 778.74l48.9 0l0 14.52l-48.9 0Z" id="p42w220" />
<path d="M502.08 778.74l96.25 0l0 14.52l-96.25 0Z" id="p42w221" />
<path d="M384.1 795.41l95.26 0l0 14.52l-95.26 0Z" id="p42w222" />
<path d="M482.57 795.38l20.3 0l0 14.52l-20.3 0Z" id="p42w223" />
<path d="M508.76 795.38l23.24 0l0 14.52l-23.24 0Z" id="p42w224" />
<path d="M544.83 795.41l47.32 0l0 14.52l-47.32 0Z" id="p42w225" />
<path d="M124.06 39.02l42.02 0l0 15.38l-42.02 0Z" id="p42w226" />
<path d="M208.73 39.02l43.21 0l0 15.38l-43.21 0Z" id="p42w227" />
<path d="M307.2 39.02l43.21 0l0 15.38l-43.21 0Z" id="p42w228" />
<path d="M414.72 39.02l28.68 0l0 15.38l-28.68 0Z" id="p42w229" />
<path d="M446.78 39.02l44.38 0l0 15.38l-44.38 0Z" id="p42w230" />
<path d="M524.22 38.6l34.29 0l0 16.09l-34.29 0Z" id="p42w231" />
<path d="M76.9 983l42.32 0l0 12.23l-42.32 0Z" id="p42w232" />
</svg>
