<?xml version="1.0" encoding="UTF-8"?>
<svg xmlns="http://www.w3.org/2000/svg" xmlns:xlink="http://www.w3.org/1999/xlink" version="1.1" baseProfile="full" width="768" height="1024" viewBox="0,0,768,1024" preserveAspectRatio="xMinYMin meet" >
<style type="text/css">
<![CDATA[
path {fill-opacity: 0.5;fill: #00aeef;visibility: hidden;}
]]>
</style>
<path d="M76.9 983.66l106.89 0l0 12.23l-106.89 0Z" id="p234w1" />
<path d="M124.06 38.6l81.82 0l0 16.09l-81.82 0Z" id="p234w2" />
<path d="M124.06 112.45l35.31 0l0 12.29l-35.31 0Z" id="p234w3" />
<path d="M165.23 111.41l24.7 0l0 13.77l-24.7 0Z" id="p234w4" />
<path d="M195.79 112.51l25.77 0l0 12.23l-25.77 0Z" id="p234w5" />
<path d="M224.25 112.51l42.72 0l0 12.23l-42.72 0Z" id="p234w6" />
<path d="M269.67 112.26l18.17 0l0 12.56l-18.17 0Z" id="p234w7" />
<path d="M124.06 127.79l4.72 0l0 12.23l-4.72 0Z" id="p234w8" />
<path d="M128.79 127.74l71.93 0l0 12.29l-71.93 0Z" id="p234w9" />
<path d="M227.72 126.69l49.18 0l0 13.77l-49.18 0Z" id="p234w10" />
<path d="M282.76 127.79l14.41 0l0 12.23l-14.41 0Z" id="p234w11" />
<path d="M133.91 143.08l54.34 0l0 12.23l-54.34 0Z" id="p234w12" />
<path d="M190.95 143.08l14.41 0l0 12.23l-14.41 0Z" id="p234w13" />
<path d="M208.06 143.08l36.68 0l0 12.23l-36.68 0Z" id="p234w14" />
<path d="M247.44 142.83l18.92 0l0 12.56l-18.92 0Z" id="p234w15" />
<path d="M124.06 158.3l37.19 0l0 12.29l-37.19 0Z" id="p234w16" />
<path d="M163.95 158.36l27.37 0l0 12.23l-27.37 0Z" id="p234w17" />
<path d="M205.5 157.26l31.63 0l0 13.77l-31.63 0Z" id="p234w18" />
<path d="M242.99 158.36l40.5 0l0 12.23l-40.5 0Z" id="p234w19" />
<path d="M133.91 173.64l40.3 0l0 12.23l-40.3 0Z" id="p234w20" />
<path d="M176.91 173.64l50.67 0l0 12.23l-50.67 0Z" id="p234w21" />
<path d="M230.29 173.4l18.17 0l0 12.56l-18.17 0Z" id="p234w22" />
<path d="M124.06 188.93l11.94 0l0 12.23l-11.94 0Z" id="p234w23" />
<path d="M138.7 188.87l31.44 0l0 12.29l-31.44 0Z" id="p234w24" />
<path d="M170.15 188.93l21.73 0l0 12.23l-21.73 0Z" id="p234w25" />
<path d="M194.58 188.87l36.99 0l0 12.29l-36.99 0Z" id="p234w26" />
<path d="M237.43 187.83l39.81 0l0 13.77l-39.81 0Z" id="p234w27" />
<path d="M133.91 203.11l42.42 0l0 13.77l-42.42 0Z" id="p234w28" />
<path d="M182.18 204.21l14.41 0l0 12.23l-14.41 0Z" id="p234w29" />
<path d="M199.29 204.21l101.39 0l0 12.23l-101.39 0Z" id="p234w30" />
<path d="M133.91 219.49l20.03 0l0 12.23l-20.03 0Z" id="p234w31" />
<path d="M156.64 219.49l106.01 0l0 12.23l-106.01 0Z" id="p234w32" />
<path d="M265.35 219.25l18.92 0l0 12.56l-18.92 0Z" id="p234w33" />
<path d="M124.06 234.72l40.68 0l0 12.29l-40.68 0Z" id="p234w34" />
<path d="M167.44 234.78l11.04 0l0 12.23l-11.04 0Z" id="p234w35" />
<path d="M184.34 233.68l26.95 0l0 13.77l-26.95 0Z" id="p234w36" />
<path d="M217.15 234.78l19.44 0l0 12.23l-19.44 0Z" id="p234w37" />
<path d="M239.29 234.78l35.79 0l0 12.23l-35.79 0Z" id="p234w38" />
<path d="M277.78 234.53l15.54 0l0 12.56l-15.54 0Z" id="p234w39" />
<path d="M124.06 250.06l17.56 0l0 12.23l-17.56 0Z" id="p234w40" />
<path d="M144.32 250l32.15 0l0 12.29l-32.15 0Z" id="p234w41" />
<path d="M182.33 248.96l31.27 0l0 13.77l-31.27 0Z" id="p234w42" />
<path d="M219.45 250.06l20.03 0l0 12.23l-20.03 0Z" id="p234w43" />
<path d="M242.18 250.06l58.27 0l0 12.23l-58.27 0Z" id="p234w44" />
<path d="M133.91 265.34l14.41 0l0 12.23l-14.41 0Z" id="p234w45" />
<path d="M150.72 265.34l24.99 0l0 12.23l-24.99 0Z" id="p234w46" />
<path d="M178.4 265.1l14.63 0l0 12.56l-14.63 0Z" id="p234w47" />
<path d="M124.06 280.57l35.49 0l0 12.29l-35.49 0Z" id="p234w48" />
<path d="M165.41 279.53l30.48 0l0 13.77l-30.48 0Z" id="p234w49" />
<path d="M201.75 280.63l30.62 0l0 12.23l-30.62 0Z" id="p234w50" />
<path d="M235.07 280.38l18.17 0l0 12.56l-18.17 0Z" id="p234w51" />
<path d="M124.06 295.85l35.52 0l0 12.29l-35.52 0Z" id="p234w52" />
<path d="M162.29 295.91l11.7 0l0 12.23l-11.7 0Z" id="p234w53" />
<path d="M176.69 295.91l21.37 0l0 12.23l-21.37 0Z" id="p234w54" />
<path d="M200.77 295.91l11.04 0l0 12.23l-11.04 0Z" id="p234w55" />
<path d="M217.66 294.81l22.37 0l0 13.77l-22.37 0Z" id="p234w56" />
<path d="M245.9 295.91l50.21 0l0 12.23l-50.21 0Z" id="p234w57" />
<path d="M133.91 311.19l19.44 0l0 12.23l-19.44 0Z" id="p234w58" />
<path d="M156.05 311.19l10.82 0l0 12.23l-10.82 0Z" id="p234w59" />
<path d="M169.57 311.19l15.76 0l0 12.23l-15.76 0Z" id="p234w60" />
<path d="M188.03 310.95l18.92 0l0 12.56l-18.92 0Z" id="p234w61" />
<path d="M124.06 326.42l35.52 0l0 12.29l-35.52 0Z" id="p234w62" />
<path d="M162.29 326.48l11.04 0l0 12.23l-11.04 0Z" id="p234w63" />
<path d="M179.18 325.38l22.37 0l0 13.77l-22.37 0Z" id="p234w64" />
<path d="M207.41 326.48l19.44 0l0 12.23l-19.44 0Z" id="p234w65" />
<path d="M229.55 326.48l59.62 0l0 12.23l-59.62 0Z" id="p234w66" />
<path d="M133.91 341.76l19.44 0l0 12.23l-19.44 0Z" id="p234w67" />
<path d="M156.05 341.76l64.12 0l0 12.23l-64.12 0Z" id="p234w68" />
<path d="M222.87 341.76l19.44 0l0 12.23l-19.44 0Z" id="p234w69" />
<path d="M245.02 341.76l47.95 0l0 12.23l-47.95 0Z" id="p234w70" />
<path d="M133.91 356.8l15.34 0l0 12.56l-15.34 0Z" id="p234w71" />
<path d="M124.06 372.33l4.72 0l0 12.23l-4.72 0Z" id="p234w72" />
<path d="M128.79 372.27l14.41 0l0 12.29l-14.41 0Z" id="p234w73" />
<path d="M170.2 371.23l15.38 0l0 13.77l-15.38 0Z" id="p234w74" />
<path d="M191.44 372.33l15.53 0l0 12.23l-15.53 0Z" id="p234w75" />
<path d="M209.67 372.33l27.45 0l0 12.23l-27.45 0Z" id="p234w76" />
<path d="M239.83 372.08l17.26 0l0 12.56l-17.26 0Z" id="p234w77" />
<path d="M142.23 387.61l18.45 0l0 12.23l-18.45 0Z" id="p234w78" />
<path d="M163.39 387.61l11.7 0l0 12.23l-11.7 0Z" id="p234w79" />
<path d="M180.95 386.51l31.4 0l0 13.77l-31.4 0Z" id="p234w80" />
<path d="M218.21 387.61l30.84 0l0 12.23l-30.84 0Z" id="p234w81" />
<path d="M251.75 387.61l17.12 0l0 12.23l-17.12 0Z" id="p234w82" />
<path d="M271.57 387.37l17.26 0l0 12.56l-17.26 0Z" id="p234w83" />
<path d="M124.06 402.84l28.07 0l0 12.29l-28.07 0Z" id="p234w84" />
<path d="M154.83 402.84l17.65 0l0 12.29l-17.65 0Z" id="p234w85" />
<path d="M196.53 401.79l19.46 0l0 13.77l-19.46 0Z" id="p234w86" />
<path d="M221.85 402.89l56.89 0l0 12.23l-56.89 0Z" id="p234w87" />
<path d="M133.91 417.93l15.54 0l0 12.56l-15.54 0Z" id="p234w88" />
<path d="M124.06 433.4l9.57 0l0 12.29l-9.57 0Z" id="p234w89" />
<path d="M150.47 433.46l18.02 0l0 12.23l-18.02 0Z" id="p234w90" />
<path d="M171.19 433.22l13.88 0l0 12.56l-13.88 0Z" id="p234w91" />
<path d="M124.06 448.74l11.94 0l0 12.23l-11.94 0Z" id="p234w92" />
<path d="M138.7 448.69l26.71 0l0 12.29l-26.71 0Z" id="p234w93" />
<path d="M171.27 447.64l29.17 0l0 13.77l-29.17 0Z" id="p234w94" />
<path d="M206.29 448.74l20.03 0l0 12.23l-20.03 0Z" id="p234w95" />
<path d="M229.02 448.74l29.4 0l0 12.23l-29.4 0Z" id="p234w96" />
<path d="M261.12 448.74l14.41 0l0 12.23l-14.41 0Z" id="p234w97" />
<path d="M133.91 464.03l48.63 0l0 12.23l-48.63 0Z" id="p234w98" />
<path d="M185.24 463.78l15.54 0l0 12.56l-15.54 0Z" id="p234w99" />
<path d="M124.06 479.31l4.72 0l0 12.23l-4.72 0Z" id="p234w100" />
<path d="M128.79 479.25l15.19 0l0 12.29l-15.19 0Z" id="p234w101" />
<path d="M170.99 478.21l16.53 0l0 13.77l-16.53 0Z" id="p234w102" />
<path d="M193.38 479.31l15.53 0l0 12.23l-15.53 0Z" id="p234w103" />
<path d="M211.6 479.31l39.61 0l0 12.23l-39.61 0Z" id="p234w104" />
<path d="M253.92 479.07l18.01 0l0 12.56l-18.01 0Z" id="p234w105" />
<path d="M124.06 494.59l17.56 0l0 12.23l-17.56 0Z" id="p234w106" />
<path d="M144.32 494.54l26.67 0l0 12.29l-26.67 0Z" id="p234w107" />
<path d="M176.85 493.49l35.7 0l0 13.77l-35.7 0Z" id="p234w108" />
<path d="M218.41 494.59l14.41 0l0 12.23l-14.41 0Z" id="p234w109" />
<path d="M235.51 494.59l25.21 0l0 12.23l-25.21 0Z" id="p234w110" />
<path d="M263.42 494.35l18.72 0l0 12.56l-18.72 0Z" id="p234w111" />
<path d="M124.06 509.82l33.2 0l0 12.29l-33.2 0Z" id="p234w112" />
<path d="M161.43 509.82l38.83 0l0 12.29l-38.83 0Z" id="p234w113" />
<path d="M206.11 508.78l53.08 0l0 13.77l-53.08 0Z" id="p234w114" />
<path d="M265.05 509.88l39.38 0l0 12.23l-39.38 0Z" id="p234w115" />
<path d="M133.91 524.92l18.92 0l0 12.56l-18.92 0Z" id="p234w116" />
<path d="M124.06 540.44l4.72 0l0 12.23l-4.72 0Z" id="p234w117" />
<path d="M128.79 540.39l40.59 0l0 12.29l-40.59 0Z" id="p234w118" />
<path d="M196.39 539.34l32.59 0l0 13.77l-32.59 0Z" id="p234w119" />
<path d="M234.84 540.44l16.43 0l0 12.23l-16.43 0Z" id="p234w120" />
<path d="M253.97 540.44l37.59 0l0 12.23l-37.59 0Z" id="p234w121" />
<path d="M133.91 555.48l18.92 0l0 12.56l-18.92 0Z" id="p234w122" />
<path d="M124.06 570.96l40.59 0l0 12.29l-40.59 0Z" id="p234w123" />
<path d="M168.82 570.96l46.14 0l0 12.29l-46.14 0Z" id="p234w124" />
<path d="M220.82 569.91l66.91 0l0 13.77l-66.91 0Z" id="p234w125" />
<path d="M133.91 586.29l57.6 0l0 12.23l-57.6 0Z" id="p234w126" />
<path d="M194.21 586.29l28.35 0l0 12.23l-28.35 0Z" id="p234w127" />
<path d="M225.27 586.05l18.92 0l0 12.56l-18.92 0Z" id="p234w128" />
<path d="M124.06 601.58l7.2 0l0 12.23l-7.2 0Z" id="p234w129" />
<path d="M131.26 601.52l14.41 0l0 12.29l-14.41 0Z" id="p234w130" />
<path d="M162.74 600.48l8.76 0l0 13.77l-8.76 0Z" id="p234w131" />
<path d="M177.36 601.58l16.43 0l0 12.23l-16.43 0Z" id="p234w132" />
<path d="M196.49 601.58l22.46 0l0 12.23l-22.46 0Z" id="p234w133" />
<path d="M221.65 601.33l14.79 0l0 12.56l-14.79 0Z" id="p234w134" />
<path d="M133.91 616.86l10.58 0l0 12.23l-10.58 0Z" id="p234w135" />
<path d="M147.19 616.86l20.49 0l0 12.23l-20.49 0Z" id="p234w136" />
<path d="M173.54 615.76l18.45 0l0 13.77l-18.45 0Z" id="p234w137" />
<path d="M197.84 616.86l16.43 0l0 12.23l-16.43 0Z" id="p234w138" />
<path d="M216.97 616.86l19.58 0l0 12.23l-19.58 0Z" id="p234w139" />
<path d="M239.26 616.62l14.79 0l0 12.56l-14.79 0Z" id="p234w140" />
<path d="M124.06 632.09l19.02 0l0 12.29l-19.02 0Z" id="p234w141" />
<path d="M148.94 631.04l13.63 0l0 13.77l-13.63 0Z" id="p234w142" />
<path d="M168.42 632.14l19.13 0l0 12.23l-19.13 0Z" id="p234w143" />
<path d="M190.25 631.9l14.79 0l0 12.56l-14.79 0Z" id="p234w144" />
<path d="M133.91 647.43l18.9 0l0 12.23l-18.9 0Z" id="p234w145" />
<path d="M155.51 647.43l38.96 0l0 12.23l-38.96 0Z" id="p234w146" />
<path d="M200.32 646.33l40.98 0l0 13.77l-40.98 0Z" id="p234w147" />
<path d="M133.91 662.71l67.07 0l0 12.23l-67.07 0Z" id="p234w148" />
<path d="M203.68 662.71l19.13 0l0 12.23l-19.13 0Z" id="p234w149" />
<path d="M225.51 662.47l15.54 0l0 12.56l-15.54 0Z" id="p234w150" />
<path d="M133.91 677.99l18.9 0l0 12.23l-18.9 0Z" id="p234w151" />
<path d="M155.51 677.99l11.48 0l0 12.23l-11.48 0Z" id="p234w152" />
<path d="M169.69 677.99l35.8 0l0 12.23l-35.8 0Z" id="p234w153" />
<path d="M208.19 677.99l11.7 0l0 12.23l-11.7 0Z" id="p234w154" />
<path d="M222.6 677.99l11.04 0l0 12.23l-11.04 0Z" id="p234w155" />
<path d="M239.49 676.89l42.48 0l0 13.77l-42.48 0Z" id="p234w156" />
<path d="M133.91 693.28l21.39 0l0 12.23l-21.39 0Z" id="p234w157" />
<path d="M158 693.28l19.44 0l0 12.23l-19.44 0Z" id="p234w158" />
<path d="M180.14 693.28l42.55 0l0 12.23l-42.55 0Z" id="p234w159" />
<path d="M225.39 693.28l32.18 0l0 12.23l-32.18 0Z" id="p234w160" />
<path d="M260.27 693.03l18.92 0l0 12.56l-18.92 0Z" id="p234w161" />
<path d="M133.91 708.56l18.9 0l0 12.23l-18.9 0Z" id="p234w162" />
<path d="M155.51 708.56l22.51 0l0 12.23l-22.51 0Z" id="p234w163" />
<path d="M180.72 708.56l8.33 0l0 12.23l-8.33 0Z" id="p234w164" />
<path d="M191.74 708.56l20.26 0l0 12.23l-20.26 0Z" id="p234w165" />
<path d="M217.86 707.46l48.07 0l0 13.77l-48.07 0Z" id="p234w166" />
<path d="M133.91 723.84l42.08 0l0 12.23l-42.08 0Z" id="p234w167" />
<path d="M178.69 723.84l19.13 0l0 12.23l-19.13 0Z" id="p234w168" />
<path d="M200.52 723.6l14.79 0l0 12.56l-14.79 0Z" id="p234w169" />
<path d="M133.91 739.13l18.9 0l0 12.23l-18.9 0Z" id="p234w170" />
<path d="M155.51 739.13l11.7 0l0 12.23l-11.7 0Z" id="p234w171" />
<path d="M169.91 739.13l44.42 0l0 12.23l-44.42 0Z" id="p234w172" />
<path d="M217.03 739.13l36.47 0l0 12.23l-36.47 0Z" id="p234w173" />
<path d="M137.07 753.31l84.09 0l0 13.77l-84.09 0Z" id="p234w174" />
<path d="M227.01 754.41l44.57 0l0 12.23l-44.57 0Z" id="p234w175" />
<path d="M274.28 754.41l28.37 0l0 12.23l-28.37 0Z" id="p234w176" />
<path d="M133.91 769.7l29.49 0l0 12.23l-29.49 0Z" id="p234w177" />
<path d="M166.1 769.45l15.54 0l0 12.56l-15.54 0Z" id="p234w178" />
<path d="M133.91 784.98l18.9 0l0 12.23l-18.9 0Z" id="p234w179" />
<path d="M155.51 784.98l11.7 0l0 12.23l-11.7 0Z" id="p234w180" />
<path d="M169.91 784.98l28.81 0l0 12.23l-28.81 0Z" id="p234w181" />
<path d="M204.58 783.88l50.1 0l0 13.77l-50.1 0Z" id="p234w182" />
<path d="M260.53 784.98l30.63 0l0 12.23l-30.63 0Z" id="p234w183" />
<path d="M133.91 800.26l19.13 0l0 12.23l-19.13 0Z" id="p234w184" />
<path d="M155.74 800.02l15.54 0l0 12.56l-15.54 0Z" id="p234w185" />
<path d="M133.91 815.55l18.9 0l0 12.23l-18.9 0Z" id="p234w186" />
<path d="M155.51 815.55l11.7 0l0 12.23l-11.7 0Z" id="p234w187" />
<path d="M169.91 815.55l28.59 0l0 12.23l-28.59 0Z" id="p234w188" />
<path d="M204.36 814.45l43.55 0l0 13.77l-43.55 0Z" id="p234w189" />
<path d="M253.76 815.55l35.79 0l0 12.23l-35.79 0Z" id="p234w190" />
<path d="M133.91 830.83l19.13 0l0 12.23l-19.13 0Z" id="p234w191" />
<path d="M155.74 830.58l15.54 0l0 12.56l-15.54 0Z" id="p234w192" />
<path d="M133.91 846.11l18.9 0l0 12.23l-18.9 0Z" id="p234w193" />
<path d="M155.51 846.11l11.7 0l0 12.23l-11.7 0Z" id="p234w194" />
<path d="M169.91 846.11l35.12 0l0 12.23l-35.12 0Z" id="p234w195" />
<path d="M207.74 846.11l21.39 0l0 12.23l-21.39 0Z" id="p234w196" />
<path d="M231.82 846.11l12.16 0l0 12.23l-12.16 0Z" id="p234w197" />
<path d="M137.07 860.3l68.29 0l0 13.77l-68.29 0Z" id="p234w198" />
<path d="M211.22 861.4l36.32 0l0 12.23l-36.32 0Z" id="p234w199" />
<path d="M250.24 861.4l10.82 0l0 12.23l-10.82 0Z" id="p234w200" />
<path d="M263.76 861.4l20.04 0l0 12.23l-20.04 0Z" id="p234w201" />
<path d="M133.91 876.68l31.93 0l0 12.23l-31.93 0Z" id="p234w202" />
<path d="M168.54 876.68l15.75 0l0 12.23l-15.75 0Z" id="p234w203" />
<path d="M187 876.68l20.04 0l0 12.23l-20.04 0Z" id="p234w204" />
<path d="M209.74 876.68l8.78 0l0 12.23l-8.78 0Z" id="p234w205" />
<path d="M221.22 876.68l36.32 0l0 12.23l-36.32 0Z" id="p234w206" />
<path d="M260.25 876.68l19.13 0l0 12.23l-19.13 0Z" id="p234w207" />
<path d="M282.08 876.43l17.81 0l0 12.56l-17.81 0Z" id="p234w208" />
<path d="M133.91 891.96l18.9 0l0 12.23l-18.9 0Z" id="p234w209" />
<path d="M155.51 891.96l11.7 0l0 12.23l-11.7 0Z" id="p234w210" />
<path d="M169.91 891.96l58.74 0l0 12.23l-58.74 0Z" id="p234w211" />
<path d="M234.51 890.86l66.34 0l0 13.77l-66.34 0Z" id="p234w212" />
<path d="M133.91 907.25l20.03 0l0 12.23l-20.03 0Z" id="p234w213" />
<path d="M156.64 907.25l49.52 0l0 12.23l-49.52 0Z" id="p234w214" />
<path d="M208.86 907.25l29.49 0l0 12.23l-29.49 0Z" id="p234w215" />
<path d="M241.05 907l14.63 0l0 12.56l-14.63 0Z" id="p234w216" />
<path d="M335.43 112.51l18.9 0l0 12.23l-18.9 0Z" id="p234w217" />
<path d="M357.03 112.51l11.7 0l0 12.23l-11.7 0Z" id="p234w218" />
<path d="M371.43 112.51l28.58 0l0 12.23l-28.58 0Z" id="p234w219" />
<path d="M405.86 111.41l44.13 0l0 13.77l-44.13 0Z" id="p234w220" />
<path d="M455.85 112.51l20.25 0l0 12.23l-20.25 0Z" id="p234w221" />
<path d="M478.8 112.51l21.39 0l0 12.23l-21.39 0Z" id="p234w222" />
<path d="M335.43 127.79l21.57 0l0 12.23l-21.57 0Z" id="p234w223" />
<path d="M359.7 127.79l10.82 0l0 12.23l-10.82 0Z" id="p234w224" />
<path d="M373.22 127.79l20.25 0l0 12.23l-20.25 0Z" id="p234w225" />
<path d="M396.17 127.79l41.19 0l0 12.23l-41.19 0Z" id="p234w226" />
<path d="M440.07 127.55l15.54 0l0 12.56l-15.54 0Z" id="p234w227" />
<path d="M335.43 143.08l18.9 0l0 12.23l-18.9 0Z" id="p234w228" />
<path d="M357.03 143.08l11.7 0l0 12.23l-11.7 0Z" id="p234w229" />
<path d="M371.43 143.08l21.83 0l0 12.23l-21.83 0Z" id="p234w230" />
<path d="M395.96 143.08l11.7 0l0 12.23l-11.7 0Z" id="p234w231" />
<path d="M410.37 143.08l21.37 0l0 12.23l-21.37 0Z" id="p234w232" />
<path d="M434.44 143.08l11.04 0l0 12.23l-11.04 0Z" id="p234w233" />
<path d="M338.59 157.26l57.78 0l0 13.77l-57.78 0Z" id="p234w234" />
<path d="M402.22 158.36l32.58 0l0 12.23l-32.58 0Z" id="p234w235" />
<path d="M437.5 158.36l19.44 0l0 12.23l-19.44 0Z" id="p234w236" />
<path d="M459.64 158.36l15.76 0l0 12.23l-15.76 0Z" id="p234w237" />
<path d="M478.1 158.11l18.92 0l0 12.56l-18.92 0Z" id="p234w238" />
<path d="M335.43 173.64l18.9 0l0 12.23l-18.9 0Z" id="p234w239" />
<path d="M357.03 173.64l22.73 0l0 12.23l-22.73 0Z" id="p234w240" />
<path d="M382.46 173.64l11.7 0l0 12.23l-11.7 0Z" id="p234w241" />
<path d="M396.86 173.64l21.15 0l0 12.23l-21.15 0Z" id="p234w242" />
<path d="M423.87 172.54l66.1 0l0 13.77l-66.1 0Z" id="p234w243" />
<path d="M335.43 188.93l14.85 0l0 12.23l-14.85 0Z" id="p234w244" />
<path d="M352.61 188.93l54.65 0l0 12.23l-54.65 0Z" id="p234w245" />
<path d="M409.97 188.93l19.13 0l0 12.23l-19.13 0Z" id="p234w246" />
<path d="M431.8 188.68l18.92 0l0 12.56l-18.92 0Z" id="p234w247" />
<path d="M325.58 204.21l13.05 0l0 12.23l-13.05 0Z" id="p234w248" />
<path d="M341.33 204.15l32.06 0l0 12.29l-32.06 0Z" id="p234w249" />
<path d="M389.37 204.19l14.18 0l0 12.23l-14.18 0Z" id="p234w250" />
<path d="M409.41 203.11l32.49 0l0 13.77l-32.49 0Z" id="p234w251" />
<path d="M447.76 204.21l16.43 0l0 12.23l-16.43 0Z" id="p234w252" />
<path d="M466.89 204.21l39.4 0l0 12.23l-39.4 0Z" id="p234w253" />
<path d="M335.43 219.25l18.92 0l0 12.56l-18.92 0Z" id="p234w254" />
<path d="M335.43 234.78l21.37 0l0 12.23l-21.37 0Z" id="p234w255" />
<path d="M359.5 234.78l15.07 0l0 12.23l-15.07 0Z" id="p234w256" />
<path d="M377.28 234.78l31.73 0l0 12.23l-31.73 0Z" id="p234w257" />
<path d="M414.87 233.68l47.16 0l0 13.77l-47.16 0Z" id="p234w258" />
<path d="M335.43 250.06l44.34 0l0 12.23l-44.34 0Z" id="p234w259" />
<path d="M382.47 249.81l18.92 0l0 12.56l-18.92 0Z" id="p234w260" />
<path d="M325.58 265.34l11.94 0l0 12.23l-11.94 0Z" id="p234w261" />
<path d="M340.22 265.29l40.07 0l0 12.29l-40.07 0Z" id="p234w262" />
<path d="M380.29 265.34l21.73 0l0 12.23l-21.73 0Z" id="p234w263" />
<path d="M404.72 265.29l45.69 0l0 12.29l-45.69 0Z" id="p234w264" />
<path d="M456.27 264.24l41.92 0l0 13.77l-41.92 0Z" id="p234w265" />
<path d="M335.43 279.53l43.22 0l0 13.77l-43.22 0Z" id="p234w266" />
<path d="M384.5 280.63l14.41 0l0 12.23l-14.41 0Z" id="p234w267" />
<path d="M401.61 280.63l61.34 0l0 12.23l-61.34 0Z" id="p234w268" />
<path d="M335.43 295.91l45.93 0l0 12.23l-45.93 0Z" id="p234w269" />
<path d="M384.06 295.66l18.92 0l0 12.56l-18.92 0Z" id="p234w270" />
<path d="M325.58 311.14l33.93 0l0 12.29l-33.93 0Z" id="p234w271" />
<path d="M362.22 311.19l11.04 0l0 12.23l-11.04 0Z" id="p234w272" />
<path d="M379.11 310.09l27.54 0l0 13.77l-27.54 0Z" id="p234w273" />
<path d="M412.51 311.19l19.44 0l0 12.23l-19.44 0Z" id="p234w274" />
<path d="M434.65 311.19l46.78 0l0 12.23l-46.78 0Z" id="p234w275" />
<path d="M484.14 311.19l19.44 0l0 12.23l-19.44 0Z" id="p234w276" />
<path d="M335.43 326.48l58.53 0l0 12.23l-58.53 0Z" id="p234w277" />
<path d="M396.66 326.23l18.92 0l0 12.56l-18.92 0Z" id="p234w278" />
<path d="M325.58 341.7l17.67 0l0 12.29l-17.67 0Z" id="p234w279" />
<path d="M372.12 341.76l11.7 0l0 12.23l-11.7 0Z" id="p234w280" />
<path d="M400.44 341.52l14.79 0l0 12.56l-14.79 0Z" id="p234w281" />
<path d="M325.58 357.04l11.94 0l0 12.23l-11.94 0Z" id="p234w282" />
<path d="M340.22 356.99l44.88 0l0 12.29l-44.88 0Z" id="p234w283" />
<path d="M385.1 357.04l21.73 0l0 12.23l-21.73 0Z" id="p234w284" />
<path d="M409.53 356.99l56.59 0l0 12.29l-56.59 0Z" id="p234w285" />
<path d="M338.59 371.23l96.48 0l0 13.77l-96.48 0Z" id="p234w286" />
<path d="M440.92 372.33l14.41 0l0 12.23l-14.41 0Z" id="p234w287" />
<path d="M458.03 372.33l46.49 0l0 12.23l-46.49 0Z" id="p234w288" />
<path d="M335.43 387.61l20.03 0l0 12.23l-20.03 0Z" id="p234w289" />
<path d="M358.16 387.61l51.11 0l0 12.23l-51.11 0Z" id="p234w290" />
<path d="M411.97 387.37l18.17 0l0 12.56l-18.17 0Z" id="p234w291" />
<path d="M325.58 402.84l44.65 0l0 12.29l-44.65 0Z" id="p234w292" />
<path d="M374.4 402.84l56.35 0l0 12.29l-56.35 0Z" id="p234w293" />
<path d="M436.61 401.79l35.22 0l0 13.77l-35.22 0Z" id="p234w294" />
<path d="M335.43 417.08l38.67 0l0 13.77l-38.67 0Z" id="p234w295" />
<path d="M379.96 418.18l51.11 0l0 12.23l-51.11 0Z" id="p234w296" />
<path d="M433.76 417.93l17.26 0l0 12.56l-17.26 0Z" id="p234w297" />
<path d="M325.58 433.46l11.94 0l0 12.23l-11.94 0Z" id="p234w298" />
<path d="M340.22 433.4l52.91 0l0 12.29l-52.91 0Z" id="p234w299" />
<path d="M398.99 432.36l47.32 0l0 13.77l-47.32 0Z" id="p234w300" />
<path d="M452.16 433.46l14.41 0l0 12.23l-14.41 0Z" id="p234w301" />
<path d="M335.43 448.74l39.98 0l0 12.23l-39.98 0Z" id="p234w302" />
<path d="M378.11 448.74l20.03 0l0 12.23l-20.03 0Z" id="p234w303" />
<path d="M400.47 448.74l65.22 0l0 12.23l-65.22 0Z" id="p234w304" />
<path d="M468.4 448.5l18.92 0l0 12.56l-18.92 0Z" id="p234w305" />
<path d="M325.58 463.97l59.33 0l0 12.29l-59.33 0Z" id="p234w306" />
<path d="M390.77 462.93l39.49 0l0 13.77l-39.49 0Z" id="p234w307" />
<path d="M436.12 464.03l19.41 0l0 12.23l-19.41 0Z" id="p234w308" />
<path d="M458.23 464.03l41.65 0l0 12.23l-41.65 0Z" id="p234w309" />
<path d="M335.43 479.07l18.92 0l0 12.56l-18.92 0Z" id="p234w310" />
<path d="M325.58 494.54l35.19 0l0 12.29l-35.19 0Z" id="p234w311" />
<path d="M364.94 494.54l40.82 0l0 12.29l-40.82 0Z" id="p234w312" />
<path d="M411.61 493.49l56.19 0l0 13.77l-56.19 0Z" id="p234w313" />
<path d="M335.43 509.88l32.13 0l0 12.23l-32.13 0Z" id="p234w314" />
<path d="M378.73 509.88l23.86 0l0 12.23l-23.86 0Z" id="p234w315" />
<path d="M413.76 509.88l19.41 0l0 12.23l-19.41 0Z" id="p234w316" />
<path d="M435.87 509.88l63.27 0l0 12.23l-63.27 0Z" id="p234w317" />
<path d="M335.43 524.92l18.92 0l0 12.56l-18.92 0Z" id="p234w318" />
<path d="M335.43 540.44l22.05 0l0 12.23l-22.05 0Z" id="p234w319" />
<path d="M360.18 540.44l16.43 0l0 12.23l-16.43 0Z" id="p234w320" />
<path d="M379.31 540.44l37.37 0l0 12.23l-37.37 0Z" id="p234w321" />
<path d="M419.38 540.42l27.91 0l0 12.23l-27.91 0Z" id="p234w322" />
<path d="M453.15 539.34l44.94 0l0 13.77l-44.94 0Z" id="p234w323" />
<path d="M335.43 555.73l17.33 0l0 12.23l-17.33 0Z" id="p234w324" />
<path d="M355.45 555.73l11.25 0l0 12.23l-11.25 0Z" id="p234w325" />
<path d="M369.4 555.73l15.47 0l0 12.23l-15.47 0Z" id="p234w326" />
<path d="M387.58 555.73l23.64 0l0 12.23l-23.64 0Z" id="p234w327" />
<path d="M413.92 555.73l10.58 0l0 12.23l-10.58 0Z" id="p234w328" />
<path d="M427.2 555.73l36.92 0l0 12.23l-36.92 0Z" id="p234w329" />
<path d="M466.83 555.48l18.92 0l0 12.56l-18.92 0Z" id="p234w330" />
<path d="M325.58 570.96l55.61 0l0 12.29l-55.61 0Z" id="p234w331" />
<path d="M387.04 569.91l49.99 0l0 13.77l-49.99 0Z" id="p234w332" />
<path d="M442.89 571.01l29.21 0l0 12.23l-29.21 0Z" id="p234w333" />
<path d="M474.8 570.77l15.34 0l0 12.56l-15.34 0Z" id="p234w334" />
<path d="M325.58 586.24l41.37 0l0 12.29l-41.37 0Z" id="p234w335" />
<path d="M372.81 585.19l40.75 0l0 13.77l-40.75 0Z" id="p234w336" />
<path d="M419.41 586.29l55.14 0l0 12.23l-55.14 0Z" id="p234w337" />
<path d="M477.26 586.05l18.92 0l0 12.56l-18.92 0Z" id="p234w338" />
<path d="M325.58 601.52l60.38 0l0 12.29l-60.38 0Z" id="p234w339" />
<path d="M390.12 601.52l68.81 0l0 12.29l-68.81 0Z" id="p234w340" />
<path d="M338.58 615.76l104.49 0l0 13.77l-104.49 0Z" id="p234w341" />
<path d="M335.43 632.14l81.52 0l0 12.23l-81.52 0Z" id="p234w342" />
<path d="M419.65 631.9l18.92 0l0 12.56l-18.92 0Z" id="p234w343" />
<path d="M325.58 647.37l93.72 0l0 12.29l-93.72 0Z" id="p234w344" />
<path d="M425.16 646.33l66.16 0l0 13.77l-66.16 0Z" id="p234w345" />
<path d="M335.43 662.71l74.94 0l0 12.23l-74.94 0Z" id="p234w346" />
<path d="M413.06 662.47l18.92 0l0 12.56l-18.92 0Z" id="p234w347" />
<path d="M325.58 677.94l27.88 0l0 12.29l-27.88 0Z" id="p234w348" />
<path d="M357.62 677.94l33.5 0l0 12.29l-33.5 0Z" id="p234w349" />
<path d="M396.98 676.89l54.85 0l0 13.77l-54.85 0Z" id="p234w350" />
<path d="M457.69 677.99l46.03 0l0 12.23l-46.03 0Z" id="p234w351" />
<path d="M335.43 693.03l18.92 0l0 12.56l-18.92 0Z" id="p234w352" />
<path d="M325.58 708.56l17.56 0l0 12.23l-17.56 0Z" id="p234w353" />
<path d="M345.84 708.51l44.94 0l0 12.29l-44.94 0Z" id="p234w354" />
<path d="M396.64 707.46l53.96 0l0 13.77l-53.96 0Z" id="p234w355" />
<path d="M456.46 708.56l14.41 0l0 12.23l-14.41 0Z" id="p234w356" />
<path d="M335.43 723.84l23.41 0l0 12.23l-23.41 0Z" id="p234w357" />
<path d="M358.83 723.84l11.88 0l0 12.23l-11.88 0Z" id="p234w358" />
<path d="M373.42 723.6l18.92 0l0 12.56l-18.92 0Z" id="p234w359" />
<path d="M325.58 739.07l32 0l0 12.29l-32 0Z" id="p234w360" />
<path d="M363.44 738.03l31.23 0l0 13.77l-31.23 0Z" id="p234w361" />
<path d="M400.53 739.13l45.68 0l0 12.23l-45.68 0Z" id="p234w362" />
<path d="M448.91 738.88l18.01 0l0 12.56l-18.01 0Z" id="p234w363" />
<path d="M325.58 754.36l41.14 0l0 12.29l-41.14 0Z" id="p234w364" />
<path d="M372.57 753.31l32.49 0l0 13.77l-32.49 0Z" id="p234w365" />
<path d="M410.92 754.41l38.73 0l0 12.23l-38.73 0Z" id="p234w366" />
<path d="M452.35 754.17l18.72 0l0 12.56l-18.72 0Z" id="p234w367" />
<path d="M325.58 769.7l17.56 0l0 12.23l-17.56 0Z" id="p234w368" />
<path d="M345.84 769.64l51.22 0l0 12.29l-51.22 0Z" id="p234w369" />
<path d="M402.92 768.59l55.01 0l0 13.77l-55.01 0Z" id="p234w370" />
<path d="M463.78 769.7l20.03 0l0 12.23l-20.03 0Z" id="p234w371" />
<path d="M335.43 784.98l46.77 0l0 12.23l-46.77 0Z" id="p234w372" />
<path d="M384.9 784.73l18.92 0l0 12.56l-18.92 0Z" id="p234w373" />
<path d="M325.58 800.21l44.12 0l0 12.29l-44.12 0Z" id="p234w374" />
<path d="M372.39 800.26l11.04 0l0 12.23l-11.04 0Z" id="p234w375" />
<path d="M394.46 800.26l12.16 0l0 12.23l-12.16 0Z" id="p234w376" />
<path d="M412.48 799.16l36.82 0l0 13.77l-36.82 0Z" id="p234w377" />
<path d="M455.16 800.26l20.04 0l0 12.23l-20.04 0Z" id="p234w378" />
<path d="M477.9 800.26l19.44 0l0 12.23l-19.44 0Z" id="p234w379" />
<path d="M335.43 815.55l38.48 0l0 12.23l-38.48 0Z" id="p234w380" />
<path d="M376.61 815.3l19.58 0l0 12.56l-19.58 0Z" id="p234w381" />
<path d="M325.58 830.83l17.56 0l0 12.23l-17.56 0Z" id="p234w382" />
<path d="M345.84 830.77l49.12 0l0 12.29l-49.12 0Z" id="p234w383" />
<path d="M400.82 829.73l57.85 0l0 13.77l-57.85 0Z" id="p234w384" />
<path d="M464.53 830.83l20.03 0l0 12.23l-20.03 0Z" id="p234w385" />
<path d="M335.43 846.11l54.64 0l0 12.23l-54.64 0Z" id="p234w386" />
<path d="M392.77 845.87l15.54 0l0 12.56l-15.54 0Z" id="p234w387" />
<path d="M325.58 861.4l17.56 0l0 12.23l-17.56 0Z" id="p234w388" />
<path d="M345.84 861.34l50.8 0l0 12.29l-50.8 0Z" id="p234w389" />
<path d="M402.49 860.3l54.14 0l0 13.77l-54.14 0Z" id="p234w390" />
<path d="M462.49 861.4l14.41 0l0 12.23l-14.41 0Z" id="p234w391" />
<path d="M335.43 876.68l43 0l0 12.23l-43 0Z" id="p234w392" />
<path d="M381.13 876.43l18.92 0l0 12.56l-18.92 0Z" id="p234w393" />
<path d="M527.1 127.74l43.68 0l0 12.29l-43.68 0Z" id="p234w394" />
<path d="M573.48 127.79l11.04 0l0 12.23l-11.04 0Z" id="p234w395" />
<path d="M590.38 126.69l33.21 0l0 13.77l-33.21 0Z" id="p234w396" />
<path d="M629.45 127.79l19.44 0l0 12.23l-19.44 0Z" id="p234w397" />
<path d="M651.59 127.79l46.81 0l0 12.23l-46.81 0Z" id="p234w398" />
<path d="M536.95 142.83l17.81 0l0 12.56l-17.81 0Z" id="p234w399" />
<path d="M527.1 158.3l25.2 0l0 12.29l-25.2 0Z" id="p234w400" />
<path d="M558.15 157.26l18.84 0l0 13.77l-18.84 0Z" id="p234w401" />
<path d="M582.85 158.36l25.89 0l0 12.23l-25.89 0Z" id="p234w402" />
<path d="M611.44 158.11l18.92 0l0 12.56l-18.92 0Z" id="p234w403" />
<path d="M527.1 173.64l17.56 0l0 12.23l-17.56 0Z" id="p234w404" />
<path d="M547.36 173.59l25.88 0l0 12.29l-25.88 0Z" id="p234w405" />
<path d="M579.09 172.54l29.31 0l0 13.77l-29.31 0Z" id="p234w406" />
<path d="M614.26 173.64l20.03 0l0 12.23l-20.03 0Z" id="p234w407" />
<path d="M636.99 173.64l16.62 0l0 12.23l-16.62 0Z" id="p234w408" />
<path d="M656.31 173.64l20.03 0l0 12.23l-20.03 0Z" id="p234w409" />
<path d="M678.82 173.64l27.68 0l0 12.23l-27.68 0Z" id="p234w410" />
<path d="M536.95 188.68l18.92 0l0 12.56l-18.92 0Z" id="p234w411" />
<path d="M527.1 204.21l17.56 0l0 12.23l-17.56 0Z" id="p234w412" />
<path d="M547.36 204.15l33.31 0l0 12.29l-33.31 0Z" id="p234w413" />
<path d="M586.53 203.11l39.79 0l0 13.77l-39.79 0Z" id="p234w414" />
<path d="M632.18 204.21l20.03 0l0 12.23l-20.03 0Z" id="p234w415" />
<path d="M654.91 204.21l46.86 0l0 12.23l-46.86 0Z" id="p234w416" />
<path d="M536.95 219.25l18.72 0l0 12.56l-18.72 0Z" id="p234w417" />
<path d="M527.1 234.78l23.19 0l0 12.23l-23.19 0Z" id="p234w418" />
<path d="M552.98 234.72l21.41 0l0 12.29l-21.41 0Z" id="p234w419" />
<path d="M580.25 233.68l36.2 0l0 13.77l-36.2 0Z" id="p234w420" />
<path d="M622.31 234.78l34.61 0l0 12.23l-34.61 0Z" id="p234w421" />
<path d="M659.62 234.78l29.49 0l0 12.23l-29.49 0Z" id="p234w422" />
<path d="M691.81 234.53l14.63 0l0 12.56l-14.63 0Z" id="p234w423" />
<path d="M527.1 250.06l18.9 0l0 12.23l-18.9 0Z" id="p234w424" />
<path d="M548.69 250.06l22.73 0l0 12.23l-22.73 0Z" id="p234w425" />
<path d="M574.13 250.06l11.7 0l0 12.23l-11.7 0Z" id="p234w426" />
<path d="M588.53 250l21.41 0l0 12.29l-21.41 0Z" id="p234w427" />
<path d="M615.8 248.96l66.1 0l0 13.77l-66.1 0Z" id="p234w428" />
<path d="M687.76 250.06l14.85 0l0 12.23l-14.85 0Z" id="p234w429" />
<path d="M536.95 265.34l54.65 0l0 12.23l-54.65 0Z" id="p234w430" />
<path d="M594.3 265.34l19.13 0l0 12.23l-19.13 0Z" id="p234w431" />
<path d="M616.13 265.1l18.92 0l0 12.56l-18.92 0Z" id="p234w432" />
<path d="M527.1 280.57l21.6 0l0 12.29l-21.6 0Z" id="p234w433" />
<path d="M551.4 280.63l11.04 0l0 12.23l-11.04 0Z" id="p234w434" />
<path d="M568.29 279.53l13.52 0l0 13.77l-13.52 0Z" id="p234w435" />
<path d="M587.66 280.63l19.44 0l0 12.23l-19.44 0Z" id="p234w436" />
<path d="M609.81 280.63l40.04 0l0 12.23l-40.04 0Z" id="p234w437" />
<path d="M652.54 280.63l19.44 0l0 12.23l-19.44 0Z" id="p234w438" />
<path d="M674.68 280.63l15.76 0l0 12.23l-15.76 0Z" id="p234w439" />
<path d="M536.95 295.66l15.54 0l0 12.56l-15.54 0Z" id="p234w440" />
<path d="M536.95 311.19l21.37 0l0 12.23l-21.37 0Z" id="p234w441" />
<path d="M561.02 311.19l43.44 0l0 12.23l-43.44 0Z" id="p234w442" />
<path d="M615.49 311.19l11.04 0l0 12.23l-11.04 0Z" id="p234w443" />
<path d="M632.38 310.09l40 0l0 13.77l-40 0Z" id="p234w444" />
<path d="M678.24 311.19l15.08 0l0 12.23l-15.08 0Z" id="p234w445" />
<path d="M536.95 326.48l19.44 0l0 12.23l-19.44 0Z" id="p234w446" />
<path d="M559.04 326.48l50.39 0l0 12.23l-50.39 0Z" id="p234w447" />
<path d="M612.09 326.48l19.44 0l0 12.23l-19.44 0Z" id="p234w448" />
<path d="M634.18 326.48l43.89 0l0 12.23l-43.89 0Z" id="p234w449" />
<path d="M680.73 326.23l18.92 0l0 12.56l-18.92 0Z" id="p234w450" />
<path d="M536.95 341.76l21.37 0l0 12.23l-21.37 0Z" id="p234w451" />
<path d="M561.02 341.76l16.43 0l0 12.23l-16.43 0Z" id="p234w452" />
<path d="M580.15 341.76l30.83 0l0 12.23l-30.83 0Z" id="p234w453" />
<path d="M633.11 341.74l14.18 0l0 12.23l-14.18 0Z" id="p234w454" />
<path d="M653.16 340.66l48.38 0l0 13.77l-48.38 0Z" id="p234w455" />
<path d="M536.95 357.04l18.46 0l0 12.23l-18.46 0Z" id="p234w456" />
<path d="M558.11 357.04l26.79 0l0 12.23l-26.79 0Z" id="p234w457" />
<path d="M587.6 357.04l29.43 0l0 12.23l-29.43 0Z" id="p234w458" />
<path d="M619.73 356.8l18.92 0l0 12.56l-18.92 0Z" id="p234w459" />
<path d="M536.95 372.33l21.37 0l0 12.23l-21.37 0Z" id="p234w460" />
<path d="M561.02 372.33l11.94 0l0 12.23l-11.94 0Z" id="p234w461" />
<path d="M575.66 372.33l40.69 0l0 12.23l-40.69 0Z" id="p234w462" />
<path d="M622.21 371.23l50.79 0l0 13.77l-50.79 0Z" id="p234w463" />
<path d="M536.95 387.61l40.04 0l0 12.23l-40.04 0Z" id="p234w464" />
<path d="M579.68 387.61l28.81 0l0 12.23l-28.81 0Z" id="p234w465" />
<path d="M611.2 387.37l18.72 0l0 12.56l-18.72 0Z" id="p234w466" />
<path d="M536.95 402.89l21.37 0l0 12.23l-21.37 0Z" id="p234w467" />
<path d="M561.02 402.89l8.33 0l0 12.23l-8.33 0Z" id="p234w468" />
<path d="M572.05 402.89l32.65 0l0 12.23l-32.65 0Z" id="p234w469" />
<path d="M610.55 401.79l50.63 0l0 13.77l-50.63 0Z" id="p234w470" />
<path d="M667.04 402.89l27.01 0l0 12.23l-27.01 0Z" id="p234w471" />
<path d="M536.95 418.18l52.64 0l0 12.23l-52.64 0Z" id="p234w472" />
<path d="M592.29 418.18l33.78 0l0 12.23l-33.78 0Z" id="p234w473" />
<path d="M628.77 417.93l15.54 0l0 12.56l-15.54 0Z" id="p234w474" />
<path d="M536.95 433.46l21.37 0l0 12.23l-21.37 0Z" id="p234w475" />
<path d="M561.02 433.46l8.33 0l0 12.23l-8.33 0Z" id="p234w476" />
<path d="M572.05 433.46l18.67 0l0 12.23l-18.67 0Z" id="p234w477" />
<path d="M596.58 432.36l33.3 0l0 13.77l-33.3 0Z" id="p234w478" />
<path d="M635.74 433.46l27.45 0l0 12.23l-27.45 0Z" id="p234w479" />
<path d="M665.89 433.22l19.58 0l0 12.56l-19.58 0Z" id="p234w480" />
<path d="M536.95 448.74l21.37 0l0 12.23l-21.37 0Z" id="p234w481" />
<path d="M561.02 448.74l8.33 0l0 12.23l-8.33 0Z" id="p234w482" />
<path d="M572.05 448.74l29.04 0l0 12.23l-29.04 0Z" id="p234w483" />
<path d="M606.95 447.64l33.01 0l0 13.77l-33.01 0Z" id="p234w484" />
<path d="M645.82 448.74l42.95 0l0 12.23l-42.95 0Z" id="p234w485" />
<path d="M536.95 464.03l31.96 0l0 12.23l-31.96 0Z" id="p234w486" />
<path d="M571.6 463.78l14.63 0l0 12.56l-14.63 0Z" id="p234w487" />
<path d="M536.95 479.31l21.37 0l0 12.23l-21.37 0Z" id="p234w488" />
<path d="M561.02 479.31l8.33 0l0 12.23l-8.33 0Z" id="p234w489" />
<path d="M572.05 479.31l18.9 0l0 12.23l-18.9 0Z" id="p234w490" />
<path d="M593.64 479.29l27.91 0l0 12.23l-27.91 0Z" id="p234w491" />
<path d="M627.41 478.21l33.37 0l0 13.77l-33.37 0Z" id="p234w492" />
<path d="M666.64 479.31l25.65 0l0 12.23l-25.65 0Z" id="p234w493" />
<path d="M536.95 494.59l19.13 0l0 12.23l-19.13 0Z" id="p234w494" />
<path d="M558.78 494.57l25.65 0l0 12.23l-25.65 0Z" id="p234w495" />
<path d="M589.58 494.59l47.95 0l0 12.23l-47.95 0Z" id="p234w496" />
<path d="M640.23 494.35l15.54 0l0 12.56l-15.54 0Z" id="p234w497" />
<path d="M536.95 509.88l21.37 0l0 12.23l-21.37 0Z" id="p234w498" />
<path d="M561.02 509.88l8.33 0l0 12.23l-8.33 0Z" id="p234w499" />
<path d="M572.05 509.88l15.32 0l0 12.23l-15.32 0Z" id="p234w500" />
<path d="M593.22 508.78l30.99 0l0 13.77l-30.99 0Z" id="p234w501" />
<path d="M630.07 509.88l32.65 0l0 12.23l-32.65 0Z" id="p234w502" />
<path d="M665.42 509.88l37.59 0l0 12.23l-37.59 0Z" id="p234w503" />
<path d="M536.95 524.92l18.17 0l0 12.56l-18.17 0Z" id="p234w504" />
<path d="M536.95 540.44l21.37 0l0 12.23l-21.37 0Z" id="p234w505" />
<path d="M561.02 540.44l13.05 0l0 12.23l-13.05 0Z" id="p234w506" />
<path d="M576.77 540.44l35.57 0l0 12.23l-35.57 0Z" id="p234w507" />
<path d="M618.2 539.34l42.66 0l0 13.77l-42.66 0Z" id="p234w508" />
<path d="M536.95 555.73l46.37 0l0 12.23l-46.37 0Z" id="p234w509" />
<path d="M586.02 555.48l14.63 0l0 12.56l-14.63 0Z" id="p234w510" />
<path d="M536.95 571.01l21.37 0l0 12.23l-21.37 0Z" id="p234w511" />
<path d="M561.02 571.01l8.33 0l0 12.23l-8.33 0Z" id="p234w512" />
<path d="M572.05 571.01l19.36 0l0 12.23l-19.36 0Z" id="p234w513" />
<path d="M594.11 571.01l11.94 0l0 12.23l-11.94 0Z" id="p234w514" />
<path d="M608.75 571.01l32.87 0l0 12.23l-32.87 0Z" id="p234w515" />
<path d="M540.1 585.19l67.98 0l0 13.77l-67.98 0Z" id="p234w516" />
<path d="M613.94 586.29l20.03 0l0 12.23l-20.03 0Z" id="p234w517" />
<path d="M636.45 586.29l43.65 0l0 12.23l-43.65 0Z" id="p234w518" />
<path d="M536.95 601.58l40.04 0l0 12.23l-40.04 0Z" id="p234w519" />
<path d="M579.68 601.58l8.78 0l0 12.23l-8.78 0Z" id="p234w520" />
<path d="M591.17 601.58l14.41 0l0 12.23l-14.41 0Z" id="p234w521" />
<path d="M608.27 601.58l28.31 0l0 12.23l-28.31 0Z" id="p234w522" />
<path d="M639.06 601.58l21.15 0l0 12.23l-21.15 0Z" id="p234w523" />
<path d="M662.91 601.58l38.71 0l0 12.23l-38.71 0Z" id="p234w524" />
<path d="M536.95 616.86l35.34 0l0 12.23l-35.34 0Z" id="p234w525" />
<path d="M574.98 616.62l15.34 0l0 12.56l-15.34 0Z" id="p234w526" />
<path d="M536.95 632.14l21.37 0l0 12.23l-21.37 0Z" id="p234w527" />
<path d="M561.02 632.14l8.33 0l0 12.23l-8.33 0Z" id="p234w528" />
<path d="M572.05 632.14l10.35 0l0 12.23l-10.35 0Z" id="p234w529" />
<path d="M585.1 632.14l24.98 0l0 12.23l-24.98 0Z" id="p234w530" />
<path d="M612.77 632.14l11.04 0l0 12.23l-11.04 0Z" id="p234w531" />
<path d="M629.67 631.04l49.02 0l0 13.77l-49.02 0Z" id="p234w532" />
<path d="M536.95 647.43l20.03 0l0 12.23l-20.03 0Z" id="p234w533" />
<path d="M559.68 647.43l39.76 0l0 12.23l-39.76 0Z" id="p234w534" />
<path d="M602.14 647.43l31.96 0l0 12.23l-31.96 0Z" id="p234w535" />
<path d="M636.79 647.43l43.45 0l0 12.23l-43.45 0Z" id="p234w536" />
<path d="M682.94 647.43l19.44 0l0 12.23l-19.44 0Z" id="p234w537" />
<path d="M536.95 662.47l18.92 0l0 12.56l-18.92 0Z" id="p234w538" />
<path d="M536.95 677.99l21.37 0l0 12.23l-21.37 0Z" id="p234w539" />
<path d="M561.02 677.99l27.68 0l0 12.23l-27.68 0Z" id="p234w540" />
<path d="M591.4 677.99l11.7 0l0 12.23l-11.7 0Z" id="p234w541" />
<path d="M605.8 677.99l11.04 0l0 12.23l-11.04 0Z" id="p234w542" />
<path d="M622.7 676.89l36.5 0l0 13.77l-36.5 0Z" id="p234w543" />
<path d="M665.06 677.99l14.41 0l0 12.23l-14.41 0Z" id="p234w544" />
<path d="M681.87 677.99l15.54 0l0 12.23l-15.54 0Z" id="p234w545" />
<path d="M536.95 693.28l19.13 0l0 12.23l-19.13 0Z" id="p234w546" />
<path d="M558.78 693.28l19.56 0l0 12.23l-19.56 0Z" id="p234w547" />
<path d="M581.04 693.28l39.11 0l0 12.23l-39.11 0Z" id="p234w548" />
<path d="M622.85 693.28l10.82 0l0 12.23l-10.82 0Z" id="p234w549" />
<path d="M636.37 693.03l18.17 0l0 12.56l-18.17 0Z" id="p234w550" />
<path d="M536.95 708.56l21.37 0l0 12.23l-21.37 0Z" id="p234w551" />
<path d="M561.02 708.56l43.88 0l0 12.23l-43.88 0Z" id="p234w552" />
<path d="M607.6 708.56l15.31 0l0 12.23l-15.31 0Z" id="p234w553" />
<path d="M625.61 708.56l21.37 0l0 12.23l-21.37 0Z" id="p234w554" />
<path d="M649.69 708.56l14.64 0l0 12.23l-14.64 0Z" id="p234w555" />
<path d="M540.1 722.74l38.14 0l0 13.77l-38.14 0Z" id="p234w556" />
<path d="M584.1 723.84l10.58 0l0 12.23l-10.58 0Z" id="p234w557" />
<path d="M597.38 723.84l18.02 0l0 12.23l-18.02 0Z" id="p234w558" />
<path d="M618.1 723.84l13.05 0l0 12.23l-13.05 0Z" id="p234w559" />
<path d="M633.85 723.84l11.94 0l0 12.23l-11.94 0Z" id="p234w560" />
<path d="M648.49 723.6l18.17 0l0 12.56l-18.17 0Z" id="p234w561" />
<path d="M536.95 739.13l21.37 0l0 12.23l-21.37 0Z" id="p234w562" />
<path d="M561.02 739.13l15.07 0l0 12.23l-15.07 0Z" id="p234w563" />
<path d="M578.79 739.13l31.73 0l0 12.23l-31.73 0Z" id="p234w564" />
<path d="M616.39 738.03l47.16 0l0 13.77l-47.16 0Z" id="p234w565" />
<path d="M536.95 754.41l44.34 0l0 12.23l-44.34 0Z" id="p234w566" />
<path d="M583.99 754.17l18.92 0l0 12.56l-18.92 0Z" id="p234w567" />
<path d="M536.95 769.7l21.37 0l0 12.23l-21.37 0Z" id="p234w568" />
<path d="M561.02 769.7l17.56 0l0 12.23l-17.56 0Z" id="p234w569" />
<path d="M581.28 769.7l37.36 0l0 12.23l-37.36 0Z" id="p234w570" />
<path d="M629.67 769.7l12.16 0l0 12.23l-12.16 0Z" id="p234w571" />
<path d="M540.1 783.88l59.13 0l0 13.77l-59.13 0Z" id="p234w572" />
<path d="M605.09 784.98l16.9 0l0 12.23l-16.9 0Z" id="p234w573" />
<path d="M624.69 784.98l58.08 0l0 12.23l-58.08 0Z" id="p234w574" />
<path d="M536.95 800.02l18.92 0l0 12.56l-18.92 0Z" id="p234w575" />
<path d="M536.95 815.55l5.86 0l0 12.23l-5.86 0Z" id="p234w576" />
<path d="M545.5 815.55l15.75 0l0 12.23l-15.75 0Z" id="p234w577" />
<path d="M563.96 815.55l25.44 0l0 12.23l-25.44 0Z" id="p234w578" />
<path d="M595.26 814.45l25.93 0l0 13.77l-25.93 0Z" id="p234w579" />
<path d="M627.05 815.55l17.33 0l0 12.23l-17.33 0Z" id="p234w580" />
<path d="M646.85 815.55l31.72 0l0 12.23l-31.72 0Z" id="p234w581" />
<path d="M681.28 815.55l11.25 0l0 12.23l-11.25 0Z" id="p234w582" />
<path d="M536.95 830.83l32.4 0l0 12.23l-32.4 0Z" id="p234w583" />
<path d="M572.05 830.83l10.58 0l0 12.23l-10.58 0Z" id="p234w584" />
<path d="M585.33 830.83l11.25 0l0 12.23l-11.25 0Z" id="p234w585" />
<path d="M599.28 830.83l38.05 0l0 12.23l-38.05 0Z" id="p234w586" />
<path d="M639.8 830.83l32.87 0l0 12.23l-32.87 0Z" id="p234w587" />
<path d="M675.37 830.58l15.54 0l0 12.56l-15.54 0Z" id="p234w588" />
<path d="M536.95 846.11l5.86 0l0 12.23l-5.86 0Z" id="p234w589" />
<path d="M545.5 846.11l15.75 0l0 12.23l-15.75 0Z" id="p234w590" />
<path d="M563.96 846.11l24.1 0l0 12.23l-24.1 0Z" id="p234w591" />
<path d="M593.91 845.01l35.61 0l0 13.77l-35.61 0Z" id="p234w592" />
<path d="M635.38 846.11l10.58 0l0 12.23l-10.58 0Z" id="p234w593" />
<path d="M648.66 846.11l11.25 0l0 12.23l-11.25 0Z" id="p234w594" />
<path d="M662.61 846.11l19.58 0l0 12.23l-19.58 0Z" id="p234w595" />
<path d="M536.95 861.15l15.54 0l0 12.56l-15.54 0Z" id="p234w596" />
<path d="M536.95 876.68l5.86 0l0 12.23l-5.86 0Z" id="p234w597" />
<path d="M545.5 876.68l15.75 0l0 12.23l-15.75 0Z" id="p234w598" />
<path d="M563.96 876.68l23.81 0l0 12.23l-23.81 0Z" id="p234w599" />
<path d="M590.47 876.68l34.16 0l0 12.23l-34.16 0Z" id="p234w600" />
<path d="M630.48 875.58l51.21 0l0 13.77l-51.21 0Z" id="p234w601" />
<path d="M687.55 876.68l10.58 0l0 12.23l-10.58 0Z" id="p234w602" />
<path d="M536.95 891.96l19.58 0l0 12.23l-19.58 0Z" id="p234w603" />
<path d="M572.74 891.96l24.54 0l0 12.23l-24.54 0Z" id="p234w604" />
<path d="M599.98 891.72l15.54 0l0 12.56l-15.54 0Z" id="p234w605" />
<path d="M536.95 907.25l10.35 0l0 12.23l-10.35 0Z" id="p234w606" />
<path d="M549.99 907.25l21.37 0l0 12.23l-21.37 0Z" id="p234w607" />
<path d="M574.07 907.25l11.94 0l0 12.23l-11.94 0Z" id="p234w608" />
<path d="M588.71 907.25l24.1 0l0 12.23l-24.1 0Z" id="p234w609" />
<path d="M618.66 906.15l51.02 0l0 13.77l-51.02 0Z" id="p234w610" />
<path d="M675.54 907.25l18.46 0l0 12.23l-18.46 0Z" id="p234w611" />
<path d="M536.95 922.53l33.12 0l0 12.23l-33.12 0Z" id="p234w612" />
<path d="M572.77 922.53l37.59 0l0 12.23l-37.59 0Z" id="p234w613" />
<path d="M613.06 922.28l18.92 0l0 12.56l-18.92 0Z" id="p234w614" />
</svg>
