<?xml version="1.0" encoding="UTF-8"?>
<svg xmlns="http://www.w3.org/2000/svg" xmlns:xlink="http://www.w3.org/1999/xlink" version="1.1" baseProfile="full" width="768" height="1024" viewBox="0,0,768,1024" preserveAspectRatio="xMinYMin meet" >
<style type="text/css">
<![CDATA[
path {fill-opacity: 0.5;fill: #00aeef;visibility: hidden;}
]]>
</style>
<path d="M143.75 114.18l25.4 0l0 14.52l-25.4 0Z" id="p48w1" />
<path d="M172.36 114.18l31.27 0l0 14.52l-31.27 0Z" id="p48w2" />
<path d="M206.83 114.18l12.66 0l0 14.52l-12.66 0Z" id="p48w3" />
<path d="M222.7 114.18l25.4 0l0 14.52l-25.4 0Z" id="p48w4" />
<path d="M251.3 114.18l24.06 0l0 14.52l-24.06 0Z" id="p48w5" />
<path d="M278.57 114.18l25.13 0l0 14.52l-25.13 0Z" id="p48w6" />
<path d="M315.2 114.18l55.44 0l0 14.52l-55.44 0Z" id="p48w7" />
<path d="M373.85 114.18l15.5 0l0 14.52l-15.5 0Z" id="p48w8" />
<path d="M392.55 114.18l67.9 0l0 14.52l-67.9 0Z" id="p48w9" />
<path d="M143.75 139.19l48.65 0l0 14.52l-48.65 0Z" id="p48w10" />
<path d="M143.75 155.86l32.8 0l0 14.52l-32.8 0Z" id="p48w11" />
<path d="M143.75 172.53l44.11 0l0 14.52l-44.11 0Z" id="p48w12" />
<path d="M143.75 189.2l32.87 0l0 14.52l-32.87 0Z" id="p48w13" />
<path d="M143.75 205.87l31.53 0l0 14.52l-31.53 0Z" id="p48w14" />
<path d="M225.47 139.18l20.85 0l0 14.52l-20.85 0Z" id="p48w15" />
<path d="M249.53 139.18l47.86 0l0 14.52l-47.86 0Z" id="p48w16" />
<path d="M225.47 155.85l14.18 0l0 14.52l-14.18 0Z" id="p48w17" />
<path d="M242.86 155.85l39.82 0l0 14.52l-39.82 0Z" id="p48w18" />
<path d="M225.47 172.52l14.18 0l0 14.52l-14.18 0Z" id="p48w19" />
<path d="M242.86 172.52l81.27 0l0 14.52l-81.27 0Z" id="p48w20" />
<path d="M225.47 189.19l15.5 0l0 14.52l-15.5 0Z" id="p48w21" />
<path d="M244.18 189.19l54 0l0 14.52l-54 0Z" id="p48w22" />
<path d="M225.47 205.86l13.9 0l0 14.52l-13.9 0Z" id="p48w23" />
<path d="M242.58 205.86l17.9 0l0 14.52l-17.9 0Z" id="p48w24" />
<path d="M263.68 205.86l37.96 0l0 14.52l-37.96 0Z" id="p48w25" />
<path d="M154.71 230.87l28.96 0l0 14.52l-28.96 0Z" id="p48w26" />
<path d="M186.88 230.87l13.9 0l0 14.52l-13.9 0Z" id="p48w27" />
<path d="M203.98 230.87l18.18 0l0 14.52l-18.18 0Z" id="p48w28" />
<path d="M225.37 230.87l67.9 0l0 14.52l-67.9 0Z" id="p48w29" />
<path d="M296.47 230.87l39.03 0l0 14.52l-39.03 0Z" id="p48w30" />
<path d="M338.71 230.87l14.18 0l0 14.52l-14.18 0Z" id="p48w31" />
<path d="M364.74 230.87l31.81 0l0 14.52l-31.81 0Z" id="p48w32" />
<path d="M399.76 230.87l47.49 0l0 14.52l-47.49 0Z" id="p48w33" />
<path d="M143.75 247.55l25.67 0l0 14.52l-25.67 0Z" id="p48w34" />
<path d="M172.64 247.55l53.72 0l0 14.52l-53.72 0Z" id="p48w35" />
<path d="M239.45 247.55l14.18 0l0 14.52l-14.18 0Z" id="p48w36" />
<path d="M256.83 247.55l50.2 0l0 14.52l-50.2 0Z" id="p48w37" />
<path d="M310.24 247.55l40.63 0l0 14.52l-40.63 0Z" id="p48w38" />
<path d="M354.07 247.55l58.54 0l0 14.52l-58.54 0Z" id="p48w39" />
<path d="M123.61 291.38l32.5 0l0 18.84l-32.5 0Z" id="p48w40" />
<path d="M159.76 291.38l19.93 0l0 18.84l-19.93 0Z" id="p48w41" />
<path d="M183.35 291.38l32.26 0l0 18.84l-32.26 0Z" id="p48w42" />
<path d="M143.75 322.59l6.96 0l0 14.52l-6.96 0Z" id="p48w43" />
<path d="M172.9 322.59l14.18 0l0 14.52l-14.18 0Z" id="p48w44" />
<path d="M190.28 322.59l47.6 0l0 14.52l-47.6 0Z" id="p48w45" />
<path d="M241.09 322.59l35 0l0 14.52l-35 0Z" id="p48w46" />
<path d="M279.3 322.59l26.73 0l0 14.52l-26.73 0Z" id="p48w47" />
<path d="M309.23 322.59l9.89 0l0 14.52l-9.89 0Z" id="p48w48" />
<path d="M322.33 322.59l31.01 0l0 14.52l-31.01 0Z" id="p48w49" />
<path d="M356.54 322.59l36.63 0l0 14.52l-36.63 0Z" id="p48w50" />
<path d="M396.38 322.59l33.05 0l0 14.52l-33.05 0Z" id="p48w51" />
<path d="M432.64 322.59l30.23 0l0 14.52l-30.23 0Z" id="p48w52" />
<path d="M466.07 322.59l39.02 0l0 14.52l-39.02 0Z" id="p48w53" />
<path d="M143.75 347.6l32.62 0l0 14.52l-32.62 0Z" id="p48w54" />
<path d="M179.58 347.6l26.73 0l0 14.52l-26.73 0Z" id="p48w55" />
<path d="M209.51 347.6l9.89 0l0 14.52l-9.89 0Z" id="p48w56" />
<path d="M222.61 347.6l41.96 0l0 14.52l-41.96 0Z" id="p48w57" />
<path d="M267.78 347.6l15.5 0l0 14.52l-15.5 0Z" id="p48w58" />
<path d="M286.48 347.6l39.02 0l0 14.52l-39.02 0Z" id="p48w59" />
<path d="M328.7 347.6l13.63 0l0 14.52l-13.63 0Z" id="p48w60" />
<path d="M345.55 347.54l27.89 0l0 14.6l-27.89 0Z" id="p48w61" />
<path d="M376.64 347.54l37.29 0l0 14.6l-37.29 0Z" id="p48w62" />
<path d="M143.75 364.27l19.51 0l0 14.52l-19.51 0Z" id="p48w63" />
<path d="M166.47 364.27l36.88 0l0 14.52l-36.88 0Z" id="p48w64" />
<path d="M206.56 364.27l13.9 0l0 14.52l-13.9 0Z" id="p48w65" />
<path d="M223.66 364.27l14.88 0l0 14.52l-14.88 0Z" id="p48w66" />
<path d="M241.75 364.27l45.71 0l0 14.52l-45.71 0Z" id="p48w67" />
<path d="M290.66 364.27l55.61 0l0 14.52l-55.61 0Z" id="p48w68" />
<path d="M349.48 364.27l13.9 0l0 14.52l-13.9 0Z" id="p48w69" />
<path d="M366.59 364.27l22.1 0l0 14.52l-22.1 0Z" id="p48w70" />
<path d="M143.75 380.94l45.71 0l0 14.52l-45.71 0Z" id="p48w71" />
<path d="M192.67 380.94l55.05 0l0 14.52l-55.05 0Z" id="p48w72" />
<path d="M250.93 380.94l11.22 0l0 14.52l-11.22 0Z" id="p48w73" />
<path d="M265.36 380.94l13.9 0l0 14.52l-13.9 0Z" id="p48w74" />
<path d="M282.47 380.94l11.4 0l0 14.52l-11.4 0Z" id="p48w75" />
<path d="M297.08 380.94l45.71 0l0 14.52l-45.71 0Z" id="p48w76" />
<path d="M345.99 380.94l41.7 0l0 14.52l-41.7 0Z" id="p48w77" />
<path d="M390.9 380.94l20.85 0l0 14.52l-20.85 0Z" id="p48w78" />
<path d="M143.75 397.61l25.67 0l0 14.52l-25.67 0Z" id="p48w79" />
<path d="M172.64 397.61l41.45 0l0 14.52l-41.45 0Z" id="p48w80" />
<path d="M217.29 397.61l26.73 0l0 14.52l-26.73 0Z" id="p48w81" />
<path d="M247.22 397.61l9.89 0l0 14.52l-9.89 0Z" id="p48w82" />
<path d="M260.32 397.61l31.01 0l0 14.52l-31.01 0Z" id="p48w83" />
<path d="M143.75 422.63l40.43 0l0 14.52l-40.43 0Z" id="p48w84" />
<path d="M187.39 422.63l24.06 0l0 14.52l-24.06 0Z" id="p48w85" />
<path d="M214.66 422.63l15.3 0l0 14.52l-15.3 0Z" id="p48w86" />
<path d="M233.17 422.63l71.63 0l0 14.52l-71.63 0Z" id="p48w87" />
<path d="M308.01 422.63l14.04 0l0 14.52l-14.04 0Z" id="p48w88" />
<path d="M325.26 422.63l26.94 0l0 14.52l-26.94 0Z" id="p48w89" />
<path d="M355.41 422.63l36.55 0l0 14.52l-36.55 0Z" id="p48w90" />
<path d="M154.64 439.3l30.33 0l0 14.52l-30.33 0Z" id="p48w91" />
<path d="M188.18 439.3l13.77 0l0 14.52l-13.77 0Z" id="p48w92" />
<path d="M205.16 439.3l23.8 0l0 14.52l-23.8 0Z" id="p48w93" />
<path d="M232.16 439.3l36.69 0l0 14.52l-36.69 0Z" id="p48w94" />
<path d="M272.07 439.27l48.38 0l0 14.52l-48.38 0Z" id="p48w95" />
<path d="M323.58 439.3l32.66 0l0 14.52l-32.66 0Z" id="p48w96" />
<path d="M359.44 439.3l29.9 0l0 14.52l-29.9 0Z" id="p48w97" />
<path d="M392.55 439.3l9.75 0l0 14.52l-9.75 0Z" id="p48w98" />
<path d="M405.51 439.3l33.14 0l0 14.52l-33.14 0Z" id="p48w99" />
<path d="M143.75 464.31l59.34 0l0 14.52l-59.34 0Z" id="p48w100" />
<path d="M206.31 464.31l40.89 0l0 14.52l-40.89 0Z" id="p48w101" />
<path d="M250.41 464.31l15.5 0l0 14.52l-15.5 0Z" id="p48w102" />
<path d="M269.11 464.31l39.02 0l0 14.52l-39.02 0Z" id="p48w103" />
<path d="M311.33 464.31l69.76 0l0 14.52l-69.76 0Z" id="p48w104" />
<path d="M384.3 464.31l26.73 0l0 14.52l-26.73 0Z" id="p48w105" />
<path d="M414.24 464.31l9.89 0l0 14.52l-9.89 0Z" id="p48w106" />
<path d="M427.33 464.31l44.64 0l0 14.52l-44.64 0Z" id="p48w107" />
<path d="M123.63 497.65l26.21 0l0 14.52l-26.21 0Z" id="p48w108" />
<path d="M153.05 497.65l34.21 0l0 14.52l-34.21 0Z" id="p48w109" />
<path d="M190.47 497.65l25.4 0l0 14.52l-25.4 0Z" id="p48w110" />
<path d="M219.07 497.65l28.87 0l0 14.52l-28.87 0Z" id="p48w111" />
<path d="M251.14 497.65l34.21 0l0 14.52l-34.21 0Z" id="p48w112" />
<path d="M288.56 497.65l14.18 0l0 14.52l-14.18 0Z" id="p48w113" />
<path d="M305.95 497.65l65.15 0l0 14.52l-65.15 0Z" id="p48w114" />
<path d="M374.31 497.65l14.18 0l0 14.52l-14.18 0Z" id="p48w115" />
<path d="M391.69 497.65l56.85 0l0 14.52l-56.85 0Z" id="p48w116" />
<path d="M135.02 514.32l26.46 0l0 14.52l-26.46 0Z" id="p48w117" />
<path d="M164.69 514.32l20.85 0l0 14.52l-20.85 0Z" id="p48w118" />
<path d="M188.75 514.32l51.07 0l0 14.52l-51.07 0Z" id="p48w119" />
<path d="M254.26 514.32l42.51 0l0 14.52l-42.51 0Z" id="p48w120" />
<path d="M299.98 514.32l22.73 0l0 14.52l-22.73 0Z" id="p48w121" />
<path d="M325.92 514.32l46.73 0l0 14.52l-46.73 0Z" id="p48w122" />
<path d="M375.85 514.32l13.9 0l0 14.52l-13.9 0Z" id="p48w123" />
<path d="M392.96 514.32l23.8 0l0 14.52l-23.8 0Z" id="p48w124" />
<path d="M419.96 514.32l40.63 0l0 14.52l-40.63 0Z" id="p48w125" />
<path d="M463.8 514.32l35.28 0l0 14.52l-35.28 0Z" id="p48w126" />
<path d="M502.29 514.32l15.5 0l0 14.52l-15.5 0Z" id="p48w127" />
<path d="M520.99 514.32l60.41 0l0 14.52l-60.41 0Z" id="p48w128" />
<path d="M139.06 539.35l12.3 0l0 14.61l-12.3 0Z" id="p48w129" />
<path d="M154.56 539.35l60.25 0l0 14.61l-60.25 0Z" id="p48w130" />
<path d="M218.03 539.35l9.89 0l0 14.61l-9.89 0Z" id="p48w131" />
<path d="M231.12 539.35l30.66 0l0 14.61l-30.66 0Z" id="p48w132" />
<path d="M139.14 556.02l21.12 0l0 14.61l-21.12 0Z" id="p48w133" />
<path d="M163.3 556.02l9.89 0l0 14.61l-9.89 0Z" id="p48w134" />
<path d="M176.39 556.02l57.85 0l0 14.61l-57.85 0Z" id="p48w135" />
<path d="M237.45 556.02l9.89 0l0 14.61l-9.89 0Z" id="p48w136" />
<path d="M250.55 556.02l33.34 0l0 14.61l-33.34 0Z" id="p48w137" />
<path d="M292.43 556.02l25.41 0l0 14.61l-25.41 0Z" id="p48w138" />
<path d="M320.87 556.02l23.24 0l0 14.61l-23.24 0Z" id="p48w139" />
<path d="M347.32 556.02l42.42 0l0 14.61l-42.42 0Z" id="p48w140" />
<path d="M392.95 556.02l66.66 0l0 14.61l-66.66 0Z" id="p48w141" />
<path d="M462.82 556.02l9.89 0l0 14.61l-9.89 0Z" id="p48w142" />
<path d="M475.91 556.02l33.34 0l0 14.61l-33.34 0Z" id="p48w143" />
<path d="M124.07 581.02l10.43 0l0 14.52l-10.43 0Z" id="p48w144" />
<path d="M124.07 597.69l12.41 0l0 14.52l-12.41 0Z" id="p48w145" />
<path d="M124.07 614.36l19.53 0l0 14.52l-19.53 0Z" id="p48w146" />
<path d="M146.81 614.36l26.72 0l0 14.52l-26.72 0Z" id="p48w147" />
<path d="M181.78 614.36l11.22 0l0 14.52l-11.22 0Z" id="p48w148" />
<path d="M196.21 614.36l28.34 0l0 14.52l-28.34 0Z" id="p48w149" />
<path d="M124.07 631.03l28.07 0l0 14.52l-28.07 0Z" id="p48w150" />
<path d="M124.07 647.7l26.21 0l0 14.52l-26.21 0Z" id="p48w151" />
<path d="M124.07 664.38l17.65 0l0 14.52l-17.65 0Z" id="p48w152" />
<path d="M144.93 664.38l42.49 0l0 14.52l-42.49 0Z" id="p48w153" />
<path d="M256.99 581.01l48.1 0l0 14.52l-48.1 0Z" id="p48w154" />
<path d="M308.29 581.01l9.89 0l0 14.52l-9.89 0Z" id="p48w155" />
<path d="M321.39 581.01l30.73 0l0 14.52l-30.73 0Z" id="p48w156" />
<path d="M256.99 597.68l36.34 0l0 14.52l-36.34 0Z" id="p48w157" />
<path d="M296.53 597.68l9.89 0l0 14.52l-9.89 0Z" id="p48w158" />
<path d="M309.63 597.68l54.17 0l0 14.52l-54.17 0Z" id="p48w159" />
<path d="M367 597.68l54.25 0l0 14.52l-54.25 0Z" id="p48w160" />
<path d="M256.99 614.35l47.77 0l0 14.52l-47.77 0Z" id="p48w161" />
<path d="M307.96 614.35l14.18 0l0 14.52l-14.18 0Z" id="p48w162" />
<path d="M325.35 614.35l35.28 0l0 14.52l-35.28 0Z" id="p48w163" />
<path d="M363.84 614.35l13.9 0l0 14.52l-13.9 0Z" id="p48w164" />
<path d="M380.94 614.35l22.73 0l0 14.52l-22.73 0Z" id="p48w165" />
<path d="M256.99 631.02l30.73 0l0 14.52l-30.73 0Z" id="p48w166" />
<path d="M290.92 631.02l35.29 0l0 14.52l-35.29 0Z" id="p48w167" />
<path d="M256.99 647.69l29.39 0l0 14.52l-29.39 0Z" id="p48w168" />
<path d="M289.59 647.69l40.35 0l0 14.52l-40.35 0Z" id="p48w169" />
<path d="M333.15 647.69l20.31 0l0 14.52l-20.31 0Z" id="p48w170" />
<path d="M256.99 664.36l37.42 0l0 14.52l-37.42 0Z" id="p48w171" />
<path d="M297.62 664.36l25.67 0l0 14.52l-25.67 0Z" id="p48w172" />
<path d="M326.5 664.36l19.51 0l0 14.52l-19.51 0Z" id="p48w173" />
<path d="M349.21 664.36l42.78 0l0 14.52l-42.78 0Z" id="p48w174" />
<path d="M256.99 681.03l36.34 0l0 14.52l-36.34 0Z" id="p48w175" />
<path d="M306.42 681.03l33.95 0l0 14.52l-33.95 0Z" id="p48w176" />
<path d="M343.58 681.03l32.07 0l0 14.52l-32.07 0Z" id="p48w177" />
<path d="M256.99 697.7l43.23 0l0 14.52l-43.23 0Z" id="p48w178" />
<path d="M303.42 697.7l13.63 0l0 14.52l-13.63 0Z" id="p48w179" />
<path d="M320.27 697.7l57.72 0l0 14.52l-57.72 0Z" id="p48w180" />
<path d="M256.99 714.37l52.14 0l0 14.52l-52.14 0Z" id="p48w181" />
<path d="M312.33 714.37l9.89 0l0 14.52l-9.89 0Z" id="p48w182" />
<path d="M325.43 714.37l22.45 0l0 14.52l-22.45 0Z" id="p48w183" />
<path d="M256.99 731.04l44.1 0l0 14.52l-44.1 0Z" id="p48w184" />
<path d="M304.29 731.04l9.89 0l0 14.52l-9.89 0Z" id="p48w185" />
<path d="M317.39 731.04l19.79 0l0 14.52l-19.79 0Z" id="p48w186" />
<path d="M256.99 747.72l37.93 0l0 14.52l-37.93 0Z" id="p48w187" />
<path d="M298.13 747.72l19.79 0l0 14.52l-19.79 0Z" id="p48w188" />
<path d="M321.12 747.72l47.6 0l0 14.52l-47.6 0Z" id="p48w189" />
<path d="M371.93 747.72l23.52 0l0 14.52l-23.52 0Z" id="p48w190" />
<path d="M143.76 781.06l42.53 0l0 14.52l-42.53 0Z" id="p48w191" />
<path d="M189.5 781.06l26.73 0l0 14.52l-26.73 0Z" id="p48w192" />
<path d="M219.44 781.06l15.5 0l0 14.52l-15.5 0Z" id="p48w193" />
<path d="M238.14 781.06l69.69 0l0 14.52l-69.69 0Z" id="p48w194" />
<path d="M338.93 781.06l14.18 0l0 14.52l-14.18 0Z" id="p48w195" />
<path d="M356.31 781.06l28.33 0l0 14.52l-28.33 0Z" id="p48w196" />
<path d="M387.85 781.06l15.5 0l0 14.52l-15.5 0Z" id="p48w197" />
<path d="M406.55 781.06l39.02 0l0 14.52l-39.02 0Z" id="p48w198" />
<path d="M448.77 781.06l13.63 0l0 14.52l-13.63 0Z" id="p48w199" />
<path d="M465.62 781.06l27.27 0l0 14.52l-27.27 0Z" id="p48w200" />
<path d="M143.76 797.73l13.9 0l0 14.52l-13.9 0Z" id="p48w201" />
<path d="M160.87 797.73l18.18 0l0 14.52l-18.18 0Z" id="p48w202" />
<path d="M182.25 797.73l36.88 0l0 14.52l-36.88 0Z" id="p48w203" />
<path d="M222.34 797.73l59 0l0 14.52l-59 0Z" id="p48w204" />
<path d="M284.55 797.73l12.83 0l0 14.52l-12.83 0Z" id="p48w205" />
<path d="M300.59 797.73l48.39 0l0 14.52l-48.39 0Z" id="p48w206" />
<path d="M352.18 797.73l25.4 0l0 14.52l-25.4 0Z" id="p48w207" />
<path d="M380.78 797.73l25.67 0l0 14.52l-25.67 0Z" id="p48w208" />
<path d="M409.66 797.73l29.69 0l0 14.52l-29.69 0Z" id="p48w209" />
<path d="M143.76 889.42l30.23 0l0 14.52l-30.23 0Z" id="p48w210" />
<path d="M187.08 889.42l29.42 0l0 14.52l-29.42 0Z" id="p48w211" />
<path d="M230.67 889.42l36.63 0l0 14.52l-36.63 0Z" id="p48w212" />
<path d="M270.5 889.42l14.18 0l0 14.52l-14.18 0Z" id="p48w213" />
<path d="M287.89 889.42l31.27 0l0 14.52l-31.27 0Z" id="p48w214" />
<path d="M322.36 889.42l11.22 0l0 14.52l-11.22 0Z" id="p48w215" />
<path d="M336.79 889.42l20.85 0l0 14.52l-20.85 0Z" id="p48w216" />
<path d="M360.85 889.42l54.8 0l0 14.52l-54.8 0Z" id="p48w217" />
<path d="M430.1 889.42l35.29 0l0 14.52l-35.29 0Z" id="p48w218" />
<path d="M468.6 889.42l9.89 0l0 14.52l-9.89 0Z" id="p48w219" />
<path d="M481.69 889.42l33.41 0l0 14.52l-33.41 0Z" id="p48w220" />
<path d="M518.31 889.42l13.63 0l0 14.52l-13.63 0Z" id="p48w221" />
<path d="M535.15 889.42l28.63 0l0 14.52l-28.63 0Z" id="p48w222" />
<path d="M143.76 906.09l22.73 0l0 14.52l-22.73 0Z" id="p48w223" />
<path d="M169.7 906.09l46.73 0l0 14.52l-46.73 0Z" id="p48w224" />
<path d="M219.63 906.09l13.9 0l0 14.52l-13.9 0Z" id="p48w225" />
<path d="M236.74 906.09l23.8 0l0 14.52l-23.8 0Z" id="p48w226" />
<path d="M158.75 931.16l20.59 0l0 14.61l-20.59 0Z" id="p48w227" />
<path d="M187.5 931.16l11.48 0l0 14.61l-11.48 0Z" id="p48w228" />
<path d="M232.36 931.16l12.3 0l0 14.61l-12.3 0Z" id="p48w229" />
<path d="M247.86 931.16l36.55 0l0 14.61l-36.55 0Z" id="p48w230" />
<path d="M302.53 931.16l41.71 0l0 14.61l-41.71 0Z" id="p48w231" />
<path d="M352.4 931.16l25.4 0l0 14.61l-25.4 0Z" id="p48w232" />
<path d="M62.22 232.66l26.4 0l0 12.29l-26.4 0Z" id="p48w233" />
<path d="M545.07 185.1l37.63 0l0 15.56l-37.63 0Z" id="p48w234" />
<path d="M498.42 155.4l49.15 0l0 15.71l-49.15 0Z" id="p48w235" />
<path d="M550.52 155.4l31.04 0l0 15.71l-31.04 0Z" id="p48w236" />
<path d="M585 155.4l48.43 0l0 15.71l-48.43 0Z" id="p48w237" />
<path d="M76.87 296.64l11.64 0l0 12.3l-11.64 0Z" id="p48w238" />
<path d="M558.86 344.49l15.1 0l0 14.6l-15.1 0Z" id="p48w239" />
<path d="M610.06 344.49l22.2 0l0 14.6l-22.2 0Z" id="p48w240" />
<path d="M661.26 344.49l11.76 0l0 14.6l-11.76 0Z" id="p48w241" />
<path d="M480.68 360.74l9.62 0l0 14.52l-9.62 0Z" id="p48w242" />
<path d="M480.68 376.92l11.5 0l0 14.52l-11.5 0Z" id="p48w243" />
<path d="M480.68 393.1l6.41 0l0 14.52l-6.41 0Z" id="p48w244" />
<path d="M495.35 393.1l19.77 0l0 14.52l-19.77 0Z" id="p48w245" />
<path d="M523.37 393.1l14.18 0l0 14.52l-14.18 0Z" id="p48w246" />
<path d="M480.68 409.28l26.74 0l0 14.52l-26.74 0Z" id="p48w247" />
<path d="M148.68 829.63l24.31 0l0 14.52l-24.31 0Z" id="p48w248" />
<path d="M287.45 829.63l27.53 0l0 14.52l-27.53 0Z" id="p48w249" />
<path d="M415.26 829.63l22.44 0l0 14.52l-22.44 0Z" id="p48w250" />
<path d="M531.03 829.63l25.38 0l0 14.52l-25.38 0Z" id="p48w251" />
<path d="M209.23 854.74l41.99 0l0 14.52l-41.99 0Z" id="p48w252" />
<path d="M351.22 854.74l27.8 0l0 14.52l-27.8 0Z" id="p48w253" />
<path d="M473.93 854.74l20.85 0l0 14.52l-20.85 0Z" id="p48w254" />
<path d="M124.06 39.02l42.71 0l0 15.38l-42.71 0Z" id="p48w255" />
<path d="M208.73 38.6l45.75 0l0 16.09l-45.75 0Z" id="p48w256" />
<path d="M306.51 39.02l43.21 0l0 15.38l-43.21 0Z" id="p48w257" />
<path d="M405.76 39.02l32.54 0l0 15.38l-32.54 0Z" id="p48w258" />
<path d="M76.9 983l57.78 0l0 12.23l-57.78 0Z" id="p48w259" />
</svg>
