<?xml version="1.0" encoding="UTF-8"?>
<svg xmlns="http://www.w3.org/2000/svg" xmlns:xlink="http://www.w3.org/1999/xlink" version="1.1" baseProfile="full" width="768" height="1024" viewBox="0,0,768,1024" preserveAspectRatio="xMinYMin meet" >
<style type="text/css">
<![CDATA[
path {fill-opacity: 0.5;fill: #00aeef;visibility: hidden;}
]]>
</style>
<path d="M124.06 38.6l71 0l0 16.09l-71 0Z" id="p220w1" />
<path d="M78.77 983.66l84.44 0l0 12.23l-84.44 0Z" id="p220w2" />
<path d="M124.06 110.01l10.02 0l0 14.6l-10.02 0Z" id="p220w3" />
<path d="M137.29 110.01l18.85 0l0 14.6l-18.85 0Z" id="p220w4" />
<path d="M159.44 108.77l28.35 0l0 16.35l-28.35 0Z" id="p220w5" />
<path d="M297.36 110.09l18.44 0l0 14.52l-18.44 0Z" id="p220w6" />
<path d="M319 110.09l84.81 0l0 14.52l-84.81 0Z" id="p220w7" />
<path d="M124.06 130.72l49.52 0l0 14.6l-49.52 0Z" id="p220w8" />
<path d="M176.89 129.48l51.01 0l0 16.35l-51.01 0Z" id="p220w9" />
<path d="M297.36 130.8l25.88 0l0 14.52l-25.88 0Z" id="p220w10" />
<path d="M326.45 130.8l53.39 0l0 14.52l-53.39 0Z" id="p220w11" />
<path d="M482.46 130.8l12.83 0l0 14.52l-12.83 0Z" id="p220w12" />
<path d="M498.5 130.8l18.72 0l0 14.52l-18.72 0Z" id="p220w13" />
<path d="M520.42 130.8l29.66 0l0 14.52l-29.66 0Z" id="p220w14" />
<path d="M553.29 130.8l9.89 0l0 14.52l-9.89 0Z" id="p220w15" />
<path d="M566.38 130.8l24.06 0l0 14.52l-24.06 0Z" id="p220w16" />
<path d="M593.65 130.8l11.22 0l0 14.52l-11.22 0Z" id="p220w17" />
<path d="M608.08 130.8l17.9 0l0 14.52l-17.9 0Z" id="p220w18" />
<path d="M629.19 130.8l53.19 0l0 14.52l-53.19 0Z" id="p220w19" />
<path d="M482.46 147.47l25.65 0l0 14.52l-25.65 0Z" id="p220w20" />
<path d="M511.32 147.47l20.08 0l0 14.52l-20.08 0Z" id="p220w21" />
<path d="M124.06 165.54l13.87 0l0 14.6l-13.87 0Z" id="p220w22" />
<path d="M141.14 165.54l47.7 0l0 14.6l-47.7 0Z" id="p220w23" />
<path d="M192.14 164.3l49.3 0l0 16.35l-49.3 0Z" id="p220w24" />
<path d="M297.36 165.62l39.52 0l0 14.52l-39.52 0Z" id="p220w25" />
<path d="M340.08 165.62l38.21 0l0 14.52l-38.21 0Z" id="p220w26" />
<path d="M124.06 186.25l68.02 0l0 14.6l-68.02 0Z" id="p220w27" />
<path d="M195.38 185.01l54.04 0l0 16.35l-54.04 0Z" id="p220w28" />
<path d="M297.36 186.33l45.45 0l0 14.52l-45.45 0Z" id="p220w29" />
<path d="M482.46 186.33l29.66 0l0 14.52l-29.66 0Z" id="p220w30" />
<path d="M515.33 186.33l7.48 0l0 14.52l-7.48 0Z" id="p220w31" />
<path d="M522.81 186.33l13.09 0l0 14.52l-13.09 0Z" id="p220w32" />
<path d="M539.11 186.33l16.83 0l0 14.52l-16.83 0Z" id="p220w33" />
<path d="M559.15 186.33l81.52 0l0 14.52l-81.52 0Z" id="p220w34" />
<path d="M643.88 186.33l27.01 0l0 14.52l-27.01 0Z" id="p220w35" />
<path d="M124.06 206.96l111.18 0l0 14.6l-111.18 0Z" id="p220w36" />
<path d="M124.06 222.39l95.6 0l0 16.35l-95.6 0Z" id="p220w37" />
<path d="M297.36 207.04l51.85 0l0 14.52l-51.85 0Z" id="p220w38" />
<path d="M482.46 207.04l15.6 0l0 14.52l-15.6 0Z" id="p220w39" />
<path d="M501.27 207.04l31.8 0l0 14.52l-31.8 0Z" id="p220w40" />
<path d="M536.28 207.04l14.18 0l0 14.52l-14.18 0Z" id="p220w41" />
<path d="M553.66 207.04l54.17 0l0 14.52l-54.17 0Z" id="p220w42" />
<path d="M611.04 207.04l49.44 0l0 14.52l-49.44 0Z" id="p220w43" />
<path d="M482.46 223.71l13.9 0l0 14.52l-13.9 0Z" id="p220w44" />
<path d="M499.57 223.71l40.89 0l0 14.52l-40.89 0Z" id="p220w45" />
<path d="M124.06 241.8l14.31 0l0 14.6l-14.31 0Z" id="p220w46" />
<path d="M141.58 241.8l54.58 0l0 14.6l-54.58 0Z" id="p220w47" />
<path d="M199.46 240.55l63.01 0l0 16.35l-63.01 0Z" id="p220w48" />
<path d="M297.36 241.87l17.11 0l0 14.52l-17.11 0Z" id="p220w49" />
<path d="M317.31 241.87l50.74 0l0 14.52l-50.74 0Z" id="p220w50" />
<path d="M482.46 241.87l14.18 0l0 14.52l-14.18 0Z" id="p220w51" />
<path d="M499.85 241.87l39.57 0l0 14.52l-39.57 0Z" id="p220w52" />
<path d="M542.62 241.87l14.18 0l0 14.52l-14.18 0Z" id="p220w53" />
<path d="M560.01 241.87l30.99 0l0 14.52l-30.99 0Z" id="p220w54" />
<path d="M594.21 241.87l9.89 0l0 14.52l-9.89 0Z" id="p220w55" />
<path d="M607.3 241.87l54.28 0l0 14.52l-54.28 0Z" id="p220w56" />
<path d="M664.78 241.87l17.11 0l0 14.52l-17.11 0Z" id="p220w57" />
<path d="M482.46 258.55l9.89 0l0 14.52l-9.89 0Z" id="p220w58" />
<path d="M495.56 258.55l31.01 0l0 14.52l-31.01 0Z" id="p220w59" />
<path d="M500.69 275.23l28.6 0l0 14.61l-28.6 0Z" id="p220w60" />
<path d="M124.06 293.33l10.02 0l0 14.6l-10.02 0Z" id="p220w61" />
<path d="M137.29 293.33l19.39 0l0 14.6l-19.39 0Z" id="p220w62" />
<path d="M159.88 293.37l33.14 0l0 14.52l-33.14 0Z" id="p220w63" />
<path d="M210.13 293.37l52.63 0l0 14.52l-52.63 0ZM124.06 310.04l26.73 0l0 14.52l-26.73 0Z" id="p220w64" />
<path d="M154.09 308.76l38.11 0l0 16.35l-38.11 0Z" id="p220w65" />
<path d="M297.36 293.37l19.51 0l0 14.52l-19.51 0Z" id="p220w66" />
<path d="M320.07 293.37l34.21 0l0 14.52l-34.21 0Z" id="p220w67" />
<path d="M124.06 328.13l10.02 0l0 14.6l-10.02 0Z" id="p220w68" />
<path d="M137.29 328.13l19.39 0l0 14.6l-19.39 0Z" id="p220w69" />
<path d="M159.88 328.13l75.98 0l0 14.6l-75.98 0Z" id="p220w70" />
<path d="M124.06 343.56l97.54 0l0 16.35l-97.54 0Z" id="p220w71" />
<path d="M297.36 328.21l19.51 0l0 14.52l-19.51 0Z" id="p220w72" />
<path d="M320.07 328.21l59.08 0l0 14.52l-59.08 0Z" id="p220w73" />
<path d="M110.28 406.69l26.59 0l0 15.37l-26.59 0Z" id="p220w74" />
<path d="M140.25 406.69l18.01 0l0 15.37l-18.01 0Z" id="p220w75" />
<path d="M161.63 406.69l19.84 0l0 15.37l-19.84 0Z" id="p220w76" />
<path d="M184.85 406.69l38.96 0l0 15.37l-38.96 0Z" id="p220w77" />
<path d="M227.18 406.69l14.6 0l0 15.37l-14.6 0Z" id="p220w78" />
<path d="M245.16 406.69l25.15 0l0 15.37l-25.15 0Z" id="p220w79" />
<path d="M110.28 431.15l12.8 0l0 13.06l-12.8 0Z" id="p220w80" />
<path d="M125.95 431.15l54.89 0l0 13.06l-54.89 0Z" id="p220w81" />
<path d="M183.71 431.15l33.09 0l0 13.06l-33.09 0Z" id="p220w82" />
<path d="M257.09 431.22l15.31 0l0 12.99l-15.31 0Z" id="p220w83" />
<path d="M275.26 431.22l67.81 0l0 12.99l-67.81 0Z" id="p220w84" />
<path d="M257.09 445.11l21.28 0l0 12.99l-21.28 0Z" id="p220w85" />
<path d="M281.24 445.11l72.71 0l0 12.99l-72.71 0Z" id="p220w86" />
<path d="M403.9 431.15l12.8 0l0 13.06l-12.8 0Z" id="p220w87" />
<path d="M419.57 431.15l49.2 0l0 13.06l-49.2 0Z" id="p220w88" />
<path d="M403.9 445.04l18.78 0l0 13.06l-18.78 0Z" id="p220w89" />
<path d="M425.54 445.04l57.07 0l0 13.06l-57.07 0Z" id="p220w90" />
<path d="M549.62 431.22l15.31 0l0 12.99l-15.31 0Z" id="p220w91" />
<path d="M567.79 431.22l43.89 0l0 12.99l-43.89 0Z" id="p220w92" />
<path d="M549.62 445.11l21.28 0l0 12.99l-21.28 0Z" id="p220w93" />
<path d="M573.77 445.11l48.79 0l0 12.99l-48.79 0Z" id="p220w94" />
<path d="M110.28 466.04l12.8 0l0 13.06l-12.8 0Z" id="p220w95" />
<path d="M125.95 466.04l54.21 0l0 13.06l-54.21 0Z" id="p220w96" />
<path d="M110.28 479.93l18.78 0l0 13.06l-18.78 0Z" id="p220w97" />
<path d="M131.92 479.93l49.64 0l0 13.06l-49.64 0Z" id="p220w98" />
<path d="M257.09 466.11l15.31 0l0 12.99l-15.31 0Z" id="p220w99" />
<path d="M275.26 466.11l49.63 0l0 12.99l-49.63 0Z" id="p220w100" />
<path d="M257.09 480l21.28 0l0 12.99l-21.28 0Z" id="p220w101" />
<path d="M281.24 480l54.53 0l0 12.99l-54.53 0Z" id="p220w102" />
<path d="M403.89 464.73l13.45 0l0 16.6l-13.45 0Z" id="p220w103" />
<path d="M420.64 464.73l74.72 0l0 16.6l-74.72 0Z" id="p220w104" />
<path d="M403.89 478.63l19.44 0l0 16.6l-19.44 0Z" id="p220w105" />
<path d="M426.63 478.63l70.21 0l0 16.6l-70.21 0Z" id="p220w106" />
<path d="M549.61 464.84l14.82 0l0 16.47l-14.82 0Z" id="p220w107" />
<path d="M567.73 464.84l50.1 0l0 16.47l-50.1 0Z" id="p220w108" />
<path d="M549.61 478.74l20.68 0l0 16.47l-20.68 0Z" id="p220w109" />
<path d="M573.59 478.74l48.16 0l0 16.47l-48.16 0Z" id="p220w110" />
<path d="M110.27 500.4l13.45 0l0 16.6l-13.45 0Z" id="p220w111" />
<path d="M127.02 500.4l60.86 0l0 16.6l-60.86 0Z" id="p220w112" />
<path d="M191.18 500.4l42.9 0l0 16.6l-42.9 0Z" id="p220w113" />
<path d="M257.07 500.5l14.82 0l0 16.47l-14.82 0Z" id="p220w114" />
<path d="M275.2 500.5l77.98 0l0 16.47l-77.98 0Z" id="p220w115" />
<path d="M257.07 514.4l20.68 0l0 16.47l-20.68 0Z" id="p220w116" />
<path d="M281.06 514.4l82.69 0l0 16.47l-82.69 0Z" id="p220w117" />
<path d="M403.88 500.41l13.45 0l0 16.6l-13.45 0Z" id="p220w118" />
<path d="M420.63 500.41l63.01 0l0 16.6l-63.01 0Z" id="p220w119" />
<path d="M486.94 500.41l44.65 0l0 16.6l-44.65 0Z" id="p220w120" />
<path d="M549.6 500.52l14.82 0l0 16.47l-14.82 0Z" id="p220w121" />
<path d="M567.72 500.52l62.41 0l0 16.47l-62.41 0Z" id="p220w122" />
<path d="M633.43 500.52l46.44 0l0 16.47l-46.44 0Z" id="p220w123" />
<path d="M110.26 536.05l13.45 0l0 16.6l-13.45 0Z" id="p220w124" />
<path d="M127.01 536.05l66 0l0 16.6l-66 0Z" id="p220w125" />
<path d="M196.3 536.05l50.12 0l0 16.6l-50.12 0Z" id="p220w126" />
<path d="M257.06 536.15l14.82 0l0 16.47l-14.82 0Z" id="p220w127" />
<path d="M275.18 536.15l56.28 0l0 16.47l-56.28 0Z" id="p220w128" />
<path d="M334.76 536.15l40.31 0l0 16.47l-40.31 0Z" id="p220w129" />
<path d="M403.86 536.05l13.45 0l0 16.6l-13.45 0Z" id="p220w130" />
<path d="M420.61 536.05l55.09 0l0 16.6l-55.09 0Z" id="p220w131" />
<path d="M479.01 536.05l31.14 0l0 16.6l-31.14 0Z" id="p220w132" />
<path d="M549.58 536.15l14.82 0l0 16.47l-14.82 0Z" id="p220w133" />
<path d="M567.71 536.15l49.44 0l0 16.47l-49.44 0Z" id="p220w134" />
<path d="M620.45 536.15l33.47 0l0 16.47l-33.47 0Z" id="p220w135" />
<path d="M110.24 557.81l13.45 0l0 16.6l-13.45 0Z" id="p220w136" />
<path d="M126.99 557.81l70.72 0l0 16.6l-70.72 0Z" id="p220w137" />
<path d="M201.02 557.81l48.96 0l0 16.6l-48.96 0Z" id="p220w138" />
<path d="M110.24 571.71l13.16 0l0 16.6l-13.16 0Z" id="p220w139" />
<path d="M126.7 571.71l30.2 0l0 16.6l-30.2 0Z" id="p220w140" />
<path d="M257.05 557.92l14.82 0l0 16.47l-14.82 0Z" id="p220w141" />
<path d="M275.17 557.92l78.13 0l0 16.47l-78.13 0Z" id="p220w142" />
<path d="M257.05 571.82l20.68 0l0 16.47l-20.68 0Z" id="p220w143" />
<path d="M281.03 571.82l82.84 0l0 16.47l-82.84 0Z" id="p220w144" />
<path d="M403.85 557.83l13.45 0l0 16.6l-13.45 0Z" id="p220w145" />
<path d="M420.6 557.83l64.23 0l0 16.6l-64.23 0Z" id="p220w146" />
<path d="M403.85 571.73l19.44 0l0 16.6l-19.44 0Z" id="p220w147" />
<path d="M426.59 571.73l59.71 0l0 16.6l-59.71 0Z" id="p220w148" />
<path d="M549.57 557.93l14.82 0l0 16.47l-14.82 0Z" id="p220w149" />
<path d="M567.69 557.93l58.34 0l0 16.47l-58.34 0Z" id="p220w150" />
<path d="M629.33 557.93l42.37 0l0 16.47l-42.37 0Z" id="p220w151" />
<path d="M110.23 593.49l13.45 0l0 16.6l-13.45 0Z" id="p220w152" />
<path d="M126.98 593.49l71.16 0l0 16.6l-71.16 0Z" id="p220w153" />
<path d="M201.44 593.49l47.2 0l0 16.6l-47.2 0Z" id="p220w154" />
<path d="M257.03 593.6l14.82 0l0 16.47l-14.82 0Z" id="p220w155" />
<path d="M275.16 593.6l53.39 0l0 16.47l-53.39 0Z" id="p220w156" />
<path d="M257.03 607.5l20.68 0l0 16.47l-20.68 0Z" id="p220w157" />
<path d="M281.02 607.5l58.1 0l0 16.47l-58.1 0Z" id="p220w158" />
<path d="M403.84 593.51l13.45 0l0 16.6l-13.45 0Z" id="p220w159" />
<path d="M420.59 593.51l44.48 0l0 16.6l-44.48 0Z" id="p220w160" />
<path d="M465.07 593.51l24.18 0l0 16.6l-24.18 0Z" id="p220w161" />
<path d="M403.84 607.4l19.44 0l0 16.6l-19.44 0Z" id="p220w162" />
<path d="M426.58 607.4l44.48 0l0 16.6l-44.48 0Z" id="p220w163" />
<path d="M471.06 607.4l19.67 0l0 16.6l-19.67 0Z" id="p220w164" />
<path d="M549.56 593.61l14.82 0l0 16.47l-14.82 0Z" id="p220w165" />
<path d="M567.68 593.61l89.97 0l0 16.47l-89.97 0Z" id="p220w166" />
<path d="M549.56 607.51l20.68 0l0 16.47l-20.68 0Z" id="p220w167" />
<path d="M573.54 607.51l94.68 0l0 16.47l-94.68 0Z" id="p220w168" />
<path d="M110.28 630.42l12.8 0l0 13.06l-12.8 0Z" id="p220w169" />
<path d="M125.95 630.42l63.35 0l0 13.06l-63.35 0Z" id="p220w170" />
<path d="M110.28 644.31l18.78 0l0 13.06l-18.78 0Z" id="p220w171" />
<path d="M131.92 644.31l60.33 0l0 13.06l-60.33 0Z" id="p220w172" />
<path d="M257.09 630.49l15.31 0l0 12.99l-15.31 0Z" id="p220w173" />
<path d="M275.26 630.49l47.48 0l0 12.99l-47.48 0Z" id="p220w174" />
<path d="M257.09 644.38l21.28 0l0 12.99l-21.28 0Z" id="p220w175" />
<path d="M281.24 644.38l52.38 0l0 12.99l-52.38 0Z" id="p220w176" />
<path d="M403.89 629.1l13.45 0l0 16.6l-13.45 0Z" id="p220w177" />
<path d="M420.64 629.1l64.7 0l0 16.6l-64.7 0Z" id="p220w178" />
<path d="M403.89 643l19.44 0l0 16.6l-19.44 0Z" id="p220w179" />
<path d="M426.63 643l62.38 0l0 16.6l-62.38 0Z" id="p220w180" />
<path d="M549.61 629.21l14.82 0l0 16.47l-14.82 0Z" id="p220w181" />
<path d="M567.73 629.21l63.09 0l0 16.47l-63.09 0Z" id="p220w182" />
<path d="M549.61 643.11l20.68 0l0 16.47l-20.68 0Z" id="p220w183" />
<path d="M573.59 643.11l67.8 0l0 16.47l-67.8 0Z" id="p220w184" />
<path d="M110.27 664.77l13.45 0l0 16.6l-13.45 0Z" id="p220w185" />
<path d="M127.02 664.77l60.4 0l0 16.6l-60.4 0Z" id="p220w186" />
<path d="M110.27 678.67l19.44 0l0 16.6l-19.44 0Z" id="p220w187" />
<path d="M133.01 678.67l58.08 0l0 16.6l-58.08 0Z" id="p220w188" />
<path d="M257.07 664.87l14.82 0l0 16.47l-14.82 0Z" id="p220w189" />
<path d="M275.2 664.87l47.57 0l0 16.47l-47.57 0Z" id="p220w190" />
<path d="M257.07 678.77l20.68 0l0 16.47l-20.68 0Z" id="p220w191" />
<path d="M281.06 678.77l52.28 0l0 16.47l-52.28 0Z" id="p220w192" />
<path d="M403.88 664.78l13.45 0l0 16.6l-13.45 0Z" id="p220w193" />
<path d="M420.63 664.78l61.93 0l0 16.6l-61.93 0Z" id="p220w194" />
<path d="M403.88 678.68l19.44 0l0 16.6l-19.44 0Z" id="p220w195" />
<path d="M426.62 678.68l57.42 0l0 16.6l-57.42 0Z" id="p220w196" />
<path d="M549.6 664.89l14.82 0l0 16.47l-14.82 0Z" id="p220w197" />
<path d="M567.72 664.89l46.29 0l0 16.47l-46.29 0Z" id="p220w198" />
<path d="M549.6 678.79l20.68 0l0 16.47l-20.68 0Z" id="p220w199" />
<path d="M573.58 678.79l51.4 0l0 16.47l-51.4 0Z" id="p220w200" />
<path d="M110.26 700.45l13.45 0l0 16.6l-13.45 0Z" id="p220w201" />
<path d="M127.01 700.45l16.92 0l0 16.6l-16.92 0Z" id="p220w202" />
<path d="M143.93 700.45l33.24 0l0 16.6l-33.24 0Z" id="p220w203" />
<path d="M110.26 714.34l19.44 0l0 16.6l-19.44 0Z" id="p220w204" />
<path d="M133 714.34l16.92 0l0 16.6l-16.92 0Z" id="p220w205" />
<path d="M149.92 714.34l34.32 0l0 16.6l-34.32 0Z" id="p220w206" />
<path d="M257.06 700.55l14.82 0l0 16.47l-14.82 0Z" id="p220w207" />
<path d="M275.18 700.55l55.27 0l0 16.47l-55.27 0Z" id="p220w208" />
<path d="M330.45 700.55l27.03 0l0 16.47l-27.03 0Z" id="p220w209" />
<path d="M257.06 714.45l20.68 0l0 16.47l-20.68 0Z" id="p220w210" />
<path d="M281.04 714.45l55.27 0l0 16.47l-55.27 0Z" id="p220w211" />
<path d="M336.31 714.45l31.74 0l0 16.47l-31.74 0Z" id="p220w212" />
<path d="M403.86 700.46l13.45 0l0 16.6l-13.45 0Z" id="p220w213" />
<path d="M420.61 700.46l70.64 0l0 16.6l-70.64 0Z" id="p220w214" />
<path d="M403.86 714.36l19.44 0l0 16.6l-19.44 0Z" id="p220w215" />
<path d="M426.61 714.36l68.32 0l0 16.6l-68.32 0Z" id="p220w216" />
<path d="M549.58 700.56l14.82 0l0 16.47l-14.82 0Z" id="p220w217" />
<path d="M567.71 700.56l46.59 0l0 16.47l-46.59 0Z" id="p220w218" />
<path d="M614.3 700.56l27.03 0l0 16.47l-27.03 0Z" id="p220w219" />
<path d="M549.58 714.46l20.68 0l0 16.47l-20.68 0Z" id="p220w220" />
<path d="M573.57 714.46l46.59 0l0 16.47l-46.59 0Z" id="p220w221" />
<path d="M620.16 714.46l31.74 0l0 16.47l-31.74 0Z" id="p220w222" />
<path d="M110.24 736.12l13.45 0l0 16.6l-13.45 0Z" id="p220w223" />
<path d="M126.99 736.12l53.93 0l0 16.6l-53.93 0Z" id="p220w224" />
<path d="M110.24 750.02l19.44 0l0 16.6l-19.44 0Z" id="p220w225" />
<path d="M132.99 750.02l55.01 0l0 16.6l-55.01 0Z" id="p220w226" />
<path d="M257.05 736.23l14.82 0l0 16.47l-14.82 0Z" id="p220w227" />
<path d="M275.17 736.23l51.56 0l0 16.47l-51.56 0Z" id="p220w228" />
<path d="M257.05 750.13l20.68 0l0 16.47l-20.68 0Z" id="p220w229" />
<path d="M281.03 750.13l56.27 0l0 16.47l-56.27 0Z" id="p220w230" />
<path d="M403.85 736.14l13.45 0l0 16.6l-13.45 0Z" id="p220w231" />
<path d="M420.6 736.14l65.15 0l0 16.6l-65.15 0Z" id="p220w232" />
<path d="M403.85 750.04l19.44 0l0 16.6l-19.44 0Z" id="p220w233" />
<path d="M426.59 750.04l60.64 0l0 16.6l-60.64 0Z" id="p220w234" />
<path d="M549.57 736.24l14.82 0l0 16.47l-14.82 0Z" id="p220w235" />
<path d="M567.69 736.24l69.1 0l0 16.47l-69.1 0Z" id="p220w236" />
<path d="M549.57 750.14l20.68 0l0 16.47l-20.68 0Z" id="p220w237" />
<path d="M573.55 750.14l73.81 0l0 16.47l-73.81 0Z" id="p220w238" />
<path d="M110.28 773.04l12.8 0l0 13.06l-12.8 0Z" id="p220w239" />
<path d="M125.95 773.04l32 0l0 13.06l-32 0Z" id="p220w240" />
<path d="M160.82 773.04l12.41 0l0 13.06l-12.41 0Z" id="p220w241" />
<path d="M176.11 773.04l25.12 0l0 13.06l-25.12 0Z" id="p220w242" />
<path d="M110.28 786.93l18.78 0l0 13.06l-18.78 0Z" id="p220w243" />
<path d="M131.92 786.93l38.97 0l0 13.06l-38.97 0Z" id="p220w244" />
<path d="M173.77 786.93l12.41 0l0 13.06l-12.41 0Z" id="p220w245" />
<path d="M189.05 786.93l20.55 0l0 13.06l-20.55 0Z" id="p220w246" />
<path d="M257.09 773.11l15.31 0l0 12.99l-15.31 0Z" id="p220w247" />
<path d="M275.26 773.11l74.26 0l0 12.99l-74.26 0Z" id="p220w248" />
<path d="M257.09 787l21.28 0l0 12.99l-21.28 0Z" id="p220w249" />
<path d="M281.24 787l79.16 0l0 12.99l-79.16 0Z" id="p220w250" />
<path d="M403.89 771.73l13.45 0l0 16.6l-13.45 0Z" id="p220w251" />
<path d="M420.64 771.73l64.76 0l0 16.6l-64.76 0Z" id="p220w252" />
<path d="M403.89 785.63l19.44 0l0 16.6l-19.44 0Z" id="p220w253" />
<path d="M426.63 785.63l62.43 0l0 16.6l-62.43 0Z" id="p220w254" />
<path d="M549.61 771.83l14.82 0l0 16.47l-14.82 0Z" id="p220w255" />
<path d="M567.73 771.83l56.59 0l0 16.47l-56.59 0Z" id="p220w256" />
<path d="M549.61 785.73l20.68 0l0 16.47l-20.68 0Z" id="p220w257" />
<path d="M573.59 785.73l61.3 0l0 16.47l-61.3 0Z" id="p220w258" />
<path d="M110.28 808.7l12.8 0l0 13.06l-12.8 0Z" id="p220w259" />
<path d="M125.95 808.7l57.99 0l0 13.06l-57.99 0Z" id="p220w260" />
<path d="M110.28 822.59l18.78 0l0 13.06l-18.78 0Z" id="p220w261" />
<path d="M131.92 822.59l53.42 0l0 13.06l-53.42 0Z" id="p220w262" />
<path d="M257.09 808.77l15.31 0l0 12.99l-15.31 0Z" id="p220w263" />
<path d="M275.26 808.77l57.53 0l0 12.99l-57.53 0Z" id="p220w264" />
<path d="M257.09 822.66l21.28 0l0 12.99l-21.28 0Z" id="p220w265" />
<path d="M281.24 822.66l56.45 0l0 12.99l-56.45 0Z" id="p220w266" />
<path d="M127.75 381.73l28.62 0l0 15.7l-28.62 0Z" id="p220w267" />
<path d="M159.75 381.73l30.34 0l0 15.7l-30.34 0Z" id="p220w268" />
<path d="M193.47 381.73l70.23 0l0 15.7l-70.23 0Z" id="p220w269" />
</svg>
