<?xml version="1.0" encoding="UTF-8"?>
<svg xmlns="http://www.w3.org/2000/svg" xmlns:xlink="http://www.w3.org/1999/xlink" version="1.1" baseProfile="full" width="768" height="1024" viewBox="0,0,768,1024" preserveAspectRatio="xMinYMin meet" >
<style type="text/css">
<![CDATA[
path {fill-opacity: 0.5;fill: #00aeef;visibility: hidden;}
]]>
</style>
<path d="M76.9 983.66l117.82 0l0 12.23l-117.82 0Z" id="p264w1" />
<path d="M124.06 38.6l77.83 0l0 16.09l-77.83 0Z" id="p264w2" />
<path d="M124.06 112.51l14.41 0l0 12.23l-14.41 0Z" id="p264w3" />
<path d="M141.17 112.45l23.84 0l0 12.29l-23.84 0Z" id="p264w4" />
<path d="M167.71 112.51l8.33 0l0 12.23l-8.33 0Z" id="p264w5" />
<path d="M178.74 112.51l32.41 0l0 12.23l-32.41 0Z" id="p264w6" />
<path d="M213.85 112.26l19.58 0l0 12.56l-19.58 0Z" id="p264w7" />
<path d="M124.06 127.79l14.41 0l0 12.23l-14.41 0Z" id="p264w8" />
<path d="M141.17 127.74l36.74 0l0 12.29l-36.74 0Z" id="p264w9" />
<path d="M180.6 127.79l8.33 0l0 12.23l-8.33 0Z" id="p264w10" />
<path d="M191.63 127.79l18.7 0l0 12.23l-18.7 0Z" id="p264w11" />
<path d="M213.03 127.55l15.34 0l0 12.56l-15.34 0Z" id="p264w12" />
<path d="M133.91 143.08l24.75 0l0 12.23l-24.75 0Z" id="p264w13" />
<path d="M161.36 143.08l36.46 0l0 12.23l-36.46 0Z" id="p264w14" />
<path d="M200.52 143.08l41.14 0l0 12.23l-41.14 0Z" id="p264w15" />
<path d="M244.36 143.08l20.49 0l0 12.23l-20.49 0Z" id="p264w16" />
<path d="M267.55 143.08l24.31 0l0 12.23l-24.31 0Z" id="p264w17" />
<path d="M133.91 158.36l25.22 0l0 12.23l-25.22 0Z" id="p264w18" />
<path d="M161.83 158.36l15.76 0l0 12.23l-15.76 0Z" id="p264w19" />
<path d="M180.29 158.11l15.34 0l0 12.56l-15.34 0Z" id="p264w20" />
<path d="M124.06 173.64l20.03 0l0 12.23l-20.03 0Z" id="p264w21" />
<path d="M146.79 173.59l49.04 0l0 12.29l-49.04 0Z" id="p264w22" />
<path d="M198.53 173.64l17.56 0l0 12.23l-17.56 0Z" id="p264w23" />
<path d="M218.8 173.64l45.92 0l0 12.23l-45.92 0Z" id="p264w24" />
<path d="M267.41 173.4l15.54 0l0 12.56l-15.54 0Z" id="p264w25" />
<path d="M124.06 188.93l17.33 0l0 12.23l-17.33 0Z" id="p264w26" />
<path d="M144.09 188.93l11.25 0l0 12.23l-11.25 0Z" id="p264w27" />
<path d="M158.04 188.87l71.88 0l0 12.29l-71.88 0Z" id="p264w28" />
<path d="M234.88 188.9l25.65 0l0 12.23l-25.65 0Z" id="p264w29" />
<path d="M263.24 188.93l22.05 0l0 12.23l-22.05 0Z" id="p264w30" />
<path d="M133.91 204.21l27.48 0l0 12.23l-27.48 0Z" id="p264w31" />
<path d="M164.09 204.19l27.91 0l0 12.23l-27.91 0Z" id="p264w32" />
<path d="M194.7 203.96l18.92 0l0 12.56l-18.92 0Z" id="p264w33" />
<path d="M124.06 219.49l14.41 0l0 12.23l-14.41 0Z" id="p264w34" />
<path d="M141.17 219.44l54.45 0l0 12.29l-54.45 0Z" id="p264w35" />
<path d="M198.32 219.49l17.56 0l0 12.23l-17.56 0Z" id="p264w36" />
<path d="M218.59 219.49l31.97 0l0 12.23l-31.97 0Z" id="p264w37" />
<path d="M253.25 219.25l18.92 0l0 12.56l-18.92 0Z" id="p264w38" />
<path d="M124.06 234.78l14.41 0l0 12.23l-14.41 0Z" id="p264w39" />
<path d="M141.17 234.72l49.27 0l0 12.29l-49.27 0Z" id="p264w40" />
<path d="M193.14 234.78l11.94 0l0 12.23l-11.94 0Z" id="p264w41" />
<path d="M207.78 234.78l26.72 0l0 12.23l-26.72 0Z" id="p264w42" />
<path d="M237.2 234.53l15.54 0l0 12.56l-15.54 0Z" id="p264w43" />
<path d="M124.06 250.06l20.03 0l0 12.23l-20.03 0Z" id="p264w44" />
<path d="M146.79 250l24.6 0l0 12.29l-24.6 0Z" id="p264w45" />
<path d="M174.09 250.06l11.94 0l0 12.23l-11.94 0Z" id="p264w46" />
<path d="M188.73 250.06l39.39 0l0 12.23l-39.39 0Z" id="p264w47" />
<path d="M230.82 249.81l18.92 0l0 12.56l-18.92 0Z" id="p264w48" />
<path d="M124.06 265.34l14.41 0l0 12.23l-14.41 0Z" id="p264w49" />
<path d="M141.17 265.29l31.46 0l0 12.29l-31.46 0Z" id="p264w50" />
<path d="M175.32 265.34l17.56 0l0 12.23l-17.56 0Z" id="p264w51" />
<path d="M195.59 265.34l26.05 0l0 12.23l-26.05 0Z" id="p264w52" />
<path d="M224.34 265.1l14.63 0l0 12.56l-14.63 0Z" id="p264w53" />
<path d="M124.06 280.63l20.03 0l0 12.23l-20.03 0Z" id="p264w54" />
<path d="M146.79 280.57l31.3 0l0 12.29l-31.3 0Z" id="p264w55" />
<path d="M180.79 280.63l17.56 0l0 12.23l-17.56 0Z" id="p264w56" />
<path d="M201.06 280.63l15.31 0l0 12.23l-15.31 0Z" id="p264w57" />
<path d="M219.06 280.38l14.79 0l0 12.56l-14.79 0Z" id="p264w58" />
<path d="M249.36 280.63l17.56 0l0 12.23l-17.56 0Z" id="p264w59" />
<path d="M269.63 280.63l24.76 0l0 12.23l-24.76 0Z" id="p264w60" />
<path d="M133.91 295.66l17.26 0l0 12.56l-17.26 0Z" id="p264w61" />
<path d="M124.06 311.19l19.44 0l0 12.23l-19.44 0Z" id="p264w62" />
<path d="M146.2 311.14l44.83 0l0 12.29l-44.83 0Z" id="p264w63" />
<path d="M193.73 311.19l40.23 0l0 12.23l-40.23 0Z" id="p264w64" />
<path d="M236.66 311.19l11.04 0l0 12.23l-11.04 0Z" id="p264w65" />
<path d="M250.4 311.19l11.7 0l0 12.23l-11.7 0Z" id="p264w66" />
<path d="M264.8 311.19l28.81 0l0 12.23l-28.81 0Z" id="p264w67" />
<path d="M133.91 326.23l18.01 0l0 12.56l-18.01 0Z" id="p264w68" />
<path d="M124.06 341.76l20.03 0l0 12.23l-20.03 0Z" id="p264w69" />
<path d="M146.79 341.7l35.11 0l0 12.29l-35.11 0Z" id="p264w70" />
<path d="M184.61 341.76l11.94 0l0 12.23l-11.94 0Z" id="p264w71" />
<path d="M199.24 341.76l24.97 0l0 12.23l-24.97 0Z" id="p264w72" />
<path d="M226.92 341.52l15.54 0l0 12.56l-15.54 0Z" id="p264w73" />
<path d="M124.06 357.04l14.41 0l0 12.23l-14.41 0Z" id="p264w74" />
<path d="M141.17 356.99l25.99 0l0 12.29l-25.99 0Z" id="p264w75" />
<path d="M169.86 357.04l17.56 0l0 12.23l-17.56 0Z" id="p264w76" />
<path d="M190.12 357.04l34.89 0l0 12.23l-34.89 0Z" id="p264w77" />
<path d="M227.71 356.8l18.72 0l0 12.56l-18.72 0Z" id="p264w78" />
<path d="M124.06 372.33l14.19 0l0 12.23l-14.19 0Z" id="p264w79" />
<path d="M140.96 372.33l23.41 0l0 12.23l-23.41 0Z" id="p264w80" />
<path d="M167.07 372.27l28.9 0l0 12.29l-28.9 0Z" id="p264w81" />
<path d="M200.92 372.33l22.05 0l0 12.23l-22.05 0Z" id="p264w82" />
<path d="M225.68 372.33l8.33 0l0 12.23l-8.33 0Z" id="p264w83" />
<path d="M236.7 372.33l29.7 0l0 12.23l-29.7 0Z" id="p264w84" />
<path d="M269.1 372.08l19.58 0l0 12.56l-19.58 0Z" id="p264w85" />
<path d="M124.06 387.61l16.9 0l0 12.23l-16.9 0Z" id="p264w86" />
<path d="M143.66 387.55l39.6 0l0 12.29l-39.6 0Z" id="p264w87" />
<path d="M185.96 387.61l36.89 0l0 12.23l-36.89 0Z" id="p264w88" />
<path d="M225.55 387.61l12.16 0l0 12.23l-12.16 0Z" id="p264w89" />
<path d="M240.42 387.37l15.54 0l0 12.56l-15.54 0Z" id="p264w90" />
<path d="M124.06 402.84l36.59 0l0 12.29l-36.59 0Z" id="p264w91" />
<path d="M163.35 402.89l95.74 0l0 12.23l-95.74 0Z" id="p264w92" />
<path d="M261.79 402.65l18.72 0l0 12.56l-18.72 0Z" id="p264w93" />
<path d="M124.06 418.18l15.53 0l0 12.23l-15.53 0Z" id="p264w94" />
<path d="M142.29 418.12l28.71 0l0 12.29l-28.71 0Z" id="p264w95" />
<path d="M173.7 418.18l50.64 0l0 12.23l-50.64 0Z" id="p264w96" />
<path d="M242.05 417.93l19.58 0l0 12.56l-19.58 0Z" id="p264w97" />
<path d="M124.06 433.46l14.41 0l0 12.23l-14.41 0Z" id="p264w98" />
<path d="M141.17 433.4l28.71 0l0 12.29l-28.71 0Z" id="p264w99" />
<path d="M172.58 433.46l11.94 0l0 12.23l-11.94 0Z" id="p264w100" />
<path d="M187.22 433.46l6.3 0l0 12.23l-6.3 0Z" id="p264w101" />
<path d="M193.52 433.46l22.29 0l0 12.23l-22.29 0Z" id="p264w102" />
<path d="M218.51 433.22l18.01 0l0 12.56l-18.01 0Z" id="p264w103" />
<path d="M124.06 448.74l14.41 0l0 12.23l-14.41 0Z" id="p264w104" />
<path d="M141.17 448.69l26.01 0l0 12.29l-26.01 0Z" id="p264w105" />
<path d="M171.35 448.69l31.63 0l0 12.29l-31.63 0Z" id="p264w106" />
<path d="M205.68 448.74l11.94 0l0 12.23l-11.94 0Z" id="p264w107" />
<path d="M220.32 448.74l61.57 0l0 12.23l-61.57 0Z" id="p264w108" />
<path d="M133.91 464.03l45.93 0l0 12.23l-45.93 0Z" id="p264w109" />
<path d="M182.54 464.03l18.91 0l0 12.23l-18.91 0Z" id="p264w110" />
<path d="M204.15 463.78l14.63 0l0 12.56l-14.63 0Z" id="p264w111" />
<path d="M124.06 479.31l14.41 0l0 12.23l-14.41 0Z" id="p264w112" />
<path d="M141.17 479.25l37.46 0l0 12.29l-37.46 0Z" id="p264w113" />
<path d="M178.63 479.31l24.2 0l0 12.23l-24.2 0Z" id="p264w114" />
<path d="M205.52 479.25l46.35 0l0 12.29l-46.35 0Z" id="p264w115" />
<path d="M254.58 479.31l11.94 0l0 12.23l-11.94 0Z" id="p264w116" />
<path d="M133.91 494.59l61.34 0l0 12.23l-61.34 0Z" id="p264w117" />
<path d="M197.96 494.59l45.24 0l0 12.23l-45.24 0Z" id="p264w118" />
<path d="M245.9 494.35l18.92 0l0 12.56l-18.92 0Z" id="p264w119" />
<path d="M124.06 509.88l19.44 0l0 12.23l-19.44 0Z" id="p264w120" />
<path d="M146.2 509.82l44.77 0l0 12.29l-44.77 0Z" id="p264w121" />
<path d="M193.68 509.88l33.53 0l0 12.23l-33.53 0Z" id="p264w122" />
<path d="M229.91 509.88l11.04 0l0 12.23l-11.04 0Z" id="p264w123" />
<path d="M243.65 509.63l18.92 0l0 12.56l-18.92 0Z" id="p264w124" />
<path d="M124.06 525.11l44.77 0l0 12.29l-44.77 0Z" id="p264w125" />
<path d="M171.53 525.16l21.37 0l0 12.23l-21.37 0Z" id="p264w126" />
<path d="M195.61 525.16l15.07 0l0 12.23l-15.07 0Z" id="p264w127" />
<path d="M213.38 525.16l31.73 0l0 12.23l-31.73 0Z" id="p264w128" />
<path d="M247.82 524.92l18.92 0l0 12.56l-18.92 0Z" id="p264w129" />
<path d="M124.06 540.44l14.41 0l0 12.23l-14.41 0Z" id="p264w130" />
<path d="M141.17 540.39l30.47 0l0 12.29l-30.47 0Z" id="p264w131" />
<path d="M174.34 540.44l11.94 0l0 12.23l-11.94 0Z" id="p264w132" />
<path d="M188.97 540.44l29.04 0l0 12.23l-29.04 0Z" id="p264w133" />
<path d="M220.72 540.2l18.92 0l0 12.56l-18.92 0Z" id="p264w134" />
<path d="M124.06 555.73l16.43 0l0 12.23l-16.43 0Z" id="p264w135" />
<path d="M143.19 555.67l39.85 0l0 12.29l-39.85 0Z" id="p264w136" />
<path d="M185.74 555.73l13.05 0l0 12.23l-13.05 0Z" id="p264w137" />
<path d="M201.49 555.73l31.73 0l0 12.23l-31.73 0Z" id="p264w138" />
<path d="M249.21 555.71l14.18 0l0 12.23l-14.18 0Z" id="p264w139" />
<path d="M266.09 555.48l18.92 0l0 12.56l-18.92 0Z" id="p264w140" />
<path d="M124.06 571.01l20.03 0l0 12.23l-20.03 0Z" id="p264w141" />
<path d="M146.79 570.96l25.08 0l0 12.29l-25.08 0Z" id="p264w142" />
<path d="M174.57 571.01l17.56 0l0 12.23l-17.56 0Z" id="p264w143" />
<path d="M194.83 571.01l35.34 0l0 12.23l-35.34 0Z" id="p264w144" />
<path d="M232.87 570.77l18.17 0l0 12.56l-18.17 0Z" id="p264w145" />
<path d="M124.06 586.29l14.41 0l0 12.23l-14.41 0Z" id="p264w146" />
<path d="M141.17 586.24l24.64 0l0 12.29l-24.64 0Z" id="p264w147" />
<path d="M168.51 586.29l17.56 0l0 12.23l-17.56 0Z" id="p264w148" />
<path d="M188.77 586.29l29.71 0l0 12.23l-29.71 0Z" id="p264w149" />
<path d="M221.19 586.05l15.54 0l0 12.56l-15.54 0Z" id="p264w150" />
<path d="M124.06 601.58l20.03 0l0 12.23l-20.03 0Z" id="p264w151" />
<path d="M146.79 601.52l33.51 0l0 12.29l-33.51 0Z" id="p264w152" />
<path d="M183.01 601.58l17.56 0l0 12.23l-17.56 0Z" id="p264w153" />
<path d="M203.27 601.58l27.01 0l0 12.23l-27.01 0Z" id="p264w154" />
<path d="M232.98 601.33l15.54 0l0 12.56l-15.54 0Z" id="p264w155" />
<path d="M133.91 616.86l20.03 0l0 12.23l-20.03 0Z" id="p264w156" />
<path d="M156.64 616.86l26.11 0l0 12.23l-26.11 0Z" id="p264w157" />
<path d="M185.45 616.86l33.32 0l0 12.23l-33.32 0Z" id="p264w158" />
<path d="M221.48 616.86l17.56 0l0 12.23l-17.56 0Z" id="p264w159" />
<path d="M241.74 616.86l53.72 0l0 12.23l-53.72 0Z" id="p264w160" />
<path d="M133.91 631.9l15.54 0l0 12.56l-15.54 0Z" id="p264w161" />
<path d="M124.06 647.43l14.41 0l0 12.23l-14.41 0Z" id="p264w162" />
<path d="M141.17 647.37l60.18 0l0 12.29l-60.18 0Z" id="p264w163" />
<path d="M204.05 647.43l11.94 0l0 12.23l-11.94 0Z" id="p264w164" />
<path d="M218.69 647.43l32.19 0l0 12.23l-32.19 0Z" id="p264w165" />
<path d="M253.58 647.43l11.94 0l0 12.23l-11.94 0Z" id="p264w166" />
<path d="M268.21 647.43l29.48 0l0 12.23l-29.48 0Z" id="p264w167" />
<path d="M133.91 662.47l15.54 0l0 12.56l-15.54 0Z" id="p264w168" />
<path d="M124.06 677.99l40.5 0l0 12.23l-40.5 0Z" id="p264w169" />
<path d="M167.27 677.94l33.2 0l0 12.29l-33.2 0Z" id="p264w170" />
<path d="M203.17 677.99l40.97 0l0 12.23l-40.97 0Z" id="p264w171" />
<path d="M246.84 677.99l27.37 0l0 12.23l-27.37 0Z" id="p264w172" />
<path d="M276.91 677.75l15.54 0l0 12.56l-15.54 0Z" id="p264w173" />
<path d="M124.06 693.22l34.13 0l0 12.29l-34.13 0Z" id="p264w174" />
<path d="M160.9 693.28l26.34 0l0 12.23l-26.34 0Z" id="p264w175" />
<path d="M189.94 693.28l23.04 0l0 12.23l-23.04 0Z" id="p264w176" />
<path d="M215.68 693.28l25 0l0 12.23l-25 0Z" id="p264w177" />
<path d="M255.31 693.28l14.64 0l0 12.23l-14.64 0Z" id="p264w178" />
<path d="M272.65 693.03l18.01 0l0 12.56l-18.01 0Z" id="p264w179" />
<path d="M124.06 708.56l15.53 0l0 12.23l-15.53 0Z" id="p264w180" />
<path d="M142.29 708.51l29.57 0l0 12.29l-29.57 0Z" id="p264w181" />
<path d="M174.56 708.56l8.33 0l0 12.23l-8.33 0Z" id="p264w182" />
<path d="M185.58 708.56l16.66 0l0 12.23l-16.66 0Z" id="p264w183" />
<path d="M204.95 708.32l17.26 0l0 12.56l-17.26 0Z" id="p264w184" />
<path d="M124.06 723.84l33.1 0l0 12.23l-33.1 0Z" id="p264w185" />
<path d="M159.86 723.84l17.12 0l0 12.23l-17.12 0Z" id="p264w186" />
<path d="M179.68 723.84l11.48 0l0 12.23l-11.48 0Z" id="p264w187" />
<path d="M193.87 723.84l16.66 0l0 12.23l-16.66 0Z" id="p264w188" />
<path d="M213.23 723.84l11.7 0l0 12.23l-11.7 0Z" id="p264w189" />
<path d="M227.63 723.6l17.26 0l0 12.56l-17.26 0Z" id="p264w190" />
<path d="M124.06 739.07l26.39 0l0 12.29l-26.39 0Z" id="p264w191" />
<path d="M153.15 739.13l26.11 0l0 12.23l-26.11 0Z" id="p264w192" />
<path d="M181.96 739.11l21.86 0l0 12.23l-21.86 0Z" id="p264w193" />
<path d="M206.53 738.88l13.88 0l0 12.56l-13.88 0Z" id="p264w194" />
<path d="M225.55 739.13l27.24 0l0 12.23l-27.24 0Z" id="p264w195" />
<path d="M255.5 739.11l27.91 0l0 12.23l-27.91 0Z" id="p264w196" />
<path d="M133.91 754.17l15.34 0l0 12.56l-15.34 0Z" id="p264w197" />
<path d="M164.75 754.41l67.3 0l0 12.23l-67.3 0Z" id="p264w198" />
<path d="M234.76 754.17l18.17 0l0 12.56l-18.17 0Z" id="p264w199" />
<path d="M268.44 754.41l15.76 0l0 12.23l-15.76 0Z" id="p264w200" />
<path d="M133.91 769.45l18.17 0l0 12.56l-18.17 0Z" id="p264w201" />
<path d="M124.06 784.98l14.41 0l0 12.23l-14.41 0Z" id="p264w202" />
<path d="M141.17 784.92l55.78 0l0 12.29l-55.78 0Z" id="p264w203" />
<path d="M199.65 784.98l11.94 0l0 12.23l-11.94 0Z" id="p264w204" />
<path d="M214.28 784.98l61.44 0l0 12.23l-61.44 0Z" id="p264w205" />
<path d="M278.43 784.73l15.54 0l0 12.56l-15.54 0Z" id="p264w206" />
<path d="M124.06 800.26l20.03 0l0 12.23l-20.03 0Z" id="p264w207" />
<path d="M146.79 800.21l29.54 0l0 12.29l-29.54 0Z" id="p264w208" />
<path d="M179.04 800.26l17.56 0l0 12.23l-17.56 0Z" id="p264w209" />
<path d="M199.3 800.26l28.14 0l0 12.23l-28.14 0Z" id="p264w210" />
<path d="M230.15 800.02l18.92 0l0 12.56l-18.92 0Z" id="p264w211" />
<path d="M124.06 815.55l14.41 0l0 12.23l-14.41 0Z" id="p264w212" />
<path d="M141.17 815.49l34.9 0l0 12.29l-34.9 0Z" id="p264w213" />
<path d="M178.77 815.55l11.94 0l0 12.23l-11.94 0Z" id="p264w214" />
<path d="M193.41 815.55l39.17 0l0 12.23l-39.17 0Z" id="p264w215" />
<path d="M235.28 815.3l18.01 0l0 12.56l-18.01 0Z" id="p264w216" />
<path d="M124.06 830.83l20.03 0l0 12.23l-20.03 0Z" id="p264w217" />
<path d="M146.79 830.77l27.95 0l0 12.29l-27.95 0Z" id="p264w218" />
<path d="M177.45 830.83l17.56 0l0 12.23l-17.56 0Z" id="p264w219" />
<path d="M197.71 830.83l27.01 0l0 12.23l-27.01 0Z" id="p264w220" />
<path d="M227.42 830.58l15.54 0l0 12.56l-15.54 0Z" id="p264w221" />
<path d="M124.06 884.27l37.57 0l0 12.29l-37.57 0Z" id="p264w222" />
<path d="M164.33 884.32l72.35 0l0 12.23l-72.35 0Z" id="p264w223" />
<path d="M239.38 884.08l18.92 0l0 12.56l-18.92 0Z" id="p264w224" />
<path d="M124.06 899.6l20.03 0l0 12.23l-20.03 0Z" id="p264w225" />
<path d="M146.79 899.55l22.41 0l0 12.29l-22.41 0Z" id="p264w226" />
<path d="M173.37 899.55l28.49 0l0 12.29l-28.49 0Z" id="p264w227" />
<path d="M204.56 899.6l11.94 0l0 12.23l-11.94 0Z" id="p264w228" />
<path d="M219.2 899.6l55.93 0l0 12.23l-55.93 0Z" id="p264w229" />
<path d="M133.91 914.89l40.29 0l0 12.23l-40.29 0Z" id="p264w230" />
<path d="M176.9 914.64l18.92 0l0 12.56l-18.92 0Z" id="p264w231" />
<path d="M335.43 112.5l20.03 0l0 12.23l-20.03 0Z" id="p264w232" />
<path d="M357.86 112.5l21.84 0l0 12.23l-21.84 0Z" id="p264w233" />
<path d="M382.4 112.5l53.82 0l0 12.23l-53.82 0Z" id="p264w234" />
<path d="M438.92 112.5l17.56 0l0 12.23l-17.56 0Z" id="p264w235" />
<path d="M459.19 112.5l37.12 0l0 12.23l-37.12 0Z" id="p264w236" />
<path d="M335.43 127.79l11.7 0l0 12.23l-11.7 0Z" id="p264w237" />
<path d="M349.83 127.79l39.86 0l0 12.23l-39.86 0Z" id="p264w238" />
<path d="M392.39 127.54l15.54 0l0 12.56l-15.54 0Z" id="p264w239" />
<path d="M325.58 143.07l14.41 0l0 12.23l-14.41 0Z" id="p264w240" />
<path d="M342.69 143.01l16.15 0l0 12.29l-16.15 0Z" id="p264w241" />
<path d="M361.54 143.07l17.56 0l0 12.23l-17.56 0Z" id="p264w242" />
<path d="M381.8 143.07l35.35 0l0 12.23l-35.35 0Z" id="p264w243" />
<path d="M419.85 142.83l15.54 0l0 12.56l-15.54 0Z" id="p264w244" />
<path d="M449.85 143.07l11.94 0l0 12.23l-11.94 0Z" id="p264w245" />
<path d="M464.49 143.07l18.02 0l0 12.23l-18.02 0Z" id="p264w246" />
<path d="M335.43 158.11l15.54 0l0 12.56l-15.54 0Z" id="p264w247" />
<path d="M335.43 173.64l14.85 0l0 12.23l-14.85 0Z" id="p264w248" />
<path d="M352.98 173.64l47.67 0l0 12.23l-47.67 0Z" id="p264w249" />
<path d="M403.05 173.64l15.94 0l0 12.23l-15.94 0Z" id="p264w250" />
<path d="M421.69 173.64l8.33 0l0 12.23l-8.33 0Z" id="p264w251" />
<path d="M432.72 173.64l49.74 0l0 12.23l-49.74 0Z" id="p264w252" />
<path d="M335.43 188.68l18.92 0l0 12.56l-18.92 0Z" id="p264w253" />
<path d="M335.43 204.2l28.37 0l0 12.23l-28.37 0Z" id="p264w254" />
<path d="M366.2 204.2l19.1 0l0 12.23l-19.1 0Z" id="p264w255" />
<path d="M387.99 204.2l36.71 0l0 12.23l-36.71 0Z" id="p264w256" />
<path d="M433.26 203.96l13.88 0l0 12.56l-13.88 0Z" id="p264w257" />
<path d="M335.43 219.49l8.78 0l0 12.23l-8.78 0Z" id="p264w258" />
<path d="M346.91 219.49l39.85 0l0 12.23l-39.85 0Z" id="p264w259" />
<path d="M389.16 219.49l27.64 0l0 12.23l-27.64 0Z" id="p264w260" />
<path d="M419.5 219.49l22.51 0l0 12.23l-22.51 0Z" id="p264w261" />
<path d="M444.71 219.49l31.3 0l0 12.23l-31.3 0Z" id="p264w262" />
<path d="M478.71 219.49l22.74 0l0 12.23l-22.74 0Z" id="p264w263" />
<path d="M335.43 234.53l19.58 0l0 12.56l-19.58 0Z" id="p264w264" />
<path d="M325.58 250.05l16.43 0l0 12.23l-16.43 0Z" id="p264w265" />
<path d="M344.71 250l77.05 0l0 12.29l-77.05 0Z" id="p264w266" />
<path d="M424.46 250.05l45.09 0l0 12.23l-45.09 0Z" id="p264w267" />
<path d="M487.26 249.81l18.01 0l0 12.56l-18.01 0Z" id="p264w268" />
<path d="M325.58 265.34l16.43 0l0 12.23l-16.43 0Z" id="p264w269" />
<path d="M344.71 265.28l46.87 0l0 12.29l-46.87 0Z" id="p264w270" />
<path d="M394.28 265.34l8.33 0l0 12.23l-8.33 0Z" id="p264w271" />
<path d="M405.31 265.34l18.02 0l0 12.23l-18.02 0Z" id="p264w272" />
<path d="M426.03 265.09l18.17 0l0 12.56l-18.17 0Z" id="p264w273" />
<path d="M325.58 280.62l14.41 0l0 12.23l-14.41 0Z" id="p264w274" />
<path d="M342.69 280.56l44.75 0l0 12.29l-44.75 0Z" id="p264w275" />
<path d="M390.14 280.62l17.56 0l0 12.23l-17.56 0Z" id="p264w276" />
<path d="M410.4 280.62l42.48 0l0 12.23l-42.48 0Z" id="p264w277" />
<path d="M455.58 280.38l18.92 0l0 12.56l-18.92 0Z" id="p264w278" />
<path d="M325.58 295.85l32.16 0l0 12.29l-32.16 0Z" id="p264w279" />
<path d="M360.44 295.9l31.96 0l0 12.23l-31.96 0Z" id="p264w280" />
<path d="M395.09 295.66l15.34 0l0 12.56l-15.34 0Z" id="p264w281" />
<path d="M325.58 311.19l20.03 0l0 12.23l-20.03 0Z" id="p264w282" />
<path d="M348.31 311.13l31.42 0l0 12.29l-31.42 0Z" id="p264w283" />
<path d="M382.43 311.19l11.94 0l0 12.23l-11.94 0Z" id="p264w284" />
<path d="M397.07 311.19l15.31 0l0 12.23l-15.31 0Z" id="p264w285" />
<path d="M415.08 310.94l14.79 0l0 12.56l-14.79 0Z" id="p264w286" />
<path d="M325.58 326.47l16.43 0l0 12.23l-16.43 0Z" id="p264w287" />
<path d="M344.71 326.42l57.88 0l0 12.29l-57.88 0Z" id="p264w288" />
<path d="M405.29 326.47l35.21 0l0 12.23l-35.21 0Z" id="p264w289" />
<path d="M464.35 326.47l11.7 0l0 12.23l-11.7 0Z" id="p264w290" />
<path d="M478.76 326.47l28.6 0l0 12.23l-28.6 0Z" id="p264w291" />
<path d="M335.43 341.51l14.43 0l0 12.56l-14.43 0Z" id="p264w292" />
<path d="M325.58 357.04l20.03 0l0 12.23l-20.03 0Z" id="p264w293" />
<path d="M348.31 356.98l25.56 0l0 12.29l-25.56 0Z" id="p264w294" />
<path d="M376.58 357.04l17.56 0l0 12.23l-17.56 0Z" id="p264w295" />
<path d="M396.84 357.04l24.52 0l0 12.23l-24.52 0Z" id="p264w296" />
<path d="M424.06 356.79l18.72 0l0 12.56l-18.72 0Z" id="p264w297" />
<path d="M325.58 372.32l20.03 0l0 12.23l-20.03 0Z" id="p264w298" />
<path d="M348.31 372.27l38.5 0l0 12.29l-38.5 0Z" id="p264w299" />
<path d="M389.52 372.32l11.94 0l0 12.23l-11.94 0Z" id="p264w300" />
<path d="M404.15 372.32l30.61 0l0 12.23l-30.61 0Z" id="p264w301" />
<path d="M437.47 372.08l18.92 0l0 12.56l-18.92 0Z" id="p264w302" />
<path d="M325.58 387.6l14.41 0l0 12.23l-14.41 0Z" id="p264w303" />
<path d="M342.69 387.55l25.15 0l0 12.29l-25.15 0Z" id="p264w304" />
<path d="M370.54 387.6l17.56 0l0 12.23l-17.56 0Z" id="p264w305" />
<path d="M390.8 387.6l31.97 0l0 12.23l-31.97 0Z" id="p264w306" />
<path d="M425.47 387.36l14.63 0l0 12.56l-14.63 0Z" id="p264w307" />
<path d="M325.58 402.83l32.88 0l0 12.29l-32.88 0Z" id="p264w308" />
<path d="M361.16 402.89l8.33 0l0 12.23l-8.33 0Z" id="p264w309" />
<path d="M372.19 402.89l32.42 0l0 12.23l-32.42 0Z" id="p264w310" />
<path d="M407.31 402.64l15.34 0l0 12.56l-15.34 0Z" id="p264w311" />
<path d="M325.58 418.17l15.53 0l0 12.23l-15.53 0Z" id="p264w312" />
<path d="M343.81 418.12l15.88 0l0 12.29l-15.88 0Z" id="p264w313" />
<path d="M362.39 418.17l8.33 0l0 12.23l-8.33 0Z" id="p264w314" />
<path d="M373.42 418.17l15.53 0l0 12.23l-15.53 0Z" id="p264w315" />
<path d="M391.65 417.93l15.54 0l0 12.56l-15.54 0Z" id="p264w316" />
<path d="M325.58 433.45l14.41 0l0 12.23l-14.41 0Z" id="p264w317" />
<path d="M342.69 433.4l15.88 0l0 12.29l-15.88 0Z" id="p264w318" />
<path d="M361.27 433.45l17.56 0l0 12.23l-17.56 0Z" id="p264w319" />
<path d="M381.53 433.45l27.68 0l0 12.23l-27.68 0Z" id="p264w320" />
<path d="M411.91 433.21l15.54 0l0 12.56l-15.54 0Z" id="p264w321" />
<path d="M335.43 448.74l14.41 0l0 12.23l-14.41 0Z" id="p264w322" />
<path d="M352.23 448.74l15.54 0l0 12.23l-15.54 0Z" id="p264w323" />
<path d="M370.47 448.74l19.13 0l0 12.23l-19.13 0Z" id="p264w324" />
<path d="M392.3 448.74l17.12 0l0 12.23l-17.12 0Z" id="p264w325" />
<path d="M412.12 448.74l21.37 0l0 12.23l-21.37 0Z" id="p264w326" />
<path d="M436.2 448.74l27.68 0l0 12.23l-27.68 0Z" id="p264w327" />
<path d="M466.58 448.74l11.7 0l0 12.23l-11.7 0Z" id="p264w328" />
<path d="M480.98 448.74l11.04 0l0 12.23l-11.04 0Z" id="p264w329" />
<path d="M335.43 463.78l18.17 0l0 12.56l-18.17 0Z" id="p264w330" />
<path d="M325.58 479.3l18.46 0l0 12.23l-18.46 0Z" id="p264w331" />
<path d="M346.74 479.3l19.44 0l0 12.23l-19.44 0Z" id="p264w332" />
<path d="M368.89 479.25l26.9 0l0 12.29l-26.9 0Z" id="p264w333" />
<path d="M398.48 479.3l10.35 0l0 12.23l-10.35 0Z" id="p264w334" />
<path d="M411.53 479.3l40.45 0l0 12.23l-40.45 0Z" id="p264w335" />
<path d="M454.68 479.06l15.54 0l0 12.56l-15.54 0Z" id="p264w336" />
<path d="M325.58 494.59l14.41 0l0 12.23l-14.41 0Z" id="p264w337" />
<path d="M342.69 494.53l48.56 0l0 12.29l-48.56 0Z" id="p264w338" />
<path d="M393.95 494.59l8.33 0l0 12.23l-8.33 0Z" id="p264w339" />
<path d="M404.98 494.59l59.88 0l0 12.23l-59.88 0Z" id="p264w340" />
<path d="M467.55 494.34l19.58 0l0 12.56l-19.58 0Z" id="p264w341" />
<path d="M325.58 509.87l11.7 0l0 12.23l-11.7 0Z" id="p264w342" />
<path d="M339.99 509.87l19.44 0l0 12.23l-19.44 0Z" id="p264w343" />
<path d="M362.13 509.82l53.94 0l0 12.29l-53.94 0Z" id="p264w344" />
<path d="M418.77 509.87l45.24 0l0 12.23l-45.24 0Z" id="p264w345" />
<path d="M475.04 509.87l11.04 0l0 12.23l-11.04 0Z" id="p264w346" />
<path d="M335.43 524.91l18.17 0l0 12.56l-18.17 0Z" id="p264w347" />
<path d="M368.06 525.16l35.77 0l0 12.23l-35.77 0Z" id="p264w348" />
<path d="M414.86 525.16l11.04 0l0 12.23l-11.04 0Z" id="p264w349" />
<path d="M428.6 524.91l18.92 0l0 12.56l-18.92 0Z" id="p264w350" />
<path d="M325.58 540.44l14.41 0l0 12.23l-14.41 0Z" id="p264w351" />
<path d="M342.69 540.38l52.45 0l0 12.29l-52.45 0Z" id="p264w352" />
<path d="M395.14 540.44l24.2 0l0 12.23l-24.2 0Z" id="p264w353" />
<path d="M422.04 540.38l61.34 0l0 12.29l-61.34 0Z" id="p264w354" />
<path d="M486.08 540.44l11.94 0l0 12.23l-11.94 0Z" id="p264w355" />
<path d="M335.43 555.72l73.05 0l0 12.23l-73.05 0Z" id="p264w356" />
<path d="M411.18 555.72l56.94 0l0 12.23l-56.94 0Z" id="p264w357" />
<path d="M470.82 555.48l15.54 0l0 12.56l-15.54 0Z" id="p264w358" />
<path d="M325.58 571.01l14.41 0l0 12.23l-14.41 0Z" id="p264w359" />
<path d="M342.68 570.96l34.32 0l0 12.29l-34.32 0Z" id="p264w360" />
<path d="M379.71 571.01l11.94 0l0 12.23l-11.94 0Z" id="p264w361" />
<path d="M394.35 571.01l47.5 0l0 12.23l-47.5 0Z" id="p264w362" />
<path d="M444.54 570.77l14.79 0l0 12.56l-14.79 0Z" id="p264w363" />
<path d="M325.58 586.29l57.39 0l0 12.23l-57.39 0Z" id="p264w364" />
<path d="M385.66 586.24l57.6 0l0 12.29l-57.6 0Z" id="p264w365" />
<path d="M445.96 586.29l10.35 0l0 12.23l-10.35 0Z" id="p264w366" />
<path d="M335.42 601.58l51.32 0l0 12.23l-51.32 0Z" id="p264w367" />
<path d="M389.44 601.33l15.54 0l0 12.56l-15.54 0Z" id="p264w368" />
<path d="M325.58 616.86l14.41 0l0 12.23l-14.41 0Z" id="p264w369" />
<path d="M342.68 616.81l25.41 0l0 12.29l-25.41 0Z" id="p264w370" />
<path d="M370.79 616.86l17.56 0l0 12.23l-17.56 0Z" id="p264w371" />
<path d="M391.06 616.86l36.67 0l0 12.23l-36.67 0Z" id="p264w372" />
<path d="M430.43 616.62l18.72 0l0 12.56l-18.72 0Z" id="p264w373" />
<path d="M325.58 632.14l14.41 0l0 12.23l-14.41 0Z" id="p264w374" />
<path d="M342.68 632.09l54.55 0l0 12.29l-54.55 0Z" id="p264w375" />
<path d="M399.94 632.14l8.33 0l0 12.23l-8.33 0Z" id="p264w376" />
<path d="M410.96 632.14l58.73 0l0 12.23l-58.73 0Z" id="p264w377" />
<path d="M472.4 631.9l15.54 0l0 12.56l-15.54 0Z" id="p264w378" />
<path d="M325.58 647.37l30.07 0l0 12.29l-30.07 0Z" id="p264w379" />
<path d="M358.34 647.43l8.33 0l0 12.23l-8.33 0Z" id="p264w380" />
<path d="M369.37 647.43l29.03 0l0 12.23l-29.03 0Z" id="p264w381" />
<path d="M401.1 647.18l18.92 0l0 12.56l-18.92 0Z" id="p264w382" />
<path d="M325.58 662.71l14.41 0l0 12.23l-14.41 0Z" id="p264w383" />
<path d="M342.68 662.66l53.31 0l0 12.29l-53.31 0Z" id="p264w384" />
<path d="M398.69 662.71l11.94 0l0 12.23l-11.94 0Z" id="p264w385" />
<path d="M413.33 662.71l24.32 0l0 12.23l-24.32 0Z" id="p264w386" />
<path d="M440.35 662.47l18.92 0l0 12.56l-18.92 0Z" id="p264w387" />
<path d="M325.58 677.99l14.41 0l0 12.23l-14.41 0Z" id="p264w388" />
<path d="M342.68 677.94l32.31 0l0 12.29l-32.31 0Z" id="p264w389" />
<path d="M377.7 677.99l11.94 0l0 12.23l-11.94 0Z" id="p264w390" />
<path d="M392.33 677.99l56.89 0l0 12.23l-56.89 0Z" id="p264w391" />
<path d="M451.92 677.75l18.92 0l0 12.56l-18.92 0Z" id="p264w392" />
<path d="M335.42 693.28l26.11 0l0 12.23l-26.11 0Z" id="p264w393" />
<path d="M363.93 693.28l31.97 0l0 12.23l-31.97 0Z" id="p264w394" />
<path d="M398.6 693.28l53.8 0l0 12.23l-53.8 0Z" id="p264w395" />
<path d="M455.1 693.28l37.93 0l0 12.23l-37.93 0Z" id="p264w396" />
<path d="M335.42 708.56l23.64 0l0 12.23l-23.64 0Z" id="p264w397" />
<path d="M361.77 708.56l37.14 0l0 12.23l-37.14 0Z" id="p264w398" />
<path d="M401.6 708.56l56.89 0l0 12.23l-56.89 0Z" id="p264w399" />
<path d="M461.19 708.56l29.39 0l0 12.23l-29.39 0Z" id="p264w400" />
<path d="M335.42 723.84l21.39 0l0 12.23l-21.39 0Z" id="p264w401" />
<path d="M359.51 723.84l15.76 0l0 12.23l-15.76 0Z" id="p264w402" />
<path d="M377.97 723.6l18.92 0l0 12.56l-18.92 0Z" id="p264w403" />
<path d="M325.58 739.07l25.06 0l0 12.29l-25.06 0Z" id="p264w404" />
<path d="M353.34 739.13l50.76 0l0 12.23l-50.76 0Z" id="p264w405" />
<path d="M406.81 738.88l14.63 0l0 12.56l-14.63 0Z" id="p264w406" />
<path d="M325.58 754.41l14.41 0l0 12.23l-14.41 0Z" id="p264w407" />
<path d="M342.68 754.36l19.46 0l0 12.29l-19.46 0Z" id="p264w408" />
<path d="M364.85 754.41l11.94 0l0 12.23l-11.94 0Z" id="p264w409" />
<path d="M379.48 754.41l23.85 0l0 12.23l-23.85 0Z" id="p264w410" />
<path d="M406.04 754.17l15.54 0l0 12.56l-15.54 0Z" id="p264w411" />
<path d="M325.58 769.7l14.41 0l0 12.23l-14.41 0Z" id="p264w412" />
<path d="M342.68 769.64l36.04 0l0 12.29l-36.04 0Z" id="p264w413" />
<path d="M381.42 769.7l11.94 0l0 12.23l-11.94 0Z" id="p264w414" />
<path d="M396.06 769.7l34.42 0l0 12.23l-34.42 0Z" id="p264w415" />
<path d="M433.18 769.45l15.54 0l0 12.56l-15.54 0Z" id="p264w416" />
<path d="M325.58 784.98l14.41 0l0 12.23l-14.41 0Z" id="p264w417" />
<path d="M342.68 784.92l31.82 0l0 12.29l-31.82 0Z" id="p264w418" />
<path d="M377.21 784.98l11.94 0l0 12.23l-11.94 0Z" id="p264w419" />
<path d="M391.84 784.98l22.51 0l0 12.23l-22.51 0Z" id="p264w420" />
<path d="M417.05 784.73l18.92 0l0 12.56l-18.92 0Z" id="p264w421" />
<path d="M325.58 800.21l16.08 0l0 12.29l-16.08 0Z" id="p264w422" />
<path d="M344.36 800.26l84.11 0l0 12.23l-84.11 0Z" id="p264w423" />
<path d="M431.17 800.02l18.17 0l0 12.56l-18.17 0Z" id="p264w424" />
<path d="M325.58 815.55l14.41 0l0 12.23l-14.41 0Z" id="p264w425" />
<path d="M342.68 815.49l17.56 0l0 12.29l-17.56 0Z" id="p264w426" />
<path d="M364.41 815.49l23.11 0l0 12.29l-23.11 0Z" id="p264w427" />
<path d="M390.22 815.55l11.94 0l0 12.23l-11.94 0Z" id="p264w428" />
<path d="M404.86 815.55l52.55 0l0 12.23l-52.55 0Z" id="p264w429" />
<path d="M460.11 815.55l40.07 0l0 12.23l-40.07 0Z" id="p264w430" />
<path d="M335.42 830.58l18.92 0l0 12.56l-18.92 0Z" id="p264w431" />
<path d="M325.58 846.11l14.41 0l0 12.23l-14.41 0Z" id="p264w432" />
<path d="M342.68 846.06l16.91 0l0 12.29l-16.91 0Z" id="p264w433" />
<path d="M362.29 846.11l11.94 0l0 12.23l-11.94 0Z" id="p264w434" />
<path d="M376.93 846.11l15.31 0l0 12.23l-15.31 0Z" id="p264w435" />
<path d="M394.93 845.87l18.92 0l0 12.56l-18.92 0Z" id="p264w436" />
<path d="M325.58 861.4l19.44 0l0 12.23l-19.44 0Z" id="p264w437" />
<path d="M347.72 861.34l30.58 0l0 12.29l-30.58 0Z" id="p264w438" />
<path d="M381 861.4l24.98 0l0 12.23l-24.98 0Z" id="p264w439" />
<path d="M408.67 861.4l11.04 0l0 12.23l-11.04 0Z" id="p264w440" />
<path d="M422.41 861.15l15.34 0l0 12.56l-15.34 0Z" id="p264w441" />
<path d="M325.58 876.68l14.41 0l0 12.23l-14.41 0Z" id="p264w442" />
<path d="M342.68 876.62l23.56 0l0 12.29l-23.56 0Z" id="p264w443" />
<path d="M368.95 876.68l17.56 0l0 12.23l-17.56 0Z" id="p264w444" />
<path d="M389.21 876.68l23.85 0l0 12.23l-23.85 0Z" id="p264w445" />
<path d="M415.76 876.43l19.58 0l0 12.56l-19.58 0Z" id="p264w446" />
<path d="M335.42 891.96l14.41 0l0 12.23l-14.41 0Z" id="p264w447" />
<path d="M352.23 891.96l23.64 0l0 12.23l-23.64 0Z" id="p264w448" />
<path d="M386.9 891.96l23.85 0l0 12.23l-23.85 0Z" id="p264w449" />
<path d="M413.45 891.72l15.54 0l0 12.56l-15.54 0Z" id="p264w450" />
<path d="M335.42 907.25l17.78 0l0 12.23l-17.78 0Z" id="p264w451" />
<path d="M355.61 907.25l23.64 0l0 12.23l-23.64 0Z" id="p264w452" />
<path d="M381.95 907.25l33.55 0l0 12.23l-33.55 0Z" id="p264w453" />
<path d="M418.2 907.25l31.95 0l0 12.23l-31.95 0Z" id="p264w454" />
<path d="M452.85 907.25l8.33 0l0 12.23l-8.33 0Z" id="p264w455" />
<path d="M463.87 907.25l23.85 0l0 12.23l-23.85 0Z" id="p264w456" />
<path d="M335.42 922.28l18.72 0l0 12.56l-18.72 0Z" id="p264w457" />
<path d="M527.09 112.51l20.03 0l0 12.23l-20.03 0Z" id="p264w458" />
<path d="M549.83 112.45l44.26 0l0 12.29l-44.26 0Z" id="p264w459" />
<path d="M596.79 112.51l17.56 0l0 12.23l-17.56 0Z" id="p264w460" />
<path d="M617.05 112.51l51.99 0l0 12.23l-51.99 0Z" id="p264w461" />
<path d="M671.74 112.26l17.81 0l0 12.56l-17.81 0Z" id="p264w462" />
<path d="M527.09 127.79l23.63 0l0 12.23l-23.63 0Z" id="p264w463" />
<path d="M553.43 127.74l52.94 0l0 12.29l-52.94 0Z" id="p264w464" />
<path d="M609.07 127.79l8.33 0l0 12.23l-8.33 0Z" id="p264w465" />
<path d="M620.1 127.79l48.01 0l0 12.23l-48.01 0Z" id="p264w466" />
<path d="M670.8 127.55l15.54 0l0 12.56l-15.54 0Z" id="p264w467" />
<path d="M527.09 143.08l14.41 0l0 12.23l-14.41 0Z" id="p264w468" />
<path d="M544.2 143.02l20.42 0l0 12.29l-20.42 0Z" id="p264w469" />
<path d="M567.32 143.08l11.94 0l0 12.23l-11.94 0Z" id="p264w470" />
<path d="M581.96 143.08l19.8 0l0 12.23l-19.8 0Z" id="p264w471" />
<path d="M604.46 142.83l15.34 0l0 12.56l-15.34 0Z" id="p264w472" />
<path d="M527.09 158.36l14.41 0l0 12.23l-14.41 0Z" id="p264w473" />
<path d="M544.2 158.3l43.26 0l0 12.29l-43.26 0Z" id="p264w474" />
<path d="M590.16 158.36l8.33 0l0 12.23l-8.33 0Z" id="p264w475" />
<path d="M601.19 158.36l17.56 0l0 12.23l-17.56 0Z" id="p264w476" />
<path d="M621.45 158.11l18.92 0l0 12.56l-18.92 0Z" id="p264w477" />
<path d="M527.09 173.64l20.03 0l0 12.23l-20.03 0Z" id="p264w478" />
<path d="M549.83 173.59l34.65 0l0 12.29l-34.65 0Z" id="p264w479" />
<path d="M587.17 173.64l17.56 0l0 12.23l-17.56 0Z" id="p264w480" />
<path d="M607.44 173.64l6.3 0l0 12.23l-6.3 0Z" id="p264w481" />
<path d="M613.74 173.64l11.03 0l0 12.23l-11.03 0Z" id="p264w482" />
<path d="M627.46 173.4l15.54 0l0 12.56l-15.54 0Z" id="p264w483" />
<path d="M527.09 188.93l14.41 0l0 12.23l-14.41 0Z" id="p264w484" />
<path d="M544.2 188.87l35.17 0l0 12.29l-35.17 0Z" id="p264w485" />
<path d="M582.07 188.93l13.05 0l0 12.23l-13.05 0Z" id="p264w486" />
<path d="M597.82 188.93l38.7 0l0 12.23l-38.7 0Z" id="p264w487" />
<path d="M652.51 188.9l14.18 0l0 12.23l-14.18 0Z" id="p264w488" />
<path d="M669.39 188.68l14.63 0l0 12.56l-14.63 0Z" id="p264w489" />
<path d="M527.09 204.15l15.42 0l0 12.29l-15.42 0Z" id="p264w490" />
<path d="M545.21 204.21l26.11 0l0 12.23l-26.11 0Z" id="p264w491" />
<path d="M574.02 204.19l21.86 0l0 12.23l-21.86 0Z" id="p264w492" />
<path d="M598.59 203.96l13.88 0l0 12.56l-13.88 0Z" id="p264w493" />
<path d="M617.62 204.21l53.56 0l0 12.23l-53.56 0Z" id="p264w494" />
<path d="M673.88 203.96l14.63 0l0 12.56l-14.63 0Z" id="p264w495" />
<path d="M527.09 219.49l20.03 0l0 12.23l-20.03 0Z" id="p264w496" />
<path d="M549.83 219.44l34.95 0l0 12.29l-34.95 0Z" id="p264w497" />
<path d="M587.47 219.49l17.56 0l0 12.23l-17.56 0Z" id="p264w498" />
<path d="M607.74 219.49l33.98 0l0 12.23l-33.98 0Z" id="p264w499" />
<path d="M644.42 219.25l14.79 0l0 12.56l-14.79 0Z" id="p264w500" />
<path d="M527.09 234.78l15.53 0l0 12.23l-15.53 0Z" id="p264w501" />
<path d="M545.32 234.78l54.96 0l0 12.23l-54.96 0ZM600.29 234.72l16.56 0l0 12.29l-16.56 0Z" id="p264w502" />
<path d="M619.55 234.78l8.33 0l0 12.23l-8.33 0Z" id="p264w503" />
<path d="M630.58 234.78l15.76 0l0 12.23l-15.76 0Z" id="p264w504" />
<path d="M649.04 234.53l18.72 0l0 12.56l-18.72 0Z" id="p264w505" />
<path d="M527.09 250.06l15.53 0l0 12.23l-15.53 0Z" id="p264w506" />
<path d="M545.32 250l16.56 0l0 12.29l-16.56 0Z" id="p264w507" />
<path d="M564.59 250.06l8.33 0l0 12.23l-8.33 0Z" id="p264w508" />
<path d="M575.61 250.06l16.66 0l0 12.23l-16.66 0Z" id="p264w509" />
<path d="M594.98 249.81l18.92 0l0 12.56l-18.92 0Z" id="p264w510" />
<path d="M527.09 265.34l16.9 0l0 12.23l-16.9 0Z" id="p264w511" />
<path d="M546.69 265.29l25.44 0l0 12.29l-25.44 0Z" id="p264w512" />
<path d="M574.83 265.34l19.13 0l0 12.23l-19.13 0Z" id="p264w513" />
<path d="M596.66 265.34l12.16 0l0 12.23l-12.16 0Z" id="p264w514" />
<path d="M611.53 265.1l18.92 0l0 12.56l-18.92 0Z" id="p264w515" />
<path d="M527.09 280.63l14.41 0l0 12.23l-14.41 0Z" id="p264w516" />
<path d="M544.2 280.57l31.95 0l0 12.29l-31.95 0Z" id="p264w517" />
<path d="M576.15 280.63l24.2 0l0 12.23l-24.2 0Z" id="p264w518" />
<path d="M603.05 280.57l40.84 0l0 12.29l-40.84 0Z" id="p264w519" />
<path d="M646.58 280.63l11.94 0l0 12.23l-11.94 0Z" id="p264w520" />
<path d="M661.22 280.63l40.4 0l0 12.23l-40.4 0Z" id="p264w521" />
<path d="M536.94 295.91l17.56 0l0 12.23l-17.56 0Z" id="p264w522" />
<path d="M557.21 295.91l36.24 0l0 12.23l-36.24 0Z" id="p264w523" />
<path d="M596.14 295.66l14.63 0l0 12.56l-14.63 0Z" id="p264w524" />
<path d="M527.09 311.14l49.6 0l0 12.29l-49.6 0Z" id="p264w525" />
<path d="M579.39 311.19l50.87 0l0 12.23l-50.87 0Z" id="p264w526" />
<path d="M632.97 310.95l14.63 0l0 12.56l-14.63 0Z" id="p264w527" />
<path d="M527.09 326.48l20.03 0l0 12.23l-20.03 0Z" id="p264w528" />
<path d="M549.83 326.42l37.68 0l0 12.29l-37.68 0Z" id="p264w529" />
<path d="M590.21 326.48l17.56 0l0 12.23l-17.56 0Z" id="p264w530" />
<path d="M610.47 326.48l36.69 0l0 12.23l-36.69 0Z" id="p264w531" />
<path d="M649.86 326.23l15.34 0l0 12.56l-15.34 0Z" id="p264w532" />
<path d="M527.09 341.76l19.44 0l0 12.23l-19.44 0Z" id="p264w533" />
<path d="M549.24 341.7l31.07 0l0 12.29l-31.07 0Z" id="p264w534" />
<path d="M583 341.76l29.03 0l0 12.23l-29.03 0Z" id="p264w535" />
<path d="M614.74 341.76l11.04 0l0 12.23l-11.04 0Z" id="p264w536" />
<path d="M628.48 341.52l15.34 0l0 12.56l-15.34 0Z" id="p264w537" />
<path d="M527.09 357.04l14.41 0l0 12.23l-14.41 0Z" id="p264w538" />
<path d="M544.2 356.99l32.96 0l0 12.29l-32.96 0Z" id="p264w539" />
<path d="M579.86 357.04l11.94 0l0 12.23l-11.94 0Z" id="p264w540" />
<path d="M594.5 357.04l48.84 0l0 12.23l-48.84 0Z" id="p264w541" />
<path d="M646.04 356.8l15.54 0l0 12.56l-15.54 0Z" id="p264w542" />
<path d="M527.09 372.27l46.34 0l0 12.29l-46.34 0Z" id="p264w543" />
<path d="M576.14 372.33l49.28 0l0 12.23l-49.28 0Z" id="p264w544" />
<path d="M628.12 372.08l15.54 0l0 12.56l-15.54 0Z" id="p264w545" />
<path d="M527.09 387.61l14.41 0l0 12.23l-14.41 0Z" id="p264w546" />
<path d="M543.83 387.55l38.2 0l0 12.29l-38.2 0Z" id="p264w547" />
<path d="M584.74 387.61l11.94 0l0 12.23l-11.94 0Z" id="p264w548" />
<path d="M599.38 387.61l63.91 0l0 12.23l-63.91 0Z" id="p264w549" />
<path d="M665.99 387.37l15.54 0l0 12.56l-15.54 0Z" id="p264w550" />
<path d="M527.09 402.89l14.41 0l0 12.23l-14.41 0Z" id="p264w551" />
<path d="M544.2 402.84l29.77 0l0 12.29l-29.77 0Z" id="p264w552" />
<path d="M576.67 402.89l11.94 0l0 12.23l-11.94 0Z" id="p264w553" />
<path d="M591.31 402.89l20.25 0l0 12.23l-20.25 0Z" id="p264w554" />
<path d="M614.26 402.65l18.92 0l0 12.56l-18.92 0Z" id="p264w555" />
<path d="M527.09 418.18l20.72 0l0 12.23l-20.72 0Z" id="p264w556" />
<path d="M550.51 418.18l23.04 0l0 12.23l-23.04 0Z" id="p264w557" />
<path d="M576.26 418.12l40.41 0l0 12.29l-40.41 0Z" id="p264w558" />
<path d="M619.37 418.18l24.08 0l0 12.23l-24.08 0Z" id="p264w559" />
<path d="M646.15 418.18l15.31 0l0 12.23l-15.31 0Z" id="p264w560" />
<path d="M664.16 418.18l14.64 0l0 12.23l-14.64 0Z" id="p264w561" />
<path d="M681.5 417.93l15.54 0l0 12.56l-15.54 0Z" id="p264w562" />
<path d="M527.09 433.4l32.05 0l0 12.29l-32.05 0Z" id="p264w563" />
<path d="M561.84 433.46l24.52 0l0 12.23l-24.52 0Z" id="p264w564" />
<path d="M589.06 433.22l15.54 0l0 12.56l-15.54 0Z" id="p264w565" />
<path d="M527.09 448.74l14.41 0l0 12.23l-14.41 0Z" id="p264w566" />
<path d="M544.2 448.69l33.56 0l0 12.29l-33.56 0Z" id="p264w567" />
<path d="M580.46 448.74l11.94 0l0 12.23l-11.94 0Z" id="p264w568" />
<path d="M595.1 448.74l56.89 0l0 12.23l-56.89 0Z" id="p264w569" />
<path d="M654.69 448.5l14.79 0l0 12.56l-14.79 0Z" id="p264w570" />
<path d="M683.94 448.74l17.56 0l0 12.23l-17.56 0Z" id="p264w571" />
<path d="M536.94 464.03l45.69 0l0 12.23l-45.69 0Z" id="p264w572" />
<path d="M585.34 463.78l17.26 0l0 12.56l-17.26 0Z" id="p264w573" />
<path d="M527.09 479.31l16.9 0l0 12.23l-16.9 0Z" id="p264w574" />
<path d="M546.69 479.25l32.5 0l0 12.29l-32.5 0Z" id="p264w575" />
<path d="M581.89 479.31l43.21 0l0 12.23l-43.21 0Z" id="p264w576" />
<path d="M627.81 479.31l27.37 0l0 12.23l-27.37 0Z" id="p264w577" />
<path d="M657.88 479.07l15.54 0l0 12.56l-15.54 0Z" id="p264w578" />
<path d="M536.94 494.59l49.52 0l0 12.23l-49.52 0Z" id="p264w579" />
<path d="M589.16 494.59l12.16 0l0 12.23l-12.16 0Z" id="p264w580" />
<path d="M604.02 494.35l19.58 0l0 12.56l-19.58 0Z" id="p264w581" />
<path d="M536.94 509.88l18.46 0l0 12.23l-18.46 0Z" id="p264w582" />
<path d="M558.11 509.88l15.75 0l0 12.23l-15.75 0Z" id="p264w583" />
<path d="M576.56 509.88l20.04 0l0 12.23l-20.04 0Z" id="p264w584" />
<path d="M599.3 509.88l31.96 0l0 12.23l-31.96 0Z" id="p264w585" />
<path d="M633.96 509.88l23.19 0l0 12.23l-23.19 0Z" id="p264w586" />
<path d="M659.84 509.88l35.27 0l0 12.23l-35.27 0ZM536.94 525.16l21.62 0l0 12.23l-21.62 0Z" id="p264w587" />
<path d="M561.26 525.16l21.39 0l0 12.23l-21.39 0Z" id="p264w588" />
<path d="M585.35 525.16l12.16 0l0 12.23l-12.16 0Z" id="p264w589" />
<path d="M600.21 524.92l14.79 0l0 12.56l-14.79 0Z" id="p264w590" />
<path d="M536.94 540.44l18.46 0l0 12.23l-18.46 0Z" id="p264w591" />
<path d="M558.11 540.44l31.96 0l0 12.23l-31.96 0Z" id="p264w592" />
<path d="M592.76 540.44l10.35 0l0 12.23l-10.35 0Z" id="p264w593" />
<path d="M605.81 540.44l43.21 0l0 12.23l-43.21 0Z" id="p264w594" />
<path d="M651.73 540.2l15.54 0l0 12.56l-15.54 0Z" id="p264w595" />
<path d="M527.09 555.73l19.44 0l0 12.23l-19.44 0Z" id="p264w596" />
<path d="M549.24 555.67l34.09 0l0 12.29l-34.09 0Z" id="p264w597" />
<path d="M586.03 555.73l24.09 0l0 12.23l-24.09 0Z" id="p264w598" />
<path d="M612.82 555.73l11.04 0l0 12.23l-11.04 0Z" id="p264w599" />
<path d="M626.55 555.48l15.54 0l0 12.56l-15.54 0Z" id="p264w600" />
<path d="M527.09 571.01l14.41 0l0 12.23l-14.41 0Z" id="p264w601" />
<path d="M544.2 570.96l43.82 0l0 12.29l-43.82 0Z" id="p264w602" />
<path d="M590.72 571.01l11.94 0l0 12.23l-11.94 0Z" id="p264w603" />
<path d="M605.36 571.01l45.71 0l0 12.23l-45.71 0Z" id="p264w604" />
<path d="M653.76 570.77l18.72 0l0 12.56l-18.72 0Z" id="p264w605" />
<path d="M527.09 586.24l22.35 0l0 12.29l-22.35 0Z" id="p264w606" />
<path d="M552.15 586.29l33.02 0l0 12.23l-33.02 0Z" id="p264w607" />
<path d="M587.87 586.05l18.92 0l0 12.56l-18.92 0Z" id="p264w608" />
<path d="M527.09 601.52l43.29 0l0 12.29l-43.29 0Z" id="p264w609" />
<path d="M573.09 601.58l29.72 0l0 12.23l-29.72 0Z" id="p264w610" />
<path d="M605.51 601.58l29.7 0l0 12.23l-29.7 0Z" id="p264w611" />
<path d="M637.91 601.33l19.58 0l0 12.56l-19.58 0Z" id="p264w612" />
<path d="M662.64 601.58l40.97 0l0 12.23l-40.97 0Z" id="p264w613" />
<path d="M536.94 616.62l15.34 0l0 12.56l-15.34 0Z" id="p264w614" />
<path d="M527.09 632.09l39.4 0l0 12.29l-39.4 0Z" id="p264w615" />
<path d="M569.2 632.14l23.86 0l0 12.23l-23.86 0Z" id="p264w616" />
<path d="M601.62 632.12l27.91 0l0 12.23l-27.91 0Z" id="p264w617" />
<path d="M632.23 631.9l13.88 0l0 12.56l-13.88 0Z" id="p264w618" />
<path d="M527.09 647.43l14.41 0l0 12.23l-14.41 0Z" id="p264w619" />
<path d="M544.2 647.37l30.99 0l0 12.29l-30.99 0Z" id="p264w620" />
<path d="M577.89 647.43l11.94 0l0 12.23l-11.94 0Z" id="p264w621" />
<path d="M592.53 647.43l28.05 0l0 12.23l-28.05 0Z" id="p264w622" />
<path d="M623.29 647.18l19.58 0l0 12.56l-19.58 0Z" id="p264w623" />
<path d="M527.09 662.71l19.44 0l0 12.23l-19.44 0Z" id="p264w624" />
<path d="M549.24 662.66l15.99 0l0 12.29l-15.99 0Z" id="p264w625" />
<path d="M567.93 662.71l21.37 0l0 12.23l-21.37 0Z" id="p264w626" />
<path d="M592.01 662.71l11.04 0l0 12.23l-11.04 0Z" id="p264w627" />
<path d="M605.75 662.47l15.54 0l0 12.56l-15.54 0Z" id="p264w628" />
<path d="M536.94 677.99l32.58 0l0 12.23l-32.58 0Z" id="p264w629" />
<path d="M572.22 677.99l19.44 0l0 12.23l-19.44 0Z" id="p264w630" />
<path d="M594.36 677.99l27.18 0l0 12.23l-27.18 0Z" id="p264w631" />
<path d="M624.24 677.99l29.49 0l0 12.23l-29.49 0Z" id="p264w632" />
<path d="M656.43 677.99l23.41 0l0 12.23l-23.41 0Z" id="p264w633" />
<path d="M682.54 677.99l11.7 0l0 12.23l-11.7 0Z" id="p264w634" />
<path d="M536.94 693.28l21.37 0l0 12.23l-21.37 0Z" id="p264w635" />
<path d="M561.02 693.28l11.04 0l0 12.23l-11.04 0Z" id="p264w636" />
<path d="M574.76 693.03l18.92 0l0 12.56l-18.92 0Z" id="p264w637" />
<path d="M536.94 708.56l32.58 0l0 12.23l-32.58 0Z" id="p264w638" />
<path d="M572.22 708.56l19.44 0l0 12.23l-19.44 0Z" id="p264w639" />
<path d="M594.36 708.56l15.76 0l0 12.23l-15.76 0Z" id="p264w640" />
<path d="M612.83 708.56l18.9 0l0 12.23l-18.9 0Z" id="p264w641" />
<path d="M634.42 708.56l11.7 0l0 12.23l-11.7 0Z" id="p264w642" />
<path d="M648.83 708.56l21.83 0l0 12.23l-21.83 0Z" id="p264w643" />
<path d="M673.36 708.56l11.7 0l0 12.23l-11.7 0Z" id="p264w644" />
<path d="M536.94 723.84l21.37 0l0 12.23l-21.37 0Z" id="p264w645" />
<path d="M561.02 723.84l11.04 0l0 12.23l-11.04 0Z" id="p264w646" />
<path d="M574.76 723.6l18.92 0l0 12.56l-18.92 0Z" id="p264w647" />
<path d="M527.09 739.13l14.41 0l0 12.23l-14.41 0Z" id="p264w648" />
<path d="M544.2 739.07l31.34 0l0 12.29l-31.34 0Z" id="p264w649" />
<path d="M578.25 739.13l11.94 0l0 12.23l-11.94 0Z" id="p264w650" />
<path d="M592.89 739.13l30.17 0l0 12.23l-30.17 0Z" id="p264w651" />
<path d="M625.75 738.88l18.17 0l0 12.56l-18.17 0Z" id="p264w652" />
<path d="M527.09 754.41l20.03 0l0 12.23l-20.03 0Z" id="p264w653" />
<path d="M549.83 754.36l14.79 0l0 12.29l-14.79 0Z" id="p264w654" />
<path d="M567.32 754.41l17.56 0l0 12.23l-17.56 0Z" id="p264w655" />
<path d="M587.58 754.41l25.21 0l0 12.23l-25.21 0Z" id="p264w656" />
<path d="M615.49 754.17l18.92 0l0 12.56l-18.92 0Z" id="p264w657" />
<path d="M527.09 769.7l20.03 0l0 12.23l-20.03 0Z" id="p264w658" />
<path d="M549.83 769.64l43.69 0l0 12.29l-43.69 0Z" id="p264w659" />
<path d="M596.22 769.7l11.94 0l0 12.23l-11.94 0Z" id="p264w660" />
<path d="M610.86 769.7l42.26 0l0 12.23l-42.26 0Z" id="p264w661" />
<path d="M655.82 769.45l14.63 0l0 12.56l-14.63 0Z" id="p264w662" />
<path d="M527.09 784.98l14.41 0l0 12.23l-14.41 0Z" id="p264w663" />
<path d="M544.2 784.92l48.31 0l0 12.29l-48.31 0Z" id="p264w664" />
<path d="M595.21 784.98l17.56 0l0 12.23l-17.56 0Z" id="p264w665" />
<path d="M615.47 784.98l31.06 0l0 12.23l-31.06 0Z" id="p264w666" />
<path d="M649.23 784.73l15.34 0l0 12.56l-15.34 0Z" id="p264w667" />
<path d="M527.09 800.26l14.41 0l0 12.23l-14.41 0Z" id="p264w668" />
<path d="M544.2 800.21l35.7 0l0 12.29l-35.7 0Z" id="p264w669" />
<path d="M582.6 800.26l11.94 0l0 12.23l-11.94 0Z" id="p264w670" />
<path d="M597.24 800.26l19.36 0l0 12.23l-19.36 0Z" id="p264w671" />
<path d="M631.01 800.24l11.93 0l0 12.23l-11.93 0Z" id="p264w672" />
<path d="M645.64 800.24l36.9 0l0 12.23l-36.9 0Z" id="p264w673" />
<path d="M536.94 815.3l18.72 0l0 12.56l-18.72 0Z" id="p264w674" />
<path d="M527.09 830.83l14.41 0l0 12.23l-14.41 0Z" id="p264w675" />
<path d="M544.2 830.77l15.91 0l0 12.29l-15.91 0Z" id="p264w676" />
<path d="M562.81 830.81l25.65 0l0 12.23l-25.65 0Z" id="p264w677" />
<path d="M591.16 830.83l11.94 0l0 12.23l-11.94 0Z" id="p264w678" />
<path d="M605.8 830.83l19.81 0l0 12.23l-19.81 0Z" id="p264w679" />
<path d="M628.31 830.81l27.91 0l0 12.23l-27.91 0Z" id="p264w680" />
<path d="M658.92 830.58l15.54 0l0 12.56l-15.54 0Z" id="p264w681" />
<path d="M527.09 846.06l33.41 0l0 12.29l-33.41 0Z" id="p264w682" />
<path d="M563.21 846.11l13.28 0l0 12.23l-13.28 0Z" id="p264w683" />
<path d="M579.19 846.11l40.5 0l0 12.23l-40.5 0Z" id="p264w684" />
<path d="M622.4 846.11l35.12 0l0 12.23l-35.12 0Z" id="p264w685" />
<path d="M660.22 846.11l11.7 0l0 12.23l-11.7 0Z" id="p264w686" />
<path d="M674.63 846.11l16.33 0l0 12.23l-16.33 0Z" id="p264w687" />
<path d="M536.94 861.4l11.04 0l0 12.23l-11.04 0Z" id="p264w688" />
<path d="M550.68 861.15l18.01 0l0 12.56l-18.01 0Z" id="p264w689" />
<path d="M527.1 914.83l21.57 0l0 12.29l-21.57 0Z" id="p264w690" />
<path d="M551.37 914.89l14.41 0l0 12.23l-14.41 0Z" id="p264w691" />
<path d="M568.48 914.64l15.54 0l0 12.56l-15.54 0Z" id="p264w692" />
<path d="M527.1 930.12l32.83 0l0 12.29l-32.83 0Z" id="p264w693" />
<path d="M562.63 930.17l34.89 0l0 12.23l-34.89 0Z" id="p264w694" />
<path d="M600.22 929.93l19.58 0l0 12.56l-19.58 0Z" id="p264w695" />
</svg>
