<?xml version="1.0" encoding="UTF-8"?>
<svg xmlns="http://www.w3.org/2000/svg" xmlns:xlink="http://www.w3.org/1999/xlink" version="1.1" baseProfile="full" width="768" height="1024" viewBox="0,0,768,1024" preserveAspectRatio="xMinYMin meet" >
<style type="text/css">
<![CDATA[
path {fill-opacity: 0.5;fill: #00aeef;visibility: hidden;}
]]>
</style>
<path d="M124.06 104.82l42.09 0l0 23.34l-42.09 0Z" id="p17w1" />
<path d="M216.85 104.82l18.27 0l0 23.34l-18.27 0Z" id="p17w2" />
<path d="M240.19 104.82l109.78 0l0 23.34l-109.78 0Z" id="p17w3" />
<path d="M355.05 104.82l23.67 0l0 23.34l-23.67 0Z" id="p17w4" />
<path d="M383.8 104.82l108.05 0l0 23.34l-108.05 0Z" id="p17w5" />
<path d="M138.66 138.9l39.3 0l0 15.09l-39.3 0Z" id="p17w6" />
<path d="M181.57 138.9l32.19 0l0 15.09l-32.19 0Z" id="p17w7" />
<path d="M217.38 138.9l11.26 0l0 15.09l-11.26 0Z" id="p17w8" />
<path d="M232.25 138.9l11.88 0l0 15.09l-11.88 0Z" id="p17w9" />
<path d="M247.74 138.9l33.85 0l0 15.09l-33.85 0Z" id="p17w10" />
<path d="M285.2 138.9l25.23 0l0 15.09l-25.23 0Z" id="p17w11" />
<path d="M314.04 138.9l39.79 0l0 15.09l-39.79 0Z" id="p17w12" />
<path d="M367.54 138.9l66.83 0l0 15.09l-66.83 0Z" id="p17w13" />
<path d="M124.06 155.57l13.22 0l0 15.09l-13.22 0Z" id="p17w14" />
<path d="M140.9 155.57l25.23 0l0 15.09l-25.23 0Z" id="p17w15" />
<path d="M169.74 155.57l44.63 0l0 15.09l-44.63 0Z" id="p17w16" />
<path d="M217.98 155.57l26.31 0l0 15.09l-26.31 0Z" id="p17w17" />
<path d="M258 155.57l54.51 0l0 15.09l-54.51 0Z" id="p17w18" />
<path d="M316.12 155.57l13.91 0l0 15.09l-13.91 0Z" id="p17w19" />
<path d="M333.64 155.57l53.35 0l0 15.09l-53.35 0Z" id="p17w20" />
<path d="M390.6 155.57l21.96 0l0 15.09l-21.96 0Z" id="p17w21" />
<path d="M124.06 172.24l37.93 0l0 15.09l-37.93 0Z" id="p17w22" />
<path d="M165.6 172.24l19.46 0l0 15.09l-19.46 0Z" id="p17w23" />
<path d="M188.67 172.24l22.03 0l0 15.09l-22.03 0Z" id="p17w24" />
<path d="M214.31 172.24l22.99 0l0 15.09l-22.99 0Z" id="p17w25" />
<path d="M240.91 172.24l15.06 0l0 15.09l-15.06 0Z" id="p17w26" />
<path d="M259.59 172.24l69.1 0l0 15.09l-69.1 0Z" id="p17w27" />
<path d="M332.3 172.24l36 0l0 15.09l-36 0Z" id="p17w28" />
<path d="M371.91 172.24l52.89 0l0 15.09l-52.89 0Z" id="p17w29" />
<path d="M124.06 188.91l47.39 0l0 15.09l-47.39 0Z" id="p17w30" />
<path d="M175.06 188.91l30.81 0l0 15.09l-30.81 0Z" id="p17w31" />
<path d="M209.48 188.91l10.42 0l0 15.09l-10.42 0Z" id="p17w32" />
<path d="M223.51 188.91l33.85 0l0 15.09l-33.85 0Z" id="p17w33" />
<path d="M260.97 188.91l16.64 0l0 15.09l-16.64 0Z" id="p17w34" />
<path d="M281.23 188.91l34.62 0l0 15.09l-34.62 0Z" id="p17w35" />
<path d="M319.46 188.91l27.82 0l0 15.09l-27.82 0Z" id="p17w36" />
<path d="M350.9 188.91l10.42 0l0 15.09l-10.42 0Z" id="p17w37" />
<path d="M364.93 188.91l61.64 0l0 15.09l-61.64 0Z" id="p17w38" />
<path d="M124.06 205.58l38.43 0l0 15.09l-38.43 0Z" id="p17w39" />
<path d="M166.1 205.58l22.03 0l0 15.09l-22.03 0Z" id="p17w40" />
<path d="M191.74 205.58l65.11 0l0 15.09l-65.11 0Z" id="p17w41" />
<path d="M260.46 205.58l32.12 0l0 15.09l-32.12 0Z" id="p17w42" />
<path d="M296.19 205.58l21.67 0l0 15.09l-21.67 0Z" id="p17w43" />
<path d="M321.47 205.58l10.42 0l0 15.09l-10.42 0Z" id="p17w44" />
<path d="M335.5 205.58l32.43 0l0 15.09l-32.43 0Z" id="p17w45" />
<path d="M371.54 205.58l26.35 0l0 15.09l-26.35 0Z" id="p17w46" />
<path d="M401.5 205.58l45.53 0l0 15.09l-45.53 0Z" id="p17w47" />
<path d="M136.34 222.25l10.42 0l0 15.09l-10.42 0Z" id="p17w48" />
<path d="M150.37 222.25l19.79 0l0 15.09l-19.79 0Z" id="p17w49" />
<path d="M173.77 222.25l21 0l0 15.09l-21 0Z" id="p17w50" />
<path d="M208.49 222.25l37.19 0l0 15.09l-37.19 0Z" id="p17w51" />
<path d="M249.29 222.25l46.77 0l0 15.09l-46.77 0Z" id="p17w52" />
<path d="M299.67 222.25l13.91 0l0 15.09l-13.91 0Z" id="p17w53" />
<path d="M317.19 222.25l43.83 0l0 15.09l-43.83 0Z" id="p17w54" />
<path d="M364.62 222.25l14.59 0l0 15.09l-14.59 0Z" id="p17w55" />
<path d="M382.82 222.25l26.99 0l0 15.09l-26.99 0Z" id="p17w56" />
<path d="M413.42 222.25l13.91 0l0 15.09l-13.91 0Z" id="p17w57" />
<path d="M430.94 222.25l10.42 0l0 15.09l-10.42 0Z" id="p17w58" />
<path d="M124.06 238.92l27.45 0l0 15.09l-27.45 0Z" id="p17w59" />
<path d="M155.12 238.92l34.06 0l0 15.09l-34.06 0Z" id="p17w60" />
<path d="M192.79 238.92l24.38 0l0 15.09l-24.38 0Z" id="p17w61" />
<path d="M124.06 266.01l10.84 0l0 12.29l-10.84 0Z" id="p17w62" />
<path d="M137.6 266.01l26.34 0l0 12.29l-26.34 0Z" id="p17w63" />
<path d="M173.18 263.95l27.08 0l0 15.09l-27.08 0Z" id="p17w64" />
<path d="M203.87 263.95l57.77 0l0 15.09l-57.77 0Z" id="p17w65" />
<path d="M265.25 263.95l7.84 0l0 15.09l-7.84 0Z" id="p17w66" />
<path d="M321.96 263.95l53.19 0l0 15.09l-53.19 0Z" id="p17w67" />
<path d="M124.06 282.68l36.45 0l0 12.29l-36.45 0Z" id="p17w68" />
<path d="M169.74 280.62l28.49 0l0 15.09l-28.49 0Z" id="p17w69" />
<path d="M124.06 299.35l29.46 0l0 12.29l-29.46 0Z" id="p17w70" />
<path d="M161.84 297.29l59.89 0l0 15.09l-59.89 0Z" id="p17w71" />
<path d="M225.34 297.29l49.97 0l0 15.09l-49.97 0Z" id="p17w72" />
<path d="M278.92 297.29l15.15 0l0 15.09l-15.15 0Z" id="p17w73" />
<path d="M297.69 297.29l13.16 0l0 15.09l-13.16 0Z" id="p17w74" />
<path d="M314.46 297.29l46.85 0l0 15.09l-46.85 0Z" id="p17w75" />
<path d="M364.92 297.29l65.11 0l0 15.09l-65.11 0Z" id="p17w76" />
<path d="M124.06 316.03l36.45 0l0 12.29l-36.45 0Z" id="p17w77" />
<path d="M169.74 313.97l16.23 0l0 15.09l-16.23 0Z" id="p17w78" />
<path d="M189.59 313.97l22.95 0l0 15.09l-22.95 0Z" id="p17w79" />
<path d="M216.15 313.97l17.93 0l0 15.09l-17.93 0Z" id="p17w80" />
<path d="M237.69 313.97l14.29 0l0 15.09l-14.29 0Z" id="p17w81" />
<path d="M255.59 313.97l40.29 0l0 15.09l-40.29 0Z" id="p17w82" />
<path d="M124.07 338.98l36.4 0l0 15.09l-36.4 0Z" id="p17w83" />
<path d="M164.08 338.98l52.9 0l0 15.09l-52.9 0Z" id="p17w84" />
<path d="M220.59 338.98l24.24 0l0 15.09l-24.24 0Z" id="p17w85" />
<path d="M248.44 338.98l10.5 0l0 15.09l-10.5 0Z" id="p17w86" />
<path d="M262.55 338.98l36.26 0l0 15.09l-36.26 0Z" id="p17w87" />
<path d="M302.41 338.98l19.29 0l0 15.09l-19.29 0Z" id="p17w88" />
<path d="M325.32 338.98l47.54 0l0 15.09l-47.54 0Z" id="p17w89" />
<path d="M376.47 338.98l17.38 0l0 15.09l-17.38 0Z" id="p17w90" />
<path d="M397.45 338.98l14.59 0l0 15.09l-14.59 0Z" id="p17w91" />
<path d="M124.07 355.65l61.06 0l0 15.09l-61.06 0Z" id="p17w92" />
<path d="M188.74 355.65l38.27 0l0 15.09l-38.27 0Z" id="p17w93" />
<path d="M230.62 355.65l25.69 0l0 15.09l-25.69 0Z" id="p17w94" />
<path d="M259.93 355.65l28.6 0l0 15.09l-28.6 0Z" id="p17w95" />
<path d="M138.32 382.72l32.11 0l0 12.29l-32.11 0Z" id="p17w96" />
<path d="M179.67 380.66l8.02 0l0 15.09l-8.02 0Z" id="p17w97" />
<path d="M191.3 380.66l18.28 0l0 15.09l-18.28 0Z" id="p17w98" />
<path d="M223.29 380.66l19.46 0l0 15.09l-19.46 0Z" id="p17w99" />
<path d="M246.36 380.66l71.43 0l0 15.09l-71.43 0Z" id="p17w100" />
<path d="M321.4 380.66l15.15 0l0 15.09l-15.15 0Z" id="p17w101" />
<path d="M340.16 380.66l38.44 0l0 15.09l-38.44 0Z" id="p17w102" />
<path d="M392.32 380.66l25.4 0l0 15.09l-25.4 0Z" id="p17w103" />
<path d="M124.06 399.39l36.45 0l0 12.29l-36.45 0Z" id="p17w104" />
<path d="M182.02 397.33l25.4 0l0 15.09l-25.4 0Z" id="p17w105" />
<path d="M231.06 397.33l27.08 0l0 15.09l-27.08 0Z" id="p17w106" />
<path d="M261.75 397.33l26.3 0l0 15.09l-26.3 0Z" id="p17w107" />
<path d="M291.66 397.33l24.79 0l0 15.09l-24.79 0Z" id="p17w108" />
<path d="M320.06 397.33l45.71 0l0 15.09l-45.71 0Z" id="p17w109" />
<path d="M138.67 422.34l18.46 0l0 15.09l-18.46 0Z" id="p17w110" />
<path d="M160.73 422.34l35.69 0l0 15.09l-35.69 0Z" id="p17w111" />
<path d="M200.04 422.34l19.84 0l0 15.09l-19.84 0Z" id="p17w112" />
<path d="M223.49 422.34l64.53 0l0 15.09l-64.53 0Z" id="p17w113" />
<path d="M301.73 422.34l46.74 0l0 15.09l-46.74 0Z" id="p17w114" />
<path d="M352.09 422.34l11.26 0l0 15.09l-11.26 0Z" id="p17w115" />
<path d="M366.96 422.34l43.85 0l0 15.09l-43.85 0Z" id="p17w116" />
<path d="M124.07 439.01l52.71 0l0 15.09l-52.71 0Z" id="p17w117" />
<path d="M180.38 439.01l36.4 0l0 15.09l-36.4 0Z" id="p17w118" />
<path d="M220.39 439.01l35.41 0l0 15.09l-35.41 0Z" id="p17w119" />
<path d="M259.41 439.01l10.5 0l0 15.09l-10.5 0Z" id="p17w120" />
<path d="M273.52 439.01l19.39 0l0 15.09l-19.39 0Z" id="p17w121" />
<path d="M303.66 439.01l7.84 0l0 15.09l-7.84 0Z" id="p17w122" />
<path d="M315.11 439.01l40.59 0l0 15.09l-40.59 0Z" id="p17w123" />
<path d="M359.31 439.01l18.49 0l0 15.09l-18.49 0Z" id="p17w124" />
<path d="M381.42 439.01l15.89 0l0 15.09l-15.89 0Z" id="p17w125" />
<path d="M124.07 455.68l53.59 0l0 15.09l-53.59 0Z" id="p17w126" />
<path d="M181.27 455.68l35.41 0l0 15.09l-35.41 0Z" id="p17w127" />
<path d="M220.29 455.68l54.51 0l0 15.09l-54.51 0Z" id="p17w128" />
<path d="M278.41 455.68l13.91 0l0 15.09l-13.91 0Z" id="p17w129" />
<path d="M295.92 455.68l56.23 0l0 15.09l-56.23 0Z" id="p17w130" />
<path d="M355.76 455.68l50.21 0l0 15.09l-50.21 0Z" id="p17w131" />
<path d="M124.07 472.35l50.73 0l0 15.09l-50.73 0Z" id="p17w132" />
<path d="M178.41 472.35l37.93 0l0 15.09l-37.93 0Z" id="p17w133" />
<path d="M219.94 472.35l19.46 0l0 15.09l-19.46 0Z" id="p17w134" />
<path d="M243.01 472.35l51.78 0l0 15.09l-51.78 0Z" id="p17w135" />
<path d="M124.07 489.02l15.55 0l0 15.09l-15.55 0Z" id="p17w136" />
<path d="M143.23 489.02l30.55 0l0 15.09l-30.55 0Z" id="p17w137" />
<path d="M177.39 489.02l24.93 0l0 15.09l-24.93 0Z" id="p17w138" />
<path d="M205.93 489.02l15.89 0l0 15.09l-15.89 0Z" id="p17w139" />
<path d="M225.43 489.02l35.69 0l0 15.09l-35.69 0Z" id="p17w140" />
<path d="M264.73 489.02l40.93 0l0 15.09l-40.93 0Z" id="p17w141" />
<path d="M309.28 489.02l15.06 0l0 15.09l-15.06 0Z" id="p17w142" />
<path d="M327.95 489.02l37.19 0l0 15.09l-37.19 0Z" id="p17w143" />
<path d="M368.76 489.02l22.32 0l0 15.09l-22.32 0Z" id="p17w144" />
<path d="M401.82 489.02l15.15 0l0 15.09l-15.15 0Z" id="p17w145" />
<path d="M420.59 489.02l28.12 0l0 15.09l-28.12 0Z" id="p17w146" />
<path d="M124.07 505.69l22.31 0l0 15.09l-22.31 0Z" id="p17w147" />
<path d="M149.99 505.69l20.96 0l0 15.09l-20.96 0Z" id="p17w148" />
<path d="M174.56 505.69l67.22 0l0 15.09l-67.22 0Z" id="p17w149" />
<path d="M245.39 505.69l18.49 0l0 15.09l-18.49 0Z" id="p17w150" />
<path d="M267.5 505.69l63.27 0l0 15.09l-63.27 0Z" id="p17w151" />
<path d="M341.33 505.69l46.28 0l0 15.09l-46.28 0Z" id="p17w152" />
<path d="M391.22 505.69l7.84 0l0 15.09l-7.84 0Z" id="p17w153" />
<path d="M402.67 505.69l35.41 0l0 15.09l-35.41 0Z" id="p17w154" />
<path d="M124.07 522.35l22.03 0l0 15.09l-22.03 0Z" id="p17w155" />
<path d="M149.71 522.35l31.73 0l0 15.09l-31.73 0Z" id="p17w156" />
<path d="M185.05 522.35l15.15 0l0 15.09l-15.15 0Z" id="p17w157" />
<path d="M203.81 522.35l35.59 0l0 15.09l-35.59 0Z" id="p17w158" />
<path d="M243.01 522.35l37.19 0l0 15.09l-37.19 0Z" id="p17w159" />
<path d="M283.82 522.35l15.89 0l0 15.09l-15.89 0Z" id="p17w160" />
<path d="M303.31 522.35l39.08 0l0 15.09l-39.08 0Z" id="p17w161" />
<path d="M124.07 539.02l33.58 0l0 15.09l-33.58 0Z" id="p17w162" />
<path d="M161.26 539.02l10.42 0l0 15.09l-10.42 0Z" id="p17w163" />
<path d="M175.3 539.02l65.2 0l0 15.09l-65.2 0Z" id="p17w164" />
<path d="M244.1 539.02l53.04 0l0 15.09l-53.04 0Z" id="p17w165" />
<path d="M300.76 539.02l10.42 0l0 15.09l-10.42 0Z" id="p17w166" />
<path d="M314.79 539.02l33.48 0l0 15.09l-33.48 0Z" id="p17w167" />
<path d="M351.88 539.02l42.19 0l0 15.09l-42.19 0Z" id="p17w168" />
<path d="M397.69 539.02l27.61 0l0 15.09l-27.61 0Z" id="p17w169" />
<path d="M124.07 555.69l36.19 0l0 15.09l-36.19 0Z" id="p17w170" />
<path d="M163.87 555.69l18.04 0l0 15.09l-18.04 0Z" id="p17w171" />
<path d="M185.53 555.69l33.77 0l0 15.09l-33.77 0Z" id="p17w172" />
<path d="M222.91 555.69l48.35 0l0 15.09l-48.35 0Z" id="p17w173" />
<path d="M274.87 555.69l70.42 0l0 15.09l-70.42 0Z" id="p17w174" />
<path d="M348.9 555.69l15.89 0l0 15.09l-15.89 0Z" id="p17w175" />
<path d="M368.4 555.69l32.81 0l0 15.09l-32.81 0Z" id="p17w176" />
<path d="M404.82 555.69l18.49 0l0 15.09l-18.49 0Z" id="p17w177" />
<path d="M426.92 555.69l23.01 0l0 15.09l-23.01 0Z" id="p17w178" />
<path d="M124.07 572.36l15.89 0l0 15.09l-15.89 0Z" id="p17w179" />
<path d="M143.56 572.36l39.39 0l0 15.09l-39.39 0Z" id="p17w180" />
<path d="M186.57 572.36l28.62 0l0 15.09l-28.62 0Z" id="p17w181" />
<path d="M218.8 572.36l36 0l0 15.09l-36 0Z" id="p17w182" />
<path d="M258.41 572.36l15.74 0l0 15.09l-15.74 0Z" id="p17w183" />
<path d="M277.76 572.36l47.53 0l0 15.09l-47.53 0Z" id="p17w184" />
<path d="M328.9 572.36l32.64 0l0 15.09l-32.64 0Z" id="p17w185" />
<path d="M365.16 572.36l22.11 0l0 15.09l-22.11 0Z" id="p17w186" />
<path d="M138.67 597.37l27.3 0l0 15.09l-27.3 0Z" id="p17w187" />
<path d="M169.58 597.37l10.5 0l0 15.09l-10.5 0Z" id="p17w188" />
<path d="M183.69 597.37l18.26 0l0 15.09l-18.26 0Z" id="p17w189" />
<path d="M205.56 597.37l13.91 0l0 15.09l-13.91 0Z" id="p17w190" />
<path d="M223.08 597.37l28.13 0l0 15.09l-28.13 0Z" id="p17w191" />
<path d="M254.82 597.37l13.91 0l0 15.09l-13.91 0Z" id="p17w192" />
<path d="M272.34 597.37l72.86 0l0 15.09l-72.86 0Z" id="p17w193" />
<path d="M348.81 597.37l15.89 0l0 15.09l-15.89 0Z" id="p17w194" />
<path d="M368.31 597.37l30.02 0l0 15.09l-30.02 0Z" id="p17w195" />
<path d="M401.94 597.37l19.84 0l0 15.09l-19.84 0Z" id="p17w196" />
<path d="M124.07 614.04l44.63 0l0 15.09l-44.63 0Z" id="p17w197" />
<path d="M172.31 614.04l19.63 0l0 15.09l-19.63 0Z" id="p17w198" />
<path d="M195.55 614.04l16.5 0l0 15.09l-16.5 0Z" id="p17w199" />
<path d="M215.66 614.04l50.23 0l0 15.09l-50.23 0Z" id="p17w200" />
<path d="M269.5 614.04l24.6 0l0 15.09l-24.6 0Z" id="p17w201" />
<path d="M297.71 614.04l13.22 0l0 15.09l-13.22 0Z" id="p17w202" />
<path d="M314.55 614.04l19.84 0l0 15.09l-19.84 0Z" id="p17w203" />
<path d="M338 614.04l52.29 0l0 15.09l-52.29 0Z" id="p17w204" />
<path d="M393.91 614.04l15.89 0l0 15.09l-15.89 0Z" id="p17w205" />
<path d="M124.07 630.71l59.35 0l0 15.09l-59.35 0Z" id="p17w206" />
<path d="M187.03 630.71l32.19 0l0 15.09l-32.19 0Z" id="p17w207" />
<path d="M222.83 630.71l11.26 0l0 15.09l-11.26 0Z" id="p17w208" />
<path d="M237.7 630.71l36.4 0l0 15.09l-36.4 0Z" id="p17w209" />
<path d="M277.71 630.71l40.93 0l0 15.09l-40.93 0Z" id="p17w210" />
<path d="M322.26 630.71l22.03 0l0 15.09l-22.03 0Z" id="p17w211" />
<path d="M347.9 630.71l50.6 0l0 15.09l-50.6 0Z" id="p17w212" />
<path d="M402.11 630.71l32.12 0l0 15.09l-32.12 0Z" id="p17w213" />
<path d="M124.07 647.38l31.89 0l0 15.09l-31.89 0Z" id="p17w214" />
<path d="M159.56 647.38l42.71 0l0 15.09l-42.71 0Z" id="p17w215" />
<path d="M205.88 647.38l30.82 0l0 15.09l-30.82 0Z" id="p17w216" />
<path d="M240.31 647.38l27.23 0l0 15.09l-27.23 0Z" id="p17w217" />
<path d="M271.16 647.38l23.61 0l0 15.09l-23.61 0Z" id="p17w218" />
<path d="M298.38 647.38l44.44 0l0 15.09l-44.44 0Z" id="p17w219" />
<path d="M346.43 647.38l30.82 0l0 15.09l-30.82 0Z" id="p17w220" />
<path d="M380.86 647.38l33.5 0l0 15.09l-33.5 0Z" id="p17w221" />
<path d="M124.07 664.05l49.15 0l0 15.09l-49.15 0Z" id="p17w222" />
<path d="M176.82 664.05l37.27 0l0 15.09l-37.27 0Z" id="p17w223" />
<path d="M217.71 664.05l14.86 0l0 15.09l-14.86 0Z" id="p17w224" />
<path d="M236.18 664.05l46.59 0l0 15.09l-46.59 0Z" id="p17w225" />
<path d="M293.33 664.05l15.55 0l0 15.09l-15.55 0Z" id="p17w226" />
<path d="M312.49 664.05l28.18 0l0 15.09l-28.18 0Z" id="p17w227" />
<path d="M344.29 664.05l36.95 0l0 15.09l-36.95 0Z" id="p17w228" />
<path d="M384.85 664.05l21 0l0 15.09l-21 0Z" id="p17w229" />
<path d="M409.46 664.05l26.35 0l0 15.09l-26.35 0Z" id="p17w230" />
<path d="M124.07 680.72l37.57 0l0 15.09l-37.57 0Z" id="p17w231" />
<path d="M165.25 680.72l21 0l0 15.09l-21 0Z" id="p17w232" />
<path d="M189.86 680.72l39.93 0l0 15.09l-39.93 0Z" id="p17w233" />
<path d="M233.4 680.72l24.93 0l0 15.09l-24.93 0Z" id="p17w234" />
<path d="M261.94 680.72l17.34 0l0 15.09l-17.34 0Z" id="p17w235" />
<path d="M282.89 680.72l23.21 0l0 15.09l-23.21 0Z" id="p17w236" />
<path d="M309.71 680.72l27.16 0l0 15.09l-27.16 0Z" id="p17w237" />
<path d="M340.48 680.72l17.34 0l0 15.09l-17.34 0Z" id="p17w238" />
<path d="M361.43 680.72l86.84 0l0 15.09l-86.84 0Z" id="p17w239" />
<path d="M124.07 697.39l19.52 0l0 15.09l-19.52 0Z" id="p17w240" />
<path d="M147.2 697.39l66.43 0l0 15.09l-66.43 0Z" id="p17w241" />
<path d="M217.24 697.39l29.98 0l0 15.09l-29.98 0Z" id="p17w242" />
<path d="M250.84 697.39l10.42 0l0 15.09l-10.42 0Z" id="p17w243" />
<path d="M264.87 697.39l28.57 0l0 15.09l-28.57 0Z" id="p17w244" />
<path d="M297.05 697.39l21 0l0 15.09l-21 0Z" id="p17w245" />
<path d="M321.67 697.39l10.42 0l0 15.09l-10.42 0Z" id="p17w246" />
<path d="M335.7 697.39l65.52 0l0 15.09l-65.52 0Z" id="p17w247" />
<path d="M404.83 697.39l43.85 0l0 15.09l-43.85 0Z" id="p17w248" />
<path d="M124.07 714.05l11.88 0l0 15.09l-11.88 0Z" id="p17w249" />
<path d="M139.55 714.05l38.62 0l0 15.09l-38.62 0Z" id="p17w250" />
<path d="M138.67 739.06l13.07 0l0 15.09l-13.07 0Z" id="p17w251" />
<path d="M155.35 739.06l18.26 0l0 15.09l-18.26 0Z" id="p17w252" />
<path d="M177.22 739.06l13.91 0l0 15.09l-13.91 0Z" id="p17w253" />
<path d="M194.74 739.06l28.13 0l0 15.09l-28.13 0Z" id="p17w254" />
<path d="M226.48 739.06l11.95 0l0 15.09l-11.95 0Z" id="p17w255" />
<path d="M242.05 739.06l39.93 0l0 15.09l-39.93 0Z" id="p17w256" />
<path d="M285.59 739.06l27.23 0l0 15.09l-27.23 0Z" id="p17w257" />
<path d="M316.44 739.06l10.5 0l0 15.09l-10.5 0Z" id="p17w258" />
<path d="M330.55 739.06l47.53 0l0 15.09l-47.53 0Z" id="p17w259" />
<path d="M381.69 739.06l58.71 0l0 15.09l-58.71 0Z" id="p17w260" />
<path d="M124.07 755.73l53.46 0l0 15.09l-53.46 0Z" id="p17w261" />
<path d="M181.14 755.73l50.8 0l0 15.09l-50.8 0Z" id="p17w262" />
<path d="M242.69 755.73l43.56 0l0 15.09l-43.56 0Z" id="p17w263" />
<path d="M289.86 755.73l15.74 0l0 15.09l-15.74 0Z" id="p17w264" />
<path d="M309.21 755.73l51.42 0l0 15.09l-51.42 0Z" id="p17w265" />
<path d="M364.24 755.73l13.91 0l0 15.09l-13.91 0Z" id="p17w266" />
<path d="M381.76 755.73l52.55 0l0 15.09l-52.55 0Z" id="p17w267" />
<path d="M124.07 772.4l13.91 0l0 15.09l-13.91 0Z" id="p17w268" />
<path d="M141.58 772.4l82.07 0l0 15.09l-82.07 0Z" id="p17w269" />
<path d="M227.27 772.4l32.19 0l0 15.09l-32.19 0Z" id="p17w270" />
<path d="M263.07 772.4l11.26 0l0 15.09l-11.26 0Z" id="p17w271" />
<path d="M277.94 772.4l20.54 0l0 15.09l-20.54 0Z" id="p17w272" />
<path d="M302.09 772.4l41.28 0l0 15.09l-41.28 0Z" id="p17w273" />
<path d="M346.98 772.4l19.84 0l0 15.09l-19.84 0Z" id="p17w274" />
<path d="M370.44 772.4l44.65 0l0 15.09l-44.65 0Z" id="p17w275" />
<path d="M124.07 789.07l48.71 0l0 15.09l-48.71 0Z" id="p17w276" />
<path d="M176.39 789.07l15.74 0l0 15.09l-15.74 0Z" id="p17w277" />
<path d="M195.74 789.07l50.47 0l0 15.09l-50.47 0Z" id="p17w278" />
<path d="M249.82 789.07l11.26 0l0 15.09l-11.26 0Z" id="p17w279" />
<path d="M264.69 789.07l24.24 0l0 15.09l-24.24 0Z" id="p17w280" />
<path d="M302.65 789.07l32.09 0l0 15.09l-32.09 0Z" id="p17w281" />
<path d="M338.35 789.07l30.82 0l0 15.09l-30.82 0Z" id="p17w282" />
<path d="M382.88 789.07l21.95 0l0 15.09l-21.95 0Z" id="p17w283" />
<path d="M424.02 789.07l15.01 0l0 15.09l-15.01 0Z" id="p17w284" />
<path d="M124.07 805.74l20.2 0l0 15.09l-20.2 0Z" id="p17w285" />
<path d="M147.88 805.74l17.93 0l0 15.09l-17.93 0Z" id="p17w286" />
<path d="M169.42 805.74l38.17 0l0 15.09l-38.17 0Z" id="p17w287" />
<path d="M226.61 805.74l24.39 0l0 15.09l-24.39 0Z" id="p17w288" />
<path d="M254.62 805.74l15.06 0l0 15.09l-15.06 0Z" id="p17w289" />
<path d="M273.29 805.74l33.26 0l0 15.09l-33.26 0Z" id="p17w290" />
<path d="M310.16 805.74l19.29 0l0 15.09l-19.29 0Z" id="p17w291" />
<path d="M333.07 805.74l33.84 0l0 15.09l-33.84 0Z" id="p17w292" />
<path d="M370.52 805.74l13.91 0l0 15.09l-13.91 0Z" id="p17w293" />
<path d="M388.03 805.74l56.9 0l0 15.09l-56.9 0Z" id="p17w294" />
<path d="M124.07 822.41l7.84 0l0 15.09l-7.84 0Z" id="p17w295" />
<path d="M145.83 822.41l28.12 0l0 15.09l-28.12 0Z" id="p17w296" />
<path d="M177.56 822.41l15.74 0l0 15.09l-15.74 0Z" id="p17w297" />
<path d="M196.91 822.41l51.42 0l0 15.09l-51.42 0Z" id="p17w298" />
<path d="M251.94 822.41l15.06 0l0 15.09l-15.06 0Z" id="p17w299" />
<path d="M270.62 822.41l25.14 0l0 15.09l-25.14 0Z" id="p17w300" />
<path d="M299.37 822.41l13.91 0l0 15.09l-13.91 0Z" id="p17w301" />
<path d="M316.89 822.41l38.63 0l0 15.09l-38.63 0Z" id="p17w302" />
<path d="M359.13 822.41l18.93 0l0 15.09l-18.93 0Z" id="p17w303" />
<path d="M381.67 822.41l35.48 0l0 15.09l-35.48 0Z" id="p17w304" />
<path d="M124.07 839.08l59.97 0l0 15.09l-59.97 0Z" id="p17w305" />
<path d="M187.65 839.08l50.8 0l0 15.09l-50.8 0Z" id="p17w306" />
<path d="M249.19 839.08l43.56 0l0 15.09l-43.56 0Z" id="p17w307" />
<path d="M296.36 839.08l24.92 0l0 15.09l-24.92 0Z" id="p17w308" />
<path d="M324.89 839.08l15.06 0l0 15.09l-15.06 0Z" id="p17w309" />
<path d="M343.57 839.08l43.47 0l0 15.09l-43.47 0Z" id="p17w310" />
<path d="M390.64 839.08l13.91 0l0 15.09l-13.91 0Z" id="p17w311" />
<path d="M124.07 855.75l49.42 0l0 15.09l-49.42 0Z" id="p17w312" />
<path d="M177.09 855.75l22.31 0l0 15.09l-22.31 0Z" id="p17w313" />
<path d="M203.02 855.75l19.68 0l0 15.09l-19.68 0Z" id="p17w314" />
<path d="M226.3 855.75l19.01 0l0 15.09l-19.01 0Z" id="p17w315" />
<path d="M248.92 855.75l31.36 0l0 15.09l-31.36 0Z" id="p17w316" />
<path d="M283.89 855.75l10.5 0l0 15.09l-10.5 0Z" id="p17w317" />
<path d="M298.01 855.75l27.18 0l0 15.09l-27.18 0Z" id="p17w318" />
<path d="M328.8 855.75l26.64 0l0 15.09l-26.64 0Z" id="p17w319" />
<path d="M359.05 855.75l56.51 0l0 15.09l-56.51 0Z" id="p17w320" />
<path d="M124.07 872.42l55.53 0l0 15.09l-55.53 0Z" id="p17w321" />
<path d="M183.21 872.42l13.07 0l0 15.09l-13.07 0Z" id="p17w322" />
<path d="M199.89 872.42l18.26 0l0 15.09l-18.26 0Z" id="p17w323" />
<path d="M231.87 872.42l55.71 0l0 15.09l-55.71 0Z" id="p17w324" />
<path d="M291.19 872.42l7.84 0l0 15.09l-7.84 0Z" id="p17w325" />
<path d="M312.95 872.42l28.12 0l0 15.09l-28.12 0Z" id="p17w326" />
<path d="M344.68 872.42l19.29 0l0 15.09l-19.29 0Z" id="p17w327" />
<path d="M367.59 872.42l56.19 0l0 15.09l-56.19 0Z" id="p17w328" />
<path d="M427.39 872.42l18.49 0l0 15.09l-18.49 0Z" id="p17w329" />
<path d="M124.07 889.09l36.19 0l0 15.09l-36.19 0Z" id="p17w330" />
<path d="M163.87 889.09l15.89 0l0 15.09l-15.89 0Z" id="p17w331" />
<path d="M183.37 889.09l67.46 0l0 15.09l-67.46 0Z" id="p17w332" />
<path d="M254.44 889.09l75.52 0l0 15.09l-75.52 0Z" id="p17w333" />
<path d="M333.57 889.09l13.91 0l0 15.09l-13.91 0Z" id="p17w334" />
<path d="M351.08 889.09l66.43 0l0 15.09l-66.43 0Z" id="p17w335" />
<path d="M433.4 889.09l10.42 0l0 15.09l-10.42 0Z" id="p17w336" />
<path d="M124.07 905.75l16.23 0l0 15.09l-16.23 0Z" id="p17w337" />
<path d="M143.91 905.75l15.06 0l0 15.09l-15.06 0Z" id="p17w338" />
<path d="M162.58 905.75l21.82 0l0 15.09l-21.82 0Z" id="p17w339" />
<path d="M188.02 905.75l15.89 0l0 15.09l-15.89 0Z" id="p17w340" />
<path d="M207.52 905.75l35.69 0l0 15.09l-35.69 0Z" id="p17w341" />
<path d="M246.82 905.75l40.93 0l0 15.09l-40.93 0Z" id="p17w342" />
<path d="M291.36 905.75l50.6 0l0 15.09l-50.6 0Z" id="p17w343" />
<path d="M352.7 905.75l15.74 0l0 15.09l-15.74 0Z" id="p17w344" />
<path d="M372.06 905.75l31.72 0l0 15.09l-31.72 0Z" id="p17w345" />
<path d="M124.07 922.42l55.96 0l0 15.09l-55.96 0Z" id="p17w346" />
<path d="M183.64 922.42l43.85 0l0 15.09l-43.85 0Z" id="p17w347" />
<path d="M231.1 922.42l16.14 0l0 15.09l-16.14 0Z" id="p17w348" />
<path d="M250.85 922.42l13.22 0l0 15.09l-13.22 0Z" id="p17w349" />
<path d="M267.69 922.42l61.28 0l0 15.09l-61.28 0Z" id="p17w350" />
<path d="M332.58 922.42l12.58 0l0 15.09l-12.58 0Z" id="p17w351" />
<path d="M348.77 922.42l71.12 0l0 15.09l-71.12 0Z" id="p17w352" />
<path d="M54.81 113.66l19.48 0l0 12.3l-19.48 0Z" id="p17w353" />
<path d="M68.27 39.02l46.09 0l0 15.38l-46.09 0Z" id="p17w354" />
<path d="M152.94 38.6l45.75 0l0 16.09l-45.75 0Z" id="p17w355" />
<path d="M251.41 39.02l46.59 0l0 15.38l-46.59 0Z" id="p17w356" />
<path d="M350.65 39.02l32.54 0l0 15.38l-32.54 0Z" id="p17w357" />
<path d="M659.8 983l31.3 0l0 12.23l-31.3 0Z" id="p17w358" />
</svg>
