<?xml version="1.0" encoding="UTF-8"?>
<svg xmlns="http://www.w3.org/2000/svg" xmlns:xlink="http://www.w3.org/1999/xlink" version="1.1" baseProfile="full" width="768" height="1024" viewBox="0,0,768,1024" preserveAspectRatio="xMinYMin meet" >
<style type="text/css">
<![CDATA[
path {fill-opacity: 0.5;fill: #00aeef;visibility: hidden;}
]]>
</style>
<path d="M124.06 107.98l23.83 0l0 18.84l-23.83 0Z" id="p20w1" />
<path d="M151.54 107.98l18.36 0l0 18.84l-18.36 0Z" id="p20w2" />
<path d="M173.54 107.98l34.36 0l0 18.84l-34.36 0Z" id="p20w3" />
<path d="M221.98 106.48l22.02 0l0 20.87l-22.02 0Z" id="p20w4" />
<path d="M248.47 106.48l21.51 0l0 20.87l-21.51 0Z" id="p20w5" />
<path d="M274.45 106.48l22.02 0l0 20.87l-22.02 0Z" id="p20w6" />
<path d="M124.06 139.19l43.86 0l0 14.52l-43.86 0Z" id="p20w7" />
<path d="M171.13 139.19l11.22 0l0 14.52l-11.22 0Z" id="p20w8" />
<path d="M185.56 139.19l39.56 0l0 14.52l-39.56 0Z" id="p20w9" />
<path d="M228.32 139.19l15.5 0l0 14.52l-15.5 0Z" id="p20w10" />
<path d="M247.03 139.19l28.06 0l0 14.52l-28.06 0Z" id="p20w11" />
<path d="M278.3 139.19l25.4 0l0 14.52l-25.4 0Z" id="p20w12" />
<path d="M306.9 139.19l9.89 0l0 14.52l-9.89 0Z" id="p20w13" />
<path d="M319.99 139.19l19.79 0l0 14.52l-19.79 0Z" id="p20w14" />
<path d="M370.16 139.19l26.73 0l0 14.52l-26.73 0Z" id="p20w15" />
<path d="M400.1 139.19l14.18 0l0 14.52l-14.18 0Z" id="p20w16" />
<path d="M417.48 139.19l44.64 0l0 14.52l-44.64 0Z" id="p20w17" />
<path d="M143.75 164.2l46.51 0l0 14.52l-46.51 0Z" id="p20w18" />
<path d="M193.48 164.2l9.89 0l0 14.52l-9.89 0Z" id="p20w19" />
<path d="M206.57 164.2l39.51 0l0 14.52l-39.51 0Z" id="p20w20" />
<path d="M249.28 164.2l13.9 0l0 14.52l-13.9 0Z" id="p20w21" />
<path d="M266.39 164.2l38.49 0l0 14.52l-38.49 0Z" id="p20w22" />
<path d="M308.09 164.2l15.5 0l0 14.52l-15.5 0Z" id="p20w23" />
<path d="M326.79 164.2l35 0l0 14.52l-35 0Z" id="p20w24" />
<path d="M365 164.2l48.2 0l0 14.52l-48.2 0Z" id="p20w25" />
<path d="M416.41 164.2l12.29 0l0 14.52l-12.29 0Z" id="p20w26" />
<path d="M431.91 164.2l27.26 0l0 14.52l-27.26 0Z" id="p20w27" />
<path d="M143.75 180.87l40.64 0l0 14.52l-40.64 0Z" id="p20w28" />
<path d="M187.6 180.87l21.4 0l0 14.52l-21.4 0Z" id="p20w29" />
<path d="M222.09 180.87l24.05 0l0 14.52l-24.05 0Z" id="p20w30" />
<path d="M249.35 180.87l37.68 0l0 14.52l-37.68 0Z" id="p20w31" />
<path d="M290.24 180.87l11.22 0l0 14.52l-11.22 0Z" id="p20w32" />
<path d="M304.67 180.87l37.42 0l0 14.52l-37.42 0Z" id="p20w33" />
<path d="M143.75 197.54l14.7 0l0 14.52l-14.7 0Z" id="p20w34" />
<path d="M161.67 197.54l80.12 0l0 14.52l-80.12 0Z" id="p20w35" />
<path d="M244.99 197.54l31.28 0l0 14.52l-31.28 0Z" id="p20w36" />
<path d="M279.48 197.54l40.09 0l0 14.52l-40.09 0Z" id="p20w37" />
<path d="M322.78 197.54l19.79 0l0 14.52l-19.79 0Z" id="p20w38" />
<path d="M345.77 197.54l37.68 0l0 14.52l-37.68 0Z" id="p20w39" />
<path d="M143.75 214.21l52.12 0l0 14.52l-52.12 0Z" id="p20w40" />
<path d="M198.65 214.21l37.7 0l0 14.52l-37.7 0Z" id="p20w41" />
<path d="M239.55 214.21l25.65 0l0 14.52l-25.65 0Z" id="p20w42" />
<path d="M268.41 214.21l13.9 0l0 14.52l-13.9 0Z" id="p20w43" />
<path d="M285.51 214.21l33.95 0l0 14.52l-33.95 0Z" id="p20w44" />
<path d="M337.73 214.21l26.73 0l0 14.52l-26.73 0Z" id="p20w45" />
<path d="M367.67 214.21l31.28 0l0 14.52l-31.28 0Z" id="p20w46" />
<path d="M408.76 214.21l12.41 0l0 14.52l-12.41 0Z" id="p20w47" />
<path d="M424.37 214.21l11.22 0l0 14.52l-11.22 0Z" id="p20w48" />
<path d="M438.8 214.21l53.19 0l0 14.52l-53.19 0Z" id="p20w49" />
<path d="M156.33 230.88l26.21 0l0 14.52l-26.21 0Z" id="p20w50" />
<path d="M185.75 230.88l23.51 0l0 14.52l-23.51 0Z" id="p20w51" />
<path d="M212.47 230.88l25.38 0l0 14.52l-25.38 0Z" id="p20w52" />
<path d="M241.06 230.88l25.67 0l0 14.52l-25.67 0Z" id="p20w53" />
<path d="M269.94 230.88l28.34 0l0 14.52l-28.34 0Z" id="p20w54" />
<path d="M301.49 230.88l35.29 0l0 14.52l-35.29 0Z" id="p20w55" />
<path d="M339.99 230.88l25.67 0l0 14.52l-25.67 0Z" id="p20w56" />
<path d="M368.87 230.88l26.99 0l0 14.52l-26.99 0Z" id="p20w57" />
<path d="M408.95 230.88l60.72 0l0 14.52l-60.72 0Z" id="p20w58" />
<path d="M156.77 247.55l21.4 0l0 14.52l-21.4 0Z" id="p20w59" />
<path d="M181.37 247.55l33.67 0l0 14.52l-33.67 0Z" id="p20w60" />
<path d="M218.25 247.55l21.37 0l0 14.52l-21.37 0Z" id="p20w61" />
<path d="M242.83 247.55l62.53 0l0 14.52l-62.53 0Z" id="p20w62" />
<path d="M124.06 291.38l20.06 0l0 18.84l-20.06 0Z" id="p20w63" />
<path d="M160.26 291.38l40.67 0l0 18.84l-40.67 0Z" id="p20w64" />
<path d="M204.58 291.38l40.25 0l0 18.84l-40.25 0Z" id="p20w65" />
<path d="M248.48 291.38l13.62 0l0 18.84l-13.62 0Z" id="p20w66" />
<path d="M265.76 291.38l31.31 0l0 18.84l-31.31 0Z" id="p20w67" />
<path d="M124.06 322.59l51.89 0l0 14.52l-51.89 0Z" id="p20w68" />
<path d="M179.16 322.59l15.5 0l0 14.52l-15.5 0Z" id="p20w69" />
<path d="M197.86 322.59l65.22 0l0 14.52l-65.22 0Z" id="p20w70" />
<path d="M266.28 322.59l52.48 0l0 14.52l-52.48 0Z" id="p20w71" />
<path d="M321.97 322.59l14.18 0l0 14.52l-14.18 0Z" id="p20w72" />
<path d="M339.36 322.59l31.01 0l0 14.52l-31.01 0Z" id="p20w73" />
<path d="M124.06 339.26l22.73 0l0 14.52l-22.73 0Z" id="p20w74" />
<path d="M150 339.26l41.45 0l0 14.52l-41.45 0Z" id="p20w75" />
<path d="M194.65 339.26l9.89 0l0 14.52l-9.89 0Z" id="p20w76" />
<path d="M207.75 339.26l28.26 0l0 14.52l-28.26 0Z" id="p20w77" />
<path d="M239.21 339.26l25.67 0l0 14.52l-25.67 0Z" id="p20w78" />
<path d="M268.09 339.26l43.31 0l0 14.52l-43.31 0Z" id="p20w79" />
<path d="M314.61 339.26l13.9 0l0 14.52l-13.9 0Z" id="p20w80" />
<path d="M331.71 339.19l23.4 0l0 14.6l-23.4 0Z" id="p20w81" />
<path d="M367.95 339.19l37.95 0l0 14.6l-37.95 0Z" id="p20w82" />
<path d="M154.71 372.6l21.38 0l0 14.52l-21.38 0Z" id="p20w83" />
<path d="M179.3 372.6l34.21 0l0 14.52l-34.21 0Z" id="p20w84" />
<path d="M226.61 372.6l29.67 0l0 14.52l-29.67 0Z" id="p20w85" />
<path d="M259.49 372.6l15.5 0l0 14.52l-15.5 0Z" id="p20w86" />
<path d="M278.19 372.6l35 0l0 14.52l-35 0Z" id="p20w87" />
<path d="M316.4 372.6l40.09 0l0 14.52l-40.09 0Z" id="p20w88" />
<path d="M359.69 372.6l13.9 0l0 14.52l-13.9 0Z" id="p20w89" />
<path d="M376.8 372.6l21.38 0l0 14.52l-21.38 0Z" id="p20w90" />
<path d="M401.39 372.6l39.51 0l0 14.52l-39.51 0Z" id="p20w91" />
<path d="M444.1 372.6l13.9 0l0 14.52l-13.9 0Z" id="p20w92" />
<path d="M461.21 372.6l38.49 0l0 14.52l-38.49 0Z" id="p20w93" />
<path d="M143.75 389.27l12.57 0l0 14.52l-12.57 0Z" id="p20w94" />
<path d="M159.53 389.27l13.9 0l0 14.52l-13.9 0Z" id="p20w95" />
<path d="M176.63 389.27l24.33 0l0 14.52l-24.33 0Z" id="p20w96" />
<path d="M204.17 389.27l19.51 0l0 14.52l-19.51 0Z" id="p20w97" />
<path d="M226.88 389.27l14.18 0l0 14.52l-14.18 0Z" id="p20w98" />
<path d="M244.27 389.27l35.27 0l0 14.52l-35.27 0Z" id="p20w99" />
<path d="M282.74 389.27l24.33 0l0 14.52l-24.33 0Z" id="p20w100" />
<path d="M310.28 389.27l59.34 0l0 14.52l-59.34 0Z" id="p20w101" />
<path d="M372.83 389.27l15.5 0l0 14.52l-15.5 0Z" id="p20w102" />
<path d="M391.53 389.27l43.29 0l0 14.52l-43.29 0Z" id="p20w103" />
<path d="M438.03 389.27l25.4 0l0 14.52l-25.4 0Z" id="p20w104" />
<path d="M466.64 389.27l22.99 0l0 14.52l-22.99 0Z" id="p20w105" />
<path d="M502.46 389.27l37.42 0l0 14.52l-37.42 0Z" id="p20w106" />
<path d="M124.06 416.06l36.45 0l0 12.29l-36.45 0Z" id="p20w107" />
<path d="M177.23 414.29l15.77 0l0 14.52l-15.77 0Z" id="p20w108" />
<path d="M206.1 414.29l14.18 0l0 14.52l-14.18 0Z" id="p20w109" />
<path d="M223.48 414.29l46.5 0l0 14.52l-46.5 0Z" id="p20w110" />
<path d="M177.23 430.96l15.77 0l0 14.52l-15.77 0Z" id="p20w111" />
<path d="M206.1 430.96l29.39 0l0 14.52l-29.39 0Z" id="p20w112" />
<path d="M335.56 422.55l23.4 0l0 14.6l-23.4 0Z" id="p20w113" />
<path d="M362.17 422.55l10.02 0l0 14.6l-10.02 0Z" id="p20w114" />
<path d="M380.59 422.55l6.07 0l0 14.6l-6.07 0Z" id="p20w115" />
<path d="M335.56 447.57l30.08 0l0 14.6l-30.08 0Z" id="p20w116" />
<path d="M368.85 447.57l10.03 0l0 14.6l-10.03 0Z" id="p20w117" />
<path d="M387.28 447.57l6.07 0l0 14.6l-6.07 0Z" id="p20w118" />
<path d="M335.56 472.58l24.46 0l0 14.6l-24.46 0Z" id="p20w119" />
<path d="M363.22 472.58l15.76 0l0 14.6l-15.76 0Z" id="p20w120" />
<path d="M335.56 497.59l35.82 0l0 14.6l-35.82 0Z" id="p20w121" />
<path d="M374.59 497.59l15.76 0l0 14.6l-15.76 0Z" id="p20w122" />
<path d="M433.23 414.29l29.69 0l0 14.52l-29.69 0Z" id="p20w123" />
<path d="M433.23 430.96l39.82 0l0 14.52l-39.82 0Z" id="p20w124" />
<path d="M433.23 447.63l42.49 0l0 14.52l-42.49 0Z" id="p20w125" />
<path d="M478.93 447.63l13.9 0l0 14.52l-13.9 0Z" id="p20w126" />
<path d="M496.03 447.63l9.89 0l0 14.52l-9.89 0Z" id="p20w127" />
<path d="M509.13 447.63l25.13 0l0 14.52l-25.13 0Z" id="p20w128" />
<path d="M433.23 464.3l41.71 0l0 14.52l-41.71 0Z" id="p20w129" />
<path d="M433.23 480.97l37.68 0l0 14.52l-37.68 0Z" id="p20w130" />
<path d="M433.23 497.64l61.65 0l0 14.52l-61.65 0Z" id="p20w131" />
<path d="M433.23 514.31l36.35 0l0 14.52l-36.35 0Z" id="p20w132" />
<path d="M124.06 457.75l23.81 0l0 12.29l-23.81 0Z" id="p20w133" />
<path d="M177.23 455.97l15.6 0l0 14.52l-15.6 0Z" id="p20w134" />
<path d="M196.04 455.97l32.07 0l0 14.52l-32.07 0Z" id="p20w135" />
<path d="M177.23 472.64l15.6 0l0 14.52l-15.6 0Z" id="p20w136" />
<path d="M196.04 472.64l24.33 0l0 14.52l-24.33 0Z" id="p20w137" />
<path d="M223.57 472.64l40.1 0l0 14.52l-40.1 0Z" id="p20w138" />
<path d="M266.88 472.64l25.4 0l0 14.52l-25.4 0Z" id="p20w139" />
<path d="M124.06 499.43l29.46 0l0 12.29l-29.46 0Z" id="p20w140" />
<path d="M177.23 497.65l10.43 0l0 14.52l-10.43 0Z" id="p20w141" />
<path d="M190.87 497.65l19.07 0l0 14.52l-19.07 0Z" id="p20w142" />
<path d="M213.15 497.65l19.51 0l0 14.52l-19.51 0Z" id="p20w143" />
<path d="M235.86 497.65l18.7 0l0 14.52l-18.7 0Z" id="p20w144" />
<path d="M257.77 497.65l9.89 0l0 14.52l-9.89 0Z" id="p20w145" />
<path d="M270.87 497.65l18.19 0l0 14.52l-18.19 0Z" id="p20w146" />
<path d="M177.23 514.32l15.6 0l0 14.52l-15.6 0Z" id="p20w147" />
<path d="M196.04 514.32l24.33 0l0 14.52l-24.33 0Z" id="p20w148" />
<path d="M223.57 514.32l31.74 0l0 14.52l-31.74 0Z" id="p20w149" />
<path d="M258.53 514.32l25.4 0l0 14.52l-25.4 0Z" id="p20w150" />
<path d="M143.76 539.34l11.5 0l0 14.52l-11.5 0Z" id="p20w151" />
<path d="M158.46 539.34l25.67 0l0 14.52l-25.67 0Z" id="p20w152" />
<path d="M195.63 539.34l33.95 0l0 14.52l-33.95 0Z" id="p20w153" />
<path d="M232.79 539.34l13.9 0l0 14.52l-13.9 0Z" id="p20w154" />
<path d="M249.89 539.34l9.89 0l0 14.52l-9.89 0Z" id="p20w155" />
<path d="M262.99 539.34l46.77 0l0 14.52l-46.77 0Z" id="p20w156" />
<path d="M312.96 539.34l52.94 0l0 14.52l-52.94 0Z" id="p20w157" />
<path d="M369.11 539.34l25.4 0l0 14.52l-25.4 0Z" id="p20w158" />
<path d="M397.71 539.34l28.87 0l0 14.52l-28.87 0Z" id="p20w159" />
<path d="M429.79 539.34l33.67 0l0 14.52l-33.67 0Z" id="p20w160" />
<path d="M473.08 539.34l30.99 0l0 14.52l-30.99 0Z" id="p20w161" />
<path d="M507.28 539.34l36.61 0l0 14.52l-36.61 0Z" id="p20w162" />
<path d="M547.1 539.34l43.29 0l0 14.52l-43.29 0Z" id="p20w163" />
<path d="M143.76 556.01l11.22 0l0 14.52l-11.22 0Z" id="p20w164" />
<path d="M158.18 556.01l39.29 0l0 14.52l-39.29 0Z" id="p20w165" />
<path d="M200.69 556.01l22.99 0l0 14.52l-22.99 0Z" id="p20w166" />
<path d="M236.51 556.01l37.42 0l0 14.52l-37.42 0Z" id="p20w167" />
<path d="M124.06 624.84l32.93 0l0 18.84l-32.93 0Z" id="p20w168" />
<path d="M160.64 624.84l52.32 0l0 18.84l-52.32 0Z" id="p20w169" />
<path d="M224.07 624.84l30.91 0l0 18.84l-30.91 0Z" id="p20w170" />
<path d="M258.64 624.84l66.01 0l0 18.84l-66.01 0Z" id="p20w171" />
<path d="M124.06 656.05l57.21 0l0 14.52l-57.21 0Z" id="p20w172" />
<path d="M184.47 656.05l20.85 0l0 14.52l-20.85 0Z" id="p20w173" />
<path d="M208.54 656.05l19.51 0l0 14.52l-19.51 0Z" id="p20w174" />
<path d="M231.25 656.05l64.86 0l0 14.52l-64.86 0Z" id="p20w175" />
<path d="M299.32 656.05l55.16 0l0 14.52l-55.16 0Z" id="p20w176" />
<path d="M143.75 681.06l39.31 0l0 14.52l-39.31 0Z" id="p20w177" />
<path d="M186.27 681.06l14.18 0l0 14.52l-14.18 0Z" id="p20w178" />
<path d="M203.65 681.06l34.38 0l0 14.52l-34.38 0Z" id="p20w179" />
<path d="M251.13 681.06l28.87 0l0 14.52l-28.87 0Z" id="p20w180" />
<path d="M283.2 681.06l81.27 0l0 14.52l-81.27 0Z" id="p20w181" />
<path d="M143.75 697.73l43.83 0l0 14.52l-43.83 0Z" id="p20w182" />
<path d="M190.8 697.73l11.22 0l0 14.52l-11.22 0Z" id="p20w183" />
<path d="M205.22 697.73l65.15 0l0 14.52l-65.15 0Z" id="p20w184" />
<path d="M273.58 697.73l20.85 0l0 14.52l-20.85 0Z" id="p20w185" />
<path d="M297.65 697.73l41.97 0l0 14.52l-41.97 0Z" id="p20w186" />
<path d="M143.75 714.4l63.34 0l0 14.52l-63.34 0Z" id="p20w187" />
<path d="M210.31 714.4l46.78 0l0 14.52l-46.78 0Z" id="p20w188" />
<path d="M260.29 714.4l14.18 0l0 14.52l-14.18 0Z" id="p20w189" />
<path d="M277.68 714.4l42.18 0l0 14.52l-42.18 0Z" id="p20w190" />
<path d="M143.75 739.41l32.87 0l0 14.52l-32.87 0Z" id="p20w191" />
<path d="M179.83 739.41l14.18 0l0 14.52l-14.18 0Z" id="p20w192" />
<path d="M197.21 739.41l72.64 0l0 14.52l-72.64 0Z" id="p20w193" />
<path d="M273.05 739.41l17.11 0l0 14.52l-17.11 0Z" id="p20w194" />
<path d="M293.37 739.41l18.72 0l0 14.52l-18.72 0Z" id="p20w195" />
<path d="M315.29 739.41l53.3 0l0 14.52l-53.3 0Z" id="p20w196" />
<path d="M143.75 756.08l39.31 0l0 14.52l-39.31 0Z" id="p20w197" />
<path d="M186.27 756.08l13.63 0l0 14.52l-13.63 0Z" id="p20w198" />
<path d="M203.11 756.08l33.95 0l0 14.52l-33.95 0Z" id="p20w199" />
<path d="M240.27 756.08l26.74 0l0 14.52l-26.74 0Z" id="p20w200" />
<path d="M270.22 756.08l43.29 0l0 14.52l-43.29 0Z" id="p20w201" />
<path d="M316.72 756.08l25.67 0l0 14.52l-25.67 0Z" id="p20w202" />
<path d="M345.6 756.08l40.64 0l0 14.52l-40.64 0Z" id="p20w203" />
<path d="M143.75 772.75l35.31 0l0 14.52l-35.31 0Z" id="p20w204" />
<path d="M124.06 797.77l18.44 0l0 14.52l-18.44 0Z" id="p20w205" />
<path d="M145.71 797.77l54 0l0 14.52l-54 0Z" id="p20w206" />
<path d="M212.8 797.77l32.88 0l0 14.52l-32.88 0Z" id="p20w207" />
<path d="M248.89 797.77l45.45 0l0 14.52l-45.45 0Z" id="p20w208" />
<path d="M297.54 797.77l25.67 0l0 14.52l-25.67 0Z" id="p20w209" />
<path d="M326.42 797.77l29.69 0l0 14.52l-29.69 0Z" id="p20w210" />
<path d="M124.06 814.44l32.87 0l0 14.52l-32.87 0Z" id="p20w211" />
<path d="M160.14 814.44l51.58 0l0 14.52l-51.58 0Z" id="p20w212" />
<path d="M224.81 814.44l43.31 0l0 14.52l-43.31 0Z" id="p20w213" />
<path d="M271.33 814.44l14.18 0l0 14.52l-14.18 0Z" id="p20w214" />
<path d="M288.71 814.44l31.8 0l0 14.52l-31.8 0Z" id="p20w215" />
<path d="M323.71 814.44l50.26 0l0 14.52l-50.26 0Z" id="p20w216" />
<path d="M124.06 831.11l11.22 0l0 14.52l-11.22 0Z" id="p20w217" />
<path d="M138.49 831.11l13.9 0l0 14.52l-13.9 0Z" id="p20w218" />
<path d="M155.59 831.11l59.59 0l0 14.52l-59.59 0Z" id="p20w219" />
<path d="M217.96 831.11l28.7 0l0 14.52l-28.7 0Z" id="p20w220" />
<path d="M246.66 831.11l12.57 0l0 14.52l-12.57 0Z" id="p20w221" />
<path d="M262.43 831.11l28.87 0l0 14.52l-28.87 0Z" id="p20w222" />
<path d="M294.5 831.11l28.33 0l0 14.52l-28.33 0Z" id="p20w223" />
<path d="M335.92 831.11l28.96 0l0 14.52l-28.96 0Z" id="p20w224" />
<path d="M368.09 831.11l13.9 0l0 14.52l-13.9 0Z" id="p20w225" />
<path d="M124.06 847.78l9.89 0l0 14.52l-9.89 0Z" id="p20w226" />
<path d="M137.16 847.78l23.24 0l0 14.52l-23.24 0Z" id="p20w227" />
<path d="M163.61 847.78l13.9 0l0 14.52l-13.9 0Z" id="p20w228" />
<path d="M180.71 847.78l34.74 0l0 14.52l-34.74 0Z" id="p20w229" />
<path d="M218.66 847.78l27.73 0l0 14.52l-27.73 0Z" id="p20w230" />
<path d="M54.35 141.03l19.89 0l0 12.3l-19.89 0Z" id="p20w231" />
<path d="M533 144.52l16.78 0l0 16.53l-16.78 0Z" id="p20w232" />
<path d="M584.21 144.52l16.37 0l0 16.53l-16.37 0Z" id="p20w233" />
<path d="M635.41 144.52l16.78 0l0 16.53l-16.78 0Z" id="p20w234" />
<path d="M533 168.08l25.67 0l0 14.52l-25.67 0Z" id="p20w235" />
<path d="M584.21 168.08l23.51 0l0 14.52l-23.51 0Z" id="p20w236" />
<path d="M635.41 168.08l9.89 0l0 14.52l-9.89 0Z" id="p20w237" />
<path d="M60.34 541.11l27.93 0l0 12.29l-27.93 0Z" id="p20w238" />
<path d="M151.66 597.78l60.81 0l0 12.56l-60.81 0Z" id="p20w239" />
<path d="M62.51 657.82l26.4 0l0 12.29l-26.4 0Z" id="p20w240" />
<path d="M124.06 39.02l42.71 0l0 15.38l-42.71 0Z" id="p20w241" />
<path d="M208.73 38.6l45.75 0l0 16.09l-45.75 0Z" id="p20w242" />
<path d="M306.51 39.02l43.21 0l0 15.38l-43.21 0Z" id="p20w243" />
<path d="M405.76 39.02l32.54 0l0 15.38l-32.54 0Z" id="p20w244" />
<path d="M76.9 983l35.28 0l0 12.23l-35.28 0Z" id="p20w245" />
<path d="M503.36 817.83l18.7 0l0 16.96l-18.7 0Z" id="p20w246" />
<path d="M526.71 817.83l39.77 0l0 16.96l-39.77 0Z" id="p20w247" />
<path d="M571.13 817.83l23.6 0l0 16.96l-23.6 0Z" id="p20w248" />
<path d="M599.37 817.83l28.92 0l0 16.96l-28.92 0Z" id="p20w249" />
<path d="M632.94 817.83l43.52 0l0 16.96l-43.52 0Z" id="p20w250" />
<path d="M503.36 834.5l41.39 0l0 16.96l-41.39 0Z" id="p20w251" />
<path d="M549.4 834.5l39.77 0l0 16.96l-39.77 0Z" id="p20w252" />
<path d="M593.81 834.5l23.6 0l0 16.96l-23.6 0Z" id="p20w253" />
<path d="M622.45 834.5l53.13 0l0 16.96l-53.13 0Z" id="p20w254" />
<path d="M503.36 851.17l62.38 0l0 16.96l-62.38 0Z" id="p20w255" />
<path d="M570.39 851.17l39.77 0l0 16.96l-39.77 0Z" id="p20w256" />
<path d="M614.8 851.17l23.6 0l0 16.96l-23.6 0Z" id="p20w257" />
<path d="M643.44 851.17l53.13 0l0 16.96l-53.13 0Z" id="p20w258" />
<path d="M503.36 867.84l31.98 0l0 16.96l-31.98 0Z" id="p20w259" />
<path d="M539.99 867.84l20.29 0l0 16.96l-20.29 0Z" id="p20w260" />
<path d="M564.92 867.84l39.77 0l0 16.96l-39.77 0Z" id="p20w261" />
<path d="M609.34 867.84l23.6 0l0 16.96l-23.6 0Z" id="p20w262" />
<path d="M637.58 867.84l28.92 0l0 16.96l-28.92 0Z" id="p20w263" />
<path d="M671.15 867.84l43.52 0l0 16.96l-43.52 0Z" id="p20w264" />
<path d="M503.36 884.51l61.48 0l0 16.96l-61.48 0Z" id="p20w265" />
<path d="M569.49 884.51l23.6 0l0 16.96l-23.6 0Z" id="p20w266" />
<path d="M597.74 884.51l28.92 0l0 16.96l-28.92 0Z" id="p20w267" />
<path d="M631.3 884.51l30.35 0l0 16.96l-30.35 0Z" id="p20w268" />
<path d="M666.05 884.51l34.78 0l0 16.96l-34.78 0Z" id="p20w269" />
<path d="M503.36 901.18l61.48 0l0 16.96l-61.48 0Z" id="p20w270" />
<path d="M569.49 901.18l20.29 0l0 16.96l-20.29 0Z" id="p20w271" />
<path d="M594.42 901.18l29.47 0l0 16.96l-29.47 0Z" id="p20w272" />
<path d="M628.54 901.18l48.15 0l0 16.96l-48.15 0Z" id="p20w273" />
<path d="M503.36 917.85l8.98 0l0 16.96l-8.98 0Z" id="p20w274" />
<path d="M516.74 917.85l42.13 0l0 16.96l-42.13 0Z" id="p20w275" />
<path d="M563.52 917.85l27.53 0l0 16.96l-27.53 0Z" id="p20w276" />
<path d="M595.7 917.85l49.5 0l0 16.96l-49.5 0Z" id="p20w277" />
<path d="M503.36 934.52l72.32 0l0 16.96l-72.32 0Z" id="p20w278" />
<path d="M580.33 934.52l30.41 0l0 16.96l-30.41 0Z" id="p20w279" />
<path d="M615.78 934.52l71.78 0l0 16.96l-71.78 0Z" id="p20w280" />
<path d="M154.71 372.61l21.38 0l0 14.52l-21.38 0Z" id="p20w281" />
<path d="M179.3 372.61l34.21 0l0 14.52l-34.21 0Z" id="p20w282" />
<path d="M226.61 372.61l29.67 0l0 14.52l-29.67 0Z" id="p20w283" />
<path d="M259.49 372.61l15.5 0l0 14.52l-15.5 0Z" id="p20w284" />
<path d="M278.19 372.61l35 0l0 14.52l-35 0Z" id="p20w285" />
<path d="M316.4 372.61l40.09 0l0 14.52l-40.09 0Z" id="p20w286" />
<path d="M359.69 372.61l13.9 0l0 14.52l-13.9 0Z" id="p20w287" />
<path d="M376.8 372.61l21.38 0l0 14.52l-21.38 0Z" id="p20w288" />
<path d="M401.39 372.61l39.51 0l0 14.52l-39.51 0Z" id="p20w289" />
<path d="M444.1 372.61l13.9 0l0 14.52l-13.9 0Z" id="p20w290" />
<path d="M461.21 372.61l38.49 0l0 14.52l-38.49 0Z" id="p20w291" />
<path d="M468.1 322.59l22.99 0l0 14.52l-22.99 0Z" id="p20w292" />
<path d="M494.3 322.59l9.89 0l0 14.52l-9.89 0Z" id="p20w293" />
<path d="M507.4 322.59l35 0l0 14.52l-35 0Z" id="p20w294" />
<path d="M468.1 339.26l29.67 0l0 14.52l-29.67 0Z" id="p20w295" />
<path d="M500.98 339.26l9.89 0l0 14.52l-9.89 0Z" id="p20w296" />
<path d="M514.07 339.26l33.67 0l0 14.52l-33.67 0Z" id="p20w297" />
<path d="M567.87 322.59l24.06 0l0 14.52l-24.06 0Z" id="p20w298" />
<path d="M595.14 322.59l15.5 0l0 14.52l-15.5 0Z" id="p20w299" />
<path d="M613.85 322.59l35 0l0 14.52l-35 0Z" id="p20w300" />
<path d="M567.87 339.26l35.28 0l0 14.52l-35.28 0Z" id="p20w301" />
<path d="M606.36 339.26l15.5 0l0 14.52l-15.5 0Z" id="p20w302" />
<path d="M625.07 339.26l62.82 0l0 14.52l-62.82 0Z" id="p20w303" />
</svg>
