<?xml version="1.0" encoding="UTF-8"?>
<svg xmlns="http://www.w3.org/2000/svg" xmlns:xlink="http://www.w3.org/1999/xlink" version="1.1" baseProfile="full" width="768" height="1024" viewBox="0,0,768,1024" preserveAspectRatio="xMinYMin meet" >
<style type="text/css">
<![CDATA[
path {fill-opacity: 0.5;fill: #00aeef;visibility: hidden;}
]]>
</style>
<path d="M603.9 983l87.2 0l0 12.23l-87.2 0Z" id="p171w1" />
<path d="M68.27 38.6l67.98 0l0 16.09l-67.98 0Z" id="p171w2" />
<path d="M592.9 430.66l55.48 0l0 12.56l-55.48 0Z" id="p171w3" />
<path d="M123.95 449.49l58.22 0l0 15.37l-58.22 0Z" id="p171w4" />
<path d="M185.54 449.49l24.87 0l0 15.37l-24.87 0Z" id="p171w5" />
<path d="M213.79 449.49l25.47 0l0 15.37l-25.47 0Z" id="p171w6" />
<path d="M242.63 449.49l56.33 0l0 15.37l-56.33 0Z" id="p171w7" />
<path d="M302.34 449.49l56.96 0l0 15.37l-56.96 0Z" id="p171w8" />
<path d="M123.95 470.78l24.06 0l0 14.52l-24.06 0Z" id="p171w9" />
<path d="M151.22 470.78l51.32 0l0 14.52l-51.32 0Z" id="p171w10" />
<path d="M205.75 470.78l42.49 0l0 14.52l-42.49 0Z" id="p171w11" />
<path d="M251.44 470.78l19.24 0l0 14.52l-19.24 0Z" id="p171w12" />
<path d="M273.9 470.78l21.65 0l0 14.52l-21.65 0Z" id="p171w13" />
<path d="M298.39 470.78l35.56 0l0 14.52l-35.56 0Z" id="p171w14" />
<path d="M135.53 495.72l12.87 0l0 14.6l-12.87 0Z" id="p171w15" />
<path d="M151.6 495.72l7.87 0l0 14.6l-7.87 0Z" id="p171w16" />
<path d="M159.47 495.72l19.38 0l0 14.6l-19.38 0Z" id="p171w17" />
<path d="M182.05 495.72l55.58 0l0 14.6l-55.58 0Z" id="p171w18" />
<path d="M246.04 495.72l12.87 0l0 14.6l-12.87 0Z" id="p171w19" />
<path d="M262.12 495.72l71.62 0l0 14.6l-71.62 0Z" id="p171w20" />
<path d="M336.95 495.72l14.28 0l0 14.6l-14.28 0Z" id="p171w21" />
<path d="M354.44 495.72l7.87 0l0 14.6l-7.87 0Z" id="p171w22" />
<path d="M362.3 495.72l14.33 0l0 14.6l-14.33 0Z" id="p171w23" />
<path d="M123.95 512.46l10.97 0l0 14.52l-10.97 0Z" id="p171w24" />
<path d="M138.13 512.46l40.35 0l0 14.52l-40.35 0Z" id="p171w25" />
<path d="M181.69 512.46l53.19 0l0 14.52l-53.19 0Z" id="p171w26" />
<path d="M238.09 512.46l41.96 0l0 14.52l-41.96 0Z" id="p171w27" />
<path d="M283.25 512.46l18.44 0l0 14.52l-18.44 0Z" id="p171w28" />
<path d="M304.9 512.46l48.38 0l0 14.52l-48.38 0Z" id="p171w29" />
<path d="M356.48 512.46l19.51 0l0 14.52l-19.51 0Z" id="p171w30" />
<path d="M379.2 512.46l97 0l0 14.52l-97 0Z" id="p171w31" />
<path d="M479.41 512.46l18.44 0l0 14.52l-18.44 0Z" id="p171w32" />
<path d="M501.06 512.46l55.11 0l0 14.52l-55.11 0Z" id="p171w33" />
<path d="M559.37 512.46l19.51 0l0 14.52l-19.51 0Z" id="p171w34" />
<path d="M582.09 512.46l36.09 0l0 14.52l-36.09 0Z" id="p171w35" />
<path d="M123.95 529.13l19.51 0l0 14.52l-19.51 0Z" id="p171w36" />
<path d="M146.67 529.13l27.27 0l0 14.52l-27.27 0Z" id="p171w37" />
<path d="M177.14 529.13l21.4 0l0 14.52l-21.4 0Z" id="p171w38" />
<path d="M201.75 529.13l17.11 0l0 14.52l-17.11 0Z" id="p171w39" />
<path d="M222.06 529.13l86.85 0l0 14.52l-86.85 0Z" id="p171w40" />
<path d="M312.12 529.13l49.39 0l0 14.52l-49.39 0Z" id="p171w41" />
<path d="M136.5 554.08l12.86 0l0 14.6l-12.86 0Z" id="p171w42" />
<path d="M152.57 554.08l41.72 0l0 14.6l-41.72 0Z" id="p171w43" />
<path d="M123.95 570.82l14.7 0l0 14.52l-14.7 0Z" id="p171w44" />
<path d="M141.86 570.82l44.1 0l0 14.52l-44.1 0Z" id="p171w45" />
<path d="M189.17 570.82l53.19 0l0 14.52l-53.19 0Z" id="p171w46" />
<path d="M245.57 570.82l26.13 0l0 14.52l-26.13 0Z" id="p171w47" />
<path d="M274.91 570.82l23.79 0l0 14.52l-23.79 0Z" id="p171w48" />
<path d="M301.9 570.82l105.24 0l0 14.52l-105.24 0Z" id="p171w49" />
<path d="M410.35 570.82l18.44 0l0 14.52l-18.44 0Z" id="p171w50" />
<path d="M432 570.82l56.89 0l0 14.52l-56.89 0Z" id="p171w51" />
<path d="M136.5 595.76l49.79 0l0 14.6l-49.79 0Z" id="p171w52" />
<path d="M189.5 595.76l65.67 0l0 14.6l-65.67 0Z" id="p171w53" />
<path d="M123.95 612.5l14.7 0l0 14.52l-14.7 0Z" id="p171w54" />
<path d="M141.86 612.5l38.75 0l0 14.52l-38.75 0Z" id="p171w55" />
<path d="M183.82 612.5l53.19 0l0 14.52l-53.19 0Z" id="p171w56" />
<path d="M240.22 612.5l24.59 0l0 14.52l-24.59 0Z" id="p171w57" />
<path d="M268.02 612.5l17.11 0l0 14.52l-17.11 0Z" id="p171w58" />
<path d="M288.34 612.5l37.62 0l0 14.52l-37.62 0Z" id="p171w59" />
<path d="M329.16 612.5l49.39 0l0 14.52l-49.39 0Z" id="p171w60" />
<path d="M381.76 612.5l58.54 0l0 14.52l-58.54 0Z" id="p171w61" />
<path d="M443.51 612.5l32.07 0l0 14.52l-32.07 0Z" id="p171w62" />
<path d="M478.79 612.5l41.43 0l0 14.52l-41.43 0Z" id="p171w63" />
<path d="M523.43 612.5l21.92 0l0 14.52l-21.92 0Z" id="p171w64" />
<path d="M548.56 612.5l17.11 0l0 14.52l-17.11 0Z" id="p171w65" />
<path d="M568.87 612.5l28.87 0l0 14.52l-28.87 0Z" id="p171w66" />
<path d="M600.95 612.5l17.91 0l0 14.52l-17.91 0Z" id="p171w67" />
<path d="M123.95 629.17l17.11 0l0 14.52l-17.11 0Z" id="p171w68" />
<path d="M144.27 629.17l55.33 0l0 14.52l-55.33 0Z" id="p171w69" />
<path d="M202.8 629.17l17.11 0l0 14.52l-17.11 0Z" id="p171w70" />
<path d="M223.12 629.17l54.21 0l0 14.52l-54.21 0Z" id="p171w71" />
<path d="M280.53 629.17l21.4 0l0 14.52l-21.4 0Z" id="p171w72" />
<path d="M305.14 629.17l17.11 0l0 14.52l-17.11 0Z" id="p171w73" />
<path d="M325.45 629.17l35.73 0l0 14.52l-35.73 0Z" id="p171w74" />
<path d="M123.95 654.18l18.18 0l0 14.52l-18.18 0Z" id="p171w75" />
<path d="M145.33 654.18l51.32 0l0 14.52l-51.32 0Z" id="p171w76" />
<path d="M199.86 654.18l32.34 0l0 14.52l-32.34 0Z" id="p171w77" />
<path d="M235.41 654.18l18.7 0l0 14.52l-18.7 0Z" id="p171w78" />
<path d="M257.32 654.18l28.33 0l0 14.52l-28.33 0Z" id="p171w79" />
<path d="M288.85 654.18l118.13 0l0 14.52l-118.13 0Z" id="p171w80" />
<path d="M410.19 654.18l46.44 0l0 14.52l-46.44 0Z" id="p171w81" />
<path d="M459.83 654.18l23.8 0l0 14.52l-23.8 0Z" id="p171w82" />
<path d="M486.84 654.18l26.2 0l0 14.52l-26.2 0Z" id="p171w83" />
<path d="M592.9 714.1l55.48 0l0 12.56l-55.48 0Z" id="p171w84" />
<path d="M123.95 732.93l58.22 0l0 15.37l-58.22 0Z" id="p171w85" />
<path d="M185.54 732.93l24.4 0l0 15.37l-24.4 0Z" id="p171w86" />
<path d="M213.32 732.93l40.07 0l0 15.37l-40.07 0Z" id="p171w87" />
<path d="M256.76 732.93l64.45 0l0 15.37l-64.45 0Z" id="p171w88" />
<path d="M324.59 732.93l56.96 0l0 15.37l-56.96 0Z" id="p171w89" />
<path d="M123.95 754.22l19.51 0l0 14.52l-19.51 0Z" id="p171w90" />
<path d="M146.67 754.22l60.68 0l0 14.52l-60.68 0Z" id="p171w91" />
<path d="M210.55 754.22l29.13 0l0 14.52l-29.13 0Z" id="p171w92" />
<path d="M242.89 754.22l17.91 0l0 14.52l-17.91 0Z" id="p171w93" />
<path d="M264.01 754.15l23.92 0l0 14.6l-23.92 0Z" id="p171w94" />
<path d="M291.13 754.15l39.93 0l0 14.6l-39.93 0Z" id="p171w95" />
<path d="M334.27 754.15l28.31 0l0 14.6l-28.31 0Z" id="p171w96" />
<path d="M365.79 754.22l39.02 0l0 14.52l-39.02 0Z" id="p171w97" />
<path d="M408.01 754.22l21.4 0l0 14.52l-21.4 0Z" id="p171w98" />
<path d="M432.62 754.22l11.22 0l0 14.52l-11.22 0Z" id="p171w99" />
<path d="M447.04 754.22l18.98 0l0 14.52l-18.98 0Z" id="p171w100" />
<path d="M469.23 754.22l18.7 0l0 14.52l-18.7 0Z" id="p171w101" />
<path d="M491.14 754.22l24.85 0l0 14.52l-24.85 0Z" id="p171w102" />
<path d="M519.2 754.22l55.07 0l0 14.52l-55.07 0Z" id="p171w103" />
<path d="M123.95 770.89l68.1 0l0 14.52l-68.1 0Z" id="p171w104" />
<path d="M195.25 770.89l44.64 0l0 14.52l-44.64 0Z" id="p171w105" />
<path d="M242.84 770.89l42.17 0l0 14.52l-42.17 0Z" id="p171w106" />
<path d="M288.22 770.89l23.26 0l0 14.52l-23.26 0Z" id="p171w107" />
<path d="M314.68 770.89l23.79 0l0 14.52l-23.79 0Z" id="p171w108" />
<path d="M341.67 770.82l27.96 0l0 14.6l-27.96 0Z" id="p171w109" />
<path d="M372.84 770.82l61.5 0l0 14.6l-61.5 0Z" id="p171w110" />
<path d="M437.54 770.89l21.4 0l0 14.52l-21.4 0Z" id="p171w111" />
<path d="M462.14 770.89l23.79 0l0 14.52l-23.79 0Z" id="p171w112" />
<path d="M489.14 770.89l36.02 0l0 14.52l-36.02 0Z" id="p171w113" />
<path d="M528.36 770.89l73.24 0l0 14.52l-73.24 0Z" id="p171w114" />
<path d="M123.95 795.9l36.35 0l0 14.52l-36.35 0Z" id="p171w115" />
<path d="M163.51 795.9l71.65 0l0 14.52l-71.65 0Z" id="p171w116" />
<path d="M238.36 795.9l33.41 0l0 14.52l-33.41 0Z" id="p171w117" />
<path d="M274.98 795.9l19.77 0l0 14.52l-19.77 0Z" id="p171w118" />
<path d="M297.96 795.9l44.09 0l0 14.52l-44.09 0Z" id="p171w119" />
<path d="M345.25 795.9l21.4 0l0 14.52l-21.4 0Z" id="p171w120" />
<path d="M369.85 795.9l26.72 0l0 14.52l-26.72 0Z" id="p171w121" />
<path d="M399.78 795.9l18.98 0l0 14.52l-18.98 0Z" id="p171w122" />
<path d="M421.97 795.9l11.22 0l0 14.52l-11.22 0Z" id="p171w123" />
<path d="M436.39 795.9l49.92 0l0 14.52l-49.92 0Z" id="p171w124" />
<path d="M489.52 795.9l12.84 0l0 14.52l-12.84 0Z" id="p171w125" />
<path d="M505.57 795.9l56.61 0l0 14.52l-56.61 0Z" id="p171w126" />
<path d="M123.95 812.57l56.14 0l0 14.52l-56.14 0Z" id="p171w127" />
<path d="M183.3 812.57l57.19 0l0 14.52l-57.19 0Z" id="p171w128" />
<path d="M243.7 812.51l58.12 0l0 14.61l-58.12 0Z" id="p171w129" />
<path d="M304.85 812.51l67.16 0l0 14.61l-67.16 0Z" id="p171w130" />
<path d="M375.04 812.51l71.53 0l0 14.61l-71.53 0Z" id="p171w131" />
<path d="M449.78 812.57l59.09 0l0 14.52l-59.09 0Z" id="p171w132" />
<path d="M512.08 812.57l61.13 0l0 14.52l-61.13 0Z" id="p171w133" />
<path d="M576.41 812.57l24.06 0l0 14.52l-24.06 0Z" id="p171w134" />
<path d="M123.95 829.24l21.4 0l0 14.52l-21.4 0Z" id="p171w135" />
<path d="M148.55 829.18l39.88 0l0 14.61l-39.88 0Z" id="p171w136" />
<path d="M191.64 829.18l46.51 0l0 14.61l-46.51 0Z" id="p171w137" />
<path d="M123.95 854.25l17.91 0l0 14.52l-17.91 0Z" id="p171w138" />
<path d="M145.07 854.25l21.12 0l0 14.52l-21.12 0Z" id="p171w139" />
<path d="M169.4 854.25l49.46 0l0 14.52l-49.46 0Z" id="p171w140" />
<path d="M222.06 854.25l62.23 0l0 14.52l-62.23 0Z" id="p171w141" />
<path d="M287.5 854.25l21.4 0l0 14.52l-21.4 0Z" id="p171w142" />
<path d="M312.11 854.25l91.35 0l0 14.52l-91.35 0Z" id="p171w143" />
<path d="M406.67 854.25l41.96 0l0 14.52l-41.96 0Z" id="p171w144" />
<path d="M451.84 854.25l17.11 0l0 14.52l-17.11 0Z" id="p171w145" />
<path d="M472.15 854.25l66.58 0l0 14.52l-66.58 0Z" id="p171w146" />
<path d="M541.93 854.25l10.43 0l0 14.52l-10.43 0Z" id="p171w147" />
<path d="M555.57 854.25l77.76 0l0 14.52l-77.76 0Z" id="p171w148" />
<path d="M123.95 870.93l72.09 0l0 14.52l-72.09 0Z" id="p171w149" />
<path d="M199.25 870.93l66.59 0l0 14.52l-66.59 0Z" id="p171w150" />
<path d="M269.05 870.93l59.53 0l0 14.52l-59.53 0Z" id="p171w151" />
<path d="M331.79 870.93l26.73 0l0 14.52l-26.73 0Z" id="p171w152" />
<path d="M361.72 870.93l19.51 0l0 14.52l-19.51 0Z" id="p171w153" />
<path d="M384.44 870.93l45.7 0l0 14.52l-45.7 0Z" id="p171w154" />
<path d="M433.34 870.93l41.17 0l0 14.52l-41.17 0Z" id="p171w155" />
<path d="M592.9 113.89l55.48 0l0 12.56l-55.48 0Z" id="p171w156" />
<path d="M123.95 132.71l58.22 0l0 15.37l-58.22 0Z" id="p171w157" />
<path d="M185.54 132.71l20.77 0l0 15.37l-20.77 0Z" id="p171w158" />
<path d="M209.69 132.71l18.44 0l0 15.37l-18.44 0Z" id="p171w159" />
<path d="M231.5 132.71l54.05 0l0 15.37l-54.05 0Z" id="p171w160" />
<path d="M288.93 132.71l56.96 0l0 15.37l-56.96 0Z" id="p171w161" />
<path d="M123.95 154l10.97 0l0 14.52l-10.97 0Z" id="p171w162" />
<path d="M138.13 154l34.74 0l0 14.52l-34.74 0Z" id="p171w163" />
<path d="M176.08 154l50.87 0l0 14.52l-50.87 0Z" id="p171w164" />
<path d="M230.15 154l41.96 0l0 14.52l-41.96 0Z" id="p171w165" />
<path d="M275.32 154l18.72 0l0 14.52l-18.72 0Z" id="p171w166" />
<path d="M297.25 154l17.11 0l0 14.52l-17.11 0Z" id="p171w167" />
<path d="M317.56 153.94l74.03 0l0 14.6l-74.03 0Z" id="p171w168" />
<path d="M394.8 153.94l54.06 0l0 14.6l-54.06 0Z" id="p171w169" />
<path d="M452.07 154l19.51 0l0 14.52l-19.51 0Z" id="p171w170" />
<path d="M474.43 154l34.75 0l0 14.52l-34.75 0Z" id="p171w171" />
<path d="M512.39 154l89.51 0l0 14.52l-89.51 0Z" id="p171w172" />
<path d="M123.95 179.02l44.63 0l0 14.52l-44.63 0Z" id="p171w173" />
<path d="M171.79 179.02l19.51 0l0 14.52l-19.51 0Z" id="p171w174" />
<path d="M194.5 179.02l50.87 0l0 14.52l-50.87 0Z" id="p171w175" />
<path d="M248.58 179.02l10.43 0l0 14.52l-10.43 0Z" id="p171w176" />
<path d="M262.21 179.02l18.44 0l0 14.52l-18.44 0Z" id="p171w177" />
<path d="M296.41 178.95l38.38 0l0 14.6l-38.38 0Z" id="p171w178" />
<path d="M338 179.02l21.4 0l0 14.52l-21.4 0Z" id="p171w179" />
<path d="M362.61 179.02l14.16 0l0 14.52l-14.16 0Z" id="p171w180" />
<path d="M379.98 178.95l44.05 0l0 14.6l-44.05 0Z" id="p171w181" />
<path d="M427.23 179.02l18.7 0l0 14.52l-18.7 0Z" id="p171w182" />
<path d="M449.14 179.02l32.07 0l0 14.52l-32.07 0Z" id="p171w183" />
<path d="M484.42 179.02l44.84 0l0 14.52l-44.84 0Z" id="p171w184" />
<path d="M532.21 179.02l43.31 0l0 14.52l-43.31 0Z" id="p171w185" />
<path d="M123.95 195.69l19.51 0l0 14.52l-19.51 0Z" id="p171w186" />
<path d="M146.67 195.69l17.91 0l0 14.52l-17.91 0Z" id="p171w187" />
<path d="M167.79 195.69l18.98 0l0 14.52l-18.98 0Z" id="p171w188" />
<path d="M189.97 195.62l44.51 0l0 14.6l-44.51 0Z" id="p171w189" />
<path d="M237.69 195.69l25.4 0l0 14.52l-25.4 0Z" id="p171w190" />
<path d="M266.29 195.69l59.59 0l0 14.52l-59.59 0Z" id="p171w191" />
<path d="M329.09 195.69l22.45 0l0 14.52l-22.45 0Z" id="p171w192" />
<path d="M354.75 195.69l29.94 0l0 14.52l-29.94 0Z" id="p171w193" />
<path d="M387.9 195.69l39.02 0l0 14.52l-39.02 0Z" id="p171w194" />
<path d="M430.12 195.69l27.89 0l0 14.52l-27.89 0Z" id="p171w195" />
<path d="M461.22 195.69l21.4 0l0 14.52l-21.4 0Z" id="p171w196" />
<path d="M485.82 195.69l25.59 0l0 14.52l-25.59 0Z" id="p171w197" />
<path d="M514.62 195.69l29.94 0l0 14.52l-29.94 0Z" id="p171w198" />
<path d="M547.5 195.69l47.78 0l0 14.52l-47.78 0Z" id="p171w199" />
<path d="M598.49 195.69l16.58 0l0 14.52l-16.58 0Z" id="p171w200" />
<path d="M123.95 220.7l28.34 0l0 14.52l-28.34 0Z" id="p171w201" />
<path d="M155.5 220.7l28.33 0l0 14.52l-28.33 0Z" id="p171w202" />
<path d="M187.03 220.7l37.17 0l0 14.52l-37.17 0Z" id="p171w203" />
<path d="M227.41 220.7l56.35 0l0 14.52l-56.35 0Z" id="p171w204" />
<path d="M286.96 220.7l30.74 0l0 14.52l-30.74 0Z" id="p171w205" />
<path d="M320.91 220.7l30.74 0l0 14.52l-30.74 0Z" id="p171w206" />
<path d="M364.48 220.7l31.01 0l0 14.52l-31.01 0Z" id="p171w207" />
<path d="M398.69 220.7l48.39 0l0 14.52l-48.39 0Z" id="p171w208" />
<path d="M449.93 220.7l37.68 0l0 14.52l-37.68 0Z" id="p171w209" />
<path d="M490.83 220.7l24.97 0l0 14.52l-24.97 0Z" id="p171w210" />
<path d="M519.01 220.7l79.31 0l0 14.52l-79.31 0Z" id="p171w211" />
<path d="M601.53 220.7l19.51 0l0 14.52l-19.51 0Z" id="p171w212" />
<path d="M623.89 220.7l39.03 0l0 14.52l-39.03 0Z" id="p171w213" />
<path d="M123.95 237.37l24.59 0l0 14.52l-24.59 0Z" id="p171w214" />
<path d="M151.75 237.37l18.44 0l0 14.52l-18.44 0Z" id="p171w215" />
<path d="M173.04 237.37l22.47 0l0 14.52l-22.47 0Z" id="p171w216" />
<path d="M198.71 237.37l89.79 0l0 14.52l-89.79 0Z" id="p171w217" />
<path d="M291.71 237.37l104.17 0l0 14.52l-104.17 0Z" id="p171w218" />
<path d="M123.95 254.04l36.61 0l0 14.52l-36.61 0Z" id="p171w219" />
<path d="M163.77 254.04l31.01 0l0 14.52l-31.01 0Z" id="p171w220" />
<path d="M197.99 254.04l17.91 0l0 14.52l-17.91 0Z" id="p171w221" />
<path d="M219.11 253.98l88.88 0l0 14.6l-88.88 0Z" id="p171w222" />
<path d="M311.2 254.04l21.4 0l0 14.52l-21.4 0Z" id="p171w223" />
<path d="M335.8 254.04l25.59 0l0 14.52l-25.59 0Z" id="p171w224" />
<path d="M364.6 254.04l29.94 0l0 14.52l-29.94 0Z" id="p171w225" />
<path d="M397.74 254.04l38.21 0l0 14.52l-38.21 0Z" id="p171w226" />
<path d="M439.16 254.04l39.57 0l0 14.52l-39.57 0Z" id="p171w227" />
<path d="M123.95 279.05l51.27 0l0 14.52l-51.27 0Z" id="p171w228" />
<path d="M178.42 279.05l57.75 0l0 14.52l-57.75 0Z" id="p171w229" />
<path d="M239.38 279.05l41.45 0l0 14.52l-41.45 0Z" id="p171w230" />
<path d="M284.03 279.05l26.74 0l0 14.52l-26.74 0Z" id="p171w231" />
<path d="M313.98 279.05l28.06 0l0 14.52l-28.06 0Z" id="p171w232" />
<path d="M345.25 278.99l74.91 0l0 14.6l-74.91 0Z" id="p171w233" />
<path d="M423.36 279.05l19.51 0l0 14.52l-19.51 0Z" id="p171w234" />
<path d="M445.72 279.05l34.75 0l0 14.52l-34.75 0Z" id="p171w235" />
<path d="M483.69 279.05l38.49 0l0 14.52l-38.49 0Z" id="p171w236" />
<path d="M123.95 304.04l12.57 0l0 14.52l-12.57 0Z" id="p171w237" />
<path d="M139.72 304.04l27.59 0l0 14.52l-27.59 0Z" id="p171w238" />
<path d="M170.52 304.04l41.87 0l0 14.52l-41.87 0Z" id="p171w239" />
<path d="M215.59 304.04l46.41 0l0 14.52l-46.41 0Z" id="p171w240" />
<path d="M265.21 304.04l27.23 0l0 14.52l-27.23 0Z" id="p171w241" />
<path d="M300.78 304.04l28.07 0l0 14.52l-28.07 0Z" id="p171w242" />
<path d="M332.06 304.04l27.23 0l0 14.52l-27.23 0Z" id="p171w243" />
<path d="M123.95 320.71l14.65 0l0 14.52l-14.65 0Z" id="p171w244" />
<path d="M141.81 320.71l48.34 0l0 14.52l-48.34 0Z" id="p171w245" />
<path d="M198.49 320.71l28.34 0l0 14.52l-28.34 0Z" id="p171w246" />
<path d="M230.03 320.71l9.9 0l0 14.52l-9.9 0Z" id="p171w247" />
<path d="M243.14 320.71l49.44 0l0 14.52l-49.44 0Z" id="p171w248" />
<path d="M295.79 320.71l35.02 0l0 14.52l-35.02 0Z" id="p171w249" />
<path d="M333.85 320.71l13.9 0l0 14.52l-13.9 0Z" id="p171w250" />
<path d="M350.95 320.71l46.79 0l0 14.52l-46.79 0Z" id="p171w251" />
<path d="M400.95 320.71l33.9 0l0 14.52l-33.9 0Z" id="p171w252" />
<path d="M123.95 337.38l28.34 0l0 14.52l-28.34 0Z" id="p171w253" />
<path d="M155.5 337.38l9.9 0l0 14.52l-9.9 0Z" id="p171w254" />
<path d="M168.6 337.38l53.17 0l0 14.52l-53.17 0Z" id="p171w255" />
<path d="M224.98 337.38l35.02 0l0 14.52l-35.02 0Z" id="p171w256" />
<path d="M263.03 337.38l9.36 0l0 14.52l-9.36 0Z" id="p171w257" />
<path d="M275.6 337.38l27.59 0l0 14.52l-27.59 0Z" id="p171w258" />
<path d="M306.39 337.38l53.95 0l0 14.52l-53.95 0Z" id="p171w259" />
<path d="M123.95 354.05l54.12 0l0 14.52l-54.12 0Z" id="p171w260" />
<path d="M186.41 354.05l36.06 0l0 14.52l-36.06 0Z" id="p171w261" />
<path d="M134.87 370.72l9.9 0l0 14.52l-9.9 0Z" id="p171w262" />
<path d="M147.97 370.72l7.22 0l0 14.52l-7.22 0Z" id="p171w263" />
<path d="M155.19 370.72l20.82 0l0 14.52l-20.82 0Z" id="p171w264" />
</svg>
