<?xml version="1.0" encoding="UTF-8"?>
<svg xmlns="http://www.w3.org/2000/svg" xmlns:xlink="http://www.w3.org/1999/xlink" version="1.1" baseProfile="full" width="768" height="1024" viewBox="0,0,768,1024" preserveAspectRatio="xMinYMin meet" >
<style type="text/css">
<![CDATA[
path {fill-opacity: 0.5;fill: #00aeef;visibility: hidden;}
]]>
</style>
<path d="M124.06 107.98l23.83 0l0 18.84l-23.83 0Z" id="p110w1" />
<path d="M151.54 107.98l18.36 0l0 18.84l-18.36 0Z" id="p110w2" />
<path d="M173.54 107.98l37.28 0l0 18.84l-37.28 0Z" id="p110w3" />
<path d="M143.75 139.19l51.89 0l0 14.52l-51.89 0Z" id="p110w4" />
<path d="M198.85 139.19l9.89 0l0 14.52l-9.89 0Z" id="p110w5" />
<path d="M211.94 139.19l35.55 0l0 14.52l-35.55 0Z" id="p110w6" />
<path d="M250.7 139.19l11.22 0l0 14.52l-11.22 0Z" id="p110w7" />
<path d="M265.12 139.19l27.26 0l0 14.52l-27.26 0Z" id="p110w8" />
<path d="M295.59 139.19l12.57 0l0 14.52l-12.57 0Z" id="p110w9" />
<path d="M311.36 139.19l20.85 0l0 14.52l-20.85 0Z" id="p110w10" />
<path d="M335.42 139.19l18.7 0l0 14.52l-18.7 0Z" id="p110w11" />
<path d="M143.75 155.86l9.89 0l0 14.52l-9.89 0Z" id="p110w12" />
<path d="M156.85 155.86l52.12 0l0 14.52l-52.12 0Z" id="p110w13" />
<path d="M222.07 155.86l9.89 0l0 14.52l-9.89 0Z" id="p110w14" />
<path d="M235.16 155.86l43.31 0l0 14.52l-43.31 0Z" id="p110w15" />
<path d="M124.06 180.89l6.96 0l0 14.61l-6.96 0Z" id="p110w16" />
<path d="M134.23 180.89l43.49 0l0 14.61l-43.49 0Z" id="p110w17" />
<path d="M180.92 180.89l9.89 0l0 14.61l-9.89 0Z" id="p110w18" />
<path d="M194.02 180.89l33.34 0l0 14.61l-33.34 0Z" id="p110w19" />
<path d="M143.75 205.88l84.94 0l0 14.52l-84.94 0Z" id="p110w20" />
<path d="M231.9 205.88l26.73 0l0 14.52l-26.73 0Z" id="p110w21" />
<path d="M261.84 205.88l9.89 0l0 14.52l-9.89 0Z" id="p110w22" />
<path d="M274.93 205.88l33.67 0l0 14.52l-33.67 0Z" id="p110w23" />
<path d="M311.81 205.88l11.22 0l0 14.52l-11.22 0Z" id="p110w24" />
<path d="M326.24 205.88l32.35 0l0 14.52l-32.35 0Z" id="p110w25" />
<path d="M361.79 205.88l19.51 0l0 14.52l-19.51 0Z" id="p110w26" />
<path d="M143.75 222.56l54 0l0 14.52l-54 0Z" id="p110w27" />
<path d="M210.85 222.56l18.72 0l0 14.52l-18.72 0Z" id="p110w28" />
<path d="M232.77 222.56l63.34 0l0 14.52l-63.34 0Z" id="p110w29" />
<path d="M299.32 222.56l12.83 0l0 14.52l-12.83 0Z" id="p110w30" />
<path d="M315.36 222.56l23.27 0l0 14.52l-23.27 0Z" id="p110w31" />
<path d="M341.84 222.56l55.33 0l0 14.52l-55.33 0Z" id="p110w32" />
<path d="M153.64 239.23l9.89 0l0 14.52l-9.89 0Z" id="p110w33" />
<path d="M166.73 239.23l27.73 0l0 14.52l-27.73 0Z" id="p110w34" />
<path d="M219.15 239.23l25.4 0l0 14.52l-25.4 0Z" id="p110w35" />
<path d="M247.75 239.23l25.67 0l0 14.52l-25.67 0Z" id="p110w36" />
<path d="M276.63 239.23l29.69 0l0 14.52l-29.69 0Z" id="p110w37" />
<path d="M139.56 264.25l26.73 0l0 14.61l-26.73 0Z" id="p110w38" />
<path d="M169.5 264.25l17.38 0l0 14.61l-17.38 0Z" id="p110w39" />
<path d="M189.92 264.25l17.37 0l0 14.61l-17.37 0Z" id="p110w40" />
<path d="M210.5 264.25l21.82 0l0 14.61l-21.82 0Z" id="p110w41" />
<path d="M235.52 264.25l9.82 0l0 14.61l-9.82 0Z" id="p110w42" />
<path d="M248.55 264.25l48.11 0l0 14.61l-48.11 0Z" id="p110w43" />
<path d="M139.65 280.92l26.73 0l0 14.61l-26.73 0Z" id="p110w44" />
<path d="M169.59 280.92l23.8 0l0 14.61l-23.8 0Z" id="p110w45" />
<path d="M196.42 280.92l24.76 0l0 14.61l-24.76 0Z" id="p110w46" />
<path d="M224.39 280.92l25.13 0l0 14.61l-25.13 0Z" id="p110w47" />
<path d="M252.73 280.92l26.72 0l0 14.61l-26.72 0Z" id="p110w48" />
<path d="M282.65 280.92l17.37 0l0 14.61l-17.37 0Z" id="p110w49" />
<path d="M303.23 280.92l21.82 0l0 14.61l-21.82 0Z" id="p110w50" />
<path d="M328.26 280.92l9.82 0l0 14.61l-9.82 0Z" id="p110w51" />
<path d="M341.28 280.92l50.79 0l0 14.61l-50.79 0Z" id="p110w52" />
<path d="M124.06 324.73l14.31 0l0 18.84l-14.31 0Z" id="p110w53" />
<path d="M142.02 324.73l46.57 0l0 18.84l-46.57 0Z" id="p110w54" />
<path d="M192.24 324.73l32.95 0l0 18.84l-32.95 0Z" id="p110w55" />
<path d="M228.83 324.73l33.96 0l0 18.84l-33.96 0Z" id="p110w56" />
<path d="M123.63 647.71l19.26 0l0 14.52l-19.26 0Z" id="p110w57" />
<path d="M146.09 647.71l42.49 0l0 14.52l-42.49 0Z" id="p110w58" />
<path d="M191.79 647.71l11.22 0l0 14.52l-11.22 0Z" id="p110w59" />
<path d="M206.21 647.71l25.67 0l0 14.52l-25.67 0Z" id="p110w60" />
<path d="M235.09 647.71l33.13 0l0 14.52l-33.13 0Z" id="p110w61" />
<path d="M271.43 647.71l19.51 0l0 14.52l-19.51 0Z" id="p110w62" />
<path d="M294.15 647.71l48.94 0l0 14.52l-48.94 0Z" id="p110w63" />
<path d="M124.06 664.38l51.42 0l0 14.52l-51.42 0Z" id="p110w64" />
<path d="M188.58 664.38l27.27 0l0 14.52l-27.27 0Z" id="p110w65" />
<path d="M219.06 664.38l57.21 0l0 14.52l-57.21 0Z" id="p110w66" />
<path d="M279.47 664.38l20.85 0l0 14.52l-20.85 0Z" id="p110w67" />
<path d="M303.53 664.38l19.51 0l0 14.52l-19.51 0Z" id="p110w68" />
<path d="M124.06 681.05l54.53 0l0 14.52l-54.53 0Z" id="p110w69" />
<path d="M181.8 681.05l55.16 0l0 14.52l-55.16 0Z" id="p110w70" />
<path d="M240.16 681.05l22.99 0l0 14.52l-22.99 0Z" id="p110w71" />
<path d="M266.36 681.05l29.42 0l0 14.52l-29.42 0Z" id="p110w72" />
<path d="M298.99 681.05l9.89 0l0 14.52l-9.89 0Z" id="p110w73" />
<path d="M312.09 681.05l57.48 0l0 14.52l-57.48 0Z" id="p110w74" />
<path d="M124.06 697.72l25.4 0l0 14.52l-25.4 0Z" id="p110w75" />
<path d="M152.66 697.72l18.72 0l0 14.52l-18.72 0Z" id="p110w76" />
<path d="M174.59 697.72l45.17 0l0 14.52l-45.17 0Z" id="p110w77" />
<path d="M222.96 697.72l43.31 0l0 14.52l-43.31 0Z" id="p110w78" />
<path d="M269.48 697.72l13.9 0l0 14.52l-13.9 0Z" id="p110w79" />
<path d="M286.58 697.72l40.1 0l0 14.52l-40.1 0Z" id="p110w80" />
<path d="M329.89 697.72l20.85 0l0 14.52l-20.85 0Z" id="p110w81" />
<path d="M124.06 714.39l44.65 0l0 14.52l-44.65 0Z" id="p110w82" />
<path d="M171.92 714.39l13.91 0l0 14.52l-13.91 0Z" id="p110w83" />
<path d="M189.04 714.39l14.18 0l0 14.52l-14.18 0Z" id="p110w84" />
<path d="M206.43 714.39l64.7 0l0 14.52l-64.7 0Z" id="p110w85" />
<path d="M60.68 140.96l27.93 0l0 12.29l-27.93 0Z" id="p110w86" />
<path d="M60.68 649.48l27.93 0l0 12.29l-27.93 0Z" id="p110w87" />
<path d="M614.25 631.58l55.48 0l0 12.56l-55.48 0Z" id="p110w88" />
<path d="M443.47 656.32l54.67 0l0 15.37l-54.67 0Z" id="p110w89" />
<path d="M501.51 656.32l24.87 0l0 15.37l-24.87 0Z" id="p110w90" />
<path d="M529.76 656.32l15.94 0l0 15.37l-15.94 0Z" id="p110w91" />
<path d="M549.07 656.32l30.05 0l0 15.37l-30.05 0Z" id="p110w92" />
<path d="M582.5 656.32l63.38 0l0 15.37l-63.38 0Z" id="p110w93" />
<path d="M443.47 672.99l67.43 0l0 15.37l-67.43 0Z" id="p110w94" />
<path d="M443.47 694.28l31.56 0l0 14.52l-31.56 0Z" id="p110w95" />
<path d="M478.23 694.28l10.43 0l0 14.52l-10.43 0Z" id="p110w96" />
<path d="M491.87 694.28l34.74 0l0 14.52l-34.74 0Z" id="p110w97" />
<path d="M529.82 694.28l35.27 0l0 14.52l-35.27 0Z" id="p110w98" />
<path d="M568.29 694.28l36.89 0l0 14.52l-36.89 0Z" id="p110w99" />
<path d="M608.39 694.28l64.98 0l0 14.52l-64.98 0Z" id="p110w100" />
<path d="M443.47 710.95l17.11 0l0 14.52l-17.11 0Z" id="p110w101" />
<path d="M463.78 710.95l15.77 0l0 14.52l-15.77 0Z" id="p110w102" />
<path d="M482.76 710.95l26.74 0l0 14.52l-26.74 0Z" id="p110w103" />
<path d="M512.71 710.95l41.1 0l0 14.52l-41.1 0Z" id="p110w104" />
<path d="M557.02 710.95l25.94 0l0 14.52l-25.94 0Z" id="p110w105" />
<path d="M443.47 739.41l43.02 0l0 14.52l-43.02 0Z" id="p110w106" />
<path d="M489.69 739.41l80.2 0l0 14.52l-80.2 0Z" id="p110w107" />
<path d="M573.1 739.41l17.91 0l0 14.52l-17.91 0Z" id="p110w108" />
<path d="M594.21 739.41l28.06 0l0 14.52l-28.06 0Z" id="p110w109" />
<path d="M631.41 350.97l15.07 0l0 12.56l-15.07 0Z" id="p110w110" />
<path d="M649.18 350.97l16.87 0l0 12.56l-16.87 0Z" id="p110w111" />
<path d="M124.19 371.76l32.47 0l0 15.37l-32.47 0Z" id="p110w112" />
<path d="M160.04 371.76l52.48 0l0 15.37l-52.48 0Z" id="p110w113" />
<path d="M215.9 371.76l41.96 0l0 15.37l-41.96 0Z" id="p110w114" />
<path d="M124.19 399.35l25.86 0l0 14.6l-25.86 0Z" id="p110w115" />
<path d="M153.26 399.35l39.89 0l0 14.6l-39.89 0Z" id="p110w116" />
<path d="M196.36 399.35l18.16 0l0 14.6l-18.16 0Z" id="p110w117" />
<path d="M217.73 399.35l60.62 0l0 14.6l-60.62 0Z" id="p110w118" />
<path d="M323.74 399.43l23.8 0l0 14.52l-23.8 0Z" id="p110w119" />
<path d="M350.75 399.43l9.62 0l0 14.52l-9.62 0Z" id="p110w120" />
<path d="M363.58 399.43l33.41 0l0 14.52l-33.41 0Z" id="p110w121" />
<path d="M405.23 399.43l9.62 0l0 14.52l-9.62 0Z" id="p110w122" />
<path d="M418.06 399.43l25.94 0l0 14.52l-25.94 0Z" id="p110w123" />
<path d="M452.25 399.43l9.62 0l0 14.52l-9.62 0Z" id="p110w124" />
<path d="M465.08 399.43l35.56 0l0 14.52l-35.56 0Z" id="p110w125" />
<path d="M503.85 399.43l34.17 0l0 14.52l-34.17 0Z" id="p110w126" />
<path d="M323.74 416.1l40.98 0l0 14.52l-40.98 0Z" id="p110w127" />
<path d="M367.93 416.1l23.8 0l0 14.52l-23.8 0Z" id="p110w128" />
<path d="M427.46 416.1l25.13 0l0 14.52l-25.13 0Z" id="p110w129" />
<path d="M455.8 416.1l24.33 0l0 14.52l-24.33 0Z" id="p110w130" />
<path d="M124.19 442.07l25.86 0l0 14.6l-25.86 0Z" id="p110w131" />
<path d="M153.26 442.07l50.39 0l0 14.6l-50.39 0Z" id="p110w132" />
<path d="M206.86 442.07l19.9 0l0 14.6l-19.9 0Z" id="p110w133" />
<path d="M229.97 442.07l36.32 0l0 14.6l-36.32 0Z" id="p110w134" />
<path d="M124.19 458.78l32.88 0l0 14.52l-32.88 0Z" id="p110w135" />
<path d="M160.28 458.78l70.02 0l0 14.52l-70.02 0Z" id="p110w136" />
<path d="M233.51 458.78l67.88 0l0 14.52l-67.88 0Z" id="p110w137" />
<path d="M323.74 442.13l26.19 0l0 14.52l-26.19 0Z" id="p110w138" />
<path d="M353.14 442.13l22.99 0l0 14.52l-22.99 0Z" id="p110w139" />
<path d="M323.74 458.8l10.43 0l0 14.52l-10.43 0Z" id="p110w140" />
<path d="M337.38 458.8l21.38 0l0 14.52l-21.38 0Z" id="p110w141" />
<path d="M361.97 458.8l13.9 0l0 14.52l-13.9 0Z" id="p110w142" />
<path d="M379.07 458.8l18.72 0l0 14.52l-18.72 0Z" id="p110w143" />
<path d="M401 458.8l24.33 0l0 14.52l-24.33 0Z" id="p110w144" />
<path d="M433.57 458.8l10.43 0l0 14.52l-10.43 0Z" id="p110w145" />
<path d="M447.21 458.8l21.38 0l0 14.52l-21.38 0Z" id="p110w146" />
<path d="M471.8 458.8l14.18 0l0 14.52l-14.18 0Z" id="p110w147" />
<path d="M489.18 458.8l35.27 0l0 14.52l-35.27 0Z" id="p110w148" />
<path d="M527.66 458.8l21.65 0l0 14.52l-21.65 0Z" id="p110w149" />
<path d="M552.51 458.8l20.85 0l0 14.52l-20.85 0Z" id="p110w150" />
<path d="M576.57 458.8l17.38 0l0 14.52l-17.38 0Z" id="p110w151" />
<path d="M323.74 475.47l10.43 0l0 14.52l-10.43 0Z" id="p110w152" />
<path d="M337.38 475.47l21.38 0l0 14.52l-21.38 0Z" id="p110w153" />
<path d="M361.97 475.47l46.26 0l0 14.52l-46.26 0Z" id="p110w154" />
<path d="M411.44 475.47l25.4 0l0 14.52l-25.4 0Z" id="p110w155" />
<path d="M440.04 475.47l17.38 0l0 14.52l-17.38 0Z" id="p110w156" />
<path d="M323.74 492.14l12.41 0l0 14.52l-12.41 0Z" id="p110w157" />
<path d="M339.36 492.14l12.29 0l0 14.52l-12.29 0Z" id="p110w158" />
<path d="M354.85 492.14l33.95 0l0 14.52l-33.95 0Z" id="p110w159" />
<path d="M392.01 492.14l13.9 0l0 14.52l-13.9 0Z" id="p110w160" />
<path d="M409.12 492.14l21.65 0l0 14.52l-21.65 0Z" id="p110w161" />
<path d="M433.97 492.14l34.17 0l0 14.52l-34.17 0Z" id="p110w162" />
<path d="M124.19 518.11l25.86 0l0 14.6l-25.86 0Z" id="p110w163" />
<path d="M153.26 518.11l50.39 0l0 14.6l-50.39 0Z" id="p110w164" />
<path d="M206.86 518.11l14.31 0l0 14.6l-14.31 0Z" id="p110w165" />
<path d="M224.38 518.11l55.94 0l0 14.6l-55.94 0Z" id="p110w166" />
<path d="M124.19 534.82l32.88 0l0 14.52l-32.88 0Z" id="p110w167" />
<path d="M160.28 534.82l59.85 0l0 14.52l-59.85 0Z" id="p110w168" />
<path d="M223.33 534.82l67.88 0l0 14.52l-67.88 0Z" id="p110w169" />
<path d="M323.74 518.17l13.9 0l0 14.52l-13.9 0Z" id="p110w170" />
<path d="M340.85 518.17l25.92 0l0 14.52l-25.92 0Z" id="p110w171" />
<path d="M369.98 518.17l19.51 0l0 14.52l-19.51 0Z" id="p110w172" />
<path d="M392.7 518.17l22.99 0l0 14.52l-22.99 0Z" id="p110w173" />
<path d="M423.94 518.17l26.19 0l0 14.52l-26.19 0Z" id="p110w174" />
<path d="M453.33 518.17l26.48 0l0 14.52l-26.48 0Z" id="p110w175" />
<path d="M323.74 534.84l10.43 0l0 14.52l-10.43 0Z" id="p110w176" />
<path d="M337.38 534.84l13.9 0l0 14.52l-13.9 0Z" id="p110w177" />
<path d="M354.48 534.84l21.38 0l0 14.52l-21.38 0Z" id="p110w178" />
<path d="M379.07 534.84l19.51 0l0 14.52l-19.51 0Z" id="p110w179" />
<path d="M401.79 534.84l18.45 0l0 14.52l-18.45 0Z" id="p110w180" />
<path d="M423.45 534.84l27.27 0l0 14.52l-27.27 0Z" id="p110w181" />
<path d="M453.93 534.84l46.26 0l0 14.52l-46.26 0Z" id="p110w182" />
<path d="M503.4 534.84l25.4 0l0 14.52l-25.4 0Z" id="p110w183" />
<path d="M532 534.84l14.7 0l0 14.52l-14.7 0Z" id="p110w184" />
<path d="M554.95 534.84l16.83 0l0 14.52l-16.83 0Z" id="p110w185" />
<path d="M574.99 534.84l62.84 0l0 14.52l-62.84 0Z" id="p110w186" />
<path d="M323.74 551.51l12.41 0l0 14.52l-12.41 0Z" id="p110w187" />
<path d="M339.36 551.51l12.29 0l0 14.52l-12.29 0Z" id="p110w188" />
<path d="M354.85 551.51l20.58 0l0 14.52l-20.58 0Z" id="p110w189" />
<path d="M378.64 551.51l13.9 0l0 14.52l-13.9 0Z" id="p110w190" />
<path d="M395.74 551.51l21.65 0l0 14.52l-21.65 0Z" id="p110w191" />
<path d="M420.6 551.51l34.17 0l0 14.52l-34.17 0Z" id="p110w192" />
<path d="M124.19 577.46l25.86 0l0 14.6l-25.86 0Z" id="p110w193" />
<path d="M153.26 577.46l40.56 0l0 14.6l-40.56 0Z" id="p110w194" />
<path d="M197.03 577.46l14.31 0l0 14.6l-14.31 0Z" id="p110w195" />
<path d="M214.54 577.46l62.17 0l0 14.6l-62.17 0Z" id="p110w196" />
<path d="M323.74 577.54l24.87 0l0 14.52l-24.87 0Z" id="p110w197" />
<path d="M351.82 577.54l40.06 0l0 14.52l-40.06 0Z" id="p110w198" />
<path d="M395.08 577.54l13.9 0l0 14.52l-13.9 0Z" id="p110w199" />
<path d="M412.19 577.54l47.89 0l0 14.52l-47.89 0Z" id="p110w200" />
<path d="M323.74 594.21l6.96 0l0 14.52l-6.96 0Z" id="p110w201" />
<path d="M333.91 594.21l16.83 0l0 14.52l-16.83 0Z" id="p110w202" />
<path d="M353.94 594.21l20.31 0l0 14.52l-20.31 0Z" id="p110w203" />
<path d="M377.46 594.21l36.85 0l0 14.52l-36.85 0Z" id="p110w204" />
<path d="M417.52 594.21l39.77 0l0 14.52l-39.77 0Z" id="p110w205" />
<path d="M175.83 805.81l27.97 0l0 15.09l-27.97 0Z" id="p110w206" />
<path d="M207.41 805.81l31.6 0l0 15.09l-31.6 0Z" id="p110w207" />
<path d="M242.62 805.81l13.91 0l0 15.09l-13.91 0Z" id="p110w208" />
<path d="M260.14 805.81l44.45 0l0 15.09l-44.45 0Z" id="p110w209" />
<path d="M308.2 805.81l55.57 0l0 15.09l-55.57 0Z" id="p110w210" />
<path d="M175.83 822.48l12.99 0l0 15.09l-12.99 0Z" id="p110w211" />
<path d="M192.43 822.48l48.97 0l0 15.09l-48.97 0Z" id="p110w212" />
<path d="M245.01 822.48l59.26 0l0 15.09l-59.26 0Z" id="p110w213" />
<path d="M317.98 822.48l22.13 0l0 15.09l-22.13 0Z" id="p110w214" />
<path d="M343.73 822.48l15.74 0l0 15.09l-15.74 0Z" id="p110w215" />
<path d="M175.83 839.15l34.12 0l0 15.09l-34.12 0Z" id="p110w216" />
<path d="M213.56 839.15l41.47 0l0 15.09l-41.47 0Z" id="p110w217" />
<path d="M265.78 839.15l15.15 0l0 15.09l-15.15 0Z" id="p110w218" />
<path d="M284.54 839.15l58.82 0l0 15.09l-58.82 0Z" id="p110w219" />
<path d="M346.98 839.15l15.89 0l0 15.09l-15.89 0Z" id="p110w220" />
<path d="M175.83 855.82l39.78 0l0 15.09l-39.78 0Z" id="p110w221" />
<path d="M219.22 855.82l13.91 0l0 15.09l-13.91 0Z" id="p110w222" />
<path d="M236.73 855.82l47.51 0l0 15.09l-47.51 0Z" id="p110w223" />
<path d="M287.86 855.82l27.97 0l0 15.09l-27.97 0Z" id="p110w224" />
<path d="M319.44 855.82l38.44 0l0 15.09l-38.44 0Z" id="p110w225" />
<path d="M175.83 872.49l69.36 0l0 15.09l-69.36 0Z" id="p110w226" />
<path d="M248.8 872.49l60.51 0l0 15.09l-60.51 0Z" id="p110w227" />
<path d="M312.92 872.49l19.19 0l0 15.09l-19.19 0Z" id="p110w228" />
<path d="M175.83 889.16l44.12 0l0 15.09l-44.12 0Z" id="p110w229" />
<path d="M223.56 889.16l50.88 0l0 15.09l-50.88 0Z" id="p110w230" />
<path d="M278.05 889.16l21.67 0l0 15.09l-21.67 0Z" id="p110w231" />
<path d="M303.33 889.16l12.66 0l0 15.09l-12.66 0Z" id="p110w232" />
<path d="M319.6 889.16l28.22 0l0 15.09l-28.22 0Z" id="p110w233" />
<path d="M175.83 905.83l19.46 0l0 15.09l-19.46 0Z" id="p110w234" />
<path d="M198.9 905.83l45.91 0l0 15.09l-45.91 0Z" id="p110w235" />
<path d="M438.26 855.2l20.21 0l0 15.13l-20.21 0Z" id="p110w236" />
<path d="M462.11 855.25l44.09 0l0 15.18l-44.09 0Z" id="p110w237" />
<path d="M509.84 855.35l19.81 0l0 15.13l-19.81 0Z" id="p110w238" />
<path d="M533.3 855.4l42.49 0l0 15.18l-42.49 0Z" id="p110w239" />
<path d="M579.44 855.51l28.81 0l0 15.15l-28.81 0Z" id="p110w240" />
<path d="M611.89 855.58l54.32 0l0 15.21l-54.32 0Z" id="p110w241" />
<path d="M669.85 855.7l13.87 0l0 15.12l-13.87 0Z" id="p110w242" />
<path d="M438.22 871.87l51.77 0l0 15.2l-51.77 0Z" id="p110w243" />
<path d="M493.64 871.99l27.2 0l0 15.15l-27.2 0Z" id="p110w244" />
<path d="M524.48 872.05l15.71 0l0 15.12l-15.71 0Z" id="p110w245" />
<path d="M543.84 872.1l27.41 0l0 15.15l-27.41 0Z" id="p110w246" />
<path d="M574.89 872.16l38.36 0l0 15.17l-38.36 0Z" id="p110w247" />
<path d="M616.89 872.26l13.87 0l0 15.12l-13.87 0Z" id="p110w248" />
<path d="M634.41 872.29l59.81 0l0 15.22l-59.81 0Z" id="p110w249" />
<path d="M466.54 888.6l61.77 0l0 15.22l-61.77 0Z" id="p110w250" />
<path d="M438.15 905.2l27.93 0l0 15.15l-27.93 0Z" id="p110w251" />
<path d="M469.73 905.27l38.41 0l0 15.17l-38.41 0Z" id="p110w252" />
<path d="M511.78 905.36l33.41 0l0 15.16l-33.41 0Z" id="p110w253" />
<path d="M548.83 905.45l25.66 0l0 15.14l-25.66 0Z" id="p110w254" />
<path d="M578.13 905.51l28.81 0l0 15.15l-28.81 0Z" id="p110w255" />
<path d="M610.58 905.58l44.58 0l0 15.19l-44.58 0Z" id="p110w256" />
<path d="M658.8 905.69l26.85 0l0 15.15l-26.85 0Z" id="p110w257" />
<path d="M438.11 921.87l15.03 0l0 15.12l-15.03 0Z" id="p110w258" />
<path d="M456.79 921.91l50.98 0l0 15.2l-50.98 0Z" id="p110w259" />
<path d="M511.41 922.03l14.18 0l0 15.12l-14.18 0Z" id="p110w260" />
<path d="M529.23 922.07l27.21 0l0 15.15l-27.21 0Z" id="p110w261" />
<path d="M560.09 922.14l13.87 0l0 15.12l-13.87 0Z" id="p110w262" />
<path d="M577.61 922.18l10.39 0l0 15.11l-10.39 0Z" id="p110w263" />
<path d="M591.64 922.21l23.95 0l0 15.14l-23.95 0Z" id="p110w264" />
<path d="M619.24 922.27l14.55 0l0 15.12l-14.55 0Z" id="p110w265" />
<path d="M637.43 922.31l32.8 0l0 15.16l-32.8 0Z" id="p110w266" />
<path d="M124.06 39.02l46.09 0l0 15.38l-46.09 0Z" id="p110w267" />
<path d="M208.73 38.6l45.75 0l0 16.09l-45.75 0Z" id="p110w268" />
<path d="M307.2 39.02l59.8 0l0 15.38l-59.8 0Z" id="p110w269" />
<path d="M406.45 39.02l32.54 0l0 15.38l-32.54 0Z" id="p110w270" />
<path d="M76.9 983l42.03 0l0 12.23l-42.03 0Z" id="p110w271" />
</svg>
