<?xml version="1.0" encoding="UTF-8"?>
<svg xmlns="http://www.w3.org/2000/svg" xmlns:xlink="http://www.w3.org/1999/xlink" version="1.1" baseProfile="full" width="768" height="1024" viewBox="0,0,768,1024" preserveAspectRatio="xMinYMin meet" >
<style type="text/css">
<![CDATA[
path {fill-opacity: 0.5;fill: #00aeef;visibility: hidden;}
]]>
</style>
<path d="M567.95 983.66l123.16 0l0 12.23l-123.16 0Z" id="p259w1" />
<path d="M566.11 38.6l77.83 0l0 16.09l-77.83 0Z" id="p259w2" />
<path d="M59.08 112.45l36.59 0l0 12.29l-36.59 0Z" id="p259w3" />
<path d="M98.37 112.51l91.97 0l0 12.23l-91.97 0Z" id="p259w4" />
<path d="M193.04 112.26l14.63 0l0 12.56l-14.63 0Z" id="p259w5" />
<path d="M59.08 127.79l20.03 0l0 12.23l-20.03 0Z" id="p259w6" />
<path d="M81.81 127.74l33.7 0l0 12.29l-33.7 0Z" id="p259w7" />
<path d="M118.21 127.79l11.94 0l0 12.23l-11.94 0Z" id="p259w8" />
<path d="M132.85 127.79l25.89 0l0 12.23l-25.89 0Z" id="p259w9" />
<path d="M161.44 127.55l14.63 0l0 12.56l-14.63 0Z" id="p259w10" />
<path d="M59.08 143.02l26.91 0l0 12.29l-26.91 0Z" id="p259w11" />
<path d="M88.69 143.08l34.88 0l0 12.23l-34.88 0Z" id="p259w12" />
<path d="M126.27 142.83l14.63 0l0 12.56l-14.63 0Z" id="p259w13" />
<path d="M59.08 158.36l14.41 0l0 12.23l-14.41 0Z" id="p259w14" />
<path d="M76.18 158.3l61.87 0l0 12.29l-61.87 0Z" id="p259w15" />
<path d="M142.22 158.3l71.39 0l0 12.29l-71.39 0Z" id="p259w16" />
<path d="M216.31 158.36l11.94 0l0 12.23l-11.94 0Z" id="p259w17" />
<path d="M68.92 173.64l53.46 0l0 12.23l-53.46 0Z" id="p259w18" />
<path d="M125.09 173.64l40.98 0l0 12.23l-40.98 0Z" id="p259w19" />
<path d="M168.77 173.4l18.92 0l0 12.56l-18.92 0Z" id="p259w20" />
<path d="M59.08 188.93l14.41 0l0 12.23l-14.41 0Z" id="p259w21" />
<path d="M76.18 188.87l52.06 0l0 12.29l-52.06 0Z" id="p259w22" />
<path d="M128.25 188.87l21.03 0l0 12.29l-21.03 0Z" id="p259w23" />
<path d="M149.28 188.93l24.2 0l0 12.23l-24.2 0Z" id="p259w24" />
<path d="M68.92 204.15l52.06 0l0 12.29l-52.06 0Z" id="p259w25" />
<path d="M120.99 204.15l29.92 0l0 12.29l-29.92 0Z" id="p259w26" />
<path d="M153.61 204.21l11.94 0l0 12.23l-11.94 0Z" id="p259w27" />
<path d="M168.25 204.21l15.08 0l0 12.23l-15.08 0Z" id="p259w28" />
<path d="M183.33 204.21l46.93 0l0 12.23l-46.93 0Z" id="p259w29" />
<path d="M68.92 219.49l15.08 0l0 12.23l-15.08 0Z" id="p259w30" />
<path d="M84.01 219.49l30.82 0l0 12.23l-30.82 0Z" id="p259w31" />
<path d="M117.53 219.25l14.63 0l0 12.56l-14.63 0Z" id="p259w32" />
<path d="M59.08 234.78l20.03 0l0 12.23l-20.03 0Z" id="p259w33" />
<path d="M81.81 234.72l72.45 0l0 12.29l-72.45 0Z" id="p259w34" />
<path d="M156.96 234.78l17.56 0l0 12.23l-17.56 0Z" id="p259w35" />
<path d="M177.22 234.78l15.08 0l0 12.23l-15.08 0Z" id="p259w36" />
<path d="M192.3 234.78l30.82 0l0 12.23l-30.82 0Z" id="p259w37" />
<path d="M225.83 234.53l14.63 0l0 12.56l-14.63 0Z" id="p259w38" />
<path d="M59.08 250l32.53 0l0 12.29l-32.53 0Z" id="p259w39" />
<path d="M94.31 250.06l71.68 0l0 12.23l-71.68 0Z" id="p259w40" />
<path d="M168.7 249.81l17.81 0l0 12.56l-17.81 0Z" id="p259w41" />
<path d="M59.08 265.34l14.41 0l0 12.23l-14.41 0Z" id="p259w42" />
<path d="M76.18 265.29l26.59 0l0 12.29l-26.59 0Z" id="p259w43" />
<path d="M105.47 265.34l17.56 0l0 12.23l-17.56 0Z" id="p259w44" />
<path d="M125.73 265.34l22.07 0l0 12.23l-22.07 0Z" id="p259w45" />
<path d="M150.51 265.1l18.92 0l0 12.56l-18.92 0Z" id="p259w46" />
<path d="M59.08 280.63l20.03 0l0 12.23l-20.03 0Z" id="p259w47" />
<path d="M81.81 280.57l44.52 0l0 12.29l-44.52 0Z" id="p259w48" />
<path d="M129.02 280.63l11.94 0l0 12.23l-11.94 0Z" id="p259w49" />
<path d="M143.66 280.63l42.99 0l0 12.23l-42.99 0Z" id="p259w50" />
<path d="M189.36 280.38l15.54 0l0 12.56l-15.54 0Z" id="p259w51" />
<path d="M220.4 280.63l11.94 0l0 12.23l-11.94 0Z" id="p259w52" />
<path d="M68.92 295.91l52.22 0l0 12.23l-52.22 0Z" id="p259w53" />
<path d="M123.85 295.66l15.54 0l0 12.56l-15.54 0Z" id="p259w54" />
<path d="M59.08 311.19l14.41 0l0 12.23l-14.41 0Z" id="p259w55" />
<path d="M76.18 311.14l25.16 0l0 12.29l-25.16 0Z" id="p259w56" />
<path d="M104.05 311.19l11.94 0l0 12.23l-11.94 0Z" id="p259w57" />
<path d="M118.69 311.19l6.3 0l0 12.23l-6.3 0Z" id="p259w58" />
<path d="M128.14 311.19l11.93 0l0 12.23l-11.93 0Z" id="p259w59" />
<path d="M139.62 311.19l34.45 0l0 12.23l-34.45 0Z" id="p259w60" />
<path d="M176.76 310.95l18.92 0l0 12.56l-18.92 0Z" id="p259w61" />
<path d="M59.08 326.48l14.41 0l0 12.23l-14.41 0Z" id="p259w62" />
<path d="M76.18 326.42l46.32 0l0 12.29l-46.32 0Z" id="p259w63" />
<path d="M122.5 326.42l12.07 0l0 12.29l-12.07 0Z" id="p259w64" />
<path d="M137.27 326.48l11.94 0l0 12.23l-11.94 0Z" id="p259w65" />
<path d="M151.91 326.48l6.3 0l0 12.23l-6.3 0Z" id="p259w66" />
<path d="M161.36 326.48l11.93 0l0 12.23l-11.93 0Z" id="p259w67" />
<path d="M172.84 326.48l34.45 0l0 12.23l-34.45 0Z" id="p259w68" />
<path d="M209.99 326.23l18.92 0l0 12.56l-18.92 0Z" id="p259w69" />
<path d="M59.08 341.76l20.03 0l0 12.23l-20.03 0Z" id="p259w70" />
<path d="M81.81 341.7l30.83 0l0 12.29l-30.83 0Z" id="p259w71" />
<path d="M115.34 341.76l17.56 0l0 12.23l-17.56 0Z" id="p259w72" />
<path d="M135.61 341.76l31.07 0l0 12.23l-31.07 0Z" id="p259w73" />
<path d="M169.37 341.52l18.72 0l0 12.56l-18.72 0Z" id="p259w74" />
<path d="M59.08 356.99l34.65 0l0 12.29l-34.65 0Z" id="p259w75" />
<path d="M96.42 357.04l35.57 0l0 12.23l-35.57 0Z" id="p259w76" />
<path d="M134.69 356.8l18.92 0l0 12.56l-18.92 0Z" id="p259w77" />
<path d="M59.08 372.33l20.03 0l0 12.23l-20.03 0Z" id="p259w78" />
<path d="M81.81 372.27l28.67 0l0 12.29l-28.67 0Z" id="p259w79" />
<path d="M113.17 372.33l17.56 0l0 12.23l-17.56 0Z" id="p259w80" />
<path d="M133.44 372.33l32.65 0l0 12.23l-32.65 0Z" id="p259w81" />
<path d="M168.78 372.08l14.63 0l0 12.56l-14.63 0Z" id="p259w82" />
<path d="M59.08 387.61l14.41 0l0 12.23l-14.41 0Z" id="p259w83" />
<path d="M76.18 387.55l34.75 0l0 12.29l-34.75 0Z" id="p259w84" />
<path d="M113.63 387.61l17.56 0l0 12.23l-17.56 0Z" id="p259w85" />
<path d="M133.89 387.61l22.72 0l0 12.23l-22.72 0Z" id="p259w86" />
<path d="M159.31 387.37l14.79 0l0 12.56l-14.79 0Z" id="p259w87" />
<path d="M59.08 402.89l14.41 0l0 12.23l-14.41 0Z" id="p259w88" />
<path d="M76.18 402.84l34.75 0l0 12.29l-34.75 0Z" id="p259w89" />
<path d="M115.1 402.84l34.75 0l0 12.29l-34.75 0Z" id="p259w90" />
<path d="M152.54 402.89l11.94 0l0 12.23l-11.94 0Z" id="p259w91" />
<path d="M167.18 402.89l53.18 0l0 12.23l-53.18 0Z" id="p259w92" />
<path d="M68.92 418.18l37.54 0l0 12.23l-37.54 0Z" id="p259w93" />
<path d="M109.16 417.93l15.54 0l0 12.56l-15.54 0Z" id="p259w94" />
<path d="M59.08 433.46l20.03 0l0 12.23l-20.03 0Z" id="p259w95" />
<path d="M81.81 433.4l26.67 0l0 12.29l-26.67 0Z" id="p259w96" />
<path d="M111.17 433.46l17.56 0l0 12.23l-17.56 0Z" id="p259w97" />
<path d="M131.44 433.46l26.12 0l0 12.23l-26.12 0Z" id="p259w98" />
<path d="M160.26 433.22l15.34 0l0 12.56l-15.34 0Z" id="p259w99" />
<path d="M59.08 448.74l14.41 0l0 12.23l-14.41 0Z" id="p259w100" />
<path d="M76.18 448.69l58.03 0l0 12.29l-58.03 0Z" id="p259w101" />
<path d="M136.92 448.74l11.94 0l0 12.23l-11.94 0Z" id="p259w102" />
<path d="M151.56 448.74l22.01 0l0 12.23l-22.01 0Z" id="p259w103" />
<path d="M176.26 448.5l15.54 0l0 12.56l-15.54 0Z" id="p259w104" />
<path d="M59.08 464.03l20.03 0l0 12.23l-20.03 0Z" id="p259w105" />
<path d="M81.81 463.97l28.98 0l0 12.29l-28.98 0Z" id="p259w106" />
<path d="M113.49 464.03l17.56 0l0 12.23l-17.56 0Z" id="p259w107" />
<path d="M133.75 464.03l32.65 0l0 12.23l-32.65 0Z" id="p259w108" />
<path d="M169.1 463.78l18.92 0l0 12.56l-18.92 0Z" id="p259w109" />
<path d="M59.08 479.25l32.17 0l0 12.29l-32.17 0ZM93.95 479.31l83.19 0l0 12.23l-83.19 0Z" id="p259w110" />
<path d="M179.83 479.07l18.92 0l0 12.56l-18.92 0Z" id="p259w111" />
<path d="M59.08 494.54l39.41 0l0 12.29l-39.41 0Z" id="p259w112" />
<path d="M101.19 494.59l83.19 0l0 12.23l-83.19 0Z" id="p259w113" />
<path d="M187.08 494.35l18.92 0l0 12.56l-18.92 0Z" id="p259w114" />
<path d="M59.08 509.88l18.46 0l0 12.23l-18.46 0Z" id="p259w115" />
<path d="M80.24 509.82l45.74 0l0 12.29l-45.74 0Z" id="p259w116" />
<path d="M128.68 509.88l15.08 0l0 12.23l-15.08 0Z" id="p259w117" />
<path d="M146.46 509.88l40.5 0l0 12.23l-40.5 0Z" id="p259w118" />
<path d="M189.67 509.88l43.46 0l0 12.23l-43.46 0Z" id="p259w119" />
<path d="M68.92 525.16l11.7 0l0 12.23l-11.7 0Z" id="p259w120" />
<path d="M83.33 525.16l27.37 0l0 12.23l-27.37 0Z" id="p259w121" />
<path d="M113.4 524.92l15.54 0l0 12.56l-15.54 0Z" id="p259w122" />
<path d="M68.92 540.44l14.19 0l0 12.23l-14.19 0Z" id="p259w123" />
<path d="M85.82 540.44l44.56 0l0 12.23l-44.56 0Z" id="p259w124" />
<path d="M133.08 540.44l22.96 0l0 12.23l-22.96 0Z" id="p259w125" />
<path d="M158.75 540.44l32.87 0l0 12.23l-32.87 0Z" id="p259w126" />
<path d="M194.32 540.44l8.78 0l0 12.23l-8.78 0Z" id="p259w127" />
<path d="M205.8 540.44l22.51 0l0 12.23l-22.51 0Z" id="p259w128" />
<path d="M68.92 555.73l35.59 0l0 12.23l-35.59 0Z" id="p259w129" />
<path d="M107.22 555.48l19.58 0l0 12.56l-19.58 0Z" id="p259w130" />
<path d="M59.08 571.01l14.41 0l0 12.23l-14.41 0Z" id="p259w131" />
<path d="M76.18 570.96l36.1 0l0 12.29l-36.1 0Z" id="p259w132" />
<path d="M114.99 570.99l25.65 0l0 12.23l-25.65 0Z" id="p259w133" />
<path d="M143.34 571.01l11.94 0l0 12.23l-11.94 0Z" id="p259w134" />
<path d="M157.98 571.01l43.12 0l0 12.23l-43.12 0Z" id="p259w135" />
<path d="M203.8 571.01l21.39 0l0 12.23l-21.39 0Z" id="p259w136" />
<path d="M68.92 586.27l27.91 0l0 12.23l-27.91 0Z" id="p259w137" />
<path d="M99.54 586.05l18.01 0l0 12.56l-18.01 0Z" id="p259w138" />
<path d="M59.08 601.58l14.41 0l0 12.23l-14.41 0Z" id="p259w139" />
<path d="M76.18 601.52l30.11 0l0 12.29l-30.11 0Z" id="p259w140" />
<path d="M106.29 601.58l24.2 0l0 12.23l-24.2 0Z" id="p259w141" />
<path d="M133.19 601.52l33.38 0l0 12.29l-33.38 0Z" id="p259w142" />
<path d="M169.27 601.58l11.94 0l0 12.23l-11.94 0Z" id="p259w143" />
<path d="M183.91 601.58l47.62 0l0 12.23l-47.62 0Z" id="p259w144" />
<path d="M68.92 616.86l31.51 0l0 12.23l-31.51 0Z" id="p259w145" />
<path d="M103.14 616.62l15.54 0l0 12.56l-15.54 0Z" id="p259w146" />
<path d="M59.08 632.14l14.41 0l0 12.23l-14.41 0Z" id="p259w147" />
<path d="M76.18 632.09l39.55 0l0 12.29l-39.55 0Z" id="p259w148" />
<path d="M115.73 632.14l24.2 0l0 12.23l-24.2 0Z" id="p259w149" />
<path d="M142.63 632.09l48.44 0l0 12.29l-48.44 0Z" id="p259w150" />
<path d="M193.77 632.14l11.94 0l0 12.23l-11.94 0Z" id="p259w151" />
<path d="M68.92 647.43l51.87 0l0 12.23l-51.87 0Z" id="p259w152" />
<path d="M123.5 647.43l30.14 0l0 12.23l-30.14 0Z" id="p259w153" />
<path d="M156.35 647.18l15.34 0l0 12.56l-15.34 0Z" id="p259w154" />
<path d="M59.08 662.71l14.41 0l0 12.23l-14.41 0Z" id="p259w155" />
<path d="M76.18 662.66l21.09 0l0 12.29l-21.09 0Z" id="p259w156" />
<path d="M99.97 662.71l11.94 0l0 12.23l-11.94 0Z" id="p259w157" />
<path d="M114.61 662.71l25.22 0l0 12.23l-25.22 0Z" id="p259w158" />
<path d="M142.53 662.47l14.79 0l0 12.56l-14.79 0Z" id="p259w159" />
<path d="M172.83 662.71l11.94 0l0 12.23l-11.94 0Z" id="p259w160" />
<path d="M187.47 662.71l25.82 0l0 12.23l-25.82 0Z" id="p259w161" />
<path d="M215.99 662.47l15.54 0l0 12.56l-15.54 0Z" id="p259w162" />
<path d="M59.08 677.99l14.41 0l0 12.23l-14.41 0Z" id="p259w163" />
<path d="M76.18 677.94l45.81 0l0 12.29l-45.81 0Z" id="p259w164" />
<path d="M121.99 677.99l24.2 0l0 12.23l-24.2 0Z" id="p259w165" />
<path d="M148.89 677.94l54.7 0l0 12.29l-54.7 0Z" id="p259w166" />
<path d="M206.29 677.99l11.94 0l0 12.23l-11.94 0Z" id="p259w167" />
<path d="M68.92 693.28l70.11 0l0 12.23l-70.11 0Z" id="p259w168" />
<path d="M141.74 693.28l50.19 0l0 12.23l-50.19 0Z" id="p259w169" />
<path d="M194.63 693.03l15.54 0l0 12.56l-15.54 0Z" id="p259w170" />
<path d="M59.08 708.51l20.31 0l0 12.29l-20.31 0Z" id="p259w171" />
<path d="M82.09 708.56l58.43 0l0 12.23l-58.43 0Z" id="p259w172" />
<path d="M143.22 708.32l15.34 0l0 12.56l-15.34 0Z" id="p259w173" />
<path d="M59.08 723.84l14.41 0l0 12.23l-14.41 0Z" id="p259w174" />
<path d="M76.18 723.79l27.67 0l0 12.29l-27.67 0Z" id="p259w175" />
<path d="M103.85 723.79l12.07 0l0 12.29l-12.07 0Z" id="p259w176" />
<path d="M118.62 723.84l11.94 0l0 12.23l-11.94 0Z" id="p259w177" />
<path d="M133.26 723.84l24.32 0l0 12.23l-24.32 0Z" id="p259w178" />
<path d="M160.28 723.84l39.55 0l0 12.23l-39.55 0Z" id="p259w179" />
<path d="M202.53 723.6l18.92 0l0 12.56l-18.92 0Z" id="p259w180" />
<path d="M59.08 739.07l36.62 0l0 12.29l-36.62 0Z" id="p259w181" />
<path d="M98.4 739.13l54.01 0l0 12.23l-54.01 0Z" id="p259w182" />
<path d="M155.11 738.88l18.92 0l0 12.56l-18.92 0Z" id="p259w183" />
<path d="M59.08 792.62l14.41 0l0 12.23l-14.41 0Z" id="p259w184" />
<path d="M76.18 792.56l48.21 0l0 12.29l-48.21 0Z" id="p259w185" />
<path d="M127.09 792.62l11.94 0l0 12.23l-11.94 0Z" id="p259w186" />
<path d="M141.73 792.62l15.32 0l0 12.23l-15.32 0Z" id="p259w187" />
<path d="M159.75 792.62l15.97 0l0 12.23l-15.97 0Z" id="p259w188" />
<path d="M178.42 792.38l18.92 0l0 12.56l-18.92 0Z" id="p259w189" />
<path d="M59.08 807.9l16.43 0l0 12.23l-16.43 0Z" id="p259w190" />
<path d="M78.21 807.85l36.05 0l0 12.29l-36.05 0Z" id="p259w191" />
<path d="M116.95 807.9l8.33 0l0 12.23l-8.33 0Z" id="p259w192" />
<path d="M127.98 807.9l32.41 0l0 12.23l-32.41 0Z" id="p259w193" />
<path d="M163.09 807.66l18.92 0l0 12.56l-18.92 0Z" id="p259w194" />
<path d="M59.08 823.13l33.66 0l0 12.29l-33.66 0Z" id="p259w195" />
<path d="M95.43 823.19l32.41 0l0 12.23l-32.41 0Z" id="p259w196" />
<path d="M130.55 822.94l18.72 0l0 12.56l-18.72 0Z" id="p259w197" />
<path d="M59.08 838.47l14.41 0l0 12.23l-14.41 0Z" id="p259w198" />
<path d="M76.18 838.41l33.23 0l0 12.29l-33.23 0Z" id="p259w199" />
<path d="M112.12 838.47l11.94 0l0 12.23l-11.94 0Z" id="p259w200" />
<path d="M126.76 838.47l15.97 0l0 12.23l-15.97 0Z" id="p259w201" />
<path d="M145.43 838.23l15.54 0l0 12.56l-15.54 0Z" id="p259w202" />
<path d="M59.08 853.7l30.84 0l0 12.29l-30.84 0Z" id="p259w203" />
<path d="M92.62 853.75l30.56 0l0 12.23l-30.56 0Z" id="p259w204" />
<path d="M125.88 853.73l27.91 0l0 12.23l-27.91 0Z" id="p259w205" />
<path d="M156.49 853.51l15.54 0l0 12.56l-15.54 0Z" id="p259w206" />
<path d="M186.49 853.75l15.97 0l0 12.23l-15.97 0Z" id="p259w207" />
<path d="M205.16 853.51l18.92 0l0 12.56l-18.92 0Z" id="p259w208" />
<path d="M68.92 869.04l13.74 0l0 12.23l-13.74 0Z" id="p259w209" />
<path d="M85.36 869.04l19.36 0l0 12.23l-19.36 0Z" id="p259w210" />
<path d="M107.43 869.04l22.96 0l0 12.23l-22.96 0Z" id="p259w211" />
<path d="M133.09 869.04l13.5 0l0 12.23l-13.5 0Z" id="p259w212" />
<path d="M149.3 869.02l25.65 0l0 12.23l-25.65 0Z" id="p259w213" />
<path d="M177.65 869.04l22.73 0l0 12.23l-22.73 0Z" id="p259w214" />
<path d="M203.09 869.04l11.7 0l0 12.23l-11.7 0Z" id="p259w215" />
<path d="M217.49 869.04l15.97 0l0 12.23l-15.97 0Z" id="p259w216" />
<path d="M68.92 884.3l27.91 0l0 12.23l-27.91 0Z" id="p259w217" />
<path d="M99.54 884.08l18.92 0l0 12.56l-18.92 0Z" id="p259w218" />
<path d="M59.08 899.6l14.41 0l0 12.23l-14.41 0Z" id="p259w219" />
<path d="M76.18 899.55l28.6 0l0 12.29l-28.6 0Z" id="p259w220" />
<path d="M107.48 899.6l11.94 0l0 12.23l-11.94 0Z" id="p259w221" />
<path d="M122.12 899.6l40 0l0 12.23l-40 0Z" id="p259w222" />
<path d="M164.83 899.36l14.63 0l0 12.56l-14.63 0Z" id="p259w223" />
<path d="M59.08 914.89l8.78 0l0 12.23l-8.78 0Z" id="p259w224" />
<path d="M70.56 914.89l15.53 0l0 12.23l-15.53 0Z" id="p259w225" />
<path d="M88.79 914.83l22.34 0l0 12.29l-22.34 0Z" id="p259w226" />
<path d="M113.83 914.89l21.39 0l0 12.23l-21.39 0Z" id="p259w227" />
<path d="M137.92 914.89l19.44 0l0 12.23l-19.44 0Z" id="p259w228" />
<path d="M160.06 914.89l10.82 0l0 12.23l-10.82 0Z" id="p259w229" />
<path d="M173.57 914.89l15.76 0l0 12.23l-15.76 0Z" id="p259w230" />
<path d="M192.04 914.89l18.9 0l0 12.23l-18.9 0Z" id="p259w231" />
<path d="M68.92 930.17l36.69 0l0 12.23l-36.69 0Z" id="p259w232" />
<path d="M108.32 930.17l11.7 0l0 12.23l-11.7 0Z" id="p259w233" />
<path d="M122.72 930.17l21.37 0l0 12.23l-21.37 0Z" id="p259w234" />
<path d="M146.8 930.17l11.04 0l0 12.23l-11.04 0Z" id="p259w235" />
<path d="M160.54 929.93l18.72 0l0 12.56l-18.72 0Z" id="p259w236" />
<path d="M260.6 112.5l14.41 0l0 12.23l-14.41 0Z" id="p259w237" />
<path d="M277.7 112.45l22.98 0l0 12.29l-22.98 0Z" id="p259w238" />
<path d="M303.38 112.5l11.94 0l0 12.23l-11.94 0Z" id="p259w239" />
<path d="M318.02 112.5l21.39 0l0 12.23l-21.39 0Z" id="p259w240" />
<path d="M342.1 112.26l17.26 0l0 12.56l-17.26 0Z" id="p259w241" />
<path d="M260.6 127.79l16.43 0l0 12.23l-16.43 0Z" id="p259w242" />
<path d="M279.72 127.73l22.98 0l0 12.29l-22.98 0Z" id="p259w243" />
<path d="M305.4 127.79l8.33 0l0 12.23l-8.33 0Z" id="p259w244" />
<path d="M316.43 127.79l49.24 0l0 12.23l-49.24 0Z" id="p259w245" />
<path d="M368.37 127.54l22.96 0l0 12.56l-22.96 0Z" id="p259w246" />
<path d="M260.6 143.07l20.03 0l0 12.23l-20.03 0Z" id="p259w247" />
<path d="M283.33 143.01l51.79 0l0 12.29l-51.79 0Z" id="p259w248" />
<path d="M337.81 143.07l11.94 0l0 12.23l-11.94 0Z" id="p259w249" />
<path d="M352.45 143.07l38.66 0l0 12.23l-38.66 0Z" id="p259w250" />
<path d="M393.81 142.83l18.01 0l0 12.56l-18.01 0Z" id="p259w251" />
<path d="M260.6 158.35l20.03 0l0 12.23l-20.03 0Z" id="p259w252" />
<path d="M283.33 158.3l53.28 0l0 12.29l-53.28 0Z" id="p259w253" />
<path d="M339.3 158.35l17.56 0l0 12.23l-17.56 0Z" id="p259w254" />
<path d="M359.57 158.35l24.76 0l0 12.23l-24.76 0Z" id="p259w255" />
<path d="M387.03 158.11l17.26 0l0 12.56l-17.26 0Z" id="p259w256" />
<path d="M260.6 173.58l20.41 0l0 12.29l-20.41 0Z" id="p259w257" />
<path d="M283.7 173.64l56.98 0l0 12.23l-56.98 0Z" id="p259w258" />
<path d="M343.38 173.39l15.34 0l0 12.56l-15.34 0Z" id="p259w259" />
<path d="M260.6 188.86l26.03 0l0 12.29l-26.03 0Z" id="p259w260" />
<path d="M289.33 188.9l25.88 0l0 12.23l-25.88 0Z" id="p259w261" />
<path d="M317.9 188.92l50.14 0l0 12.23l-50.14 0Z" id="p259w262" />
<path d="M370.75 188.68l19.58 0l0 12.56l-19.58 0Z" id="p259w263" />
<path d="M260.6 204.15l40.14 0l0 12.29l-40.14 0Z" id="p259w264" />
<path d="M303.43 204.2l46.25 0l0 12.23l-46.25 0Z" id="p259w265" />
<path d="M352.39 203.96l18.92 0l0 12.56l-18.92 0Z" id="p259w266" />
<path d="M260.6 219.49l18.46 0l0 12.23l-18.46 0Z" id="p259w267" />
<path d="M281.76 219.43l51.57 0l0 12.29l-51.57 0Z" id="p259w268" />
<path d="M336.03 219.49l44.35 0l0 12.23l-44.35 0Z" id="p259w269" />
<path d="M383.09 219.24l18.17 0l0 12.56l-18.17 0Z" id="p259w270" />
<path d="M260.6 234.71l48.56 0l0 12.29l-48.56 0Z" id="p259w271" />
<path d="M311.86 234.77l99.64 0l0 12.23l-99.64 0Z" id="p259w272" />
<path d="M270.44 249.81l18.92 0l0 12.56l-18.92 0Z" id="p259w273" />
<path d="M260.6 265.34l14.41 0l0 12.23l-14.41 0Z" id="p259w274" />
<path d="M277.7 265.28l32.75 0l0 12.29l-32.75 0Z" id="p259w275" />
<path d="M313.15 265.34l11.94 0l0 12.23l-11.94 0Z" id="p259w276" />
<path d="M327.79 265.34l49.07 0l0 12.23l-49.07 0Z" id="p259w277" />
<path d="M379.56 265.34l39.61 0l0 12.23l-39.61 0Z" id="p259w278" />
<path d="M270.44 280.38l18.92 0l0 12.56l-18.92 0Z" id="p259w279" />
<path d="M260.6 295.9l40.5 0l0 12.23l-40.5 0Z" id="p259w280" />
<path d="M303.8 295.85l29.82 0l0 12.29l-29.82 0Z" id="p259w281" />
<path d="M336.32 295.9l29.92 0l0 12.23l-29.92 0Z" id="p259w282" />
<path d="M368.95 295.9l27.37 0l0 12.23l-27.37 0Z" id="p259w283" />
<path d="M399.01 295.66l18.92 0l0 12.56l-18.92 0Z" id="p259w284" />
<path d="M260.6 311.13l29.82 0l0 12.29l-29.82 0Z" id="p259w285" />
<path d="M293.12 311.19l39.16 0l0 12.23l-39.16 0Z" id="p259w286" />
<path d="M334.98 310.94l15.54 0l0 12.56l-15.54 0Z" id="p259w287" />
<path d="M366.02 311.19l27.02 0l0 12.23l-27.02 0Z" id="p259w288" />
<path d="M395.75 310.94l18.92 0l0 12.56l-18.92 0Z" id="p259w289" />
<path d="M260.6 326.47l44.57 0l0 12.23l-44.57 0Z" id="p259w290" />
<path d="M307.87 326.42l28.51 0l0 12.29l-28.51 0Z" id="p259w291" />
<path d="M339.08 326.47l29.49 0l0 12.23l-29.49 0Z" id="p259w292" />
<path d="M371.27 326.47l18.9 0l0 12.23l-18.9 0Z" id="p259w293" />
<path d="M392.87 326.47l11.7 0l0 12.23l-11.7 0Z" id="p259w294" />
<path d="M270.44 341.75l44.42 0l0 12.23l-44.42 0Z" id="p259w295" />
<path d="M317.56 341.75l36.47 0l0 12.23l-36.47 0Z" id="p259w296" />
<path d="M371.74 341.51l15.54 0l0 12.56l-15.54 0Z" id="p259w297" />
<path d="M260.6 357.04l16.43 0l0 12.23l-16.43 0Z" id="p259w298" />
<path d="M279.72 356.98l28.61 0l0 12.29l-28.61 0Z" id="p259w299" />
<path d="M311.04 357.04l8.33 0l0 12.23l-8.33 0Z" id="p259w300" />
<path d="M322.06 357.04l13.5 0l0 12.23l-13.5 0Z" id="p259w301" />
<path d="M338.27 356.79l15.34 0l0 12.56l-15.34 0Z" id="p259w302" />
<path d="M260.6 372.27l26.22 0l0 12.29l-26.22 0Z" id="p259w303" />
<path d="M289.52 372.32l22.51 0l0 12.23l-22.51 0Z" id="p259w304" />
<path d="M314.73 372.08l18.92 0l0 12.56l-18.92 0Z" id="p259w305" />
<path d="M260.6 387.55l40.97 0l0 12.29l-40.97 0Z" id="p259w306" />
<path d="M304.27 387.6l66.68 0l0 12.23l-66.68 0Z" id="p259w307" />
<path d="M373.65 387.36l18.92 0l0 12.56l-18.92 0Z" id="p259w308" />
<path d="M260.6 402.89l14.41 0l0 12.23l-14.41 0Z" id="p259w309" />
<path d="M277.7 402.83l73.84 0l0 12.29l-73.84 0Z" id="p259w310" />
<path d="M351.54 402.89l24.2 0l0 12.23l-24.2 0Z" id="p259w311" />
<path d="M270.44 418.12l77.11 0l0 12.29l-77.11 0Z" id="p259w312" />
<path d="M350.25 418.17l11.94 0l0 12.23l-11.94 0Z" id="p259w313" />
<path d="M364.89 418.17l77.52 0l0 12.23l-77.52 0Z" id="p259w314" />
<path d="M270.44 433.45l49.47 0l0 12.23l-49.47 0Z" id="p259w315" />
<path d="M322.62 433.21l14.63 0l0 12.56l-14.63 0Z" id="p259w316" />
<path d="M260.6 448.74l14.41 0l0 12.23l-14.41 0Z" id="p259w317" />
<path d="M277.7 448.68l51.56 0l0 12.29l-51.56 0Z" id="p259w318" />
<path d="M331.97 448.74l11.94 0l0 12.23l-11.94 0Z" id="p259w319" />
<path d="M346.61 448.74l12.16 0l0 12.23l-12.16 0Z" id="p259w320" />
<path d="M373.17 448.72l11.93 0l0 12.23l-11.93 0Z" id="p259w321" />
<path d="M387.8 448.72l48.82 0l0 12.23l-48.82 0Z" id="p259w322" />
<path d="M270.44 464l23.43 0l0 12.23l-23.43 0Z" id="p259w323" />
<path d="M296.58 463.78l18.72 0l0 12.56l-18.72 0Z" id="p259w324" />
<path d="M260.6 479.3l14.41 0l0 12.23l-14.41 0Z" id="p259w325" />
<path d="M277.7 479.25l61.77 0l0 12.29l-61.77 0Z" id="p259w326" />
<path d="M342.17 479.3l11.94 0l0 12.23l-11.94 0Z" id="p259w327" />
<path d="M356.81 479.3l35.78 0l0 12.23l-35.78 0Z" id="p259w328" />
<path d="M395.29 479.06l18.72 0l0 12.56l-18.72 0Z" id="p259w329" />
<path d="M260.6 494.59l14.41 0l0 12.23l-14.41 0Z" id="p259w330" />
<path d="M277.7 494.53l97.96 0l0 12.29l-97.96 0Z" id="p259w331" />
<path d="M375.66 494.59l24.2 0l0 12.23l-24.2 0Z" id="p259w332" />
<path d="M270.44 509.82l106.85 0l0 12.29l-106.85 0Z" id="p259w333" />
<path d="M380 509.87l11.94 0l0 12.23l-11.94 0Z" id="p259w334" />
<path d="M394.63 509.87l35.68 0l0 12.23l-35.68 0Z" id="p259w335" />
<path d="M270.44 525.16l17.56 0l0 12.23l-17.56 0Z" id="p259w336" />
<path d="M290.71 525.16l37.14 0l0 12.23l-37.14 0Z" id="p259w337" />
<path d="M330.54 524.91l18.92 0l0 12.56l-18.92 0Z" id="p259w338" />
<path d="M260.6 540.38l28.22 0l0 12.29l-28.22 0Z" id="p259w339" />
<path d="M291.52 540.44l91.97 0l0 12.23l-91.97 0Z" id="p259w340" />
<path d="M386.19 540.2l14.63 0l0 12.56l-14.63 0Z" id="p259w341" />
<path d="M260.59 555.73l19.44 0l0 12.23l-19.44 0Z" id="p259w342" />
<path d="M282.74 555.67l29.59 0l0 12.29l-29.59 0Z" id="p259w343" />
<path d="M315.03 555.73l23.41 0l0 12.23l-23.41 0Z" id="p259w344" />
<path d="M341.14 555.73l11.04 0l0 12.23l-11.04 0Z" id="p259w345" />
<path d="M354.87 555.48l18.72 0l0 12.56l-18.72 0Z" id="p259w346" />
<path d="M260.59 571.01l19.44 0l0 12.23l-19.44 0Z" id="p259w347" />
<path d="M282.74 570.96l26.02 0l0 12.29l-26.02 0Z" id="p259w348" />
<path d="M311.46 571.01l31.95 0l0 12.23l-31.95 0Z" id="p259w349" />
<path d="M346.1 571.01l11.04 0l0 12.23l-11.04 0Z" id="p259w350" />
<path d="M359.84 570.77l15.34 0l0 12.56l-15.34 0Z" id="p259w351" />
<path d="M260.59 586.29l14.41 0l0 12.23l-14.41 0Z" id="p259w352" />
<path d="M277.7 586.24l30.26 0l0 12.29l-30.26 0Z" id="p259w353" />
<path d="M307.96 586.29l24.2 0l0 12.23l-24.2 0Z" id="p259w354" />
<path d="M334.86 586.24l39.15 0l0 12.29l-39.15 0Z" id="p259w355" />
<path d="M376.7 586.29l11.94 0l0 12.23l-11.94 0Z" id="p259w356" />
<path d="M391.34 586.29l40.87 0l0 12.23l-40.87 0Z" id="p259w357" />
<path d="M270.44 601.58l19.14 0l0 12.23l-19.14 0Z" id="p259w358" />
<path d="M292.28 601.56l27.91 0l0 12.23l-27.91 0Z" id="p259w359" />
<path d="M322.9 601.33l14.79 0l0 12.56l-14.79 0Z" id="p259w360" />
<path d="M260.59 616.81l25.89 0l0 12.29l-25.89 0Z" id="p259w361" />
<path d="M289.18 616.86l25.21 0l0 12.23l-25.21 0Z" id="p259w362" />
<path d="M317.09 616.62l18.92 0l0 12.56l-18.92 0Z" id="p259w363" />
<path d="M260.59 632.14l14.41 0l0 12.23l-14.41 0Z" id="p259w364" />
<path d="M277.7 632.09l64.78 0l0 12.29l-64.78 0Z" id="p259w365" />
<path d="M345.18 632.14l54.31 0l0 12.23l-54.31 0Z" id="p259w366" />
<path d="M423.34 631.9l14.63 0l0 12.56l-14.63 0Z" id="p259w367" />
<path d="M260.59 647.43l20.03 0l0 12.23l-20.03 0Z" id="p259w368" />
<path d="M283.33 647.37l60.21 0l0 12.29l-60.21 0Z" id="p259w369" />
<path d="M346.24 647.43l17.56 0l0 12.23l-17.56 0Z" id="p259w370" />
<path d="M366.5 647.43l35.79 0l0 12.23l-35.79 0Z" id="p259w371" />
<path d="M404.99 647.18l18.92 0l0 12.56l-18.92 0Z" id="p259w372" />
<path d="M260.59 662.71l10.58 0l0 12.23l-10.58 0Z" id="p259w373" />
<path d="M273.88 662.71l13.5 0l0 12.23l-13.5 0Z" id="p259w374" />
<path d="M290.08 662.71l15.75 0l0 12.23l-15.75 0Z" id="p259w375" />
<path d="M308.53 662.66l19.92 0l0 12.29l-19.92 0Z" id="p259w376" />
<path d="M331.15 662.71l12.38 0l0 12.23l-12.38 0Z" id="p259w377" />
<path d="M346.24 662.71l21.61 0l0 12.23l-21.61 0Z" id="p259w378" />
<path d="M370.55 662.71l34.78 0l0 12.23l-34.78 0Z" id="p259w379" />
<path d="M270.44 677.99l38.49 0l0 12.23l-38.49 0Z" id="p259w380" />
<path d="M311.64 677.75l15.54 0l0 12.56l-15.54 0Z" id="p259w381" />
<path d="M260.59 693.28l16.43 0l0 12.23l-16.43 0Z" id="p259w382" />
<path d="M279.72 693.22l27.37 0l0 12.29l-27.37 0Z" id="p259w383" />
<path d="M309.79 693.28l8.33 0l0 12.23l-8.33 0Z" id="p259w384" />
<path d="M320.82 693.28l32.41 0l0 12.23l-32.41 0Z" id="p259w385" />
<path d="M355.93 693.03l14.63 0l0 12.56l-14.63 0Z" id="p259w386" />
<path d="M260.59 708.56l19.44 0l0 12.23l-19.44 0Z" id="p259w387" />
<path d="M282.74 708.51l24.98 0l0 12.29l-24.98 0Z" id="p259w388" />
<path d="M310.41 708.56l14.85 0l0 12.23l-14.85 0Z" id="p259w389" />
<path d="M327.96 708.56l11.04 0l0 12.23l-11.04 0Z" id="p259w390" />
<path d="M341.7 708.32l15.54 0l0 12.56l-15.54 0Z" id="p259w391" />
<path d="M260.59 723.79l30.64 0l0 12.29l-30.64 0Z" id="p259w392" />
<path d="M295.41 723.79l26.74 0l0 12.29l-26.74 0Z" id="p259w393" />
<path d="M326.32 723.79l31.58 0l0 12.29l-31.58 0Z" id="p259w394" />
<path d="M360.6 723.84l77.31 0l0 12.23l-77.31 0Z" id="p259w395" />
<path d="M270.44 738.88l14.41 0l0 12.56l-14.41 0Z" id="p259w396" />
<path d="M270.44 754.41l8.78 0l0 12.23l-8.78 0Z" id="p259w397" />
<path d="M281.92 754.41l30.38 0l0 12.23l-30.38 0Z" id="p259w398" />
<path d="M315 754.41l33.31 0l0 12.23l-33.31 0Z" id="p259w399" />
<path d="M359.34 754.41l8.33 0l0 12.23l-8.33 0Z" id="p259w400" />
<path d="M370.37 754.41l39.38 0l0 12.23l-39.38 0Z" id="p259w401" />
<path d="M270.44 769.7l33.31 0l0 12.23l-33.31 0Z" id="p259w402" />
<path d="M306.46 769.45l18.72 0l0 12.56l-18.72 0Z" id="p259w403" />
<path d="M260.59 784.98l14.41 0l0 12.23l-14.41 0Z" id="p259w404" />
<path d="M277.7 784.92l54.43 0l0 12.29l-54.43 0Z" id="p259w405" />
<path d="M334.83 784.98l11.94 0l0 12.23l-11.94 0Z" id="p259w406" />
<path d="M349.47 784.98l27.23 0l0 12.23l-27.23 0Z" id="p259w407" />
<path d="M379.41 784.73l14.63 0l0 12.56l-14.63 0Z" id="p259w408" />
<path d="M260.59 800.26l14.41 0l0 12.23l-14.41 0Z" id="p259w409" />
<path d="M277.7 800.21l26.37 0l0 12.29l-26.37 0Z" id="p259w410" />
<path d="M306.77 800.26l13.05 0l0 12.23l-13.05 0Z" id="p259w411" />
<path d="M322.52 800.26l22.45 0l0 12.23l-22.45 0Z" id="p259w412" />
<path d="M367.1 800.24l14.18 0l0 12.23l-14.18 0Z" id="p259w413" />
<path d="M383.98 800.02l15.54 0l0 12.56l-15.54 0Z" id="p259w414" />
<path d="M260.59 815.55l16.43 0l0 12.23l-16.43 0Z" id="p259w415" />
<path d="M279.72 815.49l22.65 0l0 12.29l-22.65 0Z" id="p259w416" />
<path d="M305.08 815.55l8.33 0l0 12.23l-8.33 0Z" id="p259w417" />
<path d="M316.1 815.55l35.56 0l0 12.23l-35.56 0Z" id="p259w418" />
<path d="M354.36 815.3l18.01 0l0 12.56l-18.01 0Z" id="p259w419" />
<path d="M260.59 830.83l14.41 0l0 12.23l-14.41 0Z" id="p259w420" />
<path d="M277.7 830.77l25.34 0l0 12.29l-25.34 0Z" id="p259w421" />
<path d="M305.74 830.83l34.75 0l0 12.23l-34.75 0Z" id="p259w422" />
<path d="M364.34 830.58l18.17 0l0 12.56l-18.17 0Z" id="p259w423" />
<path d="M260.59 846.11l40.5 0l0 12.23l-40.5 0Z" id="p259w424" />
<path d="M303.8 846.06l29.03 0l0 12.29l-29.03 0Z" id="p259w425" />
<path d="M335.53 846.11l30.83 0l0 12.23l-30.83 0Z" id="p259w426" />
<path d="M369.07 846.11l29.81 0l0 12.23l-29.81 0Z" id="p259w427" />
<path d="M401.58 846.11l27 0l0 12.23l-27 0Z" id="p259w428" />
<path d="M270.44 861.4l27.37 0l0 12.23l-27.37 0Z" id="p259w429" />
<path d="M300.51 861.15l15.54 0l0 12.56l-15.54 0Z" id="p259w430" />
<path d="M260.59 876.68l19.44 0l0 12.23l-19.44 0Z" id="p259w431" />
<path d="M282.74 876.62l26.85 0l0 12.29l-26.85 0Z" id="p259w432" />
<path d="M312.29 876.68l15.76 0l0 12.23l-15.76 0Z" id="p259w433" />
<path d="M330.75 876.68l38.03 0l0 12.23l-38.03 0Z" id="p259w434" />
<path d="M371.48 876.68l21.37 0l0 12.23l-21.37 0Z" id="p259w435" />
<path d="M395.56 876.68l11.04 0l0 12.23l-11.04 0Z" id="p259w436" />
<path d="M409.29 876.43l15.54 0l0 12.56l-15.54 0Z" id="p259w437" />
<path d="M260.59 891.91l37.3 0l0 12.29l-37.3 0Z" id="p259w438" />
<path d="M300.6 891.96l56.17 0l0 12.23l-56.17 0Z" id="p259w439" />
<path d="M359.46 891.72l18.92 0l0 12.56l-18.92 0Z" id="p259w440" />
<path d="M260.59 907.25l16.43 0l0 12.23l-16.43 0Z" id="p259w441" />
<path d="M279.72 907.19l62.17 0l0 12.29l-62.17 0Z" id="p259w442" />
<path d="M344.59 907.25l8.33 0l0 12.23l-8.33 0Z" id="p259w443" />
<path d="M355.62 907.25l36.45 0l0 12.23l-36.45 0Z" id="p259w444" />
<path d="M394.77 907.25l39.83 0l0 12.23l-39.83 0Z" id="p259w445" />
<path d="M270.44 922.28l15.54 0l0 12.56l-15.54 0Z" id="p259w446" />
<path d="M462.11 112.51l14.41 0l0 12.23l-14.41 0Z" id="p259w447" />
<path d="M479.22 112.45l55.83 0l0 12.29l-55.83 0Z" id="p259w448" />
<path d="M537.75 112.51l11.94 0l0 12.23l-11.94 0Z" id="p259w449" />
<path d="M552.39 112.51l33.77 0l0 12.23l-33.77 0Z" id="p259w450" />
<path d="M588.86 112.51l34.2 0l0 12.23l-34.2 0Z" id="p259w451" />
<path d="M625.76 112.26l14.63 0l0 12.56l-14.63 0Z" id="p259w452" />
<path d="M462.11 127.79l14.41 0l0 12.23l-14.41 0Z" id="p259w453" />
<path d="M479.22 127.74l19.7 0l0 12.29l-19.7 0Z" id="p259w454" />
<path d="M501.62 127.79l17.56 0l0 12.23l-17.56 0Z" id="p259w455" />
<path d="M521.88 127.79l39.4 0l0 12.23l-39.4 0Z" id="p259w456" />
<path d="M563.98 127.55l15.54 0l0 12.56l-15.54 0Z" id="p259w457" />
<path d="M462.11 143.08l15.53 0l0 12.23l-15.53 0Z" id="p259w458" />
<path d="M480.34 143.02l38.47 0l0 12.29l-38.47 0Z" id="p259w459" />
<path d="M521.51 143.08l13.05 0l0 12.23l-13.05 0Z" id="p259w460" />
<path d="M537.26 143.08l34.21 0l0 12.23l-34.21 0Z" id="p259w461" />
<path d="M587.46 143.05l14.18 0l0 12.23l-14.18 0Z" id="p259w462" />
<path d="M604.34 142.83l15.34 0l0 12.56l-15.34 0Z" id="p259w463" />
<path d="M462.11 158.36l19.44 0l0 12.23l-19.44 0Z" id="p259w464" />
<path d="M484.25 158.3l22.98 0l0 12.29l-22.98 0Z" id="p259w465" />
<path d="M509.93 158.36l20.03 0l0 12.23l-20.03 0Z" id="p259w466" />
<path d="M532.66 158.36l11.04 0l0 12.23l-11.04 0Z" id="p259w467" />
<path d="M546.4 158.11l18.92 0l0 12.56l-18.92 0Z" id="p259w468" />
<path d="M462.11 173.64l20.03 0l0 12.23l-20.03 0Z" id="p259w469" />
<path d="M484.84 173.64l47.72 0l0 12.23l-47.72 0Z" id="p259w470" />
<path d="M532.56 173.59l22.53 0l0 12.29l-22.53 0Z" id="p259w471" />
<path d="M557.79 173.64l17.56 0l0 12.23l-17.56 0Z" id="p259w472" />
<path d="M578.06 173.64l23.13 0l0 12.23l-23.13 0Z" id="p259w473" />
<path d="M603.89 173.4l15.54 0l0 12.56l-15.54 0Z" id="p259w474" />
<path d="M462.11 188.93l29.94 0l0 12.23l-29.94 0Z" id="p259w475" />
<path d="M494.76 188.87l22.19 0l0 12.29l-22.19 0Z" id="p259w476" />
<path d="M527.97 188.93l34.17 0l0 12.23l-34.17 0Z" id="p259w477" />
<path d="M564.84 188.68l15.54 0l0 12.56l-15.54 0Z" id="p259w478" />
<path d="M462.11 204.21l20.03 0l0 12.23l-20.03 0Z" id="p259w479" />
<path d="M484.84 204.15l22.42 0l0 12.29l-22.42 0Z" id="p259w480" />
<path d="M509.96 204.21l17.56 0l0 12.23l-17.56 0Z" id="p259w481" />
<path d="M530.23 204.21l19.57 0l0 12.23l-19.57 0Z" id="p259w482" />
<path d="M552.5 203.96l15.54 0l0 12.56l-15.54 0Z" id="p259w483" />
<path d="M462.11 219.49l14.41 0l0 12.23l-14.41 0Z" id="p259w484" />
<path d="M479.22 219.44l21.49 0l0 12.29l-21.49 0Z" id="p259w485" />
<path d="M503.41 219.49l11.94 0l0 12.23l-11.94 0Z" id="p259w486" />
<path d="M518.05 219.49l18.67 0l0 12.23l-18.67 0Z" id="p259w487" />
<path d="M539.42 219.49l18.91 0l0 12.23l-18.91 0Z" id="p259w488" />
<path d="M561.03 219.25l15.54 0l0 12.56l-15.54 0Z" id="p259w489" />
<path d="M462.11 234.78l10.58 0l0 12.23l-10.58 0Z" id="p259w490" />
<path d="M475.4 234.78l11.25 0l0 12.23l-11.25 0Z" id="p259w491" />
<path d="M489.35 234.78l28.04 0l0 12.23l-28.04 0Z" id="p259w492" />
<path d="M520.09 234.72l13.49 0l0 12.29l-13.49 0Z" id="p259w493" />
<path d="M538.54 234.78l5.86 0l0 12.23l-5.86 0Z" id="p259w494" />
<path d="M563.08 234.78l11.7 0l0 12.23l-11.7 0Z" id="p259w495" />
<path d="M577.49 234.78l54.33 0l0 12.23l-54.33 0Z" id="p259w496" />
<path d="M486.97 249.81l18.92 0l0 12.56l-18.92 0Z" id="p259w497" />
<path d="M462.11 265.29l15.88 0l0 12.29l-15.88 0Z" id="p259w498" />
<path d="M483.85 265.34l22.51 0l0 12.23l-22.51 0Z" id="p259w499" />
<path d="M514.92 265.1l19.58 0l0 12.56l-19.58 0Z" id="p259w500" />
<path d="M462.11 280.63l20.03 0l0 12.23l-20.03 0Z" id="p259w501" />
<path d="M484.84 280.57l33.81 0l0 12.29l-33.81 0Z" id="p259w502" />
<path d="M521.36 280.63l17.56 0l0 12.23l-17.56 0Z" id="p259w503" />
<path d="M541.62 280.63l37.6 0l0 12.23l-37.6 0Z" id="p259w504" />
<path d="M581.92 280.38l19.58 0l0 12.56l-19.58 0Z" id="p259w505" />
<path d="M462.11 295.85l26.37 0l0 12.29l-26.37 0Z" id="p259w506" />
<path d="M491.18 295.91l31.28 0l0 12.23l-31.28 0Z" id="p259w507" />
<path d="M525.16 295.66l19.58 0l0 12.56l-19.58 0Z" id="p259w508" />
<path d="M462.11 311.14l19.95 0l0 12.29l-19.95 0Z" id="p259w509" />
<path d="M484.77 311.19l31.75 0l0 12.23l-31.75 0Z" id="p259w510" />
<path d="M519.21 311.19l28.04 0l0 12.23l-28.04 0Z" id="p259w511" />
<path d="M549.96 311.19l10.82 0l0 12.23l-10.82 0Z" id="p259w512" />
<path d="M563.47 311.19l15.76 0l0 12.23l-15.76 0Z" id="p259w513" />
<path d="M581.93 311.19l23.19 0l0 12.23l-23.19 0Z" id="p259w514" />
<path d="M607.82 311.19l25.21 0l0 12.23l-25.21 0Z" id="p259w515" />
<path d="M471.96 326.48l11.7 0l0 12.23l-11.7 0Z" id="p259w516" />
<path d="M486.37 326.48l21.37 0l0 12.23l-21.37 0Z" id="p259w517" />
<path d="M510.44 326.48l11.04 0l0 12.23l-11.04 0Z" id="p259w518" />
<path d="M524.18 326.23l15.54 0l0 12.56l-15.54 0Z" id="p259w519" />
<path d="M462.11 341.7l26.25 0l0 12.29l-26.25 0Z" id="p259w520" />
<path d="M491.07 341.76l85.4 0l0 12.23l-85.4 0Z" id="p259w521" />
<path d="M579.17 341.74l27.91 0l0 12.23l-27.91 0Z" id="p259w522" />
<path d="M609.78 341.52l15.54 0l0 12.56l-15.54 0Z" id="p259w523" />
<path d="M471.96 357.04l91.71 0l0 12.23l-91.71 0Z" id="p259w524" />
<path d="M566.37 356.8l18.92 0l0 12.56l-18.92 0Z" id="p259w525" />
<path d="M599.75 357.04l23.86 0l0 12.23l-23.86 0Z" id="p259w526" />
<path d="M471.96 372.08l18.92 0l0 12.56l-18.92 0Z" id="p259w527" />
<path d="M462.11 387.61l18.46 0l0 12.23l-18.46 0Z" id="p259w528" />
<path d="M483.28 387.61l21.39 0l0 12.23l-21.39 0Z" id="p259w529" />
<path d="M507.36 387.61l40.5 0l0 12.23l-40.5 0Z" id="p259w530" />
<path d="M550.57 387.55l26.25 0l0 12.29l-26.25 0Z" id="p259w531" />
<path d="M579.52 387.61l37.59 0l0 12.23l-37.59 0Z" id="p259w532" />
<path d="M619.81 387.61l10.35 0l0 12.23l-10.35 0Z" id="p259w533" />
<path d="M471.96 402.89l36.47 0l0 12.23l-36.47 0Z" id="p259w534" />
<path d="M511.13 402.89l11.7 0l0 12.23l-11.7 0Z" id="p259w535" />
<path d="M525.54 402.89l27.37 0l0 12.23l-27.37 0Z" id="p259w536" />
<path d="M555.6 402.65l18.92 0l0 12.56l-18.92 0Z" id="p259w537" />
<path d="M462.11 418.18l14.41 0l0 12.23l-14.41 0Z" id="p259w538" />
<path d="M479.22 418.12l25.91 0l0 12.29l-25.91 0Z" id="p259w539" />
<path d="M507.83 418.18l11.94 0l0 12.23l-11.94 0Z" id="p259w540" />
<path d="M522.47 418.18l23.86 0l0 12.23l-23.86 0Z" id="p259w541" />
<path d="M549.03 417.93l14.63 0l0 12.56l-14.63 0Z" id="p259w542" />
<path d="M462.11 471.67l19.44 0l0 12.23l-19.44 0Z" id="p259w543" />
<path d="M484.25 471.61l37.29 0l0 12.29l-37.29 0Z" id="p259w544" />
<path d="M524.25 471.67l21.37 0l0 12.23l-21.37 0Z" id="p259w545" />
<path d="M548.32 471.67l11.04 0l0 12.23l-11.04 0Z" id="p259w546" />
<path d="M562.06 471.42l15.54 0l0 12.56l-15.54 0Z" id="p259w547" />
<path d="M471.96 486.95l23.63 0l0 12.23l-23.63 0Z" id="p259w548" />
<path d="M498.29 486.95l56.01 0l0 12.23l-56.01 0Z" id="p259w549" />
<path d="M557 486.95l37.59 0l0 12.23l-37.59 0Z" id="p259w550" />
<path d="M597.29 486.95l27.91 0l0 12.23l-27.91 0Z" id="p259w551" />
<path d="M471.96 502.24l27.37 0l0 12.23l-27.37 0Z" id="p259w552" />
<path d="M502.03 501.99l18.72 0l0 12.56l-18.72 0Z" id="p259w553" />
<path d="M471.96 517.52l17.33 0l0 12.23l-17.33 0Z" id="p259w554" />
<path d="M491.99 517.52l29.71 0l0 12.23l-29.71 0Z" id="p259w555" />
<path d="M538.32 517.52l11.7 0l0 12.23l-11.7 0Z" id="p259w556" />
<path d="M552.72 517.52l26.97 0l0 12.23l-26.97 0Z" id="p259w557" />
<path d="M582.39 517.27l15.54 0l0 12.56l-15.54 0Z" id="p259w558" />
<path d="M462.11 532.8l14.41 0l0 12.23l-14.41 0Z" id="p259w559" />
<path d="M479.22 532.75l43.63 0l0 12.29l-43.63 0Z" id="p259w560" />
<path d="M525.55 532.8l17.56 0l0 12.23l-17.56 0Z" id="p259w561" />
<path d="M545.81 532.8l6.3 0l0 12.23l-6.3 0Z" id="p259w562" />
<path d="M552.11 532.8l11.03 0l0 12.23l-11.03 0Z" id="p259w563" />
<path d="M565.84 532.56l14.79 0l0 12.56l-14.79 0Z" id="p259w564" />
<path d="M462.11 548.09l14.41 0l0 12.23l-14.41 0Z" id="p259w565" />
<path d="M479.22 548.03l29.49 0l0 12.29l-29.49 0Z" id="p259w566" />
<path d="M511.41 548.09l8.33 0l0 12.23l-8.33 0Z" id="p259w567" />
<path d="M522.44 548.09l29.2 0l0 12.23l-29.2 0Z" id="p259w568" />
<path d="M554.34 547.84l14.63 0l0 12.56l-14.63 0Z" id="p259w569" />
<path d="M462.11 563.37l20.03 0l0 12.23l-20.03 0Z" id="p259w570" />
<path d="M484.84 563.31l41.24 0l0 12.29l-41.24 0Z" id="p259w571" />
<path d="M528.78 563.37l11.94 0l0 12.23l-11.94 0Z" id="p259w572" />
<path d="M543.42 563.37l25.88 0l0 12.23l-25.88 0Z" id="p259w573" />
<path d="M572 563.12l15.54 0l0 12.56l-15.54 0Z" id="p259w574" />
<path d="M462.11 578.6l17.98 0l0 12.29l-17.98 0Z" id="p259w575" />
<path d="M482.8 578.65l17.55 0l0 12.23l-17.55 0Z" id="p259w576" />
<path d="M524.2 578.41l14.79 0l0 12.56l-14.79 0Z" id="p259w577" />
<path d="M462.11 593.94l14.41 0l0 12.23l-14.41 0Z" id="p259w578" />
<path d="M479.22 593.88l17.98 0l0 12.29l-17.98 0Z" id="p259w579" />
<path d="M499.9 593.94l17.56 0l0 12.23l-17.56 0Z" id="p259w580" />
<path d="M520.17 593.94l16.88 0l0 12.23l-16.88 0Z" id="p259w581" />
<path d="M539.75 593.69l18.01 0l0 12.56l-18.01 0Z" id="p259w582" />
<path d="M462.11 609.16l49.37 0l0 12.29l-49.37 0Z" id="p259w583" />
<path d="M514.19 609.22l32.41 0l0 12.23l-32.41 0Z" id="p259w584" />
<path d="M549.3 608.97l14.79 0l0 12.56l-14.79 0Z" id="p259w585" />
<path d="M462.11 624.5l14.41 0l0 12.23l-14.41 0Z" id="p259w586" />
<path d="M479.22 624.45l32.77 0l0 12.29l-32.77 0Z" id="p259w587" />
<path d="M514.69 624.5l11.94 0l0 12.23l-11.94 0Z" id="p259w588" />
<path d="M529.33 624.5l32.58 0l0 12.23l-32.58 0Z" id="p259w589" />
<path d="M564.61 624.26l15.54 0l0 12.56l-15.54 0Z" id="p259w590" />
<path d="M462.11 639.79l14.41 0l0 12.23l-14.41 0Z" id="p259w591" />
<path d="M479.22 639.73l35.57 0l0 12.29l-35.57 0Z" id="p259w592" />
<path d="M517.49 639.79l11.94 0l0 12.23l-11.94 0Z" id="p259w593" />
<path d="M532.13 639.79l30.61 0l0 12.23l-30.61 0Z" id="p259w594" />
<path d="M565.44 639.54l18.92 0l0 12.56l-18.92 0Z" id="p259w595" />
<path d="M462.11 655.07l14.41 0l0 12.23l-14.41 0Z" id="p259w596" />
<path d="M479.22 655.01l27.33 0l0 12.29l-27.33 0Z" id="p259w597" />
<path d="M509.25 655.07l11.94 0l0 12.23l-11.94 0Z" id="p259w598" />
<path d="M523.89 655.07l36.01 0l0 12.23l-36.01 0Z" id="p259w599" />
<path d="M562.61 654.83l15.54 0l0 12.56l-15.54 0Z" id="p259w600" />
<path d="M462.11 670.35l20.03 0l0 12.23l-20.03 0Z" id="p259w601" />
<path d="M484.84 670.3l56.14 0l0 12.29l-56.14 0Z" id="p259w602" />
<path d="M543.69 670.35l17.56 0l0 12.23l-17.56 0Z" id="p259w603" />
<path d="M563.95 670.35l31.97 0l0 12.23l-31.97 0Z" id="p259w604" />
<path d="M598.62 670.11l14.63 0l0 12.56l-14.63 0Z" id="p259w605" />
<path d="M462.11 685.58l38.19 0l0 12.29l-38.19 0Z" id="p259w606" />
<path d="M503.01 685.64l82.72 0l0 12.23l-82.72 0Z" id="p259w607" />
<path d="M588.43 685.39l17.81 0l0 12.56l-17.81 0Z" id="p259w608" />
<path d="M462.11 700.92l14.41 0l0 12.23l-14.41 0Z" id="p259w609" />
<path d="M479.22 700.86l46.66 0l0 12.29l-46.66 0Z" id="p259w610" />
<path d="M528.58 700.92l11.94 0l0 12.23l-11.94 0Z" id="p259w611" />
<path d="M543.22 700.92l45.92 0l0 12.23l-45.92 0Z" id="p259w612" />
<path d="M591.84 700.68l18.92 0l0 12.56l-18.92 0Z" id="p259w613" />
<path d="M462.11 716.2l14.41 0l0 12.23l-14.41 0Z" id="p259w614" />
<path d="M479.22 716.15l41.39 0l0 12.29l-41.39 0Z" id="p259w615" />
<path d="M523.31 716.2l11.94 0l0 12.23l-11.94 0Z" id="p259w616" />
<path d="M537.95 716.2l26.34 0l0 12.23l-26.34 0Z" id="p259w617" />
<path d="M567 715.96l18.92 0l0 12.56l-18.92 0Z" id="p259w618" />
<path d="M462.11 731.49l20.03 0l0 12.23l-20.03 0Z" id="p259w619" />
<path d="M484.84 731.43l30.34 0l0 12.29l-30.34 0Z" id="p259w620" />
<path d="M517.89 731.49l17.56 0l0 12.23l-17.56 0Z" id="p259w621" />
<path d="M538.15 731.49l36.24 0l0 12.23l-36.24 0Z" id="p259w622" />
<path d="M577.09 731.24l15.34 0l0 12.56l-15.34 0Z" id="p259w623" />
<path d="M462.11 746.77l14.41 0l0 12.23l-14.41 0Z" id="p259w624" />
<path d="M479.22 746.71l28.67 0l0 12.29l-28.67 0Z" id="p259w625" />
<path d="M510.59 746.77l11.94 0l0 12.23l-11.94 0Z" id="p259w626" />
<path d="M525.22 746.77l35.34 0l0 12.23l-35.34 0Z" id="p259w627" />
<path d="M563.26 746.53l14.63 0l0 12.56l-14.63 0Z" id="p259w628" />
<path d="M462.11 762l23.86 0l0 12.29l-23.86 0Z" id="p259w629" />
<path d="M488.68 762.05l23.4 0l0 12.23l-23.4 0Z" id="p259w630" />
<path d="M535.93 761.81l14.79 0l0 12.56l-14.79 0Z" id="p259w631" />
<path d="M462.11 777.28l30.82 0l0 12.29l-30.82 0Z" id="p259w632" />
<path d="M495.64 777.31l25.65 0l0 12.23l-25.65 0Z" id="p259w633" />
<path d="M523.99 777.31l69.6 0l0 12.23l-69.6 0Z" id="p259w634" />
<path d="M596.3 777.34l13.05 0l0 12.23l-13.05 0Z" id="p259w635" />
<path d="M612.05 777.34l29.48 0l0 12.23l-29.48 0Z" id="p259w636" />
<path d="M485.24 792.6l14.18 0l0 12.23l-14.18 0Z" id="p259w637" />
<path d="M502.13 792.6l27.91 0l0 12.23l-27.91 0Z" id="p259w638" />
<path d="M544.44 792.6l12.6 0l0 12.23l-12.6 0Z" id="p259w639" />
<path d="M559.75 792.6l77.2 0l0 12.23l-77.2 0Z" id="p259w640" />
<path d="M471.96 807.66l15.54 0l0 12.56l-15.54 0Z" id="p259w641" />
<path d="M462.11 823.19l14.41 0l0 12.23l-14.41 0Z" id="p259w642" />
<path d="M479.22 823.13l39.25 0l0 12.29l-39.25 0Z" id="p259w643" />
<path d="M521.17 823.19l11.94 0l0 12.23l-11.94 0Z" id="p259w644" />
<path d="M535.81 823.19l27.45 0l0 12.23l-27.45 0Z" id="p259w645" />
<path d="M565.96 822.94l18.92 0l0 12.56l-18.92 0Z" id="p259w646" />
<path d="M462.11 838.47l20.03 0l0 12.23l-20.03 0Z" id="p259w647" />
<path d="M484.84 838.41l30.67 0l0 12.29l-30.67 0Z" id="p259w648" />
<path d="M518.21 838.47l11.94 0l0 12.23l-11.94 0Z" id="p259w649" />
<path d="M532.85 838.47l18.91 0l0 12.23l-18.91 0Z" id="p259w650" />
<path d="M554.46 838.23l18.17 0l0 12.56l-18.17 0Z" id="p259w651" />
<path d="M462.11 853.75l14.41 0l0 12.23l-14.41 0Z" id="p259w652" />
<path d="M479.22 853.7l55.55 0l0 12.29l-55.55 0Z" id="p259w653" />
<path d="M534.77 853.75l24.2 0l0 12.23l-24.2 0Z" id="p259w654" />
<path d="M561.67 853.7l64.45 0l0 12.29l-64.45 0Z" id="p259w655" />
<path d="M628.82 853.75l11.94 0l0 12.23l-11.94 0Z" id="p259w656" />
<path d="M471.96 869.04l75.31 0l0 12.23l-75.31 0Z" id="p259w657" />
<path d="M549.97 869.04l65.28 0l0 12.23l-65.28 0Z" id="p259w658" />
<path d="M617.95 868.79l17.81 0l0 12.56l-17.81 0Z" id="p259w659" />
<path d="M462.11 884.32l14.41 0l0 12.23l-14.41 0Z" id="p259w660" />
<path d="M479.22 884.27l35.74 0l0 12.29l-35.74 0Z" id="p259w661" />
<path d="M517.66 884.32l13.05 0l0 12.23l-13.05 0Z" id="p259w662" />
<path d="M533.41 884.32l33.98 0l0 12.23l-33.98 0Z" id="p259w663" />
<path d="M589.52 884.3l14.18 0l0 12.23l-14.18 0Z" id="p259w664" />
<path d="M606.4 884.08l18.01 0l0 12.56l-18.01 0Z" id="p259w665" />
<path d="M471.96 899.6l14.41 0l0 12.23l-14.41 0Z" id="p259w666" />
<path d="M489.07 899.6l29.27 0l0 12.23l-29.27 0Z" id="p259w667" />
<path d="M521.03 899.6l35.34 0l0 12.23l-35.34 0Z" id="p259w668" />
<path d="M559.07 899.6l13.05 0l0 12.23l-13.05 0Z" id="p259w669" />
<path d="M574.82 899.6l44.35 0l0 12.23l-44.35 0Z" id="p259w670" />
<path d="M471.96 914.89l60.06 0l0 12.23l-60.06 0Z" id="p259w671" />
<path d="M534.72 914.64l18.92 0l0 12.56l-18.92 0Z" id="p259w672" />
</svg>
