<?xml version="1.0" encoding="UTF-8"?>
<svg xmlns="http://www.w3.org/2000/svg" xmlns:xlink="http://www.w3.org/1999/xlink" version="1.1" baseProfile="full" width="768" height="1024" viewBox="0,0,768,1024" preserveAspectRatio="xMinYMin meet" >
<style type="text/css">
<![CDATA[
path {fill-opacity: 0.5;fill: #00aeef;visibility: hidden;}
]]>
</style>
<path d="M124.06 104.82l96.83 0l0 23.34l-96.83 0Z" id="p91w1" />
<path d="M243.28 104.82l26.71 0l0 23.34l-26.71 0Z" id="p91w2" />
<path d="M275.06 104.82l41.12 0l0 23.34l-41.12 0Z" id="p91w3" />
<path d="M124.06 138.9l70.26 0l0 15.09l-70.26 0Z" id="p91w4" />
<path d="M197.93 138.9l10.5 0l0 15.09l-10.5 0Z" id="p91w5" />
<path d="M212.05 138.9l41.11 0l0 15.09l-41.11 0Z" id="p91w6" />
<path d="M256.77 138.9l47.72 0l0 15.09l-47.72 0Z" id="p91w7" />
<path d="M308.1 138.9l41.09 0l0 15.09l-41.09 0Z" id="p91w8" />
<path d="M362.9 138.9l34.51 0l0 15.09l-34.51 0Z" id="p91w9" />
<path d="M401.02 138.9l13.91 0l0 15.09l-13.91 0Z" id="p91w10" />
<path d="M418.54 138.9l57.59 0l0 15.09l-57.59 0Z" id="p91w11" />
<path d="M489.84 138.9l10.42 0l0 15.09l-10.42 0Z" id="p91w12" />
<path d="M503.88 138.9l48.97 0l0 15.09l-48.97 0Z" id="p91w13" />
<path d="M556.45 138.9l13.91 0l0 15.09l-13.91 0Z" id="p91w14" />
<path d="M573.97 138.9l10.42 0l0 15.09l-10.42 0Z" id="p91w15" />
<path d="M588 138.9l40.03 0l0 15.09l-40.03 0Z" id="p91w16" />
<path d="M124.06 155.57l12.99 0l0 15.09l-12.99 0Z" id="p91w17" />
<path d="M140.67 155.57l33.85 0l0 15.09l-33.85 0Z" id="p91w18" />
<path d="M178.13 155.57l13.91 0l0 15.09l-13.91 0Z" id="p91w19" />
<path d="M195.65 155.57l39.98 0l0 15.09l-39.98 0Z" id="p91w20" />
<path d="M239.24 155.57l11.26 0l0 15.09l-11.26 0Z" id="p91w21" />
<path d="M254.11 155.57l25.96 0l0 15.09l-25.96 0Z" id="p91w22" />
<path d="M293.78 155.57l27.71 0l0 15.09l-27.71 0Z" id="p91w23" />
<path d="M325.1 155.57l31.41 0l0 15.09l-31.41 0Z" id="p91w24" />
<path d="M360.13 155.57l26.5 0l0 15.09l-26.5 0Z" id="p91w25" />
<path d="M390.24 155.57l29.6 0l0 15.09l-29.6 0Z" id="p91w26" />
<path d="M423.45 155.57l25.69 0l0 15.09l-25.69 0Z" id="p91w27" />
<path d="M452.75 155.57l15.74 0l0 15.09l-15.74 0Z" id="p91w28" />
<path d="M472.11 155.57l63.21 0l0 15.09l-63.21 0Z" id="p91w29" />
<path d="M538.92 155.57l19.01 0l0 15.09l-19.01 0Z" id="p91w30" />
<path d="M561.54 155.57l23.61 0l0 15.09l-23.61 0Z" id="p91w31" />
<path d="M598.86 155.57l50.87 0l0 15.09l-50.87 0Z" id="p91w32" />
<path d="M124.06 172.24l15.89 0l0 15.09l-15.89 0Z" id="p91w33" />
<path d="M143.56 172.24l41.72 0l0 15.09l-41.72 0Z" id="p91w34" />
<path d="M188.89 172.24l11.26 0l0 15.09l-11.26 0Z" id="p91w35" />
<path d="M203.76 172.24l15.89 0l0 15.09l-15.89 0Z" id="p91w36" />
<path d="M233.35 172.24l29.69 0l0 15.09l-29.69 0Z" id="p91w37" />
<path d="M276.76 172.24l29.46 0l0 15.09l-29.46 0Z" id="p91w38" />
<path d="M309.82 172.24l15.74 0l0 15.09l-15.74 0Z" id="p91w39" />
<path d="M329.18 172.24l56.46 0l0 15.09l-56.46 0Z" id="p91w40" />
<path d="M389.25 172.24l48.81 0l0 15.09l-48.81 0Z" id="p91w41" />
<path d="M441.67 172.24l26.18 0l0 15.09l-26.18 0Z" id="p91w42" />
<path d="M471.46 172.24l45.77 0l0 15.09l-45.77 0Z" id="p91w43" />
<path d="M520.84 172.24l48.71 0l0 15.09l-48.71 0Z" id="p91w44" />
<path d="M573.16 172.24l18.04 0l0 15.09l-18.04 0Z" id="p91w45" />
<path d="M594.82 172.24l26.5 0l0 15.09l-26.5 0Z" id="p91w46" />
<path d="M124.06 188.91l29.6 0l0 15.09l-29.6 0Z" id="p91w47" />
<path d="M164.4 188.91l26.89 0l0 15.09l-26.89 0Z" id="p91w48" />
<path d="M194.9 188.91l15.74 0l0 15.09l-15.74 0Z" id="p91w49" />
<path d="M214.26 188.91l45.82 0l0 15.09l-45.82 0Z" id="p91w50" />
<path d="M275.96 188.91l10.42 0l0 15.09l-10.42 0Z" id="p91w51" />
<path d="M289.99 188.91l8.21 0l0 15.09l-8.21 0Z" id="p91w52" />
<path d="M309.84 188.91l13.91 0l0 15.09l-13.91 0Z" id="p91w53" />
<path d="M327.35 188.91l10.42 0l0 15.09l-10.42 0Z" id="p91w54" />
<path d="M341.39 188.91l52.53 0l0 15.09l-52.53 0Z" id="p91w55" />
<path d="M397.53 188.91l10.42 0l0 15.09l-10.42 0Z" id="p91w56" />
<path d="M411.56 188.91l33.85 0l0 15.09l-33.85 0Z" id="p91w57" />
<path d="M449.02 188.91l13.91 0l0 15.09l-13.91 0Z" id="p91w58" />
<path d="M501.83 188.92l43.66 0l0 15.09l-43.66 0Z" id="p91w59" />
<path d="M549.1 188.92l20.54 0l0 15.09l-20.54 0Z" id="p91w60" />
<path d="M573.25 188.92l64.47 0l0 15.09l-64.47 0Z" id="p91w61" />
<path d="M124.06 205.59l27.23 0l0 15.09l-27.23 0Z" id="p91w62" />
<path d="M154.9 205.59l15.74 0l0 15.09l-15.74 0Z" id="p91w63" />
<path d="M174.26 205.59l37.07 0l0 15.09l-37.07 0Z" id="p91w64" />
<path d="M214.94 205.59l27.82 0l0 15.09l-27.82 0Z" id="p91w65" />
<path d="M246.37 205.59l92.42 0l0 15.09l-92.42 0Z" id="p91w66" />
<path d="M53.5 113.09l20.74 0l0 12.3l-20.74 0Z" id="p91w67" />
<path d="M68.27 39.02l42.71 0l0 15.38l-42.71 0Z" id="p91w68" />
<path d="M152.94 38.6l45.75 0l0 16.09l-45.75 0Z" id="p91w69" />
<path d="M250.71 39.02l43.21 0l0 15.38l-43.21 0Z" id="p91w70" />
<path d="M358.23 39.02l28.68 0l0 15.38l-28.68 0Z" id="p91w71" />
<path d="M390.29 39.02l43.54 0l0 15.38l-43.54 0Z" id="p91w72" />
<path d="M467.02 39.02l32.54 0l0 15.38l-32.54 0Z" id="p91w73" />
<path d="M609.14 983l81.96 0l0 12.23l-81.96 0Z" id="p91w74" />
<path d="M135.83 250.29l19.92 0l0 22.09l-19.92 0Z" id="p91w75" />
<path d="M161.09 250.29l74.54 0l0 22.09l-74.54 0Z" id="p91w76" />
<path d="M240.97 250.29l16.22 0l0 22.09l-16.22 0Z" id="p91w77" />
<path d="M262.52 250.29l38.05 0l0 22.09l-38.05 0Z" id="p91w78" />
<path d="M305.92 250.29l37.32 0l0 22.09l-37.32 0Z" id="p91w79" />
<path d="M348.57 250.29l21.34 0l0 22.09l-21.34 0Z" id="p91w80" />
<path d="M375.25 250.29l65.67 0l0 22.09l-65.67 0Z" id="p91w81" />
<path d="M135.83 505.58l26.32 0l0 15.42l-26.32 0Z" id="p91w82" />
<path d="M180.48 505.7l17.38 0l0 15.09l-17.38 0Z" id="p91w83" />
<path d="M201.46 505.7l18.07 0l0 15.09l-18.07 0Z" id="p91w84" />
<path d="M223.15 505.7l38.27 0l0 15.09l-38.27 0Z" id="p91w85" />
<path d="M265.03 505.7l14.39 0l0 15.09l-14.39 0Z" id="p91w86" />
<path d="M283.04 505.7l12.58 0l0 15.09l-12.58 0Z" id="p91w87" />
<path d="M299.23 505.7l27.23 0l0 15.09l-27.23 0Z" id="p91w88" />
<path d="M330.07 505.7l31.8 0l0 15.09l-31.8 0Z" id="p91w89" />
<path d="M135.83 522.37l33.85 0l0 15.09l-33.85 0Z" id="p91w90" />
<path d="M173.29 522.37l13.91 0l0 15.09l-13.91 0Z" id="p91w91" />
<path d="M216 522.38l15.06 0l0 15.09l-15.06 0Z" id="p91w92" />
<path d="M234.68 522.38l41.11 0l0 15.09l-41.11 0Z" id="p91w93" />
<path d="M279.4 522.38l47.72 0l0 15.09l-47.72 0Z" id="p91w94" />
<path d="M330.73 522.38l44.25 0l0 15.09l-44.25 0Z" id="p91w95" />
<path d="M135.83 539.05l27.3 0l0 15.09l-27.3 0Z" id="p91w96" />
<path d="M166.74 539.05l10.42 0l0 15.09l-10.42 0Z" id="p91w97" />
<path d="M180.78 539.05l53.99 0l0 15.09l-53.99 0Z" id="p91w98" />
<path d="M238.38 539.05l20.96 0l0 15.09l-20.96 0Z" id="p91w99" />
<path d="M262.95 539.05l13.91 0l0 15.09l-13.91 0Z" id="p91w100" />
<path d="M280.47 539.05l46.72 0l0 15.09l-46.72 0Z" id="p91w101" />
<path d="M330.8 539.05l28.26 0l0 15.09l-28.26 0Z" id="p91w102" />
<path d="M135.83 555.72l48.37 0l0 15.09l-48.37 0Z" id="p91w103" />
<path d="M187.82 555.72l24.93 0l0 15.09l-24.93 0Z" id="p91w104" />
<path d="M216.36 555.72l14.59 0l0 15.09l-14.59 0Z" id="p91w105" />
<path d="M234.56 555.72l40.2 0l0 15.09l-40.2 0Z" id="p91w106" />
<path d="M278.37 555.72l14.59 0l0 15.09l-14.59 0Z" id="p91w107" />
<path d="M296.57 555.72l34.88 0l0 15.09l-34.88 0Z" id="p91w108" />
<path d="M335.06 555.72l29.83 0l0 15.09l-29.83 0Z" id="p91w109" />
<path d="M135.83 572.38l48.53 0l0 15.09l-48.53 0Z" id="p91w110" />
<path d="M187.97 572.38l28.89 0l0 15.09l-28.89 0Z" id="p91w111" />
<path d="M220.48 572.38l46.38 0l0 15.09l-46.38 0Z" id="p91w112" />
<path d="M270.47 572.38l21.67 0l0 15.09l-21.67 0Z" id="p91w113" />
<path d="M295.75 572.38l27.82 0l0 15.09l-27.82 0Z" id="p91w114" />
<path d="M327.19 572.38l22.31 0l0 15.09l-22.31 0Z" id="p91w115" />
<path d="M353.11 572.38l36.23 0l0 15.09l-36.23 0Z" id="p91w116" />
<path d="M135.83 589.05l8.02 0l0 15.09l-8.02 0Z" id="p91w117" />
<path d="M147.46 589.05l23.44 0l0 15.09l-23.44 0Z" id="p91w118" />
<path d="M174.52 589.05l23.2 0l0 15.09l-23.2 0Z" id="p91w119" />
<path d="M201.33 589.05l21.67 0l0 15.09l-21.67 0Z" id="p91w120" />
<path d="M226.61 589.05l28.26 0l0 15.09l-28.26 0Z" id="p91w121" />
<path d="M258.48 589.05l34.89 0l0 15.09l-34.89 0Z" id="p91w122" />
<path d="M296.98 589.05l36.8 0l0 15.09l-36.8 0Z" id="p91w123" />
<path d="M337.39 589.05l26.5 0l0 15.09l-26.5 0Z" id="p91w124" />
<path d="M135.83 605.72l29.6 0l0 15.09l-29.6 0Z" id="p91w125" />
<path d="M169.04 605.72l24.62 0l0 15.09l-24.62 0Z" id="p91w126" />
<path d="M197.28 605.72l24.29 0l0 15.09l-24.29 0Z" id="p91w127" />
<path d="M225.18 605.72l21.67 0l0 15.09l-21.67 0Z" id="p91w128" />
<path d="M250.46 605.72l66.25 0l0 15.09l-66.25 0Z" id="p91w129" />
<path d="M320.32 605.72l29.83 0l0 15.09l-29.83 0Z" id="p91w130" />
<path d="M353.76 605.72l34.89 0l0 15.09l-34.89 0Z" id="p91w131" />
<path d="M135.83 622.39l53.32 0l0 15.09l-53.32 0Z" id="p91w132" />
<path d="M192.77 622.39l25.69 0l0 15.09l-25.69 0Z" id="p91w133" />
<path d="M222.07 622.39l48.76 0l0 15.09l-48.76 0Z" id="p91w134" />
<path d="M274.44 622.39l58.95 0l0 15.09l-58.95 0Z" id="p91w135" />
<path d="M337 622.39l15.74 0l0 15.09l-15.74 0Z" id="p91w136" />
<path d="M135.83 639.06l63.21 0l0 15.09l-63.21 0Z" id="p91w137" />
<path d="M202.65 639.06l79.55 0l0 15.09l-79.55 0Z" id="p91w138" />
<path d="M285.82 639.06l21.67 0l0 15.09l-21.67 0Z" id="p91w139" />
<path d="M311.09 639.06l31.8 0l0 15.09l-31.8 0Z" id="p91w140" />
<path d="M346.5 639.06l24.64 0l0 15.09l-24.64 0Z" id="p91w141" />
<path d="M135.83 655.73l55.96 0l0 15.09l-55.96 0Z" id="p91w142" />
<path d="M205.5 655.73l36.79 0l0 15.09l-36.79 0Z" id="p91w143" />
<path d="M245.91 655.73l27.61 0l0 15.09l-27.61 0Z" id="p91w144" />
<path d="M277.13 655.73l19.12 0l0 15.09l-19.12 0Z" id="p91w145" />
<path d="M299.86 655.73l28.26 0l0 15.09l-28.26 0Z" id="p91w146" />
<path d="M331.73 655.73l34.89 0l0 15.09l-34.89 0Z" id="p91w147" />
<path d="M135.83 672.4l42.35 0l0 15.09l-42.35 0Z" id="p91w148" />
<path d="M181.79 672.4l13.91 0l0 15.09l-13.91 0Z" id="p91w149" />
<path d="M199.31 672.4l28.26 0l0 15.09l-28.26 0Z" id="p91w150" />
<path d="M231.18 672.4l39.93 0l0 15.09l-39.93 0Z" id="p91w151" />
<path d="M274.72 672.4l27.23 0l0 15.09l-27.23 0Z" id="p91w152" />
<path d="M305.57 672.4l10.42 0l0 15.09l-10.42 0Z" id="p91w153" />
<path d="M319.6 672.4l28.36 0l0 15.09l-28.36 0Z" id="p91w154" />
<path d="M351.58 672.4l26.64 0l0 15.09l-26.64 0Z" id="p91w155" />
<path d="M135.83 689.07l22.45 0l0 15.09l-22.45 0Z" id="p91w156" />
<path d="M161.9 689.07l51.21 0l0 15.09l-51.21 0Z" id="p91w157" />
<path d="M135.83 714.08l33.36 0l0 15.09l-33.36 0Z" id="p91w158" />
<path d="M172.81 714.08l64.98 0l0 15.09l-64.98 0Z" id="p91w159" />
<path d="M241.4 714.08l13.91 0l0 15.09l-13.91 0Z" id="p91w160" />
<path d="M258.92 714.08l55.62 0l0 15.09l-55.62 0Z" id="p91w161" />
<path d="M318.15 714.08l64.53 0l0 15.09l-64.53 0Z" id="p91w162" />
<path d="M153.61 730.75l42.87 0l0 15.09l-42.87 0Z" id="p91w163" />
<path d="M200.09 730.75l48.76 0l0 15.09l-48.76 0Z" id="p91w164" />
<path d="M252.46 730.75l55.39 0l0 15.09l-55.39 0Z" id="p91w165" />
<path d="M311.47 730.75l28.26 0l0 15.09l-28.26 0Z" id="p91w166" />
<path d="M135.83 747.41l50.87 0l0 15.09l-50.87 0Z" id="p91w167" />
<path d="M205.89 747.41l28.83 0l0 15.09l-28.83 0Z" id="p91w168" />
<path d="M238.33 747.41l15.74 0l0 15.09l-15.74 0Z" id="p91w169" />
<path d="M257.68 747.41l46.22 0l0 15.09l-46.22 0Z" id="p91w170" />
<path d="M307.51 747.41l26.3 0l0 15.09l-26.3 0Z" id="p91w171" />
<path d="M337.42 747.41l38.62 0l0 15.09l-38.62 0Z" id="p91w172" />
<path d="M135.83 764.08l39.3 0l0 15.09l-39.3 0Z" id="p91w173" />
<path d="M178.75 764.08l15.15 0l0 15.09l-15.15 0Z" id="p91w174" />
<path d="M197.51 764.08l47.94 0l0 15.09l-47.94 0Z" id="p91w175" />
<path d="M249.06 764.08l18.49 0l0 15.09l-18.49 0Z" id="p91w176" />
<path d="M271.16 764.08l61.64 0l0 15.09l-61.64 0Z" id="p91w177" />
<path d="M336.41 764.08l15.15 0l0 15.09l-15.15 0Z" id="p91w178" />
<path d="M355.18 764.08l31.02 0l0 15.09l-31.02 0Z" id="p91w179" />
<path d="M135.83 780.75l49.15 0l0 15.09l-49.15 0Z" id="p91w180" />
<path d="M188.59 780.75l37.89 0l0 15.09l-37.89 0Z" id="p91w181" />
<path d="M230.09 780.75l10.42 0l0 15.09l-10.42 0Z" id="p91w182" />
<path d="M244.12 780.75l46.99 0l0 15.09l-46.99 0Z" id="p91w183" />
<path d="M303.18 780.75l48.18 0l0 15.09l-48.18 0Z" id="p91w184" />
<path d="M354.97 780.75l26.5 0l0 15.09l-26.5 0Z" id="p91w185" />
<path d="M135.83 797.42l33.16 0l0 15.09l-33.16 0Z" id="p91w186" />
<path d="M172.6 797.42l28.26 0l0 15.09l-28.26 0Z" id="p91w187" />
<path d="M204.48 797.42l34.89 0l0 15.09l-34.89 0Z" id="p91w188" />
<path d="M242.98 797.42l37 0l0 15.09l-37 0Z" id="p91w189" />
<path d="M283.59 797.42l23.21 0l0 15.09l-23.21 0Z" id="p91w190" />
<path d="M310.41 797.42l15.89 0l0 15.09l-15.89 0Z" id="p91w191" />
<path d="M329.91 797.42l35.69 0l0 15.09l-35.69 0Z" id="p91w192" />
<path d="M369.21 797.42l15.89 0l0 15.09l-15.89 0Z" id="p91w193" />
<path d="M135.83 814.09l24.62 0l0 15.09l-24.62 0Z" id="p91w194" />
<path d="M164.07 814.09l42.75 0l0 15.09l-42.75 0Z" id="p91w195" />
<path d="M210.43 814.09l11.26 0l0 15.09l-11.26 0Z" id="p91w196" />
<path d="M225.3 814.09l15.89 0l0 15.09l-15.89 0Z" id="p91w197" />
<path d="M244.79 814.09l24.62 0l0 15.09l-24.62 0Z" id="p91w198" />
<path d="M273.03 814.09l44.61 0l0 15.09l-44.61 0Z" id="p91w199" />
<path d="M321.25 814.09l15.06 0l0 15.09l-15.06 0Z" id="p91w200" />
<path d="M339.92 814.09l44.25 0l0 15.09l-44.25 0Z" id="p91w201" />
<path d="M135.83 830.76l48.76 0l0 15.09l-48.76 0Z" id="p91w202" />
<path d="M188.2 830.76l25.65 0l0 15.09l-25.65 0Z" id="p91w203" />
<path d="M217.47 830.76l34.84 0l0 15.09l-34.84 0Z" id="p91w204" />
<path d="M255.92 830.76l9.29 0l0 15.09l-9.29 0Z" id="p91w205" />
<path d="M268.82 830.76l28.26 0l0 15.09l-28.26 0Z" id="p91w206" />
<path d="M300.7 830.76l33.57 0l0 15.09l-33.57 0Z" id="p91w207" />
<path d="M337.88 830.76l19.29 0l0 15.09l-19.29 0Z" id="p91w208" />
<path d="M360.78 830.76l29.77 0l0 15.09l-29.77 0Z" id="p91w209" />
<path d="M135.83 847.43l56.51 0l0 15.09l-56.51 0Z" id="p91w210" />
<path d="M195.95 847.43l54.13 0l0 15.09l-54.13 0Z" id="p91w211" />
<path d="M253.7 847.43l14.59 0l0 15.09l-14.59 0Z" id="p91w212" />
<path d="M271.9 847.43l45.19 0l0 15.09l-45.19 0Z" id="p91w213" />
<path d="M320.7 847.43l68.71 0l0 15.09l-68.71 0Z" id="p91w214" />
<path d="M135.83 864.1l28.26 0l0 15.09l-28.26 0Z" id="p91w215" />
<path d="M167.71 864.1l48.53 0l0 15.09l-48.53 0Z" id="p91w216" />
<path d="M219.85 864.1l24.62 0l0 15.09l-24.62 0Z" id="p91w217" />
<path d="M248.08 864.1l48.18 0l0 15.09l-48.18 0Z" id="p91w218" />
<path d="M299.87 864.1l33.54 0l0 15.09l-33.54 0Z" id="p91w219" />
<path d="M337.03 864.1l7.84 0l0 15.09l-7.84 0Z" id="p91w220" />
<path d="M348.48 864.1l28.26 0l0 15.09l-28.26 0Z" id="p91w221" />
<path d="M135.83 880.77l54.35 0l0 15.09l-54.35 0Z" id="p91w222" />
<path d="M193.8 880.77l13.91 0l0 15.09l-13.91 0Z" id="p91w223" />
<path d="M211.31 880.77l35.34 0l0 15.09l-35.34 0Z" id="p91w224" />
<path d="M250.27 880.77l13.91 0l0 15.09l-13.91 0Z" id="p91w225" />
<path d="M267.78 880.77l31.8 0l0 15.09l-31.8 0Z" id="p91w226" />
<path d="M303.19 880.77l37.9 0l0 15.09l-37.9 0Z" id="p91w227" />
<path d="M344.7 880.77l11.26 0l0 15.09l-11.26 0Z" id="p91w228" />
<path d="M359.57 880.77l19.29 0l0 15.09l-19.29 0Z" id="p91w229" />
<path d="M135.83 897.44l33.72 0l0 15.09l-33.72 0Z" id="p91w230" />
<path d="M173.17 897.44l19.01 0l0 15.09l-19.01 0Z" id="p91w231" />
<path d="M195.79 897.44l28.26 0l0 15.09l-28.26 0Z" id="p91w232" />
<path d="M227.66 897.44l68.35 0l0 15.09l-68.35 0Z" id="p91w233" />
<path d="M299.62 897.44l29.83 0l0 15.09l-29.83 0Z" id="p91w234" />
<path d="M333.06 897.44l48.53 0l0 15.09l-48.53 0Z" id="p91w235" />
<path d="M135.83 914.1l42.4 0l0 15.09l-42.4 0Z" id="p91w236" />
<path d="M181.84 914.1l15.74 0l0 15.09l-15.74 0Z" id="p91w237" />
<path d="M201.2 914.1l21.87 0l0 15.09l-21.87 0Z" id="p91w238" />
<path d="M226.68 914.1l36.47 0l0 15.09l-36.47 0Z" id="p91w239" />
<path d="M266.77 914.1l43.83 0l0 15.09l-43.83 0Z" id="p91w240" />
<path d="M314.21 914.1l32.88 0l0 15.09l-32.88 0Z" id="p91w241" />
<path d="M350.69 914.1l33.71 0l0 15.09l-33.71 0Z" id="p91w242" />
<path d="M413.5 505.62l11.26 0l0 15.09l-11.26 0Z" id="p91w243" />
<path d="M428.37 505.62l28.26 0l0 15.09l-28.26 0Z" id="p91w244" />
<path d="M460.24 505.62l60.74 0l0 15.09l-60.74 0Z" id="p91w245" />
<path d="M524.59 505.62l19.29 0l0 15.09l-19.29 0Z" id="p91w246" />
<path d="M547.49 505.62l33.72 0l0 15.09l-33.72 0Z" id="p91w247" />
<path d="M584.83 505.62l27.82 0l0 15.09l-27.82 0Z" id="p91w248" />
<path d="M616.26 505.62l10.5 0l0 15.09l-10.5 0Z" id="p91w249" />
<path d="M413.5 522.29l42.66 0l0 15.09l-42.66 0Z" id="p91w250" />
<path d="M466.9 522.29l10.5 0l0 15.09l-10.5 0Z" id="p91w251" />
<path d="M481.01 522.29l42.18 0l0 15.09l-42.18 0Z" id="p91w252" />
<path d="M526.8 522.29l13.91 0l0 15.09l-13.91 0Z" id="p91w253" />
<path d="M544.32 522.29l42.48 0l0 15.09l-42.48 0Z" id="p91w254" />
<path d="M590.41 522.29l62.34 0l0 15.09l-62.34 0Z" id="p91w255" />
<path d="M413.5 538.96l15.89 0l0 15.09l-15.89 0Z" id="p91w256" />
<path d="M433 538.96l55.8 0l0 15.09l-55.8 0Z" id="p91w257" />
<path d="M492.41 538.96l13.91 0l0 15.09l-13.91 0Z" id="p91w258" />
<path d="M509.93 538.96l37.26 0l0 15.09l-37.26 0Z" id="p91w259" />
<path d="M550.8 538.96l22.31 0l0 15.09l-22.31 0Z" id="p91w260" />
<path d="M576.72 538.96l50.55 0l0 15.09l-50.55 0Z" id="p91w261" />
<path d="M413.5 555.63l61.54 0l0 15.09l-61.54 0Z" id="p91w262" />
<path d="M478.65 555.63l14.21 0l0 15.09l-14.21 0Z" id="p91w263" />
<path d="M496.47 555.63l33.79 0l0 15.09l-33.79 0Z" id="p91w264" />
<path d="M533.87 555.63l19.29 0l0 15.09l-19.29 0Z" id="p91w265" />
<path d="M556.77 555.63l46.11 0l0 15.09l-46.11 0Z" id="p91w266" />
<path d="M413.5 572.29l17.38 0l0 15.09l-17.38 0Z" id="p91w267" />
<path d="M434.49 572.29l19.62 0l0 15.09l-19.62 0Z" id="p91w268" />
<path d="M457.72 572.29l22.31 0l0 15.09l-22.31 0Z" id="p91w269" />
<path d="M483.65 572.29l24.48 0l0 15.09l-24.48 0Z" id="p91w270" />
<path d="M511.74 572.29l14.21 0l0 15.09l-14.21 0Z" id="p91w271" />
<path d="M529.57 572.29l46.45 0l0 15.09l-46.45 0Z" id="p91w272" />
<path d="M579.62 572.29l12.22 0l0 15.09l-12.22 0Z" id="p91w273" />
<path d="M595.46 572.29l43.85 0l0 15.09l-43.85 0Z" id="p91w274" />
<path d="M413.5 588.96l15.15 0l0 15.09l-15.15 0Z" id="p91w275" />
<path d="M432.26 588.96l14.59 0l0 15.09l-14.59 0Z" id="p91w276" />
<path d="M450.46 588.96l26.57 0l0 15.09l-26.57 0Z" id="p91w277" />
<path d="M480.64 588.96l19.46 0l0 15.09l-19.46 0Z" id="p91w278" />
<path d="M503.71 588.96l26.89 0l0 15.09l-26.89 0Z" id="p91w279" />
<path d="M534.21 588.96l15.74 0l0 15.09l-15.74 0Z" id="p91w280" />
<path d="M553.56 588.96l37.07 0l0 15.09l-37.07 0Z" id="p91w281" />
<path d="M594.24 588.96l18.49 0l0 15.09l-18.49 0Z" id="p91w282" />
<path d="M616.34 588.96l27.8 0l0 15.09l-27.8 0Z" id="p91w283" />
<path d="M413.5 605.63l28.26 0l0 15.09l-28.26 0Z" id="p91w284" />
<path d="M445.37 605.63l28.26 0l0 15.09l-28.26 0Z" id="p91w285" />
<path d="M477.25 605.63l68.32 0l0 15.09l-68.32 0Z" id="p91w286" />
<path d="M549.18 605.63l9.29 0l0 15.09l-9.29 0Z" id="p91w287" />
<path d="M562.08 605.63l46.54 0l0 15.09l-46.54 0Z" id="p91w288" />
<path d="M612.23 605.63l33.72 0l0 15.09l-33.72 0Z" id="p91w289" />
<path d="M413.5 622.3l25.23 0l0 15.09l-25.23 0Z" id="p91w290" />
<path d="M442.34 622.3l24.62 0l0 15.09l-24.62 0Z" id="p91w291" />
<path d="M470.58 622.3l70.49 0l0 15.09l-70.49 0Z" id="p91w292" />
<path d="M544.68 622.3l21.67 0l0 15.09l-21.67 0Z" id="p91w293" />
<path d="M569.96 622.3l50.3 0l0 15.09l-50.3 0Z" id="p91w294" />
<path d="M413.5 638.97l33.34 0l0 15.09l-33.34 0Z" id="p91w295" />
<path d="M450.45 638.97l25.23 0l0 15.09l-25.23 0Z" id="p91w296" />
<path d="M479.29 638.97l15.89 0l0 15.09l-15.89 0Z" id="p91w297" />
<path d="M498.79 638.97l24.62 0l0 15.09l-24.62 0Z" id="p91w298" />
<path d="M527.02 638.97l63.59 0l0 15.09l-63.59 0Z" id="p91w299" />
<path d="M594.22 638.97l27.82 0l0 15.09l-27.82 0Z" id="p91w300" />
<path d="M625.66 638.97l10.42 0l0 15.09l-10.42 0Z" id="p91w301" />
<path d="M639.69 638.97l22.31 0l0 15.09l-22.31 0Z" id="p91w302" />
<path d="M413.5 655.64l12.22 0l0 15.09l-12.22 0Z" id="p91w303" />
<path d="M429.33 655.64l15.89 0l0 15.09l-15.89 0Z" id="p91w304" />
<path d="M448.83 655.64l36.47 0l0 15.09l-36.47 0Z" id="p91w305" />
<path d="M488.91 655.64l65.31 0l0 15.09l-65.31 0Z" id="p91w306" />
<path d="M566.93 655.64l47.39 0l0 15.09l-47.39 0Z" id="p91w307" />
<path d="M617.92 655.64l36.1 0l0 15.09l-36.1 0Z" id="p91w308" />
<path d="M413.5 672.31l30.66 0l0 15.09l-30.66 0Z" id="p91w309" />
<path d="M447.78 672.31l42.46 0l0 15.09l-42.46 0Z" id="p91w310" />
<path d="M503.95 672.31l42.33 0l0 15.09l-42.33 0Z" id="p91w311" />
<path d="M549.9 672.31l28.34 0l0 15.09l-28.34 0Z" id="p91w312" />
<path d="M413.5 697.19l26.58 0l0 15.42l-26.58 0Z" id="p91w313" />
<path d="M458.53 697.32l30.09 0l0 15.09l-30.09 0Z" id="p91w314" />
<path d="M492.23 697.32l47.32 0l0 15.09l-47.32 0Z" id="p91w315" />
<path d="M543.16 697.32l14.72 0l0 15.09l-14.72 0Z" id="p91w316" />
<path d="M561.49 697.32l34.24 0l0 15.09l-34.24 0Z" id="p91w317" />
<path d="M599.34 697.32l18.16 0l0 15.09l-18.16 0Z" id="p91w318" />
<path d="M621.11 697.32l28.45 0l0 15.09l-28.45 0Z" id="p91w319" />
<path d="M413.5 713.99l33.89 0l0 15.09l-33.89 0Z" id="p91w320" />
<path d="M451 713.99l40.15 0l0 15.09l-40.15 0Z" id="p91w321" />
<path d="M494.76 713.99l57.22 0l0 15.09l-57.22 0Z" id="p91w322" />
<path d="M565.76 713.99l30.43 0l0 15.09l-30.43 0Z" id="p91w323" />
<path d="M599.8 713.99l30.02 0l0 15.09l-30.02 0Z" id="p91w324" />
<path d="M413.5 730.66l48.91 0l0 15.09l-48.91 0Z" id="p91w325" />
<path d="M466.03 730.66l69.57 0l0 15.09l-69.57 0Z" id="p91w326" />
<path d="M539.2 730.66l49.94 0l0 15.09l-49.94 0Z" id="p91w327" />
<path d="M592.76 730.66l18.69 0l0 15.09l-18.69 0Z" id="p91w328" />
<path d="M615.06 730.66l16.08 0l0 15.09l-16.08 0Z" id="p91w329" />
<path d="M634.75 730.66l34.04 0l0 15.09l-34.04 0Z" id="p91w330" />
<path d="M413.5 747.33l11.39 0l0 15.09l-11.39 0Z" id="p91w331" />
<path d="M428.5 747.33l28.52 0l0 15.09l-28.52 0Z" id="p91w332" />
<path d="M460.63 747.33l41.31 0l0 15.09l-41.31 0Z" id="p91w333" />
<path d="M505.55 747.33l19.48 0l0 15.09l-19.48 0Z" id="p91w334" />
<path d="M528.64 747.33l48.79 0l0 15.09l-48.79 0Z" id="p91w335" />
<path d="M581.04 747.33l51.95 0l0 15.09l-51.95 0Z" id="p91w336" />
<path d="M413.5 763.99l15.87 0l0 15.09l-15.87 0Z" id="p91w337" />
<path d="M432.98 763.99l34.44 0l0 15.09l-34.44 0Z" id="p91w338" />
<path d="M471.04 763.99l37.51 0l0 15.09l-37.51 0Z" id="p91w339" />
<path d="M512.16 763.99l14.99 0l0 15.09l-14.99 0Z" id="p91w340" />
<path d="M530.76 763.99l54.17 0l0 15.09l-54.17 0Z" id="p91w341" />
<path d="M588.54 763.99l33.21 0l0 15.09l-33.21 0Z" id="p91w342" />
<path d="M413.5 780.66l37.51 0l0 15.09l-37.51 0Z" id="p91w343" />
<path d="M454.63 780.66l27.34 0l0 15.09l-27.34 0Z" id="p91w344" />
<path d="M485.57 780.66l14.99 0l0 15.09l-14.99 0Z" id="p91w345" />
<path d="M504.17 780.66l45.38 0l0 15.09l-45.38 0Z" id="p91w346" />
<path d="M553.16 780.66l44.01 0l0 15.09l-44.01 0Z" id="p91w347" />
<path d="M600.78 780.66l16.01 0l0 15.09l-16.01 0Z" id="p91w348" />
<path d="M413.5 797.33l77.41 0l0 15.09l-77.41 0Z" id="p91w349" />
<path d="M494.52 797.33l19.2 0l0 15.09l-19.2 0Z" id="p91w350" />
<path d="M517.33 797.33l28.52 0l0 15.09l-28.52 0Z" id="p91w351" />
<path d="M549.46 797.33l61.43 0l0 15.09l-61.43 0Z" id="p91w352" />
<path d="M623.65 797.33l13.13 0l0 15.09l-13.13 0Z" id="p91w353" />
<path d="M413.5 814l20.09 0l0 15.09l-20.09 0Z" id="p91w354" />
<path d="M433.59 814l24.16 0l0 15.09l-24.16 0Z" id="p91w355" />
<path d="M461.36 814l26.62 0l0 15.09l-26.62 0Z" id="p91w356" />
<path d="M491.59 814l37.66 0l0 15.09l-37.66 0Z" id="p91w357" />
<path d="M532.86 814l18.69 0l0 15.09l-18.69 0Z" id="p91w358" />
<path d="M555.15 814l51.77 0l0 15.09l-51.77 0Z" id="p91w359" />
<path d="M610.53 814l27.27 0l0 15.09l-27.27 0Z" id="p91w360" />
<path d="M413.5 830.67l57.01 0l0 15.09l-57.01 0Z" id="p91w361" />
<path d="M474.12 830.67l27.21 0l0 15.09l-27.21 0Z" id="p91w362" />
<path d="M504.94 830.67l10.63 0l0 15.09l-10.63 0Z" id="p91w363" />
<path d="M519.18 830.67l14.18 0l0 15.09l-14.18 0Z" id="p91w364" />
<path d="M536.97 830.67l31.55 0l0 15.09l-31.55 0Z" id="p91w365" />
<path d="M572.13 830.67l36.58 0l0 15.09l-36.58 0Z" id="p91w366" />
<path d="M612.32 830.67l16.01 0l0 15.09l-16.01 0Z" id="p91w367" />
<path d="M413.5 847.34l77.41 0l0 15.09l-77.41 0Z" id="p91w368" />
<path d="M503.67 847.34l49.21 0l0 15.09l-49.21 0Z" id="p91w369" />
<path d="M556.49 847.34l55.97 0l0 15.09l-55.97 0Z" id="p91w370" />
<path d="M616.07 847.34l28.45 0l0 15.09l-28.45 0Z" id="p91w371" />
<path d="M413.5 864.01l51.38 0l0 15.09l-51.38 0Z" id="p91w372" />
<path d="M484.2 864.01l18.65 0l0 15.09l-18.65 0Z" id="p91w373" />
<path d="M506.46 864.01l77.41 0l0 15.09l-77.41 0Z" id="p91w374" />
<path d="M587.48 864.01l14.72 0l0 15.09l-14.72 0Z" id="p91w375" />
<path d="M605.8 864.01l25.49 0l0 15.09l-25.49 0Z" id="p91w376" />
<path d="M634.9 864.01l19.59 0l0 15.09l-19.59 0Z" id="p91w377" />
<path d="M413.5 880.68l49.66 0l0 15.09l-49.66 0Z" id="p91w378" />
<path d="M466.77 880.68l38.02 0l0 15.09l-38.02 0Z" id="p91w379" />
<path d="M508.4 880.68l27.55 0l0 15.09l-27.55 0Z" id="p91w380" />
<path d="M539.56 880.68l16.08 0l0 15.09l-16.08 0Z" id="p91w381" />
<path d="M559.25 880.68l31 0l0 15.09l-31 0Z" id="p91w382" />
<path d="M590.25 880.68l15.06 0l0 15.09l-15.06 0Z" id="p91w383" />
<path d="M608.93 880.68l7.97 0l0 15.09l-7.97 0Z" id="p91w384" />
<path d="M620.5 880.68l23.63 0l0 15.09l-23.63 0Z" id="p91w385" />
<path d="M413.5 897.35l29.78 0l0 15.09l-29.78 0Z" id="p91w386" />
<path d="M446.89 897.35l54.17 0l0 15.09l-54.17 0Z" id="p91w387" />
<path d="M504.67 897.35l44.12 0l0 15.09l-44.12 0Z" id="p91w388" />
</svg>
