<?xml version="1.0" encoding="UTF-8"?>
<svg xmlns="http://www.w3.org/2000/svg" xmlns:xlink="http://www.w3.org/1999/xlink" version="1.1" baseProfile="full" width="768" height="1024" viewBox="0,0,768,1024" preserveAspectRatio="xMinYMin meet" >
<style type="text/css">
<![CDATA[
path {fill-opacity: 0.5;fill: #00aeef;visibility: hidden;}
]]>
</style>
<path d="M124.06 831.11l51.89 0l0 14.52l-51.89 0Z" id="p60w1" />
<path d="M179.16 831.11l9.89 0l0 14.52l-9.89 0Z" id="p60w2" />
<path d="M192.25 831.11l28.33 0l0 14.52l-28.33 0Z" id="p60w3" />
<path d="M223.78 831.11l13.9 0l0 14.52l-13.9 0Z" id="p60w4" />
<path d="M240.89 831.11l49.13 0l0 14.52l-49.13 0Z" id="p60w5" />
<path d="M303.11 831.11l9.89 0l0 14.52l-9.89 0Z" id="p60w6" />
<path d="M316.2 831.11l27.73 0l0 14.52l-27.73 0Z" id="p60w7" />
<path d="M369.32 831.11l11.22 0l0 14.52l-11.22 0Z" id="p60w8" />
<path d="M383.74 831.11l41.45 0l0 14.52l-41.45 0Z" id="p60w9" />
<path d="M428.4 831.11l15.5 0l0 14.52l-15.5 0Z" id="p60w10" />
<path d="M447.1 831.11l25.94 0l0 14.52l-25.94 0Z" id="p60w11" />
<path d="M476.25 831.11l48.38 0l0 14.52l-48.38 0Z" id="p60w12" />
<path d="M527.83 831.11l26.73 0l0 14.52l-26.73 0Z" id="p60w13" />
<path d="M557.76 831.11l9.89 0l0 14.52l-9.89 0Z" id="p60w14" />
<path d="M570.86 831.11l18.99 0l0 14.52l-18.99 0Z" id="p60w15" />
<path d="M124.06 864.45l53.22 0l0 14.52l-53.22 0Z" id="p60w16" />
<path d="M180.49 864.45l15.5 0l0 14.52l-15.5 0Z" id="p60w17" />
<path d="M199.19 864.45l28.06 0l0 14.52l-28.06 0Z" id="p60w18" />
<path d="M230.46 864.45l11.22 0l0 14.52l-11.22 0Z" id="p60w19" />
<path d="M244.89 864.45l65.22 0l0 14.52l-65.22 0Z" id="p60w20" />
<path d="M313.31 864.45l48.48 0l0 14.52l-48.48 0Z" id="p60w21" />
<path d="M124.06 889.48l72.19 0l0 14.61l-72.19 0Z" id="p60w22" />
<path d="M199.28 889.48l24.76 0l0 14.61l-24.76 0Z" id="p60w23" />
<path d="M227.25 889.48l35.22 0l0 14.61l-35.22 0Z" id="p60w24" />
<path d="M265.68 889.48l6.41 0l0 14.61l-6.41 0Z" id="p60w25" />
<path d="M294.21 889.48l19.51 0l0 14.61l-19.51 0Z" id="p60w26" />
<path d="M316.93 889.48l52.78 0l0 14.61l-52.78 0Z" id="p60w27" />
<path d="M372.92 889.48l11.22 0l0 14.61l-11.22 0Z" id="p60w28" />
<path d="M387.35 889.48l19.51 0l0 14.61l-19.51 0Z" id="p60w29" />
<path d="M410.06 889.48l44.07 0l0 14.61l-44.07 0Z" id="p60w30" />
<path d="M457.34 889.48l13.9 0l0 14.61l-13.9 0Z" id="p60w31" />
<path d="M474.45 889.48l53.99 0l0 14.61l-53.99 0Z" id="p60w32" />
<path d="M531.64 889.48l28.01 0l0 14.61l-28.01 0Z" id="p60w33" />
<path d="M53.36 807.94l20.74 0l0 12.3l-20.74 0Z" id="p60w34" />
<path d="M53.27 866.3l35.72 0l0 12.3l-35.72 0Z" id="p60w35" />
<path d="M44.76 877.41l44.24 0l0 12.3l-44.24 0Z" id="p60w36" />
<path d="M128.98 921.33l68.17 0l0 14.52l-68.17 0Z" id="p60w37" />
<path d="M214.88 921.33l20.85 0l0 14.52l-20.85 0Z" id="p60w38" />
<path d="M238.94 921.33l63.08 0l0 14.52l-63.08 0Z" id="p60w39" />
<path d="M319.74 921.33l20.85 0l0 14.52l-20.85 0Z" id="p60w40" />
<path d="M343.81 921.33l22.45 0l0 14.52l-22.45 0Z" id="p60w41" />
<path d="M369.47 921.33l44.85 0l0 14.52l-44.85 0Z" id="p60w42" />
<path d="M432.04 921.33l9.89 0l0 14.52l-9.89 0Z" id="p60w43" />
<path d="M445.13 921.33l44.1 0l0 14.52l-44.1 0Z" id="p60w44" />
<path d="M506.95 921.33l14.18 0l0 14.52l-14.18 0Z" id="p60w45" />
<path d="M524.34 921.33l64.94 0l0 14.52l-64.94 0Z" id="p60w46" />
<path d="M607 921.33l14.18 0l0 14.52l-14.18 0Z" id="p60w47" />
<path d="M624.38 921.33l47.31 0l0 14.52l-47.31 0Z" id="p60w48" />
<path d="M76.9 983l68.37 0l0 12.23l-68.37 0Z" id="p60w49" />
<path d="M115.94 81.65l11.4 0l0 11.53l-11.4 0Z" id="p60w50" />
<path d="M129.87 81.65l18.86 0l0 11.53l-18.86 0Z" id="p60w51" />
<path d="M106.13 33.95l35.16 0l0 11.53l-35.16 0Z" id="p60w52" />
<path d="M143.57 33.95l52.06 0l0 11.53l-52.06 0Z" id="p60w53" />
<path d="M106.34 46.45l29.65 0l0 11.53l-29.65 0Z" id="p60w54" />
<path d="M35.45 194.38l35.03 0l0 39.25l-35.03 0Z" id="p60w55" />
<path d="M78.05 194.38l72.05 0l0 39.25l-72.05 0Z" id="p60w56" />
<path d="M157.68 194.38l54.6 0l0 39.25l-54.6 0Z" id="p60w57" />
<path d="M35.45 229.11l74 0l0 39.25l-74 0Z" id="p60w58" />
<path d="M115.8 229.11l123.59 0l0 39.25l-123.59 0Z" id="p60w59" />
</svg>
