<?xml version="1.0" encoding="UTF-8"?>
<svg xmlns="http://www.w3.org/2000/svg" xmlns:xlink="http://www.w3.org/1999/xlink" version="1.1" baseProfile="full" width="768" height="1024" viewBox="0,0,768,1024" preserveAspectRatio="xMinYMin meet" >
<style type="text/css">
<![CDATA[
path {fill-opacity: 0.5;fill: #00aeef;visibility: hidden;}
]]>
</style>
<path d="M124.06 107.98l17.01 0l0 18.84l-17.01 0Z" id="p56w1" />
<path d="M144.72 107.98l81.21 0l0 18.84l-81.21 0Z" id="p56w2" />
<path d="M124.06 155.88l15.44 0l0 14.6l-15.44 0Z" id="p56w3" />
<path d="M142.71 155.88l44.03 0l0 14.6l-44.03 0Z" id="p56w4" />
<path d="M189.95 155.88l25.62 0l0 14.6l-25.62 0Z" id="p56w5" />
<path d="M218.78 155.88l17.21 0l0 14.6l-17.21 0Z" id="p56w6" />
<path d="M239.2 155.88l46.83 0l0 14.6l-46.83 0Z" id="p56w7" />
<path d="M345 155.88l20.79 0l0 14.6l-20.79 0Z" id="p56w8" />
<path d="M369 155.88l48.76 0l0 14.6l-48.76 0Z" id="p56w9" />
<path d="M420.97 155.88l14.28 0l0 14.6l-14.28 0Z" id="p56w10" />
<path d="M438.46 155.88l33.47 0l0 14.6l-33.47 0Z" id="p56w11" />
<path d="M350.92 179.99l19.51 0l0 14.52l-19.51 0Z" id="p56w12" />
<path d="M373.63 179.93l27.53 0l0 14.61l-27.53 0Z" id="p56w13" />
<path d="M404.38 179.93l36.27 0l0 14.61l-36.27 0Z" id="p56w14" />
<path d="M691.08 179.99l13.91 0l0 14.52l-13.91 0Z" id="p56w15" />
<path d="M129.97 202.07l41.97 0l0 14.52l-41.97 0Z" id="p56w16" />
<path d="M175.16 202.07l58.02 0l0 14.52l-58.02 0Z" id="p56w17" />
<path d="M236.39 202.07l9.62 0l0 14.52l-9.62 0Z" id="p56w18" />
<path d="M249.22 202.01l60.06 0l0 14.6l-60.06 0Z" id="p56w19" />
<path d="M129.97 218.74l14.18 0l0 14.52l-14.18 0Z" id="p56w20" />
<path d="M147.36 218.74l26.73 0l0 14.52l-26.73 0Z" id="p56w21" />
<path d="M177.29 218.74l13.9 0l0 14.52l-13.9 0Z" id="p56w22" />
<path d="M194.4 218.74l39.57 0l0 14.52l-39.57 0Z" id="p56w23" />
<path d="M129.97 243.76l12.41 0l0 14.52l-12.41 0Z" id="p56w24" />
<path d="M145.59 243.69l28.14 0l0 14.6l-28.14 0Z" id="p56w25" />
<path d="M176.94 243.76l24.34 0l0 14.52l-24.34 0Z" id="p56w26" />
<path d="M204.48 243.76l13.9 0l0 14.52l-13.9 0Z" id="p56w27" />
<path d="M221.59 243.76l36.89 0l0 14.52l-36.89 0Z" id="p56w28" />
<path d="M350.92 202.07l9.62 0l0 14.52l-9.62 0Z" id="p56w29" />
<path d="M363.75 202.07l49 0l0 14.52l-49 0Z" id="p56w30" />
<path d="M412.74 202.01l10.03 0l0 14.6l-10.03 0Z" id="p56w31" />
<path d="M350.92 218.74l11.5 0l0 14.52l-11.5 0Z" id="p56w32" />
<path d="M365.62 218.74l49 0l0 14.52l-49 0Z" id="p56w33" />
<path d="M414.62 218.68l12.43 0l0 14.6l-12.43 0Z" id="p56w34" />
<path d="M350.92 235.42l6.41 0l0 14.52l-6.41 0Z" id="p56w35" />
<path d="M365.58 235.42l19.77 0l0 14.52l-19.77 0Z" id="p56w36" />
<path d="M393.6 235.42l14.18 0l0 14.52l-14.18 0Z" id="p56w37" />
<path d="M410.99 235.42l49 0l0 14.52l-49 0Z" id="p56w38" />
<path d="M504.69 202.07l26.74 0l0 14.52l-26.74 0Z" id="p56w39" />
<path d="M534.64 202.07l49 0l0 14.52l-49 0Z" id="p56w40" />
<path d="M583.64 202.01l19.9 0l0 14.6l-19.9 0Z" id="p56w41" />
<path d="M504.69 218.74l25.67 0l0 14.52l-25.67 0Z" id="p56w42" />
<path d="M533.57 218.74l49 0l0 14.52l-49 0Z" id="p56w43" />
<path d="M582.57 218.68l12.37 0l0 14.6l-12.37 0Z" id="p56w44" />
<path d="M504.69 235.42l12.02 0l0 14.52l-12.02 0Z" id="p56w45" />
<path d="M524.96 235.42l25.38 0l0 14.52l-25.38 0Z" id="p56w46" />
<path d="M553.55 235.42l49 0l0 14.52l-49 0Z" id="p56w47" />
<path d="M602.55 235.35l18.85 0l0 14.6l-18.85 0Z" id="p56w48" />
<path d="M124.06 275.61l15.44 0l0 14.6l-15.44 0Z" id="p56w49" />
<path d="M142.71 275.61l62.47 0l0 14.6l-62.47 0Z" id="p56w50" />
<path d="M208.39 275.61l23.92 0l0 14.6l-23.92 0Z" id="p56w51" />
<path d="M235.52 275.61l60.73 0l0 14.6l-60.73 0Z" id="p56w52" />
<path d="M124.06 292.28l21.5 0l0 14.6l-21.5 0Z" id="p56w53" />
<path d="M148.77 292.28l21.78 0l0 14.6l-21.78 0Z" id="p56w54" />
<path d="M173.76 292.28l33.47 0l0 14.6l-33.47 0Z" id="p56w55" />
<path d="M345 292.28l20.79 0l0 14.6l-20.79 0Z" id="p56w56" />
<path d="M369 292.28l48.76 0l0 14.6l-48.76 0Z" id="p56w57" />
<path d="M420.97 292.28l14.28 0l0 14.6l-14.28 0Z" id="p56w58" />
<path d="M438.46 292.28l33.47 0l0 14.6l-33.47 0Z" id="p56w59" />
<path d="M350.92 316.31l21.09 0l0 14.6l-21.09 0Z" id="p56w60" />
<path d="M375.22 316.31l87.3 0l0 14.6l-87.3 0Z" id="p56w61" />
<path d="M129.97 338.41l9.66 0l0 14.6l-9.66 0Z" id="p56w62" />
<path d="M139.64 338.48l6.41 0l0 14.52l-6.41 0Z" id="p56w63" />
<path d="M149.26 338.48l18.7 0l0 14.52l-18.7 0Z" id="p56w64" />
<path d="M171.17 338.48l27.53 0l0 14.52l-27.53 0Z" id="p56w65" />
<path d="M201.91 338.48l44.64 0l0 14.52l-44.64 0Z" id="p56w66" />
<path d="M129.97 355.15l14.18 0l0 14.52l-14.18 0Z" id="p56w67" />
<path d="M147.36 355.08l22.4 0l0 14.6l-22.4 0Z" id="p56w68" />
<path d="M172.97 355.15l14.18 0l0 14.52l-14.18 0Z" id="p56w69" />
<path d="M190.35 355.15l22.99 0l0 14.52l-22.99 0Z" id="p56w70" />
<path d="M216.55 355.15l13.9 0l0 14.52l-13.9 0Z" id="p56w71" />
<path d="M233.66 355.15l41.43 0l0 14.52l-41.43 0Z" id="p56w72" />
<path d="M129.97 380.16l11.5 0l0 14.52l-11.5 0Z" id="p56w73" />
<path d="M144.68 380.09l8.47 0l0 14.6l-8.47 0Z" id="p56w74" />
<path d="M153.15 380.16l6.41 0l0 14.52l-6.41 0Z" id="p56w75" />
<path d="M162.78 380.16l31.28 0l0 14.52l-31.28 0Z" id="p56w76" />
<path d="M197.26 380.16l14.18 0l0 14.52l-14.18 0Z" id="p56w77" />
<path d="M214.65 380.09l41.1 0l0 14.6l-41.1 0Z" id="p56w78" />
<path d="M258.96 380.16l9.89 0l0 14.52l-9.89 0Z" id="p56w79" />
<path d="M272.05 380.16l45.72 0l0 14.52l-45.72 0Z" id="p56w80" />
<path d="M350.92 338.48l62.27 0l0 14.52l-62.27 0Z" id="p56w81" />
<path d="M416.4 338.48l60.84 0l0 14.52l-60.84 0Z" id="p56w82" />
<path d="M350.92 363.42l42.74 0l0 14.6l-42.74 0Z" id="p56w83" />
<path d="M504.69 338.48l59.87 0l0 14.52l-59.87 0Z" id="p56w84" />
<path d="M567.77 338.48l30.15 0l0 14.52l-30.15 0Z" id="p56w85" />
<path d="M504.69 363.42l27.89 0l0 14.6l-27.89 0Z" id="p56w86" />
<path d="M535.79 363.42l37.29 0l0 14.6l-37.29 0Z" id="p56w87" />
<path d="M124.06 412.01l15.44 0l0 14.6l-15.44 0Z" id="p56w88" />
<path d="M142.71 412.01l32.95 0l0 14.6l-32.95 0Z" id="p56w89" />
<path d="M178.69 412.01l16.7 0l0 14.6l-16.7 0Z" id="p56w90" />
<path d="M198.6 412.01l21.5 0l0 14.6l-21.5 0Z" id="p56w91" />
<path d="M223.31 412.01l19.77 0l0 14.6l-19.77 0Z" id="p56w92" />
<path d="M124.06 428.68l57.56 0l0 14.6l-57.56 0Z" id="p56w93" />
<path d="M184.83 428.68l34.24 0l0 14.6l-34.24 0Z" id="p56w94" />
<path d="M345 428.68l20.79 0l0 14.6l-20.79 0Z" id="p56w95" />
<path d="M369 428.68l48.76 0l0 14.6l-48.76 0Z" id="p56w96" />
<path d="M420.97 428.68l14.28 0l0 14.6l-14.28 0Z" id="p56w97" />
<path d="M438.46 428.68l33.47 0l0 14.6l-33.47 0Z" id="p56w98" />
<path d="M350.92 452.72l19.63 0l0 14.6l-19.63 0Z" id="p56w99" />
<path d="M373.22 452.72l25.44 0l0 14.6l-25.44 0Z" id="p56w100" />
<path d="M401.87 452.72l26.27 0l0 14.61l-26.27 0Z" id="p56w101" />
<path d="M129.97 474.88l26.21 0l0 14.52l-26.21 0Z" id="p56w102" />
<path d="M159.4 474.81l27.69 0l0 14.6l-27.69 0Z" id="p56w103" />
<path d="M200.18 474.88l50.76 0l0 14.52l-50.76 0Z" id="p56w104" />
<path d="M129.97 499.89l21.4 0l0 14.52l-21.4 0Z" id="p56w105" />
<path d="M154.58 499.89l9.62 0l0 14.52l-9.62 0Z" id="p56w106" />
<path d="M167.41 499.82l15.07 0l0 14.6l-15.07 0Z" id="p56w107" />
<path d="M185.69 499.89l12.3 0l0 14.52l-12.3 0Z" id="p56w108" />
<path d="M201.2 499.89l36.89 0l0 14.52l-36.89 0Z" id="p56w109" />
<path d="M257.34 499.89l19.51 0l0 14.52l-19.51 0Z" id="p56w110" />
<path d="M350.92 474.88l9.62 0l0 14.52l-9.62 0Z" id="p56w111" />
<path d="M363.75 474.88l14.97 0l0 14.52l-14.97 0Z" id="p56w112" />
<path d="M350.92 491.55l11.5 0l0 14.52l-11.5 0Z" id="p56w113" />
<path d="M365.62 491.55l14.97 0l0 14.52l-14.97 0Z" id="p56w114" />
<path d="M350.92 508.22l6.41 0l0 14.52l-6.41 0Z" id="p56w115" />
<path d="M365.58 508.22l19.77 0l0 14.52l-19.77 0Z" id="p56w116" />
<path d="M393.6 508.22l14.18 0l0 14.52l-14.18 0Z" id="p56w117" />
<path d="M410.99 508.22l13.9 0l0 14.52l-13.9 0Z" id="p56w118" />
<path d="M350.92 524.89l18.47 0l0 14.52l-18.47 0Z" id="p56w119" />
<path d="M379.01 524.89l14.8 0l0 14.52l-14.8 0Z" id="p56w120" />
<path d="M397.01 524.89l25.67 0l0 14.52l-25.67 0Z" id="p56w121" />
<path d="M504.69 474.88l26.74 0l0 14.52l-26.74 0Z" id="p56w122" />
<path d="M534.64 474.88l35.29 0l0 14.52l-35.29 0Z" id="p56w123" />
<path d="M504.69 491.55l25.67 0l0 14.52l-25.67 0Z" id="p56w124" />
<path d="M533.57 491.55l28.07 0l0 14.52l-28.07 0Z" id="p56w125" />
<path d="M504.69 508.22l12.02 0l0 14.52l-12.02 0Z" id="p56w126" />
<path d="M524.96 508.22l25.38 0l0 14.52l-25.38 0Z" id="p56w127" />
<path d="M553.55 508.22l33.95 0l0 14.52l-33.95 0Z" id="p56w128" />
<path d="M124.06 556.74l15.44 0l0 14.6l-15.44 0Z" id="p56w129" />
<path d="M142.71 556.74l34.21 0l0 14.6l-34.21 0Z" id="p56w130" />
<path d="M180.13 556.74l23.92 0l0 14.6l-23.92 0Z" id="p56w131" />
<path d="M207.26 556.74l31.41 0l0 14.6l-31.41 0Z" id="p56w132" />
<path d="M124.06 573.41l10.56 0l0 14.6l-10.56 0Z" id="p56w133" />
<path d="M137.83 573.41l34.91 0l0 14.6l-34.91 0Z" id="p56w134" />
<path d="M175.95 573.41l60.24 0l0 14.6l-60.24 0Z" id="p56w135" />
<path d="M239.4 573.41l47.13 0l0 14.6l-47.13 0Z" id="p56w136" />
<path d="M345 573.41l20.79 0l0 14.6l-20.79 0Z" id="p56w137" />
<path d="M369 573.41l48.76 0l0 14.6l-48.76 0Z" id="p56w138" />
<path d="M420.97 573.41l14.28 0l0 14.6l-14.28 0Z" id="p56w139" />
<path d="M438.46 573.41l33.47 0l0 14.6l-33.47 0Z" id="p56w140" />
<path d="M350.92 597.45l17.21 0l0 14.6l-17.21 0Z" id="p56w141" />
<path d="M371.34 597.45l86.79 0l0 14.6l-86.79 0Z" id="p56w142" />
<path d="M129.97 636.21l63.75 0l0 14.6l-63.75 0Z" id="p56w143" />
<path d="M196.93 636.28l43.83 0l0 14.52l-43.83 0Z" id="p56w144" />
<path d="M129.97 661.29l15.51 0l0 14.52l-15.51 0Z" id="p56w145" />
<path d="M148.69 661.29l39.2 0l0 14.52l-39.2 0ZM192.58 661.29l23.43 0l0 14.52l-23.43 0Z" id="p56w146" />
<path d="M350.48 619.61l30.75 0l0 14.52l-30.75 0Z" id="p56w147" />
<path d="M384.44 619.61l41.43 0l0 14.52l-41.43 0Z" id="p56w148" />
<path d="M438.97 619.61l59.05 0l0 14.52l-59.05 0Z" id="p56w149" />
<path d="M350.92 652.95l72.09 0l0 14.52l-72.09 0Z" id="p56w150" />
<path d="M426.22 652.95l26.73 0l0 14.52l-26.73 0Z" id="p56w151" />
<path d="M456.16 652.95l9.89 0l0 14.52l-9.89 0Z" id="p56w152" />
<path d="M469.25 652.95l35.55 0l0 14.52l-35.55 0Z" id="p56w153" />
<path d="M350.92 677.96l98.93 0l0 14.52l-98.93 0Z" id="p56w154" />
<path d="M453.05 677.96l21.4 0l0 14.52l-21.4 0Z" id="p56w155" />
<path d="M477.22 677.96l25.13 0l0 14.52l-25.13 0Z" id="p56w156" />
<path d="M505.56 677.96l50.79 0l0 14.52l-50.79 0Z" id="p56w157" />
<path d="M559.56 677.96l17.11 0l0 14.52l-17.11 0Z" id="p56w158" />
<path d="M579.87 677.96l36.63 0l0 14.52l-36.63 0Z" id="p56w159" />
<path d="M124.06 39.02l46.09 0l0 15.38l-46.09 0Z" id="p56w160" />
<path d="M208.74 39.02l46.59 0l0 15.38l-46.59 0Z" id="p56w161" />
<path d="M307.2 39.02l46.59 0l0 15.38l-46.59 0Z" id="p56w162" />
<path d="M406.45 38.6l34.29 0l0 16.09l-34.29 0Z" id="p56w163" />
<path d="M76.9 983l80.74 0l0 12.23l-80.74 0Z" id="p56w164" />
</svg>
