<?xml version="1.0" encoding="UTF-8"?>
<svg xmlns="http://www.w3.org/2000/svg" xmlns:xlink="http://www.w3.org/1999/xlink" version="1.1" baseProfile="full" width="768" height="1024" viewBox="0,0,768,1024" preserveAspectRatio="xMinYMin meet" >
<style type="text/css">
<![CDATA[
path {fill-opacity: 0.5;fill: #00aeef;visibility: hidden;}
]]>
</style>
<path d="M572.94 38.6l71 0l0 16.09l-71 0Z" id="p211w1" />
<path d="M618.91 983.66l70.33 0l0 12.23l-70.33 0Z" id="p211w2" />
<path d="M59.08 110.01l14.31 0l0 14.6l-14.31 0Z" id="p211w3" />
<path d="M76.59 110.01l73.34 0l0 14.6l-73.34 0Z" id="p211w4" />
<path d="M59.08 125.44l75.47 0l0 16.35l-75.47 0Z" id="p211w5" />
<path d="M91.38 169.15l17.38 0l0 14.52l-17.38 0Z" id="p211w6" />
<path d="M111.97 169.09l73.34 0l0 14.6l-73.34 0Z" id="p211w7" />
<path d="M188.52 169.15l13.36 0l0 14.52l-13.36 0Z" id="p211w8" />
<path d="M205.08 169.15l23.79 0l0 14.52l-23.79 0Z" id="p211w9" />
<path d="M232.07 169.15l69.51 0l0 14.52l-69.51 0Z" id="p211w10" />
<path d="M64.98 185.82l110.5 0l0 14.52l-110.5 0Z" id="p211w11" />
<path d="M178.7 185.82l58.01 0l0 14.52l-58.01 0Z" id="p211w12" />
<path d="M239.92 185.82l43.23 0l0 14.52l-43.23 0Z" id="p211w13" />
<path d="M286.35 185.82l21.92 0l0 14.52l-21.92 0Z" id="p211w14" />
<path d="M311.48 185.82l10.43 0l0 14.52l-10.43 0Z" id="p211w15" />
<path d="M80.05 202.49l52.43 0l0 14.52l-52.43 0Z" id="p211w16" />
<path d="M135.68 202.49l52.6 0l0 14.52l-52.6 0Z" id="p211w17" />
<path d="M191.49 202.49l29.39 0l0 14.52l-29.39 0Z" id="p211w18" />
<path d="M224.09 202.49l10.43 0l0 14.52l-10.43 0Z" id="p211w19" />
<path d="M257.96 202.49l82.31 0l0 14.52l-82.31 0Z" id="p211w20" />
<path d="M64.98 219.16l20.84 0l0 14.52l-20.84 0Z" id="p211w21" />
<path d="M89.03 219.16l79.63 0l0 14.52l-79.63 0Z" id="p211w22" />
<path d="M171.87 219.16l23.26 0l0 14.52l-23.26 0Z" id="p211w23" />
<path d="M198.34 219.16l100.78 0l0 14.52l-100.78 0Z" id="p211w24" />
<path d="M64.98 235.83l18.18 0l0 14.52l-18.18 0Z" id="p211w25" />
<path d="M86.37 235.83l55.86 0l0 14.52l-55.86 0Z" id="p211w26" />
<path d="M145.43 235.83l34.49 0l0 14.52l-34.49 0Z" id="p211w27" />
<path d="M183.13 235.83l17.11 0l0 14.52l-17.11 0Z" id="p211w28" />
<path d="M203.45 235.83l35.27 0l0 14.52l-35.27 0Z" id="p211w29" />
<path d="M241.92 235.83l38.49 0l0 14.52l-38.49 0Z" id="p211w30" />
<path d="M283.62 235.83l18.44 0l0 14.52l-18.44 0Z" id="p211w31" />
<path d="M305.26 235.83l67.37 0l0 14.52l-67.37 0Z" id="p211w32" />
<path d="M232.37 110.09l17.11 0l0 14.52l-17.11 0Z" id="p211w33" />
<path d="M252.68 110.09l74.02 0l0 14.52l-74.02 0Z" id="p211w34" />
<path d="M232.37 126.74l77.51 0l0 14.52l-77.51 0Z" id="p211w35" />
<path d="M232.37 143.41l105.69 0l0 14.52l-105.69 0Z" id="p211w36" />
<path d="M417.48 110.09l12.83 0l0 14.52l-12.83 0Z" id="p211w37" />
<path d="M433.51 110.09l72.95 0l0 14.52l-72.95 0Z" id="p211w38" />
<path d="M528.39 110.09l24.85 0l0 14.52l-24.85 0Z" id="p211w39" />
<path d="M556.45 110.09l9.89 0l0 14.52l-9.89 0Z" id="p211w40" />
<path d="M569.11 110.09l51.35 0l0 14.52l-51.35 0Z" id="p211w41" />
<path d="M59.08 266.32l29.8 0l0 14.6l-29.8 0Z" id="p211w42" />
<path d="M92.18 265.08l26.48 0l0 16.35l-26.48 0Z" id="p211w43" />
<path d="M232.37 266.4l51.6 0l0 14.52l-51.6 0Z" id="p211w44" />
<path d="M417.48 266.4l35 0l0 14.52l-35 0Z" id="p211w45" />
<path d="M455.69 266.4l12.29 0l0 14.52l-12.29 0Z" id="p211w46" />
<path d="M471.18 266.4l35.56 0l0 14.52l-35.56 0Z" id="p211w47" />
<path d="M509.95 266.4l29.66 0l0 14.52l-29.66 0Z" id="p211w48" />
<path d="M542.82 266.4l45.39 0l0 14.52l-45.39 0Z" id="p211w49" />
<path d="M591.42 266.4l11.22 0l0 14.52l-11.22 0Z" id="p211w50" />
<path d="M417.48 283.07l65.77 0l0 14.52l-65.77 0Z" id="p211w51" />
<path d="M59.08 301.14l10.02 0l0 14.6l-10.02 0Z" id="p211w52" />
<path d="M72.3 301.14l87.47 0l0 14.6l-87.47 0Z" id="p211w53" />
<path d="M162.98 301.14l42.84 0l0 14.6l-42.84 0Z" id="p211w54" />
<path d="M59.08 316.57l109.55 0l0 16.35l-109.55 0Z" id="p211w55" />
<path d="M232.37 301.22l17.11 0l0 14.52l-17.11 0Z" id="p211w56" />
<path d="M252.65 301.22l65.69 0l0 14.52l-65.69 0Z" id="p211w57" />
<path d="M321.52 301.22l68.39 0l0 14.52l-68.39 0Z" id="p211w58" />
<path d="M417.48 301.22l26.19 0l0 14.52l-26.19 0Z" id="p211w59" />
<path d="M446.87 301.22l14.18 0l0 14.52l-14.18 0Z" id="p211w60" />
<path d="M464.25 301.22l32.62 0l0 14.52l-32.62 0Z" id="p211w61" />
<path d="M500.08 301.22l25.67 0l0 14.52l-25.67 0Z" id="p211w62" />
<path d="M528.96 301.22l9.89 0l0 14.52l-9.89 0Z" id="p211w63" />
<path d="M542.05 301.22l87.41 0l0 14.52l-87.41 0Z" id="p211w64" />
<path d="M417.48 317.89l44.92 0l0 14.52l-44.92 0Z" id="p211w65" />
<path d="M59.08 335.96l14.31 0l0 14.6l-14.31 0Z" id="p211w66" />
<path d="M76.59 335.96l29.22 0l0 14.6l-29.22 0Z" id="p211w67" />
<path d="M109.11 334.72l33.39 0l0 16.35l-33.39 0Z" id="p211w68" />
<path d="M232.37 336.04l23.79 0l0 14.52l-23.79 0Z" id="p211w69" />
<path d="M259.1 336.04l30.61 0l0 14.52l-30.61 0Z" id="p211w70" />
<path d="M292.91 336.04l23.79 0l0 14.52l-23.79 0Z" id="p211w71" />
<path d="M319.91 336.04l47.21 0l0 14.52l-47.21 0Z" id="p211w72" />
<path d="M417.48 336.04l13.9 0l0 14.52l-13.9 0Z" id="p211w73" />
<path d="M434.58 336.04l25.92 0l0 14.52l-25.92 0Z" id="p211w74" />
<path d="M463.71 336.04l19.51 0l0 14.52l-19.51 0Z" id="p211w75" />
<path d="M486.43 336.04l29.94 0l0 14.52l-29.94 0Z" id="p211w76" />
<path d="M519.57 336.04l13.9 0l0 14.52l-13.9 0Z" id="p211w77" />
<path d="M536.68 336.04l25.38 0l0 14.52l-25.38 0Z" id="p211w78" />
<path d="M565.27 336.04l14.18 0l0 14.52l-14.18 0Z" id="p211w79" />
<path d="M582.65 336.04l31.84 0l0 14.52l-31.84 0Z" id="p211w80" />
<path d="M435.7 352.72l36.35 0l0 14.61l-36.35 0Z" id="p211w81" />
<path d="M435.2 369.39l35.28 0l0 14.61l-35.28 0Z" id="p211w82" />
<path d="M59.08 387.45l34.24 0l0 14.6l-34.24 0Z" id="p211w83" />
<path d="M96.52 387.45l63.22 0l0 14.6l-63.22 0Z" id="p211w84" />
<path d="M162.95 387.45l20.96 0l0 14.6l-20.96 0Z" id="p211w85" />
<path d="M59.08 402.88l92.57 0l0 16.35l-92.57 0Z" id="p211w86" />
<path d="M232.37 387.53l45.37 0l0 14.52l-45.37 0Z" id="p211w87" />
<path d="M280.94 387.53l62.53 0l0 14.52l-62.53 0Z" id="p211w88" />
<path d="M346.68 387.53l15.5 0l0 14.52l-15.5 0Z" id="p211w89" />
<path d="M59.08 422.26l14.31 0l0 14.6l-14.31 0Z" id="p211w90" />
<path d="M76.59 422.26l34.85 0l0 14.6l-34.85 0Z" id="p211w91" />
<path d="M114.74 421.02l52.12 0l0 16.35l-52.12 0Z" id="p211w92" />
<path d="M232.37 422.34l17.11 0l0 14.52l-17.11 0Z" id="p211w93" />
<path d="M252.68 422.34l36.07 0l0 14.52l-36.07 0Z" id="p211w94" />
<path d="M426.12 422.33l19.07 0l0 14.61l-19.07 0Z" id="p211w95" />
<path d="M450.68 422.33l12.57 0l0 14.61l-12.57 0Z" id="p211w96" />
<path d="M466.28 422.33l20.21 0l0 14.61l-20.21 0Z" id="p211w97" />
<path d="M493.19 422.33l9.89 0l0 14.61l-9.89 0Z" id="p211w98" />
<path d="M59.08 442.96l23.36 0l0 14.6l-23.36 0Z" id="p211w99" />
<path d="M85.65 442.96l56.39 0l0 14.6l-56.39 0Z" id="p211w100" />
<path d="M145.24 442.96l20.96 0l0 14.6l-20.96 0Z" id="p211w101" />
<path d="M59.08 458.39l80.66 0l0 16.35l-80.66 0Z" id="p211w102" />
<path d="M232.37 443.04l52.32 0l0 14.52l-52.32 0Z" id="p211w103" />
<path d="M287.9 443.04l15.5 0l0 14.52l-15.5 0Z" id="p211w104" />
<path d="M59.08 477.77l28.6 0l0 14.6l-28.6 0Z" id="p211w105" />
<path d="M90.89 477.77l56.39 0l0 14.6l-56.39 0Z" id="p211w106" />
<path d="M150.48 477.77l20.96 0l0 14.6l-20.96 0Z" id="p211w107" />
<path d="M59.08 493.2l73.82 0l0 16.35l-73.82 0Z" id="p211w108" />
<path d="M232.37 477.85l47.25 0l0 14.52l-47.25 0Z" id="p211w109" />
<path d="M282.83 477.85l41.1 0l0 14.52l-41.1 0Z" id="p211w110" />
<path d="M327.14 477.85l19.77 0l0 14.52l-19.77 0Z" id="p211w111" />
<path d="M59.08 512.58l14.31 0l0 14.6l-14.31 0Z" id="p211w112" />
<path d="M76.59 512.58l64.81 0l0 14.6l-64.81 0Z" id="p211w113" />
<path d="M59.08 529.25l20.99 0l0 14.6l-20.99 0Z" id="p211w114" />
<path d="M83.27 529.25l59.7 0l0 14.6l-59.7 0Z" id="p211w115" />
<path d="M59.08 544.68l80.27 0l0 16.35l-80.27 0Z" id="p211w116" />
<path d="M232.37 512.66l17.11 0l0 14.52l-17.11 0Z" id="p211w117" />
<path d="M252.68 512.66l57.61 0l0 14.52l-57.61 0Z" id="p211w118" />
<path d="M232.37 529.33l23.79 0l0 14.52l-23.79 0Z" id="p211w119" />
<path d="M259.36 529.33l63.09 0l0 14.52l-63.09 0Z" id="p211w120" />
<path d="M417.48 512.66l22.73 0l0 14.52l-22.73 0Z" id="p211w121" />
<path d="M443.41 512.66l25.4 0l0 14.52l-25.4 0Z" id="p211w122" />
<path d="M472.02 512.66l21.65 0l0 14.52l-21.65 0Z" id="p211w123" />
<path d="M496.87 512.66l24.33 0l0 14.52l-24.33 0Z" id="p211w124" />
<path d="M524.41 512.66l49 0l0 14.52l-49 0Z" id="p211w125" />
<path d="M576.61 512.66l41.43 0l0 14.52l-41.43 0Z" id="p211w126" />
<path d="M417.48 529.33l61.22 0l0 14.52l-61.22 0Z" id="p211w127" />
<path d="M435.7 546.02l14.16 0l0 14.61l-14.16 0Z" id="p211w128" />
<path d="M453.07 546.02l38.69 0l0 14.61l-38.69 0Z" id="p211w129" />
<path d="M59.07 564.07l14.31 0l0 14.6l-14.31 0Z" id="p211w130" />
<path d="M76.59 564.07l53.67 0l0 14.6l-53.67 0Z" id="p211w131" />
<path d="M133.56 562.83l49.67 0l0 16.35l-49.67 0Z" id="p211w132" />
<path d="M232.37 564.15l17.11 0l0 14.52l-17.11 0Z" id="p211w133" />
<path d="M252.68 564.15l33.37 0l0 14.52l-33.37 0Z" id="p211w134" />
<path d="M232.37 580.82l23.79 0l0 14.52l-23.79 0Z" id="p211w135" />
<path d="M259.36 580.82l74.54 0l0 14.52l-74.54 0Z" id="p211w136" />
<path d="M435.2 568.47l60.64 0l0 14.61l-60.64 0Z" id="p211w137" />
<path d="M59.08 598.89l42.44 0l0 14.6l-42.44 0Z" id="p211w138" />
<path d="M104.81 597.65l39.73 0l0 16.35l-39.73 0Z" id="p211w139" />
<path d="M232.37 598.97l40.36 0l0 14.52l-40.36 0Z" id="p211w140" />
<path d="M417.48 598.97l15.51 0l0 14.52l-15.51 0Z" id="p211w141" />
<path d="M436.19 598.97l58.54 0l0 14.52l-58.54 0Z" id="p211w142" />
<path d="M497.94 598.97l21.92 0l0 14.52l-21.92 0Z" id="p211w143" />
<path d="M523.07 598.97l27.53 0l0 14.52l-27.53 0Z" id="p211w144" />
<path d="M553.81 598.97l14.18 0l0 14.52l-14.18 0Z" id="p211w145" />
<path d="M571.2 598.97l53.13 0l0 14.52l-53.13 0Z" id="p211w146" />
<path d="M417.48 615.64l44.92 0l0 14.52l-44.92 0Z" id="p211w147" />
<path d="M59.08 633.71l46.36 0l0 14.6l-46.36 0Z" id="p211w148" />
<path d="M108.64 633.71l12.67 0l0 14.6l-12.67 0Z" id="p211w149" />
<path d="M124.61 632.47l50.7 0l0 16.35l-50.7 0Z" id="p211w150" />
<path d="M232.37 633.79l23.09 0l0 14.52l-23.09 0Z" id="p211w151" />
<path d="M258.66 633.79l97.01 0l0 14.52l-97.01 0Z" id="p211w152" />
<path d="M417.48 633.79l10.43 0l0 14.52l-10.43 0Z" id="p211w153" />
<path d="M431.11 633.79l22.99 0l0 14.52l-22.99 0Z" id="p211w154" />
<path d="M457.31 633.79l45.96 0l0 14.52l-45.96 0Z" id="p211w155" />
<path d="M506.48 633.79l12.57 0l0 14.52l-12.57 0Z" id="p211w156" />
<path d="M522.25 633.79l28.33 0l0 14.52l-28.33 0Z" id="p211w157" />
<path d="M553.79 633.79l13.9 0l0 14.52l-13.9 0Z" id="p211w158" />
<path d="M570.89 633.79l24.59 0l0 14.52l-24.59 0Z" id="p211w159" />
<path d="M417.48 650.46l45.97 0l0 14.52l-45.97 0Z" id="p211w160" />
<path d="M59.08 668.53l36.6 0l0 14.6l-36.6 0Z" id="p211w161" />
<path d="M98.88 668.53l13.9 0l0 14.6l-13.9 0Z" id="p211w162" />
<path d="M115.99 668.53l38.75 0l0 14.6l-38.75 0Z" id="p211w163" />
<path d="M59.08 683.96l75.24 0l0 16.35l-75.24 0Z" id="p211w164" />
<path d="M232.37 668.61l12.84 0l0 14.52l-12.84 0Z" id="p211w165" />
<path d="M248.42 668.61l22.99 0l0 14.52l-22.99 0Z" id="p211w166" />
<path d="M274.62 668.61l62.82 0l0 14.52l-62.82 0Z" id="p211w167" />
<path d="M417.48 668.61l38.21 0l0 14.52l-38.21 0Z" id="p211w168" />
<path d="M458.9 668.61l16.83 0l0 14.52l-16.83 0Z" id="p211w169" />
<path d="M478.93 668.61l38.48 0l0 14.52l-38.48 0Z" id="p211w170" />
<path d="M520.62 668.61l13.9 0l0 14.52l-13.9 0Z" id="p211w171" />
<path d="M537.72 668.61l39.12 0l0 14.52l-39.12 0Z" id="p211w172" />
<path d="M580.05 668.61l13.63 0l0 14.52l-13.63 0Z" id="p211w173" />
<path d="M596.89 668.61l41.88 0l0 14.52l-41.88 0ZM417.48 685.28l28.35 0l0 14.52l-28.35 0Z" id="p211w174" />
<path d="M435.7 701.96l30.78 0l0 14.61l-30.78 0Z" id="p211w175" />
<path d="M59.07 720.02l22.58 0l0 14.6l-22.58 0Z" id="p211w176" />
<path d="M84.86 720.02l89.06 0l0 14.6l-89.06 0Z" id="p211w177" />
<path d="M177.13 720.02l30.09 0l0 14.6l-30.09 0Z" id="p211w178" />
<path d="M59.07 736.69l25.65 0l0 14.6l-25.65 0Z" id="p211w179" />
<path d="M87.93 736.69l16.91 0l0 14.6l-16.91 0Z" id="p211w180" />
<path d="M108.14 735.45l101.7 0l0 16.35l-101.7 0Z" id="p211w181" />
<path d="M232.37 720.1l50.78 0l0 14.52l-50.78 0Z" id="p211w182" />
<path d="M286.35 720.1l22.72 0l0 14.52l-22.72 0Z" id="p211w183" />
<path d="M312.28 720.1l27.36 0l0 14.52l-27.36 0Z" id="p211w184" />
<path d="M342.85 720.1l12.84 0l0 14.52l-12.84 0Z" id="p211w185" />
<path d="M358.9 720.1l22.99 0l0 14.52l-22.99 0Z" id="p211w186" />
<path d="M417.47 720.1l28.07 0l0 14.52l-28.07 0Z" id="p211w187" />
<path d="M448.76 720.1l34.21 0l0 14.52l-34.21 0Z" id="p211w188" />
<path d="M486.18 720.1l24.06 0l0 14.52l-24.06 0Z" id="p211w189" />
<path d="M513.45 720.1l21.37 0l0 14.52l-21.37 0Z" id="p211w190" />
<path d="M538.02 720.1l44.1 0l0 14.52l-44.1 0Z" id="p211w191" />
<path d="M585.33 720.1l25.67 0l0 14.52l-25.67 0Z" id="p211w192" />
<path d="M417.47 736.77l53.72 0l0 14.52l-53.72 0Z" id="p211w193" />
<path d="M474.4 736.77l13.63 0l0 14.52l-13.63 0Z" id="p211w194" />
<path d="M491.25 736.77l35.29 0l0 14.52l-35.29 0Z" id="p211w195" />
<path d="M59.07 754.84l81.08 0l0 14.6l-81.08 0Z" id="p211w196" />
<path d="M59.07 771.51l85.99 0l0 14.6l-85.99 0Z" id="p211w197" />
<path d="M59.07 786.94l68.74 0l0 16.35l-68.74 0Z" id="p211w198" />
<path d="M232.37 754.92l71.1 0l0 14.52l-71.1 0Z" id="p211w199" />
<path d="M417.47 754.92l13.9 0l0 14.52l-13.9 0Z" id="p211w200" />
<path d="M434.58 754.92l25.92 0l0 14.52l-25.92 0Z" id="p211w201" />
<path d="M463.71 754.92l19.51 0l0 14.52l-19.51 0Z" id="p211w202" />
<path d="M486.43 754.92l77.8 0l0 14.52l-77.8 0Z" id="p211w203" />
<path d="M443.85 771.6l50.96 0l0 14.61l-50.96 0Z" id="p211w204" />
<path d="M494.81 771.52l14.44 0l0 14.6l-14.44 0Z" id="p211w205" />
<path d="M509.25 771.6l9.89 0l0 14.61l-9.89 0Z" id="p211w206" />
<path d="M543.28 771.6l50.96 0l0 14.61l-50.96 0Z" id="p211w207" />
<path d="M601.46 771.6l13.09 0l0 14.61l-13.09 0Z" id="p211w208" />
<path d="M59.08 806.32l42.18 0l0 14.6l-42.18 0Z" id="p211w209" />
<path d="M104.47 806.32l13.87 0l0 14.6l-13.87 0Z" id="p211w210" />
<path d="M121.55 806.32l25.65 0l0 14.6l-25.65 0Z" id="p211w211" />
<path d="M150.4 806.32l12.67 0l0 14.6l-12.67 0Z" id="p211w212" />
<path d="M166.37 805.08l35.39 0l0 16.35l-35.39 0Z" id="p211w213" />
<path d="M232.37 806.4l59.62 0l0 14.52l-59.62 0Z" id="p211w214" />
<path d="M295.2 806.4l23.09 0l0 14.52l-23.09 0Z" id="p211w215" />
<path d="M321.49 806.4l12.84 0l0 14.52l-12.84 0Z" id="p211w216" />
<path d="M337.54 806.4l18.72 0l0 14.52l-18.72 0Z" id="p211w217" />
<path d="M59.08 827.03l12.42 0l0 14.6l-12.42 0Z" id="p211w218" />
<path d="M74.7 827.03l38.17 0l0 14.6l-38.17 0Z" id="p211w219" />
<path d="M116.08 827.03l26.85 0l0 14.6l-26.85 0Z" id="p211w220" />
<path d="M146.14 827.03l10.03 0l0 14.6l-10.03 0Z" id="p211w221" />
<path d="M159.38 827.03l27.65 0l0 14.6l-27.65 0Z" id="p211w222" />
<path d="M190.24 827.03l13.87 0l0 14.6l-13.87 0Z" id="p211w223" />
<path d="M59.08 843.7l14.41 0l0 14.6l-14.41 0Z" id="p211w224" />
<path d="M76.79 842.46l85.06 0l0 16.35l-85.06 0Z" id="p211w225" />
<path d="M232.37 827.11l10.43 0l0 14.52l-10.43 0Z" id="p211w226" />
<path d="M246.01 827.11l18.45 0l0 14.52l-18.45 0Z" id="p211w227" />
<path d="M267.67 827.11l26.73 0l0 14.52l-26.73 0Z" id="p211w228" />
<path d="M297.6 827.11l54.28 0l0 14.52l-54.28 0Z" id="p211w229" />
<path d="M417.48 827.11l25.41 0l0 14.52l-25.41 0Z" id="p211w230" />
<path d="M446.09 827.11l41.7 0l0 14.52l-41.7 0Z" id="p211w231" />
<path d="M491 827.11l14.18 0l0 14.52l-14.18 0Z" id="p211w232" />
<path d="M508.38 827.11l21.4 0l0 14.52l-21.4 0Z" id="p211w233" />
<path d="M532.99 827.11l36.64 0l0 14.52l-36.64 0Z" id="p211w234" />
<path d="M572.83 827.11l14.18 0l0 14.52l-14.18 0Z" id="p211w235" />
<path d="M590.22 827.11l21.92 0l0 14.52l-21.92 0Z" id="p211w236" />
<path d="M417.48 843.78l33.14 0l0 14.52l-33.14 0Z" id="p211w237" />
<path d="M453.83 843.78l12.29 0l0 14.52l-12.29 0Z" id="p211w238" />
<path d="M469.32 843.78l37.93 0l0 14.52l-37.93 0Z" id="p211w239" />
<path d="M510.47 843.78l26.73 0l0 14.52l-26.73 0Z" id="p211w240" />
<path d="M540.4 843.78l9.89 0l0 14.52l-9.89 0Z" id="p211w241" />
<path d="M553.5 843.78l27.53 0l0 14.52l-27.53 0Z" id="p211w242" />
<path d="M584.24 843.78l13.9 0l0 14.52l-13.9 0Z" id="p211w243" />
<path d="M417.48 860.45l53.99 0l0 14.52l-53.99 0Z" id="p211w244" />
<path d="M474.67 860.45l74.25 0l0 14.52l-74.25 0Z" id="p211w245" />
<path d="M59.08 878.52l10.03 0l0 14.6l-10.03 0Z" id="p211w246" />
<path d="M72.32 878.52l52.77 0l0 14.6l-52.77 0Z" id="p211w247" />
<path d="M128.39 877.28l64.98 0l0 16.35l-64.98 0Z" id="p211w248" />
<path d="M232.37 878.6l17.11 0l0 14.52l-17.11 0Z" id="p211w249" />
<path d="M252.68 878.6l55.97 0l0 14.52l-55.97 0Z" id="p211w250" />
<path d="M417.48 878.6l17.63 0l0 14.52l-17.63 0Z" id="p211w251" />
<path d="M438.32 878.6l28.85 0l0 14.52l-28.85 0Z" id="p211w252" />
<path d="M470.38 878.6l44.46 0l0 14.52l-44.46 0Z" id="p211w253" />
<path d="M518.04 878.6l26.73 0l0 14.52l-26.73 0Z" id="p211w254" />
<path d="M547.98 878.6l9.89 0l0 14.52l-9.89 0Z" id="p211w255" />
<path d="M561.07 878.6l52.93 0l0 14.52l-52.93 0Z" id="p211w256" />
<path d="M417.48 895.27l23.97 0l0 14.52l-23.97 0Z" id="p211w257" />
<path d="M444.66 895.27l32.55 0l0 14.52l-32.55 0Z" id="p211w258" />
<path d="M480.41 895.27l41.18 0l0 14.52l-41.18 0Z" id="p211w259" />
</svg>
