<?xml version="1.0" encoding="UTF-8"?>
<svg xmlns="http://www.w3.org/2000/svg" xmlns:xlink="http://www.w3.org/1999/xlink" version="1.1" baseProfile="full" width="768" height="1024" viewBox="0,0,768,1024" preserveAspectRatio="xMinYMin meet" >
<style type="text/css">
<![CDATA[
path {fill-opacity: 0.5;fill: #00aeef;visibility: hidden;}
]]>
</style>
<path d="M123.63 114.18l26.74 0l0 14.52l-26.74 0Z" id="p159w1" />
<path d="M153.58 114.18l15.5 0l0 14.52l-15.5 0Z" id="p159w2" />
<path d="M172.28 114.18l50.51 0l0 14.52l-50.51 0Z" id="p159w3" />
<path d="M226 114.18l20.85 0l0 14.52l-20.85 0Z" id="p159w4" />
<path d="M250.06 114.18l33.41 0l0 14.52l-33.41 0Z" id="p159w5" />
<path d="M286.68 114.18l35.29 0l0 14.52l-35.29 0Z" id="p159w6" />
<path d="M325.18 114.18l19.52 0l0 14.52l-19.52 0Z" id="p159w7" />
<path d="M347.91 114.18l35 0l0 14.52l-35 0Z" id="p159w8" />
<path d="M124.06 130.85l46.51 0l0 14.52l-46.51 0Z" id="p159w9" />
<path d="M173.78 130.85l55.44 0l0 14.52l-55.44 0Z" id="p159w10" />
<path d="M232.43 130.85l26.99 0l0 14.52l-26.99 0Z" id="p159w11" />
<path d="M262.63 130.85l56.68 0l0 14.52l-56.68 0Z" id="p159w12" />
<path d="M124.06 147.52l40.63 0l0 14.52l-40.63 0Z" id="p159w13" />
<path d="M167.9 147.52l5.61 0l0 14.52l-5.61 0Z" id="p159w14" />
<path d="M173.51 147.45l73.9 0l0 14.6l-73.9 0Z" id="p159w15" />
<path d="M250.62 147.45l18.52 0l0 14.6l-18.52 0Z" id="p159w16" />
<path d="M272.34 147.45l51.11 0l0 14.6l-51.11 0Z" id="p159w17" />
<path d="M143.75 172.53l41.7 0l0 14.52l-41.7 0Z" id="p159w18" />
<path d="M198.54 172.53l36.64 0l0 14.52l-36.64 0Z" id="p159w19" />
<path d="M143.75 189.2l10.43 0l0 14.52l-10.43 0Z" id="p159w20" />
<path d="M157.39 189.2l19.07 0l0 14.52l-19.07 0Z" id="p159w21" />
<path d="M179.67 189.2l19.51 0l0 14.52l-19.51 0Z" id="p159w22" />
<path d="M202.39 189.2l13.9 0l0 14.52l-13.9 0Z" id="p159w23" />
<path d="M219.49 189.2l29.39 0l0 14.52l-29.39 0Z" id="p159w24" />
<path d="M143.75 205.87l14.18 0l0 14.52l-14.18 0Z" id="p159w25" />
<path d="M161.14 205.87l62.21 0l0 14.52l-62.21 0Z" id="p159w26" />
<path d="M226.55 205.87l26.74 0l0 14.52l-26.74 0Z" id="p159w27" />
<path d="M256.5 205.87l32.62 0l0 14.52l-32.62 0Z" id="p159w28" />
<path d="M292.33 205.87l29.95 0l0 14.52l-29.95 0Z" id="p159w29" />
<path d="M325.48 205.87l38.77 0l0 14.52l-38.77 0Z" id="p159w30" />
<path d="M158.82 222.55l40.36 0l0 14.52l-40.36 0Z" id="p159w31" />
<path d="M143.75 239.22l28.07 0l0 14.52l-28.07 0Z" id="p159w32" />
<path d="M175.04 239.22l39.56 0l0 14.52l-39.56 0Z" id="p159w33" />
<path d="M217.8 239.22l19.79 0l0 14.52l-19.79 0Z" id="p159w34" />
<path d="M240.8 239.22l40.36 0l0 14.52l-40.36 0Z" id="p159w35" />
<path d="M294.25 239.22l34.49 0l0 14.52l-34.49 0Z" id="p159w36" />
<path d="M331.95 239.22l11.22 0l0 14.52l-11.22 0Z" id="p159w37" />
<path d="M143.76 255.89l9.89 0l0 14.52l-9.89 0Z" id="p159w38" />
<path d="M156.85 255.89l43.31 0l0 14.52l-43.31 0Z" id="p159w39" />
<path d="M143.75 272.56l46.51 0l0 14.52l-46.51 0Z" id="p159w40" />
<path d="M193.48 272.56l29.94 0l0 14.52l-29.94 0Z" id="p159w41" />
<path d="M226.62 272.56l35 0l0 14.52l-35 0Z" id="p159w42" />
<path d="M264.83 272.56l27.53 0l0 14.52l-27.53 0Z" id="p159w43" />
<path d="M295.57 272.56l26.74 0l0 14.52l-26.74 0Z" id="p159w44" />
<path d="M325.52 272.56l39.56 0l0 14.52l-39.56 0Z" id="p159w45" />
<path d="M143.76 289.23l14.18 0l0 14.52l-14.18 0Z" id="p159w46" />
<path d="M161.14 289.23l28.87 0l0 14.52l-28.87 0Z" id="p159w47" />
<path d="M193.21 289.23l11.22 0l0 14.52l-11.22 0Z" id="p159w48" />
<path d="M207.64 289.23l13.9 0l0 14.52l-13.9 0Z" id="p159w49" />
<path d="M224.75 289.23l9.89 0l0 14.52l-9.89 0Z" id="p159w50" />
<path d="M237.84 289.23l50.26 0l0 14.52l-50.26 0Z" id="p159w51" />
<path d="M143.75 305.9l21.4 0l0 14.52l-21.4 0Z" id="p159w52" />
<path d="M168.36 305.9l32.43 0l0 14.52l-32.43 0Z" id="p159w53" />
<path d="M204 305.9l50.76 0l0 14.52l-50.76 0Z" id="p159w54" />
<path d="M124.06 339.24l37.16 0l0 14.52l-37.16 0Z" id="p159w55" />
<path d="M164.43 339.24l11.22 0l0 14.52l-11.22 0Z" id="p159w56" />
<path d="M178.85 339.24l51.05 0l0 14.52l-51.05 0Z" id="p159w57" />
<path d="M233.11 339.24l40.09 0l0 14.52l-40.09 0Z" id="p159w58" />
<path d="M276.41 339.24l13.9 0l0 14.52l-13.9 0Z" id="p159w59" />
<path d="M293.51 339.24l21.38 0l0 14.52l-21.38 0Z" id="p159w60" />
<path d="M318.1 339.24l35.84 0l0 14.52l-35.84 0Z" id="p159w61" />
<path d="M124.06 355.91l59.34 0l0 14.52l-59.34 0Z" id="p159w62" />
<path d="M186.61 355.91l15.5 0l0 14.52l-15.5 0Z" id="p159w63" />
<path d="M205.32 355.91l43.29 0l0 14.52l-43.29 0Z" id="p159w64" />
<path d="M251.82 355.91l18.44 0l0 14.52l-18.44 0Z" id="p159w65" />
<path d="M285.37 355.85l13.9 0l0 14.6l-13.9 0Z" id="p159w66" />
<path d="M315.06 355.91l13.91 0l0 14.52l-13.91 0Z" id="p159w67" />
<path d="M332.18 355.85l23.13 0l0 14.6l-23.13 0Z" id="p159w68" />
<path d="M124.06 382.72l31.65 0l0 12.29l-31.65 0Z" id="p159w69" />
<path d="M164.54 380.94l22.73 0l0 14.52l-22.73 0Z" id="p159w70" />
<path d="M190.47 380.94l25.39 0l0 14.52l-25.39 0Z" id="p159w71" />
<path d="M219.08 380.94l9.62 0l0 14.52l-9.62 0Z" id="p159w72" />
<path d="M231.91 380.94l13.9 0l0 14.52l-13.9 0Z" id="p159w73" />
<path d="M249.01 380.94l25.67 0l0 14.52l-25.67 0Z" id="p159w74" />
<path d="M277.89 380.94l19.51 0l0 14.52l-19.51 0Z" id="p159w75" />
<path d="M300.61 380.94l25.38 0l0 14.52l-25.38 0Z" id="p159w76" />
<path d="M329.2 380.94l23.24 0l0 14.52l-23.24 0Z" id="p159w77" />
<path d="M355.65 380.94l37.68 0l0 14.52l-37.68 0Z" id="p159w78" />
<path d="M162.72 397.62l39.57 0l0 14.52l-39.57 0Z" id="p159w79" />
<path d="M205.49 397.62l17.63 0l0 14.52l-17.63 0Z" id="p159w80" />
<path d="M226.34 397.62l28.34 0l0 14.52l-28.34 0Z" id="p159w81" />
<path d="M257.88 397.62l16.83 0l0 14.52l-16.83 0Z" id="p159w82" />
<path d="M277.92 397.62l26.45 0l0 14.52l-26.45 0Z" id="p159w83" />
<path d="M326.54 397.62l49.1 0l0 14.52l-49.1 0Z" id="p159w84" />
<path d="M143.75 414.29l11.22 0l0 14.52l-11.22 0Z" id="p159w85" />
<path d="M158.18 414.29l25.13 0l0 14.52l-25.13 0Z" id="p159w86" />
<path d="M186.52 414.29l26.72 0l0 14.52l-26.72 0Z" id="p159w87" />
<path d="M216.44 414.29l13.9 0l0 14.52l-13.9 0Z" id="p159w88" />
<path d="M252.51 414.29l62.21 0l0 14.52l-62.21 0Z" id="p159w89" />
<path d="M317.92 414.29l6.96 0l0 14.52l-6.96 0Z" id="p159w90" />
<path d="M347.07 414.29l54.55 0l0 14.52l-54.55 0Z" id="p159w91" />
<path d="M143.76 430.96l61.92 0l0 14.52l-61.92 0Z" id="p159w92" />
<path d="M208.88 430.96l43.83 0l0 14.52l-43.83 0Z" id="p159w93" />
<path d="M274.88 430.96l35.56 0l0 14.52l-35.56 0Z" id="p159w94" />
<path d="M124.06 449.41l43.35 0l0 12.29l-43.35 0Z" id="p159w95" />
<path d="M176.24 447.64l26.45 0l0 14.52l-26.45 0Z" id="p159w96" />
<path d="M205.9 447.64l6.41 0l0 14.52l-6.41 0Z" id="p159w97" />
<path d="M215.52 447.64l22.45 0l0 14.52l-22.45 0Z" id="p159w98" />
<path d="M241.18 447.64l32.87 0l0 14.52l-32.87 0Z" id="p159w99" />
<path d="M277.26 447.64l51.85 0l0 14.52l-51.85 0Z" id="p159w100" />
<path d="M338.91 447.64l12.41 0l0 14.52l-12.41 0Z" id="p159w101" />
<path d="M373.48 447.64l12.29 0l0 14.52l-12.29 0Z" id="p159w102" />
<path d="M388.98 447.64l33.41 0l0 14.52l-33.41 0Z" id="p159w103" />
<path d="M124.06 466.08l31.65 0l0 12.29l-31.65 0Z" id="p159w104" />
<path d="M164.54 464.31l14.97 0l0 14.52l-14.97 0Z" id="p159w105" />
<path d="M182.71 464.31l17.38 0l0 14.52l-17.38 0Z" id="p159w106" />
<path d="M210.26 464.31l30.74 0l0 14.52l-30.74 0Z" id="p159w107" />
<path d="M244.21 464.31l22.72 0l0 14.52l-22.72 0Z" id="p159w108" />
<path d="M289.09 464.31l51.81 0l0 14.52l-51.81 0Z" id="p159w109" />
<path d="M344.11 464.31l21.12 0l0 14.52l-21.12 0Z" id="p159w110" />
<path d="M368.43 464.31l37.96 0l0 14.52l-37.96 0Z" id="p159w111" />
<path d="M428.56 464.31l24.33 0l0 14.52l-24.33 0Z" id="p159w112" />
<path d="M456.09 464.31l25.38 0l0 14.52l-25.38 0Z" id="p159w113" />
<path d="M484.68 464.31l6.41 0l0 14.52l-6.41 0Z" id="p159w114" />
<path d="M513.29 464.31l24.59 0l0 14.52l-24.59 0Z" id="p159w115" />
<path d="M541.08 464.31l22.19 0l0 14.52l-22.19 0Z" id="p159w116" />
<path d="M566.48 464.31l12.57 0l0 14.52l-12.57 0Z" id="p159w117" />
<path d="M582.25 464.31l26.74 0l0 14.52l-26.74 0Z" id="p159w118" />
<path d="M143.75 480.98l40.09 0l0 14.52l-40.09 0Z" id="p159w119" />
<path d="M187.04 480.98l46.79 0l0 14.52l-46.79 0Z" id="p159w120" />
<path d="M256.01 480.98l53.47 0l0 14.52l-53.47 0Z" id="p159w121" />
<path d="M312.68 480.98l9.89 0l0 14.52l-9.89 0Z" id="p159w122" />
<path d="M325.78 480.98l16.04 0l0 14.52l-16.04 0Z" id="p159w123" />
<path d="M345.02 480.98l16.83 0l0 14.52l-16.83 0Z" id="p159w124" />
<path d="M365.06 480.98l69.2 0l0 14.52l-69.2 0Z" id="p159w125" />
<path d="M437.47 480.98l11.22 0l0 14.52l-11.22 0Z" id="p159w126" />
<path d="M451.9 480.98l19.51 0l0 14.52l-19.51 0Z" id="p159w127" />
<path d="M474.61 480.98l33.68 0l0 14.52l-33.68 0Z" id="p159w128" />
<path d="M124.06 499.43l43.35 0l0 12.29l-43.35 0Z" id="p159w129" />
<path d="M176.24 497.65l15.77 0l0 14.52l-15.77 0Z" id="p159w130" />
<path d="M195.22 497.65l9.62 0l0 14.52l-9.62 0Z" id="p159w131" />
<path d="M225.46 497.65l28.33 0l0 14.52l-28.33 0Z" id="p159w132" />
<path d="M256.99 497.65l19.51 0l0 14.52l-19.51 0Z" id="p159w133" />
<path d="M279.7 497.65l7.48 0l0 14.52l-7.48 0Z" id="p159w134" />
<path d="M287.19 497.65l38.75 0l0 14.52l-38.75 0Z" id="p159w135" />
<path d="M124.06 516.1l31.65 0l0 12.29l-31.65 0Z" id="p159w136" />
<path d="M164.54 514.33l26.19 0l0 14.52l-26.19 0Z" id="p159w137" />
<path d="M193.93 514.33l20.85 0l0 14.52l-20.85 0Z" id="p159w138" />
<path d="M217.99 514.33l22.45 0l0 14.52l-22.45 0Z" id="p159w139" />
<path d="M243.65 514.33l47.53 0l0 14.52l-47.53 0Z" id="p159w140" />
<path d="M294.39 514.33l15.77 0l0 14.52l-15.77 0Z" id="p159w141" />
<path d="M332.33 514.33l24.85 0l0 14.52l-24.85 0Z" id="p159w142" />
<path d="M360.39 514.33l22.99 0l0 14.52l-22.99 0Z" id="p159w143" />
<path d="M386.59 514.33l13.9 0l0 14.52l-13.9 0Z" id="p159w144" />
<path d="M403.7 514.33l7.48 0l0 14.52l-7.48 0Z" id="p159w145" />
<path d="M411.18 514.33l38.75 0l0 14.52l-38.75 0Z" id="p159w146" />
<path d="M453.15 514.33l11.22 0l0 14.52l-11.22 0Z" id="p159w147" />
<path d="M467.57 514.33l13.9 0l0 14.52l-13.9 0Z" id="p159w148" />
<path d="M484.68 514.33l46.52 0l0 14.52l-46.52 0Z" id="p159w149" />
<path d="M124.06 532.77l43.35 0l0 12.29l-43.35 0Z" id="p159w150" />
<path d="M176.24 531l33.33 0l0 14.52l-33.33 0Z" id="p159w151" />
<path d="M212.78 531l22.99 0l0 14.52l-22.99 0Z" id="p159w152" />
<path d="M257.96 531l19.51 0l0 14.52l-19.51 0Z" id="p159w153" />
<path d="M280.68 531l58.53 0l0 14.52l-58.53 0Z" id="p159w154" />
<path d="M352.29 531l50.79 0l0 14.52l-50.79 0Z" id="p159w155" />
<path d="M124.06 549.45l31.65 0l0 12.29l-31.65 0Z" id="p159w156" />
<path d="M164.54 547.67l6.96 0l0 14.52l-6.96 0Z" id="p159w157" />
<path d="M212.64 547.67l35.27 0l0 14.52l-35.27 0Z" id="p159w158" />
<path d="M251.12 547.67l49.99 0l0 14.52l-49.99 0Z" id="p159w159" />
<path d="M304.31 547.67l41.43 0l0 14.52l-41.43 0Z" id="p159w160" />
<path d="M348.95 547.67l9.89 0l0 14.52l-9.89 0Z" id="p159w161" />
<path d="M362.05 547.67l47.33 0l0 14.52l-47.33 0Z" id="p159w162" />
<path d="M412.59 547.67l13.91 0l0 14.52l-13.91 0Z" id="p159w163" />
<path d="M429.71 547.67l15.5 0l0 14.52l-15.5 0Z" id="p159w164" />
<path d="M448.41 547.67l88.87 0l0 14.52l-88.87 0Z" id="p159w165" />
<path d="M124.06 566.12l43.35 0l0 12.29l-43.35 0Z" id="p159w166" />
<path d="M176.24 564.35l20.58 0l0 14.52l-20.58 0Z" id="p159w167" />
<path d="M200.03 564.35l72.87 0l0 14.52l-72.87 0Z" id="p159w168" />
<path d="M284.04 564.35l12.41 0l0 14.52l-12.41 0Z" id="p159w169" />
<path d="M318.61 564.35l12.29 0l0 14.52l-12.29 0Z" id="p159w170" />
<path d="M334.11 564.35l23.52 0l0 14.52l-23.52 0Z" id="p159w171" />
<path d="M360.84 564.35l38.69 0l0 14.52l-38.69 0Z" id="p159w172" />
<path d="M124.06 582.79l31.65 0l0 12.29l-31.65 0Z" id="p159w173" />
<path d="M164.54 581.02l25.41 0l0 14.52l-25.41 0Z" id="p159w174" />
<path d="M193.15 581.02l9.62 0l0 14.52l-9.62 0Z" id="p159w175" />
<path d="M205.98 581.02l9.62 0l0 14.52l-9.62 0Z" id="p159w176" />
<path d="M236.22 581.02l9.89 0l0 14.52l-9.89 0Z" id="p159w177" />
<path d="M249.31 581.02l19.51 0l0 14.52l-19.51 0Z" id="p159w178" />
<path d="M272.03 581.02l37.96 0l0 14.52l-37.96 0Z" id="p159w179" />
<path d="M313.19 581.02l41.37 0l0 14.52l-41.37 0Z" id="p159w180" />
<path d="M357.77 581.02l26.45 0l0 14.52l-26.45 0Z" id="p159w181" />
<path d="M387.43 581.02l19.79 0l0 14.52l-19.79 0Z" id="p159w182" />
<path d="M410.42 581.02l37.96 0l0 14.52l-37.96 0Z" id="p159w183" />
<path d="M470.55 581.02l50.45 0l0 14.52l-50.45 0Z" id="p159w184" />
<path d="M524.2 581.02l46.79 0l0 14.52l-46.79 0Z" id="p159w185" />
<path d="M124.06 599.47l43.35 0l0 12.29l-43.35 0Z" id="p159w186" />
<path d="M176.24 597.69l11.5 0l0 14.52l-11.5 0Z" id="p159w187" />
<path d="M190.95 597.69l11.5 0l0 14.52l-11.5 0Z" id="p159w188" />
<path d="M205.65 597.69l12.29 0l0 14.52l-12.29 0Z" id="p159w189" />
<path d="M221.15 597.69l23.52 0l0 14.52l-23.52 0Z" id="p159w190" />
<path d="M247.87 597.69l28.33 0l0 14.52l-28.33 0Z" id="p159w191" />
<path d="M279.41 597.69l13.9 0l0 14.52l-13.9 0Z" id="p159w192" />
<path d="M296.51 597.69l16.83 0l0 14.52l-16.83 0Z" id="p159w193" />
<path d="M316.55 597.69l38.23 0l0 14.52l-38.23 0Z" id="p159w194" />
<path d="M367.87 597.69l16.83 0l0 14.52l-16.83 0Z" id="p159w195" />
<path d="M387.91 597.69l42.49 0l0 14.52l-42.49 0Z" id="p159w196" />
<path d="M124.06 616.14l31.65 0l0 12.29l-31.65 0Z" id="p159w197" />
<path d="M164.54 614.36l25.41 0l0 14.52l-25.41 0Z" id="p159w198" />
<path d="M193.15 614.36l9.62 0l0 14.52l-9.62 0Z" id="p159w199" />
<path d="M205.98 614.36l9.62 0l0 14.52l-9.62 0Z" id="p159w200" />
<path d="M236.22 614.36l9.89 0l0 14.52l-9.89 0Z" id="p159w201" />
<path d="M249.31 614.36l19.51 0l0 14.52l-19.51 0Z" id="p159w202" />
<path d="M272.03 614.36l37.96 0l0 14.52l-37.96 0Z" id="p159w203" />
<path d="M313.19 614.36l31.01 0l0 14.52l-31.01 0Z" id="p159w204" />
<path d="M347.41 614.36l26.45 0l0 14.52l-26.45 0Z" id="p159w205" />
<path d="M377.07 614.36l9.62 0l0 14.52l-9.62 0Z" id="p159w206" />
<path d="M389.9 614.36l21.38 0l0 14.52l-21.38 0Z" id="p159w207" />
<path d="M414.49 614.36l17.11 0l0 14.52l-17.11 0Z" id="p159w208" />
<path d="M434.8 614.36l28.6 0l0 14.52l-28.6 0Z" id="p159w209" />
<path d="M466.61 614.36l35.28 0l0 14.52l-35.28 0Z" id="p159w210" />
<path d="M505.1 614.36l48.94 0l0 14.52l-48.94 0Z" id="p159w211" />
<path d="M143.76 631.03l10.43 0l0 14.52l-10.43 0Z" id="p159w212" />
<path d="M157.39 631.03l25.12 0l0 14.52l-25.12 0Z" id="p159w213" />
<path d="M185.72 631.03l41.43 0l0 14.52l-41.43 0Z" id="p159w214" />
<path d="M230.36 631.03l25.13 0l0 14.52l-25.13 0Z" id="p159w215" />
<path d="M258.69 631.03l26.72 0l0 14.52l-26.72 0Z" id="p159w216" />
<path d="M288.62 631.03l11.22 0l0 14.52l-11.22 0Z" id="p159w217" />
<path d="M303.04 631.03l17.63 0l0 14.52l-17.63 0Z" id="p159w218" />
<path d="M323.89 631.03l29.7 0l0 14.52l-29.7 0Z" id="p159w219" />
<path d="M124.06 649.48l43.35 0l0 12.29l-43.35 0Z" id="p159w220" />
<path d="M176.24 647.71l14.97 0l0 14.52l-14.97 0Z" id="p159w221" />
<path d="M194.42 647.71l19.8 0l0 14.52l-19.8 0Z" id="p159w222" />
<path d="M217.42 647.71l24.85 0l0 14.52l-24.85 0Z" id="p159w223" />
<path d="M245.49 647.71l22.99 0l0 14.52l-22.99 0Z" id="p159w224" />
<path d="M271.69 647.71l12.02 0l0 14.52l-12.02 0Z" id="p159w225" />
<path d="M286.92 647.71l18.72 0l0 14.52l-18.72 0Z" id="p159w226" />
<path d="M308.84 647.71l68.65 0l0 14.52l-68.65 0Z" id="p159w227" />
<path d="M124.07 681.05l59.34 0l0 14.52l-59.34 0Z" id="p159w228" />
<path d="M186.62 681.05l25.4 0l0 14.52l-25.4 0Z" id="p159w229" />
<path d="M215.22 680.98l17.62 0l0 14.6l-17.62 0Z" id="p159w230" />
<path d="M238.73 680.98l17.62 0l0 14.6l-17.62 0Z" id="p159w231" />
<path d="M259.56 680.98l33.05 0l0 14.6l-33.05 0Z" id="p159w232" />
<path d="M295.81 680.98l43.08 0l0 14.6l-43.08 0Z" id="p159w233" />
<path d="M344.78 680.98l49.54 0l0 14.6l-49.54 0Z" id="p159w234" />
<path d="M397.53 680.98l17.62 0l0 14.6l-17.62 0Z" id="p159w235" />
<path d="M418.36 681.05l11.22 0l0 14.52l-11.22 0Z" id="p159w236" />
<path d="M432.78 680.98l49.54 0l0 14.6l-49.54 0Z" id="p159w237" />
<path d="M485.53 680.98l43.08 0l0 14.6l-43.08 0Z" id="p159w238" />
<path d="M531.82 681.05l11.22 0l0 14.52l-11.22 0Z" id="p159w239" />
<path d="M546.25 681.05l41.45 0l0 14.52l-41.45 0Z" id="p159w240" />
<path d="M590.9 681.05l9.89 0l0 14.52l-9.89 0Z" id="p159w241" />
<path d="M603.99 681.05l35.29 0l0 14.52l-35.29 0Z" id="p159w242" />
<path d="M642.49 681.05l47.58 0l0 14.52l-47.58 0Z" id="p159w243" />
<path d="M162.72 706.06l16.83 0l0 14.52l-16.83 0Z" id="p159w244" />
<path d="M182.75 706.06l9.89 0l0 14.52l-9.89 0Z" id="p159w245" />
<path d="M195.85 706.06l46.51 0l0 14.52l-46.51 0Z" id="p159w246" />
<path d="M245.57 706.06l13.9 0l0 14.52l-13.9 0Z" id="p159w247" />
<path d="M262.67 706.06l50.79 0l0 14.52l-50.79 0Z" id="p159w248" />
<path d="M162.72 722.74l14.18 0l0 14.52l-14.18 0Z" id="p159w249" />
<path d="M180.1 722.74l25.4 0l0 14.52l-25.4 0Z" id="p159w250" />
<path d="M208.7 722.74l20.85 0l0 14.52l-20.85 0Z" id="p159w251" />
<path d="M232.76 722.74l26.73 0l0 14.52l-26.73 0Z" id="p159w252" />
<path d="M262.7 722.74l9.89 0l0 14.52l-9.89 0Z" id="p159w253" />
<path d="M275.79 722.74l44.36 0l0 14.52l-44.36 0Z" id="p159w254" />
<path d="M323.36 722.74l50.18 0l0 14.52l-50.18 0Z" id="p159w255" />
<path d="M162.72 739.41l18.7 0l0 14.52l-18.7 0Z" id="p159w256" />
<path d="M184.63 739.41l13.9 0l0 14.52l-13.9 0Z" id="p159w257" />
<path d="M201.73 739.41l50.79 0l0 14.52l-50.79 0Z" id="p159w258" />
<path d="M255.73 739.41l9.89 0l0 14.52l-9.89 0Z" id="p159w259" />
<path d="M268.82 739.41l44.1 0l0 14.52l-44.1 0Z" id="p159w260" />
<path d="M316.13 739.41l13.9 0l0 14.52l-13.9 0Z" id="p159w261" />
<path d="M333.24 739.41l9.89 0l0 14.52l-9.89 0Z" id="p159w262" />
<path d="M346.33 739.41l16.31 0l0 14.52l-16.31 0Z" id="p159w263" />
<path d="M162.72 756.08l16.83 0l0 14.52l-16.83 0Z" id="p159w264" />
<path d="M182.75 756.08l21.37 0l0 14.52l-21.37 0Z" id="p159w265" />
<path d="M207.33 756.08l34.24 0l0 14.52l-34.24 0Z" id="p159w266" />
<path d="M254.66 756.08l50.79 0l0 14.52l-50.79 0Z" id="p159w267" />
<path d="M162.72 772.76l14.18 0l0 14.52l-14.18 0Z" id="p159w268" />
<path d="M180.1 772.76l25.4 0l0 14.52l-25.4 0Z" id="p159w269" />
<path d="M208.7 772.76l25.38 0l0 14.52l-25.38 0Z" id="p159w270" />
<path d="M247.18 772.76l55.44 0l0 14.52l-55.44 0Z" id="p159w271" />
<path d="M162.72 789.43l14.18 0l0 14.52l-14.18 0Z" id="p159w272" />
<path d="M180.1 789.43l25.4 0l0 14.52l-25.4 0Z" id="p159w273" />
<path d="M208.7 789.43l58.8 0l0 14.52l-58.8 0Z" id="p159w274" />
<path d="M270.71 789.43l26.73 0l0 14.52l-26.73 0Z" id="p159w275" />
<path d="M300.65 789.43l9.89 0l0 14.52l-9.89 0Z" id="p159w276" />
<path d="M313.74 789.43l44.36 0l0 14.52l-44.36 0Z" id="p159w277" />
<path d="M143.75 806.1l52.67 0l0 14.52l-52.67 0Z" id="p159w278" />
<path d="M446.02 706.06l20.58 0l0 14.52l-20.58 0Z" id="p159w279" />
<path d="M469.81 706.06l57.73 0l0 14.52l-57.73 0Z" id="p159w280" />
<path d="M530.75 706.06l48.23 0l0 14.52l-48.23 0Z" id="p159w281" />
<path d="M582.19 706.06l51.05 0l0 14.52l-51.05 0Z" id="p159w282" />
<path d="M446.02 722.73l15.77 0l0 14.52l-15.77 0Z" id="p159w283" />
<path d="M465 722.73l25.4 0l0 14.52l-25.4 0Z" id="p159w284" />
<path d="M502.7 722.73l33.94 0l0 14.52l-33.94 0Z" id="p159w285" />
<path d="M539.84 722.73l19.51 0l0 14.52l-19.51 0Z" id="p159w286" />
<path d="M562.56 722.73l65.77 0l0 14.52l-65.77 0Z" id="p159w287" />
<path d="M446.02 739.4l26.19 0l0 14.52l-26.19 0Z" id="p159w288" />
<path d="M475.42 739.4l9.89 0l0 14.52l-9.89 0Z" id="p159w289" />
<path d="M488.51 739.4l58.8 0l0 14.52l-58.8 0Z" id="p159w290" />
<path d="M550.52 739.4l18.45 0l0 14.52l-18.45 0Z" id="p159w291" />
<path d="M446.02 756.07l12.83 0l0 14.52l-12.83 0Z" id="p159w292" />
<path d="M462.06 756.07l32.55 0l0 14.52l-32.55 0Z" id="p159w293" />
<path d="M497.82 756.07l43.57 0l0 14.52l-43.57 0Z" id="p159w294" />
<path d="M544.6 756.07l13.9 0l0 14.52l-13.9 0Z" id="p159w295" />
<path d="M561.7 756.07l16.31 0l0 14.52l-16.31 0Z" id="p159w296" />
<path d="M581.22 756.07l17.38 0l0 14.52l-17.38 0Z" id="p159w297" />
<path d="M601.82 756.07l13.9 0l0 14.52l-13.9 0Z" id="p159w298" />
<path d="M618.92 756.07l30.48 0l0 14.52l-30.48 0Z" id="p159w299" />
<path d="M446.02 772.74l20.58 0l0 14.52l-20.58 0Z" id="p159w300" />
<path d="M469.81 772.74l26.66 0l0 14.52l-26.66 0Z" id="p159w301" />
<path d="M499.68 772.74l17.38 0l0 14.52l-17.38 0Z" id="p159w302" />
<path d="M520.27 772.74l56.22 0l0 14.52l-56.22 0Z" id="p159w303" />
<path d="M579.69 772.74l26.73 0l0 14.52l-26.73 0Z" id="p159w304" />
<path d="M446.03 789.42l15.5 0l0 14.52l-15.5 0Z" id="p159w305" />
<path d="M464.73 789.42l62.82 0l0 14.52l-62.82 0Z" id="p159w306" />
<path d="M530.75 789.42l74.85 0l0 14.52l-74.85 0Z" id="p159w307" />
<path d="M446.02 806.09l26.19 0l0 14.52l-26.19 0Z" id="p159w308" />
<path d="M475.42 806.09l58.12 0l0 14.52l-58.12 0Z" id="p159w309" />
<path d="M76.64 341.1l11.64 0l0 12.3l-11.64 0Z" id="p159w310" />
<path d="M68.27 38.6l62.95 0l0 16.09l-62.95 0Z" id="p159w311" />
<path d="M597.38 983l93.72 0l0 12.23l-93.72 0Z" id="p159w312" />
</svg>
