<?xml version="1.0" encoding="UTF-8"?>
<svg xmlns="http://www.w3.org/2000/svg" xmlns:xlink="http://www.w3.org/1999/xlink" version="1.1" baseProfile="full" width="768" height="1024" viewBox="0,0,768,1024" preserveAspectRatio="xMinYMin meet" >
<style type="text/css">
<![CDATA[
path {fill-opacity: 0.5;fill: #00aeef;visibility: hidden;}
]]>
</style>
<path d="M167.21 104.82l50.48 0l0 23.34l-50.48 0Z" id="p127w1" />
<path d="M244.54 104.82l33.03 0l0 23.34l-33.03 0Z" id="p127w2" />
<path d="M282.65 104.82l48.08 0l0 23.34l-48.08 0Z" id="p127w3" />
<path d="M335.81 104.82l47.62 0l0 23.34l-47.62 0Z" id="p127w4" />
<path d="M388.51 104.82l95.08 0l0 23.34l-95.08 0Z" id="p127w5" />
<path d="M124.06 138.77l33.65 0l0 15.42l-33.65 0Z" id="p127w6" />
<path d="M161.44 138.77l44.06 0l0 15.42l-44.06 0Z" id="p127w7" />
<path d="M209.22 138.77l50.12 0l0 15.42l-50.12 0Z" id="p127w8" />
<path d="M124.06 155.57l48.35 0l0 15.09l-48.35 0Z" id="p127w9" />
<path d="M185.11 155.57l28.72 0l0 15.09l-28.72 0Z" id="p127w10" />
<path d="M217.44 155.57l15.74 0l0 15.09l-15.74 0Z" id="p127w11" />
<path d="M236.8 155.57l23.85 0l0 15.09l-23.85 0Z" id="p127w12" />
<path d="M264.26 155.57l19.01 0l0 15.09l-19.01 0Z" id="p127w13" />
<path d="M286.88 155.57l38.74 0l0 15.09l-38.74 0Z" id="p127w14" />
<path d="M329.23 155.57l22.03 0l0 15.09l-22.03 0Z" id="p127w15" />
<path d="M354.87 155.57l25.88 0l0 15.09l-25.88 0Z" id="p127w16" />
<path d="M384.37 155.57l31.13 0l0 15.09l-31.13 0Z" id="p127w17" />
<path d="M419.1 155.57l41.55 0l0 15.09l-41.55 0Z" id="p127w18" />
<path d="M464.27 155.57l48.9 0l0 15.09l-48.9 0Z" id="p127w19" />
<path d="M516.78 155.57l13.91 0l0 15.09l-13.91 0Z" id="p127w20" />
<path d="M534.3 155.57l36.99 0l0 15.09l-36.99 0Z" id="p127w21" />
<path d="M601.11 155.57l29.6 0l0 15.09l-29.6 0Z" id="p127w22" />
<path d="M124.06 180.58l24.32 0l0 15.09l-24.32 0Z" id="p127w23" />
<path d="M151.99 180.58l17.97 0l0 15.09l-17.97 0Z" id="p127w24" />
<path d="M199.79 180.58l29.6 0l0 15.09l-29.6 0Z" id="p127w25" />
<path d="M241.45 180.58l16.64 0l0 15.09l-16.64 0Z" id="p127w26" />
<path d="M261.71 180.58l22.31 0l0 15.09l-22.31 0Z" id="p127w27" />
<path d="M287.63 180.58l29.5 0l0 15.09l-29.5 0Z" id="p127w28" />
<path d="M320.74 180.58l27.82 0l0 15.09l-27.82 0Z" id="p127w29" />
<path d="M352.17 180.58l44.45 0l0 15.09l-44.45 0Z" id="p127w30" />
<path d="M400.24 180.58l31.62 0l0 15.09l-31.62 0Z" id="p127w31" />
<path d="M435.46 180.58l34.02 0l0 15.09l-34.02 0Z" id="p127w32" />
<path d="M490.87 180.58l29.6 0l0 15.09l-29.6 0Z" id="p127w33" />
<path d="M524.08 180.58l27.82 0l0 15.09l-27.82 0Z" id="p127w34" />
<path d="M555.51 180.58l60.92 0l0 15.09l-60.92 0Z" id="p127w35" />
<path d="M124.06 197.25l52.65 0l0 15.09l-52.65 0Z" id="p127w36" />
<path d="M180.33 197.25l35.48 0l0 15.09l-35.48 0Z" id="p127w37" />
<path d="M219.42 197.25l44.79 0l0 15.09l-44.79 0Z" id="p127w38" />
<path d="M274.96 197.25l31.13 0l0 15.09l-31.13 0Z" id="p127w39" />
<path d="M309.7 197.25l37.99 0l0 15.09l-37.99 0Z" id="p127w40" />
<path d="M351.3 197.25l25.65 0l0 15.09l-25.65 0Z" id="p127w41" />
<path d="M380.56 197.25l21.67 0l0 15.09l-21.67 0Z" id="p127w42" />
<path d="M405.84 197.25l42.5 0l0 15.09l-42.5 0Z" id="p127w43" />
<path d="M451.95 197.25l36.55 0l0 15.09l-36.55 0Z" id="p127w44" />
<path d="M492.12 197.25l22.67 0l0 15.09l-22.67 0Z" id="p127w45" />
<path d="M528.5 197.25l20.54 0l0 15.09l-20.54 0Z" id="p127w46" />
<path d="M552.65 197.25l39.38 0l0 15.09l-39.38 0Z" id="p127w47" />
<path d="M595.64 197.25l27.82 0l0 15.09l-27.82 0Z" id="p127w48" />
<path d="M124.06 213.92l102.12 0l0 15.09l-102.12 0Z" id="p127w49" />
<path d="M124.06 230.59l32.85 0l0 15.09l-32.85 0Z" id="p127w50" />
<path d="M160.52 230.59l17.58 0l0 15.09l-17.58 0Z" id="p127w51" />
<path d="M181.72 230.59l57.33 0l0 15.09l-57.33 0Z" id="p127w52" />
<path d="M242.66 230.59l13.65 0l0 15.09l-13.65 0Z" id="p127w53" />
<path d="M259.92 230.59l54.78 0l0 15.09l-54.78 0Z" id="p127w54" />
<path d="M318.31 230.59l76.29 0l0 15.09l-76.29 0Z" id="p127w55" />
<path d="M398.21 230.59l30.36 0l0 15.09l-30.36 0Z" id="p127w56" />
<path d="M442.15 230.59l35.56 0l0 15.09l-35.56 0Z" id="p127w57" />
<path d="M481.32 230.59l23.72 0l0 15.09l-23.72 0Z" id="p127w58" />
<path d="M508.66 230.59l23.09 0l0 15.09l-23.09 0Z" id="p127w59" />
<path d="M535.36 230.59l10.17 0l0 15.09l-10.17 0Z" id="p127w60" />
<path d="M549.14 230.59l91.62 0l0 15.09l-91.62 0Z" id="p127w61" />
<path d="M149.89 247.26l29.08 0l0 15.09l-29.08 0Z" id="p127w62" />
<path d="M190.79 247.26l27.58 0l0 15.09l-27.58 0Z" id="p127w63" />
<path d="M221.98 247.26l19.07 0l0 15.09l-19.07 0Z" id="p127w64" />
<path d="M244.66 247.26l10.17 0l0 15.09l-10.17 0Z" id="p127w65" />
<path d="M258.44 247.26l52.96 0l0 15.09l-52.96 0Z" id="p127w66" />
<path d="M315.02 247.26l28.85 0l0 15.09l-28.85 0Z" id="p127w67" />
<path d="M347.48 247.26l25.86 0l0 15.09l-25.86 0Z" id="p127w68" />
<path d="M386.92 247.26l33.7 0l0 15.09l-33.7 0Z" id="p127w69" />
<path d="M124.06 280.48l34.79 0l0 15.42l-34.79 0Z" id="p127w70" />
<path d="M162.58 280.48l11.94 0l0 15.42l-11.94 0Z" id="p127w71" />
<path d="M178.25 280.48l42.58 0l0 15.42l-42.58 0Z" id="p127w72" />
<path d="M224.55 280.48l29.51 0l0 15.42l-29.51 0Z" id="p127w73" />
<path d="M257.79 280.48l29.97 0l0 15.42l-29.97 0Z" id="p127w74" />
<path d="M291.48 280.48l59.47 0l0 15.42l-59.47 0Z" id="p127w75" />
<path d="M124.06 297.28l29.29 0l0 15.09l-29.29 0Z" id="p127w76" />
<path d="M156.96 297.28l36.99 0l0 15.09l-36.99 0Z" id="p127w77" />
<path d="M223.78 297.28l29.6 0l0 15.09l-29.6 0Z" id="p127w78" />
<path d="M269.01 297.28l15.89 0l0 15.09l-15.89 0Z" id="p127w79" />
<path d="M288.5 297.28l65.79 0l0 15.09l-65.79 0Z" id="p127w80" />
<path d="M357.9 297.28l50.88 0l0 15.09l-50.88 0Z" id="p127w81" />
<path d="M412.4 297.28l19.29 0l0 15.09l-19.29 0Z" id="p127w82" />
<path d="M435.3 297.28l27.5 0l0 15.09l-27.5 0Z" id="p127w83" />
<path d="M466.41 297.28l31.89 0l0 15.09l-31.89 0Z" id="p127w84" />
<path d="M501.91 297.28l47.82 0l0 15.09l-47.82 0Z" id="p127w85" />
<path d="M553.34 297.28l49.47 0l0 15.09l-49.47 0Z" id="p127w86" />
<path d="M606.42 297.28l14.86 0l0 15.09l-14.86 0Z" id="p127w87" />
<path d="M124.06 313.95l22.62 0l0 15.09l-22.62 0Z" id="p127w88" />
<path d="M150.29 313.95l49.44 0l0 15.09l-49.44 0Z" id="p127w89" />
<path d="M212.43 313.95l18.93 0l0 15.09l-18.93 0Z" id="p127w90" />
<path d="M234.97 313.95l54.02 0l0 15.09l-54.02 0Z" id="p127w91" />
<path d="M292.6 313.95l39.93 0l0 15.09l-39.93 0Z" id="p127w92" />
<path d="M336.14 313.95l10.5 0l0 15.09l-10.5 0Z" id="p127w93" />
<path d="M350.26 313.95l59.68 0l0 15.09l-59.68 0Z" id="p127w94" />
<path d="M413.55 313.95l19.29 0l0 15.09l-19.29 0Z" id="p127w95" />
<path d="M436.45 313.95l49.09 0l0 15.09l-49.09 0Z" id="p127w96" />
<path d="M489.16 313.95l13.91 0l0 15.09l-13.91 0Z" id="p127w97" />
<path d="M506.68 313.95l36.32 0l0 15.09l-36.32 0Z" id="p127w98" />
<path d="M546.61 313.95l27.23 0l0 15.09l-27.23 0Z" id="p127w99" />
<path d="M577.45 313.95l11.88 0l0 15.09l-11.88 0Z" id="p127w100" />
<path d="M592.94 313.95l41.6 0l0 15.09l-41.6 0Z" id="p127w101" />
<path d="M124.06 330.62l14.86 0l0 15.09l-14.86 0Z" id="p127w102" />
<path d="M142.53 330.62l15.74 0l0 15.09l-15.74 0Z" id="p127w103" />
<path d="M161.88 330.62l66.33 0l0 15.09l-66.33 0Z" id="p127w104" />
<path d="M231.83 330.62l24.79 0l0 15.09l-24.79 0Z" id="p127w105" />
<path d="M260.23 330.62l22.7 0l0 15.09l-22.7 0Z" id="p127w106" />
<path d="M286.54 330.62l18.49 0l0 15.09l-18.49 0Z" id="p127w107" />
<path d="M308.64 330.62l11.88 0l0 15.09l-11.88 0Z" id="p127w108" />
<path d="M324.13 330.62l29.69 0l0 15.09l-29.69 0Z" id="p127w109" />
<path d="M357.43 330.62l21.42 0l0 15.09l-21.42 0Z" id="p127w110" />
<path d="M382.46 330.62l40.38 0l0 15.09l-40.38 0Z" id="p127w111" />
<path d="M426.46 330.62l49.2 0l0 15.09l-49.2 0Z" id="p127w112" />
<path d="M479.26 330.62l27.5 0l0 15.09l-27.5 0Z" id="p127w113" />
<path d="M510.38 330.62l47.82 0l0 15.09l-47.82 0Z" id="p127w114" />
<path d="M561.81 330.62l23.21 0l0 15.09l-23.21 0Z" id="p127w115" />
<path d="M588.63 330.62l15.74 0l0 15.09l-15.74 0Z" id="p127w116" />
<path d="M607.99 330.62l21.87 0l0 15.09l-21.87 0Z" id="p127w117" />
<path d="M124.06 347.28l24.62 0l0 15.09l-24.62 0Z" id="p127w118" />
<path d="M152.3 347.28l49.88 0l0 15.09l-49.88 0Z" id="p127w119" />
<path d="M205.79 347.28l43.85 0l0 15.09l-43.85 0Z" id="p127w120" />
<path d="M253.25 347.28l14.59 0l0 15.09l-14.59 0Z" id="p127w121" />
<path d="M271.45 347.28l19.46 0l0 15.09l-19.46 0Z" id="p127w122" />
<path d="M294.52 347.28l45.38 0l0 15.09l-45.38 0Z" id="p127w123" />
<path d="M343.51 347.28l13.91 0l0 15.09l-13.91 0Z" id="p127w124" />
<path d="M361.03 347.28l38.99 0l0 15.09l-38.99 0Z" id="p127w125" />
<path d="M403.63 347.28l48.71 0l0 15.09l-48.71 0Z" id="p127w126" />
<path d="M455.95 347.28l22.31 0l0 15.09l-22.31 0Z" id="p127w127" />
<path d="M481.87 347.28l48.97 0l0 15.09l-48.97 0Z" id="p127w128" />
<path d="M534.45 347.28l14.86 0l0 15.09l-14.86 0Z" id="p127w129" />
<path d="M552.92 347.28l14.59 0l0 15.09l-14.59 0Z" id="p127w130" />
<path d="M571.12 347.28l19.46 0l0 15.09l-19.46 0Z" id="p127w131" />
<path d="M594.19 347.28l43.88 0l0 15.09l-43.88 0Z" id="p127w132" />
<path d="M124.06 363.95l13.91 0l0 15.09l-13.91 0Z" id="p127w133" />
<path d="M141.58 363.95l49.15 0l0 15.09l-49.15 0Z" id="p127w134" />
<path d="M194.34 363.95l25.69 0l0 15.09l-25.69 0Z" id="p127w135" />
<path d="M223.64 363.95l13.91 0l0 15.09l-13.91 0Z" id="p127w136" />
<path d="M241.16 363.95l37.71 0l0 15.09l-37.71 0Z" id="p127w137" />
<path d="M282.47 363.95l13.91 0l0 15.09l-13.91 0Z" id="p127w138" />
<path d="M299.99 363.95l39.76 0l0 15.09l-39.76 0Z" id="p127w139" />
<path d="M124.06 622.38l40.78 0l0 15.09l-40.78 0Z" id="p127w140" />
<path d="M168.45 622.38l19.01 0l0 15.09l-19.01 0Z" id="p127w141" />
<path d="M191.07 622.38l61.42 0l0 15.09l-61.42 0Z" id="p127w142" />
<path d="M266.2 622.38l10.42 0l0 15.09l-10.42 0Z" id="p127w143" />
<path d="M280.24 622.38l61.2 0l0 15.09l-61.2 0Z" id="p127w144" />
<path d="M345.05 622.38l13.91 0l0 15.09l-13.91 0Z" id="p127w145" />
<path d="M362.57 622.38l102.52 0l0 15.09l-102.52 0Z" id="p127w146" />
<path d="M468.7 622.38l55.39 0l0 15.09l-55.39 0Z" id="p127w147" />
<path d="M527.7 622.38l38.5 0l0 15.09l-38.5 0Z" id="p127w148" />
<path d="M569.82 622.38l62.23 0l0 15.09l-62.23 0Z" id="p127w149" />
<path d="M124.06 639.05l22.31 0l0 15.09l-22.31 0Z" id="p127w150" />
<path d="M149.98 639.05l29.5 0l0 15.09l-29.5 0Z" id="p127w151" />
<path d="M183.09 639.05l27.82 0l0 15.09l-27.82 0Z" id="p127w152" />
<path d="M214.53 639.05l37.18 0l0 15.09l-37.18 0Z" id="p127w153" />
<path d="M265.42 639.05l29.46 0l0 15.09l-29.46 0Z" id="p127w154" />
<path d="M298.49 639.05l19.29 0l0 15.09l-19.29 0Z" id="p127w155" />
<path d="M321.39 639.05l35.48 0l0 15.09l-35.48 0Z" id="p127w156" />
<path d="M360.49 639.05l39.4 0l0 15.09l-39.4 0Z" id="p127w157" />
<path d="M403.5 639.05l27.08 0l0 15.09l-27.08 0Z" id="p127w158" />
<path d="M434.19 639.05l46.52 0l0 15.09l-46.52 0Z" id="p127w159" />
<path d="M484.33 639.05l39.89 0l0 15.09l-39.89 0Z" id="p127w160" />
<path d="M124.06 666.16l30.29 0l0 12.29l-30.29 0Z" id="p127w161" />
<path d="M163.59 664.1l18.02 0l0 15.09l-18.02 0Z" id="p127w162" />
<path d="M185.22 664.1l48.93 0l0 15.09l-48.93 0Z" id="p127w163" />
<path d="M237.75 664.1l35.34 0l0 15.09l-35.34 0Z" id="p127w164" />
<path d="M276.71 664.1l13.91 0l0 15.09l-13.91 0Z" id="p127w165" />
<path d="M320.44 664.1l29.6 0l0 15.09l-29.6 0Z" id="p127w166" />
<path d="M372.21 664.1l10.42 0l0 15.09l-10.42 0Z" id="p127w167" />
<path d="M386.25 664.1l25.32 0l0 15.09l-25.32 0Z" id="p127w168" />
<path d="M415.18 664.1l11.26 0l0 15.09l-11.26 0Z" id="p127w169" />
<path d="M430.05 664.1l17.93 0l0 15.09l-17.93 0Z" id="p127w170" />
<path d="M451.58 664.1l24.24 0l0 15.09l-24.24 0Z" id="p127w171" />
<path d="M479.44 664.1l13.91 0l0 15.09l-13.91 0Z" id="p127w172" />
<path d="M496.95 664.1l28.27 0l0 15.09l-28.27 0Z" id="p127w173" />
<path d="M528.84 664.1l17.83 0l0 15.09l-17.83 0Z" id="p127w174" />
<path d="M550.28 664.1l56.64 0l0 15.09l-56.64 0Z" id="p127w175" />
<path d="M162.09 680.77l29.6 0l0 15.09l-29.6 0Z" id="p127w176" />
<path d="M203.76 680.77l16.64 0l0 15.09l-16.64 0Z" id="p127w177" />
<path d="M224.02 680.77l22.31 0l0 15.09l-22.31 0Z" id="p127w178" />
<path d="M249.94 680.77l29.5 0l0 15.09l-29.5 0Z" id="p127w179" />
<path d="M283.04 680.77l19.01 0l0 15.09l-19.01 0Z" id="p127w180" />
<path d="M305.66 680.77l14.59 0l0 15.09l-14.59 0Z" id="p127w181" />
<path d="M323.86 680.77l18.6 0l0 15.09l-18.6 0Z" id="p127w182" />
<path d="M354.51 680.77l50.07 0l0 15.09l-50.07 0Z" id="p127w183" />
<path d="M416.65 680.77l23.02 0l0 15.09l-23.02 0Z" id="p127w184" />
<path d="M443.28 680.77l27.81 0l0 15.09l-27.81 0Z" id="p127w185" />
<path d="M474.71 680.77l18.6 0l0 15.09l-18.6 0Z" id="p127w186" />
<path d="M496.91 680.77l43.83 0l0 15.09l-43.83 0Z" id="p127w187" />
<path d="M544.35 680.77l21.67 0l0 15.09l-21.67 0Z" id="p127w188" />
<path d="M569.63 680.77l55.71 0l0 15.09l-55.71 0Z" id="p127w189" />
<path d="M135.88 697.43l14.21 0l0 15.09l-14.21 0Z" id="p127w190" />
<path d="M153.7 697.43l60.22 0l0 15.09l-60.22 0Z" id="p127w191" />
<path d="M217.54 697.43l26.3 0l0 15.09l-26.3 0Z" id="p127w192" />
<path d="M247.44 697.43l50.44 0l0 15.09l-50.44 0Z" id="p127w193" />
<path d="M301.5 697.43l56.97 0l0 15.09l-56.97 0Z" id="p127w194" />
<path d="M362.08 697.43l13.91 0l0 15.09l-13.91 0Z" id="p127w195" />
<path d="M379.6 697.43l26.86 0l0 15.09l-26.86 0Z" id="p127w196" />
<path d="M410.07 697.43l64.05 0l0 15.09l-64.05 0Z" id="p127w197" />
<path d="M477.74 697.43l26.89 0l0 15.09l-26.89 0Z" id="p127w198" />
<path d="M508.24 697.43l47.27 0l0 15.09l-47.27 0Z" id="p127w199" />
<path d="M559.12 697.43l36.82 0l0 15.09l-36.82 0Z" id="p127w200" />
<path d="M599.55 697.43l27.81 0l0 15.09l-27.81 0Z" id="p127w201" />
<path d="M630.97 697.43l13.22 0l0 15.09l-13.22 0Z" id="p127w202" />
<path d="M135.88 714.1l14.59 0l0 15.09l-14.59 0Z" id="p127w203" />
<path d="M154.08 714.1l37.69 0l0 15.09l-37.69 0Z" id="p127w204" />
<path d="M195.38 714.1l19.46 0l0 15.09l-19.46 0Z" id="p127w205" />
<path d="M218.45 714.1l14.86 0l0 15.09l-14.86 0Z" id="p127w206" />
<path d="M236.92 714.1l72.43 0l0 15.09l-72.43 0Z" id="p127w207" />
<path d="M312.96 714.1l27.61 0l0 15.09l-27.61 0Z" id="p127w208" />
<path d="M344.18 714.1l18.04 0l0 15.09l-18.04 0Z" id="p127w209" />
<path d="M365.84 714.1l31.06 0l0 15.09l-31.06 0Z" id="p127w210" />
<path d="M400.51 714.1l7.84 0l0 15.09l-7.84 0Z" id="p127w211" />
<path d="M411.96 714.1l23.44 0l0 15.09l-23.44 0Z" id="p127w212" />
<path d="M439.02 714.1l21.67 0l0 15.09l-21.67 0Z" id="p127w213" />
<path d="M464.3 714.1l10.54 0l0 15.09l-10.54 0Z" id="p127w214" />
<path d="M478.45 714.1l21.81 0l0 15.09l-21.81 0Z" id="p127w215" />
<path d="M503.87 714.1l53.76 0l0 15.09l-53.76 0Z" id="p127w216" />
<path d="M561.24 714.1l37.58 0l0 15.09l-37.58 0Z" id="p127w217" />
<path d="M602.43 714.1l12.22 0l0 15.09l-12.22 0Z" id="p127w218" />
<path d="M618.26 714.1l28.16 0l0 15.09l-28.16 0Z" id="p127w219" />
<path d="M135.88 730.77l26.3 0l0 15.09l-26.3 0Z" id="p127w220" />
<path d="M165.78 730.77l43.85 0l0 15.09l-43.85 0Z" id="p127w221" />
<path d="M213.25 730.77l15.74 0l0 15.09l-15.74 0Z" id="p127w222" />
<path d="M232.6 730.77l21.82 0l0 15.09l-21.82 0Z" id="p127w223" />
<path d="M258.03 730.77l11.26 0l0 15.09l-11.26 0Z" id="p127w224" />
<path d="M272.9 730.77l16.14 0l0 15.09l-16.14 0Z" id="p127w225" />
<path d="M292.66 730.77l12.58 0l0 15.09l-12.58 0Z" id="p127w226" />
<path d="M308.85 730.77l18.6 0l0 15.09l-18.6 0Z" id="p127w227" />
<path d="M331.06 730.77l26.6 0l0 15.09l-26.6 0Z" id="p127w228" />
<path d="M361.27 730.77l59.86 0l0 15.09l-59.86 0Z" id="p127w229" />
<path d="M424.75 730.77l17.38 0l0 15.09l-17.38 0Z" id="p127w230" />
<path d="M445.74 730.77l26.56 0l0 15.09l-26.56 0Z" id="p127w231" />
<path d="M475.91 730.77l26.89 0l0 15.09l-26.89 0Z" id="p127w232" />
<path d="M506.41 730.77l15.89 0l0 15.09l-15.89 0Z" id="p127w233" />
<path d="M525.91 730.77l27.5 0l0 15.09l-27.5 0Z" id="p127w234" />
<path d="M557.02 730.77l14.86 0l0 15.09l-14.86 0Z" id="p127w235" />
<path d="M575.49 730.77l15.15 0l0 15.09l-15.15 0Z" id="p127w236" />
<path d="M594.25 730.77l25.65 0l0 15.09l-25.65 0Z" id="p127w237" />
<path d="M623.52 730.77l11.26 0l0 15.09l-11.26 0Z" id="p127w238" />
<path d="M135.88 747.44l36.95 0l0 15.09l-36.95 0Z" id="p127w239" />
<path d="M176.44 747.44l15.15 0l0 15.09l-15.15 0Z" id="p127w240" />
<path d="M195.2 747.44l28.81 0l0 15.09l-28.81 0Z" id="p127w241" />
<path d="M124.07 772.45l31.13 0l0 15.09l-31.13 0Z" id="p127w242" />
<path d="M168.91 772.45l34.12 0l0 15.09l-34.12 0Z" id="p127w243" />
<path d="M216.74 772.45l24.24 0l0 15.09l-24.24 0Z" id="p127w244" />
<path d="M251.72 772.45l7.84 0l0 15.09l-7.84 0Z" id="p127w245" />
<path d="M283.58 772.45l37.19 0l0 15.09l-37.19 0Z" id="p127w246" />
<path d="M324.39 772.45l15.74 0l0 15.09l-15.74 0Z" id="p127w247" />
<path d="M343.74 772.45l28.18 0l0 15.09l-28.18 0Z" id="p127w248" />
<path d="M375.14 772.45l34.08 0l0 15.09l-34.08 0Z" id="p127w249" />
<path d="M416 772.45l10.71 0l0 15.09l-10.71 0Z" id="p127w250" />
<path d="M430.32 772.45l67.9 0l0 15.09l-67.9 0Z" id="p127w251" />
<path d="M501.82 772.45l11.95 0l0 15.09l-11.95 0Z" id="p127w252" />
<path d="M517.39 772.45l63.75 0l0 15.09l-63.75 0Z" id="p127w253" />
<path d="M124.07 789.12l7.84 0l0 15.09l-7.84 0Z" id="p127w254" />
<path d="M135.52 789.12l26.56 0l0 15.09l-26.56 0Z" id="p127w255" />
<path d="M165.69 789.12l44.11 0l0 15.09l-44.11 0Z" id="p127w256" />
<path d="M213.41 789.12l11.26 0l0 15.09l-11.26 0Z" id="p127w257" />
<path d="M228.28 789.12l32.05 0l0 15.09l-32.05 0Z" id="p127w258" />
<path d="M263.95 789.12l71.86 0l0 15.09l-71.86 0Z" id="p127w259" />
<path d="M339.41 789.12l17.34 0l0 15.09l-17.34 0Z" id="p127w260" />
<path d="M360.36 789.12l56.19 0l0 15.09l-56.19 0Z" id="p127w261" />
<path d="M430.26 789.12l31.13 0l0 15.09l-31.13 0Z" id="p127w262" />
<path d="M465 789.12l19.01 0l0 15.09l-19.01 0Z" id="p127w263" />
<path d="M487.62 789.12l46.18 0l0 15.09l-46.18 0Z" id="p127w264" />
<path d="M537.41 789.12l13.91 0l0 15.09l-13.91 0Z" id="p127w265" />
<path d="M554.93 789.12l10.5 0l0 15.09l-10.5 0Z" id="p127w266" />
<path d="M569.04 789.12l60.85 0l0 15.09l-60.85 0Z" id="p127w267" />
<path d="M124.07 805.79l60.22 0l0 15.09l-60.22 0Z" id="p127w268" />
<path d="M187.9 805.79l19.46 0l0 15.09l-19.46 0Z" id="p127w269" />
<path d="M210.97 805.79l54.02 0l0 15.09l-54.02 0Z" id="p127w270" />
<path d="M278.7 805.79l24.37 0l0 15.09l-24.37 0Z" id="p127w271" />
<path d="M306.68 805.79l36.11 0l0 15.09l-36.11 0Z" id="p127w272" />
<path d="M346.4 805.79l10.5 0l0 15.09l-10.5 0Z" id="p127w273" />
<path d="M360.52 805.79l28.18 0l0 15.09l-28.18 0Z" id="p127w274" />
<path d="M391.91 805.79l34.08 0l0 15.09l-34.08 0Z" id="p127w275" />
<path d="M124.06 832.88l45.06 0l0 12.29l-45.06 0Z" id="p127w276" />
<path d="M178.36 830.82l18.46 0l0 15.09l-18.46 0Z" id="p127w277" />
<path d="M200.42 830.82l52.81 0l0 15.09l-52.81 0Z" id="p127w278" />
<path d="M256.84 830.82l27.5 0l0 15.09l-27.5 0Z" id="p127w279" />
<path d="M287.96 830.82l40.93 0l0 15.09l-40.93 0Z" id="p127w280" />
<path d="M332.5 830.82l40.07 0l0 15.09l-40.07 0Z" id="p127w281" />
<path d="M376.19 830.82l50.05 0l0 15.09l-50.05 0Z" id="p127w282" />
<path d="M429.84 830.82l22.12 0l0 15.09l-22.12 0Z" id="p127w283" />
<path d="M473.4 830.82l19.46 0l0 15.09l-19.46 0Z" id="p127w284" />
<path d="M496.47 830.82l13.91 0l0 15.09l-13.91 0Z" id="p127w285" />
<path d="M513.99 830.82l38.99 0l0 15.09l-38.99 0Z" id="p127w286" />
<path d="M556.59 830.82l48.71 0l0 15.09l-48.71 0Z" id="p127w287" />
<path d="M608.91 830.82l22.31 0l0 15.09l-22.31 0Z" id="p127w288" />
<path d="M135.88 847.49l48.97 0l0 15.09l-48.97 0Z" id="p127w289" />
<path d="M195.41 847.49l63.4 0l0 15.09l-63.4 0Z" id="p127w290" />
<path d="M262.42 847.49l27.82 0l0 15.09l-27.82 0Z" id="p127w291" />
<path d="M293.86 847.49l23.07 0l0 15.09l-23.07 0Z" id="p127w292" />
<path d="M320.54 847.49l19.01 0l0 15.09l-19.01 0Z" id="p127w293" />
<path d="M343.16 847.49l32.91 0l0 15.09l-32.91 0Z" id="p127w294" />
<path d="M379.68 847.49l10.42 0l0 15.09l-10.42 0Z" id="p127w295" />
<path d="M393.72 847.49l42.15 0l0 15.09l-42.15 0Z" id="p127w296" />
<path d="M439.48 847.49l16.13 0l0 15.09l-16.13 0Z" id="p127w297" />
<path d="M459.22 847.49l62.7 0l0 15.09l-62.7 0Z" id="p127w298" />
<path d="M525.54 847.49l31.13 0l0 15.09l-31.13 0Z" id="p127w299" />
<path d="M560.28 847.49l22.08 0l0 15.09l-22.08 0Z" id="p127w300" />
<path d="M585.97 847.49l50.87 0l0 15.09l-50.87 0Z" id="p127w301" />
<path d="M135.88 864.16l21.67 0l0 15.09l-21.67 0Z" id="p127w302" />
<path d="M161.16 864.16l10.42 0l0 15.09l-10.42 0Z" id="p127w303" />
<path d="M175.2 864.16l65.01 0l0 15.09l-65.01 0Z" id="p127w304" />
<path d="M243.81 864.16l13.91 0l0 15.09l-13.91 0Z" id="p127w305" />
<path d="M261.33 864.16l38.99 0l0 15.09l-38.99 0Z" id="p127w306" />
<path d="M303.93 864.16l26.35 0l0 15.09l-26.35 0Z" id="p127w307" />
<path d="M333.89 864.16l66.93 0l0 15.09l-66.93 0Z" id="p127w308" />
<path d="M404.44 864.16l27.82 0l0 15.09l-27.82 0Z" id="p127w309" />
<path d="M435.87 864.16l98.96 0l0 15.09l-98.96 0Z" id="p127w310" />
<path d="M538.44 864.16l11.26 0l0 15.09l-11.26 0Z" id="p127w311" />
<path d="M553.31 864.16l22.08 0l0 15.09l-22.08 0Z" id="p127w312" />
<path d="M579 864.16l42.32 0l0 15.09l-42.32 0Z" id="p127w313" />
<path d="M135.88 880.83l10.54 0l0 15.09l-10.54 0Z" id="p127w314" />
<path d="M150.03 880.83l14.59 0l0 15.09l-14.59 0Z" id="p127w315" />
<path d="M168.23 880.83l36.36 0l0 15.09l-36.36 0Z" id="p127w316" />
<path d="M208.2 880.83l19.46 0l0 15.09l-19.46 0Z" id="p127w317" />
<path d="M231.27 880.83l40.47 0l0 15.09l-40.47 0Z" id="p127w318" />
<path d="M275.35 880.83l13.91 0l0 15.09l-13.91 0Z" id="p127w319" />
<path d="M292.87 880.83l45.38 0l0 15.09l-45.38 0Z" id="p127w320" />
<path d="M341.86 880.83l13.91 0l0 15.09l-13.91 0Z" id="p127w321" />
<path d="M359.38 880.83l10.42 0l0 15.09l-10.42 0Z" id="p127w322" />
<path d="M373.41 880.83l38.99 0l0 15.09l-38.99 0Z" id="p127w323" />
<path d="M416.02 880.83l27.82 0l0 15.09l-27.82 0Z" id="p127w324" />
<path d="M447.45 880.83l52.71 0l0 15.09l-52.71 0Z" id="p127w325" />
<path d="M503.77 880.83l27.81 0l0 15.09l-27.81 0Z" id="p127w326" />
<path d="M535.19 880.83l28.34 0l0 15.09l-28.34 0Z" id="p127w327" />
<path d="M567.14 880.83l42.35 0l0 15.09l-42.35 0Z" id="p127w328" />
<path d="M135.88 897.5l25.49 0l0 15.09l-25.49 0Z" id="p127w329" />
<path d="M164.98 897.5l45.38 0l0 15.09l-45.38 0Z" id="p127w330" />
<path d="M213.97 897.5l39.64 0l0 15.09l-39.64 0Z" id="p127w331" />
<path d="M257.22 897.5l34.65 0l0 15.09l-34.65 0Z" id="p127w332" />
<path d="M295.48 897.5l10.63 0l0 15.09l-10.63 0Z" id="p127w333" />
<path d="M309.72 897.5l21.98 0l0 15.09l-21.98 0Z" id="p127w334" />
<path d="M335.31 897.5l19.46 0l0 15.09l-19.46 0Z" id="p127w335" />
<path d="M358.37 897.5l34.35 0l0 15.09l-34.35 0Z" id="p127w336" />
<path d="M406.44 897.5l40.47 0l0 15.09l-40.47 0Z" id="p127w337" />
<path d="M450.52 897.5l48.71 0l0 15.09l-48.71 0Z" id="p127w338" />
<path d="M502.84 897.5l22.31 0l0 15.09l-22.31 0Z" id="p127w339" />
<path d="M528.77 897.5l52.53 0l0 15.09l-52.53 0Z" id="p127w340" />
<path d="M584.9 897.5l27.81 0l0 15.09l-27.81 0Z" id="p127w341" />
<path d="M135.88 914.17l72.49 0l0 15.09l-72.49 0Z" id="p127w342" />
<path d="M211.98 914.17l10.54 0l0 15.09l-10.54 0Z" id="p127w343" />
<path d="M226.13 914.17l40 0l0 15.09l-40 0Z" id="p127w344" />
<path d="M269.74 914.17l13.91 0l0 15.09l-13.91 0Z" id="p127w345" />
<path d="M287.25 914.17l10.42 0l0 15.09l-10.42 0Z" id="p127w346" />
<path d="M301.29 914.17l38.99 0l0 15.09l-38.99 0Z" id="p127w347" />
<path d="M343.89 914.17l61.48 0l0 15.09l-61.48 0Z" id="p127w348" />
<path d="M408.99 914.17l28.84 0l0 15.09l-28.84 0Z" id="p127w349" />
<path d="M451.54 914.17l26.5 0l0 15.09l-26.5 0Z" id="p127w350" />
<path d="M481.65 914.17l20.96 0l0 15.09l-20.96 0Z" id="p127w351" />
<path d="M506.22 914.17l19.46 0l0 15.09l-19.46 0Z" id="p127w352" />
<path d="M529.29 914.17l52.13 0l0 15.09l-52.13 0Z" id="p127w353" />
<path d="M48.8 113.13l25.45 0l0 12.3l-25.45 0Z" id="p127w354" />
<path d="M68.27 39.02l42.02 0l0 15.38l-42.02 0Z" id="p127w355" />
<path d="M152.94 39.02l43.21 0l0 15.38l-43.21 0Z" id="p127w356" />
<path d="M251.4 38.6l45.06 0l0 16.09l-45.06 0Z" id="p127w357" />
<path d="M358.93 39.02l28.68 0l0 15.38l-28.68 0Z" id="p127w358" />
<path d="M390.98 39.02l44.38 0l0 15.38l-44.38 0Z" id="p127w359" />
<path d="M468.42 39.02l32.54 0l0 15.38l-32.54 0Z" id="p127w360" />
<path d="M620.83 983l70.27 0l0 12.23l-70.27 0Z" id="p127w361" />
</svg>
