<?xml version="1.0" encoding="UTF-8"?>
<svg xmlns="http://www.w3.org/2000/svg" xmlns:xlink="http://www.w3.org/1999/xlink" version="1.1" baseProfile="full" width="768" height="1024" viewBox="0,0,768,1024" preserveAspectRatio="xMinYMin meet" >
<style type="text/css">
<![CDATA[
path {fill-opacity: 0.5;fill: #00aeef;visibility: hidden;}
]]>
</style>
<path d="M153.37 115.95l40.1 0l0 12.29l-40.1 0Z" id="p109w1" />
<path d="M202.7 113.89l26.37 0l0 15.09l-26.37 0Z" id="p109w2" />
<path d="M232.69 113.89l79.41 0l0 15.09l-79.41 0Z" id="p109w3" />
<path d="M315.71 113.89l23.12 0l0 15.09l-23.12 0Z" id="p109w4" />
<path d="M342.44 113.89l27.23 0l0 15.09l-27.23 0Z" id="p109w5" />
<path d="M373.29 113.89l25.6 0l0 15.09l-25.6 0Z" id="p109w6" />
<path d="M402.5 113.89l42.41 0l0 15.09l-42.41 0Z" id="p109w7" />
<path d="M448.52 113.89l32.52 0l0 15.09l-32.52 0Z" id="p109w8" />
<path d="M484.65 113.89l21.67 0l0 15.09l-21.67 0Z" id="p109w9" />
<path d="M509.93 113.89l12.41 0l0 15.09l-12.41 0Z" id="p109w10" />
<path d="M525.96 113.89l50.16 0l0 15.09l-50.16 0Z" id="p109w11" />
<path d="M579.73 113.89l26.89 0l0 15.09l-26.89 0Z" id="p109w12" />
<path d="M610.23 113.89l19.84 0l0 15.09l-19.84 0Z" id="p109w13" />
<path d="M633.68 113.89l30.02 0l0 15.09l-30.02 0Z" id="p109w14" />
<path d="M124.06 132.63l16.46 0l0 12.29l-16.46 0Z" id="p109w15" />
<path d="M149.76 130.57l18.02 0l0 15.09l-18.02 0Z" id="p109w16" />
<path d="M171.39 130.57l53.59 0l0 15.09l-53.59 0Z" id="p109w17" />
<path d="M228.59 130.57l33.33 0l0 15.09l-33.33 0Z" id="p109w18" />
<path d="M265.53 130.57l27.81 0l0 15.09l-27.81 0Z" id="p109w19" />
<path d="M296.95 130.57l14.59 0l0 15.09l-14.59 0Z" id="p109w20" />
<path d="M315.15 130.57l23.18 0l0 15.09l-23.18 0Z" id="p109w21" />
<path d="M341.95 130.57l10.54 0l0 15.09l-10.54 0Z" id="p109w22" />
<path d="M356.1 130.57l27.9 0l0 15.09l-27.9 0Z" id="p109w23" />
<path d="M387.61 130.57l21.67 0l0 15.09l-21.67 0Z" id="p109w24" />
<path d="M412.89 130.57l26.3 0l0 15.09l-26.3 0Z" id="p109w25" />
<path d="M442.8 130.57l64.26 0l0 15.09l-64.26 0Z" id="p109w26" />
<path d="M510.67 130.57l19.01 0l0 15.09l-19.01 0Z" id="p109w27" />
<path d="M533.29 130.57l68.06 0l0 15.09l-68.06 0Z" id="p109w28" />
<path d="M604.96 130.57l10.5 0l0 15.09l-10.5 0Z" id="p109w29" />
<path d="M619.07 130.57l27.79 0l0 15.09l-27.79 0Z" id="p109w30" />
<path d="M138.77 149.3l40.1 0l0 12.29l-40.1 0Z" id="p109w31" />
<path d="M188.11 147.24l66.19 0l0 15.09l-66.19 0Z" id="p109w32" />
<path d="M266.99 147.24l28.72 0l0 15.09l-28.72 0Z" id="p109w33" />
<path d="M299.33 147.24l49.27 0l0 15.09l-49.27 0Z" id="p109w34" />
<path d="M352.21 147.24l12.41 0l0 15.09l-12.41 0Z" id="p109w35" />
<path d="M368.24 147.24l24.33 0l0 15.09l-24.33 0Z" id="p109w36" />
<path d="M124.06 165.97l16.46 0l0 12.29l-16.46 0Z" id="p109w37" />
<path d="M149.76 163.91l24.55 0l0 15.09l-24.55 0Z" id="p109w38" />
<path d="M177.92 163.91l10.54 0l0 15.09l-10.54 0Z" id="p109w39" />
<path d="M192.07 163.91l24.73 0l0 15.09l-24.73 0Z" id="p109w40" />
<path d="M220.41 163.91l27.81 0l0 15.09l-27.81 0Z" id="p109w41" />
<path d="M251.83 163.91l36.53 0l0 15.09l-36.53 0Z" id="p109w42" />
<path d="M291.97 163.91l10.5 0l0 15.09l-10.5 0Z" id="p109w43" />
<path d="M306.08 163.91l43.21 0l0 15.09l-43.21 0Z" id="p109w44" />
<path d="M352.9 163.91l25.69 0l0 15.09l-25.69 0Z" id="p109w45" />
<path d="M382.2 163.91l15.89 0l0 15.09l-15.89 0Z" id="p109w46" />
<path d="M401.7 163.91l26.86 0l0 15.09l-26.86 0Z" id="p109w47" />
<path d="M432.17 163.91l11.26 0l0 15.09l-11.26 0Z" id="p109w48" />
<path d="M447.04 163.91l10.54 0l0 15.09l-10.54 0Z" id="p109w49" />
<path d="M461.19 163.91l38.17 0l0 15.09l-38.17 0Z" id="p109w50" />
<path d="M502.97 163.91l21.67 0l0 15.09l-21.67 0Z" id="p109w51" />
<path d="M528.25 163.91l26.3 0l0 15.09l-26.3 0Z" id="p109w52" />
<path d="M558.16 163.91l22.03 0l0 15.09l-22.03 0Z" id="p109w53" />
<path d="M583.79 163.91l32.18 0l0 15.09l-32.18 0Z" id="p109w54" />
<path d="M124.06 182.64l24.42 0l0 12.29l-24.42 0Z" id="p109w55" />
<path d="M151.18 182.64l40.1 0l0 12.29l-40.1 0Z" id="p109w56" />
<path d="M199.61 180.58l14.52 0l0 15.09l-14.52 0Z" id="p109w57" />
<path d="M217.74 180.58l14.59 0l0 15.09l-14.59 0Z" id="p109w58" />
<path d="M235.94 180.58l50.03 0l0 15.09l-50.03 0Z" id="p109w59" />
<path d="M289.59 180.58l19.46 0l0 15.09l-19.46 0Z" id="p109w60" />
<path d="M312.66 180.58l35.75 0l0 15.09l-35.75 0Z" id="p109w61" />
<path d="M352.02 180.58l26.89 0l0 15.09l-26.89 0Z" id="p109w62" />
<path d="M382.52 180.58l19.84 0l0 15.09l-19.84 0Z" id="p109w63" />
<path d="M405.97 180.58l30.02 0l0 15.09l-30.02 0Z" id="p109w64" />
<path d="M439.61 180.58l27.23 0l0 15.09l-27.23 0Z" id="p109w65" />
<path d="M470.45 180.58l22.31 0l0 15.09l-22.31 0Z" id="p109w66" />
<path d="M496.38 180.58l38.79 0l0 15.09l-38.79 0Z" id="p109w67" />
<path d="M135.88 197.25l10.63 0l0 15.09l-10.63 0Z" id="p109w68" />
<path d="M150.12 197.25l34.12 0l0 15.09l-34.12 0Z" id="p109w69" />
<path d="M187.85 197.25l21.67 0l0 15.09l-21.67 0Z" id="p109w70" />
<path d="M213.13 197.25l12.58 0l0 15.09l-12.58 0Z" id="p109w71" />
<path d="M229.32 197.25l32.63 0l0 15.09l-32.63 0Z" id="p109w72" />
<path d="M265.57 197.25l29.05 0l0 15.09l-29.05 0Z" id="p109w73" />
<path d="M124.06 215.99l16.46 0l0 12.29l-16.46 0Z" id="p109w74" />
<path d="M148.85 213.93l16.23 0l0 15.09l-16.23 0Z" id="p109w75" />
<path d="M168.69 213.93l26.73 0l0 15.09l-26.73 0Z" id="p109w76" />
<path d="M199.03 213.93l31.13 0l0 15.09l-31.13 0Z" id="p109w77" />
<path d="M233.77 213.93l18.6 0l0 15.09l-18.6 0Z" id="p109w78" />
<path d="M255.98 213.93l37.23 0l0 15.09l-37.23 0Z" id="p109w79" />
<path d="M296.83 213.93l24.37 0l0 15.09l-24.37 0Z" id="p109w80" />
<path d="M324.8 213.93l49.75 0l0 15.09l-49.75 0Z" id="p109w81" />
<path d="M378.17 213.93l28.33 0l0 15.09l-28.33 0Z" id="p109w82" />
<path d="M135.88 230.6l31.13 0l0 15.09l-31.13 0Z" id="p109w83" />
<path d="M170.62 230.6l54.27 0l0 15.09l-54.27 0Z" id="p109w84" />
<path d="M228.5 230.6l19.46 0l0 15.09l-19.46 0Z" id="p109w85" />
<path d="M272.91 230.6l23.17 0l0 15.09l-23.17 0Z" id="p109w86" />
<path d="M299.69 230.6l37.14 0l0 15.09l-37.14 0Z" id="p109w87" />
<path d="M124.06 249.34l24.09 0l0 12.29l-24.09 0Z" id="p109w88" />
<path d="M157.38 247.28l65.75 0l0 15.09l-65.75 0Z" id="p109w89" />
<path d="M226.75 247.28l17.93 0l0 15.09l-17.93 0Z" id="p109w90" />
<path d="M248.29 247.28l24.62 0l0 15.09l-24.62 0Z" id="p109w91" />
<path d="M276.52 247.28l28.84 0l0 15.09l-28.84 0Z" id="p109w92" />
<path d="M308.97 247.28l19.89 0l0 15.09l-19.89 0Z" id="p109w93" />
<path d="M138.77 266.01l40.1 0l0 12.29l-40.1 0Z" id="p109w94" />
<path d="M188.11 263.95l16.15 0l0 15.09l-16.15 0Z" id="p109w95" />
<path d="M207.87 263.95l16.63 0l0 15.09l-16.63 0Z" id="p109w96" />
<path d="M228.11 263.95l19.46 0l0 15.09l-19.46 0Z" id="p109w97" />
<path d="M251.18 263.95l23.17 0l0 15.09l-23.17 0Z" id="p109w98" />
<path d="M277.97 263.95l24.24 0l0 15.09l-24.24 0Z" id="p109w99" />
<path d="M305.82 263.95l13.91 0l0 15.09l-13.91 0Z" id="p109w100" />
<path d="M323.33 263.95l31.83 0l0 15.09l-31.83 0Z" id="p109w101" />
<path d="M135.88 280.62l59.9 0l0 15.09l-59.9 0Z" id="p109w102" />
<path d="M199.39 280.62l14.21 0l0 15.09l-14.21 0Z" id="p109w103" />
<path d="M217.22 280.62l36.47 0l0 15.09l-36.47 0Z" id="p109w104" />
<path d="M257.3 280.62l28.84 0l0 15.09l-28.84 0Z" id="p109w105" />
<path d="M289.75 280.62l48.32 0l0 15.09l-48.32 0Z" id="p109w106" />
<path d="M124.06 299.35l16.46 0l0 12.29l-16.46 0Z" id="p109w107" />
<path d="M149.76 297.29l27.08 0l0 15.09l-27.08 0Z" id="p109w108" />
<path d="M180.45 297.29l26.73 0l0 15.09l-26.73 0Z" id="p109w109" />
<path d="M210.79 297.29l26.3 0l0 15.09l-26.3 0Z" id="p109w110" />
<path d="M240.7 297.29l19.68 0l0 15.09l-19.68 0Z" id="p109w111" />
<path d="M263.99 297.29l43.85 0l0 15.09l-43.85 0Z" id="p109w112" />
<path d="M311.45 297.29l24.38 0l0 15.09l-24.38 0Z" id="p109w113" />
<path d="M124.06 316.03l24.42 0l0 12.29l-24.42 0Z" id="p109w114" />
<path d="M151.18 316.03l40.1 0l0 12.29l-40.1 0Z" id="p109w115" />
<path d="M200.52 313.97l26.37 0l0 15.09l-26.37 0Z" id="p109w116" />
<path d="M230.5 313.97l26.1 0l0 15.09l-26.1 0Z" id="p109w117" />
<path d="M260.22 313.97l15.15 0l0 15.09l-15.15 0Z" id="p109w118" />
<path d="M289.08 313.97l51.07 0l0 15.09l-51.07 0Z" id="p109w119" />
<path d="M343.77 313.97l10.42 0l0 15.09l-10.42 0Z" id="p109w120" />
<path d="M357.8 313.97l42.35 0l0 15.09l-42.35 0Z" id="p109w121" />
<path d="M135.88 330.64l26.3 0l0 15.09l-26.3 0Z" id="p109w122" />
<path d="M165.78 330.64l19.46 0l0 15.09l-19.46 0Z" id="p109w123" />
<path d="M188.85 330.64l19.84 0l0 15.09l-19.84 0Z" id="p109w124" />
<path d="M212.31 330.64l27.45 0l0 15.09l-27.45 0Z" id="p109w125" />
<path d="M243.37 330.64l26.17 0l0 15.09l-26.17 0Z" id="p109w126" />
<path d="M273.15 330.64l43.93 0l0 15.09l-43.93 0Z" id="p109w127" />
<path d="M320.69 330.64l40.82 0l0 15.09l-40.82 0Z" id="p109w128" />
<path d="M135.88 347.3l12.99 0l0 15.09l-12.99 0Z" id="p109w129" />
<path d="M152.48 347.3l41.73 0l0 15.09l-41.73 0Z" id="p109w130" />
<path d="M197.82 347.3l13.91 0l0 15.09l-13.91 0Z" id="p109w131" />
<path d="M215.34 347.3l27.18 0l0 15.09l-27.18 0Z" id="p109w132" />
<path d="M246.13 347.3l48.84 0l0 15.09l-48.84 0Z" id="p109w133" />
<path d="M298.58 347.3l42.31 0l0 15.09l-42.31 0Z" id="p109w134" />
<path d="M344.5 347.3l16.64 0l0 15.09l-16.64 0Z" id="p109w135" />
<path d="M135.88 363.97l61.73 0l0 15.09l-61.73 0Z" id="p109w136" />
<path d="M201.22 363.97l10.63 0l0 15.09l-10.63 0Z" id="p109w137" />
<path d="M215.46 363.97l48.99 0l0 15.09l-48.99 0Z" id="p109w138" />
<path d="M268.06 363.97l15.56 0l0 15.09l-15.56 0Z" id="p109w139" />
<path d="M287.23 363.97l59.74 0l0 15.09l-59.74 0Z" id="p109w140" />
<path d="M350.58 363.97l13.91 0l0 15.09l-13.91 0Z" id="p109w141" />
<path d="M368.1 363.97l11.26 0l0 15.09l-11.26 0Z" id="p109w142" />
<path d="M135.88 380.64l46.85 0l0 15.09l-46.85 0Z" id="p109w143" />
<path d="M186.33 380.64l22.31 0l0 15.09l-22.31 0Z" id="p109w144" />
<path d="M212.25 380.64l48.97 0l0 15.09l-48.97 0Z" id="p109w145" />
<path d="M264.83 380.64l27.23 0l0 15.09l-27.23 0Z" id="p109w146" />
<path d="M295.68 380.64l20.54 0l0 15.09l-20.54 0Z" id="p109w147" />
<path d="M319.83 380.64l46.32 0l0 15.09l-46.32 0Z" id="p109w148" />
<path d="M124.06 399.39l16.46 0l0 12.29l-16.46 0Z" id="p109w149" />
<path d="M149.76 397.33l28.3 0l0 15.09l-28.3 0Z" id="p109w150" />
<path d="M181.67 397.33l10.54 0l0 15.09l-10.54 0Z" id="p109w151" />
<path d="M195.82 397.33l21.98 0l0 15.09l-21.98 0Z" id="p109w152" />
<path d="M221.41 397.33l19.46 0l0 15.09l-19.46 0Z" id="p109w153" />
<path d="M244.48 397.33l38.4 0l0 15.09l-38.4 0Z" id="p109w154" />
<path d="M286.49 397.33l13.91 0l0 15.09l-13.91 0Z" id="p109w155" />
<path d="M304.01 397.33l36.72 0l0 15.09l-36.72 0Z" id="p109w156" />
<path d="M351.29 397.33l36.73 0l0 15.09l-36.73 0ZM135.88 414l23.07 0l0 15.09l-23.07 0Z" id="p109w157" />
<path d="M162.56 414l15.74 0l0 15.09l-15.74 0Z" id="p109w158" />
<path d="M181.91 414l21.87 0l0 15.09l-21.87 0Z" id="p109w159" />
<path d="M207.4 414l60.19 0l0 15.09l-60.19 0Z" id="p109w160" />
<path d="M271.2 414l10.54 0l0 15.09l-10.54 0Z" id="p109w161" />
<path d="M285.35 414l22.45 0l0 15.09l-22.45 0Z" id="p109w162" />
<path d="M311.41 414l18.6 0l0 15.09l-18.6 0Z" id="p109w163" />
<path d="M333.62 414l67.78 0l0 15.09l-67.78 0Z" id="p109w164" />
<path d="M124.07 447.35l19.56 0l0 15.09l-19.56 0Z" id="p109w165" />
<path d="M147.24 447.35l16.64 0l0 15.09l-16.64 0Z" id="p109w166" />
<path d="M167.49 447.35l49.51 0l0 15.09l-49.51 0Z" id="p109w167" />
<path d="M220.61 447.35l21.96 0l0 15.09l-21.96 0Z" id="p109w168" />
<path d="M256.29 447.35l24.37 0l0 15.09l-24.37 0Z" id="p109w169" />
<path d="M284.27 447.35l14.29 0l0 15.09l-14.29 0Z" id="p109w170" />
<path d="M302.17 447.35l28.61 0l0 15.09l-28.61 0Z" id="p109w171" />
<path d="M334.39 447.35l60.28 0l0 15.09l-60.28 0Z" id="p109w172" />
<path d="M398.28 447.35l25.69 0l0 15.09l-25.69 0Z" id="p109w173" />
<path d="M427.58 447.35l17.34 0l0 15.09l-17.34 0Z" id="p109w174" />
<path d="M448.53 447.35l44.12 0l0 15.09l-44.12 0Z" id="p109w175" />
<path d="M503.39 447.35l13.22 0l0 15.09l-13.22 0Z" id="p109w176" />
<path d="M520.23 447.35l19.84 0l0 15.09l-19.84 0Z" id="p109w177" />
<path d="M543.68 447.35l23.27 0l0 15.09l-23.27 0Z" id="p109w178" />
<path d="M570.57 447.35l13.91 0l0 15.09l-13.91 0Z" id="p109w179" />
<path d="M588.09 447.35l39.51 0l0 15.09l-39.51 0Z" id="p109w180" />
<path d="M631.21 447.35l39.66 0l0 15.09l-39.66 0Z" id="p109w181" />
<path d="M124.07 464.02l28.22 0l0 15.09l-28.22 0Z" id="p109w182" />
<path d="M155.9 464.02l19.46 0l0 15.09l-19.46 0Z" id="p109w183" />
<path d="M178.97 464.02l44.54 0l0 15.09l-44.54 0Z" id="p109w184" />
<path d="M227.13 464.02l13.91 0l0 15.09l-13.91 0Z" id="p109w185" />
<path d="M244.64 464.02l43.56 0l0 15.09l-43.56 0Z" id="p109w186" />
<path d="M291.81 464.02l15.74 0l0 15.09l-15.74 0Z" id="p109w187" />
<path d="M311.17 464.02l30.02 0l0 15.09l-30.02 0Z" id="p109w188" />
<path d="M344.8 464.02l30.81 0l0 15.09l-30.81 0Z" id="p109w189" />
<path d="M379.22 464.02l33.34 0l0 15.09l-33.34 0Z" id="p109w190" />
<path d="M416.17 464.02l12.22 0l0 15.09l-12.22 0Z" id="p109w191" />
<path d="M432 464.02l55.28 0l0 15.09l-55.28 0Z" id="p109w192" />
<path d="M490.89 464.02l21 0l0 15.09l-21 0Z" id="p109w193" />
<path d="M525.6 464.02l15.74 0l0 15.09l-15.74 0Z" id="p109w194" />
<path d="M544.96 464.02l39.06 0l0 15.09l-39.06 0Z" id="p109w195" />
<path d="M124.06 508.13l34.63 0l0 18.84l-34.63 0Z" id="p109w196" />
<path d="M162.34 508.13l89.43 0l0 18.84l-89.43 0Z" id="p109w197" />
<path d="M255.42 508.13l13.62 0l0 18.84l-13.62 0Z" id="p109w198" />
<path d="M272.69 508.13l38.39 0l0 18.84l-38.39 0Z" id="p109w199" />
<path d="M123.71 539.34l42.53 0l0 14.52l-42.53 0Z" id="p109w200" />
<path d="M169.44 539.34l14.18 0l0 14.52l-14.18 0Z" id="p109w201" />
<path d="M186.82 539.34l23.51 0l0 14.52l-23.51 0Z" id="p109w202" />
<path d="M213.54 539.34l25.67 0l0 14.52l-25.67 0Z" id="p109w203" />
<path d="M242.42 539.34l40.64 0l0 14.52l-40.64 0Z" id="p109w204" />
<path d="M286.27 539.34l32.87 0l0 14.52l-32.87 0Z" id="p109w205" />
<path d="M322.34 539.34l14.18 0l0 14.52l-14.18 0Z" id="p109w206" />
<path d="M339.73 539.34l31.01 0l0 14.52l-31.01 0Z" id="p109w207" />
<path d="M123.71 572.68l50.53 0l0 14.52l-50.53 0Z" id="p109w208" />
<path d="M177.44 572.68l15.5 0l0 14.52l-15.5 0Z" id="p109w209" />
<path d="M196.14 572.68l43.29 0l0 14.52l-43.29 0Z" id="p109w210" />
<path d="M242.64 572.68l55.16 0l0 14.52l-55.16 0Z" id="p109w211" />
<path d="M301.01 572.68l40.63 0l0 14.52l-40.63 0Z" id="p109w212" />
<path d="M344.85 572.61l30.58 0l0 14.6l-30.58 0Z" id="p109w213" />
<path d="M378.64 572.61l20.96 0l0 14.6l-20.96 0Z" id="p109w214" />
<path d="M143.75 597.7l49.58 0l0 14.61l-49.58 0Z" id="p109w215" />
<path d="M196.54 597.7l47.31 0l0 14.61l-47.31 0Z" id="p109w216" />
<path d="M247.05 597.7l34.2 0l0 14.61l-34.2 0Z" id="p109w217" />
<path d="M284.46 597.7l22.82 0l0 14.61l-22.82 0Z" id="p109w218" />
<path d="M310.49 597.7l30.66 0l0 14.61l-30.66 0Z" id="p109w219" />
<path d="M344.36 597.7l35.99 0l0 14.61l-35.99 0Z" id="p109w220" />
<path d="M383.56 597.7l16.83 0l0 14.61l-16.83 0Z" id="p109w221" />
<path d="M143.75 614.37l26.39 0l0 14.61l-26.39 0Z" id="p109w222" />
<path d="M173.35 614.37l48.1 0l0 14.61l-48.1 0Z" id="p109w223" />
<path d="M224.65 614.37l30.75 0l0 14.61l-30.75 0Z" id="p109w224" />
<path d="M143.75 639.37l49.17 0l0 14.52l-49.17 0Z" id="p109w225" />
<path d="M196.13 639.37l47.31 0l0 14.52l-47.31 0Z" id="p109w226" />
<path d="M246.64 639.37l34.2 0l0 14.52l-34.2 0Z" id="p109w227" />
<path d="M284.05 639.37l22.72 0l0 14.52l-22.72 0Z" id="p109w228" />
<path d="M143.75 656.04l52.12 0l0 14.52l-52.12 0Z" id="p109w229" />
<path d="M199.09 656.04l47.31 0l0 14.52l-47.31 0Z" id="p109w230" />
<path d="M249.6 656.04l40.89 0l0 14.52l-40.89 0Z" id="p109w231" />
<path d="M293.7 656.04l19.79 0l0 14.52l-19.79 0Z" id="p109w232" />
<path d="M316.69 656.04l16.3 0l0 14.52l-16.3 0Z" id="p109w233" />
<path d="M143.75 672.72l19.51 0l0 14.52l-19.51 0Z" id="p109w234" />
<path d="M166.47 672.72l15.87 0l0 14.52l-15.87 0Z" id="p109w235" />
<path d="M185.54 672.72l19.51 0l0 14.52l-19.51 0Z" id="p109w236" />
<path d="M208.26 672.72l24.85 0l0 14.52l-24.85 0Z" id="p109w237" />
<path d="M236.32 672.72l9.89 0l0 14.52l-9.89 0Z" id="p109w238" />
<path d="M249.42 672.72l48.12 0l0 14.52l-48.12 0Z" id="p109w239" />
<path d="M143.75 689.39l19.51 0l0 14.52l-19.51 0Z" id="p109w240" />
<path d="M166.47 689.39l15.87 0l0 14.52l-15.87 0Z" id="p109w241" />
<path d="M185.54 689.39l19.51 0l0 14.52l-19.51 0Z" id="p109w242" />
<path d="M208.26 689.39l24.06 0l0 14.52l-24.06 0Z" id="p109w243" />
<path d="M235.53 689.39l13.9 0l0 14.52l-13.9 0Z" id="p109w244" />
<path d="M252.64 689.39l44.9 0l0 14.52l-44.9 0Z" id="p109w245" />
<path d="M300.75 689.39l25.67 0l0 14.52l-25.67 0Z" id="p109w246" />
<path d="M329.63 689.39l19.79 0l0 14.52l-19.79 0Z" id="p109w247" />
<path d="M352.62 689.39l30.66 0l0 14.52l-30.66 0Z" id="p109w248" />
<path d="M143.75 706.06l49.17 0l0 14.52l-49.17 0Z" id="p109w249" />
<path d="M196.13 706.06l47.31 0l0 14.52l-47.31 0Z" id="p109w250" />
<path d="M246.64 706.06l16.83 0l0 14.52l-16.83 0Z" id="p109w251" />
<path d="M266.68 706.06l45.95 0l0 14.52l-45.95 0Z" id="p109w252" />
<path d="M143.75 722.73l52.12 0l0 14.52l-52.12 0Z" id="p109w253" />
<path d="M199.09 722.73l47.31 0l0 14.52l-47.31 0Z" id="p109w254" />
<path d="M249.6 722.73l36.71 0l0 14.52l-36.71 0Z" id="p109w255" />
<path d="M289.51 722.73l19.51 0l0 14.52l-19.51 0Z" id="p109w256" />
<path d="M312.23 722.73l29.39 0l0 14.52l-29.39 0Z" id="p109w257" />
<path d="M344.83 722.73l13.9 0l0 14.52l-13.9 0Z" id="p109w258" />
<path d="M361.94 722.73l58.53 0l0 14.52l-58.53 0Z" id="p109w259" />
<path d="M143.75 739.4l19.51 0l0 14.52l-19.51 0Z" id="p109w260" />
<path d="M166.47 739.4l13.9 0l0 14.52l-13.9 0Z" id="p109w261" />
<path d="M183.58 739.4l24.33 0l0 14.52l-24.33 0Z" id="p109w262" />
<path d="M211.11 739.4l19.51 0l0 14.52l-19.51 0Z" id="p109w263" />
<path d="M233.83 739.4l49 0l0 14.52l-49 0Z" id="p109w264" />
<path d="M286.03 739.4l26.73 0l0 14.52l-26.73 0Z" id="p109w265" />
<path d="M315.97 739.4l20.85 0l0 14.52l-20.85 0Z" id="p109w266" />
<path d="M340.03 739.4l36.89 0l0 14.52l-36.89 0Z" id="p109w267" />
<path d="M143.75 756.07l20.05 0l0 14.52l-20.05 0Z" id="p109w268" />
<path d="M167.01 756.07l16.83 0l0 14.52l-16.83 0Z" id="p109w269" />
<path d="M187.05 756.07l44.63 0l0 14.52l-44.63 0Z" id="p109w270" />
<path d="M124.06 789.41l12.83 0l0 14.52l-12.83 0Z" id="p109w271" />
<path d="M140.1 789.41l21.67 0l0 14.52l-21.67 0Z" id="p109w272" />
<path d="M164.98 789.41l44.63 0l0 14.52l-44.63 0Z" id="p109w273" />
<path d="M212.81 789.41l47.31 0l0 14.52l-47.31 0Z" id="p109w274" />
<path d="M263.33 789.41l40.89 0l0 14.52l-40.89 0Z" id="p109w275" />
<path d="M307.43 789.41l12.29 0l0 14.52l-12.29 0Z" id="p109w276" />
<path d="M322.92 789.41l31.53 0l0 14.52l-31.53 0Z" id="p109w277" />
<path d="M357.66 789.41l25.41 0l0 14.52l-25.41 0Z" id="p109w278" />
<path d="M386.28 789.41l40.64 0l0 14.52l-40.64 0Z" id="p109w279" />
<path d="M430.13 789.41l40.36 0l0 14.52l-40.36 0Z" id="p109w280" />
<path d="M473.7 789.41l27.26 0l0 14.52l-27.26 0Z" id="p109w281" />
<path d="M504.16 789.41l13.9 0l0 14.52l-13.9 0Z" id="p109w282" />
<path d="M521.27 789.41l17.38 0l0 14.52l-17.38 0Z" id="p109w283" />
<path d="M541.86 789.41l19.77 0l0 14.52l-19.77 0Z" id="p109w284" />
<path d="M564.84 789.41l31.01 0l0 14.52l-31.01 0Z" id="p109w285" />
<path d="M124.06 806.08l44.11 0l0 14.52l-44.11 0Z" id="p109w286" />
<path d="M171.38 806.08l28.87 0l0 14.52l-28.87 0Z" id="p109w287" />
<path d="M203.46 806.08l47.58 0l0 14.52l-47.58 0Z" id="p109w288" />
<path d="M143.75 831.09l10.43 0l0 14.52l-10.43 0Z" id="p109w289" />
<path d="M157.39 831.09l13.9 0l0 14.52l-13.9 0Z" id="p109w290" />
<path d="M174.5 831.09l26.74 0l0 14.52l-26.74 0Z" id="p109w291" />
<path d="M204.45 831.09l19.51 0l0 14.52l-19.51 0Z" id="p109w292" />
<path d="M227.16 831.09l17.63 0l0 14.52l-17.63 0Z" id="p109w293" />
<path d="M248 831.09l45.97 0l0 14.52l-45.97 0Z" id="p109w294" />
<path d="M303.6 831.09l6.41 0l0 14.52l-6.41 0Z" id="p109w295" />
<path d="M313.22 831.09l18.7 0l0 14.52l-18.7 0Z" id="p109w296" />
<path d="M335.13 831.09l49.71 0l0 14.52l-49.71 0Z" id="p109w297" />
<path d="M388.05 831.09l54.55 0l0 14.52l-54.55 0Z" id="p109w298" />
<path d="M455.69 831.09l9.89 0l0 14.52l-9.89 0Z" id="p109w299" />
<path d="M468.79 831.09l43.31 0l0 14.52l-43.31 0Z" id="p109w300" />
<path d="M143.75 847.76l25.41 0l0 14.52l-25.41 0Z" id="p109w301" />
<path d="M172.37 847.76l23.8 0l0 14.52l-23.8 0Z" id="p109w302" />
<path d="M199.38 847.76l24.85 0l0 14.52l-24.85 0Z" id="p109w303" />
<path d="M227.44 847.76l14.18 0l0 14.52l-14.18 0Z" id="p109w304" />
<path d="M244.82 847.76l20.85 0l0 14.52l-20.85 0Z" id="p109w305" />
<path d="M268.88 847.76l9.89 0l0 14.52l-9.89 0Z" id="p109w306" />
<path d="M281.98 847.76l32.59 0l0 14.52l-32.59 0Z" id="p109w307" />
<path d="M317.77 847.76l30.73 0l0 14.52l-30.73 0Z" id="p109w308" />
<path d="M351.71 847.76l9.89 0l0 14.52l-9.89 0Z" id="p109w309" />
<path d="M364.8 847.76l37.25 0l0 14.52l-37.25 0Z" id="p109w310" />
<path d="M405.26 847.76l26.45 0l0 14.52l-26.45 0Z" id="p109w311" />
<path d="M434.92 847.76l6.41 0l0 14.52l-6.41 0Z" id="p109w312" />
<path d="M444.54 847.76l27.52 0l0 14.52l-27.52 0Z" id="p109w313" />
<path d="M475.27 847.76l54.55 0l0 14.52l-54.55 0Z" id="p109w314" />
<path d="M542.12 847.76l25.67 0l0 14.52l-25.67 0Z" id="p109w315" />
<path d="M143.75 864.44l36.1 0l0 14.52l-36.1 0Z" id="p109w316" />
<path d="M183.06 864.44l23.24 0l0 14.52l-23.24 0Z" id="p109w317" />
<path d="M209.51 864.44l33.13 0l0 14.52l-33.13 0Z" id="p109w318" />
<path d="M245.85 864.44l17.63 0l0 14.52l-17.63 0Z" id="p109w319" />
<path d="M266.69 864.44l9.89 0l0 14.52l-9.89 0Z" id="p109w320" />
<path d="M279.79 864.44l34.48 0l0 14.52l-34.48 0Z" id="p109w321" />
<path d="M323.89 864.44l15.5 0l0 14.52l-15.5 0Z" id="p109w322" />
<path d="M342.59 864.44l44.9 0l0 14.52l-44.9 0Z" id="p109w323" />
<path d="M400.59 864.44l17.11 0l0 14.52l-17.11 0Z" id="p109w324" />
<path d="M420.9 864.44l23.19 0l0 14.52l-23.19 0Z" id="p109w325" />
<path d="M447.3 864.44l24.85 0l0 14.52l-24.85 0Z" id="p109w326" />
<path d="M475.36 864.44l54.49 0l0 14.52l-54.49 0Z" id="p109w327" />
<path d="M143.75 881.11l26.45 0l0 14.52l-26.45 0Z" id="p109w328" />
<path d="M173.41 881.11l11.5 0l0 14.52l-11.5 0Z" id="p109w329" />
<path d="M188.12 881.11l11.5 0l0 14.52l-11.5 0Z" id="p109w330" />
<path d="M202.82 881.11l9.89 0l0 14.52l-9.89 0Z" id="p109w331" />
<path d="M215.92 881.11l45.46 0l0 14.52l-45.46 0Z" id="p109w332" />
<path d="M264.58 881.11l13.63 0l0 14.52l-13.63 0Z" id="p109w333" />
<path d="M281.42 881.11l39.55 0l0 14.52l-39.55 0Z" id="p109w334" />
<path d="M324.18 881.11l16.83 0l0 14.52l-16.83 0Z" id="p109w335" />
<path d="M344.21 881.11l58.54 0l0 14.52l-58.54 0Z" id="p109w336" />
<path d="M143.75 897.78l11.5 0l0 14.52l-11.5 0Z" id="p109w337" />
<path d="M158.46 897.78l49.1 0l0 14.52l-49.1 0Z" id="p109w338" />
<path d="M210.77 897.78l30.23 0l0 14.52l-30.23 0Z" id="p109w339" />
<path d="M244.2 897.78l12.66 0l0 14.52l-12.66 0Z" id="p109w340" />
<path d="M260.07 897.78l25.38 0l0 14.52l-25.38 0Z" id="p109w341" />
<path d="M288.66 897.78l8.82 0l0 14.52l-8.82 0Z" id="p109w342" />
<path d="M300.68 897.78l19.77 0l0 14.52l-19.77 0Z" id="p109w343" />
<path d="M323.66 897.78l13.9 0l0 14.52l-13.9 0Z" id="p109w344" />
<path d="M340.77 897.78l35.56 0l0 14.52l-35.56 0Z" id="p109w345" />
<path d="M379.53 897.78l21.65 0l0 14.52l-21.65 0Z" id="p109w346" />
<path d="M135.02 931.12l28.87 0l0 14.52l-28.87 0Z" id="p109w347" />
<path d="M167.09 931.12l24.33 0l0 14.52l-24.33 0Z" id="p109w348" />
<path d="M194.63 931.12l24.06 0l0 14.52l-24.06 0Z" id="p109w349" />
<path d="M221.89 931.12l44.37 0l0 14.52l-44.37 0Z" id="p109w350" />
<path d="M269.48 931.12l22.44 0l0 14.52l-22.44 0Z" id="p109w351" />
<path d="M295.12 931.12l9.89 0l0 14.52l-9.89 0Z" id="p109w352" />
<path d="M308.22 931.12l24.33 0l0 14.52l-24.33 0Z" id="p109w353" />
<path d="M335.75 931.12l13.9 0l0 14.52l-13.9 0Z" id="p109w354" />
<path d="M352.86 931.12l19.51 0l0 14.52l-19.51 0Z" id="p109w355" />
<path d="M383.86 931.12l32.87 0l0 14.52l-32.87 0Z" id="p109w356" />
<path d="M419.94 931.12l19.51 0l0 14.52l-19.51 0Z" id="p109w357" />
<path d="M442.65 931.12l66.3 0l0 14.52l-66.3 0Z" id="p109w358" />
<path d="M73.54 513.32l15.07 0l0 12.29l-15.07 0Z" id="p109w359" />
<path d="M52.89 532.84l35.72 0l0 12.3l-35.72 0Z" id="p109w360" />
<path d="M39.49 545.35l49.13 0l0 12.3l-49.13 0Z" id="p109w361" />
<path d="M557.91 525.33l20.81 0l0 12.56l-20.81 0Z" id="p109w362" />
<path d="M581.42 525.33l31.57 0l0 12.56l-31.57 0Z" id="p109w363" />
<path d="M487.19 557.49l13.53 0l0 15.37l-13.53 0Z" id="p109w364" />
<path d="M504.1 557.49l37.24 0l0 15.37l-37.24 0Z" id="p109w365" />
<path d="M544.72 557.49l20.65 0l0 15.37l-20.65 0Z" id="p109w366" />
<path d="M568.74 557.49l38.68 0l0 15.37l-38.68 0Z" id="p109w367" />
<path d="M487.19 578.78l14.18 0l0 14.52l-14.18 0Z" id="p109w368" />
<path d="M504.58 578.78l39.57 0l0 14.52l-39.57 0Z" id="p109w369" />
<path d="M547.36 578.78l15.5 0l0 14.52l-15.5 0Z" id="p109w370" />
<path d="M566.06 578.78l36.09 0l0 14.52l-36.09 0Z" id="p109w371" />
<path d="M605.35 578.78l18.72 0l0 14.52l-18.72 0Z" id="p109w372" />
<path d="M487.19 595.45l9.89 0l0 14.52l-9.89 0Z" id="p109w373" />
<path d="M500.29 595.45l26.2 0l0 14.52l-26.2 0Z" id="p109w374" />
<path d="M529.7 595.45l13.9 0l0 14.52l-13.9 0Z" id="p109w375" />
<path d="M546.8 595.45l49 0l0 14.52l-49 0Z" id="p109w376" />
<path d="M487.19 612.12l30.73 0l0 14.52l-30.73 0Z" id="p109w377" />
<path d="M521.13 612.12l13.9 0l0 14.52l-13.9 0Z" id="p109w378" />
<path d="M553.03 612.12l22.19 0l0 14.52l-22.19 0Z" id="p109w379" />
<path d="M578.43 612.12l38.49 0l0 14.52l-38.49 0Z" id="p109w380" />
<path d="M487.19 628.79l35.27 0l0 14.52l-35.27 0Z" id="p109w381" />
<path d="M535.56 628.79l30.73 0l0 14.52l-30.73 0Z" id="p109w382" />
<path d="M569.49 628.79l13.9 0l0 14.52l-13.9 0Z" id="p109w383" />
<path d="M601.39 628.79l22.19 0l0 14.52l-22.19 0Z" id="p109w384" />
<path d="M60.68 932.92l27.93 0l0 12.29l-27.93 0Z" id="p109w385" />
<path d="M68.27 39.02l46.09 0l0 15.38l-46.09 0Z" id="p109w386" />
<path d="M152.94 38.6l45.75 0l0 16.09l-45.75 0Z" id="p109w387" />
<path d="M251.41 39.02l59.8 0l0 15.38l-59.8 0Z" id="p109w388" />
<path d="M350.65 39.02l32.54 0l0 15.38l-32.54 0Z" id="p109w389" />
<path d="M647.29 983l43.82 0l0 12.23l-43.82 0Z" id="p109w390" />
</svg>
