<?xml version="1.0" encoding="UTF-8"?>
<svg xmlns="http://www.w3.org/2000/svg" xmlns:xlink="http://www.w3.org/1999/xlink" version="1.1" baseProfile="full" width="768" height="1024" viewBox="0,0,768,1024" preserveAspectRatio="xMinYMin meet" >
<style type="text/css">
<![CDATA[
path {fill-opacity: 0.5;fill: #00aeef;visibility: hidden;}
]]>
</style>
<path d="M76.9 983.66l98.99 0l0 12.23l-98.99 0Z" id="p252w1" />
<path d="M124.06 38.6l77.83 0l0 16.09l-77.83 0Z" id="p252w2" />
<path d="M124.06 112.51l14.41 0l0 12.23l-14.41 0Z" id="p252w3" />
<path d="M141.17 112.45l29.91 0l0 12.29l-29.91 0Z" id="p252w4" />
<path d="M173.78 112.49l20.05 0l0 12.23l-20.05 0Z" id="p252w5" />
<path d="M196.53 112.49l28.84 0l0 12.23l-28.84 0Z" id="p252w6" />
<path d="M228.08 112.49l11.7 0l0 12.23l-11.7 0Z" id="p252w7" />
<path d="M242.48 112.49l40.88 0l0 12.23l-40.88 0Z" id="p252w8" />
<path d="M286.06 112.51l17.56 0l0 12.23l-17.56 0Z" id="p252w9" />
<path d="M133.91 127.79l16.66 0l0 12.23l-16.66 0Z" id="p252w10" />
<path d="M153.27 127.55l18.92 0l0 12.56l-18.92 0Z" id="p252w11" />
<path d="M124.06 143.08l20.03 0l0 12.23l-20.03 0Z" id="p252w12" />
<path d="M146.79 143.02l75.81 0l0 12.29l-75.81 0Z" id="p252w13" />
<path d="M225.3 143.08l11.94 0l0 12.23l-11.94 0Z" id="p252w14" />
<path d="M239.94 143.08l53.01 0l0 12.23l-53.01 0Z" id="p252w15" />
<path d="M133.91 158.36l17.56 0l0 12.23l-17.56 0Z" id="p252w16" />
<path d="M154.17 158.36l54.46 0l0 12.23l-54.46 0Z" id="p252w17" />
<path d="M211.34 158.11l14.63 0l0 12.56l-14.63 0Z" id="p252w18" />
<path d="M124.06 173.59l47.5 0l0 12.29l-47.5 0Z" id="p252w19" />
<path d="M174.26 173.64l10.35 0l0 12.23l-10.35 0Z" id="p252w20" />
<path d="M187.31 173.64l22.95 0l0 12.23l-22.95 0Z" id="p252w21" />
<path d="M212.96 173.4l15.54 0l0 12.56l-15.54 0Z" id="p252w22" />
<path d="M124.06 188.87l53.25 0l0 12.29l-53.25 0Z" id="p252w23" />
<path d="M180.02 188.9l25.65 0l0 12.23l-25.65 0Z" id="p252w24" />
<path d="M208.37 188.93l48.17 0l0 12.23l-48.17 0Z" id="p252w25" />
<path d="M259.24 188.9l27.91 0l0 12.23l-27.91 0Z" id="p252w26" />
<path d="M133.91 203.96l18.92 0l0 12.56l-18.92 0Z" id="p252w27" />
<path d="M124.06 219.49l17.78 0l0 12.23l-17.78 0Z" id="p252w28" />
<path d="M144.55 219.44l35.7 0l0 12.29l-35.7 0Z" id="p252w29" />
<path d="M182.95 219.49l31.75 0l0 12.23l-31.75 0Z" id="p252w30" />
<path d="M217.4 219.49l19.44 0l0 12.23l-19.44 0Z" id="p252w31" />
<path d="M239.54 219.49l10.82 0l0 12.23l-10.82 0Z" id="p252w32" />
<path d="M253.05 219.49l15.76 0l0 12.23l-15.76 0Z" id="p252w33" />
<path d="M271.52 219.49l23.19 0l0 12.23l-23.19 0Z" id="p252w34" />
<path d="M133.91 234.78l21.62 0l0 12.23l-21.62 0Z" id="p252w35" />
<path d="M158.23 234.78l36.01 0l0 12.23l-36.01 0Z" id="p252w36" />
<path d="M196.94 234.78l11.7 0l0 12.23l-11.7 0Z" id="p252w37" />
<path d="M211.35 234.78l21.37 0l0 12.23l-21.37 0Z" id="p252w38" />
<path d="M235.42 234.78l11.04 0l0 12.23l-11.04 0Z" id="p252w39" />
<path d="M249.16 234.53l18.92 0l0 12.56l-18.92 0Z" id="p252w40" />
<path d="M124.06 250l51.55 0l0 12.29l-51.55 0Z" id="p252w41" />
<path d="M178.31 250.06l10.35 0l0 12.23l-10.35 0Z" id="p252w42" />
<path d="M191.36 250.06l37.8 0l0 12.23l-37.8 0Z" id="p252w43" />
<path d="M231.87 249.81l19.58 0l0 12.56l-19.58 0Z" id="p252w44" />
<path d="M124.06 265.34l19.44 0l0 12.23l-19.44 0Z" id="p252w45" />
<path d="M146.2 265.29l57.01 0l0 12.29l-57.01 0Z" id="p252w46" />
<path d="M205.91 265.34l51.7 0l0 12.23l-51.7 0Z" id="p252w47" />
<path d="M260.31 265.34l11.04 0l0 12.23l-11.04 0Z" id="p252w48" />
<path d="M274.05 265.1l18.92 0l0 12.56l-18.92 0Z" id="p252w49" />
<path d="M124.06 280.63l14.41 0l0 12.23l-14.41 0Z" id="p252w50" />
<path d="M141.17 280.57l32.98 0l0 12.29l-32.98 0Z" id="p252w51" />
<path d="M176.85 280.63l11.94 0l0 12.23l-11.94 0Z" id="p252w52" />
<path d="M191.49 280.63l47.04 0l0 12.23l-47.04 0Z" id="p252w53" />
<path d="M241.23 280.38l18.17 0l0 12.56l-18.17 0Z" id="p252w54" />
<path d="M124.06 295.91l14.41 0l0 12.23l-14.41 0Z" id="p252w55" />
<path d="M141.17 295.85l24.14 0l0 12.29l-24.14 0Z" id="p252w56" />
<path d="M169.48 295.85l30.22 0l0 12.29l-30.22 0Z" id="p252w57" />
<path d="M202.4 295.91l11.94 0l0 12.23l-11.94 0Z" id="p252w58" />
<path d="M217.04 295.91l35.46 0l0 12.23l-35.46 0Z" id="p252w59" />
<path d="M255.2 295.91l21.4 0l0 12.23l-21.4 0Z" id="p252w60" />
<path d="M133.91 310.95l18.92 0l0 12.56l-18.92 0Z" id="p252w61" />
<path d="M133.91 326.48l18.46 0l0 12.23l-18.46 0Z" id="p252w62" />
<path d="M155.07 326.48l16.21 0l0 12.23l-16.21 0Z" id="p252w63" />
<path d="M173.98 326.48l17.78 0l0 12.23l-17.78 0Z" id="p252w64" />
<path d="M194.47 326.48l30.11 0l0 12.23l-30.11 0Z" id="p252w65" />
<path d="M227.28 326.48l41.18 0l0 12.23l-41.18 0Z" id="p252w66" />
<path d="M271.16 326.48l10.35 0l0 12.23l-10.35 0Z" id="p252w67" />
<path d="M133.91 341.76l30.83 0l0 12.23l-30.83 0Z" id="p252w68" />
<path d="M167.44 341.76l11.7 0l0 12.23l-11.7 0Z" id="p252w69" />
<path d="M181.85 341.76l16.66 0l0 12.23l-16.66 0Z" id="p252w70" />
<path d="M201.21 341.52l18.17 0l0 12.56l-18.17 0Z" id="p252w71" />
<path d="M124.06 357.04l11.93 0l0 12.23l-11.93 0Z" id="p252w72" />
<path d="M138.69 356.99l52.19 0l0 12.29l-52.19 0Z" id="p252w73" />
<path d="M193.58 357.04l11.7 0l0 12.23l-11.7 0Z" id="p252w74" />
<path d="M207.98 357.04l10.58 0l0 12.23l-10.58 0Z" id="p252w75" />
<path d="M221.26 357.04l39.84 0l0 12.23l-39.84 0Z" id="p252w76" />
<path d="M263.8 356.8l15.54 0l0 12.56l-15.54 0Z" id="p252w77" />
<path d="M124.06 372.27l16.44 0l0 12.29l-16.44 0Z" id="p252w78" />
<path d="M143.2 372.33l24.12 0l0 12.23l-24.12 0Z" id="p252w79" />
<path d="M170.02 372.08l15.54 0l0 12.56l-15.54 0Z" id="p252w80" />
<path d="M124.06 387.61l20.03 0l0 12.23l-20.03 0Z" id="p252w81" />
<path d="M146.79 387.55l53.16 0l0 12.29l-53.16 0Z" id="p252w82" />
<path d="M202.66 387.61l17.56 0l0 12.23l-17.56 0Z" id="p252w83" />
<path d="M222.92 387.61l46.59 0l0 12.23l-46.59 0Z" id="p252w84" />
<path d="M272.22 387.37l18.72 0l0 12.56l-18.72 0Z" id="p252w85" />
<path d="M124.06 402.89l14.41 0l0 12.23l-14.41 0Z" id="p252w86" />
<path d="M141.17 402.84l43.66 0l0 12.29l-43.66 0Z" id="p252w87" />
<path d="M187.53 402.89l17.56 0l0 12.23l-17.56 0Z" id="p252w88" />
<path d="M207.79 402.89l50.2 0l0 12.23l-50.2 0Z" id="p252w89" />
<path d="M260.69 402.65l18.92 0l0 12.56l-18.92 0Z" id="p252w90" />
<path d="M124.06 418.12l54.33 0l0 12.29l-54.33 0Z" id="p252w91" />
<path d="M181.09 418.18l43.2 0l0 12.23l-43.2 0Z" id="p252w92" />
<path d="M227 417.93l18.92 0l0 12.56l-18.92 0Z" id="p252w93" />
<path d="M124.06 433.4l23.1 0l0 12.29l-23.1 0Z" id="p252w94" />
<path d="M147.16 433.4l26.63 0l0 12.29l-26.63 0Z" id="p252w95" />
<path d="M176.49 433.44l25.65 0l0 12.23l-25.65 0Z" id="p252w96" />
<path d="M204.85 433.46l6.3 0l0 12.23l-6.3 0Z" id="p252w97" />
<path d="M211.15 433.46l24.31 0l0 12.23l-24.31 0Z" id="p252w98" />
<path d="M238.16 433.44l27.91 0l0 12.23l-27.91 0Z" id="p252w99" />
<path d="M268.77 433.22l15.54 0l0 12.56l-15.54 0Z" id="p252w100" />
<path d="M124.06 448.74l14.41 0l0 12.23l-14.41 0Z" id="p252w101" />
<path d="M141.17 448.69l24.13 0l0 12.29l-24.13 0Z" id="p252w102" />
<path d="M165.3 448.69l11.85 0l0 12.29l-11.85 0Z" id="p252w103" />
<path d="M179.85 448.74l17.56 0l0 12.23l-17.56 0Z" id="p252w104" />
<path d="M200.11 448.74l26.55 0l0 12.23l-26.55 0Z" id="p252w105" />
<path d="M229.37 448.5l15.54 0l0 12.56l-15.54 0Z" id="p252w106" />
<path d="M259.37 448.74l17.56 0l0 12.23l-17.56 0Z" id="p252w107" />
<path d="M133.91 464.03l44.58 0l0 12.23l-44.58 0Z" id="p252w108" />
<path d="M181.19 463.78l18.92 0l0 12.56l-18.92 0Z" id="p252w109" />
<path d="M219.97 464.03l17.56 0l0 12.23l-17.56 0Z" id="p252w110" />
<path d="M240.24 464.03l53.8 0l0 12.23l-53.8 0Z" id="p252w111" />
<path d="M133.91 479.07l18.92 0l0 12.56l-18.92 0Z" id="p252w112" />
<path d="M124.06 494.59l14.41 0l0 12.23l-14.41 0Z" id="p252w113" />
<path d="M141.17 494.54l40.95 0l0 12.29l-40.95 0Z" id="p252w114" />
<path d="M184.82 494.59l11.94 0l0 12.23l-11.94 0Z" id="p252w115" />
<path d="M199.46 494.59l59.88 0l0 12.23l-59.88 0Z" id="p252w116" />
<path d="M262.03 494.35l18.92 0l0 12.56l-18.92 0Z" id="p252w117" />
<path d="M124.06 509.82l45.73 0l0 12.29l-45.73 0Z" id="p252w118" />
<path d="M172.49 509.88l24.75 0l0 12.23l-24.75 0Z" id="p252w119" />
<path d="M199.95 509.63l15.54 0l0 12.56l-15.54 0Z" id="p252w120" />
<path d="M133.91 525.16l58.82 0l0 12.23l-58.82 0Z" id="p252w121" />
<path d="M195.43 525.16l45.64 0l0 12.23l-45.64 0Z" id="p252w122" />
<path d="M243.77 525.16l10.35 0l0 12.23l-10.35 0Z" id="p252w123" />
<path d="M256.82 525.16l40.73 0l0 12.23l-40.73 0Z" id="p252w124" />
<path d="M133.91 540.44l42.2 0l0 12.23l-42.2 0Z" id="p252w125" />
<path d="M178.82 540.2l18.92 0l0 12.56l-18.92 0Z" id="p252w126" />
<path d="M124.06 555.73l16.43 0l0 12.23l-16.43 0Z" id="p252w127" />
<path d="M143.19 555.67l38.06 0l0 12.29l-38.06 0Z" id="p252w128" />
<path d="M183.95 555.73l44.51 0l0 12.23l-44.51 0Z" id="p252w129" />
<path d="M252.31 555.48l18.92 0l0 12.56l-18.92 0Z" id="p252w130" />
<path d="M124.06 570.96l55.36 0l0 12.29l-55.36 0Z" id="p252w131" />
<path d="M182.13 571.01l90.24 0l0 12.23l-90.24 0Z" id="p252w132" />
<path d="M275.07 570.77l18.92 0l0 12.56l-18.92 0Z" id="p252w133" />
<path d="M124.06 586.24l75.44 0l0 12.29l-75.44 0Z" id="p252w134" />
<path d="M202.2 586.29l93.19 0l0 12.23l-93.19 0Z" id="p252w135" />
<path d="M133.91 601.33l18.92 0l0 12.56l-18.92 0Z" id="p252w136" />
<path d="M124.06 616.86l40.5 0l0 12.23l-40.5 0Z" id="p252w137" />
<path d="M167.27 616.81l48.93 0l0 12.29l-48.93 0Z" id="p252w138" />
<path d="M218.9 616.86l21.84 0l0 12.23l-21.84 0Z" id="p252w139" />
<path d="M240.74 616.86l13.27 0l0 12.23l-13.27 0Z" id="p252w140" />
<path d="M256.71 616.86l11.7 0l0 12.23l-11.7 0Z" id="p252w141" />
<path d="M271.12 616.86l16.33 0l0 12.23l-16.33 0Z" id="p252w142" />
<path d="M133.91 632.14l11.04 0l0 12.23l-11.04 0Z" id="p252w143" />
<path d="M147.65 631.9l18.92 0l0 12.56l-18.92 0Z" id="p252w144" />
<path d="M124.06 647.43l19.44 0l0 12.23l-19.44 0Z" id="p252w145" />
<path d="M146.2 647.37l62.21 0l0 12.29l-62.21 0Z" id="p252w146" />
<path d="M211.11 647.43l35.1 0l0 12.23l-35.1 0Z" id="p252w147" />
<path d="M248.92 647.43l11.04 0l0 12.23l-11.04 0Z" id="p252w148" />
<path d="M262.66 647.18l15.34 0l0 12.56l-15.34 0Z" id="p252w149" />
<path d="M124.06 662.71l19.44 0l0 12.23l-19.44 0Z" id="p252w150" />
<path d="M146.2 662.66l52.91 0l0 12.29l-52.91 0Z" id="p252w151" />
<path d="M201.81 662.71l23.41 0l0 12.23l-23.41 0Z" id="p252w152" />
<path d="M227.92 662.71l11.04 0l0 12.23l-11.04 0Z" id="p252w153" />
<path d="M241.66 662.47l18.72 0l0 12.56l-18.72 0Z" id="p252w154" />
<path d="M124.06 677.94l44.49 0l0 12.29l-44.49 0Z" id="p252w155" />
<path d="M171.26 677.97l16.66 0l0 12.23l-16.66 0Z" id="p252w156" />
<path d="M190.62 677.97l31.97 0l0 12.23l-31.97 0Z" id="p252w157" />
<path d="M225.29 677.99l48.78 0l0 12.23l-48.78 0Z" id="p252w158" />
<path d="M276.77 677.75l18.01 0l0 12.56l-18.01 0Z" id="p252w159" />
<path d="M124.06 693.22l44.68 0l0 12.29l-44.68 0Z" id="p252w160" />
<path d="M171.45 693.28l23.19 0l0 12.23l-23.19 0Z" id="p252w161" />
<path d="M197.33 693.28l16.51 0l0 12.23l-16.51 0Z" id="p252w162" />
<path d="M216.54 693.03l15.54 0l0 12.56l-15.54 0Z" id="p252w163" />
<path d="M124.06 708.51l27.49 0l0 12.29l-27.49 0Z" id="p252w164" />
<path d="M154.25 708.56l19.81 0l0 12.23l-19.81 0Z" id="p252w165" />
<path d="M176.76 708.32l15.54 0l0 12.56l-15.54 0Z" id="p252w166" />
<path d="M124.06 723.79l48.35 0l0 12.29l-48.35 0Z" id="p252w167" />
<path d="M175.11 723.84l11.7 0l0 12.23l-11.7 0Z" id="p252w168" />
<path d="M189.52 723.84l19.36 0l0 12.23l-19.36 0Z" id="p252w169" />
<path d="M211.58 723.6l18.17 0l0 12.56l-18.17 0Z" id="p252w170" />
<path d="M124.06 739.07l81.45 0l0 12.29l-81.45 0Z" id="p252w171" />
<path d="M208.21 739.13l64.28 0l0 12.23l-64.28 0Z" id="p252w172" />
<path d="M133.91 754.41l68.44 0l0 12.23l-68.44 0Z" id="p252w173" />
<path d="M205.05 754.17l18.92 0l0 12.56l-18.92 0Z" id="p252w174" />
<path d="M124.06 769.7l14.41 0l0 12.23l-14.41 0Z" id="p252w175" />
<path d="M141.17 769.64l39.76 0l0 12.29l-39.76 0Z" id="p252w176" />
<path d="M183.63 769.7l8.33 0l0 12.23l-8.33 0Z" id="p252w177" />
<path d="M194.65 769.7l16.66 0l0 12.23l-16.66 0Z" id="p252w178" />
<path d="M214.02 769.45l15.54 0l0 12.56l-15.54 0Z" id="p252w179" />
<path d="M124.06 784.92l51.24 0l0 12.29l-51.24 0Z" id="p252w180" />
<path d="M178 784.98l48.62 0l0 12.23l-48.62 0Z" id="p252w181" />
<path d="M229.32 784.73l15.54 0l0 12.56l-15.54 0Z" id="p252w182" />
<path d="M133.91 800.26l14.18 0l0 12.23l-14.18 0Z" id="p252w183" />
<path d="M150.79 800.26l34.6 0l0 12.23l-34.6 0Z" id="p252w184" />
<path d="M188.1 800.26l27.42 0l0 12.23l-27.42 0Z" id="p252w185" />
<path d="M217.85 800.26l22.07 0l0 12.23l-22.07 0Z" id="p252w186" />
<path d="M242.63 800.26l60.97 0l0 12.23l-60.97 0Z" id="p252w187" />
<path d="M133.91 815.3l15.54 0l0 12.56l-15.54 0Z" id="p252w188" />
<path d="M124.06 830.83l20.03 0l0 12.23l-20.03 0Z" id="p252w189" />
<path d="M146.79 830.77l55.43 0l0 12.29l-55.43 0Z" id="p252w190" />
<path d="M204.92 830.83l17.56 0l0 12.23l-17.56 0Z" id="p252w191" />
<path d="M225.19 830.83l48.41 0l0 12.23l-48.41 0Z" id="p252w192" />
<path d="M276.3 830.58l15.54 0l0 12.56l-15.54 0Z" id="p252w193" />
<path d="M124.06 846.11l19.44 0l0 12.23l-19.44 0Z" id="p252w194" />
<path d="M146.2 846.06l49.64 0l0 12.29l-49.64 0Z" id="p252w195" />
<path d="M198.54 846.11l30.84 0l0 12.23l-30.84 0Z" id="p252w196" />
<path d="M232.09 846.11l11.04 0l0 12.23l-11.04 0Z" id="p252w197" />
<path d="M245.83 845.87l15.54 0l0 12.56l-15.54 0Z" id="p252w198" />
<path d="M124.06 861.4l18.46 0l0 12.23l-18.46 0Z" id="p252w199" />
<path d="M145.22 861.4l15.75 0l0 12.23l-15.75 0Z" id="p252w200" />
<path d="M163.68 861.4l20.04 0l0 12.23l-20.04 0Z" id="p252w201" />
<path d="M186.42 861.34l59.22 0l0 12.29l-59.22 0Z" id="p252w202" />
<path d="M248.34 861.4l43.84 0l0 12.23l-43.84 0Z" id="p252w203" />
<path d="M133.91 876.68l21.39 0l0 12.23l-21.39 0Z" id="p252w204" />
<path d="M158 876.68l12.16 0l0 12.23l-12.16 0Z" id="p252w205" />
<path d="M172.86 876.43l18.01 0l0 12.56l-18.01 0Z" id="p252w206" />
<path d="M124.06 891.96l14.41 0l0 12.23l-14.41 0Z" id="p252w207" />
<path d="M141.17 891.91l48.55 0l0 12.29l-48.55 0Z" id="p252w208" />
<path d="M192.42 891.96l11.94 0l0 12.23l-11.94 0Z" id="p252w209" />
<path d="M207.06 891.96l40.01 0l0 12.23l-40.01 0Z" id="p252w210" />
<path d="M249.77 891.72l18.01 0l0 12.56l-18.01 0Z" id="p252w211" />
<path d="M124.06 907.25l56.95 0l0 12.23l-56.95 0Z" id="p252w212" />
<path d="M183.72 907.19l59.22 0l0 12.29l-59.22 0Z" id="p252w213" />
<path d="M133.91 922.53l65.29 0l0 12.23l-65.29 0Z" id="p252w214" />
<path d="M201.9 922.53l24.99 0l0 12.23l-24.99 0Z" id="p252w215" />
<path d="M229.59 922.53l15.76 0l0 12.23l-15.76 0Z" id="p252w216" />
<path d="M248.05 922.28l18.01 0l0 12.56l-18.01 0Z" id="p252w217" />
<path d="M325.58 112.51l14.41 0l0 12.23l-14.41 0Z" id="p252w218" />
<path d="M342.69 112.45l83.7 0l0 12.29l-83.7 0Z" id="p252w219" />
<path d="M426.38 112.51l24.2 0l0 12.23l-24.2 0Z" id="p252w220" />
<path d="M335.43 127.74l92.59 0l0 12.29l-92.59 0Z" id="p252w221" />
<path d="M430.72 127.79l11.94 0l0 12.23l-11.94 0Z" id="p252w222" />
<path d="M445.36 127.79l50.54 0l0 12.23l-50.54 0Z" id="p252w223" />
<path d="M335.43 143.08l28.81 0l0 12.23l-28.81 0Z" id="p252w224" />
<path d="M366.94 143.05l27.91 0l0 12.23l-27.91 0Z" id="p252w225" />
<path d="M397.55 142.83l15.54 0l0 12.56l-15.54 0Z" id="p252w226" />
<path d="M325.58 158.36l19.44 0l0 12.23l-19.44 0Z" id="p252w227" />
<path d="M347.72 158.3l43.34 0l0 12.29l-43.34 0Z" id="p252w228" />
<path d="M393.76 158.36l45.24 0l0 12.23l-45.24 0Z" id="p252w229" />
<path d="M441.7 158.36l11.04 0l0 12.23l-11.04 0Z" id="p252w230" />
<path d="M455.44 158.11l18.17 0l0 12.56l-18.17 0Z" id="p252w231" />
<path d="M325.58 173.64l20.03 0l0 12.23l-20.03 0Z" id="p252w232" />
<path d="M348.31 173.59l40.21 0l0 12.29l-40.21 0Z" id="p252w233" />
<path d="M391.23 173.64l11.94 0l0 12.23l-11.94 0Z" id="p252w234" />
<path d="M405.87 173.64l24.55 0l0 12.23l-24.55 0Z" id="p252w235" />
<path d="M433.12 173.4l18.92 0l0 12.56l-18.92 0Z" id="p252w236" />
<path d="M335.43 188.93l20.03 0l0 12.23l-20.03 0Z" id="p252w237" />
<path d="M358.16 188.93l39.76 0l0 12.23l-39.76 0Z" id="p252w238" />
<path d="M400.62 188.93l31.96 0l0 12.23l-31.96 0Z" id="p252w239" />
<path d="M435.28 188.93l43.45 0l0 12.23l-43.45 0Z" id="p252w240" />
<path d="M481.43 188.93l19.44 0l0 12.23l-19.44 0Z" id="p252w241" />
<path d="M335.43 204.21l21.37 0l0 12.23l-21.37 0Z" id="p252w242" />
<path d="M359.5 204.21l8.33 0l0 12.23l-8.33 0Z" id="p252w243" />
<path d="M370.53 204.21l10.35 0l0 12.23l-10.35 0Z" id="p252w244" />
<path d="M383.58 204.21l24.98 0l0 12.23l-24.98 0Z" id="p252w245" />
<path d="M411.26 204.21l11.04 0l0 12.23l-11.04 0Z" id="p252w246" />
<path d="M424.99 203.96l18.92 0l0 12.56l-18.92 0Z" id="p252w247" />
<path d="M325.58 219.49l19.44 0l0 12.23l-19.44 0Z" id="p252w248" />
<path d="M347.72 219.44l47.45 0l0 12.29l-47.45 0Z" id="p252w249" />
<path d="M397.87 219.49l29.24 0l0 12.23l-29.24 0Z" id="p252w250" />
<path d="M429.82 219.49l11.04 0l0 12.23l-11.04 0Z" id="p252w251" />
<path d="M443.56 219.25l19.58 0l0 12.56l-19.58 0Z" id="p252w252" />
<path d="M325.58 234.78l14.41 0l0 12.23l-14.41 0Z" id="p252w253" />
<path d="M342.69 234.72l22.43 0l0 12.29l-22.43 0Z" id="p252w254" />
<path d="M367.82 234.78l17.56 0l0 12.23l-17.56 0Z" id="p252w255" />
<path d="M388.08 234.78l32.87 0l0 12.23l-32.87 0Z" id="p252w256" />
<path d="M423.65 234.53l15.54 0l0 12.56l-15.54 0Z" id="p252w257" />
<path d="M325.58 250l25.62 0l0 12.29l-25.62 0ZM353.9 250.06l53.35 0l0 12.23l-53.35 0Z" id="p252w258" />
<path d="M409.96 249.81l17.81 0l0 12.56l-17.81 0Z" id="p252w259" />
<path d="M325.58 265.29l52.43 0l0 12.29l-52.43 0ZM380.71 265.34l53.35 0l0 12.23l-53.35 0Z" id="p252w260" />
<path d="M436.77 265.1l17.81 0l0 12.56l-17.81 0Z" id="p252w261" />
<path d="M325.58 280.63l14.41 0l0 12.23l-14.41 0Z" id="p252w262" />
<path d="M342.69 280.57l26.33 0l0 12.29l-26.33 0Z" id="p252w263" />
<path d="M369.02 280.63l24.2 0l0 12.23l-24.2 0Z" id="p252w264" />
<path d="M395.92 280.57l35.22 0l0 12.29l-35.22 0Z" id="p252w265" />
<path d="M433.84 280.63l11.94 0l0 12.23l-11.94 0Z" id="p252w266" />
<path d="M448.48 280.63l52.34 0l0 12.23l-52.34 0Z" id="p252w267" />
<path d="M335.43 295.91l36.24 0l0 12.23l-36.24 0Z" id="p252w268" />
<path d="M374.36 295.66l18.01 0l0 12.56l-18.01 0Z" id="p252w269" />
<path d="M325.58 349.4l14.41 0l0 12.23l-14.41 0Z" id="p252w270" />
<path d="M342.69 349.35l23.54 0l0 12.29l-23.54 0Z" id="p252w271" />
<path d="M368.93 349.4l11.94 0l0 12.23l-11.94 0Z" id="p252w272" />
<path d="M383.57 349.4l23.41 0l0 12.23l-23.41 0Z" id="p252w273" />
<path d="M409.68 349.16l15.54 0l0 12.56l-15.54 0Z" id="p252w274" />
<path d="M325.58 364.68l14.41 0l0 12.23l-14.41 0Z" id="p252w275" />
<path d="M342.69 364.63l32.18 0l0 12.29l-32.18 0Z" id="p252w276" />
<path d="M374.86 364.68l24.2 0l0 12.23l-24.2 0Z" id="p252w277" />
<path d="M401.76 364.63l41.07 0l0 12.29l-41.07 0Z" id="p252w278" />
<path d="M445.53 364.68l11.94 0l0 12.23l-11.94 0Z" id="p252w279" />
<path d="M335.43 379.97l69.4 0l0 12.23l-69.4 0Z" id="p252w280" />
<path d="M407.53 379.97l53.3 0l0 12.23l-53.3 0Z" id="p252w281" />
<path d="M463.53 379.72l14.63 0l0 12.56l-14.63 0Z" id="p252w282" />
<path d="M325.58 395.25l20.03 0l0 12.23l-20.03 0Z" id="p252w283" />
<path d="M348.31 395.2l40.54 0l0 12.29l-40.54 0Z" id="p252w284" />
<path d="M391.55 395.25l17.56 0l0 12.23l-17.56 0Z" id="p252w285" />
<path d="M411.81 395.25l56 0l0 12.23l-56 0Z" id="p252w286" />
<path d="M470.51 395.01l14.79 0l0 12.56l-14.79 0Z" id="p252w287" />
<path d="M325.58 410.48l29.48 0l0 12.29l-29.48 0Z" id="p252w288" />
<path d="M357.76 410.53l10.35 0l0 12.23l-10.35 0Z" id="p252w289" />
<path d="M370.81 410.53l35.96 0l0 12.23l-35.96 0Z" id="p252w290" />
<path d="M409.47 410.29l15.54 0l0 12.56l-15.54 0Z" id="p252w291" />
<path d="M325.58 425.82l14.41 0l0 12.23l-14.41 0Z" id="p252w292" />
<path d="M342.69 425.76l59.72 0l0 12.29l-59.72 0Z" id="p252w293" />
<path d="M405.11 425.82l17.56 0l0 12.23l-17.56 0Z" id="p252w294" />
<path d="M425.37 425.82l21.37 0l0 12.23l-21.37 0Z" id="p252w295" />
<path d="M449.45 425.82l11.7 0l0 12.23l-11.7 0Z" id="p252w296" />
<path d="M463.85 425.82l25.21 0l0 12.23l-25.21 0Z" id="p252w297" />
<path d="M491.76 425.57l14.63 0l0 12.56l-14.63 0Z" id="p252w298" />
<path d="M325.58 441.1l14.41 0l0 12.23l-14.41 0Z" id="p252w299" />
<path d="M342.69 441.05l43.3 0l0 12.29l-43.3 0Z" id="p252w300" />
<path d="M388.69 441.1l17.56 0l0 12.23l-17.56 0Z" id="p252w301" />
<path d="M408.95 441.1l42.48 0l0 12.23l-42.48 0Z" id="p252w302" />
<path d="M454.14 440.86l14.63 0l0 12.56l-14.63 0Z" id="p252w303" />
<path d="M325.58 456.39l14.41 0l0 12.23l-14.41 0Z" id="p252w304" />
<path d="M342.69 456.33l40.18 0l0 12.29l-40.18 0Z" id="p252w305" />
<path d="M385.57 456.39l17.56 0l0 12.23l-17.56 0Z" id="p252w306" />
<path d="M405.83 456.39l21.1 0l0 12.23l-21.1 0Z" id="p252w307" />
<path d="M429.63 456.14l19.58 0l0 12.56l-19.58 0Z" id="p252w308" />
<path d="M325.58 471.61l20.59 0l0 12.29l-20.59 0Z" id="p252w309" />
<path d="M348.87 471.67l33.99 0l0 12.23l-33.99 0Z" id="p252w310" />
<path d="M385.56 471.42l14.79 0l0 12.56l-14.79 0Z" id="p252w311" />
<path d="M325.58 486.95l14.41 0l0 12.23l-14.41 0Z" id="p252w312" />
<path d="M342.69 486.95l38.94 0l0 12.23l-38.94 0Z" id="p252w313" />
<path d="M384.32 486.9l18.02 0l0 12.29l-18.02 0Z" id="p252w314" />
<path d="M405.04 486.95l17.56 0l0 12.23l-17.56 0Z" id="p252w315" />
<path d="M425.31 486.95l22.73 0l0 12.23l-22.73 0Z" id="p252w316" />
<path d="M450.74 486.71l15.54 0l0 12.56l-15.54 0Z" id="p252w317" />
<path d="M325.58 502.24l20.03 0l0 12.23l-20.03 0Z" id="p252w318" />
<path d="M348.31 502.18l35.81 0l0 12.29l-35.81 0Z" id="p252w319" />
<path d="M386.82 502.24l17.56 0l0 12.23l-17.56 0Z" id="p252w320" />
<path d="M407.09 502.24l35.11 0l0 12.23l-35.11 0Z" id="p252w321" />
<path d="M444.9 501.99l14.79 0l0 12.56l-14.79 0Z" id="p252w322" />
<path d="M325.58 517.52l20.03 0l0 12.23l-20.03 0Z" id="p252w323" />
<path d="M348.31 517.46l24.53 0l0 12.29l-24.53 0Z" id="p252w324" />
<path d="M375.54 517.52l11.94 0l0 12.23l-11.94 0Z" id="p252w325" />
<path d="M390.18 517.52l33.04 0l0 12.23l-33.04 0Z" id="p252w326" />
<path d="M425.93 517.27l14.79 0l0 12.56l-14.79 0Z" id="p252w327" />
<path d="M325.58 532.8l20.03 0l0 12.23l-20.03 0Z" id="p252w328" />
<path d="M348.31 532.75l24.12 0l0 12.29l-24.12 0Z" id="p252w329" />
<path d="M375.13 532.8l17.56 0l0 12.23l-17.56 0Z" id="p252w330" />
<path d="M395.39 532.8l35.35 0l0 12.23l-35.35 0Z" id="p252w331" />
<path d="M433.44 532.56l17.81 0l0 12.56l-17.81 0Z" id="p252w332" />
<path d="M325.58 548.03l27.31 0l0 12.29l-27.31 0ZM355.59 548.09l40.51 0l0 12.23l-40.51 0Z" id="p252w333" />
<path d="M398.81 547.84l17.81 0l0 12.56l-17.81 0Z" id="p252w334" />
<path d="M325.58 563.37l14.41 0l0 12.23l-14.41 0Z" id="p252w335" />
<path d="M342.69 563.31l33.66 0l0 12.29l-33.66 0Z" id="p252w336" />
<path d="M376.34 563.37l24.2 0l0 12.23l-24.2 0Z" id="p252w337" />
<path d="M403.24 563.31l42.55 0l0 12.29l-42.55 0Z" id="p252w338" />
<path d="M448.49 563.37l33.67 0l0 12.23l-33.67 0Z" id="p252w339" />
<path d="M335.43 578.65l38.03 0l0 12.23l-38.03 0Z" id="p252w340" />
<path d="M376.15 578.41l22.96 0l0 12.56l-22.96 0Z" id="p252w341" />
<path d="M325.58 593.94l15.53 0l0 12.23l-15.53 0Z" id="p252w342" />
<path d="M343.81 593.88l29.06 0l0 12.29l-29.06 0Z" id="p252w343" />
<path d="M375.56 593.94l8.33 0l0 12.23l-8.33 0Z" id="p252w344" />
<path d="M386.59 593.94l30.16 0l0 12.23l-30.16 0Z" id="p252w345" />
<path d="M419.45 593.69l18.92 0l0 12.56l-18.92 0Z" id="p252w346" />
<path d="M325.58 609.22l19.44 0l0 12.23l-19.44 0Z" id="p252w347" />
<path d="M347.72 609.16l43.68 0l0 12.29l-43.68 0Z" id="p252w348" />
<path d="M394.1 609.22l21.37 0l0 12.23l-21.37 0Z" id="p252w349" />
<path d="M418.18 609.22l43.44 0l0 12.23l-43.44 0Z" id="p252w350" />
<path d="M472.64 609.22l11.04 0l0 12.23l-11.04 0Z" id="p252w351" />
<path d="M335.43 624.26l18.92 0l0 12.56l-18.92 0Z" id="p252w352" />
<path d="M325.58 639.79l18.46 0l0 12.23l-18.46 0Z" id="p252w353" />
<path d="M346.74 639.79l14.41 0l0 12.23l-14.41 0Z" id="p252w354" />
<path d="M363.85 639.79l20.04 0l0 12.23l-20.04 0Z" id="p252w355" />
<path d="M386.59 639.79l13.28 0l0 12.23l-13.28 0Z" id="p252w356" />
<path d="M402.57 639.79l19.44 0l0 12.23l-19.44 0Z" id="p252w357" />
<path d="M424.71 639.73l46.83 0l0 12.29l-46.83 0Z" id="p252w358" />
<path d="M335.43 655.07l45.23 0l0 12.23l-45.23 0Z" id="p252w359" />
<path d="M383.36 655.07l12.16 0l0 12.23l-12.16 0Z" id="p252w360" />
<path d="M398.22 655.07l37.49 0l0 12.23l-37.49 0Z" id="p252w361" />
<path d="M438.41 655.07l11.04 0l0 12.23l-11.04 0Z" id="p252w362" />
<path d="M452.15 654.82l18.92 0l0 12.56l-18.92 0Z" id="p252w363" />
<path d="M325.58 670.3l51.06 0l0 12.29l-51.06 0Z" id="p252w364" />
<path d="M379.34 670.35l103.87 0l0 12.23l-103.87 0Z" id="p252w365" />
<path d="M335.43 685.39l15.54 0l0 12.56l-15.54 0Z" id="p252w366" />
<path d="M325.58 700.86l53.03 0l0 12.29l-53.03 0Z" id="p252w367" />
<path d="M381.31 700.92l102.07 0l0 12.23l-102.07 0Z" id="p252w368" />
<path d="M335.43 715.96l18.92 0l0 12.56l-18.92 0Z" id="p252w369" />
<path d="M325.58 731.49l18.46 0l0 12.23l-18.46 0Z" id="p252w370" />
<path d="M346.74 731.43l34.66 0l0 12.29l-34.66 0Z" id="p252w371" />
<path d="M384.1 731.49l10.35 0l0 12.23l-10.35 0Z" id="p252w372" />
<path d="M397.15 731.49l43.89 0l0 12.23l-43.89 0Z" id="p252w373" />
<path d="M443.74 731.24l18.17 0l0 12.56l-18.17 0Z" id="p252w374" />
<path d="M325.58 746.71l70.17 0l0 12.29l-70.17 0Z" id="p252w375" />
<path d="M398.45 746.77l77.32 0l0 12.23l-77.32 0Z" id="p252w376" />
<path d="M335.43 762.05l78.77 0l0 12.23l-78.77 0Z" id="p252w377" />
<path d="M416.9 761.81l18.92 0l0 12.56l-18.92 0Z" id="p252w378" />
<path d="M325.58 777.34l19.44 0l0 12.23l-19.44 0Z" id="p252w379" />
<path d="M347.72 777.28l41.17 0l0 12.29l-41.17 0Z" id="p252w380" />
<path d="M391.59 777.34l40.73 0l0 12.23l-40.73 0Z" id="p252w381" />
<path d="M435.02 777.34l11.04 0l0 12.23l-11.04 0Z" id="p252w382" />
<path d="M448.76 777.09l15.54 0l0 12.56l-15.54 0Z" id="p252w383" />
<path d="M478.76 777.34l6.3 0l0 12.23l-6.3 0Z" id="p252w384" />
<path d="M485.06 777.34l12.6 0l0 12.23l-12.6 0Z" id="p252w385" />
<path d="M335.43 792.62l11.04 0l0 12.23l-11.04 0Z" id="p252w386" />
<path d="M349.17 792.38l15.54 0l0 12.56l-15.54 0Z" id="p252w387" />
<path d="M325.58 807.9l18.46 0l0 12.23l-18.46 0Z" id="p252w388" />
<path d="M346.74 807.85l18.33 0l0 12.29l-18.33 0Z" id="p252w389" />
<path d="M365.07 807.85l23.84 0l0 12.29l-23.84 0Z" id="p252w390" />
<path d="M391.61 807.9l10.35 0l0 12.23l-10.35 0Z" id="p252w391" />
<path d="M404.66 807.9l33.77 0l0 12.23l-33.77 0Z" id="p252w392" />
<path d="M441.13 807.66l17.26 0l0 12.56l-17.26 0Z" id="p252w393" />
<path d="M325.58 823.19l16.9 0l0 12.23l-16.9 0Z" id="p252w394" />
<path d="M345.17 823.13l42.53 0l0 12.29l-42.53 0Z" id="p252w395" />
<path d="M390.4 823.19l46.98 0l0 12.23l-46.98 0Z" id="p252w396" />
<path d="M440.09 823.19l12.16 0l0 12.23l-12.16 0Z" id="p252w397" />
<path d="M454.95 822.94l19.58 0l0 12.56l-19.58 0Z" id="p252w398" />
<path d="M325.58 838.47l20.04 0l0 12.23l-20.04 0Z" id="p252w399" />
<path d="M348.32 838.41l46.87 0l0 12.29l-46.87 0Z" id="p252w400" />
<path d="M397.89 838.47l49.52 0l0 12.23l-49.52 0Z" id="p252w401" />
<path d="M450.11 838.47l12.16 0l0 12.23l-12.16 0Z" id="p252w402" />
<path d="M464.97 838.23l19.58 0l0 12.56l-19.58 0Z" id="p252w403" />
<path d="M325.58 853.75l18.46 0l0 12.23l-18.46 0Z" id="p252w404" />
<path d="M346.74 853.7l46.87 0l0 12.29l-46.87 0Z" id="p252w405" />
<path d="M396.32 853.75l10.35 0l0 12.23l-10.35 0Z" id="p252w406" />
<path d="M409.37 853.75l49.52 0l0 12.23l-49.52 0Z" id="p252w407" />
<path d="M461.58 853.51l18.17 0l0 12.56l-18.17 0Z" id="p252w408" />
<path d="M325.58 869.04l20.03 0l0 12.23l-20.03 0Z" id="p252w409" />
<path d="M348.31 868.98l53.78 0l0 12.29l-53.78 0Z" id="p252w410" />
<path d="M404.79 869.04l17.56 0l0 12.23l-17.56 0Z" id="p252w411" />
<path d="M425.05 869.04l45.69 0l0 12.23l-45.69 0Z" id="p252w412" />
<path d="M473.44 868.79l17.26 0l0 12.56l-17.26 0Z" id="p252w413" />
<path d="M325.58 884.32l18.46 0l0 12.23l-18.46 0Z" id="p252w414" />
<path d="M346.74 884.32l13.28 0l0 12.23l-13.28 0Z" id="p252w415" />
<path d="M362.73 884.32l19.44 0l0 12.23l-19.44 0Z" id="p252w416" />
<path d="M384.87 884.27l50.41 0l0 12.29l-50.41 0Z" id="p252w417" />
<path d="M437.97 884.32l10.35 0l0 12.23l-10.35 0Z" id="p252w418" />
<path d="M451.02 884.32l51.32 0l0 12.23l-51.32 0Z" id="p252w419" />
<path d="M335.43 899.6l21.62 0l0 12.23l-21.62 0Z" id="p252w420" />
<path d="M359.75 899.6l11.04 0l0 12.23l-11.04 0Z" id="p252w421" />
<path d="M373.49 899.36l18.01 0l0 12.56l-18.01 0Z" id="p252w422" />
<path d="M325.58 914.83l48.27 0l0 12.29l-48.27 0Z" id="p252w423" />
<path d="M376.55 914.89l84.95 0l0 12.23l-84.95 0Z" id="p252w424" />
<path d="M464.21 914.87l27.91 0l0 12.23l-27.91 0Z" id="p252w425" />
<path d="M335.43 929.93l18.92 0l0 12.56l-18.92 0Z" id="p252w426" />
<path d="M527.1 112.46l48.27 0l0 12.29l-48.27 0Z" id="p252w427" />
<path d="M578.07 112.51l17.12 0l0 12.23l-17.12 0Z" id="p252w428" />
<path d="M597.89 112.51l104.78 0l0 12.23l-104.78 0Z" id="p252w429" />
<path d="M536.95 127.8l11.7 0l0 12.23l-11.7 0Z" id="p252w430" />
<path d="M551.35 127.55l18.92 0l0 12.56l-18.92 0Z" id="p252w431" />
<path d="M527.1 143.03l44.26 0l0 12.29l-44.26 0Z" id="p252w432" />
<path d="M574.06 143.08l55.38 0l0 12.23l-55.38 0Z" id="p252w433" />
<path d="M632.14 142.84l15.54 0l0 12.56l-15.54 0Z" id="p252w434" />
<path d="M536.95 158.36l15.75 0l0 12.23l-15.75 0Z" id="p252w435" />
<path d="M555.4 158.36l19.44 0l0 12.23l-19.44 0Z" id="p252w436" />
<path d="M577.54 158.36l44.29 0l0 12.23l-44.29 0Z" id="p252w437" />
<path d="M624.53 158.36l55.38 0l0 12.23l-55.38 0Z" id="p252w438" />
<path d="M682.61 158.36l15.53 0l0 12.23l-15.53 0Z" id="p252w439" />
<path d="M536.95 173.65l11.04 0l0 12.23l-11.04 0Z" id="p252w440" />
<path d="M550.68 173.4l18.92 0l0 12.56l-18.92 0Z" id="p252w441" />
<path d="M536.95 188.93l32.18 0l0 12.23l-32.18 0Z" id="p252w442" />
<path d="M571.83 188.93l44.29 0l0 12.23l-44.29 0Z" id="p252w443" />
<path d="M618.82 188.93l64.82 0l0 12.23l-64.82 0Z" id="p252w444" />
<path d="M536.95 203.97l18.92 0l0 12.56l-18.92 0Z" id="p252w445" />
<path d="M527.1 219.5l16.9 0l0 12.23l-16.9 0Z" id="p252w446" />
<path d="M546.69 219.44l44.48 0l0 12.29l-44.48 0Z" id="p252w447" />
<path d="M593.88 219.5l63.88 0l0 12.23l-63.88 0Z" id="p252w448" />
<path d="M660.46 219.5l12.16 0l0 12.23l-12.16 0Z" id="p252w449" />
<path d="M675.32 219.25l18.72 0l0 12.56l-18.72 0Z" id="p252w450" />
<path d="M527.1 234.78l19.44 0l0 12.23l-19.44 0Z" id="p252w451" />
<path d="M549.24 234.73l41.88 0l0 12.29l-41.88 0Z" id="p252w452" />
<path d="M593.82 234.78l30.78 0l0 12.23l-30.78 0Z" id="p252w453" />
<path d="M627.3 234.78l11.04 0l0 12.23l-11.04 0Z" id="p252w454" />
<path d="M641.04 234.54l18.92 0l0 12.56l-18.92 0Z" id="p252w455" />
<path d="M527.1 250.06l20.03 0l0 12.23l-20.03 0Z" id="p252w456" />
<path d="M549.83 250.01l60.87 0l0 12.29l-60.87 0Z" id="p252w457" />
<path d="M613.4 250.06l11.94 0l0 12.23l-11.94 0Z" id="p252w458" />
<path d="M628.03 250.06l43.23 0l0 12.23l-43.23 0Z" id="p252w459" />
<path d="M673.96 249.82l18.01 0l0 12.56l-18.01 0Z" id="p252w460" />
<path d="M527.1 265.29l14.52 0l0 12.29l-14.52 0Z" id="p252w461" />
<path d="M544.31 265.35l21.62 0l0 12.23l-21.62 0Z" id="p252w462" />
<path d="M568.63 265.1l14.63 0l0 12.56l-14.63 0Z" id="p252w463" />
<path d="M588.41 265.35l20.25 0l0 12.23l-20.25 0Z" id="p252w464" />
<path d="M611.36 265.35l11.7 0l0 12.23l-11.7 0Z" id="p252w465" />
<path d="M625.77 265.1l18.17 0l0 12.56l-18.17 0Z" id="p252w466" />
<path d="M527.1 280.63l20.04 0l0 12.23l-20.04 0Z" id="p252w467" />
<path d="M549.84 280.58l50.97 0l0 12.29l-50.97 0Z" id="p252w468" />
<path d="M603.51 280.63l19.44 0l0 12.23l-19.44 0Z" id="p252w469" />
<path d="M625.66 280.63l10.82 0l0 12.23l-10.82 0Z" id="p252w470" />
<path d="M639.17 280.63l15.76 0l0 12.23l-15.76 0Z" id="p252w471" />
<path d="M657.63 280.63l48.84 0l0 12.23l-48.84 0Z" id="p252w472" />
<path d="M545.27 295.91l12.16 0l0 12.23l-12.16 0Z" id="p252w473" />
<path d="M568.46 295.91l21.37 0l0 12.23l-21.37 0Z" id="p252w474" />
<path d="M592.53 295.91l11.04 0l0 12.23l-11.04 0Z" id="p252w475" />
<path d="M606.27 295.67l18.92 0l0 12.56l-18.92 0Z" id="p252w476" />
<path d="M527.1 311.14l30.16 0l0 12.29l-30.16 0Z" id="p252w477" />
<path d="M559.95 311.2l44.79 0l0 12.23l-44.79 0Z" id="p252w478" />
<path d="M607.45 311.2l44.57 0l0 12.23l-44.57 0Z" id="p252w479" />
<path d="M654.72 310.95l18.92 0l0 12.56l-18.92 0Z" id="p252w480" />
<path d="M527.1 326.43l37.94 0l0 12.29l-37.94 0Z" id="p252w481" />
<path d="M567.73 326.48l37.81 0l0 12.23l-37.81 0Z" id="p252w482" />
<path d="M608.25 326.24l15.54 0l0 12.56l-15.54 0Z" id="p252w483" />
<path d="M527.1 341.77l14.41 0l0 12.23l-14.41 0Z" id="p252w484" />
<path d="M544.2 341.71l34.56 0l0 12.29l-34.56 0Z" id="p252w485" />
<path d="M581.46 341.77l17.56 0l0 12.23l-17.56 0Z" id="p252w486" />
<path d="M601.72 341.77l52.46 0l0 12.23l-52.46 0Z" id="p252w487" />
<path d="M656.89 341.52l18.01 0l0 12.56l-18.01 0Z" id="p252w488" />
<path d="M527.1 356.99l39.09 0l0 12.29l-39.09 0Z" id="p252w489" />
<path d="M568.89 357.05l67.46 0l0 12.23l-67.46 0Z" id="p252w490" />
<path d="M639.05 356.8l18.92 0l0 12.56l-18.92 0Z" id="p252w491" />
<path d="M527.1 372.33l19.44 0l0 12.23l-19.44 0Z" id="p252w492" />
<path d="M549.24 372.28l53.42 0l0 12.29l-53.42 0Z" id="p252w493" />
<path d="M605.36 372.33l37.59 0l0 12.23l-37.59 0Z" id="p252w494" />
<path d="M645.65 372.33l27.37 0l0 12.23l-27.37 0Z" id="p252w495" />
<path d="M675.72 372.09l18.72 0l0 12.56l-18.72 0Z" id="p252w496" />
<path d="M527.1 387.62l14.41 0l0 12.23l-14.41 0Z" id="p252w497" />
<path d="M544.2 387.56l33.41 0l0 12.29l-33.41 0Z" id="p252w498" />
<path d="M577.62 387.62l24.2 0l0 12.23l-24.2 0Z" id="p252w499" />
<path d="M604.51 387.56l42.3 0l0 12.29l-42.3 0Z" id="p252w500" />
<path d="M649.52 387.62l11.94 0l0 12.23l-11.94 0Z" id="p252w501" />
<path d="M664.16 387.62l30.9 0l0 12.23l-30.9 0Z" id="p252w502" />
<path d="M536.95 402.9l17.56 0l0 12.23l-17.56 0Z" id="p252w503" />
<path d="M557.21 402.9l26.73 0l0 12.23l-26.73 0Z" id="p252w504" />
<path d="M586.64 402.65l18.01 0l0 12.56l-18.01 0Z" id="p252w505" />
<path d="M527.1 418.13l38.74 0l0 12.29l-38.74 0Z" id="p252w506" />
<path d="M568.53 418.18l26.05 0l0 12.23l-26.05 0Z" id="p252w507" />
<path d="M597.29 417.94l18.01 0l0 12.56l-18.01 0Z" id="p252w508" />
<path d="M527.1 433.47l40.5 0l0 12.23l-40.5 0Z" id="p252w509" />
<path d="M570.3 433.41l47.84 0l0 12.29l-47.84 0Z" id="p252w510" />
<path d="M620.84 433.47l49.51 0l0 12.23l-49.51 0Z" id="p252w511" />
<path d="M673.05 433.47l16.33 0l0 12.23l-16.33 0Z" id="p252w512" />
<path d="M536.95 448.75l11.04 0l0 12.23l-11.04 0Z" id="p252w513" />
<path d="M550.68 448.5l14.41 0l0 12.56l-14.41 0Z" id="p252w514" />
<path d="M527.1 464.03l16.9 0l0 12.23l-16.9 0Z" id="p252w515" />
<path d="M546.69 463.98l75.86 0l0 12.29l-75.86 0Z" id="p252w516" />
<path d="M625.26 464.03l38.94 0l0 12.23l-38.94 0Z" id="p252w517" />
<path d="M666.89 464.03l12.16 0l0 12.23l-12.16 0Z" id="p252w518" />
<path d="M536.95 479.07l18.92 0l0 12.56l-18.92 0Z" id="p252w519" />
<path d="M527.1 494.6l19.44 0l0 12.23l-19.44 0Z" id="p252w520" />
<path d="M549.24 494.54l44.19 0l0 12.29l-44.19 0Z" id="p252w521" />
<path d="M596.13 494.6l31.96 0l0 12.23l-31.96 0Z" id="p252w522" />
<path d="M630.79 494.6l11.04 0l0 12.23l-11.04 0Z" id="p252w523" />
<path d="M644.53 494.35l14.43 0l0 12.56l-14.43 0Z" id="p252w524" />
<path d="M527.1 509.88l14.41 0l0 12.23l-14.41 0Z" id="p252w525" />
<path d="M544.2 509.83l42.69 0l0 12.29l-42.69 0Z" id="p252w526" />
<path d="M586.9 509.88l24.2 0l0 12.23l-24.2 0Z" id="p252w527" />
<path d="M613.8 509.83l51.59 0l0 12.29l-51.59 0Z" id="p252w528" />
<path d="M668.08 509.88l11.94 0l0 12.23l-11.94 0Z" id="p252w529" />
<path d="M536.95 525.17l68.99 0l0 12.23l-68.99 0Z" id="p252w530" />
<path d="M608.64 525.17l49.06 0l0 12.23l-49.06 0Z" id="p252w531" />
<path d="M660.4 524.92l18.92 0l0 12.56l-18.92 0Z" id="p252w532" />
<path d="M527.1 540.45l40.5 0l0 12.23l-40.5 0Z" id="p252w533" />
<path d="M570.3 540.39l55.61 0l0 12.29l-55.61 0Z" id="p252w534" />
<path d="M628.61 540.45l40.74 0l0 12.23l-40.74 0Z" id="p252w535" />
<path d="M672.05 540.45l27.37 0l0 12.23l-27.37 0Z" id="p252w536" />
<path d="M536.95 555.49l18.72 0l0 12.56l-18.72 0Z" id="p252w537" />
<path d="M527.1 571.02l14.41 0l0 12.23l-14.41 0Z" id="p252w538" />
<path d="M544.2 570.96l116.22 0l0 12.29l-116.22 0Z" id="p252w539" />
<path d="M536.95 586.28l50.89 0l0 12.23l-50.89 0Z" id="p252w540" />
<path d="M590.53 586.28l15.08 0l0 12.23l-15.08 0Z" id="p252w541" />
<path d="M608.32 586.28l23.41 0l0 12.23l-23.41 0Z" id="p252w542" />
<path d="M634.43 586.28l15.31 0l0 12.23l-15.31 0Z" id="p252w543" />
<path d="M667.27 586.29l11.94 0l0 12.23l-11.94 0Z" id="p252w544" />
<path d="M681.9 586.29l25.82 0l0 12.23l-25.82 0Z" id="p252w545" />
<path d="M536.94 601.58l63.03 0l0 12.23l-63.03 0Z" id="p252w546" />
<path d="M602.68 601.33l17.81 0l0 12.56l-17.81 0Z" id="p252w547" />
<path d="M527.09 616.86l14.41 0l0 12.23l-14.41 0Z" id="p252w548" />
<path d="M544.2 616.81l35.34 0l0 12.29l-35.34 0Z" id="p252w549" />
<path d="M582.23 616.86l11.94 0l0 12.23l-11.94 0Z" id="p252w550" />
<path d="M596.87 616.86l43.64 0l0 12.23l-43.64 0Z" id="p252w551" />
<path d="M643.21 616.86l11.94 0l0 12.23l-11.94 0Z" id="p252w552" />
<path d="M657.85 616.86l34.43 0l0 12.23l-34.43 0Z" id="p252w553" />
<path d="M536.94 631.9l17.81 0l0 12.56l-17.81 0Z" id="p252w554" />
<path d="M527.09 647.37l27.91 0l0 12.29l-27.91 0Z" id="p252w555" />
<path d="M557.7 647.43l48.5 0l0 12.23l-48.5 0Z" id="p252w556" />
<path d="M608.9 647.18l15.54 0l0 12.56l-15.54 0Z" id="p252w557" />
<path d="M527.09 662.71l14.41 0l0 12.23l-14.41 0Z" id="p252w558" />
<path d="M544.2 662.66l33.73 0l0 12.29l-33.73 0Z" id="p252w559" />
<path d="M580.63 662.71l11.94 0l0 12.23l-11.94 0Z" id="p252w560" />
<path d="M595.27 662.71l34.89 0l0 12.23l-34.89 0Z" id="p252w561" />
<path d="M632.86 662.47l18.92 0l0 12.56l-18.92 0Z" id="p252w562" />
<path d="M527.09 677.94l44.76 0l0 12.29l-44.76 0Z" id="p252w563" />
<path d="M574.55 677.99l48.78 0l0 12.23l-48.78 0Z" id="p252w564" />
<path d="M626.04 677.75l18.01 0l0 12.56l-18.01 0Z" id="p252w565" />
<path d="M527.09 693.28l14.41 0l0 12.23l-14.41 0Z" id="p252w566" />
<path d="M544.2 693.22l25.95 0l0 12.29l-25.95 0Z" id="p252w567" />
<path d="M572.85 693.28l11.94 0l0 12.23l-11.94 0Z" id="p252w568" />
<path d="M587.49 693.28l30.82 0l0 12.23l-30.82 0Z" id="p252w569" />
<path d="M621.02 693.03l18.92 0l0 12.56l-18.92 0Z" id="p252w570" />
<path d="M527.09 708.56l16.9 0l0 12.23l-16.9 0Z" id="p252w571" />
<path d="M546.69 708.51l48.05 0l0 12.29l-48.05 0Z" id="p252w572" />
<path d="M597.44 708.56l37.8 0l0 12.23l-37.8 0Z" id="p252w573" />
<path d="M637.94 708.56l12.16 0l0 12.23l-12.16 0Z" id="p252w574" />
<path d="M652.81 708.32l15.54 0l0 12.56l-15.54 0Z" id="p252w575" />
<path d="M527.09 723.84l18.46 0l0 12.23l-18.46 0Z" id="p252w576" />
<path d="M548.26 723.79l48.05 0l0 12.29l-48.05 0Z" id="p252w577" />
<path d="M599.01 723.84l10.35 0l0 12.23l-10.35 0Z" id="p252w578" />
<path d="M612.06 723.84l31.96 0l0 12.23l-31.96 0Z" id="p252w579" />
<path d="M646.71 723.6l18.72 0l0 12.56l-18.72 0Z" id="p252w580" />
<path d="M527.09 739.07l40.86 0l0 12.29l-40.86 0Z" id="p252w581" />
<path d="M570.65 739.13l34.43 0l0 12.23l-34.43 0Z" id="p252w582" />
<path d="M607.79 738.88l14.63 0l0 12.56l-14.63 0Z" id="p252w583" />
<path d="M527.09 754.41l16.9 0l0 12.23l-16.9 0Z" id="p252w584" />
<path d="M546.69 754.36l43.18 0l0 12.29l-43.18 0Z" id="p252w585" />
<path d="M592.57 754.41l36.02 0l0 12.23l-36.02 0Z" id="p252w586" />
<path d="M631.3 754.41l12.16 0l0 12.23l-12.16 0Z" id="p252w587" />
<path d="M646.16 754.17l18.92 0l0 12.56l-18.92 0Z" id="p252w588" />
<path d="M527.09 769.7l18.46 0l0 12.23l-18.46 0Z" id="p252w589" />
<path d="M548.26 769.64l60.91 0l0 12.29l-60.91 0Z" id="p252w590" />
<path d="M611.87 769.7l15.75 0l0 12.23l-15.75 0Z" id="p252w591" />
<path d="M630.32 769.7l43.65 0l0 12.23l-43.65 0Z" id="p252w592" />
<path d="M536.94 784.98l43.46 0l0 12.23l-43.46 0Z" id="p252w593" />
<path d="M583.1 784.98l11.7 0l0 12.23l-11.7 0Z" id="p252w594" />
<path d="M597.51 784.98l27.37 0l0 12.23l-27.37 0Z" id="p252w595" />
<path d="M627.57 784.73l15.54 0l0 12.56l-15.54 0Z" id="p252w596" />
<path d="M527.09 800.26l21.39 0l0 12.23l-21.39 0Z" id="p252w597" />
<path d="M551.18 800.26l19.44 0l0 12.23l-19.44 0Z" id="p252w598" />
<path d="M573.32 800.21l42.4 0l0 12.29l-42.4 0Z" id="p252w599" />
<path d="M618.43 800.26l32.18 0l0 12.23l-32.18 0Z" id="p252w600" />
<path d="M653.31 800.26l18.9 0l0 12.23l-18.9 0Z" id="p252w601" />
<path d="M674.9 800.26l11.48 0l0 12.23l-11.48 0Z" id="p252w602" />
<path d="M536.94 815.55l35.8 0l0 12.23l-35.8 0Z" id="p252w603" />
<path d="M575.44 815.55l11.7 0l0 12.23l-11.7 0Z" id="p252w604" />
<path d="M589.85 815.55l11.04 0l0 12.23l-11.04 0Z" id="p252w605" />
<path d="M603.59 815.3l18.92 0l0 12.56l-18.92 0Z" id="p252w606" />
<path d="M527.09 830.77l56.54 0l0 12.29l-56.54 0Z" id="p252w607" />
<path d="M588.59 830.83l19.44 0l0 12.23l-19.44 0Z" id="p252w608" />
<path d="M610.73 830.83l10.82 0l0 12.23l-10.82 0Z" id="p252w609" />
<path d="M624.25 830.83l15.76 0l0 12.23l-15.76 0Z" id="p252w610" />
<path d="M642.71 830.83l34.89 0l0 12.23l-34.89 0Z" id="p252w611" />
<path d="M680.3 830.83l11.7 0l0 12.23l-11.7 0Z" id="p252w612" />
<path d="M536.94 846.11l21.37 0l0 12.23l-21.37 0Z" id="p252w613" />
<path d="M561.02 846.11l11.04 0l0 12.23l-11.04 0Z" id="p252w614" />
<path d="M574.75 845.87l15.34 0l0 12.56l-15.34 0Z" id="p252w615" />
<path d="M527.09 861.4l20.04 0l0 12.23l-20.04 0Z" id="p252w616" />
<path d="M549.83 861.4l19.44 0l0 12.23l-19.44 0Z" id="p252w617" />
<path d="M571.98 861.34l57.28 0l0 12.29l-57.28 0Z" id="p252w618" />
<path d="M631.95 861.4l32.63 0l0 12.23l-32.63 0Z" id="p252w619" />
<path d="M667.29 861.4l11.04 0l0 12.23l-11.04 0Z" id="p252w620" />
<path d="M689.35 861.4l12.16 0l0 12.23l-12.16 0Z" id="p252w621" />
<path d="M536.94 876.43l15.54 0l0 12.56l-15.54 0Z" id="p252w622" />
<path d="M527.09 891.96l20.03 0l0 12.23l-20.03 0Z" id="p252w623" />
<path d="M549.82 891.91l64.18 0l0 12.29l-64.18 0Z" id="p252w624" />
<path d="M616.7 891.96l17.56 0l0 12.23l-17.56 0Z" id="p252w625" />
<path d="M636.97 891.96l52.45 0l0 12.23l-52.45 0Z" id="p252w626" />
<path d="M536.94 907l15.54 0l0 12.56l-15.54 0Z" id="p252w627" />
<path d="M527.09 922.53l18.46 0l0 12.23l-18.46 0Z" id="p252w628" />
<path d="M548.26 922.53l21.39 0l0 12.23l-21.39 0Z" id="p252w629" />
<path d="M572.34 922.53l40.5 0l0 12.23l-40.5 0Z" id="p252w630" />
<path d="M615.55 922.47l56.6 0l0 12.29l-56.6 0Z" id="p252w631" />
<path d="M674.85 922.53l10.35 0l0 12.23l-10.35 0Z" id="p252w632" />
<path d="M536.94 937.81l38.71 0l0 12.23l-38.71 0Z" id="p252w633" />
<path d="M578.36 937.81l11.7 0l0 12.23l-11.7 0Z" id="p252w634" />
<path d="M592.76 937.81l27.37 0l0 12.23l-27.37 0Z" id="p252w635" />
<path d="M622.83 937.57l18.92 0l0 12.56l-18.92 0Z" id="p252w636" />
</svg>
