<?xml version="1.0" encoding="UTF-8"?>
<svg xmlns="http://www.w3.org/2000/svg" xmlns:xlink="http://www.w3.org/1999/xlink" version="1.1" baseProfile="full" width="768" height="1024" viewBox="0,0,768,1024" preserveAspectRatio="xMinYMin meet" >
<style type="text/css">
<![CDATA[
path {fill-opacity: 0.5;fill: #00aeef;visibility: hidden;}
]]>
</style>
<path d="M124.06 107.98l31.66 0l0 18.84l-31.66 0Z" id="p98w1" />
<path d="M159.37 107.98l22.01 0l0 18.84l-22.01 0Z" id="p98w2" />
<path d="M124.06 139.19l46.51 0l0 14.52l-46.51 0Z" id="p98w3" />
<path d="M173.78 139.19l42.07 0l0 14.52l-42.07 0Z" id="p98w4" />
<path d="M219.06 139.19l25.94 0l0 14.52l-25.94 0Z" id="p98w5" />
<path d="M248.2 139.19l11.22 0l0 14.52l-11.22 0Z" id="p98w6" />
<path d="M262.63 139.19l31.81 0l0 14.52l-31.81 0Z" id="p98w7" />
<path d="M297.65 139.19l51.86 0l0 14.52l-51.86 0Z" id="p98w8" />
<path d="M352.71 139.19l19.51 0l0 14.52l-19.51 0Z" id="p98w9" />
<path d="M375.43 139.19l62.01 0l0 14.52l-62.01 0Z" id="p98w10" />
<path d="M440.65 139.19l28.6 0l0 14.52l-28.6 0Z" id="p98w11" />
<path d="M472.46 139.19l18.72 0l0 14.52l-18.72 0Z" id="p98w12" />
<path d="M494.38 139.19l66.54 0l0 14.52l-66.54 0Z" id="p98w13" />
<path d="M124.06 155.86l29.66 0l0 14.52l-29.66 0Z" id="p98w14" />
<path d="M156.93 155.86l63.82 0l0 14.52l-63.82 0Z" id="p98w15" />
<path d="M223.95 155.86l11.22 0l0 14.52l-11.22 0Z" id="p98w16" />
<path d="M238.38 155.86l9.89 0l0 14.52l-9.89 0Z" id="p98w17" />
<path d="M251.47 155.86l39.57 0l0 14.52l-39.57 0Z" id="p98w18" />
<path d="M294.25 155.86l59.34 0l0 14.52l-59.34 0Z" id="p98w19" />
<path d="M356.81 155.86l25.4 0l0 14.52l-25.4 0Z" id="p98w20" />
<path d="M385.41 155.86l14.18 0l0 14.52l-14.18 0Z" id="p98w21" />
<path d="M402.79 155.79l45.09 0l0 14.6l-45.09 0Z" id="p98w22" />
<path d="M451.09 155.79l13.78 0l0 14.6l-13.78 0Z" id="p98w23" />
<path d="M468.08 155.79l61.05 0l0 14.6l-61.05 0Z" id="p98w24" />
<path d="M143.75 182.64l26.99 0l0 12.29l-26.99 0Z" id="p98w25" />
<path d="M179.57 180.87l14.18 0l0 14.52l-14.18 0Z" id="p98w26" />
<path d="M196.96 180.87l39.57 0l0 14.52l-39.57 0Z" id="p98w27" />
<path d="M239.74 180.87l9.89 0l0 14.52l-9.89 0Z" id="p98w28" />
<path d="M252.83 180.87l21.67 0l0 14.52l-21.67 0Z" id="p98w29" />
<path d="M277.71 180.87l14.18 0l0 14.52l-14.18 0Z" id="p98w30" />
<path d="M295.09 180.87l38.69 0l0 14.52l-38.69 0Z" id="p98w31" />
<path d="M369.85 180.87l26.99 0l0 14.52l-26.99 0Z" id="p98w32" />
<path d="M400.05 180.87l29.95 0l0 14.52l-29.95 0Z" id="p98w33" />
<path d="M433.2 180.87l62.21 0l0 14.52l-62.21 0Z" id="p98w34" />
<path d="M143.75 199.32l10.06 0l0 12.29l-10.06 0Z" id="p98w35" />
<path d="M153.81 199.32l11.93 0l0 12.29l-11.93 0Z" id="p98w36" />
<path d="M174.57 197.54l26.19 0l0 14.52l-26.19 0Z" id="p98w37" />
<path d="M203.97 197.54l22.99 0l0 14.52l-22.99 0Z" id="p98w38" />
<path d="M230.17 197.54l26.19 0l0 14.52l-26.19 0Z" id="p98w39" />
<path d="M259.56 197.54l31.01 0l0 14.52l-31.01 0Z" id="p98w40" />
<path d="M293.77 197.54l20.85 0l0 14.52l-20.85 0Z" id="p98w41" />
<path d="M317.84 197.54l15.5 0l0 14.52l-15.5 0Z" id="p98w42" />
<path d="M336.54 197.54l26.66 0l0 14.52l-26.66 0Z" id="p98w43" />
<path d="M366.41 197.54l39.81 0l0 14.52l-39.81 0Z" id="p98w44" />
<path d="M442.28 197.54l63.82 0l0 14.52l-63.82 0Z" id="p98w45" />
<path d="M519.2 197.54l28.33 0l0 14.52l-28.33 0Z" id="p98w46" />
<path d="M550.73 197.54l9.89 0l0 14.52l-9.89 0Z" id="p98w47" />
<path d="M563.82 197.54l24.59 0l0 14.52l-24.59 0Z" id="p98w48" />
<path d="M153.81 214.21l11.22 0l0 14.52l-11.22 0Z" id="p98w49" />
<path d="M168.24 214.21l29.96 0l0 14.52l-29.96 0Z" id="p98w50" />
<path d="M201.41 214.21l12.02 0l0 14.52l-12.02 0Z" id="p98w51" />
<path d="M216.64 214.21l45.96 0l0 14.52l-45.96 0Z" id="p98w52" />
<path d="M298.67 214.22l26.99 0l0 14.52l-26.99 0Z" id="p98w53" />
<path d="M328.87 214.22l14.18 0l0 14.52l-14.18 0Z" id="p98w54" />
<path d="M346.25 214.22l34.57 0l0 14.52l-34.57 0Z" id="p98w55" />
<path d="M384.03 214.22l9.89 0l0 14.52l-9.89 0Z" id="p98w56" />
<path d="M397.12 214.22l21.67 0l0 14.52l-21.67 0Z" id="p98w57" />
<path d="M143.75 232.66l12.38 0l0 12.29l-12.38 0Z" id="p98w58" />
<path d="M156.14 232.66l14.61 0l0 12.29l-14.61 0Z" id="p98w59" />
<path d="M179.57 230.89l36.63 0l0 14.52l-36.63 0Z" id="p98w60" />
<path d="M219.41 230.89l9.62 0l0 14.52l-9.62 0Z" id="p98w61" />
<path d="M232.24 230.89l44.11 0l0 14.52l-44.11 0Z" id="p98w62" />
<path d="M279.56 230.89l46.78 0l0 14.52l-46.78 0Z" id="p98w63" />
<path d="M329.54 230.89l16.83 0l0 14.52l-16.83 0Z" id="p98w64" />
<path d="M349.58 230.89l59.78 0l0 14.52l-59.78 0Z" id="p98w65" />
<path d="M422.45 230.89l41.96 0l0 14.52l-41.96 0Z" id="p98w66" />
<path d="M467.62 230.89l14.8 0l0 14.52l-14.8 0Z" id="p98w67" />
<path d="M485.63 230.89l66.81 0l0 14.52l-66.81 0Z" id="p98w68" />
<path d="M156.13 247.56l20.85 0l0 14.52l-20.85 0Z" id="p98w69" />
<path d="M180.19 247.56l15.5 0l0 14.52l-15.5 0Z" id="p98w70" />
<path d="M198.9 247.56l36.09 0l0 14.52l-36.09 0Z" id="p98w71" />
<path d="M238.19 247.56l43.83 0l0 14.52l-43.83 0Z" id="p98w72" />
<path d="M285.23 247.56l40.09 0l0 14.52l-40.09 0Z" id="p98w73" />
<path d="M361.39 247.56l48.39 0l0 14.52l-48.39 0Z" id="p98w74" />
<path d="M412.99 247.56l20.85 0l0 14.52l-20.85 0Z" id="p98w75" />
<path d="M437.05 247.56l15.5 0l0 14.52l-15.5 0Z" id="p98w76" />
<path d="M455.75 247.56l36.09 0l0 14.52l-36.09 0Z" id="p98w77" />
<path d="M495.05 247.56l60.14 0l0 14.52l-60.14 0Z" id="p98w78" />
<path d="M143.75 266.01l21.99 0l0 12.29l-21.99 0Z" id="p98w79" />
<path d="M174.21 264.23l12.41 0l0 14.52l-12.41 0Z" id="p98w80" />
<path d="M189.83 264.23l41.17 0l0 14.52l-41.17 0Z" id="p98w81" />
<path d="M242.49 264.23l23.8 0l0 14.52l-23.8 0Z" id="p98w82" />
<path d="M269.5 264.23l14.8 0l0 14.52l-14.8 0Z" id="p98w83" />
<path d="M287.5 264.23l66.81 0l0 14.52l-66.81 0Z" id="p98w84" />
<path d="M357.53 264.23l30.23 0l0 14.52l-30.23 0Z" id="p98w85" />
<path d="M390.96 264.23l21.65 0l0 14.52l-21.65 0Z" id="p98w86" />
<path d="M448.67 264.23l48.39 0l0 14.52l-48.39 0Z" id="p98w87" />
<path d="M500.27 264.23l20.85 0l0 14.52l-20.85 0Z" id="p98w88" />
<path d="M524.33 264.23l28.35 0l0 14.52l-28.35 0Z" id="p98w89" />
<path d="M143.75 282.68l26.99 0l0 12.29l-26.99 0Z" id="p98w90" />
<path d="M179.57 280.91l11.5 0l0 14.52l-11.5 0Z" id="p98w91" />
<path d="M194.28 280.91l14.8 0l0 14.52l-14.8 0Z" id="p98w92" />
<path d="M212.28 280.91l54.25 0l0 14.52l-54.25 0Z" id="p98w93" />
<path d="M269.74 280.91l29.39 0l0 14.52l-29.39 0Z" id="p98w94" />
<path d="M302.34 280.91l32.35 0l0 14.52l-32.35 0Z" id="p98w95" />
<path d="M344.31 280.91l28.35 0l0 14.52l-28.35 0Z" id="p98w96" />
<path d="M375.87 280.91l15.5 0l0 14.52l-15.5 0Z" id="p98w97" />
<path d="M394.58 280.91l48.39 0l0 14.52l-48.39 0Z" id="p98w98" />
<path d="M446.17 280.91l25.67 0l0 14.52l-25.67 0Z" id="p98w99" />
<path d="M475.05 280.91l34.21 0l0 14.52l-34.21 0Z" id="p98w100" />
<path d="M545.33 280.91l24.85 0l0 14.52l-24.85 0Z" id="p98w101" />
<path d="M573.39 280.91l20.85 0l0 14.52l-20.85 0Z" id="p98w102" />
<path d="M597.45 280.91l26.74 0l0 14.52l-26.74 0Z" id="p98w103" />
<path d="M143.75 299.35l10.06 0l0 12.29l-10.06 0Z" id="p98w104" />
<path d="M153.81 299.35l11.93 0l0 12.29l-11.93 0Z" id="p98w105" />
<path d="M174.57 297.58l53.91 0l0 14.52l-53.91 0Z" id="p98w106" />
<path d="M231.68 297.58l26.45 0l0 14.52l-26.45 0Z" id="p98w107" />
<path d="M261.34 297.58l28.35 0l0 14.52l-28.35 0Z" id="p98w108" />
<path d="M292.9 297.58l25.67 0l0 14.52l-25.67 0Z" id="p98w109" />
<path d="M321.78 297.58l52.12 0l0 14.52l-52.12 0Z" id="p98w110" />
<path d="M377.11 297.58l15.5 0l0 14.52l-15.5 0Z" id="p98w111" />
<path d="M395.82 297.58l43.5 0l0 14.52l-43.5 0Z" id="p98w112" />
<path d="M475.39 297.58l66.29 0l0 14.52l-66.29 0Z" id="p98w113" />
<path d="M143.75 316.03l26.99 0l0 12.29l-26.99 0Z" id="p98w114" />
<path d="M179.57 314.25l14.97 0l0 14.52l-14.97 0Z" id="p98w115" />
<path d="M197.75 314.25l21.4 0l0 14.52l-21.4 0Z" id="p98w116" />
<path d="M230.64 314.25l23.8 0l0 14.52l-23.8 0Z" id="p98w117" />
<path d="M257.65 314.25l9.62 0l0 14.52l-9.62 0Z" id="p98w118" />
<path d="M270.48 314.25l35.56 0l0 14.52l-35.56 0Z" id="p98w119" />
<path d="M309.24 314.25l20.85 0l0 14.52l-20.85 0Z" id="p98w120" />
<path d="M333.31 314.25l11.5 0l0 14.52l-11.5 0Z" id="p98w121" />
<path d="M348.01 314.25l33.94 0l0 14.52l-33.94 0Z" id="p98w122" />
<path d="M418.01 314.25l28.6 0l0 14.52l-28.6 0Z" id="p98w123" />
<path d="M449.82 314.25l51.85 0l0 14.52l-51.85 0Z" id="p98w124" />
<path d="M504.87 314.25l20.85 0l0 14.52l-20.85 0Z" id="p98w125" />
<path d="M528.94 314.25l21.12 0l0 14.52l-21.12 0Z" id="p98w126" />
<path d="M553.26 314.25l46.51 0l0 14.52l-46.51 0Z" id="p98w127" />
<path d="M124.06 347.59l46.51 0l0 14.52l-46.51 0Z" id="p98w128" />
<path d="M173.78 347.59l21.38 0l0 14.52l-21.38 0Z" id="p98w129" />
<path d="M198.37 347.59l50.5 0l0 14.52l-50.5 0Z" id="p98w130" />
<path d="M252.08 347.59l56.94 0l0 14.52l-56.94 0Z" id="p98w131" />
<path d="M312.23 347.59l15.5 0l0 14.52l-15.5 0Z" id="p98w132" />
<path d="M330.93 347.59l66.55 0l0 14.52l-66.55 0Z" id="p98w133" />
<path d="M400.69 347.59l13.9 0l0 14.52l-13.9 0Z" id="p98w134" />
<path d="M417.8 347.59l40.71 0l0 14.52l-40.71 0Z" id="p98w135" />
<path d="M461.71 347.59l18.72 0l0 14.52l-18.72 0Z" id="p98w136" />
<path d="M483.64 347.59l18.7 0l0 14.52l-18.7 0Z" id="p98w137" />
<path d="M505.55 347.59l14.18 0l0 14.52l-14.18 0Z" id="p98w138" />
<path d="M522.93 347.59l16.58 0l0 14.52l-16.58 0Z" id="p98w139" />
<path d="M542.72 347.59l25.67 0l0 14.52l-25.67 0Z" id="p98w140" />
<path d="M571.6 347.59l58 0l0 14.52l-58 0Z" id="p98w141" />
<path d="M133.95 364.27l12.29 0l0 14.52l-12.29 0Z" id="p98w142" />
<path d="M149.44 364.27l55.61 0l0 14.52l-55.61 0Z" id="p98w143" />
<path d="M219.21 364.27l26.46 0l0 14.52l-26.46 0Z" id="p98w144" />
<path d="M248.89 364.27l20.85 0l0 14.52l-20.85 0Z" id="p98w145" />
<path d="M272.95 364.27l51.07 0l0 14.52l-51.07 0Z" id="p98w146" />
<path d="M338.46 364.27l42.51 0l0 14.52l-42.51 0Z" id="p98w147" />
<path d="M384.18 364.27l22.73 0l0 14.52l-22.73 0Z" id="p98w148" />
<path d="M410.12 364.27l46.73 0l0 14.52l-46.73 0Z" id="p98w149" />
<path d="M460.05 364.27l13.9 0l0 14.52l-13.9 0Z" id="p98w150" />
<path d="M477.16 364.27l23.8 0l0 14.52l-23.8 0Z" id="p98w151" />
<path d="M139.56 389.29l12.83 0l0 14.61l-12.83 0Z" id="p98w152" />
<path d="M155.6 389.29l56.66 0l0 14.61l-56.66 0Z" id="p98w153" />
<path d="M215.3 389.29l48.82 0l0 14.61l-48.82 0Z" id="p98w154" />
<path d="M267.33 389.29l20.84 0l0 14.61l-20.84 0Z" id="p98w155" />
<path d="M291.38 389.29l11.48 0l0 14.61l-11.48 0Z" id="p98w156" />
<path d="M306.07 389.29l19.71 0l0 14.61l-19.71 0Z" id="p98w157" />
<path d="M328.99 389.29l9.89 0l0 14.61l-9.89 0Z" id="p98w158" />
<path d="M342.08 389.29l22.98 0l0 14.61l-22.98 0Z" id="p98w159" />
<path d="M368.27 389.29l43.83 0l0 14.61l-43.83 0Z" id="p98w160" />
<path d="M139.65 405.97l12.83 0l0 14.61l-12.83 0Z" id="p98w161" />
<path d="M155.69 405.97l56.66 0l0 14.61l-56.66 0Z" id="p98w162" />
<path d="M215.39 405.97l9.89 0l0 14.61l-9.89 0Z" id="p98w163" />
<path d="M228.48 405.97l21.22 0l0 14.61l-21.22 0Z" id="p98w164" />
<path d="M252.91 405.97l9.89 0l0 14.61l-9.89 0Z" id="p98w165" />
<path d="M266.01 405.97l22.98 0l0 14.61l-22.98 0Z" id="p98w166" />
<path d="M292.2 405.97l43.83 0l0 14.61l-43.83 0Z" id="p98w167" />
<path d="M349.06 405.97l9.82 0l0 14.61l-9.82 0Z" id="p98w168" />
<path d="M362.09 405.97l41.43 0l0 14.61l-41.43 0Z" id="p98w169" />
<path d="M124.06 430.97l12.83 0l0 14.52l-12.83 0Z" id="p98w170" />
<path d="M140.1 430.97l56.85 0l0 14.52l-56.85 0Z" id="p98w171" />
<path d="M200.16 430.97l49.1 0l0 14.52l-49.1 0Z" id="p98w172" />
<path d="M252.47 430.97l20.85 0l0 14.52l-20.85 0Z" id="p98w173" />
<path d="M276.53 430.97l11.5 0l0 14.52l-11.5 0Z" id="p98w174" />
<path d="M291.23 430.97l33.09 0l0 14.52l-33.09 0Z" id="p98w175" />
<path d="M332.57 430.97l25.4 0l0 14.52l-25.4 0Z" id="p98w176" />
<path d="M361.18 430.97l21.65 0l0 14.52l-21.65 0Z" id="p98w177" />
<path d="M386.03 430.97l11.22 0l0 14.52l-11.22 0Z" id="p98w178" />
<path d="M400.46 430.97l38.17 0l0 14.52l-38.17 0Z" id="p98w179" />
<path d="M124.06 447.64l27.8 0l0 14.52l-27.8 0Z" id="p98w180" />
<path d="M155.07 447.64l11.22 0l0 14.52l-11.22 0Z" id="p98w181" />
<path d="M169.49 447.64l40.89 0l0 14.52l-40.89 0Z" id="p98w182" />
<path d="M213.59 447.64l25.4 0l0 14.52l-25.4 0Z" id="p98w183" />
<path d="M242.2 447.64l17.38 0l0 14.52l-17.38 0Z" id="p98w184" />
<path d="M262.79 447.64l33.05 0l0 14.52l-33.05 0Z" id="p98w185" />
<path d="M299.05 447.64l20.85 0l0 14.52l-20.85 0Z" id="p98w186" />
<path d="M323.11 447.64l11.5 0l0 14.52l-11.5 0Z" id="p98w187" />
<path d="M337.81 447.64l64.9 0l0 14.52l-64.9 0Z" id="p98w188" />
<path d="M410.96 447.64l17.38 0l0 14.52l-17.38 0Z" id="p98w189" />
<path d="M124.06 464.31l12.29 0l0 14.52l-12.29 0Z" id="p98w190" />
<path d="M139.56 464.31l52.9 0l0 14.52l-52.9 0Z" id="p98w191" />
<path d="M200.71 464.31l12.29 0l0 14.52l-12.29 0Z" id="p98w192" />
<path d="M216.21 464.31l36.03 0l0 14.52l-36.03 0Z" id="p98w193" />
<path d="M260.49 464.31l17.38 0l0 14.52l-17.38 0Z" id="p98w194" />
<path d="M281.08 464.31l57.77 0l0 14.52l-57.77 0Z" id="p98w195" />
<path d="M124.06 508.13l9.45 0l0 18.84l-9.45 0Z" id="p98w196" />
<path d="M137.57 508.13l31.29 0l0 18.84l-31.29 0Z" id="p98w197" />
<path d="M172.91 508.13l43.9 0l0 18.84l-43.9 0Z" id="p98w198" />
<path d="M220.86 508.13l17.56 0l0 18.84l-17.56 0Z" id="p98w199" />
<path d="M242.47 508.13l24.62 0l0 18.84l-24.62 0Z" id="p98w200" />
<path d="M271.15 508.13l38.23 0l0 18.84l-38.23 0Z" id="p98w201" />
<path d="M313.43 508.13l54.59 0l0 18.84l-54.59 0Z" id="p98w202" />
<path d="M143.75 539.34l59.34 0l0 14.52l-59.34 0Z" id="p98w203" />
<path d="M206.31 539.34l25.4 0l0 14.52l-25.4 0Z" id="p98w204" />
<path d="M234.91 539.34l9.89 0l0 14.52l-9.89 0Z" id="p98w205" />
<path d="M248 539.34l35.29 0l0 14.52l-35.29 0Z" id="p98w206" />
<path d="M286.51 539.34l33.41 0l0 14.52l-33.41 0Z" id="p98w207" />
<path d="M323.12 539.34l14.18 0l0 14.52l-14.18 0Z" id="p98w208" />
<path d="M340.5 539.34l31.27 0l0 14.52l-31.27 0Z" id="p98w209" />
<path d="M374.98 539.27l19.19 0l0 14.6l-19.19 0Z" id="p98w210" />
<path d="M128.98 679.57l23.27 0l0 14.52l-23.27 0Z" id="p98w211" />
<path d="M155.46 679.57l11.22 0l0 14.52l-11.22 0Z" id="p98w212" />
<path d="M169.89 679.57l38.77 0l0 14.52l-38.77 0Z" id="p98w213" />
<path d="M230.82 679.57l19.52 0l0 14.52l-19.52 0Z" id="p98w214" />
<path d="M253.55 679.57l40.35 0l0 14.52l-40.35 0Z" id="p98w215" />
<path d="M330.5 679.57l35 0l0 14.52l-35 0Z" id="p98w216" />
<path d="M368.72 679.57l25.67 0l0 14.52l-25.67 0Z" id="p98w217" />
<path d="M532.02 679.57l18.2 0l0 14.52l-18.2 0Z" id="p98w218" />
<path d="M553.43 679.57l11.5 0l0 14.52l-11.5 0Z" id="p98w219" />
<path d="M587.1 679.57l35.29 0l0 14.52l-35.29 0Z" id="p98w220" />
<path d="M625.6 679.57l11.5 0l0 14.52l-11.5 0Z" id="p98w221" />
<path d="M640.3 679.57l11.22 0l0 14.52l-11.22 0Z" id="p98w222" />
<path d="M654.73 679.57l47.53 0l0 14.52l-47.53 0Z" id="p98w223" />
<path d="M128.98 837.97l25.13 0l0 14.52l-25.13 0Z" id="p98w224" />
<path d="M157.32 837.97l26.72 0l0 14.52l-26.72 0Z" id="p98w225" />
<path d="M206.21 837.97l41.43 0l0 14.52l-41.43 0Z" id="p98w226" />
<path d="M250.85 837.97l20.85 0l0 14.52l-20.85 0Z" id="p98w227" />
<path d="M128.99 853.25l43.57 0l0 14.52l-43.57 0Z" id="p98w228" />
<path d="M330.5 837.97l26.21 0l0 14.52l-26.21 0Z" id="p98w229" />
<path d="M378.89 837.97l25.67 0l0 14.52l-25.67 0Z" id="p98w230" />
<path d="M407.77 837.97l14.18 0l0 14.52l-14.18 0Z" id="p98w231" />
<path d="M425.15 837.97l17.12 0l0 14.52l-17.12 0Z" id="p98w232" />
<path d="M445.48 837.97l25.67 0l0 14.52l-25.67 0Z" id="p98w233" />
<path d="M474.36 837.97l14.18 0l0 14.52l-14.18 0Z" id="p98w234" />
<path d="M330.5 853.25l24.08 0l0 14.52l-24.08 0Z" id="p98w235" />
<path d="M532.02 837.97l10.43 0l0 14.52l-10.43 0Z" id="p98w236" />
<path d="M564.62 837.97l26.73 0l0 14.52l-26.73 0Z" id="p98w237" />
<path d="M594.56 837.97l17.63 0l0 14.52l-17.63 0Z" id="p98w238" />
<path d="M615.4 837.97l32.34 0l0 14.52l-32.34 0Z" id="p98w239" />
<path d="M650.94 837.97l35.29 0l0 14.52l-35.29 0Z" id="p98w240" />
<path d="M532.02 853.25l49.99 0l0 14.52l-49.99 0Z" id="p98w241" />
<path d="M585.21 853.25l19.79 0l0 14.52l-19.79 0Z" id="p98w242" />
<path d="M608.2 853.25l44.64 0l0 14.52l-44.64 0Z" id="p98w243" />
<path d="M143.74 881.13l42.53 0l0 14.52l-42.53 0Z" id="p98w244" />
<path d="M189.48 881.13l64.69 0l0 14.52l-64.69 0Z" id="p98w245" />
<path d="M257.38 881.13l58.53 0l0 14.52l-58.53 0Z" id="p98w246" />
<path d="M319.11 881.13l90.63 0l0 14.52l-90.63 0Z" id="p98w247" />
<path d="M60.68 349.37l27.93 0l0 12.29l-27.93 0Z" id="p98w248" />
<path d="M500.8 399.56l49.15 0l0 22.22l-49.15 0Z" id="p98w249" />
<path d="M556.34 405.39l19.7 0l0 19.13l-19.7 0ZM582.44 408.14l24.22 0l0 19.6l-24.22 0Z" id="p98w250" />
<path d="M499.06 416.13l25.9 0l0 19.78l-25.9 0Z" id="p98w251" />
<path d="M531.35 419.53l19.7 0l0 19.13l-19.7 0ZM557.45 422.27l24.22 0l0 19.6l-24.22 0Z" id="p98w252" />
<path d="M497.32 432.71l25.95 0l0 19.78l-25.95 0Z" id="p98w253" />
<path d="M536.09 436.79l16.34 0l0 18.77l-16.34 0Z" id="p98w254" />
<path d="M558.83 439.18l19.7 0l0 19.13l-19.7 0ZM584.93 441.92l24.22 0l0 19.6l-24.22 0Z" id="p98w255" />
<path d="M495.57 449.29l85.59 0l0 26.05l-85.59 0Z" id="p98w256" />
<path d="M587.55 458.96l19.7 0l0 19.13l-19.7 0ZM613.65 461.7l24.22 0l0 19.6l-24.22 0Z" id="p98w257" />
<path d="M493.83 465.87l60.75 0l0 23.44l-60.75 0Z" id="p98w258" />
<path d="M560.97 472.93l19.7 0l0 19.13l-19.7 0ZM587.07 475.67l24.22 0l0 19.6l-24.22 0Z" id="p98w259" />
<path d="M128.98 904.66l24.05 0l0 14.52l-24.05 0Z" id="p98w260" />
<path d="M156.24 904.66l21.38 0l0 14.52l-21.38 0Z" id="p98w261" />
<path d="M180.83 904.66l36.89 0l0 14.52l-36.89 0Z" id="p98w262" />
<path d="M467.14 904.66l18.37 0l0 14.52l-18.37 0Z" id="p98w263" />
<path d="M488.72 904.66l37.16 0l0 14.52l-37.16 0Z" id="p98w264" />
<path d="M529.08 904.66l37.96 0l0 14.52l-37.96 0Z" id="p98w265" />
<path d="M570.25 904.66l35.02 0l0 14.52l-35.02 0Z" id="p98w266" />
<path d="M239.38 904.66l25.4 0l0 14.52l-25.4 0Z" id="p98w267" />
<path d="M267.99 904.66l25.38 0l0 14.52l-25.38 0Z" id="p98w268" />
<path d="M296.58 904.66l36.89 0l0 14.52l-36.89 0Z" id="p98w269" />
<path d="M128.98 929.67l33.41 0l0 14.52l-33.41 0Z" id="p98w270" />
<path d="M165.6 929.67l78.07 0l0 14.52l-78.07 0Z" id="p98w271" />
<path d="M246.88 929.67l29.67 0l0 14.52l-29.67 0Z" id="p98w272" />
<path d="M279.76 929.67l36.89 0l0 14.52l-36.89 0Z" id="p98w273" />
<path d="M355.13 904.66l37.7 0l0 14.52l-37.7 0Z" id="p98w274" />
<path d="M396.03 904.66l36.89 0l0 14.52l-36.89 0Z" id="p98w275" />
<path d="M338.31 929.67l28.07 0l0 14.52l-28.07 0Z" id="p98w276" />
<path d="M369.59 929.67l28.59 0l0 14.52l-28.59 0Z" id="p98w277" />
<path d="M401.39 929.67l46.44 0l0 14.52l-46.44 0Z" id="p98w278" />
<path d="M451.03 929.67l22.72 0l0 14.52l-22.72 0Z" id="p98w279" />
<path d="M124.06 39.02l42.71 0l0 15.38l-42.71 0Z" id="p98w280" />
<path d="M208.04 39.02l43.21 0l0 15.38l-43.21 0Z" id="p98w281" />
<path d="M307.2 38.6l45.06 0l0 16.09l-45.06 0Z" id="p98w282" />
<path d="M414.03 39.02l28.68 0l0 15.38l-28.68 0Z" id="p98w283" />
<path d="M446.08 39.02l43.54 0l0 15.38l-43.54 0Z" id="p98w284" />
<path d="M522.82 39.02l32.54 0l0 15.38l-32.54 0Z" id="p98w285" />
<path d="M76.9 983l84.43 0l0 12.23l-84.43 0Z" id="p98w286" />
</svg>
