<?xml version="1.0" encoding="UTF-8"?>
<svg xmlns="http://www.w3.org/2000/svg" xmlns:xlink="http://www.w3.org/1999/xlink" version="1.1" baseProfile="full" width="768" height="1024" viewBox="0,0,768,1024" preserveAspectRatio="xMinYMin meet" >
<style type="text/css">
<![CDATA[
path {fill-opacity: 0.5;fill: #00aeef;visibility: hidden;}
]]>
</style>
<path d="M124.06 114.18l10.97 0l0 14.52l-10.97 0Z" id="p158w1" />
<path d="M138.24 114.18l18.44 0l0 14.52l-18.44 0Z" id="p158w2" />
<path d="M159.88 114.11l46.74 0l0 14.6l-46.74 0Z" id="p158w3" />
<path d="M219.45 114.18l32.09 0l0 14.52l-32.09 0Z" id="p158w4" />
<path d="M254.75 114.18l14.97 0l0 14.52l-14.97 0Z" id="p158w5" />
<path d="M272.92 114.18l36.88 0l0 14.52l-36.88 0Z" id="p158w6" />
<path d="M313.01 114.18l25.4 0l0 14.52l-25.4 0Z" id="p158w7" />
<path d="M341.61 114.18l18.7 0l0 14.52l-18.7 0Z" id="p158w8" />
<path d="M363.52 114.18l34.74 0l0 14.52l-34.74 0Z" id="p158w9" />
<path d="M401.47 114.18l41.16 0l0 14.52l-41.16 0Z" id="p158w10" />
<path d="M445.83 114.18l72.17 0l0 14.52l-72.17 0Z" id="p158w11" />
<path d="M521.22 114.18l22.08 0l0 14.52l-22.08 0Z" id="p158w12" />
<path d="M546.51 114.18l14.97 0l0 14.52l-14.97 0Z" id="p158w13" />
<path d="M564.68 114.18l10.43 0l0 14.52l-10.43 0Z" id="p158w14" />
<path d="M578.32 114.18l21.12 0l0 14.52l-21.12 0Z" id="p158w15" />
<path d="M124.06 130.85l54.8 0l0 14.52l-54.8 0Z" id="p158w16" />
<path d="M191.69 130.85l21.4 0l0 14.52l-21.4 0Z" id="p158w17" />
<path d="M225.92 130.85l40.02 0l0 14.52l-40.02 0Z" id="p158w18" />
<path d="M269.15 130.85l28.34 0l0 14.52l-28.34 0Z" id="p158w19" />
<path d="M300.69 130.85l58.8 0l0 14.52l-58.8 0Z" id="p158w20" />
<path d="M362.71 130.85l42.78 0l0 14.52l-42.78 0Z" id="p158w21" />
<path d="M408.69 130.85l14.97 0l0 14.52l-14.97 0Z" id="p158w22" />
<path d="M426.87 130.85l26.74 0l0 14.52l-26.74 0Z" id="p158w23" />
<path d="M456.82 130.85l26.74 0l0 14.52l-26.74 0Z" id="p158w24" />
<path d="M486.77 130.85l61.03 0l0 14.52l-61.03 0Z" id="p158w25" />
<path d="M551.01 130.85l19.24 0l0 14.52l-19.24 0Z" id="p158w26" />
<path d="M573.46 130.85l29.14 0l0 14.52l-29.14 0Z" id="p158w27" />
<path d="M124.06 147.52l18.18 0l0 14.52l-18.18 0Z" id="p158w28" />
<path d="M145.44 147.52l32.09 0l0 14.52l-32.09 0Z" id="p158w29" />
<path d="M180.74 147.52l14.97 0l0 14.52l-14.97 0Z" id="p158w30" />
<path d="M198.91 147.52l10.43 0l0 14.52l-10.43 0Z" id="p158w31" />
<path d="M212.55 147.52l18.44 0l0 14.52l-18.44 0Z" id="p158w32" />
<path d="M234.2 147.52l65.42 0l0 14.52l-65.42 0Z" id="p158w33" />
<path d="M302.82 147.52l35.56 0l0 14.52l-35.56 0Z" id="p158w34" />
<path d="M341.59 147.52l72.17 0l0 14.52l-72.17 0Z" id="p158w35" />
<path d="M416.97 147.52l18.18 0l0 14.52l-18.18 0Z" id="p158w36" />
<path d="M438.35 147.52l53.95 0l0 14.52l-53.95 0Z" id="p158w37" />
<path d="M495.5 147.52l7.48 0l0 14.52l-7.48 0Z" id="p158w38" />
<path d="M502.99 147.52l25.66 0l0 14.52l-25.66 0Z" id="p158w39" />
<path d="M531.85 147.52l14.97 0l0 14.52l-14.97 0Z" id="p158w40" />
<path d="M550.03 147.52l13.9 0l0 14.52l-13.9 0Z" id="p158w41" />
<path d="M567.14 147.52l28.06 0l0 14.52l-28.06 0Z" id="p158w42" />
<path d="M124.06 189.2l23.8 0l0 14.52l-23.8 0Z" id="p158w43" />
<path d="M151.07 189.2l61.68 0l0 14.52l-61.68 0Z" id="p158w44" />
<path d="M215.96 189.2l11.22 0l0 14.52l-11.22 0Z" id="p158w45" />
<path d="M229.95 189.2l21.65 0l0 14.52l-21.65 0Z" id="p158w46" />
<path d="M254.8 189.2l33.67 0l0 14.52l-33.67 0Z" id="p158w47" />
<path d="M291.68 189.2l22.99 0l0 14.52l-22.99 0Z" id="p158w48" />
<path d="M317.88 189.2l15.5 0l0 14.52l-15.5 0Z" id="p158w49" />
<path d="M336.58 189.2l44.92 0l0 14.52l-44.92 0Z" id="p158w50" />
<path d="M384.27 189.2l26.74 0l0 14.52l-26.74 0Z" id="p158w51" />
<path d="M414.22 189.2l26.99 0l0 14.52l-26.99 0Z" id="p158w52" />
<path d="M444.42 189.2l31.53 0l0 14.52l-31.53 0Z" id="p158w53" />
<path d="M479.16 189.2l32.62 0l0 14.52l-32.62 0Z" id="p158w54" />
<path d="M514.99 189.2l12.57 0l0 14.52l-12.57 0Z" id="p158w55" />
<path d="M530.76 189.2l28.6 0l0 14.52l-28.6 0Z" id="p158w56" />
<path d="M562.57 189.2l52.12 0l0 14.52l-52.12 0Z" id="p158w57" />
<path d="M124.06 205.87l40.63 0l0 14.52l-40.63 0Z" id="p158w58" />
<path d="M167.9 205.81l14.28 0l0 14.6l-14.28 0Z" id="p158w59" />
<path d="M188.07 205.81l13.87 0l0 14.6l-13.87 0Z" id="p158w60" />
<path d="M205.14 205.81l13.13 0l0 14.6l-13.13 0Z" id="p158w61" />
<path d="M221.31 205.81l13.87 0l0 14.6l-13.87 0Z" id="p158w62" />
<path d="M238.39 205.81l8.29 0l0 14.6l-8.29 0Z" id="p158w63" />
<path d="M249.72 205.81l19.61 0l0 14.6l-19.61 0Z" id="p158w64" />
<path d="M124.06 230.9l12.57 0l0 14.61l-12.57 0Z" id="p158w65" />
<path d="M139.83 230.9l63.52 0l0 14.61l-63.52 0Z" id="p158w66" />
<path d="M124.06 556.01l39.82 0l0 14.52l-39.82 0Z" id="p158w67" />
<path d="M167.09 556.01l28.33 0l0 14.52l-28.33 0Z" id="p158w68" />
<path d="M208.51 556.01l19.79 0l0 14.52l-19.79 0Z" id="p158w69" />
<path d="M231.5 556.01l37.17 0l0 14.52l-37.17 0Z" id="p158w70" />
<path d="M271.45 556.01l28.7 0l0 14.52l-28.7 0Z" id="p158w71" />
<path d="M303.35 556.01l17.38 0l0 14.52l-17.38 0Z" id="p158w72" />
<path d="M333.83 556.01l23.52 0l0 14.52l-23.52 0Z" id="p158w73" />
<path d="M360.55 556.01l49.18 0l0 14.52l-49.18 0Z" id="p158w74" />
<path d="M412.94 556.01l13.63 0l0 14.52l-13.63 0Z" id="p158w75" />
<path d="M429.78 556.01l65.15 0l0 14.52l-65.15 0Z" id="p158w76" />
<path d="M498.14 556.01l41.02 0l0 14.52l-41.02 0Z" id="p158w77" />
<path d="M124.06 572.68l39.28 0l0 14.52l-39.28 0Z" id="p158w78" />
<path d="M166.55 572.68l15.5 0l0 14.52l-15.5 0Z" id="p158w79" />
<path d="M185.25 572.68l36.88 0l0 14.52l-36.88 0Z" id="p158w80" />
<path d="M225.34 572.68l29.66 0l0 14.52l-29.66 0Z" id="p158w81" />
<path d="M258.21 572.68l68.68 0l0 14.52l-68.68 0Z" id="p158w82" />
<path d="M330.09 572.68l13.63 0l0 14.52l-13.63 0Z" id="p158w83" />
<path d="M346.93 572.62l27.89 0l0 14.6l-27.89 0Z" id="p158w84" />
<path d="M378.03 572.62l37.29 0l0 14.6l-37.29 0Z" id="p158w85" />
<path d="M124.06 599.47l33.69 0l0 12.29l-33.69 0Z" id="p158w86" />
<path d="M166.58 597.69l33.33 0l0 14.52l-33.33 0Z" id="p158w87" />
<path d="M203.12 597.69l20.85 0l0 14.52l-20.85 0Z" id="p158w88" />
<path d="M227.18 597.69l9.62 0l0 14.52l-9.62 0Z" id="p158w89" />
<path d="M258.97 597.69l76.45 0l0 14.52l-76.45 0Z" id="p158w90" />
<path d="M338.63 597.69l24.33 0l0 14.52l-24.33 0Z" id="p158w91" />
<path d="M366.16 597.69l15.5 0l0 14.52l-15.5 0Z" id="p158w92" />
<path d="M384.87 597.69l28.34 0l0 14.52l-28.34 0Z" id="p158w93" />
<path d="M124.06 616.14l24.73 0l0 12.29l-24.73 0Z" id="p158w94" />
<path d="M157.62 614.36l14.7 0l0 14.52l-14.7 0Z" id="p158w95" />
<path d="M175.54 614.36l35.29 0l0 14.52l-35.29 0Z" id="p158w96" />
<path d="M214.04 614.36l12.57 0l0 14.52l-12.57 0Z" id="p158w97" />
<path d="M248.77 614.36l18.18 0l0 14.52l-18.18 0Z" id="p158w98" />
<path d="M270.15 614.36l19.51 0l0 14.52l-19.51 0Z" id="p158w99" />
<path d="M292.87 614.36l26.72 0l0 14.52l-26.72 0Z" id="p158w100" />
<path d="M322.79 614.36l32.62 0l0 14.52l-32.62 0Z" id="p158w101" />
<path d="M358.62 614.36l26.45 0l0 14.52l-26.45 0Z" id="p158w102" />
<path d="M388.27 614.36l30.73 0l0 14.52l-30.73 0Z" id="p158w103" />
<path d="M422.21 614.36l26.74 0l0 14.52l-26.74 0Z" id="p158w104" />
<path d="M452.16 614.36l13.91 0l0 14.52l-13.91 0Z" id="p158w105" />
<path d="M469.28 614.36l24.59 0l0 14.52l-24.59 0Z" id="p158w106" />
<path d="M497.08 614.36l55.32 0l0 14.52l-55.32 0Z" id="p158w107" />
<path d="M555.6 614.36l11.5 0l0 14.52l-11.5 0Z" id="p158w108" />
<path d="M589.26 614.36l32.09 0l0 14.52l-32.09 0Z" id="p158w109" />
<path d="M143.76 631.03l12.57 0l0 14.52l-12.57 0Z" id="p158w110" />
<path d="M178.49 631.04l28.59 0l0 14.52l-28.59 0Z" id="p158w111" />
<path d="M210.29 631.04l40.64 0l0 14.52l-40.64 0Z" id="p158w112" />
<path d="M124.06 649.48l33.69 0l0 12.29l-33.69 0Z" id="p158w113" />
<path d="M166.58 647.71l11.5 0l0 14.52l-11.5 0Z" id="p158w114" />
<path d="M181.29 647.71l25.67 0l0 14.52l-25.67 0Z" id="p158w115" />
<path d="M210.17 647.71l9.89 0l0 14.52l-9.89 0Z" id="p158w116" />
<path d="M223.26 647.71l38.21 0l0 14.52l-38.21 0Z" id="p158w117" />
<path d="M264.68 647.71l13.9 0l0 14.52l-13.9 0Z" id="p158w118" />
<path d="M281.79 647.71l25.13 0l0 14.52l-25.13 0Z" id="p158w119" />
<path d="M310.13 647.71l36.89 0l0 14.52l-36.89 0Z" id="p158w120" />
<path d="M350.23 647.71l49.1 0l0 14.52l-49.1 0Z" id="p158w121" />
<path d="M402.53 647.71l17.38 0l0 14.52l-17.38 0Z" id="p158w122" />
<path d="M442.08 647.71l16.57 0l0 14.52l-16.57 0Z" id="p158w123" />
<path d="M461.86 647.71l40.61 0l0 14.52l-40.61 0Z" id="p158w124" />
<path d="M505.68 647.71l8.82 0l0 14.52l-8.82 0Z" id="p158w125" />
<path d="M517.7 647.71l26.74 0l0 14.52l-26.74 0Z" id="p158w126" />
<path d="M547.65 647.71l13.9 0l0 14.52l-13.9 0Z" id="p158w127" />
<path d="M564.76 647.71l26.74 0l0 14.52l-26.74 0Z" id="p158w128" />
<path d="M143.75 664.38l59.34 0l0 14.52l-59.34 0Z" id="p158w129" />
<path d="M206.3 664.38l19.51 0l0 14.52l-19.51 0Z" id="p158w130" />
<path d="M229.02 664.38l24.33 0l0 14.52l-24.33 0Z" id="p158w131" />
<path d="M124.06 682.83l24.73 0l0 12.29l-24.73 0Z" id="p158w132" />
<path d="M157.62 681.06l15.23 0l0 14.52l-15.23 0Z" id="p158w133" />
<path d="M176.06 681.06l11.22 0l0 14.52l-11.22 0Z" id="p158w134" />
<path d="M190.49 681.06l19.77 0l0 14.52l-19.77 0Z" id="p158w135" />
<path d="M213.47 681.06l19.51 0l0 14.52l-19.51 0Z" id="p158w136" />
<path d="M236.19 681.06l13.9 0l0 14.52l-13.9 0Z" id="p158w137" />
<path d="M253.29 681.06l31.3 0l0 14.52l-31.3 0Z" id="p158w138" />
<path d="M287.8 681.06l12.57 0l0 14.52l-12.57 0Z" id="p158w139" />
<path d="M322.53 681.06l33.94 0l0 14.52l-33.94 0Z" id="p158w140" />
<path d="M359.67 681.06l22.99 0l0 14.52l-22.99 0Z" id="p158w141" />
<path d="M385.87 681.06l25.67 0l0 14.52l-25.67 0Z" id="p158w142" />
<path d="M414.75 681.06l17.38 0l0 14.52l-17.38 0Z" id="p158w143" />
<path d="M435.34 681.06l18.44 0l0 14.52l-18.44 0Z" id="p158w144" />
<path d="M456.99 681.06l42.49 0l0 14.52l-42.49 0Z" id="p158w145" />
<path d="M521.64 681.06l56.65 0l0 14.52l-56.65 0Z" id="p158w146" />
<path d="M581.5 681.06l19.51 0l0 14.52l-19.51 0Z" id="p158w147" />
<path d="M143.76 697.73l27.26 0l0 14.52l-27.26 0Z" id="p158w148" />
<path d="M174.22 697.73l31.01 0l0 14.52l-31.01 0Z" id="p158w149" />
<path d="M208.44 697.73l11.22 0l0 14.52l-11.22 0Z" id="p158w150" />
<path d="M241.82 697.73l60.97 0l0 14.52l-60.97 0Z" id="p158w151" />
<path d="M305.99 697.73l19.51 0l0 14.52l-19.51 0Z" id="p158w152" />
<path d="M328.71 697.73l58.55 0l0 14.52l-58.55 0Z" id="p158w153" />
<path d="M390.47 697.73l77.49 0l0 14.52l-77.49 0Z" id="p158w154" />
<path d="M471.17 697.73l11.22 0l0 14.52l-11.22 0Z" id="p158w155" />
<path d="M485.6 697.73l33.41 0l0 14.52l-33.41 0Z" id="p158w156" />
<path d="M522.21 697.73l11.22 0l0 14.52l-11.22 0Z" id="p158w157" />
<path d="M555.59 697.73l62.26 0l0 14.52l-62.26 0Z" id="p158w158" />
<path d="M153.64 714.4l24.06 0l0 14.52l-24.06 0Z" id="p158w159" />
<path d="M180.91 714.4l17.9 0l0 14.52l-17.9 0Z" id="p158w160" />
<path d="M202.01 714.4l45.46 0l0 14.52l-45.46 0Z" id="p158w161" />
<path d="M250.68 714.4l33.41 0l0 14.52l-33.41 0Z" id="p158w162" />
<path d="M287.29 714.4l11.22 0l0 14.52l-11.22 0Z" id="p158w163" />
<path d="M301.72 714.4l17.38 0l0 14.52l-17.38 0Z" id="p158w164" />
<path d="M322.31 714.4l25.67 0l0 14.52l-25.67 0Z" id="p158w165" />
<path d="M370.15 714.4l44.89 0l0 14.52l-44.89 0Z" id="p158w166" />
<path d="M418.25 714.4l14.7 0l0 14.52l-14.7 0Z" id="p158w167" />
<path d="M436.16 714.4l26.73 0l0 14.52l-26.73 0Z" id="p158w168" />
<path d="M466.1 714.4l46.46 0l0 14.52l-46.46 0Z" id="p158w169" />
<path d="M124.06 732.85l33.69 0l0 12.29l-33.69 0Z" id="p158w170" />
<path d="M166.58 731.07l11.5 0l0 14.52l-11.5 0Z" id="p158w171" />
<path d="M181.29 731.07l25.67 0l0 14.52l-25.67 0Z" id="p158w172" />
<path d="M210.17 731.07l13.63 0l0 14.52l-13.63 0Z" id="p158w173" />
<path d="M227.01 731.07l42.45 0l0 14.52l-42.45 0Z" id="p158w174" />
<path d="M272.67 731.07l33.05 0l0 14.52l-33.05 0Z" id="p158w175" />
<path d="M308.92 731.07l20.85 0l0 14.52l-20.85 0Z" id="p158w176" />
<path d="M332.99 731.07l25.67 0l0 14.52l-25.67 0Z" id="p158w177" />
<path d="M361.87 731.07l13.36 0l0 14.52l-13.36 0Z" id="p158w178" />
<path d="M395.83 731.07l47.32 0l0 14.52l-47.32 0Z" id="p158w179" />
<path d="M124.06 749.52l24.73 0l0 12.29l-24.73 0Z" id="p158w180" />
<path d="M157.12 747.75l26.45 0l0 14.52l-26.45 0Z" id="p158w181" />
<path d="M186.78 747.75l21.4 0l0 14.52l-21.4 0Z" id="p158w182" />
<path d="M218.34 747.75l28.07 0l0 14.52l-28.07 0Z" id="p158w183" />
<path d="M268.58 747.75l18.18 0l0 14.52l-18.18 0Z" id="p158w184" />
<path d="M289.96 747.75l19.51 0l0 14.52l-19.51 0Z" id="p158w185" />
<path d="M312.68 747.75l52.14 0l0 14.52l-52.14 0Z" id="p158w186" />
<path d="M367.66 747.75l12.41 0l0 14.52l-12.41 0Z" id="p158w187" />
<path d="M402.24 747.75l41.14 0l0 14.52l-41.14 0Z" id="p158w188" />
<path d="M446.59 747.75l29.94 0l0 14.52l-29.94 0Z" id="p158w189" />
<path d="M479.73 747.75l39.85 0l0 14.52l-39.85 0Z" id="p158w190" />
<path d="M124.06 781.09l32.97 0l0 14.52l-32.97 0Z" id="p158w191" />
<path d="M160.24 781.09l15.5 0l0 14.52l-15.5 0Z" id="p158w192" />
<path d="M178.95 781.09l43.29 0l0 14.52l-43.29 0Z" id="p158w193" />
<path d="M225.45 781.09l17.38 0l0 14.52l-17.38 0Z" id="p158w194" />
<path d="M246.04 781.09l24.87 0l0 14.52l-24.87 0Z" id="p158w195" />
<path d="M274.11 781.09l54.25 0l0 14.52l-54.25 0Z" id="p158w196" />
<path d="M331.57 781.09l11.22 0l0 14.52l-11.22 0Z" id="p158w197" />
<path d="M346 781.09l39.28 0l0 14.52l-39.28 0Z" id="p158w198" />
<path d="M388.49 781.09l15.5 0l0 14.52l-15.5 0Z" id="p158w199" />
<path d="M407.19 781.09l36.88 0l0 14.52l-36.88 0Z" id="p158w200" />
<path d="M447.28 781.09l29.66 0l0 14.52l-29.66 0Z" id="p158w201" />
<path d="M480.14 781.09l68.68 0l0 14.52l-68.68 0Z" id="p158w202" />
<path d="M552.03 781.09l13.63 0l0 14.52l-13.63 0Z" id="p158w203" />
<path d="M568.87 781.09l35 0l0 14.52l-35 0Z" id="p158w204" />
<path d="M607.08 781.09l17.38 0l0 14.52l-17.38 0Z" id="p158w205" />
<path d="M627.67 781.09l50.54 0l0 14.52l-50.54 0Z" id="p158w206" />
<path d="M143.76 806.1l10.16 0l0 14.52l-10.16 0Z" id="p158w207" />
<path d="M157.13 806.1l23.24 0l0 14.52l-23.24 0Z" id="p158w208" />
<path d="M183.58 806.1l42.49 0l0 14.52l-42.49 0Z" id="p158w209" />
<path d="M229.27 806.1l30.99 0l0 14.52l-30.99 0Z" id="p158w210" />
<path d="M263.47 806.1l59.58 0l0 14.52l-59.58 0Z" id="p158w211" />
<path d="M143.76 822.77l10.16 0l0 14.52l-10.16 0Z" id="p158w212" />
<path d="M157.13 822.77l9.62 0l0 14.52l-9.62 0Z" id="p158w213" />
<path d="M169.96 822.77l48.65 0l0 14.52l-48.65 0Z" id="p158w214" />
<path d="M221.82 822.77l14.18 0l0 14.52l-14.18 0Z" id="p158w215" />
<path d="M239.2 822.77l34.21 0l0 14.52l-34.21 0Z" id="p158w216" />
<path d="M276.62 822.77l49.67 0l0 14.52l-49.67 0Z" id="p158w217" />
<path d="M143.76 839.44l10.16 0l0 14.52l-10.16 0Z" id="p158w218" />
<path d="M157.13 839.44l11.5 0l0 14.52l-11.5 0Z" id="p158w219" />
<path d="M171.83 839.44l48.64 0l0 14.52l-48.64 0Z" id="p158w220" />
<path d="M223.68 839.44l54.55 0l0 14.52l-54.55 0Z" id="p158w221" />
<path d="M281.44 839.44l25.4 0l0 14.52l-25.4 0Z" id="p158w222" />
<path d="M310.04 839.44l18.72 0l0 14.52l-18.72 0Z" id="p158w223" />
<path d="M331.97 839.44l47.53 0l0 14.52l-47.53 0Z" id="p158w224" />
<path d="M143.76 856.11l10.16 0l0 14.52l-10.16 0Z" id="p158w225" />
<path d="M157.13 856.11l11.5 0l0 14.52l-11.5 0Z" id="p158w226" />
<path d="M171.83 856.11l59.85 0l0 14.52l-59.85 0Z" id="p158w227" />
<path d="M143.76 872.78l10.16 0l0 14.52l-10.16 0Z" id="p158w228" />
<path d="M157.13 872.78l11.5 0l0 14.52l-11.5 0Z" id="p158w229" />
<path d="M171.83 872.78l18.18 0l0 14.52l-18.18 0Z" id="p158w230" />
<path d="M193.21 872.78l19.51 0l0 14.52l-19.51 0Z" id="p158w231" />
<path d="M215.93 872.78l22.99 0l0 14.52l-22.99 0Z" id="p158w232" />
<path d="M242.13 872.78l85.49 0l0 14.52l-85.49 0Z" id="p158w233" />
<path d="M143.76 889.45l10.16 0l0 14.52l-10.16 0Z" id="p158w234" />
<path d="M157.13 889.45l25.67 0l0 14.52l-25.67 0Z" id="p158w235" />
<path d="M186.01 889.45l36.35 0l0 14.52l-36.35 0Z" id="p158w236" />
<path d="M225.57 889.45l17.63 0l0 14.52l-17.63 0Z" id="p158w237" />
<path d="M246.41 889.45l20.85 0l0 14.52l-20.85 0Z" id="p158w238" />
<path d="M280.36 889.45l64.08 0l0 14.52l-64.08 0Z" id="p158w239" />
<path d="M437.06 806.09l26.74 0l0 14.52l-26.74 0Z" id="p158w240" />
<path d="M467.01 806.09l41.14 0l0 14.52l-41.14 0Z" id="p158w241" />
<path d="M511.36 806.09l26.45 0l0 14.52l-26.45 0Z" id="p158w242" />
<path d="M541.02 806.09l29.67 0l0 14.52l-29.67 0Z" id="p158w243" />
<path d="M573.9 806.09l29.94 0l0 14.52l-29.94 0Z" id="p158w244" />
<path d="M607.04 806.09l18.72 0l0 14.52l-18.72 0Z" id="p158w245" />
<path d="M437.06 822.76l26.74 0l0 14.52l-26.74 0Z" id="p158w246" />
<path d="M467.01 822.76l52.06 0l0 14.52l-52.06 0Z" id="p158w247" />
<path d="M522.27 822.76l16.83 0l0 14.52l-16.83 0Z" id="p158w248" />
<path d="M542.31 822.76l37.42 0l0 14.52l-37.42 0Z" id="p158w249" />
<path d="M437.06 839.43l25.67 0l0 14.52l-25.67 0Z" id="p158w250" />
<path d="M465.94 839.43l30.21 0l0 14.52l-30.21 0Z" id="p158w251" />
<path d="M496.15 839.43l20.04 0l0 14.52l-20.04 0Z" id="p158w252" />
<path d="M519.4 839.43l28.06 0l0 14.52l-28.06 0Z" id="p158w253" />
<path d="M550.66 839.43l13.9 0l0 14.52l-13.9 0Z" id="p158w254" />
<path d="M567.77 839.43l25.13 0l0 14.52l-25.13 0Z" id="p158w255" />
<path d="M596.11 839.43l50.2 0l0 14.52l-50.2 0Z" id="p158w256" />
<path d="M437.06 856.1l9.62 0l0 14.52l-9.62 0Z" id="p158w257" />
<path d="M449.89 856.1l39.28 0l0 14.52l-39.28 0Z" id="p158w258" />
<path d="M492.38 856.1l24.59 0l0 14.52l-24.59 0Z" id="p158w259" />
<path d="M520.17 856.1l26.73 0l0 14.52l-26.73 0Z" id="p158w260" />
<path d="M550.11 856.1l13.9 0l0 14.52l-13.9 0Z" id="p158w261" />
<path d="M567.22 856.1l39.57 0l0 14.52l-39.57 0Z" id="p158w262" />
<path d="M437.06 872.77l11.5 0l0 14.52l-11.5 0Z" id="p158w263" />
<path d="M451.76 872.77l9.89 0l0 14.52l-9.89 0Z" id="p158w264" />
<path d="M464.86 872.77l61.48 0l0 14.52l-61.48 0Z" id="p158w265" />
<path d="M529.55 872.77l23.52 0l0 14.52l-23.52 0Z" id="p158w266" />
<path d="M556.27 872.77l24.33 0l0 14.52l-24.33 0Z" id="p158w267" />
<path d="M583.81 872.77l31.1 0l0 14.52l-31.1 0Z" id="p158w268" />
<path d="M618.11 872.77l18.72 0l0 14.52l-18.72 0Z" id="p158w269" />
<path d="M640.04 872.77l39.56 0l0 14.52l-39.56 0Z" id="p158w270" />
<path d="M437.06 889.44l6.41 0l0 14.52l-6.41 0Z" id="p158w271" />
<path d="M446.68 889.44l11.22 0l0 14.52l-11.22 0Z" id="p158w272" />
<path d="M461.11 889.44l40.63 0l0 14.52l-40.63 0Z" id="p158w273" />
<path d="M504.94 889.44l22.44 0l0 14.52l-22.44 0Z" id="p158w274" />
<path d="M530.59 889.44l42.77 0l0 14.52l-42.77 0Z" id="p158w275" />
<path d="M124.06 38.6l62.95 0l0 16.09l-62.95 0Z" id="p158w276" />
<path d="M76.9 983l85.85 0l0 12.23l-85.85 0Z" id="p158w277" />
<path d="M144.87 261.5l27.14 0l0 16.96l-27.14 0Z" id="p158w278" />
<path d="M440.47 260.66l31.92 0l0 16.96l-31.92 0Z" id="p158w279" />
</svg>
