<?xml version="1.0" encoding="UTF-8"?>
<svg xmlns="http://www.w3.org/2000/svg" xmlns:xlink="http://www.w3.org/1999/xlink" version="1.1" baseProfile="full" width="768" height="1024" viewBox="0,0,768,1024" preserveAspectRatio="xMinYMin meet" >
<style type="text/css">
<![CDATA[
path {fill-opacity: 0.5;fill: #00aeef;visibility: hidden;}
]]>
</style>
<path d="M124.06 797.76l57.21 0l0 14.52l-57.21 0Z" id="p45w1" />
<path d="M184.47 797.76l20.85 0l0 14.52l-20.85 0Z" id="p45w2" />
<path d="M208.54 797.76l32.89 0l0 14.52l-32.89 0Z" id="p45w3" />
<path d="M244.64 797.76l17.38 0l0 14.52l-17.38 0Z" id="p45w4" />
<path d="M265.23 797.76l25.67 0l0 14.52l-25.67 0Z" id="p45w5" />
<path d="M294.11 797.76l27.53 0l0 14.52l-27.53 0Z" id="p45w6" />
<path d="M324.85 797.76l59.79 0l0 14.52l-59.79 0Z" id="p45w7" />
<path d="M387.85 797.76l11.22 0l0 14.52l-11.22 0Z" id="p45w8" />
<path d="M402.28 797.76l27.26 0l0 14.52l-27.26 0Z" id="p45w9" />
<path d="M124.06 814.44l50.01 0l0 14.52l-50.01 0Z" id="p45w10" />
<path d="M177.28 814.44l19.77 0l0 14.52l-19.77 0Z" id="p45w11" />
<path d="M200.26 814.44l25.67 0l0 14.52l-25.67 0Z" id="p45w12" />
<path d="M229.14 814.44l53.44 0l0 14.52l-53.44 0Z" id="p45w13" />
<path d="M124.06 847.78l51.33 0l0 14.52l-51.33 0Z" id="p45w14" />
<path d="M178.6 847.78l17.11 0l0 14.52l-17.11 0Z" id="p45w15" />
<path d="M198.91 847.78l45.17 0l0 14.52l-45.17 0Z" id="p45w16" />
<path d="M247.29 847.78l24.59 0l0 14.52l-24.59 0Z" id="p45w17" />
<path d="M275.09 847.78l71.37 0l0 14.52l-71.37 0Z" id="p45w18" />
<path d="M349.66 847.78l17.11 0l0 14.52l-17.11 0Z" id="p45w19" />
<path d="M369.98 847.78l45.18 0l0 14.52l-45.18 0Z" id="p45w20" />
<path d="M124.06 864.45l20.85 0l0 14.52l-20.85 0Z" id="p45w21" />
<path d="M148.12 864.45l25.67 0l0 14.52l-25.67 0Z" id="p45w22" />
<path d="M177 864.45l25.4 0l0 14.52l-25.4 0Z" id="p45w23" />
<path d="M205.61 864.45l34.77 0l0 14.52l-34.77 0Z" id="p45w24" />
<path d="M243.58 864.45l22.73 0l0 14.52l-22.73 0Z" id="p45w25" />
<path d="M269.52 864.45l30.99 0l0 14.52l-30.99 0Z" id="p45w26" />
<path d="M303.72 864.45l14.18 0l0 14.52l-14.18 0Z" id="p45w27" />
<path d="M321.1 864.45l39.24 0l0 14.52l-39.24 0Z" id="p45w28" />
<path d="M363.55 864.45l25.4 0l0 14.52l-25.4 0Z" id="p45w29" />
<path d="M124.06 881.12l19.51 0l0 14.52l-19.51 0Z" id="p45w30" />
<path d="M146.78 881.12l35 0l0 14.52l-35 0Z" id="p45w31" />
<path d="M184.99 881.12l17.38 0l0 14.52l-17.38 0Z" id="p45w32" />
<path d="M205.58 881.12l18.72 0l0 14.52l-18.72 0Z" id="p45w33" />
<path d="M227.5 881.12l20.58 0l0 14.52l-20.58 0Z" id="p45w34" />
<path d="M251.29 881.12l9.89 0l0 14.52l-9.89 0Z" id="p45w35" />
<path d="M264.38 881.12l35.27 0l0 14.52l-35.27 0Z" id="p45w36" />
<path d="M302.86 881.12l32.89 0l0 14.52l-32.89 0Z" id="p45w37" />
<path d="M338.96 881.12l11.22 0l0 14.52l-11.22 0Z" id="p45w38" />
<path d="M353.39 881.12l55.05 0l0 14.52l-55.05 0Z" id="p45w39" />
<path d="M124.06 897.79l28.87 0l0 14.52l-28.87 0Z" id="p45w40" />
<path d="M156.14 897.79l32.89 0l0 14.52l-32.89 0Z" id="p45w41" />
<path d="M202.12 897.79l9.89 0l0 14.52l-9.89 0Z" id="p45w42" />
<path d="M215.22 897.79l36.35 0l0 14.52l-36.35 0Z" id="p45w43" />
<path d="M60.68 799.54l27.93 0l0 12.29l-27.93 0Z" id="p45w44" />
<path d="M60.68 849.56l27.93 0l0 12.29l-27.93 0Z" id="p45w45" />
<path d="M462.85 56.95l10.39 0l0 13.84l-10.39 0Z" id="p45w46" />
<path d="M476.28 56.95l17.47 0l0 13.84l-17.47 0Z" id="p45w47" />
<path d="M496.79 56.82l29.66 0l0 13.99l-29.66 0Z" id="p45w48" />
<path d="M537.09 56.82l23.07 0l0 13.99l-23.07 0Z" id="p45w49" />
<path d="M563.2 56.95l16.89 0l0 13.84l-16.89 0Z" id="p45w50" />
<path d="M583.13 56.95l26.58 0l0 13.84l-26.58 0Z" id="p45w51" />
<path d="M627.95 56.95l36.95 0l0 13.84l-36.95 0Z" id="p45w52" />
<path d="M667.93 56.95l14.18 0l0 13.84l-14.18 0Z" id="p45w53" />
<path d="M462.85 72.23l16.21 0l0 13.84l-16.21 0Z" id="p45w54" />
<path d="M482.09 72.23l55.78 0l0 13.84l-55.78 0Z" id="p45w55" />
<path d="M540.91 72.23l14.93 0l0 13.84l-14.93 0Z" id="p45w56" />
<path d="M558.88 72.23l30.37 0l0 13.84l-30.37 0Z" id="p45w57" />
<path d="M592.3 72.23l93.18 0l0 13.84l-93.18 0Z" id="p45w58" />
<path d="M462.85 88.5l26.01 0l0 13.84l-26.01 0Z" id="p45w59" />
<path d="M491.9 88.5l24.81 0l0 13.84l-24.81 0Z" id="p45w60" />
<path d="M519.74 88.5l14.18 0l0 13.84l-14.18 0Z" id="p45w61" />
<path d="M476.63 104.77l17.72 0l0 13.84l-17.72 0Z" id="p45w62" />
<path d="M497.39 104.77l23.55 0l0 13.84l-23.55 0Z" id="p45w63" />
<path d="M523.97 104.69l25.1 0l0 13.91l-25.1 0Z" id="p45w64" />
<path d="M552.11 104.69l33.44 0l0 13.91l-33.44 0Z" id="p45w65" />
<path d="M588.58 104.77l53.91 0l0 13.84l-53.91 0Z" id="p45w66" />
<path d="M645.53 104.77l20.26 0l0 13.84l-20.26 0Z" id="p45w67" />
<path d="M476.63 120.05l64.49 0l0 13.84l-64.49 0Z" id="p45w68" />
<path d="M544.15 120.05l9.88 0l0 13.84l-9.88 0Z" id="p45w69" />
<path d="M557.07 120.05l17.47 0l0 13.84l-17.47 0Z" id="p45w70" />
<path d="M577.58 120.05l40.24 0l0 13.84l-40.24 0Z" id="p45w71" />
<path d="M620.85 120.05l74.85 0l0 13.84l-74.85 0Z" id="p45w72" />
<path d="M476.63 136.32l70.86 0l0 13.84l-70.86 0Z" id="p45w73" />
<path d="M550.53 136.32l20.26 0l0 13.84l-20.26 0Z" id="p45w74" />
<path d="M573.83 136.32l30.64 0l0 13.84l-30.64 0Z" id="p45w75" />
<path d="M607.5 136.32l35.69 0l0 13.84l-35.69 0Z" id="p45w76" />
<path d="M646.23 136.32l11.89 0l0 13.84l-11.89 0Z" id="p45w77" />
<path d="M476.63 151.6l66.85 0l0 13.84l-66.85 0Z" id="p45w78" />
<path d="M613.17 775.16l20.81 0l0 12.56l-20.81 0Z" id="p45w79" />
<path d="M636.68 775.16l31.57 0l0 12.56l-31.57 0Z" id="p45w80" />
<path d="M510.48 793.99l54.49 0l0 15.37l-54.49 0Z" id="p45w81" />
<path d="M510.48 815.28l50.76 0l0 14.52l-50.76 0Z" id="p45w82" />
<path d="M564.45 815.28l16.83 0l0 14.52l-16.83 0Z" id="p45w83" />
<path d="M584.49 815.28l9.89 0l0 14.52l-9.89 0Z" id="p45w84" />
<path d="M597.58 815.28l47.5 0l0 14.52l-47.5 0Z" id="p45w85" />
<path d="M510.48 831.95l13.9 0l0 14.52l-13.9 0Z" id="p45w86" />
<path d="M527.59 831.95l9.89 0l0 14.52l-9.89 0Z" id="p45w87" />
<path d="M540.68 831.95l35.76 0l0 14.52l-35.76 0Z" id="p45w88" />
<path d="M579.64 831.95l88.32 0l0 14.52l-88.32 0ZM510.48 848.62l25.4 0l0 14.52l-25.4 0Z" id="p45w89" />
<path d="M539.08 848.62l34.96 0l0 14.52l-34.96 0Z" id="p45w90" />
<path d="M510.48 873.63l25.41 0l0 14.52l-25.41 0Z" id="p45w91" />
<path d="M539.1 873.63l22.99 0l0 14.52l-22.99 0Z" id="p45w92" />
<path d="M565.3 873.63l83.84 0l0 14.52l-83.84 0Z" id="p45w93" />
<path d="M510.48 890.3l20.85 0l0 14.52l-20.85 0Z" id="p45w94" />
<path d="M534.54 890.3l27.73 0l0 14.52l-27.73 0Z" id="p45w95" />
<path d="M461.66 649.6l10.65 0l0 15.15l-10.65 0Z" id="p45w96" />
<path d="M476.34 650.43l11.72 0l0 15.21l-11.72 0Z" id="p45w97" />
<path d="M492.09 651.33l11.72 0l0 15.21l-11.72 0Z" id="p45w98" />
<path d="M507.84 652.22l23.46 0l0 15.88l-23.46 0Z" id="p45w99" />
<path d="M535.33 653.78l22.38 0l0 15.81l-22.38 0Z" id="p45w100" />
<path d="M561.74 655.28l30.13 0l0 16.25l-30.13 0Z" id="p45w101" />
<path d="M595.89 657.22l30.13 0l0 16.25l-30.13 0Z" id="p45w102" />
<path d="M636.02 659.5l44.03 0l0 17.04l-44.03 0Z" id="p45w103" />
<path d="M684.08 662.23l10.38 0l0 15.13l-10.38 0Z" id="p45w104" />
<path d="M460.72 666.24l51.22 0l0 17.45l-51.22 0Z" id="p45w105" />
<path d="M515.96 669.38l14.92 0l0 15.39l-14.92 0Z" id="p45w106" />
<path d="M534.91 670.46l15.98 0l0 15.45l-15.98 0Z" id="p45w107" />
<path d="M554.91 671.59l22.13 0l0 15.8l-22.13 0Z" id="p45w108" />
<path d="M581.07 673.08l9.05 0l0 15.06l-9.05 0Z" id="p45w109" />
<path d="M594.14 673.82l34.13 0l0 16.48l-34.13 0Z" id="p45w110" />
<path d="M632.29 675.99l56.01 0l0 17.72l-56.01 0Z" id="p45w111" />
<path d="M692.33 679.4l10.65 0l0 15.15l-10.65 0Z" id="p45w112" />
<path d="M459.77 682.89l17.42 0l0 15.53l-17.42 0Z" id="p45w113" />
<path d="M481.21 684.1l14.65 0l0 15.37l-14.65 0Z" id="p45w114" />
<path d="M499.89 685.16l35.73 0l0 16.57l-35.73 0Z" id="p45w115" />
<path d="M625 983l66.1 0l0 12.23l-66.1 0Z" id="p45w116" />
<path d="M47.6 306.48l11.89 0l0 14.94l-11.89 0Z" id="p45w117" />
<path d="M63.21 307.03l32.6 0l0 15.67l-32.6 0Z" id="p45w118" />
<path d="M99.52 308.3l14.98 0l0 15.05l-14.98 0Z" id="p45w119" />
<path d="M118.21 308.95l41.96 0l0 15.99l-41.96 0Z" id="p45w120" />
<path d="M172.17 310.83l30.22 0l0 15.58l-30.22 0Z" id="p45w121" />
<path d="M206.09 312.02l13.66 0l0 15l-13.66 0Z" id="p45w122" />
<path d="M223.47 312.62l24.87 0l0 15.4l-24.87 0Z" id="p45w123" />
<path d="M252.05 313.62l23.79 0l0 15.36l-23.79 0Z" id="p45w124" />
<path d="M279.56 314.58l13.12 0l0 14.99l-13.12 0Z" id="p45w125" />
<path d="M296.39 315.17l42.51 0l0 16.01l-42.51 0Z" id="p45w126" />
<path d="M349.56 317.03l25.66 0l0 15.42l-25.66 0Z" id="p45w127" />
<path d="M47.02 323.14l13.66 0l0 15l-13.66 0Z" id="p45w128" />
<path d="M64.39 323.75l36.35 0l0 15.8l-36.35 0Z" id="p45w129" />
<path d="M104.45 325.15l37.7 0l0 15.84l-37.7 0Z" id="p45w130" />
<path d="M145.86 326.59l14.98 0l0 15.05l-14.98 0Z" id="p45w131" />
<path d="M164.55 327.25l48.1 0l0 16.21l-48.1 0Z" id="p45w132" />
<path d="M216.37 329.06l43.3 0l0 16.04l-43.3 0Z" id="p45w133" />
<path d="M263.38 330.7l9.37 0l0 14.86l-9.37 0Z" id="p45w134" />
<path d="M276.47 331.15l43.57 0l0 16.05l-43.57 0Z" id="p45w135" />
<path d="M323.75 332.81l13.38 0l0 15l-13.38 0Z" id="p45w136" />
<path d="M340.84 333.4l32.37 0l0 15.66l-32.37 0Z" id="p45w137" />
<path d="M57.98 647.71l26.74 0l0 14.52l-26.74 0Z" id="p45w138" />
<path d="M87.93 647.71l25.13 0l0 14.52l-25.13 0Z" id="p45w139" />
<path d="M116.27 647.71l45.72 0l0 14.52l-45.72 0Z" id="p45w140" />
<path d="M165.19 647.71l9.89 0l0 14.52l-9.89 0Z" id="p45w141" />
<path d="M178.29 647.71l36.64 0l0 14.52l-36.64 0Z" id="p45w142" />
<path d="M217.78 647.71l12.41 0l0 14.52l-12.41 0Z" id="p45w143" />
<path d="M233.39 647.71l42.78 0l0 14.52l-42.78 0Z" id="p45w144" />
<path d="M279.38 647.71l9.89 0l0 14.52l-9.89 0Z" id="p45w145" />
<path d="M292.47 647.71l26.72 0l0 14.52l-26.72 0Z" id="p45w146" />
<path d="M322.4 647.68l22.47 0l0 14.52l-22.47 0Z" id="p45w147" />
<path d="M348.07 647.68l26.03 0l0 14.52l-26.03 0Z" id="p45w148" />
<path d="M57.98 664.35l9.9 0l0 14.52l-9.9 0Z" id="p45w149" />
<path d="M71.08 664.35l14.99 0l0 14.52l-14.99 0Z" id="p45w150" />
<path d="M97.57 664.38l20.05 0l0 14.52l-20.05 0Z" id="p45w151" />
<path d="M120.83 664.38l12.29 0l0 14.52l-12.29 0Z" id="p45w152" />
<path d="M136.33 664.38l31.8 0l0 14.52l-31.8 0Z" id="p45w153" />
<path d="M171.33 664.38l14.98 0l0 14.52l-14.98 0Z" id="p45w154" />
<path d="M189.52 664.38l14.18 0l0 14.52l-14.18 0Z" id="p45w155" />
<path d="M206.9 664.38l16.83 0l0 14.52l-16.83 0Z" id="p45w156" />
<path d="M226.94 664.38l46.5 0l0 14.52l-46.5 0Z" id="p45w157" />
<path d="M401.96 408.03l16.27 0l0 13.96l-16.27 0Z" id="p45w158" />
<path d="M420.93 407.37l25.89 0l0 13.62l-25.89 0Z" id="p45w159" />
<path d="M449.52 406.37l28.55 0l0 13.53l-28.55 0Z" id="p45w160" />
<path d="M480.77 405.28l24.8 0l0 13.66l-24.8 0Z" id="p45w161" />
<path d="M508.27 404.32l14.13 0l0 14.03l-14.13 0Z" id="p45w162" />
<path d="M525.1 403.73l45.12 0l0 12.95l-45.12 0Z" id="p45w163" />
<path d="M572.92 402.06l18.31 0l0 13.89l-18.31 0Z" id="p45w164" />
<path d="M600.35 401.1l6.92 0l0 14.29l-6.92 0Z" id="p45w165" />
<path d="M609.96 400.77l17.33 0l0 13.92l-17.33 0Z" id="p45w166" />
<path d="M629.99 400.07l17.6 0l0 13.91l-17.6 0Z" id="p45w167" />
<path d="M650.29 399.36l21.35 0l0 13.78l-21.35 0Z" id="p45w168" />
<path d="M674.34 398.52l13.59 0l0 14.05l-13.59 0Z" id="p45w169" />
<path d="M690.63 397.95l11.72 0l0 14.12l-11.72 0Z" id="p45w170" />
<path d="M402.54 424.69l47.26 0l0 12.88l-47.26 0Z" id="p45w171" />
<path d="M452.5 422.95l62.69 0l0 12.34l-62.69 0Z" id="p45w172" />
<path d="M517.89 420.66l13.06 0l0 14.07l-13.06 0Z" id="p45w173" />
<path d="M543.53 419.77l18.39 0l0 13.89l-18.39 0Z" id="p45w174" />
<path d="M564.63 419.03l21.35 0l0 13.78l-21.35 0Z" id="p45w175" />
<path d="M588.67 418.19l37.92 0l0 13.2l-37.92 0Z" id="p45w176" />
</svg>
