<?xml version="1.0" encoding="UTF-8"?>
<svg xmlns="http://www.w3.org/2000/svg" xmlns:xlink="http://www.w3.org/1999/xlink" version="1.1" baseProfile="full" width="768" height="1024" viewBox="0,0,768,1024" preserveAspectRatio="xMinYMin meet" >
<style type="text/css">
<![CDATA[
path {fill-opacity: 0.5;fill: #00aeef;visibility: hidden;}
]]>
</style>
<path d="M124.06 38.6l16.59 0l0 16.09l-16.59 0Z" id="p268w1" />
<path d="M144.03 38.6l40.06 0l0 16.09l-40.06 0Z" id="p268w2" />
<path d="M76.9 983l104.02 0l0 12.23l-104.02 0Z" id="p268w3" />
<path d="M124.06 107.98l34.63 0l0 18.84l-34.63 0Z" id="p268w4" />
<path d="M162.34 107.98l34.87 0l0 18.84l-34.87 0Z" id="p268w5" />
<path d="M200.86 107.98l21.46 0l0 18.84l-21.46 0Z" id="p268w6" />
<path d="M225.97 107.98l68.25 0l0 18.84l-68.25 0Z" id="p268w7" />
<path d="M297.87 107.98l19.04 0l0 18.84l-19.04 0Z" id="p268w8" />
<path d="M320.56 107.98l32.43 0l0 18.84l-32.43 0Z" id="p268w9" />
<path d="M135.02 139.19l28.87 0l0 14.52l-28.87 0Z" id="p268w10" />
<path d="M167.09 139.19l34.96 0l0 14.52l-34.96 0Z" id="p268w11" />
<path d="M416.49 139.19l29.67 0l0 14.52l-29.67 0Z" id="p268w12" />
<path d="M449.37 139.19l49.39 0l0 14.52l-49.39 0Z" id="p268w13" />
<path d="M501.97 139.19l27.01 0l0 14.52l-27.01 0Z" id="p268w14" />
<path d="M124.06 159.3l53.19 0l0 14.52l-53.19 0Z" id="p268w15" />
<path d="M180.46 159.3l18.44 0l0 14.52l-18.44 0Z" id="p268w16" />
<path d="M202.11 159.3l41.93 0l0 14.52l-41.93 0Z" id="p268w17" />
<path d="M416.49 159.3l29.13 0l0 14.52l-29.13 0Z" id="p268w18" />
<path d="M465.36 159.3l63.29 0l0 14.52l-63.29 0Z" id="p268w19" />
<path d="M124.06 179.42l48.06 0l0 14.52l-48.06 0Z" id="p268w20" />
<path d="M175.33 179.42l13.9 0l0 14.52l-13.9 0Z" id="p268w21" />
<path d="M192.43 179.42l23.8 0l0 14.52l-23.8 0Z" id="p268w22" />
<path d="M416.49 179.42l41.99 0l0 14.52l-41.99 0Z" id="p268w23" />
<path d="M461.69 179.42l17.11 0l0 14.52l-17.11 0Z" id="p268w24" />
<path d="M482 179.42l37.26 0l0 14.52l-37.26 0Z" id="p268w25" />
<path d="M124.06 199.54l64.65 0l0 14.52l-64.65 0Z" id="p268w26" />
<path d="M416.49 199.54l31.56 0l0 14.52l-31.56 0Z" id="p268w27" />
<path d="M124.06 219.65l51.33 0l0 14.52l-51.33 0Z" id="p268w28" />
<path d="M178.6 219.65l15.5 0l0 14.52l-15.5 0Z" id="p268w29" />
<path d="M197.3 219.65l39.02 0l0 14.52l-39.02 0Z" id="p268w30" />
<path d="M244.57 219.65l15.5 0l0 14.52l-15.5 0Z" id="p268w31" />
<path d="M263.27 219.65l28.62 0l0 14.52l-28.62 0Z" id="p268w32" />
<path d="M416.49 219.65l31.56 0l0 14.52l-31.56 0Z" id="p268w33" />
<path d="M451.26 219.65l17.11 0l0 14.52l-17.11 0Z" id="p268w34" />
<path d="M471.57 219.65l42.5 0l0 14.52l-42.5 0Z" id="p268w35" />
<path d="M525.44 219.65l17.11 0l0 14.52l-17.11 0Z" id="p268w36" />
<path d="M545.75 219.65l26.99 0l0 14.52l-26.99 0Z" id="p268w37" />
<path d="M124.06 239.77l51.33 0l0 14.52l-51.33 0Z" id="p268w38" />
<path d="M178.6 239.77l26.73 0l0 14.52l-26.73 0Z" id="p268w39" />
<path d="M208.54 239.77l9.89 0l0 14.52l-9.89 0Z" id="p268w40" />
<path d="M221.63 239.77l69.24 0l0 14.52l-69.24 0Z" id="p268w41" />
<path d="M416.49 239.77l31.56 0l0 14.52l-31.56 0Z" id="p268w42" />
<path d="M451.26 239.77l14.16 0l0 14.52l-14.16 0Z" id="p268w43" />
<path d="M468.36 239.77l68.17 0l0 14.52l-68.17 0Z" id="p268w44" />
<path d="M124.06 259.88l57.21 0l0 14.52l-57.21 0Z" id="p268w45" />
<path d="M184.47 259.88l9.89 0l0 14.52l-9.89 0Z" id="p268w46" />
<path d="M197.57 259.88l35.29 0l0 14.52l-35.29 0Z" id="p268w47" />
<path d="M236.07 259.88l47.58 0l0 14.52l-47.58 0Z" id="p268w48" />
<path d="M416.49 259.88l32.43 0l0 14.52l-32.43 0Z" id="p268w49" />
<path d="M452.13 259.88l17.11 0l0 14.52l-17.11 0Z" id="p268w50" />
<path d="M472.44 259.88l42.44 0l0 14.52l-42.44 0Z" id="p268w51" />
<path d="M518.09 259.88l45.43 0l0 14.52l-45.43 0Z" id="p268w52" />
<path d="M566.73 259.88l21.92 0l0 14.52l-21.92 0Z" id="p268w53" />
<path d="M124.06 280l69.45 0l0 14.52l-69.45 0Z" id="p268w54" />
<path d="M416.49 280l55.64 0l0 14.52l-55.64 0Z" id="p268w55" />
<path d="M124.06 300.11l56.14 0l0 14.52l-56.14 0Z" id="p268w56" />
<path d="M183.41 300.11l18.72 0l0 14.52l-18.72 0Z" id="p268w57" />
<path d="M205.33 300.11l51.04 0l0 14.52l-51.04 0Z" id="p268w58" />
<path d="M416.49 300.11l55.64 0l0 14.52l-55.64 0Z" id="p268w59" />
<path d="M475.33 300.11l24.85 0l0 14.52l-24.85 0Z" id="p268w60" />
<path d="M503.4 300.11l63.38 0l0 14.52l-63.38 0Z" id="p268w61" />
<path d="M124.06 320.23l59.34 0l0 14.52l-59.34 0Z" id="p268w62" />
<path d="M186.61 320.23l9.89 0l0 14.52l-9.89 0Z" id="p268w63" />
<path d="M199.71 320.23l66.79 0l0 14.52l-66.79 0Z" id="p268w64" />
<path d="M277.86 320.23l15.5 0l0 14.52l-15.5 0Z" id="p268w65" />
<path d="M296.56 320.23l53.67 0l0 14.52l-53.67 0Z" id="p268w66" />
<path d="M124.06 336.9l9.89 0l0 14.52l-9.89 0Z" id="p268w67" />
<path d="M137.16 336.9l44.64 0l0 14.52l-44.64 0Z" id="p268w68" />
<path d="M416.49 320.23l83.6 0l0 14.52l-83.6 0Z" id="p268w69" />
<path d="M503.3 320.23l17.11 0l0 14.52l-17.11 0Z" id="p268w70" />
<path d="M523.62 320.23l66.88 0l0 14.52l-66.88 0Z" id="p268w71" />
<path d="M601.86 320.23l17.11 0l0 14.52l-17.11 0Z" id="p268w72" />
<path d="M622.18 320.23l42.17 0l0 14.52l-42.17 0Z" id="p268w73" />
<path d="M416.49 336.9l17.11 0l0 14.52l-17.11 0Z" id="p268w74" />
<path d="M436.45 336.9l41.45 0l0 14.52l-41.45 0Z" id="p268w75" />
<path d="M124.06 357.02l52.14 0l0 14.52l-52.14 0Z" id="p268w76" />
<path d="M416.49 357.02l31.01 0l0 14.52l-31.01 0Z" id="p268w77" />
<path d="M124.06 377.13l71.29 0l0 14.52l-71.29 0Z" id="p268w78" />
<path d="M416.49 377.13l57.25 0l0 14.52l-57.25 0Z" id="p268w79" />
<path d="M124.06 397.25l46.18 0l0 14.52l-46.18 0Z" id="p268w80" />
<path d="M173.45 397.25l8.82 0l0 14.52l-8.82 0Z" id="p268w81" />
<path d="M185.48 397.25l61.47 0l0 14.52l-61.47 0Z" id="p268w82" />
<path d="M416.49 397.25l55.09 0l0 14.52l-55.09 0Z" id="p268w83" />
<path d="M474.79 397.25l31.01 0l0 14.52l-31.01 0Z" id="p268w84" />
<path d="M509.01 397.25l31.76 0l0 14.52l-31.76 0Z" id="p268w85" />
<path d="M124.06 417.36l60.64 0l0 14.52l-60.64 0Z" id="p268w86" />
<path d="M416.49 417.36l59.61 0l0 14.52l-59.61 0Z" id="p268w87" />
<path d="M124.06 437.48l28.33 0l0 14.52l-28.33 0Z" id="p268w88" />
<path d="M155.59 437.48l13.9 0l0 14.52l-13.9 0Z" id="p268w89" />
<path d="M172.7 437.48l65.17 0l0 14.52l-65.17 0Z" id="p268w90" />
<path d="M416.49 437.48l25.33 0l0 14.52l-25.33 0Z" id="p268w91" />
<path d="M445.03 437.48l17.91 0l0 14.52l-17.91 0Z" id="p268w92" />
<path d="M466.15 437.48l45.18 0l0 14.52l-45.18 0Z" id="p268w93" />
<path d="M124.06 457.6l28.33 0l0 14.52l-28.33 0Z" id="p268w94" />
<path d="M155.59 457.6l13.91 0l0 14.52l-13.91 0Z" id="p268w95" />
<path d="M172.71 457.6l15.5 0l0 14.52l-15.5 0Z" id="p268w96" />
<path d="M191.42 457.6l37.68 0l0 14.52l-37.68 0Z" id="p268w97" />
<path d="M232.31 457.6l12.29 0l0 14.52l-12.29 0Z" id="p268w98" />
<path d="M247.81 457.6l46.24 0l0 14.52l-46.24 0Z" id="p268w99" />
<path d="M416.49 457.6l28.01 0l0 14.52l-28.01 0Z" id="p268w100" />
<path d="M447.71 457.6l16.84 0l0 14.52l-16.84 0Z" id="p268w101" />
<path d="M467.76 457.6l21.92 0l0 14.52l-21.92 0Z" id="p268w102" />
<path d="M492.89 457.6l17.11 0l0 14.52l-17.11 0Z" id="p268w103" />
<path d="M513.2 457.6l40.64 0l0 14.52l-40.64 0Z" id="p268w104" />
<path d="M557.05 457.6l56.4 0l0 14.52l-56.4 0Z" id="p268w105" />
<path d="M124.06 477.71l42.25 0l0 14.52l-42.25 0Z" id="p268w106" />
<path d="M169.52 477.71l15.5 0l0 14.52l-15.5 0Z" id="p268w107" />
<path d="M188.22 477.71l71.37 0l0 14.52l-71.37 0Z" id="p268w108" />
<path d="M262.8 477.71l67.62 0l0 14.52l-67.62 0Z" id="p268w109" />
<path d="M416.49 477.71l26.73 0l0 14.52l-26.73 0Z" id="p268w110" />
<path d="M446.43 477.71l17.11 0l0 14.52l-17.11 0Z" id="p268w111" />
<path d="M466.74 477.71l75.05 0l0 14.52l-75.05 0Z" id="p268w112" />
<path d="M545 477.71l82.88 0l0 14.52l-82.88 0Z" id="p268w113" />
<path d="M124.06 497.83l42.25 0l0 14.52l-42.25 0Z" id="p268w114" />
<path d="M169.52 497.83l28.87 0l0 14.52l-28.87 0Z" id="p268w115" />
<path d="M201.59 497.83l24.33 0l0 14.52l-24.33 0Z" id="p268w116" />
<path d="M416.49 497.83l26.73 0l0 14.52l-26.73 0Z" id="p268w117" />
<path d="M446.43 497.83l24.85 0l0 14.52l-24.85 0Z" id="p268w118" />
<path d="M474.49 497.83l49.39 0l0 14.52l-49.39 0Z" id="p268w119" />
<path d="M527.09 497.83l39.57 0l0 14.52l-39.57 0Z" id="p268w120" />
<path d="M124.06 517.94l46.54 0l0 14.52l-46.54 0Z" id="p268w121" />
<path d="M416.49 517.94l24.59 0l0 14.52l-24.59 0Z" id="p268w122" />
<path d="M444.29 517.94l15.52 0l0 14.52l-15.52 0Z" id="p268w123" />
<path d="M124.06 538.06l52.63 0l0 14.52l-52.63 0Z" id="p268w124" />
<path d="M416.49 538.06l46.25 0l0 14.52l-46.25 0Z" id="p268w125" />
<path d="M124.06 558.17l66.54 0l0 14.52l-66.54 0Z" id="p268w126" />
<path d="M416.49 558.17l36.61 0l0 14.52l-36.61 0Z" id="p268w127" />
<path d="M124.06 578.29l32.87 0l0 14.52l-32.87 0Z" id="p268w128" />
<path d="M160.14 578.29l19.51 0l0 14.52l-19.51 0Z" id="p268w129" />
<path d="M182.85 578.29l56.35 0l0 14.52l-56.35 0Z" id="p268w130" />
<path d="M416.49 578.29l39.28 0l0 14.52l-39.28 0Z" id="p268w131" />
<path d="M458.98 578.29l44.85 0l0 14.52l-44.85 0Z" id="p268w132" />
<path d="M124.06 598.41l32.87 0l0 14.52l-32.87 0Z" id="p268w133" />
<path d="M160.14 598.41l19.51 0l0 14.52l-19.51 0Z" id="p268w134" />
<path d="M182.85 598.41l66.3 0l0 14.52l-66.3 0Z" id="p268w135" />
<path d="M416.49 598.41l29.13 0l0 14.52l-29.13 0Z" id="p268w136" />
<path d="M448.4 598.41l75.59 0l0 14.52l-75.59 0Z" id="p268w137" />
<path d="M527.19 598.41l16.58 0l0 14.52l-16.58 0Z" id="p268w138" />
<path d="M124.06 618.52l32.87 0l0 14.52l-32.87 0Z" id="p268w139" />
<path d="M160.14 618.52l19.51 0l0 14.52l-19.51 0Z" id="p268w140" />
<path d="M182.85 618.52l45.97 0l0 14.52l-45.97 0Z" id="p268w141" />
<path d="M416.49 618.52l32.62 0l0 14.52l-32.62 0Z" id="p268w142" />
<path d="M452.32 618.52l33.42 0l0 14.52l-33.42 0Z" id="p268w143" />
<path d="M124.06 638.64l32.87 0l0 14.52l-32.87 0Z" id="p268w144" />
<path d="M160.14 638.64l14.18 0l0 14.52l-14.18 0Z" id="p268w145" />
<path d="M177.52 638.64l7.48 0l0 14.52l-7.48 0Z" id="p268w146" />
<path d="M185 638.64l14.43 0l0 14.52l-14.43 0Z" id="p268w147" />
<path d="M212.52 638.64l28.06 0l0 14.52l-28.06 0Z" id="p268w148" />
<path d="M243.79 638.64l30.42 0l0 14.52l-30.42 0Z" id="p268w149" />
<path d="M416.49 638.64l35.28 0l0 14.52l-35.28 0Z" id="p268w150" />
<path d="M454.98 638.64l17.11 0l0 14.52l-17.11 0Z" id="p268w151" />
<path d="M475.03 638.64l51.05 0l0 14.52l-51.05 0Z" id="p268w152" />
<path d="M529.29 638.64l12.84 0l0 14.52l-12.84 0Z" id="p268w153" />
<path d="M124.06 658.75l32.87 0l0 14.52l-32.87 0Z" id="p268w154" />
<path d="M160.14 658.75l9.89 0l0 14.52l-9.89 0Z" id="p268w155" />
<path d="M173.23 658.75l44.64 0l0 14.52l-44.64 0Z" id="p268w156" />
<path d="M416.49 658.75l39.28 0l0 14.52l-39.28 0Z" id="p268w157" />
<path d="M458.98 658.75l17.11 0l0 14.52l-17.11 0Z" id="p268w158" />
<path d="M479.29 658.75l41.17 0l0 14.52l-41.17 0Z" id="p268w159" />
<path d="M124.06 678.87l32.87 0l0 14.52l-32.87 0Z" id="p268w160" />
<path d="M160.14 678.87l51.58 0l0 14.52l-51.58 0Z" id="p268w161" />
<path d="M214.93 678.87l20 0l0 14.52l-20 0Z" id="p268w162" />
<path d="M416.49 678.87l36.61 0l0 14.52l-36.61 0Z" id="p268w163" />
<path d="M456.31 678.87l17.91 0l0 14.52l-17.91 0Z" id="p268w164" />
<path d="M124.06 698.98l41.17 0l0 14.52l-41.17 0Z" id="p268w165" />
<path d="M178.59 698.98l47.53 0l0 14.52l-47.53 0Z" id="p268w166" />
<path d="M416.49 698.98l32.62 0l0 14.52l-32.62 0Z" id="p268w167" />
<path d="M462.47 698.98l50.8 0l0 14.52l-50.8 0Z" id="p268w168" />
<path d="M124.06 719.1l30.23 0l0 14.52l-30.23 0Z" id="p268w169" />
<path d="M167.38 719.1l29.42 0l0 14.52l-29.42 0Z" id="p268w170" />
<path d="M416.49 719.1l31.81 0l0 14.52l-31.81 0Z" id="p268w171" />
<path d="M451.51 719.1l12.84 0l0 14.52l-12.84 0Z" id="p268w172" />
<path d="M467.56 719.1l32.88 0l0 14.52l-32.88 0Z" id="p268w173" />
<path d="M124.06 739.22l30.23 0l0 14.52l-30.23 0Z" id="p268w174" />
<path d="M157.5 739.22l19.52 0l0 14.52l-19.52 0Z" id="p268w175" />
<path d="M180.22 739.22l61.21 0l0 14.52l-61.21 0Z" id="p268w176" />
<path d="M416.49 739.22l35.28 0l0 14.52l-35.28 0Z" id="p268w177" />
<path d="M454.98 739.22l17.11 0l0 14.52l-17.11 0Z" id="p268w178" />
<path d="M475.3 739.22l53.99 0l0 14.52l-53.99 0Z" id="p268w179" />
<path d="M124.06 759.33l30.23 0l0 14.52l-30.23 0Z" id="p268w180" />
<path d="M157.5 759.33l15.5 0l0 14.52l-15.5 0Z" id="p268w181" />
<path d="M176.2 759.33l64.14 0l0 14.52l-64.14 0Z" id="p268w182" />
<path d="M416.49 759.33l46.26 0l0 14.52l-46.26 0Z" id="p268w183" />
<path d="M465.96 759.33l10.43 0l0 14.52l-10.43 0Z" id="p268w184" />
<path d="M479.6 759.33l17.11 0l0 14.52l-17.11 0Z" id="p268w185" />
<path d="M499.91 759.33l27.36 0l0 14.52l-27.36 0Z" id="p268w186" />
<path d="M530.48 759.33l19.51 0l0 14.52l-19.51 0Z" id="p268w187" />
<path d="M553.2 759.33l78.85 0l0 14.52l-78.85 0Z" id="p268w188" />
<path d="M124.06 779.45l31.55 0l0 14.52l-31.55 0Z" id="p268w189" />
<path d="M155.61 779.45l12.57 0l0 14.52l-12.57 0Z" id="p268w190" />
<path d="M171.38 779.45l28.87 0l0 14.52l-28.87 0Z" id="p268w191" />
<path d="M203.45 779.45l44.9 0l0 14.52l-44.9 0Z" id="p268w192" />
<path d="M251.57 779.45l18.44 0l0 14.52l-18.44 0Z" id="p268w193" />
<path d="M273.21 779.45l20.85 0l0 14.52l-20.85 0Z" id="p268w194" />
<path d="M297.27 779.45l44.92 0l0 14.52l-44.92 0Z" id="p268w195" />
<path d="M416.49 779.45l66.58 0l0 14.52l-66.58 0Z" id="p268w196" />
<path d="M486.28 779.45l24.85 0l0 14.52l-24.85 0Z" id="p268w197" />
<path d="M514.34 779.45l45.43 0l0 14.52l-45.43 0Z" id="p268w198" />
<path d="M562.98 779.45l18.7 0l0 14.52l-18.7 0Z" id="p268w199" />
<path d="M584.89 779.45l34.74 0l0 14.52l-34.74 0Z" id="p268w200" />
<path d="M622.84 779.45l28.33 0l0 14.52l-28.33 0Z" id="p268w201" />
<path d="M124.06 799.56l64.85 0l0 14.52l-64.85 0Z" id="p268w202" />
<path d="M416.49 799.56l32.88 0l0 14.52l-32.88 0Z" id="p268w203" />
<path d="M452.58 799.56l26.74 0l0 14.52l-26.74 0Z" id="p268w204" />
<path d="M499.05 799.56l21.92 0l0 14.52l-21.92 0Z" id="p268w205" />
<path d="M124.06 819.68l12.83 0l0 14.52l-12.83 0Z" id="p268w206" />
<path d="M140.1 819.68l23.27 0l0 14.52l-23.27 0Z" id="p268w207" />
<path d="M166.58 819.68l55.33 0l0 14.52l-55.33 0Z" id="p268w208" />
<path d="M225.12 819.68l25.4 0l0 14.52l-25.4 0Z" id="p268w209" />
<path d="M253.72 819.68l25.67 0l0 14.52l-25.67 0Z" id="p268w210" />
<path d="M282.6 819.68l29.69 0l0 14.52l-29.69 0Z" id="p268w211" />
<path d="M416.49 819.68l20.58 0l0 14.52l-20.58 0Z" id="p268w212" />
<path d="M440.28 819.68l24.34 0l0 14.52l-24.34 0Z" id="p268w213" />
<path d="M467.82 819.68l55.33 0l0 14.52l-55.33 0Z" id="p268w214" />
<path d="M526.36 819.68l27.27 0l0 14.52l-27.27 0Z" id="p268w215" />
<path d="M556.84 819.68l26.74 0l0 14.52l-26.74 0Z" id="p268w216" />
<path d="M586.79 819.68l37.96 0l0 14.52l-37.96 0Z" id="p268w217" />
<path d="M124.06 839.79l40.85 0l0 14.52l-40.85 0Z" id="p268w218" />
<path d="M416.49 839.79l22.98 0l0 14.52l-22.98 0Z" id="p268w219" />
<path d="M124.06 859.91l27.53 0l0 14.52l-27.53 0Z" id="p268w220" />
<path d="M164.69 859.91l32.07 0l0 14.52l-32.07 0Z" id="p268w221" />
<path d="M199.97 859.91l24.88 0l0 14.52l-24.88 0Z" id="p268w222" />
<path d="M416.49 859.91l22.98 0l0 14.52l-22.98 0Z" id="p268w223" />
<path d="M442.68 859.91l21.38 0l0 14.52l-21.38 0Z" id="p268w224" />
<path d="M467.27 859.91l19.01 0l0 14.52l-19.01 0Z" id="p268w225" />
</svg>
