<?xml version="1.0" encoding="UTF-8"?>
<svg xmlns="http://www.w3.org/2000/svg" xmlns:xlink="http://www.w3.org/1999/xlink" version="1.1" baseProfile="full" width="768" height="1024" viewBox="0,0,768,1024" preserveAspectRatio="xMinYMin meet" >
<style type="text/css">
<![CDATA[
path {fill-opacity: 0.5;fill: #00aeef;visibility: hidden;}
]]>
</style>
<path d="M124.06 107.98l18.36 0l0 18.84l-18.36 0Z" id="p154w1" />
<path d="M146.07 107.98l56.09 0l0 18.84l-56.09 0Z" id="p154w2" />
<path d="M124.06 146.5l64.97 0l0 23.34l-64.97 0Z" id="p154w3" />
<path d="M194.11 146.5l103.11 0l0 23.34l-103.11 0Z" id="p154w4" />
<path d="M302.29 146.5l87.07 0l0 23.34l-87.07 0Z" id="p154w5" />
<path d="M394.44 146.5l54 0l0 23.34l-54 0Z" id="p154w6" />
<path d="M453.51 146.5l45.03 0l0 23.34l-45.03 0Z" id="p154w7" />
<path d="M503.62 146.5l62.77 0l0 23.34l-62.77 0Z" id="p154w8" />
<path d="M124.06 183.01l43.22 0l0 18.84l-43.22 0Z" id="p154w9" />
<path d="M170.93 183.01l13.62 0l0 18.84l-13.62 0Z" id="p154w10" />
<path d="M188.21 183.01l51.46 0l0 18.84l-51.46 0Z" id="p154w11" />
<path d="M135.02 214.22l28.96 0l0 14.52l-28.96 0Z" id="p154w12" />
<path d="M167.18 214.22l13.9 0l0 14.52l-13.9 0Z" id="p154w13" />
<path d="M184.29 214.22l29.67 0l0 14.52l-29.67 0Z" id="p154w14" />
<path d="M217.17 214.22l28.06 0l0 14.52l-28.06 0Z" id="p154w15" />
<path d="M248.44 214.22l13.9 0l0 14.52l-13.9 0Z" id="p154w16" />
<path d="M265.55 214.22l9.89 0l0 14.52l-9.89 0Z" id="p154w17" />
<path d="M278.64 214.22l35.27 0l0 14.52l-35.27 0Z" id="p154w18" />
<path d="M317.11 214.22l38.21 0l0 14.52l-38.21 0Z" id="p154w19" />
<path d="M358.53 214.22l13.91 0l0 14.52l-13.91 0Z" id="p154w20" />
<path d="M375.65 214.22l30.65 0l0 14.52l-30.65 0Z" id="p154w21" />
<path d="M409.51 214.22l29.39 0l0 14.52l-29.39 0Z" id="p154w22" />
<path d="M442.11 214.22l37.9 0l0 14.52l-37.9 0Z" id="p154w23" />
<path d="M483.21 214.22l33.05 0l0 14.52l-33.05 0Z" id="p154w24" />
<path d="M519.47 214.22l20.85 0l0 14.52l-20.85 0Z" id="p154w25" />
<path d="M543.54 214.22l25.67 0l0 14.52l-25.67 0Z" id="p154w26" />
<path d="M124.06 230.89l62.02 0l0 14.52l-62.02 0Z" id="p154w27" />
<path d="M189.29 230.89l15.5 0l0 14.52l-15.5 0Z" id="p154w28" />
<path d="M208 230.89l28.06 0l0 14.52l-28.06 0Z" id="p154w29" />
<path d="M239.27 230.89l45.8 0l0 14.52l-45.8 0Z" id="p154w30" />
<path d="M128.98 262.84l47.06 0l0 14.52l-47.06 0Z" id="p154w31" />
<path d="M205.64 262.84l25.94 0l0 14.52l-25.94 0Z" id="p154w32" />
<path d="M257.18 262.84l79.1 0l0 14.52l-79.1 0Z" id="p154w33" />
<path d="M361.88 262.84l65.76 0l0 14.52l-65.76 0Z" id="p154w34" />
<path d="M453.24 262.84l12.29 0l0 14.52l-12.29 0Z" id="p154w35" />
<path d="M468.74 262.84l62.55 0l0 14.52l-62.55 0Z" id="p154w36" />
<path d="M128.98 290.04l9.89 0l0 14.52l-9.89 0Z" id="p154w37" />
<path d="M142.08 290.04l71.47 0l0 14.52l-71.47 0Z" id="p154w38" />
<path d="M550.23 290.04l14.18 0l0 14.52l-14.18 0Z" id="p154w39" />
<path d="M567.61 290.04l50.25 0l0 14.52l-50.25 0Z" id="p154w40" />
<path d="M239.15 290.04l49.44 0l0 14.52l-49.44 0Z" id="p154w41" />
<path d="M314.2 290.04l9.89 0l0 14.52l-9.89 0Z" id="p154w42" />
<path d="M327.29 290.04l25.12 0l0 14.52l-25.12 0Z" id="p154w43" />
<path d="M378.01 290.07l65.52 0l0 14.52l-65.52 0Z" id="p154w44" />
<path d="M486.95 290.04l37.68 0l0 14.52l-37.68 0Z" id="p154w45" />
<path d="M128.98 317.28l20.85 0l0 14.52l-20.85 0Z" id="p154w46" />
<path d="M153.05 317.28l47.04 0l0 14.52l-47.04 0Z" id="p154w47" />
<path d="M225.69 317.28l9.89 0l0 14.52l-9.89 0Z" id="p154w48" />
<path d="M238.78 317.28l40.35 0l0 14.52l-40.35 0Z" id="p154w49" />
<path d="M304.73 317.28l20.85 0l0 14.52l-20.85 0Z" id="p154w50" />
<path d="M328.79 317.28l32.62 0l0 14.52l-32.62 0Z" id="p154w51" />
<path d="M387.01 317.28l23.26 0l0 14.52l-23.26 0Z" id="p154w52" />
<path d="M435.87 317.28l36.34 0l0 14.52l-36.34 0Z" id="p154w53" />
<path d="M141.48 347.18l29.68 0l0 15.42l-29.68 0Z" id="p154w54" />
<path d="M174.88 347.18l55.58 0l0 15.42l-55.58 0Z" id="p154w55" />
<path d="M234.19 347.18l22.03 0l0 15.42l-22.03 0Z" id="p154w56" />
<path d="M259.95 347.18l34.29 0l0 15.42l-34.29 0Z" id="p154w57" />
<path d="M297.96 347.18l11.94 0l0 15.42l-11.94 0Z" id="p154w58" />
<path d="M313.63 347.18l22.03 0l0 15.42l-22.03 0Z" id="p154w59" />
<path d="M339.38 347.18l52.14 0l0 15.42l-52.14 0Z" id="p154w60" />
<path d="M124.06 363.98l48.18 0l0 15.09l-48.18 0Z" id="p154w61" />
<path d="M175.85 363.98l19.29 0l0 15.09l-19.29 0Z" id="p154w62" />
<path d="M198.76 363.98l41.4 0l0 15.09l-41.4 0Z" id="p154w63" />
<path d="M243.76 363.98l22.03 0l0 15.09l-22.03 0Z" id="p154w64" />
<path d="M269.4 363.98l88.18 0l0 15.09l-88.18 0Z" id="p154w65" />
<path d="M361.19 363.98l28.26 0l0 15.09l-28.26 0Z" id="p154w66" />
<path d="M393.07 363.98l45.15 0l0 15.09l-45.15 0Z" id="p154w67" />
<path d="M441.83 363.98l64.39 0l0 15.09l-64.39 0Z" id="p154w68" />
<path d="M509.83 363.98l21.67 0l0 15.09l-21.67 0Z" id="p154w69" />
<path d="M535.11 363.98l19.29 0l0 15.09l-19.29 0Z" id="p154w70" />
<path d="M558.01 363.98l49.15 0l0 15.09l-49.15 0Z" id="p154w71" />
<path d="M610.77 363.98l41.74 0l0 15.09l-41.74 0Z" id="p154w72" />
<path d="M656.12 363.98l33.57 0l0 15.09l-33.57 0Z" id="p154w73" />
<path d="M124.06 380.65l19.29 0l0 15.09l-19.29 0Z" id="p154w74" />
<path d="M146.96 380.65l46.41 0l0 15.09l-46.41 0Z" id="p154w75" />
<path d="M196.98 380.65l49.09 0l0 15.09l-49.09 0Z" id="p154w76" />
<path d="M249.69 380.65l15.06 0l0 15.09l-15.06 0Z" id="p154w77" />
<path d="M268.36 380.65l44.74 0l0 15.09l-44.74 0Z" id="p154w78" />
<path d="M316.71 380.65l14.86 0l0 15.09l-14.86 0Z" id="p154w79" />
<path d="M335.18 380.65l19.29 0l0 15.09l-19.29 0Z" id="p154w80" />
<path d="M358.08 380.65l78.85 0l0 15.09l-78.85 0Z" id="p154w81" />
<path d="M440.54 380.65l44.56 0l0 15.09l-44.56 0Z" id="p154w82" />
<path d="M495.84 380.65l7.84 0l0 15.09l-7.84 0Z" id="p154w83" />
<path d="M507.29 380.65l18.28 0l0 15.09l-18.28 0Z" id="p154w84" />
<path d="M529.18 380.65l28.12 0l0 15.09l-28.12 0Z" id="p154w85" />
<path d="M560.91 380.65l21.67 0l0 15.09l-21.67 0Z" id="p154w86" />
<path d="M586.19 380.65l12.58 0l0 15.09l-12.58 0Z" id="p154w87" />
<path d="M609.34 380.65l12.22 0l0 15.09l-12.22 0Z" id="p154w88" />
<path d="M625.17 380.65l28.16 0l0 15.09l-28.16 0Z" id="p154w89" />
<path d="M656.94 380.65l10.5 0l0 15.09l-10.5 0Z" id="p154w90" />
<path d="M124.06 397.32l41.09 0l0 15.09l-41.09 0Z" id="p154w91" />
<path d="M178.86 397.32l45.3 0l0 15.09l-45.3 0Z" id="p154w92" />
<path d="M227.78 397.32l18.46 0l0 15.09l-18.46 0Z" id="p154w93" />
<path d="M249.84 397.32l60.15 0l0 15.09l-60.15 0Z" id="p154w94" />
<path d="M313.6 397.32l11.95 0l0 15.09l-11.95 0Z" id="p154w95" />
<path d="M329.17 397.32l25.23 0l0 15.09l-25.23 0Z" id="p154w96" />
<path d="M358.01 397.32l68.89 0l0 15.09l-68.89 0Z" id="p154w97" />
<path d="M430.5 397.32l19.46 0l0 15.09l-19.46 0Z" id="p154w98" />
<path d="M453.57 397.32l47.23 0l0 15.09l-47.23 0Z" id="p154w99" />
<path d="M504.42 397.32l19.46 0l0 15.09l-19.46 0Z" id="p154w100" />
<path d="M527.48 397.32l35.25 0l0 15.09l-35.25 0Z" id="p154w101" />
<path d="M566.35 397.32l12.99 0l0 15.09l-12.99 0Z" id="p154w102" />
<path d="M582.95 397.32l40.69 0l0 15.09l-40.69 0Z" id="p154w103" />
<path d="M627.25 397.32l69.48 0l0 15.09l-69.48 0Z" id="p154w104" />
<path d="M124.06 413.99l32.45 0l0 15.09l-32.45 0Z" id="p154w105" />
<path d="M160.12 413.99l25.69 0l0 15.09l-25.69 0Z" id="p154w106" />
<path d="M189.43 413.99l15.89 0l0 15.09l-15.89 0Z" id="p154w107" />
<path d="M208.92 413.99l82.68 0l0 15.09l-82.68 0Z" id="p154w108" />
<path d="M295.21 413.99l11.26 0l0 15.09l-11.26 0Z" id="p154w109" />
<path d="M310.08 413.99l10.42 0l0 15.09l-10.42 0Z" id="p154w110" />
<path d="M324.12 413.99l75.49 0l0 15.09l-75.49 0Z" id="p154w111" />
<path d="M403.22 413.99l19.46 0l0 15.09l-19.46 0Z" id="p154w112" />
<path d="M426.29 413.99l10.5 0l0 15.09l-10.5 0Z" id="p154w113" />
<path d="M440.4 413.99l31.46 0l0 15.09l-31.46 0Z" id="p154w114" />
<path d="M124.06 430.66l17.38 0l0 15.09l-17.38 0Z" id="p154w115" />
<path d="M145.05 430.66l38.17 0l0 15.09l-38.17 0Z" id="p154w116" />
<path d="M186.83 430.66l59.62 0l0 15.09l-59.62 0Z" id="p154w117" />
<path d="M250.06 430.66l13.91 0l0 15.09l-13.91 0Z" id="p154w118" />
<path d="M267.58 430.66l24.24 0l0 15.09l-24.24 0Z" id="p154w119" />
<path d="M305.66 430.66l14.86 0l0 15.09l-14.86 0Z" id="p154w120" />
<path d="M324.13 430.66l46.59 0l0 15.09l-46.59 0Z" id="p154w121" />
<path d="M384.56 430.66l28.98 0l0 15.09l-28.98 0Z" id="p154w122" />
<path d="M417.15 430.66l13.91 0l0 15.09l-13.91 0Z" id="p154w123" />
<path d="M434.67 430.66l47.26 0l0 15.09l-47.26 0Z" id="p154w124" />
<path d="M495.64 430.66l58.87 0l0 15.09l-58.87 0Z" id="p154w125" />
<path d="M558.12 430.66l25.6 0l0 15.09l-25.6 0Z" id="p154w126" />
<path d="M587.34 430.66l50.47 0l0 15.09l-50.47 0Z" id="p154w127" />
<path d="M124.06 447.33l13.91 0l0 15.09l-13.91 0Z" id="p154w128" />
<path d="M141.58 447.33l46.32 0l0 15.09l-46.32 0Z" id="p154w129" />
<path d="M191.51 447.33l26.15 0l0 15.09l-26.15 0Z" id="p154w130" />
<path d="M221.27 447.33l21.41 0l0 15.09l-21.41 0Z" id="p154w131" />
<path d="M246.3 447.33l28.61 0l0 15.09l-28.61 0Z" id="p154w132" />
<path d="M278.52 447.33l88.38 0l0 15.09l-88.38 0Z" id="p154w133" />
<path d="M380.61 447.33l13.91 0l0 15.09l-13.91 0Z" id="p154w134" />
<path d="M398.13 447.33l27.93 0l0 15.09l-27.93 0Z" id="p154w135" />
<path d="M429.67 447.33l33.03 0l0 15.09l-33.03 0Z" id="p154w136" />
<path d="M466.31 447.33l21.96 0l0 15.09l-21.96 0Z" id="p154w137" />
<path d="M491.88 447.33l42.82 0l0 15.09l-42.82 0Z" id="p154w138" />
<path d="M538.32 447.33l13.91 0l0 15.09l-13.91 0Z" id="p154w139" />
<path d="M555.84 447.33l38.39 0l0 15.09l-38.39 0Z" id="p154w140" />
<path d="M124.06 464l19.29 0l0 15.09l-19.29 0Z" id="p154w141" />
<path d="M146.96 464l45.66 0l0 15.09l-45.66 0Z" id="p154w142" />
<path d="M196.24 464l60.12 0l0 15.09l-60.12 0Z" id="p154w143" />
<path d="M259.97 464l22.03 0l0 15.09l-22.03 0Z" id="p154w144" />
<path d="M285.61 464l66.41 0l0 15.09l-66.41 0Z" id="p154w145" />
<path d="M355.63 464l27.08 0l0 15.09l-27.08 0Z" id="p154w146" />
<path d="M386.32 464l36.95 0l0 15.09l-36.95 0Z" id="p154w147" />
<path d="M426.88 464l15.15 0l0 15.09l-15.15 0Z" id="p154w148" />
<path d="M445.64 464l19.63 0l0 15.09l-19.63 0Z" id="p154w149" />
<path d="M468.88 464l30.55 0l0 15.09l-30.55 0Z" id="p154w150" />
<path d="M513.14 464l16.42 0l0 15.09l-16.42 0Z" id="p154w151" />
<path d="M533.18 464l19.29 0l0 15.09l-19.29 0Z" id="p154w152" />
<path d="M556.08 464l31.63 0l0 15.09l-31.63 0Z" id="p154w153" />
<path d="M591.32 464l11.26 0l0 15.09l-11.26 0Z" id="p154w154" />
<path d="M606.19 464l19.29 0l0 15.09l-19.29 0Z" id="p154w155" />
<path d="M629.09 464l49.09 0l0 15.09l-49.09 0Z" id="p154w156" />
<path d="M124.06 480.66l56.52 0l0 15.09l-56.52 0Z" id="p154w157" />
<path d="M192.65 480.66l19.01 0l0 15.09l-19.01 0Z" id="p154w158" />
<path d="M215.27 480.66l19.84 0l0 15.09l-19.84 0Z" id="p154w159" />
<path d="M238.73 480.66l39.78 0l0 15.09l-39.78 0Z" id="p154w160" />
<path d="M292.22 480.66l38.35 0l0 15.09l-38.35 0Z" id="p154w161" />
<path d="M334.18 480.66l26.94 0l0 15.09l-26.94 0Z" id="p154w162" />
<path d="M364.73 480.66l13.91 0l0 15.09l-13.91 0Z" id="p154w163" />
<path d="M382.24 480.66l10.42 0l0 15.09l-10.42 0Z" id="p154w164" />
<path d="M396.28 480.66l34.26 0l0 15.09l-34.26 0Z" id="p154w165" />
<path d="M434.15 480.66l7.84 0l0 15.09l-7.84 0Z" id="p154w166" />
<path d="M466.01 480.66l13.91 0l0 15.09l-13.91 0Z" id="p154w167" />
<path d="M483.53 480.66l26.14 0l0 15.09l-26.14 0Z" id="p154w168" />
<path d="M513.28 480.66l71.39 0l0 15.09l-71.39 0Z" id="p154w169" />
<path d="M124.06 497.33l12.99 0l0 15.09l-12.99 0Z" id="p154w170" />
<path d="M140.67 497.33l50.8 0l0 15.09l-50.8 0Z" id="p154w171" />
<path d="M195.08 497.33l54.78 0l0 15.09l-54.78 0Z" id="p154w172" />
<path d="M261.91 497.33l27.58 0l0 15.09l-27.58 0Z" id="p154w173" />
<path d="M301.56 497.33l46.85 0l0 15.09l-46.85 0Z" id="p154w174" />
<path d="M352.02 497.33l28.33 0l0 15.09l-28.33 0Z" id="p154w175" />
<path d="M383.95 497.33l24.24 0l0 15.09l-24.24 0Z" id="p154w176" />
<path d="M411.8 497.33l20.54 0l0 15.09l-20.54 0Z" id="p154w177" />
<path d="M435.95 497.33l28.52 0l0 15.09l-28.52 0Z" id="p154w178" />
<path d="M141.48 522.22l30.23 0l0 15.42l-30.23 0Z" id="p154w179" />
<path d="M175.43 522.22l28.24 0l0 15.42l-28.24 0Z" id="p154w180" />
<path d="M216.54 522.22l46.56 0l0 15.42l-46.56 0Z" id="p154w181" />
<path d="M266.83 522.22l29.69 0l0 15.42l-29.69 0Z" id="p154w182" />
<path d="M124.06 539.01l28.72 0l0 15.09l-28.72 0Z" id="p154w183" />
<path d="M156.4 539.01l44.63 0l0 15.09l-44.63 0Z" id="p154w184" />
<path d="M204.64 539.01l22.31 0l0 15.09l-22.31 0Z" id="p154w185" />
<path d="M230.57 539.01l50.8 0l0 15.09l-50.8 0Z" id="p154w186" />
<path d="M284.98 539.01l13.91 0l0 15.09l-13.91 0Z" id="p154w187" />
<path d="M302.5 539.01l61.45 0l0 15.09l-61.45 0Z" id="p154w188" />
<path d="M367.55 539.01l17.38 0l0 15.09l-17.38 0Z" id="p154w189" />
<path d="M388.54 539.01l38.49 0l0 15.09l-38.49 0Z" id="p154w190" />
<path d="M430.65 539.01l11.26 0l0 15.09l-11.26 0Z" id="p154w191" />
<path d="M445.51 539.01l15.15 0l0 15.09l-15.15 0Z" id="p154w192" />
<path d="M464.28 539.01l40 0l0 15.09l-40 0Z" id="p154w193" />
<path d="M507.89 539.01l12.66 0l0 15.09l-12.66 0Z" id="p154w194" />
<path d="M524.16 539.01l19.01 0l0 15.09l-19.01 0Z" id="p154w195" />
<path d="M546.78 539.01l16.64 0l0 15.09l-16.64 0Z" id="p154w196" />
<path d="M567.03 539.01l40.37 0l0 15.09l-40.37 0Z" id="p154w197" />
<path d="M611.01 539.01l24.92 0l0 15.09l-24.92 0Z" id="p154w198" />
<path d="M639.54 539.01l13.91 0l0 15.09l-13.91 0Z" id="p154w199" />
<path d="M657.06 539.01l27.16 0l0 15.09l-27.16 0Z" id="p154w200" />
<path d="M687.83 539.01l19.59 0l0 15.09l-19.59 0Z" id="p154w201" />
<path d="M147.29 555.68l18.46 0l0 15.09l-18.46 0Z" id="p154w202" />
<path d="M169.35 555.68l49.09 0l0 15.09l-49.09 0Z" id="p154w203" />
<path d="M222.06 555.68l11.26 0l0 15.09l-11.26 0Z" id="p154w204" />
<path d="M236.93 555.68l15.89 0l0 15.09l-15.89 0Z" id="p154w205" />
<path d="M256.42 555.68l31.63 0l0 15.09l-31.63 0Z" id="p154w206" />
<path d="M291.66 555.68l25.23 0l0 15.09l-25.23 0Z" id="p154w207" />
<path d="M320.5 555.68l41.7 0l0 15.09l-41.7 0Z" id="p154w208" />
<path d="M365.82 555.68l71.86 0l0 15.09l-71.86 0Z" id="p154w209" />
<path d="M451.39 555.68l10.42 0l0 15.09l-10.42 0Z" id="p154w210" />
<path d="M465.42 555.68l35.09 0l0 15.09l-35.09 0Z" id="p154w211" />
<path d="M504.12 555.68l14.86 0l0 15.09l-14.86 0Z" id="p154w212" />
<path d="M522.59 555.68l19.46 0l0 15.09l-19.46 0Z" id="p154w213" />
<path d="M545.66 555.68l10.5 0l0 15.09l-10.5 0Z" id="p154w214" />
<path d="M559.77 555.68l27.08 0l0 15.09l-27.08 0Z" id="p154w215" />
<path d="M590.46 555.68l33.21 0l0 15.09l-33.21 0Z" id="p154w216" />
<path d="M627.28 555.68l68.22 0l0 15.09l-68.22 0Z" id="p154w217" />
<path d="M124.06 572.35l61.57 0l0 15.09l-61.57 0Z" id="p154w218" />
<path d="M189.25 572.35l53.59 0l0 15.09l-53.59 0Z" id="p154w219" />
<path d="M246.45 572.35l79.81 0l0 15.09l-79.81 0Z" id="p154w220" />
<path d="M329.87 572.35l17.38 0l0 15.09l-17.38 0Z" id="p154w221" />
<path d="M350.86 572.35l29.96 0l0 15.09l-29.96 0Z" id="p154w222" />
<path d="M384.43 572.35l28.33 0l0 15.09l-28.33 0Z" id="p154w223" />
<path d="M416.37 572.35l13.91 0l0 15.09l-13.91 0Z" id="p154w224" />
<path d="M442.33 572.35l37.8 0l0 15.09l-37.8 0Z" id="p154w225" />
<path d="M483.74 572.35l31.02 0l0 15.09l-31.02 0Z" id="p154w226" />
<path d="M141.48 597.23l54.54 0l0 15.42l-54.54 0Z" id="p154w227" />
<path d="M199.75 597.23l33.44 0l0 15.42l-33.44 0Z" id="p154w228" />
<path d="M236.91 597.23l34.44 0l0 15.42l-34.44 0Z" id="p154w229" />
<path d="M275.09 597.23l24.14 0l0 15.42l-24.14 0Z" id="p154w230" />
<path d="M302.95 597.23l29.97 0l0 15.42l-29.97 0Z" id="p154w231" />
<path d="M336.65 597.23l105.03 0l0 15.42l-105.03 0Z" id="p154w232" />
<path d="M124.06 614.03l15.55 0l0 15.09l-15.55 0Z" id="p154w233" />
<path d="M143.22 614.03l47.41 0l0 15.09l-47.41 0Z" id="p154w234" />
<path d="M194.25 614.03l21.93 0l0 15.09l-21.93 0Z" id="p154w235" />
<path d="M219.78 614.03l20.4 0l0 15.09l-20.4 0Z" id="p154w236" />
<path d="M243.79 614.03l15.89 0l0 15.09l-15.89 0Z" id="p154w237" />
<path d="M263.29 614.03l20.36 0l0 15.09l-20.36 0Z" id="p154w238" />
<path d="M287.26 614.03l18.49 0l0 15.09l-18.49 0Z" id="p154w239" />
<path d="M309.36 614.03l72.28 0l0 15.09l-72.28 0Z" id="p154w240" />
<path d="M385.25 614.03l25.23 0l0 15.09l-25.23 0Z" id="p154w241" />
<path d="M414.09 614.03l46.19 0l0 15.09l-46.19 0Z" id="p154w242" />
<path d="M463.89 614.03l24.62 0l0 15.09l-24.62 0Z" id="p154w243" />
<path d="M492.13 614.03l42.1 0l0 15.09l-42.1 0Z" id="p154w244" />
<path d="M537.84 614.03l14.59 0l0 15.09l-14.59 0Z" id="p154w245" />
<path d="M556.04 614.03l39.03 0l0 15.09l-39.03 0Z" id="p154w246" />
<path d="M598.68 614.03l11.26 0l0 15.09l-11.26 0Z" id="p154w247" />
<path d="M613.55 614.03l14.59 0l0 15.09l-14.59 0Z" id="p154w248" />
<path d="M631.75 614.03l41.92 0l0 15.09l-41.92 0Z" id="p154w249" />
<path d="M124.06 630.7l65.15 0l0 15.09l-65.15 0Z" id="p154w250" />
<path d="M192.82 630.7l15.96 0l0 15.09l-15.96 0Z" id="p154w251" />
<path d="M212.39 630.7l61.46 0l0 15.09l-61.46 0Z" id="p154w252" />
<path d="M277.46 630.7l57.42 0l0 15.09l-57.42 0Z" id="p154w253" />
<path d="M338.5 630.7l25.23 0l0 15.09l-25.23 0Z" id="p154w254" />
<path d="M367.34 630.7l49.89 0l0 15.09l-49.89 0Z" id="p154w255" />
<path d="M420.84 630.7l27.16 0l0 15.09l-27.16 0Z" id="p154w256" />
<path d="M451.61 630.7l41.29 0l0 15.09l-41.29 0Z" id="p154w257" />
<path d="M519.73 630.7l50.5 0l0 15.09l-50.5 0Z" id="p154w258" />
<path d="M573.84 630.7l65.45 0l0 15.09l-65.45 0Z" id="p154w259" />
<path d="M642.91 630.7l60.87 0l0 15.09l-60.87 0Z" id="p154w260" />
<path d="M124.06 647.37l10.42 0l0 15.09l-10.42 0Z" id="p154w261" />
<path d="M138.1 647.37l42.12 0l0 15.09l-42.12 0Z" id="p154w262" />
<path d="M183.82 647.37l13.91 0l0 15.09l-13.91 0Z" id="p154w263" />
<path d="M201.34 647.37l45.66 0l0 15.09l-45.66 0Z" id="p154w264" />
<path d="M250.61 647.37l25.88 0l0 15.09l-25.88 0Z" id="p154w265" />
<path d="M280.11 647.37l51.11 0l0 15.09l-51.11 0Z" id="p154w266" />
<path d="M334.83 647.37l14.21 0l0 15.09l-14.21 0Z" id="p154w267" />
<path d="M352.66 647.37l16.45 0l0 15.09l-16.45 0Z" id="p154w268" />
<path d="M372.72 647.37l11.26 0l0 15.09l-11.26 0Z" id="p154w269" />
<path d="M387.59 647.37l14.21 0l0 15.09l-14.21 0Z" id="p154w270" />
<path d="M405.42 647.37l37.14 0l0 15.09l-37.14 0Z" id="p154w271" />
<path d="M446.17 647.37l13.91 0l0 15.09l-13.91 0Z" id="p154w272" />
<path d="M463.69 647.37l42.33 0l0 15.09l-42.33 0Z" id="p154w273" />
<path d="M509.63 647.37l41.06 0l0 15.09l-41.06 0Z" id="p154w274" />
<path d="M554.31 647.37l23.76 0l0 15.09l-23.76 0Z" id="p154w275" />
<path d="M593.26 647.37l22.31 0l0 15.09l-22.31 0Z" id="p154w276" />
<path d="M619.18 647.37l25.69 0l0 15.09l-25.69 0Z" id="p154w277" />
<path d="M124.06 664.04l65.01 0l0 15.09l-65.01 0Z" id="p154w278" />
<path d="M192.68 664.04l49.49 0l0 15.09l-49.49 0Z" id="p154w279" />
<path d="M245.78 664.04l15.89 0l0 15.09l-15.89 0Z" id="p154w280" />
<path d="M265.28 664.04l53.88 0l0 15.09l-53.88 0Z" id="p154w281" />
<path d="M322.77 664.04l31.23 0l0 15.09l-31.23 0Z" id="p154w282" />
<path d="M357.61 664.04l10.5 0l0 15.09l-10.5 0Z" id="p154w283" />
<path d="M371.72 664.04l65.62 0l0 15.09l-65.62 0Z" id="p154w284" />
<path d="M440.95 664.04l11.26 0l0 15.09l-11.26 0Z" id="p154w285" />
<path d="M455.82 664.04l10.5 0l0 15.09l-10.5 0Z" id="p154w286" />
<path d="M469.93 664.04l91.2 0l0 15.09l-91.2 0Z" id="p154w287" />
<path d="M564.74 664.04l40.68 0l0 15.09l-40.68 0Z" id="p154w288" />
<path d="M609.03 664.04l12.58 0l0 15.09l-12.58 0Z" id="p154w289" />
<path d="M625.22 664.04l14.59 0l0 15.09l-14.59 0Z" id="p154w290" />
<path d="M643.42 664.04l36.89 0l0 15.09l-36.89 0Z" id="p154w291" />
<path d="M683.92 664.04l19.46 0l0 15.09l-19.46 0Z" id="p154w292" />
<path d="M124.06 680.71l10.42 0l0 15.09l-10.42 0Z" id="p154w293" />
<path d="M138.1 680.71l42.1 0l0 15.09l-42.1 0Z" id="p154w294" />
<path d="M183.81 680.71l19.29 0l0 15.09l-19.29 0Z" id="p154w295" />
<path d="M206.71 680.71l61.97 0l0 15.09l-61.97 0Z" id="p154w296" />
<path d="M298.68 680.71l18.93 0l0 15.09l-18.93 0Z" id="p154w297" />
<path d="M321.22 680.71l34.43 0l0 15.09l-34.43 0Z" id="p154w298" />
<path d="M359.27 680.71l13.91 0l0 15.09l-13.91 0Z" id="p154w299" />
<path d="M376.78 680.71l31.63 0l0 15.09l-31.63 0Z" id="p154w300" />
<path d="M124.06 697.37l11.26 0l0 15.09l-11.26 0Z" id="p154w301" />
<path d="M138.93 697.37l49.09 0l0 15.09l-49.09 0Z" id="p154w302" />
<path d="M191.64 697.37l70.27 0l0 15.09l-70.27 0Z" id="p154w303" />
<path d="M265.52 697.37l15.74 0l0 15.09l-15.74 0Z" id="p154w304" />
<path d="M284.88 697.37l54.95 0l0 15.09l-54.95 0Z" id="p154w305" />
<path d="M343.44 697.37l30.01 0l0 15.09l-30.01 0Z" id="p154w306" />
<path d="M377.07 697.37l28.98 0l0 15.09l-28.98 0Z" id="p154w307" />
<path d="M409.66 697.37l15.06 0l0 15.09l-15.06 0Z" id="p154w308" />
<path d="M428.33 697.37l26.94 0l0 15.09l-26.94 0Z" id="p154w309" />
<path d="M458.88 697.37l15.06 0l0 15.09l-15.06 0Z" id="p154w310" />
<path d="M477.55 697.37l41.09 0l0 15.09l-41.09 0Z" id="p154w311" />
<path d="M522.25 697.37l29.86 0l0 15.09l-29.86 0Z" id="p154w312" />
<path d="M555.72 697.37l36.47 0l0 15.09l-36.47 0Z" id="p154w313" />
<path d="M595.81 697.37l13.91 0l0 15.09l-13.91 0Z" id="p154w314" />
<path d="M613.32 697.37l17.88 0l0 15.09l-17.88 0Z" id="p154w315" />
<path d="M638.91 697.44l40.97 0l0 15.09l-40.97 0Z" id="p154w316" />
<path d="M124.06 714.11l74.21 0l0 15.09l-74.21 0Z" id="p154w317" />
<path d="M211.98 714.11l38.23 0l0 15.09l-38.23 0Z" id="p154w318" />
<path d="M253.83 714.11l24.48 0l0 15.09l-24.48 0Z" id="p154w319" />
<path d="M281.92 714.11l33.56 0l0 15.09l-33.56 0Z" id="p154w320" />
<path d="M319.09 714.11l13.91 0l0 15.09l-13.91 0Z" id="p154w321" />
<path d="M336.61 714.11l44.65 0l0 15.09l-44.65 0Z" id="p154w322" />
<path d="M384.86 714.11l14.59 0l0 15.09l-14.59 0Z" id="p154w323" />
<path d="M403.06 714.11l57.68 0l0 15.09l-57.68 0Z" id="p154w324" />
<path d="M464.35 714.11l44.76 0l0 15.09l-44.76 0Z" id="p154w325" />
<path d="M512.73 714.11l65.62 0l0 15.09l-65.62 0Z" id="p154w326" />
<path d="M124.06 730.78l23.07 0l0 15.09l-23.07 0Z" id="p154w327" />
<path d="M150.74 730.78l52.41 0l0 15.09l-52.41 0Z" id="p154w328" />
<path d="M206.76 730.78l10.5 0l0 15.09l-10.5 0Z" id="p154w329" />
<path d="M220.87 730.78l36.47 0l0 15.09l-36.47 0Z" id="p154w330" />
<path d="M260.96 730.78l13.91 0l0 15.09l-13.91 0Z" id="p154w331" />
<path d="M278.48 730.78l37.18 0l0 15.09l-37.18 0Z" id="p154w332" />
<path d="M319.27 730.78l56.23 0l0 15.09l-56.23 0Z" id="p154w333" />
<path d="M389.21 730.78l27.25 0l0 15.09l-27.25 0Z" id="p154w334" />
<path d="M420.07 730.78l26.64 0l0 15.09l-26.64 0Z" id="p154w335" />
<path d="M450.32 730.78l49.54 0l0 15.09l-49.54 0Z" id="p154w336" />
<path d="M503.48 730.78l25.88 0l0 15.09l-25.88 0Z" id="p154w337" />
<path d="M532.97 730.78l42.67 0l0 15.09l-42.67 0Z" id="p154w338" />
<path d="M579.25 730.78l51.06 0l0 15.09l-51.06 0Z" id="p154w339" />
<path d="M633.92 730.78l33.25 0l0 15.09l-33.25 0Z" id="p154w340" />
<path d="M670.78 730.78l37.8 0l0 15.09l-37.8 0Z" id="p154w341" />
<path d="M124.06 747.45l34.58 0l0 15.09l-34.58 0Z" id="p154w342" />
<path d="M162.26 747.45l31.63 0l0 15.09l-31.63 0Z" id="p154w343" />
<path d="M197.5 747.45l11.26 0l0 15.09l-11.26 0Z" id="p154w344" />
<path d="M212.37 747.45l49.09 0l0 15.09l-49.09 0Z" id="p154w345" />
<path d="M265.07 747.45l25.23 0l0 15.09l-25.23 0Z" id="p154w346" />
<path d="M293.91 747.45l36.47 0l0 15.09l-36.47 0Z" id="p154w347" />
<path d="M334 747.45l52.29 0l0 15.09l-52.29 0Z" id="p154w348" />
<path d="M389.9 747.45l27.82 0l0 15.09l-27.82 0Z" id="p154w349" />
<path d="M421.34 747.45l40.42 0l0 15.09l-40.42 0Z" id="p154w350" />
<path d="M465.37 747.45l15.89 0l0 15.09l-15.89 0Z" id="p154w351" />
<path d="M484.87 747.45l47.89 0l0 15.09l-47.89 0Z" id="p154w352" />
<path d="M536.36 747.45l16.55 0l0 15.09l-16.55 0Z" id="p154w353" />
<path d="M124.06 764.12l12.58 0l0 15.09l-12.58 0Z" id="p154w354" />
<path d="M140.25 764.12l43.76 0l0 15.09l-43.76 0Z" id="p154w355" />
<path d="M187.63 764.12l65.11 0l0 15.09l-65.11 0Z" id="p154w356" />
<path d="M256.35 764.12l27.82 0l0 15.09l-27.82 0Z" id="p154w357" />
<path d="M287.78 764.12l102.12 0l0 15.09l-102.12 0Z" id="p154w358" />
<path d="M597.18 781.67l23.72 0l0 13.12l-23.72 0Z" id="p154w359" />
<path d="M623.11 781.67l20.89 0l0 13.12l-20.89 0Z" id="p154w360" />
<path d="M655.24 781.67l27.16 0l0 13.12l-27.16 0Z" id="p154w361" />
<path d="M684.62 781.67l24.3 0l0 13.12l-24.3 0Z" id="p154w362" />
<path d="M124.06 816.58l43.04 0l0 18.84l-43.04 0Z" id="p154w363" />
<path d="M170.75 816.58l13.62 0l0 18.84l-13.62 0Z" id="p154w364" />
<path d="M188.02 816.58l51.46 0l0 18.84l-51.46 0Z" id="p154w365" />
<path d="M124.06 847.78l51.33 0l0 14.52l-51.33 0Z" id="p154w366" />
<path d="M178.6 847.78l15.5 0l0 14.52l-15.5 0Z" id="p154w367" />
<path d="M197.3 847.78l28.06 0l0 14.52l-28.06 0Z" id="p154w368" />
<path d="M228.57 847.78l20.85 0l0 14.52l-20.85 0Z" id="p154w369" />
<path d="M252.64 847.78l25.67 0l0 14.52l-25.67 0Z" id="p154w370" />
<path d="M281.52 847.78l13.9 0l0 14.52l-13.9 0Z" id="p154w371" />
<path d="M298.62 847.78l62.02 0l0 14.52l-62.02 0Z" id="p154w372" />
<path d="M363.85 847.78l19.51 0l0 14.52l-19.51 0Z" id="p154w373" />
<path d="M386.57 847.78l26.73 0l0 14.52l-26.73 0Z" id="p154w374" />
<path d="M416.51 847.78l9.89 0l0 14.52l-9.89 0Z" id="p154w375" />
<path d="M429.6 847.78l69.24 0l0 14.52l-69.24 0Z" id="p154w376" />
<path d="M143.75 881.12l42.53 0l0 14.52l-42.53 0Z" id="p154w377" />
<path d="M189.49 881.12l26.73 0l0 14.52l-26.73 0Z" id="p154w378" />
<path d="M219.43 881.12l9.89 0l0 14.52l-9.89 0Z" id="p154w379" />
<path d="M232.52 881.12l28.33 0l0 14.52l-28.33 0Z" id="p154w380" />
<path d="M264.05 881.12l15.5 0l0 14.52l-15.5 0Z" id="p154w381" />
<path d="M282.76 881.12l57.22 0l0 14.52l-57.22 0Z" id="p154w382" />
<path d="M343.18 881.12l13.9 0l0 14.52l-13.9 0Z" id="p154w383" />
<path d="M360.29 881.12l9.89 0l0 14.52l-9.89 0Z" id="p154w384" />
<path d="M373.38 881.12l60.44 0l0 14.52l-60.44 0Z" id="p154w385" />
<path d="M437.03 881.12l35.29 0l0 14.52l-35.29 0Z" id="p154w386" />
<path d="M143.75 897.8l39.03 0l0 14.52l-39.03 0Z" id="p154w387" />
<path d="M185.99 897.8l19.52 0l0 14.52l-19.52 0Z" id="p154w388" />
<path d="M208.72 897.8l29.13 0l0 14.52l-29.13 0Z" id="p154w389" />
<path d="M241.06 897.8l11.22 0l0 14.52l-11.22 0Z" id="p154w390" />
<path d="M255.49 897.8l47.24 0l0 14.52l-47.24 0Z" id="p154w391" />
<path d="M305.93 897.8l20.85 0l0 14.52l-20.85 0Z" id="p154w392" />
<path d="M330 897.8l25.67 0l0 14.52l-25.67 0Z" id="p154w393" />
<path d="M358.88 897.8l67.11 0l0 14.52l-67.11 0Z" id="p154w394" />
<path d="M435.6 897.8l60.33 0l0 14.52l-60.33 0Z" id="p154w395" />
<path d="M499.15 897.8l23.18 0l0 14.52l-23.18 0Z" id="p154w396" />
<path d="M525.53 897.8l12.02 0l0 14.52l-12.02 0Z" id="p154w397" />
<path d="M540.76 897.8l48.92 0l0 14.52l-48.92 0Z" id="p154w398" />
<path d="M143.75 914.47l32.87 0l0 14.52l-32.87 0Z" id="p154w399" />
<path d="M179.83 914.47l20.85 0l0 14.52l-20.85 0Z" id="p154w400" />
<path d="M203.89 914.47l25.92 0l0 14.52l-25.92 0Z" id="p154w401" />
<path d="M124.06 947.81l40.98 0l0 14.52l-40.98 0Z" id="p154w402" />
<path d="M168.25 947.81l28.35 0l0 14.52l-28.35 0Z" id="p154w403" />
<path d="M199.81 947.81l47.06 0l0 14.52l-47.06 0Z" id="p154w404" />
<path d="M250.08 947.81l28.62 0l0 14.52l-28.62 0Z" id="p154w405" />
<path d="M281.9 947.81l24.85 0l0 14.52l-24.85 0Z" id="p154w406" />
<path d="M309.96 947.81l49.71 0l0 14.52l-49.71 0Z" id="p154w407" />
<path d="M362.88 947.81l33.68 0l0 14.52l-33.68 0Z" id="p154w408" />
<path d="M72.89 882.9l15.07 0l0 12.29l-15.07 0Z" id="p154w409" />
<path d="M60.03 949.59l27.93 0l0 12.29l-27.93 0Z" id="p154w410" />
<path d="M124.06 38.6l16.59 0l0 16.09l-16.59 0Z" id="p154w411" />
<path d="M144.03 38.6l28.66 0l0 16.09l-28.66 0Z" id="p154w412" />
<path d="M186.89 38.6l99.65 0l0 16.09l-99.65 0Z" id="p154w413" />
<path d="M76.9 983l95.99 0l0 12.23l-95.99 0Z" id="p154w414" />
</svg>
