<?xml version="1.0" encoding="UTF-8"?>
<svg xmlns="http://www.w3.org/2000/svg" xmlns:xlink="http://www.w3.org/1999/xlink" version="1.1" baseProfile="full" width="768" height="1024" viewBox="0,0,768,1024" preserveAspectRatio="xMinYMin meet" >
<style type="text/css">
<![CDATA[
path {fill-opacity: 0.5;fill: #00aeef;visibility: hidden;}
]]>
</style>
<path d="M124.06 114.11l43.03 0l0 14.6l-43.03 0Z" id="p43w1" />
<path d="M170.3 114.18l13.91 0l0 14.52l-13.91 0Z" id="p43w2" />
<path d="M187.42 114.11l45.09 0l0 14.6l-45.09 0Z" id="p43w3" />
<path d="M244 114.18l59.34 0l0 14.52l-59.34 0Z" id="p43w4" />
<path d="M306.56 114.18l15.5 0l0 14.52l-15.5 0Z" id="p43w5" />
<path d="M325.26 114.18l43.29 0l0 14.52l-43.29 0Z" id="p43w6" />
<path d="M371.76 114.18l25.4 0l0 14.52l-25.4 0Z" id="p43w7" />
<path d="M400.36 114.18l9.89 0l0 14.52l-9.89 0Z" id="p43w8" />
<path d="M413.46 114.18l33.41 0l0 14.52l-33.41 0Z" id="p43w9" />
<path d="M450.07 114.18l17.38 0l0 14.52l-17.38 0Z" id="p43w10" />
<path d="M470.66 114.18l50.54 0l0 14.52l-50.54 0Z" id="p43w11" />
<path d="M124.06 140.96l19.9 0l0 12.29l-19.9 0Z" id="p43w12" />
<path d="M152.79 139.19l65.43 0l0 14.52l-65.43 0Z" id="p43w13" />
<path d="M221.43 139.19l9.62 0l0 14.52l-9.62 0Z" id="p43w14" />
<path d="M234.25 139.19l13.9 0l0 14.52l-13.9 0Z" id="p43w15" />
<path d="M251.36 139.19l21.38 0l0 14.52l-21.38 0Z" id="p43w16" />
<path d="M275.95 139.19l19.51 0l0 14.52l-19.51 0Z" id="p43w17" />
<path d="M298.67 139.19l33.68 0l0 14.52l-33.68 0Z" id="p43w18" />
<path d="M335.56 139.19l13.63 0l0 14.52l-13.63 0Z" id="p43w19" />
<path d="M352.4 139.19l44.39 0l0 14.52l-44.39 0Z" id="p43w20" />
<path d="M400 139.19l26.45 0l0 14.52l-26.45 0Z" id="p43w21" />
<path d="M429.66 139.19l9.62 0l0 14.52l-9.62 0Z" id="p43w22" />
<path d="M442.49 139.19l21.38 0l0 14.52l-21.38 0Z" id="p43w23" />
<path d="M486.03 139.19l54 0l0 14.52l-54 0Z" id="p43w24" />
<path d="M543.24 139.19l45.95 0l0 14.52l-45.95 0Z" id="p43w25" />
<path d="M143.75 155.86l13.9 0l0 14.52l-13.9 0Z" id="p43w26" />
<path d="M160.86 155.86l12.57 0l0 14.52l-12.57 0Z" id="p43w27" />
<path d="M176.63 155.86l49.99 0l0 14.52l-49.99 0Z" id="p43w28" />
<path d="M124.06 174.31l29.46 0l0 12.29l-29.46 0Z" id="p43w29" />
<path d="M181.31 172.53l76.99 0l0 14.52l-76.99 0Z" id="p43w30" />
<path d="M261.51 172.53l6.41 0l0 14.52l-6.41 0Z" id="p43w31" />
<path d="M280.22 172.53l27.08 0l0 14.52l-27.08 0Z" id="p43w32" />
<path d="M329.48 172.53l31.01 0l0 14.52l-31.01 0Z" id="p43w33" />
<path d="M363.69 172.53l50.53 0l0 14.52l-50.53 0Z" id="p43w34" />
<path d="M417.42 172.53l57.73 0l0 14.52l-57.73 0Z" id="p43w35" />
<path d="M478.36 172.53l13.63 0l0 14.52l-13.63 0Z" id="p43w36" />
<path d="M495.21 172.53l44.39 0l0 14.52l-44.39 0Z" id="p43w37" />
<path d="M143.75 189.2l26.45 0l0 14.52l-26.45 0Z" id="p43w38" />
<path d="M173.41 189.2l33.67 0l0 14.52l-33.67 0Z" id="p43w39" />
<path d="M229.25 189.21l28.87 0l0 14.52l-28.87 0Z" id="p43w40" />
<path d="M261.33 189.21l14.18 0l0 14.52l-14.18 0Z" id="p43w41" />
<path d="M278.71 189.21l41.71 0l0 14.52l-41.71 0Z" id="p43w42" />
<path d="M342.59 189.21l82.61 0l0 14.52l-82.61 0Z" id="p43w43" />
<path d="M124.06 207.65l19.9 0l0 12.29l-19.9 0Z" id="p43w44" />
<path d="M171.24 205.88l50.79 0l0 14.52l-50.79 0Z" id="p43w45" />
<path d="M225.24 205.88l9.62 0l0 14.52l-9.62 0Z" id="p43w46" />
<path d="M238.07 205.88l36.71 0l0 14.52l-36.71 0Z" id="p43w47" />
<path d="M277.99 205.88l19.51 0l0 14.52l-19.51 0Z" id="p43w48" />
<path d="M300.7 205.88l9.89 0l0 14.52l-9.89 0Z" id="p43w49" />
<path d="M313.8 205.88l47.58 0l0 14.52l-47.58 0Z" id="p43w50" />
<path d="M383.55 205.88l61.48 0l0 14.52l-61.48 0Z" id="p43w51" />
<path d="M448.24 205.88l26.45 0l0 14.52l-26.45 0Z" id="p43w52" />
<path d="M477.89 205.88l28.33 0l0 14.52l-28.33 0Z" id="p43w53" />
<path d="M509.43 205.88l57.47 0l0 14.52l-57.47 0Z" id="p43w54" />
<path d="M153.64 222.55l20.85 0l0 14.52l-20.85 0Z" id="p43w55" />
<path d="M177.7 222.55l22.2 0l0 14.52l-22.2 0Z" id="p43w56" />
<path d="M222.07 222.55l60.07 0l0 14.52l-60.07 0Z" id="p43w57" />
<path d="M124.06 241l29.46 0l0 12.29l-29.46 0Z" id="p43w58" />
<path d="M162.35 239.23l26.19 0l0 14.52l-26.19 0Z" id="p43w59" />
<path d="M210.7 239.23l25.66 0l0 14.52l-25.66 0Z" id="p43w60" />
<path d="M239.57 239.23l14.18 0l0 14.52l-14.18 0Z" id="p43w61" />
<path d="M256.95 239.23l39.24 0l0 14.52l-39.24 0Z" id="p43w62" />
<path d="M299.4 239.23l17.38 0l0 14.52l-17.38 0Z" id="p43w63" />
<path d="M319.99 239.23l12.66 0l0 14.52l-12.66 0Z" id="p43w64" />
<path d="M335.86 239.23l27.53 0l0 14.52l-27.53 0Z" id="p43w65" />
<path d="M366.6 239.23l14.18 0l0 14.52l-14.18 0Z" id="p43w66" />
<path d="M383.98 239.23l36.63 0l0 14.52l-36.63 0Z" id="p43w67" />
<path d="M442.78 239.23l51.58 0l0 14.52l-51.58 0Z" id="p43w68" />
<path d="M124.07 272.57l55.34 0l0 14.52l-55.34 0Z" id="p43w69" />
<path d="M182.62 272.57l19.52 0l0 14.52l-19.52 0Z" id="p43w70" />
<path d="M205.35 272.57l56.68 0l0 14.52l-56.68 0Z" id="p43w71" />
<path d="M124.07 289.24l40.63 0l0 14.52l-40.63 0Z" id="p43w72" />
<path d="M167.9 289.17l31.57 0l0 14.6l-31.57 0Z" id="p43w73" />
<path d="M202.68 289.17l21.87 0l0 14.6l-21.87 0Z" id="p43w74" />
<path d="M230.44 289.17l53.44 0l0 14.6l-53.44 0Z" id="p43w75" />
<path d="M289.77 289.17l31.57 0l0 14.6l-31.57 0Z" id="p43w76" />
<path d="M324.55 289.17l52.31 0l0 14.6l-52.31 0Z" id="p43w77" />
<path d="M382.75 289.17l69.98 0l0 14.6l-69.98 0Z" id="p43w78" />
<path d="M455.94 289.17l13.9 0l0 14.6l-13.9 0Z" id="p43w79" />
<path d="M159.25 314.25l33.33 0l0 14.52l-33.33 0Z" id="p43w80" />
<path d="M195.79 314.25l20.85 0l0 14.52l-20.85 0Z" id="p43w81" />
<path d="M219.85 314.25l11.5 0l0 14.52l-11.5 0Z" id="p43w82" />
<path d="M234.56 314.25l12.29 0l0 14.52l-12.29 0Z" id="p43w83" />
<path d="M250.05 314.25l44.38 0l0 14.52l-44.38 0Z" id="p43w84" />
<path d="M297.64 314.25l44.92 0l0 14.52l-44.92 0Z" id="p43w85" />
<path d="M345.76 314.25l32.35 0l0 14.52l-32.35 0Z" id="p43w86" />
<path d="M159.25 330.93l33.33 0l0 14.52l-33.33 0Z" id="p43w87" />
<path d="M195.79 330.93l20.85 0l0 14.52l-20.85 0Z" id="p43w88" />
<path d="M219.85 330.93l11.5 0l0 14.52l-11.5 0Z" id="p43w89" />
<path d="M234.56 330.93l42.49 0l0 14.52l-42.49 0Z" id="p43w90" />
<path d="M280.25 330.93l54.82 0l0 14.52l-54.82 0Z" id="p43w91" />
<path d="M159.25 347.6l33.33 0l0 14.52l-33.33 0Z" id="p43w92" />
<path d="M195.79 347.6l20.85 0l0 14.52l-20.85 0Z" id="p43w93" />
<path d="M219.85 347.6l11.5 0l0 14.52l-11.5 0Z" id="p43w94" />
<path d="M234.56 347.6l12.29 0l0 14.52l-12.29 0Z" id="p43w95" />
<path d="M250.05 347.6l28.33 0l0 14.52l-28.33 0Z" id="p43w96" />
<path d="M291.47 347.6l54.82 0l0 14.52l-54.82 0Z" id="p43w97" />
<path d="M159.25 364.27l33.33 0l0 14.52l-33.33 0Z" id="p43w98" />
<path d="M195.79 364.27l20.85 0l0 14.52l-20.85 0Z" id="p43w99" />
<path d="M219.85 364.27l44.92 0l0 14.52l-44.92 0Z" id="p43w100" />
<path d="M267.98 364.27l32.35 0l0 14.52l-32.35 0Z" id="p43w101" />
<path d="M303.54 364.27l24.31 0l0 14.52l-24.31 0Z" id="p43w102" />
<path d="M331.06 364.27l31.8 0l0 14.52l-31.8 0Z" id="p43w103" />
<path d="M159.25 380.94l33.33 0l0 14.52l-33.33 0Z" id="p43w104" />
<path d="M195.79 380.94l20.85 0l0 14.52l-20.85 0Z" id="p43w105" />
<path d="M219.85 380.94l54.82 0l0 14.52l-54.82 0Z" id="p43w106" />
<path d="M277.88 380.94l13.19 0l0 14.52l-13.19 0Z" id="p43w107" />
<path d="M294.27 380.94l39.02 0l0 14.52l-39.02 0Z" id="p43w108" />
<path d="M159.25 397.62l33.33 0l0 14.52l-33.33 0Z" id="p43w109" />
<path d="M195.79 397.62l20.85 0l0 14.52l-20.85 0Z" id="p43w110" />
<path d="M219.85 397.62l11.5 0l0 14.52l-11.5 0Z" id="p43w111" />
<path d="M234.56 397.62l12.29 0l0 14.52l-12.29 0Z" id="p43w112" />
<path d="M250.05 397.62l35.56 0l0 14.52l-35.56 0Z" id="p43w113" />
<path d="M288.82 397.62l44.92 0l0 14.52l-44.92 0Z" id="p43w114" />
<path d="M336.94 397.62l32.35 0l0 14.52l-32.35 0Z" id="p43w115" />
<path d="M159.25 414.29l33.33 0l0 14.52l-33.33 0Z" id="p43w116" />
<path d="M195.79 414.29l20.85 0l0 14.52l-20.85 0Z" id="p43w117" />
<path d="M219.85 414.29l54.82 0l0 14.52l-54.82 0Z" id="p43w118" />
<path d="M277.88 414.29l27.8 0l0 14.52l-27.8 0Z" id="p43w119" />
<path d="M308.88 414.29l25.4 0l0 14.52l-25.4 0Z" id="p43w120" />
<path d="M337.48 414.29l14.7 0l0 14.52l-14.7 0Z" id="p43w121" />
<path d="M159.25 430.96l33.33 0l0 14.52l-33.33 0Z" id="p43w122" />
<path d="M195.79 430.96l20.85 0l0 14.52l-20.85 0Z" id="p43w123" />
<path d="M219.85 430.96l44.92 0l0 14.52l-44.92 0Z" id="p43w124" />
<path d="M267.98 430.96l32.35 0l0 14.52l-32.35 0Z" id="p43w125" />
<path d="M313.42 430.96l40.84 0l0 14.52l-40.84 0Z" id="p43w126" />
<path d="M422.24 314.25l36.05 0l0 14.52l-36.05 0Z" id="p43w127" />
<path d="M422.24 330.93l36.05 0l0 14.52l-36.05 0Z" id="p43w128" />
<path d="M422.24 347.6l36.05 0l0 14.52l-36.05 0Z" id="p43w129" />
<path d="M422.24 364.27l36.05 0l0 14.52l-36.05 0Z" id="p43w130" />
<path d="M422.24 380.94l36.05 0l0 14.52l-36.05 0Z" id="p43w131" />
<path d="M422.24 397.62l36.05 0l0 14.52l-36.05 0Z" id="p43w132" />
<path d="M422.24 414.29l36.05 0l0 14.52l-36.05 0Z" id="p43w133" />
<path d="M422.24 430.96l36.05 0l0 14.52l-36.05 0Z" id="p43w134" />
<path d="M124.06 464.3l28.06 0l0 14.52l-28.06 0Z" id="p43w135" />
<path d="M155.33 464.3l40.89 0l0 14.52l-40.89 0Z" id="p43w136" />
<path d="M199.43 464.3l17.9 0l0 14.52l-17.9 0Z" id="p43w137" />
<path d="M220.54 464.3l38.5 0l0 14.52l-38.5 0Z" id="p43w138" />
<path d="M262.25 464.3l19.51 0l0 14.52l-19.51 0Z" id="p43w139" />
<path d="M284.96 464.3l48.39 0l0 14.52l-48.39 0Z" id="p43w140" />
<path d="M336.56 464.3l14.18 0l0 14.52l-14.18 0Z" id="p43w141" />
<path d="M353.94 464.3l61.21 0l0 14.52l-61.21 0Z" id="p43w142" />
<path d="M428.24 464.3l12.29 0l0 14.52l-12.29 0Z" id="p43w143" />
<path d="M443.74 464.3l37.17 0l0 14.52l-37.17 0Z" id="p43w144" />
<path d="M484.11 464.3l40.92 0l0 14.52l-40.92 0Z" id="p43w145" />
<path d="M124.06 480.97l50.54 0l0 14.52l-50.54 0Z" id="p43w146" />
<path d="M177.81 480.97l15.5 0l0 14.52l-15.5 0Z" id="p43w147" />
<path d="M196.51 480.97l54.79 0l0 14.52l-54.79 0Z" id="p43w148" />
<path d="M254.51 480.97l8.82 0l0 14.52l-8.82 0Z" id="p43w149" />
<path d="M266.54 480.97l61.47 0l0 14.52l-61.47 0Z" id="p43w150" />
<path d="M143.76 505.99l26.74 0l0 14.52l-26.74 0Z" id="p43w151" />
<path d="M173.7 505.99l9.89 0l0 14.52l-9.89 0Z" id="p43w152" />
<path d="M186.8 505.99l53.72 0l0 14.52l-53.72 0Z" id="p43w153" />
<path d="M243.73 505.99l18.72 0l0 14.52l-18.72 0Z" id="p43w154" />
<path d="M262.44 505.99l28.87 0l0 14.52l-28.87 0Z" id="p43w155" />
<path d="M294.52 505.99l14.18 0l0 14.52l-14.18 0Z" id="p43w156" />
<path d="M311.9 505.99l55.33 0l0 14.52l-55.33 0Z" id="p43w157" />
<path d="M370.44 505.99l10.43 0l0 14.52l-10.43 0Z" id="p43w158" />
<path d="M384.07 505.99l15.06 0l0 14.52l-15.06 0Z" id="p43w159" />
<path d="M421.3 505.99l42.49 0l0 14.52l-42.49 0Z" id="p43w160" />
<path d="M143.76 522.66l43.03 0l0 14.52l-43.03 0Z" id="p43w161" />
<path d="M143.76 539.33l26.19 0l0 14.52l-26.19 0Z" id="p43w162" />
<path d="M173.15 539.33l14.18 0l0 14.52l-14.18 0Z" id="p43w163" />
<path d="M190.53 539.33l44.64 0l0 14.52l-44.64 0Z" id="p43w164" />
<path d="M238.38 539.33l20.85 0l0 14.52l-20.85 0Z" id="p43w165" />
<path d="M262.44 539.33l28.88 0l0 14.52l-28.88 0Z" id="p43w166" />
<path d="M294.53 539.33l14.16 0l0 14.52l-14.16 0Z" id="p43w167" />
<path d="M340.74 539.34l50.78 0l0 14.52l-50.78 0Z" id="p43w168" />
<path d="M394.73 539.34l25.67 0l0 14.52l-25.67 0Z" id="p43w169" />
<path d="M143.76 556.01l9.89 0l0 14.52l-9.89 0Z" id="p43w170" />
<path d="M156.85 556.01l51.85 0l0 14.52l-51.85 0Z" id="p43w171" />
<path d="M211.91 556.01l13.9 0l0 14.52l-13.9 0Z" id="p43w172" />
<path d="M229.01 556.01l65.8 0l0 14.52l-65.8 0Z" id="p43w173" />
<path d="M143.76 572.68l48.68 0l0 14.52l-48.68 0Z" id="p43w174" />
<path d="M195.64 572.68l14.18 0l0 14.52l-14.18 0Z" id="p43w175" />
<path d="M213.03 572.68l44.11 0l0 14.52l-44.11 0Z" id="p43w176" />
<path d="M260.35 572.68l20.85 0l0 14.52l-20.85 0Z" id="p43w177" />
<path d="M284.41 572.68l47.58 0l0 14.52l-47.58 0Z" id="p43w178" />
<path d="M335.2 572.68l18.44 0l0 14.52l-18.44 0Z" id="p43w179" />
<path d="M356.85 572.68l76.2 0l0 14.52l-76.2 0Z" id="p43w180" />
<path d="M143.76 589.35l23.8 0l0 14.52l-23.8 0Z" id="p43w181" />
<path d="M189.72 589.35l45.45 0l0 14.52l-45.45 0Z" id="p43w182" />
<path d="M238.37 589.35l26.73 0l0 14.52l-26.73 0Z" id="p43w183" />
<path d="M268.31 589.35l15.5 0l0 14.52l-15.5 0Z" id="p43w184" />
<path d="M287.01 589.35l30.74 0l0 14.52l-30.74 0Z" id="p43w185" />
<path d="M143.76 606.03l22.19 0l0 14.52l-22.19 0Z" id="p43w186" />
<path d="M169.15 606.03l50.45 0l0 14.52l-50.45 0Z" id="p43w187" />
<path d="M222.81 606.03l26.74 0l0 14.52l-26.74 0Z" id="p43w188" />
<path d="M281.6 606.03l39.56 0l0 14.52l-39.56 0Z" id="p43w189" />
<path d="M143.76 622.7l46 0l0 14.52l-46 0Z" id="p43w190" />
<path d="M192.97 622.7l15.5 0l0 14.52l-15.5 0Z" id="p43w191" />
<path d="M211.67 622.7l42.51 0l0 14.52l-42.51 0Z" id="p43w192" />
<path d="M257.39 622.7l41.17 0l0 14.52l-41.17 0Z" id="p43w193" />
<path d="M301.77 622.7l28.6 0l0 14.52l-28.6 0Z" id="p43w194" />
<path d="M333.58 622.7l42.77 0l0 14.52l-42.77 0Z" id="p43w195" />
<path d="M408.39 622.7l44.09 0l0 14.52l-44.09 0Z" id="p43w196" />
<path d="M143.76 639.37l17.11 0l0 14.52l-17.11 0Z" id="p43w197" />
<path d="M164.07 639.37l9.89 0l0 14.52l-9.89 0Z" id="p43w198" />
<path d="M177.17 639.37l31.01 0l0 14.52l-31.01 0Z" id="p43w199" />
<path d="M143.76 656.04l27.8 0l0 14.52l-27.8 0Z" id="p43w200" />
<path d="M174.76 656.04l42.07 0l0 14.52l-42.07 0Z" id="p43w201" />
<path d="M220.04 656.04l14.18 0l0 14.52l-14.18 0Z" id="p43w202" />
<path d="M237.42 656.04l35.56 0l0 14.52l-35.56 0Z" id="p43w203" />
<path d="M276.19 656.04l28.06 0l0 14.52l-28.06 0Z" id="p43w204" />
<path d="M307.45 656.04l19.51 0l0 14.52l-19.51 0Z" id="p43w205" />
<path d="M330.17 656.04l47.57 0l0 14.52l-47.57 0Z" id="p43w206" />
<path d="M380.95 656.04l34.39 0l0 14.52l-34.39 0Z" id="p43w207" />
<path d="M418.54 656.04l28.6 0l0 14.52l-28.6 0Z" id="p43w208" />
<path d="M143.76 672.71l45.45 0l0 14.52l-45.45 0Z" id="p43w209" />
<path d="M192.41 672.71l28.07 0l0 14.52l-28.07 0Z" id="p43w210" />
<path d="M223.43 672.71l39.2 0l0 14.52l-39.2 0Z" id="p43w211" />
<path d="M265.84 672.71l15.5 0l0 14.52l-15.5 0Z" id="p43w212" />
<path d="M313.38 672.72l58 0l0 14.52l-58 0Z" id="p43w213" />
<path d="M124.06 716.54l27.54 0l0 18.84l-27.54 0Z" id="p43w214" />
<path d="M155.26 716.54l37.06 0l0 18.84l-37.06 0Z" id="p43w215" />
<path d="M195.97 716.54l21.46 0l0 18.84l-21.46 0Z" id="p43w216" />
<path d="M221.08 716.54l39.7 0l0 18.84l-39.7 0Z" id="p43w217" />
<path d="M124.06 747.75l50.43 0l0 14.52l-50.43 0Z" id="p43w218" />
<path d="M177.7 747.75l20.85 0l0 14.52l-20.85 0Z" id="p43w219" />
<path d="M201.77 747.75l25.67 0l0 14.52l-25.67 0Z" id="p43w220" />
<path d="M230.65 747.75l27.26 0l0 14.52l-27.26 0Z" id="p43w221" />
<path d="M261.11 747.75l13.9 0l0 14.52l-13.9 0Z" id="p43w222" />
<path d="M278.22 747.75l43.83 0l0 14.52l-43.83 0Z" id="p43w223" />
<path d="M143.75 772.76l15.25 0l0 14.52l-15.25 0Z" id="p43w224" />
<path d="M162.21 772.76l32.27 0l0 14.52l-32.27 0Z" id="p43w225" />
<path d="M197.69 772.76l25.12 0l0 14.52l-25.12 0Z" id="p43w226" />
<path d="M226.01 772.76l19.51 0l0 14.52l-19.51 0Z" id="p43w227" />
<path d="M248.73 772.76l25.92 0l0 14.52l-25.92 0Z" id="p43w228" />
<path d="M277.86 772.76l20.85 0l0 14.52l-20.85 0Z" id="p43w229" />
<path d="M301.92 772.76l17.11 0l0 14.52l-17.11 0Z" id="p43w230" />
<path d="M143.75 789.43l15.25 0l0 14.52l-15.25 0Z" id="p43w231" />
<path d="M162.21 789.43l29.59 0l0 14.52l-29.59 0Z" id="p43w232" />
<path d="M195.01 789.43l41.96 0l0 14.52l-41.96 0Z" id="p43w233" />
<path d="M240.17 789.43l56.68 0l0 14.52l-56.68 0Z" id="p43w234" />
<path d="M300.06 789.43l25.12 0l0 14.52l-25.12 0Z" id="p43w235" />
<path d="M328.39 789.43l11.22 0l0 14.52l-11.22 0Z" id="p43w236" />
<path d="M342.81 789.43l32.88 0l0 14.52l-32.88 0Z" id="p43w237" />
<path d="M378.9 789.43l30.41 0l0 14.52l-30.41 0Z" id="p43w238" />
<path d="M143.75 806.1l15.25 0l0 14.52l-15.25 0Z" id="p43w239" />
<path d="M162.21 806.1l55.07 0l0 14.52l-55.07 0Z" id="p43w240" />
<path d="M220.48 806.1l25.12 0l0 14.52l-25.12 0Z" id="p43w241" />
<path d="M248.81 806.1l24.33 0l0 14.52l-24.33 0Z" id="p43w242" />
<path d="M276.34 806.1l38.77 0l0 14.52l-38.77 0Z" id="p43w243" />
<path d="M318.31 806.1l14.97 0l0 14.52l-14.97 0Z" id="p43w244" />
<path d="M336.49 806.1l32.88 0l0 14.52l-32.88 0Z" id="p43w245" />
<path d="M372.58 806.1l53.72 0l0 14.52l-53.72 0Z" id="p43w246" />
<path d="M143.75 822.77l15.25 0l0 14.52l-15.25 0Z" id="p43w247" />
<path d="M162.21 822.77l35.22 0l0 14.52l-35.22 0Z" id="p43w248" />
<path d="M200.63 822.77l14.18 0l0 14.52l-14.18 0Z" id="p43w249" />
<path d="M218.01 822.77l31.01 0l0 14.52l-31.01 0Z" id="p43w250" />
<path d="M252.23 822.77l45.45 0l0 14.52l-45.45 0Z" id="p43w251" />
<path d="M300.88 822.77l13.9 0l0 14.52l-13.9 0Z" id="p43w252" />
<path d="M317.98 822.77l23.53 0l0 14.52l-23.53 0Z" id="p43w253" />
<path d="M344.73 822.77l47.79 0l0 14.52l-47.79 0Z" id="p43w254" />
<path d="M143.75 839.44l15.25 0l0 14.52l-15.25 0Z" id="p43w255" />
<path d="M162.21 839.44l58.8 0l0 14.52l-58.8 0Z" id="p43w256" />
<path d="M224.22 839.44l25.12 0l0 14.52l-25.12 0Z" id="p43w257" />
<path d="M252.54 839.44l14.97 0l0 14.52l-14.97 0Z" id="p43w258" />
<path d="M270.72 839.44l49.18 0l0 14.52l-49.18 0Z" id="p43w259" />
<path d="M323.11 839.44l49.39 0l0 14.52l-49.39 0Z" id="p43w260" />
<path d="M375.7 839.44l21.12 0l0 14.52l-21.12 0Z" id="p43w261" />
<path d="M143.75 856.11l15.25 0l0 14.52l-15.25 0Z" id="p43w262" />
<path d="M162.21 856.11l44.63 0l0 14.52l-44.63 0Z" id="p43w263" />
<path d="M210.04 856.11l25.12 0l0 14.52l-25.12 0Z" id="p43w264" />
<path d="M238.37 856.11l14.18 0l0 14.52l-14.18 0Z" id="p43w265" />
<path d="M255.75 856.11l63.08 0l0 14.52l-63.08 0Z" id="p43w266" />
<path d="M322.04 856.11l47.24 0l0 14.52l-47.24 0Z" id="p43w267" />
<path d="M372.48 856.11l26.73 0l0 14.52l-26.73 0Z" id="p43w268" />
<path d="M143.75 872.78l15.25 0l0 14.52l-15.25 0Z" id="p43w269" />
<path d="M162.21 872.78l32.27 0l0 14.52l-32.27 0Z" id="p43w270" />
<path d="M197.69 872.78l25.12 0l0 14.52l-25.12 0Z" id="p43w271" />
<path d="M226.01 872.78l14.18 0l0 14.52l-14.18 0Z" id="p43w272" />
<path d="M243.4 872.78l43.31 0l0 14.52l-43.31 0Z" id="p43w273" />
<path d="M289.91 872.78l31.81 0l0 14.52l-31.81 0Z" id="p43w274" />
<path d="M324.93 872.78l23.26 0l0 14.52l-23.26 0Z" id="p43w275" />
<path d="M143.75 889.45l15.25 0l0 14.52l-15.25 0Z" id="p43w276" />
<path d="M162.21 889.45l44.63 0l0 14.52l-44.63 0Z" id="p43w277" />
<path d="M210.04 889.45l25.12 0l0 14.52l-25.12 0Z" id="p43w278" />
<path d="M238.37 889.45l14.18 0l0 14.52l-14.18 0Z" id="p43w279" />
<path d="M255.75 889.45l23.8 0l0 14.52l-23.8 0Z" id="p43w280" />
<path d="M282.76 889.45l30.49 0l0 14.52l-30.49 0Z" id="p43w281" />
<path d="M316.45 889.45l32.89 0l0 14.52l-32.89 0Z" id="p43w282" />
<path d="M352.55 889.45l36.88 0l0 14.52l-36.88 0Z" id="p43w283" />
<path d="M392.64 889.45l15.77 0l0 14.52l-15.77 0Z" id="p43w284" />
<path d="M411.62 889.45l19.51 0l0 14.52l-19.51 0Z" id="p43w285" />
<path d="M434.34 889.45l42.87 0l0 14.52l-42.87 0Z" id="p43w286" />
<path d="M480.42 889.45l42.44 0l0 14.52l-42.44 0Z" id="p43w287" />
<path d="M526.06 889.45l26.73 0l0 14.52l-26.73 0Z" id="p43w288" />
<path d="M143.75 906.12l15.25 0l0 14.52l-15.25 0Z" id="p43w289" />
<path d="M162.21 906.12l29.59 0l0 14.52l-29.59 0Z" id="p43w290" />
<path d="M195.01 906.12l41.96 0l0 14.52l-41.96 0Z" id="p43w291" />
<path d="M240.17 906.12l56.68 0l0 14.52l-56.68 0Z" id="p43w292" />
<path d="M300.06 906.12l25.12 0l0 14.52l-25.12 0Z" id="p43w293" />
<path d="M328.39 906.12l11.22 0l0 14.52l-11.22 0Z" id="p43w294" />
<path d="M342.81 906.12l28.07 0l0 14.52l-28.07 0Z" id="p43w295" />
<path d="M374.09 906.12l19.51 0l0 14.52l-19.51 0Z" id="p43w296" />
<path d="M396.81 906.12l31.64 0l0 14.52l-31.64 0Z" id="p43w297" />
<path d="M431.66 906.12l21.12 0l0 14.52l-21.12 0Z" id="p43w298" />
<path d="M455.72 906.12l31.27 0l0 14.52l-31.27 0Z" id="p43w299" />
<path d="M490.2 906.12l25.4 0l0 14.52l-25.4 0Z" id="p43w300" />
<path d="M518.8 906.12l23.53 0l0 14.52l-23.53 0Z" id="p43w301" />
<path d="M545.54 906.12l12.84 0l0 14.52l-12.84 0Z" id="p43w302" />
<path d="M561.59 906.12l47.32 0l0 14.52l-47.32 0Z" id="p43w303" />
<path d="M143.75 922.8l15.25 0l0 14.52l-15.25 0Z" id="p43w304" />
<path d="M162.21 922.8l32.27 0l0 14.52l-32.27 0Z" id="p43w305" />
<path d="M197.69 922.8l25.12 0l0 14.52l-25.12 0Z" id="p43w306" />
<path d="M226.01 922.8l14.18 0l0 14.52l-14.18 0Z" id="p43w307" />
<path d="M243.4 922.8l19.51 0l0 14.52l-19.51 0Z" id="p43w308" />
<path d="M265.75 922.8l39.03 0l0 14.52l-39.03 0Z" id="p43w309" />
<path d="M307.99 922.8l29.88 0l0 14.52l-29.88 0Z" id="p43w310" />
<path d="M341.08 922.8l56.15 0l0 14.52l-56.15 0Z" id="p43w311" />
<path d="M400.44 922.8l26.73 0l0 14.52l-26.73 0Z" id="p43w312" />
<path d="M60.68 721.76l27.93 0l0 12.29l-27.93 0Z" id="p43w313" />
<path d="M619.35 687.13l8.33 0l0 12.23l-8.33 0Z" id="p43w314" />
<path d="M630.37 687.13l27.23 0l0 12.23l-27.23 0Z" id="p43w315" />
<path d="M660.31 687.13l11.7 0l0 12.23l-11.7 0Z" id="p43w316" />
<path d="M674.71 687.13l34.21 0l0 12.23l-34.21 0Z" id="p43w317" />
<path d="M68.27 39.02l42.71 0l0 15.38l-42.71 0Z" id="p43w318" />
<path d="M152.25 39.02l43.21 0l0 15.38l-43.21 0Z" id="p43w319" />
<path d="M249.32 39.02l43.21 0l0 15.38l-43.21 0Z" id="p43w320" />
<path d="M358.23 39.02l28.68 0l0 15.38l-28.68 0Z" id="p43w321" />
<path d="M390.29 39.02l45.07 0l0 15.38l-45.07 0Z" id="p43w322" />
<path d="M468.42 38.6l34.29 0l0 16.09l-34.29 0Z" id="p43w323" />
<path d="M527.54 26.71l16.09 0l0 13.93l-16.09 0Z" id="p43w324" />
<path d="M547.18 27.74l48.96 0l0 15.66l-48.96 0Z" id="p43w325" />
<path d="M599.68 30.49l10.89 0l0 13.66l-10.89 0Z" id="p43w326" />
<path d="M614.12 31.25l18.54 0l0 14.06l-18.54 0Z" id="p43w327" />
<path d="M526.67 43.36l75.35 0l0 17.04l-75.35 0Z" id="p43w328" />
<path d="M612.34 47.85l22.77 0l0 14.29l-22.77 0Z" id="p43w329" />
<path d="M525.8 60.01l13.22 0l0 13.78l-13.22 0Z" id="p43w330" />
<path d="M542.57 60.89l12.03 0l0 13.72l-12.03 0Z" id="p43w331" />
<path d="M558.15 61.71l25.27 0l0 14.42l-25.27 0Z" id="p43w332" />
<path d="M621.24 983l69.86 0l0 12.23l-69.86 0Z" id="p43w333" />
</svg>
