<?xml version="1.0" encoding="UTF-8"?>
<svg xmlns="http://www.w3.org/2000/svg" xmlns:xlink="http://www.w3.org/1999/xlink" version="1.1" baseProfile="full" width="768" height="1024" viewBox="0,0,768,1024" preserveAspectRatio="xMinYMin meet" >
<style type="text/css">
<![CDATA[
path {fill-opacity: 0.5;fill: #00aeef;visibility: hidden;}
]]>
</style>
<path d="M124.06 38.6l71 0l0 16.09l-71 0Z" id="p206w1" />
<path d="M78.77 983.66l80 0l0 12.23l-80 0Z" id="p206w2" />
<path d="M124.06 110.01l45.78 0l0 14.6l-45.78 0Z" id="p206w3" />
<path d="M173.04 110.01l32.19 0l0 14.6l-32.19 0Z" id="p206w4" />
<path d="M208.54 108.77l40.96 0l0 16.35l-40.96 0Z" id="p206w5" />
<path d="M129.97 135.65l45.78 0l0 14.6l-45.78 0Z" id="p206w6" />
<path d="M185.37 135.72l9.62 0l0 14.52l-9.62 0Z" id="p206w7" />
<path d="M198.2 135.72l35.56 0l0 14.52l-35.56 0Z" id="p206w8" />
<path d="M236.96 135.72l11.5 0l0 14.52l-11.5 0Z" id="p206w9" />
<path d="M251.67 135.72l35.56 0l0 14.52l-35.56 0Z" id="p206w10" />
<path d="M290.43 135.72l50.26 0l0 14.52l-50.26 0Z" id="p206w11" />
<path d="M343.9 135.72l27.27 0l0 14.52l-27.27 0Z" id="p206w12" />
<path d="M381.75 135.72l26.74 0l0 14.52l-26.74 0Z" id="p206w13" />
<path d="M129.97 152.39l20.05 0l0 14.52l-20.05 0Z" id="p206w14" />
<path d="M150.02 152.32l14.2 0l0 14.6l-14.2 0Z" id="p206w15" />
<path d="M164.22 152.39l22.47 0l0 14.52l-22.47 0Z" id="p206w16" />
<path d="M189.89 152.39l25.67 0l0 14.52l-25.67 0Z" id="p206w17" />
<path d="M218.77 152.39l20.05 0l0 14.52l-20.05 0Z" id="p206w18" />
<path d="M238.82 152.32l14.2 0l0 14.6l-14.2 0Z" id="p206w19" />
<path d="M253.03 152.39l15.25 0l0 14.52l-15.25 0Z" id="p206w20" />
<path d="M271.48 152.39l42.36 0l0 14.52l-42.36 0Z" id="p206w21" />
<path d="M317.04 152.39l20.05 0l0 14.52l-20.05 0Z" id="p206w22" />
<path d="M337.09 152.32l14.2 0l0 14.6l-14.2 0Z" id="p206w23" />
<path d="M351.3 152.39l21.34 0l0 14.52l-21.34 0Z" id="p206w24" />
<path d="M375.85 152.32l30.74 0l0 14.68l-30.74 0Z" id="p206w25" />
<path d="M129.97 169l47.06 0l0 14.68l-47.06 0Z" id="p206w26" />
<path d="M186.87 169.06l14.8 0l0 14.52l-14.8 0Z" id="p206w27" />
<path d="M204.88 169l35.39 0l0 14.6l-35.39 0Z" id="p206w28" />
<path d="M129.97 185.73l18.18 0l0 14.52l-18.18 0Z" id="p206w29" />
<path d="M150.92 185.73l39.03 0l0 14.52l-39.03 0Z" id="p206w30" />
<path d="M193.15 185.67l39.25 0l0 14.6l-39.25 0Z" id="p206w31" />
<path d="M235.62 185.73l104.18 0l0 14.52l-104.18 0Z" id="p206w32" />
<path d="M343.01 185.73l21.4 0l0 14.52l-21.4 0Z" id="p206w33" />
<path d="M367.61 185.67l42.84 0l0 14.6l-42.84 0Z" id="p206w34" />
<path d="M129.97 202.4l43.29 0l0 14.52l-43.29 0Z" id="p206w35" />
<path d="M176.47 202.4l35.49 0l0 14.52l-35.49 0Z" id="p206w36" />
<path d="M215.17 202.4l61.47 0l0 14.52l-61.47 0Z" id="p206w37" />
<path d="M279.85 202.4l113.13 0l0 14.52l-113.13 0Z" id="p206w38" />
<path d="M297.35 110.09l48.1 0l0 14.52l-48.1 0Z" id="p206w39" />
<path d="M348.66 110.09l47.32 0l0 14.52l-47.32 0Z" id="p206w40" />
<path d="M482.46 110.09l49.17 0l0 14.52l-49.17 0Z" id="p206w41" />
<path d="M534.4 110.09l35.02 0l0 14.52l-35.02 0Z" id="p206w42" />
<path d="M572.62 110.09l31.81 0l0 14.52l-31.81 0Z" id="p206w43" />
<path d="M607.64 110.09l9.89 0l0 14.52l-9.89 0Z" id="p206w44" />
<path d="M620.73 110.09l24.54 0l0 14.52l-24.54 0Z" id="p206w45" />
<path d="M648.48 110.09l27.8 0l0 14.52l-27.8 0Z" id="p206w46" />
<path d="M482.46 126.76l59.09 0l0 14.52l-59.09 0Z" id="p206w47" />
<path d="M124.06 229.65l57.5 0l0 14.6l-57.5 0Z" id="p206w48" />
<path d="M184.85 228.41l50.06 0l0 16.35l-50.06 0Z" id="p206w49" />
<path d="M297.35 229.73l61.4 0l0 14.52l-61.4 0ZM482.46 229.73l20.05 0l0 14.52l-20.05 0Z" id="p206w50" />
<path d="M515.6 229.73l37.68 0l0 14.52l-37.68 0Z" id="p206w51" />
<path d="M556.49 229.73l19.51 0l0 14.52l-19.51 0Z" id="p206w52" />
<path d="M579.21 229.73l47.31 0l0 14.52l-47.31 0Z" id="p206w53" />
<path d="M629.72 229.73l57.67 0l0 14.52l-57.67 0Z" id="p206w54" />
<path d="M482.46 246.4l25.67 0l0 14.52l-25.67 0Z" id="p206w55" />
<path d="M511.34 246.4l19.79 0l0 14.52l-19.79 0Z" id="p206w56" />
<path d="M534.33 246.4l37.17 0l0 14.52l-37.17 0Z" id="p206w57" />
<path d="M574.71 246.4l75.63 0l0 14.52l-75.63 0Z" id="p206w58" />
<path d="M124.06 264.47l12.42 0l0 14.6l-12.42 0Z" id="p206w59" />
<path d="M139.68 264.47l46.2 0l0 14.6l-46.2 0Z" id="p206w60" />
<path d="M189.09 264.47l13.87 0l0 14.6l-13.87 0Z" id="p206w61" />
<path d="M206.17 264.47l32.19 0l0 14.6l-32.19 0Z" id="p206w62" />
<path d="M124.06 279.9l49.37 0l0 16.35l-49.37 0Z" id="p206w63" />
<path d="M129.97 306.79l12.42 0l0 14.6l-12.42 0Z" id="p206w64" />
<path d="M145.6 306.79l46.2 0l0 14.6l-46.2 0Z" id="p206w65" />
<path d="M195 306.85l24.59 0l0 14.52l-24.59 0Z" id="p206w66" />
<path d="M222.8 306.85l19.77 0l0 14.52l-19.77 0Z" id="p206w67" />
<path d="M245.78 306.79l45.78 0l0 14.6l-45.78 0Z" id="p206w68" />
<path d="M294.76 306.85l59.25 0l0 14.52l-59.25 0Z" id="p206w69" />
<path d="M129.97 323.46l30.74 0l0 14.68l-30.74 0Z" id="p206w70" />
<path d="M163.92 323.46l47.06 0l0 14.68l-47.06 0Z" id="p206w71" />
<path d="M220.82 323.53l6.41 0l0 14.52l-6.41 0Z" id="p206w72" />
<path d="M230.44 323.53l24.31 0l0 14.52l-24.31 0Z" id="p206w73" />
<path d="M257.96 323.53l56.8 0l0 14.52l-56.8 0Z" id="p206w74" />
<path d="M317.97 323.53l24.31 0l0 14.52l-24.31 0Z" id="p206w75" />
<path d="M345.49 323.53l38.75 0l0 14.52l-38.75 0Z" id="p206w76" />
<path d="M297.35 264.55l21.92 0l0 14.52l-21.92 0Z" id="p206w77" />
<path d="M322.48 264.55l25.4 0l0 14.52l-25.4 0Z" id="p206w78" />
<path d="M351.08 264.55l48.1 0l0 14.52l-48.1 0Z" id="p206w79" />
<path d="M297.35 281.22l67.62 0l0 14.52l-67.62 0Z" id="p206w80" />
<path d="M482.46 264.55l25.13 0l0 14.52l-25.13 0Z" id="p206w81" />
<path d="M510.8 264.55l25.38 0l0 14.52l-25.38 0Z" id="p206w82" />
<path d="M539.39 264.55l12.29 0l0 14.52l-12.29 0Z" id="p206w83" />
<path d="M554.88 264.55l32.07 0l0 14.52l-32.07 0Z" id="p206w84" />
<path d="M590.16 264.55l29.67 0l0 14.52l-29.67 0Z" id="p206w85" />
<path d="M623.04 264.55l9.89 0l0 14.52l-9.89 0Z" id="p206w86" />
<path d="M636.14 264.55l44.65 0l0 14.52l-44.65 0Z" id="p206w87" />
<path d="M124.06 352.39l27.6 0l0 14.6l-27.6 0Z" id="p206w88" />
<path d="M154.86 352.39l21.03 0l0 14.6l-21.03 0Z" id="p206w89" />
<path d="M193.23 352.39l16.91 0l0 14.6l-16.91 0Z" id="p206w90" />
<path d="M213.44 351.15l63.01 0l0 16.35l-63.01 0Z" id="p206w91" />
<path d="M297.35 352.47l61.76 0l0 14.52l-61.76 0Z" id="p206w92" />
<path d="M362.32 352.47l35.02 0l0 14.52l-35.02 0Z" id="p206w93" />
<path d="M482.46 352.47l12.41 0l0 14.52l-12.41 0Z" id="p206w94" />
<path d="M498.07 352.47l12.29 0l0 14.52l-12.29 0Z" id="p206w95" />
<path d="M513.57 352.47l20.84 0l0 14.52l-20.84 0Z" id="p206w96" />
<path d="M124.06 373.1l10.02 0l0 14.6l-10.02 0Z" id="p206w97" />
<path d="M137.28 373.1l35.8 0l0 14.6l-35.8 0Z" id="p206w98" />
<path d="M176.38 371.86l42.2 0l0 16.35l-42.2 0Z" id="p206w99" />
<path d="M297.35 373.18l18.44 0l0 14.52l-18.44 0Z" id="p206w100" />
<path d="M319 373.18l34.77 0l0 14.52l-34.77 0Z" id="p206w101" />
<path d="M482.46 373.18l25.13 0l0 14.52l-25.13 0Z" id="p206w102" />
<path d="M510.8 373.18l26.72 0l0 14.52l-26.72 0Z" id="p206w103" />
<path d="M550.6 373.18l20.84 0l0 14.52l-20.84 0Z" id="p206w104" />
<path d="M574.65 373.18l13.63 0l0 14.52l-13.63 0Z" id="p206w105" />
<path d="M591.5 373.18l38.49 0l0 14.52l-38.49 0Z" id="p206w106" />
<path d="M500.19 389.87l35.55 0l0 14.61l-35.55 0Z" id="p206w107" />
<path d="M124.06 407.93l20.99 0l0 14.6l-20.99 0Z" id="p206w108" />
<path d="M148 407.93l65.69 0l0 14.6l-65.69 0Z" id="p206w109" />
<path d="M216.75 406.69l64.85 0l0 16.35l-64.85 0Z" id="p206w110" />
<path d="M297.34 408.01l23.79 0l0 14.52l-23.79 0Z" id="p206w111" />
<path d="M324.33 408.01l125.33 0l0 14.52l-125.33 0Z" id="p206w112" />
<path d="M482.45 408.01l28.34 0l0 14.52l-28.34 0Z" id="p206w113" />
<path d="M513.99 408.01l16.83 0l0 14.52l-16.83 0Z" id="p206w114" />
<path d="M543.92 408.01l44.64 0l0 14.52l-44.64 0Z" id="p206w115" />
<path d="M591.76 408.01l25.67 0l0 14.52l-25.67 0Z" id="p206w116" />
<path d="M482.45 424.68l20.85 0l0 14.52l-20.85 0Z" id="p206w117" />
<path d="M506.51 424.68l68.44 0l0 14.52l-68.44 0Z" id="p206w118" />
<path d="M500.19 441.37l51.53 0l0 14.61l-51.53 0Z" id="p206w119" />
<path d="M124.06 459.42l20.99 0l0 14.6l-20.99 0Z" id="p206w120" />
<path d="M148.25 459.42l44.67 0l0 14.6l-44.67 0Z" id="p206w121" />
<path d="M196.22 458.18l52.16 0l0 16.35l-52.16 0Z" id="p206w122" />
<path d="M297.35 459.5l17.11 0l0 14.52l-17.11 0Z" id="p206w123" />
<path d="M317.67 459.5l37.42 0l0 14.52l-37.42 0Z" id="p206w124" />
<path d="M482.46 459.5l26.19 0l0 14.52l-26.19 0Z" id="p206w125" />
<path d="M511.86 459.5l20.85 0l0 14.52l-20.85 0Z" id="p206w126" />
<path d="M535.92 459.5l47.62 0l0 14.52l-47.62 0Z" id="p206w127" />
<path d="M500.19 476.18l46.22 0l0 14.61l-46.22 0Z" id="p206w128" />
<path d="M549.45 476.18l36.94 0l0 14.61l-36.94 0Z" id="p206w129" />
<path d="M124.06 494.24l10.03 0l0 14.6l-10.03 0Z" id="p206w130" />
<path d="M137.3 494.24l7.87 0l0 14.6l-7.87 0Z" id="p206w131" />
<path d="M145.17 494.24l23.89 0l0 14.6l-23.89 0Z" id="p206w132" />
<path d="M172.36 493l44.56 0l0 16.35l-44.56 0Z" id="p206w133" />
<path d="M297.35 494.32l19.51 0l0 14.52l-19.51 0Z" id="p206w134" />
<path d="M320.07 494.32l34.48 0l0 14.52l-34.48 0Z" id="p206w135" />
<path d="M500.19 498.63l28.06 0l0 14.61l-28.06 0Z" id="p206w136" />
<path d="M124.06 516.69l59.26 0l0 14.6l-59.26 0Z" id="p206w137" />
<path d="M186.63 515.45l50.69 0l0 16.35l-50.69 0Z" id="p206w138" />
<path d="M297.36 516.77l37.95 0l0 14.52l-37.95 0Z" id="p206w139" />
<path d="M124.06 537.4l14.31 0l0 14.6l-14.31 0Z" id="p206w140" />
<path d="M141.58 537.4l45.6 0l0 14.6l-45.6 0Z" id="p206w141" />
<path d="M187.18 537.4l20.99 0l0 14.6l-20.99 0Z" id="p206w142" />
<path d="M211.38 537.4l47.17 0l0 14.6l-47.17 0Z" id="p206w143" />
<path d="M124.06 552.83l92 0l0 16.35l-92 0Z" id="p206w144" />
<path d="M297.36 537.48l17.11 0l0 14.52l-17.11 0Z" id="p206w145" />
<path d="M317.67 537.48l68.56 0l0 14.52l-68.56 0Z" id="p206w146" />
<path d="M389.43 537.48l50.25 0l0 14.52l-50.25 0Z" id="p206w147" />
<path d="M124.06 572.21l14.31 0l0 14.6l-14.31 0Z" id="p206w148" />
<path d="M141.58 572.21l67.55 0l0 14.6l-67.55 0Z" id="p206w149" />
<path d="M212.43 570.97l54.13 0l0 16.35l-54.13 0Z" id="p206w150" />
<path d="M297.36 572.29l17.11 0l0 14.52l-17.11 0Z" id="p206w151" />
<path d="M317.31 572.29l37.96 0l0 14.52l-37.96 0Z" id="p206w152" />
<path d="M124.06 592.92l44.05 0l0 14.6l-44.05 0Z" id="p206w153" />
<path d="M171.32 592.92l67.55 0l0 14.6l-67.55 0Z" id="p206w154" />
<path d="M242.08 592.92l34.41 0l0 14.6l-34.41 0Z" id="p206w155" />
<path d="M124.06 609.59l24.84 0l0 14.6l-24.84 0Z" id="p206w156" />
<path d="M152.11 609.59l18.65 0l0 14.6l-18.65 0Z" id="p206w157" />
<path d="M174.06 608.35l98.39 0l0 16.35l-98.39 0Z" id="p206w158" />
<path d="M297.36 593l31.01 0l0 14.52l-31.01 0Z" id="p206w159" />
<path d="M331.21 593l37.96 0l0 14.52l-37.96 0Z" id="p206w160" />
<path d="M372.38 593l63.88 0l0 14.52l-63.88 0Z" id="p206w161" />
<path d="M297.36 609.67l45.04 0l0 14.52l-45.04 0Z" id="p206w162" />
<path d="M345.6 609.67l28.07 0l0 14.52l-28.07 0Z" id="p206w163" />
<path d="M482.46 593l15.6 0l0 14.52l-15.6 0Z" id="p206w164" />
<path d="M501.27 593l20.58 0l0 14.52l-20.58 0Z" id="p206w165" />
<path d="M525.06 593l67.55 0l0 14.52l-67.55 0Z" id="p206w166" />
<path d="M595.82 593l25.67 0l0 14.52l-25.67 0Z" id="p206w167" />
<path d="M624.7 593l9.89 0l0 14.52l-9.89 0Z" id="p206w168" />
<path d="M637.79 593l42.78 0l0 14.52l-42.78 0Z" id="p206w169" />
<path d="M482.46 609.67l35.29 0l0 14.52l-35.29 0Z" id="p206w170" />
<path d="M545.11 609.67l40.36 0l0 14.52l-40.36 0Z" id="p206w171" />
<path d="M124.06 627.74l14.31 0l0 14.6l-14.31 0Z" id="p206w172" />
<path d="M141.58 627.74l42.7 0l0 14.6l-42.7 0Z" id="p206w173" />
<path d="M187.58 626.5l55.98 0l0 16.35l-55.98 0Z" id="p206w174" />
<path d="M297.36 627.82l17.11 0l0 14.52l-17.11 0Z" id="p206w175" />
<path d="M317.67 627.82l39.9 0l0 14.52l-39.9 0Z" id="p206w176" />
<path d="M360.78 627.82l17.11 0l0 14.52l-17.11 0Z" id="p206w177" />
<path d="M381.09 627.82l22.45 0l0 14.52l-22.45 0Z" id="p206w178" />
<path d="M124.06 648.45l10.03 0l0 14.6l-10.03 0Z" id="p206w179" />
<path d="M137.3 648.45l22.73 0l0 14.6l-22.73 0Z" id="p206w180" />
<path d="M163.33 647.21l32.39 0l0 16.35l-32.39 0Z" id="p206w181" />
<path d="M297.36 648.53l18.44 0l0 14.52l-18.44 0Z" id="p206w182" />
<path d="M319 648.53l25.5 0l0 14.52l-25.5 0Z" id="p206w183" />
<path d="M124.06 669.16l10.03 0l0 14.6l-10.03 0Z" id="p206w184" />
<path d="M137.3 669.16l32.13 0l0 14.6l-32.13 0Z" id="p206w185" />
<path d="M172.73 667.92l43.29 0l0 16.35l-43.29 0Z" id="p206w186" />
<path d="M297.36 669.24l18.44 0l0 14.52l-18.44 0Z" id="p206w187" />
<path d="M319 669.24l24.05 0l0 14.52l-24.05 0Z" id="p206w188" />
<path d="M124.06 689.87l20.99 0l0 14.6l-20.99 0Z" id="p206w189" />
<path d="M148.26 689.87l69.38 0l0 14.6l-69.38 0Z" id="p206w190" />
<path d="M124.06 705.3l73.94 0l0 16.35l-73.94 0Z" id="p206w191" />
<path d="M297.36 689.95l23.79 0l0 14.52l-23.79 0Z" id="p206w192" />
<path d="M324.35 689.95l79.63 0l0 14.52l-79.63 0Z" id="p206w193" />
<path d="M297.36 706.62l17.11 0l0 14.52l-17.11 0Z" id="p206w194" />
<path d="M317.67 706.62l62.02 0l0 14.52l-62.02 0Z" id="p206w195" />
<path d="M482.46 689.95l10.43 0l0 14.52l-10.43 0Z" id="p206w196" />
<path d="M496.1 689.95l25.67 0l0 14.52l-25.67 0Z" id="p206w197" />
<path d="M524.98 689.95l22.99 0l0 14.52l-22.99 0Z" id="p206w198" />
<path d="M551.18 689.95l48.12 0l0 14.52l-48.12 0Z" id="p206w199" />
<path d="M602.51 689.95l25.67 0l0 14.52l-25.67 0Z" id="p206w200" />
<path d="M482.46 706.62l9.89 0l0 14.52l-9.89 0Z" id="p206w201" />
<path d="M495.56 706.62l68.98 0l0 14.52l-68.98 0Z" id="p206w202" />
<path d="M124.06 724.69l14.31 0l0 14.6l-14.31 0Z" id="p206w203" />
<path d="M141.58 724.69l69.96 0l0 14.6l-69.96 0Z" id="p206w204" />
<path d="M124.06 740.12l73.24 0l0 16.35l-73.24 0Z" id="p206w205" />
<path d="M297.36 724.77l17.11 0l0 14.52l-17.11 0Z" id="p206w206" />
<path d="M317.67 724.77l71.05 0l0 14.52l-71.05 0Z" id="p206w207" />
<path d="M297.36 741.44l17.11 0l0 14.52l-17.11 0Z" id="p206w208" />
<path d="M317.67 741.44l70.29 0l0 14.52l-70.29 0Z" id="p206w209" />
<path d="M124.06 759.51l20.99 0l0 14.6l-20.99 0Z" id="p206w210" />
<path d="M148.26 759.51l66.13 0l0 14.6l-66.13 0Z" id="p206w211" />
<path d="M124.06 774.94l67.57 0l0 16.35l-67.57 0Z" id="p206w212" />
<path d="M297.36 759.61l17.11 0l0 14.52l-17.11 0Z" id="p206w213" />
<path d="M317.67 759.61l38.32 0l0 14.52l-38.32 0Z" id="p206w214" />
<path d="M359.19 759.59l27.55 0l0 14.52l-27.55 0Z" id="p206w215" />
<path d="M389.95 759.59l26.68 0l0 14.52l-26.68 0Z" id="p206w216" />
<path d="M482.46 759.59l26.74 0l0 14.52l-26.74 0Z" id="p206w217" />
<path d="M512.41 759.59l28.87 0l0 14.52l-28.87 0Z" id="p206w218" />
<path d="M544.49 759.59l68.99 0l0 14.52l-68.99 0Z" id="p206w219" />
<path d="M124.06 794.31l25.65 0l0 14.6l-25.65 0Z" id="p206w220" />
<path d="M152.92 794.31l20.99 0l0 14.6l-20.99 0Z" id="p206w221" />
<path d="M177.11 794.31l66.13 0l0 14.6l-66.13 0Z" id="p206w222" />
<path d="M256.35 794.31l14.41 0l0 14.6l-14.41 0Z" id="p206w223" />
<path d="M124.06 809.74l83.62 0l0 16.35l-83.62 0Z" id="p206w224" />
<path d="M297.36 794.39l23.8 0l0 14.52l-23.8 0Z" id="p206w225" />
<path d="M324.36 794.39l17.11 0l0 14.52l-17.11 0Z" id="p206w226" />
<path d="M344.67 794.39l38.32 0l0 14.52l-38.32 0Z" id="p206w227" />
<path d="M386.2 794.39l56.39 0l0 14.52l-56.39 0Z" id="p206w228" />
<path d="M124.06 829.14l20.99 0l0 14.6l-20.99 0Z" id="p206w229" />
<path d="M148.26 829.14l53.36 0l0 14.6l-53.36 0Z" id="p206w230" />
<path d="M204.92 827.9l72.9 0l0 16.35l-72.9 0Z" id="p206w231" />
<path d="M297.36 829.22l17.11 0l0 14.52l-17.11 0Z" id="p206w232" />
<path d="M317.67 829.22l27.8 0l0 14.52l-27.8 0Z" id="p206w233" />
<path d="M345.47 829.22l14.11 0l0 14.52l-14.11 0Z" id="p206w234" />
<path d="M124.06 873.24l47.08 0l0 18.44l-47.08 0Z" id="p206w235" />
<path d="M124.06 900.36l20.99 0l0 14.6l-20.99 0Z" id="p206w236" />
<path d="M148.26 900.36l61.31 0l0 14.6l-61.31 0Z" id="p206w237" />
<path d="M212.87 899.12l63.78 0l0 16.35l-63.78 0Z" id="p206w238" />
<path d="M297.36 900.44l17.11 0l0 14.52l-17.11 0Z" id="p206w239" />
<path d="M317.23 900.44l43.74 0l0 14.52l-43.74 0Z" id="p206w240" />
<path d="M364.18 900.44l23.79 0l0 14.52l-23.79 0Z" id="p206w241" />
<path d="M391.18 900.44l56.51 0l0 14.52l-56.51 0Z" id="p206w242" />
<path d="M491.11 900.44l24.06 0l0 14.61l-24.06 0Z" id="p206w243" />
<path d="M521.85 900.44l30.73 0l0 14.61l-30.73 0Z" id="p206w244" />
<path d="M124.06 921.07l14.31 0l0 14.6l-14.31 0Z" id="p206w245" />
<path d="M141.58 921.07l38.17 0l0 14.6l-38.17 0Z" id="p206w246" />
<path d="M183.05 919.83l43.11 0l0 16.35l-43.11 0Z" id="p206w247" />
<path d="M297.36 921.15l17.11 0l0 14.52l-17.11 0Z" id="p206w248" />
<path d="M317.23 921.15l23.01 0l0 14.52l-23.01 0Z" id="p206w249" />
<path d="M500.19 925.47l44.1 0l0 14.61l-44.1 0Z" id="p206w250" />
<path d="M568.43 925.47l37.96 0l0 14.61l-37.96 0Z" id="p206w251" />
</svg>
