<?xml version="1.0" encoding="UTF-8"?>
<svg xmlns="http://www.w3.org/2000/svg" xmlns:xlink="http://www.w3.org/1999/xlink" version="1.1" baseProfile="full" width="768" height="1024" viewBox="0,0,768,1024" preserveAspectRatio="xMinYMin meet" >
<style type="text/css">
<![CDATA[
path {fill-opacity: 0.5;fill: #00aeef;visibility: hidden;}
]]>
</style>
<path d="M592.07 983.66l99.04 0l0 12.23l-99.04 0Z" id="p227w1" />
<path d="M562.12 38.6l81.82 0l0 16.09l-81.82 0Z" id="p227w2" />
<path d="M81.62 127.79l8.78 0l0 12.23l-8.78 0Z" id="p227w3" />
<path d="M93.1 127.55l14.79 0l0 12.56l-14.79 0Z" id="p227w4" />
<path d="M78.15 143.08l19.36 0l0 12.23l-19.36 0Z" id="p227w5" />
<path d="M106.07 143.05l27.91 0l0 12.23l-27.91 0Z" id="p227w6" />
<path d="M139.84 141.97l23.31 0l0 13.77l-23.31 0Z" id="p227w7" />
<path d="M169.01 143.08l14.18 0l0 12.23l-14.18 0Z" id="p227w8" />
<path d="M185.89 143.08l32.86 0l0 12.23l-32.86 0Z" id="p227w9" />
<path d="M221.45 142.83l13.88 0l0 12.56l-13.88 0Z" id="p227w10" />
<path d="M59.08 158.36l11.94 0l0 12.23l-11.94 0Z" id="p227w11" />
<path d="M73.72 158.3l35.35 0l0 12.29l-35.35 0Z" id="p227w12" />
<path d="M109.06 158.36l21.73 0l0 12.23l-21.73 0Z" id="p227w13" />
<path d="M133.49 158.3l40.97 0l0 12.29l-40.97 0Z" id="p227w14" />
<path d="M180.32 157.26l41.15 0l0 13.77l-41.15 0Z" id="p227w15" />
<path d="M68.92 172.54l38.96 0l0 13.77l-38.96 0Z" id="p227w16" />
<path d="M113.74 173.64l14.41 0l0 12.23l-14.41 0Z" id="p227w17" />
<path d="M130.85 173.64l70.35 0l0 12.23l-70.35 0Z" id="p227w18" />
<path d="M68.92 188.93l54.93 0l0 12.23l-54.93 0Z" id="p227w19" />
<path d="M126.56 188.68l18.01 0l0 12.56l-18.01 0Z" id="p227w20" />
<path d="M59.08 204.21l11.94 0l0 12.23l-11.94 0Z" id="p227w21" />
<path d="M73.72 204.15l60.26 0l0 12.29l-60.26 0Z" id="p227w22" />
<path d="M139.83 203.11l48.45 0l0 13.77l-48.45 0Z" id="p227w23" />
<path d="M194.14 204.21l14.41 0l0 12.23l-14.41 0Z" id="p227w24" />
<path d="M68.92 219.49l63.45 0l0 12.23l-63.45 0Z" id="p227w25" />
<path d="M135.07 219.49l20.03 0l0 12.23l-20.03 0Z" id="p227w26" />
<path d="M157.8 219.49l51.99 0l0 12.23l-51.99 0Z" id="p227w27" />
<path d="M212.49 219.25l18.01 0l0 12.56l-18.01 0Z" id="p227w28" />
<path d="M59.08 234.78l11.94 0l0 12.23l-11.94 0Z" id="p227w29" />
<path d="M73.72 234.72l32.83 0l0 12.29l-32.83 0Z" id="p227w30" />
<path d="M112.41 233.68l41.55 0l0 13.77l-41.55 0Z" id="p227w31" />
<path d="M159.81 234.78l20.03 0l0 12.23l-20.03 0Z" id="p227w32" />
<path d="M182.54 234.78l40.51 0l0 12.23l-40.51 0Z" id="p227w33" />
<path d="M225.76 234.53l14.63 0l0 12.56l-14.63 0Z" id="p227w34" />
<path d="M59.08 250.06l11.94 0l0 12.23l-11.94 0Z" id="p227w35" />
<path d="M73.72 250l30.51 0l0 12.29l-30.51 0Z" id="p227w36" />
<path d="M110.08 248.96l31.68 0l0 13.77l-31.68 0Z" id="p227w37" />
<path d="M147.62 250.06l14.41 0l0 12.23l-14.41 0Z" id="p227w38" />
<path d="M164.73 250.06l32.19 0l0 12.23l-32.19 0Z" id="p227w39" />
<path d="M199.62 249.81l18.92 0l0 12.56l-18.92 0Z" id="p227w40" />
<path d="M59.08 265.29l40.01 0l0 12.29l-40.01 0Z" id="p227w41" />
<path d="M101.79 265.34l27.37 0l0 12.23l-27.37 0Z" id="p227w42" />
<path d="M135.02 264.24l33.93 0l0 13.77l-33.93 0Z" id="p227w43" />
<path d="M174.81 265.34l40.5 0l0 12.23l-40.5 0Z" id="p227w44" />
<path d="M68.92 280.63l57.59 0l0 12.23l-57.59 0Z" id="p227w45" />
<path d="M129.21 280.63l40.5 0l0 12.23l-40.5 0Z" id="p227w46" />
<path d="M172.42 280.63l50.42 0l0 12.23l-50.42 0Z" id="p227w47" />
<path d="M68.92 295.66l18.01 0l0 12.56l-18.01 0Z" id="p227w48" />
<path d="M59.08 311.14l63.15 0l0 12.29l-63.15 0Z" id="p227w49" />
<path d="M124.92 311.19l12.16 0l0 12.23l-12.16 0Z" id="p227w50" />
<path d="M142.94 310.09l38.44 0l0 13.77l-38.44 0Z" id="p227w51" />
<path d="M187.24 311.19l16.9 0l0 12.23l-16.9 0Z" id="p227w52" />
<path d="M68.92 326.48l44.28 0l0 12.23l-44.28 0Z" id="p227w53" />
<path d="M115.91 326.23l18.72 0l0 12.56l-18.72 0Z" id="p227w54" />
<path d="M59.08 341.7l24.53 0l0 12.29l-24.53 0Z" id="p227w55" />
<path d="M98.24 341.76l14.64 0l0 12.23l-14.64 0Z" id="p227w56" />
<path d="M118.73 340.66l22.13 0l0 13.77l-22.13 0Z" id="p227w57" />
<path d="M146.72 341.76l34.17 0l0 12.23l-34.17 0Z" id="p227w58" />
<path d="M183.59 341.76l26.34 0l0 12.23l-26.34 0Z" id="p227w59" />
<path d="M212.63 341.76l23.04 0l0 12.23l-23.04 0Z" id="p227w60" />
<path d="M68.92 356.8l18.01 0l0 12.56l-18.01 0Z" id="p227w61" />
<path d="M59.08 372.33l6.75 0l0 12.23l-6.75 0Z" id="p227w62" />
<path d="M65.82 372.27l44.75 0l0 12.29l-44.75 0Z" id="p227w63" />
<path d="M116.43 371.23l33.68 0l0 13.77l-33.68 0Z" id="p227w64" />
<path d="M155.97 372.33l58.72 0l0 12.23l-58.72 0Z" id="p227w65" />
<path d="M68.92 387.61l56.73 0l0 12.23l-56.73 0Z" id="p227w66" />
<path d="M128.36 387.37l18.92 0l0 12.56l-18.92 0Z" id="p227w67" />
<path d="M59.08 402.84l41.6 0l0 12.29l-41.6 0Z" id="p227w68" />
<path d="M103.38 402.89l12.16 0l0 12.23l-12.16 0Z" id="p227w69" />
<path d="M121.4 401.79l31.24 0l0 13.77l-31.24 0Z" id="p227w70" />
<path d="M158.5 402.89l16.9 0l0 12.23l-16.9 0Z" id="p227w71" />
<path d="M178.1 402.89l56.24 0l0 12.23l-56.24 0Z" id="p227w72" />
<path d="M68.92 418.18l16.9 0l0 12.23l-16.9 0Z" id="p227w73" />
<path d="M88.52 418.18l53.96 0l0 12.23l-53.96 0Z" id="p227w74" />
<path d="M145.19 417.93l18.72 0l0 12.56l-18.72 0Z" id="p227w75" />
<path d="M59.08 433.4l35.42 0l0 12.29l-35.42 0Z" id="p227w76" />
<path d="M97.2 433.46l11.04 0l0 12.23l-11.04 0Z" id="p227w77" />
<path d="M114.1 432.36l16.81 0l0 13.77l-16.81 0Z" id="p227w78" />
<path d="M136.76 433.46l19.44 0l0 12.23l-19.44 0Z" id="p227w79" />
<path d="M158.9 433.46l31.97 0l0 12.23l-31.97 0Z" id="p227w80" />
<path d="M193.57 433.22l15.54 0l0 12.56l-15.54 0Z" id="p227w81" />
<path d="M59.08 448.74l11.94 0l0 12.23l-11.94 0Z" id="p227w82" />
<path d="M73.72 448.69l29.69 0l0 12.29l-29.69 0Z" id="p227w83" />
<path d="M103.4 448.74l21.73 0l0 12.23l-21.73 0Z" id="p227w84" />
<path d="M127.84 448.69l31.14 0l0 12.29l-31.14 0Z" id="p227w85" />
<path d="M164.84 447.64l42.68 0l0 13.77l-42.68 0Z" id="p227w86" />
<path d="M68.92 462.93l38.44 0l0 13.77l-38.44 0Z" id="p227w87" />
<path d="M113.22 464.03l14.41 0l0 12.23l-14.41 0Z" id="p227w88" />
<path d="M130.33 464.03l83.85 0l0 12.23l-83.85 0Z" id="p227w89" />
<path d="M68.92 479.31l68.44 0l0 12.23l-68.44 0Z" id="p227w90" />
<path d="M140.06 479.07l14.41 0l0 12.56l-14.41 0Z" id="p227w91" />
<path d="M59.08 494.54l20.71 0l0 12.29l-20.71 0Z" id="p227w92" />
<path d="M83.95 494.54l27.68 0l0 12.29l-27.68 0Z" id="p227w93" />
<path d="M117.49 493.49l45.37 0l0 13.77l-45.37 0Z" id="p227w94" />
<path d="M168.72 494.59l22.51 0l0 12.23l-22.51 0Z" id="p227w95" />
<path d="M193.93 494.35l18.92 0l0 12.56l-18.92 0Z" id="p227w96" />
<path d="M59.08 509.88l4.72 0l0 12.23l-4.72 0Z" id="p227w97" />
<path d="M63.8 509.82l40.99 0l0 12.29l-40.99 0Z" id="p227w98" />
<path d="M125.66 508.78l43.03 0l0 13.77l-43.03 0Z" id="p227w99" />
<path d="M174.54 509.88l16.43 0l0 12.23l-16.43 0Z" id="p227w100" />
<path d="M193.67 509.88l40.93 0l0 12.23l-40.93 0Z" id="p227w101" />
<path d="M68.92 525.16l16.43 0l0 12.23l-16.43 0Z" id="p227w102" />
<path d="M87.75 525.16l79.55 0l0 12.23l-79.55 0Z" id="p227w103" />
<path d="M170.01 525.16l14.41 0l0 12.23l-14.41 0Z" id="p227w104" />
<path d="M187.11 525.16l45.68 0l0 12.23l-45.68 0Z" id="p227w105" />
<path d="M68.92 540.2l18.01 0l0 12.56l-18.01 0Z" id="p227w106" />
<path d="M59.08 555.67l28.6 0l0 12.29l-28.6 0Z" id="p227w107" />
<path d="M91.84 555.67l37.04 0l0 12.29l-37.04 0Z" id="p227w108" />
<path d="M134.74 554.63l27.94 0l0 13.77l-27.94 0Z" id="p227w109" />
<path d="M168.54 555.73l31.51 0l0 12.23l-31.51 0Z" id="p227w110" />
<path d="M202.75 555.48l18.92 0l0 12.56l-18.92 0Z" id="p227w111" />
<path d="M59.08 570.96l61.95 0l0 12.29l-61.95 0Z" id="p227w112" />
<path d="M126.88 569.91l43.23 0l0 13.77l-43.23 0Z" id="p227w113" />
<path d="M175.96 571.01l11.93 0l0 12.23l-11.93 0Z" id="p227w114" />
<path d="M190.59 571.01l42.28 0l0 12.23l-42.28 0Z" id="p227w115" />
<path d="M68.92 586.29l31.52 0l0 12.23l-31.52 0Z" id="p227w116" />
<path d="M103.15 586.05l18.92 0l0 12.56l-18.92 0Z" id="p227w117" />
<path d="M59.08 601.58l11.94 0l0 12.23l-11.94 0Z" id="p227w118" />
<path d="M73.72 601.52l17.54 0l0 12.29l-17.54 0Z" id="p227w119" />
<path d="M91.26 601.58l21.73 0l0 12.23l-21.73 0Z" id="p227w120" />
<path d="M115.69 601.52l17.54 0l0 12.29l-17.54 0Z" id="p227w121" />
<path d="M135.93 601.56l27.91 0l0 12.23l-27.91 0Z" id="p227w122" />
<path d="M178.24 601.56l11.93 0l0 12.23l-11.93 0Z" id="p227w123" />
<path d="M68.92 616.84l71.77 0l0 12.23l-71.77 0Z" id="p227w124" />
<path d="M143.4 616.84l59.12 0l0 12.23l-59.12 0Z" id="p227w125" />
<path d="M208.37 615.76l30.81 0l0 13.77l-30.81 0Z" id="p227w126" />
<path d="M68.92 631.04l28.62 0l0 13.77l-28.62 0Z" id="p227w127" />
<path d="M103.4 632.14l14.41 0l0 12.23l-14.41 0Z" id="p227w128" />
<path d="M120.51 632.14l82.91 0l0 12.23l-82.91 0Z" id="p227w129" />
<path d="M68.92 647.43l54.89 0l0 12.23l-54.89 0Z" id="p227w130" />
<path d="M126.51 647.18l18.01 0l0 12.56l-18.01 0Z" id="p227w131" />
<path d="M59.08 662.66l30.89 0l0 12.29l-30.89 0Z" id="p227w132" />
<path d="M92.67 662.71l27.37 0l0 12.23l-27.37 0Z" id="p227w133" />
<path d="M125.89 661.61l26.9 0l0 13.77l-26.9 0Z" id="p227w134" />
<path d="M158.65 662.71l40.5 0l0 12.23l-40.5 0Z" id="p227w135" />
<path d="M201.85 662.71l31.26 0l0 12.23l-31.26 0Z" id="p227w136" />
<path d="M68.92 677.99l40.5 0l0 12.23l-40.5 0Z" id="p227w137" />
<path d="M112.13 677.99l20.25 0l0 12.23l-20.25 0Z" id="p227w138" />
<path d="M135.08 677.99l27.18 0l0 12.23l-27.18 0Z" id="p227w139" />
<path d="M164.96 677.99l32.81 0l0 12.23l-32.81 0Z" id="p227w140" />
<path d="M200.47 677.75l15.54 0l0 12.56l-15.54 0Z" id="p227w141" />
<path d="M59.08 693.28l17.56 0l0 12.23l-17.56 0Z" id="p227w142" />
<path d="M79.34 693.22l36.44 0l0 12.29l-36.44 0Z" id="p227w143" />
<path d="M121.63 692.18l36.76 0l0 13.77l-36.76 0Z" id="p227w144" />
<path d="M164.25 693.28l20.03 0l0 12.23l-20.03 0Z" id="p227w145" />
<path d="M186.98 693.28l37.12 0l0 12.23l-37.12 0Z" id="p227w146" />
<path d="M68.92 708.32l14.79 0l0 12.56l-14.79 0Z" id="p227w147" />
<path d="M59.08 723.84l11.94 0l0 12.23l-11.94 0Z" id="p227w148" />
<path d="M73.72 723.79l40.68 0l0 12.29l-40.68 0Z" id="p227w149" />
<path d="M120.26 722.74l49.14 0l0 13.77l-49.14 0Z" id="p227w150" />
<path d="M175.25 723.84l14.41 0l0 12.23l-14.41 0Z" id="p227w151" />
<path d="M192.36 723.84l46.77 0l0 12.23l-46.77 0Z" id="p227w152" />
<path d="M68.92 738.88l18.92 0l0 12.56l-18.92 0Z" id="p227w153" />
<path d="M59.08 754.41l13.05 0l0 12.23l-13.05 0Z" id="p227w154" />
<path d="M74.83 754.36l35.77 0l0 12.29l-35.77 0Z" id="p227w155" />
<path d="M126.58 754.39l14.18 0l0 12.23l-14.18 0Z" id="p227w156" />
<path d="M146.62 753.31l31.73 0l0 13.77l-31.73 0Z" id="p227w157" />
<path d="M184.21 754.41l14.41 0l0 12.23l-14.41 0Z" id="p227w158" />
<path d="M201.32 754.41l34.22 0l0 12.23l-34.22 0Z" id="p227w159" />
<path d="M68.92 769.45l14.79 0l0 12.56l-14.79 0Z" id="p227w160" />
<path d="M59.08 784.92l35.19 0l0 12.29l-35.19 0Z" id="p227w161" />
<path d="M98.44 784.92l40.82 0l0 12.29l-40.82 0Z" id="p227w162" />
<path d="M145.11 783.88l63.69 0l0 13.77l-63.69 0Z" id="p227w163" />
<path d="M68.92 800.26l51.1 0l0 12.23l-51.1 0Z" id="p227w164" />
<path d="M122.72 800.02l18.92 0l0 12.56l-18.92 0Z" id="p227w165" />
<path d="M59.08 815.55l4.72 0l0 12.23l-4.72 0Z" id="p227w166" />
<path d="M63.8 815.49l17.14 0l0 12.29l-17.14 0Z" id="p227w167" />
<path d="M107.95 814.45l12.77 0l0 13.77l-12.77 0Z" id="p227w168" />
<path d="M126.58 815.55l16.43 0l0 12.23l-16.43 0Z" id="p227w169" />
<path d="M145.71 815.55l22.5 0l0 12.23l-22.5 0Z" id="p227w170" />
<path d="M170.91 815.3l14.79 0l0 12.56l-14.79 0Z" id="p227w171" />
<path d="M68.92 830.83l10.45 0l0 12.23l-10.45 0Z" id="p227w172" />
<path d="M82.07 830.83l10.35 0l0 12.23l-10.35 0Z" id="p227w173" />
<path d="M95.12 830.83l20.26 0l0 12.23l-20.26 0Z" id="p227w174" />
<path d="M118.09 830.83l17.27 0l0 12.23l-17.27 0Z" id="p227w175" />
<path d="M148.2 829.73l36.9 0l0 13.77l-36.9 0Z" id="p227w176" />
<path d="M190.74 830.83l17.55 0l0 12.23l-17.55 0Z" id="p227w177" />
<path d="M210.99 830.83l12.15 0l0 12.23l-12.15 0Z" id="p227w178" />
<path d="M68.92 846.11l17.33 0l0 12.23l-17.33 0Z" id="p227w179" />
<path d="M88.95 846.11l16.22 0l0 12.23l-16.22 0Z" id="p227w180" />
<path d="M107.87 845.87l14.79 0l0 12.56l-14.79 0Z" id="p227w181" />
<path d="M59.08 861.4l16.43 0l0 12.23l-16.43 0Z" id="p227w182" />
<path d="M78.21 861.4l48.62 0l0 12.23l-48.62 0Z" id="p227w183" />
<path d="M144.53 861.34l27.6 0l0 12.29l-27.6 0Z" id="p227w184" />
<path d="M177.99 860.3l51.4 0l0 13.77l-51.4 0Z" id="p227w185" />
<path d="M68.92 876.68l27.22 0l0 12.23l-27.22 0Z" id="p227w186" />
<path d="M98.85 876.68l50.84 0l0 12.23l-50.84 0Z" id="p227w187" />
<path d="M152.39 876.68l41.65 0l0 12.23l-41.65 0Z" id="p227w188" />
<path d="M196.74 876.43l18.72 0l0 12.56l-18.72 0Z" id="p227w189" />
<path d="M59.08 891.96l17.56 0l0 12.23l-17.56 0Z" id="p227w190" />
<path d="M79.34 891.91l33.46 0l0 12.29l-33.46 0Z" id="p227w191" />
<path d="M115.5 891.96l11.7 0l0 12.23l-11.7 0Z" id="p227w192" />
<path d="M129.9 891.96l40.53 0l0 12.23l-40.53 0Z" id="p227w193" />
<path d="M72.08 906.15l81.22 0l0 13.77l-81.22 0Z" id="p227w194" />
<path d="M159.16 907.25l20.03 0l0 12.23l-20.03 0Z" id="p227w195" />
<path d="M68.92 922.53l67.01 0l0 12.23l-67.01 0Z" id="p227w196" />
<path d="M138.64 922.28l17.81 0l0 12.56l-17.81 0Z" id="p227w197" />
<path d="M260.6 112.45l18.23 0l0 12.29l-18.23 0Z" id="p227w198" />
<path d="M284.68 111.41l18.27 0l0 13.77l-18.27 0Z" id="p227w199" />
<path d="M308.81 112.51l38.27 0l0 12.23l-38.27 0Z" id="p227w200" />
<path d="M349.78 112.26l18.92 0l0 12.56l-18.92 0Z" id="p227w201" />
<path d="M260.6 127.79l17.56 0l0 12.23l-17.56 0Z" id="p227w202" />
<path d="M280.86 127.74l20.13 0l0 12.29l-20.13 0Z" id="p227w203" />
<path d="M306.85 126.69l22.1 0l0 13.77l-22.1 0Z" id="p227w204" />
<path d="M334.8 127.79l20.03 0l0 12.23l-20.03 0Z" id="p227w205" />
<path d="M357.53 127.79l24.28 0l0 12.23l-24.28 0Z" id="p227w206" />
<path d="M384.51 127.79l20.03 0l0 12.23l-20.03 0Z" id="p227w207" />
<path d="M270.44 143.08l67.48 0l0 12.23l-67.48 0Z" id="p227w208" />
<path d="M340.63 142.83l18.92 0l0 12.56l-18.92 0Z" id="p227w209" />
<path d="M260.6 158.3l24.03 0l0 12.29l-24.03 0Z" id="p227w210" />
<path d="M287.33 158.36l12.16 0l0 12.23l-12.16 0Z" id="p227w211" />
<path d="M305.35 157.26l16.19 0l0 13.77l-16.19 0Z" id="p227w212" />
<path d="M327.4 158.36l20.04 0l0 12.23l-20.04 0Z" id="p227w213" />
<path d="M350.14 158.36l29.71 0l0 12.23l-29.71 0Z" id="p227w214" />
<path d="M382.55 158.11l14.63 0l0 12.56l-14.63 0Z" id="p227w215" />
<path d="M260.6 173.59l34.4 0l0 12.29l-34.4 0Z" id="p227w216" />
<path d="M300.85 172.54l22.57 0l0 13.77l-22.57 0Z" id="p227w217" />
<path d="M329.29 173.64l46.14 0l0 12.23l-46.14 0Z" id="p227w218" />
<path d="M378.13 173.4l14.41 0l0 12.56l-14.41 0Z" id="p227w219" />
<path d="M260.6 188.87l27.23 0l0 12.29l-27.23 0Z" id="p227w220" />
<path d="M290.53 188.93l27.37 0l0 12.23l-27.37 0Z" id="p227w221" />
<path d="M323.75 187.83l19.46 0l0 13.77l-19.46 0Z" id="p227w222" />
<path d="M349.07 188.93l40.5 0l0 12.23l-40.5 0Z" id="p227w223" />
<path d="M392.28 188.93l31.26 0l0 12.23l-31.26 0Z" id="p227w224" />
<path d="M270.44 204.21l40.5 0l0 12.23l-40.5 0Z" id="p227w225" />
<path d="M313.65 204.21l32.81 0l0 12.23l-32.81 0Z" id="p227w226" />
<path d="M349.16 203.96l15.54 0l0 12.56l-15.54 0Z" id="p227w227" />
<path d="M270.44 219.49l43.96 0l0 12.23l-43.96 0Z" id="p227w228" />
<path d="M317.11 219.49l21.37 0l0 12.23l-21.37 0Z" id="p227w229" />
<path d="M341.18 219.49l11.04 0l0 12.23l-11.04 0Z" id="p227w230" />
<path d="M358.08 218.39l42.26 0l0 13.77l-42.26 0Z" id="p227w231" />
<path d="M406.19 219.49l13.74 0l0 12.23l-13.74 0Z" id="p227w232" />
<path d="M270.44 234.78l29.49 0l0 12.23l-29.49 0Z" id="p227w233" />
<path d="M302.63 234.78l21.55 0l0 12.23l-21.55 0Z" id="p227w234" />
<path d="M326.89 234.78l19.44 0l0 12.23l-19.44 0Z" id="p227w235" />
<path d="M349.03 234.78l15.76 0l0 12.23l-15.76 0Z" id="p227w236" />
<path d="M367.49 234.53l14.63 0l0 12.56l-14.63 0Z" id="p227w237" />
<path d="M270.44 250.06l11.94 0l0 12.23l-11.94 0Z" id="p227w238" />
<path d="M285.08 250.06l38.93 0l0 12.23l-38.93 0Z" id="p227w239" />
<path d="M326.71 250.06l21.37 0l0 12.23l-21.37 0Z" id="p227w240" />
<path d="M350.78 250.06l11.04 0l0 12.23l-11.04 0Z" id="p227w241" />
<path d="M367.68 248.96l54.24 0l0 13.77l-54.24 0Z" id="p227w242" />
<path d="M270.44 265.34l14.85 0l0 12.23l-14.85 0Z" id="p227w243" />
<path d="M287.99 265.34l35.57 0l0 12.23l-35.57 0Z" id="p227w244" />
<path d="M326.26 265.34l21.55 0l0 12.23l-21.55 0Z" id="p227w245" />
<path d="M350.52 265.34l19.44 0l0 12.23l-19.44 0Z" id="p227w246" />
<path d="M372.66 265.34l15.76 0l0 12.23l-15.76 0Z" id="p227w247" />
<path d="M391.12 265.1l15.54 0l0 12.56l-15.54 0Z" id="p227w248" />
<path d="M260.6 280.57l22.17 0l0 12.29l-22.17 0Z" id="p227w249" />
<path d="M288.63 279.53l11.97 0l0 13.77l-11.97 0Z" id="p227w250" />
<path d="M306.46 280.63l15.08 0l0 12.23l-15.08 0Z" id="p227w251" />
<path d="M324.24 280.63l24.75 0l0 12.23l-24.75 0Z" id="p227w252" />
<path d="M351.47 280.63l30.12 0l0 12.23l-30.12 0Z" id="p227w253" />
<path d="M384.3 280.63l10.58 0l0 12.23l-10.58 0Z" id="p227w254" />
<path d="M397.58 280.38l18.92 0l0 12.56l-18.92 0Z" id="p227w255" />
<path d="M260.6 295.91l11.94 0l0 12.23l-11.94 0Z" id="p227w256" />
<path d="M275.23 295.85l12.35 0l0 12.29l-12.35 0Z" id="p227w257" />
<path d="M293.44 294.81l21.04 0l0 13.77l-21.04 0Z" id="p227w258" />
<path d="M320.34 295.91l20.03 0l0 12.23l-20.03 0Z" id="p227w259" />
<path d="M343.07 295.91l37.81 0l0 12.23l-37.81 0Z" id="p227w260" />
<path d="M383.59 295.66l15.34 0l0 12.56l-15.34 0Z" id="p227w261" />
<path d="M270.44 311.19l23.19 0l0 12.23l-23.19 0Z" id="p227w262" />
<path d="M296.33 311.19l16.51 0l0 12.23l-16.51 0Z" id="p227w263" />
<path d="M318.69 310.09l41.26 0l0 13.77l-41.26 0Z" id="p227w264" />
<path d="M365.81 311.19l44.34 0l0 12.23l-44.34 0Z" id="p227w265" />
<path d="M412.85 310.95l15.54 0l0 12.56l-15.54 0Z" id="p227w266" />
<path d="M260.6 326.42l33.73 0l0 12.29l-33.73 0Z" id="p227w267" />
<path d="M297.03 326.48l11.04 0l0 12.23l-11.04 0Z" id="p227w268" />
<path d="M313.93 325.38l24.22 0l0 13.77l-24.22 0Z" id="p227w269" />
<path d="M344 326.48l19.44 0l0 12.23l-19.44 0Z" id="p227w270" />
<path d="M366.15 326.48l52.86 0l0 12.23l-52.86 0Z" id="p227w271" />
<path d="M270.44 341.52l15.54 0l0 12.56l-15.54 0Z" id="p227w272" />
<path d="M260.6 357.04l11.94 0l0 12.23l-11.94 0Z" id="p227w273" />
<path d="M275.23 356.99l29.76 0l0 12.29l-29.76 0Z" id="p227w274" />
<path d="M310.85 355.94l39.43 0l0 13.77l-39.43 0Z" id="p227w275" />
<path d="M356.13 357.04l14.41 0l0 12.23l-14.41 0Z" id="p227w276" />
<path d="M373.24 357.04l57.18 0l0 12.23l-57.18 0Z" id="p227w277" />
<path d="M270.44 372.08l15.34 0l0 12.56l-15.34 0Z" id="p227w278" />
<path d="M260.6 387.61l11.94 0l0 12.23l-11.94 0Z" id="p227w279" />
<path d="M275.23 387.55l36.17 0l0 12.29l-36.17 0Z" id="p227w280" />
<path d="M317.26 386.51l37.48 0l0 13.77l-37.48 0Z" id="p227w281" />
<path d="M360.6 387.61l14.41 0l0 12.23l-14.41 0Z" id="p227w282" />
<path d="M377.71 387.61l61.21 0l0 12.23l-61.21 0Z" id="p227w283" />
<path d="M270.44 402.65l18.72 0l0 12.56l-18.72 0Z" id="p227w284" />
<path d="M260.6 418.18l4.72 0l0 12.23l-4.72 0Z" id="p227w285" />
<path d="M265.32 418.12l43.92 0l0 12.29l-43.92 0Z" id="p227w286" />
<path d="M336.25 417.08l26.5 0l0 13.77l-26.5 0Z" id="p227w287" />
<path d="M368.6 418.18l38.05 0l0 12.23l-38.05 0Z" id="p227w288" />
<path d="M409.35 417.93l15.54 0l0 12.56l-15.54 0Z" id="p227w289" />
<path d="M260.6 433.4l43.92 0l0 12.29l-43.92 0Z" id="p227w290" />
<path d="M308.68 433.4l49.54 0l0 12.29l-49.54 0Z" id="p227w291" />
<path d="M364.08 432.36l55.64 0l0 13.77l-55.64 0Z" id="p227w292" />
<path d="M270.44 448.74l37.15 0l0 12.23l-37.15 0Z" id="p227w293" />
<path d="M310.29 448.5l15.54 0l0 12.56l-15.54 0Z" id="p227w294" />
<path d="M260.6 463.97l20.79 0l0 12.29l-20.79 0Z" id="p227w295" />
<path d="M287.24 462.93l13.33 0l0 13.77l-13.33 0Z" id="p227w296" />
<path d="M306.42 464.03l33.28 0l0 12.23l-33.28 0Z" id="p227w297" />
<path d="M342.4 464.03l29.43 0l0 12.23l-29.43 0Z" id="p227w298" />
<path d="M374.54 463.78l15.54 0l0 12.56l-15.54 0Z" id="p227w299" />
<path d="M270.44 479.31l20.47 0l0 12.23l-20.47 0Z" id="p227w300" />
<path d="M301.94 479.31l12.16 0l0 12.23l-12.16 0Z" id="p227w301" />
<path d="M319.96 478.21l13.33 0l0 13.77l-13.33 0Z" id="p227w302" />
<path d="M339.15 479.31l20.04 0l0 12.23l-20.04 0Z" id="p227w303" />
<path d="M361.89 479.31l31.96 0l0 12.23l-31.96 0Z" id="p227w304" />
<path d="M396.55 479.07l15.34 0l0 12.56l-15.34 0Z" id="p227w305" />
<path d="M270.44 494.59l20.47 0l0 12.23l-20.47 0Z" id="p227w306" />
<path d="M293.62 494.59l40.97 0l0 12.23l-40.97 0Z" id="p227w307" />
<path d="M337.29 494.59l27.37 0l0 12.23l-27.37 0Z" id="p227w308" />
<path d="M370.51 493.49l35.07 0l0 13.77l-35.07 0Z" id="p227w309" />
<path d="M411.44 494.59l21.06 0l0 12.23l-21.06 0Z" id="p227w310" />
<path d="M270.44 509.88l19.44 0l0 12.23l-19.44 0Z" id="p227w311" />
<path d="M292.59 509.88l40.49 0l0 12.23l-40.49 0Z" id="p227w312" />
<path d="M335.78 509.88l40.5 0l0 12.23l-40.5 0Z" id="p227w313" />
<path d="M378.98 509.88l26.34 0l0 12.23l-26.34 0Z" id="p227w314" />
<path d="M408.03 509.63l18.72 0l0 12.56l-18.72 0Z" id="p227w315" />
<path d="M270.44 525.16l22.51 0l0 12.23l-22.51 0Z" id="p227w316" />
<path d="M304.67 524.06l13.33 0l0 13.77l-13.33 0Z" id="p227w317" />
<path d="M323.85 525.16l18.92 0l0 12.23l-18.92 0Z" id="p227w318" />
<path d="M345.47 524.92l19.58 0l0 12.56l-19.58 0Z" id="p227w319" />
<path d="M270.44 540.44l18.01 0l0 12.23l-18.01 0Z" id="p227w320" />
<path d="M291.15 540.44l20.47 0l0 12.23l-20.47 0Z" id="p227w321" />
<path d="M317.48 539.34l29.52 0l0 13.77l-29.52 0Z" id="p227w322" />
<path d="M352.86 540.44l49.41 0l0 12.23l-49.41 0Z" id="p227w323" />
<path d="M404.97 540.2l18.92 0l0 12.56l-18.92 0Z" id="p227w324" />
<path d="M270.44 555.73l20.47 0l0 12.23l-20.47 0Z" id="p227w325" />
<path d="M293.61 555.73l21.62 0l0 12.23l-21.62 0Z" id="p227w326" />
<path d="M317.93 555.73l12.16 0l0 12.23l-12.16 0Z" id="p227w327" />
<path d="M335.95 554.63l21.31 0l0 13.77l-21.31 0Z" id="p227w328" />
<path d="M363.12 555.73l10.82 0l0 12.23l-10.82 0Z" id="p227w329" />
<path d="M376.63 555.73l20.04 0l0 12.23l-20.04 0Z" id="p227w330" />
<path d="M399.38 555.71l26.34 0l0 12.23l-26.34 0Z" id="p227w331" />
<path d="M270.44 570.99l32.63 0l0 12.23l-32.63 0Z" id="p227w332" />
<path d="M305.77 571.01l29.43 0l0 12.23l-29.43 0Z" id="p227w333" />
<path d="M337.91 570.77l15.54 0l0 12.56l-15.54 0Z" id="p227w334" />
<path d="M270.44 586.29l11.7 0l0 12.23l-11.7 0Z" id="p227w335" />
<path d="M284.84 586.29l11.7 0l0 12.23l-11.7 0Z" id="p227w336" />
<path d="M299.25 586.29l10.66 0l0 12.23l-10.66 0Z" id="p227w337" />
<path d="M312.61 586.29l16.43 0l0 12.23l-16.43 0Z" id="p227w338" />
<path d="M331.74 586.29l21.62 0l0 12.23l-21.62 0Z" id="p227w339" />
<path d="M359.22 585.19l56.86 0l0 13.77l-56.86 0Z" id="p227w340" />
<path d="M421.94 586.29l10.58 0l0 12.23l-10.58 0Z" id="p227w341" />
<path d="M270.44 601.58l21.55 0l0 12.23l-21.55 0Z" id="p227w342" />
<path d="M294.69 601.58l15.75 0l0 12.23l-15.75 0Z" id="p227w343" />
<path d="M313.14 601.58l23.64 0l0 12.23l-23.64 0Z" id="p227w344" />
<path d="M339.49 601.58l10.58 0l0 12.23l-10.58 0Z" id="p227w345" />
<path d="M352.77 601.58l17.96 0l0 12.23l-17.96 0Z" id="p227w346" />
<path d="M373.43 601.33l15.54 0l0 12.56l-15.54 0Z" id="p227w347" />
<path d="M270.44 616.86l11.7 0l0 12.23l-11.7 0Z" id="p227w348" />
<path d="M284.84 616.86l10.66 0l0 12.23l-10.66 0Z" id="p227w349" />
<path d="M308.34 615.76l19.32 0l0 13.77l-19.32 0Z" id="p227w350" />
<path d="M333.3 616.86l17.55 0l0 12.23l-17.55 0Z" id="p227w351" />
<path d="M353.55 616.86l32.36 0l0 12.23l-32.36 0Z" id="p227w352" />
<path d="M388.6 616.62l13.88 0l0 12.56l-13.88 0Z" id="p227w353" />
<path d="M270.44 632.14l11.7 0l0 12.23l-11.7 0Z" id="p227w354" />
<path d="M284.84 632.14l10.66 0l0 12.23l-10.66 0Z" id="p227w355" />
<path d="M298.2 632.14l30.62 0l0 12.23l-30.62 0Z" id="p227w356" />
<path d="M334.68 631.04l37.41 0l0 13.77l-37.41 0Z" id="p227w357" />
<path d="M377.96 632.14l10.58 0l0 12.23l-10.58 0Z" id="p227w358" />
<path d="M391.24 632.14l21.55 0l0 12.23l-21.55 0Z" id="p227w359" />
<path d="M270.44 647.43l31.75 0l0 12.23l-31.75 0Z" id="p227w360" />
<path d="M304.89 647.18l15.54 0l0 12.56l-15.54 0Z" id="p227w361" />
<path d="M270.44 662.71l13.28 0l0 12.23l-13.28 0Z" id="p227w362" />
<path d="M294.08 662.71l10.66 0l0 12.23l-10.66 0Z" id="p227w363" />
<path d="M316.46 661.61l24.49 0l0 13.77l-24.49 0Z" id="p227w364" />
<path d="M346.8 662.71l15.98 0l0 12.23l-15.98 0Z" id="p227w365" />
<path d="M365.49 662.71l33.68 0l0 12.23l-33.68 0Z" id="p227w366" />
<path d="M401.87 662.71l30.39 0l0 12.23l-30.39 0Z" id="p227w367" />
<path d="M270.44 677.99l18.01 0l0 12.23l-18.01 0Z" id="p227w368" />
<path d="M291.15 677.75l15.54 0l0 12.56l-15.54 0Z" id="p227w369" />
<path d="M270.44 693.28l20.05 0l0 12.23l-20.05 0Z" id="p227w370" />
<path d="M293.19 693.28l10.66 0l0 12.23l-10.66 0Z" id="p227w371" />
<path d="M306.55 693.28l20.49 0l0 12.23l-20.49 0Z" id="p227w372" />
<path d="M338.75 692.18l32.5 0l0 13.77l-32.5 0Z" id="p227w373" />
<path d="M377.11 693.28l22.27 0l0 12.23l-22.27 0Z" id="p227w374" />
<path d="M402.09 693.28l8.78 0l0 12.23l-8.78 0Z" id="p227w375" />
<path d="M270.44 708.56l44.08 0l0 12.23l-44.08 0Z" id="p227w376" />
<path d="M317.22 708.32l15.54 0l0 12.56l-15.54 0Z" id="p227w377" />
<path d="M260.59 723.84l17.56 0l0 12.23l-17.56 0Z" id="p227w378" />
<path d="M280.85 723.79l35.02 0l0 12.29l-35.02 0Z" id="p227w379" />
<path d="M321.74 722.74l37.46 0l0 13.77l-37.46 0Z" id="p227w380" />
<path d="M365.05 723.84l20.03 0l0 12.23l-20.03 0Z" id="p227w381" />
<path d="M387.78 723.84l35.58 0l0 12.23l-35.58 0Z" id="p227w382" />
<path d="M270.44 738.88l19.58 0l0 12.56l-19.58 0Z" id="p227w383" />
<path d="M260.59 754.36l18.14 0l0 12.29l-18.14 0Z" id="p227w384" />
<path d="M291.57 753.31l14.14 0l0 13.77l-14.14 0Z" id="p227w385" />
<path d="M311.57 754.41l28.37 0l0 12.23l-28.37 0Z" id="p227w386" />
<path d="M342.63 754.39l18.68 0l0 12.23l-18.68 0Z" id="p227w387" />
<path d="M363.72 754.39l36.7 0l0 12.23l-36.7 0Z" id="p227w388" />
<path d="M403.12 754.17l14.79 0l0 12.56l-14.79 0Z" id="p227w389" />
<path d="M260.59 769.64l23.03 0l0 12.29l-23.03 0Z" id="p227w390" />
<path d="M289.48 768.59l18.86 0l0 13.77l-18.86 0Z" id="p227w391" />
<path d="M314.2 769.7l18.91 0l0 12.23l-18.91 0Z" id="p227w392" />
<path d="M335.81 769.45l14.79 0l0 12.56l-14.79 0Z" id="p227w393" />
<path d="M260.59 784.98l4.72 0l0 12.23l-4.72 0Z" id="p227w394" />
<path d="M265.31 784.92l38.05 0l0 12.29l-38.05 0Z" id="p227w395" />
<path d="M330.37 783.88l32.78 0l0 13.77l-32.78 0Z" id="p227w396" />
<path d="M369.01 784.98l16.43 0l0 12.23l-16.43 0Z" id="p227w397" />
<path d="M388.14 784.98l52.44 0l0 12.23l-52.44 0Z" id="p227w398" />
<path d="M270.44 800.02l17.26 0l0 12.56l-17.26 0Z" id="p227w399" />
<path d="M260.59 815.49l38.05 0l0 12.29l-38.05 0Z" id="p227w400" />
<path d="M302.81 815.49l49.75 0l0 12.29l-49.75 0Z" id="p227w401" />
<path d="M358.42 814.45l68.47 0l0 13.77l-68.47 0Z" id="p227w402" />
<path d="M270.44 830.83l46.58 0l0 12.23l-46.58 0Z" id="p227w403" />
<path d="M319.72 830.58l17.26 0l0 12.56l-17.26 0Z" id="p227w404" />
<path d="M260.59 846.06l39.97 0l0 12.29l-39.97 0Z" id="p227w405" />
<path d="M306.42 845.01l37.93 0l0 13.77l-37.93 0Z" id="p227w406" />
<path d="M350.2 846.11l45.81 0l0 12.23l-45.81 0ZM398.71 846.11l33.26 0l0 12.23l-33.26 0ZM270.44 861.15l18.92 0l0 12.56l-18.92 0Z" id="p227w407" />
<path d="M260.59 876.68l17.56 0l0 12.23l-17.56 0Z" id="p227w408" />
<path d="M280.85 876.62l45.74 0l0 12.29l-45.74 0Z" id="p227w409" />
<path d="M332.45 875.58l35.68 0l0 13.77l-35.68 0Z" id="p227w410" />
<path d="M373.99 876.68l20.03 0l0 12.23l-20.03 0Z" id="p227w411" />
<path d="M270.44 891.96l59.69 0l0 12.23l-59.69 0Z" id="p227w412" />
<path d="M332.83 891.96l20.03 0l0 12.23l-20.03 0Z" id="p227w413" />
<path d="M355.56 891.96l48.8 0l0 12.23l-48.8 0Z" id="p227w414" />
<path d="M407.06 891.72l15.54 0l0 12.56l-15.54 0Z" id="p227w415" />
<path d="M260.59 907.25l4.72 0l0 12.23l-4.72 0Z" id="p227w416" />
<path d="M265.31 907.19l30.61 0l0 12.29l-30.61 0Z" id="p227w417" />
<path d="M322.94 906.15l28.91 0l0 13.77l-28.91 0Z" id="p227w418" />
<path d="M357.7 907.25l14.41 0l0 12.23l-14.41 0Z" id="p227w419" />
<path d="M374.81 907.25l25.21 0l0 12.23l-25.21 0Z" id="p227w420" />
<path d="M402.72 907l18.17 0l0 12.56l-18.17 0Z" id="p227w421" />
<path d="M462.11 112.45l41.36 0l0 12.29l-41.36 0Z" id="p227w422" />
<path d="M507.64 112.45l46.98 0l0 12.29l-46.98 0Z" id="p227w423" />
<path d="M560.48 111.41l67.28 0l0 13.77l-67.28 0Z" id="p227w424" />
<path d="M471.96 127.79l28.28 0l0 12.23l-28.28 0Z" id="p227w425" />
<path d="M502.94 127.79l63.01 0l0 12.23l-63.01 0Z" id="p227w426" />
<path d="M568.65 127.55l18.92 0l0 12.56l-18.92 0Z" id="p227w427" />
<path d="M462.11 143.08l6.75 0l0 12.23l-6.75 0Z" id="p227w428" />
<path d="M468.86 143.02l35.22 0l0 12.29l-35.22 0Z" id="p227w429" />
<path d="M509.94 141.97l33.83 0l0 13.77l-33.83 0Z" id="p227w430" />
<path d="M549.63 143.08l18.46 0l0 12.23l-18.46 0Z" id="p227w431" />
<path d="M570.79 143.08l51.73 0l0 12.23l-51.73 0Z" id="p227w432" />
<path d="M471.96 158.36l23.86 0l0 12.23l-23.86 0Z" id="p227w433" />
<path d="M498.52 158.36l29.49 0l0 12.23l-29.49 0Z" id="p227w434" />
<path d="M530.71 158.11l15.54 0l0 12.56l-15.54 0Z" id="p227w435" />
<path d="M462.11 173.64l11.94 0l0 12.23l-11.94 0Z" id="p227w436" />
<path d="M476.75 173.59l11.72 0l0 12.29l-11.72 0Z" id="p227w437" />
<path d="M494.32 172.54l16.86 0l0 13.77l-16.86 0Z" id="p227w438" />
<path d="M517.04 173.64l14.41 0l0 12.23l-14.41 0Z" id="p227w439" />
<path d="M534.15 173.64l18.68 0l0 12.23l-18.68 0Z" id="p227w440" />
<path d="M555.53 173.4l14.79 0l0 12.56l-14.79 0Z" id="p227w441" />
<path d="M471.96 188.93l13.14 0l0 12.23l-13.14 0Z" id="p227w442" />
<path d="M500.26 188.93l18.68 0l0 12.23l-18.68 0Z" id="p227w443" />
<path d="M524.8 187.83l45.48 0l0 13.77l-45.48 0Z" id="p227w444" />
<path d="M576.14 188.93l14.19 0l0 12.23l-14.19 0Z" id="p227w445" />
<path d="M593.04 188.93l14.86 0l0 12.23l-14.86 0Z" id="p227w446" />
<path d="M471.96 204.21l24.31 0l0 12.23l-24.31 0Z" id="p227w447" />
<path d="M498.97 204.21l14.41 0l0 12.23l-14.41 0Z" id="p227w448" />
<path d="M516.07 203.96l14.79 0l0 12.56l-14.79 0Z" id="p227w449" />
<path d="M462.11 219.49l4.72 0l0 12.23l-4.72 0Z" id="p227w450" />
<path d="M466.83 219.44l33.69 0l0 12.29l-33.69 0Z" id="p227w451" />
<path d="M527.53 218.39l22.3 0l0 13.77l-22.3 0Z" id="p227w452" />
<path d="M555.69 219.49l39.13 0l0 12.23l-39.13 0Z" id="p227w453" />
<path d="M597.52 219.25l15.54 0l0 12.56l-15.54 0Z" id="p227w454" />
<path d="M462.11 234.72l33.69 0l0 12.29l-33.69 0Z" id="p227w455" />
<path d="M499.97 234.72l39.31 0l0 12.29l-39.31 0Z" id="p227w456" />
<path d="M545.14 233.68l46.32 0l0 13.77l-46.32 0Z" id="p227w457" />
<path d="M597.32 234.78l38.89 0l0 12.23l-38.89 0Z" id="p227w458" />
<path d="M471.96 249.81l15.54 0l0 12.56l-15.54 0Z" id="p227w459" />
<path d="M462.11 265.34l11.94 0l0 12.23l-11.94 0Z" id="p227w460" />
<path d="M476.75 265.29l32.23 0l0 12.29l-32.23 0Z" id="p227w461" />
<path d="M508.98 265.34l20.6 0l0 12.23l-20.6 0Z" id="p227w462" />
<path d="M532.28 265.29l40.65 0l0 12.29l-40.65 0Z" id="p227w463" />
<path d="M578.79 264.24l45.65 0l0 13.77l-45.65 0Z" id="p227w464" />
<path d="M471.96 279.53l45.85 0l0 13.77l-45.85 0Z" id="p227w465" />
<path d="M523.66 280.63l14.41 0l0 12.23l-14.41 0Z" id="p227w466" />
<path d="M540.47 280.63l44.45 0l0 12.23l-44.45 0Z" id="p227w467" />
<path d="M587.62 280.38l18.92 0l0 12.56l-18.92 0Z" id="p227w468" />
<path d="M462.11 295.91l11.94 0l0 12.23l-11.94 0Z" id="p227w469" />
<path d="M476.75 295.85l48.86 0l0 12.29l-48.86 0Z" id="p227w470" />
<path d="M525.61 295.91l21.73 0l0 12.23l-21.73 0Z" id="p227w471" />
<path d="M550.04 295.85l50.32 0l0 12.29l-50.32 0Z" id="p227w472" />
<path d="M475.11 310.09l117.46 0l0 13.77l-117.46 0Z" id="p227w473" />
<path d="M598.44 311.19l14.41 0l0 12.23l-14.41 0Z" id="p227w474" />
<path d="M471.96 326.48l65.16 0l0 12.23l-65.16 0Z" id="p227w475" />
<path d="M539.82 326.48l52.19 0l0 12.23l-52.19 0Z" id="p227w476" />
<path d="M594.7 326.48l14.41 0l0 12.23l-14.41 0Z" id="p227w477" />
<path d="M471.96 341.76l68.98 0l0 12.23l-68.98 0Z" id="p227w478" />
<path d="M543.64 341.76l53.56 0l0 12.23l-53.56 0Z" id="p227w479" />
<path d="M471.96 356.8l15.54 0l0 12.56l-15.54 0Z" id="p227w480" />
<path d="M501.96 357.04l27.23 0l0 12.23l-27.23 0Z" id="p227w481" />
<path d="M531.89 357.04l81.23 0l0 12.23l-81.23 0ZM471.96 372.33l65.5 0l0 12.23l-65.5 0Z" id="p227w482" />
<path d="M540.16 372.08l18.01 0l0 12.56l-18.01 0Z" id="p227w483" />
<path d="M462.11 387.61l5.86 0l0 12.23l-5.86 0Z" id="p227w484" />
<path d="M486.65 387.61l11.7 0l0 12.23l-11.7 0Z" id="p227w485" />
<path d="M501.06 387.61l4.72 0l0 12.23l-4.72 0Z" id="p227w486" />
<path d="M505.78 387.55l48.11 0l0 12.29l-48.11 0Z" id="p227w487" />
<path d="M577.01 386.51l33.4 0l0 13.77l-33.4 0Z" id="p227w488" />
<path d="M471.96 401.79l43.89 0l0 13.77l-43.89 0Z" id="p227w489" />
<path d="M521.71 402.89l10.58 0l0 12.23l-10.58 0Z" id="p227w490" />
<path d="M534.99 402.89l11.25 0l0 12.23l-11.25 0Z" id="p227w491" />
<path d="M548.94 402.89l28.04 0l0 12.23l-28.04 0Z" id="p227w492" />
<path d="M579.69 402.89l15.54 0l0 12.23l-15.54 0Z" id="p227w493" />
<path d="M597.93 402.65l18.92 0l0 12.56l-18.92 0Z" id="p227w494" />
<path d="M462.11 418.18l17.56 0l0 12.23l-17.56 0Z" id="p227w495" />
<path d="M482.37 418.12l29.04 0l0 12.29l-29.04 0Z" id="p227w496" />
<path d="M517.27 417.08l28.08 0l0 13.77l-28.08 0Z" id="p227w497" />
<path d="M551.21 418.18l14.41 0l0 12.23l-14.41 0Z" id="p227w498" />
<path d="M568.31 418.18l18.68 0l0 12.23l-18.68 0Z" id="p227w499" />
<path d="M589.7 417.93l15.54 0l0 12.56l-15.54 0Z" id="p227w500" />
<path d="M471.96 433.46l33.39 0l0 12.23l-33.39 0Z" id="p227w501" />
<path d="M508.05 433.46l46.61 0l0 12.23l-46.61 0Z" id="p227w502" />
<path d="M575.52 432.36l49.73 0l0 13.77l-49.73 0Z" id="p227w503" />
<path d="M471.96 448.74l41.64 0l0 12.23l-41.64 0Z" id="p227w504" />
<path d="M516.3 448.74l18.68 0l0 12.23l-18.68 0Z" id="p227w505" />
<path d="M537.68 448.5l15.54 0l0 12.56l-15.54 0Z" id="p227w506" />
<path d="M462.11 464.03l11.94 0l0 12.23l-11.94 0Z" id="p227w507" />
<path d="M476.75 463.97l57.91 0l0 12.29l-57.91 0Z" id="p227w508" />
<path d="M540.52 462.93l54.69 0l0 13.77l-54.69 0Z" id="p227w509" />
<path d="M601.06 464.03l14.41 0l0 12.23l-14.41 0Z" id="p227w510" />
<path d="M471.96 479.31l52.39 0l0 12.23l-52.39 0Z" id="p227w511" />
<path d="M527.04 479.07l14.79 0l0 12.56l-14.79 0Z" id="p227w512" />
<path d="M462.11 494.59l17.56 0l0 12.23l-17.56 0Z" id="p227w513" />
<path d="M482.37 494.54l39.96 0l0 12.29l-39.96 0Z" id="p227w514" />
<path d="M528.19 493.49l32.12 0l0 13.77l-32.12 0Z" id="p227w515" />
<path d="M566.17 494.59l20.03 0l0 12.23l-20.03 0Z" id="p227w516" />
<path d="M588.9 494.59l37.54 0l0 12.23l-37.54 0Z" id="p227w517" />
<path d="M471.96 509.63l18.92 0l0 12.56l-18.92 0Z" id="p227w518" />
<path d="M462.11 525.16l11.94 0l0 12.23l-11.94 0Z" id="p227w519" />
<path d="M476.75 525.11l32.75 0l0 12.29l-32.75 0Z" id="p227w520" />
<path d="M515.35 524.06l43.72 0l0 13.77l-43.72 0Z" id="p227w521" />
<path d="M564.93 525.16l14.41 0l0 12.23l-14.41 0Z" id="p227w522" />
<path d="M582.03 525.16l32.87 0l0 12.23l-32.87 0Z" id="p227w523" />
<path d="M617.6 524.92l15.34 0l0 12.56l-15.34 0Z" id="p227w524" />
<path d="M462.11 540.44l4.72 0l0 12.23l-4.72 0Z" id="p227w525" />
<path d="M466.83 540.39l26.99 0l0 12.29l-26.99 0Z" id="p227w526" />
<path d="M496.52 540.42l26.6 0l0 12.23l-26.6 0Z" id="p227w527" />
<path d="M525.68 540.42l27.91 0l0 12.23l-27.91 0Z" id="p227w528" />
<path d="M559.44 539.34l30.73 0l0 13.77l-30.73 0Z" id="p227w529" />
<path d="M596.03 540.44l15.53 0l0 12.23l-15.53 0Z" id="p227w530" />
<path d="M471.96 555.73l36.46 0l0 12.23l-36.46 0Z" id="p227w531" />
<path d="M511.12 555.48l15.54 0l0 12.56l-15.54 0Z" id="p227w532" />
<path d="M462.11 571.01l11.94 0l0 12.23l-11.94 0Z" id="p227w533" />
<path d="M476.75 570.96l38.46 0l0 12.29l-38.46 0Z" id="p227w534" />
<path d="M521.06 569.91l40.05 0l0 13.77l-40.05 0Z" id="p227w535" />
<path d="M566.97 571.01l14.41 0l0 12.23l-14.41 0Z" id="p227w536" />
<path d="M584.08 571.01l39.8 0l0 12.23l-39.8 0Z" id="p227w537" />
<path d="M626.58 571.01l14.41 0l0 12.23l-14.41 0Z" id="p227w538" />
<path d="M471.96 586.29l25.65 0l0 12.23l-25.65 0Z" id="p227w539" />
<path d="M500.31 586.05l18.01 0l0 12.56l-18.01 0Z" id="p227w540" />
<path d="M471.96 601.58l11.94 0l0 12.23l-11.94 0Z" id="p227w541" />
<path d="M486.6 601.58l38.26 0l0 12.23l-38.26 0Z" id="p227w542" />
<path d="M527.56 601.58l27.7 0l0 12.23l-27.7 0Z" id="p227w543" />
<path d="M561.11 600.48l57.86 0l0 13.77l-57.86 0Z" id="p227w544" />
<path d="M624.84 601.58l14.41 0l0 12.23l-14.41 0Z" id="p227w545" />
<path d="M471.96 616.86l57.18 0l0 12.23l-57.18 0Z" id="p227w546" />
<path d="M531.84 616.62l15.54 0l0 12.56l-15.54 0Z" id="p227w547" />
<path d="M462.11 632.14l11.94 0l0 12.23l-11.94 0Z" id="p227w548" />
<path d="M476.75 632.09l61.77 0l0 12.29l-61.77 0Z" id="p227w549" />
<path d="M544.37 631.04l56.62 0l0 13.77l-56.62 0Z" id="p227w550" />
<path d="M606.85 632.14l20.03 0l0 12.23l-20.03 0Z" id="p227w551" />
<path d="M471.96 647.43l44.98 0l0 12.23l-44.98 0Z" id="p227w552" />
<path d="M519.64 647.18l14.63 0l0 12.56l-14.63 0Z" id="p227w553" />
<path d="M462.11 662.66l49.65 0l0 12.29l-49.65 0Z" id="p227w554" />
<path d="M522.79 662.71l27.37 0l0 12.23l-27.37 0Z" id="p227w555" />
<path d="M556.01 661.61l45.14 0l0 13.77l-45.14 0Z" id="p227w556" />
<path d="M607.01 662.71l19.44 0l0 12.23l-19.44 0Z" id="p227w557" />
<path d="M471.96 677.99l53.26 0l0 12.23l-53.26 0Z" id="p227w558" />
<path d="M527.92 677.99l10.82 0l0 12.23l-10.82 0Z" id="p227w559" />
<path d="M541.44 677.99l43.65 0l0 12.23l-43.65 0Z" id="p227w560" />
<path d="M587.79 677.99l39.11 0l0 12.23l-39.11 0Z" id="p227w561" />
<path d="M471.96 693.03l18.92 0l0 12.56l-18.92 0Z" id="p227w562" />
<path d="M462.11 708.51l35.71 0l0 12.29l-35.71 0Z" id="p227w563" />
<path d="M500.52 708.56l12.16 0l0 12.23l-12.16 0Z" id="p227w564" />
<path d="M518.54 707.46l19.23 0l0 13.77l-19.23 0Z" id="p227w565" />
<path d="M543.63 708.56l16.9 0l0 12.23l-16.9 0Z" id="p227w566" />
<path d="M563.22 708.56l39.14 0l0 12.23l-39.14 0Z" id="p227w567" />
<path d="M605.06 708.56l16.9 0l0 12.23l-16.9 0Z" id="p227w568" />
<path d="M471.96 723.84l24.99 0l0 12.23l-24.99 0Z" id="p227w569" />
<path d="M499.65 723.6l15.54 0l0 12.56l-15.54 0Z" id="p227w570" />
<path d="M471.96 739.13l10.13 0l0 12.23l-10.13 0Z" id="p227w571" />
<path d="M484.78 739.13l50.72 0l0 12.23l-50.72 0Z" id="p227w572" />
<path d="M541.36 738.03l29.19 0l0 13.77l-29.19 0Z" id="p227w573" />
<path d="M576.41 739.13l13.05 0l0 12.23l-13.05 0Z" id="p227w574" />
<path d="M592.16 739.13l32.41 0l0 12.23l-32.41 0Z" id="p227w575" />
<path d="M471.96 754.17l15.54 0l0 12.56l-15.54 0Z" id="p227w576" />
<path d="M471.96 769.7l5.4 0l0 12.23l-5.4 0Z" id="p227w577" />
<path d="M480.06 769.7l40.82 0l0 12.23l-40.82 0Z" id="p227w578" />
<path d="M526.73 768.59l29.19 0l0 13.77l-29.19 0Z" id="p227w579" />
<path d="M561.78 769.7l9.45 0l0 12.23l-9.45 0Z" id="p227w580" />
<path d="M573.93 769.7l24.53 0l0 12.23l-24.53 0Z" id="p227w581" />
<path d="M601.16 769.45l14.79 0l0 12.56l-14.79 0Z" id="p227w582" />
<path d="M471.96 784.98l8.1 0l0 12.23l-8.1 0Z" id="p227w583" />
<path d="M482.76 784.98l45.32 0l0 12.23l-45.32 0Z" id="p227w584" />
<path d="M533.94 783.88l37.84 0l0 13.77l-37.84 0Z" id="p227w585" />
<path d="M577.63 784.98l13.74 0l0 12.23l-13.74 0Z" id="p227w586" />
<path d="M594.07 784.98l26.33 0l0 12.23l-26.33 0Z" id="p227w587" />
<path d="M623.1 784.73l13.88 0l0 12.56l-13.88 0Z" id="p227w588" />
<path d="M471.96 800.26l10.45 0l0 12.23l-10.45 0Z" id="p227w589" />
<path d="M485.11 800.26l44.64 0l0 12.23l-44.64 0Z" id="p227w590" />
<path d="M532.45 800.26l44.79 0l0 12.23l-44.79 0Z" id="p227w591" />
<path d="M475.11 814.45l57.13 0l0 13.77l-57.13 0Z" id="p227w592" />
<path d="M537.88 815.55l17.55 0l0 12.23l-17.55 0Z" id="p227w593" />
<path d="M558.13 815.55l24.53 0l0 12.23l-24.53 0Z" id="p227w594" />
<path d="M585.37 815.55l16.22 0l0 12.23l-16.22 0Z" id="p227w595" />
<path d="M604.28 815.3l14.79 0l0 12.56l-14.79 0Z" id="p227w596" />
<path d="M462.11 830.83l17.56 0l0 12.23l-17.56 0Z" id="p227w597" />
<path d="M482.37 830.77l55.32 0l0 12.29l-55.32 0Z" id="p227w598" />
<path d="M543.55 829.73l47.18 0l0 13.77l-47.18 0Z" id="p227w599" />
<path d="M596.59 830.83l20.03 0l0 12.23l-20.03 0Z" id="p227w600" />
<path d="M471.96 846.11l105.54 0l0 12.23l-105.54 0Z" id="p227w601" />
<path d="M580.2 845.87l18.92 0l0 12.56l-18.92 0Z" id="p227w602" />
<path d="M462.11 861.34l44.94 0l0 12.29l-44.94 0Z" id="p227w603" />
<path d="M512.91 860.3l34.6 0l0 13.77l-34.6 0Z" id="p227w604" />
<path d="M553.37 861.4l36.91 0l0 12.23l-36.91 0Z" id="p227w605" />
<path d="M592.98 861.4l47.24 0l0 12.23l-47.24 0Z" id="p227w606" />
<path d="M471.96 876.68l61.9 0l0 12.23l-61.9 0Z" id="p227w607" />
<path d="M536.56 876.43l18.92 0l0 12.56l-18.92 0Z" id="p227w608" />
<path d="M462.11 891.96l17.56 0l0 12.23l-17.56 0Z" id="p227w609" />
<path d="M482.37 891.91l23.38 0l0 12.29l-23.38 0Z" id="p227w610" />
<path d="M508.45 891.94l27.91 0l0 12.23l-27.91 0Z" id="p227w611" />
<path d="M542.22 890.86l28.66 0l0 13.77l-28.66 0Z" id="p227w612" />
<path d="M576.73 891.96l20.03 0l0 12.23l-20.03 0Z" id="p227w613" />
<path d="M471.96 907.25l59.12 0l0 12.23l-59.12 0Z" id="p227w614" />
<path d="M533.78 907.25l20.03 0l0 12.23l-20.03 0Z" id="p227w615" />
<path d="M556.51 907.25l18.68 0l0 12.23l-18.68 0Z" id="p227w616" />
<path d="M577.9 907l14.43 0l0 12.56l-14.43 0Z" id="p227w617" />
</svg>
