<?xml version="1.0" encoding="UTF-8"?>
<svg xmlns="http://www.w3.org/2000/svg" xmlns:xlink="http://www.w3.org/1999/xlink" version="1.1" baseProfile="full" width="768" height="1024" viewBox="0,0,768,1024" preserveAspectRatio="xMinYMin meet" >
<style type="text/css">
<![CDATA[
path {fill-opacity: 0.5;fill: #00aeef;visibility: hidden;}
]]>
</style>
<path d="M124.06 107.98l18.36 0l0 18.84l-18.36 0Z" id="p151w1" />
<path d="M146.07 107.98l56.09 0l0 18.84l-56.09 0Z" id="p151w2" />
<path d="M124.06 139.19l43.86 0l0 14.52l-43.86 0Z" id="p151w3" />
<path d="M171.13 139.19l9.89 0l0 14.52l-9.89 0Z" id="p151w4" />
<path d="M184.22 139.19l46.79 0l0 14.52l-46.79 0Z" id="p151w5" />
<path d="M245.14 139.16l50.3 0l0 14.52l-50.3 0Z" id="p151w6" />
<path d="M124.06 155.86l13.9 0l0 14.52l-13.9 0Z" id="p151w7" />
<path d="M141.17 155.86l33.68 0l0 14.52l-33.68 0Z" id="p151w8" />
<path d="M178.06 155.86l31.55 0l0 14.52l-31.55 0Z" id="p151w9" />
<path d="M212.81 155.86l44.1 0l0 14.52l-44.1 0Z" id="p151w10" />
<path d="M124.06 172.53l54.53 0l0 14.52l-54.53 0Z" id="p151w11" />
<path d="M181.8 172.53l33.05 0l0 14.52l-33.05 0Z" id="p151w12" />
<path d="M218.05 172.53l20.85 0l0 14.52l-20.85 0Z" id="p151w13" />
<path d="M242.12 172.53l25.67 0l0 14.52l-25.67 0Z" id="p151w14" />
<path d="M124.06 189.2l41.45 0l0 14.52l-41.45 0Z" id="p151w15" />
<path d="M168.71 189.2l9.89 0l0 14.52l-9.89 0Z" id="p151w16" />
<path d="M181.81 189.2l47.58 0l0 14.52l-47.58 0Z" id="p151w17" />
<path d="M232.6 189.2l11.22 0l0 14.52l-11.22 0Z" id="p151w18" />
<path d="M247.03 189.2l9.89 0l0 14.52l-9.89 0Z" id="p151w19" />
<path d="M260.12 189.2l22.2 0l0 14.52l-22.2 0Z" id="p151w20" />
<path d="M124.06 205.87l14.18 0l0 14.52l-14.18 0Z" id="p151w21" />
<path d="M141.45 205.87l49.72 0l0 14.52l-49.72 0Z" id="p151w22" />
<path d="M202.66 205.87l54.01 0l0 14.52l-54.01 0Z" id="p151w23" />
<path d="M135.88 347.31l18.02 0l0 15.09l-18.02 0Z" id="p151w24" />
<path d="M157.51 347.31l35.75 0l0 15.09l-35.75 0Z" id="p151w25" />
<path d="M196.87 347.31l15.74 0l0 15.09l-15.74 0Z" id="p151w26" />
<path d="M216.23 347.31l22.54 0l0 15.09l-22.54 0Z" id="p151w27" />
<path d="M252.48 347.31l33.3 0l0 15.09l-33.3 0Z" id="p151w28" />
<path d="M135.88 363.98l31.59 0l0 15.09l-31.59 0Z" id="p151w29" />
<path d="M171.08 363.98l21.67 0l0 15.09l-21.67 0Z" id="p151w30" />
<path d="M196.36 363.98l15.89 0l0 15.09l-15.89 0Z" id="p151w31" />
<path d="M215.85 363.98l26.86 0l0 15.09l-26.86 0Z" id="p151w32" />
<path d="M246.33 363.98l25.23 0l0 15.09l-25.23 0Z" id="p151w33" />
<path d="M275.17 363.98l69.32 0l0 15.09l-69.32 0Z" id="p151w34" />
<path d="M135.88 380.65l17.68 0l0 15.09l-17.68 0Z" id="p151w35" />
<path d="M157.17 380.65l24.62 0l0 15.09l-24.62 0Z" id="p151w36" />
<path d="M185.41 380.65l13.91 0l0 15.09l-13.91 0Z" id="p151w37" />
<path d="M202.93 380.65l46.87 0l0 15.09l-46.87 0Z" id="p151w38" />
<path d="M253.41 380.65l25.15 0l0 15.09l-25.15 0Z" id="p151w39" />
<path d="M282.17 380.65l28.22 0l0 15.09l-28.22 0Z" id="p151w40" />
<path d="M135.88 397.32l12.22 0l0 15.09l-12.22 0Z" id="p151w41" />
<path d="M151.71 397.32l24.6 0l0 15.09l-24.6 0Z" id="p151w42" />
<path d="M179.92 397.32l42.73 0l0 15.09l-42.73 0Z" id="p151w43" />
<path d="M226.26 397.32l16.75 0l0 15.09l-16.75 0Z" id="p151w44" />
<path d="M246.62 397.32l23.61 0l0 15.09l-23.61 0Z" id="p151w45" />
<path d="M273.84 397.32l37.95 0l0 15.09l-37.95 0Z" id="p151w46" />
<path d="M135.88 413.99l20.59 0l0 15.09l-20.59 0Z" id="p151w47" />
<path d="M170.18 413.99l24.15 0l0 15.09l-24.15 0Z" id="p151w48" />
<path d="M197.94 413.99l52.65 0l0 15.09l-52.65 0Z" id="p151w49" />
<path d="M254.2 413.99l29.24 0l0 15.09l-29.24 0Z" id="p151w50" />
<path d="M287.05 413.99l43.66 0l0 15.09l-43.66 0Z" id="p151w51" />
<path d="M135.88 430.66l13.4 0l0 15.09l-13.4 0Z" id="p151w52" />
<path d="M152.89 430.66l42.67 0l0 15.09l-42.67 0Z" id="p151w53" />
<path d="M199.17 430.66l10.5 0l0 15.09l-10.5 0Z" id="p151w54" />
<path d="M213.28 430.66l37.19 0l0 15.09l-37.19 0Z" id="p151w55" />
<path d="M254.09 430.66l45.28 0l0 15.09l-45.28 0Z" id="p151w56" />
<path d="M302.98 430.66l21.67 0l0 15.09l-21.67 0Z" id="p151w57" />
<path d="M328.26 430.66l28.26 0l0 15.09l-28.26 0Z" id="p151w58" />
<path d="M135.88 447.33l27.08 0l0 15.09l-27.08 0Z" id="p151w59" />
<path d="M166.57 447.33l27.82 0l0 15.09l-27.82 0Z" id="p151w60" />
<path d="M198 447.33l45.44 0l0 15.09l-45.44 0Z" id="p151w61" />
<path d="M247.06 447.33l28.7 0l0 15.09l-28.7 0Z" id="p151w62" />
<path d="M279.37 447.33l23.61 0l0 15.09l-23.61 0Z" id="p151w63" />
<path d="M306.59 447.33l34.69 0l0 15.09l-34.69 0Z" id="p151w64" />
<path d="M135.88 464l13.4 0l0 15.09l-13.4 0Z" id="p151w65" />
<path d="M152.89 464l19.84 0l0 15.09l-19.84 0Z" id="p151w66" />
<path d="M176.35 464l24.79 0l0 15.09l-24.79 0Z" id="p151w67" />
<path d="M204.75 464l66.56 0l0 15.09l-66.56 0Z" id="p151w68" />
<path d="M274.92 464l27.23 0l0 15.09l-27.23 0Z" id="p151w69" />
<path d="M305.77 464l15.89 0l0 15.09l-15.89 0Z" id="p151w70" />
<path d="M325.26 464l30.78 0l0 15.09l-30.78 0Z" id="p151w71" />
<path d="M135.88 497.35l40.95 0l0 15.09l-40.95 0Z" id="p151w72" />
<path d="M180.43 497.35l75.24 0l0 15.09l-75.24 0Z" id="p151w73" />
<path d="M259.28 497.35l57.08 0l0 15.09l-57.08 0Z" id="p151w74" />
<path d="M319.97 497.35l26.3 0l0 15.09l-26.3 0Z" id="p151w75" />
<path d="M349.87 497.35l15.74 0l0 15.09l-15.74 0Z" id="p151w76" />
<path d="M369.23 497.35l21.87 0l0 15.09l-21.87 0Z" id="p151w77" />
<path d="M394.72 497.35l58.87 0l0 15.09l-58.87 0Z" id="p151w78" />
<path d="M457.2 497.35l26.14 0l0 15.09l-26.14 0Z" id="p151w79" />
<path d="M135.88 514.02l17.68 0l0 15.09l-17.68 0Z" id="p151w80" />
<path d="M157.17 514.02l15.06 0l0 15.09l-15.06 0Z" id="p151w81" />
<path d="M175.85 514.02l35.64 0l0 15.09l-35.64 0Z" id="p151w82" />
<path d="M215.1 514.02l15.06 0l0 15.09l-15.06 0Z" id="p151w83" />
<path d="M233.77 514.02l30.41 0l0 15.09l-30.41 0Z" id="p151w84" />
<path d="M267.79 514.02l19.29 0l0 15.09l-19.29 0Z" id="p151w85" />
<path d="M290.69 514.02l52.23 0l0 15.09l-52.23 0Z" id="p151w86" />
<path d="M346.53 514.02l19.29 0l0 15.09l-19.29 0Z" id="p151w87" />
<path d="M369.44 514.02l58.43 0l0 15.09l-58.43 0Z" id="p151w88" />
<path d="M431.47 514.02l19.01 0l0 15.09l-19.01 0Z" id="p151w89" />
<path d="M454.09 514.02l57.18 0l0 15.09l-57.18 0Z" id="p151w90" />
<path d="M135.88 530.68l27.08 0l0 15.09l-27.08 0Z" id="p151w91" />
<path d="M166.57 530.68l36.53 0l0 15.09l-36.53 0Z" id="p151w92" />
<path d="M206.7 530.68l28.61 0l0 15.09l-28.61 0Z" id="p151w93" />
<path d="M238.92 530.68l72.43 0l0 15.09l-72.43 0Z" id="p151w94" />
<path d="M314.97 530.68l11.26 0l0 15.09l-11.26 0Z" id="p151w95" />
<path d="M329.84 530.68l27.43 0l0 15.09l-27.43 0Z" id="p151w96" />
<path d="M357.26 530.68l34.97 0l0 15.09l-34.97 0Z" id="p151w97" />
<path d="M395.85 530.68l13.91 0l0 15.09l-13.91 0Z" id="p151w98" />
<path d="M413.36 530.68l24.93 0l0 15.09l-24.93 0Z" id="p151w99" />
<path d="M441.91 530.68l18.04 0l0 15.09l-18.04 0Z" id="p151w100" />
<path d="M463.56 530.68l32.66 0l0 15.09l-32.66 0Z" id="p151w101" />
<path d="M135.88 547.35l26.22 0l0 15.09l-26.22 0Z" id="p151w102" />
<path d="M165.71 547.35l25.36 0l0 15.09l-25.36 0Z" id="p151w103" />
<path d="M194.67 547.35l25.88 0l0 15.09l-25.88 0Z" id="p151w104" />
<path d="M224.17 547.35l27.23 0l0 15.09l-27.23 0Z" id="p151w105" />
<path d="M255.01 547.35l18.04 0l0 15.09l-18.04 0Z" id="p151w106" />
<path d="M276.67 547.35l68.21 0l0 15.09l-68.21 0Z" id="p151w107" />
<path d="M348.49 547.35l29.93 0l0 15.09l-29.93 0Z" id="p151w108" />
<path d="M382.03 547.35l15.74 0l0 15.09l-15.74 0Z" id="p151w109" />
<path d="M401.39 547.35l38.32 0l0 15.09l-38.32 0Z" id="p151w110" />
<path d="M443.32 547.35l13.91 0l0 15.09l-13.91 0Z" id="p151w111" />
<path d="M460.84 547.35l36.19 0l0 15.09l-36.19 0Z" id="p151w112" />
<path d="M500.64 547.35l15.89 0l0 15.09l-15.89 0Z" id="p151w113" />
<path d="M520.14 547.35l30.39 0l0 15.09l-30.39 0Z" id="p151w114" />
<path d="M135.88 564.02l17.68 0l0 15.09l-17.68 0Z" id="p151w115" />
<path d="M157.17 564.02l30.01 0l0 15.09l-30.01 0Z" id="p151w116" />
<path d="M190.79 564.02l65.39 0l0 15.09l-65.39 0Z" id="p151w117" />
<path d="M259.8 564.02l46.09 0l0 15.09l-46.09 0Z" id="p151w118" />
<path d="M309.49 564.02l16.75 0l0 15.09l-16.75 0Z" id="p151w119" />
<path d="M329.85 564.02l19.29 0l0 15.09l-19.29 0Z" id="p151w120" />
<path d="M352.75 564.02l42.13 0l0 15.09l-42.13 0Z" id="p151w121" />
<path d="M398.49 564.02l47.46 0l0 15.09l-47.46 0Z" id="p151w122" />
<path d="M449.57 564.02l19.01 0l0 15.09l-19.01 0Z" id="p151w123" />
<path d="M472.19 564.02l67.65 0l0 15.09l-67.65 0Z" id="p151w124" />
<path d="M135.88 580.69l12.22 0l0 15.09l-12.22 0Z" id="p151w125" />
<path d="M151.71 580.69l19.29 0l0 15.09l-19.29 0Z" id="p151w126" />
<path d="M174.61 580.69l27.68 0l0 15.09l-27.68 0Z" id="p151w127" />
<path d="M205.91 580.69l15.74 0l0 15.09l-15.74 0Z" id="p151w128" />
<path d="M225.26 580.69l21.87 0l0 15.09l-21.87 0Z" id="p151w129" />
<path d="M250.75 580.69l47.26 0l0 15.09l-47.26 0Z" id="p151w130" />
<path d="M301.62 580.69l26.3 0l0 15.09l-26.3 0Z" id="p151w131" />
<path d="M331.52 580.69l27.43 0l0 15.09l-27.43 0Z" id="p151w132" />
<path d="M358.95 580.69l34.97 0l0 15.09l-34.97 0Z" id="p151w133" />
<path d="M397.53 580.69l84.5 0l0 15.09l-84.5 0Z" id="p151w134" />
<path d="M135.88 597.36l17.68 0l0 15.09l-17.68 0Z" id="p151w135" />
<path d="M157.17 597.36l19.29 0l0 15.09l-19.29 0Z" id="p151w136" />
<path d="M180.07 597.36l42.08 0l0 15.09l-42.08 0Z" id="p151w137" />
<path d="M225.76 597.36l27.23 0l0 15.09l-27.23 0Z" id="p151w138" />
<path d="M256.61 597.36l15.89 0l0 15.09l-15.89 0Z" id="p151w139" />
<path d="M276.1 597.36l38.63 0l0 15.09l-38.63 0Z" id="p151w140" />
<path d="M318.35 597.36l11.26 0l0 15.09l-11.26 0Z" id="p151w141" />
<path d="M333.22 597.36l19.29 0l0 15.09l-19.29 0Z" id="p151w142" />
<path d="M356.12 597.36l32.57 0l0 15.09l-32.57 0Z" id="p151w143" />
<path d="M392.3 597.36l27.23 0l0 15.09l-27.23 0Z" id="p151w144" />
<path d="M423.14 597.36l15.89 0l0 15.09l-15.89 0Z" id="p151w145" />
<path d="M442.64 597.36l39.49 0l0 15.09l-39.49 0Z" id="p151w146" />
<path d="M135.88 614.03l55.01 0l0 15.09l-55.01 0Z" id="p151w147" />
<path d="M194.49 614.03l34.61 0l0 15.09l-34.61 0Z" id="p151w148" />
<path d="M232.72 614.03l63.51 0l0 15.09l-63.51 0Z" id="p151w149" />
<path d="M299.84 614.03l13.91 0l0 15.09l-13.91 0Z" id="p151w150" />
<path d="M317.36 614.03l27.43 0l0 15.09l-27.43 0Z" id="p151w151" />
<path d="M344.79 614.03l34.97 0l0 15.09l-34.97 0Z" id="p151w152" />
<path d="M383.37 614.03l70.13 0l0 15.09l-70.13 0Z" id="p151w153" />
<path d="M135.88 630.7l17.68 0l0 15.09l-17.68 0Z" id="p151w154" />
<path d="M157.17 630.7l19.29 0l0 15.09l-19.29 0Z" id="p151w155" />
<path d="M180.07 630.7l39.51 0l0 15.09l-39.51 0Z" id="p151w156" />
<path d="M223.19 630.7l42.71 0l0 15.09l-42.71 0Z" id="p151w157" />
<path d="M269.51 630.7l84.22 0l0 15.09l-84.22 0Z" id="p151w158" />
<path d="M357.34 630.7l11.26 0l0 15.09l-11.26 0Z" id="p151w159" />
<path d="M372.21 630.7l19.29 0l0 15.09l-19.29 0Z" id="p151w160" />
<path d="M395.11 630.7l25.06 0l0 15.09l-25.06 0Z" id="p151w161" />
<path d="M423.79 630.7l40.41 0l0 15.09l-40.41 0Z" id="p151w162" />
<path d="M467.8 630.7l19.01 0l0 15.09l-19.01 0Z" id="p151w163" />
<path d="M490.42 630.7l48.36 0l0 15.09l-48.36 0Z" id="p151w164" />
<path d="M542.4 630.7l19.29 0l0 15.09l-19.29 0Z" id="p151w165" />
<path d="M565.3 630.7l29.93 0l0 15.09l-29.93 0Z" id="p151w166" />
<path d="M135.88 647.37l18.93 0l0 15.09l-18.93 0Z" id="p151w167" />
<path d="M158.42 647.37l13.91 0l0 15.09l-13.91 0Z" id="p151w168" />
<path d="M175.94 647.37l33.45 0l0 15.09l-33.45 0Z" id="p151w169" />
<path d="M213 647.37l54.98 0l0 15.09l-54.98 0Z" id="p151w170" />
<path d="M271.59 647.37l53.52 0l0 15.09l-53.52 0Z" id="p151w171" />
<path d="M328.72 647.37l16.64 0l0 15.09l-16.64 0Z" id="p151w172" />
<path d="M348.98 647.37l10.42 0l0 15.09l-10.42 0Z" id="p151w173" />
<path d="M363.01 647.37l31 0l0 15.09l-31 0Z" id="p151w174" />
<path d="M397.62 647.37l30.04 0l0 15.09l-30.04 0Z" id="p151w175" />
<path d="M431.27 647.37l13.91 0l0 15.09l-13.91 0Z" id="p151w176" />
<path d="M448.78 647.37l26.58 0l0 15.09l-26.58 0Z" id="p151w177" />
<path d="M478.97 647.37l26.95 0l0 15.09l-26.95 0Z" id="p151w178" />
<path d="M135.88 664.04l17.68 0l0 15.09l-17.68 0Z" id="p151w179" />
<path d="M157.17 664.04l19.29 0l0 15.09l-19.29 0Z" id="p151w180" />
<path d="M180.07 664.04l29.82 0l0 15.09l-29.82 0Z" id="p151w181" />
<path d="M213.5 664.04l34.55 0l0 15.09l-34.55 0Z" id="p151w182" />
<path d="M251.66 664.04l14.59 0l0 15.09l-14.59 0Z" id="p151w183" />
<path d="M269.86 664.04l49.42 0l0 15.09l-49.42 0Z" id="p151w184" />
<path d="M322.89 664.04l15.74 0l0 15.09l-15.74 0Z" id="p151w185" />
<path d="M342.24 664.04l47.53 0l0 15.09l-47.53 0Z" id="p151w186" />
<path d="M393.38 664.04l27.04 0l0 15.09l-27.04 0Z" id="p151w187" />
<path d="M424.03 664.04l11.26 0l0 15.09l-11.26 0Z" id="p151w188" />
<path d="M438.9 664.04l19.29 0l0 15.09l-19.29 0Z" id="p151w189" />
<path d="M461.8 664.04l53.44 0l0 15.09l-53.44 0Z" id="p151w190" />
<path d="M135.88 680.71l18.93 0l0 15.09l-18.93 0Z" id="p151w191" />
<path d="M158.42 680.71l13.91 0l0 15.09l-13.91 0Z" id="p151w192" />
<path d="M175.94 680.71l33.45 0l0 15.09l-33.45 0Z" id="p151w193" />
<path d="M213 680.71l58.33 0l0 15.09l-58.33 0Z" id="p151w194" />
<path d="M274.95 680.71l53.52 0l0 15.09l-53.52 0Z" id="p151w195" />
<path d="M332.07 680.71l16.64 0l0 15.09l-16.64 0Z" id="p151w196" />
<path d="M352.33 680.71l10.42 0l0 15.09l-10.42 0Z" id="p151w197" />
<path d="M366.36 680.71l44.83 0l0 15.09l-44.83 0Z" id="p151w198" />
<path d="M414.8 680.71l13.91 0l0 15.09l-13.91 0Z" id="p151w199" />
<path d="M432.32 680.71l28.22 0l0 15.09l-28.22 0Z" id="p151w200" />
<path d="M135.88 714.04l10.63 0l0 15.09l-10.63 0Z" id="p151w201" />
<path d="M150.12 714.04l60.24 0l0 15.09l-60.24 0Z" id="p151w202" />
<path d="M224.07 714.04l53.52 0l0 15.09l-53.52 0Z" id="p151w203" />
<path d="M281.19 714.04l17.97 0l0 15.09l-17.97 0Z" id="p151w204" />
<path d="M302.77 714.04l17.93 0l0 15.09l-17.93 0Z" id="p151w205" />
<path d="M324.31 714.04l14.29 0l0 15.09l-14.29 0Z" id="p151w206" />
<path d="M342.22 714.04l19.32 0l0 15.09l-19.32 0Z" id="p151w207" />
<path d="M365.14 714.04l15.06 0l0 15.09l-15.06 0Z" id="p151w208" />
<path d="M383.82 714.04l20.28 0l0 15.09l-20.28 0Z" id="p151w209" />
<path d="M135.88 730.71l31.04 0l0 15.09l-31.04 0Z" id="p151w210" />
<path d="M170.53 730.71l25.01 0l0 15.09l-25.01 0Z" id="p151w211" />
<path d="M199.15 730.71l14.86 0l0 15.09l-14.86 0Z" id="p151w212" />
<path d="M217.62 730.71l15.89 0l0 15.09l-15.89 0Z" id="p151w213" />
<path d="M237.11 730.71l45.88 0l0 15.09l-45.88 0Z" id="p151w214" />
<path d="M286.6 730.71l19.84 0l0 15.09l-19.84 0Z" id="p151w215" />
<path d="M310.06 730.71l19.29 0l0 15.09l-19.29 0Z" id="p151w216" />
<path d="M332.96 730.71l45.77 0l0 15.09l-45.77 0Z" id="p151w217" />
<path d="M382.34 730.71l11.26 0l0 15.09l-11.26 0Z" id="p151w218" />
<path d="M397.21 730.71l14.86 0l0 15.09l-14.86 0Z" id="p151w219" />
<path d="M415.68 730.71l15.89 0l0 15.09l-15.89 0Z" id="p151w220" />
<path d="M435.17 730.71l45.77 0l0 15.09l-45.77 0Z" id="p151w221" />
<path d="M484.55 730.71l19.84 0l0 15.09l-19.84 0Z" id="p151w222" />
<path d="M508.01 730.71l19.29 0l0 15.09l-19.29 0Z" id="p151w223" />
<path d="M530.91 730.71l45.88 0l0 15.09l-45.88 0Z" id="p151w224" />
<path d="M135.88 747.38l18.02 0l0 15.09l-18.02 0Z" id="p151w225" />
<path d="M157.51 747.38l19.46 0l0 15.09l-19.46 0Z" id="p151w226" />
<path d="M180.58 747.38l39.76 0l0 15.09l-39.76 0Z" id="p151w227" />
<path d="M223.95 747.38l14.39 0l0 15.09l-14.39 0Z" id="p151w228" />
<path d="M241.96 747.38l74.16 0l0 15.09l-74.16 0Z" id="p151w229" />
<path d="M319.72 747.38l35.7 0l0 15.09l-35.7 0Z" id="p151w230" />
<path d="M359.04 747.38l56.2 0l0 15.09l-56.2 0Z" id="p151w231" />
<path d="M418.85 747.38l11.26 0l0 15.09l-11.26 0Z" id="p151w232" />
<path d="M433.72 747.38l28.7 0l0 15.09l-28.7 0Z" id="p151w233" />
<path d="M466.03 747.38l53.97 0l0 15.09l-53.97 0Z" id="p151w234" />
<path d="M135.88 764.05l10.63 0l0 15.09l-10.63 0Z" id="p151w235" />
<path d="M150.12 764.05l60.24 0l0 15.09l-60.24 0Z" id="p151w236" />
<path d="M224.07 764.05l53.52 0l0 15.09l-53.52 0Z" id="p151w237" />
<path d="M281.19 764.05l23.09 0l0 15.09l-23.09 0Z" id="p151w238" />
<path d="M307.9 764.05l15.89 0l0 15.09l-15.89 0Z" id="p151w239" />
<path d="M327.4 764.05l43.65 0l0 15.09l-43.65 0Z" id="p151w240" />
<path d="M374.65 764.05l61.3 0l0 15.09l-61.3 0Z" id="p151w241" />
<path d="M143.75 831.11l27.53 0l0 14.52l-27.53 0Z" id="p151w242" />
<path d="M174.49 831.11l17.11 0l0 14.52l-17.11 0Z" id="p151w243" />
<path d="M194.81 831.11l35.81 0l0 14.52l-35.81 0Z" id="p151w244" />
<path d="M233.83 831.11l14.18 0l0 14.52l-14.18 0Z" id="p151w245" />
<path d="M251.21 831.11l28.33 0l0 14.52l-28.33 0Z" id="p151w246" />
<path d="M282.74 831.11l13.9 0l0 14.52l-13.9 0Z" id="p151w247" />
<path d="M299.85 831.11l9.89 0l0 14.52l-9.89 0Z" id="p151w248" />
<path d="M312.94 831.11l46.79 0l0 14.52l-46.79 0Z" id="p151w249" />
<path d="M362.94 831.11l11.22 0l0 14.52l-11.22 0Z" id="p151w250" />
<path d="M377.37 831.11l50 0l0 14.52l-50 0Z" id="p151w251" />
<path d="M430.57 831.11l15.5 0l0 14.52l-15.5 0Z" id="p151w252" />
<path d="M449.28 831.11l28.06 0l0 14.52l-28.06 0Z" id="p151w253" />
<path d="M143.75 847.78l50.28 0l0 14.52l-50.28 0Z" id="p151w254" />
<path d="M197.24 847.78l26.73 0l0 14.52l-26.73 0Z" id="p151w255" />
<path d="M227.17 847.78l9.89 0l0 14.52l-9.89 0Z" id="p151w256" />
<path d="M240.27 847.78l69.24 0l0 14.52l-69.24 0Z" id="p151w257" />
<path d="M143.75 872.79l22.19 0l0 14.52l-22.19 0Z" id="p151w258" />
<path d="M169.15 872.79l14.97 0l0 14.52l-14.97 0Z" id="p151w259" />
<path d="M187.32 872.79l33.68 0l0 14.52l-33.68 0Z" id="p151w260" />
<path d="M224.22 872.79l31.55 0l0 14.52l-31.55 0Z" id="p151w261" />
<path d="M258.97 872.79l41.42 0l0 14.52l-41.42 0Z" id="p151w262" />
<path d="M303.6 872.79l17.11 0l0 14.52l-17.11 0Z" id="p151w263" />
<path d="M323.91 872.79l72.53 0l0 14.52l-72.53 0Z" id="p151w264" />
<path d="M399.65 872.79l13.9 0l0 14.52l-13.9 0Z" id="p151w265" />
<path d="M416.76 872.79l50.78 0l0 14.52l-50.78 0Z" id="p151w266" />
<path d="M143.75 889.46l11.5 0l0 14.52l-11.5 0Z" id="p151w267" />
<path d="M158.46 889.46l17.11 0l0 14.52l-17.11 0Z" id="p151w268" />
<path d="M178.77 889.46l15.5 0l0 14.52l-15.5 0Z" id="p151w269" />
<path d="M197.48 889.46l57.75 0l0 14.52l-57.75 0Z" id="p151w270" />
<path d="M266.72 889.46l32.62 0l0 14.52l-32.62 0Z" id="p151w271" />
<path d="M302.54 889.46l26.73 0l0 14.52l-26.73 0Z" id="p151w272" />
<path d="M332.48 889.46l14.18 0l0 14.52l-14.18 0Z" id="p151w273" />
<path d="M349.86 889.46l41.96 0l0 14.52l-41.96 0Z" id="p151w274" />
<path d="M395.03 889.46l15.5 0l0 14.52l-15.5 0Z" id="p151w275" />
<path d="M413.73 889.46l28.06 0l0 14.52l-28.06 0Z" id="p151w276" />
<path d="M445 889.46l17.38 0l0 14.52l-17.38 0Z" id="p151w277" />
<path d="M143.75 906.14l12.29 0l0 14.52l-12.29 0Z" id="p151w278" />
<path d="M159.25 906.14l59.87 0l0 14.52l-59.87 0Z" id="p151w279" />
<path d="M232.22 906.14l18.18 0l0 14.52l-18.18 0Z" id="p151w280" />
<path d="M253.6 906.14l26.74 0l0 14.52l-26.74 0Z" id="p151w281" />
<path d="M283.55 906.14l44.9 0l0 14.52l-44.9 0Z" id="p151w282" />
<path d="M72.89 832.88l15.07 0l0 12.29l-15.07 0Z" id="p151w283" />
<path d="M499.64 877.08l89.95 0l0 16.96l-89.95 0Z" id="p151w284" />
<path d="M610.34 877.08l18.28 0l0 16.96l-18.28 0Z" id="p151w285" />
<path d="M633.27 877.08l66.18 0l0 16.96l-66.18 0Z" id="p151w286" />
<path d="M630.54 101l20.81 0l0 12.56l-20.81 0Z" id="p151w287" />
<path d="M654.05 101l31.57 0l0 12.56l-31.57 0Z" id="p151w288" />
<path d="M338.92 119.77l35.87 0l0 15.37l-35.87 0Z" id="p151w289" />
<path d="M378.17 119.77l33.08 0l0 15.37l-33.08 0Z" id="p151w290" />
<path d="M414.63 119.77l44.13 0l0 15.37l-44.13 0Z" id="p151w291" />
<path d="M338.92 141.06l14.97 0l0 14.52l-14.97 0Z" id="p151w292" />
<path d="M357.1 141.06l19.79 0l0 14.52l-19.79 0Z" id="p151w293" />
<path d="M380.09 141.06l20.31 0l0 14.52l-20.31 0Z" id="p151w294" />
<path d="M403.61 141.06l25.13 0l0 14.52l-25.13 0Z" id="p151w295" />
<path d="M431.95 141.06l37.16 0l0 14.52l-37.16 0Z" id="p151w296" />
<path d="M472.31 141.06l51.32 0l0 14.52l-51.32 0Z" id="p151w297" />
<path d="M526.84 141.06l33.68 0l0 14.52l-33.68 0Z" id="p151w298" />
<path d="M338.92 157.73l31.55 0l0 14.52l-31.55 0Z" id="p151w299" />
<path d="M373.67 157.73l41.42 0l0 14.52l-41.42 0Z" id="p151w300" />
<path d="M418.3 157.73l24.85 0l0 14.52l-24.85 0Z" id="p151w301" />
<path d="M446.36 157.73l21.37 0l0 14.52l-21.37 0Z" id="p151w302" />
<path d="M470.94 157.73l16.04 0l0 14.52l-16.04 0Z" id="p151w303" />
<path d="M490.18 157.73l19.51 0l0 14.52l-19.51 0Z" id="p151w304" />
<path d="M512.9 157.73l33.94 0l0 14.52l-33.94 0Z" id="p151w305" />
<path d="M338.92 174.41l13.9 0l0 14.52l-13.9 0Z" id="p151w306" />
<path d="M356.03 174.41l55.08 0l0 14.52l-55.08 0Z" id="p151w307" />
<path d="M414.32 174.41l20.05 0l0 14.52l-20.05 0Z" id="p151w308" />
<path d="M437.57 174.41l13.9 0l0 14.52l-13.9 0Z" id="p151w309" />
<path d="M454.68 174.41l31.55 0l0 14.52l-31.55 0Z" id="p151w310" />
<path d="M489.43 174.41l6.41 0l0 14.52l-6.41 0Z" id="p151w311" />
<path d="M508.94 174.41l14.18 0l0 14.52l-14.18 0Z" id="p151w312" />
<path d="M526.32 174.41l30.94 0l0 14.52l-30.94 0Z" id="p151w313" />
<path d="M338.92 191.08l47.32 0l0 14.52l-47.32 0Z" id="p151w314" />
<path d="M415.37 191.08l19.51 0l0 14.52l-19.51 0Z" id="p151w315" />
<path d="M438.09 191.08l11.22 0l0 14.52l-11.22 0Z" id="p151w316" />
<path d="M452.51 191.08l15.5 0l0 14.52l-15.5 0Z" id="p151w317" />
<path d="M471.22 191.08l53.46 0l0 14.52l-53.46 0Z" id="p151w318" />
<path d="M527.88 191.08l13.37 0l0 14.52l-13.37 0Z" id="p151w319" />
<path d="M338.92 207.75l34.48 0l0 14.52l-34.48 0Z" id="p151w320" />
<path d="M376.6 207.75l22.99 0l0 14.52l-22.99 0Z" id="p151w321" />
<path d="M402.81 207.75l13.9 0l0 14.52l-13.9 0Z" id="p151w322" />
<path d="M419.91 207.75l64.14 0l0 14.52l-64.14 0Z" id="p151w323" />
<path d="M487.25 207.75l25.67 0l0 14.52l-25.67 0Z" id="p151w324" />
<path d="M516.13 207.75l26.45 0l0 14.52l-26.45 0Z" id="p151w325" />
<path d="M338.92 224.42l13.63 0l0 14.52l-13.63 0Z" id="p151w326" />
<path d="M355.76 224.42l25.67 0l0 14.52l-25.67 0Z" id="p151w327" />
<path d="M384.64 224.42l23.97 0l0 14.52l-23.97 0Z" id="p151w328" />
<path d="M411.82 224.42l16.58 0l0 14.52l-16.58 0Z" id="p151w329" />
<path d="M431.6 224.42l6.41 0l0 14.52l-6.41 0Z" id="p151w330" />
<path d="M441.23 224.42l55.86 0l0 14.52l-55.86 0Z" id="p151w331" />
<path d="M500.29 224.42l14.18 0l0 14.52l-14.18 0Z" id="p151w332" />
<path d="M517.68 224.42l28.34 0l0 14.52l-28.34 0Z" id="p151w333" />
<path d="M338.92 241.09l6.41 0l0 14.52l-6.41 0Z" id="p151w334" />
<path d="M348.54 241.09l61.22 0l0 14.52l-61.22 0Z" id="p151w335" />
<path d="M412.97 241.09l12.29 0l0 14.52l-12.29 0Z" id="p151w336" />
<path d="M428.46 241.09l42.75 0l0 14.52l-42.75 0Z" id="p151w337" />
<path d="M474.42 241.09l13.9 0l0 14.52l-13.9 0Z" id="p151w338" />
<path d="M491.53 241.09l44.63 0l0 14.52l-44.63 0Z" id="p151w339" />
<path d="M338.92 257.76l11.22 0l0 14.52l-11.22 0Z" id="p151w340" />
<path d="M353.35 257.76l41.71 0l0 14.52l-41.71 0Z" id="p151w341" />
<path d="M398.26 257.76l20.58 0l0 14.52l-20.58 0Z" id="p151w342" />
<path d="M422.05 257.76l9.89 0l0 14.52l-9.89 0Z" id="p151w343" />
<path d="M435.14 257.76l39.31 0l0 14.52l-39.31 0Z" id="p151w344" />
<path d="M334.15 786.06l21.07 0l0 11.42l-21.07 0Z" id="p151w345" />
<path d="M367.24 786.06l43.19 0l0 11.42l-43.19 0Z" id="p151w346" />
<path d="M413.16 786.06l30.83 0l0 11.42l-30.83 0Z" id="p151w347" />
<path d="M446.73 786.06l29.4 0l0 11.42l-29.4 0Z" id="p151w348" />
<path d="M478.86 786.06l26.39 0l0 11.42l-26.39 0Z" id="p151w349" />
<path d="M507.98 786.06l37.92 0l0 11.42l-37.92 0Z" id="p151w350" />
<path d="M323.38 797.17l30.66 0l0 11.42l-30.66 0Z" id="p151w351" />
<path d="M356.76 797.17l15.98 0l0 11.42l-15.98 0Z" id="p151w352" />
<path d="M375.48 797.17l39.56 0l0 11.42l-39.56 0Z" id="p151w353" />
<path d="M417.77 797.17l55.56 0l0 11.42l-55.56 0Z" id="p151w354" />
<path d="M476.07 797.17l14.24 0l0 11.42l-14.24 0Z" id="p151w355" />
<path d="M493.04 797.17l42.44 0l0 11.42l-42.44 0Z" id="p151w356" />
<path d="M538.22 797.17l26.04 0l0 11.42l-26.04 0Z" id="p151w357" />
<path d="M566.98 797.17l47.14 0l0 11.42l-47.14 0Z" id="p151w358" />
<path d="M616.86 797.17l46.37 0l0 11.42l-46.37 0Z" id="p151w359" />
<path d="M665.96 797.17l28.97 0l0 11.42l-28.97 0Z" id="p151w360" />
<path d="M68.27 38.6l16.59 0l0 16.09l-16.59 0Z" id="p151w361" />
<path d="M88.23 38.6l28.66 0l0 16.09l-28.66 0Z" id="p151w362" />
<path d="M131.1 38.6l99.65 0l0 16.09l-99.65 0Z" id="p151w363" />
<path d="M600.98 983l90.12 0l0 12.23l-90.12 0Z" id="p151w364" />
</svg>
