<?xml version="1.0" encoding="UTF-8"?>
<svg xmlns="http://www.w3.org/2000/svg" xmlns:xlink="http://www.w3.org/1999/xlink" version="1.1" baseProfile="full" width="768" height="1024" viewBox="0,0,768,1024" preserveAspectRatio="xMinYMin meet" >
<style type="text/css">
<![CDATA[
path {fill-opacity: 0.5;fill: #00aeef;visibility: hidden;}
]]>
</style>
<path d="M124.06 107.98l18.36 0l0 18.84l-18.36 0Z" id="p148w1" />
<path d="M146.07 107.98l56.09 0l0 18.84l-56.09 0Z" id="p148w2" />
<path d="M124.06 138.9l27.04 0l0 15.09l-27.04 0Z" id="p148w3" />
<path d="M154.71 138.9l15.89 0l0 15.09l-15.89 0Z" id="p148w4" />
<path d="M174.21 138.9l23.45 0l0 15.09l-23.45 0Z" id="p148w5" />
<path d="M201.28 138.9l10.5 0l0 15.09l-10.5 0Z" id="p148w6" />
<path d="M226.08 138.9l61.5 0l0 15.09l-61.5 0Z" id="p148w7" />
<path d="M291.19 138.9l26.3 0l0 15.09l-26.3 0Z" id="p148w8" />
<path d="M321.1 138.9l10.42 0l0 15.09l-10.42 0Z" id="p148w9" />
<path d="M335.13 138.9l22.36 0l0 15.09l-22.36 0Z" id="p148w10" />
<path d="M361.1 138.9l19.29 0l0 15.09l-19.29 0Z" id="p148w11" />
<path d="M384.01 138.9l51.5 0l0 15.09l-51.5 0Z" id="p148w12" />
<path d="M449.22 138.9l31.06 0l0 15.09l-31.06 0Z" id="p148w13" />
<path d="M483.89 138.9l21.96 0l0 15.09l-21.96 0Z" id="p148w14" />
<path d="M519.57 138.9l14.29 0l0 15.09l-14.29 0Z" id="p148w15" />
<path d="M537.47 138.9l22.13 0l0 15.09l-22.13 0Z" id="p148w16" />
<path d="M563.21 138.9l27.82 0l0 15.09l-27.82 0Z" id="p148w17" />
<path d="M594.65 138.9l10.42 0l0 15.09l-10.42 0Z" id="p148w18" />
<path d="M124.06 155.57l53.99 0l0 15.09l-53.99 0Z" id="p148w19" />
<path d="M181.66 155.57l20.96 0l0 15.09l-20.96 0Z" id="p148w20" />
<path d="M206.24 155.57l14.59 0l0 15.09l-14.59 0Z" id="p148w21" />
<path d="M224.44 155.57l28.33 0l0 15.09l-28.33 0Z" id="p148w22" />
<path d="M256.37 155.57l27.82 0l0 15.09l-27.82 0Z" id="p148w23" />
<path d="M287.81 155.57l27.75 0l0 15.09l-27.75 0Z" id="p148w24" />
<path d="M319.17 155.57l10.42 0l0 15.09l-10.42 0Z" id="p148w25" />
<path d="M333.2 155.57l8.21 0l0 15.09l-8.21 0Z" id="p148w26" />
<path d="M353.05 155.57l13.91 0l0 15.09l-13.91 0Z" id="p148w27" />
<path d="M370.56 155.57l61.96 0l0 15.09l-61.96 0Z" id="p148w28" />
<path d="M436.13 155.57l13.91 0l0 15.09l-13.91 0Z" id="p148w29" />
<path d="M453.65 155.57l33.95 0l0 15.09l-33.95 0Z" id="p148w30" />
<path d="M491.22 155.57l13.07 0l0 15.09l-13.07 0Z" id="p148w31" />
<path d="M507.9 155.57l21.81 0l0 15.09l-21.81 0Z" id="p148w32" />
<path d="M533.32 155.57l15.06 0l0 15.09l-15.06 0Z" id="p148w33" />
<path d="M562.69 155.57l61.5 0l0 15.09l-61.5 0Z" id="p148w34" />
<path d="M124.06 172.24l15.89 0l0 15.09l-15.89 0Z" id="p148w35" />
<path d="M143.56 172.24l55.15 0l0 15.09l-55.15 0Z" id="p148w36" />
<path d="M202.32 172.24l13.91 0l0 15.09l-13.91 0Z" id="p148w37" />
<path d="M219.83 172.24l27.9 0l0 15.09l-27.9 0Z" id="p148w38" />
<path d="M251.35 172.24l11.26 0l0 15.09l-11.26 0Z" id="p148w39" />
<path d="M266.22 172.24l19.29 0l0 15.09l-19.29 0Z" id="p148w40" />
<path d="M289.12 172.24l50.96 0l0 15.09l-50.96 0Z" id="p148w41" />
<path d="M343.69 172.24l47.26 0l0 15.09l-47.26 0Z" id="p148w42" />
<path d="M394.56 172.24l19.29 0l0 15.09l-19.29 0Z" id="p148w43" />
<path d="M417.46 172.24l44.99 0l0 15.09l-44.99 0Z" id="p148w44" />
<path d="M468.65 172.25l21.42 0l0 15.09l-21.42 0Z" id="p148w45" />
<path d="M493.68 172.25l47.72 0l0 15.09l-47.72 0Z" id="p148w46" />
<path d="M545.02 172.25l11.26 0l0 15.09l-11.26 0Z" id="p148w47" />
<path d="M559.89 172.25l62.73 0l0 15.09l-62.73 0Z" id="p148w48" />
<path d="M124.07 188.92l27.71 0l0 15.09l-27.71 0Z" id="p148w49" />
<path d="M155.39 188.92l10.42 0l0 15.09l-10.42 0Z" id="p148w50" />
<path d="M169.42 188.92l28.17 0l0 15.09l-28.17 0Z" id="p148w51" />
<path d="M124.07 205.59l20.47 0l0 15.09l-20.47 0Z" id="p148w52" />
<path d="M148.15 205.59l55.12 0l0 15.09l-55.12 0Z" id="p148w53" />
<path d="M206.88 205.59l44.61 0l0 15.09l-44.61 0Z" id="p148w54" />
<path d="M255.1 205.59l28.61 0l0 15.09l-28.61 0Z" id="p148w55" />
<path d="M287.32 205.59l22.36 0l0 15.09l-22.36 0Z" id="p148w56" />
<path d="M313.3 205.59l16.64 0l0 15.09l-16.64 0Z" id="p148w57" />
<path d="M333.55 205.59l49.45 0l0 15.09l-49.45 0Z" id="p148w58" />
<path d="M386.62 205.59l15.74 0l0 15.09l-15.74 0Z" id="p148w59" />
<path d="M405.97 205.59l34.12 0l0 15.09l-34.12 0Z" id="p148w60" />
<path d="M443.71 205.59l65.7 0l0 15.09l-65.7 0Z" id="p148w61" />
<path d="M520.27 205.59l48.18 0l0 15.09l-48.18 0Z" id="p148w62" />
<path d="M572.07 205.59l38.23 0l0 15.09l-38.23 0Z" id="p148w63" />
<path d="M124.06 222.26l33.16 0l0 15.09l-33.16 0Z" id="p148w64" />
<path d="M160.83 222.26l19.29 0l0 15.09l-19.29 0Z" id="p148w65" />
<path d="M183.73 222.26l42.5 0l0 15.09l-42.5 0Z" id="p148w66" />
<path d="M229.85 222.26l15.06 0l0 15.09l-15.06 0Z" id="p148w67" />
<path d="M248.52 222.26l41.09 0l0 15.09l-41.09 0Z" id="p148w68" />
<path d="M293.22 222.26l35.14 0l0 15.09l-35.14 0Z" id="p148w69" />
<path d="M331.97 222.26l59.3 0l0 15.09l-59.3 0Z" id="p148w70" />
<path d="M398.98 222.27l19.29 0l0 15.09l-19.29 0Z" id="p148w71" />
<path d="M421.88 222.27l58.78 0l0 15.09l-58.78 0Z" id="p148w72" />
<path d="M484.28 222.27l13.91 0l0 15.09l-13.91 0Z" id="p148w73" />
<path d="M501.8 222.27l46.11 0l0 15.09l-46.11 0Z" id="p148w74" />
<path d="M551.52 222.27l18.49 0l0 15.09l-18.49 0Z" id="p148w75" />
<path d="M573.62 222.27l15.89 0l0 15.09l-15.89 0Z" id="p148w76" />
<path d="M124.06 238.94l42.9 0l0 15.09l-42.9 0Z" id="p148w77" />
<path d="M170.57 238.94l19.29 0l0 15.09l-19.29 0Z" id="p148w78" />
<path d="M193.48 238.94l71.6 0l0 15.09l-71.6 0Z" id="p148w79" />
<path d="M268.69 238.94l13.91 0l0 15.09l-13.91 0Z" id="p148w80" />
<path d="M286.2 238.94l10.42 0l0 15.09l-10.42 0Z" id="p148w81" />
<path d="M300.24 238.94l28.57 0l0 15.09l-28.57 0Z" id="p148w82" />
<path d="M332.42 238.94l18.49 0l0 15.09l-18.49 0Z" id="p148w83" />
<path d="M354.52 238.94l15.89 0l0 15.09l-15.89 0Z" id="p148w84" />
<path d="M374.02 238.94l39.61 0l0 15.09l-39.61 0Z" id="p148w85" />
<path d="M417.24 238.94l27.23 0l0 15.09l-27.23 0Z" id="p148w86" />
<path d="M448.09 238.94l15.89 0l0 15.09l-15.89 0Z" id="p148w87" />
<path d="M467.58 238.94l25.06 0l0 15.09l-25.06 0Z" id="p148w88" />
<path d="M496.26 238.94l11.26 0l0 15.09l-11.26 0Z" id="p148w89" />
<path d="M511.13 238.94l10.5 0l0 15.09l-10.5 0Z" id="p148w90" />
<path d="M525.24 238.94l25.97 0l0 15.09l-25.97 0Z" id="p148w91" />
<path d="M554.82 238.94l15.06 0l0 15.09l-15.06 0Z" id="p148w92" />
<path d="M573.5 238.94l37.87 0l0 15.09l-37.87 0Z" id="p148w93" />
<path d="M124.06 255.6l11.26 0l0 15.09l-11.26 0Z" id="p148w94" />
<path d="M138.93 255.6l13.91 0l0 15.09l-13.91 0Z" id="p148w95" />
<path d="M156.45 255.6l10.42 0l0 15.09l-10.42 0Z" id="p148w96" />
<path d="M170.48 255.6l38.57 0l0 15.09l-38.57 0Z" id="p148w97" />
<path d="M212.66 255.6l15.89 0l0 15.09l-15.89 0Z" id="p148w98" />
<path d="M232.16 255.6l28.84 0l0 15.09l-28.84 0Z" id="p148w99" />
<path d="M264.61 255.6l8.01 0l0 15.09l-8.01 0Z" id="p148w100" />
<path d="M272.62 255.6l32.91 0l0 15.09l-32.91 0Z" id="p148w101" />
<path d="M313.25 255.61l13.91 0l0 15.09l-13.91 0Z" id="p148w102" />
<path d="M330.76 255.61l10.42 0l0 15.09l-10.42 0Z" id="p148w103" />
<path d="M344.8 255.61l28.17 0l0 15.09l-28.17 0Z" id="p148w104" />
<path d="M124.07 280.62l18.46 0l0 15.09l-18.46 0Z" id="p148w105" />
<path d="M146.13 280.62l42.5 0l0 15.09l-42.5 0Z" id="p148w106" />
<path d="M192.25 280.62l46.59 0l0 15.09l-46.59 0Z" id="p148w107" />
<path d="M242.44 280.62l46.19 0l0 15.09l-46.19 0Z" id="p148w108" />
<path d="M292.25 280.62l59.22 0l0 15.09l-59.22 0Z" id="p148w109" />
<path d="M369.28 280.62l19.29 0l0 15.09l-19.29 0Z" id="p148w110" />
<path d="M392.18 280.62l60.04 0l0 15.09l-60.04 0Z" id="p148w111" />
<path d="M455.84 280.62l14.86 0l0 15.09l-14.86 0Z" id="p148w112" />
<path d="M474.31 280.62l19.29 0l0 15.09l-19.29 0Z" id="p148w113" />
<path d="M497.21 280.62l29.34 0l0 15.09l-29.34 0Z" id="p148w114" />
<path d="M530.16 280.62l47.89 0l0 15.09l-47.89 0Z" id="p148w115" />
<path d="M581.66 280.62l13.91 0l0 15.09l-13.91 0Z" id="p148w116" />
<path d="M124.06 297.29l27.9 0l0 15.09l-27.9 0Z" id="p148w117" />
<path d="M172.81 297.29l47 0l0 15.09l-47 0Z" id="p148w118" />
<path d="M223.42 297.29l13.91 0l0 15.09l-13.91 0Z" id="p148w119" />
<path d="M240.94 297.29l84.73 0l0 15.09l-84.73 0Z" id="p148w120" />
<path d="M329.28 297.29l19.46 0l0 15.09l-19.46 0Z" id="p148w121" />
<path d="M352.35 297.29l54.02 0l0 15.09l-54.02 0Z" id="p148w122" />
<path d="M409.98 297.29l19.01 0l0 15.09l-19.01 0Z" id="p148w123" />
<path d="M432.6 297.29l44.38 0l0 15.09l-44.38 0Z" id="p148w124" />
<path d="M480.59 297.29l52.55 0l0 15.09l-52.55 0Z" id="p148w125" />
<path d="M536.75 297.29l15.06 0l0 15.09l-15.06 0Z" id="p148w126" />
<path d="M555.43 297.29l26.91 0l0 15.09l-26.91 0Z" id="p148w127" />
<path d="M585.95 297.29l37.55 0l0 15.09l-37.55 0Z" id="p148w128" />
<path d="M124.06 313.96l11.26 0l0 15.09l-11.26 0Z" id="p148w129" />
<path d="M138.93 313.96l13.91 0l0 15.09l-13.91 0Z" id="p148w130" />
<path d="M156.45 313.96l11.88 0l0 15.09l-11.88 0Z" id="p148w131" />
<path d="M171.94 313.96l28.03 0l0 15.09l-28.03 0Z" id="p148w132" />
<path d="M203.58 313.96l14.86 0l0 15.09l-14.86 0Z" id="p148w133" />
<path d="M222.05 313.96l25.88 0l0 15.09l-25.88 0Z" id="p148w134" />
<path d="M261.64 313.96l42.87 0l0 15.09l-42.87 0Z" id="p148w135" />
<path d="M308.13 313.96l13.91 0l0 15.09l-13.91 0Z" id="p148w136" />
<path d="M325.65 313.96l27.9 0l0 15.09l-27.9 0Z" id="p148w137" />
<path d="M357.16 313.96l11.26 0l0 15.09l-11.26 0Z" id="p148w138" />
<path d="M372.03 313.96l17.34 0l0 15.09l-17.34 0Z" id="p148w139" />
<path d="M392.98 313.96l58.86 0l0 15.09l-58.86 0Z" id="p148w140" />
<path d="M462.71 313.97l15.55 0l0 15.09l-15.55 0Z" id="p148w141" />
<path d="M481.87 313.97l31.89 0l0 15.09l-31.89 0Z" id="p148w142" />
<path d="M517.37 313.97l10.5 0l0 15.09l-10.5 0Z" id="p148w143" />
<path d="M531.48 313.97l53.4 0l0 15.09l-53.4 0Z" id="p148w144" />
<path d="M124.06 330.64l58.26 0l0 15.09l-58.26 0Z" id="p148w145" />
<path d="M185.93 330.64l56.19 0l0 15.09l-56.19 0Z" id="p148w146" />
<path d="M245.73 330.64l56.74 0l0 15.09l-56.74 0Z" id="p148w147" />
<path d="M306.08 330.64l11.26 0l0 15.09l-11.26 0Z" id="p148w148" />
<path d="M320.95 330.64l58.08 0l0 15.09l-58.08 0Z" id="p148w149" />
<path d="M382.64 330.64l10.42 0l0 15.09l-10.42 0Z" id="p148w150" />
<path d="M396.68 330.64l37.51 0l0 15.09l-37.51 0Z" id="p148w151" />
<path d="M437.8 330.64l13.91 0l0 15.09l-13.91 0Z" id="p148w152" />
<path d="M455.32 330.64l10.42 0l0 15.09l-10.42 0Z" id="p148w153" />
<path d="M469.36 330.64l65.2 0l0 15.09l-65.2 0Z" id="p148w154" />
<path d="M538.17 330.64l10.5 0l0 15.09l-10.5 0Z" id="p148w155" />
<path d="M552.28 330.64l36.63 0l0 15.09l-36.63 0Z" id="p148w156" />
<path d="M592.52 330.64l28.12 0l0 15.09l-28.12 0Z" id="p148w157" />
<path d="M124.06 347.3l72.79 0l0 15.09l-72.79 0Z" id="p148w158" />
<path d="M200.47 347.3l39.66 0l0 15.09l-39.66 0Z" id="p148w159" />
<path d="M243.74 347.3l50.79 0l0 15.09l-50.79 0Z" id="p148w160" />
<path d="M298.14 347.3l39.78 0l0 15.09l-39.78 0Z" id="p148w161" />
<path d="M341.53 347.3l17.34 0l0 15.09l-17.34 0Z" id="p148w162" />
<path d="M362.48 347.3l31.36 0l0 15.09l-31.36 0Z" id="p148w163" />
<path d="M124.06 706.06l51.89 0l0 14.52l-51.89 0Z" id="p148w164" />
<path d="M179.16 706.06l15.5 0l0 14.52l-15.5 0Z" id="p148w165" />
<path d="M197.86 706.06l38.5 0l0 14.52l-38.5 0Z" id="p148w166" />
<path d="M245.98 706.06l33.95 0l0 14.52l-33.95 0Z" id="p148w167" />
<path d="M283.14 706.06l16.83 0l0 14.52l-16.83 0Z" id="p148w168" />
<path d="M303.18 706.06l28.87 0l0 14.52l-28.87 0Z" id="p148w169" />
<path d="M335.25 706.06l32.89 0l0 14.52l-32.89 0Z" id="p148w170" />
<path d="M371.35 706.06l47.29 0l0 14.52l-47.29 0Z" id="p148w171" />
<path d="M123.71 739.41l42.53 0l0 14.52l-42.53 0Z" id="p148w172" />
<path d="M169.44 739.41l15.5 0l0 14.52l-15.5 0Z" id="p148w173" />
<path d="M188.14 739.41l38.5 0l0 14.52l-38.5 0Z" id="p148w174" />
<path d="M229.85 739.41l17.38 0l0 14.52l-17.38 0Z" id="p148w175" />
<path d="M250.44 739.41l81.27 0l0 14.52l-81.27 0Z" id="p148w176" />
<path d="M334.92 739.41l19.52 0l0 14.52l-19.52 0Z" id="p148w177" />
<path d="M357.65 739.41l58 0l0 14.52l-58 0Z" id="p148w178" />
<path d="M418.86 739.41l37.68 0l0 14.52l-37.68 0Z" id="p148w179" />
<path d="M459.75 739.41l26.73 0l0 14.52l-26.73 0Z" id="p148w180" />
<path d="M489.68 739.41l9.89 0l0 14.52l-9.89 0Z" id="p148w181" />
<path d="M502.78 739.41l31.01 0l0 14.52l-31.01 0Z" id="p148w182" />
<path d="M124.06 756.08l55.16 0l0 14.52l-55.16 0Z" id="p148w183" />
<path d="M182.43 756.08l6.41 0l0 14.52l-6.41 0Z" id="p148w184" />
<path d="M211.03 756.08l20.85 0l0 14.52l-20.85 0Z" id="p148w185" />
<path d="M235.09 756.08l32.89 0l0 14.52l-32.89 0Z" id="p148w186" />
<path d="M271.19 756.08l13.9 0l0 14.52l-13.9 0Z" id="p148w187" />
<path d="M288.3 756.08l22.99 0l0 14.52l-22.99 0Z" id="p148w188" />
<path d="M124.06 789.42l51.33 0l0 14.52l-51.33 0Z" id="p148w189" />
<path d="M178.6 789.42l19.51 0l0 14.52l-19.51 0Z" id="p148w190" />
<path d="M201.32 789.42l38.5 0l0 14.52l-38.5 0Z" id="p148w191" />
<path d="M243.03 789.42l19.51 0l0 14.52l-19.51 0Z" id="p148w192" />
<path d="M265.74 789.42l25.94 0l0 14.52l-25.94 0Z" id="p148w193" />
<path d="M294.89 789.42l45.8 0l0 14.52l-45.8 0Z" id="p148w194" />
<path d="M343.9 789.42l13.9 0l0 14.52l-13.9 0Z" id="p148w195" />
<path d="M361 789.42l28.27 0l0 14.52l-28.27 0Z" id="p148w196" />
<path d="M392.48 789.42l25.4 0l0 14.52l-25.4 0Z" id="p148w197" />
<path d="M421.09 789.42l11.22 0l0 14.52l-11.22 0Z" id="p148w198" />
<path d="M435.51 789.42l25.12 0l0 14.52l-25.12 0Z" id="p148w199" />
<path d="M463.84 789.42l72.17 0l0 14.52l-72.17 0Z" id="p148w200" />
<path d="M124.06 806.09l11.22 0l0 14.52l-11.22 0Z" id="p148w201" />
<path d="M138.49 806.09l30.99 0l0 14.52l-30.99 0Z" id="p148w202" />
<path d="M172.69 806.09l20.85 0l0 14.52l-20.85 0Z" id="p148w203" />
<path d="M196.75 806.09l18.44 0l0 14.52l-18.44 0Z" id="p148w204" />
<path d="M215.19 806.09l19.79 0l0 14.52l-19.79 0Z" id="p148w205" />
<path d="M238.18 806.09l17.11 0l0 14.52l-17.11 0Z" id="p148w206" />
<path d="M258.5 806.09l9.89 0l0 14.52l-9.89 0Z" id="p148w207" />
<path d="M271.59 806.09l22.17 0l0 14.52l-22.17 0Z" id="p148w208" />
<path d="M296.97 806.09l19.51 0l0 14.52l-19.51 0Z" id="p148w209" />
<path d="M319.69 806.09l50.51 0l0 14.52l-50.51 0Z" id="p148w210" />
<path d="M72.89 741.18l15.07 0l0 12.29l-15.07 0Z" id="p148w211" />
<path d="M128.98 859.53l9.89 0l0 14.52l-9.89 0Z" id="p148w212" />
<path d="M142.08 859.53l40.88 0l0 14.52l-40.88 0Z" id="p148w213" />
<path d="M186.16 859.53l19.51 0l0 14.52l-19.51 0Z" id="p148w214" />
<path d="M208.88 859.53l49.97 0l0 14.52l-49.97 0Z" id="p148w215" />
<path d="M276.57 859.53l9.89 0l0 14.52l-9.89 0Z" id="p148w216" />
<path d="M289.67 859.53l29.67 0l0 14.52l-29.67 0Z" id="p148w217" />
<path d="M322.55 859.53l52.14 0l0 14.52l-52.14 0Z" id="p148w218" />
<path d="M392.41 859.53l9.89 0l0 14.52l-9.89 0Z" id="p148w219" />
<path d="M405.5 859.53l29.67 0l0 14.52l-29.67 0Z" id="p148w220" />
<path d="M438.38 859.53l19.51 0l0 14.52l-19.51 0Z" id="p148w221" />
<path d="M461.1 859.53l46.53 0l0 14.52l-46.53 0Z" id="p148w222" />
<path d="M128.98 834.52l9.89 0l0 14.52l-9.89 0Z" id="p148w223" />
<path d="M142.08 834.52l29.67 0l0 14.52l-29.67 0Z" id="p148w224" />
<path d="M174.96 834.52l19.51 0l0 14.52l-19.51 0Z" id="p148w225" />
<path d="M197.32 834.52l47.32 0l0 14.52l-47.32 0Z" id="p148w226" />
<path d="M262.36 834.52l15.5 0l0 14.52l-15.5 0Z" id="p148w227" />
<path d="M281.06 834.52l29.67 0l0 14.52l-29.67 0Z" id="p148w228" />
<path d="M313.94 834.52l13.9 0l0 14.52l-13.9 0Z" id="p148w229" />
<path d="M331.05 834.52l34.49 0l0 14.52l-34.49 0Z" id="p148w230" />
<path d="M383.26 834.52l9.89 0l0 14.52l-9.89 0Z" id="p148w231" />
<path d="M396.35 834.52l59.07 0l0 14.52l-59.07 0Z" id="p148w232" />
<path d="M458.63 834.52l56.59 0l0 14.52l-56.59 0Z" id="p148w233" />
<path d="M134.83 901.74l18.78 0l0 13.06l-18.78 0Z" id="p148w234" />
<path d="M156.48 901.74l34.23 0l0 13.06l-34.23 0Z" id="p148w235" />
<path d="M193.57 901.8l21.28 0l0 12.99l-21.28 0Z" id="p148w236" />
<path d="M217.73 901.8l27.35 0l0 12.99l-27.35 0Z" id="p148w237" />
<path d="M273.26 901.74l44.71 0l0 13.06l-44.71 0Z" id="p148w238" />
<path d="M320.84 901.74l11.34 0l0 13.06l-11.34 0Z" id="p148w239" />
<path d="M335.05 901.8l20.66 0l0 12.99l-20.66 0Z" id="p148w240" />
<path d="M358.57 901.8l55.73 0l0 12.99l-55.73 0Z" id="p148w241" />
<path d="M442.48 901.74l12.8 0l0 13.06l-12.8 0Z" id="p148w242" />
<path d="M458.15 901.74l56.22 0l0 13.06l-56.22 0Z" id="p148w243" />
<path d="M517.24 901.8l15.31 0l0 12.99l-15.31 0Z" id="p148w244" />
<path d="M535.41 901.8l39.88 0l0 12.99l-39.88 0Z" id="p148w245" />
<path d="M603.47 901.74l39.99 0l0 13.06l-39.99 0Z" id="p148w246" />
<path d="M646.33 901.74l11.34 0l0 13.06l-11.34 0Z" id="p148w247" />
<path d="M124.06 917.08l20.66 0l0 12.99l-20.66 0Z" id="p148w248" />
<path d="M147.59 917.08l48.8 0l0 12.99l-48.8 0Z" id="p148w249" />
<path d="M224.56 917.02l12.8 0l0 13.06l-12.8 0Z" id="p148w250" />
<path d="M240.24 917.02l7.07 0l0 13.06l-7.07 0Z" id="p148w251" />
<path d="M247.31 917.02l23.66 0l0 13.06l-23.66 0Z" id="p148w252" />
<path d="M273.83 917.08l15.31 0l0 12.99l-15.31 0Z" id="p148w253" />
<path d="M292.01 917.08l24.64 0l0 12.99l-24.64 0Z" id="p148w254" />
<path d="M344.82 917.02l32.97 0l0 13.06l-32.97 0Z" id="p148w255" />
<path d="M380.67 917.02l50.56 0l0 13.06l-50.56 0Z" id="p148w256" />
<path d="M442.95 917.02l12.9 0l0 13.06l-12.9 0Z" id="p148w257" />
<path d="M466.16 917.02l11.34 0l0 13.06l-11.34 0Z" id="p148w258" />
<path d="M480.37 917.08l17.95 0l0 12.99l-17.95 0Z" id="p148w259" />
<path d="M508.49 917.08l20.66 0l0 12.99l-20.66 0Z" id="p148w260" />
<path d="M532.01 917.08l47.06 0l0 12.99l-47.06 0Z" id="p148w261" />
<path d="M606.53 917.02l12.8 0l0 13.06l-12.8 0Z" id="p148w262" />
<path d="M622.2 917.02l40.48 0l0 13.06l-40.48 0Z" id="p148w263" />
<path d="M673 917.02l18.78 0l0 13.06l-18.78 0Z" id="p148w264" />
<path d="M124.06 932.31l47.45 0l0 13.06l-47.45 0Z" id="p148w265" />
<path d="M174.38 932.36l15.31 0l0 12.99l-15.31 0Z" id="p148w266" />
<path d="M192.24 932.36l32.77 0l0 12.99l-32.77 0Z" id="p148w267" />
<path d="M235.18 932.36l21.28 0l0 12.99l-21.28 0Z" id="p148w268" />
<path d="M259.01 932.36l42.1 0l0 12.99l-42.1 0Z" id="p148w269" />
<path d="M124.06 38.6l16.59 0l0 16.09l-16.59 0Z" id="p148w270" />
<path d="M144.03 38.6l28.66 0l0 16.09l-28.66 0Z" id="p148w271" />
<path d="M186.89 38.6l99.65 0l0 16.09l-99.65 0Z" id="p148w272" />
<path d="M76.9 983l81.34 0l0 12.23l-81.34 0Z" id="p148w273" />
</svg>
