<?xml version="1.0" encoding="UTF-8"?>
<svg xmlns="http://www.w3.org/2000/svg" xmlns:xlink="http://www.w3.org/1999/xlink" version="1.1" baseProfile="full" width="768" height="1024" viewBox="0,0,768,1024" preserveAspectRatio="xMinYMin meet" >
<style type="text/css">
<![CDATA[
path {fill-opacity: 0.5;fill: #00aeef;visibility: hidden;}
]]>
</style>
<path d="M124.06 114.18l15.51 0l0 14.52l-15.51 0Z" id="p73w1" />
<path d="M142.78 114.18l45.7 0l0 14.52l-45.7 0Z" id="p73w2" />
<path d="M191.68 114.18l58.79 0l0 14.52l-58.79 0Z" id="p73w3" />
<path d="M253.68 114.18l40.35 0l0 14.52l-40.35 0Z" id="p73w4" />
<path d="M297.24 114.18l11.22 0l0 14.52l-11.22 0Z" id="p73w5" />
<path d="M311.66 114.18l12.29 0l0 14.52l-12.29 0Z" id="p73w6" />
<path d="M327.16 114.18l39.55 0l0 14.52l-39.55 0Z" id="p73w7" />
<path d="M379.8 114.18l53.47 0l0 14.52l-53.47 0Z" id="p73w8" />
<path d="M124.06 130.85l55.34 0l0 14.52l-55.34 0Z" id="p73w9" />
<path d="M192.5 130.85l17.9 0l0 14.52l-17.9 0Z" id="p73w10" />
<path d="M213.61 130.85l54 0l0 14.52l-54 0Z" id="p73w11" />
<path d="M270.81 130.85l18.44 0l0 14.52l-18.44 0Z" id="p73w12" />
<path d="M292.46 130.85l17.12 0l0 14.52l-17.12 0Z" id="p73w13" />
<path d="M326.91 130.85l13.91 0l0 14.52l-13.91 0Z" id="p73w14" />
<path d="M344.03 130.85l21.4 0l0 14.52l-21.4 0Z" id="p73w15" />
<path d="M124.07 147.52l40.63 0l0 14.52l-40.63 0Z" id="p73w16" />
<path d="M177.13 147.52l13.91 0l0 14.52l-13.91 0Z" id="p73w17" />
<path d="M194.25 147.46l13.9 0l0 14.6l-13.9 0Z" id="p73w18" />
<path d="M211.35 147.52l25.67 0l0 14.52l-25.67 0Z" id="p73w19" />
<path d="M240.23 147.52l56.39 0l0 14.52l-56.39 0Z" id="p73w20" />
<path d="M299.83 147.52l15.5 0l0 14.52l-15.5 0Z" id="p73w21" />
<path d="M318.53 147.52l38.48 0l0 14.52l-38.48 0Z" id="p73w22" />
<path d="M360.22 147.52l13.9 0l0 14.52l-13.9 0Z" id="p73w23" />
<path d="M377.32 147.52l26.4 0l0 14.52l-26.4 0Z" id="p73w24" />
<path d="M143.76 172.55l65.3 0l0 14.61l-65.3 0Z" id="p73w25" />
<path d="M143.76 197.55l26.21 0l0 14.52l-26.21 0Z" id="p73w26" />
<path d="M173.18 197.55l25.94 0l0 14.52l-25.94 0Z" id="p73w27" />
<path d="M199.12 197.55l17.11 0l0 14.52l-17.11 0Z" id="p73w28" />
<path d="M219.43 197.48l19.61 0l0 14.6l-19.61 0Z" id="p73w29" />
<path d="M242.25 197.48l68.57 0l0 14.6l-68.57 0Z" id="p73w30" />
<path d="M314.03 197.48l47.98 0l0 14.6l-47.98 0Z" id="p73w31" />
<path d="M143.75 214.22l26.21 0l0 14.52l-26.21 0Z" id="p73w32" />
<path d="M173.17 214.22l30.99 0l0 14.52l-30.99 0Z" id="p73w33" />
<path d="M207.37 214.22l15.5 0l0 14.52l-15.5 0Z" id="p73w34" />
<path d="M226.08 214.22l42.24 0l0 14.52l-42.24 0Z" id="p73w35" />
<path d="M271.52 214.15l26.85 0l0 14.6l-26.85 0Z" id="p73w36" />
<path d="M301.58 214.15l10.02 0l0 14.6l-10.02 0Z" id="p73w37" />
<path d="M314.8 214.15l44.94 0l0 14.6l-44.94 0Z" id="p73w38" />
<path d="M362.95 214.15l41.79 0l0 14.6l-41.79 0Z" id="p73w39" />
<path d="M143.75 230.89l26.21 0l0 14.52l-26.21 0Z" id="p73w40" />
<path d="M173.17 230.89l25.4 0l0 14.52l-25.4 0Z" id="p73w41" />
<path d="M201.78 230.89l38.69 0l0 14.52l-38.69 0Z" id="p73w42" />
<path d="M243.67 230.82l19.61 0l0 14.6l-19.61 0Z" id="p73w43" />
<path d="M266.49 230.82l58.91 0l0 14.6l-58.91 0Z" id="p73w44" />
<path d="M328.61 230.82l19.61 0l0 14.6l-19.61 0Z" id="p73w45" />
<path d="M351.43 230.82l53.19 0l0 14.6l-53.19 0Z" id="p73w46" />
<path d="M143.75 247.56l26.21 0l0 14.52l-26.21 0Z" id="p73w47" />
<path d="M173.17 247.56l39.29 0l0 14.52l-39.29 0Z" id="p73w48" />
<path d="M215.68 247.56l44.11 0l0 14.52l-44.11 0Z" id="p73w49" />
<path d="M272.9 247.5l28.84 0l0 14.6l-28.84 0Z" id="p73w50" />
<path d="M304.94 247.5l25.65 0l0 14.6l-25.65 0Z" id="p73w51" />
<path d="M143.75 264.23l26.21 0l0 14.52l-26.21 0Z" id="p73w52" />
<path d="M173.17 264.23l23.51 0l0 14.52l-23.51 0Z" id="p73w53" />
<path d="M199.89 264.23l25.38 0l0 14.52l-25.38 0Z" id="p73w54" />
<path d="M238.38 264.17l39.15 0l0 14.6l-39.15 0Z" id="p73w55" />
<path d="M143.75 280.91l26.21 0l0 14.52l-26.21 0Z" id="p73w56" />
<path d="M173.17 280.91l34.21 0l0 14.52l-34.21 0Z" id="p73w57" />
<path d="M210.6 280.91l54.55 0l0 14.52l-54.55 0Z" id="p73w58" />
<path d="M268.36 280.84l13.87 0l0 14.6l-13.87 0Z" id="p73w59" />
<path d="M285.44 280.84l28.84 0l0 14.6l-28.84 0Z" id="p73w60" />
<path d="M317.48 280.84l35.37 0l0 14.6l-35.37 0Z" id="p73w61" />
<path d="M124.06 314.25l32.97 0l0 14.52l-32.97 0Z" id="p73w62" />
<path d="M160.24 314.25l15.5 0l0 14.52l-15.5 0Z" id="p73w63" />
<path d="M178.94 314.25l43.29 0l0 14.52l-43.29 0Z" id="p73w64" />
<path d="M225.45 314.25l17.38 0l0 14.52l-17.38 0Z" id="p73w65" />
<path d="M246.04 314.25l24.87 0l0 14.52l-24.87 0Z" id="p73w66" />
<path d="M274.11 314.25l56.93 0l0 14.52l-56.93 0Z" id="p73w67" />
<path d="M334.25 314.25l40.63 0l0 14.52l-40.63 0Z" id="p73w68" />
<path d="M378.08 314.19l25.86 0l0 14.6l-25.86 0Z" id="p73w69" />
<path d="M409.83 314.19l25.4 0l0 14.6l-25.4 0Z" id="p73w70" />
<path d="M438.43 314.25l13.91 0l0 14.52l-13.91 0Z" id="p73w71" />
<path d="M455.55 314.19l31.28 0l0 14.6l-31.28 0Z" id="p73w72" />
<path d="M490.04 314.19l13.87 0l0 14.6l-13.87 0Z" id="p73w73" />
<path d="M143.75 339.27l40.35 0l0 14.52l-40.35 0Z" id="p73w74" />
<path d="M187.31 339.27l11.22 0l0 14.52l-11.22 0Z" id="p73w75" />
<path d="M201.74 339.27l12.29 0l0 14.52l-12.29 0Z" id="p73w76" />
<path d="M217.23 339.27l39.55 0l0 14.52l-39.55 0Z" id="p73w77" />
<path d="M259.99 339.27l24.87 0l0 14.52l-24.87 0Z" id="p73w78" />
<path d="M297.95 339.27l50.18 0l0 14.52l-50.18 0Z" id="p73w79" />
<path d="M143.75 355.94l12.83 0l0 14.52l-12.83 0Z" id="p73w80" />
<path d="M159.79 355.94l64.94 0l0 14.52l-64.94 0Z" id="p73w81" />
<path d="M227.94 355.94l21.92 0l0 14.52l-21.92 0Z" id="p73w82" />
<path d="M253.07 355.94l27.53 0l0 14.52l-27.53 0Z" id="p73w83" />
<path d="M283.81 355.94l20.85 0l0 14.52l-20.85 0Z" id="p73w84" />
<path d="M307.87 355.94l23.79 0l0 14.52l-23.79 0Z" id="p73w85" />
<path d="M143.75 372.61l15.77 0l0 14.52l-15.77 0Z" id="p73w86" />
<path d="M162.73 372.61l13.9 0l0 14.52l-13.9 0Z" id="p73w87" />
<path d="M179.84 372.61l25.4 0l0 14.52l-25.4 0Z" id="p73w88" />
<path d="M208.44 372.61l19.51 0l0 14.52l-19.51 0Z" id="p73w89" />
<path d="M231.16 372.61l24.31 0l0 14.52l-24.31 0Z" id="p73w90" />
<path d="M268.57 372.61l50.79 0l0 14.52l-50.79 0Z" id="p73w91" />
<path d="M143.75 389.28l15.77 0l0 14.52l-15.77 0Z" id="p73w92" />
<path d="M162.73 389.28l25.4 0l0 14.52l-25.4 0Z" id="p73w93" />
<path d="M191.34 389.28l40.09 0l0 14.52l-40.09 0Z" id="p73w94" />
<path d="M234.63 389.28l26.73 0l0 14.52l-26.73 0Z" id="p73w95" />
<path d="M264.57 389.28l9.89 0l0 14.52l-9.89 0Z" id="p73w96" />
<path d="M277.66 389.28l44.36 0l0 14.52l-44.36 0Z" id="p73w97" />
<path d="M325.23 389.28l52.67 0l0 14.52l-52.67 0Z" id="p73w98" />
<path d="M143.75 405.95l24.33 0l0 14.52l-24.33 0Z" id="p73w99" />
<path d="M181.17 405.95l67.55 0l0 14.52l-67.55 0Z" id="p73w100" />
<path d="M251.94 405.95l26.73 0l0 14.52l-26.73 0Z" id="p73w101" />
<path d="M281.87 405.95l9.89 0l0 14.52l-9.89 0Z" id="p73w102" />
<path d="M294.97 405.95l44.36 0l0 14.52l-44.36 0Z" id="p73w103" />
<path d="M342.54 405.95l19.51 0l0 14.52l-19.51 0Z" id="p73w104" />
<path d="M365.25 405.95l29.67 0l0 14.52l-29.67 0Z" id="p73w105" />
<path d="M426.34 355.94l25.67 0l0 14.52l-25.67 0Z" id="p73w106" />
<path d="M426.34 372.61l25.12 0l0 14.52l-25.12 0Z" id="p73w107" />
<path d="M426.34 389.28l31.1 0l0 14.52l-31.1 0Z" id="p73w108" />
<path d="M460.64 389.28l13.9 0l0 14.52l-13.9 0Z" id="p73w109" />
<path d="M507.41 339.27l43.23 0l0 14.52l-43.23 0Z" id="p73w110" />
<path d="M553.84 339.27l19.51 0l0 14.52l-19.51 0Z" id="p73w111" />
<path d="M576.56 339.27l75.55 0l0 14.52l-75.55 0Z" id="p73w112" />
<path d="M507.41 355.94l25.38 0l0 14.52l-25.38 0Z" id="p73w113" />
<path d="M536 355.94l9.89 0l0 14.52l-9.89 0Z" id="p73w114" />
<path d="M549.09 355.94l48.39 0l0 14.52l-48.39 0Z" id="p73w115" />
<path d="M600.69 355.94l18.99 0l0 14.52l-18.99 0Z" id="p73w116" />
<path d="M507.41 372.61l65.76 0l0 14.52l-65.76 0Z" id="p73w117" />
<path d="M586.26 372.61l42.49 0l0 14.52l-42.49 0Z" id="p73w118" />
<path d="M631.96 372.61l20.85 0l0 14.52l-20.85 0Z" id="p73w119" />
<path d="M656.02 372.61l18.99 0l0 14.52l-18.99 0Z" id="p73w120" />
<path d="M507.41 389.28l49 0l0 14.52l-49 0Z" id="p73w121" />
<path d="M559.61 389.28l26.73 0l0 14.52l-26.73 0Z" id="p73w122" />
<path d="M589.55 389.28l20.85 0l0 14.52l-20.85 0Z" id="p73w123" />
<path d="M613.61 389.28l59.89 0l0 14.52l-59.89 0Z" id="p73w124" />
<path d="M507.41 405.95l42.22 0l0 14.52l-42.22 0Z" id="p73w125" />
<path d="M552.84 405.95l19.51 0l0 14.52l-19.51 0Z" id="p73w126" />
<path d="M575.56 405.95l58.53 0l0 14.52l-58.53 0Z" id="p73w127" />
<path d="M637.29 405.95l56.66 0l0 14.52l-56.66 0Z" id="p73w128" />
<path d="M123.63 439.29l26.21 0l0 14.52l-26.21 0Z" id="p73w129" />
<path d="M153.05 439.29l35.28 0l0 14.52l-35.28 0Z" id="p73w130" />
<path d="M191.54 439.29l9.89 0l0 14.52l-9.89 0Z" id="p73w131" />
<path d="M204.63 439.29l36.88 0l0 14.52l-36.88 0Z" id="p73w132" />
<path d="M244.72 439.29l13.9 0l0 14.52l-13.9 0Z" id="p73w133" />
<path d="M261.82 439.29l9.89 0l0 14.52l-9.89 0Z" id="p73w134" />
<path d="M274.92 439.29l16.31 0l0 14.52l-16.31 0Z" id="p73w135" />
<path d="M304.32 439.29l53.47 0l0 14.52l-53.47 0Z" id="p73w136" />
<path d="M124.06 455.96l55.44 0l0 14.52l-55.44 0Z" id="p73w137" />
<path d="M182.71 455.96l15.5 0l0 14.52l-15.5 0Z" id="p73w138" />
<path d="M201.41 455.96l54 0l0 14.52l-54 0Z" id="p73w139" />
<path d="M258.62 455.96l20.85 0l0 14.52l-20.85 0Z" id="p73w140" />
<path d="M282.68 455.96l26.46 0l0 14.52l-26.46 0Z" id="p73w141" />
<path d="M312.35 455.96l9.89 0l0 14.52l-9.89 0Z" id="p73w142" />
<path d="M325.44 455.96l33.9 0l0 14.52l-33.9 0Z" id="p73w143" />
<path d="M124.06 472.63l40.63 0l0 14.52l-40.63 0Z" id="p73w144" />
<path d="M167.9 472.57l20.72 0l0 14.6l-20.72 0Z" id="p73w145" />
<path d="M191.65 472.57l17.62 0l0 14.6l-17.62 0Z" id="p73w146" />
<path d="M212.48 472.57l33.05 0l0 14.6l-33.05 0Z" id="p73w147" />
<path d="M248.74 472.57l20.96 0l0 14.6l-20.96 0Z" id="p73w148" />
<path d="M272.91 472.63l13.91 0l0 14.52l-13.91 0Z" id="p73w149" />
<path d="M290.03 472.57l49.54 0l0 14.6l-49.54 0Z" id="p73w150" />
<path d="M342.77 472.57l17.62 0l0 14.6l-17.62 0Z" id="p73w151" />
<path d="M368.8 472.57l20.96 0l0 14.6l-20.96 0Z" id="p73w152" />
<path d="M182.41 497.65l25.67 0l0 14.52l-25.67 0Z" id="p73w153" />
<path d="M211.29 497.65l31.01 0l0 14.52l-31.01 0Z" id="p73w154" />
<path d="M245.5 497.65l17.11 0l0 14.52l-17.11 0Z" id="p73w155" />
<path d="M265.81 497.65l33.43 0l0 14.52l-33.43 0Z" id="p73w156" />
<path d="M163.45 514.32l26.19 0l0 14.52l-26.19 0Z" id="p73w157" />
<path d="M192.85 514.32l9.89 0l0 14.52l-9.89 0Z" id="p73w158" />
<path d="M205.94 514.32l64.94 0l0 14.52l-64.94 0Z" id="p73w159" />
<path d="M274.09 514.32l13.9 0l0 14.52l-13.9 0Z" id="p73w160" />
<path d="M290.84 514.32l31.55 0l0 14.52l-31.55 0Z" id="p73w161" />
<path d="M182.41 531l25.67 0l0 14.52l-25.67 0Z" id="p73w162" />
<path d="M211.29 531l50.76 0l0 14.52l-50.76 0Z" id="p73w163" />
<path d="M265.26 531l13.63 0l0 14.52l-13.63 0Z" id="p73w164" />
<path d="M282.1 531l36.88 0l0 14.52l-36.88 0Z" id="p73w165" />
<path d="M163.45 547.67l49.89 0l0 14.52l-49.89 0Z" id="p73w166" />
<path d="M216.55 547.67l13.9 0l0 14.52l-13.9 0Z" id="p73w167" />
<path d="M233.66 547.67l9.89 0l0 14.52l-9.89 0Z" id="p73w168" />
<path d="M246.75 547.67l18.99 0l0 14.52l-18.99 0Z" id="p73w169" />
<path d="M182.41 564.35l25.67 0l0 14.52l-25.67 0Z" id="p73w170" />
<path d="M211.29 564.35l60.95 0l0 14.52l-60.95 0Z" id="p73w171" />
<path d="M275.45 564.35l32.6 0l0 14.52l-32.6 0Z" id="p73w172" />
<path d="M311.26 564.35l15.5 0l0 14.52l-15.5 0Z" id="p73w173" />
<path d="M329.96 564.35l30.74 0l0 14.52l-30.74 0Z" id="p73w174" />
<path d="M363.91 564.35l36.55 0l0 14.52l-36.55 0Z" id="p73w175" />
<path d="M163.45 581.02l15.77 0l0 14.52l-15.77 0Z" id="p73w176" />
<path d="M182.43 581.02l41.71 0l0 14.52l-41.71 0Z" id="p73w177" />
<path d="M227.35 581.02l31.82 0l0 14.52l-31.82 0Z" id="p73w178" />
<path d="M262.38 581.02l11.22 0l0 14.52l-11.22 0Z" id="p73w179" />
<path d="M276.81 581.02l20.33 0l0 14.52l-20.33 0Z" id="p73w180" />
<path d="M182.41 597.69l16.83 0l0 14.52l-16.83 0Z" id="p73w181" />
<path d="M202.44 597.69l28.87 0l0 14.52l-28.87 0Z" id="p73w182" />
<path d="M234.52 597.69l30.74 0l0 14.52l-30.74 0Z" id="p73w183" />
<path d="M268.47 597.69l40.61 0l0 14.52l-40.61 0Z" id="p73w184" />
<path d="M163.45 614.36l26.19 0l0 14.52l-26.19 0Z" id="p73w185" />
<path d="M192.85 614.36l31.03 0l0 14.52l-31.03 0Z" id="p73w186" />
<path d="M227.08 614.36l28.62 0l0 14.52l-28.62 0Z" id="p73w187" />
<path d="M129.62 649.85l27.54 0l0 18.84l-27.54 0Z" id="p73w188" />
<path d="M160.81 649.85l37.06 0l0 18.84l-37.06 0Z" id="p73w189" />
<path d="M201.53 649.85l21.46 0l0 18.84l-21.46 0Z" id="p73w190" />
<path d="M226.64 649.85l39.7 0l0 18.84l-39.7 0Z" id="p73w191" />
<path d="M129.62 681.06l50.43 0l0 14.52l-50.43 0Z" id="p73w192" />
<path d="M183.26 681.06l20.85 0l0 14.52l-20.85 0Z" id="p73w193" />
<path d="M207.32 681.06l25.67 0l0 14.52l-25.67 0Z" id="p73w194" />
<path d="M236.2 681.06l27.26 0l0 14.52l-27.26 0Z" id="p73w195" />
<path d="M266.67 681.06l13.9 0l0 14.52l-13.9 0Z" id="p73w196" />
<path d="M283.77 681.06l43.83 0l0 14.52l-43.83 0Z" id="p73w197" />
<path d="M149.31 706.07l15.25 0l0 14.52l-15.25 0Z" id="p73w198" />
<path d="M167.76 706.07l32.54 0l0 14.52l-32.54 0Z" id="p73w199" />
<path d="M203.51 706.07l38.23 0l0 14.52l-38.23 0Z" id="p73w200" />
<path d="M244.94 706.07l56.68 0l0 14.52l-56.68 0Z" id="p73w201" />
<path d="M304.83 706.07l22.08 0l0 14.52l-22.08 0Z" id="p73w202" />
<path d="M330.12 706.07l11.22 0l0 14.52l-11.22 0Z" id="p73w203" />
<path d="M344.54 706.07l38.69 0l0 14.52l-38.69 0Z" id="p73w204" />
<path d="M149.31 722.74l49.11 0l0 14.52l-49.11 0Z" id="p73w205" />
<path d="M201.63 722.74l21.12 0l0 14.52l-21.12 0Z" id="p73w206" />
<path d="M149.31 739.41l15.25 0l0 14.52l-15.25 0Z" id="p73w207" />
<path d="M167.76 739.41l44.63 0l0 14.52l-44.63 0Z" id="p73w208" />
<path d="M215.6 739.41l25.12 0l0 14.52l-25.12 0Z" id="p73w209" />
<path d="M243.92 739.41l14.18 0l0 14.52l-14.18 0Z" id="p73w210" />
<path d="M261.31 739.41l38.69 0l0 14.52l-38.69 0Z" id="p73w211" />
<path d="M303.2 739.41l31.01 0l0 14.52l-31.01 0Z" id="p73w212" />
<path d="M337.41 739.41l80.66 0l0 14.52l-80.66 0Z" id="p73w213" />
<path d="M421.28 739.41l43.57 0l0 14.52l-43.57 0Z" id="p73w214" />
<path d="M149.31 756.08l15.25 0l0 14.52l-15.25 0Z" id="p73w215" />
<path d="M167.76 756.08l44.63 0l0 14.52l-44.63 0Z" id="p73w216" />
<path d="M215.6 756.08l25.12 0l0 14.52l-25.12 0Z" id="p73w217" />
<path d="M243.92 756.08l14.18 0l0 14.52l-14.18 0Z" id="p73w218" />
<path d="M261.31 756.08l14.16 0l0 14.52l-14.16 0Z" id="p73w219" />
<path d="M278.68 756.08l47.04 0l0 14.52l-47.04 0Z" id="p73w220" />
<path d="M328.93 756.08l27.01 0l0 14.52l-27.01 0Z" id="p73w221" />
<path d="M359.14 756.08l42.17 0l0 14.52l-42.17 0Z" id="p73w222" />
<path d="M149.31 772.75l36.61 0l0 14.52l-36.61 0Z" id="p73w223" />
<path d="M189.13 772.75l30.46 0l0 14.52l-30.46 0Z" id="p73w224" />
<path d="M149.31 789.42l15.25 0l0 14.52l-15.25 0Z" id="p73w225" />
<path d="M167.76 789.42l46.78 0l0 14.52l-46.78 0Z" id="p73w226" />
<path d="M217.75 789.42l25.12 0l0 14.52l-25.12 0Z" id="p73w227" />
<path d="M246.08 789.42l14.18 0l0 14.52l-14.18 0Z" id="p73w228" />
<path d="M263.46 789.42l14.16 0l0 14.52l-14.16 0Z" id="p73w229" />
<path d="M280.83 789.42l38.75 0l0 14.52l-38.75 0Z" id="p73w230" />
<path d="M322.79 789.42l22.19 0l0 14.52l-22.19 0Z" id="p73w231" />
<path d="M348.19 789.42l32.89 0l0 14.52l-32.89 0Z" id="p73w232" />
<path d="M384.29 789.42l23.26 0l0 14.52l-23.26 0Z" id="p73w233" />
<path d="M410.75 789.42l33.84 0l0 14.52l-33.84 0Z" id="p73w234" />
<path d="M149.31 806.09l15.25 0l0 14.52l-15.25 0Z" id="p73w235" />
<path d="M167.76 806.09l32.54 0l0 14.52l-32.54 0Z" id="p73w236" />
<path d="M203.51 806.09l38.23 0l0 14.52l-38.23 0Z" id="p73w237" />
<path d="M244.94 806.09l56.68 0l0 14.52l-56.68 0Z" id="p73w238" />
<path d="M304.83 806.09l14.18 0l0 14.52l-14.18 0Z" id="p73w239" />
<path d="M322.21 806.09l11.22 0l0 14.52l-11.22 0Z" id="p73w240" />
<path d="M336.64 806.09l53.73 0l0 14.52l-53.73 0Z" id="p73w241" />
<path d="M393.58 806.09l27.47 0l0 14.52l-27.47 0Z" id="p73w242" />
<path d="M149.31 822.76l15.25 0l0 14.52l-15.25 0Z" id="p73w243" />
<path d="M167.76 822.76l32.27 0l0 14.52l-32.27 0Z" id="p73w244" />
<path d="M203.24 822.76l25.12 0l0 14.52l-25.12 0Z" id="p73w245" />
<path d="M231.57 822.76l14.18 0l0 14.52l-14.18 0Z" id="p73w246" />
<path d="M248.95 822.76l17.11 0l0 14.52l-17.11 0Z" id="p73w247" />
<path d="M269.27 822.76l39.56 0l0 14.52l-39.56 0Z" id="p73w248" />
<path d="M312.03 822.76l21.65 0l0 14.52l-21.65 0Z" id="p73w249" />
<path d="M149.31 839.43l15.25 0l0 14.52l-15.25 0Z" id="p73w250" />
<path d="M167.76 839.43l32.54 0l0 14.52l-32.54 0Z" id="p73w251" />
<path d="M203.51 839.43l38.23 0l0 14.52l-38.23 0Z" id="p73w252" />
<path d="M244.94 839.43l56.68 0l0 14.52l-56.68 0Z" id="p73w253" />
<path d="M304.83 839.43l22.08 0l0 14.52l-22.08 0Z" id="p73w254" />
<path d="M330.12 839.43l21.38 0l0 14.52l-21.38 0Z" id="p73w255" />
<path d="M354.71 839.43l10.43 0l0 14.52l-10.43 0Z" id="p73w256" />
<path d="M368.34 839.43l29.39 0l0 14.52l-29.39 0Z" id="p73w257" />
<path d="M400.94 839.43l29.94 0l0 14.52l-29.94 0Z" id="p73w258" />
<path d="M434.09 839.43l38.42 0l0 14.52l-38.42 0Z" id="p73w259" />
<path d="M149.31 856.1l15.25 0l0 14.52l-15.25 0Z" id="p73w260" />
<path d="M167.76 856.1l52.39 0l0 14.52l-52.39 0Z" id="p73w261" />
<path d="M223.36 856.1l40.89 0l0 14.52l-40.89 0Z" id="p73w262" />
<path d="M267.46 856.1l23.79 0l0 14.52l-23.79 0Z" id="p73w263" />
<path d="M294.45 856.1l11.22 0l0 14.52l-11.22 0Z" id="p73w264" />
<path d="M308.88 856.1l32.07 0l0 14.52l-32.07 0Z" id="p73w265" />
<path d="M344.16 856.1l51.79 0l0 14.52l-51.79 0Z" id="p73w266" />
<path d="M399.16 856.1l21.12 0l0 14.52l-21.12 0Z" id="p73w267" />
<path d="M69.84 116.02l18.77 0l0 12.3l-18.77 0Z" id="p73w268" />
<path d="M70.3 316.09l18.32 0l0 12.3l-18.32 0Z" id="p73w269" />
<path d="M69.84 441.14l18.77 0l0 12.3l-18.77 0Z" id="p73w270" />
<path d="M60.68 682.83l27.93 0l0 12.29l-27.93 0Z" id="p73w271" />
<path d="M619.73 740.65l8.85 0l0 12.99l-8.85 0Z" id="p73w272" />
<path d="M631.44 740.65l33 0l0 12.99l-33 0Z" id="p73w273" />
<path d="M667.31 740.65l12.44 0l0 12.99l-12.44 0Z" id="p73w274" />
<path d="M682.62 740.65l8.85 0l0 12.99l-8.85 0Z" id="p73w275" />
<path d="M694.33 740.65l14.6 0l0 12.99l-14.6 0Z" id="p73w276" />
<path d="M68.27 39.02l46.09 0l0 15.38l-46.09 0Z" id="p73w277" />
<path d="M152.94 39.02l46.59 0l0 15.38l-46.59 0Z" id="p73w278" />
<path d="M251.41 39.02l46.59 0l0 15.38l-46.59 0Z" id="p73w279" />
<path d="M356.5 39.02l82.1 0l0 15.38l-82.1 0Z" id="p73w280" />
<path d="M468.42 38.6l34.29 0l0 16.09l-34.29 0Z" id="p73w281" />
<path d="M527.54 26.71l108.51 0l0 18.78l-108.51 0Z" id="p73w282" />
<path d="M526.67 43.36l111.66 0l0 18.94l-111.66 0Z" id="p73w283" />
<path d="M525.8 60.01l81.14 0l0 17.34l-81.14 0Z" id="p73w284" />
<path d="M613.58 983l77.52 0l0 12.23l-77.52 0Z" id="p73w285" />
</svg>
