<?xml version="1.0" encoding="UTF-8"?>
<svg xmlns="http://www.w3.org/2000/svg" xmlns:xlink="http://www.w3.org/1999/xlink" version="1.1" baseProfile="full" width="768" height="1024" viewBox="0,0,768,1024" preserveAspectRatio="xMinYMin meet" >
<style type="text/css">
<![CDATA[
path {fill-opacity: 0.5;fill: #00aeef;visibility: hidden;}
]]>
</style>
<path d="M124.06 104.82l98.02 0l0 23.34l-98.02 0Z" id="p122w1" />
<path d="M227.15 104.82l17.82 0l0 23.34l-17.82 0Z" id="p122w2" />
<path d="M250.05 104.82l39.06 0l0 23.34l-39.06 0Z" id="p122w3" />
<path d="M294.18 104.82l82.81 0l0 23.34l-82.81 0Z" id="p122w4" />
<path d="M382.06 104.82l134.45 0l0 23.34l-134.45 0Z" id="p122w5" />
<path d="M147.11 138.9l10.63 0l0 15.09l-10.63 0Z" id="p122w6" />
<path d="M161.35 138.9l11.26 0l0 15.09l-11.26 0Z" id="p122w7" />
<path d="M176.21 138.9l53.64 0l0 15.09l-53.64 0Z" id="p122w8" />
<path d="M233.47 138.9l52.31 0l0 15.09l-52.31 0Z" id="p122w9" />
<path d="M296.34 138.9l10.71 0l0 15.09l-10.71 0Z" id="p122w10" />
<path d="M310.66 138.9l12.41 0l0 15.09l-12.41 0Z" id="p122w11" />
<path d="M326.69 138.9l14.59 0l0 15.09l-14.59 0Z" id="p122w12" />
<path d="M344.88 138.9l38.74 0l0 15.09l-38.74 0Z" id="p122w13" />
<path d="M124.06 155.57l19.46 0l0 15.09l-19.46 0Z" id="p122w14" />
<path d="M147.13 155.57l24.24 0l0 15.09l-24.24 0Z" id="p122w15" />
<path d="M174.98 155.57l13.91 0l0 15.09l-13.91 0Z" id="p122w16" />
<path d="M192.5 155.57l28.27 0l0 15.09l-28.27 0Z" id="p122w17" />
<path d="M224.38 155.57l11.18 0l0 15.09l-11.18 0Z" id="p122w18" />
<path d="M239.18 155.57l55.6 0l0 15.09l-55.6 0Z" id="p122w19" />
<path d="M298.39 155.57l7.84 0l0 15.09l-7.84 0Z" id="p122w20" />
<path d="M320.14 155.57l26.09 0l0 15.09l-26.09 0Z" id="p122w21" />
<path d="M349.84 155.57l19.29 0l0 15.09l-19.29 0Z" id="p122w22" />
<path d="M124.06 172.24l80.93 0l0 15.09l-80.93 0Z" id="p122w23" />
<path d="M124.06 197.25l28.72 0l0 15.09l-28.72 0Z" id="p122w24" />
<path d="M156.4 197.25l25.69 0l0 15.09l-25.69 0Z" id="p122w25" />
<path d="M185.7 197.25l28.61 0l0 15.09l-28.61 0Z" id="p122w26" />
<path d="M217.92 197.25l39.49 0l0 15.09l-39.49 0Z" id="p122w27" />
<path d="M261.03 197.25l13.91 0l0 15.09l-13.91 0Z" id="p122w28" />
<path d="M278.54 197.25l20.54 0l0 15.09l-20.54 0Z" id="p122w29" />
<path d="M302.69 197.25l26.1 0l0 15.09l-26.1 0Z" id="p122w30" />
<path d="M332.4 197.25l21.67 0l0 15.09l-21.67 0Z" id="p122w31" />
<path d="M357.68 197.25l24.24 0l0 15.09l-24.24 0Z" id="p122w32" />
<path d="M134.16 213.92l67.69 0l0 15.09l-67.69 0Z" id="p122w33" />
<path d="M205.47 213.92l78.91 0l0 15.09l-78.91 0Z" id="p122w34" />
<path d="M287.99 213.92l52.31 0l0 15.09l-52.31 0Z" id="p122w35" />
<path d="M343.91 213.92l18.07 0l0 15.09l-18.07 0Z" id="p122w36" />
<path d="M365.59 213.92l19.46 0l0 15.09l-19.46 0Z" id="p122w37" />
<path d="M124.06 230.59l33.35 0l0 15.09l-33.35 0Z" id="p122w38" />
<path d="M161.02 230.59l11.88 0l0 15.09l-11.88 0Z" id="p122w39" />
<path d="M176.51 230.59l55.2 0l0 15.09l-55.2 0Z" id="p122w40" />
<path d="M235.32 230.59l21.96 0l0 15.09l-21.96 0Z" id="p122w41" />
<path d="M271 230.59l15.94 0l0 15.09l-15.94 0Z" id="p122w42" />
<path d="M298.99 230.59l22.32 0l0 15.09l-22.32 0Z" id="p122w43" />
<path d="M324.92 230.59l18.76 0l0 15.09l-18.76 0Z" id="p122w44" />
<path d="M355.76 230.59l11.26 0l0 15.09l-11.26 0Z" id="p122w45" />
<path d="M134.16 247.26l52.15 0l0 15.09l-52.15 0Z" id="p122w46" />
<path d="M200.03 247.26l50.01 0l0 15.09l-50.01 0Z" id="p122w47" />
<path d="M253.65 247.26l14.59 0l0 15.09l-14.59 0Z" id="p122w48" />
<path d="M271.85 247.26l29.32 0l0 15.09l-29.32 0Z" id="p122w49" />
<path d="M304.77 247.26l46.68 0l0 15.09l-46.68 0Z" id="p122w50" />
<path d="M355.06 247.26l27.18 0l0 15.09l-27.18 0Z" id="p122w51" />
<path d="M124.06 263.93l21 0l0 15.09l-21 0Z" id="p122w52" />
<path d="M148.67 263.93l32.91 0l0 15.09l-32.91 0Z" id="p122w53" />
<path d="M185.2 263.93l15.89 0l0 15.09l-15.89 0Z" id="p122w54" />
<path d="M204.69 263.93l40.16 0l0 15.09l-40.16 0Z" id="p122w55" />
<path d="M124.06 280.6l23.62 0l0 15.09l-23.62 0Z" id="p122w56" />
<path d="M151.29 280.6l34.33 0l0 15.09l-34.33 0Z" id="p122w57" />
<path d="M189.23 280.6l24.62 0l0 15.09l-24.62 0Z" id="p122w58" />
<path d="M217.47 280.6l27.46 0l0 15.09l-27.46 0Z" id="p122w59" />
<path d="M248.55 280.6l10.42 0l0 15.09l-10.42 0Z" id="p122w60" />
<path d="M262.58 280.6l31.36 0l0 15.09l-31.36 0Z" id="p122w61" />
<path d="M297.55 280.6l25.59 0l0 15.09l-25.59 0Z" id="p122w62" />
<path d="M326.75 280.6l47.9 0l0 15.09l-47.9 0Z" id="p122w63" />
<path d="M124.06 307.69l10.83 0l0 12.29l-10.83 0Z" id="p122w64" />
<path d="M137.59 307.69l21.13 0l0 12.29l-21.13 0Z" id="p122w65" />
<path d="M161.42 307.69l11.68 0l0 12.29l-11.68 0Z" id="p122w66" />
<path d="M175.8 307.69l42.5 0l0 12.29l-42.5 0Z" id="p122w67" />
<path d="M227.54 305.63l20.49 0l0 15.09l-20.49 0Z" id="p122w68" />
<path d="M251.64 305.63l55.87 0l0 15.09l-55.87 0Z" id="p122w69" />
<path d="M311.12 305.63l26.3 0l0 15.09l-26.3 0Z" id="p122w70" />
<path d="M341.02 305.63l15.73 0l0 15.09l-15.73 0Z" id="p122w71" />
<path d="M360.37 305.63l19.01 0l0 15.09l-19.01 0Z" id="p122w72" />
<path d="M382.99 305.63l19.37 0l0 15.09l-19.37 0Z" id="p122w73" />
<path d="M135.88 322.3l33.18 0l0 15.09l-33.18 0Z" id="p122w74" />
<path d="M179.63 322.3l14.52 0l0 15.09l-14.52 0Z" id="p122w75" />
<path d="M197.76 322.3l35.38 0l0 15.09l-35.38 0Z" id="p122w76" />
<path d="M236.76 322.3l15.31 0l0 15.09l-15.31 0Z" id="p122w77" />
<path d="M255.67 322.3l26.89 0l0 15.09l-26.89 0Z" id="p122w78" />
<path d="M286.17 322.3l15.74 0l0 15.09l-15.74 0Z" id="p122w79" />
<path d="M305.53 322.3l36.15 0l0 15.09l-36.15 0Z" id="p122w80" />
<path d="M345.29 322.3l12.58 0l0 15.09l-12.58 0Z" id="p122w81" />
<path d="M361.48 322.3l14.59 0l0 15.09l-14.59 0Z" id="p122w82" />
<path d="M135.88 338.97l42.94 0l0 15.09l-42.94 0Z" id="p122w83" />
<path d="M182.43 338.97l19.46 0l0 15.09l-19.46 0Z" id="p122w84" />
<path d="M205.5 338.97l25.55 0l0 15.09l-25.55 0Z" id="p122w85" />
<path d="M234.66 338.97l13.91 0l0 15.09l-13.91 0Z" id="p122w86" />
<path d="M252.18 338.97l38.74 0l0 15.09l-38.74 0Z" id="p122w87" />
<path d="M294.53 338.97l15.74 0l0 15.09l-15.74 0Z" id="p122w88" />
<path d="M313.88 338.97l25.04 0l0 15.09l-25.04 0Z" id="p122w89" />
<path d="M342.53 338.97l26 0l0 15.09l-26 0Z" id="p122w90" />
<path d="M372.14 338.97l16.87 0l0 15.09l-16.87 0Z" id="p122w91" />
<path d="M135.88 355.64l27.82 0l0 15.09l-27.82 0Z" id="p122w92" />
<path d="M167.32 355.64l15.73 0l0 15.09l-15.73 0Z" id="p122w93" />
<path d="M124.07 380.65l21.95 0l0 15.09l-21.95 0Z" id="p122w94" />
<path d="M149.63 380.65l26.1 0l0 15.09l-26.1 0Z" id="p122w95" />
<path d="M179.35 380.65l16.64 0l0 15.09l-16.64 0Z" id="p122w96" />
<path d="M199.6 380.65l20.92 0l0 15.09l-20.92 0Z" id="p122w97" />
<path d="M224.14 380.65l24.01 0l0 15.09l-24.01 0Z" id="p122w98" />
<path d="M251.76 380.65l24.56 0l0 15.09l-24.56 0Z" id="p122w99" />
<path d="M290.03 380.65l22.26 0l0 15.09l-22.26 0Z" id="p122w100" />
<path d="M315.9 380.65l20.54 0l0 15.09l-20.54 0Z" id="p122w101" />
<path d="M340.05 380.65l62.64 0l0 15.09l-62.64 0Z" id="p122w102" />
<path d="M124.07 397.32l49.17 0l0 15.09l-49.17 0Z" id="p122w103" />
<path d="M176.85 397.32l11.26 0l0 15.09l-11.26 0Z" id="p122w104" />
<path d="M191.72 397.32l16.64 0l0 15.09l-16.64 0Z" id="p122w105" />
<path d="M211.98 397.32l26.5 0l0 15.09l-26.5 0Z" id="p122w106" />
<path d="M242.09 397.32l25.28 0l0 15.09l-25.28 0Z" id="p122w107" />
<path d="M270.98 397.32l41.96 0l0 15.09l-41.96 0Z" id="p122w108" />
<path d="M316.55 397.32l15.74 0l0 15.09l-15.74 0Z" id="p122w109" />
<path d="M335.91 397.32l23.85 0l0 15.09l-23.85 0Z" id="p122w110" />
<path d="M124.07 413.99l52.31 0l0 15.09l-52.31 0Z" id="p122w111" />
<path d="M179.99 413.99l16.64 0l0 15.09l-16.64 0Z" id="p122w112" />
<path d="M200.24 413.99l35.16 0l0 15.09l-35.16 0Z" id="p122w113" />
<path d="M239.02 413.99l18.49 0l0 15.09l-18.49 0Z" id="p122w114" />
<path d="M261.12 413.99l20.54 0l0 15.09l-20.54 0Z" id="p122w115" />
<path d="M285.27 413.99l12.53 0l0 15.09l-12.53 0Z" id="p122w116" />
<path d="M301.42 413.99l25.69 0l0 15.09l-25.69 0Z" id="p122w117" />
<path d="M330.72 413.99l10.5 0l0 15.09l-10.5 0Z" id="p122w118" />
<path d="M344.83 413.99l30.47 0l0 15.09l-30.47 0Z" id="p122w119" />
<path d="M378.91 413.99l15.06 0l0 15.09l-15.06 0Z" id="p122w120" />
<path d="M124.07 430.65l49.17 0l0 15.09l-49.17 0Z" id="p122w121" />
<path d="M186.96 430.65l10.42 0l0 15.09l-10.42 0Z" id="p122w122" />
<path d="M200.99 430.65l33.61 0l0 15.09l-33.61 0Z" id="p122w123" />
<path d="M147.23 464.01l54.98 0l0 15.09l-54.98 0Z" id="p122w124" />
<path d="M212.78 464.01l26.45 0l0 15.09l-26.45 0Z" id="p122w125" />
<path d="M242.84 464.01l49.17 0l0 15.09l-49.17 0Z" id="p122w126" />
<path d="M302.57 464.01l10.71 0l0 15.09l-10.71 0Z" id="p122w127" />
<path d="M316.89 464.01l36.35 0l0 15.09l-36.35 0Z" id="p122w128" />
<path d="M356.85 464.01l16.67 0l0 15.09l-16.67 0Z" id="p122w129" />
<path d="M124.07 480.67l42.91 0l0 15.09l-42.91 0Z" id="p122w130" />
<path d="M170.59 480.67l33.33 0l0 15.09l-33.33 0Z" id="p122w131" />
<path d="M207.53 480.67l36.19 0l0 15.09l-36.19 0Z" id="p122w132" />
<path d="M247.33 480.67l23.98 0l0 15.09l-23.98 0Z" id="p122w133" />
<path d="M274.93 480.67l43.04 0l0 15.09l-43.04 0Z" id="p122w134" />
<path d="M321.58 480.67l25.63 0l0 15.09l-25.63 0Z" id="p122w135" />
<path d="M350.82 480.67l27.18 0l0 15.09l-27.18 0Z" id="p122w136" />
<path d="M381.61 480.67l16.09 0l0 15.09l-16.09 0Z" id="p122w137" />
<path d="M124.07 497.34l43.85 0l0 15.09l-43.85 0Z" id="p122w138" />
<path d="M171.53 497.34l66.25 0l0 15.09l-66.25 0Z" id="p122w139" />
<path d="M241.4 497.34l71.75 0l0 15.09l-71.75 0Z" id="p122w140" />
<path d="M316.76 497.34l10.54 0l0 15.09l-10.54 0Z" id="p122w141" />
<path d="M330.91 497.34l22.4 0l0 15.09l-22.4 0Z" id="p122w142" />
<path d="M356.92 497.34l30.18 0l0 15.09l-30.18 0Z" id="p122w143" />
<path d="M390.71 497.34l14.21 0l0 15.09l-14.21 0Z" id="p122w144" />
<path d="M124.07 514.01l41.09 0l0 15.09l-41.09 0Z" id="p122w145" />
<path d="M168.77 514.01l27.23 0l0 15.09l-27.23 0Z" id="p122w146" />
<path d="M199.61 514.01l18.52 0l0 15.09l-18.52 0Z" id="p122w147" />
<path d="M221.75 514.01l55.2 0l0 15.09l-55.2 0Z" id="p122w148" />
<path d="M280.56 514.01l59.17 0l0 15.09l-59.17 0Z" id="p122w149" />
<path d="M358.75 514.01l29.19 0l0 15.09l-29.19 0Z" id="p122w150" />
<path d="M124.07 530.68l15.89 0l0 15.09l-15.89 0Z" id="p122w151" />
<path d="M143.57 530.68l59.38 0l0 15.09l-59.38 0Z" id="p122w152" />
<path d="M206.55 530.68l44.88 0l0 15.09l-44.88 0Z" id="p122w153" />
<path d="M255.05 530.68l13.91 0l0 15.09l-13.91 0Z" id="p122w154" />
<path d="M272.56 530.68l10.42 0l0 15.09l-10.42 0Z" id="p122w155" />
<path d="M286.6 530.68l53.99 0l0 15.09l-53.99 0Z" id="p122w156" />
<path d="M344.2 530.68l31.62 0l0 15.09l-31.62 0Z" id="p122w157" />
<path d="M379.43 530.68l21.67 0l0 15.09l-21.67 0Z" id="p122w158" />
<path d="M124.07 547.35l52.31 0l0 15.09l-52.31 0Z" id="p122w159" />
<path d="M190.09 547.35l50.96 0l0 15.09l-50.96 0Z" id="p122w160" />
<path d="M124.07 572.36l10.45 0l0 15.09l-10.45 0Z" id="p122w161" />
<path d="M138.13 572.36l51.28 0l0 15.09l-51.28 0Z" id="p122w162" />
<path d="M193.02 572.36l27.48 0l0 15.09l-27.48 0Z" id="p122w163" />
<path d="M224.11 572.36l32.71 0l0 15.09l-32.71 0Z" id="p122w164" />
<path d="M260.43 572.36l11.62 0l0 15.09l-11.62 0Z" id="p122w165" />
<path d="M275.66 572.36l54.57 0l0 15.09l-54.57 0Z" id="p122w166" />
<path d="M333.84 572.36l20.49 0l0 15.09l-20.49 0Z" id="p122w167" />
<path d="M357.94 572.36l14.33 0l0 15.09l-14.33 0Z" id="p122w168" />
<path d="M375.88 572.36l31.78 0l0 15.09l-31.78 0Z" id="p122w169" />
<path d="M124.07 589.03l19.07 0l0 15.09l-19.07 0Z" id="p122w170" />
<path d="M146.75 589.03l48.55 0l0 15.09l-48.55 0Z" id="p122w171" />
<path d="M198.92 589.03l69.35 0l0 15.09l-69.35 0Z" id="p122w172" />
<path d="M271.88 589.03l21.45 0l0 15.09l-21.45 0Z" id="p122w173" />
<path d="M306.92 589.03l58.08 0l0 15.09l-58.08 0Z" id="p122w174" />
<path d="M368.61 589.03l11.75 0l0 15.09l-11.75 0Z" id="p122w175" />
<path d="M124.07 605.7l52.96 0l0 15.09l-52.96 0Z" id="p122w176" />
<path d="M180.65 605.7l30.97 0l0 15.09l-30.97 0Z" id="p122w177" />
<path d="M215.23 605.7l18.11 0l0 15.09l-18.11 0Z" id="p122w178" />
<path d="M236.95 605.7l20.15 0l0 15.09l-20.15 0Z" id="p122w179" />
<path d="M260.71 605.7l70.08 0l0 15.09l-70.08 0Z" id="p122w180" />
<path d="M334.41 605.7l24.77 0l0 15.09l-24.77 0Z" id="p122w181" />
<path d="M362.78 605.7l26.37 0l0 15.09l-26.37 0Z" id="p122w182" />
<path d="M124.07 622.37l53.05 0l0 15.09l-53.05 0Z" id="p122w183" />
<path d="M190.71 622.37l10.17 0l0 15.09l-10.17 0Z" id="p122w184" />
<path d="M204.49 622.37l45.21 0l0 15.09l-45.21 0Z" id="p122w185" />
<path d="M253.31 622.37l14.6 0l0 15.09l-14.6 0Z" id="p122w186" />
<path d="M281.49 622.37l10.17 0l0 15.09l-10.17 0Z" id="p122w187" />
<path d="M295.27 622.37l39.79 0l0 15.09l-39.79 0Z" id="p122w188" />
<path d="M338.67 622.37l14.81 0l0 15.09l-14.81 0Z" id="p122w189" />
<path d="M357.09 622.37l23.31 0l0 15.09l-23.31 0Z" id="p122w190" />
<path d="M124.07 639.04l26.18 0l0 15.09l-26.18 0Z" id="p122w191" />
<path d="M153.86 639.04l23.36 0l0 15.09l-23.36 0Z" id="p122w192" />
<path d="M180.84 639.04l52.71 0l0 15.09l-52.71 0Z" id="p122w193" />
<path d="M237.16 639.04l27.7 0l0 15.09l-27.7 0Z" id="p122w194" />
<path d="M268.46 639.04l43.21 0l0 15.09l-43.21 0Z" id="p122w195" />
<path d="M315.28 639.04l15.36 0l0 15.09l-15.36 0Z" id="p122w196" />
<path d="M334.25 639.04l21.45 0l0 15.09l-21.45 0Z" id="p122w197" />
<path d="M359.31 639.04l25.83 0l0 15.09l-25.83 0Z" id="p122w198" />
<path d="M124.07 655.71l21.51 0l0 15.09l-21.51 0Z" id="p122w199" />
<path d="M149.2 655.71l45.44 0l0 15.09l-45.44 0Z" id="p122w200" />
<path d="M198.25 655.71l11 0l0 15.09l-11 0Z" id="p122w201" />
<path d="M212.87 655.71l15.5 0l0 15.09l-15.5 0Z" id="p122w202" />
<path d="M231.98 655.71l28.72 0l0 15.09l-28.72 0Z" id="p122w203" />
<path d="M264.31 655.71l24.71 0l0 15.09l-24.71 0Z" id="p122w204" />
<path d="M292.64 655.71l33.72 0l0 15.09l-33.72 0Z" id="p122w205" />
<path d="M329.97 655.71l23.72 0l0 15.09l-23.72 0Z" id="p122w206" />
<path d="M357.31 655.71l31.51 0l0 15.09l-31.51 0Z" id="p122w207" />
<path d="M124.07 672.37l47.39 0l0 15.09l-47.39 0Z" id="p122w208" />
<path d="M175.07 672.37l21 0l0 15.09l-21 0Z" id="p122w209" />
<path d="M209.78 672.37l64.53 0l0 15.09l-64.53 0Z" id="p122w210" />
<path d="M277.92 672.37l10.5 0l0 15.09l-10.5 0Z" id="p122w211" />
<path d="M292.03 672.37l51.82 0l0 15.09l-51.82 0Z" id="p122w212" />
<path d="M354.6 672.37l12.58 0l0 15.09l-12.58 0Z" id="p122w213" />
<path d="M124.07 689.04l39.7 0l0 15.09l-39.7 0Z" id="p122w214" />
<path d="M167.38 689.04l19.46 0l0 15.09l-19.46 0Z" id="p122w215" />
<path d="M190.45 689.04l23.27 0l0 15.09l-23.27 0Z" id="p122w216" />
<path d="M217.34 689.04l48.05 0l0 15.09l-48.05 0Z" id="p122w217" />
<path d="M269 689.04l27.81 0l0 15.09l-27.81 0Z" id="p122w218" />
<path d="M300.43 689.04l27.82 0l0 15.09l-27.82 0Z" id="p122w219" />
<path d="M331.86 689.04l25.4 0l0 15.09l-25.4 0Z" id="p122w220" />
<path d="M124.07 705.71l48.32 0l0 15.09l-48.32 0Z" id="p122w221" />
<path d="M176.01 705.71l13.91 0l0 15.09l-13.91 0Z" id="p122w222" />
<path d="M193.52 705.71l35.18 0l0 15.09l-35.18 0Z" id="p122w223" />
<path d="M232.31 705.71l7.84 0l0 15.09l-7.84 0Z" id="p122w224" />
<path d="M243.76 705.71l15.56 0l0 15.09l-15.56 0Z" id="p122w225" />
<path d="M273.04 705.71l26.62 0l0 15.09l-26.62 0Z" id="p122w226" />
<path d="M303.27 705.71l14.21 0l0 15.09l-14.21 0Z" id="p122w227" />
<path d="M321.09 705.71l36.47 0l0 15.09l-36.47 0Z" id="p122w228" />
<path d="M361.18 705.71l26.5 0l0 15.09l-26.5 0Z" id="p122w229" />
<path d="M124.07 722.38l42.87 0l0 15.09l-42.87 0Z" id="p122w230" />
<path d="M170.56 722.38l70.26 0l0 15.09l-70.26 0Z" id="p122w231" />
<path d="M244.43 722.38l52.31 0l0 15.09l-52.31 0Z" id="p122w232" />
<path d="M310.45 722.38l21.32 0l0 15.09l-21.32 0Z" id="p122w233" />
<path d="M335.38 722.38l11.88 0l0 15.09l-11.88 0Z" id="p122w234" />
<path d="M350.87 722.38l31.62 0l0 15.09l-31.62 0Z" id="p122w235" />
<path d="M386.1 722.38l14.59 0l0 15.09l-14.59 0Z" id="p122w236" />
<path d="M124.07 739.05l32.48 0l0 15.09l-32.48 0Z" id="p122w237" />
<path d="M160.16 739.05l27.3 0l0 15.09l-27.3 0Z" id="p122w238" />
<path d="M191.07 739.05l26.64 0l0 15.09l-26.64 0Z" id="p122w239" />
<path d="M221.32 739.05l21 0l0 15.09l-21 0Z" id="p122w240" />
<path d="M256.03 739.05l15.06 0l0 15.09l-15.06 0Z" id="p122w241" />
<path d="M274.71 739.05l30 0l0 15.09l-30 0Z" id="p122w242" />
<path d="M308.32 739.05l22.31 0l0 15.09l-22.31 0Z" id="p122w243" />
<path d="M334.24 739.05l39.16 0l0 15.09l-39.16 0Z" id="p122w244" />
<path d="M377.01 739.05l27.18 0l0 15.09l-27.18 0Z" id="p122w245" />
<path d="M124.07 755.72l21 0l0 15.09l-21 0Z" id="p122w246" />
<path d="M158.78 755.72l38.17 0l0 15.09l-38.17 0Z" id="p122w247" />
<path d="M200.57 755.72l10.5 0l0 15.09l-10.5 0Z" id="p122w248" />
<path d="M214.68 755.72l27.18 0l0 15.09l-27.18 0Z" id="p122w249" />
<path d="M245.47 755.72l62.83 0l0 15.09l-62.83 0Z" id="p122w250" />
<path d="M327.49 755.72l52.31 0l0 15.09l-52.31 0Z" id="p122w251" />
<path d="M124.07 772.39l27.16 0l0 15.09l-27.16 0Z" id="p122w252" />
<path d="M154.84 772.39l21 0l0 15.09l-21 0Z" id="p122w253" />
<path d="M62.47 113.24l26.14 0l0 12.3l-26.14 0Z" id="p122w254" />
<path d="M124.06 39.02l42.02 0l0 15.38l-42.02 0Z" id="p122w255" />
<path d="M208.73 38.6l45.75 0l0 16.09l-45.75 0Z" id="p122w256" />
<path d="M307.2 39.02l43.21 0l0 15.38l-43.21 0Z" id="p122w257" />
<path d="M414.72 39.02l28.68 0l0 15.38l-28.68 0Z" id="p122w258" />
<path d="M446.78 39.02l44.38 0l0 15.38l-44.38 0Z" id="p122w259" />
<path d="M524.22 39.02l32.54 0l0 15.38l-32.54 0Z" id="p122w260" />
<path d="M76.9 983l47.37 0l0 12.23l-47.37 0Z" id="p122w261" />
</svg>
