<?xml version="1.0" encoding="UTF-8"?>
<svg xmlns="http://www.w3.org/2000/svg" xmlns:xlink="http://www.w3.org/1999/xlink" version="1.1" baseProfile="full" width="768" height="1024" viewBox="0,0,768,1024" preserveAspectRatio="xMinYMin meet" >
<style type="text/css">
<![CDATA[
path {fill-opacity: 0.5;fill: #00aeef;visibility: hidden;}
]]>
</style>
<path d="M124.06 349.74l34.63 0l0 18.84l-34.63 0Z" id="p92w1" />
<path d="M162.34 349.74l89.43 0l0 18.84l-89.43 0Z" id="p92w2" />
<path d="M255.42 349.74l13.62 0l0 18.84l-13.62 0Z" id="p92w3" />
<path d="M272.69 349.74l38.39 0l0 18.84l-38.39 0Z" id="p92w4" />
<path d="M143.75 380.94l50.43 0l0 14.52l-50.43 0Z" id="p92w5" />
<path d="M197.4 380.94l17.38 0l0 14.52l-17.38 0Z" id="p92w6" />
<path d="M217.99 380.94l24.31 0l0 14.52l-24.31 0Z" id="p92w7" />
<path d="M245.51 380.94l31.8 0l0 14.52l-31.8 0Z" id="p92w8" />
<path d="M280.51 380.94l40.64 0l0 14.52l-40.64 0Z" id="p92w9" />
<path d="M324.36 380.94l21.4 0l0 14.52l-21.4 0Z" id="p92w10" />
<path d="M357.25 380.94l37.96 0l0 14.52l-37.96 0Z" id="p92w11" />
<path d="M398.42 380.94l19.51 0l0 14.52l-19.51 0Z" id="p92w12" />
<path d="M421.14 380.94l33.68 0l0 14.52l-33.68 0Z" id="p92w13" />
<path d="M154.71 405.96l28.96 0l0 14.52l-28.96 0Z" id="p92w14" />
<path d="M186.88 405.96l19.51 0l0 14.52l-19.51 0Z" id="p92w15" />
<path d="M209.59 405.96l31.01 0l0 14.52l-31.01 0Z" id="p92w16" />
<path d="M243.8 405.96l11.22 0l0 14.52l-11.22 0Z" id="p92w17" />
<path d="M258.23 405.96l13.9 0l0 14.52l-13.9 0Z" id="p92w18" />
<path d="M275.34 405.96l9.89 0l0 14.52l-9.89 0Z" id="p92w19" />
<path d="M288.43 405.96l49.37 0l0 14.52l-49.37 0Z" id="p92w20" />
<path d="M341 405.96l27.73 0l0 14.52l-27.73 0Z" id="p92w21" />
<path d="M395.4 405.96l30.99 0l0 14.52l-30.99 0Z" id="p92w22" />
<path d="M429.6 405.96l14.18 0l0 14.52l-14.18 0Z" id="p92w23" />
<path d="M446.98 405.96l41.42 0l0 14.52l-41.42 0Z" id="p92w24" />
<path d="M491.61 405.96l14.18 0l0 14.52l-14.18 0Z" id="p92w25" />
<path d="M508.99 405.96l31.01 0l0 14.52l-31.01 0Z" id="p92w26" />
<path d="M143.75 439.3l54.53 0l0 14.52l-54.53 0Z" id="p92w27" />
<path d="M201.49 439.3l70.77 0l0 14.52l-70.77 0Z" id="p92w28" />
<path d="M275.47 439.3l29.39 0l0 14.52l-29.39 0Z" id="p92w29" />
<path d="M308.07 439.3l13.9 0l0 14.52l-13.9 0Z" id="p92w30" />
<path d="M325.18 439.3l53.72 0l0 14.52l-53.72 0Z" id="p92w31" />
<path d="M391.99 439.3l20.85 0l0 14.52l-20.85 0Z" id="p92w32" />
<path d="M416.06 439.3l47.03 0l0 14.52l-47.03 0Z" id="p92w33" />
<path d="M466.29 439.3l13.9 0l0 14.52l-13.9 0Z" id="p92w34" />
<path d="M483.4 439.3l9.89 0l0 14.52l-9.89 0Z" id="p92w35" />
<path d="M496.49 439.3l36.34 0l0 14.52l-36.34 0Z" id="p92w36" />
<path d="M143.75 455.97l33.33 0l0 14.52l-33.33 0Z" id="p92w37" />
<path d="M180.29 455.97l20.85 0l0 14.52l-20.85 0Z" id="p92w38" />
<path d="M204.35 455.97l22.45 0l0 14.52l-22.45 0Z" id="p92w39" />
<path d="M230.01 455.97l25.67 0l0 14.52l-25.67 0Z" id="p92w40" />
<path d="M258.89 455.97l69.47 0l0 14.52l-69.47 0Z" id="p92w41" />
<path d="M339.86 455.97l28.33 0l0 14.52l-28.33 0Z" id="p92w42" />
<path d="M371.39 455.97l50.01 0l0 14.52l-50.01 0Z" id="p92w43" />
<path d="M424.61 455.97l30.74 0l0 14.52l-30.74 0Z" id="p92w44" />
<path d="M143.75 480.98l10.16 0l0 14.52l-10.16 0Z" id="p92w45" />
<path d="M157.12 480.98l25.67 0l0 14.52l-25.67 0Z" id="p92w46" />
<path d="M186 480.98l60.95 0l0 14.52l-60.95 0Z" id="p92w47" />
<path d="M250.17 480.98l13.9 0l0 14.52l-13.9 0Z" id="p92w48" />
<path d="M267.27 480.98l29.67 0l0 14.52l-29.67 0Z" id="p92w49" />
<path d="M300.15 480.98l45.71 0l0 14.52l-45.71 0Z" id="p92w50" />
<path d="M349.07 480.98l11.22 0l0 14.52l-11.22 0Z" id="p92w51" />
<path d="M363.49 480.98l68.41 0l0 14.52l-68.41 0Z" id="p92w52" />
<path d="M435.11 480.98l13.9 0l0 14.52l-13.9 0Z" id="p92w53" />
<path d="M452.22 480.98l28.87 0l0 14.52l-28.87 0Z" id="p92w54" />
<path d="M484.29 480.98l35.76 0l0 14.52l-35.76 0Z" id="p92w55" />
<path d="M523.26 480.98l33.05 0l0 14.52l-33.05 0Z" id="p92w56" />
<path d="M559.52 480.98l20.85 0l0 14.52l-20.85 0Z" id="p92w57" />
<path d="M583.58 480.98l25.67 0l0 14.52l-25.67 0Z" id="p92w58" />
<path d="M612.46 480.98l48.64 0l0 14.52l-48.64 0Z" id="p92w59" />
<path d="M124.06 524.8l23.83 0l0 18.84l-23.83 0Z" id="p92w60" />
<path d="M151.54 524.8l18.36 0l0 18.84l-18.36 0Z" id="p92w61" />
<path d="M173.54 524.8l37.28 0l0 18.84l-37.28 0Z" id="p92w62" />
<path d="M123.71 556.01l42.53 0l0 14.52l-42.53 0Z" id="p92w63" />
<path d="M169.44 556.01l26.73 0l0 14.52l-26.73 0Z" id="p92w64" />
<path d="M199.38 556.01l9.89 0l0 14.52l-9.89 0Z" id="p92w65" />
<path d="M212.47 556.01l28.33 0l0 14.52l-28.33 0Z" id="p92w66" />
<path d="M244 556.01l15.5 0l0 14.52l-15.5 0Z" id="p92w67" />
<path d="M262.71 556.01l28.06 0l0 14.52l-28.06 0Z" id="p92w68" />
<path d="M293.98 556.01l17.38 0l0 14.52l-17.38 0Z" id="p92w69" />
<path d="M314.57 556.01l81.27 0l0 14.52l-81.27 0Z" id="p92w70" />
<path d="M399.04 556.01l19.52 0l0 14.52l-19.52 0Z" id="p92w71" />
<path d="M421.77 556.01l21.38 0l0 14.52l-21.38 0Z" id="p92w72" />
<path d="M443.16 556.01l37.96 0l0 14.52l-37.96 0Z" id="p92w73" />
<path d="M484.32 556.01l55.16 0l0 14.52l-55.16 0Z" id="p92w74" />
<path d="M143.75 581.02l37.41 0l0 14.52l-37.41 0Z" id="p92w75" />
<path d="M194.25 581.02l14.18 0l0 14.52l-14.18 0Z" id="p92w76" />
<path d="M211.64 581.02l67.55 0l0 14.52l-67.55 0Z" id="p92w77" />
<path d="M282.4 581.02l31.1 0l0 14.52l-31.1 0Z" id="p92w78" />
<path d="M316.7 581.02l40.36 0l0 14.52l-40.36 0Z" id="p92w79" />
<path d="M360.28 581.02l24.85 0l0 14.52l-24.85 0Z" id="p92w80" />
<path d="M388.34 581.02l36.34 0l0 14.52l-36.34 0Z" id="p92w81" />
<path d="M143.75 597.69l28.34 0l0 14.52l-28.34 0Z" id="p92w82" />
<path d="M175.3 597.69l21.37 0l0 14.52l-21.37 0Z" id="p92w83" />
<path d="M199.88 597.69l29.94 0l0 14.52l-29.94 0Z" id="p92w84" />
<path d="M233.02 597.69l13.9 0l0 14.52l-13.9 0Z" id="p92w85" />
<path d="M250.13 597.69l25.38 0l0 14.52l-25.38 0Z" id="p92w86" />
<path d="M278.72 597.69l44.92 0l0 14.52l-44.92 0Z" id="p92w87" />
<path d="M326.84 597.69l35.03 0l0 14.52l-35.03 0Z" id="p92w88" />
<path d="M365.08 597.69l24.85 0l0 14.52l-24.85 0Z" id="p92w89" />
<path d="M393.14 597.69l22.44 0l0 14.52l-22.44 0Z" id="p92w90" />
<path d="M143.75 614.36l36.63 0l0 14.52l-36.63 0Z" id="p92w91" />
<path d="M183.59 614.36l14.18 0l0 14.52l-14.18 0Z" id="p92w92" />
<path d="M200.97 614.36l24.33 0l0 14.52l-24.33 0Z" id="p92w93" />
<path d="M228.51 614.36l67.9 0l0 14.52l-67.9 0Z" id="p92w94" />
<path d="M299.61 614.36l53.19 0l0 14.52l-53.19 0Z" id="p92w95" />
<path d="M356.01 614.36l12.29 0l0 14.52l-12.29 0Z" id="p92w96" />
<path d="M371.51 614.36l24.05 0l0 14.52l-24.05 0Z" id="p92w97" />
<path d="M398.76 614.36l20.85 0l0 14.52l-20.85 0Z" id="p92w98" />
<path d="M422.83 614.36l54.8 0l0 14.52l-54.8 0Z" id="p92w99" />
<path d="M480.84 614.36l14.18 0l0 14.52l-14.18 0Z" id="p92w100" />
<path d="M143.75 631.03l22.19 0l0 14.52l-22.19 0Z" id="p92w101" />
<path d="M169.15 631.03l52.12 0l0 14.52l-52.12 0Z" id="p92w102" />
<path d="M224.48 631.03l17.38 0l0 14.52l-17.38 0Z" id="p92w103" />
<path d="M245.07 631.03l28.33 0l0 14.52l-28.33 0Z" id="p92w104" />
<path d="M276.6 631.03l54.55 0l0 14.52l-54.55 0Z" id="p92w105" />
<path d="M334.37 631.03l16.83 0l0 14.52l-16.83 0Z" id="p92w106" />
<path d="M143.75 647.7l22.19 0l0 14.52l-22.19 0Z" id="p92w107" />
<path d="M169.15 647.7l52.12 0l0 14.52l-52.12 0Z" id="p92w108" />
<path d="M224.48 647.7l17.38 0l0 14.52l-17.38 0Z" id="p92w109" />
<path d="M245.07 647.7l13.9 0l0 14.52l-13.9 0Z" id="p92w110" />
<path d="M262.18 647.7l28.33 0l0 14.52l-28.33 0Z" id="p92w111" />
<path d="M293.71 647.7l19.51 0l0 14.52l-19.51 0Z" id="p92w112" />
<path d="M316.43 647.7l59.33 0l0 14.52l-59.33 0Z" id="p92w113" />
<path d="M388.85 647.7l19.51 0l0 14.52l-19.51 0Z" id="p92w114" />
<path d="M411.57 647.7l50.28 0l0 14.52l-50.28 0Z" id="p92w115" />
<path d="M465.05 647.7l16.83 0l0 14.52l-16.83 0Z" id="p92w116" />
<path d="M143.75 664.38l27.26 0l0 14.52l-27.26 0Z" id="p92w117" />
<path d="M174.22 664.38l44.92 0l0 14.52l-44.92 0Z" id="p92w118" />
<path d="M222.34 664.38l32.35 0l0 14.52l-32.35 0Z" id="p92w119" />
<path d="M257.9 664.38l25.12 0l0 14.52l-25.12 0Z" id="p92w120" />
<path d="M286.23 664.38l18.7 0l0 14.52l-18.7 0Z" id="p92w121" />
<path d="M304.93 664.38l28.89 0l0 14.52l-28.89 0Z" id="p92w122" />
<path d="M337.03 664.38l24.85 0l0 14.52l-24.85 0Z" id="p92w123" />
<path d="M365.09 664.38l27.53 0l0 14.52l-27.53 0Z" id="p92w124" />
<path d="M395.83 664.38l14.18 0l0 14.52l-14.18 0Z" id="p92w125" />
<path d="M143.75 681.05l25.41 0l0 14.52l-25.41 0Z" id="p92w126" />
<path d="M172.37 681.05l22.44 0l0 14.52l-22.44 0Z" id="p92w127" />
<path d="M198.02 681.05l49.71 0l0 14.52l-49.71 0Z" id="p92w128" />
<path d="M250.93 681.05l17.11 0l0 14.52l-17.11 0Z" id="p92w129" />
<path d="M271.25 681.05l30.65 0l0 14.52l-30.65 0Z" id="p92w130" />
<path d="M305.1 681.05l35.03 0l0 14.52l-35.03 0Z" id="p92w131" />
<path d="M343.34 681.05l6.41 0l0 14.52l-6.41 0Z" id="p92w132" />
<path d="M352.96 681.05l22.45 0l0 14.52l-22.45 0Z" id="p92w133" />
<path d="M378.62 681.05l9.89 0l0 14.52l-9.89 0Z" id="p92w134" />
<path d="M143.75 714.39l32.87 0l0 14.52l-32.87 0Z" id="p92w135" />
<path d="M179.83 714.39l14.18 0l0 14.52l-14.18 0Z" id="p92w136" />
<path d="M197.21 714.39l7.48 0l0 14.52l-7.48 0Z" id="p92w137" />
<path d="M204.7 714.39l14.43 0l0 14.52l-14.43 0Z" id="p92w138" />
<path d="M232.22 714.39l28.06 0l0 14.52l-28.06 0Z" id="p92w139" />
<path d="M263.48 714.39l17.11 0l0 14.52l-17.11 0Z" id="p92w140" />
<path d="M283.8 714.39l9.89 0l0 14.52l-9.89 0Z" id="p92w141" />
<path d="M296.89 714.39l34.57 0l0 14.52l-34.57 0Z" id="p92w142" />
<path d="M334.67 714.39l23.97 0l0 14.52l-23.97 0Z" id="p92w143" />
<path d="M361.85 714.32l59.7 0l0 14.6l-59.7 0Z" id="p92w144" />
<path d="M154.71 806.08l28.96 0l0 14.52l-28.96 0Z" id="p92w145" />
<path d="M186.88 806.08l13.9 0l0 14.52l-13.9 0Z" id="p92w146" />
<path d="M203.98 806.08l28.87 0l0 14.52l-28.87 0Z" id="p92w147" />
<path d="M236.06 806.08l7.48 0l0 14.52l-7.48 0Z" id="p92w148" />
<path d="M243.54 806.08l14.43 0l0 14.52l-14.43 0Z" id="p92w149" />
<path d="M271.06 806.08l30.74 0l0 14.52l-30.74 0Z" id="p92w150" />
<path d="M305.01 806.08l55.05 0l0 14.52l-55.05 0Z" id="p92w151" />
<path d="M363.27 806.08l26.73 0l0 14.52l-26.73 0Z" id="p92w152" />
<path d="M393.21 806.08l14.18 0l0 14.52l-14.18 0Z" id="p92w153" />
<path d="M143.76 822.75l63.04 0l0 14.52l-63.04 0Z" id="p92w154" />
<path d="M210 822.75l39.56 0l0 14.52l-39.56 0Z" id="p92w155" />
<path d="M252.77 822.75l9.89 0l0 14.52l-9.89 0Z" id="p92w156" />
<path d="M265.86 822.75l34.57 0l0 14.52l-34.57 0Z" id="p92w157" />
<path d="M303.64 822.75l23.97 0l0 14.52l-23.97 0Z" id="p92w158" />
<path d="M330.81 822.75l61.22 0l0 14.52l-61.22 0Z" id="p92w159" />
<path d="M143.76 839.42l26.21 0l0 14.52l-26.21 0Z" id="p92w160" />
<path d="M173.18 839.42l39.85 0l0 14.52l-39.85 0Z" id="p92w161" />
<path d="M216.23 839.42l65.76 0l0 14.52l-65.76 0Z" id="p92w162" />
<path d="M285.2 839.42l25.92 0l0 14.52l-25.92 0Z" id="p92w163" />
<path d="M143.75 864.45l10.41 0l0 14.61l-10.41 0Z" id="p92w164" />
<path d="M157.38 864.45l25.4 0l0 14.61l-25.4 0Z" id="p92w165" />
<path d="M185.98 864.45l49.17 0l0 14.61l-49.17 0Z" id="p92w166" />
<path d="M238.35 864.45l9.89 0l0 14.61l-9.89 0Z" id="p92w167" />
<path d="M251.45 864.45l34.52 0l0 14.61l-34.52 0Z" id="p92w168" />
<path d="M289.17 864.45l24.14 0l0 14.61l-24.14 0Z" id="p92w169" />
<path d="M316.52 864.45l61.4 0l0 14.61l-61.4 0Z" id="p92w170" />
<path d="M143.76 881.12l6.96 0l0 14.61l-6.96 0Z" id="p92w171" />
<path d="M153.92 881.12l21.92 0l0 14.61l-21.92 0Z" id="p92w172" />
<path d="M179.05 881.12l56.49 0l0 14.61l-56.49 0Z" id="p92w173" />
<path d="M238.75 881.12l55.57 0l0 14.61l-55.57 0Z" id="p92w174" />
<path d="M73.54 354.89l15.07 0l0 12.29l-15.07 0Z" id="p92w175" />
<path d="M52.89 366.11l35.72 0l0 12.3l-35.72 0Z" id="p92w176" />
<path d="M39.49 378.61l49.13 0l0 12.3l-49.13 0Z" id="p92w177" />
<path d="M62.22 407.73l26.4 0l0 12.29l-26.4 0Z" id="p92w178" />
<path d="M60.68 441.07l27.93 0l0 12.29l-27.93 0Z" id="p92w179" />
<path d="M160.24 746.2l16.26 0l0 16.96l-16.26 0Z" id="p92w180" />
<path d="M181.15 746.2l71.46 0l0 16.96l-71.46 0Z" id="p92w181" />
<path d="M60.68 807.88l27.93 0l0 12.29l-27.93 0Z" id="p92w182" />
<path d="M124.06 39.02l42.71 0l0 15.38l-42.71 0Z" id="p92w183" />
<path d="M208.73 38.6l45.75 0l0 16.09l-45.75 0Z" id="p92w184" />
<path d="M306.51 39.02l43.21 0l0 15.38l-43.21 0Z" id="p92w185" />
<path d="M414.03 39.02l28.68 0l0 15.38l-28.68 0Z" id="p92w186" />
<path d="M446.08 39.02l43.54 0l0 15.38l-43.54 0Z" id="p92w187" />
<path d="M522.82 39.02l32.54 0l0 15.38l-32.54 0Z" id="p92w188" />
<path d="M76.9 983l74.54 0l0 12.23l-74.54 0Z" id="p92w189" />
<path d="M145.34 122.1l26.32 0l0 15.42l-26.32 0Z" id="p92w190" />
<path d="M189.99 122.23l29.83 0l0 15.09l-29.83 0Z" id="p92w191" />
<path d="M223.43 122.23l45.38 0l0 15.09l-45.38 0Z" id="p92w192" />
<path d="M272.42 122.23l10.42 0l0 15.09l-10.42 0Z" id="p92w193" />
<path d="M286.46 122.23l45.37 0l0 15.09l-45.37 0Z" id="p92w194" />
<path d="M345.54 122.23l33.9 0l0 15.09l-33.9 0Z" id="p92w195" />
<path d="M145.34 138.9l20.54 0l0 15.09l-20.54 0Z" id="p92w196" />
<path d="M169.49 138.9l45.61 0l0 15.09l-45.61 0Z" id="p92w197" />
<path d="M218.71 138.9l48.76 0l0 15.09l-48.76 0Z" id="p92w198" />
<path d="M271.09 138.9l55.39 0l0 15.09l-55.39 0Z" id="p92w199" />
<path d="M330.09 138.9l28.26 0l0 15.09l-28.26 0Z" id="p92w200" />
<path d="M145.34 155.57l50.87 0l0 15.09l-50.87 0Z" id="p92w201" />
<path d="M199.82 155.57l15.89 0l0 15.09l-15.89 0Z" id="p92w202" />
<path d="M219.32 155.57l28.84 0l0 15.09l-28.84 0Z" id="p92w203" />
<path d="M251.77 155.57l34.73 0l0 15.09l-34.73 0Z" id="p92w204" />
<path d="M290.11 155.57l15.89 0l0 15.09l-15.89 0Z" id="p92w205" />
<path d="M309.6 155.57l24.62 0l0 15.09l-24.62 0Z" id="p92w206" />
<path d="M145.34 172.24l71.88 0l0 15.09l-71.88 0Z" id="p92w207" />
<path d="M220.83 172.24l27.82 0l0 15.09l-27.82 0Z" id="p92w208" />
<path d="M252.27 172.24l15.89 0l0 15.09l-15.89 0Z" id="p92w209" />
<path d="M271.77 172.24l68.59 0l0 15.09l-68.59 0Z" id="p92w210" />
<path d="M153.79 188.91l50.25 0l0 15.09l-50.25 0Z" id="p92w211" />
<path d="M207.65 188.91l7.84 0l0 15.09l-7.84 0Z" id="p92w212" />
<path d="M219.1 188.91l23.44 0l0 15.09l-23.44 0Z" id="p92w213" />
<path d="M246.15 188.91l33.9 0l0 15.09l-33.9 0Z" id="p92w214" />
<path d="M283.67 188.91l19.29 0l0 15.09l-19.29 0Z" id="p92w215" />
<path d="M306.57 188.91l44.88 0l0 15.09l-44.88 0Z" id="p92w216" />
<path d="M355.06 188.91l46.14 0l0 15.09l-46.14 0Z" id="p92w217" />
<path d="M145.34 205.57l47.39 0l0 15.09l-47.39 0Z" id="p92w218" />
<path d="M196.34 205.57l15.74 0l0 15.09l-15.74 0Z" id="p92w219" />
<path d="M215.69 205.57l37.07 0l0 15.09l-37.07 0Z" id="p92w220" />
<path d="M256.37 205.57l23.07 0l0 15.09l-23.07 0Z" id="p92w221" />
<path d="M283.05 205.57l53.98 0l0 15.09l-53.98 0Z" id="p92w222" />
<path d="M350.74 205.57l25.4 0l0 15.09l-25.4 0Z" id="p92w223" />
<path d="M145.34 222.24l56.19 0l0 15.09l-56.19 0Z" id="p92w224" />
<path d="M212.27 222.24l21.36 0l0 15.09l-21.36 0Z" id="p92w225" />
<path d="M246.33 222.24l28.49 0l0 15.09l-28.49 0Z" id="p92w226" />
<path d="M287.52 222.24l39.3 0l0 15.09l-39.3 0Z" id="p92w227" />
<path d="M339.52 222.24l17.08 0l0 15.09l-17.08 0Z" id="p92w228" />
<path d="M145.34 238.91l53.44 0l0 15.09l-53.44 0Z" id="p92w229" />
<path d="M219.93 238.91l51.16 0l0 15.09l-51.16 0Z" id="p92w230" />
<path d="M274.71 238.91l7.84 0l0 15.09l-7.84 0Z" id="p92w231" />
<path d="M286.16 238.91l28.26 0l0 15.09l-28.26 0Z" id="p92w232" />
<path d="M318.03 238.91l54.35 0l0 15.09l-54.35 0Z" id="p92w233" />
<path d="M376 238.91l13.91 0l0 15.09l-13.91 0Z" id="p92w234" />
<path d="M145.34 255.58l84.39 0l0 15.09l-84.39 0Z" id="p92w235" />
<path d="M245.61 255.58l10.42 0l0 15.09l-10.42 0Z" id="p92w236" />
<path d="M259.65 255.58l8.21 0l0 15.09l-8.21 0Z" id="p92w237" />
<path d="M283.05 255.58l28.26 0l0 15.09l-28.26 0Z" id="p92w238" />
<path d="M314.92 255.58l33.57 0l0 15.09l-33.57 0Z" id="p92w239" />
<path d="M352.1 255.58l26.64 0l0 15.09l-26.64 0Z" id="p92w240" />
<path d="M145.34 272.25l32.4 0l0 15.09l-32.4 0Z" id="p92w241" />
<path d="M181.35 272.25l26.5 0l0 15.09l-26.5 0Z" id="p92w242" />
<path d="M211.47 272.25l14.86 0l0 15.09l-14.86 0Z" id="p92w243" />
<path d="M229.93 272.25l37.19 0l0 15.09l-37.19 0Z" id="p92w244" />
<path d="M270.74 272.25l38.23 0l0 15.09l-38.23 0Z" id="p92w245" />
<path d="M312.58 272.25l20.96 0l0 15.09l-20.96 0Z" id="p92w246" />
<path d="M337.16 272.25l20.54 0l0 15.09l-20.54 0Z" id="p92w247" />
<path d="M361.31 272.25l38.67 0l0 15.09l-38.67 0Z" id="p92w248" />
<path d="M145.34 288.92l27.81 0l0 15.09l-27.81 0Z" id="p92w249" />
<path d="M176.76 288.92l26.3 0l0 15.09l-26.3 0Z" id="p92w250" />
<path d="M206.67 288.92l22.45 0l0 15.09l-22.45 0Z" id="p92w251" />
<path d="M232.74 288.92l31.89 0l0 15.09l-31.89 0Z" id="p92w252" />
<path d="M268.23 288.92l25.23 0l0 15.09l-25.23 0Z" id="p92w253" />
<path d="M297.07 288.92l55.43 0l0 15.09l-55.43 0Z" id="p92w254" />
<path d="M356.11 288.92l21.67 0l0 15.09l-21.67 0Z" id="p92w255" />
<path d="M381.39 288.92l15.89 0l0 15.09l-15.89 0Z" id="p92w256" />
<path d="M423.01 122.19l55.97 0l0 15.09l-55.97 0Z" id="p92w257" />
<path d="M482.59 122.19l24.07 0l0 15.09l-24.07 0Z" id="p92w258" />
<path d="M510.27 122.19l22.31 0l0 15.09l-22.31 0Z" id="p92w259" />
<path d="M536.2 122.19l30.86 0l0 15.09l-30.86 0Z" id="p92w260" />
<path d="M570.66 122.19l39.73 0l0 15.09l-39.73 0Z" id="p92w261" />
<path d="M614 122.19l15.89 0l0 15.09l-15.89 0Z" id="p92w262" />
<path d="M633.5 122.19l16.09 0l0 15.09l-16.09 0Z" id="p92w263" />
<path d="M423.01 138.86l15.89 0l0 15.09l-15.89 0Z" id="p92w264" />
<path d="M442.5 138.86l41.36 0l0 15.09l-41.36 0Z" id="p92w265" />
<path d="M487.47 138.86l11.26 0l0 15.09l-11.26 0Z" id="p92w266" />
<path d="M502.34 138.86l28.26 0l0 15.09l-28.26 0Z" id="p92w267" />
<path d="M534.22 138.86l65.38 0l0 15.09l-65.38 0Z" id="p92w268" />
<path d="M603.21 138.86l10.5 0l0 15.09l-10.5 0Z" id="p92w269" />
<path d="M617.32 138.86l42.66 0l0 15.09l-42.66 0Z" id="p92w270" />
<path d="M423.01 155.53l24.93 0l0 15.09l-24.93 0Z" id="p92w271" />
<path d="M451.55 155.53l59.62 0l0 15.09l-59.62 0Z" id="p92w272" />
<path d="M527.06 155.53l10.42 0l0 15.09l-10.42 0Z" id="p92w273" />
<path d="M541.09 155.53l8.21 0l0 15.09l-8.21 0Z" id="p92w274" />
<path d="M560.94 155.53l13.91 0l0 15.09l-13.91 0Z" id="p92w275" />
<path d="M578.45 155.53l10.42 0l0 15.09l-10.42 0Z" id="p92w276" />
<path d="M592.49 155.53l48.93 0l0 15.09l-48.93 0Z" id="p92w277" />
<path d="M645.03 155.53l28.26 0l0 15.09l-28.26 0Z" id="p92w278" />
<path d="M423.01 172.2l10.5 0l0 15.09l-10.5 0Z" id="p92w279" />
<path d="M437.12 172.2l49.13 0l0 15.09l-49.13 0Z" id="p92w280" />
<path d="M499.97 172.2l45.29 0l0 15.09l-45.29 0Z" id="p92w281" />
<path d="M548.87 172.2l15.06 0l0 15.09l-15.06 0Z" id="p92w282" />
<path d="M567.54 172.2l44.28 0l0 15.09l-44.28 0Z" id="p92w283" />
<path d="M615.43 172.2l15.55 0l0 15.09l-15.55 0Z" id="p92w284" />
<path d="M634.59 172.2l22.31 0l0 15.09l-22.31 0Z" id="p92w285" />
<path d="M423.01 188.87l37.89 0l0 15.09l-37.89 0Z" id="p92w286" />
<path d="M464.51 188.87l24.93 0l0 15.09l-24.93 0Z" id="p92w287" />
<path d="M493.05 188.87l15.89 0l0 15.09l-15.89 0Z" id="p92w288" />
<path d="M512.55 188.87l53.66 0l0 15.09l-53.66 0Z" id="p92w289" />
<path d="M569.82 188.87l25.23 0l0 15.09l-25.23 0Z" id="p92w290" />
<path d="M598.66 188.87l33.44 0l0 15.09l-33.44 0Z" id="p92w291" />
<path d="M423.01 205.54l29.83 0l0 15.09l-29.83 0Z" id="p92w292" />
<path d="M456.45 205.54l48.53 0l0 15.09l-48.53 0Z" id="p92w293" />
<path d="M508.59 205.54l24.93 0l0 15.09l-24.93 0Z" id="p92w294" />
<path d="M537.13 205.54l49.43 0l0 15.09l-49.43 0Z" id="p92w295" />
<path d="M597.31 205.54l28.26 0l0 15.09l-28.26 0Z" id="p92w296" />
<path d="M629.18 205.54l33.57 0l0 15.09l-33.57 0Z" id="p92w297" />
<path d="M423.01 222.2l31.41 0l0 15.09l-31.41 0Z" id="p92w298" />
<path d="M458.03 222.2l25.69 0l0 15.09l-25.69 0Z" id="p92w299" />
<path d="M487.33 222.2l48.76 0l0 15.09l-48.76 0Z" id="p92w300" />
<path d="M539.7 222.2l55.39 0l0 15.09l-55.39 0Z" id="p92w301" />
<path d="M598.71 222.2l15.89 0l0 15.09l-15.89 0Z" id="p92w302" />
<path d="M618.2 222.2l26.5 0l0 15.09l-26.5 0Z" id="p92w303" />
<path d="M423.01 238.87l62 0l0 15.09l-62 0Z" id="p92w304" />
<path d="M488.62 238.87l50.75 0l0 15.09l-50.75 0Z" id="p92w305" />
<path d="M542.98 238.87l13.91 0l0 15.09l-13.91 0Z" id="p92w306" />
<path d="M560.5 238.87l43.16 0l0 15.09l-43.16 0Z" id="p92w307" />
</svg>
