<?xml version="1.0" encoding="UTF-8"?>
<svg xmlns="http://www.w3.org/2000/svg" xmlns:xlink="http://www.w3.org/1999/xlink" version="1.1" baseProfile="full" width="768" height="1024" viewBox="0,0,768,1024" preserveAspectRatio="xMinYMin meet" >
<style type="text/css">
<![CDATA[
path {fill-opacity: 0.5;fill: #00aeef;visibility: hidden;}
]]>
</style>
<path d="M68.27 38.6l63.12 0l0 16.09l-63.12 0Z" id="p275w1" />
<path d="M572.91 981.95l118.19 0l0 12.23l-118.19 0Z" id="p275w2" />
<path d="M136.36 113.62l8.83 0l0 12.61l-8.83 0Z" id="p275w3" />
<path d="M147.97 113.62l21.82 0l0 12.61l-21.82 0Z" id="p275w4" />
<path d="M172.58 113.62l23.2 0l0 12.61l-23.2 0Z" id="p275w5" />
<path d="M198.57 113.62l9.74 0l0 12.61l-9.74 0Z" id="p275w6" />
<path d="M211.1 113.62l18.34 0l0 12.61l-18.34 0Z" id="p275w7" />
<path d="M232.22 113.62l31.11 0l0 12.61l-31.11 0Z" id="p275w8" />
<path d="M266.12 113.62l27.8 0l0 12.61l-27.8 0Z" id="p275w9" />
<path d="M296.7 113.62l17.18 0l0 12.61l-17.18 0Z" id="p275w10" />
<path d="M316.67 113.62l49.91 0l0 12.61l-49.91 0Z" id="p275w11" />
<path d="M369.36 113.62l26 0l0 12.61l-26 0Z" id="p275w12" />
<path d="M124.06 128.21l25.06 0l0 12.61l-25.06 0Z" id="p275w13" />
<path d="M151.9 128.21l36.06 0l0 12.61l-36.06 0Z" id="p275w14" />
<path d="M190.75 128.21l16.94 0l0 12.61l-16.94 0Z" id="p275w15" />
<path d="M210.48 128.21l48.98 0l0 12.61l-48.98 0Z" id="p275w16" />
<path d="M270.83 128.21l35.74 0l0 12.61l-35.74 0Z" id="p275w17" />
<path d="M330.8 128.21l8.83 0l0 12.61l-8.83 0Z" id="p275w18" />
<path d="M342.41 128.21l17.17 0l0 12.61l-17.17 0Z" id="p275w19" />
<path d="M362.37 128.21l31.5 0l0 12.61l-31.5 0Z" id="p275w20" />
<path d="M124.06 142.8l16.94 0l0 12.61l-16.94 0Z" id="p275w21" />
<path d="M143.79 142.8l48.98 0l0 12.61l-48.98 0Z" id="p275w22" />
<path d="M204.14 142.8l35.74 0l0 12.61l-35.74 0Z" id="p275w23" />
<path d="M242.66 142.8l15.31 0l0 12.61l-15.31 0Z" id="p275w24" />
<path d="M260.76 142.8l56.5 0l0 12.61l-56.5 0Z" id="p275w25" />
<path d="M320.05 142.8l12.07 0l0 12.61l-12.07 0Z" id="p275w26" />
<path d="M334.9 142.8l26.91 0l0 12.61l-26.91 0Z" id="p275w27" />
<path d="M364.6 142.8l16.94 0l0 12.61l-16.94 0Z" id="p275w28" />
<path d="M124.06 157.4l31.58 0l0 12.61l-31.58 0Z" id="p275w29" />
<path d="M178.72 157.4l8.83 0l0 12.61l-8.83 0Z" id="p275w30" />
<path d="M190.33 157.4l33.41 0l0 12.61l-33.41 0Z" id="p275w31" />
<path d="M226.53 157.4l30.17 0l0 12.61l-30.17 0Z" id="p275w32" />
<path d="M259.48 157.4l16.94 0l0 12.61l-16.94 0Z" id="p275w33" />
<path d="M279.21 157.4l31.58 0l0 12.61l-31.58 0Z" id="p275w34" />
<path d="M313.57 157.4l12.31 0l0 12.61l-12.31 0Z" id="p275w35" />
<path d="M328.67 157.4l36.06 0l0 12.61l-36.06 0Z" id="p275w36" />
<path d="M367.51 157.4l16.94 0l0 12.61l-16.94 0Z" id="p275w37" />
<path d="M124.06 171.99l20.44 0l0 12.61l-20.44 0Z" id="p275w38" />
<path d="M147.28 171.99l11.84 0l0 12.61l-11.84 0Z" id="p275w39" />
<path d="M161.91 171.99l42.95 0l0 12.61l-42.95 0Z" id="p275w40" />
<path d="M229.09 171.99l8.83 0l0 12.61l-8.83 0Z" id="p275w41" />
<path d="M240.7 171.99l8.36 0l0 12.61l-8.36 0Z" id="p275w42" />
<path d="M251.85 171.99l32.43 0l0 12.61l-32.43 0Z" id="p275w43" />
<path d="M287.06 171.99l16.94 0l0 12.61l-16.94 0Z" id="p275w44" />
<path d="M306.79 171.99l30.42 0l0 12.61l-30.42 0Z" id="p275w45" />
<path d="M339.99 171.99l8.36 0l0 12.61l-8.36 0Z" id="p275w46" />
<path d="M351.13 171.99l12.07 0l0 12.61l-12.07 0Z" id="p275w47" />
<path d="M365.99 171.99l15.31 0l0 12.61l-15.31 0Z" id="p275w48" />
<path d="M124.06 186.58l27.84 0l0 12.61l-27.84 0Z" id="p275w49" />
<path d="M154.69 186.58l16.94 0l0 12.61l-16.94 0Z" id="p275w50" />
<path d="M174.42 186.58l48.51 0l0 12.61l-48.51 0Z" id="p275w51" />
<path d="M246.69 186.58l8.83 0l0 12.61l-8.83 0Z" id="p275w52" />
<path d="M258.3 186.58l8.36 0l0 12.61l-8.36 0Z" id="p275w53" />
<path d="M269.44 186.58l12.07 0l0 12.61l-12.07 0Z" id="p275w54" />
<path d="M284.3 186.58l34.34 0l0 12.61l-34.34 0Z" id="p275w55" />
<path d="M321.42 186.58l16.94 0l0 12.61l-16.94 0Z" id="p275w56" />
<path d="M341.15 186.58l48.51 0l0 12.61l-48.51 0Z" id="p275w57" />
<path d="M124.06 201.17l33.41 0l0 12.61l-33.41 0Z" id="p275w58" />
<path d="M160.26 201.17l12.07 0l0 12.61l-12.07 0Z" id="p275w59" />
<path d="M175.12 201.17l39.31 0l0 12.61l-39.31 0Z" id="p275w60" />
<path d="M217.21 201.17l16.94 0l0 12.61l-16.94 0Z" id="p275w61" />
<path d="M236.93 201.17l13 0l0 12.61l-13 0Z" id="p275w62" />
<path d="M265.8 201.17l8.83 0l0 12.61l-8.83 0Z" id="p275w63" />
<path d="M277.41 201.17l22.29 0l0 12.61l-22.29 0Z" id="p275w64" />
<path d="M302.49 201.17l24.84 0l0 12.61l-24.84 0Z" id="p275w65" />
<path d="M330.11 201.17l27.8 0l0 12.61l-27.8 0Z" id="p275w66" />
<path d="M360.69 201.17l16.25 0l0 12.61l-16.25 0Z" id="p275w67" />
<path d="M124.06 215.76l49.91 0l0 12.61l-49.91 0Z" id="p275w68" />
<path d="M176.76 215.76l8.36 0l0 12.61l-8.36 0Z" id="p275w69" />
<path d="M187.9 215.76l36.99 0l0 12.61l-36.99 0Z" id="p275w70" />
<path d="M227.67 215.76l16.94 0l0 12.61l-16.94 0Z" id="p275w71" />
<path d="M247.4 215.76l12.31 0l0 12.61l-12.31 0Z" id="p275w72" />
<path d="M262.49 215.76l24.14 0l0 12.61l-24.14 0Z" id="p275w73" />
<path d="M289.42 215.76l22.29 0l0 12.61l-22.29 0Z" id="p275w74" />
<path d="M314.5 215.76l32.95 0l0 12.61l-32.95 0Z" id="p275w75" />
<path d="M350.24 215.76l25.07 0l0 12.61l-25.07 0Z" id="p275w76" />
<path d="M124.06 230.35l27.38 0l0 12.61l-27.38 0Z" id="p275w77" />
<path d="M180.63 230.35l13.55 0l0 12.61l-13.55 0Z" id="p275w78" />
<path d="M196.96 230.35l29.01 0l0 12.61l-29.01 0Z" id="p275w79" />
<path d="M241.84 230.35l8.83 0l0 12.61l-8.83 0Z" id="p275w80" />
<path d="M253.45 230.35l33.41 0l0 12.61l-33.41 0Z" id="p275w81" />
<path d="M289.65 230.35l9.74 0l0 12.61l-9.74 0Z" id="p275w82" />
<path d="M302.18 230.35l36.9 0l0 12.61l-36.9 0Z" id="p275w83" />
<path d="M341.86 230.35l43.57 0l0 12.61l-43.57 0Z" id="p275w84" />
<path d="M124.06 244.95l16.94 0l0 12.61l-16.94 0Z" id="p275w85" />
<path d="M143.79 244.95l24.6 0l0 12.61l-24.6 0Z" id="p275w86" />
<path d="M171.17 244.95l11.84 0l0 12.61l-11.84 0Z" id="p275w87" />
<path d="M185.8 244.95l48.98 0l0 12.61l-48.98 0Z" id="p275w88" />
<path d="M237.56 244.95l33.28 0l0 12.61l-33.28 0Z" id="p275w89" />
<path d="M273.63 244.95l27.61 0l0 12.61l-27.61 0Z" id="p275w90" />
<path d="M304.02 244.95l18.11 0l0 12.61l-18.11 0Z" id="p275w91" />
<path d="M324.92 244.95l18.56 0l0 12.61l-18.56 0Z" id="p275w92" />
<path d="M346.26 244.95l30.65 0l0 12.61l-30.65 0Z" id="p275w93" />
<path d="M124.06 259.54l29.24 0l0 12.61l-29.24 0Z" id="p275w94" />
<path d="M156.09 259.54l23.21 0l0 12.61l-23.21 0Z" id="p275w95" />
<path d="M182.09 259.54l15.31 0l0 12.61l-15.31 0Z" id="p275w96" />
<path d="M200.18 259.54l45.04 0l0 12.61l-45.04 0Z" id="p275w97" />
<path d="M136.36 281.42l6.04 0l0 12.61l-6.04 0Z" id="p275w98" />
<path d="M161.67 281.42l21.35 0l0 12.61l-21.35 0Z" id="p275w99" />
<path d="M185.81 281.42l48.04 0l0 12.61l-48.04 0Z" id="p275w100" />
<path d="M236.64 281.42l12.85 0l0 12.61l-12.85 0Z" id="p275w101" />
<path d="M252.27 281.42l53.16 0l0 12.61l-53.16 0Z" id="p275w102" />
<path d="M308.22 281.42l21.82 0l0 12.61l-21.82 0Z" id="p275w103" />
<path d="M332.83 281.42l26.63 0l0 12.61l-26.63 0Z" id="p275w104" />
<path d="M362.24 281.42l23.21 0l0 12.61l-23.21 0Z" id="p275w105" />
<path d="M124.06 296.01l18.11 0l0 12.61l-18.11 0Z" id="p275w106" />
<path d="M144.96 296.01l35 0l0 12.61l-35 0Z" id="p275w107" />
<path d="M182.74 296.01l12.07 0l0 12.61l-12.07 0Z" id="p275w108" />
<path d="M197.59 296.01l44.12 0l0 12.61l-44.12 0Z" id="p275w109" />
<path d="M265.95 296.01l22.74 0l0 12.61l-22.74 0Z" id="p275w110" />
<path d="M291.47 296.01l18.11 0l0 12.61l-18.11 0Z" id="p275w111" />
<path d="M312.37 296.01l28.54 0l0 12.61l-28.54 0Z" id="p275w112" />
<path d="M343.7 296.01l49.43 0l0 12.61l-49.43 0Z" id="p275w113" />
<path d="M124.06 310.6l12.08 0l0 12.61l-12.08 0Z" id="p275w114" />
<path d="M138.93 310.6l48.82 0l0 12.61l-48.82 0Z" id="p275w115" />
<path d="M190.53 310.6l34.82 0l0 12.61l-34.82 0Z" id="p275w116" />
<path d="M228.14 310.6l16.94 0l0 12.61l-16.94 0Z" id="p275w117" />
<path d="M247.87 310.6l33.67 0l0 12.61l-33.67 0Z" id="p275w118" />
<path d="M304.61 310.6l36.45 0l0 12.61l-36.45 0Z" id="p275w119" />
<path d="M343.84 310.6l42.94 0l0 12.61l-42.94 0Z" id="p275w120" />
<path d="M124.06 325.2l9.75 0l0 12.61l-9.75 0Z" id="p275w121" />
<path d="M136.6 325.2l8.59 0l0 12.61l-8.59 0Z" id="p275w122" />
<path d="M147.97 325.2l20.43 0l0 12.61l-20.43 0Z" id="p275w123" />
<path d="M171.18 325.2l11.84 0l0 12.61l-11.84 0Z" id="p275w124" />
<path d="M185.81 325.2l12.31 0l0 12.61l-12.31 0Z" id="p275w125" />
<path d="M200.91 325.2l22.74 0l0 12.61l-22.74 0Z" id="p275w126" />
<path d="M226.43 325.2l33.45 0l0 12.61l-33.45 0Z" id="p275w127" />
<path d="M262.67 325.2l9.74 0l0 12.61l-9.74 0Z" id="p275w128" />
<path d="M275.2 325.2l8.59 0l0 12.61l-8.59 0Z" id="p275w129" />
<path d="M286.57 325.2l30.02 0l0 12.61l-30.02 0Z" id="p275w130" />
<path d="M319.37 325.2l12.07 0l0 12.61l-12.07 0Z" id="p275w131" />
<path d="M334.23 325.2l32.97 0l0 12.61l-32.97 0Z" id="p275w132" />
<path d="M369.98 325.2l17.02 0l0 12.61l-17.02 0Z" id="p275w133" />
<path d="M124.06 339.79l47.37 0l0 12.61l-47.37 0Z" id="p275w134" />
<path d="M174.22 339.79l17.42 0l0 12.61l-17.42 0Z" id="p275w135" />
<path d="M215.88 339.79l73.58 0l0 12.61l-73.58 0Z" id="p275w136" />
<path d="M292.24 339.79l28.71 0l0 12.61l-28.71 0Z" id="p275w137" />
<path d="M323.74 339.79l16.94 0l0 12.61l-16.94 0Z" id="p275w138" />
<path d="M343.47 339.79l39.22 0l0 12.61l-39.22 0Z" id="p275w139" />
<path d="M124.06 354.38l6.5 0l0 12.61l-6.5 0Z" id="p275w140" />
<path d="M130.56 354.38l18.11 0l0 12.61l-18.11 0Z" id="p275w141" />
<path d="M151.46 354.38l22.97 0l0 12.61l-22.97 0Z" id="p275w142" />
<path d="M177.21 354.38l13.46 0l0 12.61l-13.46 0Z" id="p275w143" />
<path d="M193.46 354.38l30.4 0l0 12.61l-30.4 0Z" id="p275w144" />
<path d="M226.64 354.38l41.86 0l0 12.61l-41.86 0Z" id="p275w145" />
<path d="M271.29 354.38l42.55 0l0 12.61l-42.55 0Z" id="p275w146" />
<path d="M316.62 354.38l22.05 0l0 12.61l-22.05 0Z" id="p275w147" />
<path d="M341.46 354.38l33.42 0l0 12.61l-33.42 0Z" id="p275w148" />
<path d="M124.06 368.97l30.63 0l0 12.61l-30.63 0Z" id="p275w149" />
<path d="M157.48 368.97l33.67 0l0 12.61l-33.67 0Z" id="p275w150" />
<path d="M193.93 368.97l33.67 0l0 12.61l-33.67 0Z" id="p275w151" />
<path d="M251.35 368.97l13.55 0l0 12.61l-13.55 0Z" id="p275w152" />
<path d="M267.69 368.97l21.13 0l0 12.61l-21.13 0Z" id="p275w153" />
<path d="M291.6 368.97l23.9 0l0 12.61l-23.9 0Z" id="p275w154" />
<path d="M318.28 368.97l8.59 0l0 12.61l-8.59 0Z" id="p275w155" />
<path d="M329.65 368.97l30.02 0l0 12.61l-30.02 0Z" id="p275w156" />
<path d="M362.46 368.97l22.05 0l0 12.61l-22.05 0Z" id="p275w157" />
<path d="M124.06 383.56l30.64 0l0 12.61l-30.64 0Z" id="p275w158" />
<path d="M157.49 383.56l6.04 0l0 12.61l-6.04 0Z" id="p275w159" />
<path d="M166.31 383.56l23.52 0l0 12.61l-23.52 0Z" id="p275w160" />
<path d="M192.62 383.56l43.17 0l0 12.61l-43.17 0Z" id="p275w161" />
<path d="M238.57 383.56l16.94 0l0 12.61l-16.94 0Z" id="p275w162" />
<path d="M258.3 383.56l25.53 0l0 12.61l-25.53 0Z" id="p275w163" />
<path d="M286.61 383.56l28.32 0l0 12.61l-28.32 0Z" id="p275w164" />
<path d="M336.61 383.56l24.38 0l0 12.61l-24.38 0Z" id="p275w165" />
<path d="M124.06 398.16l28.32 0l0 12.61l-28.32 0Z" id="p275w166" />
<path d="M155.17 398.16l16.24 0l0 12.61l-16.24 0Z" id="p275w167" />
<path d="M174.2 398.16l18.11 0l0 12.61l-18.11 0Z" id="p275w168" />
<path d="M195.1 398.16l41.79 0l0 12.61l-41.79 0Z" id="p275w169" />
<path d="M239.67 398.16l22.29 0l0 12.61l-22.29 0Z" id="p275w170" />
<path d="M264.75 398.16l8.59 0l0 12.61l-8.59 0Z" id="p275w171" />
<path d="M276.12 398.16l53.61 0l0 12.61l-53.61 0Z" id="p275w172" />
<path d="M332.52 398.16l42.15 0l0 12.61l-42.15 0Z" id="p275w173" />
<path d="M444.96 113.68l39.33 0l0 12.61l-39.33 0Z" id="p275w174" />
<path d="M487.07 113.68l12.85 0l0 12.61l-12.85 0Z" id="p275w175" />
<path d="M502.71 113.68l30.88 0l0 12.61l-30.88 0Z" id="p275w176" />
<path d="M536.37 113.68l8.59 0l0 12.61l-8.59 0Z" id="p275w177" />
<path d="M547.74 113.68l21.82 0l0 12.61l-21.82 0Z" id="p275w178" />
<path d="M572.35 113.68l18.56 0l0 12.61l-18.56 0Z" id="p275w179" />
<path d="M593.7 113.68l41.31 0l0 12.61l-41.31 0Z" id="p275w180" />
<path d="M637.79 113.68l22.97 0l0 12.61l-22.97 0Z" id="p275w181" />
<path d="M663.55 113.68l28.31 0l0 12.61l-28.31 0Z" id="p275w182" />
<path d="M432.24 128.27l17.02 0l0 12.61l-17.02 0Z" id="p275w183" />
<path d="M452.05 128.27l40.86 0l0 12.61l-40.86 0Z" id="p275w184" />
<path d="M501.27 128.27l8.59 0l0 12.61l-8.59 0Z" id="p275w185" />
<path d="M512.64 128.27l57.09 0l0 12.61l-57.09 0Z" id="p275w186" />
<path d="M572.52 128.27l14.61 0l0 12.61l-14.61 0Z" id="p275w187" />
<path d="M589.92 128.27l31.57 0l0 12.61l-31.57 0Z" id="p275w188" />
<path d="M645.72 128.27l9.98 0l0 12.61l-9.98 0Z" id="p275w189" />
<path d="M658.49 128.27l22.29 0l0 12.61l-22.29 0Z" id="p275w190" />
<path d="M432.24 142.86l28.31 0l0 12.61l-28.31 0Z" id="p275w191" />
<path d="M471.93 142.86l30.88 0l0 12.61l-30.88 0Z" id="p275w192" />
<path d="M505.59 142.86l8.59 0l0 12.61l-8.59 0Z" id="p275w193" />
<path d="M516.96 142.86l31.98 0l0 12.61l-31.98 0Z" id="p275w194" />
<path d="M564.81 142.86l32.9 0l0 12.61l-32.9 0Z" id="p275w195" />
<path d="M600.49 142.86l9.51 0l0 12.61l-9.51 0Z" id="p275w196" />
<path d="M612.79 142.86l23.21 0l0 12.61l-23.21 0Z" id="p275w197" />
<path d="M638.79 142.86l17.18 0l0 12.61l-17.18 0Z" id="p275w198" />
<path d="M658.76 142.86l9.51 0l0 12.61l-9.51 0Z" id="p275w199" />
<path d="M671.06 142.86l12.07 0l0 12.61l-12.07 0Z" id="p275w200" />
<path d="M432.24 157.45l39.82 0l0 12.61l-39.82 0Z" id="p275w201" />
<path d="M484.69 157.45l45.27 0l0 12.61l-45.27 0Z" id="p275w202" />
<path d="M532.74 157.45l39.82 0l0 12.61l-39.82 0Z" id="p275w203" />
<path d="M575.34 157.45l22.27 0l0 12.61l-22.27 0Z" id="p275w204" />
<path d="M600.4 157.45l18.56 0l0 12.61l-18.56 0Z" id="p275w205" />
<path d="M621.74 157.45l39.71 0l0 12.61l-39.71 0Z" id="p275w206" />
<path d="M441.53 172.04l13.55 0l0 12.61l-13.55 0Z" id="p275w207" />
<path d="M457.86 172.04l47.37 0l0 12.61l-47.37 0Z" id="p275w208" />
<path d="M508.02 172.04l29.94 0l0 12.61l-29.94 0Z" id="p275w209" />
<path d="M540.75 172.04l40.62 0l0 12.61l-40.62 0Z" id="p275w210" />
<path d="M584.16 172.04l8.59 0l0 12.61l-8.59 0Z" id="p275w211" />
<path d="M595.53 172.04l28.95 0l0 12.61l-28.95 0Z" id="p275w212" />
<path d="M627.27 172.04l22.97 0l0 12.61l-22.97 0Z" id="p275w213" />
<path d="M653.02 172.04l8.36 0l0 12.61l-8.36 0Z" id="p275w214" />
<path d="M664.17 172.04l12.07 0l0 12.61l-12.07 0Z" id="p275w215" />
<path d="M679.02 172.04l22.52 0l0 12.61l-22.52 0Z" id="p275w216" />
<path d="M432.24 186.64l16.94 0l0 12.61l-16.94 0Z" id="p275w217" />
<path d="M451.97 186.64l18.11 0l0 12.61l-18.11 0Z" id="p275w218" />
<path d="M472.87 186.64l19.97 0l0 12.61l-19.97 0Z" id="p275w219" />
<path d="M495.62 186.64l22.05 0l0 12.61l-22.05 0Z" id="p275w220" />
<path d="M520.46 186.64l8.36 0l0 12.61l-8.36 0Z" id="p275w221" />
<path d="M531.6 186.64l50.91 0l0 12.61l-50.91 0Z" id="p275w222" />
<path d="M585.29 186.64l23.21 0l0 12.61l-23.21 0Z" id="p275w223" />
<path d="M611.29 186.64l18.11 0l0 12.61l-18.11 0Z" id="p275w224" />
<path d="M632.19 186.64l35 0l0 12.61l-35 0Z" id="p275w225" />
<path d="M669.97 186.64l12.07 0l0 12.61l-12.07 0Z" id="p275w226" />
<path d="M432.24 201.23l44.12 0l0 12.61l-44.12 0Z" id="p275w227" />
<path d="M496.88 201.23l13.55 0l0 12.61l-13.55 0Z" id="p275w228" />
<path d="M513.22 201.23l47.37 0l0 12.61l-47.37 0Z" id="p275w229" />
<path d="M563.38 201.23l69.04 0l0 12.61l-69.04 0Z" id="p275w230" />
<path d="M635.2 201.23l22.97 0l0 12.61l-22.97 0Z" id="p275w231" />
<path d="M660.96 201.23l23.91 0l0 12.61l-23.91 0Z" id="p275w232" />
<path d="M432.24 215.82l25.77 0l0 12.61l-25.77 0Z" id="p275w233" />
<path d="M460.8 215.82l8.59 0l0 12.61l-8.59 0Z" id="p275w234" />
<path d="M472.17 215.82l36.45 0l0 12.61l-36.45 0Z" id="p275w235" />
<path d="M511.4 215.82l16.94 0l0 12.61l-16.94 0Z" id="p275w236" />
<path d="M531.13 215.82l25.53 0l0 12.61l-25.53 0Z" id="p275w237" />
<path d="M559.44 215.82l48.06 0l0 12.61l-48.06 0Z" id="p275w238" />
<path d="M610.29 215.82l21.58 0l0 12.61l-21.58 0Z" id="p275w239" />
<path d="M634.66 215.82l17.43 0l0 12.61l-17.43 0Z" id="p275w240" />
<path d="M444.54 237.7l42.27 0l0 12.61l-42.27 0Z" id="p275w241" />
<path d="M489.6 237.7l21.58 0l0 12.61l-21.58 0Z" id="p275w242" />
<path d="M513.97 237.7l26.94 0l0 12.61l-26.94 0Z" id="p275w243" />
<path d="M543.69 237.7l22.52 0l0 12.61l-22.52 0Z" id="p275w244" />
<path d="M569 237.7l8.36 0l0 12.61l-8.36 0Z" id="p275w245" />
<path d="M580.15 237.7l14.24 0l0 12.61l-14.24 0Z" id="p275w246" />
<path d="M597.17 237.7l24.6 0l0 12.61l-24.6 0Z" id="p275w247" />
<path d="M624.55 237.7l19.98 0l0 12.61l-19.98 0Z" id="p275w248" />
<path d="M668.76 237.7l32.82 0l0 12.61l-32.82 0Z" id="p275w249" />
<path d="M432.24 252.29l10.67 0l0 12.61l-10.67 0Z" id="p275w250" />
<path d="M445.7 252.29l32.04 0l0 12.61l-32.04 0Z" id="p275w251" />
<path d="M480.52 252.29l22.52 0l0 12.61l-22.52 0Z" id="p275w252" />
<path d="M505.83 252.29l26.94 0l0 12.61l-26.94 0Z" id="p275w253" />
<path d="M535.56 252.29l14.61 0l0 12.61l-14.61 0Z" id="p275w254" />
<path d="M552.96 252.29l18.56 0l0 12.61l-18.56 0Z" id="p275w255" />
<path d="M574.3 252.29l39.71 0l0 12.61l-39.71 0Z" id="p275w256" />
<path d="M637.08 252.29l22.74 0l0 12.61l-22.74 0Z" id="p275w257" />
<path d="M662.61 252.29l18.11 0l0 12.61l-18.11 0Z" id="p275w258" />
<path d="M432.24 266.89l32.04 0l0 12.61l-32.04 0Z" id="p275w259" />
<path d="M467.07 266.89l60.1 0l0 12.61l-60.1 0Z" id="p275w260" />
<path d="M529.95 266.89l22.52 0l0 12.61l-22.52 0Z" id="p275w261" />
<path d="M555.26 266.89l13.46 0l0 12.61l-13.46 0Z" id="p275w262" />
<path d="M571.5 266.89l22.05 0l0 12.61l-22.05 0Z" id="p275w263" />
<path d="M596.34 266.89l59.59 0l0 12.61l-59.59 0Z" id="p275w264" />
<path d="M658.72 266.89l18.56 0l0 12.61l-18.56 0Z" id="p275w265" />
<path d="M680.06 266.89l20.2 0l0 12.61l-20.2 0Z" id="p275w266" />
<path d="M445.01 281.48l26.94 0l0 12.61l-26.94 0Z" id="p275w267" />
<path d="M474.74 281.48l42.59 0l0 12.61l-42.59 0Z" id="p275w268" />
<path d="M520.11 281.48l23.21 0l0 12.61l-23.21 0Z" id="p275w269" />
<path d="M546.11 281.48l18.11 0l0 12.61l-18.11 0Z" id="p275w270" />
<path d="M567.01 281.48l54.32 0l0 12.61l-54.32 0Z" id="p275w271" />
<path d="M624.11 281.48l22.52 0l0 12.61l-22.52 0Z" id="p275w272" />
<path d="M649.42 281.48l12.85 0l0 12.61l-12.85 0Z" id="p275w273" />
<path d="M665.06 281.48l29.72 0l0 12.61l-29.72 0Z" id="p275w274" />
<path d="M432.24 296.07l8.59 0l0 12.61l-8.59 0Z" id="p275w275" />
<path d="M443.61 296.07l24.15 0l0 12.61l-24.15 0Z" id="p275w276" />
<path d="M491.53 296.07l16.01 0l0 12.61l-16.01 0Z" id="p275w277" />
<path d="M510.33 296.07l23.15 0l0 12.61l-23.15 0Z" id="p275w278" />
<path d="M536.27 296.07l22.52 0l0 12.61l-22.52 0Z" id="p275w279" />
<path d="M561.58 296.07l26.94 0l0 12.61l-26.94 0Z" id="p275w280" />
<path d="M591.3 296.07l40.88 0l0 12.61l-40.88 0Z" id="p275w281" />
<path d="M634.96 296.07l16.25 0l0 12.61l-16.25 0Z" id="p275w282" />
<path d="M654 296.07l47.37 0l0 12.61l-47.37 0Z" id="p275w283" />
<path d="M432.24 310.66l12.07 0l0 12.61l-12.07 0Z" id="p275w284" />
<path d="M447.1 310.66l53.39 0l0 12.61l-53.39 0Z" id="p275w285" />
<path d="M522.17 310.66l16.02 0l0 12.61l-16.02 0Z" id="p275w286" />
<path d="M540.98 310.66l10.67 0l0 12.61l-10.67 0Z" id="p275w287" />
<path d="M554.43 310.66l34.36 0l0 12.61l-34.36 0Z" id="p275w288" />
<path d="M591.58 310.66l26.94 0l0 12.61l-26.94 0Z" id="p275w289" />
<path d="M621.31 310.66l45.72 0l0 12.61l-45.72 0Z" id="p275w290" />
<path d="M669.82 310.66l12.07 0l0 12.61l-12.07 0Z" id="p275w291" />
<path d="M432.24 325.25l25.15 0l0 12.61l-25.15 0Z" id="p275w292" />
<path d="M460.18 325.25l22.52 0l0 12.61l-22.52 0Z" id="p275w293" />
<path d="M485.49 325.25l17.18 0l0 12.61l-17.18 0Z" id="p275w294" />
<path d="M505.46 325.25l54.32 0l0 12.61l-54.32 0Z" id="p275w295" />
<path d="M571.15 325.25l34.36 0l0 12.61l-34.36 0Z" id="p275w296" />
</svg>
