<?xml version="1.0" encoding="UTF-8"?>
<svg xmlns="http://www.w3.org/2000/svg" xmlns:xlink="http://www.w3.org/1999/xlink" version="1.1" baseProfile="full" width="768" height="1024" viewBox="0,0,768,1024" preserveAspectRatio="xMinYMin meet" >
<style type="text/css">
<![CDATA[
path {fill-opacity: 0.5;fill: #00aeef;visibility: hidden;}
]]>
</style>
<path d="M76.9 983.66l126.47 0l0 12.23l-126.47 0Z" id="p266w1" />
<path d="M124.06 38.6l77.83 0l0 16.09l-77.83 0Z" id="p266w2" />
<path d="M124.06 112.51l19.44 0l0 12.23l-19.44 0Z" id="p266w3" />
<path d="M146.2 112.45l55.59 0l0 12.29l-55.59 0Z" id="p266w4" />
<path d="M204.49 112.51l44.33 0l0 12.23l-44.33 0Z" id="p266w5" />
<path d="M251.52 112.51l11.04 0l0 12.23l-11.04 0Z" id="p266w6" />
<path d="M265.26 112.26l18.72 0l0 12.56l-18.72 0Z" id="p266w7" />
<path d="M124.06 127.74l64.97 0l0 12.29l-64.97 0Z" id="p266w8" />
<path d="M191.73 127.79l50.41 0l0 12.23l-50.41 0Z" id="p266w9" />
<path d="M244.84 127.55l22.96 0l0 12.56l-22.96 0Z" id="p266w10" />
<path d="M124.06 143.08l19.14 0l0 12.23l-19.14 0Z" id="p266w11" />
<path d="M145.9 143.08l39.39 0l0 12.23l-39.39 0Z" id="p266w12" />
<path d="M188 143.02l53.74 0l0 12.29l-53.74 0Z" id="p266w13" />
<path d="M244.44 143.08l29.49 0l0 12.23l-29.49 0Z" id="p266w14" />
<path d="M276.63 143.08l23.19 0l0 12.23l-23.19 0Z" id="p266w15" />
<path d="M133.91 158.36l19.82 0l0 12.23l-19.82 0Z" id="p266w16" />
<path d="M156.43 158.36l38.04 0l0 12.23l-38.04 0Z" id="p266w17" />
<path d="M197.17 158.36l11.7 0l0 12.23l-11.7 0Z" id="p266w18" />
<path d="M211.57 158.36l28.58 0l0 12.23l-28.58 0Z" id="p266w19" />
<path d="M242.85 158.11l18.92 0l0 12.56l-18.92 0Z" id="p266w20" />
<path d="M124.06 173.64l20.04 0l0 12.23l-20.04 0Z" id="p266w21" />
<path d="M146.8 173.64l19.44 0l0 12.23l-19.44 0Z" id="p266w22" />
<path d="M168.94 173.59l57.31 0l0 12.29l-57.31 0Z" id="p266w23" />
<path d="M228.96 173.64l47.48 0l0 12.23l-47.48 0Z" id="p266w24" />
<path d="M279.14 173.64l11.04 0l0 12.23l-11.04 0Z" id="p266w25" />
<path d="M133.91 188.93l12.16 0l0 12.23l-12.16 0Z" id="p266w26" />
<path d="M148.77 188.68l15.34 0l0 12.56l-15.34 0Z" id="p266w27" />
<path d="M124.06 204.21l19.44 0l0 12.23l-19.44 0Z" id="p266w28" />
<path d="M146.2 204.15l50.94 0l0 12.29l-50.94 0Z" id="p266w29" />
<path d="M199.85 204.21l31.07 0l0 12.23l-31.07 0Z" id="p266w30" />
<path d="M233.61 204.21l11.04 0l0 12.23l-11.04 0Z" id="p266w31" />
<path d="M247.35 203.96l18.92 0l0 12.56l-18.92 0Z" id="p266w32" />
<path d="M124.06 219.49l19.44 0l0 12.23l-19.44 0Z" id="p266w33" />
<path d="M146.2 219.44l46.76 0l0 12.29l-46.76 0Z" id="p266w34" />
<path d="M195.67 219.49l57.18 0l0 12.23l-57.18 0Z" id="p266w35" />
<path d="M255.54 219.49l11.04 0l0 12.23l-11.04 0Z" id="p266w36" />
<path d="M269.28 219.25l15.54 0l0 12.56l-15.54 0Z" id="p266w37" />
<path d="M133.91 234.78l18.46 0l0 12.23l-18.46 0Z" id="p266w38" />
<path d="M155.07 234.78l46.58 0l0 12.23l-46.58 0Z" id="p266w39" />
<path d="M204.36 234.78l49.06 0l0 12.23l-49.06 0Z" id="p266w40" />
<path d="M256.12 234.53l15.54 0l0 12.56l-15.54 0Z" id="p266w41" />
<path d="M124.06 250.06l19.44 0l0 12.23l-19.44 0Z" id="p266w42" />
<path d="M146.2 250l47.77 0l0 12.29l-47.77 0Z" id="p266w43" />
<path d="M196.68 250.06l35.1 0l0 12.23l-35.1 0Z" id="p266w44" />
<path d="M234.48 250.06l11.04 0l0 12.23l-11.04 0Z" id="p266w45" />
<path d="M248.22 249.81l15.34 0l0 12.56l-15.34 0Z" id="p266w46" />
<path d="M124.06 265.29l47.77 0l0 12.29l-47.77 0Z" id="p266w47" />
<path d="M176.79 265.34l19.44 0l0 12.23l-19.44 0Z" id="p266w48" />
<path d="M198.93 265.34l10.82 0l0 12.23l-10.82 0Z" id="p266w49" />
<path d="M212.45 265.34l15.76 0l0 12.23l-15.76 0Z" id="p266w50" />
<path d="M230.91 265.34l35.1 0l0 12.23l-35.1 0Z" id="p266w51" />
<path d="M268.71 265.34l11.7 0l0 12.23l-11.7 0Z" id="p266w52" />
<path d="M283.12 265.34l21.37 0l0 12.23l-21.37 0Z" id="p266w53" />
<path d="M133.91 280.63l11.04 0l0 12.23l-11.04 0Z" id="p266w54" />
<path d="M147.65 280.38l18.92 0l0 12.56l-18.92 0Z" id="p266w55" />
<path d="M124.06 295.91l20.03 0l0 12.23l-20.03 0Z" id="p266w56" />
<path d="M146.79 295.85l60.4 0l0 12.29l-60.4 0Z" id="p266w57" />
<path d="M209.89 295.91l17.56 0l0 12.23l-17.56 0Z" id="p266w58" />
<path d="M230.16 295.91l37.36 0l0 12.23l-37.36 0Z" id="p266w59" />
<path d="M270.22 295.66l18.17 0l0 12.56l-18.17 0Z" id="p266w60" />
<path d="M124.06 311.19l19.44 0l0 12.23l-19.44 0Z" id="p266w61" />
<path d="M146.2 311.14l41.47 0l0 12.29l-41.47 0Z" id="p266w62" />
<path d="M190.37 311.19l45.24 0l0 12.23l-45.24 0Z" id="p266w63" />
<path d="M238.31 311.19l11.04 0l0 12.23l-11.04 0Z" id="p266w64" />
<path d="M252.05 310.95l18.17 0l0 12.56l-18.17 0Z" id="p266w65" />
<path d="M124.06 326.48l20.04 0l0 12.23l-20.04 0Z" id="p266w66" />
<path d="M146.8 326.42l45.73 0l0 12.29l-45.73 0Z" id="p266w67" />
<path d="M195.23 326.48l21.37 0l0 12.23l-21.37 0Z" id="p266w68" />
<path d="M219.31 326.48l23.2 0l0 12.23l-23.2 0Z" id="p266w69" />
<path d="M242.5 326.48l22.29 0l0 12.23l-22.29 0Z" id="p266w70" />
<path d="M275.82 326.48l12.16 0l0 12.23l-12.16 0Z" id="p266w71" />
<path d="M133.91 341.52l18.72 0l0 12.56l-18.72 0Z" id="p266w72" />
<path d="M124.06 357.04l14.41 0l0 12.23l-14.41 0Z" id="p266w73" />
<path d="M141.17 356.99l42.2 0l0 12.29l-42.2 0Z" id="p266w74" />
<path d="M183.37 357.04l24.2 0l0 12.23l-24.2 0Z" id="p266w75" />
<path d="M210.27 356.99l51.1 0l0 12.29l-51.1 0Z" id="p266w76" />
<path d="M264.07 357.04l11.94 0l0 12.23l-11.94 0Z" id="p266w77" />
<path d="M133.91 372.33l82.49 0l0 12.23l-82.49 0Z" id="p266w78" />
<path d="M219.1 372.33l66.38 0l0 12.23l-66.38 0Z" id="p266w79" />
<path d="M288.18 372.08l17.26 0l0 12.56l-17.26 0Z" id="p266w80" />
<path d="M124.06 387.61l19.44 0l0 12.23l-19.44 0Z" id="p266w81" />
<path d="M146.2 387.55l52.25 0l0 12.29l-52.25 0Z" id="p266w82" />
<path d="M201.16 387.61l31.96 0l0 12.23l-31.96 0Z" id="p266w83" />
<path d="M235.81 387.61l11.04 0l0 12.23l-11.04 0Z" id="p266w84" />
<path d="M249.55 387.37l14.43 0l0 12.56l-14.43 0Z" id="p266w85" />
<path d="M124.06 402.89l15.08 0l0 12.23l-15.08 0Z" id="p266w86" />
<path d="M141.85 402.89l19.44 0l0 12.23l-19.44 0Z" id="p266w87" />
<path d="M163.99 402.84l48.52 0l0 12.29l-48.52 0Z" id="p266w88" />
<path d="M215.21 402.89l10.35 0l0 12.23l-10.35 0Z" id="p266w89" />
<path d="M228.26 402.89l30.6 0l0 12.23l-30.6 0Z" id="p266w90" />
<path d="M261.56 402.89l11.7 0l0 12.23l-11.7 0Z" id="p266w91" />
<path d="M275.96 402.89l11.04 0l0 12.23l-11.04 0Z" id="p266w92" />
<path d="M133.91 417.93l18.01 0l0 12.56l-18.01 0Z" id="p266w93" />
<path d="M124.06 433.46l14.41 0l0 12.23l-14.41 0Z" id="p266w94" />
<path d="M141.17 433.4l26.52 0l0 12.29l-26.52 0Z" id="p266w95" />
<path d="M170.39 433.46l17.56 0l0 12.23l-17.56 0Z" id="p266w96" />
<path d="M190.65 433.46l25.44 0l0 12.23l-25.44 0Z" id="p266w97" />
<path d="M218.8 433.22l14.63 0l0 12.56l-14.63 0Z" id="p266w98" />
<path d="M124.06 448.74l14.41 0l0 12.23l-14.41 0Z" id="p266w99" />
<path d="M141.17 448.69l58.19 0l0 12.29l-58.19 0Z" id="p266w100" />
<path d="M199.36 448.74l24.2 0l0 12.23l-24.2 0Z" id="p266w101" />
<path d="M226.25 448.69l67.08 0l0 12.29l-67.08 0Z" id="p266w102" />
<path d="M133.91 464.03l11.94 0l0 12.23l-11.94 0Z" id="p266w103" />
<path d="M148.55 464.03l74.18 0l0 12.23l-74.18 0Z" id="p266w104" />
<path d="M225.43 464.03l52.45 0l0 12.23l-52.45 0Z" id="p266w105" />
<path d="M280.59 463.78l18.01 0l0 12.56l-18.01 0Z" id="p266w106" />
<path d="M124.06 479.25l16.29 0l0 12.29l-16.29 0Z" id="p266w107" />
<path d="M143.06 479.31l45.94 0l0 12.23l-45.94 0Z" id="p266w108" />
<path d="M191.7 479.07l15.54 0l0 12.56l-15.54 0Z" id="p266w109" />
<path d="M124.06 494.54l16.29 0l0 12.29l-16.29 0Z" id="p266w110" />
<path d="M144.52 494.54l21.92 0l0 12.29l-21.92 0Z" id="p266w111" />
<path d="M169.14 494.59l23.19 0l0 12.23l-23.19 0Z" id="p266w112" />
<path d="M195.03 494.59l11.7 0l0 12.23l-11.7 0Z" id="p266w113" />
<path d="M209.44 494.35l15.54 0l0 12.56l-15.54 0Z" id="p266w114" />
<path d="M240.48 494.59l45.94 0l0 12.23l-45.94 0Z" id="p266w115" />
<path d="M289.12 494.59l11.7 0l0 12.23l-11.7 0Z" id="p266w116" />
<path d="M133.91 509.63l15.54 0l0 12.56l-15.54 0Z" id="p266w117" />
<path d="M124.06 525.16l52.01 0l0 12.23l-52.01 0Z" id="p266w118" />
<path d="M178.77 525.11l16.29 0l0 12.29l-16.29 0Z" id="p266w119" />
<path d="M197.77 525.16l60.99 0l0 12.23l-60.99 0Z" id="p266w120" />
<path d="M261.46 524.92l18.92 0l0 12.56l-18.92 0Z" id="p266w121" />
<path d="M124.06 540.39l42.18 0l0 12.29l-42.18 0Z" id="p266w122" />
<path d="M168.94 540.44l43.36 0l0 12.23l-43.36 0Z" id="p266w123" />
<path d="M215.01 540.2l15.54 0l0 12.56l-15.54 0Z" id="p266w124" />
<path d="M124.06 555.67l41.16 0l0 12.29l-41.16 0Z" id="p266w125" />
<path d="M167.92 555.73l28.14 0l0 12.23l-28.14 0Z" id="p266w126" />
<path d="M198.77 555.48l18.72 0l0 12.56l-18.72 0Z" id="p266w127" />
<path d="M124.06 571.01l14.41 0l0 12.23l-14.41 0Z" id="p266w128" />
<path d="M141.17 571.01l35.49 0l0 12.23l-35.49 0ZM176.66 570.96l30.9 0l0 12.29l-30.9 0Z" id="p266w129" />
<path d="M210.26 571.01l11.94 0l0 12.23l-11.94 0Z" id="p266w130" />
<path d="M224.9 571.01l37.36 0l0 12.23l-37.36 0Z" id="p266w131" />
<path d="M264.96 570.77l14.63 0l0 12.56l-14.63 0Z" id="p266w132" />
<path d="M124.06 586.29l14.41 0l0 12.23l-14.41 0Z" id="p266w133" />
<path d="M141.17 586.24l30.9 0l0 12.29l-30.9 0Z" id="p266w134" />
<path d="M174.77 586.29l11.94 0l0 12.23l-11.94 0Z" id="p266w135" />
<path d="M189.41 586.29l25.21 0l0 12.23l-25.21 0Z" id="p266w136" />
<path d="M217.32 586.29l18.91 0l0 12.23l-18.91 0Z" id="p266w137" />
<path d="M238.93 586.05l18.01 0l0 12.56l-18.01 0Z" id="p266w138" />
<path d="M124.06 601.52l29.77 0l0 12.29l-29.77 0Z" id="p266w139" />
<path d="M156.53 601.58l22.74 0l0 12.23l-22.74 0Z" id="p266w140" />
<path d="M181.97 601.58l19.13 0l0 12.23l-19.13 0Z" id="p266w141" />
<path d="M203.8 601.58l17.56 0l0 12.23l-17.56 0Z" id="p266w142" />
<path d="M224.07 601.58l27.01 0l0 12.23l-27.01 0Z" id="p266w143" />
<path d="M253.78 601.58l9.45 0l0 12.23l-9.45 0Z" id="p266w144" />
<path d="M265.93 601.58l25.21 0l0 12.23l-25.21 0Z" id="p266w145" />
<path d="M133.91 616.62l15.54 0l0 12.56l-15.54 0Z" id="p266w146" />
<path d="M124.06 632.09l29.77 0l0 12.29l-29.77 0Z" id="p266w147" />
<path d="M156.53 632.14l21.61 0l0 12.23l-21.61 0Z" id="p266w148" />
<path d="M180.84 632.14l17.56 0l0 12.23l-17.56 0Z" id="p266w149" />
<path d="M201.1 632.14l27.01 0l0 12.23l-27.01 0Z" id="p266w150" />
<path d="M230.81 632.14l9.45 0l0 12.23l-9.45 0Z" id="p266w151" />
<path d="M242.96 632.14l25.21 0l0 12.23l-25.21 0Z" id="p266w152" />
<path d="M270.87 631.9l15.54 0l0 12.56l-15.54 0Z" id="p266w153" />
<path d="M124.06 647.43l20.03 0l0 12.23l-20.03 0Z" id="p266w154" />
<path d="M146.79 647.37l63.41 0l0 12.29l-63.41 0Z" id="p266w155" />
<path d="M212.91 647.43l11.94 0l0 12.23l-11.94 0Z" id="p266w156" />
<path d="M227.54 647.43l25.21 0l0 12.23l-25.21 0Z" id="p266w157" />
<path d="M255.45 647.43l35.26 0l0 12.23l-35.26 0Z" id="p266w158" />
<path d="M133.91 662.47l15.54 0l0 12.56l-15.54 0Z" id="p266w159" />
<path d="M124.06 677.94l39.96 0l0 12.29l-39.96 0Z" id="p266w160" />
<path d="M166.72 677.99l41.43 0l0 12.23l-41.43 0Z" id="p266w161" />
<path d="M210.85 677.75l14.79 0l0 12.56l-14.79 0Z" id="p266w162" />
<path d="M133.91 693.28l8.78 0l0 12.23l-8.78 0Z" id="p266w163" />
<path d="M145.39 693.28l39.85 0l0 12.23l-39.85 0Z" id="p266w164" />
<path d="M187.64 693.28l27.64 0l0 12.23l-27.64 0Z" id="p266w165" />
<path d="M217.99 693.28l22.51 0l0 12.23l-22.51 0Z" id="p266w166" />
<path d="M243.19 693.28l31.3 0l0 12.23l-31.3 0Z" id="p266w167" />
<path d="M277.2 693.28l22.74 0l0 12.23l-22.74 0Z" id="p266w168" />
<path d="M133.91 708.32l19.58 0l0 12.56l-19.58 0Z" id="p266w169" />
<path d="M124.06 723.79l49.17 0l0 12.29l-49.17 0Z" id="p266w170" />
<path d="M175.94 723.84l59.87 0l0 12.23l-59.87 0Z" id="p266w171" />
<path d="M238.5 723.6l15.54 0l0 12.56l-15.54 0Z" id="p266w172" />
<path d="M124.06 739.13l14.41 0l0 12.23l-14.41 0Z" id="p266w173" />
<path d="M141.17 739.07l32.17 0l0 12.29l-32.17 0Z" id="p266w174" />
<path d="M176.04 739.13l8.33 0l0 12.23l-8.33 0Z" id="p266w175" />
<path d="M187.06 739.13l28.38 0l0 12.23l-28.38 0Z" id="p266w176" />
<path d="M218.14 738.88l14.63 0l0 12.56l-14.63 0Z" id="p266w177" />
<path d="M124.06 754.41l14.41 0l0 12.23l-14.41 0Z" id="p266w178" />
<path d="M141.17 754.36l20.12 0l0 12.29l-20.12 0Z" id="p266w179" />
<path d="M163.99 754.41l11.94 0l0 12.23l-11.94 0Z" id="p266w180" />
<path d="M178.63 754.41l31.97 0l0 12.23l-31.97 0Z" id="p266w181" />
<path d="M213.29 754.17l18.92 0l0 12.56l-18.92 0Z" id="p266w182" />
<path d="M124.06 769.64l16.52 0l0 12.29l-16.52 0Z" id="p266w183" />
<path d="M143.28 769.67l25.65 0l0 12.23l-25.65 0Z" id="p266w184" />
<path d="M171.63 769.7l19.36 0l0 12.23l-19.36 0Z" id="p266w185" />
<path d="M193.7 769.67l27.91 0l0 12.23l-27.91 0Z" id="p266w186" />
<path d="M224.31 769.45l15.54 0l0 12.56l-15.54 0Z" id="p266w187" />
<path d="M124.06 784.98l25.16 0l0 12.23l-25.16 0Z" id="p266w188" />
<path d="M151.93 784.98l65.15 0l0 12.23l-65.15 0Z" id="p266w189" />
<path d="M219.77 784.73l18.01 0l0 12.56l-18.01 0Z" id="p266w190" />
<path d="M133.91 800.26l68.65 0l0 12.23l-68.65 0Z" id="p266w191" />
<path d="M205.26 800.02l18.92 0l0 12.56l-18.92 0Z" id="p266w192" />
<path d="M124.06 815.49l51.76 0l0 12.29l-51.76 0Z" id="p266w193" />
<path d="M178.53 815.55l86.33 0l0 12.23l-86.33 0Z" id="p266w194" />
<path d="M267.56 815.3l18.92 0l0 12.56l-18.92 0Z" id="p266w195" />
<path d="M124.06 830.77l16.97 0l0 12.29l-16.97 0Z" id="p266w196" />
<path d="M143.74 830.83l24.12 0l0 12.23l-24.12 0Z" id="p266w197" />
<path d="M170.56 830.58l14.79 0l0 12.56l-14.79 0Z" id="p266w198" />
<path d="M200.86 830.83l15.53 0l0 12.23l-15.53 0Z" id="p266w199" />
<path d="M219.09 830.58l18.92 0l0 12.56l-18.92 0Z" id="p266w200" />
<path d="M133.91 846.11l28.33 0l0 12.23l-28.33 0Z" id="p266w201" />
<path d="M164.94 846.11l13.5 0l0 12.23l-13.5 0Z" id="p266w202" />
<path d="M181.15 846.11l22.92 0l0 12.23l-22.92 0Z" id="p266w203" />
<path d="M215.1 845.87l14.79 0l0 12.56l-14.79 0Z" id="p266w204" />
<path d="M124.06 861.34l16.97 0l0 12.29l-16.97 0Z" id="p266w205" />
<path d="M143.74 861.4l19.58 0l0 12.23l-19.58 0Z" id="p266w206" />
<path d="M166.02 861.4l11.7 0l0 12.23l-11.7 0Z" id="p266w207" />
<path d="M180.43 861.15l18.92 0l0 12.56l-18.92 0Z" id="p266w208" />
<path d="M124.06 876.62l14.79 0l0 12.29l-14.79 0Z" id="p266w209" />
<path d="M141.56 876.66l36.31 0l0 12.23l-36.31 0Z" id="p266w210" />
<path d="M180.57 876.68l32.27 0l0 12.23l-32.27 0Z" id="p266w211" />
<path d="M215.54 876.43l19.58 0l0 12.56l-19.58 0Z" id="p266w212" />
<path d="M133.91 891.96l14.86 0l0 12.23l-14.86 0Z" id="p266w213" />
<path d="M151.47 891.96l25.88 0l0 12.23l-25.88 0Z" id="p266w214" />
<path d="M180.05 891.96l33.77 0l0 12.23l-33.77 0Z" id="p266w215" />
<path d="M216.52 891.72l18.92 0l0 12.56l-18.92 0Z" id="p266w216" />
<path d="M124.06 907.19l14.79 0l0 12.29l-14.79 0Z" id="p266w217" />
<path d="M141.56 907.22l39.47 0l0 12.23l-39.47 0Z" id="p266w218" />
<path d="M183.73 907.25l26.19 0l0 12.23l-26.19 0Z" id="p266w219" />
<path d="M212.62 907l15.54 0l0 12.56l-15.54 0Z" id="p266w220" />
<path d="M243.66 907.25l5.4 0l0 12.23l-5.4 0Z" id="p266w221" />
<path d="M267.75 907l18.17 0l0 12.56l-18.17 0Z" id="p266w222" />
<path d="M124.06 922.53l10.58 0l0 12.23l-10.58 0Z" id="p266w223" />
<path d="M137.34 922.53l11.25 0l0 12.23l-11.25 0Z" id="p266w224" />
<path d="M151.29 922.47l29.31 0l0 12.29l-29.31 0Z" id="p266w225" />
<path d="M185.56 922.53l22.05 0l0 12.23l-22.05 0Z" id="p266w226" />
<path d="M210.32 922.53l6.3 0l0 12.23l-6.3 0Z" id="p266w227" />
<path d="M219.76 922.53l7.89 0l0 12.23l-7.89 0Z" id="p266w228" />
<path d="M230.36 922.28l19.58 0l0 12.56l-19.58 0Z" id="p266w229" />
<path d="M325.58 112.51l19.44 0l0 12.23l-19.44 0Z" id="p266w230" />
<path d="M347.72 112.45l54.41 0l0 12.29l-54.41 0Z" id="p266w231" />
<path d="M404.83 112.51l40.5 0l0 12.23l-40.5 0Z" id="p266w232" />
<path d="M448.04 112.51l11.04 0l0 12.23l-11.04 0Z" id="p266w233" />
<path d="M461.77 112.26l15.54 0l0 12.56l-15.54 0Z" id="p266w234" />
<path d="M335.43 127.79l18.46 0l0 12.23l-18.46 0Z" id="p266w235" />
<path d="M356.59 127.79l15.08 0l0 12.23l-15.08 0Z" id="p266w236" />
<path d="M374.38 127.79l19.44 0l0 12.23l-19.44 0Z" id="p266w237" />
<path d="M396.52 127.79l54.24 0l0 12.23l-54.24 0Z" id="p266w238" />
<path d="M453.46 127.79l10.35 0l0 12.23l-10.35 0Z" id="p266w239" />
<path d="M466.51 127.79l40.5 0l0 12.23l-40.5 0Z" id="p266w240" />
<path d="M343.75 143.08l11.04 0l0 12.23l-11.04 0Z" id="p266w241" />
<path d="M357.49 142.83l18.92 0l0 12.56l-18.92 0Z" id="p266w242" />
<path d="M325.58 158.36l11.93 0l0 12.23l-11.93 0Z" id="p266w243" />
<path d="M340.21 158.3l58.88 0l0 12.29l-58.88 0Z" id="p266w244" />
<path d="M401.79 158.36l11.48 0l0 12.23l-11.48 0Z" id="p266w245" />
<path d="M415.97 158.36l36.9 0l0 12.23l-36.9 0Z" id="p266w246" />
<path d="M455.57 158.36l20.49 0l0 12.23l-20.49 0Z" id="p266w247" />
<path d="M478.76 158.11l14.63 0l0 12.56l-14.63 0Z" id="p266w248" />
<path d="M325.58 173.64l20.04 0l0 12.23l-20.04 0Z" id="p266w249" />
<path d="M348.32 173.64l19.44 0l0 12.23l-19.44 0Z" id="p266w250" />
<path d="M370.46 173.59l56.35 0l0 12.29l-56.35 0Z" id="p266w251" />
<path d="M429.52 173.64l41.65 0l0 12.23l-41.65 0Z" id="p266w252" />
<path d="M473.87 173.64l11.04 0l0 12.23l-11.04 0Z" id="p266w253" />
<path d="M335.43 188.93l12.16 0l0 12.23l-12.16 0Z" id="p266w254" />
<path d="M350.29 188.68l15.54 0l0 12.56l-15.54 0Z" id="p266w255" />
<path d="M335.43 204.21l20.04 0l0 12.23l-20.04 0Z" id="p266w256" />
<path d="M358.17 204.21l56.68 0l0 12.23l-56.68 0Z" id="p266w257" />
<path d="M417.55 204.21l19.44 0l0 12.23l-19.44 0Z" id="p266w258" />
<path d="M439.69 204.21l10.82 0l0 12.23l-10.82 0Z" id="p266w259" />
<path d="M453.21 204.21l15.76 0l0 12.23l-15.76 0Z" id="p266w260" />
<path d="M335.43 219.49l41.65 0l0 12.23l-41.65 0Z" id="p266w261" />
<path d="M388.1 219.49l12.16 0l0 12.23l-12.16 0Z" id="p266w262" />
<path d="M402.96 219.49l11.7 0l0 12.23l-11.7 0Z" id="p266w263" />
<path d="M417.37 219.49l21.37 0l0 12.23l-21.37 0Z" id="p266w264" />
<path d="M441.45 219.49l11.04 0l0 12.23l-11.04 0Z" id="p266w265" />
<path d="M455.18 219.25l18.17 0l0 12.56l-18.17 0Z" id="p266w266" />
<path d="M325.58 234.72l41.3 0l0 12.29l-41.3 0Z" id="p266w267" />
<path d="M369.59 234.78l44.19 0l0 12.23l-44.19 0Z" id="p266w268" />
<path d="M422.34 234.53l18.17 0l0 12.56l-18.17 0Z" id="p266w269" />
<path d="M325.58 250.06l20.03 0l0 12.23l-20.03 0Z" id="p266w270" />
<path d="M348.31 250l45.35 0l0 12.29l-45.35 0Z" id="p266w271" />
<path d="M396.36 250.06l17.56 0l0 12.23l-17.56 0Z" id="p266w272" />
<path d="M416.63 250.06l30.6 0l0 12.23l-30.6 0Z" id="p266w273" />
<path d="M449.93 249.81l14.63 0l0 12.56l-14.63 0Z" id="p266w274" />
<path d="M325.58 265.34l20.04 0l0 12.23l-20.04 0Z" id="p266w275" />
<path d="M348.32 265.34l40.5 0l0 12.23l-40.5 0Z" id="p266w276" />
<path d="M391.53 265.29l46.53 0l0 12.29l-46.53 0Z" id="p266w277" />
<path d="M440.76 265.34l45.23 0l0 12.23l-45.23 0Z" id="p266w278" />
<path d="M488.68 265.34l16.33 0l0 12.23l-16.33 0Z" id="p266w279" />
<path d="M335.43 280.63l11.04 0l0 12.23l-11.04 0Z" id="p266w280" />
<path d="M357.49 280.63l12.16 0l0 12.23l-12.16 0Z" id="p266w281" />
<path d="M372.35 280.38l15.54 0l0 12.56l-15.54 0Z" id="p266w282" />
<path d="M325.58 295.91l18.46 0l0 12.23l-18.46 0Z" id="p266w283" />
<path d="M346.74 295.91l19.44 0l0 12.23l-19.44 0Z" id="p266w284" />
<path d="M368.89 295.85l46.53 0l0 12.29l-46.53 0Z" id="p266w285" />
<path d="M418.11 295.91l41.8 0l0 12.23l-41.8 0Z" id="p266w286" />
<path d="M462.62 295.91l11.04 0l0 12.23l-11.04 0Z" id="p266w287" />
<path d="M476.36 295.66l18.17 0l0 12.56l-18.17 0Z" id="p266w288" />
<path d="M325.58 311.19l18.46 0l0 12.23l-18.46 0Z" id="p266w289" />
<path d="M346.74 311.14l46.53 0l0 12.29l-46.53 0Z" id="p266w290" />
<path d="M395.97 311.19l10.35 0l0 12.23l-10.35 0Z" id="p266w291" />
<path d="M409.02 311.19l45.23 0l0 12.23l-45.23 0Z" id="p266w292" />
<path d="M456.95 310.95l18.92 0l0 12.56l-18.92 0Z" id="p266w293" />
<path d="M325.58 326.48l20.03 0l0 12.23l-20.03 0Z" id="p266w294" />
<path d="M348.31 326.42l53.52 0l0 12.29l-53.52 0Z" id="p266w295" />
<path d="M404.53 326.48l17.56 0l0 12.23l-17.56 0Z" id="p266w296" />
<path d="M424.79 326.48l59.87 0l0 12.23l-59.87 0Z" id="p266w297" />
<path d="M335.43 341.52l15.54 0l0 12.56l-15.54 0Z" id="p266w298" />
<path d="M325.58 357.04l14.41 0l0 12.23l-14.41 0Z" id="p266w299" />
<path d="M342.69 356.99l81.19 0l0 12.29l-81.19 0Z" id="p266w300" />
<path d="M426.57 357.04l61.17 0l0 12.23l-61.17 0Z" id="p266w301" />
<path d="M350.43 372.08l17.81 0l0 12.56l-17.81 0Z" id="p266w302" />
<path d="M325.58 387.61l14.41 0l0 12.23l-14.41 0Z" id="p266w303" />
<path d="M342.69 387.55l34.92 0l0 12.29l-34.92 0Z" id="p266w304" />
<path d="M380.31 387.61l17.56 0l0 12.23l-17.56 0Z" id="p266w305" />
<path d="M400.57 387.61l52.23 0l0 12.23l-52.23 0Z" id="p266w306" />
<path d="M455.51 387.37l18.92 0l0 12.56l-18.92 0Z" id="p266w307" />
<path d="M325.58 402.84l45.81 0l0 12.29l-45.81 0Z" id="p266w308" />
<path d="M374.09 402.89l19.44 0l0 12.23l-19.44 0Z" id="p266w309" />
<path d="M396.23 402.89l10.82 0l0 12.23l-10.82 0Z" id="p266w310" />
<path d="M409.74 402.89l15.76 0l0 12.23l-15.76 0Z" id="p266w311" />
<path d="M428.21 402.89l38.03 0l0 12.23l-38.03 0Z" id="p266w312" />
<path d="M468.93 402.89l21.37 0l0 12.23l-21.37 0Z" id="p266w313" />
<path d="M335.43 418.18l11.04 0l0 12.23l-11.04 0Z" id="p266w314" />
<path d="M349.17 417.93l15.54 0l0 12.56l-15.54 0Z" id="p266w315" />
<path d="M325.58 433.46l14.41 0l0 12.23l-14.41 0Z" id="p266w316" />
<path d="M342.69 433.4l32.02 0l0 12.29l-32.02 0Z" id="p266w317" />
<path d="M377.41 433.46l11.94 0l0 12.23l-11.94 0Z" id="p266w318" />
<path d="M392.05 433.46l30.4 0l0 12.23l-30.4 0Z" id="p266w319" />
<path d="M425.15 433.22l15.54 0l0 12.56l-15.54 0Z" id="p266w320" />
<path d="M325.58 486.9l41.08 0l0 12.29l-41.08 0Z" id="p266w321" />
<path d="M369.36 486.95l51.71 0l0 12.23l-51.71 0Z" id="p266w322" />
<path d="M423.77 486.71l18.92 0l0 12.56l-18.92 0Z" id="p266w323" />
<path d="M325.58 502.24l20.03 0l0 12.23l-20.03 0Z" id="p266w324" />
<path d="M348.31 502.18l27.93 0l0 12.29l-27.93 0Z" id="p266w325" />
<path d="M378.94 502.24l17.56 0l0 12.23l-17.56 0Z" id="p266w326" />
<path d="M399.21 502.24l24.3 0l0 12.23l-24.3 0Z" id="p266w327" />
<path d="M426.21 501.99l18.92 0l0 12.56l-18.92 0Z" id="p266w328" />
<path d="M325.58 517.52l20.03 0l0 12.23l-20.03 0Z" id="p266w329" />
<path d="M348.31 517.46l30.74 0l0 12.29l-30.74 0Z" id="p266w330" />
<path d="M381.76 517.52l17.56 0l0 12.23l-17.56 0Z" id="p266w331" />
<path d="M402.02 517.52l30.56 0l0 12.23l-30.56 0Z" id="p266w332" />
<path d="M435.28 517.27l18.01 0l0 12.56l-18.01 0Z" id="p266w333" />
<path d="M325.58 532.8l20.03 0l0 12.23l-20.03 0Z" id="p266w334" />
<path d="M348.31 532.75l23.8 0l0 12.29l-23.8 0Z" id="p266w335" />
<path d="M374.81 532.8l11.94 0l0 12.23l-11.94 0Z" id="p266w336" />
<path d="M389.45 532.8l24.55 0l0 12.23l-24.55 0Z" id="p266w337" />
<path d="M416.7 532.56l18.92 0l0 12.56l-18.92 0Z" id="p266w338" />
<path d="M325.58 548.09l19.44 0l0 12.23l-19.44 0Z" id="p266w339" />
<path d="M347.72 548.03l34.45 0l0 12.29l-34.45 0Z" id="p266w340" />
<path d="M384.87 548.09l30.84 0l0 12.23l-30.84 0Z" id="p266w341" />
<path d="M418.41 548.09l11.04 0l0 12.23l-11.04 0Z" id="p266w342" />
<path d="M432.15 547.84l15.54 0l0 12.56l-15.54 0Z" id="p266w343" />
<path d="M325.58 563.37l16.9 0l0 12.23l-16.9 0Z" id="p266w344" />
<path d="M345.18 563.31l34.45 0l0 12.29l-34.45 0Z" id="p266w345" />
<path d="M382.32 563.37l24.31 0l0 12.23l-24.31 0Z" id="p266w346" />
<path d="M409.33 563.37l25.22 0l0 12.23l-25.22 0Z" id="p266w347" />
<path d="M437.25 563.37l15.76 0l0 12.23l-15.76 0Z" id="p266w348" />
<path d="M455.72 563.12l15.34 0l0 12.56l-15.34 0Z" id="p266w349" />
<path d="M325.58 578.65l14.41 0l0 12.23l-14.41 0Z" id="p266w350" />
<path d="M342.69 578.6l43.83 0l0 12.29l-43.83 0Z" id="p266w351" />
<path d="M389.21 578.65l17.56 0l0 12.23l-17.56 0Z" id="p266w352" />
<path d="M409.48 578.65l30.4 0l0 12.23l-30.4 0Z" id="p266w353" />
<path d="M442.58 578.41l18.92 0l0 12.56l-18.92 0Z" id="p266w354" />
<path d="M325.58 593.94l17.33 0l0 12.23l-17.33 0Z" id="p266w355" />
<path d="M345.61 593.94l11.25 0l0 12.23l-11.25 0Z" id="p266w356" />
<path d="M359.56 593.94l15.53 0l0 12.23l-15.53 0Z" id="p266w357" />
<path d="M377.79 593.88l46.87 0l0 12.29l-46.87 0Z" id="p266w358" />
<path d="M429.62 593.94l22.05 0l0 12.23l-22.05 0Z" id="p266w359" />
<path d="M454.37 593.94l8.33 0l0 12.23l-8.33 0Z" id="p266w360" />
<path d="M465.4 593.94l22.74 0l0 12.23l-22.74 0Z" id="p266w361" />
<path d="M335.43 608.97l18.01 0l0 12.56l-18.01 0Z" id="p266w362" />
<path d="M325.58 624.5l14.41 0l0 12.23l-14.41 0Z" id="p266w363" />
<path d="M342.69 624.45l101.37 0l0 12.29l-101.37 0Z" id="p266w364" />
<path d="M446.76 624.5l11.94 0l0 12.23l-11.94 0Z" id="p266w365" />
<path d="M335.43 639.79l54.86 0l0 12.23l-54.86 0Z" id="p266w366" />
<path d="M392.99 639.79l11.7 0l0 12.23l-11.7 0Z" id="p266w367" />
<path d="M407.4 639.79l15.32 0l0 12.23l-15.32 0Z" id="p266w368" />
<path d="M425.42 639.76l24.69 0l0 12.23l-24.69 0Z" id="p266w369" />
<path d="M452.8 639.54l18.17 0l0 12.56l-18.17 0Z" id="p266w370" />
<path d="M325.58 655.01l23.83 0l0 12.29l-23.83 0Z" id="p266w371" />
<path d="M352.11 655.07l44.01 0l0 12.23l-44.01 0Z" id="p266w372" />
<path d="M398.82 654.83l15.34 0l0 12.56l-15.34 0Z" id="p266w373" />
<path d="M325.58 670.3l41.52 0l0 12.29l-41.52 0Z" id="p266w374" />
<path d="M369.8 670.33l30.86 0l0 12.23l-30.86 0Z" id="p266w375" />
<path d="M403.35 670.35l39.39 0l0 12.23l-39.39 0Z" id="p266w376" />
<path d="M445.45 670.11l15.54 0l0 12.56l-15.54 0Z" id="p266w377" />
<path d="M325.58 685.58l41.52 0l0 12.29l-41.52 0Z" id="p266w378" />
<path d="M369.8 685.61l29.27 0l0 12.23l-29.27 0Z" id="p266w379" />
<path d="M401.76 685.64l39.39 0l0 12.23l-39.39 0Z" id="p266w380" />
<path d="M443.86 685.64l17.56 0l0 12.23l-17.56 0Z" id="p266w381" />
<path d="M464.12 685.39l15.34 0l0 12.56l-15.34 0Z" id="p266w382" />
<path d="M325.58 700.92l14.41 0l0 12.23l-14.41 0Z" id="p266w383" />
<path d="M342.69 700.86l17.72 0l0 12.29l-17.72 0Z" id="p266w384" />
<path d="M363.1 700.92l17.56 0l0 12.23l-17.56 0Z" id="p266w385" />
<path d="M383.37 700.92l34.43 0l0 12.23l-34.43 0Z" id="p266w386" />
<path d="M420.5 700.68l18.01 0l0 12.56l-18.01 0Z" id="p266w387" />
<path d="M325.58 716.2l14.41 0l0 12.23l-14.41 0Z" id="p266w388" />
<path d="M342.69 716.15l23.78 0l0 12.29l-23.78 0Z" id="p266w389" />
<path d="M369.16 716.2l17.56 0l0 12.23l-17.56 0Z" id="p266w390" />
<path d="M389.43 716.2l22.73 0l0 12.23l-22.73 0Z" id="p266w391" />
<path d="M414.86 715.96l18.01 0l0 12.56l-18.01 0Z" id="p266w392" />
<path d="M325.58 731.49l20.03 0l0 12.23l-20.03 0Z" id="p266w393" />
<path d="M348.31 731.43l27.04 0l0 12.29l-27.04 0Z" id="p266w394" />
<path d="M378.05 731.49l11.94 0l0 12.23l-11.94 0Z" id="p266w395" />
<path d="M392.69 731.49l18.91 0l0 12.23l-18.91 0Z" id="p266w396" />
<path d="M414.3 731.24l18.17 0l0 12.56l-18.17 0Z" id="p266w397" />
<path d="M325.58 746.77l20.03 0l0 12.23l-20.03 0Z" id="p266w398" />
<path d="M348.31 746.71l61.32 0l0 12.29l-61.32 0Z" id="p266w399" />
<path d="M412.33 746.77l17.56 0l0 12.23l-17.56 0Z" id="p266w400" />
<path d="M432.6 746.77l23.85 0l0 12.23l-23.85 0Z" id="p266w401" />
<path d="M459.15 746.77l11.7 0l0 12.23l-11.7 0Z" id="p266w402" />
<path d="M335.43 762.05l50.65 0l0 12.23l-50.65 0Z" id="p266w403" />
<path d="M388.78 761.81l15.54 0l0 12.56l-15.54 0Z" id="p266w404" />
<path d="M325.58 777.34l20.03 0l0 12.23l-20.03 0Z" id="p266w405" />
<path d="M348.31 777.28l54.5 0l0 12.29l-54.5 0Z" id="p266w406" />
<path d="M405.51 777.34l17.56 0l0 12.23l-17.56 0Z" id="p266w407" />
<path d="M425.77 777.34l50.65 0l0 12.23l-50.65 0Z" id="p266w408" />
<path d="M479.13 777.09l15.54 0l0 12.56l-15.54 0Z" id="p266w409" />
<path d="M325.58 792.56l27.07 0l0 12.29l-27.07 0Z" id="p266w410" />
<path d="M370.84 792.62l30.84 0l0 12.23l-30.84 0Z" id="p266w411" />
<path d="M404.39 792.62l27.83 0l0 12.23l-27.83 0Z" id="p266w412" />
<path d="M434.92 792.62l28.78 0l0 12.23l-28.78 0Z" id="p266w413" />
<path d="M473.38 792.38l15.54 0l0 12.56l-15.54 0Z" id="p266w414" />
<path d="M335.43 807.9l17.57 0l0 12.23l-17.57 0Z" id="p266w415" />
<path d="M355.7 807.9l26.03 0l0 12.23l-26.03 0Z" id="p266w416" />
<path d="M384.43 807.9l13.5 0l0 12.23l-13.5 0Z" id="p266w417" />
<path d="M400.64 807.9l41.53 0l0 12.23l-41.53 0Z" id="p266w418" />
<path d="M444.87 807.9l12.6 0l0 12.23l-12.6 0Z" id="p266w419" />
<path d="M460.17 807.9l28.59 0l0 12.23l-28.59 0Z" id="p266w420" />
<path d="M335.43 823.19l27.01 0l0 12.23l-27.01 0Z" id="p266w421" />
<path d="M373.46 823.19l28.59 0l0 12.23l-28.59 0Z" id="p266w422" />
<path d="M404.75 823.19l38.23 0l0 12.23l-38.23 0Z" id="p266w423" />
<path d="M452.66 822.94l15.54 0l0 12.56l-15.54 0Z" id="p266w424" />
<path d="M325.58 838.41l27.01 0l0 12.29l-27.01 0Z" id="p266w425" />
<path d="M355.29 838.47l66.99 0l0 12.23l-66.99 0Z" id="p266w426" />
<path d="M424.98 838.23l15.54 0l0 12.56l-15.54 0Z" id="p266w427" />
<path d="M325.58 853.75l16.9 0l0 12.23l-16.9 0Z" id="p266w428" />
<path d="M345.18 853.7l35.54 0l0 12.29l-35.54 0Z" id="p266w429" />
<path d="M383.41 853.75l38.94 0l0 12.23l-38.94 0Z" id="p266w430" />
<path d="M425.05 853.75l12.16 0l0 12.23l-12.16 0Z" id="p266w431" />
<path d="M439.91 853.51l18.92 0l0 12.56l-18.92 0Z" id="p266w432" />
<path d="M325.58 869.04l15.08 0l0 12.23l-15.08 0Z" id="p266w433" />
<path d="M343.36 869.04l16.9 0l0 12.23l-16.9 0Z" id="p266w434" />
<path d="M362.96 868.98l33.4 0l0 12.29l-33.4 0Z" id="p266w435" />
<path d="M399.06 869.04l40.5 0l0 12.23l-40.5 0Z" id="p266w436" />
<path d="M442.27 869.04l12.16 0l0 12.23l-12.16 0Z" id="p266w437" />
<path d="M457.13 868.79l15.54 0l0 12.56l-15.54 0Z" id="p266w438" />
<path d="M335.43 884.32l38.36 0l0 12.23l-38.36 0Z" id="p266w439" />
<path d="M376.49 884.32l47 0l0 12.23l-47 0Z" id="p266w440" />
<path d="M426.18 884.08l14.79 0l0 12.56l-14.79 0Z" id="p266w441" />
<path d="M325.58 899.55l32.98 0l0 12.29l-32.98 0Z" id="p266w442" />
<path d="M361.26 899.6l42.12 0l0 12.23l-42.12 0Z" id="p266w443" />
<path d="M406.08 899.36l14.79 0l0 12.56l-14.79 0Z" id="p266w444" />
<path d="M335.43 914.89l33.46 0l0 12.23l-33.46 0Z" id="p266w445" />
<path d="M389.78 914.89l41.89 0l0 12.23l-41.89 0Z" id="p266w446" />
<path d="M434.38 914.89l27.83 0l0 12.23l-27.83 0Z" id="p266w447" />
<path d="M464.91 914.89l28.78 0l0 12.23l-28.78 0Z" id="p266w448" />
<path d="M335.43 929.93l15.54 0l0 12.56l-15.54 0Z" id="p266w449" />
<path d="M527.1 112.45l19.74 0l0 12.29l-19.74 0Z" id="p266w450" />
<path d="M571.63 112.5l42.47 0l0 12.23l-42.47 0Z" id="p266w451" />
<path d="M616.8 112.5l14.64 0l0 12.23l-14.64 0Z" id="p266w452" />
<path d="M655.03 112.26l18.92 0l0 12.56l-18.92 0Z" id="p266w453" />
<path d="M536.95 127.79l34.77 0l0 12.23l-34.77 0Z" id="p266w454" />
<path d="M574.42 127.79l42.47 0l0 12.23l-42.47 0Z" id="p266w455" />
<path d="M619.59 127.79l28.78 0l0 12.23l-28.78 0Z" id="p266w456" />
<path d="M658.05 127.54l15.54 0l0 12.56l-15.54 0Z" id="p266w457" />
<path d="M536.95 143.07l19.27 0l0 12.23l-19.27 0Z" id="p266w458" />
<path d="M558.92 143.07l11.25 0l0 12.23l-11.25 0Z" id="p266w459" />
<path d="M572.87 143.07l20.71 0l0 12.23l-20.71 0Z" id="p266w460" />
<path d="M596.28 143.07l42.47 0l0 12.23l-42.47 0Z" id="p266w461" />
<path d="M641.45 143.07l17.56 0l0 12.23l-17.56 0Z" id="p266w462" />
<path d="M661.71 143.07l20.93 0l0 12.23l-20.93 0Z" id="p266w463" />
<path d="M536.95 158.11l14.79 0l0 12.56l-14.79 0Z" id="p266w464" />
<path d="M527.1 173.58l19.74 0l0 12.29l-19.74 0Z" id="p266w465" />
<path d="M553.82 173.64l21.62 0l0 12.23l-21.62 0Z" id="p266w466" />
<path d="M585.12 173.39l14.79 0l0 12.56l-14.79 0Z" id="p266w467" />
<path d="M614.37 173.64l21.61 0l0 12.23l-21.61 0Z" id="p266w468" />
<path d="M645.66 173.61l27.91 0l0 12.23l-27.91 0Z" id="p266w469" />
<path d="M676.28 173.39l15.54 0l0 12.56l-15.54 0Z" id="p266w470" />
<path d="M527.1 188.86l19.74 0l0 12.29l-19.74 0Z" id="p266w471" />
<path d="M549.54 188.92l13.28 0l0 12.23l-13.28 0Z" id="p266w472" />
<path d="M565.52 188.92l14.41 0l0 12.23l-14.41 0Z" id="p266w473" />
<path d="M582.63 188.92l52.22 0l0 12.23l-52.22 0Z" id="p266w474" />
<path d="M637.55 188.92l29.71 0l0 12.23l-29.71 0Z" id="p266w475" />
<path d="M536.95 204.2l41.64 0l0 12.23l-41.64 0Z" id="p266w476" />
<path d="M587.14 203.96l15.54 0l0 12.56l-15.54 0Z" id="p266w477" />
<path d="M527.1 219.49l19.44 0l0 12.23l-19.44 0Z" id="p266w478" />
<path d="M549.24 219.43l41.08 0l0 12.29l-41.08 0Z" id="p266w479" />
<path d="M593.02 219.49l22.95 0l0 12.23l-22.95 0Z" id="p266w480" />
<path d="M618.68 219.49l11.04 0l0 12.23l-11.04 0Z" id="p266w481" />
<path d="M632.41 219.24l15.34 0l0 12.56l-15.34 0Z" id="p266w482" />
<path d="M527.1 234.77l16.43 0l0 12.23l-16.43 0Z" id="p266w483" />
<path d="M546.23 234.71l34.1 0l0 12.29l-34.1 0Z" id="p266w484" />
<path d="M583.03 234.77l21.38 0l0 12.23l-21.38 0Z" id="p266w485" />
<path d="M622.12 234.53l15.54 0l0 12.56l-15.54 0Z" id="p266w486" />
<path d="M527.1 250.05l20.03 0l0 12.23l-20.03 0Z" id="p266w487" />
<path d="M549.83 250l38.19 0l0 12.29l-38.19 0Z" id="p266w488" />
<path d="M590.72 250.05l11.94 0l0 12.23l-11.94 0Z" id="p266w489" />
<path d="M605.36 250.05l16.87 0l0 12.23l-16.87 0Z" id="p266w490" />
<path d="M624.93 249.81l18.92 0l0 12.56l-18.92 0Z" id="p266w491" />
<path d="M527.1 265.34l14.41 0l0 12.23l-14.41 0Z" id="p266w492" />
<path d="M544.2 265.28l38.86 0l0 12.29l-38.86 0Z" id="p266w493" />
<path d="M585.76 265.34l11.94 0l0 12.23l-11.94 0Z" id="p266w494" />
<path d="M600.4 265.34l59.14 0l0 12.23l-59.14 0Z" id="p266w495" />
<path d="M662.25 265.09l15.54 0l0 12.56l-15.54 0Z" id="p266w496" />
<path d="M527.1 280.56l43.88 0l0 12.29l-43.88 0Z" id="p266w497" />
<path d="M573.68 280.62l38.21 0l0 12.23l-38.21 0Z" id="p266w498" />
<path d="M614.6 280.38l15.54 0l0 12.56l-15.54 0Z" id="p266w499" />
<path d="M527.1 295.9l14.41 0l0 12.23l-14.41 0Z" id="p266w500" />
<path d="M544.2 295.85l20.77 0l0 12.29l-20.77 0Z" id="p266w501" />
<path d="M567.68 295.9l11.94 0l0 12.23l-11.94 0Z" id="p266w502" />
<path d="M582.32 295.9l34.67 0l0 12.23l-34.67 0Z" id="p266w503" />
<path d="M619.69 295.66l15.54 0l0 12.56l-15.54 0Z" id="p266w504" />
<path d="M536.95 311.19l15.08 0l0 12.23l-15.08 0Z" id="p266w505" />
<path d="M554.73 311.19l20.93 0l0 12.23l-20.93 0Z" id="p266w506" />
<path d="M578.14 311.19l20.65 0l0 12.23l-20.65 0Z" id="p266w507" />
<path d="M601.49 311.19l35.69 0l0 12.23l-35.69 0Z" id="p266w508" />
<path d="M653.8 311.19l11.7 0l0 12.23l-11.7 0Z" id="p266w509" />
<path d="M668.21 311.19l24.76 0l0 12.23l-24.76 0Z" id="p266w510" />
<path d="M536.95 326.47l32.83 0l0 12.23l-32.83 0Z" id="p266w511" />
<path d="M572.48 326.23l17.26 0l0 12.56l-17.26 0Z" id="p266w512" />
<path d="M527.1 341.75l23.85 0l0 12.23l-23.85 0Z" id="p266w513" />
<path d="M553.65 341.75l59.99 0l0 12.23l-59.99 0Z" id="p266w514" />
<path d="M616.34 341.75l28.14 0l0 12.23l-28.14 0Z" id="p266w515" />
<path d="M647.19 341.7l31.42 0l0 12.29l-31.42 0Z" id="p266w516" />
<path d="M536.95 357.04l26.79 0l0 12.23l-26.79 0Z" id="p266w517" />
<path d="M566.43 357.04l11.7 0l0 12.23l-11.7 0Z" id="p266w518" />
<path d="M580.84 357.04l27.37 0l0 12.23l-27.37 0Z" id="p266w519" />
<path d="M610.91 356.79l15.54 0l0 12.56l-15.54 0Z" id="p266w520" />
<path d="M527.1 372.27l50.66 0l0 12.29l-50.66 0Z" id="p266w521" />
<path d="M580.46 372.32l35.32 0l0 12.23l-35.32 0Z" id="p266w522" />
<path d="M618.49 372.08l18.92 0l0 12.56l-18.92 0Z" id="p266w523" />
<path d="M527.1 387.55l49.01 0l0 12.29l-49.01 0Z" id="p266w524" />
<path d="M578.81 387.6l25.88 0l0 12.23l-25.88 0Z" id="p266w525" />
<path d="M607.38 387.36l15.54 0l0 12.56l-15.54 0Z" id="p266w526" />
<path d="M637.38 387.6l18.01 0l0 12.23l-18.01 0Z" id="p266w527" />
<path d="M658.09 387.6l20.47 0l0 12.23l-20.47 0Z" id="p266w528" />
<path d="M536.95 402.64l18.92 0l0 12.56l-18.92 0Z" id="p266w529" />
<path d="M527.1 418.17l39.38 0l0 12.23l-39.38 0Z" id="p266w530" />
<path d="M569.18 418.12l49.01 0l0 12.29l-49.01 0Z" id="p266w531" />
<path d="M620.89 418.17l35.32 0l0 12.23l-35.32 0Z" id="p266w532" />
<path d="M658.91 417.93l18.92 0l0 12.56l-18.92 0Z" id="p266w533" />
<path d="M527.1 433.4l19.46 0l0 12.29l-19.46 0Z" id="p266w534" />
<path d="M549.26 433.45l26.11 0l0 12.23l-26.11 0Z" id="p266w535" />
<path d="M578.07 433.45l17.56 0l0 12.23l-17.56 0Z" id="p266w536" />
<path d="M598.34 433.21l15.54 0l0 12.56l-15.54 0Z" id="p266w537" />
<path d="M629.38 433.45l34.89 0l0 12.23l-34.89 0Z" id="p266w538" />
<path d="M666.97 433.21l18.17 0l0 12.56l-18.17 0Z" id="p266w539" />
<path d="M527.1 448.68l34.43 0l0 12.29l-34.43 0Z" id="p266w540" />
<path d="M564.23 448.74l33.53 0l0 12.23l-33.53 0Z" id="p266w541" />
<path d="M600.47 448.49l15.54 0l0 12.56l-15.54 0Z" id="p266w542" />
<path d="M527.1 464.02l15.08 0l0 12.23l-15.08 0Z" id="p266w543" />
<path d="M544.88 464.02l24.75 0l0 12.23l-24.75 0Z" id="p266w544" />
<path d="M572.34 463.97l28.17 0l0 12.29l-28.17 0Z" id="p266w545" />
<path d="M603.2 464.02l21.83 0l0 12.23l-21.83 0Z" id="p266w546" />
<path d="M627.74 463.78l18.92 0l0 12.56l-18.92 0Z" id="p266w547" />
<path d="M527.1 479.25l23.01 0l0 12.29l-23.01 0Z" id="p266w548" />
<path d="M552.81 479.3l66.76 0l0 12.23l-66.76 0Z" id="p266w549" />
<path d="M622.27 479.06l15.34 0l0 12.56l-15.34 0Z" id="p266w550" />
<path d="M527.1 494.53l20.6 0l0 12.29l-20.6 0Z" id="p266w551" />
<path d="M550.4 494.59l27.18 0l0 12.23l-27.18 0Z" id="p266w552" />
<path d="M580.27 494.57l25.88 0l0 12.23l-25.88 0Z" id="p266w553" />
<path d="M608.85 494.59l17.34 0l0 12.23l-17.34 0Z" id="p266w554" />
<path d="M628.89 494.34l15.54 0l0 12.56l-15.54 0Z" id="p266w555" />
<path d="M527.1 509.87l20.04 0l0 12.23l-20.04 0Z" id="p266w556" />
<path d="M549.84 509.87l19.44 0l0 12.23l-19.44 0Z" id="p266w557" />
<path d="M571.98 509.82l59.33 0l0 12.29l-59.33 0Z" id="p266w558" />
<path d="M634.02 509.87l30.6 0l0 12.23l-30.6 0Z" id="p266w559" />
<path d="M667.32 509.87l11.04 0l0 12.23l-11.04 0Z" id="p266w560" />
<path d="M689.38 509.87l12.16 0l0 12.23l-12.16 0Z" id="p266w561" />
<path d="M536.95 524.91l18.17 0l0 12.56l-18.17 0Z" id="p266w562" />
<path d="M527.1 540.44l15.75 0l0 12.23l-15.75 0Z" id="p266w563" />
<path d="M545.55 540.44l19.44 0l0 12.23l-19.44 0Z" id="p266w564" />
<path d="M567.69 540.38l67.41 0l0 12.29l-67.41 0Z" id="p266w565" />
<path d="M637.81 540.44l44.81 0l0 12.23l-44.81 0Z" id="p266w566" />
<path d="M685.31 540.44l11.04 0l0 12.23l-11.04 0Z" id="p266w567" />
<path d="M536.95 555.48l18.92 0l0 12.56l-18.92 0Z" id="p266w568" />
<path d="M536.95 571.01l69.77 0l0 12.23l-69.77 0Z" id="p266w569" />
<path d="M609.42 571.01l19.44 0l0 12.23l-19.44 0Z" id="p266w570" />
<path d="M631.56 571.01l10.82 0l0 12.23l-10.82 0Z" id="p266w571" />
<path d="M645.07 571.01l15.76 0l0 12.23l-15.76 0Z" id="p266w572" />
<path d="M663.54 571.01l44.81 0l0 12.23l-44.81 0Z" id="p266w573" />
<path d="M545.27 586.29l21.37 0l0 12.23l-21.37 0Z" id="p266w574" />
<path d="M569.35 586.29l11.04 0l0 12.23l-11.04 0Z" id="p266w575" />
<path d="M583.09 586.04l18.92 0l0 12.56l-18.92 0Z" id="p266w576" />
<path d="M527.1 601.52l36.87 0l0 12.29l-36.87 0Z" id="p266w577" />
<path d="M568.14 601.52l32.97 0l0 12.29l-32.97 0Z" id="p266w578" />
<path d="M605.27 601.52l37.8 0l0 12.29l-37.8 0Z" id="p266w579" />
<path d="M536.95 616.83l74.22 0l0 12.23l-74.22 0Z" id="p266w580" />
<path d="M613.86 616.86l86.34 0l0 12.23l-86.34 0Z" id="p266w581" />
<path d="M536.95 632.14l33.31 0l0 12.23l-33.31 0Z" id="p266w582" />
<path d="M572.96 631.89l15.34 0l0 12.56l-15.34 0Z" id="p266w583" />
<path d="M527.1 647.37l36.87 0l0 12.29l-36.87 0Z" id="p266w584" />
<path d="M568.14 647.37l75.07 0l0 12.29l-75.07 0Z" id="p266w585" />
<path d="M536.95 662.68l81.41 0l0 12.23l-81.41 0Z" id="p266w586" />
<path d="M621.06 662.71l73.84 0l0 12.23l-73.84 0Z" id="p266w587" />
<path d="M536.95 677.99l88.57 0l0 12.23l-88.57 0Z" id="p266w588" />
<path d="M628.21 677.74l18.92 0l0 12.56l-18.92 0Z" id="p266w589" />
<path d="M527.1 693.27l14.41 0l0 12.23l-14.41 0Z" id="p266w590" />
<path d="M544.2 693.22l21.65 0l0 12.29l-21.65 0Z" id="p266w591" />
<path d="M568.56 693.27l8.33 0l0 12.23l-8.33 0Z" id="p266w592" />
<path d="M579.58 693.27l32.87 0l0 12.23l-32.87 0Z" id="p266w593" />
<path d="M615.15 693.03l18.01 0l0 12.56l-18.01 0Z" id="p266w594" />
<path d="M536.95 708.56l8.78 0l0 12.23l-8.78 0Z" id="p266w595" />
<path d="M548.43 708.56l14.41 0l0 12.23l-14.41 0Z" id="p266w596" />
<path d="M565.53 708.56l28.31 0l0 12.23l-28.31 0Z" id="p266w597" />
<path d="M596.32 708.56l21.15 0l0 12.23l-21.15 0Z" id="p266w598" />
<path d="M620.18 708.56l38.71 0l0 12.23l-38.71 0Z" id="p266w599" />
<path d="M661.59 708.56l35.33 0l0 12.23l-35.33 0Z" id="p266w600" />
<path d="M536.95 723.84l21.37 0l0 12.23l-21.37 0Z" id="p266w601" />
<path d="M561.02 723.84l8.33 0l0 12.23l-8.33 0Z" id="p266w602" />
<path d="M572.05 723.84l19.36 0l0 12.23l-19.36 0Z" id="p266w603" />
<path d="M594.11 723.84l11.94 0l0 12.23l-11.94 0Z" id="p266w604" />
<path d="M608.75 723.84l32.87 0l0 12.23l-32.87 0Z" id="p266w605" />
<path d="M644.32 723.59l15.34 0l0 12.56l-15.34 0Z" id="p266w606" />
<path d="M527.1 739.07l24.84 0l0 12.29l-24.84 0ZM554.64 739.12l141.05 0l0 12.23l-141.05 0Z" id="p266w607" />
<path d="M536.95 754.41l48.62 0l0 12.23l-48.62 0Z" id="p266w608" />
<path d="M588.27 754.16l18.92 0l0 12.56l-18.92 0Z" id="p266w609" />
<path d="M527.1 769.69l20.03 0l0 12.23l-20.03 0Z" id="p266w610" />
<path d="M549.83 769.63l44.37 0l0 12.29l-44.37 0Z" id="p266w611" />
<path d="M596.9 769.69l37.59 0l0 12.23l-37.59 0Z" id="p266w612" />
<path d="M637.19 769.69l21.37 0l0 12.23l-21.37 0Z" id="p266w613" />
<path d="M661.27 769.69l8.33 0l0 12.23l-8.33 0Z" id="p266w614" />
<path d="M672.3 769.69l19.36 0l0 12.23l-19.36 0Z" id="p266w615" />
<path d="M694.36 769.69l11.94 0l0 12.23l-11.94 0Z" id="p266w616" />
<path d="M536.95 784.97l32.87 0l0 12.23l-32.87 0Z" id="p266w617" />
<path d="M572.51 784.73l15.34 0l0 12.56l-15.34 0Z" id="p266w618" />
<path d="M527.1 800.2l20.97 0l0 12.29l-20.97 0Z" id="p266w619" />
<path d="M568.97 800.26l15.76 0l0 12.23l-15.76 0Z" id="p266w620" />
<path d="M587.43 800.26l27.83 0l0 12.23l-27.83 0Z" id="p266w621" />
<path d="M617.97 800.26l17.56 0l0 12.23l-17.56 0Z" id="p266w622" />
<path d="M659.12 800.01l18.92 0l0 12.56l-18.92 0Z" id="p266w623" />
<path d="M527.1 815.54l14.41 0l0 12.23l-14.41 0Z" id="p266w624" />
<path d="M544.2 815.48l28.61 0l0 12.29l-28.61 0Z" id="p266w625" />
<path d="M575.52 815.54l11.94 0l0 12.23l-11.94 0Z" id="p266w626" />
<path d="M590.15 815.54l17.56 0l0 12.23l-17.56 0Z" id="p266w627" />
<path d="M610.42 815.54l11.7 0l0 12.23l-11.7 0Z" id="p266w628" />
<path d="M624.82 815.3l15.54 0l0 12.56l-15.54 0Z" id="p266w629" />
<path d="M527.1 830.77l38.14 0l0 12.29l-38.14 0Z" id="p266w630" />
<path d="M567.94 830.82l52.65 0l0 12.23l-52.65 0Z" id="p266w631" />
<path d="M623.29 830.82l13.05 0l0 12.23l-13.05 0Z" id="p266w632" />
<path d="M639.04 830.82l28.59 0l0 12.23l-28.59 0Z" id="p266w633" />
<path d="M536.95 846.11l52.65 0l0 12.23l-52.65 0Z" id="p266w634" />
<path d="M592.3 846.11l17.56 0l0 12.23l-17.56 0Z" id="p266w635" />
<path d="M612.56 845.86l18.92 0l0 12.56l-18.92 0Z" id="p266w636" />
<path d="M527.1 861.33l53.93 0l0 12.29l-53.93 0Z" id="p266w637" />
<path d="M583.73 861.39l11.48 0l0 12.23l-11.48 0Z" id="p266w638" />
<path d="M597.91 861.39l28.59 0l0 12.23l-28.59 0Z" id="p266w639" />
<path d="M629.2 861.15l18.01 0l0 12.56l-18.01 0Z" id="p266w640" />
<path d="M527.1 876.62l26 0l0 12.29l-26 0Z" id="p266w641" />
<path d="M555.8 876.67l29.72 0l0 12.23l-29.72 0Z" id="p266w642" />
<path d="M588.22 876.43l14.63 0l0 12.56l-14.63 0Z" id="p266w643" />
<path d="M527.1 891.9l26 0l0 12.29l-26 0Z" id="p266w644" />
<path d="M555.8 891.96l7.42 0l0 12.23l-7.42 0Z" id="p266w645" />
<path d="M565.92 891.71l15.54 0l0 12.56l-15.54 0Z" id="p266w646" />
<path d="M536.95 907.24l22.52 0l0 12.23l-22.52 0Z" id="p266w647" />
<path d="M562.17 907.24l26.11 0l0 12.23l-26.11 0Z" id="p266w648" />
<path d="M590.98 907.24l29.7 0l0 12.23l-29.7 0Z" id="p266w649" />
<path d="M623.38 907.24l7.42 0l0 12.23l-7.42 0Z" id="p266w650" />
<path d="M633.5 907l18.92 0l0 12.56l-18.92 0Z" id="p266w651" />
<path d="M527.1 922.47l17.74 0l0 12.29l-17.74 0Z" id="p266w652" />
<path d="M547.54 922.53l14.64 0l0 12.23l-14.64 0Z" id="p266w653" />
<path d="M564.88 922.51l81.41 0l0 12.23l-81.41 0Z" id="p266w654" />
<path d="M648.99 922.28l14.79 0l0 12.56l-14.79 0Z" id="p266w655" />
</svg>
