<?xml version="1.0" encoding="UTF-8"?>
<svg xmlns="http://www.w3.org/2000/svg" xmlns:xlink="http://www.w3.org/1999/xlink" version="1.1" baseProfile="full" width="768" height="1024" viewBox="0,0,768,1024" preserveAspectRatio="xMinYMin meet" >
<style type="text/css">
<![CDATA[
path {fill-opacity: 0.5;fill: #00aeef;visibility: hidden;}
]]>
</style>
<path d="M124.06 107.98l56.18 0l0 18.84l-56.18 0Z" id="p174w1" />
<path d="M76.9 983l94.41 0l0 12.23l-94.41 0Z" id="p174w2" />
<path d="M124.06 38.6l67.98 0l0 16.09l-67.98 0Z" id="p174w3" />
<path d="M590.98 346l55.48 0l0 12.56l-55.48 0Z" id="p174w4" />
<path d="M122.04 364.83l110.4 0l0 15.37l-110.4 0Z" id="p174w5" />
<path d="M122.04 386.12l28.87 0l0 14.52l-28.87 0Z" id="p174w6" />
<path d="M154.11 386.12l103.28 0l0 14.52l-103.28 0Z" id="p174w7" />
<path d="M260.6 386.12l35.48 0l0 14.52l-35.48 0Z" id="p174w8" />
<path d="M299.29 386.12l17.11 0l0 14.52l-17.11 0Z" id="p174w9" />
<path d="M319.6 386.12l47.25 0l0 14.52l-47.25 0Z" id="p174w10" />
<path d="M370.07 386.12l38.25 0l0 14.52l-38.25 0Z" id="p174w11" />
<path d="M411.52 386.12l19.77 0l0 14.52l-19.77 0Z" id="p174w12" />
<path d="M434.5 386.12l28.06 0l0 14.52l-28.06 0Z" id="p174w13" />
<path d="M465.77 386.12l78.05 0l0 14.52l-78.05 0Z" id="p174w14" />
<path d="M547.03 386.12l36.61 0l0 14.52l-36.61 0Z" id="p174w15" />
<path d="M586.85 386.12l17.11 0l0 14.52l-17.11 0Z" id="p174w16" />
<path d="M122.04 402.79l79.94 0l0 14.52l-79.94 0Z" id="p174w17" />
<path d="M205.18 402.79l63.59 0l0 14.52l-63.59 0Z" id="p174w18" />
<path d="M271.98 402.79l36.91 0l0 14.52l-36.91 0Z" id="p174w19" />
<path d="M312.09 402.79l55.08 0l0 14.52l-55.08 0Z" id="p174w20" />
<path d="M370.38 402.79l17.91 0l0 14.52l-17.91 0Z" id="p174w21" />
<path d="M391.5 402.79l49.39 0l0 14.52l-49.39 0Z" id="p174w22" />
<path d="M444.1 402.79l35.76 0l0 14.52l-35.76 0Z" id="p174w23" />
<path d="M122.04 427.8l19.51 0l0 14.52l-19.51 0Z" id="p174w24" />
<path d="M144.4 427.8l23.79 0l0 14.52l-23.79 0Z" id="p174w25" />
<path d="M171.39 427.8l21.4 0l0 14.52l-21.4 0Z" id="p174w26" />
<path d="M195.99 427.8l17.11 0l0 14.52l-17.11 0Z" id="p174w27" />
<path d="M216.31 427.8l56.35 0l0 14.52l-56.35 0Z" id="p174w28" />
<path d="M275.86 427.8l24.97 0l0 14.52l-24.97 0Z" id="p174w29" />
<path d="M304.04 427.8l18.44 0l0 14.52l-18.44 0Z" id="p174w30" />
<path d="M325.69 427.73l52.55 0l0 14.6l-52.55 0Z" id="p174w31" />
<path d="M381.44 427.8l19.51 0l0 14.52l-19.51 0Z" id="p174w32" />
<path d="M404.16 427.8l35.81 0l0 14.52l-35.81 0Z" id="p174w33" />
<path d="M443.18 427.8l34.95 0l0 14.52l-34.95 0Z" id="p174w34" />
<path d="M481.34 427.8l26.74 0l0 14.52l-26.74 0Z" id="p174w35" />
<path d="M511.28 427.8l50.5 0l0 14.52l-50.5 0Z" id="p174w36" />
<path d="M564.99 427.8l38.48 0l0 14.52l-38.48 0Z" id="p174w37" />
<path d="M122.04 444.47l17.11 0l0 14.52l-17.11 0Z" id="p174w38" />
<path d="M142.35 444.47l65.15 0l0 14.52l-65.15 0Z" id="p174w39" />
<path d="M210.71 444.47l80.2 0l0 14.52l-80.2 0Z" id="p174w40" />
<path d="M294.12 444.47l25.4 0l0 14.52l-25.4 0Z" id="p174w41" />
<path d="M322.72 444.47l19.51 0l0 14.52l-19.51 0Z" id="p174w42" />
<path d="M345.08 444.47l40.36 0l0 14.52l-40.36 0Z" id="p174w43" />
<path d="M388.65 444.47l17.11 0l0 14.52l-17.11 0Z" id="p174w44" />
<path d="M408.96 444.47l54.54 0l0 14.52l-54.54 0Z" id="p174w45" />
<path d="M466.71 444.47l21.12 0l0 14.52l-21.12 0Z" id="p174w46" />
<path d="M491.04 444.47l17.63 0l0 14.52l-17.63 0Z" id="p174w47" />
<path d="M511.88 444.47l21.4 0l0 14.52l-21.4 0Z" id="p174w48" />
<path d="M536.48 444.47l17.11 0l0 14.52l-17.11 0Z" id="p174w49" />
<path d="M556.8 444.47l23.79 0l0 14.52l-23.79 0Z" id="p174w50" />
<path d="M122.04 469.48l18.18 0l0 14.52l-18.18 0Z" id="p174w51" />
<path d="M143.42 469.42l33.21 0l0 14.6l-33.21 0Z" id="p174w52" />
<path d="M179.84 469.48l71.37 0l0 14.52l-71.37 0Z" id="p174w53" />
<path d="M254.41 469.48l19.51 0l0 14.52l-19.51 0Z" id="p174w54" />
<path d="M277.13 469.48l72.72 0l0 14.52l-72.72 0Z" id="p174w55" />
<path d="M353.05 469.48l21.4 0l0 14.52l-21.4 0Z" id="p174w56" />
<path d="M377.65 469.48l60.4 0l0 14.52l-60.4 0Z" id="p174w57" />
<path d="M441.26 469.48l31.27 0l0 14.52l-31.27 0Z" id="p174w58" />
<path d="M475.74 469.48l19.51 0l0 14.52l-19.51 0Z" id="p174w59" />
<path d="M498.1 469.48l89.82 0l0 14.52l-89.82 0Z" id="p174w60" />
<path d="M122.04 494.5l17.91 0l0 14.52l-17.91 0Z" id="p174w61" />
<path d="M142.72 494.5l153.09 0l0 14.52l-153.09 0Z" id="p174w62" />
<path d="M299.01 494.5l32.09 0l0 14.52l-32.09 0Z" id="p174w63" />
<path d="M334.31 494.5l14.97 0l0 14.52l-14.97 0Z" id="p174w64" />
<path d="M352.48 494.5l24.85 0l0 14.52l-24.85 0Z" id="p174w65" />
<path d="M380.55 494.5l91.13 0l0 14.52l-91.13 0Z" id="p174w66" />
<path d="M474.88 494.5l72.69 0l0 14.52l-72.69 0Z" id="p174w67" />
<path d="M550.78 494.5l26.74 0l0 14.52l-26.74 0Z" id="p174w68" />
<path d="M580.73 494.5l18.72 0l0 14.52l-18.72 0Z" id="p174w69" />
<path d="M602.65 494.5l17.91 0l0 14.52l-17.91 0Z" id="p174w70" />
<path d="M623.77 494.5l17.11 0l0 14.52l-17.11 0Z" id="p174w71" />
<path d="M644.08 494.5l32.62 0l0 14.52l-32.62 0Z" id="p174w72" />
<path d="M122.04 511.17l37.16 0l0 14.52l-37.16 0Z" id="p174w73" />
<path d="M162.4 511.17l21.4 0l0 14.52l-21.4 0Z" id="p174w74" />
<path d="M187 511.17l17.11 0l0 14.52l-17.11 0Z" id="p174w75" />
<path d="M207.32 511.17l34.74 0l0 14.52l-34.74 0Z" id="p174w76" />
<path d="M245 511.17l45.97 0l0 14.52l-45.97 0Z" id="p174w77" />
<path d="M294.18 511.17l18.44 0l0 14.52l-18.44 0Z" id="p174w78" />
<path d="M315.83 511.17l33.42 0l0 14.52l-33.42 0Z" id="p174w79" />
<path d="M352.46 511.17l21.12 0l0 14.52l-21.12 0Z" id="p174w80" />
<path d="M376.78 511.17l23.52 0l0 14.52l-23.52 0Z" id="p174w81" />
<path d="M403.51 511.17l49.44 0l0 14.52l-49.44 0Z" id="p174w82" />
<path d="M456.16 511.17l21.4 0l0 14.52l-21.4 0Z" id="p174w83" />
<path d="M480.77 511.17l26.74 0l0 14.52l-26.74 0Z" id="p174w84" />
<path d="M510.72 511.17l38.21 0l0 14.52l-38.21 0Z" id="p174w85" />
<path d="M552.14 511.17l20.85 0l0 14.52l-20.85 0Z" id="p174w86" />
<path d="M576.2 511.17l80.2 0l0 14.52l-80.2 0Z" id="p174w87" />
<path d="M591.04 147.09l55.48 0l0 12.56l-55.48 0Z" id="p174w88" />
<path d="M122.09 165.92l79.54 0l0 15.37l-79.54 0Z" id="p174w89" />
<path d="M205.01 165.92l24.4 0l0 15.37l-24.4 0Z" id="p174w90" />
<path d="M232.79 165.92l45.43 0l0 15.37l-45.43 0Z" id="p174w91" />
<path d="M281.6 165.92l46.61 0l0 15.37l-46.61 0Z" id="p174w92" />
<path d="M331.59 165.92l29.72 0l0 15.37l-29.72 0Z" id="p174w93" />
<path d="M364.68 165.92l35.62 0l0 15.37l-35.62 0Z" id="p174w94" />
<path d="M122.09 187.21l31.81 0l0 14.52l-31.81 0Z" id="p174w95" />
<path d="M157.11 187.21l14.97 0l0 14.52l-14.97 0Z" id="p174w96" />
<path d="M175.29 187.21l34.74 0l0 14.52l-34.74 0Z" id="p174w97" />
<path d="M213.23 187.21l41.7 0l0 14.52l-41.7 0Z" id="p174w98" />
<path d="M258.14 187.21l37.35 0l0 14.52l-37.35 0Z" id="p174w99" />
<path d="M298.7 187.21l80.2 0l0 14.52l-80.2 0Z" id="p174w100" />
<path d="M382.11 187.21l64.41 0l0 14.52l-64.41 0Z" id="p174w101" />
<path d="M449.73 187.21l30.48 0l0 14.52l-30.48 0Z" id="p174w102" />
<path d="M483.41 187.21l27.27 0l0 14.52l-27.27 0Z" id="p174w103" />
<path d="M513.89 187.21l12.29 0l0 14.52l-12.29 0Z" id="p174w104" />
<path d="M529.38 187.21l45.45 0l0 14.52l-45.45 0Z" id="p174w105" />
<path d="M578.04 187.21l25.4 0l0 14.52l-25.4 0Z" id="p174w106" />
<path d="M122.09 203.88l21.92 0l0 14.52l-21.92 0Z" id="p174w107" />
<path d="M147.22 203.88l28.06 0l0 14.52l-28.06 0Z" id="p174w108" />
<path d="M178.49 203.88l33.95 0l0 14.52l-33.95 0Z" id="p174w109" />
<path d="M215.65 203.88l43.04 0l0 14.52l-43.04 0Z" id="p174w110" />
<path d="M261.9 203.88l12.84 0l0 14.52l-12.84 0Z" id="p174w111" />
<path d="M277.95 203.88l47.32 0l0 14.52l-47.32 0Z" id="p174w112" />
<path d="M122.09 228.89l46.25 0l0 14.52l-46.25 0Z" id="p174w113" />
<path d="M171.55 228.89l19.51 0l0 14.52l-19.51 0Z" id="p174w114" />
<path d="M194.27 228.83l37.79 0l0 14.6l-37.79 0Z" id="p174w115" />
<path d="M237.94 228.89l12.84 0l0 14.52l-12.84 0Z" id="p174w116" />
<path d="M253.99 228.89l24.85 0l0 14.52l-24.85 0Z" id="p174w117" />
<path d="M282.05 228.89l14.97 0l0 14.52l-14.97 0Z" id="p174w118" />
<path d="M300.23 228.89l80.2 0l0 14.52l-80.2 0Z" id="p174w119" />
<path d="M383.64 228.89l45.46 0l0 14.52l-45.46 0Z" id="p174w120" />
<path d="M432.3 228.89l15.5 0l0 14.52l-15.5 0Z" id="p174w121" />
<path d="M451.01 228.83l62.31 0l0 14.6l-62.31 0Z" id="p174w122" />
<path d="M516.53 228.89l17.91 0l0 14.52l-17.91 0Z" id="p174w123" />
<path d="M537.65 228.89l31.01 0l0 14.52l-31.01 0Z" id="p174w124" />
<path d="M571.86 228.89l35 0l0 14.52l-35 0Z" id="p174w125" />
<path d="M122.09 253.9l32.87 0l0 14.52l-32.87 0Z" id="p174w126" />
<path d="M158.17 253.9l28.06 0l0 14.52l-28.06 0Z" id="p174w127" />
<path d="M189.44 253.9l33.95 0l0 14.52l-33.95 0Z" id="p174w128" />
<path d="M226.59 253.84l80.86 0l0 14.6l-80.86 0Z" id="p174w129" />
<path d="M310.66 253.9l40.1 0l0 14.52l-40.1 0Z" id="p174w130" />
<path d="M353.96 253.9l17.11 0l0 14.52l-17.11 0Z" id="p174w131" />
<path d="M374.28 253.9l12.84 0l0 14.52l-12.84 0Z" id="p174w132" />
<path d="M390.33 253.9l35.81 0l0 14.52l-35.81 0Z" id="p174w133" />
<path d="M428.99 253.9l37.68 0l0 14.52l-37.68 0Z" id="p174w134" />
<path d="M469.88 253.9l39.02 0l0 14.52l-39.02 0Z" id="p174w135" />
<path d="M512.11 253.9l21.4 0l0 14.52l-21.4 0Z" id="p174w136" />
<path d="M536.71 253.9l37.68 0l0 14.52l-37.68 0Z" id="p174w137" />
<path d="M577.6 253.84l60.35 0l0 14.6l-60.35 0Z" id="p174w138" />
<path d="M122.09 270.57l17.91 0l0 14.52l-17.91 0Z" id="p174w139" />
<path d="M143.21 270.57l67.38 0l0 14.52l-67.38 0Z" id="p174w140" />
<path d="M122.09 295.59l28.87 0l0 14.52l-28.87 0Z" id="p174w141" />
<path d="M154.17 295.59l44.1 0l0 14.52l-44.1 0Z" id="p174w142" />
<path d="M201.47 295.59l33.95 0l0 14.52l-33.95 0Z" id="p174w143" />
<path d="M238.63 295.59l32.09 0l0 14.52l-32.09 0Z" id="p174w144" />
<path d="M273.92 295.59l14.97 0l0 14.52l-14.97 0Z" id="p174w145" />
<path d="M292.1 295.59l24.85 0l0 14.52l-24.85 0Z" id="p174w146" />
<path d="M320.16 295.59l43.04 0l0 14.52l-43.04 0Z" id="p174w147" />
<path d="M366.41 295.59l54.57 0l0 14.52l-54.57 0Z" id="p174w148" />
<path d="M591.23 564.06l55.48 0l0 12.56l-55.48 0Z" id="p174w149" />
<path d="M122.28 582.88l110.4 0l0 15.37l-110.4 0Z" id="p174w150" />
<path d="M236.06 582.88l17.12 0l0 15.37l-17.12 0Z" id="p174w151" />
<path d="M122.28 604.17l28.87 0l0 14.52l-28.87 0Z" id="p174w152" />
<path d="M154.36 604.17l103.28 0l0 14.52l-103.28 0Z" id="p174w153" />
<path d="M260.85 604.17l41.96 0l0 14.52l-41.96 0Z" id="p174w154" />
<path d="M306.02 604.17l39.29 0l0 14.52l-39.29 0Z" id="p174w155" />
<path d="M348.52 604.17l28.07 0l0 14.52l-28.07 0Z" id="p174w156" />
<path d="M379.8 604.17l18.72 0l0 14.52l-18.72 0Z" id="p174w157" />
<path d="M401.73 604.17l31.82 0l0 14.52l-31.82 0Z" id="p174w158" />
<path d="M436.76 604.17l47.6 0l0 14.52l-47.6 0Z" id="p174w159" />
<path d="M487.56 604.17l45.45 0l0 14.52l-45.45 0Z" id="p174w160" />
<path d="M536.21 604.17l26.74 0l0 14.52l-26.74 0Z" id="p174w161" />
<path d="M122.28 620.84l31.82 0l0 14.52l-31.82 0Z" id="p174w162" />
<path d="M157.31 620.77l21.9 0l0 14.6l-21.9 0Z" id="p174w163" />
<path d="M182.42 620.84l21.4 0l0 14.52l-21.4 0Z" id="p174w164" />
<path d="M207.02 620.77l19.67 0l0 14.6l-19.67 0Z" id="p174w165" />
<path d="M229.9 620.84l57.72 0l0 14.52l-57.72 0Z" id="p174w166" />
<path d="M122.28 645.85l58.2 0l0 14.52l-58.2 0Z" id="p174w167" />
<path d="M183.69 645.85l13.36 0l0 14.52l-13.36 0Z" id="p174w168" />
<path d="M200.25 645.85l12.29 0l0 14.52l-12.29 0Z" id="p174w169" />
<path d="M215.75 645.85l28.06 0l0 14.52l-28.06 0Z" id="p174w170" />
<path d="M246.58 645.85l55.86 0l0 14.52l-55.86 0Z" id="p174w171" />
<path d="M305.65 645.85l21.4 0l0 14.52l-21.4 0Z" id="p174w172" />
<path d="M330.25 645.85l64.68 0l0 14.52l-64.68 0Z" id="p174w173" />
<path d="M398.14 645.85l20.33 0l0 14.52l-20.33 0Z" id="p174w174" />
<path d="M421.67 645.85l37.42 0l0 14.52l-37.42 0Z" id="p174w175" />
<path d="M462.3 645.85l48.12 0l0 14.52l-48.12 0Z" id="p174w176" />
<path d="M513.63 645.85l21.92 0l0 14.52l-21.92 0Z" id="p174w177" />
<path d="M538.76 645.85l17.91 0l0 14.52l-17.91 0Z" id="p174w178" />
<path d="M122.28 662.52l17.11 0l0 14.52l-17.11 0Z" id="p174w179" />
<path d="M142.6 662.52l56.86 0l0 14.52l-56.86 0Z" id="p174w180" />
<path d="M202.67 662.52l44.63 0l0 14.52l-44.63 0Z" id="p174w181" />
<path d="M250.5 662.52l12.84 0l0 14.52l-12.84 0Z" id="p174w182" />
<path d="M266.55 662.52l80.2 0l0 14.52l-80.2 0Z" id="p174w183" />
<path d="M349.96 662.52l51.27 0l0 14.52l-51.27 0Z" id="p174w184" />
<path d="M404.43 662.52l38.16 0l0 14.52l-38.16 0Z" id="p174w185" />
<path d="M445.8 662.52l35.28 0l0 14.52l-35.28 0Z" id="p174w186" />
<path d="M484.29 662.52l26.74 0l0 14.52l-26.74 0Z" id="p174w187" />
<path d="M514.24 662.52l33.68 0l0 14.52l-33.68 0Z" id="p174w188" />
<path d="M122.28 687.47l33.84 0l0 14.6l-33.84 0Z" id="p174w189" />
<path d="M131.64 704.21l20.84 0l0 14.52l-20.84 0Z" id="p174w190" />
<path d="M155.69 704.21l51.05 0l0 14.52l-51.05 0Z" id="p174w191" />
<path d="M209.95 704.21l17.11 0l0 14.52l-17.11 0Z" id="p174w192" />
<path d="M230.27 704.21l51.86 0l0 14.52l-51.86 0Z" id="p174w193" />
<path d="M285.33 704.21l68.15 0l0 14.52l-68.15 0Z" id="p174w194" />
<path d="M356.69 704.21l63.37 0l0 14.52l-63.37 0Z" id="p174w195" />
<path d="M423.27 704.21l63.08 0l0 14.52l-63.08 0Z" id="p174w196" />
<path d="M489.55 704.21l68.52 0l0 14.52l-68.52 0Z" id="p174w197" />
<path d="M561.28 704.21l29.14 0l0 14.52l-29.14 0Z" id="p174w198" />
<path d="M131.64 720.88l40.36 0l0 14.52l-40.36 0Z" id="p174w199" />
<path d="M175.21 720.88l57.94 0l0 14.52l-57.94 0Z" id="p174w200" />
<path d="M236.36 720.88l24.59 0l0 14.52l-24.59 0Z" id="p174w201" />
<path d="M264.16 720.88l31.82 0l0 14.52l-31.82 0Z" id="p174w202" />
<path d="M299.19 720.88l17.11 0l0 14.52l-17.11 0Z" id="p174w203" />
<path d="M319.51 720.88l58.27 0l0 14.52l-58.27 0Z" id="p174w204" />
<path d="M380.99 720.88l24.97 0l0 14.52l-24.97 0Z" id="p174w205" />
<path d="M409.17 720.88l31.82 0l0 14.52l-31.82 0Z" id="p174w206" />
<path d="M444.2 720.88l17.11 0l0 14.52l-17.11 0Z" id="p174w207" />
<path d="M464.51 720.88l32.88 0l0 14.52l-32.88 0Z" id="p174w208" />
<path d="M500.6 720.88l47.25 0l0 14.52l-47.25 0Z" id="p174w209" />
<path d="M131.91 737.55l23.26 0l0 14.52l-23.26 0Z" id="p174w210" />
<path d="M158.37 737.55l12.29 0l0 14.52l-12.29 0Z" id="p174w211" />
<path d="M173.43 737.55l85.21 0l0 14.52l-85.21 0Z" id="p174w212" />
<path d="M261.85 737.55l24.97 0l0 14.52l-24.97 0Z" id="p174w213" />
<path d="M290.03 737.55l87.37 0l0 14.52l-87.37 0Z" id="p174w214" />
<path d="M122.28 762.5l34.73 0l0 14.6l-34.73 0Z" id="p174w215" />
<path d="M131.64 779.23l17.65 0l0 14.52l-17.65 0Z" id="p174w216" />
<path d="M157.27 779.23l31.72 0l0 14.52l-31.72 0Z" id="p174w217" />
<path d="M192.2 779.23l30.46 0l0 14.52l-30.46 0Z" id="p174w218" />
<path d="M225.87 779.23l17.11 0l0 14.52l-17.11 0Z" id="p174w219" />
<path d="M246.19 779.23l59.29 0l0 14.52l-59.29 0Z" id="p174w220" />
<path d="M131.64 795.9l20.84 0l0 14.52l-20.84 0Z" id="p174w221" />
<path d="M155.69 795.9l13.36 0l0 14.52l-13.36 0Z" id="p174w222" />
<path d="M172.26 795.9l17.11 0l0 14.52l-17.11 0Z" id="p174w223" />
<path d="M192.57 795.9l67.98 0l0 14.52l-67.98 0Z" id="p174w224" />
<path d="M268.8 795.9l57.94 0l0 14.52l-57.94 0Z" id="p174w225" />
<path d="M358.35 795.9l47.85 0l0 14.52l-47.85 0Z" id="p174w226" />
<path d="M131.64 812.57l20.84 0l0 14.52l-20.84 0Z" id="p174w227" />
<path d="M155.69 812.57l45.45 0l0 14.52l-45.45 0Z" id="p174w228" />
<path d="M204.34 812.57l17.11 0l0 14.52l-17.11 0Z" id="p174w229" />
<path d="M224.66 812.57l51.86 0l0 14.52l-51.86 0Z" id="p174w230" />
<path d="M308.13 812.57l37.33 0l0 14.52l-37.33 0Z" id="p174w231" />
<path d="M348.66 812.57l43.83 0l0 14.52l-43.83 0Z" id="p174w232" />
<path d="M131.91 829.24l23.26 0l0 14.52l-23.26 0Z" id="p174w233" />
<path d="M158.37 829.24l12.29 0l0 14.52l-12.29 0Z" id="p174w234" />
<path d="M173.43 829.24l85.21 0l0 14.52l-85.21 0Z" id="p174w235" />
<path d="M261.85 829.24l24.97 0l0 14.52l-24.97 0Z" id="p174w236" />
<path d="M290.03 829.24l87.37 0l0 14.52l-87.37 0Z" id="p174w237" />
<path d="M131.64 845.91l40.36 0l0 14.52l-40.36 0Z" id="p174w238" />
<path d="M175.21 845.91l71.63 0l0 14.52l-71.63 0Z" id="p174w239" />
<path d="M250.05 845.91l41.96 0l0 14.52l-41.96 0Z" id="p174w240" />
<path d="M295.22 845.91l50 0l0 14.52l-50 0Z" id="p174w241" />
<path d="M122.28 870.86l33.84 0l0 14.6l-33.84 0Z" id="p174w242" />
<path d="M159.33 870.86l21.5 0l0 14.6l-21.5 0Z" id="p174w243" />
<path d="M184.04 870.86l34.73 0l0 14.6l-34.73 0Z" id="p174w244" />
<path d="M131.64 887.6l40.1 0l0 14.52l-40.1 0Z" id="p174w245" />
<path d="M174.95 887.6l25.59 0l0 14.52l-25.59 0Z" id="p174w246" />
<path d="M203.75 887.6l12.29 0l0 14.52l-12.29 0Z" id="p174w247" />
<path d="M219.25 887.6l10.43 0l0 14.52l-10.43 0Z" id="p174w248" />
<path d="M232.88 887.6l24.85 0l0 14.52l-24.85 0Z" id="p174w249" />
<path d="M260.94 887.6l28.6 0l0 14.52l-28.6 0Z" id="p174w250" />
<path d="M131.64 904.27l20.84 0l0 14.52l-20.84 0Z" id="p174w251" />
<path d="M155.69 904.27l24.59 0l0 14.52l-24.59 0Z" id="p174w252" />
<path d="M183.49 904.27l18.44 0l0 14.52l-18.44 0Z" id="p174w253" />
<path d="M205.14 904.27l32.62 0l0 14.52l-32.62 0Z" id="p174w254" />
<path d="M240.96 904.27l64.97 0l0 14.52l-64.97 0Z" id="p174w255" />
<path d="M131.64 920.94l22.89 0l0 14.52l-22.89 0Z" id="p174w256" />
<path d="M157.74 920.94l13.36 0l0 14.52l-13.36 0Z" id="p174w257" />
<path d="M174.3 920.94l17.11 0l0 14.52l-17.11 0Z" id="p174w258" />
<path d="M194.62 920.94l41.43 0l0 14.52l-41.43 0Z" id="p174w259" />
<path d="M244.3 920.94l53.73 0l0 14.52l-53.73 0Z" id="p174w260" />
<path d="M301.24 920.94l19.51 0l0 14.52l-19.51 0Z" id="p174w261" />
<path d="M323.96 920.94l34.21 0l0 14.52l-34.21 0Z" id="p174w262" />
</svg>
