<?xml version="1.0" encoding="UTF-8"?>
<svg xmlns="http://www.w3.org/2000/svg" xmlns:xlink="http://www.w3.org/1999/xlink" version="1.1" baseProfile="full" width="768" height="1024" viewBox="0,0,768,1024" preserveAspectRatio="xMinYMin meet" >
<style type="text/css">
<![CDATA[
path {fill-opacity: 0.5;fill: #00aeef;visibility: hidden;}
]]>
</style>
<path d="M124.06 38.6l71 0l0 16.09l-71 0Z" id="p210w1" />
<path d="M78.77 983.66l67.62 0l0 12.23l-67.62 0Z" id="p210w2" />
<path d="M124.06 110.01l77.6 0l0 14.6l-77.6 0Z" id="p210w3" />
<path d="M204.96 108.77l65.71 0l0 16.35l-65.71 0Z" id="p210w4" />
<path d="M297.36 110.09l57.42 0l0 14.52l-57.42 0Z" id="p210w5" />
<path d="M357.98 110.09l60.08 0l0 14.52l-60.08 0Z" id="p210w6" />
<path d="M482.46 110.09l28.34 0l0 14.52l-28.34 0Z" id="p210w7" />
<path d="M514.01 110.09l14.18 0l0 14.52l-14.18 0Z" id="p210w8" />
<path d="M531.39 110.09l47.04 0l0 14.52l-47.04 0Z" id="p210w9" />
<path d="M581.64 110.09l16.83 0l0 14.52l-16.83 0Z" id="p210w10" />
<path d="M601.68 110.09l79.66 0l0 14.52l-79.66 0Z" id="p210w11" />
<path d="M124.06 130.72l14.31 0l0 14.6l-14.31 0Z" id="p210w12" />
<path d="M141.58 130.72l67.62 0l0 14.6l-67.62 0Z" id="p210w13" />
<path d="M209.2 130.72l20.99 0l0 14.6l-20.99 0Z" id="p210w14" />
<path d="M233.39 130.72l33.94 0l0 14.6l-33.94 0ZM124.06 147.39l32.36 0l0 14.6l-32.36 0Z" id="p210w15" />
<path d="M159.73 146.15l79.41 0l0 16.35l-79.41 0Z" id="p210w16" />
<path d="M297.36 130.8l17.11 0l0 14.52l-17.11 0Z" id="p210w17" />
<path d="M317.23 130.8l73.37 0l0 14.52l-73.37 0Z" id="p210w18" />
<path d="M297.36 147.47l23.79 0l0 14.52l-23.79 0Z" id="p210w19" />
<path d="M323.91 147.47l78.85 0l0 14.52l-78.85 0Z" id="p210w20" />
<path d="M124.06 165.54l47.94 0l0 14.6l-47.94 0Z" id="p210w21" />
<path d="M175.21 165.54l12.67 0l0 14.6l-12.67 0Z" id="p210w22" />
<path d="M191.09 165.54l13.9 0l0 14.6l-13.9 0Z" id="p210w23" />
<path d="M208.19 165.54l34.46 0l0 14.6l-34.46 0Z" id="p210w24" />
<path d="M124.06 180.97l83.95 0l0 16.35l-83.95 0Z" id="p210w25" />
<path d="M297.36 165.62l23.09 0l0 14.52l-23.09 0Z" id="p210w26" />
<path d="M323.65 165.62l52.9 0l0 14.52l-52.9 0Z" id="p210w27" />
<path d="M482.46 165.62l41.7 0l0 14.52l-41.7 0Z" id="p210w28" />
<path d="M527.37 165.62l43.23 0l0 14.52l-43.23 0Z" id="p210w29" />
<path d="M573.8 165.62l19.79 0l0 14.52l-19.79 0Z" id="p210w30" />
<path d="M596.79 165.62l49.44 0l0 14.52l-49.44 0Z" id="p210w31" />
<path d="M649.45 165.62l47.29 0l0 14.52l-47.29 0Z" id="p210w32" />
<path d="M482.46 182.29l13.9 0l0 14.52l-13.9 0Z" id="p210w33" />
<path d="M499.57 182.29l36.19 0l0 14.52l-36.19 0Z" id="p210w34" />
<path d="M124.06 200.36l13.78 0l0 14.6l-13.78 0Z" id="p210w35" />
<path d="M141.05 200.36l34.24 0l0 14.6l-34.24 0Z" id="p210w36" />
<path d="M178.59 199.12l41.09 0l0 16.35l-41.09 0Z" id="p210w37" />
<path d="M297.36 200.44l67.84 0l0 14.52l-67.84 0Z" id="p210w38" />
<path d="M368.41 200.44l63.81 0l0 14.52l-63.81 0Z" id="p210w39" />
<path d="M124.06 221.07l20.99 0l0 14.6l-20.99 0Z" id="p210w40" />
<path d="M148.26 221.07l20.42 0l0 14.6l-20.42 0Z" id="p210w41" />
<path d="M171.98 219.83l41.42 0l0 16.35l-41.42 0Z" id="p210w42" />
<path d="M297.36 221.15l17.11 0l0 14.52l-17.11 0Z" id="p210w43" />
<path d="M317.67 221.15l23.75 0l0 14.52l-23.75 0Z" id="p210w44" />
<path d="M344.62 221.15l37.95 0l0 14.52l-37.95 0Z" id="p210w45" />
<path d="M482.46 221.15l49.46 0l0 14.52l-49.46 0Z" id="p210w46" />
<path d="M535.13 221.15l13.9 0l0 14.52l-13.9 0Z" id="p210w47" />
<path d="M552.23 221.15l20.05 0l0 14.52l-20.05 0Z" id="p210w48" />
<path d="M575.49 221.15l18.44 0l0 14.52l-18.44 0Z" id="p210w49" />
<path d="M597.14 221.15l26.73 0l0 14.52l-26.73 0Z" id="p210w50" />
<path d="M627.07 221.15l33.05 0l0 14.52l-33.05 0Z" id="p210w51" />
<path d="M663.33 221.15l20.85 0l0 14.52l-20.85 0Z" id="p210w52" />
<path d="M687.39 221.15l11.5 0l0 14.52l-11.5 0Z" id="p210w53" />
<path d="M482.46 237.82l18.27 0l0 14.52l-18.27 0Z" id="p210w54" />
<path d="M503.94 237.82l13.63 0l0 14.52l-13.63 0Z" id="p210w55" />
<path d="M520.78 237.82l40.63 0l0 14.52l-40.63 0Z" id="p210w56" />
<path d="M124.06 255.89l13.9 0l0 14.6l-13.9 0Z" id="p210w57" />
<path d="M141.17 255.89l51.75 0l0 14.6l-51.75 0Z" id="p210w58" />
<path d="M196.22 254.65l57.73 0l0 16.35l-57.73 0Z" id="p210w59" />
<path d="M297.36 255.97l92.47 0l0 14.52l-92.47 0Z" id="p210w60" />
<path d="M297.36 272.64l14.16 0l0 14.52l-14.16 0Z" id="p210w61" />
<path d="M314.73 272.64l71.12 0l0 14.52l-71.12 0Z" id="p210w62" />
<path d="M482.46 255.97l14.18 0l0 14.52l-14.18 0Z" id="p210w63" />
<path d="M499.85 255.97l23.01 0l0 14.52l-23.01 0Z" id="p210w64" />
<path d="M526.06 255.97l6.41 0l0 14.52l-6.41 0Z" id="p210w65" />
<path d="M535.68 255.97l18.7 0l0 14.52l-18.7 0Z" id="p210w66" />
<path d="M573.63 255.97l37.88 0l0 14.52l-37.88 0Z" id="p210w67" />
<path d="M614.72 255.97l13.9 0l0 14.52l-13.9 0Z" id="p210w68" />
<path d="M631.83 255.97l54.28 0l0 14.52l-54.28 0Z" id="p210w69" />
<path d="M124.06 290.71l14.31 0l0 14.6l-14.31 0Z" id="p210w70" />
<path d="M141.58 290.71l30.7 0l0 14.6l-30.7 0Z" id="p210w71" />
<path d="M175.58 289.47l48.12 0l0 16.35l-48.12 0Z" id="p210w72" />
<path d="M297.36 290.79l17.11 0l0 14.52l-17.11 0Z" id="p210w73" />
<path d="M317.67 290.79l58.82 0l0 14.52l-58.82 0Z" id="p210w74" />
<path d="M482.46 290.79l15.6 0l0 14.52l-15.6 0Z" id="p210w75" />
<path d="M501.27 290.79l14.18 0l0 14.52l-14.18 0Z" id="p210w76" />
<path d="M518.66 290.79l58.27 0l0 14.52l-58.27 0Z" id="p210w77" />
<path d="M580.14 290.79l25.4 0l0 14.52l-25.4 0Z" id="p210w78" />
<path d="M608.74 290.79l14.18 0l0 14.52l-14.18 0Z" id="p210w79" />
<path d="M626.12 290.79l32.55 0l0 14.52l-32.55 0Z" id="p210w80" />
<path d="M661.88 290.79l33.42 0l0 14.52l-33.42 0Z" id="p210w81" />
<path d="M124.06 311.42l10.03 0l0 14.6l-10.03 0Z" id="p210w82" />
<path d="M137.3 311.42l36.58 0l0 14.6l-36.58 0Z" id="p210w83" />
<path d="M177.18 310.18l42.41 0l0 16.35l-42.41 0Z" id="p210w84" />
<path d="M297.36 311.5l17.11 0l0 14.52l-17.11 0Z" id="p210w85" />
<path d="M317.67 311.5l36.07 0l0 14.52l-36.07 0Z" id="p210w86" />
<path d="M501.14 311.42l15.5 0l0 14.61l-15.5 0Z" id="p210w87" />
<path d="M519.84 311.42l40.28 0l0 14.61l-40.28 0Z" id="p210w88" />
<path d="M124.06 332.14l31.02 0l0 14.6l-31.02 0Z" id="p210w89" />
<path d="M168.18 332.14l12.67 0l0 14.6l-12.67 0Z" id="p210w90" />
<path d="M184.15 330.9l41.7 0l0 16.35l-41.7 0Z" id="p210w91" />
<path d="M297.35 332.22l12.84 0l0 14.52l-12.84 0Z" id="p210w92" />
<path d="M313.4 332.22l23.09 0l0 14.52l-23.09 0Z" id="p210w93" />
<path d="M339.69 332.22l41.41 0l0 14.52l-41.41 0Z" id="p210w94" />
<path d="M297.35 348.89l12.84 0l0 14.52l-12.84 0Z" id="p210w95" />
<path d="M313.4 348.89l23.09 0l0 14.52l-23.09 0Z" id="p210w96" />
<path d="M339.69 348.89l38.23 0l0 14.52l-38.23 0Z" id="p210w97" />
<path d="M482.46 332.22l13.9 0l0 14.52l-13.9 0Z" id="p210w98" />
<path d="M499.56 332.22l13.9 0l0 14.52l-13.9 0Z" id="p210w99" />
<path d="M516.67 332.22l21.37 0l0 14.52l-21.37 0Z" id="p210w100" />
<path d="M551.13 332.22l24.33 0l0 14.52l-24.33 0Z" id="p210w101" />
<path d="M124.06 366.96l14.31 0l0 14.6l-14.31 0Z" id="p210w102" />
<path d="M141.57 366.96l28.87 0l0 14.6l-28.87 0Z" id="p210w103" />
<path d="M173.74 365.72l45.71 0l0 16.35l-45.71 0Z" id="p210w104" />
<path d="M297.35 367.04l17.11 0l0 14.52l-17.11 0Z" id="p210w105" />
<path d="M317.66 367.04l70.19 0l0 14.52l-70.19 0Z" id="p210w106" />
<path d="M391.07 367.04l17.11 0l0 14.52l-17.11 0Z" id="p210w107" />
<path d="M411.38 367.04l36.09 0l0 14.52l-36.09 0Z" id="p210w108" />
<path d="M500.19 371.36l24.06 0l0 14.61l-24.06 0Z" id="p210w109" />
<path d="M124.06 389.42l77.65 0l0 14.6l-77.65 0Z" id="p210w110" />
<path d="M204.92 389.42l29.08 0l0 14.6l-29.08 0Z" id="p210w111" />
<path d="M237.2 389.42l18.65 0l0 14.6l-18.65 0Z" id="p210w112" />
<path d="M124.06 404.85l62.2 0l0 16.35l-62.2 0Z" id="p210w113" />
<path d="M297.35 389.5l22.98 0l0 14.52l-22.98 0Z" id="p210w114" />
<path d="M323.54 389.5l28.07 0l0 14.52l-28.07 0Z" id="p210w115" />
<path d="M354.82 389.5l89.52 0l0 14.52l-89.52 0Z" id="p210w116" />
<path d="M297.35 406.17l67.63 0l0 14.52l-67.63 0Z" id="p210w117" />
<path d="M368.19 406.17l70.04 0l0 14.52l-70.04 0Z" id="p210w118" />
<path d="M500.19 393.81l11.5 0l0 14.61l-11.5 0Z" id="p210w119" />
<path d="M514.89 393.81l75.29 0l0 14.61l-75.29 0Z" id="p210w120" />
<path d="M593.39 393.81l24.59 0l0 14.61l-24.59 0Z" id="p210w121" />
<path d="M621.19 393.81l12.83 0l0 14.61l-12.83 0Z" id="p210w122" />
<path d="M124.06 424.24l14.31 0l0 14.6l-14.31 0Z" id="p210w123" />
<path d="M141.58 424.24l45.67 0l0 14.6l-45.67 0Z" id="p210w124" />
<path d="M190.55 423l56.37 0l0 16.35l-56.37 0Z" id="p210w125" />
<path d="M297.35 424.32l17.11 0l0 14.52l-17.11 0Z" id="p210w126" />
<path d="M317.67 424.32l47.27 0l0 14.52l-47.27 0Z" id="p210w127" />
<path d="M368.14 424.32l17.11 0l0 14.52l-17.11 0Z" id="p210w128" />
<path d="M388.46 424.32l30.46 0l0 14.52l-30.46 0Z" id="p210w129" />
<path d="M124.06 444.95l10.03 0l0 14.6l-10.03 0Z" id="p210w130" />
<path d="M137.3 444.95l36.58 0l0 14.6l-36.58 0Z" id="p210w131" />
<path d="M177.17 443.71l54.65 0l0 16.35l-54.65 0Z" id="p210w132" />
<path d="M297.35 445.03l17.11 0l0 14.52l-17.11 0Z" id="p210w133" />
<path d="M317.67 445.03l42.22 0l0 14.52l-42.22 0Z" id="p210w134" />
<path d="M500.69 444.97l24.85 0l0 14.61l-24.85 0Z" id="p210w135" />
<path d="M500.19 461.64l35.45 0l0 14.61l-35.45 0Z" id="p210w136" />
<path d="M124.06 479.7l28.68 0l0 14.6l-28.68 0Z" id="p210w137" />
<path d="M165.85 479.7l12.67 0l0 14.6l-12.67 0Z" id="p210w138" />
<path d="M181.82 478.46l35.32 0l0 16.35l-35.32 0Z" id="p210w139" />
<path d="M297.35 479.8l23.09 0l0 14.52l-23.09 0Z" id="p210w140" />
<path d="M323.65 479.8l39.82 0l0 14.52l-39.82 0Z" id="p210w141" />
<path d="M366.68 479.78l20.85 0l0 14.52l-20.85 0Z" id="p210w142" />
<path d="M390.74 479.78l30.61 0l0 14.52l-30.61 0Z" id="p210w143" />
<path d="M482.46 479.78l50.21 0l0 14.61l-50.21 0Z" id="p210w144" />
<path d="M535.88 479.7l28.68 0l0 14.6l-28.68 0Z" id="p210w145" />
<path d="M577.67 479.78l17.11 0l0 14.61l-17.11 0Z" id="p210w146" />
<path d="M597.98 479.78l79.41 0l0 14.61l-79.41 0Z" id="p210w147" />
<path d="M482.46 496.37l28.68 0l0 14.6l-28.68 0Z" id="p210w148" />
<path d="M514.35 496.37l13.87 0l0 14.6l-13.87 0Z" id="p210w149" />
<path d="M531.43 496.45l17.11 0l0 14.61l-17.11 0Z" id="p210w150" />
<path d="M551.74 496.45l79.2 0l0 14.61l-79.2 0Z" id="p210w151" />
<path d="M482.46 513.12l6.96 0l0 14.61l-6.96 0Z" id="p210w152" />
<path d="M492.62 513.12l23.79 0l0 14.61l-23.79 0Z" id="p210w153" />
<path d="M519.62 513.04l13.78 0l0 14.6l-13.78 0Z" id="p210w154" />
<path d="M536.6 513.12l25.41 0l0 14.61l-25.41 0Z" id="p210w155" />
<path d="M565.05 513.12l29.49 0l0 14.61l-29.49 0Z" id="p210w156" />
<path d="M597.74 513.12l6.96 0l0 14.61l-6.96 0Z" id="p210w157" />
<path d="M607.91 513.12l23.79 0l0 14.61l-23.79 0Z" id="p210w158" />
<path d="M634.9 513.04l13.87 0l0 14.6l-13.87 0Z" id="p210w159" />
<path d="M482.46 529.71l10.03 0l0 14.6l-10.03 0Z" id="p210w160" />
<path d="M495.7 529.79l42.4 0l0 14.61l-42.4 0Z" id="p210w161" />
<path d="M124.06 547.85l20.99 0l0 14.6l-20.99 0Z" id="p210w162" />
<path d="M148.25 547.85l62.54 0l0 14.6l-62.54 0Z" id="p210w163" />
<path d="M124.06 563.28l76.5 0l0 16.35l-76.5 0Z" id="p210w164" />
<path d="M297.35 547.92l23.79 0l0 14.52l-23.79 0Z" id="p210w165" />
<path d="M323.91 547.92l95.09 0l0 14.52l-95.09 0Z" id="p210w166" />
<path d="M297.35 564.59l17.11 0l0 14.52l-17.11 0Z" id="p210w167" />
<path d="M317.67 564.59l40.56 0l0 14.52l-40.56 0Z" id="p210w168" />
<path d="M482.46 547.92l12.41 0l0 14.52l-12.41 0Z" id="p210w169" />
<path d="M498.08 547.92l12.29 0l0 14.52l-12.29 0Z" id="p210w170" />
<path d="M513.57 547.92l10.16 0l0 14.52l-10.16 0Z" id="p210w171" />
<path d="M526.94 547.92l9.89 0l0 14.52l-9.89 0Z" id="p210w172" />
<path d="M540.04 547.92l62.3 0l0 14.52l-62.3 0Z" id="p210w173" />
<path d="M605.54 547.92l13.9 0l0 14.52l-13.9 0Z" id="p210w174" />
<path d="M622.65 547.92l38.24 0l0 14.52l-38.24 0Z" id="p210w175" />
<path d="M127.4 582.7l50.88 0l0 14.6l-50.88 0Z" id="p210w176" />
<path d="M199.31 581.46l59.91 0l0 16.35l-59.91 0Z" id="p210w177" />
<path d="M297.35 582.74l17.11 0l0 14.52l-17.11 0Z" id="p210w178" />
<path d="M317.67 582.74l57.15 0l0 14.52l-57.15 0Z" id="p210w179" />
<path d="M378.03 582.74l19.51 0l0 14.52l-19.51 0Z" id="p210w180" />
<path d="M400.74 582.74l48.6 0l0 14.52l-48.6 0Z" id="p210w181" />
<path d="M297.35 599.41l19.51 0l0 14.52l-19.51 0Z" id="p210w182" />
<path d="M319.71 599.41l91.56 0l0 14.52l-91.56 0Z" id="p210w183" />
<path d="M500.69 582.68l81.93 0l0 14.61l-81.93 0Z" id="p210w184" />
<path d="M124.06 617.49l13.9 0l0 14.6l-13.9 0Z" id="p210w185" />
<path d="M141.16 617.49l27.56 0l0 14.6l-27.56 0Z" id="p210w186" />
<path d="M172.02 616.25l30.38 0l0 16.35l-30.38 0Z" id="p210w187" />
<path d="M297.35 617.57l34.49 0l0 14.52l-34.49 0Z" id="p210w188" />
<path d="M482.46 617.57l55.36 0l0 14.52l-55.36 0Z" id="p210w189" />
<path d="M541.02 617.57l13.9 0l0 14.52l-13.9 0Z" id="p210w190" />
<path d="M558.13 617.57l26.66 0l0 14.52l-26.66 0Z" id="p210w191" />
<path d="M588 617.57l49.44 0l0 14.52l-49.44 0Z" id="p210w192" />
<path d="M640.65 617.57l26.99 0l0 14.52l-26.99 0Z" id="p210w193" />
<path d="M482.46 634.24l59.05 0l0 14.52l-59.05 0Z" id="p210w194" />
<path d="M544.72 634.24l13.9 0l0 14.52l-13.9 0Z" id="p210w195" />
<path d="M561.83 634.24l30.15 0l0 14.52l-30.15 0Z" id="p210w196" />
<path d="M124.06 652.31l10.03 0l0 14.6l-10.03 0Z" id="p210w197" />
<path d="M137.3 652.31l40.83 0l0 14.6l-40.83 0Z" id="p210w198" />
<path d="M181.33 652.31l19.61 0l0 14.6l-19.61 0Z" id="p210w199" />
<path d="M204.24 651.07l55.09 0l0 16.35l-55.09 0Z" id="p210w200" />
<path d="M129.97 678.01l10.97 0l0 14.52l-10.97 0Z" id="p210w201" />
<path d="M144.15 678.01l37.96 0l0 14.52l-37.96 0Z" id="p210w202" />
<path d="M185.31 678.01l18.7 0l0 14.52l-18.7 0Z" id="p210w203" />
<path d="M207.22 677.94l10.03 0l0 14.6l-10.03 0Z" id="p210w204" />
<path d="M220.46 677.94l40.83 0l0 14.6l-40.83 0Z" id="p210w205" />
<path d="M264.5 677.94l19.61 0l0 14.6l-19.61 0Z" id="p210w206" />
<path d="M287.32 678.01l24.59 0l0 14.52l-24.59 0Z" id="p210w207" />
<path d="M315.12 678.01l19.51 0l0 14.52l-19.51 0Z" id="p210w208" />
<path d="M337.83 677.94l25.44 0l0 14.6l-25.44 0Z" id="p210w209" />
<path d="M366.47 677.94l14.33 0l0 14.6l-14.33 0Z" id="p210w210" />
<path d="M384.02 677.94l32.43 0l0 14.6l-32.43 0Z" id="p210w211" />
<path d="M129.97 694.68l70.77 0l0 14.52l-70.77 0Z" id="p210w212" />
<path d="M297.35 652.38l17.11 0l0 14.52l-17.11 0Z" id="p210w213" />
<path d="M317.66 652.38l44.89 0l0 14.52l-44.89 0Z" id="p210w214" />
<path d="M482.46 652.38l12.83 0l0 14.52l-12.83 0Z" id="p210w215" />
<path d="M498.5 652.38l40.36 0l0 14.52l-40.36 0Z" id="p210w216" />
<path d="M542.07 652.38l19.51 0l0 14.52l-19.51 0Z" id="p210w217" />
<path d="M564.79 652.38l36.09 0l0 14.52l-36.09 0Z" id="p210w218" />
<path d="M604.08 652.38l18.72 0l0 14.52l-18.72 0Z" id="p210w219" />
<path d="M626 652.38l14.18 0l0 14.52l-14.18 0Z" id="p210w220" />
<path d="M482.46 669.05l70.3 0l0 14.52l-70.3 0Z" id="p210w221" />
<path d="M482.46 685.66l10.03 0l0 14.6l-10.03 0Z" id="p210w222" />
<path d="M495.7 685.66l40.83 0l0 14.6l-40.83 0Z" id="p210w223" />
<path d="M539.73 685.66l19.61 0l0 14.6l-19.61 0Z" id="p210w224" />
<path d="M562.55 685.74l28.35 0l0 14.61l-28.35 0Z" id="p210w225" />
<path d="M594.11 685.66l54.38 0l0 14.6l-54.38 0Z" id="p210w226" />
<path d="M651.7 685.66l13.87 0l0 14.6l-13.87 0Z" id="p210w227" />
<path d="M124.06 725.7l10.03 0l0 14.6l-10.03 0Z" id="p210w228" />
<path d="M137.3 725.7l47.31 0l0 14.6l-47.31 0Z" id="p210w229" />
<path d="M187.81 725.7l28.09 0l0 14.6l-28.09 0Z" id="p210w230" />
<path d="M124.06 741.13l67.65 0l0 16.35l-67.65 0Z" id="p210w231" />
<path d="M297.35 725.78l17.11 0l0 14.52l-17.11 0Z" id="p210w232" />
<path d="M317.67 725.78l51.04 0l0 14.52l-51.04 0Z" id="p210w233" />
<path d="M371.92 725.78l28.88 0l0 14.52l-28.88 0Z" id="p210w234" />
<path d="M124.06 760.51l10.03 0l0 14.6l-10.03 0Z" id="p210w235" />
<path d="M137.3 760.51l35.98 0l0 14.6l-35.98 0Z" id="p210w236" />
<path d="M176.49 760.51l22.35 0l0 14.6l-22.35 0Z" id="p210w237" />
<path d="M202.13 759.27l57.76 0l0 16.35l-57.76 0Z" id="p210w238" />
<path d="M297.35 760.59l17.11 0l0 14.52l-17.11 0Z" id="p210w239" />
<path d="M317.67 760.59l33.94 0l0 14.52l-33.94 0Z" id="p210w240" />
<path d="M354.81 760.59l28.88 0l0 14.52l-28.88 0Z" id="p210w241" />
<path d="M482.46 760.59l12.83 0l0 14.52l-12.83 0Z" id="p210w242" />
<path d="M498.5 760.59l35.55 0l0 14.52l-35.55 0Z" id="p210w243" />
<path d="M537.25 760.59l13.9 0l0 14.52l-13.9 0Z" id="p210w244" />
<path d="M554.36 760.59l17.63 0l0 14.52l-17.63 0Z" id="p210w245" />
<path d="M575.2 760.59l33.67 0l0 14.52l-33.67 0Z" id="p210w246" />
<path d="M612.08 760.59l24.87 0l0 14.52l-24.87 0Z" id="p210w247" />
<path d="M640.15 760.59l17.11 0l0 14.52l-17.11 0Z" id="p210w248" />
<path d="M482.46 777.26l15.5 0l0 14.52l-15.5 0Z" id="p210w249" />
<path d="M501.16 777.26l43.03 0l0 14.52l-43.03 0Z" id="p210w250" />
<path d="M547.4 777.26l43.86 0l0 14.52l-43.86 0Z" id="p210w251" />
<path d="M124.06 818.72l47.08 0l0 18.44l-47.08 0Z" id="p210w252" />
<path d="M124.06 845.84l10.02 0l0 14.6l-10.02 0Z" id="p210w253" />
<path d="M137.29 845.84l51.89 0l0 14.6l-51.89 0Z" id="p210w254" />
<path d="M192.47 844.6l61.42 0l0 16.35l-61.42 0Z" id="p210w255" />
<path d="M297.36 845.92l19.51 0l0 14.52l-19.51 0Z" id="p210w256" />
<path d="M320.07 845.92l55.34 0l0 14.52l-55.34 0Z" id="p210w257" />
<path d="M297.36 862.59l17.11 0l0 14.52l-17.11 0Z" id="p210w258" />
<path d="M317.41 862.59l103.63 0l0 14.52l-103.63 0Z" id="p210w259" />
<path d="M482.46 845.92l12.83 0l0 14.52l-12.83 0Z" id="p210w260" />
<path d="M498.5 845.92l52.6 0l0 14.52l-52.6 0Z" id="p210w261" />
<path d="M554.31 845.92l43.5 0l0 14.52l-43.5 0Z" id="p210w262" />
<path d="M601.02 845.92l92.76 0l0 14.52l-92.76 0Z" id="p210w263" />
</svg>
