<?xml version="1.0" encoding="UTF-8"?>
<svg xmlns="http://www.w3.org/2000/svg" xmlns:xlink="http://www.w3.org/1999/xlink" version="1.1" baseProfile="full" width="768" height="1024" viewBox="0,0,768,1024" preserveAspectRatio="xMinYMin meet" >
<style type="text/css">
<![CDATA[
path {fill-opacity: 0.5;fill: #00aeef;visibility: hidden;}
]]>
</style>
<path d="M124.06 107.98l17.01 0l0 18.84l-17.01 0Z" id="p111w1" />
<path d="M144.72 107.98l32.66 0l0 18.84l-32.66 0Z" id="p111w2" />
<path d="M181.03 107.98l18.36 0l0 18.84l-18.36 0Z" id="p111w3" />
<path d="M203.04 107.98l25.44 0l0 18.84l-25.44 0Z" id="p111w4" />
<path d="M124.06 139.19l19.51 0l0 14.52l-19.51 0Z" id="p111w5" />
<path d="M156.66 139.19l23.52 0l0 14.52l-23.52 0Z" id="p111w6" />
<path d="M183.39 139.19l18.7 0l0 14.52l-18.7 0Z" id="p111w7" />
<path d="M205.3 139.19l19.51 0l0 14.52l-19.51 0Z" id="p111w8" />
<path d="M228.02 139.19l60.94 0l0 14.52l-60.94 0Z" id="p111w9" />
<path d="M292.17 139.19l17.11 0l0 14.52l-17.11 0Z" id="p111w10" />
<path d="M312.48 139.19l19.51 0l0 14.52l-19.51 0Z" id="p111w11" />
<path d="M335.2 139.19l34.21 0l0 14.52l-34.21 0Z" id="p111w12" />
<path d="M372.62 139.19l13.91 0l0 14.52l-13.91 0Z" id="p111w13" />
<path d="M389.74 139.19l19.77 0l0 14.52l-19.77 0Z" id="p111w14" />
<path d="M412.72 139.19l44.38 0l0 14.52l-44.38 0Z" id="p111w15" />
<path d="M460.3 139.19l25.38 0l0 14.52l-25.38 0Z" id="p111w16" />
<path d="M488.89 139.19l19.79 0l0 14.52l-19.79 0Z" id="p111w17" />
<path d="M511.88 139.19l30.66 0l0 14.52l-30.66 0Z" id="p111w18" />
<path d="M545.75 139.19l11.22 0l0 14.52l-11.22 0Z" id="p111w19" />
<path d="M560.18 139.19l15.5 0l0 14.52l-15.5 0Z" id="p111w20" />
<path d="M578.88 139.19l43.57 0l0 14.52l-43.57 0Z" id="p111w21" />
<path d="M143.75 164.2l50.24 0l0 14.52l-50.24 0Z" id="p111w22" />
<path d="M197.2 164.2l37.7 0l0 14.52l-37.7 0Z" id="p111w23" />
<path d="M244.52 164.2l43.58 0l0 14.52l-43.58 0Z" id="p111w24" />
<path d="M291.31 164.2l15.5 0l0 14.52l-15.5 0Z" id="p111w25" />
<path d="M310.01 164.2l36.61 0l0 14.52l-36.61 0Z" id="p111w26" />
<path d="M349.84 164.2l53.67 0l0 14.52l-53.67 0Z" id="p111w27" />
<path d="M406.71 164.2l11.22 0l0 14.52l-11.22 0Z" id="p111w28" />
<path d="M421.14 164.2l31.28 0l0 14.52l-31.28 0Z" id="p111w29" />
<path d="M455.63 164.2l20.85 0l0 14.52l-20.85 0Z" id="p111w30" />
<path d="M479.69 164.2l65.76 0l0 14.52l-65.76 0Z" id="p111w31" />
<path d="M548.66 164.2l17.11 0l0 14.52l-17.11 0Z" id="p111w32" />
<path d="M568.97 164.2l40.64 0l0 14.52l-40.64 0Z" id="p111w33" />
<path d="M612.82 164.2l31.28 0l0 14.52l-31.28 0Z" id="p111w34" />
<path d="M143.75 189.21l55.33 0l0 14.52l-55.33 0Z" id="p111w35" />
<path d="M202.29 189.21l37.7 0l0 14.52l-37.7 0Z" id="p111w36" />
<path d="M249.61 189.21l52.4 0l0 14.52l-52.4 0Z" id="p111w37" />
<path d="M305.22 189.21l19.52 0l0 14.52l-19.52 0Z" id="p111w38" />
<path d="M327.95 189.21l54 0l0 14.52l-54 0Z" id="p111w39" />
<path d="M385.16 189.21l55.16 0l0 14.52l-55.16 0Z" id="p111w40" />
<path d="M143.75 214.23l27.8 0l0 14.52l-27.8 0Z" id="p111w41" />
<path d="M174.76 214.23l15.5 0l0 14.52l-15.5 0Z" id="p111w42" />
<path d="M193.46 214.23l53.67 0l0 14.52l-53.67 0Z" id="p111w43" />
<path d="M258.72 214.23l11.22 0l0 14.52l-11.22 0Z" id="p111w44" />
<path d="M285.45 214.23l33.95 0l0 14.52l-33.95 0Z" id="p111w45" />
<path d="M322.61 214.23l44.9 0l0 14.52l-44.9 0Z" id="p111w46" />
<path d="M370.72 214.23l33.05 0l0 14.52l-33.05 0Z" id="p111w47" />
<path d="M406.98 214.23l20.85 0l0 14.52l-20.85 0Z" id="p111w48" />
<path d="M431.04 214.23l19.51 0l0 14.52l-19.51 0Z" id="p111w49" />
<path d="M453.75 214.23l31.81 0l0 14.52l-31.81 0Z" id="p111w50" />
<path d="M497.06 214.23l49.75 0l0 14.52l-49.75 0Z" id="p111w51" />
<path d="M143.75 230.9l25.41 0l0 14.52l-25.41 0Z" id="p111w52" />
<path d="M172.37 230.9l15.5 0l0 14.52l-15.5 0Z" id="p111w53" />
<path d="M191.07 230.9l53.67 0l0 14.52l-53.67 0Z" id="p111w54" />
<path d="M257.57 230.9l11.22 0l0 14.52l-11.22 0Z" id="p111w55" />
<path d="M284.3 230.9l27.26 0l0 14.52l-27.26 0Z" id="p111w56" />
<path d="M314.77 230.9l12.57 0l0 14.52l-12.57 0Z" id="p111w57" />
<path d="M330.54 230.9l20.85 0l0 14.52l-20.85 0Z" id="p111w58" />
<path d="M354.6 230.9l19.51 0l0 14.52l-19.51 0Z" id="p111w59" />
<path d="M377.32 230.9l21.92 0l0 14.52l-21.92 0Z" id="p111w60" />
<path d="M402.45 230.9l28.06 0l0 14.52l-28.06 0Z" id="p111w61" />
<path d="M124.06 274.71l97.64 0l0 18.84l-97.64 0Z" id="p111w62" />
<path d="M124.06 305.92l51.89 0l0 14.52l-51.89 0Z" id="p111w63" />
<path d="M179.16 305.92l15.5 0l0 14.52l-15.5 0Z" id="p111w64" />
<path d="M197.86 305.92l39.02 0l0 14.52l-39.02 0Z" id="p111w65" />
<path d="M240.08 305.92l13.9 0l0 14.52l-13.9 0Z" id="p111w66" />
<path d="M257.19 305.92l56.65 0l0 14.52l-56.65 0Z" id="p111w67" />
<path d="M317.05 305.92l14.18 0l0 14.52l-14.18 0Z" id="p111w68" />
<path d="M334.43 305.92l28.33 0l0 14.52l-28.33 0Z" id="p111w69" />
<path d="M365.97 305.92l11.22 0l0 14.52l-11.22 0Z" id="p111w70" />
<path d="M380.39 305.92l27.26 0l0 14.52l-27.26 0Z" id="p111w71" />
<path d="M410.86 305.92l33.95 0l0 14.52l-33.95 0Z" id="p111w72" />
<path d="M448.01 305.92l16.83 0l0 14.52l-16.83 0Z" id="p111w73" />
<path d="M468.05 305.92l9.89 0l0 14.52l-9.89 0Z" id="p111w74" />
<path d="M481.14 305.92l56.4 0l0 14.52l-56.4 0Z" id="p111w75" />
<path d="M540.75 305.92l29.66 0l0 14.52l-29.66 0Z" id="p111w76" />
<path d="M573.62 305.92l9.89 0l0 14.52l-9.89 0Z" id="p111w77" />
<path d="M586.71 305.92l33.41 0l0 14.52l-33.41 0Z" id="p111w78" />
<path d="M623.33 305.92l61.19 0l0 14.52l-61.19 0Z" id="p111w79" />
<path d="M124.06 322.56l45.89 0l0 14.52l-45.89 0Z" id="p111w80" />
<path d="M173.16 322.56l32.87 0l0 14.52l-32.87 0Z" id="p111w81" />
<path d="M209.24 322.59l11.22 0l0 14.52l-11.22 0Z" id="p111w82" />
<path d="M223.66 322.59l9.89 0l0 14.52l-9.89 0Z" id="p111w83" />
<path d="M236.76 322.59l33.41 0l0 14.52l-33.41 0Z" id="p111w84" />
<path d="M273.37 322.59l50.99 0l0 14.52l-50.99 0Z" id="p111w85" />
<path d="M327.57 322.59l32.87 0l0 14.52l-32.87 0Z" id="p111w86" />
<path d="M363.64 322.59l51.58 0l0 14.52l-51.58 0Z" id="p111w87" />
<path d="M428.32 322.59l9.89 0l0 14.52l-9.89 0Z" id="p111w88" />
<path d="M441.41 322.59l33.41 0l0 14.52l-33.41 0Z" id="p111w89" />
<path d="M478.03 322.59l11.22 0l0 14.52l-11.22 0Z" id="p111w90" />
<path d="M502.34 322.59l9.89 0l0 14.52l-9.89 0Z" id="p111w91" />
<path d="M515.43 322.59l29.67 0l0 14.52l-29.67 0Z" id="p111w92" />
<path d="M548.31 322.59l19.51 0l0 14.52l-19.51 0Z" id="p111w93" />
<path d="M571.03 322.59l51.87 0l0 14.52l-51.87 0Z" id="p111w94" />
<path d="M129.97 355.94l33.41 0l0 14.52l-33.41 0Z" id="p111w95" />
<path d="M166.58 355.94l61.19 0l0 14.52l-61.19 0Z" id="p111w96" />
<path d="M321.64 355.94l33.41 0l0 14.52l-33.41 0Z" id="p111w97" />
<path d="M358.25 355.94l48.31 0l0 14.52l-48.31 0Z" id="p111w98" />
<path d="M129.97 380.95l55.5 0l0 14.52l-55.5 0Z" id="p111w99" />
<path d="M129.97 397.62l53.1 0l0 14.52l-53.1 0Z" id="p111w100" />
<path d="M129.97 414.29l52.04 0l0 14.52l-52.04 0Z" id="p111w101" />
<path d="M129.97 430.96l59.79 0l0 14.52l-59.79 0Z" id="p111w102" />
<path d="M321.64 380.95l15.23 0l0 14.52l-15.23 0Z" id="p111w103" />
<path d="M340.08 380.95l25.67 0l0 14.52l-25.67 0Z" id="p111w104" />
<path d="M368.96 380.95l43.83 0l0 14.52l-43.83 0Z" id="p111w105" />
<path d="M416 380.95l19.51 0l0 14.52l-19.51 0Z" id="p111w106" />
<path d="M321.64 397.62l15.23 0l0 14.52l-15.23 0Z" id="p111w107" />
<path d="M340.08 397.62l17.63 0l0 14.52l-17.63 0Z" id="p111w108" />
<path d="M360.92 397.62l39.27 0l0 14.52l-39.27 0Z" id="p111w109" />
<path d="M403.39 397.62l19.51 0l0 14.52l-19.51 0Z" id="p111w110" />
<path d="M321.64 414.29l24.33 0l0 14.52l-24.33 0Z" id="p111w111" />
<path d="M349.17 414.29l41.43 0l0 14.52l-41.43 0Z" id="p111w112" />
<path d="M393.81 414.29l22.99 0l0 14.52l-22.99 0Z" id="p111w113" />
<path d="M124.06 472.64l49.17 0l0 14.52l-49.17 0Z" id="p111w114" />
<path d="M176.43 472.64l47.31 0l0 14.52l-47.31 0Z" id="p111w115" />
<path d="M226.94 472.64l35.29 0l0 14.52l-35.29 0Z" id="p111w116" />
<path d="M265.45 472.64l19.51 0l0 14.52l-19.51 0Z" id="p111w117" />
<path d="M288.16 472.64l44.38 0l0 14.52l-44.38 0Z" id="p111w118" />
<path d="M345.63 472.64l22.19 0l0 14.52l-22.19 0Z" id="p111w119" />
<path d="M371.03 472.64l40.63 0l0 14.52l-40.63 0Z" id="p111w120" />
<path d="M414.86 472.58l58.02 0l0 14.6l-58.02 0Z" id="p111w121" />
<path d="M476.09 472.58l24.84 0l0 14.6l-24.84 0Z" id="p111w122" />
<path d="M504.14 472.58l14.31 0l0 14.6l-14.31 0Z" id="p111w123" />
<path d="M521.66 472.58l43.84 0l0 14.6l-43.84 0Z" id="p111w124" />
<path d="M143.75 497.66l12.41 0l0 14.52l-12.41 0Z" id="p111w125" />
<path d="M159.36 497.66l22.99 0l0 14.52l-22.99 0Z" id="p111w126" />
<path d="M185.56 497.59l26.99 0l0 14.6l-26.99 0Z" id="p111w127" />
<path d="M215.76 497.66l25.38 0l0 14.52l-25.38 0Z" id="p111w128" />
<path d="M244.35 497.66l56.69 0l0 14.52l-56.69 0Z" id="p111w129" />
<path d="M143.75 514.33l12.41 0l0 14.52l-12.41 0Z" id="p111w130" />
<path d="M159.36 514.33l22.99 0l0 14.52l-22.99 0Z" id="p111w131" />
<path d="M185.56 514.26l11.36 0l0 14.6l-11.36 0Z" id="p111w132" />
<path d="M200.14 514.33l52.12 0l0 14.52l-52.12 0Z" id="p111w133" />
<path d="M255.47 514.33l13.9 0l0 14.52l-13.9 0Z" id="p111w134" />
<path d="M272.57 514.33l40.1 0l0 14.52l-40.1 0Z" id="p111w135" />
<path d="M315.88 514.33l14.18 0l0 14.52l-14.18 0Z" id="p111w136" />
<path d="M333.26 514.33l33.34 0l0 14.52l-33.34 0Z" id="p111w137" />
<path d="M143.75 531l12.41 0l0 14.52l-12.41 0Z" id="p111w138" />
<path d="M159.36 531l22.99 0l0 14.52l-22.99 0Z" id="p111w139" />
<path d="M185.56 531l44.11 0l0 14.52l-44.11 0Z" id="p111w140" />
<path d="M232.88 531l64.68 0l0 14.52l-64.68 0Z" id="p111w141" />
<path d="M300.77 530.93l11.38 0l0 14.6l-11.38 0Z" id="p111w142" />
<path d="M315.35 530.93l66.8 0l0 14.6l-66.8 0Z" id="p111w143" />
<path d="M143.75 547.67l12.41 0l0 14.52l-12.41 0Z" id="p111w144" />
<path d="M159.36 547.67l13.9 0l0 14.52l-13.9 0Z" id="p111w145" />
<path d="M176.47 547.67l22.99 0l0 14.52l-22.99 0Z" id="p111w146" />
<path d="M202.67 547.67l19.51 0l0 14.52l-19.51 0Z" id="p111w147" />
<path d="M225.39 547.67l58.53 0l0 14.52l-58.53 0Z" id="p111w148" />
<path d="M287.12 547.67l37.95 0l0 14.52l-37.95 0Z" id="p111w149" />
<path d="M338.18 547.6l17.11 0l0 14.6l-17.11 0Z" id="p111w150" />
<path d="M358.49 547.6l33.08 0l0 14.6l-33.08 0Z" id="p111w151" />
<path d="M143.75 564.34l12.41 0l0 14.52l-12.41 0Z" id="p111w152" />
<path d="M159.36 564.34l22.99 0l0 14.52l-22.99 0Z" id="p111w153" />
<path d="M185.56 564.34l51.6 0l0 14.52l-51.6 0Z" id="p111w154" />
<path d="M240.37 564.27l13.78 0l0 14.6l-13.78 0Z" id="p111w155" />
<path d="M257.36 564.27l23.77 0l0 14.6l-23.77 0Z" id="p111w156" />
<path d="M284.34 564.34l50.01 0l0 14.52l-50.01 0Z" id="p111w157" />
<path d="M337.55 564.34l11.5 0l0 14.52l-11.5 0Z" id="p111w158" />
<path d="M352.26 564.34l25.67 0l0 14.52l-25.67 0Z" id="p111w159" />
<path d="M143.75 581.01l25.38 0l0 14.52l-25.38 0Z" id="p111w160" />
<path d="M172.34 581.01l12.57 0l0 14.52l-12.57 0Z" id="p111w161" />
<path d="M188.11 581.01l37.25 0l0 14.52l-37.25 0Z" id="p111w162" />
<path d="M425.63 497.64l46.51 0l0 14.52l-46.51 0Z" id="p111w163" />
<path d="M475.36 497.64l9.89 0l0 14.52l-9.89 0Z" id="p111w164" />
<path d="M488.45 497.64l33.34 0l0 14.52l-33.34 0Z" id="p111w165" />
<path d="M525 497.64l11.5 0l0 14.52l-11.5 0Z" id="p111w166" />
<path d="M539.7 497.64l13.9 0l0 14.52l-13.9 0Z" id="p111w167" />
<path d="M556.81 497.64l22.99 0l0 14.52l-22.99 0Z" id="p111w168" />
<path d="M583.01 497.64l19.51 0l0 14.52l-19.51 0Z" id="p111w169" />
<path d="M605.73 497.58l7.42 0l0 14.6l-7.42 0Z" id="p111w170" />
<path d="M613.14 497.64l43.85 0l0 14.52l-43.85 0Z" id="p111w171" />
<path d="M425.63 514.31l10.16 0l0 14.52l-10.16 0Z" id="p111w172" />
<path d="M439 514.31l48.39 0l0 14.52l-48.39 0Z" id="p111w173" />
<path d="M490.6 514.31l11.5 0l0 14.52l-11.5 0Z" id="p111w174" />
<path d="M505.3 514.31l22.99 0l0 14.52l-22.99 0Z" id="p111w175" />
<path d="M531.51 514.31l28.33 0l0 14.52l-28.33 0Z" id="p111w176" />
<path d="M563.04 514.25l17.11 0l0 14.6l-17.11 0Z" id="p111w177" />
<path d="M583.35 514.25l52.27 0l0 14.6l-52.27 0Z" id="p111w178" />
<path d="M425.63 530.98l12.83 0l0 14.52l-12.83 0Z" id="p111w179" />
<path d="M441.67 530.98l35.28 0l0 14.52l-35.28 0Z" id="p111w180" />
<path d="M480.16 530.98l11.5 0l0 14.52l-11.5 0Z" id="p111w181" />
<path d="M494.86 530.98l13.9 0l0 14.52l-13.9 0Z" id="p111w182" />
<path d="M511.97 530.98l22.99 0l0 14.52l-22.99 0Z" id="p111w183" />
<path d="M538.17 530.98l19.51 0l0 14.52l-19.51 0Z" id="p111w184" />
<path d="M560.89 530.98l24.31 0l0 14.52l-24.31 0Z" id="p111w185" />
<path d="M588.41 530.92l13.78 0l0 14.6l-13.78 0Z" id="p111w186" />
<path d="M605.4 530.92l30.78 0l0 14.6l-30.78 0Z" id="p111w187" />
<path d="M639.38 530.98l13.9 0l0 14.52l-13.9 0Z" id="p111w188" />
<path d="M425.63 547.66l52.74 0l0 14.52l-52.74 0Z" id="p111w189" />
<path d="M481.59 547.66l44.67 0l0 14.52l-44.67 0Z" id="p111w190" />
<path d="M425.63 564.33l12.41 0l0 14.52l-12.41 0Z" id="p111w191" />
<path d="M441.25 564.33l22.99 0l0 14.52l-22.99 0Z" id="p111w192" />
<path d="M467.45 564.33l41.7 0l0 14.52l-41.7 0Z" id="p111w193" />
<path d="M512.35 564.26l14.28 0l0 14.6l-14.28 0Z" id="p111w194" />
<path d="M529.84 564.26l30.78 0l0 14.6l-30.78 0Z" id="p111w195" />
<path d="M563.83 564.33l25.67 0l0 14.52l-25.67 0Z" id="p111w196" />
<path d="M592.71 564.33l46.24 0l0 14.52l-46.24 0Z" id="p111w197" />
<path d="M652.04 564.33l18.72 0l0 14.52l-18.72 0Z" id="p111w198" />
<path d="M425.63 581l35.84 0l0 14.52l-35.84 0Z" id="p111w199" />
<path d="M124.06 614.34l31.01 0l0 14.52l-31.01 0Z" id="p111w200" />
<path d="M158.27 614.34l56.65 0l0 14.52l-56.65 0Z" id="p111w201" />
<path d="M218.13 614.34l29.67 0l0 14.52l-29.67 0Z" id="p111w202" />
<path d="M251.01 614.34l11.22 0l0 14.52l-11.22 0Z" id="p111w203" />
<path d="M265.43 614.34l25.12 0l0 14.52l-25.12 0Z" id="p111w204" />
<path d="M293.76 614.34l47.86 0l0 14.52l-47.86 0Z" id="p111w205" />
<path d="M344.83 614.34l33.05 0l0 14.52l-33.05 0Z" id="p111w206" />
<path d="M381.09 614.34l30.23 0l0 14.52l-30.23 0Z" id="p111w207" />
<path d="M414.52 614.34l33.41 0l0 14.52l-33.41 0Z" id="p111w208" />
<path d="M451.13 614.34l13.9 0l0 14.52l-13.9 0Z" id="p111w209" />
<path d="M468.24 614.34l33.67 0l0 14.52l-33.67 0Z" id="p111w210" />
<path d="M124.06 631.01l26.21 0l0 14.52l-26.21 0Z" id="p111w211" />
<path d="M153.48 631.01l25.4 0l0 14.52l-25.4 0Z" id="p111w212" />
<path d="M182.08 631.01l24.59 0l0 14.52l-24.59 0Z" id="p111w213" />
<path d="M209.88 631.01l45.17 0l0 14.52l-45.17 0Z" id="p111w214" />
<path d="M258.25 631.01l25.67 0l0 14.52l-25.67 0Z" id="p111w215" />
<path d="M287.13 631.01l29.94 0l0 14.52l-29.94 0Z" id="p111w216" />
<path d="M320.28 631.01l19.51 0l0 14.52l-19.51 0Z" id="p111w217" />
<path d="M342.99 631.01l59.33 0l0 14.52l-59.33 0Z" id="p111w218" />
<path d="M405.53 631.01l18.72 0l0 14.52l-18.72 0Z" id="p111w219" />
<path d="M427.46 631.01l13.9 0l0 14.52l-13.9 0Z" id="p111w220" />
<path d="M444.56 631.01l35.56 0l0 14.52l-35.56 0Z" id="p111w221" />
<path d="M483.33 631.01l9.89 0l0 14.52l-9.89 0Z" id="p111w222" />
<path d="M496.42 631.01l22.99 0l0 14.52l-22.99 0Z" id="p111w223" />
<path d="M633.02 631.01l14.44 0l0 14.52l-14.44 0Z" id="p111w224" />
<path d="M650.67 631.01l23.52 0l0 14.52l-23.52 0Z" id="p111w225" />
<path d="M53.09 140.96l35.52 0l0 12.29l-35.52 0Z" id="p111w226" />
<path d="M32.94 157.7l41.3 0l0 12.3l-41.3 0Z" id="p111w227" />
<path d="M44.21 174.38l44.24 0l0 12.3l-44.24 0Z" id="p111w228" />
<path d="M60.68 616.14l27.93 0l0 12.29l-27.93 0Z" id="p111w229" />
<path d="M473.61 785.48l10.43 0l0 14.52l-10.43 0Z" id="p111w230" />
<path d="M487.24 785.48l19.07 0l0 14.52l-19.07 0Z" id="p111w231" />
<path d="M509.52 785.48l19.51 0l0 14.52l-19.51 0Z" id="p111w232" />
<path d="M532.24 785.48l44.38 0l0 14.52l-44.38 0Z" id="p111w233" />
<path d="M456.46 800.76l72.11 0l0 14.52l-72.11 0Z" id="p111w234" />
<path d="M531.78 800.76l14.43 0l0 14.52l-14.43 0Z" id="p111w235" />
<path d="M549.41 800.76l11.22 0l0 14.52l-11.22 0Z" id="p111w236" />
<path d="M563.84 800.76l29.94 0l0 14.52l-29.94 0Z" id="p111w237" />
<path d="M68.27 39.02l46.09 0l0 15.38l-46.09 0Z" id="p111w238" />
<path d="M152.94 38.6l45.75 0l0 16.09l-45.75 0Z" id="p111w239" />
<path d="M251.41 39.02l59.8 0l0 15.38l-59.8 0Z" id="p111w240" />
<path d="M350.65 39.02l32.54 0l0 15.38l-32.54 0Z" id="p111w241" />
<path d="M646.37 983l44.73 0l0 12.23l-44.73 0Z" id="p111w242" />
</svg>
