<?xml version="1.0" encoding="UTF-8"?>
<svg xmlns="http://www.w3.org/2000/svg" xmlns:xlink="http://www.w3.org/1999/xlink" version="1.1" baseProfile="full" width="768" height="1024" viewBox="0,0,768,1024" preserveAspectRatio="xMinYMin meet" >
<style type="text/css">
<![CDATA[
path {fill-opacity: 0.5;fill: #00aeef;visibility: hidden;}
]]>
</style>
<path d="M86.43 370.75l88.19 0l0 21.53l-88.19 0Z" id="p284w1" />
<path d="M179.35 370.75l180.28 0l0 21.53l-180.28 0Z" id="p284w2" />
<path d="M364.1 370.75l27.17 0l0 21.53l-27.17 0Z" id="p284w3" />
<path d="M396 370.75l57.11 0l0 21.53l-57.11 0Z" id="p284w4" />
<path d="M457.84 370.75l34.64 0l0 21.53l-34.64 0Z" id="p284w5" />
<path d="M497.21 370.75l76.82 0l0 21.53l-76.82 0Z" id="p284w6" />
<path d="M578.75 370.75l40.81 0l0 21.53l-40.81 0Z" id="p284w7" />
<path d="M86.43 398.55l106.32 0l0 21.53l-106.32 0Z" id="p284w8" />
<path d="M197.48 398.55l75.59 0l0 21.53l-75.59 0Z" id="p284w9" />
<path d="M277.8 398.55l35.73 0l0 21.53l-35.73 0Z" id="p284w10" />
<path d="M318.26 398.55l99.43 0l0 21.53l-99.43 0Z" id="p284w11" />
<path d="M86.43 426.35l171.33 0l0 21.53l-171.33 0Z" id="p284w12" />
<path d="M262.49 426.35l77.57 0l0 21.53l-77.57 0Z" id="p284w13" />
<path d="M344.79 426.35l27.56 0l0 21.53l-27.56 0Z" id="p284w14" />
<path d="M377.08 426.35l41.74 0l0 21.53l-41.74 0Z" id="p284w15" />
<path d="M423.55 426.23l43.98 0l0 21.63l-43.98 0Z" id="p284w16" />
<path d="M483.28 426.23l34.27 0l0 21.63l-34.27 0Z" id="p284w17" />
<path d="M522.28 426.35l25.89 0l0 21.53l-25.89 0Z" id="p284w18" />
<path d="M552.9 426.35l41.37 0l0 21.53l-41.37 0Z" id="p284w19" />
<path d="M86.43 454.14l41.74 0l0 21.53l-41.74 0Z" id="p284w20" />
<path d="M132.9 454.14l60.65 0l0 21.53l-60.65 0Z" id="p284w21" />
<path d="M86.43 481.94l27.56 0l0 21.53l-27.56 0Z" id="p284w22" />
<path d="M118.72 481.94l122.37 0l0 21.53l-122.37 0Z" id="p284w23" />
<path d="M245.82 481.94l69.11 0l0 21.53l-69.11 0Z" id="p284w24" />
<path d="M319.66 481.94l34.64 0l0 21.53l-34.64 0Z" id="p284w25" />
<path d="M359.03 481.94l42.15 0l0 21.53l-42.15 0ZM405.91 481.94l31.51 0l0 21.53l-31.51 0Z" id="p284w26" />
<path d="M442.15 481.94l152.34 0l0 21.53l-152.34 0Z" id="p284w27" />
<path d="M86.43 509.74l213.7 0l0 21.53l-213.7 0Z" id="p284w28" />
<path d="M304.86 509.74l23.23 0l0 21.53l-23.23 0Z" id="p284w29" />
<path d="M332.81 509.74l134.68 0l0 21.53l-134.68 0Z" id="p284w30" />
<path d="M472.22 509.74l140.46 0l0 21.53l-140.46 0Z" id="p284w31" />
<path d="M68.92 565.19l18.95 0l0 21.51l-18.95 0Z" id="p284w32" />
<path d="M92.6 565.19l46.16 0l0 21.51l-46.16 0Z" id="p284w33" />
<path d="M143.48 565.19l67.93 0l0 21.51l-67.93 0Z" id="p284w34" />
<path d="M216.14 565.19l88.58 0l0 21.51l-88.58 0Z" id="p284w35" />
<path d="M321.04 565.19l41.72 0l0 21.51l-41.72 0Z" id="p284w36" />
<path d="M381.67 565.19l51.28 0l0 21.51l-51.28 0Z" id="p284w37" />
<path d="M437.67 565.19l92.32 0l0 21.51l-92.32 0Z" id="p284w38" />
</svg>
