<?xml version="1.0" encoding="UTF-8"?>
<svg xmlns="http://www.w3.org/2000/svg" xmlns:xlink="http://www.w3.org/1999/xlink" version="1.1" baseProfile="full" width="768" height="1024" viewBox="0,0,768,1024" preserveAspectRatio="xMinYMin meet" >
<style type="text/css">
<![CDATA[
path {fill-opacity: 0.5;fill: #00aeef;visibility: hidden;}
]]>
</style>
<path d="M124.06 107.98l62.84 0l0 18.84l-62.84 0Z" id="p54w1" />
<path d="M200.16 107.98l68.85 0l0 18.84l-68.85 0Z" id="p54w2" />
<path d="M124.06 139.19l43.86 0l0 14.52l-43.86 0Z" id="p54w3" />
<path d="M171.13 139.19l9.89 0l0 14.52l-9.89 0Z" id="p54w4" />
<path d="M184.22 139.19l46.79 0l0 14.52l-46.79 0Z" id="p54w5" />
<path d="M234.22 139.19l13.9 0l0 14.52l-13.9 0Z" id="p54w6" />
<path d="M251.33 139.19l10.16 0l0 14.52l-10.16 0Z" id="p54w7" />
<path d="M264.7 139.19l48.93 0l0 14.52l-48.93 0Z" id="p54w8" />
<path d="M143.75 164.2l54.53 0l0 14.52l-54.53 0Z" id="p54w9" />
<path d="M201.49 164.2l33.05 0l0 14.52l-33.05 0Z" id="p54w10" />
<path d="M237.75 164.2l20.85 0l0 14.52l-20.85 0Z" id="p54w11" />
<path d="M261.81 164.2l25.67 0l0 14.52l-25.67 0Z" id="p54w12" />
<path d="M290.69 164.2l41.45 0l0 14.52l-41.45 0Z" id="p54w13" />
<path d="M335.34 164.2l9.89 0l0 14.52l-9.89 0Z" id="p54w14" />
<path d="M348.44 164.2l47.58 0l0 14.52l-47.58 0Z" id="p54w15" />
<path d="M143.75 189.21l32.62 0l0 14.52l-32.62 0Z" id="p54w16" />
<path d="M179.58 189.21l24.06 0l0 14.52l-24.06 0Z" id="p54w17" />
<path d="M206.85 189.21l15.5 0l0 14.52l-15.5 0Z" id="p54w18" />
<path d="M225.55 189.21l28.06 0l0 14.52l-28.06 0Z" id="p54w19" />
<path d="M256.82 189.21l20.85 0l0 14.52l-20.85 0Z" id="p54w20" />
<path d="M280.88 189.21l25.67 0l0 14.52l-25.67 0Z" id="p54w21" />
<path d="M309.76 189.21l64.7 0l0 14.52l-64.7 0Z" id="p54w22" />
<path d="M143.75 205.88l12.83 0l0 14.52l-12.83 0Z" id="p54w23" />
<path d="M159.79 205.88l46.79 0l0 14.52l-46.79 0Z" id="p54w24" />
<path d="M209.79 205.88l28.33 0l0 14.52l-28.33 0Z" id="p54w25" />
<path d="M241.32 205.88l13.9 0l0 14.52l-13.9 0Z" id="p54w26" />
<path d="M258.43 205.88l53.44 0l0 14.52l-53.44 0Z" id="p54w27" />
<path d="M143.75 222.56l14.97 0l0 14.52l-14.97 0Z" id="p54w28" />
<path d="M161.93 222.56l24.34 0l0 14.52l-24.34 0Z" id="p54w29" />
<path d="M189.48 222.56l33.05 0l0 14.52l-33.05 0Z" id="p54w30" />
<path d="M225.74 222.56l35.82 0l0 14.52l-35.82 0Z" id="p54w31" />
<path d="M264.77 222.56l28.33 0l0 14.52l-28.33 0Z" id="p54w32" />
<path d="M296.3 222.56l28.06 0l0 14.52l-28.06 0Z" id="p54w33" />
<path d="M143.75 247.57l27.53 0l0 14.52l-27.53 0Z" id="p54w34" />
<path d="M174.5 247.57l9.89 0l0 14.52l-9.89 0Z" id="p54w35" />
<path d="M187.59 247.57l36.88 0l0 14.52l-36.88 0Z" id="p54w36" />
<path d="M227.68 247.57l13.9 0l0 14.52l-13.9 0Z" id="p54w37" />
<path d="M244.78 247.57l9.89 0l0 14.52l-9.89 0Z" id="p54w38" />
<path d="M257.88 247.57l49.47 0l0 14.52l-49.47 0Z" id="p54w39" />
<path d="M143.75 264.24l35.28 0l0 14.52l-35.28 0Z" id="p54w40" />
<path d="M182.24 264.24l34.67 0l0 14.52l-34.67 0Z" id="p54w41" />
<path d="M220.13 264.24l13.9 0l0 14.52l-13.9 0Z" id="p54w42" />
<path d="M237.23 264.24l50.76 0l0 14.52l-50.76 0Z" id="p54w43" />
<path d="M291.2 264.24l33.05 0l0 14.52l-33.05 0Z" id="p54w44" />
<path d="M327.46 264.24l22.99 0l0 14.52l-22.99 0Z" id="p54w45" />
<path d="M353.66 264.24l35.29 0l0 14.52l-35.29 0Z" id="p54w46" />
<path d="M143.75 330.93l32.87 0l0 14.52l-32.87 0Z" id="p54w47" />
<path d="M179.83 330.93l24.59 0l0 14.52l-24.59 0Z" id="p54w48" />
<path d="M207.63 330.93l47.53 0l0 14.52l-47.53 0Z" id="p54w49" />
<path d="M258.36 330.93l27.53 0l0 14.52l-27.53 0Z" id="p54w50" />
<path d="M289.11 330.93l9.89 0l0 14.52l-9.89 0Z" id="p54w51" />
<path d="M302.2 330.93l50.5 0l0 14.52l-50.5 0Z" id="p54w52" />
<path d="M355.91 330.93l42.5 0l0 14.52l-42.5 0Z" id="p54w53" />
<path d="M143.75 347.61l13.9 0l0 14.52l-13.9 0Z" id="p54w54" />
<path d="M160.86 347.61l9.89 0l0 14.52l-9.89 0Z" id="p54w55" />
<path d="M173.95 347.61l46.79 0l0 14.52l-46.79 0Z" id="p54w56" />
<path d="M233.84 347.61l9.89 0l0 14.52l-9.89 0Z" id="p54w57" />
<path d="M246.93 347.61l27.73 0l0 14.52l-27.73 0Z" id="p54w58" />
<path d="M301.76 347.61l41.97 0l0 14.52l-41.97 0Z" id="p54w59" />
<path d="M346.95 347.61l39.24 0l0 14.52l-39.24 0Z" id="p54w60" />
<path d="M143.75 364.28l47.07 0l0 14.52l-47.07 0Z" id="p54w61" />
<path d="M194.03 364.28l23.97 0l0 14.52l-23.97 0Z" id="p54w62" />
<path d="M221.21 364.28l36.61 0l0 14.52l-36.61 0Z" id="p54w63" />
<path d="M261.03 364.28l13.9 0l0 14.52l-13.9 0Z" id="p54w64" />
<path d="M278.14 364.28l9.89 0l0 14.52l-9.89 0Z" id="p54w65" />
<path d="M291.23 364.28l46.79 0l0 14.52l-46.79 0Z" id="p54w66" />
<path d="M341.23 364.28l11.22 0l0 14.52l-11.22 0Z" id="p54w67" />
<path d="M355.66 364.28l9.89 0l0 14.52l-9.89 0Z" id="p54w68" />
<path d="M368.75 364.28l49.17 0l0 14.52l-49.17 0Z" id="p54w69" />
<path d="M143.75 380.95l19.52 0l0 14.52l-19.52 0Z" id="p54w70" />
<path d="M166.48 380.95l35 0l0 14.52l-35 0Z" id="p54w71" />
<path d="M204.7 380.95l47.53 0l0 14.52l-47.53 0Z" id="p54w72" />
<path d="M143.75 405.96l40.38 0l0 14.52l-40.38 0Z" id="p54w73" />
<path d="M202.14 405.96l15.5 0l0 14.52l-15.5 0Z" id="p54w74" />
<path d="M220.84 405.96l29.67 0l0 14.52l-29.67 0Z" id="p54w75" />
<path d="M253.72 405.96l40.63 0l0 14.52l-40.63 0Z" id="p54w76" />
<path d="M297.55 405.96l13.9 0l0 14.52l-13.9 0Z" id="p54w77" />
<path d="M314.66 405.96l50.76 0l0 14.52l-50.76 0Z" id="p54w78" />
<path d="M143.75 422.63l40.38 0l0 14.52l-40.38 0Z" id="p54w79" />
<path d="M203.38 422.63l15.5 0l0 14.52l-15.5 0Z" id="p54w80" />
<path d="M222.08 422.63l29.67 0l0 14.52l-29.67 0Z" id="p54w81" />
<path d="M254.96 422.63l45.37 0l0 14.52l-45.37 0Z" id="p54w82" />
<path d="M303.53 422.63l13.9 0l0 14.52l-13.9 0Z" id="p54w83" />
<path d="M320.64 422.63l50.76 0l0 14.52l-50.76 0Z" id="p54w84" />
<path d="M143.75 439.3l40.38 0l0 14.52l-40.38 0Z" id="p54w85" />
<path d="M203.38 439.3l50.76 0l0 14.52l-50.76 0Z" id="p54w86" />
<path d="M257.35 439.3l68.17 0l0 14.52l-68.17 0Z" id="p54w87" />
<path d="M143.75 464.31l51.33 0l0 14.52l-51.33 0Z" id="p54w88" />
<path d="M198.29 464.31l15.5 0l0 14.52l-15.5 0Z" id="p54w89" />
<path d="M217 464.31l28.06 0l0 14.52l-28.06 0Z" id="p54w90" />
<path d="M248.27 464.31l50.28 0l0 14.52l-50.28 0Z" id="p54w91" />
<path d="M301.75 464.31l26.73 0l0 14.52l-26.73 0Z" id="p54w92" />
<path d="M331.69 464.31l14.18 0l0 14.52l-14.18 0Z" id="p54w93" />
<path d="M143.75 480.98l66.56 0l0 14.52l-66.56 0Z" id="p54w94" />
<path d="M213.53 480.98l13.9 0l0 14.52l-13.9 0Z" id="p54w95" />
<path d="M230.63 480.98l30.15 0l0 14.52l-30.15 0Z" id="p54w96" />
<path d="M143.75 506l25.4 0l0 14.52l-25.4 0Z" id="p54w97" />
<path d="M172.36 506l16.83 0l0 14.52l-16.83 0Z" id="p54w98" />
<path d="M192.39 506l9.89 0l0 14.52l-9.89 0Z" id="p54w99" />
<path d="M205.49 506l49.37 0l0 14.52l-49.37 0Z" id="p54w100" />
<path d="M258.06 506l13.9 0l0 14.52l-13.9 0Z" id="p54w101" />
<path d="M275.17 506l9.89 0l0 14.52l-9.89 0Z" id="p54w102" />
<path d="M288.26 506l46.79 0l0 14.52l-46.79 0Z" id="p54w103" />
<path d="M143.75 522.67l25.4 0l0 14.52l-25.4 0Z" id="p54w104" />
<path d="M172.36 522.67l21.12 0l0 14.52l-21.12 0Z" id="p54w105" />
<path d="M196.68 522.67l23.53 0l0 14.52l-23.53 0Z" id="p54w106" />
<path d="M223.43 522.67l9.89 0l0 14.52l-9.89 0Z" id="p54w107" />
<path d="M236.52 522.67l47.58 0l0 14.52l-47.58 0Z" id="p54w108" />
<path d="M295.6 522.67l33.95 0l0 14.52l-33.95 0Z" id="p54w109" />
<path d="M332.76 522.67l13.9 0l0 14.52l-13.9 0Z" id="p54w110" />
<path d="M349.86 522.67l36.35 0l0 14.52l-36.35 0Z" id="p54w111" />
<path d="M124.06 566.49l122.85 0l0 18.84l-122.85 0Z" id="p54w112" />
<path d="M250.56 566.49l13.96 0l0 18.84l-13.96 0Z" id="p54w113" />
<path d="M268.16 566.49l63.04 0l0 18.84l-63.04 0Z" id="p54w114" />
<path d="M123.63 597.69l26.74 0l0 14.52l-26.74 0Z" id="p54w115" />
<path d="M153.58 597.69l20.85 0l0 14.52l-20.85 0Z" id="p54w116" />
<path d="M177.64 597.69l52.11 0l0 14.52l-52.11 0Z" id="p54w117" />
<path d="M232.96 597.69l19.96 0l0 14.52l-19.96 0Z" id="p54w118" />
<path d="M256.12 597.69l48.93 0l0 14.52l-48.93 0Z" id="p54w119" />
<path d="M308.26 597.69l55.44 0l0 14.52l-55.44 0Z" id="p54w120" />
<path d="M366.9 597.69l15.5 0l0 14.52l-15.5 0Z" id="p54w121" />
<path d="M385.61 597.69l56.68 0l0 14.52l-56.68 0Z" id="p54w122" />
<path d="M124.06 614.36l40.63 0l0 14.52l-40.63 0Z" id="p54w123" />
<path d="M167.9 614.3l79.97 0l0 14.6l-79.97 0Z" id="p54w124" />
<path d="M251.08 614.3l18.52 0l0 14.6l-18.52 0Z" id="p54w125" />
<path d="M272.8 614.3l51.11 0l0 14.6l-51.11 0Z" id="p54w126" />
<path d="M634.33 614.36l14.44 0l0 14.52l-14.44 0Z" id="p54w127" />
<path d="M651.98 614.36l23.52 0l0 14.52l-23.52 0Z" id="p54w128" />
<path d="M53.09 140.96l35.52 0l0 12.29l-35.52 0Z" id="p54w129" />
<path d="M48.38 157.7l25.91 0l0 12.3l-25.91 0Z" id="p54w130" />
<path d="M73.54 332.7l15.07 0l0 12.29l-15.07 0Z" id="p54w131" />
<path d="M615.44 382.32l55.48 0l0 12.56l-55.48 0Z" id="p54w132" />
<path d="M448.39 407.06l20.37 0l0 15.37l-20.37 0Z" id="p54w133" />
<path d="M472.13 407.06l130.76 0l0 15.37l-130.76 0Z" id="p54w134" />
<path d="M606.26 407.06l49.63 0l0 15.37l-49.63 0Z" id="p54w135" />
<path d="M448.39 428.35l19.24 0l0 14.52l-19.24 0Z" id="p54w136" />
<path d="M470.84 428.35l17.11 0l0 14.52l-17.11 0Z" id="p54w137" />
<path d="M491.15 428.35l61.43 0l0 14.52l-61.43 0Z" id="p54w138" />
<path d="M555.79 428.35l71.1 0l0 14.52l-71.1 0Z" id="p54w139" />
<path d="M629.84 428.35l38.21 0l0 14.52l-38.21 0Z" id="p54w140" />
<path d="M448.39 445.02l14.16 0l0 14.52l-14.16 0Z" id="p54w141" />
<path d="M465.76 445.02l45.17 0l0 14.52l-45.17 0Z" id="p54w142" />
<path d="M514.13 445.02l57.75 0l0 14.52l-57.75 0Z" id="p54w143" />
<path d="M571.88 445.02l31.02 0l0 14.52l-31.02 0Z" id="p54w144" />
<path d="M606.1 445.02l27.27 0l0 14.52l-27.27 0Z" id="p54w145" />
<path d="M636.58 445.02l24.85 0l0 14.52l-24.85 0Z" id="p54w146" />
<path d="M448.39 461.69l10.43 0l0 14.52l-10.43 0Z" id="p54w147" />
<path d="M462.02 461.69l34.74 0l0 14.52l-34.74 0Z" id="p54w148" />
<path d="M499.97 461.69l105.07 0l0 14.52l-105.07 0Z" id="p54w149" />
<path d="M608.24 461.69l42.25 0l0 14.52l-42.25 0Z" id="p54w150" />
<path d="M448.39 486.7l43.02 0l0 14.52l-43.02 0Z" id="p54w151" />
<path d="M494.61 486.7l80.2 0l0 14.52l-80.2 0Z" id="p54w152" />
<path d="M578.02 486.7l17.91 0l0 14.52l-17.91 0Z" id="p54w153" />
<path d="M599.14 486.7l28.06 0l0 14.52l-28.06 0Z" id="p54w154" />
<path d="M60.68 507.76l27.93 0l0 12.29l-27.93 0Z" id="p54w155" />
<path d="M450.07 246.91l10.71 0l0 15.09l-10.71 0Z" id="p54w156" />
<path d="M464.39 246.91l12.41 0l0 15.09l-12.41 0Z" id="p54w157" />
<path d="M480.42 246.91l28.17 0l0 15.09l-28.17 0Z" id="p54w158" />
<path d="M512.2 246.91l26.89 0l0 15.09l-26.89 0Z" id="p54w159" />
<path d="M542.7 246.91l11.18 0l0 15.09l-11.18 0Z" id="p54w160" />
<path d="M557.49 246.91l17.14 0l0 15.09l-17.14 0Z" id="p54w161" />
<path d="M588.35 246.91l53.46 0l0 15.09l-53.46 0Z" id="p54w162" />
<path d="M450.07 263.58l32.37 0l0 15.09l-32.37 0Z" id="p54w163" />
<path d="M486.06 263.58l26.89 0l0 15.09l-26.89 0Z" id="p54w164" />
<path d="M516.56 263.58l15.74 0l0 15.09l-15.74 0Z" id="p54w165" />
<path d="M535.91 263.58l24.93 0l0 15.09l-24.93 0Z" id="p54w166" />
<path d="M564.46 263.58l29.92 0l0 15.09l-29.92 0Z" id="p54w167" />
<path d="M597.99 263.58l26.3 0l0 15.09l-26.3 0Z" id="p54w168" />
<path d="M627.89 263.58l39.74 0l0 15.09l-39.74 0Z" id="p54w169" />
<path d="M450.07 280.25l17.68 0l0 15.09l-17.68 0Z" id="p54w170" />
<path d="M471.37 280.25l10.42 0l0 15.09l-10.42 0Z" id="p54w171" />
<path d="M485.4 280.25l26.9 0l0 15.09l-26.9 0Z" id="p54w172" />
<path d="M515.92 280.25l10.5 0l0 15.09l-10.5 0Z" id="p54w173" />
<path d="M530.03 280.25l34.42 0l0 15.09l-34.42 0Z" id="p54w174" />
<path d="M568.06 280.25l28.15 0l0 15.09l-28.15 0Z" id="p54w175" />
<path d="M599.81 280.25l11.26 0l0 15.09l-11.26 0Z" id="p54w176" />
<path d="M614.68 280.25l15.89 0l0 15.09l-15.89 0Z" id="p54w177" />
<path d="M634.18 280.25l54.22 0l0 15.09l-54.22 0Z" id="p54w178" />
<path d="M450.07 296.92l13.07 0l0 15.09l-13.07 0Z" id="p54w179" />
<path d="M466.76 296.92l28.17 0l0 15.09l-28.17 0Z" id="p54w180" />
<path d="M498.54 296.92l36.26 0l0 15.09l-36.26 0Z" id="p54w181" />
<path d="M538.41 296.92l41.22 0l0 15.09l-41.22 0Z" id="p54w182" />
<path d="M583.23 296.92l16.64 0l0 15.09l-16.64 0Z" id="p54w183" />
<path d="M603.49 296.92l65.13 0l0 15.09l-65.13 0Z" id="p54w184" />
<path d="M437.88 716.32l41.7 0l0 14.52l-41.7 0Z" id="p54w185" />
<path d="M492.67 716.32l53.44 0l0 14.52l-53.44 0Z" id="p54w186" />
<path d="M437.88 758l21.4 0l0 14.52l-21.4 0Z" id="p54w187" />
<path d="M462.49 758l14.8 0l0 14.52l-14.8 0Z" id="p54w188" />
<path d="M480.49 758l20.85 0l0 14.52l-20.85 0Z" id="p54w189" />
<path d="M504.55 758l46.79 0l0 14.52l-46.79 0Z" id="p54w190" />
<path d="M554.55 758l49.97 0l0 14.52l-49.97 0Z" id="p54w191" />
<path d="M607.73 758l24.85 0l0 14.52l-24.85 0Z" id="p54w192" />
<path d="M635.79 757.97l12.02 0l0 14.52l-12.02 0Z" id="p54w193" />
<path d="M651.03 757.97l26.45 0l0 14.52l-26.45 0Z" id="p54w194" />
<path d="M437.88 774.64l66.02 0l0 14.52l-66.02 0Z" id="p54w195" />
<path d="M507.11 774.64l19.79 0l0 14.52l-19.79 0Z" id="p54w196" />
<path d="M530.11 774.67l13.9 0l0 14.52l-13.9 0Z" id="p54w197" />
<path d="M547.21 774.67l25.13 0l0 14.52l-25.13 0Z" id="p54w198" />
<path d="M575.55 774.67l20.84 0l0 14.52l-20.84 0Z" id="p54w199" />
<path d="M599.6 774.67l48.68 0l0 14.52l-48.68 0Z" id="p54w200" />
<path d="M437.88 816.35l20.05 0l0 14.52l-20.05 0Z" id="p54w201" />
<path d="M461.14 816.35l28.33 0l0 14.52l-28.33 0Z" id="p54w202" />
<path d="M492.67 816.35l13.9 0l0 14.52l-13.9 0Z" id="p54w203" />
<path d="M509.78 816.35l12.29 0l0 14.52l-12.29 0Z" id="p54w204" />
<path d="M525.28 816.35l16.04 0l0 14.52l-16.04 0Z" id="p54w205" />
<path d="M554.41 816.35l53.44 0l0 14.52l-53.44 0Z" id="p54w206" />
<path d="M437.88 858.04l15.6 0l0 14.52l-15.6 0Z" id="p54w207" />
<path d="M456.69 858.04l24.85 0l0 14.52l-24.85 0Z" id="p54w208" />
<path d="M484.75 858.04l36.61 0l0 14.52l-36.61 0Z" id="p54w209" />
<path d="M524.58 858.04l43.31 0l0 14.52l-43.31 0Z" id="p54w210" />
<path d="M437.88 899.72l21.4 0l0 14.52l-21.4 0Z" id="p54w211" />
<path d="M462.49 899.72l25.67 0l0 14.52l-25.67 0Z" id="p54w212" />
<path d="M491.37 899.72l30.74 0l0 14.52l-30.74 0Z" id="p54w213" />
<path d="M525.32 899.72l9.89 0l0 14.52l-9.89 0Z" id="p54w214" />
<path d="M538.41 899.72l39.57 0l0 14.52l-39.57 0Z" id="p54w215" />
<path d="M581.19 899.72l13.9 0l0 14.52l-13.9 0Z" id="p54w216" />
<path d="M598.3 899.72l17.63 0l0 14.52l-17.63 0Z" id="p54w217" />
<path d="M619.14 899.72l20.85 0l0 14.52l-20.85 0Z" id="p54w218" />
<path d="M643.2 899.72l40.36 0l0 14.52l-40.36 0Z" id="p54w219" />
<path d="M437.88 916.39l13.9 0l0 14.52l-13.9 0Z" id="p54w220" />
<path d="M454.99 916.39l59.53 0l0 14.52l-59.53 0Z" id="p54w221" />
<path d="M517.73 916.39l11.22 0l0 14.52l-11.22 0Z" id="p54w222" />
<path d="M532.15 916.39l13.9 0l0 14.52l-13.9 0Z" id="p54w223" />
<path d="M549.26 916.39l49.46 0l0 14.52l-49.46 0Z" id="p54w224" />
<path d="M150.38 841.3l38.4 0l0 14.6l-38.4 0Z" id="p54w225" />
<path d="M191.98 841.3l35.39 0l0 14.6l-35.39 0Z" id="p54w226" />
<path d="M230.58 841.3l61.09 0l0 14.6l-61.09 0Z" id="p54w227" />
<path d="M294.87 841.3l13.87 0l0 14.6l-13.87 0Z" id="p54w228" />
<path d="M311.95 841.3l10.03 0l0 14.6l-10.03 0Z" id="p54w229" />
<path d="M325.19 841.3l48.12 0l0 14.6l-48.12 0Z" id="p54w230" />
<path d="M150.38 858.04l10.43 0l0 14.52l-10.43 0Z" id="p54w231" />
<path d="M164.01 858.04l19.77 0l0 14.52l-19.77 0Z" id="p54w232" />
<path d="M186.99 858.04l13.9 0l0 14.52l-13.9 0Z" id="p54w233" />
<path d="M204.1 858.04l9.89 0l0 14.52l-9.89 0Z" id="p54w234" />
<path d="M217.19 858.04l47.58 0l0 14.52l-47.58 0Z" id="p54w235" />
<path d="M267.98 858.04l36.89 0l0 14.52l-36.89 0Z" id="p54w236" />
<path d="M308.08 858.04l20.85 0l0 14.52l-20.85 0Z" id="p54w237" />
<path d="M332.14 858.04l14.8 0l0 14.52l-14.8 0Z" id="p54w238" />
<path d="M364.4 858.04l22.19 0l0 14.52l-22.19 0Z" id="p54w239" />
<path d="M150.38 882.98l50.39 0l0 14.6l-50.39 0Z" id="p54w240" />
<path d="M203.98 882.98l25.77 0l0 14.6l-25.77 0Z" id="p54w241" />
<path d="M150.39 899.72l10.43 0l0 14.52l-10.43 0Z" id="p54w242" />
<path d="M164.02 899.72l53.81 0l0 14.52l-53.81 0Z" id="p54w243" />
<path d="M221.04 899.72l10.16 0l0 14.52l-10.16 0Z" id="p54w244" />
<path d="M234.41 899.72l47.57 0l0 14.52l-47.57 0Z" id="p54w245" />
<path d="M285.19 899.72l31.01 0l0 14.52l-31.01 0Z" id="p54w246" />
<path d="M319.41 899.72l20.85 0l0 14.52l-20.85 0Z" id="p54w247" />
<path d="M343.47 899.72l23.24 0l0 14.52l-23.24 0Z" id="p54w248" />
<path d="M150.39 916.39l42.78 0l0 14.52l-42.78 0Z" id="p54w249" />
<path d="M196.37 916.39l72.25 0l0 14.52l-72.25 0Z" id="p54w250" />
<path d="M271.83 916.39l41.43 0l0 14.52l-41.43 0Z" id="p54w251" />
<path d="M316.47 916.39l15.25 0l0 14.52l-15.25 0Z" id="p54w252" />
<path d="M124.06 39.02l42.71 0l0 15.38l-42.71 0Z" id="p54w253" />
<path d="M208.04 39.02l43.21 0l0 15.38l-43.21 0Z" id="p54w254" />
<path d="M307.2 38.6l45.06 0l0 16.09l-45.06 0Z" id="p54w255" />
<path d="M405.76 39.02l32.54 0l0 15.38l-32.54 0Z" id="p54w256" />
<path d="M76.9 983l72.43 0l0 12.23l-72.43 0Z" id="p54w257" />
</svg>
