<?xml version="1.0" encoding="UTF-8"?>
<svg xmlns="http://www.w3.org/2000/svg" xmlns:xlink="http://www.w3.org/1999/xlink" version="1.1" baseProfile="full" width="768" height="1024" viewBox="0,0,768,1024" preserveAspectRatio="xMinYMin meet" >
<style type="text/css">
<![CDATA[
path {fill-opacity: 0.5;fill: #00aeef;visibility: hidden;}
]]>
</style>
<path d="M462.85 56.95l10.39 0l0 13.84l-10.39 0Z" id="p107w1" />
<path d="M476.28 56.95l17.47 0l0 13.84l-17.47 0Z" id="p107w2" />
<path d="M496.79 56.82l29.66 0l0 13.99l-29.66 0Z" id="p107w3" />
<path d="M537.09 56.82l23.07 0l0 13.99l-23.07 0Z" id="p107w4" />
<path d="M563.2 56.95l16.89 0l0 13.84l-16.89 0Z" id="p107w5" />
<path d="M583.13 56.95l26.58 0l0 13.84l-26.58 0Z" id="p107w6" />
<path d="M631.85 56.95l46.99 0l0 13.84l-46.99 0Z" id="p107w7" />
<path d="M681.88 56.95l14.18 0l0 13.84l-14.18 0Z" id="p107w8" />
<path d="M462.85 72.23l16.21 0l0 13.84l-16.21 0Z" id="p107w9" />
<path d="M482.09 72.23l32.16 0l0 13.84l-32.16 0Z" id="p107w10" />
<path d="M517.29 72.23l24.06 0l0 13.84l-24.06 0Z" id="p107w11" />
<path d="M544.39 72.23l29.37 0l0 13.84l-29.37 0Z" id="p107w12" />
<path d="M576.8 72.23l57.85 0l0 13.84l-57.85 0Z" id="p107w13" />
<path d="M637.69 72.23l22.27 0l0 13.84l-22.27 0Z" id="p107w14" />
<path d="M462.85 87.51l35.39 0l0 13.84l-35.39 0Z" id="p107w15" />
<path d="M501.27 87.51l56.37 0l0 13.84l-56.37 0Z" id="p107w16" />
<path d="M462.85 103.78l26.01 0l0 13.84l-26.01 0Z" id="p107w17" />
<path d="M491.9 103.78l24.81 0l0 13.84l-24.81 0Z" id="p107w18" />
<path d="M519.74 103.78l14.18 0l0 13.84l-14.18 0Z" id="p107w19" />
<path d="M476.63 120.05l59.1 0l0 13.84l-59.1 0Z" id="p107w20" />
<path d="M538.76 120.05l24.56 0l0 13.84l-24.56 0Z" id="p107w21" />
<path d="M566.36 120.05l16.96 0l0 13.84l-16.96 0Z" id="p107w22" />
<path d="M586.36 120.05l16.21 0l0 13.84l-16.21 0Z" id="p107w23" />
<path d="M605.6 120.05l62.79 0l0 13.84l-62.79 0Z" id="p107w24" />
<path d="M476.63 136.32l22.53 0l0 13.84l-22.53 0Z" id="p107w25" />
<path d="M502.2 136.32l26.07 0l0 13.84l-26.07 0Z" id="p107w26" />
<path d="M531.31 136.32l19.74 0l0 13.84l-19.74 0Z" id="p107w27" />
<path d="M554.09 136.32l17.47 0l0 13.84l-17.47 0Z" id="p107w28" />
<path d="M574.19 136.32l79.92 0l0 13.84l-79.92 0Z" id="p107w29" />
<path d="M476.63 151.6l18.42 0l0 13.84l-18.42 0Z" id="p107w30" />
<path d="M498.09 151.52l81.74 0l0 13.91l-81.74 0Z" id="p107w31" />
<path d="M48.87 932.92l27.93 0l0 12.29l-27.93 0Z" id="p107w32" />
<path d="M124.07 931.14l15.51 0l0 14.52l-15.51 0Z" id="p107w33" />
<path d="M142.78 931.14l77.16 0l0 14.52l-77.16 0Z" id="p107w34" />
<path d="M223.15 931.14l25.38 0l0 14.52l-25.38 0Z" id="p107w35" />
<path d="M251.74 931.14l14.18 0l0 14.52l-14.18 0Z" id="p107w36" />
<path d="M269.13 931.14l30.66 0l0 14.52l-30.66 0Z" id="p107w37" />
<path d="M303 931.14l13.91 0l0 14.52l-13.91 0Z" id="p107w38" />
<path d="M320.12 931.14l49 0l0 14.52l-49 0Z" id="p107w39" />
<path d="M372.32 931.14l22.99 0l0 14.52l-22.99 0Z" id="p107w40" />
<path d="M398.52 931.14l22.72 0l0 14.52l-22.72 0Z" id="p107w41" />
<path d="M432.73 931.14l28.33 0l0 14.52l-28.33 0Z" id="p107w42" />
<path d="M464.27 931.14l52.69 0l0 14.52l-52.69 0Z" id="p107w43" />
<path d="M540.02 931.14l23.8 0l0 14.52l-23.8 0Z" id="p107w44" />
<path d="M567.02 931.14l56.52 0l0 14.52l-56.52 0Z" id="p107w45" />
<path d="M647.72 983l43.38 0l0 12.23l-43.38 0Z" id="p107w46" />
<path d="M183.04 592.77l22.31 0l0 15.09l-22.31 0Z" id="p107w47" />
<path d="M208.97 592.77l43.57 0l0 15.09l-43.57 0Z" id="p107w48" />
<path d="M263.28 592.77l36.53 0l0 15.09l-36.53 0Z" id="p107w49" />
<path d="M303.41 592.77l25.88 0l0 15.09l-25.88 0Z" id="p107w50" />
<path d="M166.4 609.44l15.89 0l0 15.09l-15.89 0Z" id="p107w51" />
<path d="M185.9 609.44l44.24 0l0 15.09l-44.24 0Z" id="p107w52" />
<path d="M233.74 609.44l11.26 0l0 15.09l-11.26 0Z" id="p107w53" />
<path d="M248.61 609.44l17.93 0l0 15.09l-17.93 0Z" id="p107w54" />
<path d="M270.15 609.44l49.15 0l0 15.09l-49.15 0Z" id="p107w55" />
<path d="M166.4 626.11l17.83 0l0 15.09l-17.83 0Z" id="p107w56" />
<path d="M187.84 626.11l22.03 0l0 15.09l-22.03 0Z" id="p107w57" />
<path d="M213.48 626.11l37.13 0l0 15.09l-37.13 0Z" id="p107w58" />
<path d="M254.22 626.11l14.59 0l0 15.09l-14.59 0Z" id="p107w59" />
<path d="M272.42 626.11l39.84 0l0 15.09l-39.84 0Z" id="p107w60" />
<path d="M166.4 642.78l12.22 0l0 15.09l-12.22 0Z" id="p107w61" />
<path d="M182.23 642.78l28.16 0l0 15.09l-28.16 0Z" id="p107w62" />
<path d="M214 642.78l15.15 0l0 15.09l-15.15 0Z" id="p107w63" />
<path d="M242.87 642.78l19.29 0l0 15.09l-19.29 0Z" id="p107w64" />
<path d="M265.77 642.78l48.34 0l0 15.09l-48.34 0Z" id="p107w65" />
<path d="M166.4 659.45l8.21 0l0 15.09l-8.21 0Z" id="p107w66" />
<path d="M174.61 659.45l19.16 0l0 15.09l-19.16 0Z" id="p107w67" />
<path d="M197.39 659.45l27.23 0l0 15.09l-27.23 0Z" id="p107w68" />
<path d="M228.23 659.45l22.31 0l0 15.09l-22.31 0Z" id="p107w69" />
<path d="M254.15 659.45l56.6 0l0 15.09l-56.6 0Z" id="p107w70" />
<path d="M631.41 701.75l15.07 0l0 12.56l-15.07 0Z" id="p107w71" />
<path d="M649.18 701.75l16.87 0l0 12.56l-16.87 0Z" id="p107w72" />
<path d="M124.19 723.6l28.23 0l0 15.37l-28.23 0Z" id="p107w73" />
<path d="M155.8 723.6l90.26 0l0 15.37l-90.26 0Z" id="p107w74" />
<path d="M249.44 723.6l53.42 0l0 15.37l-53.42 0Z" id="p107w75" />
<path d="M124.19 751.27l10.43 0l0 14.52l-10.43 0Z" id="p107w76" />
<path d="M137.83 751.27l47.06 0l0 14.52l-47.06 0Z" id="p107w77" />
<path d="M188.09 751.27l25.38 0l0 14.52l-25.38 0Z" id="p107w78" />
<path d="M216.68 751.27l25.13 0l0 14.52l-25.13 0Z" id="p107w79" />
<path d="M245.02 751.27l30.66 0l0 14.52l-30.66 0Z" id="p107w80" />
<path d="M124.19 767.94l26.73 0l0 14.52l-26.73 0Z" id="p107w81" />
<path d="M154.13 767.94l9.89 0l0 14.52l-9.89 0Z" id="p107w82" />
<path d="M167.22 767.94l40.89 0l0 14.52l-40.89 0Z" id="p107w83" />
<path d="M325.58 767.94l48.11 0l0 14.52l-48.11 0Z" id="p107w84" />
<path d="M381.94 767.94l43.83 0l0 14.52l-43.83 0Z" id="p107w85" />
<path d="M434.02 767.94l31.55 0l0 14.52l-31.55 0Z" id="p107w86" />
<path d="M473.82 767.94l13.9 0l0 14.52l-13.9 0Z" id="p107w87" />
<path d="M490.92 767.94l78.05 0l0 14.52l-78.05 0Z" id="p107w88" />
<path d="M577.22 767.94l19.51 0l0 14.52l-19.51 0Z" id="p107w89" />
<path d="M599.94 767.94l43.03 0l0 14.52l-43.03 0Z" id="p107w90" />
<path d="M124.19 790.02l22.73 0l0 14.52l-22.73 0Z" id="p107w91" />
<path d="M150.13 790.02l25.4 0l0 14.52l-25.4 0Z" id="p107w92" />
<path d="M178.73 790.02l52.2 0l0 14.52l-52.2 0Z" id="p107w93" />
<path d="M234.14 790.02l49 0l0 14.52l-49 0Z" id="p107w94" />
<path d="M124.19 806.7l41.43 0l0 14.52l-41.43 0Z" id="p107w95" />
<path d="M325.58 790.02l74.58 0l0 14.52l-74.58 0Z" id="p107w96" />
<path d="M408.4 790.02l91.15 0l0 14.52l-91.15 0Z" id="p107w97" />
<path d="M502.76 790.02l70.77 0l0 14.52l-70.77 0Z" id="p107w98" />
<path d="M576.75 790.02l61.22 0l0 14.52l-61.22 0Z" id="p107w99" />
<path d="M325.58 806.7l58.54 0l0 14.52l-58.54 0Z" id="p107w100" />
<path d="M387.32 806.7l50.53 0l0 14.52l-50.53 0Z" id="p107w101" />
<path d="M441.06 806.7l63.62 0l0 14.52l-63.62 0Z" id="p107w102" />
<path d="M512.93 806.7l80.2 0l0 14.52l-80.2 0Z" id="p107w103" />
<path d="M596.33 806.7l76.71 0l0 14.52l-76.71 0Z" id="p107w104" />
<path d="M325.58 823.37l31.81 0l0 14.52l-31.81 0Z" id="p107w105" />
<path d="M360.59 823.37l42.25 0l0 14.52l-42.25 0Z" id="p107w106" />
<path d="M124.19 845.45l13.9 0l0 14.52l-13.9 0Z" id="p107w107" />
<path d="M141.3 845.45l36.6 0l0 14.52l-36.6 0Z" id="p107w108" />
<path d="M186.15 845.45l40.89 0l0 14.52l-40.89 0Z" id="p107w109" />
<path d="M230.25 845.45l64.12 0l0 14.52l-64.12 0Z" id="p107w110" />
<path d="M124.19 862.12l31.01 0l0 14.52l-31.01 0Z" id="p107w111" />
<path d="M158.41 862.12l30.23 0l0 14.52l-30.23 0Z" id="p107w112" />
<path d="M191.84 862.12l25.4 0l0 14.52l-25.4 0Z" id="p107w113" />
<path d="M325.58 845.45l22.44 0l0 14.52l-22.44 0Z" id="p107w114" />
<path d="M351.22 845.45l13.9 0l0 14.52l-13.9 0Z" id="p107w115" />
<path d="M368.33 845.45l41.71 0l0 14.52l-41.71 0Z" id="p107w116" />
<path d="M413.25 845.45l25.4 0l0 14.52l-25.4 0Z" id="p107w117" />
<path d="M441.85 845.45l19.51 0l0 14.52l-19.51 0Z" id="p107w118" />
<path d="M464.57 845.45l29.34 0l0 14.52l-29.34 0Z" id="p107w119" />
<path d="M528.42 845.45l22.44 0l0 14.52l-22.44 0Z" id="p107w120" />
<path d="M554.07 845.45l37.7 0l0 14.52l-37.7 0Z" id="p107w121" />
<path d="M325.58 862.12l28.33 0l0 14.52l-28.33 0Z" id="p107w122" />
<path d="M357.11 862.12l19.51 0l0 14.52l-19.51 0Z" id="p107w123" />
<path d="M379.83 862.12l29.34 0l0 14.52l-29.34 0Z" id="p107w124" />
<path d="M528.42 862.12l39.43 0l0 14.52l-39.43 0Z" id="p107w125" />
<path d="M571.06 862.12l54.55 0l0 14.52l-54.55 0Z" id="p107w126" />
<path d="M628.82 862.12l48.68 0l0 14.52l-48.68 0Z" id="p107w127" />
<path d="M325.58 878.79l32.87 0l0 14.52l-32.87 0Z" id="p107w128" />
<path d="M361.65 878.79l49.99 0l0 14.52l-49.99 0Z" id="p107w129" />
<path d="M414.84 878.79l46.18 0l0 14.52l-46.18 0Z" id="p107w130" />
<path d="M528.43 878.79l49 0l0 14.52l-49 0Z" id="p107w131" />
<path d="M580.63 878.79l13.9 0l0 14.52l-13.9 0Z" id="p107w132" />
<path d="M597.74 878.79l40.64 0l0 14.52l-40.64 0Z" id="p107w133" />
<path d="M325.58 895.46l54.55 0l0 14.52l-54.55 0Z" id="p107w134" />
<path d="M383.34 895.46l45.41 0l0 14.52l-45.41 0Z" id="p107w135" />
<path d="M528.42 895.46l49 0l0 14.52l-49 0Z" id="p107w136" />
<path d="M590.51 895.46l9.89 0l0 14.52l-9.89 0Z" id="p107w137" />
<path d="M603.61 895.46l43.31 0l0 14.52l-43.31 0Z" id="p107w138" />
<path d="M258.69 30.53l15.74 0l0 15.09l-15.74 0Z" id="p107w139" />
<path d="M278.04 30.53l44.98 0l0 15.09l-44.98 0Z" id="p107w140" />
<path d="M326.64 30.53l53.35 0l0 15.09l-53.35 0Z" id="p107w141" />
<path d="M242.05 47.2l26.3 0l0 15.09l-26.3 0Z" id="p107w142" />
<path d="M271.95 47.2l15.74 0l0 15.09l-15.74 0Z" id="p107w143" />
<path d="M291.31 47.2l28.17 0l0 15.09l-28.17 0Z" id="p107w144" />
<path d="M323.09 47.2l39.15 0l0 15.09l-39.15 0Z" id="p107w145" />
<path d="M372.8 47.2l17.38 0l0 15.09l-17.38 0Z" id="p107w146" />
<path d="M242.05 63.87l56.7 0l0 15.09l-56.7 0Z" id="p107w147" />
<path d="M302.36 63.87l13.91 0l0 15.09l-13.91 0Z" id="p107w148" />
<path d="M319.88 63.87l87.73 0l0 15.09l-87.73 0Z" id="p107w149" />
<path d="M242.05 80.54l11.26 0l0 15.09l-11.26 0Z" id="p107w150" />
<path d="M256.92 80.54l15.15 0l0 15.09l-15.15 0Z" id="p107w151" />
<path d="M275.68 80.54l26.56 0l0 15.09l-26.56 0Z" id="p107w152" />
<path d="M305.86 80.54l29.69 0l0 15.09l-29.69 0Z" id="p107w153" />
<path d="M339.15 80.54l15.89 0l0 15.09l-15.89 0Z" id="p107w154" />
<path d="M358.65 80.54l30.02 0l0 15.09l-30.02 0Z" id="p107w155" />
<path d="M477.39 371.34l22.31 0l0 15.09l-22.31 0Z" id="p107w156" />
<path d="M503.32 371.34l40.63 0l0 15.09l-40.63 0Z" id="p107w157" />
<path d="M547.55 371.34l13.91 0l0 15.09l-13.91 0Z" id="p107w158" />
<path d="M565.07 371.34l51.79 0l0 15.09l-51.79 0Z" id="p107w159" />
<path d="M620.47 371.34l17.97 0l0 15.09l-17.97 0Z" id="p107w160" />
<path d="M642.05 371.34l17.93 0l0 15.09l-17.93 0Z" id="p107w161" />
<path d="M663.59 371.34l56.7 0l0 15.09l-56.7 0Z" id="p107w162" />
<path d="M460.75 388.01l85.54 0l0 15.09l-85.54 0Z" id="p107w163" />
<path d="M549.9 388.01l13.07 0l0 15.09l-13.07 0Z" id="p107w164" />
<path d="M566.59 388.01l37.44 0l0 15.09l-37.44 0Z" id="p107w165" />
<path d="M607.64 388.01l14.59 0l0 15.09l-14.59 0Z" id="p107w166" />
<path d="M625.83 388.01l43.29 0l0 15.09l-43.29 0Z" id="p107w167" />
<path d="M672.73 388.01l12.58 0l0 15.09l-12.58 0Z" id="p107w168" />
<path d="M688.92 388.01l18.6 0l0 15.09l-18.6 0Z" id="p107w169" />
<path d="M460.75 404.68l42.39 0l0 15.09l-42.39 0Z" id="p107w170" />
<path d="M506.75 404.68l28.89 0l0 15.09l-28.89 0Z" id="p107w171" />
<path d="M459.88 608.06l10.5 0l0 15.09l-10.5 0Z" id="p107w172" />
<path d="M474 608.06l42.41 0l0 15.09l-42.41 0Z" id="p107w173" />
<path d="M520.02 608.06l70.56 0l0 15.09l-70.56 0Z" id="p107w174" />
<path d="M594.19 608.06l19.46 0l0 15.09l-19.46 0Z" id="p107w175" />
<path d="M617.26 608.06l50.46 0l0 15.09l-50.46 0Z" id="p107w176" />
<path d="M671.32 608.06l27.23 0l0 15.09l-27.23 0Z" id="p107w177" />
<path d="M443.24 624.73l10.5 0l0 15.09l-10.5 0Z" id="p107w178" />
<path d="M457.35 624.73l51.48 0l0 15.09l-51.48 0Z" id="p107w179" />
<path d="M512.45 624.73l13.91 0l0 15.09l-13.91 0Z" id="p107w180" />
<path d="M529.97 624.73l75.04 0l0 15.09l-75.04 0Z" id="p107w181" />
<path d="M608.62 624.73l10.42 0l0 15.09l-10.42 0Z" id="p107w182" />
<path d="M622.65 624.73l14.86 0l0 15.09l-14.86 0Z" id="p107w183" />
<path d="M641.12 624.73l19.29 0l0 15.09l-19.29 0Z" id="p107w184" />
<path d="M443.24 641.39l62.37 0l0 15.09l-62.37 0Z" id="p107w185" />
<path d="M509.22 641.39l60.52 0l0 15.09l-60.52 0Z" id="p107w186" />
<path d="M573.35 641.39l15.89 0l0 15.09l-15.89 0Z" id="p107w187" />
<path d="M592.85 641.39l47.46 0l0 15.09l-47.46 0Z" id="p107w188" />
<path d="M643.92 641.39l15.06 0l0 15.09l-15.06 0Z" id="p107w189" />
<path d="M662.6 641.39l30.06 0l0 15.09l-30.06 0Z" id="p107w190" />
<path d="M276.37 354.66l22.31 0l0 15.09l-22.31 0Z" id="p107w191" />
<path d="M302.29 354.66l50.03 0l0 15.09l-50.03 0Z" id="p107w192" />
<path d="M355.94 354.66l8.02 0l0 15.09l-8.02 0Z" id="p107w193" />
<path d="M259.73 371.33l14.59 0l0 15.09l-14.59 0Z" id="p107w194" />
<path d="M288.03 371.33l22.31 0l0 15.09l-22.31 0Z" id="p107w195" />
<path d="M324.05 371.33l24.48 0l0 15.09l-24.48 0Z" id="p107w196" />
<path d="M352.15 371.33l15.06 0l0 15.09l-15.06 0Z" id="p107w197" />
<path d="M259.73 388l41.11 0l0 15.09l-41.11 0Z" id="p107w198" />
<path d="M311.4 388l10.63 0l0 15.09l-10.63 0Z" id="p107w199" />
<path d="M325.64 388l48.99 0l0 15.09l-48.99 0Z" id="p107w200" />
<path d="M259.73 404.67l19.79 0l0 15.09l-19.79 0Z" id="p107w201" />
<path d="M283.13 404.67l24.93 0l0 15.09l-24.93 0Z" id="p107w202" />
<path d="M311.67 404.67l15.89 0l0 15.09l-15.89 0Z" id="p107w203" />
<path d="M331.17 404.67l57.54 0l0 15.09l-57.54 0Z" id="p107w204" />
<path d="M259.73 421.34l31.85 0l0 15.09l-31.85 0Z" id="p107w205" />
<path d="M295.19 421.34l11.26 0l0 15.09l-11.26 0Z" id="p107w206" />
<path d="M310.06 421.34l10.54 0l0 15.09l-10.54 0Z" id="p107w207" />
<path d="M324.21 421.34l33.12 0l0 15.09l-33.12 0Z" id="p107w208" />
<path d="M360.94 421.34l14.59 0l0 15.09l-14.59 0Z" id="p107w209" />
<path d="M259.73 438.01l43.21 0l0 15.09l-43.21 0Z" id="p107w210" />
<path d="M306.55 438.01l25.69 0l0 15.09l-25.69 0Z" id="p107w211" />
<path d="M259.73 454.68l56.7 0l0 15.09l-56.7 0Z" id="p107w212" />
<path d="M320.04 454.68l13.91 0l0 15.09l-13.91 0Z" id="p107w213" />
<path d="M337.56 454.68l30.02 0l0 15.09l-30.02 0Z" id="p107w214" />
</svg>
