<?xml version="1.0" encoding="UTF-8"?>
<svg xmlns="http://www.w3.org/2000/svg" xmlns:xlink="http://www.w3.org/1999/xlink" version="1.1" baseProfile="full" width="768" height="1024" viewBox="0,0,768,1024" preserveAspectRatio="xMinYMin meet" >
<style type="text/css">
<![CDATA[
path {fill-opacity: 0.5;fill: #00aeef;visibility: hidden;}
]]>
</style>
<path d="M123.5 104.82l99.05 0l0 23.34l-99.05 0Z" id="p62w1" />
<path d="M227.62 104.82l37.64 0l0 23.34l-37.64 0Z" id="p62w2" />
<path d="M270.34 104.82l43.12 0l0 23.34l-43.12 0Z" id="p62w3" />
<path d="M318.54 104.82l121.49 0l0 23.34l-121.49 0Z" id="p62w4" />
<path d="M406.65 163.98l15.55 0l0 15.06l-15.55 0Z" id="p62w5" />
<path d="M425.73 163.98l28.27 0l0 15.06l-28.27 0Z" id="p62w6" />
<path d="M457.54 163.98l64.45 0l0 15.06l-64.45 0Z" id="p62w7" />
<path d="M535.6 163.98l54.56 0l0 15.06l-54.56 0Z" id="p62w8" />
<path d="M593.69 163.98l10.54 0l0 15.06l-10.54 0Z" id="p62w9" />
<path d="M607.77 163.98l60.22 0l0 15.06l-60.22 0Z" id="p62w10" />
<path d="M406.65 180.58l37.71 0l0 15.09l-37.71 0Z" id="p62w11" />
<path d="M447.97 180.58l28.33 0l0 15.09l-28.33 0Z" id="p62w12" />
<path d="M487.04 180.58l21 0l0 15.09l-21 0Z" id="p62w13" />
<path d="M511.65 180.58l25.65 0l0 15.09l-25.65 0Z" id="p62w14" />
<path d="M540.91 180.58l39.93 0l0 15.09l-39.93 0Z" id="p62w15" />
<path d="M584.45 180.58l14.59 0l0 15.09l-14.59 0Z" id="p62w16" />
<path d="M602.65 180.58l32.23 0l0 15.09l-32.23 0Z" id="p62w17" />
<path d="M638.5 180.58l10.5 0l0 15.09l-10.5 0Z" id="p62w18" />
<path d="M406.65 197.25l54.36 0l0 15.09l-54.36 0Z" id="p62w19" />
<path d="M464.62 197.25l37.77 0l0 15.09l-37.77 0Z" id="p62w20" />
<path d="M502.39 197.25l33.81 0l0 15.09l-33.81 0Z" id="p62w21" />
<path d="M539.82 197.25l14.86 0l0 15.09l-14.86 0Z" id="p62w22" />
<path d="M558.29 197.25l36.53 0l0 15.09l-36.53 0Z" id="p62w23" />
<path d="M623.28 197.25l69.23 0l0 15.09l-69.23 0Z" id="p62w24" />
<path d="M406.65 213.92l63.24 0l0 15.09l-63.24 0Z" id="p62w25" />
<path d="M473.5 213.92l11.26 0l0 15.09l-11.26 0Z" id="p62w26" />
<path d="M488.37 213.92l14.86 0l0 15.09l-14.86 0Z" id="p62w27" />
<path d="M506.84 213.92l28.84 0l0 15.09l-28.84 0Z" id="p62w28" />
<path d="M539.29 213.92l25.94 0l0 15.09l-25.94 0Z" id="p62w29" />
<path d="M568.84 213.92l19.29 0l0 15.09l-19.29 0Z" id="p62w30" />
<path d="M591.74 213.92l55.15 0l0 15.09l-55.15 0Z" id="p62w31" />
<path d="M650.5 213.92l19.84 0l0 15.09l-19.84 0Z" id="p62w32" />
<path d="M673.95 213.92l19.29 0l0 15.09l-19.29 0Z" id="p62w33" />
<path d="M406.65 230.59l47.19 0l0 15.09l-47.19 0Z" id="p62w34" />
<path d="M457.45 230.59l65.11 0l0 15.09l-65.11 0Z" id="p62w35" />
<path d="M526.17 230.59l48.18 0l0 15.09l-48.18 0Z" id="p62w36" />
<path d="M577.96 230.59l15.74 0l0 15.09l-15.74 0Z" id="p62w37" />
<path d="M597.32 230.59l18.07 0l0 15.09l-18.07 0Z" id="p62w38" />
<path d="M619 230.59l10.42 0l0 15.09l-10.42 0Z" id="p62w39" />
<path d="M633.03 230.59l25.01 0l0 15.09l-25.01 0Z" id="p62w40" />
<path d="M406.65 247.26l46.77 0l0 15.09l-46.77 0Z" id="p62w41" />
<path d="M457.03 247.26l19.29 0l0 15.09l-19.29 0Z" id="p62w42" />
<path d="M479.93 247.26l71.08 0l0 15.09l-71.08 0Z" id="p62w43" />
<path d="M554.62 247.26l51.43 0l0 15.09l-51.43 0Z" id="p62w44" />
<path d="M609.67 247.26l11.26 0l0 15.09l-11.26 0Z" id="p62w45" />
<path d="M624.54 247.26l19.29 0l0 15.09l-19.29 0Z" id="p62w46" />
<path d="M406.65 263.93l63.24 0l0 15.09l-63.24 0Z" id="p62w47" />
<path d="M473.5 263.93l86.24 0l0 15.09l-86.24 0Z" id="p62w48" />
<path d="M406.65 280.59l33.36 0l0 15.09l-33.36 0Z" id="p62w49" />
<path d="M443.62 280.59l48.7 0l0 15.09l-48.7 0Z" id="p62w50" />
<path d="M506.03 280.59l62.7 0l0 15.09l-62.7 0Z" id="p62w51" />
<path d="M572.35 280.59l26.5 0l0 15.09l-26.5 0Z" id="p62w52" />
<path d="M602.46 280.59l55.15 0l0 15.09l-55.15 0Z" id="p62w53" />
<path d="M661.22 280.59l13.91 0l0 15.09l-13.91 0Z" id="p62w54" />
<path d="M406.65 297.26l54.36 0l0 15.09l-54.36 0Z" id="p62w55" />
<path d="M471.75 297.26l25.76 0l0 15.09l-25.76 0Z" id="p62w56" />
<path d="M501.12 297.26l68.9 0l0 15.09l-68.9 0Z" id="p62w57" />
<path d="M582.72 297.26l53.44 0l0 15.09l-53.44 0Z" id="p62w58" />
<path d="M639.77 297.26l36.28 0l0 15.09l-36.28 0Z" id="p62w59" />
<path d="M406.65 313.93l34.51 0l0 15.09l-34.51 0Z" id="p62w60" />
<path d="M444.77 313.93l54.36 0l0 15.09l-54.36 0Z" id="p62w61" />
<path d="M511.83 313.93l60.55 0l0 15.09l-60.55 0Z" id="p62w62" />
<path d="M575.98 313.93l25.69 0l0 15.09l-25.69 0Z" id="p62w63" />
<path d="M605.28 313.93l39.97 0l0 15.09l-39.97 0Z" id="p62w64" />
<path d="M648.87 313.93l40.87 0l0 15.09l-40.87 0Z" id="p62w65" />
<path d="M406.65 330.6l11.26 0l0 15.09l-11.26 0Z" id="p62w66" />
<path d="M421.52 330.6l28.75 0l0 15.09l-28.75 0Z" id="p62w67" />
<path d="M135.88 380.69l18.21 0l0 15.06l-18.21 0Z" id="p62w68" />
<path d="M157.63 380.69l19.8 0l0 15.06l-19.8 0Z" id="p62w69" />
<path d="M180.97 380.69l23.96 0l0 15.06l-23.96 0Z" id="p62w70" />
<path d="M208.46 380.69l38.44 0l0 15.06l-38.44 0Z" id="p62w71" />
<path d="M260.51 380.69l28.49 0l0 15.06l-28.49 0Z" id="p62w72" />
<path d="M292.53 380.69l11.3 0l0 15.06l-11.3 0Z" id="p62w73" />
<path d="M307.36 380.69l14.23 0l0 15.06l-14.23 0Z" id="p62w74" />
<path d="M325.13 380.69l10.54 0l0 15.06l-10.54 0Z" id="p62w75" />
<path d="M339.2 380.69l29.16 0l0 15.06l-29.16 0Z" id="p62w76" />
<path d="M371.89 380.69l38.29 0l0 15.06l-38.29 0Z" id="p62w77" />
<path d="M413.71 380.62l27.18 0l0 15.09l-27.18 0Z" id="p62w78" />
<path d="M135.88 397.29l47.42 0l0 15.09l-47.42 0Z" id="p62w79" />
<path d="M186.92 397.29l40.6 0l0 15.09l-40.6 0Z" id="p62w80" />
<path d="M231.13 397.29l27.08 0l0 15.09l-27.08 0Z" id="p62w81" />
<path d="M261.82 397.29l10.54 0l0 15.09l-10.54 0Z" id="p62w82" />
<path d="M275.97 397.29l47.39 0l0 15.09l-47.39 0Z" id="p62w83" />
<path d="M326.96 397.29l10.42 0l0 15.09l-10.42 0Z" id="p62w84" />
<path d="M341 397.29l17.14 0l0 15.09l-17.14 0Z" id="p62w85" />
<path d="M371.86 397.29l28.22 0l0 15.09l-28.22 0Z" id="p62w86" />
<path d="M403.69 397.29l52.28 0l0 15.09l-52.28 0Z" id="p62w87" />
<path d="M459.58 397.29l11.26 0l0 15.09l-11.26 0Z" id="p62w88" />
<path d="M135.88 413.96l42.73 0l0 15.09l-42.73 0Z" id="p62w89" />
<path d="M182.23 413.96l22.03 0l0 15.09l-22.03 0Z" id="p62w90" />
<path d="M207.86 413.96l35.86 0l0 15.09l-35.86 0Z" id="p62w91" />
<path d="M247.33 413.96l36.44 0l0 15.09l-36.44 0Z" id="p62w92" />
<path d="M287.38 413.96l38.5 0l0 15.09l-38.5 0Z" id="p62w93" />
<path d="M329.5 413.96l62.23 0l0 15.09l-62.23 0Z" id="p62w94" />
<path d="M395.34 413.96l31.87 0l0 15.09l-31.87 0Z" id="p62w95" />
<path d="M430.82 413.96l13.91 0l0 15.09l-13.91 0Z" id="p62w96" />
<path d="M135.88 430.63l33.44 0l0 15.09l-33.44 0Z" id="p62w97" />
<path d="M172.93 430.63l27.23 0l0 15.09l-27.23 0Z" id="p62w98" />
<path d="M203.78 430.63l15.74 0l0 15.09l-15.74 0Z" id="p62w99" />
<path d="M223.13 430.63l30.86 0l0 15.09l-30.86 0Z" id="p62w100" />
<path d="M257.6 430.63l26.03 0l0 15.09l-26.03 0Z" id="p62w101" />
<path d="M287.24 430.63l11.26 0l0 15.09l-11.26 0Z" id="p62w102" />
<path d="M302.11 430.63l22.12 0l0 15.09l-22.12 0Z" id="p62w103" />
<path d="M327.84 430.63l39.17 0l0 15.09l-39.17 0Z" id="p62w104" />
<path d="M370.62 430.63l46.19 0l0 15.09l-46.19 0Z" id="p62w105" />
<path d="M420.42 430.63l25.69 0l0 15.09l-25.69 0Z" id="p62w106" />
<path d="M449.73 430.63l19.29 0l0 15.09l-19.29 0Z" id="p62w107" />
<path d="M135.88 447.3l27.81 0l0 15.09l-27.81 0Z" id="p62w108" />
<path d="M167.3 447.3l19.01 0l0 15.09l-19.01 0Z" id="p62w109" />
<path d="M189.92 447.3l46.92 0l0 15.09l-46.92 0Z" id="p62w110" />
<path d="M240.46 447.3l24.37 0l0 15.09l-24.37 0Z" id="p62w111" />
<path d="M278.54 447.3l60.01 0l0 15.09l-60.01 0Z" id="p62w112" />
<path d="M342.16 447.3l14.32 0l0 15.09l-14.32 0Z" id="p62w113" />
<path d="M360.08 447.3l10.4 0l0 15.09l-10.4 0Z" id="p62w114" />
<path d="M374.09 447.3l56.7 0l0 15.09l-56.7 0Z" id="p62w115" />
<path d="M434.41 447.3l34.12 0l0 15.09l-34.12 0Z" id="p62w116" />
<path d="M135.88 463.97l11.26 0l0 15.09l-11.26 0Z" id="p62w117" />
<path d="M150.75 463.97l7.84 0l0 15.09l-7.84 0Z" id="p62w118" />
<path d="M182.61 463.97l15.74 0l0 15.09l-15.74 0Z" id="p62w119" />
<path d="M201.97 463.97l18.07 0l0 15.09l-18.07 0Z" id="p62w120" />
<path d="M223.65 463.97l10.54 0l0 15.09l-10.54 0Z" id="p62w121" />
<path d="M237.8 463.97l18.6 0l0 15.09l-18.6 0Z" id="p62w122" />
<path d="M260.01 463.97l22.4 0l0 15.09l-22.4 0Z" id="p62w123" />
<path d="M286.02 463.97l44.38 0l0 15.09l-44.38 0Z" id="p62w124" />
<path d="M340.96 463.97l44.75 0l0 15.09l-44.75 0Z" id="p62w125" />
<path d="M389.32 463.97l24.92 0l0 15.09l-24.92 0Z" id="p62w126" />
<path d="M417.85 463.97l13.91 0l0 15.09l-13.91 0Z" id="p62w127" />
<path d="M135.88 480.64l69.88 0l0 15.09l-69.88 0Z" id="p62w128" />
<path d="M219.47 480.64l40.84 0l0 15.09l-40.84 0Z" id="p62w129" />
<path d="M263.93 480.64l17.38 0l0 15.09l-17.38 0Z" id="p62w130" />
<path d="M295.22 480.64l38.17 0l0 15.09l-38.17 0Z" id="p62w131" />
<path d="M337 480.64l56.7 0l0 15.09l-56.7 0Z" id="p62w132" />
<path d="M397.32 480.64l65.71 0l0 15.09l-65.71 0Z" id="p62w133" />
<path d="M135.88 497.3l11.26 0l0 15.09l-11.26 0Z" id="p62w134" />
<path d="M150.75 497.3l28.89 0l0 15.09l-28.89 0Z" id="p62w135" />
<path d="M183.25 497.3l56.7 0l0 15.09l-56.7 0Z" id="p62w136" />
<path d="M243.57 497.3l13.91 0l0 15.09l-13.91 0Z" id="p62w137" />
<path d="M261.08 497.3l51.81 0l0 15.09l-51.81 0Z" id="p62w138" />
<path d="M316.5 497.3l11.26 0l0 15.09l-11.26 0Z" id="p62w139" />
<path d="M331.37 497.3l26.3 0l0 15.09l-26.3 0Z" id="p62w140" />
<path d="M361.28 497.3l15.74 0l0 15.09l-15.74 0Z" id="p62w141" />
<path d="M380.63 497.3l47.53 0l0 15.09l-47.53 0Z" id="p62w142" />
<path d="M431.77 497.3l22.03 0l0 15.09l-22.03 0Z" id="p62w143" />
<path d="M135.88 513.97l36.45 0l0 15.09l-36.45 0Z" id="p62w144" />
<path d="M182.89 513.97l53.44 0l0 15.09l-53.44 0Z" id="p62w145" />
<path d="M239.94 513.97l17.93 0l0 15.09l-17.93 0Z" id="p62w146" />
<path d="M261.48 513.97l34.51 0l0 15.09l-34.51 0Z" id="p62w147" />
<path d="M299.6 513.97l54.36 0l0 15.09l-54.36 0Z" id="p62w148" />
<path d="M366.66 513.97l10.63 0l0 15.09l-10.63 0Z" id="p62w149" />
<path d="M380.9 513.97l18.28 0l0 15.09l-18.28 0Z" id="p62w150" />
<path d="M402.79 513.97l10.4 0l0 15.09l-10.4 0Z" id="p62w151" />
<path d="M416.8 513.97l19.46 0l0 15.09l-19.46 0Z" id="p62w152" />
<path d="M439.87 513.97l13.91 0l0 15.09l-13.91 0Z" id="p62w153" />
<path d="M135.88 530.64l61.97 0l0 15.09l-61.97 0Z" id="p62w154" />
<path d="M201.46 530.64l13.91 0l0 15.09l-13.91 0Z" id="p62w155" />
<path d="M218.98 530.64l39.62 0l0 15.09l-39.62 0Z" id="p62w156" />
<path d="M262.22 530.64l11.26 0l0 15.09l-11.26 0Z" id="p62w157" />
<path d="M277.09 530.64l15.89 0l0 15.09l-15.89 0Z" id="p62w158" />
<path d="M296.58 530.64l35.1 0l0 15.09l-35.1 0Z" id="p62w159" />
<path d="M335.29 530.64l18.28 0l0 15.09l-18.28 0Z" id="p62w160" />
<path d="M357.18 530.64l25.23 0l0 15.09l-25.23 0Z" id="p62w161" />
<path d="M386.02 530.64l19.46 0l0 15.09l-19.46 0Z" id="p62w162" />
<path d="M409.09 530.64l34.67 0l0 15.09l-34.67 0Z" id="p62w163" />
<path d="M447.37 530.64l12.22 0l0 15.09l-12.22 0Z" id="p62w164" />
<path d="M463.21 530.64l9.29 0l0 15.09l-9.29 0Z" id="p62w165" />
<path d="M135.88 547.31l17.93 0l0 15.09l-17.93 0Z" id="p62w166" />
<path d="M157.42 547.31l10.5 0l0 15.09l-10.5 0Z" id="p62w167" />
<path d="M171.53 547.31l22.45 0l0 15.09l-22.45 0Z" id="p62w168" />
<path d="M197.6 547.31l15.06 0l0 15.09l-15.06 0Z" id="p62w169" />
<path d="M216.27 547.31l29.59 0l0 15.09l-29.59 0Z" id="p62w170" />
<path d="M249.47 547.31l14.59 0l0 15.09l-14.59 0Z" id="p62w171" />
<path d="M267.67 547.31l41.72 0l0 15.09l-41.72 0Z" id="p62w172" />
<path d="M312.99 547.31l10.54 0l0 15.09l-10.54 0Z" id="p62w173" />
<path d="M327.14 547.31l22.4 0l0 15.09l-22.4 0Z" id="p62w174" />
<path d="M363.26 547.31l24.84 0l0 15.09l-24.84 0Z" id="p62w175" />
<path d="M391.71 547.31l14.59 0l0 15.09l-14.59 0Z" id="p62w176" />
<path d="M409.91 547.31l22.31 0l0 15.09l-22.31 0Z" id="p62w177" />
<path d="M435.83 547.31l33.06 0l0 15.09l-33.06 0ZM135.88 563.98l37.49 0l0 15.09l-37.49 0Z" id="p62w178" />
<path d="M176.98 563.98l15.01 0l0 15.09l-15.01 0Z" id="p62w179" />
<path d="M195.6 563.98l24.3 0l0 15.09l-24.3 0Z" id="p62w180" />
<path d="M230.47 563.98l15.55 0l0 15.09l-15.55 0Z" id="p62w181" />
<path d="M249.63 563.98l54.18 0l0 15.09l-54.18 0Z" id="p62w182" />
<path d="M307.43 563.98l40.45 0l0 15.09l-40.45 0Z" id="p62w183" />
<path d="M351.49 563.98l15.89 0l0 15.09l-15.89 0Z" id="p62w184" />
<path d="M370.98 563.98l59.89 0l0 15.09l-59.89 0Z" id="p62w185" />
<path d="M434.48 563.98l36.85 0l0 15.09l-36.85 0Z" id="p62w186" />
<path d="M135.88 580.65l13.91 0l0 15.09l-13.91 0Z" id="p62w187" />
<path d="M153.4 580.65l10.42 0l0 15.09l-10.42 0Z" id="p62w188" />
<path d="M167.43 580.65l23.98 0l0 15.09l-23.98 0Z" id="p62w189" />
<path d="M195.03 580.65l15.06 0l0 15.09l-15.06 0Z" id="p62w190" />
<path d="M213.7 580.65l29.44 0l0 15.09l-29.44 0Z" id="p62w191" />
<path d="M253.89 580.65l22.12 0l0 15.09l-22.12 0Z" id="p62w192" />
<path d="M279.62 580.65l28.31 0l0 15.09l-28.31 0Z" id="p62w193" />
<path d="M307.93 580.65l11.26 0l0 15.09l-11.26 0Z" id="p62w194" />
<path d="M322.8 580.65l46.19 0l0 15.09l-46.19 0Z" id="p62w195" />
<path d="M372.6 580.65l10.5 0l0 15.09l-10.5 0Z" id="p62w196" />
<path d="M386.71 580.65l56.27 0l0 15.09l-56.27 0Z" id="p62w197" />
<path d="M493.29 605.61l42.91 0l0 15.42l-42.91 0Z" id="p62w198" />
<path d="M558.54 605.61l25.13 0l0 15.42l-25.13 0Z" id="p62w199" />
<path d="M587.39 605.61l31.67 0l0 15.42l-31.67 0Z" id="p62w200" />
<path d="M622.79 605.61l14.9 0l0 15.42l-14.9 0Z" id="p62w201" />
<path d="M641.41 605.61l45.32 0l0 15.42l-45.32 0Z" id="p62w202" />
<path d="M135.88 880.71l47.22 0l0 15.42l-47.22 0Z" id="p62w203" />
<path d="M205.43 880.71l25.13 0l0 15.42l-25.13 0Z" id="p62w204" />
<path d="M234.28 880.71l31.67 0l0 15.42l-31.67 0Z" id="p62w205" />
<path d="M269.68 880.71l47.55 0l0 15.42l-47.55 0Z" id="p62w206" />
<path d="M363.32 655.82l10.64 0l0 15.06l-10.64 0Z" id="p62w207" />
<path d="M377.49 655.82l22.62 0l0 15.06l-22.62 0Z" id="p62w208" />
<path d="M403.65 655.82l62.41 0l0 15.06l-62.41 0Z" id="p62w209" />
<path d="M469.59 655.82l11.3 0l0 15.06l-11.3 0Z" id="p62w210" />
<path d="M484.42 655.82l18.13 0l0 15.06l-18.13 0Z" id="p62w211" />
<path d="M506.09 655.82l48.3 0l0 15.06l-48.3 0Z" id="p62w212" />
<path d="M557.92 655.82l53.94 0l0 15.06l-53.94 0Z" id="p62w213" />
<path d="M615.4 655.75l41.05 0l0 15.09l-41.05 0Z" id="p62w214" />
<path d="M670.16 655.75l12.99 0l0 15.09l-12.99 0Z" id="p62w215" />
<path d="M363.32 672.42l32.82 0l0 15.09l-32.82 0Z" id="p62w216" />
<path d="M399.75 672.42l21.42 0l0 15.09l-21.42 0Z" id="p62w217" />
<path d="M424.79 672.42l51.41 0l0 15.09l-51.41 0Z" id="p62w218" />
<path d="M479.81 672.42l22.21 0l0 15.09l-22.21 0Z" id="p62w219" />
<path d="M505.63 672.42l22.4 0l0 15.09l-22.4 0Z" id="p62w220" />
<path d="M531.64 672.42l28.06 0l0 15.09l-28.06 0Z" id="p62w221" />
<path d="M563.31 672.42l7.84 0l0 15.09l-7.84 0Z" id="p62w222" />
<path d="M595.17 672.42l25.4 0l0 15.09l-25.4 0Z" id="p62w223" />
<path d="M624.17 672.42l19.89 0l0 15.09l-19.89 0Z" id="p62w224" />
<path d="M647.68 672.42l27.82 0l0 15.09l-27.82 0Z" id="p62w225" />
<path d="M363.32 689.09l30.55 0l0 15.09l-30.55 0Z" id="p62w226" />
<path d="M407.58 689.09l57.92 0l0 15.09l-57.92 0Z" id="p62w227" />
<path d="M469.12 689.09l14.86 0l0 15.09l-14.86 0Z" id="p62w228" />
<path d="M487.58 689.09l10.54 0l0 15.09l-10.54 0Z" id="p62w229" />
<path d="M501.73 689.09l47.94 0l0 15.09l-47.94 0Z" id="p62w230" />
<path d="M563.38 689.09l10.42 0l0 15.09l-10.42 0Z" id="p62w231" />
<path d="M577.42 689.09l73.45 0l0 15.09l-73.45 0Z" id="p62w232" />
<path d="M363.32 705.76l73.29 0l0 15.09l-73.29 0Z" id="p62w233" />
<path d="M363.32 722.43l17.79 0l0 15.09l-17.79 0Z" id="p62w234" />
<path d="M384.72 722.43l41.73 0l0 15.09l-41.73 0Z" id="p62w235" />
<path d="M430.06 722.43l11.26 0l0 15.09l-11.26 0Z" id="p62w236" />
<path d="M444.93 722.43l26.63 0l0 15.09l-26.63 0Z" id="p62w237" />
<path d="M475.17 722.43l28.26 0l0 15.09l-28.26 0Z" id="p62w238" />
<path d="M507.04 722.43l51.1 0l0 15.09l-51.1 0Z" id="p62w239" />
<path d="M561.75 722.43l27.23 0l0 15.09l-27.23 0Z" id="p62w240" />
<path d="M592.6 722.43l10.5 0l0 15.09l-10.5 0Z" id="p62w241" />
<path d="M606.71 722.43l26.98 0l0 15.09l-26.98 0Z" id="p62w242" />
<path d="M633.68 722.43l20.55 0l0 15.09l-20.55 0Z" id="p62w243" />
<path d="M363.32 739.1l58.71 0l0 15.09l-58.71 0Z" id="p62w244" />
<path d="M425.64 739.1l15.09 0l0 15.09l-15.09 0Z" id="p62w245" />
<path d="M444.34 739.1l50.44 0l0 15.09l-50.44 0Z" id="p62w246" />
<path d="M498.39 739.1l26.3 0l0 15.09l-26.3 0Z" id="p62w247" />
<path d="M528.3 739.1l15.74 0l0 15.09l-15.74 0Z" id="p62w248" />
<path d="M547.65 739.1l21.87 0l0 15.09l-21.87 0Z" id="p62w249" />
<path d="M573.14 739.1l22.31 0l0 15.09l-22.31 0Z" id="p62w250" />
<path d="M599.06 739.1l29.55 0l0 15.09l-29.55 0Z" id="p62w251" />
<path d="M632.22 739.1l32.12 0l0 15.09l-32.12 0Z" id="p62w252" />
<path d="M363.32 755.77l33.81 0l0 15.09l-33.81 0Z" id="p62w253" />
<path d="M400.74 755.77l15.64 0l0 15.09l-15.64 0Z" id="p62w254" />
<path d="M420 755.77l50.12 0l0 15.09l-50.12 0Z" id="p62w255" />
<path d="M473.73 755.77l61.48 0l0 15.09l-61.48 0Z" id="p62w256" />
<path d="M538.82 755.77l25.69 0l0 15.09l-25.69 0Z" id="p62w257" />
<path d="M568.13 755.77l19.29 0l0 15.09l-19.29 0Z" id="p62w258" />
<path d="M591.03 755.77l26.86 0l0 15.09l-26.86 0Z" id="p62w259" />
<path d="M621.5 755.77l19.01 0l0 15.09l-19.01 0Z" id="p62w260" />
<path d="M363.32 772.44l60.65 0l0 15.09l-60.65 0Z" id="p62w261" />
<path d="M427.58 772.44l27.23 0l0 15.09l-27.23 0Z" id="p62w262" />
<path d="M458.42 772.44l15.89 0l0 15.09l-15.89 0Z" id="p62w263" />
<path d="M477.92 772.44l67.46 0l0 15.09l-67.46 0Z" id="p62w264" />
<path d="M548.99 772.44l75.52 0l0 15.09l-75.52 0Z" id="p62w265" />
<path d="M635.25 772.44l14.59 0l0 15.09l-14.59 0Z" id="p62w266" />
<path d="M653.45 772.44l23.18 0l0 15.09l-23.18 0Z" id="p62w267" />
<path d="M363.32 789.11l15.15 0l0 15.09l-15.15 0Z" id="p62w268" />
<path d="M382.08 789.11l44.35 0l0 15.09l-44.35 0Z" id="p62w269" />
<path d="M430.05 789.11l21.87 0l0 15.09l-21.87 0Z" id="p62w270" />
<path d="M455.53 789.11l13.91 0l0 15.09l-13.91 0Z" id="p62w271" />
<path d="M473.05 789.11l40.16 0l0 15.09l-40.16 0Z" id="p62w272" />
<path d="M363.32 805.77l36.62 0l0 15.09l-36.62 0Z" id="p62w273" />
<path d="M403.54 805.77l10.42 0l0 15.09l-10.42 0Z" id="p62w274" />
<path d="M417.58 805.77l40.69 0l0 15.09l-40.69 0Z" id="p62w275" />
<path d="M461.88 805.77l13.91 0l0 15.09l-13.91 0Z" id="p62w276" />
<path d="M479.4 805.77l17.14 0l0 15.09l-17.14 0Z" id="p62w277" />
<path d="M500.15 805.77l33.81 0l0 15.09l-33.81 0Z" id="p62w278" />
<path d="M547.68 805.77l17.07 0l0 15.09l-17.07 0Z" id="p62w279" />
<path d="M568.36 805.77l15.55 0l0 15.09l-15.55 0Z" id="p62w280" />
<path d="M587.52 805.77l28.18 0l0 15.09l-28.18 0Z" id="p62w281" />
<path d="M619.32 805.77l43.85 0l0 15.09l-43.85 0Z" id="p62w282" />
<path d="M363.32 822.44l54.36 0l0 15.09l-54.36 0Z" id="p62w283" />
<path d="M421.29 822.44l16.64 0l0 15.09l-16.64 0Z" id="p62w284" />
<path d="M441.55 822.44l51.9 0l0 15.09l-51.9 0Z" id="p62w285" />
<path d="M497.06 822.44l26.3 0l0 15.09l-26.3 0Z" id="p62w286" />
<path d="M526.96 822.44l28.24 0l0 15.09l-28.24 0Z" id="p62w287" />
<path d="M558.81 822.44l27.82 0l0 15.09l-27.82 0Z" id="p62w288" />
<path d="M590.25 822.44l18.52 0l0 15.09l-18.52 0Z" id="p62w289" />
<path d="M612.38 822.44l41.73 0l0 15.09l-41.73 0Z" id="p62w290" />
<path d="M657.72 822.44l19.01 0l0 15.09l-19.01 0Z" id="p62w291" />
<path d="M363.32 839.11l29.86 0l0 15.09l-29.86 0Z" id="p62w292" />
<path d="M396.78 839.11l19.29 0l0 15.09l-19.29 0Z" id="p62w293" />
<path d="M419.69 839.11l51.41 0l0 15.09l-51.41 0Z" id="p62w294" />
<path d="M363.32 855.78l26.45 0l0 15.09l-26.45 0Z" id="p62w295" />
<path d="M393.38 855.78l43.04 0l0 15.09l-43.04 0Z" id="p62w296" />
<path d="M440.03 855.78l42.59 0l0 15.09l-42.59 0Z" id="p62w297" />
<path d="M496.34 855.78l57.92 0l0 15.09l-57.92 0Z" id="p62w298" />
<path d="M557.87 855.78l26.3 0l0 15.09l-26.3 0Z" id="p62w299" />
<path d="M587.78 855.78l10.5 0l0 15.09l-10.5 0Z" id="p62w300" />
<path d="M601.89 855.78l47.53 0l0 15.09l-47.53 0Z" id="p62w301" />
<path d="M653.03 855.78l19.29 0l0 15.09l-19.29 0Z" id="p62w302" />
<path d="M363.32 872.45l30.88 0l0 15.09l-30.88 0Z" id="p62w303" />
<path d="M397.81 872.45l25.69 0l0 15.09l-25.69 0Z" id="p62w304" />
<path d="M427.12 872.45l17.34 0l0 15.09l-17.34 0Z" id="p62w305" />
<path d="M448.06 872.45l32.82 0l0 15.09l-32.82 0Z" id="p62w306" />
<path d="M484.5 872.45l66.21 0l0 15.09l-66.21 0Z" id="p62w307" />
<path d="M561.46 872.45l28.26 0l0 15.09l-28.26 0Z" id="p62w308" />
<path d="M593.33 872.45l34.89 0l0 15.09l-34.89 0Z" id="p62w309" />
<path d="M631.83 872.45l46.19 0l0 15.09l-46.19 0Z" id="p62w310" />
<path d="M363.32 889.12l45.38 0l0 15.09l-45.38 0Z" id="p62w311" />
<path d="M412.31 889.12l10.5 0l0 15.09l-10.5 0Z" id="p62w312" />
<path d="M426.42 889.12l24.73 0l0 15.09l-24.73 0Z" id="p62w313" />
<path d="M454.76 889.12l40.45 0l0 15.09l-40.45 0Z" id="p62w314" />
<path d="M498.82 889.12l10.42 0l0 15.09l-10.42 0Z" id="p62w315" />
<path d="M512.85 889.12l41.6 0l0 15.09l-41.6 0Z" id="p62w316" />
<path d="M558.06 889.12l34.51 0l0 15.09l-34.51 0Z" id="p62w317" />
<path d="M596.18 889.12l17.79 0l0 15.09l-17.79 0Z" id="p62w318" />
<path d="M617.58 889.12l55.12 0l0 15.09l-55.12 0Z" id="p62w319" />
<path d="M363.32 905.79l49.16 0l0 15.09l-49.16 0Z" id="p62w320" />
<path d="M423.22 905.79l19.29 0l0 15.09l-19.29 0Z" id="p62w321" />
<path d="M446.12 905.79l80.02 0l0 15.09l-80.02 0Z" id="p62w322" />
<path d="M529.75 905.79l22.12 0l0 15.09l-22.12 0Z" id="p62w323" />
<path d="M555.48 905.79l40 0l0 15.09l-40 0Z" id="p62w324" />
<path d="M599.09 905.79l53.76 0l0 15.09l-53.76 0Z" id="p62w325" />
<path d="M363.32 922.46l46.19 0l0 15.09l-46.19 0Z" id="p62w326" />
<path d="M53.5 113.29l20.74 0l0 12.3l-20.74 0Z" id="p62w327" />
<path d="M124.06 39.02l42.71 0l0 15.38l-42.71 0Z" id="p62w328" />
<path d="M208.73 38.6l45.75 0l0 16.09l-45.75 0Z" id="p62w329" />
<path d="M306.51 39.02l43.21 0l0 15.38l-43.21 0Z" id="p62w330" />
<path d="M414.03 39.02l28.68 0l0 15.38l-28.68 0Z" id="p62w331" />
<path d="M446.08 39.02l43.54 0l0 15.38l-43.54 0Z" id="p62w332" />
<path d="M522.82 39.02l32.54 0l0 15.38l-32.54 0Z" id="p62w333" />
<path d="M76.9 983l39.39 0l0 12.23l-39.39 0Z" id="p62w334" />
</svg>
