<?xml version="1.0" encoding="UTF-8"?>
<svg xmlns="http://www.w3.org/2000/svg" xmlns:xlink="http://www.w3.org/1999/xlink" version="1.1" baseProfile="full" width="768" height="1024" viewBox="0,0,768,1024" preserveAspectRatio="xMinYMin meet" >
<style type="text/css">
<![CDATA[
path {fill-opacity: 0.5;fill: #00aeef;visibility: hidden;}
]]>
</style>
<path d="M124.06 38.6l71 0l0 16.09l-71 0Z" id="p204w1" />
<path d="M78.77 983.66l71.68 0l0 12.23l-71.68 0Z" id="p204w2" />
<path d="M124.06 104.77l54.73 0l0 24.59l-54.73 0Z" id="p204w3" />
<path d="M304.93 142.52l29.93 0l0 20.58l-29.93 0Z" id="p204w4" />
<path d="M135.64 174.6l27.98 0l0 12.99l-27.98 0Z" id="p204w5" />
<path d="M166.49 174.55l35.19 0l0 13.06l-35.19 0Z" id="p204w6" />
<path d="M204.55 174.6l32.51 0l0 12.99l-32.51 0Z" id="p204w7" />
<path d="M239.93 174.55l17.02 0l0 13.06l-17.02 0Z" id="p204w8" />
<path d="M259.82 174.55l25.95 0l0 13.06l-25.95 0Z" id="p204w9" />
<path d="M288.64 174.55l69.23 0l0 13.06l-69.23 0Z" id="p204w10" />
<path d="M135.64 188.49l21.05 0l0 12.99l-21.05 0Z" id="p204w11" />
<path d="M159.55 188.49l20.11 0l0 12.99l-20.11 0Z" id="p204w12" />
<path d="M182.54 188.49l52.37 0l0 12.99l-52.37 0Z" id="p204w13" />
<path d="M246.63 188.43l12.9 0l0 13.06l-12.9 0Z" id="p204w14" />
<path d="M262.39 188.49l15.32 0l0 12.99l-15.32 0Z" id="p204w15" />
<path d="M280.58 188.49l21.29 0l0 12.99l-21.29 0Z" id="p204w16" />
<path d="M304.75 188.49l47.78 0l0 12.99l-47.78 0Z" id="p204w17" />
<path d="M135.64 202.38l11 0l0 12.99l-11 0Z" id="p204w18" />
<path d="M149.5 202.38l41.13 0l0 12.99l-41.13 0Z" id="p204w19" />
<path d="M193.51 202.32l12.41 0l0 13.06l-12.41 0Z" id="p204w20" />
<path d="M208.79 202.32l11.34 0l0 13.06l-11.34 0Z" id="p204w21" />
<path d="M223 202.38l23.44 0l0 12.99l-23.44 0Z" id="p204w22" />
<path d="M249.31 202.38l22.72 0l0 12.99l-22.72 0Z" id="p204w23" />
<path d="M274.9 202.38l29.8 0l0 12.99l-29.8 0Z" id="p204w24" />
<path d="M135.64 216.27l66.73 0l0 12.99l-66.73 0Z" id="p204w25" />
<path d="M205.23 216.27l18.41 0l0 12.99l-18.41 0Z" id="p204w26" />
<path d="M226.52 216.27l20.09 0l0 12.99l-20.09 0Z" id="p204w27" />
<path d="M249.47 216.27l13.39 0l0 12.99l-13.39 0Z" id="p204w28" />
<path d="M265.74 216.27l30.14 0l0 12.99l-30.14 0Z" id="p204w29" />
<path d="M298.75 216.27l15.31 0l0 12.99l-15.31 0Z" id="p204w30" />
<path d="M316.68 216.27l34.19 0l0 12.99l-34.19 0Z" id="p204w31" />
<path d="M135.64 230.16l31.99 0l0 12.99l-31.99 0Z" id="p204w32" />
<path d="M170.5 230.16l66.5 0l0 12.99l-66.5 0Z" id="p204w33" />
<path d="M124.06 286.17l46.43 0l0 18.44l-46.43 0Z" id="p204w34" />
<path d="M124.06 313.29l10.02 0l0 14.6l-10.02 0Z" id="p204w35" />
<path d="M137.29 313.29l41.3 0l0 14.6l-41.3 0Z" id="p204w36" />
<path d="M181.89 312.05l49.85 0l0 16.35l-49.85 0Z" id="p204w37" />
<path d="M297.36 313.4l41.97 0l0 14.52l-41.97 0Z" id="p204w38" />
<path d="M342.54 313.37l43.78 0l0 14.52l-43.78 0Z" id="p204w39" />
<path d="M389.53 313.37l13.9 0l0 14.52l-13.9 0Z" id="p204w40" />
<path d="M406.63 313.37l32.25 0l0 14.52l-32.25 0Z" id="p204w41" />
<path d="M297.36 330.04l52.15 0l0 14.52l-52.15 0Z" id="p204w42" />
<path d="M124.06 348.14l14.31 0l0 14.6l-14.31 0Z" id="p204w43" />
<path d="M141.58 348.14l31.24 0l0 14.6l-31.24 0Z" id="p204w44" />
<path d="M176.12 346.9l36.73 0l0 16.35l-36.73 0Z" id="p204w45" />
<path d="M297.36 348.22l23.79 0l0 14.52l-23.79 0Z" id="p204w46" />
<path d="M324.35 348.22l34.17 0l0 14.52l-34.17 0Z" id="p204w47" />
<path d="M361.73 348.22l17.11 0l0 14.52l-17.11 0Z" id="p204w48" />
<path d="M382.04 348.22l37.96 0l0 14.52l-37.96 0Z" id="p204w49" />
<path d="M124.06 368.85l14.31 0l0 14.6l-14.31 0Z" id="p204w50" />
<path d="M141.58 368.85l58.29 0l0 14.6l-58.29 0Z" id="p204w51" />
<path d="M124.06 385.52l20.99 0l0 14.6l-20.99 0Z" id="p204w52" />
<path d="M148.26 385.52l59.77 0l0 14.6l-59.77 0Z" id="p204w53" />
<path d="M124.06 400.95l128.31 0l0 16.35l-128.31 0Z" id="p204w54" />
<path d="M297.36 368.93l17.11 0l0 14.52l-17.11 0Z" id="p204w55" />
<path d="M317.67 368.93l58.35 0l0 14.52l-58.35 0Z" id="p204w56" />
<path d="M297.36 385.6l23.79 0l0 14.52l-23.79 0Z" id="p204w57" />
<path d="M324.35 385.6l63.83 0l0 14.52l-63.83 0Z" id="p204w58" />
<path d="M482.46 368.93l12.83 0l0 14.52l-12.83 0Z" id="p204w59" />
<path d="M498.5 368.93l25.12 0l0 14.52l-25.12 0Z" id="p204w60" />
<path d="M526.83 368.93l13.9 0l0 14.52l-13.9 0Z" id="p204w61" />
<path d="M543.93 368.93l35.28 0l0 14.52l-35.28 0Z" id="p204w62" />
<path d="M582.42 368.93l16.83 0l0 14.52l-16.83 0Z" id="p204w63" />
<path d="M602.46 368.93l54.22 0l0 14.52l-54.22 0Z" id="p204w64" />
<path d="M491.11 385.62l17.62 0l0 14.61l-17.62 0Z" id="p204w65" />
<path d="M515.41 385.62l28.59 0l0 14.61l-28.59 0Z" id="p204w66" />
<path d="M124.06 420.33l47.52 0l0 14.6l-47.52 0Z" id="p204w67" />
<path d="M174.79 420.33l32.19 0l0 14.6l-32.19 0Z" id="p204w68" />
<path d="M210.28 419.09l49.11 0l0 16.35l-49.11 0Z" id="p204w69" />
<path d="M297.36 420.41l48.1 0l0 14.52l-48.1 0Z" id="p204w70" />
<path d="M348.66 420.41l68.39 0l0 14.52l-68.39 0Z" id="p204w71" />
<path d="M297.36 437.08l59.87 0l0 14.52l-59.87 0Z" id="p204w72" />
<path d="M500.19 424.73l11.5 0l0 14.61l-11.5 0Z" id="p204w73" />
<path d="M514.89 424.73l36.27 0l0 14.61l-36.27 0Z" id="p204w74" />
<path d="M124.06 455.15l14.31 0l0 14.6l-14.31 0Z" id="p204w75" />
<path d="M141.58 455.15l31.28 0l0 14.6l-31.28 0Z" id="p204w76" />
<path d="M176.07 455.15l61.42 0l0 14.6l-61.42 0Z" id="p204w77" />
<path d="M124.06 470.58l72.41 0l0 16.35l-72.41 0Z" id="p204w78" />
<path d="M297.35 455.26l17.11 0l0 14.52l-17.11 0Z" id="p204w79" />
<path d="M317.67 455.26l63.7 0l0 14.52l-63.7 0Z" id="p204w80" />
<path d="M384.58 455.23l36.07 0l0 14.52l-36.07 0Z" id="p204w81" />
<path d="M482.46 455.23l10.43 0l0 14.52l-10.43 0Z" id="p204w82" />
<path d="M496.1 455.23l44.11 0l0 14.52l-44.11 0Z" id="p204w83" />
<path d="M543.42 455.23l14.18 0l0 14.52l-14.18 0Z" id="p204w84" />
<path d="M560.8 455.23l21.4 0l0 14.52l-21.4 0Z" id="p204w85" />
<path d="M585.4 455.23l60.4 0l0 14.52l-60.4 0Z" id="p204w86" />
<path d="M658.63 455.23l46 0l0 14.52l-46 0Z" id="p204w87" />
<path d="M482.46 471.9l26.73 0l0 14.52l-26.73 0Z" id="p204w88" />
<path d="M512.4 471.9l9.89 0l0 14.52l-9.89 0Z" id="p204w89" />
<path d="M525.49 471.9l31.22 0l0 14.52l-31.22 0Z" id="p204w90" />
<path d="M559.91 471.9l63.09 0l0 14.52l-63.09 0Z" id="p204w91" />
<path d="M124.06 489.97l20.99 0l0 14.6l-20.99 0Z" id="p204w92" />
<path d="M148.25 489.97l34.57 0l0 14.6l-34.57 0Z" id="p204w93" />
<path d="M186.12 488.73l46.62 0l0 16.35l-46.62 0Z" id="p204w94" />
<path d="M297.35 490.05l17.11 0l0 14.52l-17.11 0Z" id="p204w95" />
<path d="M317.67 490.05l34.23 0l0 14.52l-34.23 0Z" id="p204w96" />
<path d="M482.46 490.05l6.96 0l0 14.52l-6.96 0Z" id="p204w97" />
<path d="M511.61 490.05l54.55 0l0 14.52l-54.55 0Z" id="p204w98" />
<path d="M569.37 490.05l13.9 0l0 14.52l-13.9 0Z" id="p204w99" />
<path d="M586.47 490.05l39.56 0l0 14.52l-39.56 0Z" id="p204w100" />
<path d="M629.24 490.05l13.9 0l0 14.52l-13.9 0Z" id="p204w101" />
<path d="M646.34 490.05l33.94 0l0 14.52l-33.94 0Z" id="p204w102" />
<path d="M482.46 506.72l9.89 0l0 14.52l-9.89 0Z" id="p204w103" />
<path d="M495.55 506.72l44.65 0l0 14.52l-44.65 0Z" id="p204w104" />
<path d="M124.06 524.79l10.02 0l0 14.6l-10.02 0Z" id="p204w105" />
<path d="M137.29 524.79l57.68 0l0 14.6l-57.68 0Z" id="p204w106" />
<path d="M198.27 523.55l48.75 0l0 16.35l-48.75 0Z" id="p204w107" />
<path d="M297.35 524.87l18.44 0l0 14.52l-18.44 0Z" id="p204w108" />
<path d="M319 524.87l45.66 0l0 14.52l-45.66 0Z" id="p204w109" />
<path d="M482.46 524.87l13.9 0l0 14.52l-13.9 0Z" id="p204w110" />
<path d="M499.57 524.87l24.33 0l0 14.52l-24.33 0Z" id="p204w111" />
<path d="M527.1 524.87l15.5 0l0 14.52l-15.5 0Z" id="p204w112" />
<path d="M545.8 524.87l50.62 0l0 14.52l-50.62 0Z" id="p204w113" />
<path d="M599.63 524.87l13.9 0l0 14.52l-13.9 0Z" id="p204w114" />
<path d="M616.74 524.87l59.87 0l0 14.52l-59.87 0Z" id="p204w115" />
<path d="M124.06 545.5l20.99 0l0 14.6l-20.99 0Z" id="p204w116" />
<path d="M148.25 545.5l41.17 0l0 14.6l-41.17 0Z" id="p204w117" />
<path d="M192.72 544.26l51.95 0l0 16.35l-51.95 0Z" id="p204w118" />
<path d="M297.35 545.58l17.11 0l0 14.52l-17.11 0Z" id="p204w119" />
<path d="M317.4 545.58l20.49 0l0 14.52l-20.49 0Z" id="p204w120" />
<path d="M482.46 545.58l12.41 0l0 14.52l-12.41 0Z" id="p204w121" />
<path d="M498.08 545.58l12.29 0l0 14.52l-12.29 0Z" id="p204w122" />
<path d="M513.57 545.58l13.11 0l0 14.52l-13.11 0Z" id="p204w123" />
<path d="M529.89 545.58l19.51 0l0 14.52l-19.51 0Z" id="p204w124" />
<path d="M552.6 545.58l46.5 0l0 14.52l-46.5 0Z" id="p204w125" />
<path d="M602.31 545.58l13.63 0l0 14.52l-13.63 0Z" id="p204w126" />
<path d="M619.15 545.58l41.97 0l0 14.52l-41.97 0Z" id="p204w127" />
<path d="M500.19 562.27l47.37 0l0 14.61l-47.37 0Z" id="p204w128" />
<path d="M124.06 580.32l10.02 0l0 14.6l-10.02 0Z" id="p204w129" />
<path d="M137.29 580.32l25.94 0l0 14.6l-25.94 0Z" id="p204w130" />
<path d="M166.43 580.32l14.28 0l0 14.6l-14.28 0Z" id="p204w131" />
<path d="M183.92 580.32l39.03 0l0 14.6l-39.03 0Z" id="p204w132" />
<path d="M124.06 595.75l69.75 0l0 16.35l-69.75 0Z" id="p204w133" />
<path d="M297.35 580.4l19.51 0l0 14.52l-19.51 0Z" id="p204w134" />
<path d="M320.07 580.4l28.07 0l0 14.52l-28.07 0Z" id="p204w135" />
<path d="M351.35 580.4l18.44 0l0 14.52l-18.44 0Z" id="p204w136" />
<path d="M372.74 580.4l25.12 0l0 14.52l-25.12 0Z" id="p204w137" />
<path d="M482.46 580.4l27.8 0l0 14.52l-27.8 0Z" id="p204w138" />
<path d="M513.47 580.4l12.57 0l0 14.52l-12.57 0Z" id="p204w139" />
<path d="M529.24 580.4l38.96 0l0 14.52l-38.96 0Z" id="p204w140" />
<path d="M571.41 580.4l6.41 0l0 14.52l-6.41 0Z" id="p204w141" />
<path d="M581.03 580.4l15.51 0l0 14.52l-15.51 0Z" id="p204w142" />
<path d="M609.64 580.4l24.33 0l0 14.52l-24.33 0Z" id="p204w143" />
<path d="M637.17 580.4l26.19 0l0 14.52l-26.19 0Z" id="p204w144" />
<path d="M482.46 597.07l49.71 0l0 14.52l-49.71 0Z" id="p204w145" />
<path d="M535.38 597.07l9.89 0l0 14.52l-9.89 0Z" id="p204w146" />
<path d="M548.47 597.07l25.67 0l0 14.52l-25.67 0Z" id="p204w147" />
<path d="M577.35 597.07l14.18 0l0 14.52l-14.18 0Z" id="p204w148" />
<path d="M594.73 597.07l41.71 0l0 14.52l-41.71 0Z" id="p204w149" />
<path d="M127.4 615.18l52.51 0l0 14.6l-52.51 0Z" id="p204w150" />
<path d="M208.23 613.94l37.16 0l0 16.35l-37.16 0Z" id="p204w151" />
<path d="M297.35 615.22l18.44 0l0 14.52l-18.44 0Z" id="p204w152" />
<path d="M319 615.22l37.14 0l0 14.52l-37.14 0Z" id="p204w153" />
<path d="M500.19 619.54l55.77 0l0 14.61l-55.77 0Z" id="p204w154" />
<path d="M580.1 619.54l43.21 0l0 14.61l-43.21 0Z" id="p204w155" />
<path d="M124.06 637.59l14.31 0l0 14.6l-14.31 0Z" id="p204w156" />
<path d="M141.57 637.59l31.02 0l0 14.6l-31.02 0Z" id="p204w157" />
<path d="M175.89 636.35l41.68 0l0 16.35l-41.68 0Z" id="p204w158" />
<path d="M297.35 637.7l17.11 0l0 14.52l-17.11 0Z" id="p204w159" />
<path d="M317.67 637.7l28.07 0l0 14.52l-28.07 0Z" id="p204w160" />
<path d="M348.95 637.67l72.19 0l0 14.52l-72.19 0Z" id="p204w161" />
<path d="M297.35 654.34l68.69 0l0 14.52l-68.69 0Z" id="p204w162" />
<path d="M482.46 637.58l67.91 0l0 14.61l-67.91 0Z" id="p204w163" />
<path d="M553.58 637.58l14.16 0l0 14.61l-14.16 0Z" id="p204w164" />
<path d="M570.95 637.58l33.08 0l0 14.61l-33.08 0Z" id="p204w165" />
<path d="M607.33 636.26l47.91 0l0 16.35l-47.91 0Z" id="p204w166" />
<path d="M124.06 672.48l6.07 0l0 14.6l-6.07 0Z" id="p204w167" />
<path d="M130.13 672.48l27.86 0l0 14.6l-27.86 0Z" id="p204w168" />
<path d="M186.32 671.24l34.03 0l0 16.35l-34.03 0Z" id="p204w169" />
<path d="M297.35 672.52l18.44 0l0 14.52l-18.44 0Z" id="p204w170" />
<path d="M318.74 672.52l37.14 0l0 14.52l-37.14 0Z" id="p204w171" />
<path d="M482.46 672.44l13.78 0l0 14.6l-13.78 0Z" id="p204w172" />
<path d="M499.45 672.52l59.87 0l0 14.61l-59.87 0Z" id="p204w173" />
<path d="M562.35 672.44l13.9 0l0 14.6l-13.9 0Z" id="p204w174" />
<path d="M579.46 672.52l20.58 0l0 14.61l-20.58 0Z" id="p204w175" />
<path d="M603.07 672.44l13.9 0l0 14.6l-13.9 0Z" id="p204w176" />
<path d="M620.18 672.52l52.59 0l0 14.61l-52.59 0Z" id="p204w177" />
<path d="M482.46 689.11l13.9 0l0 14.6l-13.9 0Z" id="p204w178" />
<path d="M499.57 689.19l27.53 0l0 14.61l-27.53 0Z" id="p204w179" />
<path d="M500.19 705.86l48.64 0l0 14.61l-48.64 0Z" id="p204w180" />
<path d="M124.06 723.92l10.02 0l0 14.6l-10.02 0Z" id="p204w181" />
<path d="M137.29 723.92l39.04 0l0 14.6l-39.04 0Z" id="p204w182" />
<path d="M179.54 723.92l17.46 0l0 14.6l-17.46 0Z" id="p204w183" />
<path d="M200.21 723.92l29.17 0l0 14.6l-29.17 0Z" id="p204w184" />
<path d="M124.06 739.35l75.62 0l0 16.35l-75.62 0Z" id="p204w185" />
<path d="M297.35 723.99l19.51 0l0 14.52l-19.51 0Z" id="p204w186" />
<path d="M320.07 723.99l54.55 0l0 14.52l-54.55 0Z" id="p204w187" />
<path d="M124.06 758.72l10.02 0l0 14.6l-10.02 0Z" id="p204w188" />
<path d="M137.29 758.72l46.74 0l0 14.6l-46.74 0Z" id="p204w189" />
<path d="M187.32 757.48l66.46 0l0 16.35l-66.46 0Z" id="p204w190" />
<path d="M297.35 758.8l18.44 0l0 14.52l-18.44 0Z" id="p204w191" />
<path d="M319 758.8l48.2 0l0 14.52l-48.2 0Z" id="p204w192" />
<path d="M124.06 779.43l37.88 0l0 14.6l-37.88 0Z" id="p204w193" />
<path d="M165.15 779.43l12.67 0l0 14.6l-12.67 0Z" id="p204w194" />
<path d="M181.12 778.19l31.56 0l0 16.35l-31.56 0Z" id="p204w195" />
<path d="M297.35 779.51l23.09 0l0 14.52l-23.09 0Z" id="p204w196" />
<path d="M323.65 779.51l38.16 0l0 14.52l-38.16 0Z" id="p204w197" />
<path d="M482.46 779.51l12.41 0l0 14.52l-12.41 0Z" id="p204w198" />
<path d="M498.08 779.51l12.29 0l0 14.52l-12.29 0Z" id="p204w199" />
<path d="M513.57 779.51l23.52 0l0 14.52l-23.52 0Z" id="p204w200" />
<path d="M540.3 779.51l33.68 0l0 14.52l-33.68 0Z" id="p204w201" />
<path d="M577.19 779.51l25.13 0l0 14.52l-25.13 0Z" id="p204w202" />
<path d="M605.53 779.51l9.89 0l0 14.52l-9.89 0Z" id="p204w203" />
<path d="M618.63 779.51l29.61 0l0 14.52l-29.61 0Z" id="p204w204" />
<path d="M501.13 796.2l14.16 0l0 14.61l-14.16 0Z" id="p204w205" />
<path d="M518.51 796.2l42.78 0l0 14.61l-42.78 0Z" id="p204w206" />
<path d="M500.69 812.87l9.82 0l0 14.61l-9.82 0Z" id="p204w207" />
<path d="M513.71 812.87l33.41 0l0 14.61l-33.41 0Z" id="p204w208" />
<path d="M124.06 830.93l124.51 0l0 14.6l-124.51 0Z" id="p204w209" />
<path d="M124.06 846.36l112.08 0l0 16.35l-112.08 0Z" id="p204w210" />
<path d="M297.35 831.01l19.24 0l0 14.52l-19.24 0Z" id="p204w211" />
<path d="M319.8 831.01l41.97 0l0 14.52l-41.97 0Z" id="p204w212" />
<path d="M500.69 830.94l9.89 0l0 14.61l-9.89 0Z" id="p204w213" />
<path d="M513.78 830.94l41.42 0l0 14.61l-41.42 0Z" id="p204w214" />
<path d="M124.06 865.73l14.31 0l0 14.6l-14.31 0Z" id="p204w215" />
<path d="M141.57 865.73l46 0l0 14.6l-46 0Z" id="p204w216" />
<path d="M190.87 864.49l48.61 0l0 16.35l-48.61 0Z" id="p204w217" />
<path d="M297.35 865.81l23.79 0l0 14.52l-23.79 0Z" id="p204w218" />
<path d="M324.34 865.81l61.48 0l0 14.52l-61.48 0Z" id="p204w219" />
<path d="M482.46 865.81l48.68 0l0 14.52l-48.68 0Z" id="p204w220" />
<path d="M534.35 865.81l9.89 0l0 14.52l-9.89 0Z" id="p204w221" />
<path d="M547.44 865.81l45.91 0l0 14.52l-45.91 0Z" id="p204w222" />
<path d="M596.55 865.81l16.83 0l0 14.52l-16.83 0Z" id="p204w223" />
<path d="M616.59 865.81l42.7 0l0 14.52l-42.7 0Z" id="p204w224" />
<path d="M659.29 865.81l23.53 0l0 14.52l-23.53 0Z" id="p204w225" />
<path d="M124.06 886.44l20.99 0l0 14.6l-20.99 0Z" id="p204w226" />
<path d="M148.25 886.44l57.42 0l0 14.6l-57.42 0Z" id="p204w227" />
<path d="M208.97 885.2l57.14 0l0 16.35l-57.14 0Z" id="p204w228" />
<path d="M297.35 886.52l17.11 0l0 14.52l-17.11 0Z" id="p204w229" />
<path d="M317.67 886.52l43.6 0l0 14.52l-43.6 0Z" id="p204w230" />
<path d="M482.46 886.52l37.79 0l0 14.52l-37.79 0Z" id="p204w231" />
<path d="M523.46 886.52l25.38 0l0 14.52l-25.38 0Z" id="p204w232" />
<path d="M552.05 886.52l19.51 0l0 14.52l-19.51 0Z" id="p204w233" />
<path d="M574.76 886.52l65.76 0l0 14.52l-65.76 0Z" id="p204w234" />
<path d="M482.46 903.19l13.9 0l0 14.52l-13.9 0Z" id="p204w235" />
<path d="M499.57 903.19l60.08 0l0 14.52l-60.08 0Z" id="p204w236" />
<path d="M500.19 919.88l53.66 0l0 14.61l-53.66 0Z" id="p204w237" />
</svg>
