<?xml version="1.0" encoding="UTF-8"?>
<svg xmlns="http://www.w3.org/2000/svg" xmlns:xlink="http://www.w3.org/1999/xlink" version="1.1" baseProfile="full" width="768" height="1024" viewBox="0,0,768,1024" preserveAspectRatio="xMinYMin meet" >
<style type="text/css">
<![CDATA[
path {fill-opacity: 0.5;fill: #00aeef;visibility: hidden;}
]]>
</style>
<path d="M572.94 38.6l71 0l0 16.09l-71 0Z" id="p221w1" />
<path d="M602.09 983.66l87.14 0l0 12.23l-87.14 0Z" id="p221w2" />
<path d="M47.26 126.72l13.53 0l0 15.37l-13.53 0Z" id="p221w3" />
<path d="M64.17 126.72l37.24 0l0 15.37l-37.24 0Z" id="p221w4" />
<path d="M115.2 126.72l10.56 0l0 15.37l-10.56 0Z" id="p221w5" />
<path d="M129.14 126.72l43.09 0l0 15.37l-43.09 0Z" id="p221w6" />
<path d="M312.58 407.6l11.39 0l0 16.6l-11.39 0Z" id="p221w7" />
<path d="M327.61 407.6l40.21 0l0 16.6l-40.21 0Z" id="p221w8" />
<path d="M315.04 424.27l11.4 0l0 16.6l-11.4 0Z" id="p221w9" />
<path d="M330.09 424.27l46.53 0l0 16.6l-46.53 0Z" id="p221w10" />
<path d="M49.23 283.18l24.66 0l0 16.6l-24.66 0Z" id="p221w11" />
<path d="M77.19 283.18l20.35 0l0 16.6l-20.35 0Z" id="p221w12" />
<path d="M100.84 283.18l11.59 0l0 16.6l-11.59 0Z" id="p221w13" />
<path d="M194.05 284.13l32.96 0l0 13.06l-32.96 0Z" id="p221w14" />
<path d="M229.88 284.13l11.12 0l0 13.06l-11.12 0Z" id="p221w15" />
<path d="M243.88 284.13l48.26 0l0 13.06l-48.26 0Z" id="p221w16" />
<path d="M194.05 298.02l17.81 0l0 13.06l-17.81 0Z" id="p221w17" />
<path d="M214.73 298.02l39.21 0l0 13.06l-39.21 0Z" id="p221w18" />
<path d="M346.01 284.92l24.91 0l0 13.06l-24.91 0Z" id="p221w19" />
<path d="M373.78 284.92l8.98 0l0 13.06l-8.98 0Z" id="p221w20" />
<path d="M385.63 284.92l43.38 0l0 13.06l-43.38 0Z" id="p221w21" />
<path d="M48.5 434.16l22.95 0l0 13.06l-22.95 0Z" id="p221w22" />
<path d="M74.32 434.16l14.1 0l0 13.06l-14.1 0Z" id="p221w23" />
<path d="M91.29 434.16l37.85 0l0 13.06l-37.85 0Z" id="p221w24" />
<path d="M346.08 655.19l24.46 0l0 13.06l-24.46 0Z" id="p221w25" />
<path d="M373.49 653.11l8.9 0l0 16.6l-8.9 0Z" id="p221w26" />
<path d="M385.68 653.11l25.2 0l0 16.6l-25.2 0Z" id="p221w27" />
<path d="M413.83 654.08l29.6 0l0 14.63l-29.6 0Z" id="p221w28" />
<path d="M48.85 654.42l34.15 0l0 13.06l-34.15 0Z" id="p221w29" />
<path d="M85.88 654.42l8.98 0l0 13.06l-8.98 0Z" id="p221w30" />
<path d="M97.72 654.42l25.6 0l0 13.06l-25.6 0Z" id="p221w31" />
<path d="M493.7 283.38l47.25 0l0 16.6l-47.25 0Z" id="p221w32" />
<path d="M543.9 284.36l45.48 0l0 14.63l-45.48 0Z" id="p221w33" />
<path d="M493.7 297.28l9.73 0l0 16.6l-9.73 0Z" id="p221w34" />
<path d="M506.73 297.28l25.49 0l0 16.6l-25.49 0Z" id="p221w35" />
<path d="M535.51 297.28l13.16 0l0 16.6l-13.16 0Z" id="p221w36" />
<path d="M551.97 297.28l29.82 0l0 16.6l-29.82 0Z" id="p221w37" />
<path d="M495.12 543.19l38.11 0l0 16.6l-38.11 0Z" id="p221w38" />
<path d="M536.53 543.19l63.11 0l0 16.6l-63.11 0Z" id="p221w39" />
<path d="M493.88 655.51l22.95 0l0 13.06l-22.95 0Z" id="p221w40" />
<path d="M519.7 653.42l9.73 0l0 16.6l-9.73 0Z" id="p221w41" />
<path d="M532.73 653.42l46.07 0l0 16.6l-46.07 0Z" id="p221w42" />
<path d="M48.44 544.17l22.95 0l0 13.06l-22.95 0Z" id="p221w43" />
<path d="M74.26 544.17l8.98 0l0 13.06l-8.98 0Z" id="p221w44" />
<path d="M86.1 544.17l34.79 0l0 13.06l-34.79 0Z" id="p221w45" />
<path d="M193.4 653.32l66.97 0l0 16.6l-66.97 0Z" id="p221w46" />
<path d="M263.67 653.32l9.73 0l0 16.6l-9.73 0Z" id="p221w47" />
<path d="M276.7 653.32l28.01 0l0 16.6l-28.01 0Z" id="p221w48" />
<path d="M495.12 419.33l47.25 0l0 16.6l-47.25 0Z" id="p221w49" />
<path d="M545.59 420.31l45.48 0l0 14.63l-45.48 0Z" id="p221w50" />
<path d="M594.29 419.33l9.73 0l0 16.6l-9.73 0Z" id="p221w51" />
<path d="M607.24 419.33l25.51 0l0 16.6l-25.51 0Z" id="p221w52" />
<path d="M495.13 433.23l13.16 0l0 16.6l-13.16 0Z" id="p221w53" />
<path d="M511.59 433.23l20.35 0l0 16.6l-20.35 0Z" id="p221w54" />
<path d="M535.24 433.23l47.23 0l0 16.6l-47.23 0Z" id="p221w55" />
<path d="M59.08 710.09l54.73 0l0 24.59l-54.73 0Z" id="p221w56" />
<path d="M239.95 747.84l29.93 0l0 20.58l-29.93 0Z" id="p221w57" />
<path d="M70.65 779.92l27.98 0l0 12.99l-27.98 0Z" id="p221w58" />
<path d="M101.5 779.92l18.9 0l0 12.99l-18.9 0Z" id="p221w59" />
<path d="M123.03 779.92l55.97 0l0 12.99l-55.97 0Z" id="p221w60" />
<path d="M181.87 779.92l9.33 0l0 12.99l-9.33 0Z" id="p221w61" />
<path d="M194.07 779.86l68.7 0l0 13.06l-68.7 0Z" id="p221w62" />
<path d="M70.65 793.81l40.65 0l0 12.99l-40.65 0Z" id="p221w63" />
<path d="M113.94 793.81l35.41 0l0 12.99l-35.41 0Z" id="p221w64" />
<path d="M152.21 793.81l15.31 0l0 12.99l-15.31 0Z" id="p221w65" />
<path d="M170.39 793.81l11.49 0l0 12.99l-11.49 0Z" id="p221w66" />
<path d="M184.75 793.81l31.08 0l0 12.99l-31.08 0Z" id="p221w67" />
<path d="M218.39 793.81l33.72 0l0 12.99l-33.72 0Z" id="p221w68" />
<path d="M70.65 807.7l41.56 0l0 12.99l-41.56 0Z" id="p221w69" />
<path d="M115.08 807.7l19.14 0l0 12.99l-19.14 0Z" id="p221w70" />
<path d="M137.1 807.7l28.95 0l0 12.99l-28.95 0Z" id="p221w71" />
<path d="M168.91 807.7l13.86 0l0 12.99l-13.86 0Z" id="p221w72" />
<path d="M185.65 807.7l9.33 0l0 12.99l-9.33 0Z" id="p221w73" />
<path d="M197.85 807.64l73.95 0l0 13.06l-73.95 0Z" id="p221w74" />
<path d="M70.65 821.59l17.69 0l0 12.99l-17.69 0Z" id="p221w75" />
<path d="M112.8 821.59l16.03 0l0 12.99l-16.03 0Z" id="p221w76" />
<path d="M59.08 875.74l46.43 0l0 18.44l-46.43 0Z" id="p221w77" />
<path d="M59.08 902.86l10.02 0l0 14.6l-10.02 0Z" id="p221w78" />
<path d="M72.3 902.86l48.31 0l0 14.6l-48.31 0Z" id="p221w79" />
<path d="M123.91 901.62l58.37 0l0 16.35l-58.37 0Z" id="p221w80" />
<path d="M232.37 902.94l18.44 0l0 14.52l-18.44 0Z" id="p221w81" />
<path d="M253.75 902.94l63.75 0l0 14.52l-63.75 0Z" id="p221w82" />
<path d="M417.48 902.94l25.4 0l0 14.52l-25.4 0Z" id="p221w83" />
<path d="M446.08 902.94l16.83 0l0 14.52l-16.83 0Z" id="p221w84" />
<path d="M466.12 902.94l18.72 0l0 14.52l-18.72 0Z" id="p221w85" />
<path d="M488.04 902.94l48.39 0l0 14.52l-48.39 0Z" id="p221w86" />
<path d="M59.08 923.57l50.49 0l0 14.6l-50.49 0Z" id="p221w87" />
<path d="M112.86 922.33l51.57 0l0 16.35l-51.57 0Z" id="p221w88" />
<path d="M232.37 923.65l64.64 0l0 14.52l-64.64 0Z" id="p221w89" />
<path d="M417.48 923.65l26.19 0l0 14.52l-26.19 0Z" id="p221w90" />
<path d="M446.87 923.65l20.85 0l0 14.52l-20.85 0Z" id="p221w91" />
<path d="M470.94 923.65l41.96 0l0 14.52l-41.96 0Z" id="p221w92" />
<path d="M516.1 923.65l19.51 0l0 14.52l-19.51 0Z" id="p221w93" />
<path d="M538.82 923.65l49.99 0l0 14.52l-49.99 0Z" id="p221w94" />
<path d="M444.69 940.34l40.21 0l0 14.61l-40.21 0Z" id="p221w95" />
</svg>
