<?xml version="1.0" encoding="UTF-8"?>
<svg xmlns="http://www.w3.org/2000/svg" xmlns:xlink="http://www.w3.org/1999/xlink" version="1.1" baseProfile="full" width="768" height="1024" viewBox="0,0,768,1024" preserveAspectRatio="xMinYMin meet" >
<style type="text/css">
<![CDATA[
path {fill-opacity: 0.5;fill: #00aeef;visibility: hidden;}
]]>
</style>
<path d="M124.06 107.98l34.63 0l0 18.84l-34.63 0Z" id="p18w1" />
<path d="M162.34 107.98l89.43 0l0 18.84l-89.43 0Z" id="p18w2" />
<path d="M255.42 107.98l13.62 0l0 18.84l-13.62 0Z" id="p18w3" />
<path d="M272.69 107.98l38.39 0l0 18.84l-38.39 0Z" id="p18w4" />
<path d="M135.02 139.19l28.96 0l0 14.52l-28.96 0Z" id="p18w5" />
<path d="M167.18 139.19l19.51 0l0 14.52l-19.51 0Z" id="p18w6" />
<path d="M189.9 139.19l38.5 0l0 14.52l-38.5 0Z" id="p18w7" />
<path d="M241.5 139.19l9.89 0l0 14.52l-9.89 0Z" id="p18w8" />
<path d="M254.59 139.19l27.73 0l0 14.52l-27.73 0Z" id="p18w9" />
<path d="M303 139.19l48.12 0l0 14.52l-48.12 0Z" id="p18w10" />
<path d="M354.34 139.19l15.5 0l0 14.52l-15.5 0Z" id="p18w11" />
<path d="M373.04 139.19l37.41 0l0 14.52l-37.41 0Z" id="p18w12" />
<path d="M413.65 139.19l13.9 0l0 14.52l-13.9 0Z" id="p18w13" />
<path d="M430.76 139.19l9.89 0l0 14.52l-9.89 0Z" id="p18w14" />
<path d="M443.85 139.19l41.97 0l0 14.52l-41.97 0Z" id="p18w15" />
<path d="M489.04 139.19l19.51 0l0 14.52l-19.51 0Z" id="p18w16" />
<path d="M511.75 139.19l37.68 0l0 14.52l-37.68 0Z" id="p18w17" />
<path d="M124.06 164.21l45.92 0l0 14.61l-45.92 0Z" id="p18w18" />
<path d="M173.02 164.21l15.5 0l0 14.61l-15.5 0Z" id="p18w19" />
<path d="M191.72 164.21l34.74 0l0 14.61l-34.74 0Z" id="p18w20" />
<path d="M229.67 164.21l24.33 0l0 14.61l-24.33 0Z" id="p18w21" />
<path d="M257.2 164.21l37.08 0l0 14.61l-37.08 0Z" id="p18w22" />
<path d="M307.31 164.21l9.82 0l0 14.61l-9.82 0Z" id="p18w23" />
<path d="M320.34 164.21l27.71 0l0 14.61l-27.71 0Z" id="p18w24" />
<path d="M351.08 164.21l43.83 0l0 14.61l-43.83 0Z" id="p18w25" />
<path d="M143.75 197.54l50.53 0l0 14.52l-50.53 0Z" id="p18w26" />
<path d="M197.49 197.54l15.5 0l0 14.52l-15.5 0Z" id="p18w27" />
<path d="M216.19 197.54l45.97 0l0 14.52l-45.97 0Z" id="p18w28" />
<path d="M265.37 197.54l39.29 0l0 14.52l-39.29 0Z" id="p18w29" />
<path d="M307.87 197.54l9.89 0l0 14.52l-9.89 0Z" id="p18w30" />
<path d="M320.97 197.54l45.17 0l0 14.52l-45.17 0Z" id="p18w31" />
<path d="M143.75 222.56l25.41 0l0 14.52l-25.41 0Z" id="p18w32" />
<path d="M172.37 222.56l21.38 0l0 14.52l-21.38 0Z" id="p18w33" />
<path d="M196.96 222.56l50.5 0l0 14.52l-50.5 0Z" id="p18w34" />
<path d="M250.67 222.56l32.07 0l0 14.52l-32.07 0Z" id="p18w35" />
<path d="M285.95 222.56l15.5 0l0 14.52l-15.5 0Z" id="p18w36" />
<path d="M304.65 222.56l48.32 0l0 14.52l-48.32 0Z" id="p18w37" />
<path d="M143.75 239.23l12.57 0l0 14.52l-12.57 0Z" id="p18w38" />
<path d="M159.53 239.23l48.11 0l0 14.52l-48.11 0Z" id="p18w39" />
<path d="M220.73 239.23l24.33 0l0 14.52l-24.33 0Z" id="p18w40" />
<path d="M248.27 239.23l31.01 0l0 14.52l-31.01 0Z" id="p18w41" />
<path d="M282.48 239.23l20.85 0l0 14.52l-20.85 0Z" id="p18w42" />
<path d="M311.58 239.23l29.9 0l0 14.52l-29.9 0Z" id="p18w43" />
<path d="M143.75 255.9l14.18 0l0 14.52l-14.18 0Z" id="p18w44" />
<path d="M161.14 255.9l28.07 0l0 14.52l-28.07 0Z" id="p18w45" />
<path d="M192.42 255.9l15.5 0l0 14.52l-15.5 0Z" id="p18w46" />
<path d="M211.12 255.9l48.32 0l0 14.52l-48.32 0Z" id="p18w47" />
<path d="M143.75 272.57l18.44 0l0 14.52l-18.44 0Z" id="p18w48" />
<path d="M165.4 272.57l35 0l0 14.52l-35 0Z" id="p18w49" />
<path d="M203.61 272.57l47.32 0l0 14.52l-47.32 0Z" id="p18w50" />
<path d="M254.14 272.57l20.85 0l0 14.52l-20.85 0Z" id="p18w51" />
<path d="M278.2 272.57l9.89 0l0 14.52l-9.89 0Z" id="p18w52" />
<path d="M291.3 272.57l32.6 0l0 14.52l-32.6 0Z" id="p18w53" />
<path d="M327.11 272.57l50.21 0l0 14.52l-50.21 0Z" id="p18w54" />
<path d="M446.06 222.56l28 0l0 14.52l-28 0Z" id="p18w55" />
<path d="M477.26 222.56l41.62 0l0 14.52l-41.62 0Z" id="p18w56" />
<path d="M522.09 222.56l60.58 0l0 14.52l-60.58 0Z" id="p18w57" />
<path d="M585.88 222.56l30.94 0l0 14.52l-30.94 0Z" id="p18w58" />
<path d="M620.02 222.56l20.82 0l0 14.52l-20.82 0Z" id="p18w59" />
<path d="M649.08 222.56l29.86 0l0 14.52l-29.86 0Z" id="p18w60" />
<path d="M446.03 239.23l25.41 0l0 14.52l-25.41 0Z" id="p18w61" />
<path d="M474.65 239.23l9.89 0l0 14.52l-9.89 0Z" id="p18w62" />
<path d="M487.74 239.23l16.58 0l0 14.52l-16.58 0Z" id="p18w63" />
<path d="M507.53 239.23l13.9 0l0 14.52l-13.9 0Z" id="p18w64" />
<path d="M524.63 239.23l29.94 0l0 14.52l-29.94 0Z" id="p18w65" />
<path d="M557.78 239.23l15.5 0l0 14.52l-15.5 0Z" id="p18w66" />
<path d="M576.48 239.23l48.32 0l0 14.52l-48.32 0Z" id="p18w67" />
<path d="M446.03 255.9l23.79 0l0 14.52l-23.79 0Z" id="p18w68" />
<path d="M473.02 255.9l14.18 0l0 14.52l-14.18 0Z" id="p18w69" />
<path d="M490.41 255.9l32.34 0l0 14.52l-32.34 0Z" id="p18w70" />
<path d="M525.95 255.9l19.51 0l0 14.52l-19.51 0Z" id="p18w71" />
<path d="M548.67 255.9l31.81 0l0 14.52l-31.81 0Z" id="p18w72" />
<path d="M583.69 255.9l13.9 0l0 14.52l-13.9 0Z" id="p18w73" />
<path d="M600.79 255.9l51.05 0l0 14.52l-51.05 0Z" id="p18w74" />
<path d="M446.03 272.57l15.5 0l0 14.52l-15.5 0Z" id="p18w75" />
<path d="M464.74 272.57l48.32 0l0 14.52l-48.32 0Z" id="p18w76" />
<path d="M143.75 297.58l18.72 0l0 14.52l-18.72 0Z" id="p18w77" />
<path d="M165.68 297.58l16.83 0l0 14.52l-16.83 0Z" id="p18w78" />
<path d="M185.71 297.58l43.04 0l0 14.52l-43.04 0Z" id="p18w79" />
<path d="M240.25 297.58l18.72 0l0 14.52l-18.72 0Z" id="p18w80" />
<path d="M262.18 297.58l25.92 0l0 14.52l-25.92 0Z" id="p18w81" />
<path d="M291.31 297.58l19.51 0l0 14.52l-19.51 0Z" id="p18w82" />
<path d="M314.02 297.58l43.04 0l0 14.52l-43.04 0Z" id="p18w83" />
<path d="M143.75 314.25l28.33 0l0 14.52l-28.33 0Z" id="p18w84" />
<path d="M175.29 314.25l52.69 0l0 14.52l-52.69 0Z" id="p18w85" />
<path d="M124.06 347.59l60.88 0l0 14.52l-60.88 0Z" id="p18w86" />
<path d="M188.14 347.59l40.89 0l0 14.52l-40.89 0Z" id="p18w87" />
<path d="M232.24 347.59l14.18 0l0 14.52l-14.18 0Z" id="p18w88" />
<path d="M249.63 347.59l64.08 0l0 14.52l-64.08 0Z" id="p18w89" />
<path d="M329.22 347.59l24.85 0l0 14.52l-24.85 0Z" id="p18w90" />
<path d="M124.06 364.26l14.18 0l0 14.52l-14.18 0Z" id="p18w91" />
<path d="M141.45 364.26l19.51 0l0 14.52l-19.51 0Z" id="p18w92" />
<path d="M164.16 364.26l30.73 0l0 14.52l-30.73 0Z" id="p18w93" />
<path d="M198.1 364.26l13.9 0l0 14.52l-13.9 0Z" id="p18w94" />
<path d="M215.2 364.26l47.33 0l0 14.52l-47.33 0Z" id="p18w95" />
<path d="M265.39 364.26l42.53 0l0 14.52l-42.53 0Z" id="p18w96" />
<path d="M311.12 364.26l19.79 0l0 14.52l-19.79 0Z" id="p18w97" />
<path d="M334.12 364.26l25.13 0l0 14.52l-25.13 0Z" id="p18w98" />
<path d="M124.06 380.93l17.11 0l0 14.52l-17.11 0Z" id="p18w99" />
<path d="M144.38 380.93l9.89 0l0 14.52l-9.89 0Z" id="p18w100" />
<path d="M157.47 380.93l24.33 0l0 14.52l-24.33 0Z" id="p18w101" />
<path d="M194.89 380.93l9.89 0l0 14.52l-9.89 0Z" id="p18w102" />
<path d="M207.98 380.93l27.73 0l0 14.52l-27.73 0Z" id="p18w103" />
<path d="M124.06 458.11l23.83 0l0 18.84l-23.83 0Z" id="p18w104" />
<path d="M151.54 458.11l18.36 0l0 18.84l-18.36 0Z" id="p18w105" />
<path d="M173.54 458.11l37.28 0l0 18.84l-37.28 0Z" id="p18w106" />
<path d="M124.06 489.32l53.22 0l0 14.52l-53.22 0Z" id="p18w107" />
<path d="M180.49 489.32l15.5 0l0 14.52l-15.5 0Z" id="p18w108" />
<path d="M199.19 489.32l28.06 0l0 14.52l-28.06 0Z" id="p18w109" />
<path d="M230.46 489.32l11.22 0l0 14.52l-11.22 0Z" id="p18w110" />
<path d="M244.89 489.32l15.5 0l0 14.52l-15.5 0Z" id="p18w111" />
<path d="M263.59 489.32l65.22 0l0 14.52l-65.22 0Z" id="p18w112" />
<path d="M332.02 489.32l48.48 0l0 14.52l-48.48 0Z" id="p18w113" />
<path d="M148.68 513.34l13.9 0l0 14.52l-13.9 0Z" id="p18w114" />
<path d="M165.78 513.34l25.4 0l0 14.52l-25.4 0Z" id="p18w115" />
<path d="M271.95 513.34l52.67 0l0 14.52l-52.67 0Z" id="p18w116" />
<path d="M431.26 513.34l52.93 0l0 14.52l-52.93 0Z" id="p18w117" />
<path d="M487.4 513.34l41.43 0l0 14.52l-41.43 0Z" id="p18w118" />
<path d="M532.04 513.34l12.29 0l0 14.52l-12.29 0Z" id="p18w119" />
<path d="M547.53 513.34l33.96 0l0 14.52l-33.96 0Z" id="p18w120" />
<path d="M632.12 513.34l68.16 0l0 14.52l-68.16 0Z" id="p18w121" />
<path d="M148.68 546.69l14.18 0l0 14.52l-14.18 0Z" id="p18w122" />
<path d="M166.06 546.69l55.86 0l0 14.52l-55.86 0Z" id="p18w123" />
<path d="M271.95 546.69l15.5 0l0 14.52l-15.5 0Z" id="p18w124" />
<path d="M290.65 546.69l84.3 0l0 14.52l-84.3 0Z" id="p18w125" />
<path d="M431.26 546.69l24.05 0l0 14.52l-24.05 0Z" id="p18w126" />
<path d="M458.52 546.69l13.9 0l0 14.52l-13.9 0Z" id="p18w127" />
<path d="M124.06 599.83l20.06 0l0 18.84l-20.06 0Z" id="p18w128" />
<path d="M147.77 599.83l66.11 0l0 18.84l-66.11 0Z" id="p18w129" />
<path d="M217.53 599.83l46.92 0l0 18.84l-46.92 0Z" id="p18w130" />
<path d="M268.1 599.83l31.53 0l0 18.84l-31.53 0Z" id="p18w131" />
<path d="M315.77 599.83l39.75 0l0 18.84l-39.75 0Z" id="p18w132" />
<path d="M359.36 599.83l18.69 0l0 18.84l-18.69 0Z" id="p18w133" />
<path d="M394.18 599.83l39.96 0l0 18.84l-39.96 0Z" id="p18w134" />
<path d="M543.86 620.55l65.22 0l0 12.56l-65.22 0Z" id="p18w135" />
<path d="M139.82 647.5l15.51 0l0 14.52l-15.51 0Z" id="p18w136" />
<path d="M158.53 647.5l31.81 0l0 14.52l-31.81 0Z" id="p18w137" />
<path d="M193.55 647.5l24.59 0l0 14.52l-24.59 0Z" id="p18w138" />
<path d="M221.35 647.5l25.66 0l0 14.52l-25.66 0Z" id="p18w139" />
<path d="M250.21 647.5l35 0l0 14.52l-35 0Z" id="p18w140" />
<path d="M288.43 647.5l18.44 0l0 14.52l-18.44 0Z" id="p18w141" />
<path d="M309.64 647.5l84.7 0l0 14.52l-84.7 0Z" id="p18w142" />
<path d="M397.55 647.5l20.58 0l0 14.52l-20.58 0Z" id="p18w143" />
<path d="M421.33 647.43l31.41 0l0 14.61l-31.41 0Z" id="p18w144" />
<path d="M455.95 647.43l48.4 0l0 14.61l-48.4 0Z" id="p18w145" />
<path d="M507.56 647.5l21.4 0l0 14.52l-21.4 0Z" id="p18w146" />
<path d="M532.16 647.5l19.51 0l0 14.52l-19.51 0Z" id="p18w147" />
<path d="M554.88 647.43l52.27 0l0 14.61l-52.27 0Z" id="p18w148" />
<path d="M139.82 664.17l22.19 0l0 14.52l-22.19 0Z" id="p18w149" />
<path d="M164.78 664.17l70.25 0l0 14.52l-70.25 0Z" id="p18w150" />
<path d="M238.23 664.17l13.36 0l0 14.52l-13.36 0Z" id="p18w151" />
<path d="M254.79 664.17l52.53 0l0 14.52l-52.53 0Z" id="p18w152" />
<path d="M310.54 664.17l20.33 0l0 14.52l-20.33 0Z" id="p18w153" />
<path d="M334.07 664.17l18.44 0l0 14.52l-18.44 0Z" id="p18w154" />
<path d="M355.72 664.17l50.26 0l0 14.52l-50.26 0Z" id="p18w155" />
<path d="M409.19 664.17l21.4 0l0 14.52l-21.4 0Z" id="p18w156" />
<path d="M433.79 664.17l18.44 0l0 14.52l-18.44 0Z" id="p18w157" />
<path d="M455.44 664.17l89.48 0l0 14.52l-89.48 0Z" id="p18w158" />
<path d="M139.82 691.65l20.58 0l0 14.52l-20.58 0Z" id="p18w159" />
<path d="M163.6 691.62l51.33 0l0 14.52l-51.33 0Z" id="p18w160" />
<path d="M218.14 691.65l43.04 0l0 14.52l-43.04 0Z" id="p18w161" />
<path d="M264.39 691.65l24.85 0l0 14.52l-24.85 0Z" id="p18w162" />
<path d="M292.45 691.65l15.77 0l0 14.52l-15.77 0Z" id="p18w163" />
<path d="M139.82 708.32l17.11 0l0 14.52l-17.11 0Z" id="p18w164" />
<path d="M160.13 708.32l64.08 0l0 14.52l-64.08 0Z" id="p18w165" />
<path d="M227.42 708.32l23.53 0l0 14.52l-23.53 0Z" id="p18w166" />
<path d="M139.82 733.27l121.92 0l0 14.6l-121.92 0Z" id="p18w167" />
<path d="M264.94 733.27l68.1 0l0 14.6l-68.1 0Z" id="p18w168" />
<path d="M139.82 758.28l62.17 0l0 14.6l-62.17 0Z" id="p18w169" />
<path d="M205.02 758.28l90.11 0l0 14.6l-90.11 0Z" id="p18w170" />
<path d="M395.82 691.65l20.58 0l0 14.52l-20.58 0Z" id="p18w171" />
<path d="M419.6 691.62l31.81 0l0 14.52l-31.81 0Z" id="p18w172" />
<path d="M454.62 691.62l49.17 0l0 14.52l-49.17 0Z" id="p18w173" />
<path d="M506.99 691.65l43.04 0l0 14.52l-43.04 0Z" id="p18w174" />
<path d="M553.24 691.65l24.85 0l0 14.52l-24.85 0Z" id="p18w175" />
<path d="M581.31 691.65l15.77 0l0 14.52l-15.77 0Z" id="p18w176" />
<path d="M395.82 708.32l17.11 0l0 14.52l-17.11 0Z" id="p18w177" />
<path d="M416.13 708.32l65.98 0l0 14.52l-65.98 0Z" id="p18w178" />
<path d="M485.32 708.32l23.53 0l0 14.52l-23.53 0Z" id="p18w179" />
<path d="M395.82 733.27l62.49 0l0 14.6l-62.49 0Z" id="p18w180" />
<path d="M461.51 733.27l68.1 0l0 14.6l-68.1 0Z" id="p18w181" />
<path d="M395.82 758.28l124.48 0l0 14.6l-124.48 0Z" id="p18w182" />
<path d="M523.51 758.28l68.1 0l0 14.6l-68.1 0Z" id="p18w183" />
<path d="M395.82 775.02l96.96 0l0 14.52l-96.96 0Z" id="p18w184" />
<path d="M143.75 822.77l42.53 0l0 14.52l-42.53 0Z" id="p18w185" />
<path d="M189.49 822.77l25.67 0l0 14.52l-25.67 0Z" id="p18w186" />
<path d="M218.37 822.77l40.64 0l0 14.52l-40.64 0Z" id="p18w187" />
<path d="M262.22 822.77l52.32 0l0 14.52l-52.32 0Z" id="p18w188" />
<path d="M317.75 822.77l26.74 0l0 14.52l-26.74 0Z" id="p18w189" />
<path d="M347.7 822.77l52.92 0l0 14.52l-52.92 0Z" id="p18w190" />
<path d="M403.82 822.77l26.73 0l0 14.52l-26.73 0Z" id="p18w191" />
<path d="M143.75 839.44l9.89 0l0 14.52l-9.89 0Z" id="p18w192" />
<path d="M156.85 839.44l28.33 0l0 14.52l-28.33 0Z" id="p18w193" />
<path d="M188.38 839.44l27.73 0l0 14.52l-27.73 0Z" id="p18w194" />
<path d="M143.75 864.46l26.74 0l0 14.52l-26.74 0Z" id="p18w195" />
<path d="M173.7 864.46l50.53 0l0 14.52l-50.53 0Z" id="p18w196" />
<path d="M227.44 864.46l50.78 0l0 14.52l-50.78 0Z" id="p18w197" />
<path d="M281.42 864.46l13.9 0l0 14.52l-13.9 0Z" id="p18w198" />
<path d="M298.53 864.46l35 0l0 14.52l-35 0Z" id="p18w199" />
<path d="M336.74 864.46l39.02 0l0 14.52l-39.02 0Z" id="p18w200" />
<path d="M378.97 864.46l26.73 0l0 14.52l-26.73 0Z" id="p18w201" />
<path d="M143.75 881.13l9.89 0l0 14.52l-9.89 0Z" id="p18w202" />
<path d="M156.85 881.13l31.01 0l0 14.52l-31.01 0Z" id="p18w203" />
<path d="M191.06 881.13l28.33 0l0 14.52l-28.33 0Z" id="p18w204" />
<path d="M232.48 881.13l33.95 0l0 14.52l-33.95 0Z" id="p18w205" />
<path d="M269.64 881.13l52.32 0l0 14.52l-52.32 0Z" id="p18w206" />
<path d="M325.17 881.13l12.02 0l0 14.52l-12.02 0Z" id="p18w207" />
<path d="M340.4 881.13l79.64 0l0 14.52l-79.64 0Z" id="p18w208" />
<path d="M143.75 897.77l16.83 0l0 14.52l-16.83 0Z" id="p18w209" />
<path d="M163.79 897.77l42.51 0l0 14.52l-42.51 0Z" id="p18w210" />
<path d="M209.51 897.77l52.31 0l0 14.52l-52.31 0Z" id="p18w211" />
<path d="M265.03 897.77l14.97 0l0 14.52l-14.97 0Z" id="p18w212" />
<path d="M283.21 897.77l49.72 0l0 14.52l-49.72 0Z" id="p18w213" />
<path d="M73.54 113.17l15.07 0l0 12.29l-15.07 0Z" id="p18w214" />
<path d="M60.68 140.96l27.93 0l0 12.29l-27.93 0Z" id="p18w215" />
<path d="M57.58 166.04l16.7 0l0 12.3l-16.7 0Z" id="p18w216" />
<path d="M57.22 480.04l35.72 0l0 12.3l-35.72 0Z" id="p18w217" />
<path d="M48.71 491.16l44.24 0l0 12.3l-44.24 0Z" id="p18w218" />
<path d="M501.45 838.55l52.79 0l0 18.81l-52.79 0Z" id="p18w219" />
<path d="M559.48 840.57l49.63 0l0 18.7l-49.63 0Z" id="p18w220" />
<path d="M500.87 855.21l25.21 0l0 17.85l-25.21 0Z" id="p18w221" />
<path d="M531.32 856.27l11.15 0l0 17.36l-11.15 0Z" id="p18w222" />
<path d="M547.7 856.84l41.79 0l0 18.43l-41.79 0Z" id="p18w223" />
<path d="M595.12 858.5l45.13 0l0 18.55l-45.13 0Z" id="p18w224" />
<path d="M500.29 871.87l59.11 0l0 19.04l-59.11 0Z" id="p18w225" />
<path d="M564.64 874.11l26.03 0l0 17.88l-26.03 0Z" id="p18w226" />
<path d="M595.9 875.21l17.26 0l0 17.57l-17.26 0Z" id="p18w227" />
<path d="M499.71 888.53l30.13 0l0 18.02l-30.13 0Z" id="p18w228" />
<path d="M535.07 889.76l25.21 0l0 17.85l-25.21 0Z" id="p18w229" />
<path d="M578.21 891.27l33.59 0l0 18.14l-33.59 0Z" id="p18w230" />
<path d="M511.42 905.62l15.24 0l0 17.5l-15.24 0Z" id="p18w231" />
<path d="M532.31 906.35l52.09 0l0 18.79l-52.09 0Z" id="p18w232" />
<path d="M124.06 39.02l42.71 0l0 15.38l-42.71 0Z" id="p18w233" />
<path d="M208.73 38.6l45.75 0l0 16.09l-45.75 0Z" id="p18w234" />
<path d="M306.51 39.02l43.21 0l0 15.38l-43.21 0Z" id="p18w235" />
<path d="M405.76 39.02l32.54 0l0 15.38l-32.54 0Z" id="p18w236" />
<path d="M76.9 983l23.63 0l0 12.23l-23.63 0Z" id="p18w237" />
</svg>
