<?xml version="1.0" encoding="UTF-8"?>
<svg xmlns="http://www.w3.org/2000/svg" xmlns:xlink="http://www.w3.org/1999/xlink" version="1.1" baseProfile="full" width="768" height="1024" viewBox="0,0,768,1024" preserveAspectRatio="xMinYMin meet" >
<style type="text/css">
<![CDATA[
path {fill-opacity: 0.5;fill: #00aeef;visibility: hidden;}
]]>
</style>
<path d="M88.31 463.08l35.96 0l0 12.23l-35.96 0Z" id="p4w1" />
<path d="M544.97 463.08l20.79 0l0 12.23l-20.79 0Z" id="p4w2" />
<path d="M78.77 490.86l17.55 0l0 12.23l-17.55 0Z" id="p4w3" />
<path d="M99.02 490.86l32.42 0l0 12.23l-32.42 0Z" id="p4w4" />
<path d="M134.15 490.86l28.58 0l0 12.23l-28.58 0Z" id="p4w5" />
<path d="M165.42 490.86l35.96 0l0 12.23l-35.96 0Z" id="p4w6" />
<path d="M204.08 490.86l19.58 0l0 12.23l-19.58 0Z" id="p4w7" />
<path d="M226.37 490.86l57.4 0l0 12.23l-57.4 0Z" id="p4w8" />
<path d="M286.47 490.86l18.02 0l0 12.23l-18.02 0Z" id="p4w9" />
<path d="M307.18 490.86l34.9 0l0 12.23l-34.9 0Z" id="p4w10" />
<path d="M344.79 490.86l11.93 0l0 12.23l-11.93 0Z" id="p4w11" />
<path d="M359.42 490.86l47.72 0l0 12.23l-47.72 0Z" id="p4w12" />
<path d="M409.83 490.86l71.13 0l0 12.23l-71.13 0Z" id="p4w13" />
<path d="M483.66 490.86l50.19 0l0 12.23l-50.19 0Z" id="p4w14" />
<path d="M536.55 490.86l37.59 0l0 12.23l-37.59 0Z" id="p4w15" />
<path d="M78.77 504.76l15.31 0l0 12.23l-15.31 0Z" id="p4w16" />
<path d="M96.78 504.76l26.55 0l0 12.23l-26.55 0Z" id="p4w17" />
<path d="M126.03 504.76l20.03 0l0 12.23l-20.03 0Z" id="p4w18" />
<path d="M148.76 504.76l51.55 0l0 12.23l-51.55 0Z" id="p4w19" />
<path d="M203.02 504.76l16.43 0l0 12.23l-16.43 0Z" id="p4w20" />
<path d="M222.14 504.76l18.68 0l0 12.23l-18.68 0Z" id="p4w21" />
<path d="M243.53 504.76l29.48 0l0 12.23l-29.48 0Z" id="p4w22" />
<path d="M275.71 504.76l39.4 0l0 12.23l-39.4 0Z" id="p4w23" />
<path d="M78.77 532.55l17.33 0l0 12.23l-17.33 0Z" id="p4w24" />
<path d="M98.58 532.55l23.63 0l0 12.23l-23.63 0Z" id="p4w25" />
<path d="M124.91 532.55l18.02 0l0 12.23l-18.02 0Z" id="p4w26" />
<path d="M145.63 532.55l24.75 0l0 12.23l-24.75 0Z" id="p4w27" />
<path d="M172.78 532.55l21.16 0l0 12.23l-21.16 0Z" id="p4w28" />
<path d="M196.65 532.55l19.58 0l0 12.23l-19.58 0Z" id="p4w29" />
<path d="M218.93 532.55l77.66 0l0 12.23l-77.66 0Z" id="p4w30" />
<path d="M299.29 532.55l48.13 0l0 12.23l-48.13 0Z" id="p4w31" />
<path d="M350.12 532.55l20.49 0l0 12.23l-20.49 0Z" id="p4w32" />
<path d="M373.31 532.55l39.8 0l0 12.23l-39.8 0Z" id="p4w33" />
<path d="M415.81 532.55l8.78 0l0 12.23l-8.78 0Z" id="p4w34" />
<path d="M427.3 532.55l38.94 0l0 12.23l-38.94 0Z" id="p4w35" />
<path d="M468.93 532.55l13.05 0l0 12.23l-13.05 0Z" id="p4w36" />
<path d="M484.68 532.55l17.78 0l0 12.23l-17.78 0Z" id="p4w37" />
<path d="M505.17 532.55l47.22 0l0 12.23l-47.22 0Z" id="p4w38" />
<path d="M555.09 532.55l63.65 0l0 12.23l-63.65 0Z" id="p4w39" />
<path d="M78.77 546.44l27.91 0l0 12.23l-27.91 0Z" id="p4w40" />
<path d="M109.38 546.44l30.83 0l0 12.23l-30.83 0Z" id="p4w41" />
<path d="M142.92 546.44l15.53 0l0 12.23l-15.53 0Z" id="p4w42" />
<path d="M161.14 546.44l50.82 0l0 12.23l-50.82 0Z" id="p4w43" />
<path d="M214.66 546.44l57.85 0l0 12.23l-57.85 0Z" id="p4w44" />
<path d="M275.22 546.44l57.75 0l0 12.23l-57.75 0Z" id="p4w45" />
<path d="M335.68 546.44l16.43 0l0 12.23l-16.43 0Z" id="p4w46" />
<path d="M354.43 546.44l42.04 0l0 12.23l-42.04 0Z" id="p4w47" />
<path d="M399.17 546.44l37.36 0l0 12.23l-37.36 0Z" id="p4w48" />
<path d="M467 546.44l26.57 0l0 12.23l-26.57 0Z" id="p4w49" />
<path d="M496.05 546.44l30.16 0l0 12.23l-30.16 0Z" id="p4w50" />
<path d="M528.9 546.44l16.43 0l0 12.23l-16.43 0Z" id="p4w51" />
<path d="M547.81 546.44l23.63 0l0 12.23l-23.63 0Z" id="p4w52" />
<path d="M574.14 546.44l22.98 0l0 12.23l-22.98 0Z" id="p4w53" />
<path d="M599.82 546.44l24.75 0l0 12.23l-24.75 0Z" id="p4w54" />
<path d="M78.77 560.33l21.16 0l0 12.23l-21.16 0Z" id="p4w55" />
<path d="M102.63 560.33l31.07 0l0 12.23l-31.07 0Z" id="p4w56" />
<path d="M136.4 560.33l23.64 0l0 12.23l-23.64 0Z" id="p4w57" />
<path d="M162.74 560.33l20.03 0l0 12.23l-20.03 0Z" id="p4w58" />
<path d="M185.48 560.33l29.94 0l0 12.23l-29.94 0Z" id="p4w59" />
<path d="M218.12 560.33l57.75 0l0 12.23l-57.75 0Z" id="p4w60" />
<path d="M278.58 560.33l57.34 0l0 12.23l-57.34 0Z" id="p4w61" />
<path d="M338.62 560.33l18.02 0l0 12.23l-18.02 0Z" id="p4w62" />
<path d="M359.34 560.33l8.78 0l0 12.23l-8.78 0Z" id="p4w63" />
<path d="M370.82 560.33l14.41 0l0 12.23l-14.41 0Z" id="p4w64" />
<path d="M387.93 560.33l44.56 0l0 12.23l-44.56 0Z" id="p4w65" />
<path d="M435.19 560.33l49.45 0l0 12.23l-49.45 0Z" id="p4w66" />
<path d="M487.34 560.33l37.59 0l0 12.23l-37.59 0Z" id="p4w67" />
<path d="M527.63 560.33l20.03 0l0 12.23l-20.03 0Z" id="p4w68" />
<path d="M550.36 560.33l15.25 0l0 12.23l-15.25 0Z" id="p4w69" />
<path d="M568.31 560.33l22.52 0l0 12.23l-22.52 0Z" id="p4w70" />
<path d="M593.53 560.33l13.28 0l0 12.23l-13.28 0Z" id="p4w71" />
<path d="M78.77 574.23l42.54 0l0 12.23l-42.54 0Z" id="p4w72" />
<path d="M124.01 574.23l17.12 0l0 12.23l-17.12 0Z" id="p4w73" />
<path d="M143.83 574.23l37.16 0l0 12.23l-37.16 0Z" id="p4w74" />
<path d="M183.69 574.23l18.02 0l0 12.23l-18.02 0Z" id="p4w75" />
<path d="M204.4 574.23l45.64 0l0 12.23l-45.64 0Z" id="p4w76" />
<path d="M252.74 574.23l40.7 0l0 12.23l-40.7 0Z" id="p4w77" />
<path d="M293.45 574.23l67.71 0l0 12.23l-67.71 0Z" id="p4w78" />
<path d="M363.86 574.23l82.4 0l0 12.23l-82.4 0Z" id="p4w79" />
<path d="M448.96 574.23l21.39 0l0 12.23l-21.39 0Z" id="p4w80" />
<path d="M473.05 574.23l32.86 0l0 12.23l-32.86 0Z" id="p4w81" />
<path d="M508.38 574.23l101.75 0l0 12.23l-101.75 0Z" id="p4w82" />
<path d="M78.77 588.12l15.76 0l0 12.23l-15.76 0Z" id="p4w83" />
<path d="M97.23 588.12l15.75 0l0 12.23l-15.75 0Z" id="p4w84" />
<path d="M115.68 588.12l66.3 0l0 12.23l-66.3 0Z" id="p4w85" />
<path d="M184.69 588.12l16.43 0l0 12.23l-16.43 0Z" id="p4w86" />
<path d="M203.45 588.12l42.04 0l0 12.23l-42.04 0Z" id="p4w87" />
<path d="M78.77 615.91l15.31 0l0 12.23l-15.31 0Z" id="p4w88" />
<path d="M96.78 615.91l62.58 0l0 12.23l-62.58 0Z" id="p4w89" />
<path d="M162.06 615.91l45.46 0l0 12.23l-45.46 0Z" id="p4w90" />
<path d="M210.22 615.91l65.74 0l0 12.23l-65.74 0Z" id="p4w91" />
<path d="M278.65 615.91l44.35 0l0 12.23l-44.35 0Z" id="p4w92" />
<path d="M325.7 615.91l108.44 0l0 12.23l-108.44 0Z" id="p4w93" />
<path d="M436.85 615.91l13.05 0l0 12.23l-13.05 0Z" id="p4w94" />
<path d="M452.6 615.91l53.96 0l0 12.23l-53.96 0Z" id="p4w95" />
<path d="M509.26 615.91l23.64 0l0 12.23l-23.64 0Z" id="p4w96" />
<path d="M535.6 615.91l20.93 0l0 12.23l-20.93 0Z" id="p4w97" />
<path d="M559.24 615.91l51.76 0l0 12.23l-51.76 0Z" id="p4w98" />
<path d="M78.77 629.8l99.66 0l0 12.23l-99.66 0Z" id="p4w99" />
<path d="M91.29 657.59l24.31 0l0 12.23l-24.31 0Z" id="p4w100" />
<path d="M118.3 657.59l22.05 0l0 12.23l-22.05 0Z" id="p4w101" />
<path d="M142.68 657.59l29.43 0l0 12.23l-29.43 0Z" id="p4w102" />
<path d="M174.81 657.59l31.75 0l0 12.23l-31.75 0Z" id="p4w103" />
<path d="M209.26 657.59l42.48 0l0 12.23l-42.48 0Z" id="p4w104" />
<path d="M254.44 657.59l22.14 0l0 12.23l-22.14 0Z" id="p4w105" />
<path d="M279.29 657.59l17.55 0l0 12.23l-17.55 0Z" id="p4w106" />
<path d="M299.54 657.59l32.27 0l0 12.23l-32.27 0Z" id="p4w107" />
<path d="M334.5 657.59l58.75 0l0 12.23l-58.75 0Z" id="p4w108" />
<path d="M395.96 657.59l61.75 0l0 12.23l-61.75 0Z" id="p4w109" />
<path d="M78.77 685.32l53.01 0l0 12.29l-53.01 0Z" id="p4w110" />
<path d="M134.48 685.32l18.11 0l0 12.29l-18.11 0Z" id="p4w111" />
<path d="M155.29 685.32l40.88 0l0 12.29l-40.88 0Z" id="p4w112" />
<path d="M198.87 685.38l35.35 0l0 12.23l-35.35 0Z" id="p4w113" />
<path d="M236.92 685.38l43.91 0l0 12.23l-43.91 0Z" id="p4w114" />
<path d="M283.52 685.38l66.38 0l0 12.23l-66.38 0Z" id="p4w115" />
<path d="M352.6 685.38l36.24 0l0 12.23l-36.24 0Z" id="p4w116" />
<path d="M391.54 685.38l32.63 0l0 12.23l-32.63 0Z" id="p4w117" />
<path d="M426.87 685.38l24 0l0 12.23l-24 0Z" id="p4w118" />
<path d="M453.57 685.38l40.46 0l0 12.23l-40.46 0Z" id="p4w119" />
<path d="M496.73 685.38l34.23 0l0 12.23l-34.23 0Z" id="p4w120" />
<path d="M533.66 685.38l39.58 0l0 12.23l-39.58 0Z" id="p4w121" />
<path d="M78.77 699.27l27 0l0 12.23l-27 0Z" id="p4w122" />
<path d="M108.47 699.27l39.63 0l0 12.23l-39.63 0Z" id="p4w123" />
<path d="M150.8 699.27l56.32 0l0 12.23l-56.32 0Z" id="p4w124" />
<path d="M209.82 699.27l30.62 0l0 12.23l-30.62 0Z" id="p4w125" />
<path d="M243.14 699.27l25.67 0l0 12.23l-25.67 0Z" id="p4w126" />
<path d="M271.51 699.27l45.66 0l0 12.23l-45.66 0Z" id="p4w127" />
<path d="M319.87 699.27l40.06 0l0 12.23l-40.06 0Z" id="p4w128" />
<path d="M362.63 699.27l38.28 0l0 12.23l-38.28 0Z" id="p4w129" />
<path d="M403.61 699.27l60.98 0l0 12.23l-60.98 0Z" id="p4w130" />
<path d="M467.29 699.27l46.36 0l0 12.23l-46.36 0Z" id="p4w131" />
<path d="M516.35 699.27l32.2 0l0 12.23l-32.2 0Z" id="p4w132" />
<path d="M551.25 699.27l50.19 0l0 12.23l-50.19 0Z" id="p4w133" />
<path d="M78.77 713.17l77.1 0l0 12.23l-77.1 0Z" id="p4w134" />
<path d="M158.57 713.17l22.29 0l0 12.23l-22.29 0Z" id="p4w135" />
<path d="M183.55 713.17l33.41 0l0 12.23l-33.41 0Z" id="p4w136" />
<path d="M219.66 713.17l44.26 0l0 12.23l-44.26 0Z" id="p4w137" />
<path d="M266.63 713.17l22.06 0l0 12.23l-22.06 0Z" id="p4w138" />
<path d="M291.39 713.17l64.16 0l0 12.23l-64.16 0Z" id="p4w139" />
<path d="M358.25 713.17l39.16 0l0 12.23l-39.16 0Z" id="p4w140" />
<path d="M78.77 740.9l46.72 0l0 12.29l-46.72 0Z" id="p4w141" />
<path d="M128.19 740.96l39.85 0l0 12.23l-39.85 0Z" id="p4w142" />
<path d="M170.74 740.96l28.82 0l0 12.23l-28.82 0Z" id="p4w143" />
<path d="M201.89 740.96l71.17 0l0 12.23l-71.17 0Z" id="p4w144" />
<path d="M275.76 740.96l51.31 0l0 12.23l-51.31 0Z" id="p4w145" />
<path d="M329.77 740.96l65.73 0l0 12.23l-65.73 0Z" id="p4w146" />
<path d="M398.21 740.96l67.9 0l0 12.23l-67.9 0Z" id="p4w147" />
<path d="M468.81 740.96l28.58 0l0 12.23l-28.58 0Z" id="p4w148" />
<path d="M500.09 740.96l33.55 0l0 12.23l-33.55 0Z" id="p4w149" />
<path d="M536.33 740.96l30.13 0l0 12.23l-30.13 0Z" id="p4w150" />
<path d="M78.77 754.85l31.5 0l0 12.23l-31.5 0Z" id="p4w151" />
<path d="M112.97 754.85l49.31 0l0 12.23l-49.31 0Z" id="p4w152" />
<path d="M164.98 754.85l46.78 0l0 12.23l-46.78 0Z" id="p4w153" />
<path d="M214.46 754.85l41.64 0l0 12.23l-41.64 0Z" id="p4w154" />
<path d="M258.8 754.85l27.47 0l0 12.23l-27.47 0Z" id="p4w155" />
<path d="M288.97 754.85l45.21 0l0 12.23l-45.21 0Z" id="p4w156" />
<path d="M336.88 754.85l17.33 0l0 12.23l-17.33 0Z" id="p4w157" />
<path d="M356.91 754.85l37.59 0l0 12.23l-37.59 0Z" id="p4w158" />
<path d="M397.21 754.85l35.71 0l0 12.23l-35.71 0Z" id="p4w159" />
<path d="M435.62 754.85l30.4 0l0 12.23l-30.4 0Z" id="p4w160" />
<path d="M468.5 754.85l36.17 0l0 12.23l-36.17 0Z" id="p4w161" />
<path d="M507.37 754.85l30.13 0l0 12.23l-30.13 0Z" id="p4w162" />
<path d="M78.77 768.74l39.16 0l0 12.23l-39.16 0Z" id="p4w163" />
<path d="M120.41 768.74l59.21 0l0 12.23l-59.21 0Z" id="p4w164" />
<path d="M182.32 768.74l43.91 0l0 12.23l-43.91 0Z" id="p4w165" />
<path d="M78.77 796.48l50.87 0l0 12.29l-50.87 0Z" id="p4w166" />
<path d="M132.34 796.53l26.12 0l0 12.23l-26.12 0Z" id="p4w167" />
<path d="M161.17 796.53l20.5 0l0 12.23l-20.5 0Z" id="p4w168" />
<path d="M184.36 796.53l23.63 0l0 12.23l-23.63 0Z" id="p4w169" />
<path d="M210.39 796.53l29.43 0l0 12.23l-29.43 0Z" id="p4w170" />
<path d="M78.77 810.37l57.53 0l0 12.29l-57.53 0Z" id="p4w171" />
<path d="M139 810.43l18.23 0l0 12.23l-18.23 0Z" id="p4w172" />
<path d="M159.63 810.43l40.75 0l0 12.23l-40.75 0Z" id="p4w173" />
<path d="M78.77 838.16l96.7 0l0 12.29l-96.7 0Z" id="p4w174" />
<path d="M178.17 838.16l18.11 0l0 12.29l-18.11 0Z" id="p4w175" />
<path d="M198.98 838.16l97.5 0l0 12.29l-97.5 0Z" id="p4w176" />
<path d="M298.88 838.21l24.1 0l0 12.23l-24.1 0Z" id="p4w177" />
<path d="M325.68 838.21l33.55 0l0 12.23l-33.55 0Z" id="p4w178" />
<path d="M361.93 838.21l42.48 0l0 12.23l-42.48 0Z" id="p4w179" />
<path d="M78.77 852.05l23.13 0l0 12.29l-23.13 0Z" id="p4w180" />
<path d="M104.6 852.11l42.32 0l0 12.23l-42.32 0Z" id="p4w181" />
<path d="M149.62 852.11l31.75 0l0 12.23l-31.75 0Z" id="p4w182" />
<path d="M184.06 852.11l42.48 0l0 12.23l-42.48 0Z" id="p4w183" />
<path d="M78.77 865.95l66.5 0l0 12.29l-66.5 0Z" id="p4w184" />
<path d="M147.97 866l28.13 0l0 12.23l-28.13 0Z" id="p4w185" />
<path d="M178.81 866l45.34 0l0 12.23l-45.34 0Z" id="p4w186" />
<path d="M226.85 866l38.94 0l0 12.23l-38.94 0Z" id="p4w187" />
<path d="M268.48 866l18.02 0l0 12.23l-18.02 0Z" id="p4w188" />
<path d="M289.2 866l41.64 0l0 12.23l-41.64 0Z" id="p4w189" />
<path d="M333.54 866l41.88 0l0 12.23l-41.88 0Z" id="p4w190" />
<path d="M377.9 866l47.48 0l0 12.23l-47.48 0Z" id="p4w191" />
<path d="M428.08 866l38.26 0l0 12.23l-38.26 0Z" id="p4w192" />
<path d="M78.77 879.84l28.81 0l0 12.29l-28.81 0Z" id="p4w193" />
<path d="M110.28 879.9l38.96 0l0 12.23l-38.96 0Z" id="p4w194" />
<path d="M151.94 879.9l58.99 0l0 12.23l-58.99 0Z" id="p4w195" />
<path d="M213.63 879.9l59.27 0l0 12.23l-59.27 0Z" id="p4w196" />
<path d="M78.77 893.73l30.09 0l0 12.29l-30.09 0Z" id="p4w197" />
<path d="M111.56 893.79l27.24 0l0 12.23l-27.24 0Z" id="p4w198" />
<path d="M141.5 893.79l29.26 0l0 12.23l-29.26 0Z" id="p4w199" />
<path d="M173.46 893.79l53.14 0l0 12.23l-53.14 0Z" id="p4w200" />
<path d="M229.3 893.79l31.75 0l0 12.23l-31.75 0Z" id="p4w201" />
<path d="M263.75 893.79l45.47 0l0 12.23l-45.47 0Z" id="p4w202" />
<path d="M78.77 921.58l33.99 0l0 12.23l-33.99 0Z" id="p4w203" />
<path d="M115.46 921.58l8.78 0l0 12.23l-8.78 0Z" id="p4w204" />
<path d="M126.94 921.58l42.32 0l0 12.23l-42.32 0Z" id="p4w205" />
<path d="M78.77 935.47l22.98 0l0 12.23l-22.98 0Z" id="p4w206" />
<path d="M104.45 935.47l80.88 0l0 12.23l-80.88 0Z" id="p4w207" />
<path d="M78.77 77.59l84.83 0l0 12.29l-84.83 0Z" id="p4w208" />
<path d="M166.3 77.59l13.57 0l0 12.29l-13.57 0Z" id="p4w209" />
<path d="M182.57 77.59l61.51 0l0 12.29l-61.51 0Z" id="p4w210" />
<path d="M246.79 77.59l18.11 0l0 12.29l-18.11 0Z" id="p4w211" />
<path d="M267.59 77.59l34.84 0l0 12.29l-34.84 0Z" id="p4w212" />
<path d="M305.13 77.59l10.76 0l0 12.29l-10.76 0Z" id="p4w213" />
<path d="M318.59 77.59l34.21 0l0 12.29l-34.21 0Z" id="p4w214" />
<path d="M355.5 77.59l24.53 0l0 12.29l-24.53 0Z" id="p4w215" />
<path d="M78.77 105.38l29.81 0l0 12.3l-29.81 0Z" id="p4w216" />
<path d="M111.28 105.38l47.18 0l0 12.3l-47.18 0Z" id="p4w217" />
<path d="M161.17 105.43l15.75 0l0 12.23l-15.75 0Z" id="p4w218" />
<path d="M179.62 105.43l36.85 0l0 12.23l-36.85 0Z" id="p4w219" />
<path d="M219.16 105.43l18.02 0l0 12.23l-18.02 0Z" id="p4w220" />
<path d="M239.88 105.43l64.29 0l0 12.23l-64.29 0Z" id="p4w221" />
<path d="M306.87 105.43l37.3 0l0 12.23l-37.3 0Z" id="p4w222" />
<path d="M346.88 105.43l30.77 0l0 12.23l-30.77 0Z" id="p4w223" />
<path d="M78.77 119.27l73.46 0l0 12.29l-73.46 0Z" id="p4w224" />
<path d="M154.93 119.27l34.55 0l0 12.29l-34.55 0Z" id="p4w225" />
<path d="M194.43 119.33l37.3 0l0 12.23l-37.3 0Z" id="p4w226" />
<path d="M234.44 119.33l31.59 0l0 12.23l-31.59 0Z" id="p4w227" />
<path d="M78.77 133.16l40.65 0l0 12.29l-40.65 0ZM122.12 133.16l18.11 0l0 12.29l-18.11 0Z" id="p4w228" />
<path d="M142.48 133.16l70.89 0l0 12.29l-70.89 0Z" id="p4w229" />
<path d="M216.07 133.22l15.75 0l0 12.23l-15.75 0Z" id="p4w230" />
<path d="M234.16 133.22l69.12 0l0 12.23l-69.12 0Z" id="p4w231" />
<path d="M305.98 133.22l37.3 0l0 12.23l-37.3 0Z" id="p4w232" />
<path d="M345.99 133.22l31.59 0l0 12.23l-31.59 0Z" id="p4w233" />
</svg>
