<?xml version="1.0" encoding="UTF-8"?>
<svg xmlns="http://www.w3.org/2000/svg" xmlns:xlink="http://www.w3.org/1999/xlink" version="1.1" baseProfile="full" width="768" height="1024" viewBox="0,0,768,1024" preserveAspectRatio="xMinYMin meet" >
<style type="text/css">
<![CDATA[
path {fill-opacity: 0.5;fill: #00aeef;visibility: hidden;}
]]>
</style>
<path d="M131.8 840.61l26.77 0l0 13.06l-26.77 0Z" id="p175w1" />
<path d="M161.44 840.67l27.51 0l0 12.99l-27.51 0Z" id="p175w2" />
<path d="M214.09 840.61l20.89 0l0 13.06l-20.89 0Z" id="p175w3" />
<path d="M246.71 840.61l20.89 0l0 13.06l-20.89 0Z" id="p175w4" />
<path d="M270.47 840.67l65.77 0l0 12.99l-65.77 0Z" id="p175w5" />
<path d="M361.38 840.61l41.33 0l0 13.06l-41.33 0Z" id="p175w6" />
<path d="M405.59 840.61l11.34 0l0 13.06l-11.34 0Z" id="p175w7" />
<path d="M419.79 840.67l20.66 0l0 12.99l-20.66 0Z" id="p175w8" />
<path d="M443.32 840.67l48.3 0l0 12.99l-48.3 0Z" id="p175w9" />
<path d="M516.76 840.61l22.95 0l0 13.06l-22.95 0Z" id="p175w10" />
<path d="M542.58 840.61l29.73 0l0 13.06l-29.73 0Z" id="p175w11" />
<path d="M575.18 840.61l12.41 0l0 13.06l-12.41 0Z" id="p175w12" />
<path d="M590.46 840.61l11.34 0l0 13.06l-11.34 0Z" id="p175w13" />
<path d="M604.67 840.67l11.49 0l0 12.99l-11.49 0Z" id="p175w14" />
<path d="M619.03 840.67l20.66 0l0 12.99l-20.66 0Z" id="p175w15" />
<path d="M642.55 840.67l41.56 0l0 12.99l-41.56 0Z" id="p175w16" />
<path d="M132.67 855.89l8.96 0l0 13.06l-8.96 0Z" id="p175w17" />
<path d="M144.5 855.89l27.48 0l0 13.06l-27.48 0Z" id="p175w18" />
<path d="M174.86 855.89l12.41 0l0 13.06l-12.41 0Z" id="p175w19" />
<path d="M189.67 855.89l47.5 0l0 13.06l-47.5 0Z" id="p175w20" />
<path d="M240.03 855.95l16.5 0l0 12.99l-16.5 0Z" id="p175w21" />
<path d="M259.01 855.95l45.67 0l0 12.99l-45.67 0Z" id="p175w22" />
<path d="M307.16 855.95l36.29 0l0 12.99l-36.29 0Z" id="p175w23" />
<path d="M368.6 855.89l47.38 0l0 13.06l-47.38 0Z" id="p175w24" />
<path d="M432.35 855.95l37.31 0l0 12.99l-37.31 0Z" id="p175w25" />
<path d="M494.08 855.89l38.91 0l0 13.06l-38.91 0Z" id="p175w26" />
<path d="M535.86 855.89l11.34 0l0 13.06l-11.34 0Z" id="p175w27" />
<path d="M550.07 855.95l20.66 0l0 12.99l-20.66 0Z" id="p175w28" />
<path d="M573.59 855.95l45.2 0l0 12.99l-45.2 0Z" id="p175w29" />
<path d="M132.67 871.17l8.98 0l0 13.06l-8.98 0Z" id="p175w30" />
<path d="M144.52 871.17l48.4 0l0 13.06l-48.4 0Z" id="p175w31" />
<path d="M209.28 871.23l22.24 0l0 12.99l-22.24 0Z" id="p175w32" />
<path d="M256.66 871.17l12.8 0l0 13.06l-12.8 0Z" id="p175w33" />
<path d="M272.33 871.17l42.95 0l0 13.06l-42.95 0Z" id="p175w34" />
<path d="M318.16 871.21l17.94 0l0 12.99l-17.94 0Z" id="p175w35" />
<path d="M338.97 871.23l21.28 0l0 12.99l-21.28 0Z" id="p175w36" />
<path d="M363.12 871.23l55.96 0l0 12.99l-55.96 0Z" id="p175w37" />
<path d="M448.84 871.17l12.8 0l0 13.06l-12.8 0Z" id="p175w38" />
<path d="M464.52 871.17l42.73 0l0 13.06l-42.73 0Z" id="p175w39" />
<path d="M514.77 871.17l18.78 0l0 13.06l-18.78 0Z" id="p175w40" />
<path d="M536.42 871.17l48.7 0l0 13.06l-48.7 0Z" id="p175w41" />
<path d="M587.99 871.23l15.31 0l0 12.99l-15.31 0Z" id="p175w42" />
<path d="M606.16 871.23l53.58 0l0 12.99l-53.58 0Z" id="p175w43" />
<path d="M124.06 886.51l21.28 0l0 12.99l-21.28 0Z" id="p175w44" />
<path d="M148.21 886.51l62.91 0l0 12.99l-62.91 0Z" id="p175w45" />
<path d="M240.02 886.45l8.98 0l0 13.06l-8.98 0Z" id="p175w46" />
<path d="M251.87 886.45l49.12 0l0 13.06l-49.12 0Z" id="p175w47" />
<path d="M303.86 886.45l20.3 0l0 13.06l-20.3 0Z" id="p175w48" />
<path d="M327.03 886.51l15.31 0l0 12.99l-15.31 0Z" id="p175w49" />
<path d="M345.2 886.51l60.21 0l0 12.99l-60.21 0Z" id="p175w50" />
<path d="M408.28 886.51l26.78 0l0 12.99l-26.78 0Z" id="p175w51" />
<path d="M464.84 886.45l8.98 0l0 13.06l-8.98 0Z" id="p175w52" />
<path d="M476.68 886.45l20.9 0l0 13.06l-20.9 0Z" id="p175w53" />
<path d="M500.46 886.45l29.26 0l0 13.06l-29.26 0Z" id="p175w54" />
<path d="M532.59 886.45l20.3 0l0 13.06l-20.3 0Z" id="p175w55" />
<path d="M555.76 886.51l15.31 0l0 12.99l-15.31 0Z" id="p175w56" />
<path d="M573.94 886.51l33.94 0l0 12.99l-33.94 0Z" id="p175w57" />
<path d="M610.75 886.51l26.78 0l0 12.99l-26.78 0Z" id="p175w58" />
<path d="M137.54 901.74l13.57 0l0 13.06l-13.57 0Z" id="p175w59" />
<path d="M153.82 901.74l18.13 0l0 13.06l-18.13 0Z" id="p175w60" />
<path d="M174.82 901.77l31.84 0l0 12.99l-31.84 0Z" id="p175w61" />
<path d="M209.53 901.77l60.84 0l0 12.99l-60.84 0Z" id="p175w62" />
<path d="M283.22 901.79l18.2 0l0 12.99l-18.2 0Z" id="p175w63" />
<path d="M304.29 901.77l18.91 0l0 12.99l-18.91 0Z" id="p175w64" />
<path d="M326.07 901.77l43.76 0l0 12.99l-43.76 0Z" id="p175w65" />
<path d="M399.6 901.74l50.94 0l0 13.06l-50.94 0Z" id="p175w66" />
<path d="M458.06 901.74l61.6 0l0 13.06l-61.6 0Z" id="p175w67" />
<path d="M522.53 901.79l48.81 0l0 12.99l-48.81 0Z" id="p175w68" />
<path d="M574.21 901.79l12.44 0l0 12.99l-12.44 0Z" id="p175w69" />
<path d="M616.41 901.74l43.94 0l0 13.06l-43.94 0Z" id="p175w70" />
<path d="M663.23 901.74l11.34 0l0 13.06l-11.34 0Z" id="p175w71" />
<path d="M677.44 901.79l20.66 0l0 12.99l-20.66 0Z" id="p175w72" />
<path d="M124.06 917.08l45.2 0l0 12.99l-45.2 0Z" id="p175w73" />
<path d="M199.03 917.02l49.97 0l0 13.06l-49.97 0Z" id="p175w74" />
<path d="M260.73 917.02l12.9 0l0 13.06l-12.9 0Z" id="p175w75" />
<path d="M276.49 917.08l19.62 0l0 12.99l-19.62 0Z" id="p175w76" />
<path d="M298.98 917.08l12.44 0l0 12.99l-12.44 0Z" id="p175w77" />
<path d="M314.28 917.08l17.95 0l0 12.99l-17.95 0Z" id="p175w78" />
<path d="M335.1 917.08l35.16 0l0 12.99l-35.16 0Z" id="p175w79" />
<path d="M399.55 917.02l39.62 0l0 13.06l-39.62 0Z" id="p175w80" />
<path d="M442.04 917.02l12.9 0l0 13.06l-12.9 0Z" id="p175w81" />
<path d="M457.81 917.08l17.95 0l0 12.99l-17.95 0Z" id="p175w82" />
<path d="M478.63 917.08l57.34 0l0 12.99l-57.34 0Z" id="p175w83" />
<path d="M562.71 917.02l18.78 0l0 13.06l-18.78 0Z" id="p175w84" />
<path d="M584.35 917.02l34 0l0 13.06l-34 0Z" id="p175w85" />
<path d="M621.22 917.02l49.02 0l0 13.06l-49.02 0Z" id="p175w86" />
<path d="M673.12 917.08l21.28 0l0 12.99l-21.28 0Z" id="p175w87" />
<path d="M124.06 932.36l70.79 0l0 12.99l-70.79 0Z" id="p175w88" />
<path d="M224.62 932.3l11.11 0l0 13.06l-11.11 0Z" id="p175w89" />
<path d="M238.6 932.3l40.86 0l0 13.06l-40.86 0Z" id="p175w90" />
<path d="M282.34 932.36l19.62 0l0 12.99l-19.62 0Z" id="p175w91" />
<path d="M304.82 932.36l23.43 0l0 12.99l-23.43 0Z" id="p175w92" />
<path d="M598.51 983l92.59 0l0 12.23l-92.59 0Z" id="p175w93" />
<path d="M68.27 38.6l22.34 0l0 16.09l-22.34 0Z" id="p175w94" />
<path d="M93.98 38.6l34.85 0l0 16.09l-34.85 0Z" id="p175w95" />
<path d="M613.17 114.34l20.81 0l0 12.56l-20.81 0Z" id="p175w96" />
<path d="M636.68 114.34l31.57 0l0 12.56l-31.57 0Z" id="p175w97" />
<path d="M124.44 131.5l44.99 0l0 15.37l-44.99 0Z" id="p175w98" />
<path d="M124.44 152.79l49.89 0l0 14.52l-49.89 0Z" id="p175w99" />
<path d="M177.54 152.79l13.9 0l0 14.52l-13.9 0Z" id="p175w100" />
<path d="M194.65 152.79l40.1 0l0 14.52l-40.1 0Z" id="p175w101" />
<path d="M237.96 152.79l25.92 0l0 14.52l-25.92 0Z" id="p175w102" />
<path d="M267.09 152.79l19.51 0l0 14.52l-19.51 0Z" id="p175w103" />
<path d="M289.8 152.79l29.94 0l0 14.52l-29.94 0Z" id="p175w104" />
<path d="M332.51 152.79l28.33 0l0 14.52l-28.33 0Z" id="p175w105" />
<path d="M364.05 152.79l35.76 0l0 14.52l-35.76 0Z" id="p175w106" />
<path d="M412.9 152.79l17.9 0l0 14.52l-17.9 0Z" id="p175w107" />
<path d="M434 152.79l22.99 0l0 14.52l-22.99 0Z" id="p175w108" />
<path d="M470.09 152.79l22.99 0l0 14.52l-22.99 0Z" id="p175w109" />
<path d="M503.22 152.79l58.53 0l0 14.52l-58.53 0Z" id="p175w110" />
<path d="M564.95 152.79l13.91 0l0 14.52l-13.91 0Z" id="p175w111" />
<path d="M582.07 152.79l53.19 0l0 14.52l-53.19 0Z" id="p175w112" />
<path d="M124.45 169.46l26.19 0l0 14.52l-26.19 0Z" id="p175w113" />
<path d="M153.84 169.46l50.01 0l0 14.52l-50.01 0Z" id="p175w114" />
<path d="M207.06 169.46l53.02 0l0 14.52l-53.02 0Z" id="p175w115" />
<path d="M263.29 169.46l9.89 0l0 14.52l-9.89 0Z" id="p175w116" />
<path d="M276.39 169.46l44.1 0l0 14.52l-44.1 0Z" id="p175w117" />
<path d="M323.69 169.46l30.23 0l0 14.52l-30.23 0Z" id="p175w118" />
<path d="M357.13 169.46l28.33 0l0 14.52l-28.33 0Z" id="p175w119" />
<path d="M388.66 169.46l13.9 0l0 14.52l-13.9 0Z" id="p175w120" />
<path d="M405.77 169.46l38.49 0l0 14.52l-38.49 0Z" id="p175w121" />
<path d="M447.46 169.46l46.25 0l0 14.52l-46.25 0Z" id="p175w122" />
<path d="M500.63 169.46l54.55 0l0 14.52l-54.55 0Z" id="p175w123" />
<path d="M558.39 169.46l13.9 0l0 14.52l-13.9 0Z" id="p175w124" />
<path d="M575.5 169.46l28.06 0l0 14.52l-28.06 0Z" id="p175w125" />
<path d="M606.77 169.46l60.14 0l0 14.52l-60.14 0Z" id="p175w126" />
<path d="M124.44 186.13l31.8 0l0 14.52l-31.8 0Z" id="p175w127" />
<path d="M159.44 186.13l9.89 0l0 14.52l-9.89 0Z" id="p175w128" />
<path d="M172.54 186.13l36.55 0l0 14.52l-36.55 0Z" id="p175w129" />
<path d="M212.29 186.13l13.9 0l0 14.52l-13.9 0Z" id="p175w130" />
<path d="M229.13 186.13l27.08 0l0 14.52l-27.08 0Z" id="p175w131" />
<path d="M259.43 186.13l40.1 0l0 14.52l-40.1 0Z" id="p175w132" />
<path d="M302.73 186.13l18.7 0l0 14.52l-18.7 0Z" id="p175w133" />
<path d="M324.65 186.13l32.87 0l0 14.52l-32.87 0Z" id="p175w134" />
<path d="M364.44 186.13l13.9 0l0 14.52l-13.9 0Z" id="p175w135" />
<path d="M381.55 186.13l45.17 0l0 14.52l-45.17 0Z" id="p175w136" />
<path d="M429.92 186.13l54.53 0l0 14.52l-54.53 0Z" id="p175w137" />
<path d="M487.66 186.13l26.2 0l0 14.52l-26.2 0Z" id="p175w138" />
<path d="M517.07 186.13l9.89 0l0 14.52l-9.89 0Z" id="p175w139" />
<path d="M530.16 186.13l29.92 0l0 14.52l-29.92 0Z" id="p175w140" />
<path d="M563.29 186.13l13.9 0l0 14.52l-13.9 0Z" id="p175w141" />
<path d="M579.96 186.13l52.11 0l0 14.52l-52.11 0Z" id="p175w142" />
<path d="M124.45 202.8l19.77 0l0 14.52l-19.77 0Z" id="p175w143" />
<path d="M147.43 202.8l52.92 0l0 14.52l-52.92 0Z" id="p175w144" />
<path d="M207.27 202.81l50.51 0l0 14.52l-50.51 0Z" id="p175w145" />
<path d="M270.87 202.81l9.89 0l0 14.52l-9.89 0Z" id="p175w146" />
<path d="M283.97 202.81l7.48 0l0 14.52l-7.48 0Z" id="p175w147" />
<path d="M301.88 202.81l13.9 0l0 14.52l-13.9 0Z" id="p175w148" />
<path d="M318.99 202.81l9.89 0l0 14.52l-9.89 0Z" id="p175w149" />
<path d="M332.08 202.81l50.24 0l0 14.52l-50.24 0Z" id="p175w150" />
<path d="M385.52 202.81l37.68 0l0 14.52l-37.68 0Z" id="p175w151" />
<path d="M426.42 202.81l54.8 0l0 14.52l-54.8 0Z" id="p175w152" />
<path d="M484.43 202.81l46.51 0l0 14.52l-46.51 0Z" id="p175w153" />
<path d="M534.15 202.81l9.89 0l0 14.52l-9.89 0Z" id="p175w154" />
<path d="M547.24 202.81l47.6 0l0 14.52l-47.6 0Z" id="p175w155" />
<path d="M124.44 219.48l37.68 0l0 14.52l-37.68 0Z" id="p175w156" />
<path d="M165.33 219.48l54.8 0l0 14.52l-54.8 0Z" id="p175w157" />
<path d="M223.34 219.48l63.82 0l0 14.52l-63.82 0Z" id="p175w158" />
<path d="M290.37 219.48l39.58 0l0 14.52l-39.58 0Z" id="p175w159" />
<path d="M336.57 219.48l40.1 0l0 14.52l-40.1 0Z" id="p175w160" />
<path d="M379.88 219.48l38.77 0l0 14.52l-38.77 0Z" id="p175w161" />
<path d="M421.85 219.48l9.89 0l0 14.52l-9.89 0Z" id="p175w162" />
<path d="M434.94 219.48l53.19 0l0 14.52l-53.19 0Z" id="p175w163" />
<path d="M495.06 219.48l13.9 0l0 14.52l-13.9 0Z" id="p175w164" />
<path d="M512.17 219.48l60.72 0l0 14.52l-60.72 0Z" id="p175w165" />
<path d="M576.09 219.48l13.9 0l0 14.52l-13.9 0Z" id="p175w166" />
<path d="M592.94 219.48l27.36 0l0 14.52l-27.36 0Z" id="p175w167" />
<path d="M124.44 236.15l65.69 0l0 14.52l-65.69 0Z" id="p175w168" />
<path d="M193.34 236.15l40.1 0l0 14.52l-40.1 0Z" id="p175w169" />
<path d="M236.64 236.15l18.7 0l0 14.52l-18.7 0Z" id="p175w170" />
<path d="M258.56 236.15l32.87 0l0 14.52l-32.87 0Z" id="p175w171" />
<path d="M294.63 236.15l13.9 0l0 14.52l-13.9 0Z" id="p175w172" />
<path d="M311.74 236.15l9.89 0l0 14.52l-9.89 0Z" id="p175w173" />
<path d="M324.83 236.15l35.76 0l0 14.52l-35.76 0Z" id="p175w174" />
<path d="M363.79 236.15l57.13 0l0 14.52l-57.13 0Z" id="p175w175" />
<path d="M424.13 236.15l26.2 0l0 14.52l-26.2 0Z" id="p175w176" />
<path d="M453.54 236.15l60.72 0l0 14.52l-60.72 0Z" id="p175w177" />
<path d="M517.46 236.15l11.22 0l0 14.52l-11.22 0Z" id="p175w178" />
<path d="M531.89 236.15l15.5 0l0 14.52l-15.5 0Z" id="p175w179" />
<path d="M550.59 236.15l62.82 0l0 14.52l-62.82 0Z" id="p175w180" />
<path d="M124.44 252.82l74.85 0l0 14.52l-74.85 0Z" id="p175w181" />
<path d="M202.5 252.82l19.77 0l0 14.52l-19.77 0Z" id="p175w182" />
<path d="M225.48 252.82l16.83 0l0 14.52l-16.83 0Z" id="p175w183" />
<path d="M245.52 252.82l47.58 0l0 14.52l-47.58 0Z" id="p175w184" />
<path d="M296.31 252.82l20.85 0l0 14.52l-20.85 0Z" id="p175w185" />
<path d="M320.37 252.82l35.76 0l0 14.52l-35.76 0Z" id="p175w186" />
<path d="M359.33 252.82l69.24 0l0 14.52l-69.24 0Z" id="p175w187" />
<path d="M613.17 297.8l20.81 0l0 12.56l-20.81 0Z" id="p175w188" />
<path d="M636.68 297.8l31.57 0l0 12.56l-31.57 0Z" id="p175w189" />
<path d="M124.44 314.96l54.49 0l0 15.37l-54.49 0Z" id="p175w190" />
<path d="M124.44 336.25l50.76 0l0 14.52l-50.76 0Z" id="p175w191" />
<path d="M178.42 336.25l16.83 0l0 14.52l-16.83 0Z" id="p175w192" />
<path d="M198.45 336.25l9.89 0l0 14.52l-9.89 0Z" id="p175w193" />
<path d="M211.55 336.25l47.5 0l0 14.52l-47.5 0Z" id="p175w194" />
<path d="M265.98 336.25l13.9 0l0 14.52l-13.9 0Z" id="p175w195" />
<path d="M283.08 336.25l9.89 0l0 14.52l-9.89 0Z" id="p175w196" />
<path d="M296.18 336.25l35.76 0l0 14.52l-35.76 0Z" id="p175w197" />
<path d="M335.14 336.25l113.97 0l0 14.52l-113.97 0Z" id="p175w198" />
<path d="M452.32 336.25l34.96 0l0 14.52l-34.96 0Z" id="p175w199" />
<path d="M490.5 336.25l26.2 0l0 14.52l-26.2 0Z" id="p175w200" />
<path d="M519.9 336.25l17.9 0l0 14.52l-17.9 0Z" id="p175w201" />
<path d="M584.36 336.25l52.92 0l0 14.52l-52.92 0Z" id="p175w202" />
<path d="M124.45 352.92l19.77 0l0 14.52l-19.77 0Z" id="p175w203" />
<path d="M147.43 352.92l16.83 0l0 14.52l-16.83 0Z" id="p175w204" />
<path d="M167.46 352.92l9.89 0l0 14.52l-9.89 0Z" id="p175w205" />
<path d="M180.56 352.92l54.26 0l0 14.52l-54.26 0Z" id="p175w206" />
<path d="M238.03 352.92l22.45 0l0 14.52l-22.45 0Z" id="p175w207" />
<path d="M269.99 352.92l13.9 0l0 14.52l-13.9 0Z" id="p175w208" />
<path d="M287.1 352.92l39.57 0l0 14.52l-39.57 0Z" id="p175w209" />
<path d="M329.87 352.92l50.76 0l0 14.52l-50.76 0Z" id="p175w210" />
<path d="M383.85 352.92l16.83 0l0 14.52l-16.83 0Z" id="p175w211" />
<path d="M403.88 352.92l28.06 0l0 14.52l-28.06 0Z" id="p175w212" />
<path d="M435.15 352.92l9.89 0l0 14.52l-9.89 0Z" id="p175w213" />
<path d="M448.25 352.92l22.99 0l0 14.52l-22.99 0Z" id="p175w214" />
<path d="M474.45 352.92l32.34 0l0 14.52l-32.34 0Z" id="p175w215" />
<path d="M516.86 352.92l22.45 0l0 14.52l-22.45 0Z" id="p175w216" />
<path d="M542.52 352.92l13.9 0l0 14.52l-13.9 0Z" id="p175w217" />
<path d="M559.63 352.92l36.89 0l0 14.52l-36.89 0Z" id="p175w218" />
<path d="M606.14 352.92l19.77 0l0 14.52l-19.77 0Z" id="p175w219" />
<path d="M629.12 352.92l32.6 0l0 14.52l-32.6 0Z" id="p175w220" />
<path d="M124.45 369.59l13.9 0l0 14.52l-13.9 0Z" id="p175w221" />
<path d="M141.55 369.59l26.19 0l0 14.52l-26.19 0Z" id="p175w222" />
<path d="M170.95 369.59l36.89 0l0 14.52l-36.89 0Z" id="p175w223" />
<path d="M211.05 369.59l19.07 0l0 14.52l-19.07 0Z" id="p175w224" />
<path d="M255.78 369.59l14.62 0l0 14.52l-14.62 0Z" id="p175w225" />
<path d="M273.61 369.59l19.72 0l0 14.52l-19.72 0Z" id="p175w226" />
<path d="M124.44 386.26l50.76 0l0 14.52l-50.76 0Z" id="p175w227" />
<path d="M178.41 386.26l16.83 0l0 14.52l-16.83 0Z" id="p175w228" />
<path d="M198.45 386.26l20.85 0l0 14.52l-20.85 0Z" id="p175w229" />
<path d="M222.51 386.26l22.45 0l0 14.52l-22.45 0Z" id="p175w230" />
<path d="M248.17 386.26l80.73 0l0 14.52l-80.73 0Z" id="p175w231" />
<path d="M332.1 386.26l11.22 0l0 14.52l-11.22 0Z" id="p175w232" />
<path d="M356.42 386.26l37.68 0l0 14.52l-37.68 0Z" id="p175w233" />
<path d="M397.31 386.26l13.9 0l0 14.52l-13.9 0Z" id="p175w234" />
<path d="M414.41 386.26l56.41 0l0 14.52l-56.41 0Z" id="p175w235" />
<path d="M480.91 386.27l41.96 0l0 14.52l-41.96 0Z" id="p175w236" />
<path d="M526.08 386.27l11.22 0l0 14.52l-11.22 0Z" id="p175w237" />
<path d="M540.51 386.27l64.94 0l0 14.52l-64.94 0Z" id="p175w238" />
<path d="M613.17 431.13l20.81 0l0 12.56l-20.81 0Z" id="p175w239" />
<path d="M636.68 431.13l31.57 0l0 12.56l-31.57 0Z" id="p175w240" />
<path d="M124.44 448.28l19.58 0l0 15.37l-19.58 0Z" id="p175w241" />
<path d="M147.4 448.28l55.46 0l0 15.37l-55.46 0Z" id="p175w242" />
<path d="M206.24 448.28l102.15 0l0 15.37l-102.15 0Z" id="p175w243" />
<path d="M124.44 469.57l6.96 0l0 14.52l-6.96 0Z" id="p175w244" />
<path d="M134.61 469.57l32.6 0l0 14.52l-32.6 0Z" id="p175w245" />
<path d="M170.42 469.57l49.99 0l0 14.52l-49.99 0Z" id="p175w246" />
<path d="M223.61 469.57l70.76 0l0 14.52l-70.76 0Z" id="p175w247" />
<path d="M297.58 469.57l62.39 0l0 14.52l-62.39 0Z" id="p175w248" />
<path d="M363.18 469.57l96.41 0l0 14.52l-96.41 0Z" id="p175w249" />
<path d="M462.79 469.57l41.43 0l0 14.52l-41.43 0Z" id="p175w250" />
<path d="M507.43 469.57l9.89 0l0 14.52l-9.89 0Z" id="p175w251" />
<path d="M520.53 469.57l65.15 0l0 14.52l-65.15 0Z" id="p175w252" />
<path d="M124.44 486.24l41.89 0l0 14.52l-41.89 0Z" id="p175w253" />
<path d="M169.55 486.24l39.04 0l0 14.52l-39.04 0Z" id="p175w254" />
<path d="M211.8 486.24l11.22 0l0 14.52l-11.22 0Z" id="p175w255" />
<path d="M226.22 486.24l9.89 0l0 14.52l-9.89 0Z" id="p175w256" />
<path d="M239.32 486.24l65.15 0l0 14.52l-65.15 0Z" id="p175w257" />
<path d="M307.24 486.24l45.18 0l0 14.52l-45.18 0Z" id="p175w258" />
<path d="M355.63 486.24l26.19 0l0 14.52l-26.19 0Z" id="p175w259" />
<path d="M385.03 486.24l31.55 0l0 14.52l-31.55 0Z" id="p175w260" />
<path d="M419.78 486.24l17.38 0l0 14.52l-17.38 0Z" id="p175w261" />
<path d="M440.37 486.24l44.9 0l0 14.52l-44.9 0Z" id="p175w262" />
<path d="M495.35 486.24l18.18 0l0 14.52l-18.18 0Z" id="p175w263" />
<path d="M516.73 486.24l26.74 0l0 14.52l-26.74 0Z" id="p175w264" />
<path d="M546.68 486.24l73.44 0l0 14.52l-73.44 0Z" id="p175w265" />
<path d="M124.45 502.92l12.83 0l0 14.52l-12.83 0Z" id="p175w266" />
<path d="M140.49 502.92l65.15 0l0 14.52l-65.15 0Z" id="p175w267" />
<path d="M208.85 502.92l41.89 0l0 14.52l-41.89 0Z" id="p175w268" />
<path d="M253.95 502.92l39.04 0l0 14.52l-39.04 0Z" id="p175w269" />
<path d="M296.2 502.92l50.59 0l0 14.52l-50.59 0Z" id="p175w270" />
<path d="M356.87 502.92l19.52 0l0 14.52l-19.52 0Z" id="p175w271" />
<path d="M379.59 502.92l35 0l0 14.52l-35 0Z" id="p175w272" />
<path d="M417.81 502.92l13.9 0l0 14.52l-13.9 0Z" id="p175w273" />
<path d="M434.91 502.92l9.89 0l0 14.52l-9.89 0Z" id="p175w274" />
<path d="M471.39 502.92l9.89 0l0 14.52l-9.89 0Z" id="p175w275" />
<path d="M489.65 503.43l10.38 0l0 8.42l-10.38 0Z" id="p175w276" />
<path d="M505.92 502.92l18.44 0l0 14.52l-18.44 0Z" id="p175w277" />
<path d="M527.57 502.92l66.55 0l0 14.52l-66.55 0Z" id="p175w278" />
<path d="M124.45 519.59l43.83 0l0 14.52l-43.83 0Z" id="p175w279" />
<path d="M171.49 519.59l43.56 0l0 14.52l-43.56 0Z" id="p175w280" />
<path d="M218.26 519.59l24.59 0l0 14.52l-24.59 0Z" id="p175w281" />
<path d="M246.05 519.59l26.73 0l0 14.52l-26.73 0Z" id="p175w282" />
<path d="M275.99 519.59l26.73 0l0 14.52l-26.73 0Z" id="p175w283" />
<path d="M305.93 519.59l20.85 0l0 14.52l-20.85 0Z" id="p175w284" />
<path d="M329.99 519.59l38.21 0l0 14.52l-38.21 0Z" id="p175w285" />
<path d="M371.41 519.59l13.9 0l0 14.52l-13.9 0Z" id="p175w286" />
<path d="M388.51 519.59l62.21 0l0 14.52l-62.21 0Z" id="p175w287" />
<path d="M453.93 519.59l22.99 0l0 14.52l-22.99 0Z" id="p175w288" />
<path d="M480.13 519.59l51.86 0l0 14.52l-51.86 0Z" id="p175w289" />
<path d="M541.75 519.59l24.59 0l0 14.52l-24.59 0Z" id="p175w290" />
<path d="M569.55 519.59l26.73 0l0 14.52l-26.73 0Z" id="p175w291" />
<path d="M599.48 519.59l14.18 0l0 14.52l-14.18 0Z" id="p175w292" />
<path d="M124.44 536.26l81.27 0l0 14.52l-81.27 0Z" id="p175w293" />
<path d="M208.91 536.26l51.85 0l0 14.52l-51.85 0Z" id="p175w294" />
<path d="M263.97 536.26l26.73 0l0 14.52l-26.73 0Z" id="p175w295" />
<path d="M293.9 536.26l21.38 0l0 14.52l-21.38 0Z" id="p175w296" />
<path d="M318.49 536.26l38.21 0l0 14.52l-38.21 0Z" id="p175w297" />
<path d="M359.91 536.26l13.9 0l0 14.52l-13.9 0Z" id="p175w298" />
<path d="M377.02 536.26l39.57 0l0 14.52l-39.57 0Z" id="p175w299" />
<path d="M124.44 552.93l12.83 0l0 14.52l-12.83 0Z" id="p175w300" />
<path d="M140.48 552.93l65.15 0l0 14.52l-65.15 0Z" id="p175w301" />
<path d="M208.4 552.93l42.5 0l0 14.52l-42.5 0Z" id="p175w302" />
<path d="M254.11 552.93l50.59 0l0 14.52l-50.59 0Z" id="p175w303" />
<path d="M307.91 552.93l19.52 0l0 14.52l-19.52 0Z" id="p175w304" />
<path d="M330.64 552.93l35 0l0 14.52l-35 0Z" id="p175w305" />
<path d="M368.85 552.93l13.9 0l0 14.52l-13.9 0Z" id="p175w306" />
<path d="M399.45 552.94l11.22 0l0 14.52l-11.22 0Z" id="p175w307" />
<path d="M420.3 553.45l12.25 0l0 8.42l-12.25 0Z" id="p175w308" />
<path d="M471.14 552.91l34.49 0l0 14.52l-34.49 0Z" id="p175w309" />
<path d="M508.84 552.94l13.9 0l0 14.52l-13.9 0Z" id="p175w310" />
<path d="M525.94 552.94l63.81 0l0 14.52l-63.81 0Z" id="p175w311" />
<path d="M592.96 552.94l11.22 0l0 14.52l-11.22 0Z" id="p175w312" />
<path d="M607.38 552.94l25.4 0l0 14.52l-25.4 0Z" id="p175w313" />
<path d="M635.99 552.94l14.7 0l0 14.52l-14.7 0Z" id="p175w314" />
<path d="M653.9 552.94l29.41 0l0 14.52l-29.41 0Z" id="p175w315" />
<path d="M613.17 606.19l20.81 0l0 12.56l-20.81 0Z" id="p175w316" />
<path d="M636.68 606.19l31.57 0l0 12.56l-31.57 0Z" id="p175w317" />
<path d="M124.44 623.35l48.66 0l0 15.37l-48.66 0Z" id="p175w318" />
<path d="M176.48 623.35l52.59 0l0 15.37l-52.59 0Z" id="p175w319" />
<path d="M237.91 623.35l46.52 0l0 15.37l-46.52 0Z" id="p175w320" />
<path d="M287.81 623.35l45.7 0l0 15.37l-45.7 0Z" id="p175w321" />
<path d="M124.44 644.64l6.96 0l0 14.52l-6.96 0Z" id="p175w322" />
<path d="M153.59 644.64l44.11 0l0 14.52l-44.11 0Z" id="p175w323" />
<path d="M200.91 644.64l49.99 0l0 14.52l-49.99 0Z" id="p175w324" />
<path d="M254.1 644.64l28.06 0l0 14.52l-28.06 0Z" id="p175w325" />
<path d="M285.37 644.64l25.67 0l0 14.52l-25.67 0Z" id="p175w326" />
<path d="M314.25 644.64l32.87 0l0 14.52l-32.87 0Z" id="p175w327" />
<path d="M350.32 644.64l13.9 0l0 14.52l-13.9 0Z" id="p175w328" />
<path d="M367.43 644.64l9.89 0l0 14.52l-9.89 0Z" id="p175w329" />
<path d="M380.52 644.64l35.27 0l0 14.52l-35.27 0Z" id="p175w330" />
<path d="M419 644.64l35.03 0l0 14.52l-35.03 0Z" id="p175w331" />
<path d="M457.24 644.64l54.53 0l0 14.52l-54.53 0Z" id="p175w332" />
<path d="M514.97 644.64l36.63 0l0 14.52l-36.63 0Z" id="p175w333" />
<path d="M554.81 644.64l9.89 0l0 14.52l-9.89 0Z" id="p175w334" />
<path d="M567.9 644.64l21.4 0l0 14.52l-21.4 0Z" id="p175w335" />
<path d="M592.5 644.64l22.45 0l0 14.52l-22.45 0Z" id="p175w336" />
<path d="M124.44 661.31l13.63 0l0 14.52l-13.63 0Z" id="p175w337" />
<path d="M141.29 661.31l21.4 0l0 14.52l-21.4 0Z" id="p175w338" />
<path d="M165.89 661.31l47.31 0l0 14.52l-47.31 0Z" id="p175w339" />
<path d="M224.69 661.31l40.63 0l0 14.52l-40.63 0Z" id="p175w340" />
<path d="M268.53 661.31l9.89 0l0 14.52l-9.89 0Z" id="p175w341" />
<path d="M281.62 661.31l43.83 0l0 14.52l-43.83 0Z" id="p175w342" />
<path d="M328.66 661.31l49.44 0l0 14.52l-49.44 0Z" id="p175w343" />
<path d="M381.32 661.31l11.22 0l0 14.52l-11.22 0Z" id="p175w344" />
<path d="M395.74 661.31l25.67 0l0 14.52l-25.67 0Z" id="p175w345" />
<path d="M424.62 661.31l23.51 0l0 14.52l-23.51 0Z" id="p175w346" />
<path d="M451.34 661.31l22.72 0l0 14.52l-22.72 0Z" id="p175w347" />
<path d="M477.26 661.31l32.23 0l0 14.52l-32.23 0Z" id="p175w348" />
<path d="M512.7 661.31l26.2 0l0 14.52l-26.2 0Z" id="p175w349" />
<path d="M124.44 677.98l32.87 0l0 14.52l-32.87 0Z" id="p175w350" />
<path d="M160.52 677.98l51.58 0l0 14.52l-51.58 0Z" id="p175w351" />
<path d="M225.19 677.98l43.31 0l0 14.52l-43.31 0Z" id="p175w352" />
<path d="M271.71 677.98l14.18 0l0 14.52l-14.18 0Z" id="p175w353" />
<path d="M289.09 677.98l43.83 0l0 14.52l-43.83 0Z" id="p175w354" />
<path d="M336.13 677.98l44.11 0l0 14.52l-44.11 0Z" id="p175w355" />
<path d="M383.45 677.98l35.27 0l0 14.52l-35.27 0Z" id="p175w356" />
<path d="M421.93 677.98l8.82 0l0 14.52l-8.82 0Z" id="p175w357" />
<path d="M433.95 677.98l28.87 0l0 14.52l-28.87 0Z" id="p175w358" />
<path d="M466.03 677.98l81.27 0l0 14.52l-81.27 0Z" id="p175w359" />
<path d="M550.5 677.98l11.22 0l0 14.52l-11.22 0Z" id="p175w360" />
<path d="M564.93 677.98l17.9 0l0 14.52l-17.9 0Z" id="p175w361" />
<path d="M586.04 677.98l26.45 0l0 14.52l-26.45 0Z" id="p175w362" />
<path d="M124.44 694.65l50.78 0l0 14.52l-50.78 0Z" id="p175w363" />
<path d="M178.43 694.65l81.72 0l0 14.52l-81.72 0Z" id="p175w364" />
<path d="M263.35 694.65l27.8 0l0 14.52l-27.8 0Z" id="p175w365" />
<path d="M294.36 694.65l20.85 0l0 14.52l-20.85 0Z" id="p175w366" />
<path d="M318.42 694.65l37.9 0l0 14.52l-37.9 0Z" id="p175w367" />
<path d="M359.52 694.65l54.45 0l0 14.52l-54.45 0Z" id="p175w368" />
<path d="M426.73 694.66l14.18 0l0 14.52l-14.18 0Z" id="p175w369" />
<path d="M454 694.66l20.58 0l0 14.52l-20.58 0Z" id="p175w370" />
<path d="M477.78 694.66l18.7 0l0 14.52l-18.7 0Z" id="p175w371" />
<path d="M499.69 694.66l13.9 0l0 14.52l-13.9 0Z" id="p175w372" />
<path d="M516.8 694.66l12.29 0l0 14.52l-12.29 0Z" id="p175w373" />
<path d="M532.3 694.66l45.17 0l0 14.52l-45.17 0Z" id="p175w374" />
</svg>
