<?xml version="1.0" encoding="UTF-8"?>
<svg xmlns="http://www.w3.org/2000/svg" xmlns:xlink="http://www.w3.org/1999/xlink" version="1.1" baseProfile="full" width="768" height="1024" viewBox="0,0,768,1024" preserveAspectRatio="xMinYMin meet" >
<style type="text/css">
<![CDATA[
path {fill-opacity: 0.5;fill: #00aeef;visibility: hidden;}
]]>
</style>
<path d="M572.94 38.6l71 0l0 16.09l-71 0Z" id="p205w1" />
<path d="M619.36 983.66l69.87 0l0 12.23l-69.87 0Z" id="p205w2" />
<path d="M59.08 110.01l14.31 0l0 14.6l-14.31 0Z" id="p205w3" />
<path d="M76.59 110.01l7.91 0l0 14.6l-7.91 0Z" id="p205w4" />
<path d="M84.5 110.01l26.44 0l0 14.6l-26.44 0Z" id="p205w5" />
<path d="M114.24 108.77l39.48 0l0 16.35l-39.48 0Z" id="p205w6" />
<path d="M232.37 110.09l17.11 0l0 14.52l-17.11 0Z" id="p205w7" />
<path d="M252.68 110.09l30.44 0l0 14.52l-30.44 0Z" id="p205w8" />
<path d="M286.33 110.09l17.11 0l0 14.52l-17.11 0Z" id="p205w9" />
<path d="M306.64 110.09l33.68 0l0 14.52l-33.68 0Z" id="p205w10" />
<path d="M417.48 110.09l25.4 0l0 14.52l-25.4 0Z" id="p205w11" />
<path d="M446.08 110.09l16.83 0l0 14.52l-16.83 0Z" id="p205w12" />
<path d="M466.12 110.09l9.89 0l0 14.52l-9.89 0Z" id="p205w13" />
<path d="M479.21 110.09l7.48 0l0 14.52l-7.48 0Z" id="p205w14" />
<path d="M486.7 110.09l26.46 0l0 14.52l-26.46 0Z" id="p205w15" />
<path d="M516.37 110.09l17.38 0l0 14.52l-17.38 0Z" id="p205w16" />
<path d="M536.96 110.09l45.15 0l0 14.52l-45.15 0Z" id="p205w17" />
<path d="M585.32 110.09l26.99 0l0 14.52l-26.99 0Z" id="p205w18" />
<path d="M427.1 126.76l26.19 0l0 14.52l-26.19 0Z" id="p205w19" />
<path d="M456.49 126.76l9.89 0l0 14.52l-9.89 0Z" id="p205w20" />
<path d="M469.59 126.76l33.42 0l0 14.52l-33.42 0Z" id="p205w21" />
<path d="M442.82 143.45l28.59 0l0 14.61l-28.59 0Z" id="p205w22" />
<path d="M59.08 161.51l14.31 0l0 14.6l-14.31 0Z" id="p205w23" />
<path d="M76.59 161.51l15.51 0l0 14.6l-15.51 0Z" id="p205w24" />
<path d="M95.4 160.27l30.78 0l0 16.35l-30.78 0Z" id="p205w25" />
<path d="M232.37 161.59l17.11 0l0 14.52l-17.11 0Z" id="p205w26" />
<path d="M252.68 161.59l20.31 0l0 14.52l-20.31 0Z" id="p205w27" />
<path d="M417.48 161.59l15.6 0l0 14.52l-15.6 0Z" id="p205w28" />
<path d="M436.29 161.59l31.8 0l0 14.52l-31.8 0Z" id="p205w29" />
<path d="M471.29 161.59l23.24 0l0 14.52l-23.24 0Z" id="p205w30" />
<path d="M497.74 161.59l50.62 0l0 14.52l-50.62 0Z" id="p205w31" />
<path d="M551.57 161.59l13.63 0l0 14.52l-13.63 0Z" id="p205w32" />
<path d="M568.41 161.59l25.67 0l0 14.52l-25.67 0Z" id="p205w33" />
<path d="M417.48 178.26l23.97 0l0 14.52l-23.97 0Z" id="p205w34" />
<path d="M444.65 178.26l18.45 0l0 14.52l-18.45 0Z" id="p205w35" />
<path d="M435.2 194.94l27.98 0l0 14.61l-27.98 0Z" id="p205w36" />
<path d="M487.33 194.94l22.9 0l0 14.61l-22.9 0Z" id="p205w37" />
<path d="M59.07 213l20.99 0l0 14.6l-20.99 0Z" id="p205w38" />
<path d="M83.27 213l27.24 0l0 14.6l-27.24 0Z" id="p205w39" />
<path d="M113.81 211.76l44.69 0l0 16.35l-44.69 0Z" id="p205w40" />
<path d="M232.37 213.08l17.11 0l0 14.52l-17.11 0Z" id="p205w41" />
<path d="M252.42 213.08l27.44 0l0 14.52l-27.44 0Z" id="p205w42" />
<path d="M417.48 213.08l14.7 0l0 14.52l-14.7 0Z" id="p205w43" />
<path d="M435.39 213.08l44.65 0l0 14.52l-44.65 0Z" id="p205w44" />
<path d="M483.25 213.08l6.41 0l0 14.52l-6.41 0Z" id="p205w45" />
<path d="M511.85 213.08l19.51 0l0 14.52l-19.51 0Z" id="p205w46" />
<path d="M534.57 213.08l44.84 0l0 14.52l-44.84 0Z" id="p205w47" />
<path d="M582.61 213.08l35.28 0l0 14.52l-35.28 0Z" id="p205w48" />
<path d="M435.2 229.76l32.6 0l0 14.61l-32.6 0Z" id="p205w49" />
<path d="M59.08 247.82l14.31 0l0 14.6l-14.31 0Z" id="p205w50" />
<path d="M76.59 247.82l56.89 0l0 14.6l-56.89 0Z" id="p205w51" />
<path d="M136.78 246.58l54.84 0l0 16.35l-54.84 0Z" id="p205w52" />
<path d="M232.37 247.9l17.11 0l0 14.52l-17.11 0Z" id="p205w53" />
<path d="M252.42 247.9l79.66 0l0 14.52l-79.66 0Z" id="p205w54" />
<path d="M436.15 247.8l58.53 0l0 14.61l-58.53 0Z" id="p205w55" />
<path d="M497.71 247.8l50.98 0l0 14.61l-50.98 0Z" id="p205w56" />
<path d="M59.07 268.52l42.2 0l0 14.6l-42.2 0Z" id="p205w57" />
<path d="M104.48 268.52l13.87 0l0 14.6l-13.87 0Z" id="p205w58" />
<path d="M121.56 268.52l32.19 0l0 14.6l-32.19 0Z" id="p205w59" />
<path d="M157.05 267.28l33.67 0l0 16.35l-33.67 0Z" id="p205w60" />
<path d="M232.37 268.6l39.57 0l0 14.52l-39.57 0Z" id="p205w61" />
<path d="M275.15 268.6l15.77 0l0 14.52l-15.77 0Z" id="p205w62" />
<path d="M294.13 268.6l48.1 0l0 14.52l-48.1 0Z" id="p205w63" />
<path d="M417.47 268.6l26.19 0l0 14.52l-26.19 0Z" id="p205w64" />
<path d="M446.87 268.6l41.71 0l0 14.52l-41.71 0Z" id="p205w65" />
<path d="M491.79 268.6l13.9 0l0 14.52l-13.9 0Z" id="p205w66" />
<path d="M508.89 268.6l9.89 0l0 14.52l-9.89 0Z" id="p205w67" />
<path d="M521.99 268.6l38.44 0l0 14.52l-38.44 0Z" id="p205w68" />
<path d="M59.07 289.23l83.91 0l0 14.6l-83.91 0Z" id="p205w69" />
<path d="M59.07 304.66l79.57 0l0 16.35l-79.57 0Z" id="p205w70" />
<path d="M232.37 289.31l42.25 0l0 14.52l-42.25 0Z" id="p205w71" />
<path d="M417.47 289.31l36.11 0l0 14.52l-36.11 0Z" id="p205w72" />
<path d="M456.79 289.31l25.4 0l0 14.52l-25.4 0Z" id="p205w73" />
<path d="M435.2 306.01l16.05 0l0 14.61l-16.05 0Z" id="p205w74" />
<path d="M59.08 324.07l20.99 0l0 14.6l-20.99 0Z" id="p205w75" />
<path d="M83.27 324.07l47.39 0l0 14.6l-47.39 0Z" id="p205w76" />
<path d="M133.96 322.83l58.55 0l0 16.35l-58.55 0Z" id="p205w77" />
<path d="M232.37 324.15l23.79 0l0 14.52l-23.79 0Z" id="p205w78" />
<path d="M259.36 324.15l40.65 0l0 14.52l-40.65 0Z" id="p205w79" />
<path d="M59.08 368.17l47.08 0l0 18.44l-47.08 0Z" id="p205w80" />
<path d="M59.08 395.33l6.07 0l0 14.6l-6.07 0Z" id="p205w81" />
<path d="M63.92 395.33l54.53 0l0 14.6l-54.53 0Z" id="p205w82" />
<path d="M139.47 394.09l52.59 0l0 16.35l-52.59 0Z" id="p205w83" />
<path d="M232.37 395.37l45.96 0l0 14.52l-45.96 0Z" id="p205w84" />
<path d="M59.08 416l20.99 0l0 14.6l-20.99 0Z" id="p205w85" />
<path d="M83.27 416l40.55 0l0 14.6l-40.55 0Z" id="p205w86" />
<path d="M127.12 414.76l54.38 0l0 16.35l-54.38 0Z" id="p205w87" />
<path d="M232.37 416.08l23.79 0l0 14.52l-23.79 0Z" id="p205w88" />
<path d="M259.36 416.08l45.38 0l0 14.52l-45.38 0Z" id="p205w89" />
<path d="M59.08 436.71l14.31 0l0 14.6l-14.31 0Z" id="p205w90" />
<path d="M76.59 436.71l25.66 0l0 14.6l-25.66 0Z" id="p205w91" />
<path d="M105.55 435.47l41.76 0l0 16.35l-41.76 0Z" id="p205w92" />
<path d="M232.37 436.79l17.11 0l0 14.52l-17.11 0Z" id="p205w93" />
<path d="M252.68 436.79l52.93 0l0 14.52l-52.93 0Z" id="p205w94" />
<path d="M436.15 436.7l9.82 0l0 14.61l-9.82 0Z" id="p205w95" />
<path d="M449.18 436.7l38.15 0l0 14.61l-38.15 0Z" id="p205w96" />
<path d="M59.07 457.43l14.31 0l0 14.6l-14.31 0Z" id="p205w97" />
<path d="M78.49 457.43l20.99 0l0 14.6l-20.99 0Z" id="p205w98" />
<path d="M102.68 457.43l46.53 0l0 14.6l-46.53 0Z" id="p205w99" />
<path d="M152.51 456.19l59.95 0l0 16.35l-59.95 0Z" id="p205w100" />
<path d="M232.37 457.51l17.11 0l0 14.52l-17.11 0Z" id="p205w101" />
<path d="M252.68 457.51l69.67 0l0 14.52l-69.67 0Z" id="p205w102" />
<path d="M325.55 457.51l44.68 0l0 14.52l-44.68 0Z" id="p205w103" />
<path d="M417.47 457.51l17.63 0l0 14.52l-17.63 0Z" id="p205w104" />
<path d="M438.32 457.51l47.06 0l0 14.52l-47.06 0Z" id="p205w105" />
<path d="M488.58 457.51l46.73 0l0 14.52l-46.73 0Z" id="p205w106" />
<path d="M538.51 457.51l16.83 0l0 14.52l-16.83 0Z" id="p205w107" />
<path d="M558.55 457.51l21.37 0l0 14.52l-21.37 0Z" id="p205w108" />
<path d="M583.12 457.51l39.03 0l0 14.52l-39.03 0Z" id="p205w109" />
<path d="M59.07 478.14l33.47 0l0 14.6l-33.47 0Z" id="p205w110" />
<path d="M95.85 476.9l31.56 0l0 16.35l-31.56 0Z" id="p205w111" />
<path d="M232.37 478.22l52.36 0l0 14.52l-52.36 0Z" id="p205w112" />
<path d="M287.94 478.22l40.1 0l0 14.52l-40.1 0Z" id="p205w113" />
<path d="M432.86 478.13l12.02 0l0 14.61l-12.02 0Z" id="p205w114" />
<path d="M59.08 498.86l20.99 0l0 14.6l-20.99 0Z" id="p205w115" />
<path d="M83.27 498.86l23.9 0l0 14.6l-23.9 0Z" id="p205w116" />
<path d="M110.48 497.62l35.06 0l0 16.35l-35.06 0Z" id="p205w117" />
<path d="M232.37 498.94l23.79 0l0 14.52l-23.79 0Z" id="p205w118" />
<path d="M259.36 498.94l28.83 0l0 14.52l-28.83 0Z" id="p205w119" />
<path d="M291.4 498.94l23.79 0l0 14.52l-23.79 0Z" id="p205w120" />
<path d="M232.37 515.61l80.13 0l0 14.52l-80.13 0Z" id="p205w121" />
<path d="M417.48 498.94l12.57 0l0 14.52l-12.57 0Z" id="p205w122" />
<path d="M433.25 498.94l18.72 0l0 14.52l-18.72 0Z" id="p205w123" />
<path d="M455.18 498.94l36.89 0l0 14.52l-36.89 0Z" id="p205w124" />
<path d="M495.28 498.94l35.82 0l0 14.52l-35.82 0Z" id="p205w125" />
<path d="M435.7 515.63l28.26 0l0 14.61l-28.26 0Z" id="p205w126" />
<path d="M467.17 515.63l14.44 0l0 14.61l-14.44 0Z" id="p205w127" />
<path d="M435.2 532.3l23.72 0l0 14.61l-23.72 0Z" id="p205w128" />
<path d="M59.08 550.36l14.31 0l0 14.6l-14.31 0Z" id="p205w129" />
<path d="M76.59 550.36l38.49 0l0 14.6l-38.49 0Z" id="p205w130" />
<path d="M118.38 549.12l54.41 0l0 16.35l-54.41 0Z" id="p205w131" />
<path d="M232.37 550.44l23.79 0l0 14.52l-23.79 0Z" id="p205w132" />
<path d="M259.36 550.44l62.45 0l0 14.52l-62.45 0Z" id="p205w133" />
<path d="M325.02 550.44l23.79 0l0 14.52l-23.79 0Z" id="p205w134" />
<path d="M352.01 550.44l33.94 0l0 14.52l-33.94 0Z" id="p205w135" />
<path d="M417.48 550.44l23.8 0l0 14.52l-23.8 0Z" id="p205w136" />
<path d="M444.48 550.44l44.11 0l0 14.52l-44.11 0Z" id="p205w137" />
<path d="M491.8 550.44l14.18 0l0 14.52l-14.18 0Z" id="p205w138" />
<path d="M509.19 550.44l40.9 0l0 14.52l-40.9 0Z" id="p205w139" />
<path d="M435.7 567.12l14.16 0l0 14.61l-14.16 0Z" id="p205w140" />
<path d="M453.07 567.12l73.28 0l0 14.61l-73.28 0Z" id="p205w141" />
<path d="M529.56 567.12l54.26 0l0 14.61l-54.26 0Z" id="p205w142" />
<path d="M435.2 583.79l70.3 0l0 14.61l-70.3 0Z" id="p205w143" />
<path d="M59.08 601.85l53.29 0l0 14.6l-53.29 0Z" id="p205w144" />
<path d="M115.57 601.85l12.67 0l0 14.6l-12.67 0Z" id="p205w145" />
<path d="M131.54 600.61l49.72 0l0 16.35l-49.72 0Z" id="p205w146" />
<path d="M232.37 601.93l18.7 0l0 14.52l-18.7 0Z" id="p205w147" />
<path d="M254.28 601.93l23.09 0l0 14.52l-23.09 0Z" id="p205w148" />
<path d="M280.57 601.93l83.08 0l0 14.52l-83.08 0Z" id="p205w149" />
<path d="M232.37 618.6l18.7 0l0 14.52l-18.7 0Z" id="p205w150" />
<path d="M254.28 618.6l23.09 0l0 14.52l-23.09 0Z" id="p205w151" />
<path d="M280.57 618.6l56.93 0l0 14.52l-56.93 0Z" id="p205w152" />
<path d="M417.48 601.93l63.11 0l0 14.52l-63.11 0Z" id="p205w153" />
<path d="M483.79 601.93l29.94 0l0 14.52l-29.94 0Z" id="p205w154" />
<path d="M516.93 601.93l37.25 0l0 14.52l-37.25 0Z" id="p205w155" />
<path d="M435.2 618.61l59.53 0l0 14.61l-59.53 0Z" id="p205w156" />
<path d="M518.87 618.61l11.5 0l0 14.61l-11.5 0Z" id="p205w157" />
<path d="M533.58 618.61l48.38 0l0 14.61l-48.38 0Z" id="p205w158" />
<path d="M59.07 636.67l14.31 0l0 14.6l-14.31 0Z" id="p205w159" />
<path d="M76.59 636.67l48.31 0l0 14.6l-48.31 0Z" id="p205w160" />
<path d="M128.2 635.43l67.17 0l0 16.35l-67.17 0Z" id="p205w161" />
<path d="M232.37 636.75l17.11 0l0 14.52l-17.11 0Z" id="p205w162" />
<path d="M252.68 636.75l55.54 0l0 14.52l-55.54 0Z" id="p205w163" />
<path d="M435.2 641.06l37.79 0l0 14.61l-37.79 0Z" id="p205w164" />
<path d="M59.08 659.12l27.6 0l0 14.6l-27.6 0Z" id="p205w165" />
<path d="M89.88 659.12l67.8 0l0 14.6l-67.8 0Z" id="p205w166" />
<path d="M160.9 659.12l13.87 0l0 14.6l-13.87 0Z" id="p205w167" />
<path d="M177.98 659.12l25.64 0l0 14.6l-25.64 0Z" id="p205w168" />
<path d="M59.08 675.79l12.67 0l0 14.6l-12.67 0Z" id="p205w169" />
<path d="M75.05 674.55l113.71 0l0 16.35l-113.71 0Z" id="p205w170" />
<path d="M232.37 659.2l21.12 0l0 14.52l-21.12 0Z" id="p205w171" />
<path d="M256.7 659.2l48.14 0l0 14.52l-48.14 0Z" id="p205w172" />
<path d="M308.04 659.2l35.02 0l0 14.52l-35.02 0Z" id="p205w173" />
<path d="M346.27 659.2l23.09 0l0 14.52l-23.09 0Z" id="p205w174" />
<path d="M232.37 675.87l12.84 0l0 14.52l-12.84 0Z" id="p205w175" />
<path d="M248.42 675.87l18.72 0l0 14.52l-18.72 0Z" id="p205w176" />
<path d="M417.48 659.2l15.6 0l0 14.52l-15.6 0Z" id="p205w177" />
<path d="M436.29 659.2l66.81 0l0 14.52l-66.81 0Z" id="p205w178" />
<path d="M506.31 659.2l13.9 0l0 14.52l-13.9 0Z" id="p205w179" />
<path d="M523.41 659.2l25.38 0l0 14.52l-25.38 0Z" id="p205w180" />
<path d="M552 659.2l54.55 0l0 14.52l-54.55 0Z" id="p205w181" />
<path d="M417.48 675.87l13.9 0l0 14.52l-13.9 0Z" id="p205w182" />
<path d="M434.58 675.87l37.42 0l0 14.52l-37.42 0Z" id="p205w183" />
<path d="M59.08 693.94l90.64 0l0 14.6l-90.64 0Z" id="p205w184" />
<path d="M59.08 709.37l71.84 0l0 16.35l-71.84 0Z" id="p205w185" />
<path d="M232.37 694.02l46.77 0l0 14.52l-46.77 0Z" id="p205w186" />
<path d="M417.48 694.02l28.88 0l0 14.52l-28.88 0Z" id="p205w187" />
<path d="M449.56 694.02l27.08 0l0 14.52l-27.08 0Z" id="p205w188" />
<path d="M479.86 694.02l19.6 0l0 14.52l-19.6 0Z" id="p205w189" />
<path d="M502.67 694.02l41.97 0l0 14.52l-41.97 0Z" id="p205w190" />
<path d="M59.08 728.74l14.31 0l0 14.6l-14.31 0Z" id="p205w191" />
<path d="M76.59 728.74l62.43 0l0 14.6l-62.43 0Z" id="p205w192" />
<path d="M59.08 745.41l20.99 0l0 14.6l-20.99 0Z" id="p205w193" />
<path d="M83.27 745.41l64 0l0 14.6l-64 0Z" id="p205w194" />
<path d="M59.08 760.84l131.28 0l0 16.35l-131.28 0Z" id="p205w195" />
<path d="M232.37 728.82l17.11 0l0 14.52l-17.11 0Z" id="p205w196" />
<path d="M252.68 728.82l58.14 0l0 14.52l-58.14 0Z" id="p205w197" />
<path d="M232.37 745.49l23.79 0l0 14.52l-23.79 0Z" id="p205w198" />
<path d="M259.36 745.49l63.62 0l0 14.52l-63.62 0Z" id="p205w199" />
<path d="M59.08 780.22l20.99 0l0 14.6l-20.99 0Z" id="p205w200" />
<path d="M83.27 780.22l60.32 0l0 14.6l-60.32 0Z" id="p205w201" />
<path d="M59.08 795.65l73.11 0l0 16.35l-73.11 0Z" id="p205w202" />
<path d="M232.37 780.3l17.11 0l0 14.52l-17.11 0Z" id="p205w203" />
<path d="M252.68 780.3l51.07 0l0 14.52l-51.07 0Z" id="p205w204" />
<path d="M417.48 780.3l27.8 0l0 14.52l-27.8 0Z" id="p205w205" />
<path d="M448.48 780.3l9.89 0l0 14.52l-9.89 0Z" id="p205w206" />
<path d="M461.58 780.3l43.84 0l0 14.52l-43.84 0Z" id="p205w207" />
<path d="M508.62 780.3l14.18 0l0 14.52l-14.18 0Z" id="p205w208" />
<path d="M526 780.3l44.65 0l0 14.52l-44.65 0Z" id="p205w209" />
<path d="M573.86 780.3l6.41 0l0 14.52l-6.41 0Z" id="p205w210" />
<path d="M417.48 796.97l54.55 0l0 14.52l-54.55 0Z" id="p205w211" />
<path d="M475.24 796.97l74.48 0l0 14.52l-74.48 0Z" id="p205w212" />
<path d="M552.93 796.97l20.85 0l0 14.52l-20.85 0Z" id="p205w213" />
<path d="M576.99 796.97l46.5 0l0 14.52l-46.5 0Z" id="p205w214" />
<path d="M626.7 796.97l13.9 0l0 14.52l-13.9 0Z" id="p205w215" />
<path d="M417.48 813.64l41.71 0l0 14.52l-41.71 0Z" id="p205w216" />
<path d="M462.39 813.64l22.19 0l0 14.52l-22.19 0Z" id="p205w217" />
<path d="M59.08 831.71l21.38 0l0 14.6l-21.38 0Z" id="p205w218" />
<path d="M83.67 831.71l41.6 0l0 14.6l-41.6 0Z" id="p205w219" />
<path d="M128.57 830.47l55.81 0l0 16.35l-55.81 0Z" id="p205w220" />
<path d="M232.37 831.79l41.84 0l0 14.52l-41.84 0Z" id="p205w221" />
<path d="M417.48 831.79l26.19 0l0 14.52l-26.19 0Z" id="p205w222" />
<path d="M446.87 831.79l49.71 0l0 14.52l-49.71 0Z" id="p205w223" />
<path d="M499.79 831.79l21.4 0l0 14.52l-21.4 0Z" id="p205w224" />
<path d="M524.39 831.79l44.64 0l0 14.52l-44.64 0Z" id="p205w225" />
<path d="M432.86 848.47l59.63 0l0 14.61l-59.63 0Z" id="p205w226" />
</svg>
