<?xml version="1.0" encoding="UTF-8"?>
<svg xmlns="http://www.w3.org/2000/svg" xmlns:xlink="http://www.w3.org/1999/xlink" version="1.1" baseProfile="full" width="768" height="1024" viewBox="0,0,768,1024" preserveAspectRatio="xMinYMin meet" >
<style type="text/css">
<![CDATA[
path {fill-opacity: 0.5;fill: #00aeef;visibility: hidden;}
]]>
</style>
<path d="M572.94 38.6l71 0l0 16.09l-71 0Z" id="p191w1" />
<path d="M583.7 983.66l105.53 0l0 12.23l-105.53 0Z" id="p191w2" />
<path d="M59.08 110.01l10.02 0l0 14.6l-10.02 0Z" id="p191w3" />
<path d="M72.3 110.01l53.42 0l0 14.6l-53.42 0Z" id="p191w4" />
<path d="M128.93 110.01l13.87 0l0 14.6l-13.87 0Z" id="p191w5" />
<path d="M59.08 126.68l10.03 0l0 14.6l-10.03 0Z" id="p191w6" />
<path d="M72.32 126.68l63.3 0l0 14.6l-63.3 0Z" id="p191w7" />
<path d="M59.08 142.11l130.57 0l0 16.35l-130.57 0Z" id="p191w8" />
<path d="M91.38 169.15l19.51 0l0 14.52l-19.51 0Z" id="p191w9" />
<path d="M114.1 169.09l53.42 0l0 14.6l-53.42 0Z" id="p191w10" />
<path d="M170.72 169.09l13.87 0l0 14.6l-13.87 0Z" id="p191w11" />
<path d="M187.8 169.09l10.03 0l0 14.6l-10.03 0Z" id="p191w12" />
<path d="M201.04 169.09l63.3 0l0 14.6l-63.3 0Z" id="p191w13" />
<path d="M267.55 169.15l13.36 0l0 14.52l-13.36 0Z" id="p191w14" />
<path d="M284.12 169.15l19.51 0l0 14.52l-19.51 0Z" id="p191w15" />
<path d="M306.84 169.15l38.66 0l0 14.52l-38.66 0ZM64.98 185.82l58.01 0l0 14.52l-58.01 0Z" id="p191w16" />
<path d="M126.2 185.82l63.62 0l0 14.52l-63.62 0Z" id="p191w17" />
<path d="M193.03 185.82l21.4 0l0 14.52l-21.4 0Z" id="p191w18" />
<path d="M217.63 185.82l24.59 0l0 14.52l-24.59 0Z" id="p191w19" />
<path d="M245.43 185.82l15.77 0l0 14.52l-15.77 0Z" id="p191w20" />
<path d="M264.41 185.82l17.11 0l0 14.52l-17.11 0Z" id="p191w21" />
<path d="M284.73 185.82l33.14 0l0 14.52l-33.14 0Z" id="p191w22" />
<path d="M321.08 185.82l28.33 0l0 14.52l-28.33 0Z" id="p191w23" />
<path d="M64.98 202.49l68.37 0l0 14.52l-68.37 0Z" id="p191w24" />
<path d="M136.56 202.49l49.17 0l0 14.52l-49.17 0Z" id="p191w25" />
<path d="M188.94 202.49l10.43 0l0 14.52l-10.43 0Z" id="p191w26" />
<path d="M202.57 202.49l60.31 0l0 14.52l-60.31 0Z" id="p191w27" />
<path d="M266.09 202.49l24.06 0l0 14.52l-24.06 0Z" id="p191w28" />
<path d="M292.92 202.49l23.01 0l0 14.52l-23.01 0Z" id="p191w29" />
<path d="M319.14 202.49l47.95 0l0 14.52l-47.95 0Z" id="p191w30" />
<path d="M64.98 219.16l18.18 0l0 14.52l-18.18 0Z" id="p191w31" />
<path d="M86.37 219.16l53.93 0l0 14.52l-53.93 0Z" id="p191w32" />
<path d="M143.51 219.16l21.4 0l0 14.52l-21.4 0Z" id="p191w33" />
<path d="M168.11 219.16l77.08 0l0 14.52l-77.08 0Z" id="p191w34" />
<path d="M248.4 219.16l19.51 0l0 14.52l-19.51 0Z" id="p191w35" />
<path d="M271.12 219.16l76.73 0l0 14.52l-76.73 0Z" id="p191w36" />
<path d="M64.98 235.83l66.29 0l0 14.52l-66.29 0Z" id="p191w37" />
<path d="M134.48 235.83l23.26 0l0 14.52l-23.26 0Z" id="p191w38" />
<path d="M160.94 235.83l18.7 0l0 14.52l-18.7 0Z" id="p191w39" />
<path d="M182.85 235.83l35.02 0l0 14.52l-35.02 0Z" id="p191w40" />
<path d="M221.08 235.83l19.51 0l0 14.52l-19.51 0Z" id="p191w41" />
<path d="M243.8 235.83l92.63 0l0 14.52l-92.63 0Z" id="p191w42" />
<path d="M64.98 252.5l18.44 0l0 14.52l-18.44 0Z" id="p191w43" />
<path d="M86.63 252.5l92.5 0l0 14.52l-92.5 0Z" id="p191w44" />
<path d="M182.34 252.5l70.35 0l0 14.52l-70.35 0Z" id="p191w45" />
<path d="M232.37 110.09l18.44 0l0 14.52l-18.44 0Z" id="p191w46" />
<path d="M254.02 110.09l55.29 0l0 14.52l-55.29 0Z" id="p191w47" />
<path d="M232.37 126.76l18.44 0l0 14.52l-18.44 0Z" id="p191w48" />
<path d="M254.02 126.76l87.66 0l0 14.52l-87.66 0Z" id="p191w49" />
<path d="M59.08 282.45l14.31 0l0 14.6l-14.31 0Z" id="p191w50" />
<path d="M76.59 282.45l52.96 0l0 14.6l-52.96 0Z" id="p191w51" />
<path d="M129.55 282.45l20.99 0l0 14.6l-20.99 0Z" id="p191w52" />
<path d="M153.74 282.45l54.53 0l0 14.6l-54.53 0Z" id="p191w53" />
<path d="M59.08 297.88l122.82 0l0 16.35l-122.82 0Z" id="p191w54" />
<path d="M232.37 282.53l17.11 0l0 14.52l-17.11 0Z" id="p191w55" />
<path d="M252.68 282.53l72.75 0l0 14.52l-72.75 0Z" id="p191w56" />
<path d="M232.37 299.2l23.79 0l0 14.52l-23.79 0Z" id="p191w57" />
<path d="M259.36 299.2l63.26 0l0 14.52l-63.26 0Z" id="p191w58" />
<path d="M417.48 282.53l6.96 0l0 14.52l-6.96 0Z" id="p191w59" />
<path d="M467.83 282.53l53.19 0l0 14.52l-53.19 0Z" id="p191w60" />
<path d="M524.23 282.53l26.73 0l0 14.52l-26.73 0Z" id="p191w61" />
<path d="M554.17 282.53l12.57 0l0 14.52l-12.57 0Z" id="p191w62" />
<path d="M569.94 282.53l39.56 0l0 14.52l-39.56 0Z" id="p191w63" />
<path d="M435.2 299.22l54.26 0l0 14.61l-54.26 0Z" id="p191w64" />
<path d="M59.08 317.27l14.31 0l0 14.6l-14.31 0Z" id="p191w65" />
<path d="M76.59 317.27l46.61 0l0 14.6l-46.61 0Z" id="p191w66" />
<path d="M123.2 317.27l20.99 0l0 14.6l-20.99 0Z" id="p191w67" />
<path d="M147.39 317.27l49.29 0l0 14.6l-49.29 0Z" id="p191w68" />
<path d="M59.08 332.7l107.89 0l0 16.35l-107.89 0Z" id="p191w69" />
<path d="M232.37 317.35l17.11 0l0 14.52l-17.11 0Z" id="p191w70" />
<path d="M252.68 317.35l56.55 0l0 14.52l-56.55 0Z" id="p191w71" />
<path d="M232.37 334.02l23.79 0l0 14.52l-23.79 0Z" id="p191w72" />
<path d="M259.36 334.02l62.02 0l0 14.52l-62.02 0Z" id="p191w73" />
<path d="M417.48 317.35l49.46 0l0 14.52l-49.46 0Z" id="p191w74" />
<path d="M470.14 317.35l13.9 0l0 14.52l-13.9 0Z" id="p191w75" />
<path d="M487.25 317.35l46.5 0l0 14.52l-46.5 0Z" id="p191w76" />
<path d="M536.96 317.35l24.33 0l0 14.52l-24.33 0Z" id="p191w77" />
<path d="M564.49 317.35l32.62 0l0 14.52l-32.62 0Z" id="p191w78" />
<path d="M417.48 334.02l61.94 0l0 14.52l-61.94 0Z" id="p191w79" />
<path d="M435.7 350.71l35.39 0l0 14.61l-35.39 0Z" id="p191w80" />
<path d="M474.13 350.71l20.84 0l0 14.61l-20.84 0Z" id="p191w81" />
<path d="M498.17 350.71l29.13 0l0 14.61l-29.13 0Z" id="p191w82" />
<path d="M435.2 367.38l33.95 0l0 14.61l-33.95 0Z" id="p191w83" />
<path d="M59.08 385.44l14.31 0l0 14.6l-14.31 0Z" id="p191w84" />
<path d="M76.59 385.44l23.77 0l0 14.6l-23.77 0Z" id="p191w85" />
<path d="M103.57 385.44l33.21 0l0 14.6l-33.21 0Z" id="p191w86" />
<path d="M140.08 384.2l51.26 0l0 16.35l-51.26 0Z" id="p191w87" />
<path d="M232.37 385.52l17.11 0l0 14.52l-17.11 0Z" id="p191w88" />
<path d="M252.68 385.52l59.07 0l0 14.52l-59.07 0Z" id="p191w89" />
<path d="M417.48 385.52l18.44 0l0 14.52l-18.44 0Z" id="p191w90" />
<path d="M439.12 385.52l29.67 0l0 14.52l-29.67 0Z" id="p191w91" />
<path d="M472 385.52l32.51 0l0 14.52l-32.51 0Z" id="p191w92" />
<path d="M507.72 385.52l12.29 0l0 14.52l-12.29 0Z" id="p191w93" />
<path d="M523.22 385.52l24.33 0l0 14.52l-24.33 0Z" id="p191w94" />
<path d="M550.75 385.52l52.39 0l0 14.52l-52.39 0Z" id="p191w95" />
<path d="M417.48 402.19l29.67 0l0 14.52l-29.67 0Z" id="p191w96" />
<path d="M59.08 420.26l58.49 0l0 14.6l-58.49 0Z" id="p191w97" />
<path d="M120.86 419.02l47.02 0l0 16.35l-47.02 0Z" id="p191w98" />
<path d="M232.37 420.34l22.98 0l0 14.52l-22.98 0Z" id="p191w99" />
<path d="M417.48 420.34l15.6 0l0 14.52l-15.6 0Z" id="p191w100" />
<path d="M436.29 420.34l52.65 0l0 14.52l-52.65 0Z" id="p191w101" />
<path d="M492.15 420.34l60.88 0l0 14.52l-60.88 0Z" id="p191w102" />
<path d="M556.23 420.34l11.22 0l0 14.52l-11.22 0Z" id="p191w103" />
<path d="M570.65 420.34l12.02 0l0 14.52l-12.02 0Z" id="p191w104" />
<path d="M585.89 420.34l18.72 0l0 14.52l-18.72 0Z" id="p191w105" />
<path d="M607.81 420.34l14.97 0l0 14.52l-14.97 0Z" id="p191w106" />
<path d="M417.48 437.01l19.8 0l0 14.52l-19.8 0Z" id="p191w107" />
<path d="M435.7 453.69l32.05 0l0 14.61l-32.05 0Z" id="p191w108" />
<path d="M59.07 471.75l63.95 0l0 14.6l-63.95 0Z" id="p191w109" />
<path d="M126.32 470.51l50.72 0l0 16.35l-50.72 0Z" id="p191w110" />
<path d="M232.37 471.83l45.7 0l0 14.52l-45.7 0Z" id="p191w111" />
<path d="M281.27 471.83l40.38 0l0 14.52l-40.38 0Z" id="p191w112" />
<path d="M417.47 471.83l12.41 0l0 14.52l-12.41 0Z" id="p191w113" />
<path d="M433.09 471.83l17.46 0l0 14.52l-17.46 0Z" id="p191w114" />
<path d="M453.76 471.83l13.11 0l0 14.52l-13.11 0Z" id="p191w115" />
<path d="M470.07 471.83l64.14 0l0 14.52l-64.14 0Z" id="p191w116" />
<path d="M435.7 488.51l35.27 0l0 14.61l-35.27 0Z" id="p191w117" />
<path d="M435.2 505.18l44.36 0l0 14.61l-44.36 0Z" id="p191w118" />
<path d="M59.08 523.24l100.8 0l0 14.6l-100.8 0Z" id="p191w119" />
<path d="M59.08 538.67l75.65 0l0 16.35l-75.65 0Z" id="p191w120" />
<path d="M232.37 523.32l59.89 0l0 14.52l-59.89 0Z" id="p191w121" />
<path d="M417.48 523.32l26.19 0l0 14.52l-26.19 0Z" id="p191w122" />
<path d="M446.87 523.32l9.89 0l0 14.52l-9.89 0Z" id="p191w123" />
<path d="M459.97 523.32l43.82 0l0 14.52l-43.82 0Z" id="p191w124" />
<path d="M506.99 523.32l7.48 0l0 14.52l-7.48 0Z" id="p191w125" />
<path d="M514.48 523.32l14.16 0l0 14.52l-14.16 0Z" id="p191w126" />
<path d="M531.85 523.32l13.9 0l0 14.52l-13.9 0Z" id="p191w127" />
<path d="M548.96 523.32l28.33 0l0 14.52l-28.33 0Z" id="p191w128" />
<path d="M580.49 523.32l40.1 0l0 14.52l-40.1 0Z" id="p191w129" />
<path d="M417.48 539.99l19.77 0l0 14.52l-19.77 0Z" id="p191w130" />
<path d="M440.46 539.99l16.83 0l0 14.52l-16.83 0Z" id="p191w131" />
<path d="M460.49 539.99l37.96 0l0 14.52l-37.96 0Z" id="p191w132" />
<path d="M501.66 539.99l54.02 0l0 14.52l-54.02 0Z" id="p191w133" />
<path d="M432.86 556.67l33.95 0l0 14.61l-33.95 0Z" id="p191w134" />
<path d="M435.7 573.35l52.59 0l0 14.61l-52.59 0Z" id="p191w135" />
<path d="M59.07 591.4l14.31 0l0 14.6l-14.31 0Z" id="p191w136" />
<path d="M76.59 591.4l42.81 0l0 14.6l-42.81 0Z" id="p191w137" />
<path d="M122.69 590.16l50.26 0l0 16.35l-50.26 0Z" id="p191w138" />
<path d="M232.37 591.48l17.11 0l0 14.52l-17.11 0Z" id="p191w139" />
<path d="M252.68 591.48l38.49 0l0 14.52l-38.49 0Z" id="p191w140" />
<path d="M435.2 595.8l42.33 0l0 14.61l-42.33 0Z" id="p191w141" />
<path d="M59.08 613.85l18.52 0l0 14.6l-18.52 0Z" id="p191w142" />
<path d="M80.89 612.61l28.56 0l0 16.35l-28.56 0Z" id="p191w143" />
<path d="M232.37 613.93l34.73 0l0 14.52l-34.73 0Z" id="p191w144" />
<path d="M270.3 613.93l20.33 0l0 14.52l-20.33 0Z" id="p191w145" />
<path d="M417.48 613.93l26.19 0l0 14.52l-26.19 0Z" id="p191w146" />
<path d="M446.87 613.93l14.18 0l0 14.52l-14.18 0Z" id="p191w147" />
<path d="M464.26 613.93l41.96 0l0 14.52l-41.96 0Z" id="p191w148" />
<path d="M509.42 613.93l18.44 0l0 14.52l-18.44 0Z" id="p191w149" />
<path d="M531.07 613.93l28.07 0l0 14.52l-28.07 0Z" id="p191w150" />
<path d="M562.09 613.93l41.88 0l0 14.52l-41.88 0Z" id="p191w151" />
<path d="M59.08 634.56l20.99 0l0 14.6l-20.99 0Z" id="p191w152" />
<path d="M83.27 634.56l32.35 0l0 14.6l-32.35 0Z" id="p191w153" />
<path d="M118.92 633.32l55.77 0l0 16.35l-55.77 0Z" id="p191w154" />
<path d="M232.37 634.64l23.79 0l0 14.52l-23.79 0Z" id="p191w155" />
<path d="M259.36 634.64l51.77 0l0 14.52l-51.77 0Z" id="p191w156" />
<path d="M314.34 634.64l17.11 0l0 14.52l-17.11 0Z" id="p191w157" />
<path d="M334.65 634.64l27.53 0l0 14.52l-27.53 0Z" id="p191w158" />
<path d="M417.48 634.64l10.43 0l0 14.52l-10.43 0Z" id="p191w159" />
<path d="M431.11 634.64l35.56 0l0 14.52l-35.56 0Z" id="p191w160" />
<path d="M469.88 634.64l18.18 0l0 14.52l-18.18 0Z" id="p191w161" />
<path d="M491.26 634.64l37.68 0l0 14.52l-37.68 0Z" id="p191w162" />
<path d="M532.15 634.64l42.7 0l0 14.52l-42.7 0Z" id="p191w163" />
<path d="M574.85 634.64l26.46 0l0 14.52l-26.46 0Z" id="p191w164" />
<path d="M429.72 651.33l14.16 0l0 14.61l-14.16 0Z" id="p191w165" />
<path d="M447.09 651.33l53.18 0l0 14.61l-53.18 0Z" id="p191w166" />
<path d="M59.07 669.39l47.23 0l0 14.6l-47.23 0Z" id="p191w167" />
<path d="M109.51 669.39l12.67 0l0 14.6l-12.67 0Z" id="p191w168" />
<path d="M125.48 668.15l44.2 0l0 16.35l-44.2 0Z" id="p191w169" />
<path d="M232.37 669.47l23.09 0l0 14.52l-23.09 0Z" id="p191w170" />
<path d="M258.66 669.47l50 0l0 14.52l-50 0Z" id="p191w171" />
<path d="M417.47 669.47l10.43 0l0 14.52l-10.43 0Z" id="p191w172" />
<path d="M431.11 669.47l13.9 0l0 14.52l-13.9 0Z" id="p191w173" />
<path d="M448.22 669.47l21.11 0l0 14.52l-21.11 0Z" id="p191w174" />
<path d="M472.53 669.47l19.51 0l0 14.52l-19.51 0Z" id="p191w175" />
<path d="M495.24 669.47l48.12 0l0 14.52l-48.12 0Z" id="p191w176" />
<path d="M59.07 690.1l21.87 0l0 14.6l-21.87 0Z" id="p191w177" />
<path d="M84.15 690.1l31.57 0l0 14.6l-31.57 0Z" id="p191w178" />
<path d="M119.02 688.86l37.39 0l0 16.35l-37.39 0Z" id="p191w179" />
<path d="M232.37 690.2l33.68 0l0 14.52l-33.68 0Z" id="p191w180" />
<path d="M269.26 690.18l49.58 0l0 14.52l-49.58 0Z" id="p191w181" />
<path d="M417.47 690.18l10.43 0l0 14.52l-10.43 0Z" id="p191w182" />
<path d="M431.11 690.18l13.9 0l0 14.52l-13.9 0Z" id="p191w183" />
<path d="M448.22 690.18l21.11 0l0 14.52l-21.11 0Z" id="p191w184" />
<path d="M472.53 690.18l19.51 0l0 14.52l-19.51 0Z" id="p191w185" />
<path d="M495.24 690.18l24.34 0l0 14.52l-24.34 0Z" id="p191w186" />
<path d="M522.79 690.18l28.06 0l0 14.52l-28.06 0Z" id="p191w187" />
<path d="M554.06 690.18l21.65 0l0 14.52l-21.65 0Z" id="p191w188" />
<path d="M578.92 690.18l13.9 0l0 14.52l-13.9 0Z" id="p191w189" />
<path d="M417.47 706.85l59.05 0l0 14.52l-59.05 0Z" id="p191w190" />
<path d="M59.07 724.92l44.9 0l0 14.6l-44.9 0Z" id="p191w191" />
<path d="M107.28 723.68l31.4 0l0 16.35l-31.4 0Z" id="p191w192" />
<path d="M232.37 725l42.46 0l0 14.52l-42.46 0Z" id="p191w193" />
<path d="M278.04 725l30.48 0l0 14.52l-30.48 0Z" id="p191w194" />
<path d="M311.72 725l56.66 0l0 14.52l-56.66 0Z" id="p191w195" />
<path d="M417.47 725l12.41 0l0 14.52l-12.41 0Z" id="p191w196" />
<path d="M433.09 725l12.29 0l0 14.52l-12.29 0Z" id="p191w197" />
<path d="M448.59 725l54.55 0l0 14.52l-54.55 0Z" id="p191w198" />
<path d="M506.35 725l40.84 0l0 14.52l-40.84 0Z" id="p191w199" />
<path d="M550.39 725l46.78 0l0 14.52l-46.78 0Z" id="p191w200" />
<path d="M600.38 725l25.66 0l0 14.52l-25.66 0Z" id="p191w201" />
<path d="M435.7 741.68l14.16 0l0 14.61l-14.16 0Z" id="p191w202" />
<path d="M453.07 741.68l69.93 0l0 14.61l-69.93 0Z" id="p191w203" />
<path d="M435.2 758.36l11.5 0l0 14.61l-11.5 0Z" id="p191w204" />
<path d="M449.91 758.36l40.54 0l0 14.61l-40.54 0Z" id="p191w205" />
<path d="M59.08 776.41l14.31 0l0 14.6l-14.31 0Z" id="p191w206" />
<path d="M76.59 776.41l36.98 0l0 14.6l-36.98 0Z" id="p191w207" />
<path d="M116.88 775.17l42.4 0l0 16.35l-42.4 0Z" id="p191w208" />
<path d="M232.37 776.49l17.11 0l0 14.52l-17.11 0Z" id="p191w209" />
<path d="M252.68 776.49l23.52 0l0 14.52l-23.52 0Z" id="p191w210" />
<path d="M417.48 776.49l25.41 0l0 14.52l-25.41 0Z" id="p191w211" />
<path d="M446.09 776.49l48.12 0l0 14.52l-48.12 0Z" id="p191w212" />
<path d="M497.42 776.49l6.41 0l0 14.52l-6.41 0Z" id="p191w213" />
<path d="M507.05 776.49l22.45 0l0 14.52l-22.45 0Z" id="p191w214" />
<path d="M532.71 776.49l14.18 0l0 14.52l-14.18 0Z" id="p191w215" />
<path d="M550.09 776.49l39.59 0l0 14.52l-39.59 0Z" id="p191w216" />
<path d="M59.08 797.12l14.31 0l0 14.6l-14.31 0Z" id="p191w217" />
<path d="M76.59 797.12l40.6 0l0 14.6l-40.6 0Z" id="p191w218" />
<path d="M120.49 795.88l57.3 0l0 16.35l-57.3 0Z" id="p191w219" />
<path d="M232.37 797.2l17.11 0l0 14.52l-17.11 0Z" id="p191w220" />
<path d="M252.68 797.2l17.63 0l0 14.52l-17.63 0Z" id="p191w221" />
<path d="M417.48 797.2l28.07 0l0 14.52l-28.07 0Z" id="p191w222" />
<path d="M448.76 797.2l32.88 0l0 14.52l-32.88 0Z" id="p191w223" />
<path d="M484.85 797.2l33.94 0l0 14.52l-33.94 0Z" id="p191w224" />
<path d="M521.99 797.2l24.06 0l0 14.52l-24.06 0Z" id="p191w225" />
<path d="M549.26 797.2l15.5 0l0 14.52l-15.5 0Z" id="p191w226" />
<path d="M567.96 797.2l45.71 0l0 14.52l-45.71 0Z" id="p191w227" />
<path d="M417.48 813.87l70.81 0l0 14.52l-70.81 0Z" id="p191w228" />
<path d="M429.72 830.56l14.16 0l0 14.61l-14.16 0Z" id="p191w229" />
<path d="M447.09 830.56l20.04 0l0 14.61l-20.04 0Z" id="p191w230" />
<path d="M59.07 848.62l14.31 0l0 14.6l-14.31 0Z" id="p191w231" />
<path d="M76.59 848.62l30.99 0l0 14.6l-30.99 0Z" id="p191w232" />
<path d="M110.88 847.38l36.57 0l0 16.35l-36.57 0Z" id="p191w233" />
<path d="M232.37 848.7l17.11 0l0 14.52l-17.11 0Z" id="p191w234" />
<path d="M252.68 848.7l42.78 0l0 14.52l-42.78 0Z" id="p191w235" />
<path d="M428.43 848.7l29.67 0l0 14.52l-29.67 0Z" id="p191w236" />
<path d="M461.31 848.7l6.41 0l0 14.52l-6.41 0Z" id="p191w237" />
<path d="M489.91 848.7l49.99 0l0 14.52l-49.99 0Z" id="p191w238" />
<path d="M543.11 848.7l39.02 0l0 14.52l-39.02 0Z" id="p191w239" />
<path d="M59.07 869.33l14.31 0l0 14.6l-14.31 0Z" id="p191w240" />
<path d="M76.59 869.33l28.83 0l0 14.6l-28.83 0Z" id="p191w241" />
<path d="M108.72 868.09l34.56 0l0 16.35l-34.56 0Z" id="p191w242" />
<path d="M232.37 869.41l17.11 0l0 14.52l-17.11 0Z" id="p191w243" />
<path d="M252.32 869.41l62.83 0l0 14.52l-62.83 0Z" id="p191w244" />
<path d="M417.47 869.41l15.77 0l0 14.52l-15.77 0Z" id="p191w245" />
<path d="M436.45 869.41l12.29 0l0 14.52l-12.29 0Z" id="p191w246" />
<path d="M451.95 869.41l46.78 0l0 14.52l-46.78 0Z" id="p191w247" />
<path d="M501.94 869.41l17.11 0l0 14.52l-17.11 0Z" id="p191w248" />
<path d="M522.25 869.41l9.89 0l0 14.52l-9.89 0Z" id="p191w249" />
<path d="M535.35 869.41l28.88 0l0 14.52l-28.88 0Z" id="p191w250" />
<path d="M435.2 886.1l28.76 0l0 14.61l-28.76 0Z" id="p191w251" />
<path d="M59.08 904.15l27.6 0l0 14.6l-27.6 0Z" id="p191w252" />
<path d="M89.88 904.15l10.02 0l0 14.6l-10.02 0Z" id="p191w253" />
<path d="M103.11 904.15l26.7 0l0 14.6l-26.7 0Z" id="p191w254" />
<path d="M133.02 904.15l13.87 0l0 14.6l-13.87 0Z" id="p191w255" />
<path d="M150.1 904.15l25.65 0l0 14.6l-25.65 0Z" id="p191w256" />
<path d="M178.95 904.15l12.67 0l0 14.6l-12.67 0Z" id="p191w257" />
<path d="M59.08 919.58l80.32 0l0 16.35l-80.32 0Z" id="p191w258" />
<path d="M232.37 904.23l19.51 0l0 14.52l-19.51 0Z" id="p191w259" />
<path d="M255.09 904.23l31.64 0l0 14.52l-31.64 0Z" id="p191w260" />
<path d="M289.93 904.23l37.7 0l0 14.52l-37.7 0Z" id="p191w261" />
<path d="M330.84 904.23l23.09 0l0 14.52l-23.09 0Z" id="p191w262" />
<path d="M357.13 904.23l12.84 0l0 14.52l-12.84 0Z" id="p191w263" />
<path d="M232.37 920.9l21.62 0l0 14.52l-21.62 0Z" id="p191w264" />
<path d="M257.2 920.9l23.09 0l0 14.52l-23.09 0Z" id="p191w265" />
<path d="M283.49 920.9l18.72 0l0 14.52l-18.72 0Z" id="p191w266" />
<path d="M305.41 920.9l36.89 0l0 14.52l-36.89 0Z" id="p191w267" />
<path d="M417.48 904.23l45.17 0l0 14.52l-45.17 0Z" id="p191w268" />
<path d="M465.85 904.23l14.8 0l0 14.52l-14.8 0Z" id="p191w269" />
<path d="M483.86 904.23l9.89 0l0 14.52l-9.89 0Z" id="p191w270" />
<path d="M496.95 904.23l26.2 0l0 14.52l-26.2 0Z" id="p191w271" />
<path d="M526.36 904.23l13.9 0l0 14.52l-13.9 0Z" id="p191w272" />
<path d="M543.46 904.23l29.39 0l0 14.52l-29.39 0Z" id="p191w273" />
<path d="M576.07 904.23l41.96 0l0 14.52l-41.96 0Z" id="p191w274" />
<path d="M417.48 920.9l20.31 0l0 14.52l-20.31 0Z" id="p191w275" />
</svg>
