<?xml version="1.0" encoding="UTF-8"?>
<svg xmlns="http://www.w3.org/2000/svg" xmlns:xlink="http://www.w3.org/1999/xlink" version="1.1" baseProfile="full" width="768" height="1024" viewBox="0,0,768,1024" preserveAspectRatio="xMinYMin meet" >
<style type="text/css">
<![CDATA[
path {fill-opacity: 0.5;fill: #00aeef;visibility: hidden;}
]]>
</style>
<path d="M124.06 107.98l23.83 0l0 18.84l-23.83 0Z" id="p78w1" />
<path d="M151.54 107.98l18.36 0l0 18.84l-18.36 0Z" id="p78w2" />
<path d="M173.54 107.98l37.28 0l0 18.84l-37.28 0Z" id="p78w3" />
<path d="M143.75 139.19l35.55 0l0 14.52l-35.55 0Z" id="p78w4" />
<path d="M182.07 139.19l35.02 0l0 14.52l-35.02 0Z" id="p78w5" />
<path d="M220.3 139.19l18.7 0l0 14.52l-18.7 0Z" id="p78w6" />
<path d="M242.21 139.19l20.85 0l0 14.52l-20.85 0Z" id="p78w7" />
<path d="M266.27 139.19l23.24 0l0 14.52l-23.24 0Z" id="p78w8" />
<path d="M292.72 139.19l19.51 0l0 14.52l-19.51 0Z" id="p78w9" />
<path d="M315.44 139.19l37.96 0l0 14.52l-37.96 0Z" id="p78w10" />
<path d="M366.49 139.19l25.38 0l0 14.52l-25.38 0Z" id="p78w11" />
<path d="M395.08 139.19l31.1 0l0 14.52l-31.1 0Z" id="p78w12" />
<path d="M429.39 139.19l9.89 0l0 14.52l-9.89 0Z" id="p78w13" />
<path d="M442.48 139.19l39.56 0l0 14.52l-39.56 0Z" id="p78w14" />
<path d="M485.25 139.19l11.22 0l0 14.52l-11.22 0Z" id="p78w15" />
<path d="M499.67 139.19l30.21 0l0 14.52l-30.21 0Z" id="p78w16" />
<path d="M533.09 139.19l11.22 0l0 14.52l-11.22 0Z" id="p78w17" />
<path d="M547.52 139.19l42.33 0l0 14.52l-42.33 0Z" id="p78w18" />
<path d="M143.75 155.86l20.85 0l0 14.52l-20.85 0Z" id="p78w19" />
<path d="M167.82 155.86l23.24 0l0 14.52l-23.24 0Z" id="p78w20" />
<path d="M194.27 155.86l19.51 0l0 14.52l-19.51 0Z" id="p78w21" />
<path d="M216.98 155.86l37.96 0l0 14.52l-37.96 0Z" id="p78w22" />
<path d="M268.04 155.86l25.38 0l0 14.52l-25.38 0Z" id="p78w23" />
<path d="M296.63 155.86l35.29 0l0 14.52l-35.29 0Z" id="p78w24" />
<path d="M335.13 155.86l12.02 0l0 14.52l-12.02 0Z" id="p78w25" />
<path d="M350.36 155.86l35.28 0l0 14.52l-35.28 0Z" id="p78w26" />
<path d="M388.85 155.86l13.63 0l0 14.52l-13.63 0Z" id="p78w27" />
<path d="M405.7 155.86l44.65 0l0 14.52l-44.65 0Z" id="p78w28" />
<path d="M453.56 155.86l59.34 0l0 14.52l-59.34 0Z" id="p78w29" />
<path d="M516.11 155.86l15.5 0l0 14.52l-15.5 0Z" id="p78w30" />
<path d="M534.81 155.86l26.74 0l0 14.52l-26.74 0Z" id="p78w31" />
<path d="M564.76 155.86l31.53 0l0 14.52l-31.53 0Z" id="p78w32" />
<path d="M635.31 155.86l14.44 0l0 14.52l-14.44 0Z" id="p78w33" />
<path d="M652.96 155.86l23.52 0l0 14.52l-23.52 0Z" id="p78w34" />
<path d="M499.87 242.94l22.48 0l0 15.56l-22.48 0Z" id="p78w35" />
<path d="M525.51 242.94l12.71 0l0 15.56l-12.71 0Z" id="p78w36" />
<path d="M499.87 267.49l42.75 0l0 15.56l-42.75 0Z" id="p78w37" />
<path d="M545.79 267.49l13.67 0l0 15.56l-13.67 0Z" id="p78w38" />
<path d="M499.87 292.04l21.74 0l0 15.56l-21.74 0Z" id="p78w39" />
<path d="M524.78 292.04l12.47 0l0 15.56l-12.47 0Z" id="p78w40" />
<path d="M518.79 316.59l22.49 0l0 15.56l-22.49 0Z" id="p78w41" />
<path d="M544.45 316.59l9.04 0l0 15.56l-9.04 0Z" id="p78w42" />
<path d="M556.66 316.59l26.39 0l0 15.56l-26.39 0Z" id="p78w43" />
<path d="M499.87 341.13l22.48 0l0 15.56l-22.48 0Z" id="p78w44" />
<path d="M525.51 341.13l12.71 0l0 15.56l-12.71 0Z" id="p78w45" />
<path d="M560.31 341.13l23.71 0l0 15.56l-23.71 0Z" id="p78w46" />
<path d="M587.19 341.13l12.72 0l0 15.56l-12.72 0Z" id="p78w47" />
<path d="M603.08 341.13l20.78 0l0 15.56l-20.78 0Z" id="p78w48" />
<path d="M465.02 213.45l25.54 0l0 15.71l-25.54 0Z" id="p78w49" />
<path d="M493.99 213.45l13.45 0l0 15.71l-13.45 0Z" id="p78w50" />
<path d="M510.87 213.45l41.31 0l0 15.71l-41.31 0Z" id="p78w51" />
<path d="M189.32 243.15l37.14 0l0 15.56l-37.14 0Z" id="p78w52" />
<path d="M229.63 243.15l12.72 0l0 15.56l-12.72 0Z" id="p78w53" />
<path d="M264.44 243.15l12.21 0l0 15.56l-12.21 0Z" id="p78w54" />
<path d="M279.82 243.15l45.71 0l0 15.56l-45.71 0Z" id="p78w55" />
<path d="M189.32 267.7l29.06 0l0 15.56l-29.06 0Z" id="p78w56" />
<path d="M230.83 267.7l15.64 0l0 15.56l-15.64 0Z" id="p78w57" />
<path d="M268.56 267.7l22.98 0l0 15.56l-22.98 0Z" id="p78w58" />
<path d="M294.7 267.7l8.79 0l0 15.56l-8.79 0Z" id="p78w59" />
<path d="M306.66 267.7l31.28 0l0 15.56l-31.28 0Z" id="p78w60" />
<path d="M189.32 292.25l53.76 0l0 15.56l-53.76 0Z" id="p78w61" />
<path d="M246.24 292.25l12.47 0l0 15.56l-12.47 0Z" id="p78w62" />
<path d="M280.81 292.25l12.21 0l0 15.56l-12.21 0Z" id="p78w63" />
<path d="M296.18 292.25l9.04 0l0 15.56l-9.04 0Z" id="p78w64" />
<path d="M308.39 292.25l42.29 0l0 15.56l-42.29 0Z" id="p78w65" />
<path d="M353.85 292.25l36.18 0l0 15.56l-36.18 0Z" id="p78w66" />
<path d="M189.32 316.8l38.59 0l0 15.56l-38.59 0Z" id="p78w67" />
<path d="M231.08 316.8l17.09 0l0 15.56l-17.09 0Z" id="p78w68" />
<path d="M251.34 316.8l51.79 0l0 15.56l-51.79 0Z" id="p78w69" />
<path d="M306.3 316.8l35.2 0l0 15.56l-35.2 0Z" id="p78w70" />
<path d="M344.67 316.8l22.98 0l0 15.56l-22.98 0Z" id="p78w71" />
<path d="M370.82 316.8l6.1 0l0 15.56l-6.1 0Z" id="p78w72" />
<path d="M189.32 341.35l37.14 0l0 15.56l-37.14 0Z" id="p78w73" />
<path d="M229.63 341.35l12.72 0l0 15.56l-12.72 0Z" id="p78w74" />
<path d="M245.52 341.35l59.15 0l0 15.56l-59.15 0Z" id="p78w75" />
<path d="M307.83 341.35l17.09 0l0 15.56l-17.09 0Z" id="p78w76" />
<path d="M347.01 341.35l60.84 0l0 15.56l-60.84 0Z" id="p78w77" />
<path d="M154.07 213.45l25.54 0l0 15.71l-25.54 0Z" id="p78w78" />
<path d="M183.05 213.45l31.04 0l0 15.71l-31.04 0Z" id="p78w79" />
<path d="M217.52 213.45l10.03 0l0 15.71l-10.03 0Z" id="p78w80" />
<path d="M230.99 213.45l36.67 0l0 15.71l-36.67 0Z" id="p78w81" />
<path d="M143.75 405.95l51.53 0l0 14.52l-51.53 0Z" id="p78w82" />
<path d="M198.49 405.95l37.96 0l0 14.52l-37.96 0Z" id="p78w83" />
<path d="M239.66 405.95l26.74 0l0 14.52l-26.74 0Z" id="p78w84" />
<path d="M269.61 405.95l43.29 0l0 14.52l-43.29 0Z" id="p78w85" />
<path d="M316.11 405.95l25.67 0l0 14.52l-25.67 0Z" id="p78w86" />
<path d="M344.99 405.95l40.64 0l0 14.52l-40.64 0Z" id="p78w87" />
<path d="M388.83 405.95l25.92 0l0 14.52l-25.92 0Z" id="p78w88" />
<path d="M143.75 439.29l42.53 0l0 14.52l-42.53 0Z" id="p78w89" />
<path d="M189.49 439.29l9.89 0l0 14.52l-9.89 0Z" id="p78w90" />
<path d="M202.58 439.29l22.45 0l0 14.52l-22.45 0Z" id="p78w91" />
<path d="M228.24 439.29l13.9 0l0 14.52l-13.9 0Z" id="p78w92" />
<path d="M245.35 439.29l43.83 0l0 14.52l-43.83 0Z" id="p78w93" />
<path d="M292.39 439.29l49.44 0l0 14.52l-49.44 0Z" id="p78w94" />
<path d="M345.04 439.29l17.38 0l0 14.52l-17.38 0Z" id="p78w95" />
<path d="M365.63 439.29l62.83 0l0 14.52l-62.83 0Z" id="p78w96" />
<path d="M431.67 439.29l19.52 0l0 14.52l-19.52 0Z" id="p78w97" />
<path d="M454.4 439.29l65.22 0l0 14.52l-65.22 0Z" id="p78w98" />
<path d="M522.82 439.29l68.7 0l0 14.52l-68.7 0Z" id="p78w99" />
<path d="M594.73 439.29l14.18 0l0 14.52l-14.18 0Z" id="p78w100" />
<path d="M612.11 439.29l31.01 0l0 14.52l-31.01 0Z" id="p78w101" />
<path d="M143.75 530.99l53.18 0l0 14.52l-53.18 0Z" id="p78w102" />
<path d="M200.14 530.99l44.92 0l0 14.52l-44.92 0Z" id="p78w103" />
<path d="M258.15 530.99l42.33 0l0 14.52l-42.33 0Z" id="p78w104" />
<path d="M303.69 530.99l19.51 0l0 14.52l-19.51 0Z" id="p78w105" />
<path d="M326.4 530.99l46.5 0l0 14.52l-46.5 0Z" id="p78w106" />
<path d="M376.11 530.99l25.67 0l0 14.52l-25.67 0Z" id="p78w107" />
<path d="M404.99 530.99l9.89 0l0 14.52l-9.89 0Z" id="p78w108" />
<path d="M418.08 530.99l56.85 0l0 14.52l-56.85 0Z" id="p78w109" />
<path d="M143.75 547.66l26.45 0l0 14.52l-26.45 0Z" id="p78w110" />
<path d="M173.41 547.66l42.33 0l0 14.52l-42.33 0Z" id="p78w111" />
<path d="M218.95 547.66l13.9 0l0 14.52l-13.9 0Z" id="p78w112" />
<path d="M236.05 547.66l56.68 0l0 14.52l-56.68 0Z" id="p78w113" />
<path d="M295.94 547.66l24.33 0l0 14.52l-24.33 0Z" id="p78w114" />
<path d="M143.75 564.33l50.43 0l0 14.52l-50.43 0Z" id="p78w115" />
<path d="M197.39 564.33l20.85 0l0 14.52l-20.85 0Z" id="p78w116" />
<path d="M221.46 564.33l25.67 0l0 14.52l-25.67 0Z" id="p78w117" />
<path d="M250.34 564.33l30.74 0l0 14.52l-30.74 0Z" id="p78w118" />
<path d="M284.28 564.33l13.9 0l0 14.52l-13.9 0Z" id="p78w119" />
<path d="M301.39 564.33l43.83 0l0 14.52l-43.83 0Z" id="p78w120" />
<path d="M348.43 564.33l49.44 0l0 14.52l-49.44 0Z" id="p78w121" />
<path d="M124.06 591.13l45.31 0l0 12.29l-45.31 0Z" id="p78w122" />
<path d="M178.6 589.07l19.91 0l0 15.09l-19.91 0Z" id="p78w123" />
<path d="M202.12 589.07l49.21 0l0 15.09l-49.21 0Z" id="p78w124" />
<path d="M254.94 589.07l12.58 0l0 15.09l-12.58 0Z" id="p78w125" />
<path d="M271.14 589.07l13.16 0l0 15.09l-13.16 0Z" id="p78w126" />
<path d="M296.99 589.07l31.04 0l0 15.09l-31.04 0Z" id="p78w127" />
<path d="M348.76 589.07l12.06 0l0 15.09l-12.06 0Z" id="p78w128" />
<path d="M364.03 589.07l44.78 0l0 15.09l-44.78 0Z" id="p78w129" />
<path d="M412.42 589.07l27.18 0l0 15.09l-27.18 0Z" id="p78w130" />
<path d="M443.21 589.07l32.64 0l0 15.09l-32.64 0Z" id="p78w131" />
<path d="M479.47 589.07l28.13 0l0 15.09l-28.13 0Z" id="p78w132" />
<path d="M124.06 605.74l43.36 0l0 15.09l-43.36 0Z" id="p78w133" />
<path d="M171.03 605.74l29.86 0l0 15.09l-29.86 0Z" id="p78w134" />
<path d="M204.5 605.74l18.6 0l0 15.09l-18.6 0Z" id="p78w135" />
<path d="M226.71 605.74l26.01 0l0 15.09l-26.01 0Z" id="p78w136" />
<path d="M256.33 605.74l28.33 0l0 15.09l-28.33 0Z" id="p78w137" />
<path d="M288.27 605.74l10.54 0l0 15.09l-10.54 0Z" id="p78w138" />
<path d="M302.42 605.74l23.76 0l0 15.09l-23.76 0Z" id="p78w139" />
<path d="M329.79 605.74l39.76 0l0 15.09l-39.76 0Z" id="p78w140" />
<path d="M373.17 605.74l21.84 0l0 15.09l-21.84 0Z" id="p78w141" />
<path d="M398.61 605.74l36.64 0l0 15.09l-36.64 0Z" id="p78w142" />
<path d="M438.87 605.74l18.52 0l0 15.09l-18.52 0Z" id="p78w143" />
<path d="M461 605.74l55.2 0l0 15.09l-55.2 0Z" id="p78w144" />
<path d="M519.81 605.74l27.08 0l0 15.09l-27.08 0Z" id="p78w145" />
<path d="M124.06 622.41l12.66 0l0 15.09l-12.66 0Z" id="p78w146" />
<path d="M140.33 622.41l24.73 0l0 15.09l-24.73 0Z" id="p78w147" />
<path d="M168.67 622.41l15.15 0l0 15.09l-15.15 0Z" id="p78w148" />
<path d="M187.43 622.41l13.16 0l0 15.09l-13.16 0Z" id="p78w149" />
<path d="M204.2 622.41l40.98 0l0 15.09l-40.98 0Z" id="p78w150" />
<path d="M248.4 622.41l18.65 0l0 15.09l-18.65 0Z" id="p78w151" />
<path d="M270.26 622.41l38.23 0l0 15.09l-38.23 0Z" id="p78w152" />
<path d="M311.71 622.41l14.59 0l0 15.09l-14.59 0Z" id="p78w153" />
<path d="M329.91 622.41l25.01 0l0 15.09l-25.01 0Z" id="p78w154" />
<path d="M358.53 622.41l11.26 0l0 15.09l-11.26 0Z" id="p78w155" />
<path d="M373.4 622.41l10.5 0l0 15.09l-10.5 0Z" id="p78w156" />
<path d="M387.51 622.41l21.81 0l0 15.09l-21.81 0Z" id="p78w157" />
<path d="M412.93 622.41l15.15 0l0 15.09l-15.15 0Z" id="p78w158" />
<path d="M431.7 622.41l51.87 0l0 15.09l-51.87 0Z" id="p78w159" />
<path d="M487.18 622.41l15.74 0l0 15.09l-15.74 0Z" id="p78w160" />
<path d="M124.06 639.08l26.55 0l0 15.09l-26.55 0Z" id="p78w161" />
<path d="M153.82 639.08l34.46 0l0 15.09l-34.46 0Z" id="p78w162" />
<path d="M191.89 639.08l15.01 0l0 15.09l-15.01 0Z" id="p78w163" />
<path d="M210.51 639.08l13.16 0l0 15.09l-13.16 0Z" id="p78w164" />
<path d="M227.29 639.08l23.21 0l0 15.09l-23.21 0Z" id="p78w165" />
<path d="M254.11 639.08l26.24 0l0 15.09l-26.24 0Z" id="p78w166" />
<path d="M283.96 639.08l14.52 0l0 15.09l-14.52 0Z" id="p78w167" />
<path d="M302.1 639.08l30.55 0l0 15.09l-30.55 0Z" id="p78w168" />
<path d="M336.26 639.08l25.69 0l0 15.09l-25.69 0Z" id="p78w169" />
<path d="M365.56 639.08l28.26 0l0 15.09l-28.26 0Z" id="p78w170" />
<path d="M143.75 664.38l50.43 0l0 14.52l-50.43 0Z" id="p78w171" />
<path d="M197.4 664.38l20.85 0l0 14.52l-20.85 0Z" id="p78w172" />
<path d="M221.46 664.38l25.67 0l0 14.52l-25.67 0Z" id="p78w173" />
<path d="M250.34 664.38l39.85 0l0 14.52l-39.85 0Z" id="p78w174" />
<path d="M293.39 664.38l21.65 0l0 14.52l-21.65 0Z" id="p78w175" />
<path d="M318.25 664.38l17.11 0l0 14.52l-17.11 0Z" id="p78w176" />
<path d="M338.56 664.38l9.89 0l0 14.52l-9.89 0Z" id="p78w177" />
<path d="M351.66 664.38l43.83 0l0 14.52l-43.83 0Z" id="p78w178" />
<path d="M398.7 664.38l14.18 0l0 14.52l-14.18 0Z" id="p78w179" />
<path d="M416.08 664.38l41.97 0l0 14.52l-41.97 0Z" id="p78w180" />
<path d="M143.76 681.05l54.53 0l0 14.52l-54.53 0Z" id="p78w181" />
<path d="M201.49 681.05l43.23 0l0 14.52l-43.23 0Z" id="p78w182" />
<path d="M247.92 681.05l51.6 0l0 14.52l-51.6 0Z" id="p78w183" />
<path d="M302.73 681.05l28.33 0l0 14.52l-28.33 0Z" id="p78w184" />
<path d="M334.26 681.05l67.88 0l0 14.52l-67.88 0Z" id="p78w185" />
<path d="M405.35 681.03l81.52 0l0 14.52l-81.52 0Z" id="p78w186" />
<path d="M124.06 724.88l20.06 0l0 18.84l-20.06 0Z" id="p78w187" />
<path d="M147.77 724.88l18.36 0l0 18.84l-18.36 0Z" id="p78w188" />
<path d="M169.78 724.88l60.77 0l0 18.84l-60.77 0Z" id="p78w189" />
<path d="M234.2 724.88l26.19 0l0 18.84l-26.19 0Z" id="p78w190" />
<path d="M264.04 724.88l16.67 0l0 18.84l-16.67 0Z" id="p78w191" />
<path d="M284.36 724.88l43.82 0l0 18.84l-43.82 0Z" id="p78w192" />
<path d="M331.83 724.88l45.9 0l0 18.84l-45.9 0Z" id="p78w193" />
<path d="M143.75 756.08l6.96 0l0 14.52l-6.96 0Z" id="p78w194" />
<path d="M172.9 756.08l14.18 0l0 14.52l-14.18 0Z" id="p78w195" />
<path d="M190.28 756.08l47.6 0l0 14.52l-47.6 0Z" id="p78w196" />
<path d="M241.09 756.08l31.81 0l0 14.52l-31.81 0Z" id="p78w197" />
<path d="M276.1 756.08l26.73 0l0 14.52l-26.73 0Z" id="p78w198" />
<path d="M306.04 756.08l9.89 0l0 14.52l-9.89 0Z" id="p78w199" />
<path d="M319.13 756.08l28.33 0l0 14.52l-28.33 0Z" id="p78w200" />
<path d="M357.08 756.08l9.89 0l0 14.52l-9.89 0Z" id="p78w201" />
<path d="M370.17 756.02l69.6 0l0 14.6l-69.6 0Z" id="p78w202" />
<path d="M143.76 772.75l38.58 0l0 14.52l-38.58 0Z" id="p78w203" />
<path d="M185.54 772.75l9.89 0l0 14.52l-9.89 0Z" id="p78w204" />
<path d="M198.64 772.75l43.82 0l0 14.52l-43.82 0Z" id="p78w205" />
<path d="M245.67 772.75l64.08 0l0 14.52l-64.08 0Z" id="p78w206" />
<path d="M312.96 772.75l14.18 0l0 14.52l-14.18 0Z" id="p78w207" />
<path d="M330.34 772.75l28.33 0l0 14.52l-28.33 0Z" id="p78w208" />
<path d="M368.29 772.75l35.29 0l0 14.52l-35.29 0Z" id="p78w209" />
<path d="M406.79 772.75l33.05 0l0 14.52l-33.05 0Z" id="p78w210" />
<path d="M443.05 772.75l30.23 0l0 14.52l-30.23 0Z" id="p78w211" />
<path d="M476.48 772.75l44.9 0l0 14.52l-44.9 0Z" id="p78w212" />
<path d="M524.59 772.75l12.57 0l0 14.52l-12.57 0Z" id="p78w213" />
<path d="M540.37 772.75l31.81 0l0 14.52l-31.81 0Z" id="p78w214" />
<path d="M143.75 797.77l42.53 0l0 14.52l-42.53 0Z" id="p78w215" />
<path d="M189.49 797.77l26.73 0l0 14.52l-26.73 0Z" id="p78w216" />
<path d="M219.43 797.77l9.89 0l0 14.52l-9.89 0Z" id="p78w217" />
<path d="M232.52 797.77l43.82 0l0 14.52l-43.82 0Z" id="p78w218" />
<path d="M279.55 797.77l64.08 0l0 14.52l-64.08 0Z" id="p78w219" />
<path d="M346.84 797.77l14.18 0l0 14.52l-14.18 0Z" id="p78w220" />
<path d="M364.22 797.77l28.33 0l0 14.52l-28.33 0Z" id="p78w221" />
<path d="M395.76 797.77l15.5 0l0 14.52l-15.5 0Z" id="p78w222" />
<path d="M414.46 797.77l39.02 0l0 14.52l-39.02 0Z" id="p78w223" />
<path d="M456.68 797.77l14.18 0l0 14.52l-14.18 0Z" id="p78w224" />
<path d="M474.07 797.77l69.52 0l0 14.52l-69.52 0Z" id="p78w225" />
<path d="M143.76 814.44l42.49 0l0 14.52l-42.49 0Z" id="p78w226" />
<path d="M189.45 814.44l11.22 0l0 14.52l-11.22 0Z" id="p78w227" />
<path d="M203.88 814.44l58.01 0l0 14.52l-58.01 0Z" id="p78w228" />
<path d="M265.1 814.44l9.89 0l0 14.52l-9.89 0Z" id="p78w229" />
<path d="M278.19 814.44l44.64 0l0 14.52l-44.64 0Z" id="p78w230" />
<path d="M143.75 931.15l53.22 0l0 14.52l-53.22 0Z" id="p78w231" />
<path d="M200.18 931.15l53.19 0l0 14.52l-53.19 0Z" id="p78w232" />
<path d="M256.58 931.15l14.18 0l0 14.52l-14.18 0Z" id="p78w233" />
<path d="M273.97 931.15l33.41 0l0 14.52l-33.41 0Z" id="p78w234" />
<path d="M310.58 931.15l9.89 0l0 14.52l-9.89 0Z" id="p78w235" />
<path d="M323.67 931.15l69.52 0l0 14.52l-69.52 0Z" id="p78w236" />
<path d="M396.4 931.15l45.17 0l0 14.52l-45.17 0Z" id="p78w237" />
<path d="M130.23 496.17l58.72 0l0 14.52l-58.72 0Z" id="p78w238" />
<path d="M245.36 496.17l9.89 0l0 14.52l-9.89 0Z" id="p78w239" />
<path d="M258.45 496.17l35.56 0l0 14.52l-35.56 0Z" id="p78w240" />
<path d="M128.98 471.16l22.44 0l0 14.52l-22.44 0Z" id="p78w241" />
<path d="M154.63 471.16l32.34 0l0 14.52l-32.34 0Z" id="p78w242" />
<path d="M350.41 496.17l46.77 0l0 14.52l-46.77 0Z" id="p78w243" />
<path d="M344.42 471.16l22.44 0l0 14.52l-22.44 0Z" id="p78w244" />
<path d="M370.07 471.16l31.47 0l0 14.52l-31.47 0Z" id="p78w245" />
<path d="M243.37 471.16l14.18 0l0 14.52l-14.18 0Z" id="p78w246" />
<path d="M260.75 471.16l24.33 0l0 14.52l-24.33 0Z" id="p78w247" />
<path d="M129.97 845.32l69.52 0l0 14.52l-69.52 0Z" id="p78w248" />
<path d="M202.7 845.32l42.49 0l0 14.52l-42.49 0Z" id="p78w249" />
<path d="M256 845.32l17.91 0l0 14.52l-17.91 0Z" id="p78w250" />
<path d="M273.91 845.32l22.45 0l0 14.52l-22.45 0Z" id="p78w251" />
<path d="M382.02 845.32l27.27 0l0 14.52l-27.27 0Z" id="p78w252" />
<path d="M412.5 845.32l36.88 0l0 14.52l-36.88 0Z" id="p78w253" />
<path d="M508.05 845.32l51.31 0l0 14.52l-51.31 0Z" id="p78w254" />
<path d="M129.96 861.33l12.74 0l0 16.96l-12.74 0Z" id="p78w255" />
<path d="M146.92 861.33l68.87 0l0 16.96l-68.87 0Z" id="p78w256" />
<path d="M382.02 861.33l12.74 0l0 16.96l-12.74 0Z" id="p78w257" />
<path d="M508.05 861.33l12.74 0l0 16.96l-12.74 0Z" id="p78w258" />
<path d="M255.98 879.11l39.29 0l0 16.96l-39.29 0Z" id="p78w259" />
<path d="M382.01 879.11l11.64 0l0 16.96l-11.64 0Z" id="p78w260" />
<path d="M124.06 39.02l42.71 0l0 15.38l-42.71 0Z" id="p78w261" />
<path d="M208.73 38.6l45.75 0l0 16.09l-45.75 0Z" id="p78w262" />
<path d="M306.51 39.02l43.21 0l0 15.38l-43.21 0Z" id="p78w263" />
<path d="M405.76 39.02l32.54 0l0 15.38l-32.54 0Z" id="p78w264" />
<path d="M76.9 983l66.1 0l0 12.23l-66.1 0Z" id="p78w265" />
</svg>
