<?xml version="1.0" encoding="UTF-8"?>
<svg xmlns="http://www.w3.org/2000/svg" xmlns:xlink="http://www.w3.org/1999/xlink" version="1.1" baseProfile="full" width="768" height="1024" viewBox="0,0,768,1024" preserveAspectRatio="xMinYMin meet" >
<style type="text/css">
<![CDATA[
path {fill-opacity: 0.5;fill: #00aeef;visibility: hidden;}
]]>
</style>
<path d="M131.56 114.18l12.83 0l0 14.52l-12.83 0Z" id="p24w1" />
<path d="M147.6 114.18l41.97 0l0 14.52l-41.97 0Z" id="p24w2" />
<path d="M192.78 114.18l31.44 0l0 14.52l-31.44 0Z" id="p24w3" />
<path d="M227.43 114.18l24.31 0l0 14.52l-24.31 0Z" id="p24w4" />
<path d="M254.95 114.18l38.48 0l0 14.52l-38.48 0Z" id="p24w5" />
<path d="M296.63 114.18l53.19 0l0 14.52l-53.19 0Z" id="p24w6" />
<path d="M131.56 130.85l49.18 0l0 14.52l-49.18 0Z" id="p24w7" />
<path d="M183.95 130.85l49.99 0l0 14.52l-49.99 0Z" id="p24w8" />
<path d="M237.15 130.85l54 0l0 14.52l-54 0Z" id="p24w9" />
<path d="M294.35 130.85l13.63 0l0 14.52l-13.63 0Z" id="p24w10" />
<path d="M311.19 130.85l31.8 0l0 14.52l-31.8 0Z" id="p24w11" />
<path d="M346.2 130.85l50.26 0l0 14.52l-50.26 0Z" id="p24w12" />
<path d="M399.67 130.85l25.4 0l0 14.52l-25.4 0Z" id="p24w13" />
<path d="M428.27 130.85l15.5 0l0 14.52l-15.5 0Z" id="p24w14" />
<path d="M446.98 130.85l36.88 0l0 14.52l-36.88 0Z" id="p24w15" />
<path d="M131.56 147.52l12.29 0l0 14.52l-12.29 0Z" id="p24w16" />
<path d="M147.06 147.52l46.25 0l0 14.52l-46.25 0Z" id="p24w17" />
<path d="M196.52 147.52l12.29 0l0 14.52l-12.29 0Z" id="p24w18" />
<path d="M212.01 147.52l28.62 0l0 14.52l-28.62 0Z" id="p24w19" />
<path d="M243.84 147.52l12.29 0l0 14.52l-12.29 0Z" id="p24w20" />
<path d="M259.33 147.52l53.48 0l0 14.52l-53.48 0Z" id="p24w21" />
<path d="M316.02 147.52l50.36 0l0 14.52l-50.36 0Z" id="p24w22" />
<path d="M369.59 147.52l49.97 0l0 14.52l-49.97 0Z" id="p24w23" />
<path d="M422.77 147.52l11.22 0l0 14.52l-11.22 0Z" id="p24w24" />
<path d="M437.2 147.52l12.29 0l0 14.52l-12.29 0Z" id="p24w25" />
<path d="M452.69 147.52l45.48 0l0 14.52l-45.48 0Z" id="p24w26" />
<path d="M131.56 164.19l22.73 0l0 14.52l-22.73 0Z" id="p24w27" />
<path d="M157.5 164.19l85.2 0l0 14.52l-85.2 0Z" id="p24w28" />
<path d="M245.91 164.19l26.73 0l0 14.52l-26.73 0Z" id="p24w29" />
<path d="M275.85 164.19l9.89 0l0 14.52l-9.89 0Z" id="p24w30" />
<path d="M288.94 164.19l33.67 0l0 14.52l-33.67 0Z" id="p24w31" />
<path d="M325.82 164.19l11.22 0l0 14.52l-11.22 0Z" id="p24w32" />
<path d="M340.25 164.19l32.35 0l0 14.52l-32.35 0Z" id="p24w33" />
<path d="M375.8 164.19l18.72 0l0 14.52l-18.72 0Z" id="p24w34" />
<path d="M397.73 164.19l56.68 0l0 14.52l-56.68 0Z" id="p24w35" />
<path d="M124.06 208.02l21.93 0l0 18.84l-21.93 0Z" id="p24w36" />
<path d="M149.64 208.02l17.64 0l0 18.84l-17.64 0Z" id="p24w37" />
<path d="M170.93 208.02l19.04 0l0 18.84l-19.04 0Z" id="p24w38" />
<path d="M193.63 208.02l39.81 0l0 18.84l-39.81 0Z" id="p24w39" />
<path d="M237.09 208.02l23.83 0l0 18.84l-23.83 0Z" id="p24w40" />
<path d="M264.57 208.02l35.3 0l0 18.84l-35.3 0Z" id="p24w41" />
<path d="M303.51 208.02l48.09 0l0 18.84l-48.09 0Z" id="p24w42" />
<path d="M124.06 239.23l51.33 0l0 14.52l-51.33 0Z" id="p24w43" />
<path d="M178.6 239.23l47.57 0l0 14.52l-47.57 0Z" id="p24w44" />
<path d="M239.27 239.23l5.61 0l0 14.52l-5.61 0Z" id="p24w45" />
<path d="M244.87 239.16l51.97 0l0 14.6l-51.97 0Z" id="p24w46" />
<path d="M300.05 239.23l11.22 0l0 14.52l-11.22 0Z" id="p24w47" />
<path d="M314.47 239.23l13.63 0l0 14.52l-13.63 0Z" id="p24w48" />
<path d="M331.32 239.16l32.05 0l0 14.6l-32.05 0Z" id="p24w49" />
<path d="M366.57 239.16l49.97 0l0 14.6l-49.97 0Z" id="p24w50" />
<path d="M422.43 239.23l40.63 0l0 14.52l-40.63 0Z" id="p24w51" />
<path d="M466.27 239.23l46.78 0l0 14.52l-46.78 0Z" id="p24w52" />
<path d="M516.25 239.23l23.53 0l0 14.52l-23.53 0Z" id="p24w53" />
<path d="M542.99 239.23l43.57 0l0 14.52l-43.57 0Z" id="p24w54" />
<path d="M124.06 255.9l22.99 0l0 14.52l-22.99 0Z" id="p24w55" />
<path d="M160.15 255.9l29.7 0l0 14.52l-29.7 0Z" id="p24w56" />
<path d="M193.05 255.9l7.48 0l0 14.52l-7.48 0Z" id="p24w57" />
<path d="M200.54 255.9l53.18 0l0 14.52l-53.18 0Z" id="p24w58" />
<path d="M256.93 255.9l11.22 0l0 14.52l-11.22 0Z" id="p24w59" />
<path d="M271.35 255.9l30.99 0l0 14.52l-30.99 0Z" id="p24w60" />
<path d="M305.55 255.9l13.63 0l0 14.52l-13.63 0Z" id="p24w61" />
<path d="M322.39 255.9l33.95 0l0 14.52l-33.95 0Z" id="p24w62" />
<path d="M359.55 255.9l26.74 0l0 14.52l-26.74 0Z" id="p24w63" />
<path d="M389.5 255.9l43.29 0l0 14.52l-43.29 0Z" id="p24w64" />
<path d="M436 255.9l49.97 0l0 14.52l-49.97 0Z" id="p24w65" />
<path d="M634.87 255.9l14.44 0l0 14.52l-14.44 0Z" id="p24w66" />
<path d="M652.52 255.9l23.52 0l0 14.52l-23.52 0Z" id="p24w67" />
<path d="M128.98 412.81l23.29 0l0 14.52l-23.29 0Z" id="p24w68" />
<path d="M160.24 412.81l37.53 0l0 14.52l-37.53 0Z" id="p24w69" />
<path d="M208.89 412.81l31.88 0l0 14.52l-31.88 0Z" id="p24w70" />
<path d="M243.95 412.81l36.2 0l0 14.52l-36.2 0Z" id="p24w71" />
<path d="M128.98 429.48l45.13 0l0 14.52l-45.13 0Z" id="p24w72" />
<path d="M185.24 429.48l24.8 0l0 14.52l-24.8 0Z" id="p24w73" />
<path d="M213.22 429.48l27.06 0l0 14.52l-27.06 0Z" id="p24w74" />
<path d="M251.4 429.48l53.55 0l0 14.52l-53.55 0Z" id="p24w75" />
<path d="M128.98 446.15l13.63 0l0 14.52l-13.63 0Z" id="p24w76" />
<path d="M145.79 446.15l47.63 0l0 14.52l-47.63 0Z" id="p24w77" />
<path d="M330.41 412.81l23.79 0l0 14.52l-23.79 0Z" id="p24w78" />
<path d="M362.45 412.81l47.77 0l0 14.52l-47.77 0Z" id="p24w79" />
<path d="M421.58 412.81l38.24 0l0 14.52l-38.24 0Z" id="p24w80" />
<path d="M330.41 429.48l63.32 0l0 14.52l-63.32 0Z" id="p24w81" />
<path d="M531.91 412.81l20.44 0l0 14.52l-20.44 0Z" id="p24w82" />
<path d="M563.48 412.81l25.66 0l0 14.52l-25.66 0Z" id="p24w83" />
<path d="M592.29 412.81l29.61 0l0 14.52l-29.61 0Z" id="p24w84" />
<path d="M633.03 412.81l26.98 0l0 14.52l-26.98 0Z" id="p24w85" />
<path d="M663.16 412.81l19.21 0l0 14.52l-19.21 0Z" id="p24w86" />
<path d="M531.91 429.48l31.7 0l0 14.52l-31.7 0Z" id="p24w87" />
<path d="M574.75 429.48l35.88 0l0 14.52l-35.88 0Z" id="p24w88" />
<path d="M621.77 429.48l35.11 0l0 14.52l-35.11 0Z" id="p24w89" />
<path d="M531.91 446.15l23.83 0l0 14.52l-23.83 0Z" id="p24w90" />
<path d="M558.88 446.15l22.52 0l0 14.52l-22.52 0Z" id="p24w91" />
<path d="M128.98 604.55l30.73 0l0 14.52l-30.73 0Z" id="p24w92" />
<path d="M171.07 604.55l30.73 0l0 14.52l-30.73 0Z" id="p24w93" />
<path d="M214.9 604.55l12.29 0l0 14.52l-12.29 0Z" id="p24w94" />
<path d="M230.39 604.55l52.67 0l0 14.52l-52.67 0Z" id="p24w95" />
<path d="M330.4 604.55l27.53 0l0 14.52l-27.53 0Z" id="p24w96" />
<path d="M361.14 604.55l25.4 0l0 14.52l-25.4 0Z" id="p24w97" />
<path d="M397.9 604.55l13.9 0l0 14.52l-13.9 0Z" id="p24w98" />
<path d="M415.01 604.55l22.99 0l0 14.52l-22.99 0Z" id="p24w99" />
<path d="M441.21 604.55l33.14 0l0 14.52l-33.14 0Z" id="p24w100" />
<path d="M330.4 621.22l9.89 0l0 14.52l-9.89 0Z" id="p24w101" />
<path d="M343.5 621.22l41.17 0l0 14.52l-41.17 0Z" id="p24w102" />
<path d="M531.9 604.55l57.19 0l0 14.52l-57.19 0Z" id="p24w103" />
<path d="M592.3 604.55l19.79 0l0 14.52l-19.79 0Z" id="p24w104" />
<path d="M615.3 604.55l41.17 0l0 14.52l-41.17 0Z" id="p24w105" />
<path d="M667.83 604.55l20.85 0l0 14.52l-20.85 0Z" id="p24w106" />
<path d="M531.9 621.22l31.53 0l0 14.52l-31.53 0Z" id="p24w107" />
<path d="M574.8 621.22l36.34 0l0 14.52l-36.34 0Z" id="p24w108" />
<path d="M622.5 621.22l51.32 0l0 14.52l-51.32 0Z" id="p24w109" />
<path d="M677.03 621.22l23.79 0l0 14.52l-23.79 0Z" id="p24w110" />
<path d="M124.06 666.52l29.23 0l0 18.84l-29.23 0Z" id="p24w111" />
<path d="M156.94 666.52l40.67 0l0 18.84l-40.67 0Z" id="p24w112" />
<path d="M201.26 666.52l130.09 0l0 18.84l-130.09 0Z" id="p24w113" />
<path d="M143.75 697.73l31.9 0l0 14.52l-31.9 0Z" id="p24w114" />
<path d="M178.86 697.73l42.78 0l0 14.52l-42.78 0Z" id="p24w115" />
<path d="M231.27 697.73l49.11 0l0 14.52l-49.11 0Z" id="p24w116" />
<path d="M283.59 697.73l9.89 0l0 14.52l-9.89 0Z" id="p24w117" />
<path d="M296.68 697.73l65.15 0l0 14.52l-65.15 0Z" id="p24w118" />
<path d="M374.93 697.73l9.89 0l0 14.52l-9.89 0Z" id="p24w119" />
<path d="M388.02 697.73l27.73 0l0 14.52l-27.73 0Z" id="p24w120" />
<path d="M436.44 697.73l32.87 0l0 14.52l-32.87 0Z" id="p24w121" />
<path d="M472.51 697.73l19.51 0l0 14.52l-19.51 0Z" id="p24w122" />
<path d="M495.23 697.73l63.62 0l0 14.52l-63.62 0Z" id="p24w123" />
<path d="M143.76 714.4l33.95 0l0 14.52l-33.95 0Z" id="p24w124" />
<path d="M180.91 714.4l29.39 0l0 14.52l-29.39 0Z" id="p24w125" />
<path d="M213.51 714.4l33.05 0l0 14.52l-33.05 0Z" id="p24w126" />
<path d="M249.77 714.4l20.85 0l0 14.52l-20.85 0Z" id="p24w127" />
<path d="M273.83 714.4l12.57 0l0 14.52l-12.57 0Z" id="p24w128" />
<path d="M289.61 714.4l25.4 0l0 14.52l-25.4 0Z" id="p24w129" />
<path d="M318.21 714.4l22.44 0l0 14.52l-22.44 0Z" id="p24w130" />
<path d="M143.75 739.41l43.86 0l0 14.52l-43.86 0Z" id="p24w131" />
<path d="M190.82 739.41l9.89 0l0 14.52l-9.89 0Z" id="p24w132" />
<path d="M203.92 739.41l50.5 0l0 14.52l-50.5 0Z" id="p24w133" />
<path d="M257.62 739.41l32.87 0l0 14.52l-32.87 0Z" id="p24w134" />
<path d="M293.7 739.41l14.18 0l0 14.52l-14.18 0Z" id="p24w135" />
<path d="M311.08 739.41l28.33 0l0 14.52l-28.33 0Z" id="p24w136" />
<path d="M342.61 739.41l11.22 0l0 14.52l-11.22 0Z" id="p24w137" />
<path d="M357.04 739.41l27.26 0l0 14.52l-27.26 0Z" id="p24w138" />
<path d="M387.51 739.41l39.56 0l0 14.52l-39.56 0Z" id="p24w139" />
<path d="M430.27 739.41l57.73 0l0 14.52l-57.73 0Z" id="p24w140" />
<path d="M491.21 739.41l40.09 0l0 14.52l-40.09 0Z" id="p24w141" />
<path d="M534.51 739.41l11.22 0l0 14.52l-11.22 0Z" id="p24w142" />
<path d="M548.93 739.41l13.91 0l0 14.52l-13.91 0Z" id="p24w143" />
<path d="M566.05 739.41l25.38 0l0 14.52l-25.38 0Z" id="p24w144" />
<path d="M594.64 739.41l27.01 0l0 14.52l-27.01 0Z" id="p24w145" />
<path d="M143.75 764.42l55.33 0l0 14.52l-55.33 0Z" id="p24w146" />
<path d="M202.29 764.42l37.7 0l0 14.52l-37.7 0Z" id="p24w147" />
<path d="M249.61 764.42l52.4 0l0 14.52l-52.4 0Z" id="p24w148" />
<path d="M305.22 764.42l19.52 0l0 14.52l-19.52 0Z" id="p24w149" />
<path d="M327.95 764.42l54 0l0 14.52l-54 0Z" id="p24w150" />
<path d="M385.16 764.42l55.16 0l0 14.52l-55.16 0Z" id="p24w151" />
<path d="M143.75 789.44l49.75 0l0 14.52l-49.75 0Z" id="p24w152" />
<path d="M196.71 789.44l33.05 0l0 14.52l-33.05 0Z" id="p24w153" />
<path d="M232.97 789.44l20.85 0l0 14.52l-20.85 0Z" id="p24w154" />
<path d="M257.03 789.44l9.89 0l0 14.52l-9.89 0Z" id="p24w155" />
<path d="M270.12 789.44l29.39 0l0 14.52l-29.39 0Z" id="p24w156" />
<path d="M302.73 789.44l16.83 0l0 14.52l-16.83 0Z" id="p24w157" />
<path d="M322.76 789.44l13.9 0l0 14.52l-13.9 0Z" id="p24w158" />
<path d="M339.87 789.44l43.83 0l0 14.52l-43.83 0Z" id="p24w159" />
<path d="M143.75 806.11l15.51 0l0 14.52l-15.51 0Z" id="p24w160" />
<path d="M162.47 806.11l12.29 0l0 14.52l-12.29 0Z" id="p24w161" />
<path d="M177.97 806.11l47.32 0l0 14.52l-47.32 0Z" id="p24w162" />
<path d="M228.49 806.11l15.5 0l0 14.52l-15.5 0Z" id="p24w163" />
<path d="M247.2 806.11l44.92 0l0 14.52l-44.92 0Z" id="p24w164" />
<path d="M295.32 806.11l13.9 0l0 14.52l-13.9 0Z" id="p24w165" />
<path d="M312.43 806.11l9.89 0l0 14.52l-9.89 0Z" id="p24w166" />
<path d="M325.52 806.11l36.89 0l0 14.52l-36.89 0Z" id="p24w167" />
<path d="M365.62 806.11l58.53 0l0 14.52l-58.53 0Z" id="p24w168" />
<path d="M143.75 822.78l54.53 0l0 14.52l-54.53 0Z" id="p24w169" />
<path d="M201.49 822.78l53.01 0l0 14.52l-53.01 0Z" id="p24w170" />
<path d="M257.7 822.78l9.89 0l0 14.52l-9.89 0Z" id="p24w171" />
<path d="M270.8 822.78l36.89 0l0 14.52l-36.89 0Z" id="p24w172" />
<path d="M310.9 822.78l31.1 0l0 14.52l-31.1 0Z" id="p24w173" />
<path d="M345.2 822.78l25.66 0l0 14.52l-25.66 0Z" id="p24w174" />
<path d="M143.75 839.45l14.18 0l0 14.52l-14.18 0Z" id="p24w175" />
<path d="M161.14 839.45l33.95 0l0 14.52l-33.95 0Z" id="p24w176" />
<path d="M198.29 839.45l34.48 0l0 14.52l-34.48 0Z" id="p24w177" />
<path d="M245.86 839.45l13.63 0l0 14.52l-13.63 0Z" id="p24w178" />
<path d="M262.71 839.45l20.05 0l0 14.52l-20.05 0Z" id="p24w179" />
<path d="M285.96 839.45l9.89 0l0 14.52l-9.89 0Z" id="p24w180" />
<path d="M299.06 839.45l50.5 0l0 14.52l-50.5 0Z" id="p24w181" />
<path d="M352.76 839.45l49.44 0l0 14.52l-49.44 0Z" id="p24w182" />
<path d="M143.75 856.12l50.43 0l0 14.52l-50.43 0Z" id="p24w183" />
<path d="M197.4 856.12l30.23 0l0 14.52l-30.23 0Z" id="p24w184" />
<path d="M240.72 856.12l40.89 0l0 14.52l-40.89 0Z" id="p24w185" />
<path d="M284.81 856.12l46.78 0l0 14.52l-46.78 0Z" id="p24w186" />
<path d="M334.8 856.12l28.33 0l0 14.52l-28.33 0Z" id="p24w187" />
<path d="M366.33 856.12l49.44 0l0 14.52l-49.44 0Z" id="p24w188" />
<path d="M143.75 872.79l14.97 0l0 14.52l-14.97 0Z" id="p24w189" />
<path d="M161.93 872.79l24.34 0l0 14.52l-24.34 0Z" id="p24w190" />
<path d="M189.48 872.79l33.05 0l0 14.52l-33.05 0Z" id="p24w191" />
<path d="M225.73 872.79l30.23 0l0 14.52l-30.23 0Z" id="p24w192" />
<path d="M259.17 872.79l28.33 0l0 14.52l-28.33 0Z" id="p24w193" />
<path d="M290.7 872.79l26.73 0l0 14.52l-26.73 0Z" id="p24w194" />
<path d="M320.64 872.79l73.7 0l0 14.52l-73.7 0Z" id="p24w195" />
<path d="M143.75 889.46l36.63 0l0 14.52l-36.63 0Z" id="p24w196" />
<path d="M183.59 889.46l33.05 0l0 14.52l-33.05 0Z" id="p24w197" />
<path d="M219.85 889.46l20.85 0l0 14.52l-20.85 0Z" id="p24w198" />
<path d="M243.91 889.46l54.53 0l0 14.52l-54.53 0Z" id="p24w199" />
<path d="M301.21 889.46l44.93 0l0 14.52l-44.93 0Z" id="p24w200" />
<path d="M359.23 889.46l20.05 0l0 14.52l-20.05 0Z" id="p24w201" />
<path d="M143.75 906.13l50.43 0l0 14.52l-50.43 0Z" id="p24w202" />
<path d="M197.4 906.13l35.82 0l0 14.52l-35.82 0Z" id="p24w203" />
<path d="M236.43 906.13l49.17 0l0 14.52l-49.17 0Z" id="p24w204" />
<path d="M143.75 922.8l49.75 0l0 14.52l-49.75 0Z" id="p24w205" />
<path d="M196.71 922.8l33.05 0l0 14.52l-33.05 0Z" id="p24w206" />
<path d="M232.97 922.8l20.85 0l0 14.52l-20.85 0Z" id="p24w207" />
<path d="M257.03 922.8l15.5 0l0 14.52l-15.5 0Z" id="p24w208" />
<path d="M275.73 922.8l70.76 0l0 14.52l-70.76 0Z" id="p24w209" />
<path d="M349.7 922.8l13.9 0l0 14.52l-13.9 0Z" id="p24w210" />
<path d="M366.81 922.8l28.33 0l0 14.52l-28.33 0Z" id="p24w211" />
<path d="M398.34 922.8l36.89 0l0 14.52l-36.89 0Z" id="p24w212" />
<path d="M438.44 922.8l13.9 0l0 14.52l-13.9 0Z" id="p24w213" />
<path d="M143.76 939.47l72.98 0l0 14.52l-72.98 0Z" id="p24w214" />
<path d="M219.94 939.47l19.51 0l0 14.52l-19.51 0Z" id="p24w215" />
<path d="M252.54 939.47l9.89 0l0 14.52l-9.89 0Z" id="p24w216" />
<path d="M265.64 939.47l35.27 0l0 14.52l-35.27 0Z" id="p24w217" />
<path d="M304.11 939.47l32.07 0l0 14.52l-32.07 0Z" id="p24w218" />
<path d="M339.4 939.47l13.9 0l0 14.52l-13.9 0Z" id="p24w219" />
<path d="M356.5 939.47l36.89 0l0 14.52l-36.89 0Z" id="p24w220" />
<path d="M396.6 939.47l11.22 0l0 14.52l-11.22 0Z" id="p24w221" />
<path d="M411.03 939.47l13.9 0l0 14.52l-13.9 0Z" id="p24w222" />
<path d="M428.13 939.47l59.53 0l0 14.52l-59.53 0Z" id="p24w223" />
<path d="M60.68 115.95l27.93 0l0 12.29l-27.93 0Z" id="p24w224" />
<path d="M564.06 115.8l38.67 0l0 18.32l-38.67 0Z" id="p24w225" />
<path d="M607.96 117.33l36.57 0l0 18.25l-36.57 0Z" id="p24w226" />
<path d="M649.76 118.79l38.73 0l0 18.32l-38.73 0Z" id="p24w227" />
<path d="M549.28 131.96l22.99 0l0 17.77l-22.99 0Z" id="p24w228" />
<path d="M577.51 132.95l11.89 0l0 17.39l-11.89 0Z" id="p24w229" />
<path d="M594.63 133.55l22.45 0l0 17.76l-22.45 0Z" id="p24w230" />
<path d="M622.32 134.51l43.57 0l0 18.49l-43.57 0Z" id="p24w231" />
<path d="M671.52 136.23l13.47 0l0 17.44l-13.47 0Z" id="p24w232" />
<path d="M548.7 148.63l48.77 0l0 18.67l-48.77 0Z" id="p24w233" />
<path d="M53.09 699.5l35.52 0l0 12.29l-35.52 0Z" id="p24w234" />
<path d="M37.12 716.24l37.12 0l0 12.3l-37.12 0Z" id="p24w235" />
<path d="M52.89 732.91l35.72 0l0 12.3l-35.72 0Z" id="p24w236" />
<path d="M39.49 744.03l49.13 0l0 12.3l-49.13 0Z" id="p24w237" />
<path d="M124.06 39.02l42.71 0l0 15.38l-42.71 0Z" id="p24w238" />
<path d="M208.04 39.02l43.21 0l0 15.38l-43.21 0Z" id="p24w239" />
<path d="M307.2 38.6l45.06 0l0 16.09l-45.06 0Z" id="p24w240" />
<path d="M405.76 39.02l32.54 0l0 15.38l-32.54 0Z" id="p24w241" />
<path d="M76.9 983l49.41 0l0 12.23l-49.41 0Z" id="p24w242" />
</svg>
