<?xml version="1.0" encoding="UTF-8"?>
<svg xmlns="http://www.w3.org/2000/svg" xmlns:xlink="http://www.w3.org/1999/xlink" version="1.1" baseProfile="full" width="768" height="1024" viewBox="0,0,768,1024" preserveAspectRatio="xMinYMin meet" >
<style type="text/css">
<![CDATA[
path {fill-opacity: 0.5;fill: #00aeef;visibility: hidden;}
]]>
</style>
<path d="M131.66 871.15l8.77 0l0 13.06l-8.77 0Z" id="p177w1" />
<path d="M143.27 871.15l32.07 0l0 13.06l-32.07 0Z" id="p177w2" />
<path d="M178.18 871.15l12.17 0l0 13.06l-12.17 0Z" id="p177w3" />
<path d="M193.2 871.15l22.34 0l0 13.06l-22.34 0Z" id="p177w4" />
<path d="M218.38 871.15l18.38 0l0 13.06l-18.38 0Z" id="p177w5" />
<path d="M239.54 871.21l16.16 0l0 12.99l-16.16 0Z" id="p177w6" />
<path d="M258.54 871.21l66.9 0l0 12.99l-66.9 0Z" id="p177w7" />
<path d="M328.28 871.21l25.22 0l0 12.99l-25.22 0Z" id="p177w8" />
<path d="M356.34 871.21l25.11 0l0 12.99l-25.11 0Z" id="p177w9" />
<path d="M389.77 871.21l24.94 0l0 12.99l-24.94 0Z" id="p177w10" />
<path d="M439.15 871.15l43.33 0l0 13.06l-43.33 0Z" id="p177w11" />
<path d="M490 871.15l49.31 0l0 13.06l-49.31 0Z" id="p177w12" />
<path d="M542.17 871.21l33.65 0l0 12.99l-33.65 0ZM600.96 871.15l18.78 0l0 13.06l-18.78 0Z" id="p177w13" />
<path d="M622.61 871.15l50.07 0l0 13.06l-50.07 0Z" id="p177w14" />
<path d="M124.06 886.43l40.2 0l0 13.06l-40.2 0Z" id="p177w15" />
<path d="M167.13 886.49l21.28 0l0 12.99l-21.28 0Z" id="p177w16" />
<path d="M191.28 886.49l104.94 0l0 12.99l-104.94 0Z" id="p177w17" />
<path d="M321.37 886.43l58.29 0l0 13.06l-58.29 0Z" id="p177w18" />
<path d="M382.53 886.43l11.34 0l0 13.06l-11.34 0Z" id="p177w19" />
<path d="M396.74 886.49l20.66 0l0 12.99l-20.66 0Z" id="p177w20" />
<path d="M420.26 886.49l45.66 0l0 12.99l-45.66 0Z" id="p177w21" />
<path d="M491.06 886.43l14.1 0l0 13.06l-14.1 0Z" id="p177w22" />
<path d="M508.03 886.43l53.64 0l0 13.06l-53.64 0Z" id="p177w23" />
<path d="M585.19 886.47l15.07 0l0 12.99l-15.07 0Z" id="p177w24" />
<path d="M603.13 886.49l17.46 0l0 12.99l-17.46 0Z" id="p177w25" />
<path d="M623.45 886.49l40.43 0l0 12.99l-40.43 0Z" id="p177w26" />
<path d="M132.67 901.72l18.78 0l0 13.06l-18.78 0Z" id="p177w27" />
<path d="M154.31 901.72l25.2 0l0 13.06l-25.2 0Z" id="p177w28" />
<path d="M182.39 901.72l27.49 0l0 13.06l-27.49 0Z" id="p177w29" />
<path d="M212.75 901.77l15.31 0l0 12.99l-15.31 0Z" id="p177w30" />
<path d="M230.93 901.77l114.54 0l0 12.99l-114.54 0Z" id="p177w31" />
<path d="M348.34 901.77l13.16 0l0 12.99l-13.16 0Z" id="p177w32" />
<path d="M364.37 901.77l55.73 0l0 12.99l-55.73 0Z" id="p177w33" />
<path d="M444.52 901.72l18.78 0l0 13.06l-18.78 0Z" id="p177w34" />
<path d="M466.17 901.72l52.72 0l0 13.06l-52.72 0Z" id="p177w35" />
<path d="M535.26 901.77l35.57 0l0 12.99l-35.57 0Z" id="p177w36" />
<path d="M579.44 901.77l49.27 0l0 12.99l-49.27 0Z" id="p177w37" />
<path d="M132.67 917l58.4 0l0 13.06l-58.4 0Z" id="p177w38" />
<path d="M193.94 917.03l17.94 0l0 12.99l-17.94 0Z" id="p177w39" />
<path d="M214.75 917.06l49.73 0l0 12.99l-49.73 0Z" id="p177w40" />
<path d="M289.62 917l57.28 0l0 13.06l-57.28 0Z" id="p177w41" />
<path d="M349.77 917l12.9 0l0 13.06l-12.9 0Z" id="p177w42" />
<path d="M370.19 917l11.34 0l0 13.06l-11.34 0Z" id="p177w43" />
<path d="M384.39 917.06l17.95 0l0 12.99l-17.95 0Z" id="p177w44" />
<path d="M409.73 917.06l20.66 0l0 12.99l-20.66 0Z" id="p177w45" />
<path d="M433.25 917.06l59.31 0l0 12.99l-59.31 0Z" id="p177w46" />
<path d="M522.34 917l18.78 0l0 13.06l-18.78 0Z" id="p177w47" />
<path d="M543.98 917l36.63 0l0 13.06l-36.63 0Z" id="p177w48" />
<path d="M583.49 917.03l17.94 0l0 12.99l-17.94 0Z" id="p177w49" />
<path d="M604.3 917.06l15.31 0l0 12.99l-15.31 0Z" id="p177w50" />
<path d="M622.47 917.06l42.96 0l0 12.99l-42.96 0Z" id="p177w51" />
<path d="M136.66 932.28l34.17 0l0 13.06l-34.17 0Z" id="p177w52" />
<path d="M173.69 932.34l19.84 0l0 12.99l-19.84 0Z" id="p177w53" />
<path d="M223.31 932.28l31.46 0l0 13.06l-31.46 0Z" id="p177w54" />
<path d="M257.64 932.28l12.9 0l0 13.06l-12.9 0Z" id="p177w55" />
<path d="M278.06 932.28l11.34 0l0 13.06l-11.34 0Z" id="p177w56" />
<path d="M292.27 932.34l17.95 0l0 12.99l-17.95 0Z" id="p177w57" />
<path d="M317.6 932.34l20.66 0l0 12.99l-20.66 0Z" id="p177w58" />
<path d="M341.12 932.34l45.44 0l0 12.99l-45.44 0Z" id="p177w59" />
<path d="M593.77 983l97.34 0l0 12.23l-97.34 0Z" id="p177w60" />
<path d="M68.27 38.6l22.34 0l0 16.09l-22.34 0Z" id="p177w61" />
<path d="M93.98 38.6l34.85 0l0 16.09l-34.85 0Z" id="p177w62" />
<path d="M613.17 284.86l20.81 0l0 12.56l-20.81 0Z" id="p177w63" />
<path d="M636.68 284.86l31.57 0l0 12.56l-31.57 0Z" id="p177w64" />
<path d="M124.44 302.02l27.27 0l0 15.37l-27.27 0Z" id="p177w65" />
<path d="M155.09 302.02l26.38 0l0 15.37l-26.38 0Z" id="p177w66" />
<path d="M184.85 302.02l10.55 0l0 15.37l-10.55 0Z" id="p177w67" />
<path d="M198.78 302.02l50.09 0l0 15.37l-50.09 0Z" id="p177w68" />
<path d="M124.44 323.31l14.7 0l0 14.52l-14.7 0Z" id="p177w69" />
<path d="M142.36 323.31l41.97 0l0 14.52l-41.97 0Z" id="p177w70" />
<path d="M187.54 323.31l41.43 0l0 14.52l-41.43 0Z" id="p177w71" />
<path d="M232.18 323.31l13.9 0l0 14.52l-13.9 0Z" id="p177w72" />
<path d="M249.28 323.31l39.57 0l0 14.52l-39.57 0Z" id="p177w73" />
<path d="M292.06 323.31l14.18 0l0 14.52l-14.18 0Z" id="p177w74" />
<path d="M309.45 323.31l23.79 0l0 14.52l-23.79 0Z" id="p177w75" />
<path d="M336.44 323.31l9.89 0l0 14.52l-9.89 0Z" id="p177w76" />
<path d="M349.53 323.31l29.39 0l0 14.52l-29.39 0Z" id="p177w77" />
<path d="M382.13 323.31l25.67 0l0 14.52l-25.67 0Z" id="p177w78" />
<path d="M411.01 323.31l9.89 0l0 14.52l-9.89 0Z" id="p177w79" />
<path d="M424.11 323.31l47.85 0l0 14.52l-47.85 0Z" id="p177w80" />
<path d="M475.16 323.31l68.15 0l0 14.52l-68.15 0Z" id="p177w81" />
<path d="M546.52 323.31l17.11 0l0 14.52l-17.11 0Z" id="p177w82" />
<path d="M566.83 323.31l32.35 0l0 14.52l-32.35 0Z" id="p177w83" />
<path d="M124.44 339.98l63.09 0l0 14.52l-63.09 0Z" id="p177w84" />
<path d="M190.74 339.98l44.63 0l0 14.52l-44.63 0Z" id="p177w85" />
<path d="M242.3 339.98l60.14 0l0 14.52l-60.14 0Z" id="p177w86" />
<path d="M309.36 339.98l40.89 0l0 14.52l-40.89 0Z" id="p177w87" />
<path d="M353.46 339.98l15.5 0l0 14.52l-15.5 0Z" id="p177w88" />
<path d="M372.16 339.98l59.34 0l0 14.52l-59.34 0Z" id="p177w89" />
<path d="M438.43 339.98l13.63 0l0 14.52l-13.63 0Z" id="p177w90" />
<path d="M455.28 339.98l42.77 0l0 14.52l-42.77 0Z" id="p177w91" />
<path d="M124.45 356.65l14.18 0l0 14.52l-14.18 0Z" id="p177w92" />
<path d="M141.83 356.65l39.57 0l0 14.52l-39.57 0Z" id="p177w93" />
<path d="M184.61 356.65l14.18 0l0 14.52l-14.18 0Z" id="p177w94" />
<path d="M201.99 356.65l21.92 0l0 14.52l-21.92 0Z" id="p177w95" />
<path d="M227.13 356.65l53.71 0l0 14.52l-53.71 0Z" id="p177w96" />
<path d="M284.04 356.65l12.29 0l0 14.52l-12.29 0Z" id="p177w97" />
<path d="M299.54 356.65l28.33 0l0 14.52l-28.33 0Z" id="p177w98" />
<path d="M331.07 356.65l30.46 0l0 14.52l-30.46 0Z" id="p177w99" />
<path d="M368.45 356.65l25.67 0l0 14.52l-25.67 0Z" id="p177w100" />
<path d="M397.33 356.65l9.89 0l0 14.52l-9.89 0Z" id="p177w101" />
<path d="M410.43 356.65l47.85 0l0 14.52l-47.85 0Z" id="p177w102" />
<path d="M461.48 356.65l11.22 0l0 14.52l-11.22 0Z" id="p177w103" />
<path d="M485.8 356.65l9.89 0l0 14.52l-9.89 0Z" id="p177w104" />
<path d="M498.89 356.65l59.07 0l0 14.52l-59.07 0Z" id="p177w105" />
<path d="M566.94 356.65l15.77 0l0 14.52l-15.77 0Z" id="p177w106" />
<path d="M585.92 356.65l35.56 0l0 14.52l-35.56 0Z" id="p177w107" />
<path d="M124.45 373.33l17.11 0l0 14.52l-17.11 0Z" id="p177w108" />
<path d="M144.76 373.33l28.33 0l0 14.52l-28.33 0Z" id="p177w109" />
<path d="M176.3 373.33l28.33 0l0 14.52l-28.33 0Z" id="p177w110" />
<path d="M207.83 373.33l35.28 0l0 14.52l-35.28 0Z" id="p177w111" />
<path d="M246.32 373.33l15.5 0l0 14.52l-15.5 0Z" id="p177w112" />
<path d="M265.02 373.33l71.37 0l0 14.52l-71.37 0Z" id="p177w113" />
<path d="M339.6 373.33l17.11 0l0 14.52l-17.11 0Z" id="p177w114" />
<path d="M359.91 373.33l60.77 0l0 14.52l-60.77 0Z" id="p177w115" />
<path d="M423.89 373.33l44.63 0l0 14.52l-44.63 0Z" id="p177w116" />
<path d="M471.72 373.33l14.18 0l0 14.52l-14.18 0Z" id="p177w117" />
<path d="M489.11 373.33l42.77 0l0 14.52l-42.77 0Z" id="p177w118" />
<path d="M613.17 420.31l20.81 0l0 12.56l-20.81 0Z" id="p177w119" />
<path d="M636.68 420.31l31.57 0l0 12.56l-31.57 0Z" id="p177w120" />
<path d="M124.44 437.47l19.58 0l0 15.37l-19.58 0Z" id="p177w121" />
<path d="M147.4 437.47l46.23 0l0 15.37l-46.23 0Z" id="p177w122" />
<path d="M197 437.47l73.03 0l0 15.37l-73.03 0Z" id="p177w123" />
<path d="M124.44 458.76l18.44 0l0 14.52l-18.44 0Z" id="p177w124" />
<path d="M146.09 458.76l49.43 0l0 14.52l-49.43 0Z" id="p177w125" />
<path d="M198.73 458.76l52.92 0l0 14.52l-52.92 0Z" id="p177w126" />
<path d="M254.85 458.76l14.18 0l0 14.52l-14.18 0Z" id="p177w127" />
<path d="M272.24 458.76l41.97 0l0 14.52l-41.97 0Z" id="p177w128" />
<path d="M317.42 458.76l39.55 0l0 14.52l-39.55 0Z" id="p177w129" />
<path d="M360.17 458.76l19.51 0l0 14.52l-19.51 0Z" id="p177w130" />
<path d="M382.89 458.76l43.57 0l0 14.52l-43.57 0Z" id="p177w131" />
<path d="M429.66 458.76l71.92 0l0 14.52l-71.92 0Z" id="p177w132" />
<path d="M124.44 475.43l18.44 0l0 14.52l-18.44 0Z" id="p177w133" />
<path d="M146.09 475.43l31.28 0l0 14.52l-31.28 0Z" id="p177w134" />
<path d="M180.58 475.43l11.22 0l0 14.52l-11.22 0Z" id="p177w135" />
<path d="M195.01 475.43l15.5 0l0 14.52l-15.5 0Z" id="p177w136" />
<path d="M213.71 475.43l86.09 0l0 14.52l-86.09 0Z" id="p177w137" />
<path d="M303 475.43l22.99 0l0 14.52l-22.99 0Z" id="p177w138" />
<path d="M329.2 475.43l32.87 0l0 14.52l-32.87 0Z" id="p177w139" />
<path d="M365.28 475.43l19.51 0l0 14.52l-19.51 0Z" id="p177w140" />
<path d="M401.81 475.43l41.43 0l0 14.52l-41.43 0Z" id="p177w141" />
<path d="M446.45 475.43l69.24 0l0 14.52l-69.24 0Z" id="p177w142" />
<path d="M518.91 475.43l25.4 0l0 14.52l-25.4 0Z" id="p177w143" />
<path d="M547.51 475.43l26.99 0l0 14.52l-26.99 0Z" id="p177w144" />
<path d="M577.71 475.43l50.25 0l0 14.52l-50.25 0Z" id="p177w145" />
<path d="M631.17 475.43l26.99 0l0 14.52l-26.99 0Z" id="p177w146" />
<path d="M124.44 492.1l43.5 0l0 14.52l-43.5 0Z" id="p177w147" />
<path d="M171.16 492.1l11.22 0l0 14.52l-11.22 0Z" id="p177w148" />
<path d="M185.58 492.1l26.99 0l0 14.52l-26.99 0Z" id="p177w149" />
<path d="M215.78 492.1l44.38 0l0 14.52l-44.38 0Z" id="p177w150" />
<path d="M263.37 492.1l63.34 0l0 14.52l-63.34 0Z" id="p177w151" />
<path d="M329.92 492.1l65.69 0l0 14.52l-65.69 0Z" id="p177w152" />
<path d="M398.82 492.1l15.5 0l0 14.52l-15.5 0Z" id="p177w153" />
<path d="M417.52 492.1l69.24 0l0 14.52l-69.24 0Z" id="p177w154" />
<path d="M489.97 492.1l33.95 0l0 14.52l-33.95 0Z" id="p177w155" />
<path d="M527.13 492.1l26.73 0l0 14.52l-26.73 0Z" id="p177w156" />
<path d="M573.1 492.1l79.39 0l0 14.52l-79.39 0Z" id="p177w157" />
<path d="M655.7 492.1l11.22 0l0 14.52l-11.22 0Z" id="p177w158" />
<path d="M124.44 508.77l72.15 0l0 14.52l-72.15 0Z" id="p177w159" />
<path d="M203.52 508.78l41.71 0l0 14.52l-41.71 0Z" id="p177w160" />
<path d="M268.63 508.78l13.9 0l0 14.52l-13.9 0Z" id="p177w161" />
<path d="M285.74 508.78l9.89 0l0 14.52l-9.89 0Z" id="p177w162" />
<path d="M298.83 508.78l60.16 0l0 14.52l-60.16 0Z" id="p177w163" />
<path d="M362.2 508.78l32.6 0l0 14.52l-32.6 0Z" id="p177w164" />
<path d="M398.01 508.78l14.18 0l0 14.52l-14.18 0Z" id="p177w165" />
<path d="M415.39 508.78l44.65 0l0 14.52l-44.65 0Z" id="p177w166" />
<path d="M124.44 525.45l18.44 0l0 14.52l-18.44 0Z" id="p177w167" />
<path d="M146.09 525.45l69.24 0l0 14.52l-69.24 0Z" id="p177w168" />
<path d="M218.54 525.45l27.81 0l0 14.52l-27.81 0Z" id="p177w169" />
<path d="M249.56 525.45l19.51 0l0 14.52l-19.51 0Z" id="p177w170" />
<path d="M272.27 525.45l20.85 0l0 14.52l-20.85 0Z" id="p177w171" />
<path d="M296.34 525.45l16.04 0l0 14.52l-16.04 0Z" id="p177w172" />
<path d="M315.58 525.45l29.94 0l0 14.52l-29.94 0Z" id="p177w173" />
<path d="M348.72 525.45l17.11 0l0 14.52l-17.11 0Z" id="p177w174" />
<path d="M369.04 525.45l9.89 0l0 14.52l-9.89 0Z" id="p177w175" />
<path d="M382.13 525.45l41.7 0l0 14.52l-41.7 0Z" id="p177w176" />
<path d="M436.92 525.45l19.77 0l0 14.52l-19.77 0Z" id="p177w177" />
<path d="M459.9 525.45l59.54 0l0 14.52l-59.54 0Z" id="p177w178" />
<path d="M532.54 525.45l64.15 0l0 14.52l-64.15 0Z" id="p177w179" />
<path d="M603.61 525.45l21.38 0l0 14.52l-21.38 0Z" id="p177w180" />
<path d="M628.2 525.45l41.96 0l0 14.52l-41.96 0Z" id="p177w181" />
<path d="M124.45 542.12l11.22 0l0 14.52l-11.22 0Z" id="p177w182" />
<path d="M138.88 542.12l21.38 0l0 14.52l-21.38 0Z" id="p177w183" />
<path d="M163.47 542.12l41.45 0l0 14.52l-41.45 0Z" id="p177w184" />
<path d="M235.97 542.12l38.92 0l0 14.52l-38.92 0Z" id="p177w185" />
<path d="M278.1 542.12l19.52 0l0 14.52l-19.52 0Z" id="p177w186" />
<path d="M300.83 542.12l33.95 0l0 14.52l-33.95 0Z" id="p177w187" />
<path d="M337.99 542.12l26.73 0l0 14.52l-26.73 0Z" id="p177w188" />
<path d="M367.92 542.12l19.51 0l0 14.52l-19.51 0Z" id="p177w189" />
<path d="M390.64 542.12l46.49 0l0 14.52l-46.49 0Z" id="p177w190" />
<path d="M447.2 542.12l11.22 0l0 14.52l-11.22 0Z" id="p177w191" />
<path d="M461.63 542.12l54.55 0l0 14.52l-54.55 0Z" id="p177w192" />
<path d="M519.39 542.12l24.33 0l0 14.52l-24.33 0Z" id="p177w193" />
<path d="M546.92 542.12l43.83 0l0 14.52l-43.83 0Z" id="p177w194" />
<path d="M613.17 586.6l20.81 0l0 12.56l-20.81 0Z" id="p177w195" />
<path d="M636.68 586.6l31.57 0l0 12.56l-31.57 0Z" id="p177w196" />
<path d="M124.44 603.76l13.55 0l0 15.37l-13.55 0Z" id="p177w197" />
<path d="M141.37 603.76l37.58 0l0 15.37l-37.58 0Z" id="p177w198" />
<path d="M182.33 603.76l30.84 0l0 15.37l-30.84 0Z" id="p177w199" />
<path d="M124.44 625.05l12.83 0l0 14.52l-12.83 0Z" id="p177w200" />
<path d="M140.48 625.05l35.76 0l0 14.52l-35.76 0Z" id="p177w201" />
<path d="M179.45 625.05l151.24 0l0 14.52l-151.24 0Z" id="p177w202" />
<path d="M333.89 625.05l16.83 0l0 14.52l-16.83 0Z" id="p177w203" />
<path d="M353.93 625.05l20.85 0l0 14.52l-20.85 0Z" id="p177w204" />
<path d="M377.99 625.05l35.76 0l0 14.52l-35.76 0Z" id="p177w205" />
<path d="M416.95 625.05l14.18 0l0 14.52l-14.18 0Z" id="p177w206" />
<path d="M434.34 625.05l40.27 0l0 14.52l-40.27 0Z" id="p177w207" />
<path d="M477.81 625.05l13.9 0l0 14.52l-13.9 0Z" id="p177w208" />
<path d="M494.92 625.05l9.89 0l0 14.52l-9.89 0Z" id="p177w209" />
<path d="M508.01 625.05l36.89 0l0 14.52l-36.89 0Z" id="p177w210" />
<path d="M548.11 625.05l17.38 0l0 14.52l-17.38 0Z" id="p177w211" />
<path d="M568.7 625.05l42.24 0l0 14.52l-42.24 0Z" id="p177w212" />
<path d="M614.15 625.05l14.7 0l0 14.52l-14.7 0Z" id="p177w213" />
<path d="M124.44 641.72l78.56 0l0 14.52l-78.56 0Z" id="p177w214" />
<path d="M206.21 641.72l11.22 0l0 14.52l-11.22 0Z" id="p177w215" />
<path d="M230.53 641.72l25.67 0l0 14.52l-25.67 0Z" id="p177w216" />
<path d="M259.41 641.72l47.5 0l0 14.52l-47.5 0Z" id="p177w217" />
<path d="M310.12 641.72l53.44 0l0 14.52l-53.44 0Z" id="p177w218" />
<path d="M124.44 658.39l26.19 0l0 14.52l-26.19 0Z" id="p177w219" />
<path d="M153.84 658.39l9.89 0l0 14.52l-9.89 0Z" id="p177w220" />
<path d="M166.93 658.39l58.01 0l0 14.52l-58.01 0Z" id="p177w221" />
<path d="M228.15 658.39l35.76 0l0 14.52l-35.76 0Z" id="p177w222" />
<path d="M267.12 658.39l9.89 0l0 14.52l-9.89 0Z" id="p177w223" />
<path d="M280.21 658.39l22.99 0l0 14.52l-22.99 0Z" id="p177w224" />
<path d="M306.41 658.39l27.53 0l0 14.52l-27.53 0Z" id="p177w225" />
<path d="M337.15 658.39l13.9 0l0 14.52l-13.9 0Z" id="p177w226" />
<path d="M354.26 658.39l39.57 0l0 14.52l-39.57 0Z" id="p177w227" />
<path d="M397.04 658.39l14.18 0l0 14.52l-14.18 0Z" id="p177w228" />
<path d="M414.42 658.39l33.95 0l0 14.52l-33.95 0Z" id="p177w229" />
<path d="M451.58 658.39l65.75 0l0 14.52l-65.75 0Z" id="p177w230" />
<path d="M520.53 658.39l13.9 0l0 14.52l-13.9 0Z" id="p177w231" />
<path d="M537.63 658.39l12.29 0l0 14.52l-12.29 0Z" id="p177w232" />
<path d="M553.13 658.39l51.6 0l0 14.52l-51.6 0Z" id="p177w233" />
<path d="M607.93 658.39l19.77 0l0 14.52l-19.77 0Z" id="p177w234" />
<path d="M630.91 658.39l30.19 0l0 14.52l-30.19 0Z" id="p177w235" />
<path d="M124.45 675.07l54.55 0l0 14.52l-54.55 0Z" id="p177w236" />
<path d="M182.21 675.07l13.9 0l0 14.52l-13.9 0Z" id="p177w237" />
<path d="M199.31 675.07l26.66 0l0 14.52l-26.66 0Z" id="p177w238" />
<path d="M235.6 675.07l44.9 0l0 14.52l-44.9 0Z" id="p177w239" />
<path d="M283.71 675.07l9.89 0l0 14.52l-9.89 0Z" id="p177w240" />
<path d="M296.8 675.07l35.55 0l0 14.52l-35.55 0Z" id="p177w241" />
<path d="M335.56 675.07l19.51 0l0 14.52l-19.51 0Z" id="p177w242" />
<path d="M358.27 675.07l52.92 0l0 14.52l-52.92 0Z" id="p177w243" />
<path d="M414.4 675.07l48.92 0l0 14.52l-48.92 0Z" id="p177w244" />
<path d="M466.52 675.07l44.36 0l0 14.52l-44.36 0Z" id="p177w245" />
<path d="M514.09 675.07l41.37 0l0 14.52l-41.37 0Z" id="p177w246" />
<path d="M563.71 675.07l44.36 0l0 14.52l-44.36 0Z" id="p177w247" />
<path d="M611.28 675.07l28.07 0l0 14.52l-28.07 0Z" id="p177w248" />
<path d="M613.17 718.73l20.81 0l0 12.56l-20.81 0Z" id="p177w249" />
<path d="M636.68 718.73l31.57 0l0 12.56l-31.57 0Z" id="p177w250" />
<path d="M124.44 735.88l55.88 0l0 15.37l-55.88 0Z" id="p177w251" />
<path d="M124.44 757.17l12.83 0l0 14.52l-12.83 0Z" id="p177w252" />
<path d="M140.48 757.17l44.64 0l0 14.52l-44.64 0Z" id="p177w253" />
<path d="M188.33 757.17l13.9 0l0 14.52l-13.9 0Z" id="p177w254" />
<path d="M205 757.17l52.11 0l0 14.52l-52.11 0Z" id="p177w255" />
<path d="M270.2 757.17l17.9 0l0 14.52l-17.9 0Z" id="p177w256" />
<path d="M291.31 757.17l9.89 0l0 14.52l-9.89 0Z" id="p177w257" />
<path d="M304.4 757.17l53.72 0l0 14.52l-53.72 0Z" id="p177w258" />
<path d="M361.33 757.17l19.51 0l0 14.52l-19.51 0Z" id="p177w259" />
<path d="M384.05 757.17l20.05 0l0 14.52l-20.05 0Z" id="p177w260" />
<path d="M407.31 757.17l28.88 0l0 14.52l-28.88 0Z" id="p177w261" />
<path d="M439.39 757.17l19.71 0l0 14.52l-19.71 0Z" id="p177w262" />
<path d="M462.31 757.17l28.88 0l0 14.52l-28.88 0Z" id="p177w263" />
<path d="M494.4 757.17l14.16 0l0 14.52l-14.16 0Z" id="p177w264" />
<path d="M511.77 757.17l11.22 0l0 14.52l-11.22 0Z" id="p177w265" />
<path d="M526.19 757.17l28.88 0l0 14.52l-28.88 0Z" id="p177w266" />
<path d="M558.28 757.17l20.59 0l0 14.52l-20.59 0Z" id="p177w267" />
<path d="M582.08 757.17l6.96 0l0 14.52l-6.96 0Z" id="p177w268" />
<path d="M592.24 757.17l12.29 0l0 14.52l-12.29 0Z" id="p177w269" />
<path d="M607.74 757.17l35.56 0l0 14.52l-35.56 0Z" id="p177w270" />
<path d="M124.44 773.84l13.63 0l0 14.52l-13.63 0Z" id="p177w271" />
<path d="M141.29 773.84l54.18 0l0 14.52l-54.18 0Z" id="p177w272" />
<path d="M198.68 773.84l13.9 0l0 14.52l-13.9 0Z" id="p177w273" />
<path d="M215.78 773.84l29.67 0l0 14.52l-29.67 0Z" id="p177w274" />
<path d="M248.66 773.84l26.19 0l0 14.52l-26.19 0Z" id="p177w275" />
<path d="M278.06 773.84l14.18 0l0 14.52l-14.18 0Z" id="p177w276" />
<path d="M295.44 773.84l51.04 0l0 14.52l-51.04 0Z" id="p177w277" />
<path d="M349.69 773.84l51.31 0l0 14.52l-51.31 0Z" id="p177w278" />
<path d="M404.2 773.84l17.38 0l0 14.52l-17.38 0Z" id="p177w279" />
<path d="M424.79 773.84l39.58 0l0 14.52l-39.58 0Z" id="p177w280" />
<path d="M467.58 773.84l22.99 0l0 14.52l-22.99 0Z" id="p177w281" />
<path d="M493.79 773.84l13.9 0l0 14.52l-13.9 0Z" id="p177w282" />
<path d="M510.89 773.84l32.07 0l0 14.52l-32.07 0Z" id="p177w283" />
<path d="M564.05 773.85l11.22 0l0 14.52l-11.22 0Z" id="p177w284" />
<path d="M578.48 773.85l42.24 0l0 14.52l-42.24 0Z" id="p177w285" />
<path d="M623.92 773.85l25.66 0l0 14.52l-25.66 0Z" id="p177w286" />
<path d="M124.45 790.52l37.96 0l0 14.52l-37.96 0Z" id="p177w287" />
<path d="M165.62 790.52l6.96 0l0 14.52l-6.96 0Z" id="p177w288" />
<path d="M194.76 790.52l28.06 0l0 14.52l-28.06 0Z" id="p177w289" />
<path d="M226.03 790.52l14.18 0l0 14.52l-14.18 0Z" id="p177w290" />
<path d="M243.41 790.52l21.37 0l0 14.52l-21.37 0Z" id="p177w291" />
<path d="M267.99 790.52l32.55 0l0 14.52l-32.55 0Z" id="p177w292" />
<path d="M303.75 790.52l27.01 0l0 14.52l-27.01 0Z" id="p177w293" />
<path d="M333.96 790.52l12.83 0l0 14.52l-12.83 0Z" id="p177w294" />
<path d="M350 790.52l29.67 0l0 14.52l-29.67 0Z" id="p177w295" />
<path d="M382.88 790.52l9.89 0l0 14.52l-9.89 0Z" id="p177w296" />
<path d="M395.97 790.52l22.99 0l0 14.52l-22.99 0Z" id="p177w297" />
<path d="M422.17 790.52l40.89 0l0 14.52l-40.89 0Z" id="p177w298" />
<path d="M466.27 790.52l16.83 0l0 14.52l-16.83 0Z" id="p177w299" />
<path d="M486.31 790.52l9.89 0l0 14.52l-9.89 0Z" id="p177w300" />
<path d="M499.4 790.52l38.15 0l0 14.52l-38.15 0Z" id="p177w301" />
<path d="M540.76 790.52l19.51 0l0 14.52l-19.51 0Z" id="p177w302" />
<path d="M563.47 790.52l37.9 0l0 14.52l-37.9 0Z" id="p177w303" />
<path d="M604.57 790.52l15.77 0l0 14.52l-15.77 0Z" id="p177w304" />
<path d="M633.44 790.52l29.95 0l0 14.52l-29.95 0Z" id="p177w305" />
<path d="M124.45 807.19l12.57 0l0 14.52l-12.57 0Z" id="p177w306" />
<path d="M140.22 807.19l44.64 0l0 14.52l-44.64 0Z" id="p177w307" />
<path d="M188.07 807.19l26.73 0l0 14.52l-26.73 0Z" id="p177w308" />
<path d="M218.01 807.19l9.89 0l0 14.52l-9.89 0Z" id="p177w309" />
<path d="M231.1 807.19l39.03 0l0 14.52l-39.03 0Z" id="p177w310" />
<path d="M273.34 807.19l32.87 0l0 14.52l-32.87 0Z" id="p177w311" />
<path d="M315.83 807.19l13.9 0l0 14.52l-13.9 0Z" id="p177w312" />
<path d="M332.93 807.19l39.57 0l0 14.52l-39.57 0Z" id="p177w313" />
<path d="M375.71 807.19l26.45 0l0 14.52l-26.45 0Z" id="p177w314" />
<path d="M405.37 807.19l28.06 0l0 14.52l-28.06 0Z" id="p177w315" />
<path d="M436.64 807.19l13.9 0l0 14.52l-13.9 0Z" id="p177w316" />
<path d="M453.75 807.19l59.53 0l0 14.52l-59.53 0Z" id="p177w317" />
<path d="M516.48 807.19l18.44 0l0 14.52l-18.44 0Z" id="p177w318" />
<path d="M538.13 807.19l47.31 0l0 14.52l-47.31 0Z" id="p177w319" />
<path d="M588.64 807.19l25.4 0l0 14.52l-25.4 0Z" id="p177w320" />
<path d="M617.25 807.19l9.89 0l0 14.52l-9.89 0Z" id="p177w321" />
<path d="M630.34 807.19l44.64 0l0 14.52l-44.64 0Z" id="p177w322" />
<path d="M124.45 823.86l13.9 0l0 14.52l-13.9 0Z" id="p177w323" />
<path d="M141.56 823.86l91.13 0l0 14.52l-91.13 0Z" id="p177w324" />
<path d="M235.89 823.86l13.91 0l0 14.52l-13.91 0Z" id="p177w325" />
<path d="M253.01 823.86l24.33 0l0 14.52l-24.33 0Z" id="p177w326" />
<path d="M280.54 823.86l22.99 0l0 14.52l-22.99 0Z" id="p177w327" />
<path d="M306.74 823.86l64.14 0l0 14.52l-64.14 0Z" id="p177w328" />
<path d="M374.09 823.86l13.9 0l0 14.52l-13.9 0Z" id="p177w329" />
<path d="M391.19 823.86l34.23 0l0 14.52l-34.23 0Z" id="p177w330" />
<path d="M613.17 114.34l20.81 0l0 12.56l-20.81 0Z" id="p177w331" />
<path d="M636.68 114.34l31.57 0l0 12.56l-31.57 0Z" id="p177w332" />
<path d="M124.44 131.5l13.53 0l0 15.37l-13.53 0Z" id="p177w333" />
<path d="M141.35 131.5l43.47 0l0 15.37l-43.47 0Z" id="p177w334" />
<path d="M124.44 152.79l12.83 0l0 14.52l-12.83 0Z" id="p177w335" />
<path d="M140.48 152.79l41.97 0l0 14.52l-41.97 0Z" id="p177w336" />
<path d="M185.66 152.79l16.83 0l0 14.52l-16.83 0Z" id="p177w337" />
<path d="M205.7 152.79l20.85 0l0 14.52l-20.85 0Z" id="p177w338" />
<path d="M229.76 152.79l19.51 0l0 14.52l-19.51 0Z" id="p177w339" />
<path d="M252.48 152.79l16.31 0l0 14.52l-16.31 0Z" id="p177w340" />
<path d="M272 152.79l53.21 0l0 14.52l-53.21 0Z" id="p177w341" />
<path d="M328.41 152.79l14.18 0l0 14.52l-14.18 0Z" id="p177w342" />
<path d="M345.8 152.79l44.38 0l0 14.52l-44.38 0Z" id="p177w343" />
<path d="M393.38 152.79l6.96 0l0 14.52l-6.96 0Z" id="p177w344" />
<path d="M403.54 152.79l12.29 0l0 14.52l-12.29 0Z" id="p177w345" />
<path d="M419.04 152.79l35.56 0l0 14.52l-35.56 0Z" id="p177w346" />
<path d="M457.81 152.79l26.73 0l0 14.52l-26.73 0Z" id="p177w347" />
<path d="M487.74 152.79l9.89 0l0 14.52l-9.89 0Z" id="p177w348" />
<path d="M500.84 152.79l56.03 0l0 14.52l-56.03 0Z" id="p177w349" />
<path d="M560.07 152.79l14.18 0l0 14.52l-14.18 0Z" id="p177w350" />
<path d="M577.46 152.79l25.4 0l0 14.52l-25.4 0Z" id="p177w351" />
<path d="M606.06 152.79l11.22 0l0 14.52l-11.22 0Z" id="p177w352" />
<path d="M124.44 169.46l24.85 0l0 14.52l-24.85 0Z" id="p177w353" />
<path d="M152.51 169.46l9.89 0l0 14.52l-9.89 0Z" id="p177w354" />
<path d="M165.6 169.46l29.13 0l0 14.52l-29.13 0Z" id="p177w355" />
<path d="M197.94 169.46l47.6 0l0 14.52l-47.6 0Z" id="p177w356" />
<path d="M248.74 169.46l64.69 0l0 14.52l-64.69 0Z" id="p177w357" />
<path d="M316.64 169.46l13.91 0l0 14.52l-13.91 0Z" id="p177w358" />
<path d="M333.76 169.46l9.89 0l0 14.52l-9.89 0Z" id="p177w359" />
<path d="M346.85 169.46l43.83 0l0 14.52l-43.83 0Z" id="p177w360" />
<path d="M393.89 169.46l16.83 0l0 14.52l-16.83 0Z" id="p177w361" />
<path d="M413.93 169.46l9.89 0l0 14.52l-9.89 0Z" id="p177w362" />
<path d="M427.02 169.46l29.13 0l0 14.52l-29.13 0Z" id="p177w363" />
<path d="M459.36 169.46l37.9 0l0 14.52l-37.9 0Z" id="p177w364" />
<path d="M500.47 169.46l18.72 0l0 14.52l-18.72 0Z" id="p177w365" />
<path d="M519.18 169.46l31.55 0l0 14.52l-31.55 0Z" id="p177w366" />
<path d="M124.44 186.13l12.83 0l0 14.52l-12.83 0Z" id="p177w367" />
<path d="M140.48 186.13l41.97 0l0 14.52l-41.97 0Z" id="p177w368" />
<path d="M195.55 186.13l17.9 0l0 14.52l-17.9 0Z" id="p177w369" />
<path d="M216.65 186.13l20.85 0l0 14.52l-20.85 0Z" id="p177w370" />
<path d="M240.72 186.13l40.11 0l0 14.52l-40.11 0Z" id="p177w371" />
<path d="M284.04 186.13l50.51 0l0 14.52l-50.51 0Z" id="p177w372" />
<path d="M337.76 186.13l13.9 0l0 14.52l-13.9 0Z" id="p177w373" />
<path d="M354.6 186.13l24.68 0l0 14.52l-24.68 0Z" id="p177w374" />
<path d="M392.11 186.13l24.14 0l0 14.52l-24.14 0Z" id="p177w375" />
<path d="M419.46 186.13l11.22 0l0 14.52l-11.22 0Z" id="p177w376" />
<path d="M433.89 186.13l30.73 0l0 14.52l-30.73 0Z" id="p177w377" />
<path d="M467.82 186.13l9.89 0l0 14.52l-9.89 0Z" id="p177w378" />
<path d="M480.92 186.13l36.55 0l0 14.52l-36.55 0Z" id="p177w379" />
<path d="M520.67 186.13l13.9 0l0 14.52l-13.9 0Z" id="p177w380" />
<path d="M537.78 186.13l25.4 0l0 14.52l-25.4 0Z" id="p177w381" />
<path d="M566.38 186.13l20.58 0l0 14.52l-20.58 0Z" id="p177w382" />
<path d="M605.88 186.13l17.9 0l0 14.52l-17.9 0Z" id="p177w383" />
<path d="M124.44 202.8l20.85 0l0 14.52l-20.85 0Z" id="p177w384" />
<path d="M148.5 202.8l40.11 0l0 14.52l-40.11 0Z" id="p177w385" />
<path d="M191.82 202.8l64.69 0l0 14.52l-64.69 0Z" id="p177w386" />
<path d="M259.72 202.8l13.9 0l0 14.52l-13.9 0Z" id="p177w387" />
<path d="M276.56 202.8l24.14 0l0 14.52l-24.14 0Z" id="p177w388" />
<path d="M313.53 202.8l26.29 0l0 14.52l-26.29 0Z" id="p177w389" />
<path d="M343.03 202.8l37.96 0l0 14.52l-37.96 0Z" id="p177w390" />
<path d="M383.93 202.8l26.29 0l0 14.52l-26.29 0Z" id="p177w391" />
<path d="M413.44 202.8l6.41 0l0 14.52l-6.41 0Z" id="p177w392" />
<path d="M423.06 202.8l18.7 0l0 14.52l-18.7 0Z" id="p177w393" />
<path d="M444.97 202.8l32.87 0l0 14.52l-32.87 0Z" id="p177w394" />
<path d="M481.04 202.8l14.18 0l0 14.52l-14.18 0Z" id="p177w395" />
<path d="M498.43 202.8l44.38 0l0 14.52l-44.38 0Z" id="p177w396" />
<path d="M124.44 219.48l12.83 0l0 14.52l-12.83 0Z" id="p177w397" />
<path d="M140.47 219.48l41.97 0l0 14.52l-41.97 0Z" id="p177w398" />
<path d="M185.66 219.48l42.24 0l0 14.52l-42.24 0Z" id="p177w399" />
<path d="M231.1 219.48l61.94 0l0 14.52l-61.94 0Z" id="p177w400" />
<path d="M296.25 219.48l21.92 0l0 14.52l-21.92 0Z" id="p177w401" />
<path d="M321.38 219.48l43.57 0l0 14.52l-43.57 0Z" id="p177w402" />
<path d="M368.16 219.48l65.39 0l0 14.52l-65.39 0Z" id="p177w403" />
<path d="M436.76 219.48l12.83 0l0 14.52l-12.83 0Z" id="p177w404" />
<path d="M452.8 219.48l22.45 0l0 14.52l-22.45 0Z" id="p177w405" />
<path d="M478.46 219.48l13.9 0l0 14.52l-13.9 0Z" id="p177w406" />
<path d="M495.56 219.48l41.97 0l0 14.52l-41.97 0Z" id="p177w407" />
<path d="M540.74 219.48l16.83 0l0 14.52l-16.83 0Z" id="p177w408" />
<path d="M560.78 219.48l9.89 0l0 14.52l-9.89 0Z" id="p177w409" />
<path d="M573.87 219.48l44.1 0l0 14.52l-44.1 0Z" id="p177w410" />
<path d="M621.18 219.48l13.9 0l0 14.52l-13.9 0Z" id="p177w411" />
<path d="M124.44 236.15l9.89 0l0 14.52l-9.89 0Z" id="p177w412" />
<path d="M137.53 236.15l50.28 0l0 14.52l-50.28 0Z" id="p177w413" />
<path d="M191.02 236.15l26.45 0l0 14.52l-26.45 0Z" id="p177w414" />
<path d="M220.67 236.15l9.89 0l0 14.52l-9.89 0Z" id="p177w415" />
<path d="M233.77 236.15l55.07 0l0 14.52l-55.07 0Z" id="p177w416" />
<path d="M295.77 236.15l57.47 0l0 14.52l-57.47 0Z" id="p177w417" />
<path d="M356.44 236.15l16.83 0l0 14.52l-16.83 0Z" id="p177w418" />
<path d="M376.48 236.15l53.46 0l0 14.52l-53.46 0Z" id="p177w419" />
</svg>
