<?xml version="1.0" encoding="UTF-8"?>
<svg xmlns="http://www.w3.org/2000/svg" xmlns:xlink="http://www.w3.org/1999/xlink" version="1.1" baseProfile="full" width="768" height="1024" viewBox="0,0,768,1024" preserveAspectRatio="xMinYMin meet" >
<style type="text/css">
<![CDATA[
path {fill-opacity: 0.5;fill: #00aeef;visibility: hidden;}
]]>
</style>
<path d="M572.94 38.6l71 0l0 16.09l-71 0Z" id="p215w1" />
<path d="M613.51 983.66l75.72 0l0 12.23l-75.72 0Z" id="p215w2" />
<path d="M59.08 104.77l54.73 0l0 24.59l-54.73 0Z" id="p215w3" />
<path d="M239.95 142.32l29.93 0l0 20.58l-29.93 0Z" id="p215w4" />
<path d="M70.65 174.4l55.97 0l0 12.99l-55.97 0Z" id="p215w5" />
<path d="M129.49 174.4l33.48 0l0 12.99l-33.48 0Z" id="p215w6" />
<path d="M165.84 174.4l12.68 0l0 12.99l-12.68 0Z" id="p215w7" />
<path d="M181.4 174.4l32.51 0l0 12.99l-32.51 0Z" id="p215w8" />
<path d="M216.78 174.4l46.64 0l0 12.99l-46.64 0Z" id="p215w9" />
<path d="M266.29 174.4l27.74 0l0 12.99l-27.74 0Z" id="p215w10" />
<path d="M70.65 188.29l12.68 0l0 12.99l-12.68 0Z" id="p215w11" />
<path d="M86.21 188.23l86.34 0l0 13.06l-86.34 0Z" id="p215w12" />
<path d="M175.42 188.29l63.62 0l0 12.99l-63.62 0Z" id="p215w13" />
<path d="M265.9 188.29l17.69 0l0 12.99l-17.69 0Z" id="p215w14" />
<path d="M70.65 202.18l12.68 0l0 12.99l-12.68 0Z" id="p215w15" />
<path d="M86.21 202.18l13.39 0l0 12.99l-13.39 0Z" id="p215w16" />
<path d="M102.47 202.18l15.31 0l0 12.99l-15.31 0Z" id="p215w17" />
<path d="M120.65 202.18l49.99 0l0 12.99l-49.99 0Z" id="p215w18" />
<path d="M173.51 202.18l61.72 0l0 12.99l-61.72 0Z" id="p215w19" />
<path d="M70.65 216.07l46.34 0l0 12.99l-46.34 0Z" id="p215w20" />
<path d="M119.87 216.07l53.82 0l0 12.99l-53.82 0Z" id="p215w21" />
<path d="M185.16 216.07l15.31 0l0 12.99l-15.31 0Z" id="p215w22" />
<path d="M203.34 216.07l69.11 0l0 12.99l-69.11 0Z" id="p215w23" />
<path d="M70.65 229.96l38.98 0l0 12.99l-38.98 0Z" id="p215w24" />
<path d="M121.12 229.96l15.31 0l0 12.99l-15.31 0Z" id="p215w25" />
<path d="M139.29 229.96l111.15 0l0 12.99l-111.15 0Z" id="p215w26" />
<path d="M70.65 243.85l47.82 0l0 12.99l-47.82 0Z" id="p215w27" />
<path d="M129.95 243.85l32.76 0l0 12.99l-32.76 0Z" id="p215w28" />
<path d="M165.58 243.85l54.29 0l0 12.99l-54.29 0Z" id="p215w29" />
<path d="M222.74 243.85l51.89 0l0 12.99l-51.89 0Z" id="p215w30" />
<path d="M70.65 257.73l32.76 0l0 12.99l-32.76 0Z" id="p215w31" />
<path d="M106.28 257.73l90.17 0l0 12.99l-90.17 0Z" id="p215w32" />
<path d="M199.32 257.73l50.95 0l0 12.99l-50.95 0Z" id="p215w33" />
<path d="M70.65 271.62l36.82 0l0 12.99l-36.82 0Z" id="p215w34" />
<path d="M110.35 271.62l13.39 0l0 12.99l-13.39 0Z" id="p215w35" />
<path d="M126.61 271.62l12.67 0l0 12.99l-12.67 0Z" id="p215w36" />
<path d="M142.15 271.62l27.51 0l0 12.99l-27.51 0Z" id="p215w37" />
<path d="M172.53 271.62l16.5 0l0 12.99l-16.5 0Z" id="p215w38" />
<path d="M191.89 271.62l36.6 0l0 12.99l-36.6 0Z" id="p215w39" />
<path d="M231.36 271.62l15.31 0l0 12.99l-15.31 0Z" id="p215w40" />
<path d="M70.65 285.51l68.65 0l0 12.99l-68.65 0Z" id="p215w41" />
<path d="M142.18 285.51l51.67 0l0 12.99l-51.67 0Z" id="p215w42" />
<path d="M196.71 285.51l27.77 0l0 12.99l-27.77 0Z" id="p215w43" />
<path d="M59.08 335.4l46.43 0l0 18.44l-46.43 0Z" id="p215w44" />
<path d="M59.08 362.52l14.31 0l0 14.6l-14.31 0Z" id="p215w45" />
<path d="M76.59 362.52l30.78 0l0 14.6l-30.78 0Z" id="p215w46" />
<path d="M110.58 362.52l75.75 0l0 14.6l-75.75 0Z" id="p215w47" />
<path d="M59.08 377.95l98.29 0l0 16.35l-98.29 0Z" id="p215w48" />
<path d="M232.37 362.6l17.11 0l0 14.52l-17.11 0Z" id="p215w49" />
<path d="M252.68 362.6l136.28 0l0 14.52l-136.28 0Z" id="p215w50" />
<path d="M232.37 379.25l60.43 0l0 14.52l-60.43 0Z" id="p215w51" />
<path d="M296 379.25l17.91 0l0 14.52l-17.91 0Z" id="p215w52" />
<path d="M317.12 379.25l27.8 0l0 14.52l-27.8 0Z" id="p215w53" />
<path d="M348.13 379.25l18.18 0l0 14.52l-18.18 0Z" id="p215w54" />
<path d="M417.47 362.6l14.18 0l0 14.52l-14.18 0Z" id="p215w55" />
<path d="M451.04 362.6l15.5 0l0 14.52l-15.5 0Z" id="p215w56" />
<path d="M469.74 362.6l35 0l0 14.52l-35 0Z" id="p215w57" />
<path d="M507.95 362.6l41.97 0l0 14.52l-41.97 0Z" id="p215w58" />
<path d="M553.13 362.6l25.38 0l0 14.52l-25.38 0Z" id="p215w59" />
<path d="M581.72 362.6l14.18 0l0 14.52l-14.18 0Z" id="p215w60" />
<path d="M599.11 362.6l30.66 0l0 14.52l-30.66 0Z" id="p215w61" />
<path d="M417.48 379.27l77.53 0l0 14.52l-77.53 0Z" id="p215w62" />
<path d="M59.08 397.34l20.99 0l0 14.6l-20.99 0Z" id="p215w63" />
<path d="M83.28 397.34l57.39 0l0 14.6l-57.39 0Z" id="p215w64" />
<path d="M143.97 396.1l69.23 0l0 16.35l-69.23 0Z" id="p215w65" />
<path d="M232.38 397.42l17.11 0l0 14.52l-17.11 0Z" id="p215w66" />
<path d="M252.69 397.42l43.8 0l0 14.52l-43.8 0Z" id="p215w67" />
<path d="M299.69 397.42l23.79 0l0 14.52l-23.79 0Z" id="p215w68" />
<path d="M326.68 397.42l34.44 0l0 14.52l-34.44 0Z" id="p215w69" />
<path d="M232.38 414.09l17.11 0l0 14.52l-17.11 0Z" id="p215w70" />
<path d="M252.69 414.09l77.24 0l0 14.52l-77.24 0Z" id="p215w71" />
<path d="M417.48 397.42l29.66 0l0 14.52l-29.66 0Z" id="p215w72" />
<path d="M450.35 397.42l56.92 0l0 14.52l-56.92 0Z" id="p215w73" />
<path d="M510.47 397.42l13.9 0l0 14.52l-13.9 0Z" id="p215w74" />
<path d="M527.58 397.42l44.92 0l0 14.52l-44.92 0Z" id="p215w75" />
<path d="M575.7 397.42l19.51 0l0 14.52l-19.51 0Z" id="p215w76" />
<path d="M417.48 414.09l13.9 0l0 14.52l-13.9 0Z" id="p215w77" />
<path d="M434.59 414.09l38.95 0l0 14.52l-38.95 0Z" id="p215w78" />
<path d="M435.2 430.78l56.92 0l0 14.61l-56.92 0Z" id="p215w79" />
<path d="M62.42 448.88l64.58 0l0 14.6l-64.58 0Z" id="p215w80" />
<path d="M148.12 447.63l59.53 0l0 16.35l-59.53 0Z" id="p215w81" />
<path d="M232.37 448.91l17.11 0l0 14.52l-17.11 0Z" id="p215w82" />
<path d="M252.68 448.91l70.5 0l0 14.52l-70.5 0Z" id="p215w83" />
<path d="M435.2 453.23l61.68 0l0 14.61l-61.68 0Z" id="p215w84" />
<path d="M59.08 471.29l14.31 0l0 14.6l-14.31 0Z" id="p215w85" />
<path d="M76.59 471.29l28.87 0l0 14.6l-28.87 0Z" id="p215w86" />
<path d="M108.76 470.04l41.3 0l0 16.35l-41.3 0Z" id="p215w87" />
<path d="M232.37 471.36l17.11 0l0 14.52l-17.11 0Z" id="p215w88" />
<path d="M252.68 471.36l29.94 0l0 14.52l-29.94 0Z" id="p215w89" />
<path d="M59.08 492l14.31 0l0 14.6l-14.31 0Z" id="p215w90" />
<path d="M76.59 492l42.83 0l0 14.6l-42.83 0Z" id="p215w91" />
<path d="M122.63 492l52.14 0l0 14.6l-52.14 0Z" id="p215w92" />
<path d="M59.08 507.43l68.31 0l0 16.35l-68.31 0Z" id="p215w93" />
<path d="M232.37 492.07l17.11 0l0 14.52l-17.11 0Z" id="p215w94" />
<path d="M252.68 492.07l86.86 0l0 14.52l-86.86 0Z" id="p215w95" />
<path d="M59.08 526.8l20.99 0l0 14.6l-20.99 0Z" id="p215w96" />
<path d="M83.27 526.8l62.39 0l0 14.6l-62.39 0Z" id="p215w97" />
<path d="M59.08 542.23l73.73 0l0 16.35l-73.73 0Z" id="p215w98" />
<path d="M232.37 526.88l23.79 0l0 14.52l-23.79 0Z" id="p215w99" />
<path d="M259.01 526.88l55.29 0l0 14.52l-55.29 0Z" id="p215w100" />
<path d="M317.5 526.88l23.79 0l0 14.52l-23.79 0Z" id="p215w101" />
<path d="M232.37 543.55l62.82 0l0 14.52l-62.82 0Z" id="p215w102" />
<path d="M417.48 526.88l41.95 0l0 14.52l-41.95 0Z" id="p215w103" />
<path d="M462.63 526.88l44.46 0l0 14.52l-44.46 0Z" id="p215w104" />
<path d="M510.29 526.88l26.73 0l0 14.52l-26.73 0Z" id="p215w105" />
<path d="M540.23 526.88l20.85 0l0 14.52l-20.85 0Z" id="p215w106" />
<path d="M564.29 526.88l64.41 0l0 14.52l-64.41 0Z" id="p215w107" />
<path d="M59.08 561.62l99.15 0l0 14.6l-99.15 0Z" id="p215w108" />
<path d="M59.08 577.05l93.75 0l0 16.35l-93.75 0Z" id="p215w109" />
<path d="M232.37 561.7l78.02 0l0 14.52l-78.02 0Z" id="p215w110" />
<path d="M313.6 561.7l44.9 0l0 14.52l-44.9 0Z" id="p215w111" />
<path d="M417.48 561.7l12.41 0l0 14.52l-12.41 0Z" id="p215w112" />
<path d="M433.09 561.7l33.13 0l0 14.52l-33.13 0Z" id="p215w113" />
<path d="M469.43 561.7l9.89 0l0 14.52l-9.89 0Z" id="p215w114" />
<path d="M482.52 561.7l34.57 0l0 14.52l-34.57 0Z" id="p215w115" />
<path d="M520.3 561.7l41.7 0l0 14.52l-41.7 0Z" id="p215w116" />
<path d="M435.7 578.39l20.84 0l0 14.61l-20.84 0Z" id="p215w117" />
<path d="M459.75 578.39l28 0l0 14.61l-28 0Z" id="p215w118" />
<path d="M59.07 596.44l51.87 0l0 14.6l-51.87 0Z" id="p215w119" />
<path d="M114.15 596.44l12.67 0l0 14.6l-12.67 0Z" id="p215w120" />
<path d="M130.13 595.2l48.26 0l0 16.35l-48.26 0Z" id="p215w121" />
<path d="M232.37 596.52l23.09 0l0 14.52l-23.09 0Z" id="p215w122" />
<path d="M258.66 596.52l55.58 0l0 14.52l-55.58 0Z" id="p215w123" />
<path d="M417.47 596.52l27.8 0l0 14.52l-27.8 0Z" id="p215w124" />
<path d="M448.48 596.52l28.33 0l0 14.52l-28.33 0Z" id="p215w125" />
<path d="M480.01 596.52l59.59 0l0 14.52l-59.59 0Z" id="p215w126" />
<path d="M542.81 596.52l14.18 0l0 14.52l-14.18 0Z" id="p215w127" />
<path d="M560.2 596.52l46.78 0l0 14.52l-46.78 0Z" id="p215w128" />
<path d="M417.47 613.19l19.51 0l0 14.52l-19.51 0Z" id="p215w129" />
<path d="M440.19 613.19l47.32 0l0 14.52l-47.32 0Z" id="p215w130" />
<path d="M435.2 629.88l11.5 0l0 14.61l-11.5 0Z" id="p215w131" />
<path d="M449.91 629.88l49.3 0l0 14.61l-49.3 0Z" id="p215w132" />
<path d="M59.08 647.94l20.99 0l0 14.6l-20.99 0Z" id="p215w133" />
<path d="M83.27 647.94l62.82 0l0 14.6l-62.82 0Z" id="p215w134" />
<path d="M59.08 663.37l68.07 0l0 16.35l-68.07 0Z" id="p215w135" />
<path d="M232.37 648.01l23.79 0l0 14.52l-23.79 0Z" id="p215w136" />
<path d="M258.93 648.01l69.61 0l0 14.52l-69.61 0Z" id="p215w137" />
<path d="M232.37 664.68l23.79 0l0 14.52l-23.79 0Z" id="p215w138" />
<path d="M259.36 664.68l71.4 0l0 14.52l-71.4 0Z" id="p215w139" />
<path d="M417.48 648.01l48.11 0l0 14.52l-48.11 0Z" id="p215w140" />
<path d="M468.8 648.01l16.83 0l0 14.52l-16.83 0Z" id="p215w141" />
<path d="M488.83 648.01l20.85 0l0 14.52l-20.85 0Z" id="p215w142" />
<path d="M512.89 648.01l62.55 0l0 14.52l-62.55 0Z" id="p215w143" />
<path d="M578.65 648.01l40.92 0l0 14.52l-40.92 0Z" id="p215w144" />
<path d="M417.48 664.68l13.9 0l0 14.52l-13.9 0Z" id="p215w145" />
<path d="M434.58 664.68l39.57 0l0 14.52l-39.57 0Z" id="p215w146" />
<path d="M435.2 681.37l62.14 0l0 14.61l-62.14 0Z" id="p215w147" />
<path d="M59.08 699.43l22.8 0l0 14.6l-22.8 0Z" id="p215w148" />
<path d="M81.87 699.43l18.84 0l0 14.6l-18.84 0Z" id="p215w149" />
<path d="M104.01 698.19l40.06 0l0 16.35l-40.06 0Z" id="p215w150" />
<path d="M232.37 699.51l53.39 0l0 14.52l-53.39 0Z" id="p215w151" />
<path d="M432.86 699.41l29.59 0l0 14.61l-29.59 0Z" id="p215w152" />
<path d="M59.08 720.13l25.13 0l0 14.6l-25.13 0Z" id="p215w153" />
<path d="M87.51 718.89l26.29 0l0 16.35l-26.29 0Z" id="p215w154" />
<path d="M232.37 720.21l44.13 0l0 14.52l-44.13 0Z" id="p215w155" />
<path d="M435.7 720.16l37.93 0l0 14.61l-37.93 0Z" id="p215w156" />
<path d="M476.84 720.16l12.83 0l0 14.61l-12.83 0Z" id="p215w157" />
<path d="M59.07 740.85l10.03 0l0 14.6l-10.03 0Z" id="p215w158" />
<path d="M72.31 740.85l79.35 0l0 14.6l-79.35 0Z" id="p215w159" />
<path d="M59.07 756.28l87.58 0l0 16.35l-87.58 0Z" id="p215w160" />
<path d="M232.37 740.93l17.11 0l0 14.52l-17.11 0Z" id="p215w161" />
<path d="M252.25 740.93l86.24 0l0 14.52l-86.24 0Z" id="p215w162" />
<path d="M232.37 757.6l17.11 0l0 14.52l-17.11 0Z" id="p215w163" />
<path d="M252.68 757.6l75.84 0l0 14.52l-75.84 0Z" id="p215w164" />
<path d="M417.47 740.93l6.96 0l0 14.52l-6.96 0Z" id="p215w165" />
<path d="M437.52 740.93l54.55 0l0 14.52l-54.55 0Z" id="p215w166" />
<path d="M495.28 740.93l13.9 0l0 14.52l-13.9 0Z" id="p215w167" />
<path d="M512.39 740.93l86.86 0l0 14.52l-86.86 0Z" id="p215w168" />
<path d="M435.2 757.62l77.72 0l0 14.61l-77.72 0Z" id="p215w169" />
<path d="M59.08 775.68l20.99 0l0 14.6l-20.99 0Z" id="p215w170" />
<path d="M83.27 775.68l43.21 0l0 14.6l-43.21 0Z" id="p215w171" />
<path d="M129.78 774.43l58.53 0l0 16.35l-58.53 0Z" id="p215w172" />
<path d="M232.37 775.75l23.79 0l0 14.52l-23.79 0Z" id="p215w173" />
<path d="M259.36 775.75l80.96 0l0 14.52l-80.96 0Z" id="p215w174" />
<path d="M435.7 775.69l14.16 0l0 14.61l-14.16 0Z" id="p215w175" />
<path d="M453.07 775.69l23.52 0l0 14.61l-23.52 0Z" id="p215w176" />
<path d="M435.2 792.36l35.39 0l0 14.61l-35.39 0Z" id="p215w177" />
<path d="M494.73 792.36l24.85 0l0 14.61l-24.85 0Z" id="p215w178" />
<path d="M59.07 810.42l22.58 0l0 14.6l-22.58 0Z" id="p215w179" />
<path d="M84.87 810.42l13.9 0l0 14.6l-13.9 0Z" id="p215w180" />
<path d="M101.97 810.42l41.18 0l0 14.6l-41.18 0Z" id="p215w181" />
<path d="M146.36 810.42l24.84 0l0 14.6l-24.84 0Z" id="p215w182" />
<path d="M174.41 810.42l14.41 0l0 14.6l-14.41 0Z" id="p215w183" />
<path d="M59.07 825.85l89.91 0l0 16.35l-89.91 0Z" id="p215w184" />
<path d="M232.37 810.5l18.7 0l0 14.52l-18.7 0Z" id="p215w185" />
<path d="M254.28 810.5l23.8 0l0 14.52l-23.8 0Z" id="p215w186" />
<path d="M281.29 810.5l10.43 0l0 14.52l-10.43 0Z" id="p215w187" />
<path d="M294.92 810.5l43.14 0l0 14.52l-43.14 0Z" id="p215w188" />
<path d="M341.26 810.5l25.62 0l0 14.52l-25.62 0Z" id="p215w189" />
<path d="M232.37 827.17l43.14 0l0 14.52l-43.14 0Z" id="p215w190" />
<path d="M278.71 827.17l12.84 0l0 14.52l-12.84 0Z" id="p215w191" />
<path d="M294.76 827.17l23.8 0l0 14.52l-23.8 0Z" id="p215w192" />
<path d="M321.77 827.17l35.02 0l0 14.52l-35.02 0Z" id="p215w193" />
<path d="M417.48 810.5l14.7 0l0 14.52l-14.7 0Z" id="p215w194" />
<path d="M435.39 810.5l37.25 0l0 14.52l-37.25 0Z" id="p215w195" />
<path d="M475.41 810.5l33.68 0l0 14.52l-33.68 0Z" id="p215w196" />
<path d="M512.3 810.5l16.83 0l0 14.52l-16.83 0Z" id="p215w197" />
<path d="M532.34 810.5l44.11 0l0 14.52l-44.11 0Z" id="p215w198" />
<path d="M579.66 810.5l13.9 0l0 14.52l-13.9 0Z" id="p215w199" />
<path d="M596.76 810.5l41.71 0l0 14.52l-41.71 0Z" id="p215w200" />
<path d="M417.48 827.17l25.4 0l0 14.52l-25.4 0Z" id="p215w201" />
<path d="M446.08 827.17l19.51 0l0 14.52l-19.51 0Z" id="p215w202" />
<path d="M468.79 827.17l39.03 0l0 14.52l-39.03 0Z" id="p215w203" />
<path d="M59.07 845.28l10.03 0l0 14.6l-10.03 0Z" id="p215w204" />
<path d="M72.31 845.28l48.36 0l0 14.6l-48.36 0Z" id="p215w205" />
<path d="M123.88 845.28l14.27 0l0 14.6l-14.27 0Z" id="p215w206" />
<path d="M141.36 845.28l21.5 0l0 14.6l-21.5 0Z" id="p215w207" />
<path d="M166.07 845.32l33.14 0l0 14.52l-33.14 0Z" id="p215w208" />
<path d="M59.07 860.71l64.68 0l0 16.35l-64.68 0Z" id="p215w209" />
<path d="M232.37 845.32l17.11 0l0 14.52l-17.11 0Z" id="p215w210" />
<path d="M252.42 845.32l50.46 0l0 14.52l-50.46 0Z" id="p215w211" />
<path d="M59.07 880.08l20.99 0l0 14.6l-20.99 0Z" id="p215w212" />
<path d="M83.27 880.08l39.73 0l0 14.6l-39.73 0Z" id="p215w213" />
<path d="M126.21 880.08l13.87 0l0 14.6l-13.87 0Z" id="p215w214" />
<path d="M143.29 880.08l48.36 0l0 14.6l-48.36 0Z" id="p215w215" />
<path d="M59.07 895.51l105.26 0l0 16.35l-105.26 0Z" id="p215w216" />
<path d="M232.37 880.16l23.79 0l0 14.52l-23.79 0Z" id="p215w217" />
<path d="M259.1 880.16l79.58 0l0 14.52l-79.58 0Z" id="p215w218" />
</svg>
