<?xml version="1.0" encoding="UTF-8"?>
<svg xmlns="http://www.w3.org/2000/svg" xmlns:xlink="http://www.w3.org/1999/xlink" version="1.1" baseProfile="full" width="768" height="1024" viewBox="0,0,768,1024" preserveAspectRatio="xMinYMin meet" >
<style type="text/css">
<![CDATA[
path {fill-opacity: 0.5;fill: #00aeef;visibility: hidden;}
]]>
</style>
<path d="M122.04 763.16l16.99 0l0 11.81l-16.99 0Z" id="p283w1" />
<path d="M141.62 763.16l30.27 0l0 11.81l-30.27 0Z" id="p283w2" />
<path d="M122.04 787.17l85.5 0l0 11.81l-85.5 0Z" id="p283w3" />
<path d="M99.58 303.35l37.09 0l0 11.8l-37.09 0Z" id="p283w4" />
<path d="M27.45 282.57l38.25 0l0 11.8l-38.25 0Z" id="p283w5" />
<path d="M63.15 174.35l32.2 0l0 11.8l-32.2 0Z" id="p283w6" />
<path d="M118.48 364.92l37.2 0l0 11.8l-37.2 0Z" id="p283w7" />
<path d="M184.38 655.09l49.85 0l0 11.8l-49.85 0Z" id="p283w8" />
<path d="M70.75 939.6l29.15 0l0 11.8l-29.15 0Z" id="p283w9" />
<path d="M126.52 535.5l53.34 0l0 11.8l-53.34 0Z" id="p283w10" />
<path d="M2.25 806.85l45.79 0l0 11.8l-45.79 0Z" id="p283w11" />
<path d="M48.64 695.95l34.89 0l0 11.8l-34.89 0Z" id="p283w12" />
<path d="M150.94 494.15l21.33 0l0 11.8l-21.33 0Z" id="p283w13" />
<path d="M48.42 72.12l41.96 0l0 11.8l-41.96 0Z" id="p283w14" />
<path d="M9.84 445.68l60.72 0l0 11.8l-60.72 0Z" id="p283w15" />
<path d="M123.32 249.84l41.39 0l0 11.8l-41.39 0Z" id="p283w16" />
<path d="M45.16 222.2l67.52 0l0 11.8l-67.52 0Z" id="p283w17" />
<path d="M45.34 319.19l50.11 0l0 11.8l-50.11 0Z" id="p283w18" />
<path d="M453.96 546.91l19.62 0l0 10.34l-19.62 0Z" id="p283w19" />
<path d="M463.29 585.67l33.97 0l0 10.34l-33.97 0Z" id="p283w20" />
<path d="M544.12 618.69l22.84 0l0 10.34l-22.84 0Z" id="p283w21" />
<path d="M562.05 637.41l51.51 0l0 10.34l-51.51 0Z" id="p283w22" />
<path d="M384.12 605.55l28.63 0l0 10.34l-28.63 0Z" id="p283w23" />
<path d="M351.71 614.46l22.42 0l0 10.34l-22.42 0Z" id="p283w24" />
<path d="M294.47 653.11l33.53 0l0 10.34l-33.53 0Z" id="p283w25" />
<path d="M297.83 695.66l32.41 0l0 10.34l-32.41 0Z" id="p283w26" />
<path d="M358.58 733.51l36.22 0l0 10.34l-36.22 0Z" id="p283w27" />
<path d="M317.49 801.21l44.12 0l0 10.34l-44.12 0Z" id="p283w28" />
<path d="M373.64 874.69l40.95 0l0 10.34l-40.95 0Z" id="p283w29" />
<path d="M447.01 868.81l55.28 0l0 10.34l-55.28 0Z" id="p283w30" />
<path d="M509.93 879.55l43.71 0l0 10.34l-43.71 0Z" id="p283w31" />
<path d="M514.33 775.41l21.09 0l0 10.34l-21.09 0Z" id="p283w32" />
<path d="M513.15 699.94l24.16 0l0 10.34l-24.16 0Z" id="p283w33" />
<path d="M495.97 639.94l40.16 0l0 10.34l-40.16 0ZM495.97 651.14l70.22 0l0 10.34l-70.22 0Z" id="p283w34" />
<path d="M578.26 699.62l44.69 0l0 10.34l-44.69 0Z" id="p283w35" />
<path d="M384.58 771.37l38.67 0l0 10.34l-38.67 0Z" id="p283w36" />
<path d="M465.62 755.3l46.24 0l0 10.34l-46.24 0ZM465.62 766.5l36.18 0l0 10.34l-36.18 0Z" id="p283w37" />
<path d="M586.32 913.71l33.16 0l0 10.34l-33.16 0Z" id="p283w38" />
<path d="M432.81 679.09l35.42 0l0 10.34l-35.42 0Z" id="p283w39" />
<path d="M456.53 648.67l22.97 0l0 10.34l-22.97 0Z" id="p283w40" />
<path d="M443.52 562l45.03 0l0 10.27l-45.03 0ZM443.52 574.01l30.95 0l0 10.27l-30.95 0Z" id="p283w41" />
<path d="M364.31 626.81l50.96 0l0 10.27l-50.96 0Z" id="p283w42" />
<path d="M355.08 675.43l21.34 0l0 10.27l-21.34 0Z" id="p283w43" />
<path d="M378.7 675.43l10.58 0l0 10.27l-10.58 0Z" id="p283w44" />
<path d="M350.58 687.44l8.87 0l0 10.27l-8.87 0Z" id="p283w45" />
<path d="M361.72 687.44l22.64 0l0 10.27l-22.64 0Z" id="p283w46" />
<path d="M624.22 904.02l25.28 0l0 10.27l-25.28 0Z" id="p283w47" />
<path d="M430.76 845.46l43.4 0l0 10.27l-43.4 0Z" id="p283w48" />
<path d="M505.92 712l53.37 0l0 10.27l-53.37 0ZM505.92 724l70.41 0l0 10.27l-70.41 0Z" id="p283w49" />
<path d="M540.72 853.12l73.83 0l0 10.27l-73.83 0ZM550.95 865.13l53.43 0l0 10.27l-53.43 0Z" id="p283w50" />
<path d="M381.24 787.82l42.81 0l0 10.27l-42.81 0ZM380.33 799.83l44.69 0l0 10.27l-44.69 0Z" id="p283w51" />
<path d="M472.18 792.6l104.74 0l0 10.27l-104.74 0Z" id="p283w52" />
<path d="M293.29 668.66l42.46 0l0 10.27l-42.46 0Z" id="p283w53" />
<path d="M410.9 692.84l33.74 0l0 10.27l-33.74 0ZM410.9 704.84l55.41 0l0 10.27l-55.41 0Z" id="p283w54" />
<path d="M438.32 622.26l15.24 0l0 10.27l-15.24 0ZM455.83 622.26l13.94 0l0 10.27l-13.94 0ZM439.04 632.26l30.95 0l0 10.27l-30.95 0Z" id="p283w55" />
<path d="M516.73 607.25l46.2 0l0 10.27l-46.2 0Z" id="p283w56" />
<path d="M498.36 121.37l42.65 0l0 10.34l-42.65 0Z" id="p283w57" />
<path d="M435.74 81.73l17.36 0l0 10.34l-17.36 0Z" id="p283w58" />
<path d="M393.11 127.87l48.13 0l0 10.34l-48.13 0Z" id="p283w59" />
<path d="M364.5 140.52l29.82 0l0 10.34l-29.82 0Z" id="p283w60" />
<path d="M392.61 184.28l38.46 0l0 10.34l-38.46 0Z" id="p283w61" />
<path d="M327.13 246.52l50.37 0l0 10.34l-50.37 0Z" id="p283w62" />
<path d="M379.79 316l51.1 0l0 10.34l-51.1 0Z" id="p283w63" />
<path d="M410.42 383.14l43.06 0l0 10.34l-43.06 0Z" id="p283w64" />
<path d="M475.44 429.54l34.16 0l0 10.34l-34.16 0Z" id="p283w65" />
<path d="M330.92 322.25l41.1 0l0 10.34l-41.1 0Z" id="p283w66" />
<path d="M330.46 356.62l50.88 0l0 10.34l-50.88 0Z" id="p283w67" />
<path d="M449.69 265.55l27.4 0l0 10.34l-27.4 0Z" id="p283w68" />
<path d="M557.17 265.46l32.27 0l0 10.34l-32.27 0Z" id="p283w69" />
<path d="M468.32 202.83l34.86 0l0 10.34l-34.86 0ZM468.32 212.16l26.85 0l0 10.34l-26.85 0Z" id="p283w70" />
<path d="M529.47 181.57l27.93 0l0 10.34l-27.93 0Z" id="p283w71" />
<path d="M508.32 190.95l40.34 0l0 10.34l-40.34 0Z" id="p283w72" />
<path d="M491.57 389.54l34.36 0l0 10.27l-34.36 0Z" id="p283w73" />
<path d="M382.43 403.04l26.21 0l0 10.27l-26.21 0ZM366.89 415.71l57.3 0l0 10.27l-57.3 0Z" id="p283w74" />
<path d="M314.15 348.41l24.43 0l0 10.27l-24.43 0Z" id="p283w75" />
<path d="M313.83 310.28l46.4 0l0 10.27l-46.4 0ZM313.83 334.29l42.79 0l0 10.27l-42.79 0Z" id="p283w76" />
<path d="M310.29 227.97l43.98 0l0 10.27l-43.98 0Z" id="p283w77" />
<path d="M356.54 227.97l11.89 0l0 10.27l-11.89 0Z" id="p283w78" />
<path d="M370.69 227.97l25.26 0l0 10.27l-25.26 0ZM310.29 262.65l51.64 0l0 10.27l-51.64 0Z" id="p283w79" />
<path d="M392.87 291.83l26.8 0l0 10.27l-26.8 0Z" id="p283w80" />
<path d="M465.13 281.49l40.76 0l0 10.27l-40.76 0Z" id="p283w81" />
<path d="M537.15 281.49l21.22 0l0 10.27l-21.22 0Z" id="p283w82" />
<path d="M474.13 226.69l55.88 0l0 10.27l-55.88 0Z" id="p283w83" />
<path d="M418.54 173.62l52.13 0l0 10.27l-52.13 0Z" id="p283w84" />
<path d="M425.91 142.69l48.07 0l0 10.27l-48.07 0Z" id="p283w85" />
<path d="M388.75 154.81l29.25 0l0 10.27l-29.25 0Z" id="p283w86" />
<path d="M558.99 165.96l27.17 0l0 10.27l-27.17 0Z" id="p283w87" />
<path d="M421.46 94.46l48.94 0l0 10.27l-48.94 0ZM426.81 105.14l38.3 0l0 10.27l-38.3 0Z" id="p283w88" />
<path d="M503.66 100.55l71.52 0l0 10.27l-71.52 0ZM503.66 111.22l49.27 0l0 10.27l-49.27 0Z" id="p283w89" />
<path d="M503.66 131.23l54.91 0l0 10.27l-54.91 0Z" id="p283w90" />
<path d="M544.62 206.01l60.51 0l0 10.27l-60.51 0Z" id="p283w91" />
</svg>
