<?xml version="1.0" encoding="UTF-8"?>
<svg xmlns="http://www.w3.org/2000/svg" xmlns:xlink="http://www.w3.org/1999/xlink" version="1.1" baseProfile="full" width="768" height="1024" viewBox="0,0,768,1024" preserveAspectRatio="xMinYMin meet" >
<style type="text/css">
<![CDATA[
path {fill-opacity: 0.5;fill: #00aeef;visibility: hidden;}
]]>
</style>
<path d="M124.06 114.18l59.34 0l0 14.52l-59.34 0Z" id="p140w1" />
<path d="M186.61 114.18l25.4 0l0 14.52l-25.4 0Z" id="p140w2" />
<path d="M215.22 114.18l9.89 0l0 14.52l-9.89 0Z" id="p140w3" />
<path d="M228.31 114.18l35.29 0l0 14.52l-35.29 0Z" id="p140w4" />
<path d="M266.81 114.18l33.41 0l0 14.52l-33.41 0Z" id="p140w5" />
<path d="M303.43 114.18l13.9 0l0 14.52l-13.9 0Z" id="p140w6" />
<path d="M320.53 114.18l5.61 0l0 14.52l-5.61 0Z" id="p140w7" />
<path d="M326.14 114.11l41.8 0l0 14.6l-41.8 0Z" id="p140w8" />
<path d="M401.96 114.18l11.22 0l0 14.52l-11.22 0Z" id="p140w9" />
<path d="M416.39 114.18l13.9 0l0 14.52l-13.9 0Z" id="p140w10" />
<path d="M433.5 114.18l5.61 0l0 14.52l-5.61 0Z" id="p140w11" />
<path d="M439.11 114.11l45.09 0l0 14.6l-45.09 0Z" id="p140w12" />
<path d="M520.89 114.18l30.99 0l0 14.52l-30.99 0Z" id="p140w13" />
<path d="M555.09 114.18l51.58 0l0 14.52l-51.58 0Z" id="p140w14" />
<path d="M133.94 130.85l42.08 0l0 14.52l-42.08 0Z" id="p140w15" />
<path d="M179.23 130.85l13.9 0l0 14.52l-13.9 0Z" id="p140w16" />
<path d="M196.34 130.85l48.49 0l0 14.52l-48.49 0Z" id="p140w17" />
<path d="M248.04 130.85l25.41 0l0 14.52l-25.41 0Z" id="p140w18" />
<path d="M276.65 130.85l40.64 0l0 14.52l-40.64 0Z" id="p140w19" />
<path d="M320.5 130.85l40.36 0l0 14.52l-40.36 0Z" id="p140w20" />
<path d="M364.07 130.85l27.26 0l0 14.52l-27.26 0Z" id="p140w21" />
<path d="M394.54 130.85l50.01 0l0 14.52l-50.01 0Z" id="p140w22" />
<path d="M447.76 130.85l6.41 0l0 14.52l-6.41 0Z" id="p140w23" />
<path d="M457.38 130.85l29.16 0l0 14.52l-29.16 0Z" id="p140w24" />
<path d="M489.74 130.85l23.97 0l0 14.52l-23.97 0Z" id="p140w25" />
<path d="M516.92 130.85l41.43 0l0 14.52l-41.43 0Z" id="p140w26" />
<path d="M561.56 130.85l13.91 0l0 14.52l-13.91 0Z" id="p140w27" />
<path d="M124.06 147.52l23.97 0l0 14.52l-23.97 0Z" id="p140w28" />
<path d="M151.23 147.52l47.85 0l0 14.52l-47.85 0Z" id="p140w29" />
<path d="M673.58 147.52l13.11 0l0 14.52l-13.11 0Z" id="p140w30" />
<path d="M689.9 147.52l18.89 0l0 14.52l-18.89 0Z" id="p140w31" />
<path d="M279.5 172.53l18.44 0l0 14.52l-18.44 0Z" id="p140w32" />
<path d="M301.15 172.53l61.19 0l0 14.52l-61.19 0Z" id="p140w33" />
<path d="M365.55 172.53l70.54 0l0 14.52l-70.54 0Z" id="p140w34" />
<path d="M449.18 172.53l9.89 0l0 14.52l-9.89 0Z" id="p140w35" />
<path d="M462.28 172.53l47.58 0l0 14.52l-47.58 0Z" id="p140w36" />
<path d="M302.8 189.21l9.89 0l0 14.52l-9.89 0Z" id="p140w37" />
<path d="M315.9 189.21l39.24 0l0 14.52l-39.24 0Z" id="p140w38" />
<path d="M358.35 189.21l44.46 0l0 14.52l-44.46 0Z" id="p140w39" />
<path d="M415.9 189.21l19.79 0l0 14.52l-19.79 0Z" id="p140w40" />
<path d="M438.89 189.21l43.82 0l0 14.52l-43.82 0Z" id="p140w41" />
<path d="M485.92 189.21l37.7 0l0 14.52l-37.7 0Z" id="p140w42" />
<path d="M302.8 214.22l40.9 0l0 14.52l-40.9 0Z" id="p140w43" />
<path d="M346.92 214.22l16.83 0l0 14.52l-16.83 0Z" id="p140w44" />
<path d="M366.95 214.22l9.89 0l0 14.52l-9.89 0Z" id="p140w45" />
<path d="M380.05 214.22l57.47 0l0 14.52l-57.47 0Z" id="p140w46" />
<path d="M440.72 214.22l14.18 0l0 14.52l-14.18 0Z" id="p140w47" />
<path d="M458.11 214.22l41.92 0l0 14.52l-41.92 0Z" id="p140w48" />
<path d="M279.51 230.89l26.45 0l0 14.52l-26.45 0Z" id="p140w49" />
<path d="M309.17 230.89l64.62 0l0 14.52l-64.62 0Z" id="p140w50" />
<path d="M377 230.89l9.89 0l0 14.52l-9.89 0Z" id="p140w51" />
<path d="M390.09 230.89l48.92 0l0 14.52l-48.92 0Z" id="p140w52" />
<path d="M442.21 230.89l25.92 0l0 14.52l-25.92 0Z" id="p140w53" />
<path d="M471.35 230.89l19.51 0l0 14.52l-19.51 0Z" id="p140w54" />
<path d="M302.8 255.9l31.28 0l0 14.52l-31.28 0Z" id="p140w55" />
<path d="M347.18 255.9l40.9 0l0 14.52l-40.9 0Z" id="p140w56" />
<path d="M391.29 255.9l6.96 0l0 14.52l-6.96 0Z" id="p140w57" />
<path d="M411.34 255.9l20.85 0l0 14.52l-20.85 0Z" id="p140w58" />
<path d="M435.4 255.9l22.2 0l0 14.52l-22.2 0Z" id="p140w59" />
<path d="M279.51 280.91l6.96 0l0 14.52l-6.96 0Z" id="p140w60" />
<path d="M289.67 280.91l15.87 0l0 14.52l-15.87 0Z" id="p140w61" />
<path d="M308.75 280.91l19.51 0l0 14.52l-19.51 0Z" id="p140w62" />
<path d="M331.46 280.91l20.58 0l0 14.52l-20.58 0Z" id="p140w63" />
<path d="M355.25 280.91l9.89 0l0 14.52l-9.89 0Z" id="p140w64" />
<path d="M368.34 280.91l31.28 0l0 14.52l-31.28 0Z" id="p140w65" />
<path d="M426.12 280.91l26.45 0l0 14.52l-26.45 0Z" id="p140w66" />
<path d="M455.78 280.91l43.57 0l0 14.52l-43.57 0Z" id="p140w67" />
<path d="M502.56 280.91l19.79 0l0 14.52l-19.79 0Z" id="p140w68" />
<path d="M525.55 280.91l36.63 0l0 14.52l-36.63 0Z" id="p140w69" />
<path d="M575.28 280.91l17.9 0l0 14.52l-17.9 0Z" id="p140w70" />
<path d="M279.51 305.92l18.44 0l0 14.52l-18.44 0Z" id="p140w71" />
<path d="M301.15 305.92l55.33 0l0 14.52l-55.33 0Z" id="p140w72" />
<path d="M359.69 305.92l24.87 0l0 14.52l-24.87 0Z" id="p140w73" />
<path d="M387.77 305.92l53.72 0l0 14.52l-53.72 0Z" id="p140w74" />
<path d="M454.58 305.92l14.18 0l0 14.52l-14.18 0Z" id="p140w75" />
<path d="M490.93 305.92l42.98 0l0 14.52l-42.98 0Z" id="p140w76" />
<path d="M279.52 322.59l33.16 0l0 14.52l-33.16 0Z" id="p140w77" />
<path d="M315.88 322.59l25.65 0l0 14.52l-25.65 0Z" id="p140w78" />
<path d="M363.69 322.59l52.4 0l0 14.52l-52.4 0Z" id="p140w79" />
<path d="M279.52 347.6l18.44 0l0 14.52l-18.44 0Z" id="p140w80" />
<path d="M301.16 347.6l42.78 0l0 14.52l-42.78 0Z" id="p140w81" />
<path d="M347.15 347.6l24.33 0l0 14.52l-24.33 0Z" id="p140w82" />
<path d="M393.64 347.6l36.89 0l0 14.52l-36.89 0Z" id="p140w83" />
<path d="M433.74 347.6l20.85 0l0 14.52l-20.85 0Z" id="p140w84" />
<path d="M457.8 347.6l39.57 0l0 14.52l-39.57 0Z" id="p140w85" />
<path d="M500.58 347.6l25.67 0l0 14.52l-25.67 0Z" id="p140w86" />
<path d="M529.46 347.6l9.89 0l0 14.52l-9.89 0Z" id="p140w87" />
<path d="M542.55 347.6l42.98 0l0 14.52l-42.98 0Z" id="p140w88" />
<path d="M279.52 364.27l11.5 0l0 14.52l-11.5 0Z" id="p140w89" />
<path d="M294.22 364.27l28.33 0l0 14.52l-28.33 0Z" id="p140w90" />
<path d="M325.75 364.27l22.73 0l0 14.52l-22.73 0Z" id="p140w91" />
<path d="M351.69 364.27l40.9 0l0 14.52l-40.9 0Z" id="p140w92" />
<path d="M395.8 364.27l12.66 0l0 14.52l-12.66 0Z" id="p140w93" />
<path d="M430.62 364.27l44.13 0l0 14.52l-44.13 0Z" id="p140w94" />
<path d="M124.06 430.97l46.18 0l0 14.52l-46.18 0Z" id="p140w95" />
<path d="M173.45 430.97l15.5 0l0 14.52l-15.5 0Z" id="p140w96" />
<path d="M192.15 430.97l71.37 0l0 14.52l-71.37 0Z" id="p140w97" />
<path d="M266.73 430.97l44.1 0l0 14.52l-44.1 0Z" id="p140w98" />
<path d="M124.06 447.64l40.63 0l0 14.52l-40.63 0Z" id="p140w99" />
<path d="M167.89 447.57l13.9 0l0 14.6l-13.9 0Z" id="p140w100" />
<path d="M205.88 447.57l21.87 0l0 14.6l-21.87 0Z" id="p140w101" />
<path d="M233.64 447.57l21.87 0l0 14.6l-21.87 0Z" id="p140w102" />
<path d="M279.6 447.57l13.9 0l0 14.6l-13.9 0Z" id="p140w103" />
<path d="M299.38 447.57l13.9 0l0 14.6l-13.9 0Z" id="p140w104" />
<path d="M337.37 447.57l52.31 0l0 14.6l-52.31 0Z" id="p140w105" />
<path d="M124.06 464.24l52.31 0l0 14.6l-52.31 0Z" id="p140w106" />
<path d="M200.45 464.24l13.9 0l0 14.6l-13.9 0Z" id="p140w107" />
<path d="M220.24 464.24l13.9 0l0 14.6l-13.9 0Z" id="p140w108" />
<path d="M258.23 464.24l36.8 0l0 14.6l-36.8 0Z" id="p140w109" />
<path d="M375.74 464.31l13.11 0l0 14.52l-13.11 0Z" id="p140w110" />
<path d="M392.05 464.31l14.57 0l0 14.52l-14.57 0Z" id="p140w111" />
<path d="M143.75 489.26l52.28 0l0 14.6l-52.28 0Z" id="p140w112" />
<path d="M199.24 489.34l36.91 0l0 14.61l-36.91 0Z" id="p140w113" />
<path d="M239.35 489.34l25.32 0l0 14.61l-25.32 0Z" id="p140w114" />
<path d="M267.88 489.34l9.82 0l0 14.61l-9.82 0Z" id="p140w115" />
<path d="M280.9 489.34l34.46 0l0 14.61l-34.46 0Z" id="p140w116" />
<path d="M318.57 489.34l46.71 0l0 14.61l-46.71 0Z" id="p140w117" />
<path d="M143.75 506.01l19.51 0l0 14.61l-19.51 0Z" id="p140w118" />
<path d="M166.47 506.01l40.35 0l0 14.61l-40.35 0Z" id="p140w119" />
<path d="M143.75 530.94l24.22 0l0 14.6l-24.22 0Z" id="p140w120" />
<path d="M171.18 530.94l10.02 0l0 14.6l-10.02 0Z" id="p140w121" />
<path d="M184.4 530.94l39.03 0l0 14.6l-39.03 0Z" id="p140w122" />
<path d="M226.64 531.01l27.52 0l0 14.52l-27.52 0Z" id="p140w123" />
<path d="M257.37 531.01l25.38 0l0 14.52l-25.38 0Z" id="p140w124" />
<path d="M285.96 531.01l9.89 0l0 14.52l-9.89 0Z" id="p140w125" />
<path d="M299.05 531.01l34.49 0l0 14.52l-34.49 0Z" id="p140w126" />
<path d="M336.75 531.01l46.78 0l0 14.52l-46.78 0Z" id="p140w127" />
<path d="M143.75 547.68l19.51 0l0 14.52l-19.51 0Z" id="p140w128" />
<path d="M166.47 547.68l40.36 0l0 14.52l-40.36 0Z" id="p140w129" />
<path d="M143.75 564.35l28.06 0l0 14.52l-28.06 0Z" id="p140w130" />
<path d="M184.9 564.35l35.56 0l0 14.52l-35.56 0Z" id="p140w131" />
<path d="M223.67 564.28l55.62 0l0 14.6l-55.62 0Z" id="p140w132" />
<path d="M282.5 564.35l25.67 0l0 14.52l-25.67 0Z" id="p140w133" />
<path d="M311.38 564.35l81.03 0l0 14.52l-81.03 0Z" id="p140w134" />
<path d="M143.75 581.02l19.52 0l0 14.52l-19.52 0Z" id="p140w135" />
<path d="M166.48 581.02l48.39 0l0 14.52l-48.39 0Z" id="p140w136" />
<path d="M218.07 581.02l14.18 0l0 14.52l-14.18 0Z" id="p140w137" />
<path d="M235.46 581.02l63.88 0l0 14.52l-63.88 0Z" id="p140w138" />
<path d="M143.75 597.69l15.77 0l0 14.52l-15.77 0Z" id="p140w139" />
<path d="M162.73 597.69l25.4 0l0 14.52l-25.4 0Z" id="p140w140" />
<path d="M191.33 597.62l46.46 0l0 14.6l-46.46 0Z" id="p140w141" />
<path d="M241 597.69l33.94 0l0 14.52l-33.94 0Z" id="p140w142" />
<path d="M278.14 597.69l9.89 0l0 14.52l-9.89 0Z" id="p140w143" />
<path d="M291.24 597.69l32.34 0l0 14.52l-32.34 0Z" id="p140w144" />
<path d="M326.78 597.69l13.9 0l0 14.52l-13.9 0Z" id="p140w145" />
<path d="M343.89 597.69l40.63 0l0 14.52l-40.63 0Z" id="p140w146" />
<path d="M143.75 614.36l46.78 0l0 14.52l-46.78 0Z" id="p140w147" />
<path d="M193.74 614.36l42.33 0l0 14.52l-42.33 0Z" id="p140w148" />
<path d="M143.75 631.03l46.51 0l0 14.52l-46.51 0Z" id="p140w149" />
<path d="M193.47 631.03l15.5 0l0 14.52l-15.5 0Z" id="p140w150" />
<path d="M212.17 631.03l48.39 0l0 14.52l-48.39 0Z" id="p140w151" />
<path d="M263.77 631.03l14.18 0l0 14.52l-14.18 0Z" id="p140w152" />
<path d="M281.15 631.03l63.88 0l0 14.52l-63.88 0Z" id="p140w153" />
<path d="M348.25 631.03l14.18 0l0 14.52l-14.18 0Z" id="p140w154" />
<path d="M365.63 631.03l25.4 0l0 14.52l-25.4 0Z" id="p140w155" />
<path d="M394.23 631.03l43.23 0l0 14.52l-43.23 0Z" id="p140w156" />
<path d="M440.67 630.96l45.26 0l0 14.6l-45.26 0Z" id="p140w157" />
<path d="M489.13 630.96l32.06 0l0 14.6l-32.06 0Z" id="p140w158" />
<path d="M534.29 631.03l43.31 0l0 14.52l-43.31 0Z" id="p140w159" />
<path d="M143.75 647.7l36.63 0l0 14.52l-36.63 0Z" id="p140w160" />
<path d="M183.58 647.7l6.41 0l0 14.52l-6.41 0Z" id="p140w161" />
<path d="M212.19 647.7l19.51 0l0 14.52l-19.51 0Z" id="p140w162" />
<path d="M234.9 647.7l43.57 0l0 14.52l-43.57 0Z" id="p140w163" />
<path d="M281.68 647.63l23.4 0l0 14.6l-23.4 0Z" id="p140w164" />
<path d="M308.29 647.63l10.02 0l0 14.6l-10.02 0Z" id="p140w165" />
<path d="M321.52 647.63l39.03 0l0 14.6l-39.03 0Z" id="p140w166" />
<path d="M363.75 647.7l25.4 0l0 14.52l-25.4 0Z" id="p140w167" />
<path d="M392.36 647.7l24.31 0l0 14.52l-24.31 0Z" id="p140w168" />
<path d="M419.88 647.7l17.11 0l0 14.52l-17.11 0Z" id="p140w169" />
<path d="M440.19 647.7l15.5 0l0 14.52l-15.5 0Z" id="p140w170" />
<path d="M458.9 647.7l34.49 0l0 14.52l-34.49 0Z" id="p140w171" />
<path d="M496.59 647.7l13.9 0l0 14.52l-13.9 0Z" id="p140w172" />
<path d="M513.7 647.7l37.16 0l0 14.52l-37.16 0Z" id="p140w173" />
<path d="M143.75 664.37l27.8 0l0 14.52l-27.8 0Z" id="p140w174" />
<path d="M174.75 664.37l9.89 0l0 14.52l-9.89 0Z" id="p140w175" />
<path d="M187.85 664.37l39.03 0l0 14.52l-39.03 0Z" id="p140w176" />
<path d="M230.08 664.37l34.38 0l0 14.52l-34.38 0Z" id="p140w177" />
<path d="M267.68 664.37l28.6 0l0 14.52l-28.6 0Z" id="p140w178" />
<path d="M299.49 664.37l45.45 0l0 14.52l-45.45 0Z" id="p140w179" />
<path d="M348.14 664.37l64.62 0l0 14.52l-64.62 0Z" id="p140w180" />
<path d="M415.97 664.31l23.4 0l0 14.6l-23.4 0Z" id="p140w181" />
<path d="M442.58 664.37l16.83 0l0 14.52l-16.83 0Z" id="p140w182" />
<path d="M462.62 664.37l51.05 0l0 14.52l-51.05 0Z" id="p140w183" />
<path d="M124.06 697.71l28.06 0l0 14.52l-28.06 0Z" id="p140w184" />
<path d="M155.33 697.71l42.24 0l0 14.52l-42.24 0Z" id="p140w185" />
<path d="M210.66 697.71l33.16 0l0 14.52l-33.16 0Z" id="p140w186" />
<path d="M247.02 697.71l17.9 0l0 14.52l-17.9 0Z" id="p140w187" />
<path d="M268.13 697.71l35 0l0 14.52l-35 0Z" id="p140w188" />
<path d="M306.34 697.71l19.52 0l0 14.52l-19.52 0Z" id="p140w189" />
<path d="M329.07 697.71l48.39 0l0 14.52l-48.39 0Z" id="p140w190" />
<path d="M380.66 697.71l14.18 0l0 14.52l-14.18 0Z" id="p140w191" />
<path d="M398.05 697.71l63.88 0l0 14.52l-63.88 0Z" id="p140w192" />
<path d="M124.06 714.38l57.21 0l0 14.52l-57.21 0Z" id="p140w193" />
<path d="M184.47 714.38l9.89 0l0 14.52l-9.89 0Z" id="p140w194" />
<path d="M197.56 714.38l35.29 0l0 14.52l-35.29 0Z" id="p140w195" />
<path d="M236.07 714.38l66.81 0l0 14.52l-66.81 0Z" id="p140w196" />
<path d="M306.09 714.38l14.18 0l0 14.52l-14.18 0Z" id="p140w197" />
<path d="M323.47 714.38l49.18 0l0 14.52l-49.18 0Z" id="p140w198" />
<path d="M375.86 714.38l34.48 0l0 14.52l-34.48 0Z" id="p140w199" />
<path d="M677.9 714.38l13.11 0l0 14.52l-13.11 0Z" id="p140w200" />
<path d="M694.21 714.38l14.57 0l0 14.52l-14.57 0Z" id="p140w201" />
<path d="M124.06 741.18l28.28 0l0 12.29l-28.28 0Z" id="p140w202" />
<path d="M161.17 739.41l28.06 0l0 14.52l-28.06 0Z" id="p140w203" />
<path d="M192.44 739.41l30.74 0l0 14.52l-30.74 0Z" id="p140w204" />
<path d="M226.39 739.41l53.19 0l0 14.52l-53.19 0Z" id="p140w205" />
<path d="M282.79 739.41l39.55 0l0 14.52l-39.55 0Z" id="p140w206" />
<path d="M325.54 739.34l15.76 0l0 14.6l-15.76 0Z" id="p140w207" />
<path d="M344.51 739.34l35.52 0l0 14.6l-35.52 0Z" id="p140w208" />
<path d="M383.24 739.41l20.85 0l0 14.52l-20.85 0Z" id="p140w209" />
<path d="M407.3 739.41l11.5 0l0 14.52l-11.5 0Z" id="p140w210" />
<path d="M422 739.41l12.29 0l0 14.52l-12.29 0Z" id="p140w211" />
<path d="M437.5 739.41l18.7 0l0 14.52l-18.7 0Z" id="p140w212" />
<path d="M124.06 757.86l23.81 0l0 12.29l-23.81 0Z" id="p140w213" />
<path d="M156.7 756.08l15.6 0l0 14.52l-15.6 0Z" id="p140w214" />
<path d="M175.51 756.08l32.07 0l0 14.52l-32.07 0Z" id="p140w215" />
<path d="M210.79 756.08l24.06 0l0 14.52l-24.06 0Z" id="p140w216" />
<path d="M238.06 756.02l15.76 0l0 14.6l-15.76 0Z" id="p140w217" />
<path d="M257.03 756.02l46.34 0l0 14.6l-46.34 0Z" id="p140w218" />
<path d="M306.58 756.08l20.85 0l0 14.52l-20.85 0Z" id="p140w219" />
<path d="M330.64 756.08l14.8 0l0 14.52l-14.8 0Z" id="p140w220" />
<path d="M348.65 756.08l13.11 0l0 14.52l-13.11 0Z" id="p140w221" />
<path d="M124.06 774.53l28.28 0l0 12.29l-28.28 0Z" id="p140w222" />
<path d="M160.81 772.76l12.41 0l0 14.52l-12.41 0Z" id="p140w223" />
<path d="M176.43 772.76l38.77 0l0 14.52l-38.77 0Z" id="p140w224" />
<path d="M218.4 772.76l20.85 0l0 14.52l-20.85 0Z" id="p140w225" />
<path d="M242.46 772.69l10.03 0l0 14.6l-10.03 0Z" id="p140w226" />
<path d="M255.7 772.69l40.93 0l0 14.6l-40.93 0Z" id="p140w227" />
<path d="M299.84 772.69l13.87 0l0 14.6l-13.87 0Z" id="p140w228" />
<path d="M316.92 772.69l31.65 0l0 14.6l-31.65 0Z" id="p140w229" />
<path d="M351.78 772.69l37.13 0l0 14.6l-37.13 0Z" id="p140w230" />
<path d="M394.8 772.76l24.85 0l0 14.52l-24.85 0Z" id="p140w231" />
<path d="M422.86 772.76l12.57 0l0 14.52l-12.57 0Z" id="p140w232" />
<path d="M143.76 789.43l12.41 0l0 14.52l-12.41 0Z" id="p140w233" />
<path d="M159.37 789.43l17.46 0l0 14.52l-17.46 0Z" id="p140w234" />
<path d="M180.04 789.43l29.39 0l0 14.52l-29.39 0Z" id="p140w235" />
<path d="M228.39 789.43l25.67 0l0 14.52l-25.67 0Z" id="p140w236" />
<path d="M257.27 789.43l9.89 0l0 14.52l-9.89 0Z" id="p140w237" />
<path d="M270.37 789.43l50.5 0l0 14.52l-50.5 0Z" id="p140w238" />
<path d="M324.08 789.43l20.05 0l0 14.52l-20.05 0Z" id="p140w239" />
<path d="M124.06 807.88l23.81 0l0 12.29l-23.81 0Z" id="p140w240" />
<path d="M156.7 806.1l21.4 0l0 14.52l-21.4 0Z" id="p140w241" />
<path d="M181.3 806.1l24.85 0l0 14.52l-24.85 0Z" id="p140w242" />
<path d="M209.37 806.1l15.25 0l0 14.52l-15.25 0Z" id="p140w243" />
<path d="M227.82 806.1l26.19 0l0 14.52l-26.19 0Z" id="p140w244" />
<path d="M257.21 806.04l20.99 0l0 14.6l-20.99 0Z" id="p140w245" />
<path d="M281.41 806.04l23.89 0l0 14.6l-23.89 0Z" id="p140w246" />
<path d="M308.51 806.1l20.85 0l0 14.52l-20.85 0Z" id="p140w247" />
<path d="M332.57 806.1l14.8 0l0 14.52l-14.8 0Z" id="p140w248" />
<path d="M350.57 806.1l13.63 0l0 14.52l-13.63 0Z" id="p140w249" />
<path d="M383.17 806.1l35.29 0l0 14.52l-35.29 0Z" id="p140w250" />
<path d="M421.67 806.1l14.8 0l0 14.52l-14.8 0Z" id="p140w251" />
<path d="M439.67 806.1l10.16 0l0 14.52l-10.16 0Z" id="p140w252" />
<path d="M453.04 806.1l9.89 0l0 14.52l-9.89 0Z" id="p140w253" />
<path d="M466.14 806.1l67.83 0l0 14.52l-67.83 0Z" id="p140w254" />
<path d="M143.76 822.77l11.5 0l0 14.52l-11.5 0Z" id="p140w255" />
<path d="M158.46 822.77l33.67 0l0 14.52l-33.67 0Z" id="p140w256" />
<path d="M195.34 822.77l49.71 0l0 14.52l-49.71 0Z" id="p140w257" />
<path d="M248.26 822.77l34.15 0l0 14.52l-34.15 0Z" id="p140w258" />
<path d="M124.06 841.22l28.28 0l0 12.29l-28.28 0Z" id="p140w259" />
<path d="M161.17 839.38l41.02 0l0 14.6l-41.02 0Z" id="p140w260" />
<path d="M205.4 839.38l35.11 0l0 14.6l-35.11 0Z" id="p140w261" />
<path d="M243.72 839.45l33.05 0l0 14.52l-33.05 0Z" id="p140w262" />
<path d="M279.98 839.45l20.85 0l0 14.52l-20.85 0Z" id="p140w263" />
<path d="M304.04 839.45l11.5 0l0 14.52l-11.5 0Z" id="p140w264" />
<path d="M318.74 839.45l12.29 0l0 14.52l-12.29 0Z" id="p140w265" />
<path d="M334.24 839.45l92.74 0l0 14.52l-92.74 0Z" id="p140w266" />
<path d="M430.19 839.45l27.52 0l0 14.52l-27.52 0Z" id="p140w267" />
<path d="M124.06 857.89l23.81 0l0 12.29l-23.81 0Z" id="p140w268" />
<path d="M156.7 856.12l18.44 0l0 14.52l-18.44 0Z" id="p140w269" />
<path d="M178.35 856.12l40.1 0l0 14.52l-40.1 0Z" id="p140w270" />
<path d="M228.25 856.12l12.41 0l0 14.52l-12.41 0Z" id="p140w271" />
<path d="M243.87 856.12l25.67 0l0 14.52l-25.67 0Z" id="p140w272" />
<path d="M272.75 856.12l20.85 0l0 14.52l-20.85 0Z" id="p140w273" />
<path d="M296.81 856.05l15.76 0l0 14.6l-15.76 0Z" id="p140w274" />
<path d="M315.78 856.05l38.73 0l0 14.6l-38.73 0Z" id="p140w275" />
<path d="M357.71 856.12l20.85 0l0 14.52l-20.85 0Z" id="p140w276" />
<path d="M381.78 856.12l14.8 0l0 14.52l-14.8 0Z" id="p140w277" />
<path d="M399.78 856.12l20.58 0l0 14.52l-20.58 0Z" id="p140w278" />
<path d="M124.06 874.57l28.28 0l0 12.29l-28.28 0Z" id="p140w279" />
<path d="M161.17 872.79l21.4 0l0 14.52l-21.4 0Z" id="p140w280" />
<path d="M185.77 872.79l40.89 0l0 14.52l-40.89 0Z" id="p140w281" />
<path d="M128.98 172.88l33.95 0l0 14.52l-33.95 0Z" id="p140w282" />
<path d="M128.98 214.26l39.56 0l0 14.52l-39.56 0Z" id="p140w283" />
<path d="M128.98 255.85l71.38 0l0 14.52l-71.38 0Z" id="p140w284" />
<path d="M128.98 280.9l53.44 0l0 14.52l-53.44 0Z" id="p140w285" />
<path d="M128.98 305.95l20.31 0l0 14.52l-20.31 0Z" id="p140w286" />
<path d="M128.98 347.67l17.11 0l0 14.52l-17.11 0Z" id="p140w287" />
<path d="M582.55 859.53l12.29 0l0 14.52l-12.29 0Z" id="p140w288" />
<path d="M591.31 413.88l65.22 0l0 12.56l-65.22 0Z" id="p140w289" />
<path d="M442.09 440.68l13.55 0l0 15.37l-13.55 0Z" id="p140w290" />
<path d="M459.02 440.68l52.38 0l0 15.37l-52.38 0Z" id="p140w291" />
<path d="M442.09 461.97l10.43 0l0 14.52l-10.43 0Z" id="p140w292" />
<path d="M455.73 461.97l38.49 0l0 14.52l-38.49 0Z" id="p140w293" />
<path d="M497.42 461.9l46.46 0l0 14.6l-46.46 0Z" id="p140w294" />
<path d="M547.09 461.97l9.89 0l0 14.52l-9.89 0Z" id="p140w295" />
<path d="M560.19 461.97l35.82 0l0 14.52l-35.82 0Z" id="p140w296" />
<path d="M457.18 478.64l10.43 0l0 14.52l-10.43 0Z" id="p140w297" />
<path d="M470.81 478.57l13.9 0l0 14.6l-13.9 0Z" id="p140w298" />
<path d="M487.92 478.64l38.49 0l0 14.52l-38.49 0Z" id="p140w299" />
<path d="M529.62 478.57l36.8 0l0 14.6l-36.8 0Z" id="p140w300" />
<path d="M569.62 478.64l9.89 0l0 14.52l-9.89 0Z" id="p140w301" />
<path d="M582.72 478.64l35.82 0l0 14.52l-35.82 0Z" id="p140w302" />
<path d="M442.09 503.65l10.43 0l0 14.52l-10.43 0Z" id="p140w303" />
<path d="M455.73 503.65l21.92 0l0 14.52l-21.92 0Z" id="p140w304" />
<path d="M480.86 503.59l45.26 0l0 14.6l-45.26 0Z" id="p140w305" />
<path d="M529.33 503.59l32.06 0l0 14.6l-32.06 0Z" id="p140w306" />
<path d="M582.36 503.65l10.43 0l0 14.52l-10.43 0Z" id="p140w307" />
<path d="M596 503.59l13.9 0l0 14.6l-13.9 0Z" id="p140w308" />
<path d="M613.1 503.65l21.92 0l0 14.52l-21.92 0Z" id="p140w309" />
<path d="M638.23 503.59l21.87 0l0 14.6l-21.87 0Z" id="p140w310" />
<path d="M442.09 528.67l10.43 0l0 14.52l-10.43 0Z" id="p140w311" />
<path d="M455.73 528.67l21.92 0l0 14.52l-21.92 0Z" id="p140w312" />
<path d="M480.86 528.6l55.62 0l0 14.6l-55.62 0Z" id="p140w313" />
<path d="M557.45 528.67l10.43 0l0 14.52l-10.43 0Z" id="p140w314" />
<path d="M571.09 528.6l13.9 0l0 14.6l-13.9 0Z" id="p140w315" />
<path d="M588.2 528.67l21.92 0l0 14.52l-21.92 0Z" id="p140w316" />
<path d="M613.33 528.6l52.31 0l0 14.6l-52.31 0Z" id="p140w317" />
<path d="M442.09 553.61l24.22 0l0 14.6l-24.22 0Z" id="p140w318" />
<path d="M469.52 553.68l66.8 0l0 14.52l-66.8 0Z" id="p140w319" />
<path d="M554.62 553.61l24.72 0l0 14.6l-24.72 0Z" id="p140w320" />
<path d="M582.55 553.68l13.9 0l0 14.52l-13.9 0Z" id="p140w321" />
<path d="M599.65 553.68l66.8 0l0 14.52l-66.8 0Z" id="p140w322" />
<path d="M442.09 578.62l56.59 0l0 14.6l-56.59 0Z" id="p140w323" />
<path d="M506.65 578.62l24.22 0l0 14.6l-24.22 0Z" id="p140w324" />
<path d="M534.08 578.62l10.02 0l0 14.6l-10.02 0Z" id="p140w325" />
<path d="M547.3 578.62l39.03 0l0 14.6l-39.03 0Z" id="p140w326" />
<path d="M589.54 578.69l30.48 0l0 14.52l-30.48 0Z" id="p140w327" />
<path d="M457.18 595.3l52.28 0l0 14.6l-52.28 0Z" id="p140w328" />
<path d="M512.67 595.3l13.9 0l0 14.6l-13.9 0Z" id="p140w329" />
<path d="M529.78 595.36l30.48 0l0 14.52l-30.48 0Z" id="p140w330" />
<path d="M124.06 38.6l16.59 0l0 16.09l-16.59 0Z" id="p140w331" />
<path d="M144.03 38.6l28.66 0l0 16.09l-28.66 0Z" id="p140w332" />
<path d="M186.89 38.6l99.65 0l0 16.09l-99.65 0Z" id="p140w333" />
<path d="M76.9 983l73.91 0l0 12.23l-73.91 0Z" id="p140w334" />
</svg>
