<?xml version="1.0" encoding="UTF-8"?>
<svg xmlns="http://www.w3.org/2000/svg" xmlns:xlink="http://www.w3.org/1999/xlink" version="1.1" baseProfile="full" width="768" height="1024" viewBox="0,0,768,1024" preserveAspectRatio="xMinYMin meet" >
<style type="text/css">
<![CDATA[
path {fill-opacity: 0.5;fill: #00aeef;visibility: hidden;}
]]>
</style>
<path d="M124.06 104.82l21.9 0l0 23.34l-21.9 0Z" id="p39w1" />
<path d="M151.04 104.82l40.25 0l0 23.34l-40.25 0Z" id="p39w2" />
<path d="M196.36 104.82l74.71 0l0 23.34l-74.71 0Z" id="p39w3" />
<path d="M276.15 104.82l23.67 0l0 23.34l-23.67 0Z" id="p39w4" />
<path d="M304.9 104.82l91.15 0l0 23.34l-91.15 0Z" id="p39w5" />
<path d="M401.13 104.82l25.97 0l0 23.34l-25.97 0Z" id="p39w6" />
<path d="M432.17 104.82l44.16 0l0 23.34l-44.16 0Z" id="p39w7" />
<path d="M124.06 141.33l43.22 0l0 18.84l-43.22 0Z" id="p39w8" />
<path d="M170.93 141.33l13.62 0l0 18.84l-13.62 0Z" id="p39w9" />
<path d="M188.21 141.33l51.46 0l0 18.84l-51.46 0Z" id="p39w10" />
<path d="M124.06 172.53l27.53 0l0 14.52l-27.53 0Z" id="p39w11" />
<path d="M154.8 172.53l9.89 0l0 14.52l-9.89 0Z" id="p39w12" />
<path d="M167.9 172.53l23.51 0l0 14.52l-23.51 0Z" id="p39w13" />
<path d="M194.61 172.53l14.18 0l0 14.52l-14.18 0Z" id="p39w14" />
<path d="M212 172.53l36.09 0l0 14.52l-36.09 0Z" id="p39w15" />
<path d="M267.59 172.53l28.87 0l0 14.52l-28.87 0Z" id="p39w16" />
<path d="M299.67 172.53l24.33 0l0 14.52l-24.33 0Z" id="p39w17" />
<path d="M327.2 172.53l13.9 0l0 14.52l-13.9 0Z" id="p39w18" />
<path d="M344.31 172.53l24.34 0l0 14.52l-24.34 0Z" id="p39w19" />
<path d="M371.85 172.53l33.05 0l0 14.52l-33.05 0Z" id="p39w20" />
<path d="M408.11 172.53l22.99 0l0 14.52l-22.99 0Z" id="p39w21" />
<path d="M434.31 172.53l12.66 0l0 14.52l-12.66 0Z" id="p39w22" />
<path d="M450.18 172.53l32.87 0l0 14.52l-32.87 0Z" id="p39w23" />
<path d="M124.06 189.2l32.87 0l0 14.52l-32.87 0Z" id="p39w24" />
<path d="M160.14 189.2l19.51 0l0 14.52l-19.51 0Z" id="p39w25" />
<path d="M182.85 189.2l66.3 0l0 14.52l-66.3 0Z" id="p39w26" />
<path d="M124.06 222.55l50.43 0l0 14.52l-50.43 0Z" id="p39w27" />
<path d="M177.7 222.55l20.85 0l0 14.52l-20.85 0Z" id="p39w28" />
<path d="M201.77 222.55l24.85 0l0 14.52l-24.85 0Z" id="p39w29" />
<path d="M229.83 222.55l13.9 0l0 14.52l-13.9 0Z" id="p39w30" />
<path d="M246.93 222.55l51.85 0l0 14.52l-51.85 0Z" id="p39w31" />
<path d="M310.28 222.55l20.58 0l0 14.52l-20.58 0Z" id="p39w32" />
<path d="M334.06 222.55l28.06 0l0 14.52l-28.06 0Z" id="p39w33" />
<path d="M365.33 222.55l57.46 0l0 14.52l-57.46 0Z" id="p39w34" />
<path d="M426 222.55l13.91 0l0 14.52l-13.91 0Z" id="p39w35" />
<path d="M443.12 222.55l30.65 0l0 14.52l-30.65 0Z" id="p39w36" />
<path d="M124.06 239.22l29.39 0l0 14.52l-29.39 0Z" id="p39w37" />
<path d="M156.66 239.22l37.9 0l0 14.52l-37.9 0Z" id="p39w38" />
<path d="M197.77 239.22l45.45 0l0 14.52l-45.45 0Z" id="p39w39" />
<path d="M246.42 239.22l25.67 0l0 14.52l-25.67 0Z" id="p39w40" />
<path d="M275.3 239.22l29.69 0l0 14.52l-29.69 0Z" id="p39w41" />
<path d="M124.06 414l26.45 0l0 15.09l-26.45 0Z" id="p39w42" />
<path d="M154.12 414l18.26 0l0 15.09l-18.26 0Z" id="p39w43" />
<path d="M176 414l42.59 0l0 15.09l-42.59 0Z" id="p39w44" />
<path d="M232.3 414l27.82 0l0 15.09l-27.82 0Z" id="p39w45" />
<path d="M263.74 414l27.18 0l0 15.09l-27.18 0Z" id="p39w46" />
<path d="M294.53 414l49.31 0l0 15.09l-49.31 0Z" id="p39w47" />
<path d="M347.06 414l41.52 0l0 15.09l-41.52 0Z" id="p39w48" />
<path d="M395.35 414l10.63 0l0 15.09l-10.63 0Z" id="p39w49" />
<path d="M409.59 414l22.4 0l0 15.09l-22.4 0Z" id="p39w50" />
<path d="M435.61 414l25.28 0l0 15.09l-25.28 0Z" id="p39w51" />
<path d="M464.5 414l33.45 0l0 15.09l-33.45 0Z" id="p39w52" />
<path d="M501.56 414l10.5 0l0 15.09l-10.5 0Z" id="p39w53" />
<path d="M515.67 414l50.05 0l0 15.09l-50.05 0Z" id="p39w54" />
<path d="M573.43 414l38.5 0l0 15.09l-38.5 0Z" id="p39w55" />
<path d="M615.55 414l14.21 0l0 15.09l-14.21 0Z" id="p39w56" />
<path d="M124.06 430.67l44.25 0l0 15.09l-44.25 0Z" id="p39w57" />
<path d="M171.92 430.67l8.02 0l0 15.09l-8.02 0Z" id="p39w58" />
<path d="M183.55 430.67l23.44 0l0 15.09l-23.44 0Z" id="p39w59" />
<path d="M210.61 430.67l23.2 0l0 15.09l-23.2 0Z" id="p39w60" />
<path d="M237.41 430.67l21.67 0l0 15.09l-21.67 0Z" id="p39w61" />
<path d="M262.69 430.67l26.3 0l0 15.09l-26.3 0Z" id="p39w62" />
<path d="M292.6 430.67l23.07 0l0 15.09l-23.07 0Z" id="p39w63" />
<path d="M319.28 430.67l19.01 0l0 15.09l-19.01 0Z" id="p39w64" />
<path d="M341.9 430.67l14.59 0l0 15.09l-14.59 0Z" id="p39w65" />
<path d="M360.1 430.67l10.4 0l0 15.09l-10.4 0Z" id="p39w66" />
<path d="M374.11 430.67l44.31 0l0 15.09l-44.31 0Z" id="p39w67" />
<path d="M422.03 430.67l15.89 0l0 15.09l-15.89 0Z" id="p39w68" />
<path d="M441.53 430.67l37.89 0l0 15.09l-37.89 0Z" id="p39w69" />
<path d="M483.03 430.67l12.22 0l0 15.09l-12.22 0Z" id="p39w70" />
<path d="M498.86 430.67l21.67 0l0 15.09l-21.67 0Z" id="p39w71" />
<path d="M524.14 430.67l27.82 0l0 15.09l-27.82 0Z" id="p39w72" />
<path d="M555.58 430.67l12.66 0l0 15.09l-12.66 0Z" id="p39w73" />
<path d="M571.85 430.67l21.67 0l0 15.09l-21.67 0Z" id="p39w74" />
<path d="M597.13 430.67l22.12 0l0 15.09l-22.12 0Z" id="p39w75" />
<path d="M622.86 430.67l24.73 0l0 15.09l-24.73 0Z" id="p39w76" />
<path d="M124.06 447.34l10.54 0l0 15.09l-10.54 0Z" id="p39w77" />
<path d="M138.21 447.34l22.4 0l0 15.09l-22.4 0Z" id="p39w78" />
<path d="M164.22 447.34l10.5 0l0 15.09l-10.5 0Z" id="p39w79" />
<path d="M178.33 447.34l23.61 0l0 15.09l-23.61 0Z" id="p39w80" />
<path d="M225.96 447.34l33.3 0l0 15.09l-33.3 0Z" id="p39w81" />
<path d="M124.06 464.01l42.32 0l0 15.09l-42.32 0Z" id="p39w82" />
<path d="M169.99 464.01l43.16 0l0 15.09l-43.16 0Z" id="p39w83" />
<path d="M216.76 464.01l53.3 0l0 15.09l-53.3 0Z" id="p39w84" />
<path d="M273.67 464.01l36 0l0 15.09l-36 0Z" id="p39w85" />
<path d="M313.28 464.01l34.69 0l0 15.09l-34.69 0Z" id="p39w86" />
<path d="M351.58 464.01l18.93 0l0 15.09l-18.93 0Z" id="p39w87" />
<path d="M374.12 464.01l13.91 0l0 15.09l-13.91 0Z" id="p39w88" />
<path d="M391.64 464.01l56.59 0l0 15.09l-56.59 0Z" id="p39w89" />
<path d="M451.84 464.01l27.82 0l0 15.09l-27.82 0Z" id="p39w90" />
<path d="M483.27 464.01l33.3 0l0 15.09l-33.3 0Z" id="p39w91" />
<path d="M520.18 464.01l18.46 0l0 15.09l-18.46 0Z" id="p39w92" />
<path d="M542.25 464.01l61.63 0l0 15.09l-61.63 0Z" id="p39w93" />
<path d="M607.49 464.01l15.64 0l0 15.09l-15.64 0Z" id="p39w94" />
<path d="M124.06 480.68l53.9 0l0 15.09l-53.9 0Z" id="p39w95" />
<path d="M188.84 480.7l34.66 0l0 15.09l-34.66 0Z" id="p39w96" />
<path d="M227.11 480.7l14.59 0l0 15.09l-14.59 0Z" id="p39w97" />
<path d="M269.91 480.7l31.78 0l0 15.09l-31.78 0Z" id="p39w98" />
<path d="M305.31 480.7l27.23 0l0 15.09l-27.23 0Z" id="p39w99" />
<path d="M336.15 480.7l10.5 0l0 15.09l-10.5 0Z" id="p39w100" />
<path d="M371.85 480.7l95.46 0l0 15.09l-95.46 0Z" id="p39w101" />
<path d="M470.92 480.7l17.05 0l0 15.09l-17.05 0Z" id="p39w102" />
<path d="M491.59 480.7l41.11 0l0 15.09l-41.11 0Z" id="p39w103" />
<path d="M536.31 480.7l74.07 0l0 15.09l-74.07 0Z" id="p39w104" />
<path d="M613.99 480.7l25.69 0l0 15.09l-25.69 0Z" id="p39w105" />
<path d="M124.06 497.36l16.5 0l0 15.09l-16.5 0Z" id="p39w106" />
<path d="M144.17 497.36l31.72 0l0 15.09l-31.72 0Z" id="p39w107" />
<path d="M179.5 497.36l13.91 0l0 15.09l-13.91 0Z" id="p39w108" />
<path d="M197.02 497.36l63.8 0l0 15.09l-63.8 0Z" id="p39w109" />
<path d="M264.43 497.36l19.29 0l0 15.09l-19.29 0Z" id="p39w110" />
<path d="M287.33 497.36l63.17 0l0 15.09l-63.17 0Z" id="p39w111" />
<path d="M354.11 497.36l13.91 0l0 15.09l-13.91 0Z" id="p39w112" />
<path d="M371.63 497.36l46.69 0l0 15.09l-46.69 0Z" id="p39w113" />
<path d="M426.03 497.37l11.26 0l0 15.09l-11.26 0Z" id="p39w114" />
<path d="M440.9 497.37l19.29 0l0 15.09l-19.29 0Z" id="p39w115" />
<path d="M463.8 497.37l55.74 0l0 15.09l-55.74 0Z" id="p39w116" />
<path d="M523.15 497.37l46.59 0l0 15.09l-46.59 0Z" id="p39w117" />
<path d="M573.35 497.37l13.91 0l0 15.09l-13.91 0Z" id="p39w118" />
<path d="M590.87 497.37l24.93 0l0 15.09l-24.93 0Z" id="p39w119" />
<path d="M619.42 497.37l15.89 0l0 15.09l-15.89 0Z" id="p39w120" />
<path d="M124.06 514.04l28.89 0l0 15.09l-28.89 0Z" id="p39w121" />
<path d="M156.57 514.04l13.91 0l0 15.09l-13.91 0Z" id="p39w122" />
<path d="M174.08 514.04l36.19 0l0 15.09l-36.19 0Z" id="p39w123" />
<path d="M213.89 514.04l15.89 0l0 15.09l-15.89 0Z" id="p39w124" />
<path d="M233.38 514.04l47.19 0l0 15.09l-47.19 0Z" id="p39w125" />
<path d="M284.19 514.04l11.26 0l0 15.09l-11.26 0Z" id="p39w126" />
<path d="M299.06 514.04l13.91 0l0 15.09l-13.91 0Z" id="p39w127" />
<path d="M316.57 514.04l24.93 0l0 15.09l-24.93 0Z" id="p39w128" />
<path d="M345.12 514.04l15.89 0l0 15.09l-15.89 0Z" id="p39w129" />
<path d="M364.61 514.04l49.75 0l0 15.09l-49.75 0Z" id="p39w130" />
<path d="M417.97 514.04l47.55 0l0 15.09l-47.55 0Z" id="p39w131" />
<path d="M476.27 514.04l48.71 0l0 15.09l-48.71 0Z" id="p39w132" />
<path d="M528.59 514.04l15.89 0l0 15.09l-15.89 0Z" id="p39w133" />
<path d="M548.09 514.04l31.72 0l0 15.09l-31.72 0Z" id="p39w134" />
<path d="M583.42 514.04l11.26 0l0 15.09l-11.26 0Z" id="p39w135" />
<path d="M598.29 514.04l15.89 0l0 15.09l-15.89 0Z" id="p39w136" />
<path d="M124.06 530.71l71.37 0l0 15.09l-71.37 0Z" id="p39w137" />
<path d="M199.04 530.71l10.54 0l0 15.09l-10.54 0Z" id="p39w138" />
<path d="M213.19 530.71l76.2 0l0 15.09l-76.2 0Z" id="p39w139" />
<path d="M293 530.71l46.28 0l0 15.09l-46.28 0Z" id="p39w140" />
<path d="M342.89 530.71l15.74 0l0 15.09l-15.74 0Z" id="p39w141" />
<path d="M362.25 530.71l10.63 0l0 15.09l-10.63 0Z" id="p39w142" />
<path d="M376.49 530.71l50.95 0l0 15.09l-50.95 0Z" id="p39w143" />
<path d="M431.04 530.71l71.87 0l0 15.09l-71.87 0Z" id="p39w144" />
<path d="M506.52 530.71l52.9 0l0 15.09l-52.9 0Z" id="p39w145" />
<path d="M124.06 547.37l21 0l0 15.09l-21 0Z" id="p39w146" />
<path d="M148.67 547.37l12.58 0l0 15.09l-12.58 0Z" id="p39w147" />
<path d="M164.87 547.37l18.07 0l0 15.09l-18.07 0Z" id="p39w148" />
<path d="M186.55 547.37l23.88 0l0 15.09l-23.88 0Z" id="p39w149" />
<path d="M214.04 547.37l13.91 0l0 15.09l-13.91 0Z" id="p39w150" />
<path d="M231.56 547.37l65.51 0l0 15.09l-65.51 0Z" id="p39w151" />
<path d="M300.67 547.37l44.53 0l0 15.09l-44.53 0Z" id="p39w152" />
<path d="M348.82 547.37l35.88 0l0 15.09l-35.88 0Z" id="p39w153" />
<path d="M392.41 547.39l57.94 0l0 15.09l-57.94 0Z" id="p39w154" />
<path d="M453.96 547.39l8.02 0l0 15.09l-8.02 0Z" id="p39w155" />
<path d="M465.59 547.39l30.55 0l0 15.09l-30.55 0Z" id="p39w156" />
<path d="M499.75 547.39l34.11 0l0 15.09l-34.11 0Z" id="p39w157" />
<path d="M537.47 547.39l35.75 0l0 15.09l-35.75 0Z" id="p39w158" />
<path d="M576.84 547.39l31 0l0 15.09l-31 0Z" id="p39w159" />
<path d="M611.45 547.39l30.15 0l0 15.09l-30.15 0Z" id="p39w160" />
<path d="M124.06 564.06l18.93 0l0 15.09l-18.93 0Z" id="p39w161" />
<path d="M146.61 564.06l24.79 0l0 15.09l-24.79 0Z" id="p39w162" />
<path d="M175.01 564.06l23.17 0l0 15.09l-23.17 0Z" id="p39w163" />
<path d="M201.79 564.06l27.79 0l0 15.09l-27.79 0Z" id="p39w164" />
<path d="M233.19 564.06l28.43 0l0 15.09l-28.43 0Z" id="p39w165" />
<path d="M265.23 564.06l10.42 0l0 15.09l-10.42 0Z" id="p39w166" />
<path d="M279.26 564.06l58.19 0l0 15.09l-58.19 0Z" id="p39w167" />
<path d="M341.07 564.06l13.07 0l0 15.09l-13.07 0Z" id="p39w168" />
<path d="M357.75 564.06l41 0l0 15.09l-41 0Z" id="p39w169" />
<path d="M402.36 564.06l26.3 0l0 15.09l-26.3 0Z" id="p39w170" />
<path d="M432.27 564.06l19.29 0l0 15.09l-19.29 0Z" id="p39w171" />
<path d="M455.17 564.06l48.91 0l0 15.09l-48.91 0Z" id="p39w172" />
<path d="M507.7 564.06l52.72 0l0 15.09l-52.72 0Z" id="p39w173" />
<path d="M564.03 564.06l11.93 0l0 15.09l-11.93 0Z" id="p39w174" />
<path d="M583.66 564.06l24.79 0l0 15.09l-24.79 0Z" id="p39w175" />
<path d="M612.06 564.06l31.36 0l0 15.09l-31.36 0Z" id="p39w176" />
<path d="M124.06 580.73l11.93 0l0 15.09l-11.93 0Z" id="p39w177" />
<path d="M139.6 580.73l24.79 0l0 15.09l-24.79 0Z" id="p39w178" />
<path d="M168 580.73l39.57 0l0 15.09l-39.57 0Z" id="p39w179" />
<path d="M211.18 580.73l21.35 0l0 15.09l-21.35 0Z" id="p39w180" />
<path d="M236.14 580.73l28.2 0l0 15.09l-28.2 0Z" id="p39w181" />
<path d="M267.95 580.73l11.93 0l0 15.09l-11.93 0Z" id="p39w182" />
<path d="M283.49 580.73l34.56 0l0 15.09l-34.56 0Z" id="p39w183" />
<path d="M321.66 580.73l11.93 0l0 15.09l-11.93 0Z" id="p39w184" />
<path d="M337.2 580.73l33.39 0l0 15.09l-33.39 0Z" id="p39w185" />
<path d="M374.2 580.73l11.93 0l0 15.09l-11.93 0Z" id="p39w186" />
<path d="M389.74 580.73l31.86 0l0 15.09l-31.86 0Z" id="p39w187" />
<path d="M425.21 580.73l26.9 0l0 15.09l-26.9 0Z" id="p39w188" />
<path d="M455.72 580.73l78.5 0l0 15.09l-78.5 0Z" id="p39w189" />
<path d="M537.83 580.73l47.27 0l0 15.09l-47.27 0Z" id="p39w190" />
<path d="M588.71 580.73l26.3 0l0 15.09l-26.3 0Z" id="p39w191" />
<path d="M618.62 580.73l38.89 0l0 15.09l-38.89 0Z" id="p39w192" />
<path d="M147.28 597.4l18.93 0l0 15.09l-18.93 0Z" id="p39w193" />
<path d="M169.83 597.4l58.84 0l0 15.09l-58.84 0Z" id="p39w194" />
<path d="M232.27 597.4l48.97 0l0 15.09l-48.97 0Z" id="p39w195" />
<path d="M299.19 597.4l14.86 0l0 15.09l-14.86 0Z" id="p39w196" />
<path d="M317.66 597.4l28.33 0l0 15.09l-28.33 0Z" id="p39w197" />
<path d="M349.59 597.4l10.5 0l0 15.09l-10.5 0Z" id="p39w198" />
<path d="M363.7 597.4l24.62 0l0 15.09l-24.62 0Z" id="p39w199" />
<path d="M391.94 597.4l39.37 0l0 15.09l-39.37 0Z" id="p39w200" />
<path d="M434.92 597.4l50.44 0l0 15.09l-50.44 0Z" id="p39w201" />
<path d="M488.97 597.4l26.56 0l0 15.09l-26.56 0Z" id="p39w202" />
<path d="M519.15 597.4l19.01 0l0 15.09l-19.01 0Z" id="p39w203" />
<path d="M541.77 597.4l26.91 0l0 15.09l-26.91 0Z" id="p39w204" />
<path d="M572.29 597.4l28.36 0l0 15.09l-28.36 0Z" id="p39w205" />
<path d="M604.27 597.4l31.89 0l0 15.09l-31.89 0Z" id="p39w206" />
<path d="M639.76 597.4l15.06 0l0 15.09l-15.06 0Z" id="p39w207" />
<path d="M658.44 597.4l18.92 0l0 15.09l-18.92 0Z" id="p39w208" />
<path d="M124.07 614.07l32.18 0l0 15.09l-32.18 0Z" id="p39w209" />
<path d="M159.86 614.07l52.47 0l0 15.09l-52.47 0Z" id="p39w210" />
<path d="M223.08 614.07l36.95 0l0 15.09l-36.95 0Z" id="p39w211" />
<path d="M124.06 639.09l16.13 0l0 15.09l-16.13 0Z" id="p39w212" />
<path d="M143.8 639.09l39.38 0l0 15.09l-39.38 0Z" id="p39w213" />
<path d="M186.79 639.09l48.45 0l0 15.09l-48.45 0Z" id="p39w214" />
<path d="M238.86 639.09l25.6 0l0 15.09l-25.6 0Z" id="p39w215" />
<path d="M268.07 639.09l21.67 0l0 15.09l-21.67 0Z" id="p39w216" />
<path d="M293.35 639.09l21.12 0l0 15.09l-21.12 0Z" id="p39w217" />
<path d="M318.07 639.09l30.45 0l0 15.09l-30.45 0Z" id="p39w218" />
<path d="M352.13 639.09l39.38 0l0 15.09l-39.38 0Z" id="p39w219" />
<path d="M395.12 639.09l26.01 0l0 15.09l-26.01 0Z" id="p39w220" />
<path d="M424.75 639.09l19.19 0l0 15.09l-19.19 0Z" id="p39w221" />
<path d="M447.55 639.09l53.3 0l0 15.09l-53.3 0Z" id="p39w222" />
<path d="M504.45 639.09l11.26 0l0 15.09l-11.26 0Z" id="p39w223" />
<path d="M519.32 639.09l30.45 0l0 15.09l-30.45 0Z" id="p39w224" />
<path d="M553.38 639.09l72.65 0l0 15.09l-72.65 0Z" id="p39w225" />
<path d="M124.06 655.76l19.46 0l0 15.09l-19.46 0Z" id="p39w226" />
<path d="M147.13 655.76l13.91 0l0 15.09l-13.91 0Z" id="p39w227" />
<path d="M164.65 655.76l42.51 0l0 15.09l-42.51 0Z" id="p39w228" />
<path d="M210.77 655.76l35.36 0l0 15.09l-35.36 0Z" id="p39w229" />
<path d="M249.74 655.76l19.46 0l0 15.09l-19.46 0Z" id="p39w230" />
<path d="M272.81 655.76l13.91 0l0 15.09l-13.91 0Z" id="p39w231" />
<path d="M290.33 655.76l60.65 0l0 15.09l-60.65 0Z" id="p39w232" />
<path d="M354.59 655.76l23.17 0l0 15.09l-23.17 0Z" id="p39w233" />
<path d="M381.37 655.76l27.79 0l0 15.09l-27.79 0Z" id="p39w234" />
<path d="M412.77 655.76l8.02 0l0 15.09l-8.02 0Z" id="p39w235" />
<path d="M424.4 655.76l23.44 0l0 15.09l-23.44 0Z" id="p39w236" />
<path d="M451.45 655.76l23.21 0l0 15.09l-23.21 0Z" id="p39w237" />
<path d="M478.27 655.76l15.74 0l0 15.09l-15.74 0Z" id="p39w238" />
<path d="M497.63 655.76l30.3 0l0 15.09l-30.3 0Z" id="p39w239" />
<path d="M531.55 655.76l43.61 0l0 15.09l-43.61 0Z" id="p39w240" />
<path d="M578.76 655.76l17.05 0l0 15.09l-17.05 0Z" id="p39w241" />
<path d="M599.43 655.76l13.91 0l0 15.09l-13.91 0Z" id="p39w242" />
<path d="M124.06 672.42l27.59 0l0 15.09l-27.59 0Z" id="p39w243" />
<path d="M155.27 672.42l27.18 0l0 15.09l-27.18 0Z" id="p39w244" />
<path d="M186.06 672.42l15.89 0l0 15.09l-15.89 0Z" id="p39w245" />
<path d="M205.56 672.42l30.02 0l0 15.09l-30.02 0Z" id="p39w246" />
<path d="M239.19 672.42l11.95 0l0 15.09l-11.95 0Z" id="p39w247" />
<path d="M254.75 672.42l67.06 0l0 15.09l-67.06 0Z" id="p39w248" />
<path d="M325.43 672.42l52.71 0l0 15.09l-52.71 0Z" id="p39w249" />
<path d="M391.85 672.42l10.42 0l0 15.09l-10.42 0Z" id="p39w250" />
<path d="M405.88 672.42l16.23 0l0 15.09l-16.23 0Z" id="p39w251" />
<path d="M425.72 672.42l15.06 0l0 15.09l-15.06 0Z" id="p39w252" />
<path d="M444.4 672.42l58.17 0l0 15.09l-58.17 0Z" id="p39w253" />
<path d="M506.18 672.42l36.1 0l0 15.09l-36.1 0Z" id="p39w254" />
<path d="M545.89 672.42l73.85 0l0 15.09l-73.85 0Z" id="p39w255" />
<path d="M124.06 689.1l13.22 0l0 15.09l-13.22 0Z" id="p39w256" />
<path d="M140.9 689.1l26.51 0l0 15.09l-26.51 0Z" id="p39w257" />
<path d="M171.02 689.1l44.65 0l0 15.09l-44.65 0Z" id="p39w258" />
<path d="M219.28 689.1l18.49 0l0 15.09l-18.49 0Z" id="p39w259" />
<path d="M241.39 689.1l23.61 0l0 15.09l-23.61 0Z" id="p39w260" />
<path d="M268.61 689.1l46.16 0l0 15.09l-46.16 0Z" id="p39w261" />
<path d="M318.38 689.1l13.91 0l0 15.09l-13.91 0Z" id="p39w262" />
<path d="M335.9 689.1l31.8 0l0 15.09l-31.8 0Z" id="p39w263" />
<path d="M124.06 722.44l27.3 0l0 15.09l-27.3 0Z" id="p39w264" />
<path d="M154.97 722.44l10.42 0l0 15.09l-10.42 0Z" id="p39w265" />
<path d="M169.01 722.44l37.13 0l0 15.09l-37.13 0Z" id="p39w266" />
<path d="M209.75 722.44l10.54 0l0 15.09l-10.54 0Z" id="p39w267" />
<path d="M223.9 722.44l77.65 0l0 15.09l-77.65 0Z" id="p39w268" />
<path d="M305.16 722.44l15.74 0l0 15.09l-15.74 0Z" id="p39w269" />
<path d="M324.52 722.44l17.97 0l0 15.09l-17.97 0Z" id="p39w270" />
<path d="M346.09 722.44l13.91 0l0 15.09l-13.91 0Z" id="p39w271" />
<path d="M363.61 722.44l33.85 0l0 15.09l-33.85 0Z" id="p39w272" />
<path d="M401.08 722.44l13.91 0l0 15.09l-13.91 0Z" id="p39w273" />
<path d="M418.59 722.44l40.27 0l0 15.09l-40.27 0Z" id="p39w274" />
<path d="M462.47 722.44l44.01 0l0 15.09l-44.01 0Z" id="p39w275" />
<path d="M510.09 722.44l38.17 0l0 15.09l-38.17 0Z" id="p39w276" />
<path d="M551.87 722.44l14.59 0l0 15.09l-14.59 0Z" id="p39w277" />
<path d="M570.07 722.44l77.29 0l0 15.09l-77.29 0Z" id="p39w278" />
<path d="M124.06 739.11l27.81 0l0 15.09l-27.81 0Z" id="p39w279" />
<path d="M155.49 739.11l19.01 0l0 15.09l-19.01 0Z" id="p39w280" />
<path d="M178.11 739.11l31.1 0l0 15.09l-31.1 0Z" id="p39w281" />
<path d="M212.82 739.11l30.24 0l0 15.09l-30.24 0Z" id="p39w282" />
<path d="M246.67 739.11l25.88 0l0 15.09l-25.88 0Z" id="p39w283" />
<path d="M276.17 739.11l15.89 0l0 15.09l-15.89 0Z" id="p39w284" />
<path d="M295.66 739.11l48.95 0l0 15.09l-48.95 0Z" id="p39w285" />
<path d="M358.33 739.11l10.42 0l0 15.09l-10.42 0Z" id="p39w286" />
<path d="M372.36 739.11l36.23 0l0 15.09l-36.23 0Z" id="p39w287" />
<path d="M435.43 739.11l21.35 0l0 15.09l-21.35 0Z" id="p39w288" />
<path d="M460.39 739.11l61.19 0l0 15.09l-61.19 0Z" id="p39w289" />
<path d="M525.19 739.11l46.29 0l0 15.09l-46.29 0Z" id="p39w290" />
<path d="M586.85 739.12l19.46 0l0 15.09l-19.46 0Z" id="p39w291" />
<path d="M609.92 739.12l50.46 0l0 15.09l-50.46 0Z" id="p39w292" />
<path d="M124.07 755.79l15.74 0l0 15.09l-15.74 0Z" id="p39w293" />
<path d="M143.42 755.79l25.05 0l0 15.09l-25.05 0Z" id="p39w294" />
<path d="M172.08 755.79l11.26 0l0 15.09l-11.26 0Z" id="p39w295" />
<path d="M186.95 755.79l15.74 0l0 15.09l-15.74 0Z" id="p39w296" />
<path d="M206.31 755.79l35.36 0l0 15.09l-35.36 0Z" id="p39w297" />
<path d="M245.27 755.79l22.81 0l0 15.09l-22.81 0Z" id="p39w298" />
<path d="M271.7 755.79l17.05 0l0 15.09l-17.05 0Z" id="p39w299" />
<path d="M292.36 755.79l46.72 0l0 15.09l-46.72 0Z" id="p39w300" />
<path d="M342.69 755.79l14.86 0l0 15.09l-14.86 0Z" id="p39w301" />
<path d="M361.16 755.79l22.31 0l0 15.09l-22.31 0Z" id="p39w302" />
<path d="M387.08 755.79l29.88 0l0 15.09l-29.88 0Z" id="p39w303" />
<path d="M430.68 755.79l48.63 0l0 15.09l-48.63 0Z" id="p39w304" />
<path d="M491.12 755.8l19.01 0l0 15.09l-19.01 0Z" id="p39w305" />
<path d="M513.74 755.8l26.57 0l0 15.09l-26.57 0Z" id="p39w306" />
<path d="M543.92 755.8l10.5 0l0 15.09l-10.5 0Z" id="p39w307" />
<path d="M558.03 755.8l17.97 0l0 15.09l-17.97 0Z" id="p39w308" />
<path d="M579.61 755.8l46.51 0l0 15.09l-46.51 0Z" id="p39w309" />
<path d="M124.06 772.47l61.56 0l0 15.09l-61.56 0Z" id="p39w310" />
<path d="M197.45 772.47l30.45 0l0 15.09l-30.45 0Z" id="p39w311" />
<path d="M231.5 772.47l39.07 0l0 15.09l-39.07 0Z" id="p39w312" />
<path d="M274.19 772.47l45.16 0l0 15.09l-45.16 0Z" id="p39w313" />
<path d="M322.96 772.47l19.29 0l0 15.09l-19.29 0Z" id="p39w314" />
<path d="M345.86 772.47l64.22 0l0 15.09l-64.22 0Z" id="p39w315" />
<path d="M413.69 772.47l13.91 0l0 15.09l-13.91 0Z" id="p39w316" />
<path d="M431.21 772.47l30.18 0l0 15.09l-30.18 0Z" id="p39w317" />
<path d="M465 772.47l25.28 0l0 15.09l-25.28 0Z" id="p39w318" />
<path d="M493.89 772.47l49.13 0l0 15.09l-49.13 0Z" id="p39w319" />
<path d="M546.64 772.47l11.26 0l0 15.09l-11.26 0Z" id="p39w320" />
<path d="M561.5 772.47l26.91 0l0 15.09l-26.91 0Z" id="p39w321" />
<path d="M592.03 772.47l28.13 0l0 15.09l-28.13 0Z" id="p39w322" />
<path d="M623.77 772.47l26.03 0l0 15.09l-26.03 0Z" id="p39w323" />
<path d="M124.06 789.14l29.88 0l0 15.09l-29.88 0Z" id="p39w324" />
<path d="M157.55 789.14l25.65 0l0 15.09l-25.65 0Z" id="p39w325" />
<path d="M198.59 789.14l26.91 0l0 15.09l-26.91 0Z" id="p39w326" />
<path d="M229.11 789.14l23.21 0l0 15.09l-23.21 0Z" id="p39w327" />
<path d="M255.94 789.14l24.23 0l0 15.09l-24.23 0Z" id="p39w328" />
<path d="M294 789.14l14.86 0l0 15.09l-14.86 0Z" id="p39w329" />
<path d="M312.47 789.14l30.79 0l0 15.09l-30.79 0Z" id="p39w330" />
<path d="M367.21 789.14l66.29 0l0 15.09l-66.29 0Z" id="p39w331" />
<path d="M49.64 113.09l24.6 0l0 12.3l-24.6 0Z" id="p39w332" />
<path d="M60.68 174.31l27.93 0l0 12.29l-27.93 0Z" id="p39w333" />
<path d="M52.89 216.28l35.72 0l0 12.3l-35.72 0Z" id="p39w334" />
<path d="M44.38 228.78l44.24 0l0 12.3l-44.24 0Z" id="p39w335" />
<path d="M128.98 271.09l45.71 0l0 14.52l-45.71 0Z" id="p39w336" />
<path d="M196.35 271.09l46.24 0l0 14.52l-46.24 0Z" id="p39w337" />
<path d="M264.25 271.09l69.1 0l0 14.52l-69.1 0Z" id="p39w338" />
<path d="M355.01 271.09l20.85 0l0 14.52l-20.85 0Z" id="p39w339" />
<path d="M379.07 271.09l38.96 0l0 14.52l-38.96 0Z" id="p39w340" />
<path d="M128.98 297.34l14.18 0l0 14.52l-14.18 0Z" id="p39w341" />
<path d="M146.37 297.34l42.75 0l0 14.52l-42.75 0Z" id="p39w342" />
<path d="M210.78 297.34l37.68 0l0 14.52l-37.68 0Z" id="p39w343" />
<path d="M270.13 297.34l45.71 0l0 14.52l-45.71 0Z" id="p39w344" />
<path d="M337.5 297.34l20.85 0l0 14.52l-20.85 0Z" id="p39w345" />
<path d="M361.56 297.34l46.78 0l0 14.52l-46.78 0Z" id="p39w346" />
<path d="M430 297.34l70.5 0l0 14.52l-70.5 0Z" id="p39w347" />
<path d="M128.98 323.56l78.31 0l0 14.52l-78.31 0Z" id="p39w348" />
<path d="M228.96 323.58l14.18 0l0 14.52l-14.18 0Z" id="p39w349" />
<path d="M246.34 323.58l37.95 0l0 14.52l-37.95 0Z" id="p39w350" />
<path d="M305.95 323.56l33.13 0l0 14.52l-33.13 0Z" id="p39w351" />
<path d="M360.74 323.56l14.18 0l0 14.52l-14.18 0Z" id="p39w352" />
<path d="M378.12 323.56l41.7 0l0 14.52l-41.7 0Z" id="p39w353" />
<path d="M441.48 323.56l26.74 0l0 14.52l-26.74 0Z" id="p39w354" />
<path d="M128.98 349.8l27.53 0l0 14.52l-27.53 0Z" id="p39w355" />
<path d="M159.73 349.8l66.81 0l0 14.52l-66.81 0Z" id="p39w356" />
<path d="M248.2 349.83l56.76 0l0 14.52l-56.76 0Z" id="p39w357" />
<path d="M344.44 349.8l14.18 0l0 14.52l-14.18 0Z" id="p39w358" />
<path d="M361.82 349.8l49.72 0l0 14.52l-49.72 0Z" id="p39w359" />
<path d="M433.2 349.8l14.18 0l0 14.52l-14.18 0Z" id="p39w360" />
<path d="M450.59 349.8l39.29 0l0 14.52l-39.29 0Z" id="p39w361" />
<path d="M128.98 376.02l14.18 0l0 14.52l-14.18 0Z" id="p39w362" />
<path d="M146.37 376.02l46.5 0l0 14.52l-46.5 0Z" id="p39w363" />
<path d="M214.53 376.02l14.18 0l0 14.52l-14.18 0Z" id="p39w364" />
<path d="M231.91 376.02l66.83 0l0 14.52l-66.83 0Z" id="p39w365" />
<path d="M320.4 376.02l41.71 0l0 14.52l-41.71 0Z" id="p39w366" />
<path d="M383.77 376.02l41.43 0l0 14.52l-41.43 0Z" id="p39w367" />
<path d="M446.87 376.02l49.97 0l0 14.52l-49.97 0Z" id="p39w368" />
<path d="M134.83 855.89l8.96 0l0 13.06l-8.96 0Z" id="p39w369" />
<path d="M146.67 855.89l41.24 0l0 13.06l-41.24 0Z" id="p39w370" />
<path d="M190.78 855.95l16.5 0l0 12.99l-16.5 0Z" id="p39w371" />
<path d="M210.14 855.95l27.49 0l0 12.99l-27.49 0Z" id="p39w372" />
<path d="M265.82 855.89l16.64 0l0 13.06l-16.64 0Z" id="p39w373" />
<path d="M285.33 855.89l51.99 0l0 13.06l-51.99 0Z" id="p39w374" />
<path d="M340.18 855.89l12.97 0l0 13.06l-12.97 0Z" id="p39w375" />
<path d="M356.02 855.89l49.05 0l0 13.06l-49.05 0Z" id="p39w376" />
<path d="M407.94 855.95l16.26 0l0 12.99l-16.26 0Z" id="p39w377" />
<path d="M427.07 855.95l66.87 0l0 12.99l-66.87 0Z" id="p39w378" />
<path d="M496.81 855.95l31.24 0l0 12.99l-31.24 0Z" id="p39w379" />
<path d="M530.91 855.95l26.55 0l0 12.99l-26.55 0Z" id="p39w380" />
<path d="M560.33 855.95l17.69 0l0 12.99l-17.69 0Z" id="p39w381" />
<path d="M580.89 855.95l57.35 0l0 12.99l-57.35 0Z" id="p39w382" />
<path d="M135.72 871.17l12.8 0l0 13.06l-12.8 0Z" id="p39w383" />
<path d="M151.39 871.17l33.79 0l0 13.06l-33.79 0Z" id="p39w384" />
<path d="M188.05 871.23l15.31 0l0 12.99l-15.31 0Z" id="p39w385" />
<path d="M206.22 871.23l18.66 0l0 12.99l-18.66 0Z" id="p39w386" />
<path d="M253.06 871.17l36.01 0l0 13.06l-36.01 0Z" id="p39w387" />
<path d="M291.94 871.17l31.04 0l0 13.06l-31.04 0Z" id="p39w388" />
<path d="M325.85 871.23l17.46 0l0 12.99l-17.46 0Z" id="p39w389" />
<path d="M346.17 871.23l12.44 0l0 12.99l-12.44 0Z" id="p39w390" />
<path d="M361.48 871.23l31.02 0l0 12.99l-31.02 0Z" id="p39w391" />
<path d="M420.68 871.17l25.26 0l0 13.06l-25.26 0Z" id="p39w392" />
<path d="M448.81 871.17l25.26 0l0 13.06l-25.26 0Z" id="p39w393" />
<path d="M476.94 871.23l43.24 0l0 12.99l-43.24 0Z" id="p39w394" />
<path d="M523.05 871.23l36.33 0l0 12.99l-36.33 0Z" id="p39w395" />
<path d="M587.55 871.17l12.8 0l0 13.06l-12.8 0Z" id="p39w396" />
<path d="M603.23 871.17l40.86 0l0 13.06l-40.86 0Z" id="p39w397" />
<path d="M646.96 871.17l42.08 0l0 13.06l-42.08 0Z" id="p39w398" />
<path d="M124.07 886.51l21.28 0l0 12.99l-21.28 0Z" id="p39w399" />
<path d="M148.22 886.51l61.16 0l0 12.99l-61.16 0Z" id="p39w400" />
<path d="M237.08 886.46l22.12 0l0 13.06l-22.12 0Z" id="p39w401" />
<path d="M262.07 886.46l15.77 0l0 13.06l-15.77 0Z" id="p39w402" />
<path d="M280.71 886.46l23.05 0l0 13.06l-23.05 0Z" id="p39w403" />
<path d="M306.63 886.46l26.17 0l0 13.06l-26.17 0Z" id="p39w404" />
<path d="M335.67 886.46l26.82 0l0 13.06l-26.82 0Z" id="p39w405" />
<path d="M365.36 886.46l12.78 0l0 13.06l-12.78 0Z" id="p39w406" />
<path d="M381.01 886.46l16.17 0l0 13.06l-16.17 0Z" id="p39w407" />
<path d="M399.89 886.46l27.87 0l0 13.06l-27.87 0Z" id="p39w408" />
<path d="M430.64 886.46l44.22 0l0 13.06l-44.22 0Z" id="p39w409" />
<path d="M483.7 886.46l31.85 0l0 13.06l-31.85 0Z" id="p39w410" />
<path d="M518.42 886.51l31.33 0l0 12.99l-31.33 0Z" id="p39w411" />
<path d="M552.62 886.51l16.98 0l0 12.99l-16.98 0Z" id="p39w412" />
<path d="M572.47 886.51l23.93 0l0 12.99l-23.93 0Z" id="p39w413" />
<path d="M599.27 886.51l17.22 0l0 12.99l-17.22 0Z" id="p39w414" />
<path d="M619.36 886.51l16.5 0l0 12.99l-16.5 0Z" id="p39w415" />
<path d="M638.73 886.51l31.79 0l0 12.99l-31.79 0Z" id="p39w416" />
<path d="M124.07 901.8l33.48 0l0 12.99l-33.48 0Z" id="p39w417" />
<path d="M157.55 901.8l39.22 0l0 12.99l-39.22 0Z" id="p39w418" />
<path d="M199.65 901.8l33.72 0l0 12.99l-33.72 0Z" id="p39w419" />
<path d="M236.23 901.8l58.35 0l0 12.99l-58.35 0Z" id="p39w420" />
<path d="M297.45 901.8l43.99 0l0 12.99l-43.99 0Z" id="p39w421" />
<path d="M350.06 901.8l28.23 0l0 12.99l-28.23 0Z" id="p39w422" />
<path d="M406.46 901.74l18.78 0l0 13.06l-18.78 0Z" id="p39w423" />
<path d="M428.11 901.74l62.63 0l0 13.06l-62.63 0Z" id="p39w424" />
<path d="M493.61 901.8l12.68 0l0 12.99l-12.68 0Z" id="p39w425" />
<path d="M509.16 901.8l66.48 0l0 12.99l-66.48 0Z" id="p39w426" />
<path d="M578.51 901.8l12.68 0l0 12.99l-12.68 0Z" id="p39w427" />
<path d="M594.06 901.8l20.34 0l0 12.99l-20.34 0Z" id="p39w428" />
<path d="M617.27 901.8l15.31 0l0 12.99l-15.31 0Z" id="p39w429" />
<path d="M635.44 901.8l30.85 0l0 12.99l-30.85 0Z" id="p39w430" />
<path d="M135.73 917.02l12.8 0l0 13.06l-12.8 0Z" id="p39w431" />
<path d="M151.4 917.02l38.39 0l0 13.06l-38.39 0Z" id="p39w432" />
<path d="M192.67 917.02l12.41 0l0 13.06l-12.41 0Z" id="p39w433" />
<path d="M207.95 917.02l27.98 0l0 13.06l-27.98 0Z" id="p39w434" />
<path d="M238.79 917.08l15.31 0l0 12.99l-15.31 0Z" id="p39w435" />
<path d="M256.97 917.08l38.93 0l0 12.99l-38.93 0Z" id="p39w436" />
<path d="M328.7 917.02l43.3 0l0 13.06l-43.3 0Z" id="p39w437" />
<path d="M374.87 917.08l27.04 0l0 12.99l-27.04 0Z" id="p39w438" />
<path d="M404.78 917.08l12.44 0l0 12.99l-12.44 0Z" id="p39w439" />
<path d="M420.09 917.08l48.54 0l0 12.99l-48.54 0Z" id="p39w440" />
<path d="M471.5 917.08l17.46 0l0 12.99l-17.46 0Z" id="p39w441" />
<path d="M520.89 917.02l18.78 0l0 13.06l-18.78 0Z" id="p39w442" />
<path d="M542.53 917.02l41 0l0 13.06l-41 0Z" id="p39w443" />
<path d="M586.41 917.08l21.28 0l0 12.99l-21.28 0Z" id="p39w444" />
<path d="M610.56 917.08l36.36 0l0 12.99l-36.36 0Z" id="p39w445" />
<path d="M140.61 932.3l51.98 0l0 13.06l-51.98 0Z" id="p39w446" />
<path d="M195.45 932.36l33.01 0l0 12.99l-33.01 0Z" id="p39w447" />
<path d="M261.27 932.3l31.21 0l0 13.06l-31.21 0Z" id="p39w448" />
<path d="M295.35 932.36l28.93 0l0 12.99l-28.93 0Z" id="p39w449" />
<path d="M357.09 932.3l30.62 0l0 13.06l-30.62 0Z" id="p39w450" />
<path d="M390.59 932.36l15.55 0l0 12.99l-15.55 0Z" id="p39w451" />
<path d="M409.01 932.36l26.78 0l0 12.99l-26.78 0Z" id="p39w452" />
<path d="M438.67 932.36l17.46 0l0 12.99l-17.46 0Z" id="p39w453" />
<path d="M458.99 932.36l52.84 0l0 12.99l-52.84 0Z" id="p39w454" />
<path d="M68.27 39.02l42.02 0l0 15.38l-42.02 0Z" id="p39w455" />
<path d="M152.94 39.02l43.21 0l0 15.38l-43.21 0Z" id="p39w456" />
<path d="M251.4 39.02l43.21 0l0 15.38l-43.21 0Z" id="p39w457" />
<path d="M359.5 38.6l29.22 0l0 16.09l-29.22 0Z" id="p39w458" />
<path d="M392.1 38.6l46.27 0l0 16.09l-46.27 0Z" id="p39w459" />
<path d="M497.56 39.02l32.54 0l0 15.38l-32.54 0Z" id="p39w460" />
<path d="M638.97 983l52.13 0l0 12.23l-52.13 0Z" id="p39w461" />
</svg>
