<?xml version="1.0" encoding="UTF-8"?>
<svg xmlns="http://www.w3.org/2000/svg" xmlns:xlink="http://www.w3.org/1999/xlink" version="1.1" baseProfile="full" width="768" height="1024" viewBox="0,0,768,1024" preserveAspectRatio="xMinYMin meet" >
<style type="text/css">
<![CDATA[
path {fill-opacity: 0.5;fill: #00aeef;visibility: hidden;}
]]>
</style>
<path d="M462.85 57.02l10.39 0l0 13.84l-10.39 0Z" id="p89w1" />
<path d="M476.28 57.02l17.47 0l0 13.84l-17.47 0Z" id="p89w2" />
<path d="M496.79 56.95l28.99 0l0 13.84l-28.99 0Z" id="p89w3" />
<path d="M528.81 56.95l7.39 0l0 13.84l-7.39 0Z" id="p89w4" />
<path d="M536.2 56.95l22.58 0l0 13.84l-22.58 0Z" id="p89w5" />
<path d="M561.82 57.02l13.42 0l0 13.84l-13.42 0Z" id="p89w6" />
<path d="M578.28 56.95l32.1 0l0 13.84l-32.1 0Z" id="p89w7" />
<path d="M613.41 56.95l52.83 0l0 13.84l-52.83 0Z" id="p89w8" />
<path d="M669.28 57.02l16.89 0l0 13.84l-16.89 0Z" id="p89w9" />
<path d="M462.85 72.3l20.01 0l0 13.84l-20.01 0Z" id="p89w10" />
<path d="M485.89 72.3l33.42 0l0 13.84l-33.42 0Z" id="p89w11" />
<path d="M522.36 72.3l30.39 0l0 13.84l-30.39 0Z" id="p89w12" />
<path d="M555.78 72.3l42.28 0l0 13.84l-42.28 0Z" id="p89w13" />
<path d="M601.1 72.3l14.18 0l0 13.84l-14.18 0Z" id="p89w14" />
<path d="M618.32 72.3l22.53 0l0 13.84l-22.53 0Z" id="p89w15" />
<path d="M643.89 72.3l52.04 0l0 13.84l-52.04 0Z" id="p89w16" />
<path d="M462.85 88.57l26.01 0l0 13.84l-26.01 0Z" id="p89w17" />
<path d="M491.9 88.57l24.81 0l0 13.84l-24.81 0Z" id="p89w18" />
<path d="M519.74 88.57l14.18 0l0 13.84l-14.18 0Z" id="p89w19" />
<path d="M476.63 104.84l24.05 0l0 13.84l-24.05 0Z" id="p89w20" />
<path d="M503.71 104.84l29.37 0l0 13.84l-29.37 0Z" id="p89w21" />
<path d="M536.12 104.84l22.53 0l0 13.84l-22.53 0Z" id="p89w22" />
<path d="M561.7 104.84l11.89 0l0 13.84l-11.89 0Z" id="p89w23" />
<path d="M576.63 104.84l50.64 0l0 13.84l-50.64 0Z" id="p89w24" />
<path d="M476.63 121.11l54.67 0l0 13.84l-54.67 0Z" id="p89w25" />
<path d="M534.34 121.11l11.89 0l0 13.84l-11.89 0Z" id="p89w26" />
<path d="M549.27 121.11l44.5 0l0 13.84l-44.5 0Z" id="p89w27" />
<path d="M124.06 739.41l18.44 0l0 14.52l-18.44 0Z" id="p89w28" />
<path d="M145.71 739.41l40.35 0l0 14.52l-40.35 0Z" id="p89w29" />
<path d="M189.27 739.41l11.22 0l0 14.52l-11.22 0Z" id="p89w30" />
<path d="M203.69 739.41l25.67 0l0 14.52l-25.67 0Z" id="p89w31" />
<path d="M238.99 739.41l38.23 0l0 14.52l-38.23 0Z" id="p89w32" />
<path d="M280.42 739.41l19.51 0l0 14.52l-19.51 0Z" id="p89w33" />
<path d="M303.14 739.41l31.01 0l0 14.52l-31.01 0Z" id="p89w34" />
<path d="M337.35 739.41l11.22 0l0 14.52l-11.22 0Z" id="p89w35" />
<path d="M351.78 739.41l27.26 0l0 14.52l-27.26 0Z" id="p89w36" />
<path d="M382.24 739.41l24.06 0l0 14.52l-24.06 0Z" id="p89w37" />
<path d="M124.06 756.08l56.12 0l0 14.52l-56.12 0Z" id="p89w38" />
<path d="M183.39 756.05l45.15 0l0 14.52l-45.15 0Z" id="p89w39" />
<path d="M231.75 756.08l25.67 0l0 14.52l-25.67 0Z" id="p89w40" />
<path d="M260.63 756.08l26.19 0l0 14.52l-26.19 0Z" id="p89w41" />
<path d="M290.03 756.08l18.44 0l0 14.52l-18.44 0Z" id="p89w42" />
<path d="M311.68 756.08l54 0l0 14.52l-54 0Z" id="p89w43" />
<path d="M133.95 772.75l32.88 0l0 14.52l-32.88 0Z" id="p89w44" />
<path d="M170.03 772.75l11.22 0l0 14.52l-11.22 0Z" id="p89w45" />
<path d="M184.46 772.75l15.5 0l0 14.52l-15.5 0Z" id="p89w46" />
<path d="M203.17 772.75l64.4 0l0 14.52l-64.4 0Z" id="p89w47" />
<path d="M270.77 772.75l45.45 0l0 14.52l-45.45 0Z" id="p89w48" />
<path d="M319.42 772.75l25.67 0l0 14.52l-25.67 0Z" id="p89w49" />
<path d="M348.3 772.75l29.69 0l0 14.52l-29.69 0Z" id="p89w50" />
<path d="M124.06 806.09l43.86 0l0 14.52l-43.86 0Z" id="p89w51" />
<path d="M171.13 806.09l9.89 0l0 14.52l-9.89 0Z" id="p89w52" />
<path d="M184.22 806.09l57.48 0l0 14.52l-57.48 0Z" id="p89w53" />
<path d="M244.91 806.09l25.67 0l0 14.52l-25.67 0Z" id="p89w54" />
<path d="M273.79 806.09l9.89 0l0 14.52l-9.89 0Z" id="p89w55" />
<path d="M286.89 806.09l38.21 0l0 14.52l-38.21 0Z" id="p89w56" />
<path d="M328.31 806.09l45.99 0l0 14.52l-45.99 0Z" id="p89w57" />
<path d="M377.5 806.09l29.66 0l0 14.52l-29.66 0Z" id="p89w58" />
<path d="M124.06 822.76l29.14 0l0 14.52l-29.14 0Z" id="p89w59" />
<path d="M156.41 822.76l21.65 0l0 14.52l-21.65 0Z" id="p89w60" />
<path d="M181.27 822.76l11.22 0l0 14.52l-11.22 0Z" id="p89w61" />
<path d="M195.69 822.76l26.99 0l0 14.52l-26.99 0Z" id="p89w62" />
<path d="M225.89 822.76l45.17 0l0 14.52l-45.17 0Z" id="p89w63" />
<path d="M143.75 847.78l27.01 0l0 14.52l-27.01 0Z" id="p89w64" />
<path d="M173.97 847.78l15.5 0l0 14.52l-15.5 0Z" id="p89w65" />
<path d="M192.67 847.78l48.67 0l0 14.52l-48.67 0Z" id="p89w66" />
<path d="M244.54 847.78l6.41 0l0 14.52l-6.41 0Z" id="p89w67" />
<path d="M273.15 847.78l20.85 0l0 14.52l-20.85 0Z" id="p89w68" />
<path d="M297.21 847.78l28.26 0l0 14.52l-28.26 0Z" id="p89w69" />
<path d="M328.68 847.75l38.5 0l0 14.52l-38.5 0Z" id="p89w70" />
<path d="M373.07 847.78l53.22 0l0 14.52l-53.22 0Z" id="p89w71" />
<path d="M429.49 847.78l28.33 0l0 14.52l-28.33 0Z" id="p89w72" />
<path d="M143.75 864.45l28.26 0l0 14.52l-28.26 0Z" id="p89w73" />
<path d="M175.22 864.45l11.22 0l0 14.52l-11.22 0Z" id="p89w74" />
<path d="M189.65 864.45l27.26 0l0 14.52l-27.26 0Z" id="p89w75" />
<path d="M220.11 864.45l50.01 0l0 14.52l-50.01 0Z" id="p89w76" />
<path d="M273.33 864.45l15.5 0l0 14.52l-15.5 0Z" id="p89w77" />
<path d="M292.04 864.45l45.99 0l0 14.52l-45.99 0Z" id="p89w78" />
<path d="M341.23 864.45l23.8 0l0 14.52l-23.8 0Z" id="p89w79" />
<path d="M368.24 864.45l51.05 0l0 14.52l-51.05 0Z" id="p89w80" />
<path d="M143.75 889.46l27.8 0l0 14.52l-27.8 0Z" id="p89w81" />
<path d="M174.76 889.46l9.89 0l0 14.52l-9.89 0Z" id="p89w82" />
<path d="M187.85 889.46l38.21 0l0 14.52l-38.21 0Z" id="p89w83" />
<path d="M229.27 889.46l48.67 0l0 14.52l-48.67 0Z" id="p89w84" />
<path d="M281.15 889.46l17.38 0l0 14.52l-17.38 0Z" id="p89w85" />
<path d="M301.74 889.46l18.7 0l0 14.52l-18.7 0Z" id="p89w86" />
<path d="M323.65 889.46l24.34 0l0 14.52l-24.34 0Z" id="p89w87" />
<path d="M351.19 889.46l17.11 0l0 14.52l-17.11 0Z" id="p89w88" />
<path d="M371.51 889.46l45.17 0l0 14.52l-45.17 0Z" id="p89w89" />
<path d="M143.75 906.13l59.34 0l0 14.52l-59.34 0Z" id="p89w90" />
<path d="M206.31 906.13l9.89 0l0 14.52l-9.89 0Z" id="p89w91" />
<path d="M219.4 906.13l30.68 0l0 14.52l-30.68 0Z" id="p89w92" />
<path d="M143.75 931.14l22.19 0l0 14.52l-22.19 0Z" id="p89w93" />
<path d="M169.15 931.14l56.68 0l0 14.52l-56.68 0Z" id="p89w94" />
<path d="M229.03 931.14l15.5 0l0 14.52l-15.5 0Z" id="p89w95" />
<path d="M247.74 931.14l42.49 0l0 14.52l-42.49 0Z" id="p89w96" />
<path d="M303.32 931.14l9.89 0l0 14.52l-9.89 0Z" id="p89w97" />
<path d="M316.41 931.14l7.48 0l0 14.52l-7.48 0Z" id="p89w98" />
<path d="M334.32 931.14l13.9 0l0 14.52l-13.9 0Z" id="p89w99" />
<path d="M351.43 931.14l9.89 0l0 14.52l-9.89 0Z" id="p89w100" />
<path d="M364.52 931.14l57.48 0l0 14.52l-57.48 0Z" id="p89w101" />
<path d="M60.68 741.18l27.93 0l0 12.29l-27.93 0Z" id="p89w102" />
<path d="M53.09 807.88l35.52 0l0 12.29l-35.52 0Z" id="p89w103" />
<path d="M53.5 824.61l20.74 0l0 12.3l-20.74 0Z" id="p89w104" />
<path d="M52.89 857.96l35.72 0l0 12.3l-35.72 0Z" id="p89w105" />
<path d="M39.49 870.47l49.13 0l0 12.3l-49.13 0Z" id="p89w106" />
<path d="M413.95 156.45l28.71 0l0 36.38l-28.71 0Z" id="p89w107" />
<path d="M452.8 161.91l61.39 0l0 40.97l-61.39 0Z" id="p89w108" />
<path d="M524.33 171.97l77.87 0l0 43.29l-77.87 0Z" id="p89w109" />
<path d="M612.34 184.34l15.82 0l0 34.57l-15.82 0Z" id="p89w110" />
<path d="M638.3 187.98l13.53 0l0 34.24l-13.53 0Z" id="p89w111" />
<path d="M661.97 191.31l67.07 0l0 41.77l-67.07 0Z" id="p89w112" />
<path d="M455.68 215.34l25.39 0l0 22.19l-25.39 0Z" id="p89w113" />
<path d="M504.51 225.37l16.51 0l0 16.98l-16.51 0Z" id="p89w114" />
<path d="M526.22 228.42l15.7 0l0 16.87l-15.7 0Z" id="p89w115" />
<path d="M547.12 231.36l11.48 0l0 16.28l-11.48 0Z" id="p89w116" />
<path d="M563.8 233.7l31.6 0l0 19.1l-31.6 0Z" id="p89w117" />
<path d="M600.59 238.87l18.63 0l0 17.28l-18.63 0Z" id="p89w118" />
<path d="M624.42 242.22l17.83 0l0 17.17l-17.83 0Z" id="p89w119" />
<path d="M647.45 245.46l11.48 0l0 16.28l-11.48 0Z" id="p89w120" />
<path d="M664.13 247.8l40.86 0l0 20.4l-40.86 0Z" id="p89w121" />
<path d="M494.78 260.38l25.01 0l0 22.14l-25.01 0Z" id="p89w122" />
<path d="M543.23 270.35l22.6 0l0 17.84l-22.6 0Z" id="p89w123" />
<path d="M571.03 274.26l11.48 0l0 16.28l-11.48 0Z" id="p89w124" />
<path d="M587.71 276.61l38.21 0l0 20.03l-38.21 0Z" id="p89w125" />
<path d="M631.12 282.71l23.13 0l0 17.91l-23.13 0Z" id="p89w126" />
<path d="M659.44 286.69l24.71 0l0 18.13l-24.71 0Z" id="p89w127" />
<path d="M689.35 290.89l26.83 0l0 18.43l-26.83 0Z" id="p89w128" />
<path d="M443.46 292.71l25.67 0l0 22.23l-25.67 0Z" id="p89w129" />
<path d="M492.24 302.72l16.51 0l0 16.98l-16.51 0Z" id="p89w130" />
<path d="M513.95 305.78l37.69 0l0 19.96l-37.69 0Z" id="p89w131" />
<path d="M556.83 311.8l23.13 0l0 17.91l-23.13 0Z" id="p89w132" />
<path d="M585.16 315.78l19.15 0l0 17.35l-19.15 0Z" id="p89w133" />
<path d="M609.51 319.21l35.82 0l0 19.7l-35.82 0Z" id="p89w134" />
<path d="M650.52 324.97l9.09 0l0 15.94l-9.09 0Z" id="p89w135" />
<path d="M664.81 326.98l24.71 0l0 18.13l-24.71 0Z" id="p89w136" />
<path d="M489.92 319.23l24.17 0l0 18.06l-24.17 0Z" id="p89w137" />
<path d="M519.29 323.36l12.02 0l0 16.35l-12.02 0Z" id="p89w138" />
<path d="M536.5 325.78l37.68 0l0 19.96l-37.68 0Z" id="p89w139" />
<path d="M579.37 331.8l5.39 0l0 15.42l-5.39 0Z" id="p89w140" />
<path d="M586.78 332.85l12 0l0 16.35l-12 0Z" id="p89w141" />
<path d="M603.98 335.26l26.3 0l0 18.36l-26.3 0Z" id="p89w142" />
<path d="M635.49 339.69l16.51 0l0 16.98l-16.51 0Z" id="p89w143" />
<path d="M657.2 342.74l13.61 0l0 16.57l-13.61 0Z" id="p89w144" />
<path d="M480.55 351.3l24.16 0l0 22.02l-24.16 0Z" id="p89w145" />
<path d="M528.16 361.16l16.51 0l0 16.98l-16.51 0Z" id="p89w146" />
<path d="M549.87 364.21l10.96 0l0 16.2l-10.96 0Z" id="p89w147" />
<path d="M566.03 366.48l12.02 0l0 16.35l-12.02 0Z" id="p89w148" />
<path d="M583.24 368.9l5.39 0l0 15.42l-5.39 0Z" id="p89w149" />
<path d="M590.65 369.94l12 0l0 16.35l-12 0Z" id="p89w150" />
<path d="M607.85 372.36l24.45 0l0 18.1l-24.45 0Z" id="p89w151" />
<path d="M637.5 376.52l12.02 0l0 16.35l-12.02 0Z" id="p89w152" />
<path d="M654.71 378.94l40.42 0l0 20.34l-40.42 0Z" id="p89w153" />
<path d="M134.62 79.5l50.74 0l0 26.69l-50.74 0Z" id="p89w154" />
<path d="M191.1 79.5l90.7 0l0 26.69l-90.7 0Z" id="p89w155" />
<path d="M92.72 104.51l35.88 0l0 26.69l-35.88 0Z" id="p89w156" />
<path d="M134.34 104.51l153.58 0l0 26.69l-153.58 0Z" id="p89w157" />
<path d="M99.72 224.62l40.65 0l0 13.07l-40.65 0Z" id="p89w158" />
<path d="M143.26 224.62l18.77 0l0 13.07l-18.77 0Z" id="p89w159" />
<path d="M93.41 238.52l22.37 0l0 13.07l-22.37 0Z" id="p89w160" />
<path d="M118.67 238.52l30.08 0l0 13.07l-30.08 0Z" id="p89w161" />
<path d="M151.63 238.52l10.56 0l0 13.07l-10.56 0Z" id="p89w162" />
<path d="M122.32 252.42l26 0l0 13.07l-26 0Z" id="p89w163" />
<path d="M234.32 224.62l42.59 0l0 13.07l-42.59 0Z" id="p89w164" />
<path d="M279.79 224.62l25.74 0l0 13.07l-25.74 0Z" id="p89w165" />
<path d="M220.97 238.52l21.89 0l0 13.07l-21.89 0Z" id="p89w166" />
<path d="M245.75 238.52l47.15 0l0 13.07l-47.15 0Z" id="p89w167" />
<path d="M295.78 238.52l23.11 0l0 13.07l-23.11 0Z" id="p89w168" />
<path d="M234.43 252.42l71 0l0 13.07l-71 0Z" id="p89w169" />
<path d="M74.82 366.33l42.59 0l0 13.07l-42.59 0Z" id="p89w170" />
<path d="M120.29 366.33l18.77 0l0 13.07l-18.77 0Z" id="p89w171" />
<path d="M141.95 366.33l44.99 0l0 13.07l-44.99 0Z" id="p89w172" />
<path d="M74.22 380.23l45.94 0l0 13.07l-45.94 0Z" id="p89w173" />
<path d="M123.05 380.23l19.24 0l0 13.07l-19.24 0Z" id="p89w174" />
<path d="M145.18 380.23l42.35 0l0 13.07l-42.35 0Z" id="p89w175" />
<path d="M99.85 394.13l12.51 0l0 13.07l-12.51 0Z" id="p89w176" />
<path d="M115.24 394.13l8.9 0l0 13.07l-8.9 0Z" id="p89w177" />
<path d="M127.03 394.13l34.88 0l0 13.07l-34.88 0Z" id="p89w178" />
<path d="M241.18 366.33l22.38 0l0 13.07l-22.38 0Z" id="p89w179" />
<path d="M266.45 366.33l15.4 0l0 13.07l-15.4 0Z" id="p89w180" />
<path d="M284.73 366.33l13.95 0l0 13.07l-13.95 0Z" id="p89w181" />
<path d="M229.38 380.23l38.73 0l0 13.07l-38.73 0Z" id="p89w182" />
<path d="M271 380.23l39.48 0l0 13.07l-39.48 0Z" id="p89w183" />
<path d="M93.21 508.05l31.77 0l0 13.07l-31.77 0Z" id="p89w184" />
<path d="M127.86 508.05l17.57 0l0 13.07l-17.57 0Z" id="p89w185" />
<path d="M148.32 508.05l20.22 0l0 13.07l-20.22 0Z" id="p89w186" />
<path d="M113.55 521.95l34.65 0l0 13.07l-34.65 0Z" id="p89w187" />
<path d="M234.08 508.05l44.51 0l0 13.07l-44.51 0Z" id="p89w188" />
<path d="M281.48 508.05l12.51 0l0 13.07l-12.51 0Z" id="p89w189" />
<path d="M296.88 508.05l8.9 0l0 13.07l-8.9 0Z" id="p89w190" />
<path d="M247.3 521.95l45.24 0l0 13.07l-45.24 0Z" id="p89w191" />
<path d="M159.86 633.1l20.69 0l0 13.07l-20.69 0Z" id="p89w192" />
<path d="M183.44 633.1l17.56 0l0 13.07l-17.56 0Z" id="p89w193" />
<path d="M203.88 633.1l37.06 0l0 13.07l-37.06 0Z" id="p89w194" />
<path d="M610.05 983l81.05 0l0 12.23l-81.05 0Z" id="p89w195" />
<path d="M453.42 882.1l26.46 0l0 14.52l-26.46 0Z" id="p89w196" />
<path d="M500.68 882.1l21.65 0l0 14.52l-21.65 0Z" id="p89w197" />
<path d="M544 882.1l28.59 0l0 14.52l-28.59 0Z" id="p89w198" />
<path d="M575.8 882.1l45.99 0l0 14.52l-45.99 0Z" id="p89w199" />
<path d="M655.36 882.1l45.99 0l0 14.52l-45.99 0Z" id="p89w200" />
<path d="M450.94 684.33l25.3 0l0 16.96l-25.3 0Z" id="p89w201" />
<path d="M480.89 684.33l72.15 0l0 16.96l-72.15 0Z" id="p89w202" />
<path d="M450.94 701l25.3 0l0 16.96l-25.3 0Z" id="p89w203" />
<path d="M480.89 701l55.29 0l0 16.96l-55.29 0Z" id="p89w204" />
<path d="M540.82 701l21.53 0l0 16.96l-21.53 0Z" id="p89w205" />
<path d="M567 701l66.37 0l0 16.96l-66.37 0Z" id="p89w206" />
<path d="M450.94 717.67l25.3 0l0 16.96l-25.3 0Z" id="p89w207" />
<path d="M480.89 717.67l55.29 0l0 16.96l-55.29 0Z" id="p89w208" />
<path d="M540.82 717.67l21.53 0l0 16.96l-21.53 0Z" id="p89w209" />
<path d="M567 717.67l18.28 0l0 16.96l-18.28 0Z" id="p89w210" />
<path d="M589.93 717.67l52.97 0l0 16.96l-52.97 0Z" id="p89w211" />
<path d="M647.54 717.67l61.14 0l0 16.96l-61.14 0Z" id="p89w212" />
<path d="M450.94 734.34l25.3 0l0 16.96l-25.3 0Z" id="p89w213" />
<path d="M480.89 734.34l55.29 0l0 16.96l-55.29 0Z" id="p89w214" />
<path d="M540.82 734.34l21.53 0l0 16.96l-21.53 0Z" id="p89w215" />
<path d="M567 734.34l27.32 0l0 16.96l-27.32 0Z" id="p89w216" />
<path d="M598.97 734.34l67.04 0l0 16.96l-67.04 0Z" id="p89w217" />
<path d="M450.94 751.01l13.78 0l0 16.96l-13.78 0Z" id="p89w218" />
<path d="M469.36 751.01l38.2 0l0 16.96l-38.2 0Z" id="p89w219" />
<path d="M512.21 751.01l23.6 0l0 16.96l-23.6 0Z" id="p89w220" />
<path d="M540.45 751.01l12.49 0l0 16.96l-12.49 0Z" id="p89w221" />
<path d="M557.59 751.01l36.85 0l0 16.96l-36.85 0Z" id="p89w222" />
<path d="M599.08 751.01l15.47 0l0 16.96l-15.47 0Z" id="p89w223" />
<path d="M619.2 751.01l42.94 0l0 16.96l-42.94 0Z" id="p89w224" />
<path d="M450.94 767.68l20.31 0l0 16.96l-20.31 0Z" id="p89w225" />
<path d="M475.89 767.68l62.7 0l0 16.96l-62.7 0Z" id="p89w226" />
<path d="M543.24 767.68l23.6 0l0 16.96l-23.6 0Z" id="p89w227" />
<path d="M571.49 767.68l12.49 0l0 16.96l-12.49 0Z" id="p89w228" />
<path d="M588.62 767.68l51.81 0l0 16.96l-51.81 0Z" id="p89w229" />
<path d="M657.38 767.68l11.59 0l0 16.96l-11.59 0Z" id="p89w230" />
<path d="M673.62 767.68l35.49 0l0 16.96l-35.49 0Z" id="p89w231" />
<path d="M450.94 784.35l20.31 0l0 16.96l-20.31 0Z" id="p89w232" />
<path d="M475.9 784.35l36.21 0l0 16.96l-36.21 0Z" id="p89w233" />
<path d="M523.22 784.35l69.02 0l0 16.96l-69.02 0Z" id="p89w234" />
<path d="M596.88 784.35l23.6 0l0 16.96l-23.6 0Z" id="p89w235" />
<path d="M625.13 784.35l12.49 0l0 16.96l-12.49 0Z" id="p89w236" />
<path d="M642.26 784.35l25.9 0l0 16.96l-25.9 0Z" id="p89w237" />
<path d="M450.94 801.02l13.78 0l0 16.96l-13.78 0Z" id="p89w238" />
<path d="M469.76 801.02l46.75 0l0 16.96l-46.75 0Z" id="p89w239" />
<path d="M521.16 801.02l12.84 0l0 16.96l-12.84 0Z" id="p89w240" />
<path d="M538.64 801.02l34.48 0l0 16.96l-34.48 0Z" id="p89w241" />
<path d="M406.91 520.16l55.25 0l0 14.52l-55.25 0Z" id="p89w242" />
<path d="M465.37 520.16l19.51 0l0 14.52l-19.51 0Z" id="p89w243" />
<path d="M488.09 520.16l38.5 0l0 14.52l-38.5 0Z" id="p89w244" />
<path d="M529.8 520.16l11.22 0l0 14.52l-11.22 0Z" id="p89w245" />
<path d="M544.23 520.16l19.51 0l0 14.52l-19.51 0Z" id="p89w246" />
<path d="M566.94 520.16l38.5 0l0 14.52l-38.5 0Z" id="p89w247" />
<path d="M406.91 573.94l54.99 0l0 14.52l-54.99 0Z" id="p89w248" />
<path d="M465.11 573.94l15.5 0l0 14.52l-15.5 0Z" id="p89w249" />
<path d="M483.81 573.94l67.91 0l0 14.52l-67.91 0Z" id="p89w250" />
<path d="M554.93 573.94l19.51 0l0 14.52l-19.51 0Z" id="p89w251" />
<path d="M577.64 573.94l37.68 0l0 14.52l-37.68 0Z" id="p89w252" />
<path d="M406.91 627.72l54.99 0l0 14.52l-54.99 0Z" id="p89w253" />
<path d="M465.11 627.72l53.55 0l0 14.52l-53.55 0Z" id="p89w254" />
<path d="M521.86 627.72l19.51 0l0 14.52l-19.51 0Z" id="p89w255" />
<path d="M544.58 627.72l40.35 0l0 14.52l-40.35 0Z" id="p89w256" />
<path d="M588.14 627.72l11.22 0l0 14.52l-11.22 0Z" id="p89w257" />
<path d="M602.56 627.72l19.51 0l0 14.52l-19.51 0Z" id="p89w258" />
<path d="M625.28 627.72l51.32 0l0 14.52l-51.32 0Z" id="p89w259" />
<path d="M406.91 455.07l32.31 0l0 26.38l-32.31 0Z" id="p89w260" />
<path d="M443.95 455.07l59.04 0l0 26.38l-59.04 0Z" id="p89w261" />
<path d="M507.71 455.07l26.34 0l0 26.38l-26.34 0Z" id="p89w262" />
<path d="M538.77 455.07l23.63 0l0 26.38l-23.63 0Z" id="p89w263" />
<path d="M567.13 455.07l65.18 0l0 26.38l-65.18 0Z" id="p89w264" />
<path d="M637.04 455.07l61.84 0l0 26.38l-61.84 0Z" id="p89w265" />
</svg>
