<?xml version="1.0" encoding="UTF-8"?>
<svg xmlns="http://www.w3.org/2000/svg" xmlns:xlink="http://www.w3.org/1999/xlink" version="1.1" baseProfile="full" width="768" height="1024" viewBox="0,0,768,1024" preserveAspectRatio="xMinYMin meet" >
<style type="text/css">
<![CDATA[
path {fill-opacity: 0.5;fill: #00aeef;visibility: hidden;}
]]>
</style>
<path d="M572 983.66l119.1 0l0 12.23l-119.1 0Z" id="p245w1" />
<path d="M562.12 38.6l81.82 0l0 16.09l-81.82 0Z" id="p245w2" />
<path d="M59.08 112.51l17.56 0l0 12.23l-17.56 0Z" id="p245w3" />
<path d="M79.34 112.45l21.72 0l0 12.29l-21.72 0Z" id="p245w4" />
<path d="M103.76 112.51l11.7 0l0 12.23l-11.7 0Z" id="p245w5" />
<path d="M118.17 112.51l28.35 0l0 12.23l-28.35 0Z" id="p245w6" />
<path d="M152.38 111.41l52.81 0l0 13.77l-52.81 0Z" id="p245w7" />
<path d="M211.04 112.51l14.41 0l0 12.23l-14.41 0Z" id="p245w8" />
<path d="M68.92 127.79l71.12 0l0 12.23l-71.12 0Z" id="p245w9" />
<path d="M142.74 127.55l14.63 0l0 12.56l-14.63 0Z" id="p245w10" />
<path d="M59.08 143.08l11.94 0l0 12.23l-11.94 0Z" id="p245w11" />
<path d="M73.72 143.02l25.21 0l0 12.29l-25.21 0Z" id="p245w12" />
<path d="M104.78 141.97l22.42 0l0 13.77l-22.42 0Z" id="p245w13" />
<path d="M133.06 143.08l14.41 0l0 12.23l-14.41 0Z" id="p245w14" />
<path d="M149.94 143.08l62.58 0l0 12.23l-62.58 0Z" id="p245w15" />
<path d="M215.22 142.83l14.63 0l0 12.56l-14.63 0Z" id="p245w16" />
<path d="M59.08 158.3l24.2 0l0 12.29l-24.2 0Z" id="p245w17" />
<path d="M92.13 158.34l27.91 0l0 12.23l-27.91 0Z" id="p245w18" />
<path d="M125.9 157.26l17.63 0l0 13.77l-17.63 0Z" id="p245w19" />
<path d="M149.39 158.36l29.69 0l0 12.23l-29.69 0Z" id="p245w20" />
<path d="M181.48 158.36l38.81 0l0 12.23l-38.81 0Z" id="p245w21" />
<path d="M222.99 158.11l13.88 0l0 12.56l-13.88 0Z" id="p245w22" />
<path d="M59.08 173.64l8.33 0l0 12.23l-8.33 0Z" id="p245w23" />
<path d="M70.1 173.59l34.22 0l0 12.29l-34.22 0Z" id="p245w24" />
<path d="M110.18 172.54l35.93 0l0 13.77l-35.93 0Z" id="p245w25" />
<path d="M151.98 173.64l44.49 0l0 12.23l-44.49 0Z" id="p245w26" />
<path d="M199.17 173.4l14.79 0l0 12.56l-14.79 0Z" id="p245w27" />
<path d="M59.08 188.87l21.39 0l0 12.29l-21.39 0Z" id="p245w28" />
<path d="M86.32 187.83l10 0l0 13.77l-10 0Z" id="p245w29" />
<path d="M102.18 188.93l23.64 0l0 12.23l-23.64 0Z" id="p245w30" />
<path d="M128.52 188.68l15.54 0l0 12.56l-15.54 0Z" id="p245w31" />
<path d="M68.92 204.21l21.15 0l0 12.23l-21.15 0Z" id="p245w32" />
<path d="M92.78 204.21l21.37 0l0 12.23l-21.37 0Z" id="p245w33" />
<path d="M116.85 204.21l11.04 0l0 12.23l-11.04 0Z" id="p245w34" />
<path d="M133.75 203.11l23.52 0l0 13.77l-23.52 0Z" id="p245w35" />
<path d="M163.13 204.21l23.64 0l0 12.23l-23.64 0Z" id="p245w36" />
<path d="M189.47 204.21l19.44 0l0 12.23l-19.44 0Z" id="p245w37" />
<path d="M211.61 204.21l10.82 0l0 12.23l-10.82 0Z" id="p245w38" />
<path d="M68.92 219.49l15.76 0l0 12.23l-15.76 0Z" id="p245w39" />
<path d="M87.39 219.25l18.92 0l0 12.56l-18.92 0Z" id="p245w40" />
<path d="M59.08 234.72l21.39 0l0 12.29l-21.39 0Z" id="p245w41" />
<path d="M83.16 234.72l27.44 0l0 12.29l-27.44 0Z" id="p245w42" />
<path d="M116.46 233.68l25.38 0l0 13.77l-25.38 0Z" id="p245w43" />
<path d="M147.7 234.78l49.97 0l0 12.23l-49.97 0Z" id="p245w44" />
<path d="M200.37 234.53l18.92 0l0 12.56l-18.92 0Z" id="p245w45" />
<path d="M59.08 250l34.62 0l0 12.29l-34.62 0Z" id="p245w46" />
<path d="M96.4 250.04l27.91 0l0 12.23l-27.91 0Z" id="p245w47" />
<path d="M130.17 248.96l18.14 0l0 13.77l-18.14 0Z" id="p245w48" />
<path d="M154.17 250.06l32.41 0l0 12.23l-32.41 0Z" id="p245w49" />
<path d="M189.28 250.04l25.65 0l0 12.23l-25.65 0Z" id="p245w50" />
<path d="M68.92 265.1l15.54 0l0 12.56l-15.54 0Z" id="p245w51" />
<path d="M59.08 280.57l20.14 0l0 12.29l-20.14 0Z" id="p245w52" />
<path d="M85.08 279.53l13.47 0l0 13.77l-13.47 0Z" id="p245w53" />
<path d="M104.4 280.63l27.23 0l0 12.23l-27.23 0Z" id="p245w54" />
<path d="M134.34 280.38l15.54 0l0 12.56l-15.54 0Z" id="p245w55" />
<path d="M68.92 295.91l19.81 0l0 12.23l-19.81 0Z" id="p245w56" />
<path d="M91.43 295.91l17.56 0l0 12.23l-17.56 0Z" id="p245w57" />
<path d="M114.85 294.81l24.45 0l0 13.77l-24.45 0Z" id="p245w58" />
<path d="M145.16 295.91l51.49 0l0 12.23l-51.49 0Z" id="p245w59" />
<path d="M199.35 295.91l28.82 0l0 12.23l-28.82 0Z" id="p245w60" />
<path d="M68.92 310.95l15.54 0l0 12.56l-15.54 0Z" id="p245w61" />
<path d="M59.08 326.42l28.08 0l0 12.29l-28.08 0Z" id="p245w62" />
<path d="M93.01 325.38l32.38 0l0 13.77l-32.38 0Z" id="p245w63" />
<path d="M131.25 326.48l32.18 0l0 12.23l-32.18 0Z" id="p245w64" />
<path d="M166.13 326.23l15.54 0l0 12.56l-15.54 0Z" id="p245w65" />
<path d="M68.92 341.76l27.91 0l0 12.23l-27.91 0Z" id="p245w66" />
<path d="M99.54 341.76l21.37 0l0 12.23l-21.37 0Z" id="p245w67" />
<path d="M123.61 341.76l11.04 0l0 12.23l-11.04 0Z" id="p245w68" />
<path d="M140.51 340.66l45.89 0l0 13.77l-45.89 0Z" id="p245w69" />
<path d="M192.26 341.76l19.44 0l0 12.23l-19.44 0Z" id="p245w70" />
<path d="M214.4 341.76l15.76 0l0 12.23l-15.76 0Z" id="p245w71" />
<path d="M68.92 357.04l34.9 0l0 12.23l-34.9 0Z" id="p245w72" />
<path d="M106.53 357.02l36.92 0l0 12.23l-36.92 0Z" id="p245w73" />
<path d="M146.01 357.02l15.77 0l0 12.23l-15.77 0Z" id="p245w74" />
<path d="M164.48 357.02l18.62 0l0 12.23l-18.62 0Z" id="p245w75" />
<path d="M185.66 357.02l24.76 0l0 12.23l-24.76 0Z" id="p245w76" />
<path d="M213.12 356.8l15.54 0l0 12.56l-15.54 0Z" id="p245w77" />
<path d="M68.92 372.33l8.78 0l0 12.23l-8.78 0Z" id="p245w78" />
<path d="M80.41 372.33l11.7 0l0 12.23l-11.7 0Z" id="p245w79" />
<path d="M94.81 372.33l17.77 0l0 12.23l-17.77 0Z" id="p245w80" />
<path d="M115.29 372.33l18.68 0l0 12.23l-18.68 0Z" id="p245w81" />
<path d="M139.83 371.23l49.2 0l0 13.77l-49.2 0Z" id="p245w82" />
<path d="M194.88 372.33l14.19 0l0 12.23l-14.19 0Z" id="p245w83" />
<path d="M211.78 372.33l22.95 0l0 12.23l-22.95 0Z" id="p245w84" />
<path d="M68.92 387.61l17.55 0l0 12.23l-17.55 0Z" id="p245w85" />
<path d="M89.18 387.61l28.34 0l0 12.23l-28.34 0Z" id="p245w86" />
<path d="M120.22 387.61l25.97 0l0 12.23l-25.97 0Z" id="p245w87" />
<path d="M148.89 387.61l38.9 0l0 12.23l-38.9 0Z" id="p245w88" />
<path d="M190.49 387.37l15.54 0l0 12.56l-15.54 0Z" id="p245w89" />
<path d="M59.08 402.89l11.94 0l0 12.23l-11.94 0Z" id="p245w90" />
<path d="M73.72 402.84l39.35 0l0 12.29l-39.35 0Z" id="p245w91" />
<path d="M118.92 401.79l39.36 0l0 13.77l-39.36 0Z" id="p245w92" />
<path d="M164.14 402.89l14.41 0l0 12.23l-14.41 0Z" id="p245w93" />
<path d="M181.24 402.89l47.93 0l0 12.23l-47.93 0Z" id="p245w94" />
<path d="M68.92 418.18l20.03 0l0 12.23l-20.03 0Z" id="p245w95" />
<path d="M91.66 418.18l24.32 0l0 12.23l-24.32 0Z" id="p245w96" />
<path d="M118.68 417.93l18.92 0l0 12.56l-18.92 0Z" id="p245w97" />
<path d="M59.08 433.46l17.56 0l0 12.23l-17.56 0Z" id="p245w98" />
<path d="M79.34 433.4l26.78 0l0 12.29l-26.78 0Z" id="p245w99" />
<path d="M111.97 432.36l26.41 0l0 13.77l-26.41 0Z" id="p245w100" />
<path d="M144.24 433.46l20.03 0l0 12.23l-20.03 0Z" id="p245w101" />
<path d="M166.97 433.46l28.14 0l0 12.23l-28.14 0Z" id="p245w102" />
<path d="M197.82 433.22l15.54 0l0 12.56l-15.54 0Z" id="p245w103" />
<path d="M68.92 448.74l20.03 0l0 12.23l-20.03 0Z" id="p245w104" />
<path d="M91.66 448.74l30.4 0l0 12.23l-30.4 0Z" id="p245w105" />
<path d="M124.76 448.5l18.92 0l0 12.56l-18.92 0Z" id="p245w106" />
<path d="M59.08 464.03l8.33 0l0 12.23l-8.33 0Z" id="p245w107" />
<path d="M70.1 463.97l44.02 0l0 12.29l-44.02 0Z" id="p245w108" />
<path d="M114.12 463.97l23.3 0l0 12.29l-23.3 0Z" id="p245w109" />
<path d="M143.27 462.93l49.21 0l0 13.77l-49.21 0Z" id="p245w110" />
<path d="M198.34 464.03l14.41 0l0 12.23l-14.41 0Z" id="p245w111" />
<path d="M68.92 479.31l42.1 0l0 12.23l-42.1 0Z" id="p245w112" />
<path d="M111.03 479.31l23.42 0l0 12.23l-23.42 0Z" id="p245w113" />
<path d="M137.15 479.07l18.92 0l0 12.56l-18.92 0Z" id="p245w114" />
<path d="M59.08 494.54l36 0l0 12.29l-36 0Z" id="p245w115" />
<path d="M100.94 493.49l28.01 0l0 13.77l-28.01 0Z" id="p245w116" />
<path d="M134.8 494.59l30.98 0l0 12.23l-30.98 0ZM168.48 494.59l42.78 0l0 12.23l-42.78 0Z" id="p245w117" />
<path d="M213.97 494.35l14.43 0l0 12.56l-14.43 0Z" id="p245w118" />
<path d="M59.08 509.88l33.67 0l0 12.23l-33.67 0Z" id="p245w119" />
<path d="M95.45 509.82l18.28 0l0 12.29l-18.28 0Z" id="p245w120" />
<path d="M116.43 509.85l24.99 0l0 12.23l-24.99 0Z" id="p245w121" />
<path d="M144.12 509.85l38.49 0l0 12.23l-38.49 0Z" id="p245w122" />
<path d="M185.31 509.85l6.08 0l0 12.23l-6.08 0Z" id="p245w123" />
<path d="M191.39 509.85l10.34 0l0 12.23l-10.34 0Z" id="p245w124" />
<path d="M212.53 509.85l23.19 0l0 12.23l-23.19 0Z" id="p245w125" />
<path d="M68.92 525.14l22.88 0l0 12.23l-22.88 0Z" id="p245w126" />
<path d="M94.5 525.14l54.02 0l0 12.23l-54.02 0Z" id="p245w127" />
<path d="M154.38 524.06l47 0l0 13.77l-47 0Z" id="p245w128" />
<path d="M207.23 525.16l14.41 0l0 12.23l-14.41 0Z" id="p245w129" />
<path d="M68.92 540.44l82.95 0l0 12.23l-82.95 0Z" id="p245w130" />
<path d="M154.58 540.44l54.93 0l0 12.23l-54.93 0Z" id="p245w131" />
<path d="M212.21 540.2l18.01 0l0 12.56l-18.01 0Z" id="p245w132" />
<path d="M59.08 555.73l11.94 0l0 12.23l-11.94 0Z" id="p245w133" />
<path d="M73.72 555.67l68.18 0l0 12.29l-68.18 0Z" id="p245w134" />
<path d="M147.75 554.63l35.46 0l0 13.77l-35.46 0Z" id="p245w135" />
<path d="M189.07 555.73l14.41 0l0 12.23l-14.41 0Z" id="p245w136" />
<path d="M206.18 555.73l25.64 0l0 12.23l-25.64 0Z" id="p245w137" />
<path d="M68.92 571.01l14.41 0l0 12.23l-14.41 0Z" id="p245w138" />
<path d="M86.03 571.01l61.22 0l0 12.23l-61.22 0Z" id="p245w139" />
<path d="M149.95 570.77l18.17 0l0 12.56l-18.17 0Z" id="p245w140" />
<path d="M59.08 586.29l8.33 0l0 12.23l-8.33 0Z" id="p245w141" />
<path d="M70.1 586.24l38.68 0l0 12.29l-38.68 0Z" id="p245w142" />
<path d="M114.64 585.19l34.13 0l0 13.77l-34.13 0Z" id="p245w143" />
<path d="M154.63 586.29l14.41 0l0 12.23l-14.41 0Z" id="p245w144" />
<path d="M171.74 586.29l32.19 0l0 12.23l-32.19 0Z" id="p245w145" />
<path d="M206.63 586.29l29.48 0l0 12.23l-29.48 0Z" id="p245w146" />
<path d="M68.92 601.56l17.56 0l0 12.23l-17.56 0Z" id="p245w147" />
<path d="M89.19 601.56l23.1 0l0 12.23l-23.1 0Z" id="p245w148" />
<path d="M114.99 601.56l29.04 0l0 12.23l-29.04 0Z" id="p245w149" />
<path d="M146.73 601.56l15.31 0l0 12.23l-15.31 0Z" id="p245w150" />
<path d="M164.74 601.56l20.71 0l0 12.23l-20.71 0Z" id="p245w151" />
<path d="M188.15 601.56l28.38 0l0 12.23l-28.38 0Z" id="p245w152" />
<path d="M219.22 601.33l17.26 0l0 12.56l-17.26 0Z" id="p245w153" />
<path d="M59.08 616.86l11.94 0l0 12.23l-11.94 0Z" id="p245w154" />
<path d="M73.65 616.81l28.47 0l0 12.29l-28.47 0Z" id="p245w155" />
<path d="M107.91 615.76l29.6 0l0 13.77l-29.6 0Z" id="p245w156" />
<path d="M143.3 616.86l14.41 0l0 12.23l-14.41 0Z" id="p245w157" />
<path d="M160.35 616.86l49.74 0l0 12.23l-49.74 0Z" id="p245w158" />
<path d="M212.72 616.62l18.92 0l0 12.56l-18.92 0Z" id="p245w159" />
<path d="M59.07 632.14l11.94 0l0 12.23l-11.94 0Z" id="p245w160" />
<path d="M73.7 632.09l34.51 0l0 12.29l-34.51 0Z" id="p245w161" />
<path d="M114.07 631.04l37.31 0l0 13.77l-37.31 0Z" id="p245w162" />
<path d="M157.25 632.14l14.41 0l0 12.23l-14.41 0Z" id="p245w163" />
<path d="M174.35 632.14l38.01 0l0 12.23l-38.01 0Z" id="p245w164" />
<path d="M215.07 632.14l14.41 0l0 12.23l-14.41 0Z" id="p245w165" />
<path d="M68.91 647.43l30.17 0l0 12.23l-30.17 0Z" id="p245w166" />
<path d="M101.78 647.18l17.81 0l0 12.56l-17.81 0Z" id="p245w167" />
<path d="M59.07 662.71l8.33 0l0 12.23l-8.33 0Z" id="p245w168" />
<path d="M70.09 662.66l37.32 0l0 12.29l-37.32 0Z" id="p245w169" />
<path d="M113.27 661.61l45.36 0l0 13.77l-45.36 0Z" id="p245w170" />
<path d="M164.49 662.71l14.41 0l0 12.23l-14.41 0Z" id="p245w171" />
<path d="M181.6 662.71l47.27 0l0 12.23l-47.27 0Z" id="p245w172" />
<path d="M68.91 677.75l18.92 0l0 12.56l-18.92 0Z" id="p245w173" />
<path d="M59.07 693.28l11.94 0l0 12.23l-11.94 0Z" id="p245w174" />
<path d="M73.7 693.22l19.9 0l0 12.29l-19.9 0Z" id="p245w175" />
<path d="M105.08 692.18l23.35 0l0 13.77l-23.35 0Z" id="p245w176" />
<path d="M134.29 693.28l14.41 0l0 12.23l-14.41 0Z" id="p245w177" />
<path d="M151.4 693.28l20.49 0l0 12.23l-20.49 0Z" id="p245w178" />
<path d="M180.21 693.03l18.17 0l0 12.56l-18.17 0Z" id="p245w179" />
<path d="M59.07 708.56l17.56 0l0 12.23l-17.56 0Z" id="p245w180" />
<path d="M79.33 708.51l39.87 0l0 12.29l-39.87 0Z" id="p245w181" />
<path d="M125.06 707.46l40.86 0l0 13.77l-40.86 0Z" id="p245w182" />
<path d="M171.77 708.56l20.03 0l0 12.23l-20.03 0Z" id="p245w183" />
<path d="M194.28 708.56l31.52 0l0 12.23l-31.52 0Z" id="p245w184" />
<path d="M68.91 723.6l15.54 0l0 12.56l-15.54 0Z" id="p245w185" />
<path d="M59.07 739.07l38.7 0l0 12.29l-38.7 0Z" id="p245w186" />
<path d="M103.63 738.03l25.92 0l0 13.77l-25.92 0Z" id="p245w187" />
<path d="M135.4 739.13l38.26 0l0 12.23l-38.26 0Z" id="p245w188" />
<path d="M176.36 738.88l17.81 0l0 12.56l-17.81 0Z" id="p245w189" />
<path d="M59.07 754.41l11.94 0l0 12.23l-11.94 0Z" id="p245w190" />
<path d="M73.7 754.36l48.21 0l0 12.29l-48.21 0Z" id="p245w191" />
<path d="M127.77 753.31l36.36 0l0 13.77l-36.36 0Z" id="p245w192" />
<path d="M169.98 754.41l14.41 0l0 12.23l-14.41 0Z" id="p245w193" />
<path d="M187.09 754.41l30.84 0l0 12.23l-30.84 0Z" id="p245w194" />
<path d="M68.91 769.45l18.17 0l0 12.56l-18.17 0Z" id="p245w195" />
<path d="M59.07 784.98l10.35 0l0 12.23l-10.35 0Z" id="p245w196" />
<path d="M72.12 784.92l27.2 0l0 12.29l-27.2 0Z" id="p245w197" />
<path d="M105.17 783.88l30.95 0l0 13.77l-30.95 0Z" id="p245w198" />
<path d="M141.98 784.98l18.46 0l0 12.23l-18.46 0Z" id="p245w199" />
<path d="M163.15 784.98l29.94 0l0 12.23l-29.94 0Z" id="p245w200" />
<path d="M195.79 784.73l18.92 0l0 12.56l-18.92 0Z" id="p245w201" />
<path d="M59.07 800.21l50.87 0l0 12.29l-50.87 0Z" id="p245w202" />
<path d="M136.95 799.16l35.18 0l0 13.77l-35.18 0Z" id="p245w203" />
<path d="M177.99 800.26l51.76 0l0 12.23l-51.76 0Z" id="p245w204" />
<path d="M68.91 815.3l14.79 0l0 12.56l-14.79 0Z" id="p245w205" />
<path d="M68.91 830.83l8.33 0l0 12.23l-8.33 0Z" id="p245w206" />
<path d="M92.4 830.83l50.63 0l0 12.23l-50.63 0Z" id="p245w207" />
<path d="M148.89 829.73l76.25 0l0 13.77l-76.25 0Z" id="p245w208" />
<path d="M68.91 846.11l14.85 0l0 12.23l-14.85 0Z" id="p245w209" />
<path d="M100.81 846.11l51.76 0l0 12.23l-51.76 0Z" id="p245w210" />
<path d="M155.28 845.87l14.79 0l0 12.56l-14.79 0Z" id="p245w211" />
<path d="M59.07 861.4l17.56 0l0 12.23l-17.56 0Z" id="p245w212" />
<path d="M79.33 861.34l22.8 0l0 12.29l-22.8 0Z" id="p245w213" />
<path d="M107.98 860.3l29.27 0l0 13.77l-29.27 0Z" id="p245w214" />
<path d="M143.11 861.4l20.03 0l0 12.23l-20.03 0Z" id="p245w215" />
<path d="M165.84 861.4l23.63 0l0 12.23l-23.63 0Z" id="p245w216" />
<path d="M192.17 861.15l18.01 0l0 12.56l-18.01 0Z" id="p245w217" />
<path d="M59.07 876.62l64.13 0l0 12.29l-64.13 0Z" id="p245w218" />
<path d="M129.06 875.58l43.69 0l0 13.77l-43.69 0Z" id="p245w219" />
<path d="M178.61 876.68l45.65 0l0 12.23l-45.65 0Z" id="p245w220" />
<path d="M226.96 876.68l11.93 0l0 12.23l-11.93 0Z" id="p245w221" />
<path d="M68.91 891.96l24.31 0l0 12.23l-24.31 0Z" id="p245w222" />
<path d="M95.92 891.72l18.92 0l0 12.56l-18.92 0Z" id="p245w223" />
<path d="M59.07 907.19l34.02 0l0 12.29l-34.02 0Z" id="p245w224" />
<path d="M97.26 907.19l39.23 0l0 12.29l-39.23 0Z" id="p245w225" />
<path d="M142.34 906.15l54.64 0l0 13.77l-54.64 0Z" id="p245w226" />
<path d="M202.84 907.25l26.52 0l0 12.23l-26.52 0Z" id="p245w227" />
<path d="M68.91 922.53l27.45 0l0 12.23l-27.45 0Z" id="p245w228" />
<path d="M99.07 922.28l18.92 0l0 12.56l-18.92 0Z" id="p245w229" />
<path d="M260.58 112.51l11.94 0l0 12.23l-11.94 0Z" id="p245w230" />
<path d="M275.22 112.45l34.9 0l0 12.29l-34.9 0Z" id="p245w231" />
<path d="M310.13 112.51l21.73 0l0 12.23l-21.73 0Z" id="p245w232" />
<path d="M334.56 112.45l41.46 0l0 12.29l-41.46 0Z" id="p245w233" />
<path d="M381.87 111.41l41.52 0l0 13.77l-41.52 0Z" id="p245w234" />
<path d="M270.43 126.69l41.46 0l0 13.77l-41.46 0Z" id="p245w235" />
<path d="M317.75 127.79l14.41 0l0 12.23l-14.41 0Z" id="p245w236" />
<path d="M334.86 127.79l56.69 0l0 12.23l-56.69 0Z" id="p245w237" />
<path d="M394.24 127.79l41.27 0l0 12.23l-41.27 0Z" id="p245w238" />
<path d="M270.43 142.83l18.72 0l0 12.56l-18.72 0Z" id="p245w239" />
<path d="M260.58 158.36l8.33 0l0 12.23l-8.33 0Z" id="p245w240" />
<path d="M271.61 158.3l32.46 0l0 12.29l-32.46 0Z" id="p245w241" />
<path d="M309.92 157.26l34.6 0l0 13.77l-34.6 0Z" id="p245w242" />
<path d="M350.38 158.36l15.53 0l0 12.23l-15.53 0Z" id="p245w243" />
<path d="M368.61 158.36l33.77 0l0 12.23l-33.77 0Z" id="p245w244" />
<path d="M405.08 158.11l18.72 0l0 12.56l-18.72 0Z" id="p245w245" />
<path d="M260.58 173.59l26.12 0l0 12.29l-26.12 0Z" id="p245w246" />
<path d="M297.73 173.64l11.04 0l0 12.23l-11.04 0Z" id="p245w247" />
<path d="M314.63 172.54l27.69 0l0 13.77l-27.69 0Z" id="p245w248" />
<path d="M348.17 173.64l10.82 0l0 12.23l-10.82 0Z" id="p245w249" />
<path d="M361.69 173.64l19.44 0l0 12.23l-19.44 0Z" id="p245w250" />
<path d="M383.83 173.64l34.63 0l0 12.23l-34.63 0Z" id="p245w251" />
<path d="M421.16 173.64l10.82 0l0 12.23l-10.82 0Z" id="p245w252" />
<path d="M270.43 188.93l19.44 0l0 12.23l-19.44 0Z" id="p245w253" />
<path d="M292.57 188.93l32.42 0l0 12.23l-32.42 0Z" id="p245w254" />
<path d="M327.7 188.68l18.01 0l0 12.56l-18.01 0Z" id="p245w255" />
<path d="M260.58 204.15l19.24 0l0 12.29l-19.24 0Z" id="p245w256" />
<path d="M283.99 204.15l24.86 0l0 12.29l-24.86 0Z" id="p245w257" />
<path d="M314.72 203.11l35.56 0l0 13.77l-35.56 0Z" id="p245w258" />
<path d="M356.13 204.21l25.43 0l0 12.23l-25.43 0Z" id="p245w259" />
<path d="M384.26 203.96l18.17 0l0 12.56l-18.17 0Z" id="p245w260" />
<path d="M260.58 219.44l49.77 0l0 12.29l-49.77 0Z" id="p245w261" />
<path d="M316.22 218.39l31.69 0l0 13.77l-31.69 0Z" id="p245w262" />
<path d="M353.76 219.49l20.44 0l0 12.23l-20.44 0Z" id="p245w263" />
<path d="M376.91 219.49l15.76 0l0 12.23l-15.76 0Z" id="p245w264" />
<path d="M395.37 219.25l18.92 0l0 12.56l-18.92 0Z" id="p245w265" />
<path d="M260.58 234.78l8.33 0l0 12.23l-8.33 0Z" id="p245w266" />
<path d="M271.61 234.72l43.65 0l0 12.29l-43.65 0Z" id="p245w267" />
<path d="M321.12 233.68l31.21 0l0 13.77l-31.21 0Z" id="p245w268" />
<path d="M358.19 234.78l16.43 0l0 12.23l-16.43 0Z" id="p245w269" />
<path d="M377.32 234.78l49.05 0l0 12.23l-49.05 0Z" id="p245w270" />
<path d="M270.43 250.06l15.53 0l0 12.23l-15.53 0Z" id="p245w271" />
<path d="M288.66 250.06l78.34 0l0 12.23l-78.34 0Z" id="p245w272" />
<path d="M369.7 249.81l14.63 0l0 12.56l-14.63 0Z" id="p245w273" />
<path d="M260.58 265.29l7.65 0l0 12.29l-7.65 0Z" id="p245w274" />
<path d="M274.09 264.24l7.26 0l0 13.77l-7.26 0Z" id="p245w275" />
<path d="M287.21 265.34l21.8 0l0 12.23l-21.8 0Z" id="p245w276" />
<path d="M311.7 265.34l26.11 0l0 12.23l-26.11 0Z" id="p245w277" />
<path d="M340.51 265.1l15.54 0l0 12.56l-15.54 0Z" id="p245w278" />
<path d="M370.51 265.34l11.94 0l0 12.23l-11.94 0Z" id="p245w279" />
<path d="M385.15 265.1l15.54 0l0 12.56l-15.54 0Z" id="p245w280" />
<path d="M270.43 280.63l12.15 0l0 12.23l-12.15 0Z" id="p245w281" />
<path d="M285.28 280.63l9.45 0l0 12.23l-9.45 0Z" id="p245w282" />
<path d="M297.43 280.63l20.93 0l0 12.23l-20.93 0Z" id="p245w283" />
<path d="M324.22 279.53l32.51 0l0 13.77l-32.51 0Z" id="p245w284" />
<path d="M362.59 280.63l22.05 0l0 12.23l-22.05 0Z" id="p245w285" />
<path d="M387.34 280.6l29.06 0l0 12.23l-29.06 0Z" id="p245w286" />
<path d="M419.1 280.6l21.16 0l0 12.23l-21.16 0Z" id="p245w287" />
<path d="M270.43 295.89l46.61 0l0 12.23l-46.61 0Z" id="p245w288" />
<path d="M319.74 295.89l24.08 0l0 12.23l-24.08 0Z" id="p245w289" />
<path d="M346.52 295.66l15.54 0l0 12.56l-15.54 0Z" id="p245w290" />
<path d="M270.43 311.19l12.15 0l0 12.23l-12.15 0Z" id="p245w291" />
<path d="M285.28 311.19l21.62 0l0 12.23l-21.62 0Z" id="p245w292" />
<path d="M309.6 311.19l20.93 0l0 12.23l-20.93 0Z" id="p245w293" />
<path d="M336.39 310.09l34.96 0l0 13.77l-34.96 0Z" id="p245w294" />
<path d="M377.21 311.19l22.05 0l0 12.23l-22.05 0Z" id="p245w295" />
<path d="M401.96 311.17l29.06 0l0 12.23l-29.06 0Z" id="p245w296" />
<path d="M270.43 326.45l21.16 0l0 12.23l-21.16 0Z" id="p245w297" />
<path d="M294.3 326.45l46.61 0l0 12.23l-46.61 0Z" id="p245w298" />
<path d="M343.6 326.45l24.75 0l0 12.23l-24.75 0Z" id="p245w299" />
<path d="M371.06 326.23l15.54 0l0 12.56l-15.54 0Z" id="p245w300" />
<path d="M260.58 341.7l18.01 0l0 12.29l-18.01 0Z" id="p245w301" />
<path d="M278.59 341.7l9.53 0l0 12.29l-9.53 0Z" id="p245w302" />
<path d="M293.97 340.66l19.04 0l0 13.77l-19.04 0Z" id="p245w303" />
<path d="M318.87 341.76l33.31 0l0 12.23l-33.31 0Z" id="p245w304" />
<path d="M354.88 341.52l18.92 0l0 12.56l-18.92 0Z" id="p245w305" />
<path d="M260.58 357.04l11.94 0l0 12.23l-11.94 0Z" id="p245w306" />
<path d="M275.22 356.99l25.23 0l0 12.29l-25.23 0Z" id="p245w307" />
<path d="M306.31 355.94l18.07 0l0 13.77l-18.07 0Z" id="p245w308" />
<path d="M330.24 357.04l14.41 0l0 12.23l-14.41 0Z" id="p245w309" />
<path d="M347.35 357.04l36.69 0l0 12.23l-36.69 0Z" id="p245w310" />
<path d="M386.74 356.8l19.58 0l0 12.56l-19.58 0Z" id="p245w311" />
<path d="M260.58 372.33l8.33 0l0 12.23l-8.33 0Z" id="p245w312" />
<path d="M271.61 372.27l32.4 0l0 12.29l-32.4 0Z" id="p245w313" />
<path d="M309.87 371.23l28.41 0l0 13.77l-28.41 0Z" id="p245w314" />
<path d="M344.14 372.33l14.41 0l0 12.23l-14.41 0Z" id="p245w315" />
<path d="M361.24 372.33l26.31 0l0 12.23l-26.31 0Z" id="p245w316" />
<path d="M390.25 372.33l14.41 0l0 12.23l-14.41 0Z" id="p245w317" />
<path d="M407.36 372.33l23.41 0l0 12.23l-23.41 0Z" id="p245w318" />
<path d="M270.43 387.37l19.58 0l0 12.56l-19.58 0Z" id="p245w319" />
<path d="M260.58 402.84l31.4 0l0 12.29l-31.4 0Z" id="p245w320" />
<path d="M297.84 401.79l17.67 0l0 13.77l-17.67 0Z" id="p245w321" />
<path d="M321.37 402.89l34.67 0l0 12.23l-34.67 0Z" id="p245w322" />
<path d="M358.74 402.65l18.92 0l0 12.56l-18.92 0Z" id="p245w323" />
<path d="M260.58 418.18l8.33 0l0 12.23l-8.33 0Z" id="p245w324" />
<path d="M271.61 418.12l23.38 0l0 12.29l-23.38 0Z" id="p245w325" />
<path d="M297.69 418.18l37.06 0l0 12.23l-37.06 0Z" id="p245w326" />
<path d="M340.6 417.08l57.27 0l0 13.77l-57.27 0Z" id="p245w327" />
<path d="M403.73 418.18l15.53 0l0 12.23l-15.53 0Z" id="p245w328" />
<path d="M270.43 433.46l51.55 0l0 12.23l-51.55 0Z" id="p245w329" />
<path d="M324.69 433.22l18.92 0l0 12.56l-18.92 0Z" id="p245w330" />
<path d="M260.58 448.74l11.94 0l0 12.23l-11.94 0Z" id="p245w331" />
<path d="M275.22 448.69l17.22 0l0 12.29l-17.22 0Z" id="p245w332" />
<path d="M298.31 447.64l15.46 0l0 13.77l-15.46 0Z" id="p245w333" />
<path d="M319.63 448.74l20.03 0l0 12.23l-20.03 0Z" id="p245w334" />
<path d="M342.36 448.74l51.1 0l0 12.23l-51.1 0Z" id="p245w335" />
<path d="M396.16 448.74l28.58 0l0 12.23l-28.58 0Z" id="p245w336" />
<path d="M270.44 463.78l15.54 0l0 12.56l-15.54 0Z" id="p245w337" />
<path d="M305.84 464.03l20.03 0l0 12.23l-20.03 0Z" id="p245w338" />
<path d="M328.35 464.03l37.58 0l0 12.23l-37.58 0Z" id="p245w339" />
<path d="M368.63 463.78l18.92 0l0 12.56l-18.92 0Z" id="p245w340" />
<path d="M260.59 479.31l8.33 0l0 12.23l-8.33 0Z" id="p245w341" />
<path d="M271.62 479.25l25.69 0l0 12.29l-25.69 0Z" id="p245w342" />
<path d="M303.17 478.21l25.97 0l0 13.77l-25.97 0Z" id="p245w343" />
<path d="M334.99 479.31l16.43 0l0 12.23l-16.43 0Z" id="p245w344" />
<path d="M354.12 479.31l55.8 0l0 12.23l-55.8 0Z" id="p245w345" />
<path d="M412.62 479.31l16.43 0l0 12.23l-16.43 0Z" id="p245w346" />
<path d="M270.44 494.59l84.19 0l0 12.23l-84.19 0Z" id="p245w347" />
<path d="M357.33 494.35l14.63 0l0 12.56l-14.63 0Z" id="p245w348" />
<path d="M260.59 509.88l8.33 0l0 12.23l-8.33 0Z" id="p245w349" />
<path d="M271.62 509.82l13.29 0l0 12.29l-13.29 0Z" id="p245w350" />
<path d="M290.77 508.78l20.85 0l0 13.77l-20.85 0Z" id="p245w351" />
<path d="M317.48 509.88l16.43 0l0 12.23l-16.43 0Z" id="p245w352" />
<path d="M336.61 509.88l47.02 0l0 12.23l-47.02 0Z" id="p245w353" />
<path d="M386.33 509.88l15.53 0l0 12.23l-15.53 0Z" id="p245w354" />
<path d="M404.56 509.88l13.74 0l0 12.23l-13.74 0Z" id="p245w355" />
<path d="M421 509.63l18.01 0l0 12.56l-18.01 0Z" id="p245w356" />
<path d="M260.59 525.16l11.94 0l0 12.23l-11.94 0Z" id="p245w357" />
<path d="M275.23 525.11l57.27 0l0 12.29l-57.27 0Z" id="p245w358" />
<path d="M338.36 524.06l47 0l0 13.77l-47 0Z" id="p245w359" />
<path d="M391.21 525.16l14.41 0l0 12.23l-14.41 0Z" id="p245w360" />
<path d="M270.44 540.44l58.08 0l0 12.23l-58.08 0Z" id="p245w361" />
<path d="M331.22 540.2l18.01 0l0 12.56l-18.01 0Z" id="p245w362" />
<path d="M260.59 555.73l11.94 0l0 12.23l-11.94 0Z" id="p245w363" />
<path d="M275.23 555.67l40.36 0l0 12.29l-40.36 0Z" id="p245w364" />
<path d="M321.45 554.63l37.98 0l0 13.77l-37.98 0Z" id="p245w365" />
<path d="M365.29 555.73l14.41 0l0 12.23l-14.41 0Z" id="p245w366" />
<path d="M382.39 555.73l40.93 0l0 12.23l-40.93 0Z" id="p245w367" />
<path d="M270.44 570.77l18.92 0l0 12.56l-18.92 0Z" id="p245w368" />
<path d="M260.59 586.29l11.94 0l0 12.23l-11.94 0Z" id="p245w369" />
<path d="M275.23 586.24l21.21 0l0 12.29l-21.21 0Z" id="p245w370" />
<path d="M302.3 585.19l36.27 0l0 13.77l-36.27 0Z" id="p245w371" />
<path d="M344.43 586.29l20.03 0l0 12.23l-20.03 0Z" id="p245w372" />
<path d="M367.16 586.29l20.94 0l0 12.23l-20.94 0Z" id="p245w373" />
<path d="M390.8 586.05l15.54 0l0 12.56l-15.54 0Z" id="p245w374" />
<path d="M260.59 601.52l26.55 0l0 12.29l-26.55 0Z" id="p245w375" />
<path d="M291.32 601.52l32.18 0l0 12.29l-32.18 0Z" id="p245w376" />
<path d="M329.35 600.48l49.21 0l0 13.77l-49.21 0Z" id="p245w377" />
<path d="M384.42 601.58l26.57 0l0 12.23l-26.57 0Z" id="p245w378" />
<path d="M413.68 601.33l17.81 0l0 12.56l-17.81 0Z" id="p245w379" />
<path d="M260.59 616.86l8.33 0l0 12.23l-8.33 0Z" id="p245w380" />
<path d="M271.62 616.81l33.3 0l0 12.29l-33.3 0Z" id="p245w381" />
<path d="M310.78 615.76l37.88 0l0 13.77l-37.88 0Z" id="p245w382" />
<path d="M354.52 616.86l14.41 0l0 12.23l-14.41 0Z" id="p245w383" />
<path d="M371.62 616.86l57.17 0l0 12.23l-57.17 0Z" id="p245w384" />
<path d="M270.44 631.9l18.92 0l0 12.56l-18.92 0Z" id="p245w385" />
<path d="M260.59 647.43l11.94 0l0 12.23l-11.94 0Z" id="p245w386" />
<path d="M275.23 647.37l17.4 0l0 12.29l-17.4 0Z" id="p245w387" />
<path d="M298.49 646.33l26.8 0l0 13.77l-26.8 0Z" id="p245w388" />
<path d="M331.14 647.43l14.41 0l0 12.23l-14.41 0Z" id="p245w389" />
<path d="M348.25 647.43l30.39 0l0 12.23l-30.39 0Z" id="p245w390" />
<path d="M381.34 647.18l15.54 0l0 12.56l-15.54 0Z" id="p245w391" />
<path d="M270.44 662.71l10.58 0l0 12.23l-10.58 0Z" id="p245w392" />
<path d="M283.73 662.71l17.11 0l0 12.23l-17.11 0Z" id="p245w393" />
<path d="M306.69 661.61l31.26 0l0 13.77l-31.26 0Z" id="p245w394" />
<path d="M343.8 662.71l27.01 0l0 12.23l-27.01 0Z" id="p245w395" />
<path d="M373.51 662.71l30.39 0l0 12.23l-30.39 0Z" id="p245w396" />
<path d="M406.6 662.47l15.54 0l0 12.56l-15.54 0Z" id="p245w397" />
<path d="M260.59 677.99l11.94 0l0 12.23l-11.94 0Z" id="p245w398" />
<path d="M275.23 677.94l29.13 0l0 12.29l-29.13 0Z" id="p245w399" />
<path d="M304.37 677.99l21.73 0l0 12.23l-21.73 0Z" id="p245w400" />
<path d="M328.8 677.94l34.76 0l0 12.29l-34.76 0Z" id="p245w401" />
<path d="M369.41 676.89l69.18 0l0 13.77l-69.18 0Z" id="p245w402" />
<path d="M270.44 693.28l14.41 0l0 12.23l-14.41 0Z" id="p245w403" />
<path d="M287.55 693.28l53.92 0l0 12.23l-53.92 0Z" id="p245w404" />
<path d="M344.17 693.28l38.5 0l0 12.23l-38.5 0Z" id="p245w405" />
<path d="M385.37 693.03l18.17 0l0 12.56l-18.17 0Z" id="p245w406" />
<path d="M260.59 708.56l13.05 0l0 12.23l-13.05 0Z" id="p245w407" />
<path d="M276.34 708.51l30.01 0l0 12.29l-30.01 0Z" id="p245w408" />
<path d="M322.81 708.56l14.64 0l0 12.23l-14.64 0Z" id="p245w409" />
<path d="M343.3 707.46l26.35 0l0 13.77l-26.35 0Z" id="p245w410" />
<path d="M375.51 708.56l15.53 0l0 12.23l-15.53 0Z" id="p245w411" />
<path d="M270.44 723.84l69.79 0l0 12.23l-69.79 0Z" id="p245w412" />
<path d="M342.94 723.6l15.34 0l0 12.56l-15.34 0Z" id="p245w413" />
<path d="M260.59 739.13l8.33 0l0 12.23l-8.33 0Z" id="p245w414" />
<path d="M271.62 739.07l24.74 0l0 12.29l-24.74 0Z" id="p245w415" />
<path d="M302.22 738.03l27.75 0l0 13.77l-27.75 0Z" id="p245w416" />
<path d="M335.83 739.13l14.41 0l0 12.23l-14.41 0Z" id="p245w417" />
<path d="M352.94 739.13l29.5 0l0 12.23l-29.5 0Z" id="p245w418" />
<path d="M385.14 738.88l15.54 0l0 12.56l-15.54 0Z" id="p245w419" />
<path d="M270.44 754.41l5.86 0l0 12.23l-5.86 0Z" id="p245w420" />
<path d="M294.98 754.41l11.94 0l0 12.23l-11.94 0Z" id="p245w421" />
<path d="M309.62 754.41l26.57 0l0 12.23l-26.57 0Z" id="p245w422" />
<path d="M342.05 753.31l44.72 0l0 13.77l-44.72 0Z" id="p245w423" />
<path d="M392.62 754.41l15.31 0l0 12.23l-15.31 0Z" id="p245w424" />
<path d="M410.63 754.41l29.5 0l0 12.23l-29.5 0Z" id="p245w425" />
<path d="M270.44 769.7l36.25 0l0 12.23l-36.25 0Z" id="p245w426" />
<path d="M309.39 769.45l15.54 0l0 12.56l-15.54 0Z" id="p245w427" />
<path d="M260.59 784.98l11.7 0l0 12.23l-11.7 0Z" id="p245w428" />
<path d="M275 784.92l19.34 0l0 12.29l-19.34 0Z" id="p245w429" />
<path d="M300.2 783.88l25 0l0 13.77l-25 0Z" id="p245w430" />
<path d="M331.05 784.98l19.14 0l0 12.23l-19.14 0Z" id="p245w431" />
<path d="M352.9 784.96l25.88 0l0 12.23l-25.88 0Z" id="p245w432" />
<path d="M381.47 784.73l15.34 0l0 12.56l-15.34 0Z" id="p245w433" />
<path d="M260.59 800.26l17.56 0l0 12.23l-17.56 0Z" id="p245w434" />
<path d="M280.86 800.21l38.15 0l0 12.29l-38.15 0Z" id="p245w435" />
<path d="M324.86 799.16l40.8 0l0 13.77l-40.8 0Z" id="p245w436" />
<path d="M371.52 800.26l20.03 0l0 12.23l-20.03 0Z" id="p245w437" />
<path d="M394.25 800.26l33.72 0l0 12.23l-33.72 0Z" id="p245w438" />
<path d="M270.44 815.3l19.58 0l0 12.56l-19.58 0Z" id="p245w439" />
<path d="M260.59 830.83l8.33 0l0 12.23l-8.33 0Z" id="p245w440" />
<path d="M271.62 830.77l16.76 0l0 12.29l-16.76 0Z" id="p245w441" />
<path d="M294.24 829.73l17.42 0l0 13.77l-17.42 0Z" id="p245w442" />
<path d="M317.52 830.83l15.53 0l0 12.23l-15.53 0Z" id="p245w443" />
<path d="M335.74 830.83l28.96 0l0 12.23l-28.96 0Z" id="p245w444" />
<path d="M367.4 830.83l15.53 0l0 12.23l-15.53 0Z" id="p245w445" />
<path d="M385.33 830.83l16.45 0l0 12.23l-16.45 0Z" id="p245w446" />
<path d="M404.48 830.58l18.92 0l0 12.56l-18.92 0Z" id="p245w447" />
<path d="M260.59 846.06l16.76 0l0 12.29l-16.76 0Z" id="p245w448" />
<path d="M281.52 846.06l10.47 0l0 12.29l-10.47 0Z" id="p245w449" />
<path d="M296.16 846.06l15.29 0l0 12.29l-15.29 0Z" id="p245w450" />
<path d="M317.32 845.01l33.52 0l0 13.77l-33.52 0Z" id="p245w451" />
<path d="M356.7 846.11l48.05 0l0 12.23l-48.05 0Z" id="p245w452" />
<path d="M407.45 845.87l14.79 0l0 12.56l-14.79 0Z" id="p245w453" />
<path d="M260.59 861.4l11.7 0l0 12.23l-11.7 0Z" id="p245w454" />
<path d="M275 861.34l28.47 0l0 12.29l-28.47 0Z" id="p245w455" />
<path d="M311.58 860.3l24.93 0l0 13.77l-24.93 0Z" id="p245w456" />
<path d="M342.37 861.4l10.58 0l0 12.23l-10.58 0Z" id="p245w457" />
<path d="M355.65 861.4l37.09 0l0 12.23l-37.09 0Z" id="p245w458" />
<path d="M395.44 861.15l15.54 0l0 12.56l-15.54 0Z" id="p245w459" />
<path d="M260.59 876.68l11.94 0l0 12.23l-11.94 0Z" id="p245w460" />
<path d="M275.23 876.62l31.46 0l0 12.29l-31.46 0Z" id="p245w461" />
<path d="M306.69 876.68l21.73 0l0 12.23l-21.73 0Z" id="p245w462" />
<path d="M331.12 876.62l37 0l0 12.29l-37 0Z" id="p245w463" />
<path d="M373.98 875.58l34.17 0l0 13.77l-34.17 0Z" id="p245w464" />
<path d="M270.44 890.86l42.96 0l0 13.77l-42.96 0Z" id="p245w465" />
<path d="M319.26 891.96l14.41 0l0 12.23l-14.41 0Z" id="p245w466" />
<path d="M336.37 891.96l89.23 0l0 12.23l-89.23 0Z" id="p245w467" />
<path d="M270.44 907.25l23.41 0l0 12.23l-23.41 0Z" id="p245w468" />
<path d="M296.55 907l18.92 0l0 12.56l-18.92 0Z" id="p245w469" />
<path d="M462.11 112.51l17.56 0l0 12.23l-17.56 0Z" id="p245w470" />
<path d="M482.38 112.45l26.97 0l0 12.29l-26.97 0Z" id="p245w471" />
<path d="M515.2 111.41l32.52 0l0 13.77l-32.52 0Z" id="p245w472" />
<path d="M553.58 112.51l14.41 0l0 12.23l-14.41 0Z" id="p245w473" />
<path d="M570.69 112.51l42.98 0l0 12.23l-42.98 0Z" id="p245w474" />
<path d="M471.96 127.79l36.45 0l0 12.23l-36.45 0Z" id="p245w475" />
<path d="M511.11 127.79l14.41 0l0 12.23l-14.41 0Z" id="p245w476" />
<path d="M528.22 127.79l23.41 0l0 12.23l-23.41 0Z" id="p245w477" />
<path d="M551.62 127.79l11.88 0l0 12.23l-11.88 0Z" id="p245w478" />
<path d="M566.21 127.55l15.54 0l0 12.56l-15.54 0Z" id="p245w479" />
<path d="M462.11 143.02l25.24 0l0 12.29l-25.24 0Z" id="p245w480" />
<path d="M490.06 143.08l11.04 0l0 12.23l-11.04 0Z" id="p245w481" />
<path d="M506.95 141.97l26.49 0l0 13.77l-26.49 0Z" id="p245w482" />
<path d="M539.3 143.08l19.44 0l0 12.23l-19.44 0Z" id="p245w483" />
<path d="M561.44 143.08l67.48 0l0 12.23l-67.48 0Z" id="p245w484" />
<path d="M471.96 158.11l18.72 0l0 12.56l-18.72 0Z" id="p245w485" />
<path d="M462.11 173.59l25.24 0l0 12.29l-25.24 0Z" id="p245w486" />
<path d="M493.21 172.54l26.49 0l0 13.77l-26.49 0Z" id="p245w487" />
<path d="M525.56 173.64l48.08 0l0 12.23l-48.08 0Z" id="p245w488" />
<path d="M576.34 173.64l60.5 0l0 12.23l-60.5 0Z" id="p245w489" />
<path d="M471.96 188.68l15.54 0l0 12.56l-15.54 0Z" id="p245w490" />
<path d="M471.96 204.21l24.75 0l0 12.23l-24.75 0Z" id="p245w491" />
<path d="M499.42 204.21l11.04 0l0 12.23l-11.04 0Z" id="p245w492" />
<path d="M516.31 203.11l26.49 0l0 13.77l-26.49 0Z" id="p245w493" />
<path d="M548.66 204.21l19.44 0l0 12.23l-19.44 0Z" id="p245w494" />
<path d="M570.8 204.21l67.93 0l0 12.23l-67.93 0Z" id="p245w495" />
<path d="M471.96 219.25l15.34 0l0 12.56l-15.34 0Z" id="p245w496" />
<path d="M471.96 234.78l24.75 0l0 12.23l-24.75 0Z" id="p245w497" />
<path d="M499.42 234.78l11.04 0l0 12.23l-11.04 0Z" id="p245w498" />
<path d="M513.15 234.78l11.7 0l0 12.23l-11.7 0Z" id="p245w499" />
<path d="M527.56 234.78l11.04 0l0 12.23l-11.04 0Z" id="p245w500" />
<path d="M544.45 233.68l26.49 0l0 13.77l-26.49 0Z" id="p245w501" />
<path d="M576.8 234.78l19.44 0l0 12.23l-19.44 0Z" id="p245w502" />
<path d="M471.96 250.06l57.85 0l0 12.23l-57.85 0Z" id="p245w503" />
<path d="M532.52 250.06l18.65 0l0 12.23l-18.65 0Z" id="p245w504" />
<path d="M553.87 250.06l19.44 0l0 12.23l-19.44 0Z" id="p245w505" />
<path d="M576.01 250.06l56.73 0l0 12.23l-56.73 0Z" id="p245w506" />
<path d="M471.96 265.34l16.21 0l0 12.23l-16.21 0Z" id="p245w507" />
<path d="M490.87 265.1l15.54 0l0 12.56l-15.54 0Z" id="p245w508" />
<path d="M462.11 280.63l5.86 0l0 12.23l-5.86 0Z" id="p245w509" />
<path d="M486.66 280.63l11.94 0l0 12.23l-11.94 0Z" id="p245w510" />
<path d="M501.29 280.57l24.08 0l0 12.29l-24.08 0Z" id="p245w511" />
<path d="M533.48 279.53l36.2 0l0 13.77l-36.2 0Z" id="p245w512" />
<path d="M575.54 280.63l10.58 0l0 12.23l-10.58 0Z" id="p245w513" />
<path d="M588.83 280.63l18.63 0l0 12.23l-18.63 0Z" id="p245w514" />
<path d="M610.16 280.63l14.41 0l0 12.23l-14.41 0Z" id="p245w515" />
<path d="M471.96 295.91l41.2 0l0 12.23l-41.2 0Z" id="p245w516" />
<path d="M515.87 295.66l15.34 0l0 12.56l-15.34 0Z" id="p245w517" />
<path d="M462.11 311.19l10.35 0l0 12.23l-10.35 0Z" id="p245w518" />
<path d="M475.16 311.19l21.37 0l0 12.23l-21.37 0Z" id="p245w519" />
<path d="M499.24 311.19l11.94 0l0 12.23l-11.94 0Z" id="p245w520" />
<path d="M513.88 311.14l24.08 0l0 12.29l-24.08 0Z" id="p245w521" />
<path d="M543.81 310.09l51.02 0l0 13.77l-51.02 0Z" id="p245w522" />
<path d="M600.69 311.19l18.46 0l0 12.23l-18.46 0Z" id="p245w523" />
<path d="M471.96 326.48l33.12 0l0 12.23l-33.12 0Z" id="p245w524" />
<path d="M507.79 326.48l37.59 0l0 12.23l-37.59 0Z" id="p245w525" />
<path d="M548.08 326.23l18.92 0l0 12.56l-18.92 0Z" id="p245w526" />
<path d="M471.34 341.76l15.76 0l0 12.23l-15.76 0Z" id="p245w527" />
<path d="M489.8 341.7l39.96 0l0 12.29l-39.96 0Z" id="p245w528" />
<path d="M541.78 340.66l32.39 0l0 13.77l-32.39 0Z" id="p245w529" />
<path d="M580.02 341.76l56.73 0l0 12.23l-56.73 0Z" id="p245w530" />
<path d="M471.96 356.8l19.58 0l0 12.56l-19.58 0Z" id="p245w531" />
<path d="M462.11 372.33l17.56 0l0 12.23l-17.56 0Z" id="p245w532" />
<path d="M482.38 372.27l28.33 0l0 12.29l-28.33 0Z" id="p245w533" />
<path d="M516.57 371.23l27.37 0l0 13.77l-27.37 0Z" id="p245w534" />
<path d="M549.79 372.33l20.03 0l0 12.23l-20.03 0Z" id="p245w535" />
<path d="M572.52 372.33l29.5 0l0 12.23l-29.5 0Z" id="p245w536" />
<path d="M604.72 372.08l18.92 0l0 12.56l-18.92 0Z" id="p245w537" />
<path d="M462.11 387.61l17.56 0l0 12.23l-17.56 0Z" id="p245w538" />
<path d="M482.38 387.55l23.7 0l0 12.29l-23.7 0Z" id="p245w539" />
<path d="M511.93 386.51l30.28 0l0 13.77l-30.28 0Z" id="p245w540" />
<path d="M548.07 387.61l20.03 0l0 12.23l-20.03 0Z" id="p245w541" />
<path d="M570.8 387.61l48.84 0l0 12.23l-48.84 0Z" id="p245w542" />
<path d="M471.96 402.65l15.54 0l0 12.56l-15.54 0Z" id="p245w543" />
<path d="M462.11 418.18l17.56 0l0 12.23l-17.56 0Z" id="p245w544" />
<path d="M482.38 418.12l30.71 0l0 12.29l-30.71 0Z" id="p245w545" />
<path d="M518.95 417.08l30.93 0l0 13.77l-30.93 0Z" id="p245w546" />
<path d="M555.74 418.18l20.03 0l0 12.23l-20.03 0Z" id="p245w547" />
<path d="M578.47 418.18l29.71 0l0 12.23l-29.71 0Z" id="p245w548" />
<path d="M610.88 417.93l18.92 0l0 12.56l-18.92 0Z" id="p245w549" />
<path d="M462.11 433.46l8.33 0l0 12.23l-8.33 0Z" id="p245w550" />
<path d="M473.14 433.4l32.81 0l0 12.29l-32.81 0Z" id="p245w551" />
<path d="M511.81 432.36l32.08 0l0 13.77l-32.08 0Z" id="p245w552" />
<path d="M549.75 433.46l16.43 0l0 12.23l-16.43 0Z" id="p245w553" />
<path d="M568.87 433.46l36.25 0l0 12.23l-36.25 0Z" id="p245w554" />
<path d="M607.82 433.22l18.92 0l0 12.56l-18.92 0Z" id="p245w555" />
<path d="M462.11 448.69l32.81 0l0 12.29l-32.81 0Z" id="p245w556" />
<path d="M500.78 447.64l23.94 0l0 13.77l-23.94 0Z" id="p245w557" />
<path d="M530.58 448.74l33.77 0l0 12.23l-33.77 0Z" id="p245w558" />
<path d="M567.05 448.5l18.72 0l0 12.56l-18.72 0Z" id="p245w559" />
<path d="M462.11 463.97l21.49 0l0 12.29l-21.49 0Z" id="p245w560" />
<path d="M489.46 462.93l10 0l0 13.77l-10 0Z" id="p245w561" />
<path d="M505.32 464.03l25.21 0l0 12.23l-25.21 0Z" id="p245w562" />
<path d="M533.23 463.78l15.54 0l0 12.56l-15.54 0Z" id="p245w563" />
<path d="M471.96 479.31l21.16 0l0 12.23l-21.16 0Z" id="p245w564" />
<path d="M495.83 479.31l22.72 0l0 12.23l-22.72 0Z" id="p245w565" />
<path d="M524.4 478.21l23.63 0l0 13.77l-23.63 0Z" id="p245w566" />
<path d="M553.89 479.31l25.21 0l0 12.23l-25.21 0Z" id="p245w567" />
<path d="M581.8 479.31l15.53 0l0 12.23l-15.53 0Z" id="p245w568" />
<path d="M600.03 479.31l23.61 0l0 12.23l-23.61 0Z" id="p245w569" />
<path d="M471.96 494.59l56.05 0l0 12.23l-56.05 0Z" id="p245w570" />
<path d="M530.72 494.35l18.17 0l0 12.56l-18.17 0Z" id="p245w571" />
<path d="M462.11 509.88l10.35 0l0 12.23l-10.35 0Z" id="p245w572" />
<path d="M475.16 509.82l40.11 0l0 12.29l-40.11 0Z" id="p245w573" />
<path d="M517.98 509.88l11.7 0l0 12.23l-11.7 0Z" id="p245w574" />
<path d="M532.38 509.88l27.37 0l0 12.23l-27.37 0Z" id="p245w575" />
<path d="M565.61 508.78l38.98 0l0 13.77l-38.98 0Z" id="p245w576" />
<path d="M610.45 509.88l18.46 0l0 12.23l-18.46 0Z" id="p245w577" />
<path d="M631.61 509.88l11.7 0l0 12.23l-11.7 0Z" id="p245w578" />
<path d="M471.96 525.16l40.5 0l0 12.23l-40.5 0Z" id="p245w579" />
<path d="M515.17 525.16l39.84 0l0 12.23l-39.84 0Z" id="p245w580" />
<path d="M557.7 524.92l18.17 0l0 12.56l-18.17 0Z" id="p245w581" />
<path d="M462.11 540.39l37.35 0l0 12.29l-37.35 0Z" id="p245w582" />
<path d="M505.32 539.34l21.06 0l0 13.77l-21.06 0Z" id="p245w583" />
<path d="M532.24 540.44l13.28 0l0 12.23l-13.28 0Z" id="p245w584" />
<path d="M548.22 540.2l14.63 0l0 12.56l-14.63 0Z" id="p245w585" />
<path d="M462.11 555.73l17.56 0l0 12.23l-17.56 0Z" id="p245w586" />
<path d="M482.38 555.67l44.77 0l0 12.29l-44.77 0Z" id="p245w587" />
<path d="M533.01 554.63l53.35 0l0 13.77l-53.35 0Z" id="p245w588" />
<path d="M592.22 555.73l20.03 0l0 12.23l-20.03 0Z" id="p245w589" />
<path d="M471.96 571.01l65.25 0l0 12.23l-65.25 0Z" id="p245w590" />
<path d="M539.91 571.01l20.03 0l0 12.23l-20.03 0Z" id="p245w591" />
<path d="M562.64 571.01l49.52 0l0 12.23l-49.52 0Z" id="p245w592" />
<path d="M614.86 570.77l14.79 0l0 12.56l-14.79 0Z" id="p245w593" />
<path d="M462.11 586.24l44.11 0l0 12.29l-44.11 0Z" id="p245w594" />
<path d="M510.39 586.24l49.73 0l0 12.29l-49.73 0Z" id="p245w595" />
<path d="M565.97 585.19l73.1 0l0 13.77l-73.1 0Z" id="p245w596" />
<path d="M471.96 601.58l38.27 0l0 12.23l-38.27 0Z" id="p245w597" />
<path d="M512.93 601.33l18.92 0l0 12.56l-18.92 0Z" id="p245w598" />
<path d="M462.11 616.81l69.01 0l0 12.29l-69.01 0Z" id="p245w599" />
<path d="M533.83 616.84l25.88 0l0 12.23l-25.88 0Z" id="p245w600" />
<path d="M565.56 615.76l50.24 0l0 13.77l-50.24 0Z" id="p245w601" />
<path d="M471.96 632.14l38.27 0l0 12.23l-38.27 0Z" id="p245w602" />
<path d="M512.93 631.9l18.92 0l0 12.56l-18.92 0Z" id="p245w603" />
<path d="M462.11 647.43l8.33 0l0 12.23l-8.33 0Z" id="p245w604" />
<path d="M473.14 647.37l24.59 0l0 12.29l-24.59 0Z" id="p245w605" />
<path d="M503.58 646.33l28.74 0l0 13.77l-28.74 0Z" id="p245w606" />
<path d="M538.19 647.43l15.53 0l0 12.23l-15.53 0Z" id="p245w607" />
<path d="M556.41 647.43l25.44 0l0 12.23l-25.44 0Z" id="p245w608" />
<path d="M584.56 647.18l14.63 0l0 12.56l-14.63 0Z" id="p245w609" />
<path d="M471.96 662.71l11.94 0l0 12.23l-11.94 0Z" id="p245w610" />
<path d="M486.6 662.71l24.31 0l0 12.23l-24.31 0Z" id="p245w611" />
<path d="M513.61 662.71l38.7 0l0 12.23l-38.7 0Z" id="p245w612" />
<path d="M558.17 661.61l62.73 0l0 13.77l-62.73 0Z" id="p245w613" />
<path d="M626.76 662.71l14.41 0l0 12.23l-14.41 0Z" id="p245w614" />
<path d="M471.96 677.99l57.62 0l0 12.23l-57.62 0Z" id="p245w615" />
<path d="M532.28 677.75l18.01 0l0 12.56l-18.01 0Z" id="p245w616" />
<path d="M462.11 693.28l11.94 0l0 12.23l-11.94 0Z" id="p245w617" />
<path d="M476.75 693.22l31.1 0l0 12.29l-31.1 0Z" id="p245w618" />
<path d="M507.85 693.28l21.73 0l0 12.23l-21.73 0Z" id="p245w619" />
<path d="M532.28 693.22l38.07 0l0 12.29l-38.07 0Z" id="p245w620" />
<path d="M576.21 692.18l37.8 0l0 13.77l-37.8 0Z" id="p245w621" />
<path d="M471.96 707.46l43.42 0l0 13.77l-43.42 0Z" id="p245w622" />
<path d="M521.23 708.56l14.41 0l0 12.23l-14.41 0Z" id="p245w623" />
<path d="M538.34 708.56l61.79 0l0 12.23l-61.79 0Z" id="p245w624" />
<path d="M471.96 723.84l46.37 0l0 12.23l-46.37 0Z" id="p245w625" />
<path d="M521.03 723.6l18.92 0l0 12.56l-18.92 0Z" id="p245w626" />
<path d="M462.11 739.07l31.1 0l0 12.29l-31.1 0Z" id="p245w627" />
<path d="M497.38 739.07l38.07 0l0 12.29l-38.07 0Z" id="p245w628" />
<path d="M541.31 738.03l65.05 0l0 13.77l-65.05 0Z" id="p245w629" />
<path d="M471.96 754.41l40.75 0l0 12.23l-40.75 0Z" id="p245w630" />
<path d="M515.41 754.17l15.34 0l0 12.56l-15.34 0Z" id="p245w631" />
<path d="M462.11 769.7l11.94 0l0 12.23l-11.94 0Z" id="p245w632" />
<path d="M476.75 769.64l26.1 0l0 12.29l-26.1 0Z" id="p245w633" />
<path d="M508.71 768.59l23.37 0l0 13.77l-23.37 0Z" id="p245w634" />
<path d="M537.94 769.7l14.41 0l0 12.23l-14.41 0Z" id="p245w635" />
<path d="M555.05 769.7l36.02 0l0 12.23l-36.02 0Z" id="p245w636" />
<path d="M593.77 769.45l18.92 0l0 12.56l-18.92 0Z" id="p245w637" />
<path d="M462.11 784.98l11.94 0l0 12.23l-11.94 0Z" id="p245w638" />
<path d="M476.75 784.92l25.92 0l0 12.29l-25.92 0Z" id="p245w639" />
<path d="M508.53 783.88l22.02 0l0 13.77l-22.02 0Z" id="p245w640" />
<path d="M536.41 784.98l14.41 0l0 12.23l-14.41 0Z" id="p245w641" />
<path d="M553.51 784.98l22.93 0l0 12.23l-22.93 0Z" id="p245w642" />
<path d="M579.14 784.98l14.41 0l0 12.23l-14.41 0Z" id="p245w643" />
<path d="M596.25 784.98l47.05 0l0 12.23l-47.05 0Z" id="p245w644" />
<path d="M471.96 800.02l15.54 0l0 12.56l-15.54 0Z" id="p245w645" />
<path d="M471.96 815.55l11.94 0l0 12.23l-11.94 0Z" id="p245w646" />
<path d="M486.6 815.55l25.82 0l0 12.23l-25.82 0Z" id="p245w647" />
<path d="M515.12 815.55l63.03 0l0 12.23l-63.03 0Z" id="p245w648" />
<path d="M475.12 829.73l75.35 0l0 13.77l-75.35 0Z" id="p245w649" />
<path d="M556.32 830.83l14.41 0l0 12.23l-14.41 0Z" id="p245w650" />
<path d="M471.96 846.11l114.76 0l0 12.23l-114.76 0Z" id="p245w651" />
<path d="M589.43 846.09l50.89 0l0 12.23l-50.89 0Z" id="p245w652" />
<path d="M471.96 861.37l15.08 0l0 12.23l-15.08 0Z" id="p245w653" />
<path d="M489.75 861.37l23.41 0l0 12.23l-23.41 0Z" id="p245w654" />
<path d="M515.86 861.37l15.31 0l0 12.23l-15.31 0Z" id="p245w655" />
<path d="M548.82 861.15l17.81 0l0 12.56l-17.81 0Z" id="p245w656" />
<path d="M462.12 876.68l11.94 0l0 12.23l-11.94 0Z" id="p245w657" />
<path d="M476.75 876.62l26.55 0l0 12.29l-26.55 0Z" id="p245w658" />
<path d="M509.17 875.58l24.25 0l0 13.77l-24.25 0Z" id="p245w659" />
<path d="M539.28 876.68l20.03 0l0 12.23l-20.03 0Z" id="p245w660" />
<path d="M562.01 876.68l26.77 0l0 12.23l-26.77 0Z" id="p245w661" />
<path d="M591.47 876.68l14.41 0l0 12.23l-14.41 0Z" id="p245w662" />
<path d="M608.58 876.68l27.47 0l0 12.23l-27.47 0Z" id="p245w663" />
<path d="M471.96 891.72l14.63 0l0 12.56l-14.63 0Z" id="p245w664" />
<path d="M462.12 907.25l17.56 0l0 12.23l-17.56 0Z" id="p245w665" />
<path d="M482.38 907.19l18.32 0l0 12.29l-18.32 0Z" id="p245w666" />
<path d="M506.55 906.15l29.62 0l0 13.77l-29.62 0Z" id="p245w667" />
<path d="M542.03 907.25l14.41 0l0 12.23l-14.41 0Z" id="p245w668" />
<path d="M559.14 907.25l19.13 0l0 12.23l-19.13 0Z" id="p245w669" />
<path d="M580.97 907l15.34 0l0 12.56l-15.34 0Z" id="p245w670" />
</svg>
