<?xml version="1.0" encoding="UTF-8"?>
<svg xmlns="http://www.w3.org/2000/svg" xmlns:xlink="http://www.w3.org/1999/xlink" version="1.1" baseProfile="full" width="768" height="1024" viewBox="0,0,768,1024" preserveAspectRatio="xMinYMin meet" >
<style type="text/css">
<![CDATA[
path {fill-opacity: 0.5;fill: #00aeef;visibility: hidden;}
]]>
</style>
<path d="M591.9 982.27l97.34 0l0 12.23l-97.34 0Z" id="p179w1" />
<path d="M572.94 38.6l71 0l0 16.09l-71 0Z" id="p179w2" />
<path d="M59.08 107.26l18.36 0l0 18.84l-18.36 0Z" id="p179w3" />
<path d="M81.09 107.26l67.8 0l0 18.84l-67.8 0Z" id="p179w4" />
<path d="M152.53 107.26l19.04 0l0 18.84l-19.04 0Z" id="p179w5" />
<path d="M175.22 107.26l25.46 0l0 18.84l-25.46 0Z" id="p179w6" />
<path d="M204.34 107.26l32.61 0l0 18.84l-32.61 0Z" id="p179w7" />
<path d="M240.05 107.26l75.07 0l0 18.84l-75.07 0Z" id="p179w8" />
<path d="M59.08 138.47l18.18 0l0 14.52l-18.18 0Z" id="p179w9" />
<path d="M80.46 138.4l27.28 0l0 14.6l-27.28 0Z" id="p179w10" />
<path d="M110.95 138.4l35.52 0l0 14.6l-35.52 0Z" id="p179w11" />
<path d="M149.68 138.47l19.51 0l0 14.52l-19.51 0Z" id="p179w12" />
<path d="M171.96 138.47l60.69 0l0 14.52l-60.69 0Z" id="p179w13" />
<path d="M235.86 138.47l27.47 0l0 14.52l-27.47 0Z" id="p179w14" />
<path d="M266.53 138.47l17.11 0l0 14.52l-17.11 0Z" id="p179w15" />
<path d="M286.84 138.47l34.75 0l0 14.52l-34.75 0Z" id="p179w16" />
<path d="M324.81 138.47l61.73 0l0 14.52l-61.73 0Z" id="p179w17" />
<path d="M389.75 138.47l10.43 0l0 14.52l-10.43 0Z" id="p179w18" />
<path d="M403.38 138.47l18.44 0l0 14.52l-18.44 0Z" id="p179w19" />
<path d="M425.03 138.47l66.59 0l0 14.52l-66.59 0Z" id="p179w20" />
<path d="M494.83 138.47l27.26 0l0 14.52l-27.26 0Z" id="p179w21" />
<path d="M59.08 155.14l58.79 0l0 14.52l-58.79 0Z" id="p179w22" />
<path d="M121.07 155.14l14.16 0l0 14.52l-14.16 0Z" id="p179w23" />
<path d="M138.44 155.14l28.09 0l0 14.52l-28.09 0Z" id="p179w24" />
<path d="M169.74 155.14l21.4 0l0 14.52l-21.4 0Z" id="p179w25" />
<path d="M194.34 155.14l22.12 0l0 14.52l-22.12 0Z" id="p179w26" />
<path d="M219.67 155.14l51.04 0l0 14.52l-51.04 0Z" id="p179w27" />
<path d="M273.92 155.14l17.38 0l0 14.52l-17.38 0Z" id="p179w28" />
<path d="M294.51 155.14l66.56 0l0 14.52l-66.56 0Z" id="p179w29" />
<path d="M364.28 155.15l46.94 0l0 14.61l-46.94 0Z" id="p179w30" />
<path d="M414.43 155.15l55.81 0l0 14.61l-55.81 0Z" id="p179w31" />
<path d="M473.18 155.15l38.66 0l0 14.61l-38.66 0Z" id="p179w32" />
<path d="M515.05 155.15l23.26 0l0 14.61l-23.26 0Z" id="p179w33" />
<path d="M59.08 171.82l54.21 0l0 14.61l-54.21 0Z" id="p179w34" />
<path d="M59.08 196.82l10.97 0l0 14.52l-10.97 0Z" id="p179w35" />
<path d="M73.25 196.82l18.44 0l0 14.52l-18.44 0Z" id="p179w36" />
<path d="M94.9 196.75l52.07 0l0 14.6l-52.07 0Z" id="p179w37" />
<path d="M150.18 196.75l35.52 0l0 14.6l-35.52 0Z" id="p179w38" />
<path d="M188.91 196.82l28.59 0l0 14.52l-28.59 0Z" id="p179w39" />
<path d="M220.7 196.82l17.11 0l0 14.52l-17.11 0Z" id="p179w40" />
<path d="M241.02 196.82l50.79 0l0 14.52l-50.79 0Z" id="p179w41" />
<path d="M295.02 196.82l61.43 0l0 14.52l-61.43 0Z" id="p179w42" />
<path d="M359.65 196.82l19.51 0l0 14.52l-19.51 0Z" id="p179w43" />
<path d="M382.37 196.82l34.75 0l0 14.52l-34.75 0Z" id="p179w44" />
<path d="M420.07 196.82l39.02 0l0 14.52l-39.02 0Z" id="p179w45" />
<path d="M462.29 196.82l24.97 0l0 14.52l-24.97 0Z" id="p179w46" />
<path d="M490.47 196.82l66.04 0l0 14.52l-66.04 0Z" id="p179w47" />
<path d="M59.08 221.83l18.18 0l0 14.52l-18.18 0Z" id="p179w48" />
<path d="M80.46 221.77l35.28 0l0 14.6l-35.28 0Z" id="p179w49" />
<path d="M118.95 221.77l35.52 0l0 14.6l-35.52 0Z" id="p179w50" />
<path d="M157.68 221.83l22.45 0l0 14.52l-22.45 0Z" id="p179w51" />
<path d="M183.34 221.83l14.97 0l0 14.52l-14.97 0Z" id="p179w52" />
<path d="M201.51 221.83l28.06 0l0 14.52l-28.06 0Z" id="p179w53" />
<path d="M232.78 221.83l38.49 0l0 14.52l-38.49 0Z" id="p179w54" />
<path d="M274.48 221.83l18.44 0l0 14.52l-18.44 0Z" id="p179w55" />
<path d="M295.69 221.83l53.48 0l0 14.52l-53.48 0Z" id="p179w56" />
<path d="M352.38 221.83l16.84 0l0 14.52l-16.84 0Z" id="p179w57" />
<path d="M372.43 221.83l27.47 0l0 14.52l-27.47 0Z" id="p179w58" />
<path d="M403.1 221.83l14.97 0l0 14.52l-14.97 0Z" id="p179w59" />
<path d="M445.13 221.83l10.43 0l0 14.52l-10.43 0Z" id="p179w60" />
<path d="M458.77 221.77l48.12 0l0 14.6l-48.12 0ZM59.08 238.44l36.71 0l0 14.6l-36.71 0Z" id="p179w61" />
<path d="M98.99 238.5l46.25 0l0 14.52l-46.25 0Z" id="p179w62" />
<path d="M148.01 238.5l84.15 0l0 14.52l-84.15 0Z" id="p179w63" />
<path d="M235.37 238.5l19.51 0l0 14.52l-19.51 0Z" id="p179w64" />
<path d="M258.08 238.5l34.75 0l0 14.52l-34.75 0Z" id="p179w65" />
<path d="M295.78 238.5l39.02 0l0 14.52l-39.02 0Z" id="p179w66" />
<path d="M338 238.5l25.4 0l0 14.52l-25.4 0Z" id="p179w67" />
<path d="M366.61 238.5l29.92 0l0 14.52l-29.92 0Z" id="p179w68" />
<path d="M399.74 238.5l17.91 0l0 14.52l-17.91 0Z" id="p179w69" />
<path d="M420.86 238.5l17.11 0l0 14.52l-17.11 0Z" id="p179w70" />
<path d="M441.17 238.44l63.15 0l0 14.6l-63.15 0Z" id="p179w71" />
<path d="M59.08 255.11l12.78 0l0 14.6l-12.78 0Z" id="p179w72" />
<path d="M75.06 255.11l52.04 0l0 14.6l-52.04 0Z" id="p179w73" />
<path d="M130.31 255.11l20.88 0l0 14.6l-20.88 0Z" id="p179w74" />
<path d="M154.23 255.11l17.21 0l0 14.6l-17.21 0Z" id="p179w75" />
<path d="M174.65 255.11l14.28 0l0 14.6l-14.28 0Z" id="p179w76" />
<path d="M192.14 255.11l38.89 0l0 14.6l-38.89 0Z" id="p179w77" />
<path d="M234.23 255.11l40.22 0l0 14.6l-40.22 0Z" id="p179w78" />
<path d="M277.66 255.11l24.34 0l0 14.6l-24.34 0Z" id="p179w79" />
<path d="M307.88 255.17l58 0l0 14.52l-58 0Z" id="p179w80" />
<path d="M369.09 255.17l7.48 0l0 14.52l-7.48 0Z" id="p179w81" />
<path d="M376.57 255.17l31.27 0l0 14.52l-31.27 0Z" id="p179w82" />
<path d="M411.05 255.17l14.18 0l0 14.52l-14.18 0Z" id="p179w83" />
<path d="M428.43 255.17l23.26 0l0 14.52l-23.26 0Z" id="p179w84" />
<path d="M454.9 255.17l42.21 0l0 14.52l-42.21 0Z" id="p179w85" />
<path d="M59.08 271.85l50.8 0l0 14.52l-50.8 0Z" id="p179w86" />
<path d="M112.73 271.85l29.41 0l0 14.52l-29.41 0Z" id="p179w87" />
<path d="M145.35 271.85l21.4 0l0 14.52l-21.4 0Z" id="p179w88" />
<path d="M169.95 271.85l51.04 0l0 14.52l-51.04 0Z" id="p179w89" />
<path d="M248.33 271.85l17.91 0l0 14.52l-17.91 0Z" id="p179w90" />
<path d="M269.45 271.78l58.02 0l0 14.6l-58.02 0Z" id="p179w91" />
<path d="M333.36 271.78l57.68 0l0 14.6l-57.68 0Z" id="p179w92" />
<path d="M394.25 271.85l25.4 0l0 14.52l-25.4 0Z" id="p179w93" />
<path d="M422.59 271.85l38.21 0l0 14.52l-38.21 0Z" id="p179w94" />
<path d="M464.01 271.85l18.44 0l0 14.52l-18.44 0Z" id="p179w95" />
<path d="M485.65 271.85l47.25 0l0 14.52l-47.25 0Z" id="p179w96" />
<path d="M59.08 288.45l66.05 0l0 14.6l-66.05 0Z" id="p179w97" />
<path d="M59.08 321.86l14.7 0l0 14.52l-14.7 0Z" id="p179w98" />
<path d="M76.99 321.86l55.07 0l0 14.52l-55.07 0Z" id="p179w99" />
<path d="M135.26 321.86l13.9 0l0 14.52l-13.9 0Z" id="p179w100" />
<path d="M152.37 321.86l17.11 0l0 14.52l-17.11 0Z" id="p179w101" />
<path d="M172.25 321.86l84.74 0l0 14.52l-84.74 0Z" id="p179w102" />
<path d="M260.19 321.86l7.48 0l0 14.52l-7.48 0Z" id="p179w103" />
<path d="M267.68 321.86l31.27 0l0 14.52l-31.27 0Z" id="p179w104" />
<path d="M302.16 321.86l14.18 0l0 14.52l-14.18 0Z" id="p179w105" />
<path d="M319.54 321.79l31.02 0l0 14.6l-31.02 0Z" id="p179w106" />
<path d="M353.76 321.79l38.59 0l0 14.6l-38.59 0Z" id="p179w107" />
<path d="M398.25 321.86l10.43 0l0 14.52l-10.43 0Z" id="p179w108" />
<path d="M411.88 321.86l35.02 0l0 14.52l-35.02 0Z" id="p179w109" />
<path d="M450.11 321.86l18.44 0l0 14.52l-18.44 0Z" id="p179w110" />
<path d="M471.49 321.86l62.55 0l0 14.52l-62.55 0Z" id="p179w111" />
<path d="M59.08 338.53l62.54 0l0 14.52l-62.54 0Z" id="p179w112" />
<path d="M124.82 338.53l101.49 0l0 14.52l-101.49 0Z" id="p179w113" />
<path d="M229.52 338.53l16.04 0l0 14.52l-16.04 0Z" id="p179w114" />
<path d="M59.08 371.8l25.49 0l0 14.6l-25.49 0Z" id="p179w115" />
<path d="M87.77 371.8l22.95 0l0 14.6l-22.95 0Z" id="p179w116" />
<path d="M113.93 371.8l55.65 0l0 14.6l-55.65 0Z" id="p179w117" />
<path d="M59.08 388.54l22.98 0l0 14.52l-22.98 0Z" id="p179w118" />
<path d="M85.26 388.54l41.96 0l0 14.52l-41.96 0Z" id="p179w119" />
<path d="M130.43 388.54l10.43 0l0 14.52l-10.43 0Z" id="p179w120" />
<path d="M144.07 388.47l35.65 0l0 14.6l-35.65 0Z" id="p179w121" />
<path d="M182.93 388.47l36.68 0l0 14.6l-36.68 0Z" id="p179w122" />
<path d="M222.55 388.54l38.21 0l0 14.52l-38.21 0Z" id="p179w123" />
<path d="M263.97 388.54l62.21 0l0 14.52l-62.21 0Z" id="p179w124" />
<path d="M329.39 388.54l17.11 0l0 14.52l-17.11 0Z" id="p179w125" />
<path d="M349.7 388.54l15.77 0l0 14.52l-15.77 0Z" id="p179w126" />
<path d="M368.68 388.54l23.53 0l0 14.52l-23.53 0Z" id="p179w127" />
<path d="M395.42 388.47l57.79 0l0 14.6l-57.79 0Z" id="p179w128" />
<path d="M456.42 388.47l40.8 0l0 14.6l-40.8 0Z" id="p179w129" />
<path d="M59.08 405.21l22.72 0l0 14.52l-22.72 0Z" id="p179w130" />
<path d="M85 405.21l45.99 0l0 14.52l-45.99 0Z" id="p179w131" />
<path d="M134.19 405.21l21.4 0l0 14.52l-21.4 0Z" id="p179w132" />
<path d="M158.8 405.21l17.11 0l0 14.52l-17.11 0Z" id="p179w133" />
<path d="M179.11 405.21l21.12 0l0 14.52l-21.12 0Z" id="p179w134" />
<path d="M203.17 405.21l65.23 0l0 14.52l-65.23 0Z" id="p179w135" />
<path d="M271.61 405.21l18.44 0l0 14.52l-18.44 0Z" id="p179w136" />
<path d="M293.26 405.21l10.43 0l0 14.52l-10.43 0Z" id="p179w137" />
<path d="M306.89 405.21l18.44 0l0 14.52l-18.44 0Z" id="p179w138" />
<path d="M328.54 405.21l40.9 0l0 14.52l-40.9 0Z" id="p179w139" />
<path d="M372.65 405.21l55.04 0l0 14.52l-55.04 0Z" id="p179w140" />
<path d="M430.9 405.21l27.27 0l0 14.52l-27.27 0Z" id="p179w141" />
<path d="M461.38 405.21l27.28 0l0 14.52l-27.28 0Z" id="p179w142" />
<path d="M59.08 421.88l37.95 0l0 14.52l-37.95 0Z" id="p179w143" />
<path d="M100.23 421.88l56.41 0l0 14.52l-56.41 0Z" id="p179w144" />
<path d="M159.85 421.88l15.25 0l0 14.52l-15.25 0Z" id="p179w145" />
<path d="M178.31 421.88l37.42 0l0 14.52l-37.42 0Z" id="p179w146" />
<path d="M218.93 421.88l12.57 0l0 14.52l-12.57 0Z" id="p179w147" />
<path d="M234.71 421.88l24.33 0l0 14.52l-24.33 0Z" id="p179w148" />
<path d="M262.24 421.82l70.21 0l0 14.6l-70.21 0Z" id="p179w149" />
<path d="M335.39 421.82l65.85 0l0 14.6l-65.85 0Z" id="p179w150" />
<path d="M404.45 421.88l44.84 0l0 14.52l-44.84 0Z" id="p179w151" />
<path d="M452.5 421.88l21.4 0l0 14.52l-21.4 0Z" id="p179w152" />
<path d="M477.1 421.88l23.26 0l0 14.52l-23.26 0Z" id="p179w153" />
<path d="M59.08 438.55l29.39 0l0 14.52l-29.39 0Z" id="p179w154" />
<path d="M91.68 438.55l57.75 0l0 14.52l-57.75 0Z" id="p179w155" />
<path d="M152.63 438.55l66.56 0l0 14.52l-66.56 0Z" id="p179w156" />
<path d="M222.41 438.49l16.95 0l0 14.6l-16.95 0Z" id="p179w157" />
<path d="M242.56 438.49l36.84 0l0 14.6l-36.84 0Z" id="p179w158" />
<path d="M282.61 438.49l27.94 0l0 14.6l-27.94 0Z" id="p179w159" />
<path d="M313.76 438.49l23.77 0l0 14.6l-23.77 0Z" id="p179w160" />
<path d="M340.74 438.49l89.33 0l0 14.6l-89.33 0Z" id="p179w161" />
<path d="M433.11 438.55l38.21 0l0 14.52l-38.21 0Z" id="p179w162" />
<path d="M474.53 438.55l10.43 0l0 14.52l-10.43 0Z" id="p179w163" />
<path d="M59.08 455.22l56.57 0l0 14.52l-56.57 0Z" id="p179w164" />
<path d="M118.86 455.22l36.63 0l0 14.52l-36.63 0Z" id="p179w165" />
<path d="M158.69 455.22l37.42 0l0 14.52l-37.42 0Z" id="p179w166" />
<path d="M199.32 455.22l14.18 0l0 14.52l-14.18 0Z" id="p179w167" />
<path d="M216.7 455.22l41.16 0l0 14.52l-41.16 0Z" id="p179w168" />
<path d="M59.08 480.24l10.97 0l0 14.52l-10.97 0Z" id="p179w169" />
<path d="M73.25 480.24l24.85 0l0 14.52l-24.85 0Z" id="p179w170" />
<path d="M101.31 480.17l66.06 0l0 14.61l-66.06 0Z" id="p179w171" />
<path d="M170.58 480.24l37.42 0l0 14.52l-37.42 0Z" id="p179w172" />
<path d="M211.21 480.24l14.18 0l0 14.52l-14.18 0Z" id="p179w173" />
<path d="M228.6 480.24l19.77 0l0 14.52l-19.77 0Z" id="p179w174" />
<path d="M251.58 480.24l76.73 0l0 14.52l-76.73 0Z" id="p179w175" />
<path d="M331.25 480.24l38.21 0l0 14.52l-38.21 0Z" id="p179w176" />
<path d="M372.67 480.24l79.34 0l0 14.52l-79.34 0Z" id="p179w177" />
<path d="M455.21 480.24l16.84 0l0 14.52l-16.84 0Z" id="p179w178" />
<path d="M475.26 480.24l23.26 0l0 14.52l-23.26 0Z" id="p179w179" />
<path d="M501.73 480.24l23.26 0l0 14.52l-23.26 0Z" id="p179w180" />
<path d="M59.08 496.91l71.37 0l0 14.52l-71.37 0Z" id="p179w181" />
<path d="M133.65 496.91l62.21 0l0 14.52l-62.21 0Z" id="p179w182" />
<path d="M199.07 496.91l24.33 0l0 14.52l-24.33 0Z" id="p179w183" />
<path d="M226.6 496.91l7.48 0l0 14.52l-7.48 0Z" id="p179w184" />
<path d="M234.09 496.91l31.27 0l0 14.52l-31.27 0Z" id="p179w185" />
<path d="M268.56 496.91l14.18 0l0 14.52l-14.18 0Z" id="p179w186" />
<path d="M285.95 496.91l26.74 0l0 14.52l-26.74 0Z" id="p179w187" />
<path d="M315.9 496.91l19.77 0l0 14.52l-19.77 0Z" id="p179w188" />
<path d="M338.88 496.91l42.77 0l0 14.52l-42.77 0Z" id="p179w189" />
<path d="M384.85 496.91l17.11 0l0 14.52l-17.11 0Z" id="p179w190" />
<path d="M405.16 496.91l14.16 0l0 14.52l-14.16 0Z" id="p179w191" />
<path d="M422.53 496.91l28.09 0l0 14.52l-28.09 0Z" id="p179w192" />
<path d="M453.83 496.91l65.77 0l0 14.52l-65.77 0Z" id="p179w193" />
<path d="M59.08 513.58l38.21 0l0 14.52l-38.21 0Z" id="p179w194" />
<path d="M100.5 513.58l18.7 0l0 14.52l-18.7 0Z" id="p179w195" />
<path d="M122.41 513.58l28.33 0l0 14.52l-28.33 0Z" id="p179w196" />
<path d="M153.94 513.58l37.17 0l0 14.52l-37.17 0Z" id="p179w197" />
<path d="M194.32 513.58l68.11 0l0 14.52l-68.11 0Z" id="p179w198" />
<path d="M59.08 538.59l20.58 0l0 14.52l-20.58 0Z" id="p179w199" />
<path d="M82.86 538.52l117.65 0l0 14.6l-117.65 0Z" id="p179w200" />
<path d="M203.45 538.52l65.85 0l0 14.6l-65.85 0Z" id="p179w201" />
<path d="M272.51 538.59l27.53 0l0 14.52l-27.53 0Z" id="p179w202" />
<path d="M303.25 538.59l17.11 0l0 14.52l-17.11 0Z" id="p179w203" />
<path d="M323.56 538.59l65.15 0l0 14.52l-65.15 0Z" id="p179w204" />
<path d="M391.92 538.59l61.73 0l0 14.52l-61.73 0Z" id="p179w205" />
<path d="M456.86 538.59l10.43 0l0 14.52l-10.43 0Z" id="p179w206" />
<path d="M470.5 538.59l82.59 0l0 14.52l-82.59 0Z" id="p179w207" />
<path d="M59.08 555.26l66.59 0l0 14.52l-66.59 0Z" id="p179w208" />
<path d="M128.87 555.26l19.8 0l0 14.52l-19.8 0Z" id="p179w209" />
<path d="M151.88 555.26l12.57 0l0 14.52l-12.57 0Z" id="p179w210" />
<path d="M167.65 555.26l27.27 0l0 14.52l-27.27 0Z" id="p179w211" />
<path d="M198.13 555.26l14.97 0l0 14.52l-14.97 0Z" id="p179w212" />
<path d="M216.31 555.26l28.06 0l0 14.52l-28.06 0Z" id="p179w213" />
<path d="M247.14 555.26l53.99 0l0 14.52l-53.99 0Z" id="p179w214" />
<path d="M304.33 555.26l42.16 0l0 14.52l-42.16 0Z" id="p179w215" />
<path d="M349.7 555.26l74.05 0l0 14.52l-74.05 0Z" id="p179w216" />
<path d="M426.6 555.26l29.14 0l0 14.52l-29.14 0Z" id="p179w217" />
<path d="M458.95 555.26l45.45 0l0 14.52l-45.45 0Z" id="p179w218" />
<path d="M507.6 555.26l25.4 0l0 14.52l-25.4 0Z" id="p179w219" />
<path d="M78.52 582.68l31.07 0l0 11.53l-31.07 0Z" id="p179w220" />
<path d="M115.01 580.3l15.25 0l0 14.52l-15.25 0Z" id="p179w221" />
<path d="M133.14 580.3l37.42 0l0 14.52l-37.42 0Z" id="p179w222" />
<path d="M173.45 580.3l19.77 0l0 14.52l-19.77 0Z" id="p179w223" />
<path d="M196.11 580.3l61.73 0l0 14.52l-61.73 0Z" id="p179w224" />
<path d="M260.72 580.3l14.16 0l0 14.52l-14.16 0Z" id="p179w225" />
<path d="M277.77 580.3l45.17 0l0 14.52l-45.17 0Z" id="p179w226" />
<path d="M325.83 580.3l49.19 0l0 14.52l-49.19 0Z" id="p179w227" />
<path d="M59.08 624.12l63.92 0l0 18.84l-63.92 0Z" id="p179w228" />
<path d="M126.65 624.12l28.56 0l0 18.84l-28.56 0Z" id="p179w229" />
<path d="M158.86 624.12l99.2 0l0 18.84l-99.2 0Z" id="p179w230" />
<path d="M104.37 656.76l51.32 0l0 14.52l-51.32 0Z" id="p179w231" />
<path d="M180.46 656.76l13.9 0l0 14.52l-13.9 0Z" id="p179w232" />
<path d="M197.57 656.76l33.35 0l0 14.52l-33.35 0Z" id="p179w233" />
<path d="M364.3 656.76l49.99 0l0 14.52l-49.99 0Z" id="p179w234" />
<path d="M104.37 682.62l13.9 0l0 14.52l-13.9 0Z" id="p179w235" />
<path d="M121.48 682.62l19.51 0l0 14.52l-19.51 0Z" id="p179w236" />
<path d="M144.19 682.62l53.66 0l0 14.52l-53.66 0Z" id="p179w237" />
<path d="M201.05 682.62l20.33 0l0 14.52l-20.33 0Z" id="p179w238" />
<path d="M364.3 682.62l42.77 0l0 14.52l-42.77 0Z" id="p179w239" />
<path d="M104.37 708.22l63.88 0l0 14.52l-63.88 0Z" id="p179w240" />
<path d="M320.98 708.21l12.57 0l0 14.52l-12.57 0Z" id="p179w241" />
<path d="M364.3 708.22l31.28 0l0 14.52l-31.28 0Z" id="p179w242" />
<path d="M104.37 733.81l63.04 0l0 14.52l-63.04 0Z" id="p179w243" />
<path d="M320.98 733.8l14.97 0l0 14.52l-14.97 0Z" id="p179w244" />
<path d="M364.3 733.81l45.92 0l0 14.52l-45.92 0Z" id="p179w245" />
<path d="M104.37 759.42l64.94 0l0 14.52l-64.94 0Z" id="p179w246" />
<path d="M320.98 759.42l13.11 0l0 14.52l-13.11 0Z" id="p179w247" />
<path d="M364.3 759.43l44.92 0l0 14.52l-44.92 0Z" id="p179w248" />
<path d="M412.43 759.43l32.35 0l0 14.52l-32.35 0Z" id="p179w249" />
<path d="M447.99 759.41l41.45 0l0 14.52l-41.45 0Z" id="p179w250" />
<path d="M104.37 785.02l46.46 0l0 14.52l-46.46 0Z" id="p179w251" />
<path d="M320.98 785.02l14.44 0l0 14.52l-14.44 0Z" id="p179w252" />
<path d="M364.3 785.03l54.82 0l0 14.52l-54.82 0Z" id="p179w253" />
<path d="M422.33 785.01l50.26 0l0 14.52l-50.26 0Z" id="p179w254" />
<path d="M104.37 810.62l45.18 0l0 14.52l-45.18 0Z" id="p179w255" />
<path d="M320.98 810.62l12.84 0l0 14.52l-12.84 0Z" id="p179w256" />
<path d="M364.3 810.62l41.7 0l0 14.52l-41.7 0Z" id="p179w257" />
<path d="M104.37 836.22l64.7 0l0 14.52l-64.7 0Z" id="p179w258" />
<path d="M320.98 836.22l20.06 0l0 14.52l-20.06 0Z" id="p179w259" />
<path d="M364.3 836.22l55.6 0l0 14.52l-55.6 0Z" id="p179w260" />
<path d="M104.37 861.82l34.48 0l0 14.52l-34.48 0Z" id="p179w261" />
<path d="M320.98 861.82l23.8 0l0 14.52l-23.8 0Z" id="p179w262" />
<path d="M364.3 861.82l59.33 0l0 14.52l-59.33 0Z" id="p179w263" />
<path d="M104.37 887.42l57.21 0l0 14.52l-57.21 0Z" id="p179w264" />
<path d="M320.98 887.42l23.09 0l0 14.52l-23.09 0Z" id="p179w265" />
<path d="M364.3 887.42l33.3 0l0 14.52l-33.3 0Z" id="p179w266" />
</svg>
