<?xml version="1.0" encoding="UTF-8"?>
<svg xmlns="http://www.w3.org/2000/svg" xmlns:xlink="http://www.w3.org/1999/xlink" version="1.1" baseProfile="full" width="768" height="1024" viewBox="0,0,768,1024" preserveAspectRatio="xMinYMin meet" >
<style type="text/css">
<![CDATA[
path {fill-opacity: 0.5;fill: #00aeef;visibility: hidden;}
]]>
</style>
<path d="M76.9 983.66l129.39 0l0 12.23l-129.39 0Z" id="p246w1" />
<path d="M124.06 38.6l81.82 0l0 16.09l-81.82 0Z" id="p246w2" />
<path d="M124.06 112.51l17.56 0l0 12.23l-17.56 0Z" id="p246w3" />
<path d="M144.32 112.45l33.1 0l0 12.29l-33.1 0Z" id="p246w4" />
<path d="M183.28 111.41l36.09 0l0 13.77l-36.09 0Z" id="p246w5" />
<path d="M225.23 112.51l20.03 0l0 12.23l-20.03 0Z" id="p246w6" />
<path d="M247.96 112.51l52.62 0l0 12.23l-52.62 0Z" id="p246w7" />
<path d="M133.91 127.79l20.03 0l0 12.23l-20.03 0Z" id="p246w8" />
<path d="M156.64 127.79l33.77 0l0 12.23l-33.77 0Z" id="p246w9" />
<path d="M193.11 127.55l15.54 0l0 12.56l-15.54 0Z" id="p246w10" />
<path d="M124.06 143.08l22.05 0l0 12.23l-22.05 0Z" id="p246w11" />
<path d="M148.82 143.08l8.33 0l0 12.23l-8.33 0Z" id="p246w12" />
<path d="M159.84 143.02l27.9 0l0 12.29l-27.9 0Z" id="p246w13" />
<path d="M195.85 141.97l38.74 0l0 13.77l-38.74 0Z" id="p246w14" />
<path d="M240.45 143.08l14.19 0l0 12.23l-14.19 0Z" id="p246w15" />
<path d="M257.34 143.08l23.41 0l0 12.23l-23.41 0Z" id="p246w16" />
<path d="M133.91 158.36l30.83 0l0 12.23l-30.83 0Z" id="p246w17" />
<path d="M167.44 158.11l19.58 0l0 12.56l-19.58 0Z" id="p246w18" />
<path d="M124.06 173.59l43.56 0l0 12.29l-43.56 0Z" id="p246w19" />
<path d="M171.79 173.59l49.18 0l0 12.29l-49.18 0Z" id="p246w20" />
<path d="M226.83 172.54l61.83 0l0 13.77l-61.83 0Z" id="p246w21" />
<path d="M133.91 188.93l36.17 0l0 12.23l-36.17 0Z" id="p246w22" />
<path d="M172.78 188.68l18.72 0l0 12.56l-18.72 0Z" id="p246w23" />
<path d="M124.06 204.15l37.42 0l0 12.29l-37.42 0Z" id="p246w24" />
<path d="M164.19 204.21l12.16 0l0 12.23l-12.16 0Z" id="p246w25" />
<path d="M182.21 203.11l27.5 0l0 13.77l-27.5 0Z" id="p246w26" />
<path d="M215.56 204.21l16.9 0l0 12.23l-16.9 0Z" id="p246w27" />
<path d="M235.16 204.21l39.15 0l0 12.23l-39.15 0Z" id="p246w28" />
<path d="M277.01 203.96l15.54 0l0 12.56l-15.54 0Z" id="p246w29" />
<path d="M124.06 219.49l11.94 0l0 12.23l-11.94 0Z" id="p246w30" />
<path d="M138.7 219.44l29.47 0l0 12.29l-29.47 0Z" id="p246w31" />
<path d="M174.02 218.39l32.22 0l0 13.77l-32.22 0Z" id="p246w32" />
<path d="M212.11 219.49l14.41 0l0 12.23l-14.41 0Z" id="p246w33" />
<path d="M229.21 219.49l30.18 0l0 12.23l-30.18 0Z" id="p246w34" />
<path d="M262.09 219.25l18.92 0l0 12.56l-18.92 0Z" id="p246w35" />
<path d="M124.06 234.78l11.94 0l0 12.23l-11.94 0Z" id="p246w36" />
<path d="M138.7 234.72l22.29 0l0 12.29l-22.29 0Z" id="p246w37" />
<path d="M166.84 233.68l18.25 0l0 13.77l-18.25 0Z" id="p246w38" />
<path d="M190.95 234.78l14.41 0l0 12.23l-14.41 0Z" id="p246w39" />
<path d="M208.06 234.78l15.08 0l0 12.23l-15.08 0Z" id="p246w40" />
<path d="M225.84 234.53l15.34 0l0 12.56l-15.34 0Z" id="p246w41" />
<path d="M133.91 250.06l13.14 0l0 12.23l-13.14 0Z" id="p246w42" />
<path d="M149.75 250.06l21.16 0l0 12.23l-21.16 0Z" id="p246w43" />
<path d="M173.61 250.06l21.83 0l0 12.23l-21.83 0Z" id="p246w44" />
<path d="M206.47 250.06l20.04 0l0 12.23l-20.04 0Z" id="p246w45" />
<path d="M232.37 248.96l64.48 0l0 13.77l-64.48 0Z" id="p246w46" />
<path d="M133.91 265.34l14.19 0l0 12.23l-14.19 0Z" id="p246w47" />
<path d="M150.8 265.34l23.41 0l0 12.23l-23.41 0Z" id="p246w48" />
<path d="M176.91 265.34l35.34 0l0 12.23l-35.34 0Z" id="p246w49" />
<path d="M214.95 265.34l37.76 0l0 12.23l-37.76 0Z" id="p246w50" />
<path d="M255.41 265.34l17.34 0l0 12.23l-17.34 0Z" id="p246w51" />
<path d="M275.45 265.1l15.34 0l0 12.56l-15.34 0Z" id="p246w52" />
<path d="M124.06 280.63l8.33 0l0 12.23l-8.33 0Z" id="p246w53" />
<path d="M135.09 280.57l30.49 0l0 12.29l-30.49 0Z" id="p246w54" />
<path d="M171.43 279.53l31.57 0l0 13.77l-31.57 0Z" id="p246w55" />
<path d="M208.86 280.63l15.53 0l0 12.23l-15.53 0Z" id="p246w56" />
<path d="M227.09 280.63l27.87 0l0 12.23l-27.87 0Z" id="p246w57" />
<path d="M257.66 280.38l15.34 0l0 12.56l-15.34 0Z" id="p246w58" />
<path d="M124.06 295.91l8.33 0l0 12.23l-8.33 0Z" id="p246w59" />
<path d="M135.09 295.85l24.86 0l0 12.29l-24.86 0Z" id="p246w60" />
<path d="M165.81 294.81l28.23 0l0 13.77l-28.23 0Z" id="p246w61" />
<path d="M199.9 295.91l15.53 0l0 12.23l-15.53 0Z" id="p246w62" />
<path d="M218.13 295.91l31.07 0l0 12.23l-31.07 0Z" id="p246w63" />
<path d="M251.9 295.66l15.54 0l0 12.56l-15.54 0Z" id="p246w64" />
<path d="M124.06 311.19l8.33 0l0 12.23l-8.33 0Z" id="p246w65" />
<path d="M135.09 311.14l16.86 0l0 12.29l-16.86 0Z" id="p246w66" />
<path d="M157.81 310.09l23.26 0l0 13.77l-23.26 0Z" id="p246w67" />
<path d="M186.93 311.19l15.53 0l0 12.23l-15.53 0Z" id="p246w68" />
<path d="M205.16 311.19l29.5 0l0 12.23l-29.5 0Z" id="p246w69" />
<path d="M237.36 310.95l17.26 0l0 12.56l-17.26 0Z" id="p246w70" />
<path d="M133.91 326.48l11.48 0l0 12.23l-11.48 0Z" id="p246w71" />
<path d="M148.09 326.48l16.66 0l0 12.23l-16.66 0Z" id="p246w72" />
<path d="M167.46 326.48l11.7 0l0 12.23l-11.7 0Z" id="p246w73" />
<path d="M185.02 325.38l32.23 0l0 13.77l-32.23 0Z" id="p246w74" />
<path d="M223.11 326.48l33.1 0l0 12.23l-33.1 0Z" id="p246w75" />
<path d="M258.91 326.48l17.12 0l0 12.23l-17.12 0Z" id="p246w76" />
<path d="M278.73 326.23l17.26 0l0 12.56l-17.26 0Z" id="p246w77" />
<path d="M124.06 341.7l28.91 0l0 12.29l-28.91 0Z" id="p246w78" />
<path d="M158.83 340.66l17.3 0l0 13.77l-17.3 0Z" id="p246w79" />
<path d="M181.98 341.76l65.28 0l0 12.23l-65.28 0Z" id="p246w80" />
<path d="M249.96 341.52l15.54 0l0 12.56l-15.54 0Z" id="p246w81" />
<path d="M124.06 357.04l8.33 0l0 12.23l-8.33 0Z" id="p246w82" />
<path d="M135.09 356.99l23.19 0l0 12.29l-23.19 0Z" id="p246w83" />
<path d="M164.13 355.94l24.79 0l0 13.77l-24.79 0Z" id="p246w84" />
<path d="M194.78 357.04l14.41 0l0 12.23l-14.41 0Z" id="p246w85" />
<path d="M211.88 357.04l55.78 0l0 12.23l-55.78 0Z" id="p246w86" />
<path d="M270.36 356.8l19.58 0l0 12.56l-19.58 0Z" id="p246w87" />
<path d="M124.06 372.27l28.11 0l0 12.29l-28.11 0Z" id="p246w88" />
<path d="M154.87 372.33l27.37 0l0 12.23l-27.37 0Z" id="p246w89" />
<path d="M188.1 371.23l23.51 0l0 13.77l-23.51 0Z" id="p246w90" />
<path d="M217.46 372.33l23.63 0l0 12.23l-23.63 0Z" id="p246w91" />
<path d="M243.79 372.33l56.01 0l0 12.23l-56.01 0Z" id="p246w92" />
<path d="M133.91 387.61l40.04 0l0 12.23l-40.04 0Z" id="p246w93" />
<path d="M176.65 387.61l29.71 0l0 12.23l-29.71 0Z" id="p246w94" />
<path d="M209.06 387.61l24.09 0l0 12.23l-24.09 0Z" id="p246w95" />
<path d="M235.85 387.61l47.47 0l0 12.23l-47.47 0Z" id="p246w96" />
<path d="M133.91 402.89l43.65 0l0 12.23l-43.65 0Z" id="p246w97" />
<path d="M180.26 402.89l29.89 0l0 12.23l-29.89 0Z" id="p246w98" />
<path d="M212.85 402.65l18.72 0l0 12.56l-18.72 0Z" id="p246w99" />
<path d="M124.06 418.18l11.94 0l0 12.23l-11.94 0Z" id="p246w100" />
<path d="M138.7 418.12l23.19 0l0 12.29l-23.19 0Z" id="p246w101" />
<path d="M167.74 417.08l23.31 0l0 13.77l-23.31 0Z" id="p246w102" />
<path d="M196.91 418.18l14.41 0l0 12.23l-14.41 0Z" id="p246w103" />
<path d="M213.72 418.18l31.73 0l0 12.23l-31.73 0Z" id="p246w104" />
<path d="M248.15 417.93l18.92 0l0 12.56l-18.92 0Z" id="p246w105" />
<path d="M124.06 433.4l26.39 0l0 12.29l-26.39 0Z" id="p246w106" />
<path d="M153.15 433.44l21.86 0l0 12.23l-21.86 0Z" id="p246w107" />
<path d="M180.87 432.36l25.42 0l0 13.77l-25.42 0Z" id="p246w108" />
<path d="M212.15 433.46l28.19 0l0 12.23l-28.19 0Z" id="p246w109" />
<path d="M243.04 433.46l15.08 0l0 12.23l-15.08 0Z" id="p246w110" />
<path d="M260.82 433.22l13.88 0l0 12.56l-13.88 0Z" id="p246w111" />
<path d="M124.06 448.74l11.94 0l0 12.23l-11.94 0Z" id="p246w112" />
<path d="M138.7 448.69l61.42 0l0 12.29l-61.42 0Z" id="p246w113" />
<path d="M205.98 447.64l58.82 0l0 13.77l-58.82 0Z" id="p246w114" />
<path d="M270.66 448.74l14.41 0l0 12.23l-14.41 0Z" id="p246w115" />
<path d="M133.91 464.03l54.92 0l0 12.23l-54.92 0Z" id="p246w116" />
<path d="M191.53 463.78l15.54 0l0 12.56l-15.54 0Z" id="p246w117" />
<path d="M124.06 479.25l14.71 0l0 12.29l-14.71 0Z" id="p246w118" />
<path d="M142.94 479.25l20.25 0l0 12.29l-20.25 0Z" id="p246w119" />
<path d="M169.04 478.21l32.22 0l0 13.77l-32.22 0Z" id="p246w120" />
<path d="M207.13 479.31l27.91 0l0 12.23l-27.91 0Z" id="p246w121" />
<path d="M237.74 479.07l15.54 0l0 12.56l-15.54 0Z" id="p246w122" />
<path d="M124.06 494.54l14.71 0l0 12.29l-14.71 0Z" id="p246w123" />
<path d="M144.62 493.49l14.74 0l0 13.77l-14.74 0Z" id="p246w124" />
<path d="M165.22 494.59l17.23 0l0 12.23l-17.23 0Z" id="p246w125" />
<path d="M185.15 494.59l21.39 0l0 12.23l-21.39 0Z" id="p246w126" />
<path d="M209.24 494.35l15.54 0l0 12.56l-15.54 0Z" id="p246w127" />
<path d="M124.06 509.82l45.16 0l0 12.29l-45.16 0Z" id="p246w128" />
<path d="M175.08 508.78l30.02 0l0 13.77l-30.02 0Z" id="p246w129" />
<path d="M210.96 509.88l27.91 0l0 12.23l-27.91 0Z" id="p246w130" />
<path d="M241.57 509.85l25.88 0l0 12.23l-25.88 0Z" id="p246w131" />
<path d="M133.91 525.16l44.35 0l0 12.23l-44.35 0Z" id="p246w132" />
<path d="M180.96 524.92l18.92 0l0 12.56l-18.92 0Z" id="p246w133" />
<path d="M124.06 540.44l17.56 0l0 12.23l-17.56 0Z" id="p246w134" />
<path d="M144.32 540.39l37.94 0l0 12.29l-37.94 0Z" id="p246w135" />
<path d="M188.12 539.34l45.62 0l0 13.77l-45.62 0Z" id="p246w136" />
<path d="M239.59 540.44l20.03 0l0 12.23l-20.03 0Z" id="p246w137" />
<path d="M133.91 555.73l65.46 0l0 12.23l-65.46 0Z" id="p246w138" />
<path d="M202.07 555.48l14.79 0l0 12.56l-14.79 0Z" id="p246w139" />
<path d="M133.91 571.01l21.37 0l0 12.23l-21.37 0Z" id="p246w140" />
<path d="M157.99 571.01l17.56 0l0 12.23l-17.56 0Z" id="p246w141" />
<path d="M178.25 571.01l37.36 0l0 12.23l-37.36 0Z" id="p246w142" />
<path d="M226.63 571.01l12.16 0l0 12.23l-12.16 0Z" id="p246w143" />
<path d="M137.07 585.19l59.13 0l0 13.77l-59.13 0Z" id="p246w144" />
<path d="M202.06 586.29l16.9 0l0 12.23l-16.9 0Z" id="p246w145" />
<path d="M221.65 586.29l58.08 0l0 12.23l-58.08 0Z" id="p246w146" />
<path d="M133.91 601.33l18.92 0l0 12.56l-18.92 0Z" id="p246w147" />
<path d="M124.06 616.81l34.41 0l0 12.29l-34.41 0Z" id="p246w148" />
<path d="M164.33 615.76l24.19 0l0 13.77l-24.19 0Z" id="p246w149" />
<path d="M194.38 616.86l14.86 0l0 12.23l-14.86 0Z" id="p246w150" />
<path d="M211.94 616.86l25.88 0l0 12.23l-25.88 0Z" id="p246w151" />
<path d="M240.52 616.62l18.92 0l0 12.56l-18.92 0Z" id="p246w152" />
<path d="M124.06 632.14l11.94 0l0 12.23l-11.94 0Z" id="p246w153" />
<path d="M138.7 632.09l49.47 0l0 12.29l-49.47 0Z" id="p246w154" />
<path d="M188.17 632.14l21.73 0l0 12.23l-21.73 0Z" id="p246w155" />
<path d="M212.61 632.09l55.1 0l0 12.29l-55.1 0Z" id="p246w156" />
<path d="M137.07 646.33l88.65 0l0 13.77l-88.65 0Z" id="p246w157" />
<path d="M231.58 647.43l20.03 0l0 12.23l-20.03 0Z" id="p246w158" />
<path d="M133.91 662.71l75.18 0l0 12.23l-75.18 0Z" id="p246w159" />
<path d="M211.79 662.47l14.63 0l0 12.56l-14.63 0Z" id="p246w160" />
<path d="M124.06 677.94l43.34 0l0 12.29l-43.34 0Z" id="p246w161" />
<path d="M170.1 677.99l27.37 0l0 12.23l-27.37 0Z" id="p246w162" />
<path d="M203.32 676.89l32.51 0l0 13.77l-32.51 0Z" id="p246w163" />
<path d="M241.69 677.99l40.5 0l0 12.23l-40.5 0Z" id="p246w164" />
<path d="M133.91 693.28l58 0l0 12.23l-58 0Z" id="p246w165" />
<path d="M194.61 693.03l18.92 0l0 12.56l-18.92 0Z" id="p246w166" />
<path d="M124.06 708.56l11.94 0l0 12.23l-11.94 0Z" id="p246w167" />
<path d="M138.7 708.51l35.88 0l0 12.29l-35.88 0Z" id="p246w168" />
<path d="M174.58 708.56l21.73 0l0 12.23l-21.73 0Z" id="p246w169" />
<path d="M199.01 708.51l41.5 0l0 12.29l-41.5 0Z" id="p246w170" />
<path d="M246.37 707.46l31.43 0l0 13.77l-31.43 0Z" id="p246w171" />
<path d="M133.91 722.74l44.51 0l0 13.77l-44.51 0Z" id="p246w172" />
<path d="M184.27 723.84l14.41 0l0 12.23l-14.41 0Z" id="p246w173" />
<path d="M201.01 723.84l83.8 0l0 12.23l-83.8 0Z" id="p246w174" />
<path d="M133.91 739.13l55.78 0l0 12.23l-55.78 0Z" id="p246w175" />
<path d="M192.39 738.88l19.58 0l0 12.56l-19.58 0Z" id="p246w176" />
<path d="M124.06 754.41l8.33 0l0 12.23l-8.33 0Z" id="p246w177" />
<path d="M135.09 754.36l43.86 0l0 12.29l-43.86 0Z" id="p246w178" />
<path d="M184.81 753.31l42.35 0l0 13.77l-42.35 0Z" id="p246w179" />
<path d="M233.01 754.41l14.41 0l0 12.23l-14.41 0Z" id="p246w180" />
<path d="M133.91 769.7l47.68 0l0 12.23l-47.68 0Z" id="p246w181" />
<path d="M184.29 769.45l18.92 0l0 12.56l-18.92 0Z" id="p246w182" />
<path d="M124.06 784.98l13.05 0l0 12.23l-13.05 0Z" id="p246w183" />
<path d="M139.81 784.92l17.24 0l0 12.29l-17.24 0Z" id="p246w184" />
<path d="M173.03 784.96l14.18 0l0 12.23l-14.18 0Z" id="p246w185" />
<path d="M201.62 784.96l38.26 0l0 12.23l-38.26 0Z" id="p246w186" />
<path d="M242.58 784.96l11.48 0l0 12.23l-11.48 0Z" id="p246w187" />
<path d="M133.91 800.24l8.34 0l0 12.23l-8.34 0Z" id="p246w188" />
<path d="M144.95 800.24l12.63 0l0 12.23l-12.63 0Z" id="p246w189" />
<path d="M160.27 800.24l9.23 0l0 12.23l-9.23 0Z" id="p246w190" />
<path d="M172.2 800.24l11.48 0l0 12.23l-11.48 0Z" id="p246w191" />
<path d="M186.38 800.24l8.34 0l0 12.23l-8.34 0Z" id="p246w192" />
<path d="M197.42 800.24l25.8 0l0 12.23l-25.8 0Z" id="p246w193" />
<path d="M229.08 799.16l35.4 0l0 13.77l-35.4 0Z" id="p246w194" />
<path d="M133.91 814.45l90.02 0l0 13.77l-90.02 0Z" id="p246w195" />
<path d="M229.79 815.55l40.67 0l0 12.23l-40.67 0Z" id="p246w196" />
<path d="M133.91 830.83l55.15 0l0 12.23l-55.15 0Z" id="p246w197" />
<path d="M191.76 830.58l15.54 0l0 12.56l-15.54 0Z" id="p246w198" />
<path d="M124.06 846.11l11.94 0l0 12.23l-11.94 0Z" id="p246w199" />
<path d="M138.7 846.06l39.53 0l0 12.29l-39.53 0Z" id="p246w200" />
<path d="M184.08 845.01l27.37 0l0 13.77l-27.37 0Z" id="p246w201" />
<path d="M217.31 846.11l14.41 0l0 12.23l-14.41 0Z" id="p246w202" />
<path d="M234.41 846.11l34.68 0l0 12.23l-34.68 0Z" id="p246w203" />
<path d="M271.79 845.87l18.01 0l0 12.56l-18.01 0Z" id="p246w204" />
<path d="M124.06 861.34l30.86 0l0 12.29l-30.86 0Z" id="p246w205" />
<path d="M157.62 861.37l27.91 0l0 12.23l-27.91 0Z" id="p246w206" />
<path d="M191.39 860.3l19.96 0l0 13.77l-19.96 0Z" id="p246w207" />
<path d="M217.21 861.4l19.35 0l0 12.23l-19.35 0Z" id="p246w208" />
<path d="M239.26 861.15l14.79 0l0 12.56l-14.79 0Z" id="p246w209" />
<path d="M124.06 876.68l11.94 0l0 12.23l-11.94 0Z" id="p246w210" />
<path d="M138.7 876.62l39.05 0l0 12.29l-39.05 0Z" id="p246w211" />
<path d="M183.61 875.58l33.21 0l0 13.77l-33.21 0Z" id="p246w212" />
<path d="M222.68 876.68l20.03 0l0 12.23l-20.03 0Z" id="p246w213" />
<path d="M133.91 891.96l66.81 0l0 12.23l-66.81 0Z" id="p246w214" />
<path d="M203.42 891.96l14.41 0l0 12.23l-14.41 0Z" id="p246w215" />
<path d="M220.16 891.96l38.95 0l0 12.23l-38.95 0Z" id="p246w216" />
<path d="M261.81 891.72l18.01 0l0 12.56l-18.01 0Z" id="p246w217" />
<path d="M325.58 127.79l17.56 0l0 12.23l-17.56 0Z" id="p246w218" />
<path d="M345.84 127.74l24.1 0l0 12.29l-24.1 0Z" id="p246w219" />
<path d="M375.8 126.69l28.69 0l0 13.77l-28.69 0Z" id="p246w220" />
<path d="M410.34 127.79l14.41 0l0 12.23l-14.41 0Z" id="p246w221" />
<path d="M427.15 127.79l23.64 0l0 12.23l-23.64 0Z" id="p246w222" />
<path d="M453.49 127.55l19.58 0l0 12.56l-19.58 0Z" id="p246w223" />
<path d="M343.75 143.08l23.85 0l0 12.23l-23.85 0Z" id="p246w224" />
<path d="M373.46 141.97l22.37 0l0 13.77l-22.37 0Z" id="p246w225" />
<path d="M401.7 143.08l14.41 0l0 12.23l-14.41 0Z" id="p246w226" />
<path d="M418.5 143.08l23.64 0l0 12.23l-23.64 0Z" id="p246w227" />
<path d="M444.85 142.83l15.54 0l0 12.56l-15.54 0Z" id="p246w228" />
<path d="M335.43 158.36l31.95 0l0 12.23l-31.95 0Z" id="p246w229" />
<path d="M370.07 158.36l8.33 0l0 12.23l-8.33 0Z" id="p246w230" />
<path d="M381.1 158.36l23.85 0l0 12.23l-23.85 0Z" id="p246w231" />
<path d="M410.81 157.26l48.34 0l0 13.77l-48.34 0Z" id="p246w232" />
<path d="M465.01 158.36l17.78 0l0 12.23l-17.78 0Z" id="p246w233" />
<path d="M335.43 173.64l23.64 0l0 12.23l-23.64 0Z" id="p246w234" />
<path d="M361.77 173.64l33.55 0l0 12.23l-33.55 0Z" id="p246w235" />
<path d="M398.02 173.4l18.72 0l0 12.56l-18.72 0Z" id="p246w236" />
<path d="M325.58 188.93l11.94 0l0 12.23l-11.94 0Z" id="p246w237" />
<path d="M340.22 188.87l35.7 0l0 12.29l-35.7 0Z" id="p246w238" />
<path d="M375.92 188.93l20.6 0l0 12.23l-20.6 0Z" id="p246w239" />
<path d="M399.22 188.87l40.96 0l0 12.29l-40.96 0Z" id="p246w240" />
<path d="M446.04 187.83l30.62 0l0 13.77l-30.62 0Z" id="p246w241" />
<path d="M335.43 203.11l34.17 0l0 13.77l-34.17 0Z" id="p246w242" />
<path d="M375.45 204.21l20.03 0l0 12.23l-20.03 0Z" id="p246w243" />
<path d="M397.88 204.21l53.93 0l0 12.23l-53.93 0Z" id="p246w244" />
<path d="M454.52 203.96l18.92 0l0 12.56l-18.92 0Z" id="p246w245" />
<path d="M325.58 219.49l17.56 0l0 12.23l-17.56 0Z" id="p246w246" />
<path d="M345.84 219.44l37.54 0l0 12.29l-37.54 0Z" id="p246w247" />
<path d="M386.08 219.49l11.7 0l0 12.23l-11.7 0Z" id="p246w248" />
<path d="M400.48 219.49l39.86 0l0 12.23l-39.86 0Z" id="p246w249" />
<path d="M338.58 233.68l74.83 0l0 13.77l-74.83 0Z" id="p246w250" />
<path d="M419.27 234.78l20.03 0l0 12.23l-20.03 0Z" id="p246w251" />
<path d="M441.7 234.78l21.84 0l0 12.23l-21.84 0Z" id="p246w252" />
<path d="M335.43 250.06l53.82 0l0 12.23l-53.82 0Z" id="p246w253" />
<path d="M391.95 249.81l15.54 0l0 12.56l-15.54 0Z" id="p246w254" />
<path d="M325.58 265.34l17.56 0l0 12.23l-17.56 0Z" id="p246w255" />
<path d="M345.84 265.29l23.64 0l0 12.29l-23.64 0Z" id="p246w256" />
<path d="M375.34 264.24l22.64 0l0 13.77l-22.64 0Z" id="p246w257" />
<path d="M403.84 265.34l20.03 0l0 12.23l-20.03 0Z" id="p246w258" />
<path d="M426.57 265.34l69.57 0l0 12.23l-69.57 0Z" id="p246w259" />
<path d="M335.43 280.38l15.34 0l0 12.56l-15.34 0Z" id="p246w260" />
<path d="M335.43 295.91l11.7 0l0 12.23l-11.7 0Z" id="p246w261" />
<path d="M349.83 295.91l34.39 0l0 12.23l-34.39 0Z" id="p246w262" />
<path d="M390.08 294.81l17.14 0l0 13.77l-17.14 0Z" id="p246w263" />
<path d="M413.08 295.91l8.78 0l0 12.23l-8.78 0Z" id="p246w264" />
<path d="M424.56 295.91l39.58 0l0 12.23l-39.58 0Z" id="p246w265" />
<path d="M466.84 295.66l15.34 0l0 12.56l-15.34 0Z" id="p246w266" />
<path d="M325.58 311.19l19.82 0l0 12.23l-19.82 0Z" id="p246w267" />
<path d="M348.1 311.19l13.5 0l0 12.23l-13.5 0Z" id="p246w268" />
<path d="M373.32 310.09l18.44 0l0 13.77l-18.44 0Z" id="p246w269" />
<path d="M397.62 311.19l23.86 0l0 12.23l-23.86 0Z" id="p246w270" />
<path d="M424.18 311.19l23.41 0l0 12.23l-23.41 0Z" id="p246w271" />
<path d="M450.29 311.19l23.64 0l0 12.23l-23.64 0Z" id="p246w272" />
<path d="M476.64 310.95l18.92 0l0 12.56l-18.92 0Z" id="p246w273" />
<path d="M325.58 326.42l25.16 0l0 12.29l-25.16 0Z" id="p246w274" />
<path d="M353.45 326.48l11.04 0l0 12.23l-11.04 0Z" id="p246w275" />
<path d="M370.34 325.38l19.74 0l0 13.77l-19.74 0Z" id="p246w276" />
<path d="M395.94 326.48l19.44 0l0 12.23l-19.44 0Z" id="p246w277" />
<path d="M418.08 326.48l30.39 0l0 12.23l-30.39 0Z" id="p246w278" />
<path d="M451.17 326.23l15.34 0l0 12.56l-15.34 0Z" id="p246w279" />
<path d="M325.58 341.7l19.46 0l0 12.29l-19.46 0Z" id="p246w280" />
<path d="M350.9 340.66l13.99 0l0 13.77l-13.99 0Z" id="p246w281" />
<path d="M370.75 341.76l20.25 0l0 12.23l-20.25 0Z" id="p246w282" />
<path d="M393.7 341.52l15.54 0l0 12.56l-15.54 0Z" id="p246w283" />
<path d="M335.43 357.04l19.36 0l0 12.23l-19.36 0Z" id="p246w284" />
<path d="M357.49 357.04l19.13 0l0 12.23l-19.13 0Z" id="p246w285" />
<path d="M382.48 355.94l28.14 0l0 13.77l-28.14 0Z" id="p246w286" />
<path d="M416.48 357.04l29.7 0l0 12.23l-29.7 0Z" id="p246w287" />
<path d="M448.88 356.8l14.79 0l0 12.56l-14.79 0Z" id="p246w288" />
<path d="M325.58 372.33l17.56 0l0 12.23l-17.56 0Z" id="p246w289" />
<path d="M345.84 372.27l23.05 0l0 12.29l-23.05 0Z" id="p246w290" />
<path d="M374.75 371.23l28.94 0l0 13.77l-28.94 0Z" id="p246w291" />
<path d="M409.55 372.33l14.41 0l0 12.23l-14.41 0Z" id="p246w292" />
<path d="M426.66 372.33l34.68 0l0 12.23l-34.68 0Z" id="p246w293" />
<path d="M464.04 372.08l14.79 0l0 12.56l-14.79 0Z" id="p246w294" />
<path d="M335.43 387.61l17.56 0l0 12.23l-17.56 0Z" id="p246w295" />
<path d="M355.69 387.61l22.72 0l0 12.23l-22.72 0Z" id="p246w296" />
<path d="M381.11 387.61l11.48 0l0 12.23l-11.48 0Z" id="p246w297" />
<path d="M395.29 387.61l39.86 0l0 12.23l-39.86 0Z" id="p246w298" />
<path d="M441.01 386.51l61.77 0l0 13.77l-61.77 0Z" id="p246w299" />
<path d="M335.43 402.89l14.41 0l0 12.23l-14.41 0Z" id="p246w300" />
<path d="M352.53 402.89l93.68 0l0 12.23l-93.68 0Z" id="p246w301" />
<path d="M448.91 402.65l14.79 0l0 12.56l-14.79 0Z" id="p246w302" />
<path d="M335.43 418.18l17.56 0l0 12.23l-17.56 0Z" id="p246w303" />
<path d="M355.69 418.18l22.72 0l0 12.23l-22.72 0Z" id="p246w304" />
<path d="M381.11 418.18l6.3 0l0 12.23l-6.3 0Z" id="p246w305" />
<path d="M387.41 418.18l32.18 0l0 12.23l-32.18 0Z" id="p246w306" />
<path d="M425.45 417.08l52.48 0l0 13.77l-52.48 0Z" id="p246w307" />
<path d="M483.79 418.18l14.41 0l0 12.23l-14.41 0Z" id="p246w308" />
<path d="M335.43 433.46l65.74 0l0 12.23l-65.74 0Z" id="p246w309" />
<path d="M403.86 433.22l17.26 0l0 12.56l-17.26 0Z" id="p246w310" />
<path d="M325.58 448.74l17.56 0l0 12.23l-17.56 0Z" id="p246w311" />
<path d="M345.84 448.69l24.88 0l0 12.29l-24.88 0Z" id="p246w312" />
<path d="M376.58 447.64l24.07 0l0 13.77l-24.07 0Z" id="p246w313" />
<path d="M406.51 448.74l20.03 0l0 12.23l-20.03 0Z" id="p246w314" />
<path d="M428.94 448.74l24.99 0l0 12.23l-24.99 0Z" id="p246w315" />
<path d="M456.63 448.5l18.72 0l0 12.56l-18.72 0Z" id="p246w316" />
<path d="M325.58 464.03l8.33 0l0 12.23l-8.33 0Z" id="p246w317" />
<path d="M336.61 463.97l32.19 0l0 12.29l-32.19 0Z" id="p246w318" />
<path d="M374.65 462.93l34.18 0l0 13.77l-34.18 0Z" id="p246w319" />
<path d="M414.39 464.03l33.11 0l0 12.23l-33.11 0Z" id="p246w320" />
<path d="M450.2 463.78l15.34 0l0 12.56l-15.34 0Z" id="p246w321" />
<path d="M325.58 479.31l13.05 0l0 12.23l-13.05 0Z" id="p246w322" />
<path d="M341.33 479.31l44.35 0l0 12.23l-44.35 0Z" id="p246w323" />
<path d="M388.38 479.25l60 0l0 12.29l-60 0Z" id="p246w324" />
<path d="M338.58 493.49l74.01 0l0 13.77l-74.01 0Z" id="p246w325" />
<path d="M418.45 494.59l14.41 0l0 12.23l-14.41 0Z" id="p246w326" />
<path d="M435.55 494.59l29.27 0l0 12.23l-29.27 0Z" id="p246w327" />
<path d="M467.52 494.59l35.34 0l0 12.23l-35.34 0Z" id="p246w328" />
<path d="M335.43 509.63l18.92 0l0 12.56l-18.92 0Z" id="p246w329" />
<path d="M325.58 525.16l8.33 0l0 12.23l-8.33 0Z" id="p246w330" />
<path d="M336.6 525.11l18.01 0l0 12.29l-18.01 0Z" id="p246w331" />
<path d="M357.31 525.14l27.91 0l0 12.23l-27.91 0Z" id="p246w332" />
<path d="M391.08 524.06l24.58 0l0 13.77l-24.58 0Z" id="p246w333" />
<path d="M421.51 525.16l16.43 0l0 12.23l-16.43 0Z" id="p246w334" />
<path d="M440.64 525.16l51.29 0l0 12.23l-51.29 0Z" id="p246w335" />
<path d="M335.43 540.44l15.53 0l0 12.23l-15.53 0Z" id="p246w336" />
<path d="M353.65 540.44l73.59 0l0 12.23l-73.59 0Z" id="p246w337" />
<path d="M429.95 540.2l14.63 0l0 12.56l-14.63 0Z" id="p246w338" />
<path d="M335.43 555.73l40.23 0l0 12.23l-40.23 0Z" id="p246w339" />
<path d="M378.35 555.73l8.33 0l0 12.23l-8.33 0Z" id="p246w340" />
<path d="M389.38 555.73l17.77 0l0 12.23l-17.77 0Z" id="p246w341" />
<path d="M413.01 554.63l60.77 0l0 13.77l-60.77 0Z" id="p246w342" />
<path d="M335.43 571.01l47.26 0l0 12.23l-47.26 0Z" id="p246w343" />
<path d="M385.39 570.77l14.63 0l0 12.56l-14.63 0Z" id="p246w344" />
<path d="M325.58 586.29l8.33 0l0 12.23l-8.33 0Z" id="p246w345" />
<path d="M336.6 586.24l74.57 0l0 12.29l-74.57 0Z" id="p246w346" />
<path d="M417.03 585.19l63 0l0 13.77l-63 0Z" id="p246w347" />
<path d="M485.89 586.29l16.43 0l0 12.23l-16.43 0Z" id="p246w348" />
<path d="M335.43 601.58l70.41 0l0 12.23l-70.41 0Z" id="p246w349" />
<path d="M408.54 601.58l15.53 0l0 12.23l-15.53 0Z" id="p246w350" />
<path d="M426.77 601.58l47.51 0l0 12.23l-47.51 0Z" id="p246w351" />
<path d="M476.98 601.33l14.43 0l0 12.56l-14.43 0Z" id="p246w352" />
<path d="M325.58 616.81l53.56 0l0 12.29l-53.56 0Z" id="p246w353" />
<path d="M381.84 616.86l11.04 0l0 12.23l-11.04 0Z" id="p246w354" />
<path d="M398.74 615.76l39.58 0l0 13.77l-39.58 0Z" id="p246w355" />
<path d="M444.18 616.86l19.44 0l0 12.23l-19.44 0Z" id="p246w356" />
<path d="M335.43 632.14l66.85 0l0 12.23l-66.85 0Z" id="p246w357" />
<path d="M404.97 631.9l14.43 0l0 12.56l-14.43 0Z" id="p246w358" />
<path d="M325.58 647.43l11.94 0l0 12.23l-11.94 0Z" id="p246w359" />
<path d="M340.22 647.37l47.7 0l0 12.29l-47.7 0Z" id="p246w360" />
<path d="M393.77 646.33l35.76 0l0 13.77l-35.76 0Z" id="p246w361" />
<path d="M435.38 647.43l14.41 0l0 12.23l-14.41 0Z" id="p246w362" />
<path d="M452.19 647.43l34 0l0 12.23l-34 0Z" id="p246w363" />
<path d="M335.43 662.47l14.79 0l0 12.56l-14.79 0Z" id="p246w364" />
<path d="M325.58 677.99l10.35 0l0 12.23l-10.35 0Z" id="p246w365" />
<path d="M338.63 677.94l51.6 0l0 12.29l-51.6 0Z" id="p246w366" />
<path d="M396.08 676.89l45.45 0l0 13.77l-45.45 0Z" id="p246w367" />
<path d="M447.39 677.99l57.39 0l0 12.23l-57.39 0Z" id="p246w368" />
<path d="M335.43 693.28l57.17 0l0 12.23l-57.17 0Z" id="p246w369" />
<path d="M395.29 693.03l15.54 0l0 12.56l-15.54 0Z" id="p246w370" />
<path d="M325.58 708.56l17.56 0l0 12.23l-17.56 0Z" id="p246w371" />
<path d="M345.84 708.56l31.07 0l0 12.23l-31.07 0Z" id="p246w372" />
<path d="M379.61 708.56l11.7 0l0 12.23l-11.7 0Z" id="p246w373" />
<path d="M394.01 708.51l45.44 0l0 12.29l-45.44 0Z" id="p246w374" />
<path d="M338.58 722.74l74.13 0l0 13.77l-74.13 0Z" id="p246w375" />
<path d="M418.57 723.84l14.41 0l0 12.23l-14.41 0Z" id="p246w376" />
<path d="M435.67 723.84l69.09 0l0 12.23l-69.09 0Z" id="p246w377" />
<path d="M335.43 738.88l17.26 0l0 12.56l-17.26 0Z" id="p246w378" />
<path d="M325.58 754.36l45.73 0l0 12.29l-45.73 0Z" id="p246w379" />
<path d="M377.16 753.31l26.5 0l0 13.77l-26.5 0Z" id="p246w380" />
<path d="M409.52 754.41l10.58 0l0 12.23l-10.58 0Z" id="p246w381" />
<path d="M422.8 754.41l27.45 0l0 12.23l-27.45 0Z" id="p246w382" />
<path d="M452.96 754.17l18.72 0l0 12.56l-18.72 0Z" id="p246w383" />
<path d="M325.58 769.64l48.97 0l0 12.29l-48.97 0Z" id="p246w384" />
<path d="M380.41 768.59l41.23 0l0 13.77l-41.23 0Z" id="p246w385" />
<path d="M427.49 769.7l44.28 0l0 12.23l-44.28 0Z" id="p246w386" />
<path d="M474.48 769.67l16.66 0l0 12.23l-16.66 0Z" id="p246w387" />
<path d="M335.43 784.96l31.97 0l0 12.23l-31.97 0Z" id="p246w388" />
<path d="M372.54 784.98l44.79 0l0 12.23l-44.79 0Z" id="p246w389" />
<path d="M420.03 784.73l18.01 0l0 12.56l-18.01 0Z" id="p246w390" />
<path d="M325.58 800.26l11.94 0l0 12.23l-11.94 0Z" id="p246w391" />
<path d="M340.22 800.21l33.57 0l0 12.29l-33.57 0Z" id="p246w392" />
<path d="M379.64 799.16l34.46 0l0 13.77l-34.46 0Z" id="p246w393" />
<path d="M419.96 800.26l14.41 0l0 12.23l-14.41 0Z" id="p246w394" />
<path d="M437.06 800.26l52.95 0l0 12.23l-52.95 0Z" id="p246w395" />
<path d="M335.43 815.55l31.91 0l0 12.23l-31.91 0Z" id="p246w396" />
<path d="M370.04 815.3l19.58 0l0 12.56l-19.58 0Z" id="p246w397" />
<path d="M325.58 830.83l8.33 0l0 12.23l-8.33 0Z" id="p246w398" />
<path d="M336.6 830.77l59.41 0l0 12.29l-59.41 0Z" id="p246w399" />
<path d="M401.87 829.73l53.53 0l0 13.77l-53.53 0Z" id="p246w400" />
<path d="M461.26 830.83l14.41 0l0 12.23l-14.41 0Z" id="p246w401" />
<path d="M335.43 846.11l53.8 0l0 12.23l-53.8 0Z" id="p246w402" />
<path d="M391.92 845.87l15.54 0l0 12.56l-15.54 0Z" id="p246w403" />
<path d="M335.43 861.4l5.86 0l0 12.23l-5.86 0Z" id="p246w404" />
<path d="M343.98 861.4l15.75 0l0 12.23l-15.75 0Z" id="p246w405" />
<path d="M362.44 861.4l28.59 0l0 12.23l-28.59 0Z" id="p246w406" />
<path d="M393.72 861.4l58.73 0l0 12.23l-58.73 0Z" id="p246w407" />
<path d="M338.58 875.58l72.87 0l0 13.77l-72.87 0Z" id="p246w408" />
<path d="M417.09 876.68l33.76 0l0 12.23l-33.76 0Z" id="p246w409" />
<path d="M453.55 876.68l22.29 0l0 12.23l-22.29 0Z" id="p246w410" />
<path d="M478.53 876.68l19.58 0l0 12.23l-19.58 0Z" id="p246w411" />
<path d="M335.43 891.96l14.63 0l0 12.23l-14.63 0Z" id="p246w412" />
<path d="M352.75 891.72l15.54 0l0 12.56l-15.54 0Z" id="p246w413" />
<path d="M325.58 907.25l8.33 0l0 12.23l-8.33 0Z" id="p246w414" />
<path d="M336.6 907.19l29.72 0l0 12.29l-29.72 0Z" id="p246w415" />
<path d="M372.18 906.15l17.58 0l0 13.77l-17.58 0Z" id="p246w416" />
<path d="M395.63 907.25l14.41 0l0 12.23l-14.41 0Z" id="p246w417" />
<path d="M412.73 907.25l17.77 0l0 12.23l-17.77 0Z" id="p246w418" />
<path d="M433.21 907l15.54 0l0 12.56l-15.54 0Z" id="p246w419" />
<path d="M464.25 907.25l16.43 0l0 12.23l-16.43 0Z" id="p246w420" />
<path d="M335.43 922.53l31.72 0l0 12.23l-31.72 0Z" id="p246w421" />
<path d="M369.85 922.28l15.54 0l0 12.56l-15.54 0Z" id="p246w422" />
<path d="M536.94 112.51l8.33 0l0 12.23l-8.33 0Z" id="p246w423" />
<path d="M547.97 112.51l29.48 0l0 12.23l-29.48 0Z" id="p246w424" />
<path d="M580.15 112.51l20.93 0l0 12.23l-20.93 0Z" id="p246w425" />
<path d="M606.94 111.41l34.76 0l0 13.77l-34.76 0Z" id="p246w426" />
<path d="M647.55 112.51l14.41 0l0 12.23l-14.41 0Z" id="p246w427" />
<path d="M664.66 112.51l34.43 0l0 12.23l-34.43 0Z" id="p246w428" />
<path d="M536.94 127.55l17.26 0l0 12.56l-17.26 0Z" id="p246w429" />
<path d="M536.94 143.08l23.19 0l0 12.23l-23.19 0Z" id="p246w430" />
<path d="M562.83 143.08l8.33 0l0 12.23l-8.33 0Z" id="p246w431" />
<path d="M573.86 143.08l29.48 0l0 12.23l-29.48 0Z" id="p246w432" />
<path d="M609.19 141.97l45.69 0l0 13.77l-45.69 0Z" id="p246w433" />
<path d="M660.75 143.08l17.77 0l0 12.23l-17.77 0Z" id="p246w434" />
<path d="M536.94 158.36l29.49 0l0 12.23l-29.49 0Z" id="p246w435" />
<path d="M569.13 158.11l15.54 0l0 12.56l-15.54 0Z" id="p246w436" />
<path d="M536.94 173.64l11.7 0l0 12.23l-11.7 0Z" id="p246w437" />
<path d="M551.35 173.64l29.7 0l0 12.23l-29.7 0Z" id="p246w438" />
<path d="M583.75 173.64l29.48 0l0 12.23l-29.48 0Z" id="p246w439" />
<path d="M619.09 172.54l38.77 0l0 13.77l-38.77 0Z" id="p246w440" />
<path d="M536.94 188.93l53.92 0l0 12.23l-53.92 0Z" id="p246w441" />
<path d="M593.57 188.68l18.92 0l0 12.56l-18.92 0Z" id="p246w442" />
<path d="M536.94 204.21l5.86 0l0 12.23l-5.86 0Z" id="p246w443" />
<path d="M545.5 204.21l15.75 0l0 12.23l-15.75 0Z" id="p246w444" />
<path d="M563.95 204.21l20.26 0l0 12.23l-20.26 0Z" id="p246w445" />
<path d="M586.92 204.21l29.48 0l0 12.23l-29.48 0Z" id="p246w446" />
<path d="M629.23 203.11l36.95 0l0 13.77l-36.95 0Z" id="p246w447" />
<path d="M671.82 204.21l17.55 0l0 12.23l-17.55 0Z" id="p246w448" />
<path d="M692.07 204.21l11.25 0l0 12.23l-11.25 0Z" id="p246w449" />
<path d="M536.94 219.49l16.43 0l0 12.23l-16.43 0Z" id="p246w450" />
<path d="M555.85 219.49l36 0l0 12.23l-36 0Z" id="p246w451" />
<path d="M594.55 219.25l15.54 0l0 12.56l-15.54 0Z" id="p246w452" />
<path d="M527.1 234.78l8.33 0l0 12.23l-8.33 0Z" id="p246w453" />
<path d="M538.12 234.72l29.38 0l0 12.29l-29.38 0Z" id="p246w454" />
<path d="M573.36 233.68l29.9 0l0 13.77l-29.9 0Z" id="p246w455" />
<path d="M608.81 234.78l29.72 0l0 12.23l-29.72 0Z" id="p246w456" />
<path d="M641.24 234.53l18.92 0l0 12.56l-18.92 0Z" id="p246w457" />
<path d="M527.1 250.06l17.56 0l0 12.23l-17.56 0Z" id="p246w458" />
<path d="M547.36 250l27.24 0l0 12.29l-27.24 0Z" id="p246w459" />
<path d="M580.46 248.96l39.54 0l0 13.77l-39.54 0Z" id="p246w460" />
<path d="M625.85 250.06l20.03 0l0 12.23l-20.03 0Z" id="p246w461" />
<path d="M648.58 250.06l43.59 0l0 12.23l-43.59 0Z" id="p246w462" />
<path d="M536.94 265.34l14.41 0l0 12.23l-14.41 0Z" id="p246w463" />
<path d="M554.05 265.34l23.19 0l0 12.23l-23.19 0Z" id="p246w464" />
<path d="M583.76 265.1l18.92 0l0 12.56l-18.92 0Z" id="p246w465" />
<path d="M527.1 280.57l41.15 0l0 12.29l-41.15 0Z" id="p246w466" />
<path d="M570.95 280.63l11.04 0l0 12.23l-11.04 0Z" id="p246w467" />
<path d="M587.84 279.53l37.47 0l0 13.77l-37.47 0Z" id="p246w468" />
<path d="M631.17 280.63l19.44 0l0 12.23l-19.44 0Z" id="p246w469" />
<path d="M653.31 280.63l43.64 0l0 12.23l-43.64 0Z" id="p246w470" />
<path d="M536.94 295.91l19.44 0l0 12.23l-19.44 0Z" id="p246w471" />
<path d="M559.09 295.91l56.88 0l0 12.23l-56.88 0Z" id="p246w472" />
<path d="M618.66 295.66l15.54 0l0 12.56l-15.54 0Z" id="p246w473" />
<path d="M536.94 311.19l10.35 0l0 12.23l-10.35 0Z" id="p246w474" />
<path d="M549.99 311.19l40.73 0l0 12.23l-40.73 0Z" id="p246w475" />
<path d="M596.58 310.09l46.64 0l0 13.77l-46.64 0Z" id="p246w476" />
<path d="M649.07 311.19l31.93 0l0 12.23l-31.93 0Z" id="p246w477" />
<path d="M683.71 311.19l10.82 0l0 12.23l-10.82 0Z" id="p246w478" />
<path d="M536.94 326.48l23.64 0l0 12.23l-23.64 0Z" id="p246w479" />
<path d="M563.29 326.48l29.43 0l0 12.23l-29.43 0Z" id="p246w480" />
<path d="M595.42 326.23l18.92 0l0 12.56l-18.92 0Z" id="p246w481" />
<path d="M536.94 341.76l10.35 0l0 12.23l-10.35 0Z" id="p246w482" />
<path d="M549.99 341.76l40.73 0l0 12.23l-40.73 0Z" id="p246w483" />
<path d="M593.42 341.76l42.2 0l0 12.23l-42.2 0Z" id="p246w484" />
<path d="M641.48 340.66l62.36 0l0 13.77l-62.36 0Z" id="p246w485" />
<path d="M536.94 355.94l17.53 0l0 13.77l-17.53 0Z" id="p246w486" />
<path d="M560.33 357.04l58.82 0l0 12.23l-58.82 0Z" id="p246w487" />
<path d="M621.85 357.04l45.64 0l0 12.23l-45.64 0Z" id="p246w488" />
<path d="M670.19 356.8l18.92 0l0 12.56l-18.92 0Z" id="p246w489" />
<path d="M527.1 372.33l11.94 0l0 12.23l-11.94 0Z" id="p246w490" />
<path d="M541.74 372.27l42.43 0l0 12.29l-42.43 0Z" id="p246w491" />
<path d="M590.02 371.23l46.04 0l0 13.77l-46.04 0Z" id="p246w492" />
<path d="M641.92 372.33l20.03 0l0 12.23l-20.03 0Z" id="p246w493" />
<path d="M536.94 387.61l50.65 0l0 12.23l-50.65 0Z" id="p246w494" />
<path d="M590.3 387.37l15.54 0l0 12.56l-15.54 0Z" id="p246w495" />
<path d="M527.1 402.89l21.16 0l0 12.23l-21.16 0Z" id="p246w496" />
<path d="M550.96 402.84l22.92 0l0 12.29l-22.92 0Z" id="p246w497" />
<path d="M579.74 401.79l23.63 0l0 13.77l-23.63 0Z" id="p246w498" />
<path d="M609.23 402.89l25.21 0l0 12.23l-25.21 0Z" id="p246w499" />
<path d="M637.14 402.89l15.53 0l0 12.23l-15.53 0Z" id="p246w500" />
<path d="M655.37 402.89l23.61 0l0 12.23l-23.61 0Z" id="p246w501" />
<path d="M536.94 418.18l56.05 0l0 12.23l-56.05 0Z" id="p246w502" />
<path d="M595.7 417.93l18.17 0l0 12.56l-18.17 0Z" id="p246w503" />
<path d="M527.1 433.46l8.33 0l0 12.23l-8.33 0Z" id="p246w504" />
<path d="M538.12 433.4l19.14 0l0 12.29l-19.14 0Z" id="p246w505" />
<path d="M563.12 432.36l19.85 0l0 13.77l-19.85 0Z" id="p246w506" />
<path d="M588.83 433.46l15.53 0l0 12.23l-15.53 0Z" id="p246w507" />
<path d="M607.06 433.46l21.47 0l0 12.23l-21.47 0Z" id="p246w508" />
<path d="M631.23 433.22l18.92 0l0 12.56l-18.92 0Z" id="p246w509" />
<path d="M536.94 448.74l21.37 0l0 12.23l-21.37 0Z" id="p246w510" />
<path d="M561.02 448.74l8.33 0l0 12.23l-8.33 0Z" id="p246w511" />
<path d="M572.05 448.74l18.9 0l0 12.23l-18.9 0Z" id="p246w512" />
<path d="M593.64 448.72l27.91 0l0 12.23l-27.91 0Z" id="p246w513" />
<path d="M627.41 447.64l33.37 0l0 13.77l-33.37 0Z" id="p246w514" />
<path d="M666.64 448.74l25.65 0l0 12.23l-25.65 0Z" id="p246w515" />
<path d="M536.94 464.03l19.13 0l0 12.23l-19.13 0Z" id="p246w516" />
<path d="M558.77 464l25.65 0l0 12.23l-25.65 0Z" id="p246w517" />
<path d="M589.57 464.03l47.95 0l0 12.23l-47.95 0Z" id="p246w518" />
<path d="M640.23 463.78l15.54 0l0 12.56l-15.54 0Z" id="p246w519" />
<path d="M527.1 479.31l11.94 0l0 12.23l-11.94 0Z" id="p246w520" />
<path d="M541.74 479.25l24.4 0l0 12.29l-24.4 0Z" id="p246w521" />
<path d="M571.99 478.21l26.15 0l0 13.77l-26.15 0Z" id="p246w522" />
<path d="M604 479.31l14.41 0l0 12.23l-14.41 0Z" id="p246w523" />
<path d="M620.81 479.31l18.92 0l0 12.23l-18.92 0Z" id="p246w524" />
<path d="M642.43 479.07l15.54 0l0 12.56l-15.54 0Z" id="p246w525" />
<path d="M527.1 494.59l8.33 0l0 12.23l-8.33 0Z" id="p246w526" />
<path d="M538.12 494.54l18.28 0l0 12.29l-18.28 0Z" id="p246w527" />
<path d="M562.26 493.49l36.34 0l0 13.77l-36.34 0Z" id="p246w528" />
<path d="M604.46 494.59l15.53 0l0 12.23l-15.53 0Z" id="p246w529" />
<path d="M622.39 494.59l17.94 0l0 12.23l-17.94 0Z" id="p246w530" />
<path d="M643.03 494.35l14.63 0l0 12.56l-14.63 0Z" id="p246w531" />
<path d="M536.94 509.88l11.7 0l0 12.23l-11.7 0Z" id="p246w532" />
<path d="M551.05 509.88l17.94 0l0 12.23l-17.94 0Z" id="p246w533" />
<path d="M574.85 508.78l34.16 0l0 13.77l-34.16 0Z" id="p246w534" />
<path d="M614.86 509.88l15.75 0l0 12.23l-15.75 0Z" id="p246w535" />
<path d="M633.31 509.88l20.93 0l0 12.23l-20.93 0Z" id="p246w536" />
<path d="M656.64 509.88l17.94 0l0 12.23l-17.94 0Z" id="p246w537" />
<path d="M677.28 509.63l14.63 0l0 12.56l-14.63 0Z" id="p246w538" />
<path d="M527.1 525.16l8.33 0l0 12.23l-8.33 0Z" id="p246w539" />
<path d="M538.12 525.11l15.65 0l0 12.29l-15.65 0Z" id="p246w540" />
<path d="M559.63 524.06l16.64 0l0 13.77l-16.64 0Z" id="p246w541" />
<path d="M582.13 525.16l15.53 0l0 12.23l-15.53 0Z" id="p246w542" />
<path d="M600.06 525.16l15.76 0l0 12.23l-15.76 0Z" id="p246w543" />
<path d="M618.52 524.92l15.54 0l0 12.56l-15.54 0Z" id="p246w544" />
<path d="M536.94 540.44l8.33 0l0 12.23l-8.33 0Z" id="p246w545" />
<path d="M547.97 540.44l15.53 0l0 12.23l-15.53 0Z" id="p246w546" />
<path d="M574.52 540.44l8.33 0l0 12.23l-8.33 0Z" id="p246w547" />
<path d="M585.55 540.44l36.46 0l0 12.23l-36.46 0Z" id="p246w548" />
<path d="M627.87 539.34l48.71 0l0 13.77l-48.71 0Z" id="p246w549" />
<path d="M682.43 540.44l15.53 0l0 12.23l-15.53 0Z" id="p246w550" />
<path d="M536.94 555.73l38.04 0l0 12.23l-38.04 0Z" id="p246w551" />
<path d="M577.68 555.48l15.54 0l0 12.56l-15.54 0Z" id="p246w552" />
<path d="M527.1 571.01l11.94 0l0 12.23l-11.94 0Z" id="p246w553" />
<path d="M541.74 570.96l34.68 0l0 12.29l-34.68 0Z" id="p246w554" />
<path d="M582.27 569.91l27.18 0l0 13.77l-27.18 0Z" id="p246w555" />
<path d="M615.31 571.01l14.41 0l0 12.23l-14.41 0Z" id="p246w556" />
<path d="M632.11 571.01l35.78 0l0 12.23l-35.78 0Z" id="p246w557" />
<path d="M670.59 570.77l15.54 0l0 12.56l-15.54 0Z" id="p246w558" />
<path d="M527.1 586.24l24.58 0l0 12.29l-24.58 0Z" id="p246w559" />
<path d="M563.39 585.19l10.7 0l0 13.77l-10.7 0Z" id="p246w560" />
<path d="M579.95 586.29l15.08 0l0 12.23l-15.08 0Z" id="p246w561" />
<path d="M597.73 586.29l34.78 0l0 12.23l-34.78 0Z" id="p246w562" />
<path d="M635.21 586.29l28.38 0l0 12.23l-28.38 0Z" id="p246w563" />
<path d="M666.29 586.29l20.71 0l0 12.23l-20.71 0Z" id="p246w564" />
<path d="M536.94 601.33l14.79 0l0 12.56l-14.79 0Z" id="p246w565" />
<path d="M527.1 616.86l11.94 0l0 12.23l-11.94 0Z" id="p246w566" />
<path d="M541.74 616.81l21.12 0l0 12.29l-21.12 0Z" id="p246w567" />
<path d="M565.55 616.86l11.7 0l0 12.23l-11.7 0Z" id="p246w568" />
<path d="M583.12 615.76l20.84 0l0 13.77l-20.84 0Z" id="p246w569" />
<path d="M609.81 616.86l14.41 0l0 12.23l-14.41 0Z" id="p246w570" />
<path d="M626.92 616.86l29.48 0l0 12.23l-29.48 0Z" id="p246w571" />
<path d="M659.1 616.86l36.12 0l0 12.23l-36.12 0Z" id="p246w572" />
<path d="M536.94 631.9l18.92 0l0 12.56l-18.92 0Z" id="p246w573" />
<path d="M527.1 647.37l30.51 0l0 12.29l-30.51 0Z" id="p246w574" />
<path d="M563.47 646.33l24.7 0l0 13.77l-24.7 0Z" id="p246w575" />
<path d="M594.02 647.43l52.01 0l0 12.23l-52.01 0Z" id="p246w576" />
<path d="M648.73 647.18l18.92 0l0 12.56l-18.92 0Z" id="p246w577" />
<path d="M527.1 662.71l11.94 0l0 12.23l-11.94 0Z" id="p246w578" />
<path d="M541.74 662.66l15.63 0l0 12.29l-15.63 0Z" id="p246w579" />
<path d="M563.22 661.61l20.06 0l0 13.77l-20.06 0Z" id="p246w580" />
<path d="M589.14 662.71l14.41 0l0 12.23l-14.41 0Z" id="p246w581" />
<path d="M605.95 662.71l16.66 0l0 12.23l-16.66 0Z" id="p246w582" />
<path d="M625.31 662.47l18.92 0l0 12.56l-18.92 0Z" id="p246w583" />
<path d="M527.1 677.99l11.94 0l0 12.23l-11.94 0Z" id="p246w584" />
<path d="M541.74 677.94l20.15 0l0 12.29l-20.15 0Z" id="p246w585" />
<path d="M567.74 676.89l19.99 0l0 13.77l-19.99 0Z" id="p246w586" />
<path d="M593.59 677.99l14.41 0l0 12.23l-14.41 0Z" id="p246w587" />
<path d="M610.39 677.99l20.03 0l0 12.23l-20.03 0Z" id="p246w588" />
<path d="M633.12 677.75l15.34 0l0 12.56l-15.34 0Z" id="p246w589" />
<path d="M527.1 693.28l13.05 0l0 12.23l-13.05 0Z" id="p246w590" />
<path d="M542.85 693.22l39.31 0l0 12.29l-39.31 0Z" id="p246w591" />
<path d="M598.14 693.26l14.18 0l0 12.23l-14.18 0Z" id="p246w592" />
<path d="M618.18 692.18l35.35 0l0 13.77l-35.35 0Z" id="p246w593" />
<path d="M659.39 693.28l14.41 0l0 12.23l-14.41 0Z" id="p246w594" />
<path d="M536.94 708.56l34.67 0l0 12.23l-34.67 0Z" id="p246w595" />
<path d="M574.31 708.32l14.63 0l0 12.56l-14.63 0Z" id="p246w596" />
<path d="M527.1 723.84l17.56 0l0 12.23l-17.56 0Z" id="p246w597" />
<path d="M547.36 723.79l34.26 0l0 12.29l-34.26 0Z" id="p246w598" />
<path d="M587.47 722.74l38.15 0l0 13.77l-38.15 0Z" id="p246w599" />
<path d="M631.48 723.84l20.03 0l0 12.23l-20.03 0Z" id="p246w600" />
<path d="M653.91 723.84l34.67 0l0 12.23l-34.67 0Z" id="p246w601" />
<path d="M536.94 738.88l14.79 0l0 12.56l-14.79 0Z" id="p246w602" />
<path d="M527.1 754.36l34.66 0l0 12.29l-34.66 0Z" id="p246w603" />
<path d="M567.61 753.31l19.65 0l0 13.77l-19.65 0Z" id="p246w604" />
<path d="M593.12 754.41l26.33 0l0 12.23l-26.33 0Z" id="p246w605" />
<path d="M622.15 754.17l19.58 0l0 12.56l-19.58 0Z" id="p246w606" />
<path d="M527.1 769.7l8.33 0l0 12.23l-8.33 0Z" id="p246w607" />
<path d="M538.12 769.64l15.87 0l0 12.29l-15.87 0Z" id="p246w608" />
<path d="M559.85 768.59l16.45 0l0 13.77l-16.45 0Z" id="p246w609" />
<path d="M582.16 769.7l15.53 0l0 12.23l-15.53 0Z" id="p246w610" />
<path d="M600.39 769.7l71.42 0l0 12.23l-71.42 0Z" id="p246w611" />
<path d="M674.51 769.45l18.72 0l0 12.56l-18.72 0Z" id="p246w612" />
<path d="M527.1 784.92l15.87 0l0 12.29l-15.87 0Z" id="p246w613" />
<path d="M547.14 784.92l9.58 0l0 12.29l-9.58 0Z" id="p246w614" />
<path d="M560.89 784.92l14.41 0l0 12.29l-14.41 0Z" id="p246w615" />
<path d="M581.15 783.88l31.29 0l0 13.77l-31.29 0Z" id="p246w616" />
<path d="M618.3 784.98l50.76 0l0 12.23l-50.76 0Z" id="p246w617" />
<path d="M671.76 784.73l14.79 0l0 12.56l-14.79 0Z" id="p246w618" />
<path d="M527.1 800.21l15.85 0l0 12.29l-15.85 0Z" id="p246w619" />
<path d="M548.8 799.16l14.63 0l0 13.77l-14.63 0Z" id="p246w620" />
<path d="M569.29 800.26l26.11 0l0 12.23l-26.11 0Z" id="p246w621" />
<path d="M598.1 800.02l18.17 0l0 12.56l-18.17 0Z" id="p246w622" />
<path d="M527.1 815.55l23.19 0l0 12.23l-23.19 0Z" id="p246w623" />
<path d="M552.98 815.49l17.64 0l0 12.29l-17.64 0Z" id="p246w624" />
<path d="M573.32 815.55l18.91 0l0 12.23l-18.91 0Z" id="p246w625" />
<path d="M598.09 814.45l42.26 0l0 13.77l-42.26 0Z" id="p246w626" />
<path d="M646.21 815.55l37.37 0l0 12.23l-37.37 0Z" id="p246w627" />
<path d="M536.94 830.83l29.49 0l0 12.23l-29.49 0Z" id="p246w628" />
<path d="M569.13 830.58l18.72 0l0 12.56l-18.72 0Z" id="p246w629" />
<path d="M527.1 846.06l35.98 0l0 12.29l-35.98 0Z" id="p246w630" />
<path d="M565.78 846.11l12.16 0l0 12.23l-12.16 0Z" id="p246w631" />
<path d="M583.79 845.01l17.94 0l0 13.77l-17.94 0Z" id="p246w632" />
<path d="M607.59 846.11l16.9 0l0 12.23l-16.9 0Z" id="p246w633" />
<path d="M627.19 846.11l42.99 0l0 12.23l-42.99 0Z" id="p246w634" />
<path d="M672.88 845.87l18.92 0l0 12.56l-18.92 0Z" id="p246w635" />
<path d="M527.1 861.34l39.13 0l0 12.29l-39.13 0Z" id="p246w636" />
<path d="M572.08 860.3l25.4 0l0 13.77l-25.4 0Z" id="p246w637" />
<path d="M603.34 861.4l30.6 0l0 12.23l-30.6 0Z" id="p246w638" />
<path d="M636.64 861.15l14.79 0l0 12.56l-14.79 0Z" id="p246w639" />
<path d="M527.1 876.68l21.37 0l0 12.23l-21.37 0Z" id="p246w640" />
<path d="M551.14 876.68l8.33 0l0 12.23l-8.33 0Z" id="p246w641" />
<path d="M562.14 876.62l19.66 0l0 12.29l-19.66 0Z" id="p246w642" />
<path d="M584.48 876.68l11.94 0l0 12.23l-11.94 0Z" id="p246w643" />
<path d="M599.09 876.68l32.87 0l0 12.23l-32.87 0Z" id="p246w644" />
<path d="M637.78 875.58l67.98 0l0 13.77l-67.98 0Z" id="p246w645" />
<path d="M536.93 891.96l20.03 0l0 12.23l-20.03 0Z" id="p246w646" />
<path d="M559.44 891.96l43.65 0l0 12.23l-43.65 0Z" id="p246w647" />
<path d="M605.79 891.96l40.04 0l0 12.23l-40.04 0Z" id="p246w648" />
<path d="M648.53 891.96l8.78 0l0 12.23l-8.78 0Z" id="p246w649" />
<path d="M660.01 891.96l14.41 0l0 12.23l-14.41 0Z" id="p246w650" />
<path d="M677.12 891.96l28.31 0l0 12.23l-28.31 0Z" id="p246w651" />
<path d="M536.93 907.25l21.15 0l0 12.23l-21.15 0Z" id="p246w652" />
<path d="M560.79 907.25l38.71 0l0 12.23l-38.71 0Z" id="p246w653" />
<path d="M602.2 907.25l35.33 0l0 12.23l-35.33 0Z" id="p246w654" />
<path d="M640.24 907l15.34 0l0 12.56l-15.34 0Z" id="p246w655" />
</svg>
