<?xml version="1.0" encoding="UTF-8"?>
<svg xmlns="http://www.w3.org/2000/svg" xmlns:xlink="http://www.w3.org/1999/xlink" version="1.1" baseProfile="full" width="768" height="1024" viewBox="0,0,768,1024" preserveAspectRatio="xMinYMin meet" >
<style type="text/css">
<![CDATA[
path {fill-opacity: 0.5;fill: #00aeef;visibility: hidden;}
]]>
</style>
<path d="M124.06 38.6l71 0l0 16.09l-71 0Z" id="p196w1" />
<path d="M78.77 983.66l125.79 0l0 12.23l-125.79 0Z" id="p196w2" />
<path d="M124.06 110.01l100.35 0l0 14.6l-100.35 0Z" id="p196w3" />
<path d="M124.06 125.44l82.57 0l0 16.35l-82.57 0Z" id="p196w4" />
<path d="M297.36 110.09l57.56 0l0 14.52l-57.56 0Z" id="p196w5" />
<path d="M358.12 110.09l37.16 0l0 14.52l-37.16 0Z" id="p196w6" />
<path d="M482.46 110.09l26.19 0l0 14.52l-26.19 0Z" id="p196w7" />
<path d="M511.86 110.09l25.13 0l0 14.52l-25.13 0Z" id="p196w8" />
<path d="M540.2 110.09l43.82 0l0 14.52l-43.82 0Z" id="p196w9" />
<path d="M587.23 110.09l21.4 0l0 14.52l-21.4 0Z" id="p196w10" />
<path d="M611.83 110.09l26.73 0l0 14.52l-26.73 0Z" id="p196w11" />
<path d="M641.76 110.09l9.89 0l0 14.52l-9.89 0Z" id="p196w12" />
<path d="M654.86 110.09l47.6 0l0 14.52l-47.6 0Z" id="p196w13" />
<path d="M482.46 126.76l42.45 0l0 14.52l-42.45 0Z" id="p196w14" />
<path d="M528.12 126.76l9.62 0l0 14.52l-9.62 0Z" id="p196w15" />
<path d="M540.95 126.76l21.38 0l0 14.52l-21.38 0Z" id="p196w16" />
<path d="M565.54 126.76l53.19 0l0 14.52l-53.19 0Z" id="p196w17" />
<path d="M500.69 143.45l50.33 0l0 14.61l-50.33 0Z" id="p196w18" />
<path d="M124.06 161.55l25.65 0l0 14.6l-25.65 0Z" id="p196w19" />
<path d="M152.91 161.55l19.61 0l0 14.6l-19.61 0Z" id="p196w20" />
<path d="M175.73 161.55l37.47 0l0 14.6l-37.47 0Z" id="p196w21" />
<path d="M239.66 161.59l16.84 0l0 14.52l-16.84 0Z" id="p196w22" />
<path d="M124.06 176.98l66.27 0l0 16.35l-66.27 0Z" id="p196w23" />
<path d="M297.35 161.59l21.92 0l0 14.52l-21.92 0Z" id="p196w24" />
<path d="M322.48 161.59l31.81 0l0 14.52l-31.81 0Z" id="p196w25" />
<path d="M357.5 161.59l34.95 0l0 14.52l-34.95 0Z" id="p196w26" />
<path d="M482.46 161.59l21.65 0l0 14.52l-21.65 0Z" id="p196w27" />
<path d="M507.31 161.59l19.51 0l0 14.52l-19.51 0Z" id="p196w28" />
<path d="M530.03 161.59l39.29 0l0 14.52l-39.29 0Z" id="p196w29" />
<path d="M572.53 161.59l14.43 0l0 14.52l-14.43 0Z" id="p196w30" />
<path d="M590.17 161.59l11.22 0l0 14.52l-11.22 0Z" id="p196w31" />
<path d="M604.59 161.59l24.85 0l0 14.52l-24.85 0Z" id="p196w32" />
<path d="M124.06 196.35l55.64 0l0 14.6l-55.64 0Z" id="p196w33" />
<path d="M182.99 195.11l37.53 0l0 16.35l-37.53 0Z" id="p196w34" />
<path d="M297.35 196.43l47.5 0l0 14.52l-47.5 0Z" id="p196w35" />
<path d="M124.06 217.06l14.31 0l0 14.6l-14.31 0Z" id="p196w36" />
<path d="M141.57 217.06l36.23 0l0 14.6l-36.23 0Z" id="p196w37" />
<path d="M181.11 215.82l46.44 0l0 16.35l-46.44 0Z" id="p196w38" />
<path d="M297.35 217.17l17.11 0l0 14.52l-17.11 0Z" id="p196w39" />
<path d="M317.67 217.17l38.23 0l0 14.52l-38.23 0Z" id="p196w40" />
<path d="M359.1 217.14l27.27 0l0 14.52l-27.27 0Z" id="p196w41" />
<path d="M389.58 217.14l16.79 0l0 14.52l-16.79 0Z" id="p196w42" />
<path d="M409.57 217.14l18.18 0l0 14.52l-18.18 0Z" id="p196w43" />
<path d="M297.35 233.81l68.11 0l0 14.52l-68.11 0Z" id="p196w44" />
<path d="M482.46 217.14l25.13 0l0 14.52l-25.13 0Z" id="p196w45" />
<path d="M510.8 217.14l34.21 0l0 14.52l-34.21 0Z" id="p196w46" />
<path d="M548.22 217.14l15.87 0l0 14.52l-15.87 0Z" id="p196w47" />
<path d="M567.29 217.14l44.9 0l0 14.52l-44.9 0Z" id="p196w48" />
<path d="M615.4 217.14l19.51 0l0 14.52l-19.51 0Z" id="p196w49" />
<path d="M638.12 217.14l48.93 0l0 14.52l-48.93 0Z" id="p196w50" />
<path d="M500.19 233.83l36.27 0l0 14.61l-36.27 0Z" id="p196w51" />
<path d="M124.06 251.91l6.07 0l0 14.6l-6.07 0Z" id="p196w52" />
<path d="M129.6 251.91l36.23 0l0 14.6l-36.23 0Z" id="p196w53" />
<path d="M169.04 251.91l14.28 0l0 14.6l-14.28 0Z" id="p196w54" />
<path d="M186.53 251.91l25.2 0l0 14.6l-25.2 0Z" id="p196w55" />
<path d="M124.06 267.34l75.54 0l0 16.35l-75.54 0Z" id="p196w56" />
<path d="M297.35 251.99l18.44 0l0 14.52l-18.44 0Z" id="p196w57" />
<path d="M319 251.99l89.29 0l0 14.52l-89.29 0Z" id="p196w58" />
<path d="M411.5 251.99l38.23 0l0 14.52l-38.23 0Z" id="p196w59" />
<path d="M493.42 251.99l53.44 0l0 14.52l-53.44 0Z" id="p196w60" />
<path d="M550.07 251.99l15.5 0l0 14.52l-15.5 0Z" id="p196w61" />
<path d="M568.77 251.99l26.66 0l0 14.52l-26.66 0Z" id="p196w62" />
<path d="M598.64 251.99l18.72 0l0 14.52l-18.72 0Z" id="p196w63" />
<path d="M620.57 251.99l44.11 0l0 14.52l-44.11 0Z" id="p196w64" />
<path d="M482.46 268.66l42.07 0l0 14.52l-42.07 0Z" id="p196w65" />
<path d="M527.73 268.66l14.18 0l0 14.52l-14.18 0Z" id="p196w66" />
<path d="M545.12 268.66l27.27 0l0 14.52l-27.27 0Z" id="p196w67" />
<path d="M124.06 286.73l10.02 0l0 14.6l-10.02 0Z" id="p196w68" />
<path d="M137.29 286.73l59.36 0l0 14.6l-59.36 0Z" id="p196w69" />
<path d="M199.94 285.49l52.84 0l0 16.35l-52.84 0Z" id="p196w70" />
<path d="M297.35 286.81l17.63 0l0 14.52l-17.63 0Z" id="p196w71" />
<path d="M318.2 286.81l56.61 0l0 14.52l-56.61 0Z" id="p196w72" />
<path d="M377.66 286.81l18.93 0l0 14.52l-18.93 0Z" id="p196w73" />
<path d="M482.46 286.81l11.5 0l0 14.52l-11.5 0Z" id="p196w74" />
<path d="M497.17 286.81l9.89 0l0 14.52l-9.89 0Z" id="p196w75" />
<path d="M510.26 286.81l61.75 0l0 14.52l-61.75 0Z" id="p196w76" />
<path d="M575.21 286.81l49.1 0l0 14.52l-49.1 0Z" id="p196w77" />
<path d="M627.52 286.81l20.85 0l0 14.52l-20.85 0Z" id="p196w78" />
<path d="M651.58 286.81l25.67 0l0 14.52l-25.67 0Z" id="p196w79" />
<path d="M680.46 286.81l25.4 0l0 14.52l-25.4 0Z" id="p196w80" />
<path d="M482.46 303.48l18.7 0l0 14.52l-18.7 0Z" id="p196w81" />
<path d="M500.69 320.17l41.89 0l0 14.61l-41.89 0Z" id="p196w82" />
<path d="M124.06 338.22l22.58 0l0 14.6l-22.58 0Z" id="p196w83" />
<path d="M149.85 338.22l27.26 0l0 14.6l-27.26 0Z" id="p196w84" />
<path d="M180.31 338.22l13.87 0l0 14.6l-13.87 0Z" id="p196w85" />
<path d="M197.39 338.22l25.42 0l0 14.6l-25.42 0Z" id="p196w86" />
<path d="M124.06 353.65l87.31 0l0 16.35l-87.31 0Z" id="p196w87" />
<path d="M297.35 338.3l17.63 0l0 14.52l-17.63 0Z" id="p196w88" />
<path d="M317.76 338.3l64.9 0l0 14.52l-64.9 0Z" id="p196w89" />
<path d="M385.87 338.3l22.72 0l0 14.52l-22.72 0Z" id="p196w90" />
<path d="M124.06 373.03l56.03 0l0 14.6l-56.03 0Z" id="p196w91" />
<path d="M193.2 373.03l32.19 0l0 14.6l-32.19 0Z" id="p196w92" />
<path d="M124.06 388.46l53.77 0l0 16.35l-53.77 0Z" id="p196w93" />
<path d="M297.35 373.11l21.92 0l0 14.52l-21.92 0Z" id="p196w94" />
<path d="M322.48 373.11l13.9 0l0 14.52l-13.9 0Z" id="p196w95" />
<path d="M339.59 373.11l48.1 0l0 14.52l-48.1 0Z" id="p196w96" />
<path d="M390.9 373.11l59.01 0l0 14.52l-59.01 0Z" id="p196w97" />
<path d="M482.46 373.11l12.41 0l0 14.52l-12.41 0Z" id="p196w98" />
<path d="M498.07 373.11l18.7 0l0 14.52l-18.7 0Z" id="p196w99" />
<path d="M519.98 373.11l42.5 0l0 14.52l-42.5 0Z" id="p196w100" />
<path d="M575.58 373.11l18.72 0l0 14.52l-18.72 0Z" id="p196w101" />
<path d="M597.5 373.11l38.23 0l0 14.52l-38.23 0Z" id="p196w102" />
<path d="M638.94 373.11l14.18 0l0 14.52l-14.18 0Z" id="p196w103" />
<path d="M656.32 373.11l35 0l0 14.52l-35 0Z" id="p196w104" />
<path d="M500.69 389.79l20.84 0l0 14.61l-20.84 0Z" id="p196w105" />
<path d="M524.74 389.79l49.64 0l0 14.61l-49.64 0Z" id="p196w106" />
<path d="M124.06 407.85l12.42 0l0 14.6l-12.42 0Z" id="p196w107" />
<path d="M139.69 407.85l25.65 0l0 14.6l-25.65 0Z" id="p196w108" />
<path d="M168.54 407.85l14.28 0l0 14.6l-14.28 0Z" id="p196w109" />
<path d="M186.03 407.85l28.59 0l0 14.6l-28.59 0Z" id="p196w110" />
<path d="M124.06 423.28l69.4 0l0 16.35l-69.4 0Z" id="p196w111" />
<path d="M297.35 407.93l21.92 0l0 14.52l-21.92 0Z" id="p196w112" />
<path d="M322.48 407.93l39.33 0l0 14.52l-39.33 0Z" id="p196w113" />
<path d="M365.02 407.93l44.64 0l0 14.52l-44.64 0Z" id="p196w114" />
<path d="M482.46 407.93l15.23 0l0 14.52l-15.23 0Z" id="p196w115" />
<path d="M500.9 407.93l11.22 0l0 14.52l-11.22 0Z" id="p196w116" />
<path d="M515.33 407.93l19.77 0l0 14.52l-19.77 0Z" id="p196w117" />
<path d="M538.31 407.93l19.51 0l0 14.52l-19.51 0Z" id="p196w118" />
<path d="M561.02 407.93l13.9 0l0 14.52l-13.9 0Z" id="p196w119" />
<path d="M578.13 407.93l31.3 0l0 14.52l-31.3 0Z" id="p196w120" />
<path d="M612.63 407.93l12.57 0l0 14.52l-12.57 0Z" id="p196w121" />
<path d="M628.4 407.93l12.66 0l0 14.52l-12.66 0Z" id="p196w122" />
<path d="M644.27 407.93l25.67 0l0 14.52l-25.67 0Z" id="p196w123" />
<path d="M494.71 424.61l58.7 0l0 14.61l-58.7 0Z" id="p196w124" />
<path d="M124.06 442.67l24.46 0l0 14.6l-24.46 0Z" id="p196w125" />
<path d="M151.72 442.67l12.42 0l0 14.6l-12.42 0Z" id="p196w126" />
<path d="M167.35 442.67l36.68 0l0 14.6l-36.68 0Z" id="p196w127" />
<path d="M207.33 441.43l59.45 0l0 16.35l-59.45 0Z" id="p196w128" />
<path d="M297.35 442.75l18.65 0l0 14.52l-18.65 0Z" id="p196w129" />
<path d="M319.21 442.75l34.95 0l0 14.52l-34.95 0Z" id="p196w130" />
<path d="M482.46 442.75l11.77 0l0 14.52l-11.77 0Z" id="p196w131" />
<path d="M497.44 442.75l41.97 0l0 14.52l-41.97 0Z" id="p196w132" />
<path d="M542.62 442.75l24.31 0l0 14.52l-24.31 0Z" id="p196w133" />
<path d="M570.14 442.75l24.33 0l0 14.52l-24.33 0Z" id="p196w134" />
<path d="M597.68 442.75l38.48 0l0 14.52l-38.48 0Z" id="p196w135" />
<path d="M124.06 463.38l12.42 0l0 14.6l-12.42 0Z" id="p196w136" />
<path d="M139.69 463.38l43.53 0l0 14.6l-43.53 0Z" id="p196w137" />
<path d="M186.42 463.38l13.87 0l0 14.6l-13.87 0Z" id="p196w138" />
<path d="M203.5 463.38l32.19 0l0 14.6l-32.19 0Z" id="p196w139" />
<path d="M124.06 478.81l49.44 0l0 16.35l-49.44 0Z" id="p196w140" />
<path d="M297.35 463.46l21.92 0l0 14.52l-21.92 0Z" id="p196w141" />
<path d="M322.48 463.46l25.4 0l0 14.52l-25.4 0Z" id="p196w142" />
<path d="M351.09 463.46l48.1 0l0 14.52l-48.1 0Z" id="p196w143" />
<path d="M402.39 463.46l30.68 0l0 14.52l-30.68 0Z" id="p196w144" />
<path d="M297.35 480.13l44.64 0l0 14.52l-44.64 0Z" id="p196w145" />
<path d="M482.46 463.46l15.23 0l0 14.52l-15.23 0Z" id="p196w146" />
<path d="M500.9 463.46l11.22 0l0 14.52l-11.22 0Z" id="p196w147" />
<path d="M515.33 463.46l38.77 0l0 14.52l-38.77 0Z" id="p196w148" />
<path d="M557.3 463.46l19.51 0l0 14.52l-19.51 0Z" id="p196w149" />
<path d="M580.02 463.46l13.9 0l0 14.52l-13.9 0Z" id="p196w150" />
<path d="M597.12 463.46l18.72 0l0 14.52l-18.72 0Z" id="p196w151" />
<path d="M619.05 463.46l26.72 0l0 14.52l-26.72 0Z" id="p196w152" />
<path d="M124.06 498.2l61.09 0l0 14.6l-61.09 0Z" id="p196w153" />
<path d="M188.44 496.96l48.81 0l0 16.35l-48.81 0Z" id="p196w154" />
<path d="M297.35 498.28l70.27 0l0 14.52l-70.27 0Z" id="p196w155" />
<path d="M370.83 498.28l66.83 0l0 14.52l-66.83 0Z" id="p196w156" />
<path d="M482.46 498.28l10.43 0l0 14.52l-10.43 0Z" id="p196w157" />
<path d="M496.09 498.28l21.11 0l0 14.52l-21.11 0Z" id="p196w158" />
<path d="M520.41 498.28l20.85 0l0 14.52l-20.85 0Z" id="p196w159" />
<path d="M544.47 498.28l12.57 0l0 14.52l-12.57 0Z" id="p196w160" />
<path d="M560.24 498.28l25.92 0l0 14.52l-25.92 0Z" id="p196w161" />
<path d="M589.37 498.28l19.51 0l0 14.52l-19.51 0Z" id="p196w162" />
<path d="M612.09 498.28l32.62 0l0 14.52l-32.62 0Z" id="p196w163" />
<path d="M647.91 498.28l26.45 0l0 14.52l-26.45 0Z" id="p196w164" />
<path d="M677.57 498.28l11.5 0l0 14.52l-11.5 0Z" id="p196w165" />
<path d="M482.46 514.95l22.99 0l0 14.52l-22.99 0Z" id="p196w166" />
<path d="M508.66 514.95l61.88 0l0 14.52l-61.88 0Z" id="p196w167" />
<path d="M124.06 533.02l92.78 0l0 14.6l-92.78 0Z" id="p196w168" />
<path d="M124.06 548.45l72.79 0l0 16.35l-72.79 0Z" id="p196w169" />
<path d="M297.35 533.1l48.53 0l0 14.52l-48.53 0Z" id="p196w170" />
<path d="M482.46 533.1l10.43 0l0 14.52l-10.43 0Z" id="p196w171" />
<path d="M496.09 533.1l13.9 0l0 14.52l-13.9 0Z" id="p196w172" />
<path d="M513.2 533.1l21.38 0l0 14.52l-21.38 0Z" id="p196w173" />
<path d="M537.79 533.1l19.51 0l0 14.52l-19.51 0Z" id="p196w174" />
<path d="M560.51 533.1l21.37 0l0 14.52l-21.37 0Z" id="p196w175" />
<path d="M585.08 533.1l49.44 0l0 14.52l-49.44 0Z" id="p196w176" />
<path d="M637.74 533.1l24.85 0l0 14.52l-24.85 0Z" id="p196w177" />
<path d="M665.8 533.1l22.99 0l0 14.52l-22.99 0Z" id="p196w178" />
<path d="M504.13 549.78l13.83 0l0 14.61l-13.83 0Z" id="p196w179" />
<path d="M522.65 549.78l21.65 0l0 14.61l-21.65 0Z" id="p196w180" />
<path d="M497.84 566.45l54.18 0l0 14.61l-54.18 0Z" id="p196w181" />
<path d="M124.06 584.51l43.32 0l0 14.6l-43.32 0Z" id="p196w182" />
<path d="M170.59 584.51l32.19 0l0 14.6l-32.19 0Z" id="p196w183" />
<path d="M206.08 583.27l43.28 0l0 16.35l-43.28 0Z" id="p196w184" />
<path d="M297.36 584.59l48.1 0l0 14.52l-48.1 0Z" id="p196w185" />
<path d="M348.66 584.59l63.83 0l0 14.52l-63.83 0Z" id="p196w186" />
<path d="M297.36 601.26l48.1 0l0 14.52l-48.1 0Z" id="p196w187" />
<path d="M348.66 601.26l60.88 0l0 14.52l-60.88 0Z" id="p196w188" />
<path d="M482.46 584.59l17.63 0l0 14.52l-17.63 0Z" id="p196w189" />
<path d="M503.31 584.59l34.21 0l0 14.52l-34.21 0Z" id="p196w190" />
<path d="M540.73 584.59l17.63 0l0 14.52l-17.63 0Z" id="p196w191" />
<path d="M561.57 584.59l38.96 0l0 14.52l-38.96 0Z" id="p196w192" />
<path d="M603.74 584.59l35.29 0l0 14.52l-35.29 0Z" id="p196w193" />
<path d="M642.24 584.59l9.62 0l0 14.52l-9.62 0Z" id="p196w194" />
<path d="M655.07 584.59l19.77 0l0 14.52l-19.77 0Z" id="p196w195" />
<path d="M482.46 601.26l19.51 0l0 14.52l-19.51 0Z" id="p196w196" />
<path d="M505.18 601.26l37.42 0l0 14.52l-37.42 0Z" id="p196w197" />
<path d="M545.81 601.26l9.62 0l0 14.52l-9.62 0Z" id="p196w198" />
<path d="M558.64 601.26l35.56 0l0 14.52l-35.56 0Z" id="p196w199" />
<path d="M597.4 601.26l12.57 0l0 14.52l-12.57 0Z" id="p196w200" />
<path d="M613.18 601.26l31.01 0l0 14.52l-31.01 0Z" id="p196w201" />
<path d="M124.06 619.33l34.34 0l0 14.6l-34.34 0Z" id="p196w202" />
<path d="M161.71 618.09l30.3 0l0 16.35l-30.3 0Z" id="p196w203" />
<path d="M297.36 619.41l36.34 0l0 14.52l-36.34 0Z" id="p196w204" />
<path d="M482.46 619.41l12.41 0l0 14.52l-12.41 0Z" id="p196w205" />
<path d="M498.08 619.41l18.27 0l0 14.52l-18.27 0Z" id="p196w206" />
<path d="M519.55 619.41l33.68 0l0 14.52l-33.68 0Z" id="p196w207" />
<path d="M556.45 619.41l61.94 0l0 14.52l-61.94 0Z" id="p196w208" />
<path d="M124.06 640.04l40.87 0l0 14.6l-40.87 0Z" id="p196w209" />
<path d="M168.23 638.8l37.54 0l0 16.35l-37.54 0Z" id="p196w210" />
<path d="M297.36 640.12l17.65 0l0 14.52l-17.65 0Z" id="p196w211" />
<path d="M318.21 640.12l30.73 0l0 14.52l-30.73 0Z" id="p196w212" />
<path d="M482.46 640.12l14.7 0l0 14.52l-14.7 0Z" id="p196w213" />
<path d="M500.38 640.12l42.45 0l0 14.52l-42.45 0Z" id="p196w214" />
<path d="M546.03 640.12l32.43 0l0 14.52l-32.43 0Z" id="p196w215" />
<path d="M581.67 640.12l40.1 0l0 14.52l-40.1 0Z" id="p196w216" />
<path d="M624.98 640.12l15.5 0l0 14.52l-15.5 0Z" id="p196w217" />
<path d="M643.68 640.12l37.68 0l0 14.52l-37.68 0Z" id="p196w218" />
<path d="M124.06 660.75l10.02 0l0 14.6l-10.02 0Z" id="p196w219" />
<path d="M137.29 660.75l44.19 0l0 14.6l-44.19 0Z" id="p196w220" />
<path d="M184.69 660.75l43.41 0l0 14.6l-43.41 0Z" id="p196w221" />
<path d="M124.06 676.18l84.36 0l0 16.35l-84.36 0Z" id="p196w222" />
<path d="M297.36 660.83l17.11 0l0 14.52l-17.11 0Z" id="p196w223" />
<path d="M317.67 660.83l69.51 0l0 14.52l-69.51 0Z" id="p196w224" />
<path d="M297.36 677.5l96.63 0l0 14.52l-96.63 0Z" id="p196w225" />
<path d="M124.06 695.57l14.31 0l0 14.6l-14.31 0Z" id="p196w226" />
<path d="M141.58 695.57l18.43 0l0 14.6l-18.43 0Z" id="p196w227" />
<path d="M163.21 695.57l19.19 0l0 14.6l-19.19 0Z" id="p196w228" />
<path d="M185.7 694.33l42.05 0l0 16.35l-42.05 0Z" id="p196w229" />
<path d="M297.36 695.65l17.11 0l0 14.52l-17.11 0Z" id="p196w230" />
<path d="M317.67 695.65l57.21 0l0 14.52l-57.21 0Z" id="p196w231" />
<path d="M482.46 695.65l25.4 0l0 14.52l-25.4 0Z" id="p196w232" />
<path d="M511.07 695.65l18.19 0l0 14.52l-18.19 0Z" id="p196w233" />
<path d="M532.46 695.65l18.97 0l0 14.52l-18.97 0Z" id="p196w234" />
<path d="M554.64 695.65l21.65 0l0 14.52l-21.65 0Z" id="p196w235" />
<path d="M589.38 695.65l9.89 0l0 14.52l-9.89 0Z" id="p196w236" />
<path d="M602.47 695.65l28.33 0l0 14.52l-28.33 0Z" id="p196w237" />
<path d="M124.06 716.28l44.88 0l0 14.6l-44.88 0Z" id="p196w238" />
<path d="M172.15 716.28l12.67 0l0 14.6l-12.67 0Z" id="p196w239" />
<path d="M188.12 715.04l49.14 0l0 16.35l-49.14 0Z" id="p196w240" />
<path d="M129.97 741.93l44.88 0l0 14.6l-44.88 0Z" id="p196w241" />
<path d="M178.05 742l24.59 0l0 14.52l-24.59 0Z" id="p196w242" />
<path d="M205.85 742l19.77 0l0 14.52l-19.77 0Z" id="p196w243" />
<path d="M228.83 741.93l7.87 0l0 14.6l-7.87 0Z" id="p196w244" />
<path d="M236.7 741.93l15.19 0l0 14.6l-15.19 0Z" id="p196w245" />
<path d="M255.1 742l21.4 0l0 14.52l-21.4 0Z" id="p196w246" />
<path d="M279.7 741.93l19.13 0l0 14.6l-19.13 0Z" id="p196w247" />
<path d="M298.83 741.93l27.35 0l0 14.6l-27.35 0Z" id="p196w248" />
<path d="M329.38 742l59.56 0l0 14.52l-59.56 0Z" id="p196w249" />
<path d="M129.97 758.67l9.62 0l0 14.52l-9.62 0Z" id="p196w250" />
<path d="M142.8 758.67l48.05 0l0 14.52l-48.05 0Z" id="p196w251" />
<path d="M194.05 758.67l11.5 0l0 14.52l-11.5 0Z" id="p196w252" />
<path d="M208.76 758.67l48.05 0l0 14.52l-48.05 0Z" id="p196w253" />
<path d="M260.01 758.67l50.26 0l0 14.52l-50.26 0Z" id="p196w254" />
<path d="M313.48 758.67l46.98 0l0 14.52l-46.98 0Z" id="p196w255" />
<path d="M129.97 775.34l26.74 0l0 14.52l-26.74 0Z" id="p196w256" />
<path d="M159.92 775.34l39.76 0l0 14.52l-39.76 0Z" id="p196w257" />
<path d="M199.68 775.27l11.48 0l0 14.6l-11.48 0Z" id="p196w258" />
<path d="M211.16 775.34l22.47 0l0 14.52l-22.47 0Z" id="p196w259" />
<path d="M236.83 775.34l25.67 0l0 14.52l-25.67 0Z" id="p196w260" />
<path d="M265.71 775.34l39.76 0l0 14.52l-39.76 0Z" id="p196w261" />
<path d="M305.47 775.27l11.48 0l0 14.6l-11.48 0Z" id="p196w262" />
<path d="M316.95 775.34l15.25 0l0 14.52l-15.25 0Z" id="p196w263" />
<path d="M129.97 792.01l42.36 0l0 14.52l-42.36 0Z" id="p196w264" />
<path d="M175.53 792.01l39.76 0l0 14.52l-39.76 0Z" id="p196w265" />
<path d="M215.29 791.94l11.48 0l0 14.6l-11.48 0Z" id="p196w266" />
<path d="M226.77 792.01l21.34 0l0 14.52l-21.34 0Z" id="p196w267" />
<path d="M251.32 791.94l30.74 0l0 14.68l-30.74 0Z" id="p196w268" />
<path d="M285.27 791.94l47.06 0l0 14.68l-47.06 0Z" id="p196w269" />
<path d="M342.17 792.01l14.8 0l0 14.52l-14.8 0Z" id="p196w270" />
<path d="M360.18 792.01l39.76 0l0 14.52l-39.76 0Z" id="p196w271" />
<path d="M297.35 716.36l23.09 0l0 14.52l-23.09 0Z" id="p196w272" />
<path d="M323.64 716.36l64.87 0l0 14.52l-64.87 0Z" id="p196w273" />
<path d="M482.46 716.36l26.2 0l0 14.52l-26.2 0Z" id="p196w274" />
<path d="M511.86 716.36l23.24 0l0 14.52l-23.24 0Z" id="p196w275" />
<path d="M538.32 716.36l45.46 0l0 14.52l-45.46 0Z" id="p196w276" />
<path d="M586.98 716.36l15.5 0l0 14.52l-15.5 0Z" id="p196w277" />
<path d="M605.69 716.36l23.8 0l0 14.52l-23.8 0Z" id="p196w278" />
<path d="M632.69 716.36l24.58 0l0 14.52l-24.58 0Z" id="p196w279" />
<path d="M660.48 716.36l24.33 0l0 14.52l-24.33 0Z" id="p196w280" />
<path d="M482.46 733.04l45.37 0l0 14.52l-45.37 0Z" id="p196w281" />
<path d="M124.06 819.29l30.15 0l0 14.6l-30.15 0Z" id="p196w282" />
<path d="M157.41 819.29l32.19 0l0 14.6l-32.19 0Z" id="p196w283" />
<path d="M192.81 819.33l33.14 0l0 14.52l-33.14 0Z" id="p196w284" />
<path d="M229.16 818.05l29.3 0l0 16.35l-29.3 0Z" id="p196w285" />
<path d="M297.35 819.33l17.91 0l0 14.52l-17.91 0Z" id="p196w286" />
<path d="M318.47 819.33l48.1 0l0 14.52l-48.1 0Z" id="p196w287" />
<path d="M369.77 819.33l19.52 0l0 14.52l-19.52 0Z" id="p196w288" />
<path d="M392.5 819.33l50.51 0l0 14.52l-50.51 0Z" id="p196w289" />
<path d="M297.35 835.98l30.46 0l0 14.52l-30.46 0Z" id="p196w290" />
<path d="M482.46 819.33l10.43 0l0 14.52l-10.43 0Z" id="p196w291" />
<path d="M496.09 819.33l24.33 0l0 14.52l-24.33 0Z" id="p196w292" />
<path d="M523.63 819.33l22.99 0l0 14.52l-22.99 0Z" id="p196w293" />
<path d="M549.83 819.33l17.11 0l0 14.52l-17.11 0Z" id="p196w294" />
<path d="M570.14 819.33l35.28 0l0 14.52l-35.28 0Z" id="p196w295" />
<path d="M124.06 854.11l27.26 0l0 14.6l-27.26 0Z" id="p196w296" />
<path d="M154.52 854.11l13.87 0l0 14.6l-13.87 0Z" id="p196w297" />
<path d="M171.6 854.11l19.19 0l0 14.6l-19.19 0Z" id="p196w298" />
<path d="M194 854.15l33.14 0l0 14.52l-33.14 0Z" id="p196w299" />
<path d="M124.06 869.54l62.22 0l0 16.35l-62.22 0Z" id="p196w300" />
<path d="M297.35 854.18l16.31 0l0 14.52l-16.31 0Z" id="p196w301" />
<path d="M316.87 854.18l22.99 0l0 14.52l-22.99 0Z" id="p196w302" />
<path d="M343.07 854.18l27.27 0l0 14.52l-27.27 0Z" id="p196w303" />
<path d="M373.55 854.18l16.04 0l0 14.52l-16.04 0Z" id="p196w304" />
<path d="M392.79 854.15l30.46 0l0 14.52l-30.46 0Z" id="p196w305" />
<path d="M124.06 888.96l7.23 0l0 14.6l-7.23 0Z" id="p196w306" />
<path d="M153.62 888.96l13.87 0l0 14.6l-13.87 0Z" id="p196w307" />
<path d="M170.7 888.96l65.77 0l0 14.6l-65.77 0Z" id="p196w308" />
<path d="M124.06 904.39l100.61 0l0 16.35l-100.61 0Z" id="p196w309" />
<path d="M297.35 889l12.57 0l0 14.52l-12.57 0Z" id="p196w310" />
<path d="M313.12 889l13.36 0l0 14.52l-13.36 0Z" id="p196w311" />
<path d="M329.69 889l33.3 0l0 14.52l-33.3 0Z" id="p196w312" />
<path d="M366.2 889l18.45 0l0 14.52l-18.45 0Z" id="p196w313" />
<path d="M482.46 889l27.8 0l0 14.52l-27.8 0Z" id="p196w314" />
<path d="M513.46 889l25.13 0l0 14.52l-25.13 0Z" id="p196w315" />
<path d="M541.8 889l45.72 0l0 14.52l-45.72 0Z" id="p196w316" />
<path d="M590.73 889l6.41 0l0 14.52l-6.41 0Z" id="p196w317" />
<path d="M619.33 889l45.46 0l0 14.52l-45.46 0Z" id="p196w318" />
<path d="M482.46 905.67l13.9 0l0 14.52l-13.9 0Z" id="p196w319" />
<path d="M499.56 905.67l61.84 0l0 14.52l-61.84 0Z" id="p196w320" />
</svg>
