<?xml version="1.0" encoding="UTF-8"?>
<svg xmlns="http://www.w3.org/2000/svg" xmlns:xlink="http://www.w3.org/1999/xlink" version="1.1" baseProfile="full" width="768" height="1024" viewBox="0,0,768,1024" preserveAspectRatio="xMinYMin meet" >
<style type="text/css">
<![CDATA[
path {fill-opacity: 0.5;fill: #00aeef;visibility: hidden;}
]]>
</style>
<path d="M131.8 910.08l30.95 0l0 13.06l-30.95 0Z" id="p58w1" />
<path d="M165.62 910.08l11.34 0l0 13.06l-11.34 0Z" id="p58w2" />
<path d="M179.83 910.14l20.66 0l0 12.99l-20.66 0Z" id="p58w3" />
<path d="M203.35 910.14l71.28 0l0 12.99l-71.28 0Z" id="p58w4" />
<path d="M299.78 910.08l8.96 0l0 13.06l-8.96 0Z" id="p58w5" />
<path d="M311.61 910.08l27.48 0l0 13.06l-27.48 0Z" id="p58w6" />
<path d="M341.97 910.08l12.41 0l0 13.06l-12.41 0Z" id="p58w7" />
<path d="M357.25 910.08l37.12 0l0 13.06l-37.12 0Z" id="p58w8" />
<path d="M397.24 910.14l16.5 0l0 12.99l-16.5 0Z" id="p58w9" />
<path d="M416.6 910.14l70.42 0l0 12.99l-70.42 0Z" id="p58w10" />
<path d="M512.17 910.08l25.06 0l0 13.06l-25.06 0Z" id="p58w11" />
<path d="M540.1 910.08l11.34 0l0 13.06l-11.34 0Z" id="p58w12" />
<path d="M554.31 910.11l17.94 0l0 12.99l-17.94 0Z" id="p58w13" />
<path d="M575.12 910.14l20.66 0l0 12.99l-20.66 0Z" id="p58w14" />
<path d="M598.64 910.14l14.35 0l0 12.99l-14.35 0Z" id="p58w15" />
<path d="M615.86 910.14l30.38 0l0 12.99l-30.38 0Z" id="p58w16" />
<path d="M649.11 910.14l26.55 0l0 12.99l-26.55 0Z" id="p58w17" />
<path d="M132.67 925.36l34.15 0l0 13.06l-34.15 0Z" id="p58w18" />
<path d="M169.7 925.36l11.34 0l0 13.06l-11.34 0Z" id="p58w19" />
<path d="M183.9 925.36l12.44 0l0 13.06l-12.44 0Z" id="p58w20" />
<path d="M199.21 925.36l26.29 0l0 13.06l-26.29 0Z" id="p58w21" />
<path d="M228.37 925.4l17.94 0l0 12.99l-17.94 0Z" id="p58w22" />
<path d="M249.18 925.42l20.65 0l0 12.99l-20.65 0Z" id="p58w23" />
<path d="M272.7 925.42l42.04 0l0 12.99l-42.04 0Z" id="p58w24" />
<path d="M339.89 925.36l54.76 0l0 13.06l-54.76 0Z" id="p58w25" />
<path d="M397.52 925.36l17.55 0l0 13.06l-17.55 0Z" id="p58w26" />
<path d="M417.94 925.36l51.94 0l0 13.06l-51.94 0Z" id="p58w27" />
<path d="M472.75 925.42l27.74 0l0 12.99l-27.74 0Z" id="p58w28" />
<path d="M503.36 925.42l44.24 0l0 12.99l-44.24 0Z" id="p58w29" />
<path d="M550.47 925.42l28.93 0l0 12.99l-28.93 0Z" id="p58w30" />
<path d="M582.27 925.42l38.69 0l0 12.99l-38.69 0Z" id="p58w31" />
<path d="M132.67 940.64l45.73 0l0 13.06l-45.73 0Z" id="p58w32" />
<path d="M181.27 940.64l11.34 0l0 13.06l-11.34 0Z" id="p58w33" />
<path d="M195.48 940.7l20.66 0l0 12.99l-20.66 0Z" id="p58w34" />
<path d="M219 940.7l37.06 0l0 12.99l-37.06 0Z" id="p58w35" />
<path d="M124.06 104.82l22.17 0l0 23.34l-22.17 0Z" id="p58w36" />
<path d="M151.31 104.82l77.03 0l0 23.34l-77.03 0Z" id="p58w37" />
<path d="M233.42 104.82l173.96 0l0 23.34l-173.96 0Z" id="p58w38" />
<path d="M131.55 781.09l47.86 0l0 14.52l-47.86 0Z" id="p58w39" />
<path d="M182.61 781.09l19.52 0l0 14.52l-19.52 0Z" id="p58w40" />
<path d="M205.34 781.09l54 0l0 14.52l-54 0Z" id="p58w41" />
<path d="M262.55 781.09l55.16 0l0 14.52l-55.16 0Z" id="p58w42" />
<path d="M143.75 806.1l35.28 0l0 14.52l-35.28 0Z" id="p58w43" />
<path d="M182.24 806.1l16.83 0l0 14.52l-16.83 0Z" id="p58w44" />
<path d="M202.28 806.1l29.39 0l0 14.52l-29.39 0Z" id="p58w45" />
<path d="M234.88 806.1l13.9 0l0 14.52l-13.9 0Z" id="p58w46" />
<path d="M251.99 806.1l9.89 0l0 14.52l-9.89 0Z" id="p58w47" />
<path d="M265.08 806.1l41.97 0l0 14.52l-41.97 0Z" id="p58w48" />
<path d="M310.26 806.1l97.48 0l0 14.52l-97.48 0Z" id="p58w49" />
<path d="M143.75 822.78l49.75 0l0 14.52l-49.75 0Z" id="p58w50" />
<path d="M196.71 822.78l33.05 0l0 14.52l-33.05 0Z" id="p58w51" />
<path d="M232.97 822.78l35.82 0l0 14.52l-35.82 0Z" id="p58w52" />
<path d="M281.88 822.78l20.05 0l0 14.52l-20.05 0Z" id="p58w53" />
<path d="M305.14 822.78l9.89 0l0 14.52l-9.89 0Z" id="p58w54" />
<path d="M334.27 822.78l37.42 0l0 14.52l-37.42 0Z" id="p58w55" />
<path d="M383.19 822.78l55.9 0l0 14.52l-55.9 0Z" id="p58w56" />
<path d="M124.06 856.12l33.33 0l0 14.52l-33.33 0Z" id="p58w57" />
<path d="M160.6 856.12l30.23 0l0 14.52l-30.23 0Z" id="p58w58" />
<path d="M194.03 856.12l22.17 0l0 14.52l-22.17 0Z" id="p58w59" />
<path d="M219.41 856.12l9.89 0l0 14.52l-9.89 0Z" id="p58w60" />
<path d="M232.51 856.12l41.97 0l0 14.52l-41.97 0Z" id="p58w61" />
<path d="M277.69 856.12l97.48 0l0 14.52l-97.48 0Z" id="p58w62" />
<path d="M378.37 856.12l26.73 0l0 14.52l-26.73 0Z" id="p58w63" />
<path d="M408.31 856.12l28.87 0l0 14.52l-28.87 0Z" id="p58w64" />
<path d="M440.38 856.12l29.41 0l0 14.52l-29.41 0Z" id="p58w65" />
<path d="M481.29 856.12l10.16 0l0 14.52l-10.16 0Z" id="p58w66" />
<path d="M494.66 856.12l19.8 0l0 14.52l-19.8 0Z" id="p58w67" />
<path d="M517.67 856.12l49.1 0l0 14.52l-49.1 0Z" id="p58w68" />
<path d="M569.97 856.12l20.85 0l0 14.52l-20.85 0Z" id="p58w69" />
<path d="M124.06 872.79l25.67 0l0 14.52l-25.67 0Z" id="p58w70" />
<path d="M152.94 872.79l30.99 0l0 14.52l-30.99 0Z" id="p58w71" />
<path d="M187.14 872.79l12.57 0l0 14.52l-12.57 0Z" id="p58w72" />
<path d="M202.91 872.79l34.67 0l0 14.52l-34.67 0Z" id="p58w73" />
<path d="M249.09 872.79l10.16 0l0 14.52l-10.16 0Z" id="p58w74" />
<path d="M262.46 872.79l24.08 0l0 14.52l-24.08 0Z" id="p58w75" />
<path d="M289.74 872.79l39.56 0l0 14.52l-39.56 0Z" id="p58w76" />
<path d="M332.51 872.79l46.5 0l0 14.52l-46.5 0Z" id="p58w77" />
<path d="M382.21 872.79l62.21 0l0 14.52l-62.21 0Z" id="p58w78" />
<path d="M447.63 872.79l49.46 0l0 14.52l-49.46 0Z" id="p58w79" />
<path d="M68.74 108.62l19.22 0l0 12.3l-19.22 0Z" id="p58w80" />
<path d="M73.9 782.87l15.07 0l0 12.29l-15.07 0Z" id="p58w81" />
<path d="M131.64 38.6l36.57 0l0 16.09l-36.57 0Z" id="p58w82" />
<path d="M76.9 983l62.29 0l0 12.23l-62.29 0Z" id="p58w83" />
<path d="M137.95 163.91l13.07 0l0 15.09l-13.07 0Z" id="p58w84" />
<path d="M172.41 163.91l40.88 0l0 15.09l-40.88 0Z" id="p58w85" />
<path d="M216.9 163.91l31.89 0l0 15.09l-31.89 0Z" id="p58w86" />
<path d="M252.4 163.91l10.5 0l0 15.09l-10.5 0Z" id="p58w87" />
<path d="M266.51 163.91l55.44 0l0 15.09l-55.44 0Z" id="p58w88" />
<path d="M325.57 163.91l46.31 0l0 15.09l-46.31 0Z" id="p58w89" />
<path d="M124.06 180.58l44.36 0l0 15.09l-44.36 0Z" id="p58w90" />
<path d="M172.04 180.58l13.91 0l0 15.09l-13.91 0Z" id="p58w91" />
<path d="M189.56 180.58l37.87 0l0 15.09l-37.87 0Z" id="p58w92" />
<path d="M231.04 180.58l11.26 0l0 15.09l-11.26 0Z" id="p58w93" />
<path d="M245.91 180.58l10.5 0l0 15.09l-10.5 0Z" id="p58w94" />
<path d="M260.02 180.58l61.14 0l0 15.09l-61.14 0Z" id="p58w95" />
<path d="M324.77 180.58l54.8 0l0 15.09l-54.8 0Z" id="p58w96" />
<path d="M124.06 197.25l42.42 0l0 15.09l-42.42 0Z" id="p58w97" />
<path d="M170.1 197.25l56.75 0l0 15.09l-56.75 0Z" id="p58w98" />
<path d="M230.46 197.25l43.48 0l0 15.09l-43.48 0Z" id="p58w99" />
<path d="M281.66 197.26l10.5 0l0 15.09l-10.5 0Z" id="p58w100" />
<path d="M295.77 197.26l31.73 0l0 15.09l-31.73 0Z" id="p58w101" />
<path d="M331.11 197.26l13.91 0l0 15.09l-13.91 0Z" id="p58w102" />
<path d="M348.63 197.26l44.17 0l0 15.09l-44.17 0Z" id="p58w103" />
<path d="M124.06 213.93l15.09 0l0 15.09l-15.09 0Z" id="p58w104" />
<path d="M142.76 213.93l31.73 0l0 15.09l-31.73 0Z" id="p58w105" />
<path d="M178.1 213.93l19.63 0l0 15.09l-19.63 0Z" id="p58w106" />
<path d="M201.34 213.93l13.91 0l0 15.09l-13.91 0Z" id="p58w107" />
<path d="M218.85 213.93l10.42 0l0 15.09l-10.42 0Z" id="p58w108" />
<path d="M232.89 213.93l39.03 0l0 15.09l-39.03 0Z" id="p58w109" />
<path d="M275.53 213.93l11.26 0l0 15.09l-11.26 0Z" id="p58w110" />
<path d="M290.4 213.93l13.91 0l0 15.09l-13.91 0Z" id="p58w111" />
<path d="M307.92 213.93l69.04 0l0 15.09l-69.04 0Z" id="p58w112" />
<path d="M380.57 213.93l19.29 0l0 15.09l-19.29 0Z" id="p58w113" />
<path d="M124.06 230.6l66.47 0l0 15.09l-66.47 0Z" id="p58w114" />
<path d="M194.14 230.6l77.93 0l0 15.09l-77.93 0Z" id="p58w115" />
<path d="M275.69 230.6l11.26 0l0 15.09l-11.26 0Z" id="p58w116" />
<path d="M290.56 230.6l58.21 0l0 15.09l-58.21 0Z" id="p58w117" />
<path d="M352.37 230.6l11.26 0l0 15.09l-11.26 0Z" id="p58w118" />
<path d="M124.06 247.26l59.94 0l0 15.09l-59.94 0Z" id="p58w119" />
<path d="M187.61 247.26l28.89 0l0 15.09l-28.89 0Z" id="p58w120" />
<path d="M220.11 247.26l45.08 0l0 15.09l-45.08 0Z" id="p58w121" />
<path d="M268.81 247.26l31.23 0l0 15.09l-31.23 0Z" id="p58w122" />
<path d="M303.65 247.26l15.89 0l0 15.09l-15.89 0Z" id="p58w123" />
<path d="M323.15 247.26l28.84 0l0 15.09l-28.84 0Z" id="p58w124" />
<path d="M355.6 247.26l46.81 0l0 15.09l-46.81 0Z" id="p58w125" />
<path d="M440.94 372.31l15.55 0l0 15.09l-15.55 0Z" id="p58w126" />
<path d="M460.1 372.31l31.89 0l0 15.09l-31.89 0Z" id="p58w127" />
<path d="M505.7 372.31l57.74 0l0 15.09l-57.74 0Z" id="p58w128" />
<path d="M567.05 372.31l15.06 0l0 15.09l-15.06 0Z" id="p58w129" />
<path d="M607.31 372.32l72.79 0l0 15.09l-72.79 0Z" id="p58w130" />
<path d="M426.34 388.99l15.06 0l0 15.09l-15.06 0Z" id="p58w131" />
<path d="M445.01 388.99l31.73 0l0 15.09l-31.73 0Z" id="p58w132" />
<path d="M480.36 388.99l13.91 0l0 15.09l-13.91 0Z" id="p58w133" />
<path d="M497.87 388.99l47.73 0l0 15.09l-47.73 0Z" id="p58w134" />
<path d="M549.22 388.99l10.5 0l0 15.09l-10.5 0Z" id="p58w135" />
<path d="M563.33 388.99l55.44 0l0 15.09l-55.44 0Z" id="p58w136" />
<path d="M622.38 388.99l46.31 0l0 15.09l-46.31 0Z" id="p58w137" />
<path d="M426.34 405.66l43.7 0l0 15.09l-43.7 0Z" id="p58w138" />
<path d="M473.65 405.66l38.48 0l0 15.09l-38.48 0Z" id="p58w139" />
<path d="M515.74 405.66l11.26 0l0 15.09l-11.26 0Z" id="p58w140" />
<path d="M530.61 405.66l10.5 0l0 15.09l-10.5 0Z" id="p58w141" />
<path d="M544.72 405.66l61.14 0l0 15.09l-61.14 0Z" id="p58w142" />
<path d="M609.47 405.66l54.8 0l0 15.09l-54.8 0Z" id="p58w143" />
<path d="M426.34 422.33l48.48 0l0 15.09l-48.48 0Z" id="p58w144" />
<path d="M478.43 422.33l52.78 0l0 15.09l-52.78 0Z" id="p58w145" />
<path d="M534.82 422.33l50.52 0l0 15.09l-50.52 0Z" id="p58w146" />
<path d="M588.96 422.33l13.91 0l0 15.09l-13.91 0Z" id="p58w147" />
<path d="M606.47 422.33l30 0l0 15.09l-30 0Z" id="p58w148" />
<path d="M644.18 422.34l10.42 0l0 15.09l-10.42 0Z" id="p58w149" />
<path d="M658.22 422.34l45.37 0l0 15.09l-45.37 0Z" id="p58w150" />
<path d="M426.34 439.01l102.24 0l0 15.09l-102.24 0Z" id="p58w151" />
<path d="M532.19 439.01l19.01 0l0 15.09l-19.01 0Z" id="p58w152" />
<path d="M554.81 439.01l26.09 0l0 15.09l-26.09 0Z" id="p58w153" />
<path d="M584.51 439.01l22.13 0l0 15.09l-22.13 0Z" id="p58w154" />
<path d="M610.25 439.01l24.93 0l0 15.09l-24.93 0Z" id="p58w155" />
<path d="M638.8 439.01l15.89 0l0 15.09l-15.89 0Z" id="p58w156" />
<path d="M658.29 439.01l19.89 0l0 15.09l-19.89 0Z" id="p58w157" />
<path d="M681.8 439.01l10.5 0l0 15.09l-10.5 0Z" id="p58w158" />
<path d="M444.12 455.68l43.4 0l0 15.09l-43.4 0Z" id="p58w159" />
<path d="M491.13 455.68l13.4 0l0 15.09l-13.4 0Z" id="p58w160" />
<path d="M508.14 455.68l47.26 0l0 15.09l-47.26 0Z" id="p58w161" />
<path d="M559.01 455.68l28.89 0l0 15.09l-28.89 0Z" id="p58w162" />
<path d="M591.51 455.68l14.59 0l0 15.09l-14.59 0Z" id="p58w163" />
<path d="M609.71 455.68l30.66 0l0 15.09l-30.66 0Z" id="p58w164" />
<path d="M648.09 455.69l19.29 0l0 15.09l-19.29 0Z" id="p58w165" />
<path d="M426.34 472.35l58.14 0l0 15.09l-58.14 0Z" id="p58w166" />
<path d="M488.1 472.35l27.82 0l0 15.09l-27.82 0Z" id="p58w167" />
<path d="M519.53 472.35l65.69 0l0 15.09l-65.69 0Z" id="p58w168" />
<path d="M592.93 472.36l15.89 0l0 15.09l-15.89 0Z" id="p58w169" />
<path d="M612.43 472.36l38.23 0l0 15.09l-38.23 0Z" id="p58w170" />
<path d="M654.27 472.36l19.29 0l0 15.09l-19.29 0Z" id="p58w171" />
<path d="M426.34 489.03l28.84 0l0 15.09l-28.84 0Z" id="p58w172" />
<path d="M458.79 489.03l29.19 0l0 15.09l-29.19 0Z" id="p58w173" />
<path d="M136.16 564.06l28.61 0l0 15.09l-28.61 0Z" id="p58w174" />
<path d="M168.38 564.06l25.09 0l0 15.09l-25.09 0Z" id="p58w175" />
<path d="M197.08 564.06l71.7 0l0 15.09l-71.7 0Z" id="p58w176" />
<path d="M272.39 564.06l15.15 0l0 15.09l-15.15 0Z" id="p58w177" />
<path d="M291.15 564.06l25.65 0l0 15.09l-25.65 0Z" id="p58w178" />
<path d="M320.42 564.06l55.07 0l0 15.09l-55.07 0Z" id="p58w179" />
<path d="M123.89 580.73l15.89 0l0 15.09l-15.89 0Z" id="p58w180" />
<path d="M143.39 580.73l51.51 0l0 15.09l-51.51 0Z" id="p58w181" />
<path d="M198.51 580.73l31.23 0l0 15.09l-31.23 0Z" id="p58w182" />
<path d="M233.35 580.73l10.42 0l0 15.09l-10.42 0Z" id="p58w183" />
<path d="M247.38 580.73l39.03 0l0 15.09l-39.03 0Z" id="p58w184" />
<path d="M290.03 580.73l11.26 0l0 15.09l-11.26 0Z" id="p58w185" />
<path d="M304.9 580.73l69.04 0l0 15.09l-69.04 0Z" id="p58w186" />
<path d="M123.89 597.4l14.21 0l0 15.09l-14.21 0Z" id="p58w187" />
<path d="M141.71 597.4l39.38 0l0 15.09l-39.38 0Z" id="p58w188" />
<path d="M184.7 597.4l56.38 0l0 15.09l-56.38 0Z" id="p58w189" />
<path d="M244.7 597.4l11.26 0l0 15.09l-11.26 0Z" id="p58w190" />
<path d="M259.57 597.4l15.15 0l0 15.09l-15.15 0Z" id="p58w191" />
<path d="M278.33 597.4l25.65 0l0 15.09l-25.65 0Z" id="p58w192" />
<path d="M307.6 597.4l28.89 0l0 15.09l-28.89 0Z" id="p58w193" />
<path d="M340.1 597.4l26.89 0l0 15.09l-26.89 0Z" id="p58w194" />
<path d="M123.89 614.07l56.3 0l0 15.09l-56.3 0Z" id="p58w195" />
<path d="M183.81 614.07l10.42 0l0 15.09l-10.42 0Z" id="p58w196" />
<path d="M197.84 614.07l42.12 0l0 15.09l-42.12 0Z" id="p58w197" />
<path d="M243.57 614.07l11.26 0l0 15.09l-11.26 0Z" id="p58w198" />
<path d="M258.44 614.07l10.42 0l0 15.09l-10.42 0Z" id="p58w199" />
<path d="M272.47 614.07l39.62 0l0 15.09l-39.62 0Z" id="p58w200" />
<path d="M315.7 614.07l15.06 0l0 15.09l-15.06 0Z" id="p58w201" />
<path d="M334.38 614.07l26.03 0l0 15.09l-26.03 0Z" id="p58w202" />
<path d="M123.89 630.74l64.25 0l0 15.09l-64.25 0Z" id="p58w203" />
<path d="M123.89 647.4l28.72 0l0 15.09l-28.72 0Z" id="p58w204" />
<path d="M156.22 647.4l10.5 0l0 15.09l-10.5 0Z" id="p58w205" />
<path d="M188.11 647.4l40.88 0l0 15.09l-40.88 0Z" id="p58w206" />
<path d="M232.6 647.4l28.33 0l0 15.09l-28.33 0Z" id="p58w207" />
<path d="M264.54 647.4l33.81 0l0 15.09l-33.81 0Z" id="p58w208" />
<path d="M301.97 647.4l22.36 0l0 15.09l-22.36 0Z" id="p58w209" />
<path d="M327.94 647.4l27.82 0l0 15.09l-27.82 0Z" id="p58w210" />
<path d="M359.38 647.4l10.42 0l0 15.09l-10.42 0Z" id="p58w211" />
<path d="M123.89 664.07l53.99 0l0 15.09l-53.99 0Z" id="p58w212" />
<path d="M181.49 664.07l20.96 0l0 15.09l-20.96 0Z" id="p58w213" />
<path d="M206.06 664.07l10.42 0l0 15.09l-10.42 0Z" id="p58w214" />
<path d="M220.1 664.07l45.37 0l0 15.09l-45.37 0Z" id="p58w215" />
<path d="M269.08 664.07l105.4 0l0 15.09l-105.4 0Z" id="p58w216" />
<path d="M123.89 680.74l74.52 0l0 15.09l-74.52 0Z" id="p58w217" />
<path d="M202.02 680.74l15.89 0l0 15.09l-15.89 0Z" id="p58w218" />
<path d="M221.51 680.74l35.68 0l0 15.09l-35.68 0Z" id="p58w219" />
<path d="M260.8 680.74l59.48 0l0 15.09l-59.48 0Z" id="p58w220" />
<path d="M323.89 680.74l56.7 0l0 15.09l-56.7 0Z" id="p58w221" />
<path d="M123.89 697.41l59.3 0l0 15.09l-59.3 0Z" id="p58w222" />
<path d="M196.9 697.41l28.61 0l0 15.09l-28.61 0Z" id="p58w223" />
<path d="M229.12 697.41l25.09 0l0 15.09l-25.09 0Z" id="p58w224" />
<path d="M264.95 697.41l15.15 0l0 15.09l-15.15 0Z" id="p58w225" />
<path d="M283.72 697.41l49.78 0l0 15.09l-49.78 0Z" id="p58w226" />
<path d="M337.1 697.41l19.29 0l0 15.09l-19.29 0Z" id="p58w227" />
<path d="M123.89 714.08l63.24 0l0 15.09l-63.24 0Z" id="p58w228" />
<path d="M190.75 714.08l11.26 0l0 15.09l-11.26 0Z" id="p58w229" />
<path d="M205.61 714.08l19.29 0l0 15.09l-19.29 0Z" id="p58w230" />
<path d="M228.52 714.08l52.92 0l0 15.09l-52.92 0Z" id="p58w231" />
<path d="M285.05 714.08l15.15 0l0 15.09l-15.15 0Z" id="p58w232" />
<path d="M303.82 714.08l45.56 0l0 15.09l-45.56 0Z" id="p58w233" />
<path d="M352.99 714.08l19.29 0l0 15.09l-19.29 0Z" id="p58w234" />
<path d="M375.89 714.08l28.08 0l0 15.09l-28.08 0Z" id="p58w235" />
<path d="M123.89 730.75l15.06 0l0 15.09l-15.06 0Z" id="p58w236" />
<path d="M142.56 730.75l26.03 0l0 15.09l-26.03 0Z" id="p58w237" />
<path d="M172.2 730.75l64.65 0l0 15.09l-64.65 0Z" id="p58w238" />
<path d="M240.46 730.75l20.51 0l0 15.09l-20.51 0Z" id="p58w239" />
</svg>
