<?xml version="1.0" encoding="UTF-8"?>
<svg xmlns="http://www.w3.org/2000/svg" xmlns:xlink="http://www.w3.org/1999/xlink" version="1.1" baseProfile="full" width="768" height="1024" viewBox="0,0,768,1024" preserveAspectRatio="xMinYMin meet" >
<style type="text/css">
<![CDATA[
path {fill-opacity: 0.5;fill: #00aeef;visibility: hidden;}
]]>
</style>
<path d="M244.18 911.26l36.46 0l0 18.34l-36.46 0Z" id="p5w1" />
<path d="M284.7 911.26l33.08 0l0 18.34l-33.08 0Z" id="p5w2" />
<path d="M321.28 911.26l44.15 0l0 18.34l-44.15 0Z" id="p5w3" />
<path d="M244.18 930.72l63.72 0l0 18.34l-63.72 0Z" id="p5w4" />
<path d="M320.73 930.72l49.9 0l0 18.34l-49.9 0Z" id="p5w5" />
<path d="M244.18 156.38l25.68 0l0 18.34l-25.68 0Z" id="p5w6" />
<path d="M244.18 175.84l53.02 0l0 18.34l-53.02 0Z" id="p5w7" />
<path d="M301.26 175.84l62.47 0l0 18.34l-62.47 0Z" id="p5w8" />
<path d="M244.18 195.29l54.35 0l0 18.34l-54.35 0Z" id="p5w9" />
<path d="M302.59 195.29l45.57 0l0 18.34l-45.57 0Z" id="p5w10" />
<path d="M244.18 214.75l60.69 0l0 18.34l-60.69 0Z" id="p5w11" />
<path d="M308.93 214.75l49.63 0l0 18.34l-49.63 0Z" id="p5w12" />
<path d="M244.18 234.21l40.5 0l0 18.34l-40.5 0Z" id="p5w13" />
<path d="M288.73 234.21l56.05 0l0 18.34l-56.05 0Z" id="p5w14" />
<path d="M244.18 253.67l45.93 0l0 18.34l-45.93 0Z" id="p5w15" />
<path d="M294.17 253.67l35.11 0l0 18.34l-35.11 0Z" id="p5w16" />
<path d="M244.18 273.12l60.09 0l0 18.34l-60.09 0Z" id="p5w17" />
<path d="M308.32 273.12l54.04 0l0 18.34l-54.04 0Z" id="p5w18" />
<path d="M244.18 292.58l69.54 0l0 18.34l-69.54 0Z" id="p5w19" />
<path d="M317.78 292.58l44.92 0l0 18.34l-44.92 0Z" id="p5w20" />
<path d="M244.18 312.04l33.43 0l0 18.34l-33.43 0Z" id="p5w21" />
<path d="M281.67 312.04l48.4 0l0 18.34l-48.4 0Z" id="p5w22" />
<path d="M244.18 331.49l33.1 0l0 18.34l-33.1 0Z" id="p5w23" />
<path d="M281.33 331.49l92.85 0l0 18.34l-92.85 0Z" id="p5w24" />
<path d="M53.17 641.99l55.24 0l0 61.47l-55.24 0Z" id="p5w25" />
<path d="M123.27 641.99l134.66 0l0 61.47l-134.66 0Z" id="p5w26" />
<path d="M272.78 641.99l183.35 0l0 61.47l-183.35 0Z" id="p5w27" />
</svg>
