<?xml version="1.0" encoding="UTF-8"?>
<svg xmlns="http://www.w3.org/2000/svg" xmlns:xlink="http://www.w3.org/1999/xlink" version="1.1" baseProfile="full" width="768" height="1024" viewBox="0,0,768,1024" preserveAspectRatio="xMinYMin meet" >
<style type="text/css">
<![CDATA[
path {fill-opacity: 0.5;fill: #00aeef;visibility: hidden;}
]]>
</style>
<path d="M124.06 38.6l71 0l0 16.09l-71 0Z" id="p226w1" />
<path d="M78.77 983.66l106.88 0l0 12.23l-106.88 0Z" id="p226w2" />
<path d="M110.28 122.58l36.33 0l0 15.37l-36.33 0Z" id="p226w3" />
<path d="M149.71 122.58l70.83 0l0 15.37l-70.83 0Z" id="p226w4" />
<path d="M223.92 122.58l20.02 0l0 15.37l-20.02 0Z" id="p226w5" />
<path d="M247.31 122.58l26.18 0l0 15.37l-26.18 0Z" id="p226w6" />
<path d="M276.87 122.58l59.62 0l0 15.37l-59.62 0Z" id="p226w7" />
<path d="M110.28 153.29l6.47 0l0 13.06l-6.47 0Z" id="p226w8" />
<path d="M119.62 153.29l20.45 0l0 13.06l-20.45 0Z" id="p226w9" />
<path d="M142.94 153.29l18.75 0l0 13.06l-18.75 0Z" id="p226w10" />
<path d="M164.57 153.29l8.96 0l0 13.06l-8.96 0Z" id="p226w11" />
<path d="M176.4 153.29l19.47 0l0 13.06l-19.47 0Z" id="p226w12" />
<path d="M198.74 153.29l39.01 0l0 13.06l-39.01 0Z" id="p226w13" />
<path d="M402.7 153.36l15.08 0l0 12.99l-15.08 0Z" id="p226w14" />
<path d="M420.65 153.36l26.06 0l0 12.99l-26.06 0Z" id="p226w15" />
<path d="M449.59 153.36l43.43 0l0 12.99l-43.43 0Z" id="p226w16" />
<path d="M495.88 153.36l22.72 0l0 12.99l-22.72 0Z" id="p226w17" />
<path d="M110.28 174.29l9.45 0l0 13.06l-9.45 0Z" id="p226w18" />
<path d="M122.59 174.29l23.27 0l0 13.06l-23.27 0Z" id="p226w19" />
<path d="M148.73 174.29l18.75 0l0 13.06l-18.75 0Z" id="p226w20" />
<path d="M170.35 174.29l20.94 0l0 13.06l-20.94 0Z" id="p226w21" />
<path d="M194.16 174.29l8.96 0l0 13.06l-8.96 0Z" id="p226w22" />
<path d="M206 174.29l34.92 0l0 13.06l-34.92 0Z" id="p226w23" />
<path d="M243.79 174.29l32.02 0l0 13.06l-32.02 0Z" id="p226w24" />
<path d="M278.67 174.29l50.35 0l0 13.06l-50.35 0Z" id="p226w25" />
<path d="M402.7 174.36l15.08 0l0 12.99l-15.08 0Z" id="p226w26" />
<path d="M420.65 174.36l19.85 0l0 12.99l-19.85 0Z" id="p226w27" />
<path d="M443.38 174.36l22.47 0l0 12.99l-22.47 0Z" id="p226w28" />
<path d="M468.72 174.36l25.11 0l0 12.99l-25.11 0Z" id="p226w29" />
<path d="M496.7 174.36l56.91 0l0 12.99l-56.91 0Z" id="p226w30" />
<path d="M556.48 174.36l26.8 0l0 12.99l-26.8 0Z" id="p226w31" />
<path d="M110.28 195.29l48.49 0l0 13.06l-48.49 0Z" id="p226w32" />
<path d="M161.64 195.29l21.2 0l0 13.06l-21.2 0Z" id="p226w33" />
<path d="M185.71 195.29l28.46 0l0 13.06l-28.46 0Z" id="p226w34" />
<path d="M217.04 195.29l18.75 0l0 13.06l-18.75 0Z" id="p226w35" />
<path d="M238.66 195.29l8.96 0l0 13.06l-8.96 0Z" id="p226w36" />
<path d="M250.5 195.29l29.99 0l0 13.06l-29.99 0Z" id="p226w37" />
<path d="M292.21 195.29l15.09 0l0 13.06l-15.09 0Z" id="p226w38" />
<path d="M402.7 195.36l15.08 0l0 12.99l-15.08 0Z" id="p226w39" />
<path d="M420.65 195.36l37.79 0l0 12.99l-37.79 0Z" id="p226w40" />
<path d="M461.31 195.36l31.27 0l0 12.99l-31.27 0Z" id="p226w41" />
<path d="M495.46 195.36l22.47 0l0 12.99l-22.47 0Z" id="p226w42" />
<path d="M520.8 195.36l10.04 0l0 12.99l-10.04 0Z" id="p226w43" />
<path d="M533.71 195.36l26.78 0l0 12.99l-26.78 0Z" id="p226w44" />
<path d="M563.36 195.36l22.47 0l0 12.99l-22.47 0Z" id="p226w45" />
<path d="M588.71 195.36l14.6 0l0 12.99l-14.6 0Z" id="p226w46" />
<path d="M606.18 195.36l12.44 0l0 12.99l-12.44 0Z" id="p226w47" />
<path d="M621.48 195.36l15.79 0l0 12.99l-15.79 0Z" id="p226w48" />
<path d="M640.14 195.36l32.77 0l0 12.99l-32.77 0Z" id="p226w49" />
<path d="M110.28 216.29l9.45 0l0 13.06l-9.45 0Z" id="p226w50" />
<path d="M122.59 216.29l23.27 0l0 13.06l-23.27 0Z" id="p226w51" />
<path d="M148.73 216.29l18.75 0l0 13.06l-18.75 0Z" id="p226w52" />
<path d="M170.35 216.29l21.88 0l0 13.06l-21.88 0Z" id="p226w53" />
<path d="M195.11 216.29l14.1 0l0 13.06l-14.1 0Z" id="p226w54" />
<path d="M212.08 216.29l38.15 0l0 13.06l-38.15 0Z" id="p226w55" />
<path d="M253.09 216.29l25.6 0l0 13.06l-25.6 0Z" id="p226w56" />
<path d="M281.57 216.29l8.96 0l0 13.06l-8.96 0Z" id="p226w57" />
<path d="M293.4 216.29l23.89 0l0 13.06l-23.89 0Z" id="p226w58" />
<path d="M110.28 230.18l30.73 0l0 13.06l-30.73 0Z" id="p226w59" />
<path d="M152.73 230.18l34.26 0l0 13.06l-34.26 0Z" id="p226w60" />
<path d="M402.7 216.36l15.08 0l0 12.99l-15.08 0Z" id="p226w61" />
<path d="M420.65 216.36l19.85 0l0 12.99l-19.85 0Z" id="p226w62" />
<path d="M443.38 216.36l22.47 0l0 12.99l-22.47 0Z" id="p226w63" />
<path d="M468.72 216.36l17.69 0l0 12.99l-17.69 0Z" id="p226w64" />
<path d="M489.28 216.36l32.29 0l0 12.99l-32.29 0Z" id="p226w65" />
<path d="M524.44 216.36l17.46 0l0 12.99l-17.46 0Z" id="p226w66" />
<path d="M544.76 216.36l28.31 0l0 12.99l-28.31 0Z" id="p226w67" />
<path d="M575.94 216.36l33.73 0l0 12.99l-33.73 0Z" id="p226w68" />
<path d="M402.7 230.25l15.55 0l0 12.99l-15.55 0Z" id="p226w69" />
<path d="M421.13 230.25l33.02 0l0 12.99l-33.02 0Z" id="p226w70" />
<path d="M457.02 230.25l11.49 0l0 12.99l-11.49 0Z" id="p226w71" />
<path d="M471.38 230.25l33.67 0l0 12.99l-33.67 0Z" id="p226w72" />
<path d="M110.28 251.17l6.47 0l0 13.06l-6.47 0Z" id="p226w73" />
<path d="M119.62 251.17l15.31 0l0 13.06l-15.31 0Z" id="p226w74" />
<path d="M137.79 251.17l50.45 0l0 13.06l-50.45 0Z" id="p226w75" />
<path d="M191.12 251.17l18.75 0l0 13.06l-18.75 0Z" id="p226w76" />
<path d="M212.74 251.17l24.15 0l0 13.06l-24.15 0Z" id="p226w77" />
<path d="M239.76 251.17l40.99 0l0 13.06l-40.99 0Z" id="p226w78" />
<path d="M283.62 251.17l40.5 0l0 13.06l-40.5 0Z" id="p226w79" />
<path d="M326.99 251.17l28.69 0l0 13.06l-28.69 0Z" id="p226w80" />
<path d="M110.28 265.06l23.14 0l0 13.06l-23.14 0Z" id="p226w81" />
<path d="M136.28 265.06l84.16 0l0 13.06l-84.16 0Z" id="p226w82" />
<path d="M402.7 251.25l11.24 0l0 12.99l-11.24 0Z" id="p226w83" />
<path d="M416.81 251.25l11.95 0l0 12.99l-11.95 0Z" id="p226w84" />
<path d="M431.64 251.25l39.41 0l0 12.99l-39.41 0Z" id="p226w85" />
<path d="M473.92 251.25l22.47 0l0 12.99l-22.47 0Z" id="p226w86" />
<path d="M499.26 251.25l15.78 0l0 12.99l-15.78 0Z" id="p226w87" />
<path d="M517.91 251.25l29.8 0l0 12.99l-29.8 0Z" id="p226w88" />
<path d="M550.57 251.25l14.11 0l0 12.99l-14.11 0Z" id="p226w89" />
<path d="M567.56 251.25l15.31 0l0 12.99l-15.31 0Z" id="p226w90" />
<path d="M585.73 251.25l38.97 0l0 12.99l-38.97 0Z" id="p226w91" />
<path d="M627.57 251.25l42.34 0l0 12.99l-42.34 0Z" id="p226w92" />
<path d="M413.74 688.19l13.31 0l0 12.99l-13.31 0Z" id="p226w93" />
<path d="M431.47 688.19l19.29 0l0 12.99l-19.29 0Z" id="p226w94" />
<path d="M413.74 709.19l12.68 0l0 12.99l-12.68 0Z" id="p226w95" />
<path d="M429.29 709.19l40.67 0l0 12.99l-40.67 0Z" id="p226w96" />
<path d="M524.02 709.19l18.66 0l0 12.99l-18.66 0Z" id="p226w97" />
<path d="M545.55 709.19l46.65 0l0 12.99l-46.65 0Z" id="p226w98" />
<path d="M413.74 730.18l12.68 0l0 12.99l-12.68 0Z" id="p226w99" />
<path d="M429.29 730.18l50.65 0l0 12.99l-50.65 0Z" id="p226w100" />
<path d="M524.02 730.18l18.66 0l0 12.99l-18.66 0Z" id="p226w101" />
<path d="M545.55 730.18l56.63 0l0 12.99l-56.63 0Z" id="p226w102" />
<path d="M413.74 763l71.76 0l0 12.99l-71.76 0Z" id="p226w103" />
<path d="M413.74 784l12.68 0l0 12.99l-12.68 0Z" id="p226w104" />
<path d="M429.29 784l12.92 0l0 12.99l-12.92 0Z" id="p226w105" />
<path d="M446.64 784l18.66 0l0 12.99l-18.66 0Z" id="p226w106" />
<path d="M468.17 784l25.34 0l0 12.99l-25.34 0Z" id="p226w107" />
<path d="M501.85 784l12.68 0l0 12.99l-12.68 0Z" id="p226w108" />
<path d="M517.4 784l27.51 0l0 12.99l-27.51 0Z" id="p226w109" />
<path d="M549.34 784l18.66 0l0 12.99l-18.66 0Z" id="p226w110" />
<path d="M570.87 784l37.79 0l0 12.99l-37.79 0Z" id="p226w111" />
<path d="M617 784l12.68 0l0 12.99l-12.68 0Z" id="p226w112" />
<path d="M632.55 784l33.26 0l0 12.99l-33.26 0Z" id="p226w113" />
<path d="M413.74 797.89l18.66 0l0 12.99l-18.66 0Z" id="p226w114" />
<path d="M435.26 797.89l33.26 0l0 12.99l-33.26 0Z" id="p226w115" />
<path d="M476.86 797.89l12.68 0l0 12.99l-12.68 0Z" id="p226w116" />
<path d="M492.41 797.89l16.27 0l0 12.99l-16.27 0Z" id="p226w117" />
<path d="M513.12 797.89l18.66 0l0 12.99l-18.66 0Z" id="p226w118" />
<path d="M534.65 797.89l21.77 0l0 12.99l-21.77 0Z" id="p226w119" />
<path d="M110.28 304.07l144.21 0l0 15.37l-144.21 0Z" id="p226w120" />
<path d="M110.28 334.85l12.68 0l0 12.99l-12.68 0Z" id="p226w121" />
<path d="M127.39 334.85l18.66 0l0 12.99l-18.66 0Z" id="p226w122" />
<path d="M148.92 334.85l77.25 0l0 12.99l-77.25 0Z" id="p226w123" />
<path d="M413.73 330.92l12.68 0l0 12.99l-12.68 0Z" id="p226w124" />
<path d="M430.85 330.92l18.66 0l0 12.99l-18.66 0Z" id="p226w125" />
<path d="M452.37 330.92l64.53 0l0 12.99l-64.53 0Z" id="p226w126" />
<path d="M110.28 355.86l12.68 0l0 12.99l-12.68 0Z" id="p226w127" />
<path d="M127.39 355.86l18.66 0l0 12.99l-18.66 0Z" id="p226w128" />
<path d="M148.92 355.86l27.93 0l0 12.99l-27.93 0Z" id="p226w129" />
<path d="M413.73 355.86l12.68 0l0 12.99l-12.68 0Z" id="p226w130" />
<path d="M430.85 355.86l18.66 0l0 12.99l-18.66 0Z" id="p226w131" />
<path d="M452.37 355.86l58.83 0l0 12.99l-58.83 0Z" id="p226w132" />
<path d="M110.28 376.86l12.68 0l0 12.99l-12.68 0Z" id="p226w133" />
<path d="M127.39 376.86l18.66 0l0 12.99l-18.66 0Z" id="p226w134" />
<path d="M148.92 376.86l49.97 0l0 12.99l-49.97 0Z" id="p226w135" />
<path d="M413.73 376.86l12.68 0l0 12.99l-12.68 0Z" id="p226w136" />
<path d="M430.85 376.86l18.66 0l0 12.99l-18.66 0Z" id="p226w137" />
<path d="M452.37 376.86l38.5 0l0 12.99l-38.5 0Z" id="p226w138" />
<path d="M110.28 400.78l12.68 0l0 12.99l-12.68 0Z" id="p226w139" />
<path d="M127.39 400.78l18.66 0l0 12.99l-18.66 0Z" id="p226w140" />
<path d="M148.92 400.78l52.38 0l0 12.99l-52.38 0Z" id="p226w141" />
<path d="M117.98 433.6l9.25 0l0 12.99l-9.25 0Z" id="p226w142" />
<path d="M413.73 433.6l19.53 0l0 12.99l-19.53 0Z" id="p226w143" />
<path d="M433.27 433.6l30.89 0l0 12.99l-30.89 0Z" id="p226w144" />
<path d="M110.28 454.6l12.68 0l0 12.99l-12.68 0Z" id="p226w145" />
<path d="M125.83 454.6l27.51 0l0 12.99l-27.51 0Z" id="p226w146" />
<path d="M218.79 454.6l18.66 0l0 12.99l-18.66 0Z" id="p226w147" />
<path d="M240.32 454.6l33.48 0l0 12.99l-33.48 0Z" id="p226w148" />
<path d="M413.74 454.6l12.68 0l0 12.99l-12.68 0Z" id="p226w149" />
<path d="M429.3 454.6l44.44 0l0 12.99l-44.44 0Z" id="p226w150" />
<path d="M524.03 454.6l18.66 0l0 12.99l-18.66 0Z" id="p226w151" />
<path d="M545.55 454.6l51.37 0l0 12.99l-51.37 0Z" id="p226w152" />
<path d="M110.29 475.6l12.68 0l0 12.99l-12.68 0Z" id="p226w153" />
<path d="M125.84 475.6l32.06 0l0 12.99l-32.06 0Z" id="p226w154" />
<path d="M218.8 475.6l18.66 0l0 12.99l-18.66 0Z" id="p226w155" />
<path d="M240.33 475.6l38.04 0l0 12.99l-38.04 0Z" id="p226w156" />
<path d="M413.76 475.6l12.68 0l0 12.99l-12.68 0Z" id="p226w157" />
<path d="M429.31 475.6l44.49 0l0 12.99l-44.49 0Z" id="p226w158" />
<path d="M524.04 475.6l18.66 0l0 12.99l-18.66 0Z" id="p226w159" />
<path d="M545.57 475.6l51.42 0l0 12.99l-51.42 0Z" id="p226w160" />
<path d="M110.3 496.6l12.68 0l0 12.99l-12.68 0Z" id="p226w161" />
<path d="M125.85 496.6l42.57 0l0 12.99l-42.57 0Z" id="p226w162" />
<path d="M218.81 496.6l18.66 0l0 12.99l-18.66 0Z" id="p226w163" />
<path d="M240.34 496.6l48.55 0l0 12.99l-48.55 0Z" id="p226w164" />
<path d="M413.77 496.6l12.68 0l0 12.99l-12.68 0Z" id="p226w165" />
<path d="M429.32 496.6l47.3 0l0 12.99l-47.3 0Z" id="p226w166" />
<path d="M524.05 496.6l18.66 0l0 12.99l-18.66 0Z" id="p226w167" />
<path d="M545.58 496.6l54.23 0l0 12.99l-54.23 0Z" id="p226w168" />
<path d="M110.31 517.6l12.68 0l0 12.99l-12.68 0Z" id="p226w169" />
<path d="M125.87 517.6l35.87 0l0 12.99l-35.87 0Z" id="p226w170" />
<path d="M218.82 517.6l18.66 0l0 12.99l-18.66 0Z" id="p226w171" />
<path d="M240.35 517.6l41.84 0l0 12.99l-41.84 0Z" id="p226w172" />
<path d="M413.78 517.6l12.68 0l0 12.99l-12.68 0Z" id="p226w173" />
<path d="M429.33 517.6l30.86 0l0 12.99l-30.86 0Z" id="p226w174" />
<path d="M524.06 517.6l18.66 0l0 12.99l-18.66 0Z" id="p226w175" />
<path d="M545.59 517.6l37.79 0l0 12.99l-37.79 0Z" id="p226w176" />
<path d="M110.32 538.59l12.68 0l0 12.99l-12.68 0Z" id="p226w177" />
<path d="M125.88 538.59l64.55 0l0 12.99l-64.55 0Z" id="p226w178" />
<path d="M218.83 538.59l18.66 0l0 12.99l-18.66 0Z" id="p226w179" />
<path d="M240.36 538.59l70.53 0l0 12.99l-70.53 0Z" id="p226w180" />
<path d="M413.79 538.59l12.68 0l0 12.99l-12.68 0Z" id="p226w181" />
<path d="M429.35 538.59l36.59 0l0 12.99l-36.59 0Z" id="p226w182" />
<path d="M524.07 538.59l18.66 0l0 12.99l-18.66 0Z" id="p226w183" />
<path d="M545.6 538.59l43.52 0l0 12.99l-43.52 0Z" id="p226w184" />
<path d="M110.34 559.59l12.68 0l0 12.99l-12.68 0Z" id="p226w185" />
<path d="M125.89 559.59l51.89 0l0 12.99l-51.89 0Z" id="p226w186" />
<path d="M218.85 559.59l18.66 0l0 12.99l-18.66 0Z" id="p226w187" />
<path d="M240.37 559.59l57.87 0l0 12.99l-57.87 0Z" id="p226w188" />
<path d="M413.8 559.59l12.68 0l0 12.99l-12.68 0Z" id="p226w189" />
<path d="M429.36 559.59l50.72 0l0 12.99l-50.72 0Z" id="p226w190" />
<path d="M524.08 559.59l18.66 0l0 12.99l-18.66 0Z" id="p226w191" />
<path d="M545.61 559.59l57.66 0l0 12.99l-57.66 0Z" id="p226w192" />
<path d="M110.35 592.41l23.6 0l0 12.99l-23.6 0Z" id="p226w193" />
<path d="M138.37 592.41l25.51 0l0 12.99l-25.51 0Z" id="p226w194" />
<path d="M413.8 592.41l18.58 0l0 12.99l-18.58 0Z" id="p226w195" />
<path d="M436.81 592.41l31.01 0l0 12.99l-31.01 0Z" id="p226w196" />
<path d="M110.35 613.41l12.68 0l0 12.99l-12.68 0Z" id="p226w197" />
<path d="M125.9 613.41l41.61 0l0 12.99l-41.61 0Z" id="p226w198" />
<path d="M218.86 613.41l18.66 0l0 12.99l-18.66 0Z" id="p226w199" />
<path d="M240.39 613.41l43.52 0l0 12.99l-43.52 0Z" id="p226w200" />
<path d="M413.82 613.41l12.68 0l0 12.99l-12.68 0Z" id="p226w201" />
<path d="M429.37 613.41l56.92 0l0 12.99l-56.92 0Z" id="p226w202" />
<path d="M524.1 613.41l18.66 0l0 12.99l-18.66 0Z" id="p226w203" />
<path d="M545.63 613.41l69.36 0l0 12.99l-69.36 0Z" id="p226w204" />
<path d="M110.36 634.41l12.68 0l0 12.99l-12.68 0Z" id="p226w205" />
<path d="M125.91 634.41l58.1 0l0 12.99l-58.1 0Z" id="p226w206" />
<path d="M218.87 634.41l18.66 0l0 12.99l-18.66 0Z" id="p226w207" />
<path d="M240.4 634.41l60.02 0l0 12.99l-60.02 0Z" id="p226w208" />
<path d="M413.83 634.41l12.68 0l0 12.99l-12.68 0Z" id="p226w209" />
<path d="M429.38 634.41l44.49 0l0 12.99l-44.49 0Z" id="p226w210" />
<path d="M524.11 634.41l18.66 0l0 12.99l-18.66 0Z" id="p226w211" />
<path d="M545.64 634.41l56.92 0l0 12.99l-56.92 0Z" id="p226w212" />
<path d="M110.37 655.41l12.68 0l0 12.99l-12.68 0Z" id="p226w213" />
<path d="M125.93 655.41l63.16 0l0 12.99l-63.16 0Z" id="p226w214" />
<path d="M218.88 655.41l18.66 0l0 12.99l-18.66 0Z" id="p226w215" />
<path d="M240.41 655.41l65.07 0l0 12.99l-65.07 0Z" id="p226w216" />
<path d="M413.84 655.41l12.68 0l0 12.99l-12.68 0Z" id="p226w217" />
<path d="M429.39 655.41l66.73 0l0 12.99l-66.73 0Z" id="p226w218" />
<path d="M524.12 655.41l18.66 0l0 12.99l-18.66 0Z" id="p226w219" />
<path d="M545.65 655.41l79.16 0l0 12.99l-79.16 0Z" id="p226w220" />
<path d="M110.38 676.4l12.68 0l0 12.99l-12.68 0Z" id="p226w221" />
<path d="M125.94 676.4l48.07 0l0 12.99l-48.07 0Z" id="p226w222" />
<path d="M218.89 676.4l18.66 0l0 12.99l-18.66 0Z" id="p226w223" />
<path d="M240.42 676.4l49.98 0l0 12.99l-49.98 0Z" id="p226w224" />
<path d="M110.38 697.4l12.68 0l0 12.99l-12.68 0Z" id="p226w225" />
<path d="M125.94 697.4l50.22 0l0 12.99l-50.22 0Z" id="p226w226" />
<path d="M218.89 697.4l18.66 0l0 12.99l-18.66 0Z" id="p226w227" />
<path d="M240.42 697.4l52.13 0l0 12.99l-52.13 0Z" id="p226w228" />
<path d="M110.38 730.22l16.18 0l0 12.99l-16.18 0Z" id="p226w229" />
<path d="M130.99 730.22l22.16 0l0 12.99l-22.16 0Z" id="p226w230" />
<path d="M110.38 751.22l12.68 0l0 12.99l-12.68 0Z" id="p226w231" />
<path d="M125.94 751.22l33.48 0l0 12.99l-33.48 0Z" id="p226w232" />
<path d="M218.89 751.22l18.66 0l0 12.99l-18.66 0Z" id="p226w233" />
<path d="M240.42 751.22l39.46 0l0 12.99l-39.46 0Z" id="p226w234" />
<path d="M110.38 772.22l12.68 0l0 12.99l-12.68 0Z" id="p226w235" />
<path d="M125.94 772.22l16.03 0l0 12.99l-16.03 0Z" id="p226w236" />
<path d="M141.96 772.22l26.77 0l0 12.99l-26.77 0Z" id="p226w237" />
<path d="M218.89 772.22l18.66 0l0 12.99l-18.66 0Z" id="p226w238" />
<path d="M240.42 772.22l16.03 0l0 12.99l-16.03 0Z" id="p226w239" />
<path d="M256.45 772.22l32.75 0l0 12.99l-32.75 0Z" id="p226w240" />
</svg>
