<?xml version="1.0" encoding="UTF-8"?>
<svg xmlns="http://www.w3.org/2000/svg" xmlns:xlink="http://www.w3.org/1999/xlink" version="1.1" baseProfile="full" width="768" height="1024" viewBox="0,0,768,1024" preserveAspectRatio="xMinYMin meet" >
<style type="text/css">
<![CDATA[
path {fill-opacity: 0.5;fill: #00aeef;visibility: hidden;}
]]>
</style>
<path d="M124.06 107.98l23.83 0l0 18.84l-23.83 0Z" id="p97w1" />
<path d="M151.54 107.98l18.36 0l0 18.84l-18.36 0Z" id="p97w2" />
<path d="M173.54 107.98l37.28 0l0 18.84l-37.28 0Z" id="p97w3" />
<path d="M124.06 139.19l31.01 0l0 14.52l-31.01 0Z" id="p97w4" />
<path d="M158.27 139.19l28.06 0l0 14.52l-28.06 0Z" id="p97w5" />
<path d="M189.54 139.19l11.22 0l0 14.52l-11.22 0Z" id="p97w6" />
<path d="M203.97 139.19l65.22 0l0 14.52l-65.22 0Z" id="p97w7" />
<path d="M272.4 139.19l25.67 0l0 14.52l-25.67 0Z" id="p97w8" />
<path d="M301.28 139.19l32.87 0l0 14.52l-32.87 0Z" id="p97w9" />
<path d="M337.35 139.19l23.97 0l0 14.52l-23.97 0Z" id="p97w10" />
<path d="M364.53 139.19l7.48 0l0 14.52l-7.48 0Z" id="p97w11" />
<path d="M372.01 139.19l14.16 0l0 14.52l-14.16 0Z" id="p97w12" />
<path d="M389.38 139.19l33.05 0l0 14.52l-33.05 0Z" id="p97w13" />
<path d="M425.64 139.19l20.85 0l0 14.52l-20.85 0Z" id="p97w14" />
<path d="M449.7 139.19l25.67 0l0 14.52l-25.67 0Z" id="p97w15" />
<path d="M478.58 139.19l41.45 0l0 14.52l-41.45 0Z" id="p97w16" />
<path d="M124.06 155.86l26.73 0l0 14.52l-26.73 0Z" id="p97w17" />
<path d="M154 155.86l9.89 0l0 14.52l-9.89 0Z" id="p97w18" />
<path d="M167.09 155.86l28.33 0l0 14.52l-28.33 0Z" id="p97w19" />
<path d="M206.91 155.86l59.34 0l0 14.52l-59.34 0Z" id="p97w20" />
<path d="M269.47 155.83l15.77 0l0 14.52l-15.77 0Z" id="p97w21" />
<path d="M288.45 155.83l17.11 0l0 14.52l-17.11 0Z" id="p97w22" />
<path d="M123.63 430.96l26.21 0l0 14.52l-26.21 0Z" id="p97w23" />
<path d="M153.05 430.96l23.51 0l0 14.52l-23.51 0Z" id="p97w24" />
<path d="M179.76 430.96l13.9 0l0 14.52l-13.9 0Z" id="p97w25" />
<path d="M196.87 430.96l36.89 0l0 14.52l-36.89 0Z" id="p97w26" />
<path d="M236.97 430.96l11.22 0l0 14.52l-11.22 0Z" id="p97w27" />
<path d="M251.4 430.96l28.87 0l0 14.52l-28.87 0Z" id="p97w28" />
<path d="M283.47 430.96l34.21 0l0 14.52l-34.21 0Z" id="p97w29" />
<path d="M320.89 430.96l25.67 0l0 14.52l-25.67 0Z" id="p97w30" />
<path d="M349.77 430.96l44.92 0l0 14.52l-44.92 0Z" id="p97w31" />
<path d="M397.89 430.96l33.67 0l0 14.52l-33.67 0Z" id="p97w32" />
<path d="M434.77 430.96l13.63 0l0 14.52l-13.63 0Z" id="p97w33" />
<path d="M451.62 430.96l43.31 0l0 14.52l-43.31 0Z" id="p97w34" />
<path d="M124.06 447.63l27.53 0l0 14.52l-27.53 0Z" id="p97w35" />
<path d="M154.8 447.63l15.5 0l0 14.52l-15.5 0Z" id="p97w36" />
<path d="M173.51 447.63l47.03 0l0 14.52l-47.03 0Z" id="p97w37" />
<path d="M223.74 447.63l26.73 0l0 14.52l-26.73 0Z" id="p97w38" />
<path d="M253.68 447.63l9.89 0l0 14.52l-9.89 0Z" id="p97w39" />
<path d="M266.77 447.63l67.83 0l0 14.52l-67.83 0Z" id="p97w40" />
<path d="M337.81 447.63l49.11 0l0 14.52l-49.11 0Z" id="p97w41" />
<path d="M390.13 447.63l15.5 0l0 14.52l-15.5 0Z" id="p97w42" />
<path d="M408.84 447.63l18.44 0l0 14.52l-18.44 0Z" id="p97w43" />
<path d="M427.27 447.63l25.4 0l0 14.52l-25.4 0Z" id="p97w44" />
<path d="M455.88 447.63l11.22 0l0 14.52l-11.22 0Z" id="p97w45" />
<path d="M470.3 447.63l52.94 0l0 14.52l-52.94 0Z" id="p97w46" />
<path d="M133.95 464.3l28.87 0l0 14.52l-28.87 0Z" id="p97w47" />
<path d="M166.02 464.3l57.98 0l0 14.52l-57.98 0Z" id="p97w48" />
<path d="M227.21 464.3l24.06 0l0 14.52l-24.06 0Z" id="p97w49" />
<path d="M254.48 464.3l7.48 0l0 14.52l-7.48 0Z" id="p97w50" />
<path d="M261.97 464.3l14.16 0l0 14.52l-14.16 0Z" id="p97w51" />
<path d="M279.34 464.3l25.67 0l0 14.52l-25.67 0Z" id="p97w52" />
<path d="M308.22 464.3l69.47 0l0 14.52l-69.47 0Z" id="p97w53" />
<path d="M380.89 464.3l9.89 0l0 14.52l-9.89 0Z" id="p97w54" />
<path d="M393.99 464.3l22.99 0l0 14.52l-22.99 0Z" id="p97w55" />
<path d="M425.23 464.3l9.89 0l0 14.52l-9.89 0Z" id="p97w56" />
<path d="M438.32 464.3l36.63 0l0 14.52l-36.63 0Z" id="p97w57" />
<path d="M73.54 432.74l15.07 0l0 12.29l-15.07 0Z" id="p97w58" />
<path d="M60.68 449.41l27.93 0l0 12.29l-27.93 0Z" id="p97w59" />
<path d="M129.75 932.32l8.96 0l0 13.06l-8.96 0Z" id="p97w60" />
<path d="M141.59 932.32l27.85 0l0 13.06l-27.85 0Z" id="p97w61" />
<path d="M172.3 932.32l12.41 0l0 13.06l-12.41 0Z" id="p97w62" />
<path d="M187.59 932.32l59.13 0l0 13.06l-59.13 0Z" id="p97w63" />
<path d="M249.59 932.38l111.66 0l0 12.99l-111.66 0Z" id="p97w64" />
<path d="M364.12 932.38l16.73 0l0 12.99l-16.73 0Z" id="p97w65" />
<path d="M383.73 932.38l105.69 0l0 12.99l-105.69 0Z" id="p97w66" />
<path d="M245.98 505.7l34.31 0l0 15.09l-34.31 0Z" id="p97w67" />
<path d="M283.51 505.7l28.94 0l0 15.09l-28.94 0Z" id="p97w68" />
<path d="M315.66 505.7l51.46 0l0 15.09l-51.46 0Z" id="p97w69" />
<path d="M370.34 505.7l42.33 0l0 15.09l-42.33 0Z" id="p97w70" />
<path d="M415.88 505.7l44.61 0l0 15.09l-44.61 0Z" id="p97w71" />
<path d="M479.82 505.7l40.95 0l0 15.09l-40.95 0Z" id="p97w72" />
<path d="M245.98 530.71l32.23 0l0 15.09l-32.23 0Z" id="p97w73" />
<path d="M281.82 530.71l16.64 0l0 15.09l-16.64 0Z" id="p97w74" />
<path d="M302.08 530.71l15.74 0l0 15.09l-15.74 0Z" id="p97w75" />
<path d="M321.43 530.71l40.54 0l0 15.09l-40.54 0Z" id="p97w76" />
<path d="M365.58 530.71l19.01 0l0 15.09l-19.01 0Z" id="p97w77" />
<path d="M388.2 530.71l37.13 0l0 15.09l-37.13 0Z" id="p97w78" />
<path d="M428.94 530.71l14.59 0l0 15.09l-14.59 0Z" id="p97w79" />
<path d="M447.14 530.71l44.56 0l0 15.09l-44.56 0Z" id="p97w80" />
<path d="M495.31 530.71l40.56 0l0 15.09l-40.56 0Z" id="p97w81" />
<path d="M539.48 530.71l19.29 0l0 15.09l-19.29 0Z" id="p97w82" />
<path d="M562.38 530.71l44.61 0l0 15.09l-44.61 0Z" id="p97w83" />
<path d="M610.6 530.71l7.84 0l0 15.09l-7.84 0Z" id="p97w84" />
<path d="M622.05 530.71l25.19 0l0 15.09l-25.19 0Z" id="p97w85" />
<path d="M650.86 530.71l13.91 0l0 15.09l-13.91 0Z" id="p97w86" />
<path d="M245.98 547.38l57.59 0l0 15.09l-57.59 0Z" id="p97w87" />
<path d="M307.18 547.38l25.69 0l0 15.09l-25.69 0Z" id="p97w88" />
<path d="M336.48 547.38l11.88 0l0 15.09l-11.88 0Z" id="p97w89" />
<path d="M351.97 547.38l33.9 0l0 15.09l-33.9 0Z" id="p97w90" />
<path d="M389.49 547.38l60.74 0l0 15.09l-60.74 0Z" id="p97w91" />
<path d="M453.83 547.38l14.21 0l0 15.09l-14.21 0Z" id="p97w92" />
<path d="M471.66 547.38l32.37 0l0 15.09l-32.37 0Z" id="p97w93" />
<path d="M507.65 547.38l13.91 0l0 15.09l-13.91 0Z" id="p97w94" />
<path d="M525.16 547.38l72.28 0l0 15.09l-72.28 0Z" id="p97w95" />
<path d="M615.26 547.39l31.38 0l0 15.09l-31.38 0Z" id="p97w96" />
<path d="M245.98 564.06l17.05 0l0 15.09l-17.05 0Z" id="p97w97" />
<path d="M266.65 564.06l27.13 0l0 15.09l-27.13 0Z" id="p97w98" />
<path d="M297.39 564.06l15.15 0l0 15.09l-15.15 0Z" id="p97w99" />
<path d="M316.15 564.06l41.13 0l0 15.09l-41.13 0Z" id="p97w100" />
<path d="M360.89 564.06l25.69 0l0 15.09l-25.69 0Z" id="p97w101" />
<path d="M390.19 564.06l11.88 0l0 15.09l-11.88 0Z" id="p97w102" />
<path d="M405.68 564.06l33.9 0l0 15.09l-33.9 0Z" id="p97w103" />
<path d="M453.3 564.06l12.66 0l0 15.09l-12.66 0Z" id="p97w104" />
<path d="M469.57 564.06l34.52 0l0 15.09l-34.52 0Z" id="p97w105" />
<path d="M507.7 564.06l27.81 0l0 15.09l-27.81 0Z" id="p97w106" />
<path d="M539.12 564.06l25.28 0l0 15.09l-25.28 0Z" id="p97w107" />
<path d="M568.01 564.06l15.56 0l0 15.09l-15.56 0Z" id="p97w108" />
<path d="M587.19 564.06l32.59 0l0 15.09l-32.59 0Z" id="p97w109" />
<path d="M623.39 564.06l10.5 0l0 15.09l-10.5 0Z" id="p97w110" />
<path d="M637.5 564.06l43.61 0l0 15.09l-43.61 0Z" id="p97w111" />
<path d="M245.98 580.72l27.61 0l0 15.09l-27.61 0Z" id="p97w112" />
<path d="M277.2 580.72l31.8 0l0 15.09l-31.8 0Z" id="p97w113" />
<path d="M312.61 580.72l15.06 0l0 15.09l-15.06 0Z" id="p97w114" />
<path d="M331.28 580.72l41.95 0l0 15.09l-41.95 0Z" id="p97w115" />
<path d="M376.84 580.72l32.23 0l0 15.09l-32.23 0Z" id="p97w116" />
<path d="M412.68 580.72l11.26 0l0 15.09l-11.26 0Z" id="p97w117" />
<path d="M427.55 580.72l60.74 0l0 15.09l-60.74 0Z" id="p97w118" />
<path d="M491.9 580.72l54.85 0l0 15.09l-54.85 0Z" id="p97w119" />
<path d="M550.37 580.72l44.63 0l0 15.09l-44.63 0Z" id="p97w120" />
<path d="M598.61 580.72l10.5 0l0 15.09l-10.5 0Z" id="p97w121" />
<path d="M612.72 580.72l31.49 0l0 15.09l-31.49 0Z" id="p97w122" />
<path d="M647.82 580.72l24.6 0l0 15.09l-24.6 0Z" id="p97w123" />
<path d="M245.98 597.39l77.24 0l0 15.09l-77.24 0Z" id="p97w124" />
<path d="M336.93 597.39l52.4 0l0 15.09l-52.4 0Z" id="p97w125" />
<path d="M392.94 597.39l10.42 0l0 15.09l-10.42 0Z" id="p97w126" />
<path d="M406.98 597.39l39.03 0l0 15.09l-39.03 0Z" id="p97w127" />
<path d="M459.72 597.39l25.4 0l0 15.09l-25.4 0Z" id="p97w128" />
<path d="M488.73 597.39l42.23 0l0 15.09l-42.23 0Z" id="p97w129" />
<path d="M534.57 597.39l41.25 0l0 15.09l-41.25 0Z" id="p97w130" />
<path d="M245.98 647.41l34.31 0l0 15.09l-34.31 0Z" id="p97w131" />
<path d="M283.51 647.41l28.94 0l0 15.09l-28.94 0Z" id="p97w132" />
<path d="M315.66 647.41l25.85 0l0 15.09l-25.85 0Z" id="p97w133" />
<path d="M344.72 647.41l34.67 0l0 15.09l-34.67 0Z" id="p97w134" />
<path d="M390.18 647.41l13.24 0l0 15.09l-13.24 0Z" id="p97w135" />
<path d="M406.63 647.41l66.71 0l0 15.09l-66.71 0Z" id="p97w136" />
<path d="M492.67 647.41l40.95 0l0 15.09l-40.95 0Z" id="p97w137" />
<path d="M245.98 672.42l54.48 0l0 15.09l-54.48 0Z" id="p97w138" />
<path d="M304.07 672.42l11.95 0l0 15.09l-11.95 0Z" id="p97w139" />
<path d="M319.64 672.42l31.41 0l0 15.09l-31.41 0Z" id="p97w140" />
<path d="M364.76 672.42l29.91 0l0 15.09l-29.91 0Z" id="p97w141" />
<path d="M398.28 672.42l70.17 0l0 15.09l-70.17 0Z" id="p97w142" />
<path d="M472.06 672.42l14.59 0l0 15.09l-14.59 0Z" id="p97w143" />
<path d="M490.26 672.42l31.49 0l0 15.09l-31.49 0Z" id="p97w144" />
<path d="M525.36 672.42l37.51 0l0 15.09l-37.51 0Z" id="p97w145" />
<path d="M566.48 672.42l22.31 0l0 15.09l-22.31 0Z" id="p97w146" />
<path d="M592.41 672.42l32.85 0l0 15.09l-32.85 0Z" id="p97w147" />
<path d="M628.87 672.42l8.21 0l0 15.09l-8.21 0Z" id="p97w148" />
<path d="M637.08 672.42l14.43 0l0 15.09l-14.43 0Z" id="p97w149" />
<path d="M655.12 672.42l34.01 0l0 15.09l-34.01 0Z" id="p97w150" />
<path d="M245.98 689.09l11.95 0l0 15.09l-11.95 0Z" id="p97w151" />
<path d="M261.54 689.09l58.49 0l0 15.09l-58.49 0Z" id="p97w152" />
<path d="M323.65 689.09l27.82 0l0 15.09l-27.82 0Z" id="p97w153" />
<path d="M355.08 689.09l15.89 0l0 15.09l-15.89 0Z" id="p97w154" />
<path d="M374.58 689.09l57.37 0l0 15.09l-57.37 0Z" id="p97w155" />
<path d="M435.56 689.09l13.91 0l0 15.09l-13.91 0Z" id="p97w156" />
<path d="M453.08 689.09l20.54 0l0 15.09l-20.54 0Z" id="p97w157" />
<path d="M477.23 689.09l67 0l0 15.09l-67 0Z" id="p97w158" />
<path d="M547.84 689.09l15.74 0l0 15.09l-15.74 0Z" id="p97w159" />
<path d="M567.19 689.09l34.12 0l0 15.09l-34.12 0Z" id="p97w160" />
<path d="M604.92 689.09l71.19 0l0 15.09l-71.19 0Z" id="p97w161" />
<path d="M245.98 705.76l15.09 0l0 15.09l-15.09 0Z" id="p97w162" />
<path d="M264.68 705.76l43.17 0l0 15.09l-43.17 0Z" id="p97w163" />
<path d="M311.46 705.76l28.22 0l0 15.09l-28.22 0Z" id="p97w164" />
<path d="M343.3 705.76l38.27 0l0 15.09l-38.27 0Z" id="p97w165" />
<path d="M385.18 705.76l40.93 0l0 15.09l-40.93 0Z" id="p97w166" />
<path d="M429.73 705.76l13.91 0l0 15.09l-13.91 0Z" id="p97w167" />
<path d="M447.24 705.76l11.88 0l0 15.09l-11.88 0Z" id="p97w168" />
<path d="M462.73 705.76l49.74 0l0 15.09l-49.74 0Z" id="p97w169" />
<path d="M516.08 705.76l62.92 0l0 15.09l-62.92 0Z" id="p97w170" />
<path d="M582.61 705.76l14.21 0l0 15.09l-14.21 0Z" id="p97w171" />
<path d="M600.44 705.76l24.69 0l0 15.09l-24.69 0Z" id="p97w172" />
<path d="M628.74 705.76l32.61 0l0 15.09l-32.61 0Z" id="p97w173" />
<path d="M245.98 722.43l33.95 0l0 15.09l-33.95 0Z" id="p97w174" />
<path d="M283.55 722.43l37.81 0l0 15.09l-37.81 0Z" id="p97w175" />
<path d="M324.97 722.43l13.91 0l0 15.09l-13.91 0Z" id="p97w176" />
<path d="M342.49 722.43l33.44 0l0 15.09l-33.44 0Z" id="p97w177" />
<path d="M379.54 722.43l27.23 0l0 15.09l-27.23 0Z" id="p97w178" />
<path d="M410.38 722.43l10.5 0l0 15.09l-10.5 0Z" id="p97w179" />
<path d="M424.49 722.43l36.46 0l0 15.09l-36.46 0Z" id="p97w180" />
<path d="M464.57 722.43l33 0l0 15.09l-33 0Z" id="p97w181" />
<path d="M511.28 722.43l10.42 0l0 15.09l-10.42 0Z" id="p97w182" />
<path d="M525.32 722.43l58.82 0l0 15.09l-58.82 0Z" id="p97w183" />
<path d="M587.75 722.43l15.06 0l0 15.09l-15.06 0Z" id="p97w184" />
<path d="M606.43 722.43l42.5 0l0 15.09l-42.5 0Z" id="p97w185" />
<path d="M652.54 722.43l39.35 0l0 15.09l-39.35 0Z" id="p97w186" />
<path d="M245.98 739.1l13.91 0l0 15.09l-13.91 0Z" id="p97w187" />
<path d="M263.5 739.1l20.54 0l0 15.09l-20.54 0Z" id="p97w188" />
<path d="M287.65 739.1l66.6 0l0 15.09l-66.6 0Z" id="p97w189" />
<path d="M245.98 789.12l34.31 0l0 15.09l-34.31 0Z" id="p97w190" />
<path d="M283.51 789.12l28.94 0l0 15.09l-28.94 0Z" id="p97w191" />
<path d="M315.66 789.12l40.5 0l0 15.09l-40.5 0Z" id="p97w192" />
<path d="M359.37 789.12l43.67 0l0 15.09l-43.67 0Z" id="p97w193" />
<path d="M406.26 789.12l25.02 0l0 15.09l-25.02 0Z" id="p97w194" />
<path d="M434.49 789.12l27.66 0l0 15.09l-27.66 0Z" id="p97w195" />
<path d="M465.36 789.12l74 0l0 15.09l-74 0Z" id="p97w196" />
<path d="M565.15 789.12l40.95 0l0 15.09l-40.95 0Z" id="p97w197" />
<path d="M245.98 814.13l44.36 0l0 15.09l-44.36 0Z" id="p97w198" />
<path d="M293.96 814.13l22.31 0l0 15.09l-22.31 0Z" id="p97w199" />
<path d="M319.88 814.13l36.45 0l0 15.09l-36.45 0Z" id="p97w200" />
<path d="M359.94 814.13l22.31 0l0 15.09l-22.31 0Z" id="p97w201" />
<path d="M385.86 814.13l34.62 0l0 15.09l-34.62 0Z" id="p97w202" />
<path d="M424.1 814.13l13.91 0l0 15.09l-13.91 0Z" id="p97w203" />
<path d="M441.61 814.13l10.42 0l0 15.09l-10.42 0Z" id="p97w204" />
<path d="M455.65 814.13l64.2 0l0 15.09l-64.2 0Z" id="p97w205" />
<path d="M523.45 814.13l41.05 0l0 15.09l-41.05 0Z" id="p97w206" />
<path d="M568.12 814.13l63.13 0l0 15.09l-63.13 0Z" id="p97w207" />
<path d="M634.86 814.13l24.8 0l0 15.09l-24.8 0Z" id="p97w208" />
<path d="M663.27 814.13l31.49 0l0 15.09l-31.49 0Z" id="p97w209" />
<path d="M245.98 830.8l18.46 0l0 15.09l-18.46 0Z" id="p97w210" />
<path d="M268.05 830.8l67.91 0l0 15.09l-67.91 0Z" id="p97w211" />
<path d="M339.57 830.8l13.91 0l0 15.09l-13.91 0Z" id="p97w212" />
<path d="M357.09 830.8l40.48 0l0 15.09l-40.48 0Z" id="p97w213" />
<path d="M401.18 830.8l25.23 0l0 15.09l-25.23 0Z" id="p97w214" />
<path d="M430.02 830.8l33.44 0l0 15.09l-33.44 0Z" id="p97w215" />
<path d="M467.07 830.8l27.23 0l0 15.09l-27.23 0Z" id="p97w216" />
<path d="M515.69 830.8l26.03 0l0 15.09l-26.03 0Z" id="p97w217" />
<path d="M545.33 830.8l27.82 0l0 15.09l-27.82 0Z" id="p97w218" />
<path d="M576.76 830.8l72.1 0l0 15.09l-72.1 0Z" id="p97w219" />
<path d="M652.48 830.8l12.66 0l0 15.09l-12.66 0Z" id="p97w220" />
<path d="M245.98 847.47l19.01 0l0 15.09l-19.01 0Z" id="p97w221" />
<path d="M268.6 847.47l48.3 0l0 15.09l-48.3 0Z" id="p97w222" />
<path d="M320.51 847.47l37.64 0l0 15.09l-37.64 0Z" id="p97w223" />
<path d="M361.76 847.47l28.61 0l0 15.09l-28.61 0Z" id="p97w224" />
<path d="M393.98 847.47l68.59 0l0 15.09l-68.59 0Z" id="p97w225" />
<path d="M466.19 847.47l11.26 0l0 15.09l-11.26 0Z" id="p97w226" />
<path d="M481.06 847.47l42.73 0l0 15.09l-42.73 0Z" id="p97w227" />
<path d="M527.4 847.47l27.82 0l0 15.09l-27.82 0Z" id="p97w228" />
<path d="M558.84 847.47l42.35 0l0 15.09l-42.35 0Z" id="p97w229" />
<path d="M604.8 847.47l13.91 0l0 15.09l-13.91 0Z" id="p97w230" />
<path d="M622.31 847.47l43.56 0l0 15.09l-43.56 0Z" id="p97w231" />
<path d="M669.48 847.47l19.29 0l0 15.09l-19.29 0Z" id="p97w232" />
<path d="M245.98 864.14l56.47 0l0 15.09l-56.47 0Z" id="p97w233" />
<path d="M306.06 864.14l34.82 0l0 15.09l-34.82 0Z" id="p97w234" />
<path d="M344.49 864.14l47.46 0l0 15.09l-47.46 0Z" id="p97w235" />
<path d="M395.57 864.14l61.01 0l0 15.09l-61.01 0Z" id="p97w236" />
<path d="M460.18 864.14l69.76 0l0 15.09l-69.76 0Z" id="p97w237" />
<path d="M533.56 864.14l64.79 0l0 15.09l-64.79 0Z" id="p97w238" />
<path d="M609.09 864.14l56.56 0l0 15.09l-56.56 0Z" id="p97w239" />
<path d="M245.98 880.8l48.3 0l0 15.09l-48.3 0Z" id="p97w240" />
<path d="M297.89 880.8l23.21 0l0 15.09l-23.21 0Z" id="p97w241" />
<path d="M324.71 880.8l10.5 0l0 15.09l-10.5 0Z" id="p97w242" />
<path d="M338.82 880.8l41.09 0l0 15.09l-41.09 0Z" id="p97w243" />
<path d="M383.52 880.8l13.91 0l0 15.09l-13.91 0Z" id="p97w244" />
<path d="M401.04 880.8l44.35 0l0 15.09l-44.35 0Z" id="p97w245" />
<path d="M68.27 39.02l42.71 0l0 15.38l-42.71 0Z" id="p97w246" />
<path d="M152.25 39.02l43.21 0l0 15.38l-43.21 0Z" id="p97w247" />
<path d="M251.4 38.6l45.06 0l0 16.09l-45.06 0Z" id="p97w248" />
<path d="M358.23 39.02l28.68 0l0 15.38l-28.68 0Z" id="p97w249" />
<path d="M390.29 39.02l43.54 0l0 15.38l-43.54 0Z" id="p97w250" />
<path d="M467.02 39.02l32.54 0l0 15.38l-32.54 0Z" id="p97w251" />
<path d="M599 983l92.1 0l0 12.23l-92.1 0Z" id="p97w252" />
<path d="M631.41 174.53l15.07 0l0 12.56l-15.07 0Z" id="p97w253" />
<path d="M649.18 174.53l16.87 0l0 12.56l-16.87 0Z" id="p97w254" />
<path d="M124.19 195.32l28.23 0l0 15.37l-28.23 0Z" id="p97w255" />
<path d="M155.8 195.32l32.78 0l0 15.37l-32.78 0Z" id="p97w256" />
<path d="M191.96 195.32l25.37 0l0 15.37l-25.37 0Z" id="p97w257" />
<path d="M220.7 195.32l53.42 0l0 15.37l-53.42 0Z" id="p97w258" />
<path d="M124.19 218.98l10.03 0l0 14.6l-10.03 0Z" id="p97w259" />
<path d="M137.43 218.98l7.87 0l0 14.6l-7.87 0Z" id="p97w260" />
<path d="M145.3 218.98l19.38 0l0 14.6l-19.38 0Z" id="p97w261" />
<path d="M167.88 218.98l55.58 0l0 14.6l-55.58 0Z" id="p97w262" />
<path d="M316.65 218.98l10.02 0l0 14.6l-10.02 0Z" id="p97w263" />
<path d="M329.88 218.98l41.72 0l0 14.6l-41.72 0Z" id="p97w264" />
<path d="M508.32 218.98l27.31 0l0 14.6l-27.31 0Z" id="p97w265" />
<path d="M538.84 218.98l55.65 0l0 14.6l-55.65 0Z" id="p97w266" />
<path d="M124.19 241.16l9.89 0l0 14.52l-9.89 0Z" id="p97w267" />
<path d="M137.29 241.16l59.32 0l0 14.52l-59.32 0Z" id="p97w268" />
<path d="M124.19 257.83l15.5 0l0 14.52l-15.5 0Z" id="p97w269" />
<path d="M142.9 257.83l40.89 0l0 14.52l-40.89 0Z" id="p97w270" />
<path d="M124.19 282.84l9.89 0l0 14.52l-9.89 0Z" id="p97w271" />
<path d="M137.29 282.84l23.51 0l0 14.52l-23.51 0Z" id="p97w272" />
<path d="M169.05 282.84l9.89 0l0 14.52l-9.89 0Z" id="p97w273" />
<path d="M182.14 282.84l25.12 0l0 14.52l-25.12 0Z" id="p97w274" />
<path d="M210.47 282.84l13.9 0l0 14.52l-13.9 0Z" id="p97w275" />
<path d="M227.57 282.84l31.53 0l0 14.52l-31.53 0Z" id="p97w276" />
<path d="M124.19 307.85l9.89 0l0 14.52l-9.89 0Z" id="p97w277" />
<path d="M137.29 307.85l32.27 0l0 14.52l-32.27 0Z" id="p97w278" />
<path d="M179.18 307.85l14.18 0l0 14.52l-14.18 0Z" id="p97w279" />
<path d="M196.57 307.85l7.48 0l0 14.52l-7.48 0Z" id="p97w280" />
<path d="M204.05 307.85l14.16 0l0 14.52l-14.16 0Z" id="p97w281" />
<path d="M221.42 307.85l40.9 0l0 14.52l-40.9 0Z" id="p97w282" />
<path d="M124.19 324.52l63.61 0l0 14.52l-63.61 0Z" id="p97w283" />
<path d="M124.19 341.19l14.18 0l0 14.52l-14.18 0Z" id="p97w284" />
<path d="M141.58 341.19l7.48 0l0 14.52l-7.48 0Z" id="p97w285" />
<path d="M149.06 341.19l14.16 0l0 14.52l-14.16 0Z" id="p97w286" />
<path d="M166.43 341.19l13.9 0l0 14.52l-13.9 0Z" id="p97w287" />
<path d="M183.54 341.19l52.31 0l0 14.52l-52.31 0Z" id="p97w288" />
<path d="M235.85 341.19l27.81 0l0 14.52l-27.81 0Z" id="p97w289" />
<path d="M124.19 357.86l58.8 0l0 14.52l-58.8 0Z" id="p97w290" />
<path d="M191.25 357.86l66.02 0l0 14.52l-66.02 0Z" id="p97w291" />
<path d="M124.19 374.53l14.18 0l0 14.52l-14.18 0Z" id="p97w292" />
<path d="M141.58 374.53l77.52 0l0 14.52l-77.52 0Z" id="p97w293" />
<path d="M316.65 241.16l26.19 0l0 14.52l-26.19 0Z" id="p97w294" />
<path d="M346.05 241.16l47.57 0l0 14.52l-47.57 0Z" id="p97w295" />
<path d="M396.83 241.16l13.9 0l0 14.52l-13.9 0Z" id="p97w296" />
<path d="M316.65 257.83l12.83 0l0 14.52l-12.83 0Z" id="p97w297" />
<path d="M332.69 257.83l7.48 0l0 14.52l-7.48 0Z" id="p97w298" />
<path d="M340.18 257.83l14.16 0l0 14.52l-14.16 0Z" id="p97w299" />
<path d="M357.55 257.83l28.33 0l0 14.52l-28.33 0Z" id="p97w300" />
<path d="M389.08 257.83l27.22 0l0 14.52l-27.22 0Z" id="p97w301" />
<path d="M316.65 274.5l27.8 0l0 14.52l-27.8 0Z" id="p97w302" />
<path d="M347.66 274.5l9.89 0l0 14.52l-9.89 0Z" id="p97w303" />
<path d="M360.75 274.5l50.5 0l0 14.52l-50.5 0Z" id="p97w304" />
<path d="M414.46 274.5l34.75 0l0 14.52l-34.75 0Z" id="p97w305" />
<path d="M508.32 241.16l12.83 0l0 14.52l-12.83 0Z" id="p97w306" />
<path d="M524.36 241.16l26.73 0l0 14.52l-26.73 0Z" id="p97w307" />
<path d="M554.29 241.16l16.83 0l0 14.52l-16.83 0Z" id="p97w308" />
<path d="M574.33 241.16l68.16 0l0 14.52l-68.16 0Z" id="p97w309" />
<path d="M508.32 257.83l56.16 0l0 14.52l-56.16 0Z" id="p97w310" />
<path d="M508.32 274.5l6.96 0l0 14.52l-6.96 0Z" id="p97w311" />
<path d="M537.47 274.5l14.18 0l0 14.52l-14.18 0Z" id="p97w312" />
<path d="M554.85 274.5l54.26 0l0 14.52l-54.26 0Z" id="p97w313" />
<path d="M508.32 291.17l13.89 0l0 14.52l-13.89 0Z" id="p97w314" />
<path d="M525.41 291.17l16.83 0l0 14.52l-16.83 0Z" id="p97w315" />
<path d="M545.45 291.17l37.14 0l0 14.52l-37.14 0Z" id="p97w316" />
<path d="M585.8 291.17l26.73 0l0 14.52l-26.73 0Z" id="p97w317" />
<path d="M615.74 291.17l9.89 0l0 14.52l-9.89 0Z" id="p97w318" />
<path d="M628.83 291.17l21.12 0l0 14.52l-21.12 0Z" id="p97w319" />
<path d="M653.16 291.17l13.9 0l0 14.52l-13.9 0Z" id="p97w320" />
<path d="M508.32 307.84l26.19 0l0 14.52l-26.19 0Z" id="p97w321" />
<path d="M537.72 307.84l14.18 0l0 14.52l-14.18 0Z" id="p97w322" />
<path d="M555.1 307.84l21.4 0l0 14.52l-21.4 0Z" id="p97w323" />
<path d="M579.7 307.84l7.48 0l0 14.52l-7.48 0Z" id="p97w324" />
<path d="M587.19 307.84l16.84 0l0 14.52l-16.84 0Z" id="p97w325" />
<path d="M612.28 307.84l26.19 0l0 14.52l-26.19 0Z" id="p97w326" />
<path d="M641.67 307.84l14.18 0l0 14.52l-14.18 0Z" id="p97w327" />
<path d="M659.06 307.84l33.95 0l0 14.52l-33.95 0Z" id="p97w328" />
</svg>
