<?xml version="1.0" encoding="UTF-8"?>
<svg xmlns="http://www.w3.org/2000/svg" xmlns:xlink="http://www.w3.org/1999/xlink" version="1.1" baseProfile="full" width="768" height="1024" viewBox="0,0,768,1024" preserveAspectRatio="xMinYMin meet" >
<style type="text/css">
<![CDATA[
path {fill-opacity: 0.5;fill: #00aeef;visibility: hidden;}
]]>
</style>
<path d="M123.71 114.18l23.27 0l0 14.52l-23.27 0Z" id="p103w1" />
<path d="M150.18 114.18l28.33 0l0 14.52l-28.33 0Z" id="p103w2" />
<path d="M181.72 114.18l13.9 0l0 14.52l-13.9 0Z" id="p103w3" />
<path d="M198.82 114.18l9.89 0l0 14.52l-9.89 0Z" id="p103w4" />
<path d="M211.92 114.18l47.03 0l0 14.52l-47.03 0Z" id="p103w5" />
<path d="M262.15 114.18l13.9 0l0 14.52l-13.9 0Z" id="p103w6" />
<path d="M279.26 114.18l9.89 0l0 14.52l-9.89 0Z" id="p103w7" />
<path d="M292.35 114.18l39.02 0l0 14.52l-39.02 0Z" id="p103w8" />
<path d="M124.06 130.85l59.34 0l0 14.52l-59.34 0Z" id="p103w9" />
<path d="M186.61 130.85l15.5 0l0 14.52l-15.5 0Z" id="p103w10" />
<path d="M205.32 130.85l43.29 0l0 14.52l-43.29 0Z" id="p103w11" />
<path d="M251.82 130.85l25.4 0l0 14.52l-25.4 0Z" id="p103w12" />
<path d="M280.42 130.85l15.5 0l0 14.52l-15.5 0Z" id="p103w13" />
<path d="M299.12 130.85l40.9 0l0 14.52l-40.9 0Z" id="p103w14" />
<path d="M343.24 130.85l39.02 0l0 14.52l-39.02 0Z" id="p103w15" />
<path d="M124.06 147.52l14.18 0l0 14.52l-14.18 0Z" id="p103w16" />
<path d="M141.45 147.45l61.05 0l0 14.6l-61.05 0Z" id="p103w17" />
<path d="M205.7 147.52l13.91 0l0 14.52l-13.91 0Z" id="p103w18" />
<path d="M222.82 147.52l14.18 0l0 14.52l-14.18 0Z" id="p103w19" />
<path d="M240.2 147.45l53.79 0l0 14.6l-53.79 0Z" id="p103w20" />
<path d="M297.2 147.52l13.9 0l0 14.52l-13.9 0Z" id="p103w21" />
<path d="M314.3 147.45l47.35 0l0 14.6l-47.35 0Z" id="p103w22" />
<path d="M364.86 147.52l13.91 0l0 14.52l-13.91 0Z" id="p103w23" />
<path d="M381.98 147.52l13.9 0l0 14.52l-13.9 0Z" id="p103w24" />
<path d="M399.08 147.45l50.63 0l0 14.6l-50.63 0Z" id="p103w25" />
<path d="M143.75 172.53l46.51 0l0 14.52l-46.51 0Z" id="p103w26" />
<path d="M193.48 172.53l18.18 0l0 14.52l-18.18 0Z" id="p103w27" />
<path d="M214.86 172.53l24.59 0l0 14.52l-24.59 0Z" id="p103w28" />
<path d="M242.66 172.53l29.69 0l0 14.52l-29.69 0Z" id="p103w29" />
<path d="M275.55 172.53l26.74 0l0 14.52l-26.74 0Z" id="p103w30" />
<path d="M305.5 172.53l32.62 0l0 14.52l-32.62 0Z" id="p103w31" />
<path d="M341.32 172.53l17.9 0l0 14.52l-17.9 0Z" id="p103w32" />
<path d="M395.28 172.53l42.77 0l0 14.52l-42.77 0Z" id="p103w33" />
<path d="M441.26 172.53l25.67 0l0 14.52l-25.67 0Z" id="p103w34" />
<path d="M470.14 172.53l19.79 0l0 14.52l-19.79 0Z" id="p103w35" />
<path d="M493.13 172.53l29.95 0l0 14.52l-29.95 0Z" id="p103w36" />
<path d="M152.4 189.2l49.19 0l0 14.52l-49.19 0Z" id="p103w37" />
<path d="M143.76 205.88l37.97 0l0 14.52l-37.97 0Z" id="p103w38" />
<path d="M184.94 205.88l18.44 0l0 14.52l-18.44 0Z" id="p103w39" />
<path d="M206.58 205.88l49.99 0l0 14.52l-49.99 0Z" id="p103w40" />
<path d="M259.78 205.88l17.38 0l0 14.52l-17.38 0Z" id="p103w41" />
<path d="M280.37 205.88l59.52 0l0 14.52l-59.52 0Z" id="p103w42" />
<path d="M343.09 205.88l13.9 0l0 14.52l-13.9 0Z" id="p103w43" />
<path d="M360.2 205.88l44.46 0l0 14.52l-44.46 0Z" id="p103w44" />
<path d="M407.86 205.88l19.51 0l0 14.52l-19.51 0Z" id="p103w45" />
<path d="M463.43 205.88l28.6 0l0 14.52l-28.6 0Z" id="p103w46" />
<path d="M495.24 205.88l23.8 0l0 14.52l-23.8 0Z" id="p103w47" />
<path d="M153.64 222.55l18.7 0l0 14.52l-18.7 0Z" id="p103w48" />
<path d="M175.55 222.55l15.5 0l0 14.52l-15.5 0Z" id="p103w49" />
<path d="M194.26 222.55l60.94 0l0 14.52l-60.94 0Z" id="p103w50" />
<path d="M277.36 222.55l17.11 0l0 14.52l-17.11 0Z" id="p103w51" />
<path d="M297.68 222.55l43.83 0l0 14.52l-43.83 0Z" id="p103w52" />
<path d="M344.72 222.55l13.9 0l0 14.52l-13.9 0Z" id="p103w53" />
<path d="M361.83 222.55l29.67 0l0 14.52l-29.67 0Z" id="p103w54" />
<path d="M394.7 222.55l9.89 0l0 14.52l-9.89 0Z" id="p103w55" />
<path d="M407.8 222.55l33.67 0l0 14.52l-33.67 0Z" id="p103w56" />
<path d="M444.68 222.55l25.67 0l0 14.52l-25.67 0Z" id="p103w57" />
<path d="M473.56 222.55l27.53 0l0 14.52l-27.53 0Z" id="p103w58" />
<path d="M504.3 222.55l15.5 0l0 14.52l-15.5 0Z" id="p103w59" />
<path d="M523 222.55l74.05 0l0 14.52l-74.05 0Z" id="p103w60" />
<path d="M143.76 239.22l11.5 0l0 14.52l-11.5 0Z" id="p103w61" />
<path d="M158.46 239.22l35.29 0l0 14.52l-35.29 0Z" id="p103w62" />
<path d="M196.96 239.22l14.18 0l0 14.52l-14.18 0Z" id="p103w63" />
<path d="M224.23 239.22l18.7 0l0 14.52l-18.7 0Z" id="p103w64" />
<path d="M246.15 239.22l9.89 0l0 14.52l-9.89 0Z" id="p103w65" />
<path d="M259.24 239.22l41.18 0l0 14.52l-41.18 0Z" id="p103w66" />
<path d="M303.63 239.22l6.41 0l0 14.52l-6.41 0Z" id="p103w67" />
<path d="M323.14 239.22l24.85 0l0 14.52l-24.85 0Z" id="p103w68" />
<path d="M351.2 239.22l19.79 0l0 14.52l-19.79 0Z" id="p103w69" />
<path d="M374.19 239.22l34.74 0l0 14.52l-34.74 0Z" id="p103w70" />
<path d="M444.99 239.23l63.61 0l0 14.52l-63.61 0Z" id="p103w71" />
<path d="M511.81 239.23l21.12 0l0 14.52l-21.12 0Z" id="p103w72" />
<path d="M143.76 255.9l6.96 0l0 14.52l-6.96 0Z" id="p103w73" />
<path d="M153.92 255.9l23.24 0l0 14.52l-23.24 0Z" id="p103w74" />
<path d="M180.37 255.9l51.49 0l0 14.52l-51.49 0Z" id="p103w75" />
<path d="M235.07 255.9l58.54 0l0 14.52l-58.54 0Z" id="p103w76" />
<path d="M296.82 255.9l22.99 0l0 14.52l-22.99 0Z" id="p103w77" />
<path d="M323.02 255.9l22.72 0l0 14.52l-22.72 0Z" id="p103w78" />
<path d="M143.76 272.57l10.43 0l0 14.52l-10.43 0Z" id="p103w79" />
<path d="M157.39 272.57l35.56 0l0 14.52l-35.56 0Z" id="p103w80" />
<path d="M196.16 272.57l29.94 0l0 14.52l-29.94 0Z" id="p103w81" />
<path d="M229.3 272.57l38.5 0l0 14.52l-38.5 0Z" id="p103w82" />
<path d="M303.87 272.57l66.8 0l0 14.52l-66.8 0Z" id="p103w83" />
<path d="M373.88 272.57l44.36 0l0 14.52l-44.36 0Z" id="p103w84" />
<path d="M421.45 272.57l48.14 0l0 14.52l-48.14 0Z" id="p103w85" />
<path d="M472.79 272.57l13.9 0l0 14.52l-13.9 0Z" id="p103w86" />
<path d="M489.9 272.57l9.89 0l0 14.52l-9.89 0Z" id="p103w87" />
<path d="M502.99 272.57l38.44 0l0 14.52l-38.44 0Z" id="p103w88" />
<path d="M143.76 289.24l26.45 0l0 14.52l-26.45 0Z" id="p103w89" />
<path d="M173.42 289.24l6.41 0l0 14.52l-6.41 0Z" id="p103w90" />
<path d="M202.02 289.24l19.51 0l0 14.52l-19.51 0Z" id="p103w91" />
<path d="M224.74 289.24l40.35 0l0 14.52l-40.35 0Z" id="p103w92" />
<path d="M268.29 289.24l20.85 0l0 14.52l-20.85 0Z" id="p103w93" />
<path d="M292.36 289.24l9.62 0l0 14.52l-9.62 0Z" id="p103w94" />
<path d="M305.19 289.24l35.56 0l0 14.52l-35.56 0Z" id="p103w95" />
<path d="M376.81 289.24l36.88 0l0 14.52l-36.88 0Z" id="p103w96" />
<path d="M416.89 289.24l47.04 0l0 14.52l-47.04 0Z" id="p103w97" />
<path d="M143.76 305.91l42.24 0l0 14.52l-42.24 0Z" id="p103w98" />
<path d="M189.2 305.91l13.9 0l0 14.52l-13.9 0Z" id="p103w99" />
<path d="M206.31 305.91l45.71 0l0 14.52l-45.71 0Z" id="p103w100" />
<path d="M255.22 305.91l16.05 0l0 14.52l-16.05 0Z" id="p103w101" />
<path d="M274.48 305.91l16.83 0l0 14.52l-16.83 0Z" id="p103w102" />
<path d="M294.52 305.91l34.15 0l0 14.52l-34.15 0Z" id="p103w103" />
<path d="M338.83 305.91l26.19 0l0 14.52l-26.19 0Z" id="p103w104" />
<path d="M368.22 305.91l42.24 0l0 14.52l-42.24 0Z" id="p103w105" />
<path d="M432.62 305.92l17.11 0l0 14.52l-17.11 0Z" id="p103w106" />
<path d="M452.94 305.92l51.07 0l0 14.52l-51.07 0Z" id="p103w107" />
<path d="M143.76 322.59l24.85 0l0 14.52l-24.85 0Z" id="p103w108" />
<path d="M171.82 322.59l19.77 0l0 14.52l-19.77 0Z" id="p103w109" />
<path d="M194.8 322.59l17.38 0l0 14.52l-17.38 0Z" id="p103w110" />
<path d="M225.28 322.59l15.5 0l0 14.52l-15.5 0Z" id="p103w111" />
<path d="M262.94 322.59l17.11 0l0 14.52l-17.11 0Z" id="p103w112" />
<path d="M283.25 322.59l25.67 0l0 14.52l-25.67 0Z" id="p103w113" />
<path d="M312.13 322.59l31.01 0l0 14.52l-31.01 0Z" id="p103w114" />
<path d="M346.34 322.59l13.9 0l0 14.52l-13.9 0Z" id="p103w115" />
<path d="M363.45 322.59l46.51 0l0 14.52l-46.51 0Z" id="p103w116" />
<path d="M143.76 339.26l40.98 0l0 14.52l-40.98 0Z" id="p103w117" />
<path d="M187.95 339.26l23.8 0l0 14.52l-23.8 0Z" id="p103w118" />
<path d="M214.96 339.26l14.18 0l0 14.52l-14.18 0Z" id="p103w119" />
<path d="M232.34 339.26l38.75 0l0 14.52l-38.75 0Z" id="p103w120" />
<path d="M274.3 339.26l53.72 0l0 14.52l-53.72 0Z" id="p103w121" />
<path d="M364.08 339.26l83.31 0l0 14.52l-83.31 0Z" id="p103w122" />
<path d="M460.49 339.26l19.51 0l0 14.52l-19.51 0Z" id="p103w123" />
<path d="M483.21 339.26l38.23 0l0 14.52l-38.23 0Z" id="p103w124" />
<path d="M143.76 355.93l41.43 0l0 14.52l-41.43 0Z" id="p103w125" />
<path d="M188.4 355.93l12.57 0l0 14.52l-12.57 0Z" id="p103w126" />
<path d="M210.59 355.93l24.85 0l0 14.52l-24.85 0Z" id="p103w127" />
<path d="M271.5 355.94l57.76 0l0 14.52l-57.76 0Z" id="p103w128" />
<path d="M332.47 355.94l19.79 0l0 14.52l-19.79 0Z" id="p103w129" />
<path d="M355.46 355.94l29.95 0l0 14.52l-29.95 0Z" id="p103w130" />
<path d="M388.62 355.94l13.9 0l0 14.52l-13.9 0Z" id="p103w131" />
<path d="M405.73 355.94l24.06 0l0 14.52l-24.06 0Z" id="p103w132" />
<path d="M433 355.94l15.5 0l0 14.52l-15.5 0Z" id="p103w133" />
<path d="M451.7 355.94l40.32 0l0 14.52l-40.32 0Z" id="p103w134" />
<path d="M124.07 389.28l31.81 0l0 14.52l-31.81 0Z" id="p103w135" />
<path d="M159.08 389.28l21.92 0l0 14.52l-21.92 0Z" id="p103w136" />
<path d="M184.22 389.28l31.53 0l0 14.52l-31.53 0Z" id="p103w137" />
<path d="M218.96 389.28l14.18 0l0 14.52l-14.18 0Z" id="p103w138" />
<path d="M236.34 389.28l34.74 0l0 14.52l-34.74 0Z" id="p103w139" />
<path d="M274.29 389.28l17.11 0l0 14.52l-17.11 0Z" id="p103w140" />
<path d="M294.6 389.28l9.89 0l0 14.52l-9.89 0Z" id="p103w141" />
<path d="M307.69 389.28l40.18 0l0 14.52l-40.18 0Z" id="p103w142" />
<path d="M351.08 389.28l13.9 0l0 14.52l-13.9 0Z" id="p103w143" />
<path d="M368.19 389.28l43.31 0l0 14.52l-43.31 0Z" id="p103w144" />
<path d="M414.7 389.28l26.45 0l0 14.52l-26.45 0Z" id="p103w145" />
<path d="M444.36 389.28l19.77 0l0 14.52l-19.77 0Z" id="p103w146" />
<path d="M467.34 389.28l25.92 0l0 14.52l-25.92 0Z" id="p103w147" />
<path d="M496.47 389.28l19.51 0l0 14.52l-19.51 0Z" id="p103w148" />
<path d="M519.19 389.28l21.37 0l0 14.52l-21.37 0Z" id="p103w149" />
<path d="M124.07 405.95l23.79 0l0 14.52l-23.79 0Z" id="p103w150" />
<path d="M151.06 405.95l29.04 0l0 14.52l-29.04 0Z" id="p103w151" />
<path d="M183.3 405.95l11.22 0l0 14.52l-11.22 0Z" id="p103w152" />
<path d="M197.73 405.95l26.46 0l0 14.52l-26.46 0Z" id="p103w153" />
<path d="M227.4 405.95l19.51 0l0 14.52l-19.51 0Z" id="p103w154" />
<path d="M250.12 405.95l54 0l0 14.52l-54 0Z" id="p103w155" />
<path d="M317.21 405.95l25.94 0l0 14.52l-25.94 0Z" id="p103w156" />
<path d="M346.36 405.95l17.38 0l0 14.52l-17.38 0Z" id="p103w157" />
<path d="M366.95 405.95l13.37 0l0 14.52l-13.37 0Z" id="p103w158" />
<path d="M383.52 405.95l35.29 0l0 14.52l-35.29 0Z" id="p103w159" />
<path d="M422.03 405.95l50.53 0l0 14.52l-50.53 0Z" id="p103w160" />
<path d="M475.76 405.95l47.06 0l0 14.52l-47.06 0Z" id="p103w161" />
<path d="M124.07 422.62l40.63 0l0 14.52l-40.63 0Z" id="p103w162" />
<path d="M167.9 422.62l9.89 0l0 14.52l-9.89 0Z" id="p103w163" />
<path d="M180.99 422.55l26.76 0l0 14.6l-26.76 0Z" id="p103w164" />
<path d="M210.96 422.55l13.9 0l0 14.6l-13.9 0Z" id="p103w165" />
<path d="M228.06 422.55l28.97 0l0 14.6l-28.97 0Z" id="p103w166" />
<path d="M124.06 449.41l26.99 0l0 12.29l-26.99 0Z" id="p103w167" />
<path d="M170.84 447.64l18.72 0l0 14.52l-18.72 0Z" id="p103w168" />
<path d="M192.76 447.64l24.33 0l0 14.52l-24.33 0Z" id="p103w169" />
<path d="M220.29 447.64l9.62 0l0 14.52l-9.62 0Z" id="p103w170" />
<path d="M233.12 447.64l39.82 0l0 14.52l-39.82 0Z" id="p103w171" />
<path d="M276.15 447.64l31.53 0l0 14.52l-31.53 0Z" id="p103w172" />
<path d="M310.89 447.64l14.18 0l0 14.52l-14.18 0Z" id="p103w173" />
<path d="M328.28 447.64l34.74 0l0 14.52l-34.74 0Z" id="p103w174" />
<path d="M366.23 447.64l17.11 0l0 14.52l-17.11 0Z" id="p103w175" />
<path d="M386.54 447.64l30.73 0l0 14.52l-30.73 0Z" id="p103w176" />
<path d="M420.47 447.64l12.84 0l0 14.52l-12.84 0Z" id="p103w177" />
<path d="M436.52 447.64l13.91 0l0 14.52l-13.91 0Z" id="p103w178" />
<path d="M453.64 447.64l17.11 0l0 14.52l-17.11 0Z" id="p103w179" />
<path d="M143.75 464.31l41.97 0l0 14.52l-41.97 0Z" id="p103w180" />
<path d="M188.93 464.31l37.97 0l0 14.52l-37.97 0Z" id="p103w181" />
<path d="M124.06 482.76l21.99 0l0 12.29l-21.99 0Z" id="p103w182" />
<path d="M154.88 480.98l26.19 0l0 14.52l-26.19 0Z" id="p103w183" />
<path d="M203.23 480.98l20.85 0l0 14.52l-20.85 0Z" id="p103w184" />
<path d="M227.3 480.98l11.5 0l0 14.52l-11.5 0Z" id="p103w185" />
<path d="M242 480.98l39.82 0l0 14.52l-39.82 0Z" id="p103w186" />
<path d="M285.03 480.98l31.53 0l0 14.52l-31.53 0Z" id="p103w187" />
<path d="M319.77 480.98l14.18 0l0 14.52l-14.18 0Z" id="p103w188" />
<path d="M337.15 480.98l37.42 0l0 14.52l-37.42 0Z" id="p103w189" />
<path d="M124.06 499.43l26.99 0l0 12.29l-26.99 0Z" id="p103w190" />
<path d="M159.88 497.65l50.43 0l0 14.52l-50.43 0Z" id="p103w191" />
<path d="M213.52 497.65l17.38 0l0 14.52l-17.38 0Z" id="p103w192" />
<path d="M234.11 497.65l16.83 0l0 14.52l-16.83 0Z" id="p103w193" />
<path d="M254.15 497.65l22.99 0l0 14.52l-22.99 0Z" id="p103w194" />
<path d="M280.35 497.65l62.53 0l0 14.52l-62.53 0Z" id="p103w195" />
<path d="M352.5 497.65l47.57 0l0 14.52l-47.57 0Z" id="p103w196" />
<path d="M403.28 497.65l14.18 0l0 14.52l-14.18 0Z" id="p103w197" />
<path d="M420.66 497.65l40.18 0l0 14.52l-40.18 0Z" id="p103w198" />
<path d="M143.75 514.32l13.91 0l0 14.52l-13.91 0Z" id="p103w199" />
<path d="M160.87 514.32l9.89 0l0 14.52l-9.89 0Z" id="p103w200" />
<path d="M173.96 514.32l40.18 0l0 14.52l-40.18 0Z" id="p103w201" />
<path d="M217.35 514.32l33.95 0l0 14.52l-33.95 0Z" id="p103w202" />
<path d="M124.06 532.77l21.99 0l0 12.29l-21.99 0Z" id="p103w203" />
<path d="M124.06 549.45l26.99 0l0 12.29l-26.99 0Z" id="p103w204" />
<path d="M159.88 547.67l25.4 0l0 14.52l-25.4 0Z" id="p103w205" />
<path d="M188.48 547.67l7.48 0l0 14.52l-7.48 0Z" id="p103w206" />
<path d="M195.97 547.67l14.16 0l0 14.52l-14.16 0Z" id="p103w207" />
<path d="M213.34 547.67l33.05 0l0 14.52l-33.05 0Z" id="p103w208" />
<path d="M249.59 547.67l20.85 0l0 14.52l-20.85 0Z" id="p103w209" />
<path d="M273.66 547.67l11.5 0l0 14.52l-11.5 0Z" id="p103w210" />
<path d="M288.36 547.67l46.22 0l0 14.52l-46.22 0Z" id="p103w211" />
<path d="M344.21 547.65l43.04 0l0 14.52l-43.04 0Z" id="p103w212" />
<path d="M390.46 547.65l22.7 0l0 14.52l-22.7 0Z" id="p103w213" />
<path d="M416.37 547.65l59.86 0l0 14.52l-59.86 0Z" id="p103w214" />
<path d="M143.75 564.34l13.91 0l0 14.52l-13.91 0Z" id="p103w215" />
<path d="M160.87 564.32l13.11 0l0 14.52l-13.11 0Z" id="p103w216" />
<path d="M177.18 564.32l7.22 0l0 14.52l-7.22 0Z" id="p103w217" />
<path d="M184.4 564.32l12.39 0l0 14.52l-12.39 0Z" id="p103w218" />
<path d="M200.01 564.32l50.25 0l0 14.52l-50.25 0Z" id="p103w219" />
<path d="M124.06 582.79l21.99 0l0 12.29l-21.99 0Z" id="p103w220" />
<path d="M124.06 599.47l26.99 0l0 12.29l-26.99 0Z" id="p103w221" />
<path d="M159.88 597.69l50.43 0l0 14.52l-50.43 0Z" id="p103w222" />
<path d="M213.52 597.69l17.38 0l0 14.52l-17.38 0Z" id="p103w223" />
<path d="M234.11 597.69l61.72 0l0 14.52l-61.72 0Z" id="p103w224" />
<path d="M299.04 597.69l9.89 0l0 14.52l-9.89 0Z" id="p103w225" />
<path d="M312.13 597.69l22.99 0l0 14.52l-22.99 0Z" id="p103w226" />
<path d="M338.34 597.69l15.5 0l0 14.52l-15.5 0Z" id="p103w227" />
<path d="M357.04 597.69l44.1 0l0 14.52l-44.1 0Z" id="p103w228" />
<path d="M412.63 597.69l22.19 0l0 14.52l-22.19 0Z" id="p103w229" />
<path d="M438.03 597.69l41.97 0l0 14.52l-41.97 0Z" id="p103w230" />
<path d="M143.75 614.36l13.63 0l0 14.52l-13.63 0Z" id="p103w231" />
<path d="M160.59 614.36l40.18 0l0 14.52l-40.18 0Z" id="p103w232" />
<path d="M203.98 614.36l13.9 0l0 14.52l-13.9 0Z" id="p103w233" />
<path d="M221.09 614.36l40.63 0l0 14.52l-40.63 0Z" id="p103w234" />
<path d="M264.92 614.36l13.91 0l0 14.52l-13.91 0Z" id="p103w235" />
<path d="M282.04 614.36l20.85 0l0 14.52l-20.85 0Z" id="p103w236" />
<path d="M306.1 614.36l52.11 0l0 14.52l-52.11 0Z" id="p103w237" />
<path d="M361.42 614.36l25.4 0l0 14.52l-25.4 0Z" id="p103w238" />
<path d="M390.02 614.36l20.85 0l0 14.52l-20.85 0Z" id="p103w239" />
<path d="M414.09 614.36l37.42 0l0 14.52l-37.42 0Z" id="p103w240" />
<path d="M124.06 632.81l21.99 0l0 12.29l-21.99 0Z" id="p103w241" />
<path d="M124.06 649.48l26.99 0l0 12.29l-26.99 0Z" id="p103w242" />
<path d="M159.88 647.71l36.63 0l0 14.52l-36.63 0Z" id="p103w243" />
<path d="M199.72 647.71l33.05 0l0 14.52l-33.05 0Z" id="p103w244" />
<path d="M235.97 647.71l20.85 0l0 14.52l-20.85 0Z" id="p103w245" />
<path d="M260.04 647.71l30.74 0l0 14.52l-30.74 0Z" id="p103w246" />
<path d="M293.99 647.71l25.13 0l0 14.52l-25.13 0Z" id="p103w247" />
<path d="M322.32 647.71l37.42 0l0 14.52l-37.42 0Z" id="p103w248" />
<path d="M362.95 647.71l64.94 0l0 14.52l-64.94 0Z" id="p103w249" />
<path d="M431.1 647.71l13.91 0l0 14.52l-13.91 0Z" id="p103w250" />
<path d="M448.22 647.71l41.96 0l0 14.52l-41.96 0Z" id="p103w251" />
<path d="M124.06 666.16l21.99 0l0 12.29l-21.99 0Z" id="p103w252" />
<path d="M154.88 664.38l15.51 0l0 14.52l-15.51 0Z" id="p103w253" />
<path d="M173.6 664.38l14.18 0l0 14.52l-14.18 0Z" id="p103w254" />
<path d="M190.98 664.38l12.66 0l0 14.52l-12.66 0Z" id="p103w255" />
<path d="M216.73 664.38l9.89 0l0 14.52l-9.89 0Z" id="p103w256" />
<path d="M229.82 664.38l33.62 0l0 14.52l-33.62 0Z" id="p103w257" />
<path d="M266.65 664.38l28.06 0l0 14.52l-28.06 0Z" id="p103w258" />
<path d="M124.06 708.21l27.54 0l0 18.84l-27.54 0Z" id="p103w259" />
<path d="M155.26 708.21l37.06 0l0 18.84l-37.06 0Z" id="p103w260" />
<path d="M195.97 708.21l21.46 0l0 18.84l-21.46 0Z" id="p103w261" />
<path d="M221.08 708.21l39.7 0l0 18.84l-39.7 0Z" id="p103w262" />
<path d="M124.06 739.41l50.43 0l0 14.52l-50.43 0Z" id="p103w263" />
<path d="M177.7 739.41l20.85 0l0 14.52l-20.85 0Z" id="p103w264" />
<path d="M201.77 739.41l25.67 0l0 14.52l-25.67 0Z" id="p103w265" />
<path d="M230.65 739.41l27.26 0l0 14.52l-27.26 0Z" id="p103w266" />
<path d="M261.11 739.41l13.9 0l0 14.52l-13.9 0Z" id="p103w267" />
<path d="M278.22 739.41l43.83 0l0 14.52l-43.83 0Z" id="p103w268" />
<path d="M143.75 764.42l15.25 0l0 14.52l-15.25 0Z" id="p103w269" />
<path d="M162.21 764.42l32.27 0l0 14.52l-32.27 0Z" id="p103w270" />
<path d="M197.69 764.42l25.12 0l0 14.52l-25.12 0Z" id="p103w271" />
<path d="M253.86 764.42l18.44 0l0 14.52l-18.44 0Z" id="p103w272" />
<path d="M275.51 764.42l72.4 0l0 14.52l-72.4 0Z" id="p103w273" />
<path d="M351.11 764.42l17.11 0l0 14.52l-17.11 0Z" id="p103w274" />
<path d="M371.43 764.42l35.56 0l0 14.52l-35.56 0Z" id="p103w275" />
<path d="M410.19 764.42l35.02 0l0 14.52l-35.02 0Z" id="p103w276" />
<path d="M448.42 764.42l21.4 0l0 14.52l-21.4 0Z" id="p103w277" />
<path d="M473.02 764.42l25.12 0l0 14.52l-25.12 0Z" id="p103w278" />
<path d="M501.35 764.42l29.39 0l0 14.52l-29.39 0Z" id="p103w279" />
<path d="M533.95 764.42l15.5 0l0 14.52l-15.5 0Z" id="p103w280" />
<path d="M552.65 764.42l17.11 0l0 14.52l-17.11 0Z" id="p103w281" />
<path d="M572.97 764.42l33.94 0l0 14.52l-33.94 0Z" id="p103w282" />
<path d="M143.75 781.09l33.95 0l0 14.52l-33.95 0Z" id="p103w283" />
<path d="M180.91 781.09l17.91 0l0 14.52l-17.91 0Z" id="p103w284" />
<path d="M202.03 781.09l32.6 0l0 14.52l-32.6 0Z" id="p103w285" />
<path d="M237.84 781.09l35.56 0l0 14.52l-35.56 0Z" id="p103w286" />
<path d="M276.61 781.09l42.5 0l0 14.52l-42.5 0Z" id="p103w287" />
<path d="M143.75 797.76l15.25 0l0 14.52l-15.25 0Z" id="p103w288" />
<path d="M162.21 797.76l32.54 0l0 14.52l-32.54 0Z" id="p103w289" />
<path d="M197.95 797.76l38.23 0l0 14.52l-38.23 0Z" id="p103w290" />
<path d="M239.38 797.76l56.68 0l0 14.52l-56.68 0Z" id="p103w291" />
<path d="M299.27 797.76l14.18 0l0 14.52l-14.18 0Z" id="p103w292" />
<path d="M316.65 797.76l11.22 0l0 14.52l-11.22 0Z" id="p103w293" />
<path d="M331.08 797.76l17.63 0l0 14.52l-17.63 0Z" id="p103w294" />
<path d="M351.66 797.76l72.45 0l0 14.52l-72.45 0Z" id="p103w295" />
<path d="M427.31 797.76l17.91 0l0 14.52l-17.91 0Z" id="p103w296" />
<path d="M448.43 797.76l22.72 0l0 14.52l-22.72 0Z" id="p103w297" />
<path d="M474.36 797.76l35.56 0l0 14.52l-35.56 0Z" id="p103w298" />
<path d="M513.12 797.76l57.75 0l0 14.52l-57.75 0Z" id="p103w299" />
<path d="M574.08 797.76l41.45 0l0 14.52l-41.45 0Z" id="p103w300" />
<path d="M143.75 814.43l15.25 0l0 14.52l-15.25 0Z" id="p103w301" />
<path d="M162.21 814.43l32.27 0l0 14.52l-32.27 0Z" id="p103w302" />
<path d="M197.69 814.43l25.12 0l0 14.52l-25.12 0Z" id="p103w303" />
<path d="M226.01 814.43l14.97 0l0 14.52l-14.97 0Z" id="p103w304" />
<path d="M243.83 814.43l37.7 0l0 14.52l-37.7 0Z" id="p103w305" />
<path d="M284.74 814.43l41.37 0l0 14.52l-41.37 0Z" id="p103w306" />
<path d="M329.31 814.43l28.34 0l0 14.52l-28.34 0Z" id="p103w307" />
<path d="M143.75 831.11l15.25 0l0 14.52l-15.25 0Z" id="p103w308" />
<path d="M162.21 831.11l45.91 0l0 14.52l-45.91 0Z" id="p103w309" />
<path d="M211.32 831.11l19.51 0l0 14.52l-19.51 0Z" id="p103w310" />
<path d="M233.68 831.11l37.68 0l0 14.52l-37.68 0Z" id="p103w311" />
<path d="M274.57 831.11l24.79 0l0 14.52l-24.79 0Z" id="p103w312" />
<path d="M302.57 831.11l42.05 0l0 14.52l-42.05 0Z" id="p103w313" />
<path d="M347.83 831.11l10.43 0l0 14.52l-10.43 0Z" id="p103w314" />
<path d="M361.46 831.11l44.84 0l0 14.52l-44.84 0Z" id="p103w315" />
<path d="M408.98 831.11l15.77 0l0 14.52l-15.77 0Z" id="p103w316" />
<path d="M427.96 831.11l17.11 0l0 14.52l-17.11 0Z" id="p103w317" />
<path d="M448.27 831.11l28.05 0l0 14.52l-28.05 0Z" id="p103w318" />
<path d="M479.53 831.11l74.76 0l0 14.52l-74.76 0Z" id="p103w319" />
<path d="M557.5 831.11l19.01 0l0 14.52l-19.01 0Z" id="p103w320" />
<path d="M143.75 847.78l15.25 0l0 14.52l-15.25 0Z" id="p103w321" />
<path d="M162.21 847.78l34.94 0l0 14.52l-34.94 0Z" id="p103w322" />
<path d="M200.35 847.78l21.12 0l0 14.52l-21.12 0Z" id="p103w323" />
<path d="M224.68 847.78l23.52 0l0 14.52l-23.52 0Z" id="p103w324" />
<path d="M251.41 847.75l70.83 0l0 14.52l-70.83 0Z" id="p103w325" />
<path d="M325.44 847.78l57.73 0l0 14.52l-57.73 0Z" id="p103w326" />
<path d="M386.38 847.78l32.27 0l0 14.52l-32.27 0Z" id="p103w327" />
<path d="M421.86 847.78l21.4 0l0 14.52l-21.4 0Z" id="p103w328" />
<path d="M446.47 847.78l7.48 0l0 14.52l-7.48 0Z" id="p103w329" />
<path d="M453.95 847.78l33.95 0l0 14.52l-33.95 0Z" id="p103w330" />
<path d="M491.11 847.78l25.12 0l0 14.52l-25.12 0Z" id="p103w331" />
<path d="M519.43 847.78l11.22 0l0 14.52l-11.22 0Z" id="p103w332" />
<path d="M533.86 847.78l17.11 0l0 14.52l-17.11 0Z" id="p103w333" />
<path d="M554.17 847.78l69.47 0l0 14.52l-69.47 0Z" id="p103w334" />
<path d="M626.85 847.78l16.04 0l0 14.52l-16.04 0Z" id="p103w335" />
<path d="M143.75 864.45l15.25 0l0 14.52l-15.25 0Z" id="p103w336" />
<path d="M162.21 864.45l7.48 0l0 14.52l-7.48 0Z" id="p103w337" />
<path d="M169.69 864.45l31.27 0l0 14.52l-31.27 0Z" id="p103w338" />
<path d="M204.17 864.45l76.45 0l0 14.52l-76.45 0Z" id="p103w339" />
<path d="M280.62 864.45l20.84 0l0 14.52l-20.84 0Z" id="p103w340" />
<path d="M304.67 864.45l73.74 0l0 14.52l-73.74 0Z" id="p103w341" />
<path d="M381.62 864.45l15.5 0l0 14.52l-15.5 0Z" id="p103w342" />
<path d="M400.32 864.45l37.42 0l0 14.52l-37.42 0Z" id="p103w343" />
<path d="M143.75 881.12l15.25 0l0 14.52l-15.25 0Z" id="p103w344" />
<path d="M162.21 881.12l32.54 0l0 14.52l-32.54 0Z" id="p103w345" />
<path d="M197.95 881.12l38.23 0l0 14.52l-38.23 0Z" id="p103w346" />
<path d="M239.38 881.12l56.68 0l0 14.52l-56.68 0Z" id="p103w347" />
<path d="M299.27 881.12l14.18 0l0 14.52l-14.18 0Z" id="p103w348" />
<path d="M316.65 881.12l11.22 0l0 14.52l-11.22 0Z" id="p103w349" />
<path d="M331.08 881.12l21.92 0l0 14.52l-21.92 0Z" id="p103w350" />
<path d="M356.21 881.12l28.07 0l0 14.52l-28.07 0Z" id="p103w351" />
<path d="M387.49 881.12l10.43 0l0 14.52l-10.43 0Z" id="p103w352" />
<path d="M401.13 881.12l23.53 0l0 14.52l-23.53 0Z" id="p103w353" />
<path d="M427.87 881.12l88.74 0l0 14.52l-88.74 0Z" id="p103w354" />
<path d="M519.82 881.12l29.95 0l0 14.52l-29.95 0Z" id="p103w355" />
<path d="M76.64 116.02l11.64 0l0 12.3l-11.64 0Z" id="p103w356" />
<path d="M533.72 479.5l30.73 0l0 14.52l-30.73 0Z" id="p103w357" />
<path d="M567.66 479.5l12.84 0l0 14.52l-12.84 0Z" id="p103w358" />
<path d="M533.72 531l40.18 0l0 14.52l-40.18 0Z" id="p103w359" />
<path d="M577.11 531l33.95 0l0 14.52l-33.95 0Z" id="p103w360" />
<path d="M533.72 579.54l43.04 0l0 14.52l-43.04 0Z" id="p103w361" />
<path d="M579.97 579.54l22.7 0l0 14.52l-22.7 0Z" id="p103w362" />
<path d="M605.89 579.54l59.86 0l0 14.52l-59.86 0Z" id="p103w363" />
<path d="M533.72 629.56l20.85 0l0 14.52l-20.85 0Z" id="p103w364" />
<path d="M557.79 629.56l52.11 0l0 14.52l-52.11 0Z" id="p103w365" />
<path d="M613.11 629.56l25.4 0l0 14.52l-25.4 0Z" id="p103w366" />
<path d="M641.71 629.56l20.85 0l0 14.52l-20.85 0Z" id="p103w367" />
<path d="M665.77 629.56l37.42 0l0 14.52l-37.42 0Z" id="p103w368" />
<path d="M533.72 662.9l41.96 0l0 14.52l-41.96 0Z" id="p103w369" />
<path d="M60.68 741.18l27.93 0l0 12.29l-27.93 0Z" id="p103w370" />
<path d="M68.27 39.02l42.71 0l0 15.38l-42.71 0Z" id="p103w371" />
<path d="M152.25 39.02l43.21 0l0 15.38l-43.21 0Z" id="p103w372" />
<path d="M250.71 39.02l43.21 0l0 15.38l-43.21 0Z" id="p103w373" />
<path d="M358.23 39.02l28.68 0l0 15.38l-28.68 0Z" id="p103w374" />
<path d="M390.29 39.02l43.54 0l0 15.38l-43.54 0Z" id="p103w375" />
<path d="M468.42 38.6l34.29 0l0 16.09l-34.29 0Z" id="p103w376" />
<path d="M655.6 983l35.5 0l0 12.23l-35.5 0Z" id="p103w377" />
<path d="M527.54 26.71l16.09 0l0 13.93l-16.09 0Z" id="p103w378" />
<path d="M547.18 27.74l48.96 0l0 15.66l-48.96 0Z" id="p103w379" />
<path d="M599.68 30.49l10.89 0l0 13.66l-10.89 0Z" id="p103w380" />
<path d="M614.12 31.25l18.54 0l0 14.06l-18.54 0Z" id="p103w381" />
<path d="M526.67 43.36l75.35 0l0 17.04l-75.35 0Z" id="p103w382" />
<path d="M612.34 47.85l22.77 0l0 14.29l-22.77 0Z" id="p103w383" />
<path d="M525.8 60.01l13.22 0l0 13.78l-13.22 0Z" id="p103w384" />
<path d="M542.57 60.89l12.03 0l0 13.72l-12.03 0Z" id="p103w385" />
<path d="M558.15 61.71l25.27 0l0 14.42l-25.27 0Z" id="p103w386" />
</svg>
