<?xml version="1.0" encoding="UTF-8"?>
<svg xmlns="http://www.w3.org/2000/svg" xmlns:xlink="http://www.w3.org/1999/xlink" version="1.1" baseProfile="full" width="768" height="1024" viewBox="0,0,768,1024" preserveAspectRatio="xMinYMin meet" >
<style type="text/css">
<![CDATA[
path {fill-opacity: 0.5;fill: #00aeef;visibility: hidden;}
]]>
</style>
<path d="M76.9 983.66l134.07 0l0 12.23l-134.07 0Z" id="p256w1" />
<path d="M124.06 38.6l77.83 0l0 16.09l-77.83 0Z" id="p256w2" />
<path d="M124.06 112.51l40.5 0l0 12.23l-40.5 0Z" id="p256w3" />
<path d="M167.27 112.45l39.84 0l0 12.29l-39.84 0Z" id="p256w4" />
<path d="M209.8 112.51l38.49 0l0 12.23l-38.49 0Z" id="p256w5" />
<path d="M251 112.51l27.37 0l0 12.23l-27.37 0Z" id="p256w6" />
<path d="M133.91 127.55l18.92 0l0 12.56l-18.92 0Z" id="p256w7" />
<path d="M124.06 143.02l53.98 0l0 12.29l-53.98 0Z" id="p256w8" />
<path d="M180.74 143.08l36.69 0l0 12.23l-36.69 0Z" id="p256w9" />
<path d="M220.13 142.83l18.17 0l0 12.56l-18.17 0Z" id="p256w10" />
<path d="M124.06 158.36l10.82 0l0 12.23l-10.82 0Z" id="p256w11" />
<path d="M137.58 158.3l17.74 0l0 12.29l-17.74 0Z" id="p256w12" />
<path d="M166.34 158.36l20.49 0l0 12.23l-20.49 0Z" id="p256w13" />
<path d="M189.53 158.11l15.54 0l0 12.56l-15.54 0Z" id="p256w14" />
<path d="M124.06 173.64l15.53 0l0 12.23l-15.53 0Z" id="p256w15" />
<path d="M142.29 173.59l35.08 0l0 12.29l-35.08 0Z" id="p256w16" />
<path d="M180.07 173.62l16.66 0l0 12.23l-16.66 0Z" id="p256w17" />
<path d="M199.43 173.62l42.19 0l0 12.23l-42.19 0Z" id="p256w18" />
<path d="M244.33 173.64l8.33 0l0 12.23l-8.33 0Z" id="p256w19" />
<path d="M255.35 173.64l19.14 0l0 12.23l-19.14 0Z" id="p256w20" />
<path d="M277.2 173.4l14.63 0l0 12.56l-14.63 0Z" id="p256w21" />
<path d="M124.06 227.13l14.41 0l0 12.23l-14.41 0Z" id="p256w22" />
<path d="M141.17 227.08l24.62 0l0 12.29l-24.62 0Z" id="p256w23" />
<path d="M168.49 227.11l26.79 0l0 12.23l-26.79 0Z" id="p256w24" />
<path d="M197.98 227.11l30.38 0l0 12.23l-30.38 0Z" id="p256w25" />
<path d="M231.06 227.13l11.94 0l0 12.23l-11.94 0Z" id="p256w26" />
<path d="M245.7 227.13l18.23 0l0 12.23l-18.23 0Z" id="p256w27" />
<path d="M266.63 226.89l14.63 0l0 12.56l-14.63 0Z" id="p256w28" />
<path d="M124.06 242.36l22.39 0l0 12.29l-22.39 0Z" id="p256w29" />
<path d="M149.15 242.42l65.15 0l0 12.23l-65.15 0Z" id="p256w30" />
<path d="M217 242.17l18.01 0l0 12.56l-18.01 0Z" id="p256w31" />
<path d="M124.06 257.65l22.39 0l0 12.29l-22.39 0Z" id="p256w32" />
<path d="M160.85 257.68l37.14 0l0 12.23l-37.14 0Z" id="p256w33" />
<path d="M200.69 257.7l48.52 0l0 12.23l-48.52 0Z" id="p256w34" />
<path d="M251.91 257.46l18.17 0l0 12.56l-18.17 0Z" id="p256w35" />
<path d="M124.06 272.98l14.41 0l0 12.23l-14.41 0Z" id="p256w36" />
<path d="M141.17 272.93l34.09 0l0 12.29l-34.09 0Z" id="p256w37" />
<path d="M177.96 272.98l54.14 0l0 12.23l-54.14 0Z" id="p256w38" />
<path d="M234.8 272.74l18.17 0l0 12.56l-18.17 0Z" id="p256w39" />
<path d="M124.06 288.21l14.49 0l0 12.29l-14.49 0Z" id="p256w40" />
<path d="M141.26 288.21l28.01 0l0 12.29l-28.01 0Z" id="p256w41" />
<path d="M171.97 288.21l17.9 0l0 12.29l-17.9 0Z" id="p256w42" />
<path d="M192.56 288.27l19.36 0l0 12.23l-19.36 0Z" id="p256w43" />
<path d="M214.63 288.27l8.33 0l0 12.23l-8.33 0Z" id="p256w44" />
<path d="M225.65 288.27l29.48 0l0 12.23l-29.48 0Z" id="p256w45" />
<path d="M257.83 288.02l18.17 0l0 12.56l-18.17 0Z" id="p256w46" />
<path d="M124.06 303.55l19.44 0l0 12.23l-19.44 0Z" id="p256w47" />
<path d="M146.2 303.5l55.04 0l0 12.29l-55.04 0Z" id="p256w48" />
<path d="M203.95 303.55l37.3 0l0 12.23l-37.3 0Z" id="p256w49" />
<path d="M243.95 303.55l11.04 0l0 12.23l-11.04 0Z" id="p256w50" />
<path d="M257.69 303.31l18.92 0l0 12.56l-18.92 0Z" id="p256w51" />
<path d="M124.06 318.83l20.03 0l0 12.23l-20.03 0Z" id="p256w52" />
<path d="M146.79 318.78l38.4 0l0 12.29l-38.4 0Z" id="p256w53" />
<path d="M187.9 318.83l11.94 0l0 12.23l-11.94 0Z" id="p256w54" />
<path d="M202.53 318.83l27.18 0l0 12.23l-27.18 0Z" id="p256w55" />
<path d="M232.41 318.59l18.92 0l0 12.56l-18.92 0Z" id="p256w56" />
<path d="M124.06 334.12l14.41 0l0 12.23l-14.41 0Z" id="p256w57" />
<path d="M141.17 334.06l42.02 0l0 12.29l-42.02 0Z" id="p256w58" />
<path d="M185.88 334.12l11.94 0l0 12.23l-11.94 0Z" id="p256w59" />
<path d="M200.52 334.12l47.04 0l0 12.23l-47.04 0Z" id="p256w60" />
<path d="M250.26 333.87l15.54 0l0 12.56l-15.54 0Z" id="p256w61" />
<path d="M280.26 334.12l11.94 0l0 12.23l-11.94 0Z" id="p256w62" />
<path d="M133.91 349.4l42.98 0l0 12.23l-42.98 0Z" id="p256w63" />
<path d="M179.59 349.16l18.92 0l0 12.56l-18.92 0Z" id="p256w64" />
<path d="M124.06 364.68l20.04 0l0 12.23l-20.04 0Z" id="p256w65" />
<path d="M146.8 364.68l19.44 0l0 12.23l-19.44 0Z" id="p256w66" />
<path d="M168.94 364.63l29.29 0l0 12.29l-29.29 0Z" id="p256w67" />
<path d="M200.93 364.68l33.55 0l0 12.23l-33.55 0Z" id="p256w68" />
<path d="M237.18 364.68l11.04 0l0 12.23l-11.04 0Z" id="p256w69" />
<path d="M259.24 364.68l12.16 0l0 12.23l-12.16 0Z" id="p256w70" />
<path d="M274.11 364.44l15.54 0l0 12.56l-15.54 0Z" id="p256w71" />
<path d="M133.91 379.97l30.6 0l0 12.23l-30.6 0Z" id="p256w72" />
<path d="M167.21 379.97l11.04 0l0 12.23l-11.04 0Z" id="p256w73" />
<path d="M189.27 379.97l12.16 0l0 12.23l-12.16 0Z" id="p256w74" />
<path d="M204.14 379.72l18.17 0l0 12.56l-18.17 0Z" id="p256w75" />
<path d="M133.91 395.25l18.46 0l0 12.23l-18.46 0Z" id="p256w76" />
<path d="M155.07 395.25l26.79 0l0 12.23l-26.79 0Z" id="p256w77" />
<path d="M184.56 395.25l29.43 0l0 12.23l-29.43 0Z" id="p256w78" />
<path d="M216.7 395.25l21.37 0l0 12.23l-21.37 0Z" id="p256w79" />
<path d="M240.77 395.25l16.43 0l0 12.23l-16.43 0Z" id="p256w80" />
<path d="M259.9 395.25l30.83 0l0 12.23l-30.83 0Z" id="p256w81" />
<path d="M153.34 410.51l14.18 0l0 12.23l-14.18 0Z" id="p256w82" />
<path d="M170.22 410.29l18.92 0l0 12.56l-18.92 0Z" id="p256w83" />
<path d="M124.06 425.82l14.41 0l0 12.23l-14.41 0Z" id="p256w84" />
<path d="M141.17 425.76l36.87 0l0 12.29l-36.87 0Z" id="p256w85" />
<path d="M180.74 425.82l17.56 0l0 12.23l-17.56 0Z" id="p256w86" />
<path d="M201 425.82l48.34 0l0 12.23l-48.34 0Z" id="p256w87" />
<path d="M252.04 425.57l18.01 0l0 12.56l-18.01 0Z" id="p256w88" />
<path d="M124.06 441.05l38.96 0l0 12.29l-38.96 0Z" id="p256w89" />
<path d="M165.72 441.1l33.2 0l0 12.23l-33.2 0Z" id="p256w90" />
<path d="M201.62 440.86l18.92 0l0 12.56l-18.92 0Z" id="p256w91" />
<path d="M124.06 456.39l20.03 0l0 12.23l-20.03 0Z" id="p256w92" />
<path d="M146.79 456.33l100.89 0l0 12.29l-100.89 0Z" id="p256w93" />
<path d="M250.39 456.39l11.94 0l0 12.23l-11.94 0Z" id="p256w94" />
<path d="M265.02 456.39l26.79 0l0 12.23l-26.79 0Z" id="p256w95" />
<path d="M133.91 471.67l39.99 0l0 12.23l-39.99 0Z" id="p256w96" />
<path d="M176.6 471.42l18.92 0l0 12.56l-18.92 0Z" id="p256w97" />
<path d="M124.06 486.9l52.06 0l0 12.29l-52.06 0ZM178.83 486.95l48.56 0l0 12.23l-48.56 0Z" id="p256w98" />
<path d="M230.09 486.71l18.92 0l0 12.56l-18.92 0Z" id="p256w99" />
<path d="M124.06 502.24l14.41 0l0 12.23l-14.41 0Z" id="p256w100" />
<path d="M141.17 502.18l52.84 0l0 12.29l-52.84 0Z" id="p256w101" />
<path d="M196.71 502.24l11.94 0l0 12.23l-11.94 0Z" id="p256w102" />
<path d="M211.35 502.24l57.61 0l0 12.23l-57.61 0Z" id="p256w103" />
<path d="M271.66 501.99l14.79 0l0 12.56l-14.79 0Z" id="p256w104" />
<path d="M124.06 517.52l14.41 0l0 12.23l-14.41 0Z" id="p256w105" />
<path d="M141.17 517.46l34.59 0l0 12.29l-34.59 0Z" id="p256w106" />
<path d="M178.46 517.52l11.94 0l0 12.23l-11.94 0Z" id="p256w107" />
<path d="M193.1 517.52l35.12 0l0 12.23l-35.12 0Z" id="p256w108" />
<path d="M230.92 517.27l18.72 0l0 12.56l-18.72 0Z" id="p256w109" />
<path d="M124.06 532.75l41.09 0l0 12.29l-41.09 0Z" id="p256w110" />
<path d="M167.86 532.8l77.31 0l0 12.23l-77.31 0Z" id="p256w111" />
<path d="M247.86 532.56l18.92 0l0 12.56l-18.92 0Z" id="p256w112" />
<path d="M124.06 548.03l47.14 0l0 12.29l-47.14 0Z" id="p256w113" />
<path d="M173.9 548.09l108.95 0l0 12.23l-108.95 0Z" id="p256w114" />
<path d="M133.91 563.12l14.41 0l0 12.56l-14.41 0Z" id="p256w115" />
<path d="M124.06 578.65l20.04 0l0 12.23l-20.04 0Z" id="p256w116" />
<path d="M146.8 578.6l38.17 0l0 12.29l-38.17 0Z" id="p256w117" />
<path d="M187.67 578.65l26.55 0l0 12.23l-26.55 0Z" id="p256w118" />
<path d="M225.25 578.65l12.16 0l0 12.23l-12.16 0Z" id="p256w119" />
<path d="M240.12 578.41l18.92 0l0 12.56l-18.92 0Z" id="p256w120" />
<path d="M133.91 593.94l17.33 0l0 12.23l-17.33 0Z" id="p256w121" />
<path d="M153.94 593.94l30.1 0l0 12.23l-30.1 0Z" id="p256w122" />
<path d="M186.74 593.94l16.9 0l0 12.23l-16.9 0Z" id="p256w123" />
<path d="M206.34 593.94l11.7 0l0 12.23l-11.7 0Z" id="p256w124" />
<path d="M220.74 593.94l14.85 0l0 12.23l-14.85 0Z" id="p256w125" />
<path d="M238.29 593.94l23.19 0l0 12.23l-23.19 0Z" id="p256w126" />
<path d="M264.18 593.69l14.63 0l0 12.56l-14.63 0Z" id="p256w127" />
<path d="M133.91 609.22l17.33 0l0 12.23l-17.33 0Z" id="p256w128" />
<path d="M153.94 609.22l30.1 0l0 12.23l-30.1 0Z" id="p256w129" />
<path d="M186.74 609.22l15.75 0l0 12.23l-15.75 0Z" id="p256w130" />
<path d="M205.19 609.22l25.9 0l0 12.23l-25.9 0Z" id="p256w131" />
<path d="M233.79 609.22l11.7 0l0 12.23l-11.7 0Z" id="p256w132" />
<path d="M248.2 609.22l11.7 0l0 12.23l-11.7 0Z" id="p256w133" />
<path d="M262.6 609.22l14.85 0l0 12.23l-14.85 0Z" id="p256w134" />
<path d="M280.15 609.22l20.93 0l0 12.23l-20.93 0Z" id="p256w135" />
<path d="M133.91 624.5l18.68 0l0 12.23l-18.68 0Z" id="p256w136" />
<path d="M155.3 624.26l14.63 0l0 12.56l-14.63 0Z" id="p256w137" />
<path d="M124.06 639.79l14.41 0l0 12.23l-14.41 0Z" id="p256w138" />
<path d="M141.17 639.73l47.67 0l0 12.29l-47.67 0Z" id="p256w139" />
<path d="M191.54 639.79l17.56 0l0 12.23l-17.56 0Z" id="p256w140" />
<path d="M211.81 639.79l29.27 0l0 12.23l-29.27 0Z" id="p256w141" />
<path d="M243.77 639.54l18.01 0l0 12.56l-18.01 0Z" id="p256w142" />
<path d="M124.06 655.07l14.41 0l0 12.23l-14.41 0Z" id="p256w143" />
<path d="M141.17 655.01l31.21 0l0 12.29l-31.21 0Z" id="p256w144" />
<path d="M175.08 655.07l17.56 0l0 12.23l-17.56 0Z" id="p256w145" />
<path d="M195.34 655.07l39.17 0l0 12.23l-39.17 0Z" id="p256w146" />
<path d="M237.21 654.83l15.34 0l0 12.56l-15.34 0Z" id="p256w147" />
<path d="M267.01 655.07l11.94 0l0 12.23l-11.94 0Z" id="p256w148" />
<path d="M133.91 670.35l47.71 0l0 12.23l-47.71 0Z" id="p256w149" />
<path d="M184.32 670.11l18.17 0l0 12.56l-18.17 0Z" id="p256w150" />
<path d="M124.06 685.58l29.09 0l0 12.29l-29.09 0Z" id="p256w151" />
<path d="M155.85 685.64l30.17 0l0 12.23l-30.17 0Z" id="p256w152" />
<path d="M188.72 685.39l15.54 0l0 12.56l-15.54 0Z" id="p256w153" />
<path d="M124.06 700.92l14.41 0l0 12.23l-14.41 0Z" id="p256w154" />
<path d="M141.17 700.86l56.79 0l0 12.29l-56.79 0Z" id="p256w155" />
<path d="M200.66 700.92l11.94 0l0 12.23l-11.94 0Z" id="p256w156" />
<path d="M215.3 700.92l23.86 0l0 12.23l-23.86 0Z" id="p256w157" />
<path d="M241.86 700.68l18.01 0l0 12.56l-18.01 0Z" id="p256w158" />
<path d="M124.06 716.2l16.43 0l0 12.23l-16.43 0Z" id="p256w159" />
<path d="M143.19 716.15l45.43 0l0 12.29l-45.43 0Z" id="p256w160" />
<path d="M191.32 716.2l24.32 0l0 12.23l-24.32 0Z" id="p256w161" />
<path d="M218.34 716.2l8.33 0l0 12.23l-8.33 0Z" id="p256w162" />
<path d="M229.37 716.2l42.09 0l0 12.23l-42.09 0Z" id="p256w163" />
<path d="M274.16 716.2l18.91 0l0 12.23l-18.91 0Z" id="p256w164" />
<path d="M133.91 731.24l18.92 0l0 12.56l-18.92 0Z" id="p256w165" />
<path d="M124.06 746.71l50.66 0l0 12.29l-50.66 0Z" id="p256w166" />
<path d="M177.43 746.77l17.12 0l0 12.23l-17.12 0Z" id="p256w167" />
<path d="M197.24 746.77l19.44 0l0 12.23l-19.44 0Z" id="p256w168" />
<path d="M219.38 746.77l11.7 0l0 12.23l-11.7 0Z" id="p256w169" />
<path d="M233.79 746.77l19.81 0l0 12.23l-19.81 0Z" id="p256w170" />
<path d="M256.3 746.77l11.7 0l0 12.23l-11.7 0Z" id="p256w171" />
<path d="M270.7 746.77l11.04 0l0 12.23l-11.04 0Z" id="p256w172" />
<path d="M133.91 761.81l15.54 0l0 12.56l-15.54 0Z" id="p256w173" />
<path d="M124.06 777.34l14.41 0l0 12.23l-14.41 0Z" id="p256w174" />
<path d="M141.17 777.28l50.15 0l0 12.29l-50.15 0Z" id="p256w175" />
<path d="M194.02 777.34l11.94 0l0 12.23l-11.94 0Z" id="p256w176" />
<path d="M208.66 777.34l28.58 0l0 12.23l-28.58 0Z" id="p256w177" />
<path d="M239.94 777.09l18.92 0l0 12.56l-18.92 0Z" id="p256w178" />
<path d="M124.06 792.56l29.29 0l0 12.29l-29.29 0Z" id="p256w179" />
<path d="M156.05 792.62l20.47 0l0 12.23l-20.47 0Z" id="p256w180" />
<path d="M179.23 792.38l15.54 0l0 12.56l-15.54 0Z" id="p256w181" />
<path d="M210.27 792.62l39.16 0l0 12.23l-39.16 0Z" id="p256w182" />
<path d="M252.13 792.38l15.54 0l0 12.56l-15.54 0Z" id="p256w183" />
<path d="M133.91 807.9l15.71 0l0 12.23l-15.71 0Z" id="p256w184" />
<path d="M152.32 807.9l29.43 0l0 12.23l-29.43 0Z" id="p256w185" />
<path d="M184.45 807.9l20.49 0l0 12.23l-20.49 0Z" id="p256w186" />
<path d="M207.64 807.9l10.35 0l0 12.23l-10.35 0Z" id="p256w187" />
<path d="M220.69 807.9l30.6 0l0 12.23l-30.6 0Z" id="p256w188" />
<path d="M253.99 807.66l18.92 0l0 12.56l-18.92 0Z" id="p256w189" />
<path d="M133.91 823.19l22.74 0l0 12.23l-22.74 0Z" id="p256w190" />
<path d="M159.35 823.19l29.03 0l0 12.23l-29.03 0Z" id="p256w191" />
<path d="M191.09 823.19l29.43 0l0 12.23l-29.43 0Z" id="p256w192" />
<path d="M223.22 823.19l32.62 0l0 12.23l-32.62 0Z" id="p256w193" />
<path d="M258.54 822.94l15.54 0l0 12.56l-15.54 0Z" id="p256w194" />
<path d="M133.91 838.47l10.82 0l0 12.23l-10.82 0Z" id="p256w195" />
<path d="M147.43 838.47l20.04 0l0 12.23l-20.04 0Z" id="p256w196" />
<path d="M170.17 838.45l26.34 0l0 12.23l-26.34 0Z" id="p256w197" />
<path d="M199.21 838.45l32.63 0l0 12.23l-32.63 0Z" id="p256w198" />
<path d="M234.55 838.47l29.43 0l0 12.23l-29.43 0Z" id="p256w199" />
<path d="M266.68 838.47l20.47 0l0 12.23l-20.47 0Z" id="p256w200" />
<path d="M133.91 853.75l21.62 0l0 12.23l-21.62 0Z" id="p256w201" />
<path d="M158.23 853.75l12.16 0l0 12.23l-12.16 0Z" id="p256w202" />
<path d="M173.09 853.51l15.54 0l0 12.56l-15.54 0Z" id="p256w203" />
<path d="M133.91 869.04l15.98 0l0 12.23l-15.98 0Z" id="p256w204" />
<path d="M152.59 869.04l31.23 0l0 12.23l-31.23 0Z" id="p256w205" />
<path d="M186.53 869.04l13.28 0l0 12.23l-13.28 0Z" id="p256w206" />
<path d="M210.17 869.04l10.66 0l0 12.23l-10.66 0Z" id="p256w207" />
<path d="M229.39 868.79l15.54 0l0 12.56l-15.54 0Z" id="p256w208" />
<path d="M133.91 884.32l10.58 0l0 12.23l-10.58 0Z" id="p256w209" />
<path d="M147.19 884.32l21.55 0l0 12.23l-21.55 0Z" id="p256w210" />
<path d="M171.45 884.32l31.74 0l0 12.23l-31.74 0Z" id="p256w211" />
<path d="M205.89 884.32l11.7 0l0 12.23l-11.7 0Z" id="p256w212" />
<path d="M220.3 884.32l10.66 0l0 12.23l-10.66 0Z" id="p256w213" />
<path d="M233.66 884.32l30.62 0l0 12.23l-30.62 0Z" id="p256w214" />
<path d="M266.98 884.08l15.54 0l0 12.56l-15.54 0Z" id="p256w215" />
<path d="M133.91 899.6l10.58 0l0 12.23l-10.58 0Z" id="p256w216" />
<path d="M147.19 899.6l21.55 0l0 12.23l-21.55 0Z" id="p256w217" />
<path d="M171.45 899.6l15.75 0l0 12.23l-15.75 0Z" id="p256w218" />
<path d="M189.9 899.6l23.64 0l0 12.23l-23.64 0Z" id="p256w219" />
<path d="M216.24 899.6l10.58 0l0 12.23l-10.58 0Z" id="p256w220" />
<path d="M229.52 899.6l17.96 0l0 12.23l-17.96 0Z" id="p256w221" />
<path d="M250.19 899.6l11.7 0l0 12.23l-11.7 0Z" id="p256w222" />
<path d="M264.59 899.6l11.7 0l0 12.23l-11.7 0Z" id="p256w223" />
<path d="M279 899.6l10.66 0l0 12.23l-10.66 0Z" id="p256w224" />
<path d="M133.91 914.89l16.43 0l0 12.23l-16.43 0Z" id="p256w225" />
<path d="M153.04 914.89l21.62 0l0 12.23l-21.62 0Z" id="p256w226" />
<path d="M177.36 914.64l15.54 0l0 12.56l-15.54 0Z" id="p256w227" />
<path d="M133.91 930.17l30.39 0l0 12.23l-30.39 0Z" id="p256w228" />
<path d="M167 930.17l18.01 0l0 12.23l-18.01 0Z" id="p256w229" />
<path d="M187.71 930.17l13.28 0l0 12.23l-13.28 0Z" id="p256w230" />
<path d="M211.35 930.17l10.66 0l0 12.23l-10.66 0Z" id="p256w231" />
<path d="M230.57 929.93l15.54 0l0 12.56l-15.54 0Z" id="p256w232" />
<path d="M335.43 112.5l17.55 0l0 12.23l-17.55 0Z" id="p256w233" />
<path d="M355.68 112.5l32.36 0l0 12.23l-32.36 0Z" id="p256w234" />
<path d="M390.74 112.5l11.7 0l0 12.23l-11.7 0Z" id="p256w235" />
<path d="M405.14 112.5l10.66 0l0 12.23l-10.66 0Z" id="p256w236" />
<path d="M425.48 112.26l13.88 0l0 12.56l-13.88 0Z" id="p256w237" />
<path d="M325.58 127.73l38.96 0l0 12.29l-38.96 0Z" id="p256w238" />
<path d="M367.24 127.79l10.82 0l0 12.23l-10.82 0Z" id="p256w239" />
<path d="M380.76 127.79l21.37 0l0 12.23l-21.37 0Z" id="p256w240" />
<path d="M404.83 127.79l27.68 0l0 12.23l-27.68 0Z" id="p256w241" />
<path d="M435.21 127.79l11.7 0l0 12.23l-11.7 0Z" id="p256w242" />
<path d="M449.61 127.79l11.04 0l0 12.23l-11.04 0Z" id="p256w243" />
<path d="M463.35 127.54l18.17 0l0 12.56l-18.17 0Z" id="p256w244" />
<path d="M325.58 143.07l10.82 0l0 12.23l-10.82 0Z" id="p256w245" />
<path d="M339.1 143.07l43.65 0l0 12.23l-43.65 0Z" id="p256w246" />
<path d="M385.45 143.01l38.96 0l0 12.29l-38.96 0Z" id="p256w247" />
<path d="M427.11 143.07l49.28 0l0 12.23l-49.28 0Z" id="p256w248" />
<path d="M487.42 143.07l15.21 0l0 12.23l-15.21 0Z" id="p256w249" />
<path d="M335.43 158.35l12.16 0l0 12.23l-12.16 0Z" id="p256w250" />
<path d="M350.29 158.11l18.92 0l0 12.56l-18.92 0Z" id="p256w251" />
<path d="M325.58 173.64l14.41 0l0 12.23l-14.41 0Z" id="p256w252" />
<path d="M342.69 173.58l26.97 0l0 12.29l-26.97 0Z" id="p256w253" />
<path d="M372.35 173.64l8.33 0l0 12.23l-8.33 0Z" id="p256w254" />
<path d="M383.38 173.64l28.38 0l0 12.23l-28.38 0Z" id="p256w255" />
<path d="M414.46 173.39l14.63 0l0 12.56l-14.63 0Z" id="p256w256" />
<path d="M325.58 188.86l32.55 0l0 12.29l-32.55 0Z" id="p256w257" />
<path d="M366.71 188.92l81.4 0l0 12.23l-81.4 0Z" id="p256w258" />
<path d="M450.8 188.68l18.17 0l0 12.56l-18.17 0Z" id="p256w259" />
<path d="M335.43 204.2l80.02 0l0 12.23l-80.02 0Z" id="p256w260" />
<path d="M418.15 203.96l18.92 0l0 12.56l-18.92 0Z" id="p256w261" />
<path d="M325.58 219.43l20.4 0l0 12.29l-20.4 0Z" id="p256w262" />
<path d="M348.68 219.49l25.67 0l0 12.23l-25.67 0Z" id="p256w263" />
<path d="M377.04 219.24l15.34 0l0 12.56l-15.34 0Z" id="p256w264" />
<path d="M325.58 234.77l16.43 0l0 12.23l-16.43 0Z" id="p256w265" />
<path d="M344.71 234.71l21.52 0l0 12.29l-21.52 0Z" id="p256w266" />
<path d="M368.93 234.77l35.21 0l0 12.23l-35.21 0Z" id="p256w267" />
<path d="M427.99 234.53l15.54 0l0 12.56l-15.54 0Z" id="p256w268" />
<path d="M325.58 250.05l14.41 0l0 12.23l-14.41 0Z" id="p256w269" />
<path d="M342.69 250l51.57 0l0 12.29l-51.57 0Z" id="p256w270" />
<path d="M398.43 250l51.57 0l0 12.29l-51.57 0Z" id="p256w271" />
<path d="M452.7 250.05l11.94 0l0 12.23l-11.94 0Z" id="p256w272" />
<path d="M467.34 250.05l28.29 0l0 12.23l-28.29 0ZM335.43 265.34l61.79 0l0 12.23l-61.79 0Z" id="p256w273" />
<path d="M399.92 265.34l74.21 0l0 12.23l-74.21 0Z" id="p256w274" />
<path d="M476.82 265.09l14.79 0l0 12.56l-14.79 0Z" id="p256w275" />
<path d="M325.58 280.62l20.03 0l0 12.23l-20.03 0Z" id="p256w276" />
<path d="M348.31 280.56l57.13 0l0 12.29l-57.13 0Z" id="p256w277" />
<path d="M408.14 280.62l17.56 0l0 12.23l-17.56 0Z" id="p256w278" />
<path d="M428.41 280.62l40.76 0l0 12.23l-40.76 0Z" id="p256w279" />
<path d="M471.87 280.38l15.54 0l0 12.56l-15.54 0Z" id="p256w280" />
<path d="M325.58 295.85l40.79 0l0 12.29l-40.79 0Z" id="p256w281" />
<path d="M369.07 295.9l19.44 0l0 12.23l-19.44 0Z" id="p256w282" />
<path d="M391.21 295.9l10.82 0l0 12.23l-10.82 0Z" id="p256w283" />
<path d="M404.73 295.9l15.76 0l0 12.23l-15.76 0Z" id="p256w284" />
<path d="M423.19 295.9l31.28 0l0 12.23l-31.28 0Z" id="p256w285" />
<path d="M465.5 295.9l21.37 0l0 12.23l-21.37 0Z" id="p256w286" />
<path d="M489.57 295.9l11.04 0l0 12.23l-11.04 0Z" id="p256w287" />
<path d="M335.43 310.94l15.54 0l0 12.56l-15.54 0Z" id="p256w288" />
<path d="M325.58 326.42l35.28 0l0 12.29l-35.28 0Z" id="p256w289" />
<path d="M363.56 326.47l92.62 0l0 12.23l-92.62 0Z" id="p256w290" />
<path d="M458.89 326.23l18.92 0l0 12.56l-18.92 0Z" id="p256w291" />
<path d="M325.58 341.7l55.01 0l0 12.29l-55.01 0Z" id="p256w292" />
<path d="M383.29 341.75l45.68 0l0 12.23l-45.68 0Z" id="p256w293" />
<path d="M431.68 341.51l14.79 0l0 12.56l-14.79 0Z" id="p256w294" />
<path d="M325.58 356.98l29.19 0l0 12.29l-29.19 0Z" id="p256w295" />
<path d="M357.47 357.04l55.36 0l0 12.23l-55.36 0Z" id="p256w296" />
<path d="M415.54 356.79l15.34 0l0 12.56l-15.34 0Z" id="p256w297" />
<path d="M325.58 372.27l39.87 0l0 12.29l-39.87 0Z" id="p256w298" />
<path d="M368.15 372.32l34.61 0l0 12.23l-34.61 0Z" id="p256w299" />
<path d="M405.47 372.32l16.65 0l0 12.23l-16.65 0Z" id="p256w300" />
<path d="M424.82 372.32l23.63 0l0 12.23l-23.63 0Z" id="p256w301" />
<path d="M451.15 372.32l47.04 0l0 12.23l-47.04 0Z" id="p256w302" />
<path d="M335.43 387.6l17.56 0l0 12.23l-17.56 0Z" id="p256w303" />
<path d="M355.69 387.36l18.92 0l0 12.56l-18.92 0Z" id="p256w304" />
<path d="M325.58 402.83l36.1 0l0 12.29l-36.1 0Z" id="p256w305" />
<path d="M364.38 402.89l73.7 0l0 12.23l-73.7 0Z" id="p256w306" />
<path d="M440.79 402.64l18.72 0l0 12.56l-18.72 0Z" id="p256w307" />
<path d="M325.58 418.12l28.84 0l0 12.29l-28.84 0Z" id="p256w308" />
<path d="M357.13 418.17l67.3 0l0 12.23l-67.3 0Z" id="p256w309" />
<path d="M427.13 417.93l18.17 0l0 12.56l-18.17 0Z" id="p256w310" />
<path d="M325.58 433.45l14.41 0l0 12.23l-14.41 0Z" id="p256w311" />
<path d="M342.69 433.4l27.17 0l0 12.29l-27.17 0Z" id="p256w312" />
<path d="M372.55 433.45l11.94 0l0 12.23l-11.94 0Z" id="p256w313" />
<path d="M387.19 433.45l26.05 0l0 12.23l-26.05 0Z" id="p256w314" />
<path d="M415.95 433.21l18.01 0l0 12.56l-18.01 0Z" id="p256w315" />
<path d="M325.58 448.74l47.71 0l0 12.23l-47.71 0Z" id="p256w316" />
<path d="M375.99 448.68l44.08 0l0 12.29l-44.08 0Z" id="p256w317" />
<path d="M422.77 448.74l21.84 0l0 12.23l-21.84 0Z" id="p256w318" />
<path d="M444.61 448.74l13.27 0l0 12.23l-13.27 0Z" id="p256w319" />
<path d="M460.59 448.74l11.7 0l0 12.23l-11.7 0Z" id="p256w320" />
<path d="M474.99 448.74l16.33 0l0 12.23l-16.33 0Z" id="p256w321" />
<path d="M335.43 464.02l11.04 0l0 12.23l-11.04 0Z" id="p256w322" />
<path d="M349.17 463.78l18.92 0l0 12.56l-18.92 0Z" id="p256w323" />
<path d="M325.58 479.25l40.4 0l0 12.29l-40.4 0Z" id="p256w324" />
<path d="M368.69 479.3l20.49 0l0 12.23l-20.49 0Z" id="p256w325" />
<path d="M391.87 479.3l70.13 0l0 12.23l-70.13 0Z" id="p256w326" />
<path d="M480.22 479.07l18.01 0l0 12.56l-18.01 0Z" id="p256w327" />
<path d="M325.58 494.54l32.72 0l0 12.29l-32.72 0Z" id="p256w328" />
<path d="M361 494.59l19.44 0l0 12.23l-19.44 0Z" id="p256w329" />
<path d="M383.14 494.59l27.18 0l0 12.23l-27.18 0Z" id="p256w330" />
<path d="M413.02 494.59l29.49 0l0 12.23l-29.49 0Z" id="p256w331" />
<path d="M445.21 494.59l23.41 0l0 12.23l-23.41 0Z" id="p256w332" />
<path d="M471.32 494.59l11.7 0l0 12.23l-11.7 0Z" id="p256w333" />
<path d="M485.72 494.59l21.37 0l0 12.23l-21.37 0Z" id="p256w334" />
<path d="M335.43 509.88l11.04 0l0 12.23l-11.04 0Z" id="p256w335" />
<path d="M349.16 509.63l18.92 0l0 12.56l-18.92 0Z" id="p256w336" />
<path d="M325.58 525.11l32.72 0l0 12.29l-32.72 0Z" id="p256w337" />
<path d="M361 525.16l19.44 0l0 12.23l-19.44 0Z" id="p256w338" />
<path d="M383.14 525.16l15.76 0l0 12.23l-15.76 0Z" id="p256w339" />
<path d="M401.61 525.16l18.9 0l0 12.23l-18.9 0Z" id="p256w340" />
<path d="M423.2 525.16l11.7 0l0 12.23l-11.7 0Z" id="p256w341" />
<path d="M437.61 525.16l21.83 0l0 12.23l-21.83 0Z" id="p256w342" />
<path d="M462.14 525.16l11.7 0l0 12.23l-11.7 0Z" id="p256w343" />
<path d="M476.54 525.16l21.37 0l0 12.23l-21.37 0Z" id="p256w344" />
<path d="M335.43 540.44l11.04 0l0 12.23l-11.04 0Z" id="p256w345" />
<path d="M349.16 540.2l18.92 0l0 12.56l-18.92 0Z" id="p256w346" />
<path d="M325.58 555.67l49.16 0l0 12.29l-49.16 0Z" id="p256w347" />
<path d="M377.44 555.73l19.36 0l0 12.23l-19.36 0Z" id="p256w348" />
<path d="M399.5 555.73l22.06 0l0 12.23l-22.06 0Z" id="p256w349" />
<path d="M424.27 555.48l15.54 0l0 12.56l-15.54 0Z" id="p256w350" />
<path d="M325.58 571.01l14.41 0l0 12.23l-14.41 0Z" id="p256w351" />
<path d="M342.68 570.96l26.13 0l0 12.29l-26.13 0Z" id="p256w352" />
<path d="M371.52 571.01l11.94 0l0 12.23l-11.94 0Z" id="p256w353" />
<path d="M386.15 571.01l38.26 0l0 12.23l-38.26 0Z" id="p256w354" />
<path d="M427.11 570.77l18.01 0l0 12.56l-18.01 0Z" id="p256w355" />
<path d="M325.58 586.29l14.41 0l0 12.23l-14.41 0Z" id="p256w356" />
<path d="M342.68 586.24l34 0l0 12.29l-34 0Z" id="p256w357" />
<path d="M379.39 586.29l11.94 0l0 12.23l-11.94 0Z" id="p256w358" />
<path d="M394.02 586.29l18.23 0l0 12.23l-18.23 0Z" id="p256w359" />
<path d="M414.95 586.05l14.63 0l0 12.56l-14.63 0Z" id="p256w360" />
<path d="M325.58 601.58l13.74 0l0 12.23l-13.74 0Z" id="p256w361" />
<path d="M342.02 601.58l29.49 0l0 12.23l-29.49 0Z" id="p256w362" />
<path d="M374.21 601.52l21.49 0l0 12.29l-21.49 0Z" id="p256w363" />
<path d="M398.39 601.58l19.44 0l0 12.23l-19.44 0Z" id="p256w364" />
<path d="M420.53 601.58l15.76 0l0 12.23l-15.76 0Z" id="p256w365" />
<path d="M439 601.58l43.96 0l0 12.23l-43.96 0Z" id="p256w366" />
<path d="M485.66 601.58l21.37 0l0 12.23l-21.37 0Z" id="p256w367" />
<path d="M335.43 616.86l11.04 0l0 12.23l-11.04 0Z" id="p256w368" />
<path d="M349.16 616.62l14.63 0l0 12.56l-14.63 0Z" id="p256w369" />
<path d="M325.58 632.14l14.85 0l0 12.23l-14.85 0Z" id="p256w370" />
<path d="M343.13 632.14l35.57 0l0 12.23l-35.57 0Z" id="p256w371" />
<path d="M381.4 632.09l21.49 0l0 12.29l-21.49 0Z" id="p256w372" />
<path d="M405.58 632.14l19.44 0l0 12.23l-19.44 0Z" id="p256w373" />
<path d="M427.73 632.14l15.76 0l0 12.23l-15.76 0Z" id="p256w374" />
<path d="M446.19 632.14l11.94 0l0 12.23l-11.94 0Z" id="p256w375" />
<path d="M460.83 632.14l38.93 0l0 12.23l-38.93 0Z" id="p256w376" />
<path d="M335.43 647.43l21.37 0l0 12.23l-21.37 0Z" id="p256w377" />
<path d="M359.5 647.43l11.04 0l0 12.23l-11.04 0Z" id="p256w378" />
<path d="M373.24 647.18l15.54 0l0 12.56l-15.54 0Z" id="p256w379" />
<path d="M325.58 662.66l27.11 0l0 12.29l-27.11 0Z" id="p256w380" />
<path d="M355.39 662.71l75.47 0l0 12.23l-75.47 0Z" id="p256w381" />
<path d="M433.56 662.71l20.49 0l0 12.23l-20.49 0Z" id="p256w382" />
<path d="M456.75 662.71l31.98 0l0 12.23l-31.98 0Z" id="p256w383" />
<path d="M335.43 677.75l15.54 0l0 12.56l-15.54 0Z" id="p256w384" />
<path d="M325.58 693.22l45.16 0l0 12.29l-45.16 0Z" id="p256w385" />
<path d="M376.6 693.28l11.7 0l0 12.23l-11.7 0Z" id="p256w386" />
<path d="M398.66 693.28l14.17 0l0 12.23l-14.17 0Z" id="p256w387" />
<path d="M421.39 693.03l18.17 0l0 12.56l-18.17 0Z" id="p256w388" />
<path d="M325.58 708.56l14.41 0l0 12.23l-14.41 0Z" id="p256w389" />
<path d="M342.68 708.51l41.46 0l0 12.29l-41.46 0Z" id="p256w390" />
<path d="M386.84 708.56l11.94 0l0 12.23l-11.94 0Z" id="p256w391" />
<path d="M401.48 708.56l40 0l0 12.23l-40 0Z" id="p256w392" />
<path d="M444.19 708.32l14.63 0l0 12.56l-14.63 0Z" id="p256w393" />
<path d="M325.58 723.84l14.41 0l0 12.23l-14.41 0Z" id="p256w394" />
<path d="M342.68 723.79l73.35 0l0 12.29l-73.35 0Z" id="p256w395" />
<path d="M418.73 723.84l11.94 0l0 12.23l-11.94 0Z" id="p256w396" />
<path d="M433.37 723.84l36.01 0l0 12.23l-36.01 0Z" id="p256w397" />
<path d="M335.43 739.13l42.98 0l0 12.23l-42.98 0Z" id="p256w398" />
<path d="M381.11 738.88l17.81 0l0 12.56l-17.81 0Z" id="p256w399" />
<path d="M325.58 754.36l50.44 0l0 12.29l-50.44 0Z" id="p256w400" />
<path d="M378.72 754.41l10.35 0l0 12.23l-10.35 0Z" id="p256w401" />
<path d="M391.77 754.41l30.6 0l0 12.23l-30.6 0Z" id="p256w402" />
<path d="M425.07 754.17l15.54 0l0 12.56l-15.54 0Z" id="p256w403" />
<path d="M325.58 769.7l14.41 0l0 12.23l-14.41 0Z" id="p256w404" />
<path d="M342.68 769.64l45.53 0l0 12.29l-45.53 0Z" id="p256w405" />
<path d="M392.38 769.64l51.15 0l0 12.29l-51.15 0Z" id="p256w406" />
<path d="M446.23 769.7l11.94 0l0 12.23l-11.94 0Z" id="p256w407" />
<path d="M460.87 769.7l37.94 0l0 12.23l-37.94 0Z" id="p256w408" />
<path d="M335.43 784.98l16.43 0l0 12.23l-16.43 0Z" id="p256w409" />
<path d="M354.55 784.98l38.73 0l0 12.23l-38.73 0Z" id="p256w410" />
<path d="M395.98 784.73l14.43 0l0 12.56l-14.43 0Z" id="p256w411" />
<path d="M325.58 800.26l20.03 0l0 12.23l-20.03 0Z" id="p256w412" />
<path d="M348.31 800.21l51.25 0l0 12.29l-51.25 0Z" id="p256w413" />
<path d="M402.26 800.26l17.56 0l0 12.23l-17.56 0Z" id="p256w414" />
<path d="M422.52 800.26l35.34 0l0 12.23l-35.34 0Z" id="p256w415" />
<path d="M460.56 800.02l14.79 0l0 12.56l-14.79 0Z" id="p256w416" />
<path d="M335.43 815.55l19.27 0l0 12.23l-19.27 0Z" id="p256w417" />
<path d="M357.4 815.55l13.28 0l0 12.23l-13.28 0Z" id="p256w418" />
<path d="M373.38 815.55l20.03 0l0 12.23l-20.03 0Z" id="p256w419" />
<path d="M396.11 815.55l54.71 0l0 12.23l-54.71 0Z" id="p256w420" />
<path d="M453.52 815.55l29.71 0l0 12.23l-29.71 0Z" id="p256w421" />
<path d="M335.43 830.83l35.34 0l0 12.23l-35.34 0Z" id="p256w422" />
<path d="M379.32 830.58l14.79 0l0 12.56l-14.79 0Z" id="p256w423" />
<path d="M325.58 846.06l44.05 0l0 12.29l-44.05 0Z" id="p256w424" />
<path d="M372.33 846.11l28.81 0l0 12.23l-28.81 0Z" id="p256w425" />
<path d="M403.84 845.87l17.81 0l0 12.56l-17.81 0Z" id="p256w426" />
<path d="M325.58 861.4l14.41 0l0 12.23l-14.41 0Z" id="p256w427" />
<path d="M342.68 861.34l67.99 0l0 12.29l-67.99 0Z" id="p256w428" />
<path d="M413.38 861.4l11.94 0l0 12.23l-11.94 0Z" id="p256w429" />
<path d="M428.01 861.4l61.67 0l0 12.23l-61.67 0Z" id="p256w430" />
<path d="M335.43 876.43l18.72 0l0 12.56l-18.72 0Z" id="p256w431" />
<path d="M325.58 891.91l58.31 0l0 12.29l-58.31 0Z" id="p256w432" />
<path d="M386.59 891.94l23.19 0l0 12.23l-23.19 0Z" id="p256w433" />
<path d="M412.48 891.96l73.88 0l0 12.23l-73.88 0Z" id="p256w434" />
<path d="M335.43 907l18.92 0l0 12.56l-18.92 0Z" id="p256w435" />
<path d="M325.58 922.53l14.41 0l0 12.23l-14.41 0Z" id="p256w436" />
<path d="M342.68 922.47l57.54 0l0 12.29l-57.54 0Z" id="p256w437" />
<path d="M402.93 922.53l8.33 0l0 12.23l-8.33 0Z" id="p256w438" />
<path d="M413.95 922.53l33.31 0l0 12.23l-33.31 0Z" id="p256w439" />
<path d="M449.97 922.28l18.92 0l0 12.56l-18.92 0Z" id="p256w440" />
<path d="M527.1 112.51l14.41 0l0 12.23l-14.41 0Z" id="p256w441" />
<path d="M544.2 112.45l84.52 0l0 12.29l-84.52 0Z" id="p256w442" />
<path d="M631.42 112.51l11.94 0l0 12.23l-11.94 0Z" id="p256w443" />
<path d="M646.06 112.51l13.96 0l0 12.23l-13.96 0Z" id="p256w444" />
<path d="M662.72 112.51l11.7 0l0 12.23l-11.7 0Z" id="p256w445" />
<path d="M536.94 127.79l33.31 0l0 12.23l-33.31 0Z" id="p256w446" />
<path d="M572.96 127.55l18.92 0l0 12.56l-18.92 0Z" id="p256w447" />
<path d="M527.1 143.08l14.41 0l0 12.23l-14.41 0Z" id="p256w448" />
<path d="M544.2 143.02l43.77 0l0 12.29l-43.77 0Z" id="p256w449" />
<path d="M590.67 143.08l17.56 0l0 12.23l-17.56 0Z" id="p256w450" />
<path d="M610.94 143.08l48.41 0l0 12.23l-48.41 0Z" id="p256w451" />
<path d="M662.05 142.83l15.54 0l0 12.56l-15.54 0Z" id="p256w452" />
<path d="M527.1 158.3l51.32 0l0 12.29l-51.32 0Z" id="p256w453" />
<path d="M581.12 158.36l73.88 0l0 12.23l-73.88 0Z" id="p256w454" />
<path d="M657.7 158.11l18.92 0l0 12.56l-18.92 0Z" id="p256w455" />
<path d="M527.1 173.64l20.03 0l0 12.23l-20.03 0Z" id="p256w456" />
<path d="M549.83 173.59l27.05 0l0 12.29l-27.05 0Z" id="p256w457" />
<path d="M579.58 173.64l11.94 0l0 12.23l-11.94 0Z" id="p256w458" />
<path d="M594.22 173.64l25.82 0l0 12.23l-25.82 0Z" id="p256w459" />
<path d="M622.74 173.4l18.92 0l0 12.56l-18.92 0Z" id="p256w460" />
<path d="M527.1 188.87l35.89 0l0 12.29l-35.89 0Z" id="p256w461" />
<path d="M565.69 188.93l18.23 0l0 12.23l-18.23 0Z" id="p256w462" />
<path d="M586.62 188.68l15.54 0l0 12.56l-15.54 0Z" id="p256w463" />
<path d="M527.1 204.15l57.51 0l0 12.29l-57.51 0Z" id="p256w464" />
<path d="M596.53 204.21l15.76 0l0 12.23l-15.76 0Z" id="p256w465" />
<path d="M614.99 204.21l39.39 0l0 12.23l-39.39 0Z" id="p256w466" />
<path d="M662.95 203.96l19.58 0l0 12.56l-19.58 0Z" id="p256w467" />
<path d="M527.1 219.49l14.41 0l0 12.23l-14.41 0Z" id="p256w468" />
<path d="M544.2 219.44l37.86 0l0 12.29l-37.86 0Z" id="p256w469" />
<path d="M584.76 219.49l17.56 0l0 12.23l-17.56 0Z" id="p256w470" />
<path d="M605.02 219.49l36.02 0l0 12.23l-36.02 0Z" id="p256w471" />
<path d="M643.75 219.25l15.54 0l0 12.56l-15.54 0Z" id="p256w472" />
<path d="M527.1 234.78l20.03 0l0 12.23l-20.03 0Z" id="p256w473" />
<path d="M549.83 234.72l64.85 0l0 12.29l-64.85 0Z" id="p256w474" />
<path d="M617.37 234.78l11.94 0l0 12.23l-11.94 0Z" id="p256w475" />
<path d="M632.01 234.78l38.95 0l0 12.23l-38.95 0Z" id="p256w476" />
<path d="M673.66 234.53l18.01 0l0 12.56l-18.01 0Z" id="p256w477" />
<path d="M527.1 250.06l26.64 0l0 12.23l-26.64 0Z" id="p256w478" />
<path d="M556.44 250l46.39 0l0 12.29l-46.39 0Z" id="p256w479" />
<path d="M605.54 250.06l33.2 0l0 12.23l-33.2 0Z" id="p256w480" />
<path d="M641.44 250.06l18.24 0l0 12.23l-18.24 0Z" id="p256w481" />
<path d="M662.38 249.81l19.58 0l0 12.56l-19.58 0Z" id="p256w482" />
<path d="M527.1 265.29l37.83 0l0 12.29l-37.83 0Z" id="p256w483" />
<path d="M567.62 265.34l84.51 0l0 12.23l-84.51 0Z" id="p256w484" />
<path d="M654.83 265.1l18.92 0l0 12.56l-18.92 0Z" id="p256w485" />
<path d="M527.1 280.63l14.41 0l0 12.23l-14.41 0Z" id="p256w486" />
<path d="M544.2 280.57l41.02 0l0 12.29l-41.02 0Z" id="p256w487" />
<path d="M587.92 280.63l11.94 0l0 12.23l-11.94 0Z" id="p256w488" />
<path d="M602.56 280.63l26.73 0l0 12.23l-26.73 0Z" id="p256w489" />
<path d="M631.99 280.38l15.54 0l0 12.56l-15.54 0Z" id="p256w490" />
<path d="M527.1 295.91l18.46 0l0 12.23l-18.46 0Z" id="p256w491" />
<path d="M548.26 295.91l11.7 0l0 12.23l-11.7 0Z" id="p256w492" />
<path d="M562.66 295.91l40.5 0l0 12.23l-40.5 0Z" id="p256w493" />
<path d="M605.87 295.85l49.43 0l0 12.29l-49.43 0Z" id="p256w494" />
<path d="M658 295.91l46.36 0l0 12.23l-46.36 0Z" id="p256w495" />
<path d="M545.27 311.19l27.37 0l0 12.23l-27.37 0Z" id="p256w496" />
<path d="M575.34 310.95l18.92 0l0 12.56l-18.92 0Z" id="p256w497" />
<path d="M527.1 326.42l54.04 0l0 12.29l-54.04 0Z" id="p256w498" />
<path d="M583.84 326.48l81.4 0l0 12.23l-81.4 0Z" id="p256w499" />
<path d="M667.94 326.23l18.17 0l0 12.56l-18.17 0Z" id="p256w500" />
<path d="M536.94 341.76l42.09 0l0 12.23l-42.09 0Z" id="p256w501" />
<path d="M581.74 341.52l18.01 0l0 12.56l-18.01 0Z" id="p256w502" />
<path d="M527.1 356.99l54.04 0l0 12.29l-54.04 0Z" id="p256w503" />
<path d="M583.84 357.04l50.12 0l0 12.23l-50.12 0Z" id="p256w504" />
<path d="M636.66 356.8l18.17 0l0 12.56l-18.17 0Z" id="p256w505" />
<path d="M527.1 372.33l20.03 0l0 12.23l-20.03 0Z" id="p256w506" />
<path d="M549.83 372.27l32.77 0l0 12.29l-32.77 0Z" id="p256w507" />
<path d="M585.29 372.33l17.56 0l0 12.23l-17.56 0Z" id="p256w508" />
<path d="M605.56 372.33l33.48 0l0 12.23l-33.48 0Z" id="p256w509" />
<path d="M641.74 372.08l14.79 0l0 12.56l-14.79 0Z" id="p256w510" />
<path d="M527.1 387.61l14.41 0l0 12.23l-14.41 0Z" id="p256w511" />
<path d="M544.2 387.55l59.2 0l0 12.29l-59.2 0Z" id="p256w512" />
<path d="M606.1 387.61l11.94 0l0 12.23l-11.94 0Z" id="p256w513" />
<path d="M620.74 387.61l25.22 0l0 12.23l-25.22 0Z" id="p256w514" />
<path d="M648.66 387.61l11.7 0l0 12.23l-11.7 0Z" id="p256w515" />
<path d="M663.07 387.61l33.48 0l0 12.23l-33.48 0Z" id="p256w516" />
<path d="M536.94 402.65l14.79 0l0 12.56l-14.79 0Z" id="p256w517" />
<path d="M527.1 418.18l11.7 0l0 12.23l-11.7 0Z" id="p256w518" />
<path d="M541.5 418.18l16.9 0l0 12.23l-16.9 0Z" id="p256w519" />
<path d="M561.1 418.12l38.08 0l0 12.29l-38.08 0Z" id="p256w520" />
<path d="M601.88 418.18l26.57 0l0 12.23l-26.57 0Z" id="p256w521" />
<path d="M631.15 418.18l11.7 0l0 12.23l-11.7 0Z" id="p256w522" />
<path d="M645.55 418.18l12.16 0l0 12.23l-12.16 0Z" id="p256w523" />
<path d="M660.41 417.93l18.92 0l0 12.56l-18.92 0Z" id="p256w524" />
<path d="M527.1 433.46l43.65 0l0 12.23l-43.65 0Z" id="p256w525" />
<path d="M573.45 433.4l38.08 0l0 12.29l-38.08 0Z" id="p256w526" />
<path d="M614.23 433.46l26.57 0l0 12.23l-26.57 0Z" id="p256w527" />
<path d="M643.49 433.46l27.37 0l0 12.23l-27.37 0Z" id="p256w528" />
<path d="M673.56 433.22l18.92 0l0 12.56l-18.92 0Z" id="p256w529" />
<path d="M527.1 448.69l37.35 0l0 12.29l-37.35 0Z" id="p256w530" />
<path d="M567.14 448.74l41.59 0l0 12.23l-41.59 0Z" id="p256w531" />
<path d="M611.44 448.74l19.13 0l0 12.23l-19.13 0Z" id="p256w532" />
<path d="M633.27 448.74l18.9 0l0 12.23l-18.9 0Z" id="p256w533" />
<path d="M654.87 448.74l11.94 0l0 12.23l-11.94 0Z" id="p256w534" />
<path d="M669.5 448.74l29.7 0l0 12.23l-29.7 0Z" id="p256w535" />
<path d="M536.94 464.03l18.23 0l0 12.23l-18.23 0Z" id="p256w536" />
<path d="M557.87 463.78l18.17 0l0 12.56l-18.17 0Z" id="p256w537" />
<path d="M527.1 479.31l54.7 0l0 12.23l-54.7 0Z" id="p256w538" />
<path d="M584.49 479.25l34.59 0l0 12.29l-34.59 0Z" id="p256w539" />
<path d="M621.79 479.31l8.33 0l0 12.23l-8.33 0Z" id="p256w540" />
<path d="M632.81 479.31l42.19 0l0 12.23l-42.19 0Z" id="p256w541" />
<path d="M677.71 479.31l29.7 0l0 12.23l-29.7 0Z" id="p256w542" />
<path d="M536.94 494.35l15.34 0l0 12.56l-15.34 0Z" id="p256w543" />
<path d="M527.1 509.82l53.69 0l0 12.29l-53.69 0Z" id="p256w544" />
<path d="M583.48 509.88l11.7 0l0 12.23l-11.7 0Z" id="p256w545" />
<path d="M597.89 509.88l29.7 0l0 12.23l-29.7 0Z" id="p256w546" />
<path d="M630.29 509.88l29.48 0l0 12.23l-29.48 0Z" id="p256w547" />
<path d="M662.47 509.63l18.92 0l0 12.56l-18.92 0Z" id="p256w548" />
<path d="M527.1 525.11l32.78 0l0 12.29l-32.78 0Z" id="p256w549" />
<path d="M562.58 525.16l30.32 0l0 12.23l-30.32 0Z" id="p256w550" />
<path d="M595.6 524.92l15.54 0l0 12.56l-15.54 0Z" id="p256w551" />
<path d="M527.1 540.39l26.07 0l0 12.29l-26.07 0Z" id="p256w552" />
<path d="M555.86 540.44l29.49 0l0 12.23l-29.49 0Z" id="p256w553" />
<path d="M588.05 540.44l23.19 0l0 12.23l-23.19 0Z" id="p256w554" />
<path d="M613.94 540.44l11.7 0l0 12.23l-11.7 0Z" id="p256w555" />
<path d="M628.34 540.44l8.33 0l0 12.23l-8.33 0Z" id="p256w556" />
<path d="M639.37 540.44l33.32 0l0 12.23l-33.32 0Z" id="p256w557" />
<path d="M675.39 540.2l15.54 0l0 12.56l-15.54 0Z" id="p256w558" />
<path d="M527.1 555.67l41.24 0l0 12.29l-41.24 0Z" id="p256w559" />
<path d="M571.03 555.73l85.21 0l0 12.23l-85.21 0Z" id="p256w560" />
<path d="M658.94 555.48l18.92 0l0 12.56l-18.92 0Z" id="p256w561" />
<path d="M527.1 570.96l77.87 0l0 12.29l-77.87 0Z" id="p256w562" />
<path d="M607.67 571.01l15.53 0l0 12.23l-15.53 0Z" id="p256w563" />
<path d="M625.9 571.01l33.32 0l0 12.23l-33.32 0Z" id="p256w564" />
<path d="M661.92 570.77l15.54 0l0 12.56l-15.54 0Z" id="p256w565" />
<path d="M536.94 586.29l67.97 0l0 12.23l-67.97 0Z" id="p256w566" />
<path d="M607.61 586.05l18.92 0l0 12.56l-18.92 0Z" id="p256w567" />
<path d="M527.1 601.58l20.03 0l0 12.23l-20.03 0Z" id="p256w568" />
<path d="M549.83 601.52l62.38 0l0 12.29l-62.38 0Z" id="p256w569" />
<path d="M614.91 601.58l17.56 0l0 12.23l-17.56 0Z" id="p256w570" />
<path d="M635.17 601.58l40.28 0l0 12.23l-40.28 0Z" id="p256w571" />
<path d="M678.15 601.58l17.48 0l0 12.23l-17.48 0Z" id="p256w572" />
<path d="M536.94 616.62l18.01 0l0 12.56l-18.01 0Z" id="p256w573" />
<path d="M527.1 632.14l16.43 0l0 12.23l-16.43 0Z" id="p256w574" />
<path d="M546.23 632.09l19.04 0l0 12.29l-19.04 0Z" id="p256w575" />
<path d="M567.97 632.14l8.33 0l0 12.23l-8.33 0Z" id="p256w576" />
<path d="M578.99 632.14l18.7 0l0 12.23l-18.7 0Z" id="p256w577" />
<path d="M600.39 631.9l15.54 0l0 12.56l-15.54 0Z" id="p256w578" />
<path d="M527.1 647.43l14.41 0l0 12.23l-14.41 0Z" id="p256w579" />
<path d="M544.2 647.37l22.62 0l0 12.29l-22.62 0Z" id="p256w580" />
<path d="M569.52 647.43l11.94 0l0 12.23l-11.94 0Z" id="p256w581" />
<path d="M584.16 647.43l27.18 0l0 12.23l-27.18 0Z" id="p256w582" />
<path d="M614.04 647.18l15.54 0l0 12.56l-15.54 0Z" id="p256w583" />
<path d="M536.94 662.71l10.58 0l0 12.23l-10.58 0Z" id="p256w584" />
<path d="M550.23 662.71l19.58 0l0 12.23l-19.58 0Z" id="p256w585" />
<path d="M586.02 662.71l24.54 0l0 12.23l-24.54 0Z" id="p256w586" />
<path d="M613.26 662.71l5.86 0l0 12.23l-5.86 0Z" id="p256w587" />
<path d="M621.82 662.71l15.75 0l0 12.23l-15.75 0Z" id="p256w588" />
<path d="M640.27 662.71l23.81 0l0 12.23l-23.81 0Z" id="p256w589" />
<path d="M666.78 662.71l34.16 0l0 12.23l-34.16 0Z" id="p256w590" />
<path d="M536.94 677.75l15.54 0l0 12.56l-15.54 0Z" id="p256w591" />
<path d="M536.94 693.28l33.76 0l0 12.23l-33.76 0Z" id="p256w592" />
<path d="M573.4 693.28l22.29 0l0 12.23l-22.29 0Z" id="p256w593" />
<path d="M598.39 693.28l19.58 0l0 12.23l-19.58 0Z" id="p256w594" />
<path d="M620.67 693.28l14.63 0l0 12.23l-14.63 0Z" id="p256w595" />
<path d="M638 693.28l5.86 0l0 12.23l-5.86 0Z" id="p256w596" />
<path d="M646.56 693.28l15.75 0l0 12.23l-15.75 0Z" id="p256w597" />
<path d="M665.01 693.28l28.59 0l0 12.23l-28.59 0Z" id="p256w598" />
<path d="M536.94 708.56l58.73 0l0 12.23l-58.73 0Z" id="p256w599" />
<path d="M605.36 708.32l15.54 0l0 12.56l-15.54 0Z" id="p256w600" />
<path d="M527.1 723.84l14.41 0l0 12.23l-14.41 0Z" id="p256w601" />
<path d="M544.2 723.79l35.08 0l0 12.29l-35.08 0Z" id="p256w602" />
<path d="M581.98 723.84l11.94 0l0 12.23l-11.94 0Z" id="p256w603" />
<path d="M596.62 723.84l39.33 0l0 12.23l-39.33 0Z" id="p256w604" />
<path d="M638.65 723.84l18.91 0l0 12.23l-18.91 0Z" id="p256w605" />
<path d="M660.26 723.6l15.54 0l0 12.56l-15.54 0Z" id="p256w606" />
<path d="M527.1 739.07l27.01 0l0 12.29l-27.01 0Z" id="p256w607" />
<path d="M556.81 739.13l72.7 0l0 12.23l-72.7 0Z" id="p256w608" />
<path d="M632.21 738.88l18.92 0l0 12.56l-18.92 0Z" id="p256w609" />
<path d="M527.1 754.36l21.39 0l0 12.29l-21.39 0Z" id="p256w610" />
<path d="M551.18 754.41l44.34 0l0 12.23l-44.34 0Z" id="p256w611" />
<path d="M598.22 754.17l15.34 0l0 12.56l-15.34 0Z" id="p256w612" />
<path d="M527.1 769.64l52.45 0l0 12.29l-52.45 0Z" id="p256w613" />
<path d="M582.25 769.7l36.69 0l0 12.23l-36.69 0Z" id="p256w614" />
<path d="M621.64 769.45l18.17 0l0 12.56l-18.17 0Z" id="p256w615" />
<path d="M527.1 784.98l20.03 0l0 12.23l-20.03 0Z" id="p256w616" />
<path d="M549.83 784.92l32.97 0l0 12.29l-32.97 0Z" id="p256w617" />
<path d="M585.5 784.98l17.56 0l0 12.23l-17.56 0Z" id="p256w618" />
<path d="M605.76 784.98l40.74 0l0 12.23l-40.74 0Z" id="p256w619" />
<path d="M649.2 784.73l17.26 0l0 12.56l-17.26 0Z" id="p256w620" />
<path d="M536.94 800.26l11.7 0l0 12.23l-11.7 0Z" id="p256w621" />
<path d="M551.35 800.26l15.53 0l0 12.23l-15.53 0Z" id="p256w622" />
<path d="M569.58 800.26l33.09 0l0 12.23l-33.09 0Z" id="p256w623" />
<path d="M605.37 800.26l28.76 0l0 12.23l-28.76 0Z" id="p256w624" />
<path d="M636.83 800.26l10.82 0l0 12.23l-10.82 0Z" id="p256w625" />
<path d="M650.34 800.26l18.9 0l0 12.23l-18.9 0Z" id="p256w626" />
<path d="M680.26 800.26l8.33 0l0 12.23l-8.33 0Z" id="p256w627" />
<path d="M536.94 815.55l40.74 0l0 12.23l-40.74 0Z" id="p256w628" />
<path d="M580.38 815.55l21.39 0l0 12.23l-21.39 0Z" id="p256w629" />
<path d="M604.47 815.3l17.26 0l0 12.56l-17.26 0Z" id="p256w630" />
<path d="M527.1 830.77l21.91 0l0 12.29l-21.91 0Z" id="p256w631" />
<path d="M551.7 830.83l64.61 0l0 12.23l-64.61 0Z" id="p256w632" />
<path d="M619.02 830.58l15.54 0l0 12.56l-15.54 0Z" id="p256w633" />
<path d="M649.02 830.83l54.93 0l0 12.23l-54.93 0Z" id="p256w634" />
<path d="M536.94 845.87l14.41 0l0 12.56l-14.41 0Z" id="p256w635" />
<path d="M527.1 861.34l44.08 0l0 12.29l-44.08 0Z" id="p256w636" />
<path d="M573.88 861.4l67.3 0l0 12.23l-67.3 0Z" id="p256w637" />
<path d="M643.88 861.15l18.17 0l0 12.56l-18.17 0Z" id="p256w638" />
<path d="M527.1 876.68l20.03 0l0 12.23l-20.03 0Z" id="p256w639" />
<path d="M549.83 876.68l41.2 0l0 12.23l-41.2 0ZM591.03 876.62l28.68 0l0 12.29l-28.68 0Z" id="p256w640" />
<path d="M622.41 876.68l17.56 0l0 12.23l-17.56 0Z" id="p256w641" />
<path d="M642.67 876.68l23.18 0l0 12.23l-23.18 0Z" id="p256w642" />
<path d="M668.55 876.43l15.34 0l0 12.56l-15.34 0Z" id="p256w643" />
<path d="M527.1 891.96l8.78 0l0 12.23l-8.78 0Z" id="p256w644" />
<path d="M538.58 891.91l28.68 0l0 12.29l-28.68 0Z" id="p256w645" />
<path d="M581.17 891.96l11.7 0l0 12.23l-11.7 0Z" id="p256w646" />
<path d="M595.58 891.96l34.39 0l0 12.23l-34.39 0Z" id="p256w647" />
<path d="M632.67 891.72l15.34 0l0 12.56l-15.34 0Z" id="p256w648" />
<path d="M527.1 907.25l14.41 0l0 12.23l-14.41 0Z" id="p256w649" />
<path d="M544.2 907.19l51.04 0l0 12.29l-51.04 0Z" id="p256w650" />
<path d="M597.95 907.25l13.05 0l0 12.23l-13.05 0Z" id="p256w651" />
<path d="M613.7 907.25l70.99 0l0 12.23l-70.99 0Z" id="p256w652" />
<path d="M556.37 922.51l14.18 0l0 12.23l-14.18 0Z" id="p256w653" />
<path d="M573.26 922.28l18.17 0l0 12.56l-18.17 0Z" id="p256w654" />
</svg>
