<?xml version="1.0" encoding="UTF-8"?>
<svg xmlns="http://www.w3.org/2000/svg" xmlns:xlink="http://www.w3.org/1999/xlink" version="1.1" baseProfile="full" width="768" height="1024" viewBox="0,0,768,1024" preserveAspectRatio="xMinYMin meet" >
<style type="text/css">
<![CDATA[
path {fill-opacity: 0.5;fill: #00aeef;visibility: hidden;}
]]>
</style>
<path d="M124.06 104.82l31.26 0l0 23.34l-31.26 0Z" id="p95w1" />
<path d="M160.4 104.82l45.5 0l0 23.34l-45.5 0Z" id="p95w2" />
<path d="M210.97 104.82l24.43 0l0 23.34l-24.43 0Z" id="p95w3" />
<path d="M240.48 104.82l72.83 0l0 23.34l-72.83 0Z" id="p95w4" />
<path d="M318.38 104.82l23.67 0l0 23.34l-23.67 0Z" id="p95w5" />
<path d="M347.13 104.82l71.66 0l0 23.34l-71.66 0Z" id="p95w6" />
<path d="M138.66 455.69l44.76 0l0 15.09l-44.76 0Z" id="p95w7" />
<path d="M187.04 455.69l39.22 0l0 15.09l-39.22 0Z" id="p95w8" />
<path d="M229.87 455.69l35.54 0l0 15.09l-35.54 0Z" id="p95w9" />
<path d="M269.02 455.69l11.26 0l0 15.09l-11.26 0Z" id="p95w10" />
<path d="M283.89 455.69l10.42 0l0 15.09l-10.42 0Z" id="p95w11" />
<path d="M297.92 455.69l50.38 0l0 15.09l-50.38 0Z" id="p95w12" />
<path d="M351.91 455.69l13.91 0l0 15.09l-13.91 0Z" id="p95w13" />
<path d="M369.43 455.69l10.42 0l0 15.09l-10.42 0Z" id="p95w14" />
<path d="M383.47 455.69l48.08 0l0 15.09l-48.08 0Z" id="p95w15" />
<path d="M435.16 455.69l59.48 0l0 15.09l-59.48 0Z" id="p95w16" />
<path d="M508.35 455.69l19.29 0l0 15.09l-19.29 0Z" id="p95w17" />
<path d="M531.25 455.69l38.23 0l0 15.09l-38.23 0Z" id="p95w18" />
<path d="M573.1 455.69l46.31 0l0 15.09l-46.31 0Z" id="p95w19" />
<path d="M124.06 472.35l11.26 0l0 15.09l-11.26 0Z" id="p95w20" />
<path d="M138.93 472.35l60.19 0l0 15.09l-60.19 0Z" id="p95w21" />
<path d="M202.73 472.35l13.91 0l0 15.09l-13.91 0Z" id="p95w22" />
<path d="M220.25 472.35l11.95 0l0 15.09l-11.95 0Z" id="p95w23" />
<path d="M235.81 472.35l55.51 0l0 15.09l-55.51 0Z" id="p95w24" />
<path d="M294.93 472.35l14.21 0l0 15.09l-14.21 0Z" id="p95w25" />
<path d="M312.75 472.35l42.18 0l0 15.09l-42.18 0Z" id="p95w26" />
<path d="M358.55 472.35l13.91 0l0 15.09l-13.91 0Z" id="p95w27" />
<path d="M376.06 472.35l43 0l0 15.09l-43 0Z" id="p95w28" />
<path d="M422.68 472.35l27.82 0l0 15.09l-27.82 0Z" id="p95w29" />
<path d="M454.11 472.35l15.74 0l0 15.09l-15.74 0Z" id="p95w30" />
<path d="M473.47 472.35l37.54 0l0 15.09l-37.54 0Z" id="p95w31" />
<path d="M514.62 472.35l98.83 0l0 15.09l-98.83 0Z" id="p95w32" />
<path d="M124.06 489.02l48.18 0l0 15.09l-48.18 0Z" id="p95w33" />
<path d="M175.85 489.02l26.5 0l0 15.09l-26.5 0Z" id="p95w34" />
<path d="M205.97 489.02l33.16 0l0 15.09l-33.16 0Z" id="p95w35" />
<path d="M242.74 489.02l13.22 0l0 15.09l-13.22 0Z" id="p95w36" />
<path d="M259.57 489.02l70.57 0l0 15.09l-70.57 0Z" id="p95w37" />
<path d="M333.75 489.02l19.29 0l0 15.09l-19.29 0Z" id="p95w38" />
<path d="M356.66 489.02l68.59 0l0 15.09l-68.59 0Z" id="p95w39" />
<path d="M428.86 489.02l13.91 0l0 15.09l-13.91 0Z" id="p95w40" />
<path d="M446.38 489.02l46.27 0l0 15.09l-46.27 0Z" id="p95w41" />
<path d="M496.25 489.02l20.47 0l0 15.09l-20.47 0Z" id="p95w42" />
<path d="M520.34 489.02l84.94 0l0 15.09l-84.94 0Z" id="p95w43" />
<path d="M608.89 489.02l23.61 0l0 15.09l-23.61 0Z" id="p95w44" />
<path d="M124.06 505.69l42.67 0l0 15.09l-42.67 0Z" id="p95w45" />
<path d="M170.34 505.69l13.91 0l0 15.09l-13.91 0Z" id="p95w46" />
<path d="M187.86 505.69l23.61 0l0 15.09l-23.61 0Z" id="p95w47" />
<path d="M215.08 505.69l39.15 0l0 15.09l-39.15 0Z" id="p95w48" />
<path d="M257.84 505.69l11.26 0l0 15.09l-11.26 0Z" id="p95w49" />
<path d="M272.71 505.69l13.91 0l0 15.09l-13.91 0Z" id="p95w50" />
<path d="M290.22 505.69l23.61 0l0 15.09l-23.61 0Z" id="p95w51" />
<path d="M317.45 505.69l43.9 0l0 15.09l-43.9 0Z" id="p95w52" />
<path d="M364.96 505.69l27.82 0l0 15.09l-27.82 0Z" id="p95w53" />
<path d="M396.39 505.69l10.5 0l0 15.09l-10.5 0Z" id="p95w54" />
<path d="M425 505.7l16.57 0l0 15.09l-16.57 0Z" id="p95w55" />
<path d="M445.18 505.7l11.26 0l0 15.09l-11.26 0Z" id="p95w56" />
<path d="M460.05 505.7l23.61 0l0 15.09l-23.61 0Z" id="p95w57" />
<path d="M487.27 505.7l68.93 0l0 15.09l-68.93 0Z" id="p95w58" />
<path d="M569.91 505.7l33.9 0l0 15.09l-33.9 0Z" id="p95w59" />
<path d="M124.06 522.37l19.29 0l0 15.09l-19.29 0Z" id="p95w60" />
<path d="M146.96 522.37l51.04 0l0 15.09l-51.04 0Z" id="p95w61" />
<path d="M201.61 522.37l13.91 0l0 15.09l-13.91 0Z" id="p95w62" />
<path d="M219.13 522.37l27.34 0l0 15.09l-27.34 0Z" id="p95w63" />
<path d="M124.06 539.04l18.46 0l0 15.09l-18.46 0Z" id="p95w64" />
<path d="M146.13 539.04l38.23 0l0 15.09l-38.23 0Z" id="p95w65" />
<path d="M187.97 539.04l19.01 0l0 15.09l-19.01 0Z" id="p95w66" />
<path d="M210.59 539.04l64.92 0l0 15.09l-64.92 0Z" id="p95w67" />
<path d="M289.22 539.04l45.03 0l0 15.09l-45.03 0Z" id="p95w68" />
<path d="M337.87 539.04l19.84 0l0 15.09l-19.84 0Z" id="p95w69" />
<path d="M361.32 539.04l22.26 0l0 15.09l-22.26 0Z" id="p95w70" />
<path d="M397.29 539.04l37.78 0l0 15.09l-37.78 0Z" id="p95w71" />
<path d="M438.69 539.04l22.31 0l0 15.09l-22.31 0Z" id="p95w72" />
<path d="M464.61 539.04l38.47 0l0 15.09l-38.47 0Z" id="p95w73" />
<path d="M506.69 539.04l43.11 0l0 15.09l-43.11 0Z" id="p95w74" />
<path d="M553.41 539.04l14.86 0l0 15.09l-14.86 0Z" id="p95w75" />
<path d="M571.87 539.04l13.22 0l0 15.09l-13.22 0Z" id="p95w76" />
<path d="M588.71 539.04l74.13 0l0 15.09l-74.13 0Z" id="p95w77" />
<path d="M124.06 555.71l14.21 0l0 15.09l-14.21 0Z" id="p95w78" />
<path d="M141.89 555.71l23.02 0l0 15.09l-23.02 0Z" id="p95w79" />
<path d="M168.52 555.71l19.29 0l0 15.09l-19.29 0Z" id="p95w80" />
<path d="M191.42 555.71l41.27 0l0 15.09l-41.27 0Z" id="p95w81" />
<path d="M236.3 555.71l11.26 0l0 15.09l-11.26 0Z" id="p95w82" />
<path d="M251.17 555.71l15.06 0l0 15.09l-15.06 0Z" id="p95w83" />
<path d="M269.84 555.71l43.11 0l0 15.09l-43.11 0Z" id="p95w84" />
<path d="M316.56 555.71l27.23 0l0 15.09l-27.23 0Z" id="p95w85" />
<path d="M347.4 555.71l10.42 0l0 15.09l-10.42 0Z" id="p95w86" />
<path d="M361.44 555.71l40.34 0l0 15.09l-40.34 0Z" id="p95w87" />
<path d="M405.39 555.71l11.26 0l0 15.09l-11.26 0Z" id="p95w88" />
<path d="M420.26 555.71l49.51 0l0 15.09l-49.51 0Z" id="p95w89" />
<path d="M473.38 555.71l19.29 0l0 15.09l-19.29 0Z" id="p95w90" />
<path d="M496.28 555.71l29.56 0l0 15.09l-29.56 0Z" id="p95w91" />
<path d="M529.45 555.71l24.62 0l0 15.09l-24.62 0Z" id="p95w92" />
<path d="M557.69 555.71l81.49 0l0 15.09l-81.49 0Z" id="p95w93" />
<path d="M124.06 572.38l21.67 0l0 15.09l-21.67 0Z" id="p95w94" />
<path d="M149.34 572.38l15.89 0l0 15.09l-15.89 0Z" id="p95w95" />
<path d="M168.84 572.38l36.24 0l0 15.09l-36.24 0Z" id="p95w96" />
<path d="M208.69 572.38l38.85 0l0 15.09l-38.85 0Z" id="p95w97" />
<path d="M124.06 589.05l19.91 0l0 15.09l-19.91 0Z" id="p95w98" />
<path d="M147.58 589.05l10.42 0l0 15.09l-10.42 0Z" id="p95w99" />
<path d="M161.61 589.05l56.41 0l0 15.09l-56.41 0Z" id="p95w100" />
<path d="M221.63 589.05l15.89 0l0 15.09l-15.89 0Z" id="p95w101" />
<path d="M241.13 589.05l70.22 0l0 15.09l-70.22 0Z" id="p95w102" />
<path d="M314.96 589.05l19.84 0l0 15.09l-19.84 0Z" id="p95w103" />
<path d="M338.42 589.05l10.42 0l0 15.09l-10.42 0Z" id="p95w104" />
<path d="M352.45 589.05l41.34 0l0 15.09l-41.34 0Z" id="p95w105" />
<path d="M397.41 589.05l13.91 0l0 15.09l-13.91 0Z" id="p95w106" />
<path d="M414.93 589.05l43.83 0l0 15.09l-43.83 0Z" id="p95w107" />
<path d="M462.36 589.05l15.89 0l0 15.09l-15.89 0Z" id="p95w108" />
<path d="M481.86 589.05l50.03 0l0 15.09l-50.03 0Z" id="p95w109" />
<path d="M535.5 589.05l15.06 0l0 15.09l-15.06 0Z" id="p95w110" />
<path d="M554.18 589.05l33.26 0l0 15.09l-33.26 0Z" id="p95w111" />
<path d="M591.05 589.05l19.29 0l0 15.09l-19.29 0Z" id="p95w112" />
<path d="M613.95 589.05l47.57 0l0 15.09l-47.57 0Z" id="p95w113" />
<path d="M665.13 589.05l14.59 0l0 15.09l-14.59 0Z" id="p95w114" />
<path d="M124.06 605.72l50.93 0l0 15.09l-50.93 0Z" id="p95w115" />
<path d="M178.6 605.72l11.26 0l0 15.09l-11.26 0Z" id="p95w116" />
<path d="M193.47 605.72l31.86 0l0 15.09l-31.86 0Z" id="p95w117" />
<path d="M228.95 605.72l45.65 0l0 15.09l-45.65 0Z" id="p95w118" />
<path d="M278.21 605.72l28.89 0l0 15.09l-28.89 0Z" id="p95w119" />
<path d="M310.71 605.72l80.86 0l0 15.09l-80.86 0Z" id="p95w120" />
<path d="M395.19 605.72l21.67 0l0 15.09l-21.67 0Z" id="p95w121" />
<path d="M420.47 605.72l15.89 0l0 15.09l-15.89 0Z" id="p95w122" />
<path d="M439.96 605.72l30.5 0l0 15.09l-30.5 0Z" id="p95w123" />
<path d="M474.07 605.72l12.99 0l0 15.09l-12.99 0Z" id="p95w124" />
<path d="M490.68 605.72l30.18 0l0 15.09l-30.18 0Z" id="p95w125" />
<path d="M524.46 605.72l59.26 0l0 15.09l-59.26 0Z" id="p95w126" />
<path d="M594.47 605.72l13.22 0l0 15.09l-13.22 0Z" id="p95w127" />
<path d="M611.3 605.72l41.31 0l0 15.09l-41.31 0Z" id="p95w128" />
<path d="M124.06 622.39l36.47 0l0 15.09l-36.47 0Z" id="p95w129" />
<path d="M164.15 622.39l62.23 0l0 15.09l-62.23 0Z" id="p95w130" />
<path d="M229.99 622.39l45.05 0l0 15.09l-45.05 0Z" id="p95w131" />
<path d="M278.64 622.39l39.78 0l0 15.09l-39.78 0Z" id="p95w132" />
<path d="M322.03 622.39l15.89 0l0 15.09l-15.89 0Z" id="p95w133" />
<path d="M341.53 622.39l84.17 0l0 15.09l-84.17 0Z" id="p95w134" />
<path d="M429.31 622.39l13.4 0l0 15.09l-13.4 0Z" id="p95w135" />
<path d="M446.32 622.39l41.7 0l0 15.09l-41.7 0Z" id="p95w136" />
<path d="M491.64 622.39l64.48 0l0 15.09l-64.48 0Z" id="p95w137" />
<path d="M559.73 622.39l15.06 0l0 15.09l-15.06 0Z" id="p95w138" />
<path d="M578.4 622.39l45.74 0l0 15.09l-45.74 0Z" id="p95w139" />
<path d="M627.75 622.39l27.81 0l0 15.09l-27.81 0Z" id="p95w140" />
<path d="M659.18 622.39l12.66 0l0 15.09l-12.66 0Z" id="p95w141" />
<path d="M124.06 639.06l25.23 0l0 15.09l-25.23 0Z" id="p95w142" />
<path d="M152.9 639.06l42.73 0l0 15.09l-42.73 0Z" id="p95w143" />
<path d="M199.24 639.06l15.89 0l0 15.09l-15.89 0Z" id="p95w144" />
<path d="M218.74 639.06l36.41 0l0 15.09l-36.41 0Z" id="p95w145" />
<path d="M258.76 639.06l11.26 0l0 15.09l-11.26 0Z" id="p95w146" />
<path d="M273.63 639.06l15.89 0l0 15.09l-15.89 0Z" id="p95w147" />
<path d="M293.13 639.06l31.36 0l0 15.09l-31.36 0Z" id="p95w148" />
<path d="M328.1 639.06l54 0l0 15.09l-54 0Z" id="p95w149" />
<path d="M385.71 639.06l19.01 0l0 15.09l-19.01 0Z" id="p95w150" />
<path d="M408.33 639.06l15.89 0l0 15.09l-15.89 0Z" id="p95w151" />
<path d="M427.83 639.06l68.35 0l0 15.09l-68.35 0Z" id="p95w152" />
<path d="M138.66 672.41l28.65 0l0 15.09l-28.65 0Z" id="p95w153" />
<path d="M170.92 672.41l11.26 0l0 15.09l-11.26 0Z" id="p95w154" />
<path d="M185.79 672.41l32.8 0l0 15.09l-32.8 0Z" id="p95w155" />
<path d="M222.2 672.41l19.84 0l0 15.09l-19.84 0Z" id="p95w156" />
<path d="M245.65 672.41l52.2 0l0 15.09l-52.2 0Z" id="p95w157" />
<path d="M311.57 672.41l28.61 0l0 15.09l-28.61 0Z" id="p95w158" />
<path d="M343.79 672.41l57.86 0l0 15.09l-57.86 0Z" id="p95w159" />
<path d="M405.26 672.41l11.26 0l0 15.09l-11.26 0Z" id="p95w160" />
<path d="M420.13 672.41l42.67 0l0 15.09l-42.67 0Z" id="p95w161" />
<path d="M124.06 689.08l19.29 0l0 15.09l-19.29 0Z" id="p95w162" />
<path d="M146.96 689.08l29.56 0l0 15.09l-29.56 0Z" id="p95w163" />
<path d="M180.13 689.08l31.89 0l0 15.09l-31.89 0Z" id="p95w164" />
<path d="M215.63 689.08l19.84 0l0 15.09l-19.84 0Z" id="p95w165" />
<path d="M239.09 689.08l19.78 0l0 15.09l-19.78 0Z" id="p95w166" />
<path d="M272.58 689.08l46.16 0l0 15.09l-46.16 0Z" id="p95w167" />
<path d="M124.06 716.17l24.6 0l0 12.29l-24.6 0Z" id="p95w168" />
<path d="M151.22 716.17l33.37 0l0 12.29l-33.37 0Z" id="p95w169" />
<path d="M193.82 714.11l25.9 0l0 15.09l-25.9 0Z" id="p95w170" />
<path d="M223.33 714.11l10.54 0l0 15.09l-10.54 0Z" id="p95w171" />
<path d="M237.48 714.11l22.45 0l0 15.09l-22.45 0Z" id="p95w172" />
<path d="M263.54 714.11l24.62 0l0 15.09l-24.62 0Z" id="p95w173" />
<path d="M291.78 714.11l84.23 0l0 15.09l-84.23 0Z" id="p95w174" />
<path d="M379.62 714.11l14.21 0l0 15.09l-14.21 0Z" id="p95w175" />
<path d="M397.45 714.11l43.11 0l0 15.09l-43.11 0Z" id="p95w176" />
<path d="M444.16 714.11l21.67 0l0 15.09l-21.67 0Z" id="p95w177" />
<path d="M135.88 730.78l10.42 0l0 15.09l-10.42 0Z" id="p95w178" />
<path d="M149.92 730.78l43.39 0l0 15.09l-43.39 0Z" id="p95w179" />
<path d="M196.92 730.78l13.91 0l0 15.09l-13.91 0Z" id="p95w180" />
<path d="M214.43 730.78l23.98 0l0 15.09l-23.98 0Z" id="p95w181" />
<path d="M242.03 730.78l47.77 0l0 15.09l-47.77 0Z" id="p95w182" />
<path d="M293.41 730.78l13.07 0l0 15.09l-13.07 0Z" id="p95w183" />
<path d="M310.09 730.78l24.62 0l0 15.09l-24.62 0Z" id="p95w184" />
<path d="M338.33 730.78l49.75 0l0 15.09l-49.75 0Z" id="p95w185" />
<path d="M391.69 730.78l10.54 0l0 15.09l-10.54 0Z" id="p95w186" />
<path d="M405.84 730.78l22.45 0l0 15.09l-22.45 0Z" id="p95w187" />
<path d="M431.9 730.78l27.23 0l0 15.09l-27.23 0Z" id="p95w188" />
<path d="M135.88 747.45l15.74 0l0 15.09l-15.74 0Z" id="p95w189" />
<path d="M155.24 747.45l27.44 0l0 15.09l-27.44 0Z" id="p95w190" />
<path d="M186.29 747.45l43.11 0l0 15.09l-43.11 0Z" id="p95w191" />
<path d="M233 747.45l78.1 0l0 15.09l-78.1 0Z" id="p95w192" />
<path d="M314.72 747.45l10.54 0l0 15.09l-10.54 0Z" id="p95w193" />
<path d="M328.87 747.45l38.17 0l0 15.09l-38.17 0Z" id="p95w194" />
<path d="M370.65 747.45l12.58 0l0 15.09l-12.58 0Z" id="p95w195" />
<path d="M386.84 747.45l37.44 0l0 15.09l-37.44 0Z" id="p95w196" />
<path d="M427.89 747.45l21.67 0l0 15.09l-21.67 0Z" id="p95w197" />
<path d="M453.17 747.45l15.89 0l0 15.09l-15.89 0Z" id="p95w198" />
<path d="M135.88 764.12l46.07 0l0 15.09l-46.07 0Z" id="p95w199" />
<path d="M185.57 764.12l34.85 0l0 15.09l-34.85 0Z" id="p95w200" />
<path d="M224.03 764.12l28.72 0l0 15.09l-28.72 0Z" id="p95w201" />
<path d="M256.37 764.12l15.74 0l0 15.09l-15.74 0Z" id="p95w202" />
<path d="M275.72 764.12l43.11 0l0 15.09l-43.11 0Z" id="p95w203" />
<path d="M322.44 764.12l19.01 0l0 15.09l-19.01 0Z" id="p95w204" />
<path d="M345.06 764.12l43.83 0l0 15.09l-43.83 0Z" id="p95w205" />
<path d="M392.5 764.12l19.29 0l0 15.09l-19.29 0Z" id="p95w206" />
<path d="M415.4 764.12l29.56 0l0 15.09l-29.56 0Z" id="p95w207" />
<path d="M135.88 780.79l33.81 0l0 15.09l-33.81 0Z" id="p95w208" />
<path d="M173.31 780.79l14.59 0l0 15.09l-14.59 0Z" id="p95w209" />
<path d="M191.51 780.79l22.4 0l0 15.09l-22.4 0Z" id="p95w210" />
<path d="M217.52 780.79l19.46 0l0 15.09l-19.46 0Z" id="p95w211" />
<path d="M240.59 780.79l46.49 0l0 15.09l-46.49 0Z" id="p95w212" />
<path d="M290.68 780.79l24.17 0l0 15.09l-24.17 0Z" id="p95w213" />
<path d="M328.57 780.79l46.56 0l0 15.09l-46.56 0Z" id="p95w214" />
<path d="M378.75 780.79l27.82 0l0 15.09l-27.82 0Z" id="p95w215" />
<path d="M410.18 780.79l26.63 0l0 15.09l-26.63 0Z" id="p95w216" />
<path d="M440.42 780.79l26.3 0l0 15.09l-26.3 0Z" id="p95w217" />
<path d="M135.88 797.46l15.62 0l0 15.09l-15.62 0Z" id="p95w218" />
<path d="M155.11 797.46l24.93 0l0 15.09l-24.93 0Z" id="p95w219" />
<path d="M183.65 797.46l17.77 0l0 15.09l-17.77 0Z" id="p95w220" />
<path d="M205.04 797.46l25.97 0l0 15.09l-25.97 0Z" id="p95w221" />
<path d="M234.62 797.46l10.37 0l0 15.09l-10.37 0Z" id="p95w222" />
<path d="M248.61 797.46l24.37 0l0 15.09l-24.37 0Z" id="p95w223" />
<path d="M276.59 797.46l27.91 0l0 15.09l-27.91 0Z" id="p95w224" />
<path d="M308.11 797.46l41.67 0l0 15.09l-41.67 0Z" id="p95w225" />
<path d="M353.39 797.46l13.78 0l0 15.09l-13.78 0Z" id="p95w226" />
<path d="M370.78 797.46l42.72 0l0 15.09l-42.72 0Z" id="p95w227" />
<path d="M417.11 797.46l14.93 0l0 15.09l-14.93 0Z" id="p95w228" />
<path d="M435.65 797.46l43.93 0l0 15.09l-43.93 0Z" id="p95w229" />
<path d="M135.88 814.13l28.72 0l0 15.09l-28.72 0Z" id="p95w230" />
<path d="M168.22 814.13l10.5 0l0 15.09l-10.5 0Z" id="p95w231" />
<path d="M182.33 814.13l24.17 0l0 15.09l-24.17 0Z" id="p95w232" />
<path d="M210.11 814.13l22.08 0l0 15.09l-22.08 0Z" id="p95w233" />
<path d="M235.41 814.13l48.95 0l0 15.09l-48.95 0Z" id="p95w234" />
<path d="M287.97 814.13l13.91 0l0 15.09l-13.91 0Z" id="p95w235" />
<path d="M305.49 814.13l10.42 0l0 15.09l-10.42 0Z" id="p95w236" />
<path d="M319.52 814.13l64.8 0l0 15.09l-64.8 0Z" id="p95w237" />
<path d="M387.93 814.13l61.37 0l0 15.09l-61.37 0Z" id="p95w238" />
<path d="M135.88 830.8l37.76 0l0 15.09l-37.76 0Z" id="p95w239" />
<path d="M177.25 830.8l22.57 0l0 15.09l-22.57 0Z" id="p95w240" />
<path d="M203.43 830.8l19.01 0l0 15.09l-19.01 0Z" id="p95w241" />
<path d="M226.05 830.8l22.08 0l0 15.09l-22.08 0Z" id="p95w242" />
<path d="M251.74 830.8l10.5 0l0 15.09l-10.5 0Z" id="p95w243" />
<path d="M265.85 830.8l24.62 0l0 15.09l-24.62 0Z" id="p95w244" />
<path d="M294.09 830.8l43.45 0l0 15.09l-43.45 0Z" id="p95w245" />
<path d="M341.15 830.8l8.02 0l0 15.09l-8.02 0Z" id="p95w246" />
<path d="M352.78 830.8l44.38 0l0 15.09l-44.38 0Z" id="p95w247" />
<path d="M400.77 830.8l52.55 0l0 15.09l-52.55 0Z" id="p95w248" />
<path d="M135.88 847.47l26.64 0l0 15.09l-26.64 0Z" id="p95w249" />
<path d="M166.14 847.47l45.84 0l0 15.09l-45.84 0Z" id="p95w250" />
<path d="M215.59 847.47l19.01 0l0 15.09l-19.01 0Z" id="p95w251" />
<path d="M238.21 847.47l38.17 0l0 15.09l-38.17 0Z" id="p95w252" />
<path d="M279.99 847.47l21.67 0l0 15.09l-21.67 0Z" id="p95w253" />
<path d="M305.27 847.47l11.88 0l0 15.09l-11.88 0Z" id="p95w254" />
<path d="M320.76 847.47l22.65 0l0 15.09l-22.65 0Z" id="p95w255" />
<path d="M347.01 847.47l16.64 0l0 15.09l-16.64 0Z" id="p95w256" />
<path d="M367.27 847.47l49.45 0l0 15.09l-49.45 0Z" id="p95w257" />
<path d="M420.33 847.47l24.79 0l0 15.09l-24.79 0Z" id="p95w258" />
<path d="M135.88 864.14l50.65 0l0 15.09l-50.65 0Z" id="p95w259" />
<path d="M190.14 864.14l18.02 0l0 15.09l-18.02 0Z" id="p95w260" />
<path d="M211.77 864.14l14.29 0l0 15.09l-14.29 0Z" id="p95w261" />
<path d="M229.68 864.14l15.74 0l0 15.09l-15.74 0Z" id="p95w262" />
<path d="M249.03 864.14l22.45 0l0 15.09l-22.45 0Z" id="p95w263" />
<path d="M275.09 864.14l28.53 0l0 15.09l-28.53 0Z" id="p95w264" />
<path d="M307.24 864.14l13.91 0l0 15.09l-13.91 0Z" id="p95w265" />
<path d="M324.75 864.14l30.74 0l0 15.09l-30.74 0Z" id="p95w266" />
<path d="M359.11 864.14l27.82 0l0 15.09l-27.82 0Z" id="p95w267" />
<path d="M390.54 864.14l12.66 0l0 15.09l-12.66 0Z" id="p95w268" />
<path d="M406.81 864.14l37.81 0l0 15.09l-37.81 0Z" id="p95w269" />
<path d="M448.24 864.14l22.03 0l0 15.09l-22.03 0Z" id="p95w270" />
<path d="M135.88 880.8l48.82 0l0 15.09l-48.82 0Z" id="p95w271" />
<path d="M188.32 880.8l13.07 0l0 15.09l-13.07 0Z" id="p95w272" />
<path d="M205 880.8l48.98 0l0 15.09l-48.98 0Z" id="p95w273" />
<path d="M257.59 880.8l16.64 0l0 15.09l-16.64 0Z" id="p95w274" />
<path d="M277.84 880.8l35.81 0l0 15.09l-35.81 0Z" id="p95w275" />
<path d="M324.21 880.8l18.02 0l0 15.09l-18.02 0Z" id="p95w276" />
<path d="M345.84 880.8l56.7 0l0 15.09l-56.7 0Z" id="p95w277" />
<path d="M406.16 880.8l9.29 0l0 15.09l-9.29 0Z" id="p95w278" />
<path d="M419.06 880.8l11.26 0l0 15.09l-11.26 0Z" id="p95w279" />
<path d="M433.93 880.8l24.6 0l0 15.09l-24.6 0Z" id="p95w280" />
<path d="M135.88 897.47l17.93 0l0 15.09l-17.93 0Z" id="p95w281" />
<path d="M157.42 897.47l37.76 0l0 15.09l-37.76 0Z" id="p95w282" />
<path d="M198.79 897.47l32.05 0l0 15.09l-32.05 0Z" id="p95w283" />
<path d="M234.46 897.47l13.07 0l0 15.09l-13.07 0Z" id="p95w284" />
<path d="M251.14 897.47l23.61 0l0 15.09l-23.61 0Z" id="p95w285" />
<path d="M278.36 897.47l37.35 0l0 15.09l-37.35 0Z" id="p95w286" />
<path d="M319.32 897.47l15.06 0l0 15.09l-15.06 0Z" id="p95w287" />
<path d="M337.99 897.47l24.17 0l0 15.09l-24.17 0Z" id="p95w288" />
<path d="M372.91 897.47l7.84 0l0 15.09l-7.84 0Z" id="p95w289" />
<path d="M384.36 897.47l16.64 0l0 15.09l-16.64 0Z" id="p95w290" />
<path d="M404.62 897.47l52.99 0l0 15.09l-52.99 0Z" id="p95w291" />
<path d="M135.88 914.14l15.74 0l0 15.09l-15.74 0Z" id="p95w292" />
<path d="M155.24 914.14l21.87 0l0 15.09l-21.87 0Z" id="p95w293" />
<path d="M180.72 914.14l29.14 0l0 15.09l-29.14 0Z" id="p95w294" />
<path d="M225.74 914.14l27.18 0l0 15.09l-27.18 0Z" id="p95w295" />
<path d="M256.54 914.14l25.88 0l0 15.09l-25.88 0Z" id="p95w296" />
<path d="M286.03 914.14l7.84 0l0 15.09l-7.84 0Z" id="p95w297" />
<path d="M297.48 914.14l28.12 0l0 15.09l-28.12 0Z" id="p95w298" />
<path d="M329.21 914.14l24.24 0l0 15.09l-24.24 0Z" id="p95w299" />
<path d="M357.06 914.14l27.82 0l0 15.09l-27.82 0Z" id="p95w300" />
<path d="M388.5 914.14l29.46 0l0 15.09l-29.46 0Z" id="p95w301" />
<path d="M421.57 914.14l10.42 0l0 15.09l-10.42 0Z" id="p95w302" />
<path d="M435.6 914.14l36.6 0l0 15.09l-36.6 0Z" id="p95w303" />
<path d="M135.88 930.81l23.42 0l0 15.09l-23.42 0Z" id="p95w304" />
<path d="M169.86 930.81l27.3 0l0 15.09l-27.3 0Z" id="p95w305" />
<path d="M200.77 930.81l26.63 0l0 15.09l-26.63 0Z" id="p95w306" />
<path d="M231.01 930.81l26.3 0l0 15.09l-26.3 0Z" id="p95w307" />
<path d="M260.92 930.81l10.5 0l0 15.09l-10.5 0Z" id="p95w308" />
<path d="M275.03 930.81l24.17 0l0 15.09l-24.17 0Z" id="p95w309" />
<path d="M302.82 930.81l26.5 0l0 15.09l-26.5 0Z" id="p95w310" />
<path d="M332.93 930.81l23.44 0l0 15.09l-23.44 0Z" id="p95w311" />
<path d="M359.98 930.81l23.1 0l0 15.09l-23.1 0Z" id="p95w312" />
<path d="M386.69 930.81l28.61 0l0 15.09l-28.61 0Z" id="p95w313" />
<path d="M418.91 930.81l35.66 0l0 15.09l-35.66 0Z" id="p95w314" />
<path d="M53.5 113.18l20.74 0l0 12.3l-20.74 0Z" id="p95w315" />
<path d="M68.27 39.02l42.02 0l0 15.38l-42.02 0Z" id="p95w316" />
<path d="M152.94 39.02l43.21 0l0 15.38l-43.21 0Z" id="p95w317" />
<path d="M251.4 38.6l45.06 0l0 16.09l-45.06 0Z" id="p95w318" />
<path d="M358.93 39.02l28.68 0l0 15.38l-28.68 0Z" id="p95w319" />
<path d="M390.98 39.02l42.85 0l0 15.38l-42.85 0Z" id="p95w320" />
<path d="M468.42 39.02l32.54 0l0 15.38l-32.54 0Z" id="p95w321" />
<path d="M603.75 983l87.35 0l0 12.23l-87.35 0Z" id="p95w322" />
</svg>
