<?xml version="1.0" encoding="UTF-8"?>
<svg xmlns="http://www.w3.org/2000/svg" xmlns:xlink="http://www.w3.org/1999/xlink" version="1.1" baseProfile="full" width="768" height="1024" viewBox="0,0,768,1024" preserveAspectRatio="xMinYMin meet" >
<style type="text/css">
<![CDATA[
path {fill-opacity: 0.5;fill: #00aeef;visibility: hidden;}
]]>
</style>
<path d="M138.53 113.89l23.43 0l0 15.09l-23.43 0Z" id="p77w1" />
<path d="M165.57 113.89l48.52 0l0 15.09l-48.52 0Z" id="p77w2" />
<path d="M217.7 113.89l24.37 0l0 15.09l-24.37 0Z" id="p77w3" />
<path d="M245.68 113.89l27.14 0l0 15.09l-27.14 0Z" id="p77w4" />
<path d="M276.43 113.89l15.69 0l0 15.09l-15.69 0Z" id="p77w5" />
<path d="M295.74 113.89l37.71 0l0 15.09l-37.71 0Z" id="p77w6" />
<path d="M337.06 113.89l14.46 0l0 15.09l-14.46 0Z" id="p77w7" />
<path d="M355.13 113.89l62.24 0l0 15.09l-62.24 0Z" id="p77w8" />
<path d="M420.98 113.89l19.27 0l0 15.09l-19.27 0Z" id="p77w9" />
<path d="M443.86 113.89l11.82 0l0 15.09l-11.82 0Z" id="p77w10" />
<path d="M459.29 113.89l33.57 0l0 15.09l-33.57 0Z" id="p77w11" />
<path d="M496.47 113.89l40.21 0l0 15.09l-40.21 0Z" id="p77w12" />
<path d="M540.3 113.89l26.09 0l0 15.09l-26.09 0Z" id="p77w13" />
<path d="M570 113.89l23.35 0l0 15.09l-23.35 0Z" id="p77w14" />
<path d="M596.96 113.89l26.28 0l0 15.09l-26.28 0Z" id="p77w15" />
<path d="M124.06 130.56l56.1 0l0 15.09l-56.1 0Z" id="p77w16" />
<path d="M183.77 130.56l13.21 0l0 15.09l-13.21 0Z" id="p77w17" />
<path d="M200.6 130.56l45.17 0l0 15.09l-45.17 0Z" id="p77w18" />
<path d="M249.38 130.56l53.84 0l0 15.09l-53.84 0Z" id="p77w19" />
<path d="M306.43 130.56l26.98 0l0 15.09l-26.98 0Z" id="p77w20" />
<path d="M337.02 130.56l15.69 0l0 15.09l-15.69 0Z" id="p77w21" />
<path d="M356.32 130.56l24.8 0l0 15.09l-24.8 0Z" id="p77w22" />
<path d="M384.74 130.56l14.93 0l0 15.09l-14.93 0Z" id="p77w23" />
<path d="M403.28 130.56l31.76 0l0 15.09l-31.76 0Z" id="p77w24" />
<path d="M438.65 130.56l56.1 0l0 15.09l-56.1 0Z" id="p77w25" />
<path d="M498.36 130.56l45.26 0l0 15.09l-45.26 0Z" id="p77w26" />
<path d="M557.28 130.56l24.11 0l0 15.09l-24.11 0Z" id="p77w27" />
<path d="M585 130.56l25.14 0l0 15.09l-25.14 0Z" id="p77w28" />
<path d="M613.75 130.56l14.09 0l0 15.09l-14.09 0Z" id="p77w29" />
<path d="M631.44 130.56l29.98 0l0 15.09l-29.98 0Z" id="p77w30" />
<path d="M124.06 147.23l25.43 0l0 15.09l-25.43 0Z" id="p77w31" />
<path d="M153.11 147.23l15.69 0l0 15.09l-15.69 0Z" id="p77w32" />
<path d="M172.41 147.23l37.85 0l0 15.09l-37.85 0Z" id="p77w33" />
<path d="M213.87 147.23l14.93 0l0 15.09l-14.93 0Z" id="p77w34" />
<path d="M236.03 147.23l49.47 0l0 15.09l-49.47 0Z" id="p77w35" />
<path d="M289.11 147.23l7.89 0l0 15.09l-7.89 0Z" id="p77w36" />
<path d="M300.61 147.23l49.63 0l0 15.09l-49.63 0Z" id="p77w37" />
<path d="M353.85 147.23l25.63 0l0 15.09l-25.63 0Z" id="p77w38" />
<path d="M383.09 147.23l25.43 0l0 15.09l-25.43 0Z" id="p77w39" />
<path d="M412.14 147.23l59.16 0l0 15.09l-59.16 0Z" id="p77w40" />
<path d="M474.91 147.23l10.29 0l0 15.09l-10.29 0Z" id="p77w41" />
<path d="M488.81 147.23l8.21 0l0 15.09l-8.21 0Z" id="p77w42" />
<path d="M497.03 147.23l14.24 0l0 15.09l-14.24 0Z" id="p77w43" />
<path d="M514.88 147.23l19.1 0l0 15.09l-19.1 0Z" id="p77w44" />
<path d="M537.59 147.23l43.45 0l0 15.09l-43.45 0Z" id="p77w45" />
<path d="M584.65 147.23l18.82 0l0 15.09l-18.82 0Z" id="p77w46" />
<path d="M617.11 147.23l20.34 0l0 15.09l-20.34 0Z" id="p77w47" />
<path d="M641.07 147.23l22.92 0l0 15.09l-22.92 0Z" id="p77w48" />
<path d="M124.06 163.9l27.08 0l0 15.09l-27.08 0Z" id="p77w49" />
<path d="M154.75 163.9l15.74 0l0 15.09l-15.74 0Z" id="p77w50" />
<path d="M174.11 163.9l38.7 0l0 15.09l-38.7 0Z" id="p77w51" />
<path d="M216.42 163.9l32.03 0l0 15.09l-32.03 0Z" id="p77w52" />
<path d="M252.05 163.9l11.95 0l0 15.09l-11.95 0Z" id="p77w53" />
<path d="M267.62 163.9l37.78 0l0 15.09l-37.78 0Z" id="p77w54" />
<path d="M309.01 163.9l21.96 0l0 15.09l-21.96 0Z" id="p77w55" />
<path d="M344.69 163.9l22.45 0l0 15.09l-22.45 0Z" id="p77w56" />
<path d="M370.76 163.9l14.21 0l0 15.09l-14.21 0Z" id="p77w57" />
<path d="M124.06 180.57l37.9 0l0 15.09l-37.9 0Z" id="p77w58" />
<path d="M165.57 180.57l11.26 0l0 15.09l-11.26 0Z" id="p77w59" />
<path d="M180.44 180.57l17.34 0l0 15.09l-17.34 0Z" id="p77w60" />
<path d="M201.39 180.57l44.12 0l0 15.09l-44.12 0Z" id="p77w61" />
<path d="M249.12 180.57l56.06 0l0 15.09l-56.06 0Z" id="p77w62" />
<path d="M308.8 180.57l22.31 0l0 15.09l-22.31 0Z" id="p77w63" />
<path d="M334.72 180.57l71.91 0l0 15.09l-71.91 0Z" id="p77w64" />
<path d="M124.06 197.24l13.4 0l0 15.09l-13.4 0Z" id="p77w65" />
<path d="M141.08 197.24l55.37 0l0 15.09l-55.37 0Z" id="p77w66" />
<path d="M200.06 197.24l10.5 0l0 15.09l-10.5 0Z" id="p77w67" />
<path d="M214.17 197.24l50.52 0l0 15.09l-50.52 0Z" id="p77w68" />
<path d="M268.3 197.24l11.26 0l0 15.09l-11.26 0Z" id="p77w69" />
<path d="M283.17 197.24l63.93 0l0 15.09l-63.93 0Z" id="p77w70" />
<path d="M350.71 197.24l15.74 0l0 15.09l-15.74 0Z" id="p77w71" />
<path d="M124.06 213.91l71.78 0l0 15.09l-71.78 0Z" id="p77w72" />
<path d="M199.45 213.91l14.59 0l0 15.09l-14.59 0Z" id="p77w73" />
<path d="M217.65 213.91l50.41 0l0 15.09l-50.41 0Z" id="p77w74" />
<path d="M271.67 213.91l32.03 0l0 15.09l-32.03 0Z" id="p77w75" />
<path d="M317.41 213.91l15.74 0l0 15.09l-15.74 0Z" id="p77w76" />
<path d="M336.76 213.91l21.87 0l0 15.09l-21.87 0Z" id="p77w77" />
<path d="M362.25 213.91l13.91 0l0 15.09l-13.91 0Z" id="p77w78" />
<path d="M379.76 213.91l8.21 0l0 15.09l-8.21 0Z" id="p77w79" />
<path d="M387.98 213.91l25.19 0l0 15.09l-25.19 0Z" id="p77w80" />
<path d="M124.06 230.58l11.26 0l0 15.09l-11.26 0Z" id="p77w81" />
<path d="M138.93 230.58l10.5 0l0 15.09l-10.5 0Z" id="p77w82" />
<path d="M153.04 230.58l66.43 0l0 15.09l-66.43 0Z" id="p77w83" />
<path d="M223.09 230.58l26.3 0l0 15.09l-26.3 0Z" id="p77w84" />
<path d="M252.99 230.58l10.42 0l0 15.09l-10.42 0Z" id="p77w85" />
<path d="M267.03 230.58l43.18 0l0 15.09l-43.18 0Z" id="p77w86" />
<path d="M313.82 230.58l27.23 0l0 15.09l-27.23 0Z" id="p77w87" />
<path d="M344.67 230.58l10.42 0l0 15.09l-10.42 0Z" id="p77w88" />
<path d="M358.7 230.58l50.55 0l0 15.09l-50.55 0Z" id="p77w89" />
<path d="M124.06 247.25l30.29 0l0 15.09l-30.29 0Z" id="p77w90" />
<path d="M164.92 247.25l27.08 0l0 15.09l-27.08 0Z" id="p77w91" />
<path d="M195.61 247.25l10.5 0l0 15.09l-10.5 0Z" id="p77w92" />
<path d="M209.72 247.25l50.52 0l0 15.09l-50.52 0Z" id="p77w93" />
<path d="M263.85 247.25l14.59 0l0 15.09l-14.59 0Z" id="p77w94" />
<path d="M282.05 247.25l38.17 0l0 15.09l-38.17 0Z" id="p77w95" />
<path d="M323.83 247.25l27.04 0l0 15.09l-27.04 0Z" id="p77w96" />
<path d="M124.06 263.91l8.02 0l0 15.09l-8.02 0Z" id="p77w97" />
<path d="M135.69 263.91l54.35 0l0 15.09l-54.35 0Z" id="p77w98" />
<path d="M203.76 263.91l32.03 0l0 15.09l-32.03 0Z" id="p77w99" />
<path d="M254.97 263.91l22.25 0l0 15.09l-22.25 0Z" id="p77w100" />
<path d="M280.83 263.91l12.41 0l0 15.09l-12.41 0Z" id="p77w101" />
<path d="M296.86 263.91l14.59 0l0 15.09l-14.59 0Z" id="p77w102" />
<path d="M315.05 263.91l58.4 0l0 15.09l-58.4 0Z" id="p77w103" />
<path d="M377.07 263.91l19.46 0l0 15.09l-19.46 0Z" id="p77w104" />
<path d="M124.06 280.58l15.74 0l0 15.09l-15.74 0Z" id="p77w105" />
<path d="M143.42 280.58l21.87 0l0 15.09l-21.87 0Z" id="p77w106" />
<path d="M168.9 280.58l10.42 0l0 15.09l-10.42 0Z" id="p77w107" />
<path d="M182.94 280.58l46.74 0l0 15.09l-46.74 0Z" id="p77w108" />
<path d="M233.29 280.58l15.73 0l0 15.09l-15.73 0Z" id="p77w109" />
<path d="M147.11 313.93l18.93 0l0 15.09l-18.93 0Z" id="p77w110" />
<path d="M169.65 313.93l24.79 0l0 15.09l-24.79 0Z" id="p77w111" />
<path d="M198.05 313.93l43.61 0l0 15.09l-43.61 0Z" id="p77w112" />
<path d="M262.41 313.93l23.61 0l0 15.09l-23.61 0Z" id="p77w113" />
<path d="M289.63 313.93l54.35 0l0 15.09l-54.35 0Z" id="p77w114" />
<path d="M347.6 313.93l10.5 0l0 15.09l-10.5 0Z" id="p77w115" />
<path d="M124.06 330.6l62.87 0l0 15.09l-62.87 0Z" id="p77w116" />
<path d="M190.54 330.6l35.14 0l0 15.09l-35.14 0Z" id="p77w117" />
<path d="M229.29 330.6l56.18 0l0 15.09l-56.18 0Z" id="p77w118" />
<path d="M289.08 330.6l39.78 0l0 15.09l-39.78 0Z" id="p77w119" />
<path d="M332.47 330.6l37.78 0l0 15.09l-37.78 0Z" id="p77w120" />
<path d="M124.06 347.27l66.05 0l0 15.09l-66.05 0Z" id="p77w121" />
<path d="M193.72 347.27l14.27 0l0 15.09l-14.27 0Z" id="p77w122" />
<path d="M211.6 347.27l45.65 0l0 15.09l-45.65 0Z" id="p77w123" />
<path d="M260.86 347.27l11.26 0l0 15.09l-11.26 0Z" id="p77w124" />
<path d="M275.73 347.27l32.03 0l0 15.09l-32.03 0Z" id="p77w125" />
<path d="M311.37 347.27l19.84 0l0 15.09l-19.84 0Z" id="p77w126" />
<path d="M334.82 347.27l15.74 0l0 15.09l-15.74 0Z" id="p77w127" />
<path d="M354.18 347.27l21.87 0l0 15.09l-21.87 0Z" id="p77w128" />
<path d="M379.66 347.27l29.78 0l0 15.09l-29.78 0Z" id="p77w129" />
<path d="M413.05 347.27l27.08 0l0 15.09l-27.08 0Z" id="p77w130" />
<path d="M443.74 347.27l24.24 0l0 15.09l-24.24 0Z" id="p77w131" />
<path d="M471.59 347.27l11.95 0l0 15.09l-11.95 0Z" id="p77w132" />
<path d="M487.16 347.27l31.41 0l0 15.09l-31.41 0Z" id="p77w133" />
<path d="M522.18 347.27l29.05 0l0 15.09l-29.05 0Z" id="p77w134" />
<path d="M554.83 347.27l47.71 0l0 15.09l-47.71 0Z" id="p77w135" />
<path d="M606.15 347.27l13.22 0l0 15.09l-13.22 0Z" id="p77w136" />
<path d="M124.06 363.94l66.19 0l0 15.09l-66.19 0Z" id="p77w137" />
<path d="M193.86 363.94l36.13 0l0 15.09l-36.13 0Z" id="p77w138" />
<path d="M233.6 363.94l15.89 0l0 15.09l-15.89 0Z" id="p77w139" />
<path d="M253.1 363.94l31.72 0l0 15.09l-31.72 0Z" id="p77w140" />
<path d="M288.43 363.94l11.95 0l0 15.09l-11.95 0Z" id="p77w141" />
<path d="M303.99 363.94l59.88 0l0 15.09l-59.88 0Z" id="p77w142" />
<path d="M367.48 363.94l24.93 0l0 15.09l-24.93 0Z" id="p77w143" />
<path d="M396.02 363.94l15.89 0l0 15.09l-15.89 0Z" id="p77w144" />
<path d="M415.52 363.94l29.6 0l0 15.09l-29.6 0Z" id="p77w145" />
<path d="M458.83 363.94l36.41 0l0 15.09l-36.41 0Z" id="p77w146" />
<path d="M498.85 363.94l14.86 0l0 15.09l-14.86 0Z" id="p77w147" />
<path d="M517.32 363.94l36.41 0l0 15.09l-36.41 0Z" id="p77w148" />
<path d="M564.29 363.94l37.4 0l0 15.09l-37.4 0Z" id="p77w149" />
<path d="M605.3 363.94l50.55 0l0 15.09l-50.55 0Z" id="p77w150" />
<path d="M124.06 408.09l34.63 0l0 18.84l-34.63 0Z" id="p77w151" />
<path d="M162.34 408.09l89.43 0l0 18.84l-89.43 0Z" id="p77w152" />
<path d="M255.42 408.09l13.62 0l0 18.84l-13.62 0Z" id="p77w153" />
<path d="M272.69 408.09l38.39 0l0 18.84l-38.39 0Z" id="p77w154" />
<path d="M124.06 572.68l37.96 0l0 14.52l-37.96 0Z" id="p77w155" />
<path d="M165.23 572.68l19.51 0l0 14.52l-19.51 0Z" id="p77w156" />
<path d="M187.95 572.68l31.01 0l0 14.52l-31.01 0Z" id="p77w157" />
<path d="M222.16 572.68l25.67 0l0 14.52l-25.67 0Z" id="p77w158" />
<path d="M251.04 572.68l40.64 0l0 14.52l-40.64 0Z" id="p77w159" />
<path d="M294.89 572.68l64.08 0l0 14.52l-64.08 0Z" id="p77w160" />
<path d="M362.18 572.68l14.18 0l0 14.52l-14.18 0Z" id="p77w161" />
<path d="M379.56 572.68l31.01 0l0 14.52l-31.01 0Z" id="p77w162" />
<path d="M179.77 602.5l33.55 0l0 16.96l-33.55 0Z" id="p77w163" />
<path d="M309.17 602.5l30 0l0 16.96l-30 0Z" id="p77w164" />
<path d="M395.81 602.5l40.97 0l0 16.96l-40.97 0Z" id="p77w165" />
<path d="M482.45 602.5l52.69 0l0 16.96l-52.69 0Z" id="p77w166" />
<path d="M179.76 622.46l11.59 0l0 16.96l-11.59 0Z" id="p77w167" />
<path d="M195.76 622.46l45.01 0l0 16.96l-45.01 0Z" id="p77w168" />
<path d="M245.41 622.46l44.16 0l0 16.96l-44.16 0Z" id="p77w169" />
<path d="M321.46 622.46l32.81 0l0 16.96l-32.81 0Z" id="p77w170" />
<path d="M154.71 681.06l28.96 0l0 14.52l-28.96 0Z" id="p77w171" />
<path d="M186.88 681.06l13.9 0l0 14.52l-13.9 0Z" id="p77w172" />
<path d="M203.98 681.06l18.72 0l0 14.52l-18.72 0Z" id="p77w173" />
<path d="M225.91 681.06l31.01 0l0 14.52l-31.01 0Z" id="p77w174" />
<path d="M260.12 681.06l11.22 0l0 14.52l-11.22 0Z" id="p77w175" />
<path d="M274.55 681.06l13.9 0l0 14.52l-13.9 0Z" id="p77w176" />
<path d="M291.65 681.06l9.89 0l0 14.52l-9.89 0Z" id="p77w177" />
<path d="M304.75 681.06l52.04 0l0 14.52l-52.04 0Z" id="p77w178" />
<path d="M360 681.06l39.03 0l0 14.52l-39.03 0Z" id="p77w179" />
<path d="M402.23 681.06l14.18 0l0 14.52l-14.18 0Z" id="p77w180" />
<path d="M419.62 681.06l41.42 0l0 14.52l-41.42 0Z" id="p77w181" />
<path d="M464.24 681.06l14.18 0l0 14.52l-14.18 0Z" id="p77w182" />
<path d="M481.63 681.06l28.33 0l0 14.52l-28.33 0Z" id="p77w183" />
<path d="M533.48 681.06l35.02 0l0 14.52l-35.02 0Z" id="p77w184" />
<path d="M143.75 697.73l62.41 0l0 14.52l-62.41 0Z" id="p77w185" />
<path d="M209.37 697.73l9.89 0l0 14.52l-9.89 0Z" id="p77w186" />
<path d="M222.46 697.73l23.24 0l0 14.52l-23.24 0Z" id="p77w187" />
<path d="M248.91 697.73l13.9 0l0 14.52l-13.9 0Z" id="p77w188" />
<path d="M266.02 697.73l34.74 0l0 14.52l-34.74 0Z" id="p77w189" />
<path d="M313.85 697.73l9.89 0l0 14.52l-9.89 0Z" id="p77w190" />
<path d="M326.95 697.73l27.73 0l0 14.52l-27.73 0Z" id="p77w191" />
<path d="M378.82 697.73l25.4 0l0 14.52l-25.4 0Z" id="p77w192" />
<path d="M407.42 697.73l25.67 0l0 14.52l-25.67 0Z" id="p77w193" />
<path d="M436.3 697.73l29.69 0l0 14.52l-29.69 0Z" id="p77w194" />
<path d="M143.75 722.74l51.42 0l0 14.52l-51.42 0Z" id="p77w195" />
<path d="M208.27 722.74l29.42 0l0 14.52l-29.42 0Z" id="p77w196" />
<path d="M240.9 722.74l56.14 0l0 14.52l-56.14 0Z" id="p77w197" />
<path d="M300.24 722.74l18.72 0l0 14.52l-18.72 0Z" id="p77w198" />
<path d="M322.17 722.74l49.71 0l0 14.52l-49.71 0Z" id="p77w199" />
<path d="M124.06 756.08l27.53 0l0 14.52l-27.53 0Z" id="p77w200" />
<path d="M154.8 756.08l15.5 0l0 14.52l-15.5 0Z" id="p77w201" />
<path d="M173.51 756.08l43.29 0l0 14.52l-43.29 0Z" id="p77w202" />
<path d="M220.01 756.08l11.22 0l0 14.52l-11.22 0Z" id="p77w203" />
<path d="M234.43 756.08l41.45 0l0 14.52l-41.45 0Z" id="p77w204" />
<path d="M279.09 756.08l9.89 0l0 14.52l-9.89 0Z" id="p77w205" />
<path d="M292.18 756.08l13.91 0l0 14.52l-13.91 0Z" id="p77w206" />
<path d="M309.3 756.08l15.5 0l0 14.52l-15.5 0Z" id="p77w207" />
<path d="M328 756.08l66.29 0l0 14.52l-66.29 0Z" id="p77w208" />
<path d="M397.5 756.08l17.38 0l0 14.52l-17.38 0Z" id="p77w209" />
<path d="M418.09 756.08l66.83 0l0 14.52l-66.83 0Z" id="p77w210" />
<path d="M488.12 756.08l15.5 0l0 14.52l-15.5 0Z" id="p77w211" />
<path d="M506.83 756.08l24.33 0l0 14.52l-24.33 0Z" id="p77w212" />
<path d="M124.06 772.75l31.55 0l0 14.52l-31.55 0Z" id="p77w213" />
<path d="M155.61 772.75l12.57 0l0 14.52l-12.57 0Z" id="p77w214" />
<path d="M171.38 772.75l28.87 0l0 14.52l-28.87 0Z" id="p77w215" />
<path d="M203.45 772.75l31.84 0l0 14.52l-31.84 0Z" id="p77w216" />
<path d="M143.75 797.76l15.6 0l0 14.52l-15.6 0Z" id="p77w217" />
<path d="M162.56 797.76l13.9 0l0 14.52l-13.9 0Z" id="p77w218" />
<path d="M179.67 797.76l9.89 0l0 14.52l-9.89 0Z" id="p77w219" />
<path d="M192.76 797.76l42.25 0l0 14.52l-42.25 0Z" id="p77w220" />
<path d="M238.22 797.76l22.99 0l0 14.52l-22.99 0Z" id="p77w221" />
<path d="M264.42 797.76l9.89 0l0 14.52l-9.89 0Z" id="p77w222" />
<path d="M277.52 797.76l39.03 0l0 14.52l-39.03 0Z" id="p77w223" />
<path d="M319.75 797.76l16.83 0l0 14.52l-16.83 0Z" id="p77w224" />
<path d="M339.79 797.76l46.26 0l0 14.52l-46.26 0Z" id="p77w225" />
<path d="M389.26 797.76l25.67 0l0 14.52l-25.67 0Z" id="p77w226" />
<path d="M418.14 797.76l32.09 0l0 14.52l-32.09 0Z" id="p77w227" />
<path d="M143.75 814.43l36.81 0l0 14.52l-36.81 0Z" id="p77w228" />
<path d="M183.77 814.43l13.9 0l0 14.52l-13.9 0Z" id="p77w229" />
<path d="M200.88 814.43l23.24 0l0 14.52l-23.24 0Z" id="p77w230" />
<path d="M227.33 814.43l19.51 0l0 14.52l-19.51 0Z" id="p77w231" />
<path d="M250.05 814.43l14.18 0l0 14.52l-14.18 0Z" id="p77w232" />
<path d="M267.43 814.43l53.19 0l0 14.52l-53.19 0Z" id="p77w233" />
<path d="M323.83 814.43l25.67 0l0 14.52l-25.67 0Z" id="p77w234" />
<path d="M352.71 814.43l15.5 0l0 14.52l-15.5 0Z" id="p77w235" />
<path d="M371.41 814.43l44.9 0l0 14.52l-44.9 0Z" id="p77w236" />
<path d="M143.75 831.1l14.97 0l0 14.52l-14.97 0Z" id="p77w237" />
<path d="M161.93 831.1l20.06 0l0 14.52l-20.06 0Z" id="p77w238" />
<path d="M185.2 831.1l9.62 0l0 14.52l-9.62 0Z" id="p77w239" />
<path d="M198.03 831.1l13.9 0l0 14.52l-13.9 0Z" id="p77w240" />
<path d="M215.14 831.1l21.48 0l0 14.52l-21.48 0Z" id="p77w241" />
<path d="M239.82 831.1l22.99 0l0 14.52l-22.99 0Z" id="p77w242" />
<path d="M266.02 831.1l20.85 0l0 14.52l-20.85 0Z" id="p77w243" />
<path d="M290.08 831.1l17.63 0l0 14.52l-17.63 0Z" id="p77w244" />
<path d="M310.92 831.1l37.17 0l0 14.52l-37.17 0Z" id="p77w245" />
<path d="M351.3 831.1l40.92 0l0 14.52l-40.92 0Z" id="p77w246" />
<path d="M143.75 847.78l12.83 0l0 14.52l-12.83 0Z" id="p77w247" />
<path d="M159.79 847.78l39.51 0l0 14.52l-39.51 0Z" id="p77w248" />
<path d="M202.5 847.78l24.31 0l0 14.52l-24.31 0Z" id="p77w249" />
<path d="M230.02 847.78l24.33 0l0 14.52l-24.33 0Z" id="p77w250" />
<path d="M257.56 847.78l31.8 0l0 14.52l-31.8 0Z" id="p77w251" />
<path d="M143.75 864.45l12.57 0l0 14.52l-12.57 0Z" id="p77w252" />
<path d="M159.53 864.45l18.72 0l0 14.52l-18.72 0Z" id="p77w253" />
<path d="M181.45 864.45l49.71 0l0 14.52l-49.71 0Z" id="p77w254" />
<path d="M234.37 864.45l19.51 0l0 14.52l-19.51 0Z" id="p77w255" />
<path d="M257.08 864.45l65.22 0l0 14.52l-65.22 0Z" id="p77w256" />
<path d="M325.51 864.45l44.36 0l0 14.52l-44.36 0Z" id="p77w257" />
<path d="M143.75 881.12l10.43 0l0 14.52l-10.43 0Z" id="p77w258" />
<path d="M157.39 881.12l13.9 0l0 14.52l-13.9 0Z" id="p77w259" />
<path d="M174.49 881.12l21.11 0l0 14.52l-21.11 0Z" id="p77w260" />
<path d="M198.81 881.12l19.51 0l0 14.52l-19.51 0Z" id="p77w261" />
<path d="M221.52 881.12l8.82 0l0 14.52l-8.82 0Z" id="p77w262" />
<path d="M233.55 881.12l25.13 0l0 14.52l-25.13 0Z" id="p77w263" />
<path d="M261.89 881.12l23.79 0l0 14.52l-23.79 0Z" id="p77w264" />
<path d="M288.88 881.12l12.66 0l0 14.52l-12.66 0Z" id="p77w265" />
<path d="M304.75 881.12l21.38 0l0 14.52l-21.38 0Z" id="p77w266" />
<path d="M329.34 881.12l44.85 0l0 14.52l-44.85 0Z" id="p77w267" />
<path d="M143.75 897.79l33.24 0l0 14.52l-33.24 0Z" id="p77w268" />
<path d="M180.2 897.79l24.33 0l0 14.52l-24.33 0Z" id="p77w269" />
<path d="M207.73 897.79l44.64 0l0 14.52l-44.64 0Z" id="p77w270" />
<path d="M255.58 897.79l25.4 0l0 14.52l-25.4 0Z" id="p77w271" />
<path d="M284.18 897.79l55.86 0l0 14.52l-55.86 0Z" id="p77w272" />
<path d="M343.25 897.79l19.77 0l0 14.52l-19.77 0Z" id="p77w273" />
<path d="M366.23 897.79l16.83 0l0 14.52l-16.83 0Z" id="p77w274" />
<path d="M386.26 897.79l49.71 0l0 14.52l-49.71 0Z" id="p77w275" />
<path d="M439.18 897.79l39.03 0l0 14.52l-39.03 0Z" id="p77w276" />
<path d="M143.75 914.46l36.63 0l0 14.52l-36.63 0Z" id="p77w277" />
<path d="M183.59 914.46l9.62 0l0 14.52l-9.62 0Z" id="p77w278" />
<path d="M196.42 914.46l33.41 0l0 14.52l-33.41 0Z" id="p77w279" />
<path d="M242.92 914.46l9.89 0l0 14.52l-9.89 0Z" id="p77w280" />
<path d="M256.01 914.46l40.88 0l0 14.52l-40.88 0Z" id="p77w281" />
<path d="M300.1 914.46l44.64 0l0 14.52l-44.64 0Z" id="p77w282" />
<path d="M347.95 914.46l12.57 0l0 14.52l-12.57 0Z" id="p77w283" />
<path d="M363.72 914.46l17.63 0l0 14.52l-17.63 0Z" id="p77w284" />
<path d="M384.56 914.46l41.95 0l0 14.52l-41.95 0Z" id="p77w285" />
<path d="M143.75 931.13l65.22 0l0 14.52l-65.22 0Z" id="p77w286" />
<path d="M212.18 931.13l9.89 0l0 14.52l-9.89 0Z" id="p77w287" />
<path d="M225.27 931.13l43.56 0l0 14.52l-43.56 0Z" id="p77w288" />
<path d="M272.04 931.13l33.67 0l0 14.52l-33.67 0Z" id="p77w289" />
<path d="M308.92 931.13l31.01 0l0 14.52l-31.01 0Z" id="p77w290" />
<path d="M73.54 413.25l15.07 0l0 12.29l-15.07 0Z" id="p77w291" />
<path d="M390.26 439.01l55.48 0l0 12.56l-55.48 0Z" id="p77w292" />
<path d="M121.81 457.83l58.22 0l0 15.37l-58.22 0Z" id="p77w293" />
<path d="M183.4 457.83l20.77 0l0 15.37l-20.77 0Z" id="p77w294" />
<path d="M207.55 457.83l18.44 0l0 15.37l-18.44 0Z" id="p77w295" />
<path d="M229.36 457.83l54.05 0l0 15.37l-54.05 0Z" id="p77w296" />
<path d="M286.79 457.83l56.96 0l0 15.37l-56.96 0Z" id="p77w297" />
<path d="M121.81 479.12l10.97 0l0 14.52l-10.97 0Z" id="p77w298" />
<path d="M135.99 479.12l34.74 0l0 14.52l-34.74 0Z" id="p77w299" />
<path d="M173.93 479.12l50.87 0l0 14.52l-50.87 0Z" id="p77w300" />
<path d="M228.01 479.12l41.96 0l0 14.52l-41.96 0Z" id="p77w301" />
<path d="M273.18 479.12l18.72 0l0 14.52l-18.72 0Z" id="p77w302" />
<path d="M295.1 479.12l17.11 0l0 14.52l-17.11 0Z" id="p77w303" />
<path d="M315.42 479.06l74.03 0l0 14.6l-74.03 0Z" id="p77w304" />
<path d="M392.66 479.06l54.06 0l0 14.6l-54.06 0Z" id="p77w305" />
<path d="M121.81 495.79l19.51 0l0 14.52l-19.51 0Z" id="p77w306" />
<path d="M144.17 495.79l34.75 0l0 14.52l-34.75 0Z" id="p77w307" />
<path d="M182.13 495.79l89.5 0l0 14.52l-89.5 0Z" id="p77w308" />
<path d="M121.81 522.65l43.02 0l0 14.52l-43.02 0Z" id="p77w309" />
<path d="M168.03 522.65l80.2 0l0 14.52l-80.2 0Z" id="p77w310" />
<path d="M251.44 522.65l17.91 0l0 14.52l-17.91 0Z" id="p77w311" />
<path d="M272.56 522.65l28.06 0l0 14.52l-28.06 0Z" id="p77w312" />
<path d="M62.22 682.83l26.4 0l0 12.29l-26.4 0Z" id="p77w313" />
<path d="M52.89 757.92l35.72 0l0 12.3l-35.72 0Z" id="p77w314" />
<path d="M39.49 770.43l49.13 0l0 12.3l-49.13 0Z" id="p77w315" />
<path d="M68.27 39.02l42.71 0l0 15.38l-42.71 0Z" id="p77w316" />
<path d="M152.94 38.6l45.75 0l0 16.09l-45.75 0Z" id="p77w317" />
<path d="M250.71 39.02l43.21 0l0 15.38l-43.21 0Z" id="p77w318" />
<path d="M349.96 39.02l32.54 0l0 15.38l-32.54 0Z" id="p77w319" />
<path d="M617.33 983l73.77 0l0 12.23l-73.77 0Z" id="p77w320" />
<path d="M626.08 328.67l29.04 0l0 12.23l-29.04 0Z" id="p77w321" />
<path d="M657.82 328.67l51.1 0l0 12.23l-51.1 0Z" id="p77w322" />
</svg>
