<?xml version="1.0" encoding="UTF-8"?>
<svg xmlns="http://www.w3.org/2000/svg" xmlns:xlink="http://www.w3.org/1999/xlink" version="1.1" baseProfile="full" width="768" height="1024" viewBox="0,0,768,1024" preserveAspectRatio="xMinYMin meet" >
<style type="text/css">
<![CDATA[
path {fill-opacity: 0.5;fill: #00aeef;visibility: hidden;}
]]>
</style>
<path d="M124.36 107.98l18.36 0l0 18.84l-18.36 0Z" id="p147w1" />
<path d="M146.37 107.98l56.09 0l0 18.84l-56.09 0Z" id="p147w2" />
<path d="M124.36 739.41l27.53 0l0 14.52l-27.53 0Z" id="p147w3" />
<path d="M155.1 739.41l17.11 0l0 14.52l-17.11 0Z" id="p147w4" />
<path d="M175.41 739.41l35.81 0l0 14.52l-35.81 0Z" id="p147w5" />
<path d="M214.43 739.41l14.18 0l0 14.52l-14.18 0Z" id="p147w6" />
<path d="M231.81 739.41l65.15 0l0 14.52l-65.15 0Z" id="p147w7" />
<path d="M300.17 739.41l36.81 0l0 14.52l-36.81 0Z" id="p147w8" />
<path d="M340.19 739.41l11.22 0l0 14.52l-11.22 0Z" id="p147w9" />
<path d="M354.62 739.41l49.12 0l0 14.52l-49.12 0Z" id="p147w10" />
<path d="M406.94 739.41l15.5 0l0 14.52l-15.5 0Z" id="p147w11" />
<path d="M425.64 739.41l41.18 0l0 14.52l-41.18 0Z" id="p147w12" />
<path d="M124.36 756.08l35.28 0l0 14.52l-35.28 0Z" id="p147w13" />
<path d="M162.85 756.08l49.44 0l0 14.52l-49.44 0Z" id="p147w14" />
<path d="M215.5 756.08l33.05 0l0 14.52l-33.05 0Z" id="p147w15" />
<path d="M251.76 756.08l20.85 0l0 14.52l-20.85 0Z" id="p147w16" />
<path d="M275.82 756.08l25.67 0l0 14.52l-25.67 0Z" id="p147w17" />
<path d="M304.7 756.08l47.83 0l0 14.52l-47.83 0Z" id="p147w18" />
<path d="M355.74 756.08l47.77 0l0 14.52l-47.77 0Z" id="p147w19" />
<path d="M415.01 756.08l49.75 0l0 14.52l-49.75 0Z" id="p147w20" />
<path d="M135.31 789.42l28.87 0l0 14.52l-28.87 0Z" id="p147w21" />
<path d="M167.39 789.42l24.35 0l0 14.52l-24.35 0Z" id="p147w22" />
<path d="M194.95 789.42l39.03 0l0 14.52l-39.03 0Z" id="p147w23" />
<path d="M237.18 789.42l14.18 0l0 14.52l-14.18 0Z" id="p147w24" />
<path d="M254.57 789.42l28.88 0l0 14.52l-28.88 0Z" id="p147w25" />
<path d="M286.66 789.42l28.33 0l0 14.52l-28.33 0Z" id="p147w26" />
<path d="M318.19 789.42l17.38 0l0 14.52l-17.38 0Z" id="p147w27" />
<path d="M338.78 789.42l49.17 0l0 14.52l-49.17 0Z" id="p147w28" />
<path d="M391.15 789.42l28.87 0l0 14.52l-28.87 0Z" id="p147w29" />
<path d="M423.23 789.42l49.44 0l0 14.52l-49.44 0Z" id="p147w30" />
<path d="M475.88 789.42l13.9 0l0 14.52l-13.9 0Z" id="p147w31" />
<path d="M492.99 789.42l21.11 0l0 14.52l-21.11 0Z" id="p147w32" />
<path d="M517.3 789.42l49.97 0l0 14.52l-49.97 0Z" id="p147w33" />
<path d="M73.18 741.18l15.07 0l0 12.29l-15.07 0Z" id="p147w34" />
<path d="M61.86 791.2l26.4 0l0 12.29l-26.4 0Z" id="p147w35" />
<path d="M134.83 901.74l8.98 0l0 13.06l-8.98 0Z" id="p147w36" />
<path d="M146.68 901.74l34.79 0l0 13.06l-34.79 0Z" id="p147w37" />
<path d="M184.34 901.74l17.55 0l0 13.06l-17.55 0Z" id="p147w38" />
<path d="M204.76 901.74l36.86 0l0 13.06l-36.86 0Z" id="p147w39" />
<path d="M244.49 901.8l15.31 0l0 12.99l-15.31 0Z" id="p147w40" />
<path d="M262.66 901.8l56.23 0l0 12.99l-56.23 0Z" id="p147w41" />
<path d="M321.76 901.8l15.31 0l0 12.99l-15.31 0Z" id="p147w42" />
<path d="M339.93 901.8l65.77 0l0 12.99l-65.77 0Z" id="p147w43" />
<path d="M433.88 901.74l15.62 0l0 13.06l-15.62 0Z" id="p147w44" />
<path d="M452.38 901.74l8.96 0l0 13.06l-8.96 0Z" id="p147w45" />
<path d="M464.21 901.74l33.89 0l0 13.06l-33.89 0Z" id="p147w46" />
<path d="M500.97 901.8l28.93 0l0 12.99l-28.93 0Z" id="p147w47" />
<path d="M532.78 901.8l15.79 0l0 12.99l-15.79 0Z" id="p147w48" />
<path d="M551.44 901.8l15.78 0l0 12.99l-15.78 0Z" id="p147w49" />
<path d="M135.71 917.02l12.8 0l0 13.06l-12.8 0Z" id="p147w50" />
<path d="M151.38 917.02l35.39 0l0 13.06l-35.39 0Z" id="p147w51" />
<path d="M194.3 917.02l18.78 0l0 13.06l-18.78 0Z" id="p147w52" />
<path d="M215.94 917.02l47.83 0l0 13.06l-47.83 0Z" id="p147w53" />
<path d="M266.64 917.08l15.31 0l0 12.99l-15.31 0Z" id="p147w54" />
<path d="M284.82 917.08l44.24 0l0 12.99l-44.24 0Z" id="p147w55" />
<path d="M336.44 917.08l21.28 0l0 12.99l-21.28 0Z" id="p147w56" />
<path d="M360.59 917.08l53.57 0l0 12.99l-53.57 0Z" id="p147w57" />
<path d="M442.34 917.02l12.8 0l0 13.06l-12.8 0Z" id="p147w58" />
<path d="M458.01 917.02l43.77 0l0 13.06l-43.77 0Z" id="p147w59" />
<path d="M504.65 917.08l15.31 0l0 12.99l-15.31 0Z" id="p147w60" />
<path d="M522.59 917.08l34.44 0l0 12.99l-34.44 0Z" id="p147w61" />
<path d="M135.71 932.31l36.94 0l0 13.06l-36.94 0Z" id="p147w62" />
<path d="M175.52 932.36l86.61 0l0 12.99l-86.61 0Z" id="p147w63" />
<path d="M290.31 932.31l12.8 0l0 13.06l-12.8 0Z" id="p147w64" />
<path d="M305.98 932.31l41.16 0l0 13.06l-41.16 0Z" id="p147w65" />
<path d="M350.01 932.36l21.28 0l0 12.99l-21.28 0Z" id="p147w66" />
<path d="M374.16 932.36l55.01 0l0 12.99l-55.01 0Z" id="p147w67" />
<path d="M456.63 932.31l8.98 0l0 13.06l-8.98 0Z" id="p147w68" />
<path d="M468.47 932.31l51.83 0l0 13.06l-51.83 0Z" id="p147w69" />
<path d="M523.18 932.36l17.46 0l0 12.99l-17.46 0Z" id="p147w70" />
<path d="M543.5 932.36l24.4 0l0 12.99l-24.4 0Z" id="p147w71" />
<path d="M596.08 932.31l8.98 0l0 13.06l-8.98 0Z" id="p147w72" />
<path d="M607.93 932.31l42.43 0l0 13.06l-42.43 0Z" id="p147w73" />
<path d="M653.23 932.36l15.31 0l0 12.99l-15.31 0Z" id="p147w74" />
<path d="M671.4 932.36l37.53 0l0 12.99l-37.53 0Z" id="p147w75" />
<path d="M142.57 175.28l54.95 0l0 21.51l-54.95 0Z" id="p147w76" />
<path d="M142.57 197.52l23.77 0l0 14.52l-23.77 0Z" id="p147w77" />
<path d="M169.55 197.52l14.97 0l0 14.52l-14.97 0Z" id="p147w78" />
<path d="M187.73 197.52l26.72 0l0 14.52l-26.72 0Z" id="p147w79" />
<path d="M435 175.28l59.42 0l0 21.51l-59.42 0Z" id="p147w80" />
<path d="M499.15 175.28l28.91 0l0 21.51l-28.91 0Z" id="p147w81" />
<path d="M435 191.95l60.71 0l0 21.51l-60.71 0Z" id="p147w82" />
<path d="M435 214.19l23.77 0l0 14.52l-23.77 0Z" id="p147w83" />
<path d="M461.98 214.19l14.97 0l0 14.52l-14.97 0Z" id="p147w84" />
<path d="M480.16 214.19l45.71 0l0 14.52l-45.71 0Z" id="p147w85" />
<path d="M142.57 280.91l26.21 0l0 14.52l-26.21 0Z" id="p147w86" />
<path d="M178.48 280.91l25.4 0l0 14.52l-25.4 0Z" id="p147w87" />
<path d="M213.57 280.91l45.46 0l0 14.52l-45.46 0Z" id="p147w88" />
<path d="M268.72 280.91l30.23 0l0 14.52l-30.23 0Z" id="p147w89" />
<path d="M308.64 280.91l52.93 0l0 14.52l-52.93 0Z" id="p147w90" />
<path d="M371.26 280.91l15.5 0l0 14.52l-15.5 0Z" id="p147w91" />
<path d="M142.57 297.58l39.55 0l0 14.52l-39.55 0Z" id="p147w92" />
<path d="M186.73 297.58l19.51 0l0 14.52l-19.51 0Z" id="p147w93" />
<path d="M210.86 297.58l63.07 0l0 14.52l-63.07 0Z" id="p147w94" />
<path d="M278.55 297.58l19.51 0l0 14.52l-19.51 0Z" id="p147w95" />
<path d="M302.67 297.58l41.43 0l0 14.52l-41.43 0Z" id="p147w96" />
<path d="M348.72 297.58l13.91 0l0 14.52l-13.91 0Z" id="p147w97" />
<path d="M367.25 297.58l19.51 0l0 14.52l-19.51 0Z" id="p147w98" />
<path d="M142.57 314.25l41.71 0l0 14.52l-41.71 0Z" id="p147w99" />
<path d="M142.57 330.92l18.44 0l0 14.52l-18.44 0Z" id="p147w100" />
<path d="M165.01 330.92l51.31 0l0 14.52l-51.31 0Z" id="p147w101" />
<path d="M220.31 330.92l13.9 0l0 14.52l-13.9 0Z" id="p147w102" />
<path d="M238.2 330.92l36.61 0l0 14.52l-36.61 0Z" id="p147w103" />
<path d="M278.82 330.92l27.81 0l0 14.52l-27.81 0Z" id="p147w104" />
<path d="M310.62 330.92l25.4 0l0 14.52l-25.4 0Z" id="p147w105" />
<path d="M340.01 330.92l13.9 0l0 14.52l-13.9 0Z" id="p147w106" />
<path d="M357.91 330.92l21.65 0l0 14.52l-21.65 0Z" id="p147w107" />
<path d="M142.57 347.6l25.67 0l0 14.52l-25.67 0Z" id="p147w108" />
<path d="M174.29 347.6l28.35 0l0 14.52l-28.35 0Z" id="p147w109" />
<path d="M208.68 347.6l12.02 0l0 14.52l-12.02 0Z" id="p147w110" />
<path d="M226.75 347.6l51.52 0l0 14.52l-51.52 0Z" id="p147w111" />
<path d="M284.31 347.6l45.46 0l0 14.52l-45.46 0Z" id="p147w112" />
<path d="M335.81 347.6l25.4 0l0 14.52l-25.4 0Z" id="p147w113" />
<path d="M367.25 347.6l19.51 0l0 14.52l-19.51 0Z" id="p147w114" />
<path d="M142.57 364.27l44.39 0l0 14.52l-44.39 0Z" id="p147w115" />
<path d="M190.17 364.27l12.29 0l0 14.52l-12.29 0Z" id="p147w116" />
<path d="M205.67 364.27l49.92 0l0 14.52l-49.92 0Z" id="p147w117" />
<path d="M258.79 364.27l25.4 0l0 14.52l-25.4 0Z" id="p147w118" />
<path d="M287.4 364.27l19.51 0l0 14.52l-19.51 0Z" id="p147w119" />
<path d="M310.11 364.27l54.75 0l0 14.52l-54.75 0Z" id="p147w120" />
<path d="M142.57 380.94l41.97 0l0 14.52l-41.97 0Z" id="p147w121" />
<path d="M188.04 380.94l22.76 0l0 14.52l-22.76 0Z" id="p147w122" />
<path d="M214.29 380.94l26.73 0l0 14.52l-26.73 0Z" id="p147w123" />
<path d="M244.51 380.94l39.29 0l0 14.52l-39.29 0Z" id="p147w124" />
<path d="M287.3 380.94l15.5 0l0 14.52l-15.5 0Z" id="p147w125" />
<path d="M306.29 380.94l51.31 0l0 14.52l-51.31 0Z" id="p147w126" />
<path d="M361.09 380.94l25.67 0l0 14.52l-25.67 0Z" id="p147w127" />
<path d="M142.57 397.61l58.82 0l0 14.52l-58.82 0Z" id="p147w128" />
<path d="M204.6 397.61l14.18 0l0 14.52l-14.18 0Z" id="p147w129" />
<path d="M221.98 397.61l26.73 0l0 14.52l-26.73 0Z" id="p147w130" />
<path d="M251.92 397.61l43.83 0l0 14.52l-43.83 0Z" id="p147w131" />
<path d="M295.75 397.61l23.53 0l0 14.52l-23.53 0Z" id="p147w132" />
<path d="M435 280.9l22.19 0l0 14.52l-22.19 0Z" id="p147w133" />
<path d="M461.9 280.9l20.05 0l0 14.52l-20.05 0Z" id="p147w134" />
<path d="M486.65 280.9l18.44 0l0 14.52l-18.44 0Z" id="p147w135" />
<path d="M509.8 280.9l49.71 0l0 14.52l-49.71 0Z" id="p147w136" />
<path d="M564.21 280.9l45.71 0l0 14.52l-45.71 0Z" id="p147w137" />
<path d="M614.63 280.9l19.51 0l0 14.52l-19.51 0Z" id="p147w138" />
<path d="M638.84 280.9l40.35 0l0 14.52l-40.35 0Z" id="p147w139" />
<path d="M435 297.57l25.67 0l0 14.52l-25.67 0Z" id="p147w140" />
<path d="M465.39 297.57l44.92 0l0 14.52l-44.92 0Z" id="p147w141" />
<path d="M515.01 297.57l13.9 0l0 14.52l-13.9 0Z" id="p147w142" />
<path d="M533.62 297.57l52.14 0l0 14.52l-52.14 0Z" id="p147w143" />
<path d="M590.47 297.57l9.89 0l0 14.52l-9.89 0Z" id="p147w144" />
<path d="M605.06 297.57l38.77 0l0 14.52l-38.77 0Z" id="p147w145" />
<path d="M648.54 297.57l30.65 0l0 14.52l-30.65 0Z" id="p147w146" />
<path d="M435 314.24l35.76 0l0 14.52l-35.76 0Z" id="p147w147" />
<path d="M473.97 314.24l13.91 0l0 14.52l-13.91 0Z" id="p147w148" />
<path d="M491.09 314.24l30.65 0l0 14.52l-30.65 0Z" id="p147w149" />
<path d="M524.94 314.24l22.45 0l0 14.52l-22.45 0Z" id="p147w150" />
<path d="M550.6 314.24l17.11 0l0 14.52l-17.11 0Z" id="p147w151" />
<path d="M570.92 314.24l9.89 0l0 14.52l-9.89 0Z" id="p147w152" />
<path d="M584.01 314.24l37.14 0l0 14.52l-37.14 0Z" id="p147w153" />
<path d="M435 330.92l26.21 0l0 14.52l-26.21 0Z" id="p147w154" />
<path d="M464.14 330.92l35.55 0l0 14.52l-35.55 0Z" id="p147w155" />
<path d="M502.61 330.92l25.92 0l0 14.52l-25.92 0Z" id="p147w156" />
<path d="M541.06 330.92l9.89 0l0 14.52l-9.89 0Z" id="p147w157" />
<path d="M553.87 330.92l54.26 0l0 14.52l-54.26 0Z" id="p147w158" />
<path d="M611.06 330.92l13.9 0l0 14.52l-13.9 0Z" id="p147w159" />
<path d="M627.88 330.92l44.9 0l0 14.52l-44.9 0Z" id="p147w160" />
<path d="M435 347.6l54.08 0l0 14.52l-54.08 0Z" id="p147w161" />
<path d="M492.21 347.6l53.95 0l0 14.52l-53.95 0Z" id="p147w162" />
<path d="M552.84 347.6l13.77 0l0 14.52l-13.77 0Z" id="p147w163" />
<path d="M569.75 347.6l29.34 0l0 14.52l-29.34 0Z" id="p147w164" />
<path d="M602.22 347.6l44.13 0l0 14.52l-44.13 0Z" id="p147w165" />
<path d="M649.48 347.6l11.09 0l0 14.52l-11.09 0Z" id="p147w166" />
<path d="M663.71 347.6l15.81 0l0 14.52l-15.81 0ZM435.01 364.27l31.14 0l0 14.52l-31.14 0Z" id="p147w167" />
<path d="M478.38 364.27l9.75 0l0 14.52l-9.75 0Z" id="p147w168" />
<path d="M490.94 364.27l64.49 0l0 14.52l-64.49 0Z" id="p147w169" />
<path d="M558.24 364.27l19.31 0l0 14.52l-19.31 0Z" id="p147w170" />
<path d="M580.37 364.27l30.4 0l0 14.52l-30.4 0Z" id="p147w171" />
<path d="M613.57 364.27l11.09 0l0 14.52l-11.09 0Z" id="p147w172" />
<path d="M627.47 364.27l19.31 0l0 14.52l-19.31 0Z" id="p147w173" />
<path d="M649.59 364.27l30.13 0l0 14.52l-30.13 0Z" id="p147w174" />
<path d="M142.57 458.72l34.92 0l0 21.51l-34.92 0Z" id="p147w175" />
<path d="M196.39 458.72l32.37 0l0 21.51l-32.37 0Z" id="p147w176" />
<path d="M142.57 480.95l23.77 0l0 14.52l-23.77 0Z" id="p147w177" />
<path d="M169.55 480.95l14.97 0l0 14.52l-14.97 0Z" id="p147w178" />
<path d="M187.73 480.95l45.71 0l0 14.52l-45.71 0Z" id="p147w179" />
<path d="M435 458.72l89.5 0l0 21.51l-89.5 0Z" id="p147w180" />
<path d="M435 480.95l23.77 0l0 14.52l-23.77 0Z" id="p147w181" />
<path d="M461.98 480.95l14.97 0l0 14.52l-14.97 0Z" id="p147w182" />
<path d="M435 497.63l60.15 0l0 14.52l-60.15 0Z" id="p147w183" />
<path d="M142.57 556.01l22.19 0l0 14.52l-22.19 0Z" id="p147w184" />
<path d="M167.46 556.01l20.05 0l0 14.52l-20.05 0Z" id="p147w185" />
<path d="M190.2 556.01l18.44 0l0 14.52l-18.44 0Z" id="p147w186" />
<path d="M211.34 556.01l49.71 0l0 14.52l-49.71 0Z" id="p147w187" />
<path d="M263.74 556.01l26.73 0l0 14.52l-26.73 0Z" id="p147w188" />
<path d="M293.17 556.01l23.76 0l0 14.52l-23.76 0Z" id="p147w189" />
<path d="M328.73 556.01l24.34 0l0 14.52l-24.34 0Z" id="p147w190" />
<path d="M355.77 556.01l30.99 0l0 14.52l-30.99 0Z" id="p147w191" />
<path d="M142.57 572.68l14.18 0l0 14.52l-14.18 0Z" id="p147w192" />
<path d="M160.63 572.68l39.51 0l0 14.52l-39.51 0Z" id="p147w193" />
<path d="M204.02 572.68l36.63 0l0 14.52l-36.63 0Z" id="p147w194" />
<path d="M244.53 572.68l14.18 0l0 14.52l-14.18 0Z" id="p147w195" />
<path d="M262.59 572.68l39.03 0l0 14.52l-39.03 0Z" id="p147w196" />
<path d="M313.13 572.68l18.44 0l0 14.52l-18.44 0Z" id="p147w197" />
<path d="M335.45 572.68l51.31 0l0 14.52l-51.31 0Z" id="p147w198" />
<path d="M142.57 589.35l13.9 0l0 14.52l-13.9 0Z" id="p147w199" />
<path d="M164.11 589.35l54.52 0l0 14.52l-54.52 0Z" id="p147w200" />
<path d="M226.28 589.35l61.22 0l0 14.52l-61.22 0Z" id="p147w201" />
<path d="M295.15 589.35l9.89 0l0 14.52l-9.89 0Z" id="p147w202" />
<path d="M312.68 589.35l42.22 0l0 14.52l-42.22 0Z" id="p147w203" />
<path d="M376.87 589.35l9.89 0l0 14.52l-9.89 0Z" id="p147w204" />
<path d="M142.57 606.02l55.33 0l0 14.52l-55.33 0Z" id="p147w205" />
<path d="M208.32 606.02l57.36 0l0 14.52l-57.36 0Z" id="p147w206" />
<path d="M276.1 606.02l86.34 0l0 14.52l-86.34 0Z" id="p147w207" />
<path d="M372.86 606.02l13.9 0l0 14.52l-13.9 0Z" id="p147w208" />
<path d="M142.57 622.69l59.87 0l0 14.52l-59.87 0Z" id="p147w209" />
<path d="M208.36 622.69l46.24 0l0 14.52l-46.24 0Z" id="p147w210" />
<path d="M266.91 622.7l13.9 0l0 14.52l-13.9 0Z" id="p147w211" />
<path d="M286.73 622.7l51.52 0l0 14.52l-51.52 0Z" id="p147w212" />
<path d="M347.89 622.7l38.87 0l0 14.52l-38.87 0ZM142.57 639.37l7.48 0l0 14.52l-7.48 0Z" id="p147w213" />
<path d="M150.05 639.37l29.14 0l0 14.52l-29.14 0Z" id="p147w214" />
<path d="M182.09 639.37l12.57 0l0 14.52l-12.57 0Z" id="p147w215" />
<path d="M197.55 639.37l25.67 0l0 14.52l-25.67 0Z" id="p147w216" />
<path d="M226.12 639.37l60.93 0l0 14.52l-60.93 0Z" id="p147w217" />
<path d="M289.94 639.37l17.11 0l0 14.52l-17.11 0Z" id="p147w218" />
<path d="M309.94 639.37l24.06 0l0 14.52l-24.06 0Z" id="p147w219" />
<path d="M336.9 639.37l15.5 0l0 14.52l-15.5 0Z" id="p147w220" />
<path d="M355.29 639.37l31.47 0l0 14.52l-31.47 0ZM142.57 656.04l33.95 0l0 14.52l-33.95 0Z" id="p147w221" />
<path d="M190.39 656.04l9.89 0l0 14.52l-9.89 0Z" id="p147w222" />
<path d="M203.88 656.04l22.45 0l0 14.52l-22.45 0Z" id="p147w223" />
<path d="M229.93 656.04l41.43 0l0 14.52l-41.43 0Z" id="p147w224" />
<path d="M285.25 656.04l9.89 0l0 14.52l-9.89 0Z" id="p147w225" />
<path d="M298.73 656.04l58.47 0l0 14.52l-58.47 0Z" id="p147w226" />
<path d="M376.87 656.05l9.89 0l0 14.52l-9.89 0Z" id="p147w227" />
<path d="M142.58 672.72l22.17 0l0 14.52l-22.17 0Z" id="p147w228" />
<path d="M167.96 672.72l13.91 0l0 14.52l-13.91 0Z" id="p147w229" />
<path d="M185.08 672.72l13.9 0l0 14.52l-13.9 0Z" id="p147w230" />
<path d="M202.18 672.72l60.08 0l0 14.52l-60.08 0Z" id="p147w231" />
<path d="M435.01 556.01l59.61 0l0 14.52l-59.61 0Z" id="p147w232" />
<path d="M501.54 556.01l16.83 0l0 14.52l-16.83 0Z" id="p147w233" />
<path d="M525.3 556.01l20.85 0l0 14.52l-20.85 0Z" id="p147w234" />
<path d="M553.08 556.01l49.44 0l0 14.52l-49.44 0Z" id="p147w235" />
<path d="M609.45 556.01l56.14 0l0 14.52l-56.14 0Z" id="p147w236" />
<path d="M435.01 572.68l9.89 0l0 14.52l-9.89 0Z" id="p147w237" />
<path d="M450.76 572.68l41.45 0l0 14.52l-41.45 0Z" id="p147w238" />
<path d="M497.72 572.68l36.1 0l0 14.52l-36.1 0Z" id="p147w239" />
<path d="M539.69 572.68l15.5 0l0 14.52l-15.5 0Z" id="p147w240" />
<path d="M561.05 572.68l55.32 0l0 14.52l-55.32 0Z" id="p147w241" />
<path d="M622.24 572.68l56.96 0l0 14.52l-56.96 0Z" id="p147w242" />
<path d="M435.01 589.35l30.68 0l0 14.52l-30.68 0Z" id="p147w243" />
<path d="M482.83 589.35l19.77 0l0 14.52l-19.77 0Z" id="p147w244" />
<path d="M507.84 589.35l19.51 0l0 14.52l-19.51 0Z" id="p147w245" />
<path d="M532.59 589.35l60.6 0l0 14.52l-60.6 0Z" id="p147w246" />
<path d="M598.42 589.35l17.11 0l0 14.52l-17.11 0Z" id="p147w247" />
<path d="M620.76 589.35l9.89 0l0 14.52l-9.89 0Z" id="p147w248" />
<path d="M635.89 589.35l43.31 0l0 14.52l-43.31 0Z" id="p147w249" />
<path d="M435.01 606.02l9.89 0l0 14.52l-9.89 0Z" id="p147w250" />
<path d="M449.82 606.02l58.53 0l0 14.52l-58.53 0Z" id="p147w251" />
<path d="M513.27 606.02l15.5 0l0 14.52l-15.5 0Z" id="p147w252" />
<path d="M533.7 606.02l60.68 0l0 14.52l-60.68 0Z" id="p147w253" />
<path d="M599.3 606.02l9.89 0l0 14.52l-9.89 0Z" id="p147w254" />
<path d="M614.11 606.02l50.26 0l0 14.52l-50.26 0Z" id="p147w255" />
<path d="M669.3 606.02l9.89 0l0 14.52l-9.89 0Z" id="p147w256" />
<path d="M435.01 622.69l47.04 0l0 14.52l-47.04 0Z" id="p147w257" />
<path d="M494.98 622.7l85.85 0l0 14.52l-85.85 0Z" id="p147w258" />
<path d="M587.37 622.7l59.61 0l0 14.52l-59.61 0Z" id="p147w259" />
<path d="M653.52 622.7l25.67 0l0 14.52l-25.67 0Z" id="p147w260" />
<path d="M435 639.37l49.17 0l0 14.52l-49.17 0Z" id="p147w261" />
<path d="M493.62 639.37l59.79 0l0 14.52l-59.79 0Z" id="p147w262" />
<path d="M562.87 639.37l15.5 0l0 14.52l-15.5 0Z" id="p147w263" />
<path d="M587.83 639.37l44.84 0l0 14.52l-44.84 0Z" id="p147w264" />
<path d="M642.12 639.37l37.06 0l0 14.52l-37.06 0ZM435 656.04l29.67 0l0 14.52l-29.67 0Z" id="p147w265" />
<path d="M470.04 656.04l72.17 0l0 14.52l-72.17 0Z" id="p147w266" />
<path d="M556.16 656.04l29.67 0l0 14.52l-29.67 0Z" id="p147w267" />
<path d="M591.2 656.04l35.56 0l0 14.52l-35.56 0Z" id="p147w268" />
<path d="M632.13 656.04l47.06 0l0 14.52l-47.06 0Z" id="p147w269" />
<path d="M435 672.71l56.36 0l0 14.52l-56.36 0Z" id="p147w270" />
<path d="M155.07 244.25l22.17 0l0 15.28l-22.17 0Z" id="p147w271" />
<path d="M155.07 526.85l22.17 0l0 15.28l-22.17 0Z" id="p147w272" />
<path d="M447.5 526.85l22.17 0l0 15.28l-22.17 0Z" id="p147w273" />
<path d="M447.37 244.25l22.17 0l0 15.28l-22.17 0Z" id="p147w274" />
<path d="M137.85 156.47l42.55 0l0 12.56l-42.55 0Z" id="p147w275" />
<path d="M183.1 156.47l37.81 0l0 12.56l-37.81 0Z" id="p147w276" />
<path d="M220.91 156.47l17.78 0l0 12.56l-17.78 0Z" id="p147w277" />
<path d="M430.28 156.47l42.55 0l0 12.56l-42.55 0Z" id="p147w278" />
<path d="M475.53 156.47l40.61 0l0 12.56l-40.61 0Z" id="p147w279" />
<path d="M138.63 428.61l51.57 0l0 12.56l-51.57 0Z" id="p147w280" />
<path d="M431.06 428.61l42.55 0l0 12.56l-42.55 0Z" id="p147w281" />
<path d="M476.31 428.61l44.63 0l0 12.56l-44.63 0Z" id="p147w282" />
<path d="M68.27 38.6l16.59 0l0 16.09l-16.59 0Z" id="p147w283" />
<path d="M88.23 38.6l28.66 0l0 16.09l-28.66 0Z" id="p147w284" />
<path d="M131.1 38.6l99.65 0l0 16.09l-99.65 0Z" id="p147w285" />
<path d="M602.32 983l88.78 0l0 12.23l-88.78 0Z" id="p147w286" />
</svg>
