<?xml version="1.0" encoding="UTF-8"?>
<svg xmlns="http://www.w3.org/2000/svg" xmlns:xlink="http://www.w3.org/1999/xlink" version="1.1" baseProfile="full" width="768" height="1024" viewBox="0,0,768,1024" preserveAspectRatio="xMinYMin meet" >
<style type="text/css">
<![CDATA[
path {fill-opacity: 0.5;fill: #00aeef;visibility: hidden;}
]]>
</style>
<path d="M124.06 107.98l23.83 0l0 18.84l-23.83 0Z" id="p32w1" />
<path d="M151.54 107.98l18.36 0l0 18.84l-18.36 0Z" id="p32w2" />
<path d="M173.54 107.98l37.28 0l0 18.84l-37.28 0Z" id="p32w3" />
<path d="M143.75 139.19l32.87 0l0 14.52l-32.87 0Z" id="p32w4" />
<path d="M179.83 139.19l14.18 0l0 14.52l-14.18 0Z" id="p32w5" />
<path d="M197.21 139.19l21.91 0l0 14.52l-21.91 0Z" id="p32w6" />
<path d="M232.22 139.19l28.06 0l0 14.52l-28.06 0Z" id="p32w7" />
<path d="M263.49 139.19l36.63 0l0 14.52l-36.63 0Z" id="p32w8" />
<path d="M303.32 139.19l13.9 0l0 14.52l-13.9 0Z" id="p32w9" />
<path d="M320.43 139.12l10.03 0l0 14.6l-10.03 0Z" id="p32w10" />
<path d="M333.67 139.12l22.44 0l0 14.6l-22.44 0Z" id="p32w11" />
<path d="M359.31 139.12l13.87 0l0 14.6l-13.87 0Z" id="p32w12" />
<path d="M376.39 139.12l10.03 0l0 14.6l-10.03 0Z" id="p32w13" />
<path d="M389.63 139.12l48.12 0l0 14.6l-48.12 0Z" id="p32w14" />
<path d="M143.75 164.2l22.73 0l0 14.52l-22.73 0Z" id="p32w15" />
<path d="M169.69 164.2l52.94 0l0 14.52l-52.94 0Z" id="p32w16" />
<path d="M225.84 164.2l12.57 0l0 14.52l-12.57 0Z" id="p32w17" />
<path d="M241.61 164.2l32.88 0l0 14.52l-32.88 0Z" id="p32w18" />
<path d="M277.7 164.2l9.89 0l0 14.52l-9.89 0Z" id="p32w19" />
<path d="M290.8 164.2l22.17 0l0 14.52l-22.17 0Z" id="p32w20" />
<path d="M316.18 164.2l13.9 0l0 14.52l-13.9 0Z" id="p32w21" />
<path d="M333.28 164.2l9.89 0l0 14.52l-9.89 0Z" id="p32w22" />
<path d="M346.38 164.2l50.26 0l0 14.52l-50.26 0Z" id="p32w23" />
<path d="M143.75 197.54l31.01 0l0 14.52l-31.01 0Z" id="p32w24" />
<path d="M177.97 197.54l28.06 0l0 14.52l-28.06 0Z" id="p32w25" />
<path d="M209.24 197.54l14.18 0l0 14.52l-14.18 0Z" id="p32w26" />
<path d="M226.62 197.54l28.33 0l0 14.52l-28.33 0Z" id="p32w27" />
<path d="M258.15 197.54l81.27 0l0 14.52l-81.27 0Z" id="p32w28" />
<path d="M342.63 197.54l19.52 0l0 14.52l-19.52 0Z" id="p32w29" />
<path d="M365.36 197.54l59.34 0l0 14.52l-59.34 0Z" id="p32w30" />
<path d="M427.91 197.54l52.48 0l0 14.52l-52.48 0Z" id="p32w31" />
<path d="M143.75 222.56l36.63 0l0 14.52l-36.63 0Z" id="p32w32" />
<path d="M183.59 222.56l14.18 0l0 14.52l-14.18 0Z" id="p32w33" />
<path d="M200.97 222.56l13.9 0l0 14.52l-13.9 0Z" id="p32w34" />
<path d="M218.08 222.56l23.79 0l0 14.52l-23.79 0Z" id="p32w35" />
<path d="M245.07 222.56l19.51 0l0 14.52l-19.51 0Z" id="p32w36" />
<path d="M267.79 222.56l25.67 0l0 14.52l-25.67 0Z" id="p32w37" />
<path d="M296.67 222.56l14.18 0l0 14.52l-14.18 0Z" id="p32w38" />
<path d="M314.05 222.56l65.48 0l0 14.52l-65.48 0Z" id="p32w39" />
<path d="M382.74 222.56l24.85 0l0 14.52l-24.85 0Z" id="p32w40" />
<path d="M143.75 239.23l46.25 0l0 14.52l-46.25 0Z" id="p32w41" />
<path d="M193.21 239.23l32.35 0l0 14.52l-32.35 0Z" id="p32w42" />
<path d="M228.77 239.23l17.38 0l0 14.52l-17.38 0Z" id="p32w43" />
<path d="M249.36 239.23l41.7 0l0 14.52l-41.7 0Z" id="p32w44" />
<path d="M294.27 239.23l19.51 0l0 14.52l-19.51 0Z" id="p32w45" />
<path d="M316.98 239.23l36.89 0l0 14.52l-36.89 0Z" id="p32w46" />
<path d="M357.08 239.23l59.54 0l0 14.52l-59.54 0Z" id="p32w47" />
<path d="M419.83 239.23l16.83 0l0 14.52l-16.83 0Z" id="p32w48" />
<path d="M143.75 255.9l36.63 0l0 14.52l-36.63 0Z" id="p32w49" />
<path d="M183.59 255.9l14.18 0l0 14.52l-14.18 0Z" id="p32w50" />
<path d="M200.97 255.9l39.24 0l0 14.52l-39.24 0Z" id="p32w51" />
<path d="M243.42 255.9l23.53 0l0 14.52l-23.53 0Z" id="p32w52" />
<path d="M270.16 255.9l38.32 0l0 14.52l-38.32 0Z" id="p32w53" />
<path d="M311.69 255.9l19.51 0l0 14.52l-19.51 0Z" id="p32w54" />
<path d="M334.4 255.9l29.34 0l0 14.52l-29.34 0Z" id="p32w55" />
<path d="M366.95 255.9l6.41 0l0 14.52l-6.41 0Z" id="p32w56" />
<path d="M376.58 255.9l23.53 0l0 14.52l-23.53 0Z" id="p32w57" />
<path d="M143.75 272.57l36.63 0l0 14.52l-36.63 0Z" id="p32w58" />
<path d="M183.59 272.57l14.18 0l0 14.52l-14.18 0Z" id="p32w59" />
<path d="M200.97 272.57l35.29 0l0 14.52l-35.29 0Z" id="p32w60" />
<path d="M239.48 272.57l19.79 0l0 14.52l-19.79 0Z" id="p32w61" />
<path d="M262.47 272.57l25.13 0l0 14.52l-25.13 0Z" id="p32w62" />
<path d="M290.81 272.57l11.22 0l0 14.52l-11.22 0Z" id="p32w63" />
<path d="M305.24 272.57l19.79 0l0 14.52l-19.79 0Z" id="p32w64" />
<path d="M328.23 272.57l46.25 0l0 14.52l-46.25 0Z" id="p32w65" />
<path d="M377.69 272.57l14.18 0l0 14.52l-14.18 0Z" id="p32w66" />
<path d="M143.75 289.24l36.63 0l0 14.52l-36.63 0Z" id="p32w67" />
<path d="M183.59 289.24l14.18 0l0 14.52l-14.18 0Z" id="p32w68" />
<path d="M200.97 289.24l39.24 0l0 14.52l-39.24 0Z" id="p32w69" />
<path d="M243.42 289.24l53.99 0l0 14.52l-53.99 0Z" id="p32w70" />
<path d="M300.61 289.24l31.1 0l0 14.52l-31.1 0Z" id="p32w71" />
<path d="M334.92 289.24l14.18 0l0 14.52l-14.18 0Z" id="p32w72" />
<path d="M352.3 289.24l44.39 0l0 14.52l-44.39 0Z" id="p32w73" />
<path d="M399.9 289.24l6.41 0l0 14.52l-6.41 0Z" id="p32w74" />
<path d="M409.52 289.24l18.7 0l0 14.52l-18.7 0Z" id="p32w75" />
<path d="M143.75 305.91l36.63 0l0 14.52l-36.63 0Z" id="p32w76" />
<path d="M183.59 305.91l14.18 0l0 14.52l-14.18 0Z" id="p32w77" />
<path d="M200.97 305.91l24.33 0l0 14.52l-24.33 0Z" id="p32w78" />
<path d="M228.51 305.91l36.63 0l0 14.52l-36.63 0Z" id="p32w79" />
<path d="M268.34 305.91l29.66 0l0 14.52l-29.66 0Z" id="p32w80" />
<path d="M301.21 305.91l49.99 0l0 14.52l-49.99 0Z" id="p32w81" />
<path d="M354.4 305.91l47.53 0l0 14.52l-47.53 0Z" id="p32w82" />
<path d="M405.14 305.91l14.18 0l0 14.52l-14.18 0Z" id="p32w83" />
<path d="M422.52 305.91l25.4 0l0 14.52l-25.4 0Z" id="p32w84" />
<path d="M451.13 305.91l25.38 0l0 14.52l-25.38 0Z" id="p32w85" />
<path d="M143.75 330.92l42.53 0l0 14.52l-42.53 0Z" id="p32w86" />
<path d="M189.49 330.92l9.89 0l0 14.52l-9.89 0Z" id="p32w87" />
<path d="M202.58 330.92l49.99 0l0 14.52l-49.99 0Z" id="p32w88" />
<path d="M255.78 330.92l19.51 0l0 14.52l-19.51 0Z" id="p32w89" />
<path d="M278.49 330.92l28.06 0l0 14.52l-28.06 0Z" id="p32w90" />
<path d="M309.76 330.92l48.48 0l0 14.52l-48.48 0Z" id="p32w91" />
<path d="M143.75 397.62l38.58 0l0 14.52l-38.58 0Z" id="p32w92" />
<path d="M185.54 397.62l15.5 0l0 14.52l-15.5 0Z" id="p32w93" />
<path d="M204.25 397.62l54.98 0l0 14.52l-54.98 0Z" id="p32w94" />
<path d="M262.43 397.62l20.85 0l0 14.52l-20.85 0Z" id="p32w95" />
<path d="M286.49 397.62l39.29 0l0 14.52l-39.29 0Z" id="p32w96" />
<path d="M328.99 397.62l36.89 0l0 14.52l-36.89 0Z" id="p32w97" />
<path d="M378.98 397.62l43.58 0l0 14.52l-43.58 0Z" id="p32w98" />
<path d="M143.75 414.29l22.19 0l0 14.52l-22.19 0Z" id="p32w99" />
<path d="M169.15 414.29l41.43 0l0 14.52l-41.43 0Z" id="p32w100" />
<path d="M213.79 414.29l21.65 0l0 14.52l-21.65 0Z" id="p32w101" />
<path d="M238.64 414.29l15.5 0l0 14.52l-15.5 0Z" id="p32w102" />
<path d="M257.35 414.29l68.69 0l0 14.52l-68.69 0Z" id="p32w103" />
<path d="M329.24 414.29l52.48 0l0 14.52l-52.48 0Z" id="p32w104" />
<path d="M143.75 472.64l39.31 0l0 14.52l-39.31 0Z" id="p32w105" />
<path d="M186.27 472.64l64.94 0l0 14.52l-64.94 0Z" id="p32w106" />
<path d="M254.42 472.64l15.5 0l0 14.52l-15.5 0Z" id="p32w107" />
<path d="M273.12 472.64l28.06 0l0 14.52l-28.06 0Z" id="p32w108" />
<path d="M304.39 472.64l11.22 0l0 14.52l-11.22 0Z" id="p32w109" />
<path d="M318.82 472.64l43.29 0l0 14.52l-43.29 0Z" id="p32w110" />
<path d="M365.32 472.64l17.38 0l0 14.52l-17.38 0Z" id="p32w111" />
<path d="M385.91 472.64l81.27 0l0 14.52l-81.27 0Z" id="p32w112" />
<path d="M153.64 489.31l18.18 0l0 14.52l-18.18 0Z" id="p32w113" />
<path d="M175.02 489.31l71.37 0l0 14.52l-71.37 0Z" id="p32w114" />
<path d="M124.06 566.49l35.7 0l0 18.84l-35.7 0Z" id="p32w115" />
<path d="M163.41 566.49l66.15 0l0 18.84l-66.15 0Z" id="p32w116" />
<path d="M233.21 566.49l27.88 0l0 18.84l-27.88 0Z" id="p32w117" />
<path d="M264.74 566.49l15.94 0l0 18.84l-15.94 0Z" id="p32w118" />
<path d="M284.32 566.49l34.85 0l0 18.84l-34.85 0Z" id="p32w119" />
<path d="M124.06 597.69l59.34 0l0 14.52l-59.34 0Z" id="p32w120" />
<path d="M186.61 597.69l25.4 0l0 14.52l-25.4 0Z" id="p32w121" />
<path d="M215.22 597.69l15.5 0l0 14.52l-15.5 0Z" id="p32w122" />
<path d="M233.92 597.69l39.02 0l0 14.52l-39.02 0Z" id="p32w123" />
<path d="M276.14 597.69l14.18 0l0 14.52l-14.18 0Z" id="p32w124" />
<path d="M293.53 597.69l31.27 0l0 14.52l-31.27 0Z" id="p32w125" />
<path d="M328 597.62l31.52 0l0 14.6l-31.52 0Z" id="p32w126" />
<path d="M365.41 597.69l25.66 0l0 14.52l-25.66 0Z" id="p32w127" />
<path d="M394.28 597.69l37.14 0l0 14.52l-37.14 0Z" id="p32w128" />
<path d="M434.63 597.66l47.04 0l0 14.52l-47.04 0Z" id="p32w129" />
<path d="M484.88 597.69l25.4 0l0 14.52l-25.4 0Z" id="p32w130" />
<path d="M513.48 597.69l15.5 0l0 14.52l-15.5 0Z" id="p32w131" />
<path d="M532.18 597.69l43.29 0l0 14.52l-43.29 0Z" id="p32w132" />
<path d="M588.57 597.69l35.56 0l0 14.52l-35.56 0Z" id="p32w133" />
<path d="M124.06 614.36l22.73 0l0 14.52l-22.73 0Z" id="p32w134" />
<path d="M150 614.36l30.2 0l0 14.52l-30.2 0Z" id="p32w135" />
<path d="M183.41 614.36l15.5 0l0 14.52l-15.5 0Z" id="p32w136" />
<path d="M202.11 614.36l39.02 0l0 14.52l-39.02 0Z" id="p32w137" />
<path d="M244.33 614.36l19.52 0l0 14.52l-19.52 0Z" id="p32w138" />
<path d="M267.06 614.36l43.29 0l0 14.52l-43.29 0Z" id="p32w139" />
<path d="M319.98 614.36l25.67 0l0 14.52l-25.67 0Z" id="p32w140" />
<path d="M348.86 614.36l25.4 0l0 14.52l-25.4 0Z" id="p32w141" />
<path d="M377.46 614.36l25.92 0l0 14.52l-25.92 0Z" id="p32w142" />
<path d="M406.59 614.36l14.18 0l0 14.52l-14.18 0Z" id="p32w143" />
<path d="M423.98 614.36l41.17 0l0 14.52l-41.17 0Z" id="p32w144" />
<path d="M468.35 614.36l41.08 0l0 14.52l-41.08 0Z" id="p32w145" />
<path d="M522.52 614.36l22.2 0l0 14.52l-22.2 0Z" id="p32w146" />
<path d="M547.93 614.36l34.75 0l0 14.52l-34.75 0Z" id="p32w147" />
<path d="M124.06 639.37l10.43 0l0 14.52l-10.43 0Z" id="p32w148" />
<path d="M160.99 639.37l11.5 0l0 14.52l-11.5 0Z" id="p32w149" />
<path d="M124.06 656.04l31.28 0l0 14.52l-31.28 0Z" id="p32w150" />
<path d="M124.06 672.72l28.07 0l0 14.52l-28.07 0Z" id="p32w151" />
<path d="M124.05 689.39l26.21 0l0 14.52l-26.21 0Z" id="p32w152" />
<path d="M124.06 706.06l18.44 0l0 14.52l-18.44 0Z" id="p32w153" />
<path d="M145.7 706.06l63.87 0l0 14.52l-63.87 0Z" id="p32w154" />
<path d="M212.78 706.06l49.1 0l0 14.52l-49.1 0Z" id="p32w155" />
<path d="M265.09 706.06l28.6 0l0 14.52l-28.6 0Z" id="p32w156" />
<path d="M124.07 722.73l29.94 0l0 14.52l-29.94 0Z" id="p32w157" />
<path d="M157.21 722.73l42.78 0l0 14.52l-42.78 0Z" id="p32w158" />
<path d="M203.2 722.73l13.9 0l0 14.52l-13.9 0Z" id="p32w159" />
<path d="M220.3 722.73l15.5 0l0 14.52l-15.5 0Z" id="p32w160" />
<path d="M239.01 722.73l18.72 0l0 14.52l-18.72 0Z" id="p32w161" />
<path d="M260.93 722.73l19.51 0l0 14.52l-19.51 0Z" id="p32w162" />
<path d="M371.79 639.37l20.85 0l0 14.52l-20.85 0Z" id="p32w163" />
<path d="M395.85 639.37l33.16 0l0 14.52l-33.16 0Z" id="p32w164" />
<path d="M432.22 639.37l20.04 0l0 14.52l-20.04 0Z" id="p32w165" />
<path d="M455.46 639.37l42.77 0l0 14.52l-42.77 0Z" id="p32w166" />
<path d="M371.79 656.04l20.85 0l0 14.52l-20.85 0Z" id="p32w167" />
<path d="M395.85 656.04l15.5 0l0 14.52l-15.5 0Z" id="p32w168" />
<path d="M414.56 656.04l61.19 0l0 14.52l-61.19 0Z" id="p32w169" />
<path d="M478.96 656.04l18.72 0l0 14.52l-18.72 0Z" id="p32w170" />
<path d="M500.88 656.04l19.51 0l0 14.52l-19.51 0Z" id="p32w171" />
<path d="M523.6 656.04l31.01 0l0 14.52l-31.01 0Z" id="p32w172" />
<path d="M557.81 656.04l55.08 0l0 14.52l-55.08 0Z" id="p32w173" />
<path d="M371.79 672.71l35.29 0l0 14.52l-35.29 0Z" id="p32w174" />
<path d="M410.29 672.71l12.02 0l0 14.52l-12.02 0Z" id="p32w175" />
<path d="M425.53 672.71l18.72 0l0 14.52l-18.72 0Z" id="p32w176" />
<path d="M447.45 672.71l14.97 0l0 14.52l-14.97 0Z" id="p32w177" />
<path d="M465.62 672.71l28.6 0l0 14.52l-28.6 0Z" id="p32w178" />
<path d="M497.43 672.71l41.42 0l0 14.52l-41.42 0Z" id="p32w179" />
<path d="M542.06 672.71l28.07 0l0 14.52l-28.07 0Z" id="p32w180" />
<path d="M573.34 672.71l26.73 0l0 14.52l-26.73 0Z" id="p32w181" />
<path d="M603.28 672.71l9.89 0l0 14.52l-9.89 0Z" id="p32w182" />
<path d="M616.37 672.71l20.85 0l0 14.52l-20.85 0Z" id="p32w183" />
<path d="M371.79 689.39l20.85 0l0 14.52l-20.85 0Z" id="p32w184" />
<path d="M395.85 689.39l12.57 0l0 14.52l-12.57 0Z" id="p32w185" />
<path d="M411.63 689.39l12.66 0l0 14.52l-12.66 0Z" id="p32w186" />
<path d="M427.49 689.39l22.44 0l0 14.52l-22.44 0Z" id="p32w187" />
<path d="M453.14 689.39l9.89 0l0 14.52l-9.89 0Z" id="p32w188" />
<path d="M466.23 689.39l26.46 0l0 14.52l-26.46 0Z" id="p32w189" />
<path d="M371.79 706.06l28.6 0l0 14.52l-28.6 0Z" id="p32w190" />
<path d="M403.6 706.06l18.72 0l0 14.52l-18.72 0Z" id="p32w191" />
<path d="M425.53 706.06l20.85 0l0 14.52l-20.85 0Z" id="p32w192" />
<path d="M449.59 706.06l39.57 0l0 14.52l-39.57 0Z" id="p32w193" />
<path d="M492.37 706.06l13.63 0l0 14.52l-13.63 0Z" id="p32w194" />
<path d="M509.21 706.06l40.3 0l0 14.52l-40.3 0Z" id="p32w195" />
<path d="M552.71 706.06l13.9 0l0 14.52l-13.9 0Z" id="p32w196" />
<path d="M569.82 706.06l9.89 0l0 14.52l-9.89 0Z" id="p32w197" />
<path d="M582.91 706.06l29.67 0l0 14.52l-29.67 0Z" id="p32w198" />
<path d="M615.79 706.06l19.51 0l0 14.52l-19.51 0Z" id="p32w199" />
<path d="M638.51 706.06l27.53 0l0 14.52l-27.53 0Z" id="p32w200" />
<path d="M371.79 722.73l20.85 0l0 14.52l-20.85 0Z" id="p32w201" />
<path d="M395.85 722.73l40.9 0l0 14.52l-40.9 0Z" id="p32w202" />
<path d="M439.97 722.73l13.9 0l0 14.52l-13.9 0Z" id="p32w203" />
<path d="M457.07 722.73l41.43 0l0 14.52l-41.43 0Z" id="p32w204" />
<path d="M501.71 722.73l22.19 0l0 14.52l-22.19 0Z" id="p32w205" />
<path d="M124.06 766.56l106.92 0l0 18.84l-106.92 0Z" id="p32w206" />
<path d="M234.82 766.56l27.24 0l0 18.84l-27.24 0Z" id="p32w207" />
<path d="M265.72 766.56l35.45 0l0 18.84l-35.45 0Z" id="p32w208" />
<path d="M304.82 766.56l26.19 0l0 18.84l-26.19 0Z" id="p32w209" />
<path d="M334.67 766.56l18.36 0l0 18.84l-18.36 0Z" id="p32w210" />
<path d="M356.67 766.56l50.61 0l0 18.84l-50.61 0Z" id="p32w211" />
<path d="M143.75 797.76l27.53 0l0 14.52l-27.53 0Z" id="p32w212" />
<path d="M174.5 797.76l15.5 0l0 14.52l-15.5 0Z" id="p32w213" />
<path d="M193.2 797.76l43.29 0l0 14.52l-43.29 0Z" id="p32w214" />
<path d="M239.7 797.76l52.48 0l0 14.52l-52.48 0Z" id="p32w215" />
<path d="M295.39 797.76l11.22 0l0 14.52l-11.22 0Z" id="p32w216" />
<path d="M309.82 797.76l27.26 0l0 14.52l-27.26 0Z" id="p32w217" />
<path d="M340.28 797.76l33.95 0l0 14.52l-33.95 0Z" id="p32w218" />
<path d="M377.44 797.76l16.83 0l0 14.52l-16.83 0Z" id="p32w219" />
<path d="M397.47 797.76l9.89 0l0 14.52l-9.89 0Z" id="p32w220" />
<path d="M410.57 797.76l46.26 0l0 14.52l-46.26 0Z" id="p32w221" />
<path d="M460.04 797.76l19.51 0l0 14.52l-19.51 0Z" id="p32w222" />
<path d="M482.75 797.76l28.06 0l0 14.52l-28.06 0Z" id="p32w223" />
<path d="M514.02 797.76l13.9 0l0 14.52l-13.9 0Z" id="p32w224" />
<path d="M531.13 797.76l26.4 0l0 14.52l-26.4 0Z" id="p32w225" />
<path d="M143.75 822.78l18.44 0l0 14.52l-18.44 0Z" id="p32w226" />
<path d="M165.4 822.78l24.59 0l0 14.52l-24.59 0Z" id="p32w227" />
<path d="M193.2 822.78l42.78 0l0 14.52l-42.78 0Z" id="p32w228" />
<path d="M239.19 822.78l24.33 0l0 14.52l-24.33 0Z" id="p32w229" />
<path d="M266.72 822.71l57.83 0l0 14.6l-57.83 0Z" id="p32w230" />
<path d="M391.48 822.78l18.44 0l0 14.52l-18.44 0Z" id="p32w231" />
<path d="M413.13 822.78l24.59 0l0 14.52l-24.59 0Z" id="p32w232" />
<path d="M440.92 822.78l42.78 0l0 14.52l-42.78 0Z" id="p32w233" />
<path d="M486.91 822.78l48.11 0l0 14.52l-48.11 0Z" id="p32w234" />
<path d="M538.23 822.71l93.58 0l0 14.6l-93.58 0Z" id="p32w235" />
<path d="M635.02 822.78l17.11 0l0 14.52l-17.11 0Z" id="p32w236" />
<path d="M655.33 822.78l34.75 0l0 14.52l-34.75 0Z" id="p32w237" />
<path d="M143.75 847.79l52.14 0l0 14.52l-52.14 0Z" id="p32w238" />
<path d="M199.1 847.79l15.5 0l0 14.52l-15.5 0Z" id="p32w239" />
<path d="M217.8 847.79l26.74 0l0 14.52l-26.74 0Z" id="p32w240" />
<path d="M247.75 847.79l43.29 0l0 14.52l-43.29 0Z" id="p32w241" />
<path d="M300.67 847.79l49.1 0l0 14.52l-49.1 0Z" id="p32w242" />
<path d="M352.98 847.79l17.38 0l0 14.52l-17.38 0Z" id="p32w243" />
<path d="M373.57 847.79l16.83 0l0 14.52l-16.83 0Z" id="p32w244" />
<path d="M393.6 847.79l48.38 0l0 14.52l-48.38 0Z" id="p32w245" />
<path d="M445.19 847.79l13.9 0l0 14.52l-13.9 0Z" id="p32w246" />
<path d="M462.29 847.79l51.85 0l0 14.52l-51.85 0Z" id="p32w247" />
<path d="M143.75 872.8l51.89 0l0 14.52l-51.89 0Z" id="p32w248" />
<path d="M198.85 872.8l18.18 0l0 14.52l-18.18 0Z" id="p32w249" />
<path d="M220.23 872.8l50.78 0l0 14.52l-50.78 0Z" id="p32w250" />
<path d="M274.22 872.8l14.18 0l0 14.52l-14.18 0Z" id="p32w251" />
<path d="M291.6 872.8l28.33 0l0 14.52l-28.33 0Z" id="p32w252" />
<path d="M329.55 872.8l53.19 0l0 14.52l-53.19 0Z" id="p32w253" />
<path d="M385.95 872.8l33.05 0l0 14.52l-33.05 0Z" id="p32w254" />
<path d="M422.21 872.8l30.23 0l0 14.52l-30.23 0Z" id="p32w255" />
<path d="M455.64 872.8l15.5 0l0 14.52l-15.5 0Z" id="p32w256" />
<path d="M474.34 872.8l33.41 0l0 14.52l-33.41 0Z" id="p32w257" />
<path d="M518.89 872.8l42.53 0l0 14.52l-42.53 0Z" id="p32w258" />
<path d="M564.63 872.8l9.89 0l0 14.52l-9.89 0Z" id="p32w259" />
<path d="M577.72 872.8l30.94 0l0 14.52l-30.94 0Z" id="p32w260" />
<path d="M395.35 901.17l73.23 0l0 14.52l-73.23 0Z" id="p32w261" />
<path d="M148.68 901.17l80.71 0l0 14.52l-80.71 0Z" id="p32w262" />
<path d="M285.79 901.17l53.18 0l0 14.52l-53.18 0Z" id="p32w263" />
<path d="M524.1 901.17l75.35 0l0 14.52l-75.35 0Z" id="p32w264" />
<path d="M143.76 931.15l42.53 0l0 14.52l-42.53 0Z" id="p32w265" />
<path d="M189.5 931.15l26.73 0l0 14.52l-26.73 0Z" id="p32w266" />
<path d="M219.43 931.15l9.89 0l0 14.52l-9.89 0Z" id="p32w267" />
<path d="M232.52 931.15l64.08 0l0 14.52l-64.08 0Z" id="p32w268" />
<path d="M309.44 931.15l9.89 0l0 14.52l-9.89 0Z" id="p32w269" />
<path d="M322.53 931.15l33.41 0l0 14.52l-33.41 0Z" id="p32w270" />
<path d="M359.15 931.15l17.38 0l0 14.52l-17.38 0Z" id="p32w271" />
<path d="M379.74 931.15l13.9 0l0 14.52l-13.9 0Z" id="p32w272" />
<path d="M396.84 931.15l62.83 0l0 14.52l-62.83 0Z" id="p32w273" />
<path d="M462.88 931.15l19.51 0l0 14.52l-19.51 0Z" id="p32w274" />
<path d="M495.48 931.15l9.89 0l0 14.52l-9.89 0Z" id="p32w275" />
<path d="M508.58 931.15l30.94 0l0 14.52l-30.94 0Z" id="p32w276" />
<path d="M60.68 165.97l27.93 0l0 12.29l-27.93 0Z" id="p32w277" />
<path d="M149.17 359.35l75.12 0l0 14.52l-75.12 0Z" id="p32w278" />
<path d="M249.89 359.35l28.88 0l0 14.52l-28.88 0Z" id="p32w279" />
<path d="M304.37 359.35l24.33 0l0 14.52l-24.33 0Z" id="p32w280" />
<path d="M354.29 359.35l65.76 0l0 14.52l-65.76 0Z" id="p32w281" />
<path d="M585.33 386.04l28.34 0l0 12.56l-28.34 0Z" id="p32w282" />
<path d="M616.01 386.04l27.98 0l0 12.56l-27.98 0Z" id="p32w283" />
<path d="M646.69 386.04l31.49 0l0 12.56l-31.49 0Z" id="p32w284" />
<path d="M542.85 414.19l18.18 0l0 14.52l-18.18 0Z" id="p32w285" />
<path d="M564.23 414.19l73.44 0l0 14.52l-73.44 0Z" id="p32w286" />
<path d="M640.88 414.19l13.36 0l0 14.52l-13.36 0Z" id="p32w287" />
<path d="M657.45 414.19l28.07 0l0 14.52l-28.07 0Z" id="p32w288" />
<path d="M542.85 430.86l36.34 0l0 14.52l-36.34 0Z" id="p32w289" />
<path d="M582.4 430.86l30.74 0l0 14.52l-30.74 0Z" id="p32w290" />
<path d="M616.34 430.86l12.84 0l0 14.52l-12.84 0Z" id="p32w291" />
<path d="M632.4 430.86l56.94 0l0 14.52l-56.94 0Z" id="p32w292" />
<path d="M542.85 447.53l22.98 0l0 14.52l-22.98 0Z" id="p32w293" />
<path d="M569.04 447.53l17.11 0l0 14.52l-17.11 0Z" id="p32w294" />
<path d="M589.35 447.53l73.47 0l0 14.52l-73.47 0Z" id="p32w295" />
<path d="M542.85 464.2l21.38 0l0 14.52l-21.38 0Z" id="p32w296" />
<path d="M567.44 464.2l19.01 0l0 14.52l-19.01 0Z" id="p32w297" />
<path d="M589.66 464.2l13.91 0l0 14.52l-13.91 0Z" id="p32w298" />
<path d="M606.78 464.2l32.09 0l0 14.52l-32.09 0Z" id="p32w299" />
<path d="M642.07 464.2l14.97 0l0 14.52l-14.97 0Z" id="p32w300" />
<path d="M542.85 480.87l41.96 0l0 14.52l-41.96 0Z" id="p32w301" />
<path d="M588.02 480.87l75.92 0l0 14.52l-75.92 0Z" id="p32w302" />
<path d="M667.15 480.87l22.08 0l0 14.52l-22.08 0Z" id="p32w303" />
<path d="M542.85 497.54l15.5 0l0 14.52l-15.5 0Z" id="p32w304" />
<path d="M561.55 497.54l55.87 0l0 14.52l-55.87 0Z" id="p32w305" />
<path d="M149.17 442.71l14.7 0l0 14.52l-14.7 0Z" id="p32w306" />
<path d="M198.83 442.71l13.91 0l0 14.52l-13.91 0Z" id="p32w307" />
<path d="M246.63 442.71l45.48 0l0 14.52l-45.48 0Z" id="p32w308" />
<path d="M149.17 517.74l12.41 0l0 14.52l-12.41 0Z" id="p32w309" />
<path d="M164.78 517.74l14.8 0l0 14.52l-14.8 0Z" id="p32w310" />
<path d="M224.42 517.74l22.81 0l0 14.52l-22.81 0Z" id="p32w311" />
<path d="M279.79 517.74l17.12 0l0 14.52l-17.12 0Z" id="p32w312" />
<path d="M329.46 517.74l17.91 0l0 14.52l-17.91 0Z" id="p32w313" />
<path d="M565.21 133.43l11.59 0l0 16.96l-11.59 0Z" id="p32w314" />
<path d="M581.21 133.43l24.89 0l0 16.96l-24.89 0Z" id="p32w315" />
<path d="M610.75 133.43l14.39 0l0 16.96l-14.39 0Z" id="p32w316" />
<path d="M560.3 150.1l11.59 0l0 16.96l-11.59 0Z" id="p32w317" />
<path d="M576.54 150.1l53.52 0l0 16.96l-53.52 0Z" id="p32w318" />
<path d="M124.06 39.02l42.02 0l0 15.38l-42.02 0Z" id="p32w319" />
<path d="M208.73 38.6l45.75 0l0 16.09l-45.75 0Z" id="p32w320" />
<path d="M307.2 39.02l43.21 0l0 15.38l-43.21 0Z" id="p32w321" />
<path d="M414.72 39.02l28.68 0l0 15.38l-28.68 0Z" id="p32w322" />
<path d="M446.78 39.02l44.38 0l0 15.38l-44.38 0Z" id="p32w323" />
<path d="M524.22 39.02l32.54 0l0 15.38l-32.54 0Z" id="p32w324" />
<path d="M76.9 983l28.8 0l0 12.23l-28.8 0Z" id="p32w325" />
</svg>
