<?xml version="1.0" encoding="UTF-8"?>
<svg xmlns="http://www.w3.org/2000/svg" xmlns:xlink="http://www.w3.org/1999/xlink" version="1.1" baseProfile="full" width="768" height="1024" viewBox="0,0,768,1024" preserveAspectRatio="xMinYMin meet" >
<style type="text/css">
<![CDATA[
path {fill-opacity: 0.5;fill: #00aeef;visibility: hidden;}
]]>
</style>
<path d="M124.09 641.51l34.63 0l0 18.84l-34.63 0Z" id="p36w1" />
<path d="M162.37 641.51l89.43 0l0 18.84l-89.43 0Z" id="p36w2" />
<path d="M255.45 641.51l13.62 0l0 18.84l-13.62 0Z" id="p36w3" />
<path d="M272.72 641.51l38.39 0l0 18.84l-38.39 0Z" id="p36w4" />
<path d="M124.09 672.72l28.33 0l0 14.52l-28.33 0Z" id="p36w5" />
<path d="M155.62 672.72l25.4 0l0 14.52l-25.4 0Z" id="p36w6" />
<path d="M184.23 672.72l18.72 0l0 14.52l-18.72 0Z" id="p36w7" />
<path d="M206.15 672.72l42.5 0l0 14.52l-42.5 0Z" id="p36w8" />
<path d="M251.86 672.72l28.06 0l0 14.52l-28.06 0Z" id="p36w9" />
<path d="M283.13 672.72l12.57 0l0 14.52l-12.57 0Z" id="p36w10" />
<path d="M298.9 672.72l20.85 0l0 14.52l-20.85 0Z" id="p36w11" />
<path d="M322.96 672.72l24.33 0l0 14.52l-24.33 0Z" id="p36w12" />
<path d="M350.5 672.72l15.5 0l0 14.52l-15.5 0Z" id="p36w13" />
<path d="M369.2 672.72l48.39 0l0 14.52l-48.39 0Z" id="p36w14" />
<path d="M420.8 672.72l14.18 0l0 14.52l-14.18 0Z" id="p36w15" />
<path d="M438.18 672.72l63.88 0l0 14.52l-63.88 0Z" id="p36w16" />
<path d="M143.78 706.06l20.58 0l0 14.52l-20.58 0Z" id="p36w17" />
<path d="M167.57 706.06l46.5 0l0 14.52l-46.5 0Z" id="p36w18" />
<path d="M217.28 706.06l40.09 0l0 14.52l-40.09 0Z" id="p36w19" />
<path d="M260.57 706.06l19.51 0l0 14.52l-19.51 0Z" id="p36w20" />
<path d="M283.28 706.06l25.94 0l0 14.52l-25.94 0Z" id="p36w21" />
<path d="M312.43 706.06l28.6 0l0 14.52l-28.6 0Z" id="p36w22" />
<path d="M344.24 706.06l43.83 0l0 14.52l-43.83 0Z" id="p36w23" />
<path d="M391.28 706.06l28.33 0l0 14.52l-28.33 0Z" id="p36w24" />
<path d="M422.81 706.06l13.91 0l0 14.52l-13.91 0Z" id="p36w25" />
<path d="M439.93 706.06l12.02 0l0 14.52l-12.02 0Z" id="p36w26" />
<path d="M455.17 706.06l12.29 0l0 14.52l-12.29 0Z" id="p36w27" />
<path d="M470.66 706.06l50 0l0 14.52l-50 0Z" id="p36w28" />
<path d="M523.87 706.06l30.74 0l0 14.52l-30.74 0Z" id="p36w29" />
<path d="M554.61 706.06l12.57 0l0 14.52l-12.57 0Z" id="p36w30" />
<path d="M570.38 706.06l28.87 0l0 14.52l-28.87 0Z" id="p36w31" />
<path d="M602.46 706.06l47.58 0l0 14.52l-47.58 0Z" id="p36w32" />
<path d="M143.78 731.07l29.42 0l0 14.52l-29.42 0Z" id="p36w33" />
<path d="M176.41 731.07l14.18 0l0 14.52l-14.18 0Z" id="p36w34" />
<path d="M202.89 731.07l16.83 0l0 14.52l-16.83 0Z" id="p36w35" />
<path d="M229.34 731.07l83.3 0l0 14.52l-83.3 0Z" id="p36w36" />
<path d="M315.49 731.07l12.41 0l0 14.52l-12.41 0Z" id="p36w37" />
<path d="M331.11 731.07l12.29 0l0 14.52l-12.29 0Z" id="p36w38" />
<path d="M346.6 731.07l9.89 0l0 14.52l-9.89 0Z" id="p36w39" />
<path d="M359.7 731.07l43.04 0l0 14.52l-43.04 0Z" id="p36w40" />
<path d="M405.94 731.07l14.18 0l0 14.52l-14.18 0Z" id="p36w41" />
<path d="M423.33 731.07l51.04 0l0 14.52l-51.04 0Z" id="p36w42" />
<path d="M143.78 747.74l53.01 0l0 14.52l-53.01 0Z" id="p36w43" />
<path d="M200 747.74l49.71 0l0 14.52l-49.71 0Z" id="p36w44" />
<path d="M252.91 747.74l44.1 0l0 14.52l-44.1 0Z" id="p36w45" />
<path d="M300.22 747.74l20.85 0l0 14.52l-20.85 0Z" id="p36w46" />
<path d="M324.28 747.74l32.89 0l0 14.52l-32.89 0Z" id="p36w47" />
<path d="M360.38 747.74l13.9 0l0 14.52l-13.9 0Z" id="p36w48" />
<path d="M377.49 747.74l9.89 0l0 14.52l-9.89 0Z" id="p36w49" />
<path d="M390.58 747.74l25.38 0l0 14.52l-25.38 0Z" id="p36w50" />
<path d="M419.17 747.74l13.91 0l0 14.52l-13.91 0Z" id="p36w51" />
<path d="M436.29 747.74l9.89 0l0 14.52l-9.89 0Z" id="p36w52" />
<path d="M449.39 747.74l34.75 0l0 14.52l-34.75 0Z" id="p36w53" />
<path d="M487.08 747.74l41.42 0l0 14.52l-41.42 0Z" id="p36w54" />
<path d="M153.67 764.41l38.69 0l0 14.52l-38.69 0Z" id="p36w55" />
<path d="M195.56 764.41l25.4 0l0 14.52l-25.4 0Z" id="p36w56" />
<path d="M224.17 764.41l9.89 0l0 14.52l-9.89 0Z" id="p36w57" />
<path d="M237.26 764.41l52.92 0l0 14.52l-52.92 0Z" id="p36w58" />
<path d="M293.38 764.41l46.51 0l0 14.52l-46.51 0Z" id="p36w59" />
<path d="M143.78 781.08l54.53 0l0 14.52l-54.53 0Z" id="p36w60" />
<path d="M201.52 781.08l33.05 0l0 14.52l-33.05 0Z" id="p36w61" />
<path d="M237.77 781.08l22.99 0l0 14.52l-22.99 0Z" id="p36w62" />
<path d="M263.97 781.08l48.47 0l0 14.52l-48.47 0Z" id="p36w63" />
<path d="M315.65 781.08l26.2 0l0 14.52l-26.2 0Z" id="p36w64" />
<path d="M345.06 781.08l17.11 0l0 14.52l-17.11 0Z" id="p36w65" />
<path d="M365.37 781.08l35.8 0l0 14.52l-35.8 0Z" id="p36w66" />
<path d="M404.38 781.08l55.05 0l0 14.52l-55.05 0Z" id="p36w67" />
<path d="M462.64 781.08l17.38 0l0 14.52l-17.38 0Z" id="p36w68" />
<path d="M493.11 781.08l18.7 0l0 14.52l-18.7 0Z" id="p36w69" />
<path d="M515.03 781.08l19.51 0l0 14.52l-19.51 0Z" id="p36w70" />
<path d="M537.74 781.08l47.57 0l0 14.52l-47.57 0Z" id="p36w71" />
<path d="M143.78 797.76l13.9 0l0 14.52l-13.9 0Z" id="p36w72" />
<path d="M160.89 797.76l26.66 0l0 14.52l-26.66 0Z" id="p36w73" />
<path d="M190.76 797.76l46.5 0l0 14.52l-46.5 0Z" id="p36w74" />
<path d="M143.78 814.43l12.41 0l0 14.52l-12.41 0Z" id="p36w75" />
<path d="M159.4 814.43l12.29 0l0 14.52l-12.29 0Z" id="p36w76" />
<path d="M174.89 814.43l46.51 0l0 14.52l-46.51 0Z" id="p36w77" />
<path d="M232.9 814.43l10.43 0l0 14.52l-10.43 0Z" id="p36w78" />
<path d="M246.54 814.43l25.94 0l0 14.52l-25.94 0Z" id="p36w79" />
<path d="M275.68 814.43l22.99 0l0 14.52l-22.99 0Z" id="p36w80" />
<path d="M301.88 814.43l26.74 0l0 14.52l-26.74 0Z" id="p36w81" />
<path d="M331.83 814.43l22.45 0l0 14.52l-22.45 0Z" id="p36w82" />
<path d="M357.49 814.43l58.53 0l0 14.52l-58.53 0Z" id="p36w83" />
<path d="M419.22 814.43l26.74 0l0 14.52l-26.74 0Z" id="p36w84" />
<path d="M449.17 814.43l31.01 0l0 14.52l-31.01 0Z" id="p36w85" />
<path d="M483.39 814.43l25.67 0l0 14.52l-25.67 0Z" id="p36w86" />
<path d="M512.27 814.43l56.66 0l0 14.52l-56.66 0Z" id="p36w87" />
<path d="M572.14 814.43l29.94 0l0 14.52l-29.94 0Z" id="p36w88" />
<path d="M605.28 814.43l47.58 0l0 14.52l-47.58 0Z" id="p36w89" />
<path d="M143.78 831.1l12.41 0l0 14.52l-12.41 0Z" id="p36w90" />
<path d="M159.4 831.1l12.29 0l0 14.52l-12.29 0Z" id="p36w91" />
<path d="M174.89 831.1l28.06 0l0 14.52l-28.06 0Z" id="p36w92" />
<path d="M206.16 831.1l19.77 0l0 14.52l-19.77 0Z" id="p36w93" />
<path d="M229.14 831.1l16.83 0l0 14.52l-16.83 0Z" id="p36w94" />
<path d="M249.18 831.1l42.49 0l0 14.52l-42.49 0Z" id="p36w95" />
<path d="M303.16 831.1l27.81 0l0 14.52l-27.81 0Z" id="p36w96" />
<path d="M334.18 831.1l14.18 0l0 14.52l-14.18 0Z" id="p36w97" />
<path d="M351.57 831.1l25.4 0l0 14.52l-25.4 0Z" id="p36w98" />
<path d="M380.17 831.1l25.38 0l0 14.52l-25.38 0Z" id="p36w99" />
<path d="M408.76 831.1l14.18 0l0 14.52l-14.18 0Z" id="p36w100" />
<path d="M426.14 831.1l26.19 0l0 14.52l-26.19 0Z" id="p36w101" />
<path d="M455.54 831.1l35.28 0l0 14.52l-35.28 0Z" id="p36w102" />
<path d="M494.03 831.1l29.67 0l0 14.52l-29.67 0Z" id="p36w103" />
<path d="M143.78 847.77l6.96 0l0 14.52l-6.96 0Z" id="p36w104" />
<path d="M153.94 847.77l22.45 0l0 14.52l-22.45 0Z" id="p36w105" />
<path d="M179.6 847.77l20.58 0l0 14.52l-20.58 0Z" id="p36w106" />
<path d="M203.39 847.77l42.22 0l0 14.52l-42.22 0Z" id="p36w107" />
<path d="M248.82 847.77l27.8 0l0 14.52l-27.8 0Z" id="p36w108" />
<path d="M279.83 847.77l11.22 0l0 14.52l-11.22 0Z" id="p36w109" />
<path d="M294.25 847.77l13.37 0l0 14.52l-13.37 0Z" id="p36w110" />
<path d="M310.83 847.77l21.65 0l0 14.52l-21.65 0Z" id="p36w111" />
<path d="M335.69 847.77l30.23 0l0 14.52l-30.23 0Z" id="p36w112" />
<path d="M379.01 847.77l13.11 0l0 14.52l-13.11 0Z" id="p36w113" />
<path d="M395.32 847.77l13.91 0l0 14.52l-13.91 0Z" id="p36w114" />
<path d="M422.33 847.77l20.05 0l0 14.52l-20.05 0Z" id="p36w115" />
<path d="M445.58 847.77l19.79 0l0 14.52l-19.79 0Z" id="p36w116" />
<path d="M468.58 847.77l49.44 0l0 14.52l-49.44 0Z" id="p36w117" />
<path d="M521.23 847.77l49.97 0l0 14.52l-49.97 0Z" id="p36w118" />
<path d="M143.78 864.44l15.6 0l0 14.52l-15.6 0Z" id="p36w119" />
<path d="M162.59 864.44l40.1 0l0 14.52l-40.1 0Z" id="p36w120" />
<path d="M205.9 864.44l25.4 0l0 14.52l-25.4 0Z" id="p36w121" />
<path d="M234.5 864.44l29.94 0l0 14.52l-29.94 0Z" id="p36w122" />
<path d="M267.64 864.44l33.9 0l0 14.52l-33.9 0Z" id="p36w123" />
<path d="M304.75 864.44l6.96 0l0 14.52l-6.96 0Z" id="p36w124" />
<path d="M314.91 864.44l19.6 0l0 14.52l-19.6 0Z" id="p36w125" />
<path d="M337.72 864.44l47.06 0l0 14.52l-47.06 0Z" id="p36w126" />
<path d="M387.98 864.44l22.99 0l0 14.52l-22.99 0Z" id="p36w127" />
<path d="M433.16 864.44l44.9 0l0 14.52l-44.9 0Z" id="p36w128" />
<path d="M481.27 864.44l27.26 0l0 14.52l-27.26 0Z" id="p36w129" />
<path d="M511.74 864.44l53.19 0l0 14.52l-53.19 0Z" id="p36w130" />
<path d="M568.14 864.44l14.98 0l0 14.52l-14.98 0Z" id="p36w131" />
<path d="M143.78 881.11l46 0l0 14.52l-46 0Z" id="p36w132" />
<path d="M192.99 881.11l18.18 0l0 14.52l-18.18 0Z" id="p36w133" />
<path d="M214.37 881.11l45.43 0l0 14.52l-45.43 0Z" id="p36w134" />
<path d="M269.97 881.11l25.66 0l0 14.52l-25.66 0Z" id="p36w135" />
<path d="M298.83 881.11l13.9 0l0 14.52l-13.9 0Z" id="p36w136" />
<path d="M315.94 881.11l24.33 0l0 14.52l-24.33 0Z" id="p36w137" />
<path d="M343.47 881.11l49.71 0l0 14.52l-49.71 0Z" id="p36w138" />
<path d="M396.39 881.11l22.99 0l0 14.52l-22.99 0Z" id="p36w139" />
<path d="M432.48 881.11l9.89 0l0 14.52l-9.89 0Z" id="p36w140" />
<path d="M445.57 881.11l45.13 0l0 14.52l-45.13 0Z" id="p36w141" />
<path d="M154.74 906.12l29.42 0l0 14.52l-29.42 0Z" id="p36w142" />
<path d="M187.37 906.12l30.99 0l0 14.52l-30.99 0Z" id="p36w143" />
<path d="M221.56 906.12l26.74 0l0 14.52l-26.74 0Z" id="p36w144" />
<path d="M251.51 906.12l43.29 0l0 14.52l-43.29 0Z" id="p36w145" />
<path d="M298.02 906.12l17.11 0l0 14.52l-17.11 0Z" id="p36w146" />
<path d="M318.33 906.12l9.89 0l0 14.52l-9.89 0Z" id="p36w147" />
<path d="M331.42 906.12l41.7 0l0 14.52l-41.7 0Z" id="p36w148" />
<path d="M376.33 906.12l13.9 0l0 14.52l-13.9 0Z" id="p36w149" />
<path d="M410.28 906.12l15.51 0l0 14.52l-15.51 0Z" id="p36w150" />
<path d="M428.99 906.12l29.39 0l0 14.52l-29.39 0Z" id="p36w151" />
<path d="M461.59 906.12l49.17 0l0 14.52l-49.17 0Z" id="p36w152" />
<path d="M513.97 906.12l40.89 0l0 14.52l-40.89 0Z" id="p36w153" />
<path d="M558.07 906.12l12.29 0l0 14.52l-12.29 0Z" id="p36w154" />
<path d="M573.56 906.12l40.36 0l0 14.52l-40.36 0Z" id="p36w155" />
<path d="M143.78 922.79l9.89 0l0 14.52l-9.89 0Z" id="p36w156" />
<path d="M156.88 922.79l33.67 0l0 14.52l-33.67 0Z" id="p36w157" />
<path d="M193.76 922.79l37.16 0l0 14.52l-37.16 0Z" id="p36w158" />
<path d="M234.12 922.79l13.9 0l0 14.52l-13.9 0Z" id="p36w159" />
<path d="M251.23 922.79l24.06 0l0 14.52l-24.06 0Z" id="p36w160" />
<path d="M278.49 922.79l20.05 0l0 14.52l-20.05 0Z" id="p36w161" />
<path d="M301.75 922.79l6.41 0l0 14.52l-6.41 0Z" id="p36w162" />
<path d="M311.37 922.79l31.84 0l0 14.52l-31.84 0Z" id="p36w163" />
<path d="M73.57 646.64l15.07 0l0 12.29l-15.07 0Z" id="p36w164" />
<path d="M60.71 674.5l27.93 0l0 12.29l-27.93 0Z" id="p36w165" />
<path d="M56.21 707.91l18.1 0l0 12.3l-18.1 0Z" id="p36w166" />
<path d="M143.51 125.38l22.61 0l0 26.1l-22.61 0Z" id="p36w167" />
<path d="M172.37 125.38l52.71 0l0 26.1l-52.71 0Z" id="p36w168" />
<path d="M231.32 125.38l143.92 0l0 26.1l-143.92 0Z" id="p36w169" />
<path d="M143.51 305.92l12.78 0l0 14.52l-12.78 0Z" id="p36w170" />
<path d="M159.5 305.92l30.6 0l0 14.52l-30.6 0Z" id="p36w171" />
<path d="M193.3 305.92l13.85 0l0 14.52l-13.85 0Z" id="p36w172" />
<path d="M210.36 305.92l34.32 0l0 14.52l-34.32 0Z" id="p36w173" />
<path d="M247.88 305.92l41.3 0l0 14.52l-41.3 0Z" id="p36w174" />
<path d="M292.39 305.92l9.83 0l0 14.52l-9.83 0Z" id="p36w175" />
<path d="M305.43 305.92l33.54 0l0 14.52l-33.54 0Z" id="p36w176" />
<path d="M342.18 305.92l13.85 0l0 14.52l-13.85 0Z" id="p36w177" />
<path d="M359.23 305.92l11.8 0l0 14.52l-11.8 0Z" id="p36w178" />
<path d="M143.51 322.59l35.92 0l0 14.52l-35.92 0Z" id="p36w179" />
<path d="M182.64 322.59l13.05 0l0 14.52l-13.05 0Z" id="p36w180" />
<path d="M205.29 322.59l15.42 0l0 14.52l-15.42 0Z" id="p36w181" />
<path d="M223.91 322.59l46.26 0l0 14.52l-46.26 0Z" id="p36w182" />
<path d="M273.38 322.59l24.76 0l0 14.52l-24.76 0Z" id="p36w183" />
<path d="M301.35 322.59l46.62 0l0 14.52l-46.62 0Z" id="p36w184" />
<path d="M143.51 339.26l18.1 0l0 14.52l-18.1 0Z" id="p36w185" />
<path d="M164.82 339.26l26.64 0l0 14.52l-26.64 0Z" id="p36w186" />
<path d="M194.66 339.26l26.87 0l0 14.52l-26.87 0Z" id="p36w187" />
<path d="M224.74 339.26l41.8 0l0 14.52l-41.8 0Z" id="p36w188" />
<path d="M269.75 339.26l37.78 0l0 14.52l-37.78 0Z" id="p36w189" />
<path d="M310.74 339.26l9.83 0l0 14.52l-9.83 0Z" id="p36w190" />
<path d="M323.78 339.26l24.22 0l0 14.52l-24.22 0Z" id="p36w191" />
<path d="M351.21 339.26l17.05 0l0 14.52l-17.05 0Z" id="p36w192" />
<path d="M143.51 355.93l15.42 0l0 14.52l-15.42 0Z" id="p36w193" />
<path d="M162.14 355.93l34.33 0l0 14.52l-34.33 0Z" id="p36w194" />
<path d="M199.68 355.93l13.86 0l0 14.52l-13.86 0Z" id="p36w195" />
<path d="M226.6 355.93l23.43 0l0 14.52l-23.43 0Z" id="p36w196" />
<path d="M253.24 355.93l55.83 0l0 14.52l-55.83 0Z" id="p36w197" />
<path d="M312.28 355.93l37.88 0l0 14.52l-37.88 0Z" id="p36w198" />
<path d="M353.37 355.93l26.37 0l0 14.52l-26.37 0Z" id="p36w199" />
<path d="M143.51 372.6l27.93 0l0 14.52l-27.93 0Z" id="p36w200" />
<path d="M174.65 372.6l41.09 0l0 14.52l-41.09 0Z" id="p36w201" />
<path d="M218.95 372.6l42.3 0l0 14.52l-42.3 0Z" id="p36w202" />
<path d="M264.46 372.6l13.86 0l0 14.52l-13.86 0Z" id="p36w203" />
<path d="M281.53 372.6l48.98 0l0 14.52l-48.98 0Z" id="p36w204" />
<path d="M333.72 372.6l26.37 0l0 14.52l-26.37 0Z" id="p36w205" />
<path d="M143.51 389.27l13.86 0l0 14.52l-13.86 0Z" id="p36w206" />
<path d="M160.58 389.27l61.9 0l0 14.52l-61.9 0Z" id="p36w207" />
<path d="M225.69 389.27l51.91 0l0 14.52l-51.91 0Z" id="p36w208" />
<path d="M280.81 389.27l15.79 0l0 14.52l-15.79 0Z" id="p36w209" />
<path d="M299.81 389.27l9.83 0l0 14.52l-9.83 0Z" id="p36w210" />
<path d="M312.85 389.27l26.07 0l0 14.52l-26.07 0Z" id="p36w211" />
<path d="M342.12 389.27l34.84 0l0 14.52l-34.84 0Z" id="p36w212" />
<path d="M143.51 405.94l25.3 0l0 14.52l-25.3 0Z" id="p36w213" />
<path d="M172.02 405.94l14.12 0l0 14.52l-14.12 0Z" id="p36w214" />
<path d="M189.36 405.94l53.96 0l0 14.52l-53.96 0Z" id="p36w215" />
<path d="M246.52 405.94l38.03 0l0 14.52l-38.03 0Z" id="p36w216" />
<path d="M287.76 405.94l15.42 0l0 14.52l-15.42 0Z" id="p36w217" />
<path d="M306.38 405.94l46.29 0l0 14.52l-46.29 0Z" id="p36w218" />
<path d="M143.51 422.61l45.26 0l0 14.52l-45.26 0Z" id="p36w219" />
<path d="M191.98 422.61l27.67 0l0 14.52l-27.67 0Z" id="p36w220" />
<path d="M222.86 422.61l27.94 0l0 14.52l-27.94 0Z" id="p36w221" />
<path d="M254.01 422.61l41.3 0l0 14.52l-41.3 0Z" id="p36w222" />
<path d="M298.51 422.61l13.85 0l0 14.52l-13.85 0Z" id="p36w223" />
<path d="M315.57 422.61l25.82 0l0 14.52l-25.82 0Z" id="p36w224" />
<path d="M143.54 439.28l18.37 0l0 14.52l-18.37 0Z" id="p36w225" />
<path d="M161.94 439.28l61.98 0l0 14.52l-61.98 0Z" id="p36w226" />
<path d="M227.13 439.28l17.03 0l0 14.52l-17.03 0Z" id="p36w227" />
<path d="M247.37 439.28l15.42 0l0 14.52l-15.42 0Z" id="p36w228" />
<path d="M265.99 439.28l34.33 0l0 14.52l-34.33 0Z" id="p36w229" />
<path d="M312.32 439.28l11.17 0l0 14.52l-11.17 0Z" id="p36w230" />
<path d="M143.51 455.95l12.78 0l0 14.52l-12.78 0Z" id="p36w231" />
<path d="M159.5 455.95l33.54 0l0 14.52l-33.54 0Z" id="p36w232" />
<path d="M196.25 455.95l12.61 0l0 14.52l-12.61 0Z" id="p36w233" />
<path d="M212.06 455.95l27.93 0l0 14.52l-27.93 0Z" id="p36w234" />
<path d="M243.2 455.95l41.8 0l0 14.52l-41.8 0Z" id="p36w235" />
<path d="M288.21 455.95l33.75 0l0 14.52l-33.75 0Z" id="p36w236" />
<path d="M325.16 455.95l15.44 0l0 14.52l-15.44 0Z" id="p36w237" />
<path d="M143.51 472.62l52.64 0l0 14.52l-52.64 0Z" id="p36w238" />
<path d="M199.36 472.62l19.43 0l0 14.52l-19.43 0Z" id="p36w239" />
<path d="M222 472.62l26.85 0l0 14.52l-26.85 0Z" id="p36w240" />
<path d="M252.05 472.62l14.12 0l0 14.52l-14.12 0Z" id="p36w241" />
<path d="M269.38 472.62l37 0l0 14.52l-37 0Z" id="p36w242" />
<path d="M153.11 497.64l54.94 0l0 14.52l-54.94 0Z" id="p36w243" />
<path d="M211.25 497.64l47.56 0l0 14.52l-47.56 0Z" id="p36w244" />
<path d="M143.51 514.31l30.69 0l0 14.52l-30.69 0Z" id="p36w245" />
<path d="M177.41 514.31l26.89 0l0 14.52l-26.89 0Z" id="p36w246" />
<path d="M143.51 530.98l33.28 0l0 14.52l-33.28 0Z" id="p36w247" />
<path d="M186.39 530.98l69.06 0l0 14.52l-69.06 0Z" id="p36w248" />
<path d="M258.65 530.98l40.21 0l0 14.52l-40.21 0Z" id="p36w249" />
<path d="M445.79 125.38l22.47 0l0 26.1l-22.47 0Z" id="p36w250" />
<path d="M474.51 125.38l73.05 0l0 26.1l-73.05 0Z" id="p36w251" />
<path d="M553.81 125.38l24.05 0l0 26.1l-24.05 0Z" id="p36w252" />
<path d="M584.11 125.38l18.03 0l0 26.1l-18.03 0Z" id="p36w253" />
<path d="M608.38 125.38l52.33 0l0 26.1l-52.33 0Z" id="p36w254" />
<path d="M445.79 305.92l12.83 0l0 14.52l-12.83 0Z" id="p36w255" />
<path d="M461.83 305.92l51.04 0l0 14.52l-51.04 0Z" id="p36w256" />
<path d="M516.08 305.92l13.9 0l0 14.52l-13.9 0Z" id="p36w257" />
<path d="M533.18 305.92l9.89 0l0 14.52l-9.89 0Z" id="p36w258" />
<path d="M546.28 305.92l40.63 0l0 14.52l-40.63 0Z" id="p36w259" />
<path d="M590.11 305.92l13.9 0l0 14.52l-13.9 0Z" id="p36w260" />
<path d="M607.22 305.92l9.89 0l0 14.52l-9.89 0Z" id="p36w261" />
<path d="M620.31 305.92l30.75 0l0 14.52l-30.75 0Z" id="p36w262" />
<path d="M654.27 305.92l30.23 0l0 14.52l-30.23 0Z" id="p36w263" />
<path d="M445.79 322.59l40.89 0l0 14.52l-40.89 0Z" id="p36w264" />
<path d="M489.89 322.59l71.1 0l0 14.52l-71.1 0Z" id="p36w265" />
<path d="M564.2 322.59l9.89 0l0 14.52l-9.89 0Z" id="p36w266" />
<path d="M585.94 322.59l40.63 0l0 14.52l-40.63 0Z" id="p36w267" />
<path d="M629.78 322.59l32.35 0l0 14.52l-32.35 0Z" id="p36w268" />
<path d="M445.79 339.26l32.6 0l0 14.52l-32.6 0Z" id="p36w269" />
<path d="M481.6 339.26l36.89 0l0 14.52l-36.89 0Z" id="p36w270" />
<path d="M521.44 339.26l27.36 0l0 14.52l-27.36 0Z" id="p36w271" />
<path d="M445.79 355.93l46.51 0l0 14.52l-46.51 0Z" id="p36w272" />
<path d="M495.51 355.93l26.74 0l0 14.52l-26.74 0Z" id="p36w273" />
<path d="M525.46 355.93l29.69 0l0 14.52l-29.69 0Z" id="p36w274" />
<path d="M558.35 355.93l15.5 0l0 14.52l-15.5 0Z" id="p36w275" />
<path d="M577.06 355.93l46.5 0l0 14.52l-46.5 0Z" id="p36w276" />
<path d="M626.77 355.93l24.87 0l0 14.52l-24.87 0Z" id="p36w277" />
<path d="M445.79 372.6l41.99 0l0 14.52l-41.99 0Z" id="p36w278" />
<path d="M490.99 372.6l34.2 0l0 14.52l-34.2 0Z" id="p36w279" />
<path d="M528.39 372.6l26.73 0l0 14.52l-26.73 0Z" id="p36w280" />
<path d="M558.33 372.6l15.5 0l0 14.52l-15.5 0Z" id="p36w281" />
<path d="M577.03 372.6l40.1 0l0 14.52l-40.1 0Z" id="p36w282" />
<path d="M620.34 372.6l13.9 0l0 14.52l-13.9 0Z" id="p36w283" />
<path d="M637.45 372.6l30.75 0l0 14.52l-30.75 0Z" id="p36w284" />
<path d="M445.79 389.27l42.48 0l0 14.52l-42.48 0Z" id="p36w285" />
<path d="M501.36 389.27l19.51 0l0 14.52l-19.51 0Z" id="p36w286" />
<path d="M524.08 389.27l55.05 0l0 14.52l-55.05 0Z" id="p36w287" />
<path d="M582.34 389.27l11.22 0l0 14.52l-11.22 0Z" id="p36w288" />
<path d="M596.76 389.27l52.14 0l0 14.52l-52.14 0Z" id="p36w289" />
<path d="M652.11 389.27l25.92 0l0 14.52l-25.92 0Z" id="p36w290" />
<path d="M445.79 405.94l9.89 0l0 14.52l-9.89 0Z" id="p36w291" />
<path d="M458.88 405.94l39.03 0l0 14.52l-39.03 0Z" id="p36w292" />
<path d="M501.12 405.94l13.9 0l0 14.52l-13.9 0Z" id="p36w293" />
<path d="M518.23 405.94l9.89 0l0 14.52l-9.89 0Z" id="p36w294" />
<path d="M531.32 405.94l30.75 0l0 14.52l-30.75 0Z" id="p36w295" />
<path d="M445.79 422.61l31.53 0l0 14.52l-31.53 0Z" id="p36w296" />
<path d="M480.53 422.61l11.22 0l0 14.52l-11.22 0Z" id="p36w297" />
<path d="M494.96 422.61l38.16 0l0 14.52l-38.16 0Z" id="p36w298" />
<path d="M536.33 422.61l24.87 0l0 14.52l-24.87 0Z" id="p36w299" />
<path d="M564.4 422.61l28.06 0l0 14.52l-28.06 0Z" id="p36w300" />
<path d="M595.67 422.61l41.99 0l0 14.52l-41.99 0Z" id="p36w301" />
<path d="M640.86 422.61l21.83 0l0 14.52l-21.83 0ZM445.79 439.28l35.28 0l0 14.52l-35.28 0Z" id="p36w302" />
<path d="M494.17 439.28l14.18 0l0 14.52l-14.18 0Z" id="p36w303" />
<path d="M511.55 439.28l16.58 0l0 14.52l-16.58 0Z" id="p36w304" />
<path d="M531.34 439.28l13.9 0l0 14.52l-13.9 0Z" id="p36w305" />
<path d="M548.44 439.28l27.26 0l0 14.52l-27.26 0Z" id="p36w306" />
<path d="M578.91 439.28l13.91 0l0 14.52l-13.91 0Z" id="p36w307" />
<path d="M596.03 439.28l6.41 0l0 14.52l-6.41 0Z" id="p36w308" />
<path d="M605.65 439.28l22.45 0l0 14.52l-22.45 0Z" id="p36w309" />
<path d="M631.31 439.28l40.1 0l0 14.52l-40.1 0Z" id="p36w310" />
<path d="M445.79 455.95l9.89 0l0 14.52l-9.89 0Z" id="p36w311" />
<path d="M458.88 455.95l44.9 0l0 14.52l-44.9 0Z" id="p36w312" />
<path d="M507 455.95l20.85 0l0 14.52l-20.85 0Z" id="p36w313" />
<path d="M531.06 455.95l15.5 0l0 14.52l-15.5 0Z" id="p36w314" />
<path d="M549.76 455.95l76.2 0l0 14.52l-76.2 0Z" id="p36w315" />
<path d="M629.17 455.95l18.72 0l0 14.52l-18.72 0Z" id="p36w316" />
<path d="M445.79 472.62l39.03 0l0 14.52l-39.03 0Z" id="p36w317" />
<path d="M488.03 472.62l26.73 0l0 14.52l-26.73 0Z" id="p36w318" />
<path d="M517.97 472.62l9.89 0l0 14.52l-9.89 0Z" id="p36w319" />
<path d="M531.06 472.62l51.04 0l0 14.52l-51.04 0Z" id="p36w320" />
<path d="M601.61 472.62l28.96 0l0 14.52l-28.96 0Z" id="p36w321" />
<path d="M633.78 472.62l30.65 0l0 14.52l-30.65 0Z" id="p36w322" />
<path d="M445.79 489.29l50.45 0l0 14.52l-50.45 0Z" id="p36w323" />
<path d="M499.45 489.29l11.22 0l0 14.52l-11.22 0Z" id="p36w324" />
<path d="M513.87 489.29l19.51 0l0 14.52l-19.51 0Z" id="p36w325" />
<path d="M536.59 489.29l28.06 0l0 14.52l-28.06 0Z" id="p36w326" />
<path d="M567.86 489.29l11.22 0l0 14.52l-11.22 0Z" id="p36w327" />
<path d="M582.29 489.29l47.31 0l0 14.52l-47.31 0Z" id="p36w328" />
<path d="M632.8 489.29l14.18 0l0 14.52l-14.18 0Z" id="p36w329" />
<path d="M445.79 505.97l53.72 0l0 14.52l-53.72 0Z" id="p36w330" />
<path d="M502.72 505.97l12.02 0l0 14.52l-12.02 0Z" id="p36w331" />
<path d="M517.95 505.97l24.87 0l0 14.52l-24.87 0Z" id="p36w332" />
<path d="M546.03 505.97l25.38 0l0 14.52l-25.38 0Z" id="p36w333" />
<path d="M574.62 505.97l13.9 0l0 14.52l-13.9 0Z" id="p36w334" />
<path d="M591.72 505.97l9.89 0l0 14.52l-9.89 0Z" id="p36w335" />
<path d="M604.82 505.97l40.63 0l0 14.52l-40.63 0Z" id="p36w336" />
<path d="M648.65 505.97l13.9 0l0 14.52l-13.9 0Z" id="p36w337" />
<path d="M445.79 522.64l9.89 0l0 14.52l-9.89 0Z" id="p36w338" />
<path d="M458.88 522.64l28.34 0l0 14.52l-28.34 0Z" id="p36w339" />
<path d="M490.43 522.64l14.18 0l0 14.52l-14.18 0Z" id="p36w340" />
<path d="M507.81 522.64l61.47 0l0 14.52l-61.47 0Z" id="p36w341" />
<path d="M572.49 522.64l13.9 0l0 14.52l-13.9 0Z" id="p36w342" />
<path d="M589.6 522.64l50.26 0l0 14.52l-50.26 0Z" id="p36w343" />
<path d="M466.29 547.65l40.36 0l0 14.52l-40.36 0Z" id="p36w344" />
<path d="M509.86 547.65l14.18 0l0 14.52l-14.18 0Z" id="p36w345" />
<path d="M527.24 547.65l52.65 0l0 14.52l-52.65 0Z" id="p36w346" />
<path d="M583.1 547.65l47.95 0l0 14.52l-47.95 0Z" id="p36w347" />
<path d="M445.79 564.32l30.82 0l0 14.52l-30.82 0Z" id="p36w348" />
<path d="M479.82 564.32l26.99 0l0 14.52l-26.99 0Z" id="p36w349" />
<path d="M445.79 580.99l21.92 0l0 14.52l-21.92 0Z" id="p36w350" />
<path d="M487.76 580.99l40.63 0l0 14.52l-40.63 0Z" id="p36w351" />
<path d="M531.6 580.99l13.9 0l0 14.52l-13.9 0Z" id="p36w352" />
<path d="M548.71 580.99l31.55 0l0 14.52l-31.55 0Z" id="p36w353" />
<path d="M583.46 580.99l36.89 0l0 14.52l-36.89 0Z" id="p36w354" />
<path d="M124.06 39.02l42.71 0l0 15.38l-42.71 0Z" id="p36w355" />
<path d="M208.04 39.02l43.21 0l0 15.38l-43.21 0Z" id="p36w356" />
<path d="M307.2 38.6l45.06 0l0 16.09l-45.06 0Z" id="p36w357" />
<path d="M414.03 39.02l28.68 0l0 15.38l-28.68 0Z" id="p36w358" />
<path d="M446.08 39.02l45.07 0l0 15.38l-45.07 0Z" id="p36w359" />
<path d="M522.82 39.02l32.54 0l0 15.38l-32.54 0Z" id="p36w360" />
<path d="M76.9 983l62.71 0l0 12.23l-62.71 0Z" id="p36w361" />
</svg>
