<?xml version="1.0" encoding="UTF-8"?>
<svg xmlns="http://www.w3.org/2000/svg" xmlns:xlink="http://www.w3.org/1999/xlink" version="1.1" baseProfile="full" width="768" height="1024" viewBox="0,0,768,1024" preserveAspectRatio="xMinYMin meet" >
<style type="text/css">
<![CDATA[
path {fill-opacity: 0.5;fill: #00aeef;visibility: hidden;}
]]>
</style>
<path d="M124.06 107.98l27.54 0l0 18.84l-27.54 0Z" id="p69w1" />
<path d="M168.01 107.98l41.27 0l0 18.84l-41.27 0Z" id="p69w2" />
<path d="M225.68 107.98l48.6 0l0 18.84l-48.6 0Z" id="p69w3" />
<path d="M143.75 139.19l43.86 0l0 14.52l-43.86 0Z" id="p69w4" />
<path d="M190.82 139.19l20.85 0l0 14.52l-20.85 0Z" id="p69w5" />
<path d="M214.89 139.19l50.5 0l0 14.52l-50.5 0Z" id="p69w6" />
<path d="M268.59 139.19l20.05 0l0 14.52l-20.05 0Z" id="p69w7" />
<path d="M291.85 139.19l15.5 0l0 14.52l-15.5 0Z" id="p69w8" />
<path d="M310.55 139.19l47.57 0l0 14.52l-47.57 0Z" id="p69w9" />
<path d="M361.33 139.19l19.51 0l0 14.52l-19.51 0Z" id="p69w10" />
<path d="M384.05 139.19l57.73 0l0 14.52l-57.73 0Z" id="p69w11" />
<path d="M143.75 155.86l11.22 0l0 14.52l-11.22 0Z" id="p69w12" />
<path d="M158.18 155.86l27.26 0l0 14.52l-27.26 0Z" id="p69w13" />
<path d="M188.65 155.86l17.38 0l0 14.52l-17.38 0Z" id="p69w14" />
<path d="M209.24 155.86l31.01 0l0 14.52l-31.01 0Z" id="p69w15" />
<path d="M143.75 180.87l43.86 0l0 14.52l-43.86 0Z" id="p69w16" />
<path d="M190.82 180.87l15.5 0l0 14.52l-15.5 0Z" id="p69w17" />
<path d="M209.53 180.87l47.57 0l0 14.52l-47.57 0Z" id="p69w18" />
<path d="M260.3 180.87l20.85 0l0 14.52l-20.85 0Z" id="p69w19" />
<path d="M284.37 180.87l54.26 0l0 14.52l-54.26 0Z" id="p69w20" />
<path d="M341.84 180.87l20.05 0l0 14.52l-20.05 0Z" id="p69w21" />
<path d="M371.51 180.87l20.31 0l0 14.52l-20.31 0Z" id="p69w22" />
<path d="M395.03 180.87l13.91 0l0 14.52l-13.91 0Z" id="p69w23" />
<path d="M412.15 180.87l23.8 0l0 14.52l-23.8 0Z" id="p69w24" />
<path d="M143.75 205.88l12.83 0l0 14.52l-12.83 0Z" id="p69w25" />
<path d="M159.79 205.88l43.82 0l0 14.52l-43.82 0Z" id="p69w26" />
<path d="M206.82 205.88l65.96 0l0 14.52l-65.96 0Z" id="p69w27" />
<path d="M285.87 205.88l23.52 0l0 14.52l-23.52 0Z" id="p69w28" />
<path d="M312.6 205.88l49.99 0l0 14.52l-49.99 0Z" id="p69w29" />
<path d="M365.79 205.88l53.72 0l0 14.52l-53.72 0Z" id="p69w30" />
<path d="M422.72 205.88l52.12 0l0 14.52l-52.12 0Z" id="p69w31" />
<path d="M143.75 222.56l12.83 0l0 14.52l-12.83 0Z" id="p69w32" />
<path d="M159.79 222.56l43.82 0l0 14.52l-43.82 0Z" id="p69w33" />
<path d="M206.82 222.56l65.96 0l0 14.52l-65.96 0Z" id="p69w34" />
<path d="M275.99 222.56l32.07 0l0 14.52l-32.07 0Z" id="p69w35" />
<path d="M311.27 222.56l12.29 0l0 14.52l-12.29 0Z" id="p69w36" />
<path d="M326.76 222.56l18.72 0l0 14.52l-18.72 0Z" id="p69w37" />
<path d="M143.75 239.23l12.83 0l0 14.52l-12.83 0Z" id="p69w38" />
<path d="M159.79 239.23l54.26 0l0 14.52l-54.26 0Z" id="p69w39" />
<path d="M217.26 239.23l65.96 0l0 14.52l-65.96 0Z" id="p69w40" />
<path d="M286.43 239.23l16.83 0l0 14.52l-16.83 0Z" id="p69w41" />
<path d="M306.46 239.23l21.37 0l0 14.52l-21.37 0Z" id="p69w42" />
<path d="M331.04 239.23l60.11 0l0 14.52l-60.11 0Z" id="p69w43" />
<path d="M143.75 255.9l12.7 0l0 14.52l-12.7 0Z" id="p69w44" />
<path d="M159.66 255.9l53.73 0l0 14.52l-53.73 0Z" id="p69w45" />
<path d="M216.6 255.9l65.3 0l0 14.52l-65.3 0Z" id="p69w46" />
<path d="M285.11 255.9l36.31 0l0 14.52l-36.31 0Z" id="p69w47" />
<path d="M324.63 255.9l19.31 0l0 14.52l-19.31 0Z" id="p69w48" />
<path d="M347.14 255.9l25.05 0l0 14.52l-25.05 0Z" id="p69w49" />
<path d="M375.4 255.9l19.31 0l0 14.52l-19.31 0Z" id="p69w50" />
<path d="M397.92 255.9l43.11 0l0 14.52l-43.11 0Z" id="p69w51" />
<path d="M143.75 272.57l19.32 0l0 14.52l-19.32 0Z" id="p69w52" />
<path d="M166.29 272.57l50.16 0l0 14.52l-50.16 0Z" id="p69w53" />
<path d="M143.75 289.24l12.83 0l0 14.52l-12.83 0Z" id="p69w54" />
<path d="M159.79 289.24l52.11 0l0 14.52l-52.11 0Z" id="p69w55" />
<path d="M215.11 289.24l65.96 0l0 14.52l-65.96 0Z" id="p69w56" />
<path d="M294.16 289.24l13.63 0l0 14.52l-13.63 0Z" id="p69w57" />
<path d="M311 289.24l14.18 0l0 14.52l-14.18 0Z" id="p69w58" />
<path d="M328.39 289.24l22.45 0l0 14.52l-22.45 0Z" id="p69w59" />
<path d="M354.05 289.24l37.25 0l0 14.52l-37.25 0Z" id="p69w60" />
<path d="M143.75 305.91l12.83 0l0 14.52l-12.83 0Z" id="p69w61" />
<path d="M159.79 305.91l52.11 0l0 14.52l-52.11 0Z" id="p69w62" />
<path d="M215.11 305.91l65.96 0l0 14.52l-65.96 0Z" id="p69w63" />
<path d="M284.27 305.91l39.51 0l0 14.52l-39.51 0Z" id="p69w64" />
<path d="M326.99 305.91l45.46 0l0 14.52l-45.46 0Z" id="p69w65" />
<path d="M375.65 305.91l25.13 0l0 14.52l-25.13 0Z" id="p69w66" />
<path d="M124.06 349.74l43.22 0l0 18.84l-43.22 0Z" id="p69w67" />
<path d="M170.93 349.74l18.36 0l0 18.84l-18.36 0Z" id="p69w68" />
<path d="M192.94 349.74l45.57 0l0 18.84l-45.57 0Z" id="p69w69" />
<path d="M242.35 349.74l9.57 0l0 18.84l-9.57 0Z" id="p69w70" />
<path d="M255.57 349.74l30.88 0l0 18.84l-30.88 0Z" id="p69w71" />
<path d="M290.1 349.74l34.87 0l0 18.84l-34.87 0Z" id="p69w72" />
<path d="M328.62 349.74l13.62 0l0 18.84l-13.62 0Z" id="p69w73" />
<path d="M345.9 349.74l64.65 0l0 18.84l-64.65 0Z" id="p69w74" />
<path d="M414.2 349.74l21.01 0l0 18.84l-21.01 0Z" id="p69w75" />
<path d="M143.75 380.94l31.56 0l0 14.52l-31.56 0Z" id="p69w76" />
<path d="M178.52 380.94l14.18 0l0 14.52l-14.18 0Z" id="p69w77" />
<path d="M195.91 380.94l30.48 0l0 14.52l-30.48 0Z" id="p69w78" />
<path d="M229.59 380.94l48.39 0l0 14.52l-48.39 0Z" id="p69w79" />
<path d="M281.19 380.94l31.8 0l0 14.52l-31.8 0Z" id="p69w80" />
<path d="M316.19 380.94l20.85 0l0 14.52l-20.85 0Z" id="p69w81" />
<path d="M340.25 380.94l41.97 0l0 14.52l-41.97 0Z" id="p69w82" />
<path d="M395.32 380.94l50.79 0l0 14.52l-50.79 0Z" id="p69w83" />
<path d="M449.32 380.94l11.22 0l0 14.52l-11.22 0Z" id="p69w84" />
<path d="M463.75 380.94l18.7 0l0 14.52l-18.7 0Z" id="p69w85" />
<path d="M485.66 380.94l9.89 0l0 14.52l-9.89 0Z" id="p69w86" />
<path d="M498.75 380.94l48.39 0l0 14.52l-48.39 0Z" id="p69w87" />
<path d="M550.35 380.94l18.99 0l0 14.52l-18.99 0Z" id="p69w88" />
<path d="M143.75 397.62l32.87 0l0 14.52l-32.87 0Z" id="p69w89" />
<path d="M179.83 397.62l19.51 0l0 14.52l-19.51 0Z" id="p69w90" />
<path d="M202.54 397.62l43.29 0l0 14.52l-43.29 0Z" id="p69w91" />
<path d="M249.05 397.62l25.4 0l0 14.52l-25.4 0Z" id="p69w92" />
<path d="M277.65 397.55l31.28 0l0 14.6l-31.28 0Z" id="p69w93" />
<path d="M312.14 397.55l13.87 0l0 14.6l-13.87 0Z" id="p69w94" />
<path d="M331.9 397.55l25.4 0l0 14.6l-25.4 0Z" id="p69w95" />
<path d="M360.5 397.62l11.22 0l0 14.52l-11.22 0Z" id="p69w96" />
<path d="M374.93 397.55l25.86 0l0 14.6l-25.86 0Z" id="p69w97" />
<path d="M634.33 397.62l14.44 0l0 14.52l-14.44 0Z" id="p69w98" />
<path d="M651.98 397.62l23.52 0l0 14.52l-23.52 0Z" id="p69w99" />
<path d="M143.75 422.64l28.87 0l0 14.61l-28.87 0Z" id="p69w100" />
<path d="M175.83 422.64l43.56 0l0 14.61l-43.56 0Z" id="p69w101" />
<path d="M222.24 422.64l31.28 0l0 14.61l-31.28 0Z" id="p69w102" />
<path d="M256.73 422.64l17.09 0l0 14.61l-17.09 0Z" id="p69w103" />
<path d="M277.03 422.64l9.89 0l0 14.61l-9.89 0Z" id="p69w104" />
<path d="M290.12 422.64l48.03 0l0 14.61l-48.03 0Z" id="p69w105" />
<path d="M341.36 422.64l16.31 0l0 14.61l-16.31 0Z" id="p69w106" />
<path d="M360.88 422.64l25.66 0l0 14.61l-25.66 0Z" id="p69w107" />
<path d="M389.75 422.64l13.36 0l0 14.61l-13.36 0Z" id="p69w108" />
<path d="M406.32 422.64l21.65 0l0 14.61l-21.65 0Z" id="p69w109" />
<path d="M431.17 422.64l44.76 0l0 14.61l-44.76 0Z" id="p69w110" />
<path d="M143.75 447.64l28.88 0l0 14.52l-28.88 0Z" id="p69w111" />
<path d="M175.84 447.64l44.11 0l0 14.52l-44.11 0Z" id="p69w112" />
<path d="M222.81 447.64l31.55 0l0 14.52l-31.55 0Z" id="p69w113" />
<path d="M257.56 447.64l17.11 0l0 14.52l-17.11 0Z" id="p69w114" />
<path d="M277.87 447.64l9.89 0l0 14.52l-9.89 0Z" id="p69w115" />
<path d="M290.97 447.64l48.39 0l0 14.52l-48.39 0Z" id="p69w116" />
<path d="M342.56 447.64l18.99 0l0 14.52l-18.99 0Z" id="p69w117" />
<path d="M364.76 447.64l6.96 0l0 14.52l-6.96 0Z" id="p69w118" />
<path d="M374.93 447.64l24.33 0l0 14.52l-24.33 0Z" id="p69w119" />
<path d="M402.46 447.64l13.37 0l0 14.52l-13.37 0Z" id="p69w120" />
<path d="M419.04 447.64l21.65 0l0 14.52l-21.65 0Z" id="p69w121" />
<path d="M443.89 447.64l44.15 0l0 14.52l-44.15 0Z" id="p69w122" />
<path d="M143.75 464.31l6.96 0l0 14.52l-6.96 0Z" id="p69w123" />
<path d="M153.92 464.31l12.66 0l0 14.52l-12.66 0Z" id="p69w124" />
<path d="M169.78 464.31l18.18 0l0 14.52l-18.18 0Z" id="p69w125" />
<path d="M191.17 464.31l14.18 0l0 14.52l-14.18 0Z" id="p69w126" />
<path d="M208.55 464.31l33.68 0l0 14.52l-33.68 0Z" id="p69w127" />
<path d="M245.44 464.31l22.73 0l0 14.52l-22.73 0Z" id="p69w128" />
<path d="M271.38 464.31l6.41 0l0 14.52l-6.41 0Z" id="p69w129" />
<path d="M281 464.31l24.33 0l0 14.52l-24.33 0Z" id="p69w130" />
<path d="M308.54 464.31l20.85 0l0 14.52l-20.85 0Z" id="p69w131" />
<path d="M332.6 464.31l40.89 0l0 14.52l-40.89 0Z" id="p69w132" />
<path d="M143.75 480.98l6.96 0l0 14.52l-6.96 0Z" id="p69w133" />
<path d="M153.92 480.98l29.66 0l0 14.52l-29.66 0Z" id="p69w134" />
<path d="M186.78 480.98l26.73 0l0 14.52l-26.73 0Z" id="p69w135" />
<path d="M216.72 480.98l14.18 0l0 14.52l-14.18 0Z" id="p69w136" />
<path d="M234.1 480.98l50.18 0l0 14.52l-50.18 0Z" id="p69w137" />
<path d="M287.5 480.98l6.96 0l0 14.52l-6.96 0Z" id="p69w138" />
<path d="M297.66 480.98l24.33 0l0 14.52l-24.33 0Z" id="p69w139" />
<path d="M325.19 480.98l42.22 0l0 14.52l-42.22 0Z" id="p69w140" />
<path d="M370.62 480.98l14.18 0l0 14.52l-14.18 0Z" id="p69w141" />
<path d="M388.01 480.98l33.32 0l0 14.52l-33.32 0Z" id="p69w142" />
<path d="M424.53 480.98l13.9 0l0 14.52l-13.9 0Z" id="p69w143" />
<path d="M441.28 480.98l34.23 0l0 14.52l-34.23 0Z" id="p69w144" />
<path d="M143.75 497.65l6.96 0l0 14.52l-6.96 0Z" id="p69w145" />
<path d="M153.92 497.65l48.11 0l0 14.52l-48.11 0Z" id="p69w146" />
<path d="M205.24 497.65l17.11 0l0 14.52l-17.11 0Z" id="p69w147" />
<path d="M225.55 497.65l9.89 0l0 14.52l-9.89 0Z" id="p69w148" />
<path d="M238.64 497.65l51.07 0l0 14.52l-51.07 0Z" id="p69w149" />
<path d="M292.92 497.65l34.58 0l0 14.52l-34.58 0Z" id="p69w150" />
<path d="M330.71 497.65l6.41 0l0 14.52l-6.41 0Z" id="p69w151" />
<path d="M340.33 497.65l37.68 0l0 14.52l-37.68 0Z" id="p69w152" />
<path d="M381.22 497.65l37.96 0l0 14.52l-37.96 0Z" id="p69w153" />
<path d="M422.39 497.65l14.18 0l0 14.52l-14.18 0Z" id="p69w154" />
<path d="M439.78 497.65l26.46 0l0 14.52l-26.46 0Z" id="p69w155" />
<path d="M143.75 514.32l6.96 0l0 14.52l-6.96 0Z" id="p69w156" />
<path d="M153.92 514.32l12.66 0l0 14.52l-12.66 0Z" id="p69w157" />
<path d="M169.78 514.32l22.99 0l0 14.52l-22.99 0Z" id="p69w158" />
<path d="M195.98 514.32l13.9 0l0 14.52l-13.9 0Z" id="p69w159" />
<path d="M213.09 514.32l26.99 0l0 14.52l-26.99 0Z" id="p69w160" />
<path d="M243.29 514.32l20.85 0l0 14.52l-20.85 0Z" id="p69w161" />
<path d="M267.35 514.32l38.25 0l0 14.52l-38.25 0Z" id="p69w162" />
<path d="M308.81 514.32l6.96 0l0 14.52l-6.96 0Z" id="p69w163" />
<path d="M318.98 514.32l13.9 0l0 14.52l-13.9 0Z" id="p69w164" />
<path d="M336.08 514.32l41.23 0l0 14.52l-41.23 0Z" id="p69w165" />
<path d="M380.52 514.32l19.51 0l0 14.52l-19.51 0Z" id="p69w166" />
<path d="M403.24 514.32l38.32 0l0 14.52l-38.32 0Z" id="p69w167" />
<path d="M444.77 514.32l9.89 0l0 14.52l-9.89 0Z" id="p69w168" />
<path d="M457.86 514.32l22.45 0l0 14.52l-22.45 0Z" id="p69w169" />
<path d="M483.52 514.32l25.4 0l0 14.52l-25.4 0Z" id="p69w170" />
<path d="M512.12 514.32l31.82 0l0 14.52l-31.82 0Z" id="p69w171" />
<path d="M547.15 514.32l11.22 0l0 14.52l-11.22 0Z" id="p69w172" />
<path d="M561.58 514.32l20.33 0l0 14.52l-20.33 0Z" id="p69w173" />
<path d="M143.75 530.99l6.96 0l0 14.52l-6.96 0Z" id="p69w174" />
<path d="M153.92 530.99l41.96 0l0 14.52l-41.96 0Z" id="p69w175" />
<path d="M199.09 530.99l62.22 0l0 14.52l-62.22 0Z" id="p69w176" />
<path d="M264.52 530.99l6.96 0l0 14.52l-6.96 0Z" id="p69w177" />
<path d="M274.68 530.99l24.33 0l0 14.52l-24.33 0Z" id="p69w178" />
<path d="M302.21 530.99l20.85 0l0 14.52l-20.85 0Z" id="p69w179" />
<path d="M326.27 530.99l24.06 0l0 14.52l-24.06 0Z" id="p69w180" />
<path d="M353.54 530.99l17.9 0l0 14.52l-17.9 0Z" id="p69w181" />
<path d="M374.65 530.99l30.74 0l0 14.52l-30.74 0Z" id="p69w182" />
<path d="M408.6 530.99l48.9 0l0 14.52l-48.9 0Z" id="p69w183" />
<path d="M143.75 547.66l26.45 0l0 14.52l-26.45 0Z" id="p69w184" />
<path d="M183.3 547.66l9.89 0l0 14.52l-9.89 0Z" id="p69w185" />
<path d="M196.39 547.66l17.38 0l0 14.52l-17.38 0Z" id="p69w186" />
<path d="M216.98 547.66l6.41 0l0 14.52l-6.41 0Z" id="p69w187" />
<path d="M226.61 547.66l21.92 0l0 14.52l-21.92 0Z" id="p69w188" />
<path d="M251.74 547.66l32.09 0l0 14.52l-32.09 0Z" id="p69w189" />
<path d="M287.03 547.66l6.96 0l0 14.52l-6.96 0Z" id="p69w190" />
<path d="M297.2 547.66l13.9 0l0 14.52l-13.9 0Z" id="p69w191" />
<path d="M314.3 547.66l32.88 0l0 14.52l-32.88 0Z" id="p69w192" />
<path d="M350.39 547.66l19.51 0l0 14.52l-19.51 0Z" id="p69w193" />
<path d="M373.11 547.66l31.03 0l0 14.52l-31.03 0Z" id="p69w194" />
<path d="M407.35 547.66l25.94 0l0 14.52l-25.94 0Z" id="p69w195" />
<path d="M436.49 547.66l13.9 0l0 14.52l-13.9 0Z" id="p69w196" />
<path d="M453.6 547.66l35.31 0l0 14.52l-35.31 0Z" id="p69w197" />
<path d="M143.75 572.68l32.87 0l0 14.52l-32.87 0Z" id="p69w198" />
<path d="M189.71 572.68l28.87 0l0 14.52l-28.87 0Z" id="p69w199" />
<path d="M221.79 572.68l22.99 0l0 14.52l-22.99 0Z" id="p69w200" />
<path d="M247.99 572.68l19.51 0l0 14.52l-19.51 0Z" id="p69w201" />
<path d="M270.71 572.68l43.29 0l0 14.52l-43.29 0Z" id="p69w202" />
<path d="M317.21 572.68l13.9 0l0 14.52l-13.9 0Z" id="p69w203" />
<path d="M334.31 572.68l45.17 0l0 14.52l-45.17 0Z" id="p69w204" />
<path d="M382.69 572.68l31.1 0l0 14.52l-31.1 0Z" id="p69w205" />
<path d="M416.99 572.68l16.58 0l0 14.52l-16.58 0Z" id="p69w206" />
<path d="M436.78 572.68l25.12 0l0 14.52l-25.12 0Z" id="p69w207" />
<path d="M465.11 572.68l13.91 0l0 14.52l-13.91 0Z" id="p69w208" />
<path d="M482.22 572.68l25.67 0l0 14.52l-25.67 0Z" id="p69w209" />
<path d="M511.1 572.68l25.38 0l0 14.52l-25.38 0Z" id="p69w210" />
<path d="M539.69 572.68l15.79 0l0 14.52l-15.79 0Z" id="p69w211" />
<path d="M143.75 597.7l26.4 0l0 14.61l-26.4 0Z" id="p69w212" />
<path d="M173.36 597.7l50.66 0l0 14.61l-50.66 0Z" id="p69w213" />
<path d="M227.06 597.7l14.18 0l0 14.61l-14.18 0Z" id="p69w214" />
<path d="M244.44 597.7l13.9 0l0 14.61l-13.9 0Z" id="p69w215" />
<path d="M261.55 597.7l25.38 0l0 14.61l-25.38 0Z" id="p69w216" />
<path d="M290.14 597.7l19.44 0l0 14.61l-19.44 0Z" id="p69w217" />
<path d="M312.79 597.7l27.2 0l0 14.61l-27.2 0Z" id="p69w218" />
<path d="M343.2 597.7l13.9 0l0 14.61l-13.9 0Z" id="p69w219" />
<path d="M360.3 597.7l40.9 0l0 14.61l-40.9 0Z" id="p69w220" />
<path d="M404.42 597.7l33.68 0l0 14.61l-33.68 0Z" id="p69w221" />
<path d="M124.06 741.55l67.16 0l0 18.84l-67.16 0Z" id="p69w222" />
<path d="M194.88 741.55l23.83 0l0 18.84l-23.83 0Z" id="p69w223" />
<path d="M222.35 741.55l78.96 0l0 18.84l-78.96 0Z" id="p69w224" />
<path d="M143.75 772.76l50.43 0l0 14.52l-50.43 0Z" id="p69w225" />
<path d="M197.4 772.69l20.96 0l0 14.6l-20.96 0Z" id="p69w226" />
<path d="M221.56 772.76l13.91 0l0 14.52l-13.91 0Z" id="p69w227" />
<path d="M238.68 772.76l49.1 0l0 14.52l-49.1 0Z" id="p69w228" />
<path d="M290.99 772.69l17.62 0l0 14.6l-17.62 0Z" id="p69w229" />
<path d="M320.11 772.76l51.89 0l0 14.52l-51.89 0Z" id="p69w230" />
<path d="M375.2 772.76l52.39 0l0 14.52l-52.39 0Z" id="p69w231" />
<path d="M430.8 772.76l11.22 0l0 14.52l-11.22 0Z" id="p69w232" />
<path d="M445.23 772.76l41.45 0l0 14.52l-41.45 0Z" id="p69w233" />
<path d="M489.88 772.76l9.89 0l0 14.52l-9.89 0Z" id="p69w234" />
<path d="M502.97 772.76l30.94 0l0 14.52l-30.94 0Z" id="p69w235" />
<path d="M124.06 797.7l18.6 0l0 14.6l-18.6 0Z" id="p69w236" />
<path d="M145.87 797.7l27.94 0l0 14.6l-27.94 0Z" id="p69w237" />
<path d="M177.02 797.7l13.87 0l0 14.6l-13.87 0Z" id="p69w238" />
<path d="M194.1 797.7l38.96 0l0 14.6l-38.96 0Z" id="p69w239" />
<path d="M236.27 797.77l65.48 0l0 14.52l-65.48 0Z" id="p69w240" />
<path d="M387.27 797.7l50.5 0l0 14.6l-50.5 0Z" id="p69w241" />
<path d="M440.98 797.7l17.62 0l0 14.6l-17.62 0Z" id="p69w242" />
<path d="M461.81 797.77l25.67 0l0 14.52l-25.67 0Z" id="p69w243" />
<path d="M490.69 797.77l37.68 0l0 14.52l-37.68 0Z" id="p69w244" />
<path d="M124.06 822.78l33.24 0l0 14.52l-33.24 0Z" id="p69w245" />
<path d="M160.5 822.78l46.78 0l0 14.52l-46.78 0Z" id="p69w246" />
<path d="M210.49 822.71l19.61 0l0 14.6l-19.61 0Z" id="p69w247" />
<path d="M233.31 822.71l48.23 0l0 14.6l-48.23 0Z" id="p69w248" />
<path d="M284.75 822.71l17.62 0l0 14.6l-17.62 0Z" id="p69w249" />
<path d="M305.58 822.71l24.59 0l0 14.6l-24.59 0Z" id="p69w250" />
<path d="M124.06 839.39l26.85 0l0 14.6l-26.85 0Z" id="p69w251" />
<path d="M154.12 839.39l65.89 0l0 14.6l-65.89 0Z" id="p69w252" />
<path d="M387.27 822.71l50.5 0l0 14.6l-50.5 0Z" id="p69w253" />
<path d="M440.98 822.71l20.96 0l0 14.6l-20.96 0Z" id="p69w254" />
<path d="M465.14 822.78l25.67 0l0 14.52l-25.67 0Z" id="p69w255" />
<path d="M494.02 822.78l33.41 0l0 14.52l-33.41 0Z" id="p69w256" />
<path d="M530.64 822.78l46.78 0l0 14.52l-46.78 0Z" id="p69w257" />
<path d="M143.75 864.46l51.89 0l0 14.52l-51.89 0Z" id="p69w258" />
<path d="M198.85 864.46l15.5 0l0 14.52l-15.5 0Z" id="p69w259" />
<path d="M217.55 864.46l43.29 0l0 14.52l-43.29 0Z" id="p69w260" />
<path d="M264.05 864.46l55.16 0l0 14.52l-55.16 0Z" id="p69w261" />
<path d="M322.42 864.46l36.63 0l0 14.52l-36.63 0Z" id="p69w262" />
<path d="M362.25 864.46l33.05 0l0 14.52l-33.05 0Z" id="p69w263" />
<path d="M398.51 864.46l30.23 0l0 14.52l-30.23 0Z" id="p69w264" />
<path d="M431.95 864.46l33.41 0l0 14.52l-33.41 0Z" id="p69w265" />
<path d="M468.56 864.46l9.89 0l0 14.52l-9.89 0Z" id="p69w266" />
<path d="M481.66 864.46l48.39 0l0 14.52l-48.39 0Z" id="p69w267" />
<path d="M533.25 864.46l25.4 0l0 14.52l-25.4 0Z" id="p69w268" />
<path d="M561.85 864.4l17.62 0l0 14.6l-17.62 0Z" id="p69w269" />
<path d="M582.68 864.4l33.05 0l0 14.6l-33.05 0Z" id="p69w270" />
<path d="M618.94 864.4l20.96 0l0 14.6l-20.96 0Z" id="p69w271" />
<path d="M124.06 889.48l10.43 0l0 14.52l-10.43 0Z" id="p69w272" />
<path d="M137.7 889.48l42.78 0l0 14.52l-42.78 0Z" id="p69w273" />
<path d="M183.68 889.41l31.47 0l0 14.6l-31.47 0Z" id="p69w274" />
<path d="M218.36 889.41l26.65 0l0 14.6l-26.65 0Z" id="p69w275" />
<path d="M320.7 889.41l18.58 0l0 14.6l-18.58 0Z" id="p69w276" />
<path d="M342.5 889.41l33.05 0l0 14.6l-33.05 0Z" id="p69w277" />
<path d="M378.76 889.41l20.96 0l0 14.6l-20.96 0Z" id="p69w278" />
<path d="M402.92 889.48l25.67 0l0 14.52l-25.67 0Z" id="p69w279" />
<path d="M431.8 889.48l60.95 0l0 14.52l-60.95 0Z" id="p69w280" />
<path d="M495.97 889.48l41.43 0l0 14.52l-41.43 0Z" id="p69w281" />
<path d="M320.7 906.15l30.74 0l0 14.52l-30.74 0Z" id="p69w282" />
<path d="M354.65 906.15l13.9 0l0 14.52l-13.9 0Z" id="p69w283" />
<path d="M371.76 906.15l16.31 0l0 14.52l-16.31 0Z" id="p69w284" />
<path d="M391.28 906.15l30.94 0l0 14.52l-30.94 0Z" id="p69w285" />
<path d="M53.09 140.96l35.52 0l0 12.29l-35.52 0Z" id="p69w286" />
<path d="M44.83 157.7l29.41 0l0 12.3l-29.41 0Z" id="p69w287" />
<path d="M52.89 174.38l35.72 0l0 12.3l-35.72 0Z" id="p69w288" />
<path d="M44.38 185.49l44.24 0l0 12.3l-44.24 0Z" id="p69w289" />
<path d="M140.31 629.56l49 0l0 14.52l-49 0Z" id="p69w290" />
<path d="M197.56 629.56l27.53 0l0 14.52l-27.53 0Z" id="p69w291" />
<path d="M228.3 629.56l19.51 0l0 14.52l-19.51 0Z" id="p69w292" />
<path d="M251.01 629.56l40.9 0l0 14.52l-40.9 0Z" id="p69w293" />
<path d="M295.12 629.56l31.01 0l0 14.52l-31.01 0Z" id="p69w294" />
<path d="M356.15 629.56l25.38 0l0 14.52l-25.38 0Z" id="p69w295" />
<path d="M384.74 629.56l17.9 0l0 14.52l-17.9 0Z" id="p69w296" />
<path d="M405.85 629.56l40.36 0l0 14.52l-40.36 0Z" id="p69w297" />
<path d="M454.46 629.56l42.24 0l0 14.52l-42.24 0Z" id="p69w298" />
<path d="M499.91 629.56l13.9 0l0 14.52l-13.9 0Z" id="p69w299" />
<path d="M517.01 629.56l9.89 0l0 14.52l-9.89 0Z" id="p69w300" />
<path d="M530.11 629.56l47.58 0l0 14.52l-47.58 0Z" id="p69w301" />
<path d="M141.29 662.9l37.95 0l0 14.52l-37.95 0Z" id="p69w302" />
<path d="M182.44 662.9l19.79 0l0 14.52l-19.79 0Z" id="p69w303" />
<path d="M205.44 662.9l47.04 0l0 14.52l-47.04 0Z" id="p69w304" />
<path d="M260.73 662.9l31.53 0l0 14.52l-31.53 0Z" id="p69w305" />
<path d="M295.47 662.9l19.51 0l0 14.52l-19.51 0Z" id="p69w306" />
<path d="M318.18 662.9l24.87 0l0 14.52l-24.87 0Z" id="p69w307" />
<path d="M373.07 662.9l24.31 0l0 14.52l-24.31 0Z" id="p69w308" />
<path d="M410.48 662.9l34.49 0l0 14.52l-34.49 0Z" id="p69w309" />
<path d="M453.22 662.9l44.1 0l0 14.52l-44.1 0Z" id="p69w310" />
<path d="M500.53 662.9l19.79 0l0 14.52l-19.79 0Z" id="p69w311" />
<path d="M523.52 662.9l78.76 0l0 14.52l-78.76 0Z" id="p69w312" />
<path d="M243.92 696.25l37.93 0l0 14.52l-37.93 0Z" id="p69w313" />
<path d="M285.06 696.25l19.51 0l0 14.52l-19.51 0Z" id="p69w314" />
<path d="M307.78 696.25l59.05 0l0 14.52l-59.05 0Z" id="p69w315" />
<path d="M370.04 696.25l23.01 0l0 14.52l-23.01 0Z" id="p69w316" />
<path d="M401.3 696.25l22.44 0l0 14.52l-22.44 0Z" id="p69w317" />
<path d="M436.83 696.25l9.89 0l0 14.52l-9.89 0Z" id="p69w318" />
<path d="M449.92 696.25l31.81 0l0 14.52l-31.81 0Z" id="p69w319" />
<path d="M68.27 39.02l42.02 0l0 15.38l-42.02 0Z" id="p69w320" />
<path d="M152.94 39.02l43.21 0l0 15.38l-43.21 0Z" id="p69w321" />
<path d="M251.4 38.6l45.06 0l0 16.09l-45.06 0Z" id="p69w322" />
<path d="M358.93 39.02l28.68 0l0 15.38l-28.68 0Z" id="p69w323" />
<path d="M390.98 39.02l42.85 0l0 15.38l-42.85 0Z" id="p69w324" />
<path d="M468.42 39.02l32.54 0l0 15.38l-32.54 0Z" id="p69w325" />
<path d="M628.38 983l62.72 0l0 12.23l-62.72 0Z" id="p69w326" />
</svg>
