<?xml version="1.0" encoding="UTF-8"?>
<svg xmlns="http://www.w3.org/2000/svg" xmlns:xlink="http://www.w3.org/1999/xlink" version="1.1" baseProfile="full" width="768" height="1024" viewBox="0,0,768,1024" preserveAspectRatio="xMinYMin meet" >
<style type="text/css">
<![CDATA[
path {fill-opacity: 0.5;fill: #00aeef;visibility: hidden;}
]]>
</style>
<path d="M563.57 983.66l127.54 0l0 12.23l-127.54 0Z" id="p253w1" />
<path d="M566.11 38.6l77.83 0l0 16.09l-77.83 0Z" id="p253w2" />
<path d="M59.08 112.51l19.44 0l0 12.23l-19.44 0Z" id="p253w3" />
<path d="M81.22 112.45l54.39 0l0 12.29l-54.39 0Z" id="p253w4" />
<path d="M138.31 112.51l28.58 0l0 12.23l-28.58 0Z" id="p253w5" />
<path d="M169.58 112.51l11.04 0l0 12.23l-11.04 0Z" id="p253w6" />
<path d="M183.32 112.26l15.54 0l0 12.56l-15.54 0Z" id="p253w7" />
<path d="M59.08 127.79l20.03 0l0 12.23l-20.03 0Z" id="p253w8" />
<path d="M81.81 127.74l61.29 0l0 12.29l-61.29 0Z" id="p253w9" />
<path d="M145.8 127.79l17.56 0l0 12.23l-17.56 0Z" id="p253w10" />
<path d="M166.06 127.79l24.75 0l0 12.23l-24.75 0Z" id="p253w11" />
<path d="M193.52 127.55l17.26 0l0 12.56l-17.26 0Z" id="p253w12" />
<path d="M59.08 143.08l20.03 0l0 12.23l-20.03 0Z" id="p253w13" />
<path d="M81.81 143.02l63.19 0l0 12.29l-63.19 0Z" id="p253w14" />
<path d="M147.7 143.08l17.56 0l0 12.23l-17.56 0Z" id="p253w15" />
<path d="M167.96 143.08l44.56 0l0 12.23l-44.56 0Z" id="p253w16" />
<path d="M215.22 142.83l14.79 0l0 12.56l-14.79 0Z" id="p253w17" />
<path d="M59.08 158.36l20.03 0l0 12.23l-20.03 0Z" id="p253w18" />
<path d="M81.81 158.3l61.34 0l0 12.29l-61.34 0Z" id="p253w19" />
<path d="M145.85 158.36l17.56 0l0 12.23l-17.56 0Z" id="p253w20" />
<path d="M166.12 158.36l36.02 0l0 12.23l-36.02 0Z" id="p253w21" />
<path d="M204.84 158.11l15.54 0l0 12.56l-15.54 0Z" id="p253w22" />
<path d="M59.08 173.59l30.9 0l0 12.29l-30.9 0Z" id="p253w23" />
<path d="M92.68 173.64l28.37 0l0 12.23l-28.37 0Z" id="p253w24" />
<path d="M123.75 173.4l18.92 0l0 12.56l-18.92 0Z" id="p253w25" />
<path d="M59.08 188.93l20.03 0l0 12.23l-20.03 0Z" id="p253w26" />
<path d="M81.81 188.87l50.34 0l0 12.29l-50.34 0Z" id="p253w27" />
<path d="M134.85 188.93l17.56 0l0 12.23l-17.56 0Z" id="p253w28" />
<path d="M155.11 188.93l52.67 0l0 12.23l-52.67 0Z" id="p253w29" />
<path d="M210.49 188.68l15.54 0l0 12.56l-15.54 0Z" id="p253w30" />
<path d="M59.08 204.21l54.7 0l0 12.23l-54.7 0Z" id="p253w31" />
<path d="M116.48 204.15l26.11 0l0 12.29l-26.11 0Z" id="p253w32" />
<path d="M156.5 204.21l8.33 0l0 12.23l-8.33 0Z" id="p253w33" />
<path d="M167.53 204.21l61.97 0l0 12.23l-61.97 0Z" id="p253w34" />
<path d="M68.92 219.49l55.1 0l0 12.23l-55.1 0Z" id="p253w35" />
<path d="M126.72 219.25l18.92 0l0 12.56l-18.92 0Z" id="p253w36" />
<path d="M59.08 234.78l19.44 0l0 12.23l-19.44 0Z" id="p253w37" />
<path d="M81.22 234.72l53.52 0l0 12.29l-53.52 0Z" id="p253w38" />
<path d="M137.44 234.78l18.01 0l0 12.23l-18.01 0Z" id="p253w39" />
<path d="M155.45 234.78l12.6 0l0 12.23l-12.6 0Z" id="p253w40" />
<path d="M170.75 234.78l11.04 0l0 12.23l-11.04 0Z" id="p253w41" />
<path d="M184.49 234.53l18.92 0l0 12.56l-18.92 0Z" id="p253w42" />
<path d="M59.08 250l51.39 0l0 12.29l-51.39 0Z" id="p253w43" />
<path d="M113.16 250.06l84.51 0l0 12.23l-84.51 0Z" id="p253w44" />
<path d="M200.37 249.81l18.92 0l0 12.56l-18.92 0Z" id="p253w45" />
<path d="M59.08 265.34l14.41 0l0 12.23l-14.41 0Z" id="p253w46" />
<path d="M76.18 265.29l78.95 0l0 12.29l-78.95 0Z" id="p253w47" />
<path d="M157.84 265.34l17.56 0l0 12.23l-17.56 0Z" id="p253w48" />
<path d="M178.1 265.34l53.12 0l0 12.23l-53.12 0Z" id="p253w49" />
<path d="M68.92 280.38l18.01 0l0 12.56l-18.01 0Z" id="p253w50" />
<path d="M59.08 295.91l14.41 0l0 12.23l-14.41 0Z" id="p253w51" />
<path d="M76.18 295.91l42.98 0l0 12.23l-42.98 0Z" id="p253w52" />
<path d="M119.17 295.85l33.88 0l0 12.29l-33.88 0Z" id="p253w53" />
<path d="M155.75 295.91l17.56 0l0 12.23l-17.56 0Z" id="p253w54" />
<path d="M176.01 295.91l26.55 0l0 12.23l-26.55 0Z" id="p253w55" />
<path d="M205.26 295.66l15.54 0l0 12.56l-15.54 0Z" id="p253w56" />
<path d="M59.08 311.19l14.41 0l0 12.23l-14.41 0Z" id="p253w57" />
<path d="M76.18 311.14l33.88 0l0 12.29l-33.88 0Z" id="p253w58" />
<path d="M112.76 311.19l17.56 0l0 12.23l-17.56 0Z" id="p253w59" />
<path d="M133.03 311.19l24.75 0l0 12.23l-24.75 0Z" id="p253w60" />
<path d="M160.48 310.95l17.26 0l0 12.56l-17.26 0Z" id="p253w61" />
<path d="M59.08 326.48l29.71 0l0 12.23l-29.71 0Z" id="p253w62" />
<path d="M91.49 326.48l24.09 0l0 12.23l-24.09 0Z" id="p253w63" />
<path d="M118.28 326.42l44.91 0l0 12.29l-44.91 0Z" id="p253w64" />
<path d="M165.88 326.48l27.91 0l0 12.23l-27.91 0Z" id="p253w65" />
<path d="M196.49 326.48l27.37 0l0 12.23l-27.37 0Z" id="p253w66" />
<path d="M68.92 341.52l18.72 0l0 12.56l-18.72 0Z" id="p253w67" />
<path d="M59.08 357.04l16.9 0l0 12.23l-16.9 0Z" id="p253w68" />
<path d="M78.67 356.99l44.91 0l0 12.29l-44.91 0Z" id="p253w69" />
<path d="M126.28 357.04l31.06 0l0 12.23l-31.06 0Z" id="p253w70" />
<path d="M160.04 357.04l24.75 0l0 12.23l-24.75 0Z" id="p253w71" />
<path d="M195.82 357.04l12.16 0l0 12.23l-12.16 0Z" id="p253w72" />
<path d="M210.68 356.8l14.63 0l0 12.56l-14.63 0Z" id="p253w73" />
<path d="M59.08 372.33l14.41 0l0 12.23l-14.41 0Z" id="p253w74" />
<path d="M76.18 372.27l43.4 0l0 12.29l-43.4 0Z" id="p253w75" />
<path d="M119.59 372.33l24.2 0l0 12.23l-24.2 0Z" id="p253w76" />
<path d="M146.49 372.27l52.3 0l0 12.29l-52.3 0Z" id="p253w77" />
<path d="M201.48 372.33l11.94 0l0 12.23l-11.94 0Z" id="p253w78" />
<path d="M68.92 387.61l56.17 0l0 12.23l-56.17 0Z" id="p253w79" />
<path d="M127.79 387.61l40.96 0l0 12.23l-40.96 0Z" id="p253w80" />
<path d="M171.45 387.37l18.92 0l0 12.56l-18.92 0Z" id="p253w81" />
<path d="M59.08 402.89l19.44 0l0 12.23l-19.44 0Z" id="p253w82" />
<path d="M81.22 402.84l51.53 0l0 12.29l-51.53 0Z" id="p253w83" />
<path d="M135.45 402.89l40.23 0l0 12.23l-40.23 0Z" id="p253w84" />
<path d="M178.38 402.89l11.04 0l0 12.23l-11.04 0Z" id="p253w85" />
<path d="M192.11 402.65l15.54 0l0 12.56l-15.54 0Z" id="p253w86" />
<path d="M59.08 418.18l14.41 0l0 12.23l-14.41 0Z" id="p253w87" />
<path d="M76.18 418.12l41.27 0l0 12.29l-41.27 0Z" id="p253w88" />
<path d="M117.45 418.18l24.2 0l0 12.23l-24.2 0Z" id="p253w89" />
<path d="M144.35 418.12l50.16 0l0 12.29l-50.16 0Z" id="p253w90" />
<path d="M197.22 418.18l11.94 0l0 12.23l-11.94 0Z" id="p253w91" />
<path d="M68.92 433.46l70.11 0l0 12.23l-70.11 0Z" id="p253w92" />
<path d="M141.74 433.46l50.19 0l0 12.23l-50.19 0Z" id="p253w93" />
<path d="M194.63 433.22l15.54 0l0 12.56l-15.54 0Z" id="p253w94" />
<path d="M224.63 433.46l11.94 0l0 12.23l-11.94 0Z" id="p253w95" />
<path d="M68.92 448.74l50.54 0l0 12.23l-50.54 0Z" id="p253w96" />
<path d="M122.17 448.74l30.61 0l0 12.23l-30.61 0Z" id="p253w97" />
<path d="M155.48 448.5l18.72 0l0 12.56l-18.72 0Z" id="p253w98" />
<path d="M59.08 464.03l14.41 0l0 12.23l-14.41 0Z" id="p253w99" />
<path d="M76.18 463.97l34.75 0l0 12.29l-34.75 0Z" id="p253w100" />
<path d="M113.63 464.03l17.56 0l0 12.23l-17.56 0Z" id="p253w101" />
<path d="M133.89 464.03l47.93 0l0 12.23l-47.93 0Z" id="p253w102" />
<path d="M184.52 463.78l17.81 0l0 12.56l-17.81 0Z" id="p253w103" />
<path d="M59.08 479.31l14.41 0l0 12.23l-14.41 0Z" id="p253w104" />
<path d="M76.18 479.25l20.2 0l0 12.29l-20.2 0Z" id="p253w105" />
<path d="M99.08 479.31l11.94 0l0 12.23l-11.94 0Z" id="p253w106" />
<path d="M113.72 479.31l9.23 0l0 12.23l-9.23 0Z" id="p253w107" />
<path d="M125.65 479.07l14.63 0l0 12.56l-14.63 0Z" id="p253w108" />
<path d="M68.92 494.59l13.5 0l0 12.23l-13.5 0Z" id="p253w109" />
<path d="M85.13 494.59l20.03 0l0 12.23l-20.03 0Z" id="p253w110" />
<path d="M107.86 494.59l29.43 0l0 12.23l-29.43 0Z" id="p253w111" />
<path d="M140 494.59l10.35 0l0 12.23l-10.35 0Z" id="p253w112" />
<path d="M153.04 494.59l37.16 0l0 12.23l-37.16 0Z" id="p253w113" />
<path d="M192.9 494.35l15.54 0l0 12.56l-15.54 0Z" id="p253w114" />
<path d="M59.08 509.82l26.5 0l0 12.29l-26.5 0Z" id="p253w115" />
<path d="M88.28 509.88l20.93 0l0 12.23l-20.93 0Z" id="p253w116" />
<path d="M111.91 509.88l19.44 0l0 12.23l-19.44 0Z" id="p253w117" />
<path d="M134.05 509.88l13.5 0l0 12.23l-13.5 0Z" id="p253w118" />
<path d="M150.25 509.88l26.19 0l0 12.23l-26.19 0Z" id="p253w119" />
<path d="M179.14 509.88l11.7 0l0 12.23l-11.7 0Z" id="p253w120" />
<path d="M193.55 509.88l21.37 0l0 12.23l-21.37 0Z" id="p253w121" />
<path d="M217.62 509.88l11.04 0l0 12.23l-11.04 0Z" id="p253w122" />
<path d="M68.92 524.92l18.92 0l0 12.56l-18.92 0Z" id="p253w123" />
<path d="M59.08 540.44l14.41 0l0 12.23l-14.41 0Z" id="p253w124" />
<path d="M76.18 540.39l104.54 0l0 12.29l-104.54 0Z" id="p253w125" />
<path d="M183.42 540.44l17.56 0l0 12.23l-17.56 0Z" id="p253w126" />
<path d="M203.68 540.44l25.42 0l0 12.23l-25.42 0Z" id="p253w127" />
<path d="M68.92 555.73l11.7 0l0 12.23l-11.7 0Z" id="p253w128" />
<path d="M83.33 555.73l50.73 0l0 12.23l-50.73 0Z" id="p253w129" />
<path d="M136.76 555.48l18.72 0l0 12.56l-18.72 0Z" id="p253w130" />
<path d="M59.08 570.96l110.52 0l0 12.29l-110.52 0Z" id="p253w131" />
<path d="M172.3 571.01l11.94 0l0 12.23l-11.94 0Z" id="p253w132" />
<path d="M186.94 571.01l33.53 0l0 12.23l-33.53 0Z" id="p253w133" />
<path d="M68.92 586.05l18.92 0l0 12.56l-18.92 0Z" id="p253w134" />
<path d="M59.08 601.58l19.44 0l0 12.23l-19.44 0Z" id="p253w135" />
<path d="M81.22 601.52l42.73 0l0 12.29l-42.73 0Z" id="p253w136" />
<path d="M126.65 601.58l26.11 0l0 12.23l-26.11 0Z" id="p253w137" />
<path d="M155.46 601.58l11.04 0l0 12.23l-11.04 0Z" id="p253w138" />
<path d="M169.2 601.33l15.34 0l0 12.56l-15.34 0Z" id="p253w139" />
<path d="M59.08 616.86l20.03 0l0 12.23l-20.03 0Z" id="p253w140" />
<path d="M81.81 616.81l49.62 0l0 12.29l-49.62 0Z" id="p253w141" />
<path d="M134.13 616.86l17.56 0l0 12.23l-17.56 0Z" id="p253w142" />
<path d="M154.39 616.86l36.24 0l0 12.23l-36.24 0Z" id="p253w143" />
<path d="M193.33 616.62l18.92 0l0 12.56l-18.92 0Z" id="p253w144" />
<path d="M68.92 632.14l25.21 0l0 12.23l-25.21 0Z" id="p253w145" />
<path d="M96.84 632.14l61.41 0l0 12.23l-61.41 0Z" id="p253w146" />
<path d="M160.95 632.14l43.91 0l0 12.23l-43.91 0Z" id="p253w147" />
<path d="M207.55 632.14l11.7 0l0 12.23l-11.7 0Z" id="p253w148" />
<path d="M221.96 632.14l16.43 0l0 12.23l-16.43 0Z" id="p253w149" />
<path d="M68.92 647.43l23.19 0l0 12.23l-23.19 0Z" id="p253w150" />
<path d="M94.81 647.43l31.07 0l0 12.23l-31.07 0Z" id="p253w151" />
<path d="M128.58 647.43l11.7 0l0 12.23l-11.7 0Z" id="p253w152" />
<path d="M142.99 647.43l29.27 0l0 12.23l-29.27 0Z" id="p253w153" />
<path d="M196.11 647.18l18.72 0l0 12.56l-18.72 0Z" id="p253w154" />
<path d="M59.08 662.71l20.03 0l0 12.23l-20.03 0Z" id="p253w155" />
<path d="M81.81 662.66l48.42 0l0 12.29l-48.42 0Z" id="p253w156" />
<path d="M132.93 662.71l17.56 0l0 12.23l-17.56 0Z" id="p253w157" />
<path d="M153.19 662.71l59.21 0l0 12.23l-59.21 0Z" id="p253w158" />
<path d="M215.1 662.47l19.58 0l0 12.56l-19.58 0Z" id="p253w159" />
<path d="M59.08 677.99l14.41 0l0 12.23l-14.41 0Z" id="p253w160" />
<path d="M76.18 677.94l18.44 0l0 12.29l-18.44 0Z" id="p253w161" />
<path d="M97.32 677.99l17.56 0l0 12.23l-17.56 0Z" id="p253w162" />
<path d="M117.59 677.99l29.2 0l0 12.23l-29.2 0Z" id="p253w163" />
<path d="M149.49 677.75l14.41 0l0 12.56l-14.41 0Z" id="p253w164" />
<path d="M59.08 693.28l14.41 0l0 12.23l-14.41 0Z" id="p253w165" />
<path d="M76.18 693.22l49.94 0l0 12.29l-49.94 0Z" id="p253w166" />
<path d="M128.82 693.28l11.94 0l0 12.23l-11.94 0Z" id="p253w167" />
<path d="M143.46 693.28l25.89 0l0 12.23l-25.89 0Z" id="p253w168" />
<path d="M172.05 693.03l18.01 0l0 12.56l-18.01 0Z" id="p253w169" />
<path d="M59.08 708.51l38.39 0l0 12.29l-38.39 0Z" id="p253w170" />
<path d="M100.17 708.56l13.05 0l0 12.23l-13.05 0Z" id="p253w171" />
<path d="M115.92 708.56l17.12 0l0 12.23l-17.12 0Z" id="p253w172" />
<path d="M149.02 708.54l14.18 0l0 12.23l-14.18 0Z" id="p253w173" />
<path d="M177.61 708.54l38.26 0l0 12.23l-38.26 0Z" id="p253w174" />
<path d="M218.57 708.54l11.48 0l0 12.23l-11.48 0Z" id="p253w175" />
<path d="M68.92 723.82l8.34 0l0 12.23l-8.34 0Z" id="p253w176" />
<path d="M79.96 723.82l12.63 0l0 12.23l-12.63 0Z" id="p253w177" />
<path d="M95.29 723.82l9.23 0l0 12.23l-9.23 0Z" id="p253w178" />
<path d="M107.22 723.82l11.48 0l0 12.23l-11.48 0Z" id="p253w179" />
<path d="M121.4 723.82l8.34 0l0 12.23l-8.34 0Z" id="p253w180" />
<path d="M132.44 723.82l25.8 0l0 12.23l-25.8 0Z" id="p253w181" />
<path d="M160.94 723.6l15.54 0l0 12.56l-15.54 0Z" id="p253w182" />
<path d="M59.08 739.07l13.73 0l0 12.29l-13.73 0Z" id="p253w183" />
<path d="M75.51 739.13l32.65 0l0 12.23l-32.65 0Z" id="p253w184" />
<path d="M110.85 738.88l15.54 0l0 12.56l-15.54 0Z" id="p253w185" />
<path d="M68.92 754.41l14.18 0l0 12.23l-14.18 0Z" id="p253w186" />
<path d="M85.81 754.41l32.86 0l0 12.23l-32.86 0Z" id="p253w187" />
<path d="M130.59 754.41l19.36 0l0 12.23l-19.36 0Z" id="p253w188" />
<path d="M158.51 754.39l27.91 0l0 12.23l-27.91 0Z" id="p253w189" />
<path d="M189.12 754.17l13.88 0l0 12.56l-13.88 0Z" id="p253w190" />
<path d="M59.08 769.7l14.41 0l0 12.23l-14.41 0Z" id="p253w191" />
<path d="M76.18 769.64l40.96 0l0 12.29l-40.96 0Z" id="p253w192" />
<path d="M119.84 769.7l11.94 0l0 12.23l-11.94 0Z" id="p253w193" />
<path d="M134.48 769.7l17.56 0l0 12.23l-17.56 0Z" id="p253w194" />
<path d="M154.75 769.7l11.7 0l0 12.23l-11.7 0Z" id="p253w195" />
<path d="M169.15 769.45l15.54 0l0 12.56l-15.54 0Z" id="p253w196" />
<path d="M59.08 784.92l22.33 0l0 12.29l-22.33 0Z" id="p253w197" />
<path d="M84.11 784.96l29.06 0l0 12.23l-29.06 0Z" id="p253w198" />
<path d="M115.86 784.96l21.16 0l0 12.23l-21.16 0Z" id="p253w199" />
<path d="M139.73 784.96l46.61 0l0 12.23l-46.61 0Z" id="p253w200" />
<path d="M189.04 784.96l24.08 0l0 12.23l-24.08 0Z" id="p253w201" />
<path d="M215.81 784.98l12.15 0l0 12.23l-12.15 0Z" id="p253w202" />
<path d="M230.66 784.98l9.45 0l0 12.23l-9.45 0Z" id="p253w203" />
<path d="M68.92 800.26l20.93 0l0 12.23l-20.93 0Z" id="p253w204" />
<path d="M92.56 800.02l15.54 0l0 12.56l-15.54 0Z" id="p253w205" />
<path d="M59.08 815.49l22.33 0l0 12.29l-22.33 0Z" id="p253w206" />
<path d="M84.11 815.52l29.06 0l0 12.23l-29.06 0Z" id="p253w207" />
<path d="M115.86 815.52l21.16 0l0 12.23l-21.16 0Z" id="p253w208" />
<path d="M139.73 815.52l46.61 0l0 12.23l-46.61 0Z" id="p253w209" />
<path d="M189.04 815.52l24.75 0l0 12.23l-24.75 0Z" id="p253w210" />
<path d="M216.49 815.55l12.15 0l0 12.23l-12.15 0Z" id="p253w211" />
<path d="M68.92 830.83l21.62 0l0 12.23l-21.62 0Z" id="p253w212" />
<path d="M93.25 830.83l20.93 0l0 12.23l-20.93 0Z" id="p253w213" />
<path d="M116.88 830.58l15.54 0l0 12.56l-15.54 0Z" id="p253w214" />
<path d="M59.08 846.11l16.9 0l0 12.23l-16.9 0Z" id="p253w215" />
<path d="M78.67 846.11l15.08 0l0 12.23l-15.08 0Z" id="p253w216" />
<path d="M96.46 846.11l19.44 0l0 12.23l-19.44 0Z" id="p253w217" />
<path d="M118.6 846.06l28.41 0l0 12.29l-28.41 0Z" id="p253w218" />
<path d="M149.71 846.11l48.16 0l0 12.23l-48.16 0Z" id="p253w219" />
<path d="M200.57 846.11l11.04 0l0 12.23l-11.04 0Z" id="p253w220" />
<path d="M222.64 846.11l12.16 0l0 12.23l-12.16 0Z" id="p253w221" />
<path d="M68.92 861.15l15.54 0l0 12.56l-15.54 0Z" id="p253w222" />
<path d="M59.08 876.68l11.72 0l0 12.23l-11.72 0Z" id="p253w223" />
<path d="M73.46 876.68l20.03 0l0 12.23l-20.03 0Z" id="p253w224" />
<path d="M96.16 876.62l41.6 0l0 12.29l-41.6 0Z" id="p253w225" />
<path d="M143.59 876.66l25.65 0l0 12.23l-25.65 0Z" id="p253w226" />
<path d="M171.91 876.68l22.05 0l0 12.23l-22.05 0Z" id="p253w227" />
<path d="M196.63 876.68l8.33 0l0 12.23l-8.33 0Z" id="p253w228" />
<path d="M207.62 876.68l27.47 0l0 12.23l-27.47 0Z" id="p253w229" />
<path d="M68.92 891.94l27.91 0l0 12.23l-27.91 0Z" id="p253w230" />
<path d="M99.54 891.72l15.54 0l0 12.56l-15.54 0Z" id="p253w231" />
<path d="M59.08 907.25l20.03 0l0 12.23l-20.03 0Z" id="p253w232" />
<path d="M81.81 907.19l25.67 0l0 12.29l-25.67 0Z" id="p253w233" />
<path d="M110.17 907.25l17.56 0l0 12.23l-17.56 0Z" id="p253w234" />
<path d="M130.44 907.25l22.96 0l0 12.23l-22.96 0Z" id="p253w235" />
<path d="M156.1 907l18.92 0l0 12.56l-18.92 0Z" id="p253w236" />
<path d="M59.08 922.47l20.5 0l0 12.29l-20.5 0Z" id="p253w237" />
<path d="M82.27 922.53l50.32 0l0 12.23l-50.32 0Z" id="p253w238" />
<path d="M135.29 922.28l15.34 0l0 12.56l-15.34 0Z" id="p253w239" />
<path d="M260.6 112.45l35.11 0l0 12.29l-35.11 0Z" id="p253w240" />
<path d="M298.41 112.51l27.44 0l0 12.23l-27.44 0Z" id="p253w241" />
<path d="M328.55 112.26l15.54 0l0 12.56l-15.54 0Z" id="p253w242" />
<path d="M260.6 127.79l14.41 0l0 12.23l-14.41 0Z" id="p253w243" />
<path d="M277.7 127.74l37.25 0l0 12.29l-37.25 0Z" id="p253w244" />
<path d="M317.65 127.79l11.94 0l0 12.23l-11.94 0Z" id="p253w245" />
<path d="M332.29 127.79l31.08 0l0 12.23l-31.08 0Z" id="p253w246" />
<path d="M366.07 127.55l18.92 0l0 12.56l-18.92 0Z" id="p253w247" />
<path d="M260.6 143.08l20.03 0l0 12.23l-20.03 0Z" id="p253w248" />
<path d="M283.33 143.02l105.85 0l0 12.29l-105.85 0Z" id="p253w249" />
<path d="M391.88 143.08l17.56 0l0 12.23l-17.56 0Z" id="p253w250" />
<path d="M270.44 158.36l55.38 0l0 12.23l-55.38 0Z" id="p253w251" />
<path d="M328.52 158.11l18.92 0l0 12.56l-18.92 0Z" id="p253w252" />
<path d="M260.6 173.64l14.41 0l0 12.23l-14.41 0Z" id="p253w253" />
<path d="M277.7 173.59l21.3 0l0 12.29l-21.3 0Z" id="p253w254" />
<path d="M301.7 173.64l11.94 0l0 12.23l-11.94 0Z" id="p253w255" />
<path d="M316.34 173.64l20.66 0l0 12.23l-20.66 0Z" id="p253w256" />
<path d="M339.7 173.4l18.72 0l0 12.56l-18.72 0Z" id="p253w257" />
<path d="M260.6 188.93l14.41 0l0 12.23l-14.41 0Z" id="p253w258" />
<path d="M277.7 188.87l36.7 0l0 12.29l-36.7 0Z" id="p253w259" />
<path d="M314.4 188.93l24.2 0l0 12.23l-24.2 0Z" id="p253w260" />
<path d="M341.3 188.87l45.59 0l0 12.29l-45.59 0Z" id="p253w261" />
<path d="M389.6 188.93l11.94 0l0 12.23l-11.94 0Z" id="p253w262" />
<path d="M270.44 204.21l63.56 0l0 12.23l-63.56 0Z" id="p253w263" />
<path d="M336.7 204.21l48.35 0l0 12.23l-48.35 0Z" id="p253w264" />
<path d="M387.75 203.96l18.01 0l0 12.56l-18.01 0Z" id="p253w265" />
<path d="M260.6 219.44l26.88 0l0 12.29l-26.88 0Z" id="p253w266" />
<path d="M290.17 219.49l63.39 0l0 12.23l-63.39 0Z" id="p253w267" />
<path d="M356.26 219.25l15.34 0l0 12.56l-15.34 0Z" id="p253w268" />
<path d="M260.6 234.72l21.1 0l0 12.29l-21.1 0Z" id="p253w269" />
<path d="M284.39 234.78l22.51 0l0 12.23l-22.51 0Z" id="p253w270" />
<path d="M309.6 234.53l15.54 0l0 12.56l-15.54 0Z" id="p253w271" />
<path d="M260.6 250.06l14.41 0l0 12.23l-14.41 0Z" id="p253w272" />
<path d="M277.7 250l36.69 0l0 12.29l-36.69 0Z" id="p253w273" />
<path d="M317.09 250.06l11.94 0l0 12.23l-11.94 0Z" id="p253w274" />
<path d="M331.73 250.06l36.04 0l0 12.23l-36.04 0Z" id="p253w275" />
<path d="M370.47 249.81l14.79 0l0 12.56l-14.79 0Z" id="p253w276" />
<path d="M260.6 265.34l14.41 0l0 12.23l-14.41 0Z" id="p253w277" />
<path d="M277.7 265.29l22.4 0l0 12.29l-22.4 0Z" id="p253w278" />
<path d="M304.27 265.29l28.02 0l0 12.29l-28.02 0Z" id="p253w279" />
<path d="M334.99 265.34l11.94 0l0 12.23l-11.94 0Z" id="p253w280" />
<path d="M349.63 265.34l53.23 0l0 12.23l-53.23 0Z" id="p253w281" />
<path d="M270.44 280.63l37.59 0l0 12.23l-37.59 0Z" id="p253w282" />
<path d="M310.74 280.38l15.54 0l0 12.56l-15.54 0Z" id="p253w283" />
<path d="M260.6 295.85l22.39 0l0 12.29l-22.39 0Z" id="p253w284" />
<path d="M285.68 295.91l92.62 0l0 12.23l-92.62 0Z" id="p253w285" />
<path d="M381.01 295.66l18.92 0l0 12.56l-18.92 0Z" id="p253w286" />
<path d="M260.6 311.19l14.41 0l0 12.23l-14.41 0Z" id="p253w287" />
<path d="M277.7 311.14l28.43 0l0 12.29l-28.43 0Z" id="p253w288" />
<path d="M308.84 311.19l11.94 0l0 12.23l-11.94 0Z" id="p253w289" />
<path d="M323.47 311.19l39.85 0l0 12.23l-39.85 0Z" id="p253w290" />
<path d="M366.02 310.95l18.92 0l0 12.56l-18.92 0Z" id="p253w291" />
<path d="M260.6 326.48l19.44 0l0 12.23l-19.44 0Z" id="p253w292" />
<path d="M282.74 326.42l43.98 0l0 12.29l-43.98 0Z" id="p253w293" />
<path d="M329.42 326.48l23.19 0l0 12.23l-23.19 0Z" id="p253w294" />
<path d="M355.31 326.48l31.07 0l0 12.23l-31.07 0Z" id="p253w295" />
<path d="M389.08 326.48l11.7 0l0 12.23l-11.7 0Z" id="p253w296" />
<path d="M403.48 326.48l11.04 0l0 12.23l-11.04 0Z" id="p253w297" />
<path d="M270.44 341.52l15.34 0l0 12.56l-15.34 0Z" id="p253w298" />
<path d="M270.44 357.04l10.82 0l0 12.23l-10.82 0Z" id="p253w299" />
<path d="M283.96 357.04l36.02 0l0 12.23l-36.02 0Z" id="p253w300" />
<path d="M322.69 357.04l19.44 0l0 12.23l-19.44 0Z" id="p253w301" />
<path d="M344.83 357.04l5.4 0l0 12.23l-5.4 0Z" id="p253w302" />
<path d="M352.93 357.04l18.91 0l0 12.23l-18.91 0Z" id="p253w303" />
<path d="M374.54 357.04l11.04 0l0 12.23l-11.04 0Z" id="p253w304" />
<path d="M396.6 357.04l12.16 0l0 12.23l-12.16 0Z" id="p253w305" />
<path d="M270.44 372.3l18.68 0l0 12.23l-18.68 0Z" id="p253w306" />
<path d="M289.13 372.3l22.5 0l0 12.23l-22.5 0Z" id="p253w307" />
<path d="M314.33 372.3l30.02 0l0 12.23l-30.02 0Z" id="p253w308" />
<path d="M347.05 372.08l15.54 0l0 12.56l-15.54 0Z" id="p253w309" />
<path d="M270.44 387.61l24.98 0l0 12.23l-24.98 0Z" id="p253w310" />
<path d="M298.12 387.61l43.91 0l0 12.23l-43.91 0Z" id="p253w311" />
<path d="M344.73 387.61l31.95 0l0 12.23l-31.95 0Z" id="p253w312" />
<path d="M379.37 387.61l11.04 0l0 12.23l-11.04 0Z" id="p253w313" />
<path d="M393.11 387.37l15.34 0l0 12.56l-15.34 0Z" id="p253w314" />
<path d="M260.6 402.84l27.67 0l0 12.29l-27.67 0Z" id="p253w315" />
<path d="M290.96 402.89l53.48 0l0 12.23l-53.48 0Z" id="p253w316" />
<path d="M347.14 402.65l15.34 0l0 12.56l-15.34 0Z" id="p253w317" />
<path d="M382.11 402.89l34.21 0l0 12.23l-34.21 0Z" id="p253w318" />
<path d="M270.44 417.93l18.92 0l0 12.56l-18.92 0Z" id="p253w319" />
<path d="M260.6 433.4l50.42 0l0 12.29l-50.42 0Z" id="p253w320" />
<path d="M313.72 433.46l8.33 0l0 12.23l-8.33 0Z" id="p253w321" />
<path d="M324.74 433.46l31.29 0l0 12.23l-31.29 0Z" id="p253w322" />
<path d="M358.73 433.22l14.63 0l0 12.56l-14.63 0Z" id="p253w323" />
<path d="M260.6 448.69l49.74 0l0 12.29l-49.74 0Z" id="p253w324" />
<path d="M313.04 448.74l78.45 0l0 12.23l-78.45 0Z" id="p253w325" />
<path d="M394.19 448.5l14.63 0l0 12.56l-14.63 0Z" id="p253w326" />
<path d="M260.6 464.03l14.41 0l0 12.23l-14.41 0Z" id="p253w327" />
<path d="M277.7 463.97l22.8 0l0 12.29l-22.8 0Z" id="p253w328" />
<path d="M303.2 464.03l17.56 0l0 12.23l-17.56 0Z" id="p253w329" />
<path d="M323.46 464.03l25.42 0l0 12.23l-25.42 0Z" id="p253w330" />
<path d="M351.58 463.78l18.92 0l0 12.56l-18.92 0Z" id="p253w331" />
<path d="M260.6 479.31l14.41 0l0 12.23l-14.41 0Z" id="p253w332" />
<path d="M277.7 479.25l54.05 0l0 12.29l-54.05 0Z" id="p253w333" />
<path d="M331.75 479.31l24.2 0l0 12.23l-24.2 0Z" id="p253w334" />
<path d="M358.65 479.25l62.95 0l0 12.29l-62.95 0Z" id="p253w335" />
<path d="M424.3 479.31l11.94 0l0 12.23l-11.94 0Z" id="p253w336" />
<path d="M270.44 494.59l50.54 0l0 12.23l-50.54 0Z" id="p253w337" />
<path d="M323.69 494.59l28.81 0l0 12.23l-28.81 0Z" id="p253w338" />
<path d="M355.2 494.57l27.91 0l0 12.23l-27.91 0Z" id="p253w339" />
<path d="M385.81 494.35l15.54 0l0 12.56l-15.54 0Z" id="p253w340" />
<path d="M260.6 509.88l14.41 0l0 12.23l-14.41 0Z" id="p253w341" />
<path d="M277.7 509.82l54.56 0l0 12.29l-54.56 0Z" id="p253w342" />
<path d="M334.97 509.88l17.56 0l0 12.23l-17.56 0Z" id="p253w343" />
<path d="M355.23 509.88l24.09 0l0 12.23l-24.09 0Z" id="p253w344" />
<path d="M382.02 509.88l16.44 0l0 12.23l-16.44 0Z" id="p253w345" />
<path d="M401.16 509.88l30.14 0l0 12.23l-30.14 0Z" id="p253w346" />
<path d="M270.44 524.92l18.92 0l0 12.56l-18.92 0Z" id="p253w347" />
<path d="M260.6 540.44l14.41 0l0 12.23l-14.41 0Z" id="p253w348" />
<path d="M277.7 540.39l67.88 0l0 12.29l-67.88 0Z" id="p253w349" />
<path d="M348.28 540.44l17.56 0l0 12.23l-17.56 0Z" id="p253w350" />
<path d="M368.55 540.44l48.85 0l0 12.23l-48.85 0Z" id="p253w351" />
<path d="M420.1 540.2l19.58 0l0 12.56l-19.58 0Z" id="p253w352" />
<path d="M260.6 555.73l20.03 0l0 12.23l-20.03 0Z" id="p253w353" />
<path d="M283.33 555.67l24.72 0l0 12.29l-24.72 0Z" id="p253w354" />
<path d="M310.75 555.73l16.43 0l0 12.23l-16.43 0Z" id="p253w355" />
<path d="M329.88 555.73l38.26 0l0 12.23l-38.26 0Z" id="p253w356" />
<path d="M384.12 555.71l14.18 0l0 12.23l-14.18 0Z" id="p253w357" />
<path d="M401 555.48l15.54 0l0 12.56l-15.54 0Z" id="p253w358" />
<path d="M260.59 571.01l20.03 0l0 12.23l-20.03 0Z" id="p253w359" />
<path d="M283.32 570.96l47.37 0l0 12.29l-47.37 0Z" id="p253w360" />
<path d="M333.4 571.01l17.56 0l0 12.23l-17.56 0Z" id="p253w361" />
<path d="M353.66 571.01l41.88 0l0 12.23l-41.88 0Z" id="p253w362" />
<path d="M398.24 570.77l18.92 0l0 12.56l-18.92 0Z" id="p253w363" />
<path d="M260.59 586.29l16.43 0l0 12.23l-16.43 0Z" id="p253w364" />
<path d="M279.72 586.24l20.37 0l0 12.29l-20.37 0Z" id="p253w365" />
<path d="M302.8 586.29l8.33 0l0 12.23l-8.33 0Z" id="p253w366" />
<path d="M313.82 586.29l20.49 0l0 12.23l-20.49 0Z" id="p253w367" />
<path d="M337.01 586.05l14.63 0l0 12.56l-14.63 0Z" id="p253w368" />
<path d="M260.59 601.58l20.03 0l0 12.23l-20.03 0Z" id="p253w369" />
<path d="M283.32 601.52l32.51 0l0 12.29l-32.51 0Z" id="p253w370" />
<path d="M318.54 601.58l11.94 0l0 12.23l-11.94 0Z" id="p253w371" />
<path d="M333.17 601.58l21.84 0l0 12.23l-21.84 0Z" id="p253w372" />
<path d="M357.72 601.33l18.17 0l0 12.56l-18.17 0Z" id="p253w373" />
<path d="M260.59 616.86l17.78 0l0 12.23l-17.78 0Z" id="p253w374" />
<path d="M281.08 616.81l54.05 0l0 12.29l-54.05 0Z" id="p253w375" />
<path d="M337.83 616.86l51.04 0l0 12.23l-51.04 0Z" id="p253w376" />
<path d="M391.57 616.86l30.6 0l0 12.23l-30.6 0Z" id="p253w377" />
<path d="M424.88 616.86l8.33 0l0 12.23l-8.33 0Z" id="p253w378" />
<path d="M270.44 632.14l21.84 0l0 12.23l-21.84 0Z" id="p253w379" />
<path d="M294.98 631.9l15.54 0l0 12.56l-15.54 0Z" id="p253w380" />
<path d="M260.59 647.43l14.41 0l0 12.23l-14.41 0Z" id="p253w381" />
<path d="M277.7 647.37l32.21 0l0 12.29l-32.21 0Z" id="p253w382" />
<path d="M312.61 647.43l11.94 0l0 12.23l-11.94 0Z" id="p253w383" />
<path d="M327.25 647.43l22.5 0l0 12.23l-22.5 0Z" id="p253w384" />
<path d="M352.45 647.18l15.54 0l0 12.56l-15.54 0Z" id="p253w385" />
<path d="M260.59 662.71l14.41 0l0 12.23l-14.41 0Z" id="p253w386" />
<path d="M277.7 662.66l23.42 0l0 12.29l-23.42 0Z" id="p253w387" />
<path d="M303.82 662.71l11.94 0l0 12.23l-11.94 0Z" id="p253w388" />
<path d="M318.46 662.71l20.03 0l0 12.23l-20.03 0Z" id="p253w389" />
<path d="M341.19 662.47l19.58 0l0 12.56l-19.58 0Z" id="p253w390" />
<path d="M260.59 677.99l20.03 0l0 12.23l-20.03 0Z" id="p253w391" />
<path d="M283.32 677.94l41.3 0l0 12.29l-41.3 0Z" id="p253w392" />
<path d="M327.33 677.99l17.56 0l0 12.23l-17.56 0Z" id="p253w393" />
<path d="M347.59 677.99l59.21 0l0 12.23l-59.21 0Z" id="p253w394" />
<path d="M409.5 677.75l19.58 0l0 12.56l-19.58 0Z" id="p253w395" />
<path d="M260.59 693.28l20.03 0l0 12.23l-20.03 0Z" id="p253w396" />
<path d="M283.32 693.22l68.01 0l0 12.29l-68.01 0Z" id="p253w397" />
<path d="M354.04 693.28l17.56 0l0 12.23l-17.56 0Z" id="p253w398" />
<path d="M374.3 693.28l35.56 0l0 12.23l-35.56 0Z" id="p253w399" />
<path d="M412.56 693.03l17.81 0l0 12.56l-17.81 0Z" id="p253w400" />
<path d="M260.59 708.56l14.41 0l0 12.23l-14.41 0Z" id="p253w401" />
<path d="M277.7 708.51l49.54 0l0 12.29l-49.54 0Z" id="p253w402" />
<path d="M329.94 708.56l17.56 0l0 12.23l-17.56 0Z" id="p253w403" />
<path d="M350.2 708.56l25.42 0l0 12.23l-25.42 0Z" id="p253w404" />
<path d="M378.32 708.32l18.92 0l0 12.56l-18.92 0Z" id="p253w405" />
<path d="M260.59 723.84l20.03 0l0 12.23l-20.03 0Z" id="p253w406" />
<path d="M283.32 723.79l24.41 0l0 12.29l-24.41 0Z" id="p253w407" />
<path d="M310.43 723.84l11.94 0l0 12.23l-11.94 0Z" id="p253w408" />
<path d="M325.07 723.84l26.33 0l0 12.23l-26.33 0Z" id="p253w409" />
<path d="M354.1 723.6l14.63 0l0 12.56l-14.63 0Z" id="p253w410" />
<path d="M260.59 739.13l14.41 0l0 12.23l-14.41 0Z" id="p253w411" />
<path d="M277.7 739.07l29.7 0l0 12.29l-29.7 0Z" id="p253w412" />
<path d="M310.1 739.13l11.94 0l0 12.23l-11.94 0Z" id="p253w413" />
<path d="M324.74 739.13l28.37 0l0 12.23l-28.37 0Z" id="p253w414" />
<path d="M355.81 738.88l15.54 0l0 12.56l-15.54 0Z" id="p253w415" />
<path d="M260.59 754.41l20.03 0l0 12.23l-20.03 0Z" id="p253w416" />
<path d="M283.32 754.36l30.51 0l0 12.29l-30.51 0Z" id="p253w417" />
<path d="M316.54 754.41l17.56 0l0 12.23l-17.56 0Z" id="p253w418" />
<path d="M336.8 754.41l27.01 0l0 12.23l-27.01 0Z" id="p253w419" />
<path d="M366.51 754.17l18.92 0l0 12.56l-18.92 0Z" id="p253w420" />
<path d="M260.59 769.7l14.41 0l0 12.23l-14.41 0Z" id="p253w421" />
<path d="M277.7 769.64l22.4 0l0 12.29l-22.4 0Z" id="p253w422" />
<path d="M304.26 769.64l27.23 0l0 12.29l-27.23 0Z" id="p253w423" />
<path d="M334.2 769.7l11.94 0l0 12.23l-11.94 0Z" id="p253w424" />
<path d="M348.83 769.7l53.46 0l0 12.23l-53.46 0Z" id="p253w425" />
<path d="M270.44 784.98l37.83 0l0 12.23l-37.83 0Z" id="p253w426" />
<path d="M310.97 784.73l17.26 0l0 12.56l-17.26 0Z" id="p253w427" />
<path d="M260.59 800.26l14.41 0l0 12.23l-14.41 0Z" id="p253w428" />
<path d="M277.7 800.21l17.56 0l0 12.29l-17.56 0Z" id="p253w429" />
<path d="M297.96 800.26l11.94 0l0 12.23l-11.94 0Z" id="p253w430" />
<path d="M312.6 800.26l16.66 0l0 12.23l-16.66 0Z" id="p253w431" />
<path d="M331.96 800.02l14.79 0l0 12.56l-14.79 0Z" id="p253w432" />
<path d="M260.59 815.55l20.03 0l0 12.23l-20.03 0Z" id="p253w433" />
<path d="M283.32 815.49l67.31 0l0 12.29l-67.31 0Z" id="p253w434" />
<path d="M353.34 815.55l11.94 0l0 12.23l-11.94 0Z" id="p253w435" />
<path d="M367.98 815.55l22.72 0l0 12.23l-22.72 0Z" id="p253w436" />
<path d="M393.4 815.55l11.7 0l0 12.23l-11.7 0Z" id="p253w437" />
<path d="M407.8 815.55l16.66 0l0 12.23l-16.66 0Z" id="p253w438" />
<path d="M270.44 830.58l15.54 0l0 12.56l-15.54 0Z" id="p253w439" />
<path d="M260.59 846.11l14.41 0l0 12.23l-14.41 0Z" id="p253w440" />
<path d="M277.7 846.06l30.07 0l0 12.29l-30.07 0Z" id="p253w441" />
<path d="M310.47 846.11l8.33 0l0 12.23l-8.33 0Z" id="p253w442" />
<path d="M321.49 846.11l30.83 0l0 12.23l-30.83 0Z" id="p253w443" />
<path d="M355.03 845.87l15.54 0l0 12.56l-15.54 0Z" id="p253w444" />
<path d="M260.59 899.6l14.41 0l0 12.23l-14.41 0Z" id="p253w445" />
<path d="M277.7 899.55l20.79 0l0 12.29l-20.79 0Z" id="p253w446" />
<path d="M301.19 899.6l11.94 0l0 12.23l-11.94 0Z" id="p253w447" />
<path d="M315.83 899.6l19.81 0l0 12.23l-19.81 0Z" id="p253w448" />
<path d="M338.33 899.36l14.79 0l0 12.56l-14.79 0Z" id="p253w449" />
<path d="M260.59 914.83l37.27 0l0 12.29l-37.27 0Z" id="p253w450" />
<path d="M300.57 914.89l21.37 0l0 12.23l-21.37 0Z" id="p253w451" />
<path d="M324.64 914.89l11.94 0l0 12.23l-11.94 0Z" id="p253w452" />
<path d="M339.28 914.89l40.69 0l0 12.23l-40.69 0Z" id="p253w453" />
<path d="M382.67 914.64l18.72 0l0 12.56l-18.72 0Z" id="p253w454" />
<path d="M260.59 930.17l14.41 0l0 12.23l-14.41 0Z" id="p253w455" />
<path d="M277.7 930.12l35.01 0l0 12.29l-35.01 0Z" id="p253w456" />
<path d="M315.42 930.17l11.94 0l0 12.23l-11.94 0Z" id="p253w457" />
<path d="M330.05 930.17l33.93 0l0 12.23l-33.93 0Z" id="p253w458" />
<path d="M366.69 929.93l18.92 0l0 12.56l-18.92 0Z" id="p253w459" />
<path d="M462.11 112.5l14.41 0l0 12.23l-14.41 0Z" id="p253w460" />
<path d="M479.22 112.45l16.14 0l0 12.29l-16.14 0Z" id="p253w461" />
<path d="M498.06 112.5l11.94 0l0 12.23l-11.94 0Z" id="p253w462" />
<path d="M512.7 112.5l16.22 0l0 12.23l-16.22 0Z" id="p253w463" />
<path d="M531.62 112.48l15.53 0l0 12.23l-15.53 0Z" id="p253w464" />
<path d="M549.85 112.48l29.26 0l0 12.23l-29.26 0Z" id="p253w465" />
<path d="M581.8 112.48l11.48 0l0 12.23l-11.48 0Z" id="p253w466" />
<path d="M471.96 127.76l70.67 0l0 12.23l-70.67 0Z" id="p253w467" />
<path d="M545.33 127.76l9.23 0l0 12.23l-9.23 0Z" id="p253w468" />
<path d="M557.26 127.76l66.39 0l0 12.23l-66.39 0Z" id="p253w469" />
<path d="M626.35 127.54l14.63 0l0 12.56l-14.63 0Z" id="p253w470" />
<path d="M462.11 143.07l14.41 0l0 12.23l-14.41 0Z" id="p253w471" />
<path d="M479.22 143.01l46.19 0l0 12.29l-46.19 0Z" id="p253w472" />
<path d="M528.12 143.07l11.94 0l0 12.23l-11.94 0Z" id="p253w473" />
<path d="M542.75 143.07l43.66 0l0 12.23l-43.66 0Z" id="p253w474" />
<path d="M589.12 142.83l18.92 0l0 12.56l-18.92 0Z" id="p253w475" />
<path d="M462.11 158.35l15.75 0l0 12.23l-15.75 0Z" id="p253w476" />
<path d="M480.56 158.35l20.04 0l0 12.23l-20.04 0Z" id="p253w477" />
<path d="M503.31 158.3l35.85 0l0 12.29l-35.85 0Z" id="p253w478" />
<path d="M541.85 158.35l33.76 0l0 12.23l-33.76 0Z" id="p253w479" />
<path d="M578.31 158.35l21.39 0l0 12.23l-21.39 0Z" id="p253w480" />
<path d="M602.4 158.35l12.16 0l0 12.23l-12.16 0Z" id="p253w481" />
<path d="M471.96 173.39l18.92 0l0 12.56l-18.92 0Z" id="p253w482" />
<path d="M462.11 188.92l14.41 0l0 12.23l-14.41 0Z" id="p253w483" />
<path d="M479.22 188.86l28.35 0l0 12.29l-28.35 0Z" id="p253w484" />
<path d="M511.74 188.86l33.19 0l0 12.29l-33.19 0Z" id="p253w485" />
<path d="M547.63 188.92l38.16 0l0 12.23l-38.16 0Z" id="p253w486" />
<path d="M588.49 188.92l13.74 0l0 12.23l-13.74 0Z" id="p253w487" />
<path d="M604.93 188.9l26.33 0l0 12.23l-26.33 0Z" id="p253w488" />
<path d="M471.96 204.18l29.5 0l0 12.23l-29.5 0Z" id="p253w489" />
<path d="M504.16 204.18l43.89 0l0 12.23l-43.89 0Z" id="p253w490" />
<path d="M550.76 203.96l19.58 0l0 12.56l-19.58 0Z" id="p253w491" />
<path d="M462.11 219.49l14.41 0l0 12.23l-14.41 0Z" id="p253w492" />
<path d="M479.22 219.43l46.43 0l0 12.29l-46.43 0Z" id="p253w493" />
<path d="M528.35 219.49l11.94 0l0 12.23l-11.94 0Z" id="p253w494" />
<path d="M542.99 219.49l49.07 0l0 12.23l-49.07 0Z" id="p253w495" />
<path d="M594.76 219.24l14.63 0l0 12.56l-14.63 0Z" id="p253w496" />
<path d="M462.11 234.77l14.41 0l0 12.23l-14.41 0Z" id="p253w497" />
<path d="M479.22 234.71l70.86 0l0 12.29l-70.86 0Z" id="p253w498" />
<path d="M552.78 234.77l11.94 0l0 12.23l-11.94 0Z" id="p253w499" />
<path d="M567.42 234.77l22.45 0l0 12.23l-22.45 0Z" id="p253w500" />
<path d="M592.57 234.53l18.92 0l0 12.56l-18.92 0Z" id="p253w501" />
<path d="M462.11 250l19.12 0l0 12.29l-19.12 0Z" id="p253w502" />
<path d="M483.93 250.03l25.65 0l0 12.23l-25.65 0Z" id="p253w503" />
<path d="M512.29 250.05l19.37 0l0 12.23l-19.37 0Z" id="p253w504" />
<path d="M534.36 250.03l27.91 0l0 12.23l-27.91 0Z" id="p253w505" />
<path d="M564.97 249.81l14.79 0l0 12.56l-14.79 0Z" id="p253w506" />
<path d="M462.11 265.34l14.41 0l0 12.23l-14.41 0Z" id="p253w507" />
<path d="M479.22 265.28l43.74 0l0 12.29l-43.74 0Z" id="p253w508" />
<path d="M525.66 265.34l11.94 0l0 12.23l-11.94 0Z" id="p253w509" />
<path d="M540.3 265.34l42.79 0l0 12.23l-42.79 0Z" id="p253w510" />
<path d="M585.79 265.09l18.92 0l0 12.56l-18.92 0Z" id="p253w511" />
<path d="M462.11 280.62l14.41 0l0 12.23l-14.41 0Z" id="p253w512" />
<path d="M479.22 280.56l31.37 0l0 12.29l-31.37 0Z" id="p253w513" />
<path d="M510.59 280.62l24.2 0l0 12.23l-24.2 0Z" id="p253w514" />
<path d="M537.49 280.56l36.99 0l0 12.29l-36.99 0Z" id="p253w515" />
<path d="M577.18 280.62l11.94 0l0 12.23l-11.94 0Z" id="p253w516" />
<path d="M591.82 280.62l51.91 0l0 12.23l-51.91 0Z" id="p253w517" />
<path d="M471.96 295.9l35.8 0l0 12.23l-35.8 0Z" id="p253w518" />
<path d="M510.46 295.66l14.63 0l0 12.56l-14.63 0Z" id="p253w519" />
<path d="M462.11 311.19l20.03 0l0 12.23l-20.03 0Z" id="p253w520" />
<path d="M484.84 311.13l26.95 0l0 12.29l-26.95 0Z" id="p253w521" />
<path d="M514.5 311.19l17.56 0l0 12.23l-17.56 0Z" id="p253w522" />
<path d="M534.76 311.19l26.11 0l0 12.23l-26.11 0Z" id="p253w523" />
<path d="M563.57 310.94l15.54 0l0 12.56l-15.54 0Z" id="p253w524" />
<path d="M462.11 326.47l14.41 0l0 12.23l-14.41 0Z" id="p253w525" />
<path d="M479.22 326.42l82.02 0l0 12.29l-82.02 0Z" id="p253w526" />
<path d="M563.94 326.47l17.56 0l0 12.23l-17.56 0Z" id="p253w527" />
<path d="M584.2 326.47l38.26 0l0 12.23l-38.26 0Z" id="p253w528" />
<path d="M471.96 341.51l15.54 0l0 12.56l-15.54 0Z" id="p253w529" />
<path d="M462.11 357.04l14.41 0l0 12.23l-14.41 0Z" id="p253w530" />
<path d="M479.22 356.98l43.64 0l0 12.29l-43.64 0Z" id="p253w531" />
<path d="M525.56 357.04l11.94 0l0 12.23l-11.94 0Z" id="p253w532" />
<path d="M540.2 357.04l42.09 0l0 12.23l-42.09 0Z" id="p253w533" />
<path d="M584.99 356.79l14.79 0l0 12.56l-14.79 0Z" id="p253w534" />
<path d="M462.11 410.48l11.69 0l0 12.29l-11.69 0Z" id="p253w535" />
<path d="M476.51 410.53l8.33 0l0 12.23l-8.33 0Z" id="p253w536" />
<path d="M487.53 410.29l14.79 0l0 12.56l-14.79 0Z" id="p253w537" />
<path d="M471.96 425.82l11.7 0l0 12.23l-11.7 0Z" id="p253w538" />
<path d="M486.37 425.82l11.25 0l0 12.23l-11.25 0Z" id="p253w539" />
<path d="M500.32 425.82l22.06 0l0 12.23l-22.06 0Z" id="p253w540" />
<path d="M525.08 425.57l14.79 0l0 12.56l-14.79 0Z" id="p253w541" />
<path d="M471.96 441.1l11.7 0l0 12.23l-11.7 0Z" id="p253w542" />
<path d="M486.37 441.1l19.58 0l0 12.23l-19.58 0Z" id="p253w543" />
<path d="M508.65 441.1l22.06 0l0 12.23l-22.06 0Z" id="p253w544" />
<path d="M533.42 440.86l14.79 0l0 12.56l-14.79 0Z" id="p253w545" />
<path d="M462.11 456.33l11.69 0l0 12.29l-11.69 0Z" id="p253w546" />
<path d="M476.51 456.39l34.89 0l0 12.23l-34.89 0Z" id="p253w547" />
<path d="M514.1 456.14l18.17 0l0 12.56l-18.17 0Z" id="p253w548" />
<path d="M462.11 471.61l27.3 0l0 12.29l-27.3 0Z" id="p253w549" />
<path d="M492.11 471.67l11.7 0l0 12.23l-11.7 0Z" id="p253w550" />
<path d="M506.52 471.42l18.92 0l0 12.56l-18.92 0Z" id="p253w551" />
<path d="M462.11 486.9l33.8 0l0 12.29l-33.8 0Z" id="p253w552" />
<path d="M498.62 486.95l27.83 0l0 12.23l-27.83 0Z" id="p253w553" />
<path d="M529.15 486.71l18.92 0l0 12.56l-18.92 0Z" id="p253w554" />
<path d="M462.11 502.24l20.03 0l0 12.23l-20.03 0Z" id="p253w555" />
<path d="M484.84 502.18l27.55 0l0 12.29l-27.55 0Z" id="p253w556" />
<path d="M515.1 502.24l17.56 0l0 12.23l-17.56 0Z" id="p253w557" />
<path d="M535.36 502.24l26.55 0l0 12.23l-26.55 0Z" id="p253w558" />
<path d="M564.62 501.99l19.58 0l0 12.56l-19.58 0Z" id="p253w559" />
<path d="M462.11 517.46l34.1 0l0 12.29l-34.1 0Z" id="p253w560" />
<path d="M498.92 517.52l25.88 0l0 12.23l-25.88 0Z" id="p253w561" />
<path d="M527.49 517.27l14.63 0l0 12.56l-14.63 0Z" id="p253w562" />
<path d="M547.27 517.52l34.43 0l0 12.23l-34.43 0Z" id="p253w563" />
<path d="M584.4 517.27l18.17 0l0 12.56l-18.17 0Z" id="p253w564" />
<path d="M462.11 532.75l41.18 0l0 12.29l-41.18 0Z" id="p253w565" />
<path d="M506 532.78l25.65 0l0 12.23l-25.65 0Z" id="p253w566" />
<path d="M534.35 532.8l26.05 0l0 12.23l-26.05 0Z" id="p253w567" />
<path d="M563.11 532.56l15.54 0l0 12.56l-15.54 0Z" id="p253w568" />
<path d="M462.11 548.03l29.04 0l0 12.29l-29.04 0Z" id="p253w569" />
<path d="M493.86 548.09l26.33 0l0 12.23l-26.33 0Z" id="p253w570" />
<path d="M522.89 547.84l13.88 0l0 12.56l-13.88 0Z" id="p253w571" />
<path d="M462.11 563.37l20.04 0l0 12.23l-20.04 0Z" id="p253w572" />
<path d="M484.85 563.37l13.28 0l0 12.23l-13.28 0Z" id="p253w573" />
<path d="M500.84 563.37l19.44 0l0 12.23l-19.44 0Z" id="p253w574" />
<path d="M522.98 563.31l35.12 0l0 12.29l-35.12 0Z" id="p253w575" />
<path d="M560.8 563.37l45.23 0l0 12.23l-45.23 0Z" id="p253w576" />
<path d="M608.73 563.37l12.16 0l0 12.23l-12.16 0Z" id="p253w577" />
<path d="M623.59 563.37l15.87 0l0 12.23l-15.87 0Z" id="p253w578" />
<path d="M471.96 578.65l21.62 0l0 12.23l-21.62 0Z" id="p253w579" />
<path d="M496.28 578.65l11.04 0l0 12.23l-11.04 0Z" id="p253w580" />
<path d="M510.02 578.41l18.92 0l0 12.56l-18.92 0Z" id="p253w581" />
<path d="M462.11 593.88l23.85 0l0 12.29l-23.85 0Z" id="p253w582" />
<path d="M488.67 593.94l19.36 0l0 12.23l-19.36 0Z" id="p253w583" />
<path d="M510.73 593.69l15.54 0l0 12.56l-15.54 0Z" id="p253w584" />
<path d="M462.11 609.16l23.85 0l0 12.29l-23.85 0Z" id="p253w585" />
<path d="M488.67 609.16l23.41 0l0 12.29l-23.41 0Z" id="p253w586" />
<path d="M514.78 609.16l23.53 0l0 12.29l-23.53 0Z" id="p253w587" />
<path d="M540.71 609.22l19.82 0l0 12.23l-19.82 0Z" id="p253w588" />
<path d="M563.23 609.22l13.5 0l0 12.23l-13.5 0Z" id="p253w589" />
<path d="M585.29 608.97l18.92 0l0 12.56l-18.92 0Z" id="p253w590" />
<path d="M462.11 624.45l27.31 0l0 12.29l-27.31 0Z" id="p253w591" />
<path d="M499.78 624.26l18.92 0l0 12.56l-18.92 0Z" id="p253w592" />
<path d="M462.11 639.73l30.9 0l0 12.29l-30.9 0Z" id="p253w593" />
<path d="M495.71 639.79l31.73 0l0 12.23l-31.73 0Z" id="p253w594" />
<path d="M530.15 639.54l15.34 0l0 12.56l-15.34 0Z" id="p253w595" />
<path d="M462.11 655.01l32.03 0l0 12.29l-32.03 0Z" id="p253w596" />
<path d="M496.85 655.07l11.7 0l0 12.23l-11.7 0Z" id="p253w597" />
<path d="M511.25 654.83l18.92 0l0 12.56l-18.92 0Z" id="p253w598" />
<path d="M462.11 670.3l37.17 0l0 12.29l-37.17 0Z" id="p253w599" />
<path d="M501.98 670.35l11.7 0l0 12.23l-11.7 0Z" id="p253w600" />
<path d="M516.39 670.11l18.92 0l0 12.56l-18.92 0Z" id="p253w601" />
<path d="M462.11 685.58l16.53 0l0 12.29l-16.53 0Z" id="p253w602" />
<path d="M481.34 685.64l10.58 0l0 12.23l-10.58 0Z" id="p253w603" />
<path d="M494.62 685.39l14.79 0l0 12.56l-14.79 0Z" id="p253w604" />
<path d="M471.96 700.92l16.43 0l0 12.23l-16.43 0Z" id="p253w605" />
<path d="M491.09 700.92l22.46 0l0 12.23l-22.46 0Z" id="p253w606" />
<path d="M516.25 700.92l32.15 0l0 12.23l-32.15 0Z" id="p253w607" />
<path d="M551.1 700.68l14.79 0l0 12.56l-14.79 0Z" id="p253w608" />
<path d="M462.11 716.15l21.36 0l0 12.29l-21.36 0Z" id="p253w609" />
<path d="M486.18 716.18l62.36 0l0 12.23l-62.36 0Z" id="p253w610" />
<path d="M551.23 716.2l17.56 0l0 12.23l-17.56 0Z" id="p253w611" />
<path d="M571.5 715.96l15.54 0l0 12.56l-15.54 0Z" id="p253w612" />
<path d="M462.11 731.43l40.56 0l0 12.29l-40.56 0Z" id="p253w613" />
<path d="M506.84 731.43l39.47 0l0 12.29l-39.47 0Z" id="p253w614" />
<path d="M550.48 731.43l41.5 0l0 12.29l-41.5 0Z" id="p253w615" />
<path d="M594.68 731.49l8.33 0l0 12.23l-8.33 0Z" id="p253w616" />
<path d="M605.71 731.49l33.87 0l0 12.23l-33.87 0Z" id="p253w617" />
<path d="M471.96 746.77l8.33 0l0 12.23l-8.33 0Z" id="p253w618" />
<path d="M482.99 746.77l29.7 0l0 12.23l-29.7 0Z" id="p253w619" />
<path d="M515.39 746.53l15.34 0l0 12.56l-15.34 0Z" id="p253w620" />
<path d="M462.11 762.05l50.65 0l0 12.23l-50.65 0Z" id="p253w621" />
<path d="M515.47 762l28.32 0l0 12.29l-28.32 0Z" id="p253w622" />
<path d="M546.49 762.05l17.56 0l0 12.23l-17.56 0Z" id="p253w623" />
<path d="M566.75 762.05l6.3 0l0 12.23l-6.3 0Z" id="p253w624" />
<path d="M573.05 762.05l16.66 0l0 12.23l-16.66 0Z" id="p253w625" />
<path d="M592.42 762.05l46.83 0l0 12.23l-46.83 0Z" id="p253w626" />
<path d="M471.96 777.09l18.92 0l0 12.56l-18.92 0Z" id="p253w627" />
<path d="M462.11 792.62l20.03 0l0 12.23l-20.03 0Z" id="p253w628" />
<path d="M484.84 792.56l52.92 0l0 12.29l-52.92 0Z" id="p253w629" />
<path d="M540.46 792.62l11.94 0l0 12.23l-11.94 0Z" id="p253w630" />
<path d="M555.1 792.62l60.1 0l0 12.23l-60.1 0Z" id="p253w631" />
<path d="M617.9 792.38l18.01 0l0 12.56l-18.01 0Z" id="p253w632" />
<path d="M462.11 807.85l33.27 0l0 12.29l-33.27 0Z" id="p253w633" />
<path d="M498.08 807.9l25.21 0l0 12.23l-25.21 0Z" id="p253w634" />
<path d="M525.99 807.66l18.92 0l0 12.56l-18.92 0Z" id="p253w635" />
<path d="M462.11 823.19l17.78 0l0 12.23l-17.78 0Z" id="p253w636" />
<path d="M482.3 823.19l23.64 0l0 12.23l-23.64 0Z" id="p253w637" />
<path d="M508.64 823.13l33.65 0l0 12.29l-33.65 0Z" id="p253w638" />
<path d="M544.99 823.19l31.95 0l0 12.23l-31.95 0Z" id="p253w639" />
<path d="M579.63 823.19l8.33 0l0 12.23l-8.33 0Z" id="p253w640" />
<path d="M590.66 823.19l23.85 0l0 12.23l-23.85 0Z" id="p253w641" />
<path d="M471.96 838.23l18.72 0l0 12.56l-18.72 0Z" id="p253w642" />
<path d="M462.11 853.75l19.44 0l0 12.23l-19.44 0Z" id="p253w643" />
<path d="M484.25 853.7l18.31 0l0 12.29l-18.31 0Z" id="p253w644" />
<path d="M502.56 853.7l30.04 0l0 12.29l-30.04 0Z" id="p253w645" />
<path d="M535.31 853.75l18.01 0l0 12.23l-18.01 0Z" id="p253w646" />
<path d="M553.31 853.75l12.6 0l0 12.23l-12.6 0Z" id="p253w647" />
<path d="M568.62 853.75l11.04 0l0 12.23l-11.04 0Z" id="p253w648" />
<path d="M582.36 853.51l18.92 0l0 12.56l-18.92 0Z" id="p253w649" />
<path d="M462.11 868.98l20.57 0l0 12.29l-20.57 0Z" id="p253w650" />
<path d="M486.86 868.98l26.2 0l0 12.29l-26.2 0Z" id="p253w651" />
<path d="M515.75 869.04l47.72 0l0 12.23l-47.72 0Z" id="p253w652" />
<path d="M566.17 868.79l14.79 0l0 12.56l-14.79 0Z" id="p253w653" />
<path d="M462.11 884.27l17.76 0l0 12.29l-17.76 0Z" id="p253w654" />
<path d="M484.04 884.27l14.49 0l0 12.29l-14.49 0Z" id="p253w655" />
<path d="M502.71 884.27l16.53 0l0 12.29l-16.53 0Z" id="p253w656" />
<path d="M521.93 884.3l84.35 0l0 12.23l-84.35 0Z" id="p253w657" />
<path d="M608.84 884.3l33.77 0l0 12.23l-33.77 0Z" id="p253w658" />
<path d="M471.96 899.6l35.69 0l0 12.23l-35.69 0Z" id="p253w659" />
<path d="M510.35 899.36l15.54 0l0 12.56l-15.54 0Z" id="p253w660" />
<path d="M462.11 914.89l11.7 0l0 12.23l-11.7 0Z" id="p253w661" />
<path d="M476.52 914.89l40.5 0l0 12.23l-40.5 0Z" id="p253w662" />
<path d="M519.72 914.83l35.11 0l0 12.29l-35.11 0Z" id="p253w663" />
<path d="M557.54 914.89l31.96 0l0 12.23l-31.96 0Z" id="p253w664" />
<path d="M600.52 914.89l27.37 0l0 12.23l-27.37 0Z" id="p253w665" />
<path d="M471.96 929.93l15.54 0l0 12.56l-15.54 0Z" id="p253w666" />
</svg>
