<?xml version="1.0" encoding="UTF-8"?>
<svg xmlns="http://www.w3.org/2000/svg" xmlns:xlink="http://www.w3.org/1999/xlink" version="1.1" baseProfile="full" width="768" height="1024" viewBox="0,0,768,1024" preserveAspectRatio="xMinYMin meet" >
<style type="text/css">
<![CDATA[
path {fill-opacity: 0.5;fill: #00aeef;visibility: hidden;}
]]>
</style>
<path d="M581.24 267.32l11.82 0l0 -40.34l-11.82 0Z" id="p278w1" />
<path d="M658.24 334.35l11.82 0l0 -52.06l-11.82 0Z" id="p278w2" />
<path d="M698.42 297.74l11.82 0l0 -53.43l-11.82 0Z" id="p278w3" />
<path d="M643.51 192.38l11.82 0l0 -31.52l-11.82 0Z" id="p278w4" />
<path d="M460.25 238.09l11.82 0l0 -46l-11.82 0Z" id="p278w5" />
<path d="M310.41 217.1l11.82 0l0 -54.64l-11.82 0Z" id="p278w6" />
<path d="M219.4 162.19l11.82 0l0 -72.57l-11.82 0Z" id="p278w7" />
<path d="M193.29 169.17l11.82 0l0 -39.58l-11.82 0Z" id="p278w8" />
<path d="M85.25 177.2l11.82 0l0 -39.23l-11.82 0Z" id="p278w9" />
<path d="M205.34 252.2l11.82 0l0 -54.55l-11.82 0Z" id="p278w10" />
<path d="M42.39 171.95l11.82 0l0 -49.41l-11.82 0Z" id="p278w11" />
<path d="M139.34 302.66l11.82 0l0 -73.05l-11.82 0Z" id="p278w12" />
<path d="M156.73 369.36l11.83 0l0 -9.99l-11.83 0Z" id="p278w13" />
<path d="M156.73 355.7l11.83 0l0 -20.76l-11.83 0Z" id="p278w14" />
<path d="M156.73 331.26l11.83 0l0 -13.54l-11.83 0Z" id="p278w15" />
<path d="M156.73 314.04l11.83 0l0 -81.98l-11.83 0Z" id="p278w16" />
<path d="M279.44 239.2l11.82 0l0 -23.36l-11.82 0Z" id="p278w17" />
<path d="M536.59 405.4l11.82 0l0 -53.03l-11.82 0Z" id="p278w18" />
<path d="M436.17 384.86l11.82 0l0 -37.76l-11.82 0Z" id="p278w19" />
<path d="M408.15 413.51l11.82 0l0 -55.59l-11.82 0Z" id="p278w20" />
<path d="M595.66 324.78l11.82 0l0 -23.51l-11.82 0Z" id="p278w21" />
<path d="M278.97 329.95l11.82 0l0 -59.71l-11.82 0Z" id="p278w22" />
<path d="M144.1 114.88l11.82 0l0 -52.62l-11.82 0Z" id="p278w23" />
<path d="M432 275.82l11.83 0l0 -62.01l-11.83 0Z" id="p278w24" />
<path d="M520.39 442.55l11.83 0l0 -35.24l-11.83 0Z" id="p278w25" />
<path d="M520.39 403.63l11.83 0l0 -45.04l-11.83 0Z" id="p278w26" />
<path d="M520.39 355.2l11.83 0l0 -23.13l-11.83 0Z" id="p278w27" />
<path d="M481.69 396.9l11.83 0l0 -35.24l-11.83 0Z" id="p278w28" />
<path d="M481.69 357.99l11.83 0l0 -13.01l-11.83 0Z" id="p278w29" />
<path d="M494.54 396.9l11.83 0l0 -58.58l-11.83 0Z" id="p278w30" />
<path d="M494.54 334.94l11.83 0l0 -23.13l-11.83 0Z" id="p278w31" />
<path d="M494.33 200.79l11.83 0l0 -47.87l-11.83 0Z" id="p278w32" />
<path d="M494.33 149.53l11.83 0l0 -23.13l-11.83 0Z" id="p278w33" />
<path d="M407.94 302.34l-3.23 0l0 -14.34l3.23 0Z" id="p278w34" />
<path d="M395.63 297l-16.55 0l0 -20.12l16.55 0Z" id="p278w35" />
<path d="M421.33 286.94l-10.78 0l0 -17.61l10.78 0Z" id="p278w36" />
<path d="M401.48 278.33l-22.31 0l0 -22.62l22.31 0Z" id="p278w37" />
<path d="M474.21 264.54l11.87 0l0 -46.71l-11.87 0Z" id="p278w38" />
<path d="M340.28 327.04l11.87 0l0 -39.32l-11.87 0Z" id="p278w39" />
<path d="M457.24 466.32l11.87 0l0 -18.58l-11.87 0Z" id="p278w40" />
<path d="M457.24 435.77l11.87 0l0 -27.26l-11.87 0Z" id="p278w41" />
<path d="M338.94 209.62l11.87 0l0 -14.93l-11.87 0Z" id="p278w42" />
<path d="M367.07 209.62l11.87 0l0 -33.92l-11.87 0Z" id="p278w43" />
<path d="M395.2 209.62l11.87 0l0 -31.14l-11.87 0Z" id="p278w44" />
<path d="M52.51 543.48l114.95 0l0 19.98l-114.95 0Z" id="p278w45" />
</svg>
