<?xml version="1.0" encoding="UTF-8"?>
<svg xmlns="http://www.w3.org/2000/svg" xmlns:xlink="http://www.w3.org/1999/xlink" version="1.1" baseProfile="full" width="768" height="1024" viewBox="0,0,768,1024" preserveAspectRatio="xMinYMin meet" >
<style type="text/css">
<![CDATA[
path {fill-opacity: 0.5;fill: #00aeef;visibility: hidden;}
]]>
</style>
<path d="M124.06 110.53l25.37 0l0 26.12l-25.37 0Z" id="p8w1" />
<path d="M155.17 110.53l53.57 0l0 26.12l-53.57 0Z" id="p8w2" />
<path d="M214.48 110.53l46.27 0l0 26.12l-46.27 0Z" id="p8w3" />
<path d="M266.49 110.53l72.82 0l0 26.12l-72.82 0Z" id="p8w4" />
<path d="M129.97 165.36l38.69 0l0 15.37l-38.69 0Z" id="p8w5" />
<path d="M238.44 165.58l29.37 0l0 13.76l-29.37 0Z" id="p8w6" />
<path d="M270.85 165.58l16.71 0l0 13.76l-16.71 0Z" id="p8w7" />
<path d="M290.6 165.58l46.08 0l0 13.76l-46.08 0Z" id="p8w8" />
<path d="M238.44 180.86l24.06 0l0 13.76l-24.06 0Z" id="p8w9" />
<path d="M265.54 180.86l16.21 0l0 13.76l-16.21 0Z" id="p8w10" />
<path d="M284.78 180.86l55.14 0l0 13.76l-55.14 0Z" id="p8w11" />
<path d="M238.44 196.14l48.37 0l0 13.76l-48.37 0Z" id="p8w12" />
<path d="M388.5 165.59l34.85 0l0 13.84l-34.85 0Z" id="p8w13" />
<path d="M388.5 180.88l103.78 0l0 13.84l-103.78 0Z" id="p8w14" />
<path d="M573.6 165.58l83.82 0l0 13.76l-83.82 0Z" id="p8w15" />
<path d="M660.46 165.58l18.48 0l0 13.76l-18.48 0Z" id="p8w16" />
<path d="M573.6 180.86l31.9 0l0 13.76l-31.9 0Z" id="p8w17" />
<path d="M129.97 221.41l39.24 0l0 15.37l-39.24 0Z" id="p8w18" />
<path d="M129.97 240.69l36.85 0l0 15.28l-36.85 0Z" id="p8w19" />
<path d="M129.97 255.98l55.99 0l0 15.28l-55.99 0Z" id="p8w20" />
<path d="M238.44 237.98l24.06 0l0 13.76l-24.06 0Z" id="p8w21" />
<path d="M265.54 237.98l77.49 0l0 13.76l-77.49 0Z" id="p8w22" />
<path d="M346.07 237.98l20.27 0l0 13.76l-20.27 0Z" id="p8w23" />
<path d="M238.44 253.26l20.77 0l0 13.76l-20.77 0Z" id="p8w24" />
<path d="M262.25 253.26l79 0l0 13.76l-79 0Z" id="p8w25" />
<path d="M238.44 268.54l64.52 0l0 13.76l-64.52 0Z" id="p8w26" />
<path d="M306 268.54l9.88 0l0 13.76l-9.88 0Z" id="p8w27" />
<path d="M318.92 268.54l17.47 0l0 13.76l-17.47 0Z" id="p8w28" />
<path d="M339.01 268.54l20.18 0l0 13.76l-20.18 0ZM238.44 283.82l60.4 0l0 13.76l-60.4 0Z" id="p8w29" />
<path d="M301.88 283.82l48.37 0l0 13.76l-48.37 0Z" id="p8w30" />
<path d="M388.5 237.97l40.48 0l0 13.76l-40.48 0Z" id="p8w31" />
<path d="M432.01 237.97l18.48 0l0 13.76l-18.48 0Z" id="p8w32" />
<path d="M453.53 237.94l48.63 0l0 13.76l-48.63 0Z" id="p8w33" />
<path d="M129.97 309.18l23.37 0l0 15.28l-23.37 0Z" id="p8w34" />
<path d="M182.7 309.18l10.41 0l0 15.28l-10.41 0Z" id="p8w35" />
<path d="M129.97 324.46l65.57 0l0 15.28l-65.57 0Z" id="p8w36" />
<path d="M198.91 324.46l14.63 0l0 15.28l-14.63 0Z" id="p8w37" />
<path d="M129.97 339.74l63.91 0l0 15.28l-63.91 0Z" id="p8w38" />
<path d="M238.44 309.31l29.37 0l0 13.76l-29.37 0Z" id="p8w39" />
<path d="M270.85 309.31l65.32 0l0 13.76l-65.32 0Z" id="p8w40" />
<path d="M336.18 309.31l13.37 0l0 13.76l-13.37 0Z" id="p8w41" />
<path d="M238.44 324.6l47.87 0l0 13.76l-47.87 0Z" id="p8w42" />
<path d="M238.44 339.88l70.85 0l0 13.76l-70.85 0Z" id="p8w43" />
<path d="M312.04 339.88l60.53 0l0 13.76l-60.53 0Z" id="p8w44" />
<path d="M238.44 355.16l70.53 0l0 13.76l-70.53 0Z" id="p8w45" />
<path d="M312.01 355.16l60.53 0l0 13.76l-60.53 0Z" id="p8w46" />
<path d="M388.5 309.33l50.41 0l0 13.76l-50.41 0Z" id="p8w47" />
<path d="M441.94 309.33l18.48 0l0 13.76l-18.48 0Z" id="p8w48" />
<path d="M463.46 309.3l48.63 0l0 13.76l-48.63 0Z" id="p8w49" />
<path d="M388.5 324.58l48.63 0l0 13.76l-48.63 0Z" id="p8w50" />
<path d="M440.16 324.61l20.27 0l0 13.76l-20.27 0Z" id="p8w51" />
<path d="M463.47 324.58l30.14 0l0 13.76l-30.14 0Z" id="p8w52" />
<path d="M496.65 324.58l46.58 0l0 13.76l-46.58 0Z" id="p8w53" />
<path d="M388.5 339.86l21.51 0l0 13.76l-21.51 0Z" id="p8w54" />
<path d="M413.04 339.86l11.14 0l0 13.76l-11.14 0Z" id="p8w55" />
<path d="M427.06 339.86l27.5 0l0 13.76l-27.5 0Z" id="p8w56" />
<path d="M457.59 339.86l11.65 0l0 13.76l-11.65 0Z" id="p8w57" />
<path d="M472.13 339.86l22.52 0l0 13.76l-22.52 0Z" id="p8w58" />
<path d="M497.68 339.86l16.46 0l0 13.76l-16.46 0Z" id="p8w59" />
<path d="M388.5 355.14l32.81 0l0 13.76l-32.81 0Z" id="p8w60" />
<path d="M424.35 355.14l14.18 0l0 13.76l-14.18 0Z" id="p8w61" />
<path d="M388.5 369.21l17.97 0l0 15.49l-17.97 0Z" id="p8w62" />
<path d="M409.59 369.21l17.97 0l0 15.49l-17.97 0Z" id="p8w63" />
<path d="M430.69 369.21l13.66 0l0 15.49l-13.66 0Z" id="p8w64" />
<path d="M129.97 395.73l39.24 0l0 15.37l-39.24 0Z" id="p8w65" />
<path d="M129.97 415.02l23.37 0l0 15.28l-23.37 0Z" id="p8w66" />
<path d="M173.6 415.02l21.95 0l0 15.28l-21.95 0Z" id="p8w67" />
<path d="M198.93 415.02l20.73 0l0 15.28l-20.73 0ZM129.97 430.3l27.29 0l0 15.28l-27.29 0Z" id="p8w68" />
<path d="M160.63 430.3l47.84 0l0 15.28l-47.84 0Z" id="p8w69" />
<path d="M129.97 445.58l41 0l0 15.28l-41 0ZM129.97 460.87l61.61 0l0 15.28l-61.61 0Z" id="p8w70" />
<path d="M238.44 412.31l48.87 0l0 13.76l-48.87 0Z" id="p8w71" />
<path d="M290.35 412.31l20.27 0l0 13.76l-20.27 0Z" id="p8w72" />
<path d="M313.66 412.31l48.04 0l0 13.76l-48.04 0ZM238.44 427.59l19.94 0l0 13.76l-19.94 0Z" id="p8w73" />
<path d="M261.42 427.59l9.88 0l0 13.76l-9.88 0Z" id="p8w74" />
<path d="M274.34 427.59l17.47 0l0 13.76l-17.47 0Z" id="p8w75" />
<path d="M294.44 427.59l77.2 0l0 13.76l-77.2 0Z" id="p8w76" />
<path d="M238.44 442.87l47.87 0l0 13.76l-47.87 0Z" id="p8w77" />
<path d="M238.44 458.15l24.06 0l0 13.76l-24.06 0Z" id="p8w78" />
<path d="M265.54 458.15l20.01 0l0 13.76l-20.01 0Z" id="p8w79" />
<path d="M288.25 458.15l62.75 0l0 13.76l-62.75 0Z" id="p8w80" />
<path d="M238.44 473.43l48.37 0l0 13.76l-48.37 0Z" id="p8w81" />
<path d="M388.5 412.29l50.41 0l0 13.76l-50.41 0Z" id="p8w82" />
<path d="M441.94 412.29l18.48 0l0 13.76l-18.48 0Z" id="p8w83" />
<path d="M463.46 412.27l48.63 0l0 13.76l-48.63 0Z" id="p8w84" />
<path d="M388.5 427.57l20.35 0l0 13.76l-20.35 0Z" id="p8w85" />
<path d="M408.84 427.57l57.23 0l0 13.76l-57.23 0Z" id="p8w86" />
<path d="M469.11 427.57l13.42 0l0 13.76l-13.42 0Z" id="p8w87" />
<path d="M485.57 427.55l30.14 0l0 13.76l-30.14 0Z" id="p8w88" />
<path d="M388.5 442.83l46.58 0l0 13.76l-46.58 0Z" id="p8w89" />
<path d="M573.6 412.29l97.85 0l0 13.76l-97.85 0Z" id="p8w90" />
<path d="M129.97 498.7l30.12 0l0 15.37l-30.12 0Z" id="p8w91" />
<path d="M230.4 498.92l49.64 0l0 13.76l-49.64 0Z" id="p8w92" />
<path d="M283.08 498.92l24.06 0l0 13.76l-24.06 0Z" id="p8w93" />
<path d="M310.18 498.92l57.81 0l0 13.76l-57.81 0Z" id="p8w94" />
<path d="M371.03 498.92l20.27 0l0 13.76l-20.27 0Z" id="p8w95" />
<path d="M394.33 498.92l58.48 0l0 13.76l-58.48 0Z" id="p8w96" />
<path d="M455.86 498.92l17.72 0l0 13.76l-17.72 0Z" id="p8w97" />
<path d="M476.61 498.92l48.07 0l0 13.76l-48.07 0Z" id="p8w98" />
<path d="M527.72 498.92l16.47 0l0 13.76l-16.47 0Z" id="p8w99" />
<path d="M547.23 498.92l79.02 0l0 13.76l-79.02 0Z" id="p8w100" />
<path d="M124.06 561.66l23.03 0l0 26.12l-23.03 0Z" id="p8w101" />
<path d="M152.83 561.66l66.44 0l0 26.12l-66.44 0Z" id="p8w102" />
<path d="M225.01 561.66l24.87 0l0 26.12l-24.87 0Z" id="p8w103" />
<path d="M255.62 561.66l40.15 0l0 26.12l-40.15 0Z" id="p8w104" />
<path d="M129.97 616.49l38.69 0l0 15.37l-38.69 0Z" id="p8w105" />
<path d="M238.03 616.71l57.43 0l0 13.76l-57.43 0Z" id="p8w106" />
<path d="M298.5 616.71l42.29 0l0 13.76l-42.29 0Z" id="p8w107" />
<path d="M343.83 616.71l20.27 0l0 13.76l-20.27 0Z" id="p8w108" />
<path d="M238.03 632l20.77 0l0 13.76l-20.77 0Z" id="p8w109" />
<path d="M261.84 632l39.19 0l0 13.76l-39.19 0Z" id="p8w110" />
<path d="M573.6 616.71l28.1 0l0 13.76l-28.1 0Z" id="p8w111" />
<path d="M604.74 616.71l20.27 0l0 13.76l-20.27 0Z" id="p8w112" />
<path d="M628.05 616.71l45.15 0l0 13.76l-45.15 0Z" id="p8w113" />
<path d="M573.6 632l9.88 0l0 13.76l-9.88 0Z" id="p8w114" />
<path d="M586.52 632l54.96 0l0 13.76l-54.96 0Z" id="p8w115" />
<path d="M644.52 632l20.27 0l0 13.76l-20.27 0Z" id="p8w116" />
<path d="M573.6 647.28l65.85 0l0 13.76l-65.85 0Z" id="p8w117" />
<path d="M573.6 662.56l71.4 0l0 13.76l-71.4 0Z" id="p8w118" />
<path d="M648.04 662.56l21.53 0l0 13.76l-21.53 0Z" id="p8w119" />
<path d="M573.6 677.84l40.78 0l0 13.76l-40.78 0Z" id="p8w120" />
<path d="M617.42 677.84l42.29 0l0 13.76l-42.29 0Z" id="p8w121" />
<path d="M573.6 693.12l26.58 0l0 13.76l-26.58 0Z" id="p8w122" />
<path d="M603.22 693.12l32.16 0l0 13.76l-32.16 0Z" id="p8w123" />
<path d="M129.97 718.39l39.24 0l0 15.37l-39.24 0Z" id="p8w124" />
<path d="M129.97 737.68l34.6 0l0 15.28l-34.6 0Z" id="p8w125" />
<path d="M167.94 737.68l14.63 0l0 15.28l-14.63 0Z" id="p8w126" />
<path d="M185.95 737.68l10.41 0l0 15.28l-10.41 0Z" id="p8w127" />
<path d="M129.97 752.96l50.09 0l0 15.28l-50.09 0Z" id="p8w128" />
<path d="M183.43 752.96l20.55 0l0 15.28l-20.55 0Z" id="p8w129" />
<path d="M129.97 768.24l65.77 0l0 15.28l-65.77 0Z" id="p8w130" />
<path d="M238.44 734.96l24.06 0l0 13.76l-24.06 0Z" id="p8w131" />
<path d="M265.54 734.96l16.21 0l0 13.76l-16.21 0Z" id="p8w132" />
<path d="M284.78 734.96l39.84 0l0 13.76l-39.84 0Z" id="p8w133" />
<path d="M238.44 750.25l48.37 0l0 13.76l-48.37 0Z" id="p8w134" />
<path d="M238.44 765.53l50.86 0l0 13.76l-50.86 0Z" id="p8w135" />
<path d="M292.34 765.53l60.53 0l0 13.76l-60.53 0Z" id="p8w136" />
<path d="M238.44 780.81l52.67 0l0 13.76l-52.67 0Z" id="p8w137" />
<path d="M294.15 780.81l56.21 0l0 13.76l-56.21 0Z" id="p8w138" />
<path d="M388.5 734.93l29.02 0l0 13.76l-29.02 0Z" id="p8w139" />
<path d="M388.5 750.23l40.48 0l0 13.76l-40.48 0Z" id="p8w140" />
<path d="M432.01 750.23l17.47 0l0 13.76l-17.47 0Z" id="p8w141" />
<path d="M452.52 750.23l53.68 0l0 13.76l-53.68 0Z" id="p8w142" />
<path d="M509.24 750.23l16.97 0l0 13.76l-16.97 0Z" id="p8w143" />
<path d="M388.5 765.49l30.85 0l0 13.76l-30.85 0Z" id="p8w144" />
<path d="M388.5 780.79l50.41 0l0 13.76l-50.41 0Z" id="p8w145" />
<path d="M441.94 780.79l17.47 0l0 13.76l-17.47 0Z" id="p8w146" />
<path d="M462.45 780.79l53.68 0l0 13.76l-53.68 0Z" id="p8w147" />
<path d="M388.5 794.84l18.09 0l0 15.49l-18.09 0Z" id="p8w148" />
<path d="M409.72 794.84l18.91 0l0 15.49l-18.91 0Z" id="p8w149" />
<path d="M431.75 794.84l13.66 0l0 15.49l-13.66 0Z" id="p8w150" />
<path d="M388.5 811.37l31.89 0l0 13.84l-31.89 0Z" id="p8w151" />
<path d="M388.5 826.65l28.35 0l0 13.84l-28.35 0Z" id="p8w152" />
<path d="M573.6 734.91l20.42 0l0 13.76l-20.42 0Z" id="p8w153" />
<path d="M597.06 734.91l12.92 0l0 13.76l-12.92 0Z" id="p8w154" />
<path d="M613.02 734.91l9.38 0l0 13.76l-9.38 0Z" id="p8w155" />
<path d="M625.43 734.91l44.29 0l0 13.76l-44.29 0Z" id="p8w156" />
<path d="M573.6 750.22l69.57 0l0 13.76l-69.57 0Z" id="p8w157" />
<path d="M372.66 105.17l30.26 0l0 9.69l-30.26 0Z" id="p8w158" />
<path d="M407.09 103.37l34.16 0l0 9.49l-34.16 0Z" id="p8w159" />
<path d="M373.35 118.28l14.88 0l0 12.99l-14.88 0Z" id="p8w160" />
<path d="M390.54 117.38l33.59 0l0 12.01l-33.59 0Z" id="p8w161" />
<path d="M426.45 115.5l67.9 0l0 10.22l-67.9 0ZM374.15 133.54l40.67 0l0 11.64l-40.67 0Z" id="p8w162" />
<path d="M417.13 131.29l60.9 0l0 10.58l-60.9 0Z" id="p8w163" />
<path d="M576.98 91l63.9 0l0 13.83l-63.9 0ZM576.98 106.28l78.2 0l0 13.83l-78.2 0Z" id="p8w164" />
<path d="M576.98 121.62l55.22 0l0 13.76l-55.22 0Z" id="p8w165" />
<path d="M576.98 136.9l97.85 0l0 13.76l-97.85 0Z" id="p8w166" />
<path d="M238.03 616.71l57.43 0l0 13.76l-57.43 0Z" id="p8w167" />
<path d="M298.5 616.71l42.29 0l0 13.76l-42.29 0Z" id="p8w168" />
<path d="M343.83 616.71l20.27 0l0 13.76l-20.27 0Z" id="p8w169" />
<path d="M330.99 560.26l29.9 0l0 10.74l-29.9 0Z" id="p8w170" />
<path d="M365.46 559.66l33.8 0l0 10.67l-33.8 0Z" id="p8w171" />
<path d="M331.22 573.39l29.87 0l0 13.24l-29.87 0Z" id="p8w172" />
<path d="M363.89 572.81l41.77 0l0 13.03l-41.77 0Z" id="p8w173" />
<path d="M408.46 572.04l24.3 0l0 13.33l-24.3 0Z" id="p8w174" />
<path d="M435.56 571.56l16.44 0l0 13.47l-16.44 0Z" id="p8w175" />
<path d="M454.8 571.23l40.07 0l0 13.06l-40.07 0Z" id="p8w176" />
<path d="M502.44 570.4l29.61 0l0 13.24l-29.61 0Z" id="p8w177" />
<path d="M331.49 588.66l74.66 0l0 12.45l-74.66 0Z" id="p8w178" />
<path d="M408.94 587.31l16.94 0l0 13.46l-16.94 0Z" id="p8w179" />
<path d="M428.68 586.97l46.05 0l0 12.95l-46.05 0Z" id="p8w180" />
<path d="M477.53 586.11l29.36 0l0 13.24l-29.36 0Z" id="p8w181" />
<path d="M573.6 616.71l28.1 0l0 13.76l-28.1 0Z" id="p8w182" />
<path d="M604.74 616.71l20.27 0l0 13.76l-20.27 0Z" id="p8w183" />
<path d="M628.05 616.71l30.64 0l0 13.76l-30.64 0Z" id="p8w184" />
<path d="M576.98 559.06l63.9 0l0 13.83l-63.9 0ZM576.98 574.34l78.2 0l0 13.83l-78.2 0Z" id="p8w185" />
<path d="M576.98 589.68l34.7 0l0 13.76l-34.7 0Z" id="p8w186" />
<path d="M614.72 589.68l30.64 0l0 13.76l-30.64 0Z" id="p8w187" />
<path d="M230.4 34.12l85.02 0l0 13.83l-85.02 0Z" id="p8w188" />
<path d="M380.46 34.97l60.82 0l0 13.83l-60.82 0Z" id="p8w189" />
<path d="M444.32 34.97l35.46 0l0 13.83l-35.46 0Z" id="p8w190" />
<path d="M387.67 51.55l52.31 0l0 12.3l-52.31 0Z" id="p8w191" />
<path d="M449.68 51.55l52.53 0l0 12.3l-52.53 0Z" id="p8w192" />
<path d="M512.13 51.55l41.64 0l0 12.3l-41.64 0Z" id="p8w193" />
<path d="M565.56 34.97l68.69 0l0 13.83l-68.69 0Z" id="p8w194" />
<path d="M642.22 34.97l29.27 0l0 13.83l-29.27 0ZM565.56 50.25l50.67 0l0 13.83l-50.67 0Z" id="p8w195" />
<path d="M619.27 50.25l60.31 0l0 13.83l-60.31 0Z" id="p8w196" />
<path d="M76.9 973.94l12.38 0l0 12.23l-12.38 0Z" id="p8w197" />
</svg>
