<?xml version="1.0" encoding="UTF-8"?>
<svg xmlns="http://www.w3.org/2000/svg" xmlns:xlink="http://www.w3.org/1999/xlink" version="1.1" baseProfile="full" width="768" height="1024" viewBox="0,0,768,1024" preserveAspectRatio="xMinYMin meet" >
<style type="text/css">
<![CDATA[
path {fill-opacity: 0.5;fill: #00aeef;visibility: hidden;}
]]>
</style>
<path d="M124.06 806.1l51.89 0l0 14.52l-51.89 0Z" id="p28w1" />
<path d="M179.16 806.1l15.5 0l0 14.52l-15.5 0Z" id="p28w2" />
<path d="M197.86 806.1l18.44 0l0 14.52l-18.44 0Z" id="p28w3" />
<path d="M216.3 806.1l28.07 0l0 14.52l-28.07 0Z" id="p28w4" />
<path d="M247.58 806.1l33.33 0l0 14.52l-33.33 0Z" id="p28w5" />
<path d="M284.12 806.1l20.85 0l0 14.52l-20.85 0Z" id="p28w6" />
<path d="M308.18 806.1l25.67 0l0 14.52l-25.67 0Z" id="p28w7" />
<path d="M337.06 806.1l31.01 0l0 14.52l-31.01 0Z" id="p28w8" />
<path d="M371.27 806.1l22.99 0l0 14.52l-22.99 0Z" id="p28w9" />
<path d="M397.47 806.1l13.9 0l0 14.52l-13.9 0Z" id="p28w10" />
<path d="M414.58 806.1l26.99 0l0 14.52l-26.99 0Z" id="p28w11" />
<path d="M124.06 822.77l13.9 0l0 14.52l-13.9 0Z" id="p28w12" />
<path d="M141.17 822.77l24.06 0l0 14.52l-24.06 0Z" id="p28w13" />
<path d="M168.44 822.77l24.33 0l0 14.52l-24.33 0Z" id="p28w14" />
<path d="M195.97 822.77l72.07 0l0 14.52l-72.07 0Z" id="p28w15" />
<path d="M271.25 822.77l6.41 0l0 14.52l-6.41 0Z" id="p28w16" />
<path d="M280.87 822.77l29.16 0l0 14.52l-29.16 0Z" id="p28w17" />
<path d="M321.52 822.77l28.33 0l0 14.52l-28.33 0Z" id="p28w18" />
<path d="M353.06 822.77l50.01 0l0 14.52l-50.01 0Z" id="p28w19" />
<path d="M406.27 822.77l30.74 0l0 14.52l-30.74 0Z" id="p28w20" />
<path d="M124.06 856.11l51.89 0l0 14.52l-51.89 0Z" id="p28w21" />
<path d="M179.16 856.11l9.89 0l0 14.52l-9.89 0Z" id="p28w22" />
<path d="M192.25 856.11l28.33 0l0 14.52l-28.33 0Z" id="p28w23" />
<path d="M223.78 856.11l13.9 0l0 14.52l-13.9 0Z" id="p28w24" />
<path d="M240.89 856.11l36.89 0l0 14.52l-36.89 0Z" id="p28w25" />
<path d="M280.99 856.11l13.63 0l0 14.52l-13.63 0Z" id="p28w26" />
<path d="M297.83 856.11l32.62 0l0 14.52l-32.62 0Z" id="p28w27" />
<path d="M333.65 856.11l14.18 0l0 14.52l-14.18 0Z" id="p28w28" />
<path d="M351.04 856.11l23.79 0l0 14.52l-23.79 0Z" id="p28w29" />
<path d="M378.03 856.11l11.22 0l0 14.52l-11.22 0Z" id="p28w30" />
<path d="M392.46 856.11l27.26 0l0 14.52l-27.26 0Z" id="p28w31" />
<path d="M422.92 856.11l13.91 0l0 14.52l-13.91 0Z" id="p28w32" />
<path d="M440.04 856.11l15.5 0l0 14.52l-15.5 0Z" id="p28w33" />
<path d="M458.74 856.11l25.94 0l0 14.52l-25.94 0Z" id="p28w34" />
<path d="M487.89 856.11l13.9 0l0 14.52l-13.9 0Z" id="p28w35" />
<path d="M504.99 856.11l18.18 0l0 14.52l-18.18 0Z" id="p28w36" />
<path d="M526.38 856.11l27.78 0l0 14.52l-27.78 0Z" id="p28w37" />
<path d="M557.37 856.11l11.22 0l0 14.52l-11.22 0Z" id="p28w38" />
<path d="M571.8 856.11l45.79 0l0 14.52l-45.79 0Z" id="p28w39" />
<path d="M620.79 856.11l12.29 0l0 14.52l-12.29 0Z" id="p28w40" />
<path d="M636.29 856.11l50 0l0 14.52l-50 0Z" id="p28w41" />
<path d="M124.06 881.14l12.76 0l0 14.61l-12.76 0Z" id="p28w42" />
<path d="M140.03 881.14l46.95 0l0 14.61l-46.95 0Z" id="p28w43" />
<path d="M190.19 881.14l12.29 0l0 14.61l-12.29 0Z" id="p28w44" />
<path d="M205.69 881.14l35.45 0l0 14.61l-35.45 0Z" id="p28w45" />
<path d="M244.35 881.14l26.66 0l0 14.61l-26.66 0Z" id="p28w46" />
<path d="M274.22 881.14l35.99 0l0 14.61l-35.99 0Z" id="p28w47" />
<path d="M313.42 881.14l13.9 0l0 14.61l-13.9 0Z" id="p28w48" />
<path d="M330.53 881.14l9.82 0l0 14.61l-9.82 0Z" id="p28w49" />
<path d="M343.55 881.14l39.76 0l0 14.61l-39.76 0Z" id="p28w50" />
<path d="M124.06 914.47l31.01 0l0 14.52l-31.01 0Z" id="p28w51" />
<path d="M158.27 914.47l45.79 0l0 14.52l-45.79 0Z" id="p28w52" />
<path d="M207.27 914.47l13.91 0l0 14.52l-13.91 0Z" id="p28w53" />
<path d="M224.39 914.47l29.67 0l0 14.52l-29.67 0Z" id="p28w54" />
<path d="M257.27 914.47l68.41 0l0 14.52l-68.41 0Z" id="p28w55" />
<path d="M328.89 914.47l13.9 0l0 14.52l-13.9 0Z" id="p28w56" />
<path d="M345.99 914.47l12.57 0l0 14.52l-12.57 0Z" id="p28w57" />
<path d="M361.77 914.47l32.27 0l0 14.52l-32.27 0Z" id="p28w58" />
<path d="M397.25 914.47l33.05 0l0 14.52l-33.05 0Z" id="p28w59" />
<path d="M433.51 914.47l20.85 0l0 14.52l-20.85 0Z" id="p28w60" />
<path d="M457.57 914.47l25.67 0l0 14.52l-25.67 0Z" id="p28w61" />
<path d="M486.45 914.47l60.95 0l0 14.52l-60.95 0Z" id="p28w62" />
<path d="M124.06 931.14l26.73 0l0 14.52l-26.73 0Z" id="p28w63" />
<path d="M154 931.14l28.87 0l0 14.52l-28.87 0Z" id="p28w64" />
<path d="M186.07 931.14l25.4 0l0 14.52l-25.4 0Z" id="p28w65" />
<path d="M222.96 931.14l54.01 0l0 14.52l-54.01 0Z" id="p28w66" />
<path d="M60.68 807.88l27.93 0l0 12.29l-27.93 0Z" id="p28w67" />
<path d="M49.5 791.27l24.6 0l0 12.3l-24.6 0Z" id="p28w68" />
<path d="M60.68 916.25l27.93 0l0 12.29l-27.93 0Z" id="p28w69" />
<path d="M76.9 983l39.27 0l0 12.23l-39.27 0Z" id="p28w70" />
<path d="M35.45 194.38l35.03 0l0 39.25l-35.03 0Z" id="p28w71" />
<path d="M78.05 194.38l103.73 0l0 39.25l-103.73 0Z" id="p28w72" />
<path d="M35.45 229.11l37.84 0l0 39.25l-37.84 0Z" id="p28w73" />
<path d="M80.87 229.11l63.12 0l0 39.25l-63.12 0Z" id="p28w74" />
<path d="M106.13 33.95l35.16 0l0 11.53l-35.16 0Z" id="p28w75" />
<path d="M143.57 33.95l52.06 0l0 11.53l-52.06 0Z" id="p28w76" />
<path d="M106.34 46.45l29.88 0l0 11.53l-29.88 0Z" id="p28w77" />
<path d="M115.94 81.65l11.4 0l0 11.53l-11.4 0Z" id="p28w78" />
<path d="M129.87 81.65l18.86 0l0 11.53l-18.86 0Z" id="p28w79" />
<path d="M451.35 38.13l48.18 0l0 15.09l-48.18 0Z" id="p28w80" />
<path d="M503.14 38.13l46.72 0l0 15.09l-46.72 0Z" id="p28w81" />
<path d="M553.47 38.13l15.15 0l0 15.09l-15.15 0Z" id="p28w82" />
<path d="M572.23 38.13l38.17 0l0 15.09l-38.17 0Z" id="p28w83" />
<path d="M614.02 38.13l15.74 0l0 15.09l-15.74 0Z" id="p28w84" />
<path d="M633.37 38.13l21.87 0l0 15.09l-21.87 0Z" id="p28w85" />
<path d="M658.86 38.13l43.7 0l0 15.09l-43.7 0Z" id="p28w86" />
<path d="M451.35 54.8l14.59 0l0 15.09l-14.59 0Z" id="p28w87" />
<path d="M469.55 54.8l39.03 0l0 15.09l-39.03 0Z" id="p28w88" />
<path d="M512.19 54.8l56.7 0l0 15.09l-56.7 0Z" id="p28w89" />
<path d="M572.5 54.8l13.91 0l0 15.09l-13.91 0Z" id="p28w90" />
<path d="M590.02 54.8l27.75 0l0 15.09l-27.75 0Z" id="p28w91" />
<path d="M621.38 54.8l11.26 0l0 15.09l-11.26 0Z" id="p28w92" />
<path d="M636.25 54.8l50.73 0l0 15.09l-50.73 0Z" id="p28w93" />
<path d="M462.61 386.52l50.32 0l0 26.55l-50.32 0Z" id="p28w94" />
<path d="M500.81 775.15l29.67 0l0 19.73l-29.67 0Z" id="p28w95" />
<path d="M49.5 791.27l24.6 0l0 12.3l-24.6 0Z" id="p28w96" />
<path d="M53.6 742.98l25.75 0l0 22.56l-25.75 0Z" id="p28w97" />
<path d="M389.53 604.68l13.07 0l0 15.09l-13.07 0Z" id="p28w98" />
<path d="M406.21 604.68l34.7 0l0 15.09l-34.7 0Z" id="p28w99" />
<path d="M444.52 604.68l18.74 0l0 15.09l-18.74 0Z" id="p28w100" />
<path d="M466.87 604.68l23.12 0l0 15.09l-23.12 0Z" id="p28w101" />
<path d="M399.63 621.35l54.22 0l0 15.09l-54.22 0Z" id="p28w102" />
<path d="M457.46 621.35l16.64 0l0 15.09l-16.64 0Z" id="p28w103" />
<path d="M477.72 621.35l10.5 0l0 15.09l-10.5 0Z" id="p28w104" />
<path d="M389.53 638.02l47.42 0l0 15.09l-47.42 0Z" id="p28w105" />
<path d="M440.56 638.02l42.18 0l0 15.09l-42.18 0Z" id="p28w106" />
<path d="M389.53 654.69l14.59 0l0 15.09l-14.59 0Z" id="p28w107" />
<path d="M407.73 654.69l41.92 0l0 15.09l-41.92 0Z" id="p28w108" />
<path d="M453.26 654.69l19.01 0l0 15.09l-19.01 0Z" id="p28w109" />
<path d="M389.53 671.36l50.77 0l0 15.09l-50.77 0Z" id="p28w110" />
<path d="M443.9 671.36l10.5 0l0 15.09l-10.5 0Z" id="p28w111" />
<path d="M458.02 671.36l33.29 0l0 15.09l-33.29 0Z" id="p28w112" />
<path d="M389.53 688.03l19.73 0l0 15.09l-19.73 0Z" id="p28w113" />
<path d="M551.45 383.56l40.56 0l0 15.09l-40.56 0Z" id="p28w114" />
<path d="M595.62 383.56l31.89 0l0 15.09l-31.89 0Z" id="p28w115" />
<path d="M631.12 383.56l10.5 0l0 15.09l-10.5 0Z" id="p28w116" />
<path d="M645.23 383.56l42.18 0l0 15.09l-42.18 0Z" id="p28w117" />
<path d="M691.02 383.56l13.91 0l0 15.09l-13.91 0Z" id="p28w118" />
<path d="M708.54 383.56l17.05 0l0 15.09l-17.05 0Z" id="p28w119" />
<path d="M561.55 400.23l67.52 0l0 15.09l-67.52 0Z" id="p28w120" />
<path d="M632.68 400.23l71.33 0l0 15.09l-71.33 0Z" id="p28w121" />
<path d="M707.62 400.23l15.89 0l0 15.09l-15.89 0Z" id="p28w122" />
<path d="M551.45 416.9l43.97 0l0 15.09l-43.97 0Z" id="p28w123" />
<path d="M599.03 416.9l13.91 0l0 15.09l-13.91 0Z" id="p28w124" />
<path d="M616.54 416.9l41.19 0l0 15.09l-41.19 0Z" id="p28w125" />
<path d="M661.34 416.9l58.28 0l0 15.09l-58.28 0Z" id="p28w126" />
<path d="M163.45 685.59l40.56 0l0 15.09l-40.56 0Z" id="p28w127" />
<path d="M207.62 685.59l31.89 0l0 15.09l-31.89 0Z" id="p28w128" />
<path d="M243.12 685.59l15.89 0l0 15.09l-15.89 0Z" id="p28w129" />
<path d="M262.61 685.59l39.51 0l0 15.09l-39.51 0Z" id="p28w130" />
<path d="M305.73 685.59l32.57 0l0 15.09l-32.57 0Z" id="p28w131" />
<path d="M341.91 685.59l15.06 0l0 15.09l-15.06 0Z" id="p28w132" />
<path d="M163.45 702.26l43.11 0l0 15.09l-43.11 0Z" id="p28w133" />
<path d="M210.16 702.26l77.25 0l0 15.09l-77.25 0Z" id="p28w134" />
<path d="M291.03 702.26l11.95 0l0 15.09l-11.95 0Z" id="p28w135" />
<path d="M163.45 718.93l62.83 0l0 15.09l-62.83 0Z" id="p28w136" />
<path d="M229.89 718.93l14.21 0l0 15.09l-14.21 0Z" id="p28w137" />
<path d="M247.72 718.93l42.18 0l0 15.09l-42.18 0Z" id="p28w138" />
<path d="M293.51 718.93l13.91 0l0 15.09l-13.91 0Z" id="p28w139" />
<path d="M311.03 718.93l46.16 0l0 15.09l-46.16 0Z" id="p28w140" />
<path d="M35.45 353.54l13.07 0l0 15.09l-13.07 0Z" id="p28w141" />
<path d="M52.13 353.54l42.18 0l0 15.09l-42.18 0Z" id="p28w142" />
<path d="M97.92 353.54l77.25 0l0 15.09l-77.25 0Z" id="p28w143" />
<path d="M178.78 353.54l19.29 0l0 15.09l-19.29 0Z" id="p28w144" />
<path d="M201.69 353.54l35.56 0l0 15.09l-35.56 0Z" id="p28w145" />
<path d="M35.45 370.21l54.4 0l0 15.09l-54.4 0Z" id="p28w146" />
<path d="M103.56 370.21l69.02 0l0 15.09l-69.02 0Z" id="p28w147" />
<path d="M176.19 370.21l16.64 0l0 15.09l-16.64 0Z" id="p28w148" />
<path d="M196.44 370.21l22.31 0l0 15.09l-22.31 0Z" id="p28w149" />
<path d="M222.37 370.21l22.03 0l0 15.09l-22.03 0Z" id="p28w150" />
<path d="M35.45 386.88l40.69 0l0 15.09l-40.69 0Z" id="p28w151" />
<path d="M79.75 386.88l74.91 0l0 15.09l-74.91 0Z" id="p28w152" />
<path d="M158.27 386.88l18.46 0l0 15.09l-18.46 0Z" id="p28w153" />
<path d="M180.34 386.88l70.22 0l0 15.09l-70.22 0Z" id="p28w154" />
<path d="M35.45 403.55l52.46 0l0 15.09l-52.46 0Z" id="p28w155" />
<path d="M91.52 403.55l15.06 0l0 15.09l-15.06 0Z" id="p28w156" />
<path d="M110.19 403.55l41.09 0l0 15.09l-41.09 0Z" id="p28w157" />
<path d="M154.89 403.55l37.66 0l0 15.09l-37.66 0Z" id="p28w158" />
</svg>
