<?xml version="1.0" encoding="UTF-8"?>
<svg xmlns="http://www.w3.org/2000/svg" xmlns:xlink="http://www.w3.org/1999/xlink" version="1.1" baseProfile="full" width="768" height="1024" viewBox="0,0,768,1024" preserveAspectRatio="xMinYMin meet" >
<style type="text/css">
<![CDATA[
path {fill-opacity: 0.5;fill: #00aeef;visibility: hidden;}
]]>
</style>
<path d="M124.06 107.98l17.01 0l0 18.84l-17.01 0Z" id="p26w1" />
<path d="M144.72 107.98l81.21 0l0 18.84l-81.21 0Z" id="p26w2" />
<path d="M124.06 155.88l15.44 0l0 14.6l-15.44 0Z" id="p26w3" />
<path d="M142.71 155.88l64.54 0l0 14.6l-64.54 0Z" id="p26w4" />
<path d="M210.46 155.88l81.98 0l0 14.6l-81.98 0Z" id="p26w5" />
<path d="M124.06 172.55l10.56 0l0 14.6l-10.56 0Z" id="p26w6" />
<path d="M137.83 172.55l18.51 0l0 14.6l-18.51 0Z" id="p26w7" />
<path d="M159.01 172.55l84.92 0l0 14.6l-84.92 0Z" id="p26w8" />
<path d="M356.37 155.88l20.79 0l0 14.6l-20.79 0Z" id="p26w9" />
<path d="M380.37 155.88l48.76 0l0 14.6l-48.76 0Z" id="p26w10" />
<path d="M432.33 155.88l14.28 0l0 14.6l-14.28 0Z" id="p26w11" />
<path d="M449.82 155.88l33.47 0l0 14.6l-33.47 0Z" id="p26w12" />
<path d="M129.96 219.25l14.18 0l0 14.52l-14.18 0Z" id="p26w13" />
<path d="M147.35 219.25l53.3 0l0 14.52l-53.3 0Z" id="p26w14" />
<path d="M203.85 219.18l24.46 0l0 14.6l-24.46 0Z" id="p26w15" />
<path d="M231.52 219.18l15.76 0l0 14.6l-15.76 0Z" id="p26w16" />
<path d="M250.48 219.18l38.67 0l0 14.6l-38.67 0Z" id="p26w17" />
<path d="M129.96 235.92l5.35 0l0 14.52l-5.35 0Z" id="p26w18" />
<path d="M135.31 235.85l29.14 0l0 14.6l-29.14 0Z" id="p26w19" />
<path d="M177.55 235.92l9.89 0l0 14.52l-9.89 0Z" id="p26w20" />
<path d="M190.64 235.92l69.18 0l0 14.52l-69.18 0Z" id="p26w21" />
<path d="M129.96 295.84l17.63 0l0 14.52l-17.63 0Z" id="p26w22" />
<path d="M150.8 295.84l38.21 0l0 14.52l-38.21 0Z" id="p26w23" />
<path d="M192.22 295.84l11.22 0l0 14.52l-11.22 0Z" id="p26w24" />
<path d="M206.65 295.84l23.8 0l0 14.52l-23.8 0Z" id="p26w25" />
<path d="M233.66 295.84l26.74 0l0 14.52l-26.74 0Z" id="p26w26" />
<path d="M263.6 295.78l48.61 0l0 14.6l-48.61 0Z" id="p26w27" />
<path d="M129.96 312.45l30.08 0l0 14.6l-30.08 0Z" id="p26w28" />
<path d="M163.25 312.45l10.03 0l0 14.6l-10.03 0Z" id="p26w29" />
<path d="M176.49 312.45l42.58 0l0 14.6l-42.58 0Z" id="p26w30" />
<path d="M232.16 312.51l9.89 0l0 14.52l-9.89 0Z" id="p26w31" />
<path d="M245.26 312.51l33.62 0l0 14.52l-33.62 0Z" id="p26w32" />
<path d="M362.27 196.66l19.51 0l0 14.52l-19.51 0Z" id="p26w33" />
<path d="M384.99 196.6l52.27 0l0 14.61l-52.27 0Z" id="p26w34" />
<path d="M362.28 218.75l18 0l0 14.52l-18 0Z" id="p26w35" />
<path d="M380.29 218.68l15.77 0l0 14.6l-15.77 0Z" id="p26w36" />
<path d="M362.28 235.42l11.5 0l0 14.52l-11.5 0Z" id="p26w37" />
<path d="M376.99 235.42l13.09 0l0 14.52l-13.09 0Z" id="p26w38" />
<path d="M390.08 235.35l15.77 0l0 14.6l-15.77 0Z" id="p26w39" />
<path d="M362.28 252.09l6.41 0l0 14.52l-6.41 0Z" id="p26w40" />
<path d="M376.95 252.09l19.77 0l0 14.52l-19.77 0Z" id="p26w41" />
<path d="M404.97 252.09l14.18 0l0 14.52l-14.18 0Z" id="p26w42" />
<path d="M422.35 252.09l13.09 0l0 14.52l-13.09 0Z" id="p26w43" />
<path d="M435.45 252.02l14.72 0l0 14.6l-14.72 0Z" id="p26w44" />
<path d="M516.05 218.75l26.74 0l0 14.52l-26.74 0Z" id="p26w45" />
<path d="M546 218.75l13.09 0l0 14.52l-13.09 0Z" id="p26w46" />
<path d="M559.1 218.68l23.24 0l0 14.6l-23.24 0Z" id="p26w47" />
<path d="M516.05 235.42l25.67 0l0 14.52l-25.67 0Z" id="p26w48" />
<path d="M544.93 235.42l13.09 0l0 14.52l-13.09 0Z" id="p26w49" />
<path d="M558.03 235.35l15.71 0l0 14.6l-15.71 0Z" id="p26w50" />
<path d="M516.05 252.09l12.02 0l0 14.52l-12.02 0Z" id="p26w51" />
<path d="M536.33 252.09l25.38 0l0 14.52l-25.38 0Z" id="p26w52" />
<path d="M564.92 252.09l13.09 0l0 14.52l-13.09 0Z" id="p26w53" />
<path d="M578.01 252.02l28.62 0l0 14.6l-28.62 0Z" id="p26w54" />
<path d="M362.28 274.17l21.12 0l0 14.52l-21.12 0Z" id="p26w55" />
<path d="M386.61 274.1l82.55 0l0 14.6l-82.55 0Z" id="p26w56" />
<path d="M472.37 274.1l51.04 0l0 14.6l-51.04 0Z" id="p26w57" />
<path d="M526.61 274.1l22.93 0l0 14.61l-22.93 0Z" id="p26w58" />
<path d="M362.3 296.19l23.4 0l0 14.6l-23.4 0Z" id="p26w59" />
<path d="M388.91 296.19l10.02 0l0 14.6l-10.02 0Z" id="p26w60" />
<path d="M402.13 296.25l35 0l0 14.52l-35 0Z" id="p26w61" />
<path d="M362.3 312.86l30.08 0l0 14.6l-30.08 0Z" id="p26w62" />
<path d="M395.58 312.86l10.03 0l0 14.6l-10.03 0Z" id="p26w63" />
<path d="M408.82 312.92l41.97 0l0 14.52l-41.97 0Z" id="p26w64" />
<path d="M516.07 296.19l24.46 0l0 14.6l-24.46 0Z" id="p26w65" />
<path d="M543.73 296.19l15.76 0l0 14.6l-15.76 0Z" id="p26w66" />
<path d="M562.7 296.25l27.01 0l0 14.52l-27.01 0Z" id="p26w67" />
<path d="M516.07 312.86l35.82 0l0 14.6l-35.82 0Z" id="p26w68" />
<path d="M555.1 312.86l15.76 0l0 14.6l-15.76 0Z" id="p26w69" />
<path d="M574.07 312.92l50.62 0l0 14.52l-50.62 0Z" id="p26w70" />
<path d="M124.07 344.77l15.44 0l0 14.6l-15.44 0Z" id="p26w71" />
<path d="M142.73 344.77l64.54 0l0 14.6l-64.54 0Z" id="p26w72" />
<path d="M210.48 344.77l51.85 0l0 14.6l-51.85 0Z" id="p26w73" />
<path d="M265.53 344.77l21.5 0l0 14.6l-21.5 0Z" id="p26w74" />
<path d="M124.07 361.44l68.1 0l0 14.6l-68.1 0Z" id="p26w75" />
<path d="M195.38 361.44l10.56 0l0 14.6l-10.56 0Z" id="p26w76" />
<path d="M209.14 361.44l18.51 0l0 14.6l-18.51 0Z" id="p26w77" />
<path d="M230.33 361.44l84.92 0l0 14.6l-84.92 0Z" id="p26w78" />
<path d="M356.38 344.77l20.79 0l0 14.6l-20.79 0Z" id="p26w79" />
<path d="M380.38 344.77l48.76 0l0 14.6l-48.76 0Z" id="p26w80" />
<path d="M432.34 344.77l14.28 0l0 14.6l-14.28 0Z" id="p26w81" />
<path d="M449.83 344.77l33.47 0l0 14.6l-33.47 0Z" id="p26w82" />
<path d="M129.97 409.12l46.51 0l0 14.52l-46.51 0Z" id="p26w83" />
<path d="M179.7 409.12l15.5 0l0 14.52l-15.5 0Z" id="p26w84" />
<path d="M198.4 409.12l53.3 0l0 14.52l-53.3 0Z" id="p26w85" />
<path d="M254.91 409.12l26.74 0l0 14.52l-26.74 0Z" id="p26w86" />
<path d="M284.86 409.05l43.41 0l0 14.6l-43.41 0Z" id="p26w87" />
<path d="M129.97 425.79l20.85 0l0 14.52l-20.85 0Z" id="p26w88" />
<path d="M154.04 425.79l60.15 0l0 14.52l-60.15 0Z" id="p26w89" />
<path d="M217.39 425.79l35.29 0l0 14.52l-35.29 0Z" id="p26w90" />
<path d="M255.9 425.79l22.99 0l0 14.52l-22.99 0Z" id="p26w91" />
<path d="M291.98 425.79l29.7 0l0 14.52l-29.7 0Z" id="p26w92" />
<path d="M129.97 442.46l6.41 0l0 14.52l-6.41 0Z" id="p26w93" />
<path d="M158.59 442.39l13.77 0l0 14.6l-13.77 0Z" id="p26w94" />
<path d="M175.57 442.46l14.18 0l0 14.52l-14.18 0Z" id="p26w95" />
<path d="M192.95 442.46l24 0l0 14.52l-24 0Z" id="p26w96" />
<path d="M220.15 442.46l34.42 0l0 14.52l-34.42 0Z" id="p26w97" />
<path d="M362.28 385.56l19.51 0l0 14.52l-19.51 0Z" id="p26w98" />
<path d="M385 385.49l52.27 0l0 14.61l-52.27 0Z" id="p26w99" />
<path d="M440.48 385.56l21.4 0l0 14.52l-21.4 0Z" id="p26w100" />
<path d="M465.08 385.56l19.51 0l0 14.52l-19.51 0Z" id="p26w101" />
<path d="M487.8 385.49l31.41 0l0 14.61l-31.41 0Z" id="p26w102" />
<path d="M522.42 385.49l48.4 0l0 14.61l-48.4 0Z" id="p26w103" />
<path d="M362.3 407.67l20.58 0l0 14.52l-20.58 0Z" id="p26w104" />
<path d="M386.08 407.64l51.33 0l0 14.52l-51.33 0Z" id="p26w105" />
<path d="M440.62 407.67l43.04 0l0 14.52l-43.04 0Z" id="p26w106" />
<path d="M362.3 424.34l24.85 0l0 14.52l-24.85 0Z" id="p26w107" />
<path d="M390.36 424.34l15.77 0l0 14.52l-15.77 0Z" id="p26w108" />
<path d="M409.34 424.34l17.11 0l0 14.52l-17.11 0Z" id="p26w109" />
<path d="M362.3 441.01l64.08 0l0 14.52l-64.08 0Z" id="p26w110" />
<path d="M429.59 441.01l23.53 0l0 14.52l-23.53 0Z" id="p26w111" />
<path d="M362.3 465.96l121.92 0l0 14.6l-121.92 0Z" id="p26w112" />
<path d="M362.3 482.63l68.1 0l0 14.6l-68.1 0Z" id="p26w113" />
<path d="M362.3 507.64l62.17 0l0 14.6l-62.17 0Z" id="p26w114" />
<path d="M362.3 524.31l90.11 0l0 14.6l-90.11 0Z" id="p26w115" />
<path d="M362.3 549.39l71.57 0l0 14.52l-71.57 0Z" id="p26w116" />
<path d="M362.3 566.03l40.61 0l0 14.52l-40.61 0Z" id="p26w117" />
<path d="M406.12 566.03l47.28 0l0 14.52l-47.28 0Z" id="p26w118" />
<path d="M362.3 582.7l23.77 0l0 14.52l-23.77 0Z" id="p26w119" />
<path d="M389.28 582.7l14.97 0l0 14.52l-14.97 0Z" id="p26w120" />
<path d="M407.45 582.7l22.89 0l0 14.52l-22.89 0Z" id="p26w121" />
<path d="M438.68 582.7l29.12 0l0 14.52l-29.12 0Z" id="p26w122" />
<path d="M362.3 599.37l40.09 0l0 14.52l-40.09 0Z" id="p26w123" />
<path d="M405.59 599.37l32.62 0l0 14.52l-32.62 0Z" id="p26w124" />
<path d="M446.55 599.37l21.12 0l0 14.52l-21.12 0Z" id="p26w125" />
<path d="M470.7 599.37l18.97 0l0 14.52l-18.97 0Z" id="p26w126" />
<path d="M516.08 407.67l20.58 0l0 14.52l-20.58 0Z" id="p26w127" />
<path d="M539.87 407.64l31.81 0l0 14.52l-31.81 0Z" id="p26w128" />
<path d="M574.88 407.64l49.17 0l0 14.52l-49.17 0Z" id="p26w129" />
<path d="M516.08 424.34l43.04 0l0 14.52l-43.04 0Z" id="p26w130" />
<path d="M562.33 424.34l24.85 0l0 14.52l-24.85 0Z" id="p26w131" />
<path d="M590.39 424.34l15.77 0l0 14.52l-15.77 0Z" id="p26w132" />
<path d="M609.37 424.34l17.11 0l0 14.52l-17.11 0Z" id="p26w133" />
<path d="M516.08 441.01l65.98 0l0 14.52l-65.98 0Z" id="p26w134" />
<path d="M585.27 441.01l23.53 0l0 14.52l-23.53 0Z" id="p26w135" />
<path d="M516.08 465.96l62.49 0l0 14.6l-62.49 0Z" id="p26w136" />
<path d="M581.77 465.96l68.1 0l0 14.6l-68.1 0Z" id="p26w137" />
<path d="M516.08 490.97l124.48 0l0 14.6l-124.48 0Z" id="p26w138" />
<path d="M516.08 507.64l68.1 0l0 14.6l-68.1 0Z" id="p26w139" />
<path d="M516.08 524.38l96.96 0l0 14.52l-96.96 0Z" id="p26w140" />
<path d="M516.08 549.39l71.57 0l0 14.52l-71.57 0Z" id="p26w141" />
<path d="M516.08 566.03l22.7 0l0 14.52l-22.7 0Z" id="p26w142" />
<path d="M552.15 566.03l28.85 0l0 14.52l-28.85 0Z" id="p26w143" />
<path d="M584.04 566.03l29.13 0l0 14.52l-29.13 0Z" id="p26w144" />
<path d="M616.21 566.03l44.27 0l0 14.52l-44.27 0Z" id="p26w145" />
<path d="M526.24 582.7l14.16 0l0 14.52l-14.16 0Z" id="p26w146" />
<path d="M543.61 582.7l49.17 0l0 14.52l-49.17 0Z" id="p26w147" />
<path d="M595.82 582.7l18.97 0l0 14.52l-18.97 0Z" id="p26w148" />
<path d="M124.09 631.25l15.44 0l0 14.6l-15.44 0Z" id="p26w149" />
<path d="M142.74 631.25l64.54 0l0 14.6l-64.54 0Z" id="p26w150" />
<path d="M210.49 631.25l38.33 0l0 14.6l-38.33 0Z" id="p26w151" />
<path d="M252.03 631.25l32.96 0l0 14.6l-32.96 0Z" id="p26w152" />
<path d="M124.09 647.92l10.56 0l0 14.6l-10.56 0Z" id="p26w153" />
<path d="M137.85 647.92l18.51 0l0 14.6l-18.51 0Z" id="p26w154" />
<path d="M159.04 647.92l84.92 0l0 14.6l-84.92 0Z" id="p26w155" />
<path d="M356.4 631.25l20.79 0l0 14.6l-20.79 0Z" id="p26w156" />
<path d="M380.39 631.25l48.76 0l0 14.6l-48.76 0Z" id="p26w157" />
<path d="M432.36 631.25l14.28 0l0 14.6l-14.28 0Z" id="p26w158" />
<path d="M449.85 631.25l33.47 0l0 14.6l-33.47 0Z" id="p26w159" />
<path d="M362.31 672.05l17.11 0l0 14.52l-17.11 0Z" id="p26w160" />
<path d="M382.62 671.98l82.75 0l0 14.6l-82.75 0Z" id="p26w161" />
<path d="M468.58 672.05l14.16 0l0 14.52l-14.16 0Z" id="p26w162" />
<path d="M485.95 671.98l31.41 0l0 14.61l-31.41 0Z" id="p26w163" />
<path d="M520.57 671.98l48.4 0l0 14.61l-48.4 0Z" id="p26w164" />
<path d="M130 694.13l35.02 0l0 14.52l-35.02 0Z" id="p26w165" />
<path d="M168.23 694.07l25.05 0l0 14.6l-25.05 0Z" id="p26w166" />
<path d="M196.49 694.07l40.59 0l0 14.6l-40.59 0Z" id="p26w167" />
<path d="M250.17 694.13l24.05 0l0 14.52l-24.05 0Z" id="p26w168" />
<path d="M277.42 694.13l40.36 0l0 14.52l-40.36 0Z" id="p26w169" />
<path d="M130 710.8l28.06 0l0 14.52l-28.06 0Z" id="p26w170" />
<path d="M161.27 710.74l25.05 0l0 14.6l-25.05 0Z" id="p26w171" />
<path d="M189.53 710.74l29.37 0l0 14.6l-29.37 0Z" id="p26w172" />
<path d="M231.99 710.8l21.92 0l0 14.52l-21.92 0Z" id="p26w173" />
<path d="M257.12 710.8l40.36 0l0 14.52l-40.36 0Z" id="p26w174" />
<path d="M130 727.47l18.44 0l0 14.52l-18.44 0Z" id="p26w175" />
<path d="M151.65 727.47l44.05 0l0 14.52l-44.05 0Z" id="p26w176" />
<path d="M198.9 727.41l12.42 0l0 14.6l-12.42 0Z" id="p26w177" />
<path d="M214.53 727.41l24.59 0l0 14.6l-24.59 0Z" id="p26w178" />
<path d="M242.33 727.41l46.65 0l0 14.6l-46.65 0Z" id="p26w179" />
<path d="M130 744.14l18.44 0l0 14.52l-18.44 0Z" id="p26w180" />
<path d="M151.65 744.14l26.19 0l0 14.52l-26.19 0Z" id="p26w181" />
<path d="M181.04 744.08l12.42 0l0 14.6l-12.42 0Z" id="p26w182" />
<path d="M196.67 744.08l24.59 0l0 14.6l-24.59 0Z" id="p26w183" />
<path d="M224.47 744.08l59.54 0l0 14.6l-59.54 0Z" id="p26w184" />
<path d="M368.54 700.34l21.83 0l0 14.61l-21.83 0Z" id="p26w185" />
<path d="M490.63 700.34l48.93 0l0 14.61l-48.93 0Z" id="p26w186" />
<path d="M542.77 700.34l31.41 0l0 14.61l-31.41 0Z" id="p26w187" />
<path d="M369.59 726.13l52.48 0l0 14.52l-52.48 0Z" id="p26w188" />
<path d="M435.17 726.13l42.08 0l0 14.52l-42.08 0Z" id="p26w189" />
<path d="M480.46 726.13l14.18 0l0 14.52l-14.18 0Z" id="p26w190" />
<path d="M497.84 726.13l49.18 0l0 14.52l-49.18 0Z" id="p26w191" />
<path d="M550.23 726.13l34.48 0l0 14.52l-34.48 0Z" id="p26w192" />
<path d="M124.06 39.02l46.09 0l0 15.38l-46.09 0Z" id="p26w193" />
<path d="M208.74 39.02l46.59 0l0 15.38l-46.59 0Z" id="p26w194" />
<path d="M307.2 39.02l46.59 0l0 15.38l-46.59 0Z" id="p26w195" />
<path d="M406.45 38.6l34.29 0l0 16.09l-34.29 0Z" id="p26w196" />
<path d="M76.9 983l57.72 0l0 12.23l-57.72 0Z" id="p26w197" />
</svg>
