<?xml version="1.0" encoding="UTF-8"?>
<svg xmlns="http://www.w3.org/2000/svg" xmlns:xlink="http://www.w3.org/1999/xlink" version="1.1" baseProfile="full" width="768" height="1024" viewBox="0,0,768,1024" preserveAspectRatio="xMinYMin meet" >
<style type="text/css">
<![CDATA[
path {fill-opacity: 0.5;fill: #00aeef;visibility: hidden;}
]]>
</style>
<path d="M124.06 114.18l39.28 0l0 14.52l-39.28 0Z" id="p135w1" />
<path d="M166.55 114.18l15.5 0l0 14.52l-15.5 0Z" id="p135w2" />
<path d="M185.25 114.18l36.88 0l0 14.52l-36.88 0Z" id="p135w3" />
<path d="M225.34 114.18l29.66 0l0 14.52l-29.66 0Z" id="p135w4" />
<path d="M258.21 114.18l68.68 0l0 14.52l-68.68 0Z" id="p135w5" />
<path d="M330.09 114.11l13.78 0l0 14.6l-13.78 0Z" id="p135w6" />
<path d="M347.08 114.11l89.53 0l0 14.6l-89.53 0Z" id="p135w7" />
<path d="M439.82 114.18l13.91 0l0 14.52l-13.91 0Z" id="p135w8" />
<path d="M456.94 114.18l13.63 0l0 14.52l-13.63 0Z" id="p135w9" />
<path d="M473.78 114.11l69.6 0l0 14.6l-69.6 0Z" id="p135w10" />
<path d="M546.58 114.11l32.05 0l0 14.6l-32.05 0Z" id="p135w11" />
<path d="M143.75 139.19l10.16 0l0 14.52l-10.16 0Z" id="p135w12" />
<path d="M157.12 139.19l49.44 0l0 14.52l-49.44 0Z" id="p135w13" />
<path d="M228.74 139.19l45.1 0l0 14.52l-45.1 0Z" id="p135w14" />
<path d="M277.05 139.19l12.29 0l0 14.52l-12.29 0Z" id="p135w15" />
<path d="M292.54 139.19l51.86 0l0 14.52l-51.86 0Z" id="p135w16" />
<path d="M347.61 139.19l19.77 0l0 14.52l-19.77 0Z" id="p135w17" />
<path d="M389.55 139.19l18.18 0l0 14.52l-18.18 0Z" id="p135w18" />
<path d="M410.93 139.19l19.51 0l0 14.52l-19.51 0Z" id="p135w19" />
<path d="M433.65 139.19l12.29 0l0 14.52l-12.29 0Z" id="p135w20" />
<path d="M449.14 139.19l50.25 0l0 14.52l-50.25 0Z" id="p135w21" />
<path d="M502.6 139.19l25.4 0l0 14.52l-25.4 0Z" id="p135w22" />
<path d="M531.2 139.19l17.9 0l0 14.52l-17.9 0Z" id="p135w23" />
<path d="M552.31 139.19l45.17 0l0 14.52l-45.17 0Z" id="p135w24" />
<path d="M143.75 155.86l10.16 0l0 14.52l-10.16 0Z" id="p135w25" />
<path d="M157.12 155.86l19.79 0l0 14.52l-19.79 0Z" id="p135w26" />
<path d="M180.11 155.86l25.12 0l0 14.52l-25.12 0Z" id="p135w27" />
<path d="M208.44 155.86l13.37 0l0 14.52l-13.37 0Z" id="p135w28" />
<path d="M243.98 155.86l44.09 0l0 14.52l-44.09 0Z" id="p135w29" />
<path d="M291.28 155.86l19.79 0l0 14.52l-19.79 0Z" id="p135w30" />
<path d="M314.27 155.86l58.27 0l0 14.52l-58.27 0Z" id="p135w31" />
<path d="M375.75 155.86l49.72 0l0 14.52l-49.72 0Z" id="p135w32" />
<path d="M428.68 155.86l19.77 0l0 14.52l-19.77 0Z" id="p135w33" />
<path d="M470.62 155.86l18.18 0l0 14.52l-18.18 0Z" id="p135w34" />
<path d="M492 155.86l19.51 0l0 14.52l-19.51 0Z" id="p135w35" />
<path d="M514.72 155.86l27.53 0l0 14.52l-27.53 0Z" id="p135w36" />
<path d="M545.46 155.86l33.67 0l0 14.52l-33.67 0Z" id="p135w37" />
<path d="M582.34 155.86l13.9 0l0 14.52l-13.9 0Z" id="p135w38" />
<path d="M599.44 155.86l25.38 0l0 14.52l-25.38 0Z" id="p135w39" />
<path d="M143.75 172.53l20.85 0l0 14.52l-20.85 0Z" id="p135w40" />
<path d="M167.81 172.53l32.63 0l0 14.52l-32.63 0Z" id="p135w41" />
<path d="M143.75 189.2l10.16 0l0 14.52l-10.16 0Z" id="p135w42" />
<path d="M157.12 189.2l12.29 0l0 14.52l-12.29 0Z" id="p135w43" />
<path d="M172.62 189.2l65.06 0l0 14.52l-65.06 0Z" id="p135w44" />
<path d="M259.85 189.21l18.18 0l0 14.52l-18.18 0Z" id="p135w45" />
<path d="M281.23 189.21l19.51 0l0 14.52l-19.51 0Z" id="p135w46" />
<path d="M303.95 189.21l22.44 0l0 14.52l-22.44 0Z" id="p135w47" />
<path d="M329.59 189.21l16.84 0l0 14.52l-16.84 0Z" id="p135w48" />
<path d="M349.64 189.21l49.44 0l0 14.52l-49.44 0Z" id="p135w49" />
<path d="M421.25 189.21l18.18 0l0 14.52l-18.18 0Z" id="p135w50" />
<path d="M442.64 189.21l19.51 0l0 14.52l-19.51 0Z" id="p135w51" />
<path d="M465.35 189.21l34.75 0l0 14.52l-34.75 0Z" id="p135w52" />
<path d="M503.31 189.21l28.07 0l0 14.52l-28.07 0Z" id="p135w53" />
<path d="M534.6 189.21l13.63 0l0 14.52l-13.63 0Z" id="p135w54" />
<path d="M551.44 189.21l55.08 0l0 14.52l-55.08 0Z" id="p135w55" />
<path d="M143.75 205.88l10.16 0l0 14.52l-10.16 0Z" id="p135w56" />
<path d="M157.12 205.88l17.9 0l0 14.52l-17.9 0Z" id="p135w57" />
<path d="M178.23 205.88l42.49 0l0 14.52l-42.49 0Z" id="p135w58" />
<path d="M242.89 205.88l18.18 0l0 14.52l-18.18 0Z" id="p135w59" />
<path d="M264.27 205.88l19.51 0l0 14.52l-19.51 0Z" id="p135w60" />
<path d="M286.99 205.88l22.44 0l0 14.52l-22.44 0Z" id="p135w61" />
<path d="M312.63 205.88l53.22 0l0 14.52l-53.22 0Z" id="p135w62" />
<path d="M369.06 205.88l22.45 0l0 14.52l-22.45 0Z" id="p135w63" />
<path d="M413.68 205.88l30.99 0l0 14.52l-30.99 0Z" id="p135w64" />
<path d="M447.88 205.88l9.89 0l0 14.52l-9.89 0Z" id="p135w65" />
<path d="M460.97 205.88l7.48 0l0 14.52l-7.48 0Z" id="p135w66" />
<path d="M478.88 205.88l13.9 0l0 14.52l-13.9 0Z" id="p135w67" />
<path d="M504.63 205.88l49.44 0l0 14.52l-49.44 0Z" id="p135w68" />
<path d="M557.29 205.88l25.67 0l0 14.52l-25.67 0Z" id="p135w69" />
<path d="M586.17 205.88l19.77 0l0 14.52l-19.77 0Z" id="p135w70" />
<path d="M143.75 222.55l10.16 0l0 14.52l-10.16 0Z" id="p135w71" />
<path d="M157.12 222.55l49.44 0l0 14.52l-49.44 0Z" id="p135w72" />
<path d="M228.74 222.55l33.94 0l0 14.52l-33.94 0Z" id="p135w73" />
<path d="M265.88 222.55l22.99 0l0 14.52l-22.99 0Z" id="p135w74" />
<path d="M292.08 222.55l13.9 0l0 14.52l-13.9 0Z" id="p135w75" />
<path d="M309.19 222.55l38.5 0l0 14.52l-38.5 0Z" id="p135w76" />
<path d="M350.9 222.55l19.77 0l0 14.52l-19.77 0Z" id="p135w77" />
<path d="M392.84 222.55l36.09 0l0 14.52l-36.09 0Z" id="p135w78" />
<path d="M432.13 222.55l19.51 0l0 14.52l-19.51 0Z" id="p135w79" />
<path d="M454.85 222.55l58.35 0l0 14.52l-58.35 0Z" id="p135w80" />
<path d="M516.41 222.55l31.01 0l0 14.52l-31.01 0Z" id="p135w81" />
<path d="M550.62 222.55l13.63 0l0 14.52l-13.63 0Z" id="p135w82" />
<path d="M567.46 222.55l31.02 0l0 14.52l-31.02 0Z" id="p135w83" />
<path d="M143.75 239.22l10.16 0l0 14.52l-10.16 0Z" id="p135w84" />
<path d="M157.12 239.22l28.07 0l0 14.52l-28.07 0Z" id="p135w85" />
<path d="M207.37 239.23l18.18 0l0 14.52l-18.18 0Z" id="p135w86" />
<path d="M228.75 239.23l19.51 0l0 14.52l-19.51 0Z" id="p135w87" />
<path d="M251.47 239.23l67.59 0l0 14.52l-67.59 0Z" id="p135w88" />
<path d="M332.15 239.23l9.89 0l0 14.52l-9.89 0Z" id="p135w89" />
<path d="M345.25 239.23l57.48 0l0 14.52l-57.48 0Z" id="p135w90" />
<path d="M405.94 239.23l13.9 0l0 14.52l-13.9 0Z" id="p135w91" />
<path d="M423.04 239.23l92.77 0l0 14.52l-92.77 0Z" id="p135w92" />
<path d="M519.02 239.23l6.41 0l0 14.52l-6.41 0Z" id="p135w93" />
<path d="M547.6 239.23l18.18 0l0 14.52l-18.18 0Z" id="p135w94" />
<path d="M568.98 239.23l19.51 0l0 14.52l-19.51 0Z" id="p135w95" />
<path d="M591.69 239.23l32.6 0l0 14.52l-32.6 0Z" id="p135w96" />
<path d="M143.75 255.9l32.71 0l0 14.52l-32.71 0Z" id="p135w97" />
<path d="M204.35 255.9l27.01 0l0 14.52l-27.01 0Z" id="p135w98" />
<path d="M143.75 272.57l10.16 0l0 14.52l-10.16 0Z" id="p135w99" />
<path d="M157.12 272.57l19.51 0l0 14.52l-19.51 0Z" id="p135w100" />
<path d="M179.84 272.57l41.17 0l0 14.52l-41.17 0Z" id="p135w101" />
<path d="M243.18 272.57l62.14 0l0 14.52l-62.14 0Z" id="p135w102" />
<path d="M308.53 272.57l41.43 0l0 14.52l-41.43 0Z" id="p135w103" />
<path d="M353.17 272.57l30.74 0l0 14.52l-30.74 0Z" id="p135w104" />
<path d="M387.12 272.57l12.02 0l0 14.52l-12.02 0Z" id="p135w105" />
<path d="M421.31 272.57l50.54 0l0 14.52l-50.54 0Z" id="p135w106" />
<path d="M475.05 272.57l45.38 0l0 14.52l-45.38 0Z" id="p135w107" />
<path d="M523.64 272.57l22.99 0l0 14.52l-22.99 0Z" id="p135w108" />
<path d="M549.84 272.57l13.9 0l0 14.52l-13.9 0Z" id="p135w109" />
<path d="M566.95 272.57l40.64 0l0 14.52l-40.64 0Z" id="p135w110" />
<path d="M143.75 289.24l10.16 0l0 14.52l-10.16 0Z" id="p135w111" />
<path d="M157.12 289.24l32.06 0l0 14.52l-32.06 0Z" id="p135w112" />
<path d="M192.39 289.24l39.31 0l0 14.52l-39.31 0Z" id="p135w113" />
<path d="M253.87 289.24l18.18 0l0 14.52l-18.18 0Z" id="p135w114" />
<path d="M275.25 289.24l19.51 0l0 14.52l-19.51 0Z" id="p135w115" />
<path d="M297.97 289.24l26.72 0l0 14.52l-26.72 0Z" id="p135w116" />
<path d="M327.89 289.24l28.06 0l0 14.52l-28.06 0Z" id="p135w117" />
<path d="M359.16 289.24l66.51 0l0 14.52l-66.51 0Z" id="p135w118" />
<path d="M428.88 289.24l19.77 0l0 14.52l-19.77 0Z" id="p135w119" />
<path d="M470.82 289.24l18.18 0l0 14.52l-18.18 0Z" id="p135w120" />
<path d="M492.2 289.24l19.51 0l0 14.52l-19.51 0Z" id="p135w121" />
<path d="M514.92 289.24l43.7 0l0 14.52l-43.7 0Z" id="p135w122" />
<path d="M561.83 289.24l13.9 0l0 14.52l-13.9 0Z" id="p135w123" />
<path d="M578.93 289.24l53.44 0l0 14.52l-53.44 0Z" id="p135w124" />
<path d="M143.75 305.91l19.52 0l0 14.52l-19.52 0Z" id="p135w125" />
<path d="M166.48 305.91l23.27 0l0 14.52l-23.27 0Z" id="p135w126" />
<path d="M192.96 305.91l84.48 0l0 14.52l-84.48 0Z" id="p135w127" />
<path d="M124.06 339.26l32.97 0l0 14.52l-32.97 0Z" id="p135w128" />
<path d="M160.24 339.26l15.5 0l0 14.52l-15.5 0Z" id="p135w129" />
<path d="M178.94 339.26l45.97 0l0 14.52l-45.97 0Z" id="p135w130" />
<path d="M228.12 339.26l40.63 0l0 14.52l-40.63 0Z" id="p135w131" />
<path d="M271.96 339.26l9.89 0l0 14.52l-9.89 0Z" id="p135w132" />
<path d="M285.05 339.26l43.58 0l0 14.52l-43.58 0Z" id="p135w133" />
<path d="M331.84 339.26l33.13 0l0 14.52l-33.13 0Z" id="p135w134" />
<path d="M368.18 339.19l26.04 0l0 14.6l-26.04 0Z" id="p135w135" />
<path d="M143.75 364.27l28.06 0l0 14.52l-28.06 0Z" id="p135w136" />
<path d="M175.02 364.27l47.33 0l0 14.52l-47.33 0Z" id="p135w137" />
<path d="M225.56 364.27l49.05 0l0 14.52l-49.05 0Z" id="p135w138" />
<path d="M277.81 364.27l54.55 0l0 14.52l-54.55 0Z" id="p135w139" />
<path d="M335.57 364.27l25.67 0l0 14.52l-25.67 0Z" id="p135w140" />
<path d="M364.45 364.27l9.89 0l0 14.52l-9.89 0Z" id="p135w141" />
<path d="M377.55 364.27l46.25 0l0 14.52l-46.25 0Z" id="p135w142" />
<path d="M427.01 364.27l38.24 0l0 14.52l-38.24 0Z" id="p135w143" />
<path d="M468.45 364.27l20.05 0l0 14.52l-20.05 0Z" id="p135w144" />
<path d="M491.71 364.27l16.83 0l0 14.52l-16.83 0Z" id="p135w145" />
<path d="M511.74 364.27l9.89 0l0 14.52l-9.89 0Z" id="p135w146" />
<path d="M524.84 364.27l59.59 0l0 14.52l-59.59 0Z" id="p135w147" />
<path d="M143.75 380.94l14.18 0l0 14.52l-14.18 0Z" id="p135w148" />
<path d="M161.13 380.94l46.25 0l0 14.52l-46.25 0Z" id="p135w149" />
<path d="M210.59 380.94l38.24 0l0 14.52l-38.24 0Z" id="p135w150" />
<path d="M143.75 397.61l20.05 0l0 14.52l-20.05 0Z" id="p135w151" />
<path d="M167.01 397.61l49.18 0l0 14.52l-49.18 0Z" id="p135w152" />
<path d="M219.39 397.61l18.44 0l0 14.52l-18.44 0Z" id="p135w153" />
<path d="M241.04 397.61l47.31 0l0 14.52l-47.31 0Z" id="p135w154" />
<path d="M301.44 397.61l14.18 0l0 14.52l-14.18 0Z" id="p135w155" />
<path d="M318.83 397.61l32.62 0l0 14.52l-32.62 0Z" id="p135w156" />
<path d="M354.65 397.61l17.11 0l0 14.52l-17.11 0Z" id="p135w157" />
<path d="M374.96 397.61l9.89 0l0 14.52l-9.89 0Z" id="p135w158" />
<path d="M388.06 397.61l72.97 0l0 14.52l-72.97 0Z" id="p135w159" />
<path d="M464.23 397.61l45.7 0l0 14.52l-45.7 0Z" id="p135w160" />
<path d="M513.13 397.61l41.17 0l0 14.52l-41.17 0Z" id="p135w161" />
<path d="M557.51 397.61l24.33 0l0 14.52l-24.33 0Z" id="p135w162" />
<path d="M143.75 414.28l46.24 0l0 14.52l-46.24 0Z" id="p135w163" />
<path d="M193.2 414.28l13.9 0l0 14.52l-13.9 0Z" id="p135w164" />
<path d="M210.3 414.28l72.97 0l0 14.52l-72.97 0Z" id="p135w165" />
<path d="M143.75 430.95l41.97 0l0 14.52l-41.97 0Z" id="p135w166" />
<path d="M188.93 430.95l31.01 0l0 14.52l-31.01 0Z" id="p135w167" />
<path d="M223.14 430.95l79.04 0l0 14.52l-79.04 0Z" id="p135w168" />
<path d="M305.39 430.95l19.51 0l0 14.52l-19.51 0Z" id="p135w169" />
<path d="M328.1 430.95l35.82 0l0 14.52l-35.82 0Z" id="p135w170" />
<path d="M367.13 430.95l82.34 0l0 14.52l-82.34 0Z" id="p135w171" />
<path d="M452.68 430.95l18.44 0l0 14.52l-18.44 0Z" id="p135w172" />
<path d="M474.33 430.95l61.73 0l0 14.52l-61.73 0Z" id="p135w173" />
<path d="M539.27 430.95l24.33 0l0 14.52l-24.33 0Z" id="p135w174" />
<path d="M566.8 430.95l23.79 0l0 14.52l-23.79 0Z" id="p135w175" />
<path d="M143.75 447.62l19.51 0l0 14.52l-19.51 0Z" id="p135w176" />
<path d="M166.47 447.62l38.5 0l0 14.52l-38.5 0Z" id="p135w177" />
<path d="M143.75 464.29l32.06 0l0 14.52l-32.06 0Z" id="p135w178" />
<path d="M179.02 464.29l39.31 0l0 14.52l-39.31 0Z" id="p135w179" />
<path d="M221.53 464.29l16.83 0l0 14.52l-16.83 0Z" id="p135w180" />
<path d="M241.57 464.29l20.85 0l0 14.52l-20.85 0Z" id="p135w181" />
<path d="M265.63 464.29l69.24 0l0 14.52l-69.24 0Z" id="p135w182" />
<path d="M338.08 464.29l13.9 0l0 14.52l-13.9 0Z" id="p135w183" />
<path d="M355.19 464.29l17.65 0l0 14.52l-17.65 0Z" id="p135w184" />
<path d="M376.04 464.29l18.44 0l0 14.52l-18.44 0Z" id="p135w185" />
<path d="M397.69 464.29l40.35 0l0 14.52l-40.35 0Z" id="p135w186" />
<path d="M441.25 464.29l18.72 0l0 14.52l-18.72 0Z" id="p135w187" />
<path d="M463.17 464.29l54.55 0l0 14.52l-54.55 0Z" id="p135w188" />
<path d="M520.93 464.29l28.33 0l0 14.52l-28.33 0Z" id="p135w189" />
<path d="M552.47 464.29l13.9 0l0 14.52l-13.9 0Z" id="p135w190" />
<path d="M143.75 480.96l9.89 0l0 14.52l-9.89 0Z" id="p135w191" />
<path d="M156.84 480.96l69.24 0l0 14.52l-69.24 0Z" id="p135w192" />
<path d="M229.3 480.96l46.78 0l0 14.52l-46.78 0Z" id="p135w193" />
<path d="M279.28 480.96l15.5 0l0 14.52l-15.5 0Z" id="p135w194" />
<path d="M297.98 480.96l22.47 0l0 14.52l-22.47 0Z" id="p135w195" />
<path d="M323.66 480.96l13.9 0l0 14.52l-13.9 0Z" id="p135w196" />
<path d="M340.76 480.96l37.45 0l0 14.52l-37.45 0Z" id="p135w197" />
<path d="M168.43 497.63l27.01 0l0 14.52l-27.01 0Z" id="p135w198" />
<path d="M207.29 497.63l16.83 0l0 14.52l-16.83 0Z" id="p135w199" />
<path d="M227.33 497.63l20.85 0l0 14.52l-20.85 0Z" id="p135w200" />
<path d="M251.39 497.63l27.53 0l0 14.52l-27.53 0Z" id="p135w201" />
<path d="M282.13 497.63l32.1 0l0 14.52l-32.1 0Z" id="p135w202" />
<path d="M317.44 497.63l28.07 0l0 14.52l-28.07 0Z" id="p135w203" />
<path d="M348.72 497.63l36.88 0l0 14.52l-36.88 0Z" id="p135w204" />
<path d="M398.69 497.63l13.63 0l0 14.52l-13.63 0Z" id="p135w205" />
<path d="M415.54 497.63l29.39 0l0 14.52l-29.39 0Z" id="p135w206" />
<path d="M448.14 497.63l13.9 0l0 14.52l-13.9 0Z" id="p135w207" />
<path d="M465.25 497.63l35.39 0l0 14.52l-35.39 0Z" id="p135w208" />
<path d="M143.75 514.31l12.83 0l0 14.52l-12.83 0Z" id="p135w209" />
<path d="M159.79 514.31l57.48 0l0 14.52l-57.48 0Z" id="p135w210" />
<path d="M220.48 514.31l13.9 0l0 14.52l-13.9 0Z" id="p135w211" />
<path d="M237.58 514.31l90.09 0l0 14.52l-90.09 0Z" id="p135w212" />
<path d="M330.88 514.31l16.83 0l0 14.52l-16.83 0Z" id="p135w213" />
<path d="M350.91 514.31l14.18 0l0 14.52l-14.18 0Z" id="p135w214" />
<path d="M368.3 514.31l36.07 0l0 14.52l-36.07 0Z" id="p135w215" />
<path d="M407.58 514.31l58.54 0l0 14.52l-58.54 0Z" id="p135w216" />
<path d="M469.32 514.31l6.96 0l0 14.52l-6.96 0Z" id="p135w217" />
<path d="M479.49 514.31l22.45 0l0 14.52l-22.45 0Z" id="p135w218" />
<path d="M505.15 514.31l51.61 0l0 14.52l-51.61 0Z" id="p135w219" />
<path d="M559.96 514.31l13.9 0l0 14.52l-13.9 0Z" id="p135w220" />
<path d="M577.07 514.31l12.57 0l0 14.52l-12.57 0Z" id="p135w221" />
<path d="M592.84 514.31l38.75 0l0 14.52l-38.75 0Z" id="p135w222" />
<path d="M124.06 558.15l27.54 0l0 18.84l-27.54 0Z" id="p135w223" />
<path d="M155.26 558.15l37.06 0l0 18.84l-37.06 0Z" id="p135w224" />
<path d="M195.97 558.15l21.46 0l0 18.84l-21.46 0Z" id="p135w225" />
<path d="M221.08 558.15l39.7 0l0 18.84l-39.7 0Z" id="p135w226" />
<path d="M124.06 589.35l50.43 0l0 14.52l-50.43 0Z" id="p135w227" />
<path d="M177.7 589.35l20.85 0l0 14.52l-20.85 0Z" id="p135w228" />
<path d="M201.77 589.35l25.67 0l0 14.52l-25.67 0Z" id="p135w229" />
<path d="M230.65 589.35l27.26 0l0 14.52l-27.26 0Z" id="p135w230" />
<path d="M261.11 589.35l13.9 0l0 14.52l-13.9 0Z" id="p135w231" />
<path d="M278.22 589.35l43.83 0l0 14.52l-43.83 0Z" id="p135w232" />
<path d="M143.75 614.37l15.25 0l0 14.52l-15.25 0Z" id="p135w233" />
<path d="M162.21 614.37l46.78 0l0 14.52l-46.78 0Z" id="p135w234" />
<path d="M212.19 614.37l25.12 0l0 14.52l-25.12 0Z" id="p135w235" />
<path d="M240.52 614.37l14.18 0l0 14.52l-14.18 0Z" id="p135w236" />
<path d="M257.9 614.37l20.33 0l0 14.52l-20.33 0Z" id="p135w237" />
<path d="M281.44 614.37l21.12 0l0 14.52l-21.12 0Z" id="p135w238" />
<path d="M305.76 614.37l34.75 0l0 14.52l-34.75 0Z" id="p135w239" />
<path d="M343.72 614.37l41.96 0l0 14.52l-41.96 0Z" id="p135w240" />
<path d="M388.89 614.37l56.85 0l0 14.52l-56.85 0Z" id="p135w241" />
<path d="M448.95 614.37l23.26 0l0 14.52l-23.26 0Z" id="p135w242" />
<path d="M143.75 631.04l15.25 0l0 14.52l-15.25 0Z" id="p135w243" />
<path d="M162.21 631.04l32.54 0l0 14.52l-32.54 0Z" id="p135w244" />
<path d="M197.95 631.04l38.23 0l0 14.52l-38.23 0Z" id="p135w245" />
<path d="M239.38 631.04l41.45 0l0 14.52l-41.45 0Z" id="p135w246" />
<path d="M284.04 631.04l14.18 0l0 14.52l-14.18 0Z" id="p135w247" />
<path d="M301.42 631.04l11.22 0l0 14.52l-11.22 0Z" id="p135w248" />
<path d="M315.85 631.04l88.73 0l0 14.52l-88.73 0Z" id="p135w249" />
<path d="M407.78 631.04l16.04 0l0 14.52l-16.04 0Z" id="p135w250" />
<path d="M143.75 647.71l15.25 0l0 14.52l-15.25 0Z" id="p135w251" />
<path d="M162.21 647.71l38.38 0l0 14.52l-38.38 0Z" id="p135w252" />
<path d="M203.8 647.71l38.23 0l0 14.52l-38.23 0Z" id="p135w253" />
<path d="M245.23 647.71l41.17 0l0 14.52l-41.17 0Z" id="p135w254" />
<path d="M289.61 647.71l11.5 0l0 14.52l-11.5 0Z" id="p135w255" />
<path d="M304.31 647.71l18.98 0l0 14.52l-18.98 0Z" id="p135w256" />
<path d="M326.5 647.71l50.53 0l0 14.52l-50.53 0Z" id="p135w257" />
<path d="M380.23 647.71l23.53 0l0 14.52l-23.53 0Z" id="p135w258" />
<path d="M406.97 647.71l12.84 0l0 14.52l-12.84 0Z" id="p135w259" />
<path d="M423.02 647.71l71.55 0l0 14.52l-71.55 0Z" id="p135w260" />
<path d="M143.75 664.38l15.25 0l0 14.52l-15.25 0Z" id="p135w261" />
<path d="M162.21 664.38l32.54 0l0 14.52l-32.54 0Z" id="p135w262" />
<path d="M197.95 664.38l38.23 0l0 14.52l-38.23 0Z" id="p135w263" />
<path d="M239.38 664.38l56.68 0l0 14.52l-56.68 0Z" id="p135w264" />
<path d="M299.27 664.38l14.18 0l0 14.52l-14.18 0Z" id="p135w265" />
<path d="M316.65 664.38l18.44 0l0 14.52l-18.44 0Z" id="p135w266" />
<path d="M338.3 664.38l21.12 0l0 14.52l-21.12 0Z" id="p135w267" />
<path d="M362.62 664.38l53.46 0l0 14.52l-53.46 0Z" id="p135w268" />
<path d="M419.29 664.38l34.15 0l0 14.52l-34.15 0Z" id="p135w269" />
<path d="M456.38 664.38l54.94 0l0 14.52l-54.94 0Z" id="p135w270" />
<path d="M513.99 664.38l17.91 0l0 14.52l-17.91 0Z" id="p135w271" />
<path d="M535.11 664.38l40.35 0l0 14.52l-40.35 0Z" id="p135w272" />
<path d="M143.75 681.05l63.61 0l0 14.52l-63.61 0Z" id="p135w273" />
<path d="M210.57 681.05l21.12 0l0 14.52l-21.12 0Z" id="p135w274" />
<path d="M143.75 697.72l15.25 0l0 14.52l-15.25 0Z" id="p135w275" />
<path d="M162.21 697.72l44.63 0l0 14.52l-44.63 0Z" id="p135w276" />
<path d="M210.04 697.72l25.12 0l0 14.52l-25.12 0Z" id="p135w277" />
<path d="M238.37 697.72l14.18 0l0 14.52l-14.18 0Z" id="p135w278" />
<path d="M255.75 697.72l106.1 0l0 14.52l-106.1 0Z" id="p135w279" />
<path d="M365.05 697.72l76.19 0l0 14.52l-76.19 0Z" id="p135w280" />
<path d="M143.75 714.39l15.25 0l0 14.52l-15.25 0Z" id="p135w281" />
<path d="M162.21 714.39l44.63 0l0 14.52l-44.63 0Z" id="p135w282" />
<path d="M210.04 714.39l25.12 0l0 14.52l-25.12 0Z" id="p135w283" />
<path d="M238.37 714.39l14.18 0l0 14.52l-14.18 0Z" id="p135w284" />
<path d="M255.75 714.39l107.93 0l0 14.52l-107.93 0Z" id="p135w285" />
<path d="M366.89 714.39l37.62 0l0 14.52l-37.62 0Z" id="p135w286" />
<path d="M407.71 714.39l32.87 0l0 14.52l-32.87 0Z" id="p135w287" />
<path d="M443.79 714.39l31.01 0l0 14.52l-31.01 0Z" id="p135w288" />
<path d="M478 714.39l15.5 0l0 14.52l-15.5 0Z" id="p135w289" />
<path d="M496.7 714.39l53.39 0l0 14.52l-53.39 0Z" id="p135w290" />
<path d="M553.3 714.39l25.94 0l0 14.52l-25.94 0Z" id="p135w291" />
<path d="M47.55 116.02l41.07 0l0 12.3l-41.07 0Z" id="p135w292" />
<path d="M68.99 341.1l19.63 0l0 12.3l-19.63 0Z" id="p135w293" />
<path d="M60.68 591.13l27.93 0l0 12.29l-27.93 0Z" id="p135w294" />
<path d="M68.27 39.02l46.09 0l0 15.38l-46.09 0Z" id="p135w295" />
<path d="M152.94 39.02l59.51 0l0 15.38l-59.51 0Z" id="p135w296" />
<path d="M251.41 39.02l59.8 0l0 15.38l-59.8 0Z" id="p135w297" />
<path d="M356.5 39.02l83.63 0l0 15.38l-83.63 0Z" id="p135w298" />
<path d="M468.42 38.6l34.29 0l0 16.09l-34.29 0Z" id="p135w299" />
<path d="M614.95 983l76.15 0l0 12.23l-76.15 0Z" id="p135w300" />
<path d="M527.54 26.71l108.51 0l0 18.78l-108.51 0Z" id="p135w301" />
<path d="M526.67 43.36l111.66 0l0 18.94l-111.66 0Z" id="p135w302" />
<path d="M525.8 60.01l80.89 0l0 17.33l-80.89 0Z" id="p135w303" />
</svg>
