<?xml version="1.0" encoding="UTF-8"?>
<svg xmlns="http://www.w3.org/2000/svg" xmlns:xlink="http://www.w3.org/1999/xlink" version="1.1" baseProfile="full" width="768" height="1024" viewBox="0,0,768,1024" preserveAspectRatio="xMinYMin meet" >
<style type="text/css">
<![CDATA[
path {fill-opacity: 0.5;fill: #00aeef;visibility: hidden;}
]]>
</style>
<path d="M124.06 38.6l71 0l0 16.09l-71 0Z" id="p190w1" />
<path d="M78.77 983.66l102.83 0l0 12.23l-102.83 0Z" id="p190w2" />
<path d="M124.06 110.01l73.56 0l0 14.6l-73.56 0Z" id="p190w3" />
<path d="M200.92 108.77l60.15 0l0 16.35l-60.15 0Z" id="p190w4" />
<path d="M297.36 110.09l40.34 0l0 14.52l-40.34 0Z" id="p190w5" />
<path d="M340.9 110.09l14.16 0l0 14.52l-14.16 0Z" id="p190w6" />
<path d="M358.27 110.09l47.31 0l0 14.52l-47.31 0Z" id="p190w7" />
<path d="M482.46 110.09l76.98 0l0 14.52l-76.98 0Z" id="p190w8" />
<path d="M579.49 110.09l69.23 0l0 14.52l-69.23 0Z" id="p190w9" />
<path d="M651.93 110.09l44.11 0l0 14.52l-44.11 0Z" id="p190w10" />
<path d="M482.46 126.76l13.9 0l0 14.52l-13.9 0Z" id="p190w11" />
<path d="M499.57 126.76l53.48 0l0 14.52l-53.48 0Z" id="p190w12" />
<path d="M556.26 126.76l47.53 0l0 14.52l-47.53 0Z" id="p190w13" />
<path d="M124.06 144.83l14.31 0l0 14.6l-14.31 0Z" id="p190w14" />
<path d="M141.58 144.83l40.14 0l0 14.6l-40.14 0Z" id="p190w15" />
<path d="M185.02 143.59l46.77 0l0 16.35l-46.77 0Z" id="p190w16" />
<path d="M297.36 144.91l17.11 0l0 14.52l-17.11 0Z" id="p190w17" />
<path d="M317.67 144.91l41.63 0l0 14.52l-41.63 0Z" id="p190w18" />
<path d="M482.46 144.91l18.44 0l0 14.52l-18.44 0Z" id="p190w19" />
<path d="M504.11 144.91l61.19 0l0 14.52l-61.19 0Z" id="p190w20" />
<path d="M568.51 144.91l60.94 0l0 14.52l-60.94 0Z" id="p190w21" />
<path d="M482.46 161.58l14.18 0l0 14.52l-14.18 0Z" id="p190w22" />
<path d="M499.85 161.58l42.98 0l0 14.52l-42.98 0Z" id="p190w23" />
<path d="M124.06 179.65l92.09 0l0 14.6l-92.09 0Z" id="p190w24" />
<path d="M124.06 195.08l73.7 0l0 16.35l-73.7 0Z" id="p190w25" />
<path d="M297.36 179.73l62.76 0l0 14.52l-62.76 0Z" id="p190w26" />
<path d="M363.33 179.73l32.6 0l0 14.52l-32.6 0Z" id="p190w27" />
<path d="M482.46 179.73l13.9 0l0 14.52l-13.9 0Z" id="p190w28" />
<path d="M499.57 179.73l25.92 0l0 14.52l-25.92 0Z" id="p190w29" />
<path d="M528.7 179.73l19.51 0l0 14.52l-19.51 0Z" id="p190w30" />
<path d="M551.42 179.73l39.56 0l0 14.52l-39.56 0Z" id="p190w31" />
<path d="M500.19 196.42l39.55 0l0 14.61l-39.55 0Z" id="p190w32" />
<path d="M124.06 214.47l76.16 0l0 14.6l-76.16 0Z" id="p190w33" />
<path d="M203.52 213.23l60.7 0l0 16.35l-60.7 0Z" id="p190w34" />
<path d="M297.35 214.55l14.16 0l0 14.52l-14.16 0Z" id="p190w35" />
<path d="M314.72 214.55l31.77 0l0 14.52l-31.77 0Z" id="p190w36" />
<path d="M349.7 214.55l51.31 0l0 14.52l-51.31 0Z" id="p190w37" />
<path d="M482.46 214.55l15.77 0l0 14.52l-15.77 0Z" id="p190w38" />
<path d="M501.44 214.55l21.92 0l0 14.52l-21.92 0Z" id="p190w39" />
<path d="M526.57 214.55l32.87 0l0 14.52l-32.87 0Z" id="p190w40" />
<path d="M562.65 214.55l78.03 0l0 14.52l-78.03 0Z" id="p190w41" />
<path d="M124.06 235.18l20.99 0l0 14.6l-20.99 0Z" id="p190w42" />
<path d="M148.26 235.18l52.32 0l0 14.6l-52.32 0Z" id="p190w43" />
<path d="M203.88 233.94l60.44 0l0 16.35l-60.44 0Z" id="p190w44" />
<path d="M297.36 235.26l17.11 0l0 14.52l-17.11 0Z" id="p190w45" />
<path d="M317.67 235.26l52.65 0l0 14.52l-52.65 0Z" id="p190w46" />
<path d="M482.46 235.26l12.41 0l0 14.52l-12.41 0Z" id="p190w47" />
<path d="M498.08 235.26l12.29 0l0 14.52l-12.29 0Z" id="p190w48" />
<path d="M513.57 235.26l46.51 0l0 14.52l-46.51 0Z" id="p190w49" />
<path d="M563.3 235.26l57.72 0l0 14.52l-57.72 0Z" id="p190w50" />
<path d="M624.22 235.26l13.9 0l0 14.52l-13.9 0Z" id="p190w51" />
<path d="M641.33 235.26l47.04 0l0 14.52l-47.04 0Z" id="p190w52" />
<path d="M482.46 251.93l9.89 0l0 14.52l-9.89 0Z" id="p190w53" />
<path d="M495.56 251.93l28.34 0l0 14.52l-28.34 0Z" id="p190w54" />
<path d="M500.19 268.54l20.99 0l0 14.6l-20.99 0Z" id="p190w55" />
<path d="M524.38 268.62l51.75 0l0 14.61l-51.75 0Z" id="p190w56" />
<path d="M600.28 268.54l17.24 0l0 14.6l-17.24 0Z" id="p190w57" />
<path d="M620.72 268.62l52.29 0l0 14.61l-52.29 0Z" id="p190w58" />
<path d="M504.13 283.98l46.83 0l0 16.35l-46.83 0Z" id="p190w59" />
<path d="M124.06 303.35l30.13 0l0 14.6l-30.13 0Z" id="p190w60" />
<path d="M157.49 302.11l34.37 0l0 16.35l-34.37 0Z" id="p190w61" />
<path d="M297.35 303.43l39.29 0l0 14.52l-39.29 0Z" id="p190w62" />
<path d="M482.46 303.43l12.83 0l0 14.52l-12.83 0Z" id="p190w63" />
<path d="M498.5 303.43l41.71 0l0 14.52l-41.71 0Z" id="p190w64" />
<path d="M543.41 303.43l25.4 0l0 14.52l-25.4 0Z" id="p190w65" />
<path d="M572.02 303.43l26.74 0l0 14.52l-26.74 0Z" id="p190w66" />
<path d="M601.97 303.43l40.36 0l0 14.52l-40.36 0Z" id="p190w67" />
<path d="M124.06 324.06l14.31 0l0 14.6l-14.31 0Z" id="p190w68" />
<path d="M141.57 324.06l41.12 0l0 14.6l-41.12 0Z" id="p190w69" />
<path d="M185.9 324.06l13.9 0l0 14.6l-13.9 0Z" id="p190w70" />
<path d="M203 324.06l27.77 0l0 14.6l-27.77 0Z" id="p190w71" />
<path d="M233.98 324.06l14.66 0l0 14.6l-14.66 0Z" id="p190w72" />
<path d="M124.06 339.49l86.75 0l0 16.35l-86.75 0Z" id="p190w73" />
<path d="M297.35 324.14l17.11 0l0 14.52l-17.11 0Z" id="p190w74" />
<path d="M317.67 324.14l94.82 0l0 14.52l-94.82 0Z" id="p190w75" />
<path d="M482.46 324.14l20.59 0l0 14.52l-20.59 0Z" id="p190w76" />
<path d="M505.82 324.14l39.02 0l0 14.52l-39.02 0Z" id="p190w77" />
<path d="M548.05 324.14l52.12 0l0 14.52l-52.12 0Z" id="p190w78" />
<path d="M603.38 324.14l24.06 0l0 14.52l-24.06 0Z" id="p190w79" />
<path d="M630.65 324.14l15.5 0l0 14.52l-15.5 0Z" id="p190w80" />
<path d="M649.35 324.14l47.32 0l0 14.52l-47.32 0Z" id="p190w81" />
<path d="M482.46 340.81l24.33 0l0 14.52l-24.33 0Z" id="p190w82" />
<path d="M509.99 340.81l13.9 0l0 14.52l-13.9 0Z" id="p190w83" />
<path d="M527.1 340.81l27.53 0l0 14.52l-27.53 0Z" id="p190w84" />
<path d="M557.84 340.81l15.79 0l0 14.52l-15.79 0Z" id="p190w85" />
<path d="M124.06 358.88l44.07 0l0 14.6l-44.07 0Z" id="p190w86" />
<path d="M171.34 358.88l17.11 0l0 14.6l-17.11 0Z" id="p190w87" />
<path d="M191.65 358.88l48.28 0l0 14.6l-48.28 0Z" id="p190w88" />
<path d="M124.06 374.31l68.66 0l0 16.35l-68.66 0Z" id="p190w89" />
<path d="M297.35 358.96l12.57 0l0 14.52l-12.57 0Z" id="p190w90" />
<path d="M313.13 358.96l34.48 0l0 14.52l-34.48 0Z" id="p190w91" />
<path d="M350.81 358.96l41.43 0l0 14.52l-41.43 0Z" id="p190w92" />
<path d="M482.46 358.96l43.74 0l0 14.52l-43.74 0Z" id="p190w93" />
<path d="M529.41 358.96l16.83 0l0 14.52l-16.83 0Z" id="p190w94" />
<path d="M549.45 358.96l47.58 0l0 14.52l-47.58 0Z" id="p190w95" />
<path d="M497.84 375.65l37.58 0l0 14.61l-37.58 0Z" id="p190w96" />
<path d="M500.69 392.32l30.94 0l0 14.61l-30.94 0Z" id="p190w97" />
<path d="M124.06 410.38l14.31 0l0 14.6l-14.31 0Z" id="p190w98" />
<path d="M141.57 410.38l42.04 0l0 14.6l-42.04 0Z" id="p190w99" />
<path d="M183.61 410.38l20.99 0l0 14.6l-20.99 0Z" id="p190w100" />
<path d="M207.81 410.38l45.21 0l0 14.6l-45.21 0Z" id="p190w101" />
<path d="M124.06 425.81l105.26 0l0 16.35l-105.26 0Z" id="p190w102" />
<path d="M297.35 410.46l17.11 0l0 14.52l-17.11 0Z" id="p190w103" />
<path d="M317.67 410.46l73.37 0l0 14.52l-73.37 0Z" id="p190w104" />
<path d="M394.25 410.46l55.07 0l0 14.52l-55.07 0Z" id="p190w105" />
<path d="M482.46 410.46l23.24 0l0 14.52l-23.24 0Z" id="p190w106" />
<path d="M508.91 410.46l42.49 0l0 14.52l-42.49 0Z" id="p190w107" />
<path d="M554.61 410.46l24.33 0l0 14.52l-24.33 0Z" id="p190w108" />
<path d="M582.14 410.46l19.51 0l0 14.52l-19.51 0Z" id="p190w109" />
<path d="M604.86 410.46l25.92 0l0 14.52l-25.92 0Z" id="p190w110" />
<path d="M633.99 410.46l44.64 0l0 14.52l-44.64 0Z" id="p190w111" />
<path d="M500.69 427.14l9.89 0l0 14.61l-9.89 0Z" id="p190w112" />
<path d="M513.78 427.14l29.04 0l0 14.61l-29.04 0Z" id="p190w113" />
<path d="M124.06 468.58l47.08 0l0 18.44l-47.08 0Z" id="p190w114" />
<path d="M124.06 495.7l79.68 0l0 14.6l-79.68 0Z" id="p190w115" />
<path d="M207.05 494.46l35 0l0 16.35l-35 0Z" id="p190w116" />
<path d="M297.36 495.78l45.71 0l0 14.52l-45.71 0Z" id="p190w117" />
<path d="M482.46 495.78l26.19 0l0 14.52l-26.19 0Z" id="p190w118" />
<path d="M511.86 495.78l20.85 0l0 14.52l-20.85 0Z" id="p190w119" />
<path d="M535.92 495.78l57.47 0l0 14.52l-57.47 0Z" id="p190w120" />
<path d="M596.6 495.78l21.37 0l0 14.52l-21.37 0Z" id="p190w121" />
<path d="M621.17 495.78l43.6 0l0 14.52l-43.6 0Z" id="p190w122" />
<path d="M500.69 512.47l52.59 0l0 14.61l-52.59 0Z" id="p190w123" />
<path d="M124.06 530.52l52.31 0l0 14.6l-52.31 0Z" id="p190w124" />
<path d="M179.57 530.52l31.57 0l0 14.6l-31.57 0Z" id="p190w125" />
<path d="M214.45 529.28l59.67 0l0 16.35l-59.67 0Z" id="p190w126" />
<path d="M297.35 530.63l49.18 0l0 14.52l-49.18 0Z" id="p190w127" />
<path d="M349.74 530.6l49.58 0l0 14.52l-49.58 0Z" id="p190w128" />
<path d="M482.46 530.6l51.86 0l0 14.52l-51.86 0Z" id="p190w129" />
<path d="M537.53 530.6l13.9 0l0 14.52l-13.9 0Z" id="p190w130" />
<path d="M554.63 530.6l31.01 0l0 14.52l-31.01 0Z" id="p190w131" />
<path d="M124.06 551.23l10.03 0l0 14.6l-10.03 0Z" id="p190w132" />
<path d="M137.3 551.23l28.8 0l0 14.6l-28.8 0Z" id="p190w133" />
<path d="M169.4 549.99l48.61 0l0 16.35l-48.61 0Z" id="p190w134" />
<path d="M297.35 551.31l19.51 0l0 14.52l-19.51 0Z" id="p190w135" />
<path d="M320.07 551.31l31.55 0l0 14.52l-31.55 0Z" id="p190w136" />
<path d="M482.46 551.31l12.41 0l0 14.52l-12.41 0Z" id="p190w137" />
<path d="M498.07 551.31l26.74 0l0 14.52l-26.74 0Z" id="p190w138" />
<path d="M528.02 551.31l37.93 0l0 14.52l-37.93 0Z" id="p190w139" />
<path d="M569.17 551.31l9.89 0l0 14.52l-9.89 0Z" id="p190w140" />
<path d="M582.26 551.31l30.75 0l0 14.52l-30.75 0Z" id="p190w141" />
<path d="M616.22 551.31l14.43 0l0 14.52l-14.43 0Z" id="p190w142" />
<path d="M633.85 551.31l11.22 0l0 14.52l-11.22 0Z" id="p190w143" />
<path d="M648.28 551.31l24.85 0l0 14.52l-24.85 0Z" id="p190w144" />
<path d="M500.19 567.92l10.03 0l0 14.6l-10.03 0Z" id="p190w145" />
<path d="M513.43 568l28.54 0l0 14.61l-28.54 0Z" id="p190w146" />
<path d="M566.1 567.92l19.63 0l0 14.6l-19.63 0Z" id="p190w147" />
<path d="M588.94 568l31.48 0l0 14.61l-31.48 0Z" id="p190w148" />
<path d="M124.06 586.06l14.31 0l0 14.6l-14.31 0Z" id="p190w149" />
<path d="M141.57 586.06l43.93 0l0 14.6l-43.93 0Z" id="p190w150" />
<path d="M188.8 584.82l56.51 0l0 16.35l-56.51 0Z" id="p190w151" />
<path d="M297.35 586.14l17.11 0l0 14.52l-17.11 0Z" id="p190w152" />
<path d="M317.67 586.14l43.85 0l0 14.52l-43.85 0Z" id="p190w153" />
<path d="M482.46 586.14l17.63 0l0 14.52l-17.63 0Z" id="p190w154" />
<path d="M503.3 586.14l28.85 0l0 14.52l-28.85 0Z" id="p190w155" />
<path d="M535.36 586.14l37.7 0l0 14.52l-37.7 0Z" id="p190w156" />
<path d="M576.27 586.14l54.55 0l0 14.52l-54.55 0Z" id="p190w157" />
<path d="M482.46 602.81l13.9 0l0 14.52l-13.9 0Z" id="p190w158" />
<path d="M499.57 602.81l52.4 0l0 14.52l-52.4 0Z" id="p190w159" />
<path d="M124.06 620.92l101.67 0l0 14.6l-101.67 0Z" id="p190w160" />
<path d="M228.94 620.96l33.14 0l0 14.52l-33.14 0Z" id="p190w161" />
<path d="M124.06 636.35l71.55 0l0 16.35l-71.55 0Z" id="p190w162" />
<path d="M297.35 620.96l56.85 0l0 14.52l-56.85 0Z" id="p190w163" />
<path d="M482.46 620.96l25.4 0l0 14.52l-25.4 0Z" id="p190w164" />
<path d="M511.06 620.96l41.71 0l0 14.52l-41.71 0Z" id="p190w165" />
<path d="M562.58 620.96l24.88 0l0 14.52l-24.88 0Z" id="p190w166" />
<path d="M590.67 620.96l15.5 0l0 14.52l-15.5 0Z" id="p190w167" />
<path d="M609.37 620.96l35 0l0 14.52l-35 0Z" id="p190w168" />
<path d="M647.58 620.96l18.72 0l0 14.52l-18.72 0Z" id="p190w169" />
<path d="M669.51 620.96l17.9 0l0 14.52l-17.9 0Z" id="p190w170" />
<path d="M482.46 637.63l52.92 0l0 14.52l-52.92 0Z" id="p190w171" />
<path d="M124.06 655.72l31.57 0l0 14.6l-31.57 0Z" id="p190w172" />
<path d="M158.84 655.72l52.31 0l0 14.6l-52.31 0Z" id="p190w173" />
<path d="M124.06 671.15l17.85 0l0 16.35l-17.85 0Z" id="p190w174" />
<path d="M159.62 671.15l41.83 0l0 16.35l-41.83 0Z" id="p190w175" />
<path d="M297.35 655.8l49.18 0l0 14.52l-49.18 0Z" id="p190w176" />
<path d="M482.46 655.8l10.43 0l0 14.52l-10.43 0Z" id="p190w177" />
<path d="M496.1 655.8l13.9 0l0 14.52l-13.9 0Z" id="p190w178" />
<path d="M513.2 655.8l25.67 0l0 14.52l-25.67 0Z" id="p190w179" />
<path d="M542.08 655.8l20.85 0l0 14.52l-20.85 0Z" id="p190w180" />
<path d="M566.14 655.8l54.8 0l0 14.52l-54.8 0Z" id="p190w181" />
<path d="M124.06 690.53l70.46 0l0 14.6l-70.46 0Z" id="p190w182" />
<path d="M197.82 689.29l55.71 0l0 16.35l-55.71 0Z" id="p190w183" />
<path d="M297.35 690.61l23.05 0l0 14.52l-23.05 0Z" id="p190w184" />
<path d="M323.61 690.61l49.46 0l0 14.52l-49.46 0Z" id="p190w185" />
<path d="M504.13 689.19l55.71 0l0 16.35l-55.71 0Z" id="p190w186" />
<path d="M500.69 707.18l41.43 0l0 14.61l-41.43 0Z" id="p190w187" />
<path d="M124.06 725.28l26.49 0l0 14.6l-26.49 0Z" id="p190w188" />
<path d="M153.76 725.28l34.38 0l0 14.6l-34.38 0Z" id="p190w189" />
<path d="M191.18 725.32l33.14 0l0 14.52l-33.14 0Z" id="p190w190" />
<path d="M124.06 740.71l59.19 0l0 16.35l-59.19 0Z" id="p190w191" />
<path d="M297.35 725.32l20.58 0l0 14.52l-20.58 0Z" id="p190w192" />
<path d="M321.14 725.32l13.36 0l0 14.52l-13.36 0Z" id="p190w193" />
<path d="M337.7 725.32l87.01 0l0 14.52l-87.01 0Z" id="p190w194" />
<path d="M297.35 741.96l30.46 0l0 14.52l-30.46 0Z" id="p190w195" />
<path d="M482.46 725.32l12.83 0l0 14.52l-12.83 0Z" id="p190w196" />
<path d="M498.5 725.32l29.39 0l0 14.52l-29.39 0Z" id="p190w197" />
<path d="M531.1 725.32l13.9 0l0 14.52l-13.9 0Z" id="p190w198" />
<path d="M548.2 725.32l12.57 0l0 14.52l-12.57 0Z" id="p190w199" />
<path d="M563.98 725.32l39.56 0l0 14.52l-39.56 0Z" id="p190w200" />
<path d="M606.74 725.32l24.85 0l0 14.52l-24.85 0Z" id="p190w201" />
<path d="M634.81 725.32l32.63 0l0 14.52l-32.63 0Z" id="p190w202" />
<path d="M497.84 742l26.37 0l0 14.61l-26.37 0Z" id="p190w203" />
<path d="M527.42 742l65.14 0l0 14.61l-65.14 0Z" id="p190w204" />
<path d="M124.06 760.09l72.73 0l0 14.6l-72.73 0Z" id="p190w205" />
<path d="M200.09 758.84l69.82 0l0 16.35l-69.82 0Z" id="p190w206" />
<path d="M297.36 760.16l26.52 0l0 14.52l-26.52 0Z" id="p190w207" />
<path d="M327.08 760.16l61.76 0l0 14.52l-61.76 0Z" id="p190w208" />
<path d="M392.05 760.16l19.24 0l0 14.52l-19.24 0Z" id="p190w209" />
<path d="M482.46 760.16l13.9 0l0 14.52l-13.9 0Z" id="p190w210" />
<path d="M499.57 760.16l7.48 0l0 14.52l-7.48 0Z" id="p190w211" />
<path d="M507.05 760.16l14.16 0l0 14.52l-14.16 0Z" id="p190w212" />
<path d="M524.42 760.16l17.63 0l0 14.52l-17.63 0Z" id="p190w213" />
<path d="M545.27 760.16l24.85 0l0 14.52l-24.85 0Z" id="p190w214" />
<path d="M573.33 760.16l75.1 0l0 14.52l-75.1 0Z" id="p190w215" />
<path d="M491.11 776.85l36.35 0l0 14.61l-36.35 0Z" id="p190w216" />
<path d="M534.14 776.85l29.39 0l0 14.61l-29.39 0Z" id="p190w217" />
<path d="M500.69 793.52l43.03 0l0 14.61l-43.03 0Z" id="p190w218" />
<path d="M124.06 811.58l20.99 0l0 14.6l-20.99 0Z" id="p190w219" />
<path d="M148.25 811.58l26.54 0l0 14.6l-26.54 0Z" id="p190w220" />
<path d="M178.1 810.34l50.47 0l0 16.35l-50.47 0Z" id="p190w221" />
<path d="M297.35 811.66l17.11 0l0 14.52l-17.11 0Z" id="p190w222" />
<path d="M317.67 811.66l31.28 0l0 14.52l-31.28 0Z" id="p190w223" />
<path d="M482.46 811.66l21.65 0l0 14.52l-21.65 0Z" id="p190w224" />
<path d="M507.31 811.66l20.85 0l0 14.52l-20.85 0Z" id="p190w225" />
<path d="M531.38 811.66l26.21 0l0 14.52l-26.21 0Z" id="p190w226" />
<path d="M560.8 811.66l14.98 0l0 14.52l-14.98 0Z" id="p190w227" />
<path d="M124.06 832.29l14.31 0l0 14.6l-14.31 0Z" id="p190w228" />
<path d="M141.57 832.29l51.52 0l0 14.6l-51.52 0Z" id="p190w229" />
<path d="M196.39 831.05l53.06 0l0 16.35l-53.06 0Z" id="p190w230" />
<path d="M297.35 832.37l17.11 0l0 14.52l-17.11 0Z" id="p190w231" />
<path d="M317.67 832.37l49.72 0l0 14.52l-49.72 0Z" id="p190w232" />
<path d="M482.46 832.37l26.19 0l0 14.52l-26.19 0Z" id="p190w233" />
<path d="M511.85 832.37l14.18 0l0 14.52l-14.18 0Z" id="p190w234" />
<path d="M529.24 832.37l21.37 0l0 14.52l-21.37 0Z" id="p190w235" />
<path d="M553.81 832.37l27.53 0l0 14.52l-27.53 0Z" id="p190w236" />
<path d="M584.56 832.37l53.72 0l0 14.52l-53.72 0Z" id="p190w237" />
<path d="M124.06 853l20.99 0l0 14.6l-20.99 0Z" id="p190w238" />
<path d="M148.25 853l53.55 0l0 14.6l-53.55 0Z" id="p190w239" />
<path d="M205.1 851.76l49.74 0l0 16.35l-49.74 0Z" id="p190w240" />
<path d="M297.35 853.08l17.11 0l0 14.52l-17.11 0Z" id="p190w241" />
<path d="M317.4 853.08l54.24 0l0 14.52l-54.24 0Z" id="p190w242" />
<path d="M297.35 869.72l24.55 0l0 14.52l-24.55 0Z" id="p190w243" />
<path d="M325.11 869.75l17.11 0l0 14.52l-17.11 0Z" id="p190w244" />
<path d="M345.42 869.75l48.1 0l0 14.52l-48.1 0Z" id="p190w245" />
<path d="M482.46 853.08l42.95 0l0 14.52l-42.95 0Z" id="p190w246" />
<path d="M528.62 853.08l16.83 0l0 14.52l-16.83 0Z" id="p190w247" />
<path d="M548.65 853.08l9.89 0l0 14.52l-9.89 0Z" id="p190w248" />
<path d="M561.75 853.08l53.72 0l0 14.52l-53.72 0Z" id="p190w249" />
<path d="M618.68 853.08l14.18 0l0 14.52l-14.18 0Z" id="p190w250" />
<path d="M636.06 853.08l52.65 0l0 14.52l-52.65 0Z" id="p190w251" />
<path d="M482.46 869.75l46.51 0l0 14.52l-46.51 0Z" id="p190w252" />
<path d="M500.19 886.44l53.44 0l0 14.61l-53.44 0Z" id="p190w253" />
</svg>
