<?xml version="1.0" encoding="UTF-8"?>
<svg xmlns="http://www.w3.org/2000/svg" xmlns:xlink="http://www.w3.org/1999/xlink" version="1.1" baseProfile="full" width="768" height="1024" viewBox="0,0,768,1024" preserveAspectRatio="xMinYMin meet" >
<style type="text/css">
<![CDATA[
path {fill-opacity: 0.5;fill: #00aeef;visibility: hidden;}
]]>
</style>
<path d="M124.06 38.6l71 0l0 16.09l-71 0Z" id="p200w1" />
<path d="M78.77 983.66l119.64 0l0 12.23l-119.64 0Z" id="p200w2" />
<path d="M124.06 110.01l14.31 0l0 14.6l-14.31 0Z" id="p200w3" />
<path d="M141.58 110.01l52.69 0l0 14.6l-52.69 0Z" id="p200w4" />
<path d="M194.27 110.01l20.99 0l0 14.6l-20.99 0Z" id="p200w5" />
<path d="M218.46 110.01l54.26 0l0 14.6l-54.26 0Z" id="p200w6" />
<path d="M124.06 125.44l109.91 0l0 16.35l-109.91 0Z" id="p200w7" />
<path d="M297.36 110.09l17.11 0l0 14.52l-17.11 0Z" id="p200w8" />
<path d="M317.67 110.09l72.85 0l0 14.52l-72.85 0Z" id="p200w9" />
<path d="M393.72 110.09l54.54 0l0 14.52l-54.54 0Z" id="p200w10" />
<path d="M493.42 110.09l53.47 0l0 14.52l-53.47 0Z" id="p200w11" />
<path d="M550.1 110.09l6.41 0l0 14.52l-6.41 0Z" id="p200w12" />
<path d="M578.7 110.09l19.51 0l0 14.52l-19.51 0Z" id="p200w13" />
<path d="M601.41 110.09l52.65 0l0 14.52l-52.65 0Z" id="p200w14" />
<path d="M482.46 126.76l14.18 0l0 14.52l-14.18 0Z" id="p200w15" />
<path d="M499.85 126.76l39.03 0l0 14.52l-39.03 0Z" id="p200w16" />
<path d="M542.08 126.76l32.87 0l0 14.52l-32.87 0Z" id="p200w17" />
<path d="M500.69 143.45l25.32 0l0 14.61l-25.32 0Z" id="p200w18" />
<path d="M529.21 143.45l17.9 0l0 14.61l-17.9 0Z" id="p200w19" />
<path d="M550.32 143.45l37.67 0l0 14.61l-37.67 0Z" id="p200w20" />
<path d="M124.06 161.51l79.63 0l0 14.6l-79.63 0Z" id="p200w21" />
<path d="M206.99 160.27l61.42 0l0 16.35l-61.42 0Z" id="p200w22" />
<path d="M297.35 161.59l48.59 0l0 14.52l-48.59 0Z" id="p200w23" />
<path d="M500.69 161.52l26.2 0l0 14.61l-26.2 0Z" id="p200w24" />
<path d="M124.06 182.22l10.02 0l0 14.6l-10.02 0Z" id="p200w25" />
<path d="M137.28 182.22l27.61 0l0 14.6l-27.61 0Z" id="p200w26" />
<path d="M168.2 180.98l46.49 0l0 16.35l-46.49 0Z" id="p200w27" />
<path d="M297.35 182.3l17.11 0l0 14.52l-17.11 0Z" id="p200w28" />
<path d="M317.67 182.3l32.06 0l0 14.52l-32.06 0Z" id="p200w29" />
<path d="M482.46 182.3l27.8 0l0 14.52l-27.8 0Z" id="p200w30" />
<path d="M513.46 182.3l15.5 0l0 14.52l-15.5 0Z" id="p200w31" />
<path d="M532.17 182.3l44.84 0l0 14.52l-44.84 0Z" id="p200w32" />
<path d="M580.21 182.3l30.74 0l0 14.52l-30.74 0Z" id="p200w33" />
<path d="M614.16 182.3l15.5 0l0 14.52l-15.5 0Z" id="p200w34" />
<path d="M632.86 182.3l32.88 0l0 14.52l-32.88 0Z" id="p200w35" />
<path d="M668.95 182.3l24.33 0l0 14.52l-24.33 0Z" id="p200w36" />
<path d="M482.46 198.97l21.37 0l0 14.52l-21.37 0Z" id="p200w37" />
<path d="M507.04 198.97l32.62 0l0 14.52l-32.62 0Z" id="p200w38" />
<path d="M124.06 217.04l26.54 0l0 14.6l-26.54 0Z" id="p200w39" />
<path d="M150.6 217.04l16 0l0 14.6l-16 0Z" id="p200w40" />
<path d="M169.81 217.04l13.87 0l0 14.6l-13.87 0Z" id="p200w41" />
<path d="M186.89 217.04l32.19 0l0 14.6l-32.19 0Z" id="p200w42" />
<path d="M222.38 215.8l46.74 0l0 16.35l-46.74 0Z" id="p200w43" />
<path d="M297.35 217.12l48.1 0l0 14.52l-48.1 0Z" id="p200w44" />
<path d="M348.66 217.12l41.41 0l0 14.52l-41.41 0Z" id="p200w45" />
<path d="M297.35 233.79l48.1 0l0 14.52l-48.1 0Z" id="p200w46" />
<path d="M348.66 233.79l60.65 0l0 14.52l-60.65 0Z" id="p200w47" />
<path d="M297.35 250.46l20.33 0l0 14.52l-20.33 0Z" id="p200w48" />
<path d="M320.89 250.46l51.83 0l0 14.52l-51.83 0Z" id="p200w49" />
<path d="M375.93 250.46l25.94 0l0 14.52l-25.94 0Z" id="p200w50" />
<path d="M401.86 250.46l35.77 0l0 14.52l-35.77 0Z" id="p200w51" />
<path d="M297.35 267.13l56.65 0l0 14.52l-56.65 0Z" id="p200w52" />
<path d="M357.21 267.13l52.32 0l0 14.52l-52.32 0Z" id="p200w53" />
<path d="M482.46 217.12l6.96 0l0 14.52l-6.96 0Z" id="p200w54" />
<path d="M492.62 217.12l22.45 0l0 14.52l-22.45 0Z" id="p200w55" />
<path d="M518.28 217.12l25.94 0l0 14.52l-25.94 0Z" id="p200w56" />
<path d="M544.22 217.12l15.76 0l0 14.52l-15.76 0Z" id="p200w57" />
<path d="M563.19 217.12l14.18 0l0 14.52l-14.18 0Z" id="p200w58" />
<path d="M580.57 217.12l27.53 0l0 14.52l-27.53 0Z" id="p200w59" />
<path d="M611.31 217.12l37.68 0l0 14.52l-37.68 0Z" id="p200w60" />
<path d="M124.06 285.2l14.31 0l0 14.6l-14.31 0Z" id="p200w61" />
<path d="M141.57 285.2l63.96 0l0 14.6l-63.96 0Z" id="p200w62" />
<path d="M124.06 301.87l20.99 0l0 14.6l-20.99 0Z" id="p200w63" />
<path d="M148.25 301.87l60.58 0l0 14.6l-60.58 0Z" id="p200w64" />
<path d="M124.06 317.3l144.49 0l0 16.35l-144.49 0Z" id="p200w65" />
<path d="M297.35 285.28l17.11 0l0 14.52l-17.11 0Z" id="p200w66" />
<path d="M317.67 285.28l65.61 0l0 14.52l-65.61 0Z" id="p200w67" />
<path d="M297.35 301.95l23.79 0l0 14.52l-23.79 0Z" id="p200w68" />
<path d="M324.34 301.95l71.09 0l0 14.52l-71.09 0Z" id="p200w69" />
<path d="M482.46 285.28l19.79 0l0 14.52l-19.79 0Z" id="p200w70" />
<path d="M505.45 285.28l44.46 0l0 14.52l-44.46 0Z" id="p200w71" />
<path d="M553.11 285.28l41.43 0l0 14.52l-41.43 0Z" id="p200w72" />
<path d="M597.75 285.28l58.27 0l0 14.52l-58.27 0Z" id="p200w73" />
<path d="M659.24 285.28l26.73 0l0 14.52l-26.73 0Z" id="p200w74" />
<path d="M482.46 301.95l14.18 0l0 14.52l-14.18 0Z" id="p200w75" />
<path d="M499.84 301.95l18.72 0l0 14.52l-18.72 0Z" id="p200w76" />
<path d="M518.56 301.95l12.57 0l0 14.52l-12.57 0Z" id="p200w77" />
<path d="M534.33 301.95l13.9 0l0 14.52l-13.9 0Z" id="p200w78" />
<path d="M551.44 301.95l52.12 0l0 14.52l-52.12 0Z" id="p200w79" />
<path d="M124.06 336.68l20.99 0l0 14.6l-20.99 0Z" id="p200w80" />
<path d="M148.25 336.68l27.67 0l0 14.6l-27.67 0Z" id="p200w81" />
<path d="M179.22 335.44l38.57 0l0 16.35l-38.57 0Z" id="p200w82" />
<path d="M297.35 336.76l23.79 0l0 14.52l-23.79 0Z" id="p200w83" />
<path d="M324.34 336.76l30.2 0l0 14.52l-30.2 0Z" id="p200w84" />
<path d="M482.46 336.76l36.63 0l0 14.52l-36.63 0Z" id="p200w85" />
<path d="M522.29 336.76l33.05 0l0 14.52l-33.05 0Z" id="p200w86" />
<path d="M558.55 336.76l20.85 0l0 14.52l-20.85 0Z" id="p200w87" />
<path d="M582.62 336.76l11.5 0l0 14.52l-11.5 0Z" id="p200w88" />
<path d="M597.32 336.76l22.72 0l0 14.52l-22.72 0Z" id="p200w89" />
<path d="M623.24 336.76l21.38 0l0 14.52l-21.38 0Z" id="p200w90" />
<path d="M655.05 336.76l13.9 0l0 14.52l-13.9 0Z" id="p200w91" />
<path d="M482.46 353.43l11.22 0l0 14.52l-11.22 0Z" id="p200w92" />
<path d="M496.89 353.43l27.27 0l0 14.52l-27.27 0Z" id="p200w93" />
<path d="M124.06 371.5l13.9 0l0 14.6l-13.9 0Z" id="p200w94" />
<path d="M141.16 371.5l19.11 0l0 14.6l-19.11 0Z" id="p200w95" />
<path d="M163.58 370.26l29.65 0l0 16.35l-29.65 0Z" id="p200w96" />
<path d="M297.35 371.58l14.16 0l0 14.52l-14.16 0Z" id="p200w97" />
<path d="M314.72 371.58l40.9 0l0 14.52l-40.9 0Z" id="p200w98" />
<path d="M358.83 371.58l66.72 0l0 14.52l-66.72 0Z" id="p200w99" />
<path d="M297.35 388.25l55 0l0 14.52l-55 0Z" id="p200w100" />
<path d="M482.46 371.58l10.43 0l0 14.52l-10.43 0Z" id="p200w101" />
<path d="M496.09 371.58l13.9 0l0 14.52l-13.9 0Z" id="p200w102" />
<path d="M513.2 371.58l38.77 0l0 14.52l-38.77 0Z" id="p200w103" />
<path d="M555.17 371.58l19.51 0l0 14.52l-19.51 0Z" id="p200w104" />
<path d="M577.89 371.58l27.8 0l0 14.52l-27.8 0Z" id="p200w105" />
<path d="M608.89 371.58l13.9 0l0 14.52l-13.9 0Z" id="p200w106" />
<path d="M626 371.58l51.81 0l0 14.52l-51.81 0Z" id="p200w107" />
<path d="M681.02 371.58l26.45 0l0 14.52l-26.45 0Z" id="p200w108" />
<path d="M482.46 388.25l13.9 0l0 14.52l-13.9 0Z" id="p200w109" />
<path d="M499.57 388.25l21.38 0l0 14.52l-21.38 0Z" id="p200w110" />
<path d="M524.16 388.25l12.57 0l0 14.52l-12.57 0Z" id="p200w111" />
<path d="M539.93 388.25l17.63 0l0 14.52l-17.63 0Z" id="p200w112" />
<path d="M560.77 388.25l27.53 0l0 14.52l-27.53 0Z" id="p200w113" />
<path d="M124.06 406.32l10.03 0l0 14.6l-10.03 0Z" id="p200w114" />
<path d="M137.3 406.32l39.02 0l0 14.6l-39.02 0Z" id="p200w115" />
<path d="M179.61 405.08l48.64 0l0 16.35l-48.64 0Z" id="p200w116" />
<path d="M297.35 406.4l17.11 0l0 14.52l-17.11 0Z" id="p200w117" />
<path d="M317.67 406.4l44.36 0l0 14.52l-44.36 0Z" id="p200w118" />
<path d="M482.46 406.4l25.13 0l0 14.52l-25.13 0Z" id="p200w119" />
<path d="M510.8 406.4l24.06 0l0 14.52l-24.06 0Z" id="p200w120" />
<path d="M547.95 406.4l54.55 0l0 14.52l-54.55 0Z" id="p200w121" />
<path d="M605.71 406.4l13.9 0l0 14.52l-13.9 0Z" id="p200w122" />
<path d="M622.82 406.4l46.78 0l0 14.52l-46.78 0Z" id="p200w123" />
<path d="M500.19 423.08l37.62 0l0 14.61l-37.62 0Z" id="p200w124" />
<path d="M124.06 441.14l153.39 0l0 14.6l-153.39 0Z" id="p200w125" />
<path d="M124.06 456.57l121.85 0l0 16.35l-121.85 0Z" id="p200w126" />
<path d="M297.35 441.22l26.99 0l0 14.52l-26.99 0Z" id="p200w127" />
<path d="M124.06 475.95l20.99 0l0 14.6l-20.99 0Z" id="p200w128" />
<path d="M148.25 475.95l35.04 0l0 14.6l-35.04 0Z" id="p200w129" />
<path d="M186.6 474.71l44.15 0l0 16.35l-44.15 0Z" id="p200w130" />
<path d="M297.35 476.03l23.79 0l0 14.52l-23.79 0Z" id="p200w131" />
<path d="M324.35 476.03l72.97 0l0 14.52l-72.97 0Z" id="p200w132" />
<path d="M482.46 476.03l12.41 0l0 14.52l-12.41 0Z" id="p200w133" />
<path d="M498.08 476.03l12.29 0l0 14.52l-12.29 0Z" id="p200w134" />
<path d="M513.57 476.03l23.52 0l0 14.52l-23.52 0Z" id="p200w135" />
<path d="M540.3 476.03l38.69 0l0 14.52l-38.69 0Z" id="p200w136" />
<path d="M582.2 476.03l19.51 0l0 14.52l-19.51 0Z" id="p200w137" />
<path d="M604.91 476.03l72.87 0l0 14.52l-72.87 0Z" id="p200w138" />
<path d="M124.06 496.66l10.02 0l0 14.6l-10.02 0Z" id="p200w139" />
<path d="M137.29 496.66l35 0l0 14.6l-35 0Z" id="p200w140" />
<path d="M175.59 495.42l45.02 0l0 16.35l-45.02 0Z" id="p200w141" />
<path d="M297.35 496.74l18.44 0l0 14.52l-18.44 0Z" id="p200w142" />
<path d="M319 496.74l35.33 0l0 14.52l-35.33 0Z" id="p200w143" />
<path d="M124.06 517.37l20.99 0l0 14.6l-20.99 0Z" id="p200w144" />
<path d="M148.25 517.37l39.94 0l0 14.6l-39.94 0Z" id="p200w145" />
<path d="M191.5 516.13l56.08 0l0 16.35l-56.08 0Z" id="p200w146" />
<path d="M297.35 517.45l23.79 0l0 14.52l-23.79 0Z" id="p200w147" />
<path d="M324.35 517.45l41.27 0l0 14.52l-41.27 0Z" id="p200w148" />
<path d="M500.19 521.77l35.84 0l0 14.61l-35.84 0Z" id="p200w149" />
<path d="M124.06 539.83l20.99 0l0 14.6l-20.99 0Z" id="p200w150" />
<path d="M148.25 539.83l38.3 0l0 14.6l-38.3 0Z" id="p200w151" />
<path d="M189.86 538.59l47.45 0l0 16.35l-47.45 0Z" id="p200w152" />
<path d="M297.35 539.91l17.11 0l0 14.52l-17.11 0Z" id="p200w153" />
<path d="M317.67 539.91l64.16 0l0 14.52l-64.16 0Z" id="p200w154" />
<path d="M482.46 539.91l15.77 0l0 14.52l-15.77 0Z" id="p200w155" />
<path d="M501.44 539.91l35.29 0l0 14.52l-35.29 0Z" id="p200w156" />
<path d="M539.94 539.91l19.51 0l0 14.52l-19.51 0Z" id="p200w157" />
<path d="M562.66 539.91l43.57 0l0 14.52l-43.57 0Z" id="p200w158" />
<path d="M609.44 539.91l19.52 0l0 14.52l-19.52 0Z" id="p200w159" />
<path d="M632.17 539.91l36.09 0l0 14.52l-36.09 0Z" id="p200w160" />
<path d="M671.46 539.91l17.38 0l0 14.52l-17.38 0Z" id="p200w161" />
<path d="M482.46 556.58l24.33 0l0 14.52l-24.33 0Z" id="p200w162" />
<path d="M510 556.58l26.73 0l0 14.52l-26.73 0Z" id="p200w163" />
<path d="M539.93 556.58l20.85 0l0 14.52l-20.85 0Z" id="p200w164" />
<path d="M563.99 556.58l48.92 0l0 14.52l-48.92 0Z" id="p200w165" />
<path d="M616.12 556.58l22.19 0l0 14.52l-22.19 0Z" id="p200w166" />
<path d="M638.31 556.58l21.66 0l0 14.52l-21.66 0Z" id="p200w167" />
<path d="M124.06 574.65l14.31 0l0 14.6l-14.31 0Z" id="p200w168" />
<path d="M141.58 574.65l59.23 0l0 14.6l-59.23 0Z" id="p200w169" />
<path d="M200.8 574.65l20.99 0l0 14.6l-20.99 0Z" id="p200w170" />
<path d="M225 574.65l38.79 0l0 14.6l-38.79 0ZM124.06 591.32l25.79 0l0 14.6l-25.79 0Z" id="p200w171" />
<path d="M153.15 590.08l108.66 0l0 16.35l-108.66 0Z" id="p200w172" />
<path d="M297.35 574.72l17.11 0l0 14.52l-17.11 0Z" id="p200w173" />
<path d="M317.67 574.72l62.46 0l0 14.52l-62.46 0Z" id="p200w174" />
<path d="M297.35 591.4l23.79 0l0 14.52l-23.79 0Z" id="p200w175" />
<path d="M324.35 591.4l61.26 0l0 14.52l-61.26 0Z" id="p200w176" />
<path d="M124.06 609.47l95.37 0l0 14.6l-95.37 0Z" id="p200w177" />
<path d="M124.06 624.9l84.45 0l0 16.35l-84.45 0Z" id="p200w178" />
<path d="M297.35 609.54l60.68 0l0 14.52l-60.68 0Z" id="p200w179" />
<path d="M482.46 609.54l12.83 0l0 14.52l-12.83 0Z" id="p200w180" />
<path d="M498.5 609.54l35.51 0l0 14.52l-35.51 0Z" id="p200w181" />
<path d="M537.21 609.54l16.83 0l0 14.52l-16.83 0Z" id="p200w182" />
<path d="M557.25 609.54l14.18 0l0 14.52l-14.18 0Z" id="p200w183" />
<path d="M574.63 609.54l25.4 0l0 14.52l-25.4 0Z" id="p200w184" />
<path d="M603.24 609.54l44.38 0l0 14.52l-44.38 0Z" id="p200w185" />
<path d="M127.4 644.31l42.75 0l0 14.6l-42.75 0Z" id="p200w186" />
<path d="M191.27 643.07l39.31 0l0 16.35l-39.31 0Z" id="p200w187" />
<path d="M297.35 644.35l32.6 0l0 14.52l-32.6 0Z" id="p200w188" />
<path d="M124.06 664.98l10.03 0l0 14.6l-10.03 0Z" id="p200w189" />
<path d="M137.3 664.98l96.05 0l0 14.6l-96.05 0Z" id="p200w190" />
<path d="M124.06 680.41l82.42 0l0 16.35l-82.42 0Z" id="p200w191" />
<path d="M297.36 665.06l84.74 0l0 14.52l-84.74 0Z" id="p200w192" />
<path d="M124.06 699.83l6.07 0l0 14.6l-6.07 0Z" id="p200w193" />
<path d="M128.91 699.83l47.04 0l0 14.6l-47.04 0Z" id="p200w194" />
<path d="M197.07 698.59l36.26 0l0 16.35l-36.26 0Z" id="p200w195" />
<path d="M297.36 699.87l57.46 0l0 14.52l-57.46 0Z" id="p200w196" />
<path d="M124.06 720.54l15.76 0l0 14.6l-15.76 0Z" id="p200w197" />
<path d="M143.03 720.54l57.14 0l0 14.6l-57.14 0Z" id="p200w198" />
<path d="M226.62 720.58l16.84 0l0 14.52l-16.84 0Z" id="p200w199" />
<path d="M124.06 735.97l63.49 0l0 16.35l-63.49 0Z" id="p200w200" />
<path d="M297.36 720.58l17.11 0l0 14.52l-17.11 0Z" id="p200w201" />
<path d="M317.23 720.58l63.82 0l0 14.52l-63.82 0Z" id="p200w202" />
<path d="M384.26 720.58l43.29 0l0 14.52l-43.29 0Z" id="p200w203" />
<path d="M124.06 755.34l10.02 0l0 14.6l-10.02 0Z" id="p200w204" />
<path d="M137.29 755.34l47.53 0l0 14.6l-47.53 0Z" id="p200w205" />
<path d="M188.12 754.1l64.94 0l0 16.35l-64.94 0Z" id="p200w206" />
<path d="M297.36 755.42l46.99 0l0 14.52l-46.99 0Z" id="p200w207" />
<path d="M124.06 776.05l10.03 0l0 14.6l-10.03 0Z" id="p200w208" />
<path d="M137.3 776.05l36.07 0l0 14.6l-36.07 0Z" id="p200w209" />
<path d="M176.67 774.81l39.88 0l0 16.35l-39.88 0Z" id="p200w210" />
<path d="M297.36 776.13l49.99 0l0 14.52l-49.99 0Z" id="p200w211" />
<path d="M124.06 796.76l10.03 0l0 14.6l-10.03 0Z" id="p200w212" />
<path d="M137.3 796.76l35.52 0l0 14.6l-35.52 0Z" id="p200w213" />
<path d="M176.12 795.52l39.1 0l0 16.35l-39.1 0Z" id="p200w214" />
<path d="M297.36 796.84l17.11 0l0 14.52l-17.11 0Z" id="p200w215" />
<path d="M317.67 796.84l45.72 0l0 14.52l-45.72 0Z" id="p200w216" />
<path d="M124.06 817.47l10.03 0l0 14.6l-10.03 0Z" id="p200w217" />
<path d="M136.86 817.47l41.7 0l0 14.6l-41.7 0Z" id="p200w218" />
<path d="M181.86 816.23l45.64 0l0 16.35l-45.64 0Z" id="p200w219" />
<path d="M297.36 817.55l17.11 0l0 14.52l-17.11 0Z" id="p200w220" />
<path d="M317.31 817.55l33.33 0l0 14.52l-33.33 0Z" id="p200w221" />
<path d="M124.06 861.6l47.08 0l0 18.44l-47.08 0Z" id="p200w222" />
<path d="M124.06 888.72l14.31 0l0 14.6l-14.31 0Z" id="p200w223" />
<path d="M141.58 888.72l19.63 0l0 14.6l-19.63 0Z" id="p200w224" />
<path d="M164.5 887.47l27.72 0l0 16.35l-27.72 0Z" id="p200w225" />
<path d="M297.36 888.79l17.11 0l0 14.52l-17.11 0Z" id="p200w226" />
<path d="M317.67 888.79l36.89 0l0 14.52l-36.89 0Z" id="p200w227" />
<path d="M482.46 888.79l22.99 0l0 14.52l-22.99 0Z" id="p200w228" />
<path d="M518.55 888.79l9.89 0l0 14.52l-9.89 0Z" id="p200w229" />
<path d="M531.64 888.79l27.73 0l0 14.52l-27.73 0Z" id="p200w230" />
<path d="M562.58 888.79l6.41 0l0 14.52l-6.41 0Z" id="p200w231" />
<path d="M591.19 888.79l58.53 0l0 14.52l-58.53 0Z" id="p200w232" />
<path d="M652.92 888.79l50.53 0l0 14.52l-50.53 0Z" id="p200w233" />
<path d="M482.46 905.47l22.19 0l0 14.52l-22.19 0Z" id="p200w234" />
<path d="M124.06 923.53l17.46 0l0 14.6l-17.46 0Z" id="p200w235" />
<path d="M144.73 923.53l15.76 0l0 14.6l-15.76 0Z" id="p200w236" />
<path d="M163.7 923.53l19.63 0l0 14.6l-19.63 0Z" id="p200w237" />
<path d="M186.53 923.53l13.87 0l0 14.6l-13.87 0Z" id="p200w238" />
<path d="M203.71 922.29l62.14 0l0 16.35l-62.14 0Z" id="p200w239" />
<path d="M297.36 923.61l17.91 0l0 14.52l-17.91 0Z" id="p200w240" />
<path d="M318.47 923.61l21.12 0l0 14.52l-21.12 0Z" id="p200w241" />
<path d="M342.8 923.61l39.57 0l0 14.52l-39.57 0Z" id="p200w242" />
<path d="M385.58 923.61l20.33 0l0 14.52l-20.33 0Z" id="p200w243" />
</svg>
