<?xml version="1.0" encoding="UTF-8"?>
<svg xmlns="http://www.w3.org/2000/svg" xmlns:xlink="http://www.w3.org/1999/xlink" version="1.1" baseProfile="full" width="768" height="1024" viewBox="0,0,768,1024" preserveAspectRatio="xMinYMin meet" >
<style type="text/css">
<![CDATA[
path {fill-opacity: 0.5;fill: #00aeef;visibility: hidden;}
]]>
</style>
<path d="M124.06 114.18l35.55 0l0 14.52l-35.55 0Z" id="p162w1" />
<path d="M162.81 114.18l24.05 0l0 14.52l-24.05 0Z" id="p162w2" />
<path d="M190.07 114.18l13.9 0l0 14.52l-13.9 0Z" id="p162w3" />
<path d="M207.18 114.18l19.79 0l0 14.52l-19.79 0Z" id="p162w4" />
<path d="M230.17 114.18l39.51 0l0 14.52l-39.51 0Z" id="p162w5" />
<path d="M272.88 114.18l13.9 0l0 14.52l-13.9 0Z" id="p162w6" />
<path d="M289.99 114.18l62.21 0l0 14.52l-62.21 0Z" id="p162w7" />
<path d="M355.41 114.18l32.87 0l0 14.52l-32.87 0Z" id="p162w8" />
<path d="M391.48 114.18l19.51 0l0 14.52l-19.51 0Z" id="p162w9" />
<path d="M414.2 114.18l45.97 0l0 14.52l-45.97 0Z" id="p162w10" />
<path d="M463.38 114.18l39.28 0l0 14.52l-39.28 0Z" id="p162w11" />
<path d="M505.86 114.18l15.5 0l0 14.52l-15.5 0Z" id="p162w12" />
<path d="M524.57 114.18l36.88 0l0 14.52l-36.88 0Z" id="p162w13" />
<path d="M133.95 130.85l5.61 0l0 14.52l-5.61 0Z" id="p162w14" />
<path d="M139.56 130.78l51.97 0l0 14.6l-51.97 0Z" id="p162w15" />
<path d="M194.73 130.85l13.91 0l0 14.52l-13.91 0Z" id="p162w16" />
<path d="M211.85 130.85l13.63 0l0 14.52l-13.63 0Z" id="p162w17" />
<path d="M228.69 130.78l69.6 0l0 14.6l-69.6 0Z" id="p162w18" />
<path d="M143.75 155.86l10.16 0l0 14.52l-10.16 0Z" id="p162w19" />
<path d="M166.75 155.86l29.66 0l0 14.52l-29.66 0Z" id="p162w20" />
<path d="M199.61 155.86l38.24 0l0 14.52l-38.24 0Z" id="p162w21" />
<path d="M250.68 155.86l52.93 0l0 14.52l-52.93 0Z" id="p162w22" />
<path d="M316.44 155.86l38.44 0l0 14.52l-38.44 0Z" id="p162w23" />
<path d="M358.08 155.86l36.35 0l0 14.52l-36.35 0Z" id="p162w24" />
<path d="M407.26 155.86l9.62 0l0 14.52l-9.62 0Z" id="p162w25" />
<path d="M429.72 155.86l36.34 0l0 14.52l-36.34 0Z" id="p162w26" />
<path d="M143.75 172.53l50.62 0l0 14.52l-50.62 0Z" id="p162w27" />
<path d="M197.58 172.53l13.9 0l0 14.52l-13.9 0Z" id="p162w28" />
<path d="M214.69 172.53l59.53 0l0 14.52l-59.53 0Z" id="p162w29" />
<path d="M143.75 189.2l10.16 0l0 14.52l-10.16 0Z" id="p162w30" />
<path d="M166.75 189.2l9.62 0l0 14.52l-9.62 0Z" id="p162w31" />
<path d="M189.2 189.2l36.34 0l0 14.52l-36.34 0Z" id="p162w32" />
<path d="M238.37 189.2l50.62 0l0 14.52l-50.62 0Z" id="p162w33" />
<path d="M292.19 189.2l13.9 0l0 14.52l-13.9 0Z" id="p162w34" />
<path d="M309.3 189.2l59.53 0l0 14.52l-59.53 0Z" id="p162w35" />
<path d="M381.66 189.2l9.62 0l0 14.52l-9.62 0Z" id="p162w36" />
<path d="M404.11 189.2l25.38 0l0 14.52l-25.38 0Z" id="p162w37" />
<path d="M143.75 205.87l42.44 0l0 14.52l-42.44 0Z" id="p162w38" />
<path d="M189.4 205.87l48.64 0l0 14.52l-48.64 0Z" id="p162w39" />
<path d="M241.25 205.87l13.9 0l0 14.52l-13.9 0Z" id="p162w40" />
<path d="M258.35 205.87l51.85 0l0 14.52l-51.85 0Z" id="p162w41" />
<path d="M143.75 222.55l10.16 0l0 14.52l-10.16 0Z" id="p162w42" />
<path d="M166.75 222.55l9.62 0l0 14.52l-9.62 0Z" id="p162w43" />
<path d="M189.2 222.55l25.38 0l0 14.52l-25.38 0Z" id="p162w44" />
<path d="M227.41 222.55l42.44 0l0 14.52l-42.44 0Z" id="p162w45" />
<path d="M273.05 222.55l48.64 0l0 14.52l-48.64 0Z" id="p162w46" />
<path d="M324.9 222.55l13.9 0l0 14.52l-13.9 0Z" id="p162w47" />
<path d="M342.01 222.55l51.85 0l0 14.52l-51.85 0Z" id="p162w48" />
<path d="M406.68 222.55l9.62 0l0 14.52l-9.62 0Z" id="p162w49" />
<path d="M429.14 222.55l22.44 0l0 14.52l-22.44 0Z" id="p162w50" />
<path d="M143.75 239.22l45.43 0l0 14.52l-45.43 0Z" id="p162w51" />
<path d="M192.39 239.22l13.9 0l0 14.52l-13.9 0Z" id="p162w52" />
<path d="M209.5 239.22l9.89 0l0 14.52l-9.89 0Z" id="p162w53" />
<path d="M222.59 239.22l33.67 0l0 14.52l-33.67 0Z" id="p162w54" />
<path d="M143.75 255.89l10.16 0l0 14.52l-10.16 0Z" id="p162w55" />
<path d="M166.75 255.89l9.62 0l0 14.52l-9.62 0Z" id="p162w56" />
<path d="M189.2 255.89l22.44 0l0 14.52l-22.44 0Z" id="p162w57" />
<path d="M224.47 255.89l9.89 0l0 14.52l-9.89 0Z" id="p162w58" />
<path d="M237.56 255.89l45.43 0l0 14.52l-45.43 0Z" id="p162w59" />
<path d="M286.2 255.89l13.9 0l0 14.52l-13.9 0Z" id="p162w60" />
<path d="M303.31 255.89l9.89 0l0 14.52l-9.89 0Z" id="p162w61" />
<path d="M316.4 255.89l33.67 0l0 14.52l-33.67 0Z" id="p162w62" />
<path d="M362.9 255.89l22.99 0l0 14.52l-22.99 0Z" id="p162w63" />
<path d="M398.72 255.89l7.48 0l0 14.52l-7.48 0Z" id="p162w64" />
<path d="M406.21 255.89l18.7 0l0 14.52l-18.7 0Z" id="p162w65" />
<path d="M437.74 255.89l17.63 0l0 14.52l-17.63 0Z" id="p162w66" />
<path d="M143.75 272.56l40.1 0l0 14.52l-40.1 0Z" id="p162w67" />
<path d="M187.06 272.56l34.15 0l0 14.52l-34.15 0Z" id="p162w68" />
<path d="M143.75 289.23l10.16 0l0 14.52l-10.16 0Z" id="p162w69" />
<path d="M166.75 289.23l22.99 0l0 14.52l-22.99 0Z" id="p162w70" />
<path d="M202.57 289.23l7.48 0l0 14.52l-7.48 0Z" id="p162w71" />
<path d="M210.05 289.23l18.7 0l0 14.52l-18.7 0Z" id="p162w72" />
<path d="M241.59 289.23l17.63 0l0 14.52l-17.63 0Z" id="p162w73" />
<path d="M272.05 289.23l40.1 0l0 14.52l-40.1 0Z" id="p162w74" />
<path d="M315.36 289.23l34.15 0l0 14.52l-34.15 0Z" id="p162w75" />
<path d="M362.33 289.23l44.05 0l0 14.52l-44.05 0Z" id="p162w76" />
<path d="M143.75 305.9l37.97 0l0 14.52l-37.97 0Z" id="p162w77" />
<path d="M184.94 305.9l22.44 0l0 14.52l-22.44 0Z" id="p162w78" />
<path d="M210.58 305.9l42.78 0l0 14.52l-42.78 0Z" id="p162w79" />
<path d="M143.75 322.57l10.16 0l0 14.52l-10.16 0Z" id="p162w80" />
<path d="M166.75 322.57l22.99 0l0 14.52l-22.99 0Z" id="p162w81" />
<path d="M202.57 322.57l33.67 0l0 14.52l-33.67 0Z" id="p162w82" />
<path d="M249.07 322.57l17.63 0l0 14.52l-17.63 0Z" id="p162w83" />
<path d="M279.54 322.57l36.61 0l0 14.52l-36.61 0Z" id="p162w84" />
<path d="M328.98 322.57l27.53 0l0 14.52l-27.53 0Z" id="p162w85" />
<path d="M369.34 322.57l54.55 0l0 14.52l-54.55 0Z" id="p162w86" />
<path d="M436.73 322.57l32.59 0l0 14.52l-32.59 0Z" id="p162w87" />
<path d="M124.06 355.91l43.03 0l0 14.52l-43.03 0Z" id="p162w88" />
<path d="M170.3 355.91l11.22 0l0 14.52l-11.22 0Z" id="p162w89" />
<path d="M184.29 355.91l27.1 0l0 14.52l-27.1 0Z" id="p162w90" />
<path d="M214.6 355.91l41.97 0l0 14.52l-41.97 0Z" id="p162w91" />
<path d="M259.78 355.91l36.63 0l0 14.52l-36.63 0Z" id="p162w92" />
<path d="M299.61 355.91l19.51 0l0 14.52l-19.51 0Z" id="p162w93" />
<path d="M322.33 355.91l7.48 0l0 14.52l-7.48 0Z" id="p162w94" />
<path d="M329.81 355.91l19.77 0l0 14.52l-19.77 0Z" id="p162w95" />
<path d="M352.79 355.91l25.67 0l0 14.52l-25.67 0Z" id="p162w96" />
<path d="M381.67 355.91l9.89 0l0 14.52l-9.89 0Z" id="p162w97" />
<path d="M394.77 355.91l49.92 0l0 14.52l-49.92 0Z" id="p162w98" />
<path d="M447.89 355.91l14.18 0l0 14.52l-14.18 0Z" id="p162w99" />
<path d="M465.28 355.91l42.45 0l0 14.52l-42.45 0Z" id="p162w100" />
<path d="M124.06 372.58l59.34 0l0 14.52l-59.34 0Z" id="p162w101" />
<path d="M186.61 372.58l15.5 0l0 14.52l-15.5 0Z" id="p162w102" />
<path d="M205.32 372.58l43.29 0l0 14.52l-43.29 0Z" id="p162w103" />
<path d="M251.82 372.58l18.44 0l0 14.52l-18.44 0Z" id="p162w104" />
<path d="M273.46 372.58l9.89 0l0 14.52l-9.89 0Z" id="p162w105" />
<path d="M286.56 372.52l61.05 0l0 14.6l-61.05 0Z" id="p162w106" />
<path d="M350.81 372.58l13.91 0l0 14.52l-13.91 0Z" id="p162w107" />
<path d="M367.93 372.58l9.89 0l0 14.52l-9.89 0Z" id="p162w108" />
<path d="M381.03 372.52l53.79 0l0 14.6l-53.79 0Z" id="p162w109" />
<path d="M438.02 372.58l23.97 0l0 14.52l-23.97 0Z" id="p162w110" />
<path d="M465.2 372.52l41.8 0l0 14.6l-41.8 0Z" id="p162w111" />
<path d="M124.06 389.25l13.91 0l0 14.52l-13.91 0Z" id="p162w112" />
<path d="M141.18 389.25l23.97 0l0 14.52l-23.97 0Z" id="p162w113" />
<path d="M168.36 389.19l45.09 0l0 14.6l-45.09 0Z" id="p162w114" />
<path d="M124.06 416.06l36.41 0l0 12.29l-36.41 0Z" id="p162w115" />
<path d="M169.31 414.29l30.74 0l0 14.52l-30.74 0Z" id="p162w116" />
<path d="M203.25 414.29l14.18 0l0 14.52l-14.18 0Z" id="p162w117" />
<path d="M220.64 414.29l36.63 0l0 14.52l-36.63 0Z" id="p162w118" />
<path d="M260.47 414.29l29.67 0l0 14.52l-29.67 0Z" id="p162w119" />
<path d="M293.35 414.29l7.48 0l0 14.52l-7.48 0Z" id="p162w120" />
<path d="M300.84 414.29l19.77 0l0 14.52l-19.77 0Z" id="p162w121" />
<path d="M323.82 414.29l25.67 0l0 14.52l-25.67 0Z" id="p162w122" />
<path d="M352.7 414.29l9.89 0l0 14.52l-9.89 0Z" id="p162w123" />
<path d="M365.79 414.29l49.92 0l0 14.52l-49.92 0Z" id="p162w124" />
<path d="M418.92 414.29l14.18 0l0 14.52l-14.18 0Z" id="p162w125" />
<path d="M436.3 414.29l39.77 0l0 14.52l-39.77 0Z" id="p162w126" />
<path d="M487.57 414.29l23.8 0l0 14.52l-23.8 0Z" id="p162w127" />
<path d="M514.57 414.29l9.62 0l0 14.52l-9.62 0Z" id="p162w128" />
<path d="M527.4 414.29l35.56 0l0 14.52l-35.56 0Z" id="p162w129" />
<path d="M143.75 430.96l20.85 0l0 14.52l-20.85 0Z" id="p162w130" />
<path d="M167.81 430.93l22.2 0l0 14.52l-22.2 0Z" id="p162w131" />
<path d="M193.22 430.93l50.96 0l0 14.52l-50.96 0Z" id="p162w132" />
<path d="M247.39 430.96l16.83 0l0 14.52l-16.83 0Z" id="p162w133" />
<path d="M267.43 430.96l9.89 0l0 14.52l-9.89 0Z" id="p162w134" />
<path d="M280.52 430.96l7.48 0l0 14.52l-7.48 0Z" id="p162w135" />
<path d="M288.01 430.96l14.16 0l0 14.52l-14.16 0Z" id="p162w136" />
<path d="M324.34 430.96l17.11 0l0 14.52l-17.11 0Z" id="p162w137" />
<path d="M344.65 430.96l69.48 0l0 14.52l-69.48 0Z" id="p162w138" />
<path d="M417.34 430.96l18.44 0l0 14.52l-18.44 0Z" id="p162w139" />
<path d="M438.99 430.96l35 0l0 14.52l-35 0Z" id="p162w140" />
<path d="M477.2 430.96l33.42 0l0 14.52l-33.42 0Z" id="p162w141" />
<path d="M513.83 430.96l20.85 0l0 14.52l-20.85 0Z" id="p162w142" />
<path d="M537.89 430.96l24.85 0l0 14.52l-24.85 0Z" id="p162w143" />
<path d="M143.76 447.63l9.89 0l0 14.52l-9.89 0Z" id="p162w144" />
<path d="M156.85 447.63l7.48 0l0 14.52l-7.48 0Z" id="p162w145" />
<path d="M164.34 447.63l14.16 0l0 14.52l-14.16 0Z" id="p162w146" />
<path d="M200.66 447.64l17.11 0l0 14.52l-17.11 0Z" id="p162w147" />
<path d="M220.98 447.64l27.28 0l0 14.52l-27.28 0Z" id="p162w148" />
<path d="M251.47 447.64l13.9 0l0 14.52l-13.9 0Z" id="p162w149" />
<path d="M268.57 447.64l42.33 0l0 14.52l-42.33 0Z" id="p162w150" />
<path d="M124.06 466.08l23.16 0l0 12.29l-23.16 0Z" id="p162w151" />
<path d="M156.06 464.31l23.8 0l0 14.52l-23.8 0Z" id="p162w152" />
<path d="M183.06 464.31l32.43 0l0 14.52l-32.43 0Z" id="p162w153" />
<path d="M251.56 464.31l25.67 0l0 14.52l-25.67 0Z" id="p162w154" />
<path d="M280.44 464.28l13.11 0l0 14.52l-13.11 0Z" id="p162w155" />
<path d="M296.75 464.28l7.22 0l0 14.52l-7.22 0Z" id="p162w156" />
<path d="M303.97 464.28l12.39 0l0 14.52l-12.39 0Z" id="p162w157" />
<path d="M319.58 464.28l50.25 0l0 14.52l-50.25 0Z" id="p162w158" />
<path d="M375.71 464.31l10.43 0l0 14.52l-10.43 0Z" id="p162w159" />
<path d="M389.35 464.31l35.56 0l0 14.52l-35.56 0Z" id="p162w160" />
<path d="M428.11 464.31l20.85 0l0 14.52l-20.85 0Z" id="p162w161" />
<path d="M452.18 464.31l12.57 0l0 14.52l-12.57 0Z" id="p162w162" />
<path d="M467.95 464.31l7.48 0l0 14.52l-7.48 0Z" id="p162w163" />
<path d="M475.43 464.31l14.16 0l0 14.52l-14.16 0Z" id="p162w164" />
<path d="M492.8 464.31l16.83 0l0 14.52l-16.83 0Z" id="p162w165" />
<path d="M176.61 480.98l66.8 0l0 14.52l-66.8 0Z" id="p162w166" />
<path d="M246.62 480.95l22.2 0l0 14.52l-22.2 0Z" id="p162w167" />
<path d="M272.03 480.95l50.96 0l0 14.52l-50.96 0Z" id="p162w168" />
<path d="M124.06 499.43l36.41 0l0 12.29l-36.41 0Z" id="p162w169" />
<path d="M169.31 497.65l26.45 0l0 14.52l-26.45 0Z" id="p162w170" />
<path d="M198.96 497.65l6.41 0l0 14.52l-6.41 0Z" id="p162w171" />
<path d="M208.59 497.65l16.83 0l0 14.52l-16.83 0Z" id="p162w172" />
<path d="M261.48 497.65l52.92 0l0 14.52l-52.92 0Z" id="p162w173" />
<path d="M317.61 497.63l22.2 0l0 14.52l-22.2 0Z" id="p162w174" />
<path d="M343.01 497.63l50.96 0l0 14.52l-50.96 0Z" id="p162w175" />
<path d="M124.06 516.1l23.16 0l0 12.29l-23.16 0Z" id="p162w176" />
<path d="M156.06 514.33l26.19 0l0 14.52l-26.19 0Z" id="p162w177" />
<path d="M185.45 514.33l22.99 0l0 14.52l-22.99 0Z" id="p162w178" />
<path d="M211.65 514.33l15.77 0l0 14.52l-15.77 0Z" id="p162w179" />
<path d="M230.63 514.33l43.23 0l0 14.52l-43.23 0Z" id="p162w180" />
<path d="M309.93 514.33l34.21 0l0 14.52l-34.21 0Z" id="p162w181" />
<path d="M347.35 514.33l19.51 0l0 14.52l-19.51 0Z" id="p162w182" />
<path d="M370.06 514.33l53.19 0l0 14.52l-53.19 0Z" id="p162w183" />
<path d="M426.46 514.33l20.85 0l0 14.52l-20.85 0Z" id="p162w184" />
<path d="M450.53 514.33l19.51 0l0 14.52l-19.51 0Z" id="p162w185" />
<path d="M473.24 514.33l54.72 0l0 14.52l-54.72 0Z" id="p162w186" />
<path d="M531.17 514.33l26.45 0l0 14.52l-26.45 0Z" id="p162w187" />
<path d="M143.75 531l26.73 0l0 14.52l-26.73 0Z" id="p162w188" />
<path d="M173.68 531l15.5 0l0 14.52l-15.5 0Z" id="p162w189" />
<path d="M192.39 531l55.87 0l0 14.52l-55.87 0Z" id="p162w190" />
<path d="M251.47 531l14.18 0l0 14.52l-14.18 0Z" id="p162w191" />
<path d="M268.85 531l46.78 0l0 14.52l-46.78 0Z" id="p162w192" />
<path d="M351.7 531l48.39 0l0 14.52l-48.39 0Z" id="p162w193" />
<path d="M403.3 531l19.51 0l0 14.52l-19.51 0Z" id="p162w194" />
<path d="M426.01 531l37.96 0l0 14.52l-37.96 0Z" id="p162w195" />
<path d="M467.18 531l25.67 0l0 14.52l-25.67 0Z" id="p162w196" />
<path d="M496.06 531l9.89 0l0 14.52l-9.89 0Z" id="p162w197" />
<path d="M509.16 531l18.72 0l0 14.52l-18.72 0Z" id="p162w198" />
<path d="M124.06 549.45l36.41 0l0 12.29l-36.41 0Z" id="p162w199" />
<path d="M169.31 547.67l15.77 0l0 14.52l-15.77 0Z" id="p162w200" />
<path d="M188.29 547.67l25.4 0l0 14.52l-25.4 0Z" id="p162w201" />
<path d="M216.89 547.67l44.1 0l0 14.52l-44.1 0Z" id="p162w202" />
<path d="M264.2 547.67l15.5 0l0 14.52l-15.5 0Z" id="p162w203" />
<path d="M282.9 547.67l29.42 0l0 14.52l-29.42 0Z" id="p162w204" />
<path d="M315.53 547.67l11.5 0l0 14.52l-11.5 0Z" id="p162w205" />
<path d="M330.23 547.67l49.1 0l0 14.52l-49.1 0Z" id="p162w206" />
<path d="M382.54 547.67l20.85 0l0 14.52l-20.85 0Z" id="p162w207" />
<path d="M406.6 547.67l11.5 0l0 14.52l-11.5 0Z" id="p162w208" />
<path d="M421.31 547.67l39.02 0l0 14.52l-39.02 0Z" id="p162w209" />
<path d="M463.53 547.67l19.51 0l0 14.52l-19.51 0Z" id="p162w210" />
<path d="M486.25 547.67l34.49 0l0 14.52l-34.49 0Z" id="p162w211" />
<path d="M523.95 547.67l52.57 0l0 14.52l-52.57 0Z" id="p162w212" />
<path d="M143.75 564.34l29.66 0l0 14.52l-29.66 0Z" id="p162w213" />
<path d="M176.62 564.34l37.16 0l0 14.52l-37.16 0Z" id="p162w214" />
<path d="M216.98 564.34l14.18 0l0 14.52l-14.18 0Z" id="p162w215" />
<path d="M234.37 564.34l38.75 0l0 14.52l-38.75 0Z" id="p162w216" />
<path d="M276.33 564.34l15.5 0l0 14.52l-15.5 0Z" id="p162w217" />
<path d="M295.03 564.34l45.43 0l0 14.52l-45.43 0Z" id="p162w218" />
<path d="M376.53 564.35l52.39 0l0 14.52l-52.39 0Z" id="p162w219" />
<path d="M432.12 564.35l39.65 0l0 14.52l-39.65 0Z" id="p162w220" />
<path d="M474.98 564.35l49.44 0l0 14.52l-49.44 0Z" id="p162w221" />
<path d="M124.06 582.79l23.16 0l0 12.29l-23.16 0Z" id="p162w222" />
<path d="M156.06 581.02l21.4 0l0 14.52l-21.4 0Z" id="p162w223" />
<path d="M180.66 581.02l11.5 0l0 14.52l-11.5 0Z" id="p162w224" />
<path d="M195.36 581.02l12.29 0l0 14.52l-12.29 0Z" id="p162w225" />
<path d="M210.86 581.02l36.63 0l0 14.52l-36.63 0Z" id="p162w226" />
<path d="M250.7 581.02l26.45 0l0 14.52l-26.45 0Z" id="p162w227" />
<path d="M280.35 581.02l14.18 0l0 14.52l-14.18 0Z" id="p162w228" />
<path d="M297.74 581.02l13.9 0l0 14.52l-13.9 0Z" id="p162w229" />
<path d="M314.84 581.02l51.85 0l0 14.52l-51.85 0Z" id="p162w230" />
<path d="M369.9 581.02l19.51 0l0 14.52l-19.51 0Z" id="p162w231" />
<path d="M392.62 581.02l13.9 0l0 14.52l-13.9 0Z" id="p162w232" />
<path d="M409.72 581.02l80.2 0l0 14.52l-80.2 0Z" id="p162w233" />
<path d="M493.13 581.02l12.57 0l0 14.52l-12.57 0Z" id="p162w234" />
<path d="M508.9 581.02l18.72 0l0 14.52l-18.72 0Z" id="p162w235" />
<path d="M530.83 581.02l41.96 0l0 14.52l-41.96 0Z" id="p162w236" />
<path d="M162.72 597.69l17.11 0l0 14.52l-17.11 0Z" id="p162w237" />
<path d="M183.03 597.69l25.67 0l0 14.52l-25.67 0Z" id="p162w238" />
<path d="M211.91 597.69l39.65 0l0 14.52l-39.65 0Z" id="p162w239" />
<path d="M254.77 597.69l49.44 0l0 14.52l-49.44 0Z" id="p162w240" />
<path d="M124.06 616.14l36.41 0l0 12.29l-36.41 0Z" id="p162w241" />
<path d="M169.31 614.36l21.4 0l0 14.52l-21.4 0Z" id="p162w242" />
<path d="M193.91 614.36l64.94 0l0 14.52l-64.94 0Z" id="p162w243" />
<path d="M262.06 614.36l14.18 0l0 14.52l-14.18 0Z" id="p162w244" />
<path d="M289.33 614.36l49.71 0l0 14.52l-49.71 0Z" id="p162w245" />
<path d="M342.24 614.36l32.09 0l0 14.52l-32.09 0Z" id="p162w246" />
<path d="M396.5 614.36l17.11 0l0 14.52l-17.11 0Z" id="p162w247" />
<path d="M416.81 614.36l25.67 0l0 14.52l-25.67 0Z" id="p162w248" />
<path d="M445.69 614.36l7.48 0l0 14.52l-7.48 0Z" id="p162w249" />
<path d="M453.17 614.36l22.45 0l0 14.52l-22.45 0Z" id="p162w250" />
<path d="M478.83 614.36l18.44 0l0 14.52l-18.44 0Z" id="p162w251" />
<path d="M500.48 614.36l35 0l0 14.52l-35 0Z" id="p162w252" />
<path d="M538.69 614.36l52.65 0l0 14.52l-52.65 0Z" id="p162w253" />
<path d="M143.76 631.03l27.8 0l0 14.52l-27.8 0Z" id="p162w254" />
<path d="M207.62 631.04l47.24 0l0 14.52l-47.24 0Z" id="p162w255" />
<path d="M258.07 631.04l39.65 0l0 14.52l-39.65 0Z" id="p162w256" />
<path d="M300.92 631.04l49.44 0l0 14.52l-49.44 0Z" id="p162w257" />
<path d="M124.06 649.48l23.16 0l0 12.29l-23.16 0Z" id="p162w258" />
<path d="M155.7 647.71l12.41 0l0 14.52l-12.41 0Z" id="p162w259" />
<path d="M171.32 647.71l33.94 0l0 14.52l-33.94 0Z" id="p162w260" />
<path d="M208.46 647.71l28.6 0l0 14.52l-28.6 0Z" id="p162w261" />
<path d="M240.27 647.71l53.47 0l0 14.52l-53.47 0Z" id="p162w262" />
<path d="M296.95 647.71l35.27 0l0 14.52l-35.27 0Z" id="p162w263" />
<path d="M368.28 647.71l55.07 0l0 14.52l-55.07 0Z" id="p162w264" />
<path d="M124.07 681.05l55.34 0l0 14.52l-55.34 0Z" id="p162w265" />
<path d="M182.62 681.05l19.52 0l0 14.52l-19.52 0Z" id="p162w266" />
<path d="M205.35 681.05l54 0l0 14.52l-54 0Z" id="p162w267" />
<path d="M262.55 681.05l11.22 0l0 14.52l-11.22 0Z" id="p162w268" />
<path d="M276.98 681.05l39.29 0l0 14.52l-39.29 0Z" id="p162w269" />
<path d="M319.48 681.05l9.89 0l0 14.52l-9.89 0Z" id="p162w270" />
<path d="M332.58 680.98l26.76 0l0 14.6l-26.76 0Z" id="p162w271" />
<path d="M362.54 680.98l13.9 0l0 14.6l-13.9 0Z" id="p162w272" />
<path d="M379.64 680.98l28.97 0l0 14.6l-28.97 0Z" id="p162w273" />
<path d="M143.76 706.06l25.4 0l0 14.52l-25.4 0Z" id="p162w274" />
<path d="M172.36 706.06l7.48 0l0 14.52l-7.48 0Z" id="p162w275" />
<path d="M179.85 706.06l14.16 0l0 14.52l-14.16 0Z" id="p162w276" />
<path d="M197.22 706.06l13.18 0l0 14.52l-13.18 0Z" id="p162w277" />
<path d="M213.61 706.06l9.89 0l0 14.52l-9.89 0Z" id="p162w278" />
<path d="M226.7 706.06l22.99 0l0 14.52l-22.99 0Z" id="p162w279" />
<path d="M252.9 706.06l38.24 0l0 14.52l-38.24 0Z" id="p162w280" />
<path d="M154.71 731.08l24.06 0l0 14.52l-24.06 0Z" id="p162w281" />
<path d="M181.98 731.08l59.32 0l0 14.52l-59.32 0Z" id="p162w282" />
<path d="M244.51 731.08l33.05 0l0 14.52l-33.05 0Z" id="p162w283" />
<path d="M280.77 731.08l20.85 0l0 14.52l-20.85 0Z" id="p162w284" />
<path d="M304.83 731.08l11.5 0l0 14.52l-11.5 0Z" id="p162w285" />
<path d="M319.53 731.08l47.29 0l0 14.52l-47.29 0Z" id="p162w286" />
<path d="M370.03 731.08l32.87 0l0 14.52l-32.87 0Z" id="p162w287" />
<path d="M143.76 756.09l25.4 0l0 14.52l-25.4 0Z" id="p162w288" />
<path d="M172.36 756.09l7.48 0l0 14.52l-7.48 0Z" id="p162w289" />
<path d="M179.85 756.09l14.16 0l0 14.52l-14.16 0Z" id="p162w290" />
<path d="M197.22 756.09l32.52 0l0 14.52l-32.52 0Z" id="p162w291" />
<path d="M232.95 756.09l20.85 0l0 14.52l-20.85 0Z" id="p162w292" />
<path d="M257.01 756.09l66.02 0l0 14.52l-66.02 0Z" id="p162w293" />
<path d="M143.76 781.1l15.51 0l0 14.52l-15.51 0Z" id="p162w294" />
<path d="M162.48 781.1l33.05 0l0 14.52l-33.05 0Z" id="p162w295" />
<path d="M198.73 781.1l20.85 0l0 14.52l-20.85 0Z" id="p162w296" />
<path d="M222.8 781.1l15.5 0l0 14.52l-15.5 0Z" id="p162w297" />
<path d="M241.5 781.1l36.09 0l0 14.52l-36.09 0Z" id="p162w298" />
<path d="M280.79 781.1l45.45 0l0 14.52l-45.45 0Z" id="p162w299" />
<path d="M329.45 781.1l52.14 0l0 14.52l-52.14 0Z" id="p162w300" />
<path d="M384.79 781.1l9.89 0l0 14.52l-9.89 0Z" id="p162w301" />
<path d="M397.88 781.1l36.6 0l0 14.52l-36.6 0Z" id="p162w302" />
<path d="M143.76 797.77l13.9 0l0 14.52l-13.9 0Z" id="p162w303" />
<path d="M160.87 797.77l58.54 0l0 14.52l-58.54 0Z" id="p162w304" />
<path d="M222.61 797.77l13.9 0l0 14.52l-13.9 0Z" id="p162w305" />
<path d="M239.72 797.77l40.63 0l0 14.52l-40.63 0Z" id="p162w306" />
<path d="M143.76 822.79l50.43 0l0 14.52l-50.43 0Z" id="p162w307" />
<path d="M197.4 822.79l17.38 0l0 14.52l-17.38 0Z" id="p162w308" />
<path d="M217.99 822.79l57.71 0l0 14.52l-57.71 0Z" id="p162w309" />
<path d="M278.91 822.79l9.89 0l0 14.52l-9.89 0Z" id="p162w310" />
<path d="M292 822.79l22.99 0l0 14.52l-22.99 0Z" id="p162w311" />
<path d="M328.09 822.79l40.63 0l0 14.52l-40.63 0Z" id="p162w312" />
<path d="M143.76 847.8l15.51 0l0 14.52l-15.51 0Z" id="p162w313" />
<path d="M162.48 847.8l33.05 0l0 14.52l-33.05 0Z" id="p162w314" />
<path d="M198.73 847.8l20.85 0l0 14.52l-20.85 0Z" id="p162w315" />
<path d="M222.8 847.8l15.5 0l0 14.52l-15.5 0Z" id="p162w316" />
<path d="M241.5 847.8l40.89 0l0 14.52l-40.89 0Z" id="p162w317" />
<path d="M285.6 847.8l48.11 0l0 14.52l-48.11 0Z" id="p162w318" />
<path d="M336.92 847.8l15.5 0l0 14.52l-15.5 0Z" id="p162w319" />
<path d="M355.62 847.8l47.57 0l0 14.52l-47.57 0Z" id="p162w320" />
<path d="M76.64 357.78l11.64 0l0 12.3l-11.64 0Z" id="p162w321" />
<path d="M582.4 704.58l22.2 0l0 14.52l-22.2 0Z" id="p162w322" />
<path d="M607.81 704.58l50.96 0l0 14.52l-50.96 0Z" id="p162w323" />
<path d="M582.4 732.25l36.07 0l0 14.52l-36.07 0Z" id="p162w324" />
<path d="M621.68 732.25l21.65 0l0 14.52l-21.65 0Z" id="p162w325" />
<path d="M582.4 759.9l13.11 0l0 14.52l-13.11 0Z" id="p162w326" />
<path d="M598.71 759.9l31.84 0l0 14.52l-31.84 0Z" id="p162w327" />
<path d="M582.4 787.57l26.73 0l0 14.52l-26.73 0Z" id="p162w328" />
<path d="M612.34 787.57l19.51 0l0 14.52l-19.51 0Z" id="p162w329" />
<path d="M635.05 787.57l41.14 0l0 14.52l-41.14 0Z" id="p162w330" />
<path d="M582.4 815.22l15.5 0l0 14.52l-15.5 0Z" id="p162w331" />
<path d="M601.1 815.22l83.13 0l0 14.52l-83.13 0Z" id="p162w332" />
<path d="M582.4 842.86l13.63 0l0 14.52l-13.63 0Z" id="p162w333" />
<path d="M599.24 842.86l32.34 0l0 14.52l-32.34 0Z" id="p162w334" />
<path d="M634.79 842.86l19.51 0l0 14.52l-19.51 0Z" id="p162w335" />
<path d="M657.5 842.86l45.79 0l0 14.52l-45.79 0Z" id="p162w336" />
<path d="M124.06 38.6l62.95 0l0 16.09l-62.95 0Z" id="p162w337" />
<path d="M76.9 983l62.96 0l0 12.23l-62.96 0Z" id="p162w338" />
</svg>
