<?xml version="1.0" encoding="UTF-8"?>
<svg xmlns="http://www.w3.org/2000/svg" xmlns:xlink="http://www.w3.org/1999/xlink" version="1.1" baseProfile="full" width="768" height="1024" viewBox="0,0,768,1024" preserveAspectRatio="xMinYMin meet" >
<style type="text/css">
<![CDATA[
path {fill-opacity: 0.5;fill: #00aeef;visibility: hidden;}
]]>
</style>
<path d="M124.06 113.89l13.07 0l0 15.09l-13.07 0Z" id="p133w1" />
<path d="M140.74 113.89l62.09 0l0 15.09l-62.09 0Z" id="p133w2" />
<path d="M206.44 113.89l15.15 0l0 15.09l-15.15 0Z" id="p133w3" />
<path d="M225.21 113.89l85.93 0l0 15.09l-85.93 0Z" id="p133w4" />
<path d="M337.97 113.89l36.95 0l0 15.09l-36.95 0Z" id="p133w5" />
<path d="M378.53 113.89l27.18 0l0 15.09l-27.18 0Z" id="p133w6" />
<path d="M409.32 113.89l49.17 0l0 15.09l-49.17 0Z" id="p133w7" />
<path d="M472.21 113.89l38.29 0l0 15.09l-38.29 0Z" id="p133w8" />
<path d="M137.11 138.9l38.08 0l0 15.09l-38.08 0Z" id="p133w9" />
<path d="M187.88 138.9l28.72 0l0 15.09l-28.72 0Z" id="p133w10" />
<path d="M220.22 138.9l41.52 0l0 15.09l-41.52 0Z" id="p133w11" />
<path d="M265.36 138.9l31.5 0l0 15.09l-31.5 0Z" id="p133w12" />
<path d="M300.47 138.9l29.73 0l0 15.09l-29.73 0Z" id="p133w13" />
<path d="M343.91 138.9l17.83 0l0 15.09l-17.83 0Z" id="p133w14" />
<path d="M365.34 138.9l38.95 0l0 15.09l-38.95 0Z" id="p133w15" />
<path d="M419.28 138.9l29.29 0l0 15.09l-29.29 0Z" id="p133w16" />
<path d="M452.18 138.9l58.3 0l0 15.09l-58.3 0Z" id="p133w17" />
<path d="M514.09 138.9l28.26 0l0 15.09l-28.26 0Z" id="p133w18" />
<path d="M545.96 138.9l33.57 0l0 15.09l-33.57 0Z" id="p133w19" />
<path d="M583.14 138.9l45.19 0l0 15.09l-45.19 0Z" id="p133w20" />
<path d="M137.1 155.57l28.84 0l0 15.09l-28.84 0Z" id="p133w21" />
<path d="M169.55 155.57l44.88 0l0 15.09l-44.88 0Z" id="p133w22" />
<path d="M218.04 155.57l11.26 0l0 15.09l-11.26 0Z" id="p133w23" />
<path d="M232.91 155.57l56.16 0l0 15.09l-56.16 0Z" id="p133w24" />
<path d="M300.9 155.58l52.65 0l0 15.09l-52.65 0Z" id="p133w25" />
<path d="M357.17 155.58l67 0l0 15.09l-67 0Z" id="p133w26" />
<path d="M451 155.58l27.3 0l0 15.09l-27.3 0Z" id="p133w27" />
<path d="M481.91 155.58l10.42 0l0 15.09l-10.42 0Z" id="p133w28" />
<path d="M495.95 155.58l24.95 0l0 15.09l-24.95 0Z" id="p133w29" />
<path d="M536.27 155.58l28.26 0l0 15.09l-28.26 0Z" id="p133w30" />
<path d="M568.14 155.58l33.57 0l0 15.09l-33.57 0Z" id="p133w31" />
<path d="M605.33 155.58l15.74 0l0 15.09l-15.74 0Z" id="p133w32" />
<path d="M137.1 172.24l59.75 0l0 15.09l-59.75 0Z" id="p133w33" />
<path d="M200.46 172.24l18.02 0l0 15.09l-18.02 0Z" id="p133w34" />
<path d="M222.09 172.24l19.2 0l0 15.09l-19.2 0Z" id="p133w35" />
<path d="M244.91 172.24l72.1 0l0 15.09l-72.1 0Z" id="p133w36" />
<path d="M320.62 172.24l21.67 0l0 15.09l-21.67 0Z" id="p133w37" />
<path d="M345.9 172.24l26.91 0l0 15.09l-26.91 0Z" id="p133w38" />
<path d="M376.42 172.24l39.73 0l0 15.09l-39.73 0Z" id="p133w39" />
<path d="M419.76 172.24l19.46 0l0 15.09l-19.46 0Z" id="p133w40" />
<path d="M442.83 172.24l48.73 0l0 15.09l-48.73 0Z" id="p133w41" />
<path d="M124.06 205.59l31.04 0l0 15.09l-31.04 0Z" id="p133w42" />
<path d="M158.71 205.59l58.71 0l0 15.09l-58.71 0Z" id="p133w43" />
<path d="M221.02 205.59l87.53 0l0 15.09l-87.53 0Z" id="p133w44" />
<path d="M312.17 205.59l57.05 0l0 15.09l-57.05 0Z" id="p133w45" />
<path d="M384.21 205.59l10.63 0l0 15.09l-10.63 0Z" id="p133w46" />
<path d="M398.45 205.59l18.6 0l0 15.09l-18.6 0Z" id="p133w47" />
<path d="M420.66 205.59l22.4 0l0 15.09l-22.4 0Z" id="p133w48" />
<path d="M446.67 205.59l35.03 0l0 15.09l-35.03 0Z" id="p133w49" />
<path d="M485.31 205.59l44.1 0l0 15.09l-44.1 0Z" id="p133w50" />
<path d="M541.23 205.59l21.67 0l0 15.09l-21.67 0Z" id="p133w51" />
<path d="M566.51 205.59l23.98 0l0 15.09l-23.98 0Z" id="p133w52" />
<path d="M594.11 205.59l44.12 0l0 15.09l-44.12 0Z" id="p133w53" />
<path d="M124.06 222.26l52.51 0l0 15.09l-52.51 0Z" id="p133w54" />
<path d="M180.18 222.26l19.46 0l0 15.09l-19.46 0Z" id="p133w55" />
<path d="M203.25 222.26l39.76 0l0 15.09l-39.76 0Z" id="p133w56" />
<path d="M246.63 222.26l14.21 0l0 15.09l-14.21 0Z" id="p133w57" />
<path d="M264.45 222.26l48.7 0l0 15.09l-48.7 0Z" id="p133w58" />
<path d="M316.76 222.26l13.49 0l0 15.09l-13.49 0Z" id="p133w59" />
<path d="M333.87 222.26l15.06 0l0 15.09l-15.06 0Z" id="p133w60" />
<path d="M352.54 222.26l24.08 0l0 15.09l-24.08 0Z" id="p133w61" />
<path d="M380.24 222.26l21.67 0l0 15.09l-21.67 0Z" id="p133w62" />
<path d="M405.52 222.26l36.35 0l0 15.09l-36.35 0Z" id="p133w63" />
<path d="M445.47 222.26l21.86 0l0 15.09l-21.86 0Z" id="p133w64" />
<path d="M470.95 222.26l27.82 0l0 15.09l-27.82 0Z" id="p133w65" />
<path d="M502.38 222.26l10.5 0l0 15.09l-10.5 0Z" id="p133w66" />
<path d="M516.49 222.26l52.96 0l0 15.09l-52.96 0Z" id="p133w67" />
<path d="M573.07 222.26l55.08 0l0 15.09l-55.08 0Z" id="p133w68" />
<path d="M631.76 222.26l11.93 0l0 15.09l-11.93 0Z" id="p133w69" />
<path d="M124.06 238.93l13.91 0l0 15.09l-13.91 0Z" id="p133w70" />
<path d="M141.58 238.93l10.42 0l0 15.09l-10.42 0Z" id="p133w71" />
<path d="M155.61 238.93l65.7 0l0 15.09l-65.7 0Z" id="p133w72" />
<path d="M224.92 238.93l13.91 0l0 15.09l-13.91 0Z" id="p133w73" />
<path d="M242.44 238.93l19.6 0l0 15.09l-19.6 0Z" id="p133w74" />
<path d="M265.25 238.93l28.6 0l0 15.09l-28.6 0Z" id="p133w75" />
<path d="M137.1 263.94l28.3 0l0 15.09l-28.3 0Z" id="p133w76" />
<path d="M169.01 263.94l17.93 0l0 15.09l-17.93 0Z" id="p133w77" />
<path d="M190.55 263.94l45.89 0l0 15.09l-45.89 0Z" id="p133w78" />
<path d="M240.06 263.94l23.06 0l0 15.09l-23.06 0Z" id="p133w79" />
<path d="M160.33 280.61l7.84 0l0 15.09l-7.84 0Z" id="p133w80" />
<path d="M171.78 280.61l18.6 0l0 15.09l-18.6 0Z" id="p133w81" />
<path d="M193.99 280.61l23.44 0l0 15.09l-23.44 0Z" id="p133w82" />
<path d="M221.04 280.61l28.89 0l0 15.09l-28.89 0Z" id="p133w83" />
<path d="M253.54 280.61l78.45 0l0 15.09l-78.45 0Z" id="p133w84" />
<path d="M335.6 280.61l33.21 0l0 15.09l-33.21 0Z" id="p133w85" />
<path d="M372.42 280.61l13.91 0l0 15.09l-13.91 0Z" id="p133w86" />
<path d="M389.94 280.61l19.19 0l0 15.09l-19.19 0Z" id="p133w87" />
<path d="M412.74 280.61l47.28 0l0 15.09l-47.28 0Z" id="p133w88" />
<path d="M463.63 280.61l33.48 0l0 15.09l-33.48 0Z" id="p133w89" />
<path d="M500.72 280.61l34.7 0l0 15.09l-34.7 0Z" id="p133w90" />
<path d="M137.1 297.28l26.45 0l0 15.09l-26.45 0Z" id="p133w91" />
<path d="M167.16 297.28l26.1 0l0 15.09l-26.1 0Z" id="p133w92" />
<path d="M196.88 297.28l16.64 0l0 15.09l-16.64 0Z" id="p133w93" />
<path d="M217.13 297.28l13.58 0l0 15.09l-13.58 0Z" id="p133w94" />
<path d="M234.33 297.28l10.63 0l0 15.09l-10.63 0Z" id="p133w95" />
<path d="M248.57 297.28l26.91 0l0 15.09l-26.91 0Z" id="p133w96" />
<path d="M279.09 297.28l10.5 0l0 15.09l-10.5 0Z" id="p133w97" />
<path d="M293.2 297.28l34.57 0l0 15.09l-34.57 0Z" id="p133w98" />
<path d="M124.06 322.29l8.02 0l0 15.09l-8.02 0Z" id="p133w99" />
<path d="M145.79 322.29l38.77 0l0 15.09l-38.77 0Z" id="p133w100" />
<path d="M188.18 322.29l10.5 0l0 15.09l-10.5 0Z" id="p133w101" />
<path d="M202.29 322.29l56.24 0l0 15.09l-56.24 0Z" id="p133w102" />
<path d="M262.14 322.29l14.59 0l0 15.09l-14.59 0Z" id="p133w103" />
<path d="M280.34 322.29l25.28 0l0 15.09l-25.28 0Z" id="p133w104" />
<path d="M339.59 322.29l31.09 0l0 15.09l-31.09 0Z" id="p133w105" />
<path d="M373.89 322.29l11.91 0l0 15.09l-11.91 0Z" id="p133w106" />
<path d="M389.01 322.29l21.87 0l0 15.09l-21.87 0Z" id="p133w107" />
<path d="M430.35 322.29l44.02 0l0 15.09l-44.02 0Z" id="p133w108" />
<path d="M493.82 322.29l11.62 0l0 15.09l-11.62 0Z" id="p133w109" />
<path d="M508.65 322.29l21.5 0l0 15.09l-21.5 0Z" id="p133w110" />
<path d="M533.37 322.29l28.67 0l0 15.09l-28.67 0Z" id="p133w111" />
<path d="M137.1 347.3l53.53 0l0 15.09l-53.53 0Z" id="p133w112" />
<path d="M194.24 347.3l21.67 0l0 15.09l-21.67 0Z" id="p133w113" />
<path d="M219.52 347.3l26.3 0l0 15.09l-26.3 0Z" id="p133w114" />
<path d="M249.43 347.3l21.67 0l0 15.09l-21.67 0Z" id="p133w115" />
<path d="M274.71 347.3l28.61 0l0 15.09l-28.61 0Z" id="p133w116" />
<path d="M306.93 347.3l45.06 0l0 15.09l-45.06 0Z" id="p133w117" />
<path d="M364.69 347.3l14.52 0l0 15.09l-14.52 0Z" id="p133w118" />
<path d="M382.82 347.3l42.49 0l0 15.09l-42.49 0Z" id="p133w119" />
<path d="M428.92 347.3l22.31 0l0 15.09l-22.31 0Z" id="p133w120" />
<path d="M454.84 347.3l50.55 0l0 15.09l-50.55 0Z" id="p133w121" />
<path d="M509 347.3l27.23 0l0 15.09l-27.23 0Z" id="p133w122" />
<path d="M539.84 347.3l19.6 0l0 15.09l-19.6 0Z" id="p133w123" />
<path d="M562.66 347.3l28.6 0l0 15.09l-28.6 0Z" id="p133w124" />
<path d="M603.95 347.3l12.22 0l0 15.09l-12.22 0Z" id="p133w125" />
<path d="M619.78 347.3l21 0l0 15.09l-21 0Z" id="p133w126" />
<path d="M137.1 363.97l22.59 0l0 15.09l-22.59 0Z" id="p133w127" />
<path d="M163.31 363.97l30.92 0l0 15.09l-30.92 0Z" id="p133w128" />
<path d="M197.84 363.97l52.69 0l0 15.09l-52.69 0Z" id="p133w129" />
<path d="M137.1 380.64l24.55 0l0 15.09l-24.55 0Z" id="p133w130" />
<path d="M165.26 380.64l26.3 0l0 15.09l-26.3 0Z" id="p133w131" />
<path d="M195.17 380.64l22.31 0l0 15.09l-22.31 0Z" id="p133w132" />
<path d="M221.09 380.64l68.86 0l0 15.09l-68.86 0Z" id="p133w133" />
<path d="M293.56 380.64l29.69 0l0 15.09l-29.69 0Z" id="p133w134" />
<path d="M326.86 380.64l14.21 0l0 15.09l-14.21 0Z" id="p133w135" />
<path d="M344.69 380.64l57.91 0l0 15.09l-57.91 0Z" id="p133w136" />
<path d="M406.21 380.64l24.08 0l0 15.09l-24.08 0Z" id="p133w137" />
<path d="M433.91 380.64l21.67 0l0 15.09l-21.67 0Z" id="p133w138" />
<path d="M459.19 380.64l17.93 0l0 15.09l-17.93 0Z" id="p133w139" />
<path d="M480.73 380.64l53.26 0l0 15.09l-53.26 0Z" id="p133w140" />
<path d="M537.6 380.64l27.23 0l0 15.09l-27.23 0Z" id="p133w141" />
<path d="M568.44 380.64l32.16 0l0 15.09l-32.16 0Z" id="p133w142" />
<path d="M603.81 380.64l27.27 0l0 15.09l-27.27 0Z" id="p133w143" />
<path d="M124.06 405.65l17.79 0l0 15.09l-17.79 0Z" id="p133w144" />
<path d="M145.46 405.65l30.55 0l0 15.09l-30.55 0Z" id="p133w145" />
<path d="M189.72 405.65l39.78 0l0 15.09l-39.78 0Z" id="p133w146" />
<path d="M233.11 405.65l15.74 0l0 15.09l-15.74 0Z" id="p133w147" />
<path d="M252.46 405.65l18.55 0l0 15.09l-18.55 0Z" id="p133w148" />
<path d="M274.62 405.65l15.96 0l0 15.09l-15.96 0Z" id="p133w149" />
<path d="M294.19 405.65l21.58 0l0 15.09l-21.58 0Z" id="p133w150" />
<path d="M331.16 405.67l10.54 0l0 15.09l-10.54 0Z" id="p133w151" />
<path d="M345.31 405.67l31.06 0l0 15.09l-31.06 0Z" id="p133w152" />
<path d="M379.98 405.67l21.96 0l0 15.09l-21.96 0Z" id="p133w153" />
<path d="M428.78 405.67l22.08 0l0 15.09l-22.08 0Z" id="p133w154" />
<path d="M454.47 405.67l14.54 0l0 15.09l-14.54 0Z" id="p133w155" />
<path d="M137.1 430.68l12.22 0l0 15.09l-12.22 0Z" id="p133w156" />
<path d="M152.94 430.68l12.41 0l0 15.09l-12.41 0Z" id="p133w157" />
<path d="M168.96 430.68l14.59 0l0 15.09l-14.59 0Z" id="p133w158" />
<path d="M187.16 430.68l28.26 0l0 15.09l-28.26 0Z" id="p133w159" />
<path d="M219.04 430.68l14.59 0l0 15.09l-14.59 0Z" id="p133w160" />
<path d="M237.23 430.68l11.88 0l0 15.09l-11.88 0Z" id="p133w161" />
<path d="M252.72 430.68l19.46 0l0 15.09l-19.46 0Z" id="p133w162" />
<path d="M275.79 430.68l29.96 0l0 15.09l-29.96 0Z" id="p133w163" />
<path d="M318.45 430.68l14.52 0l0 15.09l-14.52 0Z" id="p133w164" />
<path d="M336.58 430.68l28.26 0l0 15.09l-28.26 0Z" id="p133w165" />
<path d="M368.45 430.68l10.42 0l0 15.09l-10.42 0Z" id="p133w166" />
<path d="M382.49 430.68l52.77 0l0 15.09l-52.77 0Z" id="p133w167" />
<path d="M438.87 430.68l28.61 0l0 15.09l-28.61 0Z" id="p133w168" />
<path d="M471.09 430.68l32.91 0l0 15.09l-32.91 0Z" id="p133w169" />
<path d="M137.1 447.35l64.84 0l0 15.09l-64.84 0Z" id="p133w170" />
<path d="M205.55 447.35l34.7 0l0 15.09l-34.7 0Z" id="p133w171" />
<path d="M243.87 447.35l10.54 0l0 15.09l-10.54 0Z" id="p133w172" />
<path d="M258.02 447.35l14.59 0l0 15.09l-14.59 0Z" id="p133w173" />
<path d="M276.21 447.35l17.89 0l0 15.09l-17.89 0Z" id="p133w174" />
<path d="M297.72 447.35l27.79 0l0 15.09l-27.79 0Z" id="p133w175" />
<path d="M329.11 447.35l10.63 0l0 15.09l-10.63 0Z" id="p133w176" />
<path d="M343.35 447.35l17.89 0l0 15.09l-17.89 0Z" id="p133w177" />
<path d="M364.85 447.35l43.65 0l0 15.09l-43.65 0Z" id="p133w178" />
<path d="M422.21 447.35l45.53 0l0 15.09l-45.53 0Z" id="p133w179" />
<path d="M471.36 447.35l28.72 0l0 15.09l-28.72 0Z" id="p133w180" />
<path d="M503.69 447.35l15.56 0l0 15.09l-15.56 0Z" id="p133w181" />
<path d="M522.87 447.35l19.01 0l0 15.09l-19.01 0Z" id="p133w182" />
<path d="M545.49 447.35l22.08 0l0 15.09l-22.08 0Z" id="p133w183" />
<path d="M137.1 464.02l84.22 0l0 15.09l-84.22 0Z" id="p133w184" />
<path d="M224.93 464.02l14.21 0l0 15.09l-14.21 0Z" id="p133w185" />
<path d="M242.76 464.02l56.24 0l0 15.09l-56.24 0Z" id="p133w186" />
<path d="M302.61 464.02l14.59 0l0 15.09l-14.59 0Z" id="p133w187" />
<path d="M320.81 464.02l25.28 0l0 15.09l-25.28 0Z" id="p133w188" />
<path d="M349.7 464.02l13.91 0l0 15.09l-13.91 0Z" id="p133w189" />
<path d="M367.22 464.02l19.6 0l0 15.09l-19.6 0Z" id="p133w190" />
<path d="M390.03 464.02l28.6 0l0 15.09l-28.6 0Z" id="p133w191" />
<path d="M137.1 480.68l10.71 0l0 15.09l-10.71 0Z" id="p133w192" />
<path d="M151.42 480.68l12.41 0l0 15.09l-12.41 0Z" id="p133w193" />
<path d="M167.45 480.68l28.26 0l0 15.09l-28.26 0Z" id="p133w194" />
<path d="M199.32 480.68l39.17 0l0 15.09l-39.17 0Z" id="p133w195" />
<path d="M242.1 480.68l15.74 0l0 15.09l-15.74 0Z" id="p133w196" />
<path d="M261.46 480.68l21.87 0l0 15.09l-21.87 0Z" id="p133w197" />
<path d="M286.95 480.68l13.91 0l0 15.09l-13.91 0Z" id="p133w198" />
<path d="M304.46 480.68l15.56 0l0 15.09l-15.56 0Z" id="p133w199" />
<path d="M342.83 480.68l34.21 0l0 15.09l-34.21 0Z" id="p133w200" />
<path d="M380.65 480.68l27.18 0l0 15.09l-27.18 0Z" id="p133w201" />
<path d="M411.44 480.68l26.1 0l0 15.09l-26.1 0Z" id="p133w202" />
<path d="M441.16 480.68l25.69 0l0 15.09l-25.69 0Z" id="p133w203" />
<path d="M470.46 480.68l15.74 0l0 15.09l-15.74 0Z" id="p133w204" />
<path d="M489.81 480.68l41.49 0l0 15.09l-41.49 0Z" id="p133w205" />
<path d="M137.1 497.35l15.96 0l0 15.09l-15.96 0Z" id="p133w206" />
<path d="M174.75 497.35l38.36 0l0 15.09l-38.36 0Z" id="p133w207" />
<path d="M137.1 514.02l28.3 0l0 15.09l-28.3 0Z" id="p133w208" />
<path d="M169.02 514.02l13.91 0l0 15.09l-13.91 0Z" id="p133w209" />
<path d="M186.53 514.02l12.66 0l0 15.09l-12.66 0Z" id="p133w210" />
<path d="M202.8 514.02l42.37 0l0 15.09l-42.37 0Z" id="p133w211" />
<path d="M255.74 514.02l43.44 0l0 15.09l-43.44 0Z" id="p133w212" />
<path d="M302.79 514.02l17.38 0l0 15.09l-17.38 0Z" id="p133w213" />
<path d="M323.78 514.02l31.72 0l0 15.09l-31.72 0Z" id="p133w214" />
<path d="M359.11 514.02l26.5 0l0 15.09l-26.5 0Z" id="p133w215" />
<path d="M389.22 514.02l61.42 0l0 15.09l-61.42 0Z" id="p133w216" />
<path d="M464.35 514.02l18.89 0l0 15.09l-18.89 0Z" id="p133w217" />
<path d="M486.86 514.02l14.52 0l0 15.09l-14.52 0Z" id="p133w218" />
<path d="M504.99 514.02l10.5 0l0 15.09l-10.5 0Z" id="p133w219" />
<path d="M519.1 514.02l45.05 0l0 15.09l-45.05 0Z" id="p133w220" />
<path d="M567.76 514.02l38.5 0l0 15.09l-38.5 0Z" id="p133w221" />
<path d="M137.1 530.69l62.23 0l0 15.09l-62.23 0Z" id="p133w222" />
<path d="M137.54 916.49l33.8 0l0 13.06l-33.8 0Z" id="p133w223" />
<path d="M174.21 916.49l11.34 0l0 13.06l-11.34 0Z" id="p133w224" />
<path d="M188.41 916.55l27.02 0l0 12.99l-27.02 0Z" id="p133w225" />
<path d="M218.3 916.55l20.66 0l0 12.99l-20.66 0Z" id="p133w226" />
<path d="M241.83 916.55l53.72 0l0 12.99l-53.72 0Z" id="p133w227" />
<path d="M324.84 916.49l51.44 0l0 13.06l-51.44 0Z" id="p133w228" />
<path d="M379.16 916.49l11.34 0l0 13.06l-11.34 0Z" id="p133w229" />
<path d="M393.36 916.55l20.66 0l0 12.99l-20.66 0Z" id="p133w230" />
<path d="M416.89 916.55l46.15 0l0 12.99l-46.15 0Z" id="p133w231" />
<path d="M492.81 916.49l8.98 0l0 13.06l-8.98 0Z" id="p133w232" />
<path d="M504.66 916.49l21.65 0l0 13.06l-21.65 0Z" id="p133w233" />
<path d="M529.18 916.55l17.46 0l0 12.99l-17.46 0Z" id="p133w234" />
<path d="M549.5 916.55l40.43 0l0 12.99l-40.43 0Z" id="p133w235" />
<path d="M619.7 916.49l43.4 0l0 13.06l-43.4 0Z" id="p133w236" />
<path d="M124.06 931.83l45.87 0l0 12.99l-45.87 0Z" id="p133w237" />
<path d="M200.81 931.77l33.17 0l0 13.06l-33.17 0Z" id="p133w238" />
<path d="M236.86 931.77l12.9 0l0 13.06l-12.9 0Z" id="p133w239" />
<path d="M252.62 931.83l21.29 0l0 12.99l-21.29 0Z" id="p133w240" />
<path d="M276.79 931.83l28.88 0l0 12.99l-28.88 0Z" id="p133w241" />
<path d="M308.53 931.83l39.94 0l0 12.99l-39.94 0Z" id="p133w242" />
<path d="M378.48 931.77l11.11 0l0 13.06l-11.11 0Z" id="p133w243" />
<path d="M392.47 931.77l32.97 0l0 13.06l-32.97 0Z" id="p133w244" />
<path d="M428.31 931.77l37.56 0l0 13.06l-37.56 0Z" id="p133w245" />
<path d="M468.73 931.77l12.41 0l0 13.06l-12.41 0Z" id="p133w246" />
<path d="M484.02 931.77l11.34 0l0 13.06l-11.34 0Z" id="p133w247" />
<path d="M498.22 931.83l20.66 0l0 12.99l-20.66 0Z" id="p133w248" />
<path d="M521.75 931.83l50.22 0l0 12.99l-50.22 0Z" id="p133w249" />
<path d="M602.85 931.77l8.98 0l0 13.06l-8.98 0Z" id="p133w250" />
<path d="M614.69 931.77l18.16 0l0 13.06l-18.16 0Z" id="p133w251" />
<path d="M651.09 931.83l31.59 0l0 12.99l-31.59 0Z" id="p133w252" />
<path d="M349.15 549.23l20.89 0l0 11.42l-20.89 0Z" id="p133w253" />
<path d="M372.78 549.23l11.91 0l0 11.42l-11.91 0Z" id="p133w254" />
<path d="M387.42 549.23l16.55 0l0 11.42l-16.55 0Z" id="p133w255" />
<path d="M406.71 549.23l37.58 0l0 11.42l-37.58 0Z" id="p133w256" />
<path d="M447.02 549.23l8.52 0l0 11.42l-8.52 0Z" id="p133w257" />
<path d="M458.28 549.23l42.91 0l0 11.42l-42.91 0Z" id="p133w258" />
<path d="M503.92 549.23l10.52 0l0 11.42l-10.52 0Z" id="p133w259" />
<path d="M517.17 549.23l37.57 0l0 11.42l-37.57 0Z" id="p133w260" />
<path d="M562.88 549.23l33.17 0l0 11.42l-33.17 0Z" id="p133w261" />
<path d="M598.78 549.23l41.16 0l0 11.42l-41.16 0Z" id="p133w262" />
<path d="M642.67 549.23l34.1 0l0 11.42l-34.1 0Z" id="p133w263" />
<path d="M679.51 549.23l29.42 0l0 11.42l-29.42 0Z" id="p133w264" />
<path d="M489.98 561.74l25.87 0l0 11.42l-25.87 0Z" id="p133w265" />
<path d="M518.58 561.74l33.83 0l0 11.42l-33.83 0Z" id="p133w266" />
<path d="M555.14 561.74l24.09 0l0 11.42l-24.09 0Z" id="p133w267" />
<path d="M581.97 561.74l29.73 0l0 11.42l-29.73 0Z" id="p133w268" />
<path d="M614.43 561.74l8.52 0l0 11.42l-8.52 0Z" id="p133w269" />
<path d="M625.68 561.74l50.87 0l0 11.42l-50.87 0Z" id="p133w270" />
<path d="M679.28 561.74l29.63 0l0 11.42l-29.63 0Z" id="p133w271" />
<path d="M124.06 608.17l34.63 0l0 18.84l-34.63 0Z" id="p133w272" />
<path d="M162.34 608.17l89.43 0l0 18.84l-89.43 0Z" id="p133w273" />
<path d="M255.42 608.17l13.62 0l0 18.84l-13.62 0Z" id="p133w274" />
<path d="M272.69 608.17l38.39 0l0 18.84l-38.39 0Z" id="p133w275" />
<path d="M124.06 639.37l32.87 0l0 14.52l-32.87 0Z" id="p133w276" />
<path d="M160.14 639.37l20.85 0l0 14.52l-20.85 0Z" id="p133w277" />
<path d="M184.2 639.37l23.24 0l0 14.52l-23.24 0Z" id="p133w278" />
<path d="M210.65 639.37l13.9 0l0 14.52l-13.9 0Z" id="p133w279" />
<path d="M227.76 639.37l24.06 0l0 14.52l-24.06 0Z" id="p133w280" />
<path d="M255.03 639.37l15.5 0l0 14.52l-15.5 0Z" id="p133w281" />
<path d="M273.73 639.37l71.57 0l0 14.52l-71.57 0Z" id="p133w282" />
<path d="M348.5 639.37l14.18 0l0 14.52l-14.18 0Z" id="p133w283" />
<path d="M365.89 639.37l31.01 0l0 14.52l-31.01 0Z" id="p133w284" />
<path d="M400.1 639.37l28.33 0l0 14.52l-28.33 0Z" id="p133w285" />
<path d="M431.63 639.37l17.38 0l0 14.52l-17.38 0Z" id="p133w286" />
<path d="M452.22 639.37l12.02 0l0 14.52l-12.02 0Z" id="p133w287" />
<path d="M467.45 639.37l27.01 0l0 14.52l-27.01 0Z" id="p133w288" />
<path d="M124.06 672.71l55.34 0l0 14.52l-55.34 0Z" id="p133w289" />
<path d="M182.61 672.71l19.52 0l0 14.52l-19.52 0Z" id="p133w290" />
<path d="M205.34 672.71l54 0l0 14.52l-54 0Z" id="p133w291" />
<path d="M262.55 672.71l55.16 0l0 14.52l-55.16 0Z" id="p133w292" />
<path d="M143.75 697.73l48.26 0l0 14.52l-48.26 0Z" id="p133w293" />
<path d="M195.15 697.73l20.05 0l0 14.52l-20.05 0Z" id="p133w294" />
<path d="M218.35 697.73l24.64 0l0 14.52l-24.64 0Z" id="p133w295" />
<path d="M246.13 697.73l50.05 0l0 14.52l-50.05 0Z" id="p133w296" />
<path d="M299.32 697.73l16.38 0l0 14.52l-16.38 0Z" id="p133w297" />
<path d="M318.84 697.73l39.17 0l0 14.52l-39.17 0Z" id="p133w298" />
<path d="M143.75 714.4l48.26 0l0 14.52l-48.26 0Z" id="p133w299" />
<path d="M195.15 714.4l21.89 0l0 14.52l-21.89 0Z" id="p133w300" />
<path d="M220.18 714.4l17.81 0l0 14.52l-17.81 0Z" id="p133w301" />
<path d="M241.14 714.4l24.64 0l0 14.52l-24.64 0Z" id="p133w302" />
<path d="M268.92 714.4l34.45 0l0 14.52l-34.45 0Z" id="p133w303" />
<path d="M419.44 697.73l24.37 0l0 14.52l-24.37 0Z" id="p133w304" />
<path d="M446.95 697.73l16.1 0l0 14.52l-16.1 0Z" id="p133w305" />
<path d="M466.2 697.73l9.43 0l0 14.52l-9.43 0Z" id="p133w306" />
<path d="M478.77 697.73l51.09 0l0 14.52l-51.09 0Z" id="p133w307" />
<path d="M533.01 697.73l13.36 0l0 14.52l-13.36 0Z" id="p133w308" />
<path d="M549.52 697.73l35.24 0l0 14.52l-35.24 0Z" id="p133w309" />
<path d="M419.44 714.4l47.72 0l0 14.52l-47.72 0Z" id="p133w310" />
<path d="M470.3 714.4l31.61 0l0 14.52l-31.61 0Z" id="p133w311" />
<path d="M505.06 714.4l20.05 0l0 14.52l-20.05 0Z" id="p133w312" />
<path d="M528.25 714.4l14.8 0l0 14.52l-14.8 0Z" id="p133w313" />
<path d="M546.19 714.4l40.73 0l0 14.52l-40.73 0Z" id="p133w314" />
<path d="M590.07 714.4l43.66 0l0 14.52l-43.66 0Z" id="p133w315" />
<path d="M636.87 714.4l23.32 0l0 14.52l-23.32 0Z" id="p133w316" />
<path d="M663.34 714.4l36.15 0l0 14.52l-36.15 0Z" id="p133w317" />
<path d="M124.06 758.22l43.04 0l0 18.84l-43.04 0Z" id="p133w318" />
<path d="M170.75 758.22l13.62 0l0 18.84l-13.62 0Z" id="p133w319" />
<path d="M188.02 758.22l51.46 0l0 18.84l-51.46 0Z" id="p133w320" />
<path d="M124.06 789.43l35.55 0l0 14.52l-35.55 0Z" id="p133w321" />
<path d="M162.81 789.43l16.83 0l0 14.52l-16.83 0Z" id="p133w322" />
<path d="M182.85 789.43l21.37 0l0 14.52l-21.37 0Z" id="p133w323" />
<path d="M207.43 789.43l39.56 0l0 14.52l-39.56 0Z" id="p133w324" />
<path d="M250.19 789.43l11.22 0l0 14.52l-11.22 0Z" id="p133w325" />
<path d="M264.62 789.43l40.89 0l0 14.52l-40.89 0Z" id="p133w326" />
<path d="M308.72 789.43l12.29 0l0 14.52l-12.29 0Z" id="p133w327" />
<path d="M324.22 789.43l37.17 0l0 14.52l-37.17 0Z" id="p133w328" />
<path d="M364.59 789.43l41.7 0l0 14.52l-41.7 0Z" id="p133w329" />
<path d="M409.5 789.43l25.67 0l0 14.52l-25.67 0Z" id="p133w330" />
<path d="M438.38 789.43l13.37 0l0 14.52l-13.37 0Z" id="p133w331" />
<path d="M454.95 789.43l46.78 0l0 14.52l-46.78 0Z" id="p133w332" />
<path d="M504.94 789.43l47.57 0l0 14.52l-47.57 0Z" id="p133w333" />
<path d="M555.72 789.43l25.4 0l0 14.52l-25.4 0Z" id="p133w334" />
<path d="M124.06 806.1l39.29 0l0 14.52l-39.29 0Z" id="p133w335" />
<path d="M166.56 806.1l37.96 0l0 14.52l-37.96 0Z" id="p133w336" />
<path d="M207.73 806.1l19.51 0l0 14.52l-19.51 0Z" id="p133w337" />
<path d="M230.45 806.1l33.68 0l0 14.52l-33.68 0Z" id="p133w338" />
<path d="M267.34 806.1l22.99 0l0 14.52l-22.99 0Z" id="p133w339" />
<path d="M303.43 806.1l29.42 0l0 14.52l-29.42 0Z" id="p133w340" />
<path d="M336.06 806.1l29.42 0l0 14.52l-29.42 0Z" id="p133w341" />
<path d="M368.68 806.1l9.89 0l0 14.52l-9.89 0Z" id="p133w342" />
<path d="M381.78 806.1l27.02 0l0 14.52l-27.02 0Z" id="p133w343" />
<path d="M412 806.1l13.9 0l0 14.52l-13.9 0Z" id="p133w344" />
<path d="M429.11 806.1l10.69 0l0 14.52l-10.69 0Z" id="p133w345" />
<path d="M443.01 806.1l45.34 0l0 14.52l-45.34 0Z" id="p133w346" />
<path d="M501.44 806.1l44.38 0l0 14.52l-44.38 0Z" id="p133w347" />
<path d="M124.06 839.44l51.53 0l0 14.52l-51.53 0Z" id="p133w348" />
<path d="M178.8 839.44l9.89 0l0 14.52l-9.89 0Z" id="p133w349" />
<path d="M191.89 839.44l55.34 0l0 14.52l-55.34 0Z" id="p133w350" />
<path d="M250.44 839.44l54.26 0l0 14.52l-54.26 0Z" id="p133w351" />
<path d="M307.91 839.44l29.66 0l0 14.52l-29.66 0Z" id="p133w352" />
<path d="M340.78 839.44l40.63 0l0 14.52l-40.63 0Z" id="p133w353" />
<path d="M384.62 839.44l11.22 0l0 14.52l-11.22 0Z" id="p133w354" />
<path d="M399.04 839.44l35.55 0l0 14.52l-35.55 0Z" id="p133w355" />
<path d="M444.21 839.44l13.91 0l0 14.52l-13.91 0Z" id="p133w356" />
<path d="M461.33 839.44l33.05 0l0 14.52l-33.05 0Z" id="p133w357" />
<path d="M497.59 839.44l35.82 0l0 14.52l-35.82 0Z" id="p133w358" />
<path d="M536.62 839.44l24.59 0l0 14.52l-24.59 0Z" id="p133w359" />
<path d="M564.42 839.44l20.05 0l0 14.52l-20.05 0Z" id="p133w360" />
<path d="M124.06 856.11l14.97 0l0 14.52l-14.97 0Z" id="p133w361" />
<path d="M142.24 856.11l24.34 0l0 14.52l-24.34 0Z" id="p133w362" />
<path d="M169.78 856.11l67 0l0 14.52l-67 0Z" id="p133w363" />
<path d="M259.24 856.11l29.42 0l0 14.52l-29.42 0Z" id="p133w364" />
<path d="M291.86 856.11l39.03 0l0 14.52l-39.03 0Z" id="p133w365" />
<path d="M334.1 856.11l14.18 0l0 14.52l-14.18 0Z" id="p133w366" />
<path d="M351.49 856.11l28.88 0l0 14.52l-28.88 0Z" id="p133w367" />
<path d="M383.57 856.11l45.97 0l0 14.52l-45.97 0Z" id="p133w368" />
<path d="M432.75 856.11l14.18 0l0 14.52l-14.18 0Z" id="p133w369" />
<path d="M450.14 856.11l38.77 0l0 14.52l-38.77 0Z" id="p133w370" />
<path d="M73.54 613.36l15.07 0l0 12.29l-15.07 0Z" id="p133w371" />
<path d="M52.89 632.88l35.72 0l0 12.3l-35.72 0Z" id="p133w372" />
<path d="M39.49 645.38l49.13 0l0 12.3l-49.13 0Z" id="p133w373" />
<path d="M60.68 791.2l27.93 0l0 12.29l-27.93 0Z" id="p133w374" />
<path d="M62.22 841.22l26.4 0l0 12.29l-26.4 0Z" id="p133w375" />
<path d="M68.27 39.02l42.02 0l0 15.38l-42.02 0Z" id="p133w376" />
<path d="M152.94 39.02l43.21 0l0 15.38l-43.21 0Z" id="p133w377" />
<path d="M251.4 39.02l43.21 0l0 15.38l-43.21 0Z" id="p133w378" />
<path d="M359.5 38.6l29.22 0l0 16.09l-29.22 0Z" id="p133w379" />
<path d="M392.1 38.6l46.27 0l0 16.09l-46.27 0Z" id="p133w380" />
<path d="M497.56 39.02l32.54 0l0 15.38l-32.54 0Z" id="p133w381" />
<path d="M611.19 983l79.91 0l0 12.23l-79.91 0Z" id="p133w382" />
</svg>
