<?xml version="1.0" encoding="UTF-8"?>
<svg xmlns="http://www.w3.org/2000/svg" xmlns:xlink="http://www.w3.org/1999/xlink" version="1.1" baseProfile="full" width="768" height="1024" viewBox="0,0,768,1024" preserveAspectRatio="xMinYMin meet" >
<style type="text/css">
<![CDATA[
path {fill-opacity: 0.5;fill: #00aeef;visibility: hidden;}
]]>
</style>
<path d="M572.94 38.6l71 0l0 16.09l-71 0Z" id="p217w1" />
<path d="M608.77 983.66l80.46 0l0 12.23l-80.46 0Z" id="p217w2" />
<path d="M59.08 110.01l10.02 0l0 14.6l-10.02 0Z" id="p217w3" />
<path d="M72.3 110.01l24.56 0l0 14.6l-24.56 0Z" id="p217w4" />
<path d="M100.17 108.77l44.24 0l0 16.35l-44.24 0Z" id="p217w5" />
<path d="M232.37 110.09l19.51 0l0 14.52l-19.51 0Z" id="p217w6" />
<path d="M255.09 110.09l24.88 0l0 14.52l-24.88 0Z" id="p217w7" />
<path d="M439.15 108.36l34.58 0l0 16.35l-34.58 0Z" id="p217w8" />
<path d="M59.07 130.72l37.63 0l0 14.6l-37.63 0Z" id="p217w9" />
<path d="M99.91 130.72l18.11 0l0 14.6l-18.11 0Z" id="p217w10" />
<path d="M121.23 130.72l16.91 0l0 14.6l-16.91 0Z" id="p217w11" />
<path d="M141.44 129.48l43.52 0l0 16.35l-43.52 0Z" id="p217w12" />
<path d="M64.98 156.37l37.63 0l0 14.6l-37.63 0Z" id="p217w13" />
<path d="M112.5 156.44l9.62 0l0 14.52l-9.62 0Z" id="p217w14" />
<path d="M125.33 156.37l35.14 0l0 14.6l-35.14 0Z" id="p217w15" />
<path d="M166.36 156.44l11.5 0l0 14.52l-11.5 0Z" id="p217w16" />
<path d="M181.06 156.37l35.14 0l0 14.6l-35.14 0Z" id="p217w17" />
<path d="M222.08 156.44l50.26 0l0 14.52l-50.26 0Z" id="p217w18" />
<path d="M275.55 156.37l34.08 0l0 14.6l-34.08 0Z" id="p217w19" />
<path d="M64.98 173.11l26.74 0l0 14.52l-26.74 0Z" id="p217w20" />
<path d="M94.93 173.11l51.61 0l0 14.52l-51.61 0Z" id="p217w21" />
<path d="M149.75 173.11l25.67 0l0 14.52l-25.67 0Z" id="p217w22" />
<path d="M178.63 173.11l44.65 0l0 14.52l-44.65 0Z" id="p217w23" />
<path d="M226.49 173.11l42.36 0l0 14.52l-42.36 0Z" id="p217w24" />
<path d="M272.06 173.04l47.89 0l0 14.6l-47.89 0Z" id="p217w25" />
<path d="M64.98 189.71l30.74 0l0 14.68l-30.74 0Z" id="p217w26" />
<path d="M98.93 189.71l47.06 0l0 14.68l-47.06 0Z" id="p217w27" />
<path d="M155.84 189.78l9.62 0l0 14.52l-9.62 0Z" id="p217w28" />
<path d="M168.67 189.71l21.91 0l0 14.6l-21.91 0Z" id="p217w29" />
<path d="M193.78 189.71l42.41 0l0 14.6l-42.41 0Z" id="p217w30" />
<path d="M232.37 130.8l18.18 0l0 14.52l-18.18 0Z" id="p217w31" />
<path d="M253.75 130.8l27.36 0l0 14.52l-27.36 0Z" id="p217w32" />
<path d="M284.32 130.8l42.49 0l0 14.52l-42.49 0Z" id="p217w33" />
<path d="M59.07 217.02l38.17 0l0 14.6l-38.17 0Z" id="p217w34" />
<path d="M100.45 217.02l10.03 0l0 14.6l-10.03 0Z" id="p217w35" />
<path d="M113.69 217.02l28.62 0l0 14.6l-28.62 0Z" id="p217w36" />
<path d="M145.61 215.78l66.22 0l0 16.35l-66.22 0Z" id="p217w37" />
<path d="M232.37 217.1l21.12 0l0 14.52l-21.12 0Z" id="p217w38" />
<path d="M256.34 217.1l28.07 0l0 14.52l-28.07 0Z" id="p217w39" />
<path d="M287.62 217.1l39.84 0l0 14.52l-39.84 0Z" id="p217w40" />
<path d="M417.47 217.1l50.43 0l0 14.52l-50.43 0Z" id="p217w41" />
<path d="M471.11 217.1l22.99 0l0 14.52l-22.99 0Z" id="p217w42" />
<path d="M497.31 217.1l22.45 0l0 14.52l-22.45 0Z" id="p217w43" />
<path d="M522.97 217.1l25.67 0l0 14.52l-25.67 0Z" id="p217w44" />
<path d="M551.85 217.1l37.93 0l0 14.52l-37.93 0Z" id="p217w45" />
<path d="M593 217.1l9.89 0l0 14.52l-9.89 0Z" id="p217w46" />
<path d="M606.09 217.1l28.33 0l0 14.52l-28.33 0Z" id="p217w47" />
<path d="M59.07 237.73l27.84 0l0 14.6l-27.84 0Z" id="p217w48" />
<path d="M90.12 237.73l12.67 0l0 14.6l-12.67 0Z" id="p217w49" />
<path d="M106.09 236.49l31.61 0l0 16.35l-31.61 0Z" id="p217w50" />
<path d="M232.37 237.81l23.09 0l0 14.52l-23.09 0Z" id="p217w51" />
<path d="M258.66 237.81l37.91 0l0 14.52l-37.91 0Z" id="p217w52" />
<path d="M232.37 254.45l24.55 0l0 14.52l-24.55 0Z" id="p217w53" />
<path d="M260.12 254.48l23.09 0l0 14.52l-23.09 0Z" id="p217w54" />
<path d="M286.42 254.48l62.01 0l0 14.52l-62.01 0Z" id="p217w55" />
<path d="M59.07 272.55l14.31 0l0 14.6l-14.31 0Z" id="p217w56" />
<path d="M76.59 272.55l74.03 0l0 14.6l-74.03 0Z" id="p217w57" />
<path d="M153.92 271.31l55.58 0l0 16.35l-55.58 0Z" id="p217w58" />
<path d="M232.37 272.63l17.11 0l0 14.52l-17.11 0Z" id="p217w59" />
<path d="M252.68 272.63l80.19 0l0 14.52l-80.19 0Z" id="p217w60" />
<path d="M417.47 272.63l12.41 0l0 14.52l-12.41 0Z" id="p217w61" />
<path d="M433.09 272.63l26.74 0l0 14.52l-26.74 0Z" id="p217w62" />
<path d="M463.04 272.63l27.8 0l0 14.52l-27.8 0Z" id="p217w63" />
<path d="M494.04 272.63l9.89 0l0 14.52l-9.89 0Z" id="p217w64" />
<path d="M507.14 272.63l75.91 0l0 14.52l-75.91 0Z" id="p217w65" />
<path d="M586.25 272.63l14.43 0l0 14.52l-14.43 0Z" id="p217w66" />
<path d="M603.89 272.63l11.22 0l0 14.52l-11.22 0Z" id="p217w67" />
<path d="M417.47 289.3l24.85 0l0 14.52l-24.85 0Z" id="p217w68" />
<path d="M59.07 307.37l13.78 0l0 14.6l-13.78 0Z" id="p217w69" />
<path d="M76.06 307.37l19.11 0l0 14.6l-19.11 0Z" id="p217w70" />
<path d="M98.47 306.13l29.62 0l0 16.35l-29.62 0Z" id="p217w71" />
<path d="M232.37 307.45l48.59 0l0 14.52l-48.59 0Z" id="p217w72" />
<path d="M59.07 328.08l29.98 0l0 14.6l-29.98 0Z" id="p217w73" />
<path d="M92.25 328.08l12.67 0l0 14.6l-12.67 0Z" id="p217w74" />
<path d="M108.23 326.84l40.27 0l0 16.35l-40.27 0Z" id="p217w75" />
<path d="M232.37 328.16l23.09 0l0 14.52l-23.09 0Z" id="p217w76" />
<path d="M258.66 328.16l80.13 0l0 14.52l-80.13 0Z" id="p217w77" />
<path d="M417.47 328.08l46.59 0l0 14.6l-46.59 0Z" id="p217w78" />
<path d="M470.57 328.08l28.23 0l0 14.68l-28.23 0Z" id="p217w79" />
<path d="M502.01 328.08l12.29 0l0 14.68l-12.29 0Z" id="p217w80" />
<path d="M517.51 328.16l24.5 0l0 14.61l-24.5 0Z" id="p217w81" />
<path d="M545.22 328.16l14.16 0l0 14.61l-14.16 0Z" id="p217w82" />
<path d="M562.59 328.16l31.73 0l0 14.61l-31.73 0Z" id="p217w83" />
<path d="M417.47 344.83l49.99 0l0 14.61l-49.99 0Z" id="p217w84" />
<path d="M470.67 344.83l18.7 0l0 14.61l-18.7 0Z" id="p217w85" />
<path d="M492.58 344.75l27.72 0l0 14.61l-27.72 0Z" id="p217w86" />
<path d="M523.5 344.83l49.08 0l0 14.61l-49.08 0Z" id="p217w87" />
<path d="M575.78 344.83l15.79 0l0 14.61l-15.79 0Z" id="p217w88" />
<path d="M594.78 344.83l25.03 0l0 14.61l-25.03 0Z" id="p217w89" />
<path d="M417.47 361.5l9.82 0l0 14.61l-9.82 0Z" id="p217w90" />
<path d="M430.5 361.5l50.79 0l0 14.61l-50.79 0Z" id="p217w91" />
<path d="M435.7 378.19l20.84 0l0 14.61l-20.84 0Z" id="p217w92" />
<path d="M459.75 378.19l31.7 0l0 14.61l-31.7 0Z" id="p217w93" />
<path d="M59.07 396.25l10.03 0l0 14.6l-10.03 0Z" id="p217w94" />
<path d="M72.31 396.25l48.48 0l0 14.6l-48.48 0Z" id="p217w95" />
<path d="M124.09 395.01l48.65 0l0 16.35l-48.65 0Z" id="p217w96" />
<path d="M232.37 396.33l18.44 0l0 14.52l-18.44 0Z" id="p217w97" />
<path d="M254.01 396.33l58.86 0l0 14.52l-58.86 0Z" id="p217w98" />
<path d="M232.37 413l18.44 0l0 14.52l-18.44 0Z" id="p217w99" />
<path d="M254.01 413l64.4 0l0 14.52l-64.4 0Z" id="p217w100" />
<path d="M417.47 396.33l12.41 0l0 14.52l-12.41 0Z" id="p217w101" />
<path d="M433.09 396.33l26.74 0l0 14.52l-26.74 0Z" id="p217w102" />
<path d="M463.04 396.33l37.93 0l0 14.52l-37.93 0Z" id="p217w103" />
<path d="M504.18 396.33l12.57 0l0 14.52l-12.57 0Z" id="p217w104" />
<path d="M529.84 396.33l9.89 0l0 14.52l-9.89 0Z" id="p217w105" />
<path d="M542.93 396.33l48.12 0l0 14.52l-48.12 0Z" id="p217w106" />
<path d="M59.07 431.11l14.31 0l0 14.6l-14.31 0Z" id="p217w107" />
<path d="M76.59 431.11l23.4 0l0 14.6l-23.4 0Z" id="p217w108" />
<path d="M117.1 431.15l14.16 0l0 14.52l-14.16 0Z" id="p217w109" />
<path d="M134.47 431.15l43.82 0l0 14.52l-43.82 0Z" id="p217w110" />
<path d="M59.07 446.54l31.43 0l0 16.35l-31.43 0Z" id="p217w111" />
<path d="M93.8 446.54l59.83 0l0 16.35l-59.83 0Z" id="p217w112" />
<path d="M232.37 431.15l17.11 0l0 14.52l-17.11 0Z" id="p217w113" />
<path d="M252.32 431.15l41.54 0l0 14.52l-41.54 0Z" id="p217w114" />
<path d="M59.07 465.91l12.42 0l0 14.6l-12.42 0Z" id="p217w115" />
<path d="M74.7 465.91l37.82 0l0 14.6l-37.82 0Z" id="p217w116" />
<path d="M115.82 464.67l53.31 0l0 16.35l-53.31 0Z" id="p217w117" />
<path d="M232.37 465.99l21.92 0l0 14.52l-21.92 0Z" id="p217w118" />
<path d="M257.5 465.99l56.88 0l0 14.52l-56.88 0Z" id="p217w119" />
<path d="M432.86 465.89l50.33 0l0 14.61l-50.33 0Z" id="p217w120" />
<path d="M59.08 486.62l20.99 0l0 14.6l-20.99 0Z" id="p217w121" />
<path d="M83.27 486.62l44.15 0l0 14.6l-44.15 0Z" id="p217w122" />
<path d="M130.72 485.38l46.24 0l0 16.35l-46.24 0Z" id="p217w123" />
<path d="M232.37 486.7l17.11 0l0 14.52l-17.11 0Z" id="p217w124" />
<path d="M252.33 486.7l29.67 0l0 14.52l-29.67 0Z" id="p217w125" />
<path d="M417.48 486.7l25.4 0l0 14.52l-25.4 0Z" id="p217w126" />
<path d="M446.08 486.7l18.72 0l0 14.52l-18.72 0Z" id="p217w127" />
<path d="M468.01 486.7l43.54 0l0 14.52l-43.54 0Z" id="p217w128" />
<path d="M59.08 507.33l44.28 0l0 14.6l-44.28 0Z" id="p217w129" />
<path d="M106.57 507.33l32.19 0l0 14.6l-32.19 0Z" id="p217w130" />
<path d="M142.06 506.09l59.71 0l0 16.35l-59.71 0Z" id="p217w131" />
<path d="M64.98 549.65l44.28 0l0 14.6l-44.28 0Z" id="p217w132" />
<path d="M119.15 549.72l9.62 0l0 14.52l-9.62 0Z" id="p217w133" />
<path d="M131.98 549.72l11.22 0l0 14.52l-11.22 0Z" id="p217w134" />
<path d="M148.68 549.72l18.45 0l0 14.52l-18.45 0Z" id="p217w135" />
<path d="M170.34 549.72l11.5 0l0 14.52l-11.5 0Z" id="p217w136" />
<path d="M185.05 549.72l11.22 0l0 14.52l-11.22 0Z" id="p217w137" />
<path d="M201.74 549.72l18.45 0l0 14.52l-18.45 0Z" id="p217w138" />
<path d="M223.4 549.72l6.41 0l0 14.52l-6.41 0Z" id="p217w139" />
<path d="M233.03 549.72l11.22 0l0 14.52l-11.22 0Z" id="p217w140" />
<path d="M249.72 549.72l17.38 0l0 14.52l-17.38 0Z" id="p217w141" />
<path d="M270.31 549.72l26.74 0l0 14.52l-26.74 0Z" id="p217w142" />
<path d="M300.26 549.72l52.4 0l0 14.52l-52.4 0Z" id="p217w143" />
<path d="M64.98 566.39l25.67 0l0 14.52l-25.67 0Z" id="p217w144" />
<path d="M93.86 566.39l45.18 0l0 14.52l-45.18 0Z" id="p217w145" />
<path d="M142.25 566.39l12.02 0l0 14.52l-12.02 0Z" id="p217w146" />
<path d="M157.49 566.39l11.22 0l0 14.52l-11.22 0Z" id="p217w147" />
<path d="M174.18 566.39l37.66 0l0 14.52l-37.66 0Z" id="p217w148" />
<path d="M215.05 566.32l30.74 0l0 14.68l-30.74 0Z" id="p217w149" />
<path d="M249 566.32l47.06 0l0 14.68l-47.06 0Z" id="p217w150" />
<path d="M305.9 566.39l14.8 0l0 14.52l-14.8 0Z" id="p217w151" />
<path d="M323.9 566.32l23.79 0l0 14.6l-23.79 0Z" id="p217w152" />
<path d="M232.37 507.41l48.1 0l0 14.52l-48.1 0Z" id="p217w153" />
<path d="M283.67 507.41l66.99 0l0 14.52l-66.99 0Z" id="p217w154" />
<path d="M353.86 507.41l23.09 0l0 14.52l-23.09 0Z" id="p217w155" />
<path d="M232.37 524.08l49.67 0l0 14.52l-49.67 0Z" id="p217w156" />
<path d="M285.24 524.08l23.09 0l0 14.52l-23.09 0Z" id="p217w157" />
<path d="M311.53 524.08l62.82 0l0 14.52l-62.82 0Z" id="p217w158" />
<path d="M417.47 507.41l12.41 0l0 14.52l-12.41 0Z" id="p217w159" />
<path d="M433.09 507.41l12.29 0l0 14.52l-12.29 0Z" id="p217w160" />
<path d="M448.58 507.41l24.06 0l0 14.52l-24.06 0Z" id="p217w161" />
<path d="M475.85 507.41l25.13 0l0 14.52l-25.13 0Z" id="p217w162" />
<path d="M504.19 507.41l24.87 0l0 14.52l-24.87 0Z" id="p217w163" />
<path d="M432.86 524.1l39.84 0l0 14.61l-39.84 0Z" id="p217w164" />
<path d="M475.9 524.1l12.83 0l0 14.61l-12.83 0Z" id="p217w165" />
<path d="M59.08 593.64l66.91 0l0 14.6l-66.91 0Z" id="p217w166" />
<path d="M129.29 592.4l61.71 0l0 16.35l-61.71 0Z" id="p217w167" />
<path d="M232.37 593.72l48.31 0l0 14.52l-48.31 0Z" id="p217w168" />
<path d="M435.2 598.03l21.65 0l0 14.61l-21.65 0Z" id="p217w169" />
<path d="M460.06 598.03l49.42 0l0 14.61l-49.42 0Z" id="p217w170" />
<path d="M59.08 616.13l14.31 0l0 14.6l-14.31 0Z" id="p217w171" />
<path d="M76.59 616.13l14.26 0l0 14.6l-14.26 0Z" id="p217w172" />
<path d="M107.95 616.17l14.16 0l0 14.52l-14.16 0Z" id="p217w173" />
<path d="M125.32 616.17l57.97 0l0 14.52l-57.97 0Z" id="p217w174" />
<path d="M59.08 632.84l30.77 0l0 14.52l-30.77 0Z" id="p217w175" />
<path d="M93.14 631.56l122.09 0l0 16.35l-122.09 0Z" id="p217w176" />
<path d="M232.37 616.17l17.11 0l0 14.52l-17.11 0Z" id="p217w177" />
<path d="M252.68 616.17l60.68 0l0 14.52l-60.68 0Z" id="p217w178" />
<path d="M59.08 650.93l20.99 0l0 14.6l-20.99 0Z" id="p217w179" />
<path d="M83.27 650.93l30.52 0l0 14.6l-30.52 0Z" id="p217w180" />
<path d="M116.99 650.93l13.87 0l0 14.6l-13.87 0Z" id="p217w181" />
<path d="M134.07 650.93l60.84 0l0 14.6l-60.84 0Z" id="p217w182" />
<path d="M59.08 666.36l121.96 0l0 16.35l-121.96 0Z" id="p217w183" />
<path d="M232.37 651.01l17.11 0l0 14.52l-17.11 0Z" id="p217w184" />
<path d="M252.68 651.01l124.23 0l0 14.52l-124.23 0Z" id="p217w185" />
<path d="M417.48 651.01l10.43 0l0 14.52l-10.43 0Z" id="p217w186" />
<path d="M431.11 651.01l19.07 0l0 14.52l-19.07 0Z" id="p217w187" />
<path d="M453.39 651.01l36.07 0l0 14.52l-36.07 0Z" id="p217w188" />
<path d="M492.67 651.01l24.85 0l0 14.52l-24.85 0Z" id="p217w189" />
<path d="M520.73 651.01l13.9 0l0 14.52l-13.9 0Z" id="p217w190" />
<path d="M537.84 651.01l30.19 0l0 14.52l-30.19 0Z" id="p217w191" />
<path d="M571.24 651.01l13.9 0l0 14.52l-13.9 0Z" id="p217w192" />
<path d="M417.48 667.68l62.92 0l0 14.52l-62.92 0Z" id="p217w193" />
<path d="M59.08 685.75l38.96 0l0 14.6l-38.96 0Z" id="p217w194" />
<path d="M101.34 684.51l37.25 0l0 16.35l-37.25 0Z" id="p217w195" />
<path d="M64.98 711.39l38.96 0l0 14.6l-38.96 0Z" id="p217w196" />
<path d="M107.16 711.46l24.59 0l0 14.52l-24.59 0Z" id="p217w197" />
<path d="M134.95 711.46l56.35 0l0 14.52l-56.35 0Z" id="p217w198" />
<path d="M194.51 711.46l19.77 0l0 14.52l-19.77 0Z" id="p217w199" />
<path d="M217.49 711.39l19.19 0l0 14.6l-19.19 0Z" id="p217w200" />
<path d="M243.09 711.46l9.62 0l0 14.52l-9.62 0Z" id="p217w201" />
<path d="M255.92 711.46l24.06 0l0 14.52l-24.06 0Z" id="p217w202" />
<path d="M279.99 711.39l9.08 0l0 14.6l-9.08 0Z" id="p217w203" />
<path d="M294.95 711.46l11.5 0l0 14.52l-11.5 0Z" id="p217w204" />
<path d="M309.66 711.46l24.06 0l0 14.52l-24.06 0Z" id="p217w205" />
<path d="M333.72 711.39l9.08 0l0 14.6l-9.08 0Z" id="p217w206" />
<path d="M64.98 728.13l50.26 0l0 14.52l-50.26 0Z" id="p217w207" />
<path d="M118.46 728.13l24.06 0l0 14.52l-24.06 0Z" id="p217w208" />
<path d="M142.52 728.06l8.03 0l0 14.6l-8.03 0Z" id="p217w209" />
<path d="M156.43 728.13l26.74 0l0 14.52l-26.74 0Z" id="p217w210" />
<path d="M186.38 728.13l24.06 0l0 14.52l-24.06 0Z" id="p217w211" />
<path d="M210.44 728.06l23.24 0l0 14.6l-23.24 0Z" id="p217w212" />
<path d="M239.57 728.13l25.67 0l0 14.52l-25.67 0Z" id="p217w213" />
<path d="M268.45 728.13l24.06 0l0 14.52l-24.06 0Z" id="p217w214" />
<path d="M292.51 728.06l15.71 0l0 14.6l-15.71 0Z" id="p217w215" />
<path d="M64.98 744.8l42.36 0l0 14.52l-42.36 0Z" id="p217w216" />
<path d="M110.55 744.8l24.06 0l0 14.52l-24.06 0Z" id="p217w217" />
<path d="M134.61 744.73l21.92 0l0 14.6l-21.92 0Z" id="p217w218" />
<path d="M165.85 744.73l30.74 0l0 14.68l-30.74 0Z" id="p217w219" />
<path d="M199.8 744.73l47.06 0l0 14.68l-47.06 0Z" id="p217w220" />
<path d="M256.7 744.8l14.8 0l0 14.52l-14.8 0Z" id="p217w221" />
<path d="M274.71 744.8l24.06 0l0 14.52l-24.06 0Z" id="p217w222" />
<path d="M232.37 685.82l40.1 0l0 14.52l-40.1 0Z" id="p217w223" />
<path d="M435.7 685.77l14.16 0l0 14.61l-14.16 0Z" id="p217w224" />
<path d="M453.07 685.77l21.65 0l0 14.61l-21.65 0Z" id="p217w225" />
<path d="M477.76 685.77l18.97 0l0 14.61l-18.97 0Z" id="p217w226" />
<path d="M68.97 773.33l10.03 0l0 14.6l-10.03 0Z" id="p217w227" />
<path d="M82.21 773.33l46.96 0l0 14.6l-46.96 0Z" id="p217w228" />
<path d="M132.38 773.33l40.01 0l0 14.6l-40.01 0Z" id="p217w229" />
<path d="M59.07 788.76l98.61 0l0 16.35l-98.61 0Z" id="p217w230" />
<path d="M232.37 773.41l10.43 0l0 14.52l-10.43 0Z" id="p217w231" />
<path d="M246 773.41l36.07 0l0 14.52l-36.07 0Z" id="p217w232" />
<path d="M285.28 773.41l39.56 0l0 14.52l-39.56 0Z" id="p217w233" />
<path d="M417.47 773.41l49.75 0l0 14.52l-49.75 0Z" id="p217w234" />
<path d="M470.43 773.41l33.05 0l0 14.52l-33.05 0Z" id="p217w235" />
<path d="M506.69 773.41l20.85 0l0 14.52l-20.85 0Z" id="p217w236" />
<path d="M530.75 773.41l11.5 0l0 14.52l-11.5 0Z" id="p217w237" />
<path d="M545.45 773.41l19.77 0l0 14.52l-19.77 0Z" id="p217w238" />
<path d="M568.43 773.41l22.99 0l0 14.52l-22.99 0Z" id="p217w239" />
<path d="M417.47 790.08l9.89 0l0 14.52l-9.89 0Z" id="p217w240" />
<path d="M430.57 790.08l46.77 0l0 14.52l-46.77 0Z" id="p217w241" />
<path d="M480.54 790.08l39.56 0l0 14.52l-39.56 0Z" id="p217w242" />
<path d="M59.07 808.15l20.99 0l0 14.6l-20.99 0Z" id="p217w243" />
<path d="M83.27 808.15l52.65 0l0 14.6l-52.65 0Z" id="p217w244" />
<path d="M139.22 806.91l60.86 0l0 16.35l-60.86 0Z" id="p217w245" />
<path d="M232.37 808.23l23.79 0l0 14.52l-23.79 0Z" id="p217w246" />
<path d="M259.36 808.23l44.03 0l0 14.52l-44.03 0Z" id="p217w247" />
<path d="M435.7 808.17l57.13 0l0 14.61l-57.13 0Z" id="p217w248" />
<path d="M496.04 808.17l12.83 0l0 14.61l-12.83 0Z" id="p217w249" />
<path d="M62.41 828.9l56.27 0l0 14.6l-56.27 0Z" id="p217w250" />
<path d="M139.8 827.66l39.29 0l0 16.35l-39.29 0Z" id="p217w251" />
<path d="M232.37 828.94l19.51 0l0 14.52l-19.51 0Z" id="p217w252" />
<path d="M255.08 828.94l78.77 0l0 14.52l-78.77 0Z" id="p217w253" />
<path d="M59.07 849.57l66.46 0l0 14.6l-66.46 0Z" id="p217w254" />
<path d="M128.83 848.33l67.8 0l0 16.35l-67.8 0Z" id="p217w255" />
<path d="M232.37 849.65l88.18 0l0 14.52l-88.18 0Z" id="p217w256" />
<path d="M232.37 866.32l106.86 0l0 14.52l-106.86 0Z" id="p217w257" />
<path d="M417.47 849.65l18.44 0l0 14.52l-18.44 0Z" id="p217w258" />
<path d="M439.12 849.65l51.52 0l0 14.52l-51.52 0Z" id="p217w259" />
<path d="M493.85 849.65l24.33 0l0 14.52l-24.33 0Z" id="p217w260" />
<path d="M521.38 849.65l21.37 0l0 14.52l-21.37 0Z" id="p217w261" />
<path d="M545.96 849.65l35.37 0l0 14.52l-35.37 0Z" id="p217w262" />
<path d="M59.07 884.39l33.94 0l0 14.6l-33.94 0Z" id="p217w263" />
<path d="M96.31 883.15l36.55 0l0 16.35l-36.55 0Z" id="p217w264" />
<path d="M232.37 884.47l27.59 0l0 14.52l-27.59 0Z" id="p217w265" />
<path d="M263.16 884.47l48.64 0l0 14.52l-48.64 0Z" id="p217w266" />
<path d="M59.07 905.1l20.99 0l0 14.6l-20.99 0Z" id="p217w267" />
<path d="M83.27 905.1l36.07 0l0 14.6l-36.07 0Z" id="p217w268" />
<path d="M122.64 903.86l44.79 0l0 16.35l-44.79 0Z" id="p217w269" />
<path d="M232.37 905.18l23.79 0l0 14.52l-23.79 0Z" id="p217w270" />
<path d="M259.36 905.18l84.12 0l0 14.52l-84.12 0Z" id="p217w271" />
<path d="M417.47 905.18l10.43 0l0 14.52l-10.43 0Z" id="p217w272" />
<path d="M431.11 905.18l13.9 0l0 14.52l-13.9 0Z" id="p217w273" />
<path d="M448.22 905.18l35.56 0l0 14.52l-35.56 0Z" id="p217w274" />
<path d="M486.98 905.18l19.51 0l0 14.52l-19.51 0Z" id="p217w275" />
<path d="M509.7 905.18l13.9 0l0 14.52l-13.9 0Z" id="p217w276" />
<path d="M526.8 905.18l36.89 0l0 14.52l-36.89 0Z" id="p217w277" />
<path d="M566.9 905.18l25.67 0l0 14.52l-25.67 0Z" id="p217w278" />
<path d="M595.78 905.18l23.24 0l0 14.52l-23.24 0Z" id="p217w279" />
<path d="M417.47 921.85l44.9 0l0 14.52l-44.9 0Z" id="p217w280" />
</svg>
