<?xml version="1.0" encoding="UTF-8"?>
<svg xmlns="http://www.w3.org/2000/svg" xmlns:xlink="http://www.w3.org/1999/xlink" version="1.1" baseProfile="full" width="768" height="1024" viewBox="0,0,768,1024" preserveAspectRatio="xMinYMin meet" >
<style type="text/css">
<![CDATA[
path {fill-opacity: 0.5;fill: #00aeef;visibility: hidden;}
]]>
</style>
<path d="M572.94 38.6l71 0l0 16.09l-71 0Z" id="p183w1" />
<path d="M592.93 983.66l96.3 0l0 12.23l-96.3 0Z" id="p183w2" />
<path d="M59.08 110.01l14.31 0l0 14.6l-14.31 0Z" id="p183w3" />
<path d="M76.59 110.01l23.53 0l0 14.6l-23.53 0Z" id="p183w4" />
<path d="M100.13 110.01l20.99 0l0 14.6l-20.99 0Z" id="p183w5" />
<path d="M124.32 110.01l24.7 0l0 14.6l-24.7 0Z" id="p183w6" />
<path d="M152.32 108.77l56.18 0l0 16.35l-56.18 0Z" id="p183w7" />
<path d="M232.37 110.09l17.11 0l0 14.52l-17.11 0Z" id="p183w8" />
<path d="M252.25 110.09l62.16 0l0 14.52l-62.16 0Z" id="p183w9" />
<path d="M232.37 126.76l23.79 0l0 14.52l-23.79 0Z" id="p183w10" />
<path d="M258.93 126.76l52.67 0l0 14.52l-52.67 0Z" id="p183w11" />
<path d="M59.08 144.83l25.65 0l0 14.6l-25.65 0Z" id="p183w12" />
<path d="M87.93 144.83l10.02 0l0 14.6l-10.02 0Z" id="p183w13" />
<path d="M101.16 144.83l18.43 0l0 14.6l-18.43 0Z" id="p183w14" />
<path d="M122.88 143.59l45.62 0l0 16.35l-45.62 0Z" id="p183w15" />
<path d="M232.37 144.91l38.77 0l0 14.52l-38.77 0Z" id="p183w16" />
<path d="M274.34 144.91l44.64 0l0 14.52l-44.64 0Z" id="p183w17" />
<path d="M417.48 144.91l36.63 0l0 14.52l-36.63 0Z" id="p183w18" />
<path d="M457.31 144.91l25.13 0l0 14.52l-25.13 0Z" id="p183w19" />
<path d="M485.65 144.91l26.72 0l0 14.52l-26.72 0Z" id="p183w20" />
<path d="M515.58 144.91l18.7 0l0 14.52l-18.7 0Z" id="p183w21" />
<path d="M537.49 144.91l9.89 0l0 14.52l-9.89 0Z" id="p183w22" />
<path d="M550.58 144.91l20.87 0l0 14.52l-20.87 0Z" id="p183w23" />
<path d="M574.66 144.91l23.24 0l0 14.52l-23.24 0Z" id="p183w24" />
<path d="M601.11 144.91l42.49 0l0 14.52l-42.49 0Z" id="p183w25" />
<path d="M417.48 161.58l24.33 0l0 14.52l-24.33 0Z" id="p183w26" />
<path d="M445.01 161.58l13.9 0l0 14.52l-13.9 0Z" id="p183w27" />
<path d="M462.12 161.58l36.63 0l0 14.52l-36.63 0Z" id="p183w28" />
<path d="M59.08 179.65l42.25 0l0 14.6l-42.25 0Z" id="p183w29" />
<path d="M104.63 178.41l41.38 0l0 16.35l-41.38 0Z" id="p183w30" />
<path d="M232.37 179.73l34.21 0l0 14.52l-34.21 0Z" id="p183w31" />
<path d="M428.43 179.73l63.66 0l0 14.52l-63.66 0Z" id="p183w32" />
<path d="M495.3 179.73l9.89 0l0 14.52l-9.89 0Z" id="p183w33" />
<path d="M508.39 179.73l33.67 0l0 14.52l-33.67 0Z" id="p183w34" />
<path d="M545.27 179.73l13.9 0l0 14.52l-13.9 0Z" id="p183w35" />
<path d="M562.38 179.73l31.28 0l0 14.52l-31.28 0Z" id="p183w36" />
<path d="M417.48 196.4l41.71 0l0 14.52l-41.71 0Z" id="p183w37" />
<path d="M462.4 196.4l29.39 0l0 14.52l-29.39 0Z" id="p183w38" />
<path d="M495 196.4l9.89 0l0 14.52l-9.89 0Z" id="p183w39" />
<path d="M508.09 196.4l61.75 0l0 14.52l-61.75 0Z" id="p183w40" />
<path d="M59.08 214.47l14.31 0l0 14.6l-14.31 0Z" id="p183w41" />
<path d="M76.59 214.47l61.76 0l0 14.6l-61.76 0Z" id="p183w42" />
<path d="M141.65 213.23l56.14 0l0 16.35l-56.14 0Z" id="p183w43" />
<path d="M232.37 214.55l17.11 0l0 14.52l-17.11 0Z" id="p183w44" />
<path d="M252.68 214.55l76.71 0l0 14.52l-76.71 0Z" id="p183w45" />
<path d="M417.48 214.55l10.43 0l0 14.52l-10.43 0Z" id="p183w46" />
<path d="M431.11 214.55l21.48 0l0 14.52l-21.48 0Z" id="p183w47" />
<path d="M455.8 214.55l13.63 0l0 14.52l-13.63 0Z" id="p183w48" />
<path d="M472.64 214.55l61.65 0l0 14.52l-61.65 0Z" id="p183w49" />
<path d="M537.5 214.55l25.67 0l0 14.52l-25.67 0Z" id="p183w50" />
<path d="M566.38 214.55l25.38 0l0 14.52l-25.38 0Z" id="p183w51" />
<path d="M417.48 231.22l14.18 0l0 14.52l-14.18 0Z" id="p183w52" />
<path d="M434.86 231.22l54.49 0l0 14.52l-54.49 0Z" id="p183w53" />
<path d="M59.08 249.29l41.43 0l0 14.6l-41.43 0Z" id="p183w54" />
<path d="M103.81 248.05l35.59 0l0 16.35l-35.59 0Z" id="p183w55" />
<path d="M232.37 249.37l43.81 0l0 14.52l-43.81 0Z" id="p183w56" />
<path d="M279.39 249.37l74.31 0l0 14.52l-74.31 0Z" id="p183w57" />
<path d="M417.48 249.37l18.44 0l0 14.52l-18.44 0Z" id="p183w58" />
<path d="M439.12 249.37l35 0l0 14.52l-35 0Z" id="p183w59" />
<path d="M477.34 249.37l18.72 0l0 14.52l-18.72 0Z" id="p183w60" />
<path d="M499.26 249.37l29.39 0l0 14.52l-29.39 0Z" id="p183w61" />
<path d="M531.86 249.37l9.89 0l0 14.52l-9.89 0Z" id="p183w62" />
<path d="M544.96 249.37l32.6 0l0 14.52l-32.6 0Z" id="p183w63" />
<path d="M580.77 249.37l39.57 0l0 14.52l-39.57 0Z" id="p183w64" />
<path d="M417.48 266.04l43.85 0l0 14.52l-43.85 0Z" id="p183w65" />
<path d="M464.53 266.04l12.02 0l0 14.52l-12.02 0Z" id="p183w66" />
<path d="M479.77 266.04l18.72 0l0 14.52l-18.72 0Z" id="p183w67" />
<path d="M501.69 266.04l18.7 0l0 14.52l-18.7 0Z" id="p183w68" />
<path d="M523.6 266.04l14.18 0l0 14.52l-14.18 0Z" id="p183w69" />
<path d="M540.98 266.04l68.9 0l0 14.52l-68.9 0Z" id="p183w70" />
<path d="M59.08 284.11l58.59 0l0 14.6l-58.59 0Z" id="p183w71" />
<path d="M120.97 282.87l38.66 0l0 16.35l-38.66 0Z" id="p183w72" />
<path d="M232.37 284.22l26.94 0l0 14.52l-26.94 0Z" id="p183w73" />
<path d="M276.42 284.19l44.1 0l0 14.52l-44.1 0Z" id="p183w74" />
<path d="M417.48 284.19l10.43 0l0 14.52l-10.43 0Z" id="p183w75" />
<path d="M431.06 284.19l21.38 0l0 14.52l-21.38 0Z" id="p183w76" />
<path d="M455.59 284.19l28.05 0l0 14.52l-28.05 0Z" id="p183w77" />
<path d="M496.62 284.19l9.89 0l0 14.52l-9.89 0Z" id="p183w78" />
<path d="M509.65 284.19l40.63 0l0 14.52l-40.63 0Z" id="p183w79" />
<path d="M553.43 284.19l29.67 0l0 14.52l-29.67 0Z" id="p183w80" />
<path d="M586.25 284.19l9.89 0l0 14.52l-9.89 0Z" id="p183w81" />
<path d="M599.29 284.19l44.65 0l0 14.52l-44.65 0Z" id="p183w82" />
<path d="M59.08 304.82l65.39 0l0 14.6l-65.39 0Z" id="p183w83" />
<path d="M127.77 303.58l43.58 0l0 16.35l-43.58 0Z" id="p183w84" />
<path d="M232.37 304.93l19.77 0l0 14.52l-19.77 0Z" id="p183w85" />
<path d="M269.25 304.9l44.1 0l0 14.52l-44.1 0Z" id="p183w86" />
<path d="M319.46 304.93l17.11 0l0 14.52l-17.11 0Z" id="p183w87" />
<path d="M339.77 304.93l40.84 0l0 14.52l-40.84 0Z" id="p183w88" />
<path d="M417.48 304.9l15.77 0l0 14.52l-15.77 0Z" id="p183w89" />
<path d="M446.34 304.9l29.39 0l0 14.52l-29.39 0Z" id="p183w90" />
<path d="M478.95 304.9l24.06 0l0 14.52l-24.06 0Z" id="p183w91" />
<path d="M506.22 304.9l15.5 0l0 14.52l-15.5 0Z" id="p183w92" />
<path d="M524.92 304.9l42.49 0l0 14.52l-42.49 0Z" id="p183w93" />
<path d="M417.48 321.57l13.9 0l0 14.52l-13.9 0Z" id="p183w94" />
<path d="M434.58 321.57l63.4 0l0 14.52l-63.4 0Z" id="p183w95" />
<path d="M59.08 339.64l138.24 0l0 14.6l-138.24 0Z" id="p183w96" />
<path d="M59.08 355.07l96.42 0l0 16.35l-96.42 0Z" id="p183w97" />
<path d="M232.37 339.72l62.53 0l0 14.52l-62.53 0Z" id="p183w98" />
<path d="M417.48 339.72l10.43 0l0 14.52l-10.43 0Z" id="p183w99" />
<path d="M431.11 339.72l35.56 0l0 14.52l-35.56 0Z" id="p183w100" />
<path d="M469.88 339.72l28.33 0l0 14.52l-28.33 0Z" id="p183w101" />
<path d="M501.41 339.72l57.48 0l0 14.52l-57.48 0Z" id="p183w102" />
<path d="M562.1 339.72l21.37 0l0 14.52l-21.37 0Z" id="p183w103" />
<path d="M417.48 356.39l71.88 0l0 14.52l-71.88 0Z" id="p183w104" />
<path d="M435.7 373.08l55.31 0l0 14.61l-55.31 0Z" id="p183w105" />
<path d="M59.07 391.14l80.29 0l0 14.6l-80.29 0Z" id="p183w106" />
<path d="M59.07 406.57l75.49 0l0 16.35l-75.49 0Z" id="p183w107" />
<path d="M232.37 391.21l33.47 0l0 14.52l-33.47 0Z" id="p183w108" />
<path d="M269.05 391.21l37.05 0l0 14.52l-37.05 0Z" id="p183w109" />
<path d="M309.31 391.21l51.99 0l0 14.52l-51.99 0Z" id="p183w110" />
<path d="M417.47 391.21l63.66 0l0 14.52l-63.66 0Z" id="p183w111" />
<path d="M484.34 391.21l24.85 0l0 14.52l-24.85 0Z" id="p183w112" />
<path d="M512.4 391.21l36.83 0l0 14.52l-36.83 0Z" id="p183w113" />
<path d="M417.47 407.9l31.8 0l0 14.61l-31.8 0Z" id="p183w114" />
<path d="M452.48 407.9l17.83 0l0 14.61l-17.83 0Z" id="p183w115" />
<path d="M473.52 407.9l21.12 0l0 14.61l-21.12 0Z" id="p183w116" />
<path d="M497.84 407.9l35.03 0l0 14.61l-35.03 0Z" id="p183w117" />
<path d="M536.08 407.9l19.51 0l0 14.61l-19.51 0Z" id="p183w118" />
<path d="M558.8 407.9l29.39 0l0 14.61l-29.39 0Z" id="p183w119" />
<path d="M591.4 407.82l46.67 0l0 14.6l-46.67 0Z" id="p183w120" />
<path d="M417.47 424.57l19.51 0l0 14.61l-19.51 0Z" id="p183w121" />
<path d="M440.19 424.57l42.44 0l0 14.61l-42.44 0Z" id="p183w122" />
<path d="M485.83 424.49l44.24 0l0 14.6l-44.24 0Z" id="p183w123" />
<path d="M59.07 442.63l49.87 0l0 14.6l-49.87 0Z" id="p183w124" />
<path d="M122.05 442.63l14.41 0l0 14.6l-14.41 0Z" id="p183w125" />
<path d="M139.67 442.63l13.87 0l0 14.6l-13.87 0Z" id="p183w126" />
<path d="M156.75 442.63l25.65 0l0 14.6l-25.65 0Z" id="p183w127" />
<path d="M185.6 442.63l12.67 0l0 14.6l-12.67 0Z" id="p183w128" />
<path d="M59.07 458.06l54.51 0l0 16.35l-54.51 0Z" id="p183w129" />
<path d="M232.37 442.71l23.8 0l0 14.52l-23.8 0Z" id="p183w130" />
<path d="M259.37 442.71l67.3 0l0 14.52l-67.3 0Z" id="p183w131" />
<path d="M329.88 442.71l23.09 0l0 14.52l-23.09 0Z" id="p183w132" />
<path d="M356.18 442.71l12.84 0l0 14.52l-12.84 0Z" id="p183w133" />
<path d="M232.37 459.38l18.72 0l0 14.52l-18.72 0Z" id="p183w134" />
<path d="M59.07 477.45l13.9 0l0 14.6l-13.9 0Z" id="p183w135" />
<path d="M76.18 477.45l25.69 0l0 14.6l-25.69 0Z" id="p183w136" />
<path d="M105.17 476.21l22.94 0l0 16.35l-22.94 0Z" id="p183w137" />
<path d="M232.37 477.53l30.98 0l0 14.52l-30.98 0Z" id="p183w138" />
<path d="M266.55 477.53l27.01 0l0 14.52l-27.01 0Z" id="p183w139" />
<path d="M296.77 477.53l28.07 0l0 14.52l-28.07 0Z" id="p183w140" />
<path d="M417.47 477.53l15.77 0l0 14.52l-15.77 0Z" id="p183w141" />
<path d="M436.45 477.53l12.66 0l0 14.52l-12.66 0Z" id="p183w142" />
<path d="M452.32 477.53l13.9 0l0 14.52l-13.9 0Z" id="p183w143" />
<path d="M469.43 477.53l25.4 0l0 14.52l-25.4 0Z" id="p183w144" />
<path d="M439.15 494.21l17.91 0l0 14.61l-17.91 0Z" id="p183w145" />
<path d="M460.27 494.13l13.11 0l0 14.68l-13.11 0Z" id="p183w146" />
<path d="M476.58 494.13l25.01 0l0 14.68l-25.01 0Z" id="p183w147" />
<path d="M504.8 494.21l34.94 0l0 14.61l-34.94 0Z" id="p183w148" />
<path d="M542.95 494.21l24.79 0l0 14.61l-24.79 0Z" id="p183w149" />
<path d="M570.94 494.13l30.62 0l0 14.6l-30.62 0Z" id="p183w150" />
<path d="M604.77 494.13l35.27 0l0 14.68l-35.27 0Z" id="p183w151" />
<path d="M59.07 512.26l53.29 0l0 14.6l-53.29 0Z" id="p183w152" />
<path d="M122.97 511.02l40.27 0l0 16.35l-40.27 0Z" id="p183w153" />
<path d="M232.37 512.34l53.38 0l0 14.52l-53.38 0Z" id="p183w154" />
<path d="M288.52 512.34l48.4 0l0 14.52l-48.4 0Z" id="p183w155" />
<path d="M435.2 516.66l51.25 0l0 14.61l-51.25 0Z" id="p183w156" />
<path d="M59.08 534.71l20.99 0l0 14.6l-20.99 0Z" id="p183w157" />
<path d="M83.27 534.71l41.6 0l0 14.6l-41.6 0Z" id="p183w158" />
<path d="M128.17 533.47l50.41 0l0 16.35l-50.41 0Z" id="p183w159" />
<path d="M232.37 534.79l23.79 0l0 14.52l-23.79 0Z" id="p183w160" />
<path d="M259.36 534.79l29.41 0l0 14.52l-29.41 0Z" id="p183w161" />
<path d="M435.7 534.73l46.16 0l0 14.61l-46.16 0Z" id="p183w162" />
<path d="M59.07 555.42l55.16 0l0 14.6l-55.16 0Z" id="p183w163" />
<path d="M124.85 554.18l38.03 0l0 16.35l-38.03 0Z" id="p183w164" />
<path d="M232.37 555.5l30.83 0l0 14.52l-30.83 0Z" id="p183w165" />
<path d="M266.41 555.5l38.77 0l0 14.52l-38.77 0Z" id="p183w166" />
<path d="M308.38 555.5l30.74 0l0 14.52l-30.74 0Z" id="p183w167" />
<path d="M342.33 555.5l14.97 0l0 14.52l-14.97 0Z" id="p183w168" />
<path d="M232.37 572.17l29.94 0l0 14.52l-29.94 0Z" id="p183w169" />
<path d="M265.51 572.17l43.08 0l0 14.52l-43.08 0Z" id="p183w170" />
<path d="M435.7 555.44l58.7 0l0 14.61l-58.7 0Z" id="p183w171" />
<path d="M59.07 590.25l14.31 0l0 14.6l-14.31 0Z" id="p183w172" />
<path d="M76.59 590.25l55.95 0l0 14.6l-55.95 0Z" id="p183w173" />
<path d="M135.84 589.01l62.16 0l0 16.35l-62.16 0Z" id="p183w174" />
<path d="M232.37 590.33l17.11 0l0 14.52l-17.11 0Z" id="p183w175" />
<path d="M252.68 590.33l41.88 0l0 14.52l-41.88 0Z" id="p183w176" />
<path d="M297.77 590.33l17.11 0l0 14.52l-17.11 0Z" id="p183w177" />
<path d="M318.08 590.33l52.12 0l0 14.52l-52.12 0Z" id="p183w178" />
<path d="M417.47 590.33l10.43 0l0 14.52l-10.43 0Z" id="p183w179" />
<path d="M431.11 590.33l40.61 0l0 14.52l-40.61 0Z" id="p183w180" />
<path d="M474.93 590.33l44.1 0l0 14.52l-44.1 0Z" id="p183w181" />
<path d="M522.24 590.33l62.39 0l0 14.52l-62.39 0Z" id="p183w182" />
<path d="M59.07 610.96l19.73 0l0 14.6l-19.73 0Z" id="p183w183" />
<path d="M89.42 609.72l19.9 0l0 16.35l-19.9 0Z" id="p183w184" />
<path d="M232.37 611.04l20.33 0l0 14.52l-20.33 0Z" id="p183w185" />
<path d="M59.07 631.67l23.4 0l0 14.6l-23.4 0Z" id="p183w186" />
<path d="M85.68 631.67l10.02 0l0 14.6l-10.02 0Z" id="p183w187" />
<path d="M98.91 631.67l35.29 0l0 14.6l-35.29 0Z" id="p183w188" />
<path d="M137.5 630.43l50.69 0l0 16.35l-50.69 0Z" id="p183w189" />
<path d="M232.37 631.75l17.11 0l0 14.52l-17.11 0Z" id="p183w190" />
<path d="M252.68 631.75l33.62 0l0 14.52l-33.62 0Z" id="p183w191" />
<path d="M289.51 631.75l21.11 0l0 14.52l-21.11 0Z" id="p183w192" />
<path d="M59.07 652.38l53.48 0l0 14.6l-53.48 0Z" id="p183w193" />
<path d="M115.86 651.14l48.24 0l0 16.35l-48.24 0Z" id="p183w194" />
<path d="M64.98 678.03l53.48 0l0 14.6l-53.48 0Z" id="p183w195" />
<path d="M121.68 678.1l24.59 0l0 14.52l-24.59 0Z" id="p183w196" />
<path d="M149.47 678.1l56.35 0l0 14.52l-56.35 0Z" id="p183w197" />
<path d="M209.03 678.1l19.77 0l0 14.52l-19.77 0Z" id="p183w198" />
<path d="M232.01 678.03l42.18 0l0 14.6l-42.18 0Z" id="p183w199" />
<path d="M277.4 678.1l21.4 0l0 14.52l-21.4 0Z" id="p183w200" />
<path d="M302 678.03l34.69 0l0 14.6l-34.69 0Z" id="p183w201" />
<path d="M64.98 694.77l9.62 0l0 14.52l-9.62 0Z" id="p183w202" />
<path d="M77.81 694.77l40.9 0l0 14.52l-40.9 0Z" id="p183w203" />
<path d="M134.62 694.77l11.5 0l0 14.52l-11.5 0Z" id="p183w204" />
<path d="M149.33 694.77l34.49 0l0 14.52l-34.49 0Z" id="p183w205" />
<path d="M187.16 694.77l14.97 0l0 14.52l-14.97 0Z" id="p183w206" />
<path d="M205.33 694.77l50.26 0l0 14.52l-50.26 0Z" id="p183w207" />
<path d="M258.8 694.77l35.56 0l0 14.52l-35.56 0Z" id="p183w208" />
<path d="M310.27 694.77l26.74 0l0 14.52l-26.74 0Z" id="p183w209" />
<path d="M340.22 694.77l26.74 0l0 14.52l-26.74 0Z" id="p183w210" />
<path d="M64.98 711.44l56.43 0l0 14.52l-56.43 0Z" id="p183w211" />
<path d="M124.62 711.44l25.67 0l0 14.52l-25.67 0Z" id="p183w212" />
<path d="M153.5 711.44l25.67 0l0 14.52l-25.67 0Z" id="p183w213" />
<path d="M182.38 711.44l49.21 0l0 14.52l-49.21 0Z" id="p183w214" />
<path d="M234.79 711.44l42.36 0l0 14.52l-42.36 0Z" id="p183w215" />
<path d="M280.36 711.44l35.56 0l0 14.52l-35.56 0Z" id="p183w216" />
<path d="M319.26 711.44l18.44 0l0 14.52l-18.44 0Z" id="p183w217" />
<path d="M232.37 652.46l21.92 0l0 14.52l-21.92 0Z" id="p183w218" />
<path d="M257.5 652.46l61.14 0l0 14.52l-61.14 0Z" id="p183w219" />
<path d="M417.47 652.46l26.2 0l0 14.52l-26.2 0Z" id="p183w220" />
<path d="M446.88 652.46l23.24 0l0 14.52l-23.24 0Z" id="p183w221" />
<path d="M473.33 652.46l45.46 0l0 14.52l-45.46 0Z" id="p183w222" />
<path d="M522 652.46l9.62 0l0 14.52l-9.62 0Z" id="p183w223" />
<path d="M534.83 652.46l13.9 0l0 14.52l-13.9 0Z" id="p183w224" />
<path d="M551.93 652.46l50.79 0l0 14.52l-50.79 0Z" id="p183w225" />
<path d="M417.47 669.14l38.75 0l0 14.52l-38.75 0Z" id="p183w226" />
<path d="M59.07 738.7l101.17 0l0 14.6l-101.17 0Z" id="p183w227" />
<path d="M59.07 754.13l79.02 0l0 16.35l-79.02 0Z" id="p183w228" />
<path d="M232.37 738.77l70.76 0l0 14.52l-70.76 0Z" id="p183w229" />
<path d="M417.47 738.77l40.89 0l0 14.52l-40.89 0Z" id="p183w230" />
<path d="M461.57 738.77l35.28 0l0 14.52l-35.28 0Z" id="p183w231" />
<path d="M500.06 738.77l15.5 0l0 14.52l-15.5 0Z" id="p183w232" />
<path d="M518.76 738.77l50.25 0l0 14.52l-50.25 0Z" id="p183w233" />
<path d="M572.22 738.77l24.85 0l0 14.52l-24.85 0Z" id="p183w234" />
<path d="M417.47 755.45l44.3 0l0 14.52l-44.3 0Z" id="p183w235" />
<path d="M435.7 772.14l90.44 0l0 14.61l-90.44 0Z" id="p183w236" />
<path d="M59.07 790.2l65.1 0l0 14.6l-65.1 0Z" id="p183w237" />
<path d="M137.28 790.2l25.65 0l0 14.6l-25.65 0Z" id="p183w238" />
<path d="M166.13 790.2l12.67 0l0 14.6l-12.67 0Z" id="p183w239" />
<path d="M59.07 805.63l50.84 0l0 16.35l-50.84 0Z" id="p183w240" />
<path d="M232.37 790.28l53.13 0l0 14.52l-53.13 0Z" id="p183w241" />
<path d="M288.7 790.28l23.08 0l0 14.52l-23.08 0Z" id="p183w242" />
<path d="M314.99 790.28l12.84 0l0 14.52l-12.84 0Z" id="p183w243" />
<path d="M331.04 790.28l18.72 0l0 14.52l-18.72 0Z" id="p183w244" />
<path d="M417.47 790.28l36.63 0l0 14.52l-36.63 0Z" id="p183w245" />
<path d="M457.31 790.28l33.05 0l0 14.52l-33.05 0Z" id="p183w246" />
<path d="M493.57 790.28l20.85 0l0 14.52l-20.85 0Z" id="p183w247" />
<path d="M517.63 790.28l11.5 0l0 14.52l-11.5 0Z" id="p183w248" />
<path d="M532.33 790.28l12.29 0l0 14.52l-12.29 0Z" id="p183w249" />
<path d="M547.83 790.28l61.22 0l0 14.52l-61.22 0Z" id="p183w250" />
<path d="M417.47 806.95l25.38 0l0 14.52l-25.38 0Z" id="p183w251" />
<path d="M446.06 806.95l13.9 0l0 14.52l-13.9 0Z" id="p183w252" />
<path d="M463.17 806.95l9.89 0l0 14.52l-9.89 0Z" id="p183w253" />
<path d="M476.26 806.95l39.76 0l0 14.52l-39.76 0Z" id="p183w254" />
<path d="M432.86 823.63l39.85 0l0 14.61l-39.85 0Z" id="p183w255" />
<path d="M483.32 823.63l14.97 0l0 14.61l-14.97 0Z" id="p183w256" />
<path d="M59.08 841.69l25.65 0l0 14.6l-25.65 0Z" id="p183w257" />
<path d="M87.93 841.69l52.57 0l0 14.6l-52.57 0Z" id="p183w258" />
<path d="M143.71 841.69l18.11 0l0 14.6l-18.11 0Z" id="p183w259" />
<path d="M165.03 841.69l25.65 0l0 14.6l-25.65 0Z" id="p183w260" />
<path d="M193.88 841.69l16.91 0l0 14.6l-16.91 0Z" id="p183w261" />
<path d="M59.08 857.12l54.1 0l0 16.35l-54.1 0Z" id="p183w262" />
<path d="M232.37 841.77l12.57 0l0 14.52l-12.57 0Z" id="p183w263" />
<path d="M248.15 841.77l21.4 0l0 14.52l-21.4 0Z" id="p183w264" />
<path d="M272.75 841.77l15.5 0l0 14.52l-15.5 0Z" id="p183w265" />
<path d="M291.45 841.77l14.18 0l0 14.52l-14.18 0Z" id="p183w266" />
<path d="M417.48 841.77l36.63 0l0 14.52l-36.63 0Z" id="p183w267" />
<path d="M457.32 841.77l17.9 0l0 14.52l-17.9 0Z" id="p183w268" />
<path d="M478.42 841.77l42.49 0l0 14.52l-42.49 0Z" id="p183w269" />
<path d="M524.12 841.77l24.33 0l0 14.52l-24.33 0Z" id="p183w270" />
<path d="M551.65 841.77l35.27 0l0 14.52l-35.27 0Z" id="p183w271" />
<path d="M590.13 841.77l26.73 0l0 14.52l-26.73 0Z" id="p183w272" />
<path d="M417.48 858.44l9.89 0l0 14.52l-9.89 0Z" id="p183w273" />
<path d="M430.57 858.44l51.86 0l0 14.52l-51.86 0Z" id="p183w274" />
<path d="M485.21 858.44l27.1 0l0 14.52l-27.1 0Z" id="p183w275" />
<path d="M525.4 858.44l18.7 0l0 14.52l-18.7 0Z" id="p183w276" />
<path d="M547.31 858.44l52.11 0l0 14.52l-52.11 0Z" id="p183w277" />
<path d="M417.48 875.11l13.9 0l0 14.52l-13.9 0Z" id="p183w278" />
<path d="M434.59 875.11l38.78 0l0 14.52l-38.78 0Z" id="p183w279" />
<path d="M59.08 893.18l22.58 0l0 14.6l-22.58 0Z" id="p183w280" />
<path d="M84.87 893.18l14.28 0l0 14.6l-14.28 0Z" id="p183w281" />
<path d="M102.36 893.18l35.35 0l0 14.6l-35.35 0Z" id="p183w282" />
<path d="M140.91 893.18l21.77 0l0 14.6l-21.77 0Z" id="p183w283" />
<path d="M59.08 908.61l81.27 0l0 16.35l-81.27 0Z" id="p183w284" />
<path d="M232.37 893.26l44.57 0l0 14.52l-44.57 0Z" id="p183w285" />
<path d="M280.15 893.26l49.39 0l0 14.52l-49.39 0Z" id="p183w286" />
<path d="M332.75 893.26l22.72 0l0 14.52l-22.72 0Z" id="p183w287" />
<path d="M417.48 893.26l25.13 0l0 14.52l-25.13 0Z" id="p183w288" />
<path d="M445.82 893.26l26.72 0l0 14.52l-26.72 0Z" id="p183w289" />
<path d="M475.74 893.26l11.22 0l0 14.52l-11.22 0Z" id="p183w290" />
<path d="M490.17 893.26l23.8 0l0 14.52l-23.8 0Z" id="p183w291" />
<path d="M517.17 893.26l14.18 0l0 14.52l-14.18 0Z" id="p183w292" />
<path d="M534.56 893.26l25.92 0l0 14.52l-25.92 0Z" id="p183w293" />
<path d="M563.69 893.26l36.07 0l0 14.52l-36.07 0Z" id="p183w294" />
<path d="M417.48 909.93l14.18 0l0 14.52l-14.18 0Z" id="p183w295" />
<path d="M434.86 909.93l35.27 0l0 14.52l-35.27 0Z" id="p183w296" />
<path d="M473.34 909.93l24.33 0l0 14.52l-24.33 0Z" id="p183w297" />
</svg>
