<?xml version="1.0" encoding="UTF-8"?>
<svg xmlns="http://www.w3.org/2000/svg" xmlns:xlink="http://www.w3.org/1999/xlink" version="1.1" baseProfile="full" width="768" height="1024" viewBox="0,0,768,1024" preserveAspectRatio="xMinYMin meet" >
<style type="text/css">
<![CDATA[
path {fill-opacity: 0.5;fill: #00aeef;visibility: hidden;}
]]>
</style>
<path d="M572.94 38.6l71 0l0 16.09l-71 0Z" id="p223w1" />
<path d="M588.72 983.66l100.51 0l0 12.23l-100.51 0Z" id="p223w2" />
<path d="M59.08 110.01l53.81 0l0 14.6l-53.81 0Z" id="p223w3" />
<path d="M116.1 110.01l25.86 0l0 14.6l-25.86 0Z" id="p223w4" />
<path d="M145.16 110.01l12.67 0l0 14.6l-12.67 0Z" id="p223w5" />
<path d="M161.13 108.77l45.02 0l0 16.35l-45.02 0Z" id="p223w6" />
<path d="M64.98 152.33l53.81 0l0 14.6l-53.81 0Z" id="p223w7" />
<path d="M122.01 152.39l24.59 0l0 14.52l-24.59 0Z" id="p223w8" />
<path d="M149.8 152.39l56.35 0l0 14.52l-56.35 0Z" id="p223w9" />
<path d="M209.36 152.39l19.77 0l0 14.52l-19.77 0Z" id="p223w10" />
<path d="M232.34 152.33l43.2 0l0 14.6l-43.2 0Z" id="p223w11" />
<path d="M281.95 152.39l9.62 0l0 14.52l-9.62 0Z" id="p223w12" />
<path d="M294.78 152.39l57.07 0l0 14.52l-57.07 0Z" id="p223w13" />
<path d="M64.98 169.06l26.74 0l0 14.52l-26.74 0Z" id="p223w14" />
<path d="M94.93 169.06l26.74 0l0 14.52l-26.74 0Z" id="p223w15" />
<path d="M124.88 169.06l34.89 0l0 14.52l-34.89 0Z" id="p223w16" />
<path d="M166.45 169.06l22.69 0l0 14.52l-22.69 0Z" id="p223w17" />
<path d="M64.98 185.67l30.74 0l0 14.68l-30.74 0Z" id="p223w18" />
<path d="M98.93 185.67l47.06 0l0 14.68l-47.06 0Z" id="p223w19" />
<path d="M155.84 185.73l9.62 0l0 14.52l-9.62 0Z" id="p223w20" />
<path d="M168.67 185.73l17.63 0l0 14.52l-17.63 0Z" id="p223w21" />
<path d="M189.51 185.73l21.38 0l0 14.52l-21.38 0Z" id="p223w22" />
<path d="M214.1 185.73l56.8 0l0 14.52l-56.8 0Z" id="p223w23" />
<path d="M232.37 110.09l21.92 0l0 14.52l-21.92 0Z" id="p223w24" />
<path d="M257.5 110.09l15.77 0l0 14.52l-15.77 0Z" id="p223w25" />
<path d="M276.48 110.09l23.09 0l0 14.52l-23.09 0Z" id="p223w26" />
<path d="M302.77 110.09l56.63 0l0 14.52l-56.63 0Z" id="p223w27" />
<path d="M232.37 126.76l21.92 0l0 14.52l-21.92 0Z" id="p223w28" />
<path d="M257.5 126.76l63.21 0l0 14.52l-63.21 0Z" id="p223w29" />
<path d="M417.47 110.09l28.25 0l0 14.52l-28.25 0Z" id="p223w30" />
<path d="M445.72 110.09l12.57 0l0 14.52l-12.57 0Z" id="p223w31" />
<path d="M461.49 110.09l90.8 0l0 14.52l-90.8 0Z" id="p223w32" />
<path d="M555.5 110.09l25.67 0l0 14.52l-25.67 0Z" id="p223w33" />
<path d="M584.38 110.09l9.89 0l0 14.52l-9.89 0Z" id="p223w34" />
<path d="M417.47 126.76l49.18 0l0 14.52l-49.18 0Z" id="p223w35" />
<path d="M469.86 126.76l49.05 0l0 14.52l-49.05 0Z" id="p223w36" />
<path d="M522.12 126.76l25.67 0l0 14.52l-25.67 0Z" id="p223w37" />
<path d="M551 126.76l15.5 0l0 14.52l-15.5 0Z" id="p223w38" />
<path d="M569.7 126.76l53.13 0l0 14.52l-53.13 0Z" id="p223w39" />
<path d="M417.47 143.43l29.66 0l0 14.52l-29.66 0Z" id="p223w40" />
<path d="M450.34 143.43l15.5 0l0 14.52l-15.5 0Z" id="p223w41" />
<path d="M469.04 143.43l26.74 0l0 14.52l-26.74 0Z" id="p223w42" />
<path d="M498.99 143.43l28.07 0l0 14.52l-28.07 0Z" id="p223w43" />
<path d="M435.7 160.12l94.69 0l0 14.61l-94.69 0Z" id="p223w44" />
<path d="M59.07 213.67l20.99 0l0 14.6l-20.99 0Z" id="p223w45" />
<path d="M83.27 213.67l44.09 0l0 14.6l-44.09 0Z" id="p223w46" />
<path d="M130.65 212.43l57.42 0l0 16.35l-57.42 0Z" id="p223w47" />
<path d="M232.37 213.75l23.79 0l0 14.52l-23.79 0Z" id="p223w48" />
<path d="M259.36 213.75l43.31 0l0 14.52l-43.31 0Z" id="p223w49" />
<path d="M417.47 213.75l28.07 0l0 14.52l-28.07 0Z" id="p223w50" />
<path d="M448.76 213.75l32.62 0l0 14.52l-32.62 0Z" id="p223w51" />
<path d="M484.58 213.75l18.7 0l0 14.52l-18.7 0Z" id="p223w52" />
<path d="M506.49 213.75l20.85 0l0 14.52l-20.85 0Z" id="p223w53" />
<path d="M530.55 213.75l43.57 0l0 14.52l-43.57 0Z" id="p223w54" />
<path d="M577.33 213.75l25.67 0l0 14.52l-25.67 0Z" id="p223w55" />
<path d="M417.47 230.42l13.9 0l0 14.52l-13.9 0Z" id="p223w56" />
<path d="M434.58 230.42l51.04 0l0 14.52l-51.04 0Z" id="p223w57" />
<path d="M488.83 230.42l30.73 0l0 14.52l-30.73 0Z" id="p223w58" />
<path d="M532.65 230.42l9.89 0l0 14.52l-9.89 0Z" id="p223w59" />
<path d="M545.74 230.42l44.11 0l0 14.52l-44.11 0Z" id="p223w60" />
<path d="M59.07 248.53l14.31 0l0 14.6l-14.31 0Z" id="p223w61" />
<path d="M78.49 248.53l20.99 0l0 14.6l-20.99 0Z" id="p223w62" />
<path d="M102.68 248.53l21.71 0l0 14.6l-21.71 0Z" id="p223w63" />
<path d="M127.6 248.57l29.67 0l0 14.52l-29.67 0Z" id="p223w64" />
<path d="M160.48 248.57l45.71 0l0 14.52l-45.71 0Z" id="p223w65" />
<path d="M59.07 265.24l7.22 0l0 14.52l-7.22 0Z" id="p223w66" />
<path d="M66.29 265.24l12.28 0l0 14.52l-12.28 0Z" id="p223w67" />
<path d="M91.37 265.24l27.53 0l0 14.52l-27.53 0Z" id="p223w68" />
<path d="M122.1 265.24l27.16 0l0 14.52l-27.16 0Z" id="p223w69" />
<path d="M152.46 265.24l64.15 0l0 14.52l-64.15 0Z" id="p223w70" />
<path d="M59.07 280.63l64.62 0l0 16.35l-64.62 0Z" id="p223w71" />
<path d="M232.37 248.57l17.11 0l0 14.52l-17.11 0Z" id="p223w72" />
<path d="M252.68 248.57l74.72 0l0 14.52l-74.72 0Z" id="p223w73" />
<path d="M232.37 265.24l23.79 0l0 14.52l-23.79 0Z" id="p223w74" />
<path d="M259.36 265.24l65.23 0l0 14.52l-65.23 0Z" id="p223w75" />
<path d="M417.47 248.57l23.24 0l0 14.52l-23.24 0Z" id="p223w76" />
<path d="M443.93 248.57l42.49 0l0 14.52l-42.49 0Z" id="p223w77" />
<path d="M489.62 248.57l60.81 0l0 14.52l-60.81 0Z" id="p223w78" />
<path d="M553.64 248.57l26.73 0l0 14.52l-26.73 0Z" id="p223w79" />
<path d="M417.47 265.24l20.85 0l0 14.52l-20.85 0Z" id="p223w80" />
<path d="M441.54 265.24l62.55 0l0 14.52l-62.55 0Z" id="p223w81" />
<path d="M507.3 265.24l17.38 0l0 14.52l-17.38 0Z" id="p223w82" />
<path d="M527.89 265.24l23.79 0l0 14.52l-23.79 0Z" id="p223w83" />
<path d="M554.88 265.24l15.5 0l0 14.52l-15.5 0Z" id="p223w84" />
<path d="M573.58 265.24l23.38 0l0 14.52l-23.38 0Z" id="p223w85" />
<path d="M59.07 300.01l14.31 0l0 14.6l-14.31 0Z" id="p223w86" />
<path d="M76.59 300.01l30.9 0l0 14.6l-30.9 0Z" id="p223w87" />
<path d="M110.79 298.77l36.68 0l0 16.35l-36.68 0Z" id="p223w88" />
<path d="M232.37 300.09l17.11 0l0 14.52l-17.11 0Z" id="p223w89" />
<path d="M252.68 300.09l32.07 0l0 14.52l-32.07 0Z" id="p223w90" />
<path d="M417.47 300.09l25.13 0l0 14.52l-25.13 0Z" id="p223w91" />
<path d="M445.81 300.09l37.17 0l0 14.52l-37.17 0Z" id="p223w92" />
<path d="M486.19 300.09l16.83 0l0 14.52l-16.83 0Z" id="p223w93" />
<path d="M506.23 300.09l14.18 0l0 14.52l-14.18 0Z" id="p223w94" />
<path d="M523.61 300.09l30.94 0l0 14.52l-30.94 0Z" id="p223w95" />
<path d="M417.47 316.76l13.9 0l0 14.52l-13.9 0Z" id="p223w96" />
<path d="M434.58 316.76l75.12 0l0 14.52l-75.12 0Z" id="p223w97" />
<path d="M435.7 333.45l34.12 0l0 14.61l-34.12 0Z" id="p223w98" />
<path d="M59.07 351.51l10.02 0l0 14.6l-10.02 0Z" id="p223w99" />
<path d="M72.3 351.51l23.65 0l0 14.6l-23.65 0Z" id="p223w100" />
<path d="M99.25 350.27l39.86 0l0 16.35l-39.86 0Z" id="p223w101" />
<path d="M232.37 351.59l19.51 0l0 14.52l-19.51 0Z" id="p223w102" />
<path d="M255.08 351.59l25.66 0l0 14.52l-25.66 0Z" id="p223w103" />
<path d="M59.07 372.22l12.42 0l0 14.6l-12.42 0Z" id="p223w104" />
<path d="M74.7 372.22l61.4 0l0 14.6l-61.4 0Z" id="p223w105" />
<path d="M139.31 372.22l25.86 0l0 14.6l-25.86 0Z" id="p223w106" />
<path d="M168.38 372.22l12.67 0l0 14.6l-12.67 0Z" id="p223w107" />
<path d="M59.07 387.65l60.7 0l0 16.35l-60.7 0Z" id="p223w108" />
<path d="M232.37 372.3l21.92 0l0 14.52l-21.92 0Z" id="p223w109" />
<path d="M257.5 372.3l15.77 0l0 14.52l-15.77 0Z" id="p223w110" />
<path d="M276.48 372.3l23.09 0l0 14.52l-23.09 0Z" id="p223w111" />
<path d="M302.77 372.3l59.53 0l0 14.52l-59.53 0Z" id="p223w112" />
<path d="M417.47 372.3l32.06 0l0 14.52l-32.06 0Z" id="p223w113" />
<path d="M452.74 372.3l12.29 0l0 14.52l-12.29 0Z" id="p223w114" />
<path d="M468.24 372.3l56.4 0l0 14.52l-56.4 0Z" id="p223w115" />
<path d="M527.85 372.3l25.67 0l0 14.52l-25.67 0Z" id="p223w116" />
<path d="M556.73 372.3l9.89 0l0 14.52l-9.89 0Z" id="p223w117" />
<path d="M569.82 372.3l17.65 0l0 14.52l-17.65 0Z" id="p223w118" />
<path d="M435.7 388.99l20.84 0l0 14.61l-20.84 0Z" id="p223w119" />
<path d="M459.75 388.99l45.12 0l0 14.61l-45.12 0Z" id="p223w120" />
<path d="M507.9 388.99l72.89 0l0 14.61l-72.89 0Z" id="p223w121" />
<path d="M417.47 405.66l74.71 0l0 14.61l-74.71 0Z" id="p223w122" />
<path d="M59.07 423.75l6.07 0l0 14.6l-6.07 0Z" id="p223w123" />
<path d="M65.14 423.75l46.38 0l0 14.6l-46.38 0Z" id="p223w124" />
<path d="M132.65 422.51l50.21 0l0 16.35l-50.21 0Z" id="p223w125" />
<path d="M232.37 423.79l18.44 0l0 14.52l-18.44 0Z" id="p223w126" />
<path d="M254.01 423.79l79.66 0l0 14.52l-79.66 0Z" id="p223w127" />
<path d="M417.47 423.79l10.43 0l0 14.52l-10.43 0Z" id="p223w128" />
<path d="M431.11 423.79l64.12 0l0 14.52l-64.12 0Z" id="p223w129" />
<path d="M498.44 423.79l54.55 0l0 14.52l-54.55 0Z" id="p223w130" />
<path d="M566.09 423.79l54.49 0l0 14.52l-54.49 0Z" id="p223w131" />
<path d="M59.07 444.42l10.03 0l0 14.6l-10.03 0Z" id="p223w132" />
<path d="M72.31 444.42l57.71 0l0 14.6l-57.71 0Z" id="p223w133" />
<path d="M133.32 443.18l68.72 0l0 16.35l-68.72 0Z" id="p223w134" />
<path d="M232.37 444.5l18.44 0l0 14.52l-18.44 0Z" id="p223w135" />
<path d="M254.01 444.5l37.45 0l0 14.52l-37.45 0Z" id="p223w136" />
<path d="M435.7 444.45l48.26 0l0 14.61l-48.26 0Z" id="p223w137" />
<path d="M59.07 465.14l10.03 0l0 14.6l-10.03 0Z" id="p223w138" />
<path d="M72.31 465.14l57.71 0l0 14.6l-57.71 0Z" id="p223w139" />
<path d="M133.23 465.14l13.87 0l0 14.6l-13.87 0Z" id="p223w140" />
<path d="M59.07 481.81l90.96 0l0 14.6l-90.96 0Z" id="p223w141" />
<path d="M59.07 497.24l140.24 0l0 16.35l-140.24 0Z" id="p223w142" />
<path d="M232.37 465.22l18.44 0l0 14.52l-18.44 0Z" id="p223w143" />
<path d="M254.01 465.22l79.66 0l0 14.52l-79.66 0Z" id="p223w144" />
<path d="M59.07 516.62l14.31 0l0 14.6l-14.31 0Z" id="p223w145" />
<path d="M76.59 516.62l40.52 0l0 14.6l-40.52 0Z" id="p223w146" />
<path d="M117.11 516.62l20.99 0l0 14.6l-20.99 0Z" id="p223w147" />
<path d="M141.3 516.62l49.31 0l0 14.6l-49.31 0Z" id="p223w148" />
<path d="M59.07 532.05l86.76 0l0 16.35l-86.76 0Z" id="p223w149" />
<path d="M232.37 516.7l17.11 0l0 14.52l-17.11 0Z" id="p223w150" />
<path d="M252.68 516.7l69.63 0l0 14.52l-69.63 0Z" id="p223w151" />
<path d="M232.37 533.37l23.79 0l0 14.52l-23.79 0Z" id="p223w152" />
<path d="M259.36 533.37l75.1 0l0 14.52l-75.1 0Z" id="p223w153" />
<path d="M417.47 516.7l28.06 0l0 14.52l-28.06 0Z" id="p223w154" />
<path d="M448.74 516.7l47.33 0l0 14.52l-47.33 0Z" id="p223w155" />
<path d="M499.28 516.7l16.83 0l0 14.52l-16.83 0Z" id="p223w156" />
<path d="M519.32 516.7l52.14 0l0 14.52l-52.14 0Z" id="p223w157" />
<path d="M435.7 533.39l14.16 0l0 14.61l-14.16 0Z" id="p223w158" />
<path d="M453.07 533.39l28.06 0l0 14.61l-28.06 0Z" id="p223w159" />
<path d="M59.07 551.44l14.31 0l0 14.6l-14.31 0Z" id="p223w160" />
<path d="M76.59 551.44l46.37 0l0 14.6l-46.37 0Z" id="p223w161" />
<path d="M126.26 550.2l48.26 0l0 16.35l-48.26 0Z" id="p223w162" />
<path d="M232.37 551.52l23.79 0l0 14.52l-23.79 0Z" id="p223w163" />
<path d="M259.36 551.52l76.44 0l0 14.52l-76.44 0Z" id="p223w164" />
<path d="M236.64 568.17l24.55 0l0 14.52l-24.55 0Z" id="p223w165" />
<path d="M264.4 568.19l107.63 0l0 14.52l-107.63 0Z" id="p223w166" />
<path d="M232.37 584.86l17.11 0l0 14.52l-17.11 0Z" id="p223w167" />
<path d="M252.25 584.86l46.25 0l0 14.52l-46.25 0Z" id="p223w168" />
<path d="M59.07 602.93l20.99 0l0 14.6l-20.99 0Z" id="p223w169" />
<path d="M83.27 602.93l40.51 0l0 14.6l-40.51 0Z" id="p223w170" />
<path d="M127.08 601.69l57.01 0l0 16.35l-57.01 0Z" id="p223w171" />
<path d="M232.37 603.01l17.11 0l0 14.52l-17.11 0Z" id="p223w172" />
<path d="M252.68 603.01l31.27 0l0 14.52l-31.27 0Z" id="p223w173" />
<path d="M417.47 603.01l84.73 0l0 14.52l-84.73 0Z" id="p223w174" />
<path d="M505.41 603.01l6.41 0l0 14.52l-6.41 0Z" id="p223w175" />
<path d="M515.03 603.01l15.51 0l0 14.52l-15.51 0Z" id="p223w176" />
<path d="M543.63 603.01l19.51 0l0 14.52l-19.51 0Z" id="p223w177" />
<path d="M566.35 603.01l13.63 0l0 14.52l-13.63 0Z" id="p223w178" />
<path d="M417.47 619.68l13.9 0l0 14.52l-13.9 0Z" id="p223w179" />
<path d="M434.58 619.68l48.92 0l0 14.52l-48.92 0Z" id="p223w180" />
<path d="M435.2 636.37l33.41 0l0 14.61l-33.41 0Z" id="p223w181" />
<path d="M59.08 654.43l58.16 0l0 14.6l-58.16 0Z" id="p223w182" />
<path d="M120.53 653.19l57.77 0l0 16.35l-57.77 0Z" id="p223w183" />
<path d="M232.37 654.53l52.59 0l0 14.52l-52.59 0Z" id="p223w184" />
<path d="M288.16 654.51l19.79 0l0 14.52l-19.79 0Z" id="p223w185" />
<path d="M311.16 654.51l37.96 0l0 14.52l-37.96 0Z" id="p223w186" />
<path d="M232.37 671.2l53.19 0l0 14.52l-53.19 0Z" id="p223w187" />
<path d="M417.48 654.51l20.58 0l0 14.52l-20.58 0Z" id="p223w188" />
<path d="M441.26 654.51l35 0l0 14.52l-35 0Z" id="p223w189" />
<path d="M479.47 654.51l65.15 0l0 14.52l-65.15 0Z" id="p223w190" />
<path d="M547.83 654.51l17.11 0l0 14.52l-17.11 0Z" id="p223w191" />
<path d="M568.15 654.51l47.85 0l0 14.52l-47.85 0Z" id="p223w192" />
<path d="M59.08 712.66l47.08 0l0 18.44l-47.08 0Z" id="p223w193" />
<path d="M59.08 739.78l46.28 0l0 14.6l-46.28 0Z" id="p223w194" />
<path d="M108.56 739.78l14.41 0l0 14.6l-14.41 0Z" id="p223w195" />
<path d="M126.27 738.54l67.59 0l0 16.35l-67.59 0Z" id="p223w196" />
<path d="M64.98 782.09l46.28 0l0 14.6l-46.28 0Z" id="p223w197" />
<path d="M114.47 782.16l24.59 0l0 14.52l-24.59 0Z" id="p223w198" />
<path d="M142.27 782.16l56.35 0l0 14.52l-56.35 0Z" id="p223w199" />
<path d="M201.82 782.16l19.77 0l0 14.52l-19.77 0Z" id="p223w200" />
<path d="M224.8 782.09l27.86 0l0 14.6l-27.86 0Z" id="p223w201" />
<path d="M232.37 739.85l20.06 0l0 14.52l-20.06 0Z" id="p223w202" />
<path d="M255.64 739.85l93.46 0l0 14.52l-93.46 0Z" id="p223w203" />
<path d="M232.37 756.52l20.06 0l0 14.52l-20.06 0Z" id="p223w204" />
<path d="M255.64 756.52l42.13 0l0 14.52l-42.13 0Z" id="p223w205" />
<path d="M417.47 739.85l12.41 0l0 14.52l-12.41 0Z" id="p223w206" />
<path d="M433.09 739.85l12.29 0l0 14.52l-12.29 0Z" id="p223w207" />
<path d="M448.58 739.85l45.45 0l0 14.52l-45.45 0Z" id="p223w208" />
<path d="M497.24 739.85l16.83 0l0 14.52l-16.83 0Z" id="p223w209" />
<path d="M517.27 739.85l42.49 0l0 14.52l-42.49 0Z" id="p223w210" />
<path d="M59.07 809.4l20.99 0l0 14.6l-20.99 0Z" id="p223w211" />
<path d="M83.27 809.4l72.4 0l0 14.6l-72.4 0Z" id="p223w212" />
<path d="M59.07 824.83l64.81 0l0 16.35l-64.81 0Z" id="p223w213" />
<path d="M232.37 809.48l23.79 0l0 14.52l-23.79 0Z" id="p223w214" />
<path d="M259.3 809.48l33.05 0l0 14.52l-33.05 0Z" id="p223w215" />
<path d="M295.5 809.48l23.79 0l0 14.52l-23.79 0Z" id="p223w216" />
<path d="M322.43 809.48l67.47 0l0 14.52l-67.47 0Z" id="p223w217" />
<path d="M417.47 809.48l12.41 0l0 14.52l-12.41 0Z" id="p223w218" />
<path d="M433.09 809.48l12.29 0l0 14.52l-12.29 0Z" id="p223w219" />
<path d="M448.58 809.48l33.41 0l0 14.52l-33.41 0Z" id="p223w220" />
<path d="M485.2 809.48l19.52 0l0 14.52l-19.52 0Z" id="p223w221" />
<path d="M507.93 809.48l78.6 0l0 14.52l-78.6 0Z" id="p223w222" />
<path d="M59.07 844.21l26.04 0l0 14.6l-26.04 0Z" id="p223w223" />
<path d="M88.41 842.97l22.07 0l0 16.35l-22.07 0Z" id="p223w224" />
<path d="M232.37 844.29l76.31 0l0 14.52l-76.31 0Z" id="p223w225" />
<path d="M232.37 860.93l102.04 0l0 14.52l-102.04 0Z" id="p223w226" />
<path d="M232.37 877.63l20.33 0l0 14.52l-20.33 0Z" id="p223w227" />
<path d="M255.9 877.63l50.13 0l0 14.52l-50.13 0Z" id="p223w228" />
<path d="M309.24 877.63l43.72 0l0 14.52l-43.72 0Z" id="p223w229" />
<path d="M232.37 894.3l37.92 0l0 14.52l-37.92 0Z" id="p223w230" />
<path d="M273.49 894.3l25.4 0l0 14.52l-25.4 0Z" id="p223w231" />
<path d="M302.1 894.3l67.63 0l0 14.52l-67.63 0Z" id="p223w232" />
<path d="M417.47 844.29l26.19 0l0 14.52l-26.19 0Z" id="p223w233" />
<path d="M446.87 844.29l14.18 0l0 14.52l-14.18 0Z" id="p223w234" />
<path d="M464.25 844.29l40.18 0l0 14.52l-40.18 0Z" id="p223w235" />
<path d="M507.64 844.29l25.94 0l0 14.52l-25.94 0Z" id="p223w236" />
<path d="M536.78 844.29l14.18 0l0 14.52l-14.18 0Z" id="p223w237" />
<path d="M554.16 844.29l28.33 0l0 14.52l-28.33 0Z" id="p223w238" />
<path d="M585.7 844.29l57.23 0l0 14.52l-57.23 0Z" id="p223w239" />
<path d="M59.07 912.37l20.99 0l0 14.6l-20.99 0Z" id="p223w240" />
<path d="M83.27 912.37l30.13 0l0 14.6l-30.13 0Z" id="p223w241" />
<path d="M116.7 911.13l46.24 0l0 16.35l-46.24 0Z" id="p223w242" />
<path d="M232.37 912.45l23.79 0l0 14.52l-23.79 0Z" id="p223w243" />
<path d="M259 912.45l17.29 0l0 14.52l-17.29 0Z" id="p223w244" />
<path d="M417.47 912.45l26.21 0l0 14.52l-26.21 0Z" id="p223w245" />
<path d="M446.89 912.45l39.85 0l0 14.52l-39.85 0Z" id="p223w246" />
<path d="M489.95 912.45l45.18 0l0 14.52l-45.18 0Z" id="p223w247" />
<path d="M538.34 912.45l9.89 0l0 14.52l-9.89 0Z" id="p223w248" />
<path d="M551.43 912.45l32.62 0l0 14.52l-32.62 0Z" id="p223w249" />
<path d="M587.26 912.45l14.43 0l0 14.52l-14.43 0Z" id="p223w250" />
<path d="M604.89 912.45l25.67 0l0 14.52l-25.67 0Z" id="p223w251" />
<path d="M417.47 929.12l24.85 0l0 14.52l-24.85 0Z" id="p223w252" />
</svg>
