<?xml version="1.0" encoding="UTF-8"?>
<svg xmlns="http://www.w3.org/2000/svg" xmlns:xlink="http://www.w3.org/1999/xlink" version="1.1" baseProfile="full" width="768" height="1024" viewBox="0,0,768,1024" preserveAspectRatio="xMinYMin meet" >
<style type="text/css">
<![CDATA[
path {fill-opacity: 0.5;fill: #00aeef;visibility: hidden;}
]]>
</style>
<path d="M76.9 983.66l80.46 0l0 12.23l-80.46 0Z" id="p232w1" />
<path d="M124.06 38.6l81.82 0l0 16.09l-81.82 0Z" id="p232w2" />
<path d="M124.06 112.51l17.56 0l0 12.23l-17.56 0Z" id="p232w3" />
<path d="M144.32 112.45l35.74 0l0 12.29l-35.74 0Z" id="p232w4" />
<path d="M182.76 112.51l11.7 0l0 12.23l-11.7 0Z" id="p232w5" />
<path d="M197.17 112.51l6.3 0l0 12.23l-6.3 0Z" id="p232w6" />
<path d="M203.47 112.51l11.93 0l0 12.23l-11.93 0Z" id="p232w7" />
<path d="M221.25 111.41l67.52 0l0 13.77l-67.52 0Z" id="p232w8" />
<path d="M133.91 127.79l20.03 0l0 12.23l-20.03 0Z" id="p232w9" />
<path d="M156.64 127.79l43.22 0l0 12.23l-43.22 0Z" id="p232w10" />
<path d="M202.56 127.55l18.92 0l0 12.56l-18.92 0Z" id="p232w11" />
<path d="M124.06 143.02l35.74 0l0 12.29l-35.74 0Z" id="p232w12" />
<path d="M165.65 141.97l26.03 0l0 13.77l-26.03 0Z" id="p232w13" />
<path d="M197.54 143.08l33.99 0l0 12.23l-33.99 0Z" id="p232w14" />
<path d="M234.24 142.83l18.92 0l0 12.56l-18.92 0Z" id="p232w15" />
<path d="M124.06 158.3l26.54 0l0 12.29l-26.54 0Z" id="p232w16" />
<path d="M153.31 158.36l27.37 0l0 12.23l-27.37 0Z" id="p232w17" />
<path d="M186.53 157.26l29.04 0l0 13.77l-29.04 0Z" id="p232w18" />
<path d="M221.43 158.36l43.65 0l0 12.23l-43.65 0Z" id="p232w19" />
<path d="M267.78 158.36l37.99 0l0 12.23l-37.99 0Z" id="p232w20" />
<path d="M133.91 173.4l18.92 0l0 12.56l-18.92 0Z" id="p232w21" />
<path d="M133.91 188.93l26.57 0l0 12.23l-26.57 0Z" id="p232w22" />
<path d="M163.18 188.93l11.7 0l0 12.23l-11.7 0Z" id="p232w23" />
<path d="M177.58 188.93l12.16 0l0 12.23l-12.16 0Z" id="p232w24" />
<path d="M195.6 187.83l35 0l0 13.77l-35 0Z" id="p232w25" />
<path d="M236.46 188.93l11.7 0l0 12.23l-11.7 0Z" id="p232w26" />
<path d="M250.86 188.93l16.9 0l0 12.23l-16.9 0Z" id="p232w27" />
<path d="M133.91 204.21l37.99 0l0 12.23l-37.99 0Z" id="p232w28" />
<path d="M174.6 203.96l18.92 0l0 12.56l-18.92 0Z" id="p232w29" />
<path d="M124.06 219.49l11.94 0l0 12.23l-11.94 0Z" id="p232w30" />
<path d="M138.7 219.44l52.46 0l0 12.29l-52.46 0Z" id="p232w31" />
<path d="M197.02 218.39l48.62 0l0 13.77l-48.62 0Z" id="p232w32" />
<path d="M251.5 219.49l20.03 0l0 12.23l-20.03 0Z" id="p232w33" />
<path d="M133.91 234.78l44.31 0l0 12.23l-44.31 0Z" id="p232w34" />
<path d="M180.92 234.53l15.54 0l0 12.56l-15.54 0Z" id="p232w35" />
<path d="M124.06 250.06l11.94 0l0 12.23l-11.94 0Z" id="p232w36" />
<path d="M138.7 250l42.43 0l0 12.29l-42.43 0Z" id="p232w37" />
<path d="M186.98 248.96l38.34 0l0 13.77l-38.34 0Z" id="p232w38" />
<path d="M231.18 250.06l14.41 0l0 12.23l-14.41 0Z" id="p232w39" />
<path d="M248.29 250.06l43.22 0l0 12.23l-43.22 0Z" id="p232w40" />
<path d="M133.91 265.1l14.79 0l0 12.56l-14.79 0Z" id="p232w41" />
<path d="M124.06 280.63l17.56 0l0 12.23l-17.56 0Z" id="p232w42" />
<path d="M144.32 280.57l22.35 0l0 12.29l-22.35 0Z" id="p232w43" />
<path d="M172.54 279.53l35.08 0l0 13.77l-35.08 0Z" id="p232w44" />
<path d="M213.47 280.63l14.41 0l0 12.23l-14.41 0Z" id="p232w45" />
<path d="M230.58 280.63l26.34 0l0 12.23l-26.34 0Z" id="p232w46" />
<path d="M259.62 280.38l18.92 0l0 12.56l-18.92 0Z" id="p232w47" />
<path d="M124.06 295.91l17.56 0l0 12.23l-17.56 0Z" id="p232w48" />
<path d="M144.32 295.85l32.75 0l0 12.29l-32.75 0Z" id="p232w49" />
<path d="M182.93 294.81l40.37 0l0 13.77l-40.37 0Z" id="p232w50" />
<path d="M229.16 295.91l20.03 0l0 12.23l-20.03 0Z" id="p232w51" />
<path d="M251.89 295.91l28.6 0l0 12.23l-28.6 0Z" id="p232w52" />
<path d="M283.19 295.66l14.63 0l0 12.56l-14.63 0Z" id="p232w53" />
<path d="M133.91 311.19l21.37 0l0 12.23l-21.37 0Z" id="p232w54" />
<path d="M157.99 311.19l8.33 0l0 12.23l-8.33 0Z" id="p232w55" />
<path d="M169.01 311.19l32.65 0l0 12.23l-32.65 0Z" id="p232w56" />
<path d="M207.51 310.09l50.63 0l0 13.77l-50.63 0Z" id="p232w57" />
<path d="M264 311.19l27.01 0l0 12.23l-27.01 0Z" id="p232w58" />
<path d="M133.91 326.48l52.64 0l0 12.23l-52.64 0Z" id="p232w59" />
<path d="M189.25 326.48l33.78 0l0 12.23l-33.78 0Z" id="p232w60" />
<path d="M225.73 326.23l15.54 0l0 12.56l-15.54 0Z" id="p232w61" />
<path d="M124.06 341.76l17.56 0l0 12.23l-17.56 0Z" id="p232w62" />
<path d="M144.32 341.7l32.76 0l0 12.29l-32.76 0Z" id="p232w63" />
<path d="M182.94 340.66l39.28 0l0 13.77l-39.28 0Z" id="p232w64" />
<path d="M228.08 341.76l20.03 0l0 12.23l-20.03 0Z" id="p232w65" />
<path d="M250.81 341.76l28.14 0l0 12.23l-28.14 0Z" id="p232w66" />
<path d="M133.91 356.8l18.92 0l0 12.56l-18.92 0Z" id="p232w67" />
<path d="M124.06 372.27l35.57 0l0 12.29l-35.57 0Z" id="p232w68" />
<path d="M163.8 372.27l44.01 0l0 12.29l-44.01 0Z" id="p232w69" />
<path d="M213.66 371.23l35.55 0l0 13.77l-35.55 0Z" id="p232w70" />
<path d="M255.07 372.33l33.44 0l0 12.23l-33.44 0ZM133.91 387.61l38.27 0l0 12.23l-38.27 0Z" id="p232w71" />
<path d="M174.88 387.37l18.92 0l0 12.56l-18.92 0Z" id="p232w72" />
<path d="M124.06 402.84l34.15 0l0 12.29l-34.15 0Z" id="p232w73" />
<path d="M162.38 402.84l39.35 0l0 12.29l-39.35 0Z" id="p232w74" />
<path d="M207.58 401.79l57.75 0l0 13.77l-57.75 0Z" id="p232w75" />
<path d="M133.91 418.18l58.89 0l0 12.23l-58.89 0Z" id="p232w76" />
<path d="M195.5 418.18l44.46 0l0 12.23l-44.46 0Z" id="p232w77" />
<path d="M242.66 417.93l15.54 0l0 12.56l-15.54 0Z" id="p232w78" />
<path d="M124.06 433.46l11.94 0l0 12.23l-11.94 0Z" id="p232w79" />
<path d="M138.7 433.4l12 0l0 12.29l-12 0Z" id="p232w80" />
<path d="M165.11 433.44l11.93 0l0 12.23l-11.93 0Z" id="p232w81" />
<path d="M179.74 433.44l48.82 0l0 12.23l-48.82 0Z" id="p232w82" />
<path d="M231.26 433.44l23.43 0l0 12.23l-23.43 0Z" id="p232w83" />
<path d="M137.07 447.64l95.39 0l0 13.77l-95.39 0Z" id="p232w84" />
<path d="M238.31 448.74l14.41 0l0 12.23l-14.41 0Z" id="p232w85" />
<path d="M133.91 464.03l51.1 0l0 12.23l-51.1 0Z" id="p232w86" />
<path d="M187.71 463.78l18.72 0l0 12.56l-18.72 0Z" id="p232w87" />
<path d="M124.06 517.46l38.73 0l0 12.29l-38.73 0Z" id="p232w88" />
<path d="M168.64 516.42l27.35 0l0 13.77l-27.35 0Z" id="p232w89" />
<path d="M201.86 517.52l69.51 0l0 12.23l-69.51 0Z" id="p232w90" />
<path d="M274.07 517.52l15.47 0l0 12.23l-15.47 0Z" id="p232w91" />
<path d="M133.91 532.56l14.79 0l0 12.56l-14.79 0Z" id="p232w92" />
<path d="M133.91 548.09l18.9 0l0 12.23l-18.9 0Z" id="p232w93" />
<path d="M155.51 548.09l38.96 0l0 12.23l-38.96 0Z" id="p232w94" />
<path d="M200.32 546.99l40.98 0l0 13.77l-40.98 0Z" id="p232w95" />
<path d="M133.91 563.37l67.07 0l0 12.23l-67.07 0Z" id="p232w96" />
<path d="M203.68 563.37l19.13 0l0 12.23l-19.13 0Z" id="p232w97" />
<path d="M225.51 563.12l15.54 0l0 12.56l-15.54 0Z" id="p232w98" />
<path d="M124.06 578.65l23.19 0l0 12.23l-23.19 0Z" id="p232w99" />
<path d="M149.95 578.65l8.33 0l0 12.23l-8.33 0Z" id="p232w100" />
<path d="M160.98 578.6l22.94 0l0 12.29l-22.94 0Z" id="p232w101" />
<path d="M186.62 578.63l27.91 0l0 12.23l-27.91 0Z" id="p232w102" />
<path d="M220.39 577.55l50.44 0l0 13.77l-50.44 0Z" id="p232w103" />
<path d="M133.91 593.94l50.96 0l0 12.23l-50.96 0Z" id="p232w104" />
<path d="M187.57 593.94l29.49 0l0 12.23l-29.49 0Z" id="p232w105" />
<path d="M219.76 593.91l25.65 0l0 12.23l-25.65 0Z" id="p232w106" />
<path d="M248.12 593.69l15.54 0l0 12.56l-15.54 0Z" id="p232w107" />
<path d="M124.06 609.22l17.56 0l0 12.23l-17.56 0Z" id="p232w108" />
<path d="M144.32 609.16l26.58 0l0 12.29l-26.58 0Z" id="p232w109" />
<path d="M176.76 608.12l32.01 0l0 13.77l-32.01 0Z" id="p232w110" />
<path d="M214.63 609.22l20.03 0l0 12.23l-20.03 0Z" id="p232w111" />
<path d="M237.36 609.22l29.9 0l0 12.23l-29.9 0Z" id="p232w112" />
<path d="M269.96 609.22l20.03 0l0 12.23l-20.03 0Z" id="p232w113" />
<path d="M133.91 624.5l20.26 0l0 12.23l-20.26 0Z" id="p232w114" />
<path d="M156.87 624.26l19.58 0l0 12.56l-19.58 0Z" id="p232w115" />
<path d="M124.06 639.73l49.95 0l0 12.29l-49.95 0Z" id="p232w116" />
<path d="M178.18 639.73l55.15 0l0 12.29l-55.15 0Z" id="p232w117" />
<path d="M239.19 638.69l63.29 0l0 13.77l-63.29 0Z" id="p232w118" />
<path d="M133.91 655.07l47.22 0l0 12.23l-47.22 0Z" id="p232w119" />
<path d="M183.83 654.83l14.41 0l0 12.56l-14.41 0Z" id="p232w120" />
<path d="M124.06 670.3l22.61 0l0 12.29l-22.61 0Z" id="p232w121" />
<path d="M152.53 669.25l11.88 0l0 13.77l-11.88 0Z" id="p232w122" />
<path d="M170.27 670.35l8.78 0l0 12.23l-8.78 0Z" id="p232w123" />
<path d="M181.75 670.11l14.79 0l0 12.56l-14.79 0Z" id="p232w124" />
<path d="M124.06 685.58l32.13 0l0 12.29l-32.13 0Z" id="p232w125" />
<path d="M162.05 684.54l21.17 0l0 13.77l-21.17 0Z" id="p232w126" />
<path d="M189.08 685.64l32.19 0l0 12.23l-32.19 0Z" id="p232w127" />
<path d="M223.98 685.39l15.34 0l0 12.56l-15.34 0Z" id="p232w128" />
<path d="M124.06 700.92l8.33 0l0 12.23l-8.33 0Z" id="p232w129" />
<path d="M135.09 700.86l21.26 0l0 12.29l-21.26 0Z" id="p232w130" />
<path d="M159.05 700.92l11.7 0l0 12.23l-11.7 0Z" id="p232w131" />
<path d="M173.46 700.92l26.55 0l0 12.23l-26.55 0Z" id="p232w132" />
<path d="M202.71 700.9l23.62 0l0 12.23l-23.62 0Z" id="p232w133" />
<path d="M229.03 700.9l6.08 0l0 12.23l-6.08 0Z" id="p232w134" />
<path d="M235.11 700.9l15.31 0l0 12.23l-15.31 0Z" id="p232w135" />
<path d="M137.07 715.1l54.65 0l0 13.77l-54.65 0Z" id="p232w136" />
<path d="M197.58 716.2l15.53 0l0 12.23l-15.53 0Z" id="p232w137" />
<path d="M215.81 716.2l41.63 0l0 12.23l-41.63 0Z" id="p232w138" />
<path d="M260.13 715.96l18.92 0l0 12.56l-18.92 0Z" id="p232w139" />
<path d="M124.06 731.43l11.68 0l0 12.29l-11.68 0Z" id="p232w140" />
<path d="M139.91 731.43l8.58 0l0 12.29l-8.58 0Z" id="p232w141" />
<path d="M154.35 730.39l11.05 0l0 13.77l-11.05 0Z" id="p232w142" />
<path d="M171.26 731.49l17.12 0l0 12.23l-17.12 0Z" id="p232w143" />
<path d="M191.08 731.24l14.79 0l0 12.56l-14.79 0Z" id="p232w144" />
<path d="M221.38 731.49l16.21 0l0 12.23l-16.21 0Z" id="p232w145" />
<path d="M240.28 731.24l15.54 0l0 12.56l-15.54 0Z" id="p232w146" />
<path d="M124.06 746.71l11.68 0l0 12.29l-11.68 0Z" id="p232w147" />
<path d="M161.14 745.67l11.05 0l0 13.77l-11.05 0Z" id="p232w148" />
<path d="M197.23 746.77l28.33 0l0 12.23l-28.33 0Z" id="p232w149" />
<path d="M228.27 746.77l13.5 0l0 12.23l-13.5 0Z" id="p232w150" />
<path d="M244.47 746.53l14.79 0l0 12.56l-14.79 0Z" id="p232w151" />
<path d="M124.06 762.05l18.9 0l0 12.23l-18.9 0Z" id="p232w152" />
<path d="M145.66 762l33.52 0l0 12.29l-33.52 0Z" id="p232w153" />
<path d="M185.04 760.95l36.28 0l0 13.77l-36.28 0Z" id="p232w154" />
<path d="M227.18 762.05l31.96 0l0 12.23l-31.96 0Z" id="p232w155" />
<path d="M261.83 761.81l19.58 0l0 12.56l-19.58 0Z" id="p232w156" />
<path d="M124.06 777.34l10.35 0l0 12.23l-10.35 0Z" id="p232w157" />
<path d="M137.11 777.28l51.36 0l0 12.29l-51.36 0Z" id="p232w158" />
<path d="M194.33 776.24l45.27 0l0 13.77l-45.27 0Z" id="p232w159" />
<path d="M245.46 777.34l18.46 0l0 12.23l-18.46 0Z" id="p232w160" />
<path d="M266.62 777.34l10.82 0l0 12.23l-10.82 0Z" id="p232w161" />
<path d="M133.91 792.62l29.71 0l0 12.23l-29.71 0Z" id="p232w162" />
<path d="M166.32 792.62l34.62 0l0 12.23l-34.62 0Z" id="p232w163" />
<path d="M203.65 792.62l76.32 0l0 12.23l-76.32 0Z" id="p232w164" />
<path d="M133.91 807.66l15.54 0l0 12.56l-15.54 0Z" id="p232w165" />
<path d="M124.06 823.19l11.94 0l0 12.23l-11.94 0Z" id="p232w166" />
<path d="M138.7 823.13l27.68 0l0 12.29l-27.68 0Z" id="p232w167" />
<path d="M172.23 822.09l26.63 0l0 13.77l-26.63 0Z" id="p232w168" />
<path d="M204.72 823.19l14.41 0l0 12.23l-14.41 0Z" id="p232w169" />
<path d="M221.83 823.19l33.93 0l0 12.23l-33.93 0Z" id="p232w170" />
<path d="M258.47 822.94l17.26 0l0 12.56l-17.26 0Z" id="p232w171" />
<path d="M133.91 838.47l11.48 0l0 12.23l-11.48 0Z" id="p232w172" />
<path d="M148.09 838.47l27.47 0l0 12.23l-27.47 0Z" id="p232w173" />
<path d="M178.26 838.47l18.91 0l0 12.23l-18.91 0Z" id="p232w174" />
<path d="M203.02 837.37l38.91 0l0 13.77l-38.91 0Z" id="p232w175" />
<path d="M247.8 838.47l14.85 0l0 12.23l-14.85 0Z" id="p232w176" />
<path d="M265.35 838.47l33.93 0l0 12.23l-33.93 0Z" id="p232w177" />
<path d="M133.91 853.75l24.32 0l0 12.23l-24.32 0Z" id="p232w178" />
<path d="M160.93 853.51l17.26 0l0 12.56l-17.26 0Z" id="p232w179" />
<path d="M124.06 868.98l34.69 0l0 12.29l-34.69 0Z" id="p232w180" />
<path d="M161.45 869.04l11.7 0l0 12.23l-11.7 0Z" id="p232w181" />
<path d="M175.86 869.04l21.37 0l0 12.23l-21.37 0Z" id="p232w182" />
<path d="M199.93 869.04l11.04 0l0 12.23l-11.04 0Z" id="p232w183" />
<path d="M216.83 867.94l29.49 0l0 13.77l-29.49 0Z" id="p232w184" />
<path d="M133.91 884.32l58.75 0l0 12.23l-58.75 0Z" id="p232w185" />
<path d="M195.37 884.32l19.44 0l0 12.23l-19.44 0Z" id="p232w186" />
<path d="M217.51 884.32l10.82 0l0 12.23l-10.82 0Z" id="p232w187" />
<path d="M231.02 884.32l15.76 0l0 12.23l-15.76 0Z" id="p232w188" />
<path d="M249.49 884.08l15.34 0l0 12.56l-15.34 0Z" id="p232w189" />
<path d="M133.91 899.6l10.35 0l0 12.23l-10.35 0Z" id="p232w190" />
<path d="M146.96 899.6l34.89 0l0 12.23l-34.89 0Z" id="p232w191" />
<path d="M187.71 898.5l38.66 0l0 13.77l-38.66 0Z" id="p232w192" />
<path d="M232.22 899.6l18.46 0l0 12.23l-18.46 0Z" id="p232w193" />
<path d="M133.91 914.89l57.4 0l0 12.23l-57.4 0Z" id="p232w194" />
<path d="M194.01 914.64l18.92 0l0 12.56l-18.92 0Z" id="p232w195" />
<path d="M325.58 112.5l10.35 0l0 12.23l-10.35 0Z" id="p232w196" />
<path d="M338.63 112.45l53.05 0l0 12.29l-53.05 0Z" id="p232w197" />
<path d="M397.54 111.4l52.13 0l0 13.77l-52.13 0Z" id="p232w198" />
<path d="M455.53 112.5l17.78 0l0 12.23l-17.78 0Z" id="p232w199" />
<path d="M476.01 112.5l18.91 0l0 12.23l-18.91 0Z" id="p232w200" />
<path d="M335.43 127.79l41.18 0l0 12.23l-41.18 0Z" id="p232w201" />
<path d="M379.31 127.54l18.92 0l0 12.56l-18.92 0Z" id="p232w202" />
<path d="M325.58 143.07l17.56 0l0 12.23l-17.56 0Z" id="p232w203" />
<path d="M345.84 143.01l52.25 0l0 12.29l-52.25 0Z" id="p232w204" />
<path d="M403.95 141.97l52.95 0l0 13.77l-52.95 0Z" id="p232w205" />
<path d="M462.76 143.07l20.03 0l0 12.23l-20.03 0Z" id="p232w206" />
<path d="M335.43 158.35l55.56 0l0 12.23l-55.56 0Z" id="p232w207" />
<path d="M393.69 158.11l17.26 0l0 12.56l-17.26 0Z" id="p232w208" />
<path d="M325.58 173.58l43.77 0l0 12.29l-43.77 0Z" id="p232w209" />
<path d="M372.05 173.64l11.04 0l0 12.23l-11.04 0Z" id="p232w210" />
<path d="M388.79 172.54l41.69 0l0 13.77l-41.69 0Z" id="p232w211" />
<path d="M436.27 173.64l19.44 0l0 12.23l-19.44 0Z" id="p232w212" />
<path d="M458.33 173.64l49.07 0l0 12.23l-49.07 0Z" id="p232w213" />
<path d="M335.43 188.68l15.34 0l0 12.56l-15.34 0Z" id="p232w214" />
<path d="M325.58 204.15l32.46 0l0 12.29l-32.46 0Z" id="p232w215" />
<path d="M360.74 204.2l11.04 0l0 12.23l-11.04 0Z" id="p232w216" />
<path d="M382.8 204.2l12.16 0l0 12.23l-12.16 0Z" id="p232w217" />
<path d="M400.82 203.1l30.63 0l0 13.77l-30.63 0Z" id="p232w218" />
<path d="M437.31 204.2l20.04 0l0 12.23l-20.04 0Z" id="p232w219" />
<path d="M460.05 204.2l19.44 0l0 12.23l-19.44 0Z" id="p232w220" />
<path d="M335.43 219.49l57.4 0l0 12.23l-57.4 0Z" id="p232w221" />
<path d="M395.53 219.24l15.54 0l0 12.56l-15.54 0Z" id="p232w222" />
<path d="M325.58 234.77l11.94 0l0 12.23l-11.94 0Z" id="p232w223" />
<path d="M340.22 234.71l30.93 0l0 12.29l-30.93 0Z" id="p232w224" />
<path d="M377.01 233.67l24.91 0l0 13.77l-24.91 0Z" id="p232w225" />
<path d="M407.78 234.77l14.41 0l0 12.23l-14.41 0Z" id="p232w226" />
<path d="M424.88 234.77l52.66 0l0 12.23l-52.66 0Z" id="p232w227" />
<path d="M335.43 250.05l31.11 0l0 12.23l-31.11 0Z" id="p232w228" />
<path d="M369.24 250.05l14.41 0l0 12.23l-14.41 0Z" id="p232w229" />
<path d="M386.35 250.05l35.28 0l0 12.23l-35.28 0Z" id="p232w230" />
<path d="M424.33 249.81l18.92 0l0 12.56l-18.92 0Z" id="p232w231" />
<path d="M325.58 265.34l17.56 0l0 12.23l-17.56 0Z" id="p232w232" />
<path d="M345.84 265.28l37.55 0l0 12.29l-37.55 0Z" id="p232w233" />
<path d="M389.25 264.24l35.89 0l0 13.77l-35.89 0Z" id="p232w234" />
<path d="M431 265.34l20.03 0l0 12.23l-20.03 0Z" id="p232w235" />
<path d="M335.43 280.62l60 0l0 12.23l-60 0Z" id="p232w236" />
<path d="M398.13 280.38l18.17 0l0 12.56l-18.17 0Z" id="p232w237" />
<path d="M325.58 295.9l11.94 0l0 12.23l-11.94 0Z" id="p232w238" />
<path d="M340.22 295.85l18.31 0l0 12.29l-18.31 0Z" id="p232w239" />
<path d="M364.38 294.8l22.52 0l0 13.77l-22.52 0Z" id="p232w240" />
<path d="M392.76 295.9l20.03 0l0 12.23l-20.03 0Z" id="p232w241" />
<path d="M415.49 295.9l79.18 0l0 12.23l-79.18 0Z" id="p232w242" />
<path d="M335.43 310.94l18.92 0l0 12.56l-18.92 0Z" id="p232w243" />
<path d="M325.58 326.42l18.31 0l0 12.29l-18.31 0Z" id="p232w244" />
<path d="M343.89 326.42l12.79 0l0 12.29l-12.79 0Z" id="p232w245" />
<path d="M359.38 326.47l11.04 0l0 12.23l-11.04 0Z" id="p232w246" />
<path d="M376.28 325.37l32.51 0l0 13.77l-32.51 0Z" id="p232w247" />
<path d="M414.65 326.47l19.44 0l0 12.23l-19.44 0Z" id="p232w248" />
<path d="M436.79 326.47l55.55 0l0 12.23l-55.55 0Z" id="p232w249" />
<path d="M335.43 341.75l19.44 0l0 12.23l-19.44 0Z" id="p232w250" />
<path d="M357.57 341.75l18.01 0l0 12.23l-18.01 0Z" id="p232w251" />
<path d="M375.58 341.75l29.93 0l0 12.23l-29.93 0Z" id="p232w252" />
<path d="M408.21 341.51l18.92 0l0 12.56l-18.92 0Z" id="p232w253" />
<path d="M325.58 357.04l11.94 0l0 12.23l-11.94 0Z" id="p232w254" />
<path d="M340.22 356.98l27.01 0l0 12.29l-27.01 0Z" id="p232w255" />
<path d="M373.09 355.94l31.91 0l0 13.77l-31.91 0Z" id="p232w256" />
<path d="M410.86 357.04l14.41 0l0 12.23l-14.41 0Z" id="p232w257" />
<path d="M427.96 357.04l22.28 0l0 12.23l-22.28 0Z" id="p232w258" />
<path d="M452.95 356.79l15.54 0l0 12.56l-15.54 0Z" id="p232w259" />
<path d="M335.43 372.32l5.4 0l0 12.23l-5.4 0Z" id="p232w260" />
<path d="M343.53 372.32l15.75 0l0 12.23l-15.75 0Z" id="p232w261" />
<path d="M361.98 372.32l23.81 0l0 12.23l-23.81 0Z" id="p232w262" />
<path d="M388.49 372.32l31.9 0l0 12.23l-31.9 0Z" id="p232w263" />
<path d="M426.25 371.22l51.21 0l0 13.77l-51.21 0Z" id="p232w264" />
<path d="M483.32 372.32l10.58 0l0 12.23l-10.58 0Z" id="p232w265" />
<path d="M335.43 387.6l19.58 0l0 12.23l-19.58 0Z" id="p232w266" />
<path d="M371.22 387.6l24.54 0l0 12.23l-24.54 0Z" id="p232w267" />
<path d="M398.46 387.36l15.54 0l0 12.56l-15.54 0Z" id="p232w268" />
<path d="M325.58 402.83l32.35 0l0 12.29l-32.35 0Z" id="p232w269" />
<path d="M363.78 401.79l21.71 0l0 13.77l-21.71 0Z" id="p232w270" />
<path d="M391.35 402.89l41.62 0l0 12.23l-41.62 0Z" id="p232w271" />
<path d="M435.67 402.89l11.93 0l0 12.23l-11.93 0Z" id="p232w272" />
<path d="M450.29 402.89l29.03 0l0 12.23l-29.03 0Z" id="p232w273" />
<path d="M482.03 402.64l18.01 0l0 12.56l-18.01 0Z" id="p232w274" />
<path d="M325.58 418.12l20.13 0l0 12.29l-20.13 0Z" id="p232w275" />
<path d="M351.57 417.07l20.87 0l0 13.77l-20.87 0Z" id="p232w276" />
<path d="M378.3 418.17l27.7 0l0 12.23l-27.7 0Z" id="p232w277" />
<path d="M408.7 417.93l15.54 0l0 12.56l-15.54 0Z" id="p232w278" />
<path d="M325.58 433.4l41.58 0l0 12.29l-41.58 0Z" id="p232w279" />
<path d="M371.33 433.4l46.78 0l0 12.29l-46.78 0Z" id="p232w280" />
<path d="M423.97 432.35l67.6 0l0 13.77l-67.6 0Z" id="p232w281" />
<path d="M335.43 448.74l38.47 0l0 12.23l-38.47 0Z" id="p232w282" />
<path d="M376.6 448.74l27.91 0l0 12.23l-27.91 0Z" id="p232w283" />
<path d="M407.21 448.49l14.63 0l0 12.56l-14.63 0Z" id="p232w284" />
<path d="M325.58 463.97l35.47 0l0 12.29l-35.47 0Z" id="p232w285" />
<path d="M366.91 462.92l25.09 0l0 13.77l-25.09 0Z" id="p232w286" />
<path d="M397.85 464.02l36.49 0l0 12.23l-36.49 0Z" id="p232w287" />
<path d="M437.04 463.78l15.54 0l0 12.56l-15.54 0Z" id="p232w288" />
<path d="M344.65 479.3l35.34 0l0 12.23l-35.34 0Z" id="p232w289" />
<path d="M391.7 478.2l30.28 0l0 13.77l-30.28 0Z" id="p232w290" />
<path d="M427.84 479.3l14.18 0l0 12.23l-14.18 0Z" id="p232w291" />
<path d="M444.72 479.3l39.65 0l0 12.23l-39.65 0Z" id="p232w292" />
<path d="M335.43 494.34l15.54 0l0 12.56l-15.54 0Z" id="p232w293" />
<path d="M325.58 509.87l17.56 0l0 12.23l-17.56 0Z" id="p232w294" />
<path d="M345.84 509.82l44.34 0l0 12.29l-44.34 0Z" id="p232w295" />
<path d="M396.04 508.77l43.83 0l0 13.77l-43.83 0Z" id="p232w296" />
<path d="M445.72 509.87l20.03 0l0 12.23l-20.03 0Z" id="p232w297" />
<path d="M468.46 509.87l37.08 0l0 12.23l-37.08 0Z" id="p232w298" />
<path d="M335.43 524.91l18.72 0l0 12.56l-18.72 0Z" id="p232w299" />
<path d="M325.58 540.38l48.24 0l0 12.29l-48.24 0Z" id="p232w300" />
<path d="M376.52 540.44l11.04 0l0 12.23l-11.04 0Z" id="p232w301" />
<path d="M398.59 540.44l12.16 0l0 12.23l-12.16 0Z" id="p232w302" />
<path d="M416.6 539.34l37.45 0l0 13.77l-37.45 0Z" id="p232w303" />
<path d="M459.91 540.44l16.9 0l0 12.23l-16.9 0Z" id="p232w304" />
<path d="M479.5 540.44l22.74 0l0 12.23l-22.74 0Z" id="p232w305" />
<path d="M335.43 555.72l19.44 0l0 12.23l-19.44 0Z" id="p232w306" />
<path d="M357.57 555.72l33 0l0 12.23l-33 0Z" id="p232w307" />
<path d="M393.27 555.72l16.9 0l0 12.23l-16.9 0Z" id="p232w308" />
<path d="M412.87 555.72l15.08 0l0 12.23l-15.08 0Z" id="p232w309" />
<path d="M430.65 555.72l19.44 0l0 12.23l-19.44 0Z" id="p232w310" />
<path d="M452.79 555.72l28.13 0l0 12.23l-28.13 0Z" id="p232w311" />
<path d="M335.43 570.76l15.54 0l0 12.56l-15.54 0Z" id="p232w312" />
<path d="M325.58 586.23l53.69 0l0 12.29l-53.69 0Z" id="p232w313" />
<path d="M385.12 585.19l46.3 0l0 13.77l-46.3 0Z" id="p232w314" />
<path d="M437.29 586.29l46.15 0l0 12.23l-46.15 0Z" id="p232w315" />
<path d="M335.43 601.33l22.96 0l0 12.56l-22.96 0Z" id="p232w316" />
<path d="M325.58 616.86l17.56 0l0 12.23l-17.56 0Z" id="p232w317" />
<path d="M345.84 616.8l54.06 0l0 12.29l-54.06 0Z" id="p232w318" />
<path d="M405.76 615.76l52.42 0l0 13.77l-52.42 0Z" id="p232w319" />
<path d="M464.04 616.86l20.03 0l0 12.23l-20.03 0Z" id="p232w320" />
<path d="M335.43 632.14l26.11 0l0 12.23l-26.11 0Z" id="p232w321" />
<path d="M364.24 632.14l33.32 0l0 12.23l-33.32 0Z" id="p232w322" />
<path d="M400.26 631.9l15.54 0l0 12.56l-15.54 0Z" id="p232w323" />
<path d="M325.58 647.43l11.94 0l0 12.23l-11.94 0Z" id="p232w324" />
<path d="M340.22 647.37l60.11 0l0 12.29l-60.11 0Z" id="p232w325" />
<path d="M406.19 646.33l43.04 0l0 13.77l-43.04 0Z" id="p232w326" />
<path d="M455.08 647.43l14.41 0l0 12.23l-14.41 0Z" id="p232w327" />
<path d="M335.43 662.71l40.86 0l0 12.23l-40.86 0Z" id="p232w328" />
<path d="M378.99 662.47l18.92 0l0 12.56l-18.92 0Z" id="p232w329" />
<path d="M325.58 677.99l8.33 0l0 12.23l-8.33 0Z" id="p232w330" />
<path d="M336.6 677.94l31.22 0l0 12.29l-31.22 0Z" id="p232w331" />
<path d="M373.68 676.89l35.66 0l0 13.77l-35.66 0Z" id="p232w332" />
<path d="M415.2 677.99l15.53 0l0 12.23l-15.53 0Z" id="p232w333" />
<path d="M433.43 677.99l45.23 0l0 12.23l-45.23 0Z" id="p232w334" />
<path d="M481.36 677.99l14.41 0l0 12.23l-14.41 0Z" id="p232w335" />
<path d="M335.43 693.28l35.56 0l0 12.23l-35.56 0Z" id="p232w336" />
<path d="M373.68 693.03l17.26 0l0 12.56l-17.26 0Z" id="p232w337" />
<path d="M325.58 708.56l11.94 0l0 12.23l-11.94 0Z" id="p232w338" />
<path d="M340.22 708.51l61.76 0l0 12.29l-61.76 0Z" id="p232w339" />
<path d="M407.83 707.46l56.13 0l0 13.77l-56.13 0Z" id="p232w340" />
<path d="M335.43 723.84l14.41 0l0 12.23l-14.41 0Z" id="p232w341" />
<path d="M352.53 723.84l62.33 0l0 12.23l-62.33 0Z" id="p232w342" />
<path d="M417.57 723.82l65.27 0l0 12.23l-65.27 0Z" id="p232w343" />
<path d="M335.43 739.11l89 0l0 12.23l-89 0Z" id="p232w344" />
<path d="M427.13 738.88l18.92 0l0 12.56l-18.92 0Z" id="p232w345" />
<path d="M325.58 754.41l10.35 0l0 12.23l-10.35 0Z" id="p232w346" />
<path d="M338.63 754.36l43.58 0l0 12.29l-43.58 0Z" id="p232w347" />
<path d="M388.07 753.31l39.21 0l0 13.77l-39.21 0Z" id="p232w348" />
<path d="M433.14 754.41l18.46 0l0 12.23l-18.46 0Z" id="p232w349" />
<path d="M454.3 754.41l34.43 0l0 12.23l-34.43 0Z" id="p232w350" />
<path d="M335.43 769.45l18.17 0l0 12.56l-18.17 0Z" id="p232w351" />
<path d="M325.58 784.92l31.36 0l0 12.29l-31.36 0Z" id="p232w352" />
<path d="M362.79 783.88l26 0l0 13.77l-26 0Z" id="p232w353" />
<path d="M394.65 784.98l16.87 0l0 12.23l-16.87 0Z" id="p232w354" />
<path d="M414.22 784.73l19.58 0l0 12.56l-19.58 0Z" id="p232w355" />
<path d="M325.58 800.21l34 0l0 12.29l-34 0Z" id="p232w356" />
<path d="M363.75 800.21l39.55 0l0 12.29l-39.55 0Z" id="p232w357" />
<path d="M409.15 799.16l67.96 0l0 13.77l-67.96 0Z" id="p232w358" />
<path d="M335.43 815.55l96.55 0l0 12.23l-96.55 0Z" id="p232w359" />
<path d="M434.67 815.3l14.41 0l0 12.56l-14.41 0Z" id="p232w360" />
<path d="M325.58 830.77l37.37 0l0 12.29l-37.37 0Z" id="p232w361" />
<path d="M368.8 829.73l28.81 0l0 13.77l-28.81 0Z" id="p232w362" />
<path d="M403.47 830.83l28.13 0l0 12.23l-28.13 0Z" id="p232w363" />
<path d="M434.31 830.58l18.92 0l0 12.56l-18.92 0Z" id="p232w364" />
<path d="M325.58 846.06l48.34 0l0 12.29l-48.34 0Z" id="p232w365" />
<path d="M379.78 845.01l32.47 0l0 13.77l-32.47 0Z" id="p232w366" />
<path d="M418.1 846.11l53.25 0l0 12.23l-53.25 0Z" id="p232w367" />
<path d="M335.43 861.4l69.36 0l0 12.23l-69.36 0Z" id="p232w368" />
<path d="M407.49 861.15l15.54 0l0 12.56l-15.54 0Z" id="p232w369" />
<path d="M335.43 876.68l48.62 0l0 12.23l-48.62 0Z" id="p232w370" />
<path d="M406.77 876.66l49.74 0l0 12.23l-49.74 0Z" id="p232w371" />
<path d="M462.37 875.58l32.47 0l0 13.77l-32.47 0Z" id="p232w372" />
<path d="M335.43 891.96l70.9 0l0 12.23l-70.9 0Z" id="p232w373" />
<path d="M409.03 891.72l18.92 0l0 12.56l-18.92 0Z" id="p232w374" />
<path d="M335.43 907.25l22.07 0l0 12.23l-22.07 0Z" id="p232w375" />
<path d="M360.2 907.25l60.97 0l0 12.23l-60.97 0Z" id="p232w376" />
<path d="M427.03 906.15l43.4 0l0 13.77l-43.4 0Z" id="p232w377" />
<path d="M476.29 907.25l14.18 0l0 12.23l-14.18 0Z" id="p232w378" />
<path d="M335.43 922.53l34.6 0l0 12.23l-34.6 0Z" id="p232w379" />
<path d="M372.73 922.53l27.42 0l0 12.23l-27.42 0Z" id="p232w380" />
<path d="M402.85 922.28l15.54 0l0 12.56l-15.54 0Z" id="p232w381" />
<path d="M527.1 112.51l17.56 0l0 12.23l-17.56 0Z" id="p232w382" />
<path d="M547.36 112.45l52.59 0l0 12.29l-52.59 0Z" id="p232w383" />
<path d="M605.8 111.41l58.25 0l0 13.77l-58.25 0Z" id="p232w384" />
<path d="M669.92 112.51l20.03 0l0 12.23l-20.03 0Z" id="p232w385" />
<path d="M536.94 127.79l64.33 0l0 12.23l-64.33 0Z" id="p232w386" />
<path d="M603.98 127.55l15.54 0l0 12.56l-15.54 0Z" id="p232w387" />
<path d="M527.1 143.02l32.68 0l0 12.29l-32.68 0Z" id="p232w388" />
<path d="M562.48 143.08l11.04 0l0 12.23l-11.04 0Z" id="p232w389" />
<path d="M579.37 141.97l29.64 0l0 13.77l-29.64 0Z" id="p232w390" />
<path d="M614.87 143.08l19.44 0l0 12.23l-19.44 0Z" id="p232w391" />
<path d="M637.01 143.08l47.73 0l0 12.23l-47.73 0Z" id="p232w392" />
<path d="M536.94 158.11l15.54 0l0 12.56l-15.54 0Z" id="p232w393" />
<path d="M527.1 173.64l12.38 0l0 12.23l-12.38 0Z" id="p232w394" />
<path d="M542.17 173.64l21.61 0l0 12.23l-21.61 0Z" id="p232w395" />
<path d="M566.48 173.59l30.8 0l0 12.29l-30.8 0Z" id="p232w396" />
<path d="M601.45 173.59l39.04 0l0 12.29l-39.04 0Z" id="p232w397" />
<path d="M646.33 172.54l29.97 0l0 13.77l-29.97 0Z" id="p232w398" />
<path d="M682.15 173.64l10.58 0l0 12.23l-10.58 0Z" id="p232w399" />
<path d="M695.42 173.64l13.5 0l0 12.23l-13.5 0Z" id="p232w400" />
<path d="M536.94 188.93l15.75 0l0 12.23l-15.75 0Z" id="p232w401" />
<path d="M555.4 188.93l19.36 0l0 12.23l-19.36 0Z" id="p232w402" />
<path d="M577.46 188.68l15.54 0l0 12.56l-15.54 0Z" id="p232w403" />
<path d="M527.1 204.21l11.94 0l0 12.23l-11.94 0Z" id="p232w404" />
<path d="M541.74 204.15l34.82 0l0 12.29l-34.82 0Z" id="p232w405" />
<path d="M582.42 203.11l30.01 0l0 13.77l-30.01 0Z" id="p232w406" />
<path d="M618.28 204.21l14.41 0l0 12.23l-14.41 0Z" id="p232w407" />
<path d="M635.39 204.21l46.15 0l0 12.23l-46.15 0Z" id="p232w408" />
<path d="M684.24 203.96l14.63 0l0 12.56l-14.63 0Z" id="p232w409" />
<path d="M527.1 219.49l11.94 0l0 12.23l-11.94 0Z" id="p232w410" />
<path d="M541.74 219.44l55.32 0l0 12.29l-55.32 0Z" id="p232w411" />
<path d="M597.06 219.49l21.73 0l0 12.23l-21.73 0Z" id="p232w412" />
<path d="M621.49 219.44l56.78 0l0 12.29l-56.78 0Z" id="p232w413" />
<path d="M540.1 233.68l112.92 0l0 13.77l-112.92 0Z" id="p232w414" />
<path d="M658.88 234.78l14.41 0l0 12.23l-14.41 0Z" id="p232w415" />
<path d="M536.94 250.06l64.71 0l0 12.23l-64.71 0Z" id="p232w416" />
<path d="M604.36 250.06l49.3 0l0 12.23l-49.3 0Z" id="p232w417" />
<path d="M656.36 249.81l18.01 0l0 12.56l-18.01 0Z" id="p232w418" />
<path d="M527.1 265.29l39.77 0l0 12.29l-39.77 0Z" id="p232w419" />
<path d="M569.57 265.34l11.04 0l0 12.23l-11.04 0Z" id="p232w420" />
<path d="M586.46 264.24l29.8 0l0 13.77l-29.8 0Z" id="p232w421" />
<path d="M622.12 265.34l19.44 0l0 12.23l-19.44 0Z" id="p232w422" />
<path d="M644.26 265.34l42.1 0l0 12.23l-42.1 0Z" id="p232w423" />
<path d="M536.94 280.38l18.92 0l0 12.56l-18.92 0Z" id="p232w424" />
<path d="M527.1 295.85l32.16 0l0 12.29l-32.16 0Z" id="p232w425" />
<path d="M565.11 294.81l28.59 0l0 13.77l-28.59 0Z" id="p232w426" />
<path d="M599.56 295.91l30.39 0l0 12.23l-30.39 0Z" id="p232w427" />
<path d="M632.65 295.66l15.34 0l0 12.56l-15.34 0Z" id="p232w428" />
<path d="M527.1 311.19l17.56 0l0 12.23l-17.56 0Z" id="p232w429" />
<path d="M547.36 311.14l53.68 0l0 12.29l-53.68 0Z" id="p232w430" />
<path d="M606.89 310.09l56.01 0l0 13.77l-56.01 0Z" id="p232w431" />
<path d="M668.76 311.19l14.41 0l0 12.23l-14.41 0Z" id="p232w432" />
<path d="M536.94 326.48l80.72 0l0 12.23l-80.72 0Z" id="p232w433" />
<path d="M620.36 326.48l14.41 0l0 12.23l-14.41 0Z" id="p232w434" />
<path d="M637.47 326.48l16.65 0l0 12.23l-16.65 0Z" id="p232w435" />
<path d="M656.82 326.23l18.01 0l0 12.56l-18.01 0Z" id="p232w436" />
<path d="M527.1 341.76l8.33 0l0 12.23l-8.33 0Z" id="p232w437" />
<path d="M538.12 341.7l36.9 0l0 12.29l-36.9 0Z" id="p232w438" />
<path d="M580.88 340.66l37.16 0l0 13.77l-37.16 0Z" id="p232w439" />
<path d="M623.9 341.76l14.41 0l0 12.23l-14.41 0Z" id="p232w440" />
<path d="M641 341.76l62.31 0l0 12.23l-62.31 0Z" id="p232w441" />
<path d="M536.94 356.8l18.01 0l0 12.56l-18.01 0Z" id="p232w442" />
<path d="M527.1 372.27l39.56 0l0 12.29l-39.56 0Z" id="p232w443" />
<path d="M569.36 372.33l11.04 0l0 12.23l-11.04 0Z" id="p232w444" />
<path d="M586.25 371.23l31.88 0l0 13.77l-31.88 0Z" id="p232w445" />
<path d="M623.99 372.33l19.44 0l0 12.23l-19.44 0Z" id="p232w446" />
<path d="M646.13 372.33l56.05 0l0 12.23l-56.05 0Z" id="p232w447" />
<path d="M536.94 387.61l23.64 0l0 12.23l-23.64 0Z" id="p232w448" />
<path d="M563.29 387.61l35.26 0l0 12.23l-35.26 0Z" id="p232w449" />
<path d="M601.25 387.61l19.44 0l0 12.23l-19.44 0Z" id="p232w450" />
<path d="M623.39 387.61l32.86 0l0 12.23l-32.86 0Z" id="p232w451" />
<path d="M658.94 387.37l15.54 0l0 12.56l-15.54 0Z" id="p232w452" />
<path d="M527.1 402.84l32.39 0l0 12.29l-32.39 0Z" id="p232w453" />
<path d="M565.34 401.79l22.11 0l0 13.77l-22.11 0Z" id="p232w454" />
<path d="M593.31 402.89l14.86 0l0 12.23l-14.86 0Z" id="p232w455" />
<path d="M610.87 402.87l36.31 0l0 12.23l-36.31 0Z" id="p232w456" />
<path d="M649.89 402.65l19.58 0l0 12.56l-19.58 0Z" id="p232w457" />
<path d="M527.1 418.18l8.33 0l0 12.23l-8.33 0Z" id="p232w458" />
<path d="M538.12 418.12l73.66 0l0 12.29l-73.66 0Z" id="p232w459" />
<path d="M614.48 418.18l35.57 0l0 12.23l-35.57 0Z" id="p232w460" />
<path d="M540.1 432.36l84.83 0l0 13.77l-84.83 0Z" id="p232w461" />
<path d="M630.79 433.46l14.41 0l0 12.23l-14.41 0Z" id="p232w462" />
<path d="M647.9 433.46l55.32 0l0 12.23l-55.32 0Z" id="p232w463" />
<path d="M536.94 448.74l57.59 0l0 12.23l-57.59 0Z" id="p232w464" />
<path d="M597.23 448.5l18.92 0l0 12.56l-18.92 0Z" id="p232w465" />
<path d="M527.1 463.97l35.15 0l0 12.29l-35.15 0Z" id="p232w466" />
<path d="M564.94 464.03l27.37 0l0 12.23l-27.37 0Z" id="p232w467" />
<path d="M598.17 462.93l35.98 0l0 13.77l-35.98 0Z" id="p232w468" />
<path d="M640 464.03l34.42 0l0 12.23l-34.42 0Z" id="p232w469" />
<path d="M536.94 479.31l35.34 0l0 12.23l-35.34 0Z" id="p232w470" />
<path d="M574.98 479.07l15.34 0l0 12.56l-15.34 0Z" id="p232w471" />
<path d="M527.1 494.54l29.29 0l0 12.29l-29.29 0Z" id="p232w472" />
<path d="M559.09 494.59l21.37 0l0 12.23l-21.37 0Z" id="p232w473" />
<path d="M583.16 494.59l11.04 0l0 12.23l-11.04 0Z" id="p232w474" />
<path d="M600.06 493.49l47.66 0l0 13.77l-47.66 0Z" id="p232w475" />
<path d="M653.58 494.59l19.44 0l0 12.23l-19.44 0Z" id="p232w476" />
<path d="M675.72 494.59l15.76 0l0 12.23l-15.76 0Z" id="p232w477" />
<path d="M536.94 509.88l36.24 0l0 12.23l-36.24 0Z" id="p232w478" />
<path d="M575.88 509.63l15.54 0l0 12.56l-15.54 0Z" id="p232w479" />
<path d="M527.1 525.16l13.05 0l0 12.23l-13.05 0Z" id="p232w480" />
<path d="M542.85 525.11l34.12 0l0 12.29l-34.12 0Z" id="p232w481" />
<path d="M599.1 525.14l14.18 0l0 12.23l-14.18 0Z" id="p232w482" />
<path d="M619.14 524.06l42.28 0l0 13.77l-42.28 0Z" id="p232w483" />
<path d="M667.28 525.16l14.41 0l0 12.23l-14.41 0Z" id="p232w484" />
<path d="M536.94 540.44l67.93 0l0 12.23l-67.93 0Z" id="p232w485" />
<path d="M607.57 540.2l14.63 0l0 12.56l-14.63 0Z" id="p232w486" />
<path d="M527.1 555.73l17.56 0l0 12.23l-17.56 0Z" id="p232w487" />
<path d="M547.36 555.67l47.66 0l0 12.29l-47.66 0Z" id="p232w488" />
<path d="M600.88 554.63l44.59 0l0 13.77l-44.59 0Z" id="p232w489" />
<path d="M651.33 555.73l14.41 0l0 12.23l-14.41 0Z" id="p232w490" />
<path d="M536.94 571.01l56.5 0l0 12.23l-56.5 0Z" id="p232w491" />
<path d="M596.14 570.77l18.92 0l0 12.56l-18.92 0Z" id="p232w492" />
<path d="M527.1 586.24l41.37 0l0 12.29l-41.37 0Z" id="p232w493" />
<path d="M572.64 586.24l46.99 0l0 12.29l-46.99 0Z" id="p232w494" />
<path d="M625.49 585.19l64.19 0l0 13.77l-64.19 0Z" id="p232w495" />
<path d="M536.94 601.58l34.4 0l0 12.23l-34.4 0Z" id="p232w496" />
<path d="M574.05 601.58l74.26 0l0 12.23l-74.26 0Z" id="p232w497" />
<path d="M651.01 601.58l56.5 0l0 12.23l-56.5 0Z" id="p232w498" />
<path d="M536.94 616.62l18.17 0l0 12.56l-18.17 0Z" id="p232w499" />
<path d="M527.1 632.09l19.2 0l0 12.29l-19.2 0Z" id="p232w500" />
<path d="M546.29 632.09l15.86 0l0 12.29l-15.86 0Z" id="p232w501" />
<path d="M568.01 631.04l26.31 0l0 13.77l-26.31 0Z" id="p232w502" />
<path d="M600.18 632.14l44.96 0l0 12.23l-44.96 0Z" id="p232w503" />
<path d="M647.84 631.9l17.81 0l0 12.56l-17.81 0Z" id="p232w504" />
<path d="M527.1 647.37l46.16 0l0 12.29l-46.16 0Z" id="p232w505" />
<path d="M600.27 646.33l27.67 0l0 13.77l-27.67 0Z" id="p232w506" />
<path d="M633.79 647.43l14.85 0l0 12.23l-14.85 0Z" id="p232w507" />
<path d="M651.34 647.43l39.35 0l0 12.23l-39.35 0Z" id="p232w508" />
<path d="M536.94 662.47l15.54 0l0 12.56l-15.54 0Z" id="p232w509" />
<path d="M527.1 677.94l18.32 0l0 12.29l-18.32 0Z" id="p232w510" />
<path d="M548.12 677.99l11.04 0l0 12.23l-11.04 0Z" id="p232w511" />
<path d="M573.78 677.99l15.76 0l0 12.23l-15.76 0Z" id="p232w512" />
<path d="M595.4 676.89l14.44 0l0 13.77l-14.44 0Z" id="p232w513" />
<path d="M615.7 677.99l27.24 0l0 12.23l-27.24 0Z" id="p232w514" />
<path d="M645.64 677.99l19.44 0l0 12.23l-19.44 0Z" id="p232w515" />
<path d="M667.78 677.99l28.08 0l0 12.23l-28.08 0Z" id="p232w516" />
<path d="M536.94 693.03l15.54 0l0 12.56l-15.54 0Z" id="p232w517" />
<path d="M527.1 708.51l26.88 0l0 12.29l-26.88 0Z" id="p232w518" />
<path d="M558.14 708.51l32.5 0l0 12.29l-32.5 0Z" id="p232w519" />
<path d="M596.5 707.46l59.19 0l0 13.77l-59.19 0Z" id="p232w520" />
<path d="M661.55 708.56l27.23 0l0 12.23l-27.23 0Z" id="p232w521" />
<path d="M536.94 723.6l15.54 0l0 12.56l-15.54 0Z" id="p232w522" />
<path d="M527.1 739.13l8.33 0l0 12.23l-8.33 0Z" id="p232w523" />
<path d="M538.12 739.07l41.62 0l0 12.29l-41.62 0Z" id="p232w524" />
<path d="M585.6 738.03l44.83 0l0 13.77l-44.83 0Z" id="p232w525" />
<path d="M636.28 739.13l14.41 0l0 12.23l-14.41 0Z" id="p232w526" />
<path d="M653.39 739.13l41.83 0l0 12.23l-41.83 0Z" id="p232w527" />
<path d="M536.94 754.17l15.54 0l0 12.56l-15.54 0Z" id="p232w528" />
<path d="M536.94 769.7l11.7 0l0 12.23l-11.7 0Z" id="p232w529" />
<path d="M551.35 769.7l41.65 0l0 12.23l-41.65 0Z" id="p232w530" />
<path d="M595.7 769.7l11.7 0l0 12.23l-11.7 0Z" id="p232w531" />
<path d="M613.26 768.59l53.63 0l0 13.77l-53.63 0Z" id="p232w532" />
<path d="M672.75 769.7l8.78 0l0 12.23l-8.78 0Z" id="p232w533" />
<path d="M536.94 784.98l41.83 0l0 12.23l-41.83 0Z" id="p232w534" />
<path d="M581.47 784.73l15.54 0l0 12.56l-15.54 0Z" id="p232w535" />
<path d="M527.1 800.26l17.56 0l0 12.23l-17.56 0Z" id="p232w536" />
<path d="M547.36 800.21l48.7 0l0 12.29l-48.7 0Z" id="p232w537" />
<path d="M601.91 799.16l47.53 0l0 13.77l-47.53 0Z" id="p232w538" />
<path d="M655.3 800.26l20.03 0l0 12.23l-20.03 0Z" id="p232w539" />
<path d="M536.94 815.55l51.97 0l0 12.23l-51.97 0Z" id="p232w540" />
<path d="M591.62 815.55l20.03 0l0 12.23l-20.03 0Z" id="p232w541" />
<path d="M614.35 815.55l64.97 0l0 12.23l-64.97 0Z" id="p232w542" />
<path d="M682.02 815.55l14.41 0l0 12.23l-14.41 0Z" id="p232w543" />
<path d="M536.94 830.83l43.67 0l0 12.23l-43.67 0Z" id="p232w544" />
<path d="M583.32 830.58l15.54 0l0 12.56l-15.54 0Z" id="p232w545" />
<path d="M527.1 846.06l37.76 0l0 12.29l-37.76 0Z" id="p232w546" />
<path d="M570.71 845.01l32.64 0l0 13.77l-32.64 0Z" id="p232w547" />
<path d="M609.21 846.11l54.66 0l0 12.23l-54.66 0Z" id="p232w548" />
<path d="M666.58 846.11l18.46 0l0 12.23l-18.46 0Z" id="p232w549" />
<path d="M536.94 861.4l55.14 0l0 12.23l-55.14 0Z" id="p232w550" />
<path d="M594.79 861.15l15.54 0l0 12.56l-15.54 0Z" id="p232w551" />
<path d="M527.1 876.62l51.14 0l0 12.29l-51.14 0Z" id="p232w552" />
<path d="M584.1 875.58l43.47 0l0 13.77l-43.47 0Z" id="p232w553" />
<path d="M633.42 876.68l65.28 0l0 12.23l-65.28 0Z" id="p232w554" />
<path d="M536.94 891.72l22.96 0l0 12.56l-22.96 0Z" id="p232w555" />
<path d="M527.1 907.25l17.56 0l0 12.23l-17.56 0Z" id="p232w556" />
<path d="M547.36 907.19l35.3 0l0 12.29l-35.3 0Z" id="p232w557" />
<path d="M588.52 906.15l39.53 0l0 13.77l-39.53 0Z" id="p232w558" />
<path d="M633.9 907.25l14.41 0l0 12.23l-14.41 0Z" id="p232w559" />
<path d="M651.01 907.25l25.65 0l0 12.23l-25.65 0Z" id="p232w560" />
<path d="M679.36 907l18.72 0l0 12.56l-18.72 0Z" id="p232w561" />
</svg>
