<?xml version="1.0" encoding="UTF-8"?>
<svg xmlns="http://www.w3.org/2000/svg" xmlns:xlink="http://www.w3.org/1999/xlink" version="1.1" baseProfile="full" width="768" height="1024" viewBox="0,0,768,1024" preserveAspectRatio="xMinYMin meet" >
<style type="text/css">
<![CDATA[
path {fill-opacity: 0.5;fill: #00aeef;visibility: hidden;}
]]>
</style>
<path d="M124.06 104.82l38.96 0l0 23.34l-38.96 0Z" id="p82w1" />
<path d="M168.1 104.82l108.56 0l0 23.34l-108.56 0Z" id="p82w2" />
<path d="M281.73 104.82l33.38 0l0 23.34l-33.38 0Z" id="p82w3" />
<path d="M321.88 104.8l44.1 0l0 23.36l-44.1 0Z" id="p82w4" />
<path d="M371.58 104.82l25.97 0l0 23.34l-25.97 0Z" id="p82w5" />
<path d="M402.63 104.82l41.39 0l0 23.34l-41.39 0Z" id="p82w6" />
<path d="M138.66 138.9l17.05 0l0 15.09l-17.05 0Z" id="p82w7" />
<path d="M159.33 138.9l27.13 0l0 15.09l-27.13 0Z" id="p82w8" />
<path d="M200.17 138.9l41.34 0l0 15.09l-41.34 0Z" id="p82w9" />
<path d="M245.13 138.9l45.65 0l0 15.09l-45.65 0Z" id="p82w10" />
<path d="M294.39 138.9l37.81 0l0 15.09l-37.81 0Z" id="p82w11" />
<path d="M345.91 138.9l22.31 0l0 15.09l-22.31 0Z" id="p82w12" />
<path d="M124.06 155.57l64.98 0l0 15.09l-64.98 0Z" id="p82w13" />
<path d="M192.65 155.57l18.49 0l0 15.09l-18.49 0Z" id="p82w14" />
<path d="M214.76 155.57l15.89 0l0 15.09l-15.89 0Z" id="p82w15" />
<path d="M234.25 155.57l45.34 0l0 15.09l-45.34 0Z" id="p82w16" />
<path d="M283.21 155.57l75.57 0l0 15.09l-75.57 0Z" id="p82w17" />
<path d="M362.39 155.57l15.89 0l0 15.09l-15.89 0Z" id="p82w18" />
<path d="M124.06 172.24l52.81 0l0 15.09l-52.81 0Z" id="p82w19" />
<path d="M180.48 172.24l55.15 0l0 15.09l-55.15 0Z" id="p82w20" />
<path d="M239.24 172.24l15.06 0l0 15.09l-15.06 0Z" id="p82w21" />
<path d="M257.91 172.24l47.23 0l0 15.09l-47.23 0Z" id="p82w22" />
<path d="M308.76 172.24l39.34 0l0 15.09l-39.34 0Z" id="p82w23" />
<path d="M351.71 172.24l22.31 0l0 15.09l-22.31 0Z" id="p82w24" />
<path d="M377.63 172.24l31.99 0l0 15.09l-31.99 0Z" id="p82w25" />
<path d="M124.06 188.91l44.38 0l0 15.09l-44.38 0Z" id="p82w26" />
<path d="M172.05 188.91l21.67 0l0 15.09l-21.67 0Z" id="p82w27" />
<path d="M197.33 188.91l15.89 0l0 15.09l-15.89 0Z" id="p82w28" />
<path d="M216.83 188.91l43.71 0l0 15.09l-43.71 0Z" id="p82w29" />
<path d="M264.15 188.91l28.43 0l0 15.09l-28.43 0Z" id="p82w30" />
<path d="M296.19 188.91l77.24 0l0 15.09l-77.24 0Z" id="p82w31" />
<path d="M124.06 205.58l32.23 0l0 15.09l-32.23 0Z" id="p82w32" />
<path d="M159.91 205.58l30.81 0l0 15.09l-30.81 0Z" id="p82w33" />
<path d="M194.32 205.58l33.26 0l0 15.09l-33.26 0Z" id="p82w34" />
<path d="M231.2 205.58l19.46 0l0 15.09l-19.46 0Z" id="p82w35" />
<path d="M254.26 205.58l60.92 0l0 15.09l-60.92 0Z" id="p82w36" />
<path d="M328.9 205.58l19.79 0l0 15.09l-19.79 0Z" id="p82w37" />
<path d="M352.3 205.58l10.42 0l0 15.09l-10.42 0Z" id="p82w38" />
<path d="M366.33 205.58l33.13 0l0 15.09l-33.13 0Z" id="p82w39" />
<path d="M124.06 222.25l23.62 0l0 15.09l-23.62 0Z" id="p82w40" />
<path d="M151.29 222.25l50.8 0l0 15.09l-50.8 0Z" id="p82w41" />
<path d="M205.71 222.25l13.91 0l0 15.09l-13.91 0Z" id="p82w42" />
<path d="M223.23 222.25l46.32 0l0 15.09l-46.32 0Z" id="p82w43" />
<path d="M273.16 222.25l36.95 0l0 15.09l-36.95 0Z" id="p82w44" />
<path d="M313.72 222.25l15.15 0l0 15.09l-15.15 0Z" id="p82w45" />
<path d="M332.48 222.25l15.27 0l0 15.09l-15.27 0Z" id="p82w46" />
<path d="M351.36 222.25l27.23 0l0 15.09l-27.23 0Z" id="p82w47" />
<path d="M124.06 238.92l10.5 0l0 15.09l-10.5 0Z" id="p82w48" />
<path d="M138.17 238.92l36.46 0l0 15.09l-36.46 0Z" id="p82w49" />
<path d="M178.25 238.92l32.61 0l0 15.09l-32.61 0Z" id="p82w50" />
<path d="M222.91 238.92l74.52 0l0 15.09l-74.52 0Z" id="p82w51" />
<path d="M301.03 238.92l15.94 0l0 15.09l-15.94 0Z" id="p82w52" />
<path d="M320.58 238.92l39.34 0l0 15.09l-39.34 0Z" id="p82w53" />
<path d="M363.53 238.92l10.54 0l0 15.09l-10.54 0Z" id="p82w54" />
<path d="M377.68 238.92l35.28 0l0 15.09l-35.28 0Z" id="p82w55" />
<path d="M124.06 255.59l10.5 0l0 15.09l-10.5 0Z" id="p82w56" />
<path d="M138.17 255.59l73.45 0l0 15.09l-73.45 0Z" id="p82w57" />
<path d="M215.23 255.59l62.72 0l0 15.09l-62.72 0Z" id="p82w58" />
<path d="M281.56 255.59l19.01 0l0 15.09l-19.01 0Z" id="p82w59" />
<path d="M304.18 255.59l16.64 0l0 15.09l-16.64 0Z" id="p82w60" />
<path d="M324.44 255.59l62.19 0l0 15.09l-62.19 0Z" id="p82w61" />
<path d="M124.06 272.25l27.82 0l0 15.09l-27.82 0Z" id="p82w62" />
<path d="M155.5 272.25l10.42 0l0 15.09l-10.42 0Z" id="p82w63" />
<path d="M169.53 272.25l42.12 0l0 15.09l-42.12 0Z" id="p82w64" />
<path d="M215.26 272.25l13.91 0l0 15.09l-13.91 0Z" id="p82w65" />
<path d="M232.78 272.25l27.18 0l0 15.09l-27.18 0Z" id="p82w66" />
<path d="M263.57 272.25l39.96 0l0 15.09l-39.96 0Z" id="p82w67" />
<path d="M124.06 288.92l31.04 0l0 15.09l-31.04 0Z" id="p82w68" />
<path d="M158.71 288.92l64.98 0l0 15.09l-64.98 0Z" id="p82w69" />
<path d="M227.3 288.92l64.05 0l0 15.09l-64.05 0Z" id="p82w70" />
<path d="M294.97 288.92l19.46 0l0 15.09l-19.46 0Z" id="p82w71" />
<path d="M318.04 288.92l24.24 0l0 15.09l-24.24 0Z" id="p82w72" />
<path d="M345.89 288.92l10.5 0l0 15.09l-10.5 0Z" id="p82w73" />
<path d="M360 288.92l44.25 0l0 15.09l-44.25 0Z" id="p82w74" />
<path d="M124.06 305.59l53.07 0l0 15.09l-53.07 0Z" id="p82w75" />
<path d="M180.74 305.59l35.69 0l0 15.09l-35.69 0Z" id="p82w76" />
<path d="M220.04 305.59l10.42 0l0 15.09l-10.42 0Z" id="p82w77" />
<path d="M234.07 305.59l50.88 0l0 15.09l-50.88 0Z" id="p82w78" />
<path d="M288.57 305.59l24.79 0l0 15.09l-24.79 0Z" id="p82w79" />
<path d="M316.97 305.59l25.78 0l0 15.09l-25.78 0Z" id="p82w80" />
<path d="M352.92 305.59l13.4 0l0 15.09l-13.4 0Z" id="p82w81" />
<path d="M369.93 305.59l11.95 0l0 15.09l-11.95 0Z" id="p82w82" />
<path d="M124.06 322.26l56.1 0l0 15.09l-56.1 0Z" id="p82w83" />
<path d="M183.77 322.26l11.26 0l0 15.09l-11.26 0Z" id="p82w84" />
<path d="M198.64 322.26l63.93 0l0 15.09l-63.93 0Z" id="p82w85" />
<path d="M266.18 322.26l42 0l0 15.09l-42 0Z" id="p82w86" />
<path d="M311.79 322.26l27.16 0l0 15.09l-27.16 0Z" id="p82w87" />
<path d="M342.56 322.26l24.66 0l0 15.09l-24.66 0Z" id="p82w88" />
<path d="M370.83 322.26l27.08 0l0 15.09l-27.08 0Z" id="p82w89" />
<path d="M124.06 338.93l19.46 0l0 15.09l-19.46 0Z" id="p82w90" />
<path d="M147.13 338.93l48.81 0l0 15.09l-48.81 0Z" id="p82w91" />
<path d="M199.55 338.93l18.13 0l0 15.09l-18.13 0Z" id="p82w92" />
<path d="M221.3 338.93l16.64 0l0 15.09l-16.64 0Z" id="p82w93" />
<path d="M241.55 338.93l44.16 0l0 15.09l-44.16 0Z" id="p82w94" />
<path d="M289.33 338.93l56.18 0l0 15.09l-56.18 0Z" id="p82w95" />
<path d="M349.11 338.93l28.89 0l0 15.09l-28.89 0Z" id="p82w96" />
<path d="M124.06 355.6l23.27 0l0 15.09l-23.27 0Z" id="p82w97" />
<path d="M150.95 355.6l57.58 0l0 15.09l-57.58 0Z" id="p82w98" />
<path d="M138.66 388.95l33.58 0l0 15.09l-33.58 0Z" id="p82w99" />
<path d="M175.85 388.95l10.42 0l0 15.09l-10.42 0Z" id="p82w100" />
<path d="M189.89 388.95l68.54 0l0 15.09l-68.54 0Z" id="p82w101" />
<path d="M262.04 388.95l15.89 0l0 15.09l-15.89 0Z" id="p82w102" />
<path d="M281.54 388.95l36.24 0l0 15.09l-36.24 0Z" id="p82w103" />
<path d="M321.39 388.95l35.69 0l0 15.09l-35.69 0Z" id="p82w104" />
<path d="M360.69 388.95l25.23 0l0 15.09l-25.23 0Z" id="p82w105" />
<path d="M389.53 388.95l24.37 0l0 15.09l-24.37 0Z" id="p82w106" />
<path d="M417.51 388.95l33.44 0l0 15.09l-33.44 0Z" id="p82w107" />
<path d="M454.56 388.95l36.95 0l0 15.09l-36.95 0Z" id="p82w108" />
<path d="M495.12 388.95l56.18 0l0 15.09l-56.18 0Z" id="p82w109" />
<path d="M124.06 405.62l50.87 0l0 15.09l-50.87 0Z" id="p82w110" />
<path d="M188.64 405.62l45.65 0l0 15.09l-45.65 0Z" id="p82w111" />
<path d="M237.9 405.62l21.67 0l0 15.09l-21.67 0Z" id="p82w112" />
<path d="M263.18 405.62l11.88 0l0 15.09l-11.88 0Z" id="p82w113" />
<path d="M278.67 405.62l41.4 0l0 15.09l-41.4 0Z" id="p82w114" />
<path d="M323.68 405.62l61.41 0l0 15.09l-61.41 0Z" id="p82w115" />
<path d="M398.8 405.62l10.42 0l0 15.09l-10.42 0Z" id="p82w116" />
<path d="M412.83 405.62l29.1 0l0 15.09l-29.1 0Z" id="p82w117" />
<path d="M445.54 405.62l19.29 0l0 15.09l-19.29 0Z" id="p82w118" />
<path d="M468.44 405.62l46.45 0l0 15.09l-46.45 0Z" id="p82w119" />
<path d="M124.06 422.29l45.65 0l0 15.09l-45.65 0Z" id="p82w120" />
<path d="M173.32 422.29l16.64 0l0 15.09l-16.64 0Z" id="p82w121" />
<path d="M193.58 422.29l10.5 0l0 15.09l-10.5 0Z" id="p82w122" />
<path d="M207.69 422.29l47.42 0l0 15.09l-47.42 0Z" id="p82w123" />
<path d="M258.72 422.29l30.3 0l0 15.09l-30.3 0Z" id="p82w124" />
<path d="M302.74 422.29l19.01 0l0 15.09l-19.01 0Z" id="p82w125" />
<path d="M325.36 422.29l21 0l0 15.09l-21 0Z" id="p82w126" />
<path d="M349.97 422.29l15.94 0l0 15.09l-15.94 0Z" id="p82w127" />
<path d="M369.52 422.29l20.54 0l0 15.09l-20.54 0Z" id="p82w128" />
<path d="M393.67 422.29l37.85 0l0 15.09l-37.85 0Z" id="p82w129" />
<path d="M124.06 449.41l45.31 0l0 12.29l-45.31 0Z" id="p82w130" />
<path d="M178.6 447.35l10.71 0l0 15.09l-10.71 0Z" id="p82w131" />
<path d="M192.92 447.35l12.41 0l0 15.09l-12.41 0Z" id="p82w132" />
<path d="M208.95 447.35l37.04 0l0 15.09l-37.04 0Z" id="p82w133" />
<path d="M249.6 447.35l27.16 0l0 15.09l-27.16 0Z" id="p82w134" />
<path d="M280.36 447.35l27.18 0l0 15.09l-27.18 0Z" id="p82w135" />
<path d="M311.16 447.35l63.44 0l0 15.09l-63.44 0Z" id="p82w136" />
<path d="M388.31 447.35l58.82 0l0 15.09l-58.82 0Z" id="p82w137" />
<path d="M450.74 447.35l24.92 0l0 15.09l-24.92 0Z" id="p82w138" />
<path d="M479.27 447.35l13.91 0l0 15.09l-13.91 0Z" id="p82w139" />
<path d="M496.79 447.35l47.63 0l0 15.09l-47.63 0Z" id="p82w140" />
<path d="M135.88 464.02l12.41 0l0 15.09l-12.41 0Z" id="p82w141" />
<path d="M151.91 464.02l50.16 0l0 15.09l-50.16 0Z" id="p82w142" />
<path d="M205.68 464.02l56.7 0l0 15.09l-56.7 0Z" id="p82w143" />
<path d="M266 464.02l51.65 0l0 15.09l-51.65 0Z" id="p82w144" />
<path d="M321.26 464.02l35.34 0l0 15.09l-35.34 0Z" id="p82w145" />
<path d="M360.21 464.02l13.91 0l0 15.09l-13.91 0Z" id="p82w146" />
<path d="M377.73 464.02l31.8 0l0 15.09l-31.8 0Z" id="p82w147" />
<path d="M413.14 464.02l29.1 0l0 15.09l-29.1 0Z" id="p82w148" />
<path d="M445.85 464.02l11.26 0l0 15.09l-11.26 0Z" id="p82w149" />
<path d="M460.72 464.02l12.41 0l0 15.09l-12.41 0Z" id="p82w150" />
<path d="M476.74 464.02l48.99 0l0 15.09l-48.99 0Z" id="p82w151" />
<path d="M529.34 464.02l41.18 0l0 15.09l-41.18 0Z" id="p82w152" />
<path d="M135.88 480.69l25.63 0l0 15.09l-25.63 0Z" id="p82w153" />
<path d="M165.12 480.69l15.74 0l0 15.09l-15.74 0Z" id="p82w154" />
<path d="M184.48 480.69l20.09 0l0 15.09l-20.09 0Z" id="p82w155" />
<path d="M124.07 505.7l15.09 0l0 15.09l-15.09 0Z" id="p82w156" />
<path d="M142.77 505.7l41.41 0l0 15.09l-41.41 0Z" id="p82w157" />
<path d="M187.79 505.7l15.74 0l0 15.09l-15.74 0Z" id="p82w158" />
<path d="M207.15 505.7l25.19 0l0 15.09l-25.19 0Z" id="p82w159" />
<path d="M235.95 505.7l16.64 0l0 15.09l-16.64 0Z" id="p82w160" />
<path d="M256.2 505.7l14.59 0l0 15.09l-14.59 0Z" id="p82w161" />
<path d="M274.4 505.7l27.23 0l0 15.09l-27.23 0Z" id="p82w162" />
<path d="M305.25 505.7l10.42 0l0 15.09l-10.42 0Z" id="p82w163" />
<path d="M319.28 505.7l22.52 0l0 15.09l-22.52 0Z" id="p82w164" />
<path d="M345.41 505.7l13.91 0l0 15.09l-13.91 0Z" id="p82w165" />
<path d="M362.92 505.7l48.81 0l0 15.09l-48.81 0Z" id="p82w166" />
<path d="M124.06 532.77l35.94 0l0 12.29l-35.94 0Z" id="p82w167" />
<path d="M169.23 530.71l10.71 0l0 15.09l-10.71 0Z" id="p82w168" />
<path d="M183.55 530.71l10.54 0l0 15.09l-10.54 0Z" id="p82w169" />
<path d="M197.7 530.71l44.89 0l0 15.09l-44.89 0Z" id="p82w170" />
<path d="M246.2 530.71l26.31 0l0 15.09l-26.31 0Z" id="p82w171" />
<path d="M276.12 530.71l32.9 0l0 15.09l-32.9 0Z" id="p82w172" />
<path d="M312.63 530.71l15.74 0l0 15.09l-15.74 0Z" id="p82w173" />
<path d="M331.99 530.71l27.13 0l0 15.09l-27.13 0Z" id="p82w174" />
<path d="M362.73 530.71l12.66 0l0 15.09l-12.66 0Z" id="p82w175" />
<path d="M379 530.71l32.43 0l0 15.09l-32.43 0Z" id="p82w176" />
<path d="M415.04 530.71l35.81 0l0 15.09l-35.81 0Z" id="p82w177" />
<path d="M138.66 564.06l45.65 0l0 15.09l-45.65 0Z" id="p82w178" />
<path d="M187.92 564.06l29.96 0l0 15.09l-29.96 0Z" id="p82w179" />
<path d="M221.49 564.06l19.29 0l0 15.09l-19.29 0Z" id="p82w180" />
<path d="M244.39 564.06l47.19 0l0 15.09l-47.19 0Z" id="p82w181" />
<path d="M295.19 564.06l13.91 0l0 15.09l-13.91 0Z" id="p82w182" />
<path d="M312.71 564.06l56.18 0l0 15.09l-56.18 0Z" id="p82w183" />
<path d="M382.6 564.06l17.34 0l0 15.09l-17.34 0Z" id="p82w184" />
<path d="M124.06 580.73l44.12 0l0 15.09l-44.12 0Z" id="p82w185" />
<path d="M171.79 580.73l11.26 0l0 15.09l-11.26 0Z" id="p82w186" />
<path d="M186.66 580.73l11.88 0l0 15.09l-11.88 0Z" id="p82w187" />
<path d="M202.15 580.73l32.55 0l0 15.09l-32.55 0Z" id="p82w188" />
<path d="M238.31 580.73l32.03 0l0 15.09l-32.03 0Z" id="p82w189" />
<path d="M273.95 580.73l14.59 0l0 15.09l-14.59 0Z" id="p82w190" />
<path d="M292.15 580.73l60.15 0l0 15.09l-60.15 0Z" id="p82w191" />
<path d="M355.91 580.73l19.46 0l0 15.09l-19.46 0Z" id="p82w192" />
<path d="M124.06 597.4l53.97 0l0 15.09l-53.97 0Z" id="p82w193" />
<path d="M181.63 597.4l21 0l0 15.09l-21 0Z" id="p82w194" />
<path d="M206.25 597.4l26.17 0l0 15.09l-26.17 0Z" id="p82w195" />
<path d="M236.02 597.4l29.96 0l0 15.09l-29.96 0Z" id="p82w196" />
<path d="M279.69 597.4l57.82 0l0 15.09l-57.82 0Z" id="p82w197" />
<path d="M341.13 597.4l45.65 0l0 15.09l-45.65 0Z" id="p82w198" />
<path d="M124.06 614.07l50.87 0l0 15.09l-50.87 0Z" id="p82w199" />
<path d="M178.54 614.07l21.67 0l0 15.09l-21.67 0Z" id="p82w200" />
<path d="M203.82 614.07l56.18 0l0 15.09l-56.18 0Z" id="p82w201" />
<path d="M263.6 614.07l28.99 0l0 15.09l-28.99 0Z" id="p82w202" />
<path d="M296.21 614.07l17.34 0l0 15.09l-17.34 0Z" id="p82w203" />
<path d="M317.16 614.07l50.75 0l0 15.09l-50.75 0Z" id="p82w204" />
<path d="M371.52 614.07l27.81 0l0 15.09l-27.81 0Z" id="p82w205" />
<path d="M124.06 630.74l39.66 0l0 15.09l-39.66 0Z" id="p82w206" />
<path d="M167.33 630.74l25.65 0l0 15.09l-25.65 0Z" id="p82w207" />
<path d="M196.59 630.74l33.98 0l0 15.09l-33.98 0Z" id="p82w208" />
<path d="M234.19 630.74l22.31 0l0 15.09l-22.31 0Z" id="p82w209" />
<path d="M260.11 630.74l67.06 0l0 15.09l-67.06 0Z" id="p82w210" />
<path d="M330.78 630.74l43.85 0l0 15.09l-43.85 0Z" id="p82w211" />
<path d="M378.24 630.74l15.89 0l0 15.09l-15.89 0Z" id="p82w212" />
<path d="M124.06 647.41l39.4 0l0 15.09l-39.4 0Z" id="p82w213" />
<path d="M167.07 647.41l10.71 0l0 15.09l-10.71 0Z" id="p82w214" />
<path d="M181.39 647.41l15.89 0l0 15.09l-15.89 0Z" id="p82w215" />
<path d="M200.89 647.41l36.24 0l0 15.09l-36.24 0Z" id="p82w216" />
<path d="M240.74 647.41l35.69 0l0 15.09l-35.69 0Z" id="p82w217" />
<path d="M280.04 647.41l80.11 0l0 15.09l-80.11 0Z" id="p82w218" />
<path d="M363.76 647.41l20.54 0l0 15.09l-20.54 0Z" id="p82w219" />
<path d="M124.06 664.08l48.62 0l0 15.09l-48.62 0Z" id="p82w220" />
<path d="M176.29 664.08l13.22 0l0 15.09l-13.22 0Z" id="p82w221" />
<path d="M193.12 664.08l10.42 0l0 15.09l-10.42 0Z" id="p82w222" />
<path d="M207.16 664.08l79.68 0l0 15.09l-79.68 0Z" id="p82w223" />
<path d="M290.45 664.08l52.99 0l0 15.09l-52.99 0Z" id="p82w224" />
<path d="M124.06 680.75l85.08 0l0 15.09l-85.08 0Z" id="p82w225" />
<path d="M138.66 714.1l55.01 0l0 15.09l-55.01 0Z" id="p82w226" />
<path d="M197.27 714.1l28.45 0l0 15.09l-28.45 0Z" id="p82w227" />
<path d="M229.34 714.1l24.62 0l0 15.09l-24.62 0Z" id="p82w228" />
<path d="M257.58 714.1l27.46 0l0 15.09l-27.46 0Z" id="p82w229" />
<path d="M288.65 714.1l56.15 0l0 15.09l-56.15 0Z" id="p82w230" />
<path d="M348.41 714.1l11.26 0l0 15.09l-11.26 0Z" id="p82w231" />
<path d="M124.06 730.77l50.95 0l0 15.09l-50.95 0Z" id="p82w232" />
<path d="M178.61 730.77l38.09 0l0 15.09l-38.09 0Z" id="p82w233" />
<path d="M220.32 730.77l24.38 0l0 15.09l-24.38 0Z" id="p82w234" />
<path d="M248.31 730.77l22.31 0l0 15.09l-22.31 0Z" id="p82w235" />
<path d="M274.23 730.77l47.32 0l0 15.09l-47.32 0Z" id="p82w236" />
<path d="M335.27 730.77l45.65 0l0 15.09l-45.65 0Z" id="p82w237" />
<path d="M124.06 747.44l19.29 0l0 15.09l-19.29 0Z" id="p82w238" />
<path d="M146.96 747.44l51.81 0l0 15.09l-51.81 0Z" id="p82w239" />
<path d="M212.48 747.44l55.26 0l0 15.09l-55.26 0Z" id="p82w240" />
<path d="M278.31 747.44l13.4 0l0 15.09l-13.4 0Z" id="p82w241" />
<path d="M295.32 747.44l19.84 0l0 15.09l-19.84 0Z" id="p82w242" />
<path d="M318.78 747.44l24.24 0l0 15.09l-24.24 0Z" id="p82w243" />
<path d="M346.63 747.44l49.78 0l0 15.09l-49.78 0Z" id="p82w244" />
<path d="M124.06 764.11l25.69 0l0 15.09l-25.69 0Z" id="p82w245" />
<path d="M153.36 764.11l56.18 0l0 15.09l-56.18 0Z" id="p82w246" />
<path d="M213.15 764.11l19.01 0l0 15.09l-19.01 0Z" id="p82w247" />
<path d="M235.77 764.11l14.59 0l0 15.09l-14.59 0Z" id="p82w248" />
<path d="M253.96 764.11l15.56 0l0 15.09l-15.56 0Z" id="p82w249" />
<path d="M283.24 764.11l23.88 0l0 15.09l-23.88 0Z" id="p82w250" />
<path d="M310.73 764.11l19.1 0l0 15.09l-19.1 0Z" id="p82w251" />
<path d="M124.06 780.77l12.99 0l0 15.09l-12.99 0Z" id="p82w252" />
<path d="M140.66 780.77l67.06 0l0 15.09l-67.06 0Z" id="p82w253" />
<path d="M221.44 780.77l45.56 0l0 15.09l-45.56 0Z" id="p82w254" />
<path d="M270.61 780.77l24.24 0l0 15.09l-24.24 0Z" id="p82w255" />
<path d="M298.46 780.77l15.74 0l0 15.09l-15.74 0Z" id="p82w256" />
<path d="M317.81 780.77l69.49 0l0 15.09l-69.49 0Z" id="p82w257" />
<path d="M124.06 797.44l27.82 0l0 15.09l-27.82 0Z" id="p82w258" />
<path d="M155.49 797.44l10.42 0l0 15.09l-10.42 0Z" id="p82w259" />
<path d="M169.53 797.44l41.4 0l0 15.09l-41.4 0Z" id="p82w260" />
<path d="M214.54 797.44l38.09 0l0 15.09l-38.09 0Z" id="p82w261" />
<path d="M263.37 797.44l22.31 0l0 15.09l-22.31 0Z" id="p82w262" />
<path d="M289.29 797.44l67.11 0l0 15.09l-67.11 0Z" id="p82w263" />
<path d="M360.02 797.44l14.59 0l0 15.09l-14.59 0Z" id="p82w264" />
<path d="M124.06 814.11l28.21 0l0 15.09l-28.21 0Z" id="p82w265" />
<path d="M159.44 814.11l22.31 0l0 15.09l-22.31 0Z" id="p82w266" />
<path d="M185.36 814.11l33.07 0l0 15.09l-33.07 0Z" id="p82w267" />
<path d="M222.04 814.11l13.91 0l0 15.09l-13.91 0Z" id="p82w268" />
<path d="M239.56 814.11l38.45 0l0 15.09l-38.45 0Z" id="p82w269" />
<path d="M298.27 814.11l21.96 0l0 15.09l-21.96 0Z" id="p82w270" />
<path d="M323.84 814.11l15.89 0l0 15.09l-15.89 0Z" id="p82w271" />
<path d="M343.34 814.11l33.63 0l0 15.09l-33.63 0Z" id="p82w272" />
<path d="M124.06 830.78l63.24 0l0 15.09l-63.24 0Z" id="p82w273" />
<path d="M190.91 830.78l28.56 0l0 15.09l-28.56 0Z" id="p82w274" />
<path d="M223.08 830.78l20.54 0l0 15.09l-20.54 0Z" id="p82w275" />
<path d="M247.23 830.78l67 0l0 15.09l-67 0Z" id="p82w276" />
<path d="M317.84 830.78l34.12 0l0 15.09l-34.12 0Z" id="p82w277" />
<path d="M355.57 830.78l25.28 0l0 15.09l-25.28 0Z" id="p82w278" />
<path d="M124.06 847.45l19.29 0l0 15.09l-19.29 0Z" id="p82w279" />
<path d="M146.96 847.45l95.48 0l0 15.09l-95.48 0Z" id="p82w280" />
<path d="M246.05 847.45l13.07 0l0 15.09l-13.07 0Z" id="p82w281" />
<path d="M262.73 847.45l24.98 0l0 15.09l-24.98 0Z" id="p82w282" />
<path d="M291.33 847.45l45.84 0l0 15.09l-45.84 0Z" id="p82w283" />
<path d="M340.78 847.45l23.61 0l0 15.09l-23.61 0Z" id="p82w284" />
<path d="M368 847.45l29.96 0l0 15.09l-29.96 0Z" id="p82w285" />
<path d="M124.06 864.12l13.91 0l0 15.09l-13.91 0Z" id="p82w286" />
<path d="M141.57 864.12l10.42 0l0 15.09l-10.42 0Z" id="p82w287" />
<path d="M155.61 864.12l46.13 0l0 15.09l-46.13 0Z" id="p82w288" />
<path d="M205.35 864.12l22.03 0l0 15.09l-22.03 0Z" id="p82w289" />
<path d="M230.99 864.12l28.31 0l0 15.09l-28.31 0Z" id="p82w290" />
<path d="M262.91 864.12l13.91 0l0 15.09l-13.91 0Z" id="p82w291" />
<path d="M280.43 864.12l20.54 0l0 15.09l-20.54 0Z" id="p82w292" />
<path d="M304.58 864.12l39.96 0l0 15.09l-39.96 0Z" id="p82w293" />
<path d="M348.14 864.12l25.69 0l0 15.09l-25.69 0Z" id="p82w294" />
<path d="M124.06 880.79l10.42 0l0 15.09l-10.42 0Z" id="p82w295" />
<path d="M138.09 880.79l42.04 0l0 15.09l-42.04 0Z" id="p82w296" />
<path d="M62.26 100.72l25.7 0l0 12.3l-25.7 0Z" id="p82w297" />
<path d="M124.06 39.02l46.09 0l0 15.38l-46.09 0Z" id="p82w298" />
<path d="M208.74 39.02l46.59 0l0 15.38l-46.59 0Z" id="p82w299" />
<path d="M307.2 38.6l45.06 0l0 16.09l-45.06 0Z" id="p82w300" />
<path d="M406.45 39.02l32.54 0l0 15.38l-32.54 0Z" id="p82w301" />
<path d="M76.9 983l62.45 0l0 12.23l-62.45 0Z" id="p82w302" />
</svg>
