<?xml version="1.0" encoding="UTF-8"?>
<svg xmlns="http://www.w3.org/2000/svg" xmlns:xlink="http://www.w3.org/1999/xlink" version="1.1" baseProfile="full" width="768" height="1024" viewBox="0,0,768,1024" preserveAspectRatio="xMinYMin meet" >
<style type="text/css">
<![CDATA[
path {fill-opacity: 0.5;fill: #00aeef;visibility: hidden;}
]]>
</style>
<path d="M124.06 107.98l18.36 0l0 18.84l-18.36 0Z" id="p145w1" />
<path d="M146.07 107.98l56.09 0l0 18.84l-56.09 0Z" id="p145w2" />
<path d="M124.06 139.19l31.01 0l0 14.52l-31.01 0Z" id="p145w3" />
<path d="M158.27 139.19l56.65 0l0 14.52l-56.65 0Z" id="p145w4" />
<path d="M218.13 139.19l29.67 0l0 14.52l-29.67 0Z" id="p145w5" />
<path d="M251.01 139.19l11.22 0l0 14.52l-11.22 0Z" id="p145w6" />
<path d="M265.44 139.19l25.12 0l0 14.52l-25.12 0Z" id="p145w7" />
<path d="M293.77 139.19l47.86 0l0 14.52l-47.86 0Z" id="p145w8" />
<path d="M344.83 139.19l33.05 0l0 14.52l-33.05 0Z" id="p145w9" />
<path d="M381.09 139.19l30.23 0l0 14.52l-30.23 0Z" id="p145w10" />
<path d="M414.53 139.19l33.41 0l0 14.52l-33.41 0Z" id="p145w11" />
<path d="M451.14 139.19l13.9 0l0 14.52l-13.9 0Z" id="p145w12" />
<path d="M468.25 139.19l33.67 0l0 14.52l-33.67 0Z" id="p145w13" />
<path d="M513.41 139.19l18.44 0l0 14.52l-18.44 0Z" id="p145w14" />
<path d="M535.06 139.19l36.88 0l0 14.52l-36.88 0Z" id="p145w15" />
<path d="M575.15 139.19l11.22 0l0 14.52l-11.22 0Z" id="p145w16" />
<path d="M124.06 155.86l65.22 0l0 14.52l-65.22 0Z" id="p145w17" />
<path d="M192.49 155.86l45.8 0l0 14.52l-45.8 0Z" id="p145w18" />
<path d="M241.5 155.86l45.45 0l0 14.52l-45.45 0Z" id="p145w19" />
<path d="M290.15 155.86l25.67 0l0 14.52l-25.67 0Z" id="p145w20" />
<path d="M319.03 155.86l29.69 0l0 14.52l-29.69 0Z" id="p145w21" />
<path d="M351.92 155.86l50.54 0l0 14.52l-50.54 0Z" id="p145w22" />
<path d="M405.67 155.86l19.51 0l0 14.52l-19.51 0Z" id="p145w23" />
<path d="M428.38 155.86l47.74 0l0 14.52l-47.74 0Z" id="p145w24" />
<path d="M479.33 155.86l28.06 0l0 14.52l-28.06 0Z" id="p145w25" />
<path d="M510.6 155.86l9.89 0l0 14.52l-9.89 0Z" id="p145w26" />
<path d="M523.7 155.86l52.34 0l0 14.52l-52.34 0Z" id="p145w27" />
<path d="M672.28 155.86l13.11 0l0 14.52l-13.11 0Z" id="p145w28" />
<path d="M688.6 155.86l18.89 0l0 14.52l-18.89 0Z" id="p145w29" />
<path d="M124.06 589.35l34.74 0l0 14.52l-34.74 0Z" id="p145w30" />
<path d="M162.01 589.35l28.33 0l0 14.52l-28.33 0Z" id="p145w31" />
<path d="M193.54 589.35l13.9 0l0 14.52l-13.9 0Z" id="p145w32" />
<path d="M210.65 589.35l12.57 0l0 14.52l-12.57 0Z" id="p145w33" />
<path d="M226.42 589.35l35.82 0l0 14.52l-35.82 0Z" id="p145w34" />
<path d="M275.34 589.35l18.7 0l0 14.52l-18.7 0Z" id="p145w35" />
<path d="M297.25 589.35l31.1 0l0 14.52l-31.1 0Z" id="p145w36" />
<path d="M331.55 589.35l13.9 0l0 14.52l-13.9 0Z" id="p145w37" />
<path d="M348.66 589.35l49 0l0 14.52l-49 0Z" id="p145w38" />
<path d="M133.95 606.02l34.21 0l0 14.52l-34.21 0Z" id="p145w39" />
<path d="M171.37 606.02l13.9 0l0 14.52l-13.9 0Z" id="p145w40" />
<path d="M188.47 606.02l28.88 0l0 14.52l-28.88 0Z" id="p145w41" />
<path d="M220.56 606.02l39.28 0l0 14.52l-39.28 0Z" id="p145w42" />
<path d="M263.05 606.02l15.5 0l0 14.52l-15.5 0Z" id="p145w43" />
<path d="M281.75 606.02l36.88 0l0 14.52l-36.88 0Z" id="p145w44" />
<path d="M321.84 606.02l13.63 0l0 14.52l-13.63 0Z" id="p145w45" />
<path d="M338.68 606.02l35 0l0 14.52l-35 0Z" id="p145w46" />
<path d="M376.89 606.02l14.18 0l0 14.52l-14.18 0Z" id="p145w47" />
<path d="M124.06 622.69l31.8 0l0 14.52l-31.8 0Z" id="p145w48" />
<path d="M159.07 622.69l41.71 0l0 14.52l-41.71 0Z" id="p145w49" />
<path d="M238.49 622.7l53.99 0l0 14.52l-53.99 0Z" id="p145w50" />
<path d="M324.27 622.7l31.8 0l0 14.52l-31.8 0Z" id="p145w51" />
<path d="M124.06 639.37l52.94 0l0 14.52l-52.94 0Z" id="p145w52" />
<path d="M208.79 639.37l92.58 0l0 14.52l-92.58 0Z" id="p145w53" />
<path d="M304.58 639.37l11.22 0l0 14.52l-11.22 0Z" id="p145w54" />
<path d="M319.01 639.37l52.94 0l0 14.52l-52.94 0Z" id="p145w55" />
<path d="M124.07 656.04l50.01 0l0 14.52l-50.01 0Z" id="p145w56" />
<path d="M177.29 656.04l14.18 0l0 14.52l-14.18 0Z" id="p145w57" />
<path d="M194.67 656.04l33.41 0l0 14.52l-33.41 0Z" id="p145w58" />
<path d="M231.29 656.04l12.57 0l0 14.52l-12.57 0Z" id="p145w59" />
<path d="M247.06 656.04l37.68 0l0 14.52l-37.68 0Z" id="p145w60" />
<path d="M374.02 656.04l13.11 0l0 14.52l-13.11 0Z" id="p145w61" />
<path d="M390.34 656.04l20.14 0l0 14.52l-20.14 0Z" id="p145w62" />
<path d="M143.76 681.06l23.24 0l0 14.52l-23.24 0Z" id="p145w63" />
<path d="M170.21 681.06l42.49 0l0 14.52l-42.49 0Z" id="p145w64" />
<path d="M234.86 681.06l36.09 0l0 14.52l-36.09 0Z" id="p145w65" />
<path d="M274.16 681.06l14.18 0l0 14.52l-14.18 0Z" id="p145w66" />
<path d="M291.54 681.06l28.6 0l0 14.52l-28.6 0Z" id="p145w67" />
<path d="M333.24 681.06l51.61 0l0 14.52l-51.61 0Z" id="p145w68" />
<path d="M143.76 697.73l20.85 0l0 14.52l-20.85 0Z" id="p145w69" />
<path d="M167.82 697.73l32.87 0l0 14.52l-32.87 0Z" id="p145w70" />
<path d="M203.9 697.73l22.45 0l0 14.52l-22.45 0Z" id="p145w71" />
<path d="M229.56 697.73l24.05 0l0 14.52l-24.05 0Z" id="p145w72" />
<path d="M256.81 697.73l13.9 0l0 14.52l-13.9 0Z" id="p145w73" />
<path d="M273.92 697.73l55.36 0l0 14.52l-55.36 0Z" id="p145w74" />
<path d="M143.76 714.4l36.63 0l0 14.52l-36.63 0Z" id="p145w75" />
<path d="M183.59 714.4l26.74 0l0 14.52l-26.74 0Z" id="p145w76" />
<path d="M232.5 714.4l30.99 0l0 14.52l-30.99 0Z" id="p145w77" />
<path d="M266.7 714.4l34.48 0l0 14.52l-34.48 0Z" id="p145w78" />
<path d="M304.38 714.4l25.13 0l0 14.52l-25.13 0Z" id="p145w79" />
<path d="M332.72 714.4l26.72 0l0 14.52l-26.72 0Z" id="p145w80" />
<path d="M362.64 714.4l11.22 0l0 14.52l-11.22 0Z" id="p145w81" />
<path d="M377.07 714.4l21.12 0l0 14.52l-21.12 0Z" id="p145w82" />
<path d="M143.76 731.07l15.5 0l0 14.52l-15.5 0Z" id="p145w83" />
<path d="M181.42 731.07l58.54 0l0 14.52l-58.54 0Z" id="p145w84" />
<path d="M253.05 731.07l34.21 0l0 14.52l-34.21 0Z" id="p145w85" />
<path d="M290.47 731.07l30.73 0l0 14.52l-30.73 0Z" id="p145w86" />
<path d="M324.41 731.07l37.17 0l0 14.52l-37.17 0Z" id="p145w87" />
<path d="M143.76 747.74l21.12 0l0 14.52l-21.12 0Z" id="p145w88" />
<path d="M168.09 747.74l5.35 0l0 14.52l-5.35 0Z" id="p145w89" />
<path d="M194.04 747.75l45.17 0l0 14.52l-45.17 0Z" id="p145w90" />
<path d="M242.41 747.75l12.57 0l0 14.52l-12.57 0Z" id="p145w91" />
<path d="M264.6 747.75l59.7 0l0 14.52l-59.7 0Z" id="p145w92" />
<path d="M337.39 747.75l36.89 0l0 14.52l-36.89 0Z" id="p145w93" />
<path d="M143.76 764.42l15.5 0l0 14.52l-15.5 0Z" id="p145w94" />
<path d="M162.46 764.42l39.03 0l0 14.52l-39.03 0Z" id="p145w95" />
<path d="M204.7 764.42l9.89 0l0 14.52l-9.89 0Z" id="p145w96" />
<path d="M217.8 764.42l32.59 0l0 14.52l-32.59 0Z" id="p145w97" />
<path d="M253.59 764.42l13.9 0l0 14.52l-13.9 0Z" id="p145w98" />
<path d="M270.7 764.42l41.45 0l0 14.52l-41.45 0Z" id="p145w99" />
<path d="M143.76 781.09l30.74 0l0 14.52l-30.74 0Z" id="p145w100" />
<path d="M177.71 781.09l30.73 0l0 14.52l-30.73 0Z" id="p145w101" />
<path d="M211.64 781.09l9.89 0l0 14.52l-9.89 0Z" id="p145w102" />
<path d="M224.74 781.09l31.02 0l0 14.52l-31.02 0Z" id="p145w103" />
<path d="M258.96 781.09l9.62 0l0 14.52l-9.62 0Z" id="p145w104" />
<path d="M276.83 781.09l5.35 0l0 14.52l-5.35 0Z" id="p145w105" />
<path d="M302.78 781.09l32.87 0l0 14.52l-32.87 0Z" id="p145w106" />
<path d="M338.86 781.09l26.73 0l0 14.52l-26.73 0Z" id="p145w107" />
<path d="M368.79 781.09l20.85 0l0 14.52l-20.85 0Z" id="p145w108" />
<path d="M392.86 781.09l29.41 0l0 14.52l-29.41 0Z" id="p145w109" />
<path d="M425.47 781.09l65.39 0l0 14.52l-65.39 0Z" id="p145w110" />
<path d="M494.07 781.09l34.58 0l0 14.52l-34.58 0Z" id="p145w111" />
<path d="M531.86 781.09l9.62 0l0 14.52l-9.62 0Z" id="p145w112" />
<path d="M549.73 781.09l5.35 0l0 14.52l-5.35 0Z" id="p145w113" />
<path d="M575.68 781.09l33.94 0l0 14.52l-33.94 0Z" id="p145w114" />
<path d="M612.83 781.09l14.18 0l0 14.52l-14.18 0Z" id="p145w115" />
<path d="M143.75 797.76l19.79 0l0 14.52l-19.79 0Z" id="p145w116" />
<path d="M166.74 797.76l77.8 0l0 14.52l-77.8 0Z" id="p145w117" />
<path d="M143.75 814.43l42.77 0l0 14.52l-42.77 0Z" id="p145w118" />
<path d="M189.72 814.43l9.62 0l0 14.52l-9.62 0Z" id="p145w119" />
<path d="M207.59 814.43l5.35 0l0 14.52l-5.35 0Z" id="p145w120" />
<path d="M233.55 814.44l31.01 0l0 14.52l-31.01 0Z" id="p145w121" />
<path d="M267.77 814.44l49.74 0l0 14.52l-49.74 0Z" id="p145w122" />
<path d="M320.71 814.44l26.73 0l0 14.52l-26.73 0Z" id="p145w123" />
<path d="M350.65 814.44l9.89 0l0 14.52l-9.89 0Z" id="p145w124" />
<path d="M363.74 814.44l39.03 0l0 14.52l-39.03 0Z" id="p145w125" />
<path d="M405.98 814.44l13.9 0l0 14.52l-13.9 0Z" id="p145w126" />
<path d="M423.08 814.44l61.21 0l0 14.52l-61.21 0Z" id="p145w127" />
<path d="M487.5 814.44l15.5 0l0 14.52l-15.5 0Z" id="p145w128" />
<path d="M506.2 814.44l37.68 0l0 14.52l-37.68 0Z" id="p145w129" />
<path d="M566.05 814.44l30.99 0l0 14.52l-30.99 0Z" id="p145w130" />
<path d="M600.25 814.44l30.46 0l0 14.52l-30.46 0Z" id="p145w131" />
<path d="M143.75 831.11l35.55 0l0 14.52l-35.55 0Z" id="p145w132" />
<path d="M182.5 831.11l25.67 0l0 14.52l-25.67 0Z" id="p145w133" />
<path d="M211.38 831.11l23.8 0l0 14.52l-23.8 0Z" id="p145w134" />
<path d="M143.75 847.78l31.8 0l0 14.52l-31.8 0Z" id="p145w135" />
<path d="M178.75 847.78l17.63 0l0 14.52l-17.63 0Z" id="p145w136" />
<path d="M199.59 847.78l58.01 0l0 14.52l-58.01 0Z" id="p145w137" />
<path d="M260.81 847.78l9.62 0l0 14.52l-9.62 0Z" id="p145w138" />
<path d="M278.68 847.78l5.35 0l0 14.52l-5.35 0Z" id="p145w139" />
<path d="M304.65 847.78l39.28 0l0 14.52l-39.28 0Z" id="p145w140" />
<path d="M357.02 847.78l32.35 0l0 14.52l-32.35 0Z" id="p145w141" />
<path d="M392.58 847.78l31.01 0l0 14.52l-31.01 0Z" id="p145w142" />
<path d="M426.79 847.78l20.85 0l0 14.52l-20.85 0Z" id="p145w143" />
<path d="M450.85 847.78l9.62 0l0 14.52l-9.62 0Z" id="p145w144" />
<path d="M468.73 847.78l5.35 0l0 14.52l-5.35 0Z" id="p145w145" />
<path d="M494.68 847.78l53.19 0l0 14.52l-53.19 0Z" id="p145w146" />
<path d="M551.08 847.78l20.85 0l0 14.52l-20.85 0Z" id="p145w147" />
<path d="M575.14 847.78l63.37 0l0 14.52l-63.37 0Z" id="p145w148" />
<path d="M641.72 847.78l26.73 0l0 14.52l-26.73 0Z" id="p145w149" />
<path d="M143.75 864.45l14.18 0l0 14.52l-14.18 0Z" id="p145w150" />
<path d="M161.13 864.45l28.6 0l0 14.52l-28.6 0Z" id="p145w151" />
<path d="M202.57 864.45l39.56 0l0 14.52l-39.56 0Z" id="p145w152" />
<path d="M143.75 881.12l12.83 0l0 14.52l-12.83 0Z" id="p145w153" />
<path d="M159.79 881.12l16.04 0l0 14.52l-16.04 0Z" id="p145w154" />
<path d="M179.03 881.12l33.05 0l0 14.52l-33.05 0Z" id="p145w155" />
<path d="M234.25 881.13l30.99 0l0 14.52l-30.99 0Z" id="p145w156" />
<path d="M268.45 881.13l40.83 0l0 14.52l-40.83 0Z" id="p145w157" />
<path d="M312.49 881.13l11.22 0l0 14.52l-11.22 0Z" id="p145w158" />
<path d="M326.91 881.13l23.24 0l0 14.52l-23.24 0Z" id="p145w159" />
<path d="M353.36 881.13l52.34 0l0 14.52l-52.34 0Z" id="p145w160" />
<path d="M418.79 881.13l32.35 0l0 14.52l-32.35 0Z" id="p145w161" />
<path d="M473.31 881.13l30.99 0l0 14.52l-30.99 0Z" id="p145w162" />
<path d="M507.51 881.13l49.71 0l0 14.52l-49.71 0Z" id="p145w163" />
<path d="M560.43 881.13l21.37 0l0 14.52l-21.37 0Z" id="p145w164" />
<path d="M585 881.13l44.64 0l0 14.52l-44.64 0Z" id="p145w165" />
<path d="M143.75 897.8l26.45 0l0 14.52l-26.45 0Z" id="p145w166" />
<path d="M173.41 897.8l6.41 0l0 14.52l-6.41 0Z" id="p145w167" />
<path d="M202.01 897.8l26.74 0l0 14.52l-26.74 0Z" id="p145w168" />
<path d="M231.96 897.8l22.19 0l0 14.52l-22.19 0Z" id="p145w169" />
<path d="M257.36 897.8l17.63 0l0 14.52l-17.63 0Z" id="p145w170" />
<path d="M278.2 897.8l38.21 0l0 14.52l-38.21 0Z" id="p145w171" />
<path d="M319.62 897.8l11.22 0l0 14.52l-11.22 0Z" id="p145w172" />
<path d="M334.04 897.8l48.93 0l0 14.52l-48.93 0Z" id="p145w173" />
<path d="M405.14 897.8l74.31 0l0 14.52l-74.31 0Z" id="p145w174" />
<path d="M492.55 897.8l17.63 0l0 14.52l-17.63 0Z" id="p145w175" />
<path d="M513.39 897.8l51.61 0l0 14.52l-51.61 0Z" id="p145w176" />
<path d="M143.76 914.47l10.43 0l0 14.52l-10.43 0Z" id="p145w177" />
<path d="M162.43 914.47l6.15 0l0 14.52l-6.15 0Z" id="p145w178" />
<path d="M189.19 914.47l18.18 0l0 14.52l-18.18 0Z" id="p145w179" />
<path d="M210.58 914.47l19.51 0l0 14.52l-19.51 0Z" id="p145w180" />
<path d="M242.39 914.47l42.22 0l0 14.52l-42.22 0Z" id="p145w181" />
<path d="M287.82 914.47l31.1 0l0 14.52l-31.1 0Z" id="p145w182" />
<path d="M322.12 914.47l13.9 0l0 14.52l-13.9 0Z" id="p145w183" />
<path d="M339.23 914.47l44.05 0l0 14.52l-44.05 0Z" id="p145w184" />
<path d="M386.48 914.47l11.5 0l0 14.52l-11.5 0Z" id="p145w185" />
<path d="M401.19 914.47l24.85 0l0 14.52l-24.85 0Z" id="p145w186" />
<path d="M429.25 914.47l25.67 0l0 14.52l-25.67 0Z" id="p145w187" />
<path d="M458.13 914.47l28.33 0l0 14.52l-28.33 0Z" id="p145w188" />
<path d="M489.66 914.47l33.95 0l0 14.52l-33.95 0Z" id="p145w189" />
<path d="M526.82 914.47l20.85 0l0 14.52l-20.85 0Z" id="p145w190" />
<path d="M550.88 914.47l9.62 0l0 14.52l-9.62 0Z" id="p145w191" />
<path d="M582.67 914.47l47.57 0l0 14.52l-47.57 0Z" id="p145w192" />
<path d="M633.44 914.47l13.9 0l0 14.52l-13.9 0Z" id="p145w193" />
<path d="M650.55 914.47l39.57 0l0 14.52l-39.57 0Z" id="p145w194" />
<path d="M128.97 488.56l42.24 0l0 14.52l-42.24 0Z" id="p145w195" />
<path d="M174.42 488.56l14.44 0l0 14.52l-14.44 0Z" id="p145w196" />
<path d="M128.97 516.8l51.6 0l0 14.52l-51.6 0Z" id="p145w197" />
<path d="M183.78 516.8l14.18 0l0 14.52l-14.18 0Z" id="p145w198" />
<path d="M201.16 516.8l45.45 0l0 14.52l-45.45 0Z" id="p145w199" />
<path d="M259.7 516.8l14.44 0l0 14.52l-14.44 0Z" id="p145w200" />
<path d="M128.97 545.24l32.87 0l0 14.52l-32.87 0Z" id="p145w201" />
<path d="M165.05 545.24l13.9 0l0 14.52l-13.9 0Z" id="p145w202" />
<path d="M182.15 545.24l13.11 0l0 14.52l-13.11 0Z" id="p145w203" />
<path d="M319.06 488.56l47.77 0l0 14.52l-47.77 0Z" id="p145w204" />
<path d="M370.04 488.56l14.44 0l0 14.52l-14.44 0Z" id="p145w205" />
<path d="M319.06 516.8l39.84 0l0 14.52l-39.84 0Z" id="p145w206" />
<path d="M362.11 516.8l14.18 0l0 14.52l-14.18 0Z" id="p145w207" />
<path d="M379.49 516.8l23.79 0l0 14.52l-23.79 0Z" id="p145w208" />
<path d="M416.37 516.8l14.44 0l0 14.52l-14.44 0Z" id="p145w209" />
<path d="M319.06 545.24l12.29 0l0 14.52l-12.29 0Z" id="p145w210" />
<path d="M334.56 545.24l27.26 0l0 14.52l-27.26 0Z" id="p145w211" />
<path d="M475.73 488.56l28.33 0l0 14.52l-28.33 0Z" id="p145w212" />
<path d="M507.26 488.56l14.44 0l0 14.52l-14.44 0Z" id="p145w213" />
<path d="M475.73 516.9l45.43 0l0 14.52l-45.43 0Z" id="p145w214" />
<path d="M524.37 516.9l14.18 0l0 14.52l-14.18 0Z" id="p145w215" />
<path d="M541.75 516.9l28.33 0l0 14.52l-28.33 0Z" id="p145w216" />
<path d="M583.17 516.9l14.44 0l0 14.52l-14.44 0Z" id="p145w217" />
<path d="M475.73 545.24l36.34 0l0 14.52l-36.34 0Z" id="p145w218" />
<path d="M515.27 545.24l14.18 0l0 14.52l-14.18 0Z" id="p145w219" />
<path d="M532.66 545.24l36.91 0l0 14.52l-36.91 0Z" id="p145w220" />
<path d="M582.66 545.24l14.44 0l0 14.52l-14.44 0Z" id="p145w221" />
<path d="M473.59 310.3l10.43 0l0 14.52l-10.43 0Z" id="p145w222" />
<path d="M487.22 310.3l19.07 0l0 14.52l-19.07 0Z" id="p145w223" />
<path d="M509.5 310.3l19.51 0l0 14.52l-19.51 0Z" id="p145w224" />
<path d="M532.22 310.3l44.38 0l0 14.52l-44.38 0Z" id="p145w225" />
<path d="M456.44 325.59l72.11 0l0 14.52l-72.11 0Z" id="p145w226" />
<path d="M531.76 325.59l14.43 0l0 14.52l-14.43 0Z" id="p145w227" />
<path d="M549.39 325.59l11.22 0l0 14.52l-11.22 0Z" id="p145w228" />
<path d="M563.82 325.59l29.94 0l0 14.52l-29.94 0Z" id="p145w229" />
<path d="M68.27 38.6l16.59 0l0 16.09l-16.59 0Z" id="p145w230" />
<path d="M88.23 38.6l28.66 0l0 16.09l-28.66 0Z" id="p145w231" />
<path d="M131.1 38.6l99.65 0l0 16.09l-99.65 0Z" id="p145w232" />
<path d="M601.44 983l89.67 0l0 12.23l-89.67 0Z" id="p145w233" />
</svg>
