<?xml version="1.0" encoding="UTF-8"?>
<svg xmlns="http://www.w3.org/2000/svg" xmlns:xlink="http://www.w3.org/1999/xlink" version="1.1" baseProfile="full" width="768" height="1024" viewBox="0,0,768,1024" preserveAspectRatio="xMinYMin meet" >
<style type="text/css">
<![CDATA[
path {fill-opacity: 0.5;fill: #00aeef;visibility: hidden;}
]]>
</style>
<path d="M124.06 113.89l12.22 0l0 15.09l-12.22 0Z" id="p31w1" />
<path d="M139.9 113.89l7.84 0l0 15.09l-7.84 0Z" id="p31w2" />
<path d="M151.35 113.89l28.12 0l0 15.09l-28.12 0Z" id="p31w3" />
<path d="M183.08 113.89l22.31 0l0 15.09l-22.31 0Z" id="p31w4" />
<path d="M209 113.89l24.92 0l0 15.09l-24.92 0Z" id="p31w5" />
<path d="M237.53 113.89l32.64 0l0 15.09l-32.64 0Z" id="p31w6" />
<path d="M280.74 113.89l21.35 0l0 15.09l-21.35 0Z" id="p31w7" />
<path d="M305.7 113.89l26.86 0l0 15.09l-26.86 0Z" id="p31w8" />
<path d="M336.17 113.89l19.84 0l0 15.09l-19.84 0Z" id="p31w9" />
<path d="M359.63 113.89l54.61 0l0 15.09l-54.61 0Z" id="p31w10" />
<path d="M417.84 113.89l47.14 0l0 15.09l-47.14 0Z" id="p31w11" />
<path d="M468.6 113.89l19.84 0l0 15.09l-19.84 0Z" id="p31w12" />
<path d="M492.05 113.89l64.53 0l0 15.09l-64.53 0Z" id="p31w13" />
<path d="M570.29 113.89l41.7 0l0 15.09l-41.7 0Z" id="p31w14" />
<path d="M124.06 130.56l33.58 0l0 15.09l-33.58 0Z" id="p31w15" />
<path d="M161.26 130.56l22.31 0l0 15.09l-22.31 0Z" id="p31w16" />
<path d="M187.18 130.56l67.38 0l0 15.09l-67.38 0Z" id="p31w17" />
<path d="M258.17 130.56l13.91 0l0 15.09l-13.91 0Z" id="p31w18" />
<path d="M275.69 130.56l47.54 0l0 15.09l-47.54 0Z" id="p31w19" />
<path d="M326.84 130.56l15.89 0l0 15.09l-15.89 0Z" id="p31w20" />
<path d="M346.34 130.56l26.5 0l0 15.09l-26.5 0Z" id="p31w21" />
<path d="M376.45 130.56l44.61 0l0 15.09l-44.61 0Z" id="p31w22" />
<path d="M424.67 130.56l19.84 0l0 15.09l-19.84 0Z" id="p31w23" />
<path d="M448.12 130.56l34.96 0l0 15.09l-34.96 0Z" id="p31w24" />
<path d="M486.69 130.56l10.42 0l0 15.09l-10.42 0Z" id="p31w25" />
<path d="M500.73 130.56l32.63 0l0 15.09l-32.63 0Z" id="p31w26" />
<path d="M536.97 130.56l25.63 0l0 15.09l-25.63 0Z" id="p31w27" />
<path d="M566.21 130.56l15.89 0l0 15.09l-15.89 0Z" id="p31w28" />
<path d="M124.06 147.23l38.32 0l0 15.09l-38.32 0Z" id="p31w29" />
<path d="M166 147.23l15.06 0l0 15.09l-15.06 0Z" id="p31w30" />
<path d="M184.67 147.23l39.79 0l0 15.09l-39.79 0Z" id="p31w31" />
<path d="M138.66 180.58l27.08 0l0 15.09l-27.08 0Z" id="p31w32" />
<path d="M169.35 180.58l41.29 0l0 15.09l-41.29 0Z" id="p31w33" />
<path d="M214.26 180.58l23.61 0l0 15.09l-23.61 0Z" id="p31w34" />
<path d="M241.48 180.58l45.7 0l0 15.09l-45.7 0Z" id="p31w35" />
<path d="M290.79 180.58l40.8 0l0 15.09l-40.8 0Z" id="p31w36" />
<path d="M335.21 180.58l42.21 0l0 15.09l-42.21 0Z" id="p31w37" />
<path d="M124.06 197.25l37.93 0l0 15.09l-37.93 0Z" id="p31w38" />
<path d="M165.6 197.25l19.46 0l0 15.09l-19.46 0Z" id="p31w39" />
<path d="M188.67 197.25l53.76 0l0 15.09l-53.76 0Z" id="p31w40" />
<path d="M246.04 197.25l45.21 0l0 15.09l-45.21 0Z" id="p31w41" />
<path d="M302 197.25l14.86 0l0 15.09l-14.86 0Z" id="p31w42" />
<path d="M320.47 197.25l26.35 0l0 15.09l-26.35 0Z" id="p31w43" />
<path d="M350.42 197.25l43.7 0l0 15.09l-43.7 0Z" id="p31w44" />
<path d="M124.06 213.92l38.43 0l0 15.09l-38.43 0Z" id="p31w45" />
<path d="M166.1 213.92l24.79 0l0 15.09l-24.79 0Z" id="p31w46" />
<path d="M194.5 213.92l19.68 0l0 15.09l-19.68 0Z" id="p31w47" />
<path d="M217.79 213.92l13.91 0l0 15.09l-13.91 0Z" id="p31w48" />
<path d="M235.31 213.92l15.89 0l0 15.09l-15.89 0Z" id="p31w49" />
<path d="M254.8 213.92l37.05 0l0 15.09l-37.05 0Z" id="p31w50" />
<path d="M295.47 213.92l28.99 0l0 15.09l-28.99 0Z" id="p31w51" />
<path d="M136.34 230.59l12.66 0l0 15.09l-12.66 0Z" id="p31w52" />
<path d="M152.61 230.59l54.03 0l0 15.09l-54.03 0Z" id="p31w53" />
<path d="M210.25 230.59l15.74 0l0 15.09l-15.74 0Z" id="p31w54" />
<path d="M229.6 230.59l45.84 0l0 15.09l-45.84 0Z" id="p31w55" />
<path d="M279.06 230.59l16.64 0l0 15.09l-16.64 0Z" id="p31w56" />
<path d="M299.31 230.59l28.98 0l0 15.09l-28.98 0Z" id="p31w57" />
<path d="M331.9 230.59l24.01 0l0 15.09l-24.01 0Z" id="p31w58" />
<path d="M359.52 230.59l24.66 0l0 15.09l-24.66 0Z" id="p31w59" />
<path d="M124.06 257.67l10.83 0l0 12.29l-10.83 0Z" id="p31w60" />
<path d="M137.59 257.67l44.33 0l0 12.29l-44.33 0Z" id="p31w61" />
<path d="M191.15 255.61l47.54 0l0 15.09l-47.54 0Z" id="p31w62" />
<path d="M242.3 255.61l10.54 0l0 15.09l-10.54 0Z" id="p31w63" />
<path d="M256.45 255.61l18.6 0l0 15.09l-18.6 0Z" id="p31w64" />
<path d="M278.66 255.61l50.77 0l0 15.09l-50.77 0Z" id="p31w65" />
<path d="M340.17 255.61l45.3 0l0 15.09l-45.3 0Z" id="p31w66" />
<path d="M135.87 272.28l76.56 0l0 15.09l-76.56 0Z" id="p31w67" />
<path d="M216.05 272.28l57.31 0l0 15.09l-57.31 0Z" id="p31w68" />
<path d="M276.96 272.28l15.89 0l0 15.09l-15.89 0Z" id="p31w69" />
<path d="M296.46 272.28l49.36 0l0 15.09l-49.36 0Z" id="p31w70" />
<path d="M349.44 272.28l48.71 0l0 15.09l-48.71 0Z" id="p31w71" />
<path d="M135.87 288.95l15.89 0l0 15.09l-15.89 0Z" id="p31w72" />
<path d="M155.37 288.95l50.84 0l0 15.09l-50.84 0Z" id="p31w73" />
<path d="M209.82 288.95l15.06 0l0 15.09l-15.06 0Z" id="p31w74" />
<path d="M228.5 288.95l68.87 0l0 15.09l-68.87 0Z" id="p31w75" />
<path d="M300.98 288.95l17.38 0l0 15.09l-17.38 0Z" id="p31w76" />
<path d="M321.97 288.95l19.62 0l0 15.09l-19.62 0Z" id="p31w77" />
<path d="M135.87 305.62l77.3 0l0 15.09l-77.3 0Z" id="p31w78" />
<path d="M216.79 305.62l15.74 0l0 15.09l-15.74 0Z" id="p31w79" />
<path d="M236.15 305.62l41.47 0l0 15.09l-41.47 0Z" id="p31w80" />
<path d="M281.23 305.62l27.82 0l0 15.09l-27.82 0Z" id="p31w81" />
<path d="M312.67 305.62l10.5 0l0 15.09l-10.5 0Z" id="p31w82" />
<path d="M326.78 305.62l43.98 0l0 15.09l-43.98 0Z" id="p31w83" />
<path d="M374.37 305.62l27.23 0l0 15.09l-27.23 0Z" id="p31w84" />
<path d="M135.87 322.29l10.42 0l0 15.09l-10.42 0Z" id="p31w85" />
<path d="M149.91 322.29l40.32 0l0 15.09l-40.32 0Z" id="p31w86" />
<path d="M193.84 322.29l13.91 0l0 15.09l-13.91 0Z" id="p31w87" />
<path d="M211.35 322.29l35.81 0l0 15.09l-35.81 0Z" id="p31w88" />
<path d="M250.77 322.29l30.83 0l0 15.09l-30.83 0Z" id="p31w89" />
<path d="M285.21 322.29l19.29 0l0 15.09l-19.29 0Z" id="p31w90" />
<path d="M308.12 322.29l29.78 0l0 15.09l-29.78 0Z" id="p31w91" />
<path d="M341.51 322.29l11.26 0l0 15.09l-11.26 0Z" id="p31w92" />
<path d="M356.38 322.29l10.54 0l0 15.09l-10.54 0Z" id="p31w93" />
<path d="M135.87 338.96l27.9 0l0 15.09l-27.9 0Z" id="p31w94" />
<path d="M167.39 338.96l21.67 0l0 15.09l-21.67 0Z" id="p31w95" />
<path d="M192.67 338.96l15.89 0l0 15.09l-15.89 0Z" id="p31w96" />
<path d="M212.16 338.96l64.34 0l0 15.09l-64.34 0Z" id="p31w97" />
<path d="M280.11 338.96l19.84 0l0 15.09l-19.84 0Z" id="p31w98" />
<path d="M303.57 338.96l23.61 0l0 15.09l-23.61 0Z" id="p31w99" />
<path d="M330.79 338.96l30.66 0l0 15.09l-30.66 0Z" id="p31w100" />
<path d="M365.06 338.96l27.23 0l0 15.09l-27.23 0Z" id="p31w101" />
<path d="M135.87 355.63l12.66 0l0 15.09l-12.66 0Z" id="p31w102" />
<path d="M152.15 355.63l44.63 0l0 15.09l-44.63 0Z" id="p31w103" />
<path d="M200.39 355.63l15.01 0l0 15.09l-15.01 0Z" id="p31w104" />
<path d="M219.01 355.63l26.91 0l0 15.09l-26.91 0Z" id="p31w105" />
<path d="M249.54 355.63l52.47 0l0 15.09l-52.47 0Z" id="p31w106" />
<path d="M124.06 374.38l26.25 0l0 12.29l-26.25 0Z" id="p31w107" />
<path d="M159.55 372.32l80.21 0l0 15.09l-80.21 0Z" id="p31w108" />
<path d="M252.46 372.32l27.97 0l0 15.09l-27.97 0Z" id="p31w109" />
<path d="M284.03 372.32l38.29 0l0 15.09l-38.29 0Z" id="p31w110" />
<path d="M325.93 372.32l33.81 0l0 15.09l-33.81 0Z" id="p31w111" />
<path d="M135.88 388.99l22.31 0l0 15.09l-22.31 0Z" id="p31w112" />
<path d="M161.8 388.99l41.34 0l0 15.09l-41.34 0Z" id="p31w113" />
<path d="M124.06 407.73l28.28 0l0 12.29l-28.28 0Z" id="p31w114" />
<path d="M161.57 405.67l26.9 0l0 15.09l-26.9 0Z" id="p31w115" />
<path d="M192.08 405.67l24.29 0l0 15.09l-24.29 0Z" id="p31w116" />
<path d="M124.06 449.78l34.63 0l0 18.84l-34.63 0Z" id="p31w117" />
<path d="M162.34 449.78l89.43 0l0 18.84l-89.43 0Z" id="p31w118" />
<path d="M255.42 449.78l13.62 0l0 18.84l-13.62 0Z" id="p31w119" />
<path d="M272.69 449.78l38.39 0l0 18.84l-38.39 0Z" id="p31w120" />
<path d="M143.75 480.98l53.27 0l0 14.52l-53.27 0Z" id="p31w121" />
<path d="M200.23 480.98l15.5 0l0 14.52l-15.5 0Z" id="p31w122" />
<path d="M218.94 480.98l41.16 0l0 14.52l-41.16 0Z" id="p31w123" />
<path d="M263.3 480.98l26.73 0l0 14.52l-26.73 0Z" id="p31w124" />
<path d="M293.24 480.98l34.75 0l0 14.52l-34.75 0Z" id="p31w125" />
<path d="M331.2 480.98l82.57 0l0 14.52l-82.57 0Z" id="p31w126" />
<path d="M143.76 772.76l51.33 0l0 14.52l-51.33 0Z" id="p31w127" />
<path d="M198.3 772.76l47.57 0l0 14.52l-47.57 0Z" id="p31w128" />
<path d="M255.49 772.76l39.03 0l0 14.52l-39.03 0Z" id="p31w129" />
<path d="M297.73 772.76l26.74 0l0 14.52l-26.74 0Z" id="p31w130" />
<path d="M327.68 772.76l13.91 0l0 14.52l-13.91 0Z" id="p31w131" />
<path d="M344.8 772.76l24.59 0l0 14.52l-24.59 0Z" id="p31w132" />
<path d="M372.59 772.76l43.29 0l0 14.52l-43.29 0Z" id="p31w133" />
<path d="M419.1 772.76l25.67 0l0 14.52l-25.67 0Z" id="p31w134" />
<path d="M447.98 772.76l40.64 0l0 14.52l-40.64 0Z" id="p31w135" />
<path d="M491.82 772.76l38.23 0l0 14.52l-38.23 0Z" id="p31w136" />
<path d="M154.71 806.1l28.87 0l0 14.52l-28.87 0Z" id="p31w137" />
<path d="M186.79 806.1l24.33 0l0 14.52l-24.33 0Z" id="p31w138" />
<path d="M214.32 806.1l50.01 0l0 14.52l-50.01 0Z" id="p31w139" />
<path d="M267.54 806.1l33.05 0l0 14.52l-33.05 0Z" id="p31w140" />
<path d="M303.8 806.1l20.85 0l0 14.52l-20.85 0Z" id="p31w141" />
<path d="M327.86 806.1l40.9 0l0 14.52l-40.9 0Z" id="p31w142" />
<path d="M371.97 806.1l25.92 0l0 14.52l-25.92 0Z" id="p31w143" />
<path d="M401.11 806.1l19.51 0l0 14.52l-19.51 0Z" id="p31w144" />
<path d="M423.82 806.1l33.68 0l0 14.52l-33.68 0Z" id="p31w145" />
<path d="M469 806.1l32.87 0l0 14.52l-32.87 0Z" id="p31w146" />
<path d="M505.08 806.1l19.51 0l0 14.52l-19.51 0Z" id="p31w147" />
<path d="M527.79 806.1l66.3 0l0 14.52l-66.3 0Z" id="p31w148" />
<path d="M143.76 831.11l12.83 0l0 14.52l-12.83 0Z" id="p31w149" />
<path d="M159.8 831.11l61.75 0l0 14.52l-61.75 0Z" id="p31w150" />
<path d="M224.75 831.11l40.9 0l0 14.52l-40.9 0Z" id="p31w151" />
<path d="M268.86 831.11l30.99 0l0 14.52l-30.99 0Z" id="p31w152" />
<path d="M303.06 831.11l14.18 0l0 14.52l-14.18 0Z" id="p31w153" />
<path d="M320.44 831.11l49.37 0l0 14.52l-49.37 0Z" id="p31w154" />
<path d="M373.02 831.11l17.11 0l0 14.52l-17.11 0Z" id="p31w155" />
<path d="M393.33 831.11l9.89 0l0 14.52l-9.89 0Z" id="p31w156" />
<path d="M406.42 831.11l47.04 0l0 14.52l-47.04 0Z" id="p31w157" />
<path d="M456.67 831.11l13.9 0l0 14.52l-13.9 0Z" id="p31w158" />
<path d="M473.78 831.11l41.97 0l0 14.52l-41.97 0Z" id="p31w159" />
<path d="M143.76 847.78l43.86 0l0 14.52l-43.86 0Z" id="p31w160" />
<path d="M190.83 847.78l19.79 0l0 14.52l-19.79 0Z" id="p31w161" />
<path d="M213.82 847.78l49.37 0l0 14.52l-49.37 0Z" id="p31w162" />
<path d="M266.39 847.78l11.22 0l0 14.52l-11.22 0Z" id="p31w163" />
<path d="M280.82 847.78l27.26 0l0 14.52l-27.26 0Z" id="p31w164" />
<path d="M311.28 847.78l50.01 0l0 14.52l-50.01 0Z" id="p31w165" />
<path d="M364.5 847.78l19.77 0l0 14.52l-19.77 0Z" id="p31w166" />
<path d="M387.48 847.78l25.92 0l0 14.52l-25.92 0Z" id="p31w167" />
<path d="M416.61 847.78l19.51 0l0 14.52l-19.51 0Z" id="p31w168" />
<path d="M439.33 847.78l36.36 0l0 14.52l-36.36 0Z" id="p31w169" />
<path d="M135.02 881.12l28.96 0l0 14.52l-28.96 0Z" id="p31w170" />
<path d="M167.19 881.12l19.51 0l0 14.52l-19.51 0Z" id="p31w171" />
<path d="M189.9 881.12l71.37 0l0 14.52l-71.37 0Z" id="p31w172" />
<path d="M264.48 881.12l47.58 0l0 14.52l-47.58 0Z" id="p31w173" />
<path d="M315.27 881.12l26.73 0l0 14.52l-26.73 0Z" id="p31w174" />
<path d="M345.21 881.12l9.89 0l0 14.52l-9.89 0Z" id="p31w175" />
<path d="M358.3 881.12l31.01 0l0 14.52l-31.01 0Z" id="p31w176" />
<path d="M392.51 881.12l50.99 0l0 14.52l-50.99 0Z" id="p31w177" />
<path d="M446.71 881.12l9.89 0l0 14.52l-9.89 0Z" id="p31w178" />
<path d="M459.8 881.12l60.95 0l0 14.52l-60.95 0Z" id="p31w179" />
<path d="M523.96 881.12l20.85 0l0 14.52l-20.85 0Z" id="p31w180" />
<path d="M548.03 881.12l15.5 0l0 14.52l-15.5 0Z" id="p31w181" />
<path d="M566.73 881.12l61.19 0l0 14.52l-61.19 0Z" id="p31w182" />
<path d="M124.06 897.79l18.72 0l0 14.52l-18.72 0Z" id="p31w183" />
<path d="M145.99 897.79l36.6 0l0 14.52l-36.6 0Z" id="p31w184" />
<path d="M185.8 897.79l25.67 0l0 14.52l-25.67 0Z" id="p31w185" />
<path d="M214.68 897.79l21.38 0l0 14.52l-21.38 0Z" id="p31w186" />
<path d="M239.27 897.79l41.71 0l0 14.52l-41.71 0Z" id="p31w187" />
<path d="M294.07 897.79l9.89 0l0 14.52l-9.89 0Z" id="p31w188" />
<path d="M307.17 897.79l22.17 0l0 14.52l-22.17 0Z" id="p31w189" />
<path d="M332.55 897.79l13.9 0l0 14.52l-13.9 0Z" id="p31w190" />
<path d="M349.65 897.79l9.89 0l0 14.52l-9.89 0Z" id="p31w191" />
<path d="M362.75 897.79l50.26 0l0 14.52l-50.26 0Z" id="p31w192" />
<path d="M124.06 922.82l18.44 0l0 14.61l-18.44 0Z" id="p31w193" />
<path d="M145.71 922.82l63.54 0l0 14.61l-63.54 0Z" id="p31w194" />
<path d="M212.29 922.82l24.76 0l0 14.61l-24.76 0Z" id="p31w195" />
<path d="M240.26 922.82l26.73 0l0 14.61l-26.73 0Z" id="p31w196" />
<path d="M276.7 922.82l42.24 0l0 14.61l-42.24 0Z" id="p31w197" />
<path d="M321.98 922.82l55.5 0l0 14.61l-55.5 0Z" id="p31w198" />
<path d="M73.54 455.01l15.07 0l0 12.29l-15.07 0Z" id="p31w199" />
<path d="M52.89 474.49l35.72 0l0 12.3l-35.72 0Z" id="p31w200" />
<path d="M39.49 485.6l49.13 0l0 12.3l-49.13 0Z" id="p31w201" />
<path d="M62.22 774.53l26.4 0l0 12.29l-26.4 0Z" id="p31w202" />
<path d="M53.09 832.88l35.52 0l0 12.29l-35.52 0Z" id="p31w203" />
<path d="M50.09 857.96l24.2 0l0 12.3l-24.2 0Z" id="p31w204" />
<path d="M62.22 882.9l26.4 0l0 12.29l-26.4 0Z" id="p31w205" />
<path d="M68.27 39.02l42.02 0l0 15.38l-42.02 0Z" id="p31w206" />
<path d="M152.94 38.6l45.75 0l0 16.09l-45.75 0Z" id="p31w207" />
<path d="M251.4 39.02l43.21 0l0 15.38l-43.21 0Z" id="p31w208" />
<path d="M358.93 39.02l28.68 0l0 15.38l-28.68 0Z" id="p31w209" />
<path d="M390.98 39.02l44.38 0l0 15.38l-44.38 0Z" id="p31w210" />
<path d="M468.42 39.02l32.54 0l0 15.38l-32.54 0Z" id="p31w211" />
<path d="M643.05 983l48.05 0l0 12.23l-48.05 0Z" id="p31w212" />
</svg>
