<?xml version="1.0" encoding="UTF-8"?>
<svg xmlns="http://www.w3.org/2000/svg" xmlns:xlink="http://www.w3.org/1999/xlink" version="1.1" baseProfile="full" width="768" height="1024" viewBox="0,0,768,1024" preserveAspectRatio="xMinYMin meet" >
<style type="text/css">
<![CDATA[
path {fill-opacity: 0.5;fill: #00aeef;visibility: hidden;}
]]>
</style>
<path d="M124.06 114.18l34.74 0l0 14.52l-34.74 0Z" id="p116w1" />
<path d="M162.01 114.18l28.33 0l0 14.52l-28.33 0Z" id="p116w2" />
<path d="M193.54 114.18l13.9 0l0 14.52l-13.9 0Z" id="p116w3" />
<path d="M210.65 114.18l12.57 0l0 14.52l-12.57 0Z" id="p116w4" />
<path d="M226.42 114.18l35.82 0l0 14.52l-35.82 0Z" id="p116w5" />
<path d="M275.34 114.18l18.7 0l0 14.52l-18.7 0Z" id="p116w6" />
<path d="M297.25 114.18l31.1 0l0 14.52l-31.1 0Z" id="p116w7" />
<path d="M331.55 114.18l13.9 0l0 14.52l-13.9 0Z" id="p116w8" />
<path d="M348.66 114.18l49 0l0 14.52l-49 0Z" id="p116w9" />
<path d="M133.95 130.85l34.21 0l0 14.52l-34.21 0Z" id="p116w10" />
<path d="M171.37 130.85l13.9 0l0 14.52l-13.9 0Z" id="p116w11" />
<path d="M188.47 130.85l28.88 0l0 14.52l-28.88 0Z" id="p116w12" />
<path d="M220.56 130.85l51.33 0l0 14.52l-51.33 0Z" id="p116w13" />
<path d="M275.1 130.85l19.79 0l0 14.52l-19.79 0Z" id="p116w14" />
<path d="M298.09 130.85l41.96 0l0 14.52l-41.96 0Z" id="p116w15" />
<path d="M343.26 130.85l13.63 0l0 14.52l-13.63 0Z" id="p116w16" />
<path d="M360.1 130.85l34.48 0l0 14.52l-34.48 0Z" id="p116w17" />
<path d="M124.06 147.52l39.29 0l0 14.52l-39.29 0Z" id="p116w18" />
<path d="M166.56 147.52l9.89 0l0 14.52l-9.89 0Z" id="p116w19" />
<path d="M179.66 147.45l32.05 0l0 14.6l-32.05 0Z" id="p116w20" />
<path d="M214.91 147.45l49.97 0l0 14.6l-49.97 0Z" id="p116w21" />
<path d="M270.77 147.52l5.61 0l0 14.52l-5.61 0Z" id="p116w22" />
<path d="M276.38 147.45l51.97 0l0 14.6l-51.97 0Z" id="p116w23" />
<path d="M331.55 147.52l13.91 0l0 14.52l-13.91 0Z" id="p116w24" />
<path d="M348.67 147.52l9.89 0l0 14.52l-9.89 0Z" id="p116w25" />
<path d="M361.77 147.45l27.15 0l0 14.6l-27.15 0ZM124.06 164.13l62.38 0l0 14.6l-62.38 0Z" id="p116w26" />
<path d="M332.07 164.19l14.44 0l0 14.52l-14.44 0Z" id="p116w27" />
<path d="M349.72 164.19l23.52 0l0 14.52l-23.52 0Z" id="p116w28" />
<path d="M143.75 189.2l23.24 0l0 14.52l-23.24 0Z" id="p116w29" />
<path d="M170.21 189.2l42.49 0l0 14.52l-42.49 0Z" id="p116w30" />
<path d="M234.86 189.21l36.09 0l0 14.52l-36.09 0Z" id="p116w31" />
<path d="M274.16 189.21l14.18 0l0 14.52l-14.18 0Z" id="p116w32" />
<path d="M291.54 189.21l28.6 0l0 14.52l-28.6 0Z" id="p116w33" />
<path d="M333.24 189.21l51.61 0l0 14.52l-51.61 0Z" id="p116w34" />
<path d="M143.76 205.88l20.85 0l0 14.52l-20.85 0Z" id="p116w35" />
<path d="M167.82 205.88l32.87 0l0 14.52l-32.87 0Z" id="p116w36" />
<path d="M203.9 205.88l22.45 0l0 14.52l-22.45 0Z" id="p116w37" />
<path d="M229.56 205.88l24.05 0l0 14.52l-24.05 0Z" id="p116w38" />
<path d="M256.81 205.88l13.9 0l0 14.52l-13.9 0Z" id="p116w39" />
<path d="M273.92 205.88l55.36 0l0 14.52l-55.36 0Z" id="p116w40" />
<path d="M143.76 222.55l36.63 0l0 14.52l-36.63 0Z" id="p116w41" />
<path d="M183.6 222.55l26.74 0l0 14.52l-26.74 0Z" id="p116w42" />
<path d="M232.5 222.55l30.99 0l0 14.52l-30.99 0Z" id="p116w43" />
<path d="M266.7 222.55l34.48 0l0 14.52l-34.48 0Z" id="p116w44" />
<path d="M304.38 222.55l25.13 0l0 14.52l-25.13 0Z" id="p116w45" />
<path d="M332.72 222.55l26.72 0l0 14.52l-26.72 0Z" id="p116w46" />
<path d="M362.64 222.55l11.22 0l0 14.52l-11.22 0Z" id="p116w47" />
<path d="M377.07 222.55l21.12 0l0 14.52l-21.12 0Z" id="p116w48" />
<path d="M143.76 239.22l15.5 0l0 14.52l-15.5 0Z" id="p116w49" />
<path d="M181.42 239.23l58.54 0l0 14.52l-58.54 0Z" id="p116w50" />
<path d="M253.05 239.23l34.21 0l0 14.52l-34.21 0Z" id="p116w51" />
<path d="M290.47 239.23l30.73 0l0 14.52l-30.73 0Z" id="p116w52" />
<path d="M324.41 239.23l37.17 0l0 14.52l-37.17 0Z" id="p116w53" />
<path d="M143.76 255.9l21.12 0l0 14.52l-21.12 0Z" id="p116w54" />
<path d="M168.09 255.9l9.62 0l0 14.52l-9.62 0Z" id="p116w55" />
<path d="M185.96 255.9l5.35 0l0 14.52l-5.35 0Z" id="p116w56" />
<path d="M213.47 255.9l45.17 0l0 14.52l-45.17 0Z" id="p116w57" />
<path d="M261.84 255.9l12.57 0l0 14.52l-12.57 0Z" id="p116w58" />
<path d="M284.03 255.9l59.7 0l0 14.52l-59.7 0Z" id="p116w59" />
<path d="M356.82 255.9l36.89 0l0 14.52l-36.89 0Z" id="p116w60" />
<path d="M396.92 255.9l15.5 0l0 14.52l-15.5 0Z" id="p116w61" />
<path d="M415.63 255.9l39.03 0l0 14.52l-39.03 0Z" id="p116w62" />
<path d="M457.86 255.9l9.89 0l0 14.52l-9.89 0Z" id="p116w63" />
<path d="M470.96 255.9l32.59 0l0 14.52l-32.59 0Z" id="p116w64" />
<path d="M506.75 255.9l13.9 0l0 14.52l-13.9 0Z" id="p116w65" />
<path d="M523.86 255.9l41.45 0l0 14.52l-41.45 0Z" id="p116w66" />
<path d="M143.76 272.57l30.74 0l0 14.52l-30.74 0Z" id="p116w67" />
<path d="M177.71 272.57l30.73 0l0 14.52l-30.73 0Z" id="p116w68" />
<path d="M211.64 272.57l9.89 0l0 14.52l-9.89 0Z" id="p116w69" />
<path d="M224.74 272.57l31.02 0l0 14.52l-31.02 0Z" id="p116w70" />
<path d="M258.96 272.57l9.62 0l0 14.52l-9.62 0Z" id="p116w71" />
<path d="M276.84 272.57l5.35 0l0 14.52l-5.35 0Z" id="p116w72" />
<path d="M304.34 272.57l32.87 0l0 14.52l-32.87 0Z" id="p116w73" />
<path d="M340.42 272.57l26.73 0l0 14.52l-26.73 0Z" id="p116w74" />
<path d="M370.35 272.57l20.85 0l0 14.52l-20.85 0Z" id="p116w75" />
<path d="M394.41 272.57l29.41 0l0 14.52l-29.41 0Z" id="p116w76" />
<path d="M427.03 272.57l65.39 0l0 14.52l-65.39 0Z" id="p116w77" />
<path d="M495.63 272.57l34.58 0l0 14.52l-34.58 0Z" id="p116w78" />
<path d="M533.42 272.57l9.62 0l0 14.52l-9.62 0Z" id="p116w79" />
<path d="M551.29 272.57l5.35 0l0 14.52l-5.35 0Z" id="p116w80" />
<path d="M578.8 272.57l33.94 0l0 14.52l-33.94 0Z" id="p116w81" />
<path d="M143.75 289.24l14.18 0l0 14.52l-14.18 0Z" id="p116w82" />
<path d="M161.13 289.24l19.79 0l0 14.52l-19.79 0Z" id="p116w83" />
<path d="M184.13 289.24l77.8 0l0 14.52l-77.8 0Z" id="p116w84" />
<path d="M143.75 305.91l42.77 0l0 14.52l-42.77 0Z" id="p116w85" />
<path d="M189.72 305.91l9.62 0l0 14.52l-9.62 0Z" id="p116w86" />
<path d="M207.59 305.91l5.35 0l0 14.52l-5.35 0Z" id="p116w87" />
<path d="M235.11 305.92l31.01 0l0 14.52l-31.01 0Z" id="p116w88" />
<path d="M269.33 305.92l49.74 0l0 14.52l-49.74 0Z" id="p116w89" />
<path d="M322.27 305.92l26.73 0l0 14.52l-26.73 0Z" id="p116w90" />
<path d="M352.2 305.92l9.89 0l0 14.52l-9.89 0Z" id="p116w91" />
<path d="M365.3 305.92l39.03 0l0 14.52l-39.03 0Z" id="p116w92" />
<path d="M407.53 305.92l13.9 0l0 14.52l-13.9 0Z" id="p116w93" />
<path d="M424.64 305.92l61.21 0l0 14.52l-61.21 0Z" id="p116w94" />
<path d="M489.05 305.92l15.5 0l0 14.52l-15.5 0Z" id="p116w95" />
<path d="M507.76 305.92l37.68 0l0 14.52l-37.68 0Z" id="p116w96" />
<path d="M567.61 305.92l30.99 0l0 14.52l-30.99 0Z" id="p116w97" />
<path d="M601.8 305.92l30.46 0l0 14.52l-30.46 0Z" id="p116w98" />
<path d="M143.75 322.59l35.55 0l0 14.52l-35.55 0Z" id="p116w99" />
<path d="M182.5 322.59l25.67 0l0 14.52l-25.67 0Z" id="p116w100" />
<path d="M211.38 322.59l23.8 0l0 14.52l-23.8 0Z" id="p116w101" />
<path d="M143.75 339.26l31.8 0l0 14.52l-31.8 0Z" id="p116w102" />
<path d="M178.75 339.26l17.63 0l0 14.52l-17.63 0Z" id="p116w103" />
<path d="M199.6 339.26l58.01 0l0 14.52l-58.01 0Z" id="p116w104" />
<path d="M260.81 339.26l9.62 0l0 14.52l-9.62 0Z" id="p116w105" />
<path d="M278.69 339.26l5.35 0l0 14.52l-5.35 0Z" id="p116w106" />
<path d="M306.2 339.26l39.28 0l0 14.52l-39.28 0Z" id="p116w107" />
<path d="M358.58 339.26l32.35 0l0 14.52l-32.35 0Z" id="p116w108" />
<path d="M394.14 339.26l31.01 0l0 14.52l-31.01 0Z" id="p116w109" />
<path d="M428.35 339.26l20.85 0l0 14.52l-20.85 0Z" id="p116w110" />
<path d="M452.41 339.26l9.62 0l0 14.52l-9.62 0Z" id="p116w111" />
<path d="M470.28 339.26l5.35 0l0 14.52l-5.35 0Z" id="p116w112" />
<path d="M497.8 339.26l53.19 0l0 14.52l-53.19 0Z" id="p116w113" />
<path d="M554.2 339.26l20.85 0l0 14.52l-20.85 0Z" id="p116w114" />
<path d="M578.26 339.26l63.37 0l0 14.52l-63.37 0Z" id="p116w115" />
<path d="M143.75 355.93l26.73 0l0 14.52l-26.73 0Z" id="p116w116" />
<path d="M173.69 355.93l14.18 0l0 14.52l-14.18 0Z" id="p116w117" />
<path d="M191.07 355.93l28.6 0l0 14.52l-28.6 0Z" id="p116w118" />
<path d="M232.5 355.93l39.56 0l0 14.52l-39.56 0Z" id="p116w119" />
<path d="M143.75 372.6l12.83 0l0 14.52l-12.83 0Z" id="p116w120" />
<path d="M159.79 372.6l16.04 0l0 14.52l-16.04 0Z" id="p116w121" />
<path d="M179.03 372.6l33.05 0l0 14.52l-33.05 0Z" id="p116w122" />
<path d="M234.25 372.61l30.99 0l0 14.52l-30.99 0Z" id="p116w123" />
<path d="M268.45 372.61l40.83 0l0 14.52l-40.83 0Z" id="p116w124" />
<path d="M312.49 372.61l11.22 0l0 14.52l-11.22 0Z" id="p116w125" />
<path d="M326.91 372.61l23.24 0l0 14.52l-23.24 0Z" id="p116w126" />
<path d="M353.36 372.61l52.34 0l0 14.52l-52.34 0Z" id="p116w127" />
<path d="M418.79 372.61l32.35 0l0 14.52l-32.35 0Z" id="p116w128" />
<path d="M473.31 372.61l30.99 0l0 14.52l-30.99 0Z" id="p116w129" />
<path d="M507.51 372.61l49.71 0l0 14.52l-49.71 0Z" id="p116w130" />
<path d="M560.43 372.61l21.37 0l0 14.52l-21.37 0Z" id="p116w131" />
<path d="M585 372.61l44.64 0l0 14.52l-44.64 0Z" id="p116w132" />
<path d="M143.75 389.28l26.45 0l0 14.52l-26.45 0Z" id="p116w133" />
<path d="M173.41 389.28l6.41 0l0 14.52l-6.41 0Z" id="p116w134" />
<path d="M202.01 389.28l26.74 0l0 14.52l-26.74 0Z" id="p116w135" />
<path d="M231.96 389.28l22.19 0l0 14.52l-22.19 0Z" id="p116w136" />
<path d="M257.36 389.28l17.63 0l0 14.52l-17.63 0Z" id="p116w137" />
<path d="M278.2 389.28l38.21 0l0 14.52l-38.21 0Z" id="p116w138" />
<path d="M319.62 389.28l11.22 0l0 14.52l-11.22 0Z" id="p116w139" />
<path d="M334.05 389.28l48.93 0l0 14.52l-48.93 0Z" id="p116w140" />
<path d="M405.14 389.28l74.31 0l0 14.52l-74.31 0Z" id="p116w141" />
<path d="M492.55 389.28l17.63 0l0 14.52l-17.63 0Z" id="p116w142" />
<path d="M513.39 389.28l51.61 0l0 14.52l-51.61 0Z" id="p116w143" />
<path d="M143.76 405.95l10.43 0l0 14.52l-10.43 0Z" id="p116w144" />
<path d="M162.43 405.95l6.15 0l0 14.52l-6.15 0Z" id="p116w145" />
<path d="M190.75 405.95l18.18 0l0 14.52l-18.18 0Z" id="p116w146" />
<path d="M212.13 405.95l19.51 0l0 14.52l-19.51 0Z" id="p116w147" />
<path d="M243.94 405.95l42.22 0l0 14.52l-42.22 0Z" id="p116w148" />
<path d="M289.38 405.95l31.1 0l0 14.52l-31.1 0Z" id="p116w149" />
<path d="M323.68 405.95l13.9 0l0 14.52l-13.9 0Z" id="p116w150" />
<path d="M340.79 405.95l44.05 0l0 14.52l-44.05 0Z" id="p116w151" />
<path d="M388.04 405.95l11.5 0l0 14.52l-11.5 0Z" id="p116w152" />
<path d="M402.74 405.95l24.85 0l0 14.52l-24.85 0Z" id="p116w153" />
<path d="M430.81 405.95l25.67 0l0 14.52l-25.67 0Z" id="p116w154" />
<path d="M459.69 405.95l28.33 0l0 14.52l-28.33 0Z" id="p116w155" />
<path d="M491.22 405.95l33.95 0l0 14.52l-33.95 0Z" id="p116w156" />
<path d="M528.38 405.95l20.85 0l0 14.52l-20.85 0Z" id="p116w157" />
<path d="M552.44 405.95l9.62 0l0 14.52l-9.62 0Z" id="p116w158" />
<path d="M584.22 405.95l47.57 0l0 14.52l-47.57 0Z" id="p116w159" />
<path d="M143.75 422.62l13.9 0l0 14.52l-13.9 0Z" id="p116w160" />
<path d="M160.86 422.62l39.57 0l0 14.52l-39.57 0Z" id="p116w161" />
<path d="M138.25 466.45l67.73 0l0 18.84l-67.73 0Z" id="p116w162" />
<path d="M143.76 497.65l43.86 0l0 14.52l-43.86 0Z" id="p116w163" />
<path d="M190.82 497.65l15.5 0l0 14.52l-15.5 0Z" id="p116w164" />
<path d="M209.53 497.65l43.29 0l0 14.52l-43.29 0Z" id="p116w165" />
<path d="M256.03 497.65l11.22 0l0 14.52l-11.22 0Z" id="p116w166" />
<path d="M270.46 497.65l28.6 0l0 14.52l-28.6 0Z" id="p116w167" />
<path d="M302.27 497.65l9.89 0l0 14.52l-9.89 0Z" id="p116w168" />
<path d="M315.36 497.65l28.06 0l0 14.52l-28.06 0Z" id="p116w169" />
<path d="M346.63 497.65l35.29 0l0 14.52l-35.29 0Z" id="p116w170" />
<path d="M385.13 497.65l6.41 0l0 14.52l-6.41 0Z" id="p116w171" />
<path d="M143.76 514.32l29.16 0l0 14.52l-29.16 0Z" id="p116w172" />
<path d="M176.12 514.32l14.18 0l0 14.52l-14.18 0Z" id="p116w173" />
<path d="M193.5 514.32l31.27 0l0 14.52l-31.27 0Z" id="p116w174" />
<path d="M227.98 514.26l33.38 0l0 14.6l-33.38 0Z" id="p116w175" />
<path d="M143.76 539.34l50.43 0l0 14.52l-50.43 0Z" id="p116w176" />
<path d="M197.4 539.34l17.38 0l0 14.52l-17.38 0Z" id="p116w177" />
<path d="M217.99 539.34l12.66 0l0 14.52l-12.66 0Z" id="p116w178" />
<path d="M233.85 539.34l54.25 0l0 14.52l-54.25 0Z" id="p116w179" />
<path d="M299.6 539.34l32.97 0l0 14.52l-32.97 0Z" id="p116w180" />
<path d="M335.78 539.34l15.5 0l0 14.52l-15.5 0Z" id="p116w181" />
<path d="M354.48 539.34l43.29 0l0 14.52l-43.29 0Z" id="p116w182" />
<path d="M143.76 556.01l11.22 0l0 14.52l-11.22 0Z" id="p116w183" />
<path d="M158.18 556.01l58.01 0l0 14.52l-58.01 0Z" id="p116w184" />
<path d="M219.4 556.01l25.4 0l0 14.52l-25.4 0Z" id="p116w185" />
<path d="M248 556.01l9.89 0l0 14.52l-9.89 0Z" id="p116w186" />
<path d="M261.1 556.01l35.29 0l0 14.52l-35.29 0Z" id="p116w187" />
<path d="M299.6 556.01l33.41 0l0 14.52l-33.41 0Z" id="p116w188" />
<path d="M336.21 556.01l13.9 0l0 14.52l-13.9 0Z" id="p116w189" />
<path d="M353.32 556.01l35.82 0l0 14.52l-35.82 0Z" id="p116w190" />
<path d="M143.76 589.35l51.85 0l0 14.52l-51.85 0Z" id="p116w191" />
<path d="M198.81 589.35l69.18 0l0 14.52l-69.18 0Z" id="p116w192" />
<path d="M271.19 589.35l40.88 0l0 14.52l-40.88 0Z" id="p116w193" />
<path d="M143.76 606.02l23.8 0l0 14.52l-23.8 0Z" id="p116w194" />
<path d="M170.76 606.02l9.62 0l0 14.52l-9.62 0Z" id="p116w195" />
<path d="M183.59 606.02l42.78 0l0 14.52l-42.78 0Z" id="p116w196" />
<path d="M229.58 606.02l9.89 0l0 14.52l-9.89 0Z" id="p116w197" />
<path d="M242.67 606.02l43.85 0l0 14.52l-43.85 0Z" id="p116w198" />
<path d="M143.76 622.69l13.9 0l0 14.52l-13.9 0Z" id="p116w199" />
<path d="M160.86 622.69l21.67 0l0 14.52l-21.67 0Z" id="p116w200" />
<path d="M185.74 622.69l25.13 0l0 14.52l-25.13 0Z" id="p116w201" />
<path d="M214.08 622.69l26.72 0l0 14.52l-26.72 0Z" id="p116w202" />
<path d="M244 622.69l11.22 0l0 14.52l-11.22 0Z" id="p116w203" />
<path d="M258.43 622.69l21.12 0l0 14.52l-21.12 0Z" id="p116w204" />
<path d="M282.76 622.69l56.33 0l0 14.52l-56.33 0Z" id="p116w205" />
<path d="M342.3 622.69l9.89 0l0 14.52l-9.89 0Z" id="p116w206" />
<path d="M355.39 622.69l23.79 0l0 14.52l-23.79 0Z" id="p116w207" />
<path d="M143.76 639.36l37.96 0l0 14.52l-37.96 0Z" id="p116w208" />
<path d="M184.92 639.36l16.83 0l0 14.52l-16.83 0Z" id="p116w209" />
<path d="M204.96 639.36l45.46 0l0 14.52l-45.46 0Z" id="p116w210" />
<path d="M253.63 639.36l21.37 0l0 14.52l-21.37 0Z" id="p116w211" />
<path d="M278.2 639.36l24.33 0l0 14.52l-24.33 0Z" id="p116w212" />
<path d="M305.74 639.36l46.78 0l0 14.52l-46.78 0Z" id="p116w213" />
<path d="M143.76 656.03l26.21 0l0 14.52l-26.21 0Z" id="p116w214" />
<path d="M173.18 656.03l13.9 0l0 14.52l-13.9 0Z" id="p116w215" />
<path d="M190.28 656.03l39.85 0l0 14.52l-39.85 0Z" id="p116w216" />
<path d="M233.34 656.03l19.51 0l0 14.52l-19.51 0Z" id="p116w217" />
<path d="M256.05 656.03l25.67 0l0 14.52l-25.67 0Z" id="p116w218" />
<path d="M284.93 656.03l39.29 0l0 14.52l-39.29 0Z" id="p116w219" />
<path d="M143.76 672.7l12.41 0l0 14.52l-12.41 0Z" id="p116w220" />
<path d="M159.37 672.7l12.29 0l0 14.52l-12.29 0Z" id="p116w221" />
<path d="M174.87 672.7l44.11 0l0 14.52l-44.11 0Z" id="p116w222" />
<path d="M222.19 672.7l19.51 0l0 14.52l-19.51 0Z" id="p116w223" />
<path d="M244.9 672.7l58.35 0l0 14.52l-58.35 0Z" id="p116w224" />
<path d="M306.46 672.7l33.68 0l0 14.52l-33.68 0Z" id="p116w225" />
<path d="M143.76 689.37l46.26 0l0 14.52l-46.26 0Z" id="p116w226" />
<path d="M193.23 689.37l11.22 0l0 14.52l-11.22 0Z" id="p116w227" />
<path d="M207.65 689.37l35.29 0l0 14.52l-35.29 0Z" id="p116w228" />
<path d="M246.16 689.37l18.72 0l0 14.52l-18.72 0Z" id="p116w229" />
<path d="M268.08 689.37l45.46 0l0 14.52l-45.46 0Z" id="p116w230" />
<path d="M143.76 706.04l30.23 0l0 14.52l-30.23 0Z" id="p116w231" />
<path d="M177.19 706.04l49 0l0 14.52l-49 0Z" id="p116w232" />
<path d="M229.39 706.04l26.73 0l0 14.52l-26.73 0Z" id="p116w233" />
<path d="M259.33 706.04l61.21 0l0 14.52l-61.21 0Z" id="p116w234" />
<path d="M445.7 589.34l20.05 0l0 14.52l-20.05 0Z" id="p116w235" />
<path d="M487.92 589.35l9.89 0l0 14.52l-9.89 0Z" id="p116w236" />
<path d="M501.01 589.35l34.49 0l0 14.52l-34.49 0Z" id="p116w237" />
<path d="M445.71 606.03l14.18 0l0 14.52l-14.18 0Z" id="p116w238" />
<path d="M463.09 606.03l12.57 0l0 14.52l-12.57 0Z" id="p116w239" />
<path d="M478.87 606.03l49.99 0l0 14.52l-49.99 0Z" id="p116w240" />
<path d="M532.06 606.03l12.02 0l0 14.52l-12.02 0Z" id="p116w241" />
<path d="M566.24 606.03l20.85 0l0 14.52l-20.85 0Z" id="p116w242" />
<path d="M590.31 606.03l55.33 0l0 14.52l-55.33 0Z" id="p116w243" />
<path d="M445.71 622.7l13.9 0l0 14.52l-13.9 0Z" id="p116w244" />
<path d="M462.81 622.7l42.52 0l0 14.52l-42.52 0Z" id="p116w245" />
<path d="M462.01 639.37l24.78 0l0 14.52l-24.78 0Z" id="p116w246" />
<path d="M445.71 656.04l49.75 0l0 14.52l-49.75 0Z" id="p116w247" />
<path d="M498.67 656.04l33.05 0l0 14.52l-33.05 0Z" id="p116w248" />
<path d="M534.92 656.04l20.85 0l0 14.52l-20.85 0Z" id="p116w249" />
<path d="M558.99 656.04l11.5 0l0 14.52l-11.5 0Z" id="p116w250" />
<path d="M573.69 656.04l13.9 0l0 14.52l-13.9 0Z" id="p116w251" />
<path d="M609.75 656.05l19.51 0l0 14.52l-19.51 0Z" id="p116w252" />
<path d="M445.71 672.72l15.5 0l0 14.52l-15.5 0Z" id="p116w253" />
<path d="M464.41 672.72l44.38 0l0 14.52l-44.38 0Z" id="p116w254" />
<path d="M512 672.72l13.9 0l0 14.52l-13.9 0Z" id="p116w255" />
<path d="M529.1 672.72l16.83 0l0 14.52l-16.83 0Z" id="p116w256" />
<path d="M549.14 672.72l28.34 0l0 14.52l-28.34 0Z" id="p116w257" />
<path d="M445.71 689.39l28.07 0l0 14.52l-28.07 0Z" id="p116w258" />
<path d="M495.95 689.39l9.89 0l0 14.52l-9.89 0Z" id="p116w259" />
<path d="M509.04 689.39l67.37 0l0 14.52l-67.37 0Z" id="p116w260" />
<path d="M579.62 689.39l13.9 0l0 14.52l-13.9 0Z" id="p116w261" />
<path d="M596.72 689.39l31.02 0l0 14.52l-31.02 0Z" id="p116w262" />
<path d="M464.66 706.06l15.5 0l0 14.52l-15.5 0Z" id="p116w263" />
<path d="M483.37 706.06l57.22 0l0 14.52l-57.22 0Z" id="p116w264" />
<path d="M445.71 722.73l10.43 0l0 14.52l-10.43 0Z" id="p116w265" />
<path d="M459.35 722.73l19.07 0l0 14.52l-19.07 0Z" id="p116w266" />
<path d="M481.63 722.73l19.51 0l0 14.52l-19.51 0Z" id="p116w267" />
<path d="M124.06 774.9l18.69 0l0 18.84l-18.69 0Z" id="p116w268" />
<path d="M146.4 774.9l68.98 0l0 18.84l-68.98 0Z" id="p116w269" />
<path d="M218.71 774.9l15.26 0l0 18.84l-15.26 0Z" id="p116w270" />
<path d="M237.62 774.9l18.36 0l0 18.84l-18.36 0Z" id="p116w271" />
<path d="M259.63 774.9l59.1 0l0 18.84l-59.1 0Z" id="p116w272" />
<path d="M123.63 806.1l26.21 0l0 14.52l-26.21 0Z" id="p116w273" />
<path d="M153.05 806.1l37.68 0l0 14.52l-37.68 0Z" id="p116w274" />
<path d="M193.94 806.1l18.72 0l0 14.52l-18.72 0Z" id="p116w275" />
<path d="M215.86 806.1l50.62 0l0 14.52l-50.62 0Z" id="p116w276" />
<path d="M279.58 806.1l52.68 0l0 14.52l-52.68 0Z" id="p116w277" />
<path d="M335.46 806.1l25.4 0l0 14.52l-25.4 0Z" id="p116w278" />
<path d="M364.06 806.1l18.72 0l0 14.52l-18.72 0Z" id="p116w279" />
<path d="M124.06 822.77l45.17 0l0 14.52l-45.17 0Z" id="p116w280" />
<path d="M172.44 822.77l46.51 0l0 14.52l-46.51 0Z" id="p116w281" />
<path d="M222.16 822.77l28.87 0l0 14.52l-28.87 0Z" id="p116w282" />
<path d="M254.23 822.77l33.68 0l0 14.52l-33.68 0Z" id="p116w283" />
<path d="M301.01 822.77l36.89 0l0 14.52l-36.89 0Z" id="p116w284" />
<path d="M341.11 822.77l6.41 0l0 14.52l-6.41 0Z" id="p116w285" />
<path d="M124.06 839.44l50.53 0l0 14.52l-50.53 0Z" id="p116w286" />
<path d="M177.8 839.44l61.48 0l0 14.52l-61.48 0Z" id="p116w287" />
<path d="M124.06 856.11l51.89 0l0 14.52l-51.89 0Z" id="p116w288" />
<path d="M179.16 856.11l9.89 0l0 14.52l-9.89 0Z" id="p116w289" />
<path d="M192.25 856.11l30.21 0l0 14.52l-30.21 0Z" id="p116w290" />
<path d="M249.38 858.51l30.71 0l0 11.53l-30.71 0Z" id="p116w291" />
<path d="M287.5 856.12l11.22 0l0 14.52l-11.22 0Z" id="p116w292" />
<path d="M301.92 856.12l29.42 0l0 14.52l-29.42 0Z" id="p116w293" />
<path d="M334.55 856.12l15.5 0l0 14.52l-15.5 0Z" id="p116w294" />
<path d="M124.06 872.79l64.14 0l0 14.52l-64.14 0Z" id="p116w295" />
<path d="M45.59 499.5l26.31 0l0 12.3l-26.31 0Z" id="p116w296" />
<path d="M547.78 453.45l65.22 0l0 12.56l-65.22 0Z" id="p116w297" />
<path d="M442.09 484.86l9.62 0l0 14.52l-9.62 0Z" id="p116w298" />
<path d="M454.92 484.86l21.38 0l0 14.52l-21.38 0Z" id="p116w299" />
<path d="M544.9 484.86l26.74 0l0 14.52l-26.74 0Z" id="p116w300" />
<path d="M574.85 484.86l41.71 0l0 14.52l-41.71 0Z" id="p116w301" />
<path d="M442.09 501.53l11.5 0l0 14.52l-11.5 0Z" id="p116w302" />
<path d="M456.8 501.53l21.38 0l0 14.52l-21.38 0Z" id="p116w303" />
<path d="M544.9 501.53l25.67 0l0 14.52l-25.67 0Z" id="p116w304" />
<path d="M573.78 501.53l34.49 0l0 14.52l-34.49 0Z" id="p116w305" />
<path d="M442.09 518.2l6.41 0l0 14.52l-6.41 0Z" id="p116w306" />
<path d="M456.76 518.2l19.77 0l0 14.52l-19.77 0Z" id="p116w307" />
<path d="M484.78 518.2l14.18 0l0 14.52l-14.18 0Z" id="p116w308" />
<path d="M502.16 518.2l20.31 0l0 14.52l-20.31 0Z" id="p116w309" />
<path d="M544.91 518.2l12.02 0l0 14.52l-12.02 0Z" id="p116w310" />
<path d="M565.19 518.2l25.38 0l0 14.52l-25.38 0Z" id="p116w311" />
<path d="M593.78 518.2l40.36 0l0 14.52l-40.36 0Z" id="p116w312" />
<path d="M442.11 538.82l18.47 0l0 14.52l-18.47 0Z" id="p116w313" />
<path d="M470.19 538.82l14.8 0l0 14.52l-14.8 0Z" id="p116w314" />
<path d="M488.2 538.75l25.5 0l0 14.6l-25.5 0Z" id="p116w315" />
<path d="M40.54 807.88l48.07 0l0 12.29l-48.07 0Z" id="p116w316" />
<path d="M60.68 824.55l27.93 0l0 12.29l-27.93 0Z" id="p116w317" />
<path d="M52.89 857.96l35.72 0l0 12.3l-35.72 0Z" id="p116w318" />
<path d="M44.38 870.47l44.24 0l0 12.3l-44.24 0Z" id="p116w319" />
<path d="M124.06 39.02l46.09 0l0 15.38l-46.09 0Z" id="p116w320" />
<path d="M208.74 39.02l46.59 0l0 15.38l-46.59 0Z" id="p116w321" />
<path d="M307.2 38.6l45.06 0l0 16.09l-45.06 0Z" id="p116w322" />
<path d="M406.45 39.02l32.54 0l0 15.38l-32.54 0Z" id="p116w323" />
<path d="M76.9 983l64.99 0l0 12.23l-64.99 0Z" id="p116w324" />
</svg>
