<?xml version="1.0" encoding="UTF-8"?>
<svg xmlns="http://www.w3.org/2000/svg" xmlns:xlink="http://www.w3.org/1999/xlink" version="1.1" baseProfile="full" width="768" height="1024" viewBox="0,0,768,1024" preserveAspectRatio="xMinYMin meet" >
<style type="text/css">
<![CDATA[
path {fill-opacity: 0.5;fill: #00aeef;visibility: hidden;}
]]>
</style>
<path d="M138.66 113.89l17.05 0l0 15.09l-17.05 0Z" id="p51w1" />
<path d="M159.33 113.89l34.12 0l0 15.09l-34.12 0Z" id="p51w2" />
<path d="M197.06 113.89l54.03 0l0 15.09l-54.03 0Z" id="p51w3" />
<path d="M254.7 113.89l26.3 0l0 15.09l-26.3 0Z" id="p51w4" />
<path d="M284.61 113.89l10.42 0l0 15.09l-10.42 0Z" id="p51w5" />
<path d="M298.64 113.89l53.99 0l0 15.09l-53.99 0Z" id="p51w6" />
<path d="M356.25 113.89l33.07 0l0 15.09l-33.07 0Z" id="p51w7" />
<path d="M124.06 130.56l14.59 0l0 15.09l-14.59 0Z" id="p51w8" />
<path d="M142.26 130.56l34.69 0l0 15.09l-34.69 0Z" id="p51w9" />
<path d="M180.56 130.56l27.23 0l0 15.09l-27.23 0Z" id="p51w10" />
<path d="M211.4 130.56l15.89 0l0 15.09l-15.89 0Z" id="p51w11" />
<path d="M230.9 130.56l58.08 0l0 15.09l-58.08 0Z" id="p51w12" />
<path d="M292.59 130.56l25.69 0l0 15.09l-25.69 0Z" id="p51w13" />
<path d="M321.89 130.56l42.17 0l0 15.09l-42.17 0Z" id="p51w14" />
<path d="M367.67 130.56l11.26 0l0 15.09l-11.26 0Z" id="p51w15" />
<path d="M382.54 130.56l52.31 0l0 15.09l-52.31 0Z" id="p51w16" />
<path d="M124.06 147.23l36.87 0l0 15.09l-36.87 0Z" id="p51w17" />
<path d="M164.55 147.23l16.64 0l0 15.09l-16.64 0Z" id="p51w18" />
<path d="M184.8 147.23l50.07 0l0 15.09l-50.07 0Z" id="p51w19" />
<path d="M124.06 174.31l28.99 0l0 12.29l-28.99 0Z" id="p51w20" />
<path d="M162.29 172.25l42.14 0l0 15.09l-42.14 0Z" id="p51w21" />
<path d="M214.99 172.25l28.72 0l0 15.09l-28.72 0Z" id="p51w22" />
<path d="M247.33 172.25l10.5 0l0 15.09l-10.5 0Z" id="p51w23" />
<path d="M261.44 172.25l42.58 0l0 15.09l-42.58 0Z" id="p51w24" />
<path d="M307.63 172.25l13.91 0l0 15.09l-13.91 0Z" id="p51w25" />
<path d="M332.1 172.25l10.71 0l0 15.09l-10.71 0Z" id="p51w26" />
<path d="M346.42 172.25l10.54 0l0 15.09l-10.54 0Z" id="p51w27" />
<path d="M360.57 172.25l32.64 0l0 15.09l-32.64 0Z" id="p51w28" />
<path d="M135.87 188.92l10.54 0l0 15.09l-10.54 0Z" id="p51w29" />
<path d="M150.02 188.92l33.03 0l0 15.09l-33.03 0Z" id="p51w30" />
<path d="M186.67 188.92l24.62 0l0 15.09l-24.62 0Z" id="p51w31" />
<path d="M214.9 188.92l23.9 0l0 15.09l-23.9 0Z" id="p51w32" />
<path d="M242.42 188.92l24.92 0l0 15.09l-24.92 0Z" id="p51w33" />
<path d="M270.95 188.92l13.91 0l0 15.09l-13.91 0Z" id="p51w34" />
<path d="M288.47 188.92l10.42 0l0 15.09l-10.42 0Z" id="p51w35" />
<path d="M302.5 188.92l26.5 0l0 15.09l-26.5 0Z" id="p51w36" />
<path d="M124.06 213.93l8.02 0l0 15.09l-8.02 0Z" id="p51w37" />
<path d="M135.69 213.93l26.41 0l0 15.09l-26.41 0Z" id="p51w38" />
<path d="M165.72 213.93l18.49 0l0 15.09l-18.49 0Z" id="p51w39" />
<path d="M187.82 213.93l20.54 0l0 15.09l-20.54 0Z" id="p51w40" />
<path d="M211.97 213.93l49.17 0l0 15.09l-49.17 0Z" id="p51w41" />
<path d="M264.75 213.93l36.19 0l0 15.09l-36.19 0Z" id="p51w42" />
<path d="M304.56 213.93l17.34 0l0 15.09l-17.34 0Z" id="p51w43" />
<path d="M325.51 213.93l70.69 0l0 15.09l-70.69 0Z" id="p51w44" />
<path d="M399.8 213.93l27.82 0l0 15.09l-27.82 0Z" id="p51w45" />
<path d="M135.87 230.6l10.5 0l0 15.09l-10.5 0Z" id="p51w46" />
<path d="M149.99 230.6l44.25 0l0 15.09l-44.25 0Z" id="p51w47" />
<path d="M197.85 230.6l26.5 0l0 15.09l-26.5 0Z" id="p51w48" />
<path d="M227.96 230.6l23.07 0l0 15.09l-23.07 0Z" id="p51w49" />
<path d="M254.64 230.6l33.9 0l0 15.09l-33.9 0Z" id="p51w50" />
<path d="M302.26 230.6l20.54 0l0 15.09l-20.54 0Z" id="p51w51" />
<path d="M326.4 230.6l36.89 0l0 15.09l-36.89 0Z" id="p51w52" />
<path d="M366.9 230.6l14.59 0l0 15.09l-14.59 0Z" id="p51w53" />
<path d="M385.1 230.6l65.74 0l0 15.09l-65.74 0Z" id="p51w54" />
<path d="M138.66 263.95l70.26 0l0 15.09l-70.26 0Z" id="p51w55" />
<path d="M212.54 263.95l15.89 0l0 15.09l-15.89 0Z" id="p51w56" />
<path d="M232.03 263.95l26.5 0l0 15.09l-26.5 0Z" id="p51w57" />
<path d="M262.14 263.95l28.45 0l0 15.09l-28.45 0Z" id="p51w58" />
<path d="M294.21 263.95l44.12 0l0 15.09l-44.12 0Z" id="p51w59" />
<path d="M341.94 263.95l22.03 0l0 15.09l-22.03 0Z" id="p51w60" />
<path d="M367.58 263.95l22.03 0l0 15.09l-22.03 0Z" id="p51w61" />
<path d="M393.22 263.95l21.84 0l0 15.09l-21.84 0Z" id="p51w62" />
<path d="M124.06 280.62l44.35 0l0 15.09l-44.35 0Z" id="p51w63" />
<path d="M172.03 280.62l35.14 0l0 15.09l-35.14 0Z" id="p51w64" />
<path d="M210.78 280.62l27.93 0l0 15.09l-27.93 0Z" id="p51w65" />
<path d="M242.31 280.62l36.87 0l0 15.09l-36.87 0Z" id="p51w66" />
<path d="M282.8 280.62l46.77 0l0 15.09l-46.77 0Z" id="p51w67" />
<path d="M333.18 280.62l10.5 0l0 15.09l-10.5 0Z" id="p51w68" />
<path d="M347.29 280.62l25.04 0l0 15.09l-25.04 0Z" id="p51w69" />
<path d="M375.94 280.62l27.82 0l0 15.09l-27.82 0Z" id="p51w70" />
<path d="M407.37 280.62l54.21 0l0 15.09l-54.21 0Z" id="p51w71" />
<path d="M124.06 297.28l14.86 0l0 15.09l-14.86 0Z" id="p51w72" />
<path d="M142.53 297.28l17.34 0l0 15.09l-17.34 0Z" id="p51w73" />
<path d="M163.48 297.28l44.12 0l0 15.09l-44.12 0Z" id="p51w74" />
<path d="M211.21 297.28l57.73 0l0 15.09l-57.73 0Z" id="p51w75" />
<path d="M272.55 297.28l10.5 0l0 15.09l-10.5 0Z" id="p51w76" />
<path d="M286.67 297.28l54.78 0l0 15.09l-54.78 0Z" id="p51w77" />
<path d="M345.05 297.28l36.87 0l0 15.09l-36.87 0Z" id="p51w78" />
<path d="M385.54 297.28l16.64 0l0 15.09l-16.64 0Z" id="p51w79" />
<path d="M405.79 297.28l15.74 0l0 15.09l-15.74 0Z" id="p51w80" />
<path d="M425.15 297.28l21.87 0l0 15.09l-21.87 0Z" id="p51w81" />
<path d="M124.06 313.95l30.63 0l0 15.09l-30.63 0Z" id="p51w82" />
<path d="M158.3 313.95l13.91 0l0 15.09l-13.91 0Z" id="p51w83" />
<path d="M175.82 313.95l36.36 0l0 15.09l-36.36 0Z" id="p51w84" />
<path d="M215.79 313.95l27.81 0l0 15.09l-27.81 0Z" id="p51w85" />
<path d="M247.21 313.95l27.23 0l0 15.09l-27.23 0Z" id="p51w86" />
<path d="M278.06 313.95l52.65 0l0 15.09l-52.65 0Z" id="p51w87" />
<path d="M334.32 313.95l32.01 0l0 15.09l-32.01 0Z" id="p51w88" />
<path d="M369.95 313.95l7.84 0l0 15.09l-7.84 0Z" id="p51w89" />
<path d="M381.4 313.95l42.45 0l0 15.09l-42.45 0Z" id="p51w90" />
<path d="M427.46 313.95l42.17 0l0 15.09l-42.17 0Z" id="p51w91" />
<path d="M134.17 330.62l40.07 0l0 15.09l-40.07 0Z" id="p51w92" />
<path d="M177.85 330.62l27.3 0l0 15.09l-27.3 0Z" id="p51w93" />
<path d="M208.76 330.62l57.89 0l0 15.09l-57.89 0Z" id="p51w94" />
<path d="M270.25 330.62l15.89 0l0 15.09l-15.89 0Z" id="p51w95" />
<path d="M289.75 330.62l36.83 0l0 15.09l-36.83 0Z" id="p51w96" />
<path d="M330.2 330.62l27.82 0l0 15.09l-27.82 0Z" id="p51w97" />
<path d="M361.63 330.62l24.93 0l0 15.09l-24.93 0Z" id="p51w98" />
<path d="M390.18 330.62l15.89 0l0 15.09l-15.89 0Z" id="p51w99" />
<path d="M409.67 330.62l27.93 0l0 15.09l-27.93 0Z" id="p51w100" />
<path d="M124.06 347.29l55.85 0l0 15.09l-55.85 0Z" id="p51w101" />
<path d="M183.53 347.29l26.5 0l0 15.09l-26.5 0Z" id="p51w102" />
<path d="M223.74 347.29l36.8 0l0 15.09l-36.8 0Z" id="p51w103" />
<path d="M264.15 347.29l27.16 0l0 15.09l-27.16 0Z" id="p51w104" />
<path d="M294.92 347.29l25.06 0l0 15.09l-25.06 0Z" id="p51w105" />
<path d="M323.59 347.29l7.84 0l0 15.09l-7.84 0Z" id="p51w106" />
<path d="M335.04 347.29l19.62 0l0 15.09l-19.62 0Z" id="p51w107" />
<path d="M358.28 347.29l15.74 0l0 15.09l-15.74 0Z" id="p51w108" />
<path d="M377.63 347.29l31.41 0l0 15.09l-31.41 0Z" id="p51w109" />
<path d="M412.65 347.29l57.96 0l0 15.09l-57.96 0Z" id="p51w110" />
<path d="M124.06 363.96l46.28 0l0 15.09l-46.28 0Z" id="p51w111" />
<path d="M173.95 363.96l16.14 0l0 15.09l-16.14 0Z" id="p51w112" />
<path d="M193.71 363.96l42.17 0l0 15.09l-42.17 0Z" id="p51w113" />
<path d="M239.49 363.96l26.57 0l0 15.09l-26.57 0Z" id="p51w114" />
<path d="M269.66 363.96l24.37 0l0 15.09l-24.37 0Z" id="p51w115" />
<path d="M297.64 363.96l11.95 0l0 15.09l-11.95 0Z" id="p51w116" />
<path d="M313.21 363.96l50.95 0l0 15.09l-50.95 0Z" id="p51w117" />
<path d="M377.86 363.96l20.54 0l0 15.09l-20.54 0Z" id="p51w118" />
<path d="M402.01 363.96l36.17 0l0 15.09l-36.17 0Z" id="p51w119" />
<path d="M124.06 380.63l14.59 0l0 15.09l-14.59 0Z" id="p51w120" />
<path d="M142.26 380.63l62.58 0l0 15.09l-62.58 0Z" id="p51w121" />
<path d="M124.06 424.77l34.63 0l0 18.84l-34.63 0Z" id="p51w122" />
<path d="M162.34 424.77l89.43 0l0 18.84l-89.43 0Z" id="p51w123" />
<path d="M255.42 424.77l13.62 0l0 18.84l-13.62 0Z" id="p51w124" />
<path d="M272.69 424.77l38.39 0l0 18.84l-38.39 0Z" id="p51w125" />
<path d="M123.71 455.97l42.53 0l0 14.52l-42.53 0Z" id="p51w126" />
<path d="M169.44 455.97l14.18 0l0 14.52l-14.18 0Z" id="p51w127" />
<path d="M186.82 455.97l23.51 0l0 14.52l-23.51 0Z" id="p51w128" />
<path d="M213.54 455.97l25.67 0l0 14.52l-25.67 0Z" id="p51w129" />
<path d="M242.42 455.97l40.64 0l0 14.52l-40.64 0Z" id="p51w130" />
<path d="M286.27 455.97l64.08 0l0 14.52l-64.08 0Z" id="p51w131" />
<path d="M353.56 455.97l14.18 0l0 14.52l-14.18 0Z" id="p51w132" />
<path d="M370.94 455.97l31.01 0l0 14.52l-31.01 0Z" id="p51w133" />
<path d="M143.75 489.31l54.53 0l0 14.52l-54.53 0Z" id="p51w134" />
<path d="M201.49 489.31l33.05 0l0 14.52l-33.05 0Z" id="p51w135" />
<path d="M237.75 489.31l20.85 0l0 14.52l-20.85 0Z" id="p51w136" />
<path d="M261.81 489.31l33.41 0l0 14.52l-33.41 0Z" id="p51w137" />
<path d="M298.42 489.31l12.29 0l0 14.52l-12.29 0Z" id="p51w138" />
<path d="M313.92 489.31l24.05 0l0 14.52l-24.05 0Z" id="p51w139" />
<path d="M341.18 489.31l46.78 0l0 14.52l-46.78 0Z" id="p51w140" />
<path d="M391.16 489.31l19.79 0l0 14.52l-19.79 0Z" id="p51w141" />
<path d="M414.15 489.31l33.68 0l0 14.52l-33.68 0Z" id="p51w142" />
<path d="M460.93 489.31l50.76 0l0 14.52l-50.76 0Z" id="p51w143" />
<path d="M143.75 505.98l42.53 0l0 14.52l-42.53 0Z" id="p51w144" />
<path d="M189.49 505.98l26.73 0l0 14.52l-26.73 0Z" id="p51w145" />
<path d="M219.43 505.98l9.89 0l0 14.52l-9.89 0Z" id="p51w146" />
<path d="M232.52 505.98l28.33 0l0 14.52l-28.33 0Z" id="p51w147" />
<path d="M264.05 505.98l15.5 0l0 14.52l-15.5 0Z" id="p51w148" />
<path d="M282.76 505.98l62.26 0l0 14.52l-62.26 0Z" id="p51w149" />
<path d="M348.23 505.98l17.38 0l0 14.52l-17.38 0Z" id="p51w150" />
<path d="M368.82 505.98l81.27 0l0 14.52l-81.27 0Z" id="p51w151" />
<path d="M463.18 505.98l40.64 0l0 14.52l-40.64 0Z" id="p51w152" />
<path d="M507.03 505.98l61.76 0l0 14.52l-61.76 0Z" id="p51w153" />
<path d="M143.75 522.65l22.99 0l0 14.52l-22.99 0Z" id="p51w154" />
<path d="M169.96 522.65l58.43 0l0 14.52l-58.43 0Z" id="p51w155" />
<path d="M231.6 522.65l26.73 0l0 14.52l-26.73 0Z" id="p51w156" />
<path d="M261.53 522.65l37.43 0l0 14.52l-37.43 0Z" id="p51w157" />
<path d="M143.75 606.02l53.22 0l0 14.52l-53.22 0Z" id="p51w158" />
<path d="M200.18 606.02l25.67 0l0 14.52l-25.67 0Z" id="p51w159" />
<path d="M229.06 606.02l40.64 0l0 14.52l-40.64 0Z" id="p51w160" />
<path d="M272.91 606.02l59.08 0l0 14.52l-59.08 0Z" id="p51w161" />
<path d="M335.2 606.02l50.01 0l0 14.52l-50.01 0Z" id="p51w162" />
<path d="M388.42 606.02l33.41 0l0 14.52l-33.41 0Z" id="p51w163" />
<path d="M425.03 606.02l12.29 0l0 14.52l-12.29 0Z" id="p51w164" />
<path d="M440.53 606.02l24.05 0l0 14.52l-24.05 0Z" id="p51w165" />
<path d="M467.78 606.02l28.6 0l0 14.52l-28.6 0Z" id="p51w166" />
<path d="M163.45 631.05l33.59 0l0 14.61l-33.59 0Z" id="p51w167" />
<path d="M200.25 631.05l16.83 0l0 14.61l-16.83 0Z" id="p51w168" />
<path d="M220.28 631.05l44.27 0l0 14.61l-44.27 0Z" id="p51w169" />
<path d="M267.76 631.05l30.66 0l0 14.61l-30.66 0Z" id="p51w170" />
<path d="M301.63 631.05l35.26 0l0 14.61l-35.26 0Z" id="p51w171" />
<path d="M143.75 656.05l53.22 0l0 14.52l-53.22 0Z" id="p51w172" />
<path d="M200.18 656.05l64.94 0l0 14.52l-64.94 0Z" id="p51w173" />
<path d="M268.33 656.05l9.89 0l0 14.52l-9.89 0Z" id="p51w174" />
<path d="M281.42 656.05l23.51 0l0 14.52l-23.51 0Z" id="p51w175" />
<path d="M308.14 656.05l14.18 0l0 14.52l-14.18 0Z" id="p51w176" />
<path d="M325.52 656.05l31.01 0l0 14.52l-31.01 0Z" id="p51w177" />
<path d="M143.75 689.39l25.41 0l0 14.52l-25.41 0Z" id="p51w178" />
<path d="M172.37 689.39l34.23 0l0 14.52l-34.23 0Z" id="p51w179" />
<path d="M209.8 689.39l33.41 0l0 14.52l-33.41 0Z" id="p51w180" />
<path d="M246.42 689.39l21.92 0l0 14.52l-21.92 0Z" id="p51w181" />
<path d="M271.55 689.39l31.53 0l0 14.52l-31.53 0Z" id="p51w182" />
<path d="M306.29 689.39l14.18 0l0 14.52l-14.18 0Z" id="p51w183" />
<path d="M323.67 689.39l41.43 0l0 14.52l-41.43 0Z" id="p51w184" />
<path d="M368.31 689.39l17.11 0l0 14.52l-17.11 0Z" id="p51w185" />
<path d="M388.63 689.39l19.79 0l0 14.52l-19.79 0Z" id="p51w186" />
<path d="M411.62 689.39l33.68 0l0 14.52l-33.68 0Z" id="p51w187" />
<path d="M448.51 689.39l13.9 0l0 14.52l-13.9 0Z" id="p51w188" />
<path d="M465.62 689.39l39.57 0l0 14.52l-39.57 0Z" id="p51w189" />
<path d="M143.75 706.06l57.21 0l0 14.52l-57.21 0Z" id="p51w190" />
<path d="M204.17 706.06l14.18 0l0 14.52l-14.18 0Z" id="p51w191" />
<path d="M221.55 706.06l19.51 0l0 14.52l-19.51 0Z" id="p51w192" />
<path d="M244.27 706.06l34.75 0l0 14.52l-34.75 0Z" id="p51w193" />
<path d="M282.23 706.06l45.8 0l0 14.52l-45.8 0Z" id="p51w194" />
<path d="M331.24 706.06l11.22 0l0 14.52l-11.22 0Z" id="p51w195" />
<path d="M345.66 706.06l39.03 0l0 14.52l-39.03 0Z" id="p51w196" />
<path d="M387.9 706.06l9.89 0l0 14.52l-9.89 0Z" id="p51w197" />
<path d="M401 706.06l41.43 0l0 14.52l-41.43 0Z" id="p51w198" />
<path d="M455.52 706.06l9.89 0l0 14.52l-9.89 0Z" id="p51w199" />
<path d="M468.62 706.06l29.67 0l0 14.52l-29.67 0Z" id="p51w200" />
<path d="M501.5 706.06l13.9 0l0 14.52l-13.9 0Z" id="p51w201" />
<path d="M518.6 706.06l36.09 0l0 14.52l-36.09 0Z" id="p51w202" />
<path d="M143.75 764.41l42.53 0l0 14.52l-42.53 0Z" id="p51w203" />
<path d="M189.49 764.41l19.51 0l0 14.52l-19.51 0Z" id="p51w204" />
<path d="M212.21 764.41l35 0l0 14.52l-35 0Z" id="p51w205" />
<path d="M250.42 764.41l17.38 0l0 14.52l-17.38 0Z" id="p51w206" />
<path d="M271.01 764.41l18.72 0l0 14.52l-18.72 0Z" id="p51w207" />
<path d="M292.93 764.41l32.09 0l0 14.52l-32.09 0Z" id="p51w208" />
<path d="M328.23 764.41l15.5 0l0 14.52l-15.5 0Z" id="p51w209" />
<path d="M346.93 764.41l26.74 0l0 14.52l-26.74 0Z" id="p51w210" />
<path d="M376.88 764.41l35 0l0 14.52l-35 0Z" id="p51w211" />
<path d="M415.09 764.41l34.75 0l0 14.52l-34.75 0Z" id="p51w212" />
<path d="M453.05 764.41l11.22 0l0 14.52l-11.22 0Z" id="p51w213" />
<path d="M467.48 764.41l39.28 0l0 14.52l-39.28 0Z" id="p51w214" />
<path d="M143.75 781.08l18.72 0l0 14.52l-18.72 0Z" id="p51w215" />
<path d="M165.68 781.08l48.36 0l0 14.52l-48.36 0Z" id="p51w216" />
<path d="M217.25 781.08l13.9 0l0 14.52l-13.9 0Z" id="p51w217" />
<path d="M234.36 781.08l48.93 0l0 14.52l-48.93 0Z" id="p51w218" />
<path d="M286.49 781.08l25.67 0l0 14.52l-25.67 0Z" id="p51w219" />
<path d="M315.37 781.08l40.36 0l0 14.52l-40.36 0Z" id="p51w220" />
<path d="M358.94 781.08l9.89 0l0 14.52l-9.89 0Z" id="p51w221" />
<path d="M372.04 781.08l41.43 0l0 14.52l-41.43 0Z" id="p51w222" />
<path d="M416.68 781.08l45.45 0l0 14.52l-45.45 0Z" id="p51w223" />
<path d="M465.33 781.08l13.9 0l0 14.52l-13.9 0Z" id="p51w224" />
<path d="M482.43 781.08l36.09 0l0 14.52l-36.09 0Z" id="p51w225" />
<path d="M124.06 824.92l23.83 0l0 18.84l-23.83 0Z" id="p51w226" />
<path d="M151.54 824.92l18.36 0l0 18.84l-18.36 0Z" id="p51w227" />
<path d="M173.54 824.92l37.28 0l0 18.84l-37.28 0Z" id="p51w228" />
<path d="M156.32 856.12l13.9 0l0 14.52l-13.9 0Z" id="p51w229" />
<path d="M173.43 856.12l13.91 0l0 14.52l-13.91 0Z" id="p51w230" />
<path d="M190.54 856.12l21.65 0l0 14.52l-21.65 0Z" id="p51w231" />
<path d="M223.33 856.12l42.53 0l0 14.52l-42.53 0Z" id="p51w232" />
<path d="M269.07 856.12l9.89 0l0 14.52l-9.89 0Z" id="p51w233" />
<path d="M282.16 856.12l35.29 0l0 14.52l-35.29 0Z" id="p51w234" />
<path d="M320.66 856.12l66.04 0l0 14.52l-66.04 0Z" id="p51w235" />
<path d="M143.75 914.47l32.87 0l0 14.52l-32.87 0Z" id="p51w236" />
<path d="M179.83 914.47l64.94 0l0 14.52l-64.94 0Z" id="p51w237" />
<path d="M247.98 914.47l20.85 0l0 14.52l-20.85 0Z" id="p51w238" />
<path d="M272.04 914.47l37.68 0l0 14.52l-37.68 0Z" id="p51w239" />
<path d="M312.93 914.47l25.4 0l0 14.52l-25.4 0Z" id="p51w240" />
<path d="M341.53 914.47l39.85 0l0 14.52l-39.85 0Z" id="p51w241" />
<path d="M384.59 914.47l19.51 0l0 14.52l-19.51 0Z" id="p51w242" />
<path d="M407.31 914.47l39.56 0l0 14.52l-39.56 0Z" id="p51w243" />
<path d="M478.36 97.22l37.75 0l0 12.29l-37.75 0Z" id="p51w244" />
<path d="M523.19 97.22l33.73 0l0 12.29l-33.73 0Z" id="p51w245" />
<path d="M487.9 111.17l45.92 0l0 12.23l-45.92 0Z" id="p51w246" />
<path d="M536.52 111.17l23.11 0l0 12.23l-23.11 0Z" id="p51w247" />
<path d="M562.33 111.17l28.83 0l0 12.23l-28.83 0Z" id="p51w248" />
<path d="M593.86 111.17l8.33 0l0 12.23l-8.33 0Z" id="p51w249" />
<path d="M604.89 111.17l54.86 0l0 12.23l-54.86 0Z" id="p51w250" />
<path d="M478.36 125.06l32.88 0l0 12.23l-32.88 0Z" id="p51w251" />
<path d="M524.95 125.06l17.55 0l0 12.23l-17.55 0Z" id="p51w252" />
<path d="M545.2 125.06l20.25 0l0 12.23l-20.25 0Z" id="p51w253" />
<path d="M568.15 125.06l11.94 0l0 12.23l-11.94 0Z" id="p51w254" />
<path d="M582.79 125.06l20.26 0l0 12.23l-20.26 0Z" id="p51w255" />
<path d="M605.76 125.06l35.96 0l0 12.23l-35.96 0ZM478.36 138.95l49.02 0l0 12.23l-49.02 0Z" id="p51w256" />
<path d="M530.08 138.95l44.56 0l0 12.23l-44.56 0Z" id="p51w257" />
<path d="M488.72 152.85l41.89 0l0 12.23l-41.89 0Z" id="p51w258" />
<path d="M533.32 152.85l23.11 0l0 12.23l-23.11 0Z" id="p51w259" />
<path d="M559.13 152.85l41.42 0l0 12.23l-41.42 0Z" id="p51w260" />
<path d="M478.36 166.74l33.46 0l0 12.23l-33.46 0Z" id="p51w261" />
<path d="M514.52 166.74l20.25 0l0 12.23l-20.25 0Z" id="p51w262" />
<path d="M537.47 166.74l11.94 0l0 12.23l-11.94 0Z" id="p51w263" />
<path d="M552.11 166.74l11.7 0l0 12.23l-11.7 0Z" id="p51w264" />
<path d="M566.52 166.74l20.93 0l0 12.23l-20.93 0Z" id="p51w265" />
<path d="M590.15 166.74l49.02 0l0 12.23l-49.02 0Z" id="p51w266" />
<path d="M478.36 180.64l72.87 0l0 12.23l-72.87 0Z" id="p51w267" />
<path d="M492.94 208.42l50.14 0l0 12.23l-50.14 0Z" id="p51w268" />
<path d="M545.78 208.42l35.32 0l0 12.23l-35.32 0Z" id="p51w269" />
<path d="M592.13 208.42l44.5 0l0 12.23l-44.5 0Z" id="p51w270" />
<path d="M478.36 222.32l38.94 0l0 12.23l-38.94 0Z" id="p51w271" />
<path d="M520 222.32l11.94 0l0 12.23l-11.94 0Z" id="p51w272" />
<path d="M534.64 222.32l21.55 0l0 12.23l-21.55 0Z" id="p51w273" />
<path d="M558.89 222.32l26.11 0l0 12.23l-26.11 0Z" id="p51w274" />
<path d="M587.7 222.32l41.63 0l0 12.23l-41.63 0Z" id="p51w275" />
<path d="M478.36 236.21l91.16 0l0 12.23l-91.16 0Z" id="p51w276" />
<path d="M572.22 236.21l41.87 0l0 12.23l-41.87 0Z" id="p51w277" />
<path d="M563.41 309.77l22.26 0l0 11.15l-22.26 0Z" id="p51w278" />
<path d="M588.5 311.96l50.36 0l0 13.61l-50.36 0Z" id="p51w279" />
<path d="M562.22 323.44l33.29 0l0 10.58l-33.29 0Z" id="p51w280" />
<path d="M606.75 327.34l34.45 0l0 10.68l-34.45 0Z" id="p51w281" />
<path d="M561.49 331.75l6.16 0l0 8.21l-6.16 0Z" id="p51w282" />
<path d="M578.21 333.21l8.73 0l0 8.43l-8.73 0Z" id="p51w283" />
<path d="M594.88 334.67l13.01 0l0 8.81l-13.01 0Z" id="p51w284" />
<path d="M565.15 398.38l25.8 0l0 11.51l-25.8 0Z" id="p51w285" />
<path d="M593.61 400.87l31.43 0l0 12l-31.43 0Z" id="p51w286" />
<path d="M565.8 408.07l15.83 0l0 9.06l-15.83 0Z" id="p51w287" />
<path d="M583.98 409.66l4.73 0l0 8.08l-4.73 0Z" id="p51w288" />
<path d="M590.91 410.27l31.85 0l0 10.46l-31.85 0Z" id="p51w289" />
<path d="M589.74 418.53l7.84 0l0 8.36l-7.84 0Z" id="p51w290" />
<path d="M73.54 432.74l15.07 0l0 12.29l-15.07 0Z" id="p51w291" />
<path d="M50.66 445.23l37.96 0l0 13.07l-37.96 0Z" id="p51w292" />
<path d="M36.42 456.34l52.2 0l0 13.07l-52.2 0Z" id="p51w293" />
<path d="M62.22 691.17l26.4 0l0 12.29l-26.4 0Z" id="p51w294" />
<path d="M41.44 702.74l47 0l0 13.07l-47 0Z" id="p51w295" />
<path d="M318.73 734.49l34.49 0l0 14.52l-34.49 0Z" id="p51w296" />
<path d="M409.69 734.49l15.5 0l0 14.52l-15.5 0Z" id="p51w297" />
<path d="M428.4 734.49l32.34 0l0 14.52l-32.34 0Z" id="p51w298" />
<path d="M148.68 734.49l9.89 0l0 14.52l-9.89 0Z" id="p51w299" />
<path d="M161.77 734.49l16.04 0l0 14.52l-16.04 0Z" id="p51w300" />
<path d="M181.02 734.49l26.73 0l0 14.52l-26.73 0Z" id="p51w301" />
<path d="M210.95 734.49l9.89 0l0 14.52l-9.89 0Z" id="p51w302" />
<path d="M224.04 734.49l38.21 0l0 14.52l-38.21 0Z" id="p51w303" />
<path d="M148.68 884.54l22.44 0l0 14.52l-22.44 0Z" id="p51w304" />
<path d="M174.32 884.54l13.63 0l0 14.52l-13.63 0Z" id="p51w305" />
<path d="M191.17 884.54l42.52 0l0 14.52l-42.52 0Z" id="p51w306" />
<path d="M290.02 884.54l53.71 0l0 14.52l-53.71 0Z" id="p51w307" />
<path d="M400.08 884.54l12.29 0l0 14.52l-12.29 0Z" id="p51w308" />
<path d="M415.57 884.54l43.31 0l0 14.52l-43.31 0Z" id="p51w309" />
<path d="M515.22 884.54l12.29 0l0 14.52l-12.29 0Z" id="p51w310" />
<path d="M530.72 884.54l48.1 0l0 14.52l-48.1 0Z" id="p51w311" />
<path d="M635.16 884.54l55.05 0l0 14.52l-55.05 0Z" id="p51w312" />
<path d="M68.27 39.02l42.71 0l0 15.38l-42.71 0Z" id="p51w313" />
<path d="M152.25 39.02l43.21 0l0 15.38l-43.21 0Z" id="p51w314" />
<path d="M251.4 38.6l45.06 0l0 16.09l-45.06 0Z" id="p51w315" />
<path d="M349.96 39.02l32.54 0l0 15.38l-32.54 0Z" id="p51w316" />
<path d="M624.54 983l66.56 0l0 12.23l-66.56 0Z" id="p51w317" />
</svg>
