<?xml version="1.0" encoding="UTF-8"?>
<svg xmlns="http://www.w3.org/2000/svg" xmlns:xlink="http://www.w3.org/1999/xlink" version="1.1" baseProfile="full" width="768" height="1024" viewBox="0,0,768,1024" preserveAspectRatio="xMinYMin meet" >
<style type="text/css">
<![CDATA[
path {fill-opacity: 0.5;fill: #00aeef;visibility: hidden;}
]]>
</style>
<path d="M124.06 104.82l65.8 0l0 23.34l-65.8 0Z" id="p16w1" />
<path d="M194.94 104.82l93.91 0l0 23.34l-93.91 0Z" id="p16w2" />
<path d="M124.06 138.9l29.29 0l0 15.09l-29.29 0Z" id="p16w3" />
<path d="M156.96 138.9l10.42 0l0 15.09l-10.42 0Z" id="p16w4" />
<path d="M171 138.9l26.33 0l0 15.09l-26.33 0Z" id="p16w5" />
<path d="M200.94 138.9l15.06 0l0 15.09l-15.06 0Z" id="p16w6" />
<path d="M219.62 138.9l74.18 0l0 15.09l-74.18 0Z" id="p16w7" />
<path d="M297.41 138.9l43.88 0l0 15.09l-43.88 0Z" id="p16w8" />
<path d="M344.9 138.9l13.91 0l0 15.09l-13.91 0Z" id="p16w9" />
<path d="M362.41 138.9l40.64 0l0 15.09l-40.64 0Z" id="p16w10" />
<path d="M406.66 138.9l10.5 0l0 15.09l-10.5 0Z" id="p16w11" />
<path d="M431.47 138.9l47.55 0l0 15.09l-47.55 0Z" id="p16w12" />
<path d="M124.06 165.97l33.55 0l0 12.29l-33.55 0Z" id="p16w13" />
<path d="M166.84 163.91l29.98 0l0 15.09l-29.98 0Z" id="p16w14" />
<path d="M200.44 163.91l35.75 0l0 15.09l-35.75 0Z" id="p16w15" />
<path d="M239.8 163.91l10.5 0l0 15.09l-10.5 0Z" id="p16w16" />
<path d="M253.91 163.91l40.45 0l0 15.09l-40.45 0Z" id="p16w17" />
<path d="M308.07 163.91l66.83 0l0 15.09l-66.83 0Z" id="p16w18" />
<path d="M378.51 163.91l36 0l0 15.09l-36 0Z" id="p16w19" />
<path d="M418.12 163.91l56.56 0l0 15.09l-56.56 0Z" id="p16w20" />
<path d="M124.06 182.64l26.25 0l0 12.29l-26.25 0Z" id="p16w21" />
<path d="M159.55 180.58l38.43 0l0 15.09l-38.43 0Z" id="p16w22" />
<path d="M201.59 180.58l19.41 0l0 15.09l-19.41 0Z" id="p16w23" />
<path d="M124.06 199.32l33.55 0l0 12.29l-33.55 0Z" id="p16w24" />
<path d="M166.84 197.26l27.97 0l0 15.09l-27.97 0Z" id="p16w25" />
<path d="M198.42 197.26l29.92 0l0 15.09l-29.92 0Z" id="p16w26" />
<path d="M231.95 197.26l15.74 0l0 15.09l-15.74 0Z" id="p16w27" />
<path d="M251.31 197.26l69.49 0l0 15.09l-69.49 0Z" id="p16w28" />
<path d="M324.41 197.26l13.91 0l0 15.09l-13.91 0Z" id="p16w29" />
<path d="M341.92 197.26l22.95 0l0 15.09l-22.95 0Z" id="p16w30" />
<path d="M368.49 197.26l12.41 0l0 15.09l-12.41 0Z" id="p16w31" />
<path d="M384.52 197.26l38.62 0l0 15.09l-38.62 0Z" id="p16w32" />
<path d="M426.75 197.26l19.46 0l0 15.09l-19.46 0Z" id="p16w33" />
<path d="M449.82 197.26l24.79 0l0 15.09l-24.79 0Z" id="p16w34" />
<path d="M135.88 213.93l31.28 0l0 15.09l-31.28 0Z" id="p16w35" />
<path d="M180.88 213.93l10.42 0l0 15.09l-10.42 0Z" id="p16w36" />
<path d="M194.91 213.93l16.23 0l0 15.09l-16.23 0Z" id="p16w37" />
<path d="M124.06 232.66l26.25 0l0 12.29l-26.25 0Z" id="p16w38" />
<path d="M159.55 230.6l28.3 0l0 15.09l-28.3 0Z" id="p16w39" />
<path d="M191.46 230.6l12.58 0l0 15.09l-12.58 0Z" id="p16w40" />
<path d="M207.66 230.6l32.61 0l0 15.09l-32.61 0Z" id="p16w41" />
<path d="M243.87 230.6l14.52 0l0 15.09l-14.52 0Z" id="p16w42" />
<path d="M262.01 230.6l24.73 0l0 15.09l-24.73 0Z" id="p16w43" />
<path d="M290.35 230.6l42.33 0l0 15.09l-42.33 0Z" id="p16w44" />
<path d="M336.29 230.6l38.7 0l0 15.09l-38.7 0Z" id="p16w45" />
<path d="M378.6 230.6l15.15 0l0 15.09l-15.15 0Z" id="p16w46" />
<path d="M397.36 230.6l42.64 0l0 15.09l-42.64 0Z" id="p16w47" />
<path d="M443.62 230.6l10.5 0l0 15.09l-10.5 0Z" id="p16w48" />
<path d="M457.73 230.6l30.65 0l0 15.09l-30.65 0ZM135.88 247.27l52.14 0l0 15.09l-52.14 0Z" id="p16w49" />
<path d="M201.73 247.27l24.41 0l0 15.09l-24.41 0Z" id="p16w50" />
<path d="M229.75 247.27l42.87 0l0 15.09l-42.87 0Z" id="p16w51" />
<path d="M276.23 247.27l10.63 0l0 15.09l-10.63 0Z" id="p16w52" />
<path d="M290.47 247.27l14.59 0l0 15.09l-14.59 0Z" id="p16w53" />
<path d="M308.67 247.27l18.6 0l0 15.09l-18.6 0Z" id="p16w54" />
<path d="M330.88 247.27l32.95 0l0 15.09l-32.95 0Z" id="p16w55" />
<path d="M367.44 247.27l19.46 0l0 15.09l-19.46 0Z" id="p16w56" />
<path d="M390.51 247.27l32.23 0l0 15.09l-32.23 0Z" id="p16w57" />
<path d="M426.36 247.27l24.23 0l0 15.09l-24.23 0Z" id="p16w58" />
<path d="M454.19 247.27l39.71 0l0 15.09l-39.71 0Z" id="p16w59" />
<path d="M135.88 263.94l11.26 0l0 15.09l-11.26 0Z" id="p16w60" />
<path d="M150.75 263.94l39.57 0l0 15.09l-39.57 0Z" id="p16w61" />
<path d="M193.93 263.94l14.52 0l0 15.09l-14.52 0Z" id="p16w62" />
<path d="M212.06 263.94l26.65 0l0 15.09l-26.65 0Z" id="p16w63" />
<path d="M242.33 263.94l15.15 0l0 15.09l-15.15 0Z" id="p16w64" />
<path d="M261.09 263.94l14.59 0l0 15.09l-14.59 0Z" id="p16w65" />
<path d="M279.29 263.94l46.33 0l0 15.09l-46.33 0Z" id="p16w66" />
<path d="M329.24 263.94l19.46 0l0 15.09l-19.46 0Z" id="p16w67" />
<path d="M352.3 263.94l15.06 0l0 15.09l-15.06 0Z" id="p16w68" />
<path d="M370.98 263.94l12.53 0l0 15.09l-12.53 0Z" id="p16w69" />
<path d="M387.12 263.94l43.85 0l0 15.09l-43.85 0Z" id="p16w70" />
<path d="M434.58 263.94l27.82 0l0 15.09l-27.82 0Z" id="p16w71" />
<path d="M466.02 263.94l26.31 0l0 15.09l-26.31 0Z" id="p16w72" />
<path d="M135.88 280.61l14.21 0l0 15.09l-14.21 0Z" id="p16w73" />
<path d="M153.7 280.61l33.02 0l0 15.09l-33.02 0Z" id="p16w74" />
<path d="M190.33 280.61l27.08 0l0 15.09l-27.08 0Z" id="p16w75" />
<path d="M221.02 280.61l26.1 0l0 15.09l-26.1 0Z" id="p16w76" />
<path d="M250.74 280.61l15.15 0l0 15.09l-15.15 0Z" id="p16w77" />
<path d="M269.5 280.61l14.59 0l0 15.09l-14.59 0Z" id="p16w78" />
<path d="M287.7 280.61l46.97 0l0 15.09l-46.97 0Z" id="p16w79" />
<path d="M338.28 280.61l19.46 0l0 15.09l-19.46 0Z" id="p16w80" />
<path d="M361.35 280.61l56.7 0l0 15.09l-56.7 0Z" id="p16w81" />
<path d="M421.67 280.61l10.42 0l0 15.09l-10.42 0Z" id="p16w82" />
<path d="M435.7 280.61l27.5 0l0 15.09l-27.5 0Z" id="p16w83" />
<path d="M124.06 299.35l33.21 0l0 12.29l-33.21 0Z" id="p16w84" />
<path d="M166.34 297.29l28.4 0l0 15.09l-28.4 0Z" id="p16w85" />
<path d="M198.36 297.29l48.63 0l0 15.09l-48.63 0Z" id="p16w86" />
<path d="M250.6 297.29l43.53 0l0 15.09l-43.53 0Z" id="p16w87" />
<path d="M297.74 297.29l12.45 0l0 15.09l-12.45 0Z" id="p16w88" />
<path d="M313.81 297.29l48.26 0l0 15.09l-48.26 0Z" id="p16w89" />
<path d="M365.68 297.29l15.69 0l0 15.09l-15.69 0Z" id="p16w90" />
<path d="M384.98 297.29l45.38 0l0 15.09l-45.38 0Z" id="p16w91" />
<path d="M433.97 297.29l62.73 0l0 15.09l-62.73 0Z" id="p16w92" />
<path d="M124.06 316.03l26.25 0l0 12.29l-26.25 0Z" id="p16w93" />
<path d="M158.64 313.97l28.72 0l0 15.09l-28.72 0Z" id="p16w94" />
<path d="M190.98 313.97l22.45 0l0 15.09l-22.45 0Z" id="p16w95" />
<path d="M223.99 313.97l44.76 0l0 15.09l-44.76 0Z" id="p16w96" />
<path d="M272.37 313.97l24.73 0l0 15.09l-24.73 0Z" id="p16w97" />
<path d="M300.71 313.97l15.89 0l0 15.09l-15.89 0Z" id="p16w98" />
<path d="M320.2 313.97l30.02 0l0 15.09l-30.02 0Z" id="p16w99" />
<path d="M353.84 313.97l28.26 0l0 15.09l-28.26 0Z" id="p16w100" />
<path d="M385.71 313.97l64.63 0l0 15.09l-64.63 0Z" id="p16w101" />
<path d="M453.95 313.97l14.21 0l0 15.09l-14.21 0Z" id="p16w102" />
<path d="M135.88 330.64l12.53 0l0 15.09l-12.53 0Z" id="p16w103" />
<path d="M162.12 330.64l18.46 0l0 15.09l-18.46 0Z" id="p16w104" />
<path d="M184.19 330.64l39.71 0l0 15.09l-39.71 0Z" id="p16w105" />
<path d="M227.51 330.64l11.26 0l0 15.09l-11.26 0Z" id="p16w106" />
<path d="M242.38 330.64l39.97 0l0 15.09l-39.97 0Z" id="p16w107" />
<path d="M285.96 330.64l27.81 0l0 15.09l-27.81 0Z" id="p16w108" />
<path d="M317.39 330.64l34.97 0l0 15.09l-34.97 0Z" id="p16w109" />
<path d="M355.97 330.64l28.26 0l0 15.09l-28.26 0Z" id="p16w110" />
<path d="M387.84 330.64l44.76 0l0 15.09l-44.76 0Z" id="p16w111" />
<path d="M436.22 330.64l10.42 0l0 15.09l-10.42 0Z" id="p16w112" />
<path d="M450.25 330.64l22.36 0l0 15.09l-22.36 0Z" id="p16w113" />
<path d="M135.88 347.3l27.23 0l0 15.09l-27.23 0Z" id="p16w114" />
<path d="M166.72 347.3l15.89 0l0 15.09l-15.89 0Z" id="p16w115" />
<path d="M186.22 347.3l60.58 0l0 15.09l-60.58 0Z" id="p16w116" />
<path d="M250.42 347.3l25.9 0l0 15.09l-25.9 0Z" id="p16w117" />
<path d="M279.92 347.3l36.35 0l0 15.09l-36.35 0Z" id="p16w118" />
<path d="M319.88 347.3l36.4 0l0 15.09l-36.4 0Z" id="p16w119" />
<path d="M359.89 347.3l27.23 0l0 15.09l-27.23 0Z" id="p16w120" />
<path d="M390.73 347.3l18.52 0l0 15.09l-18.52 0Z" id="p16w121" />
<path d="M412.87 347.3l55.6 0l0 15.09l-55.6 0Z" id="p16w122" />
<path d="M135.88 363.97l28.33 0l0 15.09l-28.33 0Z" id="p16w123" />
<path d="M167.82 363.97l12.41 0l0 15.09l-12.41 0Z" id="p16w124" />
<path d="M183.84 363.97l66.23 0l0 15.09l-66.23 0Z" id="p16w125" />
<path d="M124.06 382.72l33.55 0l0 12.29l-33.55 0Z" id="p16w126" />
<path d="M166.84 380.66l55.43 0l0 15.09l-55.43 0Z" id="p16w127" />
<path d="M225.88 380.66l37.19 0l0 15.09l-37.19 0Z" id="p16w128" />
<path d="M266.69 380.66l22.03 0l0 15.09l-22.03 0Z" id="p16w129" />
<path d="M292.33 380.66l25.88 0l0 15.09l-25.88 0Z" id="p16w130" />
<path d="M328.96 380.66l7.84 0l0 15.09l-7.84 0Z" id="p16w131" />
<path d="M340.41 380.66l35.41 0l0 15.09l-35.41 0Z" id="p16w132" />
<path d="M379.43 380.66l10.5 0l0 15.09l-10.5 0Z" id="p16w133" />
<path d="M393.54 380.66l22.95 0l0 15.09l-22.95 0Z" id="p16w134" />
<path d="M420.1 380.66l43.85 0l0 15.09l-43.85 0Z" id="p16w135" />
<path d="M135.88 397.33l49.15 0l0 15.09l-49.15 0Z" id="p16w136" />
<path d="M188.64 397.33l48.71 0l0 15.09l-48.71 0Z" id="p16w137" />
<path d="M240.96 397.33l15.89 0l0 15.09l-15.89 0Z" id="p16w138" />
<path d="M260.46 397.33l45.83 0l0 15.09l-45.83 0Z" id="p16w139" />
<path d="M318.98 397.33l22.81 0l0 15.09l-22.81 0Z" id="p16w140" />
<path d="M345.41 397.33l21.98 0l0 15.09l-21.98 0Z" id="p16w141" />
<path d="M371 397.33l12.58 0l0 15.09l-12.58 0Z" id="p16w142" />
<path d="M387.19 397.33l28.12 0l0 15.09l-28.12 0Z" id="p16w143" />
<path d="M418.92 397.33l23.27 0l0 15.09l-23.27 0Z" id="p16w144" />
<path d="M445.81 397.33l27.45 0l0 15.09l-27.45 0Z" id="p16w145" />
<path d="M124.06 441.44l47.31 0l0 18.84l-47.31 0Z" id="p16w146" />
<path d="M175.02 441.44l24.71 0l0 18.84l-24.71 0Z" id="p16w147" />
<path d="M123.63 472.64l26.21 0l0 14.52l-26.21 0Z" id="p16w148" />
<path d="M153.05 472.64l60.95 0l0 14.52l-60.95 0Z" id="p16w149" />
<path d="M217.21 472.64l23.52 0l0 14.52l-23.52 0Z" id="p16w150" />
<path d="M243.94 472.64l14.18 0l0 14.52l-14.18 0Z" id="p16w151" />
<path d="M261.32 472.64l35 0l0 14.52l-35 0Z" id="p16w152" />
<path d="M299.53 472.64l14.18 0l0 14.52l-14.18 0Z" id="p16w153" />
<path d="M316.92 472.64l31.8 0l0 14.52l-31.8 0Z" id="p16w154" />
<path d="M358.34 472.64l9.89 0l0 14.52l-9.89 0Z" id="p16w155" />
<path d="M371.43 472.64l31.8 0l0 14.52l-31.8 0Z" id="p16w156" />
<path d="M406.43 472.64l52.94 0l0 14.52l-52.94 0Z" id="p16w157" />
<path d="M124.06 489.32l27.8 0l0 14.52l-27.8 0Z" id="p16w158" />
<path d="M155.07 489.32l9.89 0l0 14.52l-9.89 0Z" id="p16w159" />
<path d="M168.16 489.32l31.01 0l0 14.52l-31.01 0Z" id="p16w160" />
<path d="M202.37 489.32l6.41 0l0 14.52l-6.41 0Z" id="p16w161" />
<path d="M230.98 489.32l14.18 0l0 14.52l-14.18 0Z" id="p16w162" />
<path d="M248.36 489.32l47.6 0l0 14.52l-47.6 0Z" id="p16w163" />
<path d="M299.16 489.32l35 0l0 14.52l-35 0Z" id="p16w164" />
<path d="M337.38 489.32l14.18 0l0 14.52l-14.18 0Z" id="p16w165" />
<path d="M354.76 489.32l31.8 0l0 14.52l-31.8 0Z" id="p16w166" />
<path d="M396.18 489.25l61.14 0l0 14.6l-61.14 0Z" id="p16w167" />
<path d="M143.76 514.33l27.53 0l0 14.52l-27.53 0Z" id="p16w168" />
<path d="M174.5 514.33l15.5 0l0 14.52l-15.5 0Z" id="p16w169" />
<path d="M193.2 514.33l43.29 0l0 14.52l-43.29 0Z" id="p16w170" />
<path d="M239.7 514.33l14.18 0l0 14.52l-14.18 0Z" id="p16w171" />
<path d="M257.08 514.33l31.01 0l0 14.52l-31.01 0Z" id="p16w172" />
<path d="M291.3 514.33l36.63 0l0 14.52l-36.63 0Z" id="p16w173" />
<path d="M331.13 514.33l33.05 0l0 14.52l-33.05 0Z" id="p16w174" />
<path d="M367.39 514.33l30.23 0l0 14.52l-30.23 0Z" id="p16w175" />
<path d="M400.82 514.33l33.41 0l0 14.52l-33.41 0Z" id="p16w176" />
<path d="M437.44 514.33l56.92 0l0 14.52l-56.92 0Z" id="p16w177" />
<path d="M505.85 514.33l55.9 0l0 14.52l-55.9 0Z" id="p16w178" />
<path d="M124.06 539.27l41.79 0l0 14.6l-41.79 0Z" id="p16w179" />
<path d="M169.06 539.27l32.93 0l0 14.6l-32.93 0Z" id="p16w180" />
<path d="M207.88 539.34l14.18 0l0 14.52l-14.18 0Z" id="p16w181" />
<path d="M225.26 539.34l40.09 0l0 14.52l-40.09 0Z" id="p16w182" />
<path d="M268.55 539.34l9.89 0l0 14.52l-9.89 0Z" id="p16w183" />
<path d="M281.65 539.34l26.19 0l0 14.52l-26.19 0Z" id="p16w184" />
<path d="M311.04 539.34l48.92 0l0 14.52l-48.92 0Z" id="p16w185" />
<path d="M382.68 539.34l40.36 0l0 14.52l-40.36 0Z" id="p16w186" />
<path d="M124.06 556.01l15.77 0l0 14.52l-15.77 0Z" id="p16w187" />
<path d="M143.04 556.01l13.9 0l0 14.52l-13.9 0Z" id="p16w188" />
<path d="M160.15 556.01l44.1 0l0 14.52l-44.1 0Z" id="p16w189" />
<path d="M207.45 556.01l19.51 0l0 14.52l-19.51 0Z" id="p16w190" />
<path d="M230.17 556.01l54.55 0l0 14.52l-54.55 0Z" id="p16w191" />
<path d="M287.93 555.95l10.03 0l0 14.6l-10.03 0Z" id="p16w192" />
<path d="M301.17 555.95l22.33 0l0 14.6l-22.33 0Z" id="p16w193" />
<path d="M124.06 572.62l41.79 0l0 14.6l-41.79 0Z" id="p16w194" />
<path d="M169.06 572.62l20.66 0l0 14.6l-20.66 0Z" id="p16w195" />
<path d="M195.6 572.68l15.5 0l0 14.52l-15.5 0Z" id="p16w196" />
<path d="M214.31 572.68l28.34 0l0 14.52l-28.34 0Z" id="p16w197" />
<path d="M245.85 572.68l26.74 0l0 14.52l-26.74 0Z" id="p16w198" />
<path d="M275.8 572.68l61.22 0l0 14.52l-61.22 0Z" id="p16w199" />
<path d="M340.23 572.68l13.63 0l0 14.52l-13.63 0Z" id="p16w200" />
<path d="M357.07 572.68l10.96 0l0 14.52l-10.96 0Z" id="p16w201" />
<path d="M381.12 572.68l16.31 0l0 14.52l-16.31 0Z" id="p16w202" />
<path d="M400.64 572.68l40.36 0l0 14.52l-40.36 0Z" id="p16w203" />
<path d="M143.76 597.7l32.87 0l0 14.52l-32.87 0Z" id="p16w204" />
<path d="M179.83 597.7l14.18 0l0 14.52l-14.18 0Z" id="p16w205" />
<path d="M197.21 597.7l41.96 0l0 14.52l-41.96 0Z" id="p16w206" />
<path d="M252.27 597.7l28.96 0l0 14.52l-28.96 0Z" id="p16w207" />
<path d="M284.43 597.7l19.51 0l0 14.52l-19.51 0Z" id="p16w208" />
<path d="M307.15 597.7l39.02 0l0 14.52l-39.02 0Z" id="p16w209" />
<path d="M349.37 597.7l13.9 0l0 14.52l-13.9 0Z" id="p16w210" />
<path d="M366.48 597.7l56.92 0l0 14.52l-56.92 0Z" id="p16w211" />
<path d="M426.6 597.7l20.85 0l0 14.52l-20.85 0Z" id="p16w212" />
<path d="M450.67 597.7l25.67 0l0 14.52l-25.67 0Z" id="p16w213" />
<path d="M479.55 597.7l41.45 0l0 14.52l-41.45 0Z" id="p16w214" />
<path d="M524.2 597.7l26.73 0l0 14.52l-26.73 0Z" id="p16w215" />
<path d="M554.13 597.7l9.89 0l0 14.52l-9.89 0Z" id="p16w216" />
<path d="M567.23 597.7l31.01 0l0 14.52l-31.01 0Z" id="p16w217" />
<path d="M143.76 622.71l40.89 0l0 14.52l-40.89 0Z" id="p16w218" />
<path d="M187.85 622.71l24.33 0l0 14.52l-24.33 0Z" id="p16w219" />
<path d="M215.39 622.71l15.5 0l0 14.52l-15.5 0Z" id="p16w220" />
<path d="M234.09 622.71l72.42 0l0 14.52l-72.42 0Z" id="p16w221" />
<path d="M314 622.68l56.14 0l0 14.52l-56.14 0Z" id="p16w222" />
<path d="M377.62 622.71l13.9 0l0 14.52l-13.9 0Z" id="p16w223" />
<path d="M394.73 622.71l56.92 0l0 14.52l-56.92 0Z" id="p16w224" />
<path d="M143.76 647.72l51.89 0l0 14.52l-51.89 0Z" id="p16w225" />
<path d="M198.85 647.72l9.89 0l0 14.52l-9.89 0Z" id="p16w226" />
<path d="M211.94 647.72l27.47 0l0 14.52l-27.47 0Z" id="p16w227" />
<path d="M273.72 647.72l30.73 0l0 14.52l-30.73 0Z" id="p16w228" />
<path d="M307.65 647.72l13.9 0l0 14.52l-13.9 0Z" id="p16w229" />
<path d="M324.76 647.72l33.95 0l0 14.52l-33.95 0Z" id="p16w230" />
<path d="M361.91 647.72l52.12 0l0 14.52l-52.12 0Z" id="p16w231" />
<path d="M417.24 647.72l14.18 0l0 14.52l-14.18 0Z" id="p16w232" />
<path d="M434.63 647.72l35.02 0l0 14.52l-35.02 0Z" id="p16w233" />
<path d="M472.85 647.72l13.63 0l0 14.52l-13.63 0Z" id="p16w234" />
<path d="M489.7 647.72l42.49 0l0 14.52l-42.49 0Z" id="p16w235" />
<path d="M535.39 647.72l33.05 0l0 14.52l-33.05 0Z" id="p16w236" />
<path d="M571.65 647.72l30.23 0l0 14.52l-30.23 0Z" id="p16w237" />
<path d="M143.76 664.39l33.41 0l0 14.52l-33.41 0Z" id="p16w238" />
<path d="M180.37 664.39l56.92 0l0 14.52l-56.92 0Z" id="p16w239" />
<path d="M248.78 664.39l25.4 0l0 14.52l-25.4 0Z" id="p16w240" />
<path d="M277.38 664.39l31.27 0l0 14.52l-31.27 0Z" id="p16w241" />
<path d="M311.86 664.39l16.83 0l0 14.52l-16.83 0Z" id="p16w242" />
<path d="M331.9 664.39l12.3 0l0 14.52l-12.3 0Z" id="p16w243" />
<path d="M347.41 664.39l20.85 0l0 14.52l-20.85 0Z" id="p16w244" />
<path d="M371.47 664.39l54.28 0l0 14.52l-54.28 0Z" id="p16w245" />
<path d="M124.06 697.73l30.23 0l0 14.52l-30.23 0Z" id="p16w246" />
<path d="M157.5 697.73l19.52 0l0 14.52l-19.52 0Z" id="p16w247" />
<path d="M180.22 697.73l22.19 0l0 14.52l-22.19 0Z" id="p16w248" />
<path d="M205.62 697.73l41.17 0l0 14.52l-41.17 0Z" id="p16w249" />
<path d="M250 697.73l56.92 0l0 14.52l-56.92 0Z" id="p16w250" />
<path d="M310.12 697.73l19.51 0l0 14.52l-19.51 0Z" id="p16w251" />
<path d="M332.84 697.73l36.88 0l0 14.52l-36.88 0Z" id="p16w252" />
<path d="M372.92 697.73l48.48 0l0 14.52l-48.48 0Z" id="p16w253" />
<path d="M142.95 739.42l28.33 0l0 14.61l-28.33 0Z" id="p16w254" />
<path d="M262.31 739.42l9.89 0l0 14.61l-9.89 0Z" id="p16w255" />
<path d="M275.4 739.42l32.54 0l0 14.61l-32.54 0Z" id="p16w256" />
<path d="M124.06 789.42l39.31 0l0 14.52l-39.31 0Z" id="p16w257" />
<path d="M166.57 789.42l23.53 0l0 14.52l-23.53 0Z" id="p16w258" />
<path d="M193.32 789.42l43.29 0l0 14.52l-43.29 0Z" id="p16w259" />
<path d="M249.7 789.42l59.59 0l0 14.52l-59.59 0Z" id="p16w260" />
<path d="M312.51 789.42l40.63 0l0 14.52l-40.63 0Z" id="p16w261" />
<path d="M356.34 789.42l23.53 0l0 14.52l-23.53 0Z" id="p16w262" />
<path d="M383.08 789.42l32.34 0l0 14.52l-32.34 0Z" id="p16w263" />
<path d="M418.63 789.42l56.66 0l0 14.52l-56.66 0Z" id="p16w264" />
<path d="M124.06 814.45l46.71 0l0 14.61l-46.71 0Z" id="p16w265" />
<path d="M173.98 814.45l15.5 0l0 14.61l-15.5 0Z" id="p16w266" />
<path d="M192.68 814.45l52.43 0l0 14.61l-52.43 0Z" id="p16w267" />
<path d="M248.15 814.45l40.28 0l0 14.61l-40.28 0Z" id="p16w268" />
<path d="M291.64 814.45l35.22 0l0 14.61l-35.22 0Z" id="p16w269" />
<path d="M329.89 814.45l25.13 0l0 14.61l-25.13 0Z" id="p16w270" />
<path d="M358.23 814.45l25.12 0l0 14.61l-25.12 0Z" id="p16w271" />
<path d="M386.56 814.45l45.02 0l0 14.61l-45.02 0Z" id="p16w272" />
<path d="M434.79 814.45l19.51 0l0 14.61l-19.51 0Z" id="p16w273" />
<path d="M457.5 814.45l58.1 0l0 14.61l-58.1 0Z" id="p16w274" />
<path d="M124.06 872.79l46.51 0l0 14.52l-46.51 0Z" id="p16w275" />
<path d="M173.78 872.79l15.5 0l0 14.52l-15.5 0Z" id="p16w276" />
<path d="M124.06 889.46l50.62 0l0 14.52l-50.62 0Z" id="p16w277" />
<path d="M230.39 839.45l40.64 0l0 14.52l-40.64 0Z" id="p16w278" />
<path d="M274.24 839.45l32.6 0l0 14.52l-32.6 0Z" id="p16w279" />
<path d="M230.39 856.12l40.64 0l0 14.52l-40.64 0Z" id="p16w280" />
<path d="M274.24 856.12l58.97 0l0 14.52l-58.97 0Z" id="p16w281" />
<path d="M230.39 872.79l40.64 0l0 14.52l-40.64 0Z" id="p16w282" />
<path d="M274.24 872.79l20.31 0l0 14.52l-20.31 0Z" id="p16w283" />
<path d="M230.39 889.46l40.64 0l0 14.52l-40.64 0Z" id="p16w284" />
<path d="M274.24 889.46l21.4 0l0 14.52l-21.4 0Z" id="p16w285" />
<path d="M230.39 906.13l9.89 0l0 14.52l-9.89 0Z" id="p16w286" />
<path d="M243.49 906.13l32.6 0l0 14.52l-32.6 0Z" id="p16w287" />
<path d="M230.39 922.8l9.89 0l0 14.52l-9.89 0Z" id="p16w288" />
<path d="M243.49 922.8l20.31 0l0 14.52l-20.31 0Z" id="p16w289" />
<path d="M376.11 839.43l22.94 0l0 14.52l-22.94 0Z" id="p16w290" />
<path d="M376.11 856.1l17.63 0l0 14.52l-17.63 0Z" id="p16w291" />
<path d="M396.95 856.1l28.85 0l0 14.52l-28.85 0Z" id="p16w292" />
<path d="M434.06 856.1l25.13 0l0 14.52l-25.13 0Z" id="p16w293" />
<path d="M462.4 856.1l38.44 0l0 14.52l-38.44 0Z" id="p16w294" />
<path d="M376.11 872.78l25.13 0l0 14.52l-25.13 0Z" id="p16w295" />
<path d="M404.45 872.78l26.72 0l0 14.52l-26.72 0Z" id="p16w296" />
<path d="M439.42 872.78l17.63 0l0 14.52l-17.63 0Z" id="p16w297" />
<path d="M460.26 872.78l41.66 0l0 14.52l-41.66 0Z" id="p16w298" />
<path d="M376.11 889.45l25.13 0l0 14.52l-25.13 0Z" id="p16w299" />
<path d="M404.45 889.45l37.17 0l0 14.52l-37.17 0Z" id="p16w300" />
<path d="M449.87 889.45l17.63 0l0 14.52l-17.63 0Z" id="p16w301" />
<path d="M470.71 889.45l50.49 0l0 14.52l-50.49 0Z" id="p16w302" />
<path d="M376.11 906.12l23.24 0l0 14.52l-23.24 0Z" id="p16w303" />
<path d="M402.56 906.12l55.81 0l0 14.52l-55.81 0Z" id="p16w304" />
<path d="M376.11 922.79l40.06 0l0 14.52l-40.06 0Z" id="p16w305" />
<path d="M561.22 839.42l42.22 0l0 14.52l-42.22 0Z" id="p16w306" />
<path d="M606.65 839.42l19.51 0l0 14.52l-19.51 0Z" id="p16w307" />
<path d="M629.37 839.42l55.59 0l0 14.52l-55.59 0Z" id="p16w308" />
<path d="M561.22 856.09l24.31 0l0 14.52l-24.31 0Z" id="p16w309" />
<path d="M598.63 856.09l9.89 0l0 14.52l-9.89 0Z" id="p16w310" />
<path d="M611.72 856.09l30.94 0l0 14.52l-30.94 0Z" id="p16w311" />
<path d="M561.22 872.76l25.38 0l0 14.52l-25.38 0Z" id="p16w312" />
<path d="M589.81 872.76l9.89 0l0 14.52l-9.89 0Z" id="p16w313" />
<path d="M602.9 872.76l38.77 0l0 14.52l-38.77 0Z" id="p16w314" />
<path d="M561.22 889.43l49.46 0l0 14.52l-49.46 0Z" id="p16w315" />
<path d="M613.89 889.43l19.51 0l0 14.52l-19.51 0Z" id="p16w316" />
<path d="M636.6 889.43l37.14 0l0 14.52l-37.14 0Z" id="p16w317" />
<path d="M561.22 906.1l12.29 0l0 14.52l-12.29 0Z" id="p16w318" />
<path d="M576.72 906.1l27.26 0l0 14.52l-27.26 0Z" id="p16w319" />
<path d="M561.22 922.77l29.39 0l0 14.52l-29.39 0Z" id="p16w320" />
<path d="M593.82 922.77l25.4 0l0 14.52l-25.4 0Z" id="p16w321" />
<path d="M622.43 922.77l19.51 0l0 14.52l-19.51 0Z" id="p16w322" />
<path d="M645.14 922.77l42.78 0l0 14.52l-42.78 0Z" id="p16w323" />
<path d="M54.35 113.66l19.89 0l0 12.3l-19.89 0Z" id="p16w324" />
<path d="M486.09 701.14l28.07 0l0 14.52l-28.07 0Z" id="p16w325" />
<path d="M531.89 701.14l33.14 0l0 14.52l-33.14 0Z" id="p16w326" />
<path d="M582.76 701.14l31.53 0l0 14.52l-31.53 0Z" id="p16w327" />
<path d="M632.01 701.14l43.23 0l0 14.52l-43.23 0Z" id="p16w328" />
<path d="M470.83 726.15l12.29 0l0 14.52l-12.29 0Z" id="p16w329" />
<path d="M486.33 726.15l44.89 0l0 14.52l-44.89 0Z" id="p16w330" />
<path d="M548.94 726.15l25.38 0l0 14.52l-25.38 0Z" id="p16w331" />
<path d="M592.05 726.15l52.93 0l0 14.52l-52.93 0Z" id="p16w332" />
<path d="M662.7 726.15l27.8 0l0 14.52l-27.8 0Z" id="p16w333" />
<path d="M462.49 751.16l29.39 0l0 14.52l-29.39 0Z" id="p16w334" />
<path d="M509.61 751.16l22.45 0l0 14.52l-22.45 0Z" id="p16w335" />
<path d="M549.79 751.16l48.1 0l0 14.52l-48.1 0Z" id="p16w336" />
<path d="M615.61 751.16l27.53 0l0 14.52l-27.53 0Z" id="p16w337" />
<path d="M660.86 751.16l37.97 0l0 14.52l-37.97 0Z" id="p16w338" />
<path d="M124.06 39.02l46.09 0l0 15.38l-46.09 0Z" id="p16w339" />
<path d="M208.73 38.6l45.75 0l0 16.09l-45.75 0Z" id="p16w340" />
<path d="M307.2 39.02l46.59 0l0 15.38l-46.59 0Z" id="p16w341" />
<path d="M406.45 39.02l32.54 0l0 15.38l-32.54 0Z" id="p16w342" />
<path d="M76.9 983l41.43 0l0 12.23l-41.43 0Z" id="p16w343" />
</svg>
