<?xml version="1.0" encoding="UTF-8"?>
<svg xmlns="http://www.w3.org/2000/svg" xmlns:xlink="http://www.w3.org/1999/xlink" version="1.1" baseProfile="full" width="768" height="1024" viewBox="0,0,768,1024" preserveAspectRatio="xMinYMin meet" >
<style type="text/css">
<![CDATA[
path {fill-opacity: 0.5;fill: #00aeef;visibility: hidden;}
]]>
</style>
<path d="M76.9 983.66l110.44 0l0 12.23l-110.44 0Z" id="p248w1" />
<path d="M124.06 38.6l81.82 0l0 16.09l-81.82 0Z" id="p248w2" />
<path d="M133.91 112.51l12.38 0l0 12.23l-12.38 0Z" id="p248w3" />
<path d="M148.99 112.51l29.04 0l0 12.23l-29.04 0Z" id="p248w4" />
<path d="M189.75 111.41l33.91 0l0 13.77l-33.91 0Z" id="p248w5" />
<path d="M229.52 112.51l28.8 0l0 12.23l-28.8 0Z" id="p248w6" />
<path d="M261.02 112.51l17.78 0l0 12.23l-17.78 0Z" id="p248w7" />
<path d="M133.91 127.79l24.54 0l0 12.23l-24.54 0Z" id="p248w8" />
<path d="M161.15 127.55l15.54 0l0 12.56l-15.54 0Z" id="p248w9" />
<path d="M124.06 143.02l24.36 0l0 12.29l-24.36 0Z" id="p248w10" />
<path d="M151.13 143.08l25.22 0l0 12.23l-25.22 0Z" id="p248w11" />
<path d="M179.05 143.08l15.76 0l0 12.23l-15.76 0Z" id="p248w12" />
<path d="M200.67 141.97l18.84 0l0 13.77l-18.84 0Z" id="p248w13" />
<path d="M225.36 143.08l16.9 0l0 12.23l-16.9 0Z" id="p248w14" />
<path d="M244.96 143.08l36.8 0l0 12.23l-36.8 0Z" id="p248w15" />
<path d="M133.91 158.36l24.75 0l0 12.23l-24.75 0Z" id="p248w16" />
<path d="M161.36 158.36l36.46 0l0 12.23l-36.46 0Z" id="p248w17" />
<path d="M200.52 158.36l41.14 0l0 12.23l-41.14 0Z" id="p248w18" />
<path d="M244.36 158.36l20.49 0l0 12.23l-20.49 0Z" id="p248w19" />
<path d="M267.55 158.11l15.34 0l0 12.56l-15.34 0Z" id="p248w20" />
<path d="M124.06 173.59l24.29 0l0 12.29l-24.29 0Z" id="p248w21" />
<path d="M152.51 173.59l15.73 0l0 12.29l-15.73 0Z" id="p248w22" />
<path d="M174.1 172.54l32.89 0l0 13.77l-32.89 0Z" id="p248w23" />
<path d="M212.85 173.64l48.47 0l0 12.23l-48.47 0Z" id="p248w24" />
<path d="M264.02 173.64l35.91 0l0 12.23l-35.91 0Z" id="p248w25" />
<path d="M133.91 188.68l15.54 0l0 12.56l-15.54 0Z" id="p248w26" />
<path d="M124.06 204.15l32.23 0l0 12.29l-32.23 0Z" id="p248w27" />
<path d="M162.15 203.11l32.11 0l0 13.77l-32.11 0Z" id="p248w28" />
<path d="M200.12 204.21l31.29 0l0 12.23l-31.29 0Z" id="p248w29" />
<path d="M234.11 203.96l15.54 0l0 12.56l-15.54 0Z" id="p248w30" />
<path d="M133.91 219.49l8.1 0l0 12.23l-8.1 0Z" id="p248w31" />
<path d="M144.71 219.49l50.84 0l0 12.23l-50.84 0Z" id="p248w32" />
<path d="M209.96 219.47l14.64 0l0 12.23l-14.64 0Z" id="p248w33" />
<path d="M224.6 219.47l22.06 0l0 12.23l-22.06 0Z" id="p248w34" />
<path d="M252.52 218.39l36.92 0l0 13.77l-36.92 0Z" id="p248w35" />
<path d="M133.91 234.78l13.74 0l0 12.23l-13.74 0Z" id="p248w36" />
<path d="M150.35 234.78l35.57 0l0 12.23l-35.57 0Z" id="p248w37" />
<path d="M214.24 234.75l15.08 0l0 12.23l-15.08 0Z" id="p248w38" />
<path d="M229.32 234.75l23.21 0l0 12.23l-23.21 0Z" id="p248w39" />
<path d="M255.23 234.53l14.63 0l0 12.56l-14.63 0Z" id="p248w40" />
<path d="M124.06 250.06l11.94 0l0 12.23l-11.94 0Z" id="p248w41" />
<path d="M138.7 250l33.1 0l0 12.29l-33.1 0Z" id="p248w42" />
<path d="M177.66 248.96l35.02 0l0 13.77l-35.02 0Z" id="p248w43" />
<path d="M218.54 250.06l20.03 0l0 12.23l-20.03 0Z" id="p248w44" />
<path d="M241.27 250.06l24.83 0l0 12.23l-24.83 0Z" id="p248w45" />
<path d="M268.8 249.81l15.54 0l0 12.56l-15.54 0Z" id="p248w46" />
<path d="M124.06 265.29l17.4 0l0 12.29l-17.4 0Z" id="p248w47" />
<path d="M145.62 265.29l23.02 0l0 12.29l-23.02 0Z" id="p248w48" />
<path d="M174.5 264.24l33.22 0l0 13.77l-33.22 0Z" id="p248w49" />
<path d="M213.58 265.34l22.93 0l0 12.23l-22.93 0Z" id="p248w50" />
<path d="M239.21 265.34l32.56 0l0 12.23l-32.56 0Z" id="p248w51" />
<path d="M274.47 265.34l23.77 0l0 12.23l-23.77 0Z" id="p248w52" />
<path d="M133.91 280.38l15.34 0l0 12.56l-15.34 0Z" id="p248w53" />
<path d="M124.06 295.85l42.3 0l0 12.29l-42.3 0Z" id="p248w54" />
<path d="M172.22 294.81l30.52 0l0 13.77l-30.52 0Z" id="p248w55" />
<path d="M208.6 295.91l36.47 0l0 12.23l-36.47 0Z" id="p248w56" />
<path d="M247.77 295.66l18.92 0l0 12.56l-18.92 0Z" id="p248w57" />
<path d="M124.06 311.19l17.56 0l0 12.23l-17.56 0Z" id="p248w58" />
<path d="M144.32 311.14l16.64 0l0 12.29l-16.64 0Z" id="p248w59" />
<path d="M166.82 310.09l21.61 0l0 13.77l-21.61 0Z" id="p248w60" />
<path d="M194.29 311.19l14.41 0l0 12.23l-14.41 0Z" id="p248w61" />
<path d="M211.39 311.19l29.27 0l0 12.23l-29.27 0Z" id="p248w62" />
<path d="M243.36 311.17l20.05 0l0 12.23l-20.05 0Z" id="p248w63" />
<path d="M266.11 311.17l28.84 0l0 12.23l-28.84 0Z" id="p248w64" />
<path d="M133.91 326.45l11.7 0l0 12.23l-11.7 0Z" id="p248w65" />
<path d="M148.31 326.45l40.88 0l0 12.23l-40.88 0Z" id="p248w66" />
<path d="M191.9 326.23l18.92 0l0 12.56l-18.92 0Z" id="p248w67" />
<path d="M133.91 341.76l10.35 0l0 12.23l-10.35 0Z" id="p248w68" />
<path d="M146.96 341.76l30.83 0l0 12.23l-30.83 0Z" id="p248w69" />
<path d="M180.49 341.76l11.7 0l0 12.23l-11.7 0Z" id="p248w70" />
<path d="M194.9 341.76l16.66 0l0 12.23l-16.66 0Z" id="p248w71" />
<path d="M217.42 340.66l57.98 0l0 13.77l-57.98 0Z" id="p248w72" />
<path d="M281.25 341.76l18.46 0l0 12.23l-18.46 0Z" id="p248w73" />
<path d="M133.91 357.04l16.21 0l0 12.23l-16.21 0Z" id="p248w74" />
<path d="M152.81 357.04l17.78 0l0 12.23l-17.78 0Z" id="p248w75" />
<path d="M173.3 357.04l30.11 0l0 12.23l-30.11 0Z" id="p248w76" />
<path d="M206.11 357.04l41.18 0l0 12.23l-41.18 0Z" id="p248w77" />
<path d="M249.99 356.8l18.17 0l0 12.56l-18.17 0Z" id="p248w78" />
<path d="M124.06 372.33l8.33 0l0 12.23l-8.33 0Z" id="p248w79" />
<path d="M135.09 372.27l16.64 0l0 12.29l-16.64 0Z" id="p248w80" />
<path d="M157.58 371.23l18.35 0l0 13.77l-18.35 0Z" id="p248w81" />
<path d="M181.79 372.33l14.41 0l0 12.23l-14.41 0Z" id="p248w82" />
<path d="M198.9 372.33l39.39 0l0 12.23l-39.39 0Z" id="p248w83" />
<path d="M240.99 372.08l15.54 0l0 12.56l-15.54 0Z" id="p248w84" />
<path d="M124.06 425.82l8.33 0l0 12.23l-8.33 0Z" id="p248w85" />
<path d="M135.09 425.76l19.92 0l0 12.29l-19.92 0Z" id="p248w86" />
<path d="M160.86 424.72l26.14 0l0 13.77l-26.14 0Z" id="p248w87" />
<path d="M192.86 425.82l16.43 0l0 12.23l-16.43 0Z" id="p248w88" />
<path d="M211.99 425.82l21.61 0l0 12.23l-21.61 0Z" id="p248w89" />
<path d="M236.3 425.57l18.01 0l0 12.56l-18.01 0Z" id="p248w90" />
<path d="M124.06 441.1l8.33 0l0 12.23l-8.33 0Z" id="p248w91" />
<path d="M135.09 441.05l46.06 0l0 12.29l-46.06 0Z" id="p248w92" />
<path d="M187.01 440l41.39 0l0 13.77l-41.39 0Z" id="p248w93" />
<path d="M234.26 441.1l14.85 0l0 12.23l-14.85 0Z" id="p248w94" />
<path d="M133.91 456.39l61.01 0l0 12.23l-61.01 0Z" id="p248w95" />
<path d="M197.62 456.14l15.54 0l0 12.56l-15.54 0Z" id="p248w96" />
<path d="M143.94 509.88l29.46 0l0 12.23l-29.46 0Z" id="p248w97" />
<path d="M176.09 509.88l22.03 0l0 12.23l-22.03 0Z" id="p248w98" />
<path d="M200.82 509.88l34.45 0l0 12.23l-34.45 0Z" id="p248w99" />
<path d="M237.97 509.63l18.92 0l0 12.56l-18.92 0Z" id="p248w100" />
<path d="M124.06 525.16l11.94 0l0 12.23l-11.94 0Z" id="p248w101" />
<path d="M138.7 525.11l48.37 0l0 12.29l-48.37 0Z" id="p248w102" />
<path d="M187.07 525.16l21.73 0l0 12.23l-21.73 0Z" id="p248w103" />
<path d="M211.5 525.11l54.93 0l0 12.29l-54.93 0Z" id="p248w104" />
<path d="M137.07 539.34l93.99 0l0 13.77l-93.99 0Z" id="p248w105" />
<path d="M236.91 540.44l14.41 0l0 12.23l-14.41 0Z" id="p248w106" />
<path d="M253.65 540.44l46.05 0l0 12.23l-46.05 0Z" id="p248w107" />
<path d="M133.91 555.73l20.03 0l0 12.23l-20.03 0Z" id="p248w108" />
<path d="M156.27 555.73l50.66 0l0 12.23l-50.66 0Z" id="p248w109" />
<path d="M209.64 555.48l18.01 0l0 12.56l-18.01 0Z" id="p248w110" />
<path d="M124.06 609.16l15.43 0l0 12.29l-15.43 0Z" id="p248w111" />
<path d="M148.35 609.2l27.91 0l0 12.23l-27.91 0Z" id="p248w112" />
<path d="M182.12 608.12l13.84 0l0 13.77l-13.84 0Z" id="p248w113" />
<path d="M201.81 609.22l23.63 0l0 12.23l-23.63 0Z" id="p248w114" />
<path d="M228.14 609.2l25.65 0l0 12.23l-25.65 0Z" id="p248w115" />
<path d="M256.5 608.97l15.54 0l0 12.56l-15.54 0Z" id="p248w116" />
<path d="M124.06 644.28l62.64 0l0 18.84l-62.64 0Z" id="p248w117" />
<path d="M190.75 644.28l70.93 0l0 18.84l-70.93 0Z" id="p248w118" />
<path d="M124.06 670.3l27.24 0l0 12.29l-27.24 0Z" id="p248w119" />
<path d="M157.16 669.25l24.63 0l0 13.77l-24.63 0Z" id="p248w120" />
<path d="M187.65 670.11l18.92 0l0 12.56l-18.92 0Z" id="p248w121" />
<path d="M124.06 685.58l33.69 0l0 12.29l-33.69 0Z" id="p248w122" />
<path d="M163.61 684.54l25.15 0l0 13.77l-25.15 0Z" id="p248w123" />
<path d="M194.62 685.39l18.01 0l0 12.56l-18.01 0Z" id="p248w124" />
<path d="M124.06 700.86l39.41 0l0 12.29l-39.41 0Z" id="p248w125" />
<path d="M169.33 699.82l24.43 0l0 13.77l-24.43 0Z" id="p248w126" />
<path d="M199.62 700.68l18.72 0l0 12.56l-18.72 0Z" id="p248w127" />
<path d="M124.06 716.15l39.17 0l0 12.29l-39.17 0Z" id="p248w128" />
<path d="M169.09 715.1l28.78 0l0 13.77l-28.78 0Z" id="p248w129" />
<path d="M203.72 715.96l18.01 0l0 12.56l-18.01 0Z" id="p248w130" />
<path d="M124.06 731.43l35.37 0l0 12.29l-35.37 0Z" id="p248w131" />
<path d="M165.29 730.39l29 0l0 13.77l-29 0Z" id="p248w132" />
<path d="M200.14 731.24l18.01 0l0 12.56l-18.01 0Z" id="p248w133" />
<path d="M124.06 746.71l24.09 0l0 12.29l-24.09 0Z" id="p248w134" />
<path d="M154.01 745.67l19.06 0l0 13.77l-19.06 0Z" id="p248w135" />
<path d="M178.93 746.53l18.72 0l0 12.56l-18.72 0Z" id="p248w136" />
<path d="M124.06 762l36.02 0l0 12.29l-36.02 0Z" id="p248w137" />
<path d="M165.94 760.95l21.91 0l0 13.77l-21.91 0Z" id="p248w138" />
<path d="M193.71 761.81l18.92 0l0 12.56l-18.92 0Z" id="p248w139" />
<path d="M124.06 777.28l31.65 0l0 12.29l-31.65 0Z" id="p248w140" />
<path d="M161.56 776.24l21.54 0l0 13.77l-21.54 0Z" id="p248w141" />
<path d="M188.96 777.09l18.72 0l0 12.56l-18.72 0Z" id="p248w142" />
<path d="M124.06 792.56l34.08 0l0 12.29l-34.08 0Z" id="p248w143" />
<path d="M164 791.52l26.93 0l0 13.77l-26.93 0Z" id="p248w144" />
<path d="M196.79 792.38l18.72 0l0 12.56l-18.72 0Z" id="p248w145" />
<path d="M124.06 807.85l39.14 0l0 12.29l-39.14 0Z" id="p248w146" />
<path d="M169.06 806.8l31.42 0l0 13.77l-31.42 0Z" id="p248w147" />
<path d="M206.34 807.66l18.92 0l0 12.56l-18.92 0Z" id="p248w148" />
<path d="M124.06 823.13l20.5 0l0 12.29l-20.5 0Z" id="p248w149" />
<path d="M150.42 822.09l13.67 0l0 13.77l-13.67 0Z" id="p248w150" />
<path d="M169.95 822.94l18.92 0l0 12.56l-18.92 0Z" id="p248w151" />
<path d="M124.06 838.41l34.46 0l0 12.29l-34.46 0Z" id="p248w152" />
<path d="M164.38 837.37l28.8 0l0 13.77l-28.8 0Z" id="p248w153" />
<path d="M199.03 838.23l18.92 0l0 12.56l-18.92 0Z" id="p248w154" />
<path d="M124.06 853.7l33.05 0l0 12.29l-33.05 0Z" id="p248w155" />
<path d="M162.96 852.65l26.51 0l0 13.77l-26.51 0Z" id="p248w156" />
<path d="M195.33 853.51l18.92 0l0 12.56l-18.92 0Z" id="p248w157" />
<path d="M124.06 868.98l21.99 0l0 12.29l-21.99 0Z" id="p248w158" />
<path d="M151.91 867.94l21.52 0l0 13.77l-21.52 0Z" id="p248w159" />
<path d="M179.28 868.79l18.92 0l0 12.56l-18.92 0Z" id="p248w160" />
<path d="M124.06 884.27l35.94 0l0 12.29l-35.94 0Z" id="p248w161" />
<path d="M165.85 883.22l24.7 0l0 13.77l-24.7 0Z" id="p248w162" />
<path d="M196.41 884.08l18.01 0l0 12.56l-18.01 0Z" id="p248w163" />
<path d="M124.06 899.55l19.74 0l0 12.29l-19.74 0Z" id="p248w164" />
<path d="M149.66 898.5l18.05 0l0 13.77l-18.05 0Z" id="p248w165" />
<path d="M173.57 899.36l18.92 0l0 12.56l-18.92 0Z" id="p248w166" />
<path d="M124.06 914.83l38.51 0l0 12.29l-38.51 0Z" id="p248w167" />
<path d="M168.43 913.79l18.67 0l0 13.77l-18.67 0Z" id="p248w168" />
<path d="M192.96 914.64l18.01 0l0 12.56l-18.01 0Z" id="p248w169" />
<path d="M325.58 104.96l62.64 0l0 18.84l-62.64 0Z" id="p248w170" />
<path d="M392.27 104.96l62.44 0l0 18.84l-62.44 0Z" id="p248w171" />
<path d="M325.58 127.74l26.99 0l0 12.29l-26.99 0Z" id="p248w172" />
<path d="M358.42 126.69l23.81 0l0 13.77l-23.81 0Z" id="p248w173" />
<path d="M388.09 127.55l18.92 0l0 12.56l-18.92 0Z" id="p248w174" />
<path d="M325.58 143.02l29.88 0l0 12.29l-29.88 0Z" id="p248w175" />
<path d="M361.31 141.97l25.43 0l0 13.77l-25.43 0Z" id="p248w176" />
<path d="M392.6 142.83l18.01 0l0 12.56l-18.01 0Z" id="p248w177" />
<path d="M325.58 158.3l23.81 0l0 12.29l-23.81 0Z" id="p248w178" />
<path d="M355.25 157.26l24.4 0l0 13.77l-24.4 0Z" id="p248w179" />
<path d="M385.5 158.11l18.17 0l0 12.56l-18.17 0Z" id="p248w180" />
<path d="M325.58 173.59l29.01 0l0 12.29l-29.01 0Z" id="p248w181" />
<path d="M360.45 172.54l22.99 0l0 13.77l-22.99 0Z" id="p248w182" />
<path d="M389.29 173.4l18.92 0l0 12.56l-18.92 0Z" id="p248w183" />
<path d="M325.58 188.87l28.28 0l0 12.29l-28.28 0Z" id="p248w184" />
<path d="M359.71 187.83l17.85 0l0 13.77l-17.85 0Z" id="p248w185" />
<path d="M383.42 188.68l18.92 0l0 12.56l-18.92 0Z" id="p248w186" />
<path d="M325.58 204.15l25.79 0l0 12.29l-25.79 0Z" id="p248w187" />
<path d="M357.22 203.11l24.2 0l0 13.77l-24.2 0Z" id="p248w188" />
<path d="M387.28 203.96l18.01 0l0 12.56l-18.01 0Z" id="p248w189" />
<path d="M325.58 219.44l29.53 0l0 12.29l-29.53 0Z" id="p248w190" />
<path d="M360.97 218.39l18.52 0l0 13.77l-18.52 0Z" id="p248w191" />
<path d="M385.35 219.25l18.72 0l0 12.56l-18.72 0Z" id="p248w192" />
<path d="M325.58 234.72l32.53 0l0 12.29l-32.53 0Z" id="p248w193" />
<path d="M363.97 233.68l26.55 0l0 13.77l-26.55 0Z" id="p248w194" />
<path d="M396.38 234.53l18.72 0l0 12.56l-18.72 0Z" id="p248w195" />
<path d="M325.58 250l16.46 0l0 12.29l-16.46 0Z" id="p248w196" />
<path d="M347.9 248.96l13.23 0l0 13.77l-13.23 0Z" id="p248w197" />
<path d="M366.98 249.81l17.81 0l0 12.56l-17.81 0Z" id="p248w198" />
<path d="M325.58 265.29l45.31 0l0 12.29l-45.31 0Z" id="p248w199" />
<path d="M376.74 264.24l34.16 0l0 13.77l-34.16 0Z" id="p248w200" />
<path d="M416.76 265.1l18.92 0l0 12.56l-18.92 0Z" id="p248w201" />
<path d="M325.58 280.57l27.51 0l0 12.29l-27.51 0Z" id="p248w202" />
<path d="M358.95 279.53l23.03 0l0 13.77l-23.03 0Z" id="p248w203" />
<path d="M387.84 280.38l18.01 0l0 12.56l-18.01 0Z" id="p248w204" />
<path d="M325.58 295.85l42.5 0l0 12.29l-42.5 0Z" id="p248w205" />
<path d="M373.94 294.81l29.77 0l0 13.77l-29.77 0Z" id="p248w206" />
<path d="M409.57 295.66l18.01 0l0 12.56l-18.01 0Z" id="p248w207" />
<path d="M325.58 311.14l38.13 0l0 12.29l-38.13 0Z" id="p248w208" />
<path d="M369.56 310.09l31.82 0l0 13.77l-31.82 0Z" id="p248w209" />
<path d="M407.24 310.95l18.72 0l0 12.56l-18.72 0Z" id="p248w210" />
<path d="M325.58 326.42l43.79 0l0 12.29l-43.79 0Z" id="p248w211" />
<path d="M375.23 325.38l31.89 0l0 13.77l-31.89 0Z" id="p248w212" />
<path d="M412.98 326.23l18.92 0l0 12.56l-18.92 0Z" id="p248w213" />
<path d="M325.58 341.7l39.79 0l0 12.29l-39.79 0Z" id="p248w214" />
<path d="M371.23 340.66l26.01 0l0 13.77l-26.01 0Z" id="p248w215" />
<path d="M403.1 341.52l18.01 0l0 12.56l-18.01 0Z" id="p248w216" />
<path d="M325.58 356.99l28.8 0l0 12.29l-28.8 0Z" id="p248w217" />
<path d="M360.24 355.94l14.15 0l0 13.77l-14.15 0Z" id="p248w218" />
<path d="M380.24 356.8l18.92 0l0 12.56l-18.92 0Z" id="p248w219" />
<path d="M325.58 392.1l40.87 0l0 18.84l-40.87 0Z" id="p248w220" />
<path d="M370.5 392.1l17.56 0l0 18.84l-17.56 0Z" id="p248w221" />
<path d="M392.1 392.1l49.58 0l0 18.84l-49.58 0Z" id="p248w222" />
<path d="M325.58 418.12l32.87 0l0 12.29l-32.87 0Z" id="p248w223" />
<path d="M364.3 417.08l19.31 0l0 13.77l-19.31 0Z" id="p248w224" />
<path d="M389.47 417.93l18.01 0l0 12.56l-18.01 0Z" id="p248w225" />
<path d="M325.58 433.4l45.95 0l0 12.29l-45.95 0Z" id="p248w226" />
<path d="M377.39 432.36l31.91 0l0 13.77l-31.91 0Z" id="p248w227" />
<path d="M415.16 433.22l18.92 0l0 12.56l-18.92 0Z" id="p248w228" />
<path d="M325.58 448.69l40.1 0l0 12.29l-40.1 0Z" id="p248w229" />
<path d="M371.54 447.64l34.05 0l0 13.77l-34.05 0Z" id="p248w230" />
<path d="M411.44 448.5l17.81 0l0 12.56l-17.81 0Z" id="p248w231" />
<path d="M325.58 463.97l21.75 0l0 12.29l-21.75 0Z" id="p248w232" />
<path d="M353.19 462.93l20.15 0l0 13.77l-20.15 0Z" id="p248w233" />
<path d="M379.2 463.78l18.92 0l0 12.56l-18.92 0Z" id="p248w234" />
<path d="M325.58 479.25l29.1 0l0 12.29l-29.1 0Z" id="p248w235" />
<path d="M360.54 478.21l18.1 0l0 13.77l-18.1 0Z" id="p248w236" />
<path d="M384.49 479.07l18.01 0l0 12.56l-18.01 0Z" id="p248w237" />
<path d="M325.58 494.54l40.31 0l0 12.29l-40.31 0Z" id="p248w238" />
<path d="M371.75 493.49l29.09 0l0 13.77l-29.09 0Z" id="p248w239" />
<path d="M406.7 494.35l18.01 0l0 12.56l-18.01 0Z" id="p248w240" />
<path d="M325.58 509.82l58.01 0l0 12.29l-58.01 0Z" id="p248w241" />
<path d="M389.45 508.78l37.66 0l0 13.77l-37.66 0Z" id="p248w242" />
<path d="M432.96 509.63l18.92 0l0 12.56l-18.92 0Z" id="p248w243" />
<path d="M325.58 525.11l40.45 0l0 12.29l-40.45 0Z" id="p248w244" />
<path d="M371.89 524.06l36.05 0l0 13.77l-36.05 0Z" id="p248w245" />
<path d="M413.79 524.92l17.26 0l0 12.56l-17.26 0Z" id="p248w246" />
<path d="M325.58 540.39l31.24 0l0 12.29l-31.24 0Z" id="p248w247" />
<path d="M362.68 539.34l24.18 0l0 13.77l-24.18 0Z" id="p248w248" />
<path d="M392.72 540.2l18.01 0l0 12.56l-18.01 0Z" id="p248w249" />
<path d="M325.58 555.67l24.43 0l0 12.29l-24.43 0Z" id="p248w250" />
<path d="M355.87 554.63l23.94 0l0 13.77l-23.94 0Z" id="p248w251" />
<path d="M385.67 555.48l18.72 0l0 12.56l-18.72 0Z" id="p248w252" />
<path d="M325.58 570.96l28.96 0l0 12.29l-28.96 0Z" id="p248w253" />
<path d="M360.39 569.91l21.16 0l0 13.77l-21.16 0Z" id="p248w254" />
<path d="M387.41 570.77l18.01 0l0 12.56l-18.01 0Z" id="p248w255" />
<path d="M325.58 586.24l27.34 0l0 12.29l-27.34 0Z" id="p248w256" />
<path d="M358.78 585.19l19.21 0l0 13.77l-19.21 0Z" id="p248w257" />
<path d="M383.85 586.05l18.72 0l0 12.56l-18.72 0Z" id="p248w258" />
<path d="M325.58 601.52l32.11 0l0 12.29l-32.11 0Z" id="p248w259" />
<path d="M363.55 600.48l26.14 0l0 13.77l-26.14 0Z" id="p248w260" />
<path d="M395.55 601.33l17.26 0l0 12.56l-17.26 0Z" id="p248w261" />
<path d="M325.58 636.63l40.87 0l0 18.84l-40.87 0Z" id="p248w262" />
<path d="M370.5 636.63l17.56 0l0 18.84l-17.56 0Z" id="p248w263" />
<path d="M392.1 636.63l36.75 0l0 18.84l-36.75 0Z" id="p248w264" />
<path d="M325.58 662.66l75.66 0l0 12.29l-75.66 0Z" id="p248w265" />
<path d="M407.1 661.61l51.96 0l0 13.77l-51.96 0Z" id="p248w266" />
<path d="M464.92 662.69l25.32 0l0 12.23l-25.32 0Z" id="p248w267" />
<path d="M492.94 662.69l8.56 0l0 12.23l-8.56 0Z" id="p248w268" />
<path d="M335.43 677.97l64.71 0l0 12.23l-64.71 0Z" id="p248w269" />
<path d="M402.84 677.75l18.01 0l0 12.56l-18.01 0Z" id="p248w270" />
<path d="M325.58 693.22l53.76 0l0 12.29l-53.76 0Z" id="p248w271" />
<path d="M385.2 692.18l34.57 0l0 13.77l-34.57 0Z" id="p248w272" />
<path d="M425.63 693.26l25.32 0l0 12.23l-25.32 0Z" id="p248w273" />
<path d="M453.65 693.26l8.56 0l0 12.23l-8.56 0Z" id="p248w274" />
<path d="M335.43 708.54l69.93 0l0 12.23l-69.93 0Z" id="p248w275" />
<path d="M408.05 708.32l18.01 0l0 12.56l-18.01 0Z" id="p248w276" />
<path d="M325.58 723.79l38.41 0l0 12.29l-38.41 0Z" id="p248w277" />
<path d="M369.85 722.74l24.39 0l0 13.77l-24.39 0Z" id="p248w278" />
<path d="M400.1 723.82l25.32 0l0 12.23l-25.32 0Z" id="p248w279" />
<path d="M428.12 723.82l8.56 0l0 12.23l-8.56 0Z" id="p248w280" />
<path d="M439.38 723.82l64.71 0l0 12.23l-64.71 0Z" id="p248w281" />
<path d="M335.43 738.88l18.92 0l0 12.56l-18.92 0Z" id="p248w282" />
<path d="M325.58 754.36l32.97 0l0 12.29l-32.97 0Z" id="p248w283" />
<path d="M364.4 753.31l20.91 0l0 13.77l-20.91 0Z" id="p248w284" />
<path d="M391.17 754.41l34.11 0l0 12.23l-34.11 0Z" id="p248w285" />
<path d="M427.98 754.17l18.01 0l0 12.56l-18.01 0Z" id="p248w286" />
<path d="M325.58 769.64l43.59 0l0 12.29l-43.59 0Z" id="p248w287" />
<path d="M375.03 768.59l41.92 0l0 13.77l-41.92 0Z" id="p248w288" />
<path d="M422.8 769.7l34.21 0l0 12.23l-34.21 0Z" id="p248w289" />
<path d="M459.72 769.45l18.01 0l0 12.56l-18.01 0Z" id="p248w290" />
<path d="M325.58 784.92l34.08 0l0 12.29l-34.08 0Z" id="p248w291" />
<path d="M365.52 783.88l16.92 0l0 13.77l-16.92 0Z" id="p248w292" />
<path d="M388.29 784.96l25.32 0l0 12.23l-25.32 0Z" id="p248w293" />
<path d="M416.31 784.96l11.94 0l0 12.23l-11.94 0Z" id="p248w294" />
<path d="M430.95 784.96l15.31 0l0 12.23l-15.31 0Z" id="p248w295" />
<path d="M335.43 800.24l63.92 0l0 12.23l-63.92 0Z" id="p248w296" />
<path d="M402.05 800.24l75.73 0l0 12.23l-75.73 0Z" id="p248w297" />
<path d="M335.43 815.3l18.92 0l0 12.56l-18.92 0Z" id="p248w298" />
<path d="M325.58 830.77l47.47 0l0 12.29l-47.47 0Z" id="p248w299" />
<path d="M378.91 829.73l28.25 0l0 13.77l-28.25 0Z" id="p248w300" />
<path d="M413.02 830.81l25.32 0l0 12.23l-25.32 0Z" id="p248w301" />
<path d="M441.04 830.81l8.56 0l0 12.23l-8.56 0Z" id="p248w302" />
<path d="M452.3 830.81l15.31 0l0 12.23l-15.31 0Z" id="p248w303" />
<path d="M470.31 830.81l31.52 0l0 12.23l-31.52 0Z" id="p248w304" />
<path d="M335.43 846.09l103.57 0l0 12.23l-103.57 0Z" id="p248w305" />
<path d="M441.7 845.87l18.01 0l0 12.56l-18.01 0Z" id="p248w306" />
<path d="M325.58 861.34l27.53 0l0 12.29l-27.53 0Z" id="p248w307" />
<path d="M358.97 860.3l26.03 0l0 13.77l-26.03 0Z" id="p248w308" />
<path d="M390.86 861.4l27.24 0l0 12.23l-27.24 0Z" id="p248w309" />
<path d="M420.8 861.15l18.72 0l0 12.56l-18.72 0Z" id="p248w310" />
<path d="M325.58 876.62l24.8 0l0 12.29l-24.8 0Z" id="p248w311" />
<path d="M356.24 875.58l11.56 0l0 13.77l-11.56 0Z" id="p248w312" />
<path d="M373.65 876.68l22.51 0l0 12.23l-22.51 0Z" id="p248w313" />
<path d="M398.86 876.43l18.01 0l0 12.56l-18.01 0Z" id="p248w314" />
<path d="M325.58 891.91l42.92 0l0 12.29l-42.92 0Z" id="p248w315" />
<path d="M374.35 890.86l36.24 0l0 13.77l-36.24 0Z" id="p248w316" />
<path d="M416.45 891.94l14.17 0l0 12.23l-14.17 0Z" id="p248w317" />
<path d="M433.17 891.94l25.32 0l0 12.23l-25.32 0Z" id="p248w318" />
<path d="M461.2 891.94l15.08 0l0 12.23l-15.08 0Z" id="p248w319" />
<path d="M335.43 907.22l29.5 0l0 12.23l-29.5 0Z" id="p248w320" />
<path d="M367.63 907.22l15.31 0l0 12.23l-15.31 0Z" id="p248w321" />
<path d="M385.63 907.22l26.53 0l0 12.23l-26.53 0Z" id="p248w322" />
<path d="M414.87 907l18.01 0l0 12.56l-18.01 0Z" id="p248w323" />
<path d="M325.58 922.47l35.22 0l0 12.29l-35.22 0Z" id="p248w324" />
<path d="M366.66 921.43l27.71 0l0 13.77l-27.71 0Z" id="p248w325" />
<path d="M400.23 922.51l25.32 0l0 12.23l-25.32 0Z" id="p248w326" />
<path d="M428.25 922.51l8.56 0l0 12.23l-8.56 0Z" id="p248w327" />
<path d="M439.51 922.51l34.22 0l0 12.23l-34.22 0Z" id="p248w328" />
<path d="M476.44 922.28l18.01 0l0 12.56l-18.01 0Z" id="p248w329" />
<path d="M527.1 112.45l10.84 0l0 12.29l-10.84 0Z" id="p248w330" />
<path d="M540.64 112.45l23.45 0l0 12.29l-23.45 0Z" id="p248w331" />
<path d="M569.95 111.41l12.92 0l0 13.77l-12.92 0Z" id="p248w332" />
<path d="M588.72 112.51l18.68 0l0 12.23l-18.68 0Z" id="p248w333" />
<path d="M610.11 112.51l24.48 0l0 12.23l-24.48 0Z" id="p248w334" />
<path d="M637.28 112.26l18.92 0l0 12.56l-18.92 0Z" id="p248w335" />
<path d="M527.1 127.74l10.84 0l0 12.29l-10.84 0Z" id="p248w336" />
<path d="M540.64 127.74l39.71 0l0 12.29l-39.71 0Z" id="p248w337" />
<path d="M586.21 126.69l29.44 0l0 13.77l-29.44 0Z" id="p248w338" />
<path d="M621.51 127.77l52.45 0l0 12.23l-52.45 0Z" id="p248w339" />
<path d="M676.66 127.77l8.56 0l0 12.23l-8.56 0Z" id="p248w340" />
<path d="M536.95 143.05l69.93 0l0 12.23l-69.93 0Z" id="p248w341" />
<path d="M609.57 142.83l18.01 0l0 12.56l-18.01 0Z" id="p248w342" />
<path d="M527.1 158.3l41.52 0l0 12.29l-41.52 0Z" id="p248w343" />
<path d="M574.47 157.26l29.32 0l0 13.77l-29.32 0Z" id="p248w344" />
<path d="M609.65 158.34l25.32 0l0 12.23l-25.32 0Z" id="p248w345" />
<path d="M637.67 158.34l8.56 0l0 12.23l-8.56 0Z" id="p248w346" />
<path d="M648.93 158.34l15.31 0l0 12.23l-15.31 0Z" id="p248w347" />
<path d="M666.94 158.34l24.54 0l0 12.23l-24.54 0Z" id="p248w348" />
<path d="M536.95 173.62l16.45 0l0 12.23l-16.45 0Z" id="p248w349" />
<path d="M556.1 173.62l44.02 0l0 12.23l-44.02 0Z" id="p248w350" />
<path d="M602.82 173.4l18.72 0l0 12.56l-18.72 0Z" id="p248w351" />
<path d="M527.1 188.87l25.14 0l0 12.29l-25.14 0Z" id="p248w352" />
<path d="M558.1 187.83l14.91 0l0 13.77l-14.91 0Z" id="p248w353" />
<path d="M578.86 188.93l32.42 0l0 12.23l-32.42 0Z" id="p248w354" />
<path d="M613.99 188.68l18.01 0l0 12.56l-18.01 0Z" id="p248w355" />
<path d="M527.1 204.15l19.26 0l0 12.29l-19.26 0Z" id="p248w356" />
<path d="M552.22 203.11l9.11 0l0 13.77l-9.11 0Z" id="p248w357" />
<path d="M567.19 204.19l25.32 0l0 12.23l-25.32 0Z" id="p248w358" />
<path d="M595.21 204.19l8.56 0l0 12.23l-8.56 0Z" id="p248w359" />
<path d="M606.47 204.19l69.7 0l0 12.23l-69.7 0Z" id="p248w360" />
<path d="M678.88 203.96l18.92 0l0 12.56l-18.92 0Z" id="p248w361" />
<path d="M527.1 219.44l21.97 0l0 12.29l-21.97 0Z" id="p248w362" />
<path d="M554.93 218.39l10.86 0l0 13.77l-10.86 0Z" id="p248w363" />
<path d="M571.65 219.47l25.32 0l0 12.23l-25.32 0Z" id="p248w364" />
<path d="M599.67 219.47l11.7 0l0 12.23l-11.7 0Z" id="p248w365" />
<path d="M614.07 219.47l43.24 0l0 12.23l-43.24 0Z" id="p248w366" />
<path d="M536.95 234.75l53.58 0l0 12.23l-53.58 0Z" id="p248w367" />
<path d="M593.22 234.53l18.01 0l0 12.56l-18.01 0Z" id="p248w368" />
<path d="M527.1 250l43.3 0l0 12.29l-43.3 0Z" id="p248w369" />
<path d="M576.26 248.96l33.21 0l0 13.77l-33.21 0Z" id="p248w370" />
<path d="M615.33 250.06l42.76 0l0 12.23l-42.76 0Z" id="p248w371" />
<path d="M660.79 250.04l34.13 0l0 12.23l-34.13 0Z" id="p248w372" />
<path d="M536.95 265.32l25.32 0l0 12.23l-25.32 0Z" id="p248w373" />
<path d="M564.97 265.32l8.56 0l0 12.23l-8.56 0Z" id="p248w374" />
<path d="M576.23 265.32l15.31 0l0 12.23l-15.31 0Z" id="p248w375" />
<path d="M594.23 265.32l33.27 0l0 12.23l-33.27 0Z" id="p248w376" />
<path d="M630.2 265.32l38.25 0l0 12.23l-38.25 0Z" id="p248w377" />
<path d="M671.15 265.1l18.01 0l0 12.56l-18.01 0Z" id="p248w378" />
<path d="M527.1 280.57l32.01 0l0 12.29l-32.01 0Z" id="p248w379" />
<path d="M564.97 279.53l31.18 0l0 13.77l-31.18 0Z" id="p248w380" />
<path d="M602 280.6l25.32 0l0 12.23l-25.32 0Z" id="p248w381" />
<path d="M630.02 280.6l8.56 0l0 12.23l-8.56 0Z" id="p248w382" />
<path d="M641.28 280.6l34.22 0l0 12.23l-34.22 0Z" id="p248w383" />
<path d="M678.21 280.38l18.01 0l0 12.56l-18.01 0Z" id="p248w384" />
<path d="M527.1 295.85l20.3 0l0 12.29l-20.3 0Z" id="p248w385" />
<path d="M553.25 294.81l13.48 0l0 13.77l-13.48 0Z" id="p248w386" />
<path d="M572.59 295.91l25.44 0l0 12.23l-25.44 0Z" id="p248w387" />
<path d="M600.74 295.66l18.01 0l0 12.56l-18.01 0Z" id="p248w388" />
<path d="M527.1 311.14l53.33 0l0 12.29l-53.33 0Z" id="p248w389" />
<path d="M586.29 310.09l38.4 0l0 13.77l-38.4 0Z" id="p248w390" />
<path d="M630.55 311.19l44.37 0l0 12.23l-44.37 0Z" id="p248w391" />
<path d="M677.62 310.95l18.92 0l0 12.56l-18.92 0Z" id="p248w392" />
<path d="M527.1 326.42l39.11 0l0 12.29l-39.11 0Z" id="p248w393" />
<path d="M572.07 325.38l36.2 0l0 13.77l-36.2 0Z" id="p248w394" />
<path d="M614.13 326.45l25.32 0l0 12.23l-25.32 0Z" id="p248w395" />
<path d="M642.15 326.45l8.56 0l0 12.23l-8.56 0Z" id="p248w396" />
<path d="M653.41 326.45l34.22 0l0 12.23l-34.22 0Z" id="p248w397" />
<path d="M690.34 326.23l18.01 0l0 12.56l-18.01 0Z" id="p248w398" />
<path d="M527.1 341.7l47.77 0l0 12.29l-47.77 0Z" id="p248w399" />
<path d="M580.73 340.66l30.26 0l0 13.77l-30.26 0Z" id="p248w400" />
<path d="M616.84 341.74l14.17 0l0 12.23l-14.17 0Z" id="p248w401" />
<path d="M633.57 341.74l47.05 0l0 12.23l-47.05 0Z" id="p248w402" />
<path d="M683.32 341.74l11.7 0l0 12.23l-11.7 0Z" id="p248w403" />
<path d="M536.95 357.02l28.35 0l0 12.23l-28.35 0Z" id="p248w404" />
<path d="M568 356.8l17.26 0l0 12.56l-17.26 0Z" id="p248w405" />
<path d="M527.1 372.27l48.06 0l0 12.29l-48.06 0Z" id="p248w406" />
<path d="M581.02 371.23l35.59 0l0 13.77l-35.59 0Z" id="p248w407" />
<path d="M622.47 372.3l43.51 0l0 12.23l-43.51 0Z" id="p248w408" />
<path d="M668.68 372.3l30.01 0l0 12.23l-30.01 0Z" id="p248w409" />
<path d="M536.95 387.59l16.45 0l0 12.23l-16.45 0Z" id="p248w410" />
<path d="M556.1 387.59l34.65 0l0 12.23l-34.65 0Z" id="p248w411" />
<path d="M593.44 387.37l18.01 0l0 12.56l-18.01 0Z" id="p248w412" />
<path d="M527.1 402.84l30.79 0l0 12.29l-30.79 0Z" id="p248w413" />
<path d="M563.75 401.79l24.51 0l0 13.77l-24.51 0Z" id="p248w414" />
<path d="M593.75 402.89l37.77 0l0 12.23l-37.77 0Z" id="p248w415" />
<path d="M634.22 402.65l18.01 0l0 12.56l-18.01 0Z" id="p248w416" />
<path d="M527.1 437.95l40.87 0l0 18.84l-40.87 0Z" id="p248w417" />
<path d="M572.01 437.95l105.85 0l0 18.84l-105.85 0Z" id="p248w418" />
<path d="M527.1 464.03l4.72 0l0 12.23l-4.72 0Z" id="p248w419" />
<path d="M531.82 463.97l34.74 0l0 12.29l-34.74 0Z" id="p248w420" />
<path d="M587.42 462.93l25.68 0l0 13.77l-25.68 0Z" id="p248w421" />
<path d="M618.95 464.03l27.45 0l0 12.23l-27.45 0Z" id="p248w422" />
<path d="M649.11 463.78l18.92 0l0 12.56l-18.92 0Z" id="p248w423" />
<path d="M527.1 479.31l4.72 0l0 12.23l-4.72 0Z" id="p248w424" />
<path d="M531.82 479.25l50.4 0l0 12.29l-50.4 0Z" id="p248w425" />
<path d="M603.08 478.21l31.83 0l0 13.77l-31.83 0Z" id="p248w426" />
<path d="M640.77 479.31l58.53 0l0 12.23l-58.53 0Z" id="p248w427" />
<path d="M536.95 494.35l17.26 0l0 12.56l-17.26 0Z" id="p248w428" />
<path d="M527.1 509.88l4.72 0l0 12.23l-4.72 0Z" id="p248w429" />
<path d="M531.82 509.82l30.19 0l0 12.29l-30.19 0Z" id="p248w430" />
<path d="M582.87 508.78l25.45 0l0 13.77l-25.45 0Z" id="p248w431" />
<path d="M614.18 509.88l16.43 0l0 12.23l-16.43 0Z" id="p248w432" />
<path d="M633.31 509.88l28.35 0l0 12.23l-28.35 0Z" id="p248w433" />
<path d="M664.37 509.63l17.26 0l0 12.56l-17.26 0Z" id="p248w434" />
<path d="M527.1 525.16l4.72 0l0 12.23l-4.72 0Z" id="p248w435" />
<path d="M531.82 525.11l45.92 0l0 12.29l-45.92 0Z" id="p248w436" />
<path d="M598.6 524.06l36.86 0l0 13.77l-36.86 0Z" id="p248w437" />
<path d="M641.32 525.16l38.7 0l0 12.23l-38.7 0Z" id="p248w438" />
<path d="M536.95 540.2l18.92 0l0 12.56l-18.92 0Z" id="p248w439" />
<path d="M527.1 555.73l13.05 0l0 12.23l-13.05 0Z" id="p248w440" />
<path d="M542.85 555.67l44.79 0l0 12.29l-44.79 0Z" id="p248w441" />
<path d="M593.5 554.63l40.47 0l0 13.77l-40.47 0Z" id="p248w442" />
<path d="M639.83 555.73l14.41 0l0 12.23l-14.41 0Z" id="p248w443" />
<path d="M656.93 555.73l45.69 0l0 12.23l-45.69 0Z" id="p248w444" />
<path d="M536.95 570.99l57.32 0l0 12.23l-57.32 0Z" id="p248w445" />
<path d="M596.82 570.99l15.31 0l0 12.23l-15.31 0Z" id="p248w446" />
<path d="M614.83 570.99l18.01 0l0 12.23l-18.01 0Z" id="p248w447" />
<path d="M635.54 570.99l21.15 0l0 12.23l-21.15 0Z" id="p248w448" />
<path d="M659.39 570.99l36.25 0l0 12.23l-36.25 0Z" id="p248w449" />
<path d="M536.95 586.27l48.85 0l0 12.23l-48.85 0Z" id="p248w450" />
<path d="M588.5 586.27l18.01 0l0 12.23l-18.01 0Z" id="p248w451" />
<path d="M609.21 586.27l52.12 0l0 12.23l-52.12 0Z" id="p248w452" />
<path d="M664.02 586.27l44.33 0l0 12.23l-44.33 0Z" id="p248w453" />
<path d="M536.95 601.33l18.01 0l0 12.56l-18.01 0Z" id="p248w454" />
<path d="M527.1 616.86l4.72 0l0 12.23l-4.72 0Z" id="p248w455" />
<path d="M531.82 616.81l49.55 0l0 12.29l-49.55 0Z" id="p248w456" />
<path d="M608.38 615.76l32.56 0l0 13.77l-32.56 0Z" id="p248w457" />
<path d="M646.8 616.86l15.53 0l0 12.23l-15.53 0Z" id="p248w458" />
<path d="M665.03 616.86l36.31 0l0 12.23l-36.31 0Z" id="p248w459" />
<path d="M536.95 631.9l18.92 0l0 12.56l-18.92 0Z" id="p248w460" />
<path d="M527.1 647.43l4.72 0l0 12.23l-4.72 0Z" id="p248w461" />
<path d="M531.82 647.37l39.61 0l0 12.29l-39.61 0Z" id="p248w462" />
<path d="M592.3 646.33l23.11 0l0 13.77l-23.11 0Z" id="p248w463" />
<path d="M621.27 647.43l48.38 0l0 12.23l-48.38 0Z" id="p248w464" />
<path d="M672.35 647.18l18.92 0l0 12.56l-18.92 0Z" id="p248w465" />
<path d="M527.1 662.71l8.33 0l0 12.23l-8.33 0Z" id="p248w466" />
<path d="M538.12 662.66l41.54 0l0 12.29l-41.54 0Z" id="p248w467" />
<path d="M585.52 661.61l34.81 0l0 13.77l-34.81 0Z" id="p248w468" />
<path d="M626.19 662.71l35.51 0l0 12.23l-35.51 0Z" id="p248w469" />
<path d="M664.4 662.47l18.01 0l0 12.56l-18.01 0Z" id="p248w470" />
<path d="M527.1 677.99l8.33 0l0 12.23l-8.33 0Z" id="p248w471" />
<path d="M538.12 677.94l29.48 0l0 12.29l-29.48 0Z" id="p248w472" />
<path d="M573.46 676.89l30.49 0l0 13.77l-30.49 0Z" id="p248w473" />
<path d="M609.81 677.99l15.53 0l0 12.23l-15.53 0Z" id="p248w474" />
<path d="M628.03 677.99l29.76 0l0 12.23l-29.76 0Z" id="p248w475" />
<path d="M660.49 677.75l18.92 0l0 12.56l-18.92 0Z" id="p248w476" />
<path d="M527.1 693.28l13.05 0l0 12.23l-13.05 0Z" id="p248w477" />
<path d="M542.85 693.22l48.12 0l0 12.29l-48.12 0Z" id="p248w478" />
<path d="M613.1 693.26l14.18 0l0 12.23l-14.18 0Z" id="p248w479" />
<path d="M633.14 692.18l46.04 0l0 13.77l-46.04 0Z" id="p248w480" />
<path d="M685.03 693.28l14.41 0l0 12.23l-14.41 0Z" id="p248w481" />
<path d="M536.95 708.56l53.74 0l0 12.23l-53.74 0Z" id="p248w482" />
<path d="M593.39 708.56l36.46 0l0 12.23l-36.46 0Z" id="p248w483" />
<path d="M632.55 708.32l18.92 0l0 12.56l-18.92 0Z" id="p248w484" />
<path d="M527.1 723.84l8.33 0l0 12.23l-8.33 0Z" id="p248w485" />
<path d="M538.12 723.79l35.45 0l0 12.29l-35.45 0Z" id="p248w486" />
<path d="M579.43 722.74l32.17 0l0 13.77l-32.17 0Z" id="p248w487" />
<path d="M617.45 723.84l41.19 0l0 12.23l-41.19 0Z" id="p248w488" />
<path d="M661.35 723.6l18.01 0l0 12.56l-18.01 0Z" id="p248w489" />
<path d="M527.1 739.13l8.33 0l0 12.23l-8.33 0Z" id="p248w490" />
<path d="M538.12 739.07l31.27 0l0 12.29l-31.27 0Z" id="p248w491" />
<path d="M575.25 738.03l27.01 0l0 13.77l-27.01 0Z" id="p248w492" />
<path d="M608.12 739.13l48.85 0l0 12.23l-48.85 0Z" id="p248w493" />
<path d="M659.67 738.88l17.26 0l0 12.56l-17.26 0Z" id="p248w494" />
<path d="M527.1 754.41l8.33 0l0 12.23l-8.33 0Z" id="p248w495" />
<path d="M538.12 754.36l42.45 0l0 12.29l-42.45 0Z" id="p248w496" />
<path d="M586.43 753.31l42.19 0l0 13.77l-42.19 0Z" id="p248w497" />
<path d="M634.48 754.39l42.78 0l0 12.23l-42.78 0Z" id="p248w498" />
<path d="M679.96 754.39l11.7 0l0 12.23l-11.7 0Z" id="p248w499" />
<path d="M536.95 769.67l27.15 0l0 12.23l-27.15 0Z" id="p248w500" />
<path d="M566.8 769.67l40.31 0l0 12.23l-40.31 0Z" id="p248w501" />
<path d="M609.82 769.45l18.01 0l0 12.56l-18.01 0Z" id="p248w502" />
<path d="M527.1 784.98l8.33 0l0 12.23l-8.33 0Z" id="p248w503" />
<path d="M538.12 784.92l80.88 0l0 12.29l-80.88 0Z" id="p248w504" />
<path d="M624.87 783.88l61.98 0l0 13.77l-61.98 0Z" id="p248w505" />
<path d="M536.95 800.26l71.36 0l0 12.23l-71.36 0Z" id="p248w506" />
<path d="M611.01 800.02l18.92 0l0 12.56l-18.92 0Z" id="p248w507" />
<path d="M527.1 815.55l8.33 0l0 12.23l-8.33 0Z" id="p248w508" />
<path d="M538.12 815.49l28.7 0l0 12.29l-28.7 0Z" id="p248w509" />
<path d="M569.52 815.49l22.97 0l0 12.29l-22.97 0Z" id="p248w510" />
<path d="M598.36 814.45l41.97 0l0 13.77l-41.97 0Z" id="p248w511" />
<path d="M646.18 815.55l15.53 0l0 12.23l-15.53 0Z" id="p248w512" />
<path d="M664.41 815.55l23.64 0l0 12.23l-23.64 0Z" id="p248w513" />
<path d="M536.95 830.83l34.45 0l0 12.23l-34.45 0Z" id="p248w514" />
<path d="M574.09 830.81l17.56 0l0 12.23l-17.56 0Z" id="p248w515" />
<path d="M594.36 830.81l17.78 0l0 12.23l-17.78 0Z" id="p248w516" />
<path d="M614.84 830.81l57.32 0l0 12.23l-57.32 0Z" id="p248w517" />
<path d="M536.95 846.09l47.27 0l0 12.23l-47.27 0Z" id="p248w518" />
<path d="M586.92 846.09l43.92 0l0 12.23l-43.92 0Z" id="p248w519" />
<path d="M633.54 845.87l18.01 0l0 12.56l-18.01 0Z" id="p248w520" />
<path d="M527.1 861.4l4.72 0l0 12.23l-4.72 0Z" id="p248w521" />
<path d="M531.82 861.34l8.9 0l0 12.29l-8.9 0Z" id="p248w522" />
<path d="M561.59 860.3l9.11 0l0 13.77l-9.11 0Z" id="p248w523" />
<path d="M576.56 861.37l23.18 0l0 12.23l-23.18 0Z" id="p248w524" />
<path d="M602.44 861.37l11.7 0l0 12.23l-11.7 0Z" id="p248w525" />
<path d="M616.84 861.37l28.35 0l0 12.23l-28.35 0Z" id="p248w526" />
<path d="M647.9 861.15l17.26 0l0 12.56l-17.26 0Z" id="p248w527" />
<path d="M527.1 876.68l4.72 0l0 12.23l-4.72 0Z" id="p248w528" />
<path d="M531.82 876.62l24.11 0l0 12.29l-24.11 0Z" id="p248w529" />
<path d="M576.79 875.58l20.77 0l0 13.77l-20.77 0Z" id="p248w530" />
<path d="M603.43 876.68l29.71 0l0 12.23l-29.71 0Z" id="p248w531" />
<path d="M635.84 876.43l18.92 0l0 12.56l-18.92 0Z" id="p248w532" />
<path d="M527.1 891.91l30.24 0l0 12.29l-30.24 0Z" id="p248w533" />
<path d="M563.2 890.86l20.44 0l0 13.77l-20.44 0Z" id="p248w534" />
<path d="M589.5 891.94l27.69 0l0 12.23l-27.69 0Z" id="p248w535" />
<path d="M619.89 891.94l23.19 0l0 12.23l-23.19 0Z" id="p248w536" />
<path d="M645.77 891.94l47.05 0l0 12.23l-47.05 0Z" id="p248w537" />
<path d="M695.53 891.94l8.56 0l0 12.23l-8.56 0Z" id="p248w538" />
<path d="M536.95 907.22l34.22 0l0 12.23l-34.22 0Z" id="p248w539" />
<path d="M573.87 907l18.92 0l0 12.56l-18.92 0Z" id="p248w540" />
</svg>
