<?xml version="1.0" encoding="UTF-8"?>
<svg xmlns="http://www.w3.org/2000/svg" xmlns:xlink="http://www.w3.org/1999/xlink" version="1.1" baseProfile="full" width="768" height="1024" viewBox="0,0,768,1024" preserveAspectRatio="xMinYMin meet" >
<style type="text/css">
<![CDATA[
path {fill-opacity: 0.5;fill: #00aeef;visibility: hidden;}
]]>
</style>
<path d="M572.94 38.6l71 0l0 16.09l-71 0Z" id="p209w1" />
<path d="M619.82 983.66l69.41 0l0 12.23l-69.41 0Z" id="p209w2" />
<path d="M45.29 138.34l27.9 0l0 15.37l-27.9 0Z" id="p209w3" />
<path d="M76.57 138.34l10.55 0l0 15.37l-10.55 0Z" id="p209w4" />
<path d="M90.49 138.34l50.09 0l0 15.37l-50.09 0Z" id="p209w5" />
<path d="M45.29 161.49l49.1 0l0 16.6l-49.1 0Z" id="p209w6" />
<path d="M97.69 161.49l40.32 0l0 16.6l-40.32 0Z" id="p209w7" />
<path d="M141.32 161.49l13.9 0l0 16.6l-13.9 0Z" id="p209w8" />
<path d="M45.29 175.39l31.22 0l0 16.6l-31.22 0Z" id="p209w9" />
<path d="M192.1 161.59l29.61 0l0 16.47l-29.61 0Z" id="p209w10" />
<path d="M225 161.59l61.11 0l0 16.47l-61.11 0Z" id="p209w11" />
<path d="M346.58 162.8l9.45 0l0 13.06l-9.45 0Z" id="p209w12" />
<path d="M358.9 162.8l12.44 0l0 13.06l-12.44 0Z" id="p209w13" />
<path d="M374.21 162.8l15.81 0l0 13.06l-15.81 0Z" id="p209w14" />
<path d="M392.89 162.8l22.71 0l0 13.06l-22.71 0Z" id="p209w15" />
<path d="M418.47 162.8l17.56 0l0 13.06l-17.56 0Z" id="p209w16" />
<path d="M438.9 162.8l24.66 0l0 13.06l-24.66 0Z" id="p209w17" />
<path d="M493.39 162.87l15.08 0l0 12.99l-15.08 0Z" id="p209w18" />
<path d="M511.34 162.87l25.36 0l0 12.99l-25.36 0Z" id="p209w19" />
<path d="M539.57 162.87l24.4 0l0 12.99l-24.4 0Z" id="p209w20" />
<path d="M566.84 162.87l25.12 0l0 12.99l-25.12 0Z" id="p209w21" />
<path d="M594.83 162.87l19.08 0l0 12.99l-19.08 0Z" id="p209w22" />
<path d="M45.29 197.14l8.9 0l0 16.6l-8.9 0Z" id="p209w23" />
<path d="M57.49 197.14l22.85 0l0 16.6l-22.85 0Z" id="p209w24" />
<path d="M192.1 197.25l17.41 0l0 16.47l-17.41 0Z" id="p209w25" />
<path d="M212.8 197.25l20.3 0l0 16.47l-20.3 0Z" id="p209w26" />
<path d="M346.58 197.14l12.66 0l0 16.6l-12.66 0Z" id="p209w27" />
<path d="M362.54 197.14l16.26 0l0 16.6l-16.26 0Z" id="p209w28" />
<path d="M382.1 197.14l26.44 0l0 16.6l-26.44 0Z" id="p209w29" />
<path d="M411.84 197.14l23.42 0l0 16.6l-23.42 0Z" id="p209w30" />
<path d="M438.55 197.14l32.56 0l0 16.6l-32.56 0Z" id="p209w31" />
<path d="M493.38 197.25l15.25 0l0 16.47l-15.25 0Z" id="p209w32" />
<path d="M511.93 197.25l25.32 0l0 16.47l-25.32 0Z" id="p209w33" />
<path d="M540.54 197.25l24.59 0l0 16.47l-24.59 0Z" id="p209w34" />
<path d="M568.43 197.25l23.44 0l0 16.47l-23.44 0Z" id="p209w35" />
<path d="M493.38 213.09l48.06 0l0 16.47l-48.06 0Z" id="p209w36" />
<path d="M45.28 234.74l9.73 0l0 16.6l-9.73 0Z" id="p209w37" />
<path d="M58.31 234.74l32.51 0l0 16.6l-32.51 0Z" id="p209w38" />
<path d="M192.08 234.84l20.01 0l0 16.47l-20.01 0Z" id="p209w39" />
<path d="M215.39 234.84l22.91 0l0 16.47l-22.91 0Z" id="p209w40" />
<path d="M346.57 234.74l12.66 0l0 16.6l-12.66 0Z" id="p209w41" />
<path d="M362.52 234.74l18.91 0l0 16.6l-18.91 0Z" id="p209w42" />
<path d="M384.74 234.74l20.47 0l0 16.6l-20.47 0Z" id="p209w43" />
<path d="M408.51 234.74l53.5 0l0 16.6l-53.5 0Z" id="p209w44" />
<path d="M493.37 234.84l15.25 0l0 16.47l-15.25 0Z" id="p209w45" />
<path d="M511.91 234.84l25.05 0l0 16.47l-25.05 0Z" id="p209w46" />
<path d="M540.27 234.84l32.4 0l0 16.47l-32.4 0Z" id="p209w47" />
<path d="M575.97 234.84l43.85 0l0 16.47l-43.85 0Z" id="p209w48" />
<path d="M45.27 256.5l9.73 0l0 16.6l-9.73 0Z" id="p209w49" />
<path d="M58.29 256.5l26.72 0l0 16.6l-26.72 0Z" id="p209w50" />
<path d="M192.07 256.61l15.27 0l0 16.47l-15.27 0Z" id="p209w51" />
<path d="M210.64 256.61l28.11 0l0 16.47l-28.11 0Z" id="p209w52" />
<path d="M346.55 256.5l43.78 0l0 16.6l-43.78 0Z" id="p209w53" />
<path d="M493.36 256.61l37.1 0l0 16.47l-37.1 0Z" id="p209w54" />
<path d="M45.25 278.27l8.9 0l0 16.6l-8.9 0Z" id="p209w55" />
<path d="M57.45 278.27l24.58 0l0 16.6l-24.58 0Z" id="p209w56" />
<path d="M192.06 278.37l17.41 0l0 16.47l-17.41 0Z" id="p209w57" />
<path d="M212.77 278.37l22.7 0l0 16.47l-22.7 0Z" id="p209w58" />
<path d="M346.54 278.27l26.1 0l0 16.6l-26.1 0Z" id="p209w59" />
<path d="M375.94 278.27l13.45 0l0 16.6l-13.45 0Z" id="p209w60" />
<path d="M392.68 278.27l34.49 0l0 16.6l-34.49 0Z" id="p209w61" />
<path d="M493.34 278.37l20.68 0l0 16.47l-20.68 0Z" id="p209w62" />
<path d="M517.33 278.37l51.69 0l0 16.47l-51.69 0Z" id="p209w63" />
<path d="M572.31 278.37l31.37 0l0 16.47l-31.37 0Z" id="p209w64" />
<path d="M45.24 300.03l8.9 0l0 16.6l-8.9 0Z" id="p209w65" />
<path d="M57.44 300.03l20.8 0l0 16.6l-20.8 0Z" id="p209w66" />
<path d="M192.04 300.14l17.41 0l0 16.47l-17.41 0Z" id="p209w67" />
<path d="M212.75 300.14l37.55 0l0 16.47l-37.55 0Z" id="p209w68" />
<path d="M346.58 301.33l24.69 0l0 13.06l-24.69 0Z" id="p209w69" />
<path d="M374.15 301.33l12.41 0l0 13.06l-12.41 0Z" id="p209w70" />
<path d="M389.43 301.33l8.98 0l0 13.06l-8.98 0Z" id="p209w71" />
<path d="M401.28 301.33l7.04 0l0 13.06l-7.04 0Z" id="p209w72" />
<path d="M408.31 301.33l21.38 0l0 13.06l-21.38 0Z" id="p209w73" />
<path d="M493.39 301.4l30.85 0l0 12.99l-30.85 0Z" id="p209w74" />
<path d="M527.11 301.4l31.33 0l0 12.99l-31.33 0Z" id="p209w75" />
<path d="M45.29 321.78l40.6 0l0 16.6l-40.6 0Z" id="p209w76" />
<path d="M192.1 321.88l15.27 0l0 16.47l-15.27 0Z" id="p209w77" />
<path d="M210.67 321.88l46 0l0 16.47l-46 0Z" id="p209w78" />
<path d="M346.58 323.09l24.69 0l0 13.06l-24.69 0Z" id="p209w79" />
<path d="M374.15 323.09l18.81 0l0 13.06l-18.81 0Z" id="p209w80" />
<path d="M404.69 323.09l8.98 0l0 13.06l-8.98 0Z" id="p209w81" />
<path d="M416.53 323.09l28.75 0l0 13.06l-28.75 0Z" id="p209w82" />
<path d="M493.39 323.16l42.8 0l0 12.99l-42.8 0Z" id="p209w83" />
<path d="M539.06 323.16l31.33 0l0 12.99l-31.33 0Z" id="p209w84" />
<path d="M45.29 344.86l8.98 0l0 13.06l-8.98 0Z" id="p209w85" />
<path d="M57.14 344.86l20.34 0l0 13.06l-20.34 0Z" id="p209w86" />
<path d="M192.1 344.93l16.5 0l0 12.99l-16.5 0Z" id="p209w87" />
<path d="M211.47 344.93l22.82 0l0 12.99l-22.82 0Z" id="p209w88" />
<path d="M346.58 343.54l12.66 0l0 16.6l-12.66 0Z" id="p209w89" />
<path d="M362.54 343.54l16.26 0l0 16.6l-16.26 0Z" id="p209w90" />
<path d="M382.1 343.54l23.36 0l0 16.6l-23.36 0Z" id="p209w91" />
<path d="M408.77 343.54l32.56 0l0 16.6l-32.56 0Z" id="p209w92" />
<path d="M444.63 343.54l9.73 0l0 16.6l-9.73 0Z" id="p209w93" />
<path d="M346.58 357.44l35.39 0l0 16.6l-35.39 0Z" id="p209w94" />
<path d="M493.39 343.65l15.25 0l0 16.47l-15.25 0Z" id="p209w95" />
<path d="M511.93 343.65l25.05 0l0 16.47l-25.05 0Z" id="p209w96" />
<path d="M540.28 343.65l17.03 0l0 16.47l-17.03 0Z" id="p209w97" />
<path d="M560.61 343.65l20.01 0l0 16.47l-20.01 0Z" id="p209w98" />
<path d="M583.92 343.65l22.91 0l0 16.47l-22.91 0Z" id="p209w99" />
<path d="M493.39 357.55l53.71 0l0 16.47l-53.71 0Z" id="p209w100" />
<path d="M45.29 380.51l8.98 0l0 13.06l-8.98 0Z" id="p209w101" />
<path d="M57.14 380.51l28.75 0l0 13.06l-28.75 0Z" id="p209w102" />
<path d="M192.1 380.58l16.5 0l0 12.99l-16.5 0Z" id="p209w103" />
<path d="M211.47 380.58l21.52 0l0 12.99l-21.52 0Z" id="p209w104" />
<path d="M346.58 379.2l12.66 0l0 16.6l-12.66 0Z" id="p209w105" />
<path d="M362.54 379.2l21.41 0l0 16.6l-21.41 0Z" id="p209w106" />
<path d="M387.25 379.2l25.18 0l0 16.6l-25.18 0Z" id="p209w107" />
<path d="M415.74 379.2l54.58 0l0 16.6l-54.58 0Z" id="p209w108" />
<path d="M493.39 379.3l15.25 0l0 16.47l-15.25 0Z" id="p209w109" />
<path d="M511.93 379.3l29.87 0l0 16.47l-29.87 0Z" id="p209w110" />
<path d="M545.1 379.3l16.76 0l0 16.47l-16.76 0Z" id="p209w111" />
<path d="M565.17 379.3l44.85 0l0 16.47l-44.85 0Z" id="p209w112" />
<path d="M45.28 400.96l15.76 0l0 16.6l-15.76 0Z" id="p209w113" />
<path d="M64.34 400.96l38.71 0l0 16.6l-38.71 0Z" id="p209w114" />
<path d="M192.09 401.07l15.27 0l0 16.47l-15.27 0Z" id="p209w115" />
<path d="M210.66 401.07l30.82 0l0 16.47l-30.82 0Z" id="p209w116" />
<path d="M346.57 400.96l12.66 0l0 16.6l-12.66 0Z" id="p209w117" />
<path d="M362.53 400.96l21.41 0l0 16.6l-21.41 0Z" id="p209w118" />
<path d="M387.24 400.96l25.18 0l0 16.6l-25.18 0Z" id="p209w119" />
<path d="M415.72 400.96l48.1 0l0 16.6l-48.1 0Z" id="p209w120" />
<path d="M346.57 414.86l13.45 0l0 16.6l-13.45 0Z" id="p209w121" />
<path d="M363.32 414.86l27.97 0l0 16.6l-27.97 0Z" id="p209w122" />
<path d="M394.59 414.86l35.66 0l0 16.6l-35.66 0Z" id="p209w123" />
<path d="M433.55 414.86l9.73 0l0 16.6l-9.73 0Z" id="p209w124" />
<path d="M446.58 414.86l29.04 0l0 16.6l-29.04 0Z" id="p209w125" />
<path d="M346.57 428.76l20.02 0l0 16.6l-20.02 0Z" id="p209w126" />
<path d="M369.89 428.76l60.65 0l0 16.6l-60.65 0Z" id="p209w127" />
<path d="M493.37 401.08l15.25 0l0 16.47l-15.25 0Z" id="p209w128" />
<path d="M511.92 401.08l29.87 0l0 16.47l-29.87 0Z" id="p209w129" />
<path d="M545.09 401.08l27.73 0l0 16.47l-27.73 0Z" id="p209w130" />
<path d="M576.12 401.08l27.01 0l0 16.47l-27.01 0Z" id="p209w131" />
<path d="M493.37 414.98l66.47 0l0 16.47l-66.47 0Z" id="p209w132" />
<path d="M563.15 414.98l50.21 0l0 16.47l-50.21 0Z" id="p209w133" />
<path d="M493.37 428.88l68.33 0l0 16.47l-68.33 0Z" id="p209w134" />
<path d="M45.29 424.03l8.96 0l0 13.06l-8.96 0Z" id="p209w135" />
<path d="M57.13 424.03l32.03 0l0 13.06l-32.03 0Z" id="p209w136" />
<path d="M192.1 424.11l16.5 0l0 12.99l-16.5 0Z" id="p209w137" />
<path d="M211.47 424.11l31.11 0l0 12.99l-31.11 0Z" id="p209w138" />
<path d="M62.77 113.38l28.62 0l0 15.7l-28.62 0Z" id="p209w139" />
<path d="M94.77 113.38l30.34 0l0 15.7l-30.34 0Z" id="p209w140" />
<path d="M128.49 113.38l70.23 0l0 15.7l-70.23 0Z" id="p209w141" />
<path d="M59.08 492.29l54.73 0l0 24.59l-54.73 0Z" id="p209w142" />
<path d="M239.95 529.96l29.93 0l0 20.58l-29.93 0Z" id="p209w143" />
<path d="M70.65 561.98l65.56 0l0 13.06l-65.56 0Z" id="p209w144" />
<path d="M139.08 562.04l37.08 0l0 12.99l-37.08 0Z" id="p209w145" />
<path d="M179.03 562.04l13.39 0l0 12.99l-13.39 0Z" id="p209w146" />
<path d="M195.3 562.04l27.74 0l0 12.99l-27.74 0Z" id="p209w147" />
<path d="M225.91 562.04l33.97 0l0 12.99l-33.97 0Z" id="p209w148" />
<path d="M70.65 575.93l15.31 0l0 12.99l-15.31 0Z" id="p209w149" />
<path d="M88.83 575.93l54.96 0l0 12.99l-54.96 0Z" id="p209w150" />
<path d="M146.66 575.93l63.62 0l0 12.99l-63.62 0Z" id="p209w151" />
<path d="M212.92 575.93l34.19 0l0 12.99l-34.19 0Z" id="p209w152" />
<path d="M249.98 575.93l11.49 0l0 12.99l-11.49 0Z" id="p209w153" />
<path d="M70.65 589.82l60.03 0l0 12.99l-60.03 0Z" id="p209w154" />
<path d="M133.55 589.82l15.07 0l0 12.99l-15.07 0Z" id="p209w155" />
<path d="M151.49 589.82l63.86 0l0 12.99l-63.86 0Z" id="p209w156" />
<path d="M218.22 589.82l21.06 0l0 12.99l-21.06 0Z" id="p209w157" />
<path d="M242.15 589.82l22.47 0l0 12.99l-22.47 0Z" id="p209w158" />
<path d="M267.49 589.82l23.93 0l0 12.99l-23.93 0Z" id="p209w159" />
<path d="M70.65 603.7l25.11 0l0 12.99l-25.11 0Z" id="p209w160" />
<path d="M98.63 603.7l34.44 0l0 12.99l-34.44 0Z" id="p209w161" />
<path d="M135.94 603.7l19.14 0l0 12.99l-19.14 0Z" id="p209w162" />
<path d="M157.95 603.7l53.05 0l0 12.99l-53.05 0Z" id="p209w163" />
<path d="M70.65 617.59l12.68 0l0 12.99l-12.68 0Z" id="p209w164" />
<path d="M86.21 617.59l26.09 0l0 12.99l-26.09 0Z" id="p209w165" />
<path d="M128.66 617.59l32.77 0l0 12.99l-32.77 0Z" id="p209w166" />
<path d="M70.65 631.48l35.63 0l0 12.99l-35.63 0Z" id="p209w167" />
<path d="M122.65 631.48l12.68 0l0 12.99l-12.68 0Z" id="p209w168" />
<path d="M138.21 631.48l65.18 0l0 12.99l-65.18 0Z" id="p209w169" />
<path d="M206.26 631.48l48.07 0l0 12.99l-48.07 0Z" id="p209w170" />
<path d="M70.65 645.37l77.72 0l0 12.99l-77.72 0Z" id="p209w171" />
<path d="M164.74 645.37l18.66 0l0 12.99l-18.66 0Z" id="p209w172" />
<path d="M186.27 645.37l54.76 0l0 12.99l-54.76 0Z" id="p209w173" />
<path d="M59.08 701.26l46.43 0l0 18.44l-46.43 0Z" id="p209w174" />
<path d="M59.08 728.38l29.13 0l0 14.6l-29.13 0Z" id="p209w175" />
<path d="M105.55 728.38l16.91 0l0 14.6l-16.91 0Z" id="p209w176" />
<path d="M125.76 727.14l35.1 0l0 16.35l-35.1 0Z" id="p209w177" />
<path d="M232.37 728.46l40.57 0l0 14.52l-40.57 0Z" id="p209w178" />
<path d="M276.15 728.46l31.28 0l0 14.52l-31.28 0Z" id="p209w179" />
<path d="M310.64 728.46l27.36 0l0 14.52l-27.36 0Z" id="p209w180" />
<path d="M417.48 728.46l55.36 0l0 14.52l-55.36 0Z" id="p209w181" />
<path d="M476.04 728.46l13.9 0l0 14.52l-13.9 0Z" id="p209w182" />
<path d="M493.15 728.46l26.66 0l0 14.52l-26.66 0Z" id="p209w183" />
<path d="M523.02 728.46l24.33 0l0 14.52l-24.33 0Z" id="p209w184" />
<path d="M550.55 728.46l35.29 0l0 14.52l-35.29 0Z" id="p209w185" />
<path d="M417.48 745.13l13.63 0l0 14.52l-13.63 0Z" id="p209w186" />
<path d="M434.32 745.13l49.72 0l0 14.52l-49.72 0Z" id="p209w187" />
<path d="M59.08 763.24l15.76 0l0 14.6l-15.76 0Z" id="p209w188" />
<path d="M78.04 763.24l40.64 0l0 14.6l-40.64 0Z" id="p209w189" />
<path d="M145.14 763.28l16.84 0l0 14.52l-16.84 0Z" id="p209w190" />
<path d="M59.08 778.67l52.02 0l0 16.35l-52.02 0Z" id="p209w191" />
<path d="M232.37 763.28l17.11 0l0 14.52l-17.11 0Z" id="p209w192" />
<path d="M252.68 763.28l41.96 0l0 14.52l-41.96 0Z" id="p209w193" />
<path d="M436.15 763.19l47.85 0l0 14.61l-47.85 0Z" id="p209w194" />
<path d="M487.03 763.19l9.82 0l0 14.61l-9.82 0Z" id="p209w195" />
<path d="M500.06 763.19l55.87 0l0 14.61l-55.87 0Z" id="p209w196" />
<path d="M558.97 763.19l9.82 0l0 14.61l-9.82 0Z" id="p209w197" />
<path d="M572 763.19l30.95 0l0 14.61l-30.95 0Z" id="p209w198" />
<path d="M417.47 779.86l15.5 0l0 14.61l-15.5 0Z" id="p209w199" />
<path d="M436.18 779.86l48.57 0l0 14.61l-48.57 0Z" id="p209w200" />
<path d="M59.07 798.05l14.31 0l0 14.6l-14.31 0Z" id="p209w201" />
<path d="M76.59 798.05l68 0l0 14.6l-68 0Z" id="p209w202" />
<path d="M147.89 796.81l64.62 0l0 16.35l-64.62 0Z" id="p209w203" />
<path d="M232.37 798.13l17.11 0l0 14.52l-17.11 0Z" id="p209w204" />
<path d="M252.68 798.13l68.97 0l0 14.52l-68.97 0Z" id="p209w205" />
<path d="M59.07 818.8l14.31 0l0 14.6l-14.31 0Z" id="p209w206" />
<path d="M76.59 818.8l25.94 0l0 14.6l-25.94 0Z" id="p209w207" />
<path d="M102.52 818.8l20.99 0l0 14.6l-20.99 0Z" id="p209w208" />
<path d="M126.72 818.8l20.83 0l0 14.6l-20.83 0Z" id="p209w209" />
<path d="M150.75 818.84l33.14 0l0 14.52l-33.14 0Z" id="p209w210" />
<path d="M72.97 835.51l14.16 0l0 14.52l-14.16 0Z" id="p209w211" />
<path d="M90.34 835.51l85.23 0l0 14.52l-85.23 0Z" id="p209w212" />
<path d="M178.78 835.51l24.29 0l0 14.52l-24.29 0ZM59.07 852.18l49.35 0l0 14.52l-49.35 0Z" id="p209w213" />
<path d="M111.72 850.9l79.39 0l0 16.35l-79.39 0Z" id="p209w214" />
<path d="M232.37 818.84l17.11 0l0 14.52l-17.11 0Z" id="p209w215" />
<path d="M252.68 818.84l74.67 0l0 14.52l-74.67 0Z" id="p209w216" />
<path d="M232.37 835.51l23.79 0l0 14.52l-23.79 0Z" id="p209w217" />
<path d="M259.36 835.51l65.18 0l0 14.52l-65.18 0Z" id="p209w218" />
<path d="M429.72 818.75l39.86 0l0 14.61l-39.86 0Z" id="p209w219" />
<path d="M472.79 818.75l30.73 0l0 14.61l-30.73 0Z" id="p209w220" />
<path d="M59.07 870.28l12.42 0l0 14.6l-12.42 0Z" id="p209w221" />
<path d="M74.7 870.28l36.68 0l0 14.6l-36.68 0Z" id="p209w222" />
<path d="M114.59 870.28l13.87 0l0 14.6l-13.87 0Z" id="p209w223" />
<path d="M131.67 870.28l12.67 0l0 14.6l-12.67 0Z" id="p209w224" />
<path d="M147.64 869.04l44.05 0l0 16.35l-44.05 0Z" id="p209w225" />
<path d="M232.37 870.36l17.91 0l0 14.52l-17.91 0Z" id="p209w226" />
<path d="M253.49 870.36l23.09 0l0 14.52l-23.09 0Z" id="p209w227" />
<path d="M279.78 870.36l57.75 0l0 14.52l-57.75 0Z" id="p209w228" />
<path d="M417.47 870.36l37.79 0l0 14.52l-37.79 0Z" id="p209w229" />
<path d="M458.47 870.36l9.89 0l0 14.52l-9.89 0Z" id="p209w230" />
<path d="M471.57 870.36l50.01 0l0 14.52l-50.01 0Z" id="p209w231" />
<path d="M524.78 870.36l10.43 0l0 14.52l-10.43 0Z" id="p209w232" />
<path d="M538.42 870.36l13.9 0l0 14.52l-13.9 0Z" id="p209w233" />
<path d="M555.53 870.36l26.74 0l0 14.52l-26.74 0Z" id="p209w234" />
<path d="M585.48 870.36l19.51 0l0 14.52l-19.51 0Z" id="p209w235" />
<path d="M608.19 870.36l26.73 0l0 14.52l-26.73 0Z" id="p209w236" />
<path d="M417.47 887.03l37.7 0l0 14.52l-37.7 0Z" id="p209w237" />
<path d="M59.07 905.1l18.52 0l0 14.6l-18.52 0Z" id="p209w238" />
<path d="M80.89 903.86l28.56 0l0 16.35l-28.56 0Z" id="p209w239" />
<path d="M232.37 905.18l18.45 0l0 14.52l-18.45 0Z" id="p209w240" />
<path d="M417.47 905.18l31.28 0l0 14.52l-31.28 0Z" id="p209w241" />
<path d="M451.96 905.18l31.8 0l0 14.52l-31.8 0Z" id="p209w242" />
<path d="M486.97 905.18l26.74 0l0 14.52l-26.74 0Z" id="p209w243" />
<path d="M516.92 905.18l37.68 0l0 14.52l-37.68 0Z" id="p209w244" />
<path d="M557.81 905.18l18.44 0l0 14.52l-18.44 0Z" id="p209w245" />
<path d="M579.46 905.18l21.4 0l0 14.52l-21.4 0Z" id="p209w246" />
<path d="M604.06 905.18l17.11 0l0 14.52l-17.11 0Z" id="p209w247" />
<path d="M417.47 921.85l47.85 0l0 14.52l-47.85 0Z" id="p209w248" />
</svg>
