<?xml version="1.0" encoding="UTF-8"?>
<svg xmlns="http://www.w3.org/2000/svg" xmlns:xlink="http://www.w3.org/1999/xlink" version="1.1" baseProfile="full" width="768" height="1024" viewBox="0,0,768,1024" preserveAspectRatio="xMinYMin meet" >
<style type="text/css">
<![CDATA[
path {fill-opacity: 0.5;fill: #00aeef;visibility: hidden;}
]]>
</style>
<path d="M568.38 983.66l122.72 0l0 12.23l-122.72 0Z" id="p257w1" />
<path d="M566.11 38.6l77.83 0l0 16.09l-77.83 0Z" id="p257w2" />
<path d="M59.08 112.51l20.03 0l0 12.23l-20.03 0Z" id="p257w3" />
<path d="M81.81 112.45l55.62 0l0 12.29l-55.62 0Z" id="p257w4" />
<path d="M140.13 112.51l17.56 0l0 12.23l-17.56 0Z" id="p257w5" />
<path d="M160.39 112.51l54.79 0l0 12.23l-54.79 0Z" id="p257w6" />
<path d="M68.92 127.55l18.17 0l0 12.56l-18.17 0Z" id="p257w7" />
<path d="M59.08 143.02l21.83 0l0 12.29l-21.83 0Z" id="p257w8" />
<path d="M83.61 143.08l46.69 0l0 12.23l-46.69 0Z" id="p257w9" />
<path d="M133 142.83l15.34 0l0 12.56l-15.34 0Z" id="p257w10" />
<path d="M59.08 158.36l14.41 0l0 12.23l-14.41 0Z" id="p257w11" />
<path d="M76.18 158.3l29.03 0l0 12.29l-29.03 0Z" id="p257w12" />
<path d="M107.92 158.36l17.56 0l0 12.23l-17.56 0Z" id="p257w13" />
<path d="M128.18 158.36l28.59 0l0 12.23l-28.59 0Z" id="p257w14" />
<path d="M159.47 158.11l18.01 0l0 12.56l-18.01 0Z" id="p257w15" />
<path d="M68.92 173.64l11.93 0l0 12.23l-11.93 0Z" id="p257w16" />
<path d="M83.55 173.64l34.45 0l0 12.23l-34.45 0Z" id="p257w17" />
<path d="M120.7 173.64l53.74 0l0 12.23l-53.74 0Z" id="p257w18" />
<path d="M177.14 173.64l11.7 0l0 12.23l-11.7 0Z" id="p257w19" />
<path d="M191.55 173.64l15.75 0l0 12.23l-15.75 0Z" id="p257w20" />
<path d="M210 173.4l18.92 0l0 12.56l-18.92 0Z" id="p257w21" />
<path d="M59.08 188.93l19.44 0l0 12.23l-19.44 0Z" id="p257w22" />
<path d="M81.22 188.87l39.59 0l0 12.29l-39.59 0Z" id="p257w23" />
<path d="M123.51 188.93l23.85 0l0 12.23l-23.85 0Z" id="p257w24" />
<path d="M150.07 188.93l11.04 0l0 12.23l-11.04 0Z" id="p257w25" />
<path d="M163.8 188.68l18.92 0l0 12.56l-18.92 0Z" id="p257w26" />
<path d="M59.08 204.21l20.03 0l0 12.23l-20.03 0Z" id="p257w27" />
<path d="M81.81 204.15l34.63 0l0 12.29l-34.63 0Z" id="p257w28" />
<path d="M119.14 204.21l11.94 0l0 12.23l-11.94 0Z" id="p257w29" />
<path d="M133.78 204.21l33.04 0l0 12.23l-33.04 0Z" id="p257w30" />
<path d="M169.53 203.96l14.79 0l0 12.56l-14.79 0Z" id="p257w31" />
<path d="M59.08 219.44l35.4 0l0 12.29l-35.4 0Z" id="p257w32" />
<path d="M97.18 219.49l18.02 0l0 12.23l-18.02 0Z" id="p257w33" />
<path d="M117.9 219.49l35.34 0l0 12.23l-35.34 0Z" id="p257w34" />
<path d="M155.93 219.25l18.92 0l0 12.56l-18.92 0Z" id="p257w35" />
<path d="M59.08 234.72l15.79 0l0 12.29l-15.79 0Z" id="p257w36" />
<path d="M77.57 234.78l51.91 0l0 12.23l-51.91 0Z" id="p257w37" />
<path d="M132.18 234.53l14.41 0l0 12.56l-14.41 0Z" id="p257w38" />
<path d="M68.92 250.06l15.71 0l0 12.23l-15.71 0Z" id="p257w39" />
<path d="M87.33 250.06l29.43 0l0 12.23l-29.43 0Z" id="p257w40" />
<path d="M119.47 250.06l20.49 0l0 12.23l-20.49 0Z" id="p257w41" />
<path d="M142.65 250.06l10.35 0l0 12.23l-10.35 0Z" id="p257w42" />
<path d="M155.7 250.06l30.6 0l0 12.23l-30.6 0Z" id="p257w43" />
<path d="M189 249.81l18.92 0l0 12.56l-18.92 0Z" id="p257w44" />
<path d="M68.92 265.34l10.58 0l0 12.23l-10.58 0Z" id="p257w45" />
<path d="M82.21 265.34l11.25 0l0 12.23l-11.25 0Z" id="p257w46" />
<path d="M96.16 265.34l17.96 0l0 12.23l-17.96 0Z" id="p257w47" />
<path d="M116.82 265.34l22.05 0l0 12.23l-22.05 0Z" id="p257w48" />
<path d="M141.57 265.34l20.27 0l0 12.23l-20.27 0Z" id="p257w49" />
<path d="M164.55 265.1l15.54 0l0 12.56l-15.54 0Z" id="p257w50" />
<path d="M59.08 280.57l16.94 0l0 12.29l-16.94 0Z" id="p257w51" />
<path d="M94.89 280.63l32.17 0l0 12.23l-32.17 0Z" id="p257w52" />
<path d="M129.76 280.38l15.54 0l0 12.56l-15.54 0Z" id="p257w53" />
<path d="M59.08 295.85l15.79 0l0 12.29l-15.79 0Z" id="p257w54" />
<path d="M77.57 295.91l20.49 0l0 12.23l-20.49 0Z" id="p257w55" />
<path d="M100.76 295.89l25.24 0l0 12.23l-25.24 0Z" id="p257w56" />
<path d="M128.7 295.66l13.88 0l0 12.56l-13.88 0Z" id="p257w57" />
<path d="M59.08 311.19l14.41 0l0 12.23l-14.41 0Z" id="p257w58" />
<path d="M76.18 311.14l55.13 0l0 12.29l-55.13 0Z" id="p257w59" />
<path d="M131.31 311.19l24.2 0l0 12.23l-24.2 0Z" id="p257w60" />
<path d="M158.21 311.14l64.02 0l0 12.29l-64.02 0Z" id="p257w61" />
<path d="M224.94 311.19l11.94 0l0 12.23l-11.94 0Z" id="p257w62" />
<path d="M68.92 326.48l51.67 0l0 12.23l-51.67 0Z" id="p257w63" />
<path d="M123.3 326.48l41.65 0l0 12.23l-41.65 0Z" id="p257w64" />
<path d="M167.65 326.23l18.01 0l0 12.56l-18.01 0Z" id="p257w65" />
<path d="M59.08 341.76l14.41 0l0 12.23l-14.41 0Z" id="p257w66" />
<path d="M76.18 341.7l55.94 0l0 12.29l-55.94 0Z" id="p257w67" />
<path d="M134.83 341.76l11.94 0l0 12.23l-11.94 0Z" id="p257w68" />
<path d="M149.47 341.76l23.86 0l0 12.23l-23.86 0Z" id="p257w69" />
<path d="M176.03 341.52l14.63 0l0 12.56l-14.63 0Z" id="p257w70" />
<path d="M59.08 395.2l12.76 0l0 12.29l-12.76 0Z" id="p257w71" />
<path d="M78.82 395.23l25.65 0l0 12.23l-25.65 0Z" id="p257w72" />
<path d="M107.17 395.25l21.61 0l0 12.23l-21.61 0Z" id="p257w73" />
<path d="M138.46 395.23l27.91 0l0 12.23l-27.91 0Z" id="p257w74" />
<path d="M169.07 395.01l15.54 0l0 12.56l-15.54 0Z" id="p257w75" />
<path d="M59.08 410.53l14.41 0l0 12.23l-14.41 0Z" id="p257w76" />
<path d="M76.18 410.48l22.3 0l0 12.29l-22.3 0Z" id="p257w77" />
<path d="M102.65 410.48l27.84 0l0 12.29l-27.84 0Z" id="p257w78" />
<path d="M133.19 410.53l11.94 0l0 12.23l-11.94 0Z" id="p257w79" />
<path d="M147.83 410.53l53.92 0l0 12.23l-53.92 0Z" id="p257w80" />
<path d="M68.92 425.82l38.28 0l0 12.23l-38.28 0Z" id="p257w81" />
<path d="M109.91 425.57l15.34 0l0 12.56l-15.34 0Z" id="p257w82" />
<path d="M59.08 441.1l14.41 0l0 12.23l-14.41 0Z" id="p257w83" />
<path d="M76.18 441.05l61.78 0l0 12.29l-61.78 0Z" id="p257w84" />
<path d="M140.66 441.1l11.94 0l0 12.23l-11.94 0Z" id="p257w85" />
<path d="M155.3 441.1l68.37 0l0 12.23l-68.37 0Z" id="p257w86" />
<path d="M68.92 456.14l18.17 0l0 12.56l-18.17 0Z" id="p257w87" />
<path d="M59.08 471.61l29.5 0l0 12.29l-29.5 0Z" id="p257w88" />
<path d="M91.28 471.67l23.19 0l0 12.23l-23.19 0Z" id="p257w89" />
<path d="M117.17 471.42l14.79 0l0 12.56l-14.79 0Z" id="p257w90" />
<path d="M59.08 486.95l14.41 0l0 12.23l-14.41 0Z" id="p257w91" />
<path d="M76.18 486.9l28.17 0l0 12.29l-28.17 0Z" id="p257w92" />
<path d="M107.05 486.95l11.94 0l0 12.23l-11.94 0Z" id="p257w93" />
<path d="M121.69 486.95l19.58 0l0 12.23l-19.58 0Z" id="p257w94" />
<path d="M143.97 486.71l14.63 0l0 12.56l-14.63 0Z" id="p257w95" />
<path d="M59.08 502.24l20.03 0l0 12.23l-20.03 0Z" id="p257w96" />
<path d="M81.81 502.18l26.23 0l0 12.29l-26.23 0Z" id="p257w97" />
<path d="M110.74 502.24l33.32 0l0 12.23l-33.32 0Z" id="p257w98" />
<path d="M146.76 502.24l17.56 0l0 12.23l-17.56 0Z" id="p257w99" />
<path d="M167.03 502.24l53.72 0l0 12.23l-53.72 0Z" id="p257w100" />
<path d="M68.92 517.27l15.54 0l0 12.56l-15.54 0Z" id="p257w101" />
<path d="M59.08 532.75l20.61 0l0 12.29l-20.61 0Z" id="p257w102" />
<path d="M82.39 532.8l21.61 0l0 12.23l-21.61 0Z" id="p257w103" />
<path d="M106.69 532.8l17.56 0l0 12.23l-17.56 0Z" id="p257w104" />
<path d="M126.96 532.8l27.01 0l0 12.23l-27.01 0Z" id="p257w105" />
<path d="M156.67 532.8l9.45 0l0 12.23l-9.45 0Z" id="p257w106" />
<path d="M168.82 532.8l29.26 0l0 12.23l-29.26 0Z" id="p257w107" />
<path d="M200.77 532.56l15.54 0l0 12.56l-15.54 0Z" id="p257w108" />
<path d="M59.08 548.09l14.41 0l0 12.23l-14.41 0Z" id="p257w109" />
<path d="M76.18 548.03l28.84 0l0 12.29l-28.84 0Z" id="p257w110" />
<path d="M107.73 548.09l24.32 0l0 12.23l-24.32 0Z" id="p257w111" />
<path d="M134.75 548.09l8.33 0l0 12.23l-8.33 0Z" id="p257w112" />
<path d="M145.78 548.09l29.93 0l0 12.23l-29.93 0Z" id="p257w113" />
<path d="M178.41 548.09l18.91 0l0 12.23l-18.91 0Z" id="p257w114" />
<path d="M200.02 547.84l18.01 0l0 12.56l-18.01 0Z" id="p257w115" />
<path d="M59.08 563.31l24.23 0l0 12.29l-24.23 0Z" id="p257w116" />
<path d="M89.17 563.37l23.86 0l0 12.23l-23.86 0Z" id="p257w117" />
<path d="M121.59 563.35l27.91 0l0 12.23l-27.91 0Z" id="p257w118" />
<path d="M152.2 563.12l13.88 0l0 12.56l-13.88 0Z" id="p257w119" />
<path d="M59.08 578.6l28.73 0l0 12.29l-28.73 0Z" id="p257w120" />
<path d="M90.51 578.63l18.68 0l0 12.23l-18.68 0Z" id="p257w121" />
<path d="M111.6 578.63l36.7 0l0 12.23l-36.7 0Z" id="p257w122" />
<path d="M151 578.65l17.78 0l0 12.23l-17.78 0Z" id="p257w123" />
<path d="M178.47 578.41l14.79 0l0 12.56l-14.79 0Z" id="p257w124" />
<path d="M59.08 593.94l15.53 0l0 12.23l-15.53 0Z" id="p257w125" />
<path d="M77.31 593.88l20.41 0l0 12.29l-20.41 0Z" id="p257w126" />
<path d="M100.41 593.94l8.33 0l0 12.23l-8.33 0Z" id="p257w127" />
<path d="M111.44 593.94l27.21 0l0 12.23l-27.21 0Z" id="p257w128" />
<path d="M141.35 593.69l18.92 0l0 12.56l-18.92 0Z" id="p257w129" />
<path d="M59.08 609.22l14.41 0l0 12.23l-14.41 0Z" id="p257w130" />
<path d="M76.18 609.16l19.52 0l0 12.29l-19.52 0Z" id="p257w131" />
<path d="M98.4 609.22l11.94 0l0 12.23l-11.94 0Z" id="p257w132" />
<path d="M113.04 609.22l22.72 0l0 12.23l-22.72 0Z" id="p257w133" />
<path d="M138.46 608.97l15.54 0l0 12.56l-15.54 0Z" id="p257w134" />
<path d="M68.92 624.5l19.35 0l0 12.23l-19.35 0Z" id="p257w135" />
<path d="M90.98 624.5l37.59 0l0 12.23l-37.59 0Z" id="p257w136" />
<path d="M131.27 624.5l38.55 0l0 12.23l-38.55 0Z" id="p257w137" />
<path d="M172.52 624.26l18.17 0l0 12.56l-18.17 0Z" id="p257w138" />
<path d="M59.08 639.79l20.03 0l0 12.23l-20.03 0Z" id="p257w139" />
<path d="M81.81 639.73l50.8 0l0 12.29l-50.8 0Z" id="p257w140" />
<path d="M135.31 639.79l11.94 0l0 12.23l-11.94 0Z" id="p257w141" />
<path d="M149.94 639.79l22.72 0l0 12.23l-22.72 0Z" id="p257w142" />
<path d="M175.36 639.54l15.54 0l0 12.56l-15.54 0Z" id="p257w143" />
<path d="M205.36 639.79l17.56 0l0 12.23l-17.56 0Z" id="p257w144" />
<path d="M68.92 655.07l32.63 0l0 12.23l-32.63 0Z" id="p257w145" />
<path d="M104.26 654.83l15.54 0l0 12.56l-15.54 0Z" id="p257w146" />
<path d="M59.08 670.3l42.24 0l0 12.29l-42.24 0Z" id="p257w147" />
<path d="M104.02 670.35l8.33 0l0 12.23l-8.33 0Z" id="p257w148" />
<path d="M115.04 670.35l40.97 0l0 12.23l-40.97 0Z" id="p257w149" />
<path d="M158.71 670.11l14.63 0l0 12.56l-14.63 0Z" id="p257w150" />
<path d="M59.08 685.58l38.37 0l0 12.29l-38.37 0Z" id="p257w151" />
<path d="M100.15 685.64l18.17 0l0 12.23l-18.17 0Z" id="p257w152" />
<path d="M121.02 685.39l18.92 0l0 12.56l-18.92 0Z" id="p257w153" />
<path d="M59.08 700.86l63.56 0l0 12.29l-63.56 0Z" id="p257w154" />
<path d="M125.33 700.92l82.72 0l0 12.23l-82.72 0Z" id="p257w155" />
<path d="M210.76 700.68l17.81 0l0 12.56l-17.81 0Z" id="p257w156" />
<path d="M59.08 716.2l14.41 0l0 12.23l-14.41 0Z" id="p257w157" />
<path d="M76.18 716.15l29.97 0l0 12.29l-29.97 0Z" id="p257w158" />
<path d="M108.85 716.2l11.94 0l0 12.23l-11.94 0Z" id="p257w159" />
<path d="M123.49 716.2l39.61 0l0 12.23l-39.61 0Z" id="p257w160" />
<path d="M165.81 715.96l14.79 0l0 12.56l-14.79 0Z" id="p257w161" />
<path d="M59.08 731.49l20.03 0l0 12.23l-20.03 0Z" id="p257w162" />
<path d="M81.81 731.43l70.06 0l0 12.29l-70.06 0Z" id="p257w163" />
<path d="M154.57 731.49l11.94 0l0 12.23l-11.94 0Z" id="p257w164" />
<path d="M169.21 731.49l36.25 0l0 12.23l-36.25 0Z" id="p257w165" />
<path d="M208.15 731.49l11.7 0l0 12.23l-11.7 0Z" id="p257w166" />
<path d="M68.92 746.77l39.61 0l0 12.23l-39.61 0Z" id="p257w167" />
<path d="M111.24 746.53l14.79 0l0 12.56l-14.79 0Z" id="p257w168" />
<path d="M59.08 762.05l14.41 0l0 12.23l-14.41 0Z" id="p257w169" />
<path d="M76.18 762l108.16 0l0 12.29l-108.16 0Z" id="p257w170" />
<path d="M187.05 762.05l8.33 0l0 12.23l-8.33 0Z" id="p257w171" />
<path d="M68.92 777.34l39.15 0l0 12.23l-39.15 0Z" id="p257w172" />
<path d="M110.77 777.34l61 0l0 12.23l-61 0Z" id="p257w173" />
<path d="M174.48 777.09l14.43 0l0 12.56l-14.43 0Z" id="p257w174" />
<path d="M59.08 792.56l19.56 0l0 12.29l-19.56 0Z" id="p257w175" />
<path d="M81.34 792.62l41.32 0l0 12.23l-41.32 0Z" id="p257w176" />
<path d="M125.36 792.38l18.72 0l0 12.56l-18.72 0Z" id="p257w177" />
<path d="M59.08 807.9l19.44 0l0 12.23l-19.44 0Z" id="p257w178" />
<path d="M81.22 807.85l33.09 0l0 12.29l-33.09 0Z" id="p257w179" />
<path d="M117.01 807.9l39.15 0l0 12.23l-39.15 0Z" id="p257w180" />
<path d="M158.86 807.9l11.04 0l0 12.23l-11.04 0Z" id="p257w181" />
<path d="M172.6 807.66l15.54 0l0 12.56l-15.54 0Z" id="p257w182" />
<path d="M59.08 823.19l40.5 0l0 12.23l-40.5 0Z" id="p257w183" />
<path d="M102.28 823.13l33.09 0l0 12.29l-33.09 0Z" id="p257w184" />
<path d="M138.07 823.19l23.19 0l0 12.23l-23.19 0Z" id="p257w185" />
<path d="M163.96 823.19l34.89 0l0 12.23l-34.89 0Z" id="p257w186" />
<path d="M201.55 823.19l11.7 0l0 12.23l-11.7 0Z" id="p257w187" />
<path d="M215.96 823.19l15.21 0l0 12.23l-15.21 0Z" id="p257w188" />
<path d="M68.92 838.47l12.16 0l0 12.23l-12.16 0Z" id="p257w189" />
<path d="M83.79 838.23l18.92 0l0 12.56l-18.92 0Z" id="p257w190" />
<path d="M59.08 853.7l37.7 0l0 12.29l-37.7 0Z" id="p257w191" />
<path d="M99.48 853.75l31.75 0l0 12.23l-31.75 0Z" id="p257w192" />
<path d="M133.93 853.73l27.91 0l0 12.23l-27.91 0Z" id="p257w193" />
<path d="M164.54 853.51l14.63 0l0 12.56l-14.63 0Z" id="p257w194" />
<path d="M59.08 868.98l35.05 0l0 12.29l-35.05 0Z" id="p257w195" />
<path d="M99.98 869.04l42.18 0l0 12.23l-42.18 0Z" id="p257w196" />
<path d="M150.72 868.79l19.58 0l0 12.56l-19.58 0Z" id="p257w197" />
<path d="M59.08 884.27l24.31 0l0 12.29l-24.31 0Z" id="p257w198" />
<path d="M91.97 884.32l80.02 0l0 12.23l-80.02 0Z" id="p257w199" />
<path d="M174.69 884.08l18.92 0l0 12.56l-18.92 0Z" id="p257w200" />
<path d="M68.92 899.6l90.82 0l0 12.23l-90.82 0Z" id="p257w201" />
<path d="M162.45 899.36l18.92 0l0 12.56l-18.92 0Z" id="p257w202" />
<path d="M59.08 914.83l24.31 0l0 12.29l-24.31 0Z" id="p257w203" />
<path d="M91.97 914.89l59.88 0l0 12.23l-59.88 0Z" id="p257w204" />
<path d="M154.54 914.64l18.92 0l0 12.56l-18.92 0Z" id="p257w205" />
<path d="M59.08 930.17l20.03 0l0 12.23l-20.03 0Z" id="p257w206" />
<path d="M81.81 930.12l53.15 0l0 12.29l-53.15 0Z" id="p257w207" />
<path d="M137.66 930.17l17.56 0l0 12.23l-17.56 0Z" id="p257w208" />
<path d="M157.92 930.17l37.14 0l0 12.23l-37.14 0Z" id="p257w209" />
<path d="M197.76 929.93l18.01 0l0 12.56l-18.01 0Z" id="p257w210" />
<path d="M260.6 112.5l14.41 0l0 12.23l-14.41 0Z" id="p257w211" />
<path d="M277.7 112.45l23.56 0l0 12.29l-23.56 0Z" id="p257w212" />
<path d="M303.97 112.5l17.56 0l0 12.23l-17.56 0Z" id="p257w213" />
<path d="M324.23 112.5l34.21 0l0 12.23l-34.21 0Z" id="p257w214" />
<path d="M361.14 112.26l14.79 0l0 12.56l-14.79 0Z" id="p257w215" />
<path d="M270.44 127.79l22.74 0l0 12.23l-22.74 0Z" id="p257w216" />
<path d="M295.89 127.79l29.03 0l0 12.23l-29.03 0Z" id="p257w217" />
<path d="M327.62 127.79l29.43 0l0 12.23l-29.43 0Z" id="p257w218" />
<path d="M359.75 127.79l32.62 0l0 12.23l-32.62 0Z" id="p257w219" />
<path d="M395.08 127.54l15.54 0l0 12.56l-15.54 0Z" id="p257w220" />
<path d="M270.44 143.07l22.74 0l0 12.23l-22.74 0Z" id="p257w221" />
<path d="M295.89 143.07l29.03 0l0 12.23l-29.03 0Z" id="p257w222" />
<path d="M335.95 143.07l8.33 0l0 12.23l-8.33 0Z" id="p257w223" />
<path d="M346.97 143.07l34.21 0l0 12.23l-34.21 0Z" id="p257w224" />
<path d="M383.89 142.83l14.79 0l0 12.56l-14.79 0Z" id="p257w225" />
<path d="M270.44 158.35l10.82 0l0 12.23l-10.82 0Z" id="p257w226" />
<path d="M283.96 158.35l29.03 0l0 12.23l-29.03 0Z" id="p257w227" />
<path d="M324.02 158.35l8.33 0l0 12.23l-8.33 0Z" id="p257w228" />
<path d="M335.05 158.35l34.21 0l0 12.23l-34.21 0Z" id="p257w229" />
<path d="M371.96 158.11l14.79 0l0 12.56l-14.79 0Z" id="p257w230" />
<path d="M260.6 173.64l14.41 0l0 12.23l-14.41 0Z" id="p257w231" />
<path d="M277.7 173.58l68.17 0l0 12.29l-68.17 0Z" id="p257w232" />
<path d="M348.57 173.64l13.05 0l0 12.23l-13.05 0Z" id="p257w233" />
<path d="M364.32 173.64l33.99 0l0 12.23l-33.99 0Z" id="p257w234" />
<path d="M420.44 173.61l14.18 0l0 12.23l-14.18 0Z" id="p257w235" />
<path d="M270.44 188.68l14.63 0l0 12.56l-14.63 0Z" id="p257w236" />
<path d="M260.6 204.2l8.78 0l0 12.23l-8.78 0Z" id="p257w237" />
<path d="M272.08 204.2l15.54 0l0 12.23l-15.54 0Z" id="p257w238" />
<path d="M290.32 204.15l22.68 0l0 12.29l-22.68 0Z" id="p257w239" />
<path d="M315.69 204.2l45.71 0l0 12.23l-45.71 0Z" id="p257w240" />
<path d="M364.1 204.2l10.35 0l0 12.23l-10.35 0Z" id="p257w241" />
<path d="M377.15 204.2l31.95 0l0 12.23l-31.95 0Z" id="p257w242" />
<path d="M411.8 204.2l22.51 0l0 12.23l-22.51 0Z" id="p257w243" />
<path d="M270.44 219.49l8.33 0l0 12.23l-8.33 0Z" id="p257w244" />
<path d="M281.47 219.49l23.19 0l0 12.23l-23.19 0Z" id="p257w245" />
<path d="M307.36 219.49l11.7 0l0 12.23l-11.7 0Z" id="p257w246" />
<path d="M321.76 219.49l12.16 0l0 12.23l-12.16 0Z" id="p257w247" />
<path d="M336.62 219.24l18.92 0l0 12.56l-18.92 0Z" id="p257w248" />
<path d="M260.6 234.77l14.41 0l0 12.23l-14.41 0Z" id="p257w249" />
<path d="M277.7 234.71l20.4 0l0 12.29l-20.4 0Z" id="p257w250" />
<path d="M300.8 234.77l11.94 0l0 12.23l-11.94 0Z" id="p257w251" />
<path d="M315.44 234.77l29.93 0l0 12.23l-29.93 0Z" id="p257w252" />
<path d="M348.07 234.53l15.54 0l0 12.56l-15.54 0Z" id="p257w253" />
<path d="M260.6 250.05l16.43 0l0 12.23l-16.43 0Z" id="p257w254" />
<path d="M279.72 250l44.74 0l0 12.29l-44.74 0Z" id="p257w255" />
<path d="M327.16 250.05l8.33 0l0 12.23l-8.33 0Z" id="p257w256" />
<path d="M338.19 250.05l17.55 0l0 12.23l-17.55 0Z" id="p257w257" />
<path d="M358.44 250.05l11.94 0l0 12.23l-11.94 0Z" id="p257w258" />
<path d="M373.08 250.05l21.39 0l0 12.23l-21.39 0Z" id="p257w259" />
<path d="M397.17 249.81l18.92 0l0 12.56l-18.92 0Z" id="p257w260" />
<path d="M260.6 265.28l20.87 0l0 12.29l-20.87 0Z" id="p257w261" />
<path d="M284.17 265.34l66.99 0l0 12.23l-66.99 0Z" id="p257w262" />
<path d="M353.86 265.09l15.54 0l0 12.56l-15.54 0Z" id="p257w263" />
<path d="M260.6 280.62l9.45 0l0 12.23l-9.45 0Z" id="p257w264" />
<path d="M272.74 280.56l24.82 0l0 12.29l-24.82 0Z" id="p257w265" />
<path d="M300.27 280.62l5.4 0l0 12.23l-5.4 0Z" id="p257w266" />
<path d="M308.37 280.62l40.82 0l0 12.23l-40.82 0Z" id="p257w267" />
<path d="M351.88 280.38l14.79 0l0 12.56l-14.79 0Z" id="p257w268" />
<path d="M260.6 295.9l13.74 0l0 12.23l-13.74 0Z" id="p257w269" />
<path d="M277.04 295.85l26.5 0l0 12.29l-26.5 0Z" id="p257w270" />
<path d="M306.23 295.9l8.1 0l0 12.23l-8.1 0Z" id="p257w271" />
<path d="M317.04 295.9l45.32 0l0 12.23l-45.32 0Z" id="p257w272" />
<path d="M365.06 295.66l13.88 0l0 12.56l-13.88 0Z" id="p257w273" />
<path d="M260.6 311.19l13.05 0l0 12.23l-13.05 0Z" id="p257w274" />
<path d="M276.35 311.13l32.58 0l0 12.29l-32.58 0Z" id="p257w275" />
<path d="M311.63 311.19l10.13 0l0 12.23l-10.13 0Z" id="p257w276" />
<path d="M324.45 311.19l50.72 0l0 12.23l-50.72 0Z" id="p257w277" />
<path d="M377.87 310.94l15.54 0l0 12.56l-15.54 0Z" id="p257w278" />
<path d="M260.6 326.47l17.55 0l0 12.23l-17.55 0Z" id="p257w279" />
<path d="M280.85 326.42l24.82 0l0 12.29l-24.82 0Z" id="p257w280" />
<path d="M308.37 326.47l16.22 0l0 12.23l-16.22 0Z" id="p257w281" />
<path d="M326.99 326.47l10.45 0l0 12.23l-10.45 0Z" id="p257w282" />
<path d="M340.14 326.47l44.64 0l0 12.23l-44.64 0Z" id="p257w283" />
<path d="M387.48 326.47l44.79 0l0 12.23l-44.79 0Z" id="p257w284" />
<path d="M270.44 341.51l14.79 0l0 12.56l-14.79 0Z" id="p257w285" />
<path d="M260.6 357.04l14.41 0l0 12.23l-14.41 0Z" id="p257w286" />
<path d="M277.7 356.98l21.62 0l0 12.29l-21.62 0Z" id="p257w287" />
<path d="M299.32 357.04l24.2 0l0 12.23l-24.2 0Z" id="p257w288" />
<path d="M326.22 356.98l30.51 0l0 12.29l-30.51 0Z" id="p257w289" />
<path d="M359.43 357.04l11.94 0l0 12.23l-11.94 0Z" id="p257w290" />
<path d="M374.07 357.04l47.62 0l0 12.23l-47.62 0Z" id="p257w291" />
<path d="M270.44 372.32l35.57 0l0 12.23l-35.57 0Z" id="p257w292" />
<path d="M308.71 372.08l15.54 0l0 12.56l-15.54 0Z" id="p257w293" />
<path d="M260.6 387.6l20.04 0l0 12.23l-20.04 0Z" id="p257w294" />
<path d="M283.34 387.55l29.92 0l0 12.29l-29.92 0Z" id="p257w295" />
<path d="M315.96 387.6l23.85 0l0 12.23l-23.85 0Z" id="p257w296" />
<path d="M342.51 387.6l12.16 0l0 12.23l-12.16 0Z" id="p257w297" />
<path d="M357.38 387.36l14.63 0l0 12.56l-14.63 0Z" id="p257w298" />
<path d="M270.44 402.89l18.46 0l0 12.23l-18.46 0Z" id="p257w299" />
<path d="M291.61 402.89l10.82 0l0 12.23l-10.82 0Z" id="p257w300" />
<path d="M305.12 402.89l29.71 0l0 12.23l-29.71 0Z" id="p257w301" />
<path d="M337.54 402.89l32.18 0l0 12.23l-32.18 0Z" id="p257w302" />
<path d="M372.41 402.89l10.35 0l0 12.23l-10.35 0Z" id="p257w303" />
<path d="M385.46 402.89l50.65 0l0 12.23l-50.65 0Z" id="p257w304" />
<path d="M270.44 417.93l15.54 0l0 12.56l-15.54 0Z" id="p257w305" />
<path d="M260.6 433.45l14.41 0l0 12.23l-14.41 0Z" id="p257w306" />
<path d="M277.7 433.4l28.07 0l0 12.29l-28.07 0Z" id="p257w307" />
<path d="M308.47 433.45l17.56 0l0 12.23l-17.56 0Z" id="p257w308" />
<path d="M328.73 433.45l38.94 0l0 12.23l-38.94 0Z" id="p257w309" />
<path d="M370.37 433.21l15.34 0l0 12.56l-15.34 0Z" id="p257w310" />
<path d="M260.6 448.74l19.44 0l0 12.23l-19.44 0Z" id="p257w311" />
<path d="M282.74 448.68l68.5 0l0 12.29l-68.5 0Z" id="p257w312" />
<path d="M353.94 448.74l24.75 0l0 12.23l-24.75 0Z" id="p257w313" />
<path d="M381.4 448.74l11.04 0l0 12.23l-11.04 0Z" id="p257w314" />
<path d="M395.13 448.49l15.34 0l0 12.56l-15.34 0Z" id="p257w315" />
<path d="M260.6 464.02l20.03 0l0 12.23l-20.03 0Z" id="p257w316" />
<path d="M283.33 463.97l79.97 0l0 12.29l-79.97 0Z" id="p257w317" />
<path d="M366 464.02l11.94 0l0 12.23l-11.94 0Z" id="p257w318" />
<path d="M380.64 464.02l18.01 0l0 12.23l-18.01 0Z" id="p257w319" />
<path d="M401.35 463.78l18.92 0l0 12.56l-18.92 0Z" id="p257w320" />
<path d="M260.6 479.3l19.44 0l0 12.23l-19.44 0Z" id="p257w321" />
<path d="M282.74 479.25l58.49 0l0 12.29l-58.49 0Z" id="p257w322" />
<path d="M343.93 479.3l16.21 0l0 12.23l-16.21 0Z" id="p257w323" />
<path d="M362.83 479.3l24.75 0l0 12.23l-24.75 0Z" id="p257w324" />
<path d="M390.29 479.3l11.04 0l0 12.23l-11.04 0Z" id="p257w325" />
<path d="M404.03 479.3l11.7 0l0 12.23l-11.7 0Z" id="p257w326" />
<path d="M418.43 479.3l11.04 0l0 12.23l-11.04 0Z" id="p257w327" />
<path d="M270.44 494.35l15.54 0l0 12.56l-15.54 0Z" id="p257w328" />
<path d="M260.59 509.88l19.44 0l0 12.23l-19.44 0Z" id="p257w329" />
<path d="M282.73 509.82l63.78 0l0 12.29l-63.78 0Z" id="p257w330" />
<path d="M349.21 509.88l31.95 0l0 12.23l-31.95 0Z" id="p257w331" />
<path d="M383.86 509.88l11.04 0l0 12.23l-11.04 0Z" id="p257w332" />
<path d="M397.6 509.88l11.7 0l0 12.23l-11.7 0Z" id="p257w333" />
<path d="M412 509.88l26.19 0l0 12.23l-26.19 0Z" id="p257w334" />
<path d="M270.44 524.92l18.92 0l0 12.56l-18.92 0Z" id="p257w335" />
<path d="M260.59 540.44l15.53 0l0 12.23l-15.53 0Z" id="p257w336" />
<path d="M278.82 540.39l31.51 0l0 12.29l-31.51 0Z" id="p257w337" />
<path d="M313.03 540.44l46.45 0l0 12.23l-46.45 0Z" id="p257w338" />
<path d="M383.34 540.2l18.01 0l0 12.56l-18.01 0Z" id="p257w339" />
<path d="M260.59 555.67l71.76 0l0 12.29l-71.76 0Z" id="p257w340" />
<path d="M335.05 555.73l28.8 0l0 12.23l-28.8 0Z" id="p257w341" />
<path d="M366.55 555.48l14.63 0l0 12.56l-14.63 0Z" id="p257w342" />
<path d="M260.59 571.01l20.03 0l0 12.23l-20.03 0Z" id="p257w343" />
<path d="M283.32 570.96l41.99 0l0 12.29l-41.99 0Z" id="p257w344" />
<path d="M328.02 571.01l17.56 0l0 12.23l-17.56 0Z" id="p257w345" />
<path d="M348.28 571.01l32.81 0l0 12.23l-32.81 0Z" id="p257w346" />
<path d="M383.79 570.77l18.92 0l0 12.56l-18.92 0Z" id="p257w347" />
<path d="M260.59 586.24l20.55 0l0 12.29l-20.55 0Z" id="p257w348" />
<path d="M295.06 586.29l55.11 0l0 12.23l-55.11 0Z" id="p257w349" />
<path d="M352.87 586.05l14.79 0l0 12.56l-14.79 0Z" id="p257w350" />
<path d="M260.59 601.52l35.82 0l0 12.29l-35.82 0Z" id="p257w351" />
<path d="M299.12 601.58l35.96 0l0 12.23l-35.96 0Z" id="p257w352" />
<path d="M335.07 601.58l17.56 0l0 12.23l-17.56 0Z" id="p257w353" />
<path d="M355.34 601.33l14.63 0l0 12.56l-14.63 0Z" id="p257w354" />
<path d="M260.59 616.86l19.44 0l0 12.23l-19.44 0Z" id="p257w355" />
<path d="M282.73 616.81l47.34 0l0 12.29l-47.34 0Z" id="p257w356" />
<path d="M332.78 616.86l43.22 0l0 12.23l-43.22 0Z" id="p257w357" />
<path d="M378.69 616.86l11.04 0l0 12.23l-11.04 0Z" id="p257w358" />
<path d="M392.43 616.62l17.81 0l0 12.56l-17.81 0Z" id="p257w359" />
<path d="M260.59 632.14l16.43 0l0 12.23l-16.43 0Z" id="p257w360" />
<path d="M279.72 632.09l68.38 0l0 12.29l-68.38 0Z" id="p257w361" />
<path d="M350.8 632.14l8.33 0l0 12.23l-8.33 0Z" id="p257w362" />
<path d="M361.83 632.14l74.52 0l0 12.23l-74.52 0Z" id="p257w363" />
<path d="M270.44 647.18l14.43 0l0 12.56l-14.43 0Z" id="p257w364" />
<path d="M260.59 662.71l19.44 0l0 12.23l-19.44 0Z" id="p257w365" />
<path d="M282.73 662.66l67.34 0l0 12.29l-67.34 0Z" id="p257w366" />
<path d="M352.77 662.71l53.59 0l0 12.23l-53.59 0Z" id="p257w367" />
<path d="M409.06 662.71l11.04 0l0 12.23l-11.04 0Z" id="p257w368" />
<path d="M422.8 662.47l14.43 0l0 12.56l-14.43 0Z" id="p257w369" />
<path d="M260.59 677.99l19.44 0l0 12.23l-19.44 0Z" id="p257w370" />
<path d="M282.73 677.94l56.84 0l0 12.29l-56.84 0Z" id="p257w371" />
<path d="M342.28 677.99l16.21 0l0 12.23l-16.21 0Z" id="p257w372" />
<path d="M361.19 677.99l24.75 0l0 12.23l-24.75 0Z" id="p257w373" />
<path d="M388.64 677.99l11.04 0l0 12.23l-11.04 0Z" id="p257w374" />
<path d="M402.38 677.99l11.7 0l0 12.23l-11.7 0Z" id="p257w375" />
<path d="M416.78 677.99l11.04 0l0 12.23l-11.04 0Z" id="p257w376" />
<path d="M270.44 693.03l15.54 0l0 12.56l-15.54 0Z" id="p257w377" />
<path d="M260.59 708.56l16.43 0l0 12.23l-16.43 0Z" id="p257w378" />
<path d="M279.72 708.51l21.44 0l0 12.29l-21.44 0Z" id="p257w379" />
<path d="M303.86 708.56l8.33 0l0 12.23l-8.33 0Z" id="p257w380" />
<path d="M314.89 708.56l24.1 0l0 12.23l-24.1 0Z" id="p257w381" />
<path d="M341.69 708.32l18.01 0l0 12.56l-18.01 0Z" id="p257w382" />
<path d="M270.44 723.84l11.93 0l0 12.23l-11.93 0Z" id="p257w383" />
<path d="M285.07 723.84l33.09 0l0 12.23l-33.09 0Z" id="p257w384" />
<path d="M320.86 723.84l17.12 0l0 12.23l-17.12 0Z" id="p257w385" />
<path d="M340.68 723.84l11.48 0l0 12.23l-11.48 0Z" id="p257w386" />
<path d="M354.86 723.84l24.1 0l0 12.23l-24.1 0Z" id="p257w387" />
<path d="M381.66 723.84l11.7 0l0 12.23l-11.7 0Z" id="p257w388" />
<path d="M396.07 723.6l18.01 0l0 12.56l-18.01 0Z" id="p257w389" />
<path d="M260.59 739.07l27.24 0l0 12.29l-27.24 0Z" id="p257w390" />
<path d="M290.54 739.13l52.16 0l0 12.23l-52.16 0Z" id="p257w391" />
<path d="M345.4 738.88l15.54 0l0 12.56l-15.54 0Z" id="p257w392" />
<path d="M270.44 754.41l27.01 0l0 12.23l-27.01 0Z" id="p257w393" />
<path d="M300.15 754.41l30.39 0l0 12.23l-30.39 0Z" id="p257w394" />
<path d="M333.24 754.41l10.58 0l0 12.23l-10.58 0Z" id="p257w395" />
<path d="M346.52 754.41l17.11 0l0 12.23l-17.11 0Z" id="p257w396" />
<path d="M366.33 754.17l15.54 0l0 12.56l-15.54 0Z" id="p257w397" />
<path d="M260.59 769.7l14.41 0l0 12.23l-14.41 0Z" id="p257w398" />
<path d="M277.7 769.64l65.71 0l0 12.29l-65.71 0Z" id="p257w399" />
<path d="M343.41 769.7l24.2 0l0 12.23l-24.2 0Z" id="p257w400" />
<path d="M370.31 769.64l23.63 0l0 12.29l-23.63 0Z" id="p257w401" />
<path d="M396.64 769.7l11.94 0l0 12.23l-11.94 0Z" id="p257w402" />
<path d="M270.44 784.98l53.24 0l0 12.23l-53.24 0Z" id="p257w403" />
<path d="M326.38 784.98l37.14 0l0 12.23l-37.14 0Z" id="p257w404" />
<path d="M366.22 784.73l18.92 0l0 12.56l-18.92 0Z" id="p257w405" />
<path d="M260.59 800.21l18.42 0l0 12.29l-18.42 0Z" id="p257w406" />
<path d="M281.71 800.26l8.33 0l0 12.23l-8.33 0Z" id="p257w407" />
<path d="M292.74 800.02l14.79 0l0 12.56l-14.79 0Z" id="p257w408" />
<path d="M323.04 800.26l10.36 0l0 12.23l-10.36 0Z" id="p257w409" />
<path d="M336.1 800.02l15.54 0l0 12.56l-15.54 0Z" id="p257w410" />
<path d="M260.59 815.49l34.02 0l0 12.29l-34.02 0Z" id="p257w411" />
<path d="M297.32 815.55l10.36 0l0 12.23l-10.36 0Z" id="p257w412" />
<path d="M310.38 815.3l15.54 0l0 12.56l-15.54 0Z" id="p257w413" />
<path d="M260.59 830.83l20.03 0l0 12.23l-20.03 0Z" id="p257w414" />
<path d="M283.32 830.77l22.07 0l0 12.29l-22.07 0Z" id="p257w415" />
<path d="M308.1 830.83l17.56 0l0 12.23l-17.56 0Z" id="p257w416" />
<path d="M328.36 830.83l20.03 0l0 12.23l-20.03 0Z" id="p257w417" />
<path d="M351.09 830.58l18.92 0l0 12.56l-18.92 0Z" id="p257w418" />
<path d="M260.59 846.06l59.57 0l0 12.29l-59.57 0Z" id="p257w419" />
<path d="M322.86 846.11l34.43 0l0 12.23l-34.43 0Z" id="p257w420" />
<path d="M360 845.87l15.54 0l0 12.56l-15.54 0Z" id="p257w421" />
<path d="M260.59 861.4l19.44 0l0 12.23l-19.44 0Z" id="p257w422" />
<path d="M282.73 861.34l67.87 0l0 12.29l-67.87 0Z" id="p257w423" />
<path d="M353.3 861.4l24.75 0l0 12.23l-24.75 0Z" id="p257w424" />
<path d="M380.76 861.4l11.04 0l0 12.23l-11.04 0Z" id="p257w425" />
<path d="M394.5 861.15l18.72 0l0 12.56l-18.72 0Z" id="p257w426" />
<path d="M260.59 876.62l60.7 0l0 12.29l-60.7 0Z" id="p257w427" />
<path d="M323.99 876.68l24.75 0l0 12.23l-24.75 0Z" id="p257w428" />
<path d="M351.45 876.43l15.54 0l0 12.56l-15.54 0Z" id="p257w429" />
<path d="M260.59 891.96l14.41 0l0 12.23l-14.41 0Z" id="p257w430" />
<path d="M277.7 891.91l53.4 0l0 12.29l-53.4 0Z" id="p257w431" />
<path d="M333.8 891.96l11.94 0l0 12.23l-11.94 0Z" id="p257w432" />
<path d="M348.44 891.96l33.53 0l0 12.23l-33.53 0Z" id="p257w433" />
<path d="M384.67 891.72l14.63 0l0 12.56l-14.63 0Z" id="p257w434" />
<path d="M260.59 907.25l18.46 0l0 12.23l-18.46 0Z" id="p257w435" />
<path d="M281.76 907.19l40.99 0l0 12.29l-40.99 0Z" id="p257w436" />
<path d="M325.45 907.25l10.35 0l0 12.23l-10.35 0Z" id="p257w437" />
<path d="M338.5 907.25l37.16 0l0 12.23l-37.16 0Z" id="p257w438" />
<path d="M378.36 907l15.54 0l0 12.56l-15.54 0Z" id="p257w439" />
<path d="M260.59 922.47l28.44 0l0 12.29l-28.44 0Z" id="p257w440" />
<path d="M291.74 922.53l37.12 0l0 12.23l-37.12 0Z" id="p257w441" />
<path d="M331.56 922.28l18.92 0l0 12.56l-18.92 0Z" id="p257w442" />
<path d="M462.11 112.51l11.93 0l0 12.23l-11.93 0Z" id="p257w443" />
<path d="M476.74 112.45l57.3 0l0 12.29l-57.3 0Z" id="p257w444" />
<path d="M545.06 112.51l58.97 0l0 12.23l-58.97 0Z" id="p257w445" />
<path d="M606.73 112.26l14.63 0l0 12.56l-14.63 0Z" id="p257w446" />
<path d="M462.11 127.74l71.44 0l0 12.29l-71.44 0Z" id="p257w447" />
<path d="M536.25 127.79l48.62 0l0 12.23l-48.62 0Z" id="p257w448" />
<path d="M471.96 143.05l49.74 0l0 12.23l-49.74 0Z" id="p257w449" />
<path d="M524.4 142.83l18.92 0l0 12.56l-18.92 0Z" id="p257w450" />
<path d="M462.11 158.3l69.7 0l0 12.29l-69.7 0Z" id="p257w451" />
<path d="M534.52 158.36l48.62 0l0 12.23l-48.62 0Z" id="p257w452" />
<path d="M585.84 158.11l15.54 0l0 12.56l-15.54 0Z" id="p257w453" />
<path d="M462.11 173.64l19.44 0l0 12.23l-19.44 0Z" id="p257w454" />
<path d="M484.25 173.59l52.99 0l0 12.29l-52.99 0Z" id="p257w455" />
<path d="M539.94 173.64l33.09 0l0 12.23l-33.09 0Z" id="p257w456" />
<path d="M575.73 173.64l11.04 0l0 12.23l-11.04 0Z" id="p257w457" />
<path d="M589.47 173.4l15.54 0l0 12.56l-15.54 0Z" id="p257w458" />
<path d="M462.11 188.93l15.53 0l0 12.23l-15.53 0Z" id="p257w459" />
<path d="M480.34 188.87l38.21 0l0 12.29l-38.21 0Z" id="p257w460" />
<path d="M521.26 188.93l8.33 0l0 12.23l-8.33 0Z" id="p257w461" />
<path d="M532.28 188.93l35.96 0l0 12.23l-35.96 0Z" id="p257w462" />
<path d="M570.94 188.68l14.79 0l0 12.56l-14.79 0Z" id="p257w463" />
<path d="M462.11 204.21l14.41 0l0 12.23l-14.41 0Z" id="p257w464" />
<path d="M479.22 204.15l13.88 0l0 12.29l-13.88 0Z" id="p257w465" />
<path d="M495.8 204.21l11.94 0l0 12.23l-11.94 0Z" id="p257w466" />
<path d="M510.44 204.21l21.39 0l0 12.23l-21.39 0Z" id="p257w467" />
<path d="M534.53 203.96l15.34 0l0 12.56l-15.34 0Z" id="p257w468" />
<path d="M462.11 219.44l15.34 0l0 12.29l-15.34 0Z" id="p257w469" />
<path d="M480.15 219.47l25.65 0l0 12.23l-25.65 0Z" id="p257w470" />
<path d="M508.51 219.49l33.99 0l0 12.23l-33.99 0Z" id="p257w471" />
<path d="M545.2 219.47l27.91 0l0 12.23l-27.91 0Z" id="p257w472" />
<path d="M575.81 219.25l15.54 0l0 12.56l-15.54 0Z" id="p257w473" />
<path d="M462.11 234.78l14.41 0l0 12.23l-14.41 0Z" id="p257w474" />
<path d="M479.22 234.72l30.2 0l0 12.29l-30.2 0Z" id="p257w475" />
<path d="M512.12 234.78l11.94 0l0 12.23l-11.94 0Z" id="p257w476" />
<path d="M526.76 234.78l22.51 0l0 12.23l-22.51 0Z" id="p257w477" />
<path d="M551.97 234.53l14.63 0l0 12.56l-14.63 0Z" id="p257w478" />
<path d="M462.11 250l33.39 0l0 12.29l-33.39 0ZM498.2 250.06l39.6 0l0 12.23l-39.6 0Z" id="p257w479" />
<path d="M540.51 249.81l18.92 0l0 12.56l-18.92 0Z" id="p257w480" />
<path d="M462.11 265.34l14.41 0l0 12.23l-14.41 0Z" id="p257w481" />
<path d="M479.22 265.29l16.67 0l0 12.29l-16.67 0Z" id="p257w482" />
<path d="M498.59 265.34l17.56 0l0 12.23l-17.56 0Z" id="p257w483" />
<path d="M518.85 265.34l20.5 0l0 12.23l-20.5 0Z" id="p257w484" />
<path d="M542.05 265.1l14.63 0l0 12.56l-14.63 0Z" id="p257w485" />
<path d="M462.11 280.57l31.03 0l0 12.29l-31.03 0Z" id="p257w486" />
<path d="M495.85 280.63l35.32 0l0 12.23l-35.32 0Z" id="p257w487" />
<path d="M533.87 280.38l18.17 0l0 12.56l-18.17 0Z" id="p257w488" />
<path d="M462.11 295.85l18.58 0l0 12.29l-18.58 0Z" id="p257w489" />
<path d="M480.7 295.85l13.5 0l0 12.29l-13.5 0Z" id="p257w490" />
<path d="M496.9 295.91l44.47 0l0 12.23l-44.47 0Z" id="p257w491" />
<path d="M544.08 295.66l18.92 0l0 12.56l-18.92 0Z" id="p257w492" />
<path d="M462.11 311.14l30.76 0l0 12.29l-30.76 0Z" id="p257w493" />
<path d="M495.57 311.19l18.02 0l0 12.23l-18.02 0Z" id="p257w494" />
<path d="M515.99 311.19l28.81 0l0 12.23l-28.81 0Z" id="p257w495" />
<path d="M547.5 311.19l16.43 0l0 12.23l-16.43 0Z" id="p257w496" />
<path d="M566.63 311.19l26.11 0l0 12.23l-26.11 0Z" id="p257w497" />
<path d="M595.44 311.19l9.45 0l0 12.23l-9.45 0Z" id="p257w498" />
<path d="M607.59 311.19l16.43 0l0 12.23l-16.43 0Z" id="p257w499" />
<path d="M626.72 311.19l16.43 0l0 12.23l-16.43 0Z" id="p257w500" />
<path d="M493.11 326.23l18.92 0l0 12.56l-18.92 0Z" id="p257w501" />
<path d="M462.11 341.76l40.5 0l0 12.23l-40.5 0Z" id="p257w502" />
<path d="M505.32 341.7l26.44 0l0 12.29l-26.44 0Z" id="p257w503" />
<path d="M534.46 341.76l20.47 0l0 12.23l-20.47 0Z" id="p257w504" />
<path d="M557.64 341.76l40.97 0l0 12.23l-40.97 0Z" id="p257w505" />
<path d="M601.31 341.76l27.37 0l0 12.23l-27.37 0Z" id="p257w506" />
<path d="M471.96 356.8l18.72 0l0 12.56l-18.72 0Z" id="p257w507" />
<path d="M462.11 372.33l40.5 0l0 12.23l-40.5 0Z" id="p257w508" />
<path d="M505.32 372.27l27.45 0l0 12.29l-27.45 0Z" id="p257w509" />
<path d="M535.47 372.33l42.76 0l0 12.23l-42.76 0Z" id="p257w510" />
<path d="M580.93 372.33l27.37 0l0 12.23l-27.37 0Z" id="p257w511" />
<path d="M611 372.08l15.54 0l0 12.56l-15.54 0Z" id="p257w512" />
<path d="M462.11 387.61l20.03 0l0 12.23l-20.03 0Z" id="p257w513" />
<path d="M484.84 387.55l23.43 0l0 12.29l-23.43 0Z" id="p257w514" />
<path d="M510.97 387.61l11.94 0l0 12.23l-11.94 0Z" id="p257w515" />
<path d="M525.61 387.61l41.87 0l0 12.23l-41.87 0Z" id="p257w516" />
<path d="M570.18 387.37l15.34 0l0 12.56l-15.34 0Z" id="p257w517" />
<path d="M462.11 402.89l14.41 0l0 12.23l-14.41 0Z" id="p257w518" />
<path d="M479.22 402.84l25.35 0l0 12.29l-25.35 0Z" id="p257w519" />
<path d="M507.27 402.89l11.94 0l0 12.23l-11.94 0Z" id="p257w520" />
<path d="M521.91 402.89l24.09 0l0 12.23l-24.09 0Z" id="p257w521" />
<path d="M548.7 402.65l17.81 0l0 12.56l-17.81 0Z" id="p257w522" />
<path d="M462.11 418.18l16.43 0l0 12.23l-16.43 0Z" id="p257w523" />
<path d="M481.24 418.12l66.3 0l0 12.29l-66.3 0Z" id="p257w524" />
<path d="M550.24 418.18l49.28 0l0 12.23l-49.28 0Z" id="p257w525" />
<path d="M471.96 433.22l18.72 0l0 12.56l-18.72 0Z" id="p257w526" />
<path d="M462.11 448.69l33.66 0l0 12.29l-33.66 0Z" id="p257w527" />
<path d="M498.47 448.74l37.27 0l0 12.23l-37.27 0Z" id="p257w528" />
<path d="M538.44 448.5l15.54 0l0 12.56l-15.54 0Z" id="p257w529" />
<path d="M462.11 464.03l14.41 0l0 12.23l-14.41 0Z" id="p257w530" />
<path d="M479.22 463.97l25.25 0l0 12.29l-25.25 0Z" id="p257w531" />
<path d="M507.17 464.03l11.94 0l0 12.23l-11.94 0Z" id="p257w532" />
<path d="M521.81 464.03l29.94 0l0 12.23l-29.94 0Z" id="p257w533" />
<path d="M554.46 463.78l14.63 0l0 12.56l-14.63 0Z" id="p257w534" />
<path d="M462.11 479.31l14.41 0l0 12.23l-14.41 0Z" id="p257w535" />
<path d="M479.22 479.25l47.65 0l0 12.29l-47.65 0Z" id="p257w536" />
<path d="M529.57 479.31l11.94 0l0 12.23l-11.94 0Z" id="p257w537" />
<path d="M544.21 479.31l29.94 0l0 12.23l-29.94 0Z" id="p257w538" />
<path d="M576.85 479.07l14.63 0l0 12.56l-14.63 0Z" id="p257w539" />
<path d="M462.11 494.54l60.99 0l0 12.29l-60.99 0Z" id="p257w540" />
<path d="M525.8 494.59l62.36 0l0 12.23l-62.36 0Z" id="p257w541" />
<path d="M590.86 494.35l18.01 0l0 12.56l-18.01 0Z" id="p257w542" />
<path d="M462.11 509.88l14.41 0l0 12.23l-14.41 0Z" id="p257w543" />
<path d="M479.22 509.82l25.23 0l0 12.29l-25.23 0Z" id="p257w544" />
<path d="M507.15 509.88l11.94 0l0 12.23l-11.94 0Z" id="p257w545" />
<path d="M521.79 509.88l25.44 0l0 12.23l-25.44 0Z" id="p257w546" />
<path d="M549.93 509.63l14.79 0l0 12.56l-14.79 0Z" id="p257w547" />
<path d="M462.11 525.11l34.58 0l0 12.29l-34.58 0Z" id="p257w548" />
<path d="M499.39 525.16l29.49 0l0 12.23l-29.49 0Z" id="p257w549" />
<path d="M531.58 525.16l23.19 0l0 12.23l-23.19 0Z" id="p257w550" />
<path d="M557.47 525.16l21.15 0l0 12.23l-21.15 0Z" id="p257w551" />
<path d="M581.32 524.92l14.63 0l0 12.56l-14.63 0Z" id="p257w552" />
<path d="M462.11 578.6l13.5 0l0 12.29l-13.5 0Z" id="p257w553" />
<path d="M478.32 578.63l38.04 0l0 12.23l-38.04 0Z" id="p257w554" />
<path d="M519.06 578.65l17.78 0l0 12.23l-17.78 0Z" id="p257w555" />
<path d="M539.54 578.41l13.88 0l0 12.56l-13.88 0Z" id="p257w556" />
<path d="M462.11 593.88l22.94 0l0 12.29l-22.94 0Z" id="p257w557" />
<path d="M487.76 593.94l127.51 0l0 12.23l-127.51 0Z" id="p257w558" />
<path d="M471.96 608.97l18.92 0l0 12.56l-18.92 0Z" id="p257w559" />
<path d="M462.11 624.5l20.03 0l0 12.23l-20.03 0Z" id="p257w560" />
<path d="M484.84 624.45l20.59 0l0 12.29l-20.59 0Z" id="p257w561" />
<path d="M508.13 624.5l17.56 0l0 12.23l-17.56 0Z" id="p257w562" />
<path d="M528.39 624.5l20.03 0l0 12.23l-20.03 0Z" id="p257w563" />
<path d="M551.12 624.26l14.79 0l0 12.56l-14.79 0Z" id="p257w564" />
<path d="M462.11 639.73l13.26 0l0 12.29l-13.26 0Z" id="p257w565" />
<path d="M479.54 639.73l18.81 0l0 12.29l-18.81 0Z" id="p257w566" />
<path d="M501.05 639.79l44.24 0l0 12.23l-44.24 0Z" id="p257w567" />
<path d="M547.99 639.54l15.54 0l0 12.56l-15.54 0Z" id="p257w568" />
<path d="M462.11 655.01l12.79 0l0 12.29l-12.79 0Z" id="p257w569" />
<path d="M479.07 655.01l18.34 0l0 12.29l-18.34 0Z" id="p257w570" />
<path d="M500.12 655.07l44.91 0l0 12.23l-44.91 0Z" id="p257w571" />
<path d="M547.72 654.83l15.54 0l0 12.56l-15.54 0Z" id="p257w572" />
<path d="M462.11 670.35l19.44 0l0 12.23l-19.44 0Z" id="p257w573" />
<path d="M484.25 670.3l51.05 0l0 12.29l-51.05 0Z" id="p257w574" />
<path d="M538.01 670.35l35.78 0l0 12.23l-35.78 0Z" id="p257w575" />
<path d="M576.49 670.35l11.04 0l0 12.23l-11.04 0Z" id="p257w576" />
<path d="M590.23 670.11l18.92 0l0 12.56l-18.92 0Z" id="p257w577" />
<path d="M462.11 685.64l16.43 0l0 12.23l-16.43 0Z" id="p257w578" />
<path d="M481.24 685.58l48.03 0l0 12.29l-48.03 0Z" id="p257w579" />
<path d="M531.97 685.64l54.85 0l0 12.23l-54.85 0Z" id="p257w580" />
<path d="M610.68 685.39l18.92 0l0 12.56l-18.92 0Z" id="p257w581" />
<path d="M462.11 700.86l30.86 0l0 12.29l-30.86 0Z" id="p257w582" />
<path d="M495.67 700.92l38.28 0l0 12.23l-38.28 0Z" id="p257w583" />
<path d="M536.65 700.68l14.79 0l0 12.56l-14.79 0Z" id="p257w584" />
<path d="M471.96 716.2l30.6 0l0 12.23l-30.6 0Z" id="p257w585" />
<path d="M505.26 716.2l22.98 0l0 12.23l-22.98 0Z" id="p257w586" />
<path d="M530.94 716.2l23.64 0l0 12.23l-23.64 0Z" id="p257w587" />
<path d="M557.28 716.2l22.92 0l0 12.23l-22.92 0Z" id="p257w588" />
<path d="M582.9 716.2l38.28 0l0 12.23l-38.28 0Z" id="p257w589" />
<path d="M623.88 716.2l16.43 0l0 12.23l-16.43 0Z" id="p257w590" />
<path d="M471.96 731.24l18.92 0l0 12.56l-18.92 0Z" id="p257w591" />
<path d="M462.11 746.71l8.89 0l0 12.29l-8.89 0Z" id="p257w592" />
<path d="M482.03 746.53l14.79 0l0 12.56l-14.79 0Z" id="p257w593" />
<path d="M516.69 746.77l22.51 0l0 12.23l-22.51 0Z" id="p257w594" />
<path d="M541.9 746.53l14.79 0l0 12.56l-14.79 0Z" id="p257w595" />
<path d="M572.2 746.77l11.7 0l0 12.23l-11.7 0Z" id="p257w596" />
<path d="M586.6 746.53l14.79 0l0 12.56l-14.79 0Z" id="p257w597" />
<path d="M462.11 762.05l14.41 0l0 12.23l-14.41 0Z" id="p257w598" />
<path d="M479.22 762l50.11 0l0 12.29l-50.11 0Z" id="p257w599" />
<path d="M532.03 762.05l65.72 0l0 12.23l-65.72 0Z" id="p257w600" />
<path d="M615.46 761.81l17.81 0l0 12.56l-17.81 0Z" id="p257w601" />
<path d="M462.11 777.34l14.41 0l0 12.23l-14.41 0Z" id="p257w602" />
<path d="M479.22 777.28l59.63 0l0 12.29l-59.63 0Z" id="p257w603" />
<path d="M538.85 777.34l24.2 0l0 12.23l-24.2 0Z" id="p257w604" />
<path d="M565.75 777.28l68.53 0l0 12.29l-68.53 0Z" id="p257w605" />
<path d="M471.96 792.62l11.94 0l0 12.23l-11.94 0Z" id="p257w606" />
<path d="M486.6 792.62l84.53 0l0 12.23l-84.53 0Z" id="p257w607" />
<path d="M471.96 807.9l74.51 0l0 12.23l-74.51 0Z" id="p257w608" />
<path d="M549.17 807.66l17.81 0l0 12.56l-17.81 0Z" id="p257w609" />
<path d="M462.11 823.19l20.03 0l0 12.23l-20.03 0Z" id="p257w610" />
<path d="M484.84 823.13l56.39 0l0 12.29l-56.39 0Z" id="p257w611" />
<path d="M543.93 823.19l17.56 0l0 12.23l-17.56 0Z" id="p257w612" />
<path d="M564.19 823.19l55.38 0l0 12.23l-55.38 0Z" id="p257w613" />
<path d="M471.96 838.23l18.92 0l0 12.56l-18.92 0Z" id="p257w614" />
<path d="M462.11 853.75l14.41 0l0 12.23l-14.41 0Z" id="p257w615" />
<path d="M479.22 853.7l45.25 0l0 12.29l-45.25 0Z" id="p257w616" />
<path d="M524.47 853.75l24.2 0l0 12.23l-24.2 0Z" id="p257w617" />
<path d="M551.37 853.7l54.14 0l0 12.29l-54.14 0Z" id="p257w618" />
<path d="M608.21 853.75l11.94 0l0 12.23l-11.94 0Z" id="p257w619" />
<path d="M471.96 869.04l66.25 0l0 12.23l-66.25 0Z" id="p257w620" />
<path d="M540.91 869.04l50.14 0l0 12.23l-50.14 0Z" id="p257w621" />
<path d="M593.75 868.79l18.01 0l0 12.56l-18.01 0Z" id="p257w622" />
<path d="M462.11 884.32l20.03 0l0 12.23l-20.03 0Z" id="p257w623" />
<path d="M484.84 884.27l50.65 0l0 12.29l-50.65 0Z" id="p257w624" />
<path d="M538.2 884.32l17.56 0l0 12.23l-17.56 0Z" id="p257w625" />
<path d="M558.46 884.32l49.84 0l0 12.23l-49.84 0Z" id="p257w626" />
<path d="M611 884.08l17.81 0l0 12.56l-17.81 0Z" id="p257w627" />
<path d="M462.11 899.6l20.03 0l0 12.23l-20.03 0Z" id="p257w628" />
<path d="M484.84 899.55l22.63 0l0 12.29l-22.63 0Z" id="p257w629" />
<path d="M510.17 899.6l17.56 0l0 12.23l-17.56 0Z" id="p257w630" />
<path d="M530.44 899.6l11.03 0l0 12.23l-11.03 0Z" id="p257w631" />
<path d="M544.17 899.36l14.63 0l0 12.56l-14.63 0Z" id="p257w632" />
<path d="M462.11 914.89l16.9 0l0 12.23l-16.9 0Z" id="p257w633" />
<path d="M481.71 914.83l50.46 0l0 12.29l-50.46 0Z" id="p257w634" />
<path d="M534.87 914.89l35.56 0l0 12.23l-35.56 0Z" id="p257w635" />
<path d="M573.13 914.89l12.16 0l0 12.23l-12.16 0Z" id="p257w636" />
<path d="M587.99 914.64l18.92 0l0 12.56l-18.92 0Z" id="p257w637" />
<path d="M462.11 930.17l20.03 0l0 12.23l-20.03 0Z" id="p257w638" />
<path d="M484.84 930.12l49.55 0l0 12.29l-49.55 0Z" id="p257w639" />
<path d="M537.1 930.17l17.56 0l0 12.23l-17.56 0Z" id="p257w640" />
<path d="M557.36 930.17l48.17 0l0 12.23l-48.17 0Z" id="p257w641" />
<path d="M608.23 929.93l18.17 0l0 12.56l-18.17 0Z" id="p257w642" />
</svg>
