<?xml version="1.0" encoding="UTF-8"?>
<svg xmlns="http://www.w3.org/2000/svg" xmlns:xlink="http://www.w3.org/1999/xlink" version="1.1" baseProfile="full" width="768" height="1024" viewBox="0,0,768,1024" preserveAspectRatio="xMinYMin meet" >
<style type="text/css">
<![CDATA[
path {fill-opacity: 0.5;fill: #00aeef;visibility: hidden;}
]]>
</style>
<path d="M135.88 113.89l25.9 0l0 15.09l-25.9 0Z" id="p63w1" />
<path d="M165.39 113.89l10.54 0l0 15.09l-10.54 0Z" id="p63w2" />
<path d="M179.54 113.89l22.4 0l0 15.09l-22.4 0Z" id="p63w3" />
<path d="M205.55 113.89l31.35 0l0 15.09l-31.35 0Z" id="p63w4" />
<path d="M247.46 113.89l27.08 0l0 15.09l-27.08 0Z" id="p63w5" />
<path d="M278.15 113.89l18.52 0l0 15.09l-18.52 0Z" id="p63w6" />
<path d="M300.28 113.89l67.88 0l0 15.09l-67.88 0Z" id="p63w7" />
<path d="M371.77 113.89l58.39 0l0 15.09l-58.39 0Z" id="p63w8" />
<path d="M433.77 113.89l24.56 0l0 15.09l-24.56 0Z" id="p63w9" />
<path d="M135.88 130.56l29.86 0l0 15.09l-29.86 0Z" id="p63w10" />
<path d="M169.34 130.56l15.06 0l0 15.09l-15.06 0Z" id="p63w11" />
<path d="M188.02 130.56l40.86 0l0 15.09l-40.86 0Z" id="p63w12" />
<path d="M232.49 130.56l42.32 0l0 15.09l-42.32 0Z" id="p63w13" />
<path d="M278.42 130.56l17.34 0l0 15.09l-17.34 0Z" id="p63w14" />
<path d="M317.14 130.56l23.45 0l0 15.09l-23.45 0Z" id="p63w15" />
<path d="M344.21 130.56l21 0l0 15.09l-21 0Z" id="p63w16" />
<path d="M378.92 130.56l37.13 0l0 15.09l-37.13 0Z" id="p63w17" />
<path d="M419.66 130.56l14.21 0l0 15.09l-14.21 0Z" id="p63w18" />
<path d="M135.88 147.23l41.25 0l0 15.09l-41.25 0Z" id="p63w19" />
<path d="M180.74 147.23l22.57 0l0 15.09l-22.57 0Z" id="p63w20" />
<path d="M217.02 147.23l28.61 0l0 15.09l-28.61 0Z" id="p63w21" />
<path d="M249.24 147.23l46.51 0l0 15.09l-46.51 0Z" id="p63w22" />
<path d="M299.37 147.23l26.35 0l0 15.09l-26.35 0Z" id="p63w23" />
<path d="M329.32 147.23l39.76 0l0 15.09l-39.76 0Z" id="p63w24" />
<path d="M372.7 147.23l22.31 0l0 15.09l-22.31 0Z" id="p63w25" />
<path d="M398.62 147.23l42.78 0l0 15.09l-42.78 0Z" id="p63w26" />
<path d="M135.88 163.9l34.51 0l0 15.09l-34.51 0Z" id="p63w27" />
<path d="M186.27 163.9l10.42 0l0 15.09l-10.42 0Z" id="p63w28" />
<path d="M200.3 163.9l8.21 0l0 15.09l-8.21 0Z" id="p63w29" />
<path d="M220.15 163.9l19.29 0l0 15.09l-19.29 0Z" id="p63w30" />
<path d="M243.05 163.9l41.05 0l0 15.09l-41.05 0Z" id="p63w31" />
<path d="M287.71 163.9l31.89 0l0 15.09l-31.89 0Z" id="p63w32" />
<path d="M323.21 163.9l10.42 0l0 15.09l-10.42 0Z" id="p63w33" />
<path d="M337.24 163.9l50.62 0l0 15.09l-50.62 0Z" id="p63w34" />
<path d="M391.48 163.9l55.29 0l0 15.09l-55.29 0Z" id="p63w35" />
<path d="M450.38 163.9l19.29 0l0 15.09l-19.29 0Z" id="p63w36" />
<path d="M135.88 180.57l44.97 0l0 15.09l-44.97 0Z" id="p63w37" />
<path d="M184.46 180.57l21.42 0l0 15.09l-21.42 0Z" id="p63w38" />
<path d="M209.49 180.57l38.23 0l0 15.09l-38.23 0Z" id="p63w39" />
<path d="M251.34 180.57l57.41 0l0 15.09l-57.41 0Z" id="p63w40" />
<path d="M312.36 180.57l19.01 0l0 15.09l-19.01 0Z" id="p63w41" />
<path d="M334.98 180.57l55.13 0l0 15.09l-55.13 0Z" id="p63w42" />
<path d="M393.73 180.57l26.89 0l0 15.09l-26.89 0Z" id="p63w43" />
<path d="M424.22 180.57l28.99 0l0 15.09l-28.99 0Z" id="p63w44" />
<path d="M135.88 197.24l38.27 0l0 15.09l-38.27 0Z" id="p63w45" />
<path d="M177.76 197.24l14.59 0l0 15.09l-14.59 0Z" id="p63w46" />
<path d="M195.96 197.24l53.79 0l0 15.09l-53.79 0Z" id="p63w47" />
<path d="M253.36 197.24l28.72 0l0 15.09l-28.72 0Z" id="p63w48" />
<path d="M285.69 197.24l43.85 0l0 15.09l-43.85 0Z" id="p63w49" />
<path d="M333.15 197.24l12.58 0l0 15.09l-12.58 0Z" id="p63w50" />
<path d="M349.35 197.24l21.67 0l0 15.09l-21.67 0Z" id="p63w51" />
<path d="M374.63 197.24l18.52 0l0 15.09l-18.52 0Z" id="p63w52" />
<path d="M396.76 197.24l67.88 0l0 15.09l-67.88 0Z" id="p63w53" />
<path d="M135.88 213.91l16.64 0l0 15.09l-16.64 0Z" id="p63w54" />
<path d="M156.13 213.91l35.55 0l0 15.09l-35.55 0Z" id="p63w55" />
<path d="M205.39 213.91l67.4 0l0 15.09l-67.4 0Z" id="p63w56" />
<path d="M276.4 213.91l12.22 0l0 15.09l-12.22 0Z" id="p63w57" />
<path d="M292.23 213.91l21 0l0 15.09l-21 0Z" id="p63w58" />
<path d="M327.15 213.91l16.64 0l0 15.09l-16.64 0Z" id="p63w59" />
<path d="M347.41 213.91l35.16 0l0 15.09l-35.16 0Z" id="p63w60" />
<path d="M386.18 213.91l32.12 0l0 15.09l-32.12 0Z" id="p63w61" />
<path d="M421.91 213.91l39.66 0l0 15.09l-39.66 0Z" id="p63w62" />
<path d="M135.88 230.58l38.17 0l0 15.09l-38.17 0Z" id="p63w63" />
<path d="M177.66 230.58l15.89 0l0 15.09l-15.89 0Z" id="p63w64" />
<path d="M197.16 230.58l26.86 0l0 15.09l-26.86 0Z" id="p63w65" />
<path d="M227.63 230.58l22.03 0l0 15.09l-22.03 0Z" id="p63w66" />
<path d="M253.27 230.58l43.56 0l0 15.09l-43.56 0Z" id="p63w67" />
<path d="M307.39 230.58l10.63 0l0 15.09l-10.63 0Z" id="p63w68" />
<path d="M321.63 230.58l14.59 0l0 15.09l-14.59 0Z" id="p63w69" />
<path d="M339.82 230.58l45.05 0l0 15.09l-45.05 0Z" id="p63w70" />
<path d="M388.48 230.58l46.59 0l0 15.09l-46.59 0Z" id="p63w71" />
<path d="M438.68 230.58l19.46 0l0 15.09l-19.46 0Z" id="p63w72" />
<path d="M461.75 230.58l10.5 0l0 15.09l-10.5 0Z" id="p63w73" />
<path d="M135.88 247.25l41.25 0l0 15.09l-41.25 0Z" id="p63w74" />
<path d="M180.74 247.25l10.54 0l0 15.09l-10.54 0Z" id="p63w75" />
<path d="M194.89 247.25l18.28 0l0 15.09l-18.28 0Z" id="p63w76" />
<path d="M216.78 247.25l22.4 0l0 15.09l-22.4 0Z" id="p63w77" />
<path d="M242.79 247.25l27.49 0l0 15.09l-27.49 0Z" id="p63w78" />
<path d="M273.89 247.25l21.67 0l0 15.09l-21.67 0Z" id="p63w79" />
<path d="M299.17 247.25l28.84 0l0 15.09l-28.84 0Z" id="p63w80" />
<path d="M331.63 247.25l24.12 0l0 15.09l-24.12 0Z" id="p63w81" />
<path d="M359.36 247.25l27.08 0l0 15.09l-27.08 0Z" id="p63w82" />
<path d="M390.05 247.25l18.52 0l0 15.09l-18.52 0Z" id="p63w83" />
<path d="M412.18 247.25l37.33 0l0 15.09l-37.33 0ZM135.88 263.91l30.55 0l0 15.09l-30.55 0Z" id="p63w84" />
<path d="M170.04 263.91l37.13 0l0 15.09l-37.13 0Z" id="p63w85" />
<path d="M220.88 263.91l54.65 0l0 15.09l-54.65 0Z" id="p63w86" />
<path d="M279.14 263.91l10.5 0l0 15.09l-10.5 0Z" id="p63w87" />
<path d="M293.25 263.91l47.53 0l0 15.09l-47.53 0Z" id="p63w88" />
<path d="M344.39 263.91l44.83 0l0 15.09l-44.83 0Z" id="p63w89" />
<path d="M392.83 263.91l13.91 0l0 15.09l-13.91 0Z" id="p63w90" />
<path d="M410.34 263.91l57.53 0l0 15.09l-57.53 0Z" id="p63w91" />
<path d="M135.88 280.58l39.3 0l0 15.09l-39.3 0Z" id="p63w92" />
<path d="M178.79 280.58l10.54 0l0 15.09l-10.54 0Z" id="p63w93" />
<path d="M192.94 280.58l22.45 0l0 15.09l-22.45 0Z" id="p63w94" />
<path d="M219 280.58l10.42 0l0 15.09l-10.42 0Z" id="p63w95" />
<path d="M233.04 280.58l23.1 0l0 15.09l-23.1 0Z" id="p63w96" />
<path d="M259.74 280.58l36.46 0l0 15.09l-36.46 0Z" id="p63w97" />
<path d="M299.82 280.58l10.54 0l0 15.09l-10.54 0Z" id="p63w98" />
<path d="M313.97 280.58l18.6 0l0 15.09l-18.6 0Z" id="p63w99" />
<path d="M336.17 280.58l27.9 0l0 15.09l-27.9 0Z" id="p63w100" />
<path d="M367.69 280.58l15.74 0l0 15.09l-15.74 0Z" id="p63w101" />
<path d="M387.04 280.58l21.87 0l0 15.09l-21.87 0Z" id="p63w102" />
<path d="M412.53 280.58l14.59 0l0 15.09l-14.59 0Z" id="p63w103" />
<path d="M135.88 297.25l47.46 0l0 15.09l-47.46 0Z" id="p63w104" />
<path d="M186.95 297.25l64.48 0l0 15.09l-64.48 0Z" id="p63w105" />
<path d="M265.35 297.25l16.64 0l0 15.09l-16.64 0Z" id="p63w106" />
<path d="M285.6 297.25l42.37 0l0 15.09l-42.37 0Z" id="p63w107" />
<path d="M338.54 297.25l12.22 0l0 15.09l-12.22 0Z" id="p63w108" />
<path d="M354.37 297.25l9.29 0l0 15.09l-9.29 0Z" id="p63w109" />
<path d="M367.28 297.25l15.15 0l0 15.09l-15.15 0Z" id="p63w110" />
<path d="M386.04 297.25l46.87 0l0 15.09l-46.87 0Z" id="p63w111" />
<path d="M436.52 297.25l13.91 0l0 15.09l-13.91 0Z" id="p63w112" />
<path d="M454.04 297.25l10.42 0l0 15.09l-10.42 0Z" id="p63w113" />
<path d="M135.88 313.92l61.92 0l0 15.09l-61.92 0Z" id="p63w114" />
<path d="M201.41 313.92l54.95 0l0 15.09l-54.95 0Z" id="p63w115" />
<path d="M259.98 313.92l15.15 0l0 15.09l-15.15 0Z" id="p63w116" />
<path d="M278.74 313.92l14.59 0l0 15.09l-14.59 0Z" id="p63w117" />
<path d="M296.94 313.92l38.17 0l0 15.09l-38.17 0Z" id="p63w118" />
<path d="M338.72 313.92l27.23 0l0 15.09l-27.23 0Z" id="p63w119" />
<path d="M369.56 313.92l15.89 0l0 15.09l-15.89 0Z" id="p63w120" />
<path d="M389.06 313.92l54.6 0l0 15.09l-54.6 0Z" id="p63w121" />
<path d="M447.27 313.92l13.91 0l0 15.09l-13.91 0Z" id="p63w122" />
<path d="M135.88 330.59l10.42 0l0 15.09l-10.42 0Z" id="p63w123" />
<path d="M149.91 330.59l19.68 0l0 15.09l-19.68 0Z" id="p63w124" />
<path d="M173.2 330.59l13.91 0l0 15.09l-13.91 0Z" id="p63w125" />
<path d="M190.72 330.59l10.42 0l0 15.09l-10.42 0Z" id="p63w126" />
<path d="M204.75 330.59l27.82 0l0 15.09l-27.82 0Z" id="p63w127" />
<path d="M236.19 330.59l27.3 0l0 15.09l-27.3 0Z" id="p63w128" />
<path d="M267.1 330.59l26.63 0l0 15.09l-26.63 0Z" id="p63w129" />
<path d="M297.34 330.59l54.65 0l0 15.09l-54.65 0Z" id="p63w130" />
<path d="M355.59 330.59l26.3 0l0 15.09l-26.3 0Z" id="p63w131" />
<path d="M385.5 330.59l15.74 0l0 15.09l-15.74 0Z" id="p63w132" />
<path d="M404.86 330.59l27.44 0l0 15.09l-27.44 0Z" id="p63w133" />
<path d="M135.88 347.26l51.42 0l0 15.09l-51.42 0Z" id="p63w134" />
<path d="M190.91 347.26l15.06 0l0 15.09l-15.06 0Z" id="p63w135" />
<path d="M209.58 347.26l37.69 0l0 15.09l-37.69 0Z" id="p63w136" />
<path d="M250.89 347.26l14.59 0l0 15.09l-14.59 0Z" id="p63w137" />
<path d="M269.09 347.26l50.62 0l0 15.09l-50.62 0Z" id="p63w138" />
<path d="M493.29 338.85l30.34 0l0 15.42l-30.34 0Z" id="p63w139" />
<path d="M545.72 338.85l24.61 0l0 15.42l-24.61 0Z" id="p63w140" />
<path d="M574.05 338.85l31.02 0l0 15.42l-31.02 0Z" id="p63w141" />
<path d="M608.81 338.85l27.52 0l0 15.42l-27.52 0Z" id="p63w142" />
<path d="M640.05 338.85l56.81 0l0 15.42l-56.81 0Z" id="p63w143" />
<path d="M124.06 424.77l34.63 0l0 18.84l-34.63 0Z" id="p63w144" />
<path d="M162.34 424.77l89.43 0l0 18.84l-89.43 0Z" id="p63w145" />
<path d="M255.42 424.77l13.62 0l0 18.84l-13.62 0Z" id="p63w146" />
<path d="M272.69 424.77l38.39 0l0 18.84l-38.39 0Z" id="p63w147" />
<path d="M143.75 455.97l55.34 0l0 14.52l-55.34 0Z" id="p63w148" />
<path d="M202.31 455.97l19.52 0l0 14.52l-19.52 0Z" id="p63w149" />
<path d="M225.04 455.97l56.68 0l0 14.52l-56.68 0Z" id="p63w150" />
<path d="M143.75 480.98l50.43 0l0 14.52l-50.43 0Z" id="p63w151" />
<path d="M197.4 480.98l20.85 0l0 14.52l-20.85 0Z" id="p63w152" />
<path d="M221.46 480.98l33.68 0l0 14.52l-33.68 0Z" id="p63w153" />
<path d="M258.35 480.98l24.41 0l0 14.52l-24.41 0Z" id="p63w154" />
<path d="M143.75 497.66l49.46 0l0 14.52l-49.46 0Z" id="p63w155" />
<path d="M196.42 497.66l62.71 0l0 14.52l-62.71 0Z" id="p63w156" />
<path d="M262.34 497.66l13.9 0l0 14.52l-13.9 0Z" id="p63w157" />
<path d="M279.44 497.66l50.79 0l0 14.52l-50.79 0Z" id="p63w158" />
<path d="M333.44 497.66l18.72 0l0 14.52l-18.72 0Z" id="p63w159" />
<path d="M355.37 497.66l19.51 0l0 14.52l-19.51 0Z" id="p63w160" />
<path d="M378.08 497.66l44.57 0l0 14.52l-44.57 0Z" id="p63w161" />
<path d="M425.86 497.66l36.55 0l0 14.52l-36.55 0Z" id="p63w162" />
<path d="M143.75 514.33l31.01 0l0 14.52l-31.01 0Z" id="p63w163" />
<path d="M177.97 514.33l24.33 0l0 14.52l-24.33 0Z" id="p63w164" />
<path d="M205.5 514.33l15.5 0l0 14.52l-15.5 0Z" id="p63w165" />
<path d="M224.2 514.33l24.59 0l0 14.52l-24.59 0Z" id="p63w166" />
<path d="M252 514.33l49.97 0l0 14.52l-49.97 0Z" id="p63w167" />
<path d="M305.18 514.33l53.47 0l0 14.52l-53.47 0Z" id="p63w168" />
<path d="M361.86 514.33l13.91 0l0 14.52l-13.91 0Z" id="p63w169" />
<path d="M378.98 514.33l33.95 0l0 14.52l-33.95 0Z" id="p63w170" />
<path d="M416.13 514.33l36.91 0l0 14.52l-36.91 0Z" id="p63w171" />
<path d="M143.75 531l40.35 0l0 14.52l-40.35 0Z" id="p63w172" />
<path d="M187.31 531l11.22 0l0 14.52l-11.22 0Z" id="p63w173" />
<path d="M201.74 531l51.31 0l0 14.52l-51.31 0Z" id="p63w174" />
<path d="M264.54 531l54.53 0l0 14.52l-54.53 0Z" id="p63w175" />
<path d="M322.28 531l40.01 0l0 14.52l-40.01 0Z" id="p63w176" />
<path d="M143.75 547.67l53.22 0l0 14.52l-53.22 0Z" id="p63w177" />
<path d="M200.18 547.67l50.01 0l0 14.52l-50.01 0Z" id="p63w178" />
<path d="M253.4 547.67l9.89 0l0 14.52l-9.89 0Z" id="p63w179" />
<path d="M266.49 547.67l44.36 0l0 14.52l-44.36 0Z" id="p63w180" />
<path d="M314.06 547.67l52.67 0l0 14.52l-52.67 0Z" id="p63w181" />
<path d="M369.94 547.67l16.83 0l0 14.52l-16.83 0Z" id="p63w182" />
<path d="M398.62 547.67l20.85 0l0 14.52l-20.85 0Z" id="p63w183" />
<path d="M422.68 547.67l27.27 0l0 14.52l-27.27 0Z" id="p63w184" />
<path d="M143.75 564.34l50.43 0l0 14.52l-50.43 0Z" id="p63w185" />
<path d="M197.4 564.34l30.23 0l0 14.52l-30.23 0Z" id="p63w186" />
<path d="M230.83 564.34l35.56 0l0 14.52l-35.56 0Z" id="p63w187" />
<path d="M269.6 564.34l26.73 0l0 14.52l-26.73 0Z" id="p63w188" />
<path d="M299.53 564.34l9.89 0l0 14.52l-9.89 0Z" id="p63w189" />
<path d="M312.63 564.34l44.36 0l0 14.52l-44.36 0Z" id="p63w190" />
<path d="M360.2 564.34l19.51 0l0 14.52l-19.51 0Z" id="p63w191" />
<path d="M382.91 564.34l29.67 0l0 14.52l-29.67 0Z" id="p63w192" />
<path d="M143.75 581.01l49.75 0l0 14.52l-49.75 0Z" id="p63w193" />
<path d="M196.71 581.01l33.05 0l0 14.52l-33.05 0Z" id="p63w194" />
<path d="M232.97 581.01l22.99 0l0 14.52l-22.99 0Z" id="p63w195" />
<path d="M278.15 581.01l19.51 0l0 14.52l-19.51 0Z" id="p63w196" />
<path d="M300.87 581.01l54.21 0l0 14.52l-54.21 0Z" id="p63w197" />
<path d="M368.17 581.01l50.79 0l0 14.52l-50.79 0Z" id="p63w198" />
<path d="M143.75 606.02l25.41 0l0 14.52l-25.41 0Z" id="p63w199" />
<path d="M172.37 606.02l39.56 0l0 14.52l-39.56 0Z" id="p63w200" />
<path d="M215.14 606.02l39.56 0l0 14.52l-39.56 0Z" id="p63w201" />
<path d="M257.9 606.02l33.05 0l0 14.52l-33.05 0Z" id="p63w202" />
<path d="M294.16 606.02l53.48 0l0 14.52l-53.48 0Z" id="p63w203" />
<path d="M350.85 606.02l40.35 0l0 14.52l-40.35 0Z" id="p63w204" />
<path d="M394.41 606.02l11.22 0l0 14.52l-11.22 0Z" id="p63w205" />
<path d="M408.84 606.02l51.31 0l0 14.52l-51.31 0Z" id="p63w206" />
<path d="M463.35 606.02l24.33 0l0 14.52l-24.33 0Z" id="p63w207" />
<path d="M143.75 622.69l31.8 0l0 14.52l-31.8 0Z" id="p63w208" />
<path d="M178.76 622.69l26.73 0l0 14.52l-26.73 0Z" id="p63w209" />
<path d="M218.58 622.69l50.79 0l0 14.52l-50.79 0Z" id="p63w210" />
<path d="M143.75 647.71l49.75 0l0 14.52l-49.75 0Z" id="p63w211" />
<path d="M196.71 647.71l33.05 0l0 14.52l-33.05 0Z" id="p63w212" />
<path d="M232.97 647.71l20.85 0l0 14.52l-20.85 0Z" id="p63w213" />
<path d="M257.03 647.71l15.5 0l0 14.52l-15.5 0Z" id="p63w214" />
<path d="M275.73 647.71l57.73 0l0 14.52l-57.73 0Z" id="p63w215" />
<path d="M336.67 647.71l71.08 0l0 14.52l-71.08 0Z" id="p63w216" />
<path d="M410.96 647.71l39.28 0l0 14.52l-39.28 0Z" id="p63w217" />
<path d="M453.45 647.71l50.79 0l0 14.52l-50.79 0Z" id="p63w218" />
<path d="M124.06 681.05l11.5 0l0 14.52l-11.5 0Z" id="p63w219" />
<path d="M138.77 681.05l25.67 0l0 14.52l-25.67 0Z" id="p63w220" />
<path d="M175.93 681.05l33.33 0l0 14.52l-33.33 0Z" id="p63w221" />
<path d="M212.47 681.05l20.85 0l0 14.52l-20.85 0Z" id="p63w222" />
<path d="M236.53 681.05l25.67 0l0 14.52l-25.67 0Z" id="p63w223" />
<path d="M265.41 681.05l47.83 0l0 14.52l-47.83 0Z" id="p63w224" />
<path d="M316.45 681.05l26.73 0l0 14.52l-26.73 0Z" id="p63w225" />
<path d="M356.28 681.05l50.79 0l0 14.52l-50.79 0Z" id="p63w226" />
<path d="M418.56 681.05l53.22 0l0 14.52l-53.22 0Z" id="p63w227" />
<path d="M474.99 681.05l50.01 0l0 14.52l-50.01 0Z" id="p63w228" />
<path d="M528.21 681.05l30.74 0l0 14.52l-30.74 0Z" id="p63w229" />
<path d="M124.06 724.88l23.83 0l0 18.84l-23.83 0Z" id="p63w230" />
<path d="M151.54 724.88l18.36 0l0 18.84l-18.36 0Z" id="p63w231" />
<path d="M173.54 724.88l37.28 0l0 18.84l-37.28 0Z" id="p63w232" />
<path d="M143.75 756.08l42.53 0l0 14.52l-42.53 0Z" id="p63w233" />
<path d="M189.49 756.08l26.73 0l0 14.52l-26.73 0Z" id="p63w234" />
<path d="M219.43 756.08l9.89 0l0 14.52l-9.89 0Z" id="p63w235" />
<path d="M232.52 756.08l28.33 0l0 14.52l-28.33 0Z" id="p63w236" />
<path d="M264.05 756.08l15.5 0l0 14.52l-15.5 0Z" id="p63w237" />
<path d="M282.76 756.08l28.06 0l0 14.52l-28.06 0Z" id="p63w238" />
<path d="M314.02 756.08l17.38 0l0 14.52l-17.38 0Z" id="p63w239" />
<path d="M334.62 756.08l81.27 0l0 14.52l-81.27 0Z" id="p63w240" />
<path d="M419.09 756.08l19.52 0l0 14.52l-19.52 0Z" id="p63w241" />
<path d="M441.82 756.08l21.38 0l0 14.52l-21.38 0Z" id="p63w242" />
<path d="M463.2 756.08l37.96 0l0 14.52l-37.96 0Z" id="p63w243" />
<path d="M504.37 756.08l55.16 0l0 14.52l-55.16 0Z" id="p63w244" />
<path d="M143.75 781.1l46.25 0l0 14.52l-46.25 0Z" id="p63w245" />
<path d="M193.21 781.1l32.35 0l0 14.52l-32.35 0Z" id="p63w246" />
<path d="M228.77 781.1l17.38 0l0 14.52l-17.38 0Z" id="p63w247" />
<path d="M259.25 781.1l22.73 0l0 14.52l-22.73 0Z" id="p63w248" />
<path d="M285.18 781.1l41.43 0l0 14.52l-41.43 0Z" id="p63w249" />
<path d="M329.82 781.1l18.44 0l0 14.52l-18.44 0Z" id="p63w250" />
<path d="M351.47 781.1l47.31 0l0 14.52l-47.31 0Z" id="p63w251" />
<path d="M401.99 781.1l20.85 0l0 14.52l-20.85 0Z" id="p63w252" />
<path d="M426.05 781.1l24.85 0l0 14.52l-24.85 0Z" id="p63w253" />
<path d="M454.11 781.1l24.85 0l0 14.52l-24.85 0Z" id="p63w254" />
<path d="M482.17 781.1l14.18 0l0 14.52l-14.18 0Z" id="p63w255" />
<path d="M143.75 797.77l15.51 0l0 14.52l-15.51 0Z" id="p63w256" />
<path d="M162.47 797.77l40.1 0l0 14.52l-40.1 0Z" id="p63w257" />
<path d="M205.78 797.77l13.91 0l0 14.52l-13.91 0Z" id="p63w258" />
<path d="M222.9 797.77l12.57 0l0 14.52l-12.57 0Z" id="p63w259" />
<path d="M238.67 797.77l34.96 0l0 14.52l-34.96 0Z" id="p63w260" />
<path d="M276.84 797.77l57.23 0l0 14.52l-57.23 0Z" id="p63w261" />
<path d="M337.28 797.77l24.85 0l0 14.52l-24.85 0Z" id="p63w262" />
<path d="M365.34 797.77l14.18 0l0 14.52l-14.18 0Z" id="p63w263" />
<path d="M382.73 797.77l40.1 0l0 14.52l-40.1 0Z" id="p63w264" />
<path d="M143.75 814.44l47.5 0l0 14.52l-47.5 0Z" id="p63w265" />
<path d="M194.47 814.44l13.91 0l0 14.52l-13.91 0Z" id="p63w266" />
<path d="M211.58 814.44l14.18 0l0 14.52l-14.18 0Z" id="p63w267" />
<path d="M228.97 814.44l18.7 0l0 14.52l-18.7 0Z" id="p63w268" />
<path d="M250.88 814.44l17.9 0l0 14.52l-17.9 0Z" id="p63w269" />
<path d="M271.99 814.44l40.36 0l0 14.52l-40.36 0Z" id="p63w270" />
<path d="M315.56 814.44l24.85 0l0 14.52l-24.85 0Z" id="p63w271" />
<path d="M143.75 831.11l56.15 0l0 14.52l-56.15 0Z" id="p63w272" />
<path d="M203.11 831.11l17.38 0l0 14.52l-17.38 0Z" id="p63w273" />
<path d="M223.7 831.11l18.7 0l0 14.52l-18.7 0Z" id="p63w274" />
<path d="M245.61 831.11l64.14 0l0 14.52l-64.14 0Z" id="p63w275" />
<path d="M312.96 831.11l24.85 0l0 14.52l-24.85 0Z" id="p63w276" />
<path d="M143.75 847.78l44.14 0l0 14.52l-44.14 0Z" id="p63w277" />
<path d="M191.1 847.78l30.23 0l0 14.52l-30.23 0Z" id="p63w278" />
<path d="M224.53 847.78l35.29 0l0 14.52l-35.29 0Z" id="p63w279" />
<path d="M263.04 847.78l19.52 0l0 14.52l-19.52 0Z" id="p63w280" />
<path d="M285.77 847.78l52.65 0l0 14.52l-52.65 0Z" id="p63w281" />
<path d="M341.62 847.78l25.67 0l0 14.52l-25.67 0Z" id="p63w282" />
<path d="M370.5 847.78l26.99 0l0 14.52l-26.99 0Z" id="p63w283" />
<path d="M400.7 847.78l40.36 0l0 14.52l-40.36 0Z" id="p63w284" />
<path d="M444.28 847.78l24.85 0l0 14.52l-24.85 0Z" id="p63w285" />
<path d="M143.75 864.45l44.14 0l0 14.52l-44.14 0Z" id="p63w286" />
<path d="M191.1 864.45l30.23 0l0 14.52l-30.23 0Z" id="p63w287" />
<path d="M224.53 864.45l21.92 0l0 14.52l-21.92 0Z" id="p63w288" />
<path d="M249.66 864.45l31.01 0l0 14.52l-31.01 0Z" id="p63w289" />
<path d="M283.88 864.45l24.06 0l0 14.52l-24.06 0Z" id="p63w290" />
<path d="M311.15 864.45l15.5 0l0 14.52l-15.5 0Z" id="p63w291" />
<path d="M329.85 864.45l26.73 0l0 14.52l-26.73 0Z" id="p63w292" />
<path d="M359.79 864.45l25.67 0l0 14.52l-25.67 0Z" id="p63w293" />
<path d="M388.67 864.45l14.18 0l0 14.52l-14.18 0Z" id="p63w294" />
<path d="M406.05 864.45l75.63 0l0 14.52l-75.63 0Z" id="p63w295" />
<path d="M484.89 864.45l24.85 0l0 14.52l-24.85 0Z" id="p63w296" />
<path d="M143.75 889.46l42.53 0l0 14.52l-42.53 0Z" id="p63w297" />
<path d="M189.49 889.46l26.73 0l0 14.52l-26.73 0Z" id="p63w298" />
<path d="M219.43 889.46l9.89 0l0 14.52l-9.89 0Z" id="p63w299" />
<path d="M232.52 889.46l28.33 0l0 14.52l-28.33 0Z" id="p63w300" />
<path d="M264.05 889.46l13.63 0l0 14.52l-13.63 0Z" id="p63w301" />
<path d="M280.89 889.46l33.95 0l0 14.52l-33.95 0Z" id="p63w302" />
<path d="M318.05 889.46l14.7 0l0 14.52l-14.7 0Z" id="p63w303" />
<path d="M335.96 889.46l28.06 0l0 14.52l-28.06 0Z" id="p63w304" />
<path d="M367.23 889.46l20.85 0l0 14.52l-20.85 0Z" id="p63w305" />
<path d="M391.29 889.46l25.67 0l0 14.52l-25.67 0Z" id="p63w306" />
<path d="M420.17 889.46l62.02 0l0 14.52l-62.02 0Z" id="p63w307" />
<path d="M495.29 889.46l28.96 0l0 14.52l-28.96 0Z" id="p63w308" />
<path d="M527.46 889.46l13.9 0l0 14.52l-13.9 0Z" id="p63w309" />
<path d="M544.56 889.46l57.02 0l0 14.52l-57.02 0Z" id="p63w310" />
<path d="M143.75 906.13l13.91 0l0 14.52l-13.91 0Z" id="p63w311" />
<path d="M160.87 906.13l30.65 0l0 14.52l-30.65 0Z" id="p63w312" />
<path d="M194.73 906.13l29.39 0l0 14.52l-29.39 0Z" id="p63w313" />
<path d="M227.33 906.13l40.57 0l0 14.52l-40.57 0Z" id="p63w314" />
<path d="M634.33 906.13l14.44 0l0 14.52l-14.44 0Z" id="p63w315" />
<path d="M651.98 906.13l23.52 0l0 14.52l-23.52 0Z" id="p63w316" />
<path d="M73.21 430.26l15.07 0l0 12.29l-15.07 0Z" id="p63w317" />
<path d="M52.56 444.22l35.72 0l0 12.3l-35.72 0Z" id="p63w318" />
<path d="M39.15 455.33l49.13 0l0 12.3l-49.13 0Z" id="p63w319" />
<path d="M60.68 682.83l27.93 0l0 12.29l-27.93 0Z" id="p63w320" />
<path d="M52.89 769.5l35.72 0l0 12.3l-35.72 0Z" id="p63w321" />
<path d="M39.49 780.62l49.13 0l0 12.3l-49.13 0Z" id="p63w322" />
<path d="M624.24 436.24l20.81 0l0 12.56l-20.81 0Z" id="p63w323" />
<path d="M647.75 436.24l31.57 0l0 12.56l-31.57 0Z" id="p63w324" />
<path d="M523.16 464.44l13.53 0l0 15.37l-13.53 0Z" id="p63w325" />
<path d="M540.07 464.44l36.85 0l0 15.37l-36.85 0Z" id="p63w326" />
<path d="M523.16 485.73l42.77 0l0 14.52l-42.77 0Z" id="p63w327" />
<path d="M569.13 485.73l44.9 0l0 14.52l-44.9 0Z" id="p63w328" />
<path d="M617.24 485.73l24.06 0l0 14.52l-24.06 0Z" id="p63w329" />
<path d="M644.51 485.73l15.5 0l0 14.52l-15.5 0Z" id="p63w330" />
<path d="M523.16 502.4l25.4 0l0 14.52l-25.4 0Z" id="p63w331" />
<path d="M551.76 502.4l60.95 0l0 14.52l-60.95 0Z" id="p63w332" />
<path d="M615.92 502.4l9.89 0l0 14.52l-9.89 0Z" id="p63w333" />
<path d="M629.02 502.4l49.13 0l0 14.52l-49.13 0Z" id="p63w334" />
<path d="M533.05 519.07l13.63 0l0 14.52l-13.63 0Z" id="p63w335" />
<path d="M549.89 519.07l19.51 0l0 14.52l-19.51 0Z" id="p63w336" />
<path d="M572.6 519.07l45.72 0l0 14.52l-45.72 0Z" id="p63w337" />
<path d="M621.53 519.07l13.9 0l0 14.52l-13.9 0Z" id="p63w338" />
<path d="M638.64 519.07l43.31 0l0 14.52l-43.31 0Z" id="p63w339" />
<path d="M523.16 535.74l12.83 0l0 14.52l-12.83 0Z" id="p63w340" />
<path d="M539.2 535.74l37.92 0l0 14.52l-37.92 0Z" id="p63w341" />
<path d="M580.33 535.74l17.38 0l0 14.52l-17.38 0Z" id="p63w342" />
<path d="M600.92 535.74l53.01 0l0 14.52l-53.01 0Z" id="p63w343" />
<path d="M523.16 552.41l9.89 0l0 14.52l-9.89 0Z" id="p63w344" />
<path d="M536.25 552.41l35.51 0l0 14.52l-35.51 0Z" id="p63w345" />
<path d="M574.97 552.41l33.62 0l0 14.52l-33.62 0Z" id="p63w346" />
<path d="M621.68 552.41l17.9 0l0 14.52l-17.9 0Z" id="p63w347" />
<path d="M642.78 552.41l20.85 0l0 14.52l-20.85 0Z" id="p63w348" />
<path d="M523.16 569.08l40.11 0l0 14.52l-40.11 0Z" id="p63w349" />
<path d="M566.48 569.08l13.9 0l0 14.52l-13.9 0Z" id="p63w350" />
<path d="M583.32 569.08l24.68 0l0 14.52l-24.68 0Z" id="p63w351" />
<path d="M620.83 569.08l27.36 0l0 14.52l-27.36 0Z" id="p63w352" />
<path d="M523.16 597.69l25.41 0l0 14.52l-25.41 0Z" id="p63w353" />
<path d="M551.77 597.69l22.99 0l0 14.52l-22.99 0Z" id="p63w354" />
<path d="M577.98 597.69l83.84 0l0 14.52l-83.84 0Z" id="p63w355" />
<path d="M523.16 614.36l20.85 0l0 14.52l-20.85 0Z" id="p63w356" />
<path d="M557.11 614.36l9.89 0l0 14.52l-9.89 0Z" id="p63w357" />
<path d="M570.2 614.36l27.73 0l0 14.52l-27.73 0Z" id="p63w358" />
<path d="M68.27 39.02l42.71 0l0 15.38l-42.71 0Z" id="p63w359" />
<path d="M152.94 38.6l45.75 0l0 16.09l-45.75 0Z" id="p63w360" />
<path d="M250.71 39.02l43.21 0l0 15.38l-43.21 0Z" id="p63w361" />
<path d="M358.23 39.02l28.68 0l0 15.38l-28.68 0Z" id="p63w362" />
<path d="M390.29 39.02l43.54 0l0 15.38l-43.54 0Z" id="p63w363" />
<path d="M467.02 39.02l32.54 0l0 15.38l-32.54 0Z" id="p63w364" />
<path d="M624.17 983l66.94 0l0 12.23l-66.94 0Z" id="p63w365" />
</svg>
