<?xml version="1.0" encoding="UTF-8"?>
<svg xmlns="http://www.w3.org/2000/svg" xmlns:xlink="http://www.w3.org/1999/xlink" version="1.1" baseProfile="full" width="768" height="1024" viewBox="0,0,768,1024" preserveAspectRatio="xMinYMin meet" >
<style type="text/css">
<![CDATA[
path {fill-opacity: 0.5;fill: #00aeef;visibility: hidden;}
]]>
</style>
<path d="M572.94 38.6l71 0l0 16.09l-71 0Z" id="p213w1" />
<path d="M617.55 983.66l71.68 0l0 12.23l-71.68 0Z" id="p213w2" />
<path d="M59.08 110.01l10.02 0l0 14.6l-10.02 0Z" id="p213w3" />
<path d="M85.32 110.01l16.01 0l0 14.6l-16.01 0Z" id="p213w4" />
<path d="M104.63 108.77l65.27 0l0 16.35l-65.27 0Z" id="p213w5" />
<path d="M232.36 110.09l70.3 0l0 14.52l-70.3 0Z" id="p213w6" />
<path d="M305.87 110.09l15.76 0l0 14.52l-15.76 0Z" id="p213w7" />
<path d="M324.84 110.09l16.58 0l0 14.52l-16.58 0Z" id="p213w8" />
<path d="M344.62 110.09l31.27 0l0 14.52l-31.27 0Z" id="p213w9" />
<path d="M232.36 126.76l19.24 0l0 14.52l-19.24 0Z" id="p213w10" />
<path d="M254.82 126.76l28.87 0l0 14.52l-28.87 0Z" id="p213w11" />
<path d="M59.07 144.86l57.93 0l0 14.6l-57.93 0Z" id="p213w12" />
<path d="M130.11 144.86l14.41 0l0 14.6l-14.41 0Z" id="p213w13" />
<path d="M157.63 144.86l25.65 0l0 14.6l-25.65 0Z" id="p213w14" />
<path d="M186.48 144.86l12.67 0l0 14.6l-12.67 0Z" id="p213w15" />
<path d="M59.07 160.29l48.98 0l0 16.35l-48.98 0Z" id="p213w16" />
<path d="M232.36 144.94l23.8 0l0 14.52l-23.8 0Z" id="p213w17" />
<path d="M259.37 144.94l60.35 0l0 14.52l-60.35 0Z" id="p213w18" />
<path d="M322.92 144.94l23.09 0l0 14.52l-23.09 0Z" id="p213w19" />
<path d="M349.22 144.94l12.84 0l0 14.52l-12.84 0Z" id="p213w20" />
<path d="M365.27 144.94l18.72 0l0 14.52l-18.72 0Z" id="p213w21" />
<path d="M417.47 144.94l15.77 0l0 14.52l-15.77 0Z" id="p213w22" />
<path d="M436.45 144.94l21.38 0l0 14.52l-21.38 0Z" id="p213w23" />
<path d="M461.04 144.94l46.78 0l0 14.52l-46.78 0Z" id="p213w24" />
<path d="M520.91 144.94l31.53 0l0 14.52l-31.53 0Z" id="p213w25" />
<path d="M555.65 144.94l19.51 0l0 14.52l-19.51 0Z" id="p213w26" />
<path d="M578.37 144.94l43.03 0l0 14.52l-43.03 0Z" id="p213w27" />
<path d="M435.7 161.62l57.93 0l0 14.61l-57.93 0Z" id="p213w28" />
<path d="M496.84 161.62l12.83 0l0 14.61l-12.83 0Z" id="p213w29" />
<path d="M59.07 179.68l20.99 0l0 14.6l-20.99 0Z" id="p213w30" />
<path d="M83.27 179.68l42.44 0l0 14.6l-42.44 0Z" id="p213w31" />
<path d="M128.91 179.68l13.87 0l0 14.6l-13.87 0Z" id="p213w32" />
<path d="M145.99 179.68l7.87 0l0 14.6l-7.87 0Z" id="p213w33" />
<path d="M153.86 179.68l14.33 0l0 14.6l-14.33 0Z" id="p213w34" />
<path d="M59.07 195.11l89 0l0 16.35l-89 0Z" id="p213w35" />
<path d="M232.37 179.76l23.79 0l0 14.52l-23.79 0Z" id="p213w36" />
<path d="M259.36 179.76l51.32 0l0 14.52l-51.32 0Z" id="p213w37" />
<path d="M417.47 179.76l12.83 0l0 14.52l-12.83 0Z" id="p213w38" />
<path d="M433.51 179.76l42.24 0l0 14.52l-42.24 0Z" id="p213w39" />
<path d="M478.96 179.76l13.9 0l0 14.52l-13.9 0Z" id="p213w40" />
<path d="M496.06 179.76l12.57 0l0 14.52l-12.57 0Z" id="p213w41" />
<path d="M511.84 179.76l7.48 0l0 14.52l-7.48 0Z" id="p213w42" />
<path d="M519.32 179.76l14.16 0l0 14.52l-14.16 0Z" id="p213w43" />
<path d="M536.69 179.76l16.83 0l0 14.52l-16.83 0Z" id="p213w44" />
<path d="M556.73 179.76l55.42 0l0 14.52l-55.42 0Z" id="p213w45" />
<path d="M435.7 196.44l41.95 0l0 14.61l-41.95 0Z" id="p213w46" />
<path d="M480.86 196.44l28.88 0l0 14.61l-28.88 0Z" id="p213w47" />
<path d="M59.07 214.5l20.99 0l0 14.6l-20.99 0Z" id="p213w48" />
<path d="M83.27 214.5l36.32 0l0 14.6l-36.32 0Z" id="p213w49" />
<path d="M122.89 213.26l49.91 0l0 16.35l-49.91 0Z" id="p213w50" />
<path d="M232.37 214.58l17.11 0l0 14.52l-17.11 0Z" id="p213w51" />
<path d="M252.42 214.58l51.77 0l0 14.52l-51.77 0Z" id="p213w52" />
<path d="M417.47 214.58l27.02 0l0 14.52l-27.02 0Z" id="p213w53" />
<path d="M457.59 214.58l20.58 0l0 14.52l-20.58 0Z" id="p213w54" />
<path d="M481.37 214.58l41.18 0l0 14.52l-41.18 0Z" id="p213w55" />
<path d="M525.76 214.58l40.63 0l0 14.52l-40.63 0Z" id="p213w56" />
<path d="M569.6 214.58l13.63 0l0 14.52l-13.63 0Z" id="p213w57" />
<path d="M586.44 214.58l42.45 0l0 14.52l-42.45 0Z" id="p213w58" />
<path d="M59.07 235.21l10.03 0l0 14.6l-10.03 0Z" id="p213w59" />
<path d="M72.31 235.21l39.55 0l0 14.6l-39.55 0Z" id="p213w60" />
<path d="M115.16 233.97l53.8 0l0 16.35l-53.8 0Z" id="p213w61" />
<path d="M232.37 235.29l17.11 0l0 14.52l-17.11 0Z" id="p213w62" />
<path d="M252.68 235.29l67.88 0l0 14.52l-67.88 0Z" id="p213w63" />
<path d="M435.2 239.61l38.49 0l0 14.61l-38.49 0Z" id="p213w64" />
<path d="M59.08 257.66l40.3 0l0 14.6l-40.3 0Z" id="p213w65" />
<path d="M102.58 257.66l12.67 0l0 14.6l-12.67 0Z" id="p213w66" />
<path d="M118.55 256.42l41.53 0l0 16.35l-41.53 0Z" id="p213w67" />
<path d="M232.37 257.74l23.09 0l0 14.52l-23.09 0Z" id="p213w68" />
<path d="M258.66 257.74l55.56 0l0 14.52l-55.56 0Z" id="p213w69" />
<path d="M232.37 274.41l23.09 0l0 14.52l-23.09 0Z" id="p213w70" />
<path d="M258.66 274.41l69.51 0l0 14.52l-69.51 0Z" id="p213w71" />
<path d="M435.7 257.68l14.16 0l0 14.61l-14.16 0Z" id="p213w72" />
<path d="M453.07 257.68l72.66 0l0 14.61l-72.66 0Z" id="p213w73" />
<path d="M528.94 257.68l56.64 0l0 14.61l-56.64 0Z" id="p213w74" />
<path d="M588.79 257.68l25.32 0l0 14.61l-25.32 0Z" id="p213w75" />
<path d="M617.31 257.68l17.9 0l0 14.61l-17.9 0Z" id="p213w76" />
<path d="M417.47 274.35l37.67 0l0 14.61l-37.67 0Z" id="p213w77" />
<path d="M59.07 292.47l108.75 0l0 14.6l-108.75 0Z" id="p213w78" />
<path d="M59.07 307.9l76.7 0l0 16.35l-76.7 0Z" id="p213w79" />
<path d="M232.37 292.55l28.34 0l0 14.52l-28.34 0Z" id="p213w80" />
<path d="M435.2 296.88l49.17 0l0 14.61l-49.17 0Z" id="p213w81" />
<path d="M508.51 296.88l48.1 0l0 14.61l-48.1 0Z" id="p213w82" />
<path d="M59.07 327.29l14.31 0l0 14.6l-14.31 0Z" id="p213w83" />
<path d="M76.59 327.29l47.93 0l0 14.6l-47.93 0Z" id="p213w84" />
<path d="M127.82 326.05l53.92 0l0 16.35l-53.92 0Z" id="p213w85" />
<path d="M232.37 327.37l17.11 0l0 14.52l-17.11 0Z" id="p213w86" />
<path d="M252.68 327.37l48.6 0l0 14.52l-48.6 0Z" id="p213w87" />
<path d="M59.07 348l20.99 0l0 14.6l-20.99 0Z" id="p213w88" />
<path d="M83.27 348l25.38 0l0 14.6l-25.38 0Z" id="p213w89" />
<path d="M111.95 346.76l41.79 0l0 16.35l-41.79 0Z" id="p213w90" />
<path d="M232.37 348.08l17.11 0l0 14.52l-17.11 0Z" id="p213w91" />
<path d="M252.68 348.08l27.53 0l0 14.52l-27.53 0Z" id="p213w92" />
<path d="M436.15 347.99l15.5 0l0 14.61l-15.5 0Z" id="p213w93" />
<path d="M454.85 347.99l58.79 0l0 14.61l-58.79 0Z" id="p213w94" />
<path d="M59.07 368.71l20.99 0l0 14.6l-20.99 0Z" id="p213w95" />
<path d="M83.27 368.71l56.6 0l0 14.6l-56.6 0Z" id="p213w96" />
<path d="M143.17 367.47l61.77 0l0 16.35l-61.77 0Z" id="p213w97" />
<path d="M232.37 368.79l17.11 0l0 14.52l-17.11 0Z" id="p213w98" />
<path d="M252.68 368.79l67.09 0l0 14.52l-67.09 0Z" id="p213w99" />
<path d="M417.47 368.79l35.28 0l0 14.52l-35.28 0Z" id="p213w100" />
<path d="M455.96 368.79l16.83 0l0 14.52l-16.83 0Z" id="p213w101" />
<path d="M476 368.79l9.89 0l0 14.52l-9.89 0Z" id="p213w102" />
<path d="M489.09 368.79l56.4 0l0 14.52l-56.4 0Z" id="p213w103" />
<path d="M435.7 385.48l57.73 0l0 14.61l-57.73 0Z" id="p213w104" />
<path d="M435.2 402.15l58.2 0l0 14.61l-58.2 0Z" id="p213w105" />
<path d="M517.54 402.15l56.12 0l0 14.61l-56.12 0Z" id="p213w106" />
<path d="M59.07 420.21l14.31 0l0 14.6l-14.31 0Z" id="p213w107" />
<path d="M76.59 420.21l77.49 0l0 14.6l-77.49 0Z" id="p213w108" />
<path d="M59.07 436.88l20.99 0l0 14.6l-20.99 0Z" id="p213w109" />
<path d="M83.27 436.88l72.39 0l0 14.6l-72.39 0Z" id="p213w110" />
<path d="M59.07 452.31l119 0l0 16.35l-119 0Z" id="p213w111" />
<path d="M232.37 420.29l17.11 0l0 14.52l-17.11 0Z" id="p213w112" />
<path d="M252.68 420.29l75.72 0l0 14.52l-75.72 0Z" id="p213w113" />
<path d="M331.61 420.29l50.2 0l0 14.52l-50.2 0Z" id="p213w114" />
<path d="M435.7 420.22l20.84 0l0 14.61l-20.84 0Z" id="p213w115" />
<path d="M459.75 420.22l32.89 0l0 14.61l-32.89 0Z" id="p213w116" />
<path d="M59.07 471.69l14.31 0l0 14.6l-14.31 0Z" id="p213w117" />
<path d="M76.59 471.69l28.83 0l0 14.6l-28.83 0Z" id="p213w118" />
<path d="M108.62 471.69l47.35 0l0 14.6l-47.35 0Z" id="p213w119" />
<path d="M59.07 487.12l73.89 0l0 16.35l-73.89 0Z" id="p213w120" />
<path d="M232.37 471.77l17.11 0l0 14.52l-17.11 0Z" id="p213w121" />
<path d="M252.68 471.77l31.82 0l0 14.52l-31.82 0Z" id="p213w122" />
<path d="M284.5 471.77l14.16 0l0 14.52l-14.16 0Z" id="p213w123" />
<path d="M417.47 471.77l46.51 0l0 14.52l-46.51 0Z" id="p213w124" />
<path d="M467.2 471.77l12.57 0l0 14.52l-12.57 0Z" id="p213w125" />
<path d="M482.97 471.77l42.86 0l0 14.52l-42.86 0Z" id="p213w126" />
<path d="M529.03 471.77l14.18 0l0 14.52l-14.18 0Z" id="p213w127" />
<path d="M546.42 471.77l40.89 0l0 14.52l-40.89 0Z" id="p213w128" />
<path d="M417.47 488.44l58.53 0l0 14.52l-58.53 0Z" id="p213w129" />
<path d="M479.21 488.44l19.51 0l0 14.52l-19.51 0Z" id="p213w130" />
<path d="M501.92 488.44l34.49 0l0 14.52l-34.49 0Z" id="p213w131" />
<path d="M539.62 488.44l55.25 0l0 14.52l-55.25 0Z" id="p213w132" />
<path d="M59.07 506.51l14.31 0l0 14.6l-14.31 0Z" id="p213w133" />
<path d="M76.59 506.51l24.48 0l0 14.6l-24.48 0Z" id="p213w134" />
<path d="M104.28 506.51l47.35 0l0 14.6l-47.35 0Z" id="p213w135" />
<path d="M59.07 521.94l63.54 0l0 16.35l-63.54 0Z" id="p213w136" />
<path d="M232.37 506.59l17.11 0l0 14.52l-17.11 0Z" id="p213w137" />
<path d="M252.68 506.59l34.75 0l0 14.52l-34.75 0Z" id="p213w138" />
<path d="M287.43 506.59l14.16 0l0 14.52l-14.16 0Z" id="p213w139" />
<path d="M59.07 541.31l154.42 0l0 14.6l-154.42 0Z" id="p213w140" />
<path d="M59.07 556.74l109.67 0l0 16.35l-109.67 0Z" id="p213w141" />
<path d="M232.37 541.39l66.71 0l0 14.52l-66.71 0Z" id="p213w142" />
<path d="M435.2 545.71l71.1 0l0 14.61l-71.1 0Z" id="p213w143" />
<path d="M59.08 576.12l42.73 0l0 14.6l-42.73 0Z" id="p213w144" />
<path d="M105.01 576.12l14.41 0l0 14.6l-14.41 0Z" id="p213w145" />
<path d="M122.72 574.88l30.12 0l0 16.35l-30.12 0Z" id="p213w146" />
<path d="M232.37 576.2l20.06 0l0 14.52l-20.06 0Z" id="p213w147" />
<path d="M255.64 576.2l51.05 0l0 14.52l-51.05 0Z" id="p213w148" />
<path d="M417.48 576.2l19.53 0l0 14.52l-19.53 0Z" id="p213w149" />
<path d="M440.22 576.2l41.96 0l0 14.52l-41.96 0Z" id="p213w150" />
<path d="M485.39 576.2l17.63 0l0 14.52l-17.63 0Z" id="p213w151" />
<path d="M506.23 576.2l38.24 0l0 14.52l-38.24 0Z" id="p213w152" />
<path d="M547.67 576.2l57.23 0l0 14.52l-57.23 0Z" id="p213w153" />
<path d="M435.2 592.88l11.5 0l0 14.61l-11.5 0Z" id="p213w154" />
<path d="M449.91 592.88l31.27 0l0 14.61l-31.27 0Z" id="p213w155" />
<path d="M59.08 610.94l27.6 0l0 14.6l-27.6 0Z" id="p213w156" />
<path d="M89.88 610.94l14.31 0l0 14.6l-14.31 0Z" id="p213w157" />
<path d="M107.4 610.94l26.7 0l0 14.6l-26.7 0Z" id="p213w158" />
<path d="M137.31 610.94l13.87 0l0 14.6l-13.87 0Z" id="p213w159" />
<path d="M154.39 610.94l27.88 0l0 14.6l-27.88 0Z" id="p213w160" />
<path d="M185.47 610.94l25.86 0l0 14.6l-25.86 0Z" id="p213w161" />
<path d="M59.08 627.61l32.19 0l0 14.6l-32.19 0Z" id="p213w162" />
<path d="M94.57 626.37l98.91 0l0 16.35l-98.91 0Z" id="p213w163" />
<path d="M232.37 611.02l21.92 0l0 14.52l-21.92 0Z" id="p213w164" />
<path d="M257.5 611.02l10.43 0l0 14.52l-10.43 0Z" id="p213w165" />
<path d="M271.14 611.02l48.1 0l0 14.52l-48.1 0Z" id="p213w166" />
<path d="M322.44 611.02l51.58 0l0 14.52l-51.58 0Z" id="p213w167" />
<path d="M417.48 611.02l15.6 0l0 14.52l-15.6 0Z" id="p213w168" />
<path d="M436.29 611.02l22.99 0l0 14.52l-22.99 0Z" id="p213w169" />
<path d="M462.49 611.02l13.9 0l0 14.52l-13.9 0Z" id="p213w170" />
<path d="M479.59 611.02l26.99 0l0 14.52l-26.99 0Z" id="p213w171" />
<path d="M509.79 611.02l13.63 0l0 14.52l-13.63 0Z" id="p213w172" />
<path d="M526.64 611.02l14.18 0l0 14.52l-14.18 0Z" id="p213w173" />
<path d="M544.02 611.02l27.02 0l0 14.52l-27.02 0Z" id="p213w174" />
<path d="M574.24 611.02l13.9 0l0 14.52l-13.9 0Z" id="p213w175" />
<path d="M591.35 611.02l28.62 0l0 14.52l-28.62 0Z" id="p213w176" />
<path d="M417.48 627.69l25.67 0l0 14.52l-25.67 0Z" id="p213w177" />
<path d="M446.36 627.69l12.57 0l0 14.52l-12.57 0Z" id="p213w178" />
<path d="M462.13 627.69l7.48 0l0 14.52l-7.48 0Z" id="p213w179" />
<path d="M469.61 627.69l16.84 0l0 14.52l-16.84 0Z" id="p213w180" />
<path d="M59.08 645.76l14.31 0l0 14.6l-14.31 0Z" id="p213w181" />
<path d="M76.59 645.76l36.19 0l0 14.6l-36.19 0Z" id="p213w182" />
<path d="M116.08 644.52l45.13 0l0 16.35l-45.13 0Z" id="p213w183" />
<path d="M232.37 645.84l17.11 0l0 14.52l-17.11 0Z" id="p213w184" />
<path d="M252.68 645.84l36.88 0l0 14.52l-36.88 0Z" id="p213w185" />
<path d="M417.48 645.84l25.4 0l0 14.52l-25.4 0Z" id="p213w186" />
<path d="M446.08 645.84l35.81 0l0 14.52l-35.81 0Z" id="p213w187" />
<path d="M59.08 666.47l101.87 0l0 14.6l-101.87 0Z" id="p213w188" />
<path d="M59.08 683.14l112.5 0l0 14.6l-112.5 0Z" id="p213w189" />
<path d="M59.08 698.57l92.9 0l0 16.35l-92.9 0Z" id="p213w190" />
<path d="M232.37 666.57l45.38 0l0 14.52l-45.38 0Z" id="p213w191" />
<path d="M280.96 666.55l42.24 0l0 14.52l-42.24 0Z" id="p213w192" />
<path d="M326.4 666.55l15.51 0l0 14.52l-15.51 0Z" id="p213w193" />
<path d="M345.12 666.55l37.25 0l0 14.52l-37.25 0Z" id="p213w194" />
<path d="M417.48 666.55l25.41 0l0 14.52l-25.41 0Z" id="p213w195" />
<path d="M446.09 666.55l17.9 0l0 14.52l-17.9 0Z" id="p213w196" />
<path d="M467.2 666.55l41.18 0l0 14.52l-41.18 0Z" id="p213w197" />
<path d="M511.59 666.55l28.88 0l0 14.52l-28.88 0Z" id="p213w198" />
<path d="M543.68 666.55l44.11 0l0 14.52l-44.11 0Z" id="p213w199" />
<path d="M417.48 683.22l19.51 0l0 14.52l-19.51 0Z" id="p213w200" />
<path d="M440.19 683.22l32.34 0l0 14.52l-32.34 0Z" id="p213w201" />
<path d="M475.74 683.22l54.49 0l0 14.52l-54.49 0Z" id="p213w202" />
<path d="M59.08 717.94l14.31 0l0 14.6l-14.31 0Z" id="p213w203" />
<path d="M76.59 717.94l46.73 0l0 14.6l-46.73 0Z" id="p213w204" />
<path d="M126.62 716.7l55.56 0l0 16.35l-55.56 0Z" id="p213w205" />
<path d="M232.37 718.02l17.11 0l0 14.52l-17.11 0Z" id="p213w206" />
<path d="M252.68 718.02l56.92 0l0 14.52l-56.92 0Z" id="p213w207" />
<path d="M312.81 718.02l23.79 0l0 14.52l-23.79 0Z" id="p213w208" />
<path d="M339.8 718.02l28.88 0l0 14.52l-28.88 0Z" id="p213w209" />
<path d="M417.48 718.02l18.72 0l0 14.52l-18.72 0Z" id="p213w210" />
<path d="M449.29 718.02l24.85 0l0 14.52l-24.85 0Z" id="p213w211" />
<path d="M477.35 718.02l9.89 0l0 14.52l-9.89 0Z" id="p213w212" />
<path d="M490.44 718.02l46.78 0l0 14.52l-46.78 0Z" id="p213w213" />
<path d="M435.7 734.71l20.84 0l0 14.61l-20.84 0Z" id="p213w214" />
<path d="M459.75 734.71l31.8 0l0 14.61l-31.8 0Z" id="p213w215" />
<path d="M59.07 752.77l19.19 0l0 14.6l-19.19 0Z" id="p213w216" />
<path d="M81.56 751.53l25.37 0l0 16.35l-25.37 0Z" id="p213w217" />
<path d="M64.98 778.41l19.19 0l0 14.6l-19.19 0Z" id="p213w218" />
<path d="M93.8 778.47l9.62 0l0 14.52l-9.62 0Z" id="p213w219" />
<path d="M106.63 778.47l16.04 0l0 14.52l-16.04 0Z" id="p213w220" />
<path d="M125.87 778.47l11.5 0l0 14.52l-11.5 0Z" id="p213w221" />
<path d="M140.58 778.47l16.04 0l0 14.52l-16.04 0Z" id="p213w222" />
<path d="M159.82 778.47l6.41 0l0 14.52l-6.41 0Z" id="p213w223" />
<path d="M169.44 778.47l14.97 0l0 14.52l-14.97 0Z" id="p213w224" />
<path d="M187.62 778.47l26.74 0l0 14.52l-26.74 0Z" id="p213w225" />
<path d="M217.57 778.47l30.21 0l0 14.52l-30.21 0Z" id="p213w226" />
<path d="M250.99 778.47l25.67 0l0 14.52l-25.67 0Z" id="p213w227" />
<path d="M279.87 778.47l22.99 0l0 14.52l-22.99 0Z" id="p213w228" />
<path d="M306.07 778.47l12.02 0l0 14.52l-12.02 0Z" id="p213w229" />
<path d="M321.3 778.47l29.09 0l0 14.52l-29.09 0Z" id="p213w230" />
<path d="M64.98 795.08l30.74 0l0 14.68l-30.74 0Z" id="p213w231" />
<path d="M98.93 795.08l47.06 0l0 14.68l-47.06 0Z" id="p213w232" />
<path d="M155.84 795.14l14.8 0l0 14.52l-14.8 0Z" id="p213w233" />
<path d="M173.84 795.08l7.97 0l0 14.6l-7.97 0Z" id="p213w234" />
<path d="M232.37 752.84l36.89 0l0 14.52l-36.89 0Z" id="p213w235" />
<path d="M417.47 752.84l10.43 0l0 14.52l-10.43 0Z" id="p213w236" />
<path d="M431.11 752.84l13.36 0l0 14.52l-13.36 0Z" id="p213w237" />
<path d="M447.67 752.84l31.01 0l0 14.52l-31.01 0Z" id="p213w238" />
<path d="M481.88 752.84l20.85 0l0 14.52l-20.85 0Z" id="p213w239" />
<path d="M505.95 752.84l9.62 0l0 14.52l-9.62 0Z" id="p213w240" />
<path d="M518.78 752.84l35.56 0l0 14.52l-35.56 0Z" id="p213w241" />
<path d="M557.54 752.84l12.57 0l0 14.52l-12.57 0Z" id="p213w242" />
<path d="M573.32 752.84l47.57 0l0 14.52l-47.57 0Z" id="p213w243" />
<path d="M432.86 769.53l39.81 0l0 14.61l-39.81 0Z" id="p213w244" />
<path d="M59.08 824.72l14.31 0l0 14.6l-14.31 0Z" id="p213w245" />
<path d="M76.59 824.72l36.73 0l0 14.6l-36.73 0Z" id="p213w246" />
<path d="M116.63 823.48l38.4 0l0 16.35l-38.4 0Z" id="p213w247" />
<path d="M232.37 824.8l17.11 0l0 14.52l-17.11 0Z" id="p213w248" />
<path d="M252.69 824.8l99.48 0l0 14.52l-99.48 0Z" id="p213w249" />
<path d="M232.37 841.47l17.11 0l0 14.52l-17.11 0Z" id="p213w250" />
<path d="M252.69 841.47l41.89 0l0 14.52l-41.89 0Z" id="p213w251" />
<path d="M417.48 824.8l6.96 0l0 14.52l-6.96 0Z" id="p213w252" />
<path d="M427.64 824.8l16.83 0l0 14.52l-16.83 0Z" id="p213w253" />
<path d="M447.68 824.8l44.11 0l0 14.52l-44.11 0Z" id="p213w254" />
<path d="M495 824.8l13.9 0l0 14.52l-13.9 0Z" id="p213w255" />
<path d="M512.11 824.8l36.63 0l0 14.52l-36.63 0Z" id="p213w256" />
<path d="M551.94 824.8l26.19 0l0 14.52l-26.19 0Z" id="p213w257" />
<path d="M581.34 824.8l19.79 0l0 14.52l-19.79 0Z" id="p213w258" />
<path d="M604.33 824.8l22.45 0l0 14.52l-22.45 0Z" id="p213w259" />
<path d="M417.48 841.47l39.03 0l0 14.52l-39.03 0Z" id="p213w260" />
<path d="M435.7 858.16l20.84 0l0 14.61l-20.84 0Z" id="p213w261" />
<path d="M459.75 858.16l29.05 0l0 14.61l-29.05 0Z" id="p213w262" />
<path d="M59.07 876.21l14.31 0l0 14.6l-14.31 0Z" id="p213w263" />
<path d="M76.59 876.21l38.74 0l0 14.6l-38.74 0Z" id="p213w264" />
<path d="M118.63 874.97l40.76 0l0 16.35l-40.76 0Z" id="p213w265" />
<path d="M232.37 876.29l17.11 0l0 14.52l-17.11 0Z" id="p213w266" />
<path d="M252.68 876.29l21.61 0l0 14.52l-21.61 0Z" id="p213w267" />
<path d="M277.5 876.29l17.11 0l0 14.52l-17.11 0Z" id="p213w268" />
<path d="M297.81 876.29l54.46 0l0 14.52l-54.46 0Z" id="p213w269" />
<path d="M417.47 876.29l10.43 0l0 14.52l-10.43 0Z" id="p213w270" />
<path d="M431.11 876.29l11.22 0l0 14.52l-11.22 0Z" id="p213w271" />
<path d="M445.54 876.29l35.29 0l0 14.52l-35.29 0Z" id="p213w272" />
<path d="M484.04 876.29l14.18 0l0 14.52l-14.18 0Z" id="p213w273" />
<path d="M501.42 876.29l38.77 0l0 14.52l-38.77 0Z" id="p213w274" />
<path d="M549.81 876.29l33.66 0l0 14.52l-33.66 0Z" id="p213w275" />
<path d="M586.68 876.29l13.9 0l0 14.52l-13.9 0Z" id="p213w276" />
<path d="M417.47 892.96l11.22 0l0 14.52l-11.22 0Z" id="p213w277" />
<path d="M431.9 892.96l48.65 0l0 14.52l-48.65 0Z" id="p213w278" />
<path d="M59.07 911.03l77.99 0l0 14.6l-77.99 0Z" id="p213w279" />
<path d="M140.37 909.79l73.96 0l0 16.35l-73.96 0Z" id="p213w280" />
<path d="M232.37 911.11l54.66 0l0 14.52l-54.66 0Z" id="p213w281" />
<path d="M435.2 915.42l40.09 0l0 14.61l-40.09 0Z" id="p213w282" />
</svg>
