<?xml version="1.0" encoding="UTF-8"?>
<svg xmlns="http://www.w3.org/2000/svg" xmlns:xlink="http://www.w3.org/1999/xlink" version="1.1" baseProfile="full" width="768" height="1024" viewBox="0,0,768,1024" preserveAspectRatio="xMinYMin meet" >
<style type="text/css">
<![CDATA[
path {fill-opacity: 0.5;fill: #00aeef;visibility: hidden;}
]]>
</style>
<path d="M76.9 983.66l115.12 0l0 12.23l-115.12 0Z" id="p258w1" />
<path d="M124.06 38.6l77.83 0l0 16.09l-77.83 0Z" id="p258w2" />
<path d="M124.06 112.51l14.41 0l0 12.23l-14.41 0Z" id="p258w3" />
<path d="M141.17 112.45l52.92 0l0 12.29l-52.92 0Z" id="p258w4" />
<path d="M196.79 112.51l11.94 0l0 12.23l-11.94 0Z" id="p258w5" />
<path d="M211.43 112.51l51.76 0l0 12.23l-51.76 0Z" id="p258w6" />
<path d="M265.89 112.26l15.34 0l0 12.56l-15.34 0Z" id="p258w7" />
<path d="M124.06 127.74l53.24 0l0 12.29l-53.24 0Z" id="p258w8" />
<path d="M180 127.79l115.1 0l0 12.23l-115.1 0Z" id="p258w9" />
<path d="M133.91 142.83l18.17 0l0 12.56l-18.17 0Z" id="p258w10" />
<path d="M124.06 158.36l16.9 0l0 12.23l-16.9 0Z" id="p258w11" />
<path d="M143.66 158.3l61.54 0l0 12.29l-61.54 0Z" id="p258w12" />
<path d="M207.9 158.36l46.57 0l0 12.23l-46.57 0Z" id="p258w13" />
<path d="M257.18 158.36l12.16 0l0 12.23l-12.16 0Z" id="p258w14" />
<path d="M272.04 158.11l15.54 0l0 12.56l-15.54 0Z" id="p258w15" />
<path d="M133.91 173.64l18.46 0l0 12.23l-18.46 0Z" id="p258w16" />
<path d="M155.07 173.64l13.28 0l0 12.23l-13.28 0Z" id="p258w17" />
<path d="M171.06 173.64l19.44 0l0 12.23l-19.44 0Z" id="p258w18" />
<path d="M193.2 173.64l60.98 0l0 12.23l-60.98 0Z" id="p258w19" />
<path d="M133.91 188.93l53.32 0l0 12.23l-53.32 0Z" id="p258w20" />
<path d="M198.26 188.93l11.04 0l0 12.23l-11.04 0Z" id="p258w21" />
<path d="M211.99 188.68l18.92 0l0 12.56l-18.92 0Z" id="p258w22" />
<path d="M124.06 204.15l61.21 0l0 12.29l-61.21 0Z" id="p258w23" />
<path d="M187.97 204.21l64.71 0l0 12.23l-64.71 0Z" id="p258w24" />
<path d="M133.91 219.49l143.16 0l0 12.23l-143.16 0Z" id="p258w25" />
<path d="M133.91 234.78l70.89 0l0 12.23l-70.89 0Z" id="p258w26" />
<path d="M207.5 234.53l18.01 0l0 12.56l-18.01 0Z" id="p258w27" />
<path d="M124.06 250.06l16.43 0l0 12.23l-16.43 0Z" id="p258w28" />
<path d="M143.19 250l38.48 0l0 12.29l-38.48 0Z" id="p258w29" />
<path d="M184.37 250.06l38.04 0l0 12.23l-38.04 0Z" id="p258w30" />
<path d="M246.26 249.81l15.54 0l0 12.56l-15.54 0Z" id="p258w31" />
<path d="M133.91 265.34l19.44 0l0 12.23l-19.44 0Z" id="p258w32" />
<path d="M156.05 265.34l13.5 0l0 12.23l-13.5 0Z" id="p258w33" />
<path d="M172.26 265.34l38.04 0l0 12.23l-38.04 0Z" id="p258w34" />
<path d="M212.99 265.34l31.28 0l0 12.23l-31.28 0Z" id="p258w35" />
<path d="M246.97 265.34l29.93 0l0 12.23l-29.93 0Z" id="p258w36" />
<path d="M279.61 265.34l11.04 0l0 12.23l-11.04 0Z" id="p258w37" />
<path d="M133.91 280.38l18.01 0l0 12.56l-18.01 0Z" id="p258w38" />
<path d="M124.06 295.91l14.41 0l0 12.23l-14.41 0Z" id="p258w39" />
<path d="M141.17 295.85l44.53 0l0 12.29l-44.53 0Z" id="p258w40" />
<path d="M188.4 295.91l17.56 0l0 12.23l-17.56 0Z" id="p258w41" />
<path d="M208.66 295.91l43.88 0l0 12.23l-43.88 0Z" id="p258w42" />
<path d="M255.24 295.66l18.92 0l0 12.56l-18.92 0Z" id="p258w43" />
<path d="M124.06 311.19l16.9 0l0 12.23l-16.9 0Z" id="p258w44" />
<path d="M143.66 311.14l55.77 0l0 12.29l-55.77 0Z" id="p258w45" />
<path d="M202.12 311.19l53.33 0l0 12.23l-53.33 0Z" id="p258w46" />
<path d="M258.16 311.19l12.16 0l0 12.23l-12.16 0Z" id="p258w47" />
<path d="M273.02 310.95l18.92 0l0 12.56l-18.92 0Z" id="p258w48" />
<path d="M124.06 326.48l38.6 0l0 12.23l-38.6 0Z" id="p258w49" />
<path d="M165.37 326.42l22.09 0l0 12.29l-22.09 0Z" id="p258w50" />
<path d="M190.15 326.45l43.46 0l0 12.23l-43.46 0Z" id="p258w51" />
<path d="M235.95 326.45l56.73 0l0 12.23l-56.73 0Z" id="p258w52" />
<path d="M295.38 326.45l8.56 0l0 12.23l-8.56 0Z" id="p258w53" />
<path d="M133.91 341.74l39.19 0l0 12.23l-39.19 0Z" id="p258w54" />
<path d="M175.8 341.76l33.67 0l0 12.23l-33.67 0Z" id="p258w55" />
<path d="M212.17 341.76l21.62 0l0 12.23l-21.62 0Z" id="p258w56" />
<path d="M236.49 341.52l18.92 0l0 12.56l-18.92 0Z" id="p258w57" />
<path d="M124.06 395.2l8.45 0l0 12.29l-8.45 0Z" id="p258w58" />
<path d="M135.21 395.25l14.42 0l0 12.23l-14.42 0Z" id="p258w59" />
<path d="M152.33 395.01l13.88 0l0 12.56l-13.88 0Z" id="p258w60" />
<path d="M124.06 410.53l14.41 0l0 12.23l-14.41 0Z" id="p258w61" />
<path d="M141.17 410.48l18.88 0l0 12.29l-18.88 0Z" id="p258w62" />
<path d="M162.75 410.53l11.94 0l0 12.23l-11.94 0Z" id="p258w63" />
<path d="M177.39 410.53l11.7 0l0 12.23l-11.7 0Z" id="p258w64" />
<path d="M191.8 410.29l14.79 0l0 12.56l-14.79 0Z" id="p258w65" />
<path d="M222.1 410.53l17.56 0l0 12.23l-17.56 0Z" id="p258w66" />
<path d="M242.36 410.53l29.03 0l0 12.23l-29.03 0Z" id="p258w67" />
<path d="M274.09 410.29l15.54 0l0 12.56l-15.54 0Z" id="p258w68" />
<path d="M133.91 425.82l14.19 0l0 12.23l-14.19 0Z" id="p258w69" />
<path d="M150.8 425.82l14.86 0l0 12.23l-14.86 0Z" id="p258w70" />
<path d="M180.83 425.82l24.31 0l0 12.23l-24.31 0Z" id="p258w71" />
<path d="M207.84 425.82l14.41 0l0 12.23l-14.41 0Z" id="p258w72" />
<path d="M224.94 425.82l13.14 0l0 12.23l-13.14 0Z" id="p258w73" />
<path d="M253.24 425.82l18.68 0l0 12.23l-18.68 0Z" id="p258w74" />
<path d="M274.63 425.57l14.79 0l0 12.56l-14.79 0Z" id="p258w75" />
<path d="M133.91 441.1l41.64 0l0 12.23l-41.64 0Z" id="p258w76" />
<path d="M178.25 441.1l18.68 0l0 12.23l-18.68 0Z" id="p258w77" />
<path d="M199.63 441.1l33.39 0l0 12.23l-33.39 0Z" id="p258w78" />
<path d="M235.72 441.1l46.61 0l0 12.23l-46.61 0Z" id="p258w79" />
<path d="M133.91 456.14l15.54 0l0 12.56l-15.54 0Z" id="p258w80" />
<path d="M124.06 471.67l20.03 0l0 12.23l-20.03 0Z" id="p258w81" />
<path d="M146.79 471.61l46.44 0l0 12.29l-46.44 0Z" id="p258w82" />
<path d="M195.93 471.67l17.56 0l0 12.23l-17.56 0Z" id="p258w83" />
<path d="M216.2 471.67l29.71 0l0 12.23l-29.71 0Z" id="p258w84" />
<path d="M248.61 471.42l18.92 0l0 12.56l-18.92 0Z" id="p258w85" />
<path d="M124.06 486.9l44.56 0l0 12.29l-44.56 0Z" id="p258w86" />
<path d="M171.32 486.95l88.13 0l0 12.23l-88.13 0Z" id="p258w87" />
<path d="M262.16 486.71l18.92 0l0 12.56l-18.92 0Z" id="p258w88" />
<path d="M124.06 502.24l15.53 0l0 12.23l-15.53 0Z" id="p258w89" />
<path d="M142.29 502.18l18.48 0l0 12.29l-18.48 0Z" id="p258w90" />
<path d="M163.48 502.24l8.33 0l0 12.23l-8.33 0Z" id="p258w91" />
<path d="M174.5 502.24l18.02 0l0 12.23l-18.02 0Z" id="p258w92" />
<path d="M195.22 501.99l15.34 0l0 12.56l-15.34 0Z" id="p258w93" />
<path d="M124.06 517.52l20.03 0l0 12.23l-20.03 0Z" id="p258w94" />
<path d="M146.79 517.46l25.44 0l0 12.29l-25.44 0Z" id="p258w95" />
<path d="M174.94 517.52l11.94 0l0 12.23l-11.94 0Z" id="p258w96" />
<path d="M189.57 517.52l19.81 0l0 12.23l-19.81 0Z" id="p258w97" />
<path d="M212.08 517.27l15.34 0l0 12.56l-15.34 0Z" id="p258w98" />
<path d="M124.06 532.75l20.12 0l0 12.29l-20.12 0Z" id="p258w99" />
<path d="M146.88 532.75l32.75 0l0 12.29l-32.75 0Z" id="p258w100" />
<path d="M182.33 532.8l23.19 0l0 12.23l-23.19 0Z" id="p258w101" />
<path d="M208.21 532.8l11.7 0l0 12.23l-11.7 0Z" id="p258w102" />
<path d="M222.62 532.56l15.54 0l0 12.56l-15.54 0Z" id="p258w103" />
<path d="M124.06 548.03l24.02 0l0 12.29l-24.02 0Z" id="p258w104" />
<path d="M150.78 548.09l19.36 0l0 12.23l-19.36 0Z" id="p258w105" />
<path d="M172.85 548.09l8.33 0l0 12.23l-8.33 0Z" id="p258w106" />
<path d="M183.87 548.09l32.87 0l0 12.23l-32.87 0Z" id="p258w107" />
<path d="M219.44 547.84l19.58 0l0 12.56l-19.58 0Z" id="p258w108" />
<path d="M124.06 563.31l24.02 0l0 12.29l-24.02 0Z" id="p258w109" />
<path d="M152.25 563.31l20.12 0l0 12.29l-20.12 0Z" id="p258w110" />
<path d="M176.54 563.31l24.95 0l0 12.29l-24.95 0Z" id="p258w111" />
<path d="M204.19 563.37l76.91 0l0 12.23l-76.91 0Z" id="p258w112" />
<path d="M133.91 578.41l18.92 0l0 12.56l-18.92 0Z" id="p258w113" />
<path d="M124.06 593.88l24.02 0l0 12.29l-24.02 0Z" id="p258w114" />
<path d="M152.25 593.88l20.12 0l0 12.29l-20.12 0Z" id="p258w115" />
<path d="M176.54 593.88l24.95 0l0 12.29l-24.95 0Z" id="p258w116" />
<path d="M212.29 593.91l33.53 0l0 12.23l-33.53 0Z" id="p258w117" />
<path d="M248.53 593.94l34.22 0l0 12.23l-34.22 0Z" id="p258w118" />
<path d="M133.91 608.97l15.34 0l0 12.56l-15.34 0Z" id="p258w119" />
<path d="M124.06 624.45l17.33 0l0 12.29l-17.33 0Z" id="p258w120" />
<path d="M144.09 624.48l25.65 0l0 12.23l-25.65 0Z" id="p258w121" />
<path d="M172.45 624.5l33.99 0l0 12.23l-33.99 0Z" id="p258w122" />
<path d="M209.14 624.48l27.91 0l0 12.23l-27.91 0Z" id="p258w123" />
<path d="M239.75 624.26l15.54 0l0 12.56l-15.54 0Z" id="p258w124" />
<path d="M124.06 639.73l35.47 0l0 12.29l-35.47 0Z" id="p258w125" />
<path d="M162.23 639.79l46.16 0l0 12.23l-46.16 0Z" id="p258w126" />
<path d="M211.09 639.54l19.58 0l0 12.56l-19.58 0Z" id="p258w127" />
<path d="M124.06 655.01l21.12 0l0 12.29l-21.12 0Z" id="p258w128" />
<path d="M147.88 655.07l54.69 0l0 12.23l-54.69 0Z" id="p258w129" />
<path d="M205.27 654.83l15.54 0l0 12.56l-15.54 0Z" id="p258w130" />
<path d="M124.06 670.35l14.41 0l0 12.23l-14.41 0Z" id="p258w131" />
<path d="M141.17 670.3l45.11 0l0 12.29l-45.11 0Z" id="p258w132" />
<path d="M186.27 670.35l24.2 0l0 12.23l-24.2 0Z" id="p258w133" />
<path d="M213.17 670.3l54 0l0 12.29l-54 0Z" id="p258w134" />
<path d="M269.87 670.35l11.94 0l0 12.23l-11.94 0Z" id="p258w135" />
<path d="M133.91 685.64l71.03 0l0 12.23l-71.03 0Z" id="p258w136" />
<path d="M207.64 685.64l49.3 0l0 12.23l-49.3 0Z" id="p258w137" />
<path d="M259.63 685.39l18.92 0l0 12.56l-18.92 0Z" id="p258w138" />
<path d="M124.06 700.92l16.43 0l0 12.23l-16.43 0Z" id="p258w139" />
<path d="M143.19 700.86l21.14 0l0 12.29l-21.14 0Z" id="p258w140" />
<path d="M167.03 700.92l8.33 0l0 12.23l-8.33 0Z" id="p258w141" />
<path d="M178.06 700.92l20.27 0l0 12.23l-20.27 0Z" id="p258w142" />
<path d="M201.03 700.68l18.72 0l0 12.56l-18.72 0Z" id="p258w143" />
<path d="M124.06 716.2l20.03 0l0 12.23l-20.03 0Z" id="p258w144" />
<path d="M146.79 716.15l75.52 0l0 12.29l-75.52 0Z" id="p258w145" />
<path d="M225.01 716.2l17.56 0l0 12.23l-17.56 0Z" id="p258w146" />
<path d="M245.27 716.2l38.51 0l0 12.23l-38.51 0Z" id="p258w147" />
<path d="M286.49 716.2l11.7 0l0 12.23l-11.7 0Z" id="p258w148" />
<path d="M133.91 731.49l40.74 0l0 12.23l-40.74 0Z" id="p258w149" />
<path d="M177.35 731.24l17.26 0l0 12.56l-17.26 0Z" id="p258w150" />
<path d="M124.06 746.77l14.41 0l0 12.23l-14.41 0Z" id="p258w151" />
<path d="M141.17 746.71l58.72 0l0 12.29l-58.72 0Z" id="p258w152" />
<path d="M199.89 746.77l24.2 0l0 12.23l-24.2 0Z" id="p258w153" />
<path d="M226.79 746.71l54.82 0l0 12.29l-54.82 0Z" id="p258w154" />
<path d="M284.31 746.77l11.94 0l0 12.23l-11.94 0Z" id="p258w155" />
<path d="M133.91 762.05l47.4 0l0 12.23l-47.4 0Z" id="p258w156" />
<path d="M184.01 762.05l25.67 0l0 12.23l-25.67 0Z" id="p258w157" />
<path d="M212.37 761.81l14.63 0l0 12.56l-14.63 0Z" id="p258w158" />
<path d="M232.15 762.05l11.94 0l0 12.23l-11.94 0Z" id="p258w159" />
<path d="M246.78 762.05l39.29 0l0 12.23l-39.29 0Z" id="p258w160" />
<path d="M133.91 777.34l17.56 0l0 12.23l-17.56 0Z" id="p258w161" />
<path d="M154.17 777.31l27.91 0l0 12.23l-27.91 0Z" id="p258w162" />
<path d="M196.49 777.31l11.93 0l0 12.23l-11.93 0Z" id="p258w163" />
<path d="M211.12 777.31l71.77 0l0 12.23l-71.77 0Z" id="p258w164" />
<path d="M133.91 792.6l59.12 0l0 12.23l-59.12 0Z" id="p258w165" />
<path d="M195.73 792.38l18.01 0l0 12.56l-18.01 0Z" id="p258w166" />
<path d="M124.06 807.9l14.41 0l0 12.23l-14.41 0Z" id="p258w167" />
<path d="M141.17 807.85l26.82 0l0 12.29l-26.82 0Z" id="p258w168" />
<path d="M170.69 807.9l11.94 0l0 12.23l-11.94 0Z" id="p258w169" />
<path d="M185.33 807.9l32.37 0l0 12.23l-32.37 0Z" id="p258w170" />
<path d="M220.4 807.66l15.54 0l0 12.56l-15.54 0Z" id="p258w171" />
<path d="M124.06 861.4l14.41 0l0 12.23l-14.41 0Z" id="p258w172" />
<path d="M141.17 861.34l26.53 0l0 12.29l-26.53 0Z" id="p258w173" />
<path d="M170.4 861.4l11.94 0l0 12.23l-11.94 0Z" id="p258w174" />
<path d="M185.04 861.4l24.99 0l0 12.23l-24.99 0Z" id="p258w175" />
<path d="M212.73 861.15l18.92 0l0 12.56l-18.92 0Z" id="p258w176" />
<path d="M124.06 876.68l14.41 0l0 12.23l-14.41 0Z" id="p258w177" />
<path d="M141.17 876.62l30.67 0l0 12.29l-30.67 0Z" id="p258w178" />
<path d="M174.54 876.68l11.94 0l0 12.23l-11.94 0Z" id="p258w179" />
<path d="M189.17 876.68l19.81 0l0 12.23l-19.81 0Z" id="p258w180" />
<path d="M211.68 876.43l14.79 0l0 12.56l-14.79 0Z" id="p258w181" />
<path d="M124.06 891.96l15.53 0l0 12.23l-15.53 0Z" id="p258w182" />
<path d="M142.29 891.91l26.11 0l0 12.29l-26.11 0Z" id="p258w183" />
<path d="M171.1 891.96l8.33 0l0 12.23l-8.33 0Z" id="p258w184" />
<path d="M182.13 891.96l26.57 0l0 12.23l-26.57 0Z" id="p258w185" />
<path d="M211.39 891.72l18.01 0l0 12.56l-18.01 0Z" id="p258w186" />
<path d="M124.06 907.25l16.43 0l0 12.23l-16.43 0Z" id="p258w187" />
<path d="M143.19 907.19l57.05 0l0 12.29l-57.05 0Z" id="p258w188" />
<path d="M202.95 907.25l8.33 0l0 12.23l-8.33 0Z" id="p258w189" />
<path d="M213.97 907.25l26.57 0l0 12.23l-26.57 0Z" id="p258w190" />
<path d="M243.24 907l18.01 0l0 12.56l-18.01 0Z" id="p258w191" />
<path d="M124.06 922.53l14.41 0l0 12.23l-14.41 0Z" id="p258w192" />
<path d="M141.17 922.47l42.12 0l0 12.29l-42.12 0Z" id="p258w193" />
<path d="M185.98 922.53l11.94 0l0 12.23l-11.94 0Z" id="p258w194" />
<path d="M200.62 922.53l47.04 0l0 12.23l-47.04 0Z" id="p258w195" />
<path d="M250.36 922.28l18.92 0l0 12.56l-18.92 0Z" id="p258w196" />
<path d="M124.06 937.76l18.04 0l0 12.29l-18.04 0Z" id="p258w197" />
<path d="M144.8 937.81l53.48 0l0 12.23l-53.48 0Z" id="p258w198" />
<path d="M200.98 937.57l15.54 0l0 12.56l-15.54 0Z" id="p258w199" />
<path d="M335.43 112.51l10.58 0l0 12.23l-10.58 0Z" id="p258w200" />
<path d="M348.71 112.51l11.25 0l0 12.23l-11.25 0Z" id="p258w201" />
<path d="M362.66 112.51l19.58 0l0 12.23l-19.58 0Z" id="p258w202" />
<path d="M384.95 112.51l5.86 0l0 12.23l-5.86 0Z" id="p258w203" />
<path d="M393.51 112.51l15.75 0l0 12.23l-15.75 0Z" id="p258w204" />
<path d="M411.96 112.51l24.1 0l0 12.23l-24.1 0Z" id="p258w205" />
<path d="M438.76 112.26l15.54 0l0 12.56l-15.54 0Z" id="p258w206" />
<path d="M325.58 127.79l20.03 0l0 12.23l-20.03 0Z" id="p258w207" />
<path d="M348.31 127.74l36.44 0l0 12.29l-36.44 0Z" id="p258w208" />
<path d="M387.45 127.79l17.56 0l0 12.23l-17.56 0Z" id="p258w209" />
<path d="M407.71 127.79l34.66 0l0 12.23l-34.66 0Z" id="p258w210" />
<path d="M445.07 127.55l14.41 0l0 12.56l-14.41 0Z" id="p258w211" />
<path d="M325.58 143.08l20.03 0l0 12.23l-20.03 0Z" id="p258w212" />
<path d="M348.31 143.02l50.55 0l0 12.29l-50.55 0Z" id="p258w213" />
<path d="M401.56 143.08l17.56 0l0 12.23l-17.56 0Z" id="p258w214" />
<path d="M421.83 143.08l49.24 0l0 12.23l-49.24 0Z" id="p258w215" />
<path d="M473.77 142.83l18.92 0l0 12.56l-18.92 0Z" id="p258w216" />
<path d="M325.58 158.36l14.41 0l0 12.23l-14.41 0Z" id="p258w217" />
<path d="M342.69 158.3l26.54 0l0 12.29l-26.54 0Z" id="p258w218" />
<path d="M371.93 158.36l17.56 0l0 12.23l-17.56 0Z" id="p258w219" />
<path d="M392.19 158.36l31.07 0l0 12.23l-31.07 0Z" id="p258w220" />
<path d="M425.96 158.11l18.92 0l0 12.56l-18.92 0Z" id="p258w221" />
<path d="M325.58 173.64l20.03 0l0 12.23l-20.03 0Z" id="p258w222" />
<path d="M348.31 173.59l36.56 0l0 12.29l-36.56 0Z" id="p258w223" />
<path d="M387.57 173.64l17.56 0l0 12.23l-17.56 0Z" id="p258w224" />
<path d="M407.83 173.64l34.89 0l0 12.23l-34.89 0Z" id="p258w225" />
<path d="M445.42 173.4l14.63 0l0 12.56l-14.63 0Z" id="p258w226" />
<path d="M325.58 188.93l14.41 0l0 12.23l-14.41 0Z" id="p258w227" />
<path d="M342.69 188.87l24.06 0l0 12.29l-24.06 0Z" id="p258w228" />
<path d="M369.45 188.93l11.94 0l0 12.23l-11.94 0Z" id="p258w229" />
<path d="M384.09 188.93l26.34 0l0 12.23l-26.34 0Z" id="p258w230" />
<path d="M413.13 188.68l18.01 0l0 12.56l-18.01 0Z" id="p258w231" />
<path d="M325.58 204.21l20.03 0l0 12.23l-20.03 0Z" id="p258w232" />
<path d="M348.31 204.15l29.76 0l0 12.29l-29.76 0Z" id="p258w233" />
<path d="M380.77 204.21l17.56 0l0 12.23l-17.56 0Z" id="p258w234" />
<path d="M401.03 204.21l46.14 0l0 12.23l-46.14 0Z" id="p258w235" />
<path d="M449.87 203.96l15.34 0l0 12.56l-15.34 0Z" id="p258w236" />
<path d="M325.58 219.44l31.12 0l0 12.29l-31.12 0Z" id="p258w237" />
<path d="M359.4 219.47l25.65 0l0 12.23l-25.65 0Z" id="p258w238" />
<path d="M387.76 219.49l60.21 0l0 12.23l-60.21 0Z" id="p258w239" />
<path d="M450.67 219.47l27.91 0l0 12.23l-27.91 0Z" id="p258w240" />
<path d="M335.43 234.53l18.17 0l0 12.56l-18.17 0Z" id="p258w241" />
<path d="M325.58 250.06l16.43 0l0 12.23l-16.43 0Z" id="p258w242" />
<path d="M344.71 250l38.67 0l0 12.29l-38.67 0Z" id="p258w243" />
<path d="M386.08 250.06l8.33 0l0 12.23l-8.33 0Z" id="p258w244" />
<path d="M397.11 250.06l36.69 0l0 12.23l-36.69 0Z" id="p258w245" />
<path d="M436.5 249.81l15.54 0l0 12.56l-15.54 0Z" id="p258w246" />
<path d="M325.58 265.34l15.53 0l0 12.23l-15.53 0Z" id="p258w247" />
<path d="M343.81 265.29l41.12 0l0 12.29l-41.12 0Z" id="p258w248" />
<path d="M387.63 265.34l8.33 0l0 12.23l-8.33 0Z" id="p258w249" />
<path d="M398.65 265.34l39.47 0l0 12.23l-39.47 0Z" id="p258w250" />
<path d="M440.82 265.1l18.01 0l0 12.56l-18.01 0Z" id="p258w251" />
<path d="M325.58 280.63l20.03 0l0 12.23l-20.03 0Z" id="p258w252" />
<path d="M348.31 280.57l41.55 0l0 12.29l-41.55 0Z" id="p258w253" />
<path d="M392.56 280.63l17.56 0l0 12.23l-17.56 0Z" id="p258w254" />
<path d="M412.82 280.63l36.01 0l0 12.23l-36.01 0Z" id="p258w255" />
<path d="M451.54 280.63l11.7 0l0 12.23l-11.7 0Z" id="p258w256" />
<path d="M465.94 280.63l22.72 0l0 12.23l-22.72 0Z" id="p258w257" />
<path d="M335.43 295.66l18.92 0l0 12.56l-18.92 0Z" id="p258w258" />
<path d="M325.58 311.19l15.53 0l0 12.23l-15.53 0Z" id="p258w259" />
<path d="M343.81 311.14l22.47 0l0 12.29l-22.47 0Z" id="p258w260" />
<path d="M368.99 311.19l8.33 0l0 12.23l-8.33 0Z" id="p258w261" />
<path d="M380.01 311.19l39.56 0l0 12.23l-39.56 0Z" id="p258w262" />
<path d="M422.27 310.95l14.63 0l0 12.56l-14.63 0Z" id="p258w263" />
<path d="M325.58 326.48l20.03 0l0 12.23l-20.03 0Z" id="p258w264" />
<path d="M348.31 326.42l27.31 0l0 12.29l-27.31 0Z" id="p258w265" />
<path d="M378.32 326.48l17.56 0l0 12.23l-17.56 0Z" id="p258w266" />
<path d="M398.59 326.48l28.35 0l0 12.23l-28.35 0Z" id="p258w267" />
<path d="M429.64 326.23l15.34 0l0 12.56l-15.34 0Z" id="p258w268" />
<path d="M325.58 341.76l20.03 0l0 12.23l-20.03 0Z" id="p258w269" />
<path d="M348.31 341.7l57.81 0l0 12.29l-57.81 0Z" id="p258w270" />
<path d="M408.82 341.76l17.56 0l0 12.23l-17.56 0Z" id="p258w271" />
<path d="M429.09 341.76l20.03 0l0 12.23l-20.03 0Z" id="p258w272" />
<path d="M451.82 341.74l27.91 0l0 12.23l-27.91 0Z" id="p258w273" />
<path d="M335.43 356.8l18.92 0l0 12.56l-18.92 0Z" id="p258w274" />
<path d="M335.43 372.33l17.33 0l0 12.23l-17.33 0Z" id="p258w275" />
<path d="M355.46 372.33l11.25 0l0 12.23l-11.25 0Z" id="p258w276" />
<path d="M369.41 372.33l20.03 0l0 12.23l-20.03 0Z" id="p258w277" />
<path d="M392.14 372.33l60.1 0l0 12.23l-60.1 0Z" id="p258w278" />
<path d="M454.94 372.33l22.05 0l0 12.23l-22.05 0Z" id="p258w279" />
<path d="M479.69 372.33l8.33 0l0 12.23l-8.33 0Z" id="p258w280" />
<path d="M335.43 387.61l55.82 0l0 12.23l-55.82 0Z" id="p258w281" />
<path d="M399.81 387.37l15.54 0l0 12.56l-15.54 0Z" id="p258w282" />
<path d="M325.58 402.89l20.03 0l0 12.23l-20.03 0Z" id="p258w283" />
<path d="M348.31 402.84l45.65 0l0 12.29l-45.65 0Z" id="p258w284" />
<path d="M396.66 402.89l17.56 0l0 12.23l-17.56 0Z" id="p258w285" />
<path d="M416.93 402.89l44.06 0l0 12.23l-44.06 0Z" id="p258w286" />
<path d="M463.69 402.65l15.34 0l0 12.56l-15.34 0Z" id="p258w287" />
<path d="M325.58 418.18l20.03 0l0 12.23l-20.03 0Z" id="p258w288" />
<path d="M348.31 418.12l51.7 0l0 12.29l-51.7 0Z" id="p258w289" />
<path d="M402.71 418.18l17.56 0l0 12.23l-17.56 0Z" id="p258w290" />
<path d="M422.97 418.18l49.74 0l0 12.23l-49.74 0Z" id="p258w291" />
<path d="M475.41 417.93l17.26 0l0 12.56l-17.26 0Z" id="p258w292" />
<path d="M325.58 433.46l20.03 0l0 12.23l-20.03 0Z" id="p258w293" />
<path d="M348.31 433.4l26.38 0l0 12.29l-26.38 0Z" id="p258w294" />
<path d="M377.39 433.46l11.94 0l0 12.23l-11.94 0Z" id="p258w295" />
<path d="M392.03 433.46l20.49 0l0 12.23l-20.49 0Z" id="p258w296" />
<path d="M415.21 433.22l15.54 0l0 12.56l-15.54 0Z" id="p258w297" />
<path d="M325.58 448.74l19.44 0l0 12.23l-19.44 0Z" id="p258w298" />
<path d="M347.72 448.69l32.66 0l0 12.29l-32.66 0Z" id="p258w299" />
<path d="M383.08 448.74l35.56 0l0 12.23l-35.56 0Z" id="p258w300" />
<path d="M421.34 448.74l11.04 0l0 12.23l-11.04 0Z" id="p258w301" />
<path d="M435.08 448.5l15.54 0l0 12.56l-15.54 0Z" id="p258w302" />
<path d="M325.58 463.97l20.16 0l0 12.29l-20.16 0Z" id="p258w303" />
<path d="M349.91 463.97l25.79 0l0 12.29l-25.79 0Z" id="p258w304" />
<path d="M378.4 464.03l24.75 0l0 12.23l-24.75 0Z" id="p258w305" />
<path d="M405.85 464.03l22.92 0l0 12.23l-22.92 0Z" id="p258w306" />
<path d="M431.47 464.03l19.36 0l0 12.23l-19.36 0Z" id="p258w307" />
<path d="M453.54 464.03l11.7 0l0 12.23l-11.7 0Z" id="p258w308" />
<path d="M467.94 463.78l15.54 0l0 12.56l-15.54 0Z" id="p258w309" />
<path d="M325.58 479.25l26.52 0l0 12.29l-26.52 0Z" id="p258w310" />
<path d="M354.8 479.31l38.9 0l0 12.23l-38.9 0Z" id="p258w311" />
<path d="M396.41 479.31l8.78 0l0 12.23l-8.78 0Z" id="p258w312" />
<path d="M407.89 479.31l11.7 0l0 12.23l-11.7 0Z" id="p258w313" />
<path d="M422.29 479.31l17.77 0l0 12.23l-17.77 0Z" id="p258w314" />
<path d="M442.77 479.31l18.68 0l0 12.23l-18.68 0Z" id="p258w315" />
<path d="M464.15 479.07l15.54 0l0 12.56l-15.54 0Z" id="p258w316" />
<path d="M325.58 494.59l14.41 0l0 12.23l-14.41 0Z" id="p258w317" />
<path d="M342.69 494.54l33.23 0l0 12.29l-33.23 0Z" id="p258w318" />
<path d="M375.92 494.59l24.2 0l0 12.23l-24.2 0Z" id="p258w319" />
<path d="M402.82 494.54l42.13 0l0 12.29l-42.13 0Z" id="p258w320" />
<path d="M447.65 494.59l11.94 0l0 12.23l-11.94 0Z" id="p258w321" />
<path d="M462.29 494.59l38.83 0l0 12.23l-38.83 0Z" id="p258w322" />
<path d="M335.43 509.88l17.56 0l0 12.23l-17.56 0Z" id="p258w323" />
<path d="M355.69 509.88l41.18 0l0 12.23l-41.18 0Z" id="p258w324" />
<path d="M399.57 509.63l18.72 0l0 12.56l-18.72 0Z" id="p258w325" />
<path d="M325.58 525.16l40.5 0l0 12.23l-40.5 0Z" id="p258w326" />
<path d="M368.79 525.11l35.14 0l0 12.29l-35.14 0Z" id="p258w327" />
<path d="M406.62 525.16l44.57 0l0 12.23l-44.57 0Z" id="p258w328" />
<path d="M453.89 525.16l27.37 0l0 12.23l-27.37 0Z" id="p258w329" />
<path d="M335.43 540.2l15.54 0l0 12.56l-15.54 0Z" id="p258w330" />
<path d="M335.43 555.73l18.46 0l0 12.23l-18.46 0Z" id="p258w331" />
<path d="M356.59 555.73l34.67 0l0 12.23l-34.67 0Z" id="p258w332" />
<path d="M393.96 555.73l10.35 0l0 12.23l-10.35 0Z" id="p258w333" />
<path d="M407.01 555.73l44.57 0l0 12.23l-44.57 0Z" id="p258w334" />
<path d="M454.28 555.48l15.54 0l0 12.56l-15.54 0Z" id="p258w335" />
<path d="M335.43 571.01l19.44 0l0 12.23l-19.44 0Z" id="p258w336" />
<path d="M357.57 571.01l16.65 0l0 12.23l-16.65 0Z" id="p258w337" />
<path d="M376.92 571.01l24.75 0l0 12.23l-24.75 0Z" id="p258w338" />
<path d="M404.15 571.01l65.71 0l0 12.23l-65.71 0Z" id="p258w339" />
<path d="M472.57 571.01l34.67 0l0 12.23l-34.67 0Z" id="p258w340" />
<path d="M335.43 586.29l44.57 0l0 12.23l-44.57 0Z" id="p258w341" />
<path d="M382.7 586.29l11.04 0l0 12.23l-11.04 0Z" id="p258w342" />
<path d="M396.44 586.29l34.89 0l0 12.23l-34.89 0Z" id="p258w343" />
<path d="M434.03 586.29l10.35 0l0 12.23l-10.35 0Z" id="p258w344" />
<path d="M447.08 586.29l28.6 0l0 12.23l-28.6 0Z" id="p258w345" />
<path d="M478.38 586.05l18.17 0l0 12.56l-18.17 0Z" id="p258w346" />
<path d="M325.58 601.58l18.46 0l0 12.23l-18.46 0Z" id="p258w347" />
<path d="M346.73 601.52l65.26 0l0 12.29l-65.26 0Z" id="p258w348" />
<path d="M414.68 601.58l10.35 0l0 12.23l-10.35 0Z" id="p258w349" />
<path d="M427.72 601.58l49.52 0l0 12.23l-49.52 0Z" id="p258w350" />
<path d="M479.93 601.33l18.17 0l0 12.56l-18.17 0Z" id="p258w351" />
<path d="M325.58 616.86l14.41 0l0 12.23l-14.41 0Z" id="p258w352" />
<path d="M342.69 616.81l44.52 0l0 12.29l-44.52 0Z" id="p258w353" />
<path d="M389.9 616.86l11.94 0l0 12.23l-11.94 0Z" id="p258w354" />
<path d="M404.54 616.86l30.61 0l0 12.23l-30.61 0Z" id="p258w355" />
<path d="M437.85 616.62l18.92 0l0 12.56l-18.92 0Z" id="p258w356" />
<path d="M335.43 632.14l14.85 0l0 12.23l-14.85 0Z" id="p258w357" />
<path d="M352.98 632.14l43.76 0l0 12.23l-43.76 0Z" id="p258w358" />
<path d="M399.44 632.14l11.48 0l0 12.23l-11.48 0Z" id="p258w359" />
<path d="M413.62 632.14l30.61 0l0 12.23l-30.61 0Z" id="p258w360" />
<path d="M446.93 631.9l18.92 0l0 12.56l-18.92 0Z" id="p258w361" />
<path d="M325.58 647.43l14.41 0l0 12.23l-14.41 0Z" id="p258w362" />
<path d="M342.68 647.37l46.21 0l0 12.29l-46.21 0Z" id="p258w363" />
<path d="M391.59 647.43l11.94 0l0 12.23l-11.94 0Z" id="p258w364" />
<path d="M406.23 647.43l44.56 0l0 12.23l-44.56 0Z" id="p258w365" />
<path d="M453.49 647.18l18.17 0l0 12.56l-18.17 0Z" id="p258w366" />
<path d="M325.58 662.71l14.41 0l0 12.23l-14.41 0Z" id="p258w367" />
<path d="M342.68 662.66l21.33 0l0 12.29l-21.33 0Z" id="p258w368" />
<path d="M366.72 662.71l11.94 0l0 12.23l-11.94 0Z" id="p258w369" />
<path d="M381.35 662.71l30.83 0l0 12.23l-30.83 0Z" id="p258w370" />
<path d="M414.89 662.47l14.63 0l0 12.56l-14.63 0Z" id="p258w371" />
<path d="M325.58 677.99l20.03 0l0 12.23l-20.03 0Z" id="p258w372" />
<path d="M348.31 677.94l60.96 0l0 12.29l-60.96 0Z" id="p258w373" />
<path d="M411.97 677.99l17.56 0l0 12.23l-17.56 0Z" id="p258w374" />
<path d="M432.23 677.99l31.07 0l0 12.23l-31.07 0Z" id="p258w375" />
<path d="M466 677.75l18.72 0l0 12.56l-18.72 0Z" id="p258w376" />
<path d="M325.58 693.28l14.41 0l0 12.23l-14.41 0Z" id="p258w377" />
<path d="M342.68 693.22l21.12 0l0 12.29l-21.12 0Z" id="p258w378" />
<path d="M366.5 693.28l11.94 0l0 12.23l-11.94 0Z" id="p258w379" />
<path d="M381.14 693.28l34.21 0l0 12.23l-34.21 0Z" id="p258w380" />
<path d="M418.06 693.26l27.2 0l0 12.23l-27.2 0Z" id="p258w381" />
<path d="M447.96 693.26l11.93 0l0 12.23l-11.93 0Z" id="p258w382" />
<path d="M462.58 693.26l22.29 0l0 12.23l-22.29 0Z" id="p258w383" />
<path d="M487.57 693.03l14.63 0l0 12.56l-14.63 0Z" id="p258w384" />
<path d="M325.58 708.56l14.41 0l0 12.23l-14.41 0Z" id="p258w385" />
<path d="M342.68 708.51l25.52 0l0 12.29l-25.52 0Z" id="p258w386" />
<path d="M370.91 708.56l11.94 0l0 12.23l-11.94 0Z" id="p258w387" />
<path d="M385.54 708.56l36.02 0l0 12.23l-36.02 0Z" id="p258w388" />
<path d="M424.27 708.32l19.58 0l0 12.56l-19.58 0Z" id="p258w389" />
<path d="M325.58 723.84l14.41 0l0 12.23l-14.41 0Z" id="p258w390" />
<path d="M342.66 723.79l49.45 0l0 12.29l-49.45 0Z" id="p258w391" />
<path d="M394.79 723.82l25.65 0l0 12.23l-25.65 0Z" id="p258w392" />
<path d="M423.12 723.84l13.05 0l0 12.23l-13.05 0Z" id="p258w393" />
<path d="M438.85 723.84l38.44 0l0 12.23l-38.44 0Z" id="p258w394" />
<path d="M493.23 723.82l14.18 0l0 12.23l-14.18 0Z" id="p258w395" />
<path d="M335.43 739.11l27.91 0l0 12.23l-27.91 0Z" id="p258w396" />
<path d="M366.04 738.88l15.34 0l0 12.56l-15.34 0Z" id="p258w397" />
<path d="M325.58 754.41l15.53 0l0 12.23l-15.53 0Z" id="p258w398" />
<path d="M343.81 754.36l26.79 0l0 12.29l-26.79 0Z" id="p258w399" />
<path d="M373.3 754.41l8.33 0l0 12.23l-8.33 0Z" id="p258w400" />
<path d="M384.32 754.41l16.66 0l0 12.23l-16.66 0Z" id="p258w401" />
<path d="M403.68 754.17l18.92 0l0 12.56l-18.92 0Z" id="p258w402" />
<path d="M325.58 769.64l18 0l0 12.29l-18 0Z" id="p258w403" />
<path d="M346.27 769.7l80.02 0l0 12.23l-80.02 0Z" id="p258w404" />
<path d="M428.99 769.45l18.92 0l0 12.56l-18.92 0Z" id="p258w405" />
<path d="M325.58 784.92l18 0l0 12.29l-18 0Z" id="p258w406" />
<path d="M346.27 784.98l59.19 0l0 12.23l-59.19 0Z" id="p258w407" />
<path d="M408.16 784.73l18.92 0l0 12.56l-18.92 0Z" id="p258w408" />
<path d="M325.58 800.26l20.03 0l0 12.23l-20.03 0Z" id="p258w409" />
<path d="M348.31 800.21l30.12 0l0 12.29l-30.12 0Z" id="p258w410" />
<path d="M381.13 800.26l17.56 0l0 12.23l-17.56 0Z" id="p258w411" />
<path d="M401.39 800.26l28.35 0l0 12.23l-28.35 0Z" id="p258w412" />
<path d="M432.45 800.02l15.54 0l0 12.56l-15.54 0Z" id="p258w413" />
<path d="M335.43 815.55l8.78 0l0 12.23l-8.78 0Z" id="p258w414" />
<path d="M346.91 815.55l15.53 0l0 12.23l-15.53 0Z" id="p258w415" />
<path d="M375.5 815.55l29.48 0l0 12.23l-29.48 0Z" id="p258w416" />
<path d="M407.67 815.55l19.13 0l0 12.23l-19.13 0Z" id="p258w417" />
<path d="M429.5 815.55l18.9 0l0 12.23l-18.9 0Z" id="p258w418" />
<path d="M451.1 815.55l11.7 0l0 12.23l-11.7 0Z" id="p258w419" />
<path d="M465.51 815.55l28.35 0l0 12.23l-28.35 0Z" id="p258w420" />
<path d="M335.43 830.83l11.7 0l0 12.23l-11.7 0Z" id="p258w421" />
<path d="M361.2 830.58l14.63 0l0 12.56l-14.63 0Z" id="p258w422" />
<path d="M325.58 846.11l20.03 0l0 12.23l-20.03 0Z" id="p258w423" />
<path d="M348.31 846.06l64.2 0l0 12.29l-64.2 0Z" id="p258w424" />
<path d="M415.22 846.11l17.56 0l0 12.23l-17.56 0Z" id="p258w425" />
<path d="M435.48 846.11l31.51 0l0 12.23l-31.51 0Z" id="p258w426" />
<path d="M469.69 846.09l27.91 0l0 12.23l-27.91 0Z" id="p258w427" />
<path d="M347.14 861.37l64.22 0l0 12.23l-64.22 0Z" id="p258w428" />
<path d="M414.06 861.15l15.54 0l0 12.56l-15.54 0Z" id="p258w429" />
<path d="M325.58 876.68l15.53 0l0 12.23l-15.53 0Z" id="p258w430" />
<path d="M343.81 876.62l64.07 0l0 12.29l-64.07 0Z" id="p258w431" />
<path d="M407.88 876.68l18.57 0l0 12.23l-18.57 0Z" id="p258w432" />
<path d="M429.15 876.62l72.96 0l0 12.29l-72.96 0Z" id="p258w433" />
<path d="M335.43 891.96l8.33 0l0 12.23l-8.33 0Z" id="p258w434" />
<path d="M346.46 891.96l19.14 0l0 12.23l-19.14 0Z" id="p258w435" />
<path d="M368.3 891.96l53.24 0l0 12.23l-53.24 0Z" id="p258w436" />
<path d="M424.24 891.96l19.14 0l0 12.23l-19.14 0Z" id="p258w437" />
<path d="M446.08 891.96l46.37 0l0 12.23l-46.37 0Z" id="p258w438" />
<path d="M335.43 907l15.54 0l0 12.56l-15.54 0Z" id="p258w439" />
<path d="M325.58 922.53l14.41 0l0 12.23l-14.41 0Z" id="p258w440" />
<path d="M342.69 922.47l71.85 0l0 12.29l-71.85 0Z" id="p258w441" />
<path d="M417.24 922.53l17.56 0l0 12.23l-17.56 0Z" id="p258w442" />
<path d="M437.5 922.53l28.35 0l0 12.23l-28.35 0Z" id="p258w443" />
<path d="M468.56 922.28l15.54 0l0 12.56l-15.54 0Z" id="p258w444" />
<path d="M335.43 937.81l17.56 0l0 12.23l-17.56 0Z" id="p258w445" />
<path d="M355.69 937.81l21.37 0l0 12.23l-21.37 0Z" id="p258w446" />
<path d="M379.77 937.81l11.7 0l0 12.23l-11.7 0Z" id="p258w447" />
<path d="M394.17 937.81l28.35 0l0 12.23l-28.35 0Z" id="p258w448" />
<path d="M425.23 937.57l14.63 0l0 12.56l-14.63 0Z" id="p258w449" />
<path d="M527.1 112.45l42.1 0l0 12.29l-42.1 0Z" id="p258w450" />
<path d="M571.91 112.51l42.99 0l0 12.23l-42.99 0Z" id="p258w451" />
<path d="M617.6 112.26l15.34 0l0 12.56l-15.34 0Z" id="p258w452" />
<path d="M536.95 127.79l14.41 0l0 12.23l-14.41 0Z" id="p258w453" />
<path d="M554.06 127.79l47.04 0l0 12.23l-47.04 0Z" id="p258w454" />
<path d="M603.8 127.79l27.69 0l0 12.23l-27.69 0Z" id="p258w455" />
<path d="M634.19 127.79l8.33 0l0 12.23l-8.33 0Z" id="p258w456" />
<path d="M645.21 127.79l40.07 0l0 12.23l-40.07 0Z" id="p258w457" />
<path d="M536.95 143.08l42.99 0l0 12.23l-42.99 0Z" id="p258w458" />
<path d="M582.64 142.83l15.34 0l0 12.56l-15.34 0Z" id="p258w459" />
<path d="M527.1 158.36l36.91 0l0 12.23l-36.91 0Z" id="p258w460" />
<path d="M566.72 158.3l45.27 0l0 12.29l-45.27 0Z" id="p258w461" />
<path d="M614.69 158.36l44.57 0l0 12.23l-44.57 0Z" id="p258w462" />
<path d="M661.96 158.11l18.92 0l0 12.56l-18.92 0Z" id="p258w463" />
<path d="M527.1 173.64l14.41 0l0 12.23l-14.41 0Z" id="p258w464" />
<path d="M544.21 173.59l23.69 0l0 12.29l-23.69 0Z" id="p258w465" />
<path d="M570.6 173.64l17.56 0l0 12.23l-17.56 0Z" id="p258w466" />
<path d="M590.86 173.64l21.16 0l0 12.23l-21.16 0Z" id="p258w467" />
<path d="M614.72 173.4l18.92 0l0 12.56l-18.92 0Z" id="p258w468" />
<path d="M527.1 188.93l20.03 0l0 12.23l-20.03 0Z" id="p258w469" />
<path d="M549.83 188.87l41.62 0l0 12.29l-41.62 0Z" id="p258w470" />
<path d="M594.15 188.93l17.56 0l0 12.23l-17.56 0Z" id="p258w471" />
<path d="M614.41 188.93l27.01 0l0 12.23l-27.01 0Z" id="p258w472" />
<path d="M644.12 188.68l18.92 0l0 12.56l-18.92 0Z" id="p258w473" />
<path d="M527.1 204.21l14.41 0l0 12.23l-14.41 0Z" id="p258w474" />
<path d="M544.21 204.15l71.46 0l0 12.29l-71.46 0Z" id="p258w475" />
<path d="M618.37 204.21l11.94 0l0 12.23l-11.94 0Z" id="p258w476" />
<path d="M633.01 204.21l45.01 0l0 12.23l-45.01 0Z" id="p258w477" />
<path d="M680.71 203.96l14.43 0l0 12.56l-14.43 0Z" id="p258w478" />
<path d="M527.1 219.44l22.98 0l0 12.29l-22.98 0Z" id="p258w479" />
<path d="M552.78 219.49l53.9 0l0 12.23l-53.9 0Z" id="p258w480" />
<path d="M609.38 219.25l15.54 0l0 12.56l-15.54 0Z" id="p258w481" />
<path d="M527.1 234.72l37.5 0l0 12.29l-37.5 0Z" id="p258w482" />
<path d="M567.31 234.78l37.3 0l0 12.23l-37.3 0Z" id="p258w483" />
<path d="M607.31 234.53l15.54 0l0 12.56l-15.54 0Z" id="p258w484" />
<path d="M527.1 250.06l14.41 0l0 12.23l-14.41 0Z" id="p258w485" />
<path d="M544.21 250l61.32 0l0 12.29l-61.32 0Z" id="p258w486" />
<path d="M608.23 250.06l11.94 0l0 12.23l-11.94 0Z" id="p258w487" />
<path d="M622.87 250.06l59.14 0l0 12.23l-59.14 0Z" id="p258w488" />
<path d="M536.95 265.34l49.3 0l0 12.23l-49.3 0Z" id="p258w489" />
<path d="M588.95 265.1l18.92 0l0 12.56l-18.92 0Z" id="p258w490" />
<path d="M527.1 280.63l10.58 0l0 12.23l-10.58 0Z" id="p258w491" />
<path d="M540.38 280.57l35.61 0l0 12.29l-35.61 0Z" id="p258w492" />
<path d="M580.95 280.63l11.7 0l0 12.23l-11.7 0Z" id="p258w493" />
<path d="M595.36 280.63l30.62 0l0 12.23l-30.62 0Z" id="p258w494" />
<path d="M628.68 280.38l15.54 0l0 12.56l-15.54 0Z" id="p258w495" />
<path d="M527.1 295.91l14.41 0l0 12.23l-14.41 0Z" id="p258w496" />
<path d="M544.21 295.85l21.24 0l0 12.29l-21.24 0Z" id="p258w497" />
<path d="M568.15 295.91l11.94 0l0 12.23l-11.94 0Z" id="p258w498" />
<path d="M582.79 295.91l19.6 0l0 12.23l-19.6 0Z" id="p258w499" />
<path d="M605.09 295.66l14.63 0l0 12.56l-14.63 0Z" id="p258w500" />
<path d="M527.1 311.14l33.89 0l0 12.29l-33.89 0Z" id="p258w501" />
<path d="M563.69 311.19l21.37 0l0 12.23l-21.37 0Z" id="p258w502" />
<path d="M587.77 311.19l8.33 0l0 12.23l-8.33 0Z" id="p258w503" />
<path d="M598.79 311.19l32.65 0l0 12.23l-32.65 0Z" id="p258w504" />
<path d="M634.14 310.95l15.54 0l0 12.56l-15.54 0Z" id="p258w505" />
<path d="M527.1 326.42l51.83 0l0 12.29l-51.83 0Z" id="p258w506" />
<path d="M581.63 326.48l29.49 0l0 12.23l-29.49 0Z" id="p258w507" />
<path d="M613.82 326.45l25.65 0l0 12.23l-25.65 0Z" id="p258w508" />
<path d="M642.18 326.48l23.19 0l0 12.23l-23.19 0Z" id="p258w509" />
<path d="M668.06 326.48l8.33 0l0 12.23l-8.33 0Z" id="p258w510" />
<path d="M679.09 326.48l22.73 0l0 12.23l-22.73 0Z" id="p258w511" />
<path d="M536.95 341.74l27.91 0l0 12.23l-27.91 0Z" id="p258w512" />
<path d="M567.56 341.52l15.54 0l0 12.56l-15.54 0Z" id="p258w513" />
<path d="M527.1 357.04l14.41 0l0 12.23l-14.41 0Z" id="p258w514" />
<path d="M544.21 356.99l34.98 0l0 12.29l-34.98 0Z" id="p258w515" />
<path d="M579.19 357.04l24.2 0l0 12.23l-24.2 0Z" id="p258w516" />
<path d="M606.09 356.99l38.25 0l0 12.29l-38.25 0Z" id="p258w517" />
<path d="M647.03 357.04l33.67 0l0 12.23l-33.67 0Z" id="p258w518" />
<path d="M536.95 372.33l39.35 0l0 12.23l-39.35 0Z" id="p258w519" />
<path d="M579 372.08l18.92 0l0 12.56l-18.92 0Z" id="p258w520" />
<path d="M527.1 387.61l20.03 0l0 12.23l-20.03 0Z" id="p258w521" />
<path d="M549.83 387.55l35.4 0l0 12.29l-35.4 0Z" id="p258w522" />
<path d="M587.93 387.61l17.56 0l0 12.23l-17.56 0Z" id="p258w523" />
<path d="M608.2 387.61l33.78 0l0 12.23l-33.78 0Z" id="p258w524" />
<path d="M644.68 387.37l18.92 0l0 12.56l-18.92 0Z" id="p258w525" />
<path d="M527.1 402.84l39.09 0l0 12.29l-39.09 0Z" id="p258w526" />
<path d="M568.89 402.89l32.63 0l0 12.23l-32.63 0Z" id="p258w527" />
<path d="M604.23 402.65l14.63 0l0 12.56l-14.63 0Z" id="p258w528" />
<path d="M527.1 418.12l41.72 0l0 12.29l-41.72 0Z" id="p258w529" />
<path d="M571.52 418.18l30.6 0l0 12.23l-30.6 0Z" id="p258w530" />
<path d="M604.82 417.93l15.54 0l0 12.56l-15.54 0Z" id="p258w531" />
<path d="M634.82 418.18l23.41 0l0 12.23l-23.41 0Z" id="p258w532" />
<path d="M660.93 417.93l15.34 0l0 12.56l-15.34 0Z" id="p258w533" />
<path d="M527.1 433.46l14.41 0l0 12.23l-14.41 0Z" id="p258w534" />
<path d="M544.21 433.4l55.93 0l0 12.29l-55.93 0Z" id="p258w535" />
<path d="M602.84 433.46l11.94 0l0 12.23l-11.94 0Z" id="p258w536" />
<path d="M617.48 433.46l62.57 0l0 12.23l-62.57 0Z" id="p258w537" />
<path d="M682.75 433.22l19.58 0l0 12.56l-19.58 0Z" id="p258w538" />
<path d="M527.1 448.74l19.35 0l0 12.23l-19.35 0Z" id="p258w539" />
<path d="M549.15 448.74l23.64 0l0 12.23l-23.64 0Z" id="p258w540" />
<path d="M575.5 448.69l73.63 0l0 12.29l-73.63 0Z" id="p258w541" />
<path d="M536.95 464.03l65.29 0l0 12.23l-65.29 0Z" id="p258w542" />
<path d="M604.94 464.03l24.99 0l0 12.23l-24.99 0Z" id="p258w543" />
<path d="M632.63 464.03l15.76 0l0 12.23l-15.76 0Z" id="p258w544" />
<path d="M651.09 463.78l18.01 0l0 12.56l-18.01 0Z" id="p258w545" />
<path d="M527.1 479.31l20.03 0l0 12.23l-20.03 0Z" id="p258w546" />
<path d="M549.83 479.25l41.83 0l0 12.29l-41.83 0Z" id="p258w547" />
<path d="M594.36 479.31l17.56 0l0 12.23l-17.56 0Z" id="p258w548" />
<path d="M614.62 479.31l40.07 0l0 12.23l-40.07 0Z" id="p258w549" />
<path d="M657.39 479.07l18.92 0l0 12.56l-18.92 0Z" id="p258w550" />
<path d="M527.1 494.54l43.06 0l0 12.29l-43.06 0Z" id="p258w551" />
<path d="M572.86 494.59l86.33 0l0 12.23l-86.33 0Z" id="p258w552" />
<path d="M661.9 494.35l18.92 0l0 12.56l-18.92 0Z" id="p258w553" />
<path d="M527.1 509.88l20.03 0l0 12.23l-20.03 0Z" id="p258w554" />
<path d="M549.83 509.82l47.95 0l0 12.29l-47.95 0Z" id="p258w555" />
<path d="M600.48 509.88l17.56 0l0 12.23l-17.56 0Z" id="p258w556" />
<path d="M620.75 509.88l52.23 0l0 12.23l-52.23 0Z" id="p258w557" />
<path d="M675.68 509.63l18.92 0l0 12.56l-18.92 0Z" id="p258w558" />
<path d="M527.1 525.16l14.41 0l0 12.23l-14.41 0Z" id="p258w559" />
<path d="M544.21 525.11l27 0l0 12.29l-27 0Z" id="p258w560" />
<path d="M571.21 525.16l24.2 0l0 12.23l-24.2 0Z" id="p258w561" />
<path d="M598.11 525.11l35.89 0l0 12.29l-35.89 0Z" id="p258w562" />
<path d="M636.7 525.16l11.94 0l0 12.23l-11.94 0Z" id="p258w563" />
<path d="M651.34 525.16l33.89 0l0 12.23l-33.89 0Z" id="p258w564" />
<path d="M536.95 540.44l23.85 0l0 12.23l-23.85 0Z" id="p258w565" />
<path d="M563.5 540.2l18.01 0l0 12.56l-18.01 0Z" id="p258w566" />
<path d="M527.1 555.67l35.36 0l0 12.29l-35.36 0Z" id="p258w567" />
<path d="M565.16 555.73l35.36 0l0 12.23l-35.36 0Z" id="p258w568" />
<path d="M603.22 555.48l15.54 0l0 12.56l-15.54 0Z" id="p258w569" />
<path d="M536.95 571.01l19.44 0l0 12.23l-19.44 0Z" id="p258w570" />
<path d="M559.09 571.01l15.76 0l0 12.23l-15.76 0Z" id="p258w571" />
<path d="M577.55 571.01l34.9 0l0 12.23l-34.9 0Z" id="p258w572" />
<path d="M615.16 570.99l36.92 0l0 12.23l-36.92 0Z" id="p258w573" />
<path d="M654.64 570.99l15.77 0l0 12.23l-15.77 0Z" id="p258w574" />
<path d="M673.11 570.99l18.62 0l0 12.23l-18.62 0Z" id="p258w575" />
<path d="M536.95 586.27l24.76 0l0 12.23l-24.76 0Z" id="p258w576" />
<path d="M564.42 586.29l27.91 0l0 12.23l-27.91 0Z" id="p258w577" />
<path d="M595.03 586.29l21.37 0l0 12.23l-21.37 0Z" id="p258w578" />
<path d="M619.1 586.29l11.04 0l0 12.23l-11.04 0Z" id="p258w579" />
<path d="M632.84 586.05l15.54 0l0 12.56l-15.54 0Z" id="p258w580" />
<path d="M536.95 601.58l20.93 0l0 12.23l-20.93 0Z" id="p258w581" />
<path d="M560.58 601.58l32.65 0l0 12.23l-32.65 0Z" id="p258w582" />
<path d="M595.93 601.58l11.94 0l0 12.23l-11.94 0Z" id="p258w583" />
<path d="M610.57 601.58l37.37 0l0 12.23l-37.37 0Z" id="p258w584" />
<path d="M650.64 601.33l14.63 0l0 12.56l-14.63 0Z" id="p258w585" />
<path d="M527.1 616.86l20.03 0l0 12.23l-20.03 0Z" id="p258w586" />
<path d="M549.83 616.81l57.29 0l0 12.29l-57.29 0Z" id="p258w587" />
<path d="M609.82 616.86l17.56 0l0 12.23l-17.56 0Z" id="p258w588" />
<path d="M630.08 616.86l61.47 0l0 12.23l-61.47 0Z" id="p258w589" />
<path d="M536.95 631.9l18.92 0l0 12.56l-18.92 0Z" id="p258w590" />
<path d="M527.1 647.43l20.03 0l0 12.23l-20.03 0Z" id="p258w591" />
<path d="M549.83 647.37l37.42 0l0 12.29l-37.42 0Z" id="p258w592" />
<path d="M589.96 647.43l17.56 0l0 12.23l-17.56 0Z" id="p258w593" />
<path d="M610.22 647.43l35.8 0l0 12.23l-35.8 0Z" id="p258w594" />
<path d="M648.72 647.18l14.63 0l0 12.56l-14.63 0Z" id="p258w595" />
<path d="M527.1 662.66l37.48 0l0 12.29l-37.48 0Z" id="p258w596" />
<path d="M567.28 662.71l10.82 0l0 12.23l-10.82 0Z" id="p258w597" />
<path d="M580.8 662.71l20.04 0l0 12.23l-20.04 0Z" id="p258w598" />
<path d="M603.54 662.71l29.49 0l0 12.23l-29.49 0Z" id="p258w599" />
<path d="M635.73 662.71l18.9 0l0 12.23l-18.9 0Z" id="p258w600" />
<path d="M657.33 662.71l11.7 0l0 12.23l-11.7 0Z" id="p258w601" />
<path d="M671.73 662.71l35.12 0l0 12.23l-35.12 0Z" id="p258w602" />
<path d="M536.95 677.99l21.39 0l0 12.23l-21.39 0Z" id="p258w603" />
<path d="M561.04 677.99l12.16 0l0 12.23l-12.16 0Z" id="p258w604" />
<path d="M575.9 677.75l17.81 0l0 12.56l-17.81 0Z" id="p258w605" />
<path d="M527.1 693.28l15.75 0l0 12.23l-15.75 0Z" id="p258w606" />
<path d="M545.55 693.28l20.04 0l0 12.23l-20.04 0Z" id="p258w607" />
<path d="M568.29 693.28l8.78 0l0 12.23l-8.78 0Z" id="p258w608" />
<path d="M579.78 693.22l37.48 0l0 12.29l-37.48 0Z" id="p258w609" />
<path d="M619.96 693.28l19.13 0l0 12.23l-19.13 0Z" id="p258w610" />
<path d="M641.79 693.28l18.9 0l0 12.23l-18.9 0Z" id="p258w611" />
<path d="M663.39 693.28l11.7 0l0 12.23l-11.7 0Z" id="p258w612" />
<path d="M536.95 708.56l35.12 0l0 12.23l-35.12 0Z" id="p258w613" />
<path d="M574.77 708.56l21.39 0l0 12.23l-21.39 0Z" id="p258w614" />
<path d="M598.86 708.56l12.16 0l0 12.23l-12.16 0Z" id="p258w615" />
<path d="M613.72 708.32l17.81 0l0 12.56l-17.81 0Z" id="p258w616" />
<path d="M527.1 723.84l19.44 0l0 12.23l-19.44 0Z" id="p258w617" />
<path d="M549.24 723.79l60.78 0l0 12.29l-60.78 0Z" id="p258w618" />
<path d="M612.72 723.84l23.63 0l0 12.23l-23.63 0Z" id="p258w619" />
<path d="M636.35 723.84l9.45 0l0 12.23l-9.45 0Z" id="p258w620" />
<path d="M648.5 723.84l11.04 0l0 12.23l-11.04 0Z" id="p258w621" />
<path d="M662.24 723.6l18.92 0l0 12.56l-18.92 0Z" id="p258w622" />
<path d="M527.1 739.13l15.08 0l0 12.23l-15.08 0Z" id="p258w623" />
<path d="M544.89 739.13l19.44 0l0 12.23l-19.44 0Z" id="p258w624" />
<path d="M567.03 739.07l58.2 0l0 12.29l-58.2 0Z" id="p258w625" />
<path d="M627.93 739.13l19.13 0l0 12.23l-19.13 0Z" id="p258w626" />
<path d="M649.76 739.13l18.9 0l0 12.23l-18.9 0Z" id="p258w627" />
<path d="M536.95 754.41l103.45 0l0 12.23l-103.45 0Z" id="p258w628" />
<path d="M643.1 754.41l14.41 0l0 12.23l-14.41 0Z" id="p258w629" />
<path d="M660.21 754.17l18.72 0l0 12.56l-18.72 0Z" id="p258w630" />
<path d="M527.1 769.7l14.41 0l0 12.23l-14.41 0Z" id="p258w631" />
<path d="M544.21 769.64l36.57 0l0 12.29l-36.57 0Z" id="p258w632" />
<path d="M583.48 769.7l11.94 0l0 12.23l-11.94 0Z" id="p258w633" />
<path d="M598.12 769.7l35.12 0l0 12.23l-35.12 0Z" id="p258w634" />
<path d="M635.94 769.45l14.43 0l0 12.56l-14.43 0Z" id="p258w635" />
<path d="M527.1 784.98l15.53 0l0 12.23l-15.53 0Z" id="p258w636" />
<path d="M545.33 784.92l21.99 0l0 12.29l-21.99 0Z" id="p258w637" />
<path d="M570.02 784.98l8.33 0l0 12.23l-8.33 0Z" id="p258w638" />
<path d="M581.04 784.98l18.9 0l0 12.23l-18.9 0Z" id="p258w639" />
<path d="M602.64 784.73l18.92 0l0 12.56l-18.92 0Z" id="p258w640" />
<path d="M527.1 800.26l14.41 0l0 12.23l-14.41 0Z" id="p258w641" />
<path d="M544.21 800.21l33.48 0l0 12.29l-33.48 0Z" id="p258w642" />
<path d="M580.39 800.26l11.94 0l0 12.23l-11.94 0Z" id="p258w643" />
<path d="M595.03 800.26l40.77 0l0 12.23l-40.77 0Z" id="p258w644" />
<path d="M638.5 800.02l18.01 0l0 12.56l-18.01 0Z" id="p258w645" />
<path d="M527.1 815.55l40.5 0l0 12.23l-40.5 0Z" id="p258w646" />
<path d="M570.31 815.49l51.95 0l0 12.29l-51.95 0Z" id="p258w647" />
<path d="M624.96 815.55l36.64 0l0 12.23l-36.64 0Z" id="p258w648" />
<path d="M664.3 815.55l27.37 0l0 12.23l-27.37 0Z" id="p258w649" />
<path d="M536.95 830.58l18.92 0l0 12.56l-18.92 0Z" id="p258w650" />
<path d="M527.1 846.11l14.41 0l0 12.23l-14.41 0Z" id="p258w651" />
<path d="M544.21 846.06l81.7 0l0 12.29l-81.7 0Z" id="p258w652" />
<path d="M628.6 846.11l11.94 0l0 12.23l-11.94 0Z" id="p258w653" />
<path d="M643.24 846.11l34 0l0 12.23l-34 0Z" id="p258w654" />
<path d="M679.95 846.11l11.7 0l0 12.23l-11.7 0Z" id="p258w655" />
<path d="M536.95 861.4l32.63 0l0 12.23l-32.63 0Z" id="p258w656" />
<path d="M572.28 861.15l14.43 0l0 12.56l-14.43 0Z" id="p258w657" />
<path d="M527.1 876.62l71.25 0l0 12.29l-71.25 0Z" id="p258w658" />
<path d="M601.05 876.68l57.41 0l0 12.23l-57.41 0Z" id="p258w659" />
<path d="M661.16 876.43l18.01 0l0 12.56l-18.01 0Z" id="p258w660" />
<path d="M527.1 891.91l31.98 0l0 12.29l-31.98 0Z" id="p258w661" />
<path d="M561.78 891.96l29.94 0l0 12.23l-29.94 0Z" id="p258w662" />
<path d="M594.43 891.72l15.54 0l0 12.56l-15.54 0Z" id="p258w663" />
<path d="M536.95 907.25l17.55 0l0 12.23l-17.55 0Z" id="p258w664" />
<path d="M557.2 907.25l16.21 0l0 12.23l-16.21 0Z" id="p258w665" />
<path d="M576.11 907.25l29.03 0l0 12.23l-29.03 0Z" id="p258w666" />
<path d="M607.84 907.25l20.71 0l0 12.23l-20.71 0Z" id="p258w667" />
<path d="M631.25 907.25l11.7 0l0 12.23l-11.7 0Z" id="p258w668" />
<path d="M645.66 907.25l15.75 0l0 12.23l-15.75 0Z" id="p258w669" />
<path d="M536.95 922.53l40.53 0l0 12.23l-40.53 0Z" id="p258w670" />
<path d="M587.16 922.28l15.54 0l0 12.56l-15.54 0Z" id="p258w671" />
<path d="M527.1 937.76l45.47 0l0 12.29l-45.47 0Z" id="p258w672" />
<path d="M575.27 937.81l72.7 0l0 12.23l-72.7 0Z" id="p258w673" />
<path d="M650.68 937.57l18.92 0l0 12.56l-18.92 0Z" id="p258w674" />
</svg>
