<?xml version="1.0" encoding="UTF-8"?>
<svg xmlns="http://www.w3.org/2000/svg" xmlns:xlink="http://www.w3.org/1999/xlink" version="1.1" baseProfile="full" width="768" height="1024" viewBox="0,0,768,1024" preserveAspectRatio="xMinYMin meet" >
<style type="text/css">
<![CDATA[
path {fill-opacity: 0.5;fill: #00aeef;visibility: hidden;}
]]>
</style>
<path d="M572.94 38.6l71 0l0 16.09l-71 0Z" id="p201w1" />
<path d="M566.89 983.66l122.35 0l0 12.23l-122.35 0Z" id="p201w2" />
<path d="M59.08 110.01l108.34 0l0 14.6l-108.34 0Z" id="p201w3" />
<path d="M59.08 126.68l118.97 0l0 14.6l-118.97 0Z" id="p201w4" />
<path d="M59.08 142.11l84.25 0l0 16.35l-84.25 0Z" id="p201w5" />
<path d="M232.37 110.09l28.77 0l0 14.52l-28.77 0ZM435.7 110.03l9.89 0l0 14.61l-9.89 0Z" id="p201w6" />
<path d="M448.8 110.03l39.03 0l0 14.61l-39.03 0Z" id="p201w7" />
<path d="M59.07 161.49l25.4 0l0 14.6l-25.4 0Z" id="p201w8" />
<path d="M87.68 161.49l25.65 0l0 14.6l-25.65 0Z" id="p201w9" />
<path d="M116.53 161.49l12.67 0l0 14.6l-12.67 0Z" id="p201w10" />
<path d="M132.5 160.25l36.75 0l0 16.35l-36.75 0Z" id="p201w11" />
<path d="M232.37 161.57l28.07 0l0 14.52l-28.07 0Z" id="p201w12" />
<path d="M263.65 161.57l23.09 0l0 14.52l-23.09 0Z" id="p201w13" />
<path d="M289.94 161.57l12.84 0l0 14.52l-12.84 0Z" id="p201w14" />
<path d="M305.99 161.57l18.72 0l0 14.52l-18.72 0Z" id="p201w15" />
<path d="M417.47 161.57l6.96 0l0 14.52l-6.96 0Z" id="p201w16" />
<path d="M427.64 161.57l19.6 0l0 14.52l-19.6 0Z" id="p201w17" />
<path d="M450.45 161.57l49.91 0l0 14.52l-49.91 0Z" id="p201w18" />
<path d="M503.56 161.57l25.12 0l0 14.52l-25.12 0Z" id="p201w19" />
<path d="M531.89 161.57l53.73 0l0 14.52l-53.73 0Z" id="p201w20" />
<path d="M59.07 182.2l49.13 0l0 14.6l-49.13 0Z" id="p201w21" />
<path d="M111.5 180.96l57.21 0l0 16.35l-57.21 0Z" id="p201w22" />
<path d="M64.98 207.85l49.13 0l0 14.6l-49.13 0Z" id="p201w23" />
<path d="M124 207.91l31.22 0l0 14.52l-31.22 0Z" id="p201w24" />
<path d="M161.89 207.91l13.9 0l0 14.52l-13.9 0Z" id="p201w25" />
<path d="M179 207.91l11.5 0l0 14.52l-11.5 0Z" id="p201w26" />
<path d="M193.7 207.91l26.4 0l0 14.52l-26.4 0Z" id="p201w27" />
<path d="M226.78 207.91l19.51 0l0 14.52l-19.51 0Z" id="p201w28" />
<path d="M249.5 207.91l50.26 0l0 14.52l-50.26 0Z" id="p201w29" />
<path d="M302.97 207.91l26.4 0l0 14.52l-26.4 0Z" id="p201w30" />
<path d="M336.05 207.91l13.9 0l0 14.52l-13.9 0Z" id="p201w31" />
<path d="M64.98 224.58l26.74 0l0 14.52l-26.74 0Z" id="p201w32" />
<path d="M94.93 224.58l26.4 0l0 14.52l-26.4 0Z" id="p201w33" />
<path d="M128.01 224.58l26.74 0l0 14.52l-26.74 0Z" id="p201w34" />
<path d="M157.96 224.58l25.67 0l0 14.52l-25.67 0Z" id="p201w35" />
<path d="M186.84 224.58l26.4 0l0 14.52l-26.4 0Z" id="p201w36" />
<path d="M219.92 224.58l19.79 0l0 14.52l-19.79 0Z" id="p201w37" />
<path d="M242.91 224.58l42.36 0l0 14.52l-42.36 0Z" id="p201w38" />
<path d="M288.48 224.58l26.4 0l0 14.52l-26.4 0Z" id="p201w39" />
<path d="M321.55 224.58l25.88 0l0 14.52l-25.88 0Z" id="p201w40" />
<path d="M64.98 241.19l30.74 0l0 14.68l-30.74 0Z" id="p201w41" />
<path d="M98.93 241.19l47.06 0l0 14.68l-47.06 0Z" id="p201w42" />
<path d="M155.84 241.26l14.8 0l0 14.52l-14.8 0Z" id="p201w43" />
<path d="M173.84 241.26l44.3 0l0 14.52l-44.3 0Z" id="p201w44" />
<path d="M232.37 182.28l65.48 0l0 14.52l-65.48 0Z" id="p201w45" />
<path d="M417.47 182.28l54.72 0l0 14.52l-54.72 0Z" id="p201w46" />
<path d="M475.4 182.28l19.51 0l0 14.52l-19.51 0Z" id="p201w47" />
<path d="M435.2 198.97l11.5 0l0 14.61l-11.5 0Z" id="p201w48" />
<path d="M449.91 198.97l62.88 0l0 14.61l-62.88 0Z" id="p201w49" />
<path d="M59.08 271.66l116.54 0l0 14.6l-116.54 0Z" id="p201w50" />
<path d="M59.08 287.09l95.63 0l0 16.35l-95.63 0Z" id="p201w51" />
<path d="M232.37 271.74l45.45 0l0 14.52l-45.45 0Z" id="p201w52" />
<path d="M59.08 306.51l81.95 0l0 14.6l-81.95 0Z" id="p201w53" />
<path d="M144.24 306.55l30.73 0l0 14.52l-30.73 0Z" id="p201w54" />
<path d="M59.08 321.94l68.48 0l0 16.35l-68.48 0Z" id="p201w55" />
<path d="M232.37 306.55l45.45 0l0 14.52l-45.45 0Z" id="p201w56" />
<path d="M417.48 306.55l6.96 0l0 14.52l-6.96 0Z" id="p201w57" />
<path d="M437.53 306.55l46.79 0l0 14.52l-46.79 0Z" id="p201w58" />
<path d="M487.53 306.55l84.2 0l0 14.52l-84.2 0Z" id="p201w59" />
<path d="M574.93 306.55l25.12 0l0 14.52l-25.12 0Z" id="p201w60" />
<path d="M417.48 323.22l18.7 0l0 14.52l-18.7 0Z" id="p201w61" />
<path d="M436.18 323.22l28.89 0l0 14.52l-28.89 0Z" id="p201w62" />
<path d="M59.08 341.31l18.58 0l0 14.6l-18.58 0Z" id="p201w63" />
<path d="M80.87 341.31l33.05 0l0 14.6l-33.05 0Z" id="p201w64" />
<path d="M117.13 341.31l38.63 0l0 14.6l-38.63 0Z" id="p201w65" />
<path d="M167.61 340.07l42.22 0l0 16.35l-42.22 0Z" id="p201w66" />
<path d="M232.37 341.39l24.59 0l0 14.52l-24.59 0Z" id="p201w67" />
<path d="M417.48 341.39l18.72 0l0 14.52l-18.72 0Z" id="p201w68" />
<path d="M439.4 341.39l33.05 0l0 14.52l-33.05 0Z" id="p201w69" />
<path d="M475.66 341.39l20.85 0l0 14.52l-20.85 0Z" id="p201w70" />
<path d="M499.72 341.39l11.5 0l0 14.52l-11.5 0Z" id="p201w71" />
<path d="M514.43 341.39l41.17 0l0 14.52l-41.17 0Z" id="p201w72" />
<path d="M558.8 341.39l62.53 0l0 14.52l-62.53 0Z" id="p201w73" />
<path d="M59.08 362.02l25.4 0l0 14.6l-25.4 0Z" id="p201w74" />
<path d="M87.68 362.02l32.59 0l0 14.6l-32.59 0Z" id="p201w75" />
<path d="M123.57 360.78l38.95 0l0 16.35l-38.95 0Z" id="p201w76" />
<path d="M232.37 362.1l59.34 0l0 14.52l-59.34 0Z" id="p201w77" />
<path d="M417.48 362.1l15.6 0l0 14.52l-15.6 0Z" id="p201w78" />
<path d="M436.29 362.1l25.12 0l0 14.52l-25.12 0Z" id="p201w79" />
<path d="M464.61 362.1l32.35 0l0 14.52l-32.35 0Z" id="p201w80" />
<path d="M500.17 362.1l18.7 0l0 14.52l-18.7 0Z" id="p201w81" />
<path d="M522.08 362.1l20.85 0l0 14.52l-20.85 0Z" id="p201w82" />
<path d="M546.14 362.1l31.81 0l0 14.52l-31.81 0Z" id="p201w83" />
<path d="M417.48 378.79l49.77 0l0 14.61l-49.77 0Z" id="p201w84" />
<path d="M470.46 378.79l25.05 0l0 14.61l-25.05 0Z" id="p201w85" />
<path d="M498.72 378.79l32.34 0l0 14.61l-32.34 0Z" id="p201w86" />
<path d="M543.75 378.79l28.07 0l0 14.61l-28.07 0Z" id="p201w87" />
<path d="M575.04 378.79l39.91 0l0 14.61l-39.91 0Z" id="p201w88" />
<path d="M59.08 396.84l23.36 0l0 14.6l-23.36 0Z" id="p201w89" />
<path d="M85.65 396.84l13.87 0l0 14.6l-13.87 0Z" id="p201w90" />
<path d="M102.82 395.6l43.58 0l0 16.35l-43.58 0Z" id="p201w91" />
<path d="M232.37 396.92l29.39 0l0 14.52l-29.39 0Z" id="p201w92" />
<path d="M264.97 396.92l15.5 0l0 14.52l-15.5 0Z" id="p201w93" />
<path d="M417.48 396.92l15.6 0l0 14.52l-15.6 0Z" id="p201w94" />
<path d="M436.29 396.92l22.99 0l0 14.52l-22.99 0Z" id="p201w95" />
<path d="M462.49 396.92l23.97 0l0 14.52l-23.97 0Z" id="p201w96" />
<path d="M489.66 396.92l23.52 0l0 14.52l-23.52 0Z" id="p201w97" />
<path d="M59.08 417.55l31.28 0l0 14.6l-31.28 0Z" id="p201w98" />
<path d="M93.57 417.55l13.87 0l0 14.6l-13.87 0Z" id="p201w99" />
<path d="M110.65 417.55l25.65 0l0 14.6l-25.65 0Z" id="p201w100" />
<path d="M139.5 417.55l12.67 0l0 14.6l-12.67 0Z" id="p201w101" />
<path d="M155.47 416.31l27.85 0l0 16.35l-27.85 0Z" id="p201w102" />
<path d="M232.37 417.63l31.55 0l0 14.52l-31.55 0Z" id="p201w103" />
<path d="M267.12 417.63l24.85 0l0 14.52l-24.85 0Z" id="p201w104" />
<path d="M295.19 417.63l23.09 0l0 14.52l-23.09 0Z" id="p201w105" />
<path d="M321.48 417.63l16.04 0l0 14.52l-16.04 0Z" id="p201w106" />
<path d="M417.48 417.63l31.9 0l0 14.52l-31.9 0Z" id="p201w107" />
<path d="M452.59 417.63l13.9 0l0 14.52l-13.9 0Z" id="p201w108" />
<path d="M469.69 417.63l53.73 0l0 14.52l-53.73 0Z" id="p201w109" />
<path d="M526.64 417.63l9.62 0l0 14.52l-9.62 0Z" id="p201w110" />
<path d="M539.46 417.63l18.7 0l0 14.52l-18.7 0Z" id="p201w111" />
<path d="M558.17 417.63l31.28 0l0 14.52l-31.28 0Z" id="p201w112" />
<path d="M59.08 438.26l39.58 0l0 14.6l-39.58 0Z" id="p201w113" />
<path d="M101.96 437.02l22.39 0l0 16.35l-22.39 0Z" id="p201w114" />
<path d="M232.37 438.34l46.45 0l0 14.52l-46.45 0Z" id="p201w115" />
<path d="M59.08 458.97l10.02 0l0 14.6l-10.02 0Z" id="p201w116" />
<path d="M85.8 458.99l16.01 0l0 14.6l-16.01 0Z" id="p201w117" />
<path d="M105.11 457.74l75.37 0l0 16.35l-75.37 0Z" id="p201w118" />
<path d="M232.36 459.06l70.3 0l0 14.52l-70.3 0Z" id="p201w119" />
<path d="M305.87 459.06l15.76 0l0 14.52l-15.76 0Z" id="p201w120" />
<path d="M324.84 459.06l16.58 0l0 14.52l-16.58 0Z" id="p201w121" />
<path d="M344.62 459.06l36.84 0l0 14.52l-36.84 0ZM232.36 475.74l31.27 0l0 14.52l-31.27 0Z" id="p201w122" />
<path d="M59.07 493.83l12.42 0l0 14.6l-12.42 0Z" id="p201w123" />
<path d="M74.7 493.83l54.88 0l0 14.6l-54.88 0Z" id="p201w124" />
<path d="M132.88 492.59l64.02 0l0 16.35l-64.02 0Z" id="p201w125" />
<path d="M64.98 519.47l12.42 0l0 14.6l-12.42 0Z" id="p201w126" />
<path d="M80.61 519.47l54.88 0l0 14.6l-54.88 0Z" id="p201w127" />
<path d="M145.12 519.54l9.62 0l0 14.52l-9.62 0Z" id="p201w128" />
<path d="M157.95 519.47l17.67 0l0 14.6l-17.67 0Z" id="p201w129" />
<path d="M178.83 519.54l29.41 0l0 14.52l-29.41 0Z" id="p201w130" />
<path d="M214.92 519.54l16.58 0l0 14.52l-16.58 0Z" id="p201w131" />
<path d="M234.7 519.54l11.5 0l0 14.52l-11.5 0Z" id="p201w132" />
<path d="M249.41 519.47l11.36 0l0 14.6l-11.36 0Z" id="p201w133" />
<path d="M263.98 519.54l29.41 0l0 14.52l-29.41 0Z" id="p201w134" />
<path d="M300.06 519.54l22.19 0l0 14.52l-22.19 0Z" id="p201w135" />
<path d="M325.46 519.54l50.26 0l0 14.52l-50.26 0Z" id="p201w136" />
<path d="M64.98 536.14l12.42 0l0 14.6l-12.42 0Z" id="p201w137" />
<path d="M80.61 536.21l29.41 0l0 14.52l-29.41 0Z" id="p201w138" />
<path d="M116.7 536.21l16.58 0l0 14.52l-16.58 0Z" id="p201w139" />
<path d="M136.49 536.21l26.74 0l0 14.52l-26.74 0Z" id="p201w140" />
<path d="M166.43 536.14l26.99 0l0 14.6l-26.99 0Z" id="p201w141" />
<path d="M196.63 536.21l65.77 0l0 14.52l-65.77 0Z" id="p201w142" />
<path d="M265.61 536.21l25.67 0l0 14.52l-25.67 0Z" id="p201w143" />
<path d="M294.49 536.14l25.77 0l0 14.6l-25.77 0Z" id="p201w144" />
<path d="M323.47 536.21l58.55 0l0 14.52l-58.55 0Z" id="p201w145" />
<path d="M64.98 552.88l42.36 0l0 14.52l-42.36 0Z" id="p201w146" />
<path d="M110.55 552.81l12.42 0l0 14.6l-12.42 0Z" id="p201w147" />
<path d="M126.18 552.88l29.41 0l0 14.52l-29.41 0Z" id="p201w148" />
<path d="M162.26 552.88l28.56 0l0 14.52l-28.56 0Z" id="p201w149" />
<path d="M194.03 552.81l30.74 0l0 14.68l-30.74 0Z" id="p201w150" />
<path d="M227.98 552.81l47.06 0l0 14.68l-47.06 0Z" id="p201w151" />
<path d="M284.66 552.88l9.62 0l0 14.52l-9.62 0Z" id="p201w152" />
<path d="M297.49 552.88l17.63 0l0 14.52l-17.63 0Z" id="p201w153" />
<path d="M318.33 552.81l21.91 0l0 14.6l-21.91 0Z" id="p201w154" />
<path d="M64.98 569.55l65.22 0l0 14.52l-65.22 0Z" id="p201w155" />
<path d="M232.37 493.9l53.72 0l0 14.52l-53.72 0Z" id="p201w156" />
<path d="M289.29 493.9l34.95 0l0 14.52l-34.95 0Z" id="p201w157" />
<path d="M417.47 493.9l46.77 0l0 14.52l-46.77 0Z" id="p201w158" />
<path d="M467.44 493.9l12.29 0l0 14.52l-12.29 0Z" id="p201w159" />
<path d="M482.94 493.9l49.99 0l0 14.52l-49.99 0Z" id="p201w160" />
<path d="M536.13 493.9l44.11 0l0 14.52l-44.11 0Z" id="p201w161" />
<path d="M583.45 493.9l26.73 0l0 14.52l-26.73 0Z" id="p201w162" />
<path d="M417.47 510.58l9.89 0l0 14.52l-9.89 0Z" id="p201w163" />
<path d="M430.57 510.58l29.67 0l0 14.52l-29.67 0Z" id="p201w164" />
<path d="M59.07 596.79l16.8 0l0 14.6l-16.8 0Z" id="p201w165" />
<path d="M79.17 595.55l28 0l0 16.35l-28 0Z" id="p201w166" />
<path d="M232.37 596.87l28.34 0l0 14.52l-28.34 0Z" id="p201w167" />
<path d="M429.72 596.79l30.66 0l0 14.61l-30.66 0Z" id="p201w168" />
<path d="M463.59 596.79l20.84 0l0 14.61l-20.84 0Z" id="p201w169" />
<path d="M59.07 617.51l35.16 0l0 14.6l-35.16 0Z" id="p201w170" />
<path d="M97.44 617.51l32.19 0l0 14.6l-32.19 0Z" id="p201w171" />
<path d="M132.94 616.27l35 0l0 16.35l-35 0Z" id="p201w172" />
<path d="M232.37 617.59l48.1 0l0 14.52l-48.1 0Z" id="p201w173" />
<path d="M283.67 617.59l50.79 0l0 14.52l-50.79 0Z" id="p201w174" />
<path d="M417.47 617.59l12.83 0l0 14.52l-12.83 0Z" id="p201w175" />
<path d="M433.51 617.59l36.88 0l0 14.52l-36.88 0Z" id="p201w176" />
<path d="M473.6 617.59l13.9 0l0 14.52l-13.9 0Z" id="p201w177" />
<path d="M490.7 617.59l9.89 0l0 14.52l-9.89 0Z" id="p201w178" />
<path d="M503.8 617.59l16.31 0l0 14.52l-16.31 0Z" id="p201w179" />
<path d="M523.32 617.59l30.19 0l0 14.52l-30.19 0Z" id="p201w180" />
<path d="M556.71 617.59l54.55 0l0 14.52l-54.55 0Z" id="p201w181" />
<path d="M417.47 634.26l13.9 0l0 14.52l-13.9 0Z" id="p201w182" />
<path d="M434.58 634.26l51.32 0l0 14.52l-51.32 0Z" id="p201w183" />
<path d="M59.07 652.33l50.5 0l0 14.6l-50.5 0Z" id="p201w184" />
<path d="M112.78 652.33l35.29 0l0 14.6l-35.29 0Z" id="p201w185" />
<path d="M159.93 651.09l36.14 0l0 16.35l-36.14 0Z" id="p201w186" />
<path d="M232.37 652.41l22.89 0l0 14.52l-22.89 0Z" id="p201w187" />
<path d="M417.47 652.41l50.43 0l0 14.52l-50.43 0Z" id="p201w188" />
<path d="M471.12 652.41l17.38 0l0 14.52l-17.38 0Z" id="p201w189" />
<path d="M491.71 652.41l12.29 0l0 14.52l-12.29 0Z" id="p201w190" />
<path d="M507.2 652.41l31.8 0l0 14.52l-31.8 0Z" id="p201w191" />
<path d="M59.07 673.04l110.02 0l0 14.6l-110.02 0Z" id="p201w192" />
<path d="M59.07 688.47l88.71 0l0 16.35l-88.71 0Z" id="p201w193" />
<path d="M232.37 673.12l77.73 0l0 14.52l-77.73 0Z" id="p201w194" />
<path d="M313.31 673.12l30.68 0l0 14.52l-30.68 0Z" id="p201w195" />
<path d="M435.7 673.07l49.44 0l0 14.61l-49.44 0Z" id="p201w196" />
<path d="M59.07 707.86l22.58 0l0 14.6l-22.58 0Z" id="p201w197" />
<path d="M84.86 707.86l13.9 0l0 14.6l-13.9 0Z" id="p201w198" />
<path d="M101.97 707.86l26.57 0l0 14.6l-26.57 0Z" id="p201w199" />
<path d="M131.75 707.86l13.87 0l0 14.6l-13.87 0Z" id="p201w200" />
<path d="M148.83 707.86l25.65 0l0 14.6l-25.65 0Z" id="p201w201" />
<path d="M177.68 707.86l12.67 0l0 14.6l-12.67 0Z" id="p201w202" />
<path d="M59.07 723.29l77.43 0l0 16.35l-77.43 0Z" id="p201w203" />
<path d="M232.37 707.94l38.69 0l0 14.52l-38.69 0Z" id="p201w204" />
<path d="M274.26 707.94l23.09 0l0 14.52l-23.09 0Z" id="p201w205" />
<path d="M300.55 707.94l18.72 0l0 14.52l-18.72 0Z" id="p201w206" />
<path d="M417.47 707.94l39.28 0l0 14.52l-39.28 0Z" id="p201w207" />
<path d="M459.96 707.94l16.83 0l0 14.52l-16.83 0Z" id="p201w208" />
<path d="M480 707.94l13.9 0l0 14.52l-13.9 0Z" id="p201w209" />
<path d="M497.11 707.94l25.92 0l0 14.52l-25.92 0Z" id="p201w210" />
<path d="M526.24 707.94l13.9 0l0 14.52l-13.9 0Z" id="p201w211" />
<path d="M543.34 707.94l25.38 0l0 14.52l-25.38 0Z" id="p201w212" />
<path d="M571.93 707.94l17.9 0l0 14.52l-17.9 0Z" id="p201w213" />
<path d="M593.04 707.94l43.04 0l0 14.52l-43.04 0Z" id="p201w214" />
<path d="M59.07 742.67l13.9 0l0 14.6l-13.9 0Z" id="p201w215" />
<path d="M76.18 742.67l44.06 0l0 14.6l-44.06 0Z" id="p201w216" />
<path d="M123.54 741.43l55.95 0l0 16.35l-55.95 0Z" id="p201w217" />
<path d="M232.37 742.75l15.5 0l0 14.52l-15.5 0Z" id="p201w218" />
<path d="M251.07 742.75l32.59 0l0 14.52l-32.59 0Z" id="p201w219" />
<path d="M417.47 742.75l18.72 0l0 14.52l-18.72 0Z" id="p201w220" />
<path d="M439.4 742.75l12.66 0l0 14.52l-12.66 0Z" id="p201w221" />
<path d="M455.26 742.75l7.48 0l0 14.52l-7.48 0Z" id="p201w222" />
<path d="M462.75 742.75l14.97 0l0 14.52l-14.97 0Z" id="p201w223" />
<path d="M480.92 742.75l17.9 0l0 14.52l-17.9 0Z" id="p201w224" />
<path d="M502.03 742.75l40.36 0l0 14.52l-40.36 0Z" id="p201w225" />
<path d="M545.6 742.75l13.9 0l0 14.52l-13.9 0Z" id="p201w226" />
<path d="M562.7 742.75l43.82 0l0 14.52l-43.82 0Z" id="p201w227" />
<path d="M59.07 763.38l109.04 0l0 14.6l-109.04 0Z" id="p201w228" />
<path d="M59.07 778.81l76.74 0l0 16.35l-76.74 0Z" id="p201w229" />
<path d="M232.37 763.45l151.55 0l0 14.52l-151.55 0Z" id="p201w230" />
<path d="M417.47 763.45l41.97 0l0 14.52l-41.97 0Z" id="p201w231" />
<path d="M462.66 763.45l58.02 0l0 14.52l-58.02 0Z" id="p201w232" />
<path d="M523.89 763.45l14.18 0l0 14.52l-14.18 0Z" id="p201w233" />
<path d="M541.27 763.45l40.35 0l0 14.52l-40.35 0Z" id="p201w234" />
<path d="M584.83 763.45l53.47 0l0 14.52l-53.47 0Z" id="p201w235" />
<path d="M59.07 798.18l125.14 0l0 14.6l-125.14 0Z" id="p201w236" />
<path d="M59.07 813.61l85.45 0l0 16.35l-85.45 0Z" id="p201w237" />
<path d="M232.37 798.26l50.53 0l0 14.52l-50.53 0Z" id="p201w238" />
<path d="M417.47 798.26l33.16 0l0 14.52l-33.16 0Z" id="p201w239" />
<path d="M453.84 798.26l56.41 0l0 14.52l-56.41 0Z" id="p201w240" />
<path d="M59.07 832.99l70.62 0l0 14.6l-70.62 0Z" id="p201w241" />
<path d="M132.99 831.75l56.77 0l0 16.35l-56.77 0Z" id="p201w242" />
<path d="M232.37 833.07l110.08 0l0 14.52l-110.08 0Z" id="p201w243" />
<path d="M417.47 833.07l12.83 0l0 14.52l-12.83 0Z" id="p201w244" />
<path d="M433.25 833.07l47.76 0l0 14.52l-47.76 0Z" id="p201w245" />
<path d="M484.21 833.07l16.83 0l0 14.52l-16.83 0Z" id="p201w246" />
<path d="M504.25 833.07l20.85 0l0 14.52l-20.85 0Z" id="p201w247" />
<path d="M528.31 833.07l35.76 0l0 14.52l-35.76 0Z" id="p201w248" />
<path d="M567.27 833.07l73.27 0l0 14.52l-73.27 0Z" id="p201w249" />
<path d="M59.07 853.7l106.11 0l0 14.6l-106.11 0Z" id="p201w250" />
<path d="M59.07 869.13l93.54 0l0 16.35l-93.54 0Z" id="p201w251" />
<path d="M232.37 853.78l52.67 0l0 14.52l-52.67 0Z" id="p201w252" />
<path d="M59.07 888.51l44.38 0l0 14.6l-44.38 0Z" id="p201w253" />
<path d="M106.75 887.26l43.03 0l0 16.35l-43.03 0Z" id="p201w254" />
<path d="M232.37 888.58l33.41 0l0 14.52l-33.41 0Z" id="p201w255" />
<path d="M432.86 888.49l38.07 0l0 14.61l-38.07 0Z" id="p201w256" />
<path d="M59.08 909.22l14.31 0l0 14.6l-14.31 0Z" id="p201w257" />
<path d="M76.59 909.22l36.15 0l0 14.6l-36.15 0Z" id="p201w258" />
<path d="M116.05 907.98l46.03 0l0 16.35l-46.03 0Z" id="p201w259" />
<path d="M232.37 909.3l23.79 0l0 14.52l-23.79 0Z" id="p201w260" />
<path d="M259.01 909.3l44.64 0l0 14.52l-44.64 0Z" id="p201w261" />
<path d="M426.97 909.2l17.11 0l0 14.61l-17.11 0Z" id="p201w262" />
<path d="M447.28 909.2l37.62 0l0 14.61l-37.62 0Z" id="p201w263" />
</svg>
