<?xml version="1.0" encoding="UTF-8"?>
<svg xmlns="http://www.w3.org/2000/svg" xmlns:xlink="http://www.w3.org/1999/xlink" version="1.1" baseProfile="full" width="768" height="1024" viewBox="0,0,768,1024" preserveAspectRatio="xMinYMin meet" >
<style type="text/css">
<![CDATA[
path {fill-opacity: 0.5;fill: #00aeef;visibility: hidden;}
]]>
</style>
<path d="M124.06 113.89l8.02 0l0 15.09l-8.02 0Z" id="p128w1" />
<path d="M135.69 113.89l34.33 0l0 15.09l-34.33 0Z" id="p128w2" />
<path d="M173.63 113.89l19.29 0l0 15.09l-19.29 0Z" id="p128w3" />
<path d="M196.53 113.89l53.31 0l0 15.09l-53.31 0Z" id="p128w4" />
<path d="M253.46 113.89l21.42 0l0 15.09l-21.42 0Z" id="p128w5" />
<path d="M278.49 113.89l80.93 0l0 15.09l-80.93 0Z" id="p128w6" />
<path d="M363.03 113.89l15.06 0l0 15.09l-15.06 0Z" id="p128w7" />
<path d="M381.7 113.89l73.45 0l0 15.09l-73.45 0Z" id="p128w8" />
<path d="M458.77 113.89l65.88 0l0 15.09l-65.88 0Z" id="p128w9" />
<path d="M528.26 113.89l59.94 0l0 15.09l-59.94 0Z" id="p128w10" />
<path d="M150.28 130.56l29.6 0l0 15.09l-29.6 0Z" id="p128w11" />
<path d="M191.95 130.56l14.59 0l0 15.09l-14.59 0Z" id="p128w12" />
<path d="M210.14 130.56l16.64 0l0 15.09l-16.64 0Z" id="p128w13" />
<path d="M230.4 130.56l25.47 0l0 15.09l-25.47 0Z" id="p128w14" />
<path d="M259.48 130.56l78.91 0l0 15.09l-78.91 0Z" id="p128w15" />
<path d="M342.01 130.56l12.66 0l0 15.09l-12.66 0Z" id="p128w16" />
<path d="M358.28 130.56l25.23 0l0 15.09l-25.23 0Z" id="p128w17" />
<path d="M387.12 130.56l61.48 0l0 15.09l-61.48 0Z" id="p128w18" />
<path d="M452.21 130.56l19.29 0l0 15.09l-19.29 0Z" id="p128w19" />
<path d="M475.11 130.56l32.82 0l0 15.09l-32.82 0Z" id="p128w20" />
<path d="M511.55 130.56l38.65 0l0 15.09l-38.65 0Z" id="p128w21" />
<path d="M553.81 130.56l27.08 0l0 15.09l-27.08 0Z" id="p128w22" />
<path d="M584.5 130.56l31.13 0l0 15.09l-31.13 0Z" id="p128w23" />
<path d="M619.23 130.56l49.47 0l0 15.09l-49.47 0Z" id="p128w24" />
<path d="M124.06 147.23l21.67 0l0 15.09l-21.67 0Z" id="p128w25" />
<path d="M149.34 147.23l15.89 0l0 15.09l-15.89 0Z" id="p128w26" />
<path d="M168.84 147.23l26.86 0l0 15.09l-26.86 0Z" id="p128w27" />
<path d="M199.31 147.23l45.33 0l0 15.09l-45.33 0Z" id="p128w28" />
<path d="M248.25 147.23l31.89 0l0 15.09l-31.89 0Z" id="p128w29" />
<path d="M283.75 147.23l47.82 0l0 15.09l-47.82 0Z" id="p128w30" />
<path d="M335.18 147.23l26.89 0l0 15.09l-26.89 0Z" id="p128w31" />
<path d="M365.68 147.23l47.27 0l0 15.09l-47.27 0Z" id="p128w32" />
<path d="M416.56 147.23l33.26 0l0 15.09l-33.26 0Z" id="p128w33" />
<path d="M453.43 147.23l27.23 0l0 15.09l-27.23 0Z" id="p128w34" />
<path d="M484.28 147.23l23.61 0l0 15.09l-23.61 0Z" id="p128w35" />
<path d="M511.5 147.23l17.14 0l0 15.09l-17.14 0Z" id="p128w36" />
<path d="M532.25 147.23l13.91 0l0 15.09l-13.91 0Z" id="p128w37" />
<path d="M549.77 147.23l24.93 0l0 15.09l-24.93 0Z" id="p128w38" />
<path d="M578.31 147.23l15.89 0l0 15.09l-15.89 0Z" id="p128w39" />
<path d="M597.81 147.23l32.76 0l0 15.09l-32.76 0Z" id="p128w40" />
<path d="M124.06 174.31l24.09 0l0 12.29l-24.09 0Z" id="p128w41" />
<path d="M157.38 172.25l8.02 0l0 15.09l-8.02 0Z" id="p128w42" />
<path d="M169.01 172.25l23.44 0l0 15.09l-23.44 0Z" id="p128w43" />
<path d="M196.07 172.25l21.67 0l0 15.09l-21.67 0Z" id="p128w44" />
<path d="M221.35 172.25l15.89 0l0 15.09l-15.89 0Z" id="p128w45" />
<path d="M240.84 172.25l26.86 0l0 15.09l-26.86 0Z" id="p128w46" />
<path d="M271.32 172.25l29.68 0l0 15.09l-29.68 0Z" id="p128w47" />
<path d="M304.6 172.25l72.79 0l0 15.09l-72.79 0Z" id="p128w48" />
<path d="M381.01 172.25l13.91 0l0 15.09l-13.91 0Z" id="p128w49" />
<path d="M398.52 172.25l45.53 0l0 15.09l-45.53 0Z" id="p128w50" />
<path d="M447.67 172.25l47.53 0l0 15.09l-47.53 0Z" id="p128w51" />
<path d="M498.81 172.25l47.27 0l0 15.09l-47.27 0Z" id="p128w52" />
<path d="M549.69 172.25l36.82 0l0 15.09l-36.82 0Z" id="p128w53" />
<path d="M590.12 172.25l37.19 0l0 15.09l-37.19 0Z" id="p128w54" />
<path d="M630.93 172.25l9.29 0l0 15.09l-9.29 0Z" id="p128w55" />
<path d="M135.88 188.92l26.3 0l0 15.09l-26.3 0Z" id="p128w56" />
<path d="M165.79 188.92l61.48 0l0 15.09l-61.48 0Z" id="p128w57" />
<path d="M230.88 188.92l15.74 0l0 15.09l-15.74 0Z" id="p128w58" />
<path d="M250.24 188.92l36.87 0l0 15.09l-36.87 0Z" id="p128w59" />
<path d="M290.72 188.92l29.83 0l0 15.09l-29.83 0Z" id="p128w60" />
<path d="M324.16 188.92l14.59 0l0 15.09l-14.59 0Z" id="p128w61" />
<path d="M342.36 188.92l49.65 0l0 15.09l-49.65 0Z" id="p128w62" />
<path d="M395.62 188.92l19.46 0l0 15.09l-19.46 0Z" id="p128w63" />
<path d="M418.69 188.92l57.54 0l0 15.09l-57.54 0Z" id="p128w64" />
<path d="M489.94 188.92l21.55 0l0 15.09l-21.55 0Z" id="p128w65" />
<path d="M515.1 188.92l39.78 0l0 15.09l-39.78 0Z" id="p128w66" />
<path d="M558.49 188.92l10.5 0l0 15.09l-10.5 0Z" id="p128w67" />
<path d="M572.6 188.92l73.45 0l0 15.09l-73.45 0Z" id="p128w68" />
<path d="M135.88 205.59l65.88 0l0 15.09l-65.88 0Z" id="p128w69" />
<path d="M205.37 205.59l27.3 0l0 15.09l-27.3 0Z" id="p128w70" />
<path d="M236.28 205.59l47.53 0l0 15.09l-47.53 0Z" id="p128w71" />
<path d="M287.42 205.59l15.89 0l0 15.09l-15.89 0Z" id="p128w72" />
<path d="M306.92 205.59l42.21 0l0 15.09l-42.21 0Z" id="p128w73" />
<path d="M352.73 205.59l7.84 0l0 15.09l-7.84 0Z" id="p128w74" />
<path d="M364.18 205.59l16.64 0l0 15.09l-16.64 0Z" id="p128w75" />
<path d="M384.44 205.59l59.93 0l0 15.09l-59.93 0Z" id="p128w76" />
<path d="M447.98 205.59l21.67 0l0 15.09l-21.67 0Z" id="p128w77" />
<path d="M473.26 205.59l28.26 0l0 15.09l-28.26 0Z" id="p128w78" />
<path d="M505.13 205.59l46.24 0l0 15.09l-46.24 0Z" id="p128w79" />
<path d="M554.98 205.59l56.46 0l0 15.09l-56.46 0Z" id="p128w80" />
<path d="M615.05 205.59l24.93 0l0 15.09l-24.93 0Z" id="p128w81" />
<path d="M135.88 222.26l18.04 0l0 15.09l-18.04 0Z" id="p128w82" />
<path d="M157.54 222.26l32.82 0l0 15.09l-32.82 0Z" id="p128w83" />
<path d="M193.97 222.26l38.65 0l0 15.09l-38.65 0Z" id="p128w84" />
<path d="M124.06 266.38l34.63 0l0 18.84l-34.63 0Z" id="p128w85" />
<path d="M162.34 266.38l89.43 0l0 18.84l-89.43 0Z" id="p128w86" />
<path d="M255.42 266.38l13.62 0l0 18.84l-13.62 0Z" id="p128w87" />
<path d="M272.69 266.38l38.39 0l0 18.84l-38.39 0Z" id="p128w88" />
<path d="M143.75 297.58l193.65 0l0 14.52l-193.65 0Z" id="p128w89" />
<path d="M143.75 322.59l277.41 0l0 14.52l-277.41 0Z" id="p128w90" />
<path d="M143.75 339.26l238.46 0l0 14.52l-238.46 0Z" id="p128w91" />
<path d="M143.75 355.93l403.94 0l0 14.52l-403.94 0Z" id="p128w92" />
<path d="M143.75 380.95l341.85 0l0 14.52l-341.85 0Z" id="p128w93" />
<path d="M143.75 405.96l57.89 0l0 14.52l-57.89 0Z" id="p128w94" />
<path d="M143.75 422.63l99.05 0l0 14.52l-99.05 0Z" id="p128w95" />
<path d="M345.27 405.96l90.12 0l0 14.52l-90.12 0Z" id="p128w96" />
<path d="M345.27 422.63l96.01 0l0 14.52l-96.01 0Z" id="p128w97" />
<path d="M143.75 447.64l318.68 0l0 14.52l-318.68 0Z" id="p128w98" />
<path d="M143.75 472.66l486.7 0l0 14.52l-486.7 0Z" id="p128w99" />
<path d="M143.75 489.33l440.28 0l0 14.52l-440.28 0Z" id="p128w100" />
<path d="M124.06 533.14l23.83 0l0 18.84l-23.83 0Z" id="p128w101" />
<path d="M151.54 533.14l18.36 0l0 18.84l-18.36 0Z" id="p128w102" />
<path d="M173.54 533.14l37.28 0l0 18.84l-37.28 0Z" id="p128w103" />
<path d="M143.75 564.35l329.14 0l0 14.52l-329.14 0Z" id="p128w104" />
<path d="M143.75 647.71l294.04 0l0 14.52l-294.04 0Z" id="p128w105" />
<path d="M634.33 647.71l74.59 0l0 14.52l-74.59 0Z" id="p128w106" />
<path d="M143.75 672.74l15.51 0l0 14.61l-15.51 0Z" id="p128w107" />
<path d="M162.47 672.74l47.86 0l0 14.61l-47.86 0Z" id="p128w108" />
<path d="M213.37 672.74l24.76 0l0 14.61l-24.76 0Z" id="p128w109" />
<path d="M241.34 672.74l20.84 0l0 14.61l-20.84 0Z" id="p128w110" />
<path d="M265.39 672.74l52.12 0l0 14.61l-52.12 0Z" id="p128w111" />
<path d="M320.72 672.74l17.37 0l0 14.61l-17.37 0Z" id="p128w112" />
<path d="M341.3 672.74l23.51 0l0 14.61l-23.51 0Z" id="p128w113" />
<path d="M368.01 672.74l44.89 0l0 14.61l-44.89 0Z" id="p128w114" />
<path d="M416.11 672.74l34.75 0l0 14.61l-34.75 0Z" id="p128w115" />
<path d="M143.75 706.07l210.9 0l0 14.52l-210.9 0Z" id="p128w116" />
<path d="M354.65 706.04l81.48 0l0 14.52l-81.48 0Z" id="p128w117" />
<path d="M436.13 706.07l105.67 0l0 14.52l-105.67 0Z" id="p128w118" />
<path d="M143.75 756.08l404.35 0l0 14.52l-404.35 0Z" id="p128w119" />
<path d="M143.75 772.75l191.14 0l0 14.52l-191.14 0Z" id="p128w120" />
<path d="M124.06 816.58l10.25 0l0 18.84l-10.25 0Z" id="p128w121" />
<path d="M137.97 816.58l30.88 0l0 18.84l-30.88 0Z" id="p128w122" />
<path d="M172.5 816.58l27.88 0l0 18.84l-27.88 0Z" id="p128w123" />
<path d="M204.02 816.58l13.62 0l0 18.84l-13.62 0Z" id="p128w124" />
<path d="M221.3 816.58l29.63 0l0 18.84l-29.63 0Z" id="p128w125" />
<path d="M254.58 816.58l67.08 0l0 18.84l-67.08 0Z" id="p128w126" />
<path d="M325.31 816.58l43.75 0l0 18.84l-43.75 0Z" id="p128w127" />
<path d="M143.76 847.78l229.63 0l0 14.52l-229.63 0Z" id="p128w128" />
<path d="M373.38 847.72l55.45 0l0 14.6l-55.45 0Z" id="p128w129" />
<path d="M143.76 864.45l243.69 0l0 14.52l-243.69 0Z" id="p128w130" />
<path d="M143.76 881.12l160.09 0l0 14.52l-160.09 0Z" id="p128w131" />
<path d="M143.76 906.14l291.97 0l0 14.52l-291.97 0Z" id="p128w132" />
<path d="M143.76 922.81l313.14 0l0 14.52l-313.14 0Z" id="p128w133" />
<path d="M143.76 939.48l231.4 0l0 14.52l-231.4 0Z" id="p128w134" />
<path d="M73.54 271.57l15.07 0l0 12.29l-15.07 0Z" id="p128w135" />
<path d="M52.89 291.08l35.72 0l0 12.3l-35.72 0Z" id="p128w136" />
<path d="M39.49 303.59l49.13 0l0 12.3l-49.13 0Z" id="p128w137" />
<path d="M60.85 474.42l27.93 0l0 12.29l-27.93 0Z" id="p128w138" />
<path d="M148.2 589.33l75.21 0l0 14.52l-75.21 0Z" id="p128w139" />
<path d="M245.07 589.33l112.47 0l0 14.52l-112.47 0Z" id="p128w140" />
<path d="M379.21 589.33l85.81 0l0 14.52l-85.81 0Z" id="p128w141" />
<path d="M486.67 589.33l72.17 0l0 14.52l-72.17 0Z" id="p128w142" />
<path d="M148.2 617.78l84.2 0l0 14.52l-84.2 0Z" id="p128w143" />
<path d="M254.06 617.78l85.84 0l0 14.52l-85.84 0Z" id="p128w144" />
<path d="M364.81 617.78l67.63 0l0 14.52l-67.63 0Z" id="p128w145" />
<path d="M455.18 617.78l80.73 0l0 14.52l-80.73 0Z" id="p128w146" />
<path d="M149.17 729.59l97.41 0l0 14.52l-97.41 0Z" id="p128w147" />
<path d="M272.18 729.59l69.18 0l0 14.52l-69.18 0Z" id="p128w148" />
<path d="M366.96 729.59l73.52 0l0 14.52l-73.52 0Z" id="p128w149" />
<path d="M466.07 729.59l78.85 0l0 14.52l-78.85 0Z" id="p128w150" />
<path d="M609.63 801.37l65.22 0l0 12.56l-65.22 0Z" id="p128w151" />
<path d="M478.04 828.25l12.86 0l0 14.6l-12.86 0Z" id="p128w152" />
<path d="M494.1 828.25l55.45 0l0 14.6l-55.45 0Z" id="p128w153" />
<path d="M478.04 844.98l214.4 0l0 14.52l-214.4 0Z" id="p128w154" />
<path d="M478.04 861.65l180.83 0l0 14.52l-180.83 0Z" id="p128w155" />
<path d="M478.04 878.32l207.52 0l0 14.52l-207.52 0Z" id="p128w156" />
<path d="M478.04 894.99l172.49 0l0 14.52l-172.49 0Z" id="p128w157" />
<path d="M478.04 911.67l207.44 0l0 14.52l-207.44 0Z" id="p128w158" />
<path d="M478.04 928.34l178.77 0l0 14.52l-178.77 0Z" id="p128w159" />
<path d="M124.06 39.02l42.02 0l0 15.38l-42.02 0Z" id="p128w160" />
<path d="M208.73 39.02l43.21 0l0 15.38l-43.21 0Z" id="p128w161" />
<path d="M307.2 38.6l45.06 0l0 16.09l-45.06 0Z" id="p128w162" />
<path d="M414.72 39.02l28.68 0l0 15.38l-28.68 0Z" id="p128w163" />
<path d="M446.78 39.02l44.38 0l0 15.38l-44.38 0Z" id="p128w164" />
<path d="M524.22 39.02l32.54 0l0 15.38l-32.54 0Z" id="p128w165" />
<path d="M76.9 983l62.83 0l0 12.23l-62.83 0Z" id="p128w166" />
</svg>
