<?xml version="1.0" encoding="UTF-8"?>
<svg xmlns="http://www.w3.org/2000/svg" xmlns:xlink="http://www.w3.org/1999/xlink" version="1.1" baseProfile="full" width="768" height="1024" viewBox="0,0,768,1024" preserveAspectRatio="xMinYMin meet" >
<style type="text/css">
<![CDATA[
path {fill-opacity: 0.5;fill: #00aeef;visibility: hidden;}
]]>
</style>
<path d="M124.06 114.18l39.28 0l0 14.52l-39.28 0Z" id="p27w1" />
<path d="M166.55 114.18l15.5 0l0 14.52l-15.5 0Z" id="p27w2" />
<path d="M185.25 114.18l36.88 0l0 14.52l-36.88 0Z" id="p27w3" />
<path d="M225.34 114.18l29.66 0l0 14.52l-29.66 0Z" id="p27w4" />
<path d="M258.21 114.18l68.68 0l0 14.52l-68.68 0Z" id="p27w5" />
<path d="M339.98 114.18l5.61 0l0 14.52l-5.61 0Z" id="p27w6" />
<path d="M345.59 114.11l51.97 0l0 14.6l-51.97 0Z" id="p27w7" />
<path d="M400.76 114.18l13.91 0l0 14.52l-13.91 0Z" id="p27w8" />
<path d="M417.88 114.18l13.63 0l0 14.52l-13.63 0Z" id="p27w9" />
<path d="M434.72 114.11l32.05 0l0 14.6l-32.05 0Z" id="p27w10" />
<path d="M469.98 114.11l49.97 0l0 14.6l-49.97 0Z" id="p27w11" />
<path d="M124.06 139.19l36.63 0l0 14.52l-36.63 0Z" id="p27w12" />
<path d="M163.9 139.19l31.28 0l0 14.52l-31.28 0Z" id="p27w13" />
<path d="M198.39 139.19l11.22 0l0 14.52l-11.22 0Z" id="p27w14" />
<path d="M212.81 139.19l12.29 0l0 14.52l-12.29 0Z" id="p27w15" />
<path d="M228.31 139.19l33.67 0l0 14.52l-33.67 0Z" id="p27w16" />
<path d="M284.15 139.19l47.29 0l0 14.52l-47.29 0Z" id="p27w17" />
<path d="M334.65 139.19l13.9 0l0 14.52l-13.9 0Z" id="p27w18" />
<path d="M351.75 139.19l63.66 0l0 14.52l-63.66 0Z" id="p27w19" />
<path d="M418.62 139.19l15.5 0l0 14.52l-15.5 0Z" id="p27w20" />
<path d="M437.33 139.19l42.49 0l0 14.52l-42.49 0Z" id="p27w21" />
<path d="M483.02 139.19l15.5 0l0 14.52l-15.5 0Z" id="p27w22" />
<path d="M520.68 139.19l56.65 0l0 14.52l-56.65 0Z" id="p27w23" />
<path d="M590.43 139.19l9.89 0l0 14.52l-9.89 0Z" id="p27w24" />
<path d="M603.52 139.19l27.73 0l0 14.52l-27.73 0Z" id="p27w25" />
<path d="M124.06 155.86l18.44 0l0 14.52l-18.44 0Z" id="p27w26" />
<path d="M145.7 155.86l35 0l0 14.52l-35 0Z" id="p27w27" />
<path d="M202.88 155.86l30.99 0l0 14.52l-30.99 0Z" id="p27w28" />
<path d="M237.08 155.86l48.65 0l0 14.52l-48.65 0Z" id="p27w29" />
<path d="M288.94 155.86l13.9 0l0 14.52l-13.9 0Z" id="p27w30" />
<path d="M306.05 155.86l21.38 0l0 14.52l-21.38 0Z" id="p27w31" />
<path d="M330.64 155.86l42.18 0l0 14.52l-42.18 0Z" id="p27w32" />
<path d="M376.03 155.86l12.57 0l0 14.52l-12.57 0Z" id="p27w33" />
<path d="M410.76 155.86l55.33 0l0 14.52l-55.33 0Z" id="p27w34" />
<path d="M479.19 155.86l26.99 0l0 14.52l-26.99 0Z" id="p27w35" />
<path d="M509.39 155.86l42.49 0l0 14.52l-42.49 0Z" id="p27w36" />
<path d="M132.7 172.53l15.77 0l0 14.52l-15.77 0Z" id="p27w37" />
<path d="M170.65 172.53l42.49 0l0 14.52l-42.49 0Z" id="p27w38" />
<path d="M216.34 172.53l29.67 0l0 14.52l-29.67 0Z" id="p27w39" />
<path d="M249.22 172.53l9.89 0l0 14.52l-9.89 0Z" id="p27w40" />
<path d="M262.32 172.53l22.45 0l0 14.52l-22.45 0Z" id="p27w41" />
<path d="M287.98 172.53l11.22 0l0 14.52l-11.22 0Z" id="p27w42" />
<path d="M302.4 172.53l6.41 0l0 14.52l-6.41 0Z" id="p27w43" />
<path d="M330.99 172.53l33.94 0l0 14.52l-33.94 0Z" id="p27w44" />
<path d="M368.13 172.53l31.01 0l0 14.52l-31.01 0Z" id="p27w45" />
<path d="M402.34 172.53l27.53 0l0 14.52l-27.53 0Z" id="p27w46" />
<path d="M433.08 172.53l22.99 0l0 14.52l-22.99 0Z" id="p27w47" />
<path d="M459.28 172.53l9.89 0l0 14.52l-9.89 0Z" id="p27w48" />
<path d="M472.38 172.53l35 0l0 14.52l-35 0Z" id="p27w49" />
<path d="M124.06 189.2l46.51 0l0 14.52l-46.51 0Z" id="p27w50" />
<path d="M173.78 189.2l20.85 0l0 14.52l-20.85 0Z" id="p27w51" />
<path d="M197.84 189.2l15.5 0l0 14.52l-15.5 0Z" id="p27w52" />
<path d="M216.55 189.2l42.49 0l0 14.52l-42.49 0Z" id="p27w53" />
<path d="M281.2 189.21l50.79 0l0 14.52l-50.79 0Z" id="p27w54" />
<path d="M335.2 189.21l26.99 0l0 14.52l-26.99 0Z" id="p27w55" />
<path d="M365.4 189.21l50.25 0l0 14.52l-50.25 0Z" id="p27w56" />
<path d="M418.86 189.21l49.17 0l0 14.52l-49.17 0Z" id="p27w57" />
<path d="M471.24 189.21l47.85 0l0 14.52l-47.85 0Z" id="p27w58" />
<path d="M522.29 189.21l17.38 0l0 14.52l-17.38 0Z" id="p27w59" />
<path d="M561.84 189.21l47.32 0l0 14.52l-47.32 0Z" id="p27w60" />
<path d="M124.06 205.88l44.11 0l0 14.52l-44.11 0Z" id="p27w61" />
<path d="M171.38 205.88l17.9 0l0 14.52l-17.9 0Z" id="p27w62" />
<path d="M192.48 205.88l44.36 0l0 14.52l-44.36 0Z" id="p27w63" />
<path d="M259.02 205.88l57.21 0l0 14.52l-57.21 0Z" id="p27w64" />
<path d="M319.43 205.88l17.9 0l0 14.52l-17.9 0Z" id="p27w65" />
<path d="M340.54 205.88l45.43 0l0 14.52l-45.43 0Z" id="p27w66" />
<path d="M389.17 205.88l13.9 0l0 14.52l-13.9 0Z" id="p27w67" />
<path d="M406.28 205.88l31.55 0l0 14.52l-31.55 0Z" id="p27w68" />
<path d="M440.68 205.88l23.81 0l0 14.52l-23.81 0Z" id="p27w69" />
<path d="M477.58 205.88l29.7 0l0 14.52l-29.7 0Z" id="p27w70" />
<path d="M510.49 205.88l19.77 0l0 14.52l-19.77 0Z" id="p27w71" />
<path d="M552.43 205.88l33.41 0l0 14.52l-33.41 0Z" id="p27w72" />
<path d="M132.7 222.55l15.77 0l0 14.52l-15.77 0Z" id="p27w73" />
<path d="M151.68 222.55l21.4 0l0 14.52l-21.4 0Z" id="p27w74" />
<path d="M183.24 222.55l10.43 0l0 14.52l-10.43 0Z" id="p27w75" />
<path d="M201.92 222.55l6.15 0l0 14.52l-6.15 0Z" id="p27w76" />
<path d="M230.24 222.55l47.32 0l0 14.52l-47.32 0Z" id="p27w77" />
<path d="M280.77 222.55l23.24 0l0 14.52l-23.24 0Z" id="p27w78" />
<path d="M307.22 222.55l45.43 0l0 14.52l-45.43 0Z" id="p27w79" />
<path d="M355.86 222.55l13.9 0l0 14.52l-13.9 0Z" id="p27w80" />
<path d="M372.97 222.55l28.87 0l0 14.52l-28.87 0Z" id="p27w81" />
<path d="M405.04 222.55l26.73 0l0 14.52l-26.73 0Z" id="p27w82" />
<path d="M434.98 222.55l9.89 0l0 14.52l-9.89 0Z" id="p27w83" />
<path d="M448.07 222.55l25.92 0l0 14.52l-25.92 0Z" id="p27w84" />
<path d="M492.8 222.55l19.24 0l0 14.52l-19.24 0Z" id="p27w85" />
<path d="M515.25 222.55l13.9 0l0 14.52l-13.9 0Z" id="p27w86" />
<path d="M532.36 222.55l52.89 0l0 14.52l-52.89 0Z" id="p27w87" />
<path d="M124.07 255.89l59.34 0l0 14.52l-59.34 0Z" id="p27w88" />
<path d="M186.62 255.89l15.5 0l0 14.52l-15.5 0Z" id="p27w89" />
<path d="M205.32 255.89l45.97 0l0 14.52l-45.97 0Z" id="p27w90" />
<path d="M254.5 255.89l40.63 0l0 14.52l-40.63 0Z" id="p27w91" />
<path d="M298.34 255.83l23.4 0l0 14.6l-23.4 0Z" id="p27w92" />
<path d="M324.95 255.83l10.02 0l0 14.6l-10.02 0Z" id="p27w93" />
<path d="M343.37 255.83l6.07 0l0 14.6l-6.07 0Z" id="p27w94" />
<path d="M355.33 255.83l30.08 0l0 14.6l-30.08 0Z" id="p27w95" />
<path d="M388.62 255.83l10.03 0l0 14.6l-10.03 0Z" id="p27w96" />
<path d="M407.06 255.83l6.07 0l0 14.6l-6.07 0Z" id="p27w97" />
<path d="M419.02 255.83l24.46 0l0 14.6l-24.46 0Z" id="p27w98" />
<path d="M446.68 255.83l15.76 0l0 14.6l-15.76 0Z" id="p27w99" />
<path d="M468.33 255.83l35.82 0l0 14.6l-35.82 0Z" id="p27w100" />
<path d="M507.36 255.83l15.76 0l0 14.6l-15.76 0Z" id="p27w101" />
<path d="M136.72 422.62l12.41 0l0 14.52l-12.41 0Z" id="p27w102" />
<path d="M152.33 422.62l12.29 0l0 14.52l-12.29 0Z" id="p27w103" />
<path d="M167.83 422.62l13.11 0l0 14.52l-13.11 0Z" id="p27w104" />
<path d="M203.11 422.63l48.64 0l0 14.52l-48.64 0Z" id="p27w105" />
<path d="M136.73 439.3l15.77 0l0 14.52l-15.77 0Z" id="p27w106" />
<path d="M155.71 439.3l13.9 0l0 14.52l-13.9 0Z" id="p27w107" />
<path d="M172.81 439.3l12.66 0l0 14.52l-12.66 0Z" id="p27w108" />
<path d="M188.68 439.3l36.07 0l0 14.52l-36.07 0Z" id="p27w109" />
<path d="M227.96 439.3l34.2 0l0 14.52l-34.2 0Z" id="p27w110" />
<path d="M136.73 455.97l26.73 0l0 14.52l-26.73 0Z" id="p27w111" />
<path d="M166.66 455.97l9.89 0l0 14.52l-9.89 0Z" id="p27w112" />
<path d="M179.76 455.97l59.07 0l0 14.52l-59.07 0Z" id="p27w113" />
<path d="M137.08 472.64l40.65 0l0 14.52l-40.65 0Z" id="p27w114" />
<path d="M180.94 472.64l14.18 0l0 14.52l-14.18 0Z" id="p27w115" />
<path d="M227.17 472.64l41.97 0l0 14.52l-41.97 0Z" id="p27w116" />
<path d="M137.08 489.32l25.67 0l0 14.52l-25.67 0Z" id="p27w117" />
<path d="M165.96 489.32l9.89 0l0 14.52l-9.89 0Z" id="p27w118" />
<path d="M179.06 489.32l33.94 0l0 14.52l-33.94 0Z" id="p27w119" />
<path d="M338.5 422.62l23.8 0l0 14.52l-23.8 0Z" id="p27w120" />
<path d="M365.51 422.62l9.62 0l0 14.52l-9.62 0Z" id="p27w121" />
<path d="M378.34 422.62l25.67 0l0 14.52l-25.67 0Z" id="p27w122" />
<path d="M407.22 422.62l20.85 0l0 14.52l-20.85 0Z" id="p27w123" />
<path d="M338.51 439.3l44.36 0l0 14.52l-44.36 0Z" id="p27w124" />
<path d="M386.08 439.3l52.67 0l0 14.52l-52.67 0Z" id="p27w125" />
<path d="M338.51 455.97l11.5 0l0 14.52l-11.5 0Z" id="p27w126" />
<path d="M353.21 455.97l23.8 0l0 14.52l-23.8 0Z" id="p27w127" />
<path d="M380.22 455.97l9.62 0l0 14.52l-9.62 0Z" id="p27w128" />
<path d="M393.05 455.97l25.67 0l0 14.52l-25.67 0Z" id="p27w129" />
<path d="M421.93 455.97l43.23 0l0 14.52l-43.23 0Z" id="p27w130" />
<path d="M338.51 472.64l58.53 0l0 14.52l-58.53 0Z" id="p27w131" />
<path d="M400.24 472.64l67.36 0l0 14.52l-67.36 0Z" id="p27w132" />
<path d="M540.01 422.63l30.21 0l0 14.52l-30.21 0Z" id="p27w133" />
<path d="M573.43 422.63l9.62 0l0 14.52l-9.62 0Z" id="p27w134" />
<path d="M586.26 422.63l42.78 0l0 14.52l-42.78 0Z" id="p27w135" />
<path d="M651.19 422.63l41.96 0l0 14.52l-41.96 0Z" id="p27w136" />
<path d="M540 439.3l66.56 0l0 14.52l-66.56 0Z" id="p27w137" />
<path d="M609.77 439.3l64.94 0l0 14.52l-64.94 0Z" id="p27w138" />
<path d="M540 455.97l11.5 0l0 14.52l-11.5 0Z" id="p27w139" />
<path d="M554.71 455.97l28.06 0l0 14.52l-28.06 0Z" id="p27w140" />
<path d="M604.93 455.97l53.11 0l0 14.52l-53.11 0Z" id="p27w141" />
<path d="M540 472.64l53.46 0l0 14.52l-53.46 0Z" id="p27w142" />
<path d="M596.67 472.64l21.4 0l0 14.52l-21.4 0Z" id="p27w143" />
<path d="M124.07 522.65l59.34 0l0 14.52l-59.34 0Z" id="p27w144" />
<path d="M186.62 522.65l15.5 0l0 14.52l-15.5 0Z" id="p27w145" />
<path d="M205.32 522.65l43.29 0l0 14.52l-43.29 0Z" id="p27w146" />
<path d="M251.82 522.65l18.44 0l0 14.52l-18.44 0Z" id="p27w147" />
<path d="M273.47 522.65l15.5 0l0 14.52l-15.5 0Z" id="p27w148" />
<path d="M292.17 522.59l36.94 0l0 14.6l-36.94 0Z" id="p27w149" />
<path d="M332.33 522.59l74.42 0l0 14.6l-74.42 0Z" id="p27w150" />
<path d="M409.95 522.59l13.78 0l0 14.6l-13.78 0Z" id="p27w151" />
<path d="M426.94 522.59l32.05 0l0 14.6l-32.05 0Z" id="p27w152" />
<path d="M462.19 522.59l49.97 0l0 14.6l-49.97 0Z" id="p27w153" />
<path d="M124.07 547.67l13.9 0l0 14.52l-13.9 0Z" id="p27w154" />
<path d="M141.17 547.67l35.28 0l0 14.52l-35.28 0Z" id="p27w155" />
<path d="M179.66 547.67l49.17 0l0 14.52l-49.17 0Z" id="p27w156" />
<path d="M232.04 547.67l47.85 0l0 14.52l-47.85 0Z" id="p27w157" />
<path d="M302.05 547.67l16.57 0l0 14.52l-16.57 0Z" id="p27w158" />
<path d="M321.82 547.67l31.53 0l0 14.52l-31.53 0Z" id="p27w159" />
<path d="M376.07 547.67l40.36 0l0 14.52l-40.36 0Z" id="p27w160" />
<path d="M124.07 564.34l52.12 0l0 14.52l-52.12 0Z" id="p27w161" />
<path d="M178.96 564.34l37.7 0l0 14.52l-37.7 0Z" id="p27w162" />
<path d="M219.87 564.34l11.22 0l0 14.52l-11.22 0Z" id="p27w163" />
<path d="M234.29 564.34l19.77 0l0 14.52l-19.77 0Z" id="p27w164" />
<path d="M276.23 564.35l16.57 0l0 14.52l-16.57 0Z" id="p27w165" />
<path d="M296 564.35l55.6 0l0 14.52l-55.6 0Z" id="p27w166" />
<path d="M364.69 564.35l9.89 0l0 14.52l-9.89 0Z" id="p27w167" />
<path d="M377.78 564.35l27.73 0l0 14.52l-27.73 0Z" id="p27w168" />
<path d="M124.06 591.13l24.42 0l0 12.29l-24.42 0Z" id="p27w169" />
<path d="M151.18 591.13l40.45 0l0 12.29l-40.45 0Z" id="p27w170" />
<path d="M200.46 589.35l13.9 0l0 14.52l-13.9 0Z" id="p27w171" />
<path d="M217.57 589.35l15.34 0l0 14.52l-15.34 0Z" id="p27w172" />
<path d="M236.11 589.35l14.7 0l0 14.52l-14.7 0Z" id="p27w173" />
<path d="M261.96 589.35l12.41 0l0 14.52l-12.41 0Z" id="p27w174" />
<path d="M277.57 589.35l12.29 0l0 14.52l-12.29 0Z" id="p27w175" />
<path d="M293.07 589.35l19.6 0l0 14.52l-19.6 0Z" id="p27w176" />
<path d="M315.88 589.35l52.81 0l0 14.52l-52.81 0Z" id="p27w177" />
<path d="M371.54 589.35l12.41 0l0 14.52l-12.41 0Z" id="p27w178" />
<path d="M406.11 589.35l16.57 0l0 14.52l-16.57 0Z" id="p27w179" />
<path d="M425.88 589.35l48.4 0l0 14.52l-48.4 0Z" id="p27w180" />
<path d="M477.49 589.35l22.72 0l0 14.52l-22.72 0Z" id="p27w181" />
<path d="M138.32 607.8l32.11 0l0 12.29l-32.11 0Z" id="p27w182" />
<path d="M179.27 606.03l25.41 0l0 14.52l-25.41 0Z" id="p27w183" />
<path d="M207.88 606.03l9.62 0l0 14.52l-9.62 0Z" id="p27w184" />
<path d="M239.67 606.03l18.18 0l0 14.52l-18.18 0Z" id="p27w185" />
<path d="M261.05 606.03l19.51 0l0 14.52l-19.51 0Z" id="p27w186" />
<path d="M283.77 606.03l12.29 0l0 14.52l-12.29 0Z" id="p27w187" />
<path d="M299.27 606.03l48.4 0l0 14.52l-48.4 0Z" id="p27w188" />
<path d="M350.88 606.03l25.4 0l0 14.52l-25.4 0Z" id="p27w189" />
<path d="M379.48 606.03l26.45 0l0 14.52l-26.45 0Z" id="p27w190" />
<path d="M409.14 606.03l6.41 0l0 14.52l-6.41 0Z" id="p27w191" />
<path d="M427.85 606.03l27.08 0l0 14.52l-27.08 0Z" id="p27w192" />
<path d="M458.15 606.03l20.85 0l0 14.52l-20.85 0Z" id="p27w193" />
<path d="M482.21 606.03l22.17 0l0 14.52l-22.17 0Z" id="p27w194" />
<path d="M507.59 606.03l25.67 0l0 14.52l-25.67 0Z" id="p27w195" />
<path d="M536.47 606.03l15.5 0l0 14.52l-15.5 0Z" id="p27w196" />
<path d="M555.17 606.03l44.64 0l0 14.52l-44.64 0Z" id="p27w197" />
<path d="M143.75 622.7l25.38 0l0 14.52l-25.38 0Z" id="p27w198" />
<path d="M191.3 622.7l57.55 0l0 14.52l-57.55 0Z" id="p27w199" />
<path d="M252.06 622.7l29.67 0l0 14.52l-29.67 0Z" id="p27w200" />
<path d="M284.94 622.7l9.89 0l0 14.52l-9.89 0Z" id="p27w201" />
<path d="M298.03 622.7l24.6 0l0 14.52l-24.6 0Z" id="p27w202" />
<path d="M325.84 622.7l11.22 0l0 14.52l-11.22 0Z" id="p27w203" />
<path d="M340.27 622.7l17.63 0l0 14.52l-17.63 0Z" id="p27w204" />
<path d="M361.11 622.7l39.55 0l0 14.52l-39.55 0Z" id="p27w205" />
<path d="M403.87 622.7l11.22 0l0 14.52l-11.22 0Z" id="p27w206" />
<path d="M418.29 622.7l23.8 0l0 14.52l-23.8 0Z" id="p27w207" />
<path d="M445.3 622.7l26.74 0l0 14.52l-26.74 0Z" id="p27w208" />
<path d="M494.2 622.7l58.53 0l0 14.52l-58.53 0Z" id="p27w209" />
<path d="M555.94 622.7l31.01 0l0 14.52l-31.01 0Z" id="p27w210" />
<path d="M590.15 622.7l20.85 0l0 14.52l-20.85 0Z" id="p27w211" />
<path d="M143.75 639.37l26.74 0l0 14.52l-26.74 0Z" id="p27w212" />
<path d="M173.7 639.37l13.9 0l0 14.52l-13.9 0Z" id="p27w213" />
<path d="M190.81 639.37l50.28 0l0 14.52l-50.28 0Z" id="p27w214" />
<path d="M244.29 639.37l19.51 0l0 14.52l-19.51 0Z" id="p27w215" />
<path d="M267 639.37l38.78 0l0 14.52l-38.78 0Z" id="p27w216" />
<path d="M124.06 683.2l27.54 0l0 18.84l-27.54 0Z" id="p27w217" />
<path d="M155.26 683.2l37.06 0l0 18.84l-37.06 0Z" id="p27w218" />
<path d="M195.97 683.2l21.46 0l0 18.84l-21.46 0Z" id="p27w219" />
<path d="M221.08 683.2l39.7 0l0 18.84l-39.7 0Z" id="p27w220" />
<path d="M124.06 714.4l50.43 0l0 14.52l-50.43 0Z" id="p27w221" />
<path d="M177.7 714.4l20.85 0l0 14.52l-20.85 0Z" id="p27w222" />
<path d="M201.77 714.4l25.67 0l0 14.52l-25.67 0Z" id="p27w223" />
<path d="M230.65 714.4l27.26 0l0 14.52l-27.26 0Z" id="p27w224" />
<path d="M261.11 714.4l13.9 0l0 14.52l-13.9 0Z" id="p27w225" />
<path d="M278.22 714.4l43.83 0l0 14.52l-43.83 0Z" id="p27w226" />
<path d="M143.75 739.41l15.25 0l0 14.52l-15.25 0Z" id="p27w227" />
<path d="M162.21 739.41l32.27 0l0 14.52l-32.27 0Z" id="p27w228" />
<path d="M197.69 739.41l25.12 0l0 14.52l-25.12 0Z" id="p27w229" />
<path d="M226.01 739.41l14.18 0l0 14.52l-14.18 0Z" id="p27w230" />
<path d="M243.4 739.41l32.07 0l0 14.52l-32.07 0Z" id="p27w231" />
<path d="M278.68 739.41l43.33 0l0 14.52l-43.33 0Z" id="p27w232" />
<path d="M325.22 739.41l22.99 0l0 14.52l-22.99 0Z" id="p27w233" />
<path d="M351.42 739.41l76.91 0l0 14.52l-76.91 0Z" id="p27w234" />
<path d="M431.54 739.41l23.26 0l0 14.52l-23.26 0Z" id="p27w235" />
<path d="M143.75 756.08l15.25 0l0 14.52l-15.25 0Z" id="p27w236" />
<path d="M162.21 756.08l44.63 0l0 14.52l-44.63 0Z" id="p27w237" />
<path d="M210.04 756.08l25.12 0l0 14.52l-25.12 0Z" id="p27w238" />
<path d="M238.37 756.08l14.18 0l0 14.52l-14.18 0Z" id="p27w239" />
<path d="M255.75 756.08l10.43 0l0 14.52l-10.43 0Z" id="p27w240" />
<path d="M269.38 756.08l21.12 0l0 14.52l-21.12 0Z" id="p27w241" />
<path d="M293.71 756.08l34.48 0l0 14.52l-34.48 0Z" id="p27w242" />
<path d="M331.4 756.08l48.94 0l0 14.52l-48.94 0Z" id="p27w243" />
<path d="M383.55 756.08l30.94 0l0 14.52l-30.94 0Z" id="p27w244" />
<path d="M417.69 756.08l60.61 0l0 14.52l-60.61 0Z" id="p27w245" />
<path d="M481.51 756.08l26.73 0l0 14.52l-26.73 0Z" id="p27w246" />
<path d="M143.75 772.75l15.25 0l0 14.52l-15.25 0Z" id="p27w247" />
<path d="M162.21 772.75l32.27 0l0 14.52l-32.27 0Z" id="p27w248" />
<path d="M197.69 772.75l25.12 0l0 14.52l-25.12 0Z" id="p27w249" />
<path d="M226.01 772.75l12.29 0l0 14.52l-12.29 0Z" id="p27w250" />
<path d="M241.51 772.75l42.42 0l0 14.52l-42.42 0Z" id="p27w251" />
<path d="M287.14 772.75l50.65 0l0 14.52l-50.65 0Z" id="p27w252" />
<path d="M340.99 772.75l21.12 0l0 14.52l-21.12 0Z" id="p27w253" />
<path d="M143.75 789.43l15.25 0l0 14.52l-15.25 0Z" id="p27w254" />
<path d="M162.21 789.43l46.78 0l0 14.52l-46.78 0Z" id="p27w255" />
<path d="M212.19 789.43l25.12 0l0 14.52l-25.12 0Z" id="p27w256" />
<path d="M240.52 789.43l14.18 0l0 14.52l-14.18 0Z" id="p27w257" />
<path d="M257.9 789.43l42.42 0l0 14.52l-42.42 0Z" id="p27w258" />
<path d="M303.53 789.43l34.21 0l0 14.52l-34.21 0Z" id="p27w259" />
<path d="M340.95 789.43l16.04 0l0 14.52l-16.04 0Z" id="p27w260" />
<path d="M360.2 789.43l76.19 0l0 14.52l-76.19 0Z" id="p27w261" />
<path d="M439.59 789.43l55.94 0l0 14.52l-55.94 0Z" id="p27w262" />
<path d="M498.74 789.43l20.58 0l0 14.52l-20.58 0Z" id="p27w263" />
<path d="M522.52 789.43l21.4 0l0 14.52l-21.4 0Z" id="p27w264" />
<path d="M547.12 789.43l28.34 0l0 14.52l-28.34 0Z" id="p27w265" />
<path d="M143.75 806.1l31.01 0l0 14.52l-31.01 0Z" id="p27w266" />
<path d="M177.97 806.1l80.66 0l0 14.52l-80.66 0Z" id="p27w267" />
<path d="M261.84 806.1l49.11 0l0 14.52l-49.11 0Z" id="p27w268" />
<path d="M314.16 806.1l26.73 0l0 14.52l-26.73 0Z" id="p27w269" />
<path d="M143.75 822.77l15.25 0l0 14.52l-15.25 0Z" id="p27w270" />
<path d="M162.21 822.77l32.27 0l0 14.52l-32.27 0Z" id="p27w271" />
<path d="M197.69 822.77l25.12 0l0 14.52l-25.12 0Z" id="p27w272" />
<path d="M226.01 822.77l17.11 0l0 14.52l-17.11 0Z" id="p27w273" />
<path d="M246.33 822.77l46.2 0l0 14.52l-46.2 0Z" id="p27w274" />
<path d="M295.73 822.77l31.01 0l0 14.52l-31.01 0Z" id="p27w275" />
<path d="M329.94 822.77l24.76 0l0 14.52l-24.76 0Z" id="p27w276" />
<path d="M143.75 839.44l15.25 0l0 14.52l-15.25 0Z" id="p27w277" />
<path d="M162.21 839.44l46.78 0l0 14.52l-46.78 0Z" id="p27w278" />
<path d="M212.19 839.44l25.12 0l0 14.52l-25.12 0Z" id="p27w279" />
<path d="M240.52 839.44l14.97 0l0 14.52l-14.97 0Z" id="p27w280" />
<path d="M258.69 839.44l49.35 0l0 14.52l-49.35 0Z" id="p27w281" />
<path d="M311.25 839.44l29.39 0l0 14.52l-29.39 0Z" id="p27w282" />
<path d="M343.86 839.44l69.48 0l0 14.52l-69.48 0Z" id="p27w283" />
<path d="M416.54 839.44l17.11 0l0 14.52l-17.11 0Z" id="p27w284" />
<path d="M436.59 839.44l119.06 0l0 14.52l-119.06 0Z" id="p27w285" />
<path d="M558.86 839.44l37.95 0l0 14.52l-37.95 0Z" id="p27w286" />
<path d="M143.75 856.11l15.25 0l0 14.52l-15.25 0Z" id="p27w287" />
<path d="M162.21 856.11l32.54 0l0 14.52l-32.54 0Z" id="p27w288" />
<path d="M197.95 856.11l58.27 0l0 14.52l-58.27 0Z" id="p27w289" />
<path d="M259.43 856.11l38.92 0l0 14.52l-38.92 0Z" id="p27w290" />
<path d="M301.56 856.11l11.22 0l0 14.52l-11.22 0Z" id="p27w291" />
<path d="M315.99 856.11l36.34 0l0 14.52l-36.34 0Z" id="p27w292" />
<path d="M355.54 856.11l21.12 0l0 14.52l-21.12 0Z" id="p27w293" />
<path d="M379.86 856.11l34.49 0l0 14.52l-34.49 0Z" id="p27w294" />
<path d="M417.56 856.11l39.82 0l0 14.52l-39.82 0Z" id="p27w295" />
<path d="M460.59 856.11l31.81 0l0 14.52l-31.81 0Z" id="p27w296" />
<path d="M143.75 872.78l15.25 0l0 14.52l-15.25 0Z" id="p27w297" />
<path d="M162.21 872.78l44.63 0l0 14.52l-44.63 0Z" id="p27w298" />
<path d="M210.04 872.78l25.12 0l0 14.52l-25.12 0Z" id="p27w299" />
<path d="M238.37 872.78l55.64 0l0 14.52l-55.64 0Z" id="p27w300" />
<path d="M297.21 872.78l36.63 0l0 14.52l-36.63 0Z" id="p27w301" />
<path d="M337.04 872.78l20.33 0l0 14.52l-20.33 0Z" id="p27w302" />
<path d="M360.58 872.78l26.99 0l0 14.52l-26.99 0Z" id="p27w303" />
<path d="M390.78 872.78l27.47 0l0 14.52l-27.47 0Z" id="p27w304" />
<path d="M143.75 889.45l15.25 0l0 14.52l-15.25 0Z" id="p27w305" />
<path d="M162.21 889.45l44.63 0l0 14.52l-44.63 0Z" id="p27w306" />
<path d="M210.04 889.45l25.12 0l0 14.52l-25.12 0Z" id="p27w307" />
<path d="M238.37 889.45l19.51 0l0 14.52l-19.51 0Z" id="p27w308" />
<path d="M261.08 889.45l33.67 0l0 14.52l-33.67 0Z" id="p27w309" />
<path d="M297.96 889.45l13.9 0l0 14.52l-13.9 0Z" id="p27w310" />
<path d="M315.07 889.45l18.44 0l0 14.52l-18.44 0Z" id="p27w311" />
<path d="M336.71 889.45l39.29 0l0 14.52l-39.29 0Z" id="p27w312" />
<path d="M379.22 889.45l12.84 0l0 14.52l-12.84 0Z" id="p27w313" />
<path d="M395.27 889.45l69.51 0l0 14.52l-69.51 0Z" id="p27w314" />
<path d="M467.98 889.45l27.47 0l0 14.52l-27.47 0Z" id="p27w315" />
<path d="M143.75 906.12l15.25 0l0 14.52l-15.25 0Z" id="p27w316" />
<path d="M162.21 906.12l32.54 0l0 14.52l-32.54 0Z" id="p27w317" />
<path d="M197.95 906.12l58.27 0l0 14.52l-58.27 0Z" id="p27w318" />
<path d="M259.43 906.12l14.18 0l0 14.52l-14.18 0Z" id="p27w319" />
<path d="M276.82 906.12l11.22 0l0 14.52l-11.22 0Z" id="p27w320" />
<path d="M291.24 906.12l18.44 0l0 14.52l-18.44 0Z" id="p27w321" />
<path d="M312.89 906.12l47.25 0l0 14.52l-47.25 0Z" id="p27w322" />
<path d="M363.35 906.12l49.39 0l0 14.52l-49.39 0Z" id="p27w323" />
<path d="M415.95 906.12l16.04 0l0 14.52l-16.04 0Z" id="p27w324" />
<path d="M76.64 116.02l11.64 0l0 12.3l-11.64 0Z" id="p27w325" />
<path d="M60.68 716.17l27.93 0l0 12.29l-27.93 0Z" id="p27w326" />
<path d="M68.27 39.02l42.71 0l0 15.38l-42.71 0Z" id="p27w327" />
<path d="M152.25 39.02l43.21 0l0 15.38l-43.21 0Z" id="p27w328" />
<path d="M250.71 39.02l43.21 0l0 15.38l-43.21 0Z" id="p27w329" />
<path d="M350.66 38.6l34.29 0l0 16.09l-34.29 0Z" id="p27w330" />
<path d="M527.54 26.71l16.09 0l0 13.93l-16.09 0Z" id="p27w331" />
<path d="M547.18 27.74l48.96 0l0 15.66l-48.96 0Z" id="p27w332" />
<path d="M599.68 30.49l10.89 0l0 13.66l-10.89 0Z" id="p27w333" />
<path d="M614.12 31.25l18.54 0l0 14.06l-18.54 0Z" id="p27w334" />
<path d="M526.67 43.36l75.35 0l0 17.04l-75.35 0Z" id="p27w335" />
<path d="M612.34 47.85l22.77 0l0 14.29l-22.77 0Z" id="p27w336" />
<path d="M525.8 60.01l13.22 0l0 13.78l-13.22 0Z" id="p27w337" />
<path d="M542.57 60.89l12.03 0l0 13.72l-12.03 0Z" id="p27w338" />
<path d="M558.15 61.71l25.27 0l0 14.42l-25.27 0Z" id="p27w339" />
<path d="M644.4 983l46.71 0l0 12.23l-46.71 0Z" id="p27w340" />
</svg>
