<?xml version="1.0" encoding="UTF-8"?>
<svg xmlns="http://www.w3.org/2000/svg" xmlns:xlink="http://www.w3.org/1999/xlink" version="1.1" baseProfile="full" width="768" height="1024" viewBox="0,0,768,1024" preserveAspectRatio="xMinYMin meet" >
<style type="text/css">
<![CDATA[
path {fill-opacity: 0.5;fill: #00aeef;visibility: hidden;}
]]>
</style>
<path d="M572.94 38.6l71 0l0 16.09l-71 0Z" id="p185w1" />
<path d="M584.16 983.66l105.07 0l0 12.23l-105.07 0Z" id="p185w2" />
<path d="M59.08 110.01l20.99 0l0 14.6l-20.99 0Z" id="p185w3" />
<path d="M83.27 110.01l44.59 0l0 14.6l-44.59 0Z" id="p185w4" />
<path d="M131.16 108.77l51.44 0l0 16.35l-51.44 0Z" id="p185w5" />
<path d="M232.37 110.09l23.79 0l0 14.52l-23.79 0Z" id="p185w6" />
<path d="M258.93 110.09l71.25 0l0 14.52l-71.25 0Z" id="p185w7" />
<path d="M435.2 114.41l44.36 0l0 14.61l-44.36 0Z" id="p185w8" />
<path d="M503.71 114.41l47.85 0l0 14.61l-47.85 0Z" id="p185w9" />
<path d="M59.07 132.47l10.03 0l0 14.6l-10.03 0Z" id="p185w10" />
<path d="M72.31 132.47l47.12 0l0 14.6l-47.12 0Z" id="p185w11" />
<path d="M122.64 132.47l37.96 0l0 14.6l-37.96 0Z" id="p185w12" />
<path d="M163.81 132.47l52.4 0l0 14.6l-52.4 0Z" id="p185w13" />
<path d="M59.07 147.9l105.48 0l0 16.35l-105.48 0Z" id="p185w14" />
<path d="M232.37 132.55l18.44 0l0 14.52l-18.44 0Z" id="p185w15" />
<path d="M254.02 132.55l37.5 0l0 14.52l-37.5 0Z" id="p185w16" />
<path d="M294.46 132.55l52.85 0l0 14.52l-52.85 0Z" id="p185w17" />
<path d="M232.37 149.19l64.52 0l0 14.52l-64.52 0Z" id="p185w18" />
<path d="M59.07 167.29l14.31 0l0 14.6l-14.31 0Z" id="p185w19" />
<path d="M76.59 167.29l36.23 0l0 14.6l-36.23 0Z" id="p185w20" />
<path d="M116.12 166.04l41.34 0l0 16.35l-41.34 0Z" id="p185w21" />
<path d="M232.37 167.36l17.11 0l0 14.52l-17.11 0Z" id="p185w22" />
<path d="M252.33 167.36l36.73 0l0 14.52l-36.73 0Z" id="p185w23" />
<path d="M439.15 165.63l35.74 0l0 16.35l-35.74 0Z" id="p185w24" />
<path d="M59.07 187.99l10.03 0l0 14.6l-10.03 0Z" id="p185w25" />
<path d="M72.31 187.99l35.95 0l0 14.6l-35.95 0Z" id="p185w26" />
<path d="M111.57 186.75l54.47 0l0 16.35l-54.47 0Z" id="p185w27" />
<path d="M232.37 188.07l17.11 0l0 14.52l-17.11 0Z" id="p185w28" />
<path d="M252.42 188.07l67.86 0l0 14.52l-67.86 0Z" id="p185w29" />
<path d="M323.48 188.07l17.11 0l0 14.52l-17.11 0Z" id="p185w30" />
<path d="M343.8 188.07l42.84 0l0 14.52l-42.84 0Z" id="p185w31" />
<path d="M417.48 188.07l33.33 0l0 14.52l-33.33 0Z" id="p185w32" />
<path d="M454.01 188.07l20.85 0l0 14.52l-20.85 0Z" id="p185w33" />
<path d="M478.07 188.07l24.85 0l0 14.52l-24.85 0Z" id="p185w34" />
<path d="M506.13 188.07l14.18 0l0 14.52l-14.18 0Z" id="p185w35" />
<path d="M523.52 188.07l24.05 0l0 14.52l-24.05 0Z" id="p185w36" />
<path d="M550.77 188.07l13.91 0l0 14.52l-13.91 0Z" id="p185w37" />
<path d="M567.89 188.07l9.89 0l0 14.52l-9.89 0Z" id="p185w38" />
<path d="M580.99 188.07l35.53 0l0 14.52l-35.53 0Z" id="p185w39" />
<path d="M435.2 204.76l34.67 0l0 14.61l-34.67 0Z" id="p185w40" />
<path d="M59.08 222.82l110.04 0l0 14.6l-110.04 0Z" id="p185w41" />
<path d="M59.08 238.25l85.04 0l0 16.35l-85.04 0Z" id="p185w42" />
<path d="M232.37 222.9l70 0l0 14.52l-70 0Z" id="p185w43" />
<path d="M305.57 222.9l40.85 0l0 14.52l-40.85 0Z" id="p185w44" />
<path d="M232.37 239.57l85.28 0l0 14.52l-85.28 0Z" id="p185w45" />
<path d="M417.48 222.9l19.51 0l0 14.52l-19.51 0Z" id="p185w46" />
<path d="M440.19 222.9l11.22 0l0 14.52l-11.22 0Z" id="p185w47" />
<path d="M454.62 222.9l35.56 0l0 14.52l-35.56 0Z" id="p185w48" />
<path d="M493.39 222.9l24.33 0l0 14.52l-24.33 0Z" id="p185w49" />
<path d="M520.92 222.9l36.63 0l0 14.52l-36.63 0Z" id="p185w50" />
<path d="M560.76 222.9l26.45 0l0 14.52l-26.45 0Z" id="p185w51" />
<path d="M590.41 222.9l25.38 0l0 14.52l-25.38 0Z" id="p185w52" />
<path d="M619 222.9l24.33 0l0 14.52l-24.33 0Z" id="p185w53" />
<path d="M417.48 239.57l21.37 0l0 14.52l-21.37 0Z" id="p185w54" />
<path d="M442.05 239.57l63.34 0l0 14.52l-63.34 0Z" id="p185w55" />
<path d="M435.2 256.25l48.38 0l0 14.61l-48.38 0Z" id="p185w56" />
<path d="M59.08 274.31l14.31 0l0 14.6l-14.31 0Z" id="p185w57" />
<path d="M76.59 274.31l53.91 0l0 14.6l-53.91 0Z" id="p185w58" />
<path d="M133.8 273.07l61.76 0l0 16.35l-61.76 0Z" id="p185w59" />
<path d="M232.37 274.39l17.11 0l0 14.52l-17.11 0Z" id="p185w60" />
<path d="M252.68 274.39l53.99 0l0 14.52l-53.99 0Z" id="p185w61" />
<path d="M417.48 274.39l15.6 0l0 14.52l-15.6 0Z" id="p185w62" />
<path d="M436.29 274.39l22.17 0l0 14.52l-22.17 0Z" id="p185w63" />
<path d="M461.67 274.39l9.89 0l0 14.52l-9.89 0Z" id="p185w64" />
<path d="M474.76 274.39l19.79 0l0 14.52l-19.79 0Z" id="p185w65" />
<path d="M497.75 274.39l11.22 0l0 14.52l-11.22 0Z" id="p185w66" />
<path d="M512.18 274.39l14.8 0l0 14.52l-14.8 0Z" id="p185w67" />
<path d="M530.19 274.39l14.18 0l0 14.52l-14.18 0Z" id="p185w68" />
<path d="M547.57 274.39l25.38 0l0 14.52l-25.38 0Z" id="p185w69" />
<path d="M576.16 274.39l23.53 0l0 14.52l-23.53 0Z" id="p185w70" />
<path d="M417.48 291.06l58.53 0l0 14.52l-58.53 0Z" id="p185w71" />
<path d="M489.1 291.06l27.01 0l0 14.52l-27.01 0Z" id="p185w72" />
<path d="M59.08 309.13l14.31 0l0 14.6l-14.31 0Z" id="p185w73" />
<path d="M76.59 309.13l33.58 0l0 14.6l-33.58 0Z" id="p185w74" />
<path d="M113.47 307.89l41.67 0l0 16.35l-41.67 0Z" id="p185w75" />
<path d="M232.37 309.21l17.11 0l0 14.52l-17.11 0Z" id="p185w76" />
<path d="M252.68 309.21l33.39 0l0 14.52l-33.39 0Z" id="p185w77" />
<path d="M417.48 309.21l27.8 0l0 14.52l-27.8 0Z" id="p185w78" />
<path d="M448.48 309.21l14.18 0l0 14.52l-14.18 0Z" id="p185w79" />
<path d="M465.87 309.21l55.6 0l0 14.52l-55.6 0Z" id="p185w80" />
<path d="M524.67 309.21l6.41 0l0 14.52l-6.41 0Z" id="p185w81" />
<path d="M553.27 309.21l27.26 0l0 14.52l-27.26 0Z" id="p185w82" />
<path d="M583.74 309.21l41.68 0l0 14.52l-41.68 0Z" id="p185w83" />
<path d="M59.08 329.84l25.51 0l0 14.6l-25.51 0Z" id="p185w84" />
<path d="M87.8 329.84l27.22 0l0 14.6l-27.22 0Z" id="p185w85" />
<path d="M118.31 328.6l36.88 0l0 16.35l-36.88 0Z" id="p185w86" />
<path d="M232.37 329.92l29.94 0l0 14.52l-29.94 0Z" id="p185w87" />
<path d="M265.51 329.92l18.44 0l0 14.52l-18.44 0Z" id="p185w88" />
<path d="M287.16 329.92l28.03 0l0 14.52l-28.03 0Z" id="p185w89" />
<path d="M318.4 329.92l66.56 0l0 14.52l-66.56 0Z" id="p185w90" />
<path d="M417.48 329.92l36.63 0l0 14.52l-36.63 0Z" id="p185w91" />
<path d="M457.31 329.92l14.18 0l0 14.52l-14.18 0Z" id="p185w92" />
<path d="M474.7 329.92l32.88 0l0 14.52l-32.88 0Z" id="p185w93" />
<path d="M510.78 329.92l9.89 0l0 14.52l-9.89 0Z" id="p185w94" />
<path d="M523.88 329.92l35.82 0l0 14.52l-35.82 0Z" id="p185w95" />
<path d="M562.91 329.92l14.18 0l0 14.52l-14.18 0Z" id="p185w96" />
<path d="M580.29 329.92l16.83 0l0 14.52l-16.83 0Z" id="p185w97" />
<path d="M600.33 329.92l22.99 0l0 14.52l-22.99 0Z" id="p185w98" />
<path d="M417.48 346.59l9.89 0l0 14.52l-9.89 0Z" id="p185w99" />
<path d="M430.57 346.59l35 0l0 14.52l-35 0Z" id="p185w100" />
<path d="M468.78 346.59l25.13 0l0 14.52l-25.13 0Z" id="p185w101" />
<path d="M497.12 346.59l29.66 0l0 14.52l-29.66 0Z" id="p185w102" />
<path d="M59.08 364.66l100.64 0l0 14.6l-100.64 0Z" id="p185w103" />
<path d="M59.08 380.09l78.91 0l0 16.35l-78.91 0Z" id="p185w104" />
<path d="M232.37 364.74l18.7 0l0 14.52l-18.7 0Z" id="p185w105" />
<path d="M417.48 364.74l52.48 0l0 14.52l-52.48 0Z" id="p185w106" />
<path d="M480.12 364.74l27.72 0l0 14.52l-27.72 0Z" id="p185w107" />
<path d="M511.05 364.74l16.83 0l0 14.52l-16.83 0Z" id="p185w108" />
<path d="M531.08 364.74l50.8 0l0 14.52l-50.8 0Z" id="p185w109" />
<path d="M585.09 364.74l14.98 0l0 14.52l-14.98 0Z" id="p185w110" />
<path d="M435.2 381.42l56.84 0l0 14.61l-56.84 0Z" id="p185w111" />
<path d="M516.18 381.42l51.24 0l0 14.61l-51.24 0Z" id="p185w112" />
<path d="M59.07 399.48l14.31 0l0 14.6l-14.31 0Z" id="p185w113" />
<path d="M76.59 399.48l39.7 0l0 14.6l-39.7 0Z" id="p185w114" />
<path d="M116.29 399.48l20.99 0l0 14.6l-20.99 0Z" id="p185w115" />
<path d="M140.49 399.48l41.27 0l0 14.6l-41.27 0Z" id="p185w116" />
<path d="M59.07 414.91l90.97 0l0 16.35l-90.97 0Z" id="p185w117" />
<path d="M232.37 399.56l17.11 0l0 14.52l-17.11 0Z" id="p185w118" />
<path d="M252.68 399.56l64.03 0l0 14.52l-64.03 0Z" id="p185w119" />
<path d="M319.92 399.56l45.72 0l0 14.52l-45.72 0Z" id="p185w120" />
<path d="M417.48 399.56l12.83 0l0 14.52l-12.83 0Z" id="p185w121" />
<path d="M433.51 399.56l25.12 0l0 14.52l-25.12 0Z" id="p185w122" />
<path d="M461.84 399.56l13.9 0l0 14.52l-13.9 0Z" id="p185w123" />
<path d="M478.94 399.56l29.67 0l0 14.52l-29.67 0Z" id="p185w124" />
<path d="M511.82 399.56l25.65 0l0 14.52l-25.65 0Z" id="p185w125" />
<path d="M540.68 399.56l33.95 0l0 14.52l-33.95 0Z" id="p185w126" />
<path d="M577.83 399.56l46.78 0l0 14.52l-46.78 0Z" id="p185w127" />
<path d="M417.48 416.23l9.89 0l0 14.52l-9.89 0Z" id="p185w128" />
<path d="M430.57 416.23l47.6 0l0 14.52l-47.6 0Z" id="p185w129" />
<path d="M481.37 416.23l37.68 0l0 14.52l-37.68 0Z" id="p185w130" />
<path d="M522.26 416.23l54.8 0l0 14.52l-54.8 0Z" id="p185w131" />
<path d="M59.07 434.3l10.02 0l0 14.6l-10.02 0Z" id="p185w132" />
<path d="M72.3 434.3l22 0l0 14.6l-22 0Z" id="p185w133" />
<path d="M97.6 433.06l37.42 0l0 16.35l-37.42 0Z" id="p185w134" />
<path d="M232.37 434.38l19.51 0l0 14.52l-19.51 0Z" id="p185w135" />
<path d="M254.73 434.38l55.28 0l0 14.52l-55.28 0Z" id="p185w136" />
<path d="M417.48 434.38l27.8 0l0 14.52l-27.8 0Z" id="p185w137" />
<path d="M448.48 434.38l12.57 0l0 14.52l-12.57 0Z" id="p185w138" />
<path d="M464.25 434.38l38.5 0l0 14.52l-38.5 0Z" id="p185w139" />
<path d="M505.96 434.38l14.18 0l0 14.52l-14.18 0Z" id="p185w140" />
<path d="M523.35 434.38l13.9 0l0 14.52l-13.9 0Z" id="p185w141" />
<path d="M540.45 434.38l25.4 0l0 14.52l-25.4 0Z" id="p185w142" />
<path d="M569.06 434.38l19.51 0l0 14.52l-19.51 0Z" id="p185w143" />
<path d="M591.77 434.38l20.85 0l0 14.52l-20.85 0Z" id="p185w144" />
<path d="M417.48 451.05l9.89 0l0 14.52l-9.89 0Z" id="p185w145" />
<path d="M430.57 451.05l22.76 0l0 14.52l-22.76 0Z" id="p185w146" />
<path d="M59.07 469.12l44.01 0l0 14.6l-44.01 0Z" id="p185w147" />
<path d="M106.38 467.88l35.43 0l0 16.35l-35.43 0Z" id="p185w148" />
<path d="M232.37 469.2l64.4 0l0 14.52l-64.4 0Z" id="p185w149" />
<path d="M299.98 469.2l67.07 0l0 14.52l-67.07 0Z" id="p185w150" />
<path d="M232.37 485.87l61.68 0l0 14.52l-61.68 0Z" id="p185w151" />
<path d="M417.48 469.2l20.58 0l0 14.52l-20.58 0Z" id="p185w152" />
<path d="M441.26 469.2l37.96 0l0 14.52l-37.96 0Z" id="p185w153" />
<path d="M482.43 469.2l49.18 0l0 14.52l-49.18 0Z" id="p185w154" />
<path d="M534.82 469.2l12.29 0l0 14.52l-12.29 0Z" id="p185w155" />
<path d="M550.31 469.2l24.33 0l0 14.52l-24.33 0Z" id="p185w156" />
<path d="M577.85 469.2l44.09 0l0 14.52l-44.09 0Z" id="p185w157" />
<path d="M417.48 485.87l46.78 0l0 14.52l-46.78 0Z" id="p185w158" />
<path d="M467.46 485.87l9.89 0l0 14.52l-9.89 0Z" id="p185w159" />
<path d="M480.56 485.87l39.23 0l0 14.52l-39.23 0Z" id="p185w160" />
<path d="M435.7 502.55l26.37 0l0 14.61l-26.37 0Z" id="p185w161" />
<path d="M465.28 502.55l48.93 0l0 14.61l-48.93 0Z" id="p185w162" />
<path d="M435.2 519.23l43.57 0l0 14.61l-43.57 0Z" id="p185w163" />
<path d="M59.08 537.28l14.31 0l0 14.6l-14.31 0Z" id="p185w164" />
<path d="M76.59 537.28l23.63 0l0 14.6l-23.63 0Z" id="p185w165" />
<path d="M110.2 536.04l36.55 0l0 16.35l-36.55 0Z" id="p185w166" />
<path d="M232.37 537.36l17.11 0l0 14.52l-17.11 0Z" id="p185w167" />
<path d="M252.68 537.36l24.33 0l0 14.52l-24.33 0Z" id="p185w168" />
<path d="M417.48 537.36l15.77 0l0 14.52l-15.77 0Z" id="p185w169" />
<path d="M436.46 537.36l18.7 0l0 14.52l-18.7 0Z" id="p185w170" />
<path d="M458.37 537.36l14.18 0l0 14.52l-14.18 0Z" id="p185w171" />
<path d="M475.75 537.36l22.98 0l0 14.52l-22.98 0Z" id="p185w172" />
<path d="M59.08 557.99l6.68 0l0 14.6l-6.68 0Z" id="p185w173" />
<path d="M88.18 556.75l25.59 0l0 16.35l-25.59 0Z" id="p185w174" />
<path d="M232.37 558.1l17.65 0l0 14.52l-17.65 0Z" id="p185w175" />
<path d="M253.22 558.07l46.87 0l0 14.52l-46.87 0Z" id="p185w176" />
<path d="M417.48 558.07l6.96 0l0 14.52l-6.96 0Z" id="p185w177" />
<path d="M446.62 558.07l50.53 0l0 14.52l-50.53 0Z" id="p185w178" />
<path d="M500.36 558.07l29.41 0l0 14.52l-29.41 0Z" id="p185w179" />
<path d="M532.97 558.07l14.8 0l0 14.52l-14.8 0Z" id="p185w180" />
<path d="M550.97 558.07l29.39 0l0 14.52l-29.39 0Z" id="p185w181" />
<path d="M417.48 574.74l63.4 0l0 14.52l-63.4 0Z" id="p185w182" />
<path d="M417.48 591.43l31.8 0l0 14.61l-31.8 0Z" id="p185w183" />
<path d="M452.48 591.43l17.83 0l0 14.61l-17.83 0Z" id="p185w184" />
<path d="M473.52 591.43l21.12 0l0 14.61l-21.12 0Z" id="p185w185" />
<path d="M497.85 591.43l135.82 0l0 14.61l-135.82 0Z" id="p185w186" />
<path d="M417.48 608.1l6.96 0l0 14.61l-6.96 0Z" id="p185w187" />
<path d="M446.55 608.1l26.99 0l0 14.61l-26.99 0Z" id="p185w188" />
<path d="M484.33 608.1l19.77 0l0 14.61l-19.77 0Z" id="p185w189" />
<path d="M507.31 608.1l68.07 0l0 14.61l-68.07 0Z" id="p185w190" />
<path d="M588.41 608.1l9.82 0l0 14.61l-9.82 0Z" id="p185w191" />
<path d="M601.44 608.1l21.11 0l0 14.61l-21.11 0Z" id="p185w192" />
<path d="M417.48 624.77l12.29 0l0 14.61l-12.29 0Z" id="p185w193" />
<path d="M432.97 624.77l22.03 0l0 14.61l-22.03 0Z" id="p185w194" />
<path d="M59.08 642.83l57.48 0l0 14.6l-57.48 0Z" id="p185w195" />
<path d="M119.86 641.58l51.04 0l0 16.35l-51.04 0Z" id="p185w196" />
<path d="M232.37 642.9l30.2 0l0 14.52l-30.2 0Z" id="p185w197" />
<path d="M417.48 642.9l12.41 0l0 14.52l-12.41 0Z" id="p185w198" />
<path d="M433.09 642.9l12.29 0l0 14.52l-12.29 0Z" id="p185w199" />
<path d="M448.59 642.9l22.45 0l0 14.52l-22.45 0Z" id="p185w200" />
<path d="M59.08 663.54l41.93 0l0 14.6l-41.93 0Z" id="p185w201" />
<path d="M104.31 662.29l38.15 0l0 16.35l-38.15 0Z" id="p185w202" />
<path d="M232.37 663.61l53.19 0l0 14.52l-53.19 0Z" id="p185w203" />
<path d="M288.77 663.61l27.69 0l0 14.52l-27.69 0Z" id="p185w204" />
<path d="M417.48 663.61l29.94 0l0 14.52l-29.94 0Z" id="p185w205" />
<path d="M450.62 663.61l60.72 0l0 14.52l-60.72 0Z" id="p185w206" />
<path d="M514.54 663.61l11.22 0l0 14.52l-11.22 0Z" id="p185w207" />
<path d="M528.97 663.61l40.92 0l0 14.52l-40.92 0Z" id="p185w208" />
<path d="M573.1 663.61l6.41 0l0 14.52l-6.41 0Z" id="p185w209" />
<path d="M601.7 663.61l41.71 0l0 14.52l-41.71 0Z" id="p185w210" />
<path d="M433.24 680.29l61.21 0l0 14.52l-61.21 0Z" id="p185w211" />
<path d="M59.08 698.35l36.68 0l0 14.6l-36.68 0Z" id="p185w212" />
<path d="M98.96 698.35l12.67 0l0 14.6l-12.67 0Z" id="p185w213" />
<path d="M124.74 698.35l14.41 0l0 14.6l-14.41 0Z" id="p185w214" />
<path d="M142.46 697.11l33.16 0l0 16.35l-33.16 0Z" id="p185w215" />
<path d="M232.37 698.43l23.8 0l0 14.52l-23.8 0Z" id="p185w216" />
<path d="M259.38 698.43l23.09 0l0 14.52l-23.09 0Z" id="p185w217" />
<path d="M285.67 698.43l44.34 0l0 14.52l-44.34 0Z" id="p185w218" />
<path d="M333.21 698.43l23.8 0l0 14.52l-23.8 0Z" id="p185w219" />
<path d="M360.22 698.43l23.09 0l0 14.52l-23.09 0Z" id="p185w220" />
<path d="M232.37 715.1l79.04 0l0 14.52l-79.04 0Z" id="p185w221" />
<path d="M417.48 698.43l12.41 0l0 14.52l-12.41 0Z" id="p185w222" />
<path d="M433.09 698.43l17.63 0l0 14.52l-17.63 0Z" id="p185w223" />
<path d="M453.93 698.43l37.41 0l0 14.52l-37.41 0Z" id="p185w224" />
<path d="M494.55 698.43l9.89 0l0 14.52l-9.89 0Z" id="p185w225" />
<path d="M507.64 698.43l27.01 0l0 14.52l-27.01 0Z" id="p185w226" />
<path d="M537.85 698.43l14.43 0l0 14.52l-14.43 0Z" id="p185w227" />
<path d="M555.49 698.43l11.22 0l0 14.52l-11.22 0Z" id="p185w228" />
<path d="M569.92 698.43l24.85 0l0 14.52l-24.85 0Z" id="p185w229" />
<path d="M59.08 733.17l20.99 0l0 14.6l-20.99 0Z" id="p185w230" />
<path d="M83.27 733.17l65.4 0l0 14.6l-65.4 0Z" id="p185w231" />
<path d="M59.08 748.6l65.71 0l0 16.35l-65.71 0Z" id="p185w232" />
<path d="M232.37 733.25l23.79 0l0 14.52l-23.79 0Z" id="p185w233" />
<path d="M259.36 733.25l65.22 0l0 14.52l-65.22 0Z" id="p185w234" />
<path d="M417.48 733.25l17.63 0l0 14.52l-17.63 0Z" id="p185w235" />
<path d="M438.32 733.25l65.06 0l0 14.52l-65.06 0Z" id="p185w236" />
<path d="M532.51 733.25l22.19 0l0 14.52l-22.19 0Z" id="p185w237" />
<path d="M429.72 749.95l38.41 0l0 14.61l-38.41 0Z" id="p185w238" />
<path d="M59.07 768.01l12.42 0l0 14.6l-12.42 0Z" id="p185w239" />
<path d="M74.7 768.01l58.62 0l0 14.6l-58.62 0Z" id="p185w240" />
<path d="M136.62 766.77l62.74 0l0 16.35l-62.74 0Z" id="p185w241" />
<path d="M232.37 768.09l21.92 0l0 14.52l-21.92 0Z" id="p185w242" />
<path d="M257.5 768.09l79.62 0l0 14.52l-79.62 0Z" id="p185w243" />
<path d="M232.37 784.76l21.92 0l0 14.52l-21.92 0Z" id="p185w244" />
<path d="M257.5 784.76l56 0l0 14.52l-56 0Z" id="p185w245" />
<path d="M417.47 768.09l15.51 0l0 14.52l-15.51 0Z" id="p185w246" />
<path d="M436.19 768.09l33.05 0l0 14.52l-33.05 0Z" id="p185w247" />
<path d="M472.45 768.09l20.85 0l0 14.52l-20.85 0Z" id="p185w248" />
<path d="M496.51 768.09l25.67 0l0 14.52l-25.67 0Z" id="p185w249" />
<path d="M525.39 768.09l25.67 0l0 14.52l-25.67 0Z" id="p185w250" />
<path d="M554.27 768.09l23.51 0l0 14.52l-23.51 0Z" id="p185w251" />
<path d="M417.47 784.76l59.87 0l0 14.52l-59.87 0Z" id="p185w252" />
<path d="M435.7 801.44l20.84 0l0 14.61l-20.84 0Z" id="p185w253" />
<path d="M459.75 801.44l53.99 0l0 14.61l-53.99 0Z" id="p185w254" />
<path d="M59.07 819.5l14.31 0l0 14.6l-14.31 0Z" id="p185w255" />
<path d="M76.59 819.5l51.79 0l0 14.6l-51.79 0Z" id="p185w256" />
<path d="M131.68 818.26l68.19 0l0 16.35l-68.19 0Z" id="p185w257" />
<path d="M232.37 819.58l23.79 0l0 14.52l-23.79 0Z" id="p185w258" />
<path d="M259.36 819.58l45.22 0l0 14.52l-45.22 0Z" id="p185w259" />
<path d="M232.37 836.25l105.86 0l0 14.52l-105.86 0Z" id="p185w260" />
<path d="M417.47 819.58l6.96 0l0 14.52l-6.96 0Z" id="p185w261" />
<path d="M446.62 819.58l14.18 0l0 14.52l-14.18 0Z" id="p185w262" />
<path d="M464 819.58l51.25 0l0 14.52l-51.25 0Z" id="p185w263" />
<path d="M518.46 819.58l29.66 0l0 14.52l-29.66 0Z" id="p185w264" />
<path d="M551.33 819.58l60.72 0l0 14.52l-60.72 0Z" id="p185w265" />
<path d="M417.47 836.25l11.22 0l0 14.52l-11.22 0Z" id="p185w266" />
<path d="M431.9 836.25l53.13 0l0 14.52l-53.13 0Z" id="p185w267" />
<path d="M59.07 854.32l12.42 0l0 14.6l-12.42 0Z" id="p185w268" />
<path d="M74.7 854.32l32.13 0l0 14.6l-32.13 0Z" id="p185w269" />
<path d="M110.13 853.08l59.71 0l0 16.35l-59.71 0Z" id="p185w270" />
<path d="M64.98 879.96l32.13 0l0 14.6l-32.13 0Z" id="p185w271" />
<path d="M100.32 880.02l24.59 0l0 14.52l-24.59 0Z" id="p185w272" />
<path d="M128.12 880.02l56.35 0l0 14.52l-56.35 0Z" id="p185w273" />
<path d="M187.67 880.02l19.77 0l0 14.52l-19.77 0Z" id="p185w274" />
<path d="M210.65 879.96l20.91 0l0 14.6l-20.91 0Z" id="p185w275" />
<path d="M237.97 880.02l9.62 0l0 14.52l-9.62 0Z" id="p185w276" />
<path d="M250.8 880.02l11.22 0l0 14.52l-11.22 0Z" id="p185w277" />
<path d="M262.02 879.96l22.02 0l0 14.6l-22.02 0Z" id="p185w278" />
<path d="M289.93 880.02l26.74 0l0 14.52l-26.74 0Z" id="p185w279" />
<path d="M319.88 880.02l11.22 0l0 14.52l-11.22 0Z" id="p185w280" />
<path d="M331.1 879.96l38.86 0l0 14.6l-38.86 0Z" id="p185w281" />
<path d="M64.98 896.63l30.74 0l0 14.68l-30.74 0Z" id="p185w282" />
<path d="M98.93 896.63l50.49 0l0 14.68l-50.49 0Z" id="p185w283" />
<path d="M152.63 896.69l14.8 0l0 14.52l-14.8 0Z" id="p185w284" />
<path d="M170.63 896.69l11.22 0l0 14.52l-11.22 0Z" id="p185w285" />
<path d="M181.85 896.63l13.08 0l0 14.6l-13.08 0Z" id="p185w286" />
<path d="M232.37 854.39l21.92 0l0 14.52l-21.92 0Z" id="p185w287" />
<path d="M257.5 854.39l71.62 0l0 14.52l-71.62 0Z" id="p185w288" />
<path d="M417.47 854.39l15.77 0l0 14.52l-15.77 0Z" id="p185w289" />
<path d="M446.34 854.39l38.23 0l0 14.52l-38.23 0Z" id="p185w290" />
<path d="M487.77 854.39l13.9 0l0 14.52l-13.9 0Z" id="p185w291" />
<path d="M504.88 854.39l12.29 0l0 14.52l-12.29 0Z" id="p185w292" />
<path d="M520.37 854.39l33.43 0l0 14.52l-33.43 0Z" id="p185w293" />
<path d="M435.7 871.08l20.59 0l0 14.61l-20.59 0Z" id="p185w294" />
</svg>
