<?xml version="1.0" encoding="UTF-8"?>
<svg xmlns="http://www.w3.org/2000/svg" xmlns:xlink="http://www.w3.org/1999/xlink" version="1.1" baseProfile="full" width="768" height="1024" viewBox="0,0,768,1024" preserveAspectRatio="xMinYMin meet" >
<style type="text/css">
<![CDATA[
path {fill-opacity: 0.5;fill: #00aeef;visibility: hidden;}
]]>
</style>
<path d="M143.75 781.09l42.42 0l0 14.52l-42.42 0Z" id="p14w1" />
<path d="M189.38 781.09l16.83 0l0 14.52l-16.83 0Z" id="p14w2" />
<path d="M209.42 781.09l20.85 0l0 14.52l-20.85 0Z" id="p14w3" />
<path d="M233.48 781.09l35.76 0l0 14.52l-35.76 0Z" id="p14w4" />
<path d="M272.45 781.09l53.19 0l0 14.52l-53.19 0Z" id="p14w5" />
<path d="M328.85 781.09l51.33 0l0 14.52l-51.33 0Z" id="p14w6" />
<path d="M383.39 781.09l13.91 0l0 14.52l-13.91 0Z" id="p14w7" />
<path d="M400.51 781.09l19.77 0l0 14.52l-19.77 0Z" id="p14w8" />
<path d="M143.75 797.76l12.13 0l0 14.52l-12.13 0Z" id="p14w9" />
<path d="M159.09 797.76l35.08 0l0 14.52l-35.08 0Z" id="p14w10" />
<path d="M197.38 797.76l16.87 0l0 14.52l-16.87 0Z" id="p14w11" />
<path d="M217.46 797.76l9.73 0l0 14.52l-9.73 0Z" id="p14w12" />
<path d="M230.4 797.76l27.93 0l0 14.52l-27.93 0Z" id="p14w13" />
<path d="M261.53 797.76l13.74 0l0 14.52l-13.74 0Z" id="p14w14" />
<path d="M278.48 797.76l36.42 0l0 14.52l-36.42 0Z" id="p14w15" />
<path d="M318.11 797.76l13.48 0l0 14.52l-13.48 0Z" id="p14w16" />
<path d="M334.79 797.76l32.22 0l0 14.52l-32.22 0Z" id="p14w17" />
<path d="M370.22 797.76l14.02 0l0 14.52l-14.02 0Z" id="p14w18" />
<path d="M387.44 797.76l26.07 0l0 14.52l-26.07 0Z" id="p14w19" />
<path d="M143.75 822.78l51.33 0l0 14.52l-51.33 0Z" id="p14w20" />
<path d="M198.29 822.78l36.61 0l0 14.52l-36.61 0Z" id="p14w21" />
<path d="M238.12 822.78l28.06 0l0 14.52l-28.06 0Z" id="p14w22" />
<path d="M269.38 822.78l17.11 0l0 14.52l-17.11 0Z" id="p14w23" />
<path d="M289.7 822.78l9.89 0l0 14.52l-9.89 0Z" id="p14w24" />
<path d="M302.79 822.78l28.33 0l0 14.52l-28.33 0Z" id="p14w25" />
<path d="M334.33 822.78l44.28 0l0 14.52l-44.28 0Z" id="p14w26" />
<path d="M153.64 839.45l9.89 0l0 14.52l-9.89 0Z" id="p14w27" />
<path d="M166.73 839.45l27.73 0l0 14.52l-27.73 0Z" id="p14w28" />
<path d="M219.58 839.45l11.22 0l0 14.52l-11.22 0Z" id="p14w29" />
<path d="M234.01 839.45l27.26 0l0 14.52l-27.26 0Z" id="p14w30" />
<path d="M264.48 839.45l13.91 0l0 14.52l-13.91 0Z" id="p14w31" />
<path d="M281.6 839.45l25.38 0l0 14.52l-25.38 0Z" id="p14w32" />
<path d="M310.19 839.45l12.29 0l0 14.52l-12.29 0Z" id="p14w33" />
<path d="M325.68 839.45l50 0l0 14.52l-50 0Z" id="p14w34" />
<path d="M135.02 872.79l28.96 0l0 14.52l-28.96 0Z" id="p14w35" />
<path d="M167.18 872.79l19.51 0l0 14.52l-19.51 0Z" id="p14w36" />
<path d="M189.9 872.79l41.18 0l0 14.52l-41.18 0Z" id="p14w37" />
<path d="M234.29 872.79l49.44 0l0 14.52l-49.44 0Z" id="p14w38" />
<path d="M286.94 872.79l23.53 0l0 14.52l-23.53 0Z" id="p14w39" />
<path d="M313.68 872.79l54 0l0 14.52l-54 0Z" id="p14w40" />
<path d="M370.89 872.79l17.11 0l0 14.52l-17.11 0Z" id="p14w41" />
<path d="M124.06 889.46l40.1 0l0 14.52l-40.1 0Z" id="p14w42" />
<path d="M167.37 889.46l11.22 0l0 14.52l-11.22 0Z" id="p14w43" />
<path d="M181.8 889.46l51.5 0l0 14.52l-51.5 0Z" id="p14w44" />
<path d="M246.39 889.46l28.87 0l0 14.52l-28.87 0Z" id="p14w45" />
<path d="M278.47 889.46l35.03 0l0 14.52l-35.03 0Z" id="p14w46" />
<path d="M316.71 889.46l6.96 0l0 14.52l-6.96 0Z" id="p14w47" />
<path d="M326.87 889.46l25.67 0l0 14.52l-25.67 0Z" id="p14w48" />
<path d="M355.75 889.46l42.51 0l0 14.52l-42.51 0Z" id="p14w49" />
<path d="M139.06 914.49l49.89 0l0 14.61l-49.89 0Z" id="p14w50" />
<path d="M192.16 914.49l30.4 0l0 14.61l-30.4 0Z" id="p14w51" />
<path d="M225.76 914.49l38.66 0l0 14.61l-38.66 0Z" id="p14w52" />
<path d="M267.63 914.49l13.9 0l0 14.61l-13.9 0Z" id="p14w53" />
<path d="M284.74 914.49l35.47 0l0 14.61l-35.47 0Z" id="p14w54" />
<path d="M55.07 749.59l19.03 0l0 12.3l-19.03 0Z" id="p14w55" />
<path d="M60.68 824.55l27.93 0l0 12.29l-27.93 0Z" id="p14w56" />
<path d="M60.68 874.57l27.93 0l0 12.29l-27.93 0Z" id="p14w57" />
<path d="M557.41 650.47l13.46 0l0 14.74l-13.46 0Z" id="p14w58" />
<path d="M574.08 650.03l22.13 0l0 14.51l-22.13 0Z" id="p14w59" />
<path d="M599.43 649.37l14.3 0l0 14.72l-14.3 0Z" id="p14w60" />
<path d="M616.94 648.91l92.16 0l0 12.68l-92.16 0Z" id="p14w61" />
<path d="M557.84 667.13l25.31 0l0 14.43l-25.31 0Z" id="p14w62" />
<path d="M586.36 666.38l14.3 0l0 14.72l-14.3 0Z" id="p14w63" />
<path d="M603.88 665.93l10.81 0l0 14.81l-10.81 0Z" id="p14w64" />
<path d="M617.91 665.56l52.57 0l0 13.72l-52.57 0Z" id="p14w65" />
<path d="M673.69 664.1l26.08 0l0 14.41l-26.08 0Z" id="p14w66" />
<path d="M558.28 683.79l69.41 0l0 13.28l-69.41 0Z" id="p14w67" />
<path d="M641 681.63l25.78 0l0 14.42l-25.78 0Z" id="p14w68" />
<path d="M670 680.87l16.13 0l0 14.67l-16.13 0Z" id="p14w69" />
<path d="M689.35 680.36l23.4 0l0 14.48l-23.4 0Z" id="p14w70" />
<path d="M558.72 700.46l60.3 0l0 13.51l-60.3 0Z" id="p14w71" />
<path d="M622.23 698.79l27.62 0l0 14.37l-27.62 0Z" id="p14w72" />
<path d="M653.07 697.99l56.09 0l0 13.62l-56.09 0Z" id="p14w73" />
<path d="M631.41 765.95l15.07 0l0 12.56l-15.07 0Z" id="p14w74" />
<path d="M649.18 765.95l16.87 0l0 12.56l-16.87 0Z" id="p14w75" />
<path d="M462.1 790.38l33.07 0l0 15.37l-33.07 0Z" id="p14w76" />
<path d="M498.55 790.38l18.49 0l0 15.37l-18.49 0Z" id="p14w77" />
<path d="M520.42 790.38l51.91 0l0 15.37l-51.91 0Z" id="p14w78" />
<path d="M462.1 811.67l29.66 0l0 14.52l-29.66 0Z" id="p14w79" />
<path d="M494.97 811.67l22.45 0l0 14.52l-22.45 0Z" id="p14w80" />
<path d="M494.97 828.34l12.29 0l0 14.52l-12.29 0Z" id="p14w81" />
<path d="M510.47 828.34l35.56 0l0 14.52l-35.56 0Z" id="p14w82" />
<path d="M549.23 828.34l13.63 0l0 14.52l-13.63 0Z" id="p14w83" />
<path d="M566.07 828.34l25.67 0l0 14.52l-25.67 0Z" id="p14w84" />
<path d="M494.97 845.01l13.63 0l0 14.52l-13.63 0Z" id="p14w85" />
<path d="M511.81 845.01l19.79 0l0 14.52l-19.79 0Z" id="p14w86" />
<path d="M549.73 845.01l21.91 0l0 14.52l-21.91 0Z" id="p14w87" />
<path d="M504.86 861.68l35.82 0l0 14.52l-35.82 0Z" id="p14w88" />
<path d="M543.89 861.68l13.9 0l0 14.52l-13.9 0Z" id="p14w89" />
<path d="M462.1 895.03l29.66 0l0 14.52l-29.66 0Z" id="p14w90" />
<path d="M494.97 895.03l35.76 0l0 14.52l-35.76 0Z" id="p14w91" />
<path d="M533.93 895.03l16.83 0l0 14.52l-16.83 0Z" id="p14w92" />
<path d="M563.86 895.03l9.89 0l0 14.52l-9.89 0Z" id="p14w93" />
<path d="M576.95 895.03l48.38 0l0 14.52l-48.38 0Z" id="p14w94" />
<path d="M628.53 895.03l38.71 0l0 14.52l-38.71 0Z" id="p14w95" />
<path d="M462.1 911.7l13.63 0l0 14.52l-13.63 0Z" id="p14w96" />
<path d="M478.95 911.7l25.67 0l0 14.52l-25.67 0Z" id="p14w97" />
<path d="M507.83 911.7l27.22 0l0 14.52l-27.22 0Z" id="p14w98" />
<path d="M596.47 230.1l18.32 0l0 15.25l-18.32 0Z" id="p14w99" />
<path d="M618.54 230.29l80.6 0l0 15.79l-80.6 0Z" id="p14w100" />
<path d="M702.88 231.03l19.16 0l0 15.26l-19.16 0Z" id="p14w101" />
<path d="M596.32 246.77l25.89 0l0 15.31l-25.89 0Z" id="p14w102" />
<path d="M625.96 247.03l13.77 0l0 15.21l-13.77 0Z" id="p14w103" />
<path d="M643.48 247.18l43.47 0l0 15.47l-43.47 0Z" id="p14w104" />
<path d="M596.18 263.44l70 0l0 15.7l-70 0Z" id="p14w105" />
<path d="M669.92 264.08l11.82 0l0 15.19l-11.82 0Z" id="p14w106" />
<path d="M596.03 280.1l61.52 0l0 15.63l-61.52 0Z" id="p14w107" />
<path d="M661.29 280.67l14.08 0l0 15.21l-14.08 0Z" id="p14w108" />
<path d="M595.89 296.77l60.6 0l0 15.62l-60.6 0Z" id="p14w109" />
<path d="M660.23 297.33l58.57 0l0 15.6l-58.57 0Z" id="p14w110" />
<path d="M35.45 194.38l38.54 0l0 39.25l-38.54 0Z" id="p14w111" />
<path d="M81.8 194.38l84.5 0l0 39.25l-84.5 0Z" id="p14w112" />
<path d="M35.45 229.11l73.81 0l0 39.25l-73.81 0Z" id="p14w113" />
<path d="M115.6 229.11l118.26 0l0 39.25l-118.26 0Z" id="p14w114" />
<path d="M76.9 983l28.38 0l0 12.23l-28.38 0Z" id="p14w115" />
<path d="M106.13 33.95l35.16 0l0 11.53l-35.16 0Z" id="p14w116" />
<path d="M143.57 33.95l52.06 0l0 11.53l-52.06 0Z" id="p14w117" />
<path d="M106.34 46.45l28.02 0l0 11.53l-28.02 0Z" id="p14w118" />
<path d="M115.94 81.65l11.4 0l0 11.53l-11.4 0Z" id="p14w119" />
<path d="M129.87 81.65l18.86 0l0 11.53l-18.86 0Z" id="p14w120" />
<path d="M89.56 367.72l13.38 0l0 14.74l-13.38 0Z" id="p14w121" />
<path d="M106.16 367.29l39.54 0l0 14.06l-39.54 0Z" id="p14w122" />
<path d="M148.92 366.17l14.3 0l0 14.72l-14.3 0Z" id="p14w123" />
<path d="M166.43 365.71l57.16 0l0 13.6l-57.16 0Z" id="p14w124" />
<path d="M226.8 364.13l102.6 0l0 12.41l-102.6 0Z" id="p14w125" />
<path d="M90 384.38l31.7 0l0 14.26l-31.7 0Z" id="p14w126" />
<path d="M134.98 383.21l17.73 0l0 14.63l-17.73 0Z" id="p14w127" />
<path d="M155.9 382.66l48.87 0l0 13.81l-48.87 0Z" id="p14w128" />
<path d="M218.05 381.03l63.64 0l0 13.43l-63.64 0Z" id="p14w129" />
<path d="M284.89 379.28l11.65 0l0 14.79l-11.65 0Z" id="p14w130" />
<path d="M299.73 378.89l47.15 0l0 13.86l-47.15 0Z" id="p14w131" />
<path d="M90.44 401.05l16.13 0l0 14.67l-16.13 0Z" id="p14w132" />
<path d="M109.78 400.54l69.86 0l0 13.26l-69.86 0Z" id="p14w133" />
<path d="M182.86 398.63l27.62 0l0 14.37l-27.62 0Z" id="p14w134" />
<path d="M213.69 397.82l16.27 0l0 14.67l-16.27 0Z" id="p14w135" />
<path d="M233.18 397.31l29.22 0l0 14.33l-29.22 0Z" id="p14w136" />
<path d="M265.62 396.46l48.55 0l0 13.82l-48.55 0Z" id="p14w137" />
<path d="M488.69 42.39l26.35 0l0 14.4l-26.35 0Z" id="p14w138" />
<path d="M518.25 41.62l48.62 0l0 13.82l-48.62 0Z" id="p14w139" />
<path d="M570.09 40.26l14.3 0l0 14.72l-14.3 0Z" id="p14w140" />
<path d="M587.6 39.8l51.25 0l0 13.75l-51.25 0Z" id="p14w141" />
<path d="M489.12 59.05l44.22 0l0 13.94l-44.22 0Z" id="p14w142" />
<path d="M536.56 57.81l42.71 0l0 13.98l-42.71 0Z" id="p14w143" />
<path d="M582.49 56.61l36.05 0l0 14.15l-36.05 0Z" id="p14w144" />
<path d="M621.75 55.58l10.81 0l0 14.81l-10.81 0Z" id="p14w145" />
<path d="M489.56 75.72l62.01 0l0 13.47l-62.01 0Z" id="p14w146" />
<path d="M554.79 74.01l14.3 0l0 14.72l-14.3 0Z" id="p14w147" />
<path d="M572.3 73.55l66.8 0l0 13.34l-66.8 0Z" id="p14w148" />
</svg>
