<?xml version="1.0" encoding="UTF-8"?>
<svg xmlns="http://www.w3.org/2000/svg" xmlns:xlink="http://www.w3.org/1999/xlink" version="1.1" baseProfile="full" width="768" height="1024" viewBox="0,0,768,1024" preserveAspectRatio="xMinYMin meet" >
<style type="text/css">
<![CDATA[
path {fill-opacity: 0.5;fill: #00aeef;visibility: hidden;}
]]>
</style>
<path d="M124.06 107.98l33.68 0l0 18.84l-33.68 0Z" id="p93w1" />
<path d="M161.39 107.98l23.09 0l0 18.84l-23.09 0Z" id="p93w2" />
<path d="M188.14 107.98l54.86 0l0 18.84l-54.86 0Z" id="p93w3" />
<path d="M246.65 107.98l13.62 0l0 18.84l-13.62 0Z" id="p93w4" />
<path d="M263.92 107.98l45.57 0l0 18.84l-45.57 0Z" id="p93w5" />
<path d="M313.14 107.98l85.04 0l0 18.84l-85.04 0Z" id="p93w6" />
<path d="M124.06 139.19l46.24 0l0 14.52l-46.24 0Z" id="p93w7" />
<path d="M173.51 139.19l53.99 0l0 14.52l-53.99 0Z" id="p93w8" />
<path d="M240.59 139.19l43.83 0l0 14.52l-43.83 0Z" id="p93w9" />
<path d="M287.63 139.19l15.5 0l0 14.52l-15.5 0Z" id="p93w10" />
<path d="M306.33 139.19l26.46 0l0 14.52l-26.46 0Z" id="p93w11" />
<path d="M336 139.19l13.9 0l0 14.52l-13.9 0Z" id="p93w12" />
<path d="M124.06 155.86l49.99 0l0 14.52l-49.99 0Z" id="p93w13" />
<path d="M177.25 155.86l48.14 0l0 14.52l-48.14 0Z" id="p93w14" />
<path d="M228.6 155.86l25.67 0l0 14.52l-25.67 0Z" id="p93w15" />
<path d="M257.48 155.86l45.43 0l0 14.52l-45.43 0Z" id="p93w16" />
<path d="M306.12 155.86l19.52 0l0 14.52l-19.52 0Z" id="p93w17" />
<path d="M328.85 155.86l35 0l0 14.52l-35 0Z" id="p93w18" />
<path d="M124.06 172.53l53.19 0l0 14.52l-53.19 0Z" id="p93w19" />
<path d="M180.46 172.53l14.18 0l0 14.52l-14.18 0Z" id="p93w20" />
<path d="M197.85 172.53l36.63 0l0 14.52l-36.63 0Z" id="p93w21" />
<path d="M237.68 172.53l14.18 0l0 14.52l-14.18 0Z" id="p93w22" />
<path d="M255.06 172.53l26.19 0l0 14.52l-26.19 0Z" id="p93w23" />
<path d="M284.46 172.53l56.14 0l0 14.52l-56.14 0Z" id="p93w24" />
<path d="M343.8 172.53l18.18 0l0 14.52l-18.18 0Z" id="p93w25" />
<path d="M124.06 189.2l31.8 0l0 14.52l-31.8 0Z" id="p93w26" />
<path d="M159.07 189.2l40.63 0l0 14.52l-40.63 0Z" id="p93w27" />
<path d="M202.9 189.2l9.89 0l0 14.52l-9.89 0Z" id="p93w28" />
<path d="M215.99 189.13l53.79 0l0 14.6l-53.79 0Z" id="p93w29" />
<path d="M124.06 214.23l12.83 0l0 14.61l-12.83 0Z" id="p93w30" />
<path d="M140.1 214.23l23.51 0l0 14.61l-23.51 0Z" id="p93w31" />
<path d="M175.46 214.23l29.14 0l0 14.61l-29.14 0Z" id="p93w32" />
<path d="M207.81 214.23l13.9 0l0 14.61l-13.9 0Z" id="p93w33" />
<path d="M224.92 214.23l17.9 0l0 14.61l-17.9 0Z" id="p93w34" />
<path d="M261.61 214.23l16.83 0l0 14.61l-16.83 0Z" id="p93w35" />
<path d="M281.65 214.23l9.89 0l0 14.61l-9.89 0Z" id="p93w36" />
<path d="M294.74 214.23l23.51 0l0 14.61l-23.51 0Z" id="p93w37" />
<path d="M321.46 214.23l9.89 0l0 14.61l-9.89 0Z" id="p93w38" />
<path d="M334.55 214.23l22.98 0l0 14.61l-22.98 0Z" id="p93w39" />
<path d="M360.74 214.23l31.44 0l0 14.61l-31.44 0Z" id="p93w40" />
<path d="M133.79 259.16l7.58 0l0 14.2l-7.58 0Z" id="p93w41" />
<path d="M162.91 257.89l20.12 0l0 13.65l-20.12 0Z" id="p93w42" />
<path d="M185.6 256.9l53.51 0l0 12.2l-53.51 0Z" id="p93w43" />
<path d="M241.69 254.45l27.34 0l0 13.34l-27.34 0Z" id="p93w44" />
<path d="M271.59 253.15l10.51 0l0 14.07l-10.51 0Z" id="p93w45" />
<path d="M284.67 252.58l36.36 0l0 12.95l-36.36 0Z" id="p93w46" />
<path d="M323.6 250.88l32.26 0l0 13.12l-32.26 0Z" id="p93w47" />
<path d="M130.97 297.58l31.27 0l0 14.52l-31.27 0Z" id="p93w48" />
<path d="M165.44 297.58l35.76 0l0 14.52l-35.76 0Z" id="p93w49" />
<path d="M204.41 297.58l13.9 0l0 14.52l-13.9 0Z" id="p93w50" />
<path d="M221.51 297.58l39.49 0l0 14.52l-39.49 0Z" id="p93w51" />
<path d="M270.63 297.58l45.46 0l0 14.52l-45.46 0Z" id="p93w52" />
<path d="M319.29 297.58l19.51 0l0 14.52l-19.51 0Z" id="p93w53" />
<path d="M342.01 297.58l55.61 0l0 14.52l-55.61 0Z" id="p93w54" />
<path d="M153.76 338.3l28.17 0l0 16.02l-28.17 0Z" id="p93w55" />
<path d="M185.9 339.99l13.12 0l0 15.23l-13.12 0Z" id="p93w56" />
<path d="M202.98 340.88l17.13 0l0 15.44l-17.13 0Z" id="p93w57" />
<path d="M136.15 378.95l53.94 0l0 12.64l-53.94 0Z" id="p93w58" />
<path d="M192.8 376.97l27.22 0l0 13.58l-27.22 0Z" id="p93w59" />
<path d="M222.72 375.92l15.99 0l0 13.97l-15.99 0Z" id="p93w60" />
<path d="M241.41 375.27l104.82 0l0 10.87l-104.82 0Z" id="p93w61" />
<path d="M136.74 395.61l26.15 0l0 13.61l-26.15 0Z" id="p93w62" />
<path d="M165.59 394.6l48.31 0l0 12.84l-48.31 0Z" id="p93w63" />
<path d="M216.6 392.82l24.01 0l0 13.69l-24.01 0Z" id="p93w64" />
<path d="M243.31 391.89l46.45 0l0 12.91l-46.45 0Z" id="p93w65" />
<path d="M123.71 447.64l23.27 0l0 14.52l-23.27 0Z" id="p93w66" />
<path d="M150.18 447.64l11.22 0l0 14.52l-11.22 0Z" id="p93w67" />
<path d="M164.61 447.64l38.77 0l0 14.52l-38.77 0Z" id="p93w68" />
<path d="M206.58 447.64l35.29 0l0 14.52l-35.29 0Z" id="p93w69" />
<path d="M245.09 447.64l15.5 0l0 14.52l-15.5 0Z" id="p93w70" />
<path d="M263.79 447.64l59.33 0l0 14.52l-59.33 0Z" id="p93w71" />
<path d="M326.33 447.64l13.9 0l0 14.52l-13.9 0Z" id="p93w72" />
<path d="M343.43 447.64l25.95 0l0 14.52l-25.95 0Z" id="p93w73" />
<path d="M124.06 464.31l37.96 0l0 14.52l-37.96 0Z" id="p93w74" />
<path d="M165.23 464.31l9.89 0l0 14.52l-9.89 0Z" id="p93w75" />
<path d="M178.32 464.31l21.12 0l0 14.52l-21.12 0Z" id="p93w76" />
<path d="M202.65 464.31l13.9 0l0 14.52l-13.9 0Z" id="p93w77" />
<path d="M219.4 464.31l23.27 0l0 14.52l-23.27 0Z" id="p93w78" />
<path d="M265.39 464.31l13.91 0l0 14.52l-13.91 0Z" id="p93w79" />
<path d="M282.51 464.31l13.9 0l0 14.52l-13.9 0Z" id="p93w80" />
<path d="M299.61 464.31l38.77 0l0 14.52l-38.77 0Z" id="p93w81" />
<path d="M364.05 464.31l12.83 0l0 14.52l-12.83 0Z" id="p93w82" />
<path d="M380.09 464.31l21.12 0l0 14.52l-21.12 0Z" id="p93w83" />
<path d="M415.65 464.31l16.83 0l0 14.52l-16.83 0Z" id="p93w84" />
<path d="M445.57 464.31l9.89 0l0 14.52l-9.89 0Z" id="p93w85" />
<path d="M458.66 464.31l27.73 0l0 14.52l-27.73 0Z" id="p93w86" />
<path d="M124.06 480.98l39.28 0l0 14.52l-39.28 0Z" id="p93w87" />
<path d="M166.55 480.98l15.5 0l0 14.52l-15.5 0Z" id="p93w88" />
<path d="M185.25 480.98l40.9 0l0 14.52l-40.9 0Z" id="p93w89" />
<path d="M229.37 480.98l39.02 0l0 14.52l-39.02 0Z" id="p93w90" />
<path d="M271.59 480.98l14.18 0l0 14.52l-14.18 0Z" id="p93w91" />
<path d="M288.97 480.98l60.68 0l0 14.52l-60.68 0Z" id="p93w92" />
<path d="M395.64 480.98l11.22 0l0 14.52l-11.22 0Z" id="p93w93" />
<path d="M410.06 480.98l14.18 0l0 14.52l-14.18 0Z" id="p93w94" />
<path d="M427.45 480.98l52.92 0l0 14.52l-52.92 0Z" id="p93w95" />
<path d="M483.57 480.98l19.79 0l0 14.52l-19.79 0Z" id="p93w96" />
<path d="M506.56 480.98l19.79 0l0 14.52l-19.79 0Z" id="p93w97" />
<path d="M124.06 497.65l22.99 0l0 14.52l-22.99 0Z" id="p93w98" />
<path d="M150.26 497.65l28.06 0l0 14.52l-28.06 0Z" id="p93w99" />
<path d="M178.32 497.65l12.57 0l0 14.52l-12.57 0Z" id="p93w100" />
<path d="M194.1 497.65l15.5 0l0 14.52l-15.5 0Z" id="p93w101" />
<path d="M212.8 497.65l39.02 0l0 14.52l-39.02 0Z" id="p93w102" />
<path d="M255.03 497.65l13.9 0l0 14.52l-13.9 0Z" id="p93w103" />
<path d="M272.13 497.65l28.87 0l0 14.52l-28.87 0Z" id="p93w104" />
<path d="M304.21 497.65l60.66 0l0 14.52l-60.66 0Z" id="p93w105" />
<path d="M124.06 522.59l24.45 0l0 14.6l-24.45 0Z" id="p93w106" />
<path d="M124.06 541.11l19.74 0l0 12.29l-19.74 0Z" id="p93w107" />
<path d="M152.63 539.34l30.74 0l0 14.52l-30.74 0Z" id="p93w108" />
<path d="M186.58 539.34l24.06 0l0 14.52l-24.06 0Z" id="p93w109" />
<path d="M213.85 539.34l34.74 0l0 14.52l-34.74 0Z" id="p93w110" />
<path d="M251.8 539.34l16.83 0l0 14.52l-16.83 0Z" id="p93w111" />
<path d="M290.8 539.34l17.11 0l0 14.52l-17.11 0Z" id="p93w112" />
<path d="M311.11 539.34l66.8 0l0 14.52l-66.8 0Z" id="p93w113" />
<path d="M389.41 539.34l23.8 0l0 14.52l-23.8 0Z" id="p93w114" />
<path d="M416.41 539.34l9.62 0l0 14.52l-9.62 0Z" id="p93w115" />
<path d="M429.24 539.34l80.99 0l0 14.52l-80.99 0Z" id="p93w116" />
<path d="M513.44 539.34l18.44 0l0 14.52l-18.44 0Z" id="p93w117" />
<path d="M535.09 539.34l39.91 0l0 14.52l-39.91 0Z" id="p93w118" />
<path d="M143.76 556.01l41.06 0l0 14.52l-41.06 0Z" id="p93w119" />
<path d="M188.03 556.01l17.11 0l0 14.52l-17.11 0Z" id="p93w120" />
<path d="M208.34 556.01l15.5 0l0 14.52l-15.5 0Z" id="p93w121" />
<path d="M227.04 556.01l52.93 0l0 14.52l-52.93 0Z" id="p93w122" />
<path d="M283.18 556.01l13.9 0l0 14.52l-13.9 0Z" id="p93w123" />
<path d="M300.29 556.01l29.67 0l0 14.52l-29.67 0Z" id="p93w124" />
<path d="M333.17 556.01l24.85 0l0 14.52l-24.85 0Z" id="p93w125" />
<path d="M361.23 556.01l9.89 0l0 14.52l-9.89 0Z" id="p93w126" />
<path d="M374.32 556.01l26.73 0l0 14.52l-26.73 0Z" id="p93w127" />
<path d="M423.21 556.01l17.11 0l0 14.52l-17.11 0Z" id="p93w128" />
<path d="M443.53 556.01l40.9 0l0 14.52l-40.9 0Z" id="p93w129" />
<path d="M124.06 574.46l33.05 0l0 12.29l-33.05 0Z" id="p93w130" />
<path d="M165.94 572.68l12.83 0l0 14.52l-12.83 0Z" id="p93w131" />
<path d="M181.98 572.68l26.73 0l0 14.52l-26.73 0Z" id="p93w132" />
<path d="M211.91 572.68l16.83 0l0 14.52l-16.83 0Z" id="p93w133" />
<path d="M231.95 572.68l36.63 0l0 14.52l-36.63 0Z" id="p93w134" />
<path d="M271.78 572.68l19.8 0l0 14.52l-19.8 0Z" id="p93w135" />
<path d="M294.79 572.68l26.45 0l0 14.52l-26.45 0Z" id="p93w136" />
<path d="M324.45 572.68l9.62 0l0 14.52l-9.62 0Z" id="p93w137" />
<path d="M337.28 572.68l35.56 0l0 14.52l-35.56 0Z" id="p93w138" />
<path d="M376.04 572.68l39.91 0l0 14.52l-39.91 0Z" id="p93w139" />
<path d="M419.17 572.68l41.06 0l0 14.52l-41.06 0Z" id="p93w140" />
<path d="M463.44 572.68l33.95 0l0 14.52l-33.95 0Z" id="p93w141" />
<path d="M500.59 572.68l21.4 0l0 14.52l-21.4 0Z" id="p93w142" />
<path d="M525.2 572.68l20.85 0l0 14.52l-20.85 0Z" id="p93w143" />
<path d="M143.75 589.35l39.91 0l0 14.52l-39.91 0Z" id="p93w144" />
<path d="M186.87 589.35l13.9 0l0 14.52l-13.9 0Z" id="p93w145" />
<path d="M203.98 589.35l40.64 0l0 14.52l-40.64 0Z" id="p93w146" />
<path d="M247.83 589.35l20.05 0l0 14.52l-20.05 0Z" id="p93w147" />
<path d="M280.97 589.35l18.7 0l0 14.52l-18.7 0Z" id="p93w148" />
<path d="M302.88 589.35l15.5 0l0 14.52l-15.5 0Z" id="p93w149" />
<path d="M321.58 589.35l60.94 0l0 14.52l-60.94 0Z" id="p93w150" />
<path d="M385.73 589.35l15.5 0l0 14.52l-15.5 0Z" id="p93w151" />
<path d="M404.44 589.35l22.99 0l0 14.52l-22.99 0Z" id="p93w152" />
<path d="M430.64 589.35l51.57 0l0 14.52l-51.57 0Z" id="p93w153" />
<path d="M485.41 589.35l17.11 0l0 14.52l-17.11 0Z" id="p93w154" />
<path d="M505.73 589.35l15.5 0l0 14.52l-15.5 0Z" id="p93w155" />
<path d="M524.43 589.35l55.61 0l0 14.52l-55.61 0Z" id="p93w156" />
<path d="M124.06 607.8l19.74 0l0 12.29l-19.74 0Z" id="p93w157" />
<path d="M152.63 606.03l26.19 0l0 14.52l-26.19 0Z" id="p93w158" />
<path d="M182.03 606.03l22.99 0l0 14.52l-22.99 0Z" id="p93w159" />
<path d="M208.23 606.03l11.5 0l0 14.52l-11.5 0Z" id="p93w160" />
<path d="M222.93 606.03l12.29 0l0 14.52l-12.29 0Z" id="p93w161" />
<path d="M238.43 606.03l36.63 0l0 14.52l-36.63 0Z" id="p93w162" />
<path d="M278.26 606.03l11.5 0l0 14.52l-11.5 0Z" id="p93w163" />
<path d="M292.97 606.03l43.57 0l0 14.52l-43.57 0Z" id="p93w164" />
<path d="M339.75 606.03l14.18 0l0 14.52l-14.18 0Z" id="p93w165" />
<path d="M357.13 606.03l32.88 0l0 14.52l-32.88 0Z" id="p93w166" />
<path d="M393.22 606.03l24.06 0l0 14.52l-24.06 0Z" id="p93w167" />
<path d="M420.49 606.03l34.74 0l0 14.52l-34.74 0Z" id="p93w168" />
<path d="M466.72 606.03l25.41 0l0 14.52l-25.41 0Z" id="p93w169" />
<path d="M495.34 606.03l23.8 0l0 14.52l-23.8 0Z" id="p93w170" />
<path d="M522.35 606.03l9.89 0l0 14.52l-9.89 0Z" id="p93w171" />
<path d="M535.44 606.03l32.6 0l0 14.52l-32.6 0Z" id="p93w172" />
<path d="M143.75 622.7l19.51 0l0 14.52l-19.51 0Z" id="p93w173" />
<path d="M166.47 622.7l33.14 0l0 14.52l-33.14 0Z" id="p93w174" />
<path d="M202.82 622.7l16.83 0l0 14.52l-16.83 0Z" id="p93w175" />
<path d="M222.85 622.7l9.89 0l0 14.52l-9.89 0Z" id="p93w176" />
<path d="M235.95 622.7l26.73 0l0 14.52l-26.73 0Z" id="p93w177" />
<path d="M284.85 622.7l17.11 0l0 14.52l-17.11 0Z" id="p93w178" />
<path d="M305.16 622.7l75.12 0l0 14.52l-75.12 0Z" id="p93w179" />
<path d="M383.49 622.7l10.43 0l0 14.52l-10.43 0Z" id="p93w180" />
<path d="M397.12 622.7l35.56 0l0 14.52l-35.56 0Z" id="p93w181" />
<path d="M435.89 622.7l12.57 0l0 14.52l-12.57 0Z" id="p93w182" />
<path d="M484.52 622.7l57.76 0l0 14.52l-57.76 0Z" id="p93w183" />
<path d="M143.75 639.37l9.89 0l0 14.52l-9.89 0Z" id="p93w184" />
<path d="M156.84 639.37l40.18 0l0 14.52l-40.18 0Z" id="p93w185" />
<path d="M200.23 639.37l56.55 0l0 14.52l-56.55 0Z" id="p93w186" />
<path d="M124.06 657.82l33.05 0l0 12.29l-33.05 0Z" id="p93w187" />
<path d="M165.94 656.05l10.43 0l0 14.52l-10.43 0Z" id="p93w188" />
<path d="M179.57 656.05l13.9 0l0 14.52l-13.9 0Z" id="p93w189" />
<path d="M196.68 656.05l21.38 0l0 14.52l-21.38 0Z" id="p93w190" />
<path d="M221.27 656.05l19.51 0l0 14.52l-19.51 0Z" id="p93w191" />
<path d="M243.99 656.05l46.26 0l0 14.52l-46.26 0Z" id="p93w192" />
<path d="M293.46 656.05l25.4 0l0 14.52l-25.4 0Z" id="p93w193" />
<path d="M322.06 656.05l17.38 0l0 14.52l-17.38 0Z" id="p93w194" />
<path d="M342.65 656.05l46 0l0 14.52l-46 0Z" id="p93w195" />
<path d="M391.86 656.05l39.91 0l0 14.52l-39.91 0Z" id="p93w196" />
<path d="M434.98 656.05l13.9 0l0 14.52l-13.9 0Z" id="p93w197" />
<path d="M452.09 656.05l37.41 0l0 14.52l-37.41 0Z" id="p93w198" />
<path d="M492.7 656.05l17.11 0l0 14.52l-17.11 0Z" id="p93w199" />
<path d="M513.01 656.05l9.89 0l0 14.52l-9.89 0Z" id="p93w200" />
<path d="M526.11 656.05l42.86 0l0 14.52l-42.86 0Z" id="p93w201" />
<path d="M143.75 672.72l25.67 0l0 14.52l-25.67 0Z" id="p93w202" />
<path d="M172.63 672.72l21.12 0l0 14.52l-21.12 0Z" id="p93w203" />
<path d="M196.96 672.72l24.85 0l0 14.52l-24.85 0Z" id="p93w204" />
<path d="M225.02 672.72l9.89 0l0 14.52l-9.89 0Z" id="p93w205" />
<path d="M238.11 672.72l45.43 0l0 14.52l-45.43 0Z" id="p93w206" />
<path d="M286.75 672.72l47.31 0l0 14.52l-47.31 0Z" id="p93w207" />
<path d="M343.68 672.72l9.89 0l0 14.52l-9.89 0Z" id="p93w208" />
<path d="M356.77 672.72l40.18 0l0 14.52l-40.18 0Z" id="p93w209" />
<path d="M400.16 672.72l60.39 0l0 14.52l-60.39 0Z" id="p93w210" />
<path d="M463.75 672.72l19.51 0l0 14.52l-19.51 0Z" id="p93w211" />
<path d="M486.47 672.72l54.55 0l0 14.52l-54.55 0Z" id="p93w212" />
<path d="M143.75 689.39l15.5 0l0 14.52l-15.5 0Z" id="p93w213" />
<path d="M162.45 689.39l38.77 0l0 14.52l-38.77 0Z" id="p93w214" />
<path d="M204.43 689.39l11.22 0l0 14.52l-11.22 0Z" id="p93w215" />
<path d="M218.85 689.39l51.33 0l0 14.52l-51.33 0Z" id="p93w216" />
<path d="M273.39 689.39l39.91 0l0 14.52l-39.91 0Z" id="p93w217" />
<path d="M316.52 689.39l13.9 0l0 14.52l-13.9 0Z" id="p93w218" />
<path d="M333.62 689.39l37.41 0l0 14.52l-37.41 0Z" id="p93w219" />
<path d="M374.24 689.39l16.83 0l0 14.52l-16.83 0Z" id="p93w220" />
<path d="M394.27 689.39l54.55 0l0 14.52l-54.55 0Z" id="p93w221" />
<path d="M452.03 689.39l22.99 0l0 14.52l-22.99 0Z" id="p93w222" />
<path d="M478.23 689.39l48.64 0l0 14.52l-48.64 0Z" id="p93w223" />
<path d="M530.08 689.39l20.85 0l0 14.52l-20.85 0Z" id="p93w224" />
<path d="M143.75 706.06l44.36 0l0 14.52l-44.36 0Z" id="p93w225" />
<path d="M191.32 706.06l43.03 0l0 14.52l-43.03 0Z" id="p93w226" />
<path d="M124.06 724.51l19.74 0l0 12.29l-19.74 0Z" id="p93w227" />
<path d="M152.63 722.74l21.4 0l0 14.52l-21.4 0Z" id="p93w228" />
<path d="M177.24 722.74l37.41 0l0 14.52l-37.41 0Z" id="p93w229" />
<path d="M227.74 722.74l13.63 0l0 14.52l-13.63 0Z" id="p93w230" />
<path d="M244.58 722.74l20.85 0l0 14.52l-20.85 0Z" id="p93w231" />
<path d="M268.64 722.74l21.37 0l0 14.52l-21.37 0Z" id="p93w232" />
<path d="M293.22 722.74l35.29 0l0 14.52l-35.29 0Z" id="p93w233" />
<path d="M331.72 722.74l23.79 0l0 14.52l-23.79 0Z" id="p93w234" />
<path d="M358.71 722.74l25.67 0l0 14.52l-25.67 0Z" id="p93w235" />
<path d="M387.59 722.74l19.79 0l0 14.52l-19.79 0Z" id="p93w236" />
<path d="M410.59 722.74l37.42 0l0 14.52l-37.42 0Z" id="p93w237" />
<path d="M451.21 722.74l11.5 0l0 14.52l-11.5 0Z" id="p93w238" />
<path d="M465.92 722.74l19.77 0l0 14.52l-19.77 0Z" id="p93w239" />
<path d="M498.79 722.74l28.06 0l0 14.52l-28.06 0Z" id="p93w240" />
<path d="M162.72 739.41l17.11 0l0 14.52l-17.11 0Z" id="p93w241" />
<path d="M183.03 739.41l31.81 0l0 14.52l-31.81 0Z" id="p93w242" />
<path d="M218.05 739.41l41.18 0l0 14.52l-41.18 0Z" id="p93w243" />
<path d="M262.44 739.41l17.11 0l0 14.52l-17.11 0Z" id="p93w244" />
<path d="M282.75 739.41l29.96 0l0 14.52l-29.96 0Z" id="p93w245" />
<path d="M315.92 739.41l12.57 0l0 14.52l-12.57 0Z" id="p93w246" />
<path d="M331.69 739.41l25.92 0l0 14.52l-25.92 0Z" id="p93w247" />
<path d="M360.82 739.41l19.51 0l0 14.52l-19.51 0Z" id="p93w248" />
<path d="M383.54 739.41l41.7 0l0 14.52l-41.7 0Z" id="p93w249" />
<path d="M428.44 739.41l13.9 0l0 14.52l-13.9 0Z" id="p93w250" />
<path d="M445.55 739.41l36.63 0l0 14.52l-36.63 0Z" id="p93w251" />
<path d="M485.39 739.41l15.5 0l0 14.52l-15.5 0Z" id="p93w252" />
<path d="M504.09 739.41l43.03 0l0 14.52l-43.03 0Z" id="p93w253" />
<path d="M124.06 757.86l33.05 0l0 12.29l-33.05 0Z" id="p93w254" />
<path d="M165.94 756.08l25.41 0l0 14.52l-25.41 0Z" id="p93w255" />
<path d="M194.55 756.08l24.85 0l0 14.52l-24.85 0Z" id="p93w256" />
<path d="M222.61 756.08l20.31 0l0 14.52l-20.31 0Z" id="p93w257" />
<path d="M252.55 756.08l25.38 0l0 14.52l-25.38 0Z" id="p93w258" />
<path d="M281.14 756.08l14.18 0l0 14.52l-14.18 0Z" id="p93w259" />
<path d="M298.52 756.08l38.5 0l0 14.52l-38.5 0Z" id="p93w260" />
<path d="M340.23 756.08l16.83 0l0 14.52l-16.83 0Z" id="p93w261" />
<path d="M360.27 756.08l33.95 0l0 14.52l-33.95 0Z" id="p93w262" />
<path d="M397.43 756.08l29.94 0l0 14.52l-29.94 0Z" id="p93w263" />
<path d="M430.57 756.08l20.85 0l0 14.52l-20.85 0Z" id="p93w264" />
<path d="M454.63 756.08l9.62 0l0 14.52l-9.62 0Z" id="p93w265" />
<path d="M467.46 756.08l44.9 0l0 14.52l-44.9 0Z" id="p93w266" />
<path d="M124.06 799.91l23.83 0l0 18.84l-23.83 0Z" id="p93w267" />
<path d="M151.54 799.91l18.36 0l0 18.84l-18.36 0Z" id="p93w268" />
<path d="M173.54 799.91l34.36 0l0 18.84l-34.36 0Z" id="p93w269" />
<path d="M220.33 799.91l21.46 0l0 18.84l-21.46 0Z" id="p93w270" />
<path d="M245.44 799.91l90.33 0l0 18.84l-90.33 0Z" id="p93w271" />
<path d="M124.06 831.11l14.18 0l0 14.52l-14.18 0Z" id="p93w272" />
<path d="M141.45 831.11l46.51 0l0 14.52l-46.51 0Z" id="p93w273" />
<path d="M191.17 831.11l44.36 0l0 14.52l-44.36 0Z" id="p93w274" />
<path d="M238.74 831.11l28.06 0l0 14.52l-28.06 0Z" id="p93w275" />
<path d="M270.01 831.11l12.29 0l0 14.52l-12.29 0Z" id="p93w276" />
<path d="M285.5 831.11l64.18 0l0 14.52l-64.18 0Z" id="p93w277" />
<path d="M124.06 847.78l13.9 0l0 14.52l-13.9 0Z" id="p93w278" />
<path d="M141.17 847.78l9.89 0l0 14.52l-9.89 0Z" id="p93w279" />
<path d="M154.26 847.78l35.27 0l0 14.52l-35.27 0Z" id="p93w280" />
<path d="M192.74 847.78l33.7 0l0 14.52l-33.7 0Z" id="p93w281" />
<path d="M229.64 847.78l26.45 0l0 14.52l-26.45 0Z" id="p93w282" />
<path d="M259.3 847.78l18.72 0l0 14.52l-18.72 0Z" id="p93w283" />
<path d="M281.23 847.78l19.51 0l0 14.52l-19.51 0Z" id="p93w284" />
<path d="M303.94 847.78l33.88 0l0 14.52l-33.88 0Z" id="p93w285" />
<path d="M337.82 847.78l40.1 0l0 14.52l-40.1 0Z" id="p93w286" />
<path d="M124.06 864.45l63.34 0l0 14.52l-63.34 0Z" id="p93w287" />
<path d="M190.61 864.45l18.44 0l0 14.52l-18.44 0Z" id="p93w288" />
<path d="M212.26 864.45l47.31 0l0 14.52l-47.31 0Z" id="p93w289" />
<path d="M124.06 881.12l11.5 0l0 14.52l-11.5 0Z" id="p93w290" />
<path d="M138.77 881.12l29.95 0l0 14.52l-29.95 0Z" id="p93w291" />
<path d="M176.96 881.12l6.41 0l0 14.52l-6.41 0Z" id="p93w292" />
<path d="M186.59 881.12l28.88 0l0 14.52l-28.88 0Z" id="p93w293" />
<path d="M218.67 881.12l18.45 0l0 14.52l-18.45 0Z" id="p93w294" />
<path d="M240.33 881.12l31.27 0l0 14.52l-31.27 0Z" id="p93w295" />
<path d="M274.81 881.12l39.04 0l0 14.52l-39.04 0Z" id="p93w296" />
<path d="M317.06 881.12l20.85 0l0 14.52l-20.85 0Z" id="p93w297" />
<path d="M341.12 881.12l24.34 0l0 14.52l-24.34 0Z" id="p93w298" />
<path d="M138.22 897.79l41.45 0l0 14.52l-41.45 0Z" id="p93w299" />
<path d="M182.88 897.79l14.18 0l0 14.52l-14.18 0Z" id="p93w300" />
<path d="M200.26 897.79l29.95 0l0 14.52l-29.95 0Z" id="p93w301" />
<path d="M233.42 897.79l41.89 0l0 14.52l-41.89 0Z" id="p93w302" />
<path d="M278.52 897.79l28.88 0l0 14.52l-28.88 0Z" id="p93w303" />
<path d="M324.37 897.79l31.49 0l0 14.52l-31.49 0Z" id="p93w304" />
<path d="M124.06 914.46l43.86 0l0 14.52l-43.86 0Z" id="p93w305" />
<path d="M171.13 914.46l15.5 0l0 14.52l-15.5 0Z" id="p93w306" />
<path d="M189.83 914.46l43.29 0l0 14.52l-43.29 0Z" id="p93w307" />
<path d="M236.33 914.46l11.22 0l0 14.52l-11.22 0Z" id="p93w308" />
<path d="M250.76 914.46l31.28 0l0 14.52l-31.28 0Z" id="p93w309" />
<path d="M285.25 914.46l13.9 0l0 14.52l-13.9 0Z" id="p93w310" />
<path d="M302.36 914.46l38.23 0l0 14.52l-38.23 0Z" id="p93w311" />
<path d="M343.79 914.46l36.61 0l0 14.52l-36.61 0Z" id="p93w312" />
<path d="M383.61 914.46l6.41 0l0 14.52l-6.41 0Z" id="p93w313" />
<path d="M393.24 914.46l31.84 0l0 14.52l-31.84 0Z" id="p93w314" />
<path d="M465.47 321.84l24.54 0l0 14.52l-24.54 0Z" id="p93w315" />
<path d="M465.47 382.66l54.79 0l0 14.52l-54.79 0Z" id="p93w316" />
<path d="M465.47 343.1l21.4 0l0 14.52l-21.4 0Z" id="p93w317" />
<path d="M465.47 363.37l28.88 0l0 14.52l-28.88 0Z" id="p93w318" />
<path d="M636.61 453.11l20.81 0l0 12.56l-20.81 0Z" id="p93w319" />
<path d="M660.12 453.11l31.57 0l0 12.56l-31.57 0Z" id="p93w320" />
<path d="M605.49 499.03l13.55 0l0 15.37l-13.55 0Z" id="p93w321" />
<path d="M622.41 499.03l37.58 0l0 15.37l-37.58 0Z" id="p93w322" />
<path d="M663.37 499.03l30.84 0l0 15.37l-30.84 0Z" id="p93w323" />
<path d="M605.49 520.32l12.83 0l0 14.52l-12.83 0Z" id="p93w324" />
<path d="M621.53 520.32l35.76 0l0 14.52l-35.76 0Z" id="p93w325" />
<path d="M605.49 536.99l88.32 0l0 14.52l-88.32 0ZM605.49 553.66l62.66 0l0 14.52l-62.66 0Z" id="p93w326" />
<path d="M671.35 553.66l16.83 0l0 14.52l-16.83 0Z" id="p93w327" />
<path d="M605.49 570.33l20.85 0l0 14.52l-20.85 0Z" id="p93w328" />
<path d="M629.55 570.33l35.76 0l0 14.52l-35.76 0Z" id="p93w329" />
<path d="M668.52 570.33l14.18 0l0 14.52l-14.18 0Z" id="p93w330" />
<path d="M605.49 587l40.27 0l0 14.52l-40.27 0Z" id="p93w331" />
<path d="M648.97 587l13.9 0l0 14.52l-13.9 0Z" id="p93w332" />
<path d="M666.07 587l9.89 0l0 14.52l-9.89 0Z" id="p93w333" />
<path d="M605.49 603.67l39.57 0l0 14.52l-39.57 0Z" id="p93w334" />
<path d="M605.49 628.69l25.41 0l0 14.52l-25.41 0Z" id="p93w335" />
<path d="M634.11 628.69l22.99 0l0 14.52l-22.99 0Z" id="p93w336" />
<path d="M605.49 645.36l83.84 0l0 14.52l-83.84 0Z" id="p93w337" />
<path d="M605.49 662.03l20.85 0l0 14.52l-20.85 0Z" id="p93w338" />
<path d="M629.55 662.03l33.34 0l0 14.52l-33.34 0Z" id="p93w339" />
<path d="M687.03 662.03l11.22 0l0 14.52l-11.22 0Z" id="p93w340" />
<path d="M432.25 836.7l32.11 0l0 14.6l-32.11 0Z" id="p93w341" />
<path d="M493.29 836.7l20.99 0l0 14.6l-20.99 0Z" id="p93w342" />
<path d="M517.49 836.7l24.14 0l0 14.6l-24.14 0Z" id="p93w343" />
<path d="M558.27 836.7l14.31 0l0 14.6l-14.31 0Z" id="p93w344" />
<path d="M575.79 836.7l29.88 0l0 14.6l-29.88 0Z" id="p93w345" />
<path d="M629.17 836.7l38.61 0l0 14.6l-38.61 0Z" id="p93w346" />
<path d="M53.5 832.95l20.74 0l0 12.3l-20.74 0Z" id="p93w347" />
<path d="M68.27 39.02l42.71 0l0 15.38l-42.71 0Z" id="p93w348" />
<path d="M152.94 38.6l45.75 0l0 16.09l-45.75 0Z" id="p93w349" />
<path d="M250.71 39.02l43.21 0l0 15.38l-43.21 0Z" id="p93w350" />
<path d="M358.23 39.02l28.68 0l0 15.38l-28.68 0Z" id="p93w351" />
<path d="M390.29 39.02l43.54 0l0 15.38l-43.54 0Z" id="p93w352" />
<path d="M467.02 39.02l32.54 0l0 15.38l-32.54 0Z" id="p93w353" />
<path d="M607.78 983l83.32 0l0 12.23l-83.32 0Z" id="p93w354" />
</svg>
