<?xml version="1.0" encoding="UTF-8"?>
<svg xmlns="http://www.w3.org/2000/svg" xmlns:xlink="http://www.w3.org/1999/xlink" version="1.1" baseProfile="full" width="768" height="1024" viewBox="0,0,768,1024" preserveAspectRatio="xMinYMin meet" >
<style type="text/css">
<![CDATA[
path {fill-opacity: 0.5;fill: #00aeef;visibility: hidden;}
]]>
</style>
<path d="M124.06 649.85l34.63 0l0 18.84l-34.63 0Z" id="p67w1" />
<path d="M162.34 649.85l89.43 0l0 18.84l-89.43 0Z" id="p67w2" />
<path d="M255.42 649.85l13.62 0l0 18.84l-13.62 0Z" id="p67w3" />
<path d="M272.69 649.85l38.39 0l0 18.84l-38.39 0Z" id="p67w4" />
<path d="M143.75 681.06l28.33 0l0 14.52l-28.33 0Z" id="p67w5" />
<path d="M175.29 681.06l50.01 0l0 14.52l-50.01 0Z" id="p67w6" />
<path d="M228.51 681.06l50.79 0l0 14.52l-50.79 0Z" id="p67w7" />
<path d="M282.5 681.06l16.83 0l0 14.52l-16.83 0Z" id="p67w8" />
<path d="M302.54 681.06l9.89 0l0 14.52l-9.89 0Z" id="p67w9" />
<path d="M315.64 681.06l44.1 0l0 14.52l-44.1 0Z" id="p67w10" />
<path d="M362.94 681.06l13.9 0l0 14.52l-13.9 0Z" id="p67w11" />
<path d="M380.05 681.06l9.89 0l0 14.52l-9.89 0Z" id="p67w12" />
<path d="M393.14 681.06l18.99 0l0 14.52l-18.99 0Z" id="p67w13" />
<path d="M143.75 706.07l40.89 0l0 14.52l-40.89 0Z" id="p67w14" />
<path d="M187.85 706.07l33.67 0l0 14.52l-33.67 0Z" id="p67w15" />
<path d="M224.73 706.04l47.7 0l0 14.52l-47.7 0Z" id="p67w16" />
<path d="M275.64 706.07l13.9 0l0 14.52l-13.9 0Z" id="p67w17" />
<path d="M292.75 706.07l9.89 0l0 14.52l-9.89 0Z" id="p67w18" />
<path d="M305.84 706.07l16.31 0l0 14.52l-16.31 0Z" id="p67w19" />
<path d="M325.36 706.07l33.05 0l0 14.52l-33.05 0Z" id="p67w20" />
<path d="M361.62 706.07l30.23 0l0 14.52l-30.23 0Z" id="p67w21" />
<path d="M395.06 706.07l35.56 0l0 14.52l-35.56 0Z" id="p67w22" />
<path d="M153.64 722.74l50.79 0l0 14.52l-50.79 0Z" id="p67w23" />
<path d="M215.93 722.74l28.33 0l0 14.52l-28.33 0Z" id="p67w24" />
<path d="M247.46 722.74l12.57 0l0 14.52l-12.57 0Z" id="p67w25" />
<path d="M263.24 722.74l30.23 0l0 14.52l-30.23 0Z" id="p67w26" />
<path d="M305.76 722.74l23.53 0l0 14.52l-23.53 0Z" id="p67w27" />
<path d="M143.75 747.75l51.89 0l0 14.52l-51.89 0Z" id="p67w28" />
<path d="M198.85 747.75l15.5 0l0 14.52l-15.5 0Z" id="p67w29" />
<path d="M217.55 747.75l38.5 0l0 14.52l-38.5 0Z" id="p67w30" />
<path d="M259.26 747.75l11.22 0l0 14.52l-11.22 0Z" id="p67w31" />
<path d="M273.69 747.75l27.26 0l0 14.52l-27.26 0Z" id="p67w32" />
<path d="M304.15 747.75l29.67 0l0 14.52l-29.67 0Z" id="p67w33" />
<path d="M337.03 747.75l71.57 0l0 14.52l-71.57 0Z" id="p67w34" />
<path d="M143.75 764.42l13.9 0l0 14.52l-13.9 0Z" id="p67w35" />
<path d="M160.86 764.42l16.31 0l0 14.52l-16.31 0Z" id="p67w36" />
<path d="M180.38 764.42l25.38 0l0 14.52l-25.38 0Z" id="p67w37" />
<path d="M208.97 764.42l55.33 0l0 14.52l-55.33 0Z" id="p67w38" />
<path d="M124.06 797.76l51.89 0l0 14.52l-51.89 0Z" id="p67w39" />
<path d="M179.16 797.76l17.11 0l0 14.52l-17.11 0Z" id="p67w40" />
<path d="M199.47 797.76l45.17 0l0 14.52l-45.17 0Z" id="p67w41" />
<path d="M247.84 797.76l9.89 0l0 14.52l-9.89 0Z" id="p67w42" />
<path d="M260.94 797.76l48.39 0l0 14.52l-48.39 0Z" id="p67w43" />
<path d="M312.53 797.76l16.31 0l0 14.52l-16.31 0Z" id="p67w44" />
<path d="M338.47 797.76l38.23 0l0 14.52l-38.23 0Z" id="p67w45" />
<path d="M379.9 797.76l30.74 0l0 14.52l-30.74 0Z" id="p67w46" />
<path d="M124.06 814.43l77.16 0l0 14.52l-77.16 0Z" id="p67w47" />
<path d="M204.43 814.43l20.85 0l0 14.52l-20.85 0Z" id="p67w48" />
<path d="M143.75 847.78l42.59 0l0 14.52l-42.59 0Z" id="p67w49" />
<path d="M189.56 847.78l26.73 0l0 14.52l-26.73 0Z" id="p67w50" />
<path d="M219.49 847.78l9.89 0l0 14.52l-9.89 0Z" id="p67w51" />
<path d="M232.59 847.78l28.33 0l0 14.52l-28.33 0Z" id="p67w52" />
<path d="M264.12 847.78l15.5 0l0 14.52l-15.5 0Z" id="p67w53" />
<path d="M282.82 847.78l71.37 0l0 14.52l-71.37 0Z" id="p67w54" />
<path d="M357.4 847.78l20.85 0l0 14.52l-20.85 0Z" id="p67w55" />
<path d="M143.75 864.45l25.67 0l0 14.52l-25.67 0Z" id="p67w56" />
<path d="M172.64 864.45l41.45 0l0 14.52l-41.45 0Z" id="p67w57" />
<path d="M217.29 864.45l17.11 0l0 14.52l-17.11 0Z" id="p67w58" />
<path d="M237.17 864.45l23.27 0l0 14.52l-23.27 0Z" id="p67w59" />
<path d="M263.64 864.45l11.22 0l0 14.52l-11.22 0Z" id="p67w60" />
<path d="M278.07 864.45l30.99 0l0 14.52l-30.99 0Z" id="p67w61" />
<path d="M312.27 864.45l19.79 0l0 14.52l-19.79 0Z" id="p67w62" />
<path d="M335.26 864.45l41.96 0l0 14.52l-41.96 0Z" id="p67w63" />
<path d="M380.43 864.45l13.9 0l0 14.52l-13.9 0Z" id="p67w64" />
<path d="M143.75 881.12l50.53 0l0 14.52l-50.53 0Z" id="p67w65" />
<path d="M197.49 881.12l45.97 0l0 14.52l-45.97 0Z" id="p67w66" />
<path d="M143.75 906.13l51.33 0l0 14.52l-51.33 0Z" id="p67w67" />
<path d="M198.29 906.13l53.19 0l0 14.52l-53.19 0Z" id="p67w68" />
<path d="M254.26 906.13l23.27 0l0 14.52l-23.27 0Z" id="p67w69" />
<path d="M289.38 906.13l12.29 0l0 14.52l-12.29 0Z" id="p67w70" />
<path d="M304.88 906.13l43.56 0l0 14.52l-43.56 0Z" id="p67w71" />
<path d="M360.29 906.13l35.29 0l0 14.52l-35.29 0Z" id="p67w72" />
<path d="M398.79 906.13l6.41 0l0 14.52l-6.41 0Z" id="p67w73" />
<path d="M143.75 922.8l37.95 0l0 14.52l-37.95 0Z" id="p67w74" />
<path d="M184.91 922.8l20.85 0l0 14.52l-20.85 0Z" id="p67w75" />
<path d="M208.97 922.8l44.64 0l0 14.52l-44.64 0Z" id="p67w76" />
<path d="M73.54 655.09l15.07 0l0 12.29l-15.07 0Z" id="p67w77" />
<path d="M52.89 666.22l35.72 0l0 12.3l-35.72 0Z" id="p67w78" />
<path d="M39.49 677.34l49.13 0l0 12.3l-49.13 0Z" id="p67w79" />
<path d="M596.59 650.5l20.81 0l0 12.56l-20.81 0Z" id="p67w80" />
<path d="M620.1 650.5l31.57 0l0 12.56l-31.57 0Z" id="p67w81" />
<path d="M493.85 678.69l13.53 0l0 15.37l-13.53 0Z" id="p67w82" />
<path d="M524.96 678.69l16.85 0l0 15.37l-16.85 0Z" id="p67w83" />
<path d="M493.85 699.98l38.49 0l0 14.52l-38.49 0Z" id="p67w84" />
<path d="M535.54 699.98l9.89 0l0 14.52l-9.89 0Z" id="p67w85" />
<path d="M548.64 699.98l64.94 0l0 14.52l-64.94 0Z" id="p67w86" />
<path d="M616.78 699.98l13.9 0l0 14.52l-13.9 0Z" id="p67w87" />
<path d="M493.85 716.65l31.03 0l0 14.52l-31.03 0Z" id="p67w88" />
<path d="M528.08 716.65l28.62 0l0 14.52l-28.62 0Z" id="p67w89" />
<path d="M559.91 716.65l33.41 0l0 14.52l-33.41 0Z" id="p67w90" />
<path d="M596.52 716.65l25.67 0l0 14.52l-25.67 0Z" id="p67w91" />
<path d="M625.4 716.65l9.89 0l0 14.52l-9.89 0Z" id="p67w92" />
<path d="M493.85 733.32l50.5 0l0 14.52l-50.5 0Z" id="p67w93" />
<path d="M547.55 733.32l20.05 0l0 14.52l-20.05 0Z" id="p67w94" />
<path d="M570.81 733.32l28.33 0l0 14.52l-28.33 0Z" id="p67w95" />
<path d="M602.34 733.32l59.61 0l0 14.52l-59.61 0Z" id="p67w96" />
<path d="M493.85 749.99l25.67 0l0 14.52l-25.67 0Z" id="p67w97" />
<path d="M522.73 749.99l32.87 0l0 14.52l-32.87 0Z" id="p67w98" />
<path d="M558.8 749.99l13.9 0l0 14.52l-13.9 0Z" id="p67w99" />
<path d="M575.91 749.99l9.89 0l0 14.52l-9.89 0Z" id="p67w100" />
<path d="M589 749.99l18.99 0l0 14.52l-18.99 0Z" id="p67w101" />
<path d="M493.85 781.09l25.41 0l0 14.52l-25.41 0Z" id="p67w102" />
<path d="M522.46 781.09l22.99 0l0 14.52l-22.99 0Z" id="p67w103" />
<path d="M548.66 781.09l83.84 0l0 14.52l-83.84 0Z" id="p67w104" />
<path d="M493.85 797.76l20.85 0l0 14.52l-20.85 0Z" id="p67w105" />
<path d="M517.91 797.76l27.73 0l0 14.52l-27.73 0Z" id="p67w106" />
<path d="M60.68 849.56l27.93 0l0 12.29l-27.93 0Z" id="p67w107" />
<path d="M498.28 860.98l25.13 0l0 14.52l-25.13 0Z" id="p67w108" />
<path d="M498.28 877.65l25.13 0l0 14.52l-25.13 0Z" id="p67w109" />
<path d="M526.62 877.65l45.15 0l0 14.52l-45.15 0Z" id="p67w110" />
<path d="M498.28 894.32l30.74 0l0 14.52l-30.74 0Z" id="p67w111" />
<path d="M532.23 894.32l46.22 0l0 14.52l-46.22 0Z" id="p67w112" />
<path d="M498.28 910.99l47.57 0l0 14.52l-47.57 0Z" id="p67w113" />
<path d="M549.06 910.99l50.24 0l0 14.52l-50.24 0Z" id="p67w114" />
<path d="M139.82 120.73l17.79 0l0 23.43l-17.79 0Z" id="p67w115" />
<path d="M164.5 120.73l21.87 0l0 23.43l-21.87 0Z" id="p67w116" />
<path d="M193.28 120.73l17.37 0l0 23.43l-17.37 0Z" id="p67w117" />
<path d="M217.55 120.73l61.91 0l0 23.43l-61.91 0Z" id="p67w118" />
<path d="M286.36 120.73l83.3 0l0 23.43l-83.3 0Z" id="p67w119" />
<path d="M139.82 155.51l11.31 0l0 15.15l-11.31 0Z" id="p67w120" />
<path d="M154.27 155.51l27.68 0l0 15.15l-27.68 0Z" id="p67w121" />
<path d="M185.11 155.51l12.02 0l0 15.15l-12.02 0Z" id="p67w122" />
<path d="M200.27 155.51l8.93 0l0 15.15l-8.93 0Z" id="p67w123" />
<path d="M212.35 155.51l14.18 0l0 15.15l-14.18 0Z" id="p67w124" />
<path d="M229.68 155.51l14.46 0l0 15.15l-14.46 0Z" id="p67w125" />
<path d="M247.28 155.51l40.51 0l0 15.15l-40.51 0Z" id="p67w126" />
<path d="M290.94 155.51l18.33 0l0 15.15l-18.33 0Z" id="p67w127" />
<path d="M312.42 155.51l35.68 0l0 15.15l-35.68 0Z" id="p67w128" />
<path d="M351.24 155.51l11.97 0l0 15.15l-11.97 0Z" id="p67w129" />
<path d="M139.82 172.18l45.47 0l0 15.15l-45.47 0Z" id="p67w130" />
<path d="M188.02 172.18l22.39 0l0 15.15l-22.39 0Z" id="p67w131" />
<path d="M213.56 172.18l12.02 0l0 15.15l-12.02 0Z" id="p67w132" />
<path d="M228.73 172.18l49.54 0l0 15.15l-49.54 0Z" id="p67w133" />
<path d="M281.42 172.18l64.04 0l0 15.15l-64.04 0Z" id="p67w134" />
<path d="M139.82 188.85l19.79 0l0 15.15l-19.79 0Z" id="p67w135" />
<path d="M162.76 188.85l34.93 0l0 15.15l-34.93 0Z" id="p67w136" />
<path d="M200.84 188.85l20.65 0l0 15.15l-20.65 0Z" id="p67w137" />
<path d="M223.52 188.85l24.19 0l0 15.15l-24.19 0Z" id="p67w138" />
<path d="M250.45 188.85l12.02 0l0 15.15l-12.02 0Z" id="p67w139" />
<path d="M265.61 188.85l35.33 0l0 15.15l-35.33 0Z" id="p67w140" />
<path d="M312.84 188.85l21.19 0l0 15.15l-21.19 0Z" id="p67w141" />
<path d="M337.18 188.85l27.17 0l0 15.15l-27.17 0Z" id="p67w142" />
<path d="M139.82 205.52l44.29 0l0 15.15l-44.29 0Z" id="p67w143" />
<path d="M196.42 205.52l17.34 0l0 15.15l-17.34 0Z" id="p67w144" />
<path d="M216.9 205.52l49.83 0l0 15.15l-49.83 0Z" id="p67w145" />
<path d="M152.8 238.73l26.22 0l0 15.29l-26.22 0Z" id="p67w146" />
<path d="M182.01 238.73l28.75 0l0 15.29l-28.75 0Z" id="p67w147" />
<path d="M214.16 238.73l20.6 0l0 15.29l-20.6 0Z" id="p67w148" />
<path d="M238.17 238.73l27.1 0l0 15.29l-27.1 0Z" id="p67w149" />
<path d="M268.27 238.73l25.32 0l0 15.29l-25.32 0Z" id="p67w150" />
<path d="M296.99 238.73l40.93 0l0 15.29l-40.93 0Z" id="p67w151" />
<path d="M341.33 238.73l37 0l0 15.29l-37 0Z" id="p67w152" />
<path d="M152.8 255.4l25.27 0l0 15.29l-25.27 0Z" id="p67w153" />
<path d="M181.47 255.4l27.46 0l0 15.29l-27.46 0Z" id="p67w154" />
<path d="M212.34 255.4l28.75 0l0 15.29l-28.75 0Z" id="p67w155" />
<path d="M244.49 255.4l23.76 0l0 15.29l-23.76 0Z" id="p67w156" />
<path d="M271.66 255.4l45.82 0l0 15.29l-45.82 0Z" id="p67w157" />
<path d="M320.18 255.4l23.35 0l0 15.29l-23.35 0Z" id="p67w158" />
<path d="M152.8 272.21l12.27 0l0 15.15l-12.27 0Z" id="p67w159" />
<path d="M168.22 272.21l42.86 0l0 15.15l-42.86 0Z" id="p67w160" />
<path d="M214.23 272.21l64.5 0l0 15.15l-64.5 0Z" id="p67w161" />
<path d="M281.47 272.21l30.55 0l0 15.15l-30.55 0Z" id="p67w162" />
<path d="M315.17 272.21l14.46 0l0 15.15l-14.46 0Z" id="p67w163" />
<path d="M332.77 272.21l12.52 0l0 15.15l-12.52 0Z" id="p67w164" />
<path d="M348.44 272.21l21.86 0l0 15.15l-21.86 0Z" id="p67w165" />
<path d="M373.45 272.21l18.26 0l0 15.15l-18.26 0Z" id="p67w166" />
<path d="M152.8 288.88l37.59 0l0 15.15l-37.59 0Z" id="p67w167" />
<path d="M193.54 288.88l9.64 0l0 15.15l-9.64 0Z" id="p67w168" />
<path d="M206.32 288.88l23.34 0l0 15.15l-23.34 0Z" id="p67w169" />
<path d="M232.81 288.88l8.69 0l0 15.15l-8.69 0Z" id="p67w170" />
<path d="M244.65 288.88l33.88 0l0 15.15l-33.88 0Z" id="p67w171" />
<path d="M281.68 288.88l12.02 0l0 15.15l-12.02 0Z" id="p67w172" />
<path d="M296.84 288.88l8.93 0l0 15.15l-8.93 0Z" id="p67w173" />
<path d="M308.92 288.88l16.55 0l0 15.15l-16.55 0Z" id="p67w174" />
<path d="M328.21 288.88l5.83 0l0 15.15l-5.83 0Z" id="p67w175" />
<path d="M345.64 288.88l12.03 0l0 15.15l-12.03 0Z" id="p67w176" />
<path d="M152.8 305.54l46.49 0l0 15.15l-46.49 0Z" id="p67w177" />
<path d="M202.02 305.54l31.31 0l0 15.15l-31.31 0Z" id="p67w178" />
<path d="M236.48 305.54l8.93 0l0 15.15l-8.93 0Z" id="p67w179" />
<path d="M248.56 305.54l34.01 0l0 15.15l-34.01 0Z" id="p67w180" />
<path d="M285.71 305.54l47.22 0l0 15.15l-47.22 0Z" id="p67w181" />
<path d="M336.08 305.54l9.64 0l0 15.15l-9.64 0Z" id="p67w182" />
<path d="M348.87 305.54l30.05 0l0 15.15l-30.05 0Z" id="p67w183" />
<path d="M152.8 322.21l13.51 0l0 15.15l-13.51 0Z" id="p67w184" />
<path d="M169.45 322.21l40.88 0l0 15.15l-40.88 0Z" id="p67w185" />
<path d="M213.07 322.21l16.19 0l0 15.15l-16.19 0Z" id="p67w186" />
<path d="M232.41 322.21l17.85 0l0 15.15l-17.85 0Z" id="p67w187" />
<path d="M253.41 322.21l32.03 0l0 15.15l-32.03 0Z" id="p67w188" />
<path d="M288.59 322.21l30.88 0l0 15.15l-30.88 0Z" id="p67w189" />
<path d="M322.62 322.21l15.42 0l0 15.15l-15.42 0Z" id="p67w190" />
<path d="M341.19 322.21l21.14 0l0 15.15l-21.14 0Z" id="p67w191" />
<path d="M152.8 338.88l24.35 0l0 15.15l-24.35 0Z" id="p67w192" />
<path d="M180.3 338.88l38.08 0l0 15.15l-38.08 0Z" id="p67w193" />
<path d="M221.53 338.88l31.85 0l0 15.15l-31.85 0Z" id="p67w194" />
<path d="M256.52 338.88l14.95 0l0 15.15l-14.95 0Z" id="p67w195" />
<path d="M274.62 338.88l12.52 0l0 15.15l-12.52 0Z" id="p67w196" />
<path d="M290.29 338.88l32.09 0l0 15.15l-32.09 0Z" id="p67w197" />
<path d="M335.17 338.88l50.08 0l0 15.15l-50.08 0Z" id="p67w198" />
<path d="M152.8 355.55l24.19 0l0 15.15l-24.19 0Z" id="p67w199" />
<path d="M179.72 355.55l11.08 0l0 15.15l-11.08 0Z" id="p67w200" />
<path d="M193.95 355.55l16.44 0l0 15.15l-16.44 0Z" id="p67w201" />
<path d="M213.53 355.55l44.06 0l0 15.15l-44.06 0Z" id="p67w202" />
<path d="M260.33 355.55l8.69 0l0 15.15l-8.69 0Z" id="p67w203" />
<path d="M272.16 355.55l34.17 0l0 15.15l-34.17 0Z" id="p67w204" />
<path d="M152.8 372.08l26.22 0l0 15.29l-26.22 0Z" id="p67w205" />
<path d="M182.01 372.08l25.24 0l0 15.29l-25.24 0Z" id="p67w206" />
<path d="M210.66 372.08l58.25 0l0 15.29l-58.25 0Z" id="p67w207" />
<path d="M272.31 372.08l50.86 0l0 15.29l-50.86 0Z" id="p67w208" />
<path d="M326.57 372.08l15.13 0l0 15.29l-15.13 0Z" id="p67w209" />
<path d="M152.8 388.75l68.89 0l0 15.29l-68.89 0Z" id="p67w210" />
<path d="M225.09 388.75l13.7 0l0 15.29l-13.7 0Z" id="p67w211" />
<path d="M242.19 388.75l46.91 0l0 15.29l-46.91 0Z" id="p67w212" />
<path d="M292.51 388.75l17.75 0l0 15.29l-17.75 0Z" id="p67w213" />
<path d="M313.25 388.75l30.57 0l0 15.29l-30.57 0Z" id="p67w214" />
<path d="M347.23 388.75l22.58 0l0 15.29l-22.58 0Z" id="p67w215" />
<path d="M152.8 405.42l17.11 0l0 15.29l-17.11 0Z" id="p67w216" />
<path d="M173.31 405.42l32.52 0l0 15.29l-32.52 0Z" id="p67w217" />
<path d="M209.23 405.42l20.19 0l0 15.29l-20.19 0Z" id="p67w218" />
<path d="M232.83 405.42l25.24 0l0 15.29l-25.24 0Z" id="p67w219" />
<path d="M261.47 405.42l45.12 0l0 15.29l-45.12 0Z" id="p67w220" />
<path d="M152.8 422.23l19.29 0l0 15.15l-19.29 0Z" id="p67w221" />
<path d="M175.24 422.23l24.05 0l0 15.15l-24.05 0Z" id="p67w222" />
<path d="M202.43 422.23l35.2 0l0 15.15l-35.2 0Z" id="p67w223" />
<path d="M240.78 422.23l23.81 0l0 15.15l-23.81 0Z" id="p67w224" />
<path d="M273.57 422.23l5.83 0l0 15.15l-5.83 0Z" id="p67w225" />
<path d="M300.16 422.23l8.69 0l0 15.15l-8.69 0Z" id="p67w226" />
<path d="M311.99 422.23l57.51 0l0 15.15l-57.51 0Z" id="p67w227" />
<path d="M372.66 422.23l11.95 0l0 15.15l-11.95 0Z" id="p67w228" />
<path d="M152.8 438.9l55.91 0l0 15.15l-55.91 0Z" id="p67w229" />
<path d="M211.44 438.9l12.52 0l0 15.15l-12.52 0Z" id="p67w230" />
<path d="M227.11 438.9l26.98 0l0 15.15l-26.98 0Z" id="p67w231" />
<path d="M257.23 438.9l12.52 0l0 15.15l-12.52 0Z" id="p67w232" />
<path d="M272.9 438.9l18.28 0l0 15.15l-18.28 0Z" id="p67w233" />
<path d="M294.32 438.9l30.52 0l0 15.15l-30.52 0Z" id="p67w234" />
<path d="M327.58 438.9l9.64 0l0 15.15l-9.64 0Z" id="p67w235" />
<path d="M340.37 438.9l34.4 0l0 15.15l-34.4 0Z" id="p67w236" />
<path d="M152.8 455.57l12.52 0l0 15.15l-12.52 0Z" id="p67w237" />
<path d="M168.46 455.57l26.98 0l0 15.15l-26.98 0Z" id="p67w238" />
<path d="M198.59 455.57l33.71 0l0 15.15l-33.71 0Z" id="p67w239" />
<path d="M244.61 455.57l50.38 0l0 15.15l-50.38 0Z" id="p67w240" />
<path d="M298.14 455.57l31.01 0l0 15.15l-31.01 0Z" id="p67w241" />
<path d="M331.89 455.57l12.74 0l0 15.15l-12.74 0Z" id="p67w242" />
<path d="M347.77 455.57l21.21 0l0 15.15l-21.21 0Z" id="p67w243" />
<path d="M372.13 455.57l16.77 0l0 15.15l-16.77 0Z" id="p67w244" />
<path d="M162.43 472.23l26.98 0l0 15.15l-26.98 0Z" id="p67w245" />
<path d="M202.2 472.23l21.91 0l0 15.15l-21.91 0Z" id="p67w246" />
<path d="M227.26 472.23l32.43 0l0 15.15l-32.43 0Z" id="p67w247" />
<path d="M152.8 488.76l25.73 0l0 15.29l-25.73 0Z" id="p67w248" />
<path d="M181.93 488.76l31.26 0l0 15.29l-31.26 0Z" id="p67w249" />
<path d="M216.59 488.76l13.46 0l0 15.29l-13.46 0Z" id="p67w250" />
<path d="M240.89 488.76l14.73 0l0 15.29l-14.73 0Z" id="p67w251" />
<path d="M259.03 488.76l13.47 0l0 15.29l-13.47 0Z" id="p67w252" />
<path d="M275.9 488.76l37 0l0 15.29l-37 0Z" id="p67w253" />
<path d="M315.9 488.76l51.05 0l0 15.29l-51.05 0Z" id="p67w254" />
<path d="M370.35 488.76l20.13 0l0 15.29l-20.13 0Z" id="p67w255" />
<path d="M152.8 505.43l25.24 0l0 15.29l-25.24 0Z" id="p67w256" />
<path d="M181.44 505.43l31.74 0l0 15.29l-31.74 0Z" id="p67w257" />
<path d="M216.59 505.43l45.86 0l0 15.29l-45.86 0Z" id="p67w258" />
<path d="M265.85 505.43l25.49 0l0 15.29l-25.49 0Z" id="p67w259" />
<path d="M294.75 505.43l18.51 0l0 15.29l-18.51 0Z" id="p67w260" />
<path d="M316.66 505.43l29.3 0l0 15.29l-29.3 0Z" id="p67w261" />
<path d="M152.67 522.24l39.96 0l0 15.15l-39.96 0Z" id="p67w262" />
<path d="M195.71 522.24l38.32 0l0 15.15l-38.32 0Z" id="p67w263" />
<path d="M237.12 522.24l16.64 0l0 15.15l-16.64 0Z" id="p67w264" />
<path d="M256.85 522.24l40.92 0l0 15.15l-40.92 0Z" id="p67w265" />
<path d="M300.85 522.24l15.23 0l0 15.15l-15.23 0Z" id="p67w266" />
<path d="M319.16 522.24l20.95 0l0 15.15l-20.95 0Z" id="p67w267" />
<path d="M343.2 522.24l23.08 0l0 15.15l-23.08 0Z" id="p67w268" />
<path d="M152.67 538.91l57.56 0l0 15.15l-57.56 0Z" id="p67w269" />
<path d="M219.01 538.91l12.39 0l0 15.15l-12.39 0Z" id="p67w270" />
<path d="M234.48 538.91l14.99 0l0 15.15l-14.99 0Z" id="p67w271" />
<path d="M252.55 538.91l45.2 0l0 15.15l-45.2 0Z" id="p67w272" />
<path d="M300.84 538.91l16.64 0l0 15.15l-16.64 0Z" id="p67w273" />
<path d="M320.57 538.91l35.66 0l0 15.15l-35.66 0Z" id="p67w274" />
<path d="M358.84 538.91l16.64 0l0 15.15l-16.64 0Z" id="p67w275" />
<path d="M152.67 555.58l39.48 0l0 15.15l-39.48 0Z" id="p67w276" />
<path d="M194.76 555.58l16.64 0l0 15.15l-16.64 0Z" id="p67w277" />
<path d="M214.49 555.58l39.97 0l0 15.15l-39.97 0Z" id="p67w278" />
<path d="M257.06 555.58l8.56 0l0 15.15l-8.56 0Z" id="p67w279" />
<path d="M268.71 555.58l8.56 0l0 15.15l-8.56 0Z" id="p67w280" />
<path d="M280.35 555.58l36.15 0l0 15.15l-36.15 0Z" id="p67w281" />
<path d="M319.59 555.58l16.64 0l0 15.15l-16.64 0Z" id="p67w282" />
<path d="M339.32 555.58l40.92 0l0 15.15l-40.92 0Z" id="p67w283" />
<path d="M152.67 572.25l45.43 0l0 15.15l-45.43 0Z" id="p67w284" />
<path d="M200.71 572.25l21.87 0l0 15.15l-21.87 0Z" id="p67w285" />
<path d="M225.67 572.25l36.41 0l0 15.15l-36.41 0Z" id="p67w286" />
<path d="M265.16 572.25l14.99 0l0 15.15l-14.99 0Z" id="p67w287" />
<path d="M292.74 572.25l28.3 0l0 15.15l-28.3 0Z" id="p67w288" />
<path d="M336.24 572.25l9.75 0l0 15.15l-9.75 0Z" id="p67w289" />
<path d="M349.08 572.25l8.56 0l0 15.15l-8.56 0Z" id="p67w290" />
<path d="M360.73 572.25l36.15 0l0 15.15l-36.15 0Z" id="p67w291" />
<path d="M152.67 588.92l24.51 0l0 15.15l-24.51 0Z" id="p67w292" />
<path d="M180.26 588.92l16.64 0l0 15.15l-16.64 0Z" id="p67w293" />
<path d="M199.99 588.92l40.92 0l0 15.15l-40.92 0Z" id="p67w294" />
<path d="M243.99 588.92l15.23 0l0 15.15l-15.23 0Z" id="p67w295" />
<path d="M262.31 588.92l39.26 0l0 15.15l-39.26 0Z" id="p67w296" />
<path d="M304.65 588.92l27.35 0l0 15.15l-27.35 0Z" id="p67w297" />
<path d="M344.12 588.92l19.74 0l0 15.15l-19.74 0Z" id="p67w298" />
<path d="M366.95 588.92l38.79 0l0 15.15l-38.79 0Z" id="p67w299" />
<path d="M439.32 322.01l52.22 0l0 15.29l-52.22 0Z" id="p67w300" />
<path d="M494.94 322.01l23.35 0l0 15.29l-23.35 0Z" id="p67w301" />
<path d="M521.7 322.01l13.22 0l0 15.29l-13.22 0Z" id="p67w302" />
<path d="M538.33 322.01l25.68 0l0 15.29l-25.68 0Z" id="p67w303" />
<path d="M567.41 322.01l13.46 0l0 15.29l-13.46 0Z" id="p67w304" />
<path d="M584.27 322.01l49.57 0l0 15.29l-49.57 0Z" id="p67w305" />
<path d="M647.15 322.01l13.4 0l0 15.29l-13.4 0Z" id="p67w306" />
<path d="M439.32 338.68l46.4 0l0 15.29l-46.4 0Z" id="p67w307" />
<path d="M489.12 338.68l32.88 0l0 15.29l-32.88 0Z" id="p67w308" />
<path d="M439.32 355.49l16.19 0l0 15.15l-16.19 0Z" id="p67w309" />
<path d="M458.66 355.49l40.51 0l0 15.15l-40.51 0Z" id="p67w310" />
<path d="M502.32 355.49l16.84 0l0 15.15l-16.84 0Z" id="p67w311" />
<path d="M522.3 355.49l33.75 0l0 15.15l-33.75 0Z" id="p67w312" />
<path d="M568.36 355.49l24.82 0l0 15.15l-24.82 0Z" id="p67w313" />
<path d="M595.92 355.49l35.66 0l0 15.15l-35.66 0Z" id="p67w314" />
<path d="M634.32 355.49l10.59 0l0 15.15l-10.59 0Z" id="p67w315" />
<path d="M439.32 372.16l54.66 0l0 15.15l-54.66 0Z" id="p67w316" />
<path d="M497.13 372.16l34.21 0l0 15.15l-34.21 0Z" id="p67w317" />
<path d="M534.08 372.16l33.06 0l0 15.15l-33.06 0Z" id="p67w318" />
<path d="M570.28 372.16l21.86 0l0 15.15l-21.86 0Z" id="p67w319" />
<path d="M594.88 372.16l14.39 0l0 15.15l-14.39 0Z" id="p67w320" />
<path d="M612.01 372.16l15 0l0 15.15l-15 0Z" id="p67w321" />
<path d="M630.16 372.16l16.84 0l0 15.15l-16.84 0Z" id="p67w322" />
<path d="M650.14 372.16l31.98 0l0 15.15l-31.98 0Z" id="p67w323" />
<path d="M448.48 388.83l37.21 0l0 15.15l-37.21 0Z" id="p67w324" />
<path d="M488.84 388.83l12.03 0l0 15.15l-12.03 0Z" id="p67w325" />
<path d="M504.01 388.83l14.18 0l0 15.15l-14.18 0Z" id="p67w326" />
<path d="M521.34 388.83l18.28 0l0 15.15l-18.28 0Z" id="p67w327" />
<path d="M542.76 388.83l8.69 0l0 15.15l-8.69 0Z" id="p67w328" />
<path d="M554.6 388.83l20.24 0l0 15.15l-20.24 0Z" id="p67w329" />
<path d="M577.99 388.83l58.66 0l0 15.15l-58.66 0Z" id="p67w330" />
<path d="M639.38 388.83l12.74 0l0 15.15l-12.74 0Z" id="p67w331" />
<path d="M655.27 388.83l21.14 0l0 15.15l-21.14 0Z" id="p67w332" />
<path d="M439.32 405.49l16.84 0l0 15.15l-16.84 0Z" id="p67w333" />
<path d="M459.3 405.49l32.04 0l0 15.15l-32.04 0Z" id="p67w334" />
<path d="M494.49 405.49l14.95 0l0 15.15l-14.95 0Z" id="p67w335" />
<path d="M512.59 405.49l42.75 0l0 15.15l-42.75 0Z" id="p67w336" />
<path d="M558.48 405.49l12.02 0l0 15.15l-12.02 0Z" id="p67w337" />
<path d="M573.65 405.49l34.55 0l0 15.15l-34.55 0Z" id="p67w338" />
<path d="M439.32 422.02l51.05 0l0 15.29l-51.05 0Z" id="p67w339" />
<path d="M493.76 422.02l20.19 0l0 15.29l-20.19 0Z" id="p67w340" />
<path d="M517.34 422.02l25.24 0l0 15.29l-25.24 0Z" id="p67w341" />
<path d="M545.98 422.02l30.61 0l0 15.29l-30.61 0Z" id="p67w342" />
<path d="M579.98 422.02l30.55 0l0 15.29l-30.55 0Z" id="p67w343" />
<path d="M613.92 422.02l13.46 0l0 15.29l-13.46 0Z" id="p67w344" />
<path d="M630.77 422.02l62.41 0l0 15.29l-62.41 0Z" id="p67w345" />
<path d="M439.32 438.69l13.47 0l0 15.29l-13.47 0Z" id="p67w346" />
<path d="M456.19 438.69l36.58 0l0 15.29l-36.58 0Z" id="p67w347" />
<path d="M496.17 438.69l33.66 0l0 15.29l-33.66 0Z" id="p67w348" />
<path d="M542.66 438.69l51.05 0l0 15.29l-51.05 0Z" id="p67w349" />
<path d="M597.11 438.69l17.11 0l0 15.29l-17.11 0Z" id="p67w350" />
<path d="M617.63 438.69l25.24 0l0 15.29l-25.24 0Z" id="p67w351" />
<path d="M646.27 438.69l36.69 0l0 15.29l-36.69 0Z" id="p67w352" />
<path d="M439.32 455.36l18.04 0l0 15.29l-18.04 0Z" id="p67w353" />
<path d="M460.77 455.36l45.92 0l0 15.29l-45.92 0Z" id="p67w354" />
<path d="M439.32 472.17l9.88 0l0 15.15l-9.88 0Z" id="p67w355" />
<path d="M452.35 472.17l15.11 0l0 15.15l-15.11 0Z" id="p67w356" />
<path d="M470.61 472.17l23.8 0l0 15.15l-23.8 0Z" id="p67w357" />
<path d="M497.56 472.17l12.03 0l0 15.15l-12.03 0Z" id="p67w358" />
<path d="M512.74 472.17l49.13 0l0 15.15l-49.13 0Z" id="p67w359" />
<path d="M564.61 472.17l22.58 0l0 15.15l-22.58 0Z" id="p67w360" />
<path d="M590.34 472.17l37.78 0l0 15.15l-37.78 0Z" id="p67w361" />
<path d="M631.27 472.17l30.78 0l0 15.15l-30.78 0Z" id="p67w362" />
<path d="M665.2 472.17l22.38 0l0 15.15l-22.38 0Z" id="p67w363" />
<path d="M439.32 488.84l18.29 0l0 15.15l-18.29 0Z" id="p67w364" />
<path d="M460.75 488.84l14.18 0l0 15.15l-14.18 0Z" id="p67w365" />
<path d="M478.08 488.84l22.39 0l0 15.15l-22.39 0Z" id="p67w366" />
<path d="M503.62 488.84l16.84 0l0 15.15l-16.84 0Z" id="p67w367" />
<path d="M523.6 488.84l36.11 0l0 15.15l-36.11 0Z" id="p67w368" />
<path d="M562.45 488.84l22.16 0l0 15.15l-22.16 0Z" id="p67w369" />
<path d="M587.76 488.84l8.69 0l0 15.15l-8.69 0Z" id="p67w370" />
<path d="M599.59 488.84l24.82 0l0 15.15l-24.82 0Z" id="p67w371" />
<path d="M627.15 488.84l15 0l0 15.15l-15 0Z" id="p67w372" />
<path d="M645.3 488.84l37.72 0l0 15.15l-37.72 0Z" id="p67w373" />
<path d="M439.32 505.51l8.69 0l0 15.15l-8.69 0Z" id="p67w374" />
<path d="M451.15 505.51l34.17 0l0 15.15l-34.17 0Z" id="p67w375" />
<path d="M488.48 505.51l51.24 0l0 15.15l-51.24 0Z" id="p67w376" />
<path d="M542.45 505.51l32.99 0l0 15.15l-32.99 0Z" id="p67w377" />
<path d="M578.59 505.51l16.84 0l0 15.15l-16.84 0Z" id="p67w378" />
<path d="M598.58 505.51l46.43 0l0 15.15l-46.43 0Z" id="p67w379" />
<path d="M648.16 505.51l11.95 0l0 15.15l-11.95 0Z" id="p67w380" />
<path d="M439.32 522.18l33.22 0l0 15.15l-33.22 0Z" id="p67w381" />
<path d="M475.69 522.18l9.64 0l0 15.15l-9.64 0Z" id="p67w382" />
<path d="M488.48 522.18l37.78 0l0 15.15l-37.78 0Z" id="p67w383" />
<path d="M529.41 522.18l16.84 0l0 15.15l-16.84 0Z" id="p67w384" />
<path d="M555.88 522.18l17.08 0l0 15.15l-17.08 0Z" id="p67w385" />
<path d="M576.11 522.18l12.02 0l0 15.15l-12.02 0Z" id="p67w386" />
<path d="M591.28 522.18l36.11 0l0 15.15l-36.11 0Z" id="p67w387" />
<path d="M630.13 522.18l11.31 0l0 15.15l-11.31 0Z" id="p67w388" />
<path d="M644.59 522.18l33.92 0l0 15.15l-33.92 0Z" id="p67w389" />
<path d="M439.32 538.85l14.46 0l0 15.15l-14.46 0Z" id="p67w390" />
<path d="M456.92 538.85l38.77 0l0 15.15l-38.77 0Z" id="p67w391" />
<path d="M498.85 538.85l8.93 0l0 15.15l-8.93 0Z" id="p67w392" />
<path d="M510.93 538.85l30.23 0l0 15.15l-30.23 0Z" id="p67w393" />
<path d="M544.31 538.85l22.63 0l0 15.15l-22.63 0Z" id="p67w394" />
<path d="M570.09 538.85l21.86 0l0 15.15l-21.86 0Z" id="p67w395" />
<path d="M595.1 538.85l33.99 0l0 15.15l-33.99 0Z" id="p67w396" />
<path d="M631.12 538.85l19.53 0l0 15.15l-19.53 0Z" id="p67w397" />
<path d="M653.8 538.85l16.77 0l0 15.15l-16.77 0Z" id="p67w398" />
<path d="M439.32 555.52l37.72 0l0 15.15l-37.72 0Z" id="p67w399" />
<path d="M479.78 555.52l15.47 0l0 15.15l-15.47 0Z" id="p67w400" />
<path d="M498.4 555.52l16.84 0l0 15.15l-16.84 0Z" id="p67w401" />
<path d="M518.38 555.52l32.25 0l0 15.15l-32.25 0Z" id="p67w402" />
<path d="M553.37 555.52l36.86 0l0 15.15l-36.86 0Z" id="p67w403" />
<path d="M593.37 555.52l16.84 0l0 15.15l-16.84 0Z" id="p67w404" />
<path d="M613.36 555.52l44.11 0l0 15.15l-44.11 0Z" id="p67w405" />
<path d="M659.5 555.52l21.14 0l0 15.15l-21.14 0Z" id="p67w406" />
<path d="M439.32 572.18l11.08 0l0 15.15l-11.08 0Z" id="p67w407" />
<path d="M453.54 572.18l15.11 0l0 15.15l-15.11 0Z" id="p67w408" />
<path d="M471.81 572.18l34.87 0l0 15.15l-34.87 0Z" id="p67w409" />
<path d="M509.82 572.18l12.02 0l0 15.15l-12.02 0Z" id="p67w410" />
<path d="M524.99 572.18l24.34 0l0 15.15l-24.34 0Z" id="p67w411" />
<path d="M552.48 572.18l16.84 0l0 15.15l-16.84 0Z" id="p67w412" />
<path d="M572.46 572.18l32.99 0l0 15.15l-32.99 0Z" id="p67w413" />
<path d="M608.6 572.18l46.9 0l0 15.15l-46.9 0Z" id="p67w414" />
<path d="M439.32 588.85l38.27 0l0 15.15l-38.27 0Z" id="p67w415" />
<path d="M671.18 591.37l29.84 0l0 23.43l-29.84 0ZM68.27 39.02l42.71 0l0 15.38l-42.71 0Z" id="p67w416" />
<path d="M152.25 39.02l43.21 0l0 15.38l-43.21 0Z" id="p67w417" />
<path d="M251.4 38.6l45.06 0l0 16.09l-45.06 0Z" id="p67w418" />
<path d="M358.23 39.02l28.68 0l0 15.38l-28.68 0Z" id="p67w419" />
<path d="M390.29 39.02l43.54 0l0 15.38l-43.54 0Z" id="p67w420" />
<path d="M467.02 39.02l32.54 0l0 15.38l-32.54 0Z" id="p67w421" />
<path d="M628.81 983l62.29 0l0 12.23l-62.29 0Z" id="p67w422" />
</svg>
