<?xml version="1.0" encoding="UTF-8"?>
<svg xmlns="http://www.w3.org/2000/svg" xmlns:xlink="http://www.w3.org/1999/xlink" version="1.1" baseProfile="full" width="768" height="1024" viewBox="0,0,768,1024" preserveAspectRatio="xMinYMin meet" >
<style type="text/css">
<![CDATA[
path {fill-opacity: 0.5;fill: #00aeef;visibility: hidden;}
]]>
</style>
<path d="M124.06 107.98l17.01 0l0 18.84l-17.01 0Z" id="p72w1" />
<path d="M144.72 107.98l81.21 0l0 18.84l-81.21 0Z" id="p72w2" />
<path d="M124.06 155.88l15.44 0l0 14.6l-15.44 0Z" id="p72w3" />
<path d="M142.71 155.88l32.95 0l0 14.6l-32.95 0Z" id="p72w4" />
<path d="M178.69 155.88l16.7 0l0 14.6l-16.7 0Z" id="p72w5" />
<path d="M198.6 155.88l42.12 0l0 14.6l-42.12 0Z" id="p72w6" />
<path d="M243.92 155.88l58.86 0l0 14.6l-58.86 0Z" id="p72w7" />
<path d="M124.06 172.55l21.5 0l0 14.6l-21.5 0Z" id="p72w8" />
<path d="M148.77 172.55l38.92 0l0 14.6l-38.92 0Z" id="p72w9" />
<path d="M403.89 155.88l20.79 0l0 14.6l-20.79 0Z" id="p72w10" />
<path d="M427.88 155.88l48.76 0l0 14.6l-48.76 0Z" id="p72w11" />
<path d="M479.85 155.88l14.28 0l0 14.6l-14.28 0Z" id="p72w12" />
<path d="M497.34 155.88l33.47 0l0 14.6l-33.47 0Z" id="p72w13" />
<path d="M409.8 196.68l17.11 0l0 14.52l-17.11 0Z" id="p72w14" />
<path d="M430.11 196.68l76.73 0l0 14.52l-76.73 0Z" id="p72w15" />
<path d="M510.05 196.61l13.38 0l0 14.61l-13.38 0Z" id="p72w16" />
<path d="M529.57 196.61l13.38 0l0 14.61l-13.38 0Z" id="p72w17" />
<path d="M546.16 196.68l21.4 0l0 14.52l-21.4 0Z" id="p72w18" />
<path d="M129.99 224.17l10.43 0l0 14.52l-10.43 0Z" id="p72w19" />
<path d="M143.62 224.17l28.87 0l0 14.52l-28.87 0Z" id="p72w20" />
<path d="M175.7 224.1l13.87 0l0 14.6l-13.87 0Z" id="p72w21" />
<path d="M192.78 224.17l36.89 0l0 14.52l-36.89 0Z" id="p72w22" />
<path d="M237.92 224.1l14.28 0l0 14.6l-14.28 0Z" id="p72w23" />
<path d="M255.41 224.17l69.28 0l0 14.52l-69.28 0Z" id="p72w24" />
<path d="M129.99 240.77l19.61 0l0 14.6l-19.61 0Z" id="p72w25" />
<path d="M152.81 240.84l51.78 0l0 14.52l-51.78 0Z" id="p72w26" />
<path d="M129.99 257.51l41.7 0l0 14.52l-41.7 0Z" id="p72w27" />
<path d="M174.89 257.45l13.9 0l0 14.6l-13.9 0Z" id="p72w28" />
<path d="M192 257.51l36.89 0l0 14.52l-36.89 0Z" id="p72w29" />
<path d="M237.14 257.45l13.78 0l0 14.6l-13.78 0Z" id="p72w30" />
<path d="M254.13 257.51l69.28 0l0 14.52l-69.28 0Z" id="p72w31" />
<path d="M129.99 274.12l20.02 0l0 14.6l-20.02 0Z" id="p72w32" />
<path d="M153.22 274.18l51.78 0l0 14.52l-51.78 0Z" id="p72w33" />
<path d="M462.36 218.76l77.24 0l0 14.52l-77.24 0Z" id="p72w34" />
<path d="M563.73 218.76l77.24 0l0 14.52l-77.24 0Z" id="p72w35" />
<path d="M563.73 235.43l25.4 0l0 14.52l-25.4 0Z" id="p72w36" />
<path d="M592.33 235.36l13.34 0l0 14.61l-13.34 0Z" id="p72w37" />
<path d="M409.81 257.51l20.59 0l0 14.52l-20.59 0Z" id="p72w38" />
<path d="M462.36 257.43l13.9 0l0 14.6l-13.9 0Z" id="p72w39" />
<path d="M563.73 257.43l13.78 0l0 14.6l-13.78 0Z" id="p72w40" />
<path d="M585.92 257.43l20.02 0l0 14.6l-20.02 0Z" id="p72w41" />
<path d="M409.81 279.59l29.16 0l0 14.52l-29.16 0Z" id="p72w42" />
<path d="M462.36 279.51l10.19 0l0 14.6l-10.19 0Z" id="p72w43" />
<path d="M480.96 279.51l13.87 0l0 14.6l-13.87 0Z" id="p72w44" />
<path d="M563.73 279.51l14.28 0l0 14.6l-14.28 0Z" id="p72w45" />
<path d="M586.42 279.51l19.61 0l0 14.6l-19.61 0Z" id="p72w46" />
<path d="M124.09 311.44l15.44 0l0 14.6l-15.44 0Z" id="p72w47" />
<path d="M142.74 311.44l62.62 0l0 14.6l-62.62 0Z" id="p72w48" />
<path d="M208.3 311.44l95.59 0l0 14.6l-95.59 0Z" id="p72w49" />
<path d="M403.91 311.44l20.79 0l0 14.6l-20.79 0Z" id="p72w50" />
<path d="M427.91 311.44l48.76 0l0 14.6l-48.76 0Z" id="p72w51" />
<path d="M479.88 311.44l14.28 0l0 14.6l-14.28 0Z" id="p72w52" />
<path d="M497.36 311.44l33.47 0l0 14.6l-33.47 0Z" id="p72w53" />
<path d="M409.83 335.56l17.11 0l0 14.52l-17.11 0Z" id="p72w54" />
<path d="M430.14 335.56l57.22 0l0 14.52l-57.22 0Z" id="p72w55" />
<path d="M499.93 335.56l21.4 0l0 14.52l-21.4 0Z" id="p72w56" />
<path d="M524.53 335.49l13.38 0l0 14.61l-13.38 0Z" id="p72w57" />
<path d="M139.28 357.64l12.41 0l0 14.52l-12.41 0Z" id="p72w58" />
<path d="M154.9 357.64l41.16 0l0 14.52l-41.16 0Z" id="p72w59" />
<path d="M209.16 357.58l51.77 0l0 14.6l-51.77 0Z" id="p72w60" />
<path d="M139.64 374.31l21.4 0l0 14.52l-21.4 0Z" id="p72w61" />
<path d="M164.24 374.31l5.35 0l0 14.52l-5.35 0Z" id="p72w62" />
<path d="M178.81 374.31l38.23 0l0 14.52l-38.23 0Z" id="p72w63" />
<path d="M139.28 390.98l12.41 0l0 14.52l-12.41 0Z" id="p72w64" />
<path d="M154.9 390.98l12.29 0l0 14.52l-12.29 0Z" id="p72w65" />
<path d="M170.39 390.98l37.16 0l0 14.52l-37.16 0Z" id="p72w66" />
<path d="M210.75 390.92l19.61 0l0 14.6l-19.61 0Z" id="p72w67" />
<path d="M233.58 390.92l49.97 0l0 14.6l-49.97 0Z" id="p72w68" />
<path d="M139.64 407.65l21.4 0l0 14.52l-21.4 0Z" id="p72w69" />
<path d="M164.24 407.65l5.35 0l0 14.52l-5.35 0Z" id="p72w70" />
<path d="M169.59 407.59l13.9 0l0 14.6l-13.9 0Z" id="p72w71" />
<path d="M186.69 407.65l9.89 0l0 14.52l-9.89 0Z" id="p72w72" />
<path d="M199.79 407.65l39.84 0l0 14.52l-39.84 0Z" id="p72w73" />
<path d="M563.76 357.55l13.38 0l0 14.61l-13.38 0Z" id="p72w74" />
<path d="M409.84 379.72l38.48 0l0 14.52l-38.48 0Z" id="p72w75" />
<path d="M451.52 379.72l73.49 0l0 14.52l-73.49 0Z" id="p72w76" />
<path d="M409.84 396.39l18.7 0l0 14.52l-18.7 0Z" id="p72w77" />
<path d="M444.73 396.33l26.74 0l0 14.61l-26.74 0Z" id="p72w78" />
<path d="M477.35 396.33l24.47 0l0 14.61l-24.47 0Z" id="p72w79" />
<path d="M563.76 379.72l38.48 0l0 14.52l-38.48 0Z" id="p72w80" />
<path d="M605.44 379.72l36.03 0l0 14.52l-36.03 0ZM563.76 396.39l41.12 0l0 14.52l-41.12 0Z" id="p72w81" />
<path d="M608.08 396.39l18.7 0l0 14.52l-18.7 0Z" id="p72w82" />
<path d="M629.99 396.33l13.38 0l0 14.61l-13.38 0Z" id="p72w83" />
<path d="M124.11 439.5l15.44 0l0 14.6l-15.44 0Z" id="p72w84" />
<path d="M142.77 439.5l32.95 0l0 14.6l-32.95 0Z" id="p72w85" />
<path d="M178.75 439.5l25.37 0l0 14.6l-25.37 0Z" id="p72w86" />
<path d="M207.32 439.5l14.28 0l0 14.6l-14.28 0Z" id="p72w87" />
<path d="M224.81 439.5l38.86 0l0 14.6l-38.86 0Z" id="p72w88" />
<path d="M266.88 439.5l33.55 0l0 14.6l-33.55 0Z" id="p72w89" />
<path d="M303.64 439.5l32.26 0l0 14.6l-32.26 0Z" id="p72w90" />
<path d="M339.1 439.5l24.34 0l0 14.6l-24.34 0Z" id="p72w91" />
<path d="M124.11 456.17l25.45 0l0 14.6l-25.45 0Z" id="p72w92" />
<path d="M152.77 456.17l38.86 0l0 14.6l-38.86 0Z" id="p72w93" />
<path d="M194.84 456.17l33.55 0l0 14.6l-33.55 0Z" id="p72w94" />
<path d="M231.6 456.17l25.3 0l0 14.6l-25.3 0Z" id="p72w95" />
<path d="M403.94 456.17l20.79 0l0 14.6l-20.79 0Z" id="p72w96" />
<path d="M427.94 456.17l48.76 0l0 14.6l-48.76 0Z" id="p72w97" />
<path d="M479.9 456.17l14.28 0l0 14.6l-14.28 0Z" id="p72w98" />
<path d="M497.39 456.17l33.47 0l0 14.6l-33.47 0Z" id="p72w99" />
<path d="M409.85 480.21l129.37 0l0 14.6l-129.37 0Z" id="p72w100" />
<path d="M129.97 507.89l30.14 0l0 14.52l-30.14 0Z" id="p72w101" />
<path d="M163.19 507.83l27.92 0l0 14.6l-27.92 0Z" id="p72w102" />
<path d="M194.31 507.83l13.87 0l0 14.6l-13.87 0Z" id="p72w103" />
<path d="M211.39 507.83l38.98 0l0 14.6l-38.98 0Z" id="p72w104" />
<path d="M263.13 507.89l9.43 0l0 14.52l-9.43 0Z" id="p72w105" />
<path d="M275.71 507.89l41.66 0l0 14.52l-41.66 0Z" id="p72w106" />
<path d="M129.96 524.56l64.84 0l0 14.52l-64.84 0Z" id="p72w107" />
<path d="M197.95 524.56l6.03 0l0 14.52l-6.03 0Z" id="p72w108" />
<path d="M206.87 524.5l17.11 0l0 14.6l-17.11 0Z" id="p72w109" />
<path d="M227.18 524.5l13.9 0l0 14.6l-13.9 0Z" id="p72w110" />
<path d="M244.29 524.5l26.57 0l0 14.6l-26.57 0Z" id="p72w111" />
<path d="M274.07 524.5l13.87 0l0 14.6l-13.87 0Z" id="p72w112" />
<path d="M291.15 524.5l48.15 0l0 14.6l-48.15 0Z" id="p72w113" />
<path d="M342.5 524.57l9.43 0l0 14.52l-9.43 0Z" id="p72w114" />
<path d="M355.08 524.57l32.09 0l0 14.52l-32.09 0Z" id="p72w115" />
<path d="M409.8 507.83l27.34 0l0 14.61l-27.34 0Z" id="p72w116" />
<path d="M440.34 507.83l13.38 0l0 14.61l-13.38 0Z" id="p72w117" />
<path d="M456.93 507.83l25.7 0l0 14.61l-25.7 0Z" id="p72w118" />
<path d="M485.84 507.83l12.5 0l0 14.61l-12.5 0Z" id="p72w119" />
<path d="M501.55 507.89l21.4 0l0 14.52l-21.4 0Z" id="p72w120" />
<path d="M526.15 507.83l21.83 0l0 14.61l-21.83 0Z" id="p72w121" />
<path d="M551.19 507.83l13.38 0l0 14.61l-13.38 0Z" id="p72w122" />
<path d="M567.78 507.83l26.76 0l0 14.61l-26.76 0Z" id="p72w123" />
<path d="M597.74 507.83l13.38 0l0 14.61l-13.38 0Z" id="p72w124" />
<path d="M614.33 507.83l25.7 0l0 14.61l-25.7 0Z" id="p72w125" />
<path d="M643.24 507.83l12.5 0l0 14.61l-12.5 0Z" id="p72w126" />
<path d="M124.06 556.41l15.44 0l0 14.6l-15.44 0Z" id="p72w127" />
<path d="M142.71 556.41l46.11 0l0 14.6l-46.11 0Z" id="p72w128" />
<path d="M192.02 556.41l33.78 0l0 14.6l-33.78 0Z" id="p72w129" />
<path d="M403.88 556.41l20.79 0l0 14.6l-20.79 0Z" id="p72w130" />
<path d="M427.88 556.41l48.76 0l0 14.6l-48.76 0Z" id="p72w131" />
<path d="M479.85 556.41l14.28 0l0 14.6l-14.28 0Z" id="p72w132" />
<path d="M497.33 556.41l33.47 0l0 14.6l-33.47 0Z" id="p72w133" />
<path d="M409.8 580.45l129.37 0l0 14.6l-129.37 0Z" id="p72w134" />
<path d="M129.98 602.54l32.51 0l0 14.6l-32.51 0Z" id="p72w135" />
<path d="M165.7 602.54l13.87 0l0 14.6l-13.87 0Z" id="p72w136" />
<path d="M182.78 602.61l33.94 0l0 14.52l-33.94 0Z" id="p72w137" />
<path d="M219.92 602.61l9.89 0l0 14.52l-9.89 0Z" id="p72w138" />
<path d="M233.02 602.61l39.56 0l0 14.52l-39.56 0Z" id="p72w139" />
<path d="M275.78 602.61l14.18 0l0 14.52l-14.18 0Z" id="p72w140" />
<path d="M293.17 602.61l21.92 0l0 14.52l-21.92 0Z" id="p72w141" />
<path d="M318.3 602.61l32.36 0l0 14.52l-32.36 0Z" id="p72w142" />
<path d="M129.98 619.22l26.58 0l0 14.6l-26.58 0Z" id="p72w143" />
<path d="M159.78 619.22l31.22 0l0 14.6l-31.22 0Z" id="p72w144" />
<path d="M196.88 619.28l14.18 0l0 14.52l-14.18 0Z" id="p72w145" />
<path d="M214.26 619.28l13.9 0l0 14.52l-13.9 0Z" id="p72w146" />
<path d="M231.37 619.28l25.4 0l0 14.52l-25.4 0Z" id="p72w147" />
<path d="M259.97 619.28l19.51 0l0 14.52l-19.51 0Z" id="p72w148" />
<path d="M282.69 619.28l33.94 0l0 14.52l-33.94 0Z" id="p72w149" />
<path d="M319.83 619.28l9.89 0l0 14.52l-9.89 0Z" id="p72w150" />
<path d="M332.92 619.28l39.56 0l0 14.52l-39.56 0Z" id="p72w151" />
<path d="M129.98 635.89l25.83 0l0 14.6l-25.83 0Z" id="p72w152" />
<path d="M159.02 635.89l34.41 0l0 14.6l-34.41 0Z" id="p72w153" />
<path d="M196.64 635.95l9.89 0l0 14.52l-9.89 0Z" id="p72w154" />
<path d="M209.73 635.95l39.56 0l0 14.52l-39.56 0Z" id="p72w155" />
<path d="M252.5 635.95l6.41 0l0 14.52l-6.41 0Z" id="p72w156" />
<path d="M262.12 635.95l22.45 0l0 14.52l-22.45 0Z" id="p72w157" />
<path d="M287.78 635.95l32.36 0l0 14.52l-32.36 0Z" id="p72w158" />
<path d="M409.81 602.52l31.93 0l0 14.61l-31.93 0Z" id="p72w159" />
<path d="M444.95 602.52l13.38 0l0 14.61l-13.38 0Z" id="p72w160" />
<path d="M461.54 602.52l25.7 0l0 14.61l-25.7 0Z" id="p72w161" />
<path d="M490.44 602.52l15.4 0l0 14.61l-15.4 0Z" id="p72w162" />
<path d="M508.88 602.52l25.13 0l0 14.61l-25.13 0Z" id="p72w163" />
<path d="M537.22 602.52l25.7 0l0 14.61l-25.7 0Z" id="p72w164" />
<path d="M566.13 602.52l15.4 0l0 14.61l-15.4 0Z" id="p72w165" />
<path d="M409.81 619.19l25.3 0l0 14.61l-25.3 0Z" id="p72w166" />
<path d="M438.32 619.19l25.7 0l0 14.61l-25.7 0Z" id="p72w167" />
<path d="M467.23 619.19l12.5 0l0 14.61l-12.5 0Z" id="p72w168" />
<path d="M124.07 667.8l15.44 0l0 14.6l-15.44 0Z" id="p72w169" />
<path d="M142.72 667.8l33.13 0l0 14.6l-33.13 0Z" id="p72w170" />
<path d="M179.06 667.8l26.61 0l0 14.6l-26.61 0Z" id="p72w171" />
<path d="M208.88 667.8l52.28 0l0 14.6l-52.28 0Z" id="p72w172" />
<path d="M264.37 667.8l21.5 0l0 14.6l-21.5 0Z" id="p72w173" />
<path d="M289.08 667.8l43.32 0l0 14.6l-43.32 0Z" id="p72w174" />
<path d="M403.9 667.8l20.79 0l0 14.6l-20.79 0Z" id="p72w175" />
<path d="M427.89 667.8l48.76 0l0 14.6l-48.76 0Z" id="p72w176" />
<path d="M479.86 667.8l14.28 0l0 14.6l-14.28 0Z" id="p72w177" />
<path d="M497.35 667.8l33.47 0l0 14.6l-33.47 0Z" id="p72w178" />
<path d="M409.81 691.92l17.11 0l0 14.52l-17.11 0Z" id="p72w179" />
<path d="M430.12 691.92l38.16 0l0 14.52l-38.16 0Z" id="p72w180" />
<path d="M471.49 691.92l18.7 0l0 14.52l-18.7 0Z" id="p72w181" />
<path d="M493.4 691.85l47.91 0l0 14.61l-47.91 0Z" id="p72w182" />
<path d="M544.52 691.85l17.32 0l0 14.61l-17.32 0Z" id="p72w183" />
<path d="M565.05 691.92l19.79 0l0 14.52l-19.79 0Z" id="p72w184" />
<path d="M129.97 713.96l17.95 0l0 14.6l-17.95 0Z" id="p72w185" />
<path d="M150.94 714.02l39.97 0l0 14.52l-39.97 0Z" id="p72w186" />
<path d="M194.05 714.02l9.43 0l0 14.52l-9.43 0Z" id="p72w187" />
<path d="M206.62 714.02l62.22 0l0 14.52l-62.22 0Z" id="p72w188" />
<path d="M271.56 714.02l22.42 0l0 14.52l-22.42 0Z" id="p72w189" />
<path d="M129.97 730.63l17.82 0l0 14.6l-17.82 0Z" id="p72w190" />
<path d="M150.94 730.63l31.61 0l0 14.6l-31.61 0Z" id="p72w191" />
<path d="M185.69 730.63l20.28 0l0 14.6l-20.28 0Z" id="p72w192" />
<path d="M208.99 730.69l11.01 0l0 14.52l-11.01 0Z" id="p72w193" />
<path d="M223.14 730.69l44.26 0l0 14.52l-44.26 0Z" id="p72w194" />
<path d="M270.55 730.69l31.3 0l0 14.52l-31.3 0Z" id="p72w195" />
<path d="M305 730.69l14.8 0l0 14.52l-14.8 0Z" id="p72w196" />
<path d="M322.94 730.69l29.48 0l0 14.52l-29.48 0Z" id="p72w197" />
<path d="M355.56 730.69l13.36 0l0 14.52l-13.36 0Z" id="p72w198" />
<path d="M372.07 730.69l15.86 0l0 14.52l-15.86 0Z" id="p72w199" />
<path d="M129.97 747.3l48.33 0l0 14.6l-48.33 0Z" id="p72w200" />
<path d="M181.44 747.3l17.01 0l0 14.6l-17.01 0Z" id="p72w201" />
<path d="M201.46 747.36l55.13 0l0 14.52l-55.13 0Z" id="p72w202" />
<path d="M259.74 747.36l13.1 0l0 14.52l-13.1 0Z" id="p72w203" />
<path d="M275.98 747.36l35.49 0l0 14.52l-35.49 0Z" id="p72w204" />
<path d="M314.62 747.36l13.36 0l0 14.52l-13.36 0Z" id="p72w205" />
<path d="M331.13 747.36l9.43 0l0 14.52l-9.43 0Z" id="p72w206" />
<path d="M343.7 747.36l15.86 0l0 14.52l-15.86 0Z" id="p72w207" />
<path d="M129.97 763.97l48.33 0l0 14.6l-48.33 0Z" id="p72w208" />
<path d="M181.44 763.97l20.28 0l0 14.6l-20.28 0Z" id="p72w209" />
<path d="M204.74 764.03l11.01 0l0 14.52l-11.01 0Z" id="p72w210" />
<path d="M218.89 764.03l11.4 0l0 14.52l-11.4 0Z" id="p72w211" />
<path d="M233.43 764.03l70.34 0l0 14.52l-70.34 0Z" id="p72w212" />
<path d="M462.34 714.02l41.45 0l0 14.52l-41.45 0Z" id="p72w213" />
<path d="M563.71 714.02l36.09 0l0 14.52l-36.09 0Z" id="p72w214" />
<path d="M409.8 736.1l37.96 0l0 14.52l-37.96 0Z" id="p72w215" />
<path d="M462.34 736.03l18.58 0l0 14.6l-18.58 0Z" id="p72w216" />
<path d="M563.71 736.03l18.58 0l0 14.6l-18.58 0Z" id="p72w217" />
<path d="M585.51 736.03l33.05 0l0 14.6l-33.05 0Z" id="p72w218" />
<path d="M621.77 736.03l20.96 0l0 14.6l-20.96 0Z" id="p72w219" />
<path d="M409.8 758.19l33.42 0l0 14.52l-33.42 0Z" id="p72w220" />
<path d="M462.34 758.11l50.5 0l0 14.6l-50.5 0Z" id="p72w221" />
<path d="M516.05 758.11l17.62 0l0 14.6l-17.62 0Z" id="p72w222" />
<path d="M563.71 758.11l50.5 0l0 14.6l-50.5 0Z" id="p72w223" />
<path d="M617.42 758.11l20.96 0l0 14.6l-20.96 0Z" id="p72w224" />
<path d="M124.06 39.02l46.09 0l0 15.38l-46.09 0Z" id="p72w225" />
<path d="M208.74 39.02l46.59 0l0 15.38l-46.59 0Z" id="p72w226" />
<path d="M307.2 39.02l46.59 0l0 15.38l-46.59 0Z" id="p72w227" />
<path d="M412.29 39.02l82.1 0l0 15.38l-82.1 0Z" id="p72w228" />
<path d="M524.22 38.6l34.29 0l0 16.09l-34.29 0Z" id="p72w229" />
<path d="M76.9 983l56.21 0l0 12.23l-56.21 0Z" id="p72w230" />
</svg>
