<?xml version="1.0" encoding="UTF-8"?>
<svg xmlns="http://www.w3.org/2000/svg" xmlns:xlink="http://www.w3.org/1999/xlink" version="1.1" baseProfile="full" width="768" height="1024" viewBox="0,0,768,1024" preserveAspectRatio="xMinYMin meet" >
<style type="text/css">
<![CDATA[
path {fill-opacity: 0.5;fill: #00aeef;visibility: hidden;}
]]>
</style>
<path d="M571.17 983.66l119.93 0l0 12.23l-119.93 0Z" id="p263w1" />
<path d="M566.11 38.6l77.83 0l0 16.09l-77.83 0Z" id="p263w2" />
<path d="M68.92 112.51l10.58 0l0 12.23l-10.58 0Z" id="p263w3" />
<path d="M82.21 112.51l11.25 0l0 12.23l-11.25 0Z" id="p263w4" />
<path d="M96.16 112.51l54.94 0l0 12.23l-54.94 0Z" id="p263w5" />
<path d="M153.8 112.51l22.05 0l0 12.23l-22.05 0Z" id="p263w6" />
<path d="M178.55 112.51l39.61 0l0 12.23l-39.61 0Z" id="p263w7" />
<path d="M68.92 127.55l15.54 0l0 12.56l-15.54 0Z" id="p263w8" />
<path d="M59.07 143.08l20.04 0l0 12.23l-20.04 0Z" id="p263w9" />
<path d="M81.82 143.08l19.44 0l0 12.23l-19.44 0Z" id="p263w10" />
<path d="M103.96 143.02l45.57 0l0 12.29l-45.57 0Z" id="p263w11" />
<path d="M152.23 143.08l26.55 0l0 12.23l-26.55 0Z" id="p263w12" />
<path d="M181.49 143.08l11.04 0l0 12.23l-11.04 0Z" id="p263w13" />
<path d="M203.55 143.08l12.16 0l0 12.23l-12.16 0Z" id="p263w14" />
<path d="M68.92 158.11l15.54 0l0 12.56l-15.54 0Z" id="p263w15" />
<path d="M59.07 173.64l14.41 0l0 12.23l-14.41 0Z" id="p263w16" />
<path d="M76.18 173.59l57.15 0l0 12.29l-57.15 0Z" id="p263w17" />
<path d="M136.04 173.64l11.94 0l0 12.23l-11.94 0Z" id="p263w18" />
<path d="M150.68 173.64l32.87 0l0 12.23l-32.87 0Z" id="p263w19" />
<path d="M186.24 173.4l14.63 0l0 12.56l-14.63 0Z" id="p263w20" />
<path d="M59.07 188.87l39.49 0l0 12.29l-39.49 0Z" id="p263w21" />
<path d="M101.27 188.93l20.93 0l0 12.23l-20.93 0Z" id="p263w22" />
<path d="M124.9 188.68l19.58 0l0 12.56l-19.58 0Z" id="p263w23" />
<path d="M59.07 204.21l20.03 0l0 12.23l-20.03 0Z" id="p263w24" />
<path d="M81.81 204.15l52.75 0l0 12.29l-52.75 0Z" id="p263w25" />
<path d="M137.26 204.21l17.56 0l0 12.23l-17.56 0Z" id="p263w26" />
<path d="M157.52 204.21l51.99 0l0 12.23l-51.99 0Z" id="p263w27" />
<path d="M212.21 203.96l17.81 0l0 12.56l-17.81 0Z" id="p263w28" />
<path d="M59.07 219.49l14.41 0l0 12.23l-14.41 0Z" id="p263w29" />
<path d="M76.18 219.44l31.06 0l0 12.29l-31.06 0Z" id="p263w30" />
<path d="M109.94 219.49l11.94 0l0 12.23l-11.94 0Z" id="p263w31" />
<path d="M124.58 219.49l16.43 0l0 12.23l-16.43 0Z" id="p263w32" />
<path d="M143.71 219.25l18.92 0l0 12.56l-18.92 0Z" id="p263w33" />
<path d="M59.07 234.72l51.74 0l0 12.29l-51.74 0Z" id="p263w34" />
<path d="M113.52 234.78l30.16 0l0 12.23l-30.16 0Z" id="p263w35" />
<path d="M146.37 234.53l18.92 0l0 12.56l-18.92 0Z" id="p263w36" />
<path d="M59.07 250.06l14.41 0l0 12.23l-14.41 0Z" id="p263w37" />
<path d="M76.18 250l28.58 0l0 12.29l-28.58 0Z" id="p263w38" />
<path d="M107.46 250.06l17.56 0l0 12.23l-17.56 0Z" id="p263w39" />
<path d="M127.72 250.06l47.27 0l0 12.23l-47.27 0Z" id="p263w40" />
<path d="M177.7 249.81l15.34 0l0 12.56l-15.34 0Z" id="p263w41" />
<path d="M59.07 265.29l28.5 0l0 12.29l-28.5 0ZM90.28 265.34l36.01 0l0 12.23l-36.01 0Z" id="p263w42" />
<path d="M128.99 265.1l14.43 0l0 12.56l-14.43 0Z" id="p263w43" />
<path d="M59.07 280.63l14.41 0l0 12.23l-14.41 0Z" id="p263w44" />
<path d="M76.18 280.57l82.59 0l0 12.29l-82.59 0Z" id="p263w45" />
<path d="M158.77 280.63l24.2 0l0 12.23l-24.2 0Z" id="p263w46" />
<path d="M68.92 295.85l91.48 0l0 12.29l-91.48 0Z" id="p263w47" />
<path d="M163.1 295.91l11.94 0l0 12.23l-11.94 0Z" id="p263w48" />
<path d="M68.92 311.19l94.43 0l0 12.23l-94.43 0Z" id="p263w49" />
<path d="M166.06 311.19l72.7 0l0 12.23l-72.7 0Z" id="p263w50" />
<path d="M68.92 326.23l14.63 0l0 12.56l-14.63 0Z" id="p263w51" />
<path d="M59.07 341.76l20.03 0l0 12.23l-20.03 0Z" id="p263w52" />
<path d="M81.81 341.7l30.93 0l0 12.29l-30.93 0Z" id="p263w53" />
<path d="M115.44 341.76l17.56 0l0 12.23l-17.56 0Z" id="p263w54" />
<path d="M135.7 341.76l24.76 0l0 12.23l-24.76 0Z" id="p263w55" />
<path d="M163.17 341.52l14.63 0l0 12.56l-14.63 0Z" id="p263w56" />
<path d="M59.07 357.04l14.41 0l0 12.23l-14.41 0Z" id="p263w57" />
<path d="M76.18 356.99l34.84 0l0 12.29l-34.84 0Z" id="p263w58" />
<path d="M111.02 357.04l24.2 0l0 12.23l-24.2 0Z" id="p263w59" />
<path d="M137.92 356.99l43.73 0l0 12.29l-43.73 0Z" id="p263w60" />
<path d="M184.34 357.04l11.94 0l0 12.23l-11.94 0Z" id="p263w61" />
<path d="M198.98 357.04l28.92 0l0 12.23l-28.92 0Z" id="p263w62" />
<path d="M68.92 372.33l17.56 0l0 12.23l-17.56 0Z" id="p263w63" />
<path d="M89.19 372.33l24.75 0l0 12.23l-24.75 0Z" id="p263w64" />
<path d="M116.64 372.08l14.63 0l0 12.56l-14.63 0Z" id="p263w65" />
<path d="M59.07 387.55l42.65 0l0 12.29l-42.65 0Z" id="p263w66" />
<path d="M104.43 387.61l36.01 0l0 12.23l-36.01 0Z" id="p263w67" />
<path d="M143.14 387.37l14.43 0l0 12.56l-14.43 0Z" id="p263w68" />
<path d="M59.07 402.89l14.41 0l0 12.23l-14.41 0Z" id="p263w69" />
<path d="M76.18 402.84l41.26 0l0 12.29l-41.26 0Z" id="p263w70" />
<path d="M117.44 402.84l12.07 0l0 12.29l-12.07 0Z" id="p263w71" />
<path d="M132.21 402.87l25.65 0l0 12.23l-25.65 0Z" id="p263w72" />
<path d="M160.57 402.89l11.94 0l0 12.23l-11.94 0Z" id="p263w73" />
<path d="M175.21 402.89l26.33 0l0 12.23l-26.33 0Z" id="p263w74" />
<path d="M204.24 402.87l27.91 0l0 12.23l-27.91 0Z" id="p263w75" />
<path d="M68.92 417.93l18.92 0l0 12.56l-18.92 0Z" id="p263w76" />
<path d="M59.07 433.46l15.53 0l0 12.23l-15.53 0Z" id="p263w77" />
<path d="M77.3 433.4l31.23 0l0 12.29l-31.23 0Z" id="p263w78" />
<path d="M111.24 433.46l8.33 0l0 12.23l-8.33 0Z" id="p263w79" />
<path d="M122.26 433.46l48.41 0l0 12.23l-48.41 0Z" id="p263w80" />
<path d="M173.37 433.22l18.01 0l0 12.56l-18.01 0Z" id="p263w81" />
<path d="M59.07 448.74l40.5 0l0 12.23l-40.5 0Z" id="p263w82" />
<path d="M102.28 448.69l41.94 0l0 12.29l-41.94 0Z" id="p263w83" />
<path d="M146.92 448.74l40.46 0l0 12.23l-40.46 0Z" id="p263w84" />
<path d="M190.08 448.74l27.37 0l0 12.23l-27.37 0Z" id="p263w85" />
<path d="M68.92 463.78l18.92 0l0 12.56l-18.92 0Z" id="p263w86" />
<path d="M59.07 479.25l38.07 0l0 12.29l-38.07 0Z" id="p263w87" />
<path d="M99.85 479.31l46.72 0l0 12.23l-46.72 0Z" id="p263w88" />
<path d="M149.26 479.07l15.34 0l0 12.56l-15.34 0Z" id="p263w89" />
<path d="M59.07 494.54l64.84 0l0 12.29l-64.84 0Z" id="p263w90" />
<path d="M126.61 494.59l28.35 0l0 12.23l-28.35 0Z" id="p263w91" />
<path d="M157.67 494.35l15.54 0l0 12.56l-15.54 0Z" id="p263w92" />
<path d="M59.07 509.88l20.03 0l0 12.23l-20.03 0Z" id="p263w93" />
<path d="M81.81 509.82l48.67 0l0 12.29l-48.67 0Z" id="p263w94" />
<path d="M133.18 509.88l17.56 0l0 12.23l-17.56 0Z" id="p263w95" />
<path d="M153.44 509.88l23.86 0l0 12.23l-23.86 0Z" id="p263w96" />
<path d="M180.01 509.63l15.54 0l0 12.56l-15.54 0Z" id="p263w97" />
<path d="M59.07 525.11l44.77 0l0 12.29l-44.77 0Z" id="p263w98" />
<path d="M106.55 525.16l18.68 0l0 12.23l-18.68 0Z" id="p263w99" />
<path d="M125.23 525.16l15.98 0l0 12.23l-15.98 0Z" id="p263w100" />
<path d="M143.92 524.92l17.81 0l0 12.56l-17.81 0Z" id="p263w101" />
<path d="M166.87 525.16l41.32 0l0 12.23l-41.32 0Z" id="p263w102" />
<path d="M210.89 524.92l18.72 0l0 12.56l-18.72 0Z" id="p263w103" />
<path d="M59.07 540.44l14.41 0l0 12.23l-14.41 0Z" id="p263w104" />
<path d="M76.18 540.39l63.85 0l0 12.29l-63.85 0Z" id="p263w105" />
<path d="M142.73 540.44l17.56 0l0 12.23l-17.56 0Z" id="p263w106" />
<path d="M162.99 540.44l32.87 0l0 12.23l-32.87 0Z" id="p263w107" />
<path d="M198.56 540.2l14.63 0l0 12.56l-14.63 0Z" id="p263w108" />
<path d="M59.07 555.73l14.41 0l0 12.23l-14.41 0Z" id="p263w109" />
<path d="M76.18 555.67l41.83 0l0 12.29l-41.83 0Z" id="p263w110" />
<path d="M118.01 555.67l23.3 0l0 12.29l-23.3 0Z" id="p263w111" />
<path d="M144.01 555.73l8.33 0l0 12.23l-8.33 0Z" id="p263w112" />
<path d="M155.03 555.73l44.05 0l0 12.23l-44.05 0Z" id="p263w113" />
<path d="M199.08 555.73l23.42 0l0 12.23l-23.42 0Z" id="p263w114" />
<path d="M68.92 570.77l18.92 0l0 12.56l-18.92 0Z" id="p263w115" />
<path d="M59.07 586.29l14.41 0l0 12.23l-14.41 0Z" id="p263w116" />
<path d="M76.18 586.24l44.14 0l0 12.29l-44.14 0Z" id="p263w117" />
<path d="M123.02 586.29l11.94 0l0 12.23l-11.94 0Z" id="p263w118" />
<path d="M137.66 586.29l27.45 0l0 12.23l-27.45 0Z" id="p263w119" />
<path d="M167.82 586.05l18.92 0l0 12.56l-18.92 0Z" id="p263w120" />
<path d="M59.07 601.58l40.5 0l0 12.23l-40.5 0Z" id="p263w121" />
<path d="M102.28 601.52l28.24 0l0 12.29l-28.24 0Z" id="p263w122" />
<path d="M133.22 601.58l17.56 0l0 12.23l-17.56 0Z" id="p263w123" />
<path d="M153.49 601.58l27.37 0l0 12.23l-27.37 0Z" id="p263w124" />
<path d="M183.55 601.33l15.54 0l0 12.56l-15.54 0Z" id="p263w125" />
<path d="M59.07 616.81l20.44 0l0 12.29l-20.44 0Z" id="p263w126" />
<path d="M82.22 616.86l18 0l0 12.23l-18 0Z" id="p263w127" />
<path d="M102.91 616.62l15.54 0l0 12.56l-15.54 0Z" id="p263w128" />
<path d="M132.91 616.86l60.99 0l0 12.23l-60.99 0Z" id="p263w129" />
<path d="M196.6 616.62l18.92 0l0 12.56l-18.92 0Z" id="p263w130" />
<path d="M59.07 632.09l19.35 0l0 12.29l-19.35 0Z" id="p263w131" />
<path d="M82.59 632.09l24.98 0l0 12.29l-24.98 0Z" id="p263w132" />
<path d="M110.27 632.14l50.42 0l0 12.23l-50.42 0Z" id="p263w133" />
<path d="M163.39 631.9l14.79 0l0 12.56l-14.79 0Z" id="p263w134" />
<path d="M59.07 647.37l17.22 0l0 12.29l-17.22 0Z" id="p263w135" />
<path d="M78.99 647.43l31.07 0l0 12.23l-31.07 0Z" id="p263w136" />
<path d="M112.76 647.18l19.58 0l0 12.56l-19.58 0Z" id="p263w137" />
<path d="M59.07 662.71l14.41 0l0 12.23l-14.41 0Z" id="p263w138" />
<path d="M76.18 662.66l30.8 0l0 12.29l-30.8 0Z" id="p263w139" />
<path d="M109.68 662.71l11.94 0l0 12.23l-11.94 0Z" id="p263w140" />
<path d="M124.32 662.71l34.43 0l0 12.23l-34.43 0Z" id="p263w141" />
<path d="M161.46 662.47l17.81 0l0 12.56l-17.81 0Z" id="p263w142" />
<path d="M59.07 677.99l14.41 0l0 12.23l-14.41 0Z" id="p263w143" />
<path d="M76.18 677.94l20.9 0l0 12.29l-20.9 0Z" id="p263w144" />
<path d="M105.4 677.99l11.94 0l0 12.23l-11.94 0Z" id="p263w145" />
<path d="M120.04 677.99l19.35 0l0 12.23l-19.35 0Z" id="p263w146" />
<path d="M147.72 677.75l18.17 0l0 12.56l-18.17 0Z" id="p263w147" />
<path d="M59.07 693.28l20.03 0l0 12.23l-20.03 0Z" id="p263w148" />
<path d="M81.81 693.22l41.53 0l0 12.29l-41.53 0Z" id="p263w149" />
<path d="M126.03 693.28l17.56 0l0 12.23l-17.56 0Z" id="p263w150" />
<path d="M146.3 693.28l41.64 0l0 12.23l-41.64 0Z" id="p263w151" />
<path d="M190.63 693.03l15.34 0l0 12.56l-15.34 0Z" id="p263w152" />
<path d="M59.07 708.51l41.73 0l0 12.29l-41.73 0Z" id="p263w153" />
<path d="M103.5 708.56l16.43 0l0 12.23l-16.43 0Z" id="p263w154" />
<path d="M122.63 708.56l48.62 0l0 12.23l-48.62 0Z" id="p263w155" />
<path d="M188.96 708.56l27.62 0l0 12.23l-27.62 0Z" id="p263w156" />
<path d="M68.92 723.6l18.72 0l0 12.56l-18.72 0Z" id="p263w157" />
<path d="M59.07 739.07l38.7 0l0 12.29l-38.7 0Z" id="p263w158" />
<path d="M100.48 739.13l38.26 0l0 12.23l-38.26 0Z" id="p263w159" />
<path d="M141.44 738.88l17.81 0l0 12.56l-17.81 0Z" id="p263w160" />
<path d="M59.07 754.36l51.95 0l0 12.29l-51.95 0Z" id="p263w161" />
<path d="M113.73 754.41l50.63 0l0 12.23l-50.63 0Z" id="p263w162" />
<path d="M188.21 754.17l14.79 0l0 12.56l-14.79 0Z" id="p263w163" />
<path d="M68.92 769.7l14.85 0l0 12.23l-14.85 0Z" id="p263w164" />
<path d="M100.82 769.7l51.76 0l0 12.23l-51.76 0Z" id="p263w165" />
<path d="M155.29 769.7l8.33 0l0 12.23l-8.33 0Z" id="p263w166" />
<path d="M178.77 769.7l50.63 0l0 12.23l-50.63 0Z" id="p263w167" />
<path d="M68.92 784.73l14.79 0l0 12.56l-14.79 0Z" id="p263w168" />
<path d="M59.07 800.26l20.03 0l0 12.23l-20.03 0Z" id="p263w169" />
<path d="M81.81 800.21l23.8 0l0 12.29l-23.8 0Z" id="p263w170" />
<path d="M108.3 800.26l17.56 0l0 12.23l-17.56 0Z" id="p263w171" />
<path d="M128.57 800.26l22.5 0l0 12.23l-22.5 0Z" id="p263w172" />
<path d="M153.77 800.02l18.01 0l0 12.56l-18.01 0Z" id="p263w173" />
<path d="M59.07 815.49l27.85 0l0 12.29l-27.85 0Z" id="p263w174" />
<path d="M89.63 815.55l76.18 0l0 12.23l-76.18 0Z" id="p263w175" />
<path d="M168.52 815.3l18.92 0l0 12.56l-18.92 0Z" id="p263w176" />
<path d="M59.07 830.83l15.53 0l0 12.23l-15.53 0Z" id="p263w177" />
<path d="M77.3 830.77l33.46 0l0 12.29l-33.46 0Z" id="p263w178" />
<path d="M113.46 830.83l8.33 0l0 12.23l-8.33 0Z" id="p263w179" />
<path d="M124.49 830.83l32.63 0l0 12.23l-32.63 0Z" id="p263w180" />
<path d="M159.82 830.58l18.72 0l0 12.56l-18.72 0Z" id="p263w181" />
<path d="M59.07 846.11l19.44 0l0 12.23l-19.44 0Z" id="p263w182" />
<path d="M81.22 846.06l30.9 0l0 12.29l-30.9 0Z" id="p263w183" />
<path d="M114.82 846.11l31.95 0l0 12.23l-31.95 0Z" id="p263w184" />
<path d="M149.46 846.11l11.04 0l0 12.23l-11.04 0Z" id="p263w185" />
<path d="M163.2 845.87l15.34 0l0 12.56l-15.34 0Z" id="p263w186" />
<path d="M59.07 861.34l27.87 0l0 12.29l-27.87 0Z" id="p263w187" />
<path d="M89.64 861.4l38.6 0l0 12.23l-38.6 0Z" id="p263w188" />
<path d="M130.95 861.15l15.54 0l0 12.56l-15.54 0Z" id="p263w189" />
<path d="M59.07 876.62l27.87 0l0 12.29l-27.87 0Z" id="p263w190" />
<path d="M89.64 876.66l25.88 0l0 12.23l-25.88 0Z" id="p263w191" />
<path d="M118.22 876.68l44.78 0l0 12.23l-44.78 0Z" id="p263w192" />
<path d="M165.7 876.43l18.92 0l0 12.56l-18.92 0Z" id="p263w193" />
<path d="M59.07 891.96l14.41 0l0 12.23l-14.41 0Z" id="p263w194" />
<path d="M76.18 891.91l47.33 0l0 12.29l-47.33 0Z" id="p263w195" />
<path d="M126.21 891.96l8.33 0l0 12.23l-8.33 0Z" id="p263w196" />
<path d="M137.24 891.96l37.14 0l0 12.23l-37.14 0Z" id="p263w197" />
<path d="M177.07 891.72l18.92 0l0 12.56l-18.92 0Z" id="p263w198" />
<path d="M59.07 907.19l44.18 0l0 12.29l-44.18 0Z" id="p263w199" />
<path d="M105.96 907.25l44.78 0l0 12.23l-44.78 0Z" id="p263w200" />
<path d="M153.44 907l18.92 0l0 12.56l-18.92 0Z" id="p263w201" />
<path d="M59.07 922.47l31.31 0l0 12.29l-31.31 0Z" id="p263w202" />
<path d="M93.09 922.53l36.01 0l0 12.23l-36.01 0Z" id="p263w203" />
<path d="M131.8 922.28l15.54 0l0 12.56l-15.54 0Z" id="p263w204" />
<path d="M270.44 112.51l21.83 0l0 12.23l-21.83 0Z" id="p263w205" />
<path d="M294.97 112.51l41.19 0l0 12.23l-41.19 0Z" id="p263w206" />
<path d="M338.87 112.51l31.23 0l0 12.23l-31.23 0Z" id="p263w207" />
<path d="M372.8 112.49l25.65 0l0 12.23l-25.65 0Z" id="p263w208" />
<path d="M401.16 112.51l36.01 0l0 12.23l-36.01 0Z" id="p263w209" />
<path d="M270.44 127.79l34.89 0l0 12.23l-34.89 0Z" id="p263w210" />
<path d="M308.03 127.79l17.56 0l0 12.23l-17.56 0Z" id="p263w211" />
<path d="M328.3 127.79l43.44 0l0 12.23l-43.44 0Z" id="p263w212" />
<path d="M374.44 127.77l27.91 0l0 12.23l-27.91 0Z" id="p263w213" />
<path d="M405.05 127.55l15.54 0l0 12.56l-15.54 0Z" id="p263w214" />
<path d="M260.59 143.08l16.43 0l0 12.23l-16.43 0Z" id="p263w215" />
<path d="M279.72 143.02l54.13 0l0 12.29l-54.13 0Z" id="p263w216" />
<path d="M336.55 143.08l8.33 0l0 12.23l-8.33 0Z" id="p263w217" />
<path d="M347.58 143.08l24.98 0l0 12.23l-24.98 0Z" id="p263w218" />
<path d="M375.26 142.83l14.63 0l0 12.56l-14.63 0Z" id="p263w219" />
<path d="M260.59 158.36l16.43 0l0 12.23l-16.43 0Z" id="p263w220" />
<path d="M279.72 158.3l85.07 0l0 12.29l-85.07 0Z" id="p263w221" />
<path d="M367.5 158.36l8.33 0l0 12.23l-8.33 0Z" id="p263w222" />
<path d="M378.52 158.36l24.98 0l0 12.23l-24.98 0Z" id="p263w223" />
<path d="M406.2 158.11l14.63 0l0 12.56l-14.63 0Z" id="p263w224" />
<path d="M260.59 173.64l15.53 0l0 12.23l-15.53 0Z" id="p263w225" />
<path d="M278.82 173.59l14.29 0l0 12.29l-14.29 0Z" id="p263w226" />
<path d="M295.82 173.64l8.33 0l0 12.23l-8.33 0Z" id="p263w227" />
<path d="M306.84 173.64l12.6 0l0 12.23l-12.6 0Z" id="p263w228" />
<path d="M322.15 173.4l18.01 0l0 12.56l-18.01 0Z" id="p263w229" />
<path d="M260.59 188.93l16.43 0l0 12.23l-16.43 0Z" id="p263w230" />
<path d="M279.72 188.87l45.24 0l0 12.29l-45.24 0Z" id="p263w231" />
<path d="M327.66 188.93l8.33 0l0 12.23l-8.33 0Z" id="p263w232" />
<path d="M338.69 188.93l12.6 0l0 12.23l-12.6 0Z" id="p263w233" />
<path d="M353.99 188.68l18.01 0l0 12.56l-18.01 0Z" id="p263w234" />
<path d="M260.59 204.21l14.41 0l0 12.23l-14.41 0Z" id="p263w235" />
<path d="M277.7 204.15l58.27 0l0 12.29l-58.27 0Z" id="p263w236" />
<path d="M338.67 204.21l11.94 0l0 12.23l-11.94 0Z" id="p263w237" />
<path d="M353.31 204.21l56.94 0l0 12.23l-56.94 0Z" id="p263w238" />
<path d="M412.95 203.96l18.01 0l0 12.56l-18.01 0Z" id="p263w239" />
<path d="M260.59 219.49l14.41 0l0 12.23l-14.41 0Z" id="p263w240" />
<path d="M277.7 219.44l41.36 0l0 12.29l-41.36 0Z" id="p263w241" />
<path d="M321.76 219.49l11.94 0l0 12.23l-11.94 0Z" id="p263w242" />
<path d="M336.4 219.49l39.79 0l0 12.23l-39.79 0Z" id="p263w243" />
<path d="M378.89 219.25l18.92 0l0 12.56l-18.92 0Z" id="p263w244" />
<path d="M260.59 234.72l10.68 0l0 12.29l-10.68 0Z" id="p263w245" />
<path d="M273.98 234.78l21.83 0l0 12.23l-21.83 0Z" id="p263w246" />
<path d="M298.51 234.53l18.92 0l0 12.56l-18.92 0Z" id="p263w247" />
<path d="M270.44 250.06l10.58 0l0 12.23l-10.58 0Z" id="p263w248" />
<path d="M283.72 250.06l27.45 0l0 12.23l-27.45 0Z" id="p263w249" />
<path d="M313.88 250.06l45.23 0l0 12.23l-45.23 0Z" id="p263w250" />
<path d="M361.81 249.81l18.72 0l0 12.56l-18.72 0Z" id="p263w251" />
<path d="M270.44 265.34l10.58 0l0 12.23l-10.58 0Z" id="p263w252" />
<path d="M283.72 265.34l18.02 0l0 12.23l-18.02 0Z" id="p263w253" />
<path d="M304.44 265.34l13.05 0l0 12.23l-13.05 0Z" id="p263w254" />
<path d="M320.19 265.34l11.94 0l0 12.23l-11.94 0Z" id="p263w255" />
<path d="M334.83 265.34l21.37 0l0 12.23l-21.37 0Z" id="p263w256" />
<path d="M358.91 265.34l43.88 0l0 12.23l-43.88 0Z" id="p263w257" />
<path d="M405.49 265.34l15.31 0l0 12.23l-15.31 0Z" id="p263w258" />
<path d="M270.44 280.63l21.37 0l0 12.23l-21.37 0Z" id="p263w259" />
<path d="M294.52 280.63l14.64 0l0 12.23l-14.64 0Z" id="p263w260" />
<path d="M311.86 280.38l18.17 0l0 12.56l-18.17 0Z" id="p263w261" />
<path d="M260.59 295.85l28.08 0l0 12.29l-28.08 0Z" id="p263w262" />
<path d="M291.37 295.91l75.38 0l0 12.23l-75.38 0Z" id="p263w263" />
<path d="M369.46 295.66l18.92 0l0 12.56l-18.92 0Z" id="p263w264" />
<path d="M402.84 295.91l19.36 0l0 12.23l-19.36 0Z" id="p263w265" />
<path d="M424.9 295.91l11.7 0l0 12.23l-11.7 0Z" id="p263w266" />
<path d="M270.44 311.19l22.73 0l0 12.23l-22.73 0Z" id="p263w267" />
<path d="M295.87 310.95l18.92 0l0 12.56l-18.92 0Z" id="p263w268" />
<path d="M260.59 326.42l26.1 0l0 12.29l-26.1 0Z" id="p263w269" />
<path d="M289.39 326.48l29.7 0l0 12.23l-29.7 0Z" id="p263w270" />
<path d="M321.79 326.23l18.92 0l0 12.56l-18.92 0Z" id="p263w271" />
<path d="M260.59 341.76l14.41 0l0 12.23l-14.41 0Z" id="p263w272" />
<path d="M277.7 341.7l23.84 0l0 12.29l-23.84 0Z" id="p263w273" />
<path d="M304.24 341.76l11.94 0l0 12.23l-11.94 0Z" id="p263w274" />
<path d="M318.88 341.76l6.3 0l0 12.23l-6.3 0Z" id="p263w275" />
<path d="M325.18 341.76l7.42 0l0 12.23l-7.42 0Z" id="p263w276" />
<path d="M335.31 341.52l14.79 0l0 12.56l-14.79 0Z" id="p263w277" />
<path d="M260.59 357.04l14.41 0l0 12.23l-14.41 0Z" id="p263w278" />
<path d="M277.7 356.99l30.13 0l0 12.29l-30.13 0Z" id="p263w279" />
<path d="M307.83 357.04l24.2 0l0 12.23l-24.2 0Z" id="p263w280" />
<path d="M334.73 356.99l39.03 0l0 12.29l-39.03 0Z" id="p263w281" />
<path d="M376.46 357.04l11.94 0l0 12.23l-11.94 0Z" id="p263w282" />
<path d="M391.1 357.04l50.32 0l0 12.23l-50.32 0Z" id="p263w283" />
<path d="M270.44 372.33l34.21 0l0 12.23l-34.21 0Z" id="p263w284" />
<path d="M307.36 372.08l18.17 0l0 12.56l-18.17 0Z" id="p263w285" />
<path d="M260.59 387.55l19.34 0l0 12.29l-19.34 0Z" id="p263w286" />
<path d="M282.64 387.59l25.88 0l0 12.23l-25.88 0Z" id="p263w287" />
<path d="M311.21 387.61l11.7 0l0 12.23l-11.7 0Z" id="p263w288" />
<path d="M325.62 387.61l19.14 0l0 12.23l-19.14 0Z" id="p263w289" />
<path d="M347.46 387.37l15.34 0l0 12.56l-15.34 0Z" id="p263w290" />
<path d="M260.59 402.89l15.53 0l0 12.23l-15.53 0Z" id="p263w291" />
<path d="M278.82 402.84l39.73 0l0 12.29l-39.73 0Z" id="p263w292" />
<path d="M321.25 402.89l19.35 0l0 12.23l-19.35 0Z" id="p263w293" />
<path d="M364.45 402.65l18.01 0l0 12.56l-18.01 0Z" id="p263w294" />
<path d="M260.59 418.18l14.41 0l0 12.23l-14.41 0Z" id="p263w295" />
<path d="M277.7 418.12l29.47 0l0 12.29l-29.47 0Z" id="p263w296" />
<path d="M309.87 418.18l8.33 0l0 12.23l-8.33 0Z" id="p263w297" />
<path d="M320.89 418.18l24.31 0l0 12.23l-24.31 0Z" id="p263w298" />
<path d="M347.9 417.93l15.54 0l0 12.56l-15.54 0Z" id="p263w299" />
<path d="M270.44 433.46l15.31 0l0 12.23l-15.31 0Z" id="p263w300" />
<path d="M288.45 433.46l29.5 0l0 12.23l-29.5 0Z" id="p263w301" />
<path d="M320.65 433.46l36.25 0l0 12.23l-36.25 0Z" id="p263w302" />
<path d="M359.6 433.46l5.86 0l0 12.23l-5.86 0Z" id="p263w303" />
<path d="M384.14 433.46l11.94 0l0 12.23l-11.94 0Z" id="p263w304" />
<path d="M398.78 433.46l26.57 0l0 12.23l-26.57 0Z" id="p263w305" />
<path d="M270.44 448.5l15.54 0l0 12.56l-15.54 0Z" id="p263w306" />
<path d="M260.59 464.03l14.85 0l0 12.23l-14.85 0Z" id="p263w307" />
<path d="M278.14 463.97l39.3 0l0 12.29l-39.3 0Z" id="p263w308" />
<path d="M320.15 464.03l46.37 0l0 12.23l-46.37 0Z" id="p263w309" />
<path d="M390.37 463.78l15.54 0l0 12.56l-15.54 0Z" id="p263w310" />
<path d="M260.59 479.31l25.97 0l0 12.23l-25.97 0Z" id="p263w311" />
<path d="M289.26 479.25l27.01 0l0 12.29l-27.01 0Z" id="p263w312" />
<path d="M321.83 479.31l45.69 0l0 12.23l-45.69 0Z" id="p263w313" />
<path d="M376.08 479.07l18.17 0l0 12.56l-18.17 0Z" id="p263w314" />
<path d="M260.59 494.59l25.89 0l0 12.23l-25.89 0Z" id="p263w315" />
<path d="M289.18 494.59l12.6 0l0 12.23l-12.6 0Z" id="p263w316" />
<path d="M304.49 494.59l25.21 0l0 12.23l-25.21 0Z" id="p263w317" />
<path d="M332.4 494.54l33.09 0l0 12.29l-33.09 0Z" id="p263w318" />
<path d="M371.05 494.59l45.69 0l0 12.23l-45.69 0Z" id="p263w319" />
<path d="M270.44 509.63l18.17 0l0 12.56l-18.17 0Z" id="p263w320" />
<path d="M260.59 525.16l18.46 0l0 12.23l-18.46 0Z" id="p263w321" />
<path d="M281.76 525.11l33.09 0l0 12.29l-33.09 0Z" id="p263w322" />
<path d="M317.55 525.16l37.59 0l0 12.23l-37.59 0Z" id="p263w323" />
<path d="M357.84 525.16l49.06 0l0 12.23l-49.06 0Z" id="p263w324" />
<path d="M409.6 524.92l15.54 0l0 12.56l-15.54 0Z" id="p263w325" />
<path d="M270.44 540.44l10.35 0l0 12.23l-10.35 0Z" id="p263w326" />
<path d="M283.49 540.44l21.37 0l0 12.23l-21.37 0Z" id="p263w327" />
<path d="M307.57 540.44l11.94 0l0 12.23l-11.94 0Z" id="p263w328" />
<path d="M322.21 540.44l24.1 0l0 12.23l-24.1 0Z" id="p263w329" />
<path d="M349 540.2l18.92 0l0 12.56l-18.92 0Z" id="p263w330" />
<path d="M260.59 555.73l10.58 0l0 12.23l-10.58 0Z" id="p263w331" />
<path d="M273.88 555.73l11.25 0l0 12.23l-11.25 0Z" id="p263w332" />
<path d="M287.83 555.67l31.28 0l0 12.29l-31.28 0Z" id="p263w333" />
<path d="M324.96 555.73l11.7 0l0 12.23l-11.7 0Z" id="p263w334" />
<path d="M347.03 555.73l14.17 0l0 12.23l-14.17 0Z" id="p263w335" />
<path d="M369.76 555.48l18.17 0l0 12.56l-18.17 0Z" id="p263w336" />
<path d="M260.59 570.96l26.73 0l0 12.29l-26.73 0Z" id="p263w337" />
<path d="M290.03 571.01l62.92 0l0 12.23l-62.92 0Z" id="p263w338" />
<path d="M355.65 570.77l17.81 0l0 12.56l-17.81 0Z" id="p263w339" />
<path d="M260.59 586.24l46.45 0l0 12.29l-46.45 0Z" id="p263w340" />
<path d="M309.75 586.29l124.59 0l0 12.23l-124.59 0Z" id="p263w341" />
<path d="M270.44 601.33l18.17 0l0 12.56l-18.17 0Z" id="p263w342" />
<path d="M260.59 616.86l14.41 0l0 12.23l-14.41 0Z" id="p263w343" />
<path d="M277.7 616.81l47.62 0l0 12.29l-47.62 0Z" id="p263w344" />
<path d="M328.02 616.86l8.33 0l0 12.23l-8.33 0Z" id="p263w345" />
<path d="M339.05 616.86l43.44 0l0 12.23l-43.44 0Z" id="p263w346" />
<path d="M385.18 616.62l18.92 0l0 12.56l-18.92 0Z" id="p263w347" />
<path d="M260.59 632.09l32.06 0l0 12.29l-32.06 0Z" id="p263w348" />
<path d="M295.35 632.14l21.37 0l0 12.23l-21.37 0Z" id="p263w349" />
<path d="M319.43 632.14l16.43 0l0 12.23l-16.43 0Z" id="p263w350" />
<path d="M338.56 632.14l50.65 0l0 12.23l-50.65 0Z" id="p263w351" />
<path d="M405.19 632.12l14.18 0l0 12.23l-14.18 0Z" id="p263w352" />
<path d="M422.07 631.9l14.43 0l0 12.56l-14.43 0Z" id="p263w353" />
<path d="M260.59 647.37l23.89 0l0 12.29l-23.89 0Z" id="p263w354" />
<path d="M287.18 647.43l29.49 0l0 12.23l-29.49 0Z" id="p263w355" />
<path d="M319.37 647.43l41.26 0l0 12.23l-41.26 0Z" id="p263w356" />
<path d="M363.33 647.18l15.54 0l0 12.56l-15.54 0Z" id="p263w357" />
<path d="M260.59 662.66l20.47 0l0 12.29l-20.47 0Z" id="p263w358" />
<path d="M283.77 662.71l19.13 0l0 12.23l-19.13 0Z" id="p263w359" />
<path d="M305.6 662.47l15.54 0l0 12.56l-15.54 0Z" id="p263w360" />
<path d="M270.44 677.99l20.25 0l0 12.23l-20.25 0Z" id="p263w361" />
<path d="M293.4 677.99l21.39 0l0 12.23l-21.39 0Z" id="p263w362" />
<path d="M317.48 677.99l19.13 0l0 12.23l-19.13 0Z" id="p263w363" />
<path d="M339.31 677.99l18.9 0l0 12.23l-18.9 0Z" id="p263w364" />
<path d="M360.91 677.99l11.7 0l0 12.23l-11.7 0Z" id="p263w365" />
<path d="M375.31 677.99l28.58 0l0 12.23l-28.58 0Z" id="p263w366" />
<path d="M406.59 677.75l15.54 0l0 12.56l-15.54 0Z" id="p263w367" />
<path d="M270.44 693.28l17.55 0l0 12.23l-17.55 0Z" id="p263w368" />
<path d="M290.69 693.28l20.25 0l0 12.23l-20.25 0Z" id="p263w369" />
<path d="M313.65 693.28l11.25 0l0 12.23l-11.25 0Z" id="p263w370" />
<path d="M327.6 693.28l14.63 0l0 12.23l-14.63 0Z" id="p263w371" />
<path d="M344.93 693.28l5.86 0l0 12.23l-5.86 0Z" id="p263w372" />
<path d="M353.48 693.28l14.17 0l0 12.23l-14.17 0Z" id="p263w373" />
<path d="M370.36 693.28l28.59 0l0 12.23l-28.59 0Z" id="p263w374" />
<path d="M401.65 693.28l27.01 0l0 12.23l-27.01 0Z" id="p263w375" />
<path d="M270.44 708.56l10.45 0l0 12.23l-10.45 0Z" id="p263w376" />
<path d="M283.59 708.56l10.35 0l0 12.23l-10.35 0Z" id="p263w377" />
<path d="M296.64 708.56l31.73 0l0 12.23l-31.73 0Z" id="p263w378" />
<path d="M338.06 708.32l15.54 0l0 12.56l-15.54 0Z" id="p263w379" />
<path d="M270.44 723.84l10.82 0l0 12.23l-10.82 0Z" id="p263w380" />
<path d="M283.96 723.84l20.25 0l0 12.23l-20.25 0Z" id="p263w381" />
<path d="M306.91 723.84l41.19 0l0 12.23l-41.19 0Z" id="p263w382" />
<path d="M350.81 723.84l18.9 0l0 12.23l-18.9 0Z" id="p263w383" />
<path d="M372.4 723.84l11.7 0l0 12.23l-11.7 0Z" id="p263w384" />
<path d="M386.81 723.84l28.58 0l0 12.23l-28.58 0Z" id="p263w385" />
<path d="M270.44 738.88l15.54 0l0 12.56l-15.54 0Z" id="p263w386" />
<path d="M260.59 754.36l30 0l0 12.29l-30 0Z" id="p263w387" />
<path d="M293.3 754.41l19.36 0l0 12.23l-19.36 0Z" id="p263w388" />
<path d="M315.36 754.41l19.13 0l0 12.23l-19.13 0Z" id="p263w389" />
<path d="M337.19 754.17l14.79 0l0 12.56l-14.79 0Z" id="p263w390" />
<path d="M260.59 769.7l19.14 0l0 12.23l-19.14 0Z" id="p263w391" />
<path d="M282.44 769.7l39.39 0l0 12.23l-39.39 0Z" id="p263w392" />
<path d="M324.53 769.64l30 0l0 12.29l-30 0Z" id="p263w393" />
<path d="M357.23 769.7l41.19 0l0 12.23l-41.19 0Z" id="p263w394" />
<path d="M401.12 769.7l23.19 0l0 12.23l-23.19 0Z" id="p263w395" />
<path d="M270.44 784.98l19.82 0l0 12.23l-19.82 0Z" id="p263w396" />
<path d="M292.96 784.98l38.04 0l0 12.23l-38.04 0Z" id="p263w397" />
<path d="M333.7 784.98l11.7 0l0 12.23l-11.7 0Z" id="p263w398" />
<path d="M348.1 784.98l28.58 0l0 12.23l-28.58 0Z" id="p263w399" />
<path d="M379.38 784.73l18.92 0l0 12.56l-18.92 0Z" id="p263w400" />
<path d="M260.59 800.21l45.28 0l0 12.29l-45.28 0Z" id="p263w401" />
<path d="M308.58 800.21l29.29 0l0 12.29l-29.29 0Z" id="p263w402" />
<path d="M340.57 800.26l10.35 0l0 12.23l-10.35 0Z" id="p263w403" />
<path d="M353.62 800.26l45.92 0l0 12.23l-45.92 0Z" id="p263w404" />
<path d="M402.24 800.02l18.92 0l0 12.56l-18.92 0Z" id="p263w405" />
<path d="M260.59 815.55l14.41 0l0 12.23l-14.41 0Z" id="p263w406" />
<path d="M277.7 815.49l58.05 0l0 12.29l-58.05 0Z" id="p263w407" />
<path d="M338.46 815.55l17.56 0l0 12.23l-17.56 0Z" id="p263w408" />
<path d="M358.72 815.55l53.8 0l0 12.23l-53.8 0Z" id="p263w409" />
<path d="M270.44 830.58l18.92 0l0 12.56l-18.92 0Z" id="p263w410" />
<path d="M260.59 846.11l20.03 0l0 12.23l-20.03 0Z" id="p263w411" />
<path d="M283.32 846.06l49.91 0l0 12.29l-49.91 0Z" id="p263w412" />
<path d="M335.93 846.11l17.56 0l0 12.23l-17.56 0Z" id="p263w413" />
<path d="M356.2 846.11l44.56 0l0 12.23l-44.56 0Z" id="p263w414" />
<path d="M403.46 845.87l14.79 0l0 12.56l-14.79 0Z" id="p263w415" />
<path d="M260.59 861.4l14.41 0l0 12.23l-14.41 0Z" id="p263w416" />
<path d="M277.7 861.34l23.14 0l0 12.29l-23.14 0Z" id="p263w417" />
<path d="M303.54 861.4l17.56 0l0 12.23l-17.56 0Z" id="p263w418" />
<path d="M323.81 861.4l27.68 0l0 12.23l-27.68 0Z" id="p263w419" />
<path d="M354.18 861.15l15.54 0l0 12.56l-15.54 0Z" id="p263w420" />
<path d="M384.18 861.4l11.94 0l0 12.23l-11.94 0Z" id="p263w421" />
<path d="M398.82 861.4l29.71 0l0 12.23l-29.71 0Z" id="p263w422" />
<path d="M270.44 876.43l15.54 0l0 12.56l-15.54 0Z" id="p263w423" />
<path d="M260.59 891.96l14.41 0l0 12.23l-14.41 0Z" id="p263w424" />
<path d="M277.7 891.91l23.14 0l0 12.29l-23.14 0Z" id="p263w425" />
<path d="M305.01 891.91l28.77 0l0 12.29l-28.77 0Z" id="p263w426" />
<path d="M336.48 891.96l11.94 0l0 12.23l-11.94 0Z" id="p263w427" />
<path d="M351.12 891.96l34.56 0l0 12.23l-34.56 0Z" id="p263w428" />
<path d="M388.37 891.96l18.92 0l0 12.23l-18.92 0Z" id="p263w429" />
<path d="M409.99 891.72l17.26 0l0 12.56l-17.26 0Z" id="p263w430" />
<path d="M260.59 907.25l19.44 0l0 12.23l-19.44 0Z" id="p263w431" />
<path d="M282.74 907.19l33.85 0l0 12.29l-33.85 0Z" id="p263w432" />
<path d="M319.28 907.25l23.64 0l0 12.23l-23.64 0Z" id="p263w433" />
<path d="M353.95 907.25l11.04 0l0 12.23l-11.04 0Z" id="p263w434" />
<path d="M367.69 907l18.01 0l0 12.56l-18.01 0Z" id="p263w435" />
<path d="M260.59 922.47l33.85 0l0 12.29l-33.85 0Z" id="p263w436" />
<path d="M297.14 922.53l23.64 0l0 12.23l-23.64 0Z" id="p263w437" />
<path d="M323.48 922.28l14.63 0l0 12.56l-14.63 0Z" id="p263w438" />
<path d="M462.11 112.51l14.41 0l0 12.23l-14.41 0Z" id="p263w439" />
<path d="M479.22 112.45l32.67 0l0 12.29l-32.67 0Z" id="p263w440" />
<path d="M511.89 112.51l24.2 0l0 12.23l-24.2 0Z" id="p263w441" />
<path d="M538.79 112.45l41.56 0l0 12.29l-41.56 0Z" id="p263w442" />
<path d="M583.05 112.51l11.94 0l0 12.23l-11.94 0Z" id="p263w443" />
<path d="M597.69 112.51l33.67 0l0 12.23l-33.67 0Z" id="p263w444" />
<path d="M471.96 127.79l17.56 0l0 12.23l-17.56 0Z" id="p263w445" />
<path d="M492.22 127.79l36.02 0l0 12.23l-36.02 0Z" id="p263w446" />
<path d="M530.95 127.55l15.54 0l0 12.56l-15.54 0Z" id="p263w447" />
<path d="M462.11 143.08l14.41 0l0 12.23l-14.41 0Z" id="p263w448" />
<path d="M479.22 143.02l29.77 0l0 12.29l-29.77 0Z" id="p263w449" />
<path d="M508.98 143.02l12.07 0l0 12.29l-12.07 0Z" id="p263w450" />
<path d="M523.76 143.08l11.94 0l0 12.23l-11.94 0Z" id="p263w451" />
<path d="M538.4 143.08l20.66 0l0 12.23l-20.66 0Z" id="p263w452" />
<path d="M561.76 143.08l39.55 0l0 12.23l-39.55 0Z" id="p263w453" />
<path d="M604.01 142.83l18.92 0l0 12.56l-18.92 0Z" id="p263w454" />
<path d="M462.11 158.36l20.03 0l0 12.23l-20.03 0Z" id="p263w455" />
<path d="M484.84 158.3l59.83 0l0 12.29l-59.83 0Z" id="p263w456" />
<path d="M547.38 158.36l17.56 0l0 12.23l-17.56 0Z" id="p263w457" />
<path d="M567.64 158.36l35.8 0l0 12.23l-35.8 0Z" id="p263w458" />
<path d="M606.14 158.11l14.63 0l0 12.56l-14.63 0Z" id="p263w459" />
<path d="M462.11 173.64l14.19 0l0 12.23l-14.19 0Z" id="p263w460" />
<path d="M479.01 173.59l31.49 0l0 12.29l-31.49 0Z" id="p263w461" />
<path d="M516.36 173.64l8.78 0l0 12.23l-8.78 0Z" id="p263w462" />
<path d="M527.84 173.64l20.25 0l0 12.23l-20.25 0Z" id="p263w463" />
<path d="M556.65 173.4l15.54 0l0 12.56l-15.54 0Z" id="p263w464" />
<path d="M462.11 188.87l38.48 0l0 12.29l-38.48 0Z" id="p263w465" />
<path d="M503.29 188.93l100.03 0l0 12.23l-100.03 0Z" id="p263w466" />
<path d="M471.96 204.21l68.65 0l0 12.23l-68.65 0Z" id="p263w467" />
<path d="M543.31 204.19l25.88 0l0 12.23l-25.88 0Z" id="p263w468" />
<path d="M571.89 203.96l18.92 0l0 12.56l-18.92 0Z" id="p263w469" />
<path d="M462.11 219.49l15.53 0l0 12.23l-15.53 0Z" id="p263w470" />
<path d="M480.34 219.44l25.59 0l0 12.29l-25.59 0Z" id="p263w471" />
<path d="M508.63 219.49l8.33 0l0 12.23l-8.33 0Z" id="p263w472" />
<path d="M519.66 219.49l24.31 0l0 12.23l-24.31 0Z" id="p263w473" />
<path d="M546.67 219.25l14.63 0l0 12.56l-14.63 0Z" id="p263w474" />
<path d="M462.11 234.78l14.41 0l0 12.23l-14.41 0Z" id="p263w475" />
<path d="M479.22 234.72l37.93 0l0 12.29l-37.93 0Z" id="p263w476" />
<path d="M517.14 234.78l24.2 0l0 12.23l-24.2 0Z" id="p263w477" />
<path d="M544.04 234.72l46.82 0l0 12.29l-46.82 0Z" id="p263w478" />
<path d="M593.56 234.78l11.94 0l0 12.23l-11.94 0Z" id="p263w479" />
<path d="M608.2 234.78l34.78 0l0 12.23l-34.78 0Z" id="p263w480" />
<path d="M471.96 250.06l17.56 0l0 12.23l-17.56 0Z" id="p263w481" />
<path d="M492.22 250.06l37.81 0l0 12.23l-37.81 0Z" id="p263w482" />
<path d="M532.74 249.81l18.92 0l0 12.56l-18.92 0Z" id="p263w483" />
<path d="M462.11 265.29l40.9 0l0 12.29l-40.9 0Z" id="p263w484" />
<path d="M505.72 265.34l72.59 0l0 12.23l-72.59 0Z" id="p263w485" />
<path d="M581.01 265.1l15.34 0l0 12.56l-15.34 0Z" id="p263w486" />
<path d="M462.11 280.63l20.03 0l0 12.23l-20.03 0Z" id="p263w487" />
<path d="M484.84 280.57l37.75 0l0 12.29l-37.75 0Z" id="p263w488" />
<path d="M525.29 280.63l17.56 0l0 12.23l-17.56 0Z" id="p263w489" />
<path d="M545.55 280.63l31.91 0l0 12.23l-31.91 0Z" id="p263w490" />
<path d="M580.17 280.38l18.01 0l0 12.56l-18.01 0Z" id="p263w491" />
<path d="M462.11 295.85l42.74 0l0 12.29l-42.74 0Z" id="p263w492" />
<path d="M507.55 295.91l27.68 0l0 12.23l-27.68 0Z" id="p263w493" />
<path d="M537.93 295.66l15.54 0l0 12.56l-15.54 0Z" id="p263w494" />
<path d="M471.96 311.19l15.75 0l0 12.23l-15.75 0Z" id="p263w495" />
<path d="M490.41 311.19l20.04 0l0 12.23l-20.04 0Z" id="p263w496" />
<path d="M513.15 311.19l42.99 0l0 12.23l-42.99 0Z" id="p263w497" />
<path d="M558.85 311.19l27.68 0l0 12.23l-27.68 0Z" id="p263w498" />
<path d="M597.55 311.19l12.16 0l0 12.23l-12.16 0Z" id="p263w499" />
<path d="M612.41 310.95l15.54 0l0 12.56l-15.54 0Z" id="p263w500" />
<path d="M462.11 326.48l20.03 0l0 12.23l-20.03 0Z" id="p263w501" />
<path d="M484.84 326.42l64.55 0l0 12.29l-64.55 0Z" id="p263w502" />
<path d="M552.09 326.48l17.56 0l0 12.23l-17.56 0Z" id="p263w503" />
<path d="M572.35 326.48l58.09 0l0 12.23l-58.09 0Z" id="p263w504" />
<path d="M471.96 341.52l18.92 0l0 12.56l-18.92 0Z" id="p263w505" />
<path d="M462.11 357.04l15.08 0l0 12.23l-15.08 0Z" id="p263w506" />
<path d="M479.9 357.04l17.78 0l0 12.23l-17.78 0Z" id="p263w507" />
<path d="M500.38 356.99l33.39 0l0 12.29l-33.39 0Z" id="p263w508" />
<path d="M536.47 357.04l17.12 0l0 12.23l-17.12 0Z" id="p263w509" />
<path d="M556.29 357.04l14.41 0l0 12.23l-14.41 0Z" id="p263w510" />
<path d="M573.4 357.04l13.05 0l0 12.23l-13.05 0Z" id="p263w511" />
<path d="M589.15 357.04l16.43 0l0 12.23l-16.43 0Z" id="p263w512" />
<path d="M608.28 357.04l11.7 0l0 12.23l-11.7 0Z" id="p263w513" />
<path d="M471.96 372.08l18.92 0l0 12.56l-18.92 0Z" id="p263w514" />
<path d="M462.11 387.61l29.49 0l0 12.23l-29.49 0Z" id="p263w515" />
<path d="M494.3 387.61l15.53 0l0 12.23l-15.53 0Z" id="p263w516" />
<path d="M512.53 387.55l21.76 0l0 12.29l-21.76 0Z" id="p263w517" />
<path d="M537 387.61l19.13 0l0 12.23l-19.13 0Z" id="p263w518" />
<path d="M558.83 387.59l25.65 0l0 12.23l-25.65 0Z" id="p263w519" />
<path d="M587.18 387.61l18.9 0l0 12.23l-18.9 0Z" id="p263w520" />
<path d="M617.1 387.61l20.26 0l0 12.23l-20.26 0Z" id="p263w521" />
<path d="M471.96 402.89l11.7 0l0 12.23l-11.7 0Z" id="p263w522" />
<path d="M486.37 402.89l15.07 0l0 12.23l-15.07 0Z" id="p263w523" />
<path d="M504.14 402.89l37.59 0l0 12.23l-37.59 0Z" id="p263w524" />
<path d="M544.43 402.87l27.91 0l0 12.23l-27.91 0Z" id="p263w525" />
<path d="M575.04 402.65l19.58 0l0 12.56l-19.58 0Z" id="p263w526" />
<path d="M462.11 418.18l20.03 0l0 12.23l-20.03 0Z" id="p263w527" />
<path d="M484.84 418.12l95.6 0l0 12.29l-95.6 0Z" id="p263w528" />
<path d="M583.15 418.18l17.56 0l0 12.23l-17.56 0Z" id="p263w529" />
<path d="M471.96 433.46l50.64 0l0 12.23l-50.64 0Z" id="p263w530" />
<path d="M525.3 433.22l18.92 0l0 12.56l-18.92 0Z" id="p263w531" />
<path d="M462.11 448.74l14.41 0l0 12.23l-14.41 0Z" id="p263w532" />
<path d="M479.22 448.69l49.85 0l0 12.29l-49.85 0Z" id="p263w533" />
<path d="M531.77 448.74l11.94 0l0 12.23l-11.94 0Z" id="p263w534" />
<path d="M546.41 448.74l20.26 0l0 12.23l-20.26 0Z" id="p263w535" />
<path d="M569.37 448.74l27.38 0l0 12.23l-27.38 0Z" id="p263w536" />
<path d="M599.45 448.5l18.92 0l0 12.56l-18.92 0Z" id="p263w537" />
<path d="M462.11 464.03l15.53 0l0 12.23l-15.53 0Z" id="p263w538" />
<path d="M480.34 463.97l74.78 0l0 12.29l-74.78 0Z" id="p263w539" />
<path d="M557.83 464.03l8.33 0l0 12.23l-8.33 0Z" id="p263w540" />
<path d="M568.85 464.03l44.34 0l0 12.23l-44.34 0Z" id="p263w541" />
<path d="M615.89 464.03l11.7 0l0 12.23l-11.7 0Z" id="p263w542" />
<path d="M630.3 464.03l8.33 0l0 12.23l-8.33 0Z" id="p263w543" />
<path d="M471.96 479.31l52.91 0l0 12.23l-52.91 0Z" id="p263w544" />
<path d="M527.57 479.07l18.92 0l0 12.56l-18.92 0Z" id="p263w545" />
<path d="M462.11 494.59l14.41 0l0 12.23l-14.41 0Z" id="p263w546" />
<path d="M479.22 494.54l21.5 0l0 12.29l-21.5 0Z" id="p263w547" />
<path d="M503.42 494.59l17.56 0l0 12.23l-17.56 0Z" id="p263w548" />
<path d="M523.68 494.59l42.48 0l0 12.23l-42.48 0Z" id="p263w549" />
<path d="M568.86 494.35l18.92 0l0 12.56l-18.92 0Z" id="p263w550" />
<path d="M462.11 509.88l14.41 0l0 12.23l-14.41 0Z" id="p263w551" />
<path d="M479.22 509.82l36.21 0l0 12.29l-36.21 0Z" id="p263w552" />
<path d="M518.13 509.88l11.94 0l0 12.23l-11.94 0Z" id="p263w553" />
<path d="M532.77 509.88l25.88 0l0 12.23l-25.88 0Z" id="p263w554" />
<path d="M561.35 509.63l18.92 0l0 12.56l-18.92 0Z" id="p263w555" />
<path d="M462.11 525.16l20.03 0l0 12.23l-20.03 0Z" id="p263w556" />
<path d="M484.84 525.11l25.42 0l0 12.29l-25.42 0Z" id="p263w557" />
<path d="M512.97 525.16l17.56 0l0 12.23l-17.56 0Z" id="p263w558" />
<path d="M533.23 525.16l18.91 0l0 12.23l-18.91 0Z" id="p263w559" />
<path d="M554.84 524.92l17.26 0l0 12.56l-17.26 0Z" id="p263w560" />
<path d="M462.11 540.44l20.03 0l0 12.23l-20.03 0Z" id="p263w561" />
<path d="M484.84 540.39l127.8 0l0 12.29l-127.8 0Z" id="p263w562" />
<path d="M615.35 540.44l11.94 0l0 12.23l-11.94 0Z" id="p263w563" />
<path d="M471.96 555.73l43.16 0l0 12.23l-43.16 0Z" id="p263w564" />
<path d="M517.82 555.48l18.17 0l0 12.56l-18.17 0Z" id="p263w565" />
<path d="M462.11 571.01l14.41 0l0 12.23l-14.41 0Z" id="p263w566" />
<path d="M479.22 570.96l64.99 0l0 12.29l-64.99 0Z" id="p263w567" />
<path d="M546.91 571.01l11.94 0l0 12.23l-11.94 0Z" id="p263w568" />
<path d="M561.55 571.01l51.92 0l0 12.23l-51.92 0Z" id="p263w569" />
<path d="M471.96 586.05l18.17 0l0 12.56l-18.17 0Z" id="p263w570" />
<path d="M462.11 601.58l14.41 0l0 12.23l-14.41 0Z" id="p263w571" />
<path d="M479.22 601.58l31.3 0l0 12.23l-31.3 0Z" id="p263w572" />
<path d="M510.52 601.52l33.93 0l0 12.29l-33.93 0Z" id="p263w573" />
<path d="M547.16 601.58l17.56 0l0 12.23l-17.56 0Z" id="p263w574" />
<path d="M567.42 601.58l22.29 0l0 12.23l-22.29 0Z" id="p263w575" />
<path d="M592.41 601.33l18.92 0l0 12.56l-18.92 0Z" id="p263w576" />
<path d="M462.11 616.86l14.41 0l0 12.23l-14.41 0Z" id="p263w577" />
<path d="M479.22 616.81l27.55 0l0 12.29l-27.55 0Z" id="p263w578" />
<path d="M509.47 616.86l11.94 0l0 12.23l-11.94 0Z" id="p263w579" />
<path d="M524.11 616.86l26.33 0l0 12.23l-26.33 0Z" id="p263w580" />
<path d="M553.15 616.62l14.63 0l0 12.56l-14.63 0Z" id="p263w581" />
<path d="M462.11 632.09l35.25 0l0 12.29l-35.25 0Z" id="p263w582" />
<path d="M500.06 632.14l21.15 0l0 12.23l-21.15 0Z" id="p263w583" />
<path d="M523.91 632.14l22.72 0l0 12.23l-22.72 0Z" id="p263w584" />
<path d="M549.33 631.9l15.54 0l0 12.56l-15.54 0Z" id="p263w585" />
<path d="M462.11 647.43l14.41 0l0 12.23l-14.41 0Z" id="p263w586" />
<path d="M479.22 647.37l19.32 0l0 12.29l-19.32 0Z" id="p263w587" />
<path d="M501.24 647.43l17.56 0l0 12.23l-17.56 0Z" id="p263w588" />
<path d="M521.5 647.43l18 0l0 12.23l-18 0Z" id="p263w589" />
<path d="M542.2 647.18l15.34 0l0 12.56l-15.34 0Z" id="p263w590" />
<path d="M462.11 662.66l23.96 0l0 12.29l-23.96 0Z" id="p263w591" />
<path d="M488.78 662.71l44.01 0l0 12.23l-44.01 0Z" id="p263w592" />
<path d="M535.48 662.47l18.92 0l0 12.56l-18.92 0Z" id="p263w593" />
<path d="M462.11 677.99l20.03 0l0 12.23l-20.03 0Z" id="p263w594" />
<path d="M484.84 677.94l34.1 0l0 12.29l-34.1 0Z" id="p263w595" />
<path d="M521.65 677.99l17.56 0l0 12.23l-17.56 0Z" id="p263w596" />
<path d="M541.91 677.99l32.63 0l0 12.23l-32.63 0Z" id="p263w597" />
<path d="M577.24 677.75l15.54 0l0 12.56l-15.54 0Z" id="p263w598" />
<path d="M462.11 693.28l20.03 0l0 12.23l-20.03 0Z" id="p263w599" />
<path d="M484.84 693.28l51.1 0l0 12.23l-51.1 0Z" id="p263w600" />
<path d="M538.64 693.22l28.86 0l0 12.29l-28.86 0Z" id="p263w601" />
<path d="M570.2 693.28l11.94 0l0 12.23l-11.94 0Z" id="p263w602" />
<path d="M584.84 693.28l16.87 0l0 12.23l-16.87 0Z" id="p263w603" />
<path d="M604.41 693.03l15.54 0l0 12.56l-15.54 0Z" id="p263w604" />
<path d="M462.11 708.51l28.86 0l0 12.29l-28.86 0Z" id="p263w605" />
<path d="M490.97 708.51l23.84 0l0 12.29l-23.84 0Z" id="p263w606" />
<path d="M517.51 708.56l23.19 0l0 12.23l-23.19 0Z" id="p263w607" />
<path d="M543.4 708.56l16.88 0l0 12.23l-16.88 0Z" id="p263w608" />
<path d="M562.98 708.32l19.58 0l0 12.56l-19.58 0Z" id="p263w609" />
<path d="M462.11 723.84l20.04 0l0 12.23l-20.04 0Z" id="p263w610" />
<path d="M484.85 723.79l32.19 0l0 12.29l-32.19 0Z" id="p263w611" />
<path d="M519.75 723.84l20.47 0l0 12.23l-20.47 0Z" id="p263w612" />
<path d="M551.25 723.84l12.16 0l0 12.23l-12.16 0Z" id="p263w613" />
<path d="M566.11 723.6l15.34 0l0 12.56l-15.34 0Z" id="p263w614" />
<path d="M462.11 739.07l32.19 0l0 12.29l-32.19 0Z" id="p263w615" />
<path d="M497 739.13l18.9 0l0 12.23l-18.9 0Z" id="p263w616" />
<path d="M518.6 739.13l33.32 0l0 12.23l-33.32 0Z" id="p263w617" />
<path d="M554.62 738.88l19.58 0l0 12.56l-19.58 0Z" id="p263w618" />
<path d="M462.11 754.41l20.04 0l0 12.23l-20.04 0Z" id="p263w619" />
<path d="M484.85 754.41l19.44 0l0 12.23l-19.44 0Z" id="p263w620" />
<path d="M507 754.36l35 0l0 12.29l-35 0Z" id="p263w621" />
<path d="M544.7 754.41l23.19 0l0 12.23l-23.19 0Z" id="p263w622" />
<path d="M570.59 754.41l11.04 0l0 12.23l-11.04 0Z" id="p263w623" />
<path d="M592.65 754.41l12.16 0l0 12.23l-12.16 0Z" id="p263w624" />
<path d="M607.51 754.17l15.54 0l0 12.56l-15.54 0Z" id="p263w625" />
<path d="M462.11 769.64l34.8 0l0 12.29l-34.8 0Z" id="p263w626" />
<path d="M499.62 769.7l51.71 0l0 12.23l-51.71 0Z" id="p263w627" />
<path d="M554.02 769.45l18.92 0l0 12.56l-18.92 0Z" id="p263w628" />
<path d="M462.11 784.98l20.03 0l0 12.23l-20.03 0Z" id="p263w629" />
<path d="M484.84 784.92l26.65 0l0 12.29l-26.65 0Z" id="p263w630" />
<path d="M514.2 784.98l11.94 0l0 12.23l-11.94 0Z" id="p263w631" />
<path d="M528.84 784.98l26.11 0l0 12.23l-26.11 0Z" id="p263w632" />
<path d="M557.65 784.73l18.01 0l0 12.56l-18.01 0Z" id="p263w633" />
<path d="M471.96 800.26l11.7 0l0 12.23l-11.7 0Z" id="p263w634" />
<path d="M486.37 800.26l15.54 0l0 12.23l-15.54 0Z" id="p263w635" />
<path d="M504.61 800.26l26.33 0l0 12.23l-26.33 0Z" id="p263w636" />
<path d="M541.96 800.26l8.33 0l0 12.23l-8.33 0Z" id="p263w637" />
<path d="M552.99 800.26l24.99 0l0 12.23l-24.99 0Z" id="p263w638" />
<path d="M580.68 800.26l11.7 0l0 12.23l-11.7 0Z" id="p263w639" />
<path d="M595.08 800.26l12.16 0l0 12.23l-12.16 0Z" id="p263w640" />
<path d="M609.95 800.02l18.92 0l0 12.56l-18.92 0Z" id="p263w641" />
<path d="M462.11 815.55l19.44 0l0 12.23l-19.44 0Z" id="p263w642" />
<path d="M484.25 815.49l31.73 0l0 12.29l-31.73 0Z" id="p263w643" />
<path d="M518.69 815.55l31.95 0l0 12.23l-31.95 0Z" id="p263w644" />
<path d="M553.34 815.55l11.04 0l0 12.23l-11.04 0Z" id="p263w645" />
<path d="M567.07 815.3l15.34 0l0 12.56l-15.34 0Z" id="p263w646" />
<path d="M462.11 830.83l15.31 0l0 12.23l-15.31 0Z" id="p263w647" />
<path d="M480.12 830.83l23.04 0l0 12.23l-23.04 0Z" id="p263w648" />
<path d="M505.86 830.77l36.09 0l0 12.29l-36.09 0Z" id="p263w649" />
<path d="M544.65 830.83l31.29 0l0 12.23l-31.29 0Z" id="p263w650" />
<path d="M578.64 830.83l15.31 0l0 12.23l-15.31 0Z" id="p263w651" />
<path d="M596.65 830.83l14.64 0l0 12.23l-14.64 0Z" id="p263w652" />
<path d="M613.99 830.58l18.72 0l0 12.56l-18.72 0Z" id="p263w653" />
<path d="M462.11 846.06l89.49 0l0 12.29l-89.49 0Z" id="p263w654" />
<path d="M554.3 846.11l74.61 0l0 12.23l-74.61 0Z" id="p263w655" />
<path d="M471.96 861.37l27.91 0l0 12.23l-27.91 0Z" id="p263w656" />
<path d="M502.57 861.15l15.54 0l0 12.56l-15.54 0Z" id="p263w657" />
<path d="M462.11 876.68l14.41 0l0 12.23l-14.41 0Z" id="p263w658" />
<path d="M479.22 876.62l25.39 0l0 12.29l-25.39 0Z" id="p263w659" />
<path d="M507.31 876.68l17.56 0l0 12.23l-17.56 0Z" id="p263w660" />
<path d="M527.57 876.68l26.33 0l0 12.23l-26.33 0Z" id="p263w661" />
<path d="M556.6 876.43l18.72 0l0 12.56l-18.72 0Z" id="p263w662" />
<path d="M462.11 891.96l14.41 0l0 12.23l-14.41 0Z" id="p263w663" />
<path d="M479.22 891.91l15.41 0l0 12.29l-15.41 0Z" id="p263w664" />
<path d="M497.33 891.96l11.94 0l0 12.23l-11.94 0Z" id="p263w665" />
<path d="M511.96 891.96l21.83 0l0 12.23l-21.83 0Z" id="p263w666" />
<path d="M536.5 891.72l15.34 0l0 12.56l-15.34 0Z" id="p263w667" />
<path d="M471.96 907.25l14.19 0l0 12.23l-14.19 0Z" id="p263w668" />
<path d="M488.86 907.25l23.41 0l0 12.23l-23.41 0Z" id="p263w669" />
<path d="M514.97 907.25l35.34 0l0 12.23l-35.34 0Z" id="p263w670" />
<path d="M553 907.25l37.76 0l0 12.23l-37.76 0Z" id="p263w671" />
<path d="M593.46 907.25l17.34 0l0 12.23l-17.34 0Z" id="p263w672" />
<path d="M613.5 907.25l13.14 0l0 12.23l-13.14 0Z" id="p263w673" />
<path d="M471.96 922.53l21.16 0l0 12.23l-21.16 0Z" id="p263w674" />
<path d="M495.83 922.53l21.83 0l0 12.23l-21.83 0Z" id="p263w675" />
<path d="M528.68 922.53l20.04 0l0 12.23l-20.04 0Z" id="p263w676" />
<path d="M551.42 922.28l15.34 0l0 12.56l-15.34 0Z" id="p263w677" />
</svg>
