<?xml version="1.0" encoding="UTF-8"?>
<svg xmlns="http://www.w3.org/2000/svg" xmlns:xlink="http://www.w3.org/1999/xlink" version="1.1" baseProfile="full" width="768" height="1024" viewBox="0,0,768,1024" preserveAspectRatio="xMinYMin meet" >
<style type="text/css">
<![CDATA[
path {fill-opacity: 0.5;fill: #00aeef;visibility: hidden;}
]]>
</style>
<path d="M124.06 38.6l71 0l0 16.09l-71 0Z" id="p192w1" />
<path d="M78.77 983.66l98.1 0l0 12.23l-98.1 0Z" id="p192w2" />
<path d="M124.06 110.01l71.41 0l0 14.6l-71.41 0Z" id="p192w3" />
<path d="M198.77 108.77l53.27 0l0 16.35l-53.27 0Z" id="p192w4" />
<path d="M297.36 110.09l28.34 0l0 14.52l-28.34 0Z" id="p192w5" />
<path d="M338.96 110.09l15.77 0l0 14.52l-15.77 0Z" id="p192w6" />
<path d="M482.46 110.09l23.79 0l0 14.52l-23.79 0Z" id="p192w7" />
<path d="M509.46 110.09l31.8 0l0 14.52l-31.8 0Z" id="p192w8" />
<path d="M544.46 110.09l73.78 0l0 14.52l-73.78 0Z" id="p192w9" />
<path d="M500.69 126.78l42.42 0l0 14.61l-42.42 0Z" id="p192w10" />
<path d="M124.06 144.83l63.58 0l0 14.6l-63.58 0Z" id="p192w11" />
<path d="M190.94 143.59l44.43 0l0 16.35l-44.43 0Z" id="p192w12" />
<path d="M297.35 144.91l25.94 0l0 14.52l-25.94 0Z" id="p192w13" />
<path d="M124.06 165.54l14.31 0l0 14.6l-14.31 0Z" id="p192w14" />
<path d="M141.57 165.54l34.99 0l0 14.6l-34.99 0Z" id="p192w15" />
<path d="M179.86 164.3l47.08 0l0 16.35l-47.08 0Z" id="p192w16" />
<path d="M297.35 165.62l17.11 0l0 14.52l-17.11 0Z" id="p192w17" />
<path d="M317.67 165.62l102.12 0l0 14.52l-102.12 0Z" id="p192w18" />
<path d="M482.46 165.62l10.43 0l0 14.52l-10.43 0Z" id="p192w19" />
<path d="M496.09 165.62l19.07 0l0 14.52l-19.07 0Z" id="p192w20" />
<path d="M518.37 165.62l36.07 0l0 14.52l-36.07 0Z" id="p192w21" />
<path d="M557.66 165.62l29.39 0l0 14.52l-29.39 0Z" id="p192w22" />
<path d="M590.26 165.62l14.18 0l0 14.52l-14.18 0Z" id="p192w23" />
<path d="M607.64 165.62l34.49 0l0 14.52l-34.49 0Z" id="p192w24" />
<path d="M645.34 165.62l13.9 0l0 14.52l-13.9 0Z" id="p192w25" />
<path d="M662.44 165.62l30.75 0l0 14.52l-30.75 0Z" id="p192w26" />
<path d="M124.06 186.25l43.25 0l0 14.6l-43.25 0Z" id="p192w27" />
<path d="M180.42 186.25l12.67 0l0 14.6l-12.67 0Z" id="p192w28" />
<path d="M196.39 185.01l38.83 0l0 16.35l-38.83 0Z" id="p192w29" />
<path d="M297.35 186.33l13.9 0l0 14.52l-13.9 0Z" id="p192w30" />
<path d="M314.46 186.33l23.09 0l0 14.52l-23.09 0Z" id="p192w31" />
<path d="M340.75 186.33l66.51 0l0 14.52l-66.51 0Z" id="p192w32" />
<path d="M297.35 203l23.09 0l0 14.52l-23.09 0Z" id="p192w33" />
<path d="M323.64 203l60.93 0l0 14.52l-60.93 0Z" id="p192w34" />
<path d="M482.46 186.33l53.01 0l0 14.52l-53.01 0Z" id="p192w35" />
<path d="M538.67 186.33l54.55 0l0 14.52l-54.55 0Z" id="p192w36" />
<path d="M596.43 186.33l42.48 0l0 14.52l-42.48 0Z" id="p192w37" />
<path d="M652 186.33l14.18 0l0 14.52l-14.18 0Z" id="p192w38" />
<path d="M482.46 203l41.71 0l0 14.52l-41.71 0Z" id="p192w39" />
<path d="M527.38 203l13.9 0l0 14.52l-13.9 0Z" id="p192w40" />
<path d="M544.48 203l43.32 0l0 14.52l-43.32 0Z" id="p192w41" />
<path d="M124.06 221.07l26.33 0l0 14.6l-26.33 0Z" id="p192w42" />
<path d="M153.69 219.83l23.03 0l0 16.35l-23.03 0Z" id="p192w43" />
<path d="M297.35 221.15l15.47 0l0 14.52l-15.47 0Z" id="p192w44" />
<path d="M316.03 221.15l17.91 0l0 14.52l-17.91 0Z" id="p192w45" />
<path d="M337.15 221.15l29.39 0l0 14.52l-29.39 0Z" id="p192w46" />
<path d="M369.49 221.15l32.87 0l0 14.52l-32.87 0Z" id="p192w47" />
<path d="M482.46 221.15l10.43 0l0 14.52l-10.43 0Z" id="p192w48" />
<path d="M496.09 221.15l47.06 0l0 14.52l-47.06 0Z" id="p192w49" />
<path d="M546.36 221.15l24.31 0l0 14.52l-24.31 0Z" id="p192w50" />
<path d="M583.76 221.15l30.2 0l0 14.52l-30.2 0Z" id="p192w51" />
<path d="M617.17 221.15l9.62 0l0 14.52l-9.62 0Z" id="p192w52" />
<path d="M630 221.15l45.45 0l0 14.52l-45.45 0Z" id="p192w53" />
<path d="M678.65 221.15l25.92 0l0 14.52l-25.92 0Z" id="p192w54" />
<path d="M482.46 237.82l33.94 0l0 14.52l-33.94 0Z" id="p192w55" />
<path d="M519.6 237.82l9.89 0l0 14.52l-9.89 0Z" id="p192w56" />
<path d="M532.7 237.82l40.11 0l0 14.52l-40.11 0Z" id="p192w57" />
<path d="M124.06 255.89l14.31 0l0 14.6l-14.31 0Z" id="p192w58" />
<path d="M141.57 255.89l76.34 0l0 14.6l-76.34 0Z" id="p192w59" />
<path d="M124.06 272.56l20.99 0l0 14.6l-20.99 0Z" id="p192w60" />
<path d="M148.25 272.56l72.97 0l0 14.6l-72.97 0Z" id="p192w61" />
<path d="M124.06 287.99l90.85 0l0 16.35l-90.85 0Z" id="p192w62" />
<path d="M124.06 304.67l85.81 0l0 16.35l-85.81 0Z" id="p192w63" />
<path d="M297.35 255.97l17.11 0l0 14.52l-17.11 0Z" id="p192w64" />
<path d="M317.67 255.97l70.46 0l0 14.52l-70.46 0Z" id="p192w65" />
<path d="M297.35 272.64l23.79 0l0 14.52l-23.79 0Z" id="p192w66" />
<path d="M324.34 272.64l75.94 0l0 14.52l-75.94 0Z" id="p192w67" />
<path d="M482.46 255.97l18.72 0l0 14.52l-18.72 0Z" id="p192w68" />
<path d="M504.38 255.97l24.33 0l0 14.52l-24.33 0Z" id="p192w69" />
<path d="M531.92 255.97l15.5 0l0 14.52l-15.5 0Z" id="p192w70" />
<path d="M550.62 255.97l76.2 0l0 14.52l-76.2 0Z" id="p192w71" />
<path d="M630.03 255.97l13.9 0l0 14.52l-13.9 0Z" id="p192w72" />
<path d="M647.13 255.97l12.57 0l0 14.52l-12.57 0Z" id="p192w73" />
<path d="M482.46 272.64l40.18 0l0 14.52l-40.18 0Z" id="p192w74" />
<path d="M500.69 289.34l52.39 0l0 14.61l-52.39 0Z" id="p192w75" />
<path d="M124.06 324.05l36.18 0l0 14.6l-36.18 0Z" id="p192w76" />
<path d="M163.44 324.05l12.67 0l0 14.6l-12.67 0Z" id="p192w77" />
<path d="M179.42 322.81l31.33 0l0 16.35l-31.33 0Z" id="p192w78" />
<path d="M297.35 324.13l23.09 0l0 14.52l-23.09 0Z" id="p192w79" />
<path d="M323.64 324.13l60.14 0l0 14.52l-60.14 0Z" id="p192w80" />
<path d="M482.46 324.13l18.72 0l0 14.52l-18.72 0Z" id="p192w81" />
<path d="M514.27 324.13l32.35 0l0 14.52l-32.35 0Z" id="p192w82" />
<path d="M549.83 324.13l25.13 0l0 14.52l-25.13 0Z" id="p192w83" />
<path d="M578.17 324.13l18.18 0l0 14.52l-18.18 0Z" id="p192w84" />
<path d="M124.06 344.76l20.99 0l0 14.6l-20.99 0Z" id="p192w85" />
<path d="M148.25 344.76l50.62 0l0 14.6l-50.62 0Z" id="p192w86" />
<path d="M202.17 343.52l51.82 0l0 16.35l-51.82 0Z" id="p192w87" />
<path d="M297.35 344.84l17.11 0l0 14.52l-17.11 0Z" id="p192w88" />
<path d="M317.67 344.84l28.3 0l0 14.52l-28.3 0Z" id="p192w89" />
<path d="M349.17 344.84l17.11 0l0 14.52l-17.11 0Z" id="p192w90" />
<path d="M369.13 344.84l51.61 0l0 14.52l-51.61 0Z" id="p192w91" />
<path d="M124.06 365.47l14.31 0l0 14.6l-14.31 0Z" id="p192w92" />
<path d="M141.57 365.47l42 0l0 14.6l-42 0Z" id="p192w93" />
<path d="M186.87 364.23l46.87 0l0 16.35l-46.87 0Z" id="p192w94" />
<path d="M297.35 365.55l17.11 0l0 14.52l-17.11 0Z" id="p192w95" />
<path d="M317.67 365.55l64.16 0l0 14.52l-64.16 0Z" id="p192w96" />
<path d="M482.46 365.55l23.24 0l0 14.52l-23.24 0Z" id="p192w97" />
<path d="M508.91 365.55l42.49 0l0 14.52l-42.49 0Z" id="p192w98" />
<path d="M554.61 365.55l41.43 0l0 14.52l-41.43 0Z" id="p192w99" />
<path d="M599.25 365.55l42.22 0l0 14.52l-42.22 0Z" id="p192w100" />
<path d="M482.46 382.22l13.9 0l0 14.52l-13.9 0Z" id="p192w101" />
<path d="M499.57 382.22l53.48 0l0 14.52l-53.48 0Z" id="p192w102" />
<path d="M556.26 382.22l49.99 0l0 14.52l-49.99 0Z" id="p192w103" />
<path d="M124.06 400.3l10.02 0l0 14.6l-10.02 0Z" id="p192w104" />
<path d="M137.29 400.3l34.98 0l0 14.6l-34.98 0Z" id="p192w105" />
<path d="M175.57 399.06l55 0l0 16.35l-55 0Z" id="p192w106" />
<path d="M297.36 400.38l48.12 0l0 14.52l-48.12 0Z" id="p192w107" />
<path d="M482.46 400.38l12.83 0l0 14.52l-12.83 0Z" id="p192w108" />
<path d="M498.5 400.38l34.75 0l0 14.52l-34.75 0Z" id="p192w109" />
<path d="M536.46 400.38l16.83 0l0 14.52l-16.83 0Z" id="p192w110" />
<path d="M556.5 400.38l14.18 0l0 14.52l-14.18 0Z" id="p192w111" />
<path d="M573.88 400.38l28.07 0l0 14.52l-28.07 0Z" id="p192w112" />
<path d="M124.06 444.4l30.84 0l0 18.44l-30.84 0Z" id="p192w113" />
<path d="M158.96 444.4l48.62 0l0 18.44l-48.62 0Z" id="p192w114" />
<path d="M124.06 471.56l10.02 0l0 14.6l-10.02 0Z" id="p192w115" />
<path d="M139.19 471.56l10.03 0l0 14.6l-10.03 0Z" id="p192w116" />
<path d="M152.43 471.56l21.75 0l0 14.6l-21.75 0Z" id="p192w117" />
<path d="M187.01 471.6l57.22 0l0 14.52l-57.22 0Z" id="p192w118" />
<path d="M124.06 486.99l48.6 0l0 16.35l-48.6 0Z" id="p192w119" />
<path d="M297.36 471.6l64.95 0l0 14.52l-64.95 0Z" id="p192w120" />
<path d="M365.52 471.6l63.87 0l0 14.52l-63.87 0Z" id="p192w121" />
<path d="M306.98 488.25l39.82 0l0 14.52l-39.82 0Z" id="p192w122" />
<path d="M482.46 471.6l26.19 0l0 14.52l-26.19 0Z" id="p192w123" />
<path d="M511.86 471.6l9.89 0l0 14.52l-9.89 0Z" id="p192w124" />
<path d="M524.95 471.6l21.65 0l0 14.52l-21.65 0Z" id="p192w125" />
<path d="M549.81 471.6l40.1 0l0 14.52l-40.1 0Z" id="p192w126" />
<path d="M593.11 471.6l13.9 0l0 14.52l-13.9 0Z" id="p192w127" />
<path d="M610.22 471.6l9.89 0l0 14.52l-9.89 0Z" id="p192w128" />
<path d="M623.31 471.6l25.13 0l0 14.52l-25.13 0Z" id="p192w129" />
<path d="M124.06 506.37l46.21 0l0 14.6l-46.21 0Z" id="p192w130" />
<path d="M173.57 505.13l43.9 0l0 16.35l-43.9 0Z" id="p192w131" />
<path d="M297.36 506.45l59.08 0l0 14.52l-59.08 0Z" id="p192w132" />
<path d="M482.46 506.45l6.96 0l0 14.52l-6.96 0Z" id="p192w133" />
<path d="M511.61 506.45l19.51 0l0 14.52l-19.51 0Z" id="p192w134" />
<path d="M534.32 506.45l20.05 0l0 14.52l-20.05 0Z" id="p192w135" />
<path d="M557.58 506.45l13.91 0l0 14.52l-13.91 0Z" id="p192w136" />
<path d="M574.7 506.45l52.2 0l0 14.52l-52.2 0Z" id="p192w137" />
<path d="M630.11 506.45l22.44 0l0 14.52l-22.44 0Z" id="p192w138" />
<path d="M655.76 506.45l48.39 0l0 14.52l-48.39 0Z" id="p192w139" />
<path d="M500.19 523.13l45.45 0l0 14.61l-45.45 0Z" id="p192w140" />
<path d="M124.06 541.19l60.73 0l0 14.6l-60.73 0Z" id="p192w141" />
<path d="M188.09 539.95l60.44 0l0 16.35l-60.44 0Z" id="p192w142" />
<path d="M129.97 566.83l60.73 0l0 14.6l-60.73 0Z" id="p192w143" />
<path d="M193.91 566.89l24.59 0l0 14.52l-24.59 0Z" id="p192w144" />
<path d="M221.71 566.89l56.35 0l0 14.52l-56.35 0Z" id="p192w145" />
<path d="M281.26 566.89l19.77 0l0 14.52l-19.77 0Z" id="p192w146" />
<path d="M304.24 566.83l52.8 0l0 14.6l-52.8 0Z" id="p192w147" />
<path d="M363.45 566.89l9.62 0l0 14.52l-9.62 0Z" id="p192w148" />
<path d="M376.28 566.89l52.39 0l0 14.52l-52.39 0Z" id="p192w149" />
<path d="M129.97 583.56l11.5 0l0 14.52l-11.5 0Z" id="p192w150" />
<path d="M144.67 583.56l52.39 0l0 14.52l-52.39 0Z" id="p192w151" />
<path d="M200.27 583.56l50.26 0l0 14.52l-50.26 0Z" id="p192w152" />
<path d="M253.74 583.56l40.89 0l0 14.52l-40.89 0Z" id="p192w153" />
<path d="M308.4 583.56l26.74 0l0 14.52l-26.74 0Z" id="p192w154" />
<path d="M338.35 583.56l44.1 0l0 14.52l-44.1 0Z" id="p192w155" />
<path d="M382.45 583.5l11.48 0l0 14.6l-11.48 0Z" id="p192w156" />
<path d="M393.93 583.56l22.47 0l0 14.52l-22.47 0Z" id="p192w157" />
<path d="M129.97 600.24l25.67 0l0 14.52l-25.67 0Z" id="p192w158" />
<path d="M158.85 600.24l44.1 0l0 14.52l-44.1 0Z" id="p192w159" />
<path d="M202.95 600.17l11.48 0l0 14.6l-11.48 0Z" id="p192w160" />
<path d="M214.43 600.24l15.25 0l0 14.52l-15.25 0Z" id="p192w161" />
<path d="M232.88 600.24l42.36 0l0 14.52l-42.36 0Z" id="p192w162" />
<path d="M278.45 600.24l44.1 0l0 14.52l-44.1 0Z" id="p192w163" />
<path d="M322.55 600.17l11.48 0l0 14.6l-11.48 0Z" id="p192w164" />
<path d="M334.03 600.24l18.44 0l0 14.52l-18.44 0Z" id="p192w165" />
<path d="M129.97 616.84l30.74 0l0 14.68l-30.74 0Z" id="p192w166" />
<path d="M163.92 616.84l47.06 0l0 14.68l-47.06 0Z" id="p192w167" />
<path d="M220.6 616.91l5.35 0l0 14.52l-5.35 0Z" id="p192w168" />
<path d="M225.94 616.84l10.03 0l0 14.6l-10.03 0Z" id="p192w169" />
<path d="M239.18 616.84l41.88 0l0 14.6l-41.88 0Z" id="p192w170" />
<path d="M297.35 541.26l77.52 0l0 14.52l-77.52 0Z" id="p192w171" />
<path d="M482.46 541.26l10.43 0l0 14.52l-10.43 0Z" id="p192w172" />
<path d="M496.09 541.26l13.9 0l0 14.52l-13.9 0Z" id="p192w173" />
<path d="M513.2 541.26l35.56 0l0 14.52l-35.56 0Z" id="p192w174" />
<path d="M551.96 541.26l22.99 0l0 14.52l-22.99 0Z" id="p192w175" />
<path d="M578.17 541.26l25.13 0l0 14.52l-25.13 0Z" id="p192w176" />
<path d="M606.5 541.26l49.72 0l0 14.52l-49.72 0Z" id="p192w177" />
<path d="M659.43 541.26l6.41 0l0 14.52l-6.41 0Z" id="p192w178" />
<path d="M482.46 557.93l41.43 0l0 14.52l-41.43 0Z" id="p192w179" />
<path d="M500.19 574.62l11.5 0l0 14.61l-11.5 0Z" id="p192w180" />
<path d="M514.89 574.62l54.92 0l0 14.61l-54.92 0Z" id="p192w181" />
<path d="M124.06 644.16l10.03 0l0 14.6l-10.03 0Z" id="p192w182" />
<path d="M137.3 644.16l51.75 0l0 14.6l-51.75 0Z" id="p192w183" />
<path d="M192.35 642.92l60.4 0l0 16.35l-60.4 0Z" id="p192w184" />
<path d="M297.35 644.24l18.44 0l0 14.52l-18.44 0Z" id="p192w185" />
<path d="M319 644.24l71.12 0l0 14.52l-71.12 0Z" id="p192w186" />
<path d="M482.46 644.24l14.18 0l0 14.52l-14.18 0Z" id="p192w187" />
<path d="M499.84 644.24l39.57 0l0 14.52l-39.57 0Z" id="p192w188" />
<path d="M542.62 644.24l16.31 0l0 14.52l-16.31 0Z" id="p192w189" />
<path d="M562.15 644.24l17.11 0l0 14.52l-17.11 0Z" id="p192w190" />
<path d="M582.46 644.24l30.95 0l0 14.52l-30.95 0Z" id="p192w191" />
<path d="M616.62 644.24l24.85 0l0 14.52l-24.85 0Z" id="p192w192" />
<path d="M482.46 660.91l9.89 0l0 14.52l-9.89 0Z" id="p192w193" />
<path d="M495.56 660.91l54.28 0l0 14.52l-54.28 0Z" id="p192w194" />
<path d="M124.06 678.98l94.72 0l0 14.6l-94.72 0Z" id="p192w195" />
<path d="M124.06 694.41l88.41 0l0 16.35l-88.41 0Z" id="p192w196" />
<path d="M297.35 679.06l92.47 0l0 14.52l-92.47 0Z" id="p192w197" />
<path d="M393.04 679.06l33.13 0l0 14.52l-33.13 0Z" id="p192w198" />
<path d="M482.46 679.06l26.19 0l0 14.52l-26.19 0Z" id="p192w199" />
<path d="M511.86 679.06l14.18 0l0 14.52l-14.18 0Z" id="p192w200" />
<path d="M529.24 679.06l29.39 0l0 14.52l-29.39 0Z" id="p192w201" />
<path d="M561.84 679.06l13.9 0l0 14.52l-13.9 0Z" id="p192w202" />
<path d="M578.95 679.06l27.52 0l0 14.52l-27.52 0Z" id="p192w203" />
<path d="M609.68 679.06l54.28 0l0 14.52l-54.28 0Z" id="p192w204" />
<path d="M124.06 713.79l63.75 0l0 14.6l-63.75 0Z" id="p192w205" />
<path d="M191.11 712.54l63.8 0l0 16.35l-63.8 0Z" id="p192w206" />
<path d="M129.97 739.42l63.75 0l0 14.6l-63.75 0Z" id="p192w207" />
<path d="M196.93 739.49l24.59 0l0 14.52l-24.59 0Z" id="p192w208" />
<path d="M224.73 739.49l56.35 0l0 14.52l-56.35 0Z" id="p192w209" />
<path d="M284.28 739.49l19.77 0l0 14.52l-19.77 0Z" id="p192w210" />
<path d="M307.26 739.42l43.2 0l0 14.6l-43.2 0Z" id="p192w211" />
<path d="M356.88 739.49l9.62 0l0 14.52l-9.62 0Z" id="p192w212" />
<path d="M369.71 739.49l61.94 0l0 14.52l-61.94 0Z" id="p192w213" />
<path d="M129.97 756.16l26.74 0l0 14.52l-26.74 0Z" id="p192w214" />
<path d="M159.92 756.16l52.59 0l0 14.52l-52.59 0Z" id="p192w215" />
<path d="M219.18 756.16l22.69 0l0 14.52l-22.69 0Z" id="p192w216" />
<path d="M245.08 756.09l31.41 0l0 14.61l-31.41 0Z" id="p192w217" />
<path d="M279.7 756.09l48.4 0l0 14.61l-48.4 0Z" id="p192w218" />
<path d="M338.18 756.16l14.8 0l0 14.52l-14.8 0Z" id="p192w219" />
<path d="M356.18 756.16l59.26 0l0 14.52l-59.26 0Z" id="p192w220" />
<path d="M297.35 713.86l54.8 0l0 14.52l-54.8 0Z" id="p192w221" />
<path d="M482.46 713.86l28.07 0l0 14.52l-28.07 0Z" id="p192w222" />
<path d="M513.74 713.86l32.62 0l0 14.52l-32.62 0Z" id="p192w223" />
<path d="M549.56 713.86l59.26 0l0 14.52l-59.26 0Z" id="p192w224" />
<path d="M612.03 713.86l13.9 0l0 14.52l-13.9 0Z" id="p192w225" />
<path d="M629.14 713.86l26.99 0l0 14.52l-26.99 0Z" id="p192w226" />
<path d="M669.23 713.86l28.27 0l0 14.52l-28.27 0Z" id="p192w227" />
<path d="M124.06 783.4l10.03 0l0 14.6l-10.03 0Z" id="p192w228" />
<path d="M137.29 783.4l57.93 0l0 14.6l-57.93 0Z" id="p192w229" />
<path d="M198.53 782.16l52.81 0l0 16.35l-52.81 0Z" id="p192w230" />
<path d="M297.35 783.48l19.51 0l0 14.52l-19.51 0Z" id="p192w231" />
<path d="M320.07 783.48l27.27 0l0 14.52l-27.27 0Z" id="p192w232" />
<path d="M482.46 783.48l41.7 0l0 14.52l-41.7 0Z" id="p192w233" />
<path d="M537.25 783.48l9.89 0l0 14.52l-9.89 0Z" id="p192w234" />
<path d="M550.34 783.48l61.15 0l0 14.52l-61.15 0Z" id="p192w235" />
<path d="M497.84 800.17l9.82 0l0 14.61l-9.82 0Z" id="p192w236" />
<path d="M510.87 800.17l22.19 0l0 14.61l-22.19 0Z" id="p192w237" />
<path d="M124.06 818.23l14.31 0l0 14.6l-14.31 0Z" id="p192w238" />
<path d="M141.58 818.23l60.95 0l0 14.6l-60.95 0Z" id="p192w239" />
<path d="M205.83 816.99l54.9 0l0 16.35l-54.9 0Z" id="p192w240" />
<path d="M297.36 818.31l17.11 0l0 14.52l-17.11 0Z" id="p192w241" />
<path d="M317.67 818.31l51.58 0l0 14.52l-51.58 0Z" id="p192w242" />
<path d="M482.46 818.31l15.6 0l0 14.52l-15.6 0Z" id="p192w243" />
<path d="M501.27 818.31l18.7 0l0 14.52l-18.7 0Z" id="p192w244" />
<path d="M523.18 818.31l14.18 0l0 14.52l-14.18 0Z" id="p192w245" />
<path d="M540.57 818.31l61.48 0l0 14.52l-61.48 0Z" id="p192w246" />
<path d="M605.26 818.31l43.57 0l0 14.52l-43.57 0Z" id="p192w247" />
<path d="M652.04 818.31l28.33 0l0 14.52l-28.33 0Z" id="p192w248" />
<path d="M683.57 818.31l24.6 0l0 14.52l-24.6 0Z" id="p192w249" />
<path d="M124.06 838.94l14.31 0l0 14.6l-14.31 0Z" id="p192w250" />
<path d="M143.48 838.94l20.99 0l0 14.6l-20.99 0Z" id="p192w251" />
<path d="M167.67 838.94l45.84 0l0 14.6l-45.84 0Z" id="p192w252" />
<path d="M216.81 837.7l62.18 0l0 16.35l-62.18 0Z" id="p192w253" />
<path d="M297.36 839.02l17.11 0l0 14.52l-17.11 0Z" id="p192w254" />
<path d="M317.67 839.02l68.02 0l0 14.52l-68.02 0Z" id="p192w255" />
<path d="M388.89 839.02l49.71 0l0 14.52l-49.71 0Z" id="p192w256" />
<path d="M482.46 839.02l28.07 0l0 14.52l-28.07 0Z" id="p192w257" />
<path d="M513.75 839.02l57.22 0l0 14.52l-57.22 0Z" id="p192w258" />
<path d="M574.17 839.02l14.18 0l0 14.52l-14.18 0Z" id="p192w259" />
<path d="M591.56 839.02l45.15 0l0 14.52l-45.15 0Z" id="p192w260" />
<path d="M639.92 839.02l25.67 0l0 14.52l-25.67 0Z" id="p192w261" />
<path d="M668.8 839.02l29.94 0l0 14.52l-29.94 0Z" id="p192w262" />
<path d="M482.46 855.69l41.92 0l0 14.52l-41.92 0Z" id="p192w263" />
</svg>
