<?xml version="1.0" encoding="UTF-8"?>
<svg xmlns="http://www.w3.org/2000/svg" xmlns:xlink="http://www.w3.org/1999/xlink" version="1.1" baseProfile="full" width="768" height="1024" viewBox="0,0,768,1024" preserveAspectRatio="xMinYMin meet" >
<style type="text/css">
<![CDATA[
path {fill-opacity: 0.5;fill: #00aeef;visibility: hidden;}
]]>
</style>
<path d="M572.94 38.6l71 0l0 16.09l-71 0Z" id="p197w1" />
<path d="M573.57 983.66l115.66 0l0 12.23l-115.66 0Z" id="p197w2" />
<path d="M59.08 110.01l26.54 0l0 14.6l-26.54 0Z" id="p197w3" />
<path d="M88.92 108.77l30.78 0l0 16.35l-30.78 0Z" id="p197w4" />
<path d="M64.98 135.65l26.54 0l0 14.6l-26.54 0Z" id="p197w5" />
<path d="M101.15 135.72l9.62 0l0 14.52l-9.62 0Z" id="p197w6" />
<path d="M113.98 135.72l9.36 0l0 14.52l-9.36 0Z" id="p197w7" />
<path d="M134.97 135.72l11.5 0l0 14.52l-11.5 0Z" id="p197w8" />
<path d="M149.67 135.72l9.36 0l0 14.52l-9.36 0Z" id="p197w9" />
<path d="M170.66 135.72l50.26 0l0 14.52l-50.26 0Z" id="p197w10" />
<path d="M224.13 135.72l9.36 0l0 14.52l-9.36 0Z" id="p197w11" />
<path d="M244.06 135.72l26.74 0l0 14.52l-26.74 0Z" id="p197w12" />
<path d="M274.01 135.72l37.97 0l0 14.52l-37.97 0Z" id="p197w13" />
<path d="M315.19 135.72l25.67 0l0 14.52l-25.67 0Z" id="p197w14" />
<path d="M344.07 135.72l30.75 0l0 14.52l-30.75 0Z" id="p197w15" />
<path d="M64.98 152.39l42.36 0l0 14.52l-42.36 0Z" id="p197w16" />
<path d="M110.55 152.39l33.95 0l0 14.52l-33.95 0Z" id="p197w17" />
<path d="M153.82 152.32l30.74 0l0 14.68l-30.74 0Z" id="p197w18" />
<path d="M187.76 152.32l47.06 0l0 14.68l-47.06 0Z" id="p197w19" />
<path d="M244.67 152.39l14.8 0l0 14.52l-14.8 0Z" id="p197w20" />
<path d="M262.67 152.32l25.24 0l0 14.6l-25.24 0Z" id="p197w21" />
<path d="M232.37 110.09l31.01 0l0 14.52l-31.01 0Z" id="p197w22" />
<path d="M417.47 110.09l12.83 0l0 14.52l-12.83 0Z" id="p197w23" />
<path d="M433.51 110.09l38.21 0l0 14.52l-38.21 0Z" id="p197w24" />
<path d="M474.93 110.09l33.95 0l0 14.52l-33.95 0Z" id="p197w25" />
<path d="M512.08 110.09l13.9 0l0 14.52l-13.9 0Z" id="p197w26" />
<path d="M539.08 110.09l53.44 0l0 14.52l-53.44 0Z" id="p197w27" />
<path d="M59.07 183.04l14.31 0l0 14.6l-14.31 0Z" id="p197w28" />
<path d="M76.59 183.04l42.45 0l0 14.6l-42.45 0Z" id="p197w29" />
<path d="M119.04 183.04l20.99 0l0 14.6l-20.99 0Z" id="p197w30" />
<path d="M143.23 183.04l43.93 0l0 14.6l-43.93 0Z" id="p197w31" />
<path d="M59.07 198.47l106.46 0l0 16.35l-106.46 0Z" id="p197w32" />
<path d="M232.37 183.12l17.11 0l0 14.52l-17.11 0Z" id="p197w33" />
<path d="M252.68 183.12l120.4 0l0 14.52l-120.4 0Z" id="p197w34" />
<path d="M232.37 199.79l23.79 0l0 14.52l-23.79 0Z" id="p197w35" />
<path d="M259.36 199.79l125.88 0l0 14.52l-125.88 0Z" id="p197w36" />
<path d="M417.47 183.12l10.43 0l0 14.52l-10.43 0Z" id="p197w37" />
<path d="M431.11 183.12l40.61 0l0 14.52l-40.61 0Z" id="p197w38" />
<path d="M474.93 183.12l42.22 0l0 14.52l-42.22 0Z" id="p197w39" />
<path d="M520.36 183.12l23.24 0l0 14.52l-23.24 0Z" id="p197w40" />
<path d="M546.81 183.12l47.24 0l0 14.52l-47.24 0Z" id="p197w41" />
<path d="M597.26 183.12l25.67 0l0 14.52l-25.67 0Z" id="p197w42" />
<path d="M417.47 199.79l43.86 0l0 14.52l-43.86 0Z" id="p197w43" />
<path d="M59.07 217.86l22.58 0l0 14.6l-22.58 0Z" id="p197w44" />
<path d="M84.86 217.86l13.78 0l0 14.6l-13.78 0Z" id="p197w45" />
<path d="M101.85 217.86l42.74 0l0 14.6l-42.74 0Z" id="p197w46" />
<path d="M147.8 217.86l13.87 0l0 14.6l-13.87 0Z" id="p197w47" />
<path d="M164.88 217.86l12.67 0l0 14.6l-12.67 0Z" id="p197w48" />
<path d="M59.07 233.29l59.26 0l0 16.35l-59.26 0Z" id="p197w49" />
<path d="M232.37 217.94l25.4 0l0 14.52l-25.4 0Z" id="p197w50" />
<path d="M260.97 217.94l23.09 0l0 14.52l-23.09 0Z" id="p197w51" />
<path d="M287.26 217.94l50.53 0l0 14.52l-50.53 0Z" id="p197w52" />
<path d="M341 217.94l38.21 0l0 14.52l-38.21 0Z" id="p197w53" />
<path d="M417.47 217.94l12.41 0l0 14.52l-12.41 0Z" id="p197w54" />
<path d="M433.09 217.94l12.29 0l0 14.52l-12.29 0Z" id="p197w55" />
<path d="M448.58 217.94l13.63 0l0 14.52l-13.63 0Z" id="p197w56" />
<path d="M465.43 217.94l42.51 0l0 14.52l-42.51 0Z" id="p197w57" />
<path d="M511.15 217.94l13.9 0l0 14.52l-13.9 0Z" id="p197w58" />
<path d="M528.25 217.94l9.89 0l0 14.52l-9.89 0Z" id="p197w59" />
<path d="M541.35 217.94l22.17 0l0 14.52l-22.17 0Z" id="p197w60" />
<path d="M566.73 217.94l25.67 0l0 14.52l-25.67 0Z" id="p197w61" />
<path d="M595.61 217.94l39.82 0l0 14.52l-39.82 0Z" id="p197w62" />
<path d="M59.07 252.67l14.31 0l0 14.6l-14.31 0Z" id="p197w63" />
<path d="M76.59 252.67l52.69 0l0 14.6l-52.69 0Z" id="p197w64" />
<path d="M59.07 269.34l20.99 0l0 14.6l-20.99 0Z" id="p197w65" />
<path d="M83.27 269.34l39.74 0l0 14.6l-39.74 0Z" id="p197w66" />
<path d="M126.22 269.34l47.58 0l0 14.6l-47.58 0Z" id="p197w67" />
<path d="M59.07 284.77l121.88 0l0 16.35l-121.88 0Z" id="p197w68" />
<path d="M232.37 252.75l17.11 0l0 14.52l-17.11 0Z" id="p197w69" />
<path d="M252.68 252.75l51.19 0l0 14.52l-51.19 0Z" id="p197w70" />
<path d="M307.07 252.75l32.88 0l0 14.52l-32.88 0Z" id="p197w71" />
<path d="M417.47 252.75l36.63 0l0 14.52l-36.63 0Z" id="p197w72" />
<path d="M457.31 252.75l14.18 0l0 14.52l-14.18 0Z" id="p197w73" />
<path d="M474.69 252.75l16.83 0l0 14.52l-16.83 0Z" id="p197w74" />
<path d="M494.73 252.75l44.1 0l0 14.52l-44.1 0Z" id="p197w75" />
<path d="M542.03 252.75l14.18 0l0 14.52l-14.18 0Z" id="p197w76" />
<path d="M559.42 252.75l12.66 0l0 14.52l-12.66 0Z" id="p197w77" />
<path d="M575.28 252.75l25.67 0l0 14.52l-25.67 0Z" id="p197w78" />
<path d="M417.47 269.42l9.89 0l0 14.52l-9.89 0Z" id="p197w79" />
<path d="M430.57 269.42l50.53 0l0 14.52l-50.53 0Z" id="p197w80" />
<path d="M59.07 304.14l14.31 0l0 14.6l-14.31 0Z" id="p197w81" />
<path d="M76.59 304.14l44.52 0l0 14.6l-44.52 0Z" id="p197w82" />
<path d="M121.11 304.14l19.61 0l0 14.6l-19.61 0Z" id="p197w83" />
<path d="M143.93 304.14l49.41 0l0 14.6l-49.41 0Z" id="p197w84" />
<path d="M59.07 319.57l103.21 0l0 16.35l-103.21 0Z" id="p197w85" />
<path d="M232.37 304.22l17.11 0l0 14.52l-17.11 0Z" id="p197w86" />
<path d="M252.68 304.22l76.86 0l0 14.52l-76.86 0Z" id="p197w87" />
<path d="M232.37 320.89l83.13 0l0 14.52l-83.13 0Z" id="p197w88" />
<path d="M417.47 304.22l49.17 0l0 14.52l-49.17 0Z" id="p197w89" />
<path d="M469.85 304.22l25.67 0l0 14.52l-25.67 0Z" id="p197w90" />
<path d="M498.73 304.22l16.83 0l0 14.52l-16.83 0Z" id="p197w91" />
<path d="M518.76 304.22l47.85 0l0 14.52l-47.85 0Z" id="p197w92" />
<path d="M579.71 304.22l47.32 0l0 14.52l-47.32 0Z" id="p197w93" />
<path d="M435.2 320.91l44.57 0l0 14.61l-44.57 0Z" id="p197w94" />
<path d="M59.08 338.96l14.31 0l0 14.6l-14.31 0Z" id="p197w95" />
<path d="M76.59 338.96l41.49 0l0 14.6l-41.49 0Z" id="p197w96" />
<path d="M121.38 337.72l51.03 0l0 16.35l-51.03 0Z" id="p197w97" />
<path d="M232.37 339.04l17.11 0l0 14.52l-17.11 0Z" id="p197w98" />
<path d="M252.68 339.04l47.31 0l0 14.52l-47.31 0Z" id="p197w99" />
<path d="M443.85 343.36l32.21 0l0 14.61l-32.21 0Z" id="p197w100" />
<path d="M509.15 343.36l32.21 0l0 14.61l-32.21 0Z" id="p197w101" />
<path d="M541.35 343.28l10.02 0l0 14.6l-10.02 0Z" id="p197w102" />
<path d="M435.2 360.03l47.7 0l0 14.61l-47.7 0Z" id="p197w103" />
<path d="M59.08 378.09l20.99 0l0 14.6l-20.99 0Z" id="p197w104" />
<path d="M83.27 378.09l61.73 0l0 14.6l-61.73 0Z" id="p197w105" />
<path d="M148.3 376.85l61.68 0l0 16.35l-61.68 0Z" id="p197w106" />
<path d="M232.37 378.17l17.11 0l0 14.52l-17.11 0Z" id="p197w107" />
<path d="M252.68 378.17l48.14 0l0 14.52l-48.14 0Z" id="p197w108" />
<path d="M417.48 378.17l30.74 0l0 14.52l-30.74 0Z" id="p197w109" />
<path d="M451.43 378.17l39.56 0l0 14.52l-39.56 0Z" id="p197w110" />
<path d="M494.19 378.17l24.33 0l0 14.52l-24.33 0Z" id="p197w111" />
<path d="M521.72 378.17l16.83 0l0 14.52l-16.83 0Z" id="p197w112" />
<path d="M541.76 378.17l66.81 0l0 14.52l-66.81 0Z" id="p197w113" />
<path d="M611.78 378.17l30.73 0l0 14.52l-30.73 0Z" id="p197w114" />
<path d="M417.48 394.84l18.72 0l0 14.52l-18.72 0Z" id="p197w115" />
<path d="M439.4 394.84l43.82 0l0 14.52l-43.82 0Z" id="p197w116" />
<path d="M486.43 394.84l21.4 0l0 14.52l-21.4 0Z" id="p197w117" />
<path d="M520.92 394.84l50.76 0l0 14.52l-50.76 0Z" id="p197w118" />
<path d="M435.2 411.52l61.21 0l0 14.61l-61.21 0Z" id="p197w119" />
<path d="M59.08 429.58l14.31 0l0 14.6l-14.31 0Z" id="p197w120" />
<path d="M76.59 429.58l41.97 0l0 14.6l-41.97 0Z" id="p197w121" />
<path d="M121.86 428.34l46.69 0l0 16.35l-46.69 0Z" id="p197w122" />
<path d="M232.37 429.66l24.55 0l0 14.52l-24.55 0Z" id="p197w123" />
<path d="M260.13 429.68l17.11 0l0 14.52l-17.11 0Z" id="p197w124" />
<path d="M280.44 429.68l40.1 0l0 14.52l-40.1 0Z" id="p197w125" />
<path d="M428.43 429.66l9.89 0l0 14.52l-9.89 0Z" id="p197w126" />
<path d="M441.53 429.66l7.48 0l0 14.52l-7.48 0Z" id="p197w127" />
<path d="M459.44 429.66l13.9 0l0 14.52l-13.9 0Z" id="p197w128" />
<path d="M476.54 429.66l55.28 0l0 14.52l-55.28 0Z" id="p197w129" />
<path d="M535.03 429.66l15.5 0l0 14.52l-15.5 0Z" id="p197w130" />
<path d="M553.73 429.66l66.55 0l0 14.52l-66.55 0Z" id="p197w131" />
<path d="M417.48 446.33l41.97 0l0 14.52l-41.97 0Z" id="p197w132" />
<path d="M462.66 446.33l31.53 0l0 14.52l-31.53 0Z" id="p197w133" />
<path d="M497.4 446.33l14.18 0l0 14.52l-14.18 0Z" id="p197w134" />
<path d="M514.78 446.33l44.11 0l0 14.52l-44.11 0Z" id="p197w135" />
<path d="M59.08 464.4l42.4 0l0 14.6l-42.4 0Z" id="p197w136" />
<path d="M104.77 463.16l55.08 0l0 16.35l-55.08 0Z" id="p197w137" />
<path d="M232.37 464.48l46.77 0l0 14.52l-46.77 0Z" id="p197w138" />
<path d="M282.34 464.48l61.57 0l0 14.52l-61.57 0Z" id="p197w139" />
<path d="M232.37 481.15l60.33 0l0 14.52l-60.33 0Z" id="p197w140" />
<path d="M417.48 464.48l12.41 0l0 14.52l-12.41 0Z" id="p197w141" />
<path d="M433.09 464.48l35.27 0l0 14.52l-35.27 0Z" id="p197w142" />
<path d="M471.57 464.48l35.29 0l0 14.52l-35.29 0Z" id="p197w143" />
<path d="M435.7 481.16l32.55 0l0 14.61l-32.55 0Z" id="p197w144" />
<path d="M471.29 481.16l14.16 0l0 14.61l-14.16 0Z" id="p197w145" />
<path d="M488.66 481.16l36.98 0l0 14.61l-36.98 0Z" id="p197w146" />
<path d="M59.07 499.22l32.13 0l0 14.6l-32.13 0Z" id="p197w147" />
<path d="M94.41 499.22l32.19 0l0 14.6l-32.19 0Z" id="p197w148" />
<path d="M129.9 497.98l48.82 0l0 16.35l-48.82 0Z" id="p197w149" />
<path d="M232.37 499.3l48.1 0l0 14.52l-48.1 0Z" id="p197w150" />
<path d="M283.67 499.3l71.62 0l0 14.52l-71.62 0Z" id="p197w151" />
<path d="M417.47 499.3l36.63 0l0 14.52l-36.63 0Z" id="p197w152" />
<path d="M457.31 499.3l33.05 0l0 14.52l-33.05 0Z" id="p197w153" />
<path d="M493.57 499.3l20.85 0l0 14.52l-20.85 0Z" id="p197w154" />
<path d="M517.63 499.3l25.67 0l0 14.52l-25.67 0Z" id="p197w155" />
<path d="M546.51 499.3l25.67 0l0 14.52l-25.67 0Z" id="p197w156" />
<path d="M575.39 499.3l45.7 0l0 14.52l-45.7 0Z" id="p197w157" />
<path d="M435.7 515.98l20.59 0l0 14.61l-20.59 0Z" id="p197w158" />
<path d="M59.07 534.04l27.86 0l0 14.6l-27.86 0Z" id="p197w159" />
<path d="M90.14 534.04l47.93 0l0 14.6l-47.93 0Z" id="p197w160" />
<path d="M141.28 534.04l14.41 0l0 14.6l-14.41 0Z" id="p197w161" />
<path d="M59.07 549.47l65.15 0l0 16.35l-65.15 0Z" id="p197w162" />
<path d="M232.37 534.11l20.06 0l0 14.52l-20.06 0Z" id="p197w163" />
<path d="M255.64 534.11l45.18 0l0 14.52l-45.18 0Z" id="p197w164" />
<path d="M304.03 534.11l57.47 0l0 14.52l-57.47 0Z" id="p197w165" />
<path d="M417.47 534.11l21.13 0l0 14.52l-21.13 0Z" id="p197w166" />
<path d="M441.81 534.11l25.12 0l0 14.52l-25.12 0Z" id="p197w167" />
<path d="M470.14 534.11l16.83 0l0 14.52l-16.83 0Z" id="p197w168" />
<path d="M490.18 534.11l27.01 0l0 14.52l-27.01 0Z" id="p197w169" />
<path d="M520.39 534.11l9.89 0l0 14.52l-9.89 0Z" id="p197w170" />
<path d="M533.48 534.11l50.01 0l0 14.52l-50.01 0Z" id="p197w171" />
<path d="M59.07 568.84l53.56 0l0 14.6l-53.56 0Z" id="p197w172" />
<path d="M115.84 568.84l14.41 0l0 14.6l-14.41 0Z" id="p197w173" />
<path d="M133.46 568.84l44.84 0l0 14.6l-44.84 0Z" id="p197w174" />
<path d="M181.51 568.84l12.67 0l0 14.6l-12.67 0Z" id="p197w175" />
<path d="M59.07 584.27l58.71 0l0 16.35l-58.71 0Z" id="p197w176" />
<path d="M232.37 568.92l23.8 0l0 14.52l-23.8 0Z" id="p197w177" />
<path d="M259.37 568.92l15.77 0l0 14.52l-15.77 0Z" id="p197w178" />
<path d="M278.35 568.92l23.09 0l0 14.52l-23.09 0Z" id="p197w179" />
<path d="M304.65 568.92l44.07 0l0 14.52l-44.07 0Z" id="p197w180" />
<path d="M351.93 568.92l21.92 0l0 14.52l-21.92 0Z" id="p197w181" />
<path d="M232.37 585.59l17.11 0l0 14.52l-17.11 0Z" id="p197w182" />
<path d="M252.68 585.59l23.8 0l0 14.52l-23.8 0Z" id="p197w183" />
<path d="M279.69 585.59l15.77 0l0 14.52l-15.77 0Z" id="p197w184" />
<path d="M298.67 585.59l23.09 0l0 14.52l-23.09 0Z" id="p197w185" />
<path d="M324.96 585.59l55.07 0l0 14.52l-55.07 0Z" id="p197w186" />
<path d="M417.47 568.92l33.41 0l0 14.52l-33.41 0Z" id="p197w187" />
<path d="M454.09 568.92l49.17 0l0 14.52l-49.17 0Z" id="p197w188" />
<path d="M506.46 568.92l9.89 0l0 14.52l-9.89 0Z" id="p197w189" />
<path d="M519.56 568.92l38.21 0l0 14.52l-38.21 0Z" id="p197w190" />
<path d="M560.98 568.92l33.95 0l0 14.52l-33.95 0Z" id="p197w191" />
<path d="M598.13 568.92l25.67 0l0 14.52l-25.67 0Z" id="p197w192" />
<path d="M417.47 585.59l15.5 0l0 14.52l-15.5 0Z" id="p197w193" />
<path d="M436.18 585.59l24.59 0l0 14.52l-24.59 0Z" id="p197w194" />
<path d="M463.98 585.59l26.73 0l0 14.52l-26.73 0Z" id="p197w195" />
<path d="M493.91 585.59l22.99 0l0 14.52l-22.99 0Z" id="p197w196" />
<path d="M530 585.59l37.41 0l0 14.52l-37.41 0Z" id="p197w197" />
<path d="M570.61 585.59l25.67 0l0 14.52l-25.67 0Z" id="p197w198" />
<path d="M599.49 585.59l22.2 0l0 14.52l-22.2 0Z" id="p197w199" />
<path d="M435.2 602.2l24.63 0l0 14.6l-24.63 0Z" id="p197w200" />
<path d="M463.04 602.28l36.56 0l0 14.61l-36.56 0Z" id="p197w201" />
<path d="M502.81 602.28l41.35 0l0 14.61l-41.35 0Z" id="p197w202" />
<path d="M568.3 602.28l53.43 0l0 14.61l-53.43 0Z" id="p197w203" />
<path d="M624.94 602.2l14.41 0l0 14.6l-14.41 0Z" id="p197w204" />
<path d="M417.47 618.95l61.38 0l0 14.61l-61.38 0Z" id="p197w205" />
<path d="M435.7 635.62l30.99 0l0 14.61l-30.99 0Z" id="p197w206" />
<path d="M59.07 653.68l12.42 0l0 14.6l-12.42 0Z" id="p197w207" />
<path d="M74.67 653.68l48.15 0l0 14.6l-48.15 0Z" id="p197w208" />
<path d="M135.87 653.68l12.67 0l0 14.6l-12.67 0Z" id="p197w209" />
<path d="M151.81 652.44l64.81 0l0 16.35l-64.81 0Z" id="p197w210" />
<path d="M232.37 653.76l21.92 0l0 14.52l-21.92 0Z" id="p197w211" />
<path d="M257.5 653.76l17.91 0l0 14.52l-17.91 0Z" id="p197w212" />
<path d="M278.62 653.76l23.09 0l0 14.52l-23.09 0Z" id="p197w213" />
<path d="M304.91 653.76l64.41 0l0 14.52l-64.41 0Z" id="p197w214" />
<path d="M417.47 653.76l10.43 0l0 14.52l-10.43 0Z" id="p197w215" />
<path d="M431.11 653.76l17.63 0l0 14.52l-17.63 0Z" id="p197w216" />
<path d="M451.95 653.76l43.56 0l0 14.52l-43.56 0Z" id="p197w217" />
<path d="M508.6 653.76l25.13 0l0 14.52l-25.13 0Z" id="p197w218" />
<path d="M536.94 653.76l47.52 0l0 14.52l-47.52 0Z" id="p197w219" />
<path d="M417.47 670.43l13.9 0l0 14.52l-13.9 0Z" id="p197w220" />
<path d="M434.58 670.43l39.57 0l0 14.52l-39.57 0Z" id="p197w221" />
<path d="M435.7 687.11l48.03 0l0 14.61l-48.03 0Z" id="p197w222" />
<path d="M59.08 705.17l53.42 0l0 14.6l-53.42 0Z" id="p197w223" />
<path d="M115.79 703.93l53.02 0l0 16.35l-53.02 0Z" id="p197w224" />
<path d="M232.37 705.25l21.66 0l0 14.52l-21.66 0Z" id="p197w225" />
<path d="M254.03 705.25l16.31 0l0 14.52l-16.31 0Z" id="p197w226" />
<path d="M417.48 705.25l22.73 0l0 14.52l-22.73 0Z" id="p197w227" />
<path d="M443.41 705.25l20.59 0l0 14.52l-20.59 0Z" id="p197w228" />
<path d="M467.21 705.25l25.4 0l0 14.52l-25.4 0Z" id="p197w229" />
<path d="M495.82 705.25l16.83 0l0 14.52l-16.83 0Z" id="p197w230" />
<path d="M515.85 705.25l67.09 0l0 14.52l-67.09 0Z" id="p197w231" />
<path d="M435.2 721.93l31.81 0l0 14.61l-31.81 0Z" id="p197w232" />
<path d="M59.08 739.99l41.09 0l0 14.6l-41.09 0Z" id="p197w233" />
<path d="M103.37 739.99l12.67 0l0 14.6l-12.67 0Z" id="p197w234" />
<path d="M119.34 738.74l44.31 0l0 16.35l-44.31 0Z" id="p197w235" />
<path d="M232.37 740.06l23.09 0l0 14.52l-23.09 0Z" id="p197w236" />
<path d="M258.66 740.06l69.49 0l0 14.52l-69.49 0Z" id="p197w237" />
<path d="M417.48 740.06l12.41 0l0 14.52l-12.41 0Z" id="p197w238" />
<path d="M433.09 740.06l26.74 0l0 14.52l-26.74 0Z" id="p197w239" />
<path d="M463.04 740.06l40.88 0l0 14.52l-40.88 0Z" id="p197w240" />
<path d="M507.13 740.06l14.43 0l0 14.52l-14.43 0Z" id="p197w241" />
<path d="M524.76 740.06l11.22 0l0 14.52l-11.22 0Z" id="p197w242" />
<path d="M539.19 740.06l24.85 0l0 14.52l-24.85 0Z" id="p197w243" />
<path d="M435.7 756.75l20.84 0l0 14.61l-20.84 0Z" id="p197w244" />
<path d="M459.75 756.75l54.79 0l0 14.61l-54.79 0Z" id="p197w245" />
<path d="M59.07 774.81l10.02 0l0 14.6l-10.02 0Z" id="p197w246" />
<path d="M72.3 774.81l50.21 0l0 14.6l-50.21 0Z" id="p197w247" />
<path d="M125.72 774.81l22.35 0l0 14.6l-22.35 0Z" id="p197w248" />
<path d="M151.36 773.57l53.95 0l0 16.35l-53.95 0Z" id="p197w249" />
<path d="M232.37 774.89l19.51 0l0 14.52l-19.51 0Z" id="p197w250" />
<path d="M255.08 774.89l53.66 0l0 14.52l-53.66 0Z" id="p197w251" />
<path d="M311.95 774.89l28.88 0l0 14.52l-28.88 0Z" id="p197w252" />
<path d="M417.47 774.89l25.4 0l0 14.52l-25.4 0Z" id="p197w253" />
<path d="M446.08 774.89l16.83 0l0 14.52l-16.83 0Z" id="p197w254" />
<path d="M466.11 774.89l9.89 0l0 14.52l-9.89 0Z" id="p197w255" />
<path d="M479.21 774.89l49.99 0l0 14.52l-49.99 0Z" id="p197w256" />
<path d="M532.4 774.89l13.9 0l0 14.52l-13.9 0Z" id="p197w257" />
<path d="M435.7 791.57l35.55 0l0 14.61l-35.55 0Z" id="p197w258" />
</svg>
