<?xml version="1.0" encoding="UTF-8"?>
<svg xmlns="http://www.w3.org/2000/svg" xmlns:xlink="http://www.w3.org/1999/xlink" version="1.1" baseProfile="full" width="768" height="1024" viewBox="0,0,768,1024" preserveAspectRatio="xMinYMin meet" >
<style type="text/css">
<![CDATA[
path {fill-opacity: 0.5;fill: #00aeef;visibility: hidden;}
]]>
</style>
<path d="M124.06 341.04l29.6 0l0 12.29l-29.6 0Z" id="p96w1" />
<path d="M156.22 341.04l53.33 0l0 12.29l-53.33 0Z" id="p96w2" />
<path d="M218.78 338.98l29.29 0l0 15.09l-29.29 0Z" id="p96w3" />
<path d="M251.68 338.98l10.5 0l0 15.09l-10.5 0Z" id="p96w4" />
<path d="M265.8 338.98l44.84 0l0 15.09l-44.84 0Z" id="p96w5" />
<path d="M314.25 338.98l26.3 0l0 15.09l-26.3 0Z" id="p96w6" />
<path d="M344.15 338.98l23.07 0l0 15.09l-23.07 0Z" id="p96w7" />
<path d="M370.83 338.98l19.01 0l0 15.09l-19.01 0Z" id="p96w8" />
<path d="M393.45 338.98l29.96 0l0 15.09l-29.96 0Z" id="p96w9" />
<path d="M427.02 338.98l10.5 0l0 15.09l-10.5 0Z" id="p96w10" />
<path d="M441.14 338.98l36.47 0l0 15.09l-36.47 0Z" id="p96w11" />
<path d="M481.22 338.98l25.88 0l0 15.09l-25.88 0Z" id="p96w12" />
<path d="M510.72 338.98l49.47 0l0 15.09l-49.47 0Z" id="p96w13" />
<path d="M563.79 338.98l29.98 0l0 15.09l-29.98 0Z" id="p96w14" />
<path d="M597.39 338.98l26.91 0l0 15.09l-26.91 0Z" id="p96w15" />
<path d="M135.88 355.65l57.78 0l0 15.09l-57.78 0Z" id="p96w16" />
<path d="M197.27 355.65l33.9 0l0 15.09l-33.9 0Z" id="p96w17" />
<path d="M234.78 355.65l22.31 0l0 15.09l-22.31 0Z" id="p96w18" />
<path d="M260.71 355.65l45.65 0l0 15.09l-45.65 0Z" id="p96w19" />
<path d="M309.97 355.65l13.91 0l0 15.09l-13.91 0Z" id="p96w20" />
<path d="M327.49 355.65l8.21 0l0 15.09l-8.21 0Z" id="p96w21" />
<path d="M335.7 355.65l15.96 0l0 15.09l-15.96 0Z" id="p96w22" />
<path d="M364.36 355.65l27.08 0l0 15.09l-27.08 0Z" id="p96w23" />
<path d="M395.05 355.65l8.21 0l0 15.09l-8.21 0Z" id="p96w24" />
<path d="M403.26 355.65l59.88 0l0 15.09l-59.88 0Z" id="p96w25" />
<path d="M466.75 355.65l25.69 0l0 15.09l-25.69 0Z" id="p96w26" />
<path d="M496.05 355.65l15.89 0l0 15.09l-15.89 0Z" id="p96w27" />
<path d="M515.55 355.65l46.42 0l0 15.09l-46.42 0Z" id="p96w28" />
<path d="M565.58 355.65l19.29 0l0 15.09l-19.29 0Z" id="p96w29" />
<path d="M588.48 355.65l88.5 0l0 15.09l-88.5 0Z" id="p96w30" />
<path d="M135.88 372.31l17.93 0l0 15.09l-17.93 0Z" id="p96w31" />
<path d="M157.42 372.31l34.35 0l0 15.09l-34.35 0Z" id="p96w32" />
<path d="M195.38 372.31l28.89 0l0 15.09l-28.89 0Z" id="p96w33" />
<path d="M227.88 372.31l25.88 0l0 15.09l-25.88 0Z" id="p96w34" />
<path d="M257.38 372.31l21.67 0l0 15.09l-21.67 0Z" id="p96w35" />
<path d="M282.66 372.31l24.24 0l0 15.09l-24.24 0Z" id="p96w36" />
<path d="M310.51 372.31l10.5 0l0 15.09l-10.5 0Z" id="p96w37" />
<path d="M324.62 372.31l44.25 0l0 15.09l-44.25 0Z" id="p96w38" />
<path d="M135.88 388.98l10.63 0l0 15.09l-10.63 0Z" id="p96w39" />
<path d="M150.12 388.98l22.4 0l0 15.09l-22.4 0Z" id="p96w40" />
<path d="M176.13 388.98l19.05 0l0 15.09l-19.05 0Z" id="p96w41" />
<path d="M198.79 388.98l13.91 0l0 15.09l-13.91 0Z" id="p96w42" />
<path d="M216.3 388.98l43.11 0l0 15.09l-43.11 0Z" id="p96w43" />
<path d="M269.97 388.98l29.98 0l0 15.09l-29.98 0Z" id="p96w44" />
<path d="M303.57 388.98l34.57 0l0 15.09l-34.57 0Z" id="p96w45" />
<path d="M341.75 388.98l22.03 0l0 15.09l-22.03 0Z" id="p96w46" />
<path d="M367.39 388.98l41.6 0l0 15.09l-41.6 0Z" id="p96w47" />
<path d="M422.71 388.98l31.87 0l0 15.09l-31.87 0Z" id="p96w48" />
<path d="M458.19 388.98l37.21 0l0 15.09l-37.21 0Z" id="p96w49" />
<path d="M509.11 388.98l46.16 0l0 15.09l-46.16 0Z" id="p96w50" />
<path d="M571.16 388.98l32.26 0l0 15.09l-32.26 0Z" id="p96w51" />
<path d="M607.03 388.98l19.29 0l0 15.09l-19.29 0Z" id="p96w52" />
<path d="M629.93 388.98l8.21 0l0 15.09l-8.21 0Z" id="p96w53" />
<path d="M638.14 388.98l24.91 0l0 15.09l-24.91 0Z" id="p96w54" />
<path d="M135.88 405.65l25.88 0l0 15.09l-25.88 0Z" id="p96w55" />
<path d="M165.37 405.65l21.41 0l0 15.09l-21.41 0Z" id="p96w56" />
<path d="M190.39 405.65l27.81 0l0 15.09l-27.81 0Z" id="p96w57" />
<path d="M221.82 405.65l28.89 0l0 15.09l-28.89 0Z" id="p96w58" />
<path d="M264.42 405.65l32.26 0l0 15.09l-32.26 0Z" id="p96w59" />
<path d="M300.29 405.65l13.91 0l0 15.09l-13.91 0Z" id="p96w60" />
<path d="M317.81 405.65l68.04 0l0 15.09l-68.04 0Z" id="p96w61" />
<path d="M389.46 405.65l11.26 0l0 15.09l-11.26 0Z" id="p96w62" />
<path d="M404.33 405.65l28.89 0l0 15.09l-28.89 0Z" id="p96w63" />
<path d="M436.83 405.65l15.74 0l0 15.09l-15.74 0Z" id="p96w64" />
<path d="M456.18 405.65l21.87 0l0 15.09l-21.87 0Z" id="p96w65" />
<path d="M491.77 405.65l32.26 0l0 15.09l-32.26 0Z" id="p96w66" />
<path d="M527.64 405.65l19.29 0l0 15.09l-19.29 0Z" id="p96w67" />
<path d="M550.54 405.65l40.37 0l0 15.09l-40.37 0Z" id="p96w68" />
<path d="M135.88 422.32l85.99 0l0 15.09l-85.99 0Z" id="p96w69" />
<path d="M225.48 422.32l12.66 0l0 15.09l-12.66 0Z" id="p96w70" />
<path d="M241.75 422.32l25.23 0l0 15.09l-25.23 0Z" id="p96w71" />
<path d="M270.59 422.32l15.89 0l0 15.09l-15.89 0Z" id="p96w72" />
<path d="M290.09 422.32l55.02 0l0 15.09l-55.02 0Z" id="p96w73" />
<path d="M348.72 422.32l21.67 0l0 15.09l-21.67 0Z" id="p96w74" />
<path d="M374 422.32l10.54 0l0 15.09l-10.54 0Z" id="p96w75" />
<path d="M388.15 422.32l46.15 0l0 15.09l-46.15 0Z" id="p96w76" />
<path d="M437.91 422.32l27.81 0l0 15.09l-27.81 0Z" id="p96w77" />
<path d="M469.33 422.32l13.98 0l0 15.09l-13.98 0Z" id="p96w78" />
<path d="M486.93 422.32l26.3 0l0 15.09l-26.3 0Z" id="p96w79" />
<path d="M516.83 422.32l15.74 0l0 15.09l-15.74 0Z" id="p96w80" />
<path d="M536.19 422.32l8.21 0l0 15.09l-8.21 0Z" id="p96w81" />
<path d="M544.4 422.32l15.96 0l0 15.09l-15.96 0Z" id="p96w82" />
<path d="M563.97 422.32l14.86 0l0 15.09l-14.86 0Z" id="p96w83" />
<path d="M582.44 422.32l15.15 0l0 15.09l-15.15 0Z" id="p96w84" />
<path d="M601.21 422.32l14.59 0l0 15.09l-14.59 0Z" id="p96w85" />
<path d="M619.4 422.32l13.98 0l0 15.09l-13.98 0Z" id="p96w86" />
<path d="M637 422.32l19.46 0l0 15.09l-19.46 0Z" id="p96w87" />
<path d="M135.88 438.99l56.7 0l0 15.09l-56.7 0Z" id="p96w88" />
<path d="M196.19 438.99l19.01 0l0 15.09l-19.01 0Z" id="p96w89" />
<path d="M218.81 438.99l22.08 0l0 15.09l-22.08 0Z" id="p96w90" />
<path d="M244.5 438.99l56.7 0l0 15.09l-56.7 0Z" id="p96w91" />
<path d="M304.81 438.99l52.14 0l0 15.09l-52.14 0Z" id="p96w92" />
<path d="M367.7 438.99l12.48 0l0 15.09l-12.48 0Z" id="p96w93" />
<path d="M390.96 438.99l11.35 0l0 15.09l-11.35 0Z" id="p96w94" />
<path d="M405.52 438.99l46.2 0l0 15.09l-46.2 0Z" id="p96w95" />
<path d="M455.34 438.99l19.29 0l0 15.09l-19.29 0Z" id="p96w96" />
<path d="M478.24 438.99l33.83 0l0 15.09l-33.83 0Z" id="p96w97" />
<path d="M515.68 438.99l66.73 0l0 15.09l-66.73 0Z" id="p96w98" />
<path d="M586.02 438.99l27.82 0l0 15.09l-27.82 0Z" id="p96w99" />
<path d="M617.45 438.99l26.63 0l0 15.09l-26.63 0Z" id="p96w100" />
<path d="M647.69 438.99l15.74 0l0 15.09l-15.74 0Z" id="p96w101" />
<path d="M667.05 438.99l22.45 0l0 15.09l-22.45 0Z" id="p96w102" />
<path d="M135.88 455.66l80.44 0l0 15.09l-80.44 0Z" id="p96w103" />
<path d="M219.93 455.66l18.02 0l0 15.09l-18.02 0Z" id="p96w104" />
<path d="M241.56 455.66l28.89 0l0 15.09l-28.89 0Z" id="p96w105" />
<path d="M274.06 455.66l58.17 0l0 15.09l-58.17 0Z" id="p96w106" />
<path d="M335.84 455.66l15.89 0l0 15.09l-15.89 0Z" id="p96w107" />
<path d="M355.34 455.66l22.03 0l0 15.09l-22.03 0Z" id="p96w108" />
<path d="M380.98 455.66l36.41 0l0 15.09l-36.41 0Z" id="p96w109" />
<path d="M421 455.66l57.56 0l0 15.09l-57.56 0Z" id="p96w110" />
<path d="M482.17 455.66l15.74 0l0 15.09l-15.74 0Z" id="p96w111" />
<path d="M501.53 455.66l33.43 0l0 15.09l-33.43 0Z" id="p96w112" />
<path d="M538.57 455.66l21.67 0l0 15.09l-21.67 0Z" id="p96w113" />
<path d="M563.85 455.66l10.54 0l0 15.09l-10.54 0Z" id="p96w114" />
<path d="M578 455.66l14.59 0l0 15.09l-14.59 0Z" id="p96w115" />
<path d="M596.19 455.66l66.21 0l0 15.09l-66.21 0Z" id="p96w116" />
<path d="M666.02 455.66l22.62 0l0 15.09l-22.62 0Z" id="p96w117" />
<path d="M135.88 472.33l10.63 0l0 15.09l-10.63 0Z" id="p96w118" />
<path d="M150.12 472.33l38.17 0l0 15.09l-38.17 0Z" id="p96w119" />
<path d="M191.9 472.33l12.58 0l0 15.09l-12.58 0Z" id="p96w120" />
<path d="M208.09 472.33l30.24 0l0 15.09l-30.24 0Z" id="p96w121" />
<path d="M241.94 472.33l92.52 0l0 15.09l-92.52 0Z" id="p96w122" />
<path d="M338.08 472.33l17.97 0l0 15.09l-17.97 0Z" id="p96w123" />
<path d="M359.65 472.33l15.89 0l0 15.09l-15.89 0Z" id="p96w124" />
<path d="M379.15 472.33l67.91 0l0 15.09l-67.91 0Z" id="p96w125" />
<path d="M450.67 472.33l31.42 0l0 15.09l-31.42 0Z" id="p96w126" />
<path d="M485.71 472.33l21.67 0l0 15.09l-21.67 0Z" id="p96w127" />
<path d="M510.99 472.33l26.5 0l0 15.09l-26.5 0Z" id="p96w128" />
<path d="M541.1 472.33l48.32 0l0 15.09l-48.32 0Z" id="p96w129" />
<path d="M593.03 472.33l27.82 0l0 15.09l-27.82 0Z" id="p96w130" />
<path d="M624.47 472.33l49.76 0l0 15.09l-49.76 0Z" id="p96w131" />
<path d="M135.88 489l23.61 0l0 15.09l-23.61 0Z" id="p96w132" />
<path d="M163.1 489l48.62 0l0 15.09l-48.62 0Z" id="p96w133" />
<path d="M215.33 489l12.58 0l0 15.09l-12.58 0Z" id="p96w134" />
<path d="M231.52 489l14.59 0l0 15.09l-14.59 0Z" id="p96w135" />
<path d="M249.72 489l23.07 0l0 15.09l-23.07 0Z" id="p96w136" />
<path d="M276.4 489l19.46 0l0 15.09l-19.46 0Z" id="p96w137" />
<path d="M299.47 489l23.21 0l0 15.09l-23.21 0Z" id="p96w138" />
<path d="M326.29 489l46.92 0l0 15.09l-46.92 0Z" id="p96w139" />
<path d="M376.82 489l18.02 0l0 15.09l-18.02 0Z" id="p96w140" />
<path d="M398.45 489l32.91 0l0 15.09l-32.91 0Z" id="p96w141" />
<path d="M434.98 489l51.05 0l0 15.09l-51.05 0Z" id="p96w142" />
<path d="M498.97 489l44.85 0l0 15.09l-44.85 0Z" id="p96w143" />
<path d="M556.88 489l14.59 0l0 15.09l-14.59 0Z" id="p96w144" />
<path d="M574.68 489l18.82 0l0 15.09l-18.82 0Z" id="p96w145" />
<path d="M596.71 489l37.48 0l0 15.09l-37.48 0Z" id="p96w146" />
<path d="M640.96 489l13.07 0l0 15.09l-13.07 0Z" id="p96w147" />
<path d="M657.64 489l28.34 0l0 15.09l-28.34 0Z" id="p96w148" />
<path d="M135.88 505.67l16.64 0l0 15.09l-16.64 0Z" id="p96w149" />
<path d="M156.13 505.67l53.76 0l0 15.09l-53.76 0Z" id="p96w150" />
<path d="M213.5 505.67l35.5 0l0 15.09l-35.5 0Z" id="p96w151" />
<path d="M252.61 505.67l11.26 0l0 15.09l-11.26 0Z" id="p96w152" />
<path d="M267.48 505.67l10.5 0l0 15.09l-10.5 0Z" id="p96w153" />
<path d="M281.59 505.67l74.66 0l0 15.09l-74.66 0Z" id="p96w154" />
<path d="M359.86 505.67l26.35 0l0 15.09l-26.35 0Z" id="p96w155" />
<path d="M389.82 505.67l22.31 0l0 15.09l-22.31 0Z" id="p96w156" />
<path d="M415.74 505.67l29.02 0l0 15.09l-29.02 0Z" id="p96w157" />
<path d="M448.37 505.67l50.48 0l0 15.09l-50.48 0Z" id="p96w158" />
<path d="M502.46 505.67l25.9 0l0 15.09l-25.9 0Z" id="p96w159" />
<path d="M531.97 505.67l17.93 0l0 15.09l-17.93 0Z" id="p96w160" />
<path d="M553.51 505.67l38.17 0l0 15.09l-38.17 0Z" id="p96w161" />
<path d="M135.88 522.34l12.58 0l0 15.09l-12.58 0Z" id="p96w162" />
<path d="M152.07 522.34l22.03 0l0 15.09l-22.03 0Z" id="p96w163" />
<path d="M177.71 522.34l33.52 0l0 15.09l-33.52 0Z" id="p96w164" />
<path d="M124.06 566.49l34.63 0l0 18.84l-34.63 0Z" id="p96w165" />
<path d="M162.34 566.49l89.43 0l0 18.84l-89.43 0Z" id="p96w166" />
<path d="M255.42 566.49l13.62 0l0 18.84l-13.62 0Z" id="p96w167" />
<path d="M272.69 566.49l38.39 0l0 18.84l-38.39 0Z" id="p96w168" />
<path d="M123.63 597.69l21.21 0l0 14.52l-21.21 0Z" id="p96w169" />
<path d="M148.04 597.69l13.91 0l0 14.52l-13.91 0Z" id="p96w170" />
<path d="M165.16 597.69l23.8 0l0 14.52l-23.8 0Z" id="p96w171" />
<path d="M200.46 597.69l31.55 0l0 14.52l-31.55 0Z" id="p96w172" />
<path d="M232.01 597.69l12.57 0l0 14.52l-12.57 0Z" id="p96w173" />
<path d="M247.78 597.69l28.87 0l0 14.52l-28.87 0Z" id="p96w174" />
<path d="M279.85 597.69l44.9 0l0 14.52l-44.9 0Z" id="p96w175" />
<path d="M327.96 597.69l18.44 0l0 14.52l-18.44 0Z" id="p96w176" />
<path d="M349.61 597.69l20.85 0l0 14.52l-20.85 0Z" id="p96w177" />
<path d="M373.67 597.69l42.24 0l0 14.52l-42.24 0Z" id="p96w178" />
<path d="M419.12 597.69l14.18 0l0 14.52l-14.18 0Z" id="p96w179" />
<path d="M436.5 597.69l31.01 0l0 14.52l-31.01 0Z" id="p96w180" />
<path d="M143.75 622.7l46.51 0l0 14.52l-46.51 0Z" id="p96w181" />
<path d="M193.48 622.7l42.07 0l0 14.52l-42.07 0Z" id="p96w182" />
<path d="M238.75 622.7l15.5 0l0 14.52l-15.5 0Z" id="p96w183" />
<path d="M257.45 622.7l36.09 0l0 14.52l-36.09 0Z" id="p96w184" />
<path d="M296.75 622.7l62.83 0l0 14.52l-62.83 0Z" id="p96w185" />
<path d="M362.78 622.7l9.89 0l0 14.52l-9.89 0Z" id="p96w186" />
<path d="M375.88 622.7l36.6 0l0 14.52l-36.6 0Z" id="p96w187" />
<path d="M415.69 622.7l13.9 0l0 14.52l-13.9 0Z" id="p96w188" />
<path d="M432.79 622.7l58.54 0l0 14.52l-58.54 0Z" id="p96w189" />
<path d="M494.54 622.7l13.9 0l0 14.52l-13.9 0Z" id="p96w190" />
<path d="M511.65 622.7l43.31 0l0 14.52l-43.31 0Z" id="p96w191" />
<path d="M143.75 639.37l18.44 0l0 14.52l-18.44 0Z" id="p96w192" />
<path d="M165.4 639.37l66.55 0l0 14.52l-66.55 0Z" id="p96w193" />
<path d="M235.16 639.37l13.9 0l0 14.52l-13.9 0Z" id="p96w194" />
<path d="M252.27 639.37l70.54 0l0 14.52l-70.54 0Z" id="p96w195" />
<path d="M326.01 639.37l19.51 0l0 14.52l-19.51 0Z" id="p96w196" />
<path d="M348.73 639.37l22.99 0l0 14.52l-22.99 0Z" id="p96w197" />
<path d="M374.93 639.37l13.63 0l0 14.52l-13.63 0Z" id="p96w198" />
<path d="M391.77 639.37l40.63 0l0 14.52l-40.63 0Z" id="p96w199" />
<path d="M435.6 639.37l20.85 0l0 14.52l-20.85 0Z" id="p96w200" />
<path d="M459.67 639.37l44.36 0l0 14.52l-44.36 0Z" id="p96w201" />
<path d="M507.24 639.37l37.68 0l0 14.52l-37.68 0Z" id="p96w202" />
<path d="M143.75 656.05l18.45 0l0 14.52l-18.45 0Z" id="p96w203" />
<path d="M165.41 656.05l15.5 0l0 14.52l-15.5 0Z" id="p96w204" />
<path d="M184.12 656.05l50.25 0l0 14.52l-50.25 0Z" id="p96w205" />
<path d="M237.57 656.05l6.41 0l0 14.52l-6.41 0Z" id="p96w206" />
<path d="M247.2 656.05l15.51 0l0 14.52l-15.51 0Z" id="p96w207" />
<path d="M275.8 656.05l19.51 0l0 14.52l-19.51 0Z" id="p96w208" />
<path d="M298.52 656.05l13.9 0l0 14.52l-13.9 0Z" id="p96w209" />
<path d="M315.62 656.05l56.4 0l0 14.52l-56.4 0Z" id="p96w210" />
<path d="M375.23 656.05l29.66 0l0 14.52l-29.66 0Z" id="p96w211" />
<path d="M408.1 656.05l19.52 0l0 14.52l-19.52 0Z" id="p96w212" />
<path d="M430.83 656.05l11.22 0l0 14.52l-11.22 0Z" id="p96w213" />
<path d="M445.25 656.05l15.5 0l0 14.52l-15.5 0Z" id="p96w214" />
<path d="M463.96 656.05l29.66 0l0 14.52l-29.66 0Z" id="p96w215" />
<path d="M143.75 672.72l62.02 0l0 14.52l-62.02 0Z" id="p96w216" />
<path d="M208.98 672.72l14.18 0l0 14.52l-14.18 0Z" id="p96w217" />
<path d="M226.37 672.72l40.18 0l0 14.52l-40.18 0Z" id="p96w218" />
<path d="M269.75 672.72l15.5 0l0 14.52l-15.5 0Z" id="p96w219" />
<path d="M288.46 672.72l50.76 0l0 14.52l-50.76 0Z" id="p96w220" />
<path d="M342.43 672.72l33.95 0l0 14.52l-33.95 0Z" id="p96w221" />
<path d="M379.59 672.72l20.85 0l0 14.52l-20.85 0Z" id="p96w222" />
<path d="M403.65 672.72l15.5 0l0 14.52l-15.5 0Z" id="p96w223" />
<path d="M422.35 672.72l7.48 0l0 14.52l-7.48 0Z" id="p96w224" />
<path d="M429.84 672.72l22.45 0l0 14.52l-22.45 0Z" id="p96w225" />
<path d="M143.75 689.39l25.94 0l0 14.52l-25.94 0Z" id="p96w226" />
<path d="M172.9 689.39l40.61 0l0 14.52l-40.61 0Z" id="p96w227" />
<path d="M216.72 689.39l15.5 0l0 14.52l-15.5 0Z" id="p96w228" />
<path d="M235.42 689.39l38.16 0l0 14.52l-38.16 0Z" id="p96w229" />
<path d="M276.79 689.39l48.92 0l0 14.52l-48.92 0Z" id="p96w230" />
<path d="M143.75 706.06l12.83 0l0 14.52l-12.83 0Z" id="p96w231" />
<path d="M159.79 706.06l7.48 0l0 14.52l-7.48 0Z" id="p96w232" />
<path d="M167.28 706.06l14.16 0l0 14.52l-14.16 0Z" id="p96w233" />
<path d="M184.65 706.06l22.99 0l0 14.52l-22.99 0Z" id="p96w234" />
<path d="M220.73 706.06l34.75 0l0 14.52l-34.75 0Z" id="p96w235" />
<path d="M258.69 706.06l24.85 0l0 14.52l-24.85 0Z" id="p96w236" />
<path d="M286.76 706.03l22.2 0l0 14.52l-22.2 0Z" id="p96w237" />
<path d="M312.16 706.03l50.96 0l0 14.52l-50.96 0Z" id="p96w238" />
<path d="M143.75 722.73l13.9 0l0 14.52l-13.9 0Z" id="p96w239" />
<path d="M160.86 722.73l7.48 0l0 14.52l-7.48 0Z" id="p96w240" />
<path d="M168.34 722.73l14.16 0l0 14.52l-14.16 0Z" id="p96w241" />
<path d="M195.6 722.73l24.06 0l0 14.52l-24.06 0Z" id="p96w242" />
<path d="M222.87 722.73l9.89 0l0 14.52l-9.89 0Z" id="p96w243" />
<path d="M235.96 722.73l34.48 0l0 14.52l-34.48 0Z" id="p96w244" />
<path d="M273.65 722.73l22.12 0l0 14.52l-22.12 0Z" id="p96w245" />
<path d="M143.75 739.4l31.81 0l0 14.52l-31.81 0Z" id="p96w246" />
<path d="M178.77 739.4l16.83 0l0 14.52l-16.83 0Z" id="p96w247" />
<path d="M198.81 739.4l9.89 0l0 14.52l-9.89 0Z" id="p96w248" />
<path d="M211.9 739.4l52.11 0l0 14.52l-52.11 0Z" id="p96w249" />
<path d="M267.22 739.4l14.18 0l0 14.52l-14.18 0Z" id="p96w250" />
<path d="M284.6 739.4l39.24 0l0 14.52l-39.24 0Z" id="p96w251" />
<path d="M327.05 739.4l13.9 0l0 14.52l-13.9 0Z" id="p96w252" />
<path d="M344.16 739.4l46.51 0l0 14.52l-46.51 0Z" id="p96w253" />
<path d="M143.75 756.07l12.83 0l0 14.52l-12.83 0Z" id="p96w254" />
<path d="M159.79 756.07l42.24 0l0 14.52l-42.24 0Z" id="p96w255" />
<path d="M205.24 756.07l13.9 0l0 14.52l-13.9 0Z" id="p96w256" />
<path d="M222.34 756.07l31.81 0l0 14.52l-31.81 0Z" id="p96w257" />
<path d="M257.36 756.07l16.83 0l0 14.52l-16.83 0Z" id="p96w258" />
<path d="M277.4 756.07l28.06 0l0 14.52l-28.06 0Z" id="p96w259" />
<path d="M308.67 756.07l35.29 0l0 14.52l-35.29 0Z" id="p96w260" />
<path d="M347.17 756.07l20.85 0l0 14.52l-20.85 0Z" id="p96w261" />
<path d="M371.23 756.07l15.5 0l0 14.52l-15.5 0Z" id="p96w262" />
<path d="M389.93 756.07l47.85 0l0 14.52l-47.85 0Z" id="p96w263" />
<path d="M440.99 756.07l19.51 0l0 14.52l-19.51 0Z" id="p96w264" />
<path d="M463.71 756.07l35 0l0 14.52l-35 0Z" id="p96w265" />
<path d="M501.92 756.07l69.23 0l0 14.52l-69.23 0Z" id="p96w266" />
<path d="M143.75 772.74l18.44 0l0 14.52l-18.44 0Z" id="p96w267" />
<path d="M165.4 772.74l26.98 0l0 14.52l-26.98 0Z" id="p96w268" />
<path d="M195.59 772.74l72.15 0l0 14.52l-72.15 0Z" id="p96w269" />
<path d="M270.94 772.74l19.51 0l0 14.52l-19.51 0Z" id="p96w270" />
<path d="M293.66 772.74l14.18 0l0 14.52l-14.18 0Z" id="p96w271" />
<path d="M311.04 772.74l22.99 0l0 14.52l-22.99 0Z" id="p96w272" />
<path d="M337.24 772.74l34.49 0l0 14.52l-34.49 0Z" id="p96w273" />
<path d="M143.75 789.41l31.81 0l0 14.52l-31.81 0Z" id="p96w274" />
<path d="M188.66 789.41l54.55 0l0 14.52l-54.55 0Z" id="p96w275" />
<path d="M246.42 789.41l27.52 0l0 14.52l-27.52 0Z" id="p96w276" />
<path d="M277.15 789.41l14.18 0l0 14.52l-14.18 0Z" id="p96w277" />
<path d="M294.53 789.41l7.48 0l0 14.52l-7.48 0Z" id="p96w278" />
<path d="M302.01 789.41l14.16 0l0 14.52l-14.16 0Z" id="p96w279" />
<path d="M319.38 789.41l17.38 0l0 14.52l-17.38 0Z" id="p96w280" />
<path d="M339.97 789.41l25.92 0l0 14.52l-25.92 0Z" id="p96w281" />
<path d="M369.11 789.41l19.51 0l0 14.52l-19.51 0Z" id="p96w282" />
<path d="M391.82 789.41l20.85 0l0 14.52l-20.85 0Z" id="p96w283" />
<path d="M415.88 789.41l50.26 0l0 14.52l-50.26 0Z" id="p96w284" />
<path d="M143.75 806.08l20.05 0l0 14.52l-20.05 0Z" id="p96w285" />
<path d="M167.01 806.08l32.69 0l0 14.52l-32.69 0Z" id="p96w286" />
<path d="M202.91 806.08l53.19 0l0 14.52l-53.19 0Z" id="p96w287" />
<path d="M259.31 806.08l9.89 0l0 14.52l-9.89 0Z" id="p96w288" />
<path d="M272.41 806.08l21.37 0l0 14.52l-21.37 0Z" id="p96w289" />
<path d="M296.98 806.08l28.88 0l0 14.52l-28.88 0Z" id="p96w290" />
<path d="M329.07 806.08l46.96 0l0 14.52l-46.96 0Z" id="p96w291" />
<path d="M379.24 806.08l27.52 0l0 14.52l-27.52 0Z" id="p96w292" />
<path d="M409.97 806.08l7.48 0l0 14.52l-7.48 0Z" id="p96w293" />
<path d="M417.45 806.08l16.33 0l0 14.52l-16.33 0Z" id="p96w294" />
<path d="M154.71 839.42l28.87 0l0 14.52l-28.87 0Z" id="p96w295" />
<path d="M186.78 839.42l24.33 0l0 14.52l-24.33 0Z" id="p96w296" />
<path d="M214.32 839.42l50.01 0l0 14.52l-50.01 0Z" id="p96w297" />
<path d="M267.54 839.42l33.05 0l0 14.52l-33.05 0Z" id="p96w298" />
<path d="M303.8 839.42l16.58 0l0 14.52l-16.58 0Z" id="p96w299" />
<path d="M330.67 839.42l22.44 0l0 14.52l-22.44 0Z" id="p96w300" />
<path d="M366.2 839.42l43.31 0l0 14.52l-43.31 0Z" id="p96w301" />
<path d="M412.72 839.42l24.85 0l0 14.52l-24.85 0Z" id="p96w302" />
<path d="M440.78 839.42l14.18 0l0 14.52l-14.18 0Z" id="p96w303" />
<path d="M458.16 839.42l24.05 0l0 14.52l-24.05 0Z" id="p96w304" />
<path d="M507.17 839.42l35.29 0l0 14.52l-35.29 0Z" id="p96w305" />
<path d="M143.76 856.09l42.25 0l0 14.52l-42.25 0Z" id="p96w306" />
<path d="M189.21 856.09l49.99 0l0 14.52l-49.99 0Z" id="p96w307" />
<path d="M242.41 856.09l42.24 0l0 14.52l-42.24 0Z" id="p96w308" />
<path d="M143.75 881.11l33.33 0l0 14.52l-33.33 0Z" id="p96w309" />
<path d="M180.29 881.11l20.85 0l0 14.52l-20.85 0Z" id="p96w310" />
<path d="M204.35 881.11l53.72 0l0 14.52l-53.72 0Z" id="p96w311" />
<path d="M271.17 881.11l17.11 0l0 14.52l-17.11 0Z" id="p96w312" />
<path d="M291.48 881.11l35.53 0l0 14.52l-35.53 0Z" id="p96w313" />
<path d="M330.22 881.11l90.8 0l0 14.52l-90.8 0Z" id="p96w314" />
<path d="M424.23 881.11l25.67 0l0 14.52l-25.67 0Z" id="p96w315" />
<path d="M453.11 881.11l69.47 0l0 14.52l-69.47 0Z" id="p96w316" />
<path d="M143.76 897.78l53.22 0l0 14.52l-53.22 0Z" id="p96w317" />
<path d="M200.18 897.78l50.01 0l0 14.52l-50.01 0Z" id="p96w318" />
<path d="M253.4 897.78l30.74 0l0 14.52l-30.74 0Z" id="p96w319" />
<path d="M73.2 571.64l15.07 0l0 12.29l-15.07 0Z" id="p96w320" />
<path d="M52.55 582.85l35.72 0l0 12.3l-35.72 0Z" id="p96w321" />
<path d="M39.15 595.36l49.13 0l0 12.3l-49.13 0Z" id="p96w322" />
<path d="M60.68 841.22l27.93 0l0 12.29l-27.93 0Z" id="p96w323" />
<path d="M124.06 39.02l42.71 0l0 15.38l-42.71 0Z" id="p96w324" />
<path d="M208.04 39.02l43.21 0l0 15.38l-43.21 0Z" id="p96w325" />
<path d="M307.2 38.6l45.06 0l0 16.09l-45.06 0Z" id="p96w326" />
<path d="M414.03 39.02l28.68 0l0 15.38l-28.68 0Z" id="p96w327" />
<path d="M446.08 39.02l43.54 0l0 15.38l-43.54 0Z" id="p96w328" />
<path d="M522.82 39.02l32.54 0l0 15.38l-32.54 0Z" id="p96w329" />
<path d="M76.9 983l102.23 0l0 12.23l-102.23 0Z" id="p96w330" />
</svg>
