<?xml version="1.0" encoding="UTF-8"?>
<svg xmlns="http://www.w3.org/2000/svg" xmlns:xlink="http://www.w3.org/1999/xlink" version="1.1" baseProfile="full" width="768" height="1024" viewBox="0,0,768,1024" preserveAspectRatio="xMinYMin meet" >
<style type="text/css">
<![CDATA[
path {fill-opacity: 0.5;fill: #00aeef;visibility: hidden;}
]]>
</style>
<path d="M124.06 114.18l10.97 0l0 14.52l-10.97 0Z" id="p161w1" />
<path d="M138.24 114.18l18.44 0l0 14.52l-18.44 0Z" id="p161w2" />
<path d="M159.88 114.11l46.74 0l0 14.6l-46.74 0Z" id="p161w3" />
<path d="M219.45 114.18l32.09 0l0 14.52l-32.09 0Z" id="p161w4" />
<path d="M254.75 114.18l14.97 0l0 14.52l-14.97 0Z" id="p161w5" />
<path d="M272.92 114.18l36.88 0l0 14.52l-36.88 0Z" id="p161w6" />
<path d="M313.01 114.18l25.4 0l0 14.52l-25.4 0Z" id="p161w7" />
<path d="M341.61 114.18l18.7 0l0 14.52l-18.7 0Z" id="p161w8" />
<path d="M363.52 114.18l34.74 0l0 14.52l-34.74 0Z" id="p161w9" />
<path d="M401.47 114.18l41.16 0l0 14.52l-41.16 0Z" id="p161w10" />
<path d="M445.83 114.18l72.17 0l0 14.52l-72.17 0Z" id="p161w11" />
<path d="M521.22 114.18l22.08 0l0 14.52l-22.08 0Z" id="p161w12" />
<path d="M546.51 114.18l14.97 0l0 14.52l-14.97 0Z" id="p161w13" />
<path d="M564.68 114.18l10.43 0l0 14.52l-10.43 0Z" id="p161w14" />
<path d="M578.32 114.18l21.12 0l0 14.52l-21.12 0Z" id="p161w15" />
<path d="M602.64 114.18l54.8 0l0 14.52l-54.8 0Z" id="p161w16" />
<path d="M124.06 130.85l21.4 0l0 14.52l-21.4 0Z" id="p161w17" />
<path d="M158.29 130.85l40.02 0l0 14.52l-40.02 0Z" id="p161w18" />
<path d="M201.52 130.85l28.34 0l0 14.52l-28.34 0Z" id="p161w19" />
<path d="M233.06 130.85l18.18 0l0 14.52l-18.18 0Z" id="p161w20" />
<path d="M254.44 130.85l53.95 0l0 14.52l-53.95 0Z" id="p161w21" />
<path d="M311.6 130.85l7.48 0l0 14.52l-7.48 0Z" id="p161w22" />
<path d="M319.08 130.85l25.66 0l0 14.52l-25.66 0Z" id="p161w23" />
<path d="M347.95 130.85l14.97 0l0 14.52l-14.97 0Z" id="p161w24" />
<path d="M366.12 130.85l13.9 0l0 14.52l-13.9 0Z" id="p161w25" />
<path d="M383.23 130.85l28.06 0l0 14.52l-28.06 0Z" id="p161w26" />
<path d="M124.06 164.19l51.33 0l0 14.52l-51.33 0Z" id="p161w27" />
<path d="M178.6 164.19l47.57 0l0 14.52l-47.57 0Z" id="p161w28" />
<path d="M229.38 164.19l13.9 0l0 14.52l-13.9 0Z" id="p161w29" />
<path d="M246.49 164.19l39.04 0l0 14.52l-39.04 0Z" id="p161w30" />
<path d="M288.74 164.19l11.22 0l0 14.52l-11.22 0Z" id="p161w31" />
<path d="M303.16 164.19l28.87 0l0 14.52l-28.87 0Z" id="p161w32" />
<path d="M335.24 164.19l13.63 0l0 14.52l-13.63 0Z" id="p161w33" />
<path d="M352.08 164.19l45.17 0l0 14.52l-45.17 0Z" id="p161w34" />
<path d="M400.46 164.19l39.28 0l0 14.52l-39.28 0Z" id="p161w35" />
<path d="M442.94 164.19l9.89 0l0 14.52l-9.89 0Z" id="p161w36" />
<path d="M456.04 164.19l35.29 0l0 14.52l-35.29 0Z" id="p161w37" />
<path d="M494.54 164.19l33.41 0l0 14.52l-33.41 0Z" id="p161w38" />
<path d="M531.15 164.19l19.51 0l0 14.52l-19.51 0Z" id="p161w39" />
<path d="M124.06 180.86l36.88 0l0 14.52l-36.88 0Z" id="p161w40" />
<path d="M164.15 180.8l32.11 0l0 14.6l-32.11 0Z" id="p161w41" />
<path d="M202.15 180.8l19.19 0l0 14.6l-19.19 0Z" id="p161w42" />
<path d="M227.23 180.8l12.42 0l0 14.6l-12.42 0Z" id="p161w43" />
<path d="M242.86 180.8l46.2 0l0 14.6l-46.2 0Z" id="p161w44" />
<path d="M292.26 180.86l11.22 0l0 14.52l-11.22 0Z" id="p161w45" />
<path d="M306.69 180.8l48.88 0l0 14.6l-48.88 0Z" id="p161w46" />
<path d="M128.98 380.94l22.44 0l0 14.52l-22.44 0Z" id="p161w47" />
<path d="M154.63 380.94l13.9 0l0 14.52l-13.9 0Z" id="p161w48" />
<path d="M171.74 380.94l29.41 0l0 14.52l-29.41 0Z" id="p161w49" />
<path d="M213.98 380.94l32.34 0l0 14.52l-32.34 0Z" id="p161w50" />
<path d="M249.52 380.94l19.51 0l0 14.52l-19.51 0Z" id="p161w51" />
<path d="M128.98 397.62l45.79 0l0 14.52l-45.79 0Z" id="p161w52" />
<path d="M187.57 397.62l39.04 0l0 14.52l-39.04 0Z" id="p161w53" />
<path d="M239.42 397.62l12.29 0l0 14.52l-12.29 0Z" id="p161w54" />
<path d="M254.9 397.62l45.97 0l0 14.52l-45.97 0Z" id="p161w55" />
<path d="M138.61 414.29l17.9 0l0 14.52l-17.9 0Z" id="p161w56" />
<path d="M159.71 414.29l59.05 0l0 14.52l-59.05 0Z" id="p161w57" />
<path d="M231.6 414.29l45.15 0l0 14.52l-45.15 0Z" id="p161w58" />
<path d="M128.98 430.96l23.52 0l0 14.52l-23.52 0Z" id="p161w59" />
<path d="M330.5 380.94l21.65 0l0 14.52l-21.65 0Z" id="p161w60" />
<path d="M364.98 380.94l13.9 0l0 14.52l-13.9 0Z" id="p161w61" />
<path d="M382.08 380.94l19.51 0l0 14.52l-19.51 0Z" id="p161w62" />
<path d="M404.8 380.94l12.29 0l0 14.52l-12.29 0Z" id="p161w63" />
<path d="M420.29 380.94l45.97 0l0 14.52l-45.97 0Z" id="p161w64" />
<path d="M330.5 397.62l59.59 0l0 14.52l-59.59 0Z" id="p161w65" />
<path d="M402.92 397.62l23.52 0l0 14.52l-23.52 0Z" id="p161w66" />
<path d="M439.27 397.62l22.44 0l0 14.52l-22.44 0Z" id="p161w67" />
<path d="M464.92 397.62l13.9 0l0 14.52l-13.9 0Z" id="p161w68" />
<path d="M330.5 414.29l33.94 0l0 14.52l-33.94 0Z" id="p161w69" />
<path d="M377.26 414.29l32.09 0l0 14.52l-32.09 0Z" id="p161w70" />
<path d="M412.56 414.29l62.27 0l0 14.52l-62.27 0Z" id="p161w71" />
<path d="M532.1 380.94l38.32 0l0 14.52l-38.32 0Z" id="p161w72" />
<path d="M573.63 380.94l9.89 0l0 14.52l-9.89 0Z" id="p161w73" />
<path d="M586.72 380.94l32.34 0l0 14.52l-32.34 0Z" id="p161w74" />
<path d="M631.89 380.94l57.46 0l0 14.52l-57.46 0Z" id="p161w75" />
<path d="M532.1 397.62l50.01 0l0 14.52l-50.01 0Z" id="p161w76" />
<path d="M585.32 397.62l32.09 0l0 14.52l-32.09 0Z" id="p161w77" />
<path d="M638.53 397.62l65.15 0l0 14.52l-65.15 0Z" id="p161w78" />
<path d="M541.73 414.29l65.76 0l0 14.52l-65.76 0Z" id="p161w79" />
<path d="M635.11 414.29l45.17 0l0 14.52l-45.17 0Z" id="p161w80" />
<path d="M541.73 430.96l18.97 0l0 14.52l-18.97 0Z" id="p161w81" />
<path d="M128 510.26l26.08 0l0 13.91l-26.08 0Z" id="p161w82" />
<path d="M157.12 510.26l19.48 0l0 13.91l-19.48 0Z" id="p161w83" />
<path d="M179.64 510.26l35.7 0l0 13.91l-35.7 0Z" id="p161w84" />
<path d="M218.38 510.26l31.41 0l0 13.91l-31.41 0Z" id="p161w85" />
<path d="M252.83 510.26l17.13 0l0 13.91l-17.13 0Z" id="p161w86" />
<path d="M273 510.26l23.81 0l0 13.91l-23.81 0Z" id="p161w87" />
<path d="M128 525.55l37.15 0l0 13.91l-37.15 0Z" id="p161w88" />
<path d="M168.19 525.55l15.46 0l0 13.91l-15.46 0Z" id="p161w89" />
<path d="M186.68 525.55l33.34 0l0 13.91l-33.34 0Z" id="p161w90" />
<path d="M223.06 525.55l17.48 0l0 13.91l-17.48 0Z" id="p161w91" />
<path d="M128 540.83l82.12 0l0 13.91l-82.12 0Z" id="p161w92" />
<path d="M213.16 540.83l24.3 0l0 13.91l-24.3 0Z" id="p161w93" />
<path d="M128 571.39l21.02 0l0 13.91l-21.02 0Z" id="p161w94" />
<path d="M152.06 571.39l19.76 0l0 13.91l-19.76 0Z" id="p161w95" />
<path d="M183.21 571.39l21.02 0l0 13.91l-21.02 0Z" id="p161w96" />
<path d="M207.27 571.39l19.76 0l0 13.91l-19.76 0Z" id="p161w97" />
<path d="M329.53 510.26l28.71 0l0 13.91l-28.71 0Z" id="p161w98" />
<path d="M361.12 510.26l35.7 0l0 13.91l-35.7 0Z" id="p161w99" />
<path d="M399.86 510.26l19.48 0l0 13.91l-19.48 0Z" id="p161w100" />
<path d="M422.38 510.26l37.56 0l0 13.91l-37.56 0Z" id="p161w101" />
<path d="M329.53 525.55l58.77 0l0 13.91l-58.77 0Z" id="p161w102" />
<path d="M391.34 525.55l9.62 0l0 13.91l-9.62 0Z" id="p161w103" />
<path d="M404 525.55l29.51 0l0 13.91l-29.51 0Z" id="p161w104" />
<path d="M436.55 525.55l33.24 0l0 13.91l-33.24 0Z" id="p161w105" />
<path d="M472.82 525.55l25.33 0l0 13.91l-25.33 0Z" id="p161w106" />
<path d="M329.53 540.83l50.02 0l0 13.91l-50.02 0Z" id="p161w107" />
<path d="M382.59 540.83l17.97 0l0 13.91l-17.97 0Z" id="p161w108" />
<path d="M403.6 540.83l60.45 0l0 13.91l-60.45 0Z" id="p161w109" />
<path d="M329.53 571.39l21.02 0l0 13.91l-21.02 0Z" id="p161w110" />
<path d="M353.59 571.39l19.76 0l0 13.91l-19.76 0Z" id="p161w111" />
<path d="M384.74 571.39l21.02 0l0 13.91l-21.02 0Z" id="p161w112" />
<path d="M408.8 571.39l19.76 0l0 13.91l-19.76 0Z" id="p161w113" />
<path d="M531.05 510.19l16.19 0l0 13.91l-16.19 0Z" id="p161w114" />
<path d="M550.28 510.19l62.95 0l0 13.91l-62.95 0Z" id="p161w115" />
<path d="M616.27 510.19l21.2 0l0 13.91l-21.2 0Z" id="p161w116" />
<path d="M640.5 510.19l32.94 0l0 13.91l-32.94 0Z" id="p161w117" />
<path d="M676.14 510.19l20.45 0l0 13.91l-20.45 0Z" id="p161w118" />
<path d="M531.05 525.47l17.61 0l0 13.91l-17.61 0Z" id="p161w119" />
<path d="M551.53 525.47l16.59 0l0 13.91l-16.59 0Z" id="p161w120" />
<path d="M571.16 525.47l48.41 0l0 13.91l-48.41 0Z" id="p161w121" />
<path d="M622.61 525.47l47.08 0l0 13.91l-47.08 0Z" id="p161w122" />
<path d="M672.73 525.47l19.48 0l0 13.91l-19.48 0Z" id="p161w123" />
<path d="M531.05 540.75l18.49 0l0 13.91l-18.49 0Z" id="p161w124" />
<path d="M552.58 540.75l33.67 0l0 13.91l-33.67 0Z" id="p161w125" />
<path d="M589.3 540.75l54.06 0l0 13.91l-54.06 0Z" id="p161w126" />
<path d="M531.05 571.31l21.02 0l0 13.91l-21.02 0Z" id="p161w127" />
<path d="M555.11 571.31l19.76 0l0 13.91l-19.76 0Z" id="p161w128" />
<path d="M586.26 571.31l21.02 0l0 13.91l-21.02 0Z" id="p161w129" />
<path d="M610.32 571.31l19.76 0l0 13.91l-19.76 0Z" id="p161w130" />
<path d="M128.98 639.37l40.89 0l0 14.52l-40.89 0Z" id="p161w131" />
<path d="M182.71 639.37l41.43 0l0 14.52l-41.43 0Z" id="p161w132" />
<path d="M227.35 639.37l15.5 0l0 14.52l-15.5 0Z" id="p161w133" />
<path d="M246.05 639.37l26.98 0l0 14.52l-26.98 0Z" id="p161w134" />
<path d="M128.98 656.04l45.71 0l0 14.52l-45.71 0Z" id="p161w135" />
<path d="M187.52 656.04l40.89 0l0 14.52l-40.89 0Z" id="p161w136" />
<path d="M241.24 656.04l22.99 0l0 14.52l-22.99 0Z" id="p161w137" />
<path d="M267.45 656.04l24.31 0l0 14.52l-24.31 0Z" id="p161w138" />
<path d="M128.98 672.71l24.33 0l0 14.52l-24.33 0Z" id="p161w139" />
<path d="M330.51 639.37l41.14 0l0 14.52l-41.14 0Z" id="p161w140" />
<path d="M384.48 639.37l31.53 0l0 14.52l-31.53 0Z" id="p161w141" />
<path d="M428.85 639.37l19.51 0l0 14.52l-19.51 0Z" id="p161w142" />
<path d="M451.56 639.37l47.85 0l0 14.52l-47.85 0Z" id="p161w143" />
<path d="M330.51 656.04l13.9 0l0 14.52l-13.9 0Z" id="p161w144" />
<path d="M347.62 656.04l7.48 0l0 14.52l-7.48 0Z" id="p161w145" />
<path d="M355.1 656.04l14.16 0l0 14.52l-14.16 0Z" id="p161w146" />
<path d="M382.09 656.04l45.71 0l0 14.52l-45.71 0Z" id="p161w147" />
<path d="M440.63 656.04l34.74 0l0 14.52l-34.74 0Z" id="p161w148" />
<path d="M330.51 672.71l75.12 0l0 14.52l-75.12 0Z" id="p161w149" />
<path d="M418.46 672.71l28.33 0l0 14.52l-28.33 0Z" id="p161w150" />
<path d="M532.12 639.37l6.41 0l0 14.52l-6.41 0Z" id="p161w151" />
<path d="M570.34 639.37l34.74 0l0 14.52l-34.74 0Z" id="p161w152" />
<path d="M608.29 639.37l33.95 0l0 14.52l-33.95 0Z" id="p161w153" />
<path d="M655.07 639.37l18.97 0l0 14.52l-18.97 0Z" id="p161w154" />
<path d="M532.12 656.04l49 0l0 14.52l-49 0Z" id="p161w155" />
<path d="M584.32 656.04l54.55 0l0 14.52l-54.55 0Z" id="p161w156" />
<path d="M124.06 714.4l35.55 0l0 14.52l-35.55 0Z" id="p161w157" />
<path d="M162.81 714.4l45.99 0l0 14.52l-45.99 0Z" id="p161w158" />
<path d="M212.01 714.4l24.31 0l0 14.52l-24.31 0Z" id="p161w159" />
<path d="M239.53 714.4l13.9 0l0 14.52l-13.9 0Z" id="p161w160" />
<path d="M256.63 714.4l62.21 0l0 14.52l-62.21 0Z" id="p161w161" />
<path d="M322.05 714.4l39.28 0l0 14.52l-39.28 0Z" id="p161w162" />
<path d="M364.54 714.4l15.5 0l0 14.52l-15.5 0Z" id="p161w163" />
<path d="M383.24 714.4l36.88 0l0 14.52l-36.88 0Z" id="p161w164" />
<path d="M423.33 714.4l13.63 0l0 14.52l-13.63 0Z" id="p161w165" />
<path d="M440.17 714.33l69.6 0l0 14.6l-69.6 0Z" id="p161w166" />
<path d="M512.98 714.33l42.74 0l0 14.6l-42.74 0Z" id="p161w167" />
<path d="M124.06 731.07l11.22 0l0 14.52l-11.22 0Z" id="p161w168" />
<path d="M138.49 731.07l41.45 0l0 14.52l-41.45 0Z" id="p161w169" />
<path d="M183.14 731.07l25.67 0l0 14.52l-25.67 0Z" id="p161w170" />
<path d="M212.02 731.07l40.64 0l0 14.52l-40.64 0Z" id="p161w171" />
<path d="M255.87 731.07l37.68 0l0 14.52l-37.68 0Z" id="p161w172" />
<path d="M296.76 731.07l9.89 0l0 14.52l-9.89 0Z" id="p161w173" />
<path d="M309.85 731.07l35.29 0l0 14.52l-35.29 0Z" id="p161w174" />
<path d="M348.36 731.07l55 0l0 14.52l-55 0Z" id="p161w175" />
<path d="M143.75 757.86l30.47 0l0 12.29l-30.47 0Z" id="p161w176" />
<path d="M183.05 756.08l6.15 0l0 14.52l-6.15 0Z" id="p161w177" />
<path d="M209.81 756.08l40.61 0l0 14.52l-40.61 0Z" id="p161w178" />
<path d="M253.64 756.08l36.34 0l0 14.52l-36.34 0Z" id="p161w179" />
<path d="M293.18 756.08l15.5 0l0 14.52l-15.5 0Z" id="p161w180" />
<path d="M311.88 756.08l50.62 0l0 14.52l-50.62 0Z" id="p161w181" />
<path d="M365.71 756.08l13.9 0l0 14.52l-13.9 0Z" id="p161w182" />
<path d="M382.82 756.08l62.21 0l0 14.52l-62.21 0Z" id="p161w183" />
<path d="M143.75 774.53l10.84 0l0 12.29l-10.84 0Z" id="p161w184" />
<path d="M157.29 774.53l24.33 0l0 12.29l-24.33 0Z" id="p161w185" />
<path d="M190.45 772.76l36.1 0l0 14.52l-36.1 0Z" id="p161w186" />
<path d="M229.76 772.76l26.46 0l0 14.52l-26.46 0Z" id="p161w187" />
<path d="M259.08 772.76l12.41 0l0 14.52l-12.41 0Z" id="p161w188" />
<path d="M293.65 772.76l50.54 0l0 14.52l-50.54 0Z" id="p161w189" />
<path d="M347.4 772.76l31.53 0l0 14.52l-31.53 0Z" id="p161w190" />
<path d="M392.03 772.76l29.66 0l0 14.52l-29.66 0Z" id="p161w191" />
<path d="M424.89 772.76l40.92 0l0 14.52l-40.92 0Z" id="p161w192" />
<path d="M469.02 772.76l20.05 0l0 14.52l-20.05 0Z" id="p161w193" />
<path d="M492.28 772.76l41.71 0l0 14.52l-41.71 0Z" id="p161w194" />
<path d="M157.29 789.43l54.55 0l0 14.52l-54.55 0Z" id="p161w195" />
<path d="M215.05 789.43l13.9 0l0 14.52l-13.9 0Z" id="p161w196" />
<path d="M232.16 789.43l26.66 0l0 14.52l-26.66 0Z" id="p161w197" />
<path d="M262.03 789.43l13.9 0l0 14.52l-13.9 0Z" id="p161w198" />
<path d="M279.13 789.43l62.21 0l0 14.52l-62.21 0Z" id="p161w199" />
<path d="M143.75 807.88l30.47 0l0 12.29l-30.47 0Z" id="p161w200" />
<path d="M183.05 806.1l14.97 0l0 14.52l-14.97 0Z" id="p161w201" />
<path d="M201.23 806.1l24.08 0l0 14.52l-24.08 0Z" id="p161w202" />
<path d="M228.51 806.1l9.62 0l0 14.52l-9.62 0Z" id="p161w203" />
<path d="M260.3 806.1l18.18 0l0 14.52l-18.18 0Z" id="p161w204" />
<path d="M281.68 806.1l19.51 0l0 14.52l-19.51 0Z" id="p161w205" />
<path d="M304.4 806.1l42.25 0l0 14.52l-42.25 0Z" id="p161w206" />
<path d="M349.86 806.1l40.09 0l0 14.52l-40.09 0Z" id="p161w207" />
<path d="M393.15 806.1l25.67 0l0 14.52l-25.67 0Z" id="p161w208" />
<path d="M422.03 806.1l19.51 0l0 14.52l-19.51 0Z" id="p161w209" />
<path d="M444.75 806.1l26.66 0l0 14.52l-26.66 0Z" id="p161w210" />
<path d="M474.62 806.1l13.9 0l0 14.52l-13.9 0Z" id="p161w211" />
<path d="M491.72 806.1l19.79 0l0 14.52l-19.79 0Z" id="p161w212" />
<path d="M514.72 806.1l23.19 0l0 14.52l-23.19 0Z" id="p161w213" />
<path d="M143.75 824.55l10.84 0l0 12.29l-10.84 0Z" id="p161w214" />
<path d="M157.29 824.55l24.33 0l0 12.29l-24.33 0Z" id="p161w215" />
<path d="M190.45 822.77l10.43 0l0 14.52l-10.43 0Z" id="p161w216" />
<path d="M204.09 822.77l23.79 0l0 14.52l-23.79 0Z" id="p161w217" />
<path d="M231.08 822.77l26.45 0l0 14.52l-26.45 0Z" id="p161w218" />
<path d="M260.74 822.77l51.49 0l0 14.52l-51.49 0Z" id="p161w219" />
<path d="M315.44 822.77l35.82 0l0 14.52l-35.82 0Z" id="p161w220" />
<path d="M373.43 822.77l50.54 0l0 14.52l-50.54 0Z" id="p161w221" />
<path d="M427.18 822.77l11.22 0l0 14.52l-11.22 0Z" id="p161w222" />
<path d="M441.6 822.77l49.46 0l0 14.52l-49.46 0Z" id="p161w223" />
<path d="M494.27 822.77l20.85 0l0 14.52l-20.85 0Z" id="p161w224" />
<path d="M157.29 839.44l38.21 0l0 14.52l-38.21 0Z" id="p161w225" />
<path d="M198.71 839.44l13.91 0l0 14.52l-13.91 0Z" id="p161w226" />
<path d="M215.83 839.44l6.41 0l0 14.52l-6.41 0Z" id="p161w227" />
<path d="M244.43 839.44l14.18 0l0 14.52l-14.18 0Z" id="p161w228" />
<path d="M261.81 839.44l38.44 0l0 14.52l-38.44 0Z" id="p161w229" />
<path d="M303.46 839.44l13.9 0l0 14.52l-13.9 0Z" id="p161w230" />
<path d="M320.56 839.44l18.72 0l0 14.52l-18.72 0Z" id="p161w231" />
<path d="M342.49 839.44l23.19 0l0 14.52l-23.19 0Z" id="p161w232" />
<path d="M368.89 839.44l11.5 0l0 14.52l-11.5 0Z" id="p161w233" />
<path d="M383.59 839.44l39.65 0l0 14.52l-39.65 0Z" id="p161w234" />
<path d="M426.45 839.44l58.02 0l0 14.52l-58.02 0Z" id="p161w235" />
<path d="M487.68 839.44l6.41 0l0 14.52l-6.41 0Z" id="p161w236" />
<path d="M516.26 839.45l36.35 0l0 14.52l-36.35 0Z" id="p161w237" />
<path d="M157.29 856.12l25.67 0l0 14.52l-25.67 0Z" id="p161w238" />
<path d="M186.17 856.12l29.42 0l0 14.52l-29.42 0Z" id="p161w239" />
<path d="M143.75 874.57l30.47 0l0 12.29l-30.47 0Z" id="p161w240" />
<path d="M183.05 872.79l27.53 0l0 14.52l-27.53 0Z" id="p161w241" />
<path d="M213.79 872.79l11.22 0l0 14.52l-11.22 0Z" id="p161w242" />
<path d="M228.22 872.79l17.38 0l0 14.52l-17.38 0Z" id="p161w243" />
<path d="M248.81 872.79l33.05 0l0 14.52l-33.05 0Z" id="p161w244" />
<path d="M285.07 872.79l20.85 0l0 14.52l-20.85 0Z" id="p161w245" />
<path d="M309.13 872.79l25.67 0l0 14.52l-25.67 0Z" id="p161w246" />
<path d="M356.97 872.79l50.54 0l0 14.52l-50.54 0Z" id="p161w247" />
<path d="M410.72 872.79l41.25 0l0 14.52l-41.25 0Z" id="p161w248" />
<path d="M465.06 872.79l31.53 0l0 14.52l-31.53 0Z" id="p161w249" />
<path d="M499.8 872.79l39.47 0l0 14.52l-39.47 0Z" id="p161w250" />
<path d="M143.75 891.24l10.84 0l0 12.29l-10.84 0Z" id="p161w251" />
<path d="M157.29 891.24l24.33 0l0 12.29l-24.33 0Z" id="p161w252" />
<path d="M190.45 889.47l25.13 0l0 14.52l-25.13 0Z" id="p161w253" />
<path d="M218.79 889.47l17.11 0l0 14.52l-17.11 0Z" id="p161w254" />
<path d="M245.71 889.47l17.65 0l0 14.52l-17.65 0Z" id="p161w255" />
<path d="M266.56 889.47l33.95 0l0 14.52l-33.95 0Z" id="p161w256" />
<path d="M322.68 889.47l71.87 0l0 14.52l-71.87 0Z" id="p161w257" />
<path d="M397.75 889.47l51.49 0l0 14.52l-51.49 0Z" id="p161w258" />
<path d="M452.45 889.47l28.06 0l0 14.52l-28.06 0Z" id="p161w259" />
<path d="M167.18 906.14l14.18 0l0 14.52l-14.18 0Z" id="p161w260" />
<path d="M184.56 906.14l39.51 0l0 14.52l-39.51 0Z" id="p161w261" />
<path d="M227.27 906.14l13.9 0l0 14.52l-13.9 0Z" id="p161w262" />
<path d="M244.38 906.14l72.85 0l0 14.52l-72.85 0Z" id="p161w263" />
<path d="M143.75 924.59l30.47 0l0 12.29l-30.47 0Z" id="p161w264" />
<path d="M183.05 922.81l14.97 0l0 14.52l-14.97 0Z" id="p161w265" />
<path d="M201.23 922.81l21.4 0l0 14.52l-21.4 0Z" id="p161w266" />
<path d="M232.79 922.81l10.43 0l0 14.52l-10.43 0Z" id="p161w267" />
<path d="M246.42 922.81l19.07 0l0 14.52l-19.07 0Z" id="p161w268" />
<path d="M268.7 922.81l19.51 0l0 14.52l-19.51 0Z" id="p161w269" />
<path d="M291.42 922.81l29.94 0l0 14.52l-29.94 0Z" id="p161w270" />
<path d="M324.56 922.81l13.9 0l0 14.52l-13.9 0Z" id="p161w271" />
<path d="M341.67 922.81l23.24 0l0 14.52l-23.24 0Z" id="p161w272" />
<path d="M368.12 922.81l33.95 0l0 14.52l-33.95 0Z" id="p161w273" />
<path d="M405.28 922.81l13.9 0l0 14.52l-13.9 0Z" id="p161w274" />
<path d="M422.38 922.81l50.62 0l0 14.52l-50.62 0Z" id="p161w275" />
<path d="M127.99 228.63l19.19 0l0 13.91l-19.19 0Z" id="p161w276" />
<path d="M150.22 228.63l35.7 0l0 13.91l-35.7 0Z" id="p161w277" />
<path d="M188.96 228.63l12.92 0l0 13.91l-12.92 0Z" id="p161w278" />
<path d="M204.91 228.63l42.99 0l0 13.91l-42.99 0Z" id="p161w279" />
<path d="M250.94 228.63l31.65 0l0 13.91l-31.65 0Z" id="p161w280" />
<path d="M127.99 243.91l76.13 0l0 13.91l-76.13 0Z" id="p161w281" />
<path d="M207.15 243.91l91.18 0l0 13.91l-91.18 0Z" id="p161w282" />
<path d="M127.99 259.19l26.08 0l0 13.91l-26.08 0Z" id="p161w283" />
<path d="M157.11 259.19l12.92 0l0 13.91l-12.92 0Z" id="p161w284" />
<path d="M173.07 259.19l42.99 0l0 13.91l-42.99 0Z" id="p161w285" />
<path d="M219.09 259.19l28 0l0 13.91l-28 0Z" id="p161w286" />
<path d="M127.99 274.47l54.17 0l0 13.91l-54.17 0Z" id="p161w287" />
<path d="M185.03 274.47l61.66 0l0 13.91l-61.66 0Z" id="p161w288" />
<path d="M249.73 274.47l38.95 0l0 13.91l-38.95 0Z" id="p161w289" />
<path d="M127.99 289.75l17.49 0l0 13.91l-17.49 0Z" id="p161w290" />
<path d="M148.52 289.75l41.65 0l0 13.91l-41.65 0Z" id="p161w291" />
<path d="M193.21 289.75l21.93 0l0 13.91l-21.93 0Z" id="p161w292" />
<path d="M218.18 289.75l45.62 0l0 13.91l-45.62 0Z" id="p161w293" />
<path d="M127.99 305.03l38.5 0l0 13.91l-38.5 0Z" id="p161w294" />
<path d="M127.99 335.59l21.02 0l0 13.91l-21.02 0Z" id="p161w295" />
<path d="M152.04 335.59l19.76 0l0 13.91l-19.76 0Z" id="p161w296" />
<path d="M183.19 335.59l21.02 0l0 13.91l-21.02 0Z" id="p161w297" />
<path d="M207.25 335.59l19.76 0l0 13.91l-19.76 0Z" id="p161w298" />
<path d="M329.5 259.16l19.19 0l0 13.91l-19.19 0Z" id="p161w299" />
<path d="M351.73 259.16l26.08 0l0 13.91l-26.08 0Z" id="p161w300" />
<path d="M380.85 259.16l27.95 0l0 13.91l-27.95 0Z" id="p161w301" />
<path d="M411.84 259.16l60.22 0l0 13.91l-60.22 0Z" id="p161w302" />
<path d="M475.1 259.16l16.96 0l0 13.91l-16.96 0Z" id="p161w303" />
<path d="M329.5 274.44l15.46 0l0 13.91l-15.46 0Z" id="p161w304" />
<path d="M347.99 274.44l20.65 0l0 13.91l-20.65 0Z" id="p161w305" />
<path d="M371.51 274.44l64.91 0l0 13.91l-64.91 0Z" id="p161w306" />
<path d="M439.46 274.44l31.34 0l0 13.91l-31.34 0Z" id="p161w307" />
<path d="M329.5 305l21.02 0l0 13.91l-21.02 0Z" id="p161w308" />
<path d="M353.56 305l19.76 0l0 13.91l-19.76 0Z" id="p161w309" />
<path d="M384.7 305l21.02 0l0 13.91l-21.02 0Z" id="p161w310" />
<path d="M408.76 305l19.76 0l0 13.91l-19.76 0Z" id="p161w311" />
<path d="M530.89 251.55l19.19 0l0 13.91l-19.19 0Z" id="p161w312" />
<path d="M553.12 251.55l69.88 0l0 13.91l-69.88 0Z" id="p161w313" />
<path d="M626.04 251.55l33.82 0l0 13.91l-33.82 0Z" id="p161w314" />
<path d="M530.89 266.83l74.14 0l0 13.91l-74.14 0Z" id="p161w315" />
<path d="M608.07 266.83l19.48 0l0 13.91l-19.48 0Z" id="p161w316" />
<path d="M630.59 266.83l35.7 0l0 13.91l-35.7 0Z" id="p161w317" />
<path d="M530.89 282.11l40.65 0l0 13.91l-40.65 0Z" id="p161w318" />
<path d="M574.58 282.11l9.62 0l0 13.91l-9.62 0Z" id="p161w319" />
<path d="M587.24 282.11l36.46 0l0 13.91l-36.46 0Z" id="p161w320" />
<path d="M626.74 282.11l17.97 0l0 13.91l-17.97 0Z" id="p161w321" />
<path d="M530.89 312.67l21.02 0l0 13.91l-21.02 0Z" id="p161w322" />
<path d="M554.95 312.67l19.76 0l0 13.91l-19.76 0Z" id="p161w323" />
<path d="M586.1 312.67l21.02 0l0 13.91l-21.02 0Z" id="p161w324" />
<path d="M610.16 312.67l19.76 0l0 13.91l-19.76 0Z" id="p161w325" />
<path d="M614.81 762.94l54.46 0l0 14.52l-54.46 0Z" id="p161w326" />
<path d="M615.78 801.68l21.66 0l0 14.52l-21.66 0Z" id="p161w327" />
<path d="M637.44 801.68l22.99 0l0 14.52l-22.99 0Z" id="p161w328" />
<path d="M663.64 801.68l26.99 0l0 14.52l-26.99 0Z" id="p161w329" />
<path d="M615.52 840.43l43.85 0l0 14.52l-43.85 0Z" id="p161w330" />
<path d="M615.35 879.17l61.69 0l0 14.52l-61.69 0Z" id="p161w331" />
<path d="M615.78 917.92l65.17 0l0 14.52l-65.17 0Z" id="p161w332" />
<path d="M530.89 251.55l19.19 0l0 13.91l-19.19 0Z" id="p161w333" />
<path d="M553.12 251.55l69.88 0l0 13.91l-69.88 0Z" id="p161w334" />
<path d="M626.04 251.55l33.82 0l0 13.91l-33.82 0Z" id="p161w335" />
<path d="M530.89 266.83l74.14 0l0 13.91l-74.14 0Z" id="p161w336" />
<path d="M608.07 266.83l19.48 0l0 13.91l-19.48 0Z" id="p161w337" />
<path d="M630.59 266.83l35.7 0l0 13.91l-35.7 0Z" id="p161w338" />
<path d="M530.89 282.12l40.65 0l0 13.91l-40.65 0Z" id="p161w339" />
<path d="M574.58 282.12l9.62 0l0 13.91l-9.62 0Z" id="p161w340" />
<path d="M587.24 282.12l36.46 0l0 13.91l-36.46 0Z" id="p161w341" />
<path d="M626.74 282.12l17.97 0l0 13.91l-17.97 0Z" id="p161w342" />
<path d="M530.89 312.68l21.02 0l0 13.91l-21.02 0Z" id="p161w343" />
<path d="M554.95 312.68l19.76 0l0 13.91l-19.76 0Z" id="p161w344" />
<path d="M586.1 312.68l21.02 0l0 13.91l-21.02 0Z" id="p161w345" />
<path d="M610.16 312.68l19.76 0l0 13.91l-19.76 0Z" id="p161w346" />
<path d="M68.27 38.6l62.95 0l0 16.09l-62.95 0Z" id="p161w347" />
<path d="M596.47 983l94.63 0l0 12.23l-94.63 0Z" id="p161w348" />
<path d="M341.25 295.41l34.73 0l0 14.52l-34.73 0Z" id="p161w349" />
<path d="M147.78 202.73l19.51 0l0 14.52l-19.51 0Z" id="p161w350" />
<path d="M170.5 202.73l45.64 0l0 14.52l-45.64 0Z" id="p161w351" />
<path d="M219.35 202.73l24.33 0l0 14.52l-24.33 0Z" id="p161w352" />
<path d="M144.14 216.63l49.71 0l0 14.52l-49.71 0Z" id="p161w353" />
<path d="M197.05 216.63l43.31 0l0 14.52l-43.31 0Z" id="p161w354" />
</svg>
