<?xml version="1.0" encoding="UTF-8"?>
<svg xmlns="http://www.w3.org/2000/svg" xmlns:xlink="http://www.w3.org/1999/xlink" version="1.1" baseProfile="full" width="768" height="1024" viewBox="0,0,768,1024" preserveAspectRatio="xMinYMin meet" >
<style type="text/css">
<![CDATA[
path {fill-opacity: 0.5;fill: #00aeef;visibility: hidden;}
]]>
</style>
<path d="M124.06 38.6l63.12 0l0 16.09l-63.12 0Z" id="p270w1" />
<path d="M76.9 981.95l110.1 0l0 12.23l-110.1 0Z" id="p270w2" />
<path d="M124.06 108.68l42.85 0l0 18.84l-42.85 0Z" id="p270w3" />
<path d="M185.84 108.68l38.46 0l0 18.84l-38.46 0Z" id="p270w4" />
<path d="M124.06 135.5l31.81 0l0 12.61l-31.81 0Z" id="p270w5" />
<path d="M158.66 135.5l27.17 0l0 12.61l-27.17 0Z" id="p270w6" />
<path d="M188.61 135.5l9.74 0l0 12.61l-9.74 0Z" id="p270w7" />
<path d="M201.14 135.5l10.67 0l0 12.61l-10.67 0Z" id="p270w8" />
<path d="M214.6 135.5l29.24 0l0 12.61l-29.24 0Z" id="p270w9" />
<path d="M246.62 135.5l21.13 0l0 12.61l-21.13 0Z" id="p270w10" />
<path d="M270.53 135.5l34.57 0l0 12.61l-34.57 0Z" id="p270w11" />
<path d="M307.89 135.5l12.07 0l0 12.61l-12.07 0Z" id="p270w12" />
<path d="M322.75 135.5l55.28 0l0 12.61l-55.28 0Z" id="p270w13" />
<path d="M124.06 150.1l13.46 0l0 12.61l-13.46 0Z" id="p270w14" />
<path d="M140.31 150.1l36.9 0l0 12.61l-36.9 0Z" id="p270w15" />
<path d="M179.99 150.1l13.46 0l0 12.61l-13.46 0Z" id="p270w16" />
<path d="M196.23 150.1l56.63 0l0 12.61l-56.63 0Z" id="p270w17" />
<path d="M264.23 150.1l8.59 0l0 12.61l-8.59 0Z" id="p270w18" />
<path d="M275.6 150.1l24.08 0l0 12.61l-24.08 0Z" id="p270w19" />
<path d="M302.47 150.1l16.01 0l0 12.61l-16.01 0Z" id="p270w20" />
<path d="M321.27 150.1l30.4 0l0 12.61l-30.4 0Z" id="p270w21" />
<path d="M354.45 150.1l34.34 0l0 12.61l-34.34 0Z" id="p270w22" />
<path d="M124.06 164.69l42.25 0l0 12.61l-42.25 0Z" id="p270w23" />
<path d="M169.1 164.69l12.07 0l0 12.61l-12.07 0Z" id="p270w24" />
<path d="M183.96 164.69l18.57 0l0 12.61l-18.57 0Z" id="p270w25" />
<path d="M205.31 164.69l36.63 0l0 12.61l-36.63 0Z" id="p270w26" />
<path d="M244.73 164.69l10.91 0l0 12.61l-10.91 0Z" id="p270w27" />
<path d="M258.43 164.69l16.25 0l0 12.61l-16.25 0Z" id="p270w28" />
<path d="M277.47 164.69l36.68 0l0 12.61l-36.68 0Z" id="p270w29" />
<path d="M325.52 164.69l23.44 0l0 12.61l-23.44 0Z" id="p270w30" />
<path d="M351.75 164.69l36.9 0l0 12.61l-36.9 0Z" id="p270w31" />
<path d="M131.57 179.28l13.7 0l0 12.61l-13.7 0Z" id="p270w32" />
<path d="M156.64 179.28l25.53 0l0 12.61l-25.53 0Z" id="p270w33" />
<path d="M184.95 179.28l25.77 0l0 12.61l-25.77 0Z" id="p270w34" />
<path d="M213.51 179.28l8.59 0l0 12.61l-8.59 0Z" id="p270w35" />
<path d="M224.88 179.28l19.5 0l0 12.61l-19.5 0Z" id="p270w36" />
<path d="M247.16 179.28l9.74 0l0 12.61l-9.74 0Z" id="p270w37" />
<path d="M259.69 179.28l5.57 0l0 12.61l-5.57 0Z" id="p270w38" />
<path d="M276.63 179.28l16.24 0l0 12.61l-16.24 0Z" id="p270w39" />
<path d="M295.66 179.28l26.93 0l0 12.61l-26.93 0Z" id="p270w40" />
<path d="M325.37 179.28l23.91 0l0 12.61l-23.91 0Z" id="p270w41" />
<path d="M352.07 179.28l19.97 0l0 12.61l-19.97 0Z" id="p270w42" />
<path d="M124.06 193.87l8.59 0l0 12.61l-8.59 0Z" id="p270w43" />
<path d="M135.44 193.87l30.4 0l0 12.61l-30.4 0Z" id="p270w44" />
<path d="M182.17 193.87l40.39 0l0 12.61l-40.39 0Z" id="p270w45" />
<path d="M225.35 193.87l18.11 0l0 12.61l-18.11 0Z" id="p270w46" />
<path d="M246.24 193.87l13.46 0l0 12.61l-13.46 0Z" id="p270w47" />
<path d="M262.49 193.87l36.9 0l0 12.61l-36.9 0Z" id="p270w48" />
<path d="M302.17 193.87l51.54 0l0 12.61l-51.54 0Z" id="p270w49" />
<path d="M356.49 193.87l23.44 0l0 12.61l-23.44 0Z" id="p270w50" />
<path d="M124.06 208.46l43.64 0l0 12.61l-43.64 0Z" id="p270w51" />
<path d="M170.49 208.46l42.7 0l0 12.61l-42.7 0Z" id="p270w52" />
<path d="M215.97 208.46l41.55 0l0 12.61l-41.55 0Z" id="p270w53" />
<path d="M260.31 208.46l15.1 0l0 12.61l-15.1 0Z" id="p270w54" />
<path d="M278.19 208.46l36.45 0l0 12.61l-36.45 0Z" id="p270w55" />
<path d="M317.43 208.46l38.31 0l0 12.61l-38.31 0Z" id="p270w56" />
<path d="M358.52 208.46l15.54 0l0 12.61l-15.54 0Z" id="p270w57" />
<path d="M124.06 223.05l38.53 0l0 12.61l-38.53 0Z" id="p270w58" />
<path d="M165.38 223.05l45.04 0l0 12.61l-45.04 0Z" id="p270w59" />
<path d="M213.2 223.05l15.54 0l0 12.61l-15.54 0Z" id="p270w60" />
<path d="M231.53 223.05l39.45 0l0 12.61l-39.45 0Z" id="p270w61" />
<path d="M273.77 223.05l12.07 0l0 12.61l-12.07 0Z" id="p270w62" />
<path d="M288.62 223.05l27.4 0l0 12.61l-27.4 0Z" id="p270w63" />
<path d="M318.49 223.05l20.68 0l0 12.61l-20.68 0Z" id="p270w64" />
<path d="M350.54 223.05l25.79 0l0 12.61l-25.79 0Z" id="p270w65" />
<path d="M379.12 223.05l17.17 0l0 12.61l-17.17 0Z" id="p270w66" />
<path d="M132.65 237.65l17.64 0l0 12.61l-17.64 0Z" id="p270w67" />
<path d="M166.16 237.65l13.7 0l0 12.61l-13.7 0Z" id="p270w68" />
<path d="M182.64 237.65l18.58 0l0 12.61l-18.58 0Z" id="p270w69" />
<path d="M210.05 237.65l5.34 0l0 12.61l-5.34 0Z" id="p270w70" />
<path d="M218.17 237.65l8.59 0l0 12.61l-8.59 0Z" id="p270w71" />
<path d="M229.54 237.65l29.72 0l0 12.61l-29.72 0Z" id="p270w72" />
<path d="M262.05 237.65l20.19 0l0 12.61l-20.19 0Z" id="p270w73" />
<path d="M285.02 237.65l39.45 0l0 12.61l-39.45 0Z" id="p270w74" />
<path d="M327.26 237.65l12.07 0l0 12.61l-12.07 0Z" id="p270w75" />
<path d="M342.12 237.65l25.07 0l0 12.61l-25.07 0Z" id="p270w76" />
<path d="M369.97 237.65l23.21 0l0 12.61l-23.21 0Z" id="p270w77" />
<path d="M124.06 252.24l8.59 0l0 12.61l-8.59 0Z" id="p270w78" />
<path d="M135.44 252.24l22.51 0l0 12.61l-22.51 0Z" id="p270w79" />
<path d="M174.28 252.24l16.71 0l0 12.61l-16.71 0Z" id="p270w80" />
<path d="M193.78 252.24l12.07 0l0 12.61l-12.07 0Z" id="p270w81" />
<path d="M208.64 252.24l45.93 0l0 12.61l-45.93 0Z" id="p270w82" />
<path d="M124.06 274.12l28.34 0l0 12.61l-28.34 0Z" id="p270w83" />
<path d="M176.08 274.12l10.77 0l0 12.61l-10.77 0Z" id="p270w84" />
<path d="M189.64 274.12l10.67 0l0 12.61l-10.67 0Z" id="p270w85" />
<path d="M203.1 274.12l11.38 0l0 12.61l-11.38 0Z" id="p270w86" />
<path d="M217.27 274.12l20.9 0l0 12.61l-20.9 0Z" id="p270w87" />
<path d="M240.95 274.12l13.46 0l0 12.61l-13.46 0Z" id="p270w88" />
<path d="M257.19 274.12l42.24 0l0 12.61l-42.24 0Z" id="p270w89" />
<path d="M309.41 274.12l13.7 0l0 12.61l-13.7 0Z" id="p270w90" />
<path d="M325.9 274.12l12.07 0l0 12.61l-12.07 0Z" id="p270w91" />
<path d="M340.75 274.12l10.99 0l0 12.61l-10.99 0Z" id="p270w92" />
<path d="M354.53 274.12l31.33 0l0 12.61l-31.33 0Z" id="p270w93" />
<path d="M124.06 288.71l29.7 0l0 12.61l-29.7 0Z" id="p270w94" />
<path d="M156.55 288.71l23.21 0l0 12.61l-23.21 0Z" id="p270w95" />
<path d="M182.55 288.71l8.59 0l0 12.61l-8.59 0Z" id="p270w96" />
<path d="M193.92 288.71l51.29 0l0 12.61l-51.29 0Z" id="p270w97" />
<path d="M135.37 303.3l35.3 0l0 12.61l-35.3 0Z" id="p270w98" />
<path d="M173.46 303.3l12.31 0l0 12.61l-12.31 0Z" id="p270w99" />
<path d="M197.14 303.3l25.77 0l0 12.61l-25.77 0Z" id="p270w100" />
<path d="M225.69 303.3l8.59 0l0 12.61l-8.59 0Z" id="p270w101" />
<path d="M237.06 303.3l36.45 0l0 12.61l-36.45 0Z" id="p270w102" />
<path d="M276.3 303.3l22.29 0l0 12.61l-22.29 0Z" id="p270w103" />
<path d="M301.38 303.3l8.59 0l0 12.61l-8.59 0Z" id="p270w104" />
<path d="M312.75 303.3l29.47 0l0 12.61l-29.47 0Z" id="p270w105" />
<path d="M124.06 317.9l28.34 0l0 12.61l-28.34 0Z" id="p270w106" />
<path d="M177.47 317.9l20.67 0l0 12.61l-20.67 0Z" id="p270w107" />
<path d="M200.92 317.9l8.36 0l0 12.61l-8.36 0Z" id="p270w108" />
<path d="M212.06 317.9l22.29 0l0 12.61l-22.29 0Z" id="p270w109" />
<path d="M237.14 317.9l18.11 0l0 12.61l-18.11 0Z" id="p270w110" />
<path d="M258.04 317.9l19.97 0l0 12.61l-19.97 0Z" id="p270w111" />
<path d="M280.79 317.9l8.59 0l0 12.61l-8.59 0Z" id="p270w112" />
<path d="M292.16 317.9l38.53 0l0 12.61l-38.53 0Z" id="p270w113" />
<path d="M333.47 317.9l45.74 0l0 12.61l-45.74 0Z" id="p270w114" />
<path d="M135.37 332.49l9.98 0l0 12.61l-9.98 0Z" id="p270w115" />
<path d="M148.14 332.49l20.67 0l0 12.61l-20.67 0Z" id="p270w116" />
<path d="M171.59 332.49l8.36 0l0 12.61l-8.36 0Z" id="p270w117" />
<path d="M182.73 332.49l22.29 0l0 12.61l-22.29 0Z" id="p270w118" />
<path d="M207.81 332.49l37.54 0l0 12.61l-37.54 0Z" id="p270w119" />
<path d="M248.14 332.49l30.64 0l0 12.61l-30.64 0Z" id="p270w120" />
<path d="M281.56 332.49l13.46 0l0 12.61l-13.46 0Z" id="p270w121" />
<path d="M297.8 332.49l50.82 0l0 12.61l-50.82 0Z" id="p270w122" />
<path d="M351.41 332.49l22.43 0l0 12.61l-22.43 0ZM124.06 347.08l39.24 0l0 12.61l-39.24 0Z" id="p270w123" />
<path d="M124.06 361.67l28.34 0l0 12.61l-28.34 0Z" id="p270w124" />
<path d="M177.47 361.67l26.24 0l0 12.61l-26.24 0Z" id="p270w125" />
<path d="M206.49 361.67l8.36 0l0 12.61l-8.36 0Z" id="p270w126" />
<path d="M217.63 361.67l37.15 0l0 12.61l-37.15 0Z" id="p270w127" />
<path d="M257.57 361.67l25.77 0l0 12.61l-25.77 0Z" id="p270w128" />
<path d="M286.12 361.67l41.31 0l0 12.61l-41.31 0Z" id="p270w129" />
<path d="M330.22 361.67l57.81 0l0 12.61l-57.81 0Z" id="p270w130" />
<path d="M124.06 376.26l56.4 0l0 12.61l-56.4 0Z" id="p270w131" />
<path d="M135.37 390.85l9.98 0l0 12.61l-9.98 0Z" id="p270w132" />
<path d="M148.14 390.85l24.37 0l0 12.61l-24.37 0Z" id="p270w133" />
<path d="M175.29 390.85l20.9 0l0 12.61l-20.9 0Z" id="p270w134" />
<path d="M198.97 390.85l13.46 0l0 12.61l-13.46 0Z" id="p270w135" />
<path d="M215.22 390.85l46.13 0l0 12.61l-46.13 0Z" id="p270w136" />
<path d="M264.13 390.85l46.42 0l0 12.61l-46.42 0Z" id="p270w137" />
<path d="M313.33 390.85l18.58 0l0 12.61l-18.58 0Z" id="p270w138" />
<path d="M124.06 412.74l12.07 0l0 12.61l-12.07 0Z" id="p270w139" />
<path d="M138.92 412.74l30.64 0l0 12.61l-30.64 0Z" id="p270w140" />
<path d="M172.35 412.74l42.7 0l0 12.61l-42.7 0Z" id="p270w141" />
<path d="M217.83 412.74l41.55 0l0 12.61l-41.55 0Z" id="p270w142" />
<path d="M262.17 412.74l21.11 0l0 12.61l-21.11 0Z" id="p270w143" />
<path d="M286.07 412.74l25.53 0l0 12.61l-25.53 0Z" id="p270w144" />
<path d="M331.32 412.74l35.05 0l0 12.61l-35.05 0Z" id="p270w145" />
<path d="M369.16 412.74l25 0l0 12.61l-25 0ZM124.06 427.33l23.44 0l0 12.61l-23.44 0Z" id="p270w146" />
<path d="M149.91 427.33l32.74 0l0 12.61l-32.74 0Z" id="p270w147" />
<path d="M185.44 427.33l9.74 0l0 12.61l-9.74 0Z" id="p270w148" />
<path d="M197.96 427.33l17.17 0l0 12.61l-17.17 0Z" id="p270w149" />
<path d="M217.92 427.33l10.67 0l0 12.61l-10.67 0Z" id="p270w150" />
<path d="M231.38 427.33l21.13 0l0 12.61l-21.13 0Z" id="p270w151" />
<path d="M255.29 427.33l45.49 0l0 12.61l-45.49 0Z" id="p270w152" />
<path d="M312.15 427.33l8.59 0l0 12.61l-8.59 0Z" id="p270w153" />
<path d="M323.52 427.33l24.08 0l0 12.61l-24.08 0Z" id="p270w154" />
<path d="M124.06 442.12l24.42 0l0 12.29l-24.42 0Z" id="p270w155" />
<path d="M151.19 442.12l40.45 0l0 12.29l-40.45 0Z" id="p270w156" />
<path d="M199.96 441.87l12.07 0l0 12.61l-12.07 0Z" id="p270w157" />
<path d="M214.81 441.87l13.32 0l0 12.61l-13.32 0Z" id="p270w158" />
<path d="M230.92 441.87l12.77 0l0 12.61l-12.77 0Z" id="p270w159" />
<path d="M253.36 441.87l10.77 0l0 12.61l-10.77 0Z" id="p270w160" />
<path d="M266.92 441.87l10.67 0l0 12.61l-10.67 0Z" id="p270w161" />
<path d="M280.38 441.87l17.02 0l0 12.61l-17.02 0Z" id="p270w162" />
<path d="M300.19 441.87l45.86 0l0 12.61l-45.86 0Z" id="p270w163" />
<path d="M348.52 441.87l10.77 0l0 12.61l-10.77 0Z" id="p270w164" />
<path d="M362.08 441.87l16.24 0l0 12.61l-16.24 0Z" id="p270w165" />
<path d="M124.06 456.46l34.38 0l0 12.61l-34.38 0Z" id="p270w166" />
<path d="M161.23 456.46l19.73 0l0 12.61l-19.73 0Z" id="p270w167" />
<path d="M138.33 471.29l32.11 0l0 12.29l-32.11 0Z" id="p270w168" />
<path d="M178.85 471.04l22.07 0l0 12.61l-22.07 0Z" id="p270w169" />
<path d="M203.7 471.04l8.36 0l0 12.61l-8.36 0Z" id="p270w170" />
<path d="M214.84 471.04l12.07 0l0 12.61l-12.07 0Z" id="p270w171" />
<path d="M229.69 471.04l15.31 0l0 12.61l-15.31 0Z" id="p270w172" />
<path d="M247.79 471.04l18.57 0l0 12.61l-18.57 0Z" id="p270w173" />
<path d="M269.15 471.04l16.94 0l0 12.61l-16.94 0Z" id="p270w174" />
<path d="M288.88 471.04l34.38 0l0 12.61l-34.38 0Z" id="p270w175" />
<path d="M326.04 471.04l22.05 0l0 12.61l-22.05 0Z" id="p270w176" />
<path d="M350.88 471.04l22.97 0l0 12.61l-22.97 0Z" id="p270w177" />
<path d="M376.63 471.04l5.57 0l0 12.61l-5.57 0Z" id="p270w178" />
<path d="M124.07 485.64l23.52 0l0 12.61l-23.52 0Z" id="p270w179" />
<path d="M150.37 485.64l18.11 0l0 12.61l-18.11 0Z" id="p270w180" />
<path d="M171.27 485.64l19.26 0l0 12.61l-19.26 0Z" id="p270w181" />
<path d="M193.31 485.64l22.29 0l0 12.61l-22.29 0Z" id="p270w182" />
<path d="M218.39 485.64l13.46 0l0 12.61l-13.46 0Z" id="p270w183" />
<path d="M234.63 485.64l38.77 0l0 12.61l-38.77 0Z" id="p270w184" />
<path d="M281.76 485.64l22.04 0l0 12.61l-22.04 0Z" id="p270w185" />
<path d="M306.59 485.64l10.67 0l0 12.61l-10.67 0Z" id="p270w186" />
<path d="M320.04 485.64l21.13 0l0 12.61l-21.13 0Z" id="p270w187" />
<path d="M343.95 485.64l42.7 0l0 12.61l-42.7 0Z" id="p270w188" />
<path d="M124.07 500.23l25.77 0l0 12.61l-25.77 0Z" id="p270w189" />
<path d="M152.62 500.23l8.59 0l0 12.61l-8.59 0Z" id="p270w190" />
<path d="M163.99 500.23l21.37 0l0 12.61l-21.37 0Z" id="p270w191" />
<path d="M188.14 500.23l9.74 0l0 12.61l-9.74 0Z" id="p270w192" />
<path d="M200.67 500.23l15.31 0l0 12.61l-15.31 0Z" id="p270w193" />
<path d="M218.77 500.23l34.34 0l0 12.61l-34.34 0Z" id="p270w194" />
<path d="M255.9 500.23l9.74 0l0 12.61l-9.74 0Z" id="p270w195" />
<path d="M268.43 500.23l20.67 0l0 12.61l-20.67 0Z" id="p270w196" />
<path d="M291.88 500.23l23.22 0l0 12.61l-23.22 0Z" id="p270w197" />
<path d="M317.89 500.23l23.22 0l0 12.61l-23.22 0Z" id="p270w198" />
<path d="M343.9 500.23l40.61 0l0 12.61l-40.61 0Z" id="p270w199" />
<path d="M124.07 514.82l37.83 0l0 12.61l-37.83 0Z" id="p270w200" />
<path d="M164.68 514.82l26.93 0l0 12.61l-26.93 0Z" id="p270w201" />
<path d="M194.39 514.82l18.11 0l0 12.61l-18.11 0Z" id="p270w202" />
<path d="M215.29 514.82l23.22 0l0 12.61l-23.22 0Z" id="p270w203" />
<path d="M241.29 514.82l12.07 0l0 12.61l-12.07 0Z" id="p270w204" />
<path d="M256.15 514.82l43.66 0l0 12.61l-43.66 0Z" id="p270w205" />
<path d="M302.6 514.82l16.94 0l0 12.61l-16.94 0Z" id="p270w206" />
<path d="M322.32 514.82l33.68 0l0 12.61l-33.68 0Z" id="p270w207" />
<path d="M136.37 536.7l9.06 0l0 12.61l-9.06 0Z" id="p270w208" />
<path d="M148.21 536.7l15.31 0l0 12.61l-15.31 0Z" id="p270w209" />
<path d="M166.31 536.7l18.57 0l0 12.61l-18.57 0Z" id="p270w210" />
<path d="M187.66 536.7l32.95 0l0 12.61l-32.95 0Z" id="p270w211" />
<path d="M223.4 536.7l13.93 0l0 12.61l-13.93 0Z" id="p270w212" />
<path d="M240.11 536.7l10.91 0l0 12.61l-10.91 0Z" id="p270w213" />
<path d="M253.81 536.7l30.64 0l0 12.61l-30.64 0Z" id="p270w214" />
<path d="M308.68 536.7l40.39 0l0 12.61l-40.39 0Z" id="p270w215" />
<path d="M351.86 536.7l13.46 0l0 12.61l-13.46 0Z" id="p270w216" />
<path d="M124.07 551.29l46.29 0l0 12.61l-46.29 0Z" id="p270w217" />
<path d="M173.14 551.29l12.85 0l0 12.61l-12.85 0Z" id="p270w218" />
<path d="M188.77 551.29l28.55 0l0 12.61l-28.55 0Z" id="p270w219" />
<path d="M220.11 551.29l51.71 0l0 12.61l-51.71 0Z" id="p270w220" />
<path d="M274.6 551.29l8.59 0l0 12.61l-8.59 0Z" id="p270w221" />
<path d="M285.97 551.29l30.64 0l0 12.61l-30.64 0Z" id="p270w222" />
<path d="M339.69 551.29l21.14 0l0 12.61l-21.14 0Z" id="p270w223" />
<path d="M363.61 551.29l5.57 0l0 12.61l-5.57 0Z" id="p270w224" />
<path d="M380.55 551.29l17.42 0l0 12.61l-17.42 0Z" id="p270w225" />
<path d="M136.84 565.88l21.14 0l0 12.61l-21.14 0Z" id="p270w226" />
<path d="M160.76 565.88l8.36 0l0 12.61l-8.36 0Z" id="p270w227" />
<path d="M171.9 565.88l18.57 0l0 12.61l-18.57 0Z" id="p270w228" />
<path d="M193.26 565.88l36.22 0l0 12.61l-36.22 0Z" id="p270w229" />
<path d="M232.26 565.88l30.4 0l0 12.61l-30.4 0Z" id="p270w230" />
<path d="M274.03 565.88l8.59 0l0 12.61l-8.59 0Z" id="p270w231" />
<path d="M285.4 565.88l36.22 0l0 12.61l-36.22 0Z" id="p270w232" />
<path d="M324.41 565.88l19.97 0l0 12.61l-19.97 0Z" id="p270w233" />
<path d="M347.16 565.88l12.85 0l0 12.61l-12.85 0Z" id="p270w234" />
<path d="M362.8 565.88l16.24 0l0 12.61l-16.24 0Z" id="p270w235" />
<path d="M124.07 580.48l20.19 0l0 12.61l-20.19 0Z" id="p270w236" />
<path d="M147.04 580.48l37.38 0l0 12.61l-37.38 0Z" id="p270w237" />
<path d="M208.18 580.48l11.14 0l0 12.61l-11.14 0Z" id="p270w238" />
<path d="M222.11 580.48l25.53 0l0 12.61l-25.53 0Z" id="p270w239" />
<path d="M250.42 580.48l32.91 0l0 12.61l-32.91 0Z" id="p270w240" />
<path d="M286.11 580.48l22.27 0l0 12.61l-22.27 0Z" id="p270w241" />
<path d="M311.17 580.48l26.93 0l0 12.61l-26.93 0Z" id="p270w242" />
<path d="M365.81 580.48l21.29 0l0 12.61l-21.29 0ZM124.07 595.07l22.28 0l0 12.61l-22.28 0Z" id="p270w243" />
<path d="M149.14 595.07l8.59 0l0 12.61l-8.59 0Z" id="p270w244" />
<path d="M160.51 595.07l34.31 0l0 12.61l-34.31 0Z" id="p270w245" />
<path d="M197.6 595.07l39.47 0l0 12.61l-39.47 0Z" id="p270w246" />
<path d="M239.85 595.07l12.31 0l0 12.61l-12.31 0Z" id="p270w247" />
<path d="M254.95 595.07l23.52 0l0 12.61l-23.52 0Z" id="p270w248" />
<path d="M281.25 595.07l12.31 0l0 12.61l-12.31 0Z" id="p270w249" />
<path d="M296.35 595.07l56.58 0l0 12.61l-56.58 0Z" id="p270w250" />
<path d="M355.71 595.07l12.07 0l0 12.61l-12.07 0Z" id="p270w251" />
<path d="M370.57 595.07l17.43 0l0 12.61l-17.43 0Z" id="p270w252" />
<path d="M136.78 609.66l43.2 0l0 12.61l-43.2 0Z" id="p270w253" />
<path d="M182.77 609.66l28.7 0l0 12.61l-28.7 0Z" id="p270w254" />
<path d="M214.25 609.66l18.11 0l0 12.61l-18.11 0Z" id="p270w255" />
<path d="M235.15 609.66l9.98 0l0 12.61l-9.98 0Z" id="p270w256" />
<path d="M247.92 609.66l17.17 0l0 12.61l-17.17 0Z" id="p270w257" />
<path d="M267.88 609.66l39.48 0l0 12.61l-39.48 0Z" id="p270w258" />
<path d="M310.14 609.66l8.59 0l0 12.61l-8.59 0Z" id="p270w259" />
<path d="M321.51 609.66l15.8 0l0 12.61l-15.8 0Z" id="p270w260" />
<path d="M368.74 609.66l27.54 0l0 12.61l-27.54 0ZM124.07 624.25l28.36 0l0 12.61l-28.36 0Z" id="p270w261" />
<path d="M155.21 624.25l10.67 0l0 12.61l-10.67 0Z" id="p270w262" />
<path d="M168.67 624.25l30.88 0l0 12.61l-30.88 0Z" id="p270w263" />
<path d="M210.92 624.25l19.03 0l0 12.61l-19.03 0Z" id="p270w264" />
<path d="M232.73 624.25l12.07 0l0 12.61l-12.07 0Z" id="p270w265" />
<path d="M247.59 624.25l25.77 0l0 12.61l-25.77 0Z" id="p270w266" />
<path d="M294.1 624.25l36.84 0l0 12.61l-36.84 0Z" id="p270w267" />
<path d="M333.73 624.25l10.67 0l0 12.61l-10.67 0Z" id="p270w268" />
<path d="M347.19 624.25l30.88 0l0 12.61l-30.88 0Z" id="p270w269" />
<path d="M389.44 624.25l8.59 0l0 12.61l-8.59 0Z" id="p270w270" />
<path d="M124.07 638.84l42.01 0l0 12.61l-42.01 0Z" id="p270w271" />
<path d="M168.86 638.84l22.05 0l0 12.61l-22.05 0Z" id="p270w272" />
<path d="M193.7 638.84l57.75 0l0 12.61l-57.75 0Z" id="p270w273" />
<path d="M271.97 638.84l28.94 0l0 12.61l-28.94 0Z" id="p270w274" />
<path d="M303.7 638.84l18.11 0l0 12.61l-18.11 0Z" id="p270w275" />
<path d="M324.59 638.84l9.98 0l0 12.61l-9.98 0Z" id="p270w276" />
<path d="M337.36 638.84l10.67 0l0 12.61l-10.67 0Z" id="p270w277" />
<path d="M350.82 638.84l12.07 0l0 12.61l-12.07 0Z" id="p270w278" />
<path d="M365.67 638.84l30.63 0l0 12.61l-30.63 0Z" id="p270w279" />
<path d="M124.07 653.44l18.8 0l0 12.61l-18.8 0Z" id="p270w280" />
<path d="M124.06 692.23l42.85 0l0 18.84l-42.85 0Z" id="p270w281" />
<path d="M187.29 692.23l38.46 0l0 18.84l-38.46 0Z" id="p270w282" />
<path d="M124.06 719.3l19.9 0l0 12.29l-19.9 0Z" id="p270w283" />
<path d="M152.37 719.05l56.82 0l0 12.61l-56.82 0Z" id="p270w284" />
<path d="M211.98 719.05l8.36 0l0 12.61l-8.36 0Z" id="p270w285" />
<path d="M223.12 719.05l12.07 0l0 12.61l-12.07 0Z" id="p270w286" />
<path d="M237.97 719.05l18.57 0l0 12.61l-18.57 0Z" id="p270w287" />
<path d="M259.33 719.05l16.94 0l0 12.61l-16.94 0Z" id="p270w288" />
<path d="M279.05 719.05l29.25 0l0 12.61l-29.25 0Z" id="p270w289" />
<path d="M311.09 719.05l11.84 0l0 12.61l-11.84 0Z" id="p270w290" />
<path d="M325.72 719.05l38.55 0l0 12.61l-38.55 0Z" id="p270w291" />
<path d="M367.05 719.05l22.97 0l0 12.61l-22.97 0Z" id="p270w292" />
<path d="M124.07 733.64l8.36 0l0 12.61l-8.36 0Z" id="p270w293" />
<path d="M135.21 733.64l18.57 0l0 12.61l-18.57 0Z" id="p270w294" />
<path d="M156.57 733.64l70.79 0l0 12.61l-70.79 0Z" id="p270w295" />
<path d="M230.14 733.64l39.9 0l0 12.61l-39.9 0Z" id="p270w296" />
<path d="M272.83 733.64l12.07 0l0 12.61l-12.07 0Z" id="p270w297" />
<path d="M287.69 733.64l10.91 0l0 12.61l-10.91 0Z" id="p270w298" />
<path d="M301.38 733.64l43.41 0l0 12.61l-43.41 0Z" id="p270w299" />
<path d="M124.06 748.48l29.46 0l0 12.29l-29.46 0Z" id="p270w300" />
<path d="M161.93 748.23l90.52 0l0 12.61l-90.52 0Z" id="p270w301" />
<path d="M255.23 748.23l5.57 0l0 12.61l-5.57 0Z" id="p270w302" />
<path d="M271.49 748.23l23.52 0l0 12.61l-23.52 0Z" id="p270w303" />
<path d="M297.79 748.23l50.82 0l0 12.61l-50.82 0Z" id="p270w304" />
<path d="M351.41 748.23l43.88 0l0 12.61l-43.88 0Z" id="p270w305" />
<path d="M124.07 762.82l50.14 0l0 12.61l-50.14 0Z" id="p270w306" />
<path d="M176.99 762.82l11.84 0l0 12.61l-11.84 0Z" id="p270w307" />
<path d="M191.62 762.82l38.55 0l0 12.61l-38.55 0Z" id="p270w308" />
<path d="M232.95 762.82l22.97 0l0 12.61l-22.97 0Z" id="p270w309" />
<path d="M258.71 762.82l29.24 0l0 12.61l-29.24 0Z" id="p270w310" />
<path d="M290.73 762.82l43.17 0l0 12.61l-43.17 0Z" id="p270w311" />
<path d="M336.69 762.82l12.31 0l0 12.61l-12.31 0Z" id="p270w312" />
<path d="M351.78 762.82l36.22 0l0 12.61l-36.22 0Z" id="p270w313" />
<path d="M124.07 777.41l58.05 0l0 12.61l-58.05 0Z" id="p270w314" />
<path d="M124.06 792.24l19.9 0l0 12.29l-19.9 0Z" id="p270w315" />
<path d="M152.29 792l69.17 0l0 12.61l-69.17 0Z" id="p270w316" />
<path d="M224.24 792l8.36 0l0 12.61l-8.36 0Z" id="p270w317" />
<path d="M235.38 792l31.88 0l0 12.61l-31.88 0Z" id="p270w318" />
<path d="M270.04 792l16.94 0l0 12.61l-16.94 0Z" id="p270w319" />
<path d="M289.77 792l8.59 0l0 12.61l-8.59 0Z" id="p270w320" />
<path d="M301.14 792l41.32 0l0 12.61l-41.32 0Z" id="p270w321" />
<path d="M345.25 792l45.96 0l0 12.61l-45.96 0Z" id="p270w322" />
<path d="M124.06 806.59l22.97 0l0 12.61l-22.97 0Z" id="p270w323" />
<path d="M149.82 806.59l24.6 0l0 12.61l-24.6 0Z" id="p270w324" />
<path d="M177.21 806.59l49.91 0l0 12.61l-49.91 0Z" id="p270w325" />
<path d="M238.48 806.59l18.11 0l0 12.61l-18.11 0Z" id="p270w326" />
<path d="M259.38 806.59l19.28 0l0 12.61l-19.28 0Z" id="p270w327" />
<path d="M281.45 806.59l44.74 0l0 12.61l-44.74 0Z" id="p270w328" />
<path d="M124.06 821.42l29.46 0l0 12.29l-29.46 0Z" id="p270w329" />
<path d="M161.93 821.17l22.74 0l0 12.61l-22.74 0Z" id="p270w330" />
<path d="M187.46 821.17l46.18 0l0 12.61l-46.18 0Z" id="p270w331" />
<path d="M236.42 821.17l12.31 0l0 12.61l-12.31 0Z" id="p270w332" />
<path d="M251.52 821.17l34.08 0l0 12.61l-34.08 0Z" id="p270w333" />
<path d="M288.38 821.17l15.1 0l0 12.61l-15.1 0Z" id="p270w334" />
<path d="M306.27 821.17l10.99 0l0 12.61l-10.99 0Z" id="p270w335" />
<path d="M320.04 821.17l23.91 0l0 12.61l-23.91 0Z" id="p270w336" />
<path d="M346.74 821.17l12.31 0l0 12.61l-12.31 0Z" id="p270w337" />
<path d="M361.84 821.17l31.81 0l0 12.61l-31.81 0Z" id="p270w338" />
<path d="M124.07 835.76l37.37 0l0 12.61l-37.37 0Z" id="p270w339" />
<path d="M151.53 857.64l22.07 0l0 12.61l-22.07 0Z" id="p270w340" />
<path d="M176.38 857.64l8.36 0l0 12.61l-8.36 0Z" id="p270w341" />
<path d="M187.52 857.64l16.56 0l0 12.61l-16.56 0Z" id="p270w342" />
<path d="M206.87 857.64l18.8 0l0 12.61l-18.8 0Z" id="p270w343" />
<path d="M228.46 857.64l40.86 0l0 12.61l-40.86 0Z" id="p270w344" />
<path d="M308.63 857.64l22.07 0l0 12.61l-22.07 0Z" id="p270w345" />
<path d="M333.48 857.64l8.36 0l0 12.61l-8.36 0Z" id="p270w346" />
<path d="M344.63 857.64l44.87 0l0 12.61l-44.87 0Z" id="p270w347" />
<path d="M124.06 872.24l47.59 0l0 12.61l-47.59 0Z" id="p270w348" />
<path d="M209.9 872.23l22.07 0l0 12.61l-22.07 0Z" id="p270w349" />
<path d="M234.75 872.23l8.36 0l0 12.61l-8.36 0Z" id="p270w350" />
<path d="M245.89 872.23l16.56 0l0 12.61l-16.56 0Z" id="p270w351" />
<path d="M265.24 872.23l24.6 0l0 12.61l-24.6 0Z" id="p270w352" />
<path d="M301.21 872.23l47.59 0l0 12.61l-47.59 0Z" id="p270w353" />
<path d="M152 886.82l22.07 0l0 12.61l-22.07 0Z" id="p270w354" />
<path d="M176.85 886.82l18.8 0l0 12.61l-18.8 0Z" id="p270w355" />
<path d="M198.44 886.82l12.07 0l0 12.61l-12.07 0Z" id="p270w356" />
<path d="M213.29 886.82l21.11 0l0 12.61l-21.11 0Z" id="p270w357" />
<path d="M237.19 886.82l29.94 0l0 12.61l-29.94 0Z" id="p270w358" />
<path d="M306.06 886.82l22.07 0l0 12.61l-22.07 0Z" id="p270w359" />
<path d="M330.91 886.82l45.27 0l0 12.61l-45.27 0Z" id="p270w360" />
<path d="M378.96 886.82l12.07 0l0 12.61l-12.07 0Z" id="p270w361" />
<path d="M124.07 901.41l17.02 0l0 12.61l-17.02 0Z" id="p270w362" />
<path d="M143.87 901.41l36.21 0l0 12.61l-36.21 0Z" id="p270w363" />
<path d="M216.92 901.41l22.07 0l0 12.61l-22.07 0Z" id="p270w364" />
<path d="M241.77 901.41l8.36 0l0 12.61l-8.36 0Z" id="p270w365" />
<path d="M252.92 901.41l16.56 0l0 12.61l-16.56 0Z" id="p270w366" />
<path d="M272.27 901.41l18.8 0l0 12.61l-18.8 0Z" id="p270w367" />
<path d="M293.85 901.41l33.21 0l0 12.61l-33.21 0Z" id="p270w368" />
<path d="M366.4 901.41l22.07 0l0 12.61l-22.07 0Z" id="p270w369" />
<path d="M124.07 916l45.27 0l0 12.61l-45.27 0Z" id="p270w370" />
<path d="M172.12 916l12.07 0l0 12.61l-12.07 0Z" id="p270w371" />
<path d="M186.97 916l24.14 0l0 12.61l-24.14 0Z" id="p270w372" />
<path d="M213.9 916l22.05 0l0 12.61l-22.05 0Z" id="p270w373" />
<path d="M238.74 916l20.67 0l0 12.61l-20.67 0Z" id="p270w374" />
<path d="M298.8 916l22.07 0l0 12.61l-22.07 0Z" id="p270w375" />
<path d="M323.65 916l18.8 0l0 12.61l-18.8 0Z" id="p270w376" />
<path d="M345.24 916l13.78 0l0 12.61l-13.78 0Z" id="p270w377" />
<path d="M361.8 916l37.79 0l0 12.61l-37.79 0Z" id="p270w378" />
<path d="M444.17 113.62l23.22 0l0 12.61l-23.22 0Z" id="p270w379" />
<path d="M470.18 113.62l8.59 0l0 12.61l-8.59 0Z" id="p270w380" />
<path d="M481.55 113.62l46.65 0l0 12.61l-46.65 0Z" id="p270w381" />
<path d="M530.99 113.62l12.31 0l0 12.61l-12.31 0Z" id="p270w382" />
<path d="M546.08 113.62l48.05 0l0 12.61l-48.05 0Z" id="p270w383" />
<path d="M596.92 113.62l9.06 0l0 12.61l-9.06 0Z" id="p270w384" />
<path d="M608.76 113.62l13.08 0l0 12.61l-13.08 0Z" id="p270w385" />
<path d="M624.62 113.62l31.33 0l0 12.61l-31.33 0Z" id="p270w386" />
<path d="M658.74 113.62l29.16 0l0 12.61l-29.16 0ZM432.25 128.21l11.38 0l0 12.61l-11.38 0Z" id="p270w387" />
<path d="M467.86 128.21l22.74 0l0 12.61l-22.74 0Z" id="p270w388" />
<path d="M493.39 128.21l12.31 0l0 12.61l-12.31 0Z" id="p270w389" />
<path d="M508.48 128.21l38.77 0l0 12.61l-38.77 0Z" id="p270w390" />
<path d="M550.04 128.21l18.11 0l0 12.61l-18.11 0Z" id="p270w391" />
<path d="M570.93 128.21l25.08 0l0 12.61l-25.08 0Z" id="p270w392" />
<path d="M598.8 128.21l12.3 0l0 12.61l-12.3 0Z" id="p270w393" />
<path d="M622.47 128.21l32.73 0l0 12.61l-32.73 0Z" id="p270w394" />
<path d="M657.98 128.21l22.29 0l0 12.61l-22.29 0Z" id="p270w395" />
<path d="M683.06 128.21l8.59 0l0 12.61l-8.59 0Z" id="p270w396" />
<path d="M432.25 142.8l45.02 0l0 12.61l-45.02 0Z" id="p270w397" />
<path d="M480.06 142.8l12.07 0l0 12.61l-12.07 0Z" id="p270w398" />
<path d="M494.91 142.8l57.14 0l0 12.61l-57.14 0Z" id="p270w399" />
<path d="M589.48 142.8l16.01 0l0 12.61l-16.01 0Z" id="p270w400" />
<path d="M608.28 142.8l66.17 0l0 12.61l-66.17 0Z" id="p270w401" />
<path d="M677.24 142.8l20.67 0l0 12.61l-20.67 0Z" id="p270w402" />
<path d="M432.25 157.4l33.89 0l0 12.61l-33.89 0Z" id="p270w403" />
<path d="M468.93 157.4l23.21 0l0 12.61l-23.21 0Z" id="p270w404" />
<path d="M494.92 157.4l13.46 0l0 12.61l-13.46 0Z" id="p270w405" />
<path d="M511.17 157.4l26.7 0l0 12.61l-26.7 0Z" id="p270w406" />
<path d="M562.1 157.4l19.27 0l0 12.61l-19.27 0Z" id="p270w407" />
<path d="M584.15 157.4l43.81 0l0 12.61l-43.81 0Z" id="p270w408" />
<path d="M630.74 157.4l23.22 0l0 12.61l-23.22 0Z" id="p270w409" />
<path d="M665.34 157.4l41.08 0l0 12.61l-41.08 0Z" id="p270w410" />
<path d="M444.55 171.99l39.95 0l0 12.61l-39.95 0Z" id="p270w411" />
<path d="M487.28 171.99l13.46 0l0 12.61l-13.46 0Z" id="p270w412" />
<path d="M503.52 171.99l36.92 0l0 12.61l-36.92 0Z" id="p270w413" />
<path d="M543.23 171.99l35.75 0l0 12.61l-35.75 0Z" id="p270w414" />
<path d="M581.77 171.99l24.84 0l0 12.61l-24.84 0Z" id="p270w415" />
<path d="M609.39 171.99l37.14 0l0 12.61l-37.14 0Z" id="p270w416" />
<path d="M657.9 171.99l31.79 0l0 12.61l-31.79 0Z" id="p270w417" />
<path d="M692.47 171.99l14.86 0l0 12.61l-14.86 0Z" id="p270w418" />
<path d="M432.25 186.58l8.59 0l0 12.61l-8.59 0Z" id="p270w419" />
<path d="M443.62 186.58l26.93 0l0 12.61l-26.93 0Z" id="p270w420" />
<path d="M506.57 186.58l24.38 0l0 12.61l-24.38 0Z" id="p270w421" />
<path d="M533.51 186.58l34.04 0l0 12.61l-34.04 0Z" id="p270w422" />
<path d="M570.34 186.58l13.46 0l0 12.61l-13.46 0Z" id="p270w423" />
<path d="M595.16 186.58l43.87 0l0 12.61l-43.87 0Z" id="p270w424" />
<path d="M444.55 208.46l22.74 0l0 12.61l-22.74 0Z" id="p270w425" />
<path d="M470.07 208.46l28.34 0l0 12.61l-28.34 0Z" id="p270w426" />
<path d="M522.33 208.46l10.77 0l0 12.61l-10.77 0Z" id="p270w427" />
<path d="M535.89 208.46l38.07 0l0 12.61l-38.07 0Z" id="p270w428" />
<path d="M576.74 208.46l35.98 0l0 12.61l-35.98 0Z" id="p270w429" />
<path d="M615.51 208.46l18.11 0l0 12.61l-18.11 0Z" id="p270w430" />
<path d="M636.41 208.46l47.12 0l0 12.61l-47.12 0Z" id="p270w431" />
<path d="M443.86 223.05l42.02 0l0 12.61l-42.02 0Z" id="p270w432" />
<path d="M488.67 223.05l80.07 0l0 12.61l-80.07 0Z" id="p270w433" />
<path d="M592.96 223.05l28.94 0l0 12.61l-28.94 0Z" id="p270w434" />
<path d="M624.69 223.05l18.11 0l0 12.61l-18.11 0Z" id="p270w435" />
<path d="M645.59 223.05l20.19 0l0 12.61l-20.19 0Z" id="p270w436" />
<path d="M668.56 223.05l22.97 0l0 12.61l-22.97 0Z" id="p270w437" />
<path d="M432.25 237.65l33.67 0l0 12.61l-33.67 0Z" id="p270w438" />
<path d="M468.7 237.65l12.07 0l0 12.61l-12.07 0Z" id="p270w439" />
<path d="M483.55 237.65l18.34 0l0 12.61l-18.34 0Z" id="p270w440" />
<path d="M532.85 237.65l45.04 0l0 12.61l-45.04 0Z" id="p270w441" />
<path d="M580.68 237.65l12.07 0l0 12.61l-12.07 0Z" id="p270w442" />
<path d="M595.53 237.65l17.02 0l0 12.61l-17.02 0Z" id="p270w443" />
<path d="M615.34 237.65l36.21 0l0 12.61l-36.21 0Z" id="p270w444" />
<path d="M673.22 237.65l9.06 0l0 12.61l-9.06 0Z" id="p270w445" />
<path d="M685.07 237.65l16.56 0l0 12.61l-16.56 0Z" id="p270w446" />
<path d="M432.25 252.24l11.38 0l0 12.61l-11.38 0Z" id="p270w447" />
<path d="M446.42 252.24l47.59 0l0 12.61l-47.59 0Z" id="p270w448" />
<path d="M518.18 252.24l9.06 0l0 12.61l-9.06 0Z" id="p270w449" />
<path d="M530.02 252.24l18.57 0l0 12.61l-18.57 0Z" id="p270w450" />
<path d="M551.38 252.24l43.17 0l0 12.61l-43.17 0Z" id="p270w451" />
<path d="M597.33 252.24l49.85 0l0 12.61l-49.85 0Z" id="p270w452" />
<path d="M671.41 252.24l22.44 0l0 12.61l-22.44 0ZM432.25 266.83l54.31 0l0 12.61l-54.31 0Z" id="p270w453" />
<path d="M489.34 266.83l12.85 0l0 12.61l-12.85 0Z" id="p270w454" />
<path d="M504.98 266.83l20.43 0l0 12.61l-20.43 0Z" id="p270w455" />
<path d="M528.19 266.83l32.73 0l0 12.61l-32.73 0Z" id="p270w456" />
<path d="M563.7 266.83l16.94 0l0 12.61l-16.94 0Z" id="p270w457" />
<path d="M583.43 266.83l30.64 0l0 12.61l-30.64 0Z" id="p270w458" />
<path d="M616.85 266.83l22.29 0l0 12.61l-22.29 0Z" id="p270w459" />
<path d="M641.93 266.83l8.59 0l0 12.61l-8.59 0Z" id="p270w460" />
<path d="M653.3 266.83l38.55 0l0 12.61l-38.55 0Z" id="p270w461" />
<path d="M441.22 281.42l10.77 0l0 12.61l-10.77 0Z" id="p270w462" />
<path d="M454.78 281.42l18.65 0l0 12.61l-18.65 0Z" id="p270w463" />
<path d="M476.22 281.42l16.94 0l0 12.61l-16.94 0Z" id="p270w464" />
<path d="M495.94 281.42l8.59 0l0 12.61l-8.59 0Z" id="p270w465" />
<path d="M507.32 281.42l22.75 0l0 12.61l-22.75 0Z" id="p270w466" />
<path d="M532.85 281.42l12.07 0l0 12.61l-12.07 0Z" id="p270w467" />
<path d="M547.71 281.42l22.04 0l0 12.61l-22.04 0Z" id="p270w468" />
<path d="M572.54 281.42l16.94 0l0 12.61l-16.94 0Z" id="p270w469" />
<path d="M592.26 281.42l37.78 0l0 12.61l-37.78 0Z" id="p270w470" />
<path d="M632.83 281.42l14.86 0l0 12.61l-14.86 0Z" id="p270w471" />
<path d="M650.47 281.42l20.67 0l0 12.61l-20.67 0Z" id="p270w472" />
<path d="M691.66 281.42l13.55 0l0 12.61l-13.55 0Z" id="p270w473" />
<path d="M432.25 296.01l70.79 0l0 12.61l-70.79 0Z" id="p270w474" />
<path d="M505.83 296.01l29.72 0l0 12.61l-29.72 0Z" id="p270w475" />
<path d="M538.33 296.01l8.59 0l0 12.61l-8.59 0Z" id="p270w476" />
<path d="M549.7 296.01l49.45 0l0 12.61l-49.45 0Z" id="p270w477" />
<path d="M432.25 334.8l42.85 0l0 18.84l-42.85 0Z" id="p270w478" />
<path d="M495.48 334.8l38.46 0l0 18.84l-38.46 0Z" id="p270w479" />
<path d="M432.25 361.63l36.45 0l0 12.61l-36.45 0Z" id="p270w480" />
<path d="M471.48 361.63l50.39 0l0 12.61l-50.39 0Z" id="p270w481" />
<path d="M524.66 361.63l15.31 0l0 12.61l-15.31 0Z" id="p270w482" />
<path d="M542.76 361.63l32.28 0l0 12.61l-32.28 0Z" id="p270w483" />
<path d="M577.82 361.63l29.02 0l0 12.61l-29.02 0Z" id="p270w484" />
<path d="M609.63 361.63l9.74 0l0 12.61l-9.74 0Z" id="p270w485" />
<path d="M622.16 361.63l20.67 0l0 12.61l-20.67 0Z" id="p270w486" />
<path d="M645.61 361.63l23.22 0l0 12.61l-23.22 0Z" id="p270w487" />
<path d="M671.62 361.63l25.92 0l0 12.61l-25.92 0ZM432.25 376.22l20.9 0l0 12.61l-20.9 0Z" id="p270w488" />
<path d="M455.93 376.22l22.29 0l0 12.61l-22.29 0Z" id="p270w489" />
<path d="M481.01 376.22l12.31 0l0 12.61l-12.31 0Z" id="p270w490" />
<path d="M496.11 376.22l41.27 0l0 12.61l-41.27 0Z" id="p270w491" />
<path d="M540.16 376.22l12.07 0l0 12.61l-12.07 0Z" id="p270w492" />
<path d="M555.01 376.22l21.35 0l0 12.61l-21.35 0Z" id="p270w493" />
<path d="M579.15 376.22l23.21 0l0 12.61l-23.21 0Z" id="p270w494" />
<path d="M605.15 376.22l12.07 0l0 12.61l-12.07 0Z" id="p270w495" />
<path d="M620 376.22l34.36 0l0 12.61l-34.36 0Z" id="p270w496" />
<path d="M657.15 376.22l20.67 0l0 12.61l-20.67 0Z" id="p270w497" />
<path d="M680.61 376.22l19.73 0l0 12.61l-19.73 0Z" id="p270w498" />
<path d="M440.83 390.81l44.09 0l0 12.61l-44.09 0Z" id="p270w499" />
<path d="M487.7 390.81l9.74 0l0 12.61l-9.74 0Z" id="p270w500" />
<path d="M500.23 390.81l29.02 0l0 12.61l-29.02 0Z" id="p270w501" />
<path d="M532.04 390.81l40.38 0l0 12.61l-40.38 0Z" id="p270w502" />
<path d="M575.21 390.81l23.21 0l0 12.61l-23.21 0Z" id="p270w503" />
<path d="M601.21 390.81l12.31 0l0 12.61l-12.31 0Z" id="p270w504" />
<path d="M616.3 390.81l31.51 0l0 12.61l-31.51 0Z" id="p270w505" />
<path d="M659.18 390.81l28.47 0l0 12.61l-28.47 0ZM432.25 405.4l25.53 0l0 12.61l-25.53 0Z" id="p270w506" />
<path d="M473.14 405.4l17.18 0l0 12.61l-17.18 0Z" id="p270w507" />
<path d="M493.1 405.4l9.06 0l0 12.61l-9.06 0Z" id="p270w508" />
<path d="M504.94 405.4l29.01 0l0 12.61l-29.01 0Z" id="p270w509" />
<path d="M536.74 405.4l18.11 0l0 12.61l-18.11 0Z" id="p270w510" />
<path d="M557.64 405.4l13.46 0l0 12.61l-13.46 0Z" id="p270w511" />
<path d="M573.88 405.4l21.35 0l0 12.61l-21.35 0Z" id="p270w512" />
<path d="M598.02 405.4l23.21 0l0 12.61l-23.21 0Z" id="p270w513" />
<path d="M624.02 405.4l12.07 0l0 12.61l-12.07 0Z" id="p270w514" />
<path d="M638.87 405.4l32.04 0l0 12.61l-32.04 0Z" id="p270w515" />
<path d="M673.7 405.4l30.64 0l0 12.61l-30.64 0Z" id="p270w516" />
<path d="M432.25 420l26.93 0l0 12.61l-26.93 0Z" id="p270w517" />
<path d="M468 420l21.61 0l0 12.61l-21.61 0Z" id="p270w518" />
<path d="M492.39 420l12.85 0l0 12.61l-12.85 0Z" id="p270w519" />
<path d="M508.03 420l43.88 0l0 12.61l-43.88 0Z" id="p270w520" />
<path d="M554.69 420l32.97 0l0 12.61l-32.97 0Z" id="p270w521" />
<path d="M596.01 420l11.84 0l0 12.61l-11.84 0Z" id="p270w522" />
<path d="M610.64 420l30.65 0l0 12.61l-30.65 0Z" id="p270w523" />
<path d="M644.08 420l12.31 0l0 12.61l-12.31 0Z" id="p270w524" />
<path d="M659.17 420l21.35 0l0 12.61l-21.35 0Z" id="p270w525" />
<path d="M683.31 420l23.83 0l0 12.61l-23.83 0ZM432.25 434.59l25.53 0l0 12.61l-25.53 0Z" id="p270w526" />
<path d="M460.56 434.59l16.94 0l0 12.61l-16.94 0Z" id="p270w527" />
<path d="M480.29 434.59l53.39 0l0 12.61l-53.39 0Z" id="p270w528" />
<path d="M536.47 434.59l9.06 0l0 12.61l-9.06 0Z" id="p270w529" />
<path d="M548.31 434.59l12.07 0l0 12.61l-12.07 0Z" id="p270w530" />
<path d="M563.16 434.59l61.52 0l0 12.61l-61.52 0Z" id="p270w531" />
<path d="M627.47 434.59l16.94 0l0 12.61l-16.94 0Z" id="p270w532" />
<path d="M647.19 434.59l19.97 0l0 12.61l-19.97 0Z" id="p270w533" />
<path d="M678.53 434.59l29.95 0l0 12.61l-29.95 0Z" id="p270w534" />
<path d="M432.25 449.18l9.74 0l0 12.61l-9.74 0Z" id="p270w535" />
<path d="M444.78 449.18l8.36 0l0 12.61l-8.36 0Z" id="p270w536" />
<path d="M455.92 449.18l21.81 0l0 12.61l-21.81 0Z" id="p270w537" />
<path d="M480.52 449.18l47.37 0l0 12.61l-47.37 0Z" id="p270w538" />
<path d="M530.68 449.18l12.07 0l0 12.61l-12.07 0Z" id="p270w539" />
<path d="M545.53 449.18l32.5 0l0 12.61l-32.5 0Z" id="p270w540" />
<path d="M580.81 449.18l9.98 0l0 12.61l-9.98 0Z" id="p270w541" />
<path d="M593.58 449.18l22.29 0l0 12.61l-22.29 0Z" id="p270w542" />
<path d="M618.66 449.18l28.4 0l0 12.61l-28.4 0Z" id="p270w543" />
<path d="M649.85 449.18l44.72 0l0 12.61l-44.72 0Z" id="p270w544" />
<path d="M697.35 449.18l8.59 0l0 12.61l-8.59 0Z" id="p270w545" />
<path d="M432.25 463.77l18.1 0l0 12.61l-18.1 0Z" id="p270w546" />
<path d="M453.13 463.77l12.31 0l0 12.61l-12.31 0Z" id="p270w547" />
<path d="M468.23 463.77l24.38 0l0 12.61l-24.38 0Z" id="p270w548" />
<path d="M495.4 463.77l22.97 0l0 12.61l-22.97 0Z" id="p270w549" />
<path d="M521.15 463.77l25.77 0l0 12.61l-25.77 0Z" id="p270w550" />
<path d="M549.7 463.77l29.02 0l0 12.61l-29.02 0Z" id="p270w551" />
<path d="M581.51 463.77l9.74 0l0 12.61l-9.74 0Z" id="p270w552" />
<path d="M594.04 463.77l18.34 0l0 12.61l-18.34 0Z" id="p270w553" />
<path d="M615.17 463.77l43.19 0l0 12.61l-43.19 0Z" id="p270w554" />
<path d="M661.14 463.77l23.22 0l0 12.61l-23.22 0Z" id="p270w555" />
<path d="M687.15 463.77l19.29 0l0 12.61l-19.29 0Z" id="p270w556" />
<path d="M432.25 485.65l28.34 0l0 12.61l-28.34 0Z" id="p270w557" />
<path d="M476.22 485.88l28.99 0l0 12.29l-28.99 0Z" id="p270w558" />
<path d="M513.53 485.63l8.83 0l0 12.61l-8.83 0Z" id="p270w559" />
<path d="M525.14 485.63l10.91 0l0 12.61l-10.91 0Z" id="p270w560" />
<path d="M538.84 485.63l52.44 0l0 12.61l-52.44 0Z" id="p270w561" />
<path d="M594.07 485.63l23.22 0l0 12.61l-23.22 0Z" id="p270w562" />
<path d="M620.07 485.63l23.68 0l0 12.61l-23.68 0Z" id="p270w563" />
<path d="M655.13 485.63l8.59 0l0 12.61l-8.59 0Z" id="p270w564" />
<path d="M666.5 485.63l19.26 0l0 12.61l-19.26 0Z" id="p270w565" />
<path d="M688.54 485.63l12.31 0l0 12.61l-12.31 0Z" id="p270w566" />
<path d="M432.25 500.22l25.78 0l0 12.61l-25.78 0Z" id="p270w567" />
<path d="M460.81 500.22l21.58 0l0 12.61l-21.58 0Z" id="p270w568" />
<path d="M485.18 500.22l18.56 0l0 12.61l-18.56 0Z" id="p270w569" />
<path d="M506.53 500.22l42.01 0l0 12.61l-42.01 0Z" id="p270w570" />
<path d="M551.32 500.22l21.51 0l0 12.61l-21.51 0Z" id="p270w571" />
<path d="M432.25 515.06l33.69 0l0 12.29l-33.69 0Z" id="p270w572" />
<path d="M474.35 514.81l28.09 0l0 12.61l-28.09 0Z" id="p270w573" />
<path d="M511.27 514.81l22.97 0l0 12.61l-22.97 0Z" id="p270w574" />
<path d="M537.02 514.81l7.66 0l0 12.61l-7.66 0Z" id="p270w575" />
<path d="M547.47 514.81l10.91 0l0 12.61l-10.91 0Z" id="p270w576" />
<path d="M561.16 514.81l22.51 0l0 12.61l-22.51 0Z" id="p270w577" />
<path d="M586.46 514.81l16.94 0l0 12.61l-16.94 0Z" id="p270w578" />
<path d="M606.19 514.81l42.02 0l0 12.61l-42.02 0Z" id="p270w579" />
<path d="M651 514.81l12.31 0l0 12.61l-12.31 0Z" id="p270w580" />
<path d="M666.09 514.81l31.81 0l0 12.61l-31.81 0Z" id="p270w581" />
<path d="M432.25 529.4l29.47 0l0 12.61l-29.47 0Z" id="p270w582" />
<path d="M464.5 529.4l25.53 0l0 12.61l-25.53 0Z" id="p270w583" />
<path d="M492.81 529.4l30.42 0l0 12.61l-30.42 0Z" id="p270w584" />
<path d="M432.25 543.99l28.34 0l0 12.61l-28.34 0Z" id="p270w585" />
<path d="M477.29 544.24l28.99 0l0 12.29l-28.99 0Z" id="p270w586" />
<path d="M514.69 543.99l8.83 0l0 12.61l-8.83 0Z" id="p270w587" />
<path d="M526.3 543.99l9.98 0l0 12.61l-9.98 0Z" id="p270w588" />
<path d="M539.07 543.99l32.48 0l0 12.61l-32.48 0Z" id="p270w589" />
<path d="M574.34 543.99l20.43 0l0 12.61l-20.43 0Z" id="p270w590" />
<path d="M597.56 543.99l6.5 0l0 12.61l-6.5 0Z" id="p270w591" />
<path d="M613.11 543.99l24.15 0l0 12.61l-24.15 0Z" id="p270w592" />
<path d="M640.05 543.99l9.98 0l0 12.61l-9.98 0Z" id="p270w593" />
<path d="M652.82 543.99l29.47 0l0 12.61l-29.47 0Z" id="p270w594" />
<path d="M685.07 543.99l8.59 0l0 12.61l-8.59 0Z" id="p270w595" />
<path d="M432.24 558.58l34.07 0l0 12.61l-34.07 0Z" id="p270w596" />
<path d="M469.09 558.58l19.26 0l0 12.61l-19.26 0Z" id="p270w597" />
<path d="M491.14 558.58l18.11 0l0 12.61l-18.11 0Z" id="p270w598" />
<path d="M512.03 558.58l8.59 0l0 12.61l-8.59 0Z" id="p270w599" />
<path d="M523.4 558.58l19.5 0l0 12.61l-19.5 0Z" id="p270w600" />
<path d="M545.69 558.58l43.9 0l0 12.61l-43.9 0Z" id="p270w601" />
<path d="M432.25 573.41l33.69 0l0 12.29l-33.69 0Z" id="p270w602" />
<path d="M474.35 573.16l28.09 0l0 12.61l-28.09 0Z" id="p270w603" />
<path d="M511.27 573.16l8.83 0l0 12.61l-8.83 0Z" id="p270w604" />
<path d="M522.88 573.16l20.19 0l0 12.61l-20.19 0Z" id="p270w605" />
<path d="M545.85 573.16l36.9 0l0 12.61l-36.9 0Z" id="p270w606" />
<path d="M585.53 573.16l42.48 0l0 12.61l-42.48 0Z" id="p270w607" />
<path d="M630.8 573.16l22.05 0l0 12.61l-22.05 0Z" id="p270w608" />
<path d="M655.64 573.16l20.67 0l0 12.61l-20.67 0Z" id="p270w609" />
<path d="M679.09 573.16l10.44 0l0 12.61l-10.44 0Z" id="p270w610" />
<path d="M432.25 587.76l47.82 0l0 12.61l-47.82 0Z" id="p270w611" />
<path d="M432.25 602.35l28.34 0l0 12.61l-28.34 0Z" id="p270w612" />
<path d="M477.29 602.59l28.99 0l0 12.29l-28.99 0Z" id="p270w613" />
<path d="M514.69 602.34l8.83 0l0 12.61l-8.83 0Z" id="p270w614" />
<path d="M526.3 602.34l9.74 0l0 12.61l-9.74 0Z" id="p270w615" />
<path d="M538.83 602.34l33.18 0l0 12.61l-33.18 0Z" id="p270w616" />
<path d="M574.8 602.34l24.14 0l0 12.61l-24.14 0Z" id="p270w617" />
<path d="M601.73 602.34l9.74 0l0 12.61l-9.74 0Z" id="p270w618" />
<path d="M614.26 602.34l42.25 0l0 12.61l-42.25 0Z" id="p270w619" />
<path d="M659.29 602.34l6.5 0l0 12.61l-6.5 0Z" id="p270w620" />
<path d="M432.24 616.93l51.31 0l0 12.61l-51.31 0Z" id="p270w621" />
<path d="M486.33 616.93l17.17 0l0 12.61l-17.17 0Z" id="p270w622" />
<path d="M506.29 616.93l24.6 0l0 12.61l-24.6 0Z" id="p270w623" />
<path d="M533.67 616.93l8.59 0l0 12.61l-8.59 0Z" id="p270w624" />
<path d="M545.05 616.93l36.44 0l0 12.61l-36.44 0Z" id="p270w625" />
<path d="M584.27 616.93l12.07 0l0 12.61l-12.07 0Z" id="p270w626" />
<path d="M599.13 616.93l24.38 0l0 12.61l-24.38 0Z" id="p270w627" />
<path d="M432.25 631.77l33.69 0l0 12.29l-33.69 0Z" id="p270w628" />
<path d="M474.26 631.52l8.83 0l0 12.61l-8.83 0Z" id="p270w629" />
<path d="M485.87 631.52l10.91 0l0 12.61l-10.91 0Z" id="p270w630" />
<path d="M499.57 631.52l38.77 0l0 12.61l-38.77 0Z" id="p270w631" />
<path d="M541.12 631.52l23.22 0l0 12.61l-23.22 0Z" id="p270w632" />
<path d="M567.13 631.52l34.36 0l0 12.61l-34.36 0Z" id="p270w633" />
<path d="M604.28 631.52l12.31 0l0 12.61l-12.31 0Z" id="p270w634" />
<path d="M619.38 631.52l18.56 0l0 12.61l-18.56 0Z" id="p270w635" />
<path d="M640.72 631.52l23.91 0l0 12.61l-23.91 0Z" id="p270w636" />
<path d="M432.25 646.11l43.41 0l0 12.61l-43.41 0Z" id="p270w637" />
<path d="M432.25 667.99l31.81 0l0 12.61l-31.81 0Z" id="p270w638" />
<path d="M466.85 667.99l23.83 0l0 12.61l-23.83 0Z" id="p270w639" />
<path d="M493.46 667.99l27.61 0l0 12.61l-27.61 0Z" id="p270w640" />
<path d="M539.74 667.99l13.47 0l0 12.61l-13.47 0Z" id="p270w641" />
<path d="M555.99 667.99l48.9 0l0 12.61l-48.9 0Z" id="p270w642" />
<path d="M623.55 667.99l31.81 0l0 12.61l-31.81 0Z" id="p270w643" />
<path d="M658.15 667.99l45.43 0l0 12.61l-45.43 0ZM432.25 682.59l41.49 0l0 12.61l-41.49 0Z" id="p270w644" />
<path d="M485.12 682.59l50.37 0l0 12.61l-50.37 0Z" id="p270w645" />
<path d="M538.27 682.59l8.59 0l0 12.61l-8.59 0Z" id="p270w646" />
<path d="M549.64 682.59l38.07 0l0 12.61l-38.07 0Z" id="p270w647" />
<path d="M606.37 682.59l9.98 0l0 12.61l-9.98 0Z" id="p270w648" />
<path d="M619.14 682.59l16.25 0l0 12.61l-16.25 0Z" id="p270w649" />
<path d="M638.18 682.59l41.27 0l0 12.61l-41.27 0Z" id="p270w650" />
<path d="M432.25 697.18l30.65 0l0 12.61l-30.65 0Z" id="p270w651" />
<path d="M465.69 697.18l10.67 0l0 12.61l-10.67 0Z" id="p270w652" />
<path d="M479.15 697.18l53.92 0l0 12.61l-53.92 0Z" id="p270w653" />
<path d="M444.55 719.06l13.55 0l0 12.61l-13.55 0Z" id="p270w654" />
<path d="M460.89 719.06l16.94 0l0 12.61l-16.94 0Z" id="p270w655" />
<path d="M480.61 719.06l35.29 0l0 12.61l-35.29 0Z" id="p270w656" />
<path d="M540.14 719.06l9.06 0l0 12.61l-9.06 0Z" id="p270w657" />
<path d="M551.98 719.06l18.57 0l0 12.61l-18.57 0Z" id="p270w658" />
<path d="M573.33 719.06l36.67 0l0 12.61l-36.67 0Z" id="p270w659" />
<path d="M612.79 719.06l12.07 0l0 12.61l-12.07 0Z" id="p270w660" />
<path d="M627.64 719.06l24.14 0l0 12.61l-24.14 0Z" id="p270w661" />
<path d="M674.86 719.06l22.74 0l0 12.61l-22.74 0Z" id="p270w662" />
<path d="M432.25 733.65l8.59 0l0 12.61l-8.59 0Z" id="p270w663" />
<path d="M443.62 733.65l35.51 0l0 12.61l-35.51 0Z" id="p270w664" />
<path d="M481.92 733.65l10.68 0l0 12.61l-10.68 0Z" id="p270w665" />
<path d="M522.87 733.65l19.74 0l0 12.61l-19.74 0Z" id="p270w666" />
<path d="M545.4 733.65l34.81 0l0 12.61l-34.81 0Z" id="p270w667" />
<path d="M610.01 733.65l13.7 0l0 12.61l-13.7 0Z" id="p270w668" />
<path d="M626.5 733.65l24.84 0l0 12.61l-24.84 0Z" id="p270w669" />
<path d="M654.12 733.65l38.77 0l0 12.61l-38.77 0Z" id="p270w670" />
<path d="M432.25 748.24l8.36 0l0 12.61l-8.36 0Z" id="p270w671" />
<path d="M443.39 748.24l23.44 0l0 12.61l-23.44 0Z" id="p270w672" />
<path d="M469.62 748.24l16.94 0l0 12.61l-16.94 0Z" id="p270w673" />
<path d="M497.93 748.24l8.59 0l0 12.61l-8.59 0Z" id="p270w674" />
<path d="M509.3 748.24l36.22 0l0 12.61l-36.22 0Z" id="p270w675" />
<path d="M566.89 748.24l10.77 0l0 12.61l-10.77 0Z" id="p270w676" />
<path d="M580.45 748.24l23.22 0l0 12.61l-23.22 0Z" id="p270w677" />
<path d="M606.46 748.24l28.54 0l0 12.61l-28.54 0Z" id="p270w678" />
<path d="M637.79 748.24l50.13 0l0 12.61l-50.13 0Z" id="p270w679" />
<path d="M444.96 762.83l27.61 0l0 12.61l-27.61 0Z" id="p270w680" />
<path d="M475.36 762.83l21.35 0l0 12.61l-21.35 0Z" id="p270w681" />
<path d="M499.5 762.83l23.21 0l0 12.61l-23.21 0Z" id="p270w682" />
<path d="M525.5 762.83l23.21 0l0 12.61l-23.21 0Z" id="p270w683" />
<path d="M551.5 762.83l8.59 0l0 12.61l-8.59 0Z" id="p270w684" />
<path d="M562.87 762.83l39.71 0l0 12.61l-39.71 0Z" id="p270w685" />
<path d="M605.36 762.83l27.38 0l0 12.61l-27.38 0Z" id="p270w686" />
<path d="M635.53 762.83l11.84 0l0 12.61l-11.84 0Z" id="p270w687" />
<path d="M650.16 762.83l36.92 0l0 12.61l-36.92 0Z" id="p270w688" />
<path d="M689.86 762.83l12.07 0l0 12.61l-12.07 0Z" id="p270w689" />
<path d="M432.25 777.43l22.29 0l0 12.61l-22.29 0Z" id="p270w690" />
<path d="M478.78 777.43l13.7 0l0 12.61l-13.7 0Z" id="p270w691" />
<path d="M495.26 777.43l22.27 0l0 12.61l-22.27 0Z" id="p270w692" />
<path d="M520.32 777.43l38.31 0l0 12.61l-38.31 0Z" id="p270w693" />
<path d="M561.41 777.43l41.54 0l0 12.61l-41.54 0Z" id="p270w694" />
<path d="M605.74 777.43l12.07 0l0 12.61l-12.07 0Z" id="p270w695" />
<path d="M620.59 777.43l16.47 0l0 12.61l-16.47 0Z" id="p270w696" />
<path d="M432.25 816.23l42.85 0l0 18.84l-42.85 0Z" id="p270w697" />
<path d="M495.48 816.23l38.46 0l0 18.84l-38.46 0Z" id="p270w698" />
<path d="M444.55 843.06l18.58 0l0 12.61l-18.58 0Z" id="p270w699" />
<path d="M465.91 843.06l23.22 0l0 12.61l-23.22 0Z" id="p270w700" />
<path d="M491.92 843.06l12.07 0l0 12.61l-12.07 0Z" id="p270w701" />
<path d="M506.78 843.06l22.52 0l0 12.61l-22.52 0Z" id="p270w702" />
<path d="M529.3 843.06l23.45 0l0 12.61l-23.45 0Z" id="p270w703" />
<path d="M588.45 843.06l18.58 0l0 12.61l-18.58 0Z" id="p270w704" />
<path d="M609.81 843.06l23.22 0l0 12.61l-23.22 0Z" id="p270w705" />
<path d="M643.72 843.06l34.35 0l0 12.61l-34.35 0Z" id="p270w706" />
<path d="M680.86 843.06l13.46 0l0 12.61l-13.46 0Z" id="p270w707" />
<path d="M432.25 857.65l39.01 0l0 12.61l-39.01 0Z" id="p270w708" />
<path d="M494.33 857.65l22.07 0l0 12.61l-22.07 0Z" id="p270w709" />
<path d="M519.18 857.65l23.22 0l0 12.61l-23.22 0Z" id="p270w710" />
<path d="M545.19 857.65l19.97 0l0 12.61l-19.97 0Z" id="p270w711" />
<path d="M567.94 857.65l28.32 0l0 12.61l-28.32 0Z" id="p270w712" />
<path d="M599.05 857.65l16.94 0l0 12.61l-16.94 0Z" id="p270w713" />
<path d="M618.78 857.65l35.92 0l0 12.61l-35.92 0Z" id="p270w714" />
<path d="M678.93 857.65l18.58 0l0 12.61l-18.58 0Z" id="p270w715" />
<path d="M432.25 872.24l23.22 0l0 12.61l-23.22 0Z" id="p270w716" />
<path d="M466.15 872.24l40.39 0l0 12.61l-40.39 0Z" id="p270w717" />
<path d="M509.33 872.24l40.63 0l0 12.61l-40.63 0Z" id="p270w718" />
<path d="M573.73 872.24l22.07 0l0 12.61l-22.07 0Z" id="p270w719" />
<path d="M598.58 872.24l23.22 0l0 12.61l-23.22 0Z" id="p270w720" />
<path d="M624.59 872.24l13.47 0l0 12.61l-13.47 0Z" id="p270w721" />
<path d="M640.84 872.24l40.61 0l0 12.61l-40.61 0Z" id="p270w722" />
<path d="M684.24 872.24l16.94 0l0 12.61l-16.94 0Z" id="p270w723" />
<path d="M432.25 886.83l24.37 0l0 12.61l-24.37 0Z" id="p270w724" />
<path d="M478.29 886.83l18.58 0l0 12.61l-18.58 0Z" id="p270w725" />
<path d="M499.66 886.83l23.22 0l0 12.61l-23.22 0Z" id="p270w726" />
<path d="M525.67 886.83l12.07 0l0 12.61l-12.07 0Z" id="p270w727" />
<path d="M540.52 886.83l35.98 0l0 12.61l-35.98 0Z" id="p270w728" />
<path d="M579.29 886.83l49.7 0l0 12.61l-49.7 0Z" id="p270w729" />
<path d="M444.55 916l35.04 0l0 12.61l-35.04 0Z" id="p270w730" />
<path d="M482.37 916l9.74 0l0 12.61l-9.74 0Z" id="p270w731" />
<path d="M494.9 916l10.67 0l0 12.61l-10.67 0Z" id="p270w732" />
<path d="M508.36 916l34.34 0l0 12.61l-34.34 0Z" id="p270w733" />
<path d="M545.49 916l21.6 0l0 12.61l-21.6 0Z" id="p270w734" />
<path d="M578.45 916l43.58 0l0 12.61l-43.58 0Z" id="p270w735" />
<path d="M624.82 916l22.29 0l0 12.61l-22.29 0Z" id="p270w736" />
<path d="M649.9 916l36.67 0l0 12.61l-36.67 0Z" id="p270w737" />
<path d="M432.25 930.6l16.94 0l0 12.61l-16.94 0Z" id="p270w738" />
<path d="M451.97 930.6l50.82 0l0 12.61l-50.82 0Z" id="p270w739" />
<path d="M505.59 930.6l49.21 0l0 12.61l-49.21 0Z" id="p270w740" />
<path d="M579.02 930.6l11.14 0l0 12.61l-11.14 0Z" id="p270w741" />
<path d="M592.95 930.6l56.4 0l0 12.61l-56.4 0Z" id="p270w742" />
<path d="M652.13 930.6l19.04 0l0 12.61l-19.04 0Z" id="p270w743" />
<path d="M673.96 930.6l23.91 0l0 12.61l-23.91 0Z" id="p270w744" />
</svg>
