<?xml version="1.0" encoding="UTF-8"?>
<svg xmlns="http://www.w3.org/2000/svg" xmlns:xlink="http://www.w3.org/1999/xlink" version="1.1" baseProfile="full" width="768" height="1024" viewBox="0,0,768,1024" preserveAspectRatio="xMinYMin meet" >
<style type="text/css">
<![CDATA[
path {fill-opacity: 0.5;fill: #00aeef;visibility: hidden;}
]]>
</style>
<path d="M124.06 110.53l23.01 0l0 26.12l-23.01 0Z" id="p10w1" />
<path d="M152.81 110.53l45.89 0l0 26.12l-45.89 0Z" id="p10w2" />
<path d="M204.44 110.53l35.1 0l0 26.12l-35.1 0Z" id="p10w3" />
<path d="M245.28 110.53l45.18 0l0 26.12l-45.18 0Z" id="p10w4" />
<path d="M296.2 110.53l78.28 0l0 26.12l-78.28 0Z" id="p10w5" />
<path d="M129.97 165.36l38.69 0l0 15.37l-38.69 0Z" id="p10w6" />
<path d="M238.44 165.58l16.21 0l0 13.76l-16.21 0Z" id="p10w7" />
<path d="M257.69 165.58l25.83 0l0 13.76l-25.83 0Z" id="p10w8" />
<path d="M286.56 165.58l41.02 0l0 13.76l-41.02 0Z" id="p10w9" />
<path d="M330.61 165.58l27.85 0l0 13.76l-27.85 0Z" id="p10w10" />
<path d="M238.44 180.86l64.82 0l0 13.76l-64.82 0Z" id="p10w11" />
<path d="M306.3 180.86l51.91 0l0 13.76l-51.91 0Z" id="p10w12" />
<path d="M573.6 165.58l39.95 0l0 13.76l-39.95 0Z" id="p10w13" />
<path d="M616.59 165.58l20.27 0l0 13.76l-20.27 0Z" id="p10w14" />
<path d="M639.9 165.58l27.85 0l0 13.76l-27.85 0Z" id="p10w15" />
<path d="M573.6 180.86l83.82 0l0 13.76l-83.82 0Z" id="p10w16" />
<path d="M129.97 206.13l39.24 0l0 15.37l-39.24 0Z" id="p10w17" />
<path d="M129.97 225.41l56.28 0l0 15.28l-56.28 0Z" id="p10w18" />
<path d="M129.97 240.69l21.95 0l0 15.28l-21.95 0Z" id="p10w19" />
<path d="M155.3 240.69l23.63 0l0 15.28l-23.63 0Z" id="p10w20" />
<path d="M129.97 255.98l71.76 0l0 15.28l-71.76 0Z" id="p10w21" />
<path d="M238.44 222.7l24.06 0l0 13.76l-24.06 0Z" id="p10w22" />
<path d="M265.54 222.7l46.34 0l0 13.76l-46.34 0Z" id="p10w23" />
<path d="M314.92 222.7l20.27 0l0 13.76l-20.27 0Z" id="p10w24" />
<path d="M238.44 237.98l45.59 0l0 13.76l-45.59 0Z" id="p10w25" />
<path d="M287.07 237.98l48.37 0l0 13.76l-48.37 0Z" id="p10w26" />
<path d="M388.5 222.7l34.18 0l0 13.76l-34.18 0Z" id="p10w27" />
<path d="M425.71 222.7l20.27 0l0 13.76l-20.27 0Z" id="p10w28" />
<path d="M449.02 222.7l72.69 0l0 13.76l-72.69 0Z" id="p10w29" />
<path d="M388.5 237.98l16.21 0l0 13.76l-16.21 0Z" id="p10w30" />
<path d="M407.74 237.98l73.18 0l0 13.76l-73.18 0Z" id="p10w31" />
<path d="M396.61 253.26l20.27 0l0 13.76l-20.27 0Z" id="p10w32" />
<path d="M419.92 253.23l12.92 0l0 13.76l-12.92 0Z" id="p10w33" />
<path d="M435.88 253.26l29.39 0l0 13.76l-29.39 0Z" id="p10w34" />
<path d="M468.3 253.26l42.03 0l0 13.76l-42.03 0Z" id="p10w35" />
<path d="M388.5 268.55l73.05 0l0 13.84l-73.05 0Z" id="p10w36" />
<path d="M388.5 283.83l121.13 0l0 13.84l-121.13 0Z" id="p10w37" />
<path d="M573.6 221.62l16.21 0l0 13.76l-16.21 0Z" id="p10w38" />
<path d="M592.85 221.62l77.74 0l0 13.76l-77.74 0Z" id="p10w39" />
<path d="M573.6 236.9l45.43 0l0 13.76l-45.43 0Z" id="p10w40" />
<path d="M622.07 236.9l33.47 0l0 13.76l-33.47 0Z" id="p10w41" />
<path d="M129.97 309.09l39.24 0l0 15.37l-39.24 0Z" id="p10w42" />
<path d="M129.97 328.38l19.42 0l0 15.28l-19.42 0Z" id="p10w43" />
<path d="M152.77 328.38l16.31 0l0 15.28l-16.31 0Z" id="p10w44" />
<path d="M172.46 328.38l20.54 0l0 15.28l-20.54 0Z" id="p10w45" />
<path d="M129.97 343.66l20.54 0l0 15.28l-20.54 0Z" id="p10w46" />
<path d="M153.88 343.66l32.36 0l0 15.28l-32.36 0Z" id="p10w47" />
<path d="M238.44 325.66l24.06 0l0 13.76l-24.06 0Z" id="p10w48" />
<path d="M265.54 325.66l34.69 0l0 13.76l-34.69 0Z" id="p10w49" />
<path d="M302.93 325.66l62.75 0l0 13.76l-62.75 0Z" id="p10w50" />
<path d="M238.44 340.95l48.37 0l0 13.76l-48.37 0Z" id="p10w51" />
<path d="M238.44 356.23l36.15 0l0 13.76l-36.15 0Z" id="p10w52" />
<path d="M277.63 356.23l35.19 0l0 13.76l-35.19 0Z" id="p10w53" />
<path d="M238.44 371.51l22.53 0l0 13.76l-22.53 0Z" id="p10w54" />
<path d="M264.01 371.51l35.96 0l0 13.76l-35.96 0Z" id="p10w55" />
<path d="M303.01 371.51l64.57 0l0 13.76l-64.57 0Z" id="p10w56" />
<path d="M388.5 325.63l20.76 0l0 13.76l-20.76 0Z" id="p10w57" />
<path d="M412.29 325.63l12.92 0l0 13.76l-12.92 0Z" id="p10w58" />
<path d="M428.25 325.63l24.82 0l0 13.76l-24.82 0Z" id="p10w59" />
<path d="M456.11 325.63l12.92 0l0 13.76l-12.92 0Z" id="p10w60" />
<path d="M472.06 325.63l23.81 0l0 13.76l-23.81 0Z" id="p10w61" />
<path d="M498.91 325.63l11.89 0l0 13.76l-11.89 0Z" id="p10w62" />
<path d="M388.5 340.91l25.35 0l0 13.76l-25.35 0Z" id="p10w63" />
<path d="M416.88 340.91l12.92 0l0 13.76l-12.92 0Z" id="p10w64" />
<path d="M432.84 340.91l23.81 0l0 13.76l-23.81 0Z" id="p10w65" />
<path d="M459.68 340.91l11.89 0l0 13.76l-11.89 0Z" id="p10w66" />
<path d="M388.5 356.21l17.48 0l0 13.76l-17.48 0Z" id="p10w67" />
<path d="M405.98 356.21l102.58 0l0 13.76l-102.58 0Z" id="p10w68" />
<path d="M388.5 371.47l29.66 0l0 13.76l-29.66 0Z" id="p10w69" />
<path d="M421.2 371.47l12.92 0l0 13.76l-12.92 0Z" id="p10w70" />
<path d="M442.01 371.47l24.06 0l0 13.76l-24.06 0Z" id="p10w71" />
<path d="M473.98 371.47l24.05 0l0 13.76l-24.05 0Z" id="p10w72" />
<path d="M388.5 386.77l36.15 0l0 13.76l-36.15 0Z" id="p10w73" />
<path d="M427.69 386.77l17.72 0l0 13.76l-17.72 0Z" id="p10w74" />
<path d="M448.44 386.75l45.34 0l0 13.76l-45.34 0Z" id="p10w75" />
<path d="M496.82 386.75l15.94 0l0 13.76l-15.94 0Z" id="p10w76" />
<path d="M515.81 386.77l23.15 0l0 13.76l-23.15 0Z" id="p10w77" />
<path d="M388.5 402.07l50.88 0l0 13.84l-50.88 0Z" id="p10w78" />
<path d="M442.42 402.07l20.26 0l0 13.84l-20.26 0Z" id="p10w79" />
<path d="M465.71 402.07l54.81 0l0 13.84l-54.81 0ZM388.5 417.35l74.35 0l0 13.84l-74.35 0Z" id="p10w80" />
<path d="M573.6 325.64l58.2 0l0 13.76l-58.2 0Z" id="p10w81" />
<path d="M634.84 325.64l18.48 0l0 13.76l-18.48 0Z" id="p10w82" />
<path d="M573.6 340.92l62.99 0l0 13.76l-62.99 0ZM573.6 356.2l57.93 0l0 13.76l-57.93 0Z" id="p10w83" />
<path d="M634.57 356.2l37.74 0l0 13.76l-37.74 0Z" id="p10w84" />
<path d="M573.6 371.48l49.64 0l0 13.76l-49.64 0Z" id="p10w85" />
<path d="M626.28 371.48l18.24 0l0 13.76l-18.24 0Z" id="p10w86" />
<path d="M573.6 386.76l22.8 0l0 13.76l-22.8 0Z" id="p10w87" />
<path d="M599.44 386.76l35.96 0l0 13.76l-35.96 0Z" id="p10w88" />
<path d="M573.6 402.04l64.57 0l0 13.76l-64.57 0Z" id="p10w89" />
<path d="M136.37 442.63l25.7 0l0 15.37l-25.7 0Z" id="p10w90" />
<path d="M165.45 442.63l39.53 0l0 15.37l-39.53 0Z" id="p10w91" />
<path d="M230.4 442.77l12.18 0l0 13.83l-12.18 0Z" id="p10w92" />
<path d="M245.62 442.77l22.12 0l0 13.83l-22.12 0Z" id="p10w93" />
<path d="M270.78 442.77l13.14 0l0 13.83l-13.14 0Z" id="p10w94" />
<path d="M286.96 442.77l46.73 0l0 13.83l-46.73 0Z" id="p10w95" />
<path d="M230.4 458.12l68.39 0l0 13.76l-68.39 0Z" id="p10w96" />
<path d="M301.83 458.12l77.39 0l0 13.76l-77.39 0Z" id="p10w97" />
<path d="M573.6 442.85l47.87 0l0 13.76l-47.87 0Z" id="p10w98" />
<path d="M624.51 442.85l51.64 0l0 13.76l-51.64 0Z" id="p10w99" />
<path d="M573.6 458.13l20.27 0l0 13.76l-20.27 0Z" id="p10w100" />
<path d="M596.91 458.13l62.52 0l0 13.76l-62.52 0Z" id="p10w101" />
<path d="M573.6 473.41l71.4 0l0 13.76l-71.4 0Z" id="p10w102" />
<path d="M129.97 498.67l30.12 0l0 15.37l-30.12 0Z" id="p10w103" />
<path d="M230.4 498.9l49.64 0l0 13.76l-49.64 0Z" id="p10w104" />
<path d="M283.08 498.9l24.06 0l0 13.76l-24.06 0Z" id="p10w105" />
<path d="M310.18 498.9l57.81 0l0 13.76l-57.81 0Z" id="p10w106" />
<path d="M371.03 498.9l20.27 0l0 13.76l-20.27 0Z" id="p10w107" />
<path d="M394.33 498.9l58.48 0l0 13.76l-58.48 0Z" id="p10w108" />
<path d="M455.86 498.9l17.72 0l0 13.76l-17.72 0Z" id="p10w109" />
<path d="M476.61 498.9l48.07 0l0 13.76l-48.07 0Z" id="p10w110" />
<path d="M527.72 498.9l16.47 0l0 13.76l-16.47 0Z" id="p10w111" />
<path d="M547.23 498.9l79.02 0l0 13.76l-79.02 0Z" id="p10w112" />
<path d="M124.06 561.64l116.14 0l0 26.12l-116.14 0Z" id="p10w113" />
<path d="M245.94 561.64l73.91 0l0 26.12l-73.91 0Z" id="p10w114" />
<path d="M129.97 620.06l38.69 0l0 15.37l-38.69 0Z" id="p10w115" />
<path d="M238.44 620.28l22.53 0l0 13.76l-22.53 0Z" id="p10w116" />
<path d="M264.01 620.28l58.25 0l0 13.76l-58.25 0Z" id="p10w117" />
<path d="M238.44 635.56l64.57 0l0 13.76l-64.57 0Z" id="p10w118" />
<path d="M388.5 620.29l29.55 0l0 13.84l-29.55 0Z" id="p10w119" />
<path d="M421.08 620.29l20.26 0l0 13.84l-20.26 0Z" id="p10w120" />
<path d="M444.38 620.29l99.37 0l0 13.84l-99.37 0Z" id="p10w121" />
<path d="M573.6 620.28l39.76 0l0 13.76l-39.76 0Z" id="p10w122" />
<path d="M616.4 620.28l20.27 0l0 13.76l-20.27 0Z" id="p10w123" />
<path d="M639.71 620.28l27.85 0l0 13.76l-27.85 0Z" id="p10w124" />
<path d="M573.6 635.56l83.82 0l0 13.76l-83.82 0Z" id="p10w125" />
<path d="M129.97 660.82l39.24 0l0 15.37l-39.24 0Z" id="p10w126" />
<path d="M129.97 680.11l63.79 0l0 15.28l-63.79 0Z" id="p10w127" />
<path d="M129.97 695.39l14.63 0l0 15.28l-14.63 0Z" id="p10w128" />
<path d="M147.98 695.39l42.49 0l0 15.28l-42.49 0Z" id="p10w129" />
<path d="M129.97 710.68l53.17 0l0 15.28l-53.17 0Z" id="p10w130" />
<path d="M238.44 677.4l24.06 0l0 13.76l-24.06 0Z" id="p10w131" />
<path d="M265.29 677.4l47.87 0l0 13.76l-47.87 0Z" id="p10w132" />
<path d="M316.19 677.4l48.37 0l0 13.76l-48.37 0Z" id="p10w133" />
<path d="M238.44 692.68l57.92 0l0 13.76l-57.92 0Z" id="p10w134" />
<path d="M299.4 692.68l20.27 0l0 13.76l-20.27 0Z" id="p10w135" />
<path d="M322.71 692.68l32.41 0l0 13.76l-32.41 0Z" id="p10w136" />
<path d="M238.44 707.96l37.48 0l0 13.76l-37.48 0Z" id="p10w137" />
<path d="M238.44 723.24l24.06 0l0 13.76l-24.06 0Z" id="p10w138" />
<path d="M265.54 723.24l34.69 0l0 13.76l-34.69 0Z" id="p10w139" />
<path d="M303.26 723.24l69.05 0l0 13.76l-69.05 0ZM238.44 738.52l41.79 0l0 13.76l-41.79 0Z" id="p10w140" />
<path d="M283.27 738.52l48.37 0l0 13.76l-48.37 0Z" id="p10w141" />
<path d="M388.5 677.36l64.07 0l0 13.76l-64.07 0Z" id="p10w142" />
<path d="M455.61 677.36l39.75 0l0 13.76l-39.75 0Z" id="p10w143" />
<path d="M388.5 692.64l45.33 0l0 13.76l-45.33 0Z" id="p10w144" />
<path d="M436.7 692.64l11.39 0l0 13.76l-11.39 0Z" id="p10w145" />
<path d="M451.13 692.64l43.07 0l0 13.76l-43.07 0Z" id="p10w146" />
<path d="M388.5 707.96l58.47 0l0 13.84l-58.47 0Z" id="p10w147" />
<path d="M573.6 677.38l52.68 0l0 13.76l-52.68 0Z" id="p10w148" />
<path d="M629.32 677.38l18.24 0l0 13.76l-18.24 0Z" id="p10w149" />
<path d="M573.6 692.67l16.47 0l0 13.76l-16.47 0Z" id="p10w150" />
<path d="M593.11 692.67l48.19 0l0 13.76l-48.19 0Z" id="p10w151" />
<path d="M573.6 707.95l51.41 0l0 13.76l-51.41 0Z" id="p10w152" />
<path d="M573.6 723.23l59.77 0l0 13.76l-59.77 0Z" id="p10w153" />
<path d="M636.41 723.23l36.14 0l0 13.76l-36.14 0ZM573.6 738.51l51.14 0l0 13.76l-51.14 0Z" id="p10w154" />
<path d="M627.78 738.51l9.88 0l0 13.76l-9.88 0Z" id="p10w155" />
<path d="M640.7 738.51l39.76 0l0 13.76l-39.76 0Z" id="p10w156" />
<path d="M573.6 753.79l22.55 0l0 13.76l-22.55 0Z" id="p10w157" />
<path d="M599.19 753.79l21.27 0l0 13.76l-21.27 0Z" id="p10w158" />
<path d="M623.49 753.79l33.11 0l0 13.76l-33.11 0Z" id="p10w159" />
<path d="M573.6 769.07l9.88 0l0 13.76l-9.88 0Z" id="p10w160" />
<path d="M586.52 769.07l54.96 0l0 13.76l-54.96 0Z" id="p10w161" />
<path d="M129.97 794.36l39.24 0l0 15.37l-39.24 0Z" id="p10w162" />
<path d="M129.97 813.64l23.36 0l0 15.28l-23.36 0Z" id="p10w163" />
<path d="M156.7 813.64l63.87 0l0 15.28l-63.87 0Z" id="p10w164" />
<path d="M129.97 828.93l20.54 0l0 15.28l-20.54 0Z" id="p10w165" />
<path d="M153.88 828.9l29.46 0l0 15.28l-29.46 0Z" id="p10w166" />
<path d="M186.71 828.93l14.92 0l0 15.28l-14.92 0Z" id="p10w167" />
<path d="M129.97 844.21l24.2 0l0 15.28l-24.2 0Z" id="p10w168" />
<path d="M238.44 810.93l24.06 0l0 13.76l-24.06 0Z" id="p10w169" />
<path d="M265.54 810.93l74.9 0l0 13.76l-74.9 0Z" id="p10w170" />
<path d="M238.44 826.21l48.37 0l0 13.76l-48.37 0Z" id="p10w171" />
<path d="M238.44 841.49l78.97 0l0 13.76l-78.97 0Z" id="p10w172" />
<path d="M320.45 841.49l37.48 0l0 13.76l-37.48 0Z" id="p10w173" />
<path d="M238.44 856.77l70.8 0l0 13.76l-70.8 0Z" id="p10w174" />
<path d="M312.28 856.77l20.27 0l0 13.76l-20.27 0Z" id="p10w175" />
<path d="M238.44 872.05l35.4 0l0 13.76l-35.4 0Z" id="p10w176" />
<path d="M276.88 872.05l37.48 0l0 13.76l-37.48 0Z" id="p10w177" />
<path d="M388.5 810.89l8.1 0l0 13.76l-8.1 0Z" id="p10w178" />
<path d="M396.6 810.92l26.26 0l0 13.76l-26.26 0Z" id="p10w179" />
<path d="M425.9 810.92l15.21 0l0 13.76l-15.21 0Z" id="p10w180" />
<path d="M388.5 826.21l29.55 0l0 13.84l-29.55 0Z" id="p10w181" />
<path d="M573.6 809.84l44.07 0l0 13.76l-44.07 0Z" id="p10w182" />
<path d="M620.71 809.84l9.88 0l0 13.76l-9.88 0Z" id="p10w183" />
<path d="M633.62 809.84l39.76 0l0 13.76l-39.76 0Z" id="p10w184" />
<path d="M129.97 897.32l30.12 0l0 15.37l-30.12 0Z" id="p10w185" />
<path d="M230.4 897.55l49.64 0l0 13.76l-49.64 0Z" id="p10w186" />
<path d="M283.08 897.55l24.06 0l0 13.76l-24.06 0Z" id="p10w187" />
<path d="M310.18 897.55l57.81 0l0 13.76l-57.81 0Z" id="p10w188" />
<path d="M371.03 897.55l20.27 0l0 13.76l-20.27 0Z" id="p10w189" />
<path d="M394.33 897.55l58.48 0l0 13.76l-58.48 0Z" id="p10w190" />
<path d="M455.86 897.55l17.72 0l0 13.76l-17.72 0Z" id="p10w191" />
<path d="M476.61 897.55l48.07 0l0 13.76l-48.07 0Z" id="p10w192" />
<path d="M527.72 897.55l16.47 0l0 13.76l-16.47 0Z" id="p10w193" />
<path d="M547.23 897.55l79.02 0l0 13.76l-79.02 0Z" id="p10w194" />
<path d="M424.9 110.08l29.9 0l0 10.74l-29.9 0Z" id="p10w195" />
<path d="M459.37 109.48l33.8 0l0 10.67l-33.8 0Z" id="p10w196" />
<path d="M425.13 123.2l23.03 0l0 13.35l-23.03 0Z" id="p10w197" />
<path d="M450.96 122.75l39.75 0l0 13.06l-39.75 0Z" id="p10w198" />
<path d="M490.46 122.06l17.91 0l0 13.44l-17.91 0Z" id="p10w199" />
<path d="M425.39 138.48l52.14 0l0 12.85l-52.14 0Z" id="p10w200" />
<path d="M480.33 137.52l29.36 0l0 13.24l-29.36 0Z" id="p10w201" />
<path d="M576.98 106.63l63.9 0l0 13.83l-63.9 0ZM576.98 121.91l71.88 0l0 13.83l-71.88 0Z" id="p10w202" />
<path d="M576.98 137.25l32.16 0l0 13.76l-32.16 0Z" id="p10w203" />
<path d="M388.5 620.29l29.55 0l0 13.84l-29.55 0Z" id="p10w204" />
<path d="M421.08 620.29l20.26 0l0 13.84l-20.26 0Z" id="p10w205" />
<path d="M444.38 620.29l99.37 0l0 13.84l-99.37 0Z" id="p10w206" />
<path d="M365.77 565.23l30.26 0l0 9.69l-30.26 0Z" id="p10w207" />
<path d="M400.2 563.43l34.16 0l0 9.49l-34.16 0Z" id="p10w208" />
<path d="M366.46 578.34l30.32 0l0 12.19l-30.32 0Z" id="p10w209" />
<path d="M399.09 576.63l25.76 0l0 12.42l-25.76 0Z" id="p10w210" />
<path d="M427.16 575.16l24.75 0l0 12.48l-24.75 0Z" id="p10w211" />
<path d="M454.22 573.74l40.43 0l0 11.66l-40.43 0Z" id="p10w212" />
<path d="M367.26 593.6l46.47 0l0 11.34l-46.47 0Z" id="p10w213" />
<path d="M576.98 559.11l63.9 0l0 13.83l-63.9 0ZM576.98 574.39l78.2 0l0 13.83l-78.2 0Z" id="p10w214" />
<path d="M576.98 589.74l34.7 0l0 13.76l-34.7 0Z" id="p10w215" />
<path d="M614.72 589.74l49.64 0l0 13.76l-49.64 0Z" id="p10w216" />
<path d="M230.4 34.12l85.02 0l0 13.83l-85.02 0Z" id="p10w217" />
<path d="M380.46 34.97l60.82 0l0 13.83l-60.82 0Z" id="p10w218" />
<path d="M444.32 34.97l35.46 0l0 13.83l-35.46 0Z" id="p10w219" />
<path d="M387.67 51.55l52.31 0l0 12.3l-52.31 0Z" id="p10w220" />
<path d="M449.68 51.55l52.53 0l0 12.3l-52.53 0Z" id="p10w221" />
<path d="M512.13 51.55l41.64 0l0 12.3l-41.64 0Z" id="p10w222" />
<path d="M565.56 34.97l68.69 0l0 13.83l-68.69 0Z" id="p10w223" />
<path d="M642.22 34.97l29.27 0l0 13.83l-29.27 0ZM565.56 50.25l50.67 0l0 13.83l-50.67 0Z" id="p10w224" />
<path d="M619.27 50.25l60.31 0l0 13.83l-60.31 0Z" id="p10w225" />
<path d="M76.9 973.94l18.46 0l0 12.23l-18.46 0Z" id="p10w226" />
</svg>
