<?xml version="1.0" encoding="UTF-8"?>
<svg xmlns="http://www.w3.org/2000/svg" xmlns:xlink="http://www.w3.org/1999/xlink" version="1.1" baseProfile="full" width="768" height="1024" viewBox="0,0,768,1024" preserveAspectRatio="xMinYMin meet" >
<style type="text/css">
<![CDATA[
path {fill-opacity: 0.5;fill: #00aeef;visibility: hidden;}
]]>
</style>
<path d="M124.06 107.98l17.01 0l0 18.84l-17.01 0Z" id="p168w1" />
<path d="M144.72 107.98l18.69 0l0 18.84l-18.69 0Z" id="p168w2" />
<path d="M167.06 107.98l85.01 0l0 18.84l-85.01 0Z" id="p168w3" />
<path d="M255.72 107.98l42.8 0l0 18.84l-42.8 0Z" id="p168w4" />
<path d="M302.17 107.98l18.36 0l0 18.84l-18.36 0Z" id="p168w5" />
<path d="M324.18 107.98l25.84 0l0 18.84l-25.84 0Z" id="p168w6" />
<path d="M353.67 107.98l48.65 0l0 18.84l-48.65 0Z" id="p168w7" />
<path d="M420.96 107.98l50.3 0l0 18.84l-50.3 0Z" id="p168w8" />
<path d="M493.67 107.98l60.74 0l0 18.84l-60.74 0Z" id="p168w9" />
<path d="M187.08 164.2l19.51 0l0 14.52l-19.51 0Z" id="p168w10" />
<path d="M209.79 164.2l54.82 0l0 14.52l-54.82 0Z" id="p168w11" />
<path d="M201.87 180.87l19.51 0l0 14.52l-19.51 0Z" id="p168w12" />
<path d="M203.11 197.54l18.18 0l0 14.52l-18.18 0Z" id="p168w13" />
<path d="M224.5 197.54l29.67 0l0 14.52l-29.67 0Z" id="p168w14" />
<path d="M257.38 197.54l13.9 0l0 14.52l-13.9 0Z" id="p168w15" />
<path d="M274.48 197.54l9.89 0l0 14.52l-9.89 0Z" id="p168w16" />
<path d="M287.58 197.54l48.92 0l0 14.52l-48.92 0Z" id="p168w17" />
<path d="M187.08 214.21l32.07 0l0 14.52l-32.07 0Z" id="p168w18" />
<path d="M222.36 214.21l52.68 0l0 14.52l-52.68 0Z" id="p168w19" />
<path d="M187.08 230.88l17.92 0l0 14.52l-17.92 0Z" id="p168w20" />
<path d="M208.21 230.88l72.29 0l0 14.52l-72.29 0Z" id="p168w21" />
<path d="M187.08 247.55l132.97 0l0 14.52l-132.97 0Z" id="p168w22" />
<path d="M187.08 330.85l68 0l0 14.6l-68 0Z" id="p168w23" />
<path d="M187.08 355.93l24.68 0l0 14.52l-24.68 0Z" id="p168w24" />
<path d="M324.92 355.93l13.9 0l0 14.52l-13.9 0Z" id="p168w25" />
<path d="M355.53 355.94l13.63 0l0 14.52l-13.63 0Z" id="p168w26" />
<path d="M372.37 355.94l39.77 0l0 14.52l-39.77 0Z" id="p168w27" />
<path d="M415.34 355.94l39.56 0l0 14.52l-39.56 0Z" id="p168w28" />
<path d="M458.11 355.94l64.61 0l0 14.52l-64.61 0Z" id="p168w29" />
<path d="M525.93 355.94l52.68 0l0 14.52l-52.68 0Z" id="p168w30" />
<path d="M187.08 422.57l76.21 0l0 14.6l-76.21 0Z" id="p168w31" />
<path d="M187.08 447.64l24.41 0l0 14.52l-24.41 0Z" id="p168w32" />
<path d="M324.92 447.64l38.49 0l0 14.52l-38.49 0Z" id="p168w33" />
<path d="M366.61 447.64l20.85 0l0 14.52l-20.85 0Z" id="p168w34" />
<path d="M390.67 447.64l20.05 0l0 14.52l-20.05 0Z" id="p168w35" />
<path d="M413.93 447.64l18.44 0l0 14.52l-18.44 0Z" id="p168w36" />
<path d="M435.58 447.64l47.03 0l0 14.52l-47.03 0Z" id="p168w37" />
<path d="M495.7 447.64l9.89 0l0 14.52l-9.89 0Z" id="p168w38" />
<path d="M508.8 447.64l53.72 0l0 14.52l-53.72 0Z" id="p168w39" />
<path d="M565.72 447.64l25.67 0l0 14.52l-25.67 0Z" id="p168w40" />
<path d="M594.6 447.64l57.73 0l0 14.52l-57.73 0Z" id="p168w41" />
<path d="M655.55 447.64l32.8 0l0 14.52l-32.8 0Z" id="p168w42" />
<path d="M324.92 464.31l12.83 0l0 14.52l-12.83 0Z" id="p168w43" />
<path d="M340.95 464.31l25.67 0l0 14.52l-25.67 0Z" id="p168w44" />
<path d="M369.83 464.31l11.5 0l0 14.52l-11.5 0Z" id="p168w45" />
<path d="M384.54 464.31l27.01 0l0 14.52l-27.01 0Z" id="p168w46" />
<path d="M414.75 464.31l52.68 0l0 14.52l-52.68 0Z" id="p168w47" />
<path d="M187.08 489.33l24.68 0l0 14.52l-24.68 0Z" id="p168w48" />
<path d="M324.92 489.33l60.47 0l0 14.52l-60.47 0Z" id="p168w49" />
<path d="M187.08 555.96l83.35 0l0 14.6l-83.35 0Z" id="p168w50" />
<path d="M187.08 581.04l46.45 0l0 14.52l-46.45 0Z" id="p168w51" />
<path d="M324.92 581.04l51.85 0l0 14.52l-51.85 0Z" id="p168w52" />
<path d="M379.97 581.04l41.17 0l0 14.52l-41.17 0Z" id="p168w53" />
<path d="M424.35 581.04l20.42 0l0 14.52l-20.42 0Z" id="p168w54" />
<path d="M447.97 581.04l47.52 0l0 14.52l-47.52 0Z" id="p168w55" />
<path d="M498.7 581.04l13.9 0l0 14.52l-13.9 0Z" id="p168w56" />
<path d="M515.8 581.04l26.74 0l0 14.52l-26.74 0Z" id="p168w57" />
<path d="M545.75 581.04l52.64 0l0 14.52l-52.64 0Z" id="p168w58" />
<path d="M611.49 581.04l41.45 0l0 14.52l-41.45 0Z" id="p168w59" />
<path d="M656.14 581.04l13.9 0l0 14.52l-13.9 0Z" id="p168w60" />
<path d="M673.25 581.04l26.29 0l0 14.52l-26.29 0Z" id="p168w61" />
<path d="M324.92 597.71l39.76 0l0 14.52l-39.76 0Z" id="p168w62" />
<path d="M367.88 597.71l41.17 0l0 14.52l-41.17 0Z" id="p168w63" />
<path d="M412.26 597.71l18.44 0l0 14.52l-18.44 0Z" id="p168w64" />
<path d="M187.08 622.72l72.98 0l0 14.52l-72.98 0Z" id="p168w65" />
<path d="M324.92 622.72l29.14 0l0 14.52l-29.14 0Z" id="p168w66" />
<path d="M357.27 622.72l45.42 0l0 14.52l-45.42 0Z" id="p168w67" />
<path d="M412.01 622.72l45.17 0l0 14.52l-45.17 0Z" id="p168w68" />
<path d="M187.08 689.35l50.05 0l0 14.6l-50.05 0Z" id="p168w69" />
<path d="M240.33 689.35l57.65 0l0 14.6l-57.65 0Z" id="p168w70" />
<path d="M187.08 714.43l40.1 0l0 14.52l-40.1 0Z" id="p168w71" />
<path d="M230.38 714.43l11.22 0l0 14.52l-11.22 0Z" id="p168w72" />
<path d="M244.81 714.43l53.97 0l0 14.52l-53.97 0Z" id="p168w73" />
<path d="M324.92 714.43l28.81 0l0 14.52l-28.81 0Z" id="p168w74" />
<path d="M363.36 714.43l141.52 0l0 14.52l-141.52 0Z" id="p168w75" />
<path d="M187.08 739.44l30.21 0l0 14.52l-30.21 0Z" id="p168w76" />
<path d="M324.92 739.44l28.88 0l0 14.52l-28.88 0Z" id="p168w77" />
<path d="M357 739.44l47.04 0l0 14.52l-47.04 0Z" id="p168w78" />
<path d="M187.08 764.45l47.58 0l0 14.52l-47.58 0Z" id="p168w79" />
<path d="M324.92 764.45l39.76 0l0 14.52l-39.76 0Z" id="p168w80" />
<path d="M84.97 182.64l22.95 0l0 12.29l-22.95 0Z" id="p168w81" />
<path d="M110.63 182.64l41 0l0 12.29l-41 0Z" id="p168w82" />
<path d="M69.07 195.32l22.02 0l0 9.99l-22.02 0Z" id="p168w83" />
<path d="M93.28 195.32l58.35 0l0 9.99l-58.35 0Z" id="p168w84" />
<path d="M98.47 332.7l53.16 0l0 12.29l-53.16 0Z" id="p168w85" />
<path d="M86.36 345.38l10.12 0l0 9.99l-10.12 0Z" id="p168w86" />
<path d="M98.68 345.38l52.95 0l0 9.99l-52.95 0Z" id="p168w87" />
<path d="M101.7 356.22l49.93 0l0 9.99l-49.93 0Z" id="p168w88" />
<path d="M102.92 367.05l48.71 0l0 9.99l-48.71 0Z" id="p168w89" />
<path d="M74.07 424.4l77.56 0l0 12.29l-77.56 0Z" id="p168w90" />
<path d="M86.36 437.08l10.12 0l0 9.99l-10.12 0Z" id="p168w91" />
<path d="M98.68 437.08l52.95 0l0 9.99l-52.95 0Z" id="p168w92" />
<path d="M101.7 447.92l49.93 0l0 9.99l-49.93 0Z" id="p168w93" />
<path d="M102.92 458.75l48.71 0l0 9.99l-48.71 0Z" id="p168w94" />
<path d="M67.95 582.79l83.69 0l0 12.29l-83.69 0Z" id="p168w95" />
<path d="M56.71 595.47l19.12 0l0 9.99l-19.12 0Z" id="p168w96" />
<path d="M77.9 595.47l73.73 0l0 9.99l-73.73 0Z" id="p168w97" />
<path d="M113.23 691.17l38.4 0l0 12.29l-38.4 0Z" id="p168w98" />
<path d="M136.86 38.6l30.93 0l0 16.09l-30.93 0Z" id="p168w99" />
<path d="M76.9 983l78.42 0l0 12.23l-78.42 0Z" id="p168w100" />
</svg>
