<?xml version="1.0" encoding="UTF-8"?>
<svg xmlns="http://www.w3.org/2000/svg" xmlns:xlink="http://www.w3.org/1999/xlink" version="1.1" baseProfile="full" width="768" height="1024" viewBox="0,0,768,1024" preserveAspectRatio="xMinYMin meet" >
<style type="text/css">
<![CDATA[
path {fill-opacity: 0.5;fill: #00aeef;visibility: hidden;}
]]>
</style>
<path d="M124.06 38.6l71 0l0 16.09l-71 0Z" id="p182w1" />
<path d="M78.77 983.66l86.01 0l0 12.23l-86.01 0Z" id="p182w2" />
<path d="M124.06 110.01l20.99 0l0 14.6l-20.99 0Z" id="p182w3" />
<path d="M148.26 110.01l62.05 0l0 14.6l-62.05 0Z" id="p182w4" />
<path d="M124.06 125.44l71.7 0l0 16.35l-71.7 0Z" id="p182w5" />
<path d="M297.36 110.09l23.79 0l0 14.52l-23.79 0Z" id="p182w6" />
<path d="M324.35 110.09l65.98 0l0 14.52l-65.98 0Z" id="p182w7" />
<path d="M482.46 110.09l23.8 0l0 14.52l-23.8 0Z" id="p182w8" />
<path d="M519.35 110.09l18.7 0l0 14.52l-18.7 0Z" id="p182w9" />
<path d="M541.27 110.09l20.85 0l0 14.52l-20.85 0Z" id="p182w10" />
<path d="M565.33 110.09l62.29 0l0 14.52l-62.29 0Z" id="p182w11" />
<path d="M630.82 110.09l68.1 0l0 14.52l-68.1 0Z" id="p182w12" />
<path d="M500.69 126.78l51.58 0l0 14.61l-51.58 0Z" id="p182w13" />
<path d="M555.48 126.78l12.83 0l0 14.61l-12.83 0Z" id="p182w14" />
<path d="M124.06 144.83l14.31 0l0 14.6l-14.31 0Z" id="p182w15" />
<path d="M141.57 144.83l41.83 0l0 14.6l-41.83 0Z" id="p182w16" />
<path d="M186.61 144.83l23.35 0l0 14.6l-23.35 0Z" id="p182w17" />
<path d="M213.26 143.59l43.35 0l0 16.35l-43.35 0Z" id="p182w18" />
<path d="M297.35 144.91l17.11 0l0 14.52l-17.11 0Z" id="p182w19" />
<path d="M317.67 144.91l66.17 0l0 14.52l-66.17 0Z" id="p182w20" />
<path d="M124.06 165.54l14.31 0l0 14.6l-14.31 0Z" id="p182w21" />
<path d="M141.57 165.54l17.11 0l0 14.6l-17.11 0Z" id="p182w22" />
<path d="M161.89 165.54l13.87 0l0 14.6l-13.87 0Z" id="p182w23" />
<path d="M178.97 165.54l27.64 0l0 14.6l-27.64 0Z" id="p182w24" />
<path d="M209.91 164.3l69.88 0l0 16.35l-69.88 0Z" id="p182w25" />
<path d="M297.35 165.62l23.79 0l0 14.52l-23.79 0Z" id="p182w26" />
<path d="M324.34 165.62l74.8 0l0 14.52l-74.8 0Z" id="p182w27" />
<path d="M482.46 165.62l18.44 0l0 14.52l-18.44 0Z" id="p182w28" />
<path d="M504.11 165.62l28.34 0l0 14.52l-28.34 0Z" id="p182w29" />
<path d="M535.65 165.62l18.72 0l0 14.52l-18.72 0Z" id="p182w30" />
<path d="M557.58 165.62l47.87 0l0 14.52l-47.87 0Z" id="p182w31" />
<path d="M608.66 165.62l14.18 0l0 14.52l-14.18 0Z" id="p182w32" />
<path d="M626.04 165.62l16.58 0l0 14.52l-16.58 0Z" id="p182w33" />
<path d="M645.83 165.62l13.9 0l0 14.52l-13.9 0Z" id="p182w34" />
<path d="M662.93 165.62l29.94 0l0 14.52l-29.94 0Z" id="p182w35" />
<path d="M124.06 186.25l25.12 0l0 14.6l-25.12 0Z" id="p182w36" />
<path d="M152.48 185.01l29.21 0l0 16.35l-29.21 0Z" id="p182w37" />
<path d="M297.35 186.33l18.7 0l0 14.52l-18.7 0Z" id="p182w38" />
<path d="M500.19 190.66l24.85 0l0 14.61l-24.85 0Z" id="p182w39" />
<path d="M124.06 208.71l10.02 0l0 14.6l-10.02 0Z" id="p182w40" />
<path d="M137.29 208.71l35.29 0l0 14.6l-35.29 0Z" id="p182w41" />
<path d="M175.79 208.71l25.12 0l0 14.6l-25.12 0Z" id="p182w42" />
<path d="M204.21 207.47l50.09 0l0 16.35l-50.09 0Z" id="p182w43" />
<path d="M297.35 208.79l17.11 0l0 14.52l-17.11 0Z" id="p182w44" />
<path d="M317.67 208.79l40.89 0l0 14.52l-40.89 0Z" id="p182w45" />
<path d="M482.46 208.73l46.86 0l0 14.6l-46.86 0Z" id="p182w46" />
<path d="M532.53 208.79l25.13 0l0 14.52l-25.13 0Z" id="p182w47" />
<path d="M560.87 208.79l35 0l0 14.52l-35 0Z" id="p182w48" />
<path d="M599.08 208.79l27.53 0l0 14.52l-27.53 0Z" id="p182w49" />
<path d="M629.82 208.79l9.62 0l0 14.52l-9.62 0Z" id="p182w50" />
<path d="M642.65 208.79l19.77 0l0 14.52l-19.77 0Z" id="p182w51" />
<path d="M482.46 225.46l14.18 0l0 14.52l-14.18 0Z" id="p182w52" />
<path d="M499.84 225.46l31.55 0l0 14.52l-31.55 0Z" id="p182w53" />
<path d="M500.19 242.07l10.56 0l0 14.6l-10.56 0Z" id="p182w54" />
<path d="M513.95 242.15l39.28 0l0 14.61l-39.28 0Z" id="p182w55" />
<path d="M556.44 242.15l40.88 0l0 14.61l-40.88 0Z" id="p182w56" />
<path d="M124.06 260.21l20.99 0l0 14.6l-20.99 0Z" id="p182w57" />
<path d="M148.25 260.21l45.88 0l0 14.6l-45.88 0Z" id="p182w58" />
<path d="M197.34 260.21l13.87 0l0 14.6l-13.87 0Z" id="p182w59" />
<path d="M214.42 260.21l49.17 0l0 14.6l-49.17 0Z" id="p182w60" />
<path d="M124.06 275.64l98.85 0l0 16.35l-98.85 0Z" id="p182w61" />
<path d="M297.35 260.29l23.79 0l0 14.52l-23.79 0Z" id="p182w62" />
<path d="M324.35 260.29l89.52 0l0 14.52l-89.52 0Z" id="p182w63" />
<path d="M500.69 260.22l39.86 0l0 14.61l-39.86 0Z" id="p182w64" />
<path d="M543.76 260.22l30.73 0l0 14.61l-30.73 0Z" id="p182w65" />
<path d="M124.06 295.01l20.99 0l0 14.6l-20.99 0Z" id="p182w66" />
<path d="M148.25 295.01l53.99 0l0 14.6l-53.99 0Z" id="p182w67" />
<path d="M205.54 293.77l59.37 0l0 16.35l-59.37 0Z" id="p182w68" />
<path d="M297.35 295.09l23.79 0l0 14.52l-23.79 0Z" id="p182w69" />
<path d="M324.34 295.09l67.14 0l0 14.52l-67.14 0Z" id="p182w70" />
<path d="M394.7 295.09l17.11 0l0 14.52l-17.11 0Z" id="p182w71" />
<path d="M414.65 295.09l39.03 0l0 14.52l-39.03 0Z" id="p182w72" />
<path d="M124.06 315.72l14.31 0l0 14.6l-14.31 0Z" id="p182w73" />
<path d="M141.57 315.72l58.78 0l0 14.6l-58.78 0Z" id="p182w74" />
<path d="M200.35 315.72l20.99 0l0 14.6l-20.99 0Z" id="p182w75" />
<path d="M224.54 315.72l55.4 0l0 14.6l-55.4 0Z" id="p182w76" />
<path d="M124.06 331.15l136.81 0l0 16.35l-136.81 0Z" id="p182w77" />
<path d="M297.35 315.8l17.11 0l0 14.52l-17.11 0Z" id="p182w78" />
<path d="M317.67 315.8l61.71 0l0 14.52l-61.71 0Z" id="p182w79" />
<path d="M297.35 332.47l23.79 0l0 14.52l-23.79 0Z" id="p182w80" />
<path d="M324.34 332.47l67.18 0l0 14.52l-67.18 0Z" id="p182w81" />
<path d="M520.06 320.12l13.83 0l0 14.61l-13.83 0Z" id="p182w82" />
<path d="M539.37 320.12l22.7 0l0 14.61l-22.7 0Z" id="p182w83" />
<path d="M586.21 320.12l27.9 0l0 14.61l-27.9 0Z" id="p182w84" />
<path d="M620.82 320.12l22.7 0l0 14.61l-22.7 0Z" id="p182w85" />
<path d="M124.06 350.54l20.99 0l0 14.6l-20.99 0Z" id="p182w86" />
<path d="M148.26 350.54l27.38 0l0 14.6l-27.38 0Z" id="p182w87" />
<path d="M178.84 350.54l7.91 0l0 14.6l-7.91 0Z" id="p182w88" />
<path d="M186.75 350.54l38.26 0l0 14.6l-38.26 0Z" id="p182w89" />
<path d="M124.06 365.97l71.14 0l0 16.35l-71.14 0Z" id="p182w90" />
<path d="M156.37 396.95l78.06 0l0 14.52l-78.06 0Z" id="p182w91" />
<path d="M237.64 396.95l13.36 0l0 14.52l-13.36 0Z" id="p182w92" />
<path d="M254.2 396.95l23.79 0l0 14.52l-23.79 0Z" id="p182w93" />
<path d="M281.19 396.95l58.8 0l0 14.52l-58.8 0Z" id="p182w94" />
<path d="M343.2 396.95l19.24 0l0 14.52l-19.24 0Z" id="p182w95" />
<path d="M365.66 396.95l24.85 0l0 14.52l-24.85 0Z" id="p182w96" />
<path d="M393.72 396.95l36.35 0l0 14.52l-36.35 0Z" id="p182w97" />
<path d="M129.97 413.62l11.5 0l0 14.52l-11.5 0Z" id="p182w98" />
<path d="M144.67 413.62l42.49 0l0 14.52l-42.49 0Z" id="p182w99" />
<path d="M190.37 413.62l19.24 0l0 14.52l-19.24 0Z" id="p182w100" />
<path d="M212.82 413.62l34.74 0l0 14.52l-34.74 0Z" id="p182w101" />
<path d="M250.77 413.62l45.19 0l0 14.52l-45.19 0Z" id="p182w102" />
<path d="M299.17 413.62l18.7 0l0 14.52l-18.7 0Z" id="p182w103" />
<path d="M321.08 413.62l36.07 0l0 14.52l-36.07 0Z" id="p182w104" />
<path d="M360.36 413.62l38.23 0l0 14.52l-38.23 0Z" id="p182w105" />
<path d="M129.97 430.29l72.7 0l0 14.52l-72.7 0Z" id="p182w106" />
<path d="M205.88 430.29l45.38 0l0 14.52l-45.38 0Z" id="p182w107" />
<path d="M254.47 430.29l21.4 0l0 14.52l-21.4 0Z" id="p182w108" />
<path d="M279.07 430.29l13.36 0l0 14.52l-13.36 0Z" id="p182w109" />
<path d="M295.63 430.29l10.43 0l0 14.52l-10.43 0Z" id="p182w110" />
<path d="M309.27 430.29l33.94 0l0 14.52l-33.94 0Z" id="p182w111" />
<path d="M346.41 430.29l74.84 0l0 14.52l-74.84 0Z" id="p182w112" />
<path d="M129.97 446.96l46.24 0l0 14.52l-46.24 0Z" id="p182w113" />
<path d="M179.41 446.96l18.7 0l0 14.52l-18.7 0Z" id="p182w114" />
<path d="M201.32 446.96l32.89 0l0 14.52l-32.89 0Z" id="p182w115" />
<path d="M237.42 446.96l21.4 0l0 14.52l-21.4 0Z" id="p182w116" />
<path d="M262.03 446.96l50.61 0l0 14.52l-50.61 0Z" id="p182w117" />
<path d="M315.84 446.96l38.16 0l0 14.52l-38.16 0Z" id="p182w118" />
<path d="M297.35 350.62l17.11 0l0 14.52l-17.11 0Z" id="p182w119" />
<path d="M317.67 350.62l78.06 0l0 14.52l-78.06 0Z" id="p182w120" />
<path d="M124.06 476.17l14.31 0l0 14.6l-14.31 0Z" id="p182w121" />
<path d="M141.58 476.17l75.58 0l0 14.6l-75.58 0Z" id="p182w122" />
<path d="M124.06 491.6l76.38 0l0 16.35l-76.38 0Z" id="p182w123" />
<path d="M297.35 476.25l23.79 0l0 14.52l-23.79 0Z" id="p182w124" />
<path d="M324.35 476.25l81.94 0l0 14.52l-81.94 0Z" id="p182w125" />
<path d="M124.06 510.98l10.03 0l0 14.6l-10.03 0Z" id="p182w126" />
<path d="M137.3 510.98l37.13 0l0 14.6l-37.13 0Z" id="p182w127" />
<path d="M177.73 509.74l40.89 0l0 16.35l-40.89 0Z" id="p182w128" />
<path d="M297.36 511.06l58.01 0l0 14.52l-58.01 0Z" id="p182w129" />
<path d="M482.46 511.06l12.83 0l0 14.52l-12.83 0Z" id="p182w130" />
<path d="M498.5 511.06l36.89 0l0 14.52l-36.89 0Z" id="p182w131" />
<path d="M538.6 511.06l16.83 0l0 14.52l-16.83 0Z" id="p182w132" />
<path d="M558.64 511.06l14.18 0l0 14.52l-14.18 0Z" id="p182w133" />
<path d="M576.02 511.06l25.4 0l0 14.52l-25.4 0Z" id="p182w134" />
<path d="M604.62 511.06l55.34 0l0 14.52l-55.34 0Z" id="p182w135" />
<path d="M500.69 527.74l43.69 0l0 14.61l-43.69 0Z" id="p182w136" />
<path d="M124.06 569.19l47.08 0l0 18.44l-47.08 0Z" id="p182w137" />
<path d="M124.06 596.31l18.82 0l0 14.6l-18.82 0Z" id="p182w138" />
<path d="M146.18 595.07l26.19 0l0 16.35l-26.19 0Z" id="p182w139" />
<path d="M297.36 596.39l31.01 0l0 14.52l-31.01 0Z" id="p182w140" />
<path d="M124.06 617.06l14.31 0l0 14.6l-14.31 0Z" id="p182w141" />
<path d="M141.58 617.06l65.65 0l0 14.6l-65.65 0Z" id="p182w142" />
<path d="M210.44 617.06l13.87 0l0 14.6l-13.87 0Z" id="p182w143" />
<path d="M227.52 617.06l18.43 0l0 14.6l-18.43 0Z" id="p182w144" />
<path d="M249.15 617.1l29.32 0l0 14.52l-29.32 0Z" id="p182w145" />
<path d="M124.06 632.49l88.62 0l0 16.35l-88.62 0Z" id="p182w146" />
<path d="M297.36 617.1l17.11 0l0 14.52l-17.11 0Z" id="p182w147" />
<path d="M317.41 617.1l119.06 0l0 14.52l-119.06 0Z" id="p182w148" />
<path d="M482.46 616.94l17.37 0l0 14.68l-17.37 0Z" id="p182w149" />
<path d="M506.34 617.02l31.53 0l0 14.61l-31.53 0Z" id="p182w150" />
<path d="M541.08 617.02l98.52 0l0 14.61l-98.52 0Z" id="p182w151" />
<path d="M642.81 617.02l63.54 0l0 14.61l-63.54 0Z" id="p182w152" />
<path d="M482.46 633.69l19.17 0l0 14.61l-19.17 0Z" id="p182w153" />
<path d="M504.84 633.61l17.37 0l0 14.68l-17.37 0Z" id="p182w154" />
<path d="M525.41 633.69l56.16 0l0 14.61l-56.16 0Z" id="p182w155" />
<path d="M584.78 633.61l17.37 0l0 14.68l-17.37 0Z" id="p182w156" />
<path d="M605.36 633.69l13.36 0l0 14.61l-13.36 0Z" id="p182w157" />
<path d="M621.93 633.69l17.11 0l0 14.61l-17.11 0Z" id="p182w158" />
<path d="M641.98 633.69l27.18 0l0 14.61l-27.18 0Z" id="p182w159" />
<path d="M672.36 633.69l19.17 0l0 14.61l-19.17 0Z" id="p182w160" />
<path d="M482.46 650.36l24.85 0l0 14.61l-24.85 0Z" id="p182w161" />
<path d="M510.09 650.36l37.8 0l0 14.61l-37.8 0Z" id="p182w162" />
<path d="M550.93 650.36l28.33 0l0 14.61l-28.33 0Z" id="p182w163" />
<path d="M582.02 650.36l46.28 0l0 14.61l-46.28 0Z" id="p182w164" />
<path d="M631.51 650.36l18.44 0l0 14.61l-18.44 0Z" id="p182w165" />
<path d="M653.16 650.36l42.48 0l0 14.61l-42.48 0ZM482.46 667.03l46.17 0l0 14.61l-46.17 0Z" id="p182w166" />
<path d="M531.67 667.03l15.51 0l0 14.61l-15.51 0Z" id="p182w167" />
<path d="M550.39 667.03l32.06 0l0 14.61l-32.06 0Z" id="p182w168" />
<path d="M585.65 667.03l27.01 0l0 14.61l-27.01 0Z" id="p182w169" />
<path d="M615.87 667.03l17.11 0l0 14.61l-17.11 0Z" id="p182w170" />
<path d="M636.18 667.03l47.56 0l0 14.61l-47.56 0Z" id="p182w171" />
<path d="M482.46 683.7l27.18 0l0 14.61l-27.18 0Z" id="p182w172" />
<path d="M512.85 683.7l19.17 0l0 14.61l-19.17 0Z" id="p182w173" />
<path d="M535.22 683.7l24.85 0l0 14.61l-24.85 0Z" id="p182w174" />
<path d="M562.85 683.7l38.42 0l0 14.61l-38.42 0Z" id="p182w175" />
<path d="M604.48 683.7l47.15 0l0 14.61l-47.15 0Z" id="p182w176" />
<path d="M482.46 700.37l17.4 0l0 14.61l-17.4 0Z" id="p182w177" />
<path d="M503.07 700.37l52.49 0l0 14.61l-52.49 0Z" id="p182w178" />
<path d="M124.06 718.47l70.52 0l0 14.6l-70.52 0Z" id="p182w179" />
<path d="M197.79 718.51l33.14 0l0 14.52l-33.14 0Z" id="p182w180" />
<path d="M234.14 717.23l39.98 0l0 16.35l-39.98 0Z" id="p182w181" />
<path d="M297.36 718.53l36.09 0l0 14.52l-36.09 0Z" id="p182w182" />
<path d="M336.65 718.51l30.46 0l0 14.52l-30.46 0Z" id="p182w183" />
<path d="M373.22 718.53l30.4 0l0 14.52l-30.4 0Z" id="p182w184" />
<path d="M406.83 718.51l30.46 0l0 14.52l-30.46 0Z" id="p182w185" />
<path d="M482.46 718.51l31.8 0l0 14.52l-31.8 0Z" id="p182w186" />
<path d="M517.47 718.51l9.89 0l0 14.52l-9.89 0Z" id="p182w187" />
<path d="M530.56 718.51l42.18 0l0 14.52l-42.18 0Z" id="p182w188" />
<path d="M575.95 718.51l22.99 0l0 14.52l-22.99 0Z" id="p182w189" />
<path d="M602.15 718.51l9.89 0l0 14.52l-9.89 0Z" id="p182w190" />
<path d="M615.25 718.51l39.03 0l0 14.52l-39.03 0Z" id="p182w191" />
<path d="M657.49 718.51l25.65 0l0 14.52l-25.65 0Z" id="p182w192" />
<path d="M482.46 735.18l32.62 0l0 14.52l-32.62 0Z" id="p182w193" />
<path d="M494.71 751.88l90.44 0l0 14.61l-90.44 0Z" id="p182w194" />
<path d="M124.06 769.93l10.03 0l0 14.6l-10.03 0Z" id="p182w195" />
<path d="M137.3 769.93l22.33 0l0 14.6l-22.33 0Z" id="p182w196" />
<path d="M162.93 768.69l36.65 0l0 16.35l-36.65 0Z" id="p182w197" />
<path d="M297.35 770.01l17.11 0l0 14.52l-17.11 0Z" id="p182w198" />
<path d="M317.67 770.01l32.88 0l0 14.52l-32.88 0Z" id="p182w199" />
<path d="M497.84 769.92l9.89 0l0 14.61l-9.89 0Z" id="p182w200" />
<path d="M510.94 769.92l21.65 0l0 14.61l-21.65 0Z" id="p182w201" />
<path d="M124.06 790.64l44.16 0l0 14.6l-44.16 0Z" id="p182w202" />
<path d="M171.44 790.64l32.19 0l0 14.6l-32.19 0Z" id="p182w203" />
<path d="M216.83 789.4l46.38 0l0 16.35l-46.38 0Z" id="p182w204" />
<path d="M129.97 832.96l44.16 0l0 14.6l-44.16 0Z" id="p182w205" />
<path d="M184.02 833.03l31.82 0l0 14.52l-31.82 0Z" id="p182w206" />
<path d="M231.75 833.03l11.5 0l0 14.52l-11.5 0Z" id="p182w207" />
<path d="M246.45 833.03l27.01 0l0 14.52l-27.01 0Z" id="p182w208" />
<path d="M276.8 833.03l14.97 0l0 14.52l-14.97 0Z" id="p182w209" />
<path d="M294.97 833.03l50.26 0l0 14.52l-50.26 0Z" id="p182w210" />
<path d="M348.44 833.03l27.01 0l0 14.52l-27.01 0Z" id="p182w211" />
<path d="M129.97 849.7l26.74 0l0 14.52l-26.74 0Z" id="p182w212" />
<path d="M159.92 849.7l27.01 0l0 14.52l-27.01 0Z" id="p182w213" />
<path d="M192.94 849.7l22.47 0l0 14.52l-22.47 0Z" id="p182w214" />
<path d="M218.62 849.7l25.67 0l0 14.52l-25.67 0Z" id="p182w215" />
<path d="M247.5 849.7l27.01 0l0 14.52l-27.01 0Z" id="p182w216" />
<path d="M280.52 849.7l15.25 0l0 14.52l-15.25 0Z" id="p182w217" />
<path d="M298.97 849.7l42.36 0l0 14.52l-42.36 0Z" id="p182w218" />
<path d="M344.54 849.7l27.01 0l0 14.52l-27.01 0Z" id="p182w219" />
<path d="M374.88 849.7l18.44 0l0 14.52l-18.44 0Z" id="p182w220" />
<path d="M129.97 866.3l30.74 0l0 14.68l-30.74 0Z" id="p182w221" />
<path d="M163.92 866.3l47.06 0l0 14.68l-47.06 0Z" id="p182w222" />
<path d="M220.82 866.37l14.8 0l0 14.52l-14.8 0Z" id="p182w223" />
<path d="M238.82 866.3l39.53 0l0 14.6l-39.53 0Z" id="p182w224" />
<path d="M297.35 790.72l48.1 0l0 14.52l-48.1 0Z" id="p182w225" />
<path d="M348.66 790.72l47.86 0l0 14.52l-47.86 0Z" id="p182w226" />
<path d="M399.72 790.72l33.17 0l0 14.52l-33.17 0Z" id="p182w227" />
<path d="M297.35 807.39l27.01 0l0 14.52l-27.01 0Z" id="p182w228" />
<path d="M482.46 790.72l46.26 0l0 14.52l-46.26 0Z" id="p182w229" />
<path d="M541.81 790.72l39.57 0l0 14.52l-39.57 0Z" id="p182w230" />
<path d="M584.59 790.72l20.85 0l0 14.52l-20.85 0Z" id="p182w231" />
<path d="M608.66 790.72l30.19 0l0 14.52l-30.19 0Z" id="p182w232" />
<path d="M651.94 790.72l17.9 0l0 14.52l-17.9 0Z" id="p182w233" />
<path d="M482.46 807.39l86.98 0l0 14.52l-86.98 0Z" id="p182w234" />
<path d="M124.06 893.61l49.88 0l0 14.6l-49.88 0Z" id="p182w235" />
<path d="M177.14 893.61l12.67 0l0 14.6l-12.67 0Z" id="p182w236" />
<path d="M193.11 892.37l52.39 0l0 16.35l-52.39 0Z" id="p182w237" />
<path d="M297.35 893.69l21.92 0l0 14.52l-21.92 0Z" id="p182w238" />
<path d="M322.48 893.69l23.09 0l0 14.52l-23.09 0Z" id="p182w239" />
<path d="M348.77 893.69l54.79 0l0 14.52l-54.79 0Z" id="p182w240" />
<path d="M482.46 893.69l10.43 0l0 14.52l-10.43 0Z" id="p182w241" />
<path d="M496.09 893.69l13.9 0l0 14.52l-13.9 0Z" id="p182w242" />
<path d="M513.2 893.69l26.74 0l0 14.52l-26.74 0Z" id="p182w243" />
<path d="M543.15 893.69l19.51 0l0 14.52l-19.51 0Z" id="p182w244" />
<path d="M565.86 893.69l49.64 0l0 14.52l-49.64 0Z" id="p182w245" />
<path d="M618.71 893.69l20.85 0l0 14.52l-20.85 0Z" id="p182w246" />
<path d="M642.78 893.69l16.04 0l0 14.52l-16.04 0Z" id="p182w247" />
<path d="M662.02 893.69l25.12 0l0 14.52l-25.12 0Z" id="p182w248" />
<path d="M482.46 910.36l50.26 0l0 14.52l-50.26 0Z" id="p182w249" />
<path d="M500.19 927.05l45.08 0l0 14.61l-45.08 0Z" id="p182w250" />
</svg>
