<?xml version="1.0" encoding="UTF-8"?>
<svg xmlns="http://www.w3.org/2000/svg" xmlns:xlink="http://www.w3.org/1999/xlink" version="1.1" baseProfile="full" width="768" height="1024" viewBox="0,0,768,1024" preserveAspectRatio="xMinYMin meet" >
<style type="text/css">
<![CDATA[
path {fill-opacity: 0.5;fill: #00aeef;visibility: hidden;}
]]>
</style>
<path d="M124.06 114.18l41.17 0l0 14.52l-41.17 0Z" id="p33w1" />
<path d="M168.44 114.18l15.5 0l0 14.52l-15.5 0Z" id="p33w2" />
<path d="M187.14 114.18l50.78 0l0 14.52l-50.78 0Z" id="p33w3" />
<path d="M241.13 114.18l17.38 0l0 14.52l-17.38 0Z" id="p33w4" />
<path d="M261.72 114.18l81.27 0l0 14.52l-81.27 0Z" id="p33w5" />
<path d="M346.19 114.18l19.52 0l0 14.52l-19.52 0Z" id="p33w6" />
<path d="M368.92 114.18l47.04 0l0 14.52l-47.04 0Z" id="p33w7" />
<path d="M419.17 114.18l48.48 0l0 14.52l-48.48 0Z" id="p33w8" />
<path d="M124.06 189.2l42.5 0l0 14.52l-42.5 0Z" id="p33w9" />
<path d="M169.77 189.2l13.91 0l0 14.52l-13.91 0Z" id="p33w10" />
<path d="M186.89 189.2l45.17 0l0 14.52l-45.17 0Z" id="p33w11" />
<path d="M243.55 189.2l59.34 0l0 14.52l-59.34 0Z" id="p33w12" />
<path d="M306.11 189.2l15.5 0l0 14.52l-15.5 0Z" id="p33w13" />
<path d="M324.81 189.2l45.97 0l0 14.52l-45.97 0Z" id="p33w14" />
<path d="M373.99 189.2l51.58 0l0 14.52l-51.58 0Z" id="p33w15" />
<path d="M438.67 189.2l42.08 0l0 14.52l-42.08 0Z" id="p33w16" />
<path d="M483.95 189.2l13.9 0l0 14.52l-13.9 0Z" id="p33w17" />
<path d="M501.06 189.2l48.5 0l0 14.52l-48.5 0Z" id="p33w18" />
<path d="M634.33 189.2l14.44 0l0 14.52l-14.44 0Z" id="p33w19" />
<path d="M651.98 189.2l23.52 0l0 14.52l-23.52 0Z" id="p33w20" />
<path d="M294.89 214.22l18.44 0l0 14.52l-18.44 0Z" id="p33w21" />
<path d="M316.53 214.22l63.87 0l0 14.52l-63.87 0Z" id="p33w22" />
<path d="M383.61 214.22l70.54 0l0 14.52l-70.54 0Z" id="p33w23" />
<path d="M467.24 214.22l9.89 0l0 14.52l-9.89 0Z" id="p33w24" />
<path d="M480.34 214.22l47.58 0l0 14.52l-47.58 0Z" id="p33w25" />
<path d="M318.18 230.89l9.89 0l0 14.52l-9.89 0Z" id="p33w26" />
<path d="M331.28 230.89l39.24 0l0 14.52l-39.24 0Z" id="p33w27" />
<path d="M373.73 230.89l44.46 0l0 14.52l-44.46 0Z" id="p33w28" />
<path d="M431.27 230.89l19.79 0l0 14.52l-19.79 0Z" id="p33w29" />
<path d="M454.27 230.89l43.82 0l0 14.52l-43.82 0Z" id="p33w30" />
<path d="M501.3 230.89l37.7 0l0 14.52l-37.7 0Z" id="p33w31" />
<path d="M318.18 255.9l40.9 0l0 14.52l-40.9 0Z" id="p33w32" />
<path d="M362.29 255.9l16.83 0l0 14.52l-16.83 0Z" id="p33w33" />
<path d="M382.33 255.9l9.89 0l0 14.52l-9.89 0Z" id="p33w34" />
<path d="M395.43 255.9l57.47 0l0 14.52l-57.47 0Z" id="p33w35" />
<path d="M456.1 255.9l14.18 0l0 14.52l-14.18 0Z" id="p33w36" />
<path d="M473.49 255.9l41.92 0l0 14.52l-41.92 0Z" id="p33w37" />
<path d="M518.61 255.9l26.45 0l0 14.52l-26.45 0Z" id="p33w38" />
<path d="M548.27 255.9l64.62 0l0 14.52l-64.62 0Z" id="p33w39" />
<path d="M294.89 272.57l9.89 0l0 14.52l-9.89 0Z" id="p33w40" />
<path d="M307.98 272.57l48.92 0l0 14.52l-48.92 0Z" id="p33w41" />
<path d="M360.1 272.57l25.92 0l0 14.52l-25.92 0Z" id="p33w42" />
<path d="M389.23 272.57l19.51 0l0 14.52l-19.51 0Z" id="p33w43" />
<path d="M321.39 297.58l31.28 0l0 14.52l-31.28 0Z" id="p33w44" />
<path d="M365.77 297.58l40.9 0l0 14.52l-40.9 0Z" id="p33w45" />
<path d="M409.88 297.58l6.96 0l0 14.52l-6.96 0Z" id="p33w46" />
<path d="M429.93 297.58l20.85 0l0 14.52l-20.85 0Z" id="p33w47" />
<path d="M453.99 297.58l22.2 0l0 14.52l-22.2 0Z" id="p33w48" />
<path d="M294.89 322.59l6.96 0l0 14.52l-6.96 0Z" id="p33w49" />
<path d="M305.05 322.59l15.87 0l0 14.52l-15.87 0Z" id="p33w50" />
<path d="M324.13 322.59l19.51 0l0 14.52l-19.51 0Z" id="p33w51" />
<path d="M346.84 322.59l20.58 0l0 14.52l-20.58 0Z" id="p33w52" />
<path d="M370.63 322.59l9.89 0l0 14.52l-9.89 0Z" id="p33w53" />
<path d="M383.72 322.59l31.28 0l0 14.52l-31.28 0Z" id="p33w54" />
<path d="M441.5 322.59l26.45 0l0 14.52l-26.45 0Z" id="p33w55" />
<path d="M471.16 322.59l43.57 0l0 14.52l-43.57 0Z" id="p33w56" />
<path d="M517.94 322.59l19.79 0l0 14.52l-19.79 0Z" id="p33w57" />
<path d="M540.93 322.59l36.63 0l0 14.52l-36.63 0Z" id="p33w58" />
<path d="M590.65 322.59l17.9 0l0 14.52l-17.9 0Z" id="p33w59" />
<path d="M294.89 347.6l18.44 0l0 14.52l-18.44 0Z" id="p33w60" />
<path d="M316.53 347.6l55.33 0l0 14.52l-55.33 0Z" id="p33w61" />
<path d="M375.06 347.6l24.87 0l0 14.52l-24.87 0Z" id="p33w62" />
<path d="M403.13 347.6l53.72 0l0 14.52l-53.72 0Z" id="p33w63" />
<path d="M469.93 347.6l14.18 0l0 14.52l-14.18 0Z" id="p33w64" />
<path d="M506.26 347.6l42.98 0l0 14.52l-42.98 0Z" id="p33w65" />
<path d="M552.44 347.6l33.16 0l0 14.52l-33.16 0Z" id="p33w66" />
<path d="M588.8 347.6l25.65 0l0 14.52l-25.65 0Z" id="p33w67" />
<path d="M636.59 347.6l52.4 0l0 14.52l-52.4 0Z" id="p33w68" />
<path d="M294.9 372.61l18.44 0l0 14.52l-18.44 0Z" id="p33w69" />
<path d="M316.54 372.61l42.78 0l0 14.52l-42.78 0Z" id="p33w70" />
<path d="M362.53 372.61l24.33 0l0 14.52l-24.33 0Z" id="p33w71" />
<path d="M409.02 372.61l36.89 0l0 14.52l-36.89 0Z" id="p33w72" />
<path d="M449.12 372.61l20.85 0l0 14.52l-20.85 0Z" id="p33w73" />
<path d="M473.18 372.61l39.57 0l0 14.52l-39.57 0Z" id="p33w74" />
<path d="M515.96 372.61l25.67 0l0 14.52l-25.67 0Z" id="p33w75" />
<path d="M544.84 372.61l9.89 0l0 14.52l-9.89 0Z" id="p33w76" />
<path d="M557.93 372.61l42.98 0l0 14.52l-42.98 0Z" id="p33w77" />
<path d="M294.9 389.28l11.5 0l0 14.52l-11.5 0Z" id="p33w78" />
<path d="M309.6 389.28l28.33 0l0 14.52l-28.33 0Z" id="p33w79" />
<path d="M341.14 389.28l22.73 0l0 14.52l-22.73 0Z" id="p33w80" />
<path d="M367.07 389.28l40.9 0l0 14.52l-40.9 0Z" id="p33w81" />
<path d="M411.18 389.28l12.66 0l0 14.52l-12.66 0Z" id="p33w82" />
<path d="M446 389.28l44.13 0l0 14.52l-44.13 0Z" id="p33w83" />
<path d="M124.06 422.62l30.23 0l0 14.52l-30.23 0Z" id="p33w84" />
<path d="M157.49 422.62l13.9 0l0 14.52l-13.9 0Z" id="p33w85" />
<path d="M174.6 422.62l36.35 0l0 14.52l-36.35 0Z" id="p33w86" />
<path d="M214.16 422.62l32.87 0l0 14.52l-32.87 0Z" id="p33w87" />
<path d="M250.23 422.62l36.61 0l0 14.52l-36.61 0Z" id="p33w88" />
<path d="M290.05 422.62l47.53 0l0 14.52l-47.53 0Z" id="p33w89" />
<path d="M340.79 422.62l40.64 0l0 14.52l-40.64 0Z" id="p33w90" />
<path d="M384.64 422.62l39.24 0l0 14.52l-39.24 0Z" id="p33w91" />
<path d="M427.09 422.62l42.24 0l0 14.52l-42.24 0Z" id="p33w92" />
<path d="M472.53 422.62l12.29 0l0 14.52l-12.29 0Z" id="p33w93" />
<path d="M488.03 422.62l33.67 0l0 14.52l-33.67 0Z" id="p33w94" />
<path d="M534.79 422.62l28.96 0l0 14.52l-28.96 0Z" id="p33w95" />
<path d="M566.96 422.62l14.18 0l0 14.52l-14.18 0Z" id="p33w96" />
<path d="M584.35 422.62l38.23 0l0 14.52l-38.23 0Z" id="p33w97" />
<path d="M124.06 439.29l6.96 0l0 14.52l-6.96 0Z" id="p33w98" />
<path d="M134.22 439.29l21.92 0l0 14.52l-21.92 0Z" id="p33w99" />
<path d="M168.45 439.29l27.53 0l0 14.52l-27.53 0Z" id="p33w100" />
<path d="M199.19 439.29l14.18 0l0 14.52l-14.18 0Z" id="p33w101" />
<path d="M216.57 439.29l45.17 0l0 14.52l-45.17 0Z" id="p33w102" />
<path d="M264.95 439.29l26.73 0l0 14.52l-26.73 0Z" id="p33w103" />
<path d="M294.88 439.29l40.64 0l0 14.52l-40.64 0Z" id="p33w104" />
<path d="M338.73 439.29l40.36 0l0 14.52l-40.36 0Z" id="p33w105" />
<path d="M382.3 439.29l12.83 0l0 14.52l-12.83 0Z" id="p33w106" />
<path d="M398.34 439.29l39.24 0l0 14.52l-39.24 0Z" id="p33w107" />
<path d="M440.79 439.29l17.38 0l0 14.52l-17.38 0Z" id="p33w108" />
<path d="M471.27 439.29l47.57 0l0 14.52l-47.57 0Z" id="p33w109" />
<path d="M522.04 439.29l9.89 0l0 14.52l-9.89 0Z" id="p33w110" />
<path d="M535.14 439.29l22.99 0l0 14.52l-22.99 0Z" id="p33w111" />
<path d="M561.34 439.29l38.17 0l0 14.52l-38.17 0Z" id="p33w112" />
<path d="M124.06 455.94l20.85 0l0 14.52l-20.85 0Z" id="p33w113" />
<path d="M148.12 455.94l40.55 0l0 14.52l-40.55 0Z" id="p33w114" />
<path d="M191.88 455.94l64.06 0l0 14.52l-64.06 0Z" id="p33w115" />
<path d="M269.03 455.96l37.57 0l0 14.52l-37.57 0Z" id="p33w116" />
<path d="M124.06 874.93l23.83 0l0 18.84l-23.83 0Z" id="p33w117" />
<path d="M151.54 874.93l18.36 0l0 18.84l-18.36 0Z" id="p33w118" />
<path d="M173.54 874.93l34.36 0l0 18.84l-34.36 0Z" id="p33w119" />
<path d="M221.98 873.43l23.28 0l0 20.87l-23.28 0Z" id="p33w120" />
<path d="M254.29 873.43l22.19 0l0 20.87l-22.19 0Z" id="p33w121" />
<path d="M285.52 873.43l21.51 0l0 20.87l-21.51 0Z" id="p33w122" />
<path d="M143.75 906.14l43.86 0l0 14.52l-43.86 0Z" id="p33w123" />
<path d="M190.82 906.14l11.22 0l0 14.52l-11.22 0Z" id="p33w124" />
<path d="M205.25 906.14l39.56 0l0 14.52l-39.56 0Z" id="p33w125" />
<path d="M248.02 906.14l15.5 0l0 14.52l-15.5 0Z" id="p33w126" />
<path d="M266.72 906.14l28.06 0l0 14.52l-28.06 0Z" id="p33w127" />
<path d="M297.99 906.14l26.73 0l0 14.52l-26.73 0Z" id="p33w128" />
<path d="M327.92 906.14l9.89 0l0 14.52l-9.89 0Z" id="p33w129" />
<path d="M341.02 906.14l44.64 0l0 14.52l-44.64 0Z" id="p33w130" />
<path d="M143.75 931.15l43.86 0l0 14.52l-43.86 0Z" id="p33w131" />
<path d="M190.82 931.15l15.5 0l0 14.52l-15.5 0Z" id="p33w132" />
<path d="M209.53 931.15l28.06 0l0 14.52l-28.06 0Z" id="p33w133" />
<path d="M240.8 931.15l37.96 0l0 14.52l-37.96 0Z" id="p33w134" />
<path d="M281.96 931.15l20.85 0l0 14.52l-20.85 0Z" id="p33w135" />
<path d="M306.03 931.15l20.05 0l0 14.52l-20.05 0Z" id="p33w136" />
<path d="M329.28 931.15l11.22 0l0 14.52l-11.22 0Z" id="p33w137" />
<path d="M343.71 931.15l64.06 0l0 14.52l-64.06 0Z" id="p33w138" />
<path d="M128.98 146.57l59.01 0l0 14.52l-59.01 0Z" id="p33w139" />
<path d="M400.27 146.57l45.45 0l0 14.52l-45.45 0Z" id="p33w140" />
<path d="M213.6 146.57l53.44 0l0 14.52l-53.44 0Z" id="p33w141" />
<path d="M471.31 146.57l24.54 0l0 14.52l-24.54 0Z" id="p33w142" />
<path d="M292.64 146.57l40.11 0l0 14.52l-40.11 0Z" id="p33w143" />
<path d="M521.45 146.57l40.09 0l0 14.52l-40.09 0Z" id="p33w144" />
<path d="M358.35 146.57l16.31 0l0 14.52l-16.31 0Z" id="p33w145" />
<path d="M587.14 146.57l38.75 0l0 14.52l-38.75 0Z" id="p33w146" />
<path d="M128.98 216.07l33.95 0l0 14.52l-33.95 0Z" id="p33w147" />
<path d="M128.98 257.75l39.56 0l0 14.52l-39.56 0Z" id="p33w148" />
<path d="M128.98 299.43l71.38 0l0 14.52l-71.38 0Z" id="p33w149" />
<path d="M128.98 324.44l53.44 0l0 14.52l-53.44 0Z" id="p33w150" />
<path d="M128.98 349.45l20.31 0l0 14.52l-20.31 0Z" id="p33w151" />
<path d="M128.98 374.46l17.11 0l0 14.52l-17.11 0Z" id="p33w152" />
<path d="M60.68 424.4l27.93 0l0 12.29l-27.93 0Z" id="p33w153" />
<path d="M49.64 907.98l24.6 0l0 12.3l-24.6 0Z" id="p33w154" />
<path d="M440.58 907.53l17.77 0l0 16.53l-17.77 0Z" id="p33w155" />
<path d="M519.36 907.53l16.91 0l0 16.53l-16.91 0Z" id="p33w156" />
<path d="M598.13 907.53l16.37 0l0 16.53l-16.37 0Z" id="p33w157" />
<path d="M68.27 39.02l42.71 0l0 15.38l-42.71 0Z" id="p33w158" />
<path d="M152.94 38.6l45.75 0l0 16.09l-45.75 0Z" id="p33w159" />
<path d="M250.71 39.02l43.21 0l0 15.38l-43.21 0Z" id="p33w160" />
<path d="M358.23 39.02l28.68 0l0 15.38l-28.68 0Z" id="p33w161" />
<path d="M390.29 39.02l45.07 0l0 15.38l-45.07 0Z" id="p33w162" />
<path d="M467.02 39.02l32.54 0l0 15.38l-32.54 0Z" id="p33w163" />
<path d="M634.76 983l56.34 0l0 12.23l-56.34 0Z" id="p33w164" />
</svg>
