<?xml version="1.0" encoding="UTF-8"?>
<svg xmlns="http://www.w3.org/2000/svg" xmlns:xlink="http://www.w3.org/1999/xlink" version="1.1" baseProfile="full" width="768" height="1024" viewBox="0,0,768,1024" preserveAspectRatio="xMinYMin meet" >
<style type="text/css">
<![CDATA[
path {fill-opacity: 0.5;fill: #00aeef;visibility: hidden;}
]]>
</style>
<path d="M76.9 983.66l116.69 0l0 12.23l-116.69 0Z" id="p250w1" />
<path d="M124.06 38.6l81.82 0l0 16.09l-81.82 0Z" id="p250w2" />
<path d="M124.06 112.51l8.33 0l0 12.23l-8.33 0Z" id="p250w3" />
<path d="M135.09 112.45l37.85 0l0 12.29l-37.85 0Z" id="p250w4" />
<path d="M175.64 112.45l16.52 0l0 12.29l-16.52 0Z" id="p250w5" />
<path d="M194.85 112.45l25.31 0l0 12.29l-25.31 0Z" id="p250w6" />
<path d="M226.02 111.41l56.99 0l0 13.77l-56.99 0Z" id="p250w7" />
<path d="M133.91 127.77l53.4 0l0 12.23l-53.4 0Z" id="p250w8" />
<path d="M190.01 127.77l16.45 0l0 12.23l-16.45 0Z" id="p250w9" />
<path d="M209.16 127.77l33.52 0l0 12.23l-33.52 0Z" id="p250w10" />
<path d="M245.38 127.55l18.92 0l0 12.56l-18.92 0Z" id="p250w11" />
<path d="M124.06 143.02l32.73 0l0 12.29l-32.73 0Z" id="p250w12" />
<path d="M159.5 143.02l31.07 0l0 12.29l-31.07 0Z" id="p250w13" />
<path d="M196.42 141.97l45.95 0l0 13.77l-45.95 0Z" id="p250w14" />
<path d="M133.91 158.34l86.09 0l0 12.23l-86.09 0Z" id="p250w15" />
<path d="M222.7 158.34l15.31 0l0 12.23l-15.31 0Z" id="p250w16" />
<path d="M240.7 158.34l31.51 0l0 12.23l-31.51 0Z" id="p250w17" />
<path d="M274.92 158.34l24.76 0l0 12.23l-24.76 0Z" id="p250w18" />
<path d="M133.91 173.62l8.56 0l0 12.23l-8.56 0Z" id="p250w19" />
<path d="M145.17 173.62l22.68 0l0 12.23l-22.68 0Z" id="p250w20" />
<path d="M170.55 173.4l18.92 0l0 12.56l-18.92 0Z" id="p250w21" />
<path d="M124.06 188.93l8.33 0l0 12.23l-8.33 0Z" id="p250w22" />
<path d="M135.09 188.87l43.63 0l0 12.29l-43.63 0Z" id="p250w23" />
<path d="M184.57 187.83l49.37 0l0 13.77l-49.37 0Z" id="p250w24" />
<path d="M239.8 188.9l48.82 0l0 12.23l-48.82 0Z" id="p250w25" />
<path d="M133.91 204.19l16.43 0l0 12.23l-16.43 0Z" id="p250w26" />
<path d="M153.04 204.19l34.65 0l0 12.23l-34.65 0Z" id="p250w27" />
<path d="M190.39 203.96l18.92 0l0 12.56l-18.92 0Z" id="p250w28" />
<path d="M124.06 219.49l13.05 0l0 12.23l-13.05 0Z" id="p250w29" />
<path d="M139.81 219.44l59.97 0l0 12.29l-59.97 0Z" id="p250w30" />
<path d="M205.64 218.39l38.57 0l0 13.77l-38.57 0Z" id="p250w31" />
<path d="M250.06 219.49l14.41 0l0 12.23l-14.41 0Z" id="p250w32" />
<path d="M133.91 234.78l49.99 0l0 12.23l-49.99 0Z" id="p250w33" />
<path d="M186.6 234.53l18.01 0l0 12.56l-18.01 0Z" id="p250w34" />
<path d="M124.06 250.06l8.33 0l0 12.23l-8.33 0Z" id="p250w35" />
<path d="M135.09 250l39.68 0l0 12.29l-39.68 0Z" id="p250w36" />
<path d="M177.47 250l31.97 0l0 12.29l-31.97 0Z" id="p250w37" />
<path d="M212.14 250l44.13 0l0 12.29l-44.13 0Z" id="p250w38" />
<path d="M137.07 264.24l81.4 0l0 13.77l-81.4 0Z" id="p250w39" />
<path d="M224.32 265.34l15.53 0l0 12.23l-15.53 0Z" id="p250w40" />
<path d="M242.55 265.34l31.58 0l0 12.23l-31.58 0Z" id="p250w41" />
<path d="M133.91 280.63l44.51 0l0 12.23l-44.51 0Z" id="p250w42" />
<path d="M181.12 280.6l54.33 0l0 12.23l-54.33 0Z" id="p250w43" />
<path d="M238.15 280.38l18.17 0l0 12.56l-18.17 0Z" id="p250w44" />
<path d="M124.06 295.91l8.33 0l0 12.23l-8.33 0Z" id="p250w45" />
<path d="M135.09 295.85l40.87 0l0 12.29l-40.87 0Z" id="p250w46" />
<path d="M178.66 295.85l11.68 0l0 12.29l-11.68 0Z" id="p250w47" />
<path d="M193.04 295.85l8.45 0l0 12.29l-8.45 0Z" id="p250w48" />
<path d="M204.19 295.85l36.95 0l0 12.29l-36.95 0Z" id="p250w49" />
<path d="M137.07 310.09l83 0l0 13.77l-83 0Z" id="p250w50" />
<path d="M225.92 311.17l34.32 0l0 12.23l-34.32 0Z" id="p250w51" />
<path d="M262.95 311.17l16.21 0l0 12.23l-16.21 0Z" id="p250w52" />
<path d="M133.91 326.45l57.42 0l0 12.23l-57.42 0Z" id="p250w53" />
<path d="M194.03 326.45l8.56 0l0 12.23l-8.56 0Z" id="p250w54" />
<path d="M205.29 326.45l36.25 0l0 12.23l-36.25 0Z" id="p250w55" />
<path d="M244.09 326.45l13.96 0l0 12.23l-13.96 0Z" id="p250w56" />
<path d="M260.75 326.45l18.01 0l0 12.23l-18.01 0Z" id="p250w57" />
<path d="M133.91 341.74l15.31 0l0 12.23l-15.31 0Z" id="p250w58" />
<path d="M151.92 341.74l13.96 0l0 12.23l-13.96 0Z" id="p250w59" />
<path d="M168.58 341.74l54.92 0l0 12.23l-54.92 0Z" id="p250w60" />
<path d="M226.2 341.74l26.55 0l0 12.23l-26.55 0Z" id="p250w61" />
<path d="M255.15 341.74l33.48 0l0 12.23l-33.48 0Z" id="p250w62" />
<path d="M133.91 357.02l54.55 0l0 12.23l-54.55 0Z" id="p250w63" />
<path d="M191.16 357.02l15.76 0l0 12.23l-15.76 0Z" id="p250w64" />
<path d="M209.63 356.8l18.92 0l0 12.56l-18.92 0Z" id="p250w65" />
<path d="M124.06 372.27l8.44 0l0 12.29l-8.44 0Z" id="p250w66" />
<path d="M135.2 372.27l26.1 0l0 12.29l-26.1 0Z" id="p250w67" />
<path d="M163.55 372.27l50.71 0l0 12.29l-50.71 0Z" id="p250w68" />
<path d="M220.12 371.23l71.93 0l0 13.77l-71.93 0Z" id="p250w69" />
<path d="M133.91 387.59l69.05 0l0 12.23l-69.05 0Z" id="p250w70" />
<path d="M205.66 387.59l8.56 0l0 12.23l-8.56 0Z" id="p250w71" />
<path d="M216.92 387.59l41.99 0l0 12.23l-41.99 0Z" id="p250w72" />
<path d="M261.61 387.37l18.01 0l0 12.56l-18.01 0Z" id="p250w73" />
<path d="M124.06 402.89l8.33 0l0 12.23l-8.33 0Z" id="p250w74" />
<path d="M135.09 402.84l29.66 0l0 12.29l-29.66 0Z" id="p250w75" />
<path d="M170.6 401.79l27.01 0l0 13.77l-27.01 0Z" id="p250w76" />
<path d="M203.47 402.87l59.79 0l0 12.23l-59.79 0Z" id="p250w77" />
<path d="M133.91 418.15l119.32 0l0 12.23l-119.32 0Z" id="p250w78" />
<path d="M255.93 417.93l18.92 0l0 12.56l-18.92 0Z" id="p250w79" />
<path d="M124.06 433.4l26.95 0l0 12.29l-26.95 0Z" id="p250w80" />
<path d="M156.87 432.36l16.41 0l0 13.77l-16.41 0Z" id="p250w81" />
<path d="M179.14 433.44l27.69 0l0 12.23l-27.69 0Z" id="p250w82" />
<path d="M209.53 433.44l23.19 0l0 12.23l-23.19 0Z" id="p250w83" />
<path d="M235.41 433.44l34.21 0l0 12.23l-34.21 0Z" id="p250w84" />
<path d="M269.63 433.44l15.53 0l0 12.23l-15.53 0Z" id="p250w85" />
<path d="M287.85 433.22l18.01 0l0 12.56l-18.01 0Z" id="p250w86" />
<path d="M124.06 448.74l4.72 0l0 12.23l-4.72 0Z" id="p250w87" />
<path d="M128.79 448.69l27.8 0l0 12.29l-27.8 0Z" id="p250w88" />
<path d="M159.29 448.69l56.35 0l0 12.29l-56.35 0Z" id="p250w89" />
<path d="M236.5 447.64l60.88 0l0 13.77l-60.88 0Z" id="p250w90" />
<path d="M133.91 464.03l14.41 0l0 12.23l-14.41 0Z" id="p250w91" />
<path d="M151.02 464.03l56.97 0l0 12.23l-56.97 0Z" id="p250w92" />
<path d="M210.68 464.03l27.7 0l0 12.23l-27.7 0Z" id="p250w93" />
<path d="M241.08 463.78l17.26 0l0 12.56l-17.26 0Z" id="p250w94" />
<path d="M124.06 479.25l27.8 0l0 12.29l-27.8 0Z" id="p250w95" />
<path d="M154.56 479.25l44.47 0l0 12.29l-44.47 0Z" id="p250w96" />
<path d="M201.73 479.25l16.52 0l0 12.29l-16.52 0Z" id="p250w97" />
<path d="M220.95 479.25l34.66 0l0 12.29l-34.66 0Z" id="p250w98" />
<path d="M137.07 493.49l88.13 0l0 13.77l-88.13 0Z" id="p250w99" />
<path d="M231.06 494.59l44.12 0l0 12.23l-44.12 0Z" id="p250w100" />
<path d="M133.91 509.88l84.59 0l0 12.23l-84.59 0Z" id="p250w101" />
<path d="M221.2 509.63l18.01 0l0 12.56l-18.01 0Z" id="p250w102" />
<path d="M124.06 525.11l72.47 0l0 12.29l-72.47 0Z" id="p250w103" />
<path d="M202.39 524.06l52.32 0l0 13.77l-52.32 0Z" id="p250w104" />
<path d="M260.57 525.14l27.69 0l0 12.23l-27.69 0Z" id="p250w105" />
<path d="M133.91 540.42l23.19 0l0 12.23l-23.19 0Z" id="p250w106" />
<path d="M159.5 540.42l60.57 0l0 12.23l-60.57 0Z" id="p250w107" />
<path d="M222.76 540.2l18.92 0l0 12.56l-18.92 0Z" id="p250w108" />
<path d="M124.06 555.73l8.33 0l0 12.23l-8.33 0Z" id="p250w109" />
<path d="M135.09 555.67l48.76 0l0 12.29l-48.76 0Z" id="p250w110" />
<path d="M189.71 554.63l41.12 0l0 13.77l-41.12 0Z" id="p250w111" />
<path d="M236.68 555.71l56.22 0l0 12.23l-56.22 0Z" id="p250w112" />
<path d="M133.91 570.99l16.45 0l0 12.23l-16.45 0Z" id="p250w113" />
<path d="M153.06 570.99l41.99 0l0 12.23l-41.99 0Z" id="p250w114" />
<path d="M197.75 570.77l18.01 0l0 12.56l-18.01 0Z" id="p250w115" />
<path d="M124.06 606.07l40.87 0l0 18.84l-40.87 0Z" id="p250w116" />
<path d="M168.98 606.07l17.56 0l0 18.84l-17.56 0Z" id="p250w117" />
<path d="M190.59 606.07l73.78 0l0 18.84l-73.78 0Z" id="p250w118" />
<path d="M124.06 622.74l58.75 0l0 18.84l-58.75 0Z" id="p250w119" />
<path d="M124.06 647.37l33.75 0l0 12.29l-33.75 0Z" id="p250w120" />
<path d="M160.51 647.37l53.15 0l0 12.29l-53.15 0Z" id="p250w121" />
<path d="M219.52 646.33l67.22 0l0 13.77l-67.22 0Z" id="p250w122" />
<path d="M133.91 662.69l41.19 0l0 12.23l-41.19 0Z" id="p250w123" />
<path d="M177.8 662.69l16.45 0l0 12.23l-16.45 0Z" id="p250w124" />
<path d="M196.96 662.69l50.39 0l0 12.23l-50.39 0Z" id="p250w125" />
<path d="M250.04 662.69l18.01 0l0 12.23l-18.01 0Z" id="p250w126" />
<path d="M270.75 662.69l19.36 0l0 12.23l-19.36 0Z" id="p250w127" />
<path d="M133.91 677.97l15.31 0l0 12.23l-15.31 0Z" id="p250w128" />
<path d="M151.92 677.97l20.06 0l0 12.23l-20.06 0Z" id="p250w129" />
<path d="M171.98 677.97l57.75 0l0 12.23l-57.75 0Z" id="p250w130" />
<path d="M232.43 677.97l32.41 0l0 12.23l-32.41 0Z" id="p250w131" />
<path d="M267.55 677.97l16.21 0l0 12.23l-16.21 0Z" id="p250w132" />
<path d="M133.91 693.26l53.01 0l0 12.23l-53.01 0Z" id="p250w133" />
<path d="M189.62 693.03l17.81 0l0 12.56l-17.81 0Z" id="p250w134" />
<path d="M124.06 708.51l23.88 0l0 12.29l-23.88 0Z" id="p250w135" />
<path d="M150.42 708.51l33.55 0l0 12.29l-33.55 0Z" id="p250w136" />
<path d="M189.82 707.46l41.26 0l0 13.77l-41.26 0Z" id="p250w137" />
<path d="M133.91 723.82l71.14 0l0 12.23l-71.14 0Z" id="p250w138" />
<path d="M207.75 723.82l75.3 0l0 12.23l-75.3 0Z" id="p250w139" />
<path d="M133.91 738.88l18.92 0l0 12.56l-18.92 0Z" id="p250w140" />
<path d="M124.06 754.36l27.01 0l0 12.29l-27.01 0Z" id="p250w141" />
<path d="M153.77 754.36l9.57 0l0 12.29l-9.57 0Z" id="p250w142" />
<path d="M166.04 754.36l15.19 0l0 12.29l-15.19 0Z" id="p250w143" />
<path d="M187.1 753.31l31.49 0l0 13.77l-31.49 0Z" id="p250w144" />
<path d="M224.44 754.39l51.32 0l0 12.23l-51.32 0Z" id="p250w145" />
<path d="M278.46 754.39l16.21 0l0 12.23l-16.21 0Z" id="p250w146" />
<path d="M133.91 769.67l49.31 0l0 12.23l-49.31 0Z" id="p250w147" />
<path d="M185.92 769.67l71.57 0l0 12.23l-71.57 0Z" id="p250w148" />
<path d="M260.19 769.67l20.26 0l0 12.23l-20.26 0Z" id="p250w149" />
<path d="M133.91 784.96l23.64 0l0 12.23l-23.64 0Z" id="p250w150" />
<path d="M160.25 784.73l18.92 0l0 12.56l-18.92 0Z" id="p250w151" />
<path d="M124.06 800.21l51.76 0l0 12.29l-51.76 0Z" id="p250w152" />
<path d="M181.68 799.16l29.2 0l0 13.77l-29.2 0Z" id="p250w153" />
<path d="M216.74 800.24l34.21 0l0 12.23l-34.21 0Z" id="p250w154" />
<path d="M250.95 800.24l15.53 0l0 12.23l-15.53 0Z" id="p250w155" />
<path d="M269.18 800.02l18.92 0l0 12.56l-18.92 0Z" id="p250w156" />
<path d="M124.06 815.49l8.67 0l0 12.29l-8.67 0Z" id="p250w157" />
<path d="M135.43 815.49l40.56 0l0 12.29l-40.56 0Z" id="p250w158" />
<path d="M181.85 814.45l47.35 0l0 13.77l-47.35 0Z" id="p250w159" />
<path d="M235.06 815.52l61.67 0l0 12.23l-61.67 0Z" id="p250w160" />
<path d="M133.91 830.81l33.32 0l0 12.23l-33.32 0Z" id="p250w161" />
<path d="M169.93 830.58l18.92 0l0 12.56l-18.92 0Z" id="p250w162" />
<path d="M124.06 846.11l13.05 0l0 12.23l-13.05 0Z" id="p250w163" />
<path d="M139.81 846.06l27.43 0l0 12.29l-27.43 0Z" id="p250w164" />
<path d="M169.95 846.06l45.96 0l0 12.29l-45.96 0Z" id="p250w165" />
<path d="M221.76 845.01l58.8 0l0 13.77l-58.8 0Z" id="p250w166" />
<path d="M133.91 861.4l14.41 0l0 12.23l-14.41 0Z" id="p250w167" />
<path d="M151.02 861.4l31.97 0l0 12.23l-31.97 0Z" id="p250w168" />
<path d="M185.68 861.4l45.69 0l0 12.23l-45.69 0Z" id="p250w169" />
<path d="M234.08 861.37l46.83 0l0 12.23l-46.83 0Z" id="p250w170" />
<path d="M133.91 876.66l53.34 0l0 12.23l-53.34 0Z" id="p250w171" />
<path d="M189.95 876.43l18.92 0l0 12.56l-18.92 0Z" id="p250w172" />
<path d="M124.06 891.91l28.08 0l0 12.29l-28.08 0Z" id="p250w173" />
<path d="M158 890.86l19.83 0l0 13.77l-19.83 0Z" id="p250w174" />
<path d="M183.68 891.94l14.17 0l0 12.23l-14.17 0Z" id="p250w175" />
<path d="M200.41 891.94l66.85 0l0 12.23l-66.85 0Z" id="p250w176" />
<path d="M269.96 891.94l27.21 0l0 12.23l-27.21 0ZM133.91 907.22l24.46 0l0 12.23l-24.46 0Z" id="p250w177" />
<path d="M161.08 907l18.92 0l0 12.56l-18.92 0Z" id="p250w178" />
<path d="M325.58 112.45l24.66 0l0 12.29l-24.66 0Z" id="p250w179" />
<path d="M352.91 112.45l12.26 0l0 12.29l-12.26 0Z" id="p250w180" />
<path d="M370.99 111.41l29.04 0l0 13.77l-29.04 0Z" id="p250w181" />
<path d="M405.85 112.51l34.17 0l0 12.23l-34.17 0Z" id="p250w182" />
<path d="M442.68 112.51l13.44 0l0 12.23l-13.44 0Z" id="p250w183" />
<path d="M458.79 112.49l29.5 0l0 12.23l-29.5 0Z" id="p250w184" />
<path d="M490.95 112.49l16.45 0l0 12.23l-16.45 0Z" id="p250w185" />
<path d="M335.42 127.77l48.85 0l0 12.23l-48.85 0Z" id="p250w186" />
<path d="M386.97 127.77l16.45 0l0 12.23l-16.45 0Z" id="p250w187" />
<path d="M405.9 127.77l19.97 0l0 12.23l-19.97 0Z" id="p250w188" />
<path d="M428.57 127.77l13.28 0l0 12.23l-13.28 0Z" id="p250w189" />
<path d="M444.33 127.77l23.95 0l0 12.23l-23.95 0Z" id="p250w190" />
<path d="M470.99 127.55l18.92 0l0 12.56l-18.92 0Z" id="p250w191" />
<path d="M325.57 143.08l8.33 0l0 12.23l-8.33 0Z" id="p250w192" />
<path d="M336.6 143.02l44.09 0l0 12.29l-44.09 0Z" id="p250w193" />
<path d="M383.39 143.02l11.68 0l0 12.29l-11.68 0Z" id="p250w194" />
<path d="M397.77 143.02l54.61 0l0 12.29l-54.61 0Z" id="p250w195" />
<path d="M338.57 157.26l85.04 0l0 13.77l-85.04 0Z" id="p250w196" />
<path d="M429.47 158.34l42.99 0l0 12.23l-42.99 0Z" id="p250w197" />
<path d="M475.17 158.34l18.01 0l0 12.23l-18.01 0Z" id="p250w198" />
<path d="M335.42 173.62l38.05 0l0 12.23l-38.05 0Z" id="p250w199" />
<path d="M376.17 173.62l16.45 0l0 12.23l-16.45 0Z" id="p250w200" />
<path d="M395.32 173.62l33.33 0l0 12.23l-33.33 0Z" id="p250w201" />
<path d="M431.35 173.62l13.15 0l0 12.23l-13.15 0Z" id="p250w202" />
<path d="M447.2 173.4l18.92 0l0 12.56l-18.92 0Z" id="p250w203" />
<path d="M325.57 188.87l39.2 0l0 12.29l-39.2 0Z" id="p250w204" />
<path d="M370.63 187.83l38.04 0l0 13.77l-38.04 0Z" id="p250w205" />
<path d="M414.52 188.9l61.67 0l0 12.23l-61.67 0Z" id="p250w206" />
<path d="M335.42 204.19l33.32 0l0 12.23l-33.32 0Z" id="p250w207" />
<path d="M371.44 204.19l16.43 0l0 12.23l-16.43 0Z" id="p250w208" />
<path d="M390.57 204.19l41.99 0l0 12.23l-41.99 0Z" id="p250w209" />
<path d="M435.26 203.96l18.92 0l0 12.56l-18.92 0Z" id="p250w210" />
<path d="M325.57 219.44l30.34 0l0 12.29l-30.34 0Z" id="p250w211" />
<path d="M361.77 218.39l24.42 0l0 13.77l-24.42 0Z" id="p250w212" />
<path d="M392.05 219.47l34.21 0l0 12.23l-34.21 0Z" id="p250w213" />
<path d="M426.26 219.47l15.53 0l0 12.23l-15.53 0Z" id="p250w214" />
<path d="M444.49 219.25l18.92 0l0 12.56l-18.92 0Z" id="p250w215" />
<path d="M325.57 234.72l20 0l0 12.29l-20 0Z" id="p250w216" />
<path d="M351.42 233.68l17.6 0l0 13.77l-17.6 0Z" id="p250w217" />
<path d="M374.88 234.75l66.85 0l0 12.23l-66.85 0Z" id="p250w218" />
<path d="M444.42 234.75l16.43 0l0 12.23l-16.43 0Z" id="p250w219" />
<path d="M463.55 234.75l34.22 0l0 12.23l-34.22 0Z" id="p250w220" />
<path d="M335.42 249.81l18.92 0l0 12.56l-18.92 0Z" id="p250w221" />
<path d="M325.57 265.29l20.94 0l0 12.29l-20.94 0Z" id="p250w222" />
<path d="M349.21 265.29l24.31 0l0 12.29l-24.31 0Z" id="p250w223" />
<path d="M376.22 265.29l36.28 0l0 12.29l-36.28 0Z" id="p250w224" />
<path d="M418.36 264.24l36.38 0l0 13.77l-36.38 0Z" id="p250w225" />
<path d="M460.6 265.32l14.17 0l0 12.23l-14.17 0Z" id="p250w226" />
<path d="M335.42 280.6l66.44 0l0 12.23l-66.44 0Z" id="p250w227" />
<path d="M404.55 280.38l18.92 0l0 12.56l-18.92 0Z" id="p250w228" />
</svg>
