<?xml version="1.0" encoding="UTF-8"?>
<svg xmlns="http://www.w3.org/2000/svg" xmlns:xlink="http://www.w3.org/1999/xlink" version="1.1" baseProfile="full" width="768" height="1024" viewBox="0,0,768,1024" preserveAspectRatio="xMinYMin meet" >
<style type="text/css">
<![CDATA[
path {fill-opacity: 0.5;fill: #00aeef;visibility: hidden;}
]]>
</style>
<path d="M124.06 38.6l71 0l0 16.09l-71 0Z" id="p218w1" />
<path d="M78.77 983.66l72.79 0l0 12.23l-72.79 0Z" id="p218w2" />
<path d="M124.06 110.01l50 0l0 14.6l-50 0Z" id="p218w3" />
<path d="M177.27 110.01l18.52 0l0 14.6l-18.52 0Z" id="p218w4" />
<path d="M199.09 108.77l79.94 0l0 16.35l-79.94 0Z" id="p218w5" />
<path d="M297.36 110.09l67.36 0l0 14.52l-67.36 0Z" id="p218w6" />
<path d="M367.92 110.09l18.7 0l0 14.52l-18.7 0Z" id="p218w7" />
<path d="M124.06 130.72l13.9 0l0 14.6l-13.9 0Z" id="p218w8" />
<path d="M141.17 130.72l19.63 0l0 14.6l-19.63 0Z" id="p218w9" />
<path d="M164 130.72l27.6 0l0 14.6l-27.6 0Z" id="p218w10" />
<path d="M194.81 130.72l37.14 0l0 14.6l-37.14 0Z" id="p218w11" />
<path d="M124.06 147.39l13.87 0l0 14.6l-13.87 0Z" id="p218w12" />
<path d="M141.14 147.39l35.12 0l0 14.6l-35.12 0Z" id="p218w13" />
<path d="M124.06 162.82l147.58 0l0 16.35l-147.58 0Z" id="p218w14" />
<path d="M297.36 130.8l29.94 0l0 14.52l-29.94 0Z" id="p218w15" />
<path d="M330.5 130.8l72.93 0l0 14.52l-72.93 0Z" id="p218w16" />
<path d="M297.36 147.47l52.14 0l0 14.52l-52.14 0Z" id="p218w17" />
<path d="M124.06 182.2l25.65 0l0 14.6l-25.65 0Z" id="p218w18" />
<path d="M152.92 182.2l27.51 0l0 14.6l-27.51 0Z" id="p218w19" />
<path d="M180.42 182.2l26.07 0l0 14.6l-26.07 0Z" id="p218w20" />
<path d="M219.6 182.2l14.41 0l0 14.6l-14.41 0Z" id="p218w21" />
<path d="M124.06 197.63l57.49 0l0 16.35l-57.49 0Z" id="p218w22" />
<path d="M297.36 182.28l23.8 0l0 14.52l-23.8 0Z" id="p218w23" />
<path d="M324.36 182.28l53.72 0l0 14.52l-53.72 0Z" id="p218w24" />
<path d="M482.46 182.28l28.07 0l0 14.52l-28.07 0Z" id="p218w25" />
<path d="M513.74 182.28l11.22 0l0 14.52l-11.22 0Z" id="p218w26" />
<path d="M528.17 182.28l39.56 0l0 14.52l-39.56 0Z" id="p218w27" />
<path d="M570.94 182.28l27.55 0l0 14.52l-27.55 0Z" id="p218w28" />
<path d="M598.48 182.28l29.14 0l0 14.52l-29.14 0Z" id="p218w29" />
<path d="M124.06 217.01l87.55 0l0 14.6l-87.55 0Z" id="p218w30" />
<path d="M124.06 232.44l86.52 0l0 16.35l-86.52 0Z" id="p218w31" />
<path d="M297.36 217.09l42.96 0l0 14.52l-42.96 0Z" id="p218w32" />
<path d="M500.69 217.03l50.33 0l0 14.61l-50.33 0Z" id="p218w33" />
<path d="M124.06 251.82l22.58 0l0 14.6l-22.58 0Z" id="p218w34" />
<path d="M149.85 251.82l43.29 0l0 14.6l-43.29 0Z" id="p218w35" />
<path d="M196.35 251.82l13.87 0l0 14.6l-13.87 0Z" id="p218w36" />
<path d="M213.43 251.82l25.65 0l0 14.6l-25.65 0Z" id="p218w37" />
<path d="M242.28 251.82l12.67 0l0 14.6l-12.67 0Z" id="p218w38" />
<path d="M124.06 267.25l61.32 0l0 16.35l-61.32 0Z" id="p218w39" />
<path d="M297.35 251.9l28.54 0l0 14.52l-28.54 0Z" id="p218w40" />
<path d="M329.1 251.9l25.4 0l0 14.52l-25.4 0Z" id="p218w41" />
<path d="M357.7 251.9l23.09 0l0 14.52l-23.09 0Z" id="p218w42" />
<path d="M383.99 251.9l12.84 0l0 14.52l-12.84 0Z" id="p218w43" />
<path d="M400.04 251.9l21.62 0l0 14.52l-21.62 0Z" id="p218w44" />
<path d="M297.35 268.57l10.43 0l0 14.52l-10.43 0Z" id="p218w45" />
<path d="M310.99 268.57l18.44 0l0 14.52l-18.44 0Z" id="p218w46" />
<path d="M332.63 268.57l26.66 0l0 14.52l-26.66 0Z" id="p218w47" />
<path d="M362.5 268.57l25.4 0l0 14.52l-25.4 0Z" id="p218w48" />
<path d="M391.11 268.57l23.09 0l0 14.52l-23.09 0Z" id="p218w49" />
<path d="M417.4 268.57l12.84 0l0 14.52l-12.84 0Z" id="p218w50" />
<path d="M433.45 268.57l18.72 0l0 14.52l-18.72 0Z" id="p218w51" />
<path d="M482.46 251.9l27.26 0l0 14.52l-27.26 0Z" id="p218w52" />
<path d="M512.92 251.9l16.83 0l0 14.52l-16.83 0Z" id="p218w53" />
<path d="M532.96 251.9l43.57 0l0 14.52l-43.57 0Z" id="p218w54" />
<path d="M579.74 251.9l13.9 0l0 14.52l-13.9 0Z" id="p218w55" />
<path d="M596.84 251.9l17.63 0l0 14.52l-17.63 0Z" id="p218w56" />
<path d="M617.69 251.9l14.18 0l0 14.52l-14.18 0Z" id="p218w57" />
<path d="M635.07 251.9l23.79 0l0 14.52l-23.79 0Z" id="p218w58" />
<path d="M482.46 268.57l13.9 0l0 14.52l-13.9 0Z" id="p218w59" />
<path d="M499.57 268.57l50.53 0l0 14.52l-50.53 0Z" id="p218w60" />
<path d="M553.3 268.57l40.36 0l0 14.52l-40.36 0Z" id="p218w61" />
<path d="M124.06 286.64l10.56 0l0 14.6l-10.56 0Z" id="p218w62" />
<path d="M137.83 286.64l21.91 0l0 14.6l-21.91 0Z" id="p218w63" />
<path d="M162.95 286.64l13.87 0l0 14.6l-13.87 0Z" id="p218w64" />
<path d="M180.03 286.64l18.85 0l0 14.6l-18.85 0Z" id="p218w65" />
<path d="M202.08 286.64l24.87 0l0 14.6l-24.87 0Z" id="p218w66" />
<path d="M124.06 302.07l82.21 0l0 16.35l-82.21 0Z" id="p218w67" />
<path d="M297.36 286.72l16.86 0l0 14.52l-16.86 0Z" id="p218w68" />
<path d="M317.42 286.72l17.65 0l0 14.52l-17.65 0Z" id="p218w69" />
<path d="M338.27 286.72l35.55 0l0 14.52l-35.55 0Z" id="p218w70" />
<path d="M377.03 286.72l52.07 0l0 14.52l-52.07 0Z" id="p218w71" />
<path d="M124.06 321.44l27.6 0l0 14.6l-27.6 0Z" id="p218w72" />
<path d="M154.87 321.44l20.95 0l0 14.6l-20.95 0Z" id="p218w73" />
<path d="M179.02 321.44l22.35 0l0 14.6l-22.35 0Z" id="p218w74" />
<path d="M204.67 320.2l59 0l0 16.35l-59 0Z" id="p218w75" />
<path d="M297.36 321.52l44.38 0l0 14.52l-44.38 0Z" id="p218w76" />
<path d="M344.94 321.52l35.02 0l0 14.52l-35.02 0Z" id="p218w77" />
<path d="M124.06 342.15l24.5 0l0 14.6l-24.5 0Z" id="p218w78" />
<path d="M151.77 342.15l26.89 0l0 14.6l-26.89 0Z" id="p218w79" />
<path d="M205.5 342.15l13.87 0l0 14.6l-13.87 0Z" id="p218w80" />
<path d="M222.58 342.15l38.33 0l0 14.6l-38.33 0Z" id="p218w81" />
<path d="M124.06 357.58l79.05 0l0 16.35l-79.05 0Z" id="p218w82" />
<path d="M297.36 342.23l53.97 0l0 14.52l-53.97 0Z" id="p218w83" />
<path d="M373.74 342.23l69.2 0l0 14.52l-69.2 0Z" id="p218w84" />
<path d="M482.46 342.23l24.87 0l0 14.52l-24.87 0Z" id="p218w85" />
<path d="M510.54 342.23l26.74 0l0 14.52l-26.74 0Z" id="p218w86" />
<path d="M540.49 342.23l11.5 0l0 14.52l-11.5 0Z" id="p218w87" />
<path d="M555.19 342.23l12.29 0l0 14.52l-12.29 0Z" id="p218w88" />
<path d="M570.69 342.23l36.63 0l0 14.52l-36.63 0Z" id="p218w89" />
<path d="M610.52 342.23l13.9 0l0 14.52l-13.9 0Z" id="p218w90" />
<path d="M627.63 342.23l37.25 0l0 14.52l-37.25 0Z" id="p218w91" />
<path d="M482.46 358.9l12.57 0l0 14.52l-12.57 0Z" id="p218w92" />
<path d="M498.24 358.9l25.92 0l0 14.52l-25.92 0Z" id="p218w93" />
<path d="M527.37 358.9l19.51 0l0 14.52l-19.51 0Z" id="p218w94" />
<path d="M550.08 358.9l28.06 0l0 14.52l-28.06 0Z" id="p218w95" />
<path d="M581.35 358.9l36.88 0l0 14.52l-36.88 0Z" id="p218w96" />
<path d="M621.44 358.9l20.85 0l0 14.52l-20.85 0Z" id="p218w97" />
<path d="M645.5 358.9l15.25 0l0 14.52l-15.25 0Z" id="p218w98" />
<path d="M124.06 376.97l25.65 0l0 14.6l-25.65 0Z" id="p218w99" />
<path d="M152.92 376.97l14.28 0l0 14.6l-14.28 0Z" id="p218w100" />
<path d="M170.4 376.97l47.9 0l0 14.6l-47.9 0Z" id="p218w101" />
<path d="M124.06 392.4l69.12 0l0 16.35l-69.12 0Z" id="p218w102" />
<path d="M297.36 377.05l47.54 0l0 14.52l-47.54 0Z" id="p218w103" />
<path d="M348.11 377.05l34.21 0l0 14.52l-34.21 0Z" id="p218w104" />
<path d="M124.06 411.82l19.61 0l0 14.6l-19.61 0Z" id="p218w105" />
<path d="M146.88 411.82l58.05 0l0 14.6l-58.05 0Z" id="p218w106" />
<path d="M225.96 411.82l32.77 0l0 14.6l-32.77 0Z" id="p218w107" />
<path d="M124.06 427.25l69.85 0l0 16.35l-69.85 0Z" id="p218w108" />
<path d="M297.36 411.86l32.33 0l0 14.52l-32.33 0Z" id="p218w109" />
<path d="M332.89 411.86l60.37 0l0 14.52l-60.37 0Z" id="p218w110" />
<path d="M396.47 411.86l49.46 0l0 14.52l-49.46 0Z" id="p218w111" />
<path d="M124.06 446.63l50.47 0l0 14.6l-50.47 0Z" id="p218w112" />
<path d="M177.74 446.63l32.19 0l0 14.6l-32.19 0Z" id="p218w113" />
<path d="M213.24 445.39l54.92 0l0 16.35l-54.92 0Z" id="p218w114" />
<path d="M129.97 472.27l50.47 0l0 14.6l-50.47 0Z" id="p218w115" />
<path d="M183.65 472.33l24.59 0l0 14.52l-24.59 0Z" id="p218w116" />
<path d="M211.45 472.33l56.35 0l0 14.52l-56.35 0Z" id="p218w117" />
<path d="M271 472.33l19.77 0l0 14.52l-19.77 0Z" id="p218w118" />
<path d="M293.98 472.27l45.78 0l0 14.6l-45.78 0Z" id="p218w119" />
<path d="M342.97 472.33l21.4 0l0 14.52l-21.4 0Z" id="p218w120" />
<path d="M367.57 472.27l12.42 0l0 14.6l-12.42 0Z" id="p218w121" />
<path d="M383.2 472.27l46.2 0l0 14.6l-46.2 0Z" id="p218w122" />
<path d="M129.97 489l9.62 0l0 14.52l-9.62 0Z" id="p218w123" />
<path d="M142.8 489l39.84 0l0 14.52l-39.84 0Z" id="p218w124" />
<path d="M185.84 489l11.5 0l0 14.52l-11.5 0Z" id="p218w125" />
<path d="M200.55 489l39.84 0l0 14.52l-39.84 0Z" id="p218w126" />
<path d="M243.59 489l50.26 0l0 14.52l-50.26 0Z" id="p218w127" />
<path d="M297.06 489l38.77 0l0 14.52l-38.77 0Z" id="p218w128" />
<path d="M339.03 489l26.74 0l0 14.52l-26.74 0Z" id="p218w129" />
<path d="M368.98 489l24.33 0l0 14.52l-24.33 0Z" id="p218w130" />
<path d="M393.31 488.94l14.2 0l0 14.6l-14.2 0Z" id="p218w131" />
<path d="M407.51 489l22.47 0l0 14.52l-22.47 0Z" id="p218w132" />
<path d="M129.97 505.67l25.67 0l0 14.52l-25.67 0Z" id="p218w133" />
<path d="M158.85 505.67l24.33 0l0 14.52l-24.33 0Z" id="p218w134" />
<path d="M183.18 505.61l14.2 0l0 14.6l-14.2 0Z" id="p218w135" />
<path d="M197.38 505.67l15.25 0l0 14.52l-15.25 0Z" id="p218w136" />
<path d="M215.83 505.67l42.36 0l0 14.52l-42.36 0Z" id="p218w137" />
<path d="M261.39 505.67l24.33 0l0 14.52l-24.33 0Z" id="p218w138" />
<path d="M285.72 505.61l14.2 0l0 14.6l-14.2 0Z" id="p218w139" />
<path d="M299.92 505.67l21.34 0l0 14.52l-21.34 0Z" id="p218w140" />
<path d="M129.97 522.28l30.74 0l0 14.68l-30.74 0Z" id="p218w141" />
<path d="M163.92 522.28l47.06 0l0 14.68l-47.06 0Z" id="p218w142" />
<path d="M220.82 522.35l14.8 0l0 14.52l-14.8 0Z" id="p218w143" />
<path d="M238.82 522.35l36.09 0l0 14.52l-36.09 0Z" id="p218w144" />
<path d="M297.35 446.7l21.92 0l0 14.52l-21.92 0Z" id="p218w145" />
<path d="M322.48 446.7l51.83 0l0 14.52l-51.83 0Z" id="p218w146" />
<path d="M377.52 446.7l67.09 0l0 14.52l-67.09 0Z" id="p218w147" />
<path d="M482.46 446.7l6.96 0l0 14.52l-6.96 0Z" id="p218w148" />
<path d="M492.62 446.7l36.09 0l0 14.52l-36.09 0Z" id="p218w149" />
<path d="M531.91 446.7l14.18 0l0 14.52l-14.18 0Z" id="p218w150" />
<path d="M549.3 446.7l39.24 0l0 14.52l-39.24 0Z" id="p218w151" />
<path d="M591.75 446.7l43.57 0l0 14.52l-43.57 0Z" id="p218w152" />
<path d="M124.06 570.48l47.08 0l0 18.44l-47.08 0Z" id="p218w153" />
<path d="M124.06 597.62l14.31 0l0 14.6l-14.31 0Z" id="p218w154" />
<path d="M141.58 597.62l24.48 0l0 14.6l-24.48 0Z" id="p218w155" />
<path d="M169.36 596.38l37.57 0l0 16.35l-37.57 0Z" id="p218w156" />
<path d="M297.36 597.7l17.11 0l0 14.52l-17.11 0Z" id="p218w157" />
<path d="M317.67 597.7l25.34 0l0 14.52l-25.34 0Z" id="p218w158" />
<path d="M124.06 618.33l33.38 0l0 14.6l-33.38 0Z" id="p218w159" />
<path d="M160.65 618.33l32.19 0l0 14.6l-32.19 0Z" id="p218w160" />
<path d="M196.14 617.09l36.73 0l0 16.35l-36.73 0Z" id="p218w161" />
<path d="M129.97 677.32l33.38 0l0 14.6l-33.38 0Z" id="p218w162" />
<path d="M173.24 677.38l9.62 0l0 14.52l-9.62 0Z" id="p218w163" />
<path d="M186.07 677.38l12.57 0l0 14.52l-12.57 0Z" id="p218w164" />
<path d="M198.63 677.32l9.08 0l0 14.6l-9.08 0Z" id="p218w165" />
<path d="M213.6 677.38l11.5 0l0 14.52l-11.5 0Z" id="p218w166" />
<path d="M228.3 677.38l12.57 0l0 14.52l-12.57 0Z" id="p218w167" />
<path d="M240.87 677.32l9.08 0l0 14.6l-9.08 0Z" id="p218w168" />
<path d="M255.84 677.38l6.41 0l0 14.52l-6.41 0Z" id="p218w169" />
<path d="M265.46 677.38l12.57 0l0 14.52l-12.57 0Z" id="p218w170" />
<path d="M278.03 677.32l8.03 0l0 14.6l-8.03 0Z" id="p218w171" />
<path d="M291.94 677.38l26.74 0l0 14.52l-26.74 0Z" id="p218w172" />
<path d="M321.89 677.38l44.39 0l0 14.52l-44.39 0Z" id="p218w173" />
<path d="M369.48 677.38l25.67 0l0 14.52l-25.67 0Z" id="p218w174" />
<path d="M398.36 677.38l37.17 0l0 14.52l-37.17 0Z" id="p218w175" />
<path d="M129.97 694.05l12.02 0l0 14.52l-12.02 0Z" id="p218w176" />
<path d="M145.2 694.05l43.27 0l0 14.52l-43.27 0Z" id="p218w177" />
<path d="M191.68 693.99l30.74 0l0 14.68l-30.74 0Z" id="p218w178" />
<path d="M225.62 693.99l47.06 0l0 14.68l-47.06 0Z" id="p218w179" />
<path d="M282.53 694.05l14.8 0l0 14.52l-14.8 0Z" id="p218w180" />
<path d="M300.53 694.05l21.92 0l0 14.52l-21.92 0Z" id="p218w181" />
<path d="M297.35 618.41l51.83 0l0 14.52l-51.83 0Z" id="p218w182" />
<path d="M352.39 618.41l38.4 0l0 14.52l-38.4 0Z" id="p218w183" />
<path d="M393.99 618.41l35.28 0l0 14.52l-35.28 0Z" id="p218w184" />
<path d="M297.35 635.08l28.6 0l0 14.52l-28.6 0Z" id="p218w185" />
<path d="M329.16 635.08l56.37 0l0 14.52l-56.37 0Z" id="p218w186" />
<path d="M388.74 635.08l28.06 0l0 14.52l-28.06 0Z" id="p218w187" />
<path d="M297.35 651.75l66.51 0l0 14.52l-66.51 0Z" id="p218w188" />
<path d="M367.07 651.75l44.64 0l0 14.52l-44.64 0Z" id="p218w189" />
<path d="M482.46 618.41l23.8 0l0 14.52l-23.8 0Z" id="p218w190" />
<path d="M519.35 618.41l25.13 0l0 14.52l-25.13 0Z" id="p218w191" />
<path d="M547.69 618.41l12.29 0l0 14.52l-12.29 0Z" id="p218w192" />
<path d="M563.18 618.41l28.85 0l0 14.52l-28.85 0Z" id="p218w193" />
<path d="M595.25 618.41l26.73 0l0 14.52l-26.73 0Z" id="p218w194" />
<path d="M625.18 618.41l9.89 0l0 14.52l-9.89 0Z" id="p218w195" />
<path d="M638.27 618.41l41.45 0l0 14.52l-41.45 0Z" id="p218w196" />
<path d="M124.06 722.42l20.99 0l0 14.6l-20.99 0Z" id="p218w197" />
<path d="M148.25 722.42l31.67 0l0 14.6l-31.67 0Z" id="p218w198" />
<path d="M183.22 721.18l51.21 0l0 16.35l-51.21 0Z" id="p218w199" />
<path d="M297.35 722.5l17.11 0l0 14.52l-17.11 0Z" id="p218w200" />
<path d="M317.66 722.5l29.94 0l0 14.52l-29.94 0Z" id="p218w201" />
<path d="M124.06 743.13l49.37 0l0 14.6l-49.37 0Z" id="p218w202" />
<path d="M186.53 743.13l32.19 0l0 14.6l-32.19 0Z" id="p218w203" />
<path d="M222.02 741.89l46.46 0l0 16.35l-46.46 0Z" id="p218w204" />
<path d="M297.35 743.21l13.9 0l0 14.52l-13.9 0Z" id="p218w205" />
<path d="M314.46 743.21l48.1 0l0 14.52l-48.1 0Z" id="p218w206" />
<path d="M365.76 743.21l80.45 0l0 14.52l-80.45 0Z" id="p218w207" />
<path d="M297.35 759.88l23.09 0l0 14.52l-23.09 0Z" id="p218w208" />
<path d="M323.64 759.88l66.3 0l0 14.52l-66.3 0Z" id="p218w209" />
<path d="M482.46 743.21l10.43 0l0 14.52l-10.43 0Z" id="p218w210" />
<path d="M496.09 743.21l44.63 0l0 14.52l-44.63 0Z" id="p218w211" />
<path d="M543.93 743.21l44.11 0l0 14.52l-44.11 0Z" id="p218w212" />
<path d="M601.13 743.21l23.24 0l0 14.52l-23.24 0Z" id="p218w213" />
<path d="M627.58 743.21l52.37 0l0 14.52l-52.37 0Z" id="p218w214" />
<path d="M482.46 759.88l53.3 0l0 14.52l-53.3 0Z" id="p218w215" />
<path d="M124.06 777.95l84.66 0l0 14.6l-84.66 0Z" id="p218w216" />
<path d="M124.06 793.38l82.79 0l0 16.35l-82.79 0Z" id="p218w217" />
<path d="M297.35 778.03l36.89 0l0 14.52l-36.89 0Z" id="p218w218" />
<path d="M124.06 812.76l20.99 0l0 14.6l-20.99 0Z" id="p218w219" />
<path d="M148.25 812.76l45 0l0 14.6l-45 0Z" id="p218w220" />
<path d="M196.45 812.76l43.91 0l0 14.6l-43.91 0Z" id="p218w221" />
<path d="M124.06 828.19l89.03 0l0 16.35l-89.03 0Z" id="p218w222" />
<path d="M297.35 812.84l23.79 0l0 14.52l-23.79 0Z" id="p218w223" />
<path d="M324.34 812.84l39.76 0l0 14.52l-39.76 0Z" id="p218w224" />
<path d="M482.46 812.84l36.54 0l0 14.52l-36.54 0Z" id="p218w225" />
<path d="M522.2 812.84l13.9 0l0 14.52l-13.9 0Z" id="p218w226" />
<path d="M539.31 812.84l26.2 0l0 14.52l-26.2 0Z" id="p218w227" />
<path d="M568.71 812.84l19.6 0l0 14.52l-19.6 0Z" id="p218w228" />
<path d="M591.52 812.84l35.29 0l0 14.52l-35.29 0Z" id="p218w229" />
<path d="M630.03 812.84l20.85 0l0 14.52l-20.85 0Z" id="p218w230" />
<path d="M654.09 812.84l44.9 0l0 14.52l-44.9 0Z" id="p218w231" />
<path d="M482.46 829.51l46.25 0l0 14.52l-46.25 0Z" id="p218w232" />
<path d="M124.06 847.58l14.31 0l0 14.6l-14.31 0Z" id="p218w233" />
<path d="M141.57 847.58l39.97 0l0 14.6l-39.97 0Z" id="p218w234" />
<path d="M181.54 847.58l20.99 0l0 14.6l-20.99 0Z" id="p218w235" />
<path d="M205.73 847.58l36.59 0l0 14.6l-36.59 0Z" id="p218w236" />
<path d="M124.06 863.01l93.2 0l0 16.35l-93.2 0Z" id="p218w237" />
<path d="M297.35 847.66l17.11 0l0 14.52l-17.11 0Z" id="p218w238" />
<path d="M317.66 847.66l53.59 0l0 14.52l-53.59 0Z" id="p218w239" />
<path d="M297.35 864.33l23.79 0l0 14.52l-23.79 0Z" id="p218w240" />
<path d="M324.34 864.33l59.07 0l0 14.52l-59.07 0Z" id="p218w241" />
<path d="M124.06 882.4l20.99 0l0 14.6l-20.99 0Z" id="p218w242" />
<path d="M148.25 882.4l52.76 0l0 14.6l-52.76 0Z" id="p218w243" />
<path d="M204.31 881.16l66.62 0l0 16.35l-66.62 0Z" id="p218w244" />
<path d="M297.35 882.47l17.11 0l0 14.52l-17.11 0Z" id="p218w245" />
<path d="M317.66 882.47l53.36 0l0 14.52l-53.36 0Z" id="p218w246" />
<path d="M297.35 899.15l23.79 0l0 14.52l-23.79 0Z" id="p218w247" />
<path d="M324.34 899.15l55.7 0l0 14.52l-55.7 0Z" id="p218w248" />
<path d="M500.69 882.41l44.1 0l0 14.61l-44.1 0Z" id="p218w249" />
<path d="M547.99 882.41l32.13 0l0 14.61l-32.13 0Z" id="p218w250" />
</svg>
