<?xml version="1.0" encoding="UTF-8"?>
<svg xmlns="http://www.w3.org/2000/svg" xmlns:xlink="http://www.w3.org/1999/xlink" version="1.1" baseProfile="full" width="768" height="1024" viewBox="0,0,768,1024" preserveAspectRatio="xMinYMin meet" >
<style type="text/css">
<![CDATA[
path {fill-opacity: 0.5;fill: #00aeef;visibility: hidden;}
]]>
</style>
<path d="M124.06 699.87l34.63 0l0 18.84l-34.63 0Z" id="p137w1" />
<path d="M162.34 699.87l89.43 0l0 18.84l-89.43 0Z" id="p137w2" />
<path d="M255.42 699.87l13.62 0l0 18.84l-13.62 0Z" id="p137w3" />
<path d="M272.69 699.87l40.03 0l0 18.84l-40.03 0Z" id="p137w4" />
<path d="M124.06 731.07l51.89 0l0 14.52l-51.89 0Z" id="p137w5" />
<path d="M179.16 731.07l9.89 0l0 14.52l-9.89 0Z" id="p137w6" />
<path d="M192.25 731.07l30.21 0l0 14.52l-30.21 0Z" id="p137w7" />
<path d="M225.67 731.05l17.65 0l0 14.52l-17.65 0Z" id="p137w8" />
<path d="M246.52 731.05l43.82 0l0 14.52l-43.82 0Z" id="p137w9" />
<path d="M307 731.05l51.33 0l0 14.52l-51.33 0Z" id="p137w10" />
<path d="M385.67 733.46l32.02 0l0 11.53l-32.02 0Z" id="p137w11" />
<path d="M124.06 747.74l22.99 0l0 14.52l-22.99 0Z" id="p137w12" />
<path d="M150.26 747.74l52.4 0l0 14.52l-52.4 0Z" id="p137w13" />
<path d="M205.87 747.74l19.52 0l0 14.52l-19.52 0Z" id="p137w14" />
<path d="M228.6 747.74l56.68 0l0 14.52l-56.68 0Z" id="p137w15" />
<path d="M143.75 772.76l50.43 0l0 14.52l-50.43 0Z" id="p137w16" />
<path d="M197.39 772.76l17.38 0l0 14.52l-17.38 0Z" id="p137w17" />
<path d="M217.99 772.76l12.29 0l0 14.52l-12.29 0Z" id="p137w18" />
<path d="M233.48 772.76l31.8 0l0 14.52l-31.8 0Z" id="p137w19" />
<path d="M268.49 772.76l13.63 0l0 14.52l-13.63 0Z" id="p137w20" />
<path d="M285.33 772.76l44.64 0l0 14.52l-44.64 0Z" id="p137w21" />
<path d="M333.18 772.76l13.9 0l0 14.52l-13.9 0Z" id="p137w22" />
<path d="M349.85 772.76l52.11 0l0 14.52l-52.11 0Z" id="p137w23" />
<path d="M143.75 797.77l50.43 0l0 14.52l-50.43 0Z" id="p137w24" />
<path d="M197.39 797.77l17.38 0l0 14.52l-17.38 0Z" id="p137w25" />
<path d="M217.99 797.77l12.29 0l0 14.52l-12.29 0Z" id="p137w26" />
<path d="M233.48 797.77l39.55 0l0 14.52l-39.55 0Z" id="p137w27" />
<path d="M276.23 797.77l14.18 0l0 14.52l-14.18 0Z" id="p137w28" />
<path d="M293.62 797.77l35 0l0 14.52l-35 0Z" id="p137w29" />
<path d="M331.83 797.77l13.9 0l0 14.52l-13.9 0Z" id="p137w30" />
<path d="M348.94 797.77l28.88 0l0 14.52l-28.88 0Z" id="p137w31" />
<path d="M381.02 797.77l17.91 0l0 14.52l-17.91 0Z" id="p137w32" />
<path d="M143.75 814.44l46.78 0l0 14.52l-46.78 0Z" id="p137w33" />
<path d="M193.74 814.44l15.5 0l0 14.52l-15.5 0Z" id="p137w34" />
<path d="M212.44 814.44l39.28 0l0 14.52l-39.28 0Z" id="p137w35" />
<path d="M254.93 814.44l82.31 0l0 14.52l-82.31 0Z" id="p137w36" />
<path d="M348.74 814.44l54.01 0l0 14.52l-54.01 0Z" id="p137w37" />
<path d="M124.06 847.78l33.33 0l0 14.52l-33.33 0Z" id="p137w38" />
<path d="M160.6 847.78l20.85 0l0 14.52l-20.85 0Z" id="p137w39" />
<path d="M184.66 847.78l25.67 0l0 14.52l-25.67 0Z" id="p137w40" />
<path d="M213.54 847.78l47.83 0l0 14.52l-47.83 0Z" id="p137w41" />
<path d="M264.58 847.78l53.72 0l0 14.52l-53.72 0Z" id="p137w42" />
<path d="M331.4 847.78l17.11 0l0 14.52l-17.11 0Z" id="p137w43" />
<path d="M351.71 847.78l62.8 0l0 14.52l-62.8 0Z" id="p137w44" />
<path d="M124.06 864.45l28.33 0l0 14.52l-28.33 0Z" id="p137w45" />
<path d="M155.59 864.45l50.01 0l0 14.52l-50.01 0Z" id="p137w46" />
<path d="M208.81 864.45l30.74 0l0 14.52l-30.74 0Z" id="p137w47" />
<path d="M39.49 757l49.13 0l0 12.3l-49.13 0Z" id="p137w48" />
<path d="M574.05 700.39l20.81 0l0 12.56l-20.81 0Z" id="p137w49" />
<path d="M597.56 700.39l31.57 0l0 12.56l-31.57 0Z" id="p137w50" />
<path d="M463.42 719.22l55.88 0l0 15.37l-55.88 0Z" id="p137w51" />
<path d="M463.42 740.51l12.83 0l0 14.52l-12.83 0Z" id="p137w52" />
<path d="M479.46 740.51l44.64 0l0 14.52l-44.64 0Z" id="p137w53" />
<path d="M527.31 740.51l13.9 0l0 14.52l-13.9 0Z" id="p137w54" />
<path d="M543.98 740.51l52.11 0l0 14.52l-52.11 0Z" id="p137w55" />
<path d="M609.18 740.51l17.9 0l0 14.52l-17.9 0Z" id="p137w56" />
<path d="M463.42 757.18l9.89 0l0 14.52l-9.89 0Z" id="p137w57" />
<path d="M476.52 757.18l53.72 0l0 14.52l-53.72 0Z" id="p137w58" />
<path d="M533.44 757.18l19.51 0l0 14.52l-19.51 0Z" id="p137w59" />
<path d="M556.16 757.18l20.05 0l0 14.52l-20.05 0Z" id="p137w60" />
<path d="M579.42 757.18l28.88 0l0 14.52l-28.88 0Z" id="p137w61" />
<path d="M611.51 757.18l19.71 0l0 14.52l-19.71 0Z" id="p137w62" />
<path d="M463.42 773.85l28.88 0l0 14.52l-28.88 0Z" id="p137w63" />
<path d="M495.51 773.85l14.16 0l0 14.52l-14.16 0Z" id="p137w64" />
<path d="M512.88 773.85l11.22 0l0 14.52l-11.22 0Z" id="p137w65" />
<path d="M527.31 773.85l28.88 0l0 14.52l-28.88 0Z" id="p137w66" />
<path d="M559.39 773.85l20.59 0l0 14.52l-20.59 0Z" id="p137w67" />
<path d="M463.42 798.86l25.41 0l0 14.52l-25.41 0Z" id="p137w68" />
<path d="M492.04 798.86l22.99 0l0 14.52l-22.99 0Z" id="p137w69" />
<path d="M518.24 798.86l83.84 0l0 14.52l-83.84 0Z" id="p137w70" />
<path d="M463.42 815.53l20.85 0l0 14.52l-20.85 0Z" id="p137w71" />
<path d="M487.48 815.53l27.73 0l0 14.52l-27.73 0Z" id="p137w72" />
<path d="M60.68 849.56l27.93 0l0 12.29l-27.93 0Z" id="p137w73" />
<path d="M132.67 914.25l8.98 0l0 13.06l-8.98 0Z" id="p137w74" />
<path d="M144.52 914.25l33.6 0l0 13.06l-33.6 0Z" id="p137w75" />
<path d="M180.99 914.31l15.31 0l0 12.99l-15.31 0Z" id="p137w76" />
<path d="M199.16 914.31l22.19 0l0 12.99l-22.19 0Z" id="p137w77" />
<path d="M254.63 914.25l46.85 0l0 13.06l-46.85 0Z" id="p137w78" />
<path d="M304.35 914.25l12.41 0l0 13.06l-12.41 0Z" id="p137w79" />
<path d="M319.63 914.25l22.95 0l0 13.06l-22.95 0Z" id="p137w80" />
<path d="M345.45 914.25l11.34 0l0 13.06l-11.34 0Z" id="p137w81" />
<path d="M359.66 914.31l26.78 0l0 12.99l-26.78 0Z" id="p137w82" />
<path d="M389.31 914.31l16.5 0l0 12.99l-16.5 0Z" id="p137w83" />
<path d="M408.68 914.31l57.06 0l0 12.99l-57.06 0Z" id="p137w84" />
<path d="M468.61 914.31l29.8 0l0 12.99l-29.8 0Z" id="p137w85" />
<path d="M501.28 914.31l11.49 0l0 12.99l-11.49 0Z" id="p137w86" />
<path d="M515.64 914.31l16.75 0l0 12.99l-16.75 0Z" id="p137w87" />
<path d="M132.67 929.53l12.8 0l0 13.06l-12.8 0Z" id="p137w88" />
<path d="M148.34 929.53l34.25 0l0 13.06l-34.25 0Z" id="p137w89" />
<path d="M185.46 929.59l15.31 0l0 12.99l-15.31 0Z" id="p137w90" />
<path d="M203.64 929.59l32.51 0l0 12.99l-32.51 0Z" id="p137w91" />
<path d="M239.02 929.59l60.74 0l0 12.99l-60.74 0Z" id="p137w92" />
<path d="M324.9 929.53l12.8 0l0 13.06l-12.8 0Z" id="p137w93" />
<path d="M340.57 929.53l15.44 0l0 13.06l-15.44 0Z" id="p137w94" />
<path d="M358.88 929.53l39.72 0l0 13.06l-39.72 0Z" id="p137w95" />
<path d="M401.46 929.59l15.31 0l0 12.99l-15.31 0Z" id="p137w96" />
<path d="M419.64 929.59l56.91 0l0 12.99l-56.91 0Z" id="p137w97" />
<path d="M133.98 337.69l63.17 0l0 14.29l-63.17 0Z" id="p137w98" />
<path d="M200.14 337.69l7.64 0l0 14.29l-7.64 0Z" id="p137w99" />
<path d="M210.77 337.69l12.44 0l0 14.29l-12.44 0Z" id="p137w100" />
<path d="M226.19 337.69l22.8 0l0 14.29l-22.8 0Z" id="p137w101" />
<path d="M251.98 337.69l26.75 0l0 14.29l-26.75 0Z" id="p137w102" />
<path d="M290.3 337.69l9.11 0l0 14.29l-9.11 0Z" id="p137w103" />
<path d="M302.4 337.69l30.08 0l0 14.29l-30.08 0Z" id="p137w104" />
<path d="M339.44 337.69l10.84 0l0 14.29l-10.84 0Z" id="p137w105" />
<path d="M133.98 349.7l9.06 0l0 14.29l-9.06 0Z" id="p137w106" />
<path d="M146.03 349.7l43.08 0l0 14.29l-43.08 0Z" id="p137w107" />
<path d="M192.09 349.7l23.68 0l0 14.29l-23.68 0Z" id="p137w108" />
<path d="M218.76 349.7l12.58 0l0 14.29l-12.58 0Z" id="p137w109" />
<path d="M234.33 349.7l34.46 0l0 14.29l-34.46 0Z" id="p137w110" />
<path d="M271.78 349.7l19.78 0l0 14.29l-19.78 0Z" id="p137w111" />
<path d="M294.55 349.7l15.22 0l0 14.29l-15.22 0Z" id="p137w112" />
<path d="M312.76 349.7l30.17 0l0 14.29l-30.17 0Z" id="p137w113" />
<path d="M133.98 361.71l10.28 0l0 14.29l-10.28 0Z" id="p137w114" />
<path d="M147.25 361.71l9.11 0l0 14.29l-9.11 0Z" id="p137w115" />
<path d="M159.35 361.71l22.94 0l0 14.29l-22.94 0Z" id="p137w116" />
<path d="M185.28 361.71l21.7 0l0 14.29l-21.7 0Z" id="p137w117" />
<path d="M209.96 361.71l7.64 0l0 14.29l-7.64 0Z" id="p137w118" />
<path d="M220.59 361.71l31.48 0l0 14.29l-31.48 0Z" id="p137w119" />
<path d="M255.06 361.71l19.62 0l0 14.29l-19.62 0Z" id="p137w120" />
<path d="M277.67 361.71l27.76 0l0 14.29l-27.76 0Z" id="p137w121" />
<path d="M308.41 361.71l23.68 0l0 14.29l-23.68 0Z" id="p137w122" />
<path d="M335.08 361.71l12.36 0l0 14.29l-12.36 0Z" id="p137w123" />
<path d="M133.98 373.71l34.46 0l0 14.29l-34.46 0Z" id="p137w124" />
<path d="M180.01 373.71l44.94 0l0 14.29l-44.94 0Z" id="p137w125" />
<path d="M133.98 373.71l34.46 0l0 14.29l-34.46 0Z" id="p137w126" />
<path d="M180.01 373.71l44.94 0l0 14.29l-44.94 0Z" id="p137w127" />
<path d="M133.98 373.71l34.46 0l0 14.29l-34.46 0Z" id="p137w128" />
<path d="M180.01 373.71l44.94 0l0 14.29l-44.94 0Z" id="p137w129" />
<path d="M232.36 373.71l25.31 0l0 14.29l-25.31 0Z" id="p137w130" />
<path d="M260.66 373.71l19.89 0l0 14.29l-19.89 0Z" id="p137w131" />
<path d="M283.54 373.71l31.33 0l0 14.29l-31.33 0Z" id="p137w132" />
<path d="M411.23 326.49l26.75 0l0 14.29l-26.75 0Z" id="p137w133" />
<path d="M440.97 326.49l10.28 0l0 14.29l-10.28 0Z" id="p137w134" />
<path d="M468.69 326.49l32.57 0l0 14.29l-32.57 0Z" id="p137w135" />
<path d="M504.25 326.49l11.64 0l0 14.29l-11.64 0Z" id="p137w136" />
<path d="M518.87 326.49l38.23 0l0 14.29l-38.23 0Z" id="p137w137" />
<path d="M560.09 326.49l12 0l0 14.29l-12 0Z" id="p137w138" />
<path d="M575.08 326.49l38.9 0l0 14.29l-38.9 0Z" id="p137w139" />
<path d="M400.38 338.5l11.01 0l0 14.29l-11.01 0Z" id="p137w140" />
<path d="M414.37 338.5l12.44 0l0 14.29l-12.44 0Z" id="p137w141" />
<path d="M429.8 338.5l18.16 0l0 14.29l-18.16 0Z" id="p137w142" />
<path d="M450.95 338.5l12 0l0 14.29l-12 0Z" id="p137w143" />
<path d="M465.94 338.5l31.85 0l0 14.29l-31.85 0Z" id="p137w144" />
<path d="M500.78 338.5l11.06 0l0 14.29l-11.06 0Z" id="p137w145" />
<path d="M514.83 338.5l17.23 0l0 14.29l-17.23 0Z" id="p137w146" />
<path d="M535.05 338.5l27.62 0l0 14.29l-27.62 0Z" id="p137w147" />
<path d="M565.65 338.5l19.78 0l0 14.29l-19.78 0Z" id="p137w148" />
<path d="M588.42 338.5l12.58 0l0 14.29l-12.58 0Z" id="p137w149" />
<path d="M603.99 338.5l23.73 0l0 14.29l-23.73 0ZM400.38 350.5l32.91 0l0 14.29l-32.91 0Z" id="p137w150" />
<path d="M436.27 350.5l40.25 0l0 14.29l-40.25 0Z" id="p137w151" />
<path d="M479.51 350.5l34.74 0l0 14.29l-34.74 0Z" id="p137w152" />
<path d="M517.24 350.5l42.24 0l0 14.29l-42.24 0Z" id="p137w153" />
<path d="M562.47 350.5l40.07 0l0 14.29l-40.07 0Z" id="p137w154" />
<path d="M400.38 362.51l17.23 0l0 14.29l-17.23 0Z" id="p137w155" />
<path d="M420.6 362.51l21.66 0l0 14.29l-21.66 0Z" id="p137w156" />
<path d="M445.25 362.51l42.5 0l0 14.29l-42.5 0Z" id="p137w157" />
<path d="M490.74 362.51l7.64 0l0 14.29l-7.64 0Z" id="p137w158" />
<path d="M501.36 362.51l12.44 0l0 14.29l-12.44 0Z" id="p137w159" />
<path d="M516.79 362.51l32.06 0l0 14.29l-32.06 0Z" id="p137w160" />
<path d="M560.42 362.51l13.4 0l0 14.29l-13.4 0Z" id="p137w161" />
<path d="M576.8 362.51l33.19 0l0 14.29l-33.19 0Z" id="p137w162" />
<path d="M400.38 374.52l10.28 0l0 14.29l-10.28 0Z" id="p137w163" />
<path d="M413.65 374.52l27.49 0l0 14.29l-27.49 0Z" id="p137w164" />
<path d="M444.12 374.52l11.06 0l0 14.29l-11.06 0Z" id="p137w165" />
<path d="M458.17 374.52l35.04 0l0 14.29l-35.04 0Z" id="p137w166" />
<path d="M496.19 374.52l17.51 0l0 14.29l-17.51 0Z" id="p137w167" />
<path d="M516.69 374.52l21.54 0l0 14.29l-21.54 0Z" id="p137w168" />
<path d="M541.22 374.52l10.28 0l0 14.29l-10.28 0Z" id="p137w169" />
<path d="M554.48 374.52l34.59 0l0 14.29l-34.59 0Z" id="p137w170" />
<path d="M160.21 612.17l32.57 0l0 14.29l-32.57 0Z" id="p137w171" />
<path d="M195.77 612.17l20.4 0l0 14.29l-20.4 0Z" id="p137w172" />
<path d="M219.16 612.17l7.64 0l0 14.29l-7.64 0Z" id="p137w173" />
<path d="M229.78 612.17l29.48 0l0 14.29l-29.48 0Z" id="p137w174" />
<path d="M268.63 612.17l11.01 0l0 14.29l-11.01 0Z" id="p137w175" />
<path d="M282.62 612.17l12.44 0l0 14.29l-12.44 0Z" id="p137w176" />
<path d="M298.05 612.17l25.86 0l0 14.29l-25.86 0ZM133.57 624.18l10.62 0l0 14.29l-10.62 0Z" id="p137w177" />
<path d="M147.19 624.18l11.1 0l0 14.29l-11.1 0Z" id="p137w178" />
<path d="M161.28 624.18l34.34 0l0 14.29l-34.34 0Z" id="p137w179" />
<path d="M198.61 624.18l19.78 0l0 14.29l-19.78 0Z" id="p137w180" />
<path d="M221.38 624.18l9.11 0l0 14.29l-9.11 0Z" id="p137w181" />
<path d="M233.48 624.18l23.01 0l0 14.29l-23.01 0Z" id="p137w182" />
<path d="M259.48 624.18l8.12 0l0 14.29l-8.12 0Z" id="p137w183" />
<path d="M270.58 624.18l23.26 0l0 14.29l-23.26 0Z" id="p137w184" />
<path d="M296.83 624.18l39.83 0l0 14.29l-39.83 0Z" id="p137w185" />
<path d="M133.57 636.19l23.54 0l0 14.29l-23.54 0Z" id="p137w186" />
<path d="M160.1 636.19l11.98 0l0 14.29l-11.98 0Z" id="p137w187" />
<path d="M175.07 636.19l11.1 0l0 14.29l-11.1 0Z" id="p137w188" />
<path d="M189.17 636.19l20.58 0l0 14.29l-20.58 0Z" id="p137w189" />
<path d="M212.73 636.19l15.63 0l0 14.29l-15.63 0Z" id="p137w190" />
<path d="M231.35 636.19l26.86 0l0 14.29l-26.86 0Z" id="p137w191" />
<path d="M261.19 636.19l17.51 0l0 14.29l-17.51 0Z" id="p137w192" />
<path d="M281.69 636.19l23.19 0l0 14.29l-23.19 0Z" id="p137w193" />
<path d="M307.87 636.19l10.28 0l0 14.29l-10.28 0Z" id="p137w194" />
<path d="M321.14 636.19l12.6 0l0 14.29l-12.6 0ZM133.57 648.2l32.2 0l0 14.29l-32.2 0Z" id="p137w195" />
<path d="M168.76 648.2l24 0l0 14.29l-24 0Z" id="p137w196" />
<path d="M195.75 648.2l36.33 0l0 14.29l-36.33 0Z" id="p137w197" />
<path d="M243.65 648.2l8.81 0l0 14.29l-8.81 0Z" id="p137w198" />
<path d="M255.45 648.2l43.48 0l0 14.29l-43.48 0Z" id="p137w199" />
<path d="M400.4 625.22l27.29 0l0 14.29l-27.29 0Z" id="p137w200" />
<path d="M430.68 625.22l9.11 0l0 14.29l-9.11 0Z" id="p137w201" />
<path d="M442.78 625.22l23.84 0l0 14.29l-23.84 0Z" id="p137w202" />
<path d="M469.6 625.22l26.41 0l0 14.29l-26.41 0Z" id="p137w203" />
<path d="M499 625.22l17.22 0l0 14.29l-17.22 0Z" id="p137w204" />
<path d="M519.21 625.22l22.69 0l0 14.29l-22.69 0Z" id="p137w205" />
<path d="M544.89 625.22l32.21 0l0 14.29l-32.21 0Z" id="p137w206" />
<path d="M580.09 625.22l21.7 0l0 14.29l-21.7 0Z" id="p137w207" />
<path d="M400.4 637.23l6.58 0l0 14.29l-6.58 0Z" id="p137w208" />
<path d="M428.69 637.23l38.32 0l0 14.29l-38.32 0Z" id="p137w209" />
<path d="M469.99 637.23l13.4 0l0 14.29l-13.4 0Z" id="p137w210" />
<path d="M486.38 637.23l22.61 0l0 14.29l-22.61 0Z" id="p137w211" />
<path d="M511.97 637.23l16.47 0l0 14.29l-16.47 0Z" id="p137w212" />
<path d="M531.43 637.23l18.86 0l0 14.29l-18.86 0Z" id="p137w213" />
<path d="M400.4 649.24l23.68 0l0 14.29l-23.68 0Z" id="p137w214" />
<path d="M427.07 649.24l9.11 0l0 14.29l-9.11 0Z" id="p137w215" />
<path d="M439.17 649.24l39.31 0l0 14.29l-39.31 0Z" id="p137w216" />
<path d="M481.47 649.24l12.57 0l0 14.29l-12.57 0Z" id="p137w217" />
<path d="M497.02 649.24l15.14 0l0 14.29l-15.14 0Z" id="p137w218" />
<path d="M77.12 38.6l36.57 0l0 16.09l-36.57 0Z" id="p137w219" />
<path d="M615.84 983l75.26 0l0 12.23l-75.26 0Z" id="p137w220" />
</svg>
