<?xml version="1.0" encoding="UTF-8"?>
<svg xmlns="http://www.w3.org/2000/svg" xmlns:xlink="http://www.w3.org/1999/xlink" version="1.1" baseProfile="full" width="768" height="1024" viewBox="0,0,768,1024" preserveAspectRatio="xMinYMin meet" >
<style type="text/css">
<![CDATA[
path {fill-opacity: 0.5;fill: #00aeef;visibility: hidden;}
]]>
</style>
<path d="M124.06 114.18l51.33 0l0 14.52l-51.33 0Z" id="p156w1" />
<path d="M178.6 114.18l47.57 0l0 14.52l-47.57 0Z" id="p156w2" />
<path d="M229.38 114.18l13.63 0l0 14.52l-13.63 0Z" id="p156w3" />
<path d="M246.22 114.18l34.48 0l0 14.52l-34.48 0Z" id="p156w4" />
<path d="M283.91 114.18l40.63 0l0 14.52l-40.63 0Z" id="p156w5" />
<path d="M327.74 114.18l5.61 0l0 14.52l-5.61 0Z" id="p156w6" />
<path d="M333.35 114.11l51.97 0l0 14.6l-51.97 0Z" id="p156w7" />
<path d="M388.52 114.18l13.91 0l0 14.52l-13.91 0Z" id="p156w8" />
<path d="M405.64 114.18l9.89 0l0 14.52l-9.89 0Z" id="p156w9" />
<path d="M418.74 114.11l32.05 0l0 14.6l-32.05 0Z" id="p156w10" />
<path d="M453.99 114.11l49.97 0l0 14.6l-49.97 0Z" id="p156w11" />
<path d="M124.06 130.85l32.97 0l0 14.52l-32.97 0Z" id="p156w12" />
<path d="M160.24 130.85l18.72 0l0 14.52l-18.72 0Z" id="p156w13" />
<path d="M182.16 130.85l43.29 0l0 14.52l-43.29 0Z" id="p156w14" />
<path d="M228.67 130.85l25.4 0l0 14.52l-25.4 0Z" id="p156w15" />
<path d="M257.27 130.85l46.78 0l0 14.52l-46.78 0Z" id="p156w16" />
<path d="M307.25 130.85l23.53 0l0 14.52l-23.53 0Z" id="p156w17" />
<path d="M334 130.85l31.01 0l0 14.52l-31.01 0Z" id="p156w18" />
<path d="M368.21 130.85l23.53 0l0 14.52l-23.53 0Z" id="p156w19" />
<path d="M394.95 130.85l37.97 0l0 14.52l-37.97 0Z" id="p156w20" />
<path d="M436.13 130.85l43.57 0l0 14.52l-43.57 0Z" id="p156w21" />
<path d="M482.91 130.85l22.99 0l0 14.52l-22.99 0Z" id="p156w22" />
<path d="M509.11 130.85l19.79 0l0 14.52l-19.79 0Z" id="p156w23" />
<path d="M128.98 347.6l27.81 0l0 14.52l-27.81 0Z" id="p156w24" />
<path d="M169.63 347.6l12.29 0l0 14.52l-12.29 0Z" id="p156w25" />
<path d="M185.12 347.6l44.89 0l0 14.52l-44.89 0Z" id="p156w26" />
<path d="M242.84 347.6l26.46 0l0 14.52l-26.46 0Z" id="p156w27" />
<path d="M128.98 364.27l37.97 0l0 14.52l-37.97 0Z" id="p156w28" />
<path d="M170.17 364.27l30.73 0l0 14.52l-30.73 0Z" id="p156w29" />
<path d="M213.72 364.27l39.51 0l0 14.52l-39.51 0Z" id="p156w30" />
<path d="M256.44 364.27l13.9 0l0 14.52l-13.9 0Z" id="p156w31" />
<path d="M128.98 380.94l33.67 0l0 14.52l-33.67 0Z" id="p156w32" />
<path d="M175.49 380.94l26.99 0l0 14.52l-26.99 0Z" id="p156w33" />
<path d="M330.5 347.6l17.63 0l0 14.52l-17.63 0Z" id="p156w34" />
<path d="M351.34 347.6l28.85 0l0 14.52l-28.85 0Z" id="p156w35" />
<path d="M393.02 347.6l48.1 0l0 14.52l-48.1 0Z" id="p156w36" />
<path d="M444.33 347.6l29.84 0l0 14.52l-29.84 0ZM330.5 364.27l48.92 0l0 14.52l-48.92 0Z" id="p156w37" />
<path d="M392.25 364.27l48.65 0l0 14.52l-48.65 0Z" id="p156w38" />
<path d="M444.11 364.27l47.04 0l0 14.52l-47.04 0Z" id="p156w39" />
<path d="M532.01 347.6l36.34 0l0 14.52l-36.34 0Z" id="p156w40" />
<path d="M581.18 347.6l28.34 0l0 14.52l-28.34 0Z" id="p156w41" />
<path d="M622.35 347.6l47.41 0l0 14.52l-47.41 0Z" id="p156w42" />
<path d="M532.01 364.27l48.1 0l0 14.52l-48.1 0Z" id="p156w43" />
<path d="M588.36 364.27l42.78 0l0 14.52l-42.78 0Z" id="p156w44" />
<path d="M532.01 380.94l23.52 0l0 14.52l-23.52 0Z" id="p156w45" />
<path d="M558.74 380.94l26.73 0l0 14.52l-26.73 0Z" id="p156w46" />
<path d="M588.68 380.94l47.41 0l0 14.52l-47.41 0Z" id="p156w47" />
<path d="M128.98 606.03l37.97 0l0 14.52l-37.97 0Z" id="p156w48" />
<path d="M170.17 606.03l40.89 0l0 14.52l-40.89 0Z" id="p156w49" />
<path d="M214.27 606.03l20.58 0l0 14.52l-20.58 0Z" id="p156w50" />
<path d="M128.98 622.7l26.73 0l0 14.52l-26.73 0Z" id="p156w51" />
<path d="M158.92 622.7l9.89 0l0 14.52l-9.89 0Z" id="p156w52" />
<path d="M172.01 622.7l19.79 0l0 14.52l-19.79 0Z" id="p156w53" />
<path d="M204.63 622.7l22.99 0l0 14.52l-22.99 0Z" id="p156w54" />
<path d="M128.98 639.37l27.02 0l0 14.52l-27.02 0Z" id="p156w55" />
<path d="M168.83 639.37l50.78 0l0 14.52l-50.78 0Z" id="p156w56" />
<path d="M232.44 639.37l25.13 0l0 14.52l-25.13 0Z" id="p156w57" />
<path d="M128.98 656.04l25.13 0l0 14.52l-25.13 0Z" id="p156w58" />
<path d="M162.37 656.04l28.85 0l0 14.52l-28.85 0Z" id="p156w59" />
<path d="M204.05 656.04l24.85 0l0 14.52l-24.85 0Z" id="p156w60" />
<path d="M232.11 656.04l41.43 0l0 14.52l-41.43 0Z" id="p156w61" />
<path d="M128.98 672.71l20.85 0l0 14.52l-20.85 0Z" id="p156w62" />
<path d="M153.05 672.71l24.33 0l0 14.52l-24.33 0Z" id="p156w63" />
<path d="M185.62 672.71l22.44 0l0 14.52l-22.44 0Z" id="p156w64" />
<path d="M211.27 672.71l9.89 0l0 14.52l-9.89 0Z" id="p156w65" />
<path d="M224.36 672.71l32.62 0l0 14.52l-32.62 0Z" id="p156w66" />
<path d="M330.5 606.01l12.29 0l0 14.52l-12.29 0Z" id="p156w67" />
<path d="M345.99 606.01l51.32 0l0 14.52l-51.32 0Z" id="p156w68" />
<path d="M400.52 606.01l38.32 0l0 14.52l-38.32 0Z" id="p156w69" />
<path d="M442.05 606.01l28.85 0l0 14.52l-28.85 0Z" id="p156w70" />
<path d="M330.5 622.68l32.35 0l0 14.52l-32.35 0Z" id="p156w71" />
<path d="M375.68 622.68l82.51 0l0 14.52l-82.51 0Z" id="p156w72" />
<path d="M330.5 639.36l39.84 0l0 14.52l-39.84 0Z" id="p156w73" />
<path d="M413.75 639.36l49.71 0l0 14.52l-49.71 0Z" id="p156w74" />
<path d="M330.5 656.03l22.44 0l0 14.52l-22.44 0Z" id="p156w75" />
<path d="M356.14 656.03l20.85 0l0 14.52l-20.85 0Z" id="p156w76" />
<path d="M380.21 656.03l44.36 0l0 14.52l-44.36 0Z" id="p156w77" />
<path d="M532.01 606.01l26.99 0l0 14.52l-26.99 0Z" id="p156w78" />
<path d="M571.83 606.01l27.53 0l0 14.52l-27.53 0Z" id="p156w79" />
<path d="M612.2 606.01l42.78 0l0 14.52l-42.78 0Z" id="p156w80" />
<path d="M532.01 622.68l19.51 0l0 14.52l-19.51 0Z" id="p156w81" />
<path d="M554.73 622.68l44.57 0l0 14.52l-44.57 0Z" id="p156w82" />
<path d="M607.55 622.68l27.53 0l0 14.52l-27.53 0Z" id="p156w83" />
<path d="M638.29 622.68l31.01 0l0 14.52l-31.01 0Z" id="p156w84" />
<path d="M532.01 639.36l54.53 0l0 14.52l-54.53 0Z" id="p156w85" />
<path d="M599.37 639.36l54.55 0l0 14.52l-54.55 0Z" id="p156w86" />
<path d="M532.01 656.03l36.28 0l0 14.52l-36.28 0Z" id="p156w87" />
<path d="M124.05 722.66l43.03 0l0 14.6l-43.03 0Z" id="p156w88" />
<path d="M170.29 722.72l13.91 0l0 14.52l-13.91 0Z" id="p156w89" />
<path d="M187.4 722.66l45.09 0l0 14.6l-45.09 0Z" id="p156w90" />
<path d="M243.99 722.72l51.33 0l0 14.52l-51.33 0Z" id="p156w91" />
<path d="M298.53 722.72l47.57 0l0 14.52l-47.57 0Z" id="p156w92" />
<path d="M349.31 722.72l13.9 0l0 14.52l-13.9 0Z" id="p156w93" />
<path d="M366.41 722.72l28.06 0l0 14.52l-28.06 0Z" id="p156w94" />
<path d="M397.68 722.72l13.63 0l0 14.52l-13.63 0Z" id="p156w95" />
<path d="M414.53 722.72l34.48 0l0 14.52l-34.48 0Z" id="p156w96" />
<path d="M143.74 747.74l48.39 0l0 14.52l-48.39 0Z" id="p156w97" />
<path d="M195.34 747.74l14.18 0l0 14.52l-14.18 0Z" id="p156w98" />
<path d="M212.72 747.74l61.21 0l0 14.52l-61.21 0Z" id="p156w99" />
<path d="M286.75 747.74l22.44 0l0 14.52l-22.44 0Z" id="p156w100" />
<path d="M322.02 747.74l20.31 0l0 14.52l-20.31 0Z" id="p156w101" />
<path d="M355.17 747.74l31.01 0l0 14.52l-31.01 0Z" id="p156w102" />
<path d="M399 747.74l31.01 0l0 14.52l-31.01 0Z" id="p156w103" />
<path d="M433.21 747.74l20.85 0l0 14.52l-20.85 0Z" id="p156w104" />
<path d="M466.9 747.74l14.18 0l0 14.52l-14.18 0Z" id="p156w105" />
<path d="M493.9 747.74l41.99 0l0 14.52l-41.99 0Z" id="p156w106" />
<path d="M539.1 747.74l33.94 0l0 14.52l-33.94 0Z" id="p156w107" />
<path d="M143.74 764.41l37.35 0l0 14.52l-37.35 0Z" id="p156w108" />
<path d="M193.93 764.41l54.55 0l0 14.52l-54.55 0Z" id="p156w109" />
<path d="M251.69 764.41l13.9 0l0 14.52l-13.9 0Z" id="p156w110" />
<path d="M268.79 764.41l69.77 0l0 14.52l-69.77 0Z" id="p156w111" />
<path d="M143.74 781.08l40.89 0l0 14.52l-40.89 0Z" id="p156w112" />
<path d="M197.46 781.08l9.62 0l0 14.52l-9.62 0Z" id="p156w113" />
<path d="M219.91 781.08l24.31 0l0 14.52l-24.31 0Z" id="p156w114" />
<path d="M257.06 781.08l25.4 0l0 14.52l-25.4 0Z" id="p156w115" />
<path d="M295.28 781.08l17.63 0l0 14.52l-17.63 0Z" id="p156w116" />
<path d="M316.12 781.08l38.21 0l0 14.52l-38.21 0Z" id="p156w117" />
<path d="M357.54 781.08l19.52 0l0 14.52l-19.52 0Z" id="p156w118" />
<path d="M380.27 781.08l48.39 0l0 14.52l-48.39 0Z" id="p156w119" />
<path d="M431.87 781.08l14.18 0l0 14.52l-14.18 0Z" id="p156w120" />
<path d="M449.25 781.08l63.88 0l0 14.52l-63.88 0Z" id="p156w121" />
<path d="M143.74 797.75l26.45 0l0 14.52l-26.45 0Z" id="p156w122" />
<path d="M183.02 797.75l28.33 0l0 14.52l-28.33 0Z" id="p156w123" />
<path d="M214.55 797.75l34.48 0l0 14.52l-34.48 0Z" id="p156w124" />
<path d="M261.86 797.75l12.57 0l0 14.52l-12.57 0Z" id="p156w125" />
<path d="M287.26 797.75l22.44 0l0 14.52l-22.44 0Z" id="p156w126" />
<path d="M322.52 797.75l51.05 0l0 14.52l-51.05 0Z" id="p156w127" />
<path d="M143.74 814.42l10.43 0l0 14.52l-10.43 0Z" id="p156w128" />
<path d="M167 814.42l22.44 0l0 14.52l-22.44 0Z" id="p156w129" />
<path d="M202.27 814.42l22.45 0l0 14.52l-22.45 0Z" id="p156w130" />
<path d="M237.55 814.42l31.01 0l0 14.52l-31.01 0Z" id="p156w131" />
<path d="M271.76 814.42l20.85 0l0 14.52l-20.85 0Z" id="p156w132" />
<path d="M305.44 814.42l9.62 0l0 14.52l-9.62 0Z" id="p156w133" />
<path d="M327.9 814.42l37.97 0l0 14.52l-37.97 0Z" id="p156w134" />
<path d="M369.08 814.42l25.38 0l0 14.52l-25.38 0Z" id="p156w135" />
<path d="M407.29 814.42l14.18 0l0 14.52l-14.18 0Z" id="p156w136" />
<path d="M424.67 814.42l46.79 0l0 14.52l-46.79 0Z" id="p156w137" />
<path d="M143.74 831.09l27.8 0l0 14.52l-27.8 0Z" id="p156w138" />
<path d="M174.75 831.09l15.5 0l0 14.52l-15.5 0Z" id="p156w139" />
<path d="M193.45 831.09l41.14 0l0 14.52l-41.14 0Z" id="p156w140" />
<path d="M237.36 831.09l19.61 0l0 14.52l-19.61 0Z" id="p156w141" />
<path d="M269.81 831.09l9.62 0l0 14.52l-9.62 0Z" id="p156w142" />
<path d="M292.26 831.09l41.68 0l0 14.52l-41.68 0Z" id="p156w143" />
<path d="M337.15 831.09l13.9 0l0 14.52l-13.9 0Z" id="p156w144" />
<path d="M354.26 831.09l31.01 0l0 14.52l-31.01 0Z" id="p156w145" />
<path d="M388.47 831.09l19.51 0l0 14.52l-19.51 0Z" id="p156w146" />
<path d="M411.18 831.09l54 0l0 14.52l-54 0Z" id="p156w147" />
<path d="M478.01 831.09l53.19 0l0 14.52l-53.19 0Z" id="p156w148" />
<path d="M544.04 831.09l26.45 0l0 14.52l-26.45 0Z" id="p156w149" />
<path d="M143.74 847.76l12.57 0l0 14.52l-12.57 0Z" id="p156w150" />
<path d="M169.14 847.76l13.9 0l0 14.52l-13.9 0Z" id="p156w151" />
<path d="M186.24 847.76l19.51 0l0 14.52l-19.51 0Z" id="p156w152" />
<path d="M208.96 847.76l22.44 0l0 14.52l-22.44 0Z" id="p156w153" />
<path d="M234.61 847.76l44.38 0l0 14.52l-44.38 0Z" id="p156w154" />
<path d="M143.74 864.43l41.97 0l0 14.52l-41.97 0Z" id="p156w155" />
<path d="M198.54 864.43l12.02 0l0 14.52l-12.02 0Z" id="p156w156" />
<path d="M223.4 864.43l13.9 0l0 14.52l-13.9 0Z" id="p156w157" />
<path d="M240.5 864.43l19.51 0l0 14.52l-19.51 0Z" id="p156w158" />
<path d="M263.22 864.43l37.97 0l0 14.52l-37.97 0Z" id="p156w159" />
<path d="M314.02 864.43l17.63 0l0 14.52l-17.63 0Z" id="p156w160" />
<path d="M344.49 864.43l29.69 0l0 14.52l-29.69 0Z" id="p156w161" />
<path d="M143.74 881.1l26.46 0l0 14.52l-26.46 0Z" id="p156w162" />
<path d="M183.03 881.1l9.62 0l0 14.52l-9.62 0Z" id="p156w163" />
<path d="M205.49 881.1l40.1 0l0 14.52l-40.1 0Z" id="p156w164" />
<path d="M258.41 881.1l42.77 0l0 14.52l-42.77 0Z" id="p156w165" />
<path d="M314.01 881.1l32.01 0l0 14.52l-32.01 0Z" id="p156w166" />
<path d="M358.85 881.1l17.38 0l0 14.52l-17.38 0Z" id="p156w167" />
<path d="M389.06 881.1l17.63 0l0 14.52l-17.63 0Z" id="p156w168" />
<path d="M409.9 881.1l51.05 0l0 14.52l-51.05 0Z" id="p156w169" />
<path d="M473.79 881.1l34.69 0l0 14.52l-34.69 0Z" id="p156w170" />
<path d="M511.68 881.1l57.18 0l0 14.52l-57.18 0Z" id="p156w171" />
<path d="M358.23 513.4l29.67 0l0 14.52l-29.67 0Z" id="p156w172" />
<path d="M391.06 513.4l24.85 0l0 14.52l-24.85 0Z" id="p156w173" />
<path d="M419.07 513.4l28.07 0l0 14.52l-28.07 0Z" id="p156w174" />
<path d="M196.75 421.97l80.9 0l0 14.52l-80.9 0Z" id="p156w175" />
<path d="M124.06 38.6l62.95 0l0 16.09l-62.95 0Z" id="p156w176" />
<path d="M76.9 983l104.31 0l0 12.23l-104.31 0Z" id="p156w177" />
</svg>
