<?xml version="1.0" encoding="UTF-8"?>
<svg xmlns="http://www.w3.org/2000/svg" xmlns:xlink="http://www.w3.org/1999/xlink" version="1.1" baseProfile="full" width="768" height="1024" viewBox="0,0,768,1024" preserveAspectRatio="xMinYMin meet" >
<style type="text/css">
<![CDATA[
path {fill-opacity: 0.5;fill: #00aeef;visibility: hidden;}
]]>
</style>
<path d="M124.06 107.98l18.36 0l0 18.84l-18.36 0Z" id="p153w1" />
<path d="M146.07 107.98l56.09 0l0 18.84l-56.09 0Z" id="p153w2" />
<path d="M124.06 139.19l32.87 0l0 14.52l-32.87 0Z" id="p153w3" />
<path d="M160.14 139.19l9.89 0l0 14.52l-9.89 0Z" id="p153w4" />
<path d="M173.23 139.19l21.37 0l0 14.52l-21.37 0Z" id="p153w5" />
<path d="M197.81 139.19l11.22 0l0 14.52l-11.22 0Z" id="p153w6" />
<path d="M212.23 139.19l56.96 0l0 14.52l-56.96 0Z" id="p153w7" />
<path d="M272.4 139.19l42.5 0l0 14.52l-42.5 0Z" id="p153w8" />
<path d="M318.1 139.19l48.3 0l0 14.52l-48.3 0Z" id="p153w9" />
<path d="M369.61 139.19l25.67 0l0 14.52l-25.67 0Z" id="p153w10" />
<path d="M398.49 139.19l26.19 0l0 14.52l-26.19 0Z" id="p153w11" />
<path d="M72.89 140.96l15.07 0l0 12.29l-15.07 0Z" id="p153w12" />
<path d="M124.06 886.46l42.69 0l0 13.06l-42.69 0Z" id="p153w13" />
<path d="M169.62 886.52l19.62 0l0 12.99l-19.62 0Z" id="p153w14" />
<path d="M192.11 886.52l48.55 0l0 12.99l-48.55 0Z" id="p153w15" />
<path d="M257.19 886.46l32.42 0l0 13.06l-32.42 0Z" id="p153w16" />
<path d="M292.48 886.52l55.26 0l0 12.99l-55.26 0Z" id="p153w17" />
<path d="M364.28 886.46l45.37 0l0 13.06l-45.37 0Z" id="p153w18" />
<path d="M412.52 886.46l12.9 0l0 13.06l-12.9 0Z" id="p153w19" />
<path d="M428.28 886.52l17.95 0l0 12.99l-17.95 0Z" id="p153w20" />
<path d="M449.11 886.52l31.8 0l0 12.99l-31.8 0Z" id="p153w21" />
<path d="M497.44 886.46l65.06 0l0 13.06l-65.06 0Z" id="p153w22" />
<path d="M565.37 886.52l50.87 0l0 12.99l-50.87 0Z" id="p153w23" />
<path d="M632.77 886.46l18.78 0l0 13.06l-18.78 0Z" id="p153w24" />
<path d="M654.42 886.46l32.57 0l0 13.06l-32.57 0Z" id="p153w25" />
<path d="M124.07 901.8l21.28 0l0 12.99l-21.28 0Z" id="p153w26" />
<path d="M148.22 901.8l33.17 0l0 12.99l-33.17 0Z" id="p153w27" />
<path d="M184.27 901.8l12.92 0l0 12.99l-12.92 0Z" id="p153w28" />
<path d="M197.19 901.8l18.66 0l0 12.99l-18.66 0Z" id="p153w29" />
<path d="M232.38 901.74l18.78 0l0 13.06l-18.78 0Z" id="p153w30" />
<path d="M254.03 901.74l59.59 0l0 13.06l-59.59 0Z" id="p153w31" />
<path d="M316.49 901.8l18.66 0l0 12.99l-18.66 0Z" id="p153w32" />
<path d="M338.02 901.8l35.41 0l0 12.99l-35.41 0Z" id="p153w33" />
<path d="M389.96 901.74l18.78 0l0 13.06l-18.78 0Z" id="p153w34" />
<path d="M411.61 901.74l40.13 0l0 13.06l-40.13 0Z" id="p153w35" />
<path d="M454.61 901.8l21.28 0l0 12.99l-21.28 0Z" id="p153w36" />
<path d="M478.76 901.8l39.42 0l0 12.99l-39.42 0Z" id="p153w37" />
<path d="M534.72 901.74l41.98 0l0 13.06l-41.98 0Z" id="p153w38" />
<path d="M584.22 901.74l47.96 0l0 13.06l-47.96 0Z" id="p153w39" />
<path d="M635.05 901.8l18.9 0l0 12.99l-18.9 0Z" id="p153w40" />
<path d="M124.09 917.02l20.21 0l0 13.06l-20.21 0Z" id="p153w41" />
<path d="M147.16 917.02l44.43 0l0 13.06l-44.43 0Z" id="p153w42" />
<path d="M194.46 917.02l12.41 0l0 13.06l-12.41 0Z" id="p153w43" />
<path d="M209.74 917.02l22.95 0l0 13.06l-22.95 0Z" id="p153w44" />
<path d="M235.56 917.02l11.34 0l0 13.06l-11.34 0Z" id="p153w45" />
<path d="M249.77 917.08l29.8 0l0 12.99l-29.8 0Z" id="p153w46" />
<path d="M282.43 917.08l16.75 0l0 12.99l-16.75 0Z" id="p153w47" />
<path d="M302.05 917.08l38.5 0l0 12.99l-38.5 0Z" id="p153w48" />
<path d="M365.94 917.02l23.04 0l0 13.06l-23.04 0Z" id="p153w49" />
<path d="M391.85 917.08l83.19 0l0 12.99l-83.19 0Z" id="p153w50" />
<path d="M491.57 917.02l45.23 0l0 13.06l-45.23 0Z" id="p153w51" />
<path d="M539.68 917.02l11.34 0l0 13.06l-11.34 0Z" id="p153w52" />
<path d="M553.88 917.08l20.65 0l0 12.99l-20.65 0Z" id="p153w53" />
<path d="M577.41 917.08l68.88 0l0 12.99l-68.88 0Z" id="p153w54" />
<path d="M124.09 932.3l18.78 0l0 13.06l-18.78 0Z" id="p153w55" />
<path d="M145.73 932.3l51.94 0l0 13.06l-51.94 0Z" id="p153w56" />
<path d="M200.54 932.36l21.28 0l0 12.99l-21.28 0Z" id="p153w57" />
<path d="M224.69 932.36l53.27 0l0 12.99l-53.27 0Z" id="p153w58" />
<path d="M294.5 932.3l71.82 0l0 13.06l-71.82 0Z" id="p153w59" />
<path d="M369.19 932.3l12.9 0l0 13.06l-12.9 0Z" id="p153w60" />
<path d="M384.95 932.36l17.95 0l0 12.99l-17.95 0Z" id="p153w61" />
<path d="M405.78 932.36l67.69 0l0 12.99l-67.69 0Z" id="p153w62" />
<path d="M490 932.3l24.69 0l0 13.06l-24.69 0Z" id="p153w63" />
<path d="M517.57 932.3l17.55 0l0 13.06l-17.55 0Z" id="p153w64" />
<path d="M537.99 932.3l35.66 0l0 13.06l-35.66 0Z" id="p153w65" />
<path d="M576.51 932.36l20.66 0l0 12.99l-20.66 0Z" id="p153w66" />
<path d="M600.04 932.36l41.13 0l0 12.99l-41.13 0Z" id="p153w67" />
<path d="M316.25 655.18l118.01 0l0 17.58l-118.01 0Z" id="p153w68" />
<path d="M560.66 188.8l44.94 0l0 25.76l-44.94 0Z" id="p153w69" />
<path d="M170.86 351.12l17.93 0l0 9.74l-17.93 0Z" id="p153w70" />
<path d="M191.22 351.12l16.95 0l0 9.74l-16.95 0Z" id="p153w71" />
<path d="M210.6 351.12l10.5 0l0 9.74l-10.5 0Z" id="p153w72" />
<path d="M223.53 351.12l32.1 0l0 9.74l-32.1 0Z" id="p153w73" />
<path d="M170.86 361.15l21.87 0l0 9.6l-21.87 0Z" id="p153w74" />
<path d="M195.08 361.15l9.03 0l0 9.6l-9.03 0Z" id="p153w75" />
<path d="M206.45 361.15l35.52 0l0 9.6l-35.52 0Z" id="p153w76" />
<path d="M244.32 361.15l8.89 0l0 9.6l-8.89 0Z" id="p153w77" />
<path d="M255.56 361.15l19.79 0l0 9.6l-19.79 0Z" id="p153w78" />
<path d="M170.86 371.07l14.8 0l0 9.6l-14.8 0Z" id="p153w79" />
<path d="M188 371.07l22.01 0l0 9.6l-22.01 0Z" id="p153w80" />
<path d="M212.36 371.07l10.06 0l0 9.6l-10.06 0Z" id="p153w81" />
<path d="M224.76 371.07l17.58 0l0 9.6l-17.58 0Z" id="p153w82" />
<path d="M244.69 371.07l26.88 0l0 9.6l-26.88 0Z" id="p153w83" />
<path d="M170.86 381l17.27 0l0 9.6l-17.27 0Z" id="p153w84" />
<path d="M190.48 381l6.21 0l0 9.6l-6.21 0Z" id="p153w85" />
<path d="M199.03 381l16.13 0l0 9.6l-16.13 0Z" id="p153w86" />
<path d="M217.5 381l20.06 0l0 9.6l-20.06 0Z" id="p153w87" />
<path d="M159.25 482.32l18.29 0l0 9.74l-18.29 0Z" id="p153w88" />
<path d="M179.97 482.32l9.38 0l0 9.74l-9.38 0Z" id="p153w89" />
<path d="M191.78 482.32l41.53 0l0 9.74l-41.53 0Z" id="p153w90" />
<path d="M236.99 482.43l7.51 0l0 9.6l-7.51 0Z" id="p153w91" />
<path d="M246.85 482.43l28.31 0l0 9.6l-28.31 0Z" id="p153w92" />
<path d="M159.25 492.35l37.91 0l0 9.6l-37.91 0Z" id="p153w93" />
<path d="M199.51 492.35l29.89 0l0 9.6l-29.89 0Z" id="p153w94" />
<path d="M231.74 492.35l7.37 0l0 9.6l-7.37 0Z" id="p153w95" />
<path d="M241.46 492.35l20.76 0l0 9.6l-20.76 0Z" id="p153w96" />
<path d="M159.25 502.28l10.06 0l0 9.6l-10.06 0Z" id="p153w97" />
<path d="M171.65 502.28l20.66 0l0 9.6l-20.66 0Z" id="p153w98" />
<path d="M194.65 502.28l33.41 0l0 9.6l-33.41 0Z" id="p153w99" />
<path d="M230.41 502.28l8.89 0l0 9.6l-8.89 0Z" id="p153w100" />
<path d="M241.65 502.28l19.37 0l0 9.6l-19.37 0Z" id="p153w101" />
<path d="M318.44 272.28l13.09 0l0 11.41l-13.09 0Z" id="p153w102" />
<path d="M334.03 271.6l43.37 0l0 10.08l-43.37 0Z" id="p153w103" />
<path d="M379.91 269.59l22.41 0l0 11l-22.41 0Z" id="p153w104" />
<path d="M300.07 283.84l14.1 0l0 11.36l-14.1 0Z" id="p153w105" />
<path d="M316.67 283.12l32.55 0l0 10.56l-32.55 0Z" id="p153w106" />
<path d="M351.73 281.59l11.7 0l0 11.47l-11.7 0Z" id="p153w107" />
<path d="M365.94 280.96l37.88 0l0 10.32l-37.88 0Z" id="p153w108" />
<path d="M314.67 295.88l13.63 0l0 9.01l-13.63 0Z" id="p153w109" />
<path d="M329.36 295.24l22.5 0l0 8.62l-22.5 0Z" id="p153w110" />
<path d="M352.91 294.21l21.34 0l0 8.67l-21.34 0Z" id="p153w111" />
<path d="M375.31 293.24l8.36 0l0 9.24l-8.36 0Z" id="p153w112" />
<path d="M384.72 292.83l28.3 0l0 8.37l-28.3 0Z" id="p153w113" />
<path d="M315.1 305.8l20.33 0l0 8.72l-20.33 0Z" id="p153w114" />
<path d="M336.49 304.87l8.11 0l0 9.25l-8.11 0Z" id="p153w115" />
<path d="M345.66 304.47l15.41 0l0 8.93l-15.41 0Z" id="p153w116" />
<path d="M362.12 303.75l9.88 0l0 9.17l-9.88 0Z" id="p153w117" />
<path d="M373.05 303.27l5.69 0l0 9.36l-5.69 0Z" id="p153w118" />
<path d="M377.42 303.08l26.75 0l0 8.44l-26.75 0Z" id="p153w119" />
<path d="M326.01 317.26l14.8 0l0 8.96l-14.8 0Z" id="p153w120" />
<path d="M341.87 316.56l15.94 0l0 8.91l-15.94 0Z" id="p153w121" />
<path d="M358.86 315.82l15.83 0l0 8.91l-15.83 0Z" id="p153w122" />
<path d="M375.74 315.09l9.74 0l0 9.18l-9.74 0Z" id="p153w123" />
<path d="M386.53 314.61l4.58 0l0 9.4l-4.58 0Z" id="p153w124" />
<path d="M389.83 314.47l37.85 0l0 7.95l-37.85 0Z" id="p153w125" />
<path d="M316.06 327.63l8.36 0l0 9.24l-8.36 0Z" id="p153w126" />
<path d="M325.47 327.22l13.44 0l0 9.02l-13.44 0Z" id="p153w127" />
<path d="M339.97 326.58l45 0l0 7.64l-45 0Z" id="p153w128" />
<path d="M386.02 324.57l12.45 0l0 9.06l-12.45 0Z" id="p153w129" />
<path d="M399.53 323.98l31.48 0l0 8.23l-31.48 0Z" id="p153w130" />
<path d="M316.58 339.54l23 0l0 8.6l-23 0Z" id="p153w131" />
<path d="M340.63 338.49l17.99 0l0 8.82l-17.99 0Z" id="p153w132" />
<path d="M359.67 337.66l25.12 0l0 8.51l-25.12 0Z" id="p153w133" />
<path d="M385.85 336.51l8.36 0l0 9.24l-8.36 0Z" id="p153w134" />
<path d="M395.26 336.1l21.78 0l0 8.65l-21.78 0Z" id="p153w135" />
<path d="M418.09 335.1l14.25 0l0 8.98l-14.25 0Z" id="p153w136" />
<path d="M317.01 349.45l9.74 0l0 9.18l-9.74 0Z" id="p153w137" />
<path d="M327.8 348.98l37.48 0l0 7.97l-37.48 0Z" id="p153w138" />
<path d="M322.72 370.32l26.42 0l0 10.82l-26.42 0Z" id="p153w139" />
<path d="M351.43 369.07l15.93 0l0 11.28l-15.93 0Z" id="p153w140" />
<path d="M369.66 368.27l39.44 0l0 10.26l-39.44 0Z" id="p153w141" />
<path d="M411.39 366.45l11.6 0l0 11.47l-11.6 0Z" id="p153w142" />
<path d="M425.27 365.85l12.59 0l0 11.43l-12.59 0Z" id="p153w143" />
<path d="M318.48 383.19l14.19 0l0 8.98l-14.19 0Z" id="p153w144" />
<path d="M339.97 382.25l26.88 0l0 8.43l-26.88 0Z" id="p153w145" />
<path d="M322.74 393.76l27.68 0l0 8.4l-27.68 0Z" id="p153w146" />
<path d="M351.47 392.51l9.74 0l0 9.18l-9.74 0Z" id="p153w147" />
<path d="M362.27 392.04l24.63 0l0 8.53l-24.63 0Z" id="p153w148" />
<path d="M319.47 405.84l18.57 0l0 8.79l-18.57 0Z" id="p153w149" />
<path d="M339.09 404.98l9.87 0l0 9.17l-9.87 0Z" id="p153w150" />
<path d="M350.03 404.51l20.55 0l0 8.71l-20.55 0Z" id="p153w151" />
<path d="M371.64 403.56l27.97 0l0 8.38l-27.97 0Z" id="p153w152" />
<path d="M400.66 402.3l7.23 0l0 9.29l-7.23 0Z" id="p153w153" />
<path d="M406.56 402.04l27.81 0l0 8.39l-27.81 0Z" id="p153w154" />
<path d="M325.18 426.71l17.18 0l0 11.23l-17.18 0Z" id="p153w155" />
<path d="M344.87 425.85l10.88 0l0 11.5l-10.88 0Z" id="p153w156" />
<path d="M358.25 425.27l44.46 0l0 10.04l-44.46 0Z" id="p153w157" />
<path d="M306.81 438.28l14.71 0l0 11.34l-14.71 0Z" id="p153w158" />
<path d="M323.81 437.53l34.24 0l0 10.48l-34.24 0Z" id="p153w159" />
<path d="M360.34 435.94l18.14 0l0 11.19l-18.14 0Z" id="p153w160" />
<path d="M380.77 435.05l56.81 0l0 9.5l-56.81 0Z" id="p153w161" />
<path d="M321.41 450.32l9.33 0l0 9.2l-9.33 0Z" id="p153w162" />
<path d="M331.8 449.87l9.74 0l0 9.18l-9.74 0Z" id="p153w163" />
<path d="M342.59 449.4l28.32 0l0 8.37l-28.32 0Z" id="p153w164" />
<path d="M371.96 448.11l17.58 0l0 8.84l-17.58 0Z" id="p153w165" />
<path d="M390.6 447.3l16.48 0l0 8.88l-16.48 0Z" id="p153w166" />
<path d="M321.88 461.06l12.45 0l0 9.06l-12.45 0Z" id="p153w167" />
<path d="M335.39 460.47l31.48 0l0 8.23l-31.48 0Z" id="p153w168" />
<path d="M322.4 472.97l9.33 0l0 9.2l-9.33 0Z" id="p153w169" />
<path d="M332.79 472.52l51.74 0l0 7.35l-51.74 0Z" id="p153w170" />
<path d="M385.58 470.21l24.62 0l0 8.53l-24.62 0Z" id="p153w171" />
<path d="M411.26 469.09l13.64 0l0 9.01l-13.64 0Z" id="p153w172" />
<path d="M425.96 468.45l17.58 0l0 8.84l-17.58 0Z" id="p153w173" />
<path d="M322.84 482.89l15.63 0l0 8.92l-15.63 0Z" id="p153w174" />
<path d="M339.53 482.16l21.3 0l0 8.67l-21.3 0Z" id="p153w175" />
<path d="M361.88 481.18l14.25 0l0 8.98l-14.25 0Z" id="p153w176" />
<path d="M377.19 480.52l9.17 0l0 9.2l-9.17 0Z" id="p153w177" />
<path d="M387.41 480.07l14.1 0l0 8.99l-14.1 0Z" id="p153w178" />
<path d="M402.57 479.41l26.18 0l0 8.46l-26.18 0Z" id="p153w179" />
<path d="M323.36 494.8l9.33 0l0 9.2l-9.33 0Z" id="p153w180" />
<path d="M333.74 494.35l7.09 0l0 9.29l-7.09 0Z" id="p153w181" />
<path d="M341.89 493.99l13.35 0l0 9.02l-13.35 0Z" id="p153w182" />
<path d="M356.3 493.36l27.75 0l0 8.39l-27.75 0Z" id="p153w183" />
<path d="M385.11 492.1l8.36 0l0 9.24l-8.36 0Z" id="p153w184" />
<path d="M394.52 491.69l20.19 0l0 8.72l-20.19 0Z" id="p153w185" />
<path d="M323.79 504.71l9.74 0l0 9.18l-9.74 0Z" id="p153w186" />
<path d="M334.58 504.24l29.09 0l0 8.33l-29.09 0Z" id="p153w187" />
<path d="M364.73 502.93l15.83 0l0 8.91l-15.83 0Z" id="p153w188" />
<path d="M381.61 502.19l12.76 0l0 9.05l-12.76 0Z" id="p153w189" />
<path d="M395.43 501.59l25.15 0l0 8.51l-25.15 0Z" id="p153w190" />
<path d="M329.5 525.59l45.7 0l0 9.98l-45.7 0Z" id="p153w191" />
<path d="M377.7 523.48l10.44 0l0 11.52l-10.44 0Z" id="p153w192" />
<path d="M390.65 522.92l32.55 0l0 10.56l-32.55 0Z" id="p153w193" />
<path d="M311.13 537.15l16.59 0l0 11.25l-16.59 0Z" id="p153w194" />
<path d="M330.23 536.32l41.85 0l0 10.15l-41.85 0Z" id="p153w195" />
<path d="M374.59 534.38l10.88 0l0 11.5l-10.88 0Z" id="p153w196" />
<path d="M387.97 533.79l61.65 0l0 9.29l-61.65 0Z" id="p153w197" />
<path d="M311.6 547.89l31.73 0l0 10.59l-31.73 0Z" id="p153w198" />
<path d="M345.84 546.39l38.05 0l0 10.32l-38.05 0Z" id="p153w199" />
<path d="M386.4 544.62l26.38 0l0 10.83l-26.38 0Z" id="p153w200" />
<path d="M415.28 543.36l17.34 0l0 11.22l-17.34 0Z" id="p153w201" />
<path d="M312.07 558.63l13.01 0l0 11.41l-13.01 0Z" id="p153w202" />
<path d="M327.59 557.95l23.58 0l0 10.95l-23.58 0Z" id="p153w203" />
<path d="M353.68 556.81l22.37 0l0 11l-22.37 0Z" id="p153w204" />
<path d="M326.67 570.67l15.52 0l0 8.93l-15.52 0Z" id="p153w205" />
<path d="M343.25 569.95l28.47 0l0 8.36l-28.47 0Z" id="p153w206" />
<path d="M373.45 568.63l9.7 0l0 9.18l-9.7 0Z" id="p153w207" />
<path d="M384.21 568.16l21.69 0l0 8.66l-21.69 0Z" id="p153w208" />
<path d="M407.64 567.14l22.97 0l0 8.6l-22.97 0Z" id="p153w209" />
<path d="M327.1 580.59l10.17 0l0 9.16l-10.17 0Z" id="p153w210" />
<path d="M338.33 580.1l17.88 0l0 8.82l-17.88 0Z" id="p153w211" />
<path d="M357.26 579.27l18.18 0l0 8.81l-18.18 0Z" id="p153w212" />
<path d="M376.5 578.43l32.96 0l0 8.17l-32.96 0Z" id="p153w213" />
<path d="M410.51 576.95l31.58 0l0 8.23l-31.58 0Z" id="p153w214" />
<path d="M327.53 590.51l26.09 0l0 8.47l-26.09 0Z" id="p153w215" />
<path d="M354.68 589.32l8.22 0l0 9.25l-8.22 0Z" id="p153w216" />
<path d="M363.95 588.92l21.16 0l0 8.68l-21.16 0Z" id="p153w217" />
<path d="M386.17 587.95l13.54 0l0 9.01l-13.54 0Z" id="p153w218" />
<path d="M400.77 587.31l37.48 0l0 7.97l-37.48 0Z" id="p153w219" />
<path d="M328.05 602.41l15.52 0l0 8.93l-15.52 0Z" id="p153w220" />
<path d="M344.63 601.69l28.47 0l0 8.36l-28.47 0Z" id="p153w221" />
<path d="M374.15 600.4l9.74 0l0 9.18l-9.74 0Z" id="p153w222" />
<path d="M384.95 599.93l31.02 0l0 8.25l-31.02 0Z" id="p153w223" />
<path d="M328.57 614.33l15.52 0l0 8.93l-15.52 0Z" id="p153w224" />
<path d="M345.15 613.6l28.47 0l0 8.36l-28.47 0Z" id="p153w225" />
<path d="M375.36 612.28l9.7 0l0 9.18l-9.7 0Z" id="p153w226" />
<path d="M386.12 611.81l21.69 0l0 8.66l-21.69 0Z" id="p153w227" />
<path d="M408.86 610.82l8.22 0l0 9.25l-8.22 0Z" id="p153w228" />
<path d="M418.14 610.42l9.74 0l0 9.18l-9.74 0Z" id="p153w229" />
<path d="M428.93 609.95l13.53 0l0 9.01l-13.53 0Z" id="p153w230" />
<path d="M329.04 625.07l33.55 0l0 8.14l-33.55 0Z" id="p153w231" />
<path d="M363.65 623.56l17.86 0l0 8.82l-17.86 0Z" id="p153w232" />
<path d="M382.56 622.73l11.74 0l0 9.09l-11.74 0Z" id="p153w233" />
<path d="M395.36 622.17l38.55 0l0 7.92l-38.55 0Z" id="p153w234" />
<path d="M484.65 465.43l14.83 0l0 11.33l-14.83 0Z" id="p153w235" />
<path d="M501.55 464.69l20.46 0l0 11.08l-20.46 0Z" id="p153w236" />
<path d="M524.09 463.71l11.49 0l0 11.48l-11.49 0Z" id="p153w237" />
<path d="M537.65 463.11l45.87 0l0 9.97l-45.87 0Z" id="p153w238" />
<path d="M585.6 461.02l30.05 0l0 10.67l-30.05 0Z" id="p153w239" />
<path d="M466.28 476.99l23.26 0l0 10.96l-23.26 0Z" id="p153w240" />
<path d="M492.04 475.87l14.1 0l0 11.36l-14.1 0Z" id="p153w241" />
<path d="M508.65 475.14l14.56 0l0 11.34l-14.56 0Z" id="p153w242" />
<path d="M525.72 474.4l30.96 0l0 10.63l-30.96 0Z" id="p153w243" />
<path d="M559.18 472.94l18.12 0l0 11.19l-18.12 0Z" id="p153w244" />
<path d="M579.81 472.04l29.77 0l0 10.68l-29.77 0Z" id="p153w245" />
<path d="M480.88 489.04l19.99 0l0 8.73l-19.99 0Z" id="p153w246" />
<path d="M501.92 488.12l17.42 0l0 8.84l-17.42 0Z" id="p153w247" />
<path d="M520.4 487.31l15.37 0l0 8.93l-15.37 0Z" id="p153w248" />
<path d="M536.83 486.59l49.01 0l0 7.46l-49.01 0Z" id="p153w249" />
<path d="M481.4 500.95l17.32 0l0 8.85l-17.32 0Z" id="p153w250" />
<path d="M499.77 500.14l31.86 0l0 8.21l-31.86 0Z" id="p153w251" />
<path d="M481.92 512.86l19.99 0l0 8.73l-19.99 0Z" id="p153w252" />
<path d="M502.96 511.94l18.35 0l0 8.8l-18.35 0Z" id="p153w253" />
<path d="M522.37 511.09l22.38 0l0 8.63l-22.38 0Z" id="p153w254" />
<path d="M545.8 510.07l4.58 0l0 9.4l-4.58 0Z" id="p153w255" />
<path d="M549.06 509.93l10.25 0l0 9.16l-10.25 0Z" id="p153w256" />
<path d="M560.36 509.43l33.91 0l0 8.12l-33.91 0Z" id="p153w257" />
<path d="M487.63 533.73l11.7 0l0 11.47l-11.7 0Z" id="p153w258" />
<path d="M501.84 533.11l14.23 0l0 11.36l-14.23 0Z" id="p153w259" />
<path d="M518.57 532.38l10.88 0l0 11.5l-10.88 0Z" id="p153w260" />
<path d="M531.96 531.8l39.2 0l0 10.27l-39.2 0Z" id="p153w261" />
<path d="M573.66 529.97l37.46 0l0 10.34l-37.46 0Z" id="p153w262" />
<path d="M483.39 546.6l9.82 0l0 9.18l-9.82 0Z" id="p153w263" />
<path d="M494.27 546.12l20.81 0l0 8.7l-20.81 0Z" id="p153w264" />
<path d="M516.14 545.17l21.19 0l0 8.68l-21.19 0Z" id="p153w265" />
<path d="M538.38 544.2l34.22 0l0 8.11l-34.22 0Z" id="p153w266" />
<path d="M483.91 558.51l4.86 0l0 9.39l-4.86 0Z" id="p153w267" />
<path d="M496.13 557.97l21.85 0l0 8.65l-21.85 0Z" id="p153w268" />
<path d="M519.04 556.97l33.3 0l0 8.15l-33.3 0Z" id="p153w269" />
<path d="M553.39 555.47l24.62 0l0 8.53l-24.62 0Z" id="p153w270" />
<path d="M484.34 568.42l11.93 0l0 9.08l-11.93 0Z" id="p153w271" />
<path d="M508.78 567.36l9.74 0l0 9.18l-9.74 0Z" id="p153w272" />
<path d="M528.91 566.48l8.22 0l0 9.25l-8.22 0Z" id="p153w273" />
<path d="M538.18 566.07l9.74 0l0 9.18l-9.74 0Z" id="p153w274" />
<path d="M484.86 580.33l9.82 0l0 9.18l-9.82 0Z" id="p153w275" />
<path d="M495.74 579.86l20.81 0l0 8.7l-20.81 0Z" id="p153w276" />
<path d="M517.61 578.9l21.19 0l0 8.68l-21.19 0Z" id="p153w277" />
<path d="M539.86 577.93l15.63 0l0 8.92l-15.63 0Z" id="p153w278" />
<path d="M556.55 577.2l18.02 0l0 8.82l-18.02 0Z" id="p153w279" />
<path d="M490.58 601.21l26.38 0l0 10.83l-26.38 0Z" id="p153w280" />
<path d="M519.46 599.95l14.56 0l0 11.34l-14.56 0Z" id="p153w281" />
<path d="M536.52 599.2l10.44 0l0 11.52l-10.44 0Z" id="p153w282" />
<path d="M549.47 598.64l32.55 0l0 10.56l-32.55 0Z" id="p153w283" />
<path d="M584.52 597.11l25.19 0l0 10.88l-25.19 0Z" id="p153w284" />
<path d="M486.34 614.07l15.41 0l0 8.93l-15.41 0Z" id="p153w285" />
<path d="M502.8 613.35l27.07 0l0 8.42l-27.07 0Z" id="p153w286" />
<path d="M486.86 625.98l15.41 0l0 8.93l-15.41 0Z" id="p153w287" />
<path d="M503.32 625.27l45.26 0l0 7.63l-45.26 0Z" id="p153w288" />
<path d="M487.38 637.9l15.41 0l0 8.93l-15.41 0Z" id="p153w289" />
<path d="M503.84 637.18l31.63 0l0 8.22l-31.63 0Z" id="p153w290" />
<path d="M548.89 814.92l19.63 0l0 7l-19.63 0Z" id="p153w291" />
<path d="M574.47 813.13l23.18 0l0 6.75l-23.18 0Z" id="p153w292" />
<path d="M599.17 811.41l28.6 0l0 6.37l-28.6 0Z" id="p153w293" />
<path d="M295.96 215.43l112.01 0l0 24.59l-112.01 0Z" id="p153w294" />
<path d="M412.82 210.33l121.98 0l0 24.16l-121.98 0Z" id="p153w295" />
<path d="M297.01 239.38l121.24 0l0 24.19l-121.24 0Z" id="p153w296" />
<path d="M560.66 188.8l25.69 0l0 25.76l-25.69 0Z" id="p153w297" />
<path d="M322.72 370.32l26.42 0l0 10.82l-26.42 0Z" id="p153w298" />
<path d="M351.43 369.07l15.93 0l0 11.28l-15.93 0Z" id="p153w299" />
<path d="M369.66 368.27l39.44 0l0 10.26l-39.44 0Z" id="p153w300" />
<path d="M411.39 366.45l11.6 0l0 11.47l-11.6 0Z" id="p153w301" />
<path d="M425.27 365.85l12.59 0l0 11.43l-12.59 0Z" id="p153w302" />
<path d="M306.81 438.28l14.71 0l0 11.34l-14.71 0Z" id="p153w303" />
<path d="M323.81 437.53l34.24 0l0 10.48l-34.24 0Z" id="p153w304" />
<path d="M360.34 435.94l18.14 0l0 11.19l-18.14 0Z" id="p153w305" />
<path d="M380.77 435.05l56.81 0l0 9.5l-56.81 0Z" id="p153w306" />
<path d="M295.96 215.43l112.01 0l0 24.59l-112.01 0Z" id="p153w307" />
<path d="M412.82 210.33l121.98 0l0 24.16l-121.98 0Z" id="p153w308" />
<path d="M297.01 239.39l121.24 0l0 24.19l-121.24 0Z" id="p153w309" />
<path d="M295.96 215.43l112.01 0l0 24.59l-112.01 0Z" id="p153w310" />
<path d="M412.82 210.33l121.98 0l0 24.16l-121.98 0Z" id="p153w311" />
<path d="M297.01 239.39l121.24 0l0 24.19l-121.24 0Z" id="p153w312" />
<path d="M295.96 215.43l112.01 0l0 24.59l-112.01 0Z" id="p153w313" />
<path d="M412.82 210.33l121.98 0l0 24.16l-121.98 0Z" id="p153w314" />
<path d="M147.31 279.1l19.86 0l0 6.88l-19.86 0Z" id="p153w315" />
<path d="M167.48 276.27l27.07 0l0 5.87l-27.07 0Z" id="p153w316" />
<path d="M198.65 271.87l28.04 0l0 5.75l-28.04 0Z" id="p153w317" />
<path d="M226.82 267.91l16.89 0l0 7.32l-16.89 0Z" id="p153w318" />
<path d="M148.69 288.91l11.72 0l0 8.04l-11.72 0Z" id="p153w319" />
<path d="M160.54 287.25l23.22 0l0 6.43l-23.22 0Z" id="p153w320" />
<path d="M183.89 283.97l20.85 0l0 6.76l-20.85 0Z" id="p153w321" />
<path d="M204.86 281.02l19.18 0l0 6.99l-19.18 0Z" id="p153w322" />
<path d="M224.17 278.31l40.62 0l0 3.98l-40.62 0Z" id="p153w323" />
<path d="M150.07 298.74l10.57 0l0 8.2l-10.57 0Z" id="p153w324" />
<path d="M160.77 297.24l21.51 0l0 6.67l-21.51 0Z" id="p153w325" />
<path d="M182.41 294.2l10.57 0l0 8.2l-10.57 0Z" id="p153w326" />
<path d="M193.1 292.69l32.13 0l0 5.17l-32.13 0Z" id="p153w327" />
<path d="M225.36 288.16l40.34 0l0 4.02l-40.34 0Z" id="p153w328" />
<path d="M151.46 308.57l18.34 0l0 7.11l-18.34 0Z" id="p153w329" />
<path d="M169.93 305.97l22.54 0l0 6.52l-22.54 0Z" id="p153w330" />
<path d="M192.59 302.79l11.72 0l0 8.04l-11.72 0Z" id="p153w331" />
<path d="M204.44 301.12l25.64 0l0 6.09l-25.64 0Z" id="p153w332" />
<path d="M628.29 801.15l-11.12 0l0 -9.92l11.12 0Z" id="p153w333" />
<path d="M607.42 802.61l-10.86 0l0 -9.94l10.86 0Z" id="p153w334" />
<path d="M574.48 805.45l-8.13 0l0 -11.48l8.13 0Z" id="p153w335" />
<path d="M565.54 806.07l-9.35 0l0 -11.39l9.35 0Z" id="p153w336" />
<path d="M555.39 806.78l-19.05 0l0 -10.71l19.05 0Z" id="p153w337" />
<path d="M627.64 791.78l-31.29 0l0 -9.86l31.29 0Z" id="p153w338" />
<path d="M595.55 794.03l-38.76 0l0 -9.34l38.76 0Z" id="p153w339" />
<path d="M626.76 779.32l-10.06 0l0 -8.92l10.06 0Z" id="p153w340" />
<path d="M615.9 780.08l-22.58 0l0 -8.04l22.58 0Z" id="p153w341" />
<path d="M592.51 781.71l-8.6 0l0 -9.02l8.6 0Z" id="p153w342" />
<path d="M576.83 782.81l-13.34 0l0 -8.69l13.34 0Z" id="p153w343" />
<path d="M562.68 783.8l-21.15 0l0 -8.14l21.15 0Z" id="p153w344" />
<path d="M626.07 769.42l-14.48 0l0 -8.61l14.48 0Z" id="p153w345" />
<path d="M610.79 770.49l-8.6 0l0 -9.02l8.6 0Z" id="p153w346" />
<path d="M595.1 771.58l-9.27 0l0 -8.97l9.27 0Z" id="p153w347" />
<path d="M585.03 772.29l-33.31 0l0 -7.29l33.31 0Z" id="p153w348" />
<path d="M625.38 759.52l-9.57 0l0 -8.95l9.57 0Z" id="p153w349" />
<path d="M615.01 760.24l-9.97 0l0 -8.92l9.97 0Z" id="p153w350" />
<path d="M604.23 760.99l-15.03 0l0 -8.57l15.03 0Z" id="p153w351" />
<path d="M588.4 762.1l-13.76 0l0 -8.66l13.76 0Z" id="p153w352" />
<path d="M573.84 763.12l-16.34 0l0 -8.48l16.34 0Z" id="p153w353" />
<path d="M556.7 764.32l-24.97 0l0 -7.87l24.97 0Z" id="p153w354" />
<path d="M624.69 749.61l-8.51 0l0 -9.02l8.51 0Z" id="p153w355" />
<path d="M615.55 750.25l-17.99 0l0 -8.36l17.99 0Z" id="p153w356" />
<path d="M596.93 751.56l-18.15 0l0 -8.35l18.15 0Z" id="p153w357" />
<path d="M578.15 752.87l-17.95 0l0 -8.36l17.95 0Z" id="p153w358" />
<path d="M559.57 754.17l-9.44 0l0 -8.96l9.44 0Z" id="p153w359" />
<path d="M623.99 739.71l-9.89 0l0 -8.93l9.89 0Z" id="p153w360" />
<path d="M613.48 740.45l-16.23 0l0 -8.48l16.23 0Z" id="p153w361" />
<path d="M596.53 741.63l-13.76 0l0 -8.66l13.76 0Z" id="p153w362" />
<path d="M581.97 742.65l-11.29 0l0 -8.83l11.29 0Z" id="p153w363" />
<path d="M569.88 743.5l-10.54 0l0 -8.88l10.54 0Z" id="p153w364" />
<path d="M558.54 744.29l-7.25 0l0 -9.11l7.25 0Z" id="p153w365" />
<path d="M552.82 744.69l-12.24 0l0 -8.76l12.24 0Z" id="p153w366" />
<path d="M623.3 729.81l-13.76 0l0 -8.66l13.76 0Z" id="p153w367" />
<path d="M608.74 730.83l-14.48 0l0 -8.61l14.48 0Z" id="p153w368" />
<path d="M593.46 731.9l-22.99 0l0 -8.01l22.99 0Z" id="p153w369" />
<path d="M569.67 733.56l-17.8 0l0 -8.37l17.8 0Z" id="p153w370" />
<path d="M551.06 734.86l-15.86 0l0 -8.51l15.86 0Z" id="p153w371" />
<path d="M622.61 719.91l-46.82 0l0 -6.35l46.82 0Z" id="p153w372" />
<path d="M574.98 723.24l-26.38 0l0 -7.77l26.38 0Z" id="p153w373" />
<path d="M547.8 725.14l-9.97 0l0 -8.92l9.97 0Z" id="p153w374" />
<path d="M621.92 710.01l-8.35 0l0 -9.03l8.35 0Z" id="p153w375" />
<path d="M612.76 710.65l-30.68 0l0 -7.47l30.68 0Z" id="p153w376" />
<path d="M581.28 712.85l-40.51 0l0 -6.79l40.51 0Z" id="p153w377" />
<path d="M621.23 700.11l-8.46 0l0 -9.03l8.46 0Z" id="p153w378" />
<path d="M611.97 700.76l-40.72 0l0 -6.77l40.72 0Z" id="p153w379" />
<path d="M570.44 703.66l-8.46 0l0 -9.03l8.46 0Z" id="p153w380" />
<path d="M561.18 704.31l-8.6 0l0 -9.02l8.6 0Z" id="p153w381" />
<path d="M620.53 690.21l-41.89 0l0 -6.69l41.89 0Z" id="p153w382" />
<path d="M577.88 693.19l-18.2 0l0 -8.35l18.2 0Z" id="p153w383" />
<path d="M558.92 694.52l-9.97 0l0 -8.92l9.97 0Z" id="p153w384" />
<path d="M548.18 695.27l-26.08 0l0 -7.79l26.08 0Z" id="p153w385" />
<path d="M619.84 680.31l-49.59 0l0 -6.15l49.59 0Z" id="p153w386" />
<path d="M569.44 683.83l-8.46 0l0 -9.03l8.46 0Z" id="p153w387" />
<path d="M560.18 684.48l-22.22 0l0 -8.07l22.22 0Z" id="p153w388" />
<path d="M520.62 808.68l-11.12 0l0 -9.92l11.12 0Z" id="p153w389" />
<path d="M499.75 810.14l-10.86 0l0 -9.94l10.86 0Z" id="p153w390" />
<path d="M468.74 812.84l-8.13 0l0 -11.48l8.13 0Z" id="p153w391" />
<path d="M459.8 813.47l-9.35 0l0 -11.39l9.35 0Z" id="p153w392" />
<path d="M449.65 814.18l-19.05 0l0 -10.71l19.05 0Z" id="p153w393" />
<path d="M519.97 799.31l-31.29 0l0 -9.86l31.29 0Z" id="p153w394" />
<path d="M487.88 801.56l-44.47 0l0 -8.94l44.47 0Z" id="p153w395" />
<path d="M519.1 786.85l-10.54 0l0 -8.88l10.54 0Z" id="p153w396" />
<path d="M507.76 787.64l-22.58 0l0 -8.04l22.58 0Z" id="p153w397" />
<path d="M484.37 789.27l-8.6 0l0 -9.02l8.6 0Z" id="p153w398" />
<path d="M474.97 789.93l-18.25 0l0 -8.34l18.25 0Z" id="p153w399" />
<path d="M518.4 776.95l-7.33 0l0 -9.11l7.33 0Z" id="p153w400" />
<path d="M510.27 777.51l-17.03 0l0 -8.43l17.03 0Z" id="p153w401" />
<path d="M486.2 779.2l-17.13 0l0 -8.42l17.13 0Z" id="p153w402" />
<path d="M468.27 780.45l-17.8 0l0 -8.37l17.8 0Z" id="p153w403" />
<path d="M449.66 781.75l-24.32 0l0 -7.92l24.32 0Z" id="p153w404" />
<path d="M517.71 767.04l-14.48 0l0 -8.61l14.48 0Z" id="p153w405" />
<path d="M502.43 768.11l-23.49 0l0 -7.98l23.49 0Z" id="p153w406" />
<path d="M478.14 769.81l-42.07 0l0 -6.68l42.07 0Z" id="p153w407" />
<path d="M517.02 757.14l-18.91 0l0 -8.3l18.91 0Z" id="p153w408" />
<path d="M497.3 758.52l-16.34 0l0 -8.48l16.34 0Z" id="p153w409" />
<path d="M480.16 759.72l-22.23 0l0 -8.06l22.23 0Z" id="p153w410" />
<path d="M516.33 747.24l-46.14 0l0 -6.39l46.14 0Z" id="p153w411" />
<path d="M469.39 750.52l-13.06 0l0 -8.71l13.06 0Z" id="p153w412" />
<path d="M455.53 751.49l-9.41 0l0 -8.96l9.41 0Z" id="p153w413" />
<path d="M515.64 737.34l-14.48 0l0 -8.61l14.48 0Z" id="p153w414" />
<path d="M500.36 738.41l-8.6 0l0 -9.02l8.6 0Z" id="p153w415" />
<path d="M490.96 739.07l-46.73 0l0 -6.35l46.73 0Z" id="p153w416" />
<path d="M514.94 727.44l-18.21 0l0 -8.35l18.21 0Z" id="p153w417" />
<path d="M495.93 728.77l-34 0l0 -7.24l34 0Z" id="p153w418" />
<path d="M454.89 731.64l-9.97 0l0 -8.92l9.97 0Z" id="p153w419" />
<path d="M444.11 732.39l-13.76 0l0 -8.66l13.76 0Z" id="p153w420" />
<path d="M514.25 717.54l-33.9 0l0 -7.25l33.9 0Z" id="p153w421" />
<path d="M479.55 719.97l-13 0l0 -8.71l13 0Z" id="p153w422" />
<path d="M465.75 720.93l-16.57 0l0 -8.46l16.57 0Z" id="p153w423" />
<path d="M448.37 722.15l-5.1 0l0 -9.26l5.1 0Z" id="p153w424" />
<path d="M442.47 722.56l-6.68 0l0 -9.15l6.68 0Z" id="p153w425" />
<path d="M437.36 722.91l-14.86 0l0 -8.58l14.86 0Z" id="p153w426" />
<path d="M513.56 707.64l-16.3 0l0 -8.48l16.3 0Z" id="p153w427" />
<path d="M496.45 708.83l-21.03 0l0 -8.15l21.03 0Z" id="p153w428" />
<path d="M474.61 710.36l-7.47 0l0 -9.1l7.47 0Z" id="p153w429" />
<path d="M468.68 710.78l-45.45 0l0 -6.44l45.45 0Z" id="p153w430" />
<path d="M512.87 697.74l-13.76 0l0 -8.66l13.76 0Z" id="p153w431" />
<path d="M498.31 698.76l-20.67 0l0 -8.17l20.67 0Z" id="p153w432" />
<path d="M476.83 700.26l-28.4 0l0 -7.63l28.4 0Z" id="p153w433" />
<path d="M447.63 702.3l-9.97 0l0 -8.92l9.97 0Z" id="p153w434" />
<path d="M436.85 703.05l-15.13 0l0 -8.56l15.13 0Z" id="p153w435" />
<path d="M512.17 687.84l-21.17 0l0 -8.14l21.17 0Z" id="p153w436" />
<path d="M490.2 689.37l-13 0l0 -8.71l13 0Z" id="p153w437" />
<path d="M476.4 690.34l-38.72 0l0 -6.91l38.72 0Z" id="p153w438" />
<path d="M412.96 816.21l-11.12 0l0 -9.92l11.12 0Z" id="p153w439" />
<path d="M392.09 817.67l-10.86 0l0 -9.94l10.86 0Z" id="p153w440" />
<path d="M362.71 820.26l-8.13 0l0 -11.48l8.13 0Z" id="p153w441" />
<path d="M353.77 820.88l-9.35 0l0 -11.39l9.35 0Z" id="p153w442" />
<path d="M343.62 821.59l-19.05 0l0 -10.71l19.05 0Z" id="p153w443" />
<path d="M412.31 806.84l-31.29 0l0 -9.86l31.29 0Z" id="p153w444" />
<path d="M380.21 809.09l-21.22 0l0 -10.56l21.22 0Z" id="p153w445" />
<path d="M411.43 794.38l-10.06 0l0 -8.92l10.06 0Z" id="p153w446" />
<path d="M400.57 795.14l-26.01 0l0 -7.8l26.01 0Z" id="p153w447" />
<path d="M373.76 797.01l-10.11 0l0 -8.91l10.11 0Z" id="p153w448" />
<path d="M362.84 797.77l-23.32 0l0 -7.99l23.32 0Z" id="p153w449" />
<path d="M410.74 784.47l-55.56 0l0 -5.73l55.56 0Z" id="p153w450" />
<path d="M354.37 788.42l-8.21 0l0 -9.05l8.21 0Z" id="p153w451" />
<path d="M347.7 788.88l-12.24 0l0 -8.76l12.24 0Z" id="p153w452" />
<path d="M410.05 774.57l-26.52 0l0 -7.76l26.52 0Z" id="p153w453" />
<path d="M382.72 776.48l-22.23 0l0 -8.06l22.23 0Z" id="p153w454" />
<path d="M359.69 778.09l-42.21 0l0 -6.67l42.21 0Z" id="p153w455" />
<path d="M409.35 764.67l-8.46 0l0 -9.03l8.46 0Z" id="p153w456" />
<path d="M400.09 765.32l-38.94 0l0 -6.9l38.94 0Z" id="p153w457" />
<path d="M360.35 768.1l-23.45 0l0 -7.98l23.45 0Z" id="p153w458" />
<path d="M408.66 754.77l-10.11 0l0 -8.91l10.11 0Z" id="p153w459" />
<path d="M397.75 755.53l-9.97 0l0 -8.92l9.97 0Z" id="p153w460" />
<path d="M386.97 756.29l-27.81 0l0 -7.67l27.81 0Z" id="p153w461" />
<path d="M358.36 758.29l-13.76 0l0 -8.66l13.76 0Z" id="p153w462" />
<path d="M407.97 744.87l-11.13 0l0 -8.84l11.13 0Z" id="p153w463" />
<path d="M396.03 745.7l-40.13 0l0 -6.81l40.13 0Z" id="p153w464" />
<path d="M355.09 748.57l-7.47 0l0 -9.1l7.47 0Z" id="p153w465" />
<path d="M346.82 749.15l-7.33 0l0 -9.11l7.33 0Z" id="p153w466" />
<path d="M338.69 749.71l-15.46 0l0 -8.54l15.46 0Z" id="p153w467" />
<path d="M407.28 734.97l-18.21 0l0 -8.35l18.21 0Z" id="p153w468" />
<path d="M388.26 736.3l-28.42 0l0 -7.63l28.42 0Z" id="p153w469" />
<path d="M359.04 738.34l-13.76 0l0 -8.66l13.76 0Z" id="p153w470" />
<path d="M344.47 739.36l-14.48 0l0 -8.61l14.48 0Z" id="p153w471" />
<path d="M406.58 725.07l-13.21 0l0 -8.69l13.21 0Z" id="p153w472" />
<path d="M392.57 726.05l-33.52 0l0 -7.28l33.52 0Z" id="p153w473" />
<path d="M358.25 728.45l-18.88 0l0 -8.3l18.88 0Z" id="p153w474" />
<path d="M338.57 729.82l-29.36 0l0 -7.57l29.36 0Z" id="p153w475" />
<path d="M405.89 715.17l-16.03 0l0 -8.5l16.03 0Z" id="p153w476" />
<path d="M389.06 716.34l-40.63 0l0 -6.78l40.63 0Z" id="p153w477" />
<path d="M347.63 719.24l-17.8 0l0 -8.37l17.8 0Z" id="p153w478" />
<path d="M405.2 705.27l-39.68 0l0 -6.84l39.68 0Z" id="p153w479" />
<path d="M364.72 708.1l-8.46 0l0 -9.03l8.46 0Z" id="p153w480" />
<path d="M355.46 708.74l-17.8 0l0 -8.37l17.8 0Z" id="p153w481" />
<path d="M336.85 710.04l-9.97 0l0 -8.92l9.97 0Z" id="p153w482" />
<path d="M326.08 710.8l-13.76 0l0 -8.66l13.76 0Z" id="p153w483" />
<path d="M404.51 695.36l-18.96 0l0 -8.29l18.96 0Z" id="p153w484" />
<path d="M384.74 696.75l-9.97 0l0 -8.92l9.97 0Z" id="p153w485" />
<path d="M373.96 697.5l-27.1 0l0 -7.72l27.1 0Z" id="p153w486" />
<path d="M68.27 38.6l16.59 0l0 16.09l-16.59 0Z" id="p153w487" />
<path d="M88.23 38.6l28.66 0l0 16.09l-28.66 0Z" id="p153w488" />
<path d="M131.1 38.6l99.65 0l0 16.09l-99.65 0Z" id="p153w489" />
<path d="M593.17 983l97.94 0l0 12.23l-97.94 0Z" id="p153w490" />
</svg>
