<?xml version="1.0" encoding="UTF-8"?>
<svg xmlns="http://www.w3.org/2000/svg" xmlns:xlink="http://www.w3.org/1999/xlink" version="1.1" baseProfile="full" width="768" height="1024" viewBox="0,0,768,1024" preserveAspectRatio="xMinYMin meet" >
<style type="text/css">
<![CDATA[
path {fill-opacity: 0.5;fill: #00aeef;visibility: hidden;}
]]>
</style>
<path d="M572.94 38.6l71 0l0 16.09l-71 0Z" id="p189w1" />
<path d="M584.62 983.66l104.62 0l0 12.23l-104.62 0Z" id="p189w2" />
<path d="M59.08 110.01l119.63 0l0 14.6l-119.63 0Z" id="p189w3" />
<path d="M59.08 125.44l91.11 0l0 16.35l-91.11 0Z" id="p189w4" />
<path d="M232.37 110.09l65.75 0l0 14.52l-65.75 0Z" id="p189w5" />
<path d="M417.48 110.09l12.83 0l0 14.52l-12.83 0Z" id="p189w6" />
<path d="M433.51 110.09l36.63 0l0 14.52l-36.63 0Z" id="p189w7" />
<path d="M473.35 110.09l16.83 0l0 14.52l-16.83 0Z" id="p189w8" />
<path d="M493.39 110.09l56.12 0l0 14.52l-56.12 0Z" id="p189w9" />
<path d="M435.2 126.78l60.06 0l0 14.61l-60.06 0Z" id="p189w10" />
<path d="M59.08 144.83l90.18 0l0 14.6l-90.18 0Z" id="p189w11" />
<path d="M59.08 160.26l68.53 0l0 16.35l-68.53 0Z" id="p189w12" />
<path d="M232.37 144.91l32.88 0l0 14.52l-32.88 0Z" id="p189w13" />
<path d="M59.08 179.64l20.99 0l0 14.6l-20.99 0Z" id="p189w14" />
<path d="M83.27 179.64l31.8 0l0 14.6l-31.8 0Z" id="p189w15" />
<path d="M118.37 178.4l40.18 0l0 16.35l-40.18 0Z" id="p189w16" />
<path d="M232.37 179.72l23.79 0l0 14.52l-23.79 0Z" id="p189w17" />
<path d="M259.36 179.72l36.1 0l0 14.52l-36.1 0Z" id="p189w18" />
<path d="M417.48 179.72l12.83 0l0 14.52l-12.83 0Z" id="p189w19" />
<path d="M433.51 179.72l39.24 0l0 14.52l-39.24 0Z" id="p189w20" />
<path d="M475.96 179.72l16.83 0l0 14.52l-16.83 0Z" id="p189w21" />
<path d="M496 179.72l17.11 0l0 14.52l-17.11 0Z" id="p189w22" />
<path d="M516.31 179.72l32.07 0l0 14.52l-32.07 0Z" id="p189w23" />
<path d="M551.59 179.72l36.89 0l0 14.52l-36.89 0Z" id="p189w24" />
<path d="M591.69 179.72l23.53 0l0 14.52l-23.53 0Z" id="p189w25" />
<path d="M417.48 196.39l47.85 0l0 14.52l-47.85 0Z" id="p189w26" />
<path d="M435.2 213.08l31.8 0l0 14.61l-31.8 0Z" id="p189w27" />
<path d="M59.08 231.13l53.63 0l0 14.6l-53.63 0Z" id="p189w28" />
<path d="M116 229.89l44.47 0l0 16.35l-44.47 0Z" id="p189w29" />
<path d="M232.37 231.24l33.14 0l0 14.52l-33.14 0Z" id="p189w30" />
<path d="M268.72 231.21l30.73 0l0 14.52l-30.73 0Z" id="p189w31" />
<path d="M305.56 231.24l52.67 0l0 14.52l-52.67 0Z" id="p189w32" />
<path d="M417.48 231.21l12.83 0l0 14.52l-12.83 0Z" id="p189w33" />
<path d="M433.51 231.21l41.97 0l0 14.52l-41.97 0Z" id="p189w34" />
<path d="M478.7 231.21l23.24 0l0 14.52l-23.24 0Z" id="p189w35" />
<path d="M505.15 231.21l53.18 0l0 14.52l-53.18 0Z" id="p189w36" />
<path d="M561.53 231.21l71.88 0l0 14.52l-71.88 0Z" id="p189w37" />
<path d="M435.7 247.89l17.09 0l0 14.61l-17.09 0Z" id="p189w38" />
<path d="M68.97 265.95l10.03 0l0 14.6l-10.03 0Z" id="p189w39" />
<path d="M82.21 265.95l29.38 0l0 14.6l-29.38 0Z" id="p189w40" />
<path d="M114.8 265.95l13.87 0l0 14.6l-13.87 0Z" id="p189w41" />
<path d="M131.88 265.95l14.41 0l0 14.6l-14.41 0Z" id="p189w42" />
<path d="M149.59 264.71l59.53 0l0 16.35l-59.53 0Z" id="p189w43" />
<path d="M232.37 266.03l13.9 0l0 14.52l-13.9 0Z" id="p189w44" />
<path d="M249.47 266.03l18.45 0l0 14.52l-18.45 0Z" id="p189w45" />
<path d="M271.13 266.03l31.27 0l0 14.52l-31.27 0Z" id="p189w46" />
<path d="M417.47 266.03l12.41 0l0 14.52l-12.41 0Z" id="p189w47" />
<path d="M433.09 266.03l26.74 0l0 14.52l-26.74 0Z" id="p189w48" />
<path d="M463.04 266.03l42.77 0l0 14.52l-42.77 0Z" id="p189w49" />
<path d="M518.9 266.03l9.89 0l0 14.52l-9.89 0Z" id="p189w50" />
<path d="M531.99 266.03l29.67 0l0 14.52l-29.67 0Z" id="p189w51" />
<path d="M417.47 282.7l13.9 0l0 14.52l-13.9 0Z" id="p189w52" />
<path d="M434.58 282.7l40.9 0l0 14.52l-40.9 0Z" id="p189w53" />
<path d="M59.07 300.77l95.37 0l0 14.6l-95.37 0Z" id="p189w54" />
<path d="M59.07 316.2l75.54 0l0 16.35l-75.54 0Z" id="p189w55" />
<path d="M232.37 300.85l23.05 0l0 14.52l-23.05 0Z" id="p189w56" />
<path d="M258.62 300.85l78.03 0l0 14.52l-78.03 0Z" id="p189w57" />
<path d="M339.86 300.85l38.16 0l0 14.52l-38.16 0Z" id="p189w58" />
<path d="M232.37 317.52l28.34 0l0 14.52l-28.34 0Z" id="p189w59" />
<path d="M417.47 300.85l20.05 0l0 14.52l-20.05 0Z" id="p189w60" />
<path d="M450.62 300.85l36.63 0l0 14.52l-36.63 0Z" id="p189w61" />
<path d="M490.45 300.85l24.85 0l0 14.52l-24.85 0Z" id="p189w62" />
<path d="M518.51 300.85l44.38 0l0 14.52l-44.38 0Z" id="p189w63" />
<path d="M435.2 317.53l41.43 0l0 14.61l-41.43 0Z" id="p189w64" />
<path d="M59.08 335.63l26.49 0l0 14.6l-26.49 0Z" id="p189w65" />
<path d="M88.77 335.63l19.63 0l0 14.6l-19.63 0Z" id="p189w66" />
<path d="M111.61 335.63l44.89 0l0 14.6l-44.89 0Z" id="p189w67" />
<path d="M159.54 335.67l33.14 0l0 14.52l-33.14 0Z" id="p189w68" />
<path d="M59.08 351.06l62.18 0l0 16.35l-62.18 0Z" id="p189w69" />
<path d="M232.37 335.67l20.58 0l0 14.52l-20.58 0Z" id="p189w70" />
<path d="M256.15 335.67l13.36 0l0 14.52l-13.36 0Z" id="p189w71" />
<path d="M272.72 335.67l18.37 0l0 14.52l-18.37 0Z" id="p189w72" />
<path d="M294.3 335.67l28.07 0l0 14.52l-28.07 0Z" id="p189w73" />
<path d="M325.58 335.67l12.57 0l0 14.52l-12.57 0Z" id="p189w74" />
<path d="M341.36 335.67l43.85 0l0 14.52l-43.85 0Z" id="p189w75" />
<path d="M417.48 335.67l44.1 0l0 14.52l-44.1 0Z" id="p189w76" />
<path d="M464.78 335.67l13.9 0l0 14.52l-13.9 0Z" id="p189w77" />
<path d="M481.89 335.67l36.38 0l0 14.52l-36.38 0Z" id="p189w78" />
<path d="M521.47 335.67l24.85 0l0 14.52l-24.85 0Z" id="p189w79" />
<path d="M549.54 335.67l19.51 0l0 14.52l-19.51 0Z" id="p189w80" />
<path d="M572.25 335.67l41.7 0l0 14.52l-41.7 0Z" id="p189w81" />
<path d="M59.08 370.43l31.52 0l0 14.6l-31.52 0Z" id="p189w82" />
<path d="M93.8 370.43l13.9 0l0 14.6l-13.9 0Z" id="p189w83" />
<path d="M110.91 370.43l14.41 0l0 14.6l-14.41 0Z" id="p189w84" />
<path d="M128.62 369.19l50.38 0l0 16.35l-50.38 0Z" id="p189w85" />
<path d="M232.37 370.51l13.9 0l0 14.52l-13.9 0Z" id="p189w86" />
<path d="M249.48 370.51l20.06 0l0 14.52l-20.06 0Z" id="p189w87" />
<path d="M272.75 370.51l45.12 0l0 14.52l-45.12 0Z" id="p189w88" />
<path d="M417.48 370.51l23.24 0l0 14.52l-23.24 0Z" id="p189w89" />
<path d="M443.93 370.51l42.49 0l0 14.52l-42.49 0Z" id="p189w90" />
<path d="M489.62 370.51l38.77 0l0 14.52l-38.77 0Z" id="p189w91" />
<path d="M531.6 370.51l13.9 0l0 14.52l-13.9 0Z" id="p189w92" />
<path d="M548.7 370.51l23.8 0l0 14.52l-23.8 0Z" id="p189w93" />
<path d="M59.08 391.14l64.02 0l0 14.6l-64.02 0Z" id="p189w94" />
<path d="M126.3 391.14l32.19 0l0 14.6l-32.19 0Z" id="p189w95" />
<path d="M59.08 406.57l57.72 0l0 16.35l-57.72 0Z" id="p189w96" />
<path d="M64.98 433.46l64.02 0l0 14.6l-64.02 0Z" id="p189w97" />
<path d="M132.21 433.53l24.59 0l0 14.52l-24.59 0Z" id="p189w98" />
<path d="M160.01 433.53l19.77 0l0 14.52l-19.77 0Z" id="p189w99" />
<path d="M182.99 433.46l52.8 0l0 14.6l-52.8 0Z" id="p189w100" />
<path d="M238.99 433.53l59.56 0l0 14.52l-59.56 0Z" id="p189w101" />
<path d="M301.75 433.53l9.62 0l0 14.52l-9.62 0Z" id="p189w102" />
<path d="M314.58 433.53l56.68 0l0 14.52l-56.68 0Z" id="p189w103" />
<path d="M64.98 450.2l11.5 0l0 14.52l-11.5 0Z" id="p189w104" />
<path d="M79.69 450.2l56.68 0l0 14.52l-56.68 0Z" id="p189w105" />
<path d="M139.57 450.2l50.26 0l0 14.52l-50.26 0Z" id="p189w106" />
<path d="M193.04 450.2l45.18 0l0 14.52l-45.18 0Z" id="p189w107" />
<path d="M251.99 450.2l26.74 0l0 14.52l-26.74 0Z" id="p189w108" />
<path d="M281.94 450.2l82.07 0l0 14.52l-82.07 0Z" id="p189w109" />
<path d="M64.98 466.87l25.67 0l0 14.52l-25.67 0Z" id="p189w110" />
<path d="M93.86 466.87l74.85 0l0 14.52l-74.85 0Z" id="p189w111" />
<path d="M171.93 466.87l42.36 0l0 14.52l-42.36 0Z" id="p189w112" />
<path d="M217.49 466.87l80.95 0l0 14.52l-80.95 0Z" id="p189w113" />
<path d="M64.98 483.47l31.41 0l0 14.61l-31.41 0Z" id="p189w114" />
<path d="M99.61 483.47l48.4 0l0 14.61l-48.4 0Z" id="p189w115" />
<path d="M158.08 483.54l14.8 0l0 14.52l-14.8 0Z" id="p189w116" />
<path d="M176.08 483.54l45.46 0l0 14.52l-45.46 0Z" id="p189w117" />
<path d="M232.37 391.22l48.1 0l0 14.52l-48.1 0Z" id="p189w118" />
<path d="M283.67 391.22l90.6 0l0 14.52l-90.6 0Z" id="p189w119" />
<path d="M417.47 391.22l10.43 0l0 14.52l-10.43 0Z" id="p189w120" />
<path d="M431.11 391.22l15.06 0l0 14.52l-15.06 0Z" id="p189w121" />
<path d="M449.38 391.22l22.99 0l0 14.52l-22.99 0Z" id="p189w122" />
<path d="M475.58 391.22l13.9 0l0 14.52l-13.9 0Z" id="p189w123" />
<path d="M492.68 391.22l26.99 0l0 14.52l-26.99 0Z" id="p189w124" />
<path d="M522.88 391.22l48.14 0l0 14.52l-48.14 0Z" id="p189w125" />
<path d="M435.7 407.91l52.59 0l0 14.61l-52.59 0Z" id="p189w126" />
<path d="M59.07 510.83l20.99 0l0 14.6l-20.99 0Z" id="p189w127" />
<path d="M83.27 510.83l23.55 0l0 14.6l-23.55 0Z" id="p189w128" />
<path d="M110.02 510.87l33.14 0l0 14.52l-33.14 0Z" id="p189w129" />
<path d="M146.37 509.58l45.29 0l0 16.35l-45.29 0Z" id="p189w130" />
<path d="M232.37 510.87l23.79 0l0 14.52l-23.79 0Z" id="p189w131" />
<path d="M259.36 510.87l67.62 0l0 14.52l-67.62 0Z" id="p189w132" />
<path d="M417.47 510.87l26.19 0l0 14.52l-26.19 0Z" id="p189w133" />
<path d="M446.87 510.87l9.89 0l0 14.52l-9.89 0Z" id="p189w134" />
<path d="M459.96 510.87l23.79 0l0 14.52l-23.79 0Z" id="p189w135" />
<path d="M59.07 531.5l14.31 0l0 14.6l-14.31 0Z" id="p189w136" />
<path d="M76.59 531.5l36.15 0l0 14.6l-36.15 0Z" id="p189w137" />
<path d="M116.04 530.26l46.03 0l0 16.35l-46.03 0Z" id="p189w138" />
<path d="M232.37 531.58l17.11 0l0 14.52l-17.11 0Z" id="p189w139" />
<path d="M252.68 531.58l51.97 0l0 14.52l-51.97 0Z" id="p189w140" />
<path d="M417.47 531.58l10.43 0l0 14.52l-10.43 0Z" id="p189w141" />
<path d="M431.11 531.58l19.77 0l0 14.52l-19.77 0Z" id="p189w142" />
<path d="M454.09 531.58l14.18 0l0 14.52l-14.18 0Z" id="p189w143" />
<path d="M471.47 531.58l36.35 0l0 14.52l-36.35 0Z" id="p189w144" />
<path d="M511.03 531.58l36.89 0l0 14.52l-36.89 0Z" id="p189w145" />
<path d="M551.13 531.58l14.18 0l0 14.52l-14.18 0Z" id="p189w146" />
<path d="M568.51 531.58l16.58 0l0 14.52l-16.58 0Z" id="p189w147" />
<path d="M59.07 552.21l13.78 0l0 14.6l-13.78 0Z" id="p189w148" />
<path d="M76.06 552.21l36.15 0l0 14.6l-36.15 0Z" id="p189w149" />
<path d="M115.51 550.96l47.48 0l0 16.35l-47.48 0Z" id="p189w150" />
<path d="M232.37 552.28l17.63 0l0 14.52l-17.63 0Z" id="p189w151" />
<path d="M253.21 552.28l51.97 0l0 14.52l-51.97 0Z" id="p189w152" />
<path d="M417.47 552.28l14.7 0l0 14.52l-14.7 0Z" id="p189w153" />
<path d="M435.39 552.28l36.35 0l0 14.52l-36.35 0Z" id="p189w154" />
<path d="M481.36 552.28l33.16 0l0 14.52l-33.16 0Z" id="p189w155" />
<path d="M59.07 572.92l21.38 0l0 14.6l-21.38 0Z" id="p189w156" />
<path d="M80.46 572.92l11.31 0l0 14.6l-11.31 0Z" id="p189w157" />
<path d="M95.07 571.67l31.43 0l0 16.35l-31.43 0Z" id="p189w158" />
<path d="M232.37 572.99l39.56 0l0 14.52l-39.56 0Z" id="p189w159" />
<path d="M417.47 572.99l12.83 0l0 14.52l-12.83 0Z" id="p189w160" />
<path d="M433.51 572.99l33.7 0l0 14.52l-33.7 0Z" id="p189w161" />
<path d="M470.42 572.99l25.92 0l0 14.52l-25.92 0Z" id="p189w162" />
<path d="M499.55 572.99l19.51 0l0 14.52l-19.51 0Z" id="p189w163" />
<path d="M522.26 572.99l43.04 0l0 14.52l-43.04 0Z" id="p189w164" />
<path d="M568.51 572.99l11.22 0l0 14.52l-11.22 0Z" id="p189w165" />
<path d="M582.94 572.99l20.58 0l0 14.52l-20.58 0Z" id="p189w166" />
<path d="M59.07 593.66l14.31 0l0 14.6l-14.31 0Z" id="p189w167" />
<path d="M76.59 593.66l31.3 0l0 14.6l-31.3 0Z" id="p189w168" />
<path d="M124.99 593.7l69.67 0l0 14.52l-69.67 0Z" id="p189w169" />
<path d="M59.07 609.09l49.27 0l0 16.35l-49.27 0Z" id="p189w170" />
<path d="M232.37 593.7l17.11 0l0 14.52l-17.11 0Z" id="p189w171" />
<path d="M252.68 593.7l58.55 0l0 14.52l-58.55 0Z" id="p189w172" />
<path d="M417.47 593.7l31.28 0l0 14.52l-31.28 0Z" id="p189w173" />
<path d="M451.96 593.7l32.88 0l0 14.52l-32.88 0Z" id="p189w174" />
<path d="M488.05 593.7l9.89 0l0 14.52l-9.89 0Z" id="p189w175" />
<path d="M501.14 593.7l33.7 0l0 14.52l-33.7 0Z" id="p189w176" />
<path d="M435.2 610.41l31.18 0l0 14.61l-31.18 0Z" id="p189w177" />
<path d="M490.52 610.41l32.51 0l0 14.61l-32.51 0Z" id="p189w178" />
<path d="M59.08 628.5l53.36 0l0 14.6l-53.36 0Z" id="p189w179" />
<path d="M115.74 627.26l49.91 0l0 16.35l-49.91 0Z" id="p189w180" />
<path d="M64.98 670.81l53.36 0l0 14.6l-53.36 0Z" id="p189w181" />
<path d="M121.56 670.87l24.59 0l0 14.52l-24.59 0Z" id="p189w182" />
<path d="M149.35 670.87l56.35 0l0 14.52l-56.35 0Z" id="p189w183" />
<path d="M208.91 670.87l19.77 0l0 14.52l-19.77 0Z" id="p189w184" />
<path d="M231.89 670.81l7.87 0l0 14.6l-7.87 0Z" id="p189w185" />
<path d="M239.76 670.81l15.19 0l0 14.6l-15.19 0Z" id="p189w186" />
<path d="M261.36 670.87l61.59 0l0 14.52l-61.59 0Z" id="p189w187" />
<path d="M64.98 687.54l11.5 0l0 14.52l-11.5 0Z" id="p189w188" />
<path d="M79.69 687.54l56.68 0l0 14.52l-56.68 0Z" id="p189w189" />
<path d="M139.57 687.54l50.26 0l0 14.52l-50.26 0Z" id="p189w190" />
<path d="M193.04 687.54l55.61 0l0 14.52l-55.61 0Z" id="p189w191" />
<path d="M251.86 687.54l26.74 0l0 14.52l-26.74 0Z" id="p189w192" />
<path d="M281.81 687.54l48.39 0l0 14.52l-48.39 0Z" id="p189w193" />
<path d="M330.2 687.48l11.48 0l0 14.6l-11.48 0Z" id="p189w194" />
<path d="M341.68 687.54l22.47 0l0 14.52l-22.47 0Z" id="p189w195" />
<path d="M64.98 704.22l25.67 0l0 14.52l-25.67 0Z" id="p189w196" />
<path d="M93.86 704.22l48.39 0l0 14.52l-48.39 0Z" id="p189w197" />
<path d="M142.25 704.15l11.48 0l0 14.6l-11.48 0Z" id="p189w198" />
<path d="M153.74 704.22l15.25 0l0 14.52l-15.25 0Z" id="p189w199" />
<path d="M172.19 704.22l42.36 0l0 14.52l-42.36 0Z" id="p189w200" />
<path d="M217.75 704.22l48.39 0l0 14.52l-48.39 0Z" id="p189w201" />
<path d="M266.14 704.15l11.48 0l0 14.6l-11.48 0Z" id="p189w202" />
<path d="M277.63 704.22l18.44 0l0 14.52l-18.44 0Z" id="p189w203" />
<path d="M64.98 720.82l31.41 0l0 14.61l-31.41 0Z" id="p189w204" />
<path d="M99.61 720.82l48.4 0l0 14.61l-48.4 0Z" id="p189w205" />
<path d="M157.63 720.89l14.8 0l0 14.52l-14.8 0Z" id="p189w206" />
<path d="M175.63 720.89l51.07 0l0 14.52l-51.07 0Z" id="p189w207" />
<path d="M232.37 628.57l43.83 0l0 14.52l-43.83 0Z" id="p189w208" />
<path d="M279.41 628.57l56.1 0l0 14.52l-56.1 0Z" id="p189w209" />
<path d="M232.37 645.24l73.51 0l0 14.52l-73.51 0Z" id="p189w210" />
<path d="M428.43 628.57l9.89 0l0 14.52l-9.89 0Z" id="p189w211" />
<path d="M441.52 628.57l7.48 0l0 14.52l-7.48 0Z" id="p189w212" />
<path d="M459.43 628.57l14.18 0l0 14.52l-14.18 0Z" id="p189w213" />
<path d="M476.81 628.57l44.39 0l0 14.52l-44.39 0Z" id="p189w214" />
<path d="M524.41 628.57l15.5 0l0 14.52l-15.5 0Z" id="p189w215" />
<path d="M543.12 628.57l26.66 0l0 14.52l-26.66 0Z" id="p189w216" />
<path d="M417.47 645.24l80.73 0l0 14.52l-80.73 0Z" id="p189w217" />
<path d="M435.2 661.93l73.36 0l0 14.61l-73.36 0Z" id="p189w218" />
<path d="M59.08 748.14l39.23 0l0 14.6l-39.23 0Z" id="p189w219" />
<path d="M101.6 746.9l48.81 0l0 16.35l-48.81 0Z" id="p189w220" />
<path d="M232.37 748.22l26.2 0l0 14.52l-26.2 0Z" id="p189w221" />
<path d="M417.48 748.22l28.07 0l0 14.52l-28.07 0Z" id="p189w222" />
<path d="M448.76 748.22l46.77 0l0 14.52l-46.77 0Z" id="p189w223" />
<path d="M498.73 748.22l30.46 0l0 14.52l-30.46 0Z" id="p189w224" />
<path d="M532.4 748.22l39.22 0l0 14.52l-39.22 0Z" id="p189w225" />
<path d="M574.83 748.22l9.89 0l0 14.52l-9.89 0Z" id="p189w226" />
<path d="M587.92 748.22l46.07 0l0 14.52l-46.07 0Z" id="p189w227" />
<path d="M417.48 764.89l37.68 0l0 14.52l-37.68 0Z" id="p189w228" />
<path d="M59.08 782.96l43.15 0l0 14.6l-43.15 0Z" id="p189w229" />
<path d="M105.52 781.72l45.72 0l0 16.35l-45.72 0Z" id="p189w230" />
<path d="M232.37 783.04l33.3 0l0 14.52l-33.3 0Z" id="p189w231" />
<path d="M268.88 783.04l40.54 0l0 14.52l-40.54 0ZM417.48 783.04l12.83 0l0 14.52l-12.83 0Z" id="p189w232" />
<path d="M433.51 783.04l36.63 0l0 14.52l-36.63 0Z" id="p189w233" />
<path d="M473.35 783.04l16.83 0l0 14.52l-16.83 0Z" id="p189w234" />
<path d="M493.39 783.04l45.71 0l0 14.52l-45.71 0Z" id="p189w235" />
<path d="M429.72 799.72l24.21 0l0 14.61l-24.21 0Z" id="p189w236" />
<path d="M435.2 816.39l55.86 0l0 14.61l-55.86 0Z" id="p189w237" />
<path d="M59.08 834.45l36.17 0l0 14.6l-36.17 0Z" id="p189w238" />
<path d="M98.45 834.45l32.19 0l0 14.6l-32.19 0Z" id="p189w239" />
<path d="M133.94 833.21l29.03 0l0 16.35l-29.03 0Z" id="p189w240" />
<path d="M232.37 834.53l48.1 0l0 14.52l-48.1 0Z" id="p189w241" />
<path d="M283.68 834.53l37.91 0l0 14.52l-37.91 0Z" id="p189w242" />
<path d="M232.37 851.2l48.1 0l0 14.52l-48.1 0Z" id="p189w243" />
<path d="M283.68 851.2l71.38 0l0 14.52l-71.38 0Z" id="p189w244" />
<path d="M417.48 834.53l12.41 0l0 14.52l-12.41 0Z" id="p189w245" />
<path d="M433.09 834.53l26.74 0l0 14.52l-26.74 0Z" id="p189w246" />
<path d="M463.04 834.53l17.63 0l0 14.52l-17.63 0Z" id="p189w247" />
<path d="M483.88 834.53l35.53 0l0 14.52l-35.53 0Z" id="p189w248" />
<path d="M522.62 834.53l37.96 0l0 14.52l-37.96 0Z" id="p189w249" />
<path d="M563.79 834.53l14.18 0l0 14.52l-14.18 0Z" id="p189w250" />
<path d="M581.17 834.53l20.85 0l0 14.52l-20.85 0Z" id="p189w251" />
<path d="M417.48 851.2l13.9 0l0 14.52l-13.9 0Z" id="p189w252" />
<path d="M434.58 851.2l35 0l0 14.52l-35 0Z" id="p189w253" />
<path d="M59.08 869.27l12.42 0l0 14.6l-12.42 0Z" id="p189w254" />
<path d="M74.7 869.27l54.05 0l0 14.6l-54.05 0Z" id="p189w255" />
<path d="M132.05 868.03l62.22 0l0 16.35l-62.22 0Z" id="p189w256" />
<path d="M232.37 869.35l21.92 0l0 14.52l-21.92 0Z" id="p189w257" />
<path d="M257.5 869.35l54.79 0l0 14.52l-54.79 0Z" id="p189w258" />
<path d="M417.48 869.35l26.21 0l0 14.52l-26.21 0Z" id="p189w259" />
<path d="M446.9 869.35l39.85 0l0 14.52l-39.85 0Z" id="p189w260" />
<path d="M489.95 869.35l25.67 0l0 14.52l-25.67 0Z" id="p189w261" />
<path d="M518.83 869.35l53.71 0l0 14.52l-53.71 0Z" id="p189w262" />
<path d="M59.08 889.98l83.05 0l0 14.6l-83.05 0Z" id="p189w263" />
<path d="M145.43 888.74l42 0l0 16.35l-42 0Z" id="p189w264" />
<path d="M232.37 890.06l37.42 0l0 14.52l-37.42 0Z" id="p189w265" />
<path d="M417.48 890.06l26.19 0l0 14.52l-26.19 0Z" id="p189w266" />
<path d="M446.87 890.06l20.85 0l0 14.52l-20.85 0Z" id="p189w267" />
<path d="M470.93 890.06l48.39 0l0 14.52l-48.39 0Z" id="p189w268" />
<path d="M522.53 890.06l21.37 0l0 14.52l-21.37 0Z" id="p189w269" />
<path d="M547.11 890.06l46.51 0l0 14.52l-46.51 0Z" id="p189w270" />
<path d="M438.22 906.75l18.16 0l0 14.61l-18.16 0Z" id="p189w271" />
</svg>
